<svg xmlns="http://www.w3.org/2000/svg" width="24" height="24" viewBox="0 0 24 24"><path d="M21.984 12.236a9.97 9.97 0 0 0-2.913-7.308 9.97 9.97 0 0 0-7.308-2.913 9.04 9.04 0 0 1-.673 4.313l-1.84-.78a7.04 7.04 0 0 0 .526-3.284 9.93 9.93 0 0 0-4.847 2.665 9.9 9.9 0 0 0-2.666 4.852 7.1 7.1 0 0 0 2.576-.276l.575 1.916c-1.1.33-2.257.443-3.398.344a9.96 9.96 0 0 0 2.913 7.307 9.97 9.97 0 0 0 7.307 2.913 9.1 9.1 0 0 1 .344-3.398l1.916.575a7.1 7.1 0 0 0-.276 2.576 9.93 9.93 0 0 0 4.853-2.666 9.93 9.93 0 0 0 2.665-4.848 7.06 7.06 0 0 0-3.284.526l-.78-1.841a9 9 0 0 1 4.31-.673zM9.17 9.173a9 9 0 0 1-2.192 1.612l-.927-1.772a7 7 0 0 0 2.576-2.314l1.663 1.113c-.328.49-.705.948-1.12 1.361zm7.074 7.068a7 7 0 0 0-1.257 1.708l-1.772-.927a9 9 0 0 1 2.972-3.312l1.113 1.663a7 7 0 0 0-1.056.868z"/></svg>