<svg xmlns="http://www.w3.org/2000/svg" width="24" height="24" viewBox="0 0 24 24"><path d="M18.328 4.258a9.95 9.95 0 0 0-5.949-2.235 9 9 0 0 1-1.835 7.107L12 10.586zM7.701 9.115 4.258 5.672a9.94 9.94 0 0 0-2.112 4.704 7 7 0 0 0 5.555-1.261zm12.041-3.443L13.414 12l1.456 1.456a9 9 0 0 1 7.107-1.835 9.95 9.95 0 0 0-2.235-5.949zm2.112 7.952a7 7 0 0 0-5.555 1.261l3.443 3.443a9.9 9.9 0 0 0 2.112-4.704zM9.115 7.701a7 7 0 0 0 1.261-5.555 9.9 9.9 0 0 0-4.704 2.112zm4.509 14.153a9.94 9.94 0 0 0 4.704-2.111L14.885 16.3a7 7 0 0 0-1.261 5.554zM12 13.414l-6.328 6.328a9.95 9.95 0 0 0 5.949 2.235 9 9 0 0 1 1.835-7.107zm-7.742 4.914L10.586 12 9.13 10.544a9 9 0 0 1-7.107 1.835 9.95 9.95 0 0 0 2.235 5.949z"/></svg>