<svg xmlns="http://www.w3.org/2000/svg" xml:space="preserve" width="64" height="64" viewBox="0 0 64 64"><path d="m19.287 49.042-10-3-1.245.671-3 10 1.916.574 2.293-7.646C13.273 58.318 22.113 64 32 64c9.987 0 18.912-5.794 22.875-14.619l3.196 7.99 1.857-.742-4-10-1.216-.587-10 3 .574 1.916 7.727-2.318C49.487 56.412 41.756 61.591 33 61.961V18h8v-2h-8v-2.08c3.387-.487 6-3.4 6-6.92 0-3.859-3.14-7-7-7s-7 3.141-7 7c0 3.52 2.613 6.433 6 6.92V16h-8v2h8v43.961c-8.755-.37-16.486-5.549-20.013-13.321l7.726 2.318zM27 7c0-2.757 2.243-5 5-5s5 2.243 5 5-2.243 5-5 5-5-2.243-5-5z"/></svg>