<svg xmlns="http://www.w3.org/2000/svg" xml:space="preserve" width="64" height="64" viewBox="0 0 64 64"><path d="M32 64.001c8.547 0 16.582-3.329 22.626-9.374C60.671 48.583 64 40.547 64 32s-3.329-16.583-9.374-22.627C48.582 3.328 40.547-.001 32-.001S15.418 3.328 9.374 9.373C3.329 15.417 0 23.453 0 32s3.329 16.583 9.374 22.627c6.044 6.045 14.079 9.374 22.626 9.374zm21.212-53.214C58.879 16.453 62 23.987 62 32c0 7.678-2.872 14.912-8.098 20.488l-42.39-42.39C17.088 4.872 24.321 1.999 32 1.999c8.013 0 15.546 3.121 21.212 8.788zm-43.114.725 42.391 42.391c-5.576 5.226-12.81 8.099-20.488 8.099-8.013 0-15.546-3.121-21.212-8.788C5.121 47.547 2 40.013 2 32c0-7.678 2.872-14.912 8.098-20.488z"/></svg>