<svg xmlns="http://www.w3.org/2000/svg" xml:space="preserve" width="64" height="64" viewBox="0 0 64 64"><path d="M11 64.618V14.585L25.586 0H53v64.617l-5-2.499-4 2-4-2-4 2-4-2-4 2-4-2-4 2-4-2zm29-4.736 4 2 4-2 3 1.499V2H26.414L13 15.413v45.969l3-1.5 4 2 4-2 4 2 4-2 4 2z"/><path d="M27 16H12v-2h13V1h2zm5 29c-2.667 0-4.613-.598-5.785-1.775-1.225-1.231-1.217-2.696-1.215-3.179L27 40c-.002.418-.006 1.172.633 1.813C28.405 42.59 29.915 43 32 43c2.397 0 4.093-.489 5.04-1.455 1.006-1.025.979-2.43.963-3.27L38 38c0-.039-.321-4-6-4-4.907 0-7-1.495-7-5v-.147c-.002-1.211-.006-2.87 1.285-4.163C27.419 23.553 29.289 23 32 23c2.563 0 4.482.646 5.706 1.919 1.324 1.378 1.301 2.947 1.293 3.121l-1.998-.08L38 28l-1-.026c0-.038.002-.922-.766-1.699C35.41 25.44 33.946 25 32 25c-2.123 0-3.569.371-4.3 1.103-.705.706-.702 1.743-.7 2.746V29c0 1.337 0 3 5 3 6.642 0 8 4.732 8 6l.003.237c.019 1.001.059 3.084-1.536 4.709C37.13 44.309 34.954 45 32 45z"/><path d="M33 21h2v27h-2zm-4 0h2v27h-2z"/></svg>