<svg xmlns="http://www.w3.org/2000/svg" xml:space="preserve" width="64" height="64" viewBox="0 0 64 64"><path d="M52.728 60H11.272L-.375 24h64.75zm-40-2h38.545l10.353-32H2.375z"/><path d="m21.072 4.63 1.858.743-8.003 20-1.858-.744zM42.928 4.63l8 20-1.858.743-8-20zM35 52h-4c-5.151 0-9-5.279-9-10h2c0 3.7 3.058 8 7 8h4z"/><path d="m32.8 55.6-1.6-1.2 2.55-3.4-2.55-3.4 1.6-1.2 3 4v1.2zM42 42h-2c0-3.7-3.058-8-7-8h-4v-2h4c5.151 0 9 5.279 9 10z"/><path d="m31.2 37.6-3-4v-1.2l3-4 1.6 1.2-2.55 3.4 2.55 3.4z"/></svg>