<svg xmlns="http://www.w3.org/2000/svg" xml:space="preserve" width="64" height="64" viewBox="0 0 64 64"><path d="M11 64.618V14.585L25.586 0H53v64.617l-5-2.499-4 2-4-2-4 2-4-2-4 2-4-2-4 2-4-2zm29-4.736 4 2 4-2 3 1.499V2H26.414L13 15.413v45.969l3-1.5 4 2 4-2 4 2 4-2 4 2z"/><path d="M27 16H12v-2h13V1h2zm7 31c-4.562 0-10-2.256-10-13 0-8.075 3.271-12 10-12 7.585 0 8.837 3.324 8.955 3.703l-1.91.594h0C41.043 26.297 40.061 24 34 24c-5.532 0-8 3.084-8 10 0 7.402 2.617 11 8 11 6.202 0 7.019-3.194 7.026-3.228l1.947.455C42.929 42.422 41.771 47 34 47z"/><path d="M33 20h2v29h-2z"/></svg>