<svg xmlns="http://www.w3.org/2000/svg" xml:space="preserve" width="64" height="64" viewBox="0 0 64 64"><path d="M11 64.618V14.585L25.586 0H53v64.617l-5-2.499-4 2-4-2-4 2-4-2-4 2-4-2-4 2-4-2zm29-4.736 4 2 4-2 3 1.499V2H26.414L13 15.413v45.969l3-1.5 4 2 4-2 4 2 4-2 4 2z"/><path d="M27 16H12v-2h13V1h2zm-4 4h2v28h-2z"/><path d="M30.544 38.015c-.353 0-.572-.015-.614-.018L24 38v-2h6c.113.006 4.562.274 7.149-2.145 1.239-1.159 1.868-2.793 1.868-4.855s-.629-3.696-1.868-4.855c-2.584-2.417-7.034-2.151-7.081-2.146L24 22v-2h6c.145-.011 5.278-.335 8.506 2.675 1.667 1.554 2.512 3.682 2.512 6.325s-.845 4.771-2.512 6.325c-2.612 2.436-6.47 2.69-7.962 2.69z"/><path d="M20 26h24v2H20zm0 4h24v2H20z"/></svg>