<svg xmlns="http://www.w3.org/2000/svg" xml:space="preserve" width="64" height="64" viewBox="0 0 64 64"><path d="M11 64.618V14.585L25.586 0H53v64.617l-5-2.499-4 2-4-2-4 2-4-2-4 2-4-2-4 2-4-2zm29-4.736 4 2 4-2 3 1.499V2H26.414L13 15.413v45.969l3-1.5 4 2 4-2 4 2 4-2 4 2z"/><path d="M27 16H12v-2h13V1h2zm-2 6h2v26h-2z"/><path d="M31 35h-5v-2h5c.202-.001 5-.07 5-4 0-4.943-4.796-5-5-5h-5v-2h5c2.421 0 7 1.463 7 7 0 4.746-4.579 6-7 6z"/><path d="M32 48h-6v-2h6c.243-.001 6-.084 6-5 0-1.889-.53-3.359-1.576-4.372-1.75-1.693-4.362-1.629-4.392-1.629L27 35v-2h5c.106-.001 3.464-.085 5.815 2.191C39.265 36.595 40 38.549 40 41c0 5.537-5.233 7-8 7z"/><path d="M31 20h2v30h-2z"/></svg>