<svg xmlns="http://www.w3.org/2000/svg" width="64" height="64" viewBox="0 0 64 64"><path d="M56 0H22.586L8 14.586V64h48zM22 3.414V14H11.414zM54 62H10V16h14V2h30z"/><path d="M22 31a1.002 1.002 0 0 0-.555 1.832l5.382 3.588-1.909 6.29a1 1 0 0 0 1.503 1.128l5.569-3.637 5.388 3.629a1 1 0 0 0 1.143-.018 1 1 0 0 0 .38-1.078l-1.744-6.303 5.397-3.599A1 1 0 0 0 42 31h-6.307l-2.757-7.351c-.147-.395-.568-.633-.948-.649a1 1 0 0 0-.933.671L28.502 31zm8.157 1.329 1.877-5.389 2.029 5.411c.147.39.52.649.937.649h3.697l-3.252 2.168c-.359.24-.524.683-.409 1.099l1.216 4.392-3.693-2.488a1 1 0 0 0-1.105-.008l-3.822 2.497 1.326-4.369a1 1 0 0 0-.402-1.123L25.303 33h3.91a1 1 0 0 0 .944-.671z"/></svg>