<svg xmlns="http://www.w3.org/2000/svg" xml:space="preserve" width="64" height="64" viewBox="0 0 64 64"><path d="M55.978 33.05C55.458 21.91 45.828 13 34.066 13c-10.404 0-19.648 6.823-21.871 16h-.862C5.084 29 0 33.935 0 40c0 6.168 4.832 11 11 11h44c5.047 0 9-3.953 9-9 0-4.716-3.452-8.477-8.022-8.95zM55 49H11c-5.047 0-9-3.953-9-9 0-4.962 4.187-9 9.333-9h2.491l.157-.81C15.663 21.531 24.298 15 34.066 15 45.058 15 54 23.523 54 34v1h1c3.925 0 7 3.075 7 7s-3.075 7-7 7z"/><path d="M32.2 37.6 34 40h-2c-3.942 0-7-4.3-7-8h-2c0 4.721 3.849 10 9 10h2l-1.8 2.4 1.7 1.2 3.1-4v-1.2l-3.1-4zM34 22h-2l1.8-2.4-1.7-1.2-3.1 4v1.2l3.1 4 1.65-1.2L32 24h2c3.942 0 7 4.3 7 8h2c0-4.721-3.849-10-9-10z"/></svg>