<svg xmlns="http://www.w3.org/2000/svg" xml:space="preserve" width="64" height="64" viewBox="0 0 64 64"><path d="M54 0H10v64h44zm-2 2v6H12V2zm0 8v40H12V10zM12 62V52h40v10z"/><path d="m31.529 39.882.471.251.471-.251C32.9 39.653 43 34.184 43 27c0-3.42-2.579-6-6-6a6 6 0 0 0-5 2.687A6 6 0 0 0 27 21c-3.421 0-6 2.58-6 6 0 7.184 10.1 12.653 10.529 12.882zM27 23c2.206 0 4 1.794 4 4h2c0-2.206 1.794-4 4-4 2.317 0 4 1.682 4 4 0 5.203-7.086 9.724-9 10.85-1.914-1.126-9-5.647-9-10.85 0-2.318 1.683-4 4-4zm1-19h8v2h-8zm4 50c-1.654 0-3 1.346-3 3s1.346 3 3 3 3-1.346 3-3-1.346-3-3-3zm0 4a1.001 1.001 0 0 1 0-2 1.001 1.001 0 0 1 0 2z"/></svg>