<svg xmlns="http://www.w3.org/2000/svg" xml:space="preserve" width="64" height="64" viewBox="0 0 64 64"><path d="M40.781 4H37V0H27v4h-3.781l-.75 3H9v57h46V7H41.531zm-16 2H29V2h6v4h4.219l1.5 6H23.281zM53 9v53H11V9h10.969l-1.25 5h22.562l-1.25-5z"/><path d="M42 33h-6.307l-2.757-7.352a.98.98 0 0 0-.948-.648 1 1 0 0 0-.933.671L28.502 33H22a1 1 0 0 0-.555 1.832l5.382 3.588-1.909 6.29a1 1 0 0 0 1.503 1.127L31.99 42.2l5.388 3.629a1 1 0 0 0 1.144-.017 1 1 0 0 0 .38-1.078l-1.744-6.303 5.397-3.599A1 1 0 0 0 42 33zm-6.555 4.168a1 1 0 0 0-.409 1.099l1.216 4.392-3.693-2.487a.99.99 0 0 0-1.105-.008l-3.822 2.496 1.326-4.369a1 1 0 0 0-.402-1.122L25.303 35h3.91a1 1 0 0 0 .944-.671l1.877-5.389 2.029 5.411c.147.39.52.649.937.649h3.697z"/></svg>