<svg xmlns="http://www.w3.org/2000/svg" width="64" height="64" viewBox="0 0 64 64"><path d="M39.942 35.114C39.475 31.572 36.217 29 32 29c-3.69 0-6.845 3.021-7.797 6.081C22.07 35.527 21 37.716 21 39c0 2.542 1.458 4 4 4h14c2.505 0 4-1.495 4-4 0-1.255-1.021-3.373-3.058-3.886zM39 41H25c-1.439 0-2-.561-2-2 0-.482.602-2 2-2h.825l.157-.81C26.458 33.74 29.132 31 32 31c2.909 0 6 1.752 6 5v1h1c1.398 0 2 1.518 2 2 0 1.383-.617 2-2 2z"/><path d="M40.781 4H37V0H27v4h-3.781l-.75 3H9v57h46V7H41.531zm-16 2H29V2h6v4h4.219l1.5 6H23.281zM53 9v53H11V9h10.969l-1.25 5h22.562l-1.25-5z"/></svg>