<svg xmlns="http://www.w3.org/2000/svg" width="64" height="64" viewBox="0 0 64 64"><path d="M43 14H21v16h22zm-4 2c1.103 0 2 .897 2 2s-.897 2-2 2-2-.897-2-2 .897-2 2-2zm-3.443 0A3.95 3.95 0 0 0 35 18c0 2.206 1.794 4 4 4 .732 0 1.409-.212 2-.556v5.254l-6.062-5.051-1.855 1.856-4-5L23 24.586V16zM23 27.414l5.917-5.917 4 5 2.145-2.144L39.438 28H23z"/><path d="M54 21.142V0H10v21.142L0 25.335V64h64V25.335zm6.836 5.035L54 30.462v-7.151zM52 2v29.716L32 44.253 12 31.716V2zM10 30.462l-6.836-4.285L10 23.311zM2 62V27.807l30 18.807 30-18.807V62z"/></svg>