<svg xmlns="http://www.w3.org/2000/svg" xml:space="preserve" width="64" height="64" viewBox="0 0 64 64"><path d="M40 64v-6h2v-6h2v-6l.001-5.558C50.272 36.359 54 29.507 54 22 54 9.869 44.131 0 32 0S10 9.869 10 22c0 7.459 3.817 14.514 10 18.55V52h2v6h2v6zm-2-2H26v-4h12zM21.524 39.148C15.649 35.53 12 28.96 12 22c0-11.028 8.972-20 20-20s20 8.972 20 20c0 6.995-3.561 13.366-9.523 17.041l-.477.293V44h-4.839l2.828-18.852-1.979-.297-.108.722-2.809 2.106L32 24.586l-3.094 3.094-2.809-2.106-.108-.722-1.979.297L26.839 44H22v-4.559zM28.861 44 26.52 28.39l2.574 1.931L32 27.414l2.906 2.906 2.574-1.931L35.139 44zM22 46h20v4H22zm2 6h16v4H24z"/></svg>