<svg xmlns="http://www.w3.org/2000/svg" width="64" height="64" viewBox="0 0 64 64"><path d="M33 0C19.583 0 6 2.748 6 8v48c0 5.252 13.583 8 27 8s27-2.748 27-8V8c0-5.252-13.583-8-27-8zm0 62c-15.489 0-25-3.495-25-6V43.225C12.254 46.37 22.672 48 33 48s20.746-1.63 25-4.775V56c0 2.505-9.511 6-25 6zm0-16c-15.489 0-25-3.495-25-6V27.225C12.254 30.37 22.672 32 33 32s20.746-1.63 25-4.775V40c0 2.505-9.511 6-25 6zm0-16c-15.489 0-25-3.495-25-6V11.225C12.254 14.37 22.672 16 33 16s20.746-1.63 25-4.775V24c0 2.505-9.511 6-25 6zm0-16C17.511 14 8 10.505 8 8s9.511-6 25-6 25 3.495 25 6-9.511 6-25 6z"/></svg>