<svg xmlns="http://www.w3.org/2000/svg" xml:space="preserve" width="64" height="64" viewBox="0 0 64 64"><path d="M19 60v-2h-1.743l-.699-1.233-1.74.987L16.093 60zM4.548 39.66l-2.054-3.618 1.74-.987 2.053 3.618zM10.397 45.912l2.054 3.619-1.74.987-2.053-3.619zM13.477 51.34l2.054 3.618-1.74.987-2.053-3.618zM7.317 40.485l2.055 3.618-1.74.988-2.054-3.619zM.201 32l1.267 2.233 1.74-.987L2.5 32l.708-1.246-1.74-.987zM7.315 23.514l-1.739-.987 2.054-3.62 1.74.988zM13.476 12.659l-1.74-.987 2.055-3.619 1.74.987zM4.234 28.942l-1.74-.988 2.055-3.618 1.74.987zM10.395 18.087 8.656 17.1l2.054-3.619 1.74.987zM14.818 6.246l1.74.987L17.257 6H19V4h-2.907zM27 4h4v2h-4zm6 0h4v2h-4zM21 4h4v2h-4zm18 0h4v2h-4zm6 0v2h1.743l.699 1.233 1.74-.987L47.907 4zM56.684 23.52 54.63 19.9l1.739-.987 2.054 3.619zM50.522 12.66l-2.054-3.618 1.74-.987 2.053 3.618zM53.603 18.089l-2.054-3.62 1.74-.986 2.053 3.618zM59.765 28.945l-2.054-3.62 1.74-.986 2.053 3.618zM63.799 32l-1.267-2.233-1.74.987L61.5 32l-.708 1.246 1.74.987zM50.204 55.937l-1.74-.988 2.055-3.618 1.739.987zM53.602 45.913l1.739.987-2.054 3.619-1.74-.987zM56.683 40.484l1.739.988-2.054 3.618-1.74-.987zM59.763 35.057l1.74.987-2.055 3.619-1.739-.987zM45 60h2.907l1.275-2.246-1.74-.987L46.743 58H45zm-6-2h4v2h-4zm-12 0h4v2h-4zm6 0h4v2h-4zm-12 0h4v2h-4z"/></svg>