<svg xmlns="http://www.w3.org/2000/svg" xml:space="preserve" width="64" height="64" viewBox="0 0 64 64"><path d="M16 0h4v2h-4zm6 0h4v2h-4zm6 0h4v2h-4zM4 0h4v2H4zm6 0h4v2h-4zm38 62h4v2h-4zm14-30h2v4h-2zM46 0h4v2h-4zm16 44h2v4h-2zm0-18h2v4h-2zM52 0h4v2h-4zM0 6h2v4H0zm0-6h2v4H0zm0 24h2v4H0zm62 26h2v4h-2zM42 62h4v2h-4zm20-6h2v4h-2zM0 12h2v4H0zm0 6h2v4H0zm60 44h4v2h-4zm2-24h2v4h-2zm-8 24h4v2h-4zm8-48h2v4h-2zm0 6h2v4h-2zM40 0h4v2h-4zm18 0h4v2h-4zm4 2h2v4h-2zm0 6h2v4h-2zM36 62h4v2h-4zM34 0h4v2h-4zm-2 32H0v32h32zm-2 30H2V34h28zm11.707-38.293L56 9.414V18h2V7l-1-1H46v2h8.586L40.293 22.293z"/></svg>