<svg xmlns="http://www.w3.org/2000/svg" width="64" height="64" viewBox="0 0 64 64"><path d="M19 60v-2h-1.743l-.699-1.233-1.74.987L16.093 60zM4.548 39.66l-2.054-3.618 1.74-.987 2.053 3.618zm5.849 6.252 2.054 3.619-1.74.987-2.053-3.619zm3.08 5.428 2.054 3.618-1.74.987-2.053-3.618zm-6.16-10.855 2.055 3.618-1.74.988-2.054-3.619zM.201 32l1.267 2.233 1.74-.987L2.5 32l.708-1.246-1.74-.987zm7.114-8.486-1.739-.987 2.054-3.62 1.74.988zm6.161-10.855-1.74-.987 2.055-3.619 1.74.987zM4.234 28.942l-1.74-.988 2.055-3.618 1.74.987zm6.161-10.855L8.656 17.1l2.054-3.619 1.74.987zm4.423-11.841 1.74.987L17.257 6H19V4h-2.907zM27 4h4v2h-4zm6 0h4v2h-4zM21 4h4v2h-4zm18 0h4v2h-4zm6 0v2h1.743l.699 1.233 1.74-.987L47.907 4zm11.684 19.52L54.63 19.9l1.739-.987 2.054 3.619zm-6.162-10.86-2.054-3.618 1.74-.987 2.053 3.618zm3.081 5.429-2.054-3.62 1.74-.986 2.053 3.618zm6.162 10.856-2.054-3.62 1.74-.986 2.053 3.618zM63.799 32l-1.267-2.233-1.74.987L61.5 32l-.708 1.246 1.74.987zM50.204 55.937l-1.74-.988 2.055-3.618 1.739.987zm3.398-10.024 1.739.987-2.054 3.619-1.74-.987zm3.081-5.429 1.739.988-2.054 3.618-1.74-.987zm3.08-5.427 1.74.987-2.055 3.619-1.739-.987zM45 60h2.907l1.275-2.246-1.74-.987L46.743 58H45zm-6-2h4v2h-4zm-12 0h4v2h-4zm6 0h4v2h-4zm-12 0h4v2h-4z"/></svg>