<svg xmlns="http://www.w3.org/2000/svg" width="64" height="64" viewBox="0 0 64 64"><path d="M2 36c0 8.523 7.477 16 16 16 4.778 0 8.713-2.557 10.979-6.785C28.809 50.633 27.523 62 23 62v2h18v-2c-4.48 0-5.785-11.173-5.975-16.645C37.461 49.37 41.867 52 47 52c9.265 0 15-8.306 15-16 0-7.979-4.992-16.455-14.836-25.192C39.919 4.377 32.567.172 32.494.131L32-.15l-.494.281c-.073.041-7.425 4.246-14.67 10.677C6.992 19.545 2 28.021 2 36zM32 2.16C35.791 4.43 60 19.573 60 36c0 6.733-4.97 14-13 14-6.841 0-12-5.159-12-12h-2v6c0 1.624.142 13.261 4.083 18H26.917C30.858 57.261 31 45.624 31 44v-6l-1.997-.085C28.493 43.931 24.892 50 18 50c-7.458 0-14-6.542-14-14C4 19.582 28.212 4.43 32 2.16z"/></svg>