<svg xmlns="http://www.w3.org/2000/svg" width="64" height="64" viewBox="0 0 64 64"><path d="M32 0C23.452 0 15.417 3.329 9.373 9.374 3.328 15.418-.001 23.453-.001 32s3.329 16.582 9.374 22.626C15.417 60.671 23.452 64 32 64s16.583-3.329 22.627-9.374c6.045-6.044 9.374-14.079 9.374-22.626s-3.329-16.582-9.374-22.626C48.583 3.329 40.547 0 32 0zm21.213 53.212C47.547 58.879 40.013 62 32 62s-15.547-3.121-21.213-8.788S1.999 40.013 1.999 32s3.121-15.546 8.788-21.212S23.986 2 32 2c8.013 0 15.547 3.121 21.213 8.788S62.001 23.987 62.001 32s-3.121 15.546-8.788 21.212z"/><path d="M32 8a23.84 23.84 0 0 0-16.97 7.03C10.496 19.562 8 25.59 8 32s2.496 12.438 7.03 16.97A23.84 23.84 0 0 0 32 56c6.41 0 12.438-2.496 16.97-7.03C53.504 44.438 56 38.41 56 32s-2.496-12.438-7.03-16.97C44.438 10.496 38.41 8 32 8zm15.556 39.556A21.85 21.85 0 0 1 32 54a21.85 21.85 0 0 1-15.556-6.444C12.288 43.4 10 37.876 10 32s2.288-11.4 6.444-15.556A21.85 21.85 0 0 1 32 10c5.876 0 11.4 2.288 15.556 6.444S54 26.124 54 32s-2.288 11.4-6.444 15.556z"/><path d="M32 16a15.9 15.9 0 0 0-11.313 4.687C17.664 23.708 16 27.727 16 32s1.664 8.292 4.687 11.313C23.708 46.336 27.727 48 32 48s8.292-1.664 11.313-4.687C46.336 40.292 48 36.273 48 32s-1.664-8.292-4.687-11.313A15.9 15.9 0 0 0 32 16zm9.899 25.899C39.255 44.544 35.739 46 32 46s-7.255-1.456-9.899-4.101S18 35.739 18 32s1.456-7.255 4.101-9.899S28.261 18 32 18s7.255 1.456 9.899 4.101S46 28.261 46 32s-1.456 7.255-4.101 9.899z"/><path d="M32 24a7.94 7.94 0 0 0-5.656 2.344C24.832 27.854 24 29.863 24 32s.832 4.146 2.344 5.656C27.854 39.168 29.863 40 32 40s4.146-.832 5.656-2.344C39.168 36.146 40 34.137 40 32s-.832-4.146-2.344-5.656A7.94 7.94 0 0 0 32 24zm4.242 12.242C35.108 37.376 33.603 38 32 38s-3.108-.624-4.242-1.758S26 33.603 26 32s.624-3.108 1.758-4.242S30.397 26 32 26s3.108.624 4.242 1.758S38 30.397 38 32s-.624 3.108-1.758 4.242z"/></svg>