<svg xmlns="http://www.w3.org/2000/svg" width="64" height="64" viewBox="0 0 64 64"><path d="M53 32c0-6.993-3.449-13.181-8.721-17H45V0H19v15h.721C14.449 18.819 11 25.007 11 32s3.449 13.181 8.721 17H19v15h26V49h-.721C49.551 45.181 53 38.993 53 32zM21 2h22v12.146C39.796 12.164 36.036 11 32 11s-7.796 1.164-11 3.146zm22 60H21V49.854C24.204 51.836 27.964 53 32 53s7.796-1.164 11-3.146zM32 51c-10.477 0-19-8.523-19-19s8.523-19 19-19 19 8.523 19 19-8.523 19-19 19z"/><path d="M33 20h-2v12.618l8.553 4.277.894-1.79L33 31.382z"/></svg>