<svg xmlns="http://www.w3.org/2000/svg" xml:space="preserve" width="64" height="64" viewBox="0 0 64 64"><path d="M54.627 54.627c12.477-12.477 12.477-32.778 0-45.255C48.583 3.328 40.547-.001 32-.001S15.417 3.328 9.373 9.372c-12.477 12.477-12.477 32.778 0 45.255C15.417 60.671 23.453 64 32 64s16.583-3.329 22.627-9.373zm-43.84-43.841C16.453 5.12 23.987 1.999 32 1.999s15.547 3.121 21.213 8.787c11.697 11.697 11.697 30.729 0 42.427C47.547 58.879 40.013 62 32 62s-15.547-3.121-21.213-8.787c-11.697-11.697-11.697-30.73 0-42.427z"/><path d="M32 27c-1.336 0-2.591.52-3.535 1.464a5.006 5.006 0 0 0 0 7.071c.944.944 2.199 1.464 3.535 1.464s2.591-.52 3.535-1.464a5.006 5.006 0 0 0 0-7.071A4.97 4.97 0 0 0 32 27zm2.121 7.121c-1.133 1.133-3.109 1.133-4.242 0a3.003 3.003 0 0 1 0-4.243C30.445 29.312 31.198 29 32 29s1.555.312 2.121.878a3.003 3.003 0 0 1 0 4.243z"/><path d="M41.192 22.808c-2.455-2.456-5.72-3.809-9.192-3.809s-6.737 1.353-9.192 3.809c-4.851 4.851-8.633 25.148-8.791 26.011l-.263 1.427 1.427-.263c.862-.158 21.161-3.939 26.012-8.79 5.068-5.07 5.068-13.317-.001-18.385zm-24.931 24.93c1.302-6.532 4.572-20.128 7.961-23.517 2.078-2.078 4.84-3.223 7.778-3.223s5.7 1.145 7.778 3.223c4.288 4.288 4.288 11.268 0 15.557-3.387 3.388-16.984 6.659-23.517 7.96z"/></svg>