<svg xmlns="http://www.w3.org/2000/svg" xml:space="preserve" width="64" height="64" viewBox="0 0 64 64"><path d="M55.979 22.058C55.48 10.736 46.006 2 34 2 23.401 2 14.37 8.68 12.189 18H11C5.038 18 0 23.495 0 30c0 6.271 4.729 11 11 11h7v-2h-7c-5.131 0-9-3.869-9-9 0-5.42 4.122-10 9-10h2.83l.153-.815C15.637 10.386 24.055 4 34 4c11.215 0 20 8.346 20 19v1h1c4.125 0 7 4.216 7 8 0 3.991-3.009 7-7 7H45v2h10c5.131 0 9-3.869 9-9 0-4.53-3.182-9.361-8.021-9.942z"/><path d="M41 42c0-7.267-7.883-17.205-8.219-17.625l-.736-.92-.788.876C30.879 24.751 22 34.7 22 42c0 5.215 4.206 9 10 9 5.467 0 9-3.533 9-9zm-9 7c-3.853 0-8-2.19-8-7 0-5.349 5.802-12.821 7.954-15.408C33.894 29.22 39 36.648 39 42c0 4.383-2.617 7-7 7z"/></svg>