<svg xmlns="http://www.w3.org/2000/svg" width="64" height="64" viewBox="0 0 64 64"><path d="M32 64c17.645 0 32-14.355 32-32S49.645 0 32 0 0 14.355 0 32s14.355 32 32 32zM2 32c0-.673.03-1.338.074-2H31v4H2.074A30 30 0 0 1 2 32zm29 29.975A29.8 29.8 0 0 1 21.249 60H31zM31 4h-9.751A29.8 29.8 0 0 1 31 2.025zm0 2v4H11.632a30.2 30.2 0 0 1 5.43-4zm0 6v4H6.642a30 30 0 0 1 3.022-4zm0 6v4H3.72a30 30 0 0 1 1.758-4zm0 6v4H2.274a30 30 0 0 1 .817-4zm0 12v4H3.092a30 30 0 0 1-.817-4zm0 6v4H5.479a30 30 0 0 1-1.758-4zm0 6v4H9.664a30 30 0 0 1-3.022-4zm0 6v4H17.062a30.2 30.2 0 0 1-5.43-4zm31-22c0 16.207-12.92 29.444-29 29.975V2.025C49.08 2.556 62 15.793 62 32z"/></svg>