<svg xmlns="http://www.w3.org/2000/svg" width="8" height="8" viewBox="0 0 8 8"><path d="M3 0c-.28 0-.54.1-.72.28S2 .72 2 1s.18.48.28.72c.03.06.03.16.03.28H0v6h2.31c0-.12-.01-.22-.03-.28C2.18 7.48 2 7.28 2 7s.1-.54.28-.72S2.72 6 3 6s.54.1.72.28S4 6.72 4 7s-.18.48-.28.72c-.03.06-.03.16-.03.28H6V5.69c.12 0 .22.01.28.03.24.1.44.28.72.28s.54-.1.72-.28S8 5.28 8 5s-.1-.54-.28-.72S7.28 4 7 4s-.48.18-.72.28c-.06.03-.16.03-.28.03V2H3.69c0-.12.01-.22.03-.28.1-.24.28-.44.28-.72S3.9.46 3.72.28 3.28 0 3 0z"/></svg>