<svg xmlns="http://www.w3.org/2000/svg" width="48" height="48" viewBox="0 0 48 48"><path d="M7.96 3a2 2 0 0 0-1.43.543 2 2 0 0 0-.089 2.826c2.474 2.632 3.715 5.963 3.715 10.395 0 3.05-1.323 5.897-2.924 8.568s-3.496 4.964-4.199 7.664C2.287 35.866 1.958 39.2 2 43.021A2 2 0 0 0 4.021 45 2 2 0 0 0 6 42.979c-.04-3.563.277-6.563.904-8.975.028-.105.078-.23.123-.352 6.034 3.528 11.691 5.38 16.994 5.38 5.24 0 10.63-1.826 16.135-5.296.032.09.073.188.094.268.627 2.412.945 5.412.906 8.975A2 2 0 0 0 43.135 45a2 2 0 0 0 2.021-1.979c.042-3.82-.288-7.155-1.035-10.025-.702-2.7-2.599-4.993-4.2-7.664S37 19.814 37 16.764C37 12.332 38.24 9 40.713 6.369a2 2 0 0 0-.088-2.826A2 2 0 0 0 39.193 3a2 2 0 0 0-1.394.63C34.597 7.038 33 11.549 33 16.765c0 4.185 1.755 7.727 3.49 10.625.612 1.02 1.195 1.955 1.739 2.834-5.111 3.26-9.837 4.808-14.208 4.808-4.384 0-9.412-1.574-15.052-4.88.532-.86 1.1-1.77 1.695-2.762 1.736-2.898 3.492-6.44 3.492-10.625 0-5.216-1.597-9.727-4.799-13.133A2 2 0 0 0 7.961 3zM24 26a2.5 2.5 0 1 0 0 5 2.5 2.5 0 0 0 0-5z"/></svg>