<svg xmlns="http://www.w3.org/2000/svg" width="48" height="48" viewBox="0 0 48 48"><path d="M24.004 2a2 2 0 0 0-1.414.584L17.898 7.27H9.27a2 2 0 0 0-2 2v8.628l-4.684 4.684a2 2 0 0 0-.002 2.828l4.686 4.692v8.628a2 2 0 0 0 2 2h8.628l4.692 4.686a2 2 0 0 0 2.828-.002l4.684-4.684h8.628a2 2 0 0 0 2-2v-8.628l4.686-4.692a2 2 0 0 0-.002-2.828l-4.684-4.684V9.27a2 2 0 0 0-2-2h-8.628l-4.684-4.684A2 2 0 0 0 24.004 2zm-.002 4.828 3.857 3.858a2 2 0 0 0 1.414.584h7.457v7.457a2 2 0 0 0 .584 1.414l3.858 3.857-3.858 3.863a2 2 0 0 0-.584 1.412v7.457h-7.457a2 2 0 0 0-1.414.584l-3.857 3.858-3.861-3.858a2 2 0 0 0-1.414-.584H11.27v-7.457a2 2 0 0 0-.584-1.412l-3.858-3.863 3.858-3.857a2 2 0 0 0 .584-1.414V11.27h7.457a2 2 0 0 0 1.414-.584zM24.004 15a2 2 0 0 0-2 2v4.996H17a2 2 0 0 0-2 2 2 2 0 0 0 2 2h5.004V31a2 2 0 0 0 2 2 2 2 0 0 0 2-2v-5.004H31a2 2 0 0 0 2-2 2 2 0 0 0-2-2h-4.996V17a2 2 0 0 0-2-2z"/></svg>