<svg xmlns="http://www.w3.org/2000/svg" width="48" height="48" viewBox="0 0 48 48"><path d="M6 4a2 2 0 0 0-2 2v1a2 2 0 0 0 2 2 2 2 0 0 0 1.818-1.182A2 2 0 0 0 9 6a2 2 0 0 0-2-2zm7 0a2 2 0 0 0-2 2 2 2 0 0 0 2 2h1a2 2 0 0 0 2-2 2 2 0 0 0-2-2zm7 0a2 2 0 0 0-2 2 2 2 0 0 0 2 2h1a2 2 0 0 0 2-2 2 2 0 0 0-2-2zm7 0a2 2 0 0 0-2 2 2 2 0 0 0 2 2h1a2 2 0 0 0 2-2 2 2 0 0 0-2-2zm7 0a2 2 0 0 0-2 2 2 2 0 0 0 2 2h1a2 2 0 0 0 2-2 2 2 0 0 0-2-2zm7 0a2 2 0 0 0-2 2 2 2 0 0 0 1.182 1.818A2 2 0 0 0 42 9a2 2 0 0 0 2-2V6l-.002-.105a2 2 0 0 0-.023-.207l-.018-.104a2 2 0 0 0-.055-.201l-.035-.1a2 2 0 0 0-.086-.191L43.732 5a2 2 0 0 0-.115-.176l-.062-.082a2 2 0 0 0-.14-.156l-.077-.072a2 2 0 0 0-.162-.131l-.086-.06a2 2 0 0 0-.182-.104l-.096-.045a2 2 0 0 0-.195-.076l-.1-.03a2 2 0 0 0-.205-.043l-.103-.013A2 2 0 0 0 42 4zM6 9.5a2 2 0 0 0-2 2v1a2 2 0 0 0 2 2 2 2 0 0 0 2-2v-1a2 2 0 0 0-2-2zm36 0a2 2 0 0 0-2 2v1a2 2 0 0 0 2 2 2 2 0 0 0 2-2v-1a2 2 0 0 0-2-2zM6 15a2 2 0 0 0-2 2v1a2 2 0 0 0 2 2h1a2 2 0 0 0 2-2 2 2 0 0 0-1.178-1.822A2 2 0 0 0 6 15zm36 0a2 2 0 0 0-1.818 1.182A2 2 0 0 0 39 18a2 2 0 0 0 2 2h1a2 2 0 0 0 .313-.025A2 2 0 0 0 44 18v-1a2 2 0 0 0-2-2zm-29 1a2 2 0 0 0-2 2 2 2 0 0 0 2 2h1a2 2 0 0 0 2-2 2 2 0 0 0-2-2zm7 0a2 2 0 0 0-2 2 2 2 0 0 0 2 2h1a2 2 0 0 0 2-2 2 2 0 0 0-2-2zm7 0a2 2 0 0 0-2 2 2 2 0 0 0 2 2h1a2 2 0 0 0 2-2 2 2 0 0 0-2-2zm7 0a2 2 0 0 0-2 2 2 2 0 0 0 2 2h1a2 2 0 0 0 2-2 2 2 0 0 0-2-2zm-10 6a2 2 0 0 0-2 2v4H6a2 2 0 0 0-2 2v12a2 2 0 0 0 2 2h36a2 2 0 0 0 2-2V30a2 2 0 0 0-2-2H26v-4a2 2 0 0 0-2-2zM8 32h32v8H8z"/></svg>