<svg xmlns="http://www.w3.org/2000/svg" width="48" height="48" viewBox="0 0 48 48"><path d="M8 2a2 2 0 0 0-2 2v8a2 2 0 0 0 2 2 2 2 0 0 0 2-2V6h28v36H10v-6a2 2 0 0 0-2-2 2 2 0 0 0-2 2v8a2 2 0 0 0 2 2h32a2 2 0 0 0 2-2V4a2 2 0 0 0-2-2Z"/><path d="M6 28a2 2 0 0 0-2 2 2 2 0 0 0 2 2h4a2 2 0 0 0 2-2 2 2 0 0 0-2-2zm0-6a2 2 0 0 0-2 2 2 2 0 0 0 2 2h4a2 2 0 0 0 2-2 2 2 0 0 0-2-2zm0-6a2 2 0 0 0-2 2 2 2 0 0 0 2 2h4a2 2 0 0 0 2-2 2 2 0 0 0-2-2zm22 1a4 4 0 0 1-4 4 4 4 0 0 1-4-4 4 4 0 0 1 4-4 4 4 0 0 1 4 4z"/><path d="M24 11c-3.29 0-6 2.71-6 6s2.71 6 6 6 6-2.71 6-6-2.71-6-6-6zm0 4c1.128 0 2 .872 2 2s-.872 2-2 2-2-.872-2-2 .872-2 2-2zm0 10c-5.5 0-10 4.5-10 10a2 2 0 0 0 2 2 2 2 0 0 0 2-2c0-3.337 2.663-6 6-6s6 2.663 6 6a2 2 0 0 0 2 2 2 2 0 0 0 2-2c0-5.5-4.5-10-10-10Z"/></svg>