<svg xmlns="http://www.w3.org/2000/svg" width="48" height="48" viewBox="0 0 48 48"><path d="M8 3C5.262 3 3 5.262 3 8v32c0 2.738 2.262 5 5 5h32c2.738 0 5-2.262 5-5V8c0-2.738-2.262-5-5-5zm0 4h32c.576 0 1 .424 1 1v32c0 .576-.424 1-1 1H8c-.576 0-1-.424-1-1V8c0-.576.424-1 1-1zm8 3a2 2 0 0 0-2 2v2h-2a2 2 0 0 0-2 2 2 2 0 0 0 2 2h2v2a2 2 0 0 0 2 2 2 2 0 0 0 2-2v-2h2a2 2 0 0 0 2-2 2 2 0 0 0-2-2h-2v-2a2 2 0 0 0-2-2zm20 0a2 2 0 0 0-1.414.586l-24 24a2 2 0 0 0 0 2.828 2 2 0 0 0 2.828 0l24-24a2 2 0 0 0 0-2.828A2 2 0 0 0 36 10zm-9 21a2 2 0 0 0-2 2 2 2 0 0 0 2 2h8a2 2 0 0 0 2-2 2 2 0 0 0-2-2z"/></svg>