<svg xmlns="http://www.w3.org/2000/svg" width="48" height="48" viewBox="0 0 48 48"><path d="M9 4C6.262 4 4 6.262 4 9v30c0 2.738 2.262 5 5 5h30c2.738 0 5-2.262 5-5V9c0-2.738-2.262-5-5-5zm0 4h30c.576 0 1 .424 1 1v30c0 .576-.424 1-1 1H9c-.576 0-1-.424-1-1V9c0-.576.424-1 1-1zm5 5a2 2 0 0 0-2 2v18a2 2 0 0 0 2 2 2 2 0 0 0 2-2v-6c1.678 0 3.699-.175 5.559-1.156S25 22.734 25 20s-1.581-4.863-3.441-5.844S17.678 13 16 13zm2 4c1.322 0 2.801.224 3.691.693.89.47 1.309.842 1.309 2.307s-.419 1.837-1.309 2.307c-.89.469-2.369.693-3.691.693zm16.701 1.99c-.709.008-1.621.067-2.517.27-.897.203-1.883.556-2.739 1.34-.855.783-1.445 2.062-1.445 3.412 0 1.445.796 2.76 1.686 3.474s1.798 1.05 2.548 1.362c.75.31 1.34.596 1.577.785.235.189.189.058.189.355 0 .298.012.218-.176.366-.187.147-.662.358-1.23.476-1.137.236-2.428.152-2.428.152a2 2 0 0 0-2.158 1.829 2 2 0 0 0 1.826 2.158s1.709.164 3.572-.223c.932-.193 1.957-.51 2.895-1.25S36 31.433 36 29.988s-.796-2.76-1.686-3.474-1.798-1.05-2.548-1.362c-.75-.31-1.34-.596-1.577-.785-.235-.189-.189-.058-.189-.355 0-.394.036-.358.148-.461.113-.104.44-.28.918-.389.958-.217 2.102-.137 2.934-.137a2 2 0 0 0 2-2 2 2 0 0 0-2-2c-.084 0-.59-.043-1.299-.035z"/></svg>