<svg xmlns="http://www.w3.org/2000/svg" width="48" height="48" viewBox="0 0 48 48"><path d="M9 4C6.262 4 4 6.262 4 9v30c0 2.738 2.262 5 5 5h12.75a2 2 0 0 0 2-2 2 2 0 0 0-2-2H9c-.576 0-1-.424-1-1V9c0-.576.424-1 1-1h30c.576 0 1 .424 1 1v17.25a2 2 0 0 0 2 2 2 2 0 0 0 2-2V9c0-2.738-2.262-5-5-5zm21 22a2 2 0 0 0-1.414.586l-6 6A2 2 0 0 0 22 34a2 2 0 0 0 .586 1.414l6 6a2 2 0 0 0 2.828 0 2 2 0 0 0 0-2.828L28.828 36H42a2 2 0 0 0 2-2 2 2 0 0 0-2-2H28.828l2.586-2.586a2 2 0 0 0 0-2.828A2 2 0 0 0 30 26z"/></svg>