<svg xmlns="http://www.w3.org/2000/svg" width="48" height="48" viewBox="0 0 48 48"><g clip-path="url(#a)"><path d="m19.586 2.957-16.97 16.97a2 2 0 0 0 0 2.829l22.626 22.629a2 2 0 0 0 2.828 0l16.971-16.97a2 2 0 0 0 0-2.83 2 2 0 0 0-2.828 0L26.656 41.144 6.857 21.342 22.414 5.787a2 2 0 0 0 0-2.83 2 2 0 0 0-2.828 0z"/><path d="M26.656 8.03a2 2 0 0 0-1.414.585l-16.97 16.97a2 2 0 0 0 0 2.83 2 2 0 0 0 2.83 0l16.97-16.972a2 2 0 0 0 0-2.828 2 2 0 0 0-1.416-.586zm4.242 6.241-16.97 16.971a2 2 0 0 0 0 2.828 2 2 0 0 0 2.83 0l16.97-16.97a2 2 0 0 0 0-2.829 2 2 0 0 0-2.83 0zm7.072 5.073a2 2 0 0 0-1.413.584l-16.971 16.97a2 2 0 0 0 0 2.829 2 2 0 0 0 2.828 0l16.97-16.97a2 2 0 0 0 0-2.83 2 2 0 0 0-1.413-.583z"/><path d="m16.05 41.849 4.243-4.243-9.9-9.9-4.242 4.243 2.121 2.121 1.414 4.243 4.243 1.414z"/><path d="m8.979 26.293-4.243 4.242a2 2 0 0 0 0 2.828l1.787 1.787 1.266 3.795a2 2 0 0 0 1.266 1.266l3.795 1.264 1.787 1.789a2 2 0 0 0 2.828 0l4.242-4.244a2 2 0 0 0 0-2.829l-9.898-9.898a2 2 0 0 0-2.83 0zm1.414 4.242 7.072 7.07-1.414 1.415-.707-.708a2 2 0 0 0-.781-.482l-3.295-1.098-1.098-3.294a2 2 0 0 0-.484-.782l-.707-.707Z"/></g><defs><clipPath id="a"><path d="M0 0h48v48H0z"/></clipPath></defs></svg>