<svg xmlns="http://www.w3.org/2000/svg" width="48" height="48" viewBox="0 0 48 48"><path d="M39.074 3.547c-1.928.275-3.619 1.669-4.15 3.652l-6.506 24.283a2 2 0 0 0 1.414 2.45 2 2 0 0 0 2.45-1.414l6.505-24.284a.97.97 0 0 1 1.225-.707c.556.15.856.669.707 1.225l-6.09 22.73a2 2 0 0 0 1.414 2.45 2 2 0 0 0 2.45-1.414l6.089-22.729c.709-2.644-.89-5.416-3.535-6.125a4.9 4.9 0 0 0-1.973-.117Z"/><path d="M36 32v6H13a3 3 0 1 1 0-6z"/><path d="M13 30c-2.738 0-5 2.262-5 5s2.262 5 5 5h23a2 2 0 0 0 2-2v-6a2 2 0 0 0-2-2zm0 4h21v2H13c-.576 0-1-.424-1-1s.424-1 1-1zm8 8a2 2 0 0 0-2 2 2 2 0 0 0 2 2h8a2 2 0 0 0 2-2 2 2 0 0 0-2-2zM11 2C7.157 2 4 5.157 4 9v10c0 3.843 3.157 7 7 7s7-3.157 7-7V9c0-3.843-3.157-7-7-7ZM8 12h6v4H8Z"/></svg>