<svg xmlns="http://www.w3.org/2000/svg" width="48" height="48" viewBox="0 0 48 48"><path d="M20.5 10.537C20.5 6.514 22.833 4.503 24 4c1.167.503 3.5 2.514 3.5 6.537v7.543L43 31v4l-16-8v9l5 8-8-3-8 3 5-8v-9L5 35v-4l15.5-12.92Z"/><path d="M23.209 2.164c-2.057.887-4.709 3.577-4.709 8.373v6.606L3.719 29.463A2 2 0 0 0 3 31v4a2 2 0 0 0 2.895 1.79L19 30.235v5.19l-4.695 7.513a2 2 0 0 0 2.398 2.934L24 43.137l7.297 2.736a2 2 0 0 0 2.398-2.934L29 35.426v-5.19l13.105 6.553A2 2 0 0 0 45 35v-4a2 2 0 0 0-.719-1.537L29.5 17.143v-6.606c0-4.796-2.652-7.486-4.709-8.373a2 2 0 0 0-1.582 0zM24 6.582c.684.655 1.5 1.735 1.5 3.955v7.543a2 2 0 0 0 .719 1.537l14.26 11.887-12.584-6.293A2 2 0 0 0 25 27v9a2 2 0 0 0 .305 1.06l1.87 2.995-2.472-.928a2 2 0 0 0-1.406 0l-2.473.928 1.871-2.994A2 2 0 0 0 23 36v-9a2 2 0 0 0-2.895-1.79L7.521 31.505l14.26-11.887a2 2 0 0 0 .719-1.537v-7.543c0-2.22.816-3.3 1.5-3.955z"/></svg>