<svg xmlns="http://www.w3.org/2000/svg" width="48" height="48" viewBox="0 0 48 48"><path d="M15.303 2A2 2 0 0 0 13.5 3.082l-8.277 16a2 2 0 0 0 .859 2.695 2 2 0 0 0 2.695-.859l6.438-12.445 5.984 12.396a2 2 0 0 0 2.67.932 2 2 0 0 0 .932-2.67l-7.725-16A2 2 0 0 0 15.303 2zM36 2a2 2 0 0 0-2 2v35.172l-4.586-4.586A2 2 0 0 0 28 34a2 2 0 0 0-1.414.586 2 2 0 0 0 0 2.828l8 8a2 2 0 0 0 2.828 0l8-8a2 2 0 0 0 0-2.828 2 2 0 0 0-2.828 0L38 39.172V4a2 2 0 0 0-2-2zM7 26a2 2 0 0 0-2 2 2 2 0 0 0 2 2h11.172L5.586 42.586A2 2 0 0 0 7 46h16a2 2 0 0 0 2-2 2 2 0 0 0-2-2H11.828l12.586-12.586A2 2 0 0 0 23 26z"/></svg>