<svg xmlns="http://www.w3.org/2000/svg" width="48" height="48" viewBox="0 0 48 48"><path d="M4 3a2 2 0 0 0-2 2v25.172a2 2 0 0 0 2 2 2 2 0 0 0 2-2V19h36v22H13.016a2 2 0 0 0-2 2 2 2 0 0 0 2 2H44a2 2 0 0 0 2-2 2 2 0 0 0-.057-.469 2 2 0 0 0 .057-.36V5a2 2 0 0 0-2-2zm2 4h36v8H6zm4 1.996a2 2 0 0 0-2 2 2 2 0 0 0 2 2h1a2 2 0 0 0 2-2 2 2 0 0 0-2-2zM17 9a2 2 0 0 0-2 2 2 2 0 0 0 2 2h21a2 2 0 0 0 2-2 2 2 0 0 0-2-2zm13.787 16a2 2 0 0 0-1.402.584l-6.658 6.648-5.168-4.947a2 2 0 0 0-2.805.037L2.578 39.623a2 2 0 0 0 .016 2.828 2 2 0 0 0 2.828-.014l10.79-10.902 5.16 4.94a2 2 0 0 0 2.796-.03l6.646-6.636 3.069 2.992a2 2 0 0 0 2.828-.037 2 2 0 0 0-.037-2.828l-4.479-4.368A2 2 0 0 0 30.787 25z"/></svg>