<svg xmlns="http://www.w3.org/2000/svg" width="48" height="48" viewBox="0 0 48 48"><path d="M4 3a2 2 0 0 0-2 2v25.172a2 2 0 0 0 4 0V19h36v22H13.016a2 2 0 0 0 0 4H44a2 2 0 0 0 2-2 2 2 0 0 0-.066-.49 2 2 0 0 0 .066-.338V5a2 2 0 0 0-2-2Zm6 5.996h1a2 2 0 0 1 0 4h-1a2 2 0 0 1 0-4ZM17 9h21a2 2 0 0 1 0 4H17a2 2 0 0 1 0-4zm13.787 16a2 2 0 0 0-1.402.584l-6.658 6.648-5.168-4.947a2 2 0 0 0-2.805.037L2.578 39.623a2 2 0 0 0 2.844 2.815l10.79-10.903 5.16 4.94a2 2 0 0 0 2.796-.03l6.646-6.636 3.069 2.992a2 2 0 0 0 2.79-2.865l-4.478-4.368A2 2 0 0 0 30.787 25Z"/></svg>