<svg xmlns="http://www.w3.org/2000/svg" width="48" height="48" viewBox="0 0 48 48"><path d="M4 4a2 2 0 0 0-2 2v8a2 2 0 0 0 2 2h8a2 2 0 0 0 .23-.025q-.675 1.016-1.283 2.086C8.268 22.779 6.494 28.272 6.087 33H4a2 2 0 0 0-2 2v8a2 2 0 0 0 2 2h8a2 2 0 0 0 2-2v-8a2 2 0 0 0-2-2h-1.879c.427-3.913 1.996-8.899 4.305-12.965C17.15 15.238 20.773 12 24 12s6.85 3.238 9.574 8.035c2.309 4.066 3.878 9.052 4.305 12.965H36a2 2 0 0 0-2 2v8a2 2 0 0 0 2 2h8a2 2 0 0 0 2-2v-8a2 2 0 0 0-2-2h-2.088c-.406-4.728-2.18-10.22-4.86-14.94a35 35 0 0 0-1.282-2.085A2 2 0 0 0 36 16h8a2 2 0 0 0 2-2V6a2 2 0 0 0-2-2h-8a2 2 0 0 0-2 2v2H14V6a2 2 0 0 0-2-2zm2 4h4v4H6zm32 0h4v4h-4zm-24 4h1.445q-.75.745-1.445 1.584zm18.555 0H34v1.584A22 22 0 0 0 32.555 12zM6 37h4v4H6zm32 0h4v4h-4z"/></svg>