<svg xmlns="http://www.w3.org/2000/svg" width="48" height="48" viewBox="0 0 48 48"><path d="M24 16C12.71 16 4 26.978 4 38a2 2 0 0 0 2 2 2 2 0 0 0 2-2c0-8.86 7.408-18 16-18s16 9.14 16 18a2 2 0 0 0 2 2 2 2 0 0 0 2-2c0-11.022-8.71-22-20-22Zm-14-4a2 2 0 0 0-2 2 2 2 0 0 0 2 2h10a2 2 0 0 0 2-2 2 2 0 0 0-2-2zm18 0a2 2 0 0 0-2 2 2 2 0 0 0 2 2h10a2 2 0 0 0 2-2 2 2 0 0 0-2-2z"/><path d="M10 14a3 3 0 0 1-3 3 3 3 0 0 1-3-3 3 3 0 0 1 3-3 3 3 0 0 1 3 3z"/><path d="M7 9c-2.738 0-5 2.262-5 5s2.262 5 5 5 5-2.262 5-5-2.262-5-5-5Zm0 4c.576 0 1 .424 1 1s-.424 1-1 1-1-.424-1-1 .424-1 1-1zm37 1a3 3 0 0 1-3 3 3 3 0 0 1-3-3 3 3 0 0 1 3-3 3 3 0 0 1 3 3z"/><path d="M41 9c-2.738 0-5 2.262-5 5s2.262 5 5 5 5-2.262 5-5-2.262-5-5-5zm0 4c.576 0 1 .424 1 1s-.424 1-1 1-1-.424-1-1 .424-1 1-1zm-13 1a4 4 0 0 1-4 4 4 4 0 0 1-4-4 4 4 0 0 1 4-4 4 4 0 0 1 4 4z"/><path d="M24 8c-3.29 0-6 2.71-6 6s2.71 6 6 6 6-2.71 6-6-2.71-6-6-6zm0 4c1.128 0 2 .872 2 2s-.872 2-2 2-2-.872-2-2 .872-2 2-2z"/></svg>