<svg xmlns="http://www.w3.org/2000/svg" width="48" height="48" viewBox="0 0 48 48"><path d="M9 4C6.262 4 4 6.262 4 9v30c0 2.738 2.262 5 5 5h30c2.738 0 5-2.262 5-5V9c0-2.738-2.262-5-5-5zm10.043 7a2 2 0 0 1 1.645.926l2.916 4.582 2.673-4.526a2 2 0 0 1 3.446 2.036l-6.5 11L22.05 27H23a2 2 0 0 1 0 4H12a2 2 0 0 1 0-4h5.402l.75-1.268 1.625-2.75 1.543-2.61-.508-.798-3.5-5.5A2 2 0 0 1 19.044 11zm7.875 12.375a2 2 0 0 1 .39.047 2 2 0 0 1 1.255.879l.875 1.375.841 1.324H36a2 2 0 0 1 2 2 2 2 0 0 1-2 2h-3.174l1.861 2.926a2 2 0 0 1-.613 2.761 2 2 0 0 1-2.761-.613l-3.5-5.5-1.75-2.75-.875-1.375a2 2 0 0 1 .613-2.762 2 2 0 0 1 .726-.283 2 2 0 0 1 .391-.029zm-11.217 8.252a2 2 0 0 1 1.13.275 2 2 0 0 1 .704 2.74l-.812 1.376a2 2 0 1 1-3.446-2.036l.813-1.375a2 2 0 0 1 1.611-.98z"/></svg>