<svg xmlns="http://www.w3.org/2000/svg" width="48" height="48" viewBox="0 0 48 48"><path d="M13.5 5C8.83 5 5 8.83 5 13.5S8.83 22 13.5 22s8.5-3.83 8.5-8.5S18.17 5 13.5 5zm21 0C29.83 5 26 8.83 26 13.5s3.83 8.5 8.5 8.5 8.5-3.83 8.5-8.5S39.17 5 34.5 5zm-21 4a4.47 4.47 0 0 1 4.5 4.5 4.47 4.47 0 0 1-4.5 4.5A4.47 4.47 0 0 1 9 13.5 4.47 4.47 0 0 1 13.5 9zm21 0a4.47 4.47 0 0 1 4.5 4.5 4.47 4.47 0 0 1-4.5 4.5 4.47 4.47 0 0 1-4.5-4.5A4.47 4.47 0 0 1 34.5 9zm-21 17C8.83 26 5 29.83 5 34.5S8.83 43 13.5 43s8.5-3.83 8.5-8.5-3.83-8.5-8.5-8.5zm21 0c-4.67 0-8.5 3.83-8.5 8.5s3.83 8.5 8.5 8.5 8.5-3.83 8.5-8.5-3.83-8.5-8.5-8.5zm-21 4a4.47 4.47 0 0 1 4.5 4.5 4.47 4.47 0 0 1-4.5 4.5A4.47 4.47 0 0 1 9 34.5a4.47 4.47 0 0 1 4.5-4.5zm21 0a4.47 4.47 0 0 1 4.5 4.5 4.47 4.47 0 0 1-4.5 4.5 4.47 4.47 0 0 1-4.5-4.5 4.47 4.47 0 0 1 4.5-4.5z"/></svg>