<svg xmlns="http://www.w3.org/2000/svg" width="48" height="48" viewBox="0 0 48 48"><path d="M13 4a2 2 0 0 0-2 2 2 2 0 0 0 2 2c8.182 0 14.893 6.09 15.873 14H13.574c-.78-1.757-2.545-3-4.574-3-2.738 0-5 2.262-5 5s2.262 5 5 5c2.029 0 3.795-1.243 4.574-3h15.299c-.98 7.91-7.69 14-15.873 14a2 2 0 0 0-2 2 2 2 0 0 0 2 2c10.347 0 18.893-7.912 19.9-18h4.272l-.586.586a2 2 0 0 0 0 2.828 2 2 0 0 0 2.828 0l4-4a2 2 0 0 0 .203-.238 2 2 0 0 0 .285-.559A2 2 0 0 0 44 24a2 2 0 0 0-.012-.201l-.01-.082a2 2 0 0 0-.037-.196 2 2 0 0 0-.068-.218l-.004-.012-.004-.008a2 2 0 0 0-.084-.191l-.002-.002-.037-.067a2 2 0 0 0-.068-.115l-.047-.07-.01-.014a2 2 0 0 0-.12-.15l-.003-.002-.08-.086-4-4a2 2 0 0 0-2.828 0 2 2 0 0 0 0 2.828l.586.586H32.9C31.893 11.912 23.347 4 13 4zM9 23c.576 0 1 .424 1 1s-.424 1-1 1-1-.424-1-1 .424-1 1-1z"/></svg>