<svg xmlns="http://www.w3.org/2000/svg" width="48" height="48" viewBox="0 0 48 48"><path d="m23.105 14.21-20 10a2 2 0 0 0 0 3.58l20 10a2 2 0 0 0 1.79 0l20-10a2 2 0 0 0 0-3.58l-20-10a2 2 0 0 0-1.79 0zM24 18.237 39.527 26 24 33.764 8.473 26Z"/><path d="m23.105 5.21-20 10a2 2 0 0 0 0 3.58l20 10a2 2 0 0 0 1.79 0l20-10a2 2 0 0 0 0-3.58l-20-10a2 2 0 0 0-1.79 0zM24 9.237 39.527 17 24 24.764 8.473 17Z"/><path d="M44 26v8L24 44 4 34v-8l20 10z"/><path d="M4.895 24.21A2 2 0 0 0 2 26v8a2 2 0 0 0 1.105 1.79l20 10a2 2 0 0 0 1.79 0l20-10A2 2 0 0 0 46 34v-8a2 2 0 0 0-2.895-1.79L24 33.765ZM6 29.237l17.105 8.553a2 2 0 0 0 1.79 0L42 29.236v3.528l-18 9-18-9z"/><path d="M44 12a2 2 0 0 0-2 2v12a2 2 0 0 0 2 2 2 2 0 0 0 2-2V14a2 2 0 0 0-2-2zM4 12a2 2 0 0 0-2 2v12a2 2 0 0 0 2 2 2 2 0 0 0 2-2V14a2 2 0 0 0-2-2Zm20 10a2 2 0 0 0-2 2v12a2 2 0 0 0 2 2 2 2 0 0 0 2-2V24a2 2 0 0 0-2-2zm0-20a2 2 0 0 0-2 2v12a2 2 0 0 0 2 2 2 2 0 0 0 2-2V4a2 2 0 0 0-2-2Z"/></svg>