<svg xmlns="http://www.w3.org/2000/svg" width="48" height="48" viewBox="0 0 48 48"><path d="M24 2a2 2 0 0 0-2 2v1.764L5.986 13.77A2 2 0 0 0 4 12a2 2 0 0 0-2 2v20a2 2 0 0 0 1.105 1.79l20 10a2 2 0 0 0 1.79 0l20-10A2 2 0 0 0 46 34V14a2 2 0 0 0-2-2 2 2 0 0 0-1.975 1.777L26 5.764V4a2 2 0 0 0-2-2zm-2 8.236v4.528l-9 4.5L8.473 17zm4 0L39.527 17 35 19.264l-9-4.5zm-2 8 6.527 3.264-4.54 2.271A2 2 0 0 0 24 22a2 2 0 0 0-1.975 1.777L17.473 21.5zm-18 2L8.527 21.5 6 22.764zm36 0v2.528L39.473 21.5zm-29 3.5 9 4.5v4.528L8.473 26zm22 0L39.527 26 26 32.764v-4.528zm-29 5.5 17.105 8.553.012.004a2 2 0 0 0 .518.166 2 2 0 0 0 .16.018A2 2 0 0 0 24 38a2 2 0 0 0 .205-.023 2 2 0 0 0 .16-.018 2 2 0 0 0 .518-.166l.012-.004L42 29.236v3.528l-18 9-18-9z"/></svg>