<svg xmlns="http://www.w3.org/2000/svg" width="48" height="48" viewBox="0 0 48 48"><path d="M11.082 4.002a6 6 0 0 0-.74.033l-.057.006c-4.554.611-7.273 3.734-8.014 7.012s.005 6.635 1.553 9.054a2 2 0 0 0 2.764.606 2 2 0 0 0 .605-2.762c-.88-1.374-1.477-4-1.021-6.017.454-2.01 1.469-3.487 4.611-3.92.679-.067 1.544.148 2.672 1.125 1.137.984 2.443 2.741 3.652 5.408 2.419 5.333 4.452 14.251 4.895 27.52a2 2 0 0 0 3.996 0c.443-13.269 2.476-22.187 4.895-27.52 1.209-2.667 2.515-4.424 3.652-5.408 1.128-.977 1.993-1.192 2.672-1.125 3.142.433 4.157 1.91 4.611 3.92.456 2.018-.142 4.643-1.021 6.017a2 2 0 0 0 .605 2.762 2 2 0 0 0 2.764-.606c1.548-2.419 2.293-5.777 1.553-9.054s-3.46-6.4-8.014-7.012l-.057-.006c-1.97-.21-3.99.572-5.732 2.08s-3.298 3.741-4.676 6.78c-1.273 2.808-2.368 6.403-3.25 10.707-.882-4.304-1.977-7.9-3.25-10.707-1.378-3.039-2.934-5.272-4.676-6.78-1.524-1.32-3.261-2.083-4.992-2.113z"/></svg>