<svg xmlns="http://www.w3.org/2000/svg" width="48" height="48" viewBox="0 0 48 48"><path d="M7 2C4.262 2 2 4.262 2 7v34c0 2.738 2.262 5 5 5h34c2.738 0 5-2.262 5-5V7c0-2.738-2.262-5-5-5zm0 4h15v16H6V7c0-.576.424-1 1-1zm19 0h15c.576 0 1 .424 1 1v15H26zM14 8a2 2 0 0 0-2 2v2h-2a2 2 0 0 0-2 2 2 2 0 0 0 2 2h2v2a2 2 0 0 0 2 2 2 2 0 0 0 2-2v-2h2a2 2 0 0 0 2-2 2 2 0 0 0-2-2h-2v-2a2 2 0 0 0-2-2zm16 4a2 2 0 0 0-2 2 2 2 0 0 0 2 2h8a2 2 0 0 0 2-2 2 2 0 0 0-2-2zM6 26h16v16H7c-.576 0-1-.424-1-1zm20 0h16v15c0 .576-.424 1-1 1H26zm-15 3a2 2 0 0 0-1.414.586 2 2 0 0 0 0 2.828L11.172 34l-1.586 1.586a2 2 0 0 0 0 2.828 2 2 0 0 0 2.828 0L14 36.828l1.586 1.586a2 2 0 0 0 2.828 0 2 2 0 0 0 0-2.828L16.828 34l1.586-1.586a2 2 0 0 0 0-2.828A2 2 0 0 0 17 29a2 2 0 0 0-1.414.586L14 31.172l-1.586-1.586A2 2 0 0 0 11 29zm19 0a2 2 0 0 0-2 2 2 2 0 0 0 2 2h8a2 2 0 0 0 2-2 2 2 0 0 0-2-2zm0 6a2 2 0 0 0-2 2 2 2 0 0 0 2 2h8a2 2 0 0 0 2-2 2 2 0 0 0-2-2z"/></svg>