<svg xmlns="http://www.w3.org/2000/svg" width="48" height="48" viewBox="0 0 48 48"><path d="M24 2C11.873 2 2 11.873 2 24s9.873 22 22 22 22-9.873 22-22S36.127 2 24 2zm0 4c9.965 0 18 8.035 18 18s-8.035 18-18 18S6 33.965 6 24 14.035 6 24 6zm0 7a2 2 0 0 0-2 2v13.172l-5.586-5.586A2 2 0 0 0 15 22a2 2 0 0 0-1.414.586 2 2 0 0 0 0 2.828l9 9a2 2 0 0 0 .47.342 2 2 0 0 0 .159.066 2 2 0 0 0 .39.125 2 2 0 0 0 .204.028A2 2 0 0 0 24 35a2 2 0 0 0 .191-.025 2 2 0 0 0 .204-.028 2 2 0 0 0 .39-.125 2 2 0 0 0 .158-.066 2 2 0 0 0 .471-.342l9-9a2 2 0 0 0 0-2.828 2 2 0 0 0-2.828 0L26 28.172V15a2 2 0 0 0-2-2z"/></svg>