<svg xmlns="http://www.w3.org/2000/svg" width="48" height="48" viewBox="0 0 48 48"><path d="M14 2a2 2 0 0 0-2 2v18H4a2 2 0 0 0-2 2v20a2 2 0 0 0 2 2h40a2 2 0 0 0 2-2V24a2 2 0 0 0-2-2h-8V4a2 2 0 0 0-2-2Zm2 4h16v16H16ZM6 26h16v16H6Zm20 0h16v16H26Z"/><path d="M24 8a2 2 0 0 0-1.414.586l-4 4a2 2 0 0 0 2.828 2.828l.586-.586V18a2 2 0 0 0 4 0v-3.172l.586.586a2 2 0 0 0 2.828-2.828l-4-4a2 2 0 0 0-.682-.44A2 2 0 0 0 24 8ZM14 28a2 2 0 0 0-1.414.586l-4 4a2 2 0 0 0 0 2.828l4 4a2 2 0 0 0 2.828-2.828L14.828 36H18a2 2 0 0 0 0-4h-3.172l.586-.586A2 2 0 0 0 14 28Zm20 0a2 2 0 0 0-1.414 3.414l.586.586H30a2 2 0 0 0 0 4h3.172l-.586.586a2 2 0 0 0 2.828 2.828l4-4a2 2 0 0 1-.22.186 2 2 0 0 0 .66-.868A2 2 0 0 0 40 34a2 2 0 0 0-.586-1.414l-4-4A2 2 0 0 0 34 28Z"/></svg>