<svg xmlns="http://www.w3.org/2000/svg" width="48" height="48" viewBox="0 0 48 48"><path d="m8 36 .005-7.957a1 1 0 0 1 1-1h10.002c.922 0 .917-.818.917-2.764s-4.902-3.585-4.902-10.426S20.1 5 24.32 5s8.817 2.012 8.817 8.853-4.876 7.929-4.876 10.426 0 2.764.78 2.764h9.96a1 1 0 0 1 1 1V36Z"/><path d="M24.32 3c-2.428 0-5.168.55-7.437 2.266s-3.862 4.672-3.862 8.588c0 3.898 1.507 6.594 2.899 8.308.696.857 1.35 1.503 1.72 1.934.37.43.284.536.284.183 0 .46-.01.48-.024.764H9.004c-1.632.002-2.997 1.365-3 2.996v.002L6 35.998A2 2 0 0 0 8 38h32a2 2 0 0 0 2-2v-7.957c0-1.633-1.367-3-3-3h-8.725c-.013-.318-.015-.24-.015-.764 0 .027-.025-.044.312-.457s.963-1.02 1.653-1.834c1.379-1.628 2.912-4.239 2.912-8.134 0-3.869-1.412-6.802-3.567-8.547S26.748 3 24.32 3Zm0 4c1.793 0 3.535.446 4.733 1.416s2.084 2.465 2.084 5.438c0 2.945-.906 4.298-1.965 5.548-.53.625-1.122 1.184-1.7 1.891s-1.212 1.711-1.212 2.986c0 1.249-.082 1.869.162 2.817.122.474.514 1.216 1.162 1.593.648.378 1.148.354 1.457.354H38V34H10.002l.002-4.957h9.004c.526 0 1.246-.153 1.808-.62.563-.465.816-1.074.934-1.538.236-.928.174-1.634.174-2.606 0-1.326-.701-2.154-1.25-2.793-.55-.638-1.12-1.194-1.649-1.845-1.058-1.303-2.003-2.844-2.003-5.787 0-2.926.948-4.396 2.273-5.397C20.619 7.456 22.528 7 24.32 7ZM8 40a2 2 0 0 0-2 2 2 2 0 0 0 2 2h32a2 2 0 0 0 2-2 2 2 0 0 0-2-2z"/></svg>