<svg xmlns="http://www.w3.org/2000/svg" width="48" height="48" viewBox="0 0 48 48"><path d="M8 2a2 2 0 0 0-2 2v40a2 2 0 0 0 2 2h32a2 2 0 0 0 2-2V14.5a2 2 0 0 0-.482-1.3l-9-10.5A2 2 0 0 0 31 2Zm23.867 10.004a2 2 0 0 1 1.02 3.789L28 18.211V31.5c0 4.118-3.382 7.5-7.5 7.5S13 35.618 13 31.5s3.382-7.5 7.5-7.5c1.262 0 2.453.32 3.5.879v-7.91a2 2 0 0 1 1.113-1.793l6-2.969a2 2 0 0 1 .754-.203z"/><path d="M24 31.5a3.47 3.47 0 0 0-3.5-3.5 3.47 3.47 0 0 0-3.5 3.5 3.47 3.47 0 0 0 3.5 3.5 3.47 3.47 0 0 0 3.5-3.5z"/></svg>