<svg xmlns="http://www.w3.org/2000/svg" width="48" height="48" viewBox="0 0 48 48"><path d="M6 5a2 2 0 0 0-2 2 2 2 0 0 0 2 2h36a2 2 0 0 0 2-2 2 2 0 0 0-2-2zm8 11a2 2 0 0 0-1.414.586l-6 6.006a2 2 0 0 0-.096.125 2 2 0 0 0-.158.209 2 2 0 0 0-.15.29 2 2 0 0 0-.094.231 2 2 0 0 0-.072.45L6 24l.008.045a2 2 0 0 0 .082.525 2 2 0 0 0 .072.172 2 2 0 0 0 .184.363 2 2 0 0 0 .113.147 2 2 0 0 0 .127.166l5.99 5.996a2 2 0 0 0 2.828 0 2 2 0 0 0 .002-2.828L12.822 26H35.17l-2.584 2.586a2 2 0 0 0 0 2.828 2 2 0 0 0 2.828 0l6-6.006a2 2 0 0 0 .174-.203l.045-.059a2 2 0 0 0 .258-.505l.017-.057a2 2 0 0 0 .088-.564L42 24a2 2 0 0 0-.01-.18v-.006l-.015-.113a2 2 0 0 0-.026-.135l-.015-.066a2 2 0 0 0-.155-.412l-.021-.04a2 2 0 0 0-.112-.185l-.01-.013a2 2 0 0 0-.222-.268l-5.99-5.996A2 2 0 0 0 34.01 16a2 2 0 0 0-1.414.586 2 2 0 0 0-.002 2.828L35.178 22H12.83l2.584-2.586a2 2 0 0 0 0-2.828A2 2 0 0 0 14 16zM6 39a2 2 0 0 0-2 2 2 2 0 0 0 2 2h36a2 2 0 0 0 2-2 2 2 0 0 0-2-2z"/></svg>