<svg xmlns="http://www.w3.org/2000/svg" width="48" height="48" viewBox="0 0 48 48"><path d="M5.004 42.231a.78.78 0 0 0 .791.769h36.407a.78.78 0 0 0 .792-.769v-.918c.018-.277.055-1.658-.855-3.184-.574-.963-1.407-1.794-2.476-2.472-1.293-.82-2.938-1.413-4.928-1.77a29 29 0 0 1-3.002-.584c-2.632-.672-2.862-1.267-2.864-1.273a.8.8 0 0 0-.066-.169c-.022-.11-.075-.528.027-1.647.258-2.843 1.783-4.523 3.008-5.873.386-.426.751-.828 1.032-1.222 1.213-1.7 1.325-3.635 1.33-3.755a2 2 0 0 0-.087-.628c-.12-.37-.343-.6-.507-.77h0a3 3 0 0 1-.113-.12c-.012-.014-.044-.052-.015-.243a19 19 0 0 0 .203-1.857c.056-1.002.099-2.5-.16-3.958a6 6 0 0 0-.172-.826q-.408-1.507-1.32-2.57c-.105-.115-2.653-2.8-10.05-3.35-1.023-.076-2.034-.035-3.03.016a4.4 4.4 0 0 0-.875.108c-.764.197-.968.681-1.021.952-.089.45.067.798.17 1.03v0c.015.033.034.074.001.182-.171.266-.442.506-.717.733-.08.067-1.934 1.667-2.036 3.756-.275 1.589-.254 4.064.07 5.775.02.095.048.235.002.33v0c-.35.313-.746.668-.745 1.478.004.082.117 2.016 1.33 3.717.28.394.645.796 1.03 1.221l.002.001v0c1.225 1.35 2.75 3.03 3.008 5.873.101 1.119.048 1.537.027 1.647a.8.8 0 0 0-.067.169c-.001.006-.23.599-2.85 1.27-1.512.387-3 .585-3.045.59-1.934.327-3.569.906-4.86 1.721-1.065.673-1.9 1.506-2.48 2.477-.928 1.55-.903 2.962-.89 3.22z"/><path d="M22.127 3.047c-1.173-.087-2.27-.038-3.28.014-.24.011-.698.018-1.275.168-1.446.374-2.33 1.728-2.482 2.501-.068.345-.008.62.021.915-.377.309-2.442 1.953-2.625 5.007-.277 1.726-.247 3.803.028 5.657-.372.549-.716 1.239-.715 2.095l.002.102c.015.29.103 2.536 1.697 4.773.215.302.439.534.662.79v-.727a2 2 0 0 0 .516 1.34l.002.002v.002l.066.068-.058-.059c1.221 1.346 2.29 2.498 2.49 4.7.04.435.023.282.023.466-.263.125-.517.27-1.418.5-.682.175-1.388.314-1.92.407-.53.092-.648.106-.914.144l-.047.006c-2.134.36-4.021 1.008-5.595 2.002-1.297.82-2.372 1.879-3.127 3.14h-.002c-1.21 2.024-1.197 3.843-1.17 4.352l-.002-.105v.923c0 1.538 1.304 2.77 2.79 2.77h36.41c1.486 0 2.79-1.232 2.79-2.77v-.917l-.004.132c.035-.534.062-2.337-1.133-4.34-.75-1.258-1.827-2.314-3.125-3.136-1.572-.996-3.464-1.66-5.644-2.051l-.098-.016c.21.027-.327-.043-.851-.134a26 26 0 0 1-1.91-.403c-.908-.232-1.168-.376-1.432-.502 0-.183-.014-.032.025-.468.2-2.207 1.271-3.36 2.496-4.71.387-.425.797-.869 1.18-1.406h.002c1.594-2.237 1.68-4.375 1.7-4.83l.001-.086c0-.396-.052-.828-.185-1.24-.138-.426-.305-.53-.498-.793.066-.508.135-1.015.16-1.475.058-1.048.113-2.675-.188-4.392a8 8 0 0 0-.21-1.025c-.34-1.25-.914-2.396-1.735-3.35l-.045-.05c-.45-.491-3.53-3.407-11.373-3.991Zm-.297 3.99c6.889.513 8.896 2.9 8.697 2.688.389.458.69 1.015.893 1.761v.002c.068.25.1.414.117.553l.016.096c.21 1.188.183 2.548.13 3.498a17 17 0 0 1-.181 1.666 2.3 2.3 0 0 0-.004.822c.06.36.474 1.022.477 1.025l.004.004c.07.083.112.123.152.164l.002.002.039.041c.06.062.007-.01.014-.003-.006-.039-.152 1.492-.944 2.603-.179.252-.498.612-.885 1.037-1.225 1.35-3.203 3.559-3.52 7.037-.11 1.227-.08 1.783.003 2.21a2 2 0 0 0 .203.57 1.2 1.2 0 0 1-.102-.262c.01.03.072.224.088.264a2 2 0 0 0 .17.32q.126.197.29.369c.216.23.474.433.792.625.636.384 1.518.744 2.957 1.111a30 30 0 0 0 2.215.47c.595.103.801.13 1.026.16l-.098-.014c1.8.323 3.196.847 4.21 1.49.842.533 1.433 1.14 1.831 1.806.57.957.529 1.684.525 1.848H7.061c-.001-.173-.034-.912.548-1.885.406-.678.998-1.285 1.832-1.812 1.008-.637 2.392-1.147 4.125-1.44-.134.02.41-.054.983-.154a29 29 0 0 0 2.224-.473c1.434-.367 2.312-.725 2.946-1.109a3.6 3.6 0 0 0 .79-.623 2.5 2.5 0 0 0 .29-.37q.063-.097.115-.204c.018-.036.035-.07.053-.112.017-.04.09-.255.09-.255l.006-.026q-.038.146-.108.276a2 2 0 0 0 .203-.57c.083-.428.114-.983.002-2.21-.316-3.478-2.294-5.685-3.52-7.035l.52 1.344a2 2 0 0 0-.586-1.414l.067.068c-.386-.425-.706-.786-.885-1.037-.766-1.075-.918-2.41-.936-2.53.028-.013 0 .037.059-.017a2 2 0 0 0 .469-.625c.505-1.055.189-1.46.158-1.566v-.004c-.262-1.38-.277-3.83-.065-5.057a2 2 0 0 0 .028-.244c.047-.96 1.424-2.407 1.334-2.33l-.024.02c.314-.259.732-.583 1.125-1.192a2 2 0 0 0 .237-.51c.058-.193.09-.467.082-.757-.001-.036.012-.057.01-.094.91-.045 1.782-.076 2.597-.016zm-6.572.272a2 2 0 0 0 .14.656l-.01-.035zm16.951 12.039v.002c-.013-.042-.008-.076-.008.013v-.013c-.009-.017.014.017.008-.002zm-1.44 12.072.034.1c-.008-.031-.026-.058-.035-.088 0 .001.001-.014.002-.012zm-13.542.002c0-.002.001.016.002.014-.01.03-.028.057-.036.087l.008-.025z"/></svg>