<svg xmlns="http://www.w3.org/2000/svg" width="48" height="48" viewBox="0 0 48 48"><path d="M10 4c-3.842 0-7 3.158-7 7v26c0 3.842 3.158 7 7 7h20a2 2 0 0 0 2-2 2 2 0 0 0-2-2H10c-1.68 0-3-1.32-3-3V11c0-1.68 1.32-3 3-3h14a2 2 0 0 0 2-2 2 2 0 0 0-2-2Z"/><path d="M19 4a2 2 0 0 0-2 2v16.064L4.39 26.096a2 2 0 0 0-1.294 2.513 2 2 0 0 0 2.513 1.295l14-4.474A2 2 0 0 0 21 23.523V6a2 2 0 0 0-2-2Z"/><path d="M19.633 22.104a2 2 0 0 0-2.53 1.263 2 2 0 0 0 1.264 2.53l12 4a2 2 0 0 0 2.53-1.264 2 2 0 0 0-1.264-2.53zM37 16a2 2 0 0 0-2 2v24a2 2 0 0 0 2 2 2 2 0 0 0 2-2V18a2 2 0 0 0-2-2z"/><path d="M31 13.333C31 7.111 35 4 37 4s6 3.111 6 9.333c0 6.223-12 6.223-12 0z"/><path d="M37 2c-2.037 0-3.773 1.17-5.309 3.08C30.156 6.99 29 9.794 29 13.334c0 8.794 16 8.794 16 0 0-3.54-1.156-6.343-2.691-8.254C40.773 3.17 39.037 2 37 2Zm0 4c-.037 0 1.227.386 2.191 1.586.965 1.2 1.809 3.065 1.809 5.748 0 3.65-8 3.65-8 0 0-2.683.844-4.548 1.809-5.748C35.773 6.386 37.037 6 37 6Z"/></svg>