<svg xmlns="http://www.w3.org/2000/svg" width="48" height="48" viewBox="0 0 48 48"><path d="M24 2C14.627 2 6.96 9.17 4.293 17.447c.037-.115.06-.06-.225.16-.284.22-.797.536-1.39.983C1.49 19.483 0 21.27 0 23.8c0 2.528 1.508 4.307 2.7 5.16.595.428 1.103.721 1.37.919.13.096.177.145.19.156C6.89 38.383 14.587 45.6 24 45.6c9.444 0 17.16-7.256 19.766-15.65.01-.01.05-.052.173-.143.262-.192.77-.48 1.362-.9C46.485 28.066 48 26.304 48 23.8c0-2.51-1.489-4.284-2.668-5.184-.59-.45-1.101-.77-1.389-.998-.215-.17-.264-.25-.26-.234C41 9.137 33.35 2 24 2Zm-6.6 16.299c.591 0 1.152.362 1.555.967.402.603.645 1.417.645 2.334 0 .916-.243 1.73-.645 2.334-.403.604-.964.966-1.555.966-.59 0-1.153-.362-1.556-.966-.402-.603-.643-1.418-.643-2.334s.24-1.731.643-2.334c.403-.605.965-.967 1.556-.967zm13.2 0c.59 0 1.153.362 1.556.967.402.603.645 1.417.645 2.334 0 .916-.243 1.73-.645 2.334-.403.604-.965.966-1.556.966s-1.152-.362-1.555-.966c-.402-.603-.645-1.418-.645-2.334s.243-1.731.645-2.334c.403-.605.964-.967 1.555-.967zM18.496 29.75c.385 0 .776.11 1.12.342 1.699 1.144 3.147 1.607 4.394 1.607 1.245 0 2.52-.44 3.972-1.539a2 2 0 1 1 2.414 3.19c-1.972 1.494-4.148 2.35-6.386 2.35-2.24 0-4.467-.835-6.63-2.29a2 2 0 0 1 1.116-3.66z"/></svg>