<svg xmlns="http://www.w3.org/2000/svg" width="48" height="48" viewBox="0 0 48 48"><path d="M24 2a2 2 0 0 0-2 2v2.78L3.588 16.22a2 2 0 0 0-.867 2.692 2 2 0 0 0 2.691.867L8 18.453v9.803C4.562 29.15 2 32.295 2 36c0 4.395 3.605 8 8 8s8-3.605 8-8c0-3.705-2.562-6.849-6-7.744V16.4l10-5.127V16h-3a2 2 0 0 0-2 2v5a2 2 0 0 0 2 2 2 2 0 0 0 2-2v-3h6v3a2 2 0 0 0 2 2 2 2 0 0 0 2-2v-5a2 2 0 0 0-2-2h-3v-4.764l10 5v12.936l-5.414 5.414a2 2 0 0 0 0 2.828l6 6a2 2 0 0 0 2.828 0l6-6a2 2 0 0 0 0-2.828L40 29.172V18.236l3.105 1.553a2 2 0 0 0 2.684-.894 2 2 0 0 0-.894-2.684L26 6.764V4a2 2 0 0 0-2-2zM10 32c2.233 0 4 1.767 4 4s-1.767 4-4 4a3.97 3.97 0 0 1-4-4c0-2.233 1.767-4 4-4zm28 .828L41.172 36 38 39.172 34.828 36z"/></svg>