<svg xmlns="http://www.w3.org/2000/svg" width="48" height="48" viewBox="0 0 48 48"><path d="m36 33 6-29s-10.5 2-10.5 6c0 2.5 4 4 2.5 5.5s-7 3-7 7c0 2.5 1.64 4.36 0 6-1.5 1.5-3 .714-5.5 0-2.8-.8-8.5-1.5-10.5-1S7 29 7 32c0 1.65 1 3.5 3.5 4s5.5-2 9.5-2 9 3 12 3 4-4 4-4z"/><path d="M41.625 2.035s-2.756.517-5.588 1.596c-1.416.54-2.87 1.207-4.11 2.152S29.5 8.125 29.5 10c0 2.317 1.575 3.654 2.348 4.486.02.023.01.014.029.035-.58.347-1.623.907-3.064 1.887C27.038 17.615 25 19.583 25 22.5c0 1.687.502 2.98.658 3.73s.245.538-.072.856c-.39.39-.256.312-.738.258s-1.465-.386-2.8-.768c-1.596-.456-3.766-.83-5.89-1.053s-3.996-.374-5.642.038c-1.153.288-2.482.736-3.618 1.777S5 30.056 5 32c0 2.458 1.777 5.295 5.107 5.96 2.03.407 3.7-.33 5.258-.892C16.925 36.508 18.417 36 20 36c1.5 0 3.607.645 5.709 1.387S29.833 39 32 39c2.389 0 4.005-1.635 4.82-2.94s1.12-2.576 1.12-2.576l.019-.08 6-29a2 2 0 0 0-2.334-2.369Zm-2.252 4.787-5.318 25.705c-.004.012-.195.723-.625 1.412C32.995 34.635 32.61 35 32 35c-.833 0-2.81-.629-4.959-1.387S22.5 32 20 32c-2.417 0-4.424.743-5.99 1.307-1.566.563-2.647.826-3.117.732C9.223 33.705 9 32.841 9 32c0-1.056.237-1.379.602-1.713.364-.334 1.035-.636 1.882-.848.354-.088 2.332-.14 4.258.063 1.927.202 4.006.578 5.21.922 1.165.333 2.182.752 3.45.894s2.903-.295 4.012-1.404c1.323-1.323 1.412-3.285 1.158-4.5C29.32 24.2 29 23.313 29 22.5c0-1.083.712-1.865 2.063-2.783 1.35-.918 2.973-1.424 4.351-2.803.807-.807 1.048-2.434.672-3.33s-.883-1.361-1.309-1.82c-.852-.918-1.277-1.58-1.277-1.764 0-.125.125-.478.854-1.033.728-.555 1.9-1.137 3.109-1.598.94-.358 1.098-.324 1.91-.547z"/><path d="m36.6 34.8-3.2 2.4L37 42H10.887l1.986-5.297-3.746-1.406-3 8A2 2 0 0 0 8 46h33a2 2 0 0 0 1.6-3.2z"/></svg>