<svg xmlns="http://www.w3.org/2000/svg" width="48" height="48" viewBox="0 0 48 48"><path d="M24 2c-1.866 0-3.377.994-4.262 2.1-.884 1.105-1.338 2.233-1.338 3.5V12H12a2 2 0 0 0-2 2 2 2 0 0 0 2 2h8.4a2 2 0 0 0 2-2V7.6c0 .064.146-.606.461-1S23.466 6 24 6s.823.206 1.139.6c.315.394.46 1.064.46 1V14a2 2 0 0 0 2 2H36a2 2 0 0 0 2-2 2 2 0 0 0-2-2h-6.4V7.6c0-1.267-.454-2.395-1.338-3.5C27.377 2.994 25.866 2 24 2zM8 18a2 2 0 0 0-2 2 2 2 0 0 0 2 2h2v22a2 2 0 0 0 2 2h24a2 2 0 0 0 2-2V22h2a2 2 0 0 0 2-2 2 2 0 0 0-2-2zm6 4h20v4h-8a2 2 0 0 0-2 2 2 2 0 0 0 2 2h8v4h-8a2 2 0 0 0-2 2 2 2 0 0 0 2 2h8v4H14z"/></svg>