<svg xmlns="http://www.w3.org/2000/svg" width="48" height="48" viewBox="0 0 48 48"><path d="M23.678 4.025a2 2 0 0 0-.61.205l-19 10a2 2 0 0 0 0 3.54L9 20.365v14.1c0 2.425 1.71 4.437 3.963 5.03 2.1.551 5.342 1.594 8.432 3.288a5.42 5.42 0 0 0 5.21 0c3.09-1.694 6.332-2.737 8.432-3.289C37.29 38.902 39 36.89 39 34.464V20.366l2-1.052V32a2 2 0 0 0 2 2 2 2 0 0 0 2-2V16a2 2 0 0 0-.045-.418l-.008-.031a2 2 0 0 0-.127-.375l-.013-.03a2 2 0 0 0-.211-.351l-.006-.008-.004-.004a2 2 0 0 0-.285-.3l-.026-.02a2 2 0 0 0-.334-.225l-.01-.008-.04-.021L24.93 4.23a2 2 0 0 0-1.253-.205zM24 8.26 38.707 16 24 23.74 9.293 16zM13 22.47l10.068 5.3a2 2 0 0 0 1.864 0L35 22.47v11.995c0 .503-.4 1.008-.98 1.16-2.31.607-5.828 1.725-9.338 3.65-.42.231-.943.231-1.364 0-3.51-1.925-7.028-3.043-9.338-3.65-.58-.152-.98-.657-.98-1.16z"/></svg>