<svg xmlns="http://www.w3.org/2000/svg" width="48" height="48" viewBox="0 0 48 48"><path d="M24 6.002a2 2 0 0 0-.484.059l-20 5a2 2 0 0 0 0 3.878L5 15.311V32H4a2 2 0 0 0-2 2v6a2 2 0 0 0 2 2h6a2 2 0 0 0 2-2v-6a2 2 0 0 0-2-2H9V16.31l2 .5v9.16a2 2 0 0 0 .963 1.712S17.327 31 24 31s12.037-3.318 12.037-3.318A2 2 0 0 0 37 25.97v-9.16l7.484-1.872a2 2 0 0 0 0-3.878l-20-5A2 2 0 0 0 24 6.002zm0 4.06L35.754 13 24 15.938 12.246 13zm-9 7.749 8.516 2.128a2 2 0 0 0 .968 0L33 17.811v6.89C31.832 25.323 28.468 27 24 27s-7.832-1.677-9-2.299zM6 37.707A2 2 0 0 0 7 38a2 2 0 0 0 1-.293V38H6z"/></svg>