<svg xmlns="http://www.w3.org/2000/svg" width="48" height="48" viewBox="0 0 48 48"><path d="M20.102 5a2 2 0 0 0-1.416.604L2.568 22.15a2 2 0 0 0-.037 2.752l16.117 17.455A2 2 0 0 0 22.12 41v-8.828c2.68-.252 5.459-.177 8.43.453 2.986.634 7.144 3.668 11.904 9.479a2 2 0 0 0 3.537-1.47c-.72-7.108-3.499-13.216-8.258-18.038-4.298-4.357-9.628-6.733-15.613-7.227V7a2 2 0 0 0-1.248-1.852 2 2 0 0 0-.77-.148zm-1.983 6.918v5.25a2 2 0 0 0 1.983 1.998c5.879.047 10.67 2.07 14.785 6.238 2.474 2.508 4.23 5.398 5.443 8.633-3.048-2.811-5.991-4.698-8.951-5.326-4.01-.85-7.884-.987-11.584-.38a2 2 0 0 0-1.676 1.972v5.584L6.756 23.582z"/></svg>