<svg xmlns="http://www.w3.org/2000/svg" width="48" height="48" viewBox="0 0 48 48"><path d="M9 4C6.262 4 4 6.262 4 9v30c0 2.738 2.262 5 5 5h30c2.738 0 5-2.262 5-5V9c0-2.738-2.262-5-5-5zm0 4h30c.576 0 1 .424 1 1v30c0 .576-.424 1-1 1H9c-.576 0-1-.424-1-1V9c0-.576.424-1 1-1zm15 1.707c-4.485 0-8.97.82-12.787 2.455a2 2 0 0 0-1.205 2.02l1 11a2 2 0 0 0 2.674 1.699 30.3 30.3 0 0 1 6.33-1.55q.081-.012.162-.02.586-.076 1.174-.127l.062-.006q.616-.054 1.233-.08l.048-.004h.026a30 30 0 0 1 2.566 0h.026l.048.004q.617.027 1.233.08l.062.006q.588.052 1.174.127l.162.02a30.3 30.3 0 0 1 6.33 1.55 2 2 0 0 0 2.674-1.7l1-11a2 2 0 0 0-1.205-2.019C32.97 10.526 28.485 9.707 24 9.707zm0 4.086c3.501 0 6.91.615 9.86 1.652l-.637 7.018a34 34 0 0 0-3.215-.734 2 2 0 0 0-.697-.25 34 34 0 0 0-4.127-.393l-2.47-4.115a2 2 0 0 0-2.743-.686 2 2 0 0 0-.686 2.744l1.322 2.205q-.96.095-1.918.245a2 2 0 0 0-.664.244q-1.635.289-3.248.74l-.636-7.018c2.95-1.037 6.358-1.652 9.859-1.652z"/></svg>