<svg xmlns="http://www.w3.org/2000/svg" width="48" height="48" viewBox="0 0 48 48"><path d="M16 4c2.216 0 4 1.784 4 4s-1.784 4-4 4-4-1.784-4-4 1.784-4 4-4z"/><path d="M16 2c-3.29 0-6 2.71-6 6s2.71 6 6 6 6-2.71 6-6-2.71-6-6-6zm0 4c1.143 0 2 .857 2 2s-.857 2-2 2-2-.857-2-2 .857-2 2-2zm0 16c2.216 0 4 1.784 4 4s-1.784 4-4 4-4-1.784-4-4 1.784-4 4-4z"/><path d="M16 20c-3.29 0-6 2.71-6 6s2.71 6 6 6 6-2.71 6-6-2.71-6-6-6zm0 4c1.143 0 2 .857 2 2s-.857 2-2 2-2-.857-2-2 .857-2 2-2z"/><path d="M16 29a2 2 0 0 0-2 2v13a2 2 0 0 0 2 2 2 2 0 0 0 2-2V31a2 2 0 0 0-2-2zM32 4c2.216 0 4 1.784 4 4s-1.784 4-4 4-4-1.784-4-4 1.784-4 4-4z"/><path d="M32 2c-3.29 0-6 2.71-6 6s2.71 6 6 6 6-2.71 6-6-2.71-6-6-6zm0 4c1.143 0 2 .857 2 2s-.857 2-2 2-2-.857-2-2 .857-2 2-2zm0 16c2.216 0 4 1.784 4 4s-1.784 4-4 4-4-1.784-4-4 1.784-4 4-4z"/><path d="M32 20c-3.29 0-6 2.71-6 6s2.71 6 6 6 6-2.71 6-6-2.71-6-6-6zm0 4c1.143 0 2 .857 2 2s-.857 2-2 2-2-.857-2-2 .857-2 2-2z"/><path d="M32 29a2 2 0 0 0-2 2v13a2 2 0 0 0 2 2 2 2 0 0 0 2-2V31a2 2 0 0 0-2-2z"/><path d="M13 15a2 2 0 0 0-2 2 2 2 0 0 0 2 2h6a2 2 0 0 0 2-2 2 2 0 0 0-2-2zm16 0a2 2 0 0 0-2 2 2 2 0 0 0 2 2h6a2 2 0 0 0 2-2 2 2 0 0 0-2-2zM13 34a2 2 0 0 0-2 2 2 2 0 0 0 2 2h6a2 2 0 0 0 2-2 2 2 0 0 0-2-2zm16 0a2 2 0 0 0-2 2 2 2 0 0 0 2 2h6a2 2 0 0 0 2-2 2 2 0 0 0-2-2z"/><path d="M16 12a2 2 0 0 0-2 2v6a2 2 0 0 0 2 2 2 2 0 0 0 2-2v-6a2 2 0 0 0-2-2zm16 0a2 2 0 0 0-2 2v6a2 2 0 0 0 2 2 2 2 0 0 0 2-2v-6a2 2 0 0 0-2-2z"/></svg>