<svg xmlns="http://www.w3.org/2000/svg" width="48" height="48" viewBox="0 0 48 48"><path d="M43 40a3 3 0 0 1-3 3 3 3 0 0 1-3-3 3 3 0 0 1 3-3 3 3 0 0 1 3 3z"/><path d="M40 35c-2.738 0-5 2.262-5 5s2.262 5 5 5 5-2.262 5-5-2.262-5-5-5zm0 4c.576 0 1 .424 1 1s-.424 1-1 1-1-.424-1-1 .424-1 1-1z"/><path d="M16.502 9.43S26.5 22 37.5 37.501C21.5 26 9.43 16.502 9.43 16.502S3.111 10.89 7 7s9.502 2.43 9.502 2.43Z"/><path d="M10.21 3.74c-1.543-.065-3.29.512-4.624 1.846S3.675 8.666 3.74 10.21c.066 1.544.637 2.88 1.285 4a16.6 16.6 0 0 0 3.079 3.787l.09.076s12.1 9.527 28.137 21.052a2 2 0 0 0 2.799-2.783C28.095 20.792 18.066 8.186 18.066 8.186l-.068-.082s-1.547-1.782-3.787-3.079c-1.12-.648-2.456-1.22-4-1.285zm-.169 3.998c.602.026 1.397.305 2.166.75 1.533.888 2.78 2.254 2.79 2.264.066.084 5.922 7.68 13.02 17.25a1552 1552 0 0 1-17.269-13.01c-.014-.012-1.374-1.254-2.26-2.785-.445-.77-.726-1.564-.752-2.166-.025-.602.067-1.016.678-1.627.61-.61 1.025-.701 1.627-.676Z"/></svg>