<svg xmlns="http://www.w3.org/2000/svg" width="48" height="48" viewBox="0 0 48 48"><path d="M15 2c-2.184 0-3.974 1.787-4.031 3.945-.067 2.52-.413 7.064-.865 8.422-.205.612-1.014 1.816-1.971 2.877s-2.035 2.042-2.71 2.627A4.1 4.1 0 0 0 4 22.961V42c0 2.185 1.815 4 4 4h32c2.185 0 4-1.815 4-4V22.96a4.1 4.1 0 0 0-1.424-3.089c-.674-.585-1.752-1.566-2.709-2.627s-1.766-2.265-1.97-2.877c-.453-1.358-.799-5.901-.866-8.422C36.974 3.787 35.184 2 33 2h-3a2 2 0 0 0-2 2c0 2.233-1.767 4-4 4a3.97 3.97 0 0 1-4-4 2 2 0 0 0-2-2zm0 20h6a2 2 0 0 1 2 2v12a2 2 0 0 1-2 2h-6a2 2 0 0 1 0-4h4v-2h-4a2 2 0 0 1 0-4h4v-2h-4a2 2 0 0 1 0-4zm12 0h6a2 2 0 0 1 2 2v12a2 2 0 0 1-2 2h-6a2 2 0 0 1-2-2V24a2 2 0 0 1 2-2zm2 4v8h2v-8z"/></svg>