<svg xmlns="http://www.w3.org/2000/svg" width="48" height="48" viewBox="0 0 48 48"><path d="M6 3C3.819 3 2 4.819 2 7v24c0 2.181 1.819 4 4 4h9.307l.652 3.918-.898 3.598a2 2 0 0 0 1.455 2.423 2 2 0 0 0 2.423-1.455L19.561 41H22v2a2 2 0 0 0 2 2 2 2 0 0 0 2-2v-2h2.44l.62 2.484a2 2 0 0 0 2.424 1.455 2 2 0 0 0 1.455-2.423l-.898-3.598.652-3.918H42c2.181 0 4-1.819 4-4V7c0-2.181-1.819-4-4-4zm0 4h36v24h-8.639l.332-2H34a2 2 0 0 0 2-2 2 2 0 0 0-2-2H14a2 2 0 0 0-2 2 2 2 0 0 0 2 2h.307l.332 2H6zm11 6a2 2 0 0 0-2 2v7a2 2 0 0 0 2 2 2 2 0 0 0 2-2v-5h10v5a2 2 0 0 0 2 2 2 2 0 0 0 2-2v-7a2 2 0 0 0-2-2zm1.36 16H22v2h-3.307zM26 29h3.64l-.333 2H26zm-6.639 6H22v2h-2.307zM26 35h2.639l-.332 2H26z"/></svg>