<svg xmlns="http://www.w3.org/2000/svg" width="48" height="48" viewBox="0 0 48 48"><path d="M13 3C7.566 3 3 7.507 3 13.06c0 2.574 1.222 4.6 2.709 6.249C4.802 21.295 4 23.482 4 26c0 10.396 9.074 19 20 19s20-8.604 20-19c0-2.522-.804-4.711-1.713-6.7C43.783 17.632 45 15.578 45 13c0-5.554-4.584-10-10-10-3.547 0-6.43 2.051-8.088 4.895-.97-.127-1.936-.29-2.912-.29s-1.943.163-2.912.29C19.43 5.05 16.548 3 13 3zm7 14a2 2 0 0 1 2 2 2 2 0 0 1-2 2 2 2 0 0 1-2-2 2 2 0 0 1 2-2zm8 0a2 2 0 0 1 2 2 2 2 0 0 1-2 2 2 2 0 0 1-2-2 2 2 0 0 1 2-2zm-4 6a3 3 0 0 1 3 3 3 3 0 0 1-1 2.201v3.881q.302-.213.586-.496a2 2 0 0 1 2.828 2.828 7.656 7.656 0 0 1-10.828 0 2 2 0 0 1 2.828-2.828q.284.282.586.496v-3.88A3 3 0 0 1 21 26a3 3 0 0 1 3-3z"/></svg>