<svg xmlns="http://www.w3.org/2000/svg" width="48" height="48" viewBox="0 0 48 48"><path d="M24 2C12.978 2 4 10.978 4 22v22a2 2 0 0 0 2 2 2 2 0 0 0 2-2V22c0-8.86 7.14-16 16-16s16 7.14 16 16v22a2 2 0 0 0 2 2 2 2 0 0 0 2-2V22c0-11.022-8.978-20-20-20zM14 21a2 2 0 0 0-2 2c0 5.793 1.149 11.054 3.14 15.037S20.159 45 24 45s6.868-2.98 8.86-6.963S36 28.793 36 23a2 2 0 0 0-2-2zm2.203 4h15.594c-.247 4.404-1.109 8.434-2.516 11.248C27.654 39.503 25.681 41 24 41s-3.654-1.497-5.281-4.752c-1.407-2.814-2.27-6.843-2.516-11.248z"/></svg>