<svg xmlns="http://www.w3.org/2000/svg" width="48" height="48" viewBox="0 0 48 48"><path d="M23 2c-3.033 0-5.195 1.328-6.38 2.684-.407.463-.606.888-.839 1.316H14.5C10.382 6 7 9.382 7 13.5c0 2.893 1.671 5.417 4.092 6.666q-.09.405-.092.834v23a2 2 0 0 0 2 2h22a2 2 0 0 0 2-2V34h1c3.29 0 6-2.71 6-6v-5c0-2.185-1.815-4-4-4h-1.432C40.058 17.626 41 15.668 41 13.5 41 9.382 37.618 6 33.5 6h-3.281c-.233-.428-.432-.853-.838-1.316C28.195 3.328 26.033 2 23 2zm0 4c1.967 0 2.805.672 3.37 1.316.563.645.69 1.168.69 1.168A2 2 0 0 0 29 10h4.5a3.47 3.47 0 0 1 3.5 3.5 3.47 3.47 0 0 1-3.5 3.5H24a2 2 0 0 0-2 2v10.5c0 .3-.2.5-.5.5s-.5-.2-.5-.5V19a2 2 0 0 0-2-2h-4.5a3.47 3.47 0 0 1-3.5-3.5 3.47 3.47 0 0 1 3.5-3.5H17a2 2 0 0 0 1.94-1.516s.127-.523.69-1.168C20.196 6.672 21.034 6 23 6zm-8 15h2v8.5c0 2.462 2.038 4.5 4.5 4.5s4.5-2.038 4.5-4.5V21h7v21H15zm22 2h3v5c0 1.128-.872 2-2 2h-1z"/></svg>