<svg xmlns="http://www.w3.org/2000/svg" width="48" height="48" viewBox="0 0 48 48"><path d="M36.416 2.227a2 2 0 0 0-1.102.56l-13.529 13.53a4.03 4.03 0 0 0-2.027-.547 4 4 0 0 0-2.828 1.16l-2.828 2.828-5.657 5.656C7.144 26.716 6.94 28.74 7.83 30.27l-5.043 5.044a2 2 0 0 0 0 2.829l7.07 7.07a2 2 0 0 0 2.829 0l5.044-5.043c1.53.89 3.554.688 4.856-.613l5.65-5.65.03-.03 2.806-2.807c1.302-1.301 1.503-3.325.612-4.855l13.529-13.53a2 2 0 0 0 0-2.828l-7.07-7.07a2 2 0 0 0-1.727-.56zm.313 4.802 4.242 4.242-2.121 2.122-4.243-4.243zm-4.95 4.95 4.242 4.242-2.123 2.123-4.242-4.242zm-4.95 4.95 4.241 4.243-2.12 2.121-4.243-4.242zm-7.071 2.829 2.828 2.828L21.172 24l-2.828-2.828zM15.516 24l2.828 2.828-1.414 1.414a2 2 0 0 0 0 2.828 2 2 0 0 0 2.828 0l1.414-1.414L24 32.486l-4.242 4.243-8.485-8.487zm9.898 1.414 2.117 2.115.004.006.006.004.703.703-1.414 1.414L24 26.828zm-14.85 7.777 4.245 4.245-3.538 3.535-4.242-4.242z"/></svg>