<svg xmlns="http://www.w3.org/2000/svg" width="48" height="48" viewBox="0 0 48 48"><path d="M28.633 6.17c.09.145.449.584 1.031 1.166C30.914 8.586 33 10.7 33 14c0 2.583-1.236 4.767-2.975 6.092C28.287 21.416 26.131 22 24 22s-4.287-.584-6.025-1.908C16.236 18.767 15 16.583 15 14c0-3.167 1.708-5.275 2.688-6.5.49-.612.753-1.045.78-1.133s.126.13-.132-.258c.069.104.042-.067-.75.055s-2 .61-3.16 1.453C12.107 9.303 10 12.241 10 16v16c0 3.583 1.64 5.847 4.21 7.508C16.783 41.168 20.334 42 23.5 42c3.214 0 7.06-.733 9.875-2.357S38 35.796 38 32V16c0-3.685-2.286-6.62-4.86-8.336-1.286-.858-2.632-1.365-3.548-1.496-.688-.098-.929.011-.96.002zM24 25a2 2 0 0 1 1.414.586l5 5a2 2 0 0 1 0 2.828l-5 5a2 2 0 0 1-2.828 0l-5-5a2 2 0 0 1 0-2.828l5-5A2 2 0 0 1 24 25Z"/><path d="M28.568 6.098c-.042.006-.071.207.053.058-.004-.007-.03-.037-.033-.043q-.01-.018-.02-.015z"/><path d="M18.15 4.13C14.602 4.018 8 8.688 8 16v16c0 8.5 8.5 12 15.5 12S40 41 40 32V16C40 7 29 2 27 5s4 4 4 9c0 8-14 8-14 0 0-5 5-6 3-9-.375-.562-1.03-.843-1.85-.87Zm10.418 1.968q.01-.003.02.015c.002.006.029.036.033.043.016-.018.022-.015.043-.047-.112.168.011-.072.928.059.916.13 2.262.638 3.549 1.496C35.714 9.38 38 12.314 38 16v16c0 3.796-1.81 6.018-4.625 7.643S26.715 42 23.5 42c-3.167 0-6.718-.832-9.29-2.492C11.64 37.848 10 35.583 10 32V16c0-3.76 2.107-6.697 4.426-8.383 1.16-.843 2.368-1.331 3.16-1.453s.819.049.75-.055c.258.388.16.17.133.258-.028.088-.292.52-.782 1.133C16.708 8.725 15 10.833 15 14c0 2.583 1.236 4.767 2.975 6.092C19.713 21.416 21.869 22 24 22s4.287-.584 6.025-1.908C31.764 18.767 33 16.583 33 14c0-3.3-2.086-5.414-3.336-6.664-.593-.593-.962-1.044-1.043-1.18-.124.149-.095-.052-.053-.058Z"/><path d="M28.84 2.133c-1.336.048-2.67.507-3.504 1.758-.785 1.176-.875 2.849-.361 3.933.513 1.085 1.236 1.715 1.86 2.34C28.086 11.414 29 12.3 29 14c0 1.417-.514 2.235-1.4 2.91-.887.676-2.231 1.09-3.6 1.09s-2.713-.414-3.6-1.09c-.886-.675-1.4-1.493-1.4-2.91 0-1.833.792-2.725 1.813-4 .51-.638 1.121-1.33 1.468-2.43.348-1.1.125-2.567-.617-3.68-1.069-1.603-3.042-1.932-4.687-1.68-1.646.254-3.312 1.016-4.903 2.173C8.893 6.696 6 10.759 6 16v16c0 4.917 2.61 8.653 6.04 10.867C15.467 45.082 19.666 46 23.5 46c3.786 0 8.19-.767 11.875-2.893S42 37.204 42 32V16c0-5.315-3.214-9.38-6.64-11.664-1.714-1.142-3.493-1.885-5.202-2.129a7.5 7.5 0 0 0-1.318-.074ZM18.15 4.13c.82.026 1.475.307 1.85.869 2 3-3 4-3 9 0 8 14 8 14 0 0-5-6-6-4-9s13 2 13 11v16c0 9-9.5 12-16.5 12S8 40.5 8 32V16C8 8.687 14.602 4.017 18.15 4.13Z"/><path d="M24 29.828 21.828 32 24 34.172 26.172 32Z"/></svg>