<svg xmlns="http://www.w3.org/2000/svg" width="48" height="48" viewBox="0 0 48 48"><path d="M10.5 42a8.5 8.5 0 1 0 0-17 8.5 8.5 0 0 0 0 17Z"/><path d="M10.5 23C4.725 23 0 27.725 0 33.5S4.725 44 10.5 44 21 39.275 21 33.5 16.275 23 10.5 23Zm0 4a6.47 6.47 0 0 1 6.5 6.5 6.47 6.47 0 0 1-6.5 6.5A6.47 6.47 0 0 1 4 33.5a6.47 6.47 0 0 1 6.5-6.5ZM37 42a9 9 0 1 0 0-18 9 9 0 0 0 0 18z"/><path d="M37 22c-6.051 0-11 4.949-11 11s4.949 11 11 11 11-4.949 11-11-4.949-11-11-11zm0 4c3.89 0 7 3.11 7 7s-3.11 7-7 7-7-3.11-7-7 3.11-7 7-7z"/><path d="M18.996 4a2 2 0 0 0-2 2 2 2 0 0 0 2 2h7.56l8.548 25.633a2 2 0 0 0 2.529 1.263 2 2 0 0 0 1.263-2.529l-9.001-27A2 2 0 0 0 27.998 4Z"/><path d="M31.918 14.777a2 2 0 0 0-1.473.414L9.82 31.428a2 2 0 0 0-.334 2.808 2 2 0 0 0 2.809.336L32.92 18.334a2 2 0 0 0 .334-2.809 2 2 0 0 0-1.336-.748z"/><path d="M42.693 8.123a2 2 0 0 0-2.57 1.184L38.76 13h-7.078a2 2 0 0 0-2 2 2 2 0 0 0 2 2h8.472a2 2 0 0 0 1.875-1.307l1.848-5a2 2 0 0 0-1.184-2.57ZM8 13.973a2 2 0 0 0-2 2 2 2 0 0 0 2 2h7a2 2 0 0 0 2-2 2 2 0 0 0-2-2z"/><path d="M14.4 14.092a2 2 0 0 0-1.308 2.508l3.273 10.42a2 2 0 0 0 2.506 1.31 2 2 0 0 0 1.31-2.508L16.909 15.4a2 2 0 0 0-2.508-1.308z"/></svg>