<svg xmlns="http://www.w3.org/2000/svg" width="48" height="48" viewBox="0 0 48 48"><path d="M24 2C11.873 2 2 11.873 2 24s9.873 22 22 22 22-9.873 22-22S36.127 2 24 2zm0 4c9.965 0 18 8.035 18 18s-8.035 18-18 18S6 33.965 6 24 14.035 6 24 6zm0 5c-3.842 0-7 3.158-7 7 0 1.86.741 3.56 1.941 4.818A8 8 0 0 0 16 29c0 4.395 3.605 8 8 8s8-3.605 8-8c0-2.48-1.15-4.71-2.941-6.182A6.97 6.97 0 0 0 31 18c0-3.842-3.158-7-7-7zm0 4c1.68 0 3 1.32 3 3s-1.32 3-3 3-3-1.32-3-3 1.32-3 3-3zm0 10c2.233 0 4 1.767 4 4s-1.767 4-4 4a3.97 3.97 0 0 1-4-4c0-2.233 1.767-4 4-4z"/></svg>