<svg xmlns="http://www.w3.org/2000/svg" width="48" height="48" viewBox="0 0 48 48"><path d="M4 5a2 2 0 0 0-2 2 2 2 0 0 0 2 2h2v22a2 2 0 0 0 2 2h11.51l-5.996 6.662a2 2 0 0 0 .148 2.824 2 2 0 0 0 2.824-.148L24 33.99l7.514 8.348a2 2 0 0 0 2.824.148 2 2 0 0 0 .148-2.824L28.49 33H40a2 2 0 0 0 2-2V9h2a2 2 0 0 0 2-2 2 2 0 0 0-2-2zm6 4h28v20H10zm6 2a2 2 0 0 0-2 2 2 2 0 0 0 2 2h16a2 2 0 0 0 2-2 2 2 0 0 0-2-2zm0 6a2 2 0 0 0-2 2 2 2 0 0 0 2 2h12a2 2 0 0 0 2-2 2 2 0 0 0-2-2zm0 6a2 2 0 0 0-2 2 2 2 0 0 0 2 2h6a2 2 0 0 0 2-2 2 2 0 0 0-2-2z"/></svg>