<svg xmlns="http://www.w3.org/2000/svg" width="48" height="48" viewBox="0 0 48 48"><path d="M20 2a2 2 0 0 0-2 2v6h-5.72C11.043 10 10 11.044 10 12.28V24c0 7.03 5.233 12.877 12 13.854V41c0 2.738 2.262 5 5 5h11a2 2 0 0 0 2-2 2 2 0 0 0-2-2H27c-.576 0-1-.424-1-1v-3.146c6.767-.977 12-6.825 12-13.854V12.28c0-1.236-1.044-2.28-2.28-2.28H30V4a2 2 0 0 0-2-2 2 2 0 0 0-2 2v6h-4V4a2 2 0 0 0-2-2zm-6 12h20v10a9.97 9.97 0 0 1-10 10 9.97 9.97 0 0 1-10-10zm8 11a2 2 0 0 0-2 2 2 2 0 0 0 2 2h4a2 2 0 0 0 2-2 2 2 0 0 0-2-2z"/></svg>