<svg xmlns="http://www.w3.org/2000/svg" width="48" height="48" viewBox="0 0 48 48"><path d="M30.795 2.586c-2.164 0-3.94 1.145-5.188 2.506s-2.115 2.96-2.115 4.799c0 1.811.656 3.328 1.547 4.695L14.631 24.994c-1.367-.89-2.884-1.547-4.695-1.547-1.839 0-3.438.868-4.8 2.116-1.348 1.236-2.47 2.996-2.49 5.134a6.7 6.7 0 0 0 2.967 6.012c1.594 1.044 3.026 1.583 3.616 2.172.589.59 1.127 2.022 2.171 3.615a6.7 6.7 0 0 0 6.012 2.969c2.138-.02 3.898-1.144 5.135-2.492 1.248-1.361 2.117-2.96 2.117-4.8 0-1.81-.659-3.326-1.549-4.693l10.408-10.41c1.367.89 2.884 1.547 4.696 1.547 1.838 0 3.438-.867 4.799-2.115 1.36-1.248 2.505-3.023 2.505-5.188 0-2.676-1.464-4.627-2.925-5.656-1.462-1.028-2.772-1.574-3.672-2.474s-1.445-2.209-2.473-3.67c-1.028-1.462-2.981-2.928-5.658-2.928zm0 4c1.566 0 1.736.303 2.387 1.228.65.926 1.341 2.624 2.916 4.198s3.272 2.265 4.197 2.916 1.228.82 1.228 2.386c0 .665-.448 1.542-1.209 2.239-.76.697-1.812 1.064-2.095 1.064-1.677 0-2.357-.356-3.535-1.535a2 2 0 0 0-2.829 0L19.127 31.811a2 2 0 0 0 0 2.828c1.179 1.178 1.537 1.858 1.537 3.535 0 .283-.37 1.335-1.066 2.096-.697.76-1.574 1.209-2.239 1.209a2 2 0 0 0-.152.005c-1.688.13-1.825-.21-2.46-1.18-.636-.97-1.158-2.72-2.69-4.251s-3.282-2.054-4.252-2.69c-.97-.635-1.308-.773-1.178-2.46a2 2 0 0 0 .006-.153c0-.664.447-1.541 1.207-2.238s1.813-1.065 2.096-1.065c1.676 0 2.356.357 3.535 1.535a2 2 0 0 0 2.828 0l12.728-12.728a2 2 0 0 0 0-2.828c-1.178-1.179-1.535-1.858-1.535-3.535 0-.283.368-1.336 1.065-2.096s1.574-1.21 2.238-1.21z"/></svg>