<svg xmlns="http://www.w3.org/2000/svg" width="48" height="48" viewBox="0 0 48 48"><path d="M40.1 32.232c-1.195.46-2.565.768-4.1.768H12a13.4 13.4 0 0 1-3.457-.44c.237.497.444.942.746 1.545 1.708 3.417 3.608 5.219 4.416 5.895h21.492c.75-.755 2.35-2.568 4.014-5.895.348-.695.63-1.3.889-1.873zm.558-4.82c-.198-.114-.37-.209-.713-.422-1.853-1.15-4.204-2.769-6.187-4.736-1.508-1.496-2.885-3.228-3.463-5.254H17.674c-.628 1.904-2.081 3.492-3.61 4.982-2.033 1.984-4.436 3.735-6.261 4.967-.396.267-.602.4-.778.508C7.972 28.207 9.466 29 12 29h24c1.957 0 3.55-.792 4.658-1.588zM39.336 24.2a2 2 0 0 1 1.209-.856 2 2 0 0 1 1.51.248c-1.702-1.057-3.85-2.562-5.479-4.178-1.558-1.546-2.482-3.14-2.56-4.26l-.063.28a2 2 0 0 1-1.547 1.513c1.084 2.765 4.195 5.38 6.93 7.252z"/><path d="m8.469 36.744-.074.045a2 2 0 0 1-2.684-.894c2.038 4.076 4.418 6.357 5.539 7.28v.003c.71.584 1.569.822 2.355.822H35.3c.908 0 1.884-.32 2.623-1.053l.002-.002c1-.99 2.949-3.217 4.865-7.05a2 2 0 0 1-2.683.894l-.053-.041c-1.47 2.543-2.829 4.075-3.537 4.777-.323.32-.763.475-1.217.475H13.605a1.7 1.7 0 0 1-1.084-.367c-.787-.649-2.431-2.206-4.052-4.889z"/><path d="M8.469 36.744c1.62 2.683 3.265 4.24 4.052 4.889.305.25.69.367 1.084.367H35.3c.454 0 .894-.155 1.217-.475.708-.702 2.066-2.234 3.537-4.777a2 2 0 0 1-.842-2.643c-1.663 3.327-3.264 5.14-4.014 5.895H13.705c-.808-.676-2.708-2.478-4.416-5.895a2 2 0 0 1-.82 2.64Zm7.027-19.834a2 2 0 0 1-1.45-1.476l-.066-.303c-.105.71-1.067 2.387-2.709 3.988-1.74 1.698-3.995 3.36-5.707 4.516a2 2 0 0 1 1.5-.307 2 2 0 0 1 1.25.818c2.734-1.981 5.963-4.705 7.182-7.236z"/><path d="M17.994 15a2 2 0 0 1-1.56 1.953 2 2 0 0 1-.938-.043c-1.219 2.531-4.448 5.255-7.182 7.236l.028.026a2 2 0 0 1-.54 2.777c1.826-1.232 4.229-2.983 6.262-4.967 1.529-1.49 2.982-3.078 3.61-4.982h12.62c.58 2.026 1.956 3.758 3.464 5.254 1.983 1.967 4.334 3.585 6.187 4.736a2 2 0 0 1-.644-2.754l.035-.037c-2.735-1.873-5.846-4.487-6.93-7.252a2 2 0 0 1-.84.006A2 2 0 0 1 30.037 15Zm-.389-2 .348 1.566a2 2 0 0 1 .041.434h12.043a2 2 0 0 1 .01-.434L30.395 13Zm12.79 0H32a2 2 0 0 1 2 2c0 .049.012.104.016.154L35.604 8H42a2 2 0 0 0 2-2 2 2 0 0 0-2-2h-8a2 2 0 0 0-1.953 1.566z"/><path d="M32.406 16.947a2 2 0 0 0 1.547-1.513l.063-.28C34.012 15.104 34 15.05 34 15a2 2 0 0 0-2-2h-1.605l-.348 1.566a2 2 0 0 0-.01.434H32c0 .652.154 1.303.406 1.947z"/><path d="M32.406 16.947C32.154 16.303 32 15.652 32 15h-1.963a2 2 0 0 0 1.53 1.953 2 2 0 0 0 .84-.006zM17.994 15H16c0 .612-.188 1.255-.504 1.91a2 2 0 0 0 .938.043A2 2 0 0 0 17.994 15Z"/><path d="M17.605 13H16a2 2 0 0 0-2 2c0 .036-.013.088-.02.13l.067.304a2 2 0 0 0 1.45 1.476c.315-.655.503-1.298.503-1.91h1.994a2 2 0 0 0-.04-.434z"/><path d="M6 4a2 2 0 0 0-2 2 2 2 0 0 0 2 2h6.396l1.584 7.13c.007-.042.02-.094.02-.13a2 2 0 0 1 2-2h1.605l-1.652-7.434A2 2 0 0 0 14 4ZM2.83 25.424l.012-.008a2 2 0 0 1 .15-.143s.267-.155.72-.437c-.453.282-.72.435-.72.435a2 2 0 0 0-.162.153zm2.986 6.029a10 10 0 0 1-1.316-.89c-1.555-1.244-2.29-2.668-2.29-2.668a2 2 0 0 1-.124-.457 2 2 0 0 0 .018.195s1.06 3.166 3.607 8.262a2 2 0 0 0 2.684.894l.074-.045A25 25 0 0 1 7.5 35a93 93 0 0 1-1.684-3.547Z"/><path d="M5.816 31.453A93 93 0 0 0 7.5 35c.317.635.642 1.204.969 1.744a2 2 0 0 0 .82-2.639c-.302-.603-.509-1.048-.746-1.544a11.5 11.5 0 0 1-2.727-1.108Zm-.148-5.503a2 2 0 0 0-2.563-.74 2 2 0 0 0-.263.206 2 2 0 0 0-.428.402 2 2 0 0 0-.148.26 2 2 0 0 0-.194.516 2 2 0 0 0-.037.304 2 2 0 0 0 .05.54 2 2 0 0 0 .126.457s.734 1.424 2.289 2.668c.381.305.821.608 1.316.89C4.551 28.635 4 27 4 27s.723-.443 1.668-1.05Z"/><path d="M5.668 25.95C4.723 26.556 4 27 4 27s.551 1.635 1.816 4.453c.771.44 1.68.828 2.727 1.108-1.34-2.804-1.781-4.092-2.031-4.79.228-.142.359-.219.513-.314L7 27.437c-.945-.756-1.21-1.332-1.21-1.332a2 2 0 0 0-.122-.156zm2.646-1.804a2 2 0 0 0-1.25-.818 2 2 0 0 0-1.5.307 51 51 0 0 1-2.572 1.638 2 2 0 0 0-.15.143 2 2 0 0 1 .263-.205 2 2 0 0 1 2.563.738c.338-.217.605-.38 1.016-.658.504-.34 1.058-.73 1.63-1.145z"/><path d="M8.314 24.146c-.572.415-1.126.805-1.63 1.145-.411.277-.678.44-1.016.658a2 2 0 0 1 .121.156s.266.576 1.211 1.333l.025.019c.176-.108.382-.24.778-.508a2 2 0 0 0 .539-2.777zm33.893 1.87a9 9 0 0 1 .193-.215 2 2 0 0 1 1.317-.781 2 2 0 0 1 1.474.376 2 2 0 0 0-.296-.185s-1.192-.595-2.84-1.62a2 2 0 0 0-1.51-.247 2 2 0 0 0-1.21.855c.58.396 1.144.769 1.665 1.092.436.27.842.513 1.207.725z"/><path d="M42.207 26.016A47 47 0 0 1 41 25.29a45 45 0 0 1-1.664-1.092l-.035.037a2 2 0 0 0 .644 2.754c.344.213.515.308.713.422.88-.631 1.344-1.154 1.549-1.396zm.66 4.726C44.637 29.496 45.6 28.2 45.6 28.2a2 2 0 0 0 .398-1.164v-.015a2 2 0 0 0-.018-.278l-.005-.043a2 2 0 0 0-.063-.285l-.002-.004a2 2 0 0 0-.105-.267l-.03-.055a2 2 0 0 0-.129-.217l-.02-.031a2 2 0 0 0-.189-.229l-.013-.013a2 2 0 0 0-.21-.184l-.023-.018a2 2 0 0 0-1.474-.376 2 2 0 0 0-1.317.78s-.137.15-.193.216C43.286 26.642 44 27 44 27s-.24 1.363-1.133 3.742z"/><path d="M42.867 30.742C43.76 28.363 44 27 44 27s-.714-.358-1.793-.984c-.205.242-.67.765-1.549 1.396.371.214.65.364 1.024.567a22 22 0 0 1-.756 2.306q-.283.742-.703 1.69c-.034.076-.088.179-.123.257a12.8 12.8 0 0 0 2.767-1.49z"/><path d="m40.053 36.748.052.041a2 2 0 0 0 2.684-.894c2.58-5.162 3.173-8.515 3.18-8.553a2 2 0 0 1-.37.857s-.962 1.297-2.732 2.543A44 44 0 0 1 41 35a32 32 0 0 1-.947 1.748z"/><path d="M40.053 36.748A32 32 0 0 0 41 35a44 44 0 0 0 1.867-4.258 12.8 12.8 0 0 1-2.767 1.49 52 52 0 0 1-.89 1.873 2 2 0 0 0 .843 2.643z"/></svg>