<svg xmlns="http://www.w3.org/2000/svg" width="48" height="48" viewBox="0 0 48 48"><path d="M14.695 20H14v22h20V20h-.695Zm3.805 4a2 2 0 0 1 2 2v10a2 2 0 0 1-2 2 2 2 0 0 1-2-2V26a2 2 0 0 1 2-2z"/><path d="M12.715 18H12v26h24V18h-.703a2 2 0 0 1-1.992 2H34v22H14V20h.695a2 2 0 0 1-1.98-2z"/><path d="m34.752 16 .453 1.375a2 2 0 0 1 .092.625H36v26H12V18h.715a2 2 0 0 1 .08-.625L13.248 16H12a2 2 0 0 0-2 2v26a2 2 0 0 0 2 2h24a2 2 0 0 0 2-2V18a2 2 0 0 0-2-2z"/><path d="M12.715 18a2 2 0 0 0 1.98 2h18.61a2 2 0 0 0 1.992-2zm4.744-2h-4.211l-.453 1.375a2 2 0 0 0-.08.625h22.582a2 2 0 0 0-.092-.625L34.752 16h-4.211zM21 13a2 2 0 0 1-2-2V9.068a6.02 6.02 0 0 0-4.805 4.055L13.248 16h4.211l.535-1.625a1.99 1.99 0 0 1 1.9-1.375Zm6 0a2 2 0 0 1-2-2V9h-2v2a2 2 0 0 1-2 2zm2-3.932V11a2 2 0 0 1-2 2h1.105c.872 0 1.628.547 1.9 1.375L30.542 16h4.211l-.947-2.877A6.02 6.02 0 0 0 29 9.068Z"/><path d="M21 13a2 2 0 0 0 2-2V9h-3.105q-.455.001-.895.068V11a2 2 0 0 0 2 2zm8-3.932A6 6 0 0 0 28.105 9H25v2a2 2 0 0 0 2 2 2 2 0 0 0 2-2z"/><path d="M24 2c-2.738 0-5 2.262-5 5v2.068q.44-.067.895-.068H23V7c0-.576.424-1 1-1s1 .424 1 1v2h3.105q.455.001.895.068V7c0-2.738-2.262-5-5-5Z"/></svg>