<svg xmlns="http://www.w3.org/2000/svg" width="48" height="48" viewBox="0 0 48 48"><path d="M6.934 12.3c-1.328-.263-2.71.279-3.485 1.257s-.989 2.387-.488 3.62C4.333 20.562 6 23.672 6 25c0 1.618-1.054 5.078-2.455 8.268a4.06 4.06 0 0 0 .305 3.85c.716 1.095 2.118 1.867 3.597 1.704 2.925-.322 6.502-1.175 9.463-3.593S22 28.777 22 23a2 2 0 0 0-.437-1.25c-3.682-4.602-9.125-8.355-14.63-9.45Zm.134 4.221c3.801 1.036 7.975 3.823 10.871 7.204-.16 4.346-1.603 6.809-3.558 8.406-2.01 1.641-4.709 2.372-7.143 2.666C8.72 31.415 10 27.957 10 25c0-3.126-1.718-5.822-2.932-8.479ZM41.066 12.3c-5.504 1.095-10.947 4.848-14.629 9.45A2 2 0 0 0 26 23c0 5.777 2.13 9.81 5.09 12.229s6.538 3.27 9.463 3.593c1.479.163 2.881-.609 3.597-1.705a4.06 4.06 0 0 0 .305-3.85C43.054 30.079 42 26.618 42 25c0-1.329 1.667-4.439 3.04-7.822.5-1.234.285-2.643-.49-3.621-.773-.978-2.156-1.52-3.484-1.256zm-.134 4.221C39.718 19.178 38 21.874 38 25c0 2.957 1.28 6.415 2.762 9.797-2.434-.294-5.133-1.025-7.143-2.666-1.955-1.597-3.398-4.06-3.558-8.406 2.896-3.381 7.07-6.168 10.87-7.204z"/><path d="M20 21h8v8h-8z"/><path d="M20 19a2 2 0 0 0-2 2v8a2 2 0 0 0 2 2h8a2 2 0 0 0 2-2v-8a2 2 0 0 0-2-2zm2 4h4v4h-4z"/></svg>