<svg xmlns="http://www.w3.org/2000/svg" width="48" height="48" viewBox="0 0 48 48"><path d="M24 3a2 2 0 0 0-2 2v9a2 2 0 0 0 2 2 2 2 0 0 0 2-2V5a2 2 0 0 0-2-2zM12 8a2 2 0 0 0-2 2v4a2 2 0 0 0 2 2 2 2 0 0 0 2-2v-4a2 2 0 0 0-2-2zm24 0a2 2 0 0 0-2 2v4a2 2 0 0 0 2 2 2 2 0 0 0 2-2v-4a2 2 0 0 0-2-2zM7 20a2 2 0 0 0-2 2c0 7.765 4.322 14.06 10.535 17.072l-1.431 4.295A2 2 0 0 0 16 46h16a2 2 0 0 0 1.896-2.633l-1.431-4.295C38.678 36.06 43 29.765 43 22a2 2 0 0 0-2-2zm2.188 4h29.624c-.924 7.798-7.08 13-14.812 13S10.112 31.798 9.188 24zm10.107 16.434C20.803 40.805 22.38 41 24 41s3.197-.195 4.705-.566L29.227 42H18.773z"/></svg>