<svg xmlns="http://www.w3.org/2000/svg" width="48" height="48" viewBox="0 0 48 48"><path d="M34 2c-1.865 0-3.675.432-5.34 1.035a2 2 0 0 0-.652.229l-.055.04c-2.396.957-4.445 2.206-5.848 2.907a2 2 0 0 0-.847 2.77L28.582 22H13.301l-3.473-7.812A2 2 0 0 0 8 13H3.5a2 2 0 0 0-2 2 2 2 0 0 0 2 2h3.201l3.404 7.662 2.456 9.822A2 2 0 0 0 14.5 36H36a2 2 0 0 0 1.857-1.258l4-10 .014-.045.008-.013 4-11a2 2 0 0 0-.3-1.913c-1.168-1.5-2.952-3.802-4.9-5.794-.973-.996-1.985-1.92-3.054-2.647C36.555 2.603 35.417 2 34 2zm-3 34c-2.738 0-5 2.262-5 5s2.262 5 5 5 5-2.262 5-5-2.262-5-5-5zm-11 0c-2.738 0-5 2.262-5 5s2.262 5 5 5 5-2.262 5-5-2.262-5-5-5zM34 6c.083 0 .653.147 1.375.639.722.491 1.586 1.255 2.445 2.134 1.46 1.493 2.786 3.201 3.907 4.631L38.6 22h-5.43L25.78 8.865c.784-.4 1.607-.811 2.44-1.197l3.043 5.324a2 2 0 0 0 2.728.744 2 2 0 0 0 .744-2.728l-2.713-4.75A8.6 8.6 0 0 1 34 6zM14.56 26h22.487l-2.4 6H16.062zM20 40c.576 0 1 .424 1 1s-.424 1-1 1-1-.424-1-1 .424-1 1-1zm11 0c.576 0 1 .424 1 1s-.424 1-1 1-1-.424-1-1 .424-1 1-1z"/></svg>