<svg xmlns="http://www.w3.org/2000/svg" width="48" height="48" viewBox="0 0 48 48"><path d="M30 10a6 6 0 0 1-6 6 6 6 0 0 1-6-6 6 6 0 0 1 6-6 6 6 0 0 1 6 6z"/><path d="M24 2c-4.395 0-8 3.605-8 8s3.605 8 8 8 8-3.605 8-8-3.605-8-8-8zm0 4c2.233 0 4 1.767 4 4s-1.767 4-4 4a3.97 3.97 0 0 1-4-4c0-2.233 1.767-4 4-4z"/><path d="M24 14c-5 0-9.2 3.4-9.2 3.4a2 2 0 0 0-.696.967l-4 12a2 2 0 0 0 .646 2.195l4.25 3.4V44a2 2 0 0 0 2 2 2 2 0 0 0 2-2v-9a2 2 0 0 0-.75-1.562l-3.912-3.13 3.324-9.972C18.313 19.909 21.305 18 24 18c2.68 0 5.636 1.88 6.314 2.322l3.313 10.77-3.656 2.193A2 2 0 0 0 29 35v9a2 2 0 0 0 2 2 2 2 0 0 0 2-2v-7.867l4.03-2.418a2 2 0 0 0 .882-2.303l-4-13A2 2 0 0 0 33.2 17.4S29 14 24 14Z"/></svg>