<svg xmlns="http://www.w3.org/2000/svg" width="48" height="48" viewBox="0 0 48 48"><path d="M24 6C14.083 6 6 14.083 6 24s8.083 18 18 18 18-8.083 18-18S33.917 6 24 6Zm0 4c7.756 0 14 6.244 14 14s-6.244 14-14 14-14-6.244-14-14 6.244-14 14-14z"/><path d="M24 28a4 4 0 1 0 0-8 4 4 0 0 0 0 8z"/><path d="M24 18c-3.29 0-6 2.71-6 6s2.71 6 6 6 6-2.71 6-6-2.71-6-6-6zm0 4c1.128 0 2 .872 2 2s-.872 2-2 2-2-.872-2-2 .872-2 2-2zm0-18a20 20 0 0 1 20 20h-7.994A12.006 12.006 0 0 0 24 11.994Z"/><path d="M24 2a2 2 0 0 0-2 2v7.994a2 2 0 0 0 2 2 10.01 10.01 0 0 1 9.244 6.176 10 10 0 0 1 .762 3.83 2 2 0 0 0 2 2H44a2 2 0 0 0 2-2 22 22 0 0 0-6.443-15.557A22 22 0 0 0 24 2Zm2 4.197c1.673.188 3.327.527 4.889 1.174a18 18 0 0 1 9.74 9.74c.647 1.562.986 3.216 1.174 4.889h-3.994c-.167-1.149-.423-2.282-.87-3.36a14 14 0 0 0-3.035-4.544 14 14 0 0 0-4.545-3.035c-1.077-.447-2.21-.703-3.359-.87Z"/></svg>