<svg xmlns="http://www.w3.org/2000/svg" width="48" height="48" viewBox="0 0 48 48"><path d="M30.63 1.93c-3.944.1-7.706 1.835-10.167 4.789C15.295 12.92 7.336 24.89 7.336 24.89a2 2 0 0 0-.147.351C5.221 27.278 4 30.037 4 33.187c0 3.729 2.008 7.038 4.988 9.211 1.529 1.115 3.272 1.45 4.875 1.53 1.603.079 3.146-.06 4.637-.06 1.38 0 2.83.158 4.36.128s3.226-.283 4.747-1.314c2.342-1.587 4.135-3.847 4.934-6.467a2 2 0 0 0 .225-.274s7.963-14.927 10.023-19.046c2.522-5.044-.19-11.119-5.969-13.72a14.2 14.2 0 0 0-6.19-1.245zm.51 4.027a10 10 0 0 1 4.04.867c4.221 1.9 5.51 5.325 4.03 8.281-1.301 2.605-4.653 8.931-7.175 13.678C29.91 24.14 24.527 21 18.5 21a19.4 19.4 0 0 0-3.916.393c.363-.523.642-.93 1.033-1.487.345-.091 3.19-.788 6.95.047a2 2 0 0 0 2.386-1.52 2 2 0 0 0-1.52-2.386 20.5 20.5 0 0 0-3.507-.463 21 21 0 0 0-1.201-.021c.68-.934 1.347-1.83 2.011-2.71l.051-.015s2.812-1.12 5.424 0a2 2 0 0 0 2.627-1.05 2 2 0 0 0-1.05-2.626 10.4 10.4 0 0 0-3.337-.805c1.74-1.516 4.177-2.414 6.69-2.4zM18.5 25c6.023 0 10.5 3.887 10.5 8.188 0 2.408-1.325 4.617-3.637 6.183-.644.437-1.421.604-2.584.627-1.162.023-2.623-.13-4.279-.13-1.71 0-3.229.124-4.44.064-1.21-.06-2.031-.268-2.714-.766C9.21 37.609 8 35.494 8 33.188c0-2.603 1.05-4.483 2.885-5.903S15.416 25 18.5 25zm0 3c-1.566 0-3.061.355-4.305 1.2-1.243.843-2.195 2.343-2.195 4.017 0 1.763 1.081 3.226 2.422 4.084 1.636 1.047 3.118.656 4.078.656.852 0 2.255.43 3.896-.545C23.828 36.562 25 35.06 25 33.217c0-1.645-.948-3.04-2.154-3.903C21.64 28.452 20.129 28 18.5 28zm0 4c.856 0 1.597.266 2.02.568.422.303.48.516.48.649 0 .148-.092.426-.646.756.082-.05-.52-.016-1.854-.016-1.345 0-1.966-.054-1.922-.025-.5-.32-.578-.573-.578-.715 0-.34.056-.448.441-.71.386-.26 1.14-.507 2.059-.507z"/></svg>