<svg xmlns="http://www.w3.org/2000/svg" width="48" height="48" viewBox="0 0 48 48"><path d="M20.154 2.006a2 2 0 0 0-1.455.476l-7 6a2 2 0 0 0-.217 2.819 2 2 0 0 0 2.819.217l2.271-1.946L18.652 12H17a2 2 0 0 0-2 2v3.785c-.663.273-1.044.34-2.11 1.05C11.136 20.008 9 22 9 25v19a2 2 0 0 0 2 2h24a2 2 0 0 0 2-2V25c0-3-2.135-4.993-3.89-6.164-1.066-.71-1.447-.778-2.11-1.05V14a2 2 0 0 0-2-2h-5.082l-4.31-5.03L21.3 5.519a2 2 0 0 0 .217-2.819 2 2 0 0 0-1.364-.693zM26 6a2 2 0 0 0-2 2 2 2 0 0 0 2 2h7v5a2 2 0 0 0 .719 1.537l6 5a2 2 0 0 0 2.818-.256 2 2 0 0 0-.256-2.818L37 14.063V8a2 2 0 0 0-2-2zm-7 10h8v3a2 2 0 0 0 1.367 1.896s1.28.439 2.524 1.268C32.135 22.994 33 24 33 25v17H13V25c0-1 .865-2.007 2.11-2.836a12.3 12.3 0 0 1 2.523-1.268A2 2 0 0 0 19 19z"/></svg>