<svg xmlns="http://www.w3.org/2000/svg" width="48" height="48" viewBox="0 0 48 48"><path d="M37 42h5V25.393l-23-8.52V42h5V29a2 2 0 0 1 2.633-1.896l9 3A2 2 0 0 1 37 32Z"/><path d="M24 44v-2h-5V16.873l23 8.52V42h-5v2h7V24L17 14v30z"/><path d="M33 42v-8.559l-5-1.668V42Zm0 2v-2h-5v2zm2 2a2 2 0 0 1-2-2h-5a2 2 0 0 1-2 2z"/><path d="M16.94 12.002A2 2 0 0 0 15 14v30a2 2 0 0 0 2 2h9a2 2 0 0 1-2-2h-7V14l27 10v20h-7a2 2 0 0 1-2 2h9a2 2 0 0 0 2-2V24a2 2 0 0 0-1.305-1.875l-27-10a2 2 0 0 0-.756-.123z"/><path d="M17.258 12.018a2 2 0 0 0-1.477.396l-13 10A2 2 0 0 0 2 24v20a2 2 0 0 0 2 2h13a2 2 0 0 0 2-2 2 2 0 0 0-2-2H6V24.984l12.219-9.398a2 2 0 0 0 .367-2.805 2 2 0 0 0-1.328-.763zM28 44h-4a2 2 0 0 0 2 2 2 2 0 0 0 2-2zm0-2h-4v2h4zm5 2h4v-2h-4zm2 2a2 2 0 0 0 2-2h-4a2 2 0 0 0 2 2z"/><path d="M17 42a2 2 0 0 0-2 2 2 2 0 0 0 2 2h27a2 2 0 0 0 2-2 2 2 0 0 0-2-2z"/></svg>