<svg xmlns="http://www.w3.org/2000/svg" width="48" height="48" viewBox="0 0 48 48"><path d="M8 42h2V28a2 2 0 0 1 .94-1.695l8-5a2 2 0 0 1 2.029-.055A2 2 0 0 1 22 23v19h4V23a2 2 0 0 1 1.031-1.75 2 2 0 0 1 2.03.055l8 5A2 2 0 0 1 38 28v14h4V22.086l-18-11.7-18 11.7V42Z"/><path d="M18 42V26.61l-4 2.5V42Zm16 0V29.11l-4-2.5V42Z"/><path d="M6 44a2 2 0 0 1 2-2H6V22.086l18-11.7 18 11.7V42h-1a2 2 0 0 1 2 2h1V21L24 8 4 21v23z"/><path d="M23.62 6.035a2 2 0 0 0-.71.287l-20 13A2 2 0 0 0 2 21v23a2 2 0 0 0 2 2h4a2 2 0 0 1-2-2H4V21L24 8l20 13v23h-1a2 2 0 0 1-2 2h3a2 2 0 0 0 2-2V21a2 2 0 0 0-.91-1.678l-20-13a2 2 0 0 0-1.47-.287Z"/><path d="M26 42h-4v2h4zm15 0h-3v2h5a2 2 0 0 0-2-2zM6 44h4v-2H8a2 2 0 0 0-2 2zm6 2a2 2 0 0 1-2-2H6a2 2 0 0 0 2 2z"/><path d="M14 44h-4a2 2 0 0 0 2 2 2 2 0 0 0 2-2zm0-2h-4v2h4zm4 2h4v-2h-4zm0 0v-2h-4v2zm2 2a2 2 0 0 0 2-2h-4a2 2 0 0 0 2 2z"/><path d="M20 46a2 2 0 0 1-2-2h-4a2 2 0 0 1-2 2zm8 0a2 2 0 0 1-2-2h-4a2 2 0 0 1-2 2z"/><path d="M30 44h-4a2 2 0 0 0 2 2 2 2 0 0 0 2-2zm0-2h-4v2h4zm4 2h4v-2h-4zm0 0v-2h-4v2zm2 2a2 2 0 0 0 2-2h-4a2 2 0 0 0 2 2z"/><path d="M36 46a2 2 0 0 1-2-2h-4a2 2 0 0 1-2 2zm5 0a2 2 0 0 0 2-2h-5a2 2 0 0 1-2 2z"/></svg>