<svg xmlns="http://www.w3.org/2000/svg" width="48" height="48" viewBox="0 0 48 48"><path d="M11 14 25 4v40H11Z"/><path d="M25.916 2.223a2 2 0 0 0-2.078.15l-14 10A2 2 0 0 0 9 14v30a2 2 0 0 0 2 2h14a2 2 0 0 0 2-2V4a2 2 0 0 0-1.084-1.777ZM23 7.885V42H13V15.03Z"/><path d="M24.672 11.027a2 2 0 0 0-1.299.81 2 2 0 0 0 .465 2.79L37 24.029V44a2 2 0 0 0 2 2 2 2 0 0 0 2-2V23a2 2 0 0 0-.838-1.627l-14-10a2 2 0 0 0-1.49-.346z"/><path d="M4 42a2 2 0 0 0-2 2 2 2 0 0 0 2 2h40a2 2 0 0 0 2-2 2 2 0 0 0-2-2z"/></svg>