<svg xmlns="http://www.w3.org/2000/svg" width="48" height="48" viewBox="0 0 48 48"><path d="M6 2C3.815 2 2 3.815 2 6v32c0 2.185 1.815 4 4 4v2a2 2 0 0 0 2 2h8a2 2 0 0 0 2-2v-2h12v2a2 2 0 0 0 2 2h8a2 2 0 0 0 2-2v-2c2.185 0 4-1.815 4-4V6a2 2 0 0 0-.01-.191C45.887 3.71 44.12 2 42 2zm0 4h36v2H6zm0 6h36v11H6zm15 2a2 2 0 0 0-2 2 2 2 0 0 0 2 2h6a2 2 0 0 0 2-2 2 2 0 0 0-2-2zM6 27h36v11H6zm4 5a2 2 0 0 0-2 2 2 2 0 0 0 2 2h2a2 2 0 0 0 2-2 2 2 0 0 0-2-2zm9 0a2 2 0 0 0-2 2 2 2 0 0 0 2 2h10a2 2 0 0 0 2-2 2 2 0 0 0-2-2zm17 0a2 2 0 0 0-2 2 2 2 0 0 0 2 2h2a2 2 0 0 0 2-2 2 2 0 0 0-2-2z"/></svg>