<svg xmlns="http://www.w3.org/2000/svg" width="48" height="48" viewBox="0 0 48 48"><path d="M36 39v2h1c2.735 0 5-2.265 5-5V25a2 2 0 0 1-2 2v9c0 1.662-1.338 3-3 3zm-20 0v2h16v-2zm0 0h16a2 2 0 0 1 2-2H14a2 2 0 0 1 2 2zM8 27a2 2 0 0 1-2-2v11c0 2.735 2.265 5 5 5h1v-2h-1c-1.662 0-3-1.338-3-3Zm2-6h28V8c0-.589-.411-1-1-1H11c-.589 0-1 .411-1 1zm8-10h12a2 2 0 0 1 2 2 2 2 0 0 1-2 2H18a2 2 0 0 1-2-2 2 2 0 0 1 2-2z"/><path d="M8 19a2 2 0 0 1 2 2V8c0-.589.411-1 1-1h26c.589 0 1 .411 1 1v13a2 2 0 0 1 2-2V8c0-1.662-1.338-3-3-3H11C9.338 5 8 6.338 8 8Zm2 6a2 2 0 0 1-2 2v9c0 1.662 1.338 3 3 3h1a2 2 0 0 1 2-2h-3c-.589 0-1-.411-1-1z"/><path d="M38 25H10v11c0 .589.411 1 1 1h26c.589 0 1-.411 1-1zm-24 6a2 2 0 0 1 2 2 2 2 0 0 1-2 2 2 2 0 0 1-2-2 2 2 0 0 1 2-2zm20 0a2 2 0 0 1 2 2 2 2 0 0 1-2 2 2 2 0 0 1-2-2 2 2 0 0 1 2-2z"/><path d="M38 25v11c0 .589-.411 1-1 1h-3a2 2 0 0 1 2 2h1c1.662 0 3-1.338 3-3v-9a2 2 0 0 1-2-2zM11 3C8.265 3 6 5.265 6 8v13a2 2 0 0 1 2-2V8c0-1.662 1.338-3 3-3h26c1.662 0 3 1.338 3 3v11a2 2 0 0 1 2 2V8c0-2.735-2.265-5-5-5Z"/><path d="M16 41h-4v2a2 2 0 0 0 2 2 2 2 0 0 0 2-2zm-4-2v2h4v-2zm0 0h4a2 2 0 0 0-2-2 2 2 0 0 0-2 2zm24 2h-4v2a2 2 0 0 0 2 2 2 2 0 0 0 2-2zm-4-2v2h4v-2zm0 0h4a2 2 0 0 0-2-2 2 2 0 0 0-2 2zM8 19v2h2a2 2 0 0 0-2-2Zm-2 4a2 2 0 0 1 2-2v-2a2 2 0 0 0-2 2Z"/><path d="M8 25v-4a2 2 0 0 0-2 2 2 2 0 0 0 2 2z"/><path d="M8 25a2 2 0 0 1-2-2v2a2 2 0 0 0 2 2zm2 0v-4H8v4zm0 0H8v2a2 2 0 0 0 2-2zm28-4h2v-2a2 2 0 0 0-2 2zm2 4v-4h-2v4zm0 0h-2a2 2 0 0 0 2 2zm2-2a2 2 0 0 0-2-2v4a2 2 0 0 0 2-2z"/><path d="M42 23a2 2 0 0 1-2 2v2a2 2 0 0 0 2-2zm0-2a2 2 0 0 0-2-2v2a2 2 0 0 1 2 2z"/></svg>