<svg xmlns="http://www.w3.org/2000/svg" width="48" height="48" viewBox="0 0 48 48"><path d="M5 12c3.664-4.294 14.081 6.82 19 13 4.92-6.18 15.337-17.294 19-13 .679.65 1.443 2.877-1 6-.678.976-1.814 3.706-1 8 0 1.139-1.115 2.952-6 1 2.375 1.627 6.85 6.096 4 10-2.714 3.416-9.035 7.457-13-2l-2-4-2 4c-3.964 9.457-10.286 5.416-13 2-2.85-3.904 1.625-8.373 4-10-4.885 1.952-6 .139-6-1 .814-4.294-.321-7.024-1-8-2.442-3.123-1.678-5.35-1-6z"/><path d="M6.375 9.094c-1.037.152-2.066.71-2.81 1.539-1.724 1.727-1.958 4.998.859 8.6l-.067-.09c.278.399 1.4 2.677.678 6.484A2 2 0 0 0 5 26c0 1.222.787 2.869 2.434 3.52.098.039.23.004.332.037-.141.21-.321.355-.452.578-1.286 2.197-1.862 5.397.07 8.045l.05.064c1.588 2 4.089 4.224 7.386 4.572 1.65.175 3.49-.253 5.06-1.435 1.572-1.183 2.88-3.022 3.964-5.608l-.055.122.211-.422.21.422-.054-.122c1.084 2.586 2.392 4.425 3.963 5.608s3.412 1.61 5.06 1.435c3.298-.348 5.799-2.573 7.387-4.572l.05-.064c1.932-2.648 1.356-5.848.07-8.045-.13-.222-.311-.366-.452-.576.102-.033.235 0 .334-.04C42.215 28.87 43 27.223 43 26a2 2 0 0 0-.035-.373c-.722-3.807.4-6.085.678-6.484l-.067.09c2.819-3.604 2.583-6.878.856-8.604-.744-.827-1.772-1.383-2.807-1.535-1.071-.158-2.103.026-3.092.363-1.977.674-3.892 1.98-5.83 3.568-3.22 2.64-6.26 5.998-8.703 8.916-2.443-2.918-5.483-6.276-8.703-8.916-1.938-1.588-3.851-2.894-5.828-3.568-.989-.337-2.023-.521-3.094-.363Zm.584 3.957c.219-.032.639-.005 1.219.193 1.16.396 2.844 1.45 4.584 2.875 3.479 2.852 7.279 7.118 9.674 10.127a2 2 0 0 0 3.128 0c2.395-3.01 6.195-7.275 9.674-10.127 1.74-1.426 3.424-2.48 4.584-2.875.58-.198 1.002-.225 1.221-.193s.268.051.436.248a2 2 0 0 0 .136.144c-.425-.407.842.724-1.191 3.325l-.067.09c-1.032 1.484-2.078 4.503-1.378 8.943-.234.058-1.184.162-3.237-.658a2 2 0 0 0-1.873 3.507c.966.662 2.533 2.086 3.365 3.506.826 1.41 1.052 2.395.16 3.637-1.13 1.405-3.116 2.884-4.634 3.045-.767.08-1.42-.042-2.235-.654-.814-.613-1.783-1.815-2.681-3.957a2 2 0 0 0-.055-.122l-2-4a2 2 0 0 0-3.578 0l-2 4a2 2 0 0 0-.055.122c-.898 2.142-1.867 3.344-2.681 3.957-.815.612-1.467.735-2.233.654-1.518-.16-3.505-1.64-4.637-3.045-.891-1.242-.663-2.227.163-3.637.831-1.42 2.397-2.844 3.363-3.506a2 2 0 0 0-1.873-3.507c-2.053.82-3.003.716-3.237.658.7-4.44-.346-7.457-1.378-8.942l-.067-.091c-2.033-2.6-.766-3.732-1.191-3.325a2 2 0 0 0 .136-.144c.168-.197.22-.216.438-.248Z"/><path d="M33 5c-1.908 0-3.364 1.086-4.627 2.38-1.262 1.296-2.376 2.949-3.34 4.753-1.927 3.607-3.321 7.669-2.992 11.06a2 2 0 0 0 2.184 1.797 2 2 0 0 0 1.798-2.183c-.169-1.745.877-5.683 2.538-8.791.83-1.555 1.795-2.94 2.675-3.842S32.865 9 33 9a2 2 0 0 0 2-2 2 2 0 0 0-2-2Z"/><path d="M15 5a2 2 0 0 0-2 2 2 2 0 0 0 2 2c.135 0 .884.271 1.764 1.174s1.845 2.287 2.675 3.842c1.66 3.108 2.707 7.046 2.538 8.79a2 2 0 0 0 1.798 2.184 2 2 0 0 0 2.184-1.797c.329-3.391-1.065-7.453-2.992-11.06-.964-1.804-2.078-3.457-3.34-4.752S16.907 5 15 5Z"/></svg>