<svg xmlns="http://www.w3.org/2000/svg" width="48" height="48" viewBox="0 0 48 48"><path d="m5 7 5 2v28l-5 2z"/><path d="M5.742 5.143A2 2 0 0 0 3 7v32a2 2 0 0 0 2.742 1.857l5-2A2 2 0 0 0 12 37V9a2 2 0 0 0-1.258-1.857ZM7 9.953l1 .4v25.293l-1 .4zM16 23l5 2v12l-5 2z"/><path d="M16.742 21.143A2 2 0 0 0 14 23v16a2 2 0 0 0 2.742 1.857l5-2A2 2 0 0 0 23 37V25a2 2 0 0 0-1.258-1.857ZM18 25.953l1 .4v9.293l-1 .4zM27 21l5-2v16l-5-2z"/><path d="m31.258 17.143-5 2A2 2 0 0 0 25 21v12a2 2 0 0 0 1.258 1.857l5 2A2 2 0 0 0 34 35V19a2 2 0 0 0-2.742-1.857ZM30 21.955v10.092l-1-.4v-9.293zM38 9l5 2v26l-5 2z"/><path d="M38.742 7.143A2 2 0 0 0 36 9v30a2 2 0 0 0 2.742 1.857l5-2A2 2 0 0 0 45 37V11a2 2 0 0 0-1.258-1.857ZM40 11.953l1 .4v23.293l-1 .4z"/></svg>