<svg xmlns="http://www.w3.org/2000/svg" width="48" height="48" viewBox="0 0 48 48"><path d="M24 2c-3.674 0-6.718 2.888-6.979 6.5-7.368 2.46-12.845 8.722-13.017 16.26a2.2 2.2 0 0 0 .15.851l-.052.018 5.17 15.627A4.02 4.02 0 0 0 13.07 44h21.86a4.02 4.02 0 0 0 3.799-2.744l5.17-15.627-.053-.018c.102-.267.158-.555.15-.855-.188-7.445-5.878-13.626-13.014-16.213C30.743 4.911 27.688 2 24 2zm0 4c1.328 0 2.428.825 2.832 2h-5.664A2.96 2.96 0 0 1 24 6zm-4.654 6h9.277c5.62 1.685 9.98 6.12 10.973 11.123h-3.002c-2.8 0-5.508 1.017-7.615 2.861a7.536 7.536 0 0 1-9.958 0 11.57 11.57 0 0 0-7.615-2.861H8.373c.918-5.192 5.093-9.56 10.973-11.123zM8.809 27.123h2.597c1.832 0 3.602.664 4.98 1.871 4.348 3.805 10.88 3.805 15.227 0a7.56 7.56 0 0 1 4.98-1.871h2.598L34.93 40H13.07z"/></svg>