<svg xmlns="http://www.w3.org/2000/svg" width="48" height="48" viewBox="0 0 48 48"><path d="M16 2a2 2 0 0 0-2 2v1H7C4.815 5 3 6.815 3 9v31c0 2.185 1.815 4 4 4h34c2.185 0 4-1.815 4-4V9c0-2.185-1.815-4-4-4h-7V4a2 2 0 0 0-2-2 2 2 0 0 0-2 2v1H18V4a2 2 0 0 0-2-2zM7 9h7v3a2 2 0 0 0 2 2 2 2 0 0 0 2-2V9h12v3a2 2 0 0 0 2 2 2 2 0 0 0 2-2V9h7v8H7zm0 12h34v19H7zm7 3a2 2 0 0 0-2 2 2 2 0 0 0 2 2h6a2 2 0 0 0 2-2 2 2 0 0 0-2-2zm14 0a2 2 0 0 0-2 2 2 2 0 0 0 2 2h6a2 2 0 0 0 2-2 2 2 0 0 0-2-2zm-14 8a2 2 0 0 0-2 2 2 2 0 0 0 2 2h6a2 2 0 0 0 2-2 2 2 0 0 0-2-2zm14 0a2 2 0 0 0-2 2 2 2 0 0 0 2 2h6a2 2 0 0 0 2-2 2 2 0 0 0-2-2z"/></svg>