<svg xmlns="http://www.w3.org/2000/svg" width="48" height="48" viewBox="0 0 48 48"><path d="M24 3C15.187 3 8 10.187 8 19c0 5.206 2.509 9.845 6.379 12.77L9.21 42.105A2 2 0 0 0 11 45h26a2 2 0 0 0 1.79-2.895L33.62 31.77C37.491 28.845 40 24.206 40 19c0-8.813-7.187-16-16-16zm0 4c6.651 0 12 5.349 12 12 0 4.235-2.172 7.94-5.465 10.074a2 2 0 0 0-.43.137 2 2 0 0 0-.57.445A12 12 0 0 1 24 31c-1.99 0-3.861-.481-5.51-1.33a2 2 0 0 0-.595-.46 2 2 0 0 0-.467-.16A11.97 11.97 0 0 1 12 19c0-6.651 5.349-12 12-12zm0 4c-4.395 0-8 3.605-8 8s3.605 8 8 8 8-3.605 8-8-3.605-8-8-8zm0 4c2.233 0 4 1.767 4 4s-1.767 4-4 4a3.97 3.97 0 0 1-4-4c0-2.233 1.767-4 4-4zm-6.148 18.768A15.9 15.9 0 0 0 24 35c2.177 0 4.254-.44 6.148-1.232L33.764 41H14.236z"/></svg>