<svg xmlns="http://www.w3.org/2000/svg" width="48" height="48" viewBox="0 0 48 48"><path d="M24 5A16 16 0 0 0 8 21a16 16 0 0 0 16 16 16 16 0 0 0 16-16A16 16 0 0 0 24 5zm0 7c4.947 0 9 4.053 9 9s-4.053 9-9 9-9-4.053-9-9 4.053-9 9-9zm0 4a4.97 4.97 0 0 0-5 5c0 2.785 2.215 5 5 5s5-2.215 5-5-2.215-5-5-5z"/><path d="M24 3C14.083 3 6 11.083 6 21s8.083 18 18 18 18-8.083 18-18S33.917 3 24 3Zm0 4c7.756 0 14 6.244 14 14s-6.244 14-14 14-14-6.244-14-14S16.244 7 24 7Z"/><path d="M24 16a4.97 4.97 0 0 0-5 5c0 2.785 2.215 5 5 5s5-2.215 5-5-2.215-5-5-5zm-8 25a2 2 0 0 0-2 2 2 2 0 0 0 2 2h16a2 2 0 0 0 2-2 2 2 0 0 0-2-2z"/><path d="M24 35a2 2 0 0 0-2 2v6a2 2 0 0 0 2 2 2 2 0 0 0 2-2v-6a2 2 0 0 0-2-2z"/></svg>