<svg xmlns="http://www.w3.org/2000/svg" width="48" height="48" viewBox="0 0 48 48"><path d="M22 3C10.933 3 4.4 11.8 4.4 11.8a2 2 0 0 0 .4 2.8 2 2 0 0 0 2.8-.4S13.067 7 22 7c4.898 0 8.7 1.534 11.2 2.969l-.003.002C30.704 11.33 29 13.979 29 17c0 4.395 3.605 8 8 8s8-3.605 8-8c0-3.675-2.522-6.797-5.918-7.72C37.626 7.986 31.402 3 22 3zm15 10c2.233 0 4 1.767 4 4s-1.767 4-4 4a3.97 3.97 0 0 1-4-4c0-2.233 1.767-4 4-4zM11 23c-4.395 0-8 3.605-8 8 0 3.675 2.522 6.797 5.918 7.72C10.374 40.014 16.598 45 26 45c11.067 0 17.6-8.8 17.6-8.8a2 2 0 0 0-.4-2.8 2 2 0 0 0-1.483-.38 2 2 0 0 0-1.317.78S34.933 41 26 41a22.4 22.4 0 0 1-11.2-2.969C17.296 36.671 19 34.022 19 31c0-4.395-3.605-8-8-8zm0 4c2.233 0 4 1.767 4 4s-1.767 4-4 4a3.97 3.97 0 0 1-4-4c0-2.233 1.767-4 4-4z"/></svg>