<svg xmlns="http://www.w3.org/2000/svg" width="48" height="48" viewBox="0 0 48 48"><path d="M12 3c-4.395 0-8 3.605-8 8a2 2 0 0 0 2 2 2 2 0 0 0 2-2c0-2.233 1.767-4 4-4s4 1.767 4 4v18a2 2 0 0 0 2 2 2 2 0 0 0 2-2V11c0-2.233 1.767-4 4-4s4 1.767 4 4v24.75s-.024 1.34-.752 2.658C26.52 39.727 25.396 41 22 41a2 2 0 0 0-2 2 2 2 0 0 0 2 2c4.604 0 7.48-2.352 8.752-4.658a10.3 10.3 0 0 0 1.15-3.483A7.93 7.93 0 0 0 36 38c4.395 0 8-3.605 8-8s-3.605-8-8-8c-1.454 0-2.82.397-4 1.084V11c0-4.395-3.605-8-8-8a8 8 0 0 0-6 2.73A8 8 0 0 0 12 3zm24 23c2.233 0 4 1.767 4 4s-1.767 4-4 4a3.97 3.97 0 0 1-4-4c0-2.233 1.767-4 4-4z"/></svg>