<svg xmlns="http://www.w3.org/2000/svg" width="48" height="48" viewBox="0 0 48 48"><path d="M24 2a2 2 0 0 0-2 2v3.248l-2.469-2.941a2 2 0 0 0-1.357-.707 2 2 0 0 0-1.46.46 2 2 0 0 0-.245 2.817l2.174 2.592c-3.868 2.293-6.125 6.956-4.961 11.691l1.464-.36A2 2 0 0 0 16 21h1.611l.623 11.158A2 2 0 0 0 17 34a2 2 0 0 0 1.445 1.914l.334 5.992A5.394 5.394 0 0 0 24 46c2.465 0 4.633-1.7 5.22-4.094l5.098-20.746c1.157-4.708-1.068-9.343-4.894-11.65l2.209-2.633a2 2 0 0 0-.246-2.816 2 2 0 0 0-2.817.246L26 7.369V4a2 2 0 0 0-2-2zm0 10a6.58 6.58 0 0 1 6.434 8.205L29.502 24H25a2 2 0 0 0-2 2 2 2 0 0 0 2 2h3.518l-3.182 12.953A1.36 1.36 0 0 1 24 42a1.36 1.36 0 0 1-1.336-1.047L21.447 36H23a2 2 0 0 0 2-2 2 2 0 0 0-2-2h-2.535l-2.703-11H22a2 2 0 0 0 2-2 2 2 0 0 0-2-2h-4.436c.698-2.83 3.23-5 6.436-5z"/></svg>