<svg xmlns="http://www.w3.org/2000/svg" width="48" height="48" viewBox="0 0 48 48"><path d="M7.99 4.498a4 4 0 0 0-1.619.336C5.045 5.425 4 6.834 4 8.488V26c0 1.014.098 2.006.275 2.97l-.441.038a2 2 0 0 0-1.826 2.158 2 2 0 0 0 2.158 1.826l1.35-.113a17.8 17.8 0 0 0 3.398 4.928L6.105 39.21a2 2 0 0 0-.894 2.684 2 2 0 0 0 2.684.894l4.404-2.203C15.607 42.737 19.659 44 24 44c4.34 0 8.393-1.263 11.701-3.414l4.404 2.203a2 2 0 0 0 2.684-.894 2 2 0 0 0-.894-2.684l-2.81-1.404a17.8 17.8 0 0 0 3.4-4.928l1.349.113a2 2 0 0 0 2.158-1.826 2 2 0 0 0-1.826-2.158l-.441-.037A16.4 16.4 0 0 0 44 26V8.488c0-1.655-1.045-3.063-2.371-3.654a4.04 4.04 0 0 0-2.188-.297c-.756.105-1.5.423-2.115.977l-4.715 4.238A21.8 21.8 0 0 0 24 8a21.8 21.8 0 0 0-8.611 1.752l-4.715-4.238a3.97 3.97 0 0 0-2.115-.977 4 4 0 0 0-.569-.039zM8 8.488l5.574 5.014a2 2 0 0 0 2.34.418C18.278 12.705 21.038 12 24 12s5.722.705 8.086 1.92a2 2 0 0 0 2.34-.418L40 8.488V26c0 .9-.1 1.78-.287 2.637l-7.547-.63a2 2 0 0 0-2.158 1.827 2 2 0 0 0 1.826 2.158l6.324.528a14.4 14.4 0 0 1-2.857 3.394l-5.406-2.703a2 2 0 0 0-1.528-.107 2 2 0 0 0-1.156 1.001 2 2 0 0 0 .894 2.684l3.276 1.639C29.184 39.428 26.68 40 24 40s-5.184-.572-7.38-1.572l3.275-1.639a2 2 0 0 0 .894-2.684 2 2 0 0 0-1.156-1.001 2 2 0 0 0-1.528.107L12.7 35.914a14.4 14.4 0 0 1-2.857-3.394l6.324-.528a2 2 0 0 0 1.826-2.158 2 2 0 0 0-2.158-1.826l-7.547.629A12.3 12.3 0 0 1 8 26zM18 20a2 2 0 0 0-2 2 2 2 0 0 0 2 2 2 2 0 0 0 2-2 2 2 0 0 0-2-2zm12 0a2 2 0 0 0-2 2 2 2 0 0 0 2 2 2 2 0 0 0 2-2 2 2 0 0 0-2-2zm-6 6a2 2 0 0 0-2 2 2 2 0 0 0 2 2 2 2 0 0 0 2-2 2 2 0 0 0-2-2z"/></svg>