<svg xmlns="http://www.w3.org/2000/svg" width="48" height="48" viewBox="0 0 48 48"><path d="m29.717 2.02-14 2a2 2 0 0 0-.15.027C10.752 5.117 7.501 7.09 5.536 9.66S3 15.233 3 18v26a2 2 0 0 0 2 2 2 2 0 0 0 2-2V18c0-2.233.427-4.23 1.713-5.91 1.264-1.653 3.476-3.152 7.531-4.086 2.518.037 4.038.645 5.037 1.728C22.313 10.85 23 12.786 23 16a2 2 0 0 0 2 2 2 2 0 0 0 2-2c0-3.786-.813-6.85-2.781-8.982q-.074-.076-.149-.15l6.213-.888a2 2 0 0 0 1.697-2.263 2 2 0 0 0-2.263-1.697zM19 18a2 2 0 0 0-1.414.586 2 2 0 0 0 0 2.828C18.615 22.443 21.652 27 28 27c1.268 0 3.534.362 5.205 1.305C34.875 29.248 36 30.45 36 33v11a2 2 0 0 0 2 2 2 2 0 0 0 2-2v-8.172l2.586 2.586a2 2 0 0 0 2.828 0 2 2 0 0 0 0-2.828l-6-6-.07-.057c-.86-2.148-2.46-3.741-4.174-4.709C32.632 23.388 29.9 23 28 23c-4.652 0-5.615-2.443-7.586-4.414A2 2 0 0 0 19 18zm3 16c-5.5 0-10 4.5-10 10a2 2 0 0 0 2 2 2 2 0 0 0 2-2c0-3.337 2.663-6 6-6s6 2.663 6 6a2 2 0 0 0 2 2 2 2 0 0 0 2-2c0-5.5-4.5-10-10-10z"/></svg>