<svg xmlns="http://www.w3.org/2000/svg" width="48" height="48" viewBox="0 0 48 48"><path d="M7.46 2c-1.288-.004-2.727.447-3.778 1.498-.878.878-1.465 1.913-1.631 3.004s.116 2.148.59 2.959c.946 1.622 2.44 2.51 3.97 2.893 1.517.379 2.694 1.33 3.389 2.12a14.5 14.5 0 0 0-.523 5.659l1.486 14.13.01.083.039.363h.008C11.92 41.143 17.46 46 24 46c6.542 0 12.08-4.858 12.979-11.293l.01.002.046-.445.953-9.055.535-5.076a14.5 14.5 0 0 0-.498-5.578c.684-.805 1.891-1.81 3.46-2.201 1.53-.383 3.023-1.271 3.97-2.893.473-.811.758-1.868.592-2.959s-.755-2.126-1.633-3.004C43.363 2.447 41.925 1.996 40.637 2s-2.484.366-3.598.85c-2.129.923-3.984 2.322-5.22 3.437A14.46 14.46 0 0 0 24 4a14.46 14.46 0 0 0-7.762 2.252c-1.236-1.11-3.073-2.488-5.18-3.402C9.946 2.366 8.75 2.004 7.462 2zm-.013 4c.492.002 1.228.177 2.018.52 1.29.56 2.694 1.537 3.678 2.347a15 15 0 0 0-1.352 1.752 10.5 10.5 0 0 0-4.209-2.146c-.47-.118-1.281-.676-1.486-1.028-.103-.175-.108-.237-.092-.343s.08-.35.506-.776c.252-.253.445-.328.937-.326zm33.201 0c.493-.002.685.073.938.326.426.426.49.67.506.776s.01.168-.092.343c-.205.352-1.014.91-1.484 1.028a10.5 10.5 0 0 0-4.274 2.2 15 15 0 0 0-1.344-1.759c.985-.82 2.419-1.824 3.733-2.394.79-.343 1.525-.518 2.017-.52zM24 8c6.328 0 11.207 5.42 10.545 11.713l-.897 8.512c-2.966-2.052-5.947-3.004-8.7-3.186a15 15 0 0 0-3.14.121c-3.015.437-5.546 1.675-7.462 3.02l-.89-8.467A10.566 10.566 0 0 1 24 8zm-5 8a2 2 0 0 0-2 2 2 2 0 0 0 2 2 2 2 0 0 0 2-2 2 2 0 0 0-2-2zm10 0a2 2 0 0 0-2 2 2 2 0 0 0 2 2 2 2 0 0 0 2-2 2 2 0 0 0-2-2zm-4.893 12.994c2.564.004 5.432.881 8.61 3.54a2 2 0 0 0 .449.269l-.11 1.043A9.08 9.08 0 0 1 24 42a9.084 9.084 0 0 1-9.059-8.154l-.109-1.032a2 2 0 0 0 .502-.324c1.504-1.346 4.065-2.94 7.047-3.37a12 12 0 0 1 1.726-.126zM21 32a2 2 0 0 0-2 2 2 2 0 0 0 2 2 2 2 0 0 0 2-2 2 2 0 0 0-2-2zm6 0a2 2 0 0 0-2 2 2 2 0 0 0 2 2 2 2 0 0 0 2-2 2 2 0 0 0-2-2z"/></svg>