<svg xmlns="http://www.w3.org/2000/svg" width="48" height="48" viewBox="0 0 48 48"><path d="M6 4C3.815 4 2 5.815 2 8v26c0 2.185 1.815 4 4 4h20a2 2 0 0 0 2-2 2 2 0 0 0-2-2H6V8h36v26h-8a2 2 0 0 0-2 2 2 2 0 0 0 2 2h8c2.185 0 4-1.815 4-4V8c0-2.185-1.815-4-4-4Z"/><path d="M12 12a2 2 0 0 0-2 2 2 2 0 0 0 2 2h24a2 2 0 0 0 2-2 2 2 0 0 0-2-2zm0 7a2 2 0 0 0-2 2 2 2 0 0 0 2 2h6a2 2 0 0 0 2-2 2 2 0 0 0-2-2zm0 7a2 2 0 0 0-2 2 2 2 0 0 0 2 2h4a2 2 0 0 0 2-2 2 2 0 0 0-2-2zm18 7a6 6 0 1 0 0-12 6 6 0 0 0 0 12z"/><path d="M30 19c-4.395 0-8 3.605-8 8s3.605 8 8 8 8-3.605 8-8-3.605-8-8-8zm0 4c2.233 0 4 1.767 4 4s-1.767 4-4 4a3.97 3.97 0 0 1-4-4c0-2.233 1.767-4 4-4z"/><path d="m30 40 4 2V31.472S32.86 33 30 33s-4-1.5-4-1.5V42Z"/><path d="M34.63 29.574a2 2 0 0 0-2.234.701s.017.027-.345.243c-.363.215-.978.482-2.051.482-1.08 0-1.7-.264-2.064-.477s-.344-.234-.344-.234A2 2 0 0 0 24 31.5V42a2 2 0 0 0 2.895 1.79L30 42.235l3.105 1.553A2 2 0 0 0 36 42V31.473a2 2 0 0 0-1.37-1.899ZM32 34.732v4.032l-1.105-.553a2 2 0 0 0-1.79 0L28 38.764v-4.028c.606.141 1.246.264 2 .264.753 0 1.394-.124 2-.268z"/></svg>