<svg xmlns="http://www.w3.org/2000/svg" width="48" height="48" viewBox="0 0 48 48"><path d="M24 4C12.978 4 4 12.978 4 24s8.978 20 20 20a2 2 0 0 0 2-2 2 2 0 0 0-2-2c-8.86 0-16-7.14-16-16S15.14 8 24 8a2 2 0 0 0 2-2 2 2 0 0 0-2-2Z"/><path d="M24 42c9.941 0 18-8.059 18-18S33.941 6 24 6c0 0-4 2-4 9s8 11 8 18-4 9-4 9z"/><path d="m23.527 4-.422.21s-1.485.788-2.722 2.49C19.145 8.4 18 11.12 18 15c0 4.262 2.383 7.426 4.383 10.176S26 30.262 26 33c0 3.119-.855 4.9-1.617 5.95-.763 1.048-1.278 1.26-1.278 1.26L24 44c11.022 0 20-8.978 20-20S35.022 4 24 4Zm1.092 4.063C33.184 8.393 40 15.353 40 24c0 7.233-4.79 13.248-11.357 15.24C29.388 37.62 30 35.68 30 33c0-4.262-2.383-7.426-4.383-10.176S22 17.738 22 15c0-3.119.855-4.9 1.617-5.95.598-.821.838-.892 1.002-.988Z"/><path d="M42 18a2 2 0 0 0-2 2 2 2 0 0 0 2 2v4a2 2 0 0 0-2 2 2 2 0 0 0 2 2h2a2 2 0 0 0 2-2v-8a2 2 0 0 0-2-2zM4 18a2 2 0 0 0-2 2v8a2 2 0 0 0 2 2h2a2 2 0 0 0 2-2 2 2 0 0 0-2-2v-4a2 2 0 0 0 2-2 2 2 0 0 0-2-2Z"/></svg>