<svg xmlns="http://www.w3.org/2000/svg" width="48" height="48" viewBox="0 0 48 48"><path d="M20 2c-2.185 0-4 1.815-4 4v4h-6a2 2 0 0 0-2 2 2 2 0 0 0 2 2h2v4.834c0 1.735.683 3.38 1.898 4.494.888.814 2.014 1.327 3.247 1.547L10.13 43.287a2 2 0 0 0 1.156 2.582 2 2 0 0 0 2.582-1.156L15.664 40h16.672l1.795 4.713a2 2 0 0 0 2.582 1.156 2 2 0 0 0 1.156-2.582l-7.014-18.412c1.233-.22 2.359-.733 3.247-1.547C35.317 22.214 36 20.568 36 18.834V14h2a2 2 0 0 0 2-2 2 2 0 0 0-2-2h-6V6c0-2.185-1.815-4-4-4zm0 4h8v6a2 2 0 0 0 .088.549 2 2 0 0 0 .049.146 2 2 0 0 0 .209.409l.06.095a2 2 0 0 0 .395.395l.095.06a2 2 0 0 0 .409.21 2 2 0 0 0 .146.048A2 2 0 0 0 30 14h2v4.834c0 .765-.226 1.2-.602 1.545-.375.344-.987.621-1.943.621h-10.91c-.956 0-1.568-.277-1.943-.621-.376-.345-.602-.78-.602-1.545V14h2a2 2 0 0 0 .549-.088 2 2 0 0 0 .146-.049 2 2 0 0 0 .409-.209l.095-.06a2 2 0 0 0 .395-.395l.06-.095a2 2 0 0 0 .21-.409 2 2 0 0 0 .048-.146A2 2 0 0 0 20 12zm1.379 19h5.242l1.524 4h-8.29zm-3.047 8h11.336l1.143 3H17.189z"/></svg>