<svg xmlns="http://www.w3.org/2000/svg" width="48" height="48" viewBox="0 0 48 48"><path d="M27.307 2.246a2 2 0 0 0-2.276 1.68 2 2 0 0 0 1.68 2.277c7.773 1.173 13.916 7.315 15.088 15.088a2 2 0 0 0 2.275 1.68 2 2 0 0 0 1.68-2.276C44.32 11.192 36.81 3.68 27.307 2.246Zm-6.631.004C10.102 3.854 2 13.002 2 24c0 11.002 8.109 20.153 18.688 21.752a22.2 22.2 0 0 0 6.613.002c9.507-1.432 17.022-8.95 18.453-18.457a2 2 0 0 0-1.68-2.274 2 2 0 0 0-2.275 1.68C40.629 34.48 34.48 40.628 26.705 41.8a18.2 18.2 0 0 1-5.42-.002C12.633 40.489 6 33.04 6 24c0-9.037 6.628-16.483 15.275-17.795a2 2 0 0 0 1.678-2.277 2 2 0 0 0-2.277-1.678Z"/><path d="M24 16a8 8 0 1 0 0 16 8 8 0 0 0 0-16z"/><path d="M24 14c-5.5 0-10 4.5-10 10s4.5 10 10 10 10-4.5 10-10-4.5-10-10-10zm0 4c3.337 0 6 2.663 6 6s-2.663 6-6 6a5.97 5.97 0 0 1-6-6c0-3.337 2.663-6 6-6z"/></svg>