<svg xmlns="http://www.w3.org/2000/svg" width="48" height="48" viewBox="0 0 48 48"><g clip-path="url(#a)"><path d="M9 4C6.262 4 4 6.262 4 9v30c0 2.738 2.262 5 5 5h30c2.738 0 5-2.262 5-5V20a2 2 0 0 0-2-2 2 2 0 0 0-2 2v19c0 .576-.424 1-1 1H9c-.576 0-1-.424-1-1V9c0-.576.424-1 1-1h21a2 2 0 0 0 2-2 2 2 0 0 0-2-2zm31.984 1a2 2 0 0 0-1.611.838L25.602 25.119l-8.352-6.681a2 2 0 0 0-2.812.312 2 2 0 0 0 .312 2.813l10 8a2 2 0 0 0 2.877-.4l15-21a2 2 0 0 0-.465-2.79A2 2 0 0 0 40.984 5z"/></g><defs><clipPath id="a"><path d="M0 0h48v48H0z"/></clipPath></defs></svg>