<svg xmlns="http://www.w3.org/2000/svg" width="48" height="48" viewBox="0 0 48 48"><path d="M23.957 3.799c-1.528.014-3.008.9-3.658 2.387v.002l-5.86 13.39c-3.998 1.728-8.27 4.05-10.976 7.299a2 2 0 0 0 .258 2.816 2 2 0 0 0 2.816-.257c2.213-2.658 7.005-5.22 11.207-6.905 2.85-1.143 3.91-1.37 5.256-1.758v4.032c-1.716-.053-3.933.186-6.238 1.67-1.173.754-2.156 1.86-2.176 3.71-.01.926.456 2.02 1.266 2.694s1.81 1.004 3.007 1.166c2.58.349 5.452-.35 8.141-.96 1.345-.303 2.618-.605 3.648-.796.572-.106.725-.087 1.084-.113-.09.247-.139.44-.244.656a49 49 0 0 1-6.857 2.225c-2.432.591-5.471.826-8.588 1.277-1.297.188-2.175.943-2.84 1.582s-1.223 1.27-1.91 1.848C9.92 40.917 8.106 42 4 42a2 2 0 0 0-2 2 2 2 0 0 0 2 2c4.894 0 7.964-1.576 9.865-3.174.951-.799 1.63-1.565 2.11-2.027s.659-.51.642-.508c2.406-.348 4.94-.56 7.383-1.016V41a2 2 0 0 0 2 2h16a2 2 0 0 0 2-2V12a2 2 0 0 0-2-2h-5.496L25.859 4.268a3.9 3.9 0 0 0-1.902-.47zm.006 3.99L28.066 10H26a2 2 0 0 0-2 2v4.2a71 71 0 0 0-4.305 1.345zM28 14h12v5h-8a2 2 0 0 0-2 2 2 2 0 0 0 2 2h8v16H28v-.709a53 53 0 0 0 5.127-1.799 3.7 3.7 0 0 0 1.865-1.691c.334-.641.83-1.605.977-2.871.073-.634.07-1.423-.39-2.24-.462-.818-1.436-1.41-2.34-1.555-1.146-.184-2.14.003-3.321.222-.612.114-1.257.251-1.918.399zm-5.354 14.793a9 9 0 0 1 1.354.066v.764c-1.912.361-3.672.583-4.605.457-.405-.055-.395-.091-.547-.152a.4.4 0 0 1 .078-.09c1.233-.794 2.631-1.019 3.72-1.045z"/></svg>