<svg xmlns="http://www.w3.org/2000/svg" width="48" height="48" viewBox="0 0 48 48"><path d="M23.64 2c-2.942 0-5.58 1.25-7.51 3.193-.495-.07-.976-.193-1.49-.193C8.789 5 4 9.788 4 15.64c0 4.553 2.951 8.318 7 9.829V40c0 2.185 1.815 4 4 4h18c2.185 0 4-1.815 4-4V25.469c4.049-1.51 7-5.276 7-9.828C44 9.788 39.212 5 33.36 5c-.722 0-1.386.206-2.07.344C29.35 3.314 26.656 2 23.64 2zm0 4a6.61 6.61 0 0 1 5.319 2.664 2 2 0 0 0 2.248.691A6.6 6.6 0 0 1 33.359 9 6.61 6.61 0 0 1 40 15.64a6.625 6.625 0 0 1-5.377 6.52A2 2 0 0 0 33 24.125V29H22v-4a2 2 0 0 0-2-2 2 2 0 0 0-2 2v4h-3v-4.875a2 2 0 0 0-1.623-1.965A6.625 6.625 0 0 1 8 15.64C8 11.95 10.95 9 14.64 9c.594 0 1.163.077 1.706.22a2 2 0 0 0 2.08-.693A6.61 6.61 0 0 1 23.64 6zM15 33h18v7H15z"/></svg>