<svg xmlns="http://www.w3.org/2000/svg" width="48" height="48" viewBox="0 0 48 48"><path d="M14 6c-1.75 0-2.974 1.057-4.057 2.367q-1.624 1.965-2.93 5.276C5.275 18.057 4 24.278 4 32a2 2 0 0 0 2 2 2 2 0 0 0 2-2c0-7.278 1.226-13.058 2.736-16.893.756-1.917 1.59-3.347 2.29-4.193.698-.846 1.224-.914.974-.914.083 0 .453.1.953.5s1.074 1.035 1.572 1.7a20.4 20.4 0 0 1 1.686 2.695A2 2 0 0 0 20 16h8a2 2 0 0 0 1.79-1.105s.688-1.366 1.685-2.696c.498-.664 1.072-1.299 1.572-1.699s.87-.5.953-.5c-.25 0 .276.068.975.914.698.846 1.533 2.276 2.289 4.193C38.774 18.942 40 24.722 40 32a2 2 0 0 0 2 2 2 2 0 0 0 2-2c0-7.722-1.274-13.943-3.014-18.357q-1.305-3.31-2.93-5.276C36.975 7.057 35.75 6 34 6c-1.417 0-2.547.65-3.453 1.375s-1.645 1.59-2.272 2.426c-.833 1.111-1.04 1.59-1.373 2.199h-5.804c-.334-.609-.54-1.088-1.373-2.2-.627-.835-1.366-1.7-2.272-2.425S15.417 6 14 6Z"/><path d="M6 32h36c1.108 0 2 .892 2 2v4c0 1.108-.892 2-2 2H6c-1.108 0-2-.892-2-2v-4c0-1.108.892-2 2-2z"/><path d="M6 30c-2.181 0-4 1.819-4 4v4c0 2.181 1.819 4 4 4h36c2.181 0 4-1.819 4-4v-4c0-2.181-1.819-4-4-4zm0 4h36v4H6Z"/></svg>