<svg xmlns="http://www.w3.org/2000/svg" width="48" height="48" viewBox="0 0 48 48"><path d="M24 2a7 7 0 0 0-2.945.648 7.02 7.02 0 0 0-4.018 5.67C9.983 11.1 5 17.982 5 26c0 1.581.196 3.12.563 4.594A7 7 0 0 0 3 36c0 3.842 3.158 7 7 7a7 7 0 0 0 3.682-1.047A18.94 18.94 0 0 0 24 45c3.8 0 7.353-1.124 10.328-3.053A6.93 6.93 0 0 0 38 43c1.976 0 3.785-.83 5.057-2.158A7 7 0 0 0 45 36a7 7 0 0 0-2.562-5.4c.366-1.475.562-3.017.562-4.6 0-8.017-4.983-14.898-12.035-17.68C30.618 4.793 27.613 2 24 2zm0 4c1.68 0 3 1.32 3 3 0 .816-.314 1.533-.832 2.074A2.97 2.97 0 0 1 24 12c-1.68 0-3-1.32-3-3 0-1.223.715-2.248 1.738-2.723A3 3 0 0 1 24 6zm-6.156 6.316C19.033 14.503 21.354 16 24 16c1.976 0 3.785-.83 5.057-2.158a7 7 0 0 0 1.103-1.522C35.367 14.668 39 19.895 39 26c0 1.042-.107 2.057-.309 3.035a7 7 0 0 0-3.637.613A7.01 7.01 0 0 0 31 36c0 1.036.23 2.022.64 2.91A14.9 14.9 0 0 1 24 41c-2.797 0-5.402-.762-7.637-2.088.407-.89.637-1.878.637-2.912 0-3.842-3.158-7-7-7-.233 0-.463.015-.691.037A15 15 0 0 1 9 26c0-6.107 3.635-11.337 8.844-13.684zM10 33c1.68 0 3 1.32 3 3 0 .816-.314 1.533-.832 2.074A2.97 2.97 0 0 1 10 39c-1.68 0-3-1.32-3-3 0-1.223.715-2.248 1.738-2.723A3 3 0 0 1 10 33zm28 0c1.68 0 3 1.32 3 3 0 .816-.314 1.533-.832 2.074A2.97 2.97 0 0 1 38 39c-1.68 0-3-1.32-3-3 0-1.223.715-2.248 1.738-2.723A3 3 0 0 1 38 33z"/></svg>