<svg xmlns="http://www.w3.org/2000/svg" width="48" height="48" viewBox="0 0 48 48"><path d="m14.736 37.799-2.472 3.144A18.95 18.95 0 0 0 24 45c4.42 0 8.507-1.517 11.736-4.057L33.264 37.8A14.9 14.9 0 0 1 24 41a14.9 14.9 0 0 1-9.264-3.201Zm3.676-29.963C10.64 10.224 5 17.47 5 26c0 2.146.358 4.217 1.018 6.146l3.785-1.292A15 15 0 0 1 9 26c0-6.768 4.463-12.46 10.588-14.342Zm11.176 0-1.176 3.822C34.537 13.54 39 19.232 39 26a15 15 0 0 1-.803 4.854l3.785 1.292c.66-1.93 1.018-4 1.018-6.146 0-8.53-5.64-15.776-13.412-18.164Z"/><path d="M43 36c0 1.342-.528 2.56-1.388 3.458A5 5 0 1 1 43 36z"/><path d="M38 29a7 7 0 0 0-2.945.648A7.01 7.01 0 0 0 31 36c0 3.842 3.158 7 7 7 1.976 0 3.785-.83 5.057-2.158A7 7 0 0 0 45 36c0-3.842-3.158-7-7-7Zm0 4c1.68 0 3 1.32 3 3 0 .816-.314 1.533-.832 2.074A2.97 2.97 0 0 1 38 39c-1.68 0-3-1.32-3-3 0-1.223.715-2.248 1.738-2.723A3 3 0 0 1 38 33Zm-23 3c0 1.342-.528 2.56-1.388 3.458A5 5 0 1 1 15 36z"/><path d="M10 29a7 7 0 0 0-2.945.648A7.01 7.01 0 0 0 3 36c0 3.842 3.158 7 7 7 1.976 0 3.785-.83 5.057-2.158A7 7 0 0 0 17 36c0-3.842-3.158-7-7-7Zm0 4c1.68 0 3 1.32 3 3 0 .816-.314 1.533-.832 2.074A2.97 2.97 0 0 1 10 39c-1.68 0-3-1.32-3-3 0-1.223.715-2.248 1.738-2.723A3 3 0 0 1 10 33ZM29 9c0 1.342-.528 2.56-1.388 3.458A5 5 0 1 1 29 9z"/><path d="M24 2a7 7 0 0 0-2.945.648A7.01 7.01 0 0 0 17 9c0 3.842 3.158 7 7 7 1.976 0 3.785-.83 5.057-2.158A7 7 0 0 0 31 9c0-3.842-3.158-7-7-7Zm0 4c1.68 0 3 1.32 3 3 0 .816-.314 1.533-.832 2.074A2.97 2.97 0 0 1 24 12c-1.68 0-3-1.32-3-3 0-1.223.715-2.248 1.738-2.723A3 3 0 0 1 24 6Z"/></svg>