<svg xmlns="http://www.w3.org/2000/svg" width="48" height="48" viewBox="0 0 48 48"><path d="M10 44c-2.181 0-4-1.819-4-4H4a2 2 0 0 0-2 2 2 2 0 0 0 2 2zm12 0a3.93 3.93 0 0 1-2-.553A3.93 3.93 0 0 1 18 44Zm20-4c0 2.181-1.819 4-4 4h6a2 2 0 0 0 2-2 2 2 0 0 0-2-2zM18 24h-8v8.008a2 2 0 0 1 2-2h4a2 2 0 0 1 2 2z"/><path d="M10 40V24h8v-2h-8c-1.108 0-2 .892-2 2v16z"/><path d="M18 40v-7.992a2 2 0 0 1-2 2h-4a2 2 0 0 1-2-2V40Zm0 0H8c0 1.108.892 2 2 2h8c.177 0 .345-.03.508-.072A3.93 3.93 0 0 1 18 40Z"/><path d="M6 40h2V24c0-1.108.892-2 2-2h8v-2h-8c-2.181 0-4 1.819-4 4zm12 4c.725 0 1.409-.204 2-.553a4.1 4.1 0 0 1-1.492-1.52A2 2 0 0 1 18 42h-8c-1.108 0-2-.892-2-2H6c0 2.181 1.819 4 4 4zm2-4V24c0-1.108-.892-2-2-2v18z"/><path d="M20 40h-2c0 .695.185 1.353.508 1.928A1.99 1.99 0 0 0 20 40Z"/><path d="M21.492 41.928A3.93 3.93 0 0 0 22 40h-2a1.99 1.99 0 0 0 1.492 1.928z"/><path d="M21.492 41.928A1.99 1.99 0 0 1 20 40a1.99 1.99 0 0 1-1.492 1.928A4.1 4.1 0 0 0 20 43.448a4.1 4.1 0 0 0 1.492-1.52zM38 40H22c0 .695-.185 1.353-.508 1.928.163.042.331.072.508.072h16c1.108 0 2-.892 2-2zM22 24v16h16V6H22Zm6-11.992h4a2 2 0 0 1 2 2 2 2 0 0 1-2 2h-4a2 2 0 0 1-2-2 2 2 0 0 1 2-2zm0 9h4a2 2 0 0 1 2 2 2 2 0 0 1-2 2h-4a2 2 0 0 1-2-2 2 2 0 0 1 2-2zm0 9h4a2 2 0 0 1 2 2 2 2 0 0 1-2 2h-4a2 2 0 0 1-2-2 2 2 0 0 1 2-2zm-8-9.455V40h2V24c0-1.456-.812-2.747-2-3.447z"/><path d="M20 20.553c1.188.7 2 1.99 2 3.447V6h16v34h2V6c0-1.108-.892-2-2-2H22c-1.108 0-2 .892-2 2zM18 20v2c1.108 0 2 .892 2 2v-3.447A3.93 3.93 0 0 0 18 20Zm24 20h-2c0 1.108-.892 2-2 2H22c-.177 0-.345-.03-.508-.072A4.1 4.1 0 0 1 20 43.448 3.93 3.93 0 0 0 22 44h16c2.181 0 4-1.819 4-4z"/><path d="M22 2c-2.181 0-4 1.819-4 4v14c.725 0 1.409.204 2 .553V6c0-1.108.892-2 2-2h16c1.108 0 2 .892 2 2v34h2V6c0-2.181-1.819-4-4-4Z"/></svg>