<svg xmlns="http://www.w3.org/2000/svg" width="48" height="48" viewBox="0 0 48 48"><path d="M22 2c-2.181 0-4 1.819-4 4v14h-8c-2.181 0-4 1.819-4 4v16H4a2 2 0 0 0-2 2 2 2 0 0 0 2 2h40a2 2 0 0 0 2-2 2 2 0 0 0-2-2h-2V6c0-2.181-1.819-4-4-4zm0 4h16v34H22zm6 6.008a2 2 0 0 0-2 2 2 2 0 0 0 2 2h4a2 2 0 0 0 2-2 2 2 0 0 0-2-2zm0 9a2 2 0 0 0-2 2 2 2 0 0 0 2 2h4a2 2 0 0 0 2-2 2 2 0 0 0-2-2zM10 24h8v16h-8zm0 8.008a2 2 0 0 0 2 2h4a2 2 0 0 0 2-2 2 2 0 0 0-2-2h-4a2 2 0 0 0-2 2zm18-2a2 2 0 0 0-2 2 2 2 0 0 0 2 2h4a2 2 0 0 0 2-2 2 2 0 0 0-2-2z"/></svg>