<svg xmlns="http://www.w3.org/2000/svg" width="48" height="48" viewBox="0 0 48 48"><path d="M24 2a2 2 0 0 0-2 2v8a2 2 0 0 0 2 2 2 2 0 0 0 2-2V4a2 2 0 0 0-2-2zM9.857 7.857a2 2 0 0 0-1.414.586 2 2 0 0 0 0 2.828l5.659 5.659a2 2 0 0 0 2.828 0 2 2 0 0 0 0-2.83l-5.66-5.657a2 2 0 0 0-1.414-.586zm28.286 0a2 2 0 0 0-1.414.586L31.07 14.1a2 2 0 0 0 0 2.83 2 2 0 0 0 2.83 0l5.657-5.659a2 2 0 0 0 0-2.828 2 2 0 0 0-1.414-.586zM21.74 20.017a2 2 0 0 0-1.7 2.376l4 20a2 2 0 0 0 3.624.716l2.647-3.97 4.275 4.275a2 2 0 0 0 2.828 0l6-6a2 2 0 0 0 0-2.828L39.14 30.31l3.97-2.647a2 2 0 0 0-.716-3.625l-20-4a2 2 0 0 0-.653-.021zM4 22a2 2 0 0 0-2 2 2 2 0 0 0 2 2h8a2 2 0 0 0 2-2 2 2 0 0 0-2-2zm20.549 2.549 12.324 2.465-1.982 1.322a2 2 0 0 0-.305 3.078L39.172 36 36 39.172l-4.586-4.586a2 2 0 0 0-3.078.305l-1.322 1.982zm-9.258 5.947a2 2 0 0 0-1.191.574l-5.657 5.66a2 2 0 0 0 0 2.828 2 2 0 0 0 2.828 0L16.93 33.9a2 2 0 0 0 0-2.83 2 2 0 0 0-1.639-.574z"/></svg>