<svg xmlns="http://www.w3.org/2000/svg" width="48" height="48" viewBox="0 0 48 48"><path d="M22.158 37s-.9-8.074-4.158-12c-3.044-3.669-12-6-12-6v-5h36v5s-8.956 2.332-12 6c-3.257 3.925-4.158 12-4.158 12z"/><path d="M6 12a2 2 0 0 0-2 2v5a2 2 0 0 0 1.496 1.936s2.13.555 4.623 1.546c2.494.992 5.302 2.543 6.342 3.795 1.256 1.514 2.303 4.312 2.9 6.684.598 2.372.809 4.262.809 4.262A2 2 0 0 0 22.158 39h3.684a2 2 0 0 0 1.988-1.777s.211-1.89.809-4.262c.597-2.372 1.644-5.17 2.9-6.684 1.04-1.252 3.848-2.803 6.342-3.795 2.494-.991 4.623-1.546 4.623-1.546A2 2 0 0 0 44 19v-5a2 2 0 0 0-2-2zm2 4h32v1.564c-.855.246-1.659.43-3.598 1.202-2.745 1.091-5.937 2.54-7.941 4.957-2.001 2.411-3.034 5.613-3.701 8.26-.42 1.665-.443 2.157-.57 3.017h-.38c-.127-.86-.15-1.352-.57-3.018-.667-2.646-1.7-5.848-3.7-8.26-2.005-2.415-5.197-3.865-7.942-4.956-1.94-.771-2.743-.956-3.598-1.202Z"/></svg>