<svg xmlns="http://www.w3.org/2000/svg" width="48" height="48" viewBox="0 0 48 48"><path d="M9 2a2 2 0 0 0-1.79 1.105l-3 6a2 2 0 0 0 .614 2.512l2.028 1.475-4.118 3.36A2 2 0 0 0 2 18v19a2 2 0 0 0 2 2h5v5a2 2 0 0 0 2 2h26a2 2 0 0 0 2-2v-5h5a2 2 0 0 0 2-2V18a2 2 0 0 0-.734-1.549l-4.118-3.36 2.028-1.474a2 2 0 0 0 .67-2.387l-2.5-6A2 2 0 0 0 39.5 2zm15 11.037 5.494 6.28a2 2 0 0 0 1.283.67 2 2 0 0 0 1.399-.37l5.629-4.094L42 18.95V35h-3V25a2 2 0 0 0-2-2 2 2 0 0 0-2 2v17H13V25a2 2 0 0 0-2-2 2 2 0 0 0-2 2v10H6V18.95l4.195-3.427 5.63 4.094a2 2 0 0 0 2.68-.3z"/></svg>