<svg xmlns="http://www.w3.org/2000/svg" width="48" height="48" viewBox="0 0 48 48"><path d="M6 9a2 2 0 0 0-2 2v8s-.001 2.191.54 4.893c.54 2.7 1.575 6.05 4.046 8.521 4.49 4.49 10.955 6.488 10.955 6.488a2 2 0 0 0 .295.047 2 2 0 0 0 .293.051l.016-.002.013.002h7.684l.013-.002.016.002a2 2 0 0 0 .572-.096l.016-.002.07-.023c.377-.12 6.533-2.113 10.885-6.465 2.471-2.471 3.507-5.82 4.047-8.521.503-2.516.535-4.515.537-4.788v-.009L44 19v-8a2 2 0 0 0-2-2zm2 4h32v4.703c-.837.387-2.008.953-3.316 1.666-2.466 1.344-5.344 3.09-7.223 5.354-2.012 2.424-2.82 5.473-3.232 7.916-.148.874-.239 1.68-.295 2.361h-3.868a28 28 0 0 0-.295-2.361c-.413-2.443-1.22-5.492-3.232-7.916-1.879-2.265-4.757-4.01-7.223-5.354A57 57 0 0 0 8 17.703zm.314 9.309c.35.18.711.366 1.088.572 2.274 1.24 4.894 2.992 6.059 4.396 1.245 1.501 2.016 3.954 2.367 6.03.035.204.062.4.09.593-1.936-.907-4.54-2.35-6.504-4.314-1.529-1.529-2.493-4.18-2.953-6.479q-.082-.411-.147-.798zm31.372 0q-.064.387-.147.798c-.46 2.3-1.424 4.95-2.953 6.479-1.964 1.963-4.568 3.407-6.504 4.314.028-.193.055-.389.09-.593.351-2.076 1.122-4.529 2.367-6.03 1.165-1.404 3.785-3.157 6.059-4.396.377-.206.738-.393 1.088-.572z"/></svg>