<svg xmlns="http://www.w3.org/2000/svg" width="48" height="48" viewBox="0 0 48 48"><path d="M18 8a2 2 0 0 0-.484.06s-1.602.4-3.58 1.126-4.365 1.733-6.217 3.277C4.349 15.27 2 19.11 2 23v14a2 2 0 0 0 2 2h5v5a2 2 0 0 0 2 2h26a2 2 0 0 0 2-2v-5h5a2 2 0 0 0 2-2V23c0-3.889-2.35-7.73-5.719-10.537-1.852-1.544-4.239-2.552-6.217-3.277s-3.58-1.125-3.58-1.125A2 2 0 0 0 30 8Zm.293 4h11.414c.155.04 1.314.329 2.979.94 1.772.65 3.885 1.641 5.033 2.597C40.349 17.73 42 20.89 42 23v12h-3V23a2 2 0 0 0-2-2 2 2 0 0 0-2 2v19H13V23a2 2 0 0 0-2-2 2 2 0 0 0-2 2v12H6V23c0-2.111 1.65-5.27 4.281-7.463 1.148-.956 3.261-1.948 5.033-2.598 1.665-.61 2.824-.9 2.979-.939Z"/><path d="M30 10H18V4h12z"/><path d="M18 2a2 2 0 0 0-2 2v6a2 2 0 0 0 2 2h12a2 2 0 0 0 2-2V4a2 2 0 0 0-2-2Zm2 4h8v2h-8z"/></svg>