<svg xmlns="http://www.w3.org/2000/svg" width="48" height="48" viewBox="0 0 48 48"><path d="M6 31v9h36v-9zm29.5 2a2.5 2.5 0 1 1 0 5 2.5 2.5 0 0 1 0-5Zm6.457-4-.416-2H6.463l-.42 2z"/><path d="m44 29-1.959.406-.084-.406H6.043l-.086.41L4 29v13h40ZM6 31h36v9H6Z"/><path d="M45.92 28.602 44 29v13H4V29l-1.92-.402A2 2 0 0 0 2 29v13a2 2 0 0 0 2 2h40a2 2 0 0 0 2-2V29a2 2 0 0 0-.08-.398z"/><path d="m6.043 29 .42-2H4a2 2 0 0 0-1.92 1.598L4 29Zm0 0H4l1.957.41zM44 29h-2.043l.084.406zm1.92-.398A2 2 0 0 0 44 27h-2.459l.416 2H44Z"/><path d="M9.04 2.998a2 2 0 0 0-1.96 1.59L2.043 28.59l.037.008A2 2 0 0 1 4 27h2.463l4.2-20.002h26.73L41.54 27H44a2 2 0 0 1 1.92 1.602l.039-.008-4.98-24.002a2 2 0 0 0-1.96-1.594z"/><path d="M20 25v-4h-.303c-1.045 0-1.853-.236-2.222-.48-.37-.244-.475-.324-.475-1.006 0-.759.788-1.489 2.006-1.489a2 2 0 0 1-2-2 8 8 0 0 1 .191-1.734c-2.32.68-4.197 2.631-4.197 5.223 0 1.805.94 3.466 2.27 4.343 1.328.878 2.87 1.143 4.427 1.143Zm10.797-10.775c.135.58.21 1.182.21 1.8a2 2 0 0 1-2 2c.74 0 1.31.196 1.575.397.266.201.418.338.418 1.092 0 .678-.104.757-.479 1.004-.374.246-1.189.482-2.234.482H28v4h.287c1.558 0 3.1-.265 4.432-1.14C34.05 22.983 35 21.322 35 19.513c0-1.76-.795-3.368-2.002-4.282a5.8 5.8 0 0 0-2.201-1.007Z"/><path d="M17.197 14.291a8 8 0 0 0-.191 1.734 2 2 0 0 0 2 2 2 2 0 0 0 2-2 2 2 0 0 0-2-2 6.4 6.4 0 0 0-1.809.266zm13.6-.066a8 8 0 0 0-1.79-.2 2 2 0 0 0-2 2 2 2 0 0 0 2 2 2 2 0 0 0 2-2 8 8 0 0 0-.21-1.8z"/><path d="M24 9c-1.951 0-3.773.68-5.05 1.967-.888.894-1.474 2.05-1.753 3.324a6.4 6.4 0 0 1 1.809-.266 2 2 0 0 1 2 2c0-1.083.32-1.772.783-2.24C22.253 13.318 22.928 13 24 13c1.061 0 1.742.322 2.215.8.473.48.793 1.177.793 2.225a2 2 0 0 1 2-2c.591 0 1.195.061 1.789.2-.288-1.236-.871-2.36-1.738-3.237C27.784 9.7 25.962 9 24 9Zm-3.023 16a2 2 0 0 0 2-2 2 2 0 0 0-2-2H20v4z"/><path d="M26.986 25a2 2 0 0 1-2-2 2 2 0 0 1 2-2h-6.01a2 2 0 0 1 2 2 2 2 0 0 1-2 2z"/><path d="M28 21h-1.014a2 2 0 0 0-2 2 2 2 0 0 0 2 2H28Z"/></svg>