<svg xmlns="http://www.w3.org/2000/svg" width="48" height="48" viewBox="0 0 48 48"><path d="M24 6c-3.842 0-7 3.158-7 7a2 2 0 0 0 2 2 2 2 0 0 0 2-2c0-1.68 1.32-3 3-3s3 1.32 3 3-1.32 3-3 3a2 2 0 0 0-2 2v4a2 2 0 0 0 2 2 2 2 0 0 0 2-2v-2.406c2.86-.88 5-3.46 5-6.594 0-3.842-3.158-7-7-7Z"/><path d="M44 36H4c0-5 6-14 20-14s20 9 20 14z"/><path d="M24 20c-7.429 0-12.95 2.42-16.574 5.627S2 32.7 2 36a2 2 0 0 0 2 2h40a2 2 0 0 0 2-2c0-3.3-1.801-7.167-5.426-10.373S31.43 20 24 20Zm0 4c6.571 0 11.05 2.08 13.926 4.623 2.023 1.79 2.976 3.708 3.506 5.377H6.568c.53-1.669 1.483-3.587 3.506-5.377C12.95 26.079 17.43 24 24 24Z"/></svg>