<svg xmlns="http://www.w3.org/2000/svg" width="48" height="48" viewBox="0 0 48 48"><g clip-path="url(#a)"><path d="M31.346 1.828q-.496.005-.987.045c-4.366.361-8.488 2.807-10.789 6.897a2 2 0 0 0 .764 2.724 2 2 0 0 0 2.723-.764A9.607 9.607 0 0 1 36.18 7.057a9.607 9.607 0 0 1 3.674 13.123 9.6 9.6 0 0 1-12.112 4.166L33.152 15h2.649a2 2 0 0 0 2-2 2 2 0 0 0-2-2H32a2 2 0 0 0-1.73.998l-1.32 2.281c-.362.163-1.75.721-3.95.721-.833 0-1.72-.465-2.97-1.215S19.166 12 17 12c-1.962 0-3.577.658-4.695 1.31l-.782-1.326A2 2 0 0 0 9.801 11H6a2 2 0 0 0-2 2 2 2 0 0 0 2 2h2.658L19 32.545V42h-3a2 2 0 0 0-2 2 2 2 0 0 0 2 2h10a2 2 0 0 0 2-2 2 2 0 0 0-2-2h-3v-9.463l2.727-4.71c6.379 2.955 14.11.542 17.613-5.686 3.68-6.543 1.343-14.89-5.2-18.57a13.53 13.53 0 0 0-6.794-1.743zM17 16c.833 0 1.72.465 2.97 1.215S22.834 19 25 19q.648-.002 1.246-.053l-5.262 9.088-6.648-11.28C14.972 16.387 15.895 16 17 16z"/></g><defs><clipPath id="a"><path d="M0 0h48v48H0z"/></clipPath></defs></svg>