<svg xmlns="http://www.w3.org/2000/svg" width="48" height="48" viewBox="0 0 48 48"><path d="M9.455 14.91h5.454V9.454a5.455 5.455 0 1 0-5.454 5.454Z"/><path d="M9.455 2C5.362 2 2 5.362 2 9.455s3.362 7.453 7.455 7.453h5.453a2 2 0 0 0 2-2V9.455C16.908 5.362 13.548 2 9.455 2Zm0 4a3.424 3.424 0 0 1 3.453 3.455v3.453H9.455A3.424 3.424 0 0 1 6 9.455 3.426 3.426 0 0 1 9.455 6Zm0 27.09h5.454v5.455a5.455 5.455 0 1 1-5.454-5.454Z"/><path d="M9.455 31.092C5.362 31.092 2 34.452 2 38.545S5.362 46 9.455 46s7.453-3.362 7.453-7.455v-5.453a2 2 0 0 0-2-2zm0 4h3.453v3.453A3.424 3.424 0 0 1 9.455 42 3.426 3.426 0 0 1 6 38.545a3.424 3.424 0 0 1 3.455-3.453Z"/><path d="M14.91 12.908a2 2 0 0 0-2 2v18.184a2 2 0 0 0 2 2h18.182a2 2 0 0 0 2-2V14.908a2 2 0 0 0-2-2zm2 4h14.182v14.184H16.91Z"/><path d="M38.545 14.91h-5.454V9.454a5.455 5.455 0 1 1 5.454 5.454z"/><path d="M38.545 2c-4.093 0-7.455 3.362-7.455 7.455v5.453a2 2 0 0 0 2 2h5.455c4.093 0 7.455-3.36 7.455-7.453S42.638 2 38.545 2Zm0 4A3.426 3.426 0 0 1 42 9.455a3.424 3.424 0 0 1-3.455 3.453H35.09V9.455A3.426 3.426 0 0 1 38.545 6Zm0 27.09a5.455 5.455 0 1 1-5.454 5.455v-5.454z"/><path d="M33.09 31.092a2 2 0 0 0-2 2v5.453c0 4.093 3.362 7.455 7.455 7.455S46 42.638 46 38.545s-3.362-7.453-7.455-7.453Zm2 4h3.455A3.424 3.424 0 0 1 42 38.545 3.426 3.426 0 0 1 38.545 42a3.426 3.426 0 0 1-3.455-3.455Z"/></svg>