<svg xmlns="http://www.w3.org/2000/svg" width="48" height="48" viewBox="0 0 48 48"><path d="M4 4a2 2 0 0 0-2 2v24a2 2 0 0 0 2 2h4.172l3.414 3.414a2 2 0 0 0 2.828 0L17.828 32H20v6a2 2 0 0 0 2 2h10.172l2.414 2.414a2 2 0 0 0 2.828 0L39.828 40H44a2 2 0 0 0 2-2V22a2 2 0 0 0-2-2h-6V6a2 2 0 0 0-2-2zm2 4h28v20H17a2 2 0 0 0-1.414.586L13 31.172l-2.586-2.586A2 2 0 0 0 9 28H6zm6 4a2 2 0 0 0-2 2 2 2 0 0 0 2 2h12a2 2 0 0 0 2-2 2 2 0 0 0-2-2zm0 8a2 2 0 0 0-2 2 2 2 0 0 0 2 2h6a2 2 0 0 0 2-2 2 2 0 0 0-2-2zm26 4h4v12h-3a2 2 0 0 0-1.414.586L36 38.172l-1.586-1.586A2 2 0 0 0 33 36h-9v-4h12a2 2 0 0 0 .697-.139 2 2 0 0 0 .201-.103 2 2 0 0 0 .41-.274 2 2 0 0 0 .176-.175 2 2 0 0 0 .274-.41 2 2 0 0 0 .103-.202A2 2 0 0 0 38 30z"/></svg>