<svg xmlns="http://www.w3.org/2000/svg" width="48" height="48" viewBox="0 0 48 48"><path d="M27.979 17.492a2 2 0 1 0 0 4 2 2 0 0 0 0-4zm-5.657 2.828a2.002 2.002 0 0 0-1.414 3.416 2 2 0 1 0 2.828-2.83 2 2 0 0 0-1.414-.586z"/><path d="M23.564 3.521a2 2 0 0 0-1.414 3.417l2.121 2.12L7.826 25.505q-.227.228-.437.467-.115.13-.223.263l-.064.084c-3.439 4.237-3.087 10.566.906 14.559 4.257 4.257 11.174 4.385 15.375.184L36.262 28.18l3.566-3.565 2.121 2.121a2 2 0 0 0 2.828-2.828l-3.525-3.525-.014-.016L28.514 7.645l-3.535-3.538a2 2 0 0 0-1.415-.586Zm3.536 8.366 9.9 9.898-2.973 2.973-20.334.535Zm2.818 16.98-9.363 9.363c-2.628 2.628-6.947 2.591-9.72-.181-2.423-2.424-2.755-6.029-1.044-8.653Z"/></svg>