<svg xmlns="http://www.w3.org/2000/svg" width="48" height="48" viewBox="0 0 48 48"><path d="M9.791 29.396c-1.71 2.624-1.379 6.229 1.045 8.653 2.772 2.772 7.091 2.809 9.719.181l9.363-9.363zM27.1 11.887 13.693 25.293l20.334-.535L37 21.785Zm.879 5.605a2 2 0 1 1 0 4 2 2 0 0 1 0-4zm-5.657 2.828a2.002 2.002 0 0 1 1.414 3.416 2 2 0 1 1-2.828-2.83c.39-.39.902-.586 1.414-.586z"/><path d="M7.389 25.97a2 2 0 0 1 1.293-.546l2.107-.055 14.897-14.896-1.415-1.414L7.826 25.504q-.227.228-.437.467zm32.439-1.355L38.414 23.2l-2.129 2.13a2 2 0 0 1 .592 1.355 2 2 0 0 1-1.945 2.05l-2.108.055L21.97 39.645c-3.414 3.414-9.032 3.333-12.547-.182-2.846-2.846-3.44-7.071-1.75-10.389a2 2 0 0 1-.938-1.597 2 2 0 0 1 .432-1.243c-3.51 4.237-3.178 10.624.842 14.643 4.257 4.257 11.174 4.385 15.375.184Z"/><path d="m34.027 24.758.8-.022a2 2 0 0 1 1.458.592l2.13-2.129L37 21.785ZM9.791 29.396l-1.004.028a2 2 0 0 1-1.115-.35c-1.69 3.318-1.096 7.543 1.75 10.389 3.515 3.515 9.133 3.596 12.547.182l10.855-10.856-2.906.078-9.363 9.363c-2.628 2.628-6.947 2.591-9.72-.181-2.423-2.424-2.755-6.029-1.044-8.653ZM27.1 11.887l-1.414-1.414-14.897 14.896 2.904-.076z"/><path d="m32.824 28.79 2.108-.056a2 2 0 0 0 1.945-2.05 2 2 0 0 0-.592-1.356zM7.166 26.234a2 2 0 0 0-.432 1.243 2 2 0 0 0 .938 1.597 8.5 8.5 0 0 1 1.568-2.156l1.55-1.549-2.108.055a2 2 0 0 0-1.293.547q-.115.13-.223.263z"/><path d="M7.166 26.234q.108-.133.223-.263a2 2 0 0 0-.223.263zm22.752 2.633 2.906-.078 3.461-3.46a2 2 0 0 0-1.459-.593l-.799.022zm-16.225-3.574-2.904.076-1.549 1.549a8.5 8.5 0 0 0-1.568 2.156 2 2 0 0 0 1.115.35l1.004-.028q.369-.567.863-1.064z"/><path d="m13.693 25.293-3.039 3.039q-.495.497-.863 1.064l20.127-.529 4.11-4.11zm27.559-4.91a2 2 0 0 1-.01 2.816l-1.414 1.416 2.121 2.121a2 2 0 0 0 2.828 0 2 2 0 0 0 0-2.828z"/><path d="m37 21.785 1.414 1.414v0l1.414 1.416 1.414-1.416a2 2 0 0 0 .01-2.816l-.014-.016a2 2 0 0 0-2.824.004zm-8.486-14.14a2 2 0 0 0-2.828 0L24.27 9.059l1.415 1.414v0l1.414 1.414 1.414-1.414a2 2 0 0 0 0-2.828z"/><path d="M28.514 7.645a2 2 0 0 1 0 2.828L27.1 11.887l9.9 9.898 1.414-1.414a2 2 0 0 1 2.824-.004zm-4.95-4.124a2 2 0 0 0-1.414.586 2 2 0 0 0 0 2.83l2.121 2.122 1.415-1.414a2 2 0 0 1 2.828 0l-3.535-3.538a2 2 0 0 0-1.415-.586Z"/></svg>