<svg xmlns="http://www.w3.org/2000/svg" width="48" height="48" viewBox="0 0 48 48"><path d="M24 2a2 2 0 0 0-2 2v2.35c-2.32.832-4 3.06-4 5.65a6 6 0 0 0 2.145 4.582L14.08 32.754a23 23 0 0 1-2.562-1.434 2 2 0 0 0-1.506-.275 2 2 0 0 0-1.262.867 2 2 0 0 0 .592 2.768 27 27 0 0 0 3.328 1.836l-2.543 6.78a2 2 0 0 0 1.17 2.577 2 2 0 0 0 2.576-1.17l2.545-6.785A27 27 0 0 0 24 39c2.63 0 5.174-.379 7.582-1.082l2.545 6.785a2 2 0 0 0 2.576 1.17 2 2 0 0 0 1.17-2.576l-2.543-6.783a27 27 0 0 0 3.326-1.834 2 2 0 0 0 .592-2.768 2 2 0 0 0-2.766-.592q-1.231.796-2.562 1.434l-6.065-16.172A6 6 0 0 0 30 12c0-2.59-1.68-4.818-4-5.65V4a2 2 0 0 0-2-2zm0 8c1.128 0 2 .872 2 2 0 .614-.259 1.15-.676 1.514a2 2 0 0 0-.715.113 2 2 0 0 0-.601.37 2 2 0 0 0-.617-.37 2 2 0 0 0-.715-.113A2 2 0 0 1 22 12c0-1.128.872-2 2-2zm-.113 7.998L24 18l.113-.002 6.06 16.162c-1.962.546-4.03.84-6.173.84s-4.21-.294-6.174-.84z"/></svg>