<svg xmlns="http://www.w3.org/2000/svg" width="48" height="48" viewBox="0 0 48 48"><path d="M9.443 8.443A21.96 21.96 0 0 0 3 24a21.96 21.96 0 0 0 6.443 15.557 2 2 0 0 0 2.828 0 2 2 0 0 0 0-2.828A17.92 17.92 0 0 1 7 24c0-4.982 2.012-9.469 5.271-12.729a2 2 0 0 0 0-2.828 2 2 0 0 0-2.828 0zm29.7-.586a2 2 0 0 0-1.414.586 2 2 0 0 0 0 2.828A17.92 17.92 0 0 1 43 24c0 4.982-2.012 9.469-5.271 12.729a2 2 0 0 0 0 2.828 2 2 0 0 0 2.828 0A21.96 21.96 0 0 0 47 24a21.96 21.96 0 0 0-6.443-15.557 2 2 0 0 0-1.414-.586Z"/><path d="M34.898 12.102a2 2 0 0 0-1.414.584 2 2 0 0 0 0 2.83A11.94 11.94 0 0 1 37 24a11.94 11.94 0 0 1-3.516 8.486 2 2 0 0 0 0 2.828 2 2 0 0 0 2.83 0A15.98 15.98 0 0 0 41 24c0-4.406-1.792-8.421-4.686-11.314a2 2 0 0 0-1.416-.584zm-19.798 0a2 2 0 0 0-1.414.584A15.98 15.98 0 0 0 9 24c0 4.406 1.792 8.421 4.686 11.314a2 2 0 0 0 2.83 0 2 2 0 0 0 0-2.828A11.94 11.94 0 0 1 13 24c0-3.326 1.342-6.31 3.516-8.484a2 2 0 0 0 0-2.83 2 2 0 0 0-1.416-.584zM28.182 20C30.29 20 32 21.612 32 23.6c0 2.588-2.545 4.8-3.818 6Q26.908 30.8 25 32q-1.909-1.2-3.182-2.4C20.545 28.4 18 26.188 18 23.6c0-1.988 1.71-3.6 3.818-3.6 1.328 0 2.498.64 3.182 1.61.684-.97 1.854-1.61 3.182-1.61Z"/><path d="M21.818 18.25c-3 0-5.568 2.358-5.568 5.35 0 3.735 3.161 6.136 4.367 7.273.955.9 2.104 1.763 3.451 2.61a1.75 1.75 0 0 0 1.864 0c1.347-.847 2.496-1.71 3.45-2.61 1.207-1.137 4.368-3.538 4.368-7.273 0-2.992-2.568-5.35-5.568-5.35-1.207 0-2.257.468-3.182 1.111-.925-.643-1.975-1.111-3.182-1.111Zm0 3.5c.767 0 1.401.37 1.752.867a1.75 1.75 0 0 0 2.86 0c.35-.498.985-.867 1.752-.867 1.217 0 2.068.865 2.068 1.85 0 1.44-1.93 3.463-3.27 4.726-.505.476-1.264.986-1.98 1.49-.716-.504-1.475-1.014-1.98-1.49-1.34-1.263-3.27-3.286-3.27-4.726 0-.985.851-1.85 2.068-1.85Z"/></svg>