<svg xmlns="http://www.w3.org/2000/svg" width="48" height="48" viewBox="0 0 48 48"><path d="M18 33v2h12v-2zm-5-11v2h22v-2zm24 4a2 2 0 0 1-2-2H13a2 2 0 0 1-2 2z"/><path d="M37 26H10v16h28V26Zm-21 3h16a2 2 0 0 1 2 2v6a2 2 0 0 1-2 2H16a2 2 0 0 1-2-2v-6a2 2 0 0 1 2-2z"/><path d="M39 24a2 2 0 0 1-2 2h1v16H10V26h1a2 2 0 0 1-2-2H8v20h32V24Z"/><path d="M39 22v2h1v20H8V24h1v-2H8a2 2 0 0 0-2 2v20a2 2 0 0 0 2 2h32a2 2 0 0 0 2-2V24a2 2 0 0 0-2-2z"/><path d="M9 24h4v-2H9Zm2 2a2 2 0 0 0 2-2H9a2 2 0 0 0 2 2zm28-2h-4a2 2 0 0 0 2 2 2 2 0 0 0 2-2zm0-2h-4v2h4zm-7.113-7c.072.565.113 1.141.113 1.732a2 2 0 0 1-2 2 2 2 0 0 1-2-2c0-.59-.058-1.168-.162-1.732h-7.354c-.506 1.315-1.165 2.436-2.015 3.357a2 2 0 0 1-2.826.112 2 2 0 0 1-.112-2.826A4 4 0 0 0 16.01 15H11a2 2 0 0 0-2 2v5h4v-3h22v3h4v-5a2 2 0 0 0-2-2z"/><path d="M20.484 15H16.01a4 4 0 0 1-.479.643 2 2 0 0 0 .112 2.826 2 2 0 0 0 2.826-.112c.85-.921 1.51-2.042 2.015-3.357Zm11.403 0h-4.05c.105.564.163 1.143.163 1.732a2 2 0 0 0 2 2 2 2 0 0 0 2-2q-.002-.885-.113-1.732ZM20 2a2 2 0 0 0-2 2c0 5.52-.88 9.209-1.99 11h4.474c.852-2.212 1.267-4.972 1.412-8.252a12.8 12.8 0 0 1 2.77 2.242c1.498 1.6 2.742 3.683 3.172 6.01h4.049c-.454-3.54-2.243-6.545-4.303-8.744-1.194-1.275-2.486-2.295-3.756-3.027S21.352 2 20 2Z"/></svg>