<svg xmlns="http://www.w3.org/2000/svg" width="48" height="48" viewBox="0 0 48 48"><path d="M8 2C4.71 2 2 4.71 2 8s2.71 6 6 6c2.59 0 4.818-1.68 5.65-4H20c1.128 0 2 .872 2 2v23c0 3.29 2.71 6 6 6h11.172l-1.586 1.586a2 2 0 0 0 0 2.828 2 2 0 0 0 2.828 0l5-5a2 2 0 0 0 .43-.643l.004-.005.002-.006a2 2 0 0 0 .148-.75L46 39l-.002-.03a2 2 0 0 0-.016-.232l-.011-.07a2 2 0 0 0-.04-.18l-.015-.058-.008-.022a2 2 0 0 0-.088-.234l-.002-.004-.002-.002a2 2 0 0 0-.127-.236l-.023-.036a2 2 0 0 0-.14-.189l-.005-.004-.04-.045-.067-.072-5-5a2 2 0 0 0-2.828 0 2 2 0 0 0 0 2.828L39.172 37H28c-1.128 0-2-.872-2-2V12c0-3.29-2.71-6-6-6h-6.35C12.818 3.68 10.59 2 8 2zm0 4c1.128 0 2 .872 2 2s-.872 2-2 2-2-.872-2-2 .872-2 2-2z"/></svg>