<svg xmlns="http://www.w3.org/2000/svg" width="48" height="48" viewBox="0 0 48 48"><path d="M5 2C3.269 2 2 3.498 2 5.092v9.816C2 16.502 3.269 18 5 18h7v6.008a2 2 0 0 0 2 2l18 .008V30H5c-1.731 0-3 1.498-3 3.092v9.816C2 44.502 3.269 46 5 46h38c1.731 0 3-1.499 3-3.092v-9.816C46 31.499 44.731 30 43 30h-7v-5.982a2 2 0 0 0-2-2l-18-.008V18h27c1.731 0 3-1.499 3-3.092V5.092C46 3.499 44.731 2 43 2zm1 4h36v8H6zm12 2a2 2 0 0 0-2 2 2 2 0 0 0 2 2h12a2 2 0 0 0 2-2 2 2 0 0 0-2-2zM6 34h36v8H6zm12 2a2 2 0 0 0-2 2 2 2 0 0 0 2 2h12a2 2 0 0 0 2-2 2 2 0 0 0-2-2z"/></svg>