<svg xmlns="http://www.w3.org/2000/svg" width="48" height="48" viewBox="0 0 48 48"><path d="M24 2a2 2 0 0 0-2 2v1H7a2 2 0 0 0-2 2v34a2 2 0 0 0 2 2h15v1a2 2 0 0 0 2 2 2 2 0 0 0 2-2v-1h1a2 2 0 0 0 2-2 2 2 0 0 0-2-2h-1V9h2a2 2 0 0 0 2-2 2 2 0 0 0-2-2h-2V4a2 2 0 0 0-2-2zm9 3a2 2 0 0 0-2 2 2 2 0 0 0 2 2h2a2 2 0 0 0 2-2 2 2 0 0 0-2-2zm8 0a2 2 0 0 0-2 2v2a2 2 0 0 0 2 2 2 2 0 0 0 2-2V7a2 2 0 0 0-2-2zM9 9h13v30H9zm32 4a2 2 0 0 0-2 2v2a2 2 0 0 0 2 2 2 2 0 0 0 2-2v-2a2 2 0 0 0-2-2zm0 8a2 2 0 0 0-2 2v2a2 2 0 0 0 2 2 2 2 0 0 0 2-2v-2a2 2 0 0 0-2-2zm0 8a2 2 0 0 0-2 2v2a2 2 0 0 0 2 2 2 2 0 0 0 2-2v-2a2 2 0 0 0-2-2zm0 8a2 2 0 0 0-2 2v2a2 2 0 0 0 2 2 2 2 0 0 0 2-2v-2a2 2 0 0 0-2-2zm-8 2a2 2 0 0 0-2 2 2 2 0 0 0 2 2h2a2 2 0 0 0 2-2 2 2 0 0 0-2-2z"/></svg>