<svg xmlns="http://www.w3.org/2000/svg" width="48" height="48" viewBox="0 0 48 48"><path d="M24 6C14.035 6 6 14.035 6 24s8.035 18 18 18 18-8.035 18-18S33.965 6 24 6Zm0 4a2 2 0 0 1 2 2v24a2 2 0 0 1-2 2c-7.708 0-14-6.292-14-14s6.292-14 14-14Z"/><path d="M24 4C12.954 4 4 12.954 4 24s8.954 20 20 20 20-8.954 20-20S35.046 4 24 4Zm0 2c9.965 0 18 8.035 18 18s-8.035 18-18 18S6 33.965 6 24 14.035 6 24 6Z"/><path d="M24 2C11.873 2 2 11.873 2 24s9.873 22 22 22 22-9.873 22-22S36.127 2 24 2Zm0 2c11.046 0 20 8.954 20 20s-8.954 20-20 20S4 35.046 4 24 12.954 4 24 4Z"/><path d="M22 14.402c-4.543.947-8 4.762-8 9.598s3.457 8.65 8 9.598z"/></svg>