<svg xmlns="http://www.w3.org/2000/svg" width="48" height="48" viewBox="0 0 48 48"><path d="M24 8c-4.289 0-8.208 1.346-11.13 3.63C9.946 13.917 8 17.234 8 20.948V44a2 2 0 0 0 2 2h28a2 2 0 0 0 2-2V20.947c0-3.714-1.947-7.031-4.87-9.316S28.29 8 24 8Zm0 4c3.443 0 6.523 1.104 8.668 2.781S36 18.615 36 20.947V42H12V20.947c0-2.332 1.187-4.489 3.332-6.166S20.557 12 24 12Z"/><path d="M38 22.044v-1.097C38 14.901 31.732 10 24 10s-14 4.901-14 10.947v1.093z"/><path d="M24 8c-4.289 0-8.208 1.346-11.13 3.63C9.946 13.917 8 17.234 8 20.948v1.094a2 2 0 0 0 2 2l28 .002a2 2 0 0 0 2-2v-1.096c0-3.714-1.947-7.031-4.87-9.316S28.29 8 24 8Zm0 4c3.443 0 6.523 1.104 8.668 2.781 1.853 1.45 2.822 3.293 3.098 5.262l-23.532-.002c.276-1.968 1.245-3.811 3.098-5.26C17.477 13.104 20.557 12 24 12Z"/><path d="M4 20a2 2 0 0 0-2 2 2 2 0 0 0 2 2h40a2 2 0 0 0 2-2 2 2 0 0 0-2-2zM21 2a2 2 0 0 0-2 2 2 2 0 0 0 2 2h6a2 2 0 0 0 2-2 2 2 0 0 0-2-2Z"/></svg>