<svg xmlns="http://www.w3.org/2000/svg" width="48" height="48" viewBox="0 0 48 48"><path d="M24 2c-3.29 0-6 2.71-6 6v1.1C11.582 11.533 7 17.746 7 25v9H6a2 2 0 0 0-2 2 2 2 0 0 0 2 2h36a2 2 0 0 0 2-2 2 2 0 0 0-2-2h-1v-9c0-7.254-4.582-13.467-11-15.9V8c0-3.29-2.71-6-6-6zm0 4c1.128 0 2 .872 2 2v.123A17 17 0 0 0 24 8c-.677 0-1.343.046-2 .123V8c0-1.128.872-2 2-2zm0 6c7.203 0 13 5.797 13 13v9H11v-9c0-7.203 5.797-13 13-13zm-7 11a2 2 0 0 0-2 2v4a2 2 0 0 0 2 2 2 2 0 0 0 2-2v-4a2 2 0 0 0-2-2zM6 40a2 2 0 0 0-2 2 2 2 0 0 0 2 2h36a2 2 0 0 0 2-2 2 2 0 0 0-2-2z"/></svg>