<svg xmlns="http://www.w3.org/2000/svg" width="48" height="48" viewBox="0 0 48 48"><path d="M31.09 8V6H26v2zm0 0H26a2 2 0 0 1-2 2h9.09a2 2 0 0 1-2-2zM40 12.91h2V10c0-2.185-1.815-4-4-4h-2.91v2H38a2 2 0 0 1 2 2z"/><path d="M40 12.91V10a2 2 0 0 0-2-2h-2.91a2 2 0 0 1-2 2H38v4.91a2 2 0 0 1 2-2zM40 22h2v-5.09h-2zm0 0v-5.09a2 2 0 0 1-2-2V24a2 2 0 0 1 2-2zm0 9.09h2V26h-2zm0 0V26a2 2 0 0 1-2-2v9.09a2 2 0 0 1 2-2zM35.09 40v2H38c2.185 0 4-1.815 4-4v-2.91h-2V38a2 2 0 0 1-2 2z"/><path d="M35.09 40H38a2 2 0 0 0 2-2v-2.91a2 2 0 0 1-2-2V38h-4.91a2 2 0 0 1 2 2zM26 40v2h5.09v-2zm0 0h5.09a2 2 0 0 1 2-2H24a2 2 0 0 1 2 2zm-9.09 0v2H22v-2zm0 0H22a2 2 0 0 1 2-2h-9.09a2 2 0 0 1 2 2zM8 35.09H6V38c0 2.185 1.815 4 4 4h2.91v-2H10a2 2 0 0 1-2-2Z"/><path d="M8 35.09V38a2 2 0 0 0 2 2h2.91a2 2 0 0 1 2-2H10v-4.91a2 2 0 0 1-2 2zM8 26H6v5.09h2zm0 0v5.09a2 2 0 0 1 2 2V24a2 2 0 0 1-2 2zM6 12.91h2V10a2 2 0 0 1 2-2h2.91V6H10c-2.185 0-4 1.815-4 4Zm2 4H6V22h2zm2-2a2 2 0 0 1-2 2V22a2 2 0 0 1 2 2z"/><path d="M14.91 10a2 2 0 0 1-2-2H10a2 2 0 0 0-2 2v2.91a2 2 0 0 1 2 2V10Z"/><path d="M14.91 10H10v28h28V10ZM18 16h12a2 2 0 0 1 2 2v12a2 2 0 0 1-2 2H18a2 2 0 0 1-2-2V18a2 2 0 0 1 2-2zm-1.09-8a2 2 0 0 1-2 2H24a2 2 0 0 1-2-2Zm0-2v2H22V6Z"/><path d="M20 20v8h8v-8zM12.91 6v2h2V6Zm4 2h-4a2 2 0 0 0 2 2 2 2 0 0 0 2-2zm0-2h-2v2h2zm-2-6a2 2 0 0 0-2 2v4h2v0h2V2a2 2 0 0 0-2-2zm2 42h-2v0h-2v4a2 2 0 0 0 2 2 2 2 0 0 0 2-2zm-2-2v2h2v-2zm-2 0v2h2v-2zm0 0h4a2 2 0 0 0-2-2 2 2 0 0 0-2 2zM22 6h2v0h2V2a2 2 0 0 0-2-2 2 2 0 0 0-2 2Zm2 2V6h-2v2zm2 0V6h-2v2zm0 0h-4a2 2 0 0 0 2 2 2 2 0 0 0 2-2zm0 34h-2v0h-2v4a2 2 0 0 0 2 2 2 2 0 0 0 2-2zm-2-2v2h2v-2zm-2 0v2h2v-2zm0 0h4a2 2 0 0 0-2-2 2 2 0 0 0-2 2zm9.09-34h2v0h2V2a2 2 0 0 0-2-2 2 2 0 0 0-2 2zm2 2V6h-2v2zm2 0V6h-2v2zm0 0h-4a2 2 0 0 0 2 2 2 2 0 0 0 2-2zm0 34h-2v0h-2v4a2 2 0 0 0 2 2 2 2 0 0 0 2-2zm-2-2v2h2v-2zm-2 0v2h2v-2zm0 0h4a2 2 0 0 0-2-2 2 2 0 0 0-2 2zM6 12.91v2h2v-2zm0 4v-2 0-2H2a2 2 0 0 0-2 2 2 2 0 0 0 2 2zm2 0v-2H6v2zm2-2a2 2 0 0 0-2-2v4a2 2 0 0 0 2-2zm32-2v4h4a2 2 0 0 0 2-2 2 2 0 0 0-2-2zm-2 2h2v-2h-2zm0 2h2v-2h-2zm0 0v-4a2 2 0 0 0-2 2 2 2 0 0 0 2 2zM6 26v-2 0-2H2a2 2 0 0 0-2 2 2 2 0 0 0 2 2zm2-2H6v2h2zm0-2H6v2h2zm0 0v4a2 2 0 0 0 2-2 2 2 0 0 0-2-2zm34 0v4h4a2 2 0 0 0 2-2 2 2 0 0 0-2-2zm-2 2h2v-2h-2zm0 2h2v-2h-2zm0 0v-4a2 2 0 0 0-2 2 2 2 0 0 0 2 2zM6 35.09v-2 0-2H2a2 2 0 0 0-2 2 2 2 0 0 0 2 2zm2-2H6v2h2zm0-2H6v2h2zm0 0v4a2 2 0 0 0 2-2 2 2 0 0 0-2-2zm34 0v4h4a2 2 0 0 0 2-2 2 2 0 0 0-2-2zm-2 2h2v-2h-2zm0 2h2v-2h-2zm0 0v-4a2 2 0 0 0-2 2 2 2 0 0 0 2 2z"/></svg>