<svg xmlns="http://www.w3.org/2000/svg" width="48" height="48" viewBox="0 0 48 48"><path d="M9 8c-.576 0-1 .424-1 1v30c0 .576.424 1 1 1h30c.576 0 1-.424 1-1V9c0-.576-.424-1-1-1Zm9.316 2.63h11.368a2 2 0 0 1 2 2 2 2 0 0 1-2 2H18.316a2 2 0 0 1-2-2 2 2 0 0 1 2-2zm5.678 5.686a2 2 0 0 1 1.797 1.112l2.467 4.97 5.504.803a2 2 0 0 1 1.111 3.408l-4.004 3.922.95 5.442a2 2 0 0 1-2.913 2.107L24 35.465l-4.906 2.615a2 2 0 0 1-2.912-2.111l.957-5.438-4.01-3.922a2 2 0 0 1 1.111-3.408l5.531-.803 2.432-4.962a2 2 0 0 1 1.791-1.12z"/><path d="M9 6a3 3 0 0 0-3 3v30a3 3 0 0 0 3 3h30a3 3 0 0 0 3-3V9a3 3 0 0 0-3-3Zm0 2h30c.576 0 1 .424 1 1v30c0 .576-.424 1-1 1H9c-.576 0-1-.424-1-1V9c0-.576.424-1 1-1Z"/><path d="M9 4C6.262 4 4 6.262 4 9v30c0 2.738 2.262 5 5 5h30c2.738 0 5-2.262 5-5V9c0-2.738-2.262-5-5-5Zm0 2h30a3 3 0 0 1 3 3v30a3 3 0 0 1-3 3H9a3 3 0 0 1-3-3V9a3 3 0 0 1 3-3Z"/><path d="m24.01 22.838-1.11 2.267a2 2 0 0 1-1.51 1.1l-2.572.373 1.871 1.83a2 2 0 0 1 .573 1.778l-.43 2.433 2.227-1.185a2 2 0 0 1 1.88 0l2.235 1.191-.426-2.443a2 2 0 0 1 .57-1.772l1.873-1.834-2.546-.37a2 2 0 0 1-1.504-1.09z"/></svg>