<svg xmlns="http://www.w3.org/2000/svg" width="48" height="48" viewBox="0 0 48 48"><g clip-path="url(#a)"><path d="M30.285 5.21q-.44.017-.883.118l-1.218.277a12.8 12.8 0 0 0-6.528 3.772 5.74 5.74 0 0 0-4.16.744 21 21 0 0 0-6.8 6.781 5.76 5.76 0 0 0-.862 2.866A13.1 13.1 0 0 0 5.777 25.3l-.45 1.168a4.9 4.9 0 0 0-.298 2.297 2 2 0 0 0-.029.21s-.05 4.078 1.559 8.905c.945 2.837 2.154 4.924 4.091 6.086a3.95 3.95 0 0 0 2.621.5c.837-.145 1.512-.523 2.07-.95 1.117-.852 1.871-1.941 2.446-2.931.833-1.434 2.179-3.07 3.242-4.242a2 2 0 0 0 .516-1.332c.392-.412.722-.893.957-1.442a.97.97 0 0 1 .34-.414l2.502-1.738a2 2 0 0 0 .135-.105 5.95 5.95 0 0 0 2.94-1.934l.685-.832q.175-.213.402-.371l.24-.166a5.9 5.9 0 0 0 1.559-1.61 2 2 0 0 0 .884-.535l1.39-1.504.911-.986a1.3 1.3 0 0 1 .446-.314 5.26 5.26 0 0 0 2.421-2.114 2 2 0 0 0 .913-.49c1.131-1.065 2.523-2.208 3.667-2.846.712-.396 1.538-.886 2.258-1.726s1.273-2.418.72-3.8c-.842-2.097-2.556-3.612-4.456-4.483-.899-.413-1.905-.644-3.148-.915a87 87 0 0 0-3.98-.748 2 2 0 0 0-.347-.011 4.84 4.84 0 0 0-2.699-.717zm.162 3.995a.77.77 0 0 1 .776.531l2.851 8.01a1.28 1.28 0 0 1-.715 1.639 5.3 5.3 0 0 0-1.64 1.103 6 6 0 0 0-.604-1.002l-5.931-7.91-.03-.035a8.8 8.8 0 0 1 3.922-2.035l1.219-.28a1 1 0 0 1 .152-.02zm5.272 1.236c.253.052.505.103.742.155 1.14.248 2.134.55 2.33.64.874.401 1.853 1.384 2.252 2.127a5.3 5.3 0 0 1-1.053.754 18 18 0 0 0-2.385 1.617zm-15.16 2.807a2 2 0 0 0 .427.404 2 2 0 0 0 .994.323q.002 0 .002.002l5.934 7.91a1.967 1.967 0 0 1-.457 2.84l-.24.168a6 6 0 0 0-1.207 1.113l-.684.834c-.68.828-1.835.98-2.707.357l-8.047-5.748a1.8 1.8 0 0 1-.418-.422 2 2 0 0 0-.23-1.539l-.03-.035c.047-.15.108-.298.196-.44a17 17 0 0 1 5.506-5.49c.302-.187.635-.277.96-.277zm-9.256 10.604c.279.312.592.6.945.853l7.8 5.572a5 5 0 0 0-1.222 1.72.94.94 0 0 1-1.27.51L9.583 29.14a.934.934 0 0 1-.523-1.23l.45-1.17a9.1 9.1 0 0 1 1.794-2.887zm-1.791 9.597 6.445 2.725a23 23 0 0 0-1.629 2.402c-.407.701-1.004 1.45-1.412 1.762-.161.123-.22.135-.256.148-.674-.428-1.524-1.524-2.306-3.87-.377-1.13-.646-2.2-.842-3.167z"/></g><defs><clipPath id="a"><path d="M0 0h48v48H0z"/></clipPath></defs></svg>