<svg xmlns="http://www.w3.org/2000/svg" width="48" height="48" viewBox="0 0 48 48"><path d="M24 6C14.035 6 6 14.035 6 24s8.035 18 18 18 18-8.035 18-18S33.965 6 24 6Zm0 7a2 2 0 0 1 1.627.838l4.008 5.61 4.47-2.237A2 2 0 0 1 37 19v10a2 2 0 0 1-2 2H13a2 2 0 0 1-2-2V19a2 2 0 0 1 2.895-1.79l4.47 2.237 4.008-5.61A2 2 0 0 1 24 13Z"/><path d="M24 4C12.954 4 4 12.954 4 24s8.954 20 20 20 20-8.954 20-20S35.046 4 24 4Zm0 2c9.965 0 18 8.035 18 18s-8.035 18-18 18S6 33.965 6 24 14.035 6 24 6Z"/><path d="M24 2C11.873 2 2 11.873 2 24s9.873 22 22 22 22-9.873 22-22S36.127 2 24 2Zm0 2c11.046 0 20 8.954 20 20s-8.954 20-20 20S4 35.046 4 24 12.954 4 24 4Z"/><path d="m24 18.44-3.373 4.722a2 2 0 0 1-2.522.627L15 22.236V27h18v-4.764l-3.105 1.553a2 2 0 0 1-2.522-.627z"/></svg>