<svg xmlns="http://www.w3.org/2000/svg" width="48" height="48" viewBox="0 0 48 48"><path d="M24 2a2 2 0 0 0-.156.031 2 2 0 0 0-.424.084 2 2 0 0 0-.291.108 2 2 0 0 0-.143.052l-8.5 5-8.5 5a2 2 0 0 0-.1.084 2 2 0 0 0-.218.188 2 2 0 0 0-.295.332 2 2 0 0 0-.098.107 2 2 0 0 0-.054.155 2 2 0 0 0-.143.414 2 2 0 0 0-.05.293A2 2 0 0 0 5 14v20a2 2 0 0 0 .027.152 2 2 0 0 0 .051.293 2 2 0 0 0 .143.414 2 2 0 0 0 .054.155 2 2 0 0 0 .098.107 2 2 0 0 0 .295.332 2 2 0 0 0 .219.188 2 2 0 0 0 .1.084l8.5 5 8.5 5a2 2 0 0 0 .142.052 2 2 0 0 0 .29.108 2 2 0 0 0 .425.084A2 2 0 0 0 24 46a2 2 0 0 0 .156-.031 2 2 0 0 0 .424-.084 2 2 0 0 0 .291-.108 2 2 0 0 0 .143-.052l8.5-5 8.5-5a2 2 0 0 0 .19-.127l.001-.002.002-.002a2 2 0 0 0 .51-.573l.008-.007.017-.035a2 2 0 0 0 .088-.176l.012-.024.004-.01a2 2 0 0 0 .074-.21l.002-.01.014-.057a2 2 0 0 0 .039-.181l.007-.07a2 2 0 0 0 .016-.19l.002-.035V13.984l-.002-.035a2 2 0 0 0-.016-.19l-.007-.07a2 2 0 0 0-.04-.181l-.015-.067a2 2 0 0 0-.078-.22l-.012-.024a2 2 0 0 0-.088-.176l-.017-.035-.008-.007a2 2 0 0 0-.512-.575l-.002-.002a2 2 0 0 0-.19-.127l-8.5-5-8.5-5-.003-.002a2 2 0 0 0-.633-.232l-.047-.01A2 2 0 0 0 24 2zm-2 5.496v13.006L10.945 14l5.569-3.275zm4 0 5.486 3.229L37.055 14 26 20.502zM9 17.498 20.055 24 9 30.502zm30 0v13.004L27.945 24zm-17 10v13.006l-5.486-3.229L10.945 34zm4 0L37.055 34l-5.569 3.275L26 40.504z"/></svg>