<svg xmlns="http://www.w3.org/2000/svg" width="48" height="48" viewBox="0 0 48 48"><path d="M24 2a2 2 0 0 0-.236.031 2 2 0 0 0-.18.024 2 2 0 0 0-.592.218l-.006.002-8.5 5-8.5 5-.04.036a2 2 0 0 0-.452.382l-.066.086a2 2 0 0 0-.123.16 2 2 0 0 0-.164.344l-.024.049a2 2 0 0 0-.105.598L5 14v20a2 2 0 0 0 .031.176 2 2 0 0 0 .069.388 2 2 0 0 0 .1.256 2 2 0 0 0 .075.194 2 2 0 0 0 .114.138 2 2 0 0 0 .177.215 2 2 0 0 0 .291.248 2 2 0 0 0 .13.11l8.5 5 8.5 5 .054.02a2 2 0 0 0 .572.21l.114.014A2 2 0 0 0 24 46a2 2 0 0 0 .273-.031l.114-.014a2 2 0 0 0 .572-.21l.055-.02 8.5-5 8.5-5a2 2 0 0 0 .703-.702l.008-.01.023-.044.057-.112.029-.062.043-.106.037-.11.018-.07.025-.107.016-.091.017-.122a2 2 0 0 0 .01-.173V13.982a2 2 0 0 0-.031-.334l-.02-.085-.02-.08-.02-.075-.032-.094-.037-.097a2 2 0 0 0-.059-.127l-.008-.014a2 2 0 0 0-.078-.137 2 2 0 0 0-.279-.351l-.006-.006a2 2 0 0 0-.344-.273l-.007-.004-.045-.03-8.5-5-8.5-5L25 2.27a2 2 0 0 0-.639-.235l-.023-.004A2 2 0 0 0 24 2zm-2 5.496v15.36L9 30.501V17.607l4.94 3.088a2 2 0 0 0 2.755-.634 2 2 0 0 0-.634-2.756l-5.204-3.252 5.657-3.328zm4 0 5.486 3.229 5.657 3.328-5.204 3.252a2 2 0 0 0-.634 2.756 2 2 0 0 0 2.756.634L39 17.607v12.895l-13-7.647zM24 26.32 37.055 34l-5.569 3.275L26 40.504V34a2 2 0 0 0-2-2 2 2 0 0 0-2 2v6.504l-5.486-3.229L10.945 34z"/></svg>