<svg xmlns="http://www.w3.org/2000/svg" width="48" height="48" viewBox="0 0 48 48"><path d="M6 6v36h36V6Zm32 2a2 2 0 0 1 2 2 2 2 0 0 1-2 2c-2.556 0-4.72.778-6.75 2.701s-3.9 5.096-5.334 9.873c-1.567 5.223-3.696 9.05-6.416 11.627S13.444 40 10 40a2 2 0 0 1-2-2 2 2 0 0 1 2-2c2.556 0 4.72-.778 6.75-2.701s3.9-5.096 5.334-9.873c1.567-5.223 3.696-9.05 6.416-11.627S34.556 8 38 8Z"/><path d="M4 4v40h40V4Zm2 2h36v36H6Z"/><path d="M4 2a2 2 0 0 0-2 2v40a2 2 0 0 0 2 2h40a2 2 0 0 0 2-2V4a2 2 0 0 0-2-2Zm0 2h40v40H4Z"/></svg>