<svg xmlns="http://www.w3.org/2000/svg" width="48" height="48" viewBox="0 0 48 48"><path d="M24 0C10.769 0 0 10.769 0 24a23.93 23.93 0 0 0 4.988 14.65 2 2 0 0 0 2.805.362 2 2 0 0 0 .363-2.805A19.9 19.9 0 0 1 4 24C4 12.93 12.93 4 24 4s20 8.93 20 20c0 4.606-1.549 8.828-4.156 12.207a2 2 0 0 0 .363 2.805 2 2 0 0 0 2.805-.362A23.93 23.93 0 0 0 48 24C48 10.769 37.231 0 24 0Z"/><path d="M24 8C15.187 8 8 15.187 8 24c0 3.24.969 6.273 2.633 8.797a2 2 0 0 0 2.771.57 2 2 0 0 0 .569-2.771A11.9 11.9 0 0 1 12 24c0-6.651 5.349-12 12-12s12 5.349 12 12c0 2.446-.724 4.702-1.973 6.596a2 2 0 0 0 .569 2.771 2 2 0 0 0 2.771-.57A15.95 15.95 0 0 0 40 24c0-8.813-7.187-16-16-16Z"/><path d="m24 30 16 16H8Z"/><path d="m22.586 28.586-16 16A2 2 0 0 0 8 48h32a2 2 0 0 0 1.414-3.414l-16-16a2 2 0 0 0-2.828 0zM24 32.828 35.172 44H12.828z"/></svg>