<svg xmlns="http://www.w3.org/2000/svg" width="48" height="48" viewBox="0 0 48 48"><path d="M24 3c-5.685 0-10.83.676-14.717 1.842-1.944.583-3.576 1.274-4.869 2.191S2 9.271 2 11s1.122 3.05 2.414 3.967q.398.28.838.533-.264.153-.514.314C3.281 16.763 2 18.13 2 20c0 1.73 1.122 3.05 2.414 3.967q.398.28.838.533-.264.153-.514.314C3.281 25.763 2 27.13 2 29c0 1.73 1.122 3.05 2.414 3.967q.398.28.838.533-.264.153-.514.314C3.281 34.763 2 36.13 2 38c0 1.73 1.122 3.05 2.414 3.967s2.925 1.608 4.87 2.191C13.17 45.324 18.314 46 24 46s10.83-.676 14.717-1.842c1.944-.583 3.576-1.274 4.869-2.191S46 39.729 46 38c0-1.87-1.28-3.237-2.738-4.186a12 12 0 0 0-.514-.314q.173-.097.338-.2.258-.161.5-.333C44.878 32.05 46 30.729 46 29c0-1.87-1.28-3.237-2.738-4.186a12 12 0 0 0-.514-.314q.44-.254.838-.533C44.878 23.05 46 21.729 46 20c0-1.87-1.28-3.237-2.738-4.186a12 12 0 0 0-.514-.314q.44-.254.838-.533C44.878 14.05 46 12.729 46 11s-1.122-3.05-2.414-3.967-2.925-1.608-4.87-2.191C34.83 3.676 29.686 3 24 3zm0 4c5.36 0 10.217.668 13.568 1.674 1.676.502 2.972 1.102 3.703 1.62.732.52.729.778.729.706s.003.186-.729.705c-.731.519-2.027 1.119-3.703 1.621C34.218 14.332 29.361 15 24 15s-10.217-.668-13.568-1.674c-1.676-.502-2.972-1.102-3.703-1.62C5.997 11.185 6 10.927 6 11s-.003-.186.729-.705c.731-.519 2.027-1.119 3.703-1.621C13.782 7.668 18.639 7 24 7zM10.807 17.574C14.472 18.484 19.029 19 24 19c4.97 0 9.528-.516 13.193-1.426 1.709.489 3.074 1.063 3.887 1.592.89.579.92.912.92.834 0-.072.003.186-.729.705-.731.519-2.027 1.119-3.703 1.621a27 27 0 0 1-1.119.305q-.27.068-.55.133a35 35 0 0 1-.862.193q-.27.056-.549.11a42 42 0 0 1-1.488.261 49 49 0 0 1-2.803.361q-.301.032-.607.061-.642.057-1.303.1c-.16.01-.315.023-.476.033q-.768.045-1.557.074l-.27.012h-.037q-.96.03-1.947.031-.987-.001-1.947-.031h-.037c-.092-.003-.179-.009-.27-.012a62 62 0 0 1-1.557-.074l-.476-.033q-.661-.043-1.303-.1l-.607-.06a54 54 0 0 1-1.68-.198 49 49 0 0 1-1.61-.244 42 42 0 0 1-1.001-.182q-.278-.053-.55-.109a35 35 0 0 1-.86-.193q-.28-.065-.551-.133a28 28 0 0 1-1.12-.305c-1.675-.502-2.97-1.102-3.702-1.62C5.997 20.185 6 19.927 6 20c0 .078.03-.255.92-.834.813-.529 2.178-1.103 3.887-1.592zm.066 9.016c3.182.783 7.031 1.27 11.236 1.383a66 66 0 0 0 3.782 0c4.205-.113 8.054-.6 11.236-1.383 1.485.425 2.774.907 3.615 1.373q.184.102.338.203c.89.579.92.912.92.834 0-.072.003.186-.729.705-.731.519-2.027 1.119-3.703 1.621-2.932.88-7.017 1.501-11.584 1.643q-.979.03-1.984.031c-5.36 0-10.217-.668-13.568-1.674-1.676-.502-2.972-1.102-3.703-1.62C5.997 29.185 6 28.927 6 29c0 .02.003.014.02-.016.05-.087.233-.384.9-.818q.155-.1.338-.203c.84-.466 2.13-.948 3.615-1.373zm-.066 8.984C14.472 36.484 19.029 37 24 37q1.066 0 2.105-.031c4.151-.125 7.947-.615 11.088-1.395 1.709.489 3.074 1.063 3.887 1.592.89.579.92.912.92.834 0-.072.003.186-.729.705-.731.519-2.027 1.119-3.703 1.621C34.218 41.332 29.361 42 24 42s-10.217-.668-13.568-1.674c-1.676-.502-2.972-1.102-3.703-1.62C5.997 38.185 6 37.927 6 38c0 .078.03-.255.92-.834.813-.529 2.178-1.103 3.887-1.592z"/></svg>