<svg xmlns="http://www.w3.org/2000/svg" width="48" height="48" viewBox="0 0 48 48"><path d="M19 5c-4.322 0-8.234.565-11.238 1.566-1.502.501-2.783 1.099-3.82 1.916C2.903 9.3 2 10.5 2 12v24c0 1.501.904 2.7 1.941 3.518 1.038.817 2.319 1.415 3.82 1.916C10.767 42.434 14.679 43 19 43c3.69 0 7.075-.419 9.855-1.16A12 12 0 0 0 34 43c6.603 0 12-5.397 12-12 0-5.922-4.341-10.872-10-11.83V12c0-1.501-.904-2.7-1.941-3.518-1.038-.817-2.319-1.415-3.82-1.916C27.233 5.566 23.321 5 19 5ZM6 16.736c.55.254 1.132.488 1.762.698C10.766 18.434 14.678 19 19 19s8.234-.565 11.238-1.566c.63-.21 1.211-.444 1.762-.698v2.481c-2.365.401-4.512 1.46-6.195 3.021l-.102.098-.117.121c-.175.172-.352.343-.516.525q.244-.27.504-.525A39 39 0 0 1 19 23c-3.962 0-7.55-.553-9.975-1.361-1.212-.404-2.128-.885-2.609-1.264-.35-.277-.409-.41-.416-.416ZM34 24c2.738 0 5 2.262 5 5a2 2 0 0 1 2 2c0 3.842-3.158 7-7 7s-7-3.158-7-7a2 2 0 0 1 2-2c0-2.738 2.262-5 5-5zm-28 .736c.55.254 1.132.488 1.762.698C10.766 26.434 14.678 27 19 27c1.293 0 2.543-.06 3.75-.158a12 12 0 0 0-.744 4.049C21.037 30.96 20.035 31 19 31c-3.962 0-7.55-.553-9.975-1.361-1.212-.404-2.128-.885-2.609-1.264-.35-.277-.409-.41-.416-.416v-.008zm0 8c.55.254 1.132.488 1.762.698C10.766 34.434 14.678 35 19 35c1.252 0 2.465-.054 3.637-.146-.037-.107-.063-.219-.096-.327q.054.164.111.327a12.3 12.3 0 0 0 2.108 3.707l-.067.01A39 39 0 0 1 19 39c-3.962 0-7.55-.553-9.975-1.361-1.212-.404-2.128-.885-2.609-1.264-.35-.277-.409-.41-.416-.416ZM31.816 33c.546.6 1.292 1 2.184 1s1.638-.4 2.184-1z"/><path d="M34 28c-.576 0-1 .424-1 1h2c0-.576-.424-1-1-1z"/></svg>