<svg xmlns="http://www.w3.org/2000/svg" width="48" height="48" viewBox="0 0 48 48"><path d="M4 6a2 2 0 0 0-2 2v12c0 1.16.552 2.193 1.258 2.936s1.58 1.282 2.566 1.72C7.798 25.533 10.274 26 13 26s5.202-.467 7.176-1.344c.987-.438 1.86-.978 2.566-1.72C23.448 22.193 24 21.16 24 20V8a2 2 0 0 0-2-2 2 2 0 0 0-2 2v12c0-.056.048-.037-.156.178s-.651.537-1.293.822c-1.284.57-3.306 1-5.551 1s-4.267-.43-5.55-1c-.643-.285-1.09-.607-1.294-.822S6 19.944 6 20V8a2 2 0 0 0-2-2Z"/><path d="M4 12a2 2 0 0 0-2 2c0 1.16.552 2.193 1.258 2.936s1.58 1.282 2.566 1.72C7.798 19.533 10.274 20 13 20s5.202-.467 7.176-1.344c.987-.438 1.86-.978 2.566-1.72C23.448 16.193 24 15.16 24 14a2 2 0 0 0-2-2 2 2 0 0 0-2 2c0-.056.048-.037-.156.178s-.651.537-1.293.822c-1.284.57-3.306 1-5.551 1s-4.267-.43-5.55-1c-.643-.285-1.09-.607-1.294-.822S6 13.944 6 14a2 2 0 0 0-2-2Zm18-4c0 2.21-4.03 4-9 4s-9-1.79-9-4 4.03-4 9-4 9 1.79 9 4z"/><path d="M13 2c-2.725 0-5.202.467-7.176 1.344-.987.438-1.86.978-2.566 1.72C2.552 5.807 2 6.84 2 8s.552 2.193 1.258 2.936 1.58 1.282 2.566 1.72C7.798 13.533 10.274 14 13 14s5.202-.467 7.176-1.344c.987-.438 1.86-.978 2.566-1.72C23.448 10.193 24 9.16 24 8s-.552-2.193-1.258-2.936-1.58-1.282-2.566-1.72C18.202 2.467 15.726 2 13 2Zm0 4c2.245 0 4.267.43 5.55 1 .643.285 1.09.607 1.294.822S20 8.056 20 8s.048-.037-.156.178-.651.537-1.293.822c-1.284.57-3.306 1-5.551 1s-4.267-.43-5.55-1c-.643-.285-1.09-.607-1.294-.822S6 7.944 6 8s-.048.037.156-.178S6.807 7.285 7.45 7c1.283-.57 3.305-1 5.55-1Zm19-2a2 2 0 0 0-2 2 2 2 0 0 0 2 2h6c1.128 0 2 .872 2 2v6a2 2 0 0 0 2 2 2 2 0 0 0 2-2v-6c0-3.29-2.71-6-6-6ZM6 30a2 2 0 0 0-2 2v6c0 3.29 2.71 6 6 6h6a2 2 0 0 0 2-2 2 2 0 0 0-2-2h-6c-1.128 0-2-.872-2-2v-6a2 2 0 0 0-2-2Zm34-1a5 5 0 0 1-5 5 5 5 0 0 1-5-5 5 5 0 0 1 5-5 5 5 0 0 1 5 5z"/><path d="M35 22c-3.842 0-7 3.158-7 7s3.158 7 7 7 7-3.158 7-7-3.158-7-7-7zm0 4c1.68 0 3 1.32 3 3s-1.32 3-3 3-3-1.32-3-3 1.32-3 3-3z"/><path d="M44 44H26a9 9 0 1 1 18 0z"/><path d="M35 33c-6.051 0-11 4.949-11 11a2 2 0 0 0 2 2h18a2 2 0 0 0 2-2c0-6.051-4.949-11-11-11Zm0 4c3.178 0 5.734 2.118 6.6 5H28.4c.866-2.882 3.422-5 6.6-5Z"/></svg>