<svg xmlns="http://www.w3.org/2000/svg" width="48" height="48" viewBox="0 0 48 48"><path d="M7 4C4.265 4 2 6.265 2 9v24c0 2.735 2.265 5 5 5h15v3H10a2 2 0 0 0-2 2 2 2 0 0 0 2 2h28a2 2 0 0 0 2-2 2 2 0 0 0-2-2H26v-3h15c2.735 0 5-2.265 5-5V9c0-2.735-2.265-5-5-5zm0 4h34c.589 0 1 .411 1 1v24c0 .589-.411 1-1 1H7c-.589 0-1-.411-1-1V9c0-.589.411-1 1-1zm8 4c-2.738 0-5 2.262-5 5s2.262 5 5 5 5-2.262 5-5-2.262-5-5-5zm17.133.004a2 2 0 0 0-1.45.49l-16 14a2 2 0 0 0-.189 2.822 2 2 0 0 0 2.822.19l16-14a2 2 0 0 0 .19-2.822 2 2 0 0 0-1.373-.68zM15 16c.576 0 1 .424 1 1s-.424 1-1 1-1-.424-1-1 .424-1 1-1zm18 4c-2.738 0-5 2.262-5 5s2.262 5 5 5 5-2.262 5-5-2.262-5-5-5zm0 4c.576 0 1 .424 1 1s-.424 1-1 1-1-.424-1-1 .424-1 1-1z"/></svg>