<svg xmlns="http://www.w3.org/2000/svg" width="48" height="48" viewBox="0 0 48 48"><path d="M13 2c-2.725 0-5.202.467-7.176 1.344-.987.438-1.86.978-2.566 1.72C2.552 5.807 2 6.84 2 8v12c0 1.16.552 2.193 1.258 2.936s1.58 1.282 2.566 1.72C7.798 25.533 10.274 26 13 26s5.202-.467 7.176-1.344c.987-.438 1.86-.978 2.566-1.72C23.448 22.193 24 21.16 24 20V8c0-1.16-.552-2.193-1.258-2.936s-1.58-1.282-2.566-1.72C18.202 2.467 15.726 2 13 2zm19 2a2 2 0 0 0-2 2 2 2 0 0 0 2 2h6c1.128 0 2 .872 2 2v6a2 2 0 0 0 2 2 2 2 0 0 0 2-2v-6c0-3.29-2.71-6-6-6zM13 6c2.245 0 4.267.43 5.55 1 .643.285 1.09.607 1.294.822.093.098.13.15.146.178-.017.028-.053.08-.146.178-.205.215-.651.537-1.293.822-1.284.57-3.306 1-5.551 1s-4.267-.43-5.55-1c-.643-.285-1.09-.607-1.294-.822A1 1 0 0 1 6.01 8c.017-.028.053-.08.146-.178.205-.215.651-.537 1.293-.822C8.733 6.43 10.755 6 13 6zm-7 6.73c1.944.829 4.354 1.27 7 1.27s5.056-.441 7-1.27v1.254a1 1 0 0 1-.156.194c-.205.215-.651.537-1.293.822-1.284.57-3.306 1-5.551 1s-4.267-.43-5.55-1c-.643-.285-1.09-.607-1.294-.822A.8.8 0 0 1 6 13.982zm0 6c1.944.829 4.354 1.27 7 1.27s5.056-.441 7-1.27v1.254a1 1 0 0 1-.156.194c-.205.215-.651.537-1.293.822-1.284.57-3.306 1-5.551 1s-4.267-.43-5.55-1c-.643-.285-1.09-.607-1.294-.822A1 1 0 0 1 6 19.984zM35 22c-3.842 0-7 3.158-7 7 0 2.002.858 3.817 2.223 5.098C26.548 35.884 24 39.658 24 44a2 2 0 0 0 2 2h18a2 2 0 0 0 2-2c0-4.342-2.548-8.116-6.223-9.902A7 7 0 0 0 42 29c0-3.842-3.158-7-7-7zm0 4c1.68 0 3 1.32 3 3s-1.32 3-3 3-3-1.32-3-3 1.32-3 3-3zM6 30a2 2 0 0 0-2 2v6c0 3.29 2.71 6 6 6h6a2 2 0 0 0 2-2 2 2 0 0 0-2-2h-6c-1.128 0-2-.872-2-2v-6a2 2 0 0 0-2-2zm29 7c3.178 0 5.734 2.118 6.6 5H28.4c.866-2.882 3.422-5 6.6-5z"/></svg>