<svg xmlns="http://www.w3.org/2000/svg" width="48" height="48" viewBox="0 0 48 48"><path d="M24 4A20 20 0 0 0 4.053 23.275 2 2 0 0 1 5 23h38.975a20 20 0 0 0-.768-4.412A2 2 0 0 1 42 19h-8a2 2 0 0 1-2-2 2 2 0 0 1 2-2h7.857A20 20 0 0 0 24 4zm-5 5c3.29 0 6 2.71 6 6s-2.71 6-6 6-6-2.71-6-6 2.71-6 6-6zm0 4c-1.128 0-2 .872-2 2s.872 2 2 2 2-.872 2-2-.872-2-2-2zM4.201 26.826A20 20 0 0 0 24 44a20 20 0 0 0 13.129-5H25a2 2 0 0 1-2-2 2 2 0 0 1 2-2h14a2 2 0 0 1 1.309.49A20 20 0 0 0 41.81 33H31a2 2 0 0 1-2-2 2 2 0 0 1 2-2h12a2 2 0 0 1 .309.025A20 20 0 0 0 43.764 27H5a2 2 0 0 1-.799-.174z"/><path d="M24 2C11.873 2 2 11.873 2 24s9.873 22 22 22 22-9.873 22-22S36.127 2 24 2Zm0 4c9.965 0 18 8.035 18 18s-8.035 18-18 18S6 33.965 6 24 14.035 6 24 6Z"/><path d="M19 13c-1.128 0-2 .872-2 2s.872 2 2 2 2-.872 2-2-.872-2-2-2zm22.6-2.203-3.2 2.402A17.9 17.9 0 0 1 42 24c0 7.044-4.03 13.117-9.9 16.08l1.8 3.57C41.08 40.026 46 32.573 46 24c0-4.944-1.639-9.527-4.4-13.203ZM2.44 19.602A22 22 0 0 0 2 24c0 1.895.24 3.739.693 5.498l3.873-.996A18 18 0 0 1 6 24c0-1.236.123-2.44.36-3.602Z"/></svg>