<svg xmlns="http://www.w3.org/2000/svg" width="48" height="48" viewBox="0 0 48 48"><path d="M12 2a2 2 0 0 0-2 2c0 4.617 2.258 8.724 5.725 11.277q-.63.267-1.188.596a8.8 8.8 0 0 0-1.648-2.262c-1.244-1.243-2.735-2.057-4.293-2.332s-3.316.042-4.545 1.272-1.547 2.988-1.272 4.547 1.089 3.047 2.332 4.29c1.244 1.244 2.733 2.056 4.291 2.33q.36.064.729.083A34 34 0 0 0 10 27c0 4.105 1.449 8.615 3.836 12.295S19.702 46 24 46s7.777-3.025 10.164-6.705S38 31.105 38 27c0-1.106-.032-2.174-.13-3.197q.368-.021.728-.084c1.558-.275 3.047-1.087 4.29-2.33 1.244-1.244 2.056-2.733 2.33-4.291.276-1.559-.04-3.318-1.269-4.547-1.23-1.23-2.988-1.545-4.547-1.27s-3.047 1.087-4.29 2.33a8.8 8.8 0 0 0-1.65 2.262q-.556-.33-1.187-.596C35.742 12.724 38 8.617 38 4a2 2 0 0 0-2-2 2 2 0 0 0-2 2 9.97 9.97 0 0 1-2.404 6.52A15 15 0 0 0 32 7a2 2 0 0 0-2-2 2 2 0 0 0-2 2c0 2.125-.597 4.016-1.422 5.254S24.846 14 24 14s-1.753-.508-2.578-1.746S20 9.125 20 7a2 2 0 0 0-2-2 2 2 0 0 0-2 2c0 1.227.138 2.41.404 3.52A9.97 9.97 0 0 1 14 4a2 2 0 0 0-2-2zM7.5 15.18q.171 0 .402.04c.617.11 1.45.51 2.159 1.22.708.708 1.11 1.54 1.218 2.158.067.38.043.628-.017.795l-.059.12a.6.6 0 0 1-.082.108c-.137.138-.406.27-1.023.16-.617-.109-1.45-.512-2.159-1.22-.708-.71-1.111-1.542-1.22-2.159-.11-.617.022-.886.16-1.023.103-.103.279-.202.621-.2zm32.998 0c.342-.003.52.096.623.199.138.137.267.406.158 1.023s-.51 1.45-1.218 2.159c-.71.708-1.542 1.111-2.159 1.22-.617.11-.886-.022-1.023-.16a.6.6 0 0 1-.078-.1l-.067-.134c-.058-.167-.082-.413-.015-.79.109-.616.512-1.449 1.22-2.158.71-.708 1.542-1.11 2.159-1.218q.23-.04.4-.041zM24 18c5.01 0 7.34.915 8.46 2.143C33.583 21.37 34 23.53 34 27c0 3.112-1.237 7.102-3.193 10.117S26.33 42 24 42s-4.85-1.867-6.807-4.883C15.237 34.102 14 30.112 14 27c0-3.47.418-5.63 1.54-6.857C16.66 18.915 18.99 18 24 18zm-4 6a2 2 0 0 0-2 2 2 2 0 0 0 2 2 2 2 0 0 0 2-2 2 2 0 0 0-2-2zm8 0a2 2 0 0 0-2 2 2 2 0 0 0 2 2 2 2 0 0 0 2-2 2 2 0 0 0-2-2zm-4 8a2 2 0 0 0-2 2 2 2 0 0 0 2 2 2 2 0 0 0 2-2 2 2 0 0 0-2-2z"/></svg>