<svg xmlns="http://www.w3.org/2000/svg" width="48" height="48" viewBox="0 0 48 48"><path d="M12 6a2 2 0 0 0-1.562.75l-4 5-4 5a2 2 0 0 0-.098.203 2 2 0 0 0-.225.469v.004a2 2 0 0 0-.066.33v.002A2 2 0 0 0 2 18a2 2 0 0 0 .053.266 2 2 0 0 0 .066.336 2 2 0 0 0 .238.47 2 2 0 0 0 .106.21l20 24a2 2 0 0 0 .113.087l.043.041a2 2 0 0 0 .205.203 2 2 0 0 0 .219.117 2 2 0 0 0 .205.104 2 2 0 0 0 .12.062l.015.002a2 2 0 0 0 .305.053 2 2 0 0 0 .3.049h.024a2 2 0 0 0 .295-.049 2 2 0 0 0 .31-.053l.016-.002a2 2 0 0 0 .209-.082l.017-.01h.002a2 2 0 0 0 .28-.165l.037-.028a2 2 0 0 0 .343-.318l.004-.004.012-.008 20-24a2 2 0 0 0 .303-.504l.012-.027a2 2 0 0 0 .146-.736L46 18l-.002-.037a2 2 0 0 0-.014-.182v-.015l-.005-.05a2 2 0 0 0-.038-.187l-.017-.07-.002-.004a2 2 0 0 0-.053-.158l-.03-.078-.003-.006a2 2 0 0 0-.072-.15l-.043-.08a2 2 0 0 0-.133-.196l-.002-.004-.023-.033-4-5-4-5A2 2 0 0 0 36 6zm.963 4h22.076l3.397 4.248.002.002 1.4 1.75H8.162l1.4-1.75.002-.002zM8.27 20h6.289l4.193 12.578zm10.503 0h10.454L24 35.678zm14.668 0h6.29L29.247 32.578z"/></svg>