<svg xmlns="http://www.w3.org/2000/svg" width="48" height="48" viewBox="0 0 48 48"><path d="M40 2a2 2 0 0 0-2 2c0 3.937-1.438 10.026-4.014 14.852C31.41 23.677 27.92 27 24 27c-1.944 0-3.67-.778-5.338-2.238s-3.198-3.606-4.465-6.055c-2.532-4.898-3.994-11.019-4.2-14.816A2 2 0 0 0 7.89 2.004a2 2 0 0 0-1.887 2.105c.247 4.536 1.787 10.915 4.64 16.434 1.427 2.76 3.185 5.301 5.383 7.227a14.4 14.4 0 0 0 2.418 1.71l-2.32 1.131A2 2 0 0 0 15 32.408v7.5a2 2 0 0 0 .99 1.729l7 4.09a2 2 0 0 0 2.02 0l7-4.09a2 2 0 0 0 .99-1.729v-7.5a2 2 0 0 0-1.125-1.797l-2.258-1.1c3.324-1.83 5.96-5.146 7.897-8.775C40.438 15.258 42 8.847 42 4a2 2 0 0 0-2-2zM24 31.225l5 2.435v5.102l-5 2.922-5-2.922V33.66z"/></svg>