<svg xmlns="http://www.w3.org/2000/svg" width="48" height="48" viewBox="0 0 48 48"><path d="M6 4a2 2 0 0 0-2 2v18c0 2.62.646 7.486 3.496 12.004S15.648 44.5 24 44.5c8.374 0 13.673-4.125 16.512-8.695S44 26.417 44 24V6a2 2 0 0 0-2-2zm2 4h32v4h-8a2 2 0 0 0-2 2 2 2 0 0 0 2 2h8v6.064c-4.524.297-8.588 1.649-11.627 4.536-2.005 1.905-3.48 4.422-4.373 7.54-.893-3.118-2.368-5.635-4.373-7.54-3.039-2.887-7.103-4.24-11.627-4.536V16h8a2 2 0 0 0 2-2 2 2 0 0 0-2-2H8zm.17 18.09c3.655.302 6.588 1.4 8.703 3.41 2.28 2.166 3.807 5.539 4.078 10.787-5.193-.737-8.146-3.363-10.072-6.416-1.643-2.604-2.407-5.602-2.71-7.781zm31.633.002c-.319 2.08-1.083 5.017-2.69 7.603-1.933 3.113-4.889 5.821-10.064 6.584.272-5.243 1.8-8.615 4.078-10.779 2.11-2.005 5.033-3.103 8.676-3.408z"/></svg>