<svg xmlns="http://www.w3.org/2000/svg" width="48" height="48" viewBox="0 0 48 48"><path d="M29 15H16c-.589 0-1 .411-1 1v16c0 .589.411 1 1 1h16c.589 0 1-.411 1-1V16c0-.589-.411-1-1-1zm-10 7h2a2 2 0 0 1 2 2 2 2 0 0 1-2 2h-2a2 2 0 0 1-2-2 2 2 0 0 1 2-2zm8 0h2a2 2 0 0 1 2 2 2 2 0 0 1-2 2h-2a2 2 0 0 1-2-2 2 2 0 0 1 2-2z"/><path d="M31 35v2h1c2.735 0 5-2.265 5-5v-9h-2v9c0 1.662-1.338 3-3 3z"/><path d="M31 35h1c1.662 0 3-1.338 3-3v-9a2 2 0 0 1-2-2v11c0 .589-.411 1-1 1h-3a2 2 0 0 1 2 2zm-10 0v2h6v-2zm0 0h6a2 2 0 0 1 2-2H19a2 2 0 0 1 2 2zm0-24v2h6v-2zm-4 2v-2h-1c-2.735 0-5 2.265-5 5v16c0 2.735 2.265 5 5 5h1v-2h-1c-1.662 0-3-1.338-3-3V16c0-1.662 1.338-3 3-3z"/><path d="M19 15a2 2 0 0 1-2-2h-1c-1.662 0-3 1.338-3 3v16c0 1.662 1.338 3 3 3h1a2 2 0 0 1 2-2h-3c-.589 0-1-.411-1-1V16c0-.589.411-1 1-1zm10 0a2 2 0 0 1-2-2h-6a2 2 0 0 1-2 2zm2-2a2 2 0 0 1-2 2h3c.589 0 1 .411 1 1v5a2 2 0 0 1 2-2v-3c0-1.662-1.338-3-3-3z"/><path d="M31 11v2h1c1.662 0 3 1.338 3 3v3h2v-3c0-2.735-2.265-5-5-5zm0 26h-4v5h-6v-5h-4v5c0 2.185 1.815 4 4 4h6c2.185 0 4-1.815 4-4zm-4-2v2h4v-2zm0 0h4a2 2 0 0 0-2-2 2 2 0 0 0-2 2zm-10 0v2h4v-2zm0 0h4a2 2 0 0 0-2-2 2 2 0 0 0-2 2zm0-22h4v-2h-4zm2 2a2 2 0 0 0 2-2h-4a2 2 0 0 0 2 2zm12-2h-4a2 2 0 0 0 2 2 2 2 0 0 0 2-2zm0-2h-4v2h4zM21 2c-2.185 0-4 1.815-4 4v5h4V6h6v5h4V6c0-2.185-1.815-4-4-4Zm16 17v4a2 2 0 0 0 2-2 2 2 0 0 0-2-2zm-2 4h2v-4h-2zm0 0v-4a2 2 0 0 0-2 2 2 2 0 0 0 2 2z"/></svg>