<svg xmlns="http://www.w3.org/2000/svg" width="48" height="48" viewBox="0 0 48 48"><path d="M11 6.998c-2.738 0-5 2.262-5 5v21a2 2 0 0 0 2 2h32a2 2 0 0 0 2-2v-7a2 2 0 0 0-2-2 2 2 0 0 0-2 2v5H10v-19c0-.576.424-1 1-1h12a2 2 0 0 0 2-2 2 2 0 0 0-2-2z"/><path d="M4 32.999h40v2a6 6 0 0 1-6 6H10a6 6 0 0 1-6-6z"/><path d="M4 30.998a2 2 0 0 0-2 2v2c0 4.395 3.605 8 8 8h28c4.395 0 8-3.605 8-8v-2a2 2 0 0 0-2-2zm2 4h36c0 2.233-1.767 4-4 4H10a3.97 3.97 0 0 1-4-4zM36 5c-4.395 0-8 3.605-8 8s3.605 8 8 8 8-3.605 8-8-3.605-8-8-8zm0 4c2.233 0 4 1.767 4 4s-1.767 4-4 4a3.97 3.97 0 0 1-4-4c0-2.233 1.767-4 4-4z"/><path d="M30.586 7.586a2 2 0 0 0 0 2.828l8 8a2 2 0 0 0 2.828 0 2 2 0 0 0 0-2.828l-8-8a2 2 0 0 0-2.828 0z"/></svg>