<svg xmlns="http://www.w3.org/2000/svg" width="48" height="48" viewBox="0 0 48 48"><path d="M9 3.998c-2.738 0-5 2.262-5 5v22c0 2.738 2.262 5 5 5h13v4h-8a2 2 0 0 0-2 2 2 2 0 0 0 2 2h9.982L24 44l.018-.002H34a2 2 0 0 0 2-2 2 2 0 0 0-2-2h-8v-4h13c2.738 0 5-2.262 5-5v-7a2 2 0 0 0-2-2 2 2 0 0 0-2 2v7c0 .576-.424 1-1 1H9c-.576 0-1-.424-1-1v-22c0-.576.424-1 1-1h14a2 2 0 0 0 2-2 2 2 0 0 0-2-2zM36 4c-4.395 0-8 3.605-8 8s3.605 8 8 8 8-3.605 8-8-3.605-8-8-8zm0 4c2.233 0 4 1.767 4 4 0 .36-.05.705-.137 1.035l-4.898-4.898C35.295 8.05 35.64 8 36 8zm-3.863 2.965 4.898 4.898c-.33.086-.676.137-1.035.137a3.97 3.97 0 0 1-4-4c0-.36.05-.705.137-1.035z"/></svg>