<svg xmlns="http://www.w3.org/2000/svg" width="49" height="48" viewBox="0 0 49 48"><path d="M10.777 32a2 2 0 0 1 2-2h2V18h1a2 2 0 0 1-2-2v-2c-1.634.007-3 1.376-3 3.012zm23.801 2c-.92 4.579-4.94 8-9.8 8a9.966 9.966 0 0 1-9.801-8h-2.2a2 2 0 0 1-2-2c0 7.708 6.292 14 14 14s14-6.292 14-14a2 2 0 0 1-2 2zm1.199-20v2a2 2 0 0 1-2 2h1v12h2a2 2 0 0 1 2 2V17.012c0-1.636-1.365-3.005-3-3.012zm-20 0v2h18v-2h-16zm0 0h2V6h14v8h2V4h-18z"/><path d="M35.777 14h-2v2h-18v-2h-2v2a2 2 0 0 0 2 2h18a2 2 0 0 0 2-2zm-20-12a2 2 0 0 0-2 2v10h2V4h18v10h2V4a2 2 0 0 0-2-2zm-.8 32a10 10 0 0 1-.2-2v-2h-2a2 2 0 0 0-2 2 2 2 0 0 0 2 2z"/><path d="M34.777 30h-20v2c0 .686.07 1.354.2 2h19.601c.13-.646.2-1.314.2-2zm-17-16h14V6h-14zm4-7a2 2 0 0 1 2 2v2a2 2 0 0 1-2 2 2 2 0 0 1-2-2V9a2 2 0 0 1 2-2zm6 0a2 2 0 0 1 2 2v2a2 2 0 0 1-2 2 2 2 0 0 1-2-2V9a2 2 0 0 1 2-2z"/><path d="M34.777 30v2a10 10 0 0 1-.199 2h2.2a2 2 0 0 0 2-2 2 2 0 0 0-2-2z"/></svg>