<svg xmlns="http://www.w3.org/2000/svg" width="48" height="48" viewBox="0 0 48 48"><path d="M15 6C7.844 6 2 11.844 2 19c0 6.288 3.607 11.936 7.96 16.29 4.354 4.353 9.459 7.482 13.491 8.634a2 2 0 0 0 1.098 0c4.032-1.152 9.137-4.281 13.49-8.635C42.393 30.936 46 25.288 46 19c0-7.156-5.844-13-13-13-2.12 0-4.136.511-5.91 1.418a2 2 0 0 0-.871 2.691 2 2 0 0 0 2.691.871A8.94 8.94 0 0 1 33 10c4.994 0 9 4.006 9 9 0 4.712-2.893 9.565-6.79 13.46-3.702 3.704-8.214 6.358-11.21 7.352-2.996-.994-7.508-3.648-11.21-7.351C8.892 28.565 6 23.712 6 19c0-4.994 4.006-9 9-9 .971 0 1.879.2 2.75.482l-.72 4.178a2 2 0 0 0 1 2.088l6.488 3.606-4.819 4.128a2 2 0 0 0-.414 2.547l3 5a2 2 0 0 0 2.744.686 2 2 0 0 0 .686-2.744l-2.131-3.551 5.717-4.902a2 2 0 0 0-.33-3.266l-7.758-4.31.758-4.403a2 2 0 0 0-1.06-2.121A13 13 0 0 0 15 6z"/></svg>