<svg xmlns="http://www.w3.org/2000/svg" width="48" height="48" viewBox="0 0 48 48"><path d="M10 2C7.815 2 6 3.815 6 6v36c0 2.185 1.815 4 4 4h28c2.185 0 4-1.815 4-4V6c0-2.185-1.815-4-4-4Zm0 4h28v36H10Z"/><path d="M23 9c-3.842 0-7 3.158-7 7s3.158 7 7 7c1.193 0 2.27-.38 3.26-.912l2.326 2.326a2 2 0 0 0 2.828-2.828l-2.326-2.326c.532-.99.912-2.067.912-3.26 0-3.842-3.158-7-7-7Zm0 4c1.68 0 3 1.32 3 3 0 .84-.334 1.576-.879 2.121A2.96 2.96 0 0 1 23 19c-1.68 0-3-1.32-3-3s1.32-3 3-3zm-6 15a2 2 0 0 0-2 2 2 2 0 0 0 2 2h14a2 2 0 0 0 2-2 2 2 0 0 0-2-2zm0 6a2 2 0 0 0-2 2 2 2 0 0 0 2 2h7a2 2 0 0 0 2-2 2 2 0 0 0-2-2z"/></svg>