<svg xmlns="http://www.w3.org/2000/svg" width="48" height="48" viewBox="0 0 48 48"><path d="M11 6v36h28V6Zm6 4h14a2 2 0 0 1 2 2v10a2 2 0 0 1-2 2H17a2 2 0 0 1-2-2V12a2 2 0 0 1 2-2zm0 18h14a2 2 0 0 1 2 2 2 2 0 0 1-2 2H17a2 2 0 0 1-2-2 2 2 0 0 1 2-2zm0 6h7a2 2 0 0 1 2 2 2 2 0 0 1-2 2h-7a2 2 0 0 1-2-2 2 2 0 0 1 2-2z"/><path d="M11 4a2 2 0 0 0-2 2v36a2 2 0 0 0 2 2h28a2 2 0 0 0 2-2V6a2 2 0 0 0-2-2Zm0 2h28v36H11Z"/><path d="M11 2C8.815 2 7 3.815 7 6v36c0 2.185 1.815 4 4 4h28c2.185 0 4-1.815 4-4V6c0-2.185-1.815-4-4-4Zm0 2h28a2 2 0 0 1 2 2v36a2 2 0 0 1-2 2H11a2 2 0 0 1-2-2V6a2 2 0 0 1 2-2Z"/><path d="M19 14v6h10v-6z"/></svg>