<svg xmlns="http://www.w3.org/2000/svg" width="48" height="48" viewBox="0 0 48 48"><path d="M15.045 3a2 2 0 0 0-.764.133c-1.88.723-3.597 2.396-5.115 4.96a16.27 16.27 0 0 0-2.205 9.548C5.079 20.947 4 24.72 4 28.5c0 5.388 2.371 9.729 6.08 12.48S18.705 45 24 45s10.211-1.268 13.92-4.02S44 33.888 44 28.5c0-3.78-1.079-7.553-2.96-10.86a16.27 16.27 0 0 0-2.206-9.546c-1.518-2.565-3.235-4.238-5.115-4.961a2 2 0 0 0-2.576 1.125L29.668 7.94A17.7 17.7 0 0 0 24 7c-1.98 0-3.878.337-5.668.941l-1.475-3.683A2 2 0 0 0 15.045 3Zm-.902 5.24.552 1.385a20.5 20.5 0 0 0-2.867 2.07c.232-.561.497-1.083.781-1.564.467-.788 1.019-1.365 1.534-1.89zm19.714 0c.515.526 1.067 1.103 1.534 1.89.284.481.549 1.004.78 1.565a20.5 20.5 0 0 0-2.866-2.07ZM20 15a2 2 0 1 1 0 4 2 2 0 0 1 0-4zm8 0a2 2 0 1 1 0 4 2 2 0 0 1 0-4zm-4 7.5c.999 0 1.918.155 2.734.746.816.59 1.266 1.676 1.266 2.504 0 1.138-.526 1.59-.865 1.945a6.3 6.3 0 0 1-.985.826c-.02.015-.034.022-.054.036.015.1.026.212.049.297.088.33.19.461.246.51s.125.136.634.136c.576 0 1-.424 1-1a2 2 0 0 1 4 0c0 2.738-2.262 5-5 5-1.126 0-2.2-.325-3.013-.926-.814.6-1.886.926-3.012.926-2.738 0-5-2.262-5-5a2 2 0 0 1 4 0c0 .576.424 1 1 1 .509 0 .58-.088.635-.137.055-.048.157-.18.246-.51.021-.08.03-.188.045-.283-.028-.019-.048-.029-.076-.049a6.3 6.3 0 0 1-.985-.826c-.339-.355-.865-.807-.865-1.945 0-.828.45-1.913 1.266-2.504.816-.59 1.735-.746 2.734-.746Z"/></svg>