<svg xmlns="http://www.w3.org/2000/svg" width="48" height="48" viewBox="0 0 48 48"><path d="M17.031 6.975c-1.222.045-2.228.402-3.117.879-2.031 1.089-3.393 3.053-4.285 4.306a2 2 0 0 1-1.21.795c-.38.082-.335.121-.608.207 1.22.405 3.986 1.27 5.875 1.96a2 2 0 0 1 1.298 1.63c.06.481.213.863.309 1.324a2 2 0 0 1 2.453-.931c8.89 3.568 14.712 12.34 17.871 16.677a2 2 0 0 1 .174 2.07c-.431.866-.706 1.892-1.14 3.045l1.454-.726a2 2 0 0 1 1.444-.135l2.842.813c-.076-.091-.11-.18-.19-.27-1.114-1.252-2.524-2.379-3.38-3.004a2 2 0 0 1-.817-1.74c.767-12.32-5.273-19.524-8.024-21.154a2 2 0 0 1-.921-2.205c.21-.842.51-1.97.894-3.045l.024-.065c-.23.029-.47.024-.692.088-.82.238-1.551.724-2.119 1.131a2 2 0 0 1-2.13.127c-2.225-1.226-3.997-1.724-5.468-1.777a7 7 0 0 0-.537 0zM16 9a2 2 0 0 1 2 2 2 2 0 0 1-2 2 2 2 0 0 1-2-2 2 2 0 0 1 2-2z"/><path d="M16.943 5.02C11.9 5.194 9.212 9.298 8 11c-5.664 1.218-2.854 3.323-1 4 1.214.406 4.146 1.323 6 2 .405 3.248 1.663 6.154 2 7 0-.812 1.326-3.647 2-5 8.092 3.248 13.797 11.602 17 16-1.214 2.436-2.494 6.308-3 8l6-3 7 2c0-3.248-4.146-6.647-6-8 .81-12.992-5.291-20.8-9-23 .405-1.624 1.157-4.323 2-5-3.237-1.624-5.82.154-7 1-2.748-1.515-5.083-2.049-7.057-1.98Zm.088 1.955q.263-.01.537 0c1.47.053 3.243.55 5.467 1.777a2 2 0 0 0 2.131-.127c.568-.407 1.3-.893 2.12-1.13.22-.065.46-.06.69-.089l-.023.065c-.384 1.074-.685 2.203-.894 3.045a2 2 0 0 0 .921 2.205c2.75 1.63 8.791 8.834 8.024 21.154a2 2 0 0 0 .816 1.74c.857.625 2.267 1.752 3.381 3.004.08.09.114.179.19.27l-2.842-.813a2 2 0 0 0-1.444.135l-1.455.727c.435-1.154.71-2.18 1.141-3.045a2 2 0 0 0-.174-2.07c-3.159-4.339-8.98-13.11-17.87-16.678a2 2 0 0 0-2.454.931c-.096-.461-.249-.843-.309-1.324a2 2 0 0 0-1.298-1.63c-1.89-.69-4.656-1.555-5.875-1.96.273-.086.227-.125.609-.207a2 2 0 0 0 1.209-.795c.892-1.253 2.254-3.217 4.285-4.306.889-.477 1.895-.834 3.117-.88Z"/><path d="M16.86 3.064c-1.849.06-3.478.537-4.837 1.266C9.2 5.845 7.61 8.12 6.727 9.38c-1.038.282-2.037.54-2.737 1.066-.918.691-1.559 2.206-1.226 3.326s1.024 1.67 1.65 2.118a8 8 0 0 0 1.9.99l.051.017c1.06.355 3.23 1.058 4.953 1.65.576 2.99 1.576 5.572 1.825 6.194A2 2 0 0 0 17 24c0 .341.005.025.113-.297.109-.322.28-.758.475-1.219.1-.237.2-.426.31-.67 6.112 3.2 10.813 9.39 13.84 13.553-1.103 2.519-2.203 5.553-2.654 7.06a2 2 0 0 0 2.81 2.362l5.305-2.652 6.252 1.787A2 2 0 0 0 46 42c0-2.475-1.389-4.444-2.81-6.041-1.132-1.272-2.23-2.102-3.192-2.846.438-11.895-4.409-19.443-8.727-22.76.148-.528.273-1.045.448-1.535.304-.85.897-1.55.533-1.257a2 2 0 0 0-.356-3.348c-2.07-1.039-4.148-1.018-5.724-.56-1.06.306-1.602.747-2.242 1.158-2.253-1.08-4.379-1.685-6.266-1.747q-.409-.012-.805 0zm.083 1.956c1.974-.07 4.31.465 7.057 1.98 1.18-.846 3.763-2.624 7-1-.843.677-1.595 3.376-2 5 3.709 2.2 9.81 10.008 9 23 1.854 1.353 6 4.752 6 8l-7-2-6 3c.506-1.692 1.786-5.564 3-8-3.203-4.398-8.908-12.752-17-16-.674 1.353-2 4.188-2 5-.337-.846-1.595-3.752-2-7-1.854-.677-4.786-1.594-6-2-1.854-.677-4.664-2.782 1-4 1.212-1.702 3.9-5.806 8.943-5.98Z"/></svg>