<svg xmlns="http://www.w3.org/2000/svg" width="48" height="48" viewBox="0 0 48 48"><path d="M16.86 3.064c-1.849.06-3.478.537-4.837 1.266C9.2 5.845 7.61 8.12 6.727 9.38c-1.038.282-2.037.54-2.737 1.066-.918.691-1.559 2.206-1.226 3.326s1.024 1.67 1.65 2.118a8 8 0 0 0 1.9.99l.051.017c1.06.355 3.23 1.058 4.953 1.65.576 2.99 1.576 5.572 1.825 6.194A2 2 0 0 0 17 24c0 .341.005.025.113-.297.109-.322.28-.758.475-1.219.1-.237.2-.426.31-.67 6.112 3.2 10.813 9.39 13.84 13.553-1.103 2.519-2.203 5.553-2.654 7.06a2 2 0 0 0 2.81 2.362l5.305-2.652 6.252 1.787A2 2 0 0 0 46 42c0-2.475-1.389-4.444-2.81-6.041-1.132-1.272-2.23-2.102-3.192-2.846.438-11.895-4.409-19.443-8.727-22.76.148-.528.273-1.045.448-1.535.304-.85.897-1.55.533-1.257a2 2 0 0 0-.356-3.348c-2.07-1.039-4.148-1.018-5.724-.56-1.06.306-1.602.747-2.242 1.158-2.253-1.08-4.379-1.685-6.266-1.747q-.409-.012-.805 0zm.171 3.91q.263-.009.537 0c1.47.054 3.243.552 5.467 1.778a2 2 0 0 0 2.131-.127c.568-.407 1.3-.893 2.12-1.13.22-.065.46-.06.69-.089l-.023.065c-.384 1.074-.685 2.203-.894 3.045a2 2 0 0 0 .921 2.205c2.75 1.63 8.791 8.834 8.024 21.154a2 2 0 0 0 .816 1.74c.857.625 2.267 1.752 3.381 3.004.08.09.114.179.19.27l-2.842-.813a2 2 0 0 0-1.444.135l-1.455.727c.435-1.154.71-2.18 1.141-3.045a2 2 0 0 0-.174-2.07c-3.159-4.339-8.98-13.11-17.87-16.678a2 2 0 0 0-2.454.931c-.096-.461-.249-.843-.309-1.324a2 2 0 0 0-1.298-1.63c-1.89-.69-4.656-1.555-5.875-1.96.273-.086.227-.125.609-.207a2 2 0 0 0 1.209-.795c.892-1.253 2.254-3.217 4.285-4.306.889-.477 1.895-.834 3.117-.88zM16 9a2 2 0 0 0-2 2 2 2 0 0 0 2 2 2 2 0 0 0 2-2 2 2 0 0 0-2-2z"/></svg>