<svg xmlns="http://www.w3.org/2000/svg" width="49" height="48" viewBox="0 0 49 48"><path d="M24.777 2a2 2 0 0 0-2 2v2.096c-11.193 1.014-20 10.452-20 21.904a2 2 0 0 0 2 2h8.17c.959 5.659 5.908 10 11.83 10 5.923 0 10.872-4.341 11.83-10h8.17a2 2 0 0 0 2-2c0-11.452-8.806-20.89-20-21.904V4a2 2 0 0 0-2-2zm0 8c9.28 0 16.797 6.995 17.8 16H6.978c1.002-9.005 8.519-16 17.798-16zm-7.6 20h15.2c-.9 3.435-3.869 6-7.6 6s-6.7-2.565-7.6-6zm21.602 4.023a2 2 0 0 0-1.183.362 2 2 0 0 0-.49 2.785l2.068 2.953a2 2 0 0 0 2.785.492 2 2 0 0 0 .49-2.785l-2.066-2.955a2 2 0 0 0-1.291-.822 2 2 0 0 0-.313-.03zm-27.9.21a2 2 0 0 0-1.24.578l-2.551 2.55a2 2 0 0 0 0 2.828 2 2 0 0 0 2.83 0l2.549-2.55a2 2 0 0 0 0-2.828 2 2 0 0 0-1.588-.579zm22.787 4.13a2 2 0 0 0-1.182.36 2 2 0 0 0-.492 2.787l1.147 1.636a2 2 0 0 0 2.787.493 2 2 0 0 0 .49-2.785l-1.146-1.64a2 2 0 0 0-1.291-.821 2 2 0 0 0-.313-.03zm-17.754.11a2 2 0 0 0-1.414.586l-1.416 1.414a2 2 0 0 0 0 2.83 2 2 0 0 0 2.83 0l1.414-1.414a2 2 0 0 0 0-2.83 2 2 0 0 0-1.414-.586z"/></svg>