<svg xmlns="http://www.w3.org/2000/svg" width="49" height="48" viewBox="0 0 49 48"><path d="M24.778 8c-11.046 0-20 8.954-20 20h40c0-11.046-8.954-20-20-20z"/><path d="M24.777 6c-12.126 0-22 9.873-22 22a2 2 0 0 0 2 2h40a2 2 0 0 0 2-2c0-12.127-9.873-22-22-22zm0 4c9.28 0 16.797 6.995 17.8 16H6.978c1.002-9.005 8.519-16 17.798-16Z"/><path d="M24.777 2a2 2 0 0 0-2 2v4a2 2 0 0 0 2 2 2 2 0 0 0 2-2V4a2 2 0 0 0-2-2zm-10 24a2 2 0 0 0-2 2c0 6.604 5.397 12 12 12 6.604 0 12-5.396 12-12a2 2 0 0 0-2-2zm2.4 4h15.2c-.9 3.435-3.869 6-7.6 6s-6.7-2.565-7.6-6zm21.915 4.053a2 2 0 0 0-1.496.332 2 2 0 0 0-.49 2.785l2.068 2.953a2 2 0 0 0 2.785.492 2 2 0 0 0 .49-2.785l-2.066-2.955a2 2 0 0 0-1.291-.822zm-29.453.757-2.551 2.551a2 2 0 0 0 0 2.828 2 2 0 0 0 2.83 0l2.549-2.55a2 2 0 0 0 0-2.828 2 2 0 0 0-2.828 0zm24.34 3.583a2 2 0 0 0-1.495.33 2 2 0 0 0-.492 2.787l1.147 1.636a2 2 0 0 0 2.787.493 2 2 0 0 0 .49-2.785l-1.146-1.64a2 2 0 0 0-1.291-.821zm-18.067.08a2 2 0 0 0-1.414.586l-1.416 1.414a2 2 0 0 0 0 2.83 2 2 0 0 0 2.83 0l1.414-1.414a2 2 0 0 0 0-2.83 2 2 0 0 0-1.414-.586z"/></svg>