<svg xmlns="http://www.w3.org/2000/svg" width="48" height="48" viewBox="0 0 48 48"><path d="M8 2C5.819 2 4 3.819 4 6v36c0 2.181 1.819 4 4 4h22c2.181 0 4-1.819 4-4V6c0-2.181-1.819-4-4-4Zm0 4h22v36H8Z"/><path d="M14 32a2 2 0 0 0-2 2 2 2 0 0 0 2 2h10a2 2 0 0 0 2-2 2 2 0 0 0-2-2zm28-12v-6H23a5 5 0 1 0 0 6z"/><path d="M19 10c-3.842 0-7 3.158-7 7s3.158 7 7 7c1.83 0 3.396-.839 4.648-2H42a2 2 0 0 0 2-2v-6a2 2 0 0 0-2-2H23.648c-1.252-1.161-2.818-2-4.648-2Zm0 4c.995 0 1.852.47 2.4 1.201A2 2 0 0 0 23 16h17v2H23a2 2 0 0 0-1.6.799A2.97 2.97 0 0 1 19 20c-1.68 0-3-1.32-3-3s1.32-3 3-3z"/></svg>