<svg xmlns="http://www.w3.org/2000/svg" width="48" height="48" viewBox="0 0 48 48"><path d="M9 8c-.589 0-1 .411-1 1v30c0 .589.411 1 1 1h30c.589 0 1-.411 1-1V9c0-.589-.411-1-1-1Zm5 9a2 2 0 0 1 1.414.586L24 26.172l8.586-8.586a2 2 0 0 1 2.828 0 2 2 0 0 1 0 2.828l-10 10a2 2 0 0 1-2.828 0l-10-10a2 2 0 0 1 0-2.828A2 2 0 0 1 14 17Z"/><path d="M9 6C7.338 6 6 7.338 6 9v30c0 1.662 1.338 3 3 3h30c1.662 0 3-1.338 3-3V9c0-1.662-1.338-3-3-3Zm0 2h30c.589 0 1 .411 1 1v30c0 .589-.411 1-1 1H9c-.589 0-1-.411-1-1V9c0-.589.411-1 1-1Z"/><path d="M9 4C6.265 4 4 6.265 4 9v30c0 2.735 2.265 5 5 5h30c2.735 0 5-2.265 5-5V9c0-2.735-2.265-5-5-5Zm0 2h30c1.662 0 3 1.338 3 3v30c0 1.662-1.338 3-3 3H9c-1.662 0-3-1.338-3-3V9c0-1.662 1.338-3 3-3Z"/></svg>