<svg xmlns="http://www.w3.org/2000/svg" width="48" height="48" viewBox="0 0 48 48"><path d="M24 2A21.96 21.96 0 0 0 8.05 8.848 21.95 21.95 0 0 0 2 24c0 2.93.58 5.724 1.625 8.283l.025.092a22.07 22.07 0 0 0 9.899 10.988l.078.03a21.86 21.86 0 0 0 11.5 2.578 22 22 0 0 0 2.209-.223 22 22 0 0 0 3.184-.732 22 22 0 0 0 3.43-1.393l.068-.035a22 22 0 0 0 1.359-.758 22 22 0 0 0 1.754-1.178 22.1 22.1 0 0 0 7.465-9.918l.02-.035q.202-.547.376-1.107l.041-.14q.128-.416.24-.839.036-.139.07-.279a22 22 0 0 0 .374-1.826l.039-.246q.061-.42.107-.846l.028-.23q.038-.405.062-.813l.02-.3q.026-.534.027-1.073a21.96 21.96 0 0 0-8.014-16.98q-.379-.312-.771-.608l-.022-.016c-.132-.099-.268-.192-.402-.289q-.24-.175-.486-.343l-.2-.131q-.36-.239-.728-.463l-.111-.065a22 22 0 0 0-.743-.425q-.151-.081-.302-.159-.31-.164-.625-.32-.166-.078-.334-.154c-.154-.072-.306-.147-.461-.215l-.04-.01A21.9 21.9 0 0 0 24 2zm0 4c2.667 0 5.189.581 7.459 1.617q.22.1.436.203l.33.168q.212.11.421.223.145.081.288.164.232.13.459.268.183.114.365.234.156.099.31.201.211.145.416.295.166.115.327.234l.263.207c-1.857 1.564-4.522 3.697-7.65 5.553-2.254-3.56-4.937-6.695-7.135-8.984A18 18 0 0 1 24 6zm-7.918 1.832c2.103 2.08 5.21 5.555 7.73 9.41l-.265.12c-4.754 2.03-12.47 2.31-17.002 2.22a17.94 17.94 0 0 1 4.404-7.978 18 18 0 0 1 5.133-3.772zm21.87 4.799a18 18 0 0 1 1.429 2.01v.002a17.8 17.8 0 0 1 2.41 6.603q.049.333.086.668c-1.445-.07-3.31-.146-5.43-.068-1.716.063-3.59.228-5.527.593l-.031-.095a30 30 0 0 0-1.493-3.489c3.723-2.188 6.692-4.629 8.555-6.224zm-12.116 8.086c.465.915.871 1.832 1.197 2.736q-1.007.34-2.01.78c-6.888 3.025-12.098 7.356-15.21 10.84a18 18 0 0 1-2.463-4.221l-.008-.012A18 18 0 0 1 6 24c0-.138.007-.273.01-.41 4.687.172 12.97.07 19.11-2.55.24-.104.478-.215.716-.323zm11.902 5.101c1.577-.015 2.956.052 4.157.11l-.024.195q-.027.244-.06.484l-.057.356a18 18 0 0 1-.492 2.146q-.054.186-.112.37-.067.21-.14.417-.07.203-.143.405a18 18 0 0 1-4.168 6.455 18 18 0 0 1-1.955 1.687q-.106.076-.213.15a239 239 0 0 0-.797-4.75c-.42-2.332-.95-4.938-1.644-7.54a34 34 0 0 1 4.504-.46q.585-.02 1.144-.025zm-9.529 1.47c.656 2.46 1.178 4.984 1.588 7.263.442 2.456.743 4.547 1.008 6.115q-.312.13-.63.248a18 18 0 0 1-3.437.88A18 18 0 0 1 24 42a17.96 17.96 0 0 1-8.465-2.104l-.084-.05a18 18 0 0 1-2.832-1.905c2.676-3.017 7.622-7.24 14.012-10.046a21 21 0 0 1 1.578-.608z"/></svg>