<svg xmlns="http://www.w3.org/2000/svg" width="48" height="48" viewBox="0 0 48 48"><path d="M12.158 9.008a2 2 0 0 0-2.037 1.308L6.6 20H4a2 2 0 0 0-2 2 2 2 0 0 0 2 2h4a2 2 0 0 0 1.879-1.316l1.525-4.192 3.631 18.885a2 2 0 0 0 3.852.289l4.431-12.557 1.893 3.786a2 2 0 0 0 3.55.052l4.667-8.666 2.648 9.268a2 2 0 0 0 3.848 0L41.508 24H44a2 2 0 0 0 2-2 2 2 0 0 0-2-2h-4a2 2 0 0 0-1.924 1.451L38 21.72l-2.076-7.268a2 2 0 0 0-3.686-.398l-5.172 9.605-2.277-4.553a2 2 0 0 0-3.676.229L17.57 29.373l-3.605-18.75a2 2 0 0 0-1.807-1.615z"/></svg>