<svg xmlns="http://www.w3.org/2000/svg" width="48" height="48" viewBox="0 0 48 48"><path d="m24.95 42.36 5.466-11.99 12.689-3.72-9.767-8.88.368-13.163-11.502 6.503-12.46-4.416 2.657 12.9-8.069 10.433 13.145 1.47Z"/><path d="M34.084 2.643a2 2 0 0 0-1.363.224L22.014 8.92 10.412 4.809a2 2 0 0 0-2.627 2.289l2.473 12-7.508 9.705a2 2 0 0 0 1.36 3.21l12.236 1.37 6.957 10.111a2 2 0 0 0 3.468-.305l5.086-11.158 11.811-3.46a2 2 0 0 0 .781-3.401l-9.086-8.262.342-12.244a2 2 0 0 0-1.621-2.021ZM31.607 8.09l-.267 9.625a2 2 0 0 0 .652 1.535l7.131 6.482-9.27 2.72a2 2 0 0 0-1.257 1.087l-4 8.777-5.471-7.953a2 2 0 0 0-1.426-.853l-9.607-1.074 5.89-7.62a2 2 0 0 0 .377-1.627l-1.943-9.425 9.121 3.23a2 2 0 0 0 1.652-.142z"/><path d="M37.588 34.637a2 2 0 0 0-2.828.006 2 2 0 0 0 .008 2.828l8 7.965a2 2 0 0 0 2.828-.006 2 2 0 0 0-.008-2.83z"/></svg>