<svg xmlns="http://www.w3.org/2000/svg" width="48" height="48" viewBox="0 0 48 48"><g clip-path="url(#a)"><path d="M35.193 5.818a7.97 7.97 0 0 0-5.655 2.332L11.153 26.535c-2.62 2.62-3.025 6.648-1.23 9.713l-5.337 5.338a2 2 0 0 0 0 2.828 2 2 0 0 0 2.828 0l5.339-5.338c3.063 1.797 7.09 1.394 9.712-1.227L40.85 19.464c3.109-3.109 3.109-8.204 0-11.314a7.98 7.98 0 0 0-5.657-2.333zm0 3.967a4 4 0 0 1 2.828 1.195c1.591 1.591 1.592 4.065 0 5.657l-11.78 11.777-5.656-5.657 11.78-11.777a4 4 0 0 1 2.829-1.195zm-1.236 3.285a2 2 0 0 0-1.69 1.002A1.994 1.994 0 0 0 33 16.803a1.996 1.996 0 0 0 2.733-.73A1.996 1.996 0 0 0 35 13.34a2 2 0 0 0-1.043-.27zm-16.2 12.516 5.658 5.656-3.778 3.778c-1.592 1.592-4.066 1.592-5.657 0s-1.591-4.064 0-5.656z"/></g><defs><clipPath id="a"><path d="M0 0h48v48H0z"/></clipPath></defs></svg>