<svg xmlns="http://www.w3.org/2000/svg" width="48" height="48" viewBox="0 0 48 48"><path d="m20.586 22.758 5.656 5.656 11.78-11.777c1.59-1.592 1.59-4.067 0-5.658-1.592-1.592-4.067-1.592-5.659 0zm13.273-9.684c.384-.027.781.058 1.141.266a1.996 1.996 0 0 1 .732 2.732 1.996 1.996 0 0 1-2.732.73 1.994 1.994 0 0 1-.732-2.73c.346-.6.951-.953 1.591-.998zM23.414 31.242l-5.656-5.656-3.78 3.78c-1.59 1.59-1.59 4.064 0 5.655 1.592 1.592 4.067 1.592 5.659 0z"/><path d="M19.123 21.39a2 2 0 0 1 .291.196l1.172 1.172 11.777-11.78c1.592-1.59 4.067-1.59 5.658 0 1.592 1.592 1.592 4.067 0 5.659L26.242 28.414l1.172 1.172a2 2 0 0 1 .22.266L39.437 18.05a5.99 5.99 0 0 0 0-8.487 5.99 5.99 0 0 0-8.487 0zm-7.568 13.698A2 2 0 0 1 12 35a2 2 0 0 1 1.414.586 2 2 0 0 1 .525 1.877 5.985 5.985 0 0 0 7.112-1.027l3.826-3.827a2 2 0 0 1-.291-.195l-1.172-1.172-3.777 3.78c-1.592 1.59-4.067 1.59-5.658 0-1.592-1.592-1.592-4.065 0-5.657l3.779-3.78-1.172-1.17a2 2 0 0 1-.195-.292l-3.827 3.826a5.98 5.98 0 0 0-1.01 7.139z"/><path d="M35.191 5.818a7.97 7.97 0 0 0-5.656 2.332L11.15 26.535c-2.62 2.62-3.023 6.649-1.226 9.713l.662-.662a2 2 0 0 1 .969-.498 5.98 5.98 0 0 1 1.01-7.139l3.826-3.826a2 2 0 0 1 .195-2.537A2 2 0 0 1 18 21a2 2 0 0 1 1.123.39L30.949 9.565a5.99 5.99 0 0 1 8.487 0 5.99 5.99 0 0 1 0 8.487l-11.801 11.8a2 2 0 0 1-.22 2.563 2 2 0 0 1-2.538.195l-3.826 3.827a5.985 5.985 0 0 1-7.112 1.027 2 2 0 0 1-.525.951l-.662.662c3.064 1.798 7.092 1.395 9.713-1.226L40.85 19.465c3.109-3.11 3.109-8.205 0-11.315a7.98 7.98 0 0 0-5.659-2.332Z"/><path d="m23.414 31.242 2.828-2.828-5.656-5.656-2.828 2.828z"/><path d="M27.635 29.852a2 2 0 0 0-.22-.266l-1.173-1.172-2.828 2.828 1.172 1.172a2 2 0 0 0 .291.195z"/><path d="m27.635 29.852-2.758 2.757a2 2 0 0 0 2.537-.195 2 2 0 0 0 .22-2.562zM16.39 24.123a2 2 0 0 0 .196.291l1.172 1.172 2.828-2.828-1.172-1.172a2 2 0 0 0-.291-.195z"/><path d="m16.39 24.123 2.733-2.732A2 2 0 0 0 18 21a2 2 0 0 0-1.414.586 2 2 0 0 0-.195 2.537zm-4.835 10.965c.267.482.6.938 1.01 1.348a6 6 0 0 0 1.374 1.027 2 2 0 0 0-.525-1.877A2 2 0 0 0 12 35a2 2 0 0 0-.445.088z"/><path d="m12.752 39.076.662-.662a2 2 0 0 0 .525-.951 6 6 0 0 1-1.375-1.027 6 6 0 0 1-1.01-1.348 2 2 0 0 0-.968.498l-.662.662a8 8 0 0 0 1.226 1.602 8 8 0 0 0 1.602 1.226z"/><path d="M12.752 39.076a8 8 0 0 1-1.602-1.226 8 8 0 0 1-1.226-1.602l-5.338 5.338a2 2 0 0 0 0 2.828 2 2 0 0 0 2.828 0z"/></svg>