<svg xmlns="http://www.w3.org/2000/svg" width="48" height="48" viewBox="0 0 48 48"><path d="M4 5c-2.63.037-2.63 3.963 0 4v30a2 2 0 0 0 0 4h40a2 2 0 0 0 0-4V9a2 2 0 0 0 0-4H6Zm4 4h14v30H8Zm18 0h14v30H26Z"/><path d="M33 18a2 2 0 0 0-1.414.586l-3 3a2 2 0 0 0 0 2.828 2 2 0 0 0 2.414.277V28a2 2 0 0 0 4 0v-3.309a2 2 0 0 0 2.414-.277 2 2 0 0 0 0-2.828l-3-3a2 2 0 0 0-.682-.44A2 2 0 0 0 33 18Zm-18 0a2 2 0 0 0-2 2v3.309A2 2 0 0 0 12 23a2 2 0 0 0-1.414 3.414l3 3a2 2 0 0 0 2.828 0l3-3a2 2 0 0 0 0-2.828A2 2 0 0 0 17 23.309V20a2 2 0 0 0-2-2z"/></svg>