<svg xmlns="http://www.w3.org/2000/svg" width="48" height="48" viewBox="0 0 48 48"><path d="M24.768 39A10.9 10.9 0 0 1 24 35H6V12.686l-3.09-2.008a2 2 0 0 1-.875-1.856A2 2 0 0 0 2 9v28a2 2 0 0 0 2 2zM45.994 8.975a2 2 0 0 1-.904 1.703L42 12.686V26.53c2.44 2.022 4 5.072 4 8.469V9zM4 7a2 2 0 0 0-.203.041 2 2 0 0 1 1.293.281L10.748 11h26.504l5.658-3.678a2 2 0 0 1 1.293-.281A2 2 0 0 0 44 7H24Z"/><path d="M26 35h-2c0 1.411.278 2.758.768 4H26a2 2 0 0 0 .852-.209A9 9 0 0 1 26 35Z"/><path d="M26 35a9 9 0 0 0 .852 3.791A2 2 0 0 0 28 37a2 2 0 0 0-2-2Zm16-5.654V26.53A10.94 10.94 0 0 0 35 24c-6.051 0-11 4.949-11 11h2a9 9 0 0 1 9-9 9 9 0 0 1 7 3.346z"/><path d="M42 35c0-3.89-3.11-7-7-7s-7 3.11-7 7 3.11 7 7 7 7-3.11 7-7zm-5-4a2 2 0 0 1 1.414.586 2 2 0 0 1 0 2.828l-4 4a2 2 0 0 1-2.828 0 2 2 0 0 1 0-2.828l4-4A2 2 0 0 1 37 31Zm6.78 5.955A9 9 0 0 0 44 35a9 9 0 0 0-2-5.654V35a2 2 0 0 0 1.78 1.955z"/><path d="M43.78 36.955A2 2 0 0 1 42 35c0 3.89-3.11 7-7 7s-7-3.11-7-7 3.11-7 7-7 7 3.11 7 7v-5.654A9 9 0 0 0 35 26a9 9 0 0 0-9 9 2 2 0 0 1 2 2 2 2 0 0 1-1.148 1.791A9 9 0 0 0 35 44a9 9 0 0 0 8.78-7.045Z"/><path d="M46 35c0-3.397-1.56-6.447-4-8.469v2.815A9 9 0 0 1 44 35a9 9 0 0 1-.22 1.955A2 2 0 0 0 44 37a2 2 0 0 0 2-2Z"/><path d="M46 35a2 2 0 0 1-2 2 2 2 0 0 1-.22-.045A9 9 0 0 1 35 44a9 9 0 0 1-8.148-5.209A2 2 0 0 1 26 39h-1.232c1.609 4.085 5.592 7 10.232 7 6.051 0 11-4.949 11-11ZM10.748 11H6v1.686l16.91 10.992a2 2 0 0 0 2.18 0L42 12.686V11h-4.748L24 19.615ZM2.254 8.084a2 2 0 0 1 .217-.326 2 2 0 0 0-.149.152 2 2 0 0 0-.068.174Z"/><path d="M2.035 8.822a2 2 0 0 0 .875 1.856L6 12.686V11h4.748L5.09 7.322a2 2 0 0 0-1.293-.281 2 2 0 0 0-.385.076 2 2 0 0 0-.35.15 2 2 0 0 0-.326.217 2 2 0 0 0-.265.274 2 2 0 0 0-.217.326 2 2 0 0 0-.143.354 2 2 0 0 0-.076.384ZM45.53 7.758a2 2 0 0 1 .312.469 2 2 0 0 0-.164-.317 2 2 0 0 0-.149-.152z"/><path d="M44.203 7.041a2 2 0 0 0-1.293.281L37.252 11H42v1.686l3.09-2.008a2 2 0 0 0 .904-1.703 2 2 0 0 0-.142-.723l-.01-.025a2 2 0 0 0-.313-.47 2 2 0 0 0-.265-.273 2 2 0 0 0-.327-.216 2 2 0 0 0-.35-.15 2 2 0 0 0-.384-.077Z"/></svg>