<svg xmlns="http://www.w3.org/2000/svg" width="48" height="48" viewBox="0 0 48 48"><path d="M4 7a2 2 0 0 0-2 2v30a2 2 0 0 0 2 2h20a2 2 0 0 0 2-2 2 2 0 0 0-2-2H6V11h36v13a2 2 0 0 0 2 2 2 2 0 0 0 2-2V9a2 2 0 0 0-2-2H24Z"/><path d="M3.717 7.02A2 2 0 0 0 2.4 7.8a2 2 0 0 0 .4 2.8l20 15a2 2 0 0 0 2.4 0l20-15a2 2 0 0 0 .4-2.8 2 2 0 0 0-2.8-.4L24 21.5 5.2 7.4a2 2 0 0 0-1.483-.38ZM31 33h12v8H31Z"/><path d="M31 31a2 2 0 0 0-2 2v8a2 2 0 0 0 2 2h12a2 2 0 0 0 2-2v-8a2 2 0 0 0-2-2zm2 4h8v4h-8z"/><path d="M37 25c-2.738 0-5 2.262-5 5v3a2 2 0 0 0 2 2 2 2 0 0 0 2-2v-3c0-.576.424-1 1-1s1 .424 1 1v3a2 2 0 0 0 2 2 2 2 0 0 0 2-2v-3c0-2.738-2.262-5-5-5z"/></svg>