<svg xmlns="http://www.w3.org/2000/svg" width="48" height="48" viewBox="0 0 48 48"><path d="M4 7a2 2 0 0 0-.139.027 2 2 0 0 0-.144-.007 2 2 0 0 0-.24.084 2 2 0 0 0-.362.128 2 2 0 0 0-.32.215 2 2 0 0 0-.29.26 2 2 0 0 0-.105.094 2 2 0 0 0-.107.222 2 2 0 0 0-.168.352 2 2 0 0 0-.076.377A2 2 0 0 0 2 9v30a2 2 0 0 0 2 2h20a2 2 0 0 0 2-2 2 2 0 0 0-2-2H6V13l16.8 12.6a2 2 0 0 0 2.4 0L42 13v11a2 2 0 0 0 2 2 2 2 0 0 0 2-2V9l-.006-.03a2 2 0 0 0-.142-.716l-.02-.043a2 2 0 0 0-.232-.41 2 2 0 0 0-.106-.094 2 2 0 0 0-.289-.26 2 2 0 0 0-.32-.215 2 2 0 0 0-.371-.13 2 2 0 0 0-.37-.073A2 2 0 0 0 44 7zm6 4h28L24 21.5zm28.143 14.004a2 2 0 0 0-1.932 1.101L34.764 29H32a2 2 0 0 0-1.96 2.393l2 10A2 2 0 0 0 34 43h6a2 2 0 0 0 1.96-1.607l2-10A2 2 0 0 0 42 29h-2.764l.553-1.105a2 2 0 0 0-.894-2.684 2 2 0 0 0-.752-.207zM34.439 33h5.122l-1.2 6H35.64z"/></svg>