<svg xmlns="http://www.w3.org/2000/svg" width="48" height="48" viewBox="0 0 48 48"><path d="M4 7a2 2 0 0 0-2 2v30a2 2 0 0 0 2 2h20a2 2 0 0 0 2-2 2 2 0 0 0-2-2H6V11h36v13a2 2 0 0 0 2 2 2 2 0 0 0 2-2V9a2 2 0 0 0-2-2H24Z"/><path d="M41 34a5 5 0 0 1-5 5 5 5 0 0 1-5-5 5 5 0 0 1 5-5 5 5 0 0 1 5 5z"/><path d="M36 27c-3.842 0-7 3.158-7 7s3.158 7 7 7 7-3.158 7-7-3.158-7-7-7zm0 4c1.68 0 3 1.32 3 3s-1.32 3-3 3-3-1.32-3-3 1.32-3 3-3z"/><path d="M39.717 35.02a2 2 0 0 0-1.317.78 2 2 0 0 0 .4 2.8l4 3a2 2 0 0 0 2.8-.4 2 2 0 0 0-.4-2.8l-4-3a2 2 0 0 0-1.483-.38zm-36-28A2 2 0 0 0 2.4 7.8a2 2 0 0 0 .4 2.8l20 15a2 2 0 0 0 2.4 0l20-15a2 2 0 0 0 .4-2.8 2 2 0 0 0-2.8-.4L24 21.5 5.2 7.4a2 2 0 0 0-1.483-.38Z"/></svg>