<svg xmlns="http://www.w3.org/2000/svg" width="48" height="48" viewBox="0 0 48 48"><path d="M11 3c-3.842 0-7 3.158-7 7s3.158 7 7 7c3.135 0 5.713-2.14 6.594-5h4.578l-.586.586a2 2 0 0 0 2.828 2.828l4-4a2 2 0 0 0 .518-1.25A2 2 0 0 0 29 10a2 2 0 0 0-.068-.344 2 2 0 0 0-.053-.265 2 2 0 0 0-.465-.805l-4-4a2 2 0 0 0-2.828 2.828l.586.586h-4.578c-.88-2.86-3.46-5-6.594-5Zm0 4c1.68 0 3 1.32 3 3s-1.32 3-3 3-3-1.32-3-3 1.32-3 3-3Zm26 24c-3.135 0-5.713 2.14-6.594 5h-4.578l.586-.586a2 2 0 0 0-2.828-2.828l-4 4a2 2 0 0 0 0 2.828l4 4a2 2 0 0 0 2.828-2.828L25.828 40h4.578c.88 2.86 3.46 5 6.594 5 3.842 0 7-3.158 7-7s-3.158-7-7-7zm0 4c1.68 0 3 1.32 3 3s-1.32 3-3 3-3-1.32-3-3 1.32-3 3-3zm1-31c-3.842 0-7 3.158-7 7 0 3.135 2.14 5.713 5 6.594v4.578l-.586-.586a2 2 0 0 0-2.828 2.828l4 4a2 2 0 0 0 2.828 0l4-4a2 2 0 0 0-2.828-2.828l-.586.586v-4.578c2.86-.88 5-3.46 5-6.594 0-3.842-3.158-7-7-7Zm0 4c1.68 0 3 1.32 3 3s-1.32 3-3 3-3-1.32-3-3 1.32-3 3-3zM10 19a2 2 0 0 0-1.414.586l-4 4a2 2 0 0 0 2.828 2.828L8 25.828v4.578c-2.86.88-5 3.46-5 6.594 0 3.842 3.158 7 7 7s7-3.158 7-7c0-3.135-2.14-5.713-5-6.594v-4.578l.586.586a2 2 0 0 0 2.828-2.828l-4-4A2 2 0 0 0 10 19Zm0 15c1.68 0 3 1.32 3 3s-1.32 3-3 3-3-1.32-3-3 1.32-3 3-3z"/></svg>