<svg xmlns="http://www.w3.org/2000/svg" width="48" height="48" viewBox="0 0 48 48"><path d="M32 4a2 2 0 0 0-2 2 2 2 0 0 0 2 2h6a2 2 0 0 0 2-2 2 2 0 0 0-2-2ZM6 26a2 2 0 0 0-2 2v8a2 2 0 0 0 2 2h4a2 2 0 0 0 2-2 2 2 0 0 0-2-2H8v-4h22v4H18a2 2 0 0 0-2 2 2 2 0 0 0 2 2h14a2 2 0 0 0 2-2v-8a2 2 0 0 0-2-2z"/><path d="M32 10a2 2 0 0 0-2 2v24a2 2 0 0 0 2 2 2 2 0 0 0 2-2V14h3.217L42 24.436V34h-1a2 2 0 0 0-2 2 2 2 0 0 0 2 2h3a2 2 0 0 0 2-2V24a2 2 0 0 0-.182-.834l-5.5-12A2 2 0 0 0 38.5 10ZM4 8h22v14H7Z"/><path d="M4 6a2 2 0 0 0-1.955 2.42l3 14A2 2 0 0 0 7 24h19a2 2 0 0 0 2-2V8a2 2 0 0 0-2-2Zm2.475 4H24v10H8.617ZM41 38a4 4 0 0 1-4 4 4 4 0 0 1-4-4 4 4 0 0 1 4-4 4 4 0 0 1 4 4z"/><path d="M37 32c-3.29 0-6 2.71-6 6s2.71 6 6 6 6-2.71 6-6-2.71-6-6-6zm0 4c1.128 0 2 .872 2 2s-.872 2-2 2-2-.872-2-2 .872-2 2-2zm-19 2a4 4 0 0 1-4 4 4 4 0 0 1-4-4 4 4 0 0 1 4-4 4 4 0 0 1 4 4z"/><path d="M14 32c-3.29 0-6 2.71-6 6s2.71 6 6 6 6-2.71 6-6-2.71-6-6-6zm0 4c1.128 0 2 .872 2 2s-.872 2-2 2-2-.872-2-2 .872-2 2-2z"/></svg>