<svg xmlns="http://www.w3.org/2000/svg" width="48" height="48" viewBox="0 0 48 48"><path d="M22 2a2 2 0 0 0-2 2 2 2 0 0 0 2 2h1.172l-5.586 5.586a2 2 0 0 0 0 2.828 2 2 0 0 0 2.828 0L26 8.828V10a2 2 0 0 0 2 2 2 2 0 0 0 2-2V4a2 2 0 0 0-.049-.428l-.006-.031a2 2 0 0 0-.142-.408l-.008-.012a2 2 0 0 0-.217-.348l-.027-.033a2 2 0 0 0-.137-.154l-.076-.059a2 2 0 0 0-.244-.187 2 2 0 0 0-.155-.098 2 2 0 0 0-.306-.127 2 2 0 0 0-.15-.05A2 2 0 0 0 28 2zm13 9a2 2 0 0 0-1.414.586L12.172 33H4a2 2 0 0 0-2 2v9a2 2 0 0 0 2 2h9a2 2 0 0 0 1.414-.586L35.828 24H44a2 2 0 0 0 2-2v-9a2 2 0 0 0-2-2zm.828 4H42v5h-7a2 2 0 0 0-1.414.586L12.172 42H6v-5h7a2 2 0 0 0 1.414-.586zM14 16a2 2 0 0 0-1.414.586L7 22.172V21a2 2 0 0 0-2-2 2 2 0 0 0-2 2v6a2 2 0 0 0 .064.482 2 2 0 0 0 .051.15 2 2 0 0 0 .127.307 2 2 0 0 0 .098.155 2 2 0 0 0 .187.244l.059.076.076.059a2 2 0 0 0 .244.187 2 2 0 0 0 .155.098 2 2 0 0 0 .306.127 2 2 0 0 0 .15.05A2 2 0 0 0 5 29h6a2 2 0 0 0 2-2 2 2 0 0 0-2-2H9.828l5.586-5.586a2 2 0 0 0 0-2.828A2 2 0 0 0 14 16z"/></svg>