<svg xmlns="http://www.w3.org/2000/svg" width="48" height="48" viewBox="0 0 48 48"><path d="M24.213 1.627a4 4 0 0 0-2.828 1.16L3 21.172c-1.545 1.545-1.545 4.11 0 5.656l18.385 18.385c1.545 1.545 4.11 1.545 5.656 0l18.385-18.385c1.545-1.545 1.545-4.11 0-5.656L27.04 2.787a4 4 0 0 0-2.828-1.16zm0 3.988L42.598 24 24.213 42.385 5.828 24zm-6.16 10.4a2 2 0 0 0-1.414.587 2 2 0 0 0 0 2.828l4.574 4.574-4.582 4.566a2 2 0 0 0-.004 2.828 2 2 0 0 0 2.828.006l4.586-4.572 4.578 4.578a2 2 0 0 0 2.828 0 2 2 0 0 0 0-2.828l-4.574-4.574 4.582-4.567a2 2 0 0 0 .004-2.828 2 2 0 0 0-1.414-.588 2 2 0 0 0-1.414.584l-4.586 4.57-4.578-4.577a2 2 0 0 0-1.414-.586z"/></svg>