<svg xmlns="http://www.w3.org/2000/svg" width="48" height="48" viewBox="0 0 48 48"><path d="M7 5C4.815 5 3 6.815 3 9v30c0 2.185 1.815 4 4 4h21.47a2 2 0 0 0 2-2 2 2 0 0 0-2-2H7V9h34v13a2 2 0 0 0 2 2 2 2 0 0 0 2-2V9c0-2.185-1.815-4-4-4zm15.818 8.006a2 2 0 0 0-1.355.713L18 17.875l-3.463-4.156a2 2 0 0 0-1.355-.711 2 2 0 0 0-1.463.455 2 2 0 0 0-.256 2.818L13.729 19H12a2 2 0 0 0-2 2 2 2 0 0 0 2 2h4v2h-4a2 2 0 0 0-2 2 2 2 0 0 0 2 2h4v4a2 2 0 0 0 2 2 2 2 0 0 0 2-2v-4h4a2 2 0 0 0 2-2 2 2 0 0 0-2-2h-4v-2h4a2 2 0 0 0 2-2 2 2 0 0 0-2-2h-1.729l2.266-2.719a2 2 0 0 0-.256-2.818 2 2 0 0 0-1.463-.457zM30 24a2 2 0 0 0-1.414.586 2 2 0 0 0 0 2.828L32.172 31l-3.586 3.586a2 2 0 0 0 0 2.828 2 2 0 0 0 2.828 0l5-5a2 2 0 0 0 0-2.828l-5-5A2 2 0 0 0 30 24zm8 0a2 2 0 0 0-1.414.586 2 2 0 0 0 0 2.828L40.172 31l-3.586 3.586a2 2 0 0 0 0 2.828 2 2 0 0 0 2.828 0l5-5a2 2 0 0 0 0-2.828l-5-5A2 2 0 0 0 38 24z"/></svg>