<svg xmlns="http://www.w3.org/2000/svg" width="48" height="48" viewBox="0 0 48 48"><path d="M9 4C6.265 4 4 6.265 4 9v30c0 2.735 2.265 5 5 5h30c2.735 0 5-2.265 5-5V9c0-2.735-2.265-5-5-5zm0 4h30c.589 0 1 .411 1 1v30c0 .589-.411 1-1 1H9c-.589 0-1-.411-1-1V9c0-.589.411-1 1-1zm5 6a2 2 0 0 0-2 2v16a2 2 0 0 0 2 2 2 2 0 0 0 2-2v-6h5a2 2 0 0 0 2-2 2 2 0 0 0-2-2h-5v-4h5a2 2 0 0 0 2-2 2 2 0 0 0-2-2zm13 0a2 2 0 0 0-2 2 2 2 0 0 0 2 2h3.219l-2.772 4.074A2 2 0 0 0 29.1 25.2c.971 0 1.667.296 2.129.73.46.436.771 1.038.771 2.071 0 1.056-.274 1.41-.533 1.645-.26.235-.661.355-.967.355-.867 0-1.608-.69-1.71-.895a2 2 0 0 0-2.685-.894 2 2 0 0 0-.894 2.684C26.108 32.69 28.033 34 30.5 34c1.194 0 2.542-.38 3.658-1.395C35.274 31.591 36 29.945 36 28c0-1.967-.739-3.765-2.027-4.98-.475-.448-1.064-.724-1.645-1.006l3.326-4.889A2 2 0 0 0 34 14z"/></svg>