<svg xmlns="http://www.w3.org/2000/svg" width="48" height="48" viewBox="0 0 48 48"><path d="M9 4C6.265 4 4 6.265 4 9v30c0 2.735 2.265 5 5 5h30c2.735 0 5-2.265 5-5V9c0-2.735-2.265-5-5-5zm0 4h30c.589 0 1 .411 1 1v30c0 .589-.411 1-1 1H9c-.589 0-1-.411-1-1V9c0-.589.411-1 1-1zm5 6a2 2 0 0 0-2 2v16a2 2 0 0 0 2 2 2 2 0 0 0 2-2v-6h5a2 2 0 0 0 2-2 2 2 0 0 0-2-2h-5v-4h5a2 2 0 0 0 2-2 2 2 0 0 0-2-2zm16 0c-3.29 0-6 2.71-6 6v8c0 3.29 2.71 6 6 6s6-2.71 6-6v-8c0-3.29-2.71-6-6-6zm0 4c1.143 0 2 .857 2 2v8c0 1.143-.857 2-2 2s-2-.857-2-2v-8c0-1.143.857-2 2-2z"/></svg>