<svg xmlns="http://www.w3.org/2000/svg" width="48" height="48" viewBox="0 0 48 48"><path d="M9 8c-.576 0-1 .424-1 1v30c0 .576.424 1 1 1h30c.576 0 1-.424 1-1V9c0-.576-.424-1-1-1Zm17.572 2.047A2 2 0 0 1 29 12v2.605c1.387.493 3.061 1.18 4.744 2.516C36.007 18.917 38 21.897 38 26c0 4.071-1.88 7.298-4.578 9.246C30.725 37.194 27.333 38 24 38s-6.725-.806-9.422-2.754S10 30.071 10 26c0-4.806 2.908-8.572 6.287-11.152s7.302-4.148 10.285-4.801z"/><path d="M9 6a3 3 0 0 0-3 3v30a3 3 0 0 0 3 3h30a3 3 0 0 0 3-3V9a3 3 0 0 0-3-3Zm0 2h30c.576 0 1 .424 1 1v30c0 .576-.424 1-1 1H9c-.576 0-1-.424-1-1V9c0-.576.424-1 1-1Z"/><path d="M9 4C6.262 4 4 6.262 4 9v30c0 2.738 2.262 5 5 5h30c2.738 0 5-2.262 5-5V9c0-2.738-2.262-5-5-5Zm0 2h30a3 3 0 0 1 3 3v30a3 3 0 0 1-3 3H9a3 3 0 0 1-3-3V9a3 3 0 0 1 3-3Z"/><path d="M25 14.781c-2.054.73-4.307 1.734-6.287 3.246C15.926 20.156 14 22.806 14 26c0 2.929 1.12 4.702 2.922 6.004S21.333 34 24 34s5.275-.694 7.078-1.996S34 28.929 34 26c0-2.897-1.172-4.5-2.742-5.746s-3.561-1.942-4.854-2.346A2 2 0 0 1 25 16ZM19 22a3 4 0 0 1 3 4 3 4 0 0 1-3 4 3 4 0 0 1-3-4 3 4 0 0 1 3-4zm10 0a3 4 0 0 1 3 4 3 4 0 0 1-3 4 3 4 0 0 1-3-4 3 4 0 0 1 3-4z"/></svg>