<svg xmlns="http://www.w3.org/2000/svg" width="48" height="48" viewBox="0 0 48 48"><path d="M24 2C11.873 2 2 11.873 2 24s9.873 22 22 22 22-9.873 22-22S36.127 2 24 2zm0 4c9.965 0 18 8.035 18 18s-8.035 18-18 18S6 33.965 6 24 14.035 6 24 6zm-7 8c-3.29 0-6 2.71-6 6s2.71 6 6 6 6-2.71 6-6-2.71-6-6-6zm14 0c-3.29 0-6 2.71-6 6s2.71 6 6 6 6-2.71 6-6-2.71-6-6-6zm-14 4c1.128 0 2 .872 2 2s-.872 2-2 2-2-.872-2-2 .872-2 2-2zm14 0c1.128 0 2 .872 2 2s-.872 2-2 2-2-.872-2-2 .872-2 2-2zM17.121 29.004a2 2 0 0 0-1.016.207 2 2 0 0 0-.894 2.684S17.933 37 24 37s8.79-5.105 8.79-5.105a2 2 0 0 0-.895-2.684 2 2 0 0 0-2.684.894S27.933 33 24 33s-5.21-2.895-5.21-2.895a2 2 0 0 0-1.157-1.001 2 2 0 0 0-.512-.1z"/></svg>