<svg xmlns="http://www.w3.org/2000/svg" width="48" height="48" viewBox="0 0 48 48"><path d="M36 12.6h-6.013c-1.086 0-1.967.88-1.967 1.967v6.9H36l-1.169 7.597h-6.81V43h-8.776V29.064H12v-7.597h7.152l.093-7.21-.013-1.31A7.87 7.87 0 0 1 27.099 5H36Z"/><path d="M27 3.1c-5.372.054-9.722 4.495-9.668 9.867l.014 1.287-.07 5.314H12a1.9 1.9 0 0 0-1.9 1.899v7.597a1.9 1.9 0 0 0 1.9 1.9h5.346V43a1.9 1.9 0 0 0 1.898 1.9h8.776a1.9 1.9 0 0 0 1.9-1.9V30.965h4.912a1.9 1.9 0 0 0 1.877-1.611l1.168-7.598A1.9 1.9 0 0 0 36 19.568h-6.08v-5.002c0-.06.007-.066.066-.066H36a1.9 1.9 0 0 0 1.9-1.9V5A1.9 1.9 0 0 0 36 3.1zm.04 3.8h7.06v3.8h-4.114c-2.113 0-3.865 1.753-3.865 3.866v6.9a1.9 1.9 0 0 0 1.899 1.901h5.765l-.584 3.797H28.02a1.9 1.9 0 0 0-1.899 1.9V41.1h-4.976V29.064a1.9 1.9 0 0 0-1.9-1.9H13.9v-3.797h5.252a1.9 1.9 0 0 0 1.899-1.875l.094-7.21v-.046l-.014-1.308A5.94 5.94 0 0 1 27.039 6.9z"/></svg>