<svg xmlns="http://www.w3.org/2000/svg" width="48" height="48" viewBox="0 0 48 48"><path d="M6 4a2 2 0 0 0-1.414.586 2 2 0 0 0 0 2.828l.768.768A4.9 4.9 0 0 0 5 10v28c0 2.735 2.265 5 5 5h28c.64 0 1.253-.128 1.818-.354l.768.768a2 2 0 0 0 2.828 0 2 2 0 0 0 0-2.828l-.768-.768A4.9 4.9 0 0 0 43 38V10c0-2.735-2.265-5-5-5H10c-.64 0-1.253.128-1.818.354l-.768-.768A2 2 0 0 0 6 4zm5.828 5H38c.589 0 1 .411 1 1v12l-3.412-2.559a4 4 0 0 0-2.684-.783 4 4 0 0 0-2.545 1.154l-3.859 3.86-7.02-7.018zM9 11.828l6.102 6.102L9 23.479zm8.936 8.936L36.172 39H10c-.589 0-1-.411-1-1v-9.115zm15.252 1.877L39 27v9.172L29.328 26.5z"/></svg>