<svg xmlns="http://www.w3.org/2000/svg" width="48" height="48" viewBox="0 0 48 48"><path d="M23.688 3.025a2 2 0 0 0-1.102.56l-7 7a2 2 0 0 0 0 2.83l7 7a2 2 0 0 0 2.828 0l7-7a2 2 0 0 0 0-2.83l-7-7a2 2 0 0 0-1.727-.56zM24 7.828 28.172 12 24 16.172 19.828 12zm-12.312 7.197a2 2 0 0 0-1.102.56l-7 7a2 2 0 0 0 0 2.83l7 7a2 2 0 0 0 2.828 0l7-7a2 2 0 0 0 0-2.83l-7-7a2 2 0 0 0-1.726-.56zm24 0a2 2 0 0 0-1.102.56l-7 7a2 2 0 0 0 0 2.83l7 7a2 2 0 0 0 2.828 0l7-7a2 2 0 0 0 0-2.83l-7-7a2 2 0 0 0-1.727-.56zM12 19.828 16.172 24 12 28.172 7.828 24zm24 0L40.172 24 36 28.172 31.828 24zm-12.312 7.197a2 2 0 0 0-1.102.56l-7 7a2 2 0 0 0 0 2.83l7 7a2 2 0 0 0 2.828 0l7-7a2 2 0 0 0 0-2.83l-7-7a2 2 0 0 0-1.727-.56zM24 31.828 28.172 36 24 40.172 19.828 36z"/></svg>