<svg xmlns="http://www.w3.org/2000/svg" width="48" height="48" viewBox="0 0 48 48"><path d="M24 2a21.85 21.85 0 0 0-10.916 2.914l-.086.031a22 22 0 0 0-2.97 2.078l-.02.014a22 22 0 0 0-2.908 2.9l-.12.143a22 22 0 0 0-4.271 8.375l-.03.111q-.127.5-.232 1.006-.098.49-.176.987-.016.098-.03.197-.07.464-.12.935l-.006.051-.008.096q-.045.461-.07.928l-.012.218Q2.001 23.49 2 24q.001.51.025 1.016l.012.218q.025.466.07.928l.006.084.002.012.006.05q.05.472.12.936.014.1.03.197.078.497.176.987.105.507.233 1.006l.029.11q.268 1.027.629 2.01A22 22 0 0 0 6.98 37.92l.12.142a22 22 0 0 0 2.908 2.9l.02.015a22 22 0 0 0 2.97 2.078l.086.03A21.85 21.85 0 0 0 24 46c12.127 0 22-9.873 22-22S36.127 2 24 2zm0 4c9.965 0 18 8.035 18 18s-8.035 18-18 18a18 18 0 0 1-6.02-1.03C22.874 36.934 26 30.826 26 24s-3.126-12.933-8.02-16.97A18 18 0 0 1 24 6zM14 9.172c4.782 3.234 8 8.605 8 14.828s-3.218 11.594-8 14.828c-4.18-2.827-7.165-7.288-7.85-12.523q0-.015-.004-.03a18 18 0 0 1-.095-.974l-.016-.225A18 18 0 0 1 6 24q.002-.542.035-1.076l.016-.225q.035-.492.095-.974l.004-.03C6.835 16.46 9.82 12 14 9.172z"/></svg>