<svg xmlns="http://www.w3.org/2000/svg" width="48" height="48" viewBox="0 0 48 48"><path d="m17 12 7-7 7 7-7 7z"/><path d="m22.586 3.586-7 7a2 2 0 0 0 0 2.828l7 7a2 2 0 0 0 2.828 0l7-7a2 2 0 0 0 0-2.828l-7-7a2 2 0 0 0-2.828 0zM24 7.828 28.172 12 24 16.172 19.828 12ZM17 36l7-7 7 7-7 7z"/><path d="m22.586 27.586-7 7a2 2 0 0 0 0 2.828l7 7a2 2 0 0 0 2.828 0l7-7a2 2 0 0 0 0-2.828l-7-7a2 2 0 0 0-2.828 0zM24 31.828 28.172 36 24 40.172 19.828 36ZM29 24l7-7 7 7-7 7z"/><path d="m34.586 15.586-7 7a2 2 0 0 0 0 2.828l7 7a2 2 0 0 0 2.828 0l7-7a2 2 0 0 0 0-2.828l-7-7a2 2 0 0 0-2.828 0zM36 19.828 40.172 24 36 28.172 31.828 24ZM5 24l7-7 7 7-7 7z"/><path d="m10.586 15.586-7 7a2 2 0 0 0 0 2.828l7 7a2 2 0 0 0 2.828 0l7-7a2 2 0 0 0 0-2.828l-7-7a2 2 0 0 0-2.828 0zM12 19.828 16.172 24 12 28.172 7.828 24Z"/></svg>