<svg xmlns="http://www.w3.org/2000/svg" width="48" height="48" viewBox="0 0 48 48"><path d="M24 2C11.873 2 2 11.873 2 24s9.873 22 22 22 22-9.873 22-22S36.127 2 24 2Zm0 4c9.965 0 18 8.035 18 18s-8.035 18-18 18S6 33.965 6 24 14.035 6 24 6Z"/><path d="M14 41.324C19.978 37.866 24 31.403 24 24S19.978 10.134 14 6.676C8.022 10.134 4 16.597 4 24s4.022 13.866 10 17.324Z"/><path d="M12.998 4.945C6.422 8.75 2 15.873 2 24s4.422 15.25 10.998 19.055a2 2 0 0 0 2.004 0C21.578 39.25 26 32.127 26 24S21.578 8.75 15.002 4.945a2 2 0 0 0-2.004 0zM14 9.172c4.782 3.234 8 8.605 8 14.828s-3.218 11.594-8 14.828C9.218 35.594 6 30.223 6 24s3.218-11.594 8-14.828Z"/></svg>