<svg xmlns="http://www.w3.org/2000/svg" width="48" height="48" viewBox="0 0 48 48"><path d="M10 2C7.815 2 6 3.815 6 6v36c0 2.185 1.815 4 4 4h12a2 2 0 0 0 2-2 2 2 0 0 0-2-2H10V6h20.11L38 14.768V23a2 2 0 0 0 2 2 2 2 0 0 0 2-2v-9a2 2 0 0 0-.514-1.338l-9-10A2 2 0 0 0 31 2Z"/><path d="M28 34h14v8H28Z"/><path d="M28 32a2 2 0 0 0-2 2v8a2 2 0 0 0 2 2h14a2 2 0 0 0 2-2v-8a2 2 0 0 0-2-2zm2 4h10v4H30Z"/><path d="M35 26c-2.738 0-5 2.262-5 5v3a2 2 0 0 0 2 2 2 2 0 0 0 2-2v-3c0-.576.424-1 1-1s1 .424 1 1v3a2 2 0 0 0 2 2 2 2 0 0 0 2-2v-3c0-2.738-2.262-5-5-5zM30 2a2 2 0 0 0-2 2v10a2 2 0 0 0 2 2h10a2 2 0 0 0 2-2 2 2 0 0 0-2-2h-8V4a2 2 0 0 0-2-2Z"/></svg>