<svg xmlns="http://www.w3.org/2000/svg" width="48" height="48" viewBox="0 0 48 48"><path d="M22 25h4v-2c0-.426-.166-1.028-.445-1.383-.28-.354-.576-.617-1.555-.617-.98 0-1.275.263-1.555.617-.28.355-.445.957-.445 1.383Z"/><path d="M10 2C7.815 2 6 3.815 6 6v36c0 2.185 1.815 4 4 4h28c2.185 0 4-1.815 4-4V14a2 2 0 0 0-.172-.793 2 2 0 0 0-.414-.621l-10-10A2 2 0 0 0 30 2Zm22 6.828L35.172 12H32ZM24 17c2.02 0 3.725.91 4.695 2.14C29.665 20.373 30 21.77 30 23v2h1a2 2 0 0 1 2 2v8a2 2 0 0 1-2 2H17a2 2 0 0 1-2-2v-8a2 2 0 0 1 2-2h1v-2c0-1.23.334-2.628 1.305-3.86C20.275 17.91 21.979 17 24 17Z"/><path d="M28 29h-9v4h10v-4z"/></svg>