<svg xmlns="http://www.w3.org/2000/svg" width="48" height="48" viewBox="0 0 48 48"><path d="M10 2C7.815 2 6 3.815 6 6v36c0 2.185 1.815 4 4 4h12a2 2 0 0 0 2-2 2 2 0 0 0-2-2H10V6h20.11L38 14.768V23a2 2 0 0 0 2 2 2 2 0 0 0 2-2v-9a2 2 0 0 0-.514-1.338l-9-10A2 2 0 0 0 31 2Z"/><path d="M39 36a5 5 0 0 1-5 5 5 5 0 0 1-5-5 5 5 0 0 1 5-5 5 5 0 0 1 5 5z"/><path d="M34 29c-3.842 0-7 3.158-7 7s3.158 7 7 7 7-3.158 7-7-3.158-7-7-7zm0 4c1.68 0 3 1.32 3 3s-1.32 3-3 3-3-1.32-3-3 1.32-3 3-3z"/><path d="M34 26a2 2 0 0 0-2 2v3a2 2 0 0 0 2 2 2 2 0 0 0 2-2v-3a2 2 0 0 0-2-2zm0 13a2 2 0 0 0-2 2v3a2 2 0 0 0 2 2 2 2 0 0 0 2-2v-3a2 2 0 0 0-2-2z"/><path d="m38.414 28.586-2.121 2.121a2 2 0 0 0 0 2.828 2 2 0 0 0 2.828 0l2.121-2.12a2 2 0 0 0 0-2.83 2 2 0 0 0-2.828 0zM29.828 38a2 2 0 0 0-1.414.586l-2.121 2.121a2 2 0 0 0 0 2.828 2 2 0 0 0 2.828 0l2.121-2.12a2 2 0 0 0 0-2.83A2 2 0 0 0 29.828 38Zm-3.242-9.414a2 2 0 0 0 0 2.828l2.121 2.121a2 2 0 0 0 2.828 0 2 2 0 0 0 0-2.828l-2.12-2.121a2 2 0 0 0-2.83 0zm10 10a2 2 0 0 0 0 2.828l2.121 2.121a2 2 0 0 0 2.828 0 2 2 0 0 0 0-2.828l-2.12-2.121a2 2 0 0 0-2.83 0z"/><path d="M26 34a2 2 0 0 0-2 2 2 2 0 0 0 2 2h3a2 2 0 0 0 2-2 2 2 0 0 0-2-2h-1.5zm13 0a2 2 0 0 0-2 2 2 2 0 0 0 2 2h3a2 2 0 0 0 2-2 2 2 0 0 0-2-2h-1.5zM30 2a2 2 0 0 0-2 2v10a2 2 0 0 0 2 2h10a2 2 0 0 0 2-2 2 2 0 0 0-2-2h-8V4a2 2 0 0 0-2-2Z"/></svg>