<svg xmlns="http://www.w3.org/2000/svg" width="48" height="48" viewBox="0 0 48 48"><path d="M10 2C7.815 2 6 3.815 6 6v36c0 2.185 1.815 4 4 4h12a2 2 0 0 0 2-2 2 2 0 0 0-2-2H10V6h20.11L38 14.768V23a2 2 0 0 0 2 2 2 2 0 0 0 2-2v-9a2 2 0 0 0-.514-1.338l-9-10A2 2 0 0 0 31 2Z"/><path d="M27 31.2c0-1.067 7-3.2 7-3.2s7 2.133 7 3.2c0 8.533-7 12.8-7 12.8s-7-4.267-7-12.8z"/><path d="M33.416 26.086s-1.796.546-3.629 1.244c-.916.35-1.839.73-2.635 1.154-.398.213-.762.425-1.136.739-.375.313-1.016.75-1.016 1.976 0 9.627 7.959 14.508 7.959 14.508a2 2 0 0 0 2.082 0S43 40.827 43 31.199c0-1.227-.641-1.663-1.016-1.976-.374-.314-.738-.526-1.136-.739-.796-.424-1.719-.805-2.635-1.154a63 63 0 0 0-3.629-1.244 2 2 0 0 0-1.168 0zM34 30.113c.445.14 1.409.43 2.787.955.816.311 1.615.655 2.133.928-.31 5.007-3.285 8.167-4.92 9.512-1.635-1.345-4.61-4.505-4.92-9.512.519-.273 1.317-.617 2.133-.928 1.378-.525 2.342-.816 2.787-.955ZM30 2a2 2 0 0 0-2 2v10a2 2 0 0 0 2 2h10a2 2 0 0 0 2-2 2 2 0 0 0-2-2h-8V4a2 2 0 0 0-2-2Z"/></svg>