<svg xmlns="http://www.w3.org/2000/svg" width="48" height="48" viewBox="0 0 48 48"><path d="M10 6v36h28V14.828L29.172 6Zm6.37 12.033a2 2 0 0 1 1.595 1.547l1.805 8.424 2.449-4.899a2 2 0 0 1 3.578 0l2.451 4.9 1.805-8.425a2 2 0 0 1 2.375-1.535 2 2 0 0 1 1.537 2.375l-3 14a2 2 0 0 1-3.746.475l-3.211-6.422-3.211 6.422a2 2 0 0 1-3.744-.475l-3-14a2 2 0 0 1 1.537-2.375 2 2 0 0 1 .78-.012z"/><path d="M10 4a2 2 0 0 0-2 2v36a2 2 0 0 0 2 2h28a2 2 0 0 0 2-2V14L30 4Zm0 2h19.172L38 14.828V42H10Z"/><path d="M10 2C7.815 2 6 3.815 6 6v36c0 2.185 1.815 4 4 4h28c2.185 0 4-1.815 4-4V14a2 2 0 0 0-.586-1.414l-10-10A2 2 0 0 0 30 2Zm0 2h20l10 10v28a2 2 0 0 1-2 2H10a2 2 0 0 1-2-2V6a2 2 0 0 1 2-2Z"/></svg>