<svg xmlns="http://www.w3.org/2000/svg" width="48" height="48" viewBox="0 0 48 48"><path d="M10 2C7.815 2 6 3.815 6 6v36c0 2.185 1.815 4 4 4h28c2.185 0 4-1.815 4-4V14l-.002-.01a2 2 0 0 0-.15-.756l-.002-.004a2 2 0 0 0-.432-.644l-10-10a2 2 0 0 0-.576-.385 2 2 0 0 0-.158-.066A2 2 0 0 0 30 2zm0 4h18v8a2 2 0 0 0 2 2h8v26H10zm22 2.828L35.172 12H32zM18 20a2 2 0 0 0-1.414.586 2 2 0 0 0 0 2.828L21.172 28l-4.586 4.586a2 2 0 0 0 0 2.828 2 2 0 0 0 2.828 0L24 30.828l4.586 4.586a2 2 0 0 0 2.828 0 2 2 0 0 0 0-2.828L26.828 28l4.586-4.586a2 2 0 0 0 0-2.828A2 2 0 0 0 30 20a2 2 0 0 0-1.414.586L24 25.172l-4.586-4.586A2 2 0 0 0 18 20z"/></svg>