<svg xmlns="http://www.w3.org/2000/svg" width="48" height="48" viewBox="0 0 48 48"><path d="M9 8c-.589 0-1 .411-1 1v30c0 .589.411 1 1 1h30c.589 0 1-.411 1-1V9c0-.589-.411-1-1-1Zm5 4h20a2 2 0 0 1 1.414.586 2 2 0 0 1 .414.621l.026.06A2 2 0 0 1 36 14v20a2 2 0 0 1-2 2H14a2 2 0 0 1-2-2V14a2 2 0 0 1 2-2z"/><path d="M9 6C7.338 6 6 7.338 6 9v30c0 1.662 1.338 3 3 3h30c1.662 0 3-1.338 3-3V9c0-1.662-1.338-3-3-3Zm0 2h30c.589 0 1 .411 1 1v30c0 .589-.411 1-1 1H9c-.589 0-1-.411-1-1V9c0-.589.411-1 1-1Z"/><path d="M9 4C6.265 4 4 6.265 4 9v30c0 2.735 2.265 5 5 5h30c2.735 0 5-2.265 5-5V9c0-2.735-2.265-5-5-5Zm0 2h30c1.662 0 3 1.338 3 3v30c0 1.662-1.338 3-3 3H9c-1.662 0-3-1.338-3-3V9c0-1.662 1.338-3 3-3Z"/><path d="M32 27.828 27.828 32H32Zm0-9L18.828 32h3.344L32 22.172Zm-16 1.344L20.172 16H16ZM25.828 16 16 25.828v3.344L29.172 16Z"/></svg>