<svg xmlns="http://www.w3.org/2000/svg" width="48" height="48" viewBox="0 0 48 48"><path d="M4 5a2 2 0 0 0-2 2 2 2 0 0 0 2 2h40a2 2 0 0 0 2-2 2 2 0 0 0-2-2zm27.5 10C25.725 15 21 19.725 21 25.5S25.725 36 31.5 36c1.908 0 3.7-.519 5.246-1.418l5.834 5.877a2 2 0 0 0 2.828.012 2 2 0 0 0 .012-2.83l-5.652-5.692A10.44 10.44 0 0 0 42 25.5C42 19.725 37.275 15 31.5 15zm0 4a6.47 6.47 0 0 1 6.5 6.5 6.47 6.47 0 0 1-6.5 6.5 6.47 6.47 0 0 1-6.5-6.5 6.47 6.47 0 0 1 6.5-6.5zM4 21a2 2 0 0 0-2 2 2 2 0 0 0 2 2h11a2 2 0 0 0 2-2 2 2 0 0 0-2-2zm0 16a2 2 0 0 0-2 2 2 2 0 0 0 2 2h11a2 2 0 0 0 2-2 2 2 0 0 0-2-2z"/></svg>