<svg xmlns="http://www.w3.org/2000/svg" width="48" height="48" viewBox="0 0 48 48"><path d="M24 2C11.873 2 2 11.873 2 24c0 7.486 3.766 14.11 9.498 18.086a2 2 0 0 0 .922.605A21.86 21.86 0 0 0 24 46c12.127 0 22-9.873 22-22a2 2 0 0 0-2-2 2 2 0 0 0-2 2c0 4.844-1.903 9.228-5 12.459V31c0-2.456-.985-4.499-2.326-5.86-.803-.814-1.71-1.42-2.674-1.775V19c0-4.397-3.603-8-8-8s-8 3.603-8 8v4.365c-.964.356-1.87.96-2.674 1.776C11.986 26.5 11 28.544 11 31v5.459C7.903 33.229 6 28.844 6 24c0-9.965 8.035-18 18-18a2 2 0 0 0 2-2 2 2 0 0 0-2-2zm14 1-1.797 5.527h-5.812l4.703 3.416-1.797 5.53L38 14.057l4.703 3.416-1.797-5.53 4.703-3.416h-5.812zM24 15c2.25 0 4 1.75 4 4v12c0 2.25-1.75 4-4 4s-4-1.75-4-4V19c0-2.25 1.75-4 4-4zm-8 13.139V31c0 4.397 3.603 8 8 8s8-3.603 8-8v-2.861c.573.657 1 1.564 1 2.861v8.598A17.95 17.95 0 0 1 24 42c-3.283 0-6.354-.876-9-2.402V31c0-1.297.427-2.204 1-2.861z"/></svg>