<svg xmlns="http://www.w3.org/2000/svg" width="48" height="48" viewBox="0 0 48 48"><g clip-path="url(#a)"><path d="M31.969 5c-2.963.01-6.28.507-9.05 2.295q-.139.089-.276.184l-.057.037q-.156.108-.31.222l-.01.008q-.25.185-.49.387l-.094.076-.063.053c-2.423.07-5.001.457-7.244 1.101-1.256.362-2.405.797-3.398 1.373s-1.939 1.28-2.403 2.555c-.383 1.054-.107 2.19.354 2.969s1.083 1.365 1.8 1.902c1.282.96 2.916 1.749 4.749 2.344-.231.92-.448 1.836-.64 2.726a83 83 0 0 0-1.212 7.301 14.7 14.7 0 0 0-3.033.041c-1.722.207-3.342.725-4.66 1.541-.66.408-1.286.924-1.715 1.729s-.506 1.963-.123 2.865c.67 1.58 2.134 2.44 4.14 3.281.842 2.007 1.702 3.47 3.282 4.14.902.384 2.06.307 2.865-.122.805-.43 1.32-1.056 1.728-1.715 1.281-2.069 1.825-4.878 1.584-7.662a72 72 0 0 0 6.909-1.096 67 67 0 0 0 3.13-.742c.594 1.814 1.378 3.432 2.33 4.703.538.718 1.125 1.34 1.903 1.8.778.462 1.915.738 2.969.354 1.275-.464 1.978-1.408 2.554-2.402s1.014-2.142 1.375-3.398c.642-2.233 1.028-4.798 1.102-7.211l.086-.09.027-.031q.281-.304.535-.62.083-.102.162-.207a12 12 0 0 0 .528-.73q.168-.256.322-.516.083-.138.162-.277.146-.261.277-.525.055-.107.108-.215.18-.377.336-.756l.023-.065q.153-.38.282-.763l.01-.033.09-.28a2 2 0 0 0 .042-.17c.69-2.351.772-4.774.6-6.87-.328-3.984-1.567-7.128-1.567-7.128a2 2 0 0 0-1.299-1.191s-3.209-.948-7.185-1.137A30 30 0 0 0 31.969 5zm.039 4.004q.659-.006 1.306.025c2.509.12 4.257.504 5.25.748.313.951.805 2.62 1.004 5.041.152 1.84.066 3.781-.49 5.565q-.06.19-.127.377l-.078.217q-.047.123-.098.244a8.6 8.6 0 0 1-1.44 2.353c-1.893-.47-6.091-1.734-8.52-4.164-2.397-2.396-3.665-6.524-4.15-8.453 1.924-1.397 4.668-1.925 7.343-1.953zm1.615 3.46a2 2 0 0 0-1.271.58 2 2 0 0 0 0 2.829 2 2 0 0 0 2.828 0 2 2 0 0 0 0-2.828 2 2 0 0 0-1.557-.58zm-15.305.13c-.674 1.271-1.241 2.65-1.726 4.068-1.445-.488-2.703-1.13-3.465-1.701-.298-.223-.388-.356-.514-.502.09-.089.046-.074.37-.262.57-.33 1.46-.691 2.497-.99a24 24 0 0 1 2.838-.613zm3.338 2.463c.822 2.284 2.165 5.016 4.33 7.181 2.158 2.158 4.88 3.498 7.159 4.32-2.782 1.372-6.237 2.407-9.364 3.063-3.297.692-4.604.733-6.02.865.16-1.476.25-2.964.989-6.416.661-3.086 1.683-6.433 2.906-9.013zm13.99 14.763a24 24 0 0 1-.628 2.924c-.299 1.038-.66 1.928-.99 2.498-.188.324-.173.28-.262.37-.146-.127-.28-.217-.502-.514-.572-.763-1.213-2.023-1.702-3.47a29.4 29.4 0 0 0 4.084-1.808zm-23.988 4.832c.609-.01 1.207.063 1.817.1.12 1.986-.186 4.168-.694 5.164-.152-.194-.548-.461-1.191-2.133a2 2 0 0 0-1.149-1.148C8.768 35.99 8.5 35.593 8.307 35.44c.588-.3 1.55-.592 2.738-.746q.309-.039.613-.043z"/></g><defs><clipPath id="a"><path d="M0 0h48v48H0z"/></clipPath></defs></svg>