<svg xmlns="http://www.w3.org/2000/svg" width="48" height="48" viewBox="0 0 48 48"><path d="M24.5 5C13.231 5 4 13.948 4 25a2 2 0 0 0 2 2 2 2 0 0 0 2-2c0-8.83 7.334-16 16.5-16S41 16.17 41 25a2 2 0 0 0 2 2 2 2 0 0 0 2-2c0-11.052-9.231-20-20.5-20zM15 23a2 2 0 0 0-1.96 2.393l1.52 7.61-2.94-.001-.727-3.418a2 2 0 0 0-1.342-1.486 2 2 0 0 0-1.957.42s-.93.841-2 2.023-2.323 2.679-3.073 4.4c-.809 1.86-.668 3.954.385 5.528C3.96 42.042 5.87 43 8 43h36a2 2 0 0 0 1.197-3.602l-8-5.978a2 2 0 0 0-1.195-.399l-6.209-.005-10.447-9.496A2 2 0 0 0 18 23zm2.486 4.236 6.354 5.776-5.2-.004zm-9.683 7.045.242 1.135A2 2 0 0 0 9.998 37l25.336.021L37.982 39H8c-1.017 0-1.502-.356-1.77-.756-.267-.4-.376-.936-.04-1.707.269-.619.983-1.46 1.613-2.256z"/></svg>