<svg xmlns="http://www.w3.org/2000/svg" width="48" height="48" viewBox="0 0 48 48"><path d="M7 4C4.815 4 3 5.815 3 8v32c0 2.185 1.815 4 4 4h34c2.185 0 4-1.815 4-4V14c0-2.185-1.815-4-4-4H24.938l-4.4-5.281A2 2 0 0 0 19 4zm0 4h11.063l4.4 5.281A2 2 0 0 0 24 14h17v26H7zm17 10a2 2 0 0 0-1.82 1.17l-1.774 3.885-4.242.486a2 2 0 0 0-1.125 3.461l3.147 2.887-.848 4.185a2 2 0 0 0 2.943 2.139l3.719-2.1 3.719 2.1a2 2 0 0 0 2.943-2.139l-.848-4.185 3.147-2.887a2 2 0 0 0-1.125-3.461l-4.242-.486-1.774-3.885A2 2 0 0 0 24 18zm0 6.816.424.928a2 2 0 0 0 1.592 1.156l1.011.116-.75.69a2 2 0 0 0-.607 1.87l.203 1-.889-.502a2 2 0 0 0-1.968 0l-.889.502.203-1a2 2 0 0 0-.607-1.87l-.75-.69 1.011-.116a2 2 0 0 0 1.592-1.156z"/></svg>