<svg xmlns="http://www.w3.org/2000/svg" width="48" height="48" viewBox="0 0 48 48"><path d="M7 4C4.815 4 3 5.815 3 8v32c0 2.185 1.815 4 4 4h15a2 2 0 0 0 2-2 2 2 0 0 0-2-2H7V8h11.063l4.4 5.281A2 2 0 0 0 24 14h17v9a2 2 0 0 0 2 2 2 2 0 0 0 2-2v-9c0-2.185-1.815-4-4-4H24.938l-4.4-5.281A2 2 0 0 0 19 4zm28 21c-5.5 0-10 4.5-10 10s4.5 10 10 10 10-4.5 10-10-4.5-10-10-10zm0 4c3.337 0 6 2.663 6 6s-2.663 6-6 6a5.97 5.97 0 0 1-6-6c0-3.337 2.663-6 6-6zm2 2a2 2 0 0 0-1.414.586l-4 4a2 2 0 0 0 0 2.828 2 2 0 0 0 2.828 0l4-4a2 2 0 0 0 0-2.828A2 2 0 0 0 37 31z"/></svg>