<svg xmlns="http://www.w3.org/2000/svg" width="48" height="48" viewBox="0 0 48 48"><path d="M7 4C4.815 4 3 5.815 3 8v32c0 2.185 1.815 4 4 4h34c2.185 0 4-1.815 4-4V14c0-2.185-1.815-4-4-4H24.938l-4.4-5.281A2 2 0 0 0 19 4zm0 4h11.063l4.4 5.281A2 2 0 0 0 24 14h17v26H7zm16.998 10a2 2 0 0 0-1.412.586l-6 6a2 2 0 0 0 0 2.828 2 2 0 0 0 2.828 0L22 24.828V34a2 2 0 0 0 2 2 2 2 0 0 0 2-2v-9.18l2.588 2.582a2 2 0 0 0 2.828-.004 2 2 0 0 0-.004-2.828l-5.998-5.984-.002-.002h-.002a2 2 0 0 0-.41-.316h-.002a2 2 0 0 0-.48-.2h-.002A2 2 0 0 0 24 18z"/></svg>