<svg xmlns="http://www.w3.org/2000/svg" width="48" height="48" viewBox="0 0 48 48"><path d="M7 4C4.815 4 3 5.815 3 8v32c0 2.185 1.815 4 4 4h34c2.185 0 4-1.815 4-4V14c0-2.185-1.815-4-4-4H24.938l-4.4-5.281A2 2 0 0 0 19 4Zm17 14a2 2 0 0 1 1.82 1.17l1.774 3.885 4.242.486c1.703.195 2.388 2.302 1.125 3.461l-3.147 2.887.848 4.185c.34 1.68-1.451 2.98-2.943 2.139L24 34.113l-3.719 2.1c-1.492.842-3.283-.46-2.943-2.139l.848-4.185-3.147-2.887c-1.263-1.16-.578-3.266 1.125-3.461l4.242-.486 1.774-3.885A2 2 0 0 1 24 18Z"/><path d="m24 24.816-.424.928a2 2 0 0 1-1.592 1.156l-1.011.116.75.69a2 2 0 0 1 .607 1.87l-.203 1 .889-.502a2 2 0 0 1 1.968 0l.889.502-.203-1a2 2 0 0 1 .607-1.87l.75-.69-1.011-.116a2 2 0 0 1-1.592-1.156z"/></svg>