<svg xmlns="http://www.w3.org/2000/svg" width="48" height="48" viewBox="0 0 48 48"><path d="M7 4C4.815 4 3 5.815 3 8v32c0 2.185 1.815 4 4 4h34c2.185 0 4-1.815 4-4V14c0-2.185-1.815-4-4-4H24.938l-4.4-5.281A2 2 0 0 0 19 4zm0 4h11.063l4.4 5.281A2 2 0 0 0 24 14h17v26H7zm18 10c-4.947 0-9 4.053-9 9s4.053 9 9 9 9-4.053 9-9-4.053-9-9-9zm0 4c2.785 0 5 2.215 5 5s-2.215 5-5 5a4.97 4.97 0 0 1-5-5c0-2.785 2.215-5 5-5zm2 1a2 2 0 0 0-1.414.586l-4 4a2 2 0 0 0 0 2.828 2 2 0 0 0 2.828 0l4-4a2 2 0 0 0 0-2.828A2 2 0 0 0 27 23z"/></svg>