<svg xmlns="http://www.w3.org/2000/svg" width="48" height="48" viewBox="0 0 48 48"><path d="M7 4C4.815 4 3 5.815 3 8v32c0 2.185 1.815 4 4 4h34c2.185 0 4-1.815 4-4V14c0-2.185-1.815-4-4-4H24.938l-4.4-5.281A2 2 0 0 0 19 4zm0 4h11.063l4.4 5.281A2 2 0 0 0 24 14h17v26H7zm13 12a2 2 0 0 0-1.414.586l-5 5a2 2 0 0 0 0 2.828l5 5a2 2 0 0 0 2.828 0 2 2 0 0 0 0-2.828L17.828 27l3.586-3.586a2 2 0 0 0 0-2.828A2 2 0 0 0 20 20zm8 0a2 2 0 0 0-1.414.586 2 2 0 0 0 0 2.828L30.172 27l-3.586 3.586a2 2 0 0 0 0 2.828 2 2 0 0 0 2.828 0l5-5a2 2 0 0 0 0-2.828l-5-5A2 2 0 0 0 28 20z"/></svg>