<svg xmlns="http://www.w3.org/2000/svg" width="48" height="48" viewBox="0 0 48 48"><path d="M9 2C6.815 2 5 3.815 5 6v36c0 2.185 1.815 4 4 4h30c2.185 0 4-1.815 4-4V6a4 4 0 0 0-.082-.799 3.96 3.96 0 0 0-.84-1.736 4 4 0 0 0-.543-.543 4 4 0 0 0-.639-.434 4 4 0 0 0-1.097-.406A4 4 0 0 0 39 2zm1.514 4h26.972a20.7 20.7 0 0 1-2.49 4.29c-1.409 1.853-3.27 3.642-5.812 4.71-1.045-1.787-2.984-3-5.184-3s-4.14 1.213-5.184 3c-2.542-1.068-4.403-2.857-5.812-4.71A20.7 20.7 0 0 1 10.514 6zM9 11.555q.38.575.82 1.156c1.839 2.418 4.567 4.905 8.26 6.258C18.55 21.806 21.04 24 24 24s5.45-2.194 5.92-5.031c3.693-1.353 6.421-3.84 8.26-6.258q.44-.582.82-1.156V42H9zM16 27a2 2 0 0 0-2 2 2 2 0 0 0 2 2h4a2 2 0 0 0 2-2 2 2 0 0 0-2-2zm0 6a2 2 0 0 0-2 2 2 2 0 0 0 2 2h10a2 2 0 0 0 2-2 2 2 0 0 0-2-2z"/></svg>