<svg xmlns="http://www.w3.org/2000/svg" width="48" height="48" viewBox="0 0 48 48"><path d="M7 4C4.815 4 3 5.815 3 8v32c0 2.185 1.815 4 4 4h34c2.185 0 4-1.815 4-4V14c0-2.185-1.815-4-4-4H24.938l-4.4-5.281A2 2 0 0 0 19 4Zm17 15a2 2 0 0 1 2 2v1.354q.234.084.46.185l.954-.953a2 2 0 0 1 2.828 2.828l-.894.895q.17.334.298.691H31a2 2 0 0 1 0 4h-1.354q-.105.295-.242.576l1.131 1.131a2 2 0 0 1-2.828 2.828l-1.13-1.13q-.282.135-.577.241V35a2 2 0 0 1-4 0v-1.354a6 6 0 0 1-.691-.298l-1.188 1.187a2 2 0 0 1-2.828-2.828l1.246-1.246a6 6 0 0 1-.185-.461H17a2 2 0 0 1 0-4h1.354q.105-.295.242-.576l-1.01-1.01a2 2 0 0 1 2.828-2.828l1.01 1.01q.28-.136.576-.242V21a2 2 0 0 1 2-2z"/><path d="M24 26c-1.128 0-2 .872-2 2s.872 2 2 2 2-.872 2-2c0-.515-.187-.973-.492-1.322a2 2 0 0 1-.215-.143 2 2 0 0 1-.096-.144A2 2 0 0 0 24 26Z"/></svg>