<svg xmlns="http://www.w3.org/2000/svg" width="48" height="48" viewBox="0 0 48 48"><path d="M6 3a2 2 0 0 0-2 2v25.004a2 2 0 0 0 2 2h16v6.168l-2.586-2.586A2 2 0 0 0 18 35a2 2 0 0 0-1.414.586 2 2 0 0 0 0 2.828l6 6a2 2 0 0 0 1.932.518 2 2 0 0 0 .896-.518l6-6a2 2 0 0 0 0-2.828 2 2 0 0 0-2.828 0L26 38.172v-6.168h16a2 2 0 0 0 2-2V5a2 2 0 0 0-2-2 2 2 0 0 0-2 2v23.004H24.086L24 28l-.03.004H8V5a2 2 0 0 0-2-2zm21.99 5.979a2 2 0 0 0-1.414.584 2 2 0 0 0-.004 2.828l1.608 1.611H15a2 2 0 0 0-2 2 2 2 0 0 0 2 2h13.223l-1.659 1.686a2 2 0 0 0 .022 2.828 2 2 0 0 0 2.828-.022l4.992-5.072.008-.006.012-.014a2 2 0 0 0 .297-.388l.002-.002.015-.03a2 2 0 0 0 .188-.453l.006-.025a2 2 0 0 0 .064-.486l.002-.016-.002-.04a2 2 0 0 0-.006-.128l-.002-.027-.002-.014a2 2 0 0 0-.027-.182 2 2 0 0 0-.045-.185l-.002-.004a2 2 0 0 0-.053-.15l-.013-.036-.016-.03a2 2 0 0 0-.06-.13l-.008-.017-.018-.028a2 2 0 0 0-.07-.117l-.014-.023-.01-.012a2 2 0 0 0-.082-.115l-.023-.032-.01-.01a2 2 0 0 0-.121-.134h-.002l-5.01-5.022a2 2 0 0 0-1.414-.587z"/></svg>