<svg xmlns="http://www.w3.org/2000/svg" width="48" height="48" viewBox="0 0 48 48"><path d="M37 12a4 4 0 1 0 0-8 4 4 0 0 0 0 8z"/><path d="M37 2c-3.29 0-6 2.71-6 6s2.71 6 6 6 6-2.71 6-6-2.71-6-6-6zm0 4c1.128 0 2 .872 2 2s-.872 2-2 2-2-.872-2-2 .872-2 2-2zm-26 6a4 4 0 1 0 0-8 4 4 0 0 0 0 8z"/><path d="M11 2C7.71 2 5 4.71 5 8s2.71 6 6 6 6-2.71 6-6-2.71-6-6-6zm0 4c1.128 0 2 .872 2 2s-.872 2-2 2-2-.872-2-2 .872-2 2-2Zm13 38a4 4 0 1 0 0-8 4 4 0 0 0 0 8z"/><path d="M24 34c-3.29 0-6 2.71-6 6s2.71 6 6 6 6-2.71 6-6-2.71-6-6-6zm0 4c1.128 0 2 .872 2 2s-.872 2-2 2-2-.872-2-2 .872-2 2-2z"/><path d="M11 10a2 2 0 0 0-2 2v3c0 2.369 1.13 4.366 2.535 5.951s3.121 2.885 4.746 4.135 3.16 2.45 4.192 3.615S22 30.87 22 32v4a2 2 0 0 0 4 0v-4c0-1.131.495-2.134 1.527-3.299s2.567-2.365 4.192-3.615 3.34-2.55 4.746-4.135C37.87 19.366 39 17.37 39 15v-3a2 2 0 0 0-2-2 2 2 0 0 0-2 2v3c0 1.131-.495 2.134-1.527 3.299s-2.567 2.365-4.192 3.615-3.34 2.55-4.746 4.135c-.21.236-.34.544-.535.799-.194-.255-.326-.563-.535-.8-1.405-1.584-3.121-2.884-4.746-4.134s-3.16-2.45-4.192-3.615S13 16.13 13 15v-3a2 2 0 0 0-2-2z"/></svg>