<svg xmlns="http://www.w3.org/2000/svg" width="48" height="48" viewBox="0 0 48 48"><path d="M20 2c-3.29 0-6 2.71-6 6s2.71 6 6 6c.7 0 1.373-.125 2-.35v5.522l-1.586-1.586a2 2 0 0 0-2.828 0 2 2 0 0 0 0 2.828L19.172 22H8c-3.29 0-6 2.71-6 6s2.71 6 6 6 6-2.71 6-6c0-.7-.125-1.373-.35-2h5.522l-1.586 1.586a2 2 0 0 0 0 2.828 2 2 0 0 0 2.828 0L22 28.828V40c0 3.29 2.71 6 6 6s6-2.71 6-6-2.71-6-6-6c-.7 0-1.373.125-2 .35v-5.522l1.586 1.586a2 2 0 0 0 3.324-.908 2 2 0 0 0-.496-1.92L28.828 26H40c3.29 0 6-2.71 6-6s-2.71-6-6-6-6 2.71-6 6c0 .7.125 1.373.35 2h-5.522l1.586-1.586-2.828-2.828L26 19.172V8c0-3.29-2.71-6-6-6zm0 4c1.128 0 2 .872 2 2s-.872 2-2 2-2-.872-2-2 .872-2 2-2zm20 12c1.128 0 2 .872 2 2s-.872 2-2 2-2-.872-2-2 .872-2 2-2zM8 26c1.128 0 2 .872 2 2s-.872 2-2 2-2-.872-2-2 .872-2 2-2zm20 12c1.128 0 2 .872 2 2s-.872 2-2 2-2-.872-2-2 .872-2 2-2z"/></svg>