<svg xmlns="http://www.w3.org/2000/svg" width="48" height="48" viewBox="0 0 48 48"><path d="M8 26a2 2 0 0 0-2 2v12a2 2 0 0 0 2 2h12a2 2 0 0 0 2-2 2 2 0 0 0-2-2H10V28a2 2 0 0 0-2-2Zm32 0a2 2 0 0 0-2 2v10H28a2 2 0 0 0-2 2 2 2 0 0 0 2 2h12a2 2 0 0 0 2-2V28a2 2 0 0 0-2-2zM28 6a2 2 0 0 0-2 2 2 2 0 0 0 2 2h10v10a2 2 0 0 0 2 2 2 2 0 0 0 2-2V8a2 2 0 0 0-2-2ZM8 6a2 2 0 0 0-2 2v12a2 2 0 0 0 2 2 2 2 0 0 0 2-2V10h10a2 2 0 0 0 2-2 2 2 0 0 0-2-2Z"/><path d="M44 20h-8v8h8z"/><path d="M36 18a2 2 0 0 0-2 2v8a2 2 0 0 0 2 2h8a2 2 0 0 0 2-2v-8a2 2 0 0 0-2-2zm2 4h4v4h-4zm-26-2H4v8h8z"/><path d="M4 18a2 2 0 0 0-2 2v8a2 2 0 0 0 2 2h8a2 2 0 0 0 2-2v-8a2 2 0 0 0-2-2zm2 4h4v4H6Zm22 14h-8v8h8z"/><path d="M20 34a2 2 0 0 0-2 2v8a2 2 0 0 0 2 2h8a2 2 0 0 0 2-2v-8a2 2 0 0 0-2-2zm2 4h4v4h-4zm6-34h-8v8h8z"/><path d="M20 2a2 2 0 0 0-2 2v8a2 2 0 0 0 2 2h8a2 2 0 0 0 2-2V4a2 2 0 0 0-2-2Zm2 4h4v4h-4zm2 10a2 2 0 0 0-2 2v12a2 2 0 0 0 2 2 2 2 0 0 0 2-2V18a2 2 0 0 0-2-2z"/><path d="M18 22a2 2 0 0 0-2 2 2 2 0 0 0 2 2h12a2 2 0 0 0 2-2 2 2 0 0 0-2-2zM28 6a2 2 0 0 0-1.414.586 2 2 0 0 0 0 2.828l12 12a2 2 0 0 0 2.828 0 2 2 0 0 0 0-2.828l-12-12A2 2 0 0 0 28 6Zm-8 0a2 2 0 0 0-1.414.586l-12 12a2 2 0 0 0 0 2.828 2 2 0 0 0 2.828 0l12-12a2 2 0 0 0 0-2.828A2 2 0 0 0 20 6ZM8 26a2 2 0 0 0-1.414.586 2 2 0 0 0 0 2.828l12 12a2 2 0 0 0 2.828 0 2 2 0 0 0 0-2.828l-12-12A2 2 0 0 0 8 26Zm33.352.525a2 2 0 0 0-2.827.123l-11 12a2 2 0 0 0 .123 2.827 2 2 0 0 0 2.827-.123l11-12a2 2 0 0 0-.123-2.827z"/></svg>