<svg xmlns="http://www.w3.org/2000/svg" width="48" height="48" viewBox="0 0 48 48"><path d="M24 2C11.873 2 2 11.873 2 24s9.873 22 22 22 22-9.873 22-22S36.127 2 24 2zm0 4c1.75 0 3.439.252 5.037.715A2 2 0 0 0 29 7v9.172l-9.586-9.586C20.878 6.203 22.414 6 24 6zm-8.637 2.193L22.17 15H8.402a18 18 0 0 1 6.961-6.807zM33 8.403a18 18 0 0 1 7.146 7.622L33 23.172zM6.715 18.962A2 2 0 0 0 7 19h9.172l-9.586 9.586C6.203 27.122 6 25.586 6 24c0-1.75.252-3.439.715-5.037zM24 19c2.785 0 5 2.215 5 5s-2.215 5-5 5a4.97 4.97 0 0 1-5-5c0-2.785 2.215-5 5-5zm17.604 1.227A18.1 18.1 0 0 1 41.295 29h-8.467zM15 25.83v13.768a18 18 0 0 1-6.807-6.963zm4 6 9.584 9.584A18 18 0 0 1 24 42c-1.737 0-3.413-.25-5-.705zM25.828 33h13.77a18 18 0 0 1-6.963 6.807z"/></svg>