<svg xmlns="http://www.w3.org/2000/svg" width="48" height="48" viewBox="0 0 48 48"><path d="M14.102 6.008c-2.133-.091-4.378.501-6.438 1.754C2.956 10.625.5 16.213 2.92 20.629c.134.245.347.418.506.642C2.586 22.923 2 24.691 2 26.581c0 4.49 2.658 8.438 6.578 11.136S17.743 42 23.5 42s11.002-1.585 14.922-4.283S45 31.07 45 26.58c0-1.647-.454-3.202-1.104-4.676.398-.428.895-.747 1.184-1.275 2.42-4.416-.036-10.004-4.744-12.867-2.354-1.432-4.95-2.002-7.344-1.674-2.393.328-4.637 1.638-5.847 3.846-.257.468-.236 1-.383 1.5-1.078-.118-2.14-.274-3.262-.274-.776 0-1.518.094-2.273.15-.144-.458-.135-.945-.372-1.376-1.21-2.208-3.454-3.518-5.847-3.846a10 10 0 0 0-.906-.08zm-.166 3.998q.272.01.529.047c1.37.187 2.334.801 2.883 1.802.265.484.406 1.017.425 1.616a2 2 0 0 0 2.264 1.918 26.2 26.2 0 0 1 7.85.14 2 2 0 0 0 2.338-1.955c.005-.64.147-1.207.427-1.719.55-1 1.513-1.615 2.883-1.802s3.093.135 4.723 1.127c3.26 1.982 4.412 5.524 3.314 7.527a3.2 3.2 0 0 1-1.084 1.164 2 2 0 0 0-.63 2.69C40.611 23.843 41 25.177 41 26.58c0 2.92-1.708 5.682-4.846 7.84C33.017 36.582 28.513 38 23.5 38s-9.517-1.419-12.654-3.578C7.708 32.262 6 29.5 6 26.58c0-1.561.48-3.042 1.412-4.451a2 2 0 0 0-.324-2.584 3.2 3.2 0 0 1-.66-.838c-1.098-2.003.054-5.545 3.314-7.527 1.426-.868 2.924-1.224 4.194-1.174zM12 15a2 2 0 0 0-2 2 2 2 0 0 0 2 2 2 2 0 0 0 2-2 2 2 0 0 0-2-2zm24 0a2 2 0 0 0-2 2 2 2 0 0 0 2 2 2 2 0 0 0 2-2 2 2 0 0 0-2-2zM20.156 26.576a2 2 0 0 0-2 2 2 2 0 0 0 2 2 2 2 0 0 0 2-2 2 2 0 0 0-2-2zm8 0a2 2 0 0 0-2 2 2 2 0 0 0 2 2 2 2 0 0 0 2-2 2 2 0 0 0-2-2z"/></svg>