<svg xmlns="http://www.w3.org/2000/svg" width="48" height="48" viewBox="0 0 48 48"><path d="M12.688 3.025a2 2 0 0 0-1.102.56l-9 9a2 2 0 0 0 0 2.83l9 9a2 2 0 0 0 2.828 0l9-9a2 2 0 0 0 0-2.83l-9-9a2 2 0 0 0-1.726-.56zM36 4c-5.5 0-10 4.5-10 10s4.5 10 10 10 10-4.5 10-10S41.5 4 36 4zM13 7.828 19.172 14 13 20.172 6.828 14zM36 8c3.337 0 6 2.663 6 6s-2.663 6-6 6a5.97 5.97 0 0 1-6-6c0-3.337 2.663-6 6-6zM10 28c-4.395 0-8 3.605-8 8s3.605 8 8 8h28c4.395 0 8-3.605 8-8s-3.605-8-8-8zm0 4h28c2.233 0 4 1.767 4 4s-1.767 4-4 4H10a3.97 3.97 0 0 1-4-4c0-2.233 1.767-4 4-4z"/></svg>