<svg xmlns="http://www.w3.org/2000/svg" width="48" height="48" viewBox="0 0 48 48"><path d="M44 28H28v16h16z"/><path d="M28 26a2 2 0 0 0-2 2v16a2 2 0 0 0 2 2h16a2 2 0 0 0 2-2V28a2 2 0 0 0-2-2zm2 4h12v12H30ZM13 4l9 16H4Z"/><path d="M13 2a2 2 0 0 0-1.742 1.02l-9 16A2 2 0 0 0 4 22h18a2 2 0 0 0 1.742-2.98l-9-16A2 2 0 0 0 13 2Zm0 6.078L18.582 18H7.418ZM36 20a8 8 0 1 0 0-16 8 8 0 0 0 0 16z"/><path d="M36 2c-5.5 0-10 4.5-10 10s4.5 10 10 10 10-4.5 10-10S41.5 2 36 2Zm0 4c3.337 0 6 2.663 6 6s-2.663 6-6 6a5.97 5.97 0 0 1-6-6c0-3.337 2.663-6 6-6zM4 26a2 2 0 0 0-1.414.586 2 2 0 0 0 0 2.828l16 16a2 2 0 0 0 2.828 0 2 2 0 0 0 0-2.828l-16-16A2 2 0 0 0 4 26Z"/><path d="M20 26a2 2 0 0 0-1.414.586l-16 16a2 2 0 0 0 0 2.828 2 2 0 0 0 2.828 0l16-16a2 2 0 0 0 0-2.828A2 2 0 0 0 20 26Z"/></svg>