<svg xmlns="http://www.w3.org/2000/svg" width="48" height="48" viewBox="0 0 48 48"><path d="M19.002 5c-.99 0-2.11.244-2.934 1.068S15.002 8.011 15.002 9v4c0 1.397-.587 2.557-1.895 3.21-1.308.655-3.808 2.244-6.242 4.583S2.002 26.213 2.002 30c.002 6.342 5.354 12 14 12a2 2 0 0 0 .168-.033C17.975 43.237 20.142 44 22.5 44q.551-.001 1.09-.059a2 2 0 0 0 .49.057c6.615-.265 11.06-2.292 13.73-5.115.284-.3.54-.608.782-.92 2.073-.232 3.714-1.663 5.008-3.467A12.95 12.95 0 0 0 46.002 27c0-3.522-1.706-6.193-3.744-7.895-2.038-1.7-4.376-2.623-6.031-3.3h-.002c-.775-.317-1.53-.66-2.243-1.016h-.002c-1.297-.647-1.978-1.563-1.978-2.789V9c0-2.146-1.69-4-4-4zm0 4h9v3c0 2.876 1.857 5.204 4.195 6.37.807.401 1.651.783 2.514 1.136 1.655.677 3.584 1.5 4.984 2.67 1.401 1.17 2.307 2.492 2.307 4.824 0 1.45-.387 2.849-.963 4.008q.009-.62-.049-1.207c-.306-3.065-1.888-5.31-3.502-6.694a10.4 10.4 0 0 0-2.355-1.529C34.4 21.237 33.917 21 33 21a2 2 0 0 0-2 2 2 2 0 0 0 2 2c-.417 0 .038.013.445.203s.936.506 1.442.94c1.01.866 1.93 2.121 2.123 4.056.173 1.732-.289 4.015-2.106 5.936-.72.76-1.675 1.487-2.925 2.103 1.037-1.967 1.454-4.268.982-6.63-.585-2.928-2.072-4.33-2.758-5.212S29 24.75 29 21a2 2 0 0 0-2-2 2 2 0 0 0-2 2c0 4.25.983 6.486 2.047 7.854 1.064 1.367 1.578 1.466 1.992 3.539C29.805 36.225 26.497 40 22.5 40c-4.023 0-7.5-3.863-7.5-8 0-3.886 1.997-6.066 4.03-7.285 1.25-.75 2.695-1.58 3.907-2.953C24.15 20.388 25 18.417 25 16a2 2 0 0 0-2-2 2 2 0 0 0-2 2c0 1.583-.4 2.362-1.062 3.113-.663.752-1.717 1.422-2.967 2.172C14.003 23.065 11 26.667 11 32c0 1.982.499 3.901 1.38 5.604-4.45-1.07-6.377-4.171-6.378-7.604 0-1.918 1.569-4.337 3.635-6.322s4.566-3.543 5.258-3.889c2.692-1.346 4.107-4.09 4.107-6.789z"/></svg>