<svg xmlns="http://www.w3.org/2000/svg" width="48" height="48" viewBox="0 0 48 48"><path d="M19 33a7 7 0 0 1-7 7 7 7 0 0 1-7-7 7 7 0 0 1 7-7 7 7 0 0 1 7 7z"/><path d="M12 24c-4.947 0-9 4.053-9 9s4.053 9 9 9 9-4.053 9-9-4.053-9-9-9zm0 4c2.785 0 5 2.215 5 5s-2.215 5-5 5a4.97 4.97 0 0 1-5-5c0-2.785 2.215-5 5-5z"/><path d="M24 25c-2.262 0-4.249 1.002-5.414 2.559C17.42 29.115 17 31.04 17 33a2 2 0 0 0 2 2 2 2 0 0 0 2-2c0-1.355.33-2.43.79-3.045.459-.615.972-.955 2.21-.955s1.751.34 2.21.955S27 31.645 27 33a2 2 0 0 0 2 2 2 2 0 0 0 2-2c0-1.959-.42-3.885-1.586-5.441C28.25 26.002 26.262 25 24 25Z"/><path d="M43 33a7 7 0 0 1-7 7 7 7 0 0 1-7-7 7 7 0 0 1 7-7 7 7 0 0 1 7 7z"/><path d="M36 24c-4.947 0-9 4.053-9 9s4.053 9 9 9 9-4.053 9-9-4.053-9-9-9zm0 4c2.785 0 5 2.215 5 5s-2.215 5-5 5a4.97 4.97 0 0 1-5-5c0-2.785 2.215-5 5-5zM12 6c-4.395 0-8 3.605-8 8v8a2 2 0 0 0 2 2 2 2 0 0 0 2-2v-8c0-2.233 1.767-4 4-4h2a2 2 0 0 0 2-2 2 2 0 0 0-2-2Zm22 0a2 2 0 0 0-2 2 2 2 0 0 0 2 2h2c2.233 0 4 1.767 4 4v8a2 2 0 0 0 2 2 2 2 0 0 0 2-2v-8c0-4.395-3.605-8-8-8Z"/></svg>