<svg xmlns="http://www.w3.org/2000/svg" width="48" height="48" viewBox="0 0 48 48"><g clip-path="url(#a)"><path d="M19.77 1.559c-1.096-.001-2.232.191-3.344.525-2.966.89-6.045 2.807-8.79 5.55-2.743 2.745-4.662 5.826-5.552 8.792s-.768 6.103 1.309 8.18c.224.224.463.421.71.601a2 2 0 0 0 .22.328l4.948 4.95c5.362 5.36 13.83 5.797 19.702 1.316l4.177 4.178c-.693.93-1.218 1.902-1.546 2.888-.513 1.538-.61 3.44.74 4.79s3.251 1.252 4.789.74c1.537-.513 3.04-1.5 4.402-2.862s2.349-2.865 2.861-4.402c.513-1.538.61-3.44-.74-4.79s-3.251-1.252-4.789-.74c-.986.33-1.959.854-2.888 1.547L31.8 28.973c4.48-5.872 4.045-14.34-1.317-19.702l-4.949-4.949a2 2 0 0 0-.328-.218 6 6 0 0 0-.6-.711c-1.296-1.298-3.01-1.833-4.836-1.834zm-.092 3.996c.992-.014 1.689.255 2.1.666.656.657.952 2.052.306 4.205s-2.216 4.777-4.549 7.11c-2.332 2.332-4.957 3.902-7.11 4.548-2.152.646-3.545.35-4.202-.307s-.953-2.05-.307-4.203c.646-2.152 2.216-4.777 4.549-7.11 2.332-2.332 4.957-3.904 7.11-4.55.806-.242 1.508-.351 2.103-.36zm6.488 5.054 1.49 1.49a10.97 10.97 0 0 1 0 15.557 10.97 10.97 0 0 1-15.556 0l-1.493-1.492q.486-.105.967-.248c2.966-.89 6.045-2.809 8.79-5.553 2.743-2.744 4.662-5.823 5.552-8.789q.144-.48.25-.965zm14.57 24.653h.002v.002c-.01.122-.04.316-.136.603-.256.766-.914 1.86-1.895 2.84-.98.98-2.074 1.64-2.84 1.895a2.6 2.6 0 0 1-.605.136v-.002c.01-.122.04-.316.136-.603.211-.633.701-1.49 1.416-2.32a2 2 0 0 0 .6-.399 2 2 0 0 0 .418-.615c.826-.707 1.673-1.191 2.3-1.4.288-.096.482-.127.604-.137z"/></g><defs><clipPath id="a"><path d="M0 0h48v48H0z"/></clipPath></defs></svg>