<svg xmlns="http://www.w3.org/2000/svg" width="48" height="48" viewBox="0 0 48 48"><path d="M13 42a2 2 0 0 0-2 2 2 2 0 0 0 2 2h20a2 2 0 0 0 2-2 2 2 0 0 0-2-2H23Z"/><path d="M23 26a2 2 0 0 0-2 2v16a2 2 0 0 0 2 2 2 2 0 0 0 2-2V28a2 2 0 0 0-2-2z"/><path d="M35 16c0 6.5-5.373 12-12 12s-12-5.373-12-12c0-6.5 4-12 4-12h16s4 5.5 4 12z"/><path d="M15 2a2 2 0 0 0-1.617.824S9 8.68 9 16c0 7.708 6.292 14 14 14 7.734 0 14-6.398 14-14 0-7.32-4.383-13.176-4.383-13.176A2 2 0 0 0 31 2Zm1.164 4h13.672C30.53 7.065 33 11.033 33 16c0 5.398-4.48 10-10 10a9.97 9.97 0 0 1-10-10c0-4.967 2.47-8.935 3.164-10Z"/></svg>