<svg xmlns="http://www.w3.org/2000/svg" width="48" height="48" viewBox="0 0 48 48"><path d="M4 2a2 2 0 0 0-1.873 2.701l6.43 17.194A17 17 0 0 0 7 29c0 9.365 7.635 17 17 17s17-7.635 17-17c0-2.53-.56-4.941-1.557-7.105L45.873 4.7A2 2 0 0 0 44 2H31a2 2 0 0 0-1.865 1.275l-3.422 8.81a17.2 17.2 0 0 0-3.426 0l-3.422-8.81A2 2 0 0 0 17 2zm2.883 4h8.748l2.707 6.973a17 17 0 0 0-7.067 4.767zm25.486 0h8.748L36.73 17.74a17 17 0 0 0-7.067-4.767zM24 16c.893 0 1.762.09 2.602.26a13.03 13.03 0 0 1 8.9 6.676A12.9 12.9 0 0 1 37 29c0 7.203-5.797 13-13 13s-13-5.797-13-13c0-2.198.541-4.254 1.498-6.064a13.03 13.03 0 0 1 8.9-6.676c.84-.17 1.709-.26 2.602-.26zm-.104 4.004a2 2 0 0 0-.529.1l-3 1a2 2 0 0 0-1.263 2.529 2 2 0 0 0 2.529 1.263l.367-.123V33h-2a2 2 0 0 0-2 2 2 2 0 0 0 2 2h8a2 2 0 0 0 2-2 2 2 0 0 0-2-2h-2V22a2 2 0 0 0-2.104-1.996z"/></svg>