<svg xmlns="http://www.w3.org/2000/svg" width="48" height="48" viewBox="0 0 48 48"><g clip-path="url(#a)"><path d="M41.355 34.153 29.522 8.776a6 6 0 0 0-10.876 5.072L30.48 39.224a6 6 0 1 0 10.876-5.071z"/><path d="M23.783 3.322a7.9 7.9 0 0 0-3.08.739c-3.983 1.857-5.726 6.65-3.869 10.632L28.666 40.07c1.858 3.982 6.65 5.726 10.633 3.87 3.983-1.858 5.726-6.65 3.869-10.633L31.334 7.932c-1.393-2.987-4.436-4.716-7.55-4.61Zm.162 3.985A3.97 3.97 0 0 1 27.71 9.62l11.834 25.377a3.97 3.97 0 0 1-1.936 5.316 3.97 3.97 0 0 1-5.314-1.935L20.459 13.002a3.97 3.97 0 0 1 1.934-5.315 4.1 4.1 0 0 1 1.552-.38Z"/><path d="M17.69 7.121a2 2 0 0 0-1.13 1.033L4.833 33.307c-1.857 3.982-.114 8.775 3.87 10.632 3.982 1.858 8.775.112 10.632-3.87L25.25 27.38a2 2 0 0 0-.967-2.658 2 2 0 0 0-2.658.968l-5.916 12.69a3.97 3.97 0 0 1-5.316 1.935 3.97 3.97 0 0 1-1.936-5.316l11.73-25.152a2 2 0 0 0-.968-2.658 2 2 0 0 0-1.53-.067Z"/><path d="M17.52 39.224a6 6 0 0 1-7.973 2.902 6 6 0 0 1-2.902-7.974 6 6 0 0 1 7.974-2.902 6 6 0 0 1 2.902 7.974z"/><path d="M15.463 29.437c-3.983-1.857-8.774-.114-10.631 3.87s-.114 8.774 3.87 10.631 8.774.113 10.63-3.87.114-8.773-3.869-10.63zm-1.69 3.625c2.023.944 2.878 3.292 1.934 5.316s-3.292 2.879-5.315 1.935a3.97 3.97 0 0 1-1.935-5.316 3.97 3.97 0 0 1 5.316-1.935z"/></g><defs><clipPath id="a"><path d="M0 0h48v48H0z"/></clipPath></defs></svg>