<svg xmlns="http://www.w3.org/2000/svg" width="48" height="48" viewBox="0 0 48 48"><path d="M27 24a5 5 0 1 0 0-10 5 5 0 0 0 0 10z"/><path d="M27 12c-3.842 0-7 3.158-7 7s3.158 7 7 7 7-3.158 7-7-3.158-7-7-7zm0 4c1.68 0 3 1.32 3 3s-1.32 3-3 3-3-1.32-3-3 1.32-3 3-3zm-3.451 11.076a2 2 0 0 0-2.473 1.375l-1.426 4.992-7.017-2.34a2 2 0 0 0-2.512 1.213l-4 11a2 2 0 0 0 1.195 2.563 2 2 0 0 0 2.563-1.195l3.336-9.17 7.152 2.382a2 2 0 0 0 2.557-1.347l2-7a2 2 0 0 0-1.375-2.473z"/><path d="M20.553 34.05a2 2 0 0 0-1.502 2.397l1.49 6.48.008.032A4.015 4.015 0 0 0 24.429 46h10.58a2 2 0 0 0 2-2 2 2 0 0 0-2-2H24.433l-1.483-6.447a2 2 0 0 0-2.396-1.502zM12.78 9.012a2 2 0 0 0-1.768 2.209l1 9a2 2 0 0 0 .574 1.193l2.47 2.47-7.353-2.757a2 2 0 0 0-2.576 1.17 2 2 0 0 0 1.17 2.576l16 6a2 2 0 0 0 2.117-3.287l-8.504-8.504-.922-8.303a2 2 0 0 0-2.209-1.767ZM12 2a2 2 0 0 0-2 2 2 2 0 0 0 2 2h5c5.92 0 12.21.428 16.852 3.682C38.492 12.936 42 19.102 42 32a2 2 0 0 0 2 2 2 2 0 0 0 2-2c0-13.652-3.992-21.485-9.852-25.594C30.29 2.298 23.081 2 17 2Z"/></svg>