<svg xmlns="http://www.w3.org/2000/svg" width="48" height="48" viewBox="0 0 48 48"><path d="M6 14C6 4 14 4 14 4v20H6Z"/><path d="M14 2s-2.552-.013-5.06 1.555C6.43 5.122 4 8.467 4 14v10a2 2 0 0 0 2 2h8a2 2 0 0 0 2-2V4a2 2 0 0 0-2-2Zm-2 4.564V22H8v-8c0-4.467 1.569-6.122 3.06-7.055.346-.216.617-.252.94-.38Z"/><path d="M14 10h28v6H14Z"/><path d="M14 8a2 2 0 0 0-2 2v6a2 2 0 0 0 2 2h28a2 2 0 0 0 2-2v-6a2 2 0 0 0-2-2Zm2 4h24v2H16ZM6 30h36s0 8-6 8h-7l2 6H13l2-6H6Z"/><path d="M6 28a2 2 0 0 0-2 2v8a2 2 0 0 0 2 2h6.227l-1.123 3.367A2 2 0 0 0 13 46h18a2 2 0 0 0 1.896-2.633L31.773 40H36c1.944 0 3.623-.713 4.797-1.756s1.874-2.336 2.326-3.54C44.027 32.292 44 30 44 30a2 2 0 0 0-2-2zm2 4h31.621c-.091.55-.01.672-.244 1.297-.298.795-.723 1.502-1.236 1.959-.514.457-1.085.744-2.141.744h-7a2 2 0 0 0-1.896 2.633L28.227 42H15.773l1.123-3.367A2 2 0 0 0 15 36H8Z"/></svg>