<svg xmlns="http://www.w3.org/2000/svg" width="48" height="48" viewBox="0 0 48 48"><path d="M6 16a2 2 0 0 0-2 2v26a2 2 0 0 0 2 2h36a2 2 0 0 0 2-2V18a2 2 0 0 0-2-2 2 2 0 0 0-2 2v24H8V18a2 2 0 0 0-2-2Z"/><path d="M42 4H6v14h36z"/><path d="M6 2a2 2 0 0 0-2 2v14a2 2 0 0 0 2 2h36a2 2 0 0 0 2-2V4a2 2 0 0 0-2-2Zm2 4h32v10H8Zm8 19a2 2 0 0 0-2 2v8a2 2 0 0 0 2 2 2 2 0 0 0 2-2v-8a2 2 0 0 0-2-2z"/><path d="M12 29a2 2 0 0 0-2 2 2 2 0 0 0 2 2h8a2 2 0 0 0 2-2 2 2 0 0 0-2-2zm20 6a4 4 0 1 0 0-8 4 4 0 0 0 0 8z"/><path d="M32 25c-3.29 0-6 2.71-6 6s2.71 6 6 6 6-2.71 6-6-2.71-6-6-6zm0 4c1.128 0 2 .872 2 2s-.872 2-2 2-2-.872-2-2 .872-2 2-2z"/></svg>