<svg xmlns="http://www.w3.org/2000/svg" width="48" height="48" viewBox="0 0 48 48"><path d="M6 31v9h36v-9zm29.5 2a2.5 2.5 0 1 1 0 5 2.5 2.5 0 0 1 0-5Zm6.457-4-.416-2H6.463l-.42 2z"/><path d="m44 29-1.959.406-.084-.406H6.043l-.086.41L4 29v13h40ZM6 31h36v9H6Z"/><path d="M45.92 28.602 44 29v13H4V29l-1.92-.402A2 2 0 0 0 2 29v13a2 2 0 0 0 2 2h40a2 2 0 0 0 2-2V29a2 2 0 0 0-.08-.398z"/><path d="m6.043 29 .42-2H4a2 2 0 0 0-1.92 1.598L4 29Zm0 0H4l1.957.41zM44 29h-2.043l.084.406zm1.92-.398A2 2 0 0 0 44 27h-2.459l.416 2H44Z"/><path d="M9.04 2.998a2 2 0 0 0-1.96 1.59L2.043 28.59l.037.008A2 2 0 0 1 4 27h2.463l4.2-20.002h26.73L41.54 27H44a2 2 0 0 1 1.92 1.602l.039-.008-4.98-24.002a2 2 0 0 0-1.96-1.594z"/></svg>