<svg xmlns="http://www.w3.org/2000/svg" width="48" height="48" viewBox="0 0 48 48"><path d="M24 2c-7.093 0-12.984 5.329-13.879 12.186C5.513 15.072 2 19.144 2 24c0 5.426 4.385 9.872 9.785 9.988l.01.002q.101.01.205.01a2 2 0 0 0 2-2V16A9.97 9.97 0 0 1 24 6a9.97 9.97 0 0 1 10 10v16a9.97 9.97 0 0 1-10 10 2 2 0 0 0 0 4c7.093 0 12.984-5.329 13.879-12.186C42.487 32.928 46 28.856 46 24s-3.513-8.928-8.121-9.814C36.984 7.329 31.093 2 24 2ZM10 18.344v11.312A5.96 5.96 0 0 1 6 24a5.96 5.96 0 0 1 4-5.656Zm28 0A5.96 5.96 0 0 1 42 24a5.96 5.96 0 0 1-4 5.656z"/></svg>