<svg xmlns="http://www.w3.org/2000/svg" width="48" height="48" viewBox="0 0 48 48"><path d="M17.334 2c-2.526 0-4.68 1.193-5.842 2.97C10.332 6.749 10 8.877 10 11.05c0 4.263 2.27 8.019 4.959 10.919 1.652 1.782 3.46 3.257 5.207 4.345q-.484.453-.94.987C18.012 28.73 17 30.679 17 33c0 .914.388 1.82.92 2.432s1.151.99 1.771 1.29c1.24.6 2.575.905 3.825 1.217s2.416.633 3.05.94c.199.096.24.14.313.197-.018.007-.091.137-.645.477-.768.471-2.019.963-3.3 1.342-2.563.757-5.204 1.123-5.204 1.123a2 2 0 0 0-1.712 2.252 2 2 0 0 0 2.252 1.712s2.86-.384 5.796-1.252c1.469-.433 2.968-.973 4.262-1.767S31 40.923 31 39c0-.914-.388-1.82-.92-2.432s-1.151-.99-1.771-1.29c-1.24-.6-2.575-.905-3.825-1.217s-2.416-.633-3.05-.94c-.26-.125-.349-.21-.405-.258.039-1.116.493-2.086 1.244-2.97.753-.885 1.77-1.62 2.58-2.077 2.547-.949 5.562-3.015 8.188-5.847C35.729 19.069 38 15.313 38 11.05c0-2.236-.457-4.382-1.652-6.12C35.152 3.195 33.066 2 30.666 2c-2.035 0-3.568 1.076-4.975 2.207-.708.57-1.12 1.19-1.691 1.803-.57-.613-.983-1.234-1.691-1.803C20.902 3.076 19.369 2 17.334 2zm0 4c.197 0 1.399.464 2.469 1.324s2.1 2.02 2.527 2.666a2 2 0 0 0 3.34 0c.426-.646 1.457-1.806 2.527-2.666S30.47 6 30.666 6c1.245 0 1.827.385 2.387 1.2.56.813.947 2.193.947 3.85 0 2.788-1.631 5.76-3.893 8.2-2.02 2.18-4.438 3.747-6.107 4.496-1.669-.749-4.087-2.316-6.107-4.496C15.63 16.81 14 13.838 14 11.05c0-1.718.336-3.118.842-3.892C15.347 6.384 15.86 6 17.334 6z"/></svg>