<svg xmlns="http://www.w3.org/2000/svg" width="48" height="48" viewBox="0 0 48 48"><path d="M24 2A21.96 21.96 0 0 0 8.443 8.443 21.96 21.96 0 0 0 2 24a21.96 21.96 0 0 0 6.443 15.557A21.96 21.96 0 0 0 24 46a21.96 21.96 0 0 0 15.557-6.443A21.96 21.96 0 0 0 46 24a21.96 21.96 0 0 0-6.443-15.557A21.96 21.96 0 0 0 24 2zm0 4c4.982 0 9.469 2.012 12.729 5.271A17.92 17.92 0 0 1 42 24c0 4.982-2.012 9.469-5.271 12.729A17.92 17.92 0 0 1 24 42a17.92 17.92 0 0 1-12.729-5.271A17.92 17.92 0 0 1 6 24c0-4.982 2.012-9.469 5.271-12.729A17.92 17.92 0 0 1 24 6zm0 4.625c-4.395 0-8 3.605-8 8a2 2 0 0 0 2 2 2 2 0 0 0 2-2c0-2.233 1.767-4 4-4s4 1.767 4 4-1.767 4-4 4a2 2 0 0 0-2 2v4a2 2 0 0 0 2 2 2 2 0 0 0 2-2v-2.408c3.412-.913 6-3.905 6-7.592 0-4.395-3.605-8-8-8zm0 22a2.5 2.5 0 1 0 0 5 2.5 2.5 0 0 0 0-5z"/></svg>