<svg xmlns="http://www.w3.org/2000/svg" width="48" height="48" viewBox="0 0 48 48"><path d="m23.754 2.016-.049.015a2 2 0 0 0-.148.033 2 2 0 0 0-.287.108l-.112.039a2 2 0 0 0-.144.049l-.012.01-.016.005-8.5 5-8.472 4.985-.028.015-.072.063a2 2 0 0 0-.295.25 2 2 0 0 0-.174.16l-.039.053a2 2 0 0 0-.19.35 2 2 0 0 0-.103.2l-.023.08a2 2 0 0 0-.027.176A2 2 0 0 0 5 14v20a2 2 0 0 0 .063.393 2 2 0 0 0 .027.175l.023.08a2 2 0 0 0 .104.202 2 2 0 0 0 .19.35l.038.052a2 2 0 0 0 .174.16 2 2 0 0 0 .295.25l.072.063.028.015 8.472 4.985 8.5 5 .016.005.012.01a2 2 0 0 0 .144.05l.112.038a2 2 0 0 0 .287.108 2 2 0 0 0 .148.033 2 2 0 0 0 .268 0h.054a2 2 0 0 0 .268 0 2 2 0 0 0 .148-.033 2 2 0 0 0 .287-.108l.112-.039a2 2 0 0 0 .144-.049l.02-.011.008-.004 8.5-5 8.472-4.985.028-.015a2 2 0 0 0 .162-.108l.023-.017.006-.004.012-.01a2 2 0 0 0 .172-.148l.013-.012.012-.012a2 2 0 0 0 .133-.148l.031-.036v-.001l.033-.047.008-.012a2 2 0 0 0 .09-.135l.033-.056a2 2 0 0 0 .088-.176l.012-.024.004-.01a2 2 0 0 0 .05-.138l.008-.027.002-.008.014-.037.002-.01.014-.057a2 2 0 0 0 .039-.181l.007-.07a2 2 0 0 0 .016-.19l.002-.035V13.984l-.004-.05a2 2 0 0 0-.008-.137l-.008-.065v-.01l-.005-.029a2 2 0 0 0-.028-.14l-.011-.047-.002-.006-.002-.01-.01-.04-.002-.009-.025-.072-.026-.078-.025-.06-.002-.01-.012-.024-.049-.107-.01-.02-.029-.047-.006-.011-.029-.051-.039-.065-.055-.076-.035-.049v-.001l-.05-.057-.014-.018-.018-.021-.008-.008-.074-.08-.012-.012-.013-.011a2 2 0 0 0-.176-.15l-.008-.009-.025-.017-.024-.018-.062-.04-.08-.054-.028-.015-8.472-4.985-8.5-5-.008-.004-.02-.011a2 2 0 0 0-.156-.053l-.1-.035a2 2 0 0 0-.197-.1l-.09-.008a2 2 0 0 0-.148-.033 2 2 0 0 0-.268 0h-.054a2 2 0 0 0-.22-.015zM24 8.056 26.234 12h-4.468zM18.58 9.51 17.168 12h-2.822l2.168-1.275zm10.84 0 2.066 1.215L33.654 12h-2.822zM10.432 16H14.9l-2.234 3.941zm9.068 0h9l4.533 8-4.533 8h-9l-4.533-8zm13.6 0h4.468l-2.234 3.941zM9 21.588 10.367 24 9 26.412zm30 0v4.824L37.633 24zm-26.332 6.47L14.9 32h-4.466zm22.664 0L37.566 32H33.1zM14.346 36h2.822l1.412 2.49-2.066-1.215zm7.42 0h4.468L24 39.943zm9.066 0h2.822l-2.168 1.275-2.066 1.215z"/></svg>