<svg xmlns="http://www.w3.org/2000/svg" width="48" height="48" viewBox="0 0 48 48"><path d="M9 18a2 2 0 0 0-2 2v10c0 5.5 4.5 10 10 10h14c5.5 0 10-4.5 10-10V20a2 2 0 0 0-2-2 2 2 0 0 0-2 2v10c0 3.337-2.663 6-6 6H17a5.97 5.97 0 0 1-6-6V20a2 2 0 0 0-2-2Z"/><path d="M34 36a2 2 0 0 0-2 2v4a2 2 0 0 0 2 2 2 2 0 0 0 2-2v-4a2 2 0 0 0-2-2zm-20 0a2 2 0 0 0-2 2v4a2 2 0 0 0 2 2 2 2 0 0 0 2-2v-4a2 2 0 0 0-2-2zm6 6a2 2 0 0 0-2 2 2 2 0 0 0 2 2h8a2 2 0 0 0 2-2 2 2 0 0 0-2-2zm4-38C15 4 9 13 9 16.361V20h30v-3.639C39 13.001 33 4 24 4zm-2 5h4a2 2 0 0 1 2 2 2 2 0 0 1-2 2h-4a2 2 0 0 1-2-2 2 2 0 0 1 2-2z"/><path d="M24 2c-5.167 0-9.402 2.569-12.3 5.518-1.45 1.474-2.585 3.054-3.386 4.552C7.514 13.57 7 14.926 7 16.361V20a2 2 0 0 0 2 2h30a2 2 0 0 0 2-2v-3.639c0-1.435-.514-2.792-1.314-4.29-.8-1.5-1.936-3.08-3.385-4.553C33.402 4.569 29.167 2 24 2Zm0 4c3.833 0 7.098 1.93 9.45 4.322 1.175 1.196 2.102 2.497 2.708 3.631S37 16.116 37 16.361V18H11v-1.639c0-.245.236-1.274.842-2.408s1.533-2.435 2.709-3.63C16.902 7.93 20.167 6 24 6Zm-3.5 26a1.5 1.5 0 1 1-3 0 1.5 1.5 0 0 1 3 0z"/><path d="M19 30c-1.099 0-2 .901-2 2s.901 2 2 2 2-.901 2-2-.901-2-2-2zm0 1c.558 0 1 .442 1 1s-.442 1-1 1-1-.442-1-1 .442-1 1-1zm11.5 1a1.5 1.5 0 1 1-3 0 1.5 1.5 0 0 1 3 0z"/><path d="M29 30c-1.099 0-2 .901-2 2s.901 2 2 2 2-.901 2-2-.901-2-2-2zm0 1c.558 0 1 .442 1 1s-.442 1-1 1-1-.442-1-1 .442-1 1-1z"/></svg>