<svg xmlns="http://www.w3.org/2000/svg" width="48" height="48" viewBox="0 0 48 48"><path d="M29.183 20C31.264 15.054 36.35 10.667 39 8c1.104.667 5 2.604 5 7 0 4-1.454 7.111-3 8l-5.987 4.191a23 23 0 0 0-6.533 7.01L25 40H4v-4c2.429-1.333 9.82-5.867 13-8 7 4 10.5-4 12.183-8z"/><path d="M40.033 6.287a2 2 0 0 0-2.451.303c-2.52 2.537-7.873 7.004-10.242 12.635-.834 1.982-2.115 4.774-3.684 6.375-.784.8-1.572 1.278-2.404 1.433s-1.821.053-3.26-.77a2 2 0 0 0-2.107.077c-3.077 2.064-10.595 6.67-12.848 7.906A2 2 0 0 0 2 36v4a2 2 0 0 0 2 2h21a2 2 0 0 0 1.715-.97l3.48-5.801a21 21 0 0 1 5.965-6.399l5.986-4.191-.148.095c1.412-.812 2.273-2.167 2.938-3.824C45.6 19.253 46 17.242 46 15c0-5.578-5.178-8.237-5.967-8.713Zm-.785 4.31C40.58 11.453 42 12.594 42 15c0 1.758-.328 3.301-.777 4.422-.45 1.12-1.087 1.767-1.221 1.844a2 2 0 0 0-.148.095l-5.989 4.192a25 25 0 0 0-7.1 7.619L23.868 38H6v-.885c2.805-1.6 8-4.789 11.227-6.908 1.648.697 3.28 1.036 4.76.76 1.845-.345 3.35-1.367 4.527-2.567 2.352-2.399 3.665-5.607 4.513-7.625 1.586-3.77 5.406-7.414 8.221-10.177z"/><path d="M43 19a2 2 0 0 0-2 2v19a2 2 0 0 0 2 2 2 2 0 0 0 2-2V21a2 2 0 0 0-2-2z"/></svg>