<svg xmlns="http://www.w3.org/2000/svg" width="48" height="48" viewBox="0 0 48 48"><path d="M36 2a2 2 0 0 0-1.957 1.588L28.275 30.99c-.007.035.018.01-.005.01H9c-2.736 0-5 2.264-5 5v1.55c0 4.611 3.968 8.306 8.574 7.975l17.059-1.22a8.01 8.01 0 0 0 7.254-6.332v-.002l7.07-33.559A2 2 0 0 0 42 2zm1.623 4h1.912l-6.562 31.148a3.98 3.98 0 0 1-3.625 3.166l-17.06 1.221C9.932 41.705 8 39.901 8 37.551V36c0-.584.416-1 1-1h19.27c1.876 0 3.523-1.345 3.916-3.17l.002-.008zM15 8c-2.412 0-4.599.346-6.36 1.006-.88.33-1.662.731-2.337 1.33S5 11.866 5 13v6c0 1.134.625 2.067 1.3 2.666.676.6 1.46 1 2.34 1.33C10.403 23.656 12.589 24 15 24s4.598-.344 6.36-1.004c.88-.33 1.664-.73 2.34-1.33S25 20.134 25 19v-6c0-1.135-.627-2.065-1.303-2.664s-1.457-1-2.338-1.33C19.6 8.346 17.412 8 15 8zm0 4c2.006 0 3.82.327 4.955.752.244.091.297.157.469.248-.172.091-.225.157-.469.248-1.134.425-2.949.752-4.955.752s-3.82-.327-4.955-.752c-.244-.091-.297-.157-.469-.248.172-.091.225-.157.469-.248C11.179 12.327 12.994 12 15 12zm-6 5.117c1.696.578 3.748.883 6 .883s4.304-.305 6-.883v1.58c-.148.124-.501.35-1.045.553-1.134.425-2.947.75-4.955.75s-3.821-.325-4.955-.75c-.544-.204-.897-.43-1.045-.553z"/></svg>