<svg xmlns="http://www.w3.org/2000/svg" width="48" height="48" viewBox="0 0 48 48"><path d="M23.553 4.049a2 2 0 0 0-.803.388l-15 12A2 2 0 0 0 7 18v24a2 2 0 0 0 .139.697 2 2 0 0 0 .103.201 2 2 0 0 0 .274.41 2 2 0 0 0 .175.176 2 2 0 0 0 .41.274 2 2 0 0 0 .202.103A2 2 0 0 0 9 44h30a2 2 0 0 0 .697-.139 2 2 0 0 0 .201-.103 2 2 0 0 0 .41-.274 2 2 0 0 0 .176-.175 2 2 0 0 0 .274-.41 2 2 0 0 0 .103-.202A2 2 0 0 0 41 42V18a2 2 0 0 0-.75-1.562l-15-12a2 2 0 0 0-1.697-.39zM24 8.56l13 10.4V40h-6V29a2 2 0 0 0-2-2H19a2 2 0 0 0-2 2v11h-6V18.963zM21 31h6v9h-6z"/></svg>