<svg xmlns="http://www.w3.org/2000/svg" width="48" height="48" viewBox="0 0 48 48"><path d="M4 2a2 2 0 0 0-2 2 2 2 0 0 0 2 2h2v36H4a2 2 0 0 0-2 2 2 2 0 0 0 2 2h40a2 2 0 0 0 2-2 2 2 0 0 0-2-2h-2V6h2a2 2 0 0 0 2-2 2 2 0 0 0-2-2zm6 4h28v36h-8v-8c1.643 0 3.22-1.564 2.867-3.375v-.002C32.102 26.691 28.303 24 24 24s-8.102 2.69-8.867 6.623v.002C14.78 32.435 16.357 34 18 34v8h-8zm5 4a2 2 0 0 0-2 2 2 2 0 0 0 2 2h2a2 2 0 0 0 2-2 2 2 0 0 0-2-2zm8 0a2 2 0 0 0-2 2 2 2 0 0 0 2 2h2a2 2 0 0 0 2-2 2 2 0 0 0-2-2zm8 0a2 2 0 0 0-2 2 2 2 0 0 0 2 2h2a2 2 0 0 0 2-2 2 2 0 0 0-2-2zm-16 6a2 2 0 0 0-2 2 2 2 0 0 0 2 2h2a2 2 0 0 0 2-2 2 2 0 0 0-2-2zm8 0a2 2 0 0 0-2 2 2 2 0 0 0 2 2h2a2 2 0 0 0 2-2 2 2 0 0 0-2-2zm8 0a2 2 0 0 0-2 2 2 2 0 0 0 2 2h2a2 2 0 0 0 2-2 2 2 0 0 0-2-2zm-7 12c1.905 0 3.433.867 4.277 2h-8.554c.844-1.133 2.372-2 4.277-2zm-2 6h4v8h-4z"/></svg>