<svg xmlns="http://www.w3.org/2000/svg" width="48" height="48" viewBox="0 0 48 48"><path d="M23 2c-6.604 0-12 5.396-12 12a2 2 0 0 0 4 0c0-4.442 3.558-8 8-8s8 3.558 8 8v1c0 2.444-.916 4.06-2.463 5.451-1.546 1.392-3.787 2.436-6.111 3.133C17.777 24.979 13 25 13 25a2 2 0 0 0-2 2v17a2 2 0 0 0 2 2h20a2 2 0 0 0 2-2V14c0-6.604-5.396-12-12-12Zm-3 28a2 2 0 0 1 1.414.586L23 32.172l1.586-1.586a2 2 0 1 1 2.828 2.828L25.828 35l1.586 1.586a2 2 0 0 1-2.828 2.828L23 37.828l-1.586 1.586a2 2 0 0 1-2.828-2.828L20.172 35l-1.586-1.586A2 2 0 0 1 20 30Z"/></svg>