<svg xmlns="http://www.w3.org/2000/svg" width="48" height="48" viewBox="0 0 48 48"><path d="M24 2a2 2 0 0 0-2 2v13.44l-10.484 2.62-.01.004-.022.004-.01.002a2 2 0 0 0-.306.127 2 2 0 0 0-.16.067l-.004.002-.043.03-.1.077a2 2 0 0 0-.12.094 2 2 0 0 0-.153.119l-.072.092a2 2 0 0 0-.11.14 2 2 0 0 0-.135.18l-.007.01-7.994 13.99-.002.002-.002.004-.002.004a2 2 0 0 0-.069.168 2 2 0 0 0-.127.31 2 2 0 0 0-.029.221A2 2 0 0 0 2 36v.012C2.006 41.506 6.505 46 12 46c5.5 0 10-4.5 10-10l-.004-.021a2 2 0 0 0-.062-.485l-.008-.027a2 2 0 0 0-.19-.46L21.732 35l-.002-.002-6.685-11.7 9.44-2.359 7.454-1.863-5.67 9.922-.003.006-.002.004a2 2 0 0 0-.069.168 2 2 0 0 0-.127.31 2 2 0 0 0-.029.221A2 2 0 0 0 26 30v.012C26.006 35.506 30.505 40 36 40c5.476 0 9.96-4.463 9.998-9.93L46 30l-.004-.021a2 2 0 0 0-.062-.485l-.008-.027a2 2 0 0 0-.19-.46L45.732 29l-.002-.002-7.994-13.99-.01-.014-.025-.04-.014-.024a2 2 0 0 0-.267-.338l-.004-.002a2 2 0 0 0-.408-.317l-.016-.01a2 2 0 0 0-.154-.062 2 2 0 0 0-.188-.078 2 2 0 0 0-.134-.055 2 2 0 0 0-.25-.033h-.002a2 2 0 0 0-.176-.025L36 14.002a2 2 0 0 0-.398.05l-.016.003-.07.006-.026.005-.006.002-.01.002-.001.002L26 16.44V4a2 2 0 0 0-2-2zm12 18.031L40.555 28h-9.11zm-24 6L16.555 34h-9.11zM30.4 32h11.2c-.822 2.329-2.974 4-5.6 4s-4.778-1.671-5.6-4zm-24 6h11.2c-.822 2.329-2.974 4-5.6 4s-4.777-1.671-5.6-4z"/></svg>