<svg xmlns="http://www.w3.org/2000/svg" width="48" height="48" viewBox="0 0 48 48"><path d="M9 4a2 2 0 0 0-1.957 1.592l-5 24a2 2 0 0 0 1.549 2.365 2 2 0 0 0 2.365-1.549L10.627 8h26.746l4.67 22.408a2 2 0 0 0 2.365 1.549 2 2 0 0 0 1.549-2.365l-5-24A2 2 0 0 0 39 4Z"/><path d="M4 30h10.91l1.817 6h14.546l1.818-6H44v13H4Z"/><path d="M4 28a2 2 0 0 0-2 2v13a2 2 0 0 0 2 2h40a2 2 0 0 0 2-2V30a2 2 0 0 0-2-2H33.092a2 2 0 0 0-1.914 1.42L29.789 34H18.211l-1.389-4.58A2 2 0 0 0 14.908 28Zm2 4h7.426l1.386 4.58A2 2 0 0 0 16.728 38h14.546a2 2 0 0 0 1.915-1.42L34.574 32H42v9H6Zm23.586-17.414-6.453 6.453-2.598-3.107a2 2 0 0 0-2.818-.252 2 2 0 0 0-.252 2.816l4 4.787a2 2 0 0 0 2.95.131l8-8a2 2 0 0 0 0-2.828 2 2 0 0 0-2.83 0z"/></svg>