<svg xmlns="http://www.w3.org/2000/svg" width="48" height="48" viewBox="0 0 48 48"><path d="M40 33h-5.764l-1.447 2.895A2 2 0 0 1 31 37H17a2 2 0 0 1-1.79-1.105L13.765 33H8v6c0 .589.411 1 1 1h30c.589 0 1-.411 1-1v-3z"/><path d="M42 38a2 2 0 0 1-2-2v3c0 .589-.411 1-1 1H9c-.589 0-1-.411-1-1v-3a2 2 0 0 1-2 2v1c0 1.662 1.338 3 3 3h30c1.662 0 3-1.338 3-3zM8 26v3h7a2 2 0 0 1 1.79 1.105L18.235 33h11.528l1.447-2.895A2 2 0 0 1 33 29h7V9c0-.589-.411-1-1-1H9c-.589 0-1 .411-1 1Zm16-16a2 2 0 0 1 2 2v11.172l2.586-2.586a2 2 0 0 1 2.828 0 2 2 0 0 1 0 2.828l-6 6A2 2 0 0 1 24 30a2 2 0 0 1-1.414-.586l-6-6a2 2 0 0 1 0-2.828A2 2 0 0 1 18 20a2 2 0 0 1 1.414.586L22 23.172V12a2 2 0 0 1 2-2z"/><path d="M6 24a2 2 0 0 1 2 2V9c0-.589.411-1 1-1h30c.589 0 1 .411 1 1v17a2 2 0 0 1 2-2V9c0-1.662-1.338-3-3-3H9C7.338 6 6 7.338 6 9Zm38 12a2 2 0 0 1-2 2v1c0 1.662-1.338 3-3 3H9c-1.662 0-3-1.338-3-3v-1a2 2 0 0 1-2-2v3c0 2.735 2.265 5 5 5h30c2.735 0 5-2.265 5-5z"/><path d="M9 4C6.265 4 4 6.265 4 9v17a2 2 0 0 1 2-2V9c0-1.662 1.338-3 3-3h30c1.662 0 3 1.338 3 3v15a2 2 0 0 1 2 2V9c0-2.735-2.265-5-5-5Z"/><path d="M42 33h-2v3a2 2 0 0 0 2 2zm0-4h-2v4h2zm-2-3v3h2v-5a2 2 0 0 0-2 2zm4 7h-2v5a2 2 0 0 0 2-2zm0-4h-2v4h2zm0-3a2 2 0 0 0-2-2v5h2zM6 33h2v-4H6Zm0 5a2 2 0 0 0 2-2v-3H6Zm0-14v5h2v-3a2 2 0 0 0-2-2Zm-2 5h2v-5a2 2 0 0 0-2 2Zm0 4h2v-4H4Zm0 3a2 2 0 0 0 2 2v-5H4Z"/></svg>