<svg xmlns="http://www.w3.org/2000/svg" width="48" height="48" viewBox="0 0 48 48"><path d="M9 4C6.265 4 4 6.265 4 9v20a2 2 0 0 0-2 2 2 2 0 0 0 2 2v6c0 2.735 2.265 5 5 5h30c2.735 0 5-2.265 5-5v-6a2 2 0 0 0 2-2 2 2 0 0 0-2-2V9c0-2.735-2.265-5-5-5zm0 4h30c.589 0 1 .411 1 1v20h-7a2 2 0 0 0-1.79 1.105L29.765 33H18.236l-1.447-2.895A2 2 0 0 0 15 29H8V9c0-.589.411-1 1-1zm15 2a2 2 0 0 0-2 2v11.172l-2.586-2.586A2 2 0 0 0 18 20a2 2 0 0 0-1.414.586 2 2 0 0 0 0 2.828l6 6a2 2 0 0 0 1.932.518 2 2 0 0 0 .896-.518l6-6a2 2 0 0 0 0-2.828 2 2 0 0 0-2.828 0L26 23.172V12a2 2 0 0 0-2-2zM8 33h5.764l1.447 2.895A2 2 0 0 0 17 37h14a2 2 0 0 0 1.79-1.105L34.235 33H40v6c0 .589-.411 1-1 1H9c-.589 0-1-.411-1-1z"/></svg>