<svg xmlns="http://www.w3.org/2000/svg" width="48" height="48" viewBox="0 0 48 48"><path d="M5 17a2 2 0 0 0-2 2v22c0 2.185 1.815 4 4 4h17a2 2 0 0 0 2-2 2 2 0 0 0-2-2H7V21h34v12a2 2 0 0 0 2 2 2 2 0 0 0 2-2V19a2 2 0 0 0-2-2z"/><path d="M7 6c-2.185 0-4 1.815-4 4v9a2 2 0 0 0 2 2h38a2 2 0 0 0 2-2v-9c0-2.185-1.815-4-4-4Zm0 4h34v7H7Z"/><path d="M16 3a2 2 0 0 0-2 2v8a2 2 0 0 0 2 2 2 2 0 0 0 2-2V5a2 2 0 0 0-2-2Zm16 0a2 2 0 0 0-2 2v8a2 2 0 0 0 2 2 2 2 0 0 0 2-2V5a2 2 0 0 0-2-2Zm5 29a7 7 0 0 1-7 7 7 7 0 0 1-7-7 7 7 0 0 1 7-7 7 7 0 0 1 7 7z"/><path d="M30 23c-4.947 0-9 4.053-9 9s4.053 9 9 9 9-4.053 9-9-4.053-9-9-9zm0 4c2.785 0 5 2.215 5 5s-2.215 5-5 5a4.97 4.97 0 0 1-5-5c0-2.785 2.215-5 5-5z"/><path d="M35.818 35.008a2 2 0 0 0-1.355.71 2 2 0 0 0 .256 2.82l6 5a2 2 0 0 0 2.818-.257 2 2 0 0 0-.256-2.818l-6-5a2 2 0 0 0-1.463-.455z"/></svg>