<svg xmlns="http://www.w3.org/2000/svg" width="48" height="48" viewBox="0 0 48 48"><path d="M13 8a4 4 0 0 1-4 4 4 4 0 0 1-4-4 4 4 0 0 1 4-4 4 4 0 0 1 4 4z"/><path d="M9 2C5.71 2 3 4.71 3 8s2.71 6 6 6 6-2.71 6-6-2.71-6-6-6Zm0 4c1.128 0 2 .872 2 2s-.872 2-2 2-2-.872-2-2 .872-2 2-2ZM5 18h8v25H5Z"/><path d="M5 16a2 2 0 0 0-2 2v25a2 2 0 0 0 2 2h8a2 2 0 0 0 2-2V18a2 2 0 0 0-2-2zm2 4h4v21H7Zm14 7.5V43h7V29c0-2.5 1.5-4.5 4-4.5s4 2.5 4 4.5v14h7V27.5c0-3-3.5-9.5-11-9.5s-11 6.5-11 9.5Z"/><path d="M32 16c-4.328 0-7.668 1.935-9.795 4.281C20.08 22.628 19 25.222 19 27.5V43a2 2 0 0 0 2 2h7a2 2 0 0 0 2-2V29c0-.85.259-1.505.59-1.896.331-.392.693-.604 1.41-.604.583 0 .974.238 1.365.736S34 28.5 34 29v14a2 2 0 0 0 2 2h7a2 2 0 0 0 2-2V27.5c0-2.278-1.079-4.872-3.205-7.219C39.668 17.935 36.328 16 32 16Zm0 4c3.172 0 5.332 1.315 6.83 2.969S41 26.778 41 27.5V41h-3V29c0-1.5-.506-2.984-1.49-4.236S33.917 22.5 32 22.5c-1.783 0-3.421.788-4.465 2.021C26.491 25.755 26 27.35 26 29v12h-3V27.5c0-.722.671-2.878 2.17-4.531C26.668 21.315 28.828 20 32 20Z"/></svg>