<svg xmlns="http://www.w3.org/2000/svg" width="48" height="48" viewBox="0 0 48 48"><path d="M11.666 3a2 2 0 0 0-1.58.773l-5.082 6.551-.057.112A3.97 3.97 0 0 0 4 13v27c0 2.738 2.262 5 5 5h30c2.738 0 5-2.262 5-5V13a3.97 3.97 0 0 0-.936-2.549 2 2 0 0 0-.082-.123l-5.066-6.553A2 2 0 0 0 36.334 3zm.98 4h22.706l1.546 2H11.096zM8 13h32v27c0 .576-.424 1-1 1H9c-.576 0-1-.424-1-1zm15.992 4a2 2 0 0 0-2 2v11.164l-4.578-4.578A2 2 0 0 0 16 25a2 2 0 0 0-1.414.586 2 2 0 0 0 0 2.828l7.967 7.967a2 2 0 0 0 .93.55A2 2 0 0 0 24 37a2 2 0 0 0 .51-.068 2 2 0 0 0 .904-.518l8-8a2 2 0 0 0 0-2.828 2 2 0 0 0-2.828 0l-4.594 4.594V19a2 2 0 0 0-2-2z"/></svg>