<svg xmlns="http://www.w3.org/2000/svg" width="48" height="48" viewBox="0 0 48 48"><path d="M19 2a2 2 0 0 0-2 2v5h-1c-2.738 0-5 2.262-5 5v11.324l2 6V41c0 2.738 2.262 5 5 5h12c2.738 0 5-2.262 5-5v-9.676l2-6V14c0-2.738-2.262-5-5-5h-2V7a2 2 0 0 0-2-2 2 2 0 0 0-2 2v2h-5V4a2 2 0 0 0-2-2zm-3 11h16c.576 0 1 .424 1 1v10.676l-2 6V41c0 .576-.424 1-1 1H18c-.576 0-1-.424-1-1V30.676l-2-6V14c0-.576.424-1 1-1zm4 4a2 2 0 0 0-2 2 2 2 0 0 0 2 2h8a2 2 0 0 0 2-2 2 2 0 0 0-2-2zm2 7a2 2 0 0 0-2 2 2 2 0 0 0 2 2h4a2 2 0 0 0 2-2 2 2 0 0 0-2-2z"/></svg>