<svg xmlns="http://www.w3.org/2000/svg" width="48" height="48" viewBox="0 0 48 48"><path d="M9 4C6.262 4 4 6.262 4 9v30c0 2.738 2.262 5 5 5h30c2.738 0 5-2.262 5-5v-3.5a2 2 0 0 0-2-2 2 2 0 0 0-2 2V39c0 .576-.424 1-1 1H15.775a25 25 0 0 0 2.979-3.14C21.23 33.746 23 29.98 23 26V8h16c.576 0 1 .424 1 1v5a2 2 0 0 0 2 2 2 2 0 0 0 2-2V9c0-2.738-2.262-5-5-5zm0 4h10v18c0 2.76-1.313 5.775-3.377 8.37-1.944 2.443-4.533 4.466-6.945 5.577A.96.96 0 0 1 8 39V9c0-.576.424-1 1-1zm27 9a2 2 0 0 0-1.414.586l-6 6-.059.076a2 2 0 0 0-.187.244 2 2 0 0 0-.098.155 2 2 0 0 0-.127.306 2 2 0 0 0-.05.15A2 2 0 0 0 28 25a2 2 0 0 0 .064.482 2 2 0 0 0 .051.15 2 2 0 0 0 .127.307 2 2 0 0 0 .098.155 2 2 0 0 0 .187.244l.059.076 6 6a2 2 0 0 0 2.828 0 2 2 0 0 0 0-2.828L34.828 27H42a2 2 0 0 0 2-2 2 2 0 0 0-2-2h-7.172l2.586-2.586a2 2 0 0 0 0-2.828A2 2 0 0 0 36 17z"/></svg>