<svg xmlns="http://www.w3.org/2000/svg" width="48" height="48" viewBox="0 0 48 48"><path d="M17.64 2c-1.38 0-2.638.949-2.956 2.336L13.38 10H10a2 2 0 0 0-2 2v24a2 2 0 0 0 2 2h3.38l1.304 5.664C15.002 45.051 16.26 46 17.64 46h10.742c1.38 0 2.64-.949 2.959-2.336l1.3-5.664H36a2 2 0 0 0 2-2V21.732A2 2 0 0 0 39 22a2 2 0 0 0 2-2v-4a2 2 0 0 0-2-2 2 2 0 0 0-1 .268V12a2 2 0 0 0-2-2h-3.357l-1.301-5.664C31.023 2.949 29.763 2 28.382 2zm.766 4h9.213l.92 4H17.486zM12 14h22v20H12zm11 4c-3.29 0-6 2.71-6 6s2.71 6 6 6 6-2.71 6-6-2.71-6-6-6zm0 4c1.128 0 2 .872 2 2s-.872 2-2 2-2-.872-2-2 .872-2 2-2zm-5.514 16H28.54l-.92 4h-9.213z"/></svg>