<svg xmlns="http://www.w3.org/2000/svg" width="48" height="48" viewBox="0 0 48 48"><path d="M19.09 30.443c-.648-1.61-1.06-3.66-1.084-6.205a8.2 8.2 0 0 0-2.078-.377c-.717-.034-1.213.033-1.873.065.032.447-.04.658.107 1.18.32 1.138.926 2.28 1.54 2.886 1.226 1.215 2.08 1.992 3.388 2.451zm10.906-6.279c-.014 2.266-.316 4.125-.807 5.633.775-.344 1.483-.764 1.979-1.293 1.367-1.46 1.696-3.213 1.783-4.588-.491-.02-.859-.083-1.361-.055a6.4 6.4 0 0 0-1.594.303z"/><path d="M24 2C11.873 2 2 11.873 2 24s9.873 22 22 22 22-9.873 22-22S36.127 2 24 2Zm-.11 10.963.397.058c1.475.214 2.785 1.18 3.875 2.954.646 1.051 1.167 2.395 1.488 4.072a15 15 0 0 1 1.715-.178c1.587-.09 3.073.06 3.848.143l1.478.158.274 1.46c.422 2.257.215 6.306-2.877 9.608C30.816 34.732 25.897 35 24 35h-.129l-.023-.002c-5.532-.03-8.413-1.64-10.961-4.162-1.329-1.315-2.114-3.001-2.576-4.648-.463-1.648-.656-3.206-.239-4.72l.366-1.323 1.365-.135c.85-.084 2.538-.231 4.318-.145.729.036 1.484.074 2.229.207.815-4.268 2.957-6.444 5.152-7.01z"/><path d="M24.096 17.379C23.54 17.79 22 19.138 22 24c0 2.907.604 4.76 1.217 5.818.482.834.756.879.818.944.193-.137.45-.32.711-.752C25.354 29.005 26 27.12 26 24s-.641-4.947-1.246-5.932c-.383-.622-.468-.573-.658-.69Z"/></svg>