<svg xmlns="http://www.w3.org/2000/svg" width="48" height="48" viewBox="0 0 48 48"><g clip-path="url(#a)"><path d="M36.174 6.01a2 2 0 0 0-1.668.662l-15.332 17.25A9.9 9.9 0 0 0 15 23C9.5 23 5 27.5 5 33s4.5 10 10 10 10-4.5 10-10a9.96 9.96 0 0 0-2.592-6.7l6.719-7.558 5.572 4.776a2 2 0 0 0 2.819-.217 2 2 0 0 0-.217-2.819l-5.518-4.728 4.406-4.957 5.51 4.72a2 2 0 0 0 2.819-.216 2 2 0 0 0-.217-2.819l-7-6a2 2 0 0 0-1.127-.472zM15 27c3.337 0 6 2.663 6 6s-2.663 6-6 6a5.97 5.97 0 0 1-6-6c0-3.337 2.663-6 6-6z"/></g><defs><clipPath id="a"><path d="M0 0h48v48H0z"/></clipPath></defs></svg>