<svg xmlns="http://www.w3.org/2000/svg" width="48" height="48" viewBox="0 0 48 48"><g clip-path="url(#a)"><path d="M23 33a8 8 0 0 1-8 8 8 8 0 0 1-8-8 8 8 0 0 1 8-8 8 8 0 0 1 8 8z"/><path d="M15 23C9.5 23 5 27.5 5 33s4.5 10 10 10 10-4.5 10-10-4.5-10-10-10Zm0 4c3.337 0 6 2.663 6 6s-2.663 6-6 6a5.97 5.97 0 0 1-6-6c0-3.337 2.663-6 6-6zm15.3-12.518a2 2 0 0 0-2.818.217 2 2 0 0 0 .217 2.819l7 6a2 2 0 0 0 2.819-.217 2 2 0 0 0-.217-2.819z"/><path d="M37.3 6.482a2 2 0 0 0-2.794.19l-16 18a2 2 0 0 0 .166 2.822 2 2 0 0 0 2.822-.166L36.19 10.797l5.51 4.72a2 2 0 0 0 2.819-.216 2 2 0 0 0-.217-2.819z"/></g><defs><clipPath id="a"><path d="M0 0h48v48H0z"/></clipPath></defs></svg>