<svg xmlns="http://www.w3.org/2000/svg" width="48" height="48" viewBox="0 0 48 48"><g clip-path="url(#a)"><path d="M37.203 5.01a2 2 0 0 0-1.693.656L19.176 23.922A9.9 9.9 0 0 0 15 23C9.5 23 5 27.5 5 33s4.5 10 10 10 10-4.5 10-10c0-2.568-.981-4.92-2.588-6.695l6.695-7.485 5.036 4.649a2 2 0 0 0 2.826-.112 2 2 0 0 0-.112-2.826l-5.082-4.691 2.495-2.79 6.369 5.915a2 2 0 0 0 2.826-.104 2 2 0 0 0-.104-2.826l-6.423-5.965 1.552-1.736a2 2 0 0 0-.156-2.824 2 2 0 0 0-1.13-.5zM15 27c3.337 0 6 2.663 6 6s-2.663 6-6 6a5.97 5.97 0 0 1-6-6c0-3.337 2.663-6 6-6z"/></g><defs><clipPath id="a"><path d="M0 0h48v48H0z"/></clipPath></defs></svg>