<svg xmlns="http://www.w3.org/2000/svg" width="48" height="48" viewBox="0 0 48 48"><path d="M24 2C11.873 2 2 11.873 2 24s9.873 22 22 22 22-9.873 22-22S36.127 2 24 2zm0 4c9.965 0 18 8.035 18 18s-8.035 18-18 18S6 33.965 6 24 14.035 6 24 6zm0 7c-3.842 0-7 3.158-7 7 0 1.783.807 3.308 1.916 4.549l-.9 7.203A2 2 0 0 0 20 34h8a2 2 0 0 0 1.984-2.248l-.9-7.203C30.193 23.307 31 21.783 31 20c0-3.842-3.158-7-7-7zm0 4c1.68 0 3 1.32 3 3 0 .995-.47 1.852-1.201 2.4a2 2 0 0 0-.783 1.848L25.734 30h-3.468l.718-5.752a2 2 0 0 0-.783-1.848A2.97 2.97 0 0 1 21 20c0-1.68 1.32-3 3-3z"/></svg>