<svg xmlns="http://www.w3.org/2000/svg" width="48" height="48" viewBox="0 0 48 48"><path d="M4 2a2 2 0 0 0-1.414.586 2 2 0 0 0 0 2.828L4 6.828v34.344l-1.414 1.414a2 2 0 0 0 0 2.828 2 2 0 0 0 2.828 0L6.828 44h34.344l1.414 1.414a2 2 0 0 0 2.828 0 2 2 0 0 0 0-2.828L44 41.172V6.828l1.414-1.414a2 2 0 0 0 0-2.828 2 2 0 0 0-2.828 0L41.172 4H6.828L5.414 2.586A2 2 0 0 0 4 2zm6.828 6h26.344l-4.797 4.797A13.92 13.92 0 0 0 24 10a13.92 13.92 0 0 0-8.375 2.797zM8 10.828l4.797 4.797A13.92 13.92 0 0 0 10 24a13.92 13.92 0 0 0 2.797 8.375L8 37.172zm32 0v26.344l-4.797-4.797A13.92 13.92 0 0 0 38 24a13.92 13.92 0 0 0-2.797-8.375zM24 14a10 10 0 0 1 5.521 1.65L24 21.172l-5.521-5.522A10 10 0 0 1 24 14zm-8.35 4.479L21.172 24l-5.522 5.521A10 10 0 0 1 14 24a10 10 0 0 1 1.65-5.521zm16.7 0A10 10 0 0 1 34 24a10 10 0 0 1-1.65 5.521L26.828 24zM24 26.829l5.521 5.52A10 10 0 0 1 24 34a10 10 0 0 1-5.521-1.65zm-8.375 8.374A13.92 13.92 0 0 0 24 38a13.92 13.92 0 0 0 8.375-2.797L37.172 40H10.828z"/></svg>