<svg xmlns="http://www.w3.org/2000/svg" width="48" height="48" viewBox="0 0 48 48"><path d="M16 2s-1.918-.028-3.895.96C10.128 3.95 8 6.334 8 10v32a2 2 0 0 0 2 2 2 2 0 0 0 2-2v-2h16a2 2 0 0 0 2-2 2 2 0 0 0-2-2H12v-4h16a2 2 0 0 0 2-2 2 2 0 0 0-2-2H12v-4h16a2 2 0 0 0 2-2 2 2 0 0 0-2-2H12v-4h16a2 2 0 0 0 2-2 2 2 0 0 0-2-2H12v-2c0-2.333.872-2.95 1.895-3.46A5.6 5.6 0 0 1 16 6a2 2 0 0 0 2-2 2 2 0 0 0-2-2zm24 1s-1.918-.028-3.895.96C34.128 4.95 32 7.334 32 11v32a2 2 0 0 0 2 2 2 2 0 0 0 2-2V11c0-2.333.872-2.95 1.895-3.46A5.6 5.6 0 0 1 40 7a2 2 0 0 0 2-2 2 2 0 0 0-2-2z"/></svg>