<svg xmlns="http://www.w3.org/2000/svg" width="48" height="48" viewBox="0 0 48 48"><path d="M21.113 3.004A2 2 0 0 0 19 5v15.605l-7.928-1.44c-.72-1.007-1.562-2.125-2.603-3.23-.642-.68-1.29-1.31-1.938-1.828C5.883 13.591 5.45 12.99 4 12.99a2 2 0 0 0-2 2V25a2 2 0 0 0 1.404 1.908s8.011 2.504 16.532 5.01c4.26 1.253 8.646 2.507 12.242 3.453 1.798.473 3.396.87 4.7 1.154C38.185 36.81 39.084 37 40 37c.25 0 1.537.04 2.93-.518C44.323 35.925 46 34.278 46 32c0-.25-.009-1.581-.797-2.861s-2.338-2.483-4.719-3.078l-.054-.014-8.03-1.772-5.488-17.863a2 2 0 0 0-1.017-1.201l-4-2a2 2 0 0 0-.782-.207zM23 8.236l.34.17 5.58 18.16a2 2 0 0 0 1.48 1.366l9.125 2.011c1.608.405 2.06.95 2.272 1.293.212.345.203.514.203.764 0 .722-.073.575-.555.768C40.963 32.96 40.25 33 40 33c-.083 0-1.059-.122-2.27-.385-1.21-.263-2.768-.647-4.533-1.111-3.529-.929-7.893-2.175-12.133-3.422C13.308 25.801 7.196 23.89 6 23.518v-4.291c.938 1.055 1.93 2.253 2.32 2.857a2 2 0 0 0 1.323.883l11 2A2 2 0 0 0 23 23zM5 41a2 2 0 0 0-2 2 2 2 0 0 0 2 2h38a2 2 0 0 0 2-2 2 2 0 0 0-2-2z"/></svg>