<svg xmlns="http://www.w3.org/2000/svg" width="48" height="48" viewBox="0 0 48 48"><path d="M42 17a2 2 0 0 1 2 2V9c0-2.735-2.265-5-5-5h-7a2 2 0 0 1 2 2h5c1.662 0 3 1.338 3 3z"/><path d="M42 17V9c0-1.662-1.338-3-3-3h-5a2 2 0 0 1-2 2h7c.589 0 1 .411 1 1v10a2 2 0 0 1 2-2zM6 27a2 2 0 0 1-2-2v14c0 2.735 2.265 5 5 5h30c2.735 0 5-2.265 5-5V25a2 2 0 0 1-2 2v12c0 1.662-1.338 3-3 3H9c-1.662 0-3-1.338-3-3Z"/><path d="M6 27v12c0 1.662 1.338 3 3 3h30c1.662 0 3-1.338 3-3V27a2 2 0 0 1-2-2v14c0 .589-.411 1-1 1H9c-.589 0-1-.411-1-1V25a2 2 0 0 1-2 2zm2-8v1h19V8H9c-.589 0-1 .411-1 1Z"/><path d="M6 17a2 2 0 0 1 2 2V9c0-.589.411-1 1-1h17a2 2 0 0 1-2-2H9C7.338 6 6 7.338 6 9Zm23 7H8v15c0 .589.411 1 1 1h30c.589 0 1-.411 1-1V24Zm2-16v12h9V9c0-.589-.411-1-1-1h-7z"/><path d="M9 4C6.265 4 4 6.265 4 9v10a2 2 0 0 1 2-2V9c0-1.662 1.338-3 3-3h15a2 2 0 0 1 2-2zm17 4h1V6h-3a2 2 0 0 0 2 2zm5-2h-4v2h4zm0 0v2h1a2 2 0 0 0 2-2zm-2-2a2 2 0 0 0-2 2h4a2 2 0 0 0-2-2Z"/><path d="M29 4a2 2 0 0 1 2 2h3a2 2 0 0 0-2-2Zm-3 0a2 2 0 0 0-2 2h3a2 2 0 0 1 2-2zM6 17v3h2v-1a2 2 0 0 0-2-2Zm-2 5a2 2 0 0 1 2-2v-3a2 2 0 0 0-2 2Z"/><path d="M6 24v-4a2 2 0 0 0-2 2 2 2 0 0 0 2 2z"/><path d="M6 24a2 2 0 0 1-2-2v3a2 2 0 0 0 2 2zm2 0v-4H6v4zm0 0H6v3a2 2 0 0 0 2-2zm34-4a2 2 0 0 1 2 2v-3a2 2 0 0 0-2-2zm0 0v-3a2 2 0 0 0-2 2v1z"/><path d="M42 24a2 2 0 0 0 2-2 2 2 0 0 0-2-2zm0 0v-4h-2v4z"/><path d="M42 27a2 2 0 0 0 2-2v-3a2 2 0 0 1-2 2zm0 0v-3h-2v1a2 2 0 0 0 2 2z"/></svg>