<svg xmlns="http://www.w3.org/2000/svg" width="48" height="48" viewBox="0 0 48 48"><path d="M22 6.13c-3.643 4.004-11 12.71-11 17.749 0 6.06 4.77 11.08 11 11.976zm4 0v29.725c6.23-.896 11-5.916 11-11.976 0-5.039-7.357-13.745-11-17.748z"/><path d="M24 2a2 2 0 0 0-1.424.596s-3.317 3.361-6.648 7.597c-1.666 2.118-3.344 4.46-4.643 6.78S9 21.558 9 23.879C9 31.732 15.812 38 24 38s15-6.268 15-14.121c0-2.321-.986-4.586-2.285-6.906s-2.977-4.662-4.643-6.78c-3.33-4.236-6.648-7.597-6.648-7.597A2 2 0 0 0 24 2Zm0 5.031c.982 1.03 2.469 2.508 4.928 5.635 1.584 2.015 3.156 4.225 4.295 6.26C34.36 20.96 35 22.853 35 23.879 35 29.414 30.172 34 24 34s-11-4.586-11-10.121c0-1.026.639-2.919 1.777-4.953 1.14-2.035 2.71-4.245 4.295-6.26C21.531 9.539 23.018 8.06 24 7.031Z"/><path d="M24 34a2 2 0 0 0-2 2v8a2 2 0 0 0 2 2 2 2 0 0 0 2-2v-8a2 2 0 0 0-2-2z"/><path d="M9 23.879C9 31.733 15.813 38 24 38s15-6.267 15-14.121h-4C35 29.414 30.172 34 24 34s-11-4.586-11-10.121Z"/><path d="M24 2a2 2 0 0 0-1.424.596s-3.317 3.361-6.648 7.597c-1.666 2.118-3.344 4.46-4.643 6.78S9 21.558 9 23.879h4c0-1.026.639-2.919 1.777-4.953 1.14-2.035 2.71-4.245 4.295-6.26C21.531 9.539 23.018 8.06 24 7.031c.982 1.03 2.469 2.508 4.928 5.635 1.584 2.015 3.156 4.225 4.295 6.26C34.36 20.96 35 22.853 35 23.879h4c0-2.321-.986-4.586-2.285-6.906s-2.977-4.662-4.643-6.78c-3.33-4.236-6.648-7.597-6.648-7.597A2 2 0 0 0 24 2Z"/></svg>