<svg xmlns="http://www.w3.org/2000/svg" width="48" height="48" viewBox="0 0 48 48"><path d="M24 3c-5.278 0-8.836 3.318-10.67 7.057-1.5 3.057-2.097 6.42-2.267 9.185C7.592 20.116 5 23.272 5 27c0 4.395 3.605 8 8 8s8-3.605 8-8c0-3.678-2.525-6.8-5.924-7.723.18-2.332.723-5.173 1.844-7.459C18.336 8.932 20.278 7 24 7c1.905 0 4.561.547 6.23 2.229s2.856 4.657 1.362 10.865c-.14.577-1.235 3.002-1.235 3.002l-.03.066-1.57 3.526c-.978 1.97-2.002 5.123-1.88 8.546.122 3.424 1.724 7.287 5.816 9.19 1.675.779 3.698.816 5.703.035s3.926-2.633 4.555-5.416a2 2 0 0 0-1.51-2.393 2 2 0 0 0-2.392 1.51c-.354 1.565-1.137 2.196-2.104 2.572-.966.377-2.183.243-2.566.065-2.696-1.254-3.416-3.236-3.504-5.705-.088-2.47.787-5.255 1.467-6.625l.035-.076 1.586-3.56c.04-.074 1.103-2.08 1.517-3.802 1.69-7.021.358-11.828-2.412-14.619S26.595 3 24 3zM13 23c2.233 0 4 1.767 4 4s-1.767 4-4 4a3.97 3.97 0 0 1-4-4c0-2.233 1.767-4 4-4z"/></svg>