<svg xmlns="http://www.w3.org/2000/svg" width="48" height="48" viewBox="0 0 48 48"><path d="M6 6a2 2 0 0 0-2 2v32a2 2 0 0 0 2 2 2 2 0 0 0 2-2V26h14v14a2 2 0 0 0 2 2 2 2 0 0 0 2-2V8a2 2 0 0 0-2-2 2 2 0 0 0-2 2v14H8V8a2 2 0 0 0-2-2zm31 13c-3.29 0-6 2.71-6 6 0 1.706.729 3.255 1.889 4.352C31.143 30.629 30 32.69 30 35c0 3.842 3.158 7 7 7s7-3.158 7-7c0-2.31-1.143-4.37-2.889-5.648A6 6 0 0 0 43 25c0-3.29-2.71-6-6-6zm0 4c1.128 0 2 .872 2 2s-.872 2-2 2-2-.872-2-2 .872-2 2-2zm0 9c1.68 0 3 1.32 3 3s-1.32 3-3 3-3-1.32-3-3 1.32-3 3-3z"/></svg>