<svg xmlns="http://www.w3.org/2000/svg" width="48" height="48" viewBox="0 0 48 48"><path d="M24 7c-7.156 0-13 5.844-13 13 0 1.768.362 3.457 1.006 5H4a2 2 0 0 0-2 2 2 2 0 0 0 2 2h11.5l.082-.01a2 2 0 0 0 .168-.02 2 2 0 0 0 .361-.08 2 2 0 0 0 .207-.07 2 2 0 0 0 .356-.21 2 2 0 0 0 .113-.067 2 2 0 0 0 .27-2.816 9 9 0 0 1-.319-.409v-.002a9 9 0 0 1-.285-.408h.002A8.93 8.93 0 0 1 15 20c0-4.994 4.006-9 9-9s9 4.006 9 9c0 1.82-.534 3.496-1.455 4.908h.002a9 9 0 0 1-.285.408v.002a9 9 0 0 1-.319.409 2 2 0 0 0-.144.244 2 2 0 0 0-.111.187 2 2 0 0 0-.108.315 2 2 0 0 0-.04.18 2 2 0 0 0-.038.34L30.5 27l.01.09a2 2 0 0 0 .142.648 2 2 0 0 0 .082.188 2 2 0 0 0 .164.262 2 2 0 0 0 .166.187 2 2 0 0 0 .149.168 2 2 0 0 0 .113.066 2 2 0 0 0 .356.211 2 2 0 0 0 .207.07 2 2 0 0 0 .365.083 2 2 0 0 0 .166.017l.08.01H44a2 2 0 0 0 2-2 2 2 0 0 0-2-2h-8.006A13 13 0 0 0 37 20c0-7.156-5.844-13-13-13zM4 37a2 2 0 0 0-2 2 2 2 0 0 0 2 2h40a2 2 0 0 0 2-2 2 2 0 0 0-2-2z"/></svg>