<svg xmlns="http://www.w3.org/2000/svg" width="48" height="48" viewBox="0 0 48 48"><path d="M24 2.012c-5.634 0-11.27 2.144-15.557 6.431-8.574 8.575-8.574 22.539 0 31.114s22.539 8.574 31.114 0 8.574-22.539 0-31.114C35.269 4.156 29.634 2.012 24 2.012zm0 3.976a17.93 17.93 0 0 1 11.234 3.95l-2.851 2.851a13.87 13.87 0 0 0-7.04-2.713 14.2 14.2 0 0 0-5.333.51 13.9 13.9 0 0 0-4.393 2.203l-2.851-2.851A17.93 17.93 0 0 1 24 5.988zM9.938 12.766l2.851 2.851a13.87 13.87 0 0 0-2.713 7.04 14.2 14.2 0 0 0 .51 5.333q.192.651.447 1.283a14 14 0 0 0 1.756 3.11l-2.853 2.851a17.964 17.964 0 0 1 .002-22.468zm28.124 0a17.96 17.96 0 0 1 0 22.468l-2.851-2.851a13.87 13.87 0 0 0 2.713-7.04 14.2 14.2 0 0 0-.51-5.333 13.9 13.9 0 0 0-2.203-4.393zM24 13.988a10 10 0 0 1 2.844.414 9.9 9.9 0 0 1 3.465 1.838 10.2 10.2 0 0 1 2.554 3.115 9.93 9.93 0 0 1 .735 7.487 10 10 0 0 1-.735 1.803 10 10 0 0 1-1.793 2.425 10.2 10.2 0 0 1-1.572 1.287 10 10 0 0 1-3.592 1.471 10 10 0 0 1-3.812 0 10 10 0 0 1-2.739-.965 10 10 0 0 1-2.425-1.793 10.2 10.2 0 0 1-1.287-1.572 10 10 0 0 1-1.471-3.592 10 10 0 0 1 0-3.812 10 10 0 0 1 .965-2.739 10 10 0 0 1 1.793-2.425 10.2 10.2 0 0 1 1.572-1.287 10 10 0 0 1 3.592-1.471A10 10 0 0 1 24 13.988zm-8.383 21.223a13.87 13.87 0 0 0 7.04 2.713 14.2 14.2 0 0 0 5.333-.51 13.9 13.9 0 0 0 4.393-2.203l2.851 2.852a17.96 17.96 0 0 1-22.468 0z"/></svg>