<svg xmlns="http://www.w3.org/2000/svg" width="48" height="48" viewBox="0 0 48 48"><path d="M17.81 2a4.025 4.025 0 0 0-3.98 3.602l-1.8 18q-.013.14-.014.28v.003L12 24l.016.117q.001.141.013.281l.98 9.801.821 8.2A4.025 4.025 0 0 0 17.81 46h12.38a4.025 4.025 0 0 0 3.98-3.602l.82-8.199.98-9.8q.013-.141.014-.282v-.002L36 24a2 2 0 0 0-.023-.291l-.006-.107-.98-9.801-.821-8.2A4.025 4.025 0 0 0 30.19 2zm0 4H22v16h-5.791l.781-7.8v-.009zM26 6h4.19l.82 8.195v.004L31.79 22H26zm-9.791 20H22v16h-4.19l-.82-8.2zM26 26h5.791l-.781 7.8v.005L30.19 42H26z"/></svg>