<svg xmlns="http://www.w3.org/2000/svg" width="48" height="48" viewBox="0 0 48 48"><path d="M24 2a2 2 0 0 0-2 2v8a2 2 0 0 0 2 2 2 2 0 0 0 2-2V6h12v6a2 2 0 0 0 2 2 2 2 0 0 0 2-2V4a2 2 0 0 0-2-2zm8 10a2 2 0 0 0-2 2v20a2 2 0 0 0 2 2 2 2 0 0 0 2-2V14a2 2 0 0 0-2-2zm-20 2a2 2 0 0 0-1.414.586l-8 8A2 2 0 0 0 2 24a2 2 0 0 0 .586 1.414l8 8a2 2 0 0 0 2.828 0 2 2 0 0 0 0-2.828L8.828 26H24a2 2 0 0 0 2-2 2 2 0 0 0-2-2H8.828l4.586-4.586a2 2 0 0 0 0-2.828A2 2 0 0 0 12 14zm12 20a2 2 0 0 0-2 2v8a2 2 0 0 0 2 2h16a2 2 0 0 0 2-2v-8a2 2 0 0 0-2-2 2 2 0 0 0-2 2v6H26v-6a2 2 0 0 0-2-2z"/></svg>