<svg xmlns="http://www.w3.org/2000/svg" width="48" height="48" viewBox="0 0 48 48"><path d="M18.342 27.79C20.444 29.062 22.893 30 25 30c2.73 0 5.128-1.014 7.059-2.293a91 91 0 0 1-13.717.082z"/><path d="M35.807 27.322a88 88 0 0 1-3.748.385C30.129 28.987 27.729 30 25 30c-2.107 0-4.556-.937-6.658-2.21a71 71 0 0 1-3.955-.39C17.017 29.621 21.088 32 25 32c4.678 0 8.4-2.435 10.807-4.678zm-18.565-3.65c4.006.351 9.652.512 15.87-.082a29 29 0 0 1-2.176-2.453c-1.19-1.492-3.523-1.385-4.22-.221a2 2 0 0 1-3.435-.002c-.35-.589-1.066-.885-1.781-.885s-1.43.294-1.781.883c-.633 1.063-1.524 1.95-2.477 2.76z"/><path d="M14.416 23.363q1.223.166 2.826.309c.953-.81 1.844-1.697 2.477-2.76.35-.589 1.066-.883 1.781-.883s1.43.296 1.781.885a2 2 0 0 0 3.436.002c.696-1.164 3.029-1.27 4.219.22a29 29 0 0 0 2.175 2.454 81 81 0 0 0 2.59-.287c-.947-.838-2.053-1.973-3.201-3.412-2-2.508-6-2.508-7.5 0-1.5-2.52-5.5-2.52-7 0-.64 1.075-2.188 2.425-3.584 3.472zm24.889 3.149a2 2 0 0 1-.998.465q-1.263.193-2.5.345C33.4 29.565 29.678 32 25 32c-3.912 0-7.983-2.379-10.613-4.6a42 42 0 0 1-2.778-.44 2 2 0 0 1-.996-.538c1.14 1.483 3.005 3.139 5.39 4.629C18.564 32.649 21.68 34 25 34c7.161 0 12.104-4.777 14.305-7.488z"/><path d="M21.5 15.97c-2.035 0-4.07.966-5.219 2.897-.254.428-1.414 1.611-2.562 2.516-1.148.904-2.546 1.74-2.53 1.732a2 2 0 0 0-1.109 1.383 2 2 0 0 1 2.31-1.459c.519.103 1.212.215 2.026.324 1.396-1.047 2.944-2.397 3.584-3.472 1.5-2.52 5.5-2.52 7 0 1.5-2.508 5.5-2.508 7.5 0 1.148 1.44 2.254 2.574 3.201 3.412q.99-.126 1.992-.28a2 2 0 0 1 2.284 1.67 2 2 0 0 1 .015.16 2 2 0 0 0-1.181-1.738c-.265-.117-2.553-1.722-4.747-4.472-2.277-2.856-6.345-3.334-9.064-1.414-1.053-.75-2.233-1.258-3.5-1.258Z"/><path d="M33.111 23.59c.66.66 1.285 1.21 1.887 1.69a19 19 0 0 1-2.937 2.425c1.224-.1 2.473-.224 3.746-.383.936-.873 1.68-1.72 2.193-2.379-.508-.225-1.319-.774-2.299-1.64a81 81 0 0 1-2.59.287zm-18.695-.227c-1.036.777-1.99 1.392-2.416 1.58.481.68 1.319 1.556 2.387 2.457a71 71 0 0 0 3.955.39c-.073-.045-.149-.087-.22-.132a20 20 0 0 1-3.065-2.379c.391-.285.693-.405 1.138-.756.351-.276.703-.559 1.047-.851a62 62 0 0 1-2.826-.309z"/><path d="M10.613 26.422a2 2 0 0 0 .996.539c.731.145 1.673.297 2.778.44-1.068-.902-1.906-1.778-2.387-2.458.426-.188 1.38-.803 2.416-1.58a34 34 0 0 1-2.025-.324 2 2 0 0 0-2.31 1.459 2 2 0 0 0-.044.154 2 2 0 0 0-.012.307 2 2 0 0 0 .04.453l.029.104a2 2 0 0 0 .273.584c.075.105.164.214.246.322z"/><path d="M10.613 26.422c-.082-.108-.171-.217-.246-.322a2 2 0 0 1-.273-.584 2 2 0 0 0 .52.906zm29.383-1.365a2 2 0 0 1-.418 1.115c-.083.107-.18.225-.273.34a2 2 0 0 0 .691-1.455z"/><path d="M39.992 24.854a2 2 0 0 0-.015-.16 2 2 0 0 0-2.284-1.67q-1.002.153-1.992.279c.98.866 1.79 1.415 2.299 1.64a21 21 0 0 1-2.193 2.38 85 85 0 0 0 2.5-.346 2 2 0 0 0 .998-.465c.093-.115.19-.233.273-.34a2 2 0 0 0 .418-1.115v-.002a2 2 0 0 0-.004-.202z"/><path d="M24 2C11.873 2 2 11.873 2 24s9.873 22 22 22 22-9.873 22-22a2 2 0 0 0-2-2 2 2 0 0 0-2 2c0 9.965-8.035 18-18 18S6 33.965 6 24 14.035 6 24 6a2 2 0 0 0 2-2 2 2 0 0 0-2-2Z"/><path d="m39 2-1.797 5.527h-5.812l4.703 3.416-1.797 5.53L39 13.057l4.703 3.416-1.797-5.53 4.703-3.416h-5.812zm-2.611 19.217a2 2 0 0 0-2.828.05 2 2 0 0 0 .05 2.829c.53.511.896.638 1.354 1.011-.723.764-1.285 1.494-2.365 2.266a2 2 0 0 0-.465 2.79 2 2 0 0 0 2.79.464 22.8 22.8 0 0 0 4.653-4.455 2 2 0 0 0-.767-3.057c-.166-.073-1.237-.754-2.422-1.898zm-21.621-.711a26 26 0 0 1-2.204 1.736c-.693.489-1.385.878-1.375.873a2 2 0 0 0-.822 2.985c1.25 1.763 3.612 3.852 6.658 5.554a2 2 0 0 0 2.721-.771 2 2 0 0 0-.771-2.72c-1.565-.875-2.832-1.913-3.846-2.854.74-.533 1.54-1.139 2.299-1.815a2 2 0 0 0 .164-2.824 2 2 0 0 0-2.824-.164z"/></svg>