<svg xmlns="http://www.w3.org/2000/svg" width="48" height="48" viewBox="0 0 48 48"><path d="M9 4c-3.29 0-6 2.71-6 6s2.71 6 6 6 6-2.71 6-6-2.71-6-6-6zm0 4c1.128 0 2 .872 2 2s-.872 2-2 2-2-.872-2-2 .872-2 2-2zm12 0a2 2 0 0 0-2 2 2 2 0 0 0 2 2h22a2 2 0 0 0 2-2 2 2 0 0 0-2-2zM9 18c-3.29 0-6 2.71-6 6s2.71 6 6 6 6-2.71 6-6-2.71-6-6-6zm0 4c1.128 0 2 .872 2 2s-.872 2-2 2-2-.872-2-2 .872-2 2-2zm12 0a2 2 0 0 0-2 2 2 2 0 0 0 2 2h22a2 2 0 0 0 2-2 2 2 0 0 0-2-2zM9 32c-3.29 0-6 2.71-6 6s2.71 6 6 6 6-2.71 6-6-2.71-6-6-6zm0 4c1.128 0 2 .872 2 2s-.872 2-2 2-2-.872-2-2 .872-2 2-2zm12 0a2 2 0 0 0-2 2 2 2 0 0 0 2 2h22a2 2 0 0 0 2-2 2 2 0 0 0-2-2z"/></svg>