<svg xmlns="http://www.w3.org/2000/svg" width="48" height="48" viewBox="0 0 48 48"><path d="M13 5a2 2 0 0 0-1.414.586L7 10.172 5.414 8.586a2 2 0 0 0-2.828 0 2 2 0 0 0 0 2.828l3 3a2 2 0 0 0 2.828 0l6-6a2 2 0 0 0 0-2.828A2 2 0 0 0 13 5zm7 3a2 2 0 0 0-2 2 2 2 0 0 0 2 2h24a2 2 0 0 0 2-2 2 2 0 0 0-2-2zM8 18c-3.29 0-6 2.71-6 6s2.71 6 6 6 6-2.71 6-6-2.71-6-6-6zm0 4c1.128 0 2 .872 2 2s-.872 2-2 2-2-.872-2-2 .872-2 2-2zm12 0a2 2 0 0 0-2 2 2 2 0 0 0 2 2h24a2 2 0 0 0 2-2 2 2 0 0 0-2-2zM8 32c-3.29 0-6 2.71-6 6s2.71 6 6 6 6-2.71 6-6-2.71-6-6-6zm0 4c1.128 0 2 .872 2 2s-.872 2-2 2-2-.872-2-2 .872-2 2-2zm12 0a2 2 0 0 0-2 2 2 2 0 0 0 2 2h24a2 2 0 0 0 2-2 2 2 0 0 0-2-2z"/></svg>