<svg xmlns="http://www.w3.org/2000/svg" width="48" height="48" viewBox="0 0 48 48"><path d="M7 4C4.265 4 2 6.265 2 9v30c0 2.735 2.265 5 5 5h34c2.735 0 5-2.265 5-5V9c0-2.735-2.265-5-5-5zm0 4h34c.589 0 1 .411 1 1v3H6V9c0-.589.411-1 1-1zm-1 8h36v23c0 .589-.411 1-1 1H7c-.589 0-1-.411-1-1zm6 6a2 2 0 0 0-2 2 2 2 0 0 0 2 2h2a2 2 0 0 0 2-2 2 2 0 0 0-2-2zm8 0a2 2 0 0 0-2 2 2 2 0 0 0 2 2h16a2 2 0 0 0 2-2 2 2 0 0 0-2-2zm-8 8a2 2 0 0 0-2 2 2 2 0 0 0 2 2h2a2 2 0 0 0 2-2 2 2 0 0 0-2-2zm8 0a2 2 0 0 0-2 2 2 2 0 0 0 2 2h16a2 2 0 0 0 2-2 2 2 0 0 0-2-2z"/></svg>