<svg xmlns="http://www.w3.org/2000/svg" width="48" height="48" viewBox="0 0 48 48"><path d="M24 2C11.874 2 2 11.874 2 24s9.874 22 22 22 22-9.874 22-22S36.126 2 24 2zm0 8a2 2 0 0 1 2 2v3a2 2 0 0 1-4 0v-3a2 2 0 0 1 2-2zm-8.484 3.514a2 2 0 0 1 1.414.586l2.12 2.123a2 2 0 0 1-2.827 2.828l-2.121-2.121a2 2 0 0 1 1.414-3.416zm16.968 0a2 2 0 0 1 1.414 3.416l-2.12 2.12a2 2 0 0 1-2.829-2.827L31.07 14.1a2 2 0 0 1 1.414-.586zM12 22h3a2 2 0 0 1 0 4h-3a2 2 0 0 1 0-4zm21 0h3a2 2 0 0 1 0 4h-3a2 2 0 0 1 0-4zm-15.363 6.363a2 2 0 0 1 1.414 3.414L16.93 33.9a2 2 0 1 1-2.828-2.83l2.12-2.12a2 2 0 0 1 1.415-.587zm12.726 0a2 2 0 0 1 1.414.586l2.121 2.121a2 2 0 1 1-2.828 2.83l-2.12-2.123a2 2 0 0 1 1.413-3.414zM24 31a2 2 0 0 1 2 2v3a2 2 0 0 1-2 2 2 2 0 0 1-2-2v-3a2 2 0 0 1 2-2z"/></svg>