<svg xmlns="http://www.w3.org/2000/svg" width="48" height="48" viewBox="0 0 48 48"><path d="M24 2C15.766 2 9 8.57 9 16.682c0 5.793 3.645 10.707 7.064 14.234s6.842 5.758 6.842 5.758a2 2 0 0 0 2.188 0s3.422-2.231 6.842-5.758S39 22.475 39 16.682C39 8.57 32.234 2 24 2Zm0 8c3.842 0 7 3.158 7 7s-3.158 7-7 7-7-3.158-7-7 3.158-7 7-7zM9.668 30.766a2 2 0 0 0-.385.076c-1.944.583-3.576 1.274-4.869 2.191S2 35.271 2 37s1.122 3.05 2.414 3.967 2.925 1.608 4.87 2.191C13.17 44.324 18.314 45 24 45s10.83-.676 14.717-1.842c1.944-.583 3.576-1.274 4.869-2.191S46 38.729 46 37s-1.122-3.05-2.414-3.967-2.925-1.608-4.87-2.191a2 2 0 1 0-1.148 3.832c1.676.502 2.972 1.104 3.703 1.623.581.412.697.655.721.703-.024.049-.14.293-.72.705-.732.519-2.028 1.119-3.704 1.621C34.218 40.331 29.361 41 24 41s-10.217-.669-13.568-1.674c-1.676-.502-2.972-1.102-3.703-1.62-.581-.413-.697-.657-.721-.706.024-.048.14-.291.72-.703.732-.519 2.028-1.12 3.704-1.623a2 2 0 0 0-.764-3.908z"/><path d="M24 14c-1.68 0-3 1.32-3 3s1.32 3 3 3 3-1.32 3-3-1.32-3-3-3z"/></svg>