<svg xmlns="http://www.w3.org/2000/svg" width="48" height="48" viewBox="0 0 48 48"><path d="M36 5c-2.738 0-5 2.262-5 5v1.426c-1.757.78-3 2.547-3 4.574v2c0 2.735 2.265 5 5 5h6c2.735 0 5-2.265 5-5v-2c0-2.027-1.243-3.794-3-4.574V10c0-2.738-2.262-5-5-5zM11 7c-2.738 0-5 2.262-5 5v19H4a2 2 0 0 0-2 2v2c0 4.395 3.605 8 8 8h28c4.395 0 8-3.605 8-8v-2a2 2 0 0 0-2-2h-2v-3a2 2 0 0 0-2-2 2 2 0 0 0-2 2v3H10V12c0-.576.424-1 1-1h13a2 2 0 0 0 2-2 2 2 0 0 0-2-2zm25 2c.576 0 1 .424 1 1v1h-2v-1c0-.576.424-1 1-1zm-3 6h6c.589 0 1 .411 1 1v2c0 .589-.411 1-1 1h-6c-.589 0-1-.411-1-1v-2c0-.589.411-1 1-1zM6 35h36c0 2.233-1.767 4-4 4H10a3.97 3.97 0 0 1-4-4z"/></svg>