<svg xmlns="http://www.w3.org/2000/svg" width="48" height="48" viewBox="0 0 48 48"><path d="M9 4C6.262 4 4 6.262 4 9v22c0 2.738 2.262 5 5 5h13v4h-8a2 2 0 0 0-2 2 2 2 0 0 0 2 2h20a2 2 0 0 0 2-2 2 2 0 0 0-2-2h-8v-4h13c2.738 0 5-2.262 5-5v-4a2 2 0 0 0-2-2 2 2 0 0 0-2 2v4c0 .576-.424 1-1 1H9c-.576 0-1-.424-1-1V9c0-.576.424-1 1-1h15a2 2 0 0 0 2-2 2 2 0 0 0-2-2zm27 0c-2.738 0-5 2.262-5 5v1.426c-1.757.78-3 2.547-3 4.574v2c0 2.735 2.265 5 5 5h6c2.735 0 5-2.265 5-5v-2c0-2.027-1.243-3.794-3-4.574V9c0-2.738-2.262-5-5-5zm0 4c.576 0 1 .424 1 1v1h-2V9c0-.576.424-1 1-1zm-3 6h6c.589 0 1 .411 1 1v2c0 .589-.411 1-1 1h-6c-.589 0-1-.411-1-1v-2c0-.589.411-1 1-1z"/></svg>