<svg xmlns="http://www.w3.org/2000/svg" width="48" height="48" viewBox="0 0 48 48"><path d="M7 6c-2.738 0-5 2.262-5 5v26c0 2.738 2.262 5 5 5h17a2 2 0 0 0 2-2 2 2 0 0 0-2-2H7c-.576 0-1-.424-1-1V11c0-.576.424-1 1-1h34c.576 0 1 .424 1 1v12.059a2 2 0 0 0 2 2 2 2 0 0 0 2-2V11c0-2.738-2.262-5-5-5Z"/><path d="M7 8a3 3 0 0 0-3 3v9h40v-9a3 3 0 0 0-3-3zm3 4a2 2 0 0 1 2 2 2 2 0 0 1-2 2 2 2 0 0 1-2-2 2 2 0 0 1 2-2zm6 0a2 2 0 0 1 2 2 2 2 0 0 1-2 2 2 2 0 0 1-2-2 2 2 0 0 1 2-2z"/><path d="M7 6c-2.738 0-5 2.262-5 5v11h44V11c0-2.738-2.262-5-5-5Zm0 4h34c.576 0 1 .424 1 1v7H6v-7c0-.576.424-1 1-1zm28 21c-2.735 0-5 2.265-5 5v2c0 2.735 2.265 5 5 5h6c2.735 0 5-2.265 5-5v-2c0-2.735-2.265-5-5-5zm0 4h6c.589 0 1 .411 1 1v2c0 .589-.411 1-1 1h-6c-.589 0-1-.411-1-1v-2c0-.589.411-1 1-1z"/><path d="M38 25c-2.738 0-5 2.262-5 5v3a2 2 0 0 0 2 2h6a2 2 0 0 0 2-2v-3c0-2.738-2.262-5-5-5zm0 4c.576 0 1 .424 1 1v1h-2v-1c0-.576.424-1 1-1z"/></svg>