<svg xmlns="http://www.w3.org/2000/svg" width="48" height="48" viewBox="0 0 48 48"><path d="M6 4a2 2 0 0 0-2 2v36a2 2 0 0 0 2 2h18a2 2 0 0 0 2-2 2 2 0 0 0-2-2H8V8h15.992a2 2 0 0 0 2-2 2 2 0 0 0-2-2zm19 9a2 2 0 0 0-1.414.586l-9 9-.072.1a2 2 0 0 0-.215.296 2 2 0 0 0-.121.237 2 2 0 0 0-.108.332 2 2 0 0 0-.045.281 2 2 0 0 0-.025.16 2 2 0 0 0 .025.16 2 2 0 0 0 .05.313 2 2 0 0 0 .09.273 2 2 0 0 0 .16.317 2 2 0 0 0 .148.203 2 2 0 0 0 .113.156l9 9a2 2 0 0 0 2.828 0 2 2 0 0 0 0-2.828l-5.594-5.594H42a2 2 0 0 0 2-2 2 2 0 0 0-2-2H20.836l5.578-5.578a2 2 0 0 0 0-2.828A2 2 0 0 0 25 13z"/></svg>