<svg xmlns="http://www.w3.org/2000/svg" width="48" height="48" viewBox="0 0 48 48"><path d="M38 5a2 2 0 0 0-1.414.586 2 2 0 0 0 0 2.828L39.172 11H16C8.316 11 2 17.268 2 25c0 7.756 6.322 14 14 14h14c5.077 0 9.626-2.378 12.555-6.08a16 16 0 0 0 2.623-4.846v-.002a16 16 0 0 0 .62-2.525 2 2 0 0 0-1.66-2.291 2 2 0 0 0-2.29 1.658q-.157.975-.463 1.89v.003a12 12 0 0 1-1.967 3.63A11.96 11.96 0 0 1 30 35H16c-5.528 0-10-4.399-10-10a9.97 9.97 0 0 1 10-10h23.172l-2.586 2.586a2 2 0 0 0 0 2.828 2 2 0 0 0 2.828 0l6-6a2 2 0 0 0 .428-.639l.008-.021A2 2 0 0 0 46 13a2 2 0 0 0-.016-.236l-.011-.088a2 2 0 0 0-.047-.213l-.022-.067a2 2 0 0 0-.086-.226 2 2 0 0 0-.127-.234l-.021-.034a2 2 0 0 0-.139-.187l-.004-.004-.054-.06-.059-.065-6-6A2 2 0 0 0 38 5z"/></svg>