<svg xmlns="http://www.w3.org/2000/svg" width="48" height="48" viewBox="0 0 48 48"><path d="M24.498 3c-4.28 0-9.053 1.328-12.365 3.932a2 2 0 0 0-.498 2.57c.253.44.398.943.398 1.498 0 1.684-1.316 3-2.984 3a3 3 0 0 1-.611-.062 2 2 0 0 0-2.292 1.279C5.358 17.408 5.055 20.3 5.055 22.5c0 .15-.009.32-.02.5H5a2 2 0 0 0-2 2c0 2.145.359 4.208 1.016 6.143a2 2 0 0 0 .406 1.084C7.479 39.714 15.135 45 24 45c11.517 0 21-8.918 21-20a2 2 0 0 0-2-2h-.035q-.018-.272-.02-.5c0-10.19-8.133-19.5-18.447-19.5zm0 4c7.852 0 14.447 7.465 14.447 15.5 0 .196.01.326.014.5H35a2 2 0 0 0-1.414.586L32 25.172l-1.586-1.586A2 2 0 0 0 29 23H9.041c.005-.174.014-.304.014-.5 0-1.358.342-3.18.67-4.639 3.508-.36 6.308-3.262 6.308-6.861 0-.519-.274-.944-.383-1.434C18.032 8.096 21.52 7 24.498 7zM7.213 27h20.959l2.414 2.414a2 2 0 0 0 2.828 0L35.828 27h4.96C39.737 34.855 32.732 41 24 41c-6.33 0-11.75-3.23-14.654-8H16a2 2 0 0 0 2-2 2 2 0 0 0-2-2H7.621a15 15 0 0 1-.408-2z"/></svg>