<svg xmlns="http://www.w3.org/2000/svg" width="48" height="48" viewBox="0 0 48 48"><path d="M28 4v6h4V4zm-7.9 2.1a2 2 0 0 0-1.414.586 2 2 0 0 0 0 2.83l4.244 4.242a2 2 0 0 0 2.828 0 2 2 0 0 0 0-2.828l-4.242-4.244A2 2 0 0 0 20.1 6.1zm18.384.586-4.242 4.244 2.828 2.828 4.244-4.242zM16 16v4h6v-4zm22 0v4h6v-4zm-8.414.414a2 2 0 0 0-1.414.586l-5.242 5.242-1.123 1.123-3.121 3.12L4.129 41.04a2 2 0 0 0 0 2.828 2 2 0 0 0 2.83 0l14.557-14.555v-.002l4.242-4.242L31 19.828A2 2 0 0 0 31 17a2 2 0 0 0-1.414-.586zm7.484 5.828-2.828 2.828 4.242 4.244 2.83-2.83zM28 26v6h4v-6z"/></svg>