<svg xmlns="http://www.w3.org/2000/svg" width="48" height="48" viewBox="0 0 48 48"><path d="M4 7a2 2 0 0 0-.139.027 2 2 0 0 0-.144-.007 2 2 0 0 0-.24.084 2 2 0 0 0-.362.128 2 2 0 0 0-.32.215 2 2 0 0 0-.29.26 2 2 0 0 0-.105.094 2 2 0 0 0-.107.222 2 2 0 0 0-.168.352 2 2 0 0 0-.076.377A2 2 0 0 0 2 9v30a2 2 0 0 0 2 2h20a2 2 0 0 0 2-2 2 2 0 0 0-2-2H6V13l16.8 12.6a2 2 0 0 0 2.4 0L42 13v11a2 2 0 0 0 2 2 2 2 0 0 0 2-2V9l-.006-.03a2 2 0 0 0-.142-.716l-.02-.043a2 2 0 0 0-.232-.41 2 2 0 0 0-.106-.094 2 2 0 0 0-.289-.26 2 2 0 0 0-.32-.215 2 2 0 0 0-.371-.13 2 2 0 0 0-.37-.073A2 2 0 0 0 44 7zm6 4h28L24 21.5zm29.066 15.002a2 2 0 0 0-1.382.492l-8 7A2 2 0 0 0 29 35v4a2 2 0 0 0 2 2h4a2 2 0 0 0 1.316-.494l8-7a2 2 0 0 0 .098-2.92l-4-4a2 2 0 0 0-1.348-.584zm-.158 4.734 1.166 1.166L34.248 37H33v-1.092z"/></svg>