<svg xmlns="http://www.w3.org/2000/svg" width="48" height="48" viewBox="0 0 48 48"><path d="M44 18v21.818C44 41.023 43.105 42 42 42H6c-1.105 0-2-.977-2-2.182V18l20 13z"/><path d="M3.047 16.242A2 2 0 0 0 2 18v21.818C2 42.014 3.716 44 6 44h36c2.284 0 4-1.986 4-4.182V18a2 2 0 0 0-3.09-1.678L24 28.615 5.09 16.322a2 2 0 0 0-2.043-.08ZM6 21.686l16.91 10.992a2 2 0 0 0 2.18 0L42 21.686v18.132c0 .215-.074.182 0 .182H6c.075 0 0 .033 0-.182z"/><path d="m22.865 2.354-20 13.783a2 2 0 0 0-.511 2.781 2 2 0 0 0 2.78.514L24 6.43l18.865 13.002a2 2 0 0 0 2.781-.514 2 2 0 0 0-.511-2.781l-20-13.783a2 2 0 0 0-2.27 0z"/></svg>