<svg xmlns="http://www.w3.org/2000/svg" width="48" height="48" viewBox="0 0 48 48"><path d="M6 5C3.815 5 2 6.815 2 9v30c0 2.185 1.815 4 4 4h36c2.185 0 4-1.815 4-4V9c0-2.185-1.815-4-4-4zm0 4h36v30H6zm12 7a2 2 0 0 0-2 2v5.395l-4.336-6.504A2 2 0 0 0 8 18v12a2 2 0 0 0 2 2 2 2 0 0 0 2-2v-5.395l4.336 6.504A2 2 0 0 0 20 30V18a2 2 0 0 0-2-2zm20 0a2 2 0 0 0-2 2v5.395l-4.336-6.504A2 2 0 0 0 28 18v12a2 2 0 0 0 2 2 2 2 0 0 0 2-2v-5.395l4.336 6.504A2 2 0 0 0 40 30V18a2 2 0 0 0-2-2zm-14 2a2 2 0 0 0-2 2v1a2 2 0 0 0 2 2 2 2 0 0 0 2-2v-1a2 2 0 0 0-2-2zm0 7a2 2 0 0 0-2 2v1a2 2 0 0 0 2 2 2 2 0 0 0 2-2v-1a2 2 0 0 0-2-2z"/></svg>