<svg xmlns="http://www.w3.org/2000/svg" width="48" height="48" viewBox="0 0 48 48"><path d="M7 4a3 3 0 0 0-3 3v34a3 3 0 0 0 3 3h34a3 3 0 0 0 3-3V7a3 3 0 0 0-3-3zm17 6a2 2 0 0 1 2 2v4a2 2 0 0 1-2 2 2 2 0 0 1-2-2v-4a2 2 0 0 1 2-2zm-8.297.023a2 2 0 0 1 .625.004 2 2 0 0 1 1.645 2.301l-4 24a2 2 0 0 1-2.301 1.645 2 2 0 0 1-1.645-2.301l4-24a2 2 0 0 1 1.676-1.649zm17.594 0a2 2 0 0 1 1.676 1.649l4 24a2 2 0 0 1-1.645 2.3 2 2 0 0 1-2.3-1.644l-4-24a2 2 0 0 1 1.644-2.3 2 2 0 0 1 .625-.005zM24 20a2 2 0 0 1 2 2v4a2 2 0 0 1-2 2 2 2 0 0 1-2-2v-4a2 2 0 0 1 2-2zm0 10a2 2 0 0 1 2 2v4a2 2 0 0 1-2 2 2 2 0 0 1-2-2v-4a2 2 0 0 1 2-2z"/><path d="M7 2C4.262 2 2 4.262 2 7v34c0 2.738 2.262 5 5 5h34c2.738 0 5-2.262 5-5V7c0-2.738-2.262-5-5-5Zm0 4h34c.576 0 1 .424 1 1v34c0 .576-.424 1-1 1H7c-.576 0-1-.424-1-1V7c0-.576.424-1 1-1Z"/></svg>