<svg xmlns="http://www.w3.org/2000/svg" width="48" height="48" viewBox="0 0 48 48"><path d="M8.7 6A2.7 2.7 0 0 0 6 8.7v30.6C6 40.793 7.208 42 8.7 42h30.6c1.492 0 2.7-1.208 2.7-2.7V8.7C42 7.207 40.792 6 39.3 6zM32 11c2.738 0 5 2.262 5 5 0 1.156-.395 2.09-.96 3.223-.567 1.131-1.36 2.417-2.394 3.914a2 2 0 0 1-3.292 0c-1.034-1.497-1.827-2.783-2.393-3.914S27 17.156 27 16c0-2.738 2.262-5 5-5zm0 4c-.576 0-1 .424-1 1 0-.051.105.565.54 1.434.094.19.34.532.46.75.12-.218.366-.56.46-.75.435-.869.54-1.485.54-1.434 0-.576-.424-1-1-1zm-16 3c2.738 0 5 2.262 5 5 0 1.156-.395 2.09-.96 3.223-.567 1.131-1.36 2.417-2.394 3.914a2 2 0 0 1-3.292 0c-1.034-1.497-1.827-2.783-2.393-3.914S11 24.156 11 23c0-2.738 2.262-5 5-5zm0 4c-.576 0-1 .424-1 1 0-.051.105.565.54 1.434.094.19.34.532.46.75.12-.218.366-.56.46-.75.435-.869.54-1.485.54-1.434 0-.576-.424-1-1-1zm20.088 3.002a2 2 0 0 1 1.75 1.21 2 2 0 0 1-1.05 2.626l-7 3a2 2 0 0 1-2.626-1.05 2 2 0 0 1 1.05-2.626l7-3a2 2 0 0 1 .876-.16zm-15 6a2 2 0 0 1 1.75 1.21 2 2 0 0 1-1.05 2.626l-7 3a2 2 0 0 1-2.626-1.05 2 2 0 0 1 1.05-2.626l7-3a2 2 0 0 1 .876-.16z"/><path d="M8.7 4C6.126 4 4 6.127 4 8.7v30.6C4 41.874 6.127 44 8.7 44h30.6c2.573 0 4.7-2.127 4.7-4.7V8.7C44 6.126 41.873 4 39.3 4Zm0 4h30.6c.411 0 .7.289.7.7v30.6c0 .411-.289.7-.7.7H8.7a.67.67 0 0 1-.7-.7V8.7c0-.411.289-.7.7-.7Z"/></svg>