<svg xmlns="http://www.w3.org/2000/svg" width="48" height="48" viewBox="0 0 48 48"><path d="M6 2C3.815 2 2 3.815 2 6v36c0 2.185 1.815 4 4 4h36c2.185 0 4-1.815 4-4V6c0-2.185-1.815-4-4-4zm0 4h36v36H6zm7.18 3.008a2 2 0 0 0-.883.119 2 2 0 0 0-1.17 2.576l2.57 6.854-4.369 1.56a2 2 0 0 0-1.21 2.555 2 2 0 0 0 2.554 1.21l28-10a2 2 0 0 0 1.21-2.554 2 2 0 0 0-2.554-1.21L17.465 17.21l-2.592-6.914a2 2 0 0 0-1.693-1.29zm21.248 9.248a2 2 0 0 0-.615.115l-1.883.674a2 2 0 0 0-1.211 2.557 2 2 0 0 0 2.556 1.209l1.883-.672a2 2 0 0 0 1.211-2.557 2 2 0 0 0-1.941-1.326zm-7.533 2.691a2 2 0 0 0-.616.116l-1.884.671a2 2 0 0 0-1.211 2.557 2 2 0 0 0 2.556 1.211l1.885-.672a2 2 0 0 0 1.209-2.557 2 2 0 0 0-1.94-1.326zm-7.536 2.692a2 2 0 0 0-.615.115l-1.883.672a2 2 0 0 0-1.21 2.556 2 2 0 0 0 2.556 1.211l1.883-.673a2 2 0 0 0 1.21-2.555 2 2 0 0 0-1.94-1.326zm18.584.363a2 2 0 0 0-.615.115l-28 10a2 2 0 0 0-1.21 2.555 2 2 0 0 0 2.554 1.21l21.957-7.841 2.498 6.662a2 2 0 0 0 2.576 1.17 2 2 0 0 0 1.17-2.576l-2.477-6.602 2.276-.812a2 2 0 0 0 1.21-2.555 2 2 0 0 0-1.939-1.326zm-26.117 2.326a2 2 0 0 0-.615.115l-1.883.674a2 2 0 0 0-1.21 2.555 2 2 0 0 0 2.554 1.21l1.885-.671a2 2 0 0 0 1.21-2.557 2 2 0 0 0-1.94-1.326z"/></svg>