<svg xmlns="http://www.w3.org/2000/svg" width="48" height="48" viewBox="0 0 48 48"><path d="M11 4a2 2 0 0 0-2 2v36a2 2 0 0 0 2 2 2 2 0 0 0 2-2V6a2 2 0 0 0-2-2Z"/><path d="M11 9h14l7 3h7a2 2 0 0 1 2 2v17a2 2 0 0 1-2 2h-7l-7-3H11Z"/><path d="M11 7a2 2 0 0 0-2 2v21a2 2 0 0 0 2 2h13.59l6.623 2.838A2 2 0 0 0 32 35h7c2.185 0 4-1.815 4-4V14c0-2.185-1.815-4-4-4h-6.59l-6.623-2.838A2 2 0 0 0 25 7Zm2 4h11.59l6.623 2.838A2 2 0 0 0 32 14h7v17h-6.59l-6.623-2.838A2 2 0 0 0 25 28H13ZM7 40a2 2 0 0 0-2 2 2 2 0 0 0 2 2h8a2 2 0 0 0 2-2 2 2 0 0 0-2-2z"/></svg>