<svg xmlns="http://www.w3.org/2000/svg" width="48" height="48" viewBox="0 0 48 48"><path d="M14 14C8.477 14 4 18.477 4 24v3c0 7.18 5.82 13 13 13h14c7.18 0 13-5.82 13-13v-3c0-5.523-4.477-10-10-10zm10 5a2 2 0 0 1 2 2v4h4a2 2 0 0 1 2 2 2 2 0 0 1-2 2h-4v4a2 2 0 0 1-2 2 2 2 0 0 1-2-2v-4h-4a2 2 0 0 1-2-2 2 2 0 0 1 2-2h4v-4a2 2 0 0 1 2-2z"/><path d="M14 12C7.396 12 2 17.396 2 24v3c0 8.26 6.74 15 15 15h14c8.26 0 15-6.74 15-15v-3c0-6.604-5.396-12-12-12Zm0 4h20c4.442 0 8 3.558 8 8v3c0 6.099-4.901 11-11 11H17c-6.099 0-11-4.901-11-11v-3c0-4.442 3.558-8 8-8z"/><path d="M8.168 5.846C4.785 5.846 2 8.63 2 12.014v13.029a2 2 0 0 0 2 2 2 2 0 0 0 2-2v-13.03c0-1.22.947-2.167 2.168-2.167.558 0 1.094.216 1.498.601 1.417 1.354 2.367 2.762 2.934 4.26a2 2 0 0 0 2.578 1.164 2 2 0 0 0 1.164-2.578c-.8-2.115-2.133-4.037-3.914-5.738a6.17 6.17 0 0 0-4.26-1.71Zm31.353.441a6.48 6.48 0 0 0-5.093 2.479 113 113 0 0 0-3.055 4.072 2 2 0 0 0 .463 2.789 2 2 0 0 0 2.791-.463q1.405-1.965 2.945-3.928v-.002a2.47 2.47 0 0 1 1.95-.947A2.45 2.45 0 0 1 42 12.766v12.277a2 2 0 0 0 2 2 2 2 0 0 0 2-2V12.766c0-3.554-2.924-6.479-6.479-6.479Z"/></svg>