<svg xmlns="http://www.w3.org/2000/svg" width="48" height="48" viewBox="0 0 48 48"><path d="M14 10a2 2 0 0 0-2 2v4h24v-4a2 2 0 0 0-2-2zm-2 10v22a2 2 0 0 0 2 2h20a2 2 0 0 0 2-2V20zm12 5a2 2 0 0 1 2 2v2h2a2 2 0 0 1 2 2 2 2 0 0 1-2 2h-2v2a2 2 0 0 1-2 2 2 2 0 0 1-2-2v-2h-2a2 2 0 0 1-2-2 2 2 0 0 1 2-2h2v-2a2 2 0 0 1 2-2z"/><path d="M14 8c-2.185 0-4 1.815-4 4v30c0 2.185 1.815 4 4 4h20c2.185 0 4-1.815 4-4V12c0-2.185-1.815-4-4-4Zm0 4h20v30H14Z"/><path d="M12 13a2 2 0 0 0-2 2v6a2 2 0 0 0 2 2 2 2 0 0 0 2-2v-6a2 2 0 0 0-2-2zm24 0a2 2 0 0 0-2 2v6a2 2 0 0 0 2 2 2 2 0 0 0 2-2v-6a2 2 0 0 0-2-2zm-4-9H16v6h16z"/><path d="M16 2a2 2 0 0 0-2 2v6a2 2 0 0 0 2 2h16a2 2 0 0 0 2-2V4a2 2 0 0 0-2-2Zm2 4h12v2H18Z"/></svg>