<svg xmlns="http://www.w3.org/2000/svg" width="48" height="48" viewBox="0 0 48 48"><path d="M5 2C3.367 2 2 3.367 2 5v38c0 1.633 1.367 3 3 3h14c1.633 0 3-1.367 3-3v-9a2 2 0 0 0-2-2 2 2 0 0 0-2 2v8H6V26h9.365l-1.404 1.404a2 2 0 0 0 0 2.828 2 2 0 0 0 2.828 0l1.592-1.59 3.182-3.183a2 2 0 0 0 0-2.828l-3.182-3.182-1.592-1.592a2 2 0 0 0-2.828 0 2 2 0 0 0 0 2.83L15.275 22H6V6h12v8a2 2 0 0 0 2 2 2 2 0 0 0 2-2V5c0-1.633-1.367-3-3-3zm24 0c-1.633 0-3 1.367-3 3v9a2 2 0 0 0 2 2 2 2 0 0 0 2-2V6h12v16h-9.15l1.312-1.312a2 2 0 0 0 0-2.83 2 2 0 0 0-1.414-.587 2 2 0 0 0-1.414.586l-1.59 1.592-3.074 3.072a2 2 0 0 0-.354.415l-.037.048-.039.082a2 2 0 0 0 .32 2.393l3.184 3.182v.002l1.59 1.59a2 2 0 0 0 2.828 0 2 2 0 0 0 0-2.829L32.76 26H42v16H30v-8a2 2 0 0 0-2-2 2 2 0 0 0-2 2v9c0 1.633 1.367 3 3 3h14c1.633 0 3-1.367 3-3V5c0-1.633-1.367-3-3-3z"/></svg>