<svg xmlns="http://www.w3.org/2000/svg" width="48" height="48" viewBox="0 0 48 48"><path d="M32.406 1.705a5.5 5.5 0 0 0-3.89 1.598L26.748 5.07a2 2 0 0 0-.242.303 7.46 7.46 0 0 0-5.06 2.172L8.91 20.082l-1.496-1.496A2 2 0 0 0 6 18a2 2 0 0 0-1.414.586 2 2 0 0 0 0 2.828l2.91 2.91-2.668 2.668a2 2 0 0 0 0 2.828l4.95 4.95a2 2 0 0 0 2.83 0l2.665-2.668 2.041 2.04a2 2 0 0 0 2.829 0 2 2 0 0 0 0-2.828l-.627-.626 3.117-3.116c2.501 1.533 5.849 1.222 8.006-.935a6.4 6.4 0 0 0 1.535-2.46C34.552 24.875 37 27.62 37 32c0 5.012-3.764 7.803-6.672 10H10a2 2 0 0 0-2 2 2 2 0 0 0 2 2h32a2 2 0 0 0 2-2 2 2 0 0 0-2-2h-5.467C38.847 39.675 41 36.45 41 32c0-6.35-3.968-11.187-8.766-11.904-.157-.509-.378-1-.662-1.463l.48-.48a7.46 7.46 0 0 0 2.173-5.061 2 2 0 0 0 .302-.242l1.768-1.768c2.131-2.131 2.131-5.648 0-7.78a5.48 5.48 0 0 0-3.889-1.597zm0 3.975c.38 0 .76.15 1.06.45a1.473 1.473 0 0 1 0 2.124l-.353.353-1.06-1.062-.018-.016-1.043-1.045.354-.353c.3-.301.68-.451 1.06-.451zm-5.658 3.658c.891 0 1.783.345 2.475 1.037a3.47 3.47 0 0 1 0 4.95l-.53.529-.181.181c-2.353-.956-5.17-.486-7.067 1.41-1.896 1.897-2.366 4.714-1.41 7.067l-.181.181L16.85 27.7l-4.95-4.951 12.373-12.373a3.5 3.5 0 0 1 2.475-1.037zm-.707 10.19c.636 0 1.271.249 1.768.745a2.47 2.47 0 0 1 0 3.536 2.47 2.47 0 0 1-3.536 0 2.47 2.47 0 0 1 0-3.536 2.5 2.5 0 0 1 1.768-.746zm-15.717 7.624 2.121 2.121-1.252 1.254-2.123-2.12z"/></svg>