<svg xmlns="http://www.w3.org/2000/svg" width="48" height="48" viewBox="0 0 48 48"><path d="M15 3c-2.185 0-4 1.815-4 4v11.275L6.463 23.72A2 2 0 0 0 6 25v3a2 2 0 0 0 2 2h3v1.04l-4.25 3.398A2 2 0 0 0 6 36v5c0 2.185 1.815 4 4 4h27c2.185 0 4-1.815 4-4V7c0-2.185-1.815-4-4-4zm0 4h22v34H10v-4.04l4.25-3.398A2 2 0 0 0 15 32v-4a2 2 0 0 0-2-2h-3v-.275l4.537-5.444A2 2 0 0 0 15 19zm5 2a2 2 0 0 0-2 2v4a2 2 0 0 0 2 2 2 2 0 0 0 2-2v-4a2 2 0 0 0-2-2zm6 0a2 2 0 0 0-2 2v4a2 2 0 0 0 2 2 2 2 0 0 0 2-2v-4a2 2 0 0 0-2-2zm6 0a2 2 0 0 0-2 2v4a2 2 0 0 0 2 2 2 2 0 0 0 2-2v-4a2 2 0 0 0-2-2z"/></svg>