<svg xmlns="http://www.w3.org/2000/svg" width="48" height="48" viewBox="0 0 48 48"><path d="M27.97 3a2 2 0 0 0-1.413.586L8.172 21.97a2 2 0 0 0 0 2.828l9.191 9.193a2 2 0 0 0 2.838-.01l4.451-4.505a6.42 6.42 0 0 0 4.787.492c1.263 1.06 1.736 2.39 1.518 4.724-.197 2.11-1.853 4.605-5.598 7.307H6a2 2 0 0 0-2 2 2 2 0 0 0 2 2h36a2 2 0 0 0 2-2 2 2 0 0 0-2-2H31.469c2.02-2.153 3.24-4.447 3.472-6.936.265-2.835-.48-5.458-2.154-7.373a6.45 6.45 0 0 0 1.37-3.968 6.4 6.4 0 0 0-.727-2.97l5.148-5.146a2 2 0 0 0 0-2.83l-9.193-9.191A2 2 0 0 0 27.97 3zm0 4.828 6.364 6.365-3.74 3.74a6.4 6.4 0 0 0-2.938-.71c-3.566 0-6.5 2.934-6.5 6.5 0 1.04.25 2.025.692 2.9L18.77 29.74l-6.356-6.355zm-.314 13.395a2.47 2.47 0 0 1 2.5 2.5 2.47 2.47 0 0 1-2.5 2.5 2.47 2.47 0 0 1-2.5-2.5 2.47 2.47 0 0 1 2.5-2.5zM6.533 26.137a2 2 0 0 0-1.406.601 2 2 0 0 0 .033 2.828l7.861 7.678a2 2 0 0 0 2.829-.033 2 2 0 0 0-.034-2.828l-7.86-7.678a2 2 0 0 0-1.423-.568z"/></svg>