<svg xmlns="http://www.w3.org/2000/svg" width="48" height="48" viewBox="0 0 48 48"><path d="M8 7a2 2 0 0 0-2 2v3H4a2 2 0 0 0-2 2v24a2 2 0 0 0 2 2h18.416c2.267 1.23 4.832 2 7.584 2s5.317-.77 7.584-2H42a2 2 0 0 0 2-2v-4.416c1.23-2.267 2-4.832 2-7.584s-.77-5.317-2-7.584V14a2 2 0 0 0-2-2h-4.416c-2.267-1.23-4.832-2-7.584-2s-5.317.77-7.584 2H19V9a2 2 0 0 0-2-2Zm2 4h5v1h-5zm20 3c2.27 0 4.378.625 6.184 1.713a12.1 12.1 0 0 1 4.103 4.103A11.9 11.9 0 0 1 42 26c0 2.27-.625 4.378-1.713 6.184a12.1 12.1 0 0 1-4.103 4.103A11.9 11.9 0 0 1 30 38a11.9 11.9 0 0 1-6.184-1.713C20.332 34.187 18 30.381 18 26c0-4.38 2.332-8.187 5.816-10.287A11.9 11.9 0 0 1 30 14ZM6 16h11.666C15.431 18.754 14 22.19 14 26s1.431 7.246 3.666 10H6Z"/><path d="M30 18c-4.395 0-8 3.605-8 8a2 2 0 0 0 4 0c0-2.233 1.767-4 4-4a2 2 0 0 0 0-4zm-20 2a2 2 0 0 0-2 2v8a2 2 0 0 0 4 0v-8a2 2 0 0 0-2-2zm26 4a2 2 0 0 0-2 2c0 2.233-1.767 4-4 4a2 2 0 0 0 0 4c4.395 0 8-3.605 8-8a2 2 0 0 0-2-2z"/></svg>