<svg xmlns="http://www.w3.org/2000/svg" width="48" height="48" viewBox="0 0 48 48"><path d="M26.748 5.361a7.48 7.48 0 0 0-5.303 2.184L7.758 21.232v.002c-.82.82-.82 2.21 0 3.03l6.97 6.97c1.155 1.155 3.088 1.155 4.243 0l3.713-3.712 1.103-1.106a2 2 0 0 0 0-2.828 2 2 0 0 0-2.828 0l-1.105 1.105L16.85 27.7l-4.952-4.949 12.375-12.375a3.47 3.47 0 0 1 4.95 0 3.47 3.47 0 0 1 0 4.95l-.53.529-1.105 1.105a2 2 0 0 0 0 2.828 2 2 0 0 0 2.828 0l1.105-1.103.532-.532c2.912-2.912 2.912-7.695 0-10.607a7.48 7.48 0 0 0-5.305-2.184Z"/><path d="m28.163 6.485 1.768-1.767a3.5 3.5 0 0 1 4.95 4.95l-1.768 1.767z"/><path d="M32.406 1.705a5.5 5.5 0 0 0-3.89 1.598L26.748 5.07a2 2 0 0 0 0 2.83l4.951 4.95a2 2 0 0 0 2.828 0l1.768-1.768c2.131-2.131 2.131-5.648 0-7.78a5.48 5.48 0 0 0-3.889-1.597Zm0 3.975c.38 0 .76.15 1.06.45a1.473 1.473 0 0 1 0 2.124l-.353.353-2.12-2.123.353-.353c.3-.301.68-.451 1.06-.451zM9.07 22.748l-4.242 4.244a2 2 0 0 0 0 2.828l4.95 4.95a2 2 0 0 0 2.83 0l4.242-4.243a2 2 0 0 0 0-2.828l-4.95-4.951a2 2 0 0 0-2.83 0zm1.416 4.244 2.121 2.121-1.414 1.414-2.123-2.12zm18.738-1.767a4.5 4.5 0 0 1-6.364 0 4.5 4.5 0 0 1 0-6.364 4.5 4.5 0 0 1 6.364 0 4.5 4.5 0 0 1 0 6.364z"/><path d="M30.638 17.445c-2.522-2.521-6.67-2.521-9.192 0s-2.522 6.67 0 9.192 6.67 2.522 9.192 0 2.521-6.67 0-9.192zm-2.829 2.829a2.47 2.47 0 0 1 0 3.535 2.47 2.47 0 0 1-3.535 0 2.47 2.47 0 0 1 0-3.535 2.47 2.47 0 0 1 3.535 0zM6 18a2 2 0 0 0-1.414.586 2 2 0 0 0 0 2.828l12.728 12.729a2 2 0 0 0 2.829 0 2 2 0 0 0 0-2.829L7.414 18.586A2 2 0 0 0 6 18Zm4 24a2 2 0 0 0-2 2 2 2 0 0 0 2 2h32a2 2 0 0 0 2-2 2 2 0 0 0-2-2z"/><path d="M31 20a2 2 0 0 0-2 2 2 2 0 0 0 2 2c2.667 0 6 2.889 6 8 0 5.324-4.26 8.152-7.215 10.412a2 2 0 0 0-.373 2.803 2 2 0 0 0 2.803.373C34.926 43.515 41 39.476 41 32c0-6.889-4.667-12-10-12Z"/></svg>