<svg xmlns="http://www.w3.org/2000/svg" width="48" height="48" viewBox="0 0 48 48"><path d="M15 26.314s4.596-.354 7.778-3.536S26.314 15 26.314 15l7.752 12.182a4.986 4.986 0 0 1-6.884 6.884z"/><path d="m24.78 8.865-.46 5.98s-.403 3.965-2.957 6.518-6.517 2.957-6.517 2.957l-5.983.46 5.063 3.222 12.181 7.752a7.006 7.006 0 0 0 8.692-.955 7.006 7.006 0 0 0 .955-8.692zm2.234 10.96 5.365 8.43a2.97 2.97 0 0 1-.408 3.716 2.97 2.97 0 0 1-3.715.408l-8.432-5.365c1.446-.613 2.978-1.43 4.37-2.82 1.39-1.392 2.207-2.924 2.82-4.37z"/><path d="M15 2C7.844 2 2 7.844 2 15s5.844 13 13 13 13-5.844 13-13S22.156 2 15 2Zm0 4c4.994 0 9 4.006 9 9s-4.006 9-9 9a8.97 8.97 0 0 1-9-9c0-4.994 4.006-9 9-9z"/><path d="M24.041 4.242 4.242 24.041a2 2 0 0 0 0 2.83 2 2 0 0 0 2.828 0l19.8-19.8a2 2 0 0 0 0-2.829 2 2 0 0 0-2.829 0zm8.545 27.344a2 2 0 0 0 0 2.828L37.172 39H33a2 2 0 0 0-2 2 2 2 0 0 0 2 2h9a2 2 0 0 0 1.414-3.414l-8-8a2 2 0 0 0-2.828 0z"/></svg>