<svg xmlns="http://www.w3.org/2000/svg" width="48" height="48" viewBox="0 0 48 48"><path d="M34 44H14c-5 0-7-1-7-4v-6h11l1 4h11l1-4h10v6c0 3-2 4-7 4Z"/><path d="M7 32a2 2 0 0 0-2 2v6c0 1.944.958 3.93 2.654 4.873C9.351 45.816 11.367 46 14 46h20c2.633 0 4.649-.184 6.346-1.127S43 41.945 43 40v-6a2 2 0 0 0-2-2H31a2 2 0 0 0-1.94 1.516L28.439 36H20.56l-.622-2.484A2 2 0 0 0 18 32Zm2 4h7.438l.623 2.484A2 2 0 0 0 19 40h11a2 2 0 0 0 1.94-1.516L32.561 36H39v4c0 1.055-.042 1.07-.596 1.377S36.367 42 34 42H14c-2.367 0-3.851-.316-4.404-.623S9 41.056 9 40Z"/><path d="M24 2C13.557 2 5 10.449 5 21.854c0 5.91 3.35 10.228 5.328 13.244a2 2 0 0 0 2.77.574 2 2 0 0 0 .574-2.77C11.56 29.682 9 26.233 9 21.854 9 12.394 15.665 6 24 6s15 6.394 15 15.854c0 4.38-2.56 7.828-4.672 11.048a2 2 0 0 0 .574 2.77 2 2 0 0 0 2.77-.574C39.649 32.082 43 27.765 43 21.854 43 10.449 34.443 2 24 2Z"/></svg>