<svg xmlns="http://www.w3.org/2000/svg" width="48" height="48" viewBox="0 0 48 48"><path d="M24 4C15.716 4 9 10.716 9 19s6.716 15 15 15 15-6.716 15-15S32.284 4 24 4zm0 7c4.395 0 8 3.605 8 8s-3.605 8-8 8-8-3.605-8-8 3.605-8 8-8zm0 4a3.97 3.97 0 0 0-4 4c0 2.233 1.767 4 4 4s4-1.767 4-4-1.767-4-4-4z"/><path d="M24 2C14.635 2 7 9.635 7 19s7.635 17 17 17 17-7.635 17-17S33.365 2 24 2Zm0 4c7.203 0 13 5.797 13 13s-5.797 13-13 13-13-5.797-13-13S16.797 6 24 6Z"/><path d="M19.37 32a2 2 0 0 0-1.897 1.361l-3.368 10A2 2 0 0 0 16 46h16a2 2 0 0 0 1.895-2.643l-3.397-10A2 2 0 0 0 28.604 32Zm1.435 4h6.365l2.037 6H18.783Z"/><path d="M12 42a2 2 0 0 0-2 2 2 2 0 0 0 2 2h24a2 2 0 0 0 2-2 2 2 0 0 0-2-2z"/></svg>