<svg xmlns="http://www.w3.org/2000/svg" width="48" height="48" viewBox="0 0 48 48"><path d="M18 4H6a2 2 0 0 0-2 2v12a2 2 0 0 0 2 2h12a2 2 0 0 0 2-2V6a2 2 0 0 0-2-2Z"/><path d="M6 2C3.815 2 2 3.815 2 6v12c0 2.185 1.815 4 4 4h12c2.185 0 4-1.815 4-4V6c0-2.185-1.815-4-4-4Zm0 4h12v12H6Zm12 22H6a2 2 0 0 0-2 2v12a2 2 0 0 0 2 2h12a2 2 0 0 0 2-2V30a2 2 0 0 0-2-2z"/><path d="M6 26c-2.185 0-4 1.815-4 4v12c0 2.185 1.815 4 4 4h12c2.185 0 4-1.815 4-4V30c0-2.185-1.815-4-4-4zm0 4h12v12H6ZM42 4H30a2 2 0 0 0-2 2v12a2 2 0 0 0 2 2h12a2 2 0 0 0 2-2V6a2 2 0 0 0-2-2Z"/><path d="M30 2c-2.185 0-4 1.815-4 4v12c0 2.185 1.815 4 4 4h12c2.185 0 4-1.815 4-4V6c0-2.185-1.815-4-4-4Zm0 4h12v12H30Zm-2 20a2 2 0 0 0-2 2 2 2 0 0 0 2 2h16a2 2 0 0 0 2-2 2 2 0 0 0-2-2zm8 8a2 2 0 0 0-2 2 2 2 0 0 0 2 2h8a2 2 0 0 0 2-2 2 2 0 0 0-2-2zm-8 8a2 2 0 0 0-2 2 2 2 0 0 0 2 2h16a2 2 0 0 0 2-2 2 2 0 0 0-2-2z"/></svg>