<svg xmlns="http://www.w3.org/2000/svg" width="48" height="48" viewBox="0 0 48 48"><path d="M24 2c-2.029 0-3.795 1.243-4.574 3H9a2 2 0 0 0-2 2 2 2 0 0 0 2 2h10.426c.78 1.757 2.545 3 4.574 3s3.795-1.243 4.574-3H39a2 2 0 0 0 2-2 2 2 0 0 0-2-2H28.574C27.794 3.243 26.03 2 24 2zm0 4c.576 0 1 .424 1 1s-.424 1-1 1-1-.424-1-1 .424-1 1-1zm-3 8c-5.5 0-10 4.5-10 10v9c0 2.738 2.262 5 5 5h1.389c.35.693.918 1.26 1.611 1.611V41c0 2.738 2.262 5 5 5s5-2.262 5-5v-1.389A3.68 3.68 0 0 0 30.611 38H32c2.738 0 5-2.262 5-5v-9c0-5.5-4.5-10-10-10zm0 4h6c3.337 0 6 2.663 6 6v9c0 .576-.424 1-1 1h-1.074c-.491-3.375-3.423-6-6.926-6s-6.435 2.625-6.926 6H16c-.576 0-1-.424-1-1v-9c0-3.337 2.663-6 6-6zm3 14c1.68 0 3 1.32 3 3v1h-6v-1c0-1.68 1.32-3 3-3zm-1 8h2v1c0 .576-.424 1-1 1s-1-.424-1-1z"/></svg>