<svg xmlns="http://www.w3.org/2000/svg" width="48" height="48" viewBox="0 0 48 48"><path d="M24 16H12v16c0 6.627 5.373 12 12 12s12-5.373 12-12V16Z"/><path d="M12 14a2 2 0 0 0-2 2v16c0 7.708 6.292 14 14 14s14-6.292 14-14V16a2 2 0 0 0-2-2H24Zm2 4h20v14a9.97 9.97 0 0 1-10 10 9.97 9.97 0 0 1-10-10Z"/><path d="M24 2a2 2 0 0 0-2 2v12a2 2 0 0 0 2 2h12a2 2 0 0 0 2-2c0-7.708-6.292-14-14-14Zm2 4.402c3.876.808 6.79 3.722 7.598 7.598H26Z"/><path d="M24 2c-7.708 0-14 6.292-14 14a2 2 0 0 0 2 2h12a2 2 0 0 0 2-2V4a2 2 0 0 0-2-2Zm-2 4.402V14h-7.598c.808-3.876 3.722-6.79 7.598-7.598Z"/></svg>