<svg xmlns="http://www.w3.org/2000/svg" width="48" height="48" viewBox="0 0 48 48"><path d="M24 4C12.954 4 4 12.954 4 24s8.954 20 20 20 20-8.954 20-20S35.046 4 24 4zm0 6c2.738 0 5 2.262 5 5s-2.262 5-5 5-5-2.262-5-5 2.262-5 5-5zm0 4c-.576 0-1 .424-1 1s.424 1 1 1 1-.424 1-1-.424-1-1-1zm-9 5c2.738 0 5 2.262 5 5s-2.262 5-5 5-5-2.262-5-5 2.262-5 5-5zm18 0c2.738 0 5 2.262 5 5s-2.262 5-5 5-5-2.262-5-5 2.262-5 5-5zm-18 4c-.576 0-1 .424-1 1s.424 1 1 1 1-.424 1-1-.424-1-1-1zm18 0c-.576 0-1 .424-1 1s.424 1 1 1 1-.424 1-1-.424-1-1-1zm-9 5c2.738 0 5 2.262 5 5s-2.262 5-5 5-5-2.262-5-5 2.262-5 5-5zm0 4c-.576 0-1 .424-1 1s.424 1 1 1 1-.424 1-1-.424-1-1-1z"/><path d="M24 2C11.873 2 2 11.873 2 24s9.873 22 22 22 22-9.873 22-22S36.127 2 24 2Zm0 4c9.965 0 18 8.035 18 18s-8.035 18-18 18S6 33.965 6 24 14.035 6 24 6Z"/><path d="M24 42a2 2 0 0 0-2 2 2 2 0 0 0 2 2h20a2 2 0 0 0 2-2 2 2 0 0 0-2-2z"/></svg>