<svg xmlns="http://www.w3.org/2000/svg" width="48" height="48" viewBox="0 0 48 48"><path d="M4 16v26h40V16zm8 6h24a2 2 0 0 1 2 2 2 2 0 0 1-2 2H12a2 2 0 0 1-2-2 2 2 0 0 1 2-2zm0 8h12a2 2 0 0 1 2 2 2 2 0 0 1-2 2H12a2 2 0 0 1-2-2 2 2 0 0 1 2-2z"/><path d="M4 14a2 2 0 0 0-2 2v26a2 2 0 0 0 2 2h40a2 2 0 0 0 2-2V16a2 2 0 0 0-2-2zm2 4h36v22H6Z"/><path d="M4 4a2 2 0 0 0-2 2v10a2 2 0 0 0 2 2h40a2 2 0 0 0 2-2V6a2 2 0 0 0-2-2Zm2 4h36v6H6Z"/><path d="M25.258 4.143a2 2 0 0 0-1.115 2.6l4 10a2 2 0 0 0 2.6 1.114 2 2 0 0 0 1.114-2.6l-4-10a2 2 0 0 0-2.6-1.114zm-8 0a2 2 0 0 0-1.115 2.6l4 10a2 2 0 0 0 2.6 1.114 2 2 0 0 0 1.114-2.6l-4-10a2 2 0 0 0-2.6-1.114zm-8 0a2 2 0 0 0-1.115 2.6l4 10a2 2 0 0 0 2.6 1.114 2 2 0 0 0 1.114-2.6l-4-10a2 2 0 0 0-2.6-1.114Zm24 0a2 2 0 0 0-1.115 2.6l4 10a2 2 0 0 0 2.6 1.114 2 2 0 0 0 1.114-2.6l-4-10a2 2 0 0 0-2.6-1.114z"/></svg>