<svg xmlns="http://www.w3.org/2000/svg" width="48" height="48" viewBox="0 0 48 48"><path d="M24 15a5 5 0 1 0 0-10 5 5 0 0 0 0 10z"/><path d="M24 3c-3.842 0-7 3.158-7 7s3.158 7 7 7 7-3.158 7-7-3.158-7-7-7zm0 4c1.68 0 3 1.32 3 3s-1.32 3-3 3-3-1.32-3-3 1.32-3 3-3z"/><path d="M24 13a2 2 0 0 0-2 2v8a2 2 0 0 0 2 2 2 2 0 0 0 2-2v-8a2 2 0 0 0-2-2z"/><path d="M18.002 21A2 2 0 0 0 16 23v10a2 2 0 0 0 2 2 2 2 0 0 0 2-2v-7.998l19 .01V33a2 2 0 0 0 2 2 2 2 0 0 0 2-2v-9.986a2 2 0 0 0-1.998-2zM41 38.5a2.5 2.5 0 0 0-2.5 2.5v1a2.5 2.5 0 0 0 2.5 2.5 2.5 2.5 0 0 0 2.5-2.5v-1a2.5 2.5 0 0 0-2.5-2.5Zm-34 0A2.5 2.5 0 0 0 4.5 41v1A2.5 2.5 0 0 0 7 44.5 2.5 2.5 0 0 0 9.5 42v-1A2.5 2.5 0 0 0 7 38.5Zm11 0a2.5 2.5 0 0 0-2.5 2.5v1a2.5 2.5 0 0 0 2.5 2.5 2.5 2.5 0 0 0 2.5-2.5v-1a2.5 2.5 0 0 0-2.5-2.5Zm12 0a2.5 2.5 0 0 0-2.5 2.5v1a2.5 2.5 0 0 0 2.5 2.5 2.5 2.5 0 0 0 2.5-2.5v-1a2.5 2.5 0 0 0-2.5-2.5Z"/></svg>