<svg xmlns="http://www.w3.org/2000/svg" width="48" height="48" viewBox="0 0 48 48"><path d="M24 4a2 2 0 0 0-.729.145 2 2 0 0 0-.209.123 2 2 0 0 0-.408.271 2 2 0 0 0-.19.229 2 2 0 0 0-.2.24l-20 35a2 2 0 0 0-.069.215 2 2 0 0 0-.136.422 2 2 0 0 0-.026.365 2 2 0 0 0 .047.43 2 2 0 0 0 .113.343 2 2 0 0 0 .067.203 2 2 0 0 0 .156.18 2 2 0 0 0 .23.268 2 2 0 0 0 .362.263 2 2 0 0 0 .318.16 2 2 0 0 0 .432.092A2 2 0 0 0 4 43h40a2 2 0 0 0 .504-.07l.092-.034a2 2 0 0 0 .568-.285l.086-.056a2 2 0 0 0 .441-.51l.05-.059a2 2 0 0 0 .075-.16l.024-.047a2 2 0 0 0 .115-.383l.016-.08a2 2 0 0 0 .023-.402l-.004-.055a2 2 0 0 0-.07-.416l-.012-.033a2 2 0 0 0-.172-.402l-.011-.022-.004-.006L25.736 5.008a2 2 0 0 0-.433-.52l-.03-.025a2 2 0 0 0-.566-.33l-.049-.018A2 2 0 0 0 24 4zm-2 9.531v12.703l-5.484-3.107zm4 0 5.484 9.596L26 26.234zM14.531 26.6l5.412 3.066L9.348 35.67zm18.938 0 5.183 9.07-10.593-6.004zM22 33.1V39H11.586zm4 0L36.414 39H26z"/></svg>