<svg xmlns="http://www.w3.org/2000/svg" width="48" height="48" viewBox="0 0 48 48"><path d="m24 4-.072.012a2 2 0 0 0-.317.05 2 2 0 0 0-.28.063 2 2 0 0 0-.306.154 2 2 0 0 0-.23.133 2 2 0 0 0-.254.254 2 2 0 0 0-.172.184 2 2 0 0 0-.187.367 2 2 0 0 0-.086.18A2 2 0 0 0 22 6v23h-6.96C11.174 29 8 32.175 8 36.04v.92C8 40.826 11.175 44 15.04 44h3.92c3.865 0 7.04-3.175 7.04-7.04V16.597l10.422 2.472a2 2 0 0 0 2.46-1.947V9.014a2 2 0 0 0-1.542-1.948L24.479 4.06l-.024-.006-.014-.002A2 2 0 0 0 24 4zm2 4.521 8.883 2.079v3.992L26 12.486zM15.04 33H22v3.96A3.01 3.01 0 0 1 18.96 40h-3.92A3.01 3.01 0 0 1 12 36.96v-.92A3.01 3.01 0 0 1 15.04 33z"/></svg>