<svg xmlns="http://www.w3.org/2000/svg" width="48" height="48" viewBox="0 0 48 48"><path d="M40.857 2.004a2 2 0 0 0-.324.05l-25 6A2 2 0 0 0 14 10v23H9.5C6.486 33 4 35.486 4 38.5S6.486 44 9.5 44h2.9c3.07 0 5.6-2.53 5.6-5.6V19.625l21-4.973V29h-5.5c-3.014 0-5.5 2.486-5.5 5.5s2.486 5.5 5.5 5.5h3.9c3.07 0 5.6-2.53 5.6-5.6V4a2 2 0 0 0-2.143-1.996zM39 6.537v4.008l-21 4.97v-3.939zM33.5 33H39v1.4c0 .908-.692 1.6-1.6 1.6h-3.9a1.47 1.47 0 0 1-1.5-1.5c0-.852.648-1.5 1.5-1.5zm-24 4H14v1.4c0 .908-.692 1.6-1.6 1.6H9.5A1.47 1.47 0 0 1 8 38.5c0-.852.648-1.5 1.5-1.5z"/></svg>