<svg xmlns="http://www.w3.org/2000/svg" width="48" height="48" viewBox="0 0 48 48"><path d="M16 4a2 2 0 0 0-2 2 2 2 0 0 0 2 2h5a2 2 0 0 0 2-2 2 2 0 0 0-2-2zm0 6a2 2 0 0 0-2 2 2 2 0 0 0 2 2h5a2 2 0 0 0 2-2 2 2 0 0 0-2-2zm0 6a2 2 0 0 0-2 2 2 2 0 0 0 2 2h5a2 2 0 0 0 2-2 2 2 0 0 0-2-2zm22 0a2 2 0 0 0-2 2 2 2 0 0 0 2 2h5a2 2 0 0 0 2-2 2 2 0 0 0-2-2zM5 22a2 2 0 0 0-2 2 2 2 0 0 0 2 2h5a2 2 0 0 0 2-2 2 2 0 0 0-2-2zm11 0a2 2 0 0 0-2 2 2 2 0 0 0 2 2h5a2 2 0 0 0 2-2 2 2 0 0 0-2-2zm22 0a2 2 0 0 0-2 2 2 2 0 0 0 2 2h5a2 2 0 0 0 2-2 2 2 0 0 0-2-2zM5 28a2 2 0 0 0-2 2 2 2 0 0 0 2 2h5a2 2 0 0 0 2-2 2 2 0 0 0-2-2zm11 0a2 2 0 0 0-2 2 2 2 0 0 0 2 2h5a2 2 0 0 0 2-2 2 2 0 0 0-2-2zm11 0a2 2 0 0 0-2 2 2 2 0 0 0 2 2h5a2 2 0 0 0 2-2 2 2 0 0 0-2-2zm11 0a2 2 0 0 0-2 2 2 2 0 0 0 2 2h5a2 2 0 0 0 2-2 2 2 0 0 0-2-2zM5 34a2 2 0 0 0-2 2 2 2 0 0 0 2 2h5a2 2 0 0 0 2-2 2 2 0 0 0-2-2zm11 0a2 2 0 0 0-2 2 2 2 0 0 0 2 2h5a2 2 0 0 0 2-2 2 2 0 0 0-2-2zm11 0a2 2 0 0 0-2 2 2 2 0 0 0 2 2h5a2 2 0 0 0 2-2 2 2 0 0 0-2-2zm11 0a2 2 0 0 0-2 2 2 2 0 0 0 2 2h5a2 2 0 0 0 2-2 2 2 0 0 0-2-2zM5 40a2 2 0 0 0-2 2 2 2 0 0 0 2 2h5a2 2 0 0 0 2-2 2 2 0 0 0-2-2zm11 0a2 2 0 0 0-2 2 2 2 0 0 0 2 2h5a2 2 0 0 0 2-2 2 2 0 0 0-2-2zm11 0a2 2 0 0 0-2 2 2 2 0 0 0 2 2h5a2 2 0 0 0 2-2 2 2 0 0 0-2-2zm11 0a2 2 0 0 0-2 2 2 2 0 0 0 2 2h5a2 2 0 0 0 2-2 2 2 0 0 0-2-2z"/></svg>