<svg xmlns="http://www.w3.org/2000/svg" width="48" height="48" viewBox="0 0 48 48"><path d="M20.893 2c-2.104 0-3.878 1.677-3.995 3.777L20.893 6h6.214l.78 14h-7.774l.78-14-4.772 13.777c-.005.092-.001.181 0 .272C12.135 20.49 9 23.902 9 28v13c0 2.738 2.262 5 5 5h20c2.738 0 5-2.262 5-5V28c0-4.098-3.135-7.509-7.121-7.951.001-.09.005-.18 0-.272l-.777-14C30.985 3.677 29.21 2 27.107 2zM17 24h14c2.233 0 4 1.767 4 4v13c0 .576-.424 1-1 1H14c-.576 0-1-.424-1-1V28c0-2.233 1.767-4 4-4zm7 6a3 3 0 0 0-3 3 3 3 0 0 0 3 3 3 3 0 0 0 3-3 3 3 0 0 0-3-3z"/></svg>