<svg xmlns="http://www.w3.org/2000/svg" width="48" height="48" viewBox="0 0 48 48"><path d="M24 27c-5.657 0-9.935-4.343-9.935-10L14 7l5 4 5-6 5 6 5-4v10c0 5.658-4.342 10-10 10z"/><path d="M24 3a2 2 0 0 0-1.535.719l-3.746 4.494-3.469-2.775A2 2 0 0 0 12 7.014L12.064 17c0 6.666 5.255 12 11.936 12 6.68 0 12-5.32 12-12V7a2 2 0 0 0-3.248-1.562l-3.47 2.775-3.745-4.494A2 2 0 0 0 24 3Zm0 5.125 3.465 4.156a2 2 0 0 0 2.785.281l1.75-1.4V17c0 4.634-3.366 8-8 8s-7.936-3.35-7.936-8v-.014l-.037-5.802 1.725 1.379a2 2 0 0 0 2.785-.282zm-.514 35.189c1.562-1.562-.337-5.995-4.242-9.9-3.906-3.905-8.338-5.805-9.9-4.243-1.562 1.563.337 5.995 4.243 9.9 3.905 3.905 8.337 5.805 9.9 4.243z"/><path d="M11.057 26.627c-1.06-.03-2.26.263-3.127 1.13-.869.869-1.16 2.068-1.131 3.128.03 1.06.324 2.09.777 3.146.906 2.114 2.49 4.348 4.596 6.453s4.341 3.69 6.455 4.596c1.057.453 2.087.748 3.146.777 1.06.03 2.26-.26 3.127-1.128.869-.869 1.16-2.068 1.131-3.127-.03-1.06-.324-2.09-.777-3.147-.906-2.114-2.49-4.35-4.596-6.455s-4.341-3.69-6.455-4.596c-1.057-.453-2.087-.747-3.146-.777Zm-.3 3.959c-.086.087-.144.03.188.039.333.01.947.14 1.682.455 1.469.63 3.403 1.948 5.203 3.748s3.117 3.734 3.746 5.203c.315.735.448 1.35.457 1.682s-.048.275.04.187c.086-.087.144-.031-.188-.04-.333-.01-.947-.14-1.682-.456-1.469-.63-3.403-1.948-5.203-3.748s-3.117-3.732-3.746-5.2c-.315-.735-.446-1.352-.455-1.685s.046-.272-.041-.185z"/><path d="M24.829 42.97c1.562 1.563 5.994-.337 9.9-4.242 3.905-3.905 5.804-8.338 4.242-9.9s-5.994.338-9.9 4.243c-3.905 3.905-5.804 8.338-4.242 9.9z"/><path d="M37.258 26.283c-1.06.03-2.09.325-3.147.778-2.114.905-4.347 2.49-6.453 4.595-2.105 2.106-3.69 4.341-4.596 6.455-.452 1.057-.747 2.087-.777 3.147s.26 2.259 1.13 3.127c.867.868 2.066 1.16 3.126 1.13 1.06-.029 2.09-.324 3.147-.777 2.113-.906 4.35-2.49 6.455-4.595 2.105-2.106 3.69-4.342 4.595-6.456.453-1.056.748-2.086.778-3.146s-.263-2.259-1.131-3.127-2.067-1.16-3.127-1.13zm.299 3.96c-.088-.088-.03-.146-.04.187-.009.332-.14.947-.454 1.681-.63 1.47-1.949 3.404-3.749 5.203s-3.734 3.117-5.203 3.747c-.734.314-1.349.447-1.681.457-.333.009-.275-.049-.188.039.087.087.032.145.041-.188s.14-.947.455-1.682c.63-1.469 1.949-3.403 3.748-5.203s3.732-3.116 5.202-3.746c.734-.315 1.35-.446 1.683-.455s.273.046.186-.04z"/></svg>