<svg xmlns="http://www.w3.org/2000/svg" width="48" height="48" viewBox="0 0 48 48"><g clip-path="url(#a)"><path d="M25 7a2 2 0 0 0-1.414.586 2 2 0 0 0 0 2.828l14 14a2 2 0 0 0 2.828 0 2 2 0 0 0 0-2.828l-14-14A2 2 0 0 0 25 7Zm6-5a2 2 0 0 0-1.414.586 2 2 0 0 0 0 2.828l13 13a2 2 0 0 0 2.828 0 2 2 0 0 0 0-2.828l-13-13A2 2 0 0 0 31 2Z"/><path d="m38.584 12.584-5 5a2 2 0 0 0 0 2.83 2 2 0 0 0 2.83 0l5-5a2 2 0 0 0 0-2.83 2 2 0 0 0-2.83 0zm-4.586-6.586a2 2 0 0 0-1.414.586l-5 5a2 2 0 0 0 0 2.83 2 2 0 0 0 2.83 0l5-5a2 2 0 0 0 0-2.83 2 2 0 0 0-1.416-.586zM11 35a2 2 0 0 0-1.414.586l-5 5a2 2 0 0 0 0 2.828 2 2 0 0 0 2.828 0l5-5a2 2 0 0 0 0-2.828A2 2 0 0 0 11 35Z"/><path d="M28 12 12 28l-1 9 9-1 16-16z"/><path d="m26.586 10.586-16 16a2 2 0 0 0-.574 1.193l-1 9a2 2 0 0 0 2.209 2.21l9-1a2 2 0 0 0 1.193-.575l16-16a2 2 0 0 0 0-2.828l-8-8a2 2 0 0 0-2.828 0zM28 14.828 33.172 20l-14.09 14.09-5.818.646.646-5.818z"/></g><defs><clipPath id="a"><path d="M0 0h48v48H0z"/></clipPath></defs></svg>