<svg xmlns="http://www.w3.org/2000/svg" width="48" height="48" viewBox="0 0 48 48"><path d="M20.5 2c-1.164 0-2.143.653-2.717 1.275-.574.623-.922 1.26-1.236 1.834-.467.851-.96 1.45-1.065 1.653.078.022.104.04.047.064-.076.032-.083.006-.047-.064-.215-.06-.887-.145-1.755-.428-.591-.192-1.25-.416-2.079-.475-.828-.058-2.002.16-2.816.973-.75.75-1.036 1.807-1.045 2.606s.155 1.44.293 2.001c.272 1.105.297 1.811.318 1.782q.008-.001.002.013c0 .001-.001-.014-.002-.013-.054-.006-.706.624-1.67 1.283-.522.357-1.103.758-1.65 1.365S4 17.41 4 18.5s.56 2.054 1.135 2.64c.574.588 1.168.946 1.691 1.26.908.546 1.477 1.057 1.567 1.073.002-.003.005-.034.007-.028q.014.033-.007.028c-.035.031-.064.841-.32 1.96-.138.6-.294 1.27-.286 2.079.009.808.267 1.878 1.045 2.656.776.776 1.845 1.036 2.652 1.045s1.477-.148 2.073-.285a13 13 0 0 1 .861-.168c-.471 3.05-.564 5.647-.191 7.863.416 2.48 1.513 4.597 3.398 5.82 2.357 1.53 4.75 1.817 6.637 1.315s3.207-1.633 4.06-2.5c.988-1.004 2.358-2.805 4.086-4.47 1.728-1.667 3.72-2.845 4.668-2.845 1.371 0 1.911.494 2.377 1.252.466.759.6 1.908.512 2.395-.179.991-.491 1.428-1.08 1.805a2 2 0 0 0-.608 2.761 2 2 0 0 0 2.762.61c1.53-.979 2.533-2.632 2.863-4.467.294-1.633.01-3.486-1.04-5.197-1.052-1.712-3.13-3.159-5.786-3.159-3.08 0-5.452 2.044-7.445 3.965-1.993 1.922-3.7 4.077-4.16 4.545-.595.605-1.386 1.212-2.239 1.44s-1.83.233-3.43-.805c-.753-.489-1.332-1.355-1.63-3.129-.174-1.034-.212-2.347-.104-3.902.594.5 1.46.943 2.432.943 1.091 0 2.024-.532 2.63-1.078.608-.547 1.009-1.128 1.366-1.65.659-.964 1.289-1.614 1.283-1.668l-.013-.002q.014-.006.013.002c-.029.021.677.044 1.782.316.56.138 1.203.302 2.002.293s1.855-.295 2.605-1.045c.74-.74 1.032-1.713 1.103-2.494.072-.781-.014-1.457-.095-2.06-.162-1.209-.161-2.134-.147-2.169-.015.037.501-.463 1.448-1.103.473-.32 1.023-.693 1.54-1.293S37 19.519 37 18.5c0-1.091-.562-2.055-1.139-2.64-.577-.586-1.174-.94-1.697-1.25-.891-.53-1.446-1.022-1.549-1.051-.005.026-.01.039-.015.025-.011-.026-.003-.03.015-.025.033-.153.078-.951.313-1.98.137-.604.293-1.276.285-2.085s-.264-1.881-1.045-2.662c-.795-.795-1.873-1.037-2.688-1.045-.814-.008-1.501.145-2.123.281-1.047.23-1.892.274-2.066.31.007.024.002.036-.031.022-.018-.007-.001-.014.031-.021-.032-.11-.47-.625-.95-1.49-.29-.524-.617-1.127-1.193-1.72C22.573 2.579 21.591 2 20.5 2zm.014 4.316c.107.157.184.247.33.51.497.899.98 2.48 2.883 3.268 1.887.782 3.38.125 4.49-.12a7 7 0 0 1 .949-.146 6 6 0 0 1-.139.863c-.243 1.07-.895 2.556-.12 4.424.78 1.882 2.315 2.4 3.214 2.934.365.217.57.375.723.502a4.5 4.5 0 0 1-.608.478c-.785.531-2.178 1.137-2.902 2.883-.72 1.738-.264 3.182-.123 4.234.062.465.076.8.068 1.026a5 5 0 0 1-.76-.135c-.978-.241-2.46-.888-4.285-.13-1.837.761-2.422 2.205-3.039 3.107a6 6 0 0 1-.658.832 5.5 5.5 0 0 1-.527-.742c-.547-.9-1.075-2.42-2.95-3.198-1.86-.772-3.347-.12-4.402.123-.383.089-.603.109-.822.133.024-.222.046-.447.135-.836.243-1.061.896-2.55.123-4.414-.78-1.878-2.306-2.398-3.205-2.94a5.4 5.4 0 0 1-.73-.513c.164-.16.43-.382.827-.654.902-.617 2.346-1.202 3.108-3.04.757-1.825.11-3.306-.131-4.285-.06-.245-.059-.327-.088-.5.203.05.323.062.613.157 1.065.346 2.585 1.209 4.573.384 2.005-.831 2.439-2.475 2.994-3.488.19-.347.32-.519.459-.717zM20 12c-3.29 0-6 2.71-6 6s2.71 6 6 6 6-2.71 6-6-2.71-6-6-6zm0 4c1.128 0 2 .872 2 2s-.872 2-2 2-2-.872-2-2 .872-2 2-2z"/></svg>