<svg xmlns="http://www.w3.org/2000/svg" width="48" height="48" viewBox="0 0 48 48"><path d="M20.5 4c-1.966 0-2.495 3.965-4.205 4.674-1.772.735-4.713-1.762-6.049-.426s.735 3.98 0 5.752C9.537 15.71 6 16.534 6 18.5s3.537 2.47 4.246 4.18c.735 1.772-1.336 4.738 0 6.074s4.277-.735 6.049 0C18.005 29.463 18.534 33 20.5 33s2.79-3.537 4.5-4.246c1.772-.735 4.418 1.336 5.754 0s-.307-4.302.428-6.074C31.89 20.97 35 20.466 35 18.5s-3.537-2.44-4.246-4.15c-.735-1.773 1.336-4.766 0-6.102s-4.488.735-6.26 0C22.784 7.539 22.466 4 20.5 4zm-.5 8c3.29 0 6 2.71 6 6s-2.71 6-6 6-6-2.71-6-6 2.71-6 6-6zm0 4c-1.128 0-2 .872-2 2s.872 2 2 2 2-.872 2-2-.872-2-2-2z"/><path d="M20.5 2c-1.164 0-2.143.653-2.717 1.275-.574.623-.922 1.26-1.236 1.834-.629 1.147-1.314 1.84-1.018 1.717.216-.09-.62-.108-1.802-.492-.591-.192-1.25-.416-2.079-.475-.828-.058-2.002.16-2.816.973-.75.75-1.036 1.807-1.045 2.606s.155 1.44.293 2.001c.277 1.122.298 1.848.32 1.795.053-.127-.627.556-1.671 1.27-.523.357-1.104.758-1.65 1.365C4.531 16.476 4 17.41 4 18.5s.56 2.054 1.135 2.64c.574.588 1.168.946 1.691 1.26 1.047.63 1.644 1.214 1.574 1.045-.038-.092-.053.79-.328 1.989-.137.599-.293 1.27-.285 2.078s.267 1.878 1.045 2.656c.776.776 1.845 1.036 2.652 1.045s1.477-.148 2.073-.285c1.192-.275 2.061-.29 1.972-.326-.165-.069.426.533 1.063 1.58.318.523.68 1.117 1.27 1.69.588.57 1.546 1.128 2.638 1.128s2.024-.532 2.63-1.078c.608-.547 1.009-1.128 1.366-1.65.714-1.045 1.397-1.723 1.27-1.67-.053.022.673.041 1.795.318.56.138 1.203.302 2.001.293.799-.009 1.856-.295 2.606-1.045.74-.74 1.032-1.713 1.103-2.494.072-.781-.014-1.457-.095-2.06-.162-1.209-.161-2.134-.147-2.169-.015.037.501-.463 1.448-1.103.473-.32 1.023-.693 1.54-1.293S37 19.519 37 18.5c0-1.091-.562-2.055-1.139-2.64-.577-.586-1.174-.94-1.697-1.25-1.047-.623-1.636-1.198-1.564-1.026.04.096.053-.8.328-2.006.137-.603.293-1.275.285-2.084s-.264-1.881-1.045-2.662c-.795-.795-1.873-1.037-2.688-1.045-.814-.008-1.501.145-2.123.281-1.243.274-2.212.285-2.097.332.192.08-.338-.464-.918-1.511-.29-.524-.618-1.127-1.194-1.72C22.573 2.579 21.591 2 20.5 2Zm.014 4.316c.107.157.184.247.33.51.497.899.98 2.48 2.883 3.268 1.887.782 3.38.125 4.49-.12a7 7 0 0 1 .949-.146 6 6 0 0 1-.139.863c-.243 1.07-.895 2.556-.12 4.424.78 1.882 2.315 2.4 3.214 2.934.365.217.57.375.723.502a4.5 4.5 0 0 1-.608.478c-.785.531-2.178 1.137-2.902 2.883-.72 1.738-.264 3.182-.123 4.234.062.465.076.8.068 1.026a5 5 0 0 1-.76-.135c-.978-.241-2.46-.888-4.285-.13-1.837.761-2.422 2.205-3.039 3.107a6 6 0 0 1-.658.832 5.5 5.5 0 0 1-.527-.742c-.547-.9-1.075-2.42-2.95-3.198-1.86-.772-3.347-.12-4.402.123-.383.089-.603.109-.822.133.024-.222.046-.447.135-.836.243-1.061.896-2.55.123-4.414-.78-1.878-2.306-2.398-3.205-2.94a5.4 5.4 0 0 1-.73-.513c.164-.16.43-.382.827-.654.902-.617 2.346-1.202 3.108-3.04.757-1.825.11-3.306-.131-4.285-.06-.245-.059-.327-.088-.5.203.05.323.062.613.157 1.065.346 2.585 1.209 4.573.384 2.005-.831 2.439-2.475 2.994-3.488.19-.347.32-.519.459-.717z"/><path d="M16.92 28.031a2 2 0 0 0-2.32 1.62c-.629 3.537-.79 6.491-.373 8.972.416 2.48 1.513 4.597 3.398 5.82 2.357 1.53 4.75 1.817 6.637 1.315s3.207-1.633 4.06-2.5c.988-1.004 2.358-2.805 4.086-4.47 1.728-1.667 3.72-2.845 4.668-2.845 1.371 0 1.911.494 2.377 1.252.466.759.6 1.908.512 2.395-.179.991-.491 1.428-1.08 1.805a2 2 0 0 0-.608 2.761 2 2 0 0 0 2.762.61c1.53-.979 2.533-2.632 2.863-4.467.294-1.633.01-3.486-1.04-5.197-1.052-1.712-3.13-3.159-5.786-3.159-3.08 0-5.452 2.044-7.445 3.965-1.993 1.922-3.7 4.077-4.16 4.545-.595.605-1.386 1.212-2.239 1.44s-1.83.233-3.43-.805c-.753-.489-1.332-1.355-1.63-3.129s-.213-4.348.367-7.61a2 2 0 0 0-1.62-2.318z"/></svg>