<svg xmlns="http://www.w3.org/2000/svg" width="48" height="48" viewBox="0 0 48 48"><path d="M4 40.836q7.34-8.96 13.036-10.168t10.846-.365V41L44 23.545 27.882 7v10.167Q18.359 17.242 11.69 24 5.023 30.758 4 40.836Z"/><path d="M27.129 5.148A2 2 0 0 0 25.88 7v8.37c-5.985.493-11.315 2.87-15.613 7.226-4.76 4.822-7.537 10.93-8.258 18.039a2 2 0 0 0 3.537 1.469c4.76-5.811 8.918-8.845 11.904-9.479 2.971-.63 5.75-.705 8.43-.453V41a2 2 0 0 0 3.47 1.357l16.12-17.455a2 2 0 0 0-.037-2.752L29.314 5.604a2 2 0 0 0-2.185-.456Zm2.752 6.77 11.363 11.664-11.363 12.305v-5.584a2 2 0 0 0-1.676-1.973c-3.7-.606-7.574-.47-11.584.38-2.96.629-5.903 2.516-8.951 5.327 1.212-3.235 2.969-6.125 5.443-8.633 4.114-4.169 8.906-6.191 14.785-6.238a2 2 0 0 0 1.983-1.998z"/></svg>