<svg xmlns="http://www.w3.org/2000/svg" width="48" height="48" viewBox="0 0 48 48"><path d="M35.758 25.414 25.414 35.758a2 2 0 0 0 0 2.828 2 2 0 0 0 2.828 0l10.344-10.344a2 2 0 0 0 0-2.828 2 2 0 0 0-2.828 0zm-14.586-.586a2 2 0 0 0-1.414.586L9.414 35.758a2 2 0 0 0 0 2.828 2 2 0 0 0 2.828 0l10.344-10.344a2 2 0 0 0 0-2.828 2 2 0 0 0-1.414-.586zM35.758 9.414 25.414 19.758a2 2 0 0 0 0 2.828 2 2 0 0 0 2.828 0l10.344-10.344a2 2 0 0 0 0-2.828 2 2 0 0 0-2.828 0zm-14.586-.586a2 2 0 0 0-1.414.586L9.414 19.758a2 2 0 0 0 0 2.828 2 2 0 0 0 2.828 0l10.344-10.344a2 2 0 0 0 0-2.828 2 2 0 0 0-1.414-.586zM12 8a4 4 0 1 1-8 0 4 4 0 0 1 8 0z"/><path d="M8 2C4.71 2 2 4.71 2 8s2.71 6 6 6 6-2.71 6-6-2.71-6-6-6Zm0 4c1.128 0 2 .872 2 2s-.872 2-2 2-2-.872-2-2 .872-2 2-2Zm20 2a4 4 0 1 1-8 0 4 4 0 0 1 8 0z"/><path d="M24 2c-3.29 0-6 2.71-6 6s2.71 6 6 6 6-2.71 6-6-2.71-6-6-6zm0 4c1.128 0 2 .872 2 2s-.872 2-2 2-2-.872-2-2 .872-2 2-2zm20 2a4 4 0 1 1-8 0 4 4 0 0 1 8 0z"/><path d="M40 2c-3.29 0-6 2.71-6 6s2.71 6 6 6 6-2.71 6-6-2.71-6-6-6zm0 4c1.128 0 2 .872 2 2s-.872 2-2 2-2-.872-2-2 .872-2 2-2zm4 18a4 4 0 1 1-8 0 4 4 0 0 1 8 0z"/><path d="M40 18c-3.29 0-6 2.71-6 6s2.71 6 6 6 6-2.71 6-6-2.71-6-6-6zm0 4c1.128 0 2 .872 2 2s-.872 2-2 2-2-.872-2-2 .872-2 2-2zm4 18a4 4 0 1 1-8 0 4 4 0 0 1 8 0z"/><path d="M40 34c-3.29 0-6 2.71-6 6s2.71 6 6 6 6-2.71 6-6-2.71-6-6-6zm0 4c1.128 0 2 .872 2 2s-.872 2-2 2-2-.872-2-2 .872-2 2-2zm-12 2a4 4 0 1 1-8 0 4 4 0 0 1 8 0z"/><path d="M24 34c-3.29 0-6 2.71-6 6s2.71 6 6 6 6-2.71 6-6-2.71-6-6-6zm0 4c1.128 0 2 .872 2 2s-.872 2-2 2-2-.872-2-2 .872-2 2-2zm-12 2a4 4 0 1 1-8 0 4 4 0 0 1 8 0z"/><path d="M8 34c-3.29 0-6 2.71-6 6s2.71 6 6 6 6-2.71 6-6-2.71-6-6-6zm0 4c1.128 0 2 .872 2 2s-.872 2-2 2-2-.872-2-2 .872-2 2-2zm4-14a4 4 0 1 1-8 0 4 4 0 0 1 8 0z"/><path d="M8 18c-3.29 0-6 2.71-6 6s2.71 6 6 6 6-2.71 6-6-2.71-6-6-6zm0 4c1.128 0 2 .872 2 2s-.872 2-2 2-2-.872-2-2 .872-2 2-2zm20 2a4 4 0 1 1-8 0 4 4 0 0 1 8 0z"/><path d="M24 18c-3.29 0-6 2.71-6 6s2.71 6 6 6 6-2.71 6-6-2.71-6-6-6zm0 4c1.128 0 2 .872 2 2s-.872 2-2 2-2-.872-2-2 .872-2 2-2z"/></svg>