<svg xmlns="http://www.w3.org/2000/svg" width="48" height="48" viewBox="0 0 48 48"><path d="M18 4c-2.828 0-4.99-.012-6.85.238s-3.548.848-4.806 2.106S4.488 9.29 4.238 11.15 4 15.172 4 18v12c0 2.828-.012 4.99.238 6.85s.848 3.548 2.106 4.806 2.946 1.856 4.806 2.106S15.172 44 18 44h2a2 2 0 0 0 2-2V6a2 2 0 0 0-2-2zm10 0a2 2 0 0 0-2 2v36a2 2 0 0 0 2 2h2c2.828 0 4.99.012 6.85-.238s3.548-.848 4.806-2.106 1.856-2.946 2.106-4.806S44 32.828 44 30V18c0-2.828.012-4.99-.238-6.85s-.848-3.548-2.106-4.806-2.946-1.856-4.806-2.106S32.828 4 30 4zM18 8v32c-2.828 0-4.91-.012-6.316-.201-1.408-.19-2.013-.472-2.512-.97-.5-.5-.782-1.105-.97-2.513C8.011 34.91 8 32.828 8 30V18c0-2.828.012-4.91.201-6.316.19-1.408.472-2.013.97-2.512.5-.5 1.105-.782 2.513-.97C13.09 8.011 15.172 8 18 8zm12 0c2.828 0 4.91.012 6.316.201 1.408.19 2.013.472 2.512.97.5.5.782 1.105.97 2.513.19 1.407.202 3.488.202 6.316v12c0 2.828-.012 4.91-.201 6.316-.19 1.408-.472 2.013-.97 2.512-.5.5-1.105.782-2.513.97-1.407.19-3.488.202-6.316.202zm5 3a2 2 0 0 0-2 2v2a2 2 0 0 0 2 2 2 2 0 0 0 2-2v-2a2 2 0 0 0-2-2zM13 31a2 2 0 0 0-2 2v2a2 2 0 0 0 2 2 2 2 0 0 0 2-2v-2a2 2 0 0 0-2-2z"/></svg>