<svg xmlns="http://www.w3.org/2000/svg" width="48" height="48" viewBox="0 0 48 48"><path d="M4 24c0 11.046 6.667 20 20 20s20-8.954 20-20z"/><path d="M4 22a2 2 0 0 0-2 2c0 5.925 1.8 11.446 5.53 15.496S16.885 46 24 46s12.74-2.454 16.47-6.504S46 29.926 46 24a2 2 0 0 0-2-2zm2.154 4h35.692c-.356 4.27-1.776 8.028-4.317 10.787C34.593 39.976 30.22 42 24 42s-10.593-2.024-13.53-5.213C7.93 34.028 6.51 30.27 6.155 26Z"/><path d="M16 6a2 2 0 0 0-2 2v16a2 2 0 0 0 2 2 2 2 0 0 0 2-2V8a2 2 0 0 0-2-2Zm8-2a2 2 0 0 0-2 2v18a2 2 0 0 0 2 2 2 2 0 0 0 2-2V6a2 2 0 0 0-2-2Zm8-2a2 2 0 0 0-2 2v20a2 2 0 0 0 2 2 2 2 0 0 0 2-2V4a2 2 0 0 0-2-2ZM8 8a2 2 0 0 0-2 2v14a2 2 0 0 0 2 2 2 2 0 0 0 2-2V10a2 2 0 0 0-2-2Z"/><path d="m43.56 2.049-40 9a2 2 0 0 0-1.511 2.39 2 2 0 0 0 2.39 1.512l40-9a2 2 0 0 0 1.512-2.39 2 2 0 0 0-2.39-1.512z"/></svg>