<svg xmlns="http://www.w3.org/2000/svg" width="48" height="48" viewBox="0 0 48 48"><path d="M11 6C9.367 6 8 7.367 8 9v34c0 1.633 1.367 3 3 3h28c1.633 0 3-1.367 3-3V9c0-1.633-1.367-3-3-3h-7v4h6v32H12V10h6V6Z"/><path d="M18 13V8h3.95a.05.05 0 0 0 .05-.05V6a3 3 0 1 1 6 0v1.95c0 .028.022.05.05.05H32v5a1 1 0 0 1-1 1H19a1 1 0 0 1-1-1z"/><path d="M25 1c-2.738 0-5 2.262-5 5h-4v7c0 1.633 1.367 3 3 3h12c1.633 0 3-1.367 3-3V6h-4c0-2.738-2.262-5-5-5Zm0 4c.576 0 1 .424 1 1v1.951c0 1.11.94 2.049 2.049 2.049H30v2H20v-2h1.951C23.061 10 24 9.061 24 7.951V6c0-.576.424-1 1-1z"/></svg>