<svg xmlns="http://www.w3.org/2000/svg" width="48" height="48" viewBox="0 0 48 48"><path d="M6 5C3.815 5 2 6.815 2 9v30c0 2.185 1.815 4 4 4h36c2.185 0 4-1.815 4-4V9c0-2.185-1.815-4-4-4zm0 4h36v30H6zm31 7a2 2 0 0 0-2 2v5.395l-4.336-6.504A2 2 0 0 0 27 18v12a2 2 0 0 0 2 2 2 2 0 0 0 2-2v-5.395l4.336 6.504A2 2 0 0 0 39 30V18a2 2 0 0 0-2-2zm-21.86.004a2 2 0 0 0-1.224.314l-4 2.58a2 2 0 0 0-.598 2.766 2 2 0 0 0 2.766.596l.916-.59V30a2 2 0 0 0 2 2 2 2 0 0 0 2-2V18a2 2 0 0 0-1.043-1.756 2 2 0 0 0-.816-.24zM22 18a2 2 0 0 0-2 2v1a2 2 0 0 0 2 2 2 2 0 0 0 2-2v-1a2 2 0 0 0-2-2zm0 7a2 2 0 0 0-2 2v1a2 2 0 0 0 2 2 2 2 0 0 0 2-2v-1a2 2 0 0 0-2-2z"/></svg>