<svg xmlns="http://www.w3.org/2000/svg" width="48" height="48" viewBox="0 0 48 48"><path d="M9 4C6.262 4 4 6.262 4 9v9a2 2 0 0 0 2 2 2 2 0 0 0 2-2V9c0-.576.424-1 1-1h30c.576 0 1 .424 1 1v9a2 2 0 0 0 2 2 2 2 0 0 0 2-2V9c0-2.738-2.262-5-5-5Z"/><path d="M32.92 11.002a2 2 0 0 0-1.389.64l-12 13a2 2 0 0 0 .112 2.827 2 2 0 0 0 2.826-.112l12-13a2 2 0 0 0-.112-2.826 2 2 0 0 0-1.437-.529z"/><path d="M26 19a2 2 0 0 0-1.414.586 2 2 0 0 0 0 2.828l4 4a2 2 0 0 0 2.828 0 2 2 0 0 0 0-2.828l-4-4A2 2 0 0 0 26 19Zm3.586-4.414a2 2 0 0 0 0 2.828l4 4a2 2 0 0 0 2.828 0 2 2 0 0 0 0-2.828l-4-4a2 2 0 0 0-2.828 0zM6 28a2 2 0 0 0-2 2v9c0 2.738 2.262 5 5 5h30c2.738 0 5-2.262 5-5v-9a2 2 0 0 0-2-2 2 2 0 0 0-2 2v9c0 .576-.424 1-1 1H9c-.576 0-1-.424-1-1v-9a2 2 0 0 0-2-2Z"/><path d="M23 30a5 5 0 0 1-5 5 5 5 0 0 1-5-5 5 5 0 0 1 5-5 5 5 0 0 1 5 5z"/><path d="M18 23c-3.842 0-7 3.158-7 7s3.158 7 7 7 7-3.158 7-7-3.158-7-7-7zm0 4c1.68 0 3 1.32 3 3s-1.32 3-3 3-3-1.32-3-3 1.32-3 3-3z"/></svg>