<svg xmlns="http://www.w3.org/2000/svg" width="48" height="48" viewBox="0 0 48 48"><path d="M21.303 24.83v14.02a18.9 18.9 0 0 0 9.933-4.086zm-4.276 13.98.276.032V24.828l-1.537 1.535-8.342 8.344a19.06 19.06 0 0 0 9.129 4.035c.158.024.316.05.474.069zm21.178-20.16a19.06 19.06 0 0 0-4.197-10.529l-9.748 9.75-.008.008-.281.281zM24.3 22.172l9.774 9.773.041-.05a18.7 18.7 0 0 0 3.98-9.247z"/><path d="M38.096 22.648a18.7 18.7 0 0 1-3.98 9.247 18.87 18.87 0 0 0 4.04-9.245zM12.459 39.855a2 2 0 0 1 2.398-1.433c.56.135 1.127.236 1.696.32a19.06 19.06 0 0 1-9.13-4.035l8.343-8.344a2 2 0 0 1-2.828 0L4.453 34.85c2.335 2.334 5.081 4 8.006 5.005zM24.252 15.05a2 2 0 0 1 .008 2.821l9.748-9.75a19.06 19.06 0 0 1 4.197 10.53l.088.003a19 19 0 0 0-.482-3.187 2 2 0 0 1 1.335-2.35A20.9 20.9 0 0 0 34.15 5.15Z"/><path d="m18.395 42.967-.053-.037a23 23 0 0 1-4.426-.621 2 2 0 0 1-1.475-2.414l.018-.04a20.9 20.9 0 0 1-8.006-5.005l8.485-8.487a2 2 0 0 1 0-2.828l-9.9 9.9a2 2 0 0 0 0 2.829c4.252 4.252 9.772 6.485 15.357 6.703zM33.3 38.24a22.94 22.94 0 0 1-13.027 4.684l-.062.04A22.93 22.93 0 0 0 33.3 38.24zm2.253-1.969q-.508.506-1.037.973.536-.471 1.048-.98zM34.15 3.15a2 2 0 0 0-1.414.586L21.422 15.051a2 2 0 0 1 1.414-.586 2 2 0 0 1 1.416.586l9.898-9.9a20.9 20.9 0 0 1 4.996 7.966 2 2 0 0 1 .137-.064 2 2 0 0 1 2.256 1.129 22.85 22.85 0 0 0-5.975-10.446 2 2 0 0 0-1.414-.586Z"/><path d="M31.846 34.266c-.199.174-.406.333-.61.498l.01.01q.304-.247.6-.508zM20.21 42.965l.063-.041a24 24 0 0 1-1.931.006l.053.037q.907.035 1.816-.002z"/><path d="M20.21 42.965q-.907.036-1.815.002a2 2 0 0 0 .908.246 2 2 0 0 0 .908-.248zm17.886-20.317.06.002c.188-1.324.228-2.663.137-3.996l-.088-.004a19 19 0 0 1-.11 3.998zM21.303 38.87v-.02a19 19 0 0 1-2.897.084 19 19 0 0 0 2.897-.065z"/><path d="m31.246 34.773-.01-.01a18.9 18.9 0 0 1-9.933 4.087v.02a18.7 18.7 0 0 0 9.943-4.097zm-13.943 6.133v-2.06l-.276-.035q-.237-.032-.474-.069a19 19 0 0 1-1.696-.32 2 2 0 0 0-2.398 1.433c1.575.542 3.202.895 4.844 1.051z"/><path d="M17.303 40.906a21 21 0 0 1-4.844-1.05l-.018.039a2 2 0 0 0 1.475 2.414c1.455.352 2.938.557 4.426.62a2 2 0 0 1-1.04-1.716z"/><path d="M21.303 40.904V38.87a19 19 0 0 1-3.887-.015l-.113-.008v2.06c1.33.127 2.67.125 4-.002z"/><path d="M21.303 40.904c-1.33.127-2.67.129-4 .002v.307a2 2 0 0 0 1.039 1.717c.644.027 1.288.02 1.931-.006a2 2 0 0 0 1.03-1.711zm11.365-4.709-1.422-1.422a18.7 18.7 0 0 1-9.943 4.096v2.035a20.9 20.9 0 0 0 11.365-4.709zm2.828-2.828-1.422-1.422q-.11.137-.222.272a19 19 0 0 1-.98 1.076l-.09.098-.02.017-.026.028q-.719.715-1.49 1.337l1.422 1.422q.766-.63 1.482-1.345.715-.717 1.346-1.483z"/><path d="M40.13 22.64a2 2 0 0 1-.392.065l-1.582-.055a18.87 18.87 0 0 1-4.082 9.295l1.422 1.422a20.9 20.9 0 0 0 4.635-10.726z"/><path d="M40.262 18.764a2 2 0 0 0-.385-.055l-1.584-.055a19 19 0 0 1-.137 3.996l1.582.055a2 2 0 0 0 .393-.064c.162-1.286.206-2.585.13-3.877z"/><path d="M40.262 18.764a21 21 0 0 1-.131 3.877 2 2 0 0 0 1.676-1.866 2 2 0 0 0-1.545-2.011zm-1.116-5.647a2 2 0 0 0-1.335 2.35 19 19 0 0 1 .482 3.187l1.584.055a2 2 0 0 1 .385.055 21 21 0 0 0-1.116-5.647zm-3.593 23.154a2 2 0 0 1-2.817-.007l-.068-.069a20.9 20.9 0 0 1-11.365 4.71v.308a2 2 0 0 1-1.03 1.71c5.553-.224 11.04-2.44 15.28-6.652z"/><path d="M35.576 36.25a2 2 0 0 0-.012-2.814l-.068-.069q-.631.766-1.346 1.483-.716.715-1.482 1.345l.068.069a2 2 0 0 0 2.817.007z"/><path d="M41.54 14.182a2 2 0 0 0-2.257-1.13 2 2 0 0 0-.137.065 21 21 0 0 1 1.116 5.647 2 2 0 0 1 1.545 2.011 2 2 0 0 1-1.676 1.866 20.9 20.9 0 0 1-4.635 10.726l.068.069a2 2 0 0 1 .012 2.814l.033-.031a23 23 0 0 0 1.676-1.885c4.618-5.786 6.033-13.301 4.254-20.152z"/><path d="M41.54 14.182c1.704 6.565.48 13.742-3.69 19.422a23.03 23.03 0 0 0 3.85-19.079 2 2 0 0 0-.16-.343zm-24.16 5.416.015-.055a2 2 0 0 1 .076-.334 2 2 0 0 0-.09.389zm-.071.365a2 2 0 0 1 .072-.365 2 2 0 0 0-.078.334zm.07.426a2 2 0 0 1-.07-.42l-.006.031v.01a2 2 0 0 0 .076.379zm4.75-.389-1.4-1.4a2 2 0 0 1 .574 1.4v.826zm-4.242 1.414 1.414 1.414.8-.8-.869-.03a2 2 0 0 1-1.336-.592Z"/><path d="M17.303 22v2.826l1.998-1.998-1.414-1.414z"/><path d="m17.303 22 .584-.586-.02-.03a2 2 0 0 1-.199-.298 2 2 0 0 1-.223-.36 2 2 0 0 1-.066-.337 2 2 0 0 1-.076-.38zm-4.365 4.363a2 2 0 0 0 2.828 0l1.537-1.537V22Zm8.298-8.297 2.733.094h.002l.281-.281a2 2 0 0 0 0-2.828z"/><path d="m20.717 18.586.012.014 1.4 1.4 1.84-1.84-2.733-.094Z"/><path d="m20.715 18.586-2.819 2.82a2 2 0 0 0 1.336.592l.87.03 1.2-1.202V20a2 2 0 0 0-.587-1.414zm-1.36-.582-.017.004a2 2 0 0 1 .7.138 2 2 0 0 0-.683-.142z"/><path d="M19.355 18.004a2 2 0 0 1 .682.142l.055.022a2 2 0 0 1 .623.418h.002l.52-.52-1.866-.064zm-.41.066a2 2 0 0 1 .393-.062L19.303 18H19.3a2 2 0 0 0-.356.07zm-.713.285a2 2 0 0 1 .34-.21l-.037.007a2 2 0 0 0-.303.203z"/><path d="M17.918 18.566a2 2 0 0 0-.242.336 2 2 0 0 0-.203.303 2 2 0 0 0-.078.338 2 2 0 0 0-.086.426 2 2 0 0 0 .07.42 2 2 0 0 0 .066.338 2 2 0 0 0 .223.359 2 2 0 0 0 .2.299l.028.021 2.819-2.82a2 2 0 0 0-.623-.418l-.055-.022a2 2 0 0 0-.7-.138 2 2 0 0 0-.401.064 2 2 0 0 0-.364.073 2 2 0 0 0-.365.228 2 2 0 0 0-.287.191z"/><path d="M17.889 18.586a2 2 0 0 0-.188.28 2 2 0 0 1 .217-.3z"/><path d="m17.889 18.586.029-.02a2 2 0 0 1 .314-.21 2 2 0 0 1 .303-.204l.037-.007a2 2 0 0 1 .373-.075 2 2 0 0 1 .356-.07h.002l.053.004.015-.002 1.865.064 3.016-3.015a2 2 0 0 0-1.416-.586 2 2 0 0 0-1.414.586zm-4.951 4.949a2 2 0 0 0 0 2.828L17.303 22v-1.99l.006-.047-.006-.031a2 2 0 0 1 .078-.334 2 2 0 0 1 .09-.389 2 2 0 0 1 .23-.344 2 2 0 0 1 .186-.28z"/></svg>