<svg xmlns="http://www.w3.org/2000/svg" width="48" height="48" viewBox="0 0 48 48"><path d="m4 42 14-32 10 24 4-12 12 20Z"/><path d="M18.018 8a2 2 0 0 0-1.85 1.2l-14 32A2 2 0 0 0 4 44h40a2 2 0 0 0 1.715-3.03l-12-20a2 2 0 0 0-3.611.397l-2.311 6.934-7.947-19.07A2 2 0 0 0 18.018 8Zm-.063 7.092 8.2 19.678a2 2 0 0 0 3.741-.137l2.625-7.875L40.467 40H7.057ZM37 14a5 5 0 1 0 0-10 5 5 0 0 0 0 10z"/><path d="M37 2c-3.842 0-7 3.158-7 7s3.158 7 7 7 7-3.158 7-7-3.158-7-7-7zm0 4c1.68 0 3 1.32 3 3s-1.32 3-3 3-3-1.32-3-3 1.32-3 3-3z"/></svg>