<svg xmlns="http://www.w3.org/2000/svg" width="48" height="48" viewBox="0 0 48 48"><path d="M38 5a2 2 0 0 0-1.414.586 2 2 0 0 0 0 2.828L39.172 11H4a2 2 0 0 0-2 2 2 2 0 0 0 2 2h35.172l-2.586 2.586a2 2 0 0 0 0 2.828 2 2 0 0 0 2.828 0l6-6a2 2 0 0 0 .428-.639l.008-.021A2 2 0 0 0 46 13a2 2 0 0 0-.016-.23l-.007-.065a2 2 0 0 0-.045-.223 2 2 0 0 0-.073-.214l-.025-.063a2 2 0 0 0-.102-.205 2 2 0 0 0-.134-.2l-.012-.017-.016-.017a2 2 0 0 0-.156-.18l-6-6A2 2 0 0 0 38 5zM14 29c-2.59 0-4.818 1.68-5.65 4H4a2 2 0 0 0-2 2 2 2 0 0 0 2 2h4.35c.832 2.32 3.06 4 5.65 4s4.818-1.68 5.65-4h7.7c.832 2.32 3.06 4 5.65 4s4.818-1.68 5.65-4H44a2 2 0 0 0 2-2 2 2 0 0 0-2-2h-5.35c-.832-2.32-3.06-4-5.65-4s-4.818 1.68-5.65 4h-7.7c-.832-2.32-3.06-4-5.65-4zm0 4c1.128 0 2 .872 2 2s-.872 2-2 2-2-.872-2-2 .872-2 2-2zm19 0c1.128 0 2 .872 2 2s-.872 2-2 2-2-.872-2-2 .872-2 2-2z"/></svg>