<svg xmlns="http://www.w3.org/2000/svg" width="48" height="48" viewBox="0 0 48 48"><path d="M5.748 5q-.18-.004-.363.014C4.4 5.11 3.5 5.769 2.98 6.584c-1.04 1.63-1.23 3.823-.771 7.545l.012.078c.292 1.774 1.008 5.154 1.57 7.275-.404 1.348-.73 2.73-.73 4.18C3.06 35.468 12.664 43 24 43s20.94-7.532 20.94-17.338c0-1.45-.327-2.832-.731-4.18.562-2.121 1.278-5.5 1.57-7.275l.012-.078c.46-3.722.268-5.915-.771-7.545-.52-.815-1.42-1.474-2.405-1.57a2.93 2.93 0 0 0-2.443.94 2 2 0 0 0-.176.218c-2.207 3.192-5.096 4.137-6.133 4.275-2.962-1.316-6.29-2.125-9.863-2.125s-6.901.809-9.863 2.125C13.1 10.31 10.21 9.364 8.004 6.172a2 2 0 0 0-.176-.219A2.94 2.94 0 0 0 5.748 5zM4.713 8.447c.062.09.133.14.195.227-.004-.005-.015-.003-.02-.008zm38.574 0-.176.219c-.004.005-.015.003-.02.008.063-.087.134-.137.196-.227zM6.09 10.037c2.756 3.063 5.881 4.33 7.982 4.483a2 2 0 0 0 1.026-.2c2.573-1.259 5.622-1.998 8.902-1.998s6.33.74 8.902 1.998a2 2 0 0 0 1.026.2c2.1-.154 5.226-1.42 7.982-4.483.083.792.106 1.964-.088 3.563-.273 1.649-1.08 5.509-1.56 7.238a2 2 0 0 0 .045 1.21 10.7 10.7 0 0 1 .632 3.614C40.94 32.8 33.585 39 24 39S7.06 32.799 7.06 25.662c0-1.254.22-2.46.633-3.613a2 2 0 0 0 .045-1.211c-.48-1.73-1.287-5.59-1.56-7.238-.194-1.6-.17-2.77-.088-3.563zM17 16c-3.29 0-6 2.71-6 6s2.71 6 6 6 6-2.71 6-6-2.71-6-6-6zm14 0c-3.29 0-6 2.71-6 6s2.71 6 6 6 6-2.71 6-6-2.71-6-6-6zm-14 4c1.128 0 2 .872 2 2s-.872 2-2 2-2-.872-2-2 .872-2 2-2zm14 0c1.128 0 2 .872 2 2s-.872 2-2 2-2-.872-2-2 .872-2 2-2zm-7 8c-1.903 0-3 1.695-3 3.25 0 .655.107.917.213 1.352.106.434.237.902.367 1.345.26.887.52 1.674.52 1.674a2 2 0 0 0 3.8 0s.26-.787.52-1.674c.13-.443.261-.911.367-1.345.106-.435.213-.697.213-1.352 0-1.555-1.097-3.25-3-3.25z"/></svg>