<svg xmlns="http://www.w3.org/2000/svg" width="48" height="48" viewBox="0 0 48 48"><path d="M24 1.998a2 2 0 0 0-1.088.322s-3.569 2.287-5.75 3.293a63 63 0 0 1-1.918.82 2 2 0 0 0-.459 3.44s.709.555 1.342.957c.99.63 2.143 1.031 2.143 1.031A2 2 0 0 0 19 12v2h-1a2 2 0 0 0-1.48.656s-.535.588-1.313 1.274c-.778.685-1.83 1.414-2.39 1.619-.704.256-2.905.453-2.905.453a2 2 0 0 0-.97 3.695s1.22.79 2.369 1.283c1.454.624 3.267.975 3.267.975A2 2 0 0 0 15 24h2v2a2 2 0 0 0-1.426.598s-.575.585-1.433 1.271c-.859.687-2.008 1.419-2.748 1.654-.942.3-3.471.479-3.471.479a2 2 0 0 0-.881 3.754s1.406.79 2.656 1.26c1.677.629 3.975.957 3.975.957A2 2 0 0 0 14 36v8a2 2 0 0 0 2 2h16a2 2 0 0 0 2-2v-8a2 2 0 0 0 .328-.027s2.298-.328 3.975-.957c1.25-.47 2.656-1.26 2.656-1.26a2 2 0 0 0-.88-3.754s-2.53-.178-3.472-.479c-.74-.235-1.89-.967-2.748-1.654s-1.433-1.271-1.433-1.271A2 2 0 0 0 31 26v-2h2a2 2 0 0 0 .422-.045s1.813-.35 3.267-.975c1.15-.493 2.37-1.283 2.37-1.283a2 2 0 0 0-.971-3.695s-2.2-.197-2.904-.453c-.562-.205-1.613-.934-2.391-1.62-.778-.685-1.313-1.273-1.313-1.273A2 2 0 0 0 30 14h-1v-2a2 2 0 0 0 .73-.139s1.153-.401 2.143-1.03c.633-.403 1.342-.958 1.342-.958a2 2 0 0 0-.46-3.44s-1.23-.503-1.917-.82c-2.181-1.006-5.75-3.293-5.75-3.293A2 2 0 0 0 24 1.998zm0 4.303c.523.335 1.666.945 2.98 1.699h-5.96c1.314-.754 2.457-1.364 2.98-1.7zM23 12h2v2h-2zm-4.193 6h10.386c.289.297.397.44.955.932.394.346.858.713 1.34 1.068H16.512c.482-.355.946-.722 1.34-1.068.558-.493.666-.635.955-.932zM21 24h6v2h-6zm-3.246 6h12.492c.309.294.461.469 1.115.992.41.327.903.673 1.403 1.008H15.236c.5-.335.994-.68 1.403-1.008.654-.523.806-.698 1.115-.992zM18 36h12v6H18z"/></svg>