<svg xmlns="http://www.w3.org/2000/svg" width="48" height="48" viewBox="0 0 48 48"><path d="M25.467 2.764c-2.422.064-4.77 1.569-5.799 3.955l-6.363 14.75-8.215 8.213c-3.498 3.498-3.498 9.23 0 12.728s9.23 3.498 12.728 0l8.213-8.215 14.559-6.28c3.738-1.614 5.382-6.361 2.908-9.759-4.34-5.959-10.06-11.055-14.344-14.228v.002a5.88 5.88 0 0 0-3.687-1.166zm-.045 3.9q.182-.002.367.033c.328.061.662.207.984.446 3.999 2.961 9.505 7.891 13.493 13.367.971 1.334.374 3.026-1.262 3.732l-13.66 5.895-7.98-7.98 5.978-13.854c.452-1.048 1.232-1.632 2.08-1.639zM14.99 25.44l7.07 7.07-7.07 7.073a4.97 4.97 0 0 1-7.072 0 4.97 4.97 0 0 1 0-7.072zm0 5.07a2 2 0 0 0-1.414.587l-4.244 4.242a2 2 0 0 0 0 2.83 2 2 0 0 0 2.83 0l4.242-4.244a2 2 0 0 0 0-2.828 2 2 0 0 0-1.414-.586z"/></svg>