<svg xmlns="http://www.w3.org/2000/svg" width="48" height="48" viewBox="0 0 48 48"><path d="M38.709 4.021a2 2 0 0 0-.855.34s-.96.694-3.264 1.5C32.286 6.668 28.767 7.5 24 7.5s-8.286-.832-10.59-1.639c-2.304-.806-3.264-1.5-3.264-1.5A2 2 0 0 0 7.04 5.607s-.924 4.45-4.453 7.979l-.022.031a2 2 0 0 0-.396.594 2 2 0 0 0-.04.144 2 2 0 0 0-.116.424 2 2 0 0 0 .006.131L2 15c0 6.944 4.578 13.863 8.945 19.258 4.368 5.395 8.73 9.242 8.73 9.242l.079.047a2 2 0 0 0 .379.226 2 2 0 0 0 .205.106A2 2 0 0 0 21 44h6a2 2 0 0 0 .662-.121 2 2 0 0 0 .205-.106 2 2 0 0 0 .38-.226l.077-.047s4.363-3.847 8.73-9.242c4.363-5.39 8.937-12.3 8.946-19.237V15l-.002-.008a2 2 0 0 0-.01-.213 2 2 0 0 0-.117-.424 2 2 0 0 0-.039-.144 2 2 0 0 0-.396-.594l-.022-.031c-2.371-2.372-4.518-8.219-4.518-8.219a2 2 0 0 0-1.269-1.265 2 2 0 0 0-.918-.08zm-.799 4.674a23.4 23.4 0 0 0 2.59 5.014c-3.309.968-8.33 3.214-11.236 8.299-2.245 3.927-3.232 8.856-3.748 12.861A65 65 0 0 0 25.063 40h-2.125a65 65 0 0 0-.454-5.13c-.516-4.006-1.503-8.935-3.748-12.862-2.885-5.05-7.86-7.302-11.17-8.281 1.393-1.916 2.155-3.602 2.623-4.985.71.363.692.473 1.9.897C14.787 10.582 18.768 11.5 24 11.5s9.214-.918 11.91-1.861c1.273-.446 1.283-.571 2-.944zM6.371 17.592c2.667.81 6.727 2.61 8.893 6.4 1.756 3.073 2.768 7.644 3.252 11.389.072.558.131 1.088.183 1.601a79 79 0 0 1-4.644-5.24c-3.463-4.278-6.716-9.571-7.684-14.15zm35.256 0c-.968 4.58-4.218 9.872-7.682 14.15a79 79 0 0 1-4.644 5.24c.052-.513.111-1.043.183-1.601.484-3.745 1.496-8.316 3.252-11.389 2.166-3.789 6.224-5.59 8.891-6.4z"/></svg>