<svg xmlns="http://www.w3.org/2000/svg" width="48" height="48" viewBox="0 0 48 48"><path d="M24 2C11.873 2 2 11.873 2 24a2 2 0 0 0 .025.13 2 2 0 0 0 .086.446 2 2 0 0 0 .075.233 2 2 0 0 0 .302.47 2 2 0 0 0 .08.11l.018.025 20 20a2 2 0 0 0 .26.197 2 2 0 0 0 .117.09 2 2 0 0 0 .576.24l.059.008a2 2 0 0 0 .55.033 2 2 0 0 0 .206-.033 2 2 0 0 0 .386-.111 2 2 0 0 0 .213-.098 2 2 0 0 0 .33-.232 2 2 0 0 0 .131-.094l20-20 .03-.033.011-.014a2 2 0 0 0 .395-.615l.011-.03a2 2 0 0 0 .135-.702L46 24c0-.04-.004-.08-.004-.121C45.93 11.809 36.086 2 24 2zm0 4c8.404 0 15.373 5.742 17.37 13.51-1.245-.73-2.439-1.147-3.733-1.147-2.147 0-4.099 1.296-6.389 3.153-2.278-1.878-4.69-3.153-7.248-3.153-2.559 0-4.97 1.275-7.248 3.153-2.29-1.857-4.242-3.153-6.389-3.153-1.294 0-2.488.417-3.732 1.147C8.627 11.742 15.596 6 24 6zM10.363 22.363c.258 0 2.164.773 4.672 2.836l4.006 11.014L7.01 24.182c1.834-1.306 3.143-1.819 3.353-1.819zm13.637 0c1.506 0 3.129.64 4.94 2.2L24 38.148l-4.94-13.586c1.811-1.559 3.434-2.199 4.94-2.199zm13.637 0c.21 0 1.52.513 3.353 1.819l-12.03 12.03L32.965 25.2c2.508-2.063 4.414-2.836 4.672-2.836z"/></svg>