<svg xmlns="http://www.w3.org/2000/svg" width="48" height="48" viewBox="0 0 48 48"><path d="M24 7a2 2 0 0 0-2 2 2 2 0 0 0 2 2h18a2 2 0 0 0 2-2 2 2 0 0 0-2-2Zm0 10a2 2 0 0 0-2 2 2 2 0 0 0 2 2h18a2 2 0 0 0 2-2 2 2 0 0 0-2-2zM6 27a2 2 0 0 0-2 2 2 2 0 0 0 2 2h36a2 2 0 0 0 2-2 2 2 0 0 0-2-2zm0 10a2 2 0 0 0-2 2 2 2 0 0 0 2 2h36a2 2 0 0 0 2-2 2 2 0 0 0-2-2zM6 9.766a1 1 0 0 1 1.515-.857l7.056 4.233a1 1 0 0 1 0 1.715l-7.056 4.234A1 1 0 0 1 6 18.234Z"/><path d="M7.025 6.797C5.478 6.836 4 8.092 4 9.766v8.468c0 2.232 2.63 3.72 4.543 2.573l7.057-4.235c1.865-1.12 1.865-4.025 0-5.144L8.543 7.193a2.8 2.8 0 0 0-1.518-.396ZM8 11.53 12.113 14 8 16.469Z"/></svg>