<svg xmlns="http://www.w3.org/2000/svg" width="48" height="48" viewBox="0 0 48 48"><path d="M24 7a2 2 0 0 0-2 2 2 2 0 0 0 2 2h18a2 2 0 0 0 2-2 2 2 0 0 0-2-2Zm0 10a2 2 0 0 0-2 2 2 2 0 0 0 2 2h18a2 2 0 0 0 2-2 2 2 0 0 0-2-2zM6 27a2 2 0 0 0-2 2 2 2 0 0 0 2 2h36a2 2 0 0 0 2-2 2 2 0 0 0-2-2zm0 10a2 2 0 0 0-2 2 2 2 0 0 0 2 2h36a2 2 0 0 0 2-2 2 2 0 0 0-2-2zm11-23a5 5 0 0 1-5 5 5 5 0 0 1-5-5 5 5 0 0 1 5-5 5 5 0 0 1 5 5z"/><path d="M12 7c-3.842 0-7 3.158-7 7s3.158 7 7 7 7-3.158 7-7-3.158-7-7-7zm0 4c1.68 0 3 1.32 3 3s-1.32 3-3 3-3-1.32-3-3 1.32-3 3-3z"/></svg>