<svg xmlns="http://www.w3.org/2000/svg" width="48" height="48" viewBox="0 0 48 48"><path d="M24.213 1.627a4 4 0 0 0-2.828 1.16L3 21.172c-1.545 1.545-1.545 4.11 0 5.656l18.385 18.385c1.545 1.545 4.11 1.545 5.656 0l18.385-18.385c1.545-1.545 1.545-4.11 0-5.656L27.04 2.787a4 4 0 0 0-2.828-1.16zm0 3.988L42.598 24 24.213 42.385 5.828 24zm-.17 7.92a2 2 0 0 0-2 2v6.47h-6.47a2 2 0 0 0-2 2 2 2 0 0 0 2 2h6.47v6.474a2 2 0 0 0 2 2 2 2 0 0 0 2-2v-6.473h6.473a2 2 0 0 0 2-2 2 2 0 0 0-2-2h-6.473v-6.47a2 2 0 0 0-2-2z"/></svg>