<svg xmlns="http://www.w3.org/2000/svg" width="48" height="48" viewBox="0 0 48 48"><path d="M16.727 24q3.636-3.636 7.273-3.636T31.273 24q4.243-3.636 6.363-3.636 2.122 0 6.364 3.636c0-11.046-8.954-20-20-20S4 12.954 4 24q4.243-3.636 6.364-3.636T16.727 24z"/><path d="M24 2C11.873 2 2 11.873 2 24a2 2 0 0 0 3.3 1.518c2.704-2.317 4.792-3.155 5.063-3.155.272 0 2.36.838 5.063 3.155a2 2 0 0 0 2.715-.104c2.188-2.188 4.102-3.05 5.859-3.05s3.67.862 5.86 3.05a2 2 0 0 0 2.714.104c2.703-2.317 4.791-3.155 5.063-3.155.27 0 2.359.838 5.062 3.155A2 2 0 0 0 46 24c0-12.127-9.873-22-22-22Zm0 4c8.404 0 15.373 5.742 17.37 13.51-1.245-.73-2.439-1.147-3.733-1.147-2.147 0-4.099 1.296-6.389 3.153-2.278-1.878-4.69-3.153-7.248-3.153-2.559 0-4.97 1.275-7.248 3.153-2.29-1.857-4.242-3.153-6.389-3.153-1.294 0-2.488.417-3.732 1.147C8.627 11.742 15.596 6 24 6Z"/><path d="M4 22a2 2 0 0 0-1.414.586 2 2 0 0 0 0 2.828l20 20a2 2 0 0 0 3.293-2.098l-7.272-20a2 2 0 0 0-2.564-1.195 2 2 0 0 0-1.195 2.563l4.193 11.529L5.414 22.586A2 2 0 0 0 4 22Z"/><path d="M31.957 22.121a2 2 0 0 0-2.564 1.195l-7.272 20a2 2 0 0 0 3.293 2.098l20-20a2 2 0 0 0 0-2.828 2 2 0 0 0-2.828 0L28.959 36.213l4.193-11.53a2 2 0 0 0-1.195-2.562z"/></svg>