<svg xmlns="http://www.w3.org/2000/svg" width="48" height="48" viewBox="0 0 48 48"><path d="M34 16c1-8-2.873-12-9.873-12S13 9 14 16s7.255 12 10.127 12S33 24 34 16Z"/><path d="M24.127 2c-3.976 0-7.404 1.475-9.596 4.09s-3.075 6.246-2.511 10.193c.573 4.012 2.61 7.353 4.902 9.73C19.212 28.392 21.53 30 24.127 30c2.365 0 4.784-1.3 7.059-3.592 2.274-2.292 4.242-5.712 4.798-10.16.545-4.356-.221-8.01-2.404-10.55C31.397 3.155 28.008 2 24.127 2Zm0 4c3.119 0 5.166.844 6.42 2.303s1.924 3.805 1.469 7.449c-.444 3.552-1.976 6.132-3.67 7.84C26.652 25.299 24.635 26 24.127 26c-.276 0-2.522-.891-4.326-2.764-1.805-1.872-3.394-4.531-3.82-7.52-.437-3.052.243-5.42 1.615-7.056C18.967 7.025 21.103 6 24.127 6Z"/><path d="M24.127 26.201c-1.356.657-2.743 1.764-3.934 3.24C19.003 30.918 18 32.801 18 35c0 .925.47 1.863 1.057 2.416.585.553 1.218.837 1.841 1.057 1.247.438 2.567.604 3.817.785 1.084.156 1.987.331 2.652.517-.022.013-.02.019-.043.032-.776.423-2.042.864-3.332 1.203-2.58.677-5.232 1.004-5.232 1.004a2 2 0 0 0-1.746 2.226 2 2 0 0 0 2.226 1.746s2.847-.34 5.768-1.107c1.46-.384 2.944-.859 4.23-1.56.643-.351 1.25-.755 1.776-1.34S32 40.533 32 39.555c0-.925-.47-1.861-1.057-2.414-.585-.554-1.218-.84-1.841-1.059-1.247-.439-2.567-.603-3.817-.783s-2.43-.379-3.058-.6c-.105-.037-.074-.032-.141-.064.104-.843.51-1.801 1.22-2.682.81-1.003 1.923-1.842 2.567-2.154a2 2 0 0 0 .926-2.672 2 2 0 0 0-2.672-.926z"/></svg>