<svg xmlns="http://www.w3.org/2000/svg" width="48" height="48" viewBox="0 0 48 48"><path d="M9 2C6.815 2 5 3.815 5 6v32c0 2.185 1.815 4 4 4h2c0 2.181 1.819 4 4 4h24c2.181 0 4-1.819 4-4V12c0-2.181-1.819-4-4-4h-6V6c0-2.185-1.815-4-4-4zm0 4h20v2H15c-2.181 0-4 1.819-4 4v26H9zm6 6h24v30H15zm12 5c-5.5 0-10 4.5-10 10a9.9 9.9 0 0 0 1.06 4.46 2 2 0 0 0 .57.991C20.42 35.184 23.509 37 27 37q.364-.002.72-.03a2 2 0 0 0 1.051-.132 10.05 10.05 0 0 0 8.065-8.053 2 2 0 0 0 .137-.457 2 2 0 0 0 0-.65c.015-.225.027-.45.027-.678 0-3.485-1.809-6.568-4.533-8.36a2 2 0 0 0-1.028-.591A9.9 9.9 0 0 0 27 17zm0 4a6 6 0 0 1 1.764.26q-.007.018-.012.037c-.11.295-.254.502-.346.584S28.306 22 28 22a2 2 0 0 0-2 2 2 2 0 0 0 2 2c1.194 0 2.31-.463 3.063-1.13.41-.365.717-.767.958-1.17.43.656.734 1.402.88 2.208-1.224.1-2.732.465-4.102 1.492-1.539 1.154-2.298 2.799-2.705 4.303q-.165.605-.242 1.188a5.95 5.95 0 0 1-2.44-1.077q.402-.3.752-.65C25.228 30.1 26 28.667 26 27a2 2 0 0 0-2-2 2 2 0 0 0-2 2c0 .333-.228.9-.664 1.336q-.075.075-.154.143A6 6 0 0 1 21 27c0-3.337 2.663-6 6-6zm5.084 9.197a5.95 5.95 0 0 1-1.9 1.895c.276-.653.667-1.232 1.015-1.492.24-.18.55-.308.885-.403z"/></svg>