<svg xmlns="http://www.w3.org/2000/svg" width="48" height="48" viewBox="0 0 48 48"><path d="M32 6h10v10H32Z"/><path d="M32 4a2 2 0 0 0-2 2v10a2 2 0 0 0 2 2h10a2 2 0 0 0 2-2V6a2 2 0 0 0-2-2Zm2 4h6v6h-6zm-2 24h10v10H32Z"/><path d="M32 30a2 2 0 0 0-2 2v10a2 2 0 0 0 2 2h10a2 2 0 0 0 2-2V32a2 2 0 0 0-2-2zm2 4h6v6h-6zM6 32h10v10H6Z"/><path d="M6 30a2 2 0 0 0-2 2v10a2 2 0 0 0 2 2h10a2 2 0 0 0 2-2V32a2 2 0 0 0-2-2zm2 4h6v6H8ZM6 6h10v10H6Z"/><path d="M6 4a2 2 0 0 0-2 2v10a2 2 0 0 0 2 2h10a2 2 0 0 0 2-2V6a2 2 0 0 0-2-2Zm2 4h6v6H8Zm0 14a2 2 0 0 0-2 2 2 2 0 0 0 2 2h22a2 2 0 0 0 2-2 2 2 0 0 0-2-2zm30 0a2 2 0 0 0-2 2 2 2 0 0 0 2 2h2a2 2 0 0 0 2-2 2 2 0 0 0-2-2zM24 35a2 2 0 0 0-2 2v2a2 2 0 0 0 2 2 2 2 0 0 0 2-2v-2a2 2 0 0 0-2-2z"/><path d="M24 15a2 2 0 0 0-2 2v14a2 2 0 0 0 2 2 2 2 0 0 0 2-2V17a2 2 0 0 0-2-2zm0-9a2 2 0 0 0-2 2v2a2 2 0 0 0 2 2 2 2 0 0 0 2-2V8a2 2 0 0 0-2-2Z"/></svg>