<svg xmlns="http://www.w3.org/2000/svg" width="48" height="48" viewBox="0 0 48 48"><path d="M5.762 4.014A2 2 0 0 0 4.8 4.4a2 2 0 0 0-.4 2.8L8 12H5a2 2 0 0 0-2 2 2 2 0 0 0 2 2h5v2H5a2 2 0 0 0-2 2 2 2 0 0 0 2 2h5v4a2 2 0 0 0 2 2 2 2 0 0 0 2-2v-4h5a2 2 0 0 0 2-2 2 2 0 0 0-2-2h-5v-2h5a2 2 0 0 0 2-2 2 2 0 0 0-2-2h-3l3.6-4.8a2 2 0 0 0-.4-2.8 2 2 0 0 0-2.8.4L12 10.669 7.6 4.801a2 2 0 0 0-1.317-.781 2 2 0 0 0-.521-.006zM38 8a2 2 0 0 0-1.414.586l-28 28a2 2 0 0 0 0 2.828 2 2 0 0 0 2.828 0l28-28a2 2 0 0 0 0-2.828A2 2 0 0 0 38 8zm-5.154 16a2 2 0 0 0-2 2 2 2 0 0 0 2 2H40v12H24v-3.85a2 2 0 0 0-2-2 2 2 0 0 0-2 2V42a2 2 0 0 0 2 2h20a2 2 0 0 0 2-2V26a2 2 0 0 0-2-2z"/></svg>