<svg xmlns="http://www.w3.org/2000/svg" width="48" height="48" viewBox="0 0 48 48"><path d="M21.03 2a2 2 0 0 0-1.82 1.105 2 2 0 0 0 .895 2.684c.62.31.605.222.801.287.197.066.4.146.57.24.343.188.493.302.585.668.129.518.057.867-.08 1.323A20 20 0 0 0 19.237 8c-3.576-.142-7.686.781-10.652 4.1-6.912 7.734-5.43 18.395.678 23.933 6.087 5.52 11.93 7.791 14.332 8.809a2 2 0 0 0 1.273.096c3.635-.925 13.263-4.13 17.203-12.72 2.363-5.15 2.321-9.81 1.065-13.452-1.257-3.643-3.615-6.25-5.836-7.756a9 9 0 0 0-1.588-.85c.908-1.283 1.316-2.693 1.54-3.764.432-2.051-1.209-4.144-3.304-4.216-1.556-.054-3.87.084-5.853 1.638-.962.754-1.617 1.661-2.075 2.57a7 7 0 0 0-.082-.372c-.408-1.634-1.592-2.687-2.54-3.207a7.3 7.3 0 0 0-1.227-.526c-.32-.106-.73-.299-.277-.072A2 2 0 0 0 21.029 2zm12.085 4.238c-.276.89-.692 1.812-1.318 2.303s-1.623.673-2.553.729c.276-.89.692-1.812 1.319-2.303.626-.491 1.622-.674 2.552-.729zM18.031 11.99a15 15 0 0 1 1.05.006 17 17 0 0 1 2.864.385c-1.684 1.198-3.426 2.945-4.629 5.523-2.607 5.59-.562 10.717-.134 12.551a2 2 0 0 0 2.402 1.492 2 2 0 0 0 1.494-2.402c-.622-2.666-2.04-5.867-.137-9.95 1.77-3.795 4.847-4.976 6.772-5.726.498-.19 1.932-.525 3.389-.531s2.946.298 3.955.982c1.506 1.022 3.36 3.036 4.297 5.75s1.067 6.152-.918 10.48c-2.867 6.25-10.587 9.35-13.93 10.305-2.69-1.13-7.327-3.042-12.557-7.784-4.454-4.038-5.893-12.137-.38-18.306 1.753-1.963 4.034-2.696 6.462-2.774z"/></svg>