<svg xmlns="http://www.w3.org/2000/svg" width="48" height="48" viewBox="0 0 48 48"><g clip-path="url(#a)"><path d="M26.924 10.002a2 2 0 0 0-1.442.697s-6.386 7.32-7.47 17.08c-.534 4.805.094 9.052 1.431 12.278 1.338 3.225 3.431 5.751 6.432 5.94 1.588.099 3.006-.615 4.178-1.62 1.171-1.005 2.175-2.354 3.043-3.973C34.83 37.167 36 32.83 36 28c0-10.037-7.586-17.414-7.586-17.414a2 2 0 0 0-1.49-.584zm.168 5.434C28.855 17.592 32 21.906 32 28c0 4.17-1.053 7.945-2.43 10.514-.688 1.284-1.46 2.26-2.123 2.828-.662.568-1.132.674-1.322.662-.555-.035-1.963-1.01-2.986-3.479s-1.617-6.11-1.15-10.304c.691-6.23 3.495-10.552 5.103-12.785z"/><path d="M32.025 3.535a4.7 4.7 0 0 0-2.11.723c-3.916 2.53-4.858 7.271-4.858 7.271a2 2 0 0 0 1.47 2.414 2 2 0 0 0 2.416-1.47s1.06-3.51 3.143-4.856c.17-.11.467-.184 1.064-.033.073.018.173.107.25.133-.302.38-.711.663-.935 1.107-.549 1.087-.808 2.474-.363 3.809.696 2.09 2.439 3.617 4.439 3.617s3.751-1.573 4.377-3.682c.437-1.472.016-2.865-.62-4.017-.1-.184-.299-.302-.413-.479.293-.059.666-.18.826-.156.237.035.303.074.494.314.19.24.42.714.578 1.336.315 1.244.338 3.004.225 4.252-.477 5.24-1.906 9.551-1.906 9.551a2 2 0 0 0 1.265 2.53 2 2 0 0 0 2.531-1.266s1.57-4.69 2.094-10.451c.143-1.573.168-3.625-.332-5.598-.25-.986-.631-1.97-1.324-2.842s-1.784-1.599-3.047-1.783c-1.658-.242-3.191.293-4.627 1.055-.804-.515-1.595-1.07-2.531-1.307a6.1 6.1 0 0 0-2.106-.172Zm4.454 6.586c.083.121.253.246.316.36.313.567.295.923.287.95-.264.892-.514.819-.541.819s-.341.027-.645-.883c-.054-.165-.062-.34.14-.74.073-.146.31-.335.443-.506z"/><path d="M27 12s0 8-7 16-13.675 9.7-16 7 0-10 7-17 16-6 16-6z"/><path d="M25.545 9.96c-3.162.051-10.204.87-15.96 6.626-3.666 3.667-6.151 7.43-7.448 10.81s-1.612 6.634.347 8.909c1.916 2.224 5.218 2.325 8.479 1.074s6.882-3.878 10.543-8.063C28.94 20.82 29 12 29 12a2 2 0 0 0-1.78-1.988s-.621-.068-1.675-.051zm-.9 4.071c-.24 2.231-1.059 6.833-6.15 12.653-3.34 3.815-6.556 6.037-8.964 6.96-2.408.924-3.606.527-4.015.051-.366-.424-.679-2.172.355-4.867s3.21-6.081 6.543-9.414c4.388-4.388 9.449-5.236 12.23-5.383z"/><circle cx="27.243" cy="27.408" r="2.5"/><circle cx="26.243" cy="34.408" r="2.5"/></g><defs><clipPath id="a"><path d="M0 0h48v48H0z"/></clipPath></defs></svg>