<svg xmlns="http://www.w3.org/2000/svg" width="48" height="48" viewBox="0 0 48 48"><path d="M23.45 2.08 5.44 7.336A2 2 0 0 0 4 9.256v10.773c0 12.185 7.917 22.054 19.371 25.87a2 2 0 0 0 1.264 0C36.085 42.082 44 32.214 44 20.032V9.256a2 2 0 0 0-1.44-1.92L24.57 2.08a2 2 0 0 0-1.12 0zm.558 4.004L40 10.756v9.277c0 10.246-6.324 18.329-15.998 21.81C14.326 38.362 8 30.278 8 20.03v-9.273z"/><path d="M29 18a5 5 0 0 1-5 5 5 5 0 0 1-5-5 5 5 0 0 1 5-5 5 5 0 0 1 5 5z"/><path d="M24 11c-3.842 0-7 3.158-7 7s3.158 7 7 7 7-3.158 7-7-3.158-7-7-7zm0 4c1.68 0 3 1.32 3 3s-1.32 3-3 3-3-1.32-3-3 1.32-3 3-3z"/><path d="M24 21c-5.5 0-10 4.5-10 10a2 2 0 0 0 2 2 2 2 0 0 0 2-2c0-3.337 2.663-6 6-6s6 2.663 6 6a2 2 0 0 0 2 2 2 2 0 0 0 2-2c0-5.5-4.5-10-10-10Z"/></svg>