<svg xmlns="http://www.w3.org/2000/svg" width="48" height="48" viewBox="0 0 48 48"><path d="M28 29v-2h-8v4h8zm13 2h-9v2a2 2 0 0 1-2 2H18a2 2 0 0 1-2-2v-2H7v8h34v-5zm-7-12H7v8h9v-2a2 2 0 0 1 2-2h12a2 2 0 0 1 2 2v2h9v-8z"/><path d="M5 36a2 2 0 0 1-2-2v5c0 2.181 1.819 4 4 4h34c2.181 0 4-1.819 4-4v-5a2 2 0 0 1-2 2v3c0 1.108-.892 2-2 2H7c-1.108 0-2-.892-2-2Z"/><path d="M5 36v3c0 1.108.892 2 2 2h34c1.108 0 2-.892 2-2v-3a2 2 0 0 1-2-2v5H7v-5a2 2 0 0 1-2 2zm7-19H7c-1.108 0-2 .892-2 2v3a2 2 0 0 1 2 2v-5h7a2 2 0 0 1-2-2z"/><path d="M3 24a2 2 0 0 1 2-2v-3c0-1.108.892-2 2-2h5v-2H7c-2.181 0-4 1.819-4 4zm33-7a2 2 0 0 1-2 2h7v5a2 2 0 0 1 2-2v-3c0-1.108-.892-2-2-2z"/><path d="M36 15v2h5c1.108 0 2 .892 2 2v3a2 2 0 0 1 2 2v-5c0-2.181-1.819-4-4-4zm-22 0v2h20v-2H16Zm0 0h2V9h16v6h2V7H14Zm-2 0v2h2v-2zm24 2H12a2 2 0 0 0 2 2h20a2 2 0 0 0 2-2zm0-2h-2v2h2z"/><path d="M14 5a2 2 0 0 0-2 2v8h2V7h20v8h2V7a2 2 0 0 0-2-2ZM7 24a2 2 0 0 0-2-2v5h2zm-4 5a2 2 0 0 1 2-2v-5a2 2 0 0 0-2 2Z"/><path d="M5 31v-4a2 2 0 0 0-2 2 2 2 0 0 0 2 2z"/><path d="M5 31a2 2 0 0 1-2-2v5a2 2 0 0 0 2 2zm2 0v-4H5v4zm0 0H5v5a2 2 0 0 0 2-2zm36 0v-4h-2v4zm0 0h-2v3a2 2 0 0 0 2 2zm2-2a2 2 0 0 0-2-2v4a2 2 0 0 0 2-2z"/><path d="M45 29a2 2 0 0 1-2 2v5a2 2 0 0 0 2-2zm-2-7v5a2 2 0 0 1 2 2v-5a2 2 0 0 0-2-2zm-2 2v3h2v-5a2 2 0 0 0-2 2z"/></svg>