<svg xmlns="http://www.w3.org/2000/svg" width="48" height="48" viewBox="0 0 48 48"><path d="M15 4v7.37l-6 6.116V21h8a2 2 0 0 1 2 2v12a2 2 0 0 1-2 2H9v5a2 2 0 0 0 2 2h26a2 2 0 0 0 2-2V17.486l-6-6.117V4zm16 17a2 2 0 0 1 2 2v6a2 2 0 0 1-2 2 2 2 0 0 1-2-2v-6a2 2 0 0 1 2-2zM9 25v8h6v-8zm22 7a2 2 0 0 1 2 2v1a2 2 0 0 1-2 2 2 2 0 0 1-2-2v-1a2 2 0 0 1 2-2z"/><path d="M15 2a2 2 0 0 0-2 2v6.553l-5.428 5.533a2 2 0 0 0-.572 1.4V42c0 2.185 1.815 4 4 4h26c2.185 0 4-1.815 4-4V17.486a2 2 0 0 0-.572-1.4L35 10.55V4a2 2 0 0 0-2-2h-9zm2 4h14v5.37a2 2 0 0 0 .572 1.4L37 18.305V42H11V18.305l5.428-5.535a2 2 0 0 0 .572-1.4Z"/><path d="M15 9.5a2 2 0 0 0-2 2 2 2 0 0 0 2 2h18a2 2 0 0 0 2-2 2 2 0 0 0-2-2zM9 18a2 2 0 0 0-2 2v18a2 2 0 0 0 2 2 2 2 0 0 0 2-2V20a2 2 0 0 0-2-2Z"/></svg>