<svg xmlns="http://www.w3.org/2000/svg" width="48" height="48" viewBox="0 0 48 48"><path d="M9 4C6.265 4 4 6.265 4 9v30c0 2.735 2.265 5 5 5h30c2.735 0 5-2.265 5-5V9c0-2.735-2.265-5-5-5zm0 4h30c.589 0 1 .411 1 1v30c0 .589-.411 1-1 1H9c-.589 0-1-.411-1-1V9c0-.589.411-1 1-1zm26.775 2.014a2 2 0 0 0-1.19.572l-3.517 3.518A12.9 12.9 0 0 0 24 12c-7.156 0-13 5.844-13 13s5.844 13 13 13 13-5.844 13-13a12.94 12.94 0 0 0-2.947-8.225l3.361-3.36a2 2 0 0 0 0-2.83 2 2 0 0 0-1.639-.571zM24 16c1.505 0 2.92.365 4.162 1.01l-1.576 1.576a2 2 0 0 0 0 2.828 2 2 0 0 0 2.828 0l1.807-1.807A8.98 8.98 0 0 1 33 25c0 4.994-4.006 9-9 9a8.97 8.97 0 0 1-9-9c0-4.994 4.006-9 9-9zm0 7c-1.108 0-2 .892-2 2s.892 2 2 2 2-.892 2-2-.892-2-2-2zm12 11c-1.108 0-2 .892-2 2s.892 2 2 2 2-.892 2-2-.892-2-2-2z"/></svg>