<svg xmlns="http://www.w3.org/2000/svg" width="48" height="48" viewBox="0 0 48 48"><path d="M28.912 3.68q-1.11 0-2.21.164a2 2 0 0 0-1.684 2.273 2 2 0 0 0 2.273 1.684 11.1 11.1 0 0 1 4.318.21 10.93 10.93 0 0 1 5.092 2.891 10.9 10.9 0 0 1 2.89 5.09c.355 1.413.424 2.885.21 4.32a2 2 0 0 0 1.683 2.272 2 2 0 0 0 2.274-1.682 15.1 15.1 0 0 0-.287-5.882 14.96 14.96 0 0 0-3.942-6.948A14.96 14.96 0 0 0 28.912 3.68zM9.302 6.795c-3.821 0-6.763 3.798-5.519 7.486 1.742 5.163 4.973 13.172 10.356 18.555 5.382 5.383 13.392 8.612 18.554 10.353 3.688 1.245 7.487-1.695 7.487-5.517v-5.074c0-1.45-.79-2.792-2.057-3.496l-4.418-2.457a4 4 0 0 0-3.732-.082L25.98 28.56c-.699-.18-2.752-.776-4.771-2.795s-2.622-4.082-2.805-4.786l1.996-3.99a4 4 0 0 0-.082-3.73l-2.445-4.406a4.01 4.01 0 0 0-3.498-2.06zm0 4h5.073l2.447 4.406-2.357 4.713a2 2 0 0 0-.174 1.277s.765 4.078 4.09 7.403 7.396 4.078 7.396 4.078a2 2 0 0 0 1.272-.174l4.713-2.357 4.418 2.457v5.074c0 1.345-1 2.136-2.21 1.728-4.893-1.65-12.492-4.881-17.003-9.392S9.225 17.895 7.574 13.002c-.407-1.208.384-2.207 1.729-2.207zm19.141.123a8 8 0 0 0-1.37.084 2 2 0 0 0-1.684 2.273 2 2 0 0 0 2.271 1.684 3.98 3.98 0 0 1 3.424 1.127 3.97 3.97 0 0 1 1.127 3.422 2 2 0 0 0 1.684 2.273 2 2 0 0 0 2.273-1.683 7.996 7.996 0 0 0-7.725-9.18z"/></svg>