<svg xmlns="http://www.w3.org/2000/svg" width="48" height="48" viewBox="0 0 48 48"><path d="M15.996 8.686a2 2 0 0 1 1.749 1.03l2.446 4.406a2 2 0 0 1 .04 1.865l-2.356 4.714s.683 3.511 3.541 6.37 6.358 3.53 6.358 3.53l4.713-2.357a2 2 0 0 1 1.866.04l4.42 2.458A2 2 0 0 1 39.8 32.49v5.073c0 2.584-2.4 4.45-4.848 3.624-5.028-1.697-12.833-4.927-17.78-9.874-4.946-4.947-8.177-12.751-9.873-17.78-.826-2.447 1.04-4.847 3.624-4.847Z"/><path d="M10.924 6.686c-3.822 0-6.764 3.8-5.52 7.488 1.742 5.162 4.973 13.17 10.356 18.553 5.382 5.382 13.39 8.613 18.553 10.355C38 44.326 41.8 41.385 41.8 37.562V32.49a4.01 4.01 0 0 0-2.057-3.496l-4.42-2.457a4 4 0 0 0-3.732-.082l-3.994 1.996c-.702-.18-2.75-.778-4.768-2.795s-2.621-4.077-2.805-4.783l1.995-3.992a4 4 0 0 0-.08-3.73l-2.446-4.407a4.01 4.01 0 0 0-3.498-2.058Zm0 4h5.072l2.447 4.406-2.357 4.715a2 2 0 0 0-.174 1.275s.765 4.078 4.09 7.402c3.325 3.325 7.394 4.08 7.394 4.08a2 2 0 0 0 1.272-.175l4.713-2.356 4.42 2.457v5.072c0 1.346-1 2.137-2.21 1.729C30.7 37.64 23.1 34.409 18.589 29.898c-4.511-4.51-7.742-12.11-9.393-17.003-.407-1.209.384-2.21 1.729-2.21Z"/><path d="M28 7h13v13H28z" opacity=".01"/><path d="m37.586 7.586-9 9a2 2 0 0 0 0 2.828 2 2 0 0 0 2.828 0l9-9a2 2 0 0 0 0-2.828 2 2 0 0 0-2.828 0z"/><path d="M30 7a2 2 0 0 0-1.414.586 2 2 0 0 0 0 2.828l9 9a2 2 0 0 0 2.828 0 2 2 0 0 0 0-2.828l-9-9A2 2 0 0 0 30 7Z"/></svg>