<svg xmlns="http://www.w3.org/2000/svg" width="48" height="48" viewBox="0 0 48 48"><path d="M24 2C11.873 2 2 11.873 2 24s9.873 22 22 22 22-9.873 22-22q0-.545-.027-1.082l-.002-.016c-.01-.208-.03-.414-.045-.62-.012-.156-.02-.31-.035-.466a22 22 0 0 0-.102-.826c-.01-.073-.016-.147-.027-.22l-.004-.02a22 22 0 0 0-.14-.822l-.046-.248a22 22 0 0 0-.19-.84l-.048-.211q-.091-.358-.195-.711-.05-.18-.104-.36c-.059-.191-.125-.38-.19-.57q-.077-.24-.161-.478-.064-.173-.131-.344c-.075-.196-.147-.392-.227-.586l-.055-.123-.003-.01-.026-.056q-.197-.465-.416-.918a22 22 0 0 0-4.27-6.03 22 22 0 0 0-6.947-4.685l-.056-.026-.01-.003-.123-.055c-.194-.08-.39-.152-.586-.227q-.171-.067-.344-.13c-.158-.058-.319-.109-.478-.163q-.284-.098-.57-.19l-.36-.103a22 22 0 0 0-.71-.195l-.212-.049a22 22 0 0 0-.84-.19q-.123-.023-.248-.044a22 22 0 0 0-.822-.14l-.02-.005-.22-.027a22 22 0 0 0-.826-.102c-.155-.015-.31-.023-.465-.035-.207-.016-.413-.034-.621-.045l-.016-.002A22 22 0 0 0 24 2zm-2 4.111V24a2 2 0 0 0 2 2h17.889c-.991 9.018-8.6 16-17.889 16-9.965 0-18-8.035-18-18A17.967 17.967 0 0 1 22 6.111zm4 .086c1.673.188 3.327.527 4.889 1.174a18 18 0 0 1 9.74 9.74c.647 1.562.986 3.216 1.174 4.889H26z"/></svg>