<svg xmlns="http://www.w3.org/2000/svg" width="48" height="48" viewBox="0 0 48 48"><path d="M24 2C17.723 2 12.054 4.65 8.041 8.883l-.078.056a22 22 0 0 0-4.2 6.442l-.097.234q-.135.33-.262.662-.07.19-.138.383a22 22 0 0 0-.477 1.512q-.066.236-.127.474-.056.232-.107.463c-.04.177-.083.353-.12.532q-.078.396-.142.797l-.023.13c-.03.185-.052.372-.077.559q-.031.229-.058.459-.026.246-.047.494c-.01.122-.025.243-.033.365-.006.085-.007.17-.012.254a22 22 0 0 0-.037 1.096c0 .069-.006.136-.006.205 0 .042.004.083.004.125q.002.398.02.797.003.136.01.271.023.44.066.877l.011.143c.013.127.032.252.047.379q.035.318.08.635.04.259.086.515.038.225.08.45a22 22 0 0 0 .223 1.01q.066.273.139.544.052.193.109.385.083.289.174.574c.06.19.127.38.193.568q.054.16.11.317a22 22 0 0 0 1.308 2.887Q5.264 35.598 6 36.65a22 22 0 0 0 10.371 7.983l.363.127q.255.091.514.176.282.09.568.173l.211.065.184.047a22 22 0 0 0 1.596.373q.15.029.302.054.323.062.649.112.386.055.773.097.097.014.196.026l.302.025q.371.033.742.055l.352.014q.353.014.707.02L24 46c.067 0 .133-.005.2-.006q.363-.002.728-.017l.342-.016q.325-.02.65-.049.216-.017.432-.039.384-.041.767-.098c.07-.01.138-.016.207-.027.181-.028.36-.064.54-.096.127-.022.255-.041.382-.066l.027-.006q.286-.058.569-.123.23-.052.459-.107.248-.063.496-.131.243-.066.484-.137a22 22 0 0 0 1.041-.342q.172-.06.342-.123.39-.146.777-.306.07-.03.139-.057c.051-.022.103-.04.154-.063a22 22 0 0 0 10.592-9.695l.012-.02.008-.015c.058-.107.12-.212.175-.32q.144-.28.278-.563l.025-.05.012-.026q.216-.451.412-.91l.018-.04.003-.009q.208-.49.391-.988l.002-.004q.164-.452.309-.908c.061-.194.115-.39.172-.586l.107-.377q.084-.318.158-.64l.069-.294a22 22 0 0 0 .292-1.598q.036-.25.065-.5c.021-.174.044-.348.06-.523q.05-.495.075-.994.024-.507.025-1.016L46 24c0-.091-.007-.18-.008-.271a22 22 0 0 0-.082-1.674 22 22 0 0 0-.053-.528q-.025-.212-.054-.423c-.026-.198-.05-.396-.082-.592l-.055-.31a22 22 0 0 0-.336-1.587q-.091-.354-.193-.703l-.073-.256q-.092-.295-.191-.588-.07-.212-.143-.423a22 22 0 0 0-.41-1.063l-.097-.236a22 22 0 0 0-.375-.825l-.022-.048-.01-.02a22 22 0 0 0-5.925-7.514 22 22 0 0 0-3.403-2.273l-.011-.006-.024-.012a22 22 0 0 0-.863-.441l-.131-.064q-.39-.186-.785-.356-.101-.046-.203-.088-.353-.146-.711-.28-.144-.056-.29-.11-.3-.108-.605-.205c-.127-.042-.253-.088-.38-.127a22 22 0 0 0-.901-.256c-.213-.056-.429-.105-.645-.155l-.33-.076q-.288-.06-.58-.113-.22-.043-.443-.08a22 22 0 0 0-2.184-.248q-.164-.012-.332-.022A22 22 0 0 0 24 2zm-2 4.111V19.38l-9.678-9.086A17.9 17.9 0 0 1 22 6.111zm4 .06c3.416.385 6.677 1.682 9.365 3.87a18 18 0 0 1 6.403 11.07q.044.285.08.57l.035.276c.018.158.03.316.045.475a18 18 0 0 1 .068 1.388l.002.239q0 .436-.021.869a18 18 0 0 1-.131 1.41l-.022.164q-.049.345-.111.69l-.004.029-.004.02a18 18 0 0 1-15.742 14.652c-.148.016-.297.026-.445.039q-.234.02-.47.035a18 18 0 0 1-1.788.013q-.137-.003-.274-.01-.234-.014-.466-.034a18 18 0 0 1-1.141-.127A18.02 18.02 0 0 1 6.31 27.332l-.002-.012a18 18 0 0 1-.247-1.863q-.02-.242-.035-.486l-.007-.21a18 18 0 0 1-.018-.652l.002-.275a18 18 0 0 1 .033-.934l.022-.293c.266-3.412 1.54-6.632 3.576-9.353L22.63 25.457A2 2 0 0 0 26 24z"/></svg>