<svg xmlns="http://www.w3.org/2000/svg" width="48" height="48" viewBox="0 0 48 48"><path d="M11.096 6.002a2 2 0 0 0-.647.076 2 2 0 0 0-1.353 1.31l-1.268 3.954c-1.593.988-3.095 2.482-4.182 4.668-1.298 2.611-1.877 6.084-.517 9.695a2 2 0 0 0 .082.19c.33.66 1.176 3.034 2.201 5.699s2.299 5.743 3.861 8.416a2 2 0 0 0 2.737.717 2 2 0 0 0 .717-2.737c-1.36-2.327-2.586-5.248-3.58-7.834-.963-2.503-1.643-4.569-2.293-5.914-.916-2.478-.521-4.651.375-6.453.902-1.815 2.486-3.158 3.136-3.447a2 2 0 0 0 1.092-1.217l.049-.154c.198.543.467 1.177.555 1.521a2 2 0 0 0 1.306 1.404L18 17.441v4.442c-1.21.838-4.493 2.917-5.506 3.181a2 2 0 0 0-1.43 2.442 2 2 0 0 0 2.442 1.43c3.002-.785 6.374-3.216 7.785-4.409A2 2 0 0 0 22 23v-7a2 2 0 0 0-1.367-1.896l-5.094-1.698c-.252-.782-.478-1.553-.885-2.435-.59-1.282-1.21-2.524-2.363-3.498a2 2 0 0 0-1.195-.471zm15.83 4.99a19 19 0 0 0-3.252.24 2 2 0 0 0-1.647 2.3 2 2 0 0 0 2.3 1.646c1.858-.308 4.97-.27 7.497.767 2.527 1.038 4.527 2.788 5.13 6.649l.023.12c-.023-.103.048.515-.01 1.222a13.5 13.5 0 0 1-.465 2.525c-.527 1.845-1.526 3.723-3.098 4.807-1.312.904-1.556 2-1.888 3.28C31.183 35.83 31 37.348 31 39a2 2 0 0 0 2 2 2 2 0 0 0 2-2c0-1.347.162-2.58.387-3.445.224-.866.75-1.313.287-.994 2.643-1.823 3.985-4.592 4.674-7.002.054-.19.096-.374.142-.559h.002c1.35.161 2.97-.274 4.168-1.502.983-1.007 1.41-2.242 1.43-3.764.019-1.521-.726-3.42-2.47-4.455a2 2 0 0 0-1.516-.216 2 2 0 0 0-1.227.917 2 2 0 0 0 .701 2.74c.504.3.518.496.512.964-.006.438-.34 1.036-.305 1.03-.307.31-.538.34-.777.317a6 6 0 0 0-.123-1.127c-.825-5.099-4.071-8.233-7.541-9.658-1.745-.716-3.529-1.075-5.194-1.201a19 19 0 0 0-1.224-.053zM22 34c-3.29 0-6 2.71-6 6a2 2 0 0 0 2 2 2 2 0 0 0 2-2c0-1.128.872-2 2-2s2 .872 2 2a2 2 0 0 0 2 2 2 2 0 0 0 2-2c0-3.29-2.71-6-6-6z"/></svg>