<svg xmlns="http://www.w3.org/2000/svg" width="48" height="48" viewBox="0 0 48 48"><path d="M5 19v22a2 2 0 0 0 2 2h34a2 2 0 0 0 2-2V19zm28.688 4.025a2 2 0 0 1 1.726.56 2 2 0 0 1 0 2.83l-12 12a2 2 0 0 1-2.828 0l-6-6a2 2 0 0 1 0-2.83 2 2 0 0 1 2.828 0L22 34.173l10.586-10.586a2 2 0 0 1 1.102-.56z"/><path d="M5 17a2 2 0 0 0-2 2v22c0 2.185 1.815 4 4 4h34c2.185 0 4-1.815 4-4V19a2 2 0 0 0-2-2zm2 4h34v20H7Z"/><path d="M7 6c-2.185 0-4 1.815-4 4v9a2 2 0 0 0 2 2h38a2 2 0 0 0 2-2v-9c0-2.185-1.815-4-4-4Zm0 4h34v7H7Z"/><path d="M16 3a2 2 0 0 0-2 2v8a2 2 0 0 0 2 2 2 2 0 0 0 2-2V5a2 2 0 0 0-2-2Zm16 0a2 2 0 0 0-2 2v8a2 2 0 0 0 2 2 2 2 0 0 0 2-2V5a2 2 0 0 0-2-2Z"/></svg>