<svg xmlns="http://www.w3.org/2000/svg" width="48" height="48" viewBox="0 0 48 48"><path d="M38 5a2 2 0 0 0-1.414.586 2 2 0 0 0 0 2.828L39.172 11H16C8.316 11 2 17.268 2 25c0 7.756 6.322 14 14 14h14c5.077 0 9.626-2.378 12.555-6.08a16 16 0 0 0 2.623-4.846v-.002a16 16 0 0 0 .62-2.525 2 2 0 0 0-1.66-2.291 2 2 0 0 0-2.29 1.658q-.157.975-.463 1.89v.003a12 12 0 0 1-1.967 3.63A11.96 11.96 0 0 1 30 35H16c-5.528 0-10-4.399-10-10a9.97 9.97 0 0 1 10-10h23.172l-2.586 2.586a2 2 0 0 0 0 2.828 2 2 0 0 0 2.828 0l6-6a2 2 0 0 0 .428-.639l.008-.021a2 2 0 0 0 .134-.99l-.011-.088a2 2 0 0 0-.047-.213l-.022-.067a2 2 0 0 0-.213-.46l-.021-.034a2 2 0 0 0-.143-.191l-.054-.06-.059-.065-6-6A2 2 0 0 0 38 5zM24 17a2 2 0 0 0-.42.049 2 2 0 0 0-.13.039 2 2 0 0 0-.266.092 2 2 0 0 0-.155.084 2 2 0 0 0-.209.129 2 2 0 0 0-.136.113 2 2 0 0 0-.098.08l-3 3-1.5 1.5a2 2 0 0 0 0 2.828 2 2 0 0 0 2.828 0L22 23.828V31a2 2 0 0 0 2 2 2 2 0 0 0 2-2V19a2 2 0 0 0-.006-.143 2 2 0 0 0-.015-.142 2 2 0 0 0-.024-.13l-.002-.01-.002-.007a2 2 0 0 0-.033-.13 2 2 0 0 0-.043-.131l-.002-.006-.006-.016-.049-.115a2 2 0 0 0-.058-.121l-.004-.008a2 2 0 0 0-.082-.135l-.006-.008a2 2 0 0 0-.088-.125l-.002-.002-.004-.005a2 2 0 0 0-.092-.108l-.011-.013-.057-.06-.012-.009a2 2 0 0 0-.283-.232l-.008-.006-.004-.002a2 2 0 0 0-.334-.18l-.007-.004-.012-.004a2 2 0 0 0-.354-.107l-.01-.002h-.007A2 2 0 0 0 24 17z"/></svg>