<svg xmlns="http://www.w3.org/2000/svg" width="48" height="48" viewBox="0 0 48 48"><path d="M4 3a2 2 0 0 0-2 2v26a2 2 0 0 0 2 2h40a2 2 0 0 0 2-2V5a2 2 0 0 0-2-2zm2 4h36v22H6zm15.88 5.004a2 2 0 0 0-.823.232A2 2 0 0 0 20 14v8a2 2 0 0 0 3.11 1.664l6-4a2 2 0 0 0 0-3.328l-6-4a2 2 0 0 0-1.23-.332zM24 17.736l.395.264-.395.264zM14 35c-2.029 0-3.795 1.243-4.574 3H6a2 2 0 0 0-2 2 2 2 0 0 0 2 2h3.426c.78 1.757 2.545 3 4.574 3s3.795-1.243 4.574-3H42a2 2 0 0 0 2-2 2 2 0 0 0-2-2H18.574c-.78-1.757-2.545-3-4.574-3zm0 4c.576 0 1 .424 1 1s-.424 1-1 1-1-.424-1-1 .424-1 1-1z"/></svg>