<svg xmlns="http://www.w3.org/2000/svg" width="48" height="48" viewBox="0 0 48 48"><path d="M20 2a2 2 0 0 0-2 2v6h-3c-2.735 0-5 2.265-5 5v18c0 2.735 2.265 5 5 5h7v3c0 .576-.424 1-1 1H8a2 2 0 0 0-2 2 2 2 0 0 0 2 2h13c2.738 0 5-2.262 5-5v-3h7c2.735 0 5-2.265 5-5V15c0-2.735-2.265-5-5-5h-3V4a2 2 0 0 0-2-2 2 2 0 0 0-2 2v6h-4V4a2 2 0 0 0-2-2zm-5 12h18c.589 0 1 .411 1 1v18c0 .589-.411 1-1 1H15c-.589 0-1-.411-1-1V15c0-.589.411-1 1-1zm7 8a2 2 0 0 0-2 2 2 2 0 0 0 2 2h4a2 2 0 0 0 2-2 2 2 0 0 0-2-2z"/></svg>