<svg xmlns="http://www.w3.org/2000/svg" width="48" height="48" viewBox="0 0 48 48"><path d="M26.9 3.371c-1.582.05-2.935.793-3.808 1.524-.438.366-.397.445-.682.783-.306-.109-.29-.147-.674-.242-1.228-.308-2.915-.583-4.63.275-1.865.932-2.563 2.44-2.864 3.732-.034.002-.028-.004-.062-.002-1.185.08-2.794.345-4.094 1.645C8.867 12.305 8.652 13.82 8.674 15H7a2 2 0 0 0-1.953 2.434L10.352 41.3c.166.75.29 1.355.51 1.976.219.622.61 1.339 1.24 1.844s1.411.73 2.066.809c.236.028.47.042.705.052A2 2 0 0 0 15 46h16a2 2 0 0 0 .127-.018 9 9 0 0 0 .705-.052c.655-.08 1.436-.303 2.066-.809.63-.505 1.021-1.222 1.24-1.844.22-.621.344-1.225.51-1.976l5.305-23.867A2 2 0 0 0 39 15h-1.297c.139-1.266-.04-2.782-1.103-4.2-1.245-1.659-2.73-2.25-3.928-2.525-.074-.394.004-.423-.17-.894C31.993 6 30.77 4.21 28.551 3.576a5.4 5.4 0 0 0-1.65-.205zm.047 3.98q.234-.004.504.073c.78.223 1.056.685 1.297 1.34C28.989 9.418 29 10 29 10a2 2 0 0 0 2 2s1.54.053 2.4 1.2c.282.375.218 1.145.092 1.8H12.684c-.007-.56.12-.976.23-1.086.2-.2.841-.434 1.531-.48s1.227.039 1.227.039A2 2 0 0 0 18 11.5s.326-1.926.895-2.21c.284-.143 1.099-.168 1.87.024.772.193 1.34.475 1.34.475a2 2 0 0 0 2.614-.766s.354-.57.94-1.06c.438-.368.82-.604 1.288-.611zM9.494 19h6.58l.852 23h-.717c-.77 0-1.307-.01-1.559-.041l-.013-.002-.004-.012c-.085-.239-.21-.76-.377-1.511zm10.58 0h5.852l-.852 23h-4.148zm9.852 0h6.58l-4.762 21.434c-.167.75-.292 1.272-.377 1.511l-.004.012-.013.002c-.252.03-.79.041-1.559.041h-.717z"/></svg>