<svg xmlns="http://www.w3.org/2000/svg" width="48" height="48" viewBox="0 0 48 48"><path d="M10 4C7.815 4 6 5.815 6 8v32c0 2.185 1.815 4 4 4h28c2.185 0 4-1.815 4-4V18.082l-.008.04.006-.058-.006-.107a2 2 0 0 0-.105-.523 2 2 0 0 0-.489-.858l-.04-.045L28.547 4.71A2 2 0 0 1 29.024 6v4.59L34.885 16l.088.082h-5.95V16H29V6a2 2 0 0 0-.943-1.654 2 2 0 0 1 .3.185l.192.178a2 2 0 0 0-1.537-.707 2 2 0 0 1 .334.066 2 2 0 0 0-.373-.058q-.196.013-.385.064a2 2 0 0 1 .332-.072l.053.008.039-.008L27 4Zm15.96.313a2 2 0 0 0-.61.603c.075-.117.159-.23.26-.33l-.079.057c.126-.132.274-.238.43-.33ZM20 22a2 2 0 0 1 2 2v4h4a2 2 0 0 1 0 4h-4v4a2 2 0 0 1-4 0v-4h-4a2 2 0 0 1 0-4h4v-4a2 2 0 0 1 2-2z"/></svg>