<svg xmlns="http://www.w3.org/2000/svg" width="48" height="48" viewBox="0 0 48 48"><path d="M7 5C4.815 5 3 6.815 3 9v24c0 2.185 1.815 4 4 4h34c2.185 0 4-1.815 4-4V9c0-2.185-1.815-4-4-4zm0 4h34v24H7zm7 3a2 2 0 0 0-2 2v14a2 2 0 0 0 2 2 2 2 0 0 0 2-2V14a2 2 0 0 0-2-2zm20 0a2 2 0 0 0-2 2v14a2 2 0 0 0 2 2 2 2 0 0 0 2-2V14a2 2 0 0 0-2-2zm-10 3a2 2 0 0 0-2 2v2h-2a2 2 0 0 0-2 2 2 2 0 0 0 2 2h2v2a2 2 0 0 0 2 2 2 2 0 0 0 2-2v-2h2a2 2 0 0 0 2-2 2 2 0 0 0-2-2h-2v-2a2 2 0 0 0-2-2zM4 39a2 2 0 0 0-2 2 2 2 0 0 0 2 2h40a2 2 0 0 0 2-2 2 2 0 0 0-2-2z"/></svg>