<svg xmlns="http://www.w3.org/2000/svg" width="48" height="48" viewBox="0 0 48 48"><path d="M6 4a2 2 0 0 0-1.414.586 2 2 0 0 0 0 2.828l13.258 13.258A7 7 0 0 0 17 24c0 3.842 3.158 7 7 7a7 7 0 0 0 3.328-.844l13.258 13.258a2 2 0 0 0 2.828 0 2 2 0 0 0 0-2.828l-36-36A2 2 0 0 0 6 4zm18 6a18.4 18.4 0 0 0-4.45.559 2 2 0 0 0-1.46 2.423 2 2 0 0 0 2.424 1.46A14.4 14.4 0 0 1 24 14c7.986 0 15.102 7.418 17.373 10.021-.89 1.056-2.265 2.58-4.508 4.44a2 2 0 0 0-.263 2.814 2 2 0 0 0 2.816.264c3.812-3.16 6.186-6.344 6.186-6.344a2 2 0 0 0 0-2.39S36.494 10 24 10zm-13.955 6.01a2 2 0 0 0-1.463.45c-3.812 3.16-6.186 6.345-6.186 6.345a2 2 0 0 0 0 2.39S11.506 38 24 38c1.55 0 3.053-.21 4.486-.568a2 2 0 0 0 1.453-2.426 2 2 0 0 0-2.425-1.453A14.5 14.5 0 0 1 24 34c-7.986 0-15.102-7.418-17.373-10.021.89-1.056 2.265-2.58 4.508-4.44a2 2 0 0 0 .263-2.814 2 2 0 0 0-1.353-.715zm10.963 7.826 3.156 3.156q-.081.006-.164.008c-1.68 0-3-1.32-3-3q.002-.083.008-.164z"/></svg>