<svg xmlns="http://www.w3.org/2000/svg" width="48" height="48" viewBox="0 0 48 48"><path d="M5.826 14.008a2 2 0 0 0-.75.219 2 2 0 0 0-.85 2.697c.783 1.504 1.93 2.832 3.329 3.978.132.109.271.212.408.317l-4.377 4.377a2 2 0 0 0 0 2.828 2 2 0 0 0 2.828 0l5.06-5.06a25.5 25.5 0 0 0 5.143 1.794l-1.62 6.053a2 2 0 0 0 1.413 2.45 2 2 0 0 0 2.45-1.415l1.72-6.422A34 34 0 0 0 24 26c1.157 0 2.29-.062 3.396-.174l1.72 6.418a2 2 0 0 0 2.45 1.416 2 2 0 0 0 1.414-2.451l-1.619-6.045a25.5 25.5 0 0 0 5.17-1.805l5.065 5.065a2 2 0 0 0 2.828 0 2 2 0 0 0 0-2.828l-4.381-4.381c.135-.104.272-.206.402-.313 1.4-1.146 2.546-2.474 3.328-3.978a2 2 0 0 0-.85-2.697 2 2 0 0 0-2.696.85c-.487.934-1.263 1.868-2.317 2.732C34.956 20.23 29.83 22 24 22s-10.956-1.77-13.91-4.191c-1.054-.864-1.83-1.798-2.317-2.733a2 2 0 0 0-1.171-.984 2 2 0 0 0-.776-.084z"/></svg>