<svg xmlns="http://www.w3.org/2000/svg" width="48" height="48" viewBox="0 0 48 48"><path d="M24.01 2a2 2 0 0 0-.56.08L5.44 7.336A2 2 0 0 0 4 9.256v10.773c0 12.185 7.811 23.019 19.371 26.87a2 2 0 0 0 1.264 0C36.192 43.047 44 32.214 44 20.032V9.256a2 2 0 0 0-1.44-1.92L24.57 2.08a2 2 0 0 0-.56-.08zm-.002 4.084L40 10.756v9.277c0 10.244-6.422 19.309-15.998 22.803C14.424 39.34 8 30.276 8 20.029v-9.273zm9.68 9.941a2 2 0 0 0-1.102.56L22 27.173l-5.586-5.586a2 2 0 0 0-2.828 0 2 2 0 0 0 0 2.828l7 7a2 2 0 0 0 2.828 0l12-12a2 2 0 0 0 0-2.828 2 2 0 0 0-1.727-.56z"/></svg>