<svg xmlns="http://www.w3.org/2000/svg" width="48" height="48" viewBox="0 0 48 48"><path d="M37 44a4 4 0 1 0 0-8 4 4 0 0 0 0 8z"/><path d="M37 34c-3.29 0-6 2.71-6 6s2.71 6 6 6 6-2.71 6-6-2.71-6-6-6zm0 4c1.128 0 2 .872 2 2s-.872 2-2 2-2-.872-2-2 .872-2 2-2zM11 12a4 4 0 1 0 0-8 4 4 0 0 0 0 8z"/><path d="M11 2C7.71 2 5 4.71 5 8s2.71 6 6 6 6-2.71 6-6-2.71-6-6-6zm0 4c1.128 0 2 .872 2 2s-.872 2-2 2-2-.872-2-2 .872-2 2-2Zm0 38a4 4 0 1 0 0-8 4 4 0 0 0 0 8z"/><path d="M11 34c-3.29 0-6 2.71-6 6s2.71 6 6 6 6-2.71 6-6-2.71-6-6-6zm0 4c1.128 0 2 .872 2 2s-.872 2-2 2-2-.872-2-2 .872-2 2-2z"/><path d="M11 10a2 2 0 0 0-2 2v24a2 2 0 0 0 2 2 2 2 0 0 0 2-2V12a2 2 0 0 0-2-2zm13-2a2 2 0 0 0-2 2 2 2 0 0 0 2 2h9c1.128 0 2 .872 2 2v22a2 2 0 0 0 2 2 2 2 0 0 0 2-2V14c0-3.29-2.71-6-6-6Z"/><path d="M30 2a2 2 0 0 0-1.414.586l-6 6a2 2 0 0 0 0 2.828l6 6a2 2 0 0 0 2.828 0 2 2 0 0 0 0-2.828L26.828 10l4.586-4.586a2 2 0 0 0 0-2.828A2 2 0 0 0 30 2Z"/></svg>