<svg xmlns="http://www.w3.org/2000/svg" width="48" height="48" viewBox="0 0 48 48"><path d="M17 14h14c7.202 0 13 5.798 13 13s-5.798 13-13 13H17C9.798 40 4 34.202 4 27s5.798-13 13-13Z"/><path d="M17 12C8.725 12 2 18.725 2 27s6.725 15 15 15h14c8.275 0 15-6.725 15-15s-6.725-15-15-15Zm0 4h14c6.129 0 11 4.871 11 11s-4.871 11-11 11H17c-6.129 0-11-4.871-11-11s4.871-11 11-11Z"/><path d="M24 12c-3.087 0-5.674 2.02-7.36 4.76S14 23.078 14 27s.955 7.501 2.64 10.24C18.327 39.98 20.914 42 24 42s5.674-2.02 7.36-4.76S34 30.922 34 27s-.955-7.501-2.64-10.24C29.673 14.02 27.086 12 24 12Zm0 4c1.33 0 2.743.89 3.953 2.855C29.163 20.821 30 23.743 30 27s-.837 6.179-2.047 8.145S25.331 38 24 38s-2.743-.89-3.953-2.855C18.837 33.179 18 30.257 18 27s.837-6.179 2.047-8.145S22.669 16 24 16Z"/><path d="M27 4c-2.738 0-5 2.262-5 5v5a2 2 0 0 0 2 2 2 2 0 0 0 2-2V9c0-.576.424-1 1-1h3a2 2 0 0 0 2-2 2 2 0 0 0-2-2Z"/></svg>