<svg xmlns="http://www.w3.org/2000/svg" width="48" height="48" viewBox="0 0 48 48"><path d="M27 4c-2.738 0-5 2.262-5 5v3h-5C8.725 12 2 18.725 2 27s6.725 15 15 15h14c8.275 0 15-6.725 15-15s-6.725-15-15-15h-5V9c0-.576.424-1 1-1h3a2 2 0 0 0 2-2 2 2 0 0 0-2-2zM17 16h.15q-.267.369-.51.76C14.956 19.499 14 23.078 14 27s.955 7.501 2.64 10.24q.243.391.51.76H17c-6.129 0-11-4.871-11-11s4.871-11 11-11zm7 0c1.33 0 2.743.89 3.953 2.855C29.163 20.821 30 23.743 30 27s-.837 6.179-2.047 8.145S25.331 38 24 38s-2.743-.89-3.953-2.855C18.837 33.179 18 30.257 18 27s.837-6.179 2.047-8.145S22.669 16 24 16zm6.85 0H31c6.129 0 11 4.871 11 11s-4.871 11-11 11h-.15q.267-.369.51-.76C33.044 34.501 34 30.922 34 27s-.955-7.501-2.64-10.24q-.243-.391-.51-.76z"/></svg>