<svg xmlns="http://www.w3.org/2000/svg" width="48" height="48" viewBox="0 0 48 48"><path d="M9.703 2.115q-.794.006-1.601.078-2.156.191-4.385.85a2 2 0 0 0-1.412 1.633c-1.021 7.056.624 12.956 5.062 16.83 3.74 3.264 8.593 4.314 13.99 3.287-.552 3.29-.779 7.108-.707 11.469-3.352.375-6.833 1.35-10.44 2.9a2 2 0 0 0-1.048 2.627 2 2 0 0 0 2.627 1.049c3.194-1.373 6.194-2.219 9.002-2.568q.1 1.885.262 3.892a2 2 0 0 0 2.154 1.832 2 2 0 0 0 1.832-2.156 129 129 0 0 1-.25-3.736c3.134.107 7.067.708 11.74 1.841a2 2 0 0 0 2.414-1.472 2 2 0 0 0-1.472-2.414c-4.977-1.208-9.224-1.874-12.817-1.963-.052-3.788.133-7.083.537-9.871 4.526 2.338 9.202 2.525 13.38.297 4.791-2.557 7.45-7.05 7.429-12.524a2 2 0 0 0-.975-1.709c-3.095-1.847-6.434-2.666-9.806-2.412a16.6 16.6 0 0 0-3.375.613c-2.474.716-4.536 2.22-6.186 4.373-.715-4.086-2.602-7.37-5.724-9.568-3.054-2.149-6.526-3.204-10.23-3.178zm.022 3.957c2.908-.049 5.482.787 7.906 2.492 3.234 2.276 4.643 6.045 4.224 11.952-5.028 1.32-8.783.661-11.857-2.022C6.92 15.808 5.673 12.018 6.18 6.61c.768-.175 1.553-.39 2.277-.463q.645-.064 1.268-.074zm26.62 7.73c1.874-.015 3.692.472 5.536 1.39-.28 3.59-1.83 6.004-5.193 7.798-3.263 1.74-6.454 1.518-10.264-.73 1.496-4.616 3.647-7.096 6.531-7.93q1.319-.382 2.584-.49.406-.034.807-.037z"/></svg>