<svg xmlns="http://www.w3.org/2000/svg" width="48" height="48" viewBox="0 0 48 48"><path d="M4 24V12h9v-2a6 6 0 0 1 12 0v2h9v12h4a6 6 0 0 1 0 12h-4v8H4v-8h4a6 6 0 0 0 0-12z"/><path d="M19 2c-4.395 0-8 3.605-8 8H4a2 2 0 0 0-2 2v12a2 2 0 0 0 2 2h4c2.233 0 4 1.767 4 4s-1.767 4-4 4H4a2 2 0 0 0-2 2v8a2 2 0 0 0 2 2h30a2 2 0 0 0 2-2v-6h2c4.395 0 8-3.605 8-8s-3.605-8-8-8h-2V12a2 2 0 0 0-2-2h-7c0-4.395-3.605-8-8-8Zm0 4c2.233 0 4 1.767 4 4v2a2 2 0 0 0 2 2h7v10a2 2 0 0 0 2 2h4c2.233 0 4 1.767 4 4s-1.767 4-4 4h-4a2 2 0 0 0-2 2v6H6v-4h2c4.395 0 8-3.605 8-8s-3.605-8-8-8H6v-8h7a2 2 0 0 0 2-2v-2c0-2.233 1.767-4 4-4z"/></svg>