<svg xmlns="http://www.w3.org/2000/svg" width="48" height="48" viewBox="0 0 48 48"><path d="M24 2C11.874 2 2.001 11.874 2 24v.01C2.005 36.132 11.877 46 24 46s21.995-9.868 22-21.99V24c0-12.127-9.873-22-22-22zm-2 4.111v6.059c-5.01.848-8.983 4.824-9.83 9.834l-6.059-.002A17.965 17.965 0 0 1 22 6.112zm4 0a17.964 17.964 0 0 1 15.889 15.897H35.83c-.845-5.012-4.82-8.99-9.83-9.838zm-4 10.137v5.76h-3.998l-1.756-.002A7.96 7.96 0 0 1 22 16.248zm4 0a7.96 7.96 0 0 1 5.754 5.76H26zm-19.889 9.76h6.06c.852 5.004 4.824 8.974 9.829 9.822v6.059A17.966 17.966 0 0 1 6.111 26.008zm10.139 0H22v5.744a7.96 7.96 0 0 1-5.75-5.744zm9.75 0h5.75A7.96 7.96 0 0 1 26 31.752zm9.828 0h6.059A17.964 17.964 0 0 1 26 41.888V35.83c5.005-.848 8.977-4.818 9.828-9.822z"/></svg>