<svg xmlns="http://www.w3.org/2000/svg" width="48" height="48" viewBox="0 0 48 48"><path d="M12 2a2 2 0 0 0-2 2v16a2 2 0 0 0 .059.443Q10 21.06 10 21.687v20.315C10 44.187 11.816 46 14 46h20c2.184 0 4-1.813 4-3.998V21.687C38 14.287 32.09 8 24 8c-4.027 0-7.513 1.56-10 4.037V4a2 2 0 0 0-2-2zm12 10c6.092 0 10 4.34 10 9.688V42H14V21.688C14 16.339 17.908 12 24 12zm0 5c-3.29 0-6 2.71-6 6s2.71 6 6 6 6-2.71 6-6-2.71-6-6-6zm0 4c1.128 0 2 .872 2 2s-.872 2-2 2-2-.872-2-2 .872-2 2-2zm-6 11a2 2 0 0 0-2 2 2 2 0 0 0 2 2h2a2 2 0 0 0 2-2 2 2 0 0 0-2-2zm8 4a2 2 0 0 0-2 2 2 2 0 0 0 2 2h4a2 2 0 0 0 2-2 2 2 0 0 0-2-2z"/></svg>