<svg xmlns="http://www.w3.org/2000/svg" width="48" height="48" viewBox="0 0 48 48"><path d="M6.537 17a2 2 0 0 0-1.945 2.467l5.04 21A2 2 0 0 0 11.577 42h24.848c.925 0 1.727-.634 1.943-1.533l5.041-21A2 2 0 0 0 41.463 17zM15 23h8a2 2 0 0 1 2 2 2 2 0 0 1-2 2h-8a2 2 0 0 1-2-2 2 2 0 0 1 2-2z"/><path d="M6.537 15c-2.54 0-4.483 2.464-3.89 4.934l5.04 21A4.02 4.02 0 0 0 11.578 44h24.847a4.02 4.02 0 0 0 3.889-3.066l5.04-21c.593-2.47-1.35-4.934-3.89-4.934Zm0 4h34.926l-5.04 21H11.577Z"/><path d="M11 5a2 2 0 0 0-2 2v10a2 2 0 0 0 2 2h8a2 2 0 0 0 2-2V7a2 2 0 0 0-2-2Zm2 4h4v6h-4z"/><path d="M26.668 6.377a2 2 0 0 0-2.79.451l-6.5 9a2 2 0 0 0 .45 2.793 2 2 0 0 0 2.793-.45l5.33-7.382 10.881 7.834a2 2 0 0 0 2.791-.455 2 2 0 0 0-.455-2.791z"/></svg>