<svg xmlns="http://www.w3.org/2000/svg" width="48" height="48" viewBox="0 0 48 48"><path d="M7 6c-2.181 0-4 1.819-4 4v28c0 2.181 1.819 4 4 4h34c2.181 0 4-1.819 4-4V10c0-2.181-1.819-4-4-4Zm0 4h34v28H7Z"/><path d="M13 6a2 2 0 0 0-2 2v32a2 2 0 0 0 2 2 2 2 0 0 0 2-2V8a2 2 0 0 0-2-2Zm15 9a9 9 0 0 0-9 9 9 9 0 0 0 9 9 9 9 0 0 0 9-9 9 9 0 0 0-9-9zm0 6a3 3 0 0 1 3 3 3 3 0 0 1-3 3 3 3 0 0 1-3-3 3 3 0 0 1 3-3z"/><path d="M28 13c-6.051 0-11 4.949-11 11s4.949 11 11 11 11-4.949 11-11-4.949-11-11-11zm0 4c3.89 0 7 3.11 7 7s-3.11 7-7 7-7-3.11-7-7 3.11-7 7-7zM5 14a2 2 0 0 0-2 2 2 2 0 0 0 2 2h8a2 2 0 0 0 2-2 2 2 0 0 0-2-2zm0 8a2 2 0 0 0-2 2 2 2 0 0 0 2 2h8a2 2 0 0 0 2-2 2 2 0 0 0-2-2zm0 8a2 2 0 0 0-2 2 2 2 0 0 0 2 2h8a2 2 0 0 0 2-2 2 2 0 0 0-2-2z"/></svg>