<svg xmlns="http://www.w3.org/2000/svg" width="48" height="48" viewBox="0 0 48 48"><path d="M9 4C6.265 4 4 6.265 4 9v30c0 2.735 2.265 5 5 5h30c2.735 0 5-2.265 5-5V9c0-2.735-2.265-5-5-5Zm7.896 7.418a.995.995 0 0 1 1.104.996V17a1 1 0 0 1-1 1h-4.586c-.89 0-1.337-1.077-.707-1.707l4.586-4.586a.98.98 0 0 1 .603-.289zm14.208 0a.98.98 0 0 1 .603.289l4.586 4.586c.63.63.184 1.707-.707 1.707H31a1 1 0 0 1-1-1v-4.586a.995.995 0 0 1 1.104-.996zM12.414 30H17a1 1 0 0 1 1 1v4.586c0 .89-1.077 1.337-1.707.707l-4.586-4.586c-.63-.63-.184-1.707.707-1.707ZM31 30h4.586c.89 0 1.337 1.077.707 1.707l-4.586 4.586c-.63.63-1.707.184-1.707-.707V31a1 1 0 0 1 1-1z"/></svg>