<svg xmlns="http://www.w3.org/2000/svg" width="48" height="48" viewBox="0 0 48 48"><path d="M6 3a2 2 0 0 0-2 2v32a2 2 0 0 0 2 2h16v4a2 2 0 0 0 2 2h18a2 2 0 0 0 2-2V11a2 2 0 0 0-2-2H26V5a2 2 0 0 0-2-2zm2 4h14v28H8zm18 6h14v28H26zm-13.055 2a2 2 0 0 0-1.396.625 2 2 0 0 0 .076 2.826l2.607 2.47-2.408 2.767a2 2 0 0 0 .196 2.82 2 2 0 0 0 2.822-.195l3.666-4.21a2 2 0 0 0-.133-2.765l-4-3.79a2 2 0 0 0-1.43-.548zm21.885 6.008a2 2 0 0 0-1.205.54l-4 3.79a2 2 0 0 0-.133 2.766l3.666 4.209a2 2 0 0 0 2.822.195 2 2 0 0 0 .196-2.82l-2.408-2.766 2.607-2.47a2 2 0 0 0 .076-2.827 2 2 0 0 0-1.62-.617z"/></svg>