<svg xmlns="http://www.w3.org/2000/svg" width="48" height="48" viewBox="0 0 48 48"><path d="M24 2c-2.981 0-5.82.603-8.41 1.69a22.3 22.3 0 0 0-6.914 4.59V6.675a2 2 0 0 0-.024-.285l-.007-.051a2 2 0 0 0-.174-.537l-.03-.06a2 2 0 0 0-.328-.454l-.05-.05a2 2 0 0 0-.454-.329l-.06-.03a2 2 0 0 0-.537-.173l-.051-.008a2 2 0 0 0-.285-.023 2 2 0 0 0-.697.138 2 2 0 0 0-.202.104 2 2 0 0 0-.41.273 2 2 0 0 0-.176.176 2 2 0 0 0-.273.41 2 2 0 0 0-.104.202 2 2 0 0 0-.138.697V14a2 2 0 0 0 .717 1.363 2 2 0 0 0 .117.155 2 2 0 0 0 .164.212 2 2 0 0 0 .517.069 2 2 0 0 0 .485.201H14a2 2 0 0 0 .697-.139 2 2 0 0 0 .201-.103 2 2 0 0 0 .41-.274 2 2 0 0 0 .176-.175 2 2 0 0 0 .274-.41 2 2 0 0 0 .103-.202A2 2 0 0 0 16 14a2 2 0 0 0-.023-.285l-.008-.05a2 2 0 0 0-.174-.538l-.03-.06a2 2 0 0 0-.328-.454l-.05-.05a2 2 0 0 0-.453-.329l-.061-.029a2 2 0 0 0-.537-.174l-.05-.008A2 2 0 0 0 14 12h-3.299C13.992 8.352 18.685 6 24 6a2 2 0 0 0 .697-.139 2 2 0 0 0 .201-.103 2 2 0 0 0 .41-.274 2 2 0 0 0 .176-.175 2 2 0 0 0 .274-.41 2 2 0 0 0 .103-.202A2 2 0 0 0 26 4a2 2 0 0 0-.023-.285l-.008-.05a2 2 0 0 0-.174-.538l-.03-.06a2 2 0 0 0-.328-.454l-.05-.05a2 2 0 0 0-.453-.329l-.061-.029a2 2 0 0 0-.537-.174l-.05-.008A2 2 0 0 0 24 2zm10 2.676a2 2 0 0 0-.25.103 2 2 0 0 0-.68.282 2 2 0 0 0-.588.449 2 2 0 0 0-.212.164 2 2 0 0 0-.069.515v.002a2 2 0 0 0-.201.485V14a2 2 0 0 0 .139.697 2 2 0 0 0 .103.201 2 2 0 0 0 .274.41 2 2 0 0 0 .175.176 2 2 0 0 0 .41.274 2 2 0 0 0 .202.103A2 2 0 0 0 34 16a2 2 0 0 0 .697-.139 2 2 0 0 0 .201-.103 2 2 0 0 0 .41-.274 2 2 0 0 0 .176-.175 2 2 0 0 0 .274-.41 2 2 0 0 0 .103-.202A2 2 0 0 0 36 14v-3.299c2.508 2.263 4.404 5.187 5.344 8.522A17.5 17.5 0 0 1 42 24a2 2 0 0 0 .139.697 2 2 0 0 0 .103.201 2 2 0 0 0 .274.41 2 2 0 0 0 .175.176 2 2 0 0 0 .41.274 2 2 0 0 0 .202.103A2 2 0 0 0 44 26a2 2 0 0 0 .697-.139 2 2 0 0 0 .201-.103 2 2 0 0 0 .41-.274 2 2 0 0 0 .176-.175 2 2 0 0 0 .274-.41 2 2 0 0 0 .103-.202A2 2 0 0 0 46 24a22 22 0 0 0-.111-2.207 22 22 0 0 0-.856-4.217 22 22 0 0 0-.722-1.986 22.3 22.3 0 0 0-4.59-6.914h1.603a2 2 0 0 0 .285-.024l.051-.007a2 2 0 0 0 .281-.067 2 2 0 0 0 .256-.107l.06-.03a2 2 0 0 0 .243-.148 2 2 0 0 0 .21-.18l.052-.05a2 2 0 0 0 .18-.211 2 2 0 0 0 .148-.243l.03-.06a2 2 0 0 0 .107-.256 2 2 0 0 0 .066-.281l.008-.051a2 2 0 0 0 .023-.285 2 2 0 0 0-.023-.285l-.008-.051a2 2 0 0 0-.066-.281 2 2 0 0 0-.108-.256l-.03-.06a2 2 0 0 0-.148-.243 2 2 0 0 0-.18-.21l-.05-.052a2 2 0 0 0-.211-.18 2 2 0 0 0-.242-.148l-.06-.03a2 2 0 0 0-.257-.107 2 2 0 0 0-.28-.066l-.052-.008a2 2 0 0 0-.285-.023zM4 22a2 2 0 0 0-.697.139 2 2 0 0 0-.201.103 2 2 0 0 0-.41.274 2 2 0 0 0-.176.175 2 2 0 0 0-.274.41 2 2 0 0 0-.103.202A2 2 0 0 0 2 24c0 2.981.603 5.82 1.69 8.41a22.2 22.2 0 0 0 4.59 6.914H6.675a2 2 0 0 0-.697.139 2 2 0 0 0-.202.103 2 2 0 0 0-.41.274 2 2 0 0 0-.176.176 2 2 0 0 0-.273.41 2 2 0 0 0-.104.201 2 2 0 0 0-.138.697 2 2 0 0 0 .138.697 2 2 0 0 0 .104.202 2 2 0 0 0 .273.41 2 2 0 0 0 .176.176 2 2 0 0 0 .41.273 2 2 0 0 0 .202.104 2 2 0 0 0 .697.138H14a2 2 0 0 0 1.414-.586 2 2 0 0 0 .152-.369 2 2 0 0 0 .164-.043 2 2 0 0 0 .24-.93l.03-.072V34a2 2 0 0 0-.023-.285l-.008-.05a2 2 0 0 0-.174-.538l-.03-.06a2 2 0 0 0-.328-.454l-.05-.05a2 2 0 0 0-.453-.329l-.061-.029a2 2 0 0 0-.537-.174l-.05-.008A2 2 0 0 0 14 32a2 2 0 0 0-.697.139 2 2 0 0 0-.201.103 2 2 0 0 0-.41.274 2 2 0 0 0-.176.175 2 2 0 0 0-.274.41 2 2 0 0 0-.103.202A2 2 0 0 0 12 34v3.299C8.352 34.008 6 29.315 6 24a2 2 0 0 0-.023-.285l-.008-.05a2 2 0 0 0-.174-.538l-.03-.06a2 2 0 0 0-.327-.454l-.051-.05a2 2 0 0 0-.453-.329l-.061-.029a2 2 0 0 0-.537-.174l-.05-.008A2 2 0 0 0 4 22zm30 10a2 2 0 0 0-.697.139 2 2 0 0 0-.201.103 2 2 0 0 0-.41.274 2 2 0 0 0-.176.175 2 2 0 0 0-.274.41 2 2 0 0 0-.103.202A2 2 0 0 0 32 34a2 2 0 0 0 .139.697 2 2 0 0 0 .103.201 2 2 0 0 0 .274.41 2 2 0 0 0 .175.176 2 2 0 0 0 .41.274 2 2 0 0 0 .202.103A2 2 0 0 0 34 36h3.299c-3.291 3.648-7.984 6-13.299 6a2 2 0 0 0-.697.139 2 2 0 0 0-.201.103 2 2 0 0 0-.41.274 2 2 0 0 0-.176.175 2 2 0 0 0-.274.41 2 2 0 0 0-.103.202A2 2 0 0 0 22 44a2 2 0 0 0 .139.697 2 2 0 0 0 .103.201 2 2 0 0 0 .274.41 2 2 0 0 0 .175.176 2 2 0 0 0 .41.274 2 2 0 0 0 .202.103A2 2 0 0 0 24 46c2.981 0 5.82-.603 8.41-1.69a22.3 22.3 0 0 0 6.914-4.59v1.604a2 2 0 0 0 .139.697 2 2 0 0 0 .103.202 2 2 0 0 0 .274.41 2 2 0 0 0 .176.176 2 2 0 0 0 .41.273 2 2 0 0 0 .201.104 2 2 0 0 0 .697.138 2 2 0 0 0 .697-.138 2 2 0 0 0 .202-.104 2 2 0 0 0 .41-.273 2 2 0 0 0 .176-.176 2 2 0 0 0 .273-.41 2 2 0 0 0 .104-.202 2 2 0 0 0 .138-.697V34a2 2 0 0 0-.05-.26 2 2 0 0 0-.077-.373 2 2 0 0 0-.025-.133 2 2 0 0 0-.145-.216 2 2 0 0 0-.216-.323 2 2 0 0 0-.073-.11 2 2 0 0 0-.215-.144 2 2 0 0 0-.197-.171l-.043.011a2 2 0 0 0-.193-.129 2 2 0 0 0-.188-.037 2 2 0 0 0-.578-.115z"/></svg>