<svg xmlns="http://www.w3.org/2000/svg" width="48" height="48" viewBox="0 0 48 48"><path d="M43.72 6.02c-3.881.548-9.789 3.06-15.878 8.882-4.936 4.72-11.219 6.9-13.94 7.098H4a2 2 0 0 0-2 2 2 2 0 0 0 2 2h9.834c2.721.42 8.082 2.555 13.56 7.793 5.687 5.436 12.307 7.922 16.471 8.203a2 2 0 0 0 2.131-1.861 2 2 0 0 0-1.861-2.131c-2.702-.183-9.02-2.362-13.977-7.102-3.236-3.094-6.418-5.245-9.275-6.672 3.144-1.327 6.576-3.428 9.722-6.437 5.553-5.309 10.989-7.433 13.674-7.813a2 2 0 0 0 1.701-2.26 2 2 0 0 0-2.26-1.7z"/></svg>