<svg xmlns="http://www.w3.org/2000/svg" width="48" height="48" viewBox="0 0 48 48"><path d="M24 2c-3.09 0-5.637 2.548-5.637 5.637s2.548 5.636 5.637 5.636c3.09 0 5.637-2.547 5.637-5.636S27.089 2 24 2zm0 4c.928 0 1.637.71 1.637 1.637S24.927 9.273 24 9.273s-1.637-.709-1.637-1.636C22.363 6.709 23.073 6 24 6zm-8.684 2.16a2 2 0 0 0-1.119.309 18.44 18.44 0 0 0-5.726 5.728 2 2 0 0 0 .62 2.76 2 2 0 0 0 2.759-.621 14.5 14.5 0 0 1 4.486-4.486 2 2 0 0 0 .621-2.76 2 2 0 0 0-1.252-.881 2 2 0 0 0-.389-.049zm17.368 0a2 2 0 0 0-.39.049 2 2 0 0 0-1.25.88 2 2 0 0 0 .622 2.76 14.5 14.5 0 0 1 4.484 4.487 2 2 0 0 0 2.76.621 2 2 0 0 0 .621-2.76 18.45 18.45 0 0 0-5.728-5.728 2 2 0 0 0-1.12-.309zM7.637 18.363C4.547 18.363 2 20.911 2 24c0 3.09 2.548 5.637 5.637 5.637s5.636-2.548 5.636-5.637c0-3.09-2.547-5.637-5.636-5.637zm32.726 0c-3.089 0-5.636 2.548-5.636 5.637 0 3.09 2.547 5.637 5.636 5.637S46 27.089 46 24c0-3.09-2.548-5.637-5.637-5.637zm-32.726 4c.927 0 1.636.71 1.636 1.637s-.709 1.637-1.636 1.637C6.709 25.637 6 24.927 6 24s.71-1.637 1.637-1.637zm32.726 0c.928 0 1.637.71 1.637 1.637s-.71 1.637-1.637 1.637-1.636-.71-1.636-1.637.709-1.637 1.636-1.637zm-30.152 8.371a2 2 0 0 0-1.12.309 2 2 0 0 0-.62 2.76 18.44 18.44 0 0 0 5.726 5.728 2 2 0 0 0 2.76-.62 2 2 0 0 0-.621-2.76 14.5 14.5 0 0 1-4.486-4.487 2 2 0 0 0-1.25-.88 2 2 0 0 0-.39-.05zm27.578 0a2 2 0 0 0-.389.05 2 2 0 0 0-1.25.88 14.5 14.5 0 0 1-4.484 4.486 2 2 0 0 0-.621 2.76 2 2 0 0 0 2.758.621 18.45 18.45 0 0 0 5.728-5.728 2 2 0 0 0-.62-2.76 2 2 0 0 0-1.122-.309zM24 34.727c-3.09 0-5.637 2.547-5.637 5.636S20.911 46 24 46c3.09 0 5.637-2.548 5.637-5.637S27.089 34.727 24 34.727zm0 4c.928 0 1.637.709 1.637 1.636 0 .928-.71 1.637-1.637 1.637s-1.637-.71-1.637-1.637.71-1.636 1.637-1.636z"/></svg>