<svg xmlns="http://www.w3.org/2000/svg" width="48" height="48" viewBox="0 0 48 48"><path d="M33.904 8.414a34 34 0 0 0-1.959-.512c.674.157 1.326.327 1.944.51zM20.457 7.18q-.224.021-.445.047A3.964 3.964 0 0 0 24 11a3.964 3.964 0 0 0 3.988-3.773q-.195-.022-.392-.041-.295-.032-.594-.059-.467-.037-.947-.063c-.183-.01-.362-.023-.547-.03Q24.768 7 24 7q-.768.002-1.51.033c-.173.007-.342.02-.513.03-.335.018-.67.039-.997.066q-.263.024-.523.05zm-4.955.847q.273-.066.553-.129l-.002-.003q-.28.064-.551.132z"/><path d="M14.064 8.412c-3.575 1.054-6.2 2.47-7.724 3.43L8.488 19H12c2.18 0 4 1.81 4 3.996v10.006c0 .012.17.277.486.361 1.584.42 3.736 1.364 5.178 3.528A13.5 13.5 0 0 1 23.742 42h.516a13.5 13.5 0 0 1 2.078-5.11c1.442-2.163 3.594-3.106 5.178-3.527a.84.84 0 0 0 .486-.361V22.996C32 20.811 33.82 19 36 19h3.512l2.138-7.133a32 32 0 0 0-7.746-3.453l-.015-.002a34 34 0 0 0-1.944-.51C31.492 11.877 28.09 15 24 15s-7.494-3.125-7.945-7.102q-.28.063-.553.13c-.096.023-.196.045-.291.07q-.588.15-1.147.314z"/><path d="M11.611 7.113c-2.897 1.033-5.082 2.234-6.44 3.094-.717.455-1.007 1.337-.763 2.15l2.164 7.217A2 2 0 0 0 8.488 21H12c1.105 0 2 .891 2 1.996v10.006c0 1.105.905 2.011 1.973 2.295 1.299.345 2.952 1.09 4.027 2.703 2 3 2 6 2 6h4s0-3 2-6c1.075-1.613 2.728-2.358 4.027-2.703 1.068-.284 1.973-1.19 1.973-2.295V22.996c0-1.105.895-1.996 2-1.996h3.512a2 2 0 0 0 1.916-1.426l2.146-7.156c.253-.842-.066-1.758-.814-2.22a34 34 0 0 0-6.414-3.08 2 2 0 0 1-2.442 1.296 32 32 0 0 1 7.746 3.453L39.512 19H36c-2.18 0-4 1.81-4 3.996v10.006a.84.84 0 0 1-.486.361c-1.584.42-3.736 1.364-5.178 3.528A13.5 13.5 0 0 0 24.258 42h-.516a13.5 13.5 0 0 0-2.078-5.11c-1.442-2.163-3.594-3.106-5.178-3.527a.84.84 0 0 1-.486-.361V22.996C16 20.811 14.18 19 12 19H8.488L6.34 11.842c1.525-.96 4.149-2.376 7.724-3.43a2 2 0 0 1-2.453-1.299Z"/><path d="M12.926 4.58C8.866 5.777 5.864 7.4 4.102 8.518c-1.5.95-2.094 2.801-1.61 4.416l2.164 7.214A4.02 4.02 0 0 0 8.488 23H12v10.002c0 2.197 1.64 3.746 3.459 4.228 1.015.27 2.169.817 2.877 1.88C19.995 41.596 20 44 20 44a2 2 0 0 0 2 2h4a2 2 0 0 0 2-2s.005-2.403 1.664-4.89c.708-1.063 1.862-1.61 2.877-1.88C34.361 36.748 36 35.2 36 33.002V23h3.512a4.02 4.02 0 0 0 3.832-2.852l2.146-7.156c.501-1.67-.146-3.547-1.68-4.496a36.3 36.3 0 0 0-8.734-3.9 2 2 0 0 1 1.299 2.467l-.03.054a34 34 0 0 1 6.415 3.08c.748.463 1.067 1.379.814 2.221l-2.146 7.156A2 2 0 0 1 39.512 21H36c-1.105 0-2 .891-2 1.996v10.006c0 1.105-.905 2.011-1.973 2.295-1.299.345-2.952 1.09-4.027 2.703-2 3-2 6-2 6h-4s0-3-2-6c-1.075-1.613-2.728-2.358-4.027-2.703-1.068-.284-1.973-1.19-1.973-2.295V22.996A1.997 1.997 0 0 0 12 21H8.488a2 2 0 0 1-1.916-1.426l-2.164-7.217c-.244-.813.046-1.695.764-2.15 1.357-.86 3.542-2.06 6.44-3.094l-.03-.054a2 2 0 0 1 1.344-2.479zm22.15.016-.05-.02a38 38 0 0 0-2.669-.681c.954.208 1.86.445 2.72.7z"/><path d="M20.16 5.2a2 2 0 0 0-1.473-1.638 2 2 0 0 0-2.435 1.44 8 8 0 0 0-.164.834c1.27-.274 2.634-.49 4.072-.637zm11.752.64q.086.57.088 1.16-.001.458-.055.902c.68.158 1.337.327 1.96.512a2 2 0 0 0 2.44-1.297 35 35 0 0 0-4.433-1.277Zm-4.074-.639c1.442.147 2.806.363 4.074.639a8 8 0 0 0-.164-.838 2 2 0 0 0-2.436-1.44 2 2 0 0 0-1.474 1.64Z"/><path d="M27.99 7.223q.175.02.348.043a35 35 0 0 1 3.338.572l.27.064A8 8 0 0 0 32 7c0-.393-.032-.78-.088-1.16a37 37 0 0 0-4.074-.639 2 2 0 0 0 .037.797Q27.999 6.476 28 7q-.002.112-.01.223z"/><path d="M20.01 7.223c.146-.017.298-.029.447-.043q.26-.027.523-.051.492-.04.997-.066c.17-.01.34-.023.513-.03Q23.231 7.002 24 7q.768.002 1.508.033c.185.008.364.021.547.031.319.019.636.037.947.063q.298.027.594.059c.13.013.265.022.394.037Q27.998 7.11 28 7q-.001-.525-.125-1.002a2 2 0 0 1-.037-.797A38 38 0 0 0 24 5c-1.34 0-2.616.075-3.84.2a2 2 0 0 1-.035.798A4 4 0 0 0 20 7q.002.112.01.223z"/><path d="M16.053 7.895q.183-.042.369-.082a35 35 0 0 1 1.258-.25q.268-.048.543-.092a35 35 0 0 1 1.384-.2q.2-.025.403-.048Q20.002 7.11 20 7q.001-.525.125-1.002a2 2 0 0 0 .035-.799 37 37 0 0 0-4.072.637Q16.002 6.408 16 7q.002.453.053.895z"/><path d="M11.611 7.113a2 2 0 0 0 2.453 1.3q.559-.165 1.147-.315c.095-.025.195-.047.291-.07q.272-.069.55-.133A8 8 0 0 1 16 7c0-.395.032-.783.088-1.164a36 36 0 0 0-4.477 1.277ZM14.2 4.227q-.648.165-1.264.347l-.01.006q.62-.184 1.273-.353z"/><path d="M24 3q-.888 0-1.744.04c-.118.004-.231.013-.348.019q-.644.032-1.27.086-.301.025-.599.056-.48.047-.951.104a39 39 0 0 0-1.588.232q-.266.043-.527.088-.503.091-.99.193-.225.045-.446.092-1.37.302-2.611.67a2 2 0 0 0-1.344 2.479l.03.054a36 36 0 0 1 4.476-1.277q.06-.425.164-.834a2 2 0 0 1 2.436-1.44A2 2 0 0 1 20.16 5.2c1.224-.125 2.5-.2 3.84-.2 1.342 0 2.617.077 3.838.201a2 2 0 0 1 1.474-1.638 2 2 0 0 1 2.436 1.439q.104.412.164.838c1.63.355 3.103.8 4.434 1.277l.029-.054a2 2 0 0 0-1.299-2.467 38 38 0 0 0-2.719-.701L32.2 3.86a38 38 0 0 0-1.263-.248l-.346-.058a39 39 0 0 0-2.711-.362q-.253-.026-.508-.048-.58-.048-1.178-.079-.246-.015-.496-.027A43 43 0 0 0 24 3Z"/></svg>