<svg xmlns="http://www.w3.org/2000/svg" width="48" height="48" viewBox="0 0 48 48"><path d="M17.55 2.426a9 9 0 0 0-3.337.736C9.709 5.092 7.648 9.96 6.455 14.068s-1.45 7.79-1.45 7.79A2 2 0 0 0 5 22v7H4a2 2 0 0 0-2 2 2 2 0 0 0 2 2h1v7a2 2 0 0 0 2 2 2 2 0 0 0 2-2v-7h1a2 2 0 0 0 2-2 2 2 0 0 0-2-2H9v-6.906c.006-.076.25-3.31 1.295-6.91 1.057-3.642 2.996-7.276 5.492-8.346 1.658-.71 3.405-.453 5.11.455C17.97 10.643 16 15.214 16 20c0 2.767.521 5.35 1.797 7.424C19.073 29.497 21.333 31 24 31s4.927-1.503 6.203-3.576S32 22.767 32 20c0-4.786-1.97-9.357-4.896-12.707 1.704-.908 3.451-1.166 5.109-.455 2.496 1.07 4.435 4.704 5.492 8.346 1.045 3.6 1.29 6.834 1.295 6.91V29h-1a2 2 0 0 0-2 2 2 2 0 0 0 2 2h1v7a2 2 0 0 0 2 2 2 2 0 0 0 2-2v-7h1a2 2 0 0 0 2-2 2 2 0 0 0-2-2h-1v-7a2 2 0 0 0-.006-.143s-.256-3.68-1.45-7.789c-1.192-4.108-3.253-8.976-7.757-10.906-3.36-1.44-6.867-.638-9.787 1.31-1.96-1.307-4.18-2.106-6.45-2.046zM24 9.79c2.326 2.62 4 6.481 4 10.209 0 2.233-.479 4.15-1.203 5.326C26.073 26.503 25.333 27 24 27s-2.073-.497-2.797-1.674C20.48 24.15 20 22.233 20 20c0-3.728 1.674-7.59 4-10.209z"/></svg>