<svg xmlns="http://www.w3.org/2000/svg" width="48" height="48" viewBox="0 0 48 48"><path d="M24 13c-5.793 0-11.054 1.149-15.037 3.14S2 21.159 2 25s2.98 6.868 6.963 8.86c2.903 1.45 6.487 2.452 10.459 2.89l-.836.836a2 2 0 0 0 0 2.828 2 2 0 0 0 2.828 0l4-4a2 2 0 0 0 .434-.648A2 2 0 0 0 26 35a2 2 0 0 0-.016-.242l-.01-.069v-.002a2 2 0 0 0-.048-.22l-.014-.051a2 2 0 0 0-.09-.238l-.004-.008-.006-.01a2 2 0 0 0-.125-.23l-.005-.012-.016-.022a2 2 0 0 0-.145-.195l-.01-.012-.017-.017-.08-.086-4-4A2 2 0 0 0 20 29a2 2 0 0 0-1.414.586 2 2 0 0 0 0 2.828l.21.211c-3.134-.45-5.91-1.277-8.044-2.344C7.497 28.654 6 26.681 6 25s1.497-3.654 4.752-5.281C14.007 18.09 18.747 17 24 17s9.993 1.091 13.248 2.719S42 23.319 42 25c0 1.248-.75 2.594-2.55 3.943-1.801 1.35-4.561 2.547-7.878 3.272a2 2 0 0 0-1.525 2.38 2 2 0 0 0 2.38 1.526c3.748-.818 6.987-2.155 9.42-3.978C44.282 30.319 46 27.853 46 25c0-3.842-2.98-6.868-6.963-8.86S29.793 13 24 13z"/></svg>