<svg xmlns="http://www.w3.org/2000/svg" width="48" height="48" viewBox="0 0 48 48"><path d="M24 2a2 2 0 0 0-2 2 2 2 0 0 0 2 2c5.315 0 10.008 2.352 13.299 6H34a2 2 0 0 0-2 2 2 2 0 0 0 2 2h7.324a2 2 0 0 0 .787-.326 2 2 0 0 0 .215.056 2 2 0 0 0 .315-.275l.097-.04.03-.071a2 2 0 0 0 .515-1.244l.041-.1V6.676a2 2 0 0 0-2-2 2 2 0 0 0-2 2v1.603C35.356 4.414 29.963 2 24 2zM6.676 4.676a2 2 0 0 0-2 2 2 2 0 0 0 2 2h1.603C4.414 12.644 2 18.037 2 24a2 2 0 0 0 2 2 2 2 0 0 0 2-2c0-5.315 2.352-10.008 6-13.299V14a2 2 0 0 0 2 2 2 2 0 0 0 2-2V6.676a2 2 0 0 0-.025-.131 2 2 0 0 0-.077-.379 2 2 0 0 0-.125-.367 2 2 0 0 0-.043-.125l-.084-.065a2 2 0 0 0-.232-.347 2 2 0 0 0-.838-.471 2 2 0 0 0-.164-.033A2 2 0 0 0 14 4.676zM44 22a2 2 0 0 0-2 2c0 5.315-2.352 10.008-6 13.299V34a2 2 0 0 0-2-2 2 2 0 0 0-2 2v7.324a2 2 0 0 0 .326.787 2 2 0 0 0-.056.215 2 2 0 0 0 .164.043 2 2 0 0 0 1.566.955h7.324a2 2 0 0 0 2-2 2 2 0 0 0-2-2h-1.603C43.586 35.356 46 29.963 46 24a2 2 0 0 0-2-2zM6.676 32a2 2 0 0 0-.485.201 2 2 0 0 0-.517.069 2 2 0 0 0-.164.212 2 2 0 0 0-.45.588 2 2 0 0 0-.28.68 2 2 0 0 0-.104.25v7.324a2 2 0 0 0 2 2 2 2 0 0 0 2-2v-1.603C12.644 43.586 18.037 46 24 46a2 2 0 0 0 2-2 2 2 0 0 0-2-2c-5.315 0-10.008-2.352-13.299-6H14a2 2 0 0 0 2-2 2 2 0 0 0-2-2z"/></svg>