<svg xmlns="http://www.w3.org/2000/svg" width="48" height="48" viewBox="0 0 48 48"><path d="M24 2a2 2 0 0 0-2 2 2 2 0 0 0 2 2c9.965 0 18 8.035 18 18s-8.035 18-18 18a18 18 0 0 1-1.797-.088 2 2 0 0 0-2.19 1.791 2 2 0 0 0 1.792 2.188Q22.903 46 24 46c12.127 0 22-9.873 22-22S36.127 2 24 2zm-4.492.602a2 2 0 0 0-.78.035q-1.069.262-2.109.633a2 2 0 0 0-1.21 2.556 2 2 0 0 0 2.556 1.211 18 18 0 0 1 1.719-.516 2 2 0 0 0 1.464-2.42 2 2 0 0 0-1.64-1.5zM12.308 6a2 2 0 0 0-1.482.379q-.88.658-1.693 1.404a2 2 0 0 0-.12 2.826 2 2 0 0 0 2.827.12q.661-.607 1.385-1.149a2 2 0 0 0 .4-2.799A2 2 0 0 0 12.309 6zm-5.302 5.926a2 2 0 0 0-.78.045 2 2 0 0 0-1.22.924 22 22 0 0 0-1.018 1.955 2 2 0 0 0 .989 2.65 2 2 0 0 0 2.65-.988 18 18 0 0 1 .828-1.592 2 2 0 0 0-.713-2.738 2 2 0 0 0-.736-.256zm-2.576 7.52a2 2 0 0 0-2.248 1.716l-.004.026-.002.013a22 22 0 0 0-.166 2.164 2 2 0 0 0 1.943 2.055 2 2 0 0 0 2.055-1.945q.023-.88.135-1.758l.002-.012.001-.014a2 2 0 0 0-1.716-2.246zm.54 7.925a2 2 0 0 0-.777.057 2 2 0 0 0-1.396 2.459q.294 1.064.695 2.092a2 2 0 0 0 2.59 1.136 2 2 0 0 0 1.137-2.59 18 18 0 0 1-.567-1.703 2 2 0 0 0-1.681-1.45zm3.594 7.076a2 2 0 0 0-1.472.42 2 2 0 0 0-.324 2.81q.685.865 1.453 1.653a2 2 0 0 0 2.828.04 2 2 0 0 0 .039-2.829 18 18 0 0 1-1.186-1.35 2 2 0 0 0-1.338-.744zm6.065 5.121a2 2 0 0 0-1.97 1.026 2 2 0 0 0 .79 2.715q.969.53 1.983.959a2 2 0 0 0 2.62-1.061 2 2 0 0 0-1.062-2.623 18 18 0 0 1-1.617-.781 2 2 0 0 0-.744-.235z"/></svg>