<svg xmlns="http://www.w3.org/2000/svg" width="48" height="48" viewBox="0 0 48 48"><path d="M30.02 4c-3.843 0-7 3.158-7 7s3.157 7 7 7 7-3.158 7-7-3.158-7-7-7zm0 4c1.68 0 3 1.32 3 3s-1.32 3-3 3c-1.681 0-3-1.32-3-3s1.319-3 3-3zm-9.418 10.04a2 2 0 0 0-1.317.93L7.867 38H4a2 2 0 0 0-2 2 2 2 0 0 0 2 2h29.805l-.567 1.053a2 2 0 0 0 .815 2.709 2 2 0 0 0 2.709-.815L38.35 42H44a2 2 0 0 0 2-2 2 2 0 0 0-2-2h-3.498l3.26-6.053a2 2 0 0 0-.815-2.709 2 2 0 0 0-1.521-.154 2 2 0 0 0-1.188.969L35.96 38h-2.762l-5.441-9.959a2 2 0 0 0-2.842-.72l-9.766 6.318 6.829-11.38 21.597 4.696a2 2 0 0 0 2.381-1.53 2 2 0 0 0-1.53-2.38l-23-5a2 2 0 0 0-.823-.006zm4.675 13.81 3.36 6.15H15.773z"/></svg>