<svg xmlns="http://www.w3.org/2000/svg" width="48" height="48" viewBox="0 0 48 48"><path d="M34 2a2 2 0 0 0-1.414.586l-3.75 3.75-1.25 1.25-2.5 2.5-7.5 7.5-7.5 7.5-3.75 3.75-3.75 3.75a2 2 0 0 0 0 2.828l10 10a2 2 0 0 0 2.828 0l30-30a2 2 0 0 0 0-2.828l-10-10A2 2 0 0 0 34 2zm0 4.828L41.172 14 14 41.172 6.828 34 9 31.828l2.586 2.586a2 2 0 0 0 2.828 0 2 2 0 0 0 0-2.828L11.828 29l1.086-1.086L14 26.828l4.586 4.586a2 2 0 0 0 2.828 0 2 2 0 0 0 0-2.828L16.828 24 19 21.828l2.586 2.586a2 2 0 0 0 2.828 0 2 2 0 0 0 0-2.828L21.828 19 24 16.828l4.586 4.586a2 2 0 0 0 2.828 0 2 2 0 0 0 0-2.828L26.828 14l1.086-1.086L29 11.828l2.586 2.586a2 2 0 0 0 2.828 0 2 2 0 0 0 0-2.828L31.828 9z"/></svg>