<svg xmlns="http://www.w3.org/2000/svg" width="48" height="48" viewBox="0 0 48 48"><path d="M21 3a2 2 0 0 0-.385.076 2 2 0 0 0-.351.069 2 2 0 0 0-.326.205 2 2 0 0 0-.325.21 2 2 0 0 0-.441.628l-16 36a2 2 0 0 0-.172.767 2 2 0 0 0 .037.207 2 2 0 0 0 .102.567 2 2 0 0 0 .127.2 2 2 0 0 0 .297.46 2 2 0 0 0 .255.18 2 2 0 0 0 .37.26l.021.003a2 2 0 0 0 .316.072 2 2 0 0 0 .452.092L5 43h17.662a2 2 0 0 0 .137-.027A2 2 0 0 0 23 43h20a2 2 0 0 0 2-2 2 2 0 0 0-2-2H25.744l14.8-33.186A2 2 0 0 0 38.72 3zm1.3 4h13.337L21.363 39H8.078l3.162-7.117h6.746a2 2 0 0 0 2-2 2 2 0 0 0-2-2H13.02l1.515-3.412h6.758a2 2 0 0 0 2-2 2 2 0 0 0-2-2h-4.98l1.72-3.871h6.77a2 2 0 0 0 2-2 2 2 0 0 0-2-2h-4.99z"/></svg>