<svg xmlns="http://www.w3.org/2000/svg" width="48" height="48" viewBox="0 0 48 48"><path d="m25.744 39-1.256 2.814a2 2 0 0 1-1.656 1.153A2 2 0 0 0 23 43h20a2 2 0 0 0 2-2 2 2 0 0 0-2-2zM22.3 7l-2.488 5.6h4.99a2 2 0 0 1 2 2 2 2 0 0 1-2 2h-6.769l-1.72 3.87h4.98a2 2 0 0 1 2 2 2 2 0 0 1-2 2h-6.758l-1.515 3.413h4.966a2 2 0 0 1 2 2 2 2 0 0 1-2 2h-6.744L8.078 39h13.285L35.637 7Z"/><path d="M21 41a2 2 0 0 0 1.832 1.967 2 2 0 0 0 1.656-1.153L25.744 39h-2.19l-.892 2z"/><path d="M21 41h1.662l.893-2H23a2 2 0 0 0-2 2zM7.19 41l-.362.813a2 2 0 0 1-1.851 1.183L5 43h17.662a2 2 0 0 0 .17-.033A2 2 0 0 1 21 41Z"/><path d="M22.996 5a2 2 0 0 1-.168.813L22.301 7h13.336L21.363 39H8.078l-.889 2H21a2 2 0 0 1 2-2h.555L38.719 5Z"/><path d="M21.05 3a2 2 0 0 1 .762.172A2 2 0 0 1 22.997 5H38.72L23.555 39h2.19l14.8-33.186A2 2 0 0 0 38.719 3Zm-8.616 21.275 1.691-3.804h-.861a2 2 0 0 0-2 2 2 2 0 0 0 1.17 1.804zm-3.297 7.418 1.693-3.81h-.87a2 2 0 0 0-2 2 2 2 0 0 0 1.178 1.81zM4.209 42.832a2 2 0 0 1-.39-.264 2 2 0 0 0 .369.26zm7.031-10.949H9.96a2 2 0 0 1-.822-.19L5 41h2.19z"/><path d="M13.02 27.883h-2.19l-1.693 3.81a2 2 0 0 0 .822.19h1.281zm1.515-3.413h-1.271a2 2 0 0 1-.83-.195l-1.604 3.608h2.19z"/><path d="M16.313 20.47h-2.188l-1.691 3.805a2 2 0 0 0 .83.196h1.271zm-.379-4.072 1.689-3.798h-.85a2 2 0 0 0-2 2 2 2 0 0 0 1.16 1.798z"/><path d="m18.033 16.6 1.778-4h-2.188l-1.69 3.798a2 2 0 0 0 .84.202z"/><path d="M18.033 16.6h-1.26a2 2 0 0 1-.84-.202l-1.808 4.073h2.188zM22.3 7zl-2.488 5.6zm.696-2H21l-3.377 7.6h2.188L22.299 7h.002l.527-1.187A2 2 0 0 0 22.996 5Z"/><path d="M21.05 3a2 2 0 0 0-.435.076 2 2 0 0 0-.351.069 2 2 0 0 0-.326.205 2 2 0 0 0-.325.21 2 2 0 0 0-.441.628l-16 36a2 2 0 0 0-.172.767 2 2 0 0 0 .037.207 2 2 0 0 0 .102.567 2 2 0 0 0 .127.2 2 2 0 0 0 .296.46 2 2 0 0 0 .256.18 2 2 0 0 0 .391.263 2 2 0 0 0 .316.072 2 2 0 0 0 .452.092 2 2 0 0 0 1.851-1.184L7.19 41H5l4.137-9.307a2 2 0 0 1-1.178-1.81 2 2 0 0 1 2-2h.871l1.604-3.608a2 2 0 0 1-1.17-1.804 2 2 0 0 1 2-2h.861l1.809-4.073a2 2 0 0 1-1.16-1.798 2 2 0 0 1 2-2h.849L21 5h1.996a2 2 0 0 0-1.183-1.828A2 2 0 0 0 21.05 3Z"/></svg>