<svg xmlns="http://www.w3.org/2000/svg" width="48" height="48" viewBox="0 0 48 48"><path d="M31 4c-5 0-9 4-9 9v4a2 2 0 0 0 2 2 2 2 0 0 0 2-2v-4c0-3 2-5 5-5s5 2 5 5v19a2 2 0 0 0 2 2 2 2 0 0 0 2-2V13c0-5-4-9-9-9Z"/><path d="M10 4a2 2 0 0 0-2 2v29c0 5 4 9 9 9s9-4 9-9V17a2 2 0 0 0-2-2 2 2 0 0 0-2 2v18c0 3-2 5-5 5s-5-2-5-5V6a2 2 0 0 0-2-2Z"/><path d="m8.586 4.586-5 5a2 2 0 0 0 0 2.828 2 2 0 0 0 2.828 0L10 8.828l3.586 3.586a2 2 0 0 0 2.828 0 2 2 0 0 0 0-2.828l-5-5a2 2 0 0 0-2.828 0zM43 37a5 5 0 0 1-5 5 5 5 0 0 1-5-5 5 5 0 0 1 5-5 5 5 0 0 1 5 5z"/><path d="M38 30c-3.842 0-7 3.158-7 7s3.158 7 7 7 7-3.158 7-7-3.158-7-7-7zm0 4c1.68 0 3 1.32 3 3s-1.32 3-3 3-3-1.32-3-3 1.32-3 3-3z"/></svg>