<svg xmlns="http://www.w3.org/2000/svg" width="48" height="48" viewBox="0 0 48 48"><g clip-path="url(#a)"><path d="M23.521 2.396a9 9 0 0 0-2.148.288c-1.687.437-3.28 1.485-5.088 2.853s-3.733 3.083-5.556 4.906c-1.824 1.824-3.54 3.75-4.909 5.559-1.368 1.808-2.414 3.4-2.851 5.088-1.299 5.008 2.114 9.092 3.185 10.224-.56 2.85.256 5.924 2.453 8.122s5.272 3.013 8.122 2.453c1.135 1.072 5.219 4.48 10.224 3.183 1.687-.437 3.28-1.483 5.088-2.851 1.808-1.369 3.733-3.083 5.557-4.907 1.823-1.823 3.537-3.75 4.906-5.558s2.416-3.401 2.853-5.088c1.298-5.004-2.109-9.086-3.183-10.223.561-2.85-.255-5.925-2.453-8.123S34.449 5.308 31.6 5.87c-.964-.911-4.067-3.521-8.079-3.473zm.03 4.038c1.447.047 2.9.756 3.959 1.421a9 9 0 0 0-.518.467L8.607 26.707c-.166.166-.316.342-.466.518-.848-1.348-1.767-3.334-1.301-5.131.145-.56.95-2.067 2.17-3.68s2.834-3.43 4.547-5.143 3.53-3.324 5.142-4.544c1.613-1.221 3.119-2.025 3.678-2.17.385-.1.779-.136 1.174-.123zm9.806 3.23c1.272 0 2.544.495 3.536 1.486 1.983 1.984 1.983 5.09 0 7.073L18.508 36.607c-1.983 1.984-5.087 1.984-7.07 0s-1.984-5.089 0-7.072L29.822 11.15a4.98 4.98 0 0 1 3.535-1.486zm.69 3.729a2 2 0 0 0-.617.103l-2.008.67a6.71 6.71 0 0 0-4.244 4.244 2.7 2.7 0 0 1-1.504 1.635l-.951.408a6.98 6.98 0 0 0-3.871 4.207 2.98 2.98 0 0 1-1.653 1.797l-.42.18a8 8 0 0 0-4.435 4.82l-.563 1.69a2 2 0 0 0 1.264 2.529 2 2 0 0 0 2.531-1.266l.563-1.687a4 4 0 0 1 2.216-2.409v-.002l.418-.18a6.98 6.98 0 0 0 3.873-4.206c.27-.809.87-1.461 1.653-1.797l.949-.406a6.72 6.72 0 0 0 3.725-4.047 2.7 2.7 0 0 1 1.715-1.715l2.007-.67a2 2 0 0 0 1.266-2.53 2 2 0 0 0-1.914-1.368zm6.14 7.142c.847 1.348 1.763 3.333 1.297 5.13-.145.558-.949 2.064-2.17 3.677-1.22 1.613-2.832 3.43-4.544 5.142-1.713 1.713-3.53 3.327-5.143 4.547-1.613 1.221-3.119 2.025-3.678 2.17-1.796.466-3.782-.45-5.13-1.297.175-.15.35-.302.517-.468L39.72 21.05a10 10 0 0 0 .467-.516z"/></g><defs><clipPath id="a"><path d="M0 0h48v48H0z"/></clipPath></defs></svg>