<svg xmlns="http://www.w3.org/2000/svg" width="48" height="48" viewBox="0 0 48 48"><path d="M42 32H6v4a4 4 0 0 0 4 4h28a4 4 0 0 0 4-4zM6 22v6h36v-6z"/><path d="M6 20a2 2 0 0 0-2 2v14c0 3.29 2.71 6 6 6h28c3.29 0 6-2.71 6-6V22a2 2 0 0 0-2-2zm2 4h32v12c0 1.128-.872 2-2 2H10c-1.128 0-2-.872-2-2Z"/><path d="M6 32v-4a2 2 0 0 0-2 2 2 2 0 0 0 2 2zm36-4v4a2 2 0 0 0 2-2 2 2 0 0 0-2-2z"/><path d="M6 24a2 2 0 0 0-2 2v8a2 2 0 0 0 2 2 2 2 0 0 0 2-2v-8a2 2 0 0 0-2-2Zm36 0a2 2 0 0 0-2 2v8a2 2 0 0 0 2 2 2 2 0 0 0 2-2v-8a2 2 0 0 0-2-2zM19.594 4.07c-1.816.034-3.548.586-5.045 1.467-2.994 1.763-5.383 4.58-7.467 7.137C3.5 17.069 4.066 20.46 4.066 22a2 2 0 0 0 2 2H42a2 2 0 0 0 2-2c0-1.228-.495-1.692-.934-2.262-.438-.57-.98-1.135-1.625-1.752-1.29-1.233-2.995-2.642-4.886-4.115-3.783-2.945-8.293-6.108-11.426-8.158-1.822-1.193-3.72-1.676-5.535-1.643Zm.023 3.864c1.008-.03 2.063.303 3.32 1.127 3.027 1.98 7.5 5.117 11.16 7.966A67 67 0 0 1 37.634 20H8.023c-.032-1.19.182-2.37 2.16-4.799 2.023-2.481 4.255-4.956 6.395-6.217 1.07-.63 2.031-1.021 3.04-1.05z"/></svg>