<svg xmlns="http://www.w3.org/2000/svg" width="48" height="48" viewBox="0 0 48 48"><path d="M38.125 1.965c-2.988.038-8.605.686-12.54 4.62q-.305.31-.585.63V4a2 2 0 0 0-2-2 2 2 0 0 0-2 2v14.154c-.02.365-.03.698-.033 1.01-2.348-2.094-5.278-2.893-7.676-3.158-2.552-.283-4.502.037-4.502.037a2 2 0 0 0-1.742 1.74s-1.291 7.808 3.54 12.633c3.3 3.294 7.849 3.738 10.413 3.69V44a2 2 0 0 0 2 2 2 2 0 0 0 2-2V31.592c.075-.61.203-2.074 0-3.947V23.09c2.92-.056 8.466-.727 12.414-4.676 5.588-5.587 4.584-14.543 4.584-14.543a2 2 0 0 0-1.82-1.828s-.562-.067-1.492-.078a23 23 0 0 0-.561 0z"/></svg>