<svg xmlns="http://www.w3.org/2000/svg" width="48" height="48" viewBox="0 0 48 48"><path d="M8 4C5.815 4 4 5.815 4 8v32c0 2.185 1.815 4 4 4h32c2.185 0 4-1.815 4-4V26a2 2 0 0 0-2-2 2 2 0 0 0-2 2v14H8V8h14a2 2 0 0 0 2-2 2 2 0 0 0-2-2zm22 0a2 2 0 0 0-2 2 2 2 0 0 0 2 2h7.172L21 24.172V17a2 2 0 0 0-2-2 2 2 0 0 0-2 2v12a2 2 0 0 0 .025.191 2 2 0 0 0 .028.204 2 2 0 0 0 .125.39 2 2 0 0 0 .066.158 2 2 0 0 0 .813.813 2 2 0 0 0 .158.066 2 2 0 0 0 .39.125 2 2 0 0 0 .204.028A2 2 0 0 0 19 31h12a2 2 0 0 0 2-2 2 2 0 0 0-2-2h-7.172L40 10.828V18a2 2 0 0 0 2 2 2 2 0 0 0 2-2V6l-.004-.03a2 2 0 0 0-.06-.454l-.014-.057a2 2 0 0 0-.18-.434l-.02-.037a2 2 0 0 0-.308-.402 2 2 0 0 0-.47-.342 2 2 0 0 0-.159-.066 2 2 0 0 0-.39-.125 2 2 0 0 0-.204-.028A2 2 0 0 0 42 4z"/></svg>