<svg xmlns="http://www.w3.org/2000/svg" width="48" height="48" viewBox="0 0 48 48"><path d="M10 4c-4.395 0-8 3.605-8 8v18a2 2 0 0 0 2 2 2 2 0 0 0 2-2V12c0-2.233 1.767-4 4-4s4 1.767 4 4v18a2 2 0 0 0 2 2 2 2 0 0 0 2-2V12c0-2.233 1.767-4 4-4s4 1.767 4 4v22c0 4.395 3.605 8 8 8s8-3.605 8-8v-6.172l.586.586a2 2 0 0 0 2.828 0 2 2 0 0 0 0-2.828l-3.943-3.941-.057-.06-.01-.007a2 2 0 0 0-.33-.264l-.025-.015a2 2 0 0 0-.389-.186 2 2 0 0 0-.435-.1A2 2 0 0 0 40 21l-.12.014a2 2 0 0 0-.208.023 2 2 0 0 0-.23.053 2 2 0 0 0-.194.068 2 2 0 0 0-.215.102 2 2 0 0 0-.183.115 2 2 0 0 0-.176.14l-.088.07-4 4a2 2 0 0 0 0 2.83 2 2 0 0 0 2.828 0l.586-.587V34c0 2.233-1.767 4-4 4a3.97 3.97 0 0 1-4-4V12c0-4.395-3.605-8-8-8a8 8 0 0 0-6 2.73A8 8 0 0 0 10 4z"/></svg>