<svg xmlns="http://www.w3.org/2000/svg" width="48" height="48" viewBox="0 0 48 48"><path d="M14 4a2 2 0 0 0-2 2v4H7c-2.735 0-5 2.265-5 5v22c0 2.735 2.265 5 5 5h34c2.735 0 5-2.265 5-5V15c0-2.735-2.265-5-5-5h-5V6a2 2 0 0 0-2-2 2 2 0 0 0-2 2v4H16V6a2 2 0 0 0-2-2zM7 14h15v24H7c-.589 0-1-.411-1-1V15c0-.589.411-1 1-1zm19 0h15c.589 0 1 .411 1 1v22c0 .589-.411 1-1 1H26zm8 3c-1.045 0-1.954.517-2.572 1.127s-1.043 1.332-1.387 2.135C29.353 21.867 29 23.835 29 26s.353 4.133 1.041 5.738c.344.803.769 1.525 1.387 2.135S32.955 35 34 35s1.954-.517 2.572-1.127 1.043-1.332 1.387-2.135C38.647 30.133 39 28.165 39 26s-.353-4.133-1.041-5.738c-.344-.803-.769-1.525-1.387-2.135S35.045 17 34 17zm-19.186.025a2 2 0 0 0-1.257.608l-4.774 4.984a2 2 0 0 0 .06 2.826 2 2 0 0 0 2.827-.06L13 23.994V33a2 2 0 0 0 2 2 2 2 0 0 0 2-2V19.016a2 2 0 0 0-1.254-1.856 2 2 0 0 0-.932-.135zM34 21.367c.098.15.175.218.283.47.398.93.717 2.462.717 4.163s-.319 3.234-.717 4.162c-.108.253-.185.32-.283.47-.098-.15-.175-.217-.283-.47C33.319 29.234 33 27.702 33 26s.319-3.234.717-4.162c.108-.253.185-.32.283-.47z"/></svg>