<svg xmlns="http://www.w3.org/2000/svg" width="48" height="48" viewBox="0 0 48 48"><path d="M19 24h10v5c.961.976 2.039 2.524 3 3.5V44H16V32.5l3-3.5Z"/><path d="M19 22a2 2 0 0 0-2 2v4.26l-2.518 2.94A2 2 0 0 0 14 32.5V44a2 2 0 0 0 2 2h16a2 2 0 0 0 2-2V32.5a2 2 0 0 0-.574-1.402c-.602-.611-1.511-1.788-2.426-2.83V24a2 2 0 0 0-2-2zm2 4h6v3a2 2 0 0 0 .574 1.402c.602.611 1.511 1.788 2.426 2.83V42H18v-8.76l2.518-2.94A2 2 0 0 0 21 29Z"/><path d="M21 2a2 2 0 0 0-1.896 1.367l-2 6a2 2 0 0 0 .232 1.742L19 13.605V24a2 2 0 0 0 2 2h6a2 2 0 0 0 2-2V13.605l1.664-2.496a2 2 0 0 0 .232-1.742l-2-6A2 2 0 0 0 27 2Zm1.441 4h3.118l1.234 3.705-1.457 2.186A2 2 0 0 0 25 13v9h-2v-9a2 2 0 0 0-.336-1.11l-1.457-2.185Z"/></svg>