<svg xmlns="http://www.w3.org/2000/svg" width="48" height="48" viewBox="0 0 48 48"><path d="M8 4C5.815 4 4 5.815 4 8v8a2 2 0 0 0 2 2 2 2 0 0 0 2-2V8h8a2 2 0 0 0 2-2 2 2 0 0 0-2-2ZM6 30a2 2 0 0 0-2 2v8c0 2.185 1.815 4 4 4h8a2 2 0 0 0 2-2 2 2 0 0 0-2-2H8v-8a2 2 0 0 0-2-2Zm36 0a2 2 0 0 0-2 2v8h-8a2 2 0 0 0-2 2 2 2 0 0 0 2 2h8c2.185 0 4-1.815 4-4v-8a2 2 0 0 0-2-2zM32 4a2 2 0 0 0-2 2 2 2 0 0 0 2 2h8v8a2 2 0 0 0 2 2 2 2 0 0 0 2-2V8c0-2.185-1.815-4-4-4ZM16 14h16c1.108 0 2 .892 2 2v16c0 1.108-.892 2-2 2H16c-1.108 0-2-.892-2-2V16c0-1.108.892-2 2-2z"/><path d="M16 12c-2.181 0-4 1.819-4 4v16c0 2.181 1.819 4 4 4h16c2.181 0 4-1.819 4-4V16c0-2.181-1.819-4-4-4zm0 4h16v16H16Z"/></svg>