<svg xmlns="http://www.w3.org/2000/svg" width="48" height="48" viewBox="0 0 48 48"><path d="M20.4 2C16.335 2 13 5.335 13 9.4c0 2.683 1.453 5.048 3.61 6.346L12.591 27H7c-2.185 0-4 1.815-4 4v11c0 2.185 1.815 4 4 4h34c2.185 0 4-1.815 4-4V31c0-2.185-1.815-4-4-4h-5.592l-4.017-11.254C33.547 14.448 35 12.083 35 9.4 35 5.335 31.665 2 27.6 2zm0 4h7.2C29.518 6 31 7.482 31 9.4c0 1.919-1.482 3.4-3.4 3.4h-7.2c-1.918 0-3.4-1.481-3.4-3.4S18.482 6 20.4 6zm.01 11h7.18l3.572 10H16.838zM7 31h34v2H7zm0 6h34v5H7z"/></svg>