<svg xmlns="http://www.w3.org/2000/svg" width="48" height="48" viewBox="0 0 48 48"><path d="M5 37a2 2 0 0 1 2-2h34a2 2 0 0 1 2 2v5a2 2 0 0 1-2 2H7a2 2 0 0 1-2-2Z"/><path d="M7 33c-2.185 0-4 1.815-4 4v5c0 2.185 1.815 4 4 4h34c2.185 0 4-1.815 4-4v-5c0-2.185-1.815-4-4-4zm0 4h34v5H7Z"/><path d="M7 27c-2.185 0-4 1.815-4 4v11c0 2.185 1.815 4 4 4h34c2.185 0 4-1.815 4-4V31c0-2.185-1.815-4-4-4zm0 4h34v11H7Z"/><path d="M19.705 13c-1.26 0-2.402.803-2.826 1.99l-4.762 13.338A2 2 0 0 0 14 31h20a2 2 0 0 0 1.883-2.672L31.12 14.99A3.01 3.01 0 0 0 28.295 13Zm.705 4h7.18l3.572 10H16.838Z"/><path d="M20.4 4h7.2C30.592 4 33 6.408 33 9.4s-2.408 5.4-5.4 5.4h-7.2A5.39 5.39 0 0 1 15 9.4C15 6.408 17.408 4 20.4 4Z"/><path d="M20.4 2C16.335 2 13 5.335 13 9.4s3.335 7.4 7.4 7.4h7.2c4.065 0 7.4-3.335 7.4-7.4S31.665 2 27.6 2Zm0 4h7.2C29.518 6 31 7.482 31 9.4c0 1.919-1.482 3.4-3.4 3.4h-7.2c-1.918 0-3.4-1.481-3.4-3.4S18.482 6 20.4 6Z"/></svg>