<svg xmlns="http://www.w3.org/2000/svg" width="48" height="48" viewBox="0 0 48 48"><path d="M21 2C10.53 2 2 10.53 2 21s8.53 19 19 19c4.516 0 8.67-1.589 11.936-4.234l7.357 7.355a2 2 0 0 0 2.828 0 2 2 0 0 0 0-2.828l-7.355-7.357A18.9 18.9 0 0 0 40 21c0-10.47-8.53-19-19-19zm0 4c8.308 0 15 6.692 15 15s-6.692 15-15 15S6 29.308 6 21 12.692 6 21 6zm0 4a10 10 0 0 0-7.07 2.93 2 2 0 0 0 0 2.828 2 2 0 0 0 2.828 0A5.96 5.96 0 0 1 21 14c1.669 0 3.154.67 4.242 1.758a2 2 0 0 0 2.828 0 2 2 0 0 0 0-2.828A10 10 0 0 0 21 10z"/></svg>