<svg xmlns="http://www.w3.org/2000/svg" width="48" height="48" viewBox="0 0 48 48"><path d="M24 24a2 2 0 0 0-2 2v16a2 2 0 0 0 2 2 2 2 0 0 0 2-2V26a2 2 0 0 0-2-2z"/><path d="M41.942 10.007c-.776 13.024-9.13 17.236-15.946 17.896C24.896 28.009 24 27.104 24 26v-8.372c0-.233.04-.468.125-.684C27.118 9.199 34.283 8.155 40 8.02c1.105-.027 2.006.884 1.94 1.987z"/><path d="M39.953 6.02c-2.96.07-6.433.357-9.707 1.773-3.273 1.416-6.307 4.085-7.986 8.43-.18.466-.26.937-.26 1.404V26c0 2.186 1.902 4.116 4.188 3.895h.002c3.735-.362 7.956-1.7 11.39-4.825s5.945-8.02 6.358-14.945c.133-2.252-1.756-4.158-3.985-4.105Zm-.027 4.01c-.389 6.007-2.419 9.699-5.037 12.081-2.586 2.353-5.863 3.43-8.889 3.754v-8.22c1.314-3.386 3.354-5.109 5.836-6.182 2.45-1.06 5.367-1.362 8.09-1.434z"/><path d="M7.998 6.072c9.329.685 14.197 6.091 15.836 9.558.115.242.166.508.166.776v7.504c0 1.14-.96 2.054-2.094 1.94C7.337 24.384 6.11 14.786 6.009 8 5.993 6.894 6.897 5.99 8 6.072Z"/><path d="M8.145 4.078C5.879 3.912 3.977 5.818 4.01 8.03c.052 3.5.356 7.99 2.826 11.95 2.47 3.958 7.158 7.085 14.87 7.86C24.01 28.073 26 26.175 26 23.91v-7.504c0-.524-.1-1.086-.357-1.63-1.95-4.125-7.454-9.96-17.498-10.698ZM8.02 8.102c8.448.688 12.643 5.55 13.979 8.343v7.397c-6.775-.706-9.97-3.094-11.771-5.98-1.788-2.866-2.15-6.505-2.208-9.76Z"/></svg>