<svg xmlns="http://www.w3.org/2000/svg" width="48" height="48" viewBox="0 0 48 48"><g clip-path="url(#a)"><path d="M25.91 1.521a3.9 3.9 0 0 0-1.885.524L18.598 5.18a2 2 0 0 0-.268-1 2 2 0 0 0-2.732-.733l-5.196 3A2 2 0 0 0 9.67 9.18a2 2 0 0 0 .738.726l-5.435 3.139c-1.89 1.09-2.556 3.576-1.465 5.465l4 6.927c1.09 1.89 3.576 2.556 5.465 1.465l7.795-4.5 1 1.733-.866.5a2 2 0 0 0-.732 2.73 2 2 0 0 0 2.732.733l.866-.5 2.712 4.699c-1.13 1.554-1.323 3.706-.31 5.46l2 3.466c1.368 2.369 4.461 3.197 6.83 1.83 2.369-1.368 3.198-4.461 1.83-6.83l-2-3.465c-1.013-1.755-2.973-2.664-4.885-2.461l-2.713-4.7.866-.5a2 2 0 0 0 .732-2.732 2 2 0 0 0-1.215-.931 2 2 0 0 0-1.517.2l-.866.5-1-1.732 7.793-4.5c1.89-1.09 2.554-3.575 1.463-5.464l-1.304-2.26c1.262-.248 2.677-.323 3.941-.028 2.081.487 3.894 1.665 4.988 5.297.446 1.48.298 2.84-.105 4.04-.31-.228-.604-.494-.928-.68-1.293-.742-2.905-1.244-4.53-.518-1.623.726-2.458 2.56-2.546 4.594-.047 1.083.119 2.104.654 2.988.536.884 1.483 1.514 2.416 1.713 1.744.371 3.283-.32 4.682-1.322.004.058.078.145.076.199-.058 1.668-.75 2.236-1.594 2.723a5 5 0 0 1-1.68.591 2 2 0 0 0-1.777 2.2 2 2 0 0 0 2.2 1.777s1.61-.153 3.257-1.104a7.27 7.27 0 0 0 3.592-6.046c.05-1.423-.373-2.7-.986-3.86 1.348-2.322 2.069-5.228 1.1-8.447-1.425-4.729-4.65-7.28-7.909-8.041-1.629-.38-3.23-.388-4.695-.188-.797.11-1.548.283-2.248.49l-.604-1.046c-.75-1.299-2.157-2.02-3.578-1.989zm.115 3.989 4 6.928-19.052 11-4-6.928zm11.16 14.449c.076.013.401.028.903.316.204.117.382.42.588.598-.012.009-.022.024-.033.033-.807.614-1.451.682-1.584.7-.028-.083-.076-.147-.059-.55.035-.807.142-1.035.186-1.097zm-6.607 14.285c.315.017.605.195.79.514l2 3.465c.293.51.142 1.07-.368 1.365s-1.07.144-1.365-.365l-2-3.465c-.295-.51-.145-1.071.365-1.365.191-.11.39-.16.578-.149z"/></g><defs><clipPath id="a"><path d="M0 0h48v48H0z"/></clipPath></defs></svg>