<svg xmlns="http://www.w3.org/2000/svg" width="48" height="48" viewBox="0 0 48 48"><path d="M29 14a5 5 0 1 0 0-10 5 5 0 0 0 0 10z"/><path d="M29 2c-3.842 0-7 3.158-7 7s3.158 7 7 7 7-3.158 7-7-3.158-7-7-7zm0 4c1.68 0 3 1.32 3 3s-1.32 3-3 3-3-1.32-3-3 1.32-3 3-3zm-5.578 11.086a2 2 0 0 0-1.184.969l-4.29 8a2 2 0 0 0 .52 2.513l7.6 6.02.004.004.014.01c-.03-.023-.021-.034-.002.021l-.012-.031 3.34 10.039a2 2 0 0 0 2.53 1.267 2 2 0 0 0 1.265-2.529l-3.34-10.04-.01-.032a4.03 4.03 0 0 0-1.322-1.858l-6.271-4.968 3.498-6.526a2 2 0 0 0-.817-2.707 2 2 0 0 0-1.523-.152z"/><path d="M20.836 25.346a2 2 0 0 0-2.78.529l-5.199 7.64c-1.38 2.019-3.772 4.502-5.021 6.376a2 2 0 0 0 .555 2.773 2 2 0 0 0 2.773-.555c.75-1.125 3.302-3.862 4.996-6.34l.004-.003 5.2-7.641a2 2 0 0 0-.528-2.78zm-5.928-10.744a2 2 0 0 0-2.08.966L10.268 20A2 2 0 0 0 11 22.732 2 2 0 0 0 13.732 22l1.858-3.217 1.838.326a37.4 37.4 0 0 1 12.31 4.537h.004l3.27 1.91.027.016a4.1 4.1 0 0 0 2.022.528h.027l6.941-.1A2 2 0 0 0 44 23.97 2 2 0 0 0 41.97 22l-6.91.1h-.001a.14.14 0 0 1-.059-.014l-3.238-1.89-.004-.003a41.4 41.4 0 0 0-13.625-5.021l-.004-.002z"/><path d="m8.652 19.103 6.374 3.68-4.5 7.794-6.374-3.68Z"/><path d="M9.652 17.372a2 2 0 0 0-2.733.732l-4.5 7.794a2 2 0 0 0 .733 2.732l6.373 3.68a2 2 0 0 0 2.732-.732l4.5-7.794a2 2 0 0 0-.732-2.732zm-.268 4.464 2.91 1.68-2.5 4.33-2.91-1.68z"/></svg>