<svg xmlns="http://www.w3.org/2000/svg" width="48" height="48" viewBox="0 0 48 48"><path d="M35 5a2 2 0 0 0-2 2v2.426q-.51.226-.957.556l-2.105-1.214a2 2 0 0 0-2.733.732 2 2 0 0 0 .733 2.732l2.093 1.21a5 5 0 0 0 0 1.117l-2.093 1.209a2 2 0 0 0-.733 2.732 2 2 0 0 0 2.733.732l2.105-1.214q.446.33.957.556V21a2 2 0 0 0 2 2 2 2 0 0 0 2-2v-2.426q.51-.226.957-.556l2.105 1.214a2 2 0 0 0 2.733-.732 2 2 0 0 0-.733-2.732l-2.093-1.21a5 5 0 0 0 0-1.117l2.093-1.209a2 2 0 0 0 .733-2.732 2 2 0 0 0-1.215-.932 2 2 0 0 0-1.517.2l-2.106 1.214A5 5 0 0 0 37 9.426V7a2 2 0 0 0-2-2zM11 7c-2.738 0-5 2.262-5 5v19H4a2 2 0 0 0-2 2v2c0 4.395 3.605 8 8 8h28c4.395 0 8-3.605 8-8v-2a2 2 0 0 0-2-2h-2v-5a2 2 0 0 0-2-2 2 2 0 0 0-2 2v5H10V12c0-.576.424-1 1-1h10a2 2 0 0 0 2-2 2 2 0 0 0-2-2zm24 6a.98.98 0 0 1 .828.418l.037.082.037.053q.096.2.098.447c0 .163-.036.313-.098.445l-.037.055-.037.082A.98.98 0 0 1 35 15a.98.98 0 0 1-.807-.389l-.058-.111-.037-.055A1.05 1.05 0 0 1 34 14c0-.167.037-.32.102-.455l.03-.045.052-.098A.98.98 0 0 1 35 13zM6 35h36c0 2.233-1.767 4-4 4H10a3.97 3.97 0 0 1-4-4z"/></svg>