<svg xmlns="http://www.w3.org/2000/svg" width="48" height="48" viewBox="0 0 48 48"><path d="M14 4a2 2 0 0 0-2 2v36a2 2 0 0 0 2 2h20a2 2 0 0 0 2-2V6a2 2 0 0 0-2-2ZM3.957 8a2.002 2.002 0 0 0-1.475 3.3l2.883 3.366-2.883 3.365a2 2 0 0 0 0 2.604L5.365 24l-2.883 3.365a2 2 0 0 0 0 2.604l2.883 3.365-2.883 3.365a2 2 0 0 0 3.036 2.602l4-4.666a2 2 0 0 0 0-2.604l-2.883-3.365 2.883-3.365a2 2 0 0 0 0-2.602l-2.883-3.365 2.883-3.365a2 2 0 0 0 0-2.604l-4-4.666A2 2 0 0 0 3.957 8Zm40.086 0q-.099-.002-.197.006a2 2 0 0 0-1.364.693l-4 4.666a2 2 0 0 0 0 2.604l2.883 3.365-2.883 3.365a2 2 0 0 0 0 2.602l2.883 3.365-2.883 3.365a2 2 0 0 0 0 2.604l4 4.666a2 2 0 0 0 3.036-2.602l-2.883-3.365 2.883-3.365a2 2 0 0 0 0-2.604L42.635 24l2.883-3.365a2 2 0 0 0 0-2.604l-2.883-3.365 2.883-3.365A2 2 0 0 0 44.043 8ZM22 33h4a2 2 0 0 1 0 4h-4a2 2 0 0 1 0-4z"/></svg>