<svg xmlns="http://www.w3.org/2000/svg" width="48" height="48" viewBox="0 0 48 48"><path d="M35 4c-3.842 0-7 3.158-7 7q.002.701.137 1.365l-10.532 6.381A6.96 6.96 0 0 0 13 17c-3.842 0-7 3.158-7 7s3.158 7 7 7a6.97 6.97 0 0 0 4.746-1.873l10.465 6.184A7 7 0 0 0 28 37c0 3.842 3.158 7 7 7s7-3.158 7-7-3.158-7-7-7a6.97 6.97 0 0 0-4.746 1.873l-10.465-6.184a6.9 6.9 0 0 0-.049-3.56L30.02 15.9A6.98 6.98 0 0 0 35 18c3.842 0 7-3.158 7-7s-3.158-7-7-7zm0 4c1.68 0 3 1.32 3 3s-1.32 3-3 3-3-1.32-3-3 1.32-3 3-3zM13 21c1.68 0 3 1.32 3 3s-1.32 3-3 3-3-1.32-3-3 1.32-3 3-3zm22 13c1.68 0 3 1.32 3 3s-1.32 3-3 3-3-1.32-3-3 1.32-3 3-3z"/></svg>