<svg xmlns="http://www.w3.org/2000/svg" width="48" height="48" viewBox="0 0 48 48"><path d="M30 4a2 2 0 0 0-1.414.586 2 2 0 0 0 0 2.828l6.648 6.649c-8.068.215-15.046 1.055-20.47 3.203C8.297 19.826 4 24.782 4 32a2 2 0 0 0 2 2 2 2 0 0 0 2-2c0-5.782 2.703-8.826 8.236-11.016 4.593-1.817 11.117-2.671 18.862-2.91l-6.512 6.512a2 2 0 0 0 0 2.828 2 2 0 0 0 2.828 0l10-10a2 2 0 0 0 .426-.637l.01-.021a2 2 0 0 0 .146-.736L42 16l-.004-.059a2 2 0 0 0-.01-.132l-.01-.098a2 2 0 0 0-.044-.229 2 2 0 0 0-.077-.226l-.035-.078a2 2 0 0 0-.066-.133l-.043-.078a2 2 0 0 0-.111-.162l-.014-.022-.008-.008a2 2 0 0 0-.164-.19l-10-10A2 2 0 0 0 30 4zM6 36a2 2 0 0 0-2 2v4a2 2 0 0 0 2 2h36a2 2 0 0 0 2-2v-4a2 2 0 0 0-2-2 2 2 0 0 0-2 2v2H8v-2a2 2 0 0 0-2-2z"/></svg>