<svg xmlns="http://www.w3.org/2000/svg" width="48" height="48" viewBox="0 0 48 48"><path d="M21.293 18.52a.72.72 0 0 0-.508.21L9.271 30.242a6.001 6.001 0 0 0 8.487 8.487L29.27 27.215a.72.72 0 0 0 0-1.016L21.8 18.73a.72.72 0 0 0-.507-.21zm-1.414 7.601a2 2 0 0 1 1.414.586 2 2 0 0 1 0 2.828l-1.414 1.414a2 2 0 0 1-2.828 0 2 2 0 0 1 0-2.828l1.414-1.414a2 2 0 0 1 1.414-.586z"/><path d="M21.293 16.531c-.7 0-1.4.263-1.922.785L7.857 28.828c-3.107 3.108-3.107 8.207 0 11.315s8.207 3.107 11.315 0l11.512-11.514c1.045-1.045 1.045-2.799 0-3.844l-7.47-7.469a2.7 2.7 0 0 0-1.921-.785Zm0 4.52 5.656 5.656-10.605 10.607a3.97 3.97 0 0 1-5.658 0 3.97 3.97 0 0 1 0-5.658z"/><path d="M26.242 3.17a2.88 2.88 0 0 0-2.045.834l-.783.783c-5.45 5.45-5.45 14.348 0 19.799s14.348 5.45 19.799 0l.783-.783q-4.993-2.828 0 0c1.113-1.114 1.113-2.979 0-4.092L28.29 4.004a2.9 2.9 0 0 0-2.047-.834Zm0 4.445 14.143 14.143a9.97 9.97 0 0 1-14.143 0 9.97 9.97 0 0 1 0-14.143z"/><path d="M27.656 15.514a2 2 0 0 0-1.414.586 2 2 0 0 0 0 2.83l2.828 2.828a2 2 0 0 0 2.83 0 2 2 0 0 0 0-2.828l-2.83-2.83a2 2 0 0 0-1.414-.586Z"/></svg>