<svg xmlns="http://www.w3.org/2000/svg" width="48" height="48" viewBox="0 0 48 48"><path d="M26.242 3.17a2.88 2.88 0 0 0-2.045.834l-.783.783c-3.353 3.354-4.64 8.012-3.867 12.37q-.091.075-.176.16L7.857 28.827c-3.107 3.108-3.107 8.207 0 11.315s8.207 3.107 11.315 0l11.512-11.514q.085-.085.16-.176c4.357.773 9.015-.514 12.369-3.867l.783-.783-3.004-1.701c-.131-.392-.125-.828.174-1.127h.002l2.828 2.828c1.113-1.114 1.113-2.979 0-4.092L28.29 4.004a2.9 2.9 0 0 0-2.047-.834zm0 4.445 14.143 14.143a9.97 9.97 0 0 1-10.338 2.39l-6.195-6.195a9.97 9.97 0 0 1 2.39-10.338zm1.414 7.899a2 2 0 0 0-1.414.586 2 2 0 0 0 0 2.83l2.828 2.828a2 2 0 0 0 2.83 0 2 2 0 0 0 0-2.828l-2.83-2.83a2 2 0 0 0-1.414-.586zm-6.654 5.828a13.9 13.9 0 0 0 5.656 5.656L16.344 37.314a3.97 3.97 0 0 1-5.658 0 3.97 3.97 0 0 1 0-5.658zm-1.123 4.78a2 2 0 0 0-1.414.585l-1.414 1.414a2 2 0 0 0 0 2.828 2 2 0 0 0 2.828 0l1.414-1.414a2 2 0 0 0 0-2.828 2 2 0 0 0-1.414-.586z"/></svg>