<svg xmlns="http://www.w3.org/2000/svg" width="48" height="48" viewBox="0 0 48 48"><path d="M7.629 20a3 3 0 0 0-2.947 3.564l3.062 16A3 3 0 0 0 10.691 42H37.31a3 3 0 0 0 2.947-2.436l3.062-16A3 3 0 0 0 40.371 20zM24 26c2.738 0 5 2.262 5 5s-2.262 5-5 5-5-2.262-5-5 2.262-5 5-5zm0 4c-.576 0-1 .424-1 1s.424 1 1 1 1-.424 1-1-.424-1-1-1z"/><path d="M7.629 18c-3.097 0-5.494 2.898-4.912 5.94l3.062 16A5.02 5.02 0 0 0 10.691 44H37.31a5.02 5.02 0 0 0 4.912-4.06l3.062-16c.582-3.042-1.815-5.94-4.912-5.94Zm0 4H40.37c.67 0 1.108.53.983 1.188l-3.063 16a.98.98 0 0 1-.982.812H10.69a.98.98 0 0 1-.982-.812l-3.063-16C6.521 22.53 6.96 22 7.63 22Z"/><path d="M24 4a2 2 0 0 0-1.682.918l-9 14A2 2 0 0 0 15 22h18a2 2 0 0 0 1.682-3.082l-9-14A2 2 0 0 0 24 4Zm0 5.697L29.338 18H18.662Z"/></svg>