<svg xmlns="http://www.w3.org/2000/svg" width="48" height="48" viewBox="0 0 48 48"><path d="M39.775 5.014a2 2 0 0 0-1.19.572 2 2 0 0 0 0 2.828l.587.586H37c-5.548 0-10.405 3.042-13 7.541C21.405 12.042 16.548 9 11 9H4a2 2 0 0 0-2 2 2 2 0 0 0 2 2h7c6.099 0 11 4.901 11 11s-4.901 11-11 11H4a2 2 0 0 0-2 2 2 2 0 0 0 2 2h7c5.548 0 10.405-3.042 13-7.541C26.595 35.958 31.452 39 37 39h2.172l-.586.586a2 2 0 0 0 0 2.828 2 2 0 0 0 2.828 0l4-4a2 2 0 0 0 .574-1.615l-.01-.082a2 2 0 0 0-.109-.426l-.004-.008a2 2 0 0 0-.086-.193l-.037-.067a2 2 0 0 0-.068-.115l-.057-.084a2 2 0 0 0-.12-.15l-.003-.002-.08-.086-4-4a2 2 0 0 0-2.828 0 2 2 0 0 0 0 2.828l.586.586H37c-6.099 0-11-4.901-11-11s4.901-11 11-11h2.172l-.586.586a2 2 0 0 0 0 2.828 2 2 0 0 0 2.828 0l4-4a2 2 0 0 0 .574-1.615l-.01-.082a2 2 0 0 0-.109-.426l-.004-.008a2 2 0 0 0-.086-.193l-.037-.067a2 2 0 0 0-.068-.115l-.057-.084a2 2 0 0 0-.12-.15l-.003-.002-.08-.086-4-4a2 2 0 0 0-1.639-.572z"/></svg>