<svg xmlns="http://www.w3.org/2000/svg" width="48" height="48" viewBox="0 0 48 48"><path d="M8 2a2 2 0 0 0-2 2v40a2 2 0 0 0 2 2h32a2 2 0 0 0 2-2V11.273a2 2 0 0 0-.57-1.398l-7.112-7.273A2 2 0 0 0 32.888 2zm2 4h22.047L38 12.088V42H10zm5 4a2 2 0 0 0-2 2v6a2 2 0 0 0 2 2 2 2 0 0 0 2-2v-6a2 2 0 0 0-2-2zm6 0a2 2 0 0 0-2 2v6a2 2 0 0 0 2 2 2 2 0 0 0 2-2v-6a2 2 0 0 0-2-2zm6 0a2 2 0 0 0-2 2v6a2 2 0 0 0 2 2 2 2 0 0 0 2-2v-6a2 2 0 0 0-2-2zM15 24a2 2 0 0 0-2 2v10a2 2 0 0 0 2 2h18a2 2 0 0 0 2-2V26a2 2 0 0 0-2-2zm2 4h14v6H17z"/></svg>