<svg xmlns="http://www.w3.org/2000/svg" width="48" height="48" viewBox="0 0 48 48"><path d="M11 7c-2.738 0-5 2.262-5 5v11a2 2 0 0 0 2 2h32a2 2 0 0 0 2-2V12c0-2.738-2.262-5-5-5Zm0 4h26c.576 0 1 .424 1 1v9H10v-9c0-.576.424-1 1-1zM6 33a2 2 0 0 0-2 2v4a2 2 0 0 0 2 2 2 2 0 0 0 2-2v-4a2 2 0 0 0-2-2Zm36 0a2 2 0 0 0-2 2v4a2 2 0 0 0 2 2 2 2 0 0 0 2-2v-4a2 2 0 0 0-2-2z"/><path d="M29 18H19a3 3 0 0 0-3 3v2h16v-2a3 3 0 0 0-3-3z"/><path d="M19 16c-2.738 0-5 2.262-5 5v2a2 2 0 0 0 2 2h16a2 2 0 0 0 2-2v-2c0-2.738-2.262-5-5-5zm0 4h10c.576 0 1 .424 1 1H18c0-.576.424-1 1-1z"/><path d="M7 21c-2.738 0-5 2.262-5 5v9a2 2 0 0 0 2 2h40a2 2 0 0 0 2-2v-9c0-2.738-2.262-5-5-5zm0 4h34c.576 0 1 .424 1 1v7H6v-7c0-.576.424-1 1-1z"/></svg>