<svg xmlns="http://www.w3.org/2000/svg" width="48" height="48" viewBox="0 0 48 48"><path d="M11 7c-2.738 0-5 2.262-5 5v9.104c-2.267.47-4 2.5-4 4.896v9a2 2 0 0 0 2 2v2a2 2 0 0 0 2 2 2 2 0 0 0 2-2v-2h32v2a2 2 0 0 0 2 2 2 2 0 0 0 2-2v-2a2 2 0 0 0 2-2v-9c0-2.395-1.733-4.426-4-4.896V12c0-2.738-2.262-5-5-5zm0 4h26c.576 0 1 .424 1 1v9h-4c0-2.738-2.262-5-5-5H19c-2.738 0-5 2.262-5 5h-4v-9c0-.576.424-1 1-1zm8 9h10c.576 0 1 .424 1 1H18c0-.576.424-1 1-1zM7 25h34c.576 0 1 .424 1 1v7H6v-7c0-.576.424-1 1-1z"/></svg>