<svg xmlns="http://www.w3.org/2000/svg" width="48" height="48" viewBox="0 0 48 48"><path d="M24 2c-3.29 0-6 2.71-6 6q.002.56.104 1.094l-2.032 1.174-2.129 1.228A5.97 5.97 0 0 0 10 10c-3.29 0-6 2.71-6 6 0 2.643 1.75 4.911 4.145 5.701V26.3C5.75 27.089 4 29.357 4 32c0 3.29 2.71 6 6 6a5.97 5.97 0 0 0 3.943-1.496l2.13 1.228 2.03 1.174c-.066.355-.103.72-.103 1.094 0 3.29 2.71 6 6 6s6-2.71 6-6q-.002-.56-.104-1.094l2.032-1.174 2.129-1.228A5.97 5.97 0 0 0 38 38c3.29 0 6-2.71 6-6 0-2.643-1.75-4.911-4.145-5.701V21.7C42.25 20.911 44 18.643 44 16c0-3.29-2.71-6-6-6a5.97 5.97 0 0 0-3.943 1.496l-2.13-1.228-2.03-1.174C29.962 8.739 30 8.374 30 8c0-3.29-2.71-6-6-6zm0 4c1.128 0 2 .872 2 2 0 .346-.082.667-.229.947L25.732 9l-.023.055A1.97 1.97 0 0 1 24 10a1.98 1.98 0 0 1-1.662-.867l-.002-.004v-.002A2 2 0 0 0 22.268 9l-.041-.057A2.04 2.04 0 0 1 22 8c0-1.128.872-2 2-2zm-3.887 6.553c1.05.9 2.41 1.447 3.887 1.447a5.96 5.96 0 0 0 3.887-1.447l2.04 1.18 2.163 1.247A6 6 0 0 0 32 16c0 2.536 1.61 4.726 3.855 5.598v4.804C33.611 27.274 32 29.464 32 32q.001.521.09 1.02l-2.162 1.248-2.041 1.18A5.96 5.96 0 0 0 24 34a5.96 5.96 0 0 0-3.887 1.447l-2.04-1.18-2.163-1.247A6 6 0 0 0 16 32c0-2.536-1.61-4.726-3.855-5.598v-4.804C14.389 20.726 16 18.536 16 16a6 6 0 0 0-.09-1.02l2.162-1.248zM10 14c1.128 0 2 .872 2 2s-.872 2-2 2-2-.872-2-2 .872-2 2-2zm28 0c1.128 0 2 .872 2 2s-.872 2-2 2-2-.872-2-2 .872-2 2-2zm-14 4c-3.29 0-6 2.71-6 6s2.71 6 6 6 6-2.71 6-6-2.71-6-6-6zm0 4c1.128 0 2 .872 2 2s-.872 2-2 2-2-.872-2-2 .872-2 2-2zm-14 8c1.128 0 2 .872 2 2s-.872 2-2 2-2-.872-2-2 .872-2 2-2zm28 0c1.128 0 2 .872 2 2s-.872 2-2 2-2-.872-2-2 .872-2 2-2zm-14 8c.737 0 1.362.373 1.709.945l.023.055.04.053c.146.28.228.6.228.947 0 1.128-.872 2-2 2s-2-.872-2-2c0-.346.082-.667.229-.947l.039-.053a2 2 0 0 0 .068-.129c.355-.53.959-.871 1.664-.871z"/></svg>