<svg xmlns="http://www.w3.org/2000/svg" width="48" height="48" viewBox="0 0 48 48"><path d="M24 2c-3.29 0-6 2.71-6 6 0 2.59 1.68 4.818 4 5.65v9.196l-8.055 4.65A5.97 5.97 0 0 0 10 26c-3.29 0-6 2.71-6 6s2.71 6 6 6 6-2.71 6-6a6 6 0 0 0-.09-1.02L24 26.31l8.09 4.67A6 6 0 0 0 32 32c0 3.29 2.71 6 6 6s6-2.71 6-6-2.71-6-6-6a5.97 5.97 0 0 0-3.945 1.496L26 22.846V13.65c2.32-.832 4-3.06 4-5.65 0-3.29-2.71-6-6-6zm0 4c1.128 0 2 .872 2 2s-.872 2-2 2-2-.872-2-2 .872-2 2-2zm-14 4c-3.29 0-6 2.71-6 6s2.71 6 6 6 6-2.71 6-6-2.71-6-6-6zm28 0c-3.29 0-6 2.71-6 6s2.71 6 6 6 6-2.71 6-6-2.71-6-6-6zm-28 4c1.128 0 2 .872 2 2s-.872 2-2 2-2-.872-2-2 .872-2 2-2zm28 0c1.128 0 2 .872 2 2s-.872 2-2 2-2-.872-2-2 .872-2 2-2zM10 30c1.128 0 2 .872 2 2s-.872 2-2 2-2-.872-2-2 .872-2 2-2zm28 0c1.128 0 2 .872 2 2s-.872 2-2 2-2-.872-2-2 .872-2 2-2zm-14 4c-3.29 0-6 2.71-6 6s2.71 6 6 6 6-2.71 6-6-2.71-6-6-6zm0 4c1.128 0 2 .872 2 2s-.872 2-2 2-2-.872-2-2 .872-2 2-2z"/></svg>