<svg xmlns="http://www.w3.org/2000/svg" width="48" height="48" viewBox="0 0 48 48"><path d="M44 39.82H4l32.54-18H44Z"/><path d="M36.54 19.82a2 2 0 0 0-.968.25l-32.54 18A2 2 0 0 0 4 41.82h40a2 2 0 0 0 2-2v-18a2 2 0 0 0-2-2zm.517 4H42v14H11.748ZM24.771 5.205a2 2 0 0 0-2.125 1.867l-.164 2.53-15.466 8.93-2.272-1.124a2 2 0 0 0-2.68.906 2 2 0 0 0 .907 2.68l3.232 1.598a2 2 0 0 0 1.887-.06l17.32-10a2 2 0 0 0 .996-1.604l.233-3.598a2 2 0 0 0-1.868-2.125z"/><path d="M12.33 24.88a3 3 0 1 0 0-6 3 3 0 0 0 0 6Zm11.12-6a3 3 0 1 0 0-6 3 3 0 0 0 0 6Z"/></svg>