<svg xmlns="http://www.w3.org/2000/svg" width="48" height="48" viewBox="0 0 48 48"><path d="M16.866 7.47A18 18 0 0 0 16 13c0 9.941 8.059 18 18 18a17.9 17.9 0 0 0 7.134-1.47C38.801 36.767 32.012 42 24 42c-9.941 0-18-8.059-18-18 0-7.407 4.473-13.768 10.866-16.53Z"/><path d="M17.563 5.594a2 2 0 0 0-1.49.039C8.964 8.704 4 15.788 4 24c0 11.022 8.978 20 20 20 8.883 0 16.442-5.81 19.037-13.855a2 2 0 0 0-2.695-2.45A15.9 15.9 0 0 1 34 29c-8.86 0-16-7.14-16-16 0-1.72.27-3.369.77-4.916a2 2 0 0 0-1.207-2.49Zm-3.313 5.81c-.045.545-.25 1.04-.25 1.596 0 11.022 8.978 20 20 20 1.142 0 2.244-.16 3.336-.344C34.487 37.041 29.638 40 24 40c-8.86 0-16-7.14-16-16 0-5.16 2.475-9.673 6.25-12.596Z"/><path d="M31.66 8a2 2 0 0 0-2 2 2 2 0 0 0 2 2h3.637l-5.547 4.438A2 2 0 0 0 31 20h10a2 2 0 0 0 2-2 2 2 0 0 0-2-2h-4.297l5.547-4.437A2 2 0 0 0 41 8Z"/></svg>