<svg xmlns="http://www.w3.org/2000/svg" width="48" height="48" viewBox="0 0 48 48"><path d="M4 6a2 2 0 0 0 0 4h2v24a2 2 0 0 0 2 2h11.172l-4.586 4.586a2 2 0 0 0 2.828 2.828L24 36.828l6.586 6.586a2 2 0 0 0 2.828-2.828L28.828 36H40a2 2 0 0 0 2-2V10h2a2 2 0 0 0 0-4H8Zm13 10a2 2 0 0 1 1.414 3.414L16.828 21l1.586 1.586a2 2 0 0 1-2.828 2.828l-3-3a2 2 0 0 1 0-2.828l3-3A2 2 0 0 1 17 16Zm14 0a2 2 0 0 1 1.414.586l3 3a2 2 0 0 1 0 2.828l-3 3a2 2 0 0 1-2.828-2.828L31.172 21l-1.586-1.586A2 2 0 0 1 31 16Z"/></svg>