<svg xmlns="http://www.w3.org/2000/svg" width="48" height="48" viewBox="0 0 48 48"><path d="M29 14a5 5 0 1 0 0-10 5 5 0 0 0 0 10z"/><path d="M29 2c-3.842 0-7 3.158-7 7s3.158 7 7 7 7-3.158 7-7-3.158-7-7-7zm0 4c1.68 0 3 1.32 3 3s-1.32 3-3 3-3-1.32-3-3 1.32-3 3-3zM19 46a3 3 0 1 0 0-6 3 3 0 0 0 0 6Zm4.81-29.006a2 2 0 0 0-1.189.963l-4.379 8.092a2 2 0 0 0 .487 2.496l7.31 6.02.031.025.002.002.014.01c-.03-.023-.021-.034-.002.021l-.012-.031 3.014 9.986a2 2 0 0 0 2.492 1.336 2 2 0 0 0 1.336-2.492l-3.03-10.04-.027-.085a4.03 4.03 0 0 0-1.322-1.858l-5.992-4.935 3.596-6.64a2 2 0 0 0-.807-2.712 2 2 0 0 0-1.521-.158z"/><path d="M19.678 25.025a2 2 0 0 0-1.303.807l-5.488 7.64-.028.04c-.01.016.002.01-.013.004l-.008-.002-8.068-3.36a2 2 0 0 0-2.616 1.076 2 2 0 0 0 1.076 2.616l8.07 3.361-.005-.004a4.03 4.03 0 0 0 4.865-1.433l5.465-7.602a2 2 0 0 0-.457-2.793 2 2 0 0 0-1.49-.35ZM14.908 14.6l.002.002a4 4 0 0 0-2.635.435l-6.189 3.184a2 2 0 0 0-.865 2.693 2 2 0 0 0 2.693.865l6.24-3.21.05-.026c-.001 0 .018-.002.005-.004h.002l3.217.57a37.4 37.4 0 0 1 12.31 4.536l.03.017 3.21 1.81A4.1 4.1 0 0 0 35 26h7a2 2 0 0 0 2-2 2 2 0 0 0-2-2h-7a.13.13 0 0 1-.059-.014v.002l-3.18-1.793a41.4 41.4 0 0 0-13.628-5.023l-.004-.002z"/></svg>