<svg xmlns="http://www.w3.org/2000/svg" width="48" height="48" viewBox="0 0 48 48"><path d="M24 2C11.87 2 2 11.87 2 24s9.87 22 22 22 22-9.87 22-22S36.13 2 24 2zm0 4c4.29 0 8.216 1.49 11.303 3.979a23 23 0 0 0-2.332 3.271l-2.076-1.04a2 2 0 0 0-1.528-.106 2 2 0 0 0-1.156 1.001 2 2 0 0 0 .894 2.684l2.159 1.08A21 21 0 0 0 30.102 22H28a2 2 0 0 0-2 2 2 2 0 0 0 2 2h2.098c.167 1.8.558 3.52 1.142 5.145l-2.135 1.066a2 2 0 0 0-.894 2.684 2 2 0 0 0 2.684.894l2.048-1.023a22.4 22.4 0 0 0 2.348 3.265A17.94 17.94 0 0 1 24 42a17.94 17.94 0 0 1-11.291-3.969 22.4 22.4 0 0 0 2.348-3.265l2.048 1.023a2 2 0 0 0 2.684-.894 2 2 0 0 0-.894-2.684l-2.135-1.066A21 21 0 0 0 17.902 26H20a2 2 0 0 0 2-2 2 2 0 0 0-2-2h-2.102a21 21 0 0 0-1.162-5.13l2.159-1.08a2 2 0 0 0 .894-2.685 2 2 0 0 0-1.156-1.001 2 2 0 0 0-1.528.107L15.03 13.25a23 23 0 0 0-2.332-3.271A17.94 17.94 0 0 1 24 6zM9.871 12.832q.868 1.05 1.576 2.207l-.342.172a2 2 0 0 0-.894 2.684 2 2 0 0 0 2.684.894l.244-.123c.354 1.069.604 2.182.74 3.334H12a2 2 0 0 0-2 2 2 2 0 0 0 2 2h1.887a17 17 0 0 1-.717 3.35l-.275-.14a2 2 0 0 0-1.528-.106 2 2 0 0 0-1.156 1.001 2 2 0 0 0 .894 2.684l.38.19a18 18 0 0 1-1.6 2.205A17.93 17.93 0 0 1 6 24c0-4.227 1.448-8.102 3.871-11.168zm28.258 0A17.94 17.94 0 0 1 42 24c0 4.235-1.454 8.115-3.885 11.184q-.886-1.05-1.6-2.205l.38-.19a2 2 0 0 0 .894-2.684 2 2 0 0 0-2.684-.894l-.275.139a17 17 0 0 1-.717-3.35H36a2 2 0 0 0 2-2 2 2 0 0 0-2-2h-1.879c.136-1.152.386-2.265.74-3.334l.244.123a2 2 0 0 0 2.684-.894 2 2 0 0 0-.894-2.684l-.342-.172q.707-1.158 1.576-2.207z"/></svg>