<svg xmlns="http://www.w3.org/2000/svg" width="48" height="48" viewBox="0 0 48 48"><path d="M14.703 6.023a2 2 0 0 0-1.492 2.872l2.66 5.32-4.488 16.693c-2.196.337-4.283.695-5.73 1.244-.898.34-1.662.716-2.329 1.272C2.657 33.979 2 34.876 2 36c0 .952.498 1.738 1.008 2.236s1.075.83 1.709 1.13c1.266.598 2.842 1.042 4.748 1.423C13.276 41.551 18.369 42 24 42c5.63 0 10.724-.449 14.535-1.21 1.906-.382 3.482-.826 4.748-1.425.634-.3 1.2-.63 1.71-1.129C45.501 37.738 46 36.952 46 36c0-1.124-.657-2.02-1.324-2.576s-1.431-.931-2.328-1.272c-1.483-.562-3.601-.935-5.87-1.275l-7.613-19.602a2 2 0 0 0-1.232-1.171l-12-4a2 2 0 0 0-.93-.08zm4.244 5.4 6.53 2.177 7.658 19.718a2 2 0 0 0 1.619 1.262c2.753.34 4.893.827 6.174 1.313.03.01.026.018.054.029-.79.315-1.784.655-3.232.945C34.323 37.553 29.415 38 24 38s-10.323-.447-13.75-1.133a18 18 0 0 1-3.232-.945c.028-.011.024-.018.054-.03 1.28-.485 3.421-.972 6.174-1.312a2 2 0 0 0 1.686-1.467l5-18.593a2 2 0 0 0-.143-1.415z"/></svg>