<svg xmlns="http://www.w3.org/2000/svg" width="48" height="48" viewBox="0 0 48 48"><path d="M13 6a2 2 0 0 0-.549.086l-.115.035a2 2 0 0 0-.486.248l-.069.057a2 2 0 0 0-.195.16l-8 8a2 2 0 0 0 0 2.828 2 2 0 0 0 2.828 0L11 12.828V42a2 2 0 0 0 2 2 2 2 0 0 0 2-2V8l-.002-.035a2 2 0 0 0-.01-.154l-.004-.059a2 2 0 0 0-.037-.203l-.015-.06a2 2 0 0 0-.15-.397l-.03-.055a2 2 0 0 0-.078-.127l-.047-.072a2 2 0 0 0-.13-.164l-.017-.016-.066-.072-.033-.027a2 2 0 0 0-.27-.221l-.004-.002a2 2 0 0 0-.304-.164l-.063-.027a2 2 0 0 0-.324-.098l-.059-.012A2 2 0 0 0 13 6zm10 1a2 2 0 0 0-2 2 2 2 0 0 0 2 2h20a2 2 0 0 0 2-2 2 2 0 0 0-2-2zm0 10a2 2 0 0 0-2 2 2 2 0 0 0 2 2h16a2 2 0 0 0 2-2 2 2 0 0 0-2-2zm0 10a2 2 0 0 0-2 2 2 2 0 0 0 2 2h12a2 2 0 0 0 2-2 2 2 0 0 0-2-2zm0 10a2 2 0 0 0-2 2 2 2 0 0 0 2 2h8a2 2 0 0 0 2-2 2 2 0 0 0-2-2z"/></svg>