<svg xmlns="http://www.w3.org/2000/svg" width="48" height="48" viewBox="0 0 48 48"><path d="M24 1C11.321 1 1 11.321 1 24c0 6.34 2.576 12.104 6.736 16.264a2 2 0 0 0 2.828 0 2 2 0 0 0 0-2.828 18.96 18.96 0 0 1-4.837-8.227 2 2 0 0 0 .2-.027l3.897-.9a2 2 0 0 0 1.5-2.4 2 2 0 0 0-2.398-1.497l-3.88.894a18.93 18.93 0 0 1 3.37-12.162l2.588 2.096a2 2 0 0 0 2.814-.295 2 2 0 0 0-.297-2.813l-2.482-2.01A18.9 18.9 0 0 1 22 5.105V8a2 2 0 0 0 2 2 2 2 0 0 0 2-2V5.104a18.9 18.9 0 0 1 10.96 4.992l-2.481 2.01a2 2 0 0 0-.297 2.812 2 2 0 0 0 2.814.295l2.588-2.096a18.93 18.93 0 0 1 3.37 12.162l-3.88-.894a2 2 0 0 0-2.398 1.498 2 2 0 0 0 1.5 2.398l3.896.9a2 2 0 0 0 .201.028 18.96 18.96 0 0 1-4.837 8.227 2 2 0 0 0 0 2.828 2 2 0 0 0 2.828 0A22.95 22.95 0 0 0 47 24C47 11.321 36.679 1 24 1zm6.2 15.781a2 2 0 0 0-.637.137s-2.277.898-4.762 2.004a65 65 0 0 0-3.662 1.748c-1.123.59-1.996 1.022-2.8 1.853-2.285 2.367-2.217 6.2.15 8.485s6.198 2.218 8.484-.149c.803-.831 1.204-1.72 1.754-2.863a65 65 0 0 0 1.619-3.719c1.018-2.522 1.836-4.83 1.836-4.83a2 2 0 0 0-1.983-2.666zm-3.43 5.65c-.071.178-.06.168-.133.348a62 62 0 0 1-1.514 3.483c-.487 1.011-1.065 1.855-1.03 1.818a1.97 1.97 0 0 1-2.825.05 1.97 1.97 0 0 1-.051-2.827c-.036.037.79-.57 1.783-1.092a62 62 0 0 1 3.426-1.635c.178-.08.168-.067.344-.144z"/></svg>