<svg xmlns="http://www.w3.org/2000/svg" width="48" height="48" viewBox="0 0 48 48"><g clip-path="url(#a)"><path d="M18.237 24.475c1.856 1.299 2.33 2.674 3.609 3.57 1.4.98 2.947 1.5 4.169 1.014 2.307-.916 3.976-3.908 6.011-6.815 3.96-5.655 3.954-14.385.26-16.971-3.692-2.586-11.843.433-15.802 6.088-1.935 2.763-4.47 6.445-4.317 8.002.129 1.311.57 2.042 1.958 3.275s2.132.45 4.112 1.837z"/><path d="M28.848 2.305c-1.656.008-3.39.413-5.073 1.052-3.364 1.28-6.676 3.637-8.93 6.856-.97 1.387-2.113 3.028-3.029 4.59-.457.78-.86 1.538-1.164 2.289-.304.75-.574 1.467-.476 2.467.165 1.681 1.096 3.22 2.62 4.574.985.873 2.139 1.19 2.74 1.32.6.13.805.136 1.554.66.722.506 1.141.983 1.627 1.57.485.589 1.044 1.342 1.982 1.999 1.695 1.186 3.839 2.116 6.055 1.236 3.388-1.345 4.95-4.728 6.91-7.527 2.258-3.224 3.326-7.156 3.361-10.764s-.88-7.093-3.591-8.992c-1.357-.95-2.931-1.338-4.586-1.33Zm-.065 4.066c1.035-.007 1.865.198 2.356.541.98.687 1.914 2.859 1.886 5.676-.027 2.817-.934 6.077-2.636 8.508-2.111 3.014-3.886 5.618-5.112 6.105-.227.09-1.18-.021-2.285-.795-.34-.238-.656-.621-1.191-1.27-.535-.647-1.282-1.506-2.416-2.3a8.1 8.1 0 0 0-3.002-1.291c-.614-.133-.525-.043-.93-.402-1.252-1.112-1.203-1.034-1.295-1.975.022.221.013-.108.201-.572.189-.464.51-1.09.909-1.77.797-1.36 1.89-2.942 2.853-4.318 1.706-2.437 4.45-4.415 7.074-5.412 1.312-.5 2.553-.718 3.588-.725z"/><path d="M14.963 20.836a2 2 0 0 0-2.826.137c-1.91 2.103-3.166 4.062-3.5 6.177-.334 2.116.628 4.293 2.35 5.631 1.748 1.36 4.081 1.756 6.22 1.104 2.139-.653 4.147-2.13 6.252-4.28a2 2 0 0 0-.03-2.828 2 2 0 0 0-2.83.032c-1.832 1.872-3.427 2.904-4.56 3.25-1.133.345-1.74.23-2.598-.436-.884-.687-.989-1.003-.855-1.85.134-.846.881-2.316 2.512-4.11a2 2 0 0 0-.135-2.827z"/><path d="M33.877 29.662c-2.764.249-5.237 1.911-7.215 3.73-2.637 2.426-4.758 5.392-6.049 6.881-1.986 2.292-6.18 2.674-8.42-.68-.744-1.114-.93-2.021-.736-3.1s.877-2.407 2.258-3.917a2 2 0 0 0-.127-2.824 2 2 0 0 0-2.826.125c-1.716 1.877-2.866 3.825-3.24 5.904-.375 2.08.132 4.218 1.345 6.033 3.633 5.439 11.074 5.34 14.768 1.079 1.549-1.787 3.52-4.521 5.734-6.557s4.304-3.115 6.268-2.557c2.26.643 2.699 1.787 2.695 2.823-.004 1.035-.59 1.88-1.547 2.044a2 2 0 0 0-1.635 2.31 2 2 0 0 0 2.309 1.634c2.982-.51 4.862-3.213 4.873-5.973.01-2.76-1.987-5.658-5.602-6.685a7.8 7.8 0 0 0-2.853-.27z"/></g><defs><clipPath id="a"><path d="M0 0h48v48H0z"/></clipPath></defs></svg>