<svg xmlns="http://www.w3.org/2000/svg" width="48" height="48" viewBox="0 0 48 48"><path d="M21 20c-5.5 0-10 4.5-10 10v14a2 2 0 0 0 2 2 2 2 0 0 0 2-2V30c0-3.337 2.663-6 6-6h16a2 2 0 0 0 2-2 2 2 0 0 0-2-2zM37 3.944a5 5 0 0 1 5 5 5 5 0 0 1-5 5 5 5 0 0 1-5-5 5 5 0 0 1 5-5z"/><path d="M29.999 8.944c0 3.842 3.158 7 7 7s7-3.158 7-7-3.157-7-7-7-7 3.158-7 7zm4 0c0-1.68 1.32-3 3-3s3 1.32 3 3-1.32 3-3 3-3-1.32-3-3z"/><path d="M37 12a2 2 0 0 0-2 2v29a2 2 0 0 0 2 2 2 2 0 0 0 2-2V14a2 2 0 0 0-2-2z"/><path d="M30.586 37.586a2 2 0 0 0 0 2.828l5 5a2 2 0 0 0 2.828 0l5-5a2 2 0 0 0 0-2.828 2 2 0 0 0-2.828 0L37 41.172l-3.586-3.586a2 2 0 0 0-2.828 0zM8 37a2 2 0 0 0-1.414.586 2 2 0 0 0 0 2.828l5 5a2 2 0 0 0 2.828 0l5-5a2 2 0 0 0 0-2.828 2 2 0 0 0-2.828 0L13 41.172l-3.586-3.586A2 2 0 0 0 8 37Z"/></svg>