<svg xmlns="http://www.w3.org/2000/svg" width="48" height="48" viewBox="0 0 48 48"><path d="M24 4c5.54 0 10 4.46 10 10s-4.46 10-10 10-10-4.46-10-10S18.46 4 24 4Z"/><path d="M24 2c-6.613 0-12 5.387-12 12s5.387 12 12 12 12-5.387 12-12S30.613 2 24 2Zm0 4c4.467 0 8 3.533 8 8s-3.533 8-8 8-8-3.533-8-8 3.533-8 8-8z"/><path d="M24 22a2 2 0 0 0-2 2v12a2 2 0 0 0 2 2 2 2 0 0 0 2-2V24a2 2 0 0 0-2-2z"/><path d="M24 36c1.662 0 3 1.338 3 3v2c0 1.662-1.338 3-3 3s-3-1.338-3-3v-2c0-1.662 1.338-3 3-3z"/><path d="M24 34c-2.735 0-5 2.265-5 5v2c0 2.735 2.265 5 5 5s5-2.265 5-5v-2c0-2.735-2.265-5-5-5zm0 4c.589 0 1 .411 1 1v2c0 .589-.411 1-1 1s-1-.411-1-1v-2c0-.589.411-1 1-1z"/></svg>