<svg xmlns="http://www.w3.org/2000/svg" width="48" height="48" viewBox="0 0 48 48"><path d="M16.398 3a2 2 0 0 0-1.199.4l-2.6 1.95L10 3.4a2 2 0 0 0-2.613.186l-3.801 3.8A2 2 0 0 0 3.4 10l1.95 2.6-1.95 2.6a2 2 0 0 0 0 2.4l1.95 2.6-1.95 2.6a2 2 0 0 0 0 2.4l1.95 2.6-1.95 2.6a2 2 0 0 0 0 2.4l1.95 2.6L3.4 38a2 2 0 0 0 .186 2.613l3.8 3.801A2 2 0 0 0 10 44.6l2.6-1.95 2.6 1.95a2 2 0 0 0 2.4 0l2.6-1.95 2.6 1.95a2 2 0 0 0 2.4 0l2.6-1.95 2.6 1.95a2 2 0 0 0 2.4 0l2.6-1.95L38 44.6a2 2 0 0 0 2.613-.186l3.801-3.8A2 2 0 0 0 44.6 38l-1.95-2.6 1.95-2.6a2 2 0 0 0 0-2.4l-1.95-2.6 1.95-2.6a2 2 0 0 0 0-2.4l-1.95-2.6 1.95-2.6a2 2 0 0 0 0-2.4l-1.95-2.6L44.6 10a2 2 0 0 0-.186-2.613l-3.8-3.801A2 2 0 0 0 38 3.4l-2.6 1.95-2.6-1.95a2 2 0 0 0-2.4 0l-2.6 1.95-2.6-1.95a2 2 0 0 0-2.4 0l-2.6 1.95-2.6-1.95a2 2 0 0 0-1.202-.4ZM24 13c6.051 0 11 4.949 11 11s-4.949 11-11 11-11-4.949-11-11 4.949-11 11-11z"/><path d="M24 17c-3.89 0-7 3.11-7 7s3.11 7 7 7 7-3.11 7-7-3.11-7-7-7z"/></svg>