<svg xmlns="http://www.w3.org/2000/svg" width="48" height="48" viewBox="0 0 48 48"><path d="M6 33a2 2 0 0 0-2 2v8a2 2 0 0 0 2 2h36a2 2 0 0 0 2-2v-8a2 2 0 0 0-2-2 2 2 0 0 0-2 2v6H8v-4h23a2 2 0 0 0 2-2 2 2 0 0 0-2-2zM8.998 8.982a2 2 0 0 0-2.564 1.196l-2.737 7.517a2 2 0 0 0 1.196 2.563l24.175 8.8a2 2 0 0 0 2.565-1.195 2 2 0 0 0-1.195-2.564L8.14 17.184l1.369-3.76L37.7 23.686a2 2 0 0 0 2.564-1.196 2 2 0 0 0-1.196-2.562z"/><path d="M10.996 3.95c-1.06-.394-2.292.173-2.685 1.234l-1.817 4.9a2 2 0 0 0 1.18 2.57l14.514 5.38c1.029.38 2.226-.167 2.609-1.198 1.39-3.75-.549-7.973-4.299-9.363zm.4 4.415 7.711 2.858c1.012.375 1.67 1.187 1.957 2.129L10.94 9.598zM8.98 17.762a2 2 0 0 0-2.562 1.195l-1.367 3.76c-.559 1.534.258 3.287 1.793 3.846l6.576 2.392c1.535.559 3.287-.258 3.846-1.793l1.369-3.758a2 2 0 0 0-1.196-2.564 2 2 0 0 0-2.564 1.195l-1.025 2.82-4.7-1.71 1.026-2.819a2 2 0 0 0-1.196-2.564ZM43 30a7 7 0 0 1-7 7 7 7 0 0 1-7-7 7 7 0 0 1 7-7 7 7 0 0 1 7 7z"/><path d="M36 21c-4.947 0-9 4.053-9 9s4.053 9 9 9 9-4.053 9-9-4.053-9-9-9zm0 4c2.785 0 5 2.215 5 5s-2.215 5-5 5a4.97 4.97 0 0 1-5-5c0-2.785 2.215-5 5-5z"/></svg>