<svg xmlns="http://www.w3.org/2000/svg" width="48" height="48" viewBox="0 0 48 48"><path d="M29.508 4.248a11 11 0 0 0-.574.004c-3.03.1-5.45 1.27-6.829 1.959a2 2 0 0 0-1.013 2.387L25.279 22H13.301l-3.473-7.812A2 2 0 0 0 8 13H3.5a2 2 0 0 0-2 2 2 2 0 0 0 2 2h3.201l3.404 7.662 2.456 9.822A2 2 0 0 0 14.5 36H36a2 2 0 0 0 1.857-1.258l3.975-9.94.025-.06.01-.031c.204-.493 3.76-9.413-2.953-16.125-3.125-3.126-6.5-4.287-9.406-4.338zM31 36c-2.738 0-5 2.262-5 5s2.262 5 5 5 5-2.262 5-5-2.262-5-5-5zm-11 0c-2.738 0-5 2.262-5 5s2.262 5 5 5 5-2.262 5-5-2.262-5-5-5zm9.455-27.754c1.955.016 4.131.669 6.63 3.168 3.79 3.79 3.09 8.44 2.485 10.586h-9.1L25.446 9.123c1.072-.438 2.26-.828 3.621-.873q.194-.006.39-.004zM14.561 26h22.486l-2.4 6H16.062zM20 40c.576 0 1 .424 1 1s-.424 1-1 1-1-.424-1-1 .424-1 1-1zm11 0c.576 0 1 .424 1 1s-.424 1-1 1-1-.424-1-1 .424-1 1-1z"/></svg>