<svg xmlns="http://www.w3.org/2000/svg" width="48" height="48" viewBox="0 0 48 48"><path d="M40 24H12l2.5 10H36Z"/><path d="M12 22a2 2 0 0 0-1.94 2.484l2.5 10A2 2 0 0 0 14.5 36H36a2 2 0 0 0 1.857-1.258l4-10A2 2 0 0 0 40 22Zm2.56 4h22.487l-2.4 6H16.062Z"/><path d="M3.5 13a2 2 0 0 0-2 2 2 2 0 0 0 2 2h3.201l3.47 7.813a2 2 0 0 0 2.642 1.015 2 2 0 0 0 1.015-2.64l-4-9A2 2 0 0 0 8 13ZM23 41a3 3 0 0 1-3 3 3 3 0 0 1-3-3 3 3 0 0 1 3-3 3 3 0 0 1 3 3z"/><path d="M20 36c-2.738 0-5 2.262-5 5s2.262 5 5 5 5-2.262 5-5-2.262-5-5-5zm0 4c.576 0 1 .424 1 1s-.424 1-1 1-1-.424-1-1 .424-1 1-1zm14 1a3 3 0 0 1-3 3 3 3 0 0 1-3-3 3 3 0 0 1 3-3 3 3 0 0 1 3 3z"/><path d="M31 36c-2.738 0-5 2.262-5 5s2.262 5 5 5 5-2.262 5-5-2.262-5-5-5zm0 4c.576 0 1 .424 1 1s-.424 1-1 1-1-.424-1-1 .424-1 1-1zM23 8l5 16h12s3.5-8-2.5-14S25.667 6.667 23 8z"/><path d="M28.934 4.252c-3.03.1-5.45 1.27-6.829 1.959a2 2 0 0 0-1.013 2.387l5 16A2 2 0 0 0 28 26h12a2 2 0 0 0 1.832-1.197s3.986-9.314-2.918-16.217c-3.334-3.334-6.951-4.433-9.98-4.334Zm.132 3.998c2.055-.067 4.354.498 7.02 3.164 3.79 3.79 3.09 8.44 2.484 10.586h-9.1L25.446 9.123c1.072-.438 2.26-.828 3.621-.873Z"/></svg>