<svg xmlns="http://www.w3.org/2000/svg" width="48" height="48" viewBox="0 0 48 48"><path d="M21.947 2a2 2 0 0 0-2 2v1h-7.894V4h-4v1H4a2 2 0 0 0-2 2v14c0 6.067 5 13 14 13s14-6.933 14-13V7a2 2 0 0 0-2-2h-4.053V4a2 2 0 0 0-2-2zM6 9h2.053v1h4V9h7.894v1a2 2 0 0 0 2 2 2 2 0 0 0 2-2V9H26v12c0 3.933-3 9-10 9S6 24.933 6 21Zm34 14a4 4 0 1 0 0-8 4 4 0 0 0 0 8z"/><path d="M40 13c-3.29 0-6 2.71-6 6s2.71 6 6 6 6-2.71 6-6-2.71-6-6-6zm0 4c1.128 0 2 .872 2 2s-.872 2-2 2-2-.872-2-2 .872-2 2-2z"/><path d="M40 21a2 2 0 0 0-2 2v9a9.97 9.97 0 0 1-10 10 9.97 9.97 0 0 1-10-10 2 2 0 0 0-2-2 2 2 0 0 0-2 2c0 7.708 6.292 14 14 14s14-6.292 14-14v-9a2 2 0 0 0-2-2z"/></svg>