<svg xmlns="http://www.w3.org/2000/svg" width="48" height="48" viewBox="0 0 48 48"><path d="M6 20h8v14H6Z"/><path d="M6 18a2 2 0 0 0-2 2v14a2 2 0 0 0 2 2h8a2 2 0 0 0 2-2V20a2 2 0 0 0-2-2zm2 4h4v10H8Zm12-8h8v26h-8z"/><path d="M20 12a2 2 0 0 0-2 2v26a2 2 0 0 0 2 2h8a2 2 0 0 0 2-2V14a2 2 0 0 0-2-2zm2 4h4v22h-4z"/><path d="M24 38a2 2 0 0 0-2 2v4a2 2 0 0 0 2 2 2 2 0 0 0 2-2v-4a2 2 0 0 0-2-2zm10-26h8v9h-8z"/><path d="M34 10a2 2 0 0 0-2 2v9a2 2 0 0 0 2 2h8a2 2 0 0 0 2-2v-9a2 2 0 0 0-2-2zm2 4h4v5h-4z"/><path d="M10 8a2 2 0 0 0-2 2v10a2 2 0 0 0 2 2 2 2 0 0 0 2-2V10a2 2 0 0 0-2-2Zm28 11a2 2 0 0 0-2 2v13a2 2 0 0 0 2 2 2 2 0 0 0 2-2V21a2 2 0 0 0-2-2zm0-17a2 2 0 0 0-2 2v8a2 2 0 0 0 2 2 2 2 0 0 0 2-2V4a2 2 0 0 0-2-2Z"/></svg>