<svg xmlns="http://www.w3.org/2000/svg" width="48" height="48" viewBox="0 0 48 48"><path d="m5.58 36.187 33.483-5.904a1.996 1.996 0 0 1 2.317 1.622l.347 1.97a1.996 1.996 0 0 1-1.622 2.317L6.622 42.096a1.995 1.995 0 0 1-2.317-1.623l-.348-1.97a1.995 1.995 0 0 1 1.623-2.316z"/><path d="M5.232 34.216c-2.149.379-3.623 2.486-3.244 4.634l.347 1.97c.379 2.148 2.485 3.623 4.634 3.244l33.483-5.904c2.147-.378 3.624-2.485 3.245-4.634l-.348-1.97c-.378-2.147-2.487-3.622-4.633-3.244zm.695 3.94L39.41 32.25l.347 1.97-33.483 5.904z"/><path d="M38.586 34.586a2 2 0 0 0 0 2.828l4 4a2 2 0 0 0 2.828 0 2 2 0 0 0 0-2.828l-4-4a2 2 0 0 0-2.828 0zM8 4l18.385 18.385-4.243 4.242L9.414 13.9c-2.828-2.828-2.828-4.242-2.828-5.656C6.586 6.828 8 4 8 4Z"/><path d="M7.68 2.025a2 2 0 0 0-1.47 1.08s-.387.773-.774 1.743c-.388.969-.85 2.02-.85 3.394 0 .707.006 1.816.496 3.041.49 1.226 1.386 2.5 2.918 4.031 2.828 2.829 12.729 12.727 12.729 12.727a2 2 0 0 0 2.828 0l4.242-4.242a2 2 0 0 0 0-2.828L9.414 2.586a2 2 0 0 0-1.734-.56Zm1.095 5.579 14.782 14.78-1.414 1.415-11.315-11.315C9.532 11.188 9.014 10.341 8.797 9.8s-.211-.85-.211-1.557c0-.013.14-.443.19-.638Z"/><path d="M8 2a2 2 0 0 0-1.414.586 2 2 0 0 0 0 2.828l18 18 9 9a2 2 0 0 0 2.828 0 2 2 0 0 0 0-2.828l-9-9-18-18A2 2 0 0 0 8 2Z"/></svg>