<svg xmlns="http://www.w3.org/2000/svg" width="48" height="48" viewBox="0 0 48 48"><path d="M24 10c-7.708 0-14 6.292-14 14s6.292 14 14 14 14-6.292 14-14-6.292-14-14-14zm0 4a9.97 9.97 0 0 1 10 10 9.97 9.97 0 0 1-10 10 9.97 9.97 0 0 1-10-10 9.97 9.97 0 0 1 10-10zm0-13a2 2 0 0 0-2 2v3.15a2 2 0 0 0 4 0V3a2 2 0 0 0-2-2ZM9.15 7.15a2 2 0 0 0-1.414 3.414l2.227 2.229a2 2 0 1 0 2.83-2.828l-2.229-2.229A2 2 0 0 0 9.15 7.15Zm29.7 0a2 2 0 0 0-1.414.586l-2.229 2.229a2 2 0 1 0 2.83 2.828l2.227-2.229A2 2 0 0 0 38.85 7.15ZM3 22a2 2 0 0 0 0 4h3.15a2 2 0 0 0 0-4zm38.85 0a2 2 0 0 0 0 4H45a2 2 0 0 0 0-4zm-5.23 12.621a2 2 0 0 0-1.414 3.416l2.229 2.227a2 2 0 0 0 2.828-2.828l-2.227-2.229a2 2 0 0 0-1.416-.586zm-25.244.002a2 2 0 0 0-1.414.584l-2.227 2.229a2 2 0 0 0 2.828 2.828l2.229-2.227a2 2 0 0 0-1.416-3.414zM24 39.85a2 2 0 0 0-2 2V45a2 2 0 0 0 4 0v-3.15a2 2 0 0 0-2-2z"/></svg>