<svg xmlns="http://www.w3.org/2000/svg" width="48" height="48" viewBox="0 0 48 48"><path d="M21.994 2a2 2 0 0 0-2 2v23a2 2 0 0 0 2 2h22a2 2 0 0 0 2-2v-6.037a2 2 0 0 0-2-2 2 2 0 0 0-2 2V25h-18V6h5.639a2 2 0 0 0 2-2 2 2 0 0 0-2-2zM45 4a2 2 0 0 0-1.414.586L33.545 14.635l-3.149-3.065a2 2 0 0 0-2.828.037 2 2 0 0 0 .04 2.829l4.562 4.441a2 2 0 0 0 2.81-.02L46.414 7.414a2 2 0 0 0 0-2.828A2 2 0 0 0 45 4zM11.004 22.998a2 2 0 0 0-.58.094 2 2 0 0 0-.13.053 2 2 0 0 0-.4.205 2 2 0 0 0-.134.103 2 2 0 0 0-.17.131l-8.004 8.002a2 2 0 0 0 0 2.828 2 2 0 0 0 2.828 0l4.592-4.59V36c0 2.902.712 5.177 1.943 6.814C12.771 45.237 15.511 46 17.66 46h12.347a2 2 0 0 0 2-2 2 2 0 0 0-2-2H17.658c-1.257 0-2.597-.374-3.512-1.59-.618-.822-1.14-2.146-1.14-4.41v-6.176l4.594 4.59a2 2 0 0 0 2.83 0 2 2 0 0 0-.002-2.83l-8.008-7.998-.002-.002-.002-.002a2 2 0 0 0-.393-.3l-.048-.028a2 2 0 0 0-.422-.174l-.059-.017a2 2 0 0 0-.467-.061z"/></svg>