<svg xmlns="http://www.w3.org/2000/svg" width="48" height="48" viewBox="0 0 48 48"><path d="M10 2a2 2 0 0 0-1.414.586 2 2 0 0 0 0 2.828l14 14a2 2 0 0 0 2.828 0l14-14a2 2 0 0 0 0-2.828 2 2 0 0 0-2.828 0L24 15.172 11.414 2.586A2 2 0 0 0 10 2zM4 8a2 2 0 0 0-1.414.586 2 2 0 0 0 0 2.828L15.172 24 2.586 36.586a2 2 0 0 0 0 2.828 2 2 0 0 0 2.828 0l14-14a2 2 0 0 0 0-2.828l-14-14A2 2 0 0 0 4 8zm38.688.025a2 2 0 0 0-1.102.56l-14 14a2 2 0 0 0 0 2.83l14 14a2 2 0 0 0 2.828 0 2 2 0 0 0 0-2.83L31.828 24l12.586-12.586a2 2 0 0 0 0-2.828 2 2 0 0 0-1.727-.56zm-19 20a2 2 0 0 0-1.102.56l-14 14a2 2 0 0 0 0 2.83 2 2 0 0 0 2.828 0L24 32.827l12.586 12.586a2 2 0 0 0 2.828 0 2 2 0 0 0 0-2.828l-14-14a2 2 0 0 0-1.727-.56z"/></svg>