<svg xmlns="http://www.w3.org/2000/svg" width="48" height="48" viewBox="0 0 48 48"><path d="M24 2C11.873 2 2 11.873 2 24s9.873 22 22 22 22-9.873 22-22c0-3.805-.971-7.399-2.678-10.525a2 2 0 0 0-2.713-.797 2 2 0 0 0-.797 2.713A17.9 17.9 0 0 1 42 24c0 9.965-8.035 18-18 18S6 33.965 6 24 14.035 6 24 6c3.127 0 6.052.792 8.61 2.188a2 2 0 0 0 2.712-.797 2 2 0 0 0-.797-2.713A21.9 21.9 0 0 0 24 2zm19.688.025a2 2 0 0 0-1.102.56l-20 20a2 2 0 0 0 0 2.83 2 2 0 0 0 2.828 0l20-20a2 2 0 0 0 0-2.83 2 2 0 0 0-1.727-.56zM24 9C15.74 9 9 15.74 9 24s6.74 15 15 15 15-6.74 15-15c0-1.725-.293-3.39-.832-4.937a2 2 0 0 0-2.547-1.231 2 2 0 0 0-1.23 2.547A11 11 0 0 1 35 24c0 6.099-4.901 11-11 11s-11-4.901-11-11 4.901-11 11-11c1.273 0 2.489.215 3.621.61a2 2 0 0 0 2.547-1.231 2 2 0 0 0-1.23-2.547A15 15 0 0 0 24 9zm-2.428 7.588a2 2 0 0 0-1.017.19A8.01 8.01 0 0 0 16 24c0 4.395 3.605 8 8 8a8.01 8.01 0 0 0 7.223-4.555 2 2 0 0 0-.944-2.668 2 2 0 0 0-2.666.944A3.99 3.99 0 0 1 24 28a3.97 3.97 0 0 1-4-4c0-1.61.935-2.971 2.28-3.613a2 2 0 0 0 .943-2.666 2 2 0 0 0-1.139-1.024 2 2 0 0 0-.512-.11z"/></svg>