<svg xmlns="http://www.w3.org/2000/svg" width="48" height="48" viewBox="0 0 48 48"><path d="M20.162 3c-1.591 0-2.846 1.218-3.133 2.652L16.36 9h-2.154a6.02 6.02 0 0 0-5.842 4.639l.028-.108-2.065 7.073.098-.051A8.01 8.01 0 0 0 2 27.709V35c0 2.738 2.262 5 5 5h.203c.498 2.803 2.86 5 5.797 5s5.299-2.197 5.797-5h10.406c.498 2.803 2.863 5 5.8 5s5.298-2.197 5.796-5H41c2.738 0 5-2.262 5-5v-7.291a8.01 8.01 0 0 0-4.422-7.156l.111.056-1.964-7.021.025.103A6.02 6.02 0 0 0 33.895 9H31.64l-.67-3.348C30.684 4.218 29.429 3 27.838 3zm.678 4h6.32l.4 2h-7.12zm-6.635 6h19.69c.947 0 1.744.64 1.95 1.564l.028.104 2.205 7.873a2 2 0 0 0 1.031 1.25l.68.34A3.99 3.99 0 0 1 42 27.709V35c0 .576-.424 1-1 1h-1.996a2 2 0 0 0-2 2v1c0 1.128-.872 2-2 2A1.97 1.97 0 0 1 33 39v-1a2 2 0 0 0-2-2H17a2 2 0 0 0-2 2v1c0 1.128-.872 2-2 2s-2-.872-2-2v-1a2 2 0 0 0-2-2H7c-.576 0-1-.424-1-1v-7.291a3.99 3.99 0 0 1 2.213-3.578l.682-.34a2 2 0 0 0 1.025-1.229l2.31-7.91.028-.105A1.98 1.98 0 0 1 14.205 13zM15 21a2 2 0 0 0-2 2 2 2 0 0 0 2 2h18a2 2 0 0 0 2-2 2 2 0 0 0-2-2zm-1.5 7a2.5 2.5 0 1 0 0 5 2.5 2.5 0 0 0 0-5zm21 0a2.5 2.5 0 1 0 0 5 2.5 2.5 0 0 0 0-5z"/></svg>