<svg xmlns="http://www.w3.org/2000/svg" width="48" height="48" viewBox="0 0 48 48"><path d="M11 18.167c0-.092.075-.167.167-.167h23.666c.092 0 .167.075.167.167V30c0 6.627-5.373 12-12 12s-12-5.373-12-12Z"/><path d="M11.168 16C9.994 16 9 16.994 9 18.168V30c0 7.708 6.292 14 14 14s14-6.292 14-14V18.168C37 16.994 36.006 16 34.832 16ZM13 20h20v10a9.97 9.97 0 0 1-10 10 9.97 9.97 0 0 1-10-10Z"/><path d="M35 16a2 2 0 0 0-2 2 2 2 0 0 0 2 2c2.233 0 4 1.767 4 4s-1.767 4-4 4a2 2 0 0 0-2 2 2 2 0 0 0 2 2c4.395 0 8-3.605 8-8s-3.605-8-8-8zM11 6a2 2 0 0 0-2 2v3a2 2 0 0 0 2 2 2 2 0 0 0 2-2V8a2 2 0 0 0-2-2Zm24 0a2 2 0 0 0-2 2v3a2 2 0 0 0 2 2 2 2 0 0 0 2-2V8a2 2 0 0 0-2-2ZM23 3a2 2 0 0 0-2 2v6a2 2 0 0 0 2 2 2 2 0 0 0 2-2V5a2 2 0 0 0-2-2Z"/></svg>