<svg xmlns="http://www.w3.org/2000/svg" width="48" height="48" viewBox="0 0 48 48"><path d="M13.117 3q-.259 0-.517.012C6.485 3.296 1.717 8.53 2.002 14.645c.102 2.2 1.046 4.115 1.947 5.869s1.8 3.378 2.131 4.525c1 3.457 1.54 5.313 1.877 8.56.46 4.439 1.268 7.129 2.523 8.938S13.697 45 15 45c1.21 0 2.005-.645 2.592-1.246.586-.601 1.054-1.296 1.515-2.076.923-1.56 1.782-3.476 2.608-5.364s1.615-3.748 2.273-5.044c.007-.014.01-.016.018-.03.595 1.294 1.3 3.14 2.068 5.026.773 1.9 1.6 3.834 2.565 5.43.482.797.994 1.517 1.654 2.128S31.86 45 33 45c2.02 0 3.883-1.306 5.055-3.275 1.172-1.97 1.88-4.65 2.12-8.196.18-2.63.795-5.2 1.747-8.49.338-1.169 1.247-2.71 2.164-4.348S46 17.286 46 15.125V14.5C46 8.172 40.828 3 34.5 3h-.648l-.147.021c-2.674.396-4.491 1.409-5.87 2.141C26.459 5.894 25.6 6.338 24 6.338s-2.456-.444-3.834-1.176-3.198-1.745-5.871-2.14L14.15 3zm0 4h.672c1.936.301 3.083.94 4.498 1.693 1.438.765 3.246 1.645 5.713 1.645s4.275-.88 5.713-1.645c1.415-.752 2.564-1.392 4.5-1.693h.287a7.47 7.47 0 0 1 7.5 7.5v.625c0 .741-.548 2.084-1.404 3.613-.856 1.53-1.945 3.218-2.516 5.188-.978 3.38-1.687 6.26-1.896 9.332-.214 3.134-.873 5.258-1.565 6.422-.627 1.053-1.092 1.27-1.492 1.304.038.027.018.016-.127.016.04 0 .085-.012.127-.016-.021-.014-.037-.02-.117-.095-.225-.208-.582-.658-.95-1.264-.734-1.213-1.53-3.022-2.28-4.865s-1.46-3.72-2.159-5.233c-.349-.756-.684-1.418-1.11-2.017-.425-.6-.97-1.485-2.448-1.485-1.48 0-1.997.845-2.444 1.432s-.813 1.246-1.197 2.002c-.767 1.512-1.559 3.396-2.371 5.252s-1.65 3.684-2.387 4.932c-.369.623-.723 1.098-.935 1.316-.048.048-.031.03-.053.045.093.002.196-.004.324-.004-.36 0-.401.057-.326.004-.28-.008-.46-.103-.908-.748-.597-.86-1.406-2.975-1.83-7.068-.367-3.541-1.013-5.801-2.014-9.26-.548-1.893-1.575-3.605-2.416-5.242s-1.459-3.168-1.508-4.227A7.097 7.097 0 0 1 13.118 7zm2.465 3.467a2 2 0 0 0-2.004 1.383 2 2 0 0 0 1.291 2.517l2.354.758-2.354.76a2 2 0 0 0-1.29 2.517 2 2 0 0 0 2.517 1.29l7.646-2.465 7.645 2.464a2 2 0 0 0 2.517-1.289 2 2 0 0 0-1.29-2.517l-2.354-.76 2.353-.758a2 2 0 0 0 1.291-2.517 2 2 0 0 0-2.517-1.29l-7.645 2.465-7.646-2.464a2 2 0 0 0-.514-.094z"/></svg>