<svg xmlns="http://www.w3.org/2000/svg" width="48" height="48" viewBox="0 0 48 48"><path d="M24 2a2 2 0 0 0-2 2v12a2 2 0 0 0 2 2 2 2 0 0 0 2-2V4a2 2 0 0 0-2-2zM8 8a2 2 0 0 0-2 2v28a2 2 0 0 0 2 2 2 2 0 0 0 2-2V10a2 2 0 0 0-2-2zm29.05 9.012a2 2 0 0 0-1.411.588 2 2 0 0 0 .006 2.828L37.223 22H16a2 2 0 0 0-2 2 2 2 0 0 0 2 2h21.33l-1.697 1.717a2 2 0 0 0 .017 2.828 2 2 0 0 0 2.829-.016l5.037-5.097a2 2 0 0 0-.012-2.825l-5.037-5.013a2 2 0 0 0-1.416-.582zM24 30a2 2 0 0 0-2 2v12a2 2 0 0 0 2 2 2 2 0 0 0 2-2V32a2 2 0 0 0-2-2z"/></svg>