<svg xmlns="http://www.w3.org/2000/svg" width="48" height="48" viewBox="0 0 48 48"><path d="m6 10 36-6v7L6 17Z"/><path d="m41.672 2.027-36 6A2 2 0 0 0 4 10v7a2 2 0 0 0 2.328 1.973l36-6A2 2 0 0 0 44 11V4a2 2 0 0 0-2.328-1.973ZM40 6.361v2.946L8 14.639v-2.946zM6 24l36-6v7L6 31Z"/><path d="m41.672 16.027-36 6A2 2 0 0 0 4 24v7a2 2 0 0 0 2.328 1.973l36-6A2 2 0 0 0 44 25v-7a2 2 0 0 0-2.328-1.973ZM40 20.361v2.946L8 28.639v-2.946zM6 38l36-6v7L6 45Z"/><path d="m41.672 30.027-36 6A2 2 0 0 0 4 38v7a2 2 0 0 0 2.328 1.973l36-6A2 2 0 0 0 44 39v-7a2 2 0 0 0-2.328-1.973ZM40 34.361v2.946L8 42.639v-2.946z"/></svg>