<svg xmlns="http://www.w3.org/2000/svg" width="48" height="48" viewBox="0 0 48 48"><path d="M4 6a2 2 0 0 0-2 2v32a2 2 0 0 0 2 2h7a2 2 0 0 0 1.96-1.607s.185-.863.804-1.747C14.382 37.763 15.167 37 17 37s2.618.763 3.236 1.646a5.3 5.3 0 0 1 .803 1.747A2 2 0 0 0 23 42h21a2 2 0 0 0 2-2V8a2 2 0 0 0-2-2H23a2 2 0 0 0-1.96 1.607s-.185.863-.804 1.747C19.618 10.237 18.833 11 17 11s-2.618-.763-3.236-1.646c-.619-.884-.803-1.747-.803-1.747A2 2 0 0 0 11 6Zm13 11a2 2 0 0 1 2 2v2a2 2 0 0 1-4 0v-2a2 2 0 0 1 2-2zm8 2h11a2 2 0 0 1 0 4H25a2 2 0 0 1 0-4zm-8 6a2 2 0 0 1 2 2v2a2 2 0 0 1-4 0v-2a2 2 0 0 1 2-2zm8 0h11a2 2 0 0 1 0 4H25a2 2 0 0 1 0-4z"/></svg>