<svg xmlns="http://www.w3.org/2000/svg" width="48" height="48" viewBox="0 0 48 48"><g clip-path="url(#a)"><path d="M13 12a4 4 0 1 0 8 0 4 4 0 0 0-8 0z"/><path d="M17 6c-3.29 0-6 2.71-6 6s2.71 6 6 6 6-2.71 6-6-2.71-6-6-6zm0 4c1.128 0 2 .872 2 2s-.872 2-2 2-2-.872-2-2 .872-2 2-2zm14 14a4 4 0 1 0 8 0 4 4 0 0 0-8 0z"/><path d="M35 18c-3.29 0-6 2.71-6 6s2.71 6 6 6 6-2.71 6-6-2.71-6-6-6zm0 4c1.128 0 2 .872 2 2s-.872 2-2 2-2-.872-2-2 .872-2 2-2zM13 36a4 4 0 1 0 8 0 4 4 0 0 0-8 0z"/><path d="M17 30c-3.29 0-6 2.71-6 6s2.71 6 6 6 6-2.71 6-6-2.71-6-6-6zm0 4c1.128 0 2 .872 2 2s-.872 2-2 2-2-.872-2-2 .872-2 2-2z"/><path d="M4 34a2 2 0 0 0-2 2 2 2 0 0 0 2 2h9a2 2 0 0 0 2-2 2 2 0 0 0-2-2zm17 0a2 2 0 0 0-2 2 2 2 0 0 0 2 2h23a2 2 0 0 0 2-2 2 2 0 0 0-2-2zM4 10a2 2 0 0 0-2 2 2 2 0 0 0 2 2h9a2 2 0 0 0 2-2 2 2 0 0 0-2-2zm17 0a2 2 0 0 0-2 2 2 2 0 0 0 2 2h23a2 2 0 0 0 2-2 2 2 0 0 0-2-2z"/><path d="M4 2a2 2 0 0 0-2 2v40a2 2 0 0 0 2 2 2 2 0 0 0 2-2V4a2 2 0 0 0-2-2Z"/><path d="M4 22a2 2 0 0 0-2 2 2 2 0 0 0 2 2h27a2 2 0 0 0 2-2 2 2 0 0 0-2-2zm35 0a2 2 0 0 0-2 2 2 2 0 0 0 2 2h5a2 2 0 0 0 2-2 2 2 0 0 0-2-2z"/></g><defs><clipPath id="a"><path d="M0 0h48v48H0z"/></clipPath></defs></svg>