<svg xmlns="http://www.w3.org/2000/svg" width="48" height="48" viewBox="0 0 48 48"><path d="M4 7a2 2 0 0 0-.203.041 2 2 0 0 0-.385.076 2 2 0 0 0-.35.15 2 2 0 0 0-.326.217 2 2 0 0 0-.265.274 2 2 0 0 0-.149.152 2 2 0 0 0-.068.174 2 2 0 0 0-.143.354 2 2 0 0 0-.076.384A2 2 0 0 0 2 9v28a2 2 0 0 0 2 2h20.76c1.608 4.087 5.598 7 10.24 7 6.051 0 11-4.949 11-11V8.998a2 2 0 0 0-.148-.742l-.012-.033a2 2 0 0 0-.162-.313 2 2 0 0 0-.149-.152 2 2 0 0 0-.265-.274 2 2 0 0 0-.327-.216 2 2 0 0 0-.35-.15 2 2 0 0 0-.384-.077A2 2 0 0 0 44 7zm6.748 4h26.504L24 19.615zM6 12.686l16.91 10.992a2 2 0 0 0 2.18 0L42 12.686V26.53A10.94 10.94 0 0 0 35 24c-6.051 0-11 4.949-11 11H6zM35 28c3.89 0 7 3.11 7 7s-3.11 7-7 7-7-3.11-7-7 3.11-7 7-7zm-1 2a2 2 0 0 0-2 2v4a2 2 0 0 0 2 2h4a2 2 0 0 0 2-2 2 2 0 0 0-2-2h-2v-2a2 2 0 0 0-2-2z"/></svg>