<svg xmlns="http://www.w3.org/2000/svg" width="48" height="48" viewBox="0 0 48 48"><path d="M19.999 10h8v12h-8z"/><path d="M19.998 8a2 2 0 0 0-2 2v12a2 2 0 0 0 2 2h8a2 2 0 0 0 2-2V10a2 2 0 0 0-2-2zm2 4h4v8h-4zm9.551 21.076a2 2 0 0 0-1.52.176 2 2 0 0 0-.777 2.719L32.6 42H15.398l3.35-6.03a2 2 0 0 0-.777-2.718 2 2 0 0 0-2.719.777L10.824 42h1.174a2 2 0 0 0 0 4h24a2 2 0 0 0 1.75-2.97l-5-9a2 2 0 0 0-1.2-.954z"/><path d="M14.998 2c-1.633 0-3 1.367-3 3v17a2 2 0 0 0 2 2 2 2 0 0 0 2-2V6h16v16a2 2 0 0 0 2 2 2 2 0 0 0 2-2V5c0-1.633-1.367-3-3-3z"/><path d="M6.371 20c-1.426 0-2.553 1.407-2.244 2.799 1.34 6.029 5.15 11.65 11.334 13.666C18.074 37.316 21.03 38 24 38s5.926-.684 8.54-1.535c6.182-2.015 9.991-7.637 11.331-13.666v-.002C44.18 21.406 43.053 20 41.627 20Zm2.348 4H39.28c-1.412 4.05-4.094 7.395-7.982 8.662C28.944 33.43 26.34 34 24 34s-4.945-.57-7.3-1.338c-3.888-1.267-6.568-4.614-7.981-8.662Z"/></svg>