<svg xmlns="http://www.w3.org/2000/svg" width="48" height="48" viewBox="0 0 48 48"><path d="M4 6a2 2 0 0 0-2 2v30a2 2 0 0 0 2 2h14.172l4.414 4.414a2 2 0 0 0 2.828 0L29.828 40H44a2 2 0 0 0 2-2V8a2 2 0 0 0-2-2zm2 4h36v26H29a2 2 0 0 0-1.414.586L24 40.172l-3.586-3.586A2 2 0 0 0 19 36H6zm15.117 3.004a2 2 0 0 0-2.113 1.879L18.82 18H16a2 2 0 0 0-2 2 2 2 0 0 0 2 2h2.586l-.176 3H15a2 2 0 0 0-2 2 2 2 0 0 0 2 2h3.174l-.17 2.883a2 2 0 0 0 1.879 2.113 2 2 0 0 0 2.113-1.879L22.18 29h2.994l-.17 2.883a2 2 0 0 0 1.879 2.113 2 2 0 0 0 2.113-1.879L29.18 29H32a2 2 0 0 0 2-2 2 2 0 0 0-2-2h-2.584l.176-3H33a2 2 0 0 0 2-2 2 2 0 0 0-2-2h-3.174l.17-2.883a2 2 0 0 0-1.879-2.113 2 2 0 0 0-2.113 1.879L25.82 18h-2.994l.17-2.883a2 2 0 0 0-1.879-2.113zM22.592 22h2.994l-.176 3h-2.994z"/></svg>