<svg xmlns="http://www.w3.org/2000/svg" width="48" height="48" viewBox="0 0 48 48"><path d="m22.592 22-.178 3h2.994l.178-3z"/><path d="M4 6a2 2 0 0 0-2 2v30a2 2 0 0 0 2 2h14.172l4.414 4.414a2 2 0 0 0 2.828 0L29.828 40H44a2 2 0 0 0 2-2V8a2 2 0 0 0-2-2Zm17.117 7.004a2 2 0 0 1 1.88 2.113L22.826 18h2.993l.184-3.117a2 2 0 0 1 3.992.234L29.826 18H33a2 2 0 0 1 0 4h-3.408l-.178 3H32a2 2 0 0 1 0 4h-2.82l-.184 3.117a2 2 0 0 1-3.992-.234l.17-2.883H22.18l-.184 3.117a2 2 0 0 1-3.992-.234l.17-2.883H15a2 2 0 0 1 0-4h3.408l.178-3H16a2 2 0 0 1 0-4h2.82l.184-3.117a2 2 0 0 1 2.113-1.88z"/></svg>