<svg xmlns="http://www.w3.org/2000/svg" width="48" height="48" viewBox="0 0 48 48"><path d="M18 2a2 2 0 0 0-2 2v2h-5c-2.181 0-4 1.819-4 4v32c0 2.181 1.819 4 4 4h26c2.181 0 4-1.819 4-4V10c0-2.181-1.819-4-4-4h-5V4a2 2 0 0 0-2-2 2 2 0 0 0-2 2v2h-8V4a2 2 0 0 0-2-2zm-7 8h5a2 2 0 0 0 2 2 2 2 0 0 0 2-2h8a2 2 0 0 0 2 2 2 2 0 0 0 2-2h5v32H11zm5 7a2 2 0 0 0-2 2 2 2 0 0 0 2 2h16a2 2 0 0 0 2-2 2 2 0 0 0-2-2zm0 8a2 2 0 0 0-2 2 2 2 0 0 0 2 2h12a2 2 0 0 0 2-2 2 2 0 0 0-2-2zm0 8a2 2 0 0 0-2 2 2 2 0 0 0 2 2h8a2 2 0 0 0 2-2 2 2 0 0 0-2-2z"/></svg>