<svg xmlns="http://www.w3.org/2000/svg" width="48" height="48" viewBox="0 0 48 48"><path d="M19 12c-1.662 0-3 1.338-3 3v12c0 1.662 1.338 3 3 3h22c1.662 0 3-1.338 3-3V15c0-1.662-1.338-3-3-3zm5 4a2 2 0 0 1 2 2v6a2 2 0 0 1-2 2 2 2 0 0 1-2-2v-6a2 2 0 0 1 2-2zm12 0a2 2 0 0 1 2 2v6a2 2 0 0 1-2 2 2 2 0 0 1-2-2v-6a2 2 0 0 1 2-2z"/><path d="M19 10c-2.735 0-5 2.265-5 5v12c0 2.735 2.265 5 5 5h22c2.735 0 5-2.265 5-5V15c0-2.735-2.265-5-5-5zm0 4h22c.589 0 1 .411 1 1v12c0 .589-.411 1-1 1H19c-.589 0-1-.411-1-1V15c0-.589.411-1 1-1z"/><path d="M24 4a2 2 0 0 0-2 2v6a2 2 0 0 0 2 2 2 2 0 0 0 2-2V8h8v4a2 2 0 0 0 2 2 2 2 0 0 0 2-2V6a2 2 0 0 0-2-2ZM4 7a2 2 0 0 0-2 2 2 2 0 0 0 2 2h4v23c0 2.185 1.815 4 4 4h32a2 2 0 0 0 2-2 2 2 0 0 0-2-2H12V11c0-2.185-1.815-4-4-4Z"/><path d="M19 42a3 3 0 0 1-3-3v-3h6v3a3 3 0 0 1-3 3z"/><path d="M16 34a2 2 0 0 0-2 2v3c0 2.738 2.262 5 5 5s5-2.262 5-5v-3a2 2 0 0 0-2-2zm2 4h2v1c0 .576-.424 1-1 1s-1-.424-1-1zm19 4a3 3 0 0 1-3-3v-3h6v3a3 3 0 0 1-3 3z"/><path d="M34 34a2 2 0 0 0-2 2v3c0 2.738 2.262 5 5 5s5-2.262 5-5v-3a2 2 0 0 0-2-2zm2 4h2v1c0 .576-.424 1-1 1s-1-.424-1-1z"/></svg>