<svg xmlns="http://www.w3.org/2000/svg" width="48" height="48" viewBox="0 0 48 48"><path d="M23.6 2C12.977 2 4.078 9.555 2.04 19.602a2 2 0 0 0 2.593 2.294l6-2a2 2 0 0 0 1.263-2.529 2 2 0 0 0-2.529-1.263l-2.248.75C9.885 10.48 16.19 6 23.6 6c8.73 0 15.974 6.187 17.641 14.398a2 2 0 0 0 2.358 1.563 2 2 0 0 0 1.562-2.36C43.12 9.556 34.222 2 23.6 2zm.4 12a2 2 0 0 0-1.832 1.2l-4.813 11-2.187 5a2 2 0 0 0 1.031 2.632 2 2 0 0 0 2.633-1.031L20.494 29h7.012l1.662 3.8a2 2 0 0 0 2.633 1.032 2 2 0 0 0 1.031-2.633l-2.172-4.963v-.004l-.015-.033-4.813-11A2 2 0 0 0 24 14zm0 6.988L25.756 25h-3.512zm19.322 5.016a2 2 0 0 0-.84.129l-5.2 2a2 2 0 0 0-1.15 2.586 2 2 0 0 0 2.587 1.148l1.242-.478C37.14 37.629 30.915 42 23.6 42c-8.73 0-15.972-6.187-17.64-14.398a2 2 0 0 0-2.358-1.563 2 2 0 0 0-1.563 2.36C4.08 38.444 12.977 46 23.6 46s19.522-7.555 21.561-17.602a2 2 0 0 0-1.838-2.394z"/></svg>