<svg xmlns="http://www.w3.org/2000/svg" width="48" height="48" viewBox="0 0 48 48"><path d="M6 2C3.815 2 2 3.815 2 6v36c0 2.185 1.815 4 4 4h36c2.185 0 4-1.815 4-4V6c0-2.185-1.815-4-4-4Zm0 4h36v36H6Z"/><path d="M4 22a2 2 0 0 0-2 2 2 2 0 0 0 2 2h13a2 2 0 0 0 2-2 2 2 0 0 0-2-2zm27 0a2 2 0 0 0-2 2 2 2 0 0 0 2 2h13a2 2 0 0 0 2-2 2 2 0 0 0-2-2z"/><path d="M24 31a7 7 0 1 0 0-14 7 7 0 0 0 0 14z"/><path d="M24 15c-4.947 0-9 4.053-9 9s4.053 9 9 9 9-4.053 9-9-4.053-9-9-9zm0 4c2.785 0 5 2.215 5 5s-2.215 5-5 5a4.97 4.97 0 0 1-5-5c0-2.785 2.215-5 5-5z"/></svg>