<svg xmlns="http://www.w3.org/2000/svg" width="48" height="48" viewBox="0 0 48 48"><path d="M24 4A15 16 0 0 0 9 20a15 16 0 0 0 13 15.848v-6.02l-5.414-5.414a2 2 0 0 1 0-2.828A2 2 0 0 1 18 21a2 2 0 0 1 1.414.586L22 24.172V14a2 2 0 0 1 2-2 2 2 0 0 1 2 2v3.172l2.586-2.586A2 2 0 0 1 30 14a2 2 0 0 1 1.414.586 2 2 0 0 1 0 2.828L26 22.828v13.02A15 16 0 0 0 39 20 15 16 0 0 0 24 4z"/><path d="M24 2C14.563 2 7 10.15 7 20s7.563 18 17 18 17-8.15 17-18S33.437 2 24 2Zm0 4c7.131 0 13 6.177 13 14s-5.869 14-13 14-13-6.177-13-14S16.869 6 24 6Z"/><path d="m18.846 32.855-1.692 3.627A16.2 16.2 0 0 0 24 38c2.43 0 4.754-.543 6.846-1.518l-1.692-3.627A12.1 12.1 0 0 1 24 34a12.1 12.1 0 0 1-5.154-1.145Z"/><path d="M24 34a2 2 0 0 0-2 2v8a2 2 0 0 0 2 2 2 2 0 0 0 2-2v-8a2 2 0 0 0-2-2z"/></svg>