<svg xmlns="http://www.w3.org/2000/svg" width="48" height="48" viewBox="0 0 48 48"><path d="M20 29H6v14h14z"/><path d="M6 27a2 2 0 0 0-2 2v14a2 2 0 0 0 2 2h14a2 2 0 0 0 2-2V29a2 2 0 0 0-2-2zm2 4h10v10H8ZM24 4l10 17H14Z"/><path d="M24 2a2 2 0 0 0-1.725.986l-10 17A2 2 0 0 0 14 23h20a2 2 0 0 0 1.725-3.014l-10-17A2 2 0 0 0 24 2Zm0 5.945L30.502 19H17.498ZM36 44a8 8 0 1 0 0-16 8 8 0 0 0 0 16z"/><path d="M36 26c-5.5 0-10 4.5-10 10s4.5 10 10 10 10-4.5 10-10-4.5-10-10-10zm0 4c3.337 0 6 2.663 6 6s-2.663 6-6 6a5.97 5.97 0 0 1-6-6c0-3.337 2.663-6 6-6z"/></svg>