<svg xmlns="http://www.w3.org/2000/svg" width="48" height="48" viewBox="0 0 48 48"><path d="M32 28h6v11a3 3 0 1 1-6 0z"/><path d="M30 26v13c0 2.738 2.262 5 5 5s5-2.262 5-5V26Zm4 4h2v9c0 .576-.424 1-1 1s-1-.424-1-1z"/><path d="M29 10a2 2 0 0 0-2 2 2 2 0 0 0 2 2h10c.576 0 1 .424 1 1v10c0 .576-.424 1-1 1H28a2 2 0 0 0-2 2 2 2 0 0 0 2 2h11c2.738 0 5-2.262 5-5V15c0-2.738-2.262-5-5-5zm-17 2c-4.395 0-8 3.605-8 8s3.605 8 8 8h2v-4h-2a3.97 3.97 0 0 1-4-4c0-2.233 1.767-4 4-4h2v-4z"/><path d="M14.198 33a.2.2 0 0 1-.198-.198V6.198c0-.11.089-.198.198-.198H17.5C24.956 6 31 12.044 31 19.5S24.956 33 17.5 33Z"/><path d="M14.2 4C13.008 4 12 5.01 12 6.2v26.6c0 1.19 1.01 2.2 2.2 2.2h3.3C26.037 35 33 28.037 33 19.5S26.037 4 17.5 4ZM16 8h1.5A11.47 11.47 0 0 1 29 19.5 11.47 11.47 0 0 1 17.5 31H16Z"/></svg>