<svg xmlns="http://www.w3.org/2000/svg" width="48" height="48" viewBox="0 0 48 48"><path d="M33 3c-4.947 0-9 4.053-9 9v1a2 2 0 0 0 2 2 2 2 0 0 0 2-2v-1c0-2.785 2.215-5 5-5s5 2.215 5 5v11a2 2 0 0 0 2 2 2 2 0 0 0 2-2V12c0-4.947-4.053-9-9-9Z"/><path d="M40 29v-6H8v6a8 8 0 0 0 8 8h16a8 8 0 0 0 8-8z"/><path d="M6 21v8c0 5.5 4.5 10 10 10h16c5.5 0 10-4.5 10-10v-8zm4 4h28v4c0 3.337-2.663 6-6 6H16a5.97 5.97 0 0 1-6-6z"/><path d="M5 21a2 2 0 0 0-2 2 2 2 0 0 0 2 2h38a2 2 0 0 0 2-2 2 2 0 0 0-2-2zm13.11 14.336a2 2 0 0 0-2.774.555l-4 6a2 2 0 0 0 .555 2.773 2 2 0 0 0 2.773-.555l4-6a2 2 0 0 0-.555-2.773zm11.78 0a2 2 0 0 0-.554 2.773l4 6a2 2 0 0 0 2.773.555 2 2 0 0 0 .555-2.773l-4-6a2 2 0 0 0-2.773-.555z"/></svg>