<svg xmlns="http://www.w3.org/2000/svg" width="48" height="48" viewBox="0 0 48 48"><path d="M24 2c-3.842 0-7 3.158-7 7s3.158 7 7 7 7-3.158 7-7-3.158-7-7-7zm0 4c1.68 0 3 1.32 3 3s-1.32 3-3 3-3-1.32-3-3 1.32-3 3-3zm-3 12c-.929 0-1.436-.005-1.98.049a10.02 10.02 0 0 0-8.971 8.97C9.995 27.565 10 28.072 10 29a2 2 0 0 0 2 2h24a2 2 0 0 0 2-2c0-.929.005-1.436-.049-1.98a10.02 10.02 0 0 0-8.97-8.971C28.435 17.995 27.928 18 27 18zm0 4h6c.929 0 1.35.006 1.588.03 2.714.267 4.815 2.32 5.27 4.97H14.142c.454-2.65 2.555-4.703 5.27-4.97.237-.024.658-.03 1.587-.03zM6.645 24.814a2 2 0 0 0-.727.288C3.708 26.524 2 28.506 2 31c0 1.78.92 3.36 2.197 4.566 1.277 1.207 2.946 2.159 4.918 2.948 2.854 1.141 6.37 1.927 10.266 2.277l-1.795 1.795a2 2 0 0 0 0 2.828 2 2 0 0 0 2.828 0l4.432-4.432c5.4-.085 10.29-.969 14.039-2.468 1.972-.79 3.641-1.74 4.918-2.948C45.079 34.36 46 32.78 46 31c0-2.494-1.709-4.476-3.918-5.898a2 2 0 0 0-2.764.6 2 2 0 0 0 .6 2.763C41.512 29.49 42 30.399 42 31c0 .429-.198.953-.945 1.66-.748.707-2.01 1.482-3.657 2.14-3.123 1.25-7.607 2.097-12.587 2.182l-4.397-4.396A2 2 0 0 0 19 32a2 2 0 0 0-1.414.586 2 2 0 0 0 0 2.828l1.299 1.299c-3.229-.36-6.093-1.036-8.283-1.912-1.647-.659-2.909-1.434-3.657-2.14C6.198 31.952 6 31.428 6 31c0-.6.488-1.509 2.082-2.535a2 2 0 0 0 .6-2.764 2 2 0 0 0-1.258-.873 2 2 0 0 0-.78-.014z"/></svg>