<svg xmlns="http://www.w3.org/2000/svg" width="48" height="48" viewBox="0 0 48 48"><path d="M6 12a2 2 0 0 0-2 2v26a2 2 0 0 0 2 2h36a2 2 0 0 0 2-2V14a2 2 0 0 0-2-2zm32 4a2 2 0 0 1 2 2v1a2 2 0 0 1-2 2 2 2 0 0 1-2-2v-1a2 2 0 0 1 2-2zm-27 1h20a2 2 0 0 1 2 2v16a2 2 0 0 1-2 2H11a2 2 0 0 1-2-2V19a2 2 0 0 1 2-2zm2 4v12h16V21zm25 2a2 2 0 0 1 2 2v1a2 2 0 0 1-2 2 2 2 0 0 1-2-2v-1a2 2 0 0 1 2-2z"/><path d="M6 10c-2.185 0-4 1.815-4 4v26c0 2.185 1.815 4 4 4h36c2.185 0 4-1.815 4-4V14c0-2.185-1.815-4-4-4zm0 4h36v26H6Z"/><path d="M32.648.525 23.021 9.35l-7.748-6.393a2 2 0 0 0-2.816.27 2 2 0 0 0 .27 2.816l9.091 7.5a2 2 0 0 0 2.623-.068l10.91-10a2 2 0 0 0 .124-2.827 2 2 0 0 0-2.827-.123Z"/></svg>