<svg xmlns="http://www.w3.org/2000/svg" width="48" height="48" viewBox="0 0 48 48"><path d="M38.01 4a2 2 0 0 0-1.002.264L23.52 11.97 11.049 4.297a2 2 0 0 0-1.512-.242 2 2 0 0 0-1.24.896 2 2 0 0 0 .654 2.752L15.934 12H7c-2.181 0-4 1.819-4 4v24c0 2.181 1.819 4 4 4h34c2.181 0 4-1.819 4-4V16c0-2.181-1.819-4-4-4h-9.469l7.461-4.264a2 2 0 0 0 .744-2.728A2 2 0 0 0 38.01 4zM7 16h34v24H7zm28 2a2 2 0 0 0-2 2v6a2 2 0 0 0 2 2 2 2 0 0 0 2-2v-6a2 2 0 0 0-2-2zm0 14c-1.108 0-2 .892-2 2s.892 2 2 2 2-.892 2-2-.892-2-2-2z"/></svg>