<svg xmlns="http://www.w3.org/2000/svg" width="48" height="48" viewBox="0 0 48 48"><path d="M31.041 5.012a10 10 0 0 0-1.262.047c-2.993.3-5.353 2.149-6.554 4.613-1 2.05-1.256 4.518-1.192 7.14-2.525.92-4.573.442-6.592-.847-2.304-1.471-4.359-4.053-5.742-6.307a2 2 0 0 0-3.64.541c-1.008 3.87-2.097 8.996.068 14.62 1.14 2.963 3.418 5.45 6.62 7.54-2.972 1.156-5.58 1.78-7.372 1.438a2 2 0 0 0-1.342 3.715c1.776.982 16.544 9.92 27.846 2.86 10.508-6.566 10.33-17.907 10.31-22.92.696-1.178 2.811-3.217 2.811-8.51a2 2 0 0 0-3.357-1.468c-1.362 1.257-2.275 1.483-3.237 1.314-1.869-2.318-4.462-3.698-7.365-3.777zm.05 3.978c2.026.001 3.364.819 4.67 2.81a2 2 0 0 0 1.102.82c1.167.348 2.364.3 3.533 0-.508 1.178-1.252 1.84-2 3.405a2 2 0 0 0-.195.862c0 5.046.584 14.453-8.441 20.092-5.353 3.344-12.263 1.75-17.38-.163 1.884-.603 3.796-1.293 5.9-2.433a2 2 0 0 0-.102-3.567c-4.652-2.192-7.273-4.724-8.317-7.435-1.06-2.753-1.039-5.282-.728-7.725 1.18 1.363 2.55 2.655 4.156 3.68 3.134 2 7.361 2.81 11.621.656A2 2 0 0 0 26 18.037c-.236-2.779.094-5.124.82-6.613s1.607-2.209 3.36-2.385q.478-.049.912-.049z"/></svg>