<svg xmlns="http://www.w3.org/2000/svg" width="48" height="48" viewBox="0 0 48 48"><path d="M24 2a2 2 0 0 0-1.732 1l-5.196 9H6.68c-1.54 0-2.502 1.667-1.733 3l5.196 9-5.196 9c-.77 1.333.193 3 1.733 3h10.392l5.196 9c.77 1.334 2.695 1.334 3.464 0l5.196-9H41.32c1.54 0 2.502-1.667 1.733-3l-5.196-9 5.196-9c.77-1.333-.193-3-1.733-3H30.928l-5.196-9A2 2 0 0 0 24 2Zm0 6 2.309 4H21.69zm-13.855 8h4.617l-2.309 4zm9.236 0h9.238l4.617 8-4.617 8h-9.238l-4.617-8zm13.857 0h4.617l-2.308 4zM12.453 28l2.309 4h-4.617zm23.094 0 2.308 4h-4.617zM21.69 36h4.618L24 40Z"/></svg>