<svg xmlns="http://www.w3.org/2000/svg" width="48" height="48" viewBox="0 0 48 48"><path d="M9 4C6.262 4 4 6.262 4 9v30c0 2.738 2.262 5 5 5h30c2.738 0 5-2.262 5-5V9c0-2.738-2.262-5-5-5zm0 4h30c.576 0 1 .424 1 1v30c0 .576-.424 1-1 1H9c-.576 0-1-.424-1-1V9c0-.576.424-1 1-1zm7 4a2 2 0 0 0-2 2 2 2 0 0 0 2 2h16a2 2 0 0 0 2-2 2 2 0 0 0-2-2zm8 6a2 2 0 0 0-1.414.586l-8 8a2 2 0 0 0 0 2.828 2 2 0 0 0 2.828 0L22 24.828V36a2 2 0 0 0 2 2 2 2 0 0 0 2-2V24.828l4.586 4.586a2 2 0 0 0 2.828 0 2 2 0 0 0 0-2.828l-8-8A2 2 0 0 0 24 18z"/></svg>