<svg xmlns="http://www.w3.org/2000/svg" width="48" height="48" viewBox="0 0 48 48"><path d="M7 13c-2.738 0-5 2.262-5 5v6.139c0 .937.263 1.856.76 2.65l3.662 5.861a5.01 5.01 0 0 0 4.24 2.35h26.676c1.721 0 3.328-.89 4.24-2.35l3.662-5.86c.497-.795.76-1.714.76-2.651V18c0-2.738-2.262-5-5-5zm0 4h2v6a2 2 0 0 0 2 2h26a2 2 0 0 0 2-2v-6h2c.576 0 1 .424 1 1v6.139c0 .187-.053.372-.152.53l-3.662 5.86a.99.99 0 0 1-.848.471H10.662a.99.99 0 0 1-.848-.47l-3.662-5.86c-.1-.16-.152-.344-.152-.531V18c0-.576.424-1 1-1zm6 0h22v4h-1a2 2 0 0 0-2-2 2 2 0 0 0-2 2h-1a2 2 0 0 0-2-2 2 2 0 0 0-2 2h-2a2 2 0 0 0-2-2 2 2 0 0 0-2 2h-1a2 2 0 0 0-2-2 2 2 0 0 0-2 2h-1z"/></svg>