<svg xmlns="http://www.w3.org/2000/svg" width="48" height="48" viewBox="0 0 48 48"><path d="m24 2-.068.014a2 2 0 0 0-.657.13l-.101.047a2 2 0 0 0-.588.395l-5 5a2 2 0 0 0 0 2.828 2 2 0 0 0 2.828 0L22 8.828v25.1l-8-6.608v-3.67c2.32-.832 4-3.06 4-5.65 0-3.29-2.71-6-6-6s-6 2.71-6 6c0 2.59 1.68 4.818 4 5.65v4.614a2 2 0 0 0 .727 1.54L22 39.118V42h-1a2 2 0 0 0-2 2 2 2 0 0 0 2 2h6a2 2 0 0 0 2-2 2 2 0 0 0-2-2h-.92l11.049-7.56A2 2 0 0 0 38 32.79v-3.14c2.32-.832 4-3.06 4-5.65 0-3.29-2.71-6-6-6s-6 2.71-6 6c0 2.59 1.68 4.818 4 5.65v2.084l-8 5.475V8.829l1.586 1.585a2 2 0 0 0 2.828 0 2 2 0 0 0 0-2.828l-5-5a2 2 0 0 0-.312-.25l-.061-.041a2 2 0 0 0-.357-.17l-.055-.02a2 2 0 0 0-.397-.09l-.029-.001A2 2 0 0 0 24 2zM12 16c1.128 0 2 .872 2 2s-.872 2-2 2-2-.872-2-2 .872-2 2-2zm24 6c1.128 0 2 .872 2 2s-.872 2-2 2-2-.872-2-2 .872-2 2-2z"/></svg>