<svg xmlns="http://www.w3.org/2000/svg" width="48" height="48" viewBox="0 0 48 48"><path d="M4 2a2 2 0 0 0-2 2v8a2 2 0 0 0 2 2 2 2 0 0 0 2-2V6h6a2 2 0 0 0 2-2 2 2 0 0 0-2-2zm32 0a2 2 0 0 0-2 2 2 2 0 0 0 2 2h6v6a2 2 0 0 0 2 2 2 2 0 0 0 2-2V4a2 2 0 0 0-2-2zM24 8c-4.395 0-8 3.605-8 8 0 2.793 1.458 5.265 3.648 6.697C14.058 24.536 10 29.81 10 36a2 2 0 0 0 2 2 2 2 0 0 0 2-2 9.97 9.97 0 0 1 10-10 9.97 9.97 0 0 1 10 10 2 2 0 0 0 2 2 2 2 0 0 0 2-2c0-6.19-4.058-11.464-9.648-13.303C30.542 21.265 32 18.793 32 16c0-4.395-3.605-8-8-8zm0 4c2.233 0 4 1.767 4 4s-1.767 4-4 4a3.97 3.97 0 0 1-4-4c0-2.233 1.767-4 4-4zM4 34a2 2 0 0 0-2 2v8a2 2 0 0 0 2 2h8a2 2 0 0 0 2-2 2 2 0 0 0-2-2H6v-6a2 2 0 0 0-2-2zm40 0a2 2 0 0 0-2 2v6h-6a2 2 0 0 0-2 2 2 2 0 0 0 2 2h8a2 2 0 0 0 2-2v-8a2 2 0 0 0-2-2z"/></svg>