<svg xmlns="http://www.w3.org/2000/svg" width="48" height="48" viewBox="0 0 48 48"><path d="M24.5 4c-4.239 0-7.44 1.8-8.904 4.648q-.104.206-.198.416c-1.747-.648-3.632-.678-5.447-.554-2.394.164-4.519 1.243-5.906 2.976-1.136 1.42-1.666 3.256-1.863 5.23l-.182.1V18c0 2.602.83 5.028 2.25 6.834s3.782 3.1 6.207 2.38c2.208-.653 3.515-2.681 3.658-4.49a6.47 6.47 0 0 0-1.531-4.753c-1.205-1.413-2.873-2.004-4.553-2.295-.556-.097-1.116-.087-1.676-.1.204-.633.478-1.17.813-1.59.698-.872 1.619-1.388 3.055-1.486 1.965-.134 3.21-.089 4.263.508-.093 1.742.135 3.58.565 5.441.757 3.283 1.498 6.275 2.818 8.696l.131.224V43a2 2 0 0 0 2 2 2 2 0 0 0 2-2V31.014a6.7 6.7 0 0 0 5 .002V43a2 2 0 0 0 2 2 2 2 0 0 0 2-2V27.535q.175-.271.334-.553c1.4-2.485 2.16-5.545 2.643-8.677.24-1.564.385-3.16.314-4.72 1.198-.996 2.185-1.224 4.426-1.085 1.661.103 2.118.482 2.56 1.23.235.398.414 1.027.54 1.805-2.06.01-4.08.842-5.508 2.365-1.187 1.266-1.863 2.97-1.7 4.838s1.624 3.867 3.93 4.489c1.22.328 2.523.218 3.576-.311 1.054-.529 1.82-1.386 2.373-2.33 1.107-1.89 1.512-4.22 1.512-6.629v-1.238l-.09-.045c-.082-1.796-.315-3.5-1.19-4.979-1.084-1.835-3.205-3.028-5.755-3.187-2.053-.128-3.894.17-5.508.943a10 10 0 0 0-.236-.549C31.879 6.034 28.783 4 24.5 4zm0 4c3.217 0 4.334.966 5.098 2.598.763 1.632.857 4.295.425 7.097-.44 2.868-1.18 5.558-2.173 7.323-.994 1.764-1.915 2.482-3.35 2.482-1.51 0-2.19-.565-3.12-2.27-.929-1.704-1.688-4.462-2.43-7.68-.69-2.986-.58-5.547.204-7.073C19.94 8.95 21.24 8 24.5 8zM7.041 19.586q.133 0 .307.03c1.046.18 1.998.722 2.193.95.308.362.633 1.268.588 1.842s-.025.739-.809.97c-.566.169-1.15-.033-1.925-1.019-.51-.648-.875-1.626-1.118-2.681.307-.022.493-.093.764-.092zm34.266.023c.173.006.33.066.515.059-.162 1.188-.417 2.268-.785 2.896-.27.463-.533.687-.715.778s-.317.138-.742.023c-.984-.265-.94-.46-.984-.974s.279-1.379.63-1.754c.465-.495 1.175-.848 1.899-1.012a.7.7 0 0 1 .182-.016z"/></svg>