<svg xmlns="http://www.w3.org/2000/svg" width="48" height="48" viewBox="0 0 48 48"><path d="M10 2C7.815 2 6 3.815 6 6v36c0 2.185 1.815 4 4 4h28c2.185 0 4-1.815 4-4V14l-.002-.01a2 2 0 0 0-.15-.756l-.002-.004a2 2 0 0 0-.432-.644l-10-10a2 2 0 0 0-.576-.385 2 2 0 0 0-.158-.066A2 2 0 0 0 30 2zm0 4h18v8a2 2 0 0 0 2 2h8v26H10zm22 2.828L35.172 12H32zM14 19a2 2 0 0 0-2 2v13a2 2 0 0 0 2 2h13.492a2 2 0 0 0 2-2v-.59l3.791 1.457A2 2 0 0 0 36 33V22a2 2 0 0 0-2.717-1.867l-3.79 1.457V21a2 2 0 0 0-2-2zm2 4h9.492v1.5a2 2 0 0 0 2.719 1.867L32 24.912v5.176l-3.79-1.455a2 2 0 0 0-2.718 1.867V32H16z"/></svg>