<svg xmlns="http://www.w3.org/2000/svg" width="48" height="48" viewBox="0 0 48 48"><path d="M6 19c-2.181 0-4 1.819-4 4v16c0 2.181 1.819 4 4 4h27c2.181 0 4-1.819 4-4V23c0-2.181-1.819-4-4-4zm0 4h27v16H6Z"/><path d="M20 25a2 2 0 0 0-2 2v8a2 2 0 0 0 2 2h9a2 2 0 0 0 2-2v-8a2 2 0 0 0-2-2zm2 4h5v4h-5zm10-16a5 5 0 0 1-5 5 5 5 0 0 1-5-5 5 5 0 0 1 5-5 5 5 0 0 1 5 5z"/><path d="M27 6c-3.842 0-7 3.158-7 7s3.158 7 7 7 7-3.158 7-7-3.158-7-7-7zm0 4c1.68 0 3 1.32 3 3s-1.32 3-3 3-3-1.32-3-3 1.32-3 3-3zm-9 3a5 5 0 0 1-5 5 5 5 0 0 1-5-5 5 5 0 0 1 5-5 5 5 0 0 1 5 5z"/><path d="M13 6c-3.842 0-7 3.158-7 7s3.158 7 7 7 7-3.158 7-7-3.158-7-7-7zm0 4c1.68 0 3 1.32 3 3s-1.32 3-3 3-3-1.32-3-3 1.32-3 3-3zm30.188 11.172-9 4a2 2 0 0 0-1.016 2.64 2 2 0 0 0 2.64 1.016L42 26.078v9.844l-6.187-2.75a2 2 0 0 0-2.641 1.016 2 2 0 0 0 1.016 2.64l9 4A2 2 0 0 0 46 39V23a2 2 0 0 0-2.812-1.828z"/></svg>