<svg xmlns="http://www.w3.org/2000/svg" width="48" height="48" viewBox="0 0 48 48"><path d="M24 3c-7.708 0-14 6.292-14 14q.001.672.064 1.328C5.308 20.57 2 25.412 2 31c0 7.708 6.292 14 14 14 2.97 0 5.73-.937 8-2.527A13.9 13.9 0 0 0 32 45c7.708 0 14-6.292 14-14 0-5.588-3.308-10.43-8.064-12.672q.063-.656.064-1.328c0-7.708-6.292-14-14-14zm0 4a9.97 9.97 0 0 1 10 10l-.004.145A13.9 13.9 0 0 0 24 19.528a13.9 13.9 0 0 0-9.996-2.383c0-.049-.004-.097-.004-.145A9.97 9.97 0 0 1 24 7zm-8 14c1.834 0 3.546.49 5.02 1.342a14 14 0 0 0-1.971 3.355 9.97 9.97 0 0 1-4.192-4.63Q15.42 21 16 21zm16 0q.58.002 1.143.066a9.97 9.97 0 0 1-4.192 4.631 14 14 0 0 0-1.97-3.355A10 10 0 0 1 32 21zm-20.951 1.303a14.1 14.1 0 0 0 7.015 7.369Q18.001 30.328 18 31a13.92 13.92 0 0 0 3.02 8.658A10 10 0 0 1 16 41 9.97 9.97 0 0 1 6 31a9.97 9.97 0 0 1 5.049-8.697zm25.902 0A9.97 9.97 0 0 1 42 31a9.97 9.97 0 0 1-10 10 10 10 0 0 1-5.02-1.342 13.92 13.92 0 0 0 2.956-9.986 14.1 14.1 0 0 0 7.015-7.37zM24 24.98a10 10 0 0 1 1.143 1.954Q24.58 26.998 24 27q-.58-.002-1.143-.066A10 10 0 0 1 24 24.98zm-1.996 5.875A14 14 0 0 0 24 31a14 14 0 0 0 1.996-.145L26 31a9.98 9.98 0 0 1-2 6.02A9.98 9.98 0 0 1 22 31z"/></svg>