<svg xmlns="http://www.w3.org/2000/svg" width="48" height="48" viewBox="0 0 48 48"><path d="M8 4C5.815 4 4 5.815 4 8v8a2 2 0 0 0 2 2 2 2 0 0 0 2-2V8h8a2 2 0 0 0 2-2 2 2 0 0 0-2-2ZM6 30a2 2 0 0 0-2 2v8c0 2.185 1.815 4 4 4h8a2 2 0 0 0 2-2 2 2 0 0 0-2-2H8v-8a2 2 0 0 0-2-2Zm36 0a2 2 0 0 0-2 2v8h-8a2 2 0 0 0-2 2 2 2 0 0 0 2 2h8c2.185 0 4-1.815 4-4v-8a2 2 0 0 0-2-2zM32 4a2 2 0 0 0-2 2 2 2 0 0 0 2 2h8v8a2 2 0 0 0 2 2 2 2 0 0 0 2-2V8c0-2.185-1.815-4-4-4ZM21 15l-2 3h-6v15h22V18h-6l-2-3zm3 5c2.738 0 5 2.262 5 5s-2.262 5-5 5-5-2.262-5-5 2.262-5 5-5zm0 4c-.576 0-1 .424-1 1s.424 1 1 1 1-.424 1-1-.424-1-1-1z"/><path d="M21 13a2 2 0 0 0-1.664.89L17.93 16H13a2 2 0 0 0-2 2v15a2 2 0 0 0 2 2h22a2 2 0 0 0 2-2V18a2 2 0 0 0-2-2h-4.93l-1.406-2.11A2 2 0 0 0 27 13Zm1.07 4h3.86l1.406 2.11A2 2 0 0 0 29 20h4v11H15V20h4a2 2 0 0 0 1.664-.89z"/></svg>