<svg xmlns="http://www.w3.org/2000/svg" width="48" height="48" viewBox="0 0 48 48"><path d="M8 4C5.815 4 4 5.815 4 8v8a2 2 0 0 0 2 2 2 2 0 0 0 2-2V8h8a2 2 0 0 0 2-2 2 2 0 0 0-2-2zm24 0a2 2 0 0 0-2 2 2 2 0 0 0 2 2h8v8a2 2 0 0 0 2 2 2 2 0 0 0 2-2V8c0-2.185-1.815-4-4-4zm-11 9a2 2 0 0 0-1.664.89L17.93 16H13a2 2 0 0 0-2 2v15a2 2 0 0 0 2 2h22a2 2 0 0 0 2-2V18a2 2 0 0 0-2-2h-4.93l-1.406-2.11A2 2 0 0 0 27 13zm1.07 4h3.86l1.406 2.11A2 2 0 0 0 29 20h4v11H15V20h4a2 2 0 0 0 1.664-.89zM24 20c-2.738 0-5 2.262-5 5s2.262 5 5 5 5-2.262 5-5-2.262-5-5-5zm0 4c.576 0 1 .424 1 1s-.424 1-1 1-1-.424-1-1 .424-1 1-1zM6 30a2 2 0 0 0-2 2v8c0 2.185 1.815 4 4 4h8a2 2 0 0 0 2-2 2 2 0 0 0-2-2H8v-8a2 2 0 0 0-2-2zm36 0a2 2 0 0 0-2 2v8h-8a2 2 0 0 0-2 2 2 2 0 0 0 2 2h8c2.185 0 4-1.815 4-4v-8a2 2 0 0 0-2-2z"/></svg>