<svg xmlns="http://www.w3.org/2000/svg" width="48" height="48" viewBox="0 0 48 48"><path d="M6 8a2 2 0 0 0-2 2 2 2 0 0 0 2 2h36a2 2 0 0 0 2-2 2 2 0 0 0-2-2zm-1 6c-1.633 0-3 1.367-3 3v22c0 1.633 1.367 3 3 3h13a2 2 0 0 0 1.412-.584l4.594-4.586 4.58 4.584A2 2 0 0 0 30 42h13c1.633 0 3-1.367 3-3V17c0-1.633-1.367-3-3-3zm1 4h36v20H30.83l-5.406-5.412a2 2 0 0 0-2.828-.002L17.172 38H6zm8 4c-3.29 0-6 2.71-6 6s2.71 6 6 6 6-2.71 6-6-2.71-6-6-6zm20 0c-3.29 0-6 2.71-6 6s2.71 6 6 6 6-2.71 6-6-2.71-6-6-6zm-20 4c1.128 0 2 .872 2 2s-.872 2-2 2-2-.872-2-2 .872-2 2-2zm20 0c1.128 0 2 .872 2 2s-.872 2-2 2-2-.872-2-2 .872-2 2-2z"/></svg>