<svg xmlns="http://www.w3.org/2000/svg" width="48" height="48" viewBox="0 0 48 48"><path d="M11 31a7 7 0 1 0 0-14 7 7 0 0 0 0 14z"/><path d="M11 15c-4.947 0-9 4.053-9 9s4.053 9 9 9 9-4.053 9-9-4.053-9-9-9zm0 4c2.785 0 5 2.215 5 5s-2.215 5-5 5a4.97 4.97 0 0 1-5-5c0-2.785 2.215-5 5-5zm26 12a7 7 0 1 0 0-14 7 7 0 0 0 0 14z"/><path d="M37 15c-4.947 0-9 4.053-9 9s4.053 9 9 9 9-4.053 9-9-4.053-9-9-9zm0 4c2.785 0 5 2.215 5 5s-2.215 5-5 5a4.97 4.97 0 0 1-5-5c0-2.785 2.215-5 5-5z"/><path d="M12 29a2 2 0 0 0-2 2 2 2 0 0 0 2 2h24a2 2 0 0 0 2-2 2 2 0 0 0-2-2z"/></svg>