<svg xmlns="http://www.w3.org/2000/svg" width="48" height="48" viewBox="0 0 48 48"><path d="M24 2q-.562 0-1.117.03h-.014c-.042.001-.084.007-.127.01q-.451.024-.898.067-.227.024-.453.053-.304.034-.604.076-.232.036-.463.076a22 22 0 0 0-.588.106l-.406.086q-.342.073-.68.156l-.308.082a22 22 0 0 0-.72.205q-.143.042-.284.086-.418.134-.828.283l-.098.036A22 22 0 0 0 9.447 7.5a22.1 22.1 0 0 0-5.674 7.855l-.068.159q-.164.391-.312.79l-.1.274a22 22 0 0 0-.541 1.727q-.075.28-.143.566-.063.263-.12.525c-.047.216-.086.433-.126.65q-.043.23-.082.46c-.039.242-.07.487-.101.732q-.029.206-.053.412c-.026.24-.043.483-.06.725-.012.155-.028.309-.036.465Q2.001 23.416 2 24c0 12.127 9.873 22 22 22s22-9.873 22-22q0-.584-.031-1.16c-.008-.156-.024-.31-.035-.465-.018-.242-.035-.485-.061-.725q-.024-.206-.053-.412-.044-.368-.101-.732-.039-.23-.082-.46-.059-.326-.125-.65-.058-.263-.121-.525a22 22 0 0 0-.444-1.59q-.114-.354-.24-.703l-.1-.273q-.148-.4-.312-.791l-.068-.159q-.191-.446-.4-.882A22.1 22.1 0 0 0 38.552 7.5a22 22 0 0 0-6.965-4.148l-.098-.036q-.41-.149-.828-.283-.141-.044-.283-.086a22 22 0 0 0-.72-.205l-.31-.082a22 22 0 0 0-.68-.156q-.202-.046-.405-.086a22 22 0 0 0-.588-.106q-.23-.04-.463-.076-.3-.042-.604-.076-.224-.029-.453-.053-.447-.042-.898-.068c-.043-.002-.085-.008-.127-.01h-.014Q24.562 2.001 24 2zm0 4q.452.001.898.023l.28.02q.29.017.578.043.233.024.465.055l.392.048q.213.032.424.069a18 18 0 0 1 1.254.258 18 18 0 0 1 .732.195q.196.058.39.121L24.72 17h-1.442l-4.69-10.168q.194-.062.389-.121a18 18 0 0 1 2.41-.522q.195-.025.392-.048.232-.031.465-.055.288-.025.578-.043l.28-.02Q23.547 6.001 24 6zm-9.07 2.453 5.254 11.385A2 2 0 0 0 22 21h4a2 2 0 0 0 1.816-1.162L33.07 8.453a18 18 0 0 1 2.836 2.047c1.133 1 2.137 2.14 2.989 3.39L31.7 32.276l-3.945-7.232A2 2 0 0 0 26 24h-4a2 2 0 0 0-1.756 1.043L16.3 32.275 9.105 13.891a18 18 0 0 1 2.989-3.391 18 18 0 0 1 2.836-2.047zM6.75 18.852l7.387 18.877a2 2 0 0 0 3.619.228L23.188 28h1.625l5.431 9.957a2 2 0 0 0 3.62-.228l7.386-18.877.055.181.056.197q.089.327.164.659l.073.31q.058.286.109.576.033.175.063.352.056.36.1.725l.023.187q.038.37.062.744l.02.25q.025.48.025.967c0 9.965-8.035 18-18 18A17.97 17.97 0 0 1 6.025 23.033l.02-.25q.024-.374.062-.744.011-.094.024-.187.043-.365.1-.725.028-.177.062-.352c.035-.193.068-.385.11-.576q.035-.156.072-.31.075-.332.164-.659l.056-.197z"/></svg>