<svg xmlns="http://www.w3.org/2000/svg" width="48" height="48" viewBox="0 0 48 48"><path d="M24 4c-4.358 0-7.803 2.67-10.164 5.115a25.4 25.4 0 0 0-3.117 3.897H6c-2.185 0-4 1.814-4 4V30.84c0 2.185 1.815 4 4 4h4.709c.585.914 1.525 2.282 3.115 3.957C16.184 41.28 19.628 44 24 44a2 2 0 0 0 2-2V6a2 2 0 0 0-2-2zm-2 4.33v31.33c-1.936-.628-3.791-2.055-5.275-3.617-1.991-2.096-3.188-4.191-3.188-4.191A2 2 0 0 0 11.8 30.84H6V17.012h5.799a2 2 0 0 0 1.732-1.002s1.193-2.056 3.182-4.115C18.198 10.357 20.055 8.947 22 8.33zm9.887 4.674a2 2 0 0 0-1.38.664 2 2 0 0 0 .161 2.824q.779.696 1.4 1.547A10.05 10.05 0 0 1 34 24c0 2.23-.708 4.267-1.9 5.918a10 10 0 0 1-1.432 1.59 2 2 0 0 0-.16 2.824 2 2 0 0 0 2.824.16 14 14 0 0 0 2.012-2.232A14.1 14.1 0 0 0 38 24a14.08 14.08 0 0 0-2.701-8.32 14 14 0 0 0-1.967-2.172 2 2 0 0 0-1.445-.504z"/></svg>