<svg xmlns="http://www.w3.org/2000/svg" width="48" height="48" viewBox="0 0 48 48"><path d="M9 4C6.262 4 4 6.262 4 9v30c0 2.738 2.262 5 5 5h27c2.738 0 5-2.262 5-5v-7h-4v7c0 .576-.424 1-1 1H9c-.576 0-1-.424-1-1V9c0-.576.424-1 1-1h27c.576 0 1 .424 1 1v7h4V9c0-2.738-2.262-5-5-5Z"/><path d="M25 16c-1.662 0-3 1.338-3 3v10c0 1.662 1.338 3 3 3h14c1.662 0 3-1.338 3-3V19c0-1.662-1.338-3-3-3zm5 6a2 2 0 0 1 2 2 2 2 0 0 1-2 2 2 2 0 0 1-2-2 2 2 0 0 1 2-2z"/><path d="M25 14c-2.735 0-5 2.265-5 5v10c0 2.735 2.265 5 5 5h14c2.735 0 5-2.265 5-5V19c0-2.735-2.265-5-5-5zm0 4h14c.589 0 1 .411 1 1v10c0 .589-.411 1-1 1H25c-.589 0-1-.411-1-1V19c0-.589.411-1 1-1z"/></svg>