<svg xmlns="http://www.w3.org/2000/svg" width="48" height="48" viewBox="0 0 48 48"><path d="M12.5 5c-2.33 0-4.188 1.07-5.197 2.408a6.4 6.4 0 0 0-1.297 3.725C4.293 11.584 3 13.16 3 15v22c0 2.181 1.819 4 4 4h34c2.181 0 4-1.819 4-4V15c0-2.181-1.819-4-4-4h-7.19c-.385-1.969-1.326-3.471-2.476-4.418A6.8 6.8 0 0 0 27 5zm0 4H27c.306 0 1.178.163 1.791.668.35.288.69.68.922 1.332H10.03c.061-.353.213-.846.467-1.184.34-.452.733-.816 2.002-.816zM7 15h34v3H25a2 2 0 0 0-2 2v11a2 2 0 0 0 2 2h16v4H7zm20 7h14v7H27zm6.5 2a1.5 1.5 0 0 0-1.5 1.5 1.5 1.5 0 0 0 1.5 1.5 1.5 1.5 0 0 0 1.5-1.5 1.5 1.5 0 0 0-1.5-1.5z"/></svg>