<svg xmlns="http://www.w3.org/2000/svg" width="49" height="48" viewBox="0 0 49 48"><path d="M10.777 2c-2.181 0-4 1.819-4 4v36c0 2.181 1.819 4 4 4h28c2.182 0 4-1.819 4-4V6c0-2.181-1.818-4-4-4zm0 4h28v36h-28z"/><path d="M8.777 13.5a2 2 0 0 0-2 2 2 2 0 0 0 2 2h32a2 2 0 0 0 2-2 2 2 0 0 0-2-2z"/><circle cx="28.778" cy="10" r="2"/><circle cx="34.778" cy="10" r="2"/><path d="M31.778 30a7 7 0 0 1-7 7 7 7 0 0 1-7-7 7 7 0 0 1 7-7 7 7 0 0 1 7 7z"/><path d="M24.777 21c-4.947 0-9 4.053-9 9s4.053 9 9 9 9-4.053 9-9-4.053-9-9-9zm0 4c2.785 0 5 2.215 5 5s-2.215 5-5 5a4.97 4.97 0 0 1-5-5c0-2.785 2.215-5 5-5z"/></svg>