<svg xmlns="http://www.w3.org/2000/svg" width="48" height="48" viewBox="0 0 48 48"><path d="M21 2c-2.185 0-4 1.815-4 4v8a2 2 0 0 0 2 2 2 2 0 0 0 2-2V6h6v8a2 2 0 0 0 2 2 2 2 0 0 0 2-2V6c0-2.185-1.815-4-4-4Zm-2 30a2 2 0 0 0-2 2v8c0 2.185 1.815 4 4 4h6c2.185 0 4-1.815 4-4v-8a2 2 0 0 0-2-2 2 2 0 0 0-2 2v8h-6v-8a2 2 0 0 0-2-2z"/><path d="M24 13a11 11 0 0 0-11 11 11 11 0 0 0 11 11 11 11 0 0 0 11-11 11 11 0 0 0-11-11Zm1 6a2 2 0 0 1 2 2v4a2 2 0 0 1-2 2h-4a2 2 0 0 1 0-4h2v-2a2 2 0 0 1 2-2z"/><path d="M24 11c-7.156 0-13 5.844-13 13s5.844 13 13 13 13-5.844 13-13-5.844-13-13-13zm0 4c4.994 0 9 4.006 9 9s-4.006 9-9 9a8.97 8.97 0 0 1-9-9c0-4.994 4.006-9 9-9z"/></svg>