<svg xmlns="http://www.w3.org/2000/svg" width="48" height="48" viewBox="0 0 48 48"><path d="M24 4Q8 17.636 8 29.455C8 37.488 15.163 44 24 44s16-6.512 16-14.545Q40 17.637 24 4zm-5.1 13a2 2 0 0 1 1.4.617L24 21.48l3.7-3.862a2 2 0 0 1 2.827-.06 2 2 0 0 1 .06 2.826l-3.616 3.775H30a2 2 0 0 1 2 2 2 2 0 0 1-2 2h-4v1.37h4a2 2 0 0 1 2 2 2 2 0 0 1-2 2h-4V36a2 2 0 0 1-2 2 2 2 0 0 1-2-2v-2.473h-4a2 2 0 0 1-2-2 2 2 0 0 1 2-2h4v-1.369h-4a2 2 0 0 1-2-2 2 2 0 0 1 2-2h3.03l-3.618-3.775a2 2 0 0 1 .063-2.826A2 2 0 0 1 18.9 17z"/><path d="M22.703 2.479C11.82 11.754 6 20.674 6 29.455 6 38.677 14.18 46 24 46s18-7.323 18-16.545c0-8.781-5.82-17.7-16.703-26.976a2 2 0 0 0-2.594 0zM24 6.764c9.444 8.403 14 16.048 14 22.691C38 36.3 31.854 42 24 42s-14-5.7-14-12.545c0-6.643 4.556-14.288 14-22.691Z"/></svg>