<svg xmlns="http://www.w3.org/2000/svg" width="48" height="48" viewBox="0 0 48 48"><path d="M3 12a2 2 0 0 0-2 2c0 12.127 9.873 22 22 22s22-9.873 22-22a2 2 0 0 0-2-2zm2.201 4H40.8c-1.004 9.005-8.521 16-17.8 16S6.204 25.005 5.201 16zm11.436 2.363a2 2 0 0 0-1.416.586L13.1 21.07a2 2 0 0 0 0 2.828 2 2 0 0 0 2.83 0l2.12-2.12a2 2 0 0 0 0-2.829 2 2 0 0 0-1.413-.586zm12.552.008a2 2 0 0 0-1.24.578 2 2 0 0 0 0 2.83l2.123 2.121a2 2 0 0 0 2.828 0 2 2 0 0 0 0-2.83l-2.12-2.12a2 2 0 0 0-1.59-.579zM23 21a2 2 0 0 0-2 2v3a2 2 0 0 0 2 2 2 2 0 0 0 2-2v-3a2 2 0 0 0-2-2z"/></svg>