<svg xmlns="http://www.w3.org/2000/svg" width="48" height="48" viewBox="0 0 48 48"><path d="M21 4C11.083 4 3 12.083 3 22c0 4.302 1.568 8.23 4.096 11.33l-1.059 6.367c-.259 1.56 1.309 2.79 2.762 2.166l6.55-2.814c2.703.79 5.362 1.122 7.913.834C25.552 42.403 28.843 44 32.5 44c2.335 0 4.53-.652 6.406-1.773l3.215 1.57c1.46.713 3.116-.52 2.852-2.123l-.9-5.444c.597-1.46.927-3.062.927-4.73 0-4.519-2.425-8.495-6.04-10.691C38.346 11.44 30.518 4 21 4Zm-5.875 11.934a2.26 2.26 0 0 1 2.25 2.265 2.26 2.26 0 0 1-2.25 2.268 2.26 2.26 0 0 1-2.25-2.268 2.26 2.26 0 0 1 2.25-2.265zm9 0a2.26 2.26 0 0 1 2.25 2.265 2.26 2.26 0 0 1-2.25 2.268 2.26 2.26 0 0 1-2.25-2.268 2.26 2.26 0 0 1 2.25-2.265zM28.938 27.4c.931 0 1.687.76 1.687 1.7 0 .938-.756 1.7-1.687 1.7a1.695 1.695 0 0 1-1.688-1.7c0-.94.756-1.7 1.688-1.7zm6.75 0c.931 0 1.687.76 1.687 1.7 0 .938-.756 1.7-1.687 1.7A1.695 1.695 0 0 1 34 29.1c0-.94.756-1.7 1.688-1.7z"/></svg>