<svg xmlns="http://www.w3.org/2000/svg" width="48" height="48" viewBox="0 0 48 48"><path d="M37 30H12l2 5h12l2.088 6.265A4 4 0 0 0 31.883 44H38a4 4 0 0 0 4-4V30l1-7-3.646.73a2 2 0 0 0-1.58 1.632z"/><path d="m42.607 21.04-3.646.728a4.01 4.01 0 0 0-3.16 3.265L35.307 28H12a2 2 0 0 0-1.857 2.742l2 5A2 2 0 0 0 14 37h10.559l1.632 4.896A6.015 6.015 0 0 0 31.883 46H38c3.29 0 6-2.71 6-6v-9.857l.98-6.86a2 2 0 0 0-2.373-2.244zm-1.988 4.476-.6 4.2A2 2 0 0 0 40 30v10c0 1.128-.872 2-2 2h-6.117a1.98 1.98 0 0 1-1.897-1.367l-2.09-6.266A2 2 0 0 0 26 33H15.354l-.4-1H37a2 2 0 0 0 1.973-1.672l.773-4.637zM11 18h25l-2-5H22l-2.088-6.265A4 4 0 0 0 16.117 4H10a4 4 0 0 0-4 4v10l-1 7 3.646-.73a2 2 0 0 0 1.58-1.632Z"/><path d="M10 2C6.71 2 4 4.71 4 8v9.857l-.98 6.86a2 2 0 0 0 2.373 2.244l3.646-.729a4.01 4.01 0 0 0 3.16-3.265L12.693 20H36a2 2 0 0 0 1.857-2.742l-2-5A2 2 0 0 0 34 11H23.441L21.81 6.104A6.015 6.015 0 0 0 16.117 2Zm0 4h6.117c.869 0 1.622.543 1.897 1.367l2.09 6.266A2 2 0 0 0 22 15h10.646l.4 1H11a2 2 0 0 0-1.973 1.672l-.773 4.637-.873.175.6-4.2A2 2 0 0 0 8 18V8c0-1.128.872-2 2-2Z"/></svg>