<svg xmlns="http://www.w3.org/2000/svg" width="48" height="48" viewBox="0 0 48 48"><path d="M18 4a2 2 0 0 0-1.414.586l-12 12a2 2 0 0 0 0 2.828 2 2 0 0 0 2.828 0l12-12a2 2 0 0 0 0-2.828A2 2 0 0 0 18 4zm11 0a2 2 0 0 0-1.414.586l-23 23a2 2 0 0 0 0 2.828l13 13a2 2 0 0 0 2.828 0l23-23a2 2 0 0 0 0-2.828l-13-13A2 2 0 0 0 29 4zm0 4.828L39.172 19 19 39.172 8.828 29zM16 27a2 2 0 0 0-1.414.586 2 2 0 0 0 0 2.828l3 3a2 2 0 0 0 2.828 0 2 2 0 0 0 0-2.828l-3-3A2 2 0 0 0 16 27zm26 1a2 2 0 0 0-1.414.586l-12 12a2 2 0 0 0 0 2.828 2 2 0 0 0 2.828 0l12-12a2 2 0 0 0 0-2.828A2 2 0 0 0 42 28z"/></svg>