<svg xmlns="http://www.w3.org/2000/svg" width="48" height="48" viewBox="0 0 48 48"><path d="M16.068 13c-9.815.35-11.393 8.006-10.955 11.791-1.753 3.144-1.216 3.93.098 5.24 6.573 6.114 18.842 5.678 24.539 3.494 5.96-2.445 8.999-7.05 9.291-9.525 5.258-3.494 5.365-9.399 4.635-11-.78 1.31-3.028 2.272-4.635 3-1.753.35-4.275-.962-5.006-2.127-.501 2.627 0 4.627 1.315 5.678 2.287 1.747 1.125 3.512.687 3.949-1.897 1.89-5.506.99-7.26-1.766C24.054 14.31 18.99 13 16.068 13zM12 18a2 2 0 0 1 2 2 2 2 0 0 1-2 2 2 2 0 0 1-2-2 2 2 0 0 1 2-2z"/><path d="m16.068 11-.07.002c-5.423.193-9.04 2.583-10.934 5.521-1.716 2.665-2.045 5.5-1.908 7.749-.786 1.48-1.27 2.716-1.133 4.037.154 1.462 1.073 2.44 1.776 3.14l.049.047c3.758 3.496 8.899 4.98 13.795 5.387s9.569-.243 12.824-1.49l.043-.018c3.277-1.345 5.776-3.29 7.517-5.287 1.45-1.66 2.278-3.288 2.688-4.883 2.66-1.985 4.163-4.552 4.814-6.875.7-2.497.733-4.481-.033-6.16a2 2 0 0 0-3.539-.193c-.068.114-.56.589-1.287 1.007-.63.363-1.398.705-2.125 1.034-.273.026-.925-.043-1.559-.332-.676-.31-1.261-.885-1.256-.875a2 2 0 0 0-3.66.687c-.582 3.051-.056 5.947 2.032 7.615l.035.028c.755.577.59.65.586.71s-.207.342-.098.233c-.387.385-.962.538-1.795.334s-1.769-.82-2.365-1.758C25.45 12.78 19.588 11 16.068 11Zm.03 4.004c2.329.006 6.574.861 10.992 7.805 1.157 1.819 2.902 3.032 4.787 3.494 1.486.364 3.074.03 4.453-.782-.328.603-.727 1.263-1.316 1.938-1.337 1.531-3.332 3.103-6 4.203-2.445.933-6.742 1.591-11.04 1.234-4.292-.356-8.557-1.704-11.372-4.306-.55-.553-.596-.657-.6-.7s.06-.69.86-2.124a2 2 0 0 0 .24-1.205c-.17-1.467.086-3.946 1.326-5.87 1.235-1.916 3.31-3.52 7.67-3.687zm25.615 1.914c-.026.12-.002.212-.035.332-.42 1.498-1.42 3.074-3.073 4.432-.069-1.267-.684-2.685-2.04-3.721l.035.027c-.067-.053-.1-.222-.162-.297.927.296 1.906.487 2.994.27a2 2 0 0 0 .433-.139c.518-.235 1.2-.582 1.848-.904z"/><path d="M17.336 25.027a2 2 0 0 0-1.494.342c-2.601 1.846-7.65 1.196-10.473.666a2 2 0 0 0-2.334 1.596 2 2 0 0 0 1.596 2.334c2.844.534 8.928 1.929 13.527-1.334a2 2 0 0 0 .473-2.79 2 2 0 0 0-1.295-.814z"/></svg>