<svg xmlns="http://www.w3.org/2000/svg" width="48" height="48" viewBox="0 0 48 48"><path d="M13.695 19.213a2 2 0 0 0-1.529.057C7.343 21.483 4 26.367 4 32c0 7.708 6.292 14 14 14 6.503 0 12.003-4.457 13.559-10.502a2 2 0 0 0-1.438-2.435 2 2 0 0 0-2.435 1.439A9.99 9.99 0 0 1 18 42 9.97 9.97 0 0 1 8 32a9.99 9.99 0 0 1 5.834-9.094 2 2 0 0 0 .984-2.652 2 2 0 0 0-1.123-1.041z"/><path d="M17.78 10.012a2 2 0 0 0-1.768 2.209l2 18a2 2 0 0 0 2.12 1.775l13.368-.892 2.57 9.421A2 2 0 0 0 38 42h3a2 2 0 0 0 2-2 2 2 0 0 0-2-2h-1.473l-2.597-9.525a2 2 0 0 0-2.063-1.471l-13.09.873-1.789-16.098a2 2 0 0 0-2.209-1.767z"/><path d="M22 8a4 4 0 1 1-8 0 4 4 0 0 1 8 0z"/><path d="M18 2c-3.29 0-6 2.71-6 6s2.71 6 6 6 6-2.71 6-6-2.71-6-6-6zm0 4c1.128 0 2 .872 2 2s-.872 2-2 2-2-.872-2-2 .872-2 2-2zm7 12a2 2 0 0 0-2 2 2 2 0 0 0 2 2h8a2 2 0 0 0 2-2 2 2 0 0 0-2-2z"/></svg>