<svg xmlns="http://www.w3.org/2000/svg" width="48" height="48" viewBox="0 0 48 48"><path d="M23.5 2a2 2 0 0 0-2 2 2 2 0 0 0 2 2A10.47 10.47 0 0 1 34 16.5c0 2.878-1.145 5.475-3.004 7.367a7 7 0 0 0-.01-.28L31 23.5C31 15.516 24.484 9 16.5 9S2 15.516 2 23.5a2 2 0 0 0 2 2 2 2 0 0 0 2-2A10.47 10.47 0 0 1 16.5 13c3.385 0 6.38 1.582 8.297 4.049A7 7 0 0 0 24 17q-.17 0-.338.01A2 2 0 0 0 23.5 17C15.516 17 9 23.516 9 31.5S15.516 46 23.5 46a2 2 0 0 0 2-2 2 2 0 0 0-2-2A10.47 10.47 0 0 1 13 31.5c0-3.384 1.581-6.378 4.047-8.295A2 2 0 0 0 17 23.5l.006.256Q17 23.877 17 24q.001.573.092 1.121C17.902 32.347 24.064 38 31.5 38 39.484 38 46 31.484 46 23.5a2 2 0 0 0-2-2 2 2 0 0 0-2 2A10.47 10.47 0 0 1 31.5 34a10.47 10.47 0 0 1-7.367-3.004q.503-.009.988-.088C32.347 30.098 38 23.936 38 16.5 38 8.516 31.484 2 23.5 2zm.5 19c1.68 0 3 1.32 3 3a2.96 2.96 0 0 1-2.434 2.945q-.362.036-.732.047a2.96 2.96 0 0 1-2.78-2.414q-.035-.368-.046-.744A2.966 2.966 0 0 1 24 21z"/></svg>