<svg xmlns="http://www.w3.org/2000/svg" width="48" height="48" viewBox="0 0 48 48"><path d="M23.848 9.006c-6.836.033-13.662 2.304-19.282 6.814a31 31 0 0 0-1.941 1.694 2 2 0 0 0-.076 2.828 2 2 0 0 0 2.826.074 27 27 0 0 1 1.693-1.477c10.45-8.387 25.658-7.905 35.557 1.477a2 2 0 0 0 2.826-.074 2 2 0 0 0-.076-2.828c-5.668-5.372-12.873-8.201-20.16-8.485a31 31 0 0 0-1.367-.023zM24 18.012c-5.583 0-11.166 2.125-15.414 6.373a2 2 0 0 0 0 2.828 2 2 0 0 0 2.828 0 17.77 17.77 0 0 1 25.172 0 2 2 0 0 0 2.828 0 2 2 0 0 0 0-2.828c-4.248-4.248-9.831-6.373-15.414-6.373zm0 9a13.27 13.27 0 0 0-9.414 3.888 2 2 0 0 0 0 2.829 2 2 0 0 0 2.828 0 9.284 9.284 0 0 1 13.172 0 2 2 0 0 0 2.828 0 2 2 0 0 0 0-2.829A13.27 13.27 0 0 0 24 27.012zM24 35a2.5 2.5 0 1 0 0 5 2.5 2.5 0 0 0 0-5z"/></svg>