<svg xmlns="http://www.w3.org/2000/svg" width="48" height="48" viewBox="0 0 48 48"><path d="M24 24c5.523 0 10-4.477 10-10S29.523 4 24 4Z"/><path d="M24 2a2 2 0 0 0-2 2v20a2 2 0 0 0 2 2c6.604 0 12-5.396 12-12S30.604 2 24 2Zm2 4.4c3.435.9 6 3.87 6 7.6s-2.565 6.7-6 7.6z"/><path d="M24 24c0 5.523 4.477 10 10 10s10-4.477 10-10z"/><path d="M24 22a2 2 0 0 0-2 2c0 6.604 5.396 12 12 12s12-5.396 12-12a2 2 0 0 0-2-2zm2.4 4h15.2c-.9 3.435-3.87 6-7.6 6s-6.7-2.565-7.6-6Z"/><path d="M24 24c0-5.523-4.477-10-10-10S4 18.477 4 24Z"/><path d="M14 12C7.396 12 2 17.396 2 24a2 2 0 0 0 2 2h20a2 2 0 0 0 2-2c0-6.604-5.396-12-12-12Zm0 4c3.73 0 6.7 2.565 7.6 6H6.4c.9-3.435 3.87-6 7.6-6Z"/><path d="M24 24c-5.523 0-10 4.477-10 10s4.477 10 10 10z"/><path d="M24 22c-6.604 0-12 5.396-12 12s5.396 12 12 12a2 2 0 0 0 2-2V24a2 2 0 0 0-2-2zm-2 4.4v15.2c-3.435-.9-6-3.87-6-7.6s2.565-6.7 6-7.6z"/></svg>