<svg xmlns="http://www.w3.org/2000/svg" width="48" height="48" viewBox="0 0 48 48"><path d="m24 23.992-.03-9.996L23.943 4 12 14v10z"/><path d="M24.785 2.188a2 2 0 0 0-2.127.279l-11.941 10A2 2 0 0 0 10 14v10a2 2 0 0 0 2.002 2l12-.008A2 2 0 0 0 26 23.986l-.03-9.996-.029-9.996a2 2 0 0 0-1.156-1.807ZM21.953 8.27l.018 5.731.023 7.992-7.994.004v-7.064z"/><path d="m24.008 24 9.996-.03L44 23.943 34 12H24Z"/><path d="M24 10a2 2 0 0 0-2 2.002l.008 12A2 2 0 0 0 24.014 26l9.996-.03 9.996-.029a2 2 0 0 0 1.527-3.283l-10-11.941A2 2 0 0 0 34 10Zm2.002 4h7.064l6.663 7.953-5.731.018-7.992.023z"/><path d="m24 24.008.03 9.996.028 9.996L36 34V24Z"/><path d="m35.998 22-12 .008A2 2 0 0 0 22 24.014l.03 9.996.029 9.996a2 2 0 0 0 3.283 1.527l11.941-10A2 2 0 0 0 38 34V24a2 2 0 0 0-2.002-2ZM34 26.002v7.064l-7.953 6.663-.018-5.731-.023-7.992z"/><path d="m23.992 24-9.996.03L4 24.057 14 36h10z"/><path d="m23.986 22-9.996.03-9.996.029a2 2 0 0 0-1.527 3.283l10 11.941A2 2 0 0 0 14 38h10a2 2 0 0 0 2-2.002l-.008-12A2 2 0 0 0 23.986 22Zm-1.992 4.006L21.998 34h-7.064L8.27 26.047l5.731-.018z"/></svg>