<svg xmlns="http://www.w3.org/2000/svg" width="48" height="48" viewBox="0 0 48 48"><path d="m19 2-.07.012a2 2 0 0 0-.594.103l-.01.002-.02.01a2 2 0 0 0-.513.291 2 2 0 0 0-.143.129 2 2 0 0 0-.285.332l-.08.092s-.653 1.085-1.765 2.308c-1.112 1.224-2.651 2.443-4.004 2.782a2 2 0 0 0-1.44 1.39l-6 21A2 2 0 0 0 6 33h6v11a2 2 0 0 0 2 2h20a2 2 0 0 0 2-2V33h6a2 2 0 0 0 1.924-2.549l-6-21a2 2 0 0 0-1.531-1.412c-1.278-.255-2.796-1.434-3.9-2.672C31.386 4.13 30.732 3 30.732 3l-.01-.012a2 2 0 0 0-.432-.511l-.016-.014a2 2 0 0 0-.591-.342h-.004l-.008-.004a2 2 0 0 0-.602-.105L29 2zm2.838 4h4.324L24 12.057zm-3.492 2.111L22 18.344V42h-6V31a2 2 0 0 0-2-2H8.652l5.04-17.639c1.917-.803 3.514-2.034 4.654-3.25zm11.289.055c1.135 1.233 2.74 2.462 4.68 3.219L39.347 29H34a2 2 0 0 0-2 2v11h-6V18.344z"/></svg>