<svg xmlns="http://www.w3.org/2000/svg" width="48" height="48" viewBox="0 0 48 48"><path d="M23.596 4.041a2 2 0 0 0-.742.32l-20 14A2 2 0 0 0 2 20v22a2 2 0 0 0 2 2h40a2 2 0 0 0 2-2V20a2 2 0 0 0-.854-1.639l-20-14a2 2 0 0 0-1.55-.32zm.404 4.4 18 12.6V40H6V21.041zM24 20c-2.364 0-4.705.465-6.889 1.37v.001a18 18 0 0 0-5.84 3.9 2 2 0 0 0 0 2.829 2 2 0 0 0 2.83 0A14 14 0 0 1 24 24a14 14 0 0 1 9.9 4.1 2 2 0 0 0 2.829 0 2 2 0 0 0 0-2.829 18 18 0 0 0-5.84-3.9v-.002A18 18 0 0 0 24 20zm0 8a10 10 0 0 0-7.072 2.93 2 2 0 0 0 0 2.828 2 2 0 0 0 2.83 0 5.995 5.995 0 0 1 8.484 0 2 2 0 0 0 2.828 0 2 2 0 0 0 0-2.828A10 10 0 0 0 24 28z"/></svg>