<svg xmlns="http://www.w3.org/2000/svg" width="48" height="48" viewBox="0 0 48 48"><path d="M23.998 8c-3.14 0-7.472.139-13.033.416-3.986.199-7.24 3.343-7.574 7.32-.26 3.098-.393 5.823-.393 8.188 0 2.393.136 5.156.402 8.3.334 3.929 3.516 7.05 7.45 7.307q7.16.47 13.148.469 5.989 0 13.154-.469c3.936-.257 7.118-3.38 7.45-7.31.263-3.123.396-5.884.396-8.297 0-2.384-.13-5.108-.387-8.184-.332-3.978-3.586-7.125-7.574-7.324C31.473 8.139 27.138 8 23.998 8zm0 4c3.02 0 7.312.137 12.84.412a3.977 3.977 0 0 1 3.787 3.662c.25 2.992.373 5.613.373 7.85 0 2.265-.126 4.923-.383 7.96a3.98 3.98 0 0 1-3.724 3.655q-7.06.462-12.893.461-5.832 0-12.889-.46a3.98 3.98 0 0 1-3.724-3.653c-.26-3.062-.387-5.721-.387-7.963 0-2.215.126-4.837.379-7.852a3.98 3.98 0 0 1 3.787-3.66C16.69 12.137 20.978 12 23.998 12zm-2.14 5.047q-.249 0-.493.049a2.57 2.57 0 0 0-1.642 1.078v.002a2.57 2.57 0 0 0-.438 1.433v8.797c0 1.4 1.173 2.57 2.572 2.57a2.57 2.57 0 0 0 1.418-.425l6.598-4.36c1.168-.772 1.498-2.396.727-3.564a2.6 2.6 0 0 0-.71-.715h-.001l-6.596-4.437h-.002a2.54 2.54 0 0 0-1.434-.428zm.857 4.172 4.195 2.82-4.195 2.773z"/></svg>