<svg xmlns="http://www.w3.org/2000/svg" width="48" height="48" viewBox="0 0 48 48"><path d="M24 8C16.528 8 9.233 9.586 5.668 10.48 3.488 11.028 2 13.032 2 15.232v17.536c0 2.2 1.487 4.204 3.668 4.752C9.233 38.414 16.528 40 24 40s14.767-1.586 18.332-2.48c2.18-.548 3.668-2.552 3.668-4.752V15.232c0-2.2-1.487-4.204-3.668-4.752C38.767 9.586 31.472 8 24 8zm0 4c6.897 0 13.97 1.51 17.357 2.36.39.097.643.423.643.872v17.536c0 .449-.253.775-.643.873C37.97 34.49 30.897 36 24 36s-13.97-1.51-17.357-2.36c-.39-.097-.643-.423-.643-.872V15.232c0-.449.253-.775.643-.873C10.03 13.51 17.103 12 24 12zm-1.816 3.963C20.59 15.927 19 17.188 19 18.92v10.16c0 2.31 2.828 3.782 4.72 2.457l7.257-5.08c1.654-1.158 1.654-3.756 0-4.914l-7.256-5.08a2.77 2.77 0 0 0-1.537-.5zM23 20.842 27.514 24 23 27.158z"/></svg>