<svg xmlns="http://www.w3.org/2000/svg" width="48" height="48" viewBox="0 0 48 48"><path d="M32 24v.5c0 .084.244.5 1 .5s1-.416 1-.5-.244-.5-1-.5z"/><path d="M24 3a2 2 0 0 0-.742.143l-19.371 7.75v-.002A3.015 3.015 0 0 0 2 13.678V42c0 1.633 1.367 3 3 3h38c1.633 0 3-1.367 3-3V13.678a3.01 3.01 0 0 0-1.887-2.787v.002l-19.37-7.75A2 2 0 0 0 24 3ZM12 20h6.004c1.555 0 2.515 1.696 1.715 3.03L15.533 30h2.47a2 2 0 0 1 0 4H12c-1.556 0-2.517-1.698-1.715-3.031L14.471 24H12a2 2 0 0 1 0-4zm12 0a2 2 0 0 1 2 2v10a2 2 0 0 1-4 0V22a2 2 0 0 1 2-2zm6 0q.084.003.168.014c.045-.003.088-.014.133-.014H33c2.558 0 5 1.822 5 4.5S35.558 29 33 29c-.337 0-.672-.035-1-.096V32a2 2 0 0 1-4 0V22a2 2 0 0 1 2-2z"/></svg>