<svg xmlns="http://www.w3.org/2000/svg" viewBox="0 0 24 24"><path d="M6.564 7.5a4.5 4.5 0 0 0 0 9h10.872a4.5 4.5 0 0 0 0-9zm0 1h.942v7h-.942a3.5 3.5 0 0 1 0-7zm1.942 0h7v7h-7zm8 0h.93a3.5 3.5 0 0 1 0 7h-.93zm-2.754 1.375a.625.625 0 0 0-.625.625.625.625 0 0 0 .625.625.625.625 0 0 0 .625-.625.625.625 0 0 0-.625-.625zm-3.5.002a.625.625 0 0 0-.625.625.625.625 0 0 0 .625.625.625.625 0 0 0 .625-.625.625.625 0 0 0-.625-.625zm3.5 2.998a.625.625 0 0 0-.625.625.625.625 0 0 0 .625.625.625.625 0 0 0 .625-.625.625.625 0 0 0-.625-.625zm-3.5.002a.625.625 0 0 0-.625.625.625.625 0 0 0 .625.625.625.625 0 0 0 .625-.625.625.625 0 0 0-.625-.625z"/></svg>