<svg xmlns="http://www.w3.org/2000/svg" viewBox="0 0 24 24"><path d="M9 2.064a.5.5 0 0 0 0 1h.5v6.362a1.48 1.48 0 0 1-.41 1.039 17.9 17.9 0 0 0-4.02 6.66l-.52 1.52a2.5 2.5 0 0 0 2.37 3.29h10.16a2.5 2.5 0 0 0 2.37-3.29h-.003l-.51-1.52a17.9 17.9 0 0 0-4.019-6.66 1.5 1.5 0 0 1-.422-1.04v-6.36H15a.5.5 0 0 0 0-1zm1.496 1h3v6.362a2.5 2.5 0 0 0 .701 1.728 16.9 16.9 0 0 1 3.01 4.381H6.787a17 17 0 0 1 3.02-4.38 2.48 2.48 0 0 0 .69-1.73zM6.338 16.535h11.318q.18.45.33.9l.51 1.52a1.5 1.5 0 0 1-.195 1.36h-.004a1.5 1.5 0 0 1-1.22.62H6.917a1.5 1.5 0 0 1-1.422-1.98l.512-1.52q.15-.45.33-.9z"/></svg>