<svg xmlns="http://www.w3.org/2000/svg" viewBox="0 0 24 24"><path d="M10.652 2.092A3.28 3.28 0 0 0 8.217 3.66a2.9 2.9 0 0 0-1.682-.17 2.87 2.87 0 0 0-2.158 1.75 2.95 2.95 0 0 0 .299 2.77v11.42a2.5 2.5 0 0 0 2.5 2.5h7.71a2.5 2.5 0 0 0 2.5-2.5v-.99l.91-.36a2.43 2.43 0 0 0 1.54-2.27V11.1a1.48 1.48 0 0 0-1.48-1.47h-.97V7.99a2.94 2.94 0 0 0 .5-1.65 2 2 0 0 0-.009-.23 2.9 2.9 0 0 0-1.64-2.38 2.96 2.96 0 0 0-2.401-.07 3.28 3.28 0 0 0-3.184-1.568zm.377.978a2.27 2.27 0 0 1 2.032 1.25.75.75 0 0 0 .439.38.8.8 0 0 0 .59-.05 1.917 1.917 0 0 1 2.79 1.54 1.9 1.9 0 0 1-.503 1.47 1.95 1.95 0 0 1-1.422.63h-4.61a.8.8 0 0 0-.788.61 1 1 0 0 0-.022.2 1.98 1.98 0 0 1-1.049 1.78 1.934 1.934 0 0 1-2.8-1.72 1.8 1.8 0 0 1 .17-.77.6.6 0 0 0-.13-.68 1.94 1.94 0 0 1-.41-2.11 1.87 1.87 0 0 1 1.4-1.13 2.5 2.5 0 0 1 .38-.03 1.9 1.9 0 0 1 .86.2.77.77 0 0 0 .59.06A.8.8 0 0 0 9 4.32a2.27 2.27 0 0 1 2.03-1.25zm5.358 5.84v10.52a1.5 1.5 0 0 1-1.5 1.5H7.176a1.5 1.5 0 0 1-1.5-1.5v-8.09a2.86 2.86 0 0 0 1.93.74c.13 0 .25-.01.37-.02v6.34a.5.5 0 0 0 .5.5.5.5 0 0 0 .5-.5v-6.58a.2.2 0 0 0-.01-.07 2.94 2.94 0 0 0 1.57-2.46h4.42a2.86 2.86 0 0 0 1.43-.38zm1.01 1.72h.958a.48.48 0 0 1 .48.47v4.71a1.43 1.43 0 0 1-.919 1.34l-.52.22zm-3.907.698a.5.5 0 0 0-.414.492v6.58a.5.5 0 0 0 .5.5.5.5 0 0 0 .5-.5v-6.58a.5.5 0 0 0-.586-.492z"/></svg>