<svg xmlns="http://www.w3.org/2000/svg" viewBox="0 0 24 24"><path d="M11.25 5.006a.755.755 0 0 0-.75.75v.25H4.975a1.5 1.5 0 0 0-2.91.5 1.5 1.5 0 0 0 2.91.5h3.79c-2.5 1.61-4.23 4.998-4.47 8.988h-.28a.75.75 0 0 0-.75.75v1.5a.75.75 0 0 0 .75.75h1.5a.755.755 0 0 0 .75-.75v-1.5a.755.755 0 0 0-.75-.75h-.21c.27-4.22 2.38-7.778 5.19-8.728a.747.747 0 0 0 .75.74h1.5a.74.74 0 0 0 .75-.74c2.81.95 4.93 4.508 5.21 8.728h-.22a.75.75 0 0 0-.75.75v1.5a.75.75 0 0 0 .75.75h1.5a.755.755 0 0 0 .75-.75v-1.5a.755.755 0 0 0-.75-.75h-.286c-.24-3.99-1.969-7.378-4.459-8.988h3.78a1.5 1.5 0 0 0 1.416 1 1.5 1.5 0 1 0-1.41-2H13.5v-.25a.75.75 0 0 0-.75-.75zm-7.686 1a.51.51 0 0 1 .5.5.5.5 0 0 1-.5.5.5.5 0 0 1-.5-.5.5.5 0 0 1 .5-.5zm7.936 0h1v1h-1zm8.936 0a.51.51 0 0 1 .5.5.5.5 0 0 1-.5.5.5.5 0 0 1-.5-.5.5.5 0 0 1 .5-.5zM4.266 17h1v1h-1zm14.468 0h1v1h-1z"/></svg>