<svg xmlns="http://www.w3.org/2000/svg" viewBox="0 0 24 24"><path d="M8.389 4.076a1.49 1.49 0 0 0-1.5 1.455l-.166 1.8a.5.5 0 0 1-.5.454H3.564a1.5 1.5 0 0 0-1.5 1.5v9.14a1.5 1.5 0 0 0 1.5 1.5h16.872a1.5 1.5 0 0 0 1.505-1.497v-9.14a1.5 1.5 0 0 0-1.5-1.5h-2.658a.5.5 0 0 1-.5-.456l-.164-1.756a1.5 1.5 0 0 0-1.5-1.5zm-.004 1h7.232a.515.515 0 0 1 .5.547l.166 1.8a1.5 1.5 0 0 0 1.494 1.362h2.659a.5.5 0 0 1 .5.5v9.14a.5.5 0 0 1-.5.5H3.564a.5.5 0 0 1-.5-.5v-9.14a.5.5 0 0 1 .5-.5h2.659a1.5 1.5 0 0 0 1.494-1.361l.168-1.848a.5.5 0 0 1 .5-.5zm3.047 4.246a4 4 0 0 0 .568 7.96 4 4 0 0 0 4-4 4 4 0 0 0-4.568-3.96zm.568.96a3 3 0 0 1 3 3 3 3 0 1 1-3-3z"/></svg>