<svg xmlns="http://www.w3.org/2000/svg" viewBox="0 0 24 24"><path d="M4.566 4.064a2.5 2.5 0 0 0-2.5 2.5l-.005 8.41a2.5 2.5 0 0 0 2.5 2.5H8.2a1.53 1.53 0 0 1 1.08.458l1.887 1.685a1.24 1.24 0 0 0 .832.32 1.24 1.24 0 0 0 .832-.322l1.897-1.699a1.48 1.48 0 0 1 1.06-.441h3.65a2.5 2.5 0 0 0 2.5-2.5v-8.41a2.5 2.5 0 0 0-2.5-2.5zm0 .999h14.872a1.5 1.5 0 0 1 1.5 1.5v8.412a1.5 1.5 0 0 1-1.5 1.5h-3.649a2.5 2.5 0 0 0-1.752.716l-1.873 1.682a.25.25 0 0 1-.334 0l-1.863-1.668a2.48 2.48 0 0 0-1.768-.73H4.561a1.5 1.5 0 0 1-1.5-1.5l.005-8.412a1.5 1.5 0 0 1 1.5-1.5z"/></svg>