<svg xmlns="http://www.w3.org/2000/svg" viewBox="0 0 24 24"><path d="M11.174 5.326A7.55 7.55 0 0 0 6.23 17.7H2.56a.51.51 0 0 0-.5.5.5.5 0 0 0 .5.5h18.88a.5.5 0 0 0 .5-.5.51.51 0 0 0-.5-.5h-3.67a7.48 7.48 0 0 0 1.78-4.86 7.55 7.55 0 0 0-8.376-7.513zm2.553 1.197A6.546 6.546 0 0 1 16.4 17.69l.01.01H7.62a6.546 6.546 0 0 1 6.107-11.176zM12 8.984a.49.49 0 0 0-.5.48v.651a1.618 1.618 0 0 0 .13 3.23h.75a.623.623 0 0 1 .62.62.617.617 0 0 1-.62.62h-1.69a.51.51 0 0 0-.5.5.5.5 0 0 0 .5.5h.81v.64a.49.49 0 0 0 .5.48.485.485 0 0 0 .5-.48v-.65a1.616 1.616 0 0 0 1.5-1.61 1.626 1.626 0 0 0-1.62-1.62h-.75a.62.62 0 0 1 0-1.24h1.68a.5.5 0 0 0 0-1h-.81v-.64a.485.485 0 0 0-.5-.48z"/></svg>