<svg xmlns="http://www.w3.org/2000/svg" viewBox="0 0 24 24"><path d="M19.293 3.066a1.5 1.5 0 0 0-.426.075l-9.93 3.44A3.8 3.8 0 0 0 6.58 8.936l-3.435 9.93a1.53 1.53 0 0 0 .4 1.59 1.6 1.6 0 0 0 1.115.48 1.4 1.4 0 0 0 .473-.08l9.93-3.437a3.8 3.8 0 0 0 2.357-2.36l3.437-9.931a1.53 1.53 0 0 0-.4-1.588 1.54 1.54 0 0 0-1.164-.475zm.045.997a.6.6 0 0 1 .412.183.55.55 0 0 1 .162.555l-3.437 9.937a2.8 2.8 0 0 1-1.74 1.74l-9.93 3.44a.6.6 0 0 1-.717-.719l3.437-9.933a2.8 2.8 0 0 1 1.743-1.74l9.927-3.44a.4.4 0 0 1 .143-.024zM12 10.438A1.563 1.563 0 0 0 10.438 12 1.563 1.563 0 0 0 12 13.563 1.563 1.563 0 0 0 13.563 12 1.563 1.563 0 0 0 12 10.438z"/></svg>