<svg xmlns="http://www.w3.org/2000/svg" viewBox="0 0 24 24"><path d="M10.586 2.16A9.942 9.942 0 0 0 12 21.941 9.953 9.953 0 0 0 21.941 12a9.942 9.942 0 0 0-11.355-9.84zm1.414.9A8.95 8.95 0 0 1 20.941 12 8.942 8.942 0 1 1 12 3.059zM9 7.762a1.25 1.25 0 0 0-1.25 1.25A1.25 1.25 0 0 0 9 10.262a1.25 1.25 0 0 0 1.25-1.25A1.25 1.25 0 0 0 9 7.762zm6 0a1.25 1.25 0 0 0-1.25 1.25 1.25 1.25 0 0 0 1.25 1.25 1.25 1.25 0 0 0 1.25-1.25A1.25 1.25 0 0 0 15 7.762zm-3 5.734a6.03 6.03 0 0 0-5.205 2.984.5.5 0 0 0 .861.5 5.033 5.033 0 0 1 8.686 0 .5.5 0 0 0 .863-.5A6.03 6.03 0 0 0 12 13.496z"/></svg>