<svg xmlns="http://www.w3.org/2000/svg" viewBox="0 0 24 24"><path d="M10.586 2.16A9.942 9.942 0 0 0 12 21.941 9.953 9.953 0 0 0 21.941 12a9.942 9.942 0 0 0-11.355-9.84zm1.414.9A8.95 8.95 0 0 1 20.941 12 8.942 8.942 0 1 1 12 3.059zM9.002 7.74a1.25 1.25 0 0 0-1.25 1.25 1.25 1.25 0 0 0 1.25 1.25 1.25 1.25 0 0 0 1.25-1.25 1.25 1.25 0 0 0-1.25-1.25zm6 0a1.25 1.25 0 0 0-1.25 1.25 1.25 1.25 0 0 0 1.25 1.25 1.25 1.25 0 0 0 1.25-1.25 1.25 1.25 0 0 0-1.25-1.25zm-6.565 7.2a.5.5 0 0 0 0 1h7.126a.5.5 0 0 0 0-1z"/></svg>