<svg xmlns="http://www.w3.org/2000/svg" viewBox="0 0 24 24"><path d="M13 2.064a1.5 1.5 0 0 0-1.5 1.5v1.59a1.4 1.4 0 0 0-.5-.09h-.5a1.4 1.4 0 0 0-.5.09v-.34a1.5 1.5 0 0 0-1.5-1.5H8a1.5 1.5 0 0 0-1.5 1.5V9.2a.5.5 0 0 0-.17-.02H5.3a1.1 1.1 0 0 0-1.08 1.202l.85 8.978a2.84 2.84 0 0 0 2.84 2.58h8.18a2.84 2.84 0 0 0 2.84-2.58l.85-8.978a1.1 1.1 0 0 0-.27-.846 1.1 1.1 0 0 0-.81-.36h-1.03a.5.5 0 0 0-.17.02v-4.38a1.5 1.5 0 0 0-1.5-1.5h-.5a1.3 1.3 0 0 0-.52.1 1.474 1.474 0 0 0-1.48-1.35zm0 1h.5a.5.5 0 0 1 .5.5v9.76l-1.5.022V3.564a.5.5 0 0 1 .5-.5zm-5 1.25h.5a.5.5 0 0 1 .5.5v8.202a2.88 2.88 0 0 1-1.5-2.06V4.813a.5.5 0 0 1 .5-.5zm7.5 0h.5a.5.5 0 0 1 .5.5v6.141h.01a2.92 2.92 0 0 1-1.51 2.06v-8.2a.5.5 0 0 1 .5-.5zm-5 1.75h.5a.5.5 0 0 1 .5.5v6.782l-1.5-.022v-6.76a.5.5 0 0 1 .5-.5zm-5.29 4.112h1.12a.1.1 0 0 1 .09.08l.05.558a3.89 3.89 0 0 0 3.88 3.532h3.3a3.884 3.884 0 0 0 3.88-3.532l.05-.558a.11.11 0 0 1 .09-.08l1.12.03-.85 9.05a1.85 1.85 0 0 1-1.85 1.68H7.91a1.84 1.84 0 0 1-1.84-1.68z"/></svg>