<svg xmlns="http://www.w3.org/2000/svg" viewBox="0 0 24 24"><path d="M5.563 3.064a2.5 2.5 0 0 0-2.5 2.5V8.5a2.5 2.5 0 0 0 2.5 2.5h12.873a2.5 2.5 0 0 0 2.5-2.5V5.564a2.5 2.5 0 0 0-2.5-2.5zm0 1h12.873a1.5 1.5 0 0 1 1.5 1.5V8.5a1.5 1.5 0 0 1-1.5 1.5H5.563a1.5 1.5 0 0 1-1.5-1.5V5.564a1.5 1.5 0 0 1 1.5-1.5zm0 8.936a2.5 2.5 0 0 0-2.5 2.5v2.936a2.5 2.5 0 0 0 2.5 2.5h5.87a2.5 2.5 0 0 0 2.5-2.502V15.5a2.5 2.5 0 0 0-2.5-2.5zm12.666.008a2.5 2.5 0 0 0-2.293 2.492v2.936a2.5 2.5 0 0 0 2.5 2.5 2.5 2.5 0 0 0 2.5-2.502V15.5a2.5 2.5 0 0 0-2.707-2.492zM5.563 14h5.87a1.5 1.5 0 0 1 1.5 1.5v2.934a1.5 1.5 0 0 1-1.5 1.5h-5.87a1.5 1.5 0 0 1-1.5-1.5V15.5a1.5 1.5 0 0 1 1.5-1.5zm12.873 0a1.5 1.5 0 0 1 1.5 1.5v2.936a1.5 1.5 0 0 1-3 0v-2.934a1.5 1.5 0 0 1 1.5-1.5z"/></svg>