<svg xmlns="http://www.w3.org/2000/svg" viewBox="0 0 24 24"><path d="M5.56 3.06a2.507 2.507 0 0 0-2.5 2.5v12.88a2.507 2.507 0 0 0 2.5 2.5h12.88a2.5 2.5 0 0 0 2.5-2.5V5.56a2.5 2.5 0 0 0-2.5-2.5zm0 1h12.88a1.51 1.51 0 0 1 1.5 1.5v12.88a1.51 1.51 0 0 1-1.5 1.5H5.56a1.51 1.51 0 0 1-1.5-1.5V5.56a1.51 1.51 0 0 1 1.5-1.5zm1.817 1.684a1 1 0 0 0-1 1 1 1 0 0 0 1 1 1 1 0 0 0 1-1 1 1 0 0 0-1-1zm0 4.004a1 1 0 0 0-1 1v6.5a1 1 0 0 0 2 0v-6.5a1 1 0 0 0-1-1zm4.014.002a1.016 1.016 0 0 0-1 1v6.5a1 1 0 0 0 2 0v-3.88a1.615 1.615 0 1 1 3.228 0v3.88a1 1 0 0 0 2 0v-3.88a3.61 3.61 0 0 0-5.389-3.15.94.94 0 0 0-.84-.47z"/></svg>