<svg xmlns="http://www.w3.org/2000/svg" viewBox="0 0 24 24"><path d="M19.592 3.064a1.5 1.5 0 0 0-.58.073l-14.951 5a1.462 1.462 0 0 0-.188 2.693l5.785 2.871a1.42 1.42 0 0 1 .643.643l2.87 5.781a1.44 1.44 0 0 0 1.302.813q.053.001.103-.008a1.44 1.44 0 0 0 1.285-.994l5-14.954a1.46 1.46 0 0 0-1.27-1.918zm-.113.999.003.001a.462.462 0 0 1 .432.608l-5 14.953a.45.45 0 0 1-.398.313.44.44 0 0 1-.446-.256L11.2 13.9a2.44 2.44 0 0 0-1.1-1.095l-5.78-2.87a.46.46 0 0 1 .059-.847l14.951-5a.5.5 0 0 1 .149-.026z"/></svg>