<svg xmlns="http://www.w3.org/2000/svg" viewBox="0 0 24 24"><path d="M4.564 4.064a2.5 2.5 0 0 0-2.5 2.5v10.872a2.5 2.5 0 0 0 2.5 2.5h14.872a2.5 2.5 0 0 0 2.5-2.5V6.564a2.5 2.5 0 0 0-2.5-2.5zm0 1h14.872a1.49 1.49 0 0 1 1.49 1.391c-2.47 1.32-4.952 2.63-7.432 3.95a6 6 0 0 1-1.058.53 2.08 2.08 0 0 1-1.67-.39c-1.42-.75-2.84-1.51-4.25-2.26-1.14-.6-2.302-1.21-3.442-1.82a1.49 1.49 0 0 1 1.49-1.4zM3.064 7.6c2.36 1.24 4.71 2.5 7.07 3.75a5.6 5.6 0 0 0 1.35.6 2.87 2.87 0 0 0 2-.41c1.45-.76 2.89-1.53 4.34-2.29 1.04-.56 2.072-1.1 3.112-1.65v9.836a1.5 1.5 0 0 1-1.5 1.5H4.564a1.5 1.5 0 0 1-1.5-1.5z"/></svg>