<svg xmlns="http://www.w3.org/2000/svg" viewBox="0 0 24 24"><path d="M4.56 5.78a2.507 2.507 0 0 0-2.5 2.5v7.44a2.514 2.514 0 0 0 2.5 2.5h14.88a2.507 2.507 0 0 0 2.5-2.5V8.28a2.5 2.5 0 0 0-2.5-2.5zm0 1h1.48a3.52 3.52 0 0 1-2.98 2.98V8.28a1.5 1.5 0 0 1 1.5-1.5zm2.49 0h9.9a4.53 4.53 0 0 0 3.99 3.99v2.46a4.53 4.53 0 0 0-3.99 3.99h-9.9a4.53 4.53 0 0 0-3.99-3.99v-2.46a4.53 4.53 0 0 0 3.99-3.99zm10.91 0h1.48a1.5 1.5 0 0 1 1.5 1.5v1.48a3.52 3.52 0 0 1-2.98-2.98zm-5.958 3.218a2 2 0 0 0-2 2 2 2 0 0 0 2 2 2 2 0 0 0 2-2 2 2 0 0 0-2-2zM3.061 14.24a3.52 3.52 0 0 1 2.978 2.98H4.561a1.51 1.51 0 0 1-1.5-1.5zm17.878 0v1.48a1.5 1.5 0 0 1-1.5 1.5h-1.478a3.52 3.52 0 0 1 2.978-2.98z"/></svg>