<svg xmlns="http://www.w3.org/2000/svg" viewBox="0 0 24 24"><path d="M5.813 3.078a1.67 1.67 0 0 0-1.24.822 11.384 11.384 0 0 0 9.863 17.037 11.3 11.3 0 0 0 5.658-1.5 1.67 1.67 0 0 0 .822-1.24 1.72 1.72 0 0 0-.492-1.455l-3.139-3.138a1.72 1.72 0 0 0-2.428 0l-.29.29a1.983 1.983 0 0 1-2.737 0l-1.719-1.72a1.937 1.937 0 0 1 0-2.736l.295-.301a1.715 1.715 0 0 0 0-2.426L7.268 3.57a1.72 1.72 0 0 0-1.455-.493zm.23.985a.73.73 0 0 1 .518.214l3.138 3.135a.717.717 0 0 1 0 1.016l-.299.299a2.94 2.94 0 0 0 0 4.15l1.723 1.723a3.006 3.006 0 0 0 4.15 0l.291-.29a.717.717 0 0 1 1.014 0l3.139 3.14a.73.73 0 0 1 .209.616.67.67 0 0 1-.332.5A10.375 10.375 0 0 1 5.44 4.4a.67.67 0 0 1 .5-.332 1 1 0 0 1 .102-.005z"/></svg>