<svg xmlns="http://www.w3.org/2000/svg" viewBox="0 0 24 24"><path d="M18.127 3.055a2.83 2.83 0 0 0-2 .814l-2.211 2.22-.75-.75a.77.77 0 0 0-.55-.22.8.8 0 0 0-.55.22.785.785 0 0 0 0 1.1l.75.75-8.76 8.76a3.15 3.15 0 0 0-.92 2.13l-.07 1.52a1.316 1.316 0 0 0 1.28 1.35h.06l1.52-.07a3.2 3.2 0 0 0 2.13-.93l8.76-8.76.75.75a.8.8 0 0 0 1.1 0 .785.785 0 0 0 0-1.1l-.75-.75 2.18-2.18a2.85 2.85 0 0 0 .84-2.02 2.825 2.825 0 0 0-2.809-2.834zm-.293 1.021a1.82 1.82 0 0 1 1.562.504 1.86 1.86 0 0 1 0 2.62h.004l-2.18 2.19-2.593-2.59 2.209-2.22a1.82 1.82 0 0 1 .998-.504zm-4.305 3.822 2.59 2.59-3.742 3.73H7.199z"/></svg>