<svg xmlns="http://www.w3.org/2000/svg" viewBox="0 0 24 24"><path d="M12 2.082a1.46 1.46 0 0 0-.79.23L9.647 3.337a.47.47 0 0 1-.439.025l-1.773-.828a1.47 1.47 0 0 0-1.4.086 1.22 1.22 0 0 0-.585 1.022V20.36a1.21 1.21 0 0 0 .58 1.022 1.47 1.47 0 0 0 1.4.086l1.776-.828a.47.47 0 0 1 .44.027l1.564 1.021a1.45 1.45 0 0 0 .791.233 1.45 1.45 0 0 0 .795-.233l1.564-1.021a.47.47 0 0 1 .442-.027l1.77.828a1.46 1.46 0 0 0 1.4-.086 1.22 1.22 0 0 0 .58-1.022V3.641a1.22 1.22 0 0 0-.58-1.022 1.46 1.46 0 0 0-1.4-.088l-1.776.83a.47.47 0 0 1-.44-.025l-1.564-1.023A1.46 1.46 0 0 0 12 2.082zm0 1a.47.47 0 0 1 .242.068l1.565 1.024a1.46 1.46 0 0 0 1.408.094l1.775-.829a.46.46 0 0 1 .438.026.22.22 0 0 1 .117.176v16.724a.22.22 0 0 1-.117.178.46.46 0 0 1-.438.023l-1.773-.828a1.46 1.46 0 0 0-1.41.094l-1.567 1.022a.46.46 0 0 1-.486 0l-1.565-1.02A1.44 1.44 0 0 0 9.4 19.6a1.5 1.5 0 0 0-.617.132l-1.775.829a.47.47 0 0 1-.438-.024.22.22 0 0 1-.119-.178V3.641a.22.22 0 0 1 .12-.176.46.46 0 0 1 .437-.026l1.773.832a1.47 1.47 0 0 0 1.41-.1l1.567-1.02a.47.47 0 0 1 .242-.07zM8.953 6.4a.5.5 0 0 0 0 1h6.094a.5.5 0 0 0 0-1zm0 3.553a.5.5 0 0 0 0 1h6.094a.5.5 0 0 0 0-1zm0 3.547a.5.5 0 0 0 0 1H12a.5.5 0 0 0 0-1z"/></svg>