<svg xmlns="http://www.w3.org/2000/svg" viewBox="0 0 24 24"><path d="M17.275 4.064a.5.5 0 0 0-.345.475v6.4H7.06V7a.5.5 0 0 0-1 0v3.94h-1.5a2.507 2.507 0 0 0-2.5 2.5v4a2.514 2.514 0 0 0 2.5 2.5h14.88a2.507 2.507 0 0 0 2.5-2.5v-4a2.5 2.5 0 0 0-2.5-2.5h-1.51v-6.4a.5.5 0 0 0-.655-.476zM4.561 11.94h14.878a1.5 1.5 0 0 1 1.5 1.5v4a1.5 1.5 0 0 1-1.5 1.5H4.561a1.51 1.51 0 0 1-1.5-1.5v-4a1.5 1.5 0 0 1 1.5-1.5zm8.939 1.997a1.5 1.5 0 0 0 0 3h5a1.5 1.5 0 0 0 0-3zm-8.75.75a.75.75 0 0 0-.75.75.75.75 0 0 0 .75.75.75.75 0 0 0 .75-.75.75.75 0 0 0-.75-.75zm3.5 0a.75.75 0 0 0-.75.75.75.75 0 0 0 .75.75.75.75 0 0 0 .75-.75.75.75 0 0 0-.75-.75zm5.25.25h5a.5.5 0 0 1 0 1h-5a.5.5 0 0 1 0-1z"/></svg>