<svg xmlns="http://www.w3.org/2000/svg" viewBox="0 0 24 24"><path d="M4.486 4.066a2.5 2.5 0 1 0 2.526 3h5.27a2.215 2.215 0 0 1 0 4.43h-3a3.22 3.22 0 1 0 0 6.44h10.96l-.9.9c-.09.08-.17.17-.25.25a.5.5 0 0 0 0 .71.51.51 0 0 0 .701 0l1.75-1.75.25-.25a.5.5 0 0 0 0-.71c-.58-.58-1.16-1.17-1.75-1.75-.08-.08-.16-.17-.25-.25a.49.49 0 0 0-.701 0 .5.5 0 0 0 0 .71l1.14 1.14H9.282a2.22 2.22 0 0 1 0-4.44h3a3.215 3.215 0 0 0 0-6.43h-5.27a2.5 2.5 0 0 0-2.526-2zM4.098 5.14a1.5 1.5 0 0 1 1.965 1.427 1.5 1.5 0 0 1-1.5 1.5 1.5 1.5 0 0 1-.465-2.927z"/></svg>