<svg xmlns="http://www.w3.org/2000/svg" viewBox="0 0 24 24"><path d="M11.994 3.055a.51.51 0 0 0-.5.5v8.474L9.355 9.891a.502.502 0 0 0-.71.709l3 3a.5.5 0 0 0 .36.15.5.5 0 0 0 .35-.15l3-3v-.004a.503.503 0 0 0-.71-.711l-2.15 2.16v-8.49a.5.5 0 0 0-.5-.5zm5.969 2.472c-.368.027-.682.51-.344.856h-.002A7.944 7.944 0 0 1 15.87 18.95a8.028 8.028 0 0 1-11.586-5.043A8.03 8.03 0 0 1 6.38 6.391c.45-.46-.256-1.168-.707-.707a8.946 8.946 0 0 0 9.756 14.586 8.946 8.946 0 0 0 2.898-14.594.45.45 0 0 0-.363-.149z"/></svg>