<svg xmlns="http://www.w3.org/2000/svg" viewBox="0 0 24 24"><path d="M3.563 4.064a1.5 1.5 0 0 0-1.5 1.5V9.5a1.5 1.5 0 0 0 1.5 1.5h16.875a1.5 1.5 0 0 0 1.5-1.506v-3.93a1.5 1.5 0 0 0-1.5-1.5zm0 1h16.875a.5.5 0 0 1 .5.5v3.93a.5.5 0 0 1-.5.5H3.563a.5.5 0 0 1-.5-.5v-3.93a.5.5 0 0 1 .5-.5zm2 1.965a.5.5 0 0 0-.5.5.5.5 0 0 0 .5.5.5.5 0 0 0 .5-.5.5.5 0 0 0-.5-.5zm2 0a.5.5 0 0 0-.5.5.5.5 0 0 0 .5.5.5.5 0 0 0 .5-.5.5.5 0 0 0-.5-.5zm5.888 0a.5.5 0 0 0 0 1h5a.5.5 0 0 0 0-1zm-9.888 5.977a1.5 1.5 0 0 0-1.5 1.5v3.93a1.5 1.5 0 0 0 1.5 1.5h16.875a1.5 1.5 0 0 0 1.5-1.5v-3.93a1.5 1.5 0 0 0-1.5-1.5zm0 1h16.875a.5.5 0 0 1 .5.5v3.93a.5.5 0 0 1-.5.5H3.563a.5.5 0 0 1-.5-.5v-3.93a.5.5 0 0 1 .5-.5zm2 1.965a.5.5 0 0 0-.5.5.5.5 0 0 0 .5.5.5.5 0 0 0 .5-.5.5.5 0 0 0-.5-.5zm2 0a.5.5 0 0 0-.5.5.5.5 0 0 0 .5.5.5.5 0 0 0 .5-.5.5.5 0 0 0-.5-.5zm5.888 0a.5.5 0 0 0 0 1h5a.5.5 0 0 0 0-1z"/></svg>