<svg xmlns="http://www.w3.org/2000/svg" viewBox="0 0 24 24"><path d="M6.568 2.05a1.25 1.25 0 0 0-1.25 1.25v4.274a5.6 5.6 0 0 1-.093 1.016l-.27 1.431a6.5 6.5 0 0 0-.111 1.202v8.226a2.5 2.5 0 0 0 2.5 2.5h9.312a2.5 2.5 0 0 0 2.506-2.502v-8.226a6.6 6.6 0 0 0-.111-1.2l-.27-1.431a5.5 5.5 0 0 1-.1-1.016V3.301a1.25 1.25 0 0 0-1.25-1.25h-2.245a1.25 1.25 0 0 0-1.25 1.25v3.111a1.936 1.936 0 0 1-3.872 0V3.301a1.25 1.25 0 0 0-1.25-1.25zm0 1h2.246a.25.25 0 0 1 .25.25v3.112a2.936 2.936 0 0 0 5.872 0V3.301a.25.25 0 0 1 .25-.25h2.246a.25.25 0 0 1 .25.25v4.275a6.5 6.5 0 0 0 .113 1.2l.267 1.43a5.5 5.5 0 0 1 .094 1.017v8.226a1.5 1.5 0 0 1-1.5 1.5H7.344a1.5 1.5 0 0 1-1.5-1.5v-8.226a5.5 5.5 0 0 1 .093-1.016l.27-1.432a6.5 6.5 0 0 0 .111-1.2V3.3a.25.25 0 0 1 .25-.25zm5.5 9.616a.3.3 0 0 0-.154.043l-.764.457a.3.3 0 0 0-.144.258v.65a.149.149 0 0 0 .228.127l.637-.39a.075.075 0 0 1 .115.062v3.459a.3.3 0 0 0 .305.3h.408a.3.3 0 0 0 .301-.3v-4.365a.3.3 0 0 0-.3-.301z"/></svg>