<svg xmlns="http://www.w3.org/2000/svg" viewBox="0 0 24 24"><path d="M8.52 3.076a.513.513 0 0 0-.61.352l-1.2 4.51H4.56a1.5 1.5 0 0 0-.32 2.958l.74 7.772a2.49 2.49 0 0 0 2.49 2.27h9.06a2.49 2.49 0 0 0 2.49-2.27l.74-7.772a1.5 1.5 0 0 0-.32-2.959H17.3l-1.21-4.51a.51.51 0 0 0-.61-.35.49.49 0 0 0-.35.61l1.14 4.25H7.74l1.14-4.25a.5.5 0 0 0-.36-.61zM4.56 8.937h14.88a.5.5 0 0 1 .5.5.51.51 0 0 1-.5.5H4.56a.51.51 0 0 1-.5-.5.5.5 0 0 1 .5-.5zm.69 2h13.5l-.72 7.64a1.5 1.5 0 0 1-1.5 1.36H7.47a1.5 1.5 0 0 1-1.5-1.36zm4.19 2.499a.5.5 0 0 0-.44.496v3a.5.5 0 0 0 .5.5.5.5 0 0 0 .5-.5v-3a.5.5 0 0 0-.56-.496zm5 0a.5.5 0 0 0-.44.496v3a.5.5 0 0 0 .5.5.5.5 0 0 0 .5-.5v-3a.5.5 0 0 0-.56-.496z"/></svg>