<svg xmlns="http://www.w3.org/2000/svg" viewBox="0 0 24 24"><path d="M6.563 2.063a2.5 2.5 0 0 0-2.5 2.5v14.875a2.5 2.5 0 0 0 2.5 2.5h10.875a2.5 2.5 0 0 0 2.5-2.5V4.563a2.5 2.5 0 0 0-2.5-2.5zm0 1h10.875a1.5 1.5 0 0 1 1.5 1.5v14.875a1.5 1.5 0 0 1-1.5 1.5H6.563a1.5 1.5 0 0 1-1.5-1.5V4.563a1.5 1.5 0 0 1 1.5-1.5zm5.117 2.023A2.25 2.25 0 0 0 12 9.563a2.253 2.253 0 0 0 2.25-2.25 2.25 2.25 0 0 0-2.57-2.227zm.32.976a1.25 1.25 0 0 1 1.25 1.25A1.25 1.25 0 1 1 12 6.063zm-.533 5.415A3.75 3.75 0 0 0 12 18.939a3.755 3.755 0 0 0 3.75-3.75 3.75 3.75 0 0 0-4.283-3.712zm.533.962a2.75 2.75 0 0 1 2.75 2.75A2.75 2.75 0 1 1 12 12.44z"/></svg>