<svg xmlns="http://www.w3.org/2000/svg" viewBox="0 0 24 24"><path d="M11.766 3.33a1.5 1.5 0 0 0-1.11.816L8.824 7.861a.5.5 0 0 1-.377.274l-4.1.6a1.5 1.5 0 0 0-.831 2.558l2.964 2.89a.5.5 0 0 1 .143.444l-.7 4.08A1.5 1.5 0 0 0 8.1 20.289l3.67-1.928a.5.5 0 0 1 .464 0L15.9 20.29a1.5 1.5 0 0 0 .7.174 1.5 1.5 0 0 0 1.478-1.754l-.7-4.082a.5.5 0 0 1 .145-.441l2.965-2.891a1.5 1.5 0 0 0-.832-2.56l-4.1-.6a.5.5 0 0 1-.376-.274l-1.832-3.715a1.5 1.5 0 0 0-1.582-.816zm.232 1a.52.52 0 0 1 .451.264l1.83 3.705a1.5 1.5 0 0 0 1.13.82l4.1.602a.5.5 0 0 1 .276.851l-2.965 2.89a1.5 1.5 0 0 0-.431 1.329l.7 4.082a.5.5 0 0 1-.726.527L12.7 17.477a1.5 1.5 0 0 0-1.398 0l-3.664 1.931a.5.5 0 0 1-.727-.525l.701-4.082a1.5 1.5 0 0 0-.431-1.332L4.213 10.58a.5.5 0 0 1 .275-.851l4.102-.6a1.5 1.5 0 0 0 1.129-.82l1.83-3.715a.52.52 0 0 1 .449-.264z"/></svg>