<svg xmlns="http://www.w3.org/2000/svg" viewBox="0 0 24 24"><path d="M8.92 2.066a2.48 2.48 0 0 0-1.768.735L2.801 7.152a2.5 2.5 0 0 0-.733 1.77v6.156a2.48 2.48 0 0 0 .733 1.77l4.351 4.351a2.48 2.48 0 0 0 1.768.735h6.158a2.48 2.48 0 0 0 1.768-.735l4.355-4.351a2.5 2.5 0 0 0 .73-1.77V8.922a2.48 2.48 0 0 0-.732-1.768L16.846 2.8a2.48 2.48 0 0 0-1.768-.733zm0 1h6.158a1.5 1.5 0 0 1 1.06.44l4.356 4.355a1.5 1.5 0 0 1 .44 1.06v6.157a1.5 1.5 0 0 1-.44 1.063l-4.355 4.353a1.5 1.5 0 0 1-1.06.44h-6.16a1.5 1.5 0 0 1-1.06-.44l-4.353-4.353a1.5 1.5 0 0 1-.44-1.063V8.922a1.5 1.5 0 0 1 .44-1.06l4.353-4.356a1.5 1.5 0 0 1 1.06-.44zm2.549 5.247a2.094 2.094 0 0 0 0 4.187h1.062a1.094 1.094 0 0 1 0 2.188h-2.39a.5.5 0 0 0 0 1h2.39a2.094 2.094 0 0 0 0-4.188H11.47a1.094 1.094 0 0 1 0-2.187h2.39a.5.5 0 0 0 0-1z"/></svg>