<svg xmlns="http://www.w3.org/2000/svg" viewBox="0 0 24 24"><path d="M11.871 3.078a.5.5 0 0 0-.22.133.5.5 0 0 0-.151.35v.5a8.41 8.41 0 0 0-7.88 7.82.98.98 0 0 0 .27.738 1.03 1.03 0 0 0 .74.32h6.87v5.221a1.65 1.65 0 0 1-.62 1.54 1.528 1.528 0 0 1-2.38-1.16.5.5 0 0 0-1 0 2.433 2.433 0 0 0 2.43 2.4 2.45 2.45 0 0 0 2.57-2.29c.08-1.39 0-2.81 0-4.2v-1.51h6.87a1.03 1.03 0 0 0 .74-.32.98.98 0 0 0 .27-.74 8.41 8.41 0 0 0-7.88-7.82v-.5a.5.5 0 0 0-.15-.35.48.48 0 0 0-.479-.132zm.703 2.027a7.4 7.4 0 0 1 6.807 6.825c0 .01-.002.01-.012.01l-14.75.01a7.4 7.4 0 0 1 7.955-6.845z"/></svg>