<svg xmlns="http://www.w3.org/2000/svg" viewBox="0 0 24 24"><path d="M4.549 4.072c-.368.027-.681.513-.336.858l.28.28a2.47 2.47 0 0 0-1.294 2.17v9.24a2.5 2.5 0 0 0 2.5 2.5h7.631a2.5 2.5 0 0 0 2.5-2.5v-.07l1.37 1.37c.62.62 1.24 1.24 1.87 1.86a.5.5 0 0 0 .703-.7q-6.5-6.51-12.99-13c-.62-.62-1.24-1.24-1.87-1.86a.45.45 0 0 0-.364-.148zm8.113.791c-.304.005-.608.018-.908.018H9.623a.5.5 0 0 0 0 1c1.22 0 2.43-.01 3.65 0a1.524 1.524 0 0 1 1.559 1.5c.01.58 0 1.158 0 1.738v1.97a.5.5 0 0 0 1 0c0-.7.012-1.399.012-2.109.73-.5 1.469-1 2.199-1.49.37-.25.74-.54 1.13-.76.34-.2.58-.07.61.3.06.85 0 1.72 0 2.57v6.44a.5.5 0 0 0 1 0V9.51c0-.84.03-1.7 0-2.54a1.364 1.364 0 0 0-1.37-1.36 2.47 2.47 0 0 0-1.26.6c-.77.52-1.551 1.04-2.321 1.57.01-.13 0-.26 0-.39a2.54 2.54 0 0 0-2.27-2.5 8 8 0 0 0-.9-.027zM5.24 5.961l9.59 9.59.002 1.068a1.5 1.5 0 0 1-1.5 1.5H5.699a1.5 1.5 0 0 1-1.5-1.5V7.381A1.5 1.5 0 0 1 5.24 5.96z"/></svg>