<svg xmlns="http://www.w3.org/2000/svg" viewBox="0 0 24 24"><path d="M5.563 3.063a2.5 2.5 0 0 0-2.5 2.5v12.873a2.5 2.5 0 0 0 2.5 2.5h12.875a2.5 2.5 0 0 0 2.5-2.5V5.563a2.5 2.5 0 0 0-2.5-2.5zm0 1h12.875a1.5 1.5 0 0 1 1.5 1.5v12.873a1.5 1.5 0 0 1-1.5 1.5H5.563a1.5 1.5 0 0 1-1.5-1.5V5.563a1.5 1.5 0 0 1 1.5-1.5zm10.654 1.982a.5.5 0 0 0-.5.5v5.908a.5.5 0 0 0 1 0V6.545a.5.5 0 0 0-.5-.5zm-8.508.004a.5.5 0 0 0-.43.496v4a.5.5 0 0 0 1 0v-4a.5.5 0 0 0-.57-.496zm4.205.002a.5.5 0 0 0-.414.494v8a.5.5 0 0 0 1 0v-8a.5.5 0 0 0-.586-.494z"/></svg>