<svg xmlns="http://www.w3.org/2000/svg" viewBox="0 0 24 24"><path d="M17.967 3.076a1.56 1.56 0 0 0-.899.205l-4.16 2.4a3.75 3.75 0 0 1-1.877.5H7.215a2.63 2.63 0 0 0-2.63 2.628v6.386a2.63 2.63 0 0 0 2.63 2.627h3.816a3.77 3.77 0 0 1 1.877.5l4.16 2.4a1.56 1.56 0 0 0 .782.212 1.57 1.57 0 0 0 1.564-1.565V4.637a1.564 1.564 0 0 0-1.447-1.56zm-.117.992a.565.565 0 0 1 .564.565v14.734a.55.55 0 0 1-.283.488.54.54 0 0 1-.563 0l-4.16-2.4a4.76 4.76 0 0 0-2.377-.637H7.215a1.63 1.63 0 0 1-1.63-1.627V8.81a1.63 1.63 0 0 1 1.63-1.627l3.816-.002a4.75 4.75 0 0 0 2.377-.637l4.16-2.4a.56.56 0 0 1 .282-.075z"/></svg>