<svg xmlns="http://www.w3.org/2000/svg" viewBox="0 0 24 24"><path d="M11.072 3.06a7.96 7.96 0 0 0-7.959 7.96 7.963 7.963 0 0 0 7.96 7.96 7.93 7.93 0 0 0 5.206-1.94l3.754 3.755c.455.455 1.162-.253.707-.71q-1.792-1.79-3.582-3.581l-.166-.164a7.93 7.93 0 0 0 2.041-5.32 7.965 7.965 0 0 0-7.96-7.96zm0 1a6.964 6.964 0 0 1 6.961 6.96c0 3.84-3.12 6.96-6.96 6.96a6.963 6.963 0 0 1-6.96-6.96 6.96 6.96 0 0 1 6.96-6.96zm0 4.477c-.25 0-.5.16-.5.483v1.5h-1.5c-.643 0-.645 1 0 1h1.5v1.5c0 .643 1 .645 1 0v-1.5h1.5c.643 0 .645-1 0-1h-1.5v-1.5c0-.322-.25-.483-.5-.483z"/></svg>