<svg xmlns="http://www.w3.org/2000/svg" width="32" height="32" viewBox="0 0 32 32"><path d="M16 1a9.95 9.95 0 0 0-8.201 4.31C5.988 7.959 5.46 11.616 7.08 15.396c3.05 7.116 8.072 15.134 8.072 15.134a1 1 0 0 0 1.696 0s5.022-8.018 8.072-15.134c1.62-3.78 1.092-7.437-.719-10.084A9.95 9.95 0 0 0 16 1zm0 2a7.95 7.95 0 0 1 6.549 3.44c1.439 2.102 1.911 4.945.531 8.165-2.512 5.863-5.953 11.58-7.08 13.426-1.127-1.846-4.568-7.563-7.08-13.426-1.38-3.22-.908-6.063.531-8.166A7.95 7.95 0 0 1 16 3zm0 3c-2.75 0-5 2.25-5 5s2.25 5 5 5 5-2.25 5-5-2.25-5-5-5zm0 2c1.669 0 3 1.331 3 3s-1.331 3-3 3-3-1.331-3-3 1.331-3 3-3z"/></svg>