<svg xmlns="http://www.w3.org/2000/svg" width="32" height="32" viewBox="0 0 32 32"><path d="M16 1c-2.333 0-3.775 1.314-4.395 2.553S11 6 11 6v10s-.014 1.209.605 2.447C12.225 19.686 13.667 21 16 21s3.775-1.314 4.395-2.553S21 16 21 16V6s.014-1.209-.605-2.447C19.775 2.314 18.333 1 16 1zm0 2c1.667 0 2.225.686 2.605 1.447C18.986 5.21 19 6 19 6v10s-.014.791-.395 1.553C18.225 18.314 17.667 19 16 19s-2.225-.686-2.605-1.447C13.014 16.79 13 16 13 16V6s.014-.791.395-1.553C13.775 3.686 14.333 3 16 3zM8 16a1 1 0 0 0-1 1s-.012 1.997 1.13 3.996c1.044 1.826 3.242 3.58 6.87 3.885V28h-2a1 1 0 0 0-1 1 1 1 0 0 0 1 1h6a1 1 0 0 0 1-1 1 1 0 0 0-1-1h-2v-3.12c3.628-.303 5.826-2.058 6.87-3.884C25.011 18.996 25 17 25 17a1 1 0 0 0-1-1 1 1 0 0 0-1 1s-.012 1.503-.87 3.004C21.274 21.504 19.709 23 16 23s-5.273-1.495-6.13-2.996S9 17 9 17a1 1 0 0 0-1-1z"/></svg>