<svg xmlns="http://www.w3.org/2000/svg" width="32" height="32" viewBox="0 0 32 32"><path d="M16 2a1 1 0 0 0-.707.293l-4 4a1 1 0 0 0 0 1.414 1 1 0 0 0 1.414 0L15 5.414V15H5.414l2.293-2.293a1 1 0 0 0 0-1.414 1 1 0 0 0-1.414 0l-4 4A1 1 0 0 0 2 16a1 1 0 0 0 .293.707l4 4a1 1 0 0 0 1.414 0 1 1 0 0 0 0-1.414L5.414 17H15v9.586l-2.293-2.293a1 1 0 0 0-1.414 0 1 1 0 0 0 0 1.414l4 4A1 1 0 0 0 16 30a1 1 0 0 0 .707-.293l4-4a1 1 0 0 0 0-1.414 1 1 0 0 0-1.414 0L17 26.586V17h9.586l-2.293 2.293a1 1 0 0 0 0 1.414 1 1 0 0 0 1.414 0l4-4A1 1 0 0 0 30 16a1 1 0 0 0-.293-.707l-4-4a1 1 0 0 0-1.414 0 1 1 0 0 0 0 1.414L26.586 15H17V5.414l2.293 2.293a1 1 0 0 0 1.414 0 1 1 0 0 0 0-1.414l-4-4A1 1 0 0 0 16 2z"/></svg>