<svg xmlns="http://www.w3.org/2000/svg" width="32" height="32" viewBox="0 0 32 32"><path d="M18 1c-1.167 0-2.406.287-3.39 1.107C13.623 2.928 13 4.277 13 6v17c0 .833.386 1.55.918 2.082S15.167 26 16 26s1.55-.386 2.082-.918S19 23.833 19 23V9a1 1 0 0 0-1-1 1 1 0 0 0-1 1v14c0 .167-.114.45-.332.668S16.167 24 16 24s-.45-.114-.668-.332S15 23.167 15 23V6c0-1.278.376-1.928.89-2.357C16.407 3.213 17.168 3 18 3s1.594.213 2.11.643c.514.429.89 1.08.89 2.357v18c0 1.75-.62 2.935-1.54 3.752C18.543 28.569 17.279 29 16 29s-2.542-.431-3.46-1.248C11.62 26.935 11 25.75 11 24V9a1 1 0 0 0-1-1 1 1 0 0 0-1 1v15c0 2.25.88 4.065 2.21 5.248C12.543 30.431 14.279 31 16 31s3.458-.569 4.79-1.752C22.12 28.065 23 26.25 23 24V6c0-1.722-.624-3.072-1.61-3.893C20.407 1.287 19.168 1 18 1z"/></svg>