<svg xmlns="http://www.w3.org/2000/svg" width="32" height="32" viewBox="0 0 32 32"><path d="M16 2c-1.845 0-3.316.258-4.5.86-1.184.601-2.03 1.571-2.541 2.74-.926 2.117-.943 4.933-.941 8.4H5a1 1 0 0 0-1 1v15a1 1 0 0 0 1 1h22a1 1 0 0 0 1-1V15a1 1 0 0 0-1-1H10.023c.017-3.426.11-6.097.768-7.6.364-.831.83-1.361 1.615-1.76C13.191 4.243 14.346 4 16 4c3.262 0 4.583 1.065 5.281 2.162S22 8.5 22 9a1 1 0 0 0 1 1 1 1 0 0 0 1-1c0-.5.02-2.26-1.031-3.912C21.917 3.435 19.739 2 16 2zM6 16h20v13H6zm10 3a1 1 0 0 0-1 1v2.275c-.594.35-1 .995-1 1.725 0 1.093.907 2 2 2s2-.907 2-2c0-.73-.406-1.375-1-1.725V20a1 1 0 0 0-1-1z"/></svg>