<svg xmlns="http://www.w3.org/2000/svg" viewBox="0 0 24 24"><path d="M12 .008c-6.627 0-12 5.367-12 11.99s5.373 11.994 12 11.994S24 18.623 24 12 18.627.008 12 .008zm-.895 4.855h1.788c.484 0 .729.004.914.098a.86.86 0 0 1 .377.377c.094.185.095.426.095.91v6.018c0 .12 0 .182-.015.238a.4.4 0 0 1-.067.137 1 1 0 0 1-.174.162l-.695.562c-.113.092-.17.14-.191.196a.22.22 0 0 0 0 .15c.02.055.078.1.191.191l.695.567a1 1 0 0 1 .174.162q.046.062.067.137a1 1 0 0 1 .015.238v2.746c0 .484-.001.725-.095.91a.86.86 0 0 1-.377.377c-.185.094-.43.098-.914.098h-1.788c-.484 0-.726-.004-.912-.098a.86.86 0 0 1-.377-.377c-.094-.185-.095-.426-.095-.91v-6.018c0-.12 0-.182.015-.238a.4.4 0 0 1 .067-.139c.034-.047.08-.083.174-.16l.695-.562c.113-.092.17-.14.191-.196a.22.22 0 0 0 0-.15c-.02-.055-.078-.1-.191-.191l-.695-.567a1 1 0 0 1-.174-.162.4.4 0 0 1-.067-.139 1 1 0 0 1-.015-.236V6.25c0-.484.001-.727.095-.912a.86.86 0 0 1 .377-.377c.186-.094.428-.096.912-.096z"/></svg>