<svg xmlns="http://www.w3.org/2000/svg" viewBox="0 0 24 24"><path d="M3.36 0v24h17.28V0zm7.605 11.521c.245.014.202.181.59.14.029 0 .502-.028 1.062-.028 1.77 0 4.144 0 5.684 1.564.718.707 1.379 1.843 1.379 3.465 0 1.717-.748 3.035-1.54 3.81-.646.638-2.127 1.608-4.745 1.608-.532 0-1.942-.098-3.178-.098-.403 0-1.165.043-1.942.043-.158 0-.23-.07-.23-.168 0-.097.043-.18.115-.18.13 0 .432-.013.662-.04.531-.056.631-.264.66-.694.038-.637.043-1.407.043-1.601v-5.34c-.316.402-3.205 3.617-3.695 4.227h3.25v1.066h-4.4c-.173 0-.36-.054-.36-.207 0-.166.13-.291.188-.361.1-.111 5.867-6.763 5.982-6.9.216-.25.317-.32.475-.306zm1.424.749c-.287 0-.848.041-.963.097-.115.055-.174.126-.174.278v5.584h.877c.374 0 .56-.14.646-.14.073 0 .131.057.131.167 0 .125-.144.68-.244.86-.072.124-.144.179-.389.179h-1.021c0 .278.016.471.016.568.014.346.07.886.185 1.04.187.248.747.54 1.87.54 1.452 0 2.416-.278 3.265-.984.906-.749 1.193-1.994 1.193-3.408 0-1.732-.763-2.854-1.367-3.408-1.308-1.206-2.917-1.373-4.025-1.373z"/></svg>