<svg xmlns="http://www.w3.org/2000/svg" viewBox="0 0 24 24"><path d="M4.729 9.11c-1.105 0-1.901.027-2.354.083-.368.057-.595.2-.68.455l-.17.51c-.028.085.03.143.143.143.085 0 .423-.057.99-.086a25 25 0 0 1 1.672-.086c1.077 0 1.56.284 1.39.822-.028.114-.114.199-.255.227-1.02.17-1.842.284-2.438.369-1.7.226-2.692.737-2.947 1.588-.369 1.162.539 1.726 2.72 1.726 1.079 0 2.014-.055 2.75-.197.426-.085.652-.17.737-.453l.397-1.305c-.028 1.304.85 1.955 2.72 1.955.794 0 1.558-.027 1.926-.084.37-.056.567-.141.652-.425l.086-.397c.397.623 1.276.936 2.608.936 1.417 0 2.239-.029 2.465-.114a.52.52 0 0 0 .369-.31l.027-.086.17-.54c.029-.084-.027-.142-.14-.142l-.907.059c-.596.029-1.077.056-1.418.056-.65 0-1.076-.057-1.332-.142-.368-.142-.538-.397-.51-.822l2.864-.368c1.275-.17 2.153-.566 2.578-1.189l-.992 3.314c-.028.057 0 .113.029.141s.083.059.197.059h1.192c.198 0 .281-.115.31-.2l1.049-3.656c.142-.48.566-.709 1.36-.709.71 0 1.22.001 1.56.03h.027c.057 0 .171-.028.256-.17l.17-.51c0-.085 0-.172-.057-.229-.085-.113-.17-.196-.595-.224-.113 0-.452-.03-1.047-.03-1.56 0-2.637.481-3.176 1.416.142-.935-.764-1.416-2.748-1.416-2.324 0-3.8.935-4.395 2.834-.226.71-.224 1.277-.054 1.73h-.569A25 25 0 0 1 10 13.73c-.85 0-1.39-.141-1.588-.424-.17-.255-.17-.739.057-1.448.368-1.162 1.247-1.671 2.664-1.671.737 0 1.445.085 1.445.085.085 0 .143-.114.143-.199l-.03-.084-.056-.396c-.028-.255-.227-.397-.567-.453a9 9 0 0 0-.908-.03h-.027c-1.842 0-3.146.625-3.854 1.815.255-1.22-.595-1.815-2.55-1.815zm11.42.962c1.05.028 1.504.254 1.36.707q-.169.555-1.614.768l-2.295.31.054-.199c.2-.624.455-1.019.795-1.246q.51-.34 1.7-.34zM5.351 12.086l-.51 1.644c-.368.057-.908.084-1.588.084-1.22 0-1.728-.254-1.586-.736.113-.34.424-.568.934-.625z"/></svg>