<svg xmlns="http://www.w3.org/2000/svg" viewBox="0 0 24 24"><path d="M4.25.3C1.9.3 0 2.2 0 4.55v14.9c0 2.35 1.9 4.25 4.25 4.25h15.5c2.35 0 4.25-1.9 4.25-4.25V4.55C24 2.2 22.1.3 19.75.3zm2.19 6.02h2.59c.07 0 .12.03.13.08l3.65 10.25c.03.11.002.16-.1.16h-2.09c-.07.01-.14-.04-.16-.109l-.82-2.4H5.92l-.76 2.36c-.02.09-.1.15-.19.14H3.09c-.11 0-.14-.06-.11-.18l3.22-9.23c.03-.1.06-.19.1-.31.04-.21.06-.431.06-.651-.01-.05.03-.1.08-.11zm1.3 1.82c-.09.43-.2.86-.34 1.29-.15.48-.3.98-.46 1.48-.13.51-.29.98-.44 1.4h2.54c-.06-.21-.14-.46-.23-.72-.09-.27-.18-.56-.27-.86-.1-.31-.19-.61-.29-.92s-.19-.6-.27-.89c-.08-.28-.15-.54-.22-.78zm9.45.57c.53-.01 1.06.09 1.55.31.41.18.77.45 1.05.8.26.34.47.72.6 1.14.13.4.19.81.19 1.22 0 .24-.01.45-.02.64-.02.19-.03.33-.04.42-.01.07-.068.13-.14.13-.06 0-.17.01-.33.02a5 5 0 0 1-.58.03c-.23 0-.47-.04-.73-.04h-3.17c.04.31.14.62.31.89.182.27.431.48.73.601.4.17.84.26 1.28.25.35-.01.7-.04 1.04-.11.31-.038.61-.119.89-.23.05-.039.08-.02.08.08v1.532a.5.5 0 0 1-.02.119.24.24 0 0 1-.07.068c-.32.14-.65.24-1 .3-.47.09-.94.132-1.42.122-.76 0-1.4-.122-1.92-.352-.49-.21-.92-.54-1.26-.949a3.7 3.7 0 0 1-.69-1.31 5.1 5.1 0 0 1-.21-1.461c0-.54.08-1.07.25-1.59.16-.5.41-.96.75-1.37.33-.4.74-.72 1.21-.95s1.03-.31 1.67-.31zm-.07 1.73c-.55-.03-1.07.26-1.33.76-.12.23-.19.47-.22.72h2.11c.26 0 .448 0 .568-.01a.5.5 0 0 0 .23-.08v-.1a1.32 1.32 0 0 0-1.36-1.291z"/></svg>