<svg xmlns="http://www.w3.org/2000/svg" viewBox="0 0 24 24"><path d="M4.25.3C1.9.3 0 2.2 0 4.55v14.9c0 2.35 1.9 4.25 4.25 4.25h15.5c2.35 0 4.25-1.9 4.25-4.25V4.55C24 2.2 22.1.3 19.75.3zm1.96 6h2c.05-.01.11.03.11.08v8.43h4.62c.1 0 .132.048.11.14l-.29 1.74c0 .05-.03.09-.06.12a.17.17 0 0 1-.1.03H6.26c-.11 0-.16-.063-.16-.182V6.44c-.01-.07.04-.128.11-.138zm12.66 2.38c.068-.01.13.04.14.11v1.99c0 .08-.05.11-.16.11a4.1 4.1 0 0 0-1.89.34c-.2.09-.39.21-.54.37v5.1c0 .1-.04.14-.13.14h-1.95c-.08.01-.15-.04-.16-.12v-5.58c0-.24 0-.49-.01-.75s-.01-.52-.02-.78q-.015-.33-.06-.66c-.01-.05.018-.1.068-.11q.013-.015.041 0h1.75c.1 0 .18.07.21.16.04.07.07.15.08.23.02.1.04.21.05.31.01.11.022.23.022.36a3.7 3.7 0 0 1 1.068-.86c.46-.25.97-.37 1.49-.36z"/></svg>