<svg xmlns="http://www.w3.org/2000/svg" viewBox="0 0 24 24"><path d="M4.25.3C1.9.3 0 2.2 0 4.55v14.9c0 2.35 1.9 4.25 4.25 4.25h15.5c2.35 0 4.25-1.9 4.25-4.25V4.55C24 2.2 22.1.3 19.75.3zm2 6h2.59c.07 0 .12.03.13.08l3.63 10.26c.03.11 0 .16-.1.16h-2.09c-.07.012-.14-.04-.16-.11l-.82-2.39H5.71l-.76 2.36c-.02.09-.1.15-.19.14H2.88c-.11 0-.14-.06-.11-.18l3.22-9.24c.03-.1.06-.21.1-.33.05-.21.08-.42.08-.64-.01-.05.03-.1.08-.11zm1.28 1.84c-.09.43-.2.86-.34 1.29-.15.48-.3.98-.46 1.48-.13.51-.29.98-.44 1.4h2.54c-.06-.21-.14-.46-.23-.72-.09-.27-.18-.56-.27-.86-.1-.31-.19-.61-.29-.92s-.19-.6-.27-.89c-.08-.28-.15-.54-.22-.78zm5.89.67h1.937c.061-.01.121.03.131.1v4.73c0 .44.1.79.29 1.04s.58.38 1.03.38c.23 0 .46-.04.68-.12q.345-.12.631-.33V8.92c0-.07.05-.11.14-.11h1.91c.052-.01.108.03.108.08v6.16c0 .272.001.51.012.72s.02.39.03.55c.02.16.028.25.038.36.012.09-.027.13-.107.13h-1.72a.19.19 0 0 1-.19-.109l-.06-.25c-.02-.07-.02-.14-.02-.21-.32.288-.711.5-1.131.618-.36.101-.738.15-1.11.15-.368 0-.74-.05-1.09-.17-.32-.108-.62-.3-.85-.55-.26-.28-.45-.609-.561-.969-.14-.46-.21-.94-.2-1.42V8.94c-.01-.06.03-.12.102-.13z"/></svg>