<svg xmlns="http://www.w3.org/2000/svg" viewBox="0 0 24 24"><path d="M4.25.3C1.9.3 0 2.2 0 4.55v14.9c0 2.35 1.9 4.25 4.25 4.25h15.5c2.35 0 4.25-1.9 4.25-4.25V4.55C24 2.2 22.1.3 19.75.3zm-1.55 6h1.77c.07 0 .1.04.1.11v8.4h4.16c.09 0 .12.048.1.14l-.26 1.74q-.015.09-.06.12a.16.16 0 0 1-.09.03H2.71c-.1 0-.14-.063-.14-.182V6.44c0-.1.04-.138.13-.138zm16.87.83q.51 0 1.02.061c.23.03.46.08.67.17.08.05.12.14.11.24v1.56c.01.06-.02.11-.06.15a.15.15 0 0 1-.13 0q-.345-.18-.721-.24c-.31-.06-.63-.08-.94-.08-.51-.01-1.02.118-1.458.378-.41.25-.732.62-.942 1.05a3.7 3.7 0 0 0-.33 1.6c-.01.4.05.792.16 1.17.1.311.252.6.442.86.17.229.379.43.629.58.24.14.49.25.76.32.25.07.52.11.78.11q.435.002.87-.041c.24-.03.479-.09.699-.17.08-.06.13-.03.16-.01.04.04.06.1.05.15v1.49a.27.27 0 0 1-.15.27c-.26.1-.53.17-.81.2a7 7 0 0 1-1.03.072c-.49 0-.99-.07-1.458-.2a4.02 4.02 0 0 1-2.25-1.59c-.291-.42-.5-.88-.641-1.37a6.6 6.6 0 0 1-.22-1.758c0-.98.19-1.86.58-2.6.38-.73.95-1.34 1.66-1.75s1.57-.621 2.55-.621zm-5.53 1.55c.09 0 .13.05.13.14v1.95c0 .08-.05.11-.14.11a3.4 3.4 0 0 0-.95.07q-.39.09-.75.27c-.18.09-.35.22-.49.37v5.1c0 .1-.04.14-.12.14H9.98c-.1 0-.14-.05-.14-.158V11.13c0-.24 0-.49-.01-.75 0-.26-.01-.52-.02-.78a7 7 0 0 0-.06-.662c0-.03 0-.06.02-.09.03-.01.05-.02.08-.01h1.58c.09 0 .15.051.19.161.03.07.06.15.07.23.02.1.03.21.04.31.01.11.01.23.01.36.26-.34.59-.64.96-.86.398-.24.87-.37 1.34-.36z"/></svg>