<svg xmlns="http://www.w3.org/2000/svg" viewBox="0 0 24 24"><path d="M11.68 7.703c.129.074.242.16.369.238.966.677 1.807 1.491 2.217 2.633a4 4 0 0 1 .172.57h.609a4.1 4.1 0 0 0-.781-1.699c-.554-.72-1.337-1.233-2.217-1.605a8 8 0 0 0-.37-.137zm.713 2.39q-.905.439-1.811.87l.432 1.023.693-.33.908 2.03c.16-.025.4-.122.588-.268l-.969-2.031 1.006-.51zM0 11.344l1.75 1.188 7.316-.404c.138.553.398 1.036.74 1.394a3.07 3.07 0 0 0 2.243 1.01 2.79 2.79 0 0 0 2.217-.992c.312-.362.553-.826.693-1.385l7.275.377L24 11.344h-9.55c0 .422-.06.783-.184 1.1-.37 1.004-1.292 1.486-2.217 1.468-.908-.027-1.834-.524-2.244-1.441a2.75 2.75 0 0 1-.229-1.127zm8.924.975-6.676.407 1.35.693 5.468-.693c-.056-.135-.096-.273-.142-.407zm6.205 0a10 10 0 0 1-.129.407l5.402.664 1.354-.664zm-.252.59c-.043.164-.173.298-.258.432l3.94.758 1.177-.577zm-5.729.012-4.884.635 1.18.543 3.976-.758a5 5 0 0 1-.272-.42zm.37.584-3.332.67 1.418.51 2.37-.711c-.056-.042-.114-.1-.17-.15a1.8 1.8 0 0 1-.286-.32zm4.99.017c-.085.078-.157.18-.242.254a1.2 1.2 0 0 1-.184.198 358 358 0 0 0 2.285.734l1.48-.52zm-.627.604c-.582.436-1.205.65-1.832.629-.625 0-1.264-.206-1.846-.586l-.344.437c.115.118.229.182.356.27-.19.364-.374.732-.578 1.088a.38.38 0 0 0 .168.223c.138.106.354.121.511.107l.485-1.145a3.4 3.4 0 0 0 1.248.176 3.6 3.6 0 0 0 1.154-.224l.565 1.193c.227-.11.456-.216.681-.33-.196-.391-.394-.78-.582-1.176.185-.104.285-.226.399-.346.057-.049.098-.09.156-.136a7 7 0 0 0-.541-.18z"/></svg>