<svg xmlns="http://www.w3.org/2000/svg" viewBox="0 0 24 24"><path d="M12.002 0c-2.44 0-3.476 1.695-4.535 3.898l-.082.16C5.715 7.296 3.964 10.9 2.082 14.905v.053l-.559 1.22c-.21.505-.317.77-.345.848C-.172 20.74 2.61 24 5.98 24c.027 0 .131 0 .264-.027h.373c1.75-.213 3.555-1.325 5.385-3.317 1.829 1.99 3.634 3.104 5.38 3.317h.374c.133.027.238.027.264.027 3.37.003 6.152-3.26 4.802-6.975-.186-.583-.505-1.27-.9-2.093V14.9c-1.89-4.006-3.642-7.607-5.307-10.843l-.111-.162C15.317 1.462 14.469 0 12.002 0zm-.012 1.543c.954 0 1.7.557 2.018 1.006.158.239.345.557.582.953l.556 1.09.08.158c2.042 4.004 3.822 7.609 5.28 10.795l.025.023.533 1.221.319.764c.243.613.294 1.221.213 1.857l.006.004c-.185 1.246-1.034 2.28-2.2 2.783-2.253.98-4.483-.582-6.392-2.703 3.157-3.95 3.74-7.027 2.385-9.017-.795-1.14-1.932-1.696-3.393-1.696-2.944 0-4.564 2.49-3.928 5.381.37 1.565 1.351 3.343 2.916 5.332-.98 1.085-1.908 1.857-2.73 2.334-.636.344-1.245.559-1.828.61-2.68.399-4.78-2.201-3.827-4.881.132-.345.396-.98.846-1.961l.026-.053c1.464-3.178 3.242-6.79 5.285-10.795l.052-.133.58-1.115c.45-.822.634-1.19 1.35-1.643.346-.21.77-.314 1.246-.314zm.01 8.754c.933 0 1.642.344 2.12 1.062.445.61.558 1.432.286 2.465-.29 1.296-1.082 2.78-2.404 4.45-1.352-1.697-2.15-3.183-2.414-4.456-.263-1.027-.16-1.847.29-2.464.478-.71 1.189-1.057 2.122-1.057z"/></svg>