<svg xmlns="http://www.w3.org/2000/svg" viewBox="0 0 24 24"><path d="M12 0C5.373 0 0 5.373 0 12s5.373 12 12 12 12-5.373 12-12S18.627 0 12 0zm.059 5.467c2.515 0 3.48 1.404 3.48 3.959v7.04c0 .78 0 1.21.193 1.872h-2.261c-.406-.331-.504-1.073-.504-1.424-.464 1.111-1.103 1.62-2.225 1.62-1.354 0-2.474-1.016-2.474-3.259 0-2.626 1.617-3.564 2.955-4.341.937-.545 1.736-1.01 1.744-1.918 0-.858-.29-1.15-.908-1.15-.696 0-.989.468-.989 1.56v.43H8.5v-.372c0-2.614 1.006-4.017 3.559-4.017zm.908 6.474c-.21.345-.544.622-.887.905-.608.5-1.24 1.022-1.24 1.982 0 .838.368 1.307 1.006 1.307.6 0 .947-.527 1.12-.801z"/></svg>