<svg xmlns="http://www.w3.org/2000/svg" viewBox="0 0 24 24"><path d="M15.652 0c-.354.002-.714.09-1.047.275L4.475 5.924A2.33 2.33 0 0 0 3.4 7.285L.682 16.727c-.326 1.13.311 2.312 1.423 2.644l15.967 4.543c1.111.33 2.278-.317 2.604-1.447l2.64-9.26c.172-.543.077-1.212-.191-1.736L17.59 1.162A2.19 2.19 0 0 0 15.652 0zm-2.681 6.373s-.008 4.23 0 4.225c.899-1.295 1.71-2.577 3.232-2.577 1.684 0 2.599 1.408 2.604 2.594l-.008 7.598h-1.89l-.01-7.192c0-.988-.792-.986-.803-.986-.64 0-1.816 1.606-3.125 3.387v4.793l-1.914.002-.002-2.219s-1.266 2.22-3.159 2.223c-2.148 0-2.875-1.477-2.88-5.016-.004-3.37.474-5.176 2.777-5.178 1.751 0 3.256 2.551 3.256 2.551V8.963zm-5.15 3.656v.002c-.88 0-.959.93-.956 3.17.003 2.242.125 3.115.951 3.115 1.124 0 2.895-2.86 2.895-2.86s-1.756-3.427-2.89-3.427z"/></svg>