<svg xmlns="http://www.w3.org/2000/svg" viewBox="0 0 24 24"><path d="M21.805 2.469a2.36 2.36 0 0 0-1.414.353 2.36 2.36 0 0 0-.76 3.25l-.92.92c-1.87-1.53-4.15-2.44-6.63-2.44s-4.81.93-6.7 2.5l-1-1c.45-.74.46-1.66.03-2.41a2.357 2.357 0 0 0-3.222-.87 2.36 2.36 0 0 0-.878 3.22 2.37 2.37 0 0 0 3.228.88l.98.98c-1.93 1.94-3.3 4.61-3.83 7.6-.28 1.66.57 3.29 2.09 3.99a21.6 21.6 0 0 0 9.34 2.101c3.2 0 6.36-.7 9.25-2.06a3.7 3.7 0 0 0 2.16-3.372c0-.2-.009-.409-.049-.619-.54-3.04-1.93-5.749-3.9-7.699l.91-.91c.75.42 1.67.4 2.4-.06 1.11-.69 1.44-2.14.75-3.25a2.36 2.36 0 0 0-1.835-1.104zM12.08 5.742c4.95 0 9.22 4.2 10.24 9.97.19 1.12-.4 2.22-1.45 2.71a20.4 20.4 0 0 1-8.75 1.95c-3.06.01-6.08-.67-8.83-1.99a2.504 2.504 0 0 1-1.44-2.7c1.03-5.76 5.28-9.94 10.23-9.94zm0 3.58c-3.77 0-6.96 2.33-8.05 5.57-.36 1.04.25 2.13 1.27 2.55 2.15.87 4.46 1.32 6.78 1.32s4.62-.45 6.78-1.32c1.02-.42 1.63-1.51 1.27-2.55-1.09-3.24-4.29-5.57-8.05-5.57zm-2.92 3.471c1.08 0 1.97.698 1.97 1.568s-.88 1.57-1.97 1.57-1.97-.7-1.97-1.57.89-1.568 1.97-1.568zm5.63 0c1.09 0 1.97.698 1.97 1.568s-.88 1.57-1.97 1.57c-1.08 0-1.96-.7-1.96-1.57s.87-1.568 1.96-1.568z"/></svg>