<svg xmlns="http://www.w3.org/2000/svg" viewBox="0 0 24 24"><path d="M.57 0v24h22.86V0zm.916.914h21.028v22.172H1.486zm8.825 1.143L3.09 12.963c-.548.823-.806 1.304-.806 2.068 0 .871.233 1.255.41 1.655h1.153a4 4 0 0 1-.096-.233 3.3 3.3 0 0 1-.232-1.228c.02-.811.301-1.357.771-2.059l7.38-11.11zm1.607 0L4.488 13.24c-.465.695-.73 1.214-.75 1.99-.01.452.127 1.014.336 1.457H5.65a2.94 2.94 0 0 1-.375-1.498c.012-.615.266-1.01.614-1.53l7.677-11.6zm1.895 0L6.086 13.73c-.35.523-.58.89-.592 1.461-.01.541.128 1.027.395 1.495h1.46a2.1 2.1 0 0 1-.546-1.532c.007-.125.03-.279.066-.404h9.834a2 2 0 0 0-.297-.582H7.145l.138-.223h-.008c.025-.04.098-.148.168-.256l.08-.127.295-.44-.375.567a11 11 0 0 0-.16.256h8.98l-.613-.922H7.883l.148-.22h7.471l-.408-.614H8.439l6.704-10.132zm.845 1.533-.664.996 5.744 8.58c.471.702.754 1.247.774 2.059.01.463-.137.906-.26 1.23-.032.086-.053.14-.094.23h1.147c.177-.4.41-.783.41-1.654 0-.765-.259-1.244-.807-2.068zm-.799 1.195-.826 1.246 5.078 7.625c.347.522.602.918.614 1.533a2.94 2.94 0 0 1-.375 1.497h1.574c.21-.444.349-1.005.338-1.457-.018-.776-.285-1.296-.75-1.99zm-.968 1.453-.649.975 4.235 6.35c.377.564.692 1.074.72 1.591.033.605-.209 1.18-.547 1.532h1.43a2.83 2.83 0 0 0 .397-1.495c-.012-.57-.244-.938-.592-1.46zM2.629 17.143v4.8H21.37v-4.8zm3.588.572h1.672l1.873 3.656H8.104l-.176-.385h-1.75L6 21.371H4.344zm3.76 0h1.67v2.6h1.435v1.056H9.977zm3.421 0h2.43c1.002 0 1.815.82 1.815 1.83a1.82 1.82 0 0 1-1.815 1.826h-2.43zm4.616 0h1.642v3.656h-1.642zm-2.975 1.033v1.59h.352c.41 0 .744-.356.744-.795s-.333-.795-.744-.795zm-7.996.465-.373.81h.766z"/></svg>