<svg xmlns="http://www.w3.org/2000/svg" viewBox="0 0 24 24"><path d="M13.494 6c-1.645.022-3.345.492-4.502.906C5 8.316 2.488 10.576.908 13.076-.769 15.554-.216 17.923 3.322 18c2.716-.109 4.48-.863 6.32-1.803.01 0-5.086 1.453-6.958.383l-.008-.002c-.193-.11-.404-.263-.457-.682-.012-.885 1.46-1.802 2.283-2.097v-1.533a5.4 5.4 0 0 0 1.955.367 5.38 5.38 0 0 0 3.473-1.266c.037.13.055.278.043.447h.37a1.1 1.1 0 0 0-.171-.707c-.333-.529-.914-.52-.914-.52s.313.139.527.468a4.95 4.95 0 0 1-4.664.931l1.21-1.2-.337-.874c2.435-.852 4.48-1.508 7.813-2.086l-.746-.623.388-.24c2.01.568 3.326.985 3.254 2.05a2.7 2.7 0 0 1-.201.612c-.584 1.158-2.326 3.09-3.03 3.898-.464.535-.92 1.06-1.245 1.563-.335.503-.54.97-.551 1.42.043 3.504 10.334-1.641 12.324-3.004-2.943 1.266-6.113 2.49-9.61 2.719-.962.044-.863-.46-.3-1.235 1.32-1.768 3.818-4.236 3.904-5.982.151-2.283-2.142-3.026-4.5-3.004z"/></svg>