<svg xmlns="http://www.w3.org/2000/svg" viewBox="0 0 24 24"><path d="M9.172 1.29a6.7 6.7 0 0 0-2.34.519c-2.118.878-3.717 3.304-3.717 5.644a6 6 0 0 0 .014.399C1.97 8.226 0 9.284 0 12.148c0 2.376 1.447 3.622 2.307 4.153a2.8 2.8 0 0 0 1.468.418l5.202.006v-.858l-5.196-.004a1.96 1.96 0 0 1-1.017-.289C1.896 15.04.86 14.011.86 12.148c0-2.467 1.743-3.29 2.803-3.562a.426.426 0 0 0 .354-.473 6 6 0 0 1-.041-.66c0-1.982 1.4-4.113 3.187-4.853 2.148-.893 4.421-.45 6.084 1.185.65.638 1.159 1.455 1.512 2.426a.431.431 0 0 0 .75.111c.39-.52.968-.818 1.584-.818.976 0 2.013.78 2.154 2.517a.43.43 0 0 0 .354.497c1.014.169 3.375.864 3.375 3.664 0 1.046-.322 1.899-.954 2.537l.616.6c.796-.805 1.199-1.86 1.199-3.137 0-3.201-2.547-4.166-3.752-4.442-.258-2.122-1.705-3.092-2.992-3.092a2.8 2.8 0 0 0-1.782.645 7 7 0 0 0-1.458-2.117c-1.32-1.298-2.972-1.944-4.682-1.887zm6.223 8.095c-3.064 0-5.557 2.475-5.557 5.52 0 3.043 2.493 5.52 5.557 5.52a5.54 5.54 0 0 0 3.003-.882l3.12 2.793a1.5 1.5 0 0 0 .994.379 1.477 1.477 0 0 0 .998-2.576l-3.133-2.803a5.4 5.4 0 0 0 .576-2.432c0-3.043-2.493-5.52-5.558-5.52zm0 .855c2.59 0 4.697 2.091 4.697 4.664s-2.107 4.664-4.697 4.664-4.696-2.092-4.696-4.664c0-2.573 2.107-4.664 4.696-4.664zm.001.77c-2.162 0-3.92 1.746-3.92 3.894 0 2.147 1.758 3.895 3.92 3.895s3.92-1.748 3.92-3.895-1.759-3.894-3.92-3.894zm-.001.855a3.05 3.05 0 0 1 3.058 3.04c0 1.674-1.371 3.038-3.058 3.038s-3.057-1.364-3.057-3.039a3.05 3.05 0 0 1 3.057-3.039zm4.535 6.223 3.004 2.687a.623.623 0 0 1 .045.88.63.63 0 0 1-.885.044l-2.998-2.685c.31-.277.592-.586.834-.926z"/></svg>