<svg xmlns="http://www.w3.org/2000/svg" viewBox="0 0 24 24"><path d="M20.453 4.824c-.35 0-.686.04-1.006.137-.32.095-.59.23-.83.414-.24.175-.43.4-.574.654q-.216.383-.217.885a1.9 1.9 0 0 0 .4 1.158c.264.36.695.632 1.278.815l1.156.36c.391.127.663.262.807.413a.78.78 0 0 1 .215.56.86.86 0 0 1-.414.759c-.271.176-.664.263-1.166.263-.32 0-.63-.032-.95-.096a4.3 4.3 0 0 1-.879-.279c-.08-.032-.15-.064-.199-.08a.5.5 0 0 0-.144-.023c-.12 0-.184.079-.184.246v.408a.6.6 0 0 0 .049.223c.032.072.12.151.248.222.208.12.519.225.918.32a5.3 5.3 0 0 0 1.228.143c.408 0 .781-.055 1.141-.166a2.6 2.6 0 0 0 .887-.447 2.2 2.2 0 0 0 .584-.703 2.06 2.06 0 0 0 .207-.926c0-.415-.12-.79-.367-1.117s-.665-.584-1.239-.768l-1.132-.357c-.423-.136-.718-.288-.877-.44a.75.75 0 0 1-.24-.566c0-.327.126-.559.374-.711.247-.152.608-.223 1.063-.223a3.65 3.65 0 0 1 1.531.31.8.8 0 0 0 .303.097q.181-.002.183-.256v-.375a.43.43 0 0 0-.07-.264.7.7 0 0 0-.24-.2 1.7 1.7 0 0 0-.336-.144 7 7 0 0 0-.455-.127c-.168-.032-.335-.064-.518-.088a4 4 0 0 0-.535-.03zM3.994 4.84a4.8 4.8 0 0 0-1.246.15 4.6 4.6 0 0 0-1.006.362.6.6 0 0 0-.222.166c-.04.056-.057.153-.057.28v.391q0 .249.168.247a.5.5 0 0 0 .127-.024 2 2 0 0 0 .28-.103q.418-.166.862-.272c.295-.072.584-.103.864-.103.614 0 1.044.119 1.299.367.247.247.375.67.375 1.277v.582a11 11 0 0 0-.918-.176 6 6 0 0 0-.846-.062c-.822 0-1.468.208-1.955.623-.487.414-.727.965-.727 1.643q.002.957.59 1.533c.391.383.928.574 1.598.574q1.412 0 2.345-1.102a6 6 0 0 0 .248.471 2.5 2.5 0 0 0 .288.375c.079.072.16.113.24.113a.4.4 0 0 0 .207-.072l.504-.336c.104-.08.15-.158.15-.238a.34.34 0 0 0-.055-.184 4 4 0 0 1-.255-.576 2.4 2.4 0 0 1-.088-.71h-.018V7.448q0-1.318-.66-1.963-.669-.646-2.092-.646zm3.711.19c-.127 0-.191.072-.191.2a1.4 1.4 0 0 0 .072.32l1.875 6.17c.048.152.104.263.168.311.064.056.16.08.305.08h.685c.143 0 .255-.024.32-.08.063-.056.11-.16.15-.32l1.23-5.14 1.238 5.148c.03.16.087.264.15.32q.096.082.32.08h.688a.5.5 0 0 0 .303-.08q.096-.071.168-.31l1.921-6.17a1 1 0 0 0 .057-.202c.008-.048.018-.087.018-.127 0-.135-.075-.2-.202-.2h-.742a.52.52 0 0 0-.31.08q-.086.071-.16.312l-1.381 5.348-1.262-5.348c-.031-.152-.087-.265-.15-.313q-.095-.081-.32-.08h-.64a.55.55 0 0 0-.32.08c-.063.048-.11.153-.15.313L10.3 10.705 8.957 5.422c-.047-.152-.093-.265-.158-.313q-.084-.081-.31-.08zM3.971 8.87a6 6 0 0 1 .75.049 7 7 0 0 1 .734.135v.336c0 .27-.033.502-.08.693-.048.192-.143.36-.271.512a1.8 1.8 0 0 1-.758.51q-.43.143-.823.144-.551.002-.837-.297c-.2-.19-.295-.47-.295-.846 0-.399.125-.7.388-.916.264-.216.657-.32 1.192-.32zm18.265 4.9c-.84.012-1.832.2-2.582.727-.232.168-.19.391.065.36.854-.105 2.738-.327 3.074.103.335.424-.375 2.204-.695 2.994-.096.24.11.334.326.15 1.405-1.18 1.771-3.645 1.484-4.005-.143-.176-.832-.34-1.672-.329zm-22.06.477c-.176.022-.256.235-.07.402 3.13 2.826 7.273 4.526 11.87 4.526 3.28 0 7.095-1.029 9.721-2.969.431-.32.056-.807-.383-.607-2.946 1.245-6.144 1.851-9.058 1.851-4.318 0-8.493-1.19-11.877-3.152a.32.32 0 0 0-.203-.051z"/></svg>