<svg xmlns="http://www.w3.org/2000/svg" viewBox="0 0 24 24"><path d="m0 .244 4.918 8.043c.7 1.067 1.27 1.375 3.078 1.375h4.424C8.333 4.555 6.4 1.94 5.764 1.36 5.207.806 4.64.244 3.264.244zm13.633 9.838c-2.021 0-3.982.204-4.955.67-.836.443-1.053.722-1.053 1.232 0 .464.08.864.371 1.319l2.428 4.011a3.4 3.4 0 0 1-.164-1.003c0-2.541 2.763-4.221 6.222-4.221 1.09 0 1.555.183 1.555.183-.335-1.137-1.121-2.191-4.404-2.191zm-3.21 7.232v.002l2.7 4.485c.836 1.344 2.217 1.955 3.934 1.955H24l-8.13-9.852a6 6 0 0 0-.51-.006c-2.548.09-5.032 1.87-4.936 3.416z"/></svg>