<svg xmlns="http://www.w3.org/2000/svg" viewBox="0 0 24 24"><path d="M0 0v10.096L.81 8.22h1.75l.225.463V8.22h2.043l.45 1.02.437-1.014h6.502c.295 0 .56.057.756.236v-.23h1.787v.23c.307-.17.687-.23 1.12-.23h2.606l.24.466v-.467h1.919l.253.465v-.465h1.858v3.948h-1.887l-.36-.6v.584h-2.353l-.256-.629h-.582l-.27.613h-1.212c-.48 0-.84-.104-1.08-.24v.24h-2.89v-.882c0-.12-.031-.12-.106-.135h-.106v1.035H6.066v-.48l-.209.48H4.69l-.2-.48v.464H2.233l-.255-.623H1.4l-.255.623H0V24h23.785v-7.107c-.27.135-.613.18-.973.18H21.09v-.257c-.21.165-.57.256-.914.256H14.71v-.9c0-.12-.02-.12-.121-.12h-.074v1.022h-1.801v-1.066c-.298.136-.643.15-.928.137h-.215v.914h-2.18l-.538-.618-.57.602H4.741v-3.932h3.61l.517.604.555-.602h2.412c.28 0 .74.032.941.227v-.24h2.178c.202 0 .643.044.902.224v-.24h3.266v.24c.163-.164.508-.24.803-.24h1.89v.24c.194-.15.464-.24.84-.24h1.172v-.002h.004V0zm23.832 13.082v.002h-.004v.553h.065v-.555zm-.004.555h-1.281c-.69 0-.961.437-.961.84 0 .9.78.854 1.41.869.104 0 .18.015.225.06.046.03.076.106.076.18a.23.23 0 0 1-.092.18c-.045.056-.135.07-.27.07h-1.287v.605h1.288c.42 0 .734-.119.9-.36h.03c.09-.135.134-.3.134-.522 0-.24-.045-.392-.135-.528v-.006c-.03-.025-.047-.048-.076-.07-.15-.153-.39-.215-.764-.225l-.359-.011a.9.9 0 0 1-.27-.031.21.21 0 0 1-.15-.21q0-.136.09-.205c.076-.045.15-.048.27-.048h1.222zm-6.723-4.893-.943 2.22h-.299c-.177 0-.362-.03-.468-.134-.125-.15-.186-.36-.186-.662 0-.285.08-.51.193-.63.133-.136.274-.165.518-.165h.633v-.6h-.645c-.464 0-.803.106-1.02.33-.285.3-.363.69-.363 1.11 0 .512.125.833.362 1.074.232.238.643.31.968.31h.782l.254-.626h1.39l.262.627h1.36V9.486l1.273 2.112h.949l.002.002V8.785h-.684v1.963l-1.18-1.959h-1.02V11.4l-1.134-2.656zm-15.898.043L.01 11.597h.72l.26-.626h1.39l.255.627H4V9.393l.973 2.205h.584l.972-2.202.016 2.202h.69v-2.81H6.116l-.806 1.903-.875-1.904H3.344v2.662L2.205 8.787zm6.523 0V11.6h2.237v-.58H8.4v-.565h1.528v-.574H8.4v-.508h1.567v-.586zm5.78 0 .002 2.813h.683V8.787zm-3.08.002v2.82h.674v-1.033h.72c.24 0 .39.03.487.12.122.135.107.378.107.548v.354h.678v-.553c0-.25-.018-.375-.112-.516a.8.8 0 0 0-.33-.236c.172-.07.473-.3.473-.75l-.008.006c0-.314-.13-.5-.34-.623-.217-.125-.47-.137-.81-.137zm-8.739.477.461 1.117-.004.002h-.914zm15.897 0 .465 1.117v.002h-.932zM11.1 9.37h.826c.12 0 .24.005.33.05.09.04.148.129.148.25 0 .123-.046.22-.133.267v.001h-.015c-.09.054-.195.055-.33.055H11.1zm-1.385 4.25-.852.924-.824-.922H5.346v2.82H8l.855-.931.825.93h1.3v-.942h.838c.6 0 1.17-.162 1.17-.943l-.006-.004c0-.78-.597-.93-1.127-.93v-.002zm3.603.002v2.82h.674v-1.027h.72c.24 0 .391.024.48.125.12.13.103.38.103.55v.35h.66v-.554c-.002-.25-.016-.378-.107-.518a.75.75 0 0 0-.33-.232l.02-.008a.79.79 0 0 0 .48-.748h-.002c0-.32-.135-.497-.344-.623-.21-.12-.465-.135-.81-.135zm3.043.004v2.832h2.237v-.584h-1.57v-.57h1.533v-.584h-1.534v-.51l1.57-.002v-.582zm3.537.012c-.704 0-.959.437-.959.84 0 .9.778.856 1.409.87.104 0 .18.014.224.06.046.03.082.107.082.18 0 .078-.035.15-.08.18-.06.054-.15.07-.277.07H19v.6h1.305c.676 0 1.049-.278 1.049-.884 0-.279-.064-.447-.184-.58.01.007.02.008.027.017l-.04-.035.007.014c-.153-.131-.39-.191-.727-.205l-.376-.016c-.104 0-.18 0-.254-.03a.21.21 0 0 1-.15-.208c0-.09.016-.167.09-.211a.5.5 0 0 1 .27-.06h1.231v-.602zm-9.585.29v2.255L9.28 15.035zm.667.28h.885c.24 0 .42.1.42.346 0 .243-.15.37-.42.37v.003h-.885zm-4.96.004H7.7l.734.818-.764.825-.014-.002H6.02v-.557h1.47v-.574H6.02zm7.957 0h.824c.12 0 .24 0 .33.05a.26.26 0 0 1 .15.255c0 .12-.046.214-.135.27h-.001l-.028-.003c-.09.053-.195.059-.33.059h-.81z"/></svg>