<svg xmlns="http://www.w3.org/2000/svg" viewBox="0 0 24 24"><path d="M12 0c-.713 0-1.377.184-1.945.512L2.982 4.586a4.01 4.01 0 0 0-1.918 3.42v7.998a3.99 3.99 0 0 0 1.928 3.42l7.014 4.047A4 4 0 0 0 12 24c.723 0 1.407-.192 1.994-.53l6.938-4.007a4.01 4.01 0 0 0 2.004-3.469V7.996a4 4 0 0 0-1.938-3.41L13.955.512A3.94 3.94 0 0 0 12 0zm0 2.592c.067 0 .115.058.115.115 0 5.059 4.115 9.182 9.182 9.182.068 0 .115.059.115.117.01.067-.047.113-.115.113h-.037c-5.04.02-9.145 4.145-9.145 9.184a.117.117 0 0 1-.115.115.12.12 0 0 1-.115-.115v-.04c-.02-5.038-4.144-9.144-9.182-9.144a.116.116 0 0 1-.115-.113c0-.068.057-.117.115-.117h.037c5.04-.02 9.145-4.143 9.145-9.182 0-.067.057-.115.115-.115z"/></svg>