<svg xmlns="http://www.w3.org/2000/svg" viewBox="0 0 24 24"><path d="M9.049 5.51a29 29 0 0 0-6.404.703L0 8.03c.335 0 .837-.02 1.174-.02a25.15 25.15 0 0 1 20.457 10.48L24 15.235a20.74 20.74 0 0 0-9.86-7.507 31.3 31.3 0 0 1 6.909 1.013l-1.553-1.32A29.2 29.2 0 0 0 9.05 5.51zm-3.623 7.467L3.885 18.49h1.168l.763-2.742.405 2.742h1.168l1.537-5.513H7.729l-.823 2.953-.437-2.953zm3.771 0-.332 1.181h1.11L8.77 18.49h1.164l1.21-4.332h1.053l.332-1.181zm-6.375.002L0 18.49h1.166l.361-.738H2.64l-.055.738H3.77l.234-5.511zm10.24 0-2.83 5.511h1.17l.366-.738h1.107l-.053.738h1.182l.234-5.511zM2.919 14.66l-.209 1.947h-.688zm10.238 0-.209 1.947h-.69z"/></svg>