<svg xmlns="http://www.w3.org/2000/svg" viewBox="0 0 24 24"><path d="M10.824 1.674a2 2 0 0 0-.178.01C5.336 2.112.05 5.664 0 10.777c.013 1.867 1.057 4.129 1.908 4.725.638.447 1.207.386 1.844-.389.546-.665.953-1.422 1.396-2.156v-.002c1.738-2.886 3.37-5.835 5.297-8.605.385-.553.787-1.099 1.092-1.702.18-.355.135-.628-.113-.81-.182-.135-.408-.166-.6-.164zm2.352.002c-.192-.002-.42.028-.602.162-.247.182-.29.457-.111.812.305.603.708 1.147 1.092 1.7 1.928 2.77 3.559 5.72 5.297 8.607.442.734.849 1.491 1.396 2.156v.002c.637.774 1.206.834 1.844.387.85-.597 1.894-2.858 1.908-4.725-.05-5.112-5.337-8.664-10.648-9.091a2 2 0 0 0-.176-.01zM12 10.672a7 7 0 0 0-.998.084c-2.919.438-4.948 2.078-6.201 4.693-.641 1.336-.356 2.255.8 3.166l.206.158q.32.214.627.415c3.026 1.974 4.133 2.675 4.58 2.88.186.085.51.245.96.256h.05c.45-.01.776-.17.962-.256.446-.205 1.552-.906 4.578-2.88q.307-.202.63-.417l.202-.156c1.157-.91 1.442-1.83.801-3.166-1.25-2.614-3.282-4.255-6.2-4.693a7 7 0 0 0-.997-.084z"/></svg>