<svg xmlns="http://www.w3.org/2000/svg" viewBox="0 0 24 24"><path d="m12.572 0 .047.088c.015.029.024.057.04.094l.009.021.031.078.047.172s-.352-.014-.764-.299c-.089-.062-.202-.062-.326-.072L11.621.08a4 4 0 0 0-.332-.014 3.1 3.1 0 0 0-.973.149q.052-.003.106-.002h.066c.677.012.889.414.889.414s-.606-.002-.785.021c-.21.027-.421.054-.617.108a5.1 5.1 0 0 0-1.621.795c-.124.088-.253.17-.39.256q-.346.222-.575.578a.4.4 0 0 0-.035.066c-.014.036-.008.04.015.053a.8.8 0 0 0 .168.06 2.35 2.35 0 0 1 1.785 2.004l.016.123c.035.307.073.625.057.946a3.4 3.4 0 0 1-.903 2.19c-.59.645-1.321.69-1.314.685.435-.406.72-.95.875-1.66a1.4 1.4 0 0 0-.084-.829l-.016.047c-.097.276-.22.595-.447.858-.132.15-.313.322-.522.521-.91.867-2.434 2.317-2.408 4.623 0 .135.028.299.057.426.179-.113.384-.2.625-.268a46 46 0 0 1 1.46-.378l.19-.045c.478-.116.975-.238 1.44-.416.283-.108.552-.25.824-.436.38-.26.72-.58 1.012-.951.154-.196.231-.35.308-.606l.115-.377s.465.519-.003 1.436c.297-.107.58-.412.796-.787.181-.315.493-1.451.493-1.451s.568.874-.106 2.01a1.6 1.6 0 0 0 .356-.227c2.507-2.49.348-3.9-.104-4.236a4 4 0 0 0-.98-.526L11 5.22c-.03-.013-.047-.034-.055-.043l-.322-.35.565.154q.117.032.226.065c.614.182 1.083.4 1.473.685.445.325 2.141 1.752.347 3.838.556-.19 1.607-.771 1.963-1.271 1.713-2.405-.254-3.809-.17-3.809a1 1 0 0 1 .1.01.4.4 0 0 0 .068.006c.036 0 .098-.006.11-.041.015-.042-.016-.122-.075-.168-.154-.117-.32-.201-.533-.168-1.772.274-2.396-.277-2.396-.277s2.48.13 2.56-.28a5 5 0 0 0-1.224-.912 6.7 6.7 0 0 0-2.229-.744c-1.207-.179-2.129.055-2.129.055.096-.121.575-.668 2.557-.512.802.063 1.563.317 2.27.67.181.091.29-.127.292-.225.004-.114.202.38.204.407.019-.05.095-.309.11-.309.048 0 .241.604.241.604.002-.024.258-.288.258-.288.076.343.066.515.047.563.002-.01.265-.172.265-.172s.153.638.413.89c.084.083.238.297.328.528.19-.133.422-.799.422-.799s.117.353.017.988c.007-.008.303-.218.303-.218s.041.449-.15 1.008a1 1 0 0 0-.024.093c.162-.09.404-.386.404-.386l-.04.187c-.049.214-.139.63-.329.953a2.6 2.6 0 0 0-.289.686q.075-.067.152-.12c.1-.064.2-.118.293-.152l.233-.084a19 19 0 0 0 1.172-.478c.812-.36.63-.862.63-.862-.208.408-.964.817-.964.817s.978-.877.56-1.904c-.115.27-.223.537-.326.79-.144.354-.314.726-.59 1.055-.14.168-.285.29-.445.373a1 1 0 0 1-.115.05l-.043.015s.171-.283.183-1.063c.004-.282.012-.571.012-.826v-.055l-.002-.394c.005-.558.016-.982.133-1.373-.012-.022-.007-.046-.02-.069-.027-.046-.046-.098-.07-.156-.036-.089-.066-.178-.101-.275-.127-.36-.309-.538-.366-.588-.038.115-.27.592-.27.592l-.001-.395c-.067-.51-1.33-.97-1.356-.986l.067.4s-.382-.029-.545-.285a.5.5 0 0 0-.13-.125l.09.307.093.215s-.295-.025-.434-.27c-.033-.057-.076-.121-.113-.19a.75.75 0 0 0-.575-.396 8 8 0 0 0-.6-.06 1.3 1.3 0 0 1-.48-.112zm6.033 1.379a.9.9 0 0 0-.246.252c-.168.242-.29.53-.396.932-.182.686-.291 1.427-.338 2.308.192-.205.507-.657.572-1.215.011-.094.024-.198.024-.302a5 5 0 0 1 .367-1.934zm1.36 4.451-.111.033c-.127.037-.259.075-.374.131a2.4 2.4 0 0 0-.427.285c-.158.127-.32.27-.453.383q-.17.148-.342.293c-.205.171-.351.28-.666.395-.276.099-.488-.125-.488-.125a1.3 1.3 0 0 0 .447-.39 8 8 0 0 0-1.155.712 2.4 2.4 0 0 0-.388.351c-.124.156-.205.319-.205.485v.002c0-.003.043-.004.052-.006a6 6 0 0 0 1.227-.49 16 16 0 0 0 1.758-1.075.3.3 0 0 1 .094-.048l.37-.106-.228.315-.025.033c-.745.74-1.519 1.273-2.362 1.623a5 5 0 0 1-.492.174 9 9 0 0 0 1.514-.526c.537-.244.914-.482 1.22-.771.476-.45.813-.981 1.008-1.576a1 1 0 0 0 .026-.102zM5.566 7.75c-1.985.209-2.418 2.1-2.418 2.1s.017-.347.024-.434c.057-.649.123-.961.205-1.287-.13.238-.213.487-.272.687-.139.47-.216.95-.273 1.358a9 9 0 0 0-.096 1.289c.002.38.024.827.176 1.262q.108.306.28.511c.027.035.063.07.097.102l.025.021.008.004a.7.7 0 0 0 .18.065 8 8 0 0 1-.139-1.758c.027-.797.177-1.47.461-2.059a8 8 0 0 1 .317-.52s-.178 1.204-.203 1.675a7 7 0 0 0 .16 1.867l.072-.051a5.6 5.6 0 0 1 .004-1.219 7 7 0 0 1 .42-1.72 9.3 9.3 0 0 1 .972-1.893zm13.233.578a7.6 7.6 0 0 1-2.67 1.063 7 7 0 0 1-1.139.12c-.516.526-1.142.96-1.965 1.366-.52.256-1.1.439-1.826.58q-.622.121-1.242.238l-.086.016-1.057.2c-.929.177-1.919.387-2.87.708-.692.234-1.225.481-1.678.78-.444.29-.75.59-.965.943a3 3 0 0 0-.147.29l-.074.161a.4.4 0 0 1-.076.113c-.484.473-.69 1.064-.613 1.756.046.416.175.821.394 1.236.127-.846.574-1.491 1.328-1.92.41-.232.863-.403 1.383-.517a39 39 0 0 1 1.563-.305l.306-.052c.516-.091 1.052-.185 1.559-.346q.181-.058.347-.121c.147-.055.275-.12.391-.205q.211-.156.443-.291c-.653-.015-1.759-.018-2.103-.02-.77-.004-1.3.06-1.965.313-.694.264-2.676 1.27-2.676 1.27s.986-1.055 2.838-1.845a7.9 7.9 0 0 1 2.928-.529c.275 0 .56.011.871.033q.768.057 1.535.11l.016.002a.3.3 0 0 0 .074-.012 10.6 10.6 0 0 1 1.572-.324c.175-.025.353-.062.528-.098l-.104-.03a1 1 0 0 1-.117-.044l-.088-.035-.346-.233 1.297.028c.28 0 3.031-.443 4.21-3.723.077-.22.16-.437.224-.676zm.945.334c-.079.307.016.812.123 1.11.132.36.544 1.068.445 1.498 0 0-.027.276-.302.449-.153.096-.215.052-.215.052.294-.627.296-.892-.03-1.486-.244-.447-.357-.897-.269-1.396l.014-.06a2 2 0 0 1-.088.198c-.25.44-.485.667-.627 1.121-.15.508.01 1.06.324 1.598a1.24 1.24 0 0 1-.553-.805 4.3 4.3 0 0 0-1.334 1.166 2 2 0 0 1-.26.27 4.9 4.9 0 0 1-1.978 1.098c-.493.145-1 .267-1.502.388l-.13.032c-.684.165-1.408.35-2.096.656-.792.352-1.42.756-1.918 1.238a4.4 4.4 0 0 0-1.327 2.594c-.114.78-.055 1.595.18 2.49.008.032-1.03-.94-.494-3.74a6 6 0 0 0-.236-.008l-.067.002c-1.933.058-2.736 1.121-2.736 1.121s.125-1.181 1.986-1.578c.14-.03 1.312-.294 1.352-.307q.231-.472.556-.888l-.166.027c-.319.05-.647.1-.974.143l-.252.029c-.577.074-1.174.15-1.74.316-.594.174-1.06.426-1.422.768-.39.366-.668.838-.852 1.441l-.023.086q-.018.076-.045.152c-.02.052-.025.11.017.22.348.922.947 1.723 1.776 2.376a7.6 7.6 0 0 0 2.144 1.18c.026.009.07.024.11.064l.347.336-.543-.129q-.095-.021-.191-.047c-1.114-.306-2.085-.822-2.885-1.533-.273-.099-1.667-.793-2.26-1.935l-.1-.19s.759.747 1.29.856a5.6 5.6 0 0 1-.564-1.22.3.3 0 0 0-.05-.089c-.905-1.13-1.556-2.272-1.984-3.492a5 5 0 0 1-.084-.262 9 9 0 0 0-.064 1.057c0 .11.955 2.646.955 2.646s-.42-.466-.768-1.058c0 0-.062-.198-.07-.211q.227 1.346.863 2.52c1.167 2.146 2.957 3.554 5.471 4.212a7.7 7.7 0 0 0 1.955.254L16.31 24c.369 0 .65-.022.914-.07l.04-.006a1.5 1.5 0 0 1 .282-.035q.158 0 .346.045l.06.013c.116.026.225.053.332.053 1.32.01 1.137-.785 1.137-.785-.055-.207-.295-.35-.557-.412a1.2 1.2 0 0 0-.281-.033q-.27 0-.559.119l-.287.123-.172.076a1 1 0 0 1-.097.037.5.5 0 0 1-.17.035c-.2 0-.21-.193-.215-.31a.46.46 0 0 1 .17-.373q.14-.12.303-.229c.195-.132.395-.267.55-.445a1.5 1.5 0 0 0 .362-.7.83.83 0 0 0-.045-.468c-.014-.035-.026-.043-.04-.047a9 9 0 0 0-.368-.111c-.488-.137-.847-.344-1.127-.645a2.8 2.8 0 0 1-.44-.67 6 6 0 0 1-.416-1.096c-.159-.6-.534-1.083-1.148-1.472a3.54 3.54 0 0 0-1.559-.524c-.137-.015-.275-.02-.422-.027-.037-.002-.123-.014-.209-.025-.077-.01-.152-.02-.187-.022l-.21-.014s.054-.076.49-.242c.081-.03.166-.037.25-.053q.302-.052.589-.052c.458 0 .89.104 1.287.312.494.26.89.656 1.207 1.211.173.302.31.626.416.992q.03.104.059.217c.035.134.07.272.12.397.308.756.876 1.197 1.69 1.314q.325.046.627.045a3.5 3.5 0 0 0 1.076-.164c.455-.149.804-.383 1.063-.713a1.4 1.4 0 0 0 .256-.492l.035-.121.201.047q.065.017.131.03a.5.5 0 0 0 .094.009c.092 0 .187-.021.289-.043l.015-.004c.076-.017.151-.02.223-.024l.06-.003c.073 0 .134.048.16.093.032.053.08.083.175.104a.4.4 0 0 0 .076.008c.229 0 .468-.21.474-.416.003-.08-.018-.128-.07-.164q-.06-.04-.13-.084l-.227-.143.15-.115a.25.25 0 0 1 .148-.051c.045 0 .085.012.12.027 0 0-.192-1.01-1.528-.716 0 0-.217.088-.328.13l-.05.022a.3.3 0 0 1-.102.017.36.36 0 0 1-.166-.046c-.468-.235-.926-.131-1.002-.131a2.3 2.3 0 0 1-.537-.059.22.22 0 0 1-.117-.066l-.086-.098a2.6 2.6 0 0 1-1.182-.197c-.436-.186-.785-.47-.996-.903a1.5 1.5 0 0 1-.15-.685l.027.066q.125.373.373.68c.306.379.701.633 1.15.812.243.097.495.164.764.21 0 0 .956.036 1.38-.317.324-.18.614-.264.917-.264h.062c1.027 0 1.12-.498 1.12-.498s.117.076.28.051a.666.666 0 0 0 .604-.63l-.34-.305-.072-.065-.135-.105.092-.106a.27.27 0 0 1 .207-.097q.07 0 .135.035c.06.034.115.077.164.117l.05.039.065.05a.56.56 0 0 0-.037-.265 5 5 0 0 0-.125-.283l-.06-.125q-.033-.072-.067-.14a2.4 2.4 0 0 1-.15-.35 1.5 1.5 0 0 1-.053-.32 3.31 3.31 0 0 0-1.885-2.716 1.3 1.3 0 0 1-.215.416c-.09.12-.143.14-.261.14-.157 0-.18-.181-.133-.266a1.5 1.5 0 0 0 .195-.543c.033-.377-.177-.787-.435-1.069-.24-.26-.649-.563-.979-.662zM2.172 10.05a8.4 8.4 0 0 0-1.627 2.717l.004.02a9.4 9.4 0 0 0 1.03 2.2c.127.205.266.409.401.604l.022.03c-.351-1.237.223-1.981.223-1.981l.142.39c.036.101.09.198.166.301q.222-.413.535-.783a1.4 1.4 0 0 1-.472-.414c-.2-.264-.331-.581-.414-.996a5.5 5.5 0 0 1-.07-1.563c.014-.174.037-.348.06-.525zm19.621 2.644c.355-.03.72.157.863.495.05.114.076.24.09.363.028.259-.013.51-.1.756-.038.106-.088.123-.199.1a.7.7 0 0 0-.181-.014c-.111.005-.221.023-.332.025-.277.005-.542-.045-.762-.225-.312-.256-.373-.559-.178-.943l.004.037a.75.75 0 0 0 .346.611c.18.121.383.17.593.196.17.02.34.05.489.142l.04.022.007-.008c-.03-.041-.04-.183-.026-.242a.56.56 0 0 0 .002-.297.62.62 0 0 1-.25.305.08.08 0 0 1-.053.02 2.5 2.5 0 0 1-.654-.233c-.186-.102-.281-.262-.232-.485a.2.2 0 0 0-.057-.19c-.023-.022-.042-.05-.066-.077.055-.051.101-.1.154-.143q.075-.061.158-.11a.8.8 0 0 1 .344-.105zm-.049.3a.27.27 0 0 0-.27.27.27.27 0 1 0 .542 0 .27.27 0 0 0-.272-.27zm-21.45.55a7.75 7.75 0 0 0 1.683 3.693v-.004c-.02-.237-.034-.473-.047-.755a.1.1 0 0 0-.022-.065c-.63-.909-1.088-1.695-1.445-2.474a7 7 0 0 1-.168-.395zm23.186 5.47q-.052.049-.105.09a1 1 0 0 1-.197.122.66.66 0 0 1-.291.072.6.6 0 0 1-.282-.072.96.96 0 0 0-.46-.106q-.094.001-.21.014c-.026.003-.037.01-.052.04-.258.532-.684.907-1.299 1.153l-.018.008-.002.014a1.2 1.2 0 0 0-.002.453c.054.216.186.39.405.535.176.117.395.203.732.287.34.085.652.125.965.125.185 0 .335-.019.47-.059a.81.81 0 0 0 .59-.638 6 6 0 0 0 .13-.713 1.8 1.8 0 0 0-.374-1.324zm-3.359 2.407c-.288.707.306 1.221.75 1.451.077.04.1.05.182.082.084.037-.165.493.045.703s.408.149.486.149c0 0 .36.335.566.111.053-.058.099-.262.03-.385-.086-.152-.295-.125-.315-.125-.41.005-.372-.187-.31-.27.045-.058.132-.054.205-.054q.025-.001.052.004.142.016.268.016c.335 0 .725-.034.984-.178.186-.104.491-.458.475-.694-.017.006-.823.32-1.95.135-.395-.065-1.234-.36-1.468-.945z"/></svg>