<svg xmlns="http://www.w3.org/2000/svg" viewBox="0 0 24 24"><path d="m11.967 0-.592.744c-1.761 2.211-3.626 5.55-4.412 7.9-1.287 3.847-1.308 7.624-.057 10.63l.405.974.459-.275c.252-.151.569-.35.705-.442.189-.127 1.008-.166 3.474-.166h3.23l.727.434.727.431.338-.73c.786-1.696 1.16-4.231.963-6.533-.21-2.445-.944-4.86-2.264-7.438-.668-1.305-2.518-4.144-3.281-5.037zm.017 2.004c.095-.005.191.106.414.389C13.524 3.82 14.926 6.33 15.61 8.14c1.167 3.09 1.414 6.72.635 9.343l-.185.625H7.92l-.194-.672c-.963-3.312-.408-7.45 1.52-11.306.69-1.38 2.103-3.604 2.544-4.002.083-.075.139-.122.195-.125zm2.327 6.937a1.07 1.07 0 0 0-.932 1.538l-.463.46a2.16 2.16 0 0 0-2.262-.007l.014-.014-.61-.607a.657.657 0 0 0-.603-.854.657.657 0 0 0 0 1.314l.066-.017.616.615c-.33.38-.53.875-.53 1.416a2.2 2.2 0 0 0 .268.986l-.44.44a.8.8 0 0 0-.337-.09.8.8 0 0 0 0 1.602.8.8 0 0 0 .76-.952l.439-.439a2.17 2.17 0 0 0 1.48.623c.319 0 .62-.07.893-.193l-.008.008.53.511a1.418 1.418 0 0 0 1.119 2.246 1.418 1.418 0 1 0 0-2.836 1.4 1.4 0 0 0-.422.086l-.53-.511a2.16 2.16 0 0 0 .125-2.817l.455-.453a1.1 1.1 0 0 0 .372.084 1.07 1.07 0 0 0 0-2.139zm-2.534 2.149c.935 0 1.698.76 1.698 1.695s-.763 1.695-1.698 1.695a1.7 1.7 0 0 1-1.695-1.695c0-.934.76-1.695 1.695-1.695zm-.832 1.514a.277.277 0 0 0 0 .552.277.277 0 0 0 0-.552zm.793 0a.277.277 0 0 0 0 .552.277.277 0 0 0 0-.552zm.795 0a.277.277 0 0 0 0 .552.277.277 0 0 0 0-.552zm-7.385 4.064-.794.814c-.696.714-.806.895-.885 1.444-.05.344-.121.755-.158.91-.067.28-.054.28 1.33.281h1.394l-.254-.498c-.329-.646-.628-1.802-.63-2.443zm13.784.254c-.048.006-.059.073-.07.185-.078.736-.335 1.739-.606 2.352l-.291.658h1.373c.755 0 1.373-.012 1.373-.03s-.082-.454-.18-.97c-.17-.896-.212-.97-.908-1.63-.435-.414-.612-.575-.691-.565zm-8.793 3.447.082.512c.11.697.7 1.948 1.217 2.586.234.289.464.529.507.533.134.01.822-.823 1.155-1.4.297-.513.709-1.715.709-2.067 0-.129-.4-.164-1.834-.164z"/></svg>