<svg xmlns="http://www.w3.org/2000/svg" viewBox="0 0 24 24"><path d="M3.92 7.521a.3.3 0 0 0-.107.042c-.14.083-.374.318-.653.658l.258.482a6 6 0 0 1 .326-.412c-.08.108-.179.245-.295.422q.501-.034.996-.123c.1-.55-.095-.8-.095-.8s-.189-.307-.43-.269zm6.726.098c-.512 0-.807.44-.808.85 0 .433.33.88.799.88.262 0 .564-.142.675-.398l-.14-.072a.58.58 0 0 1-.526.318c-.363 0-.638-.342-.638-.718 0-.344.223-.71.63-.71a.54.54 0 0 1 .505.303l.134-.08a.67.67 0 0 0-.63-.373zm-4.386.01v.002h-.137L5.41 9.336h.18l.217-.533h.77l.22.533h.18l-.715-1.707zm.896 0v1.709h.166v-.633h.557c.292 0 .488-.263.488-.54 0-.266-.21-.536-.502-.536zm1.834 0-.715 1.709h.178l.219-.535h.765l.221.535h.184l-.713-1.71zm2.557 0v1.709h.166v-.8h1.01v.8h.17v-1.71h-.17v.76h-1.01v-.76zm1.73 0v1.709h1.147v-.15h-.983v-.65h.836v-.143h-.836v-.616h.96v-.15zm-5.953.15h.531c.187 0 .346.171.346.385 0 .207-.13.393-.332.393h-.545zm-1.13.047.34.844h-.692zm2.867.004.34.84h-.69zm-5.903.39-.056.073a8 8 0 0 0-.23.297q-.4.537-.755 1.107l-.008.014.002.002c-.006.009-.008.018-.015.025q-.117.192-.233.39-.216.376-.408.76l-.035.073q-.21.432-.375.883-.05.14-.094.27l-.064.224a6 6 0 0 0-.127.521v.002a5 5 0 0 0-.094.655l-.002.021c-.103-.169-.384-.332-.383-.33.2.29.351.58.373.861-.106.022-.253-.009-.422-.072.177.163.31.21.362.22-.161.01-.33.123-.5.253.248-.103.45-.145.594-.112A50 50 0 0 0 0 16.482a.2.2 0 0 0 .137-.132 45 45 0 0 1 .773-2.33l.01-.03.14-.38.034-.089v-.003l.135-.358.039-.101.18-.457a43 43 0 0 1 .57-1.344l.207-.445.076-.16.133-.27.007-.016-.22-.44.222.44.217-.414q.228-.431.486-.846a11 11 0 0 1 .268-.404zm1.287.376q-.494.084-.994.119-.113.174-.246.396l-.014.024q-.247.42-.472.855-.104.198-.213.424h-.008q.001.008-.002.012l-.025.058q-.045.09-.088.184l-.098.203-.05.11q-.077.162-.153.335-.198.446-.38.897-.091.223-.184.46l-.168.434-.008.024-.17.453-.002.01-.027.07-.131.37v.005l-.022.055-.115.334c.099.046.178.163.252.297a.54.54 0 0 0-.176-.37c.483.022.902-.1 1.117-.457a1 1 0 0 0 .053-.1c-.098.125-.217.18-.447.167.336-.151.504-.297.652-.537a3 3 0 0 0 .108-.188c-.251.277-.63.4-.997.324l-.015-.003c.322-.04.75-.283 1.025-.58a2.6 2.6 0 0 0 .352-.487q.119-.21.224-.47a7 7 0 0 0 .18-.493 1 1 0 0 1-.254.088l-.05.012-.051.006c.302-.115.489-.337.627-.612q-.167.114-.362.16l-.062.01-.018.002a1.2 1.2 0 0 0 .27-.15 1 1 0 0 0 .113-.102l.04-.043a1 1 0 0 0 .083-.117l.025-.039.028-.057a3 3 0 0 0 .101-.224l.037-.094.012-.031q.016-.048.026-.086a1 1 0 0 0 .02-.09.2.2 0 0 1-.036.025c-.09.053-.244.104-.37.127q-.003 0-.005.002l-.023.004c.24-.113.35-.214.457-.363a5 5 0 0 0 .334-.56h.001a4 4 0 0 0 .186-.415 3 3 0 0 0 .076-.224q.022-.087.037-.164zm.979 1.412a.06.06 0 0 0-.063.062v4.63a.8.8 0 0 1-.052.314.48.48 0 0 1-.332.289c-.164.04-.378.033-.54.01a3 3 0 0 1-.25-.045.063.063 0 0 0-.076.062v.842a.06.06 0 0 0 .045.06 2.7 2.7 0 0 0 .66.075q.368 0 .674-.096a1.4 1.4 0 0 0 .531-.3 1.34 1.34 0 0 0 .35-.513q.125-.309.125-.73V10.07a.06.06 0 0 0-.062-.062zm1.553 0a.063.063 0 0 0-.063.062v4.77a.063.063 0 0 0 .063.062h.904a.063.063 0 0 0 .062-.062v-2.22q0-.093-.005-.203a25 25 0 0 0-.034-.88l.93 3.32a.06.06 0 0 0 .06.042h.93a.06.06 0 0 0 .06-.043l1.018-3.37-.007.187-.01.242-.016.473v2.45a.063.063 0 0 0 .065.063h.943a.063.063 0 0 0 .06-.06V10.07a.06.06 0 0 0-.06-.06H10.5a.06.06 0 0 0-.06.043l-1.045 3.474-.983-3.472a.06.06 0 0 0-.06-.047zm9.468.344a.06.06 0 0 0-.058.04l-.28.75-.529.323a.06.06 0 0 0-.03.053v.42a.063.063 0 0 0 .061.062h.414v1.697a1.8 1.8 0 0 0 .088.61 1.04 1.04 0 0 0 .256.396.9.9 0 0 0 .381.207c.304.074.622.076.926.008a1.5 1.5 0 0 0 .363-.125.06.06 0 0 0 .033-.055v-.742a.06.06 0 0 0-.027-.049v-.002a.06.06 0 0 0-.057-.008q-.13.047-.263.08-.123.031-.264.032a.32.32 0 0 1-.23-.084q-.085-.082-.086-.27v-1.693h.826a.063.063 0 0 0 .062-.065v-.746a.063.063 0 0 0-.062-.062h-.826v-.715a.06.06 0 0 0-.063-.062zm-2.554.71q-.383 0-.702.126c-.208.082-.394.21-.544.376a1.75 1.75 0 0 0-.35.62 2.7 2.7 0 0 0-.123.859c0 .32.044.606.135.848q.138.361.384.603c.164.157.364.277.59.356a2.3 2.3 0 0 0 .742.117q.213 0 .377-.016a2.3 2.3 0 0 0 .612-.129q.142-.051.271-.12a.06.06 0 0 0 .033-.056v-.769a.063.063 0 0 0-.09-.055 2.5 2.5 0 0 1-.826.266q-.152.015-.306.014a.9.9 0 0 1-.332-.055.7.7 0 0 1-.244-.162.8.8 0 0 1-.155-.264 1.2 1.2 0 0 1-.058-.295h2.158a.063.063 0 0 0 .062-.062v-.483a2.1 2.1 0 0 0-.115-.724 1.5 1.5 0 0 0-.326-.545 1.35 1.35 0 0 0-.518-.334 1.9 1.9 0 0 0-.675-.116zm5.99 0c-.253 0-.49.042-.701.126a1.45 1.45 0 0 0-.545.376 1.75 1.75 0 0 0-.352.62 2.7 2.7 0 0 0-.123.859c0 .32.046.606.135.848q.14.361.387.603.248.236.59.356a2.3 2.3 0 0 0 .742.117q.213 0 .377-.016a2.3 2.3 0 0 0 .882-.25.06.06 0 0 0 .034-.055v-.769a.063.063 0 0 0-.09-.055 2.5 2.5 0 0 1-.828.266q-.153.015-.307.014a.9.9 0 0 1-.33-.055.7.7 0 0 1-.242-.162.8.8 0 0 1-.158-.264 1.2 1.2 0 0 1-.057-.295h2.156a.063.063 0 0 0 .065-.062v-.483a2.1 2.1 0 0 0-.116-.724 1.5 1.5 0 0 0-.328-.545 1.35 1.35 0 0 0-.515-.334 1.9 1.9 0 0 0-.676-.116zm3.83.004a1.1 1.1 0 0 0-.436.043.93.93 0 0 0-.486.338 2 2 0 0 0-.133.192l-.125-.461a.06.06 0 0 0-.058-.047h-.754a.06.06 0 0 0-.063.062v3.647a.063.063 0 0 0 .063.062h.994a.063.063 0 0 0 .062-.062v-1.858q.001-.245.06-.41a.7.7 0 0 1 .163-.263.64.64 0 0 1 .254-.147q.155-.046.336-.047l.08.004a.7.7 0 0 1 .254.027.062.062 0 0 0 .076-.058v-.936H24a.06.06 0 0 0-.045-.058.3.3 0 0 0-.064-.012l-.084-.01q-.046-.007-.096-.006zm-9.815.829a.55.55 0 0 1 .247.052q.106.051.175.145a.7.7 0 0 1 .106.219q.03.106.039.228h-1.137q.033-.324.176-.476a.52.52 0 0 1 .394-.168zm5.99 0a.55.55 0 0 1 .247.052.5.5 0 0 1 .176.145.7.7 0 0 1 .105.219q.03.106.037.228h-1.137q.034-.324.178-.476a.52.52 0 0 1 .395-.168z"/></svg>