<svg xmlns="http://www.w3.org/2000/svg" viewBox="0 0 24 24"><path d="M11.998 0C5.371.001 0 5.372 0 12c0 .843.088 1.668.254 2.463a12.6 12.6 0 0 1 3.309-.442c1.835 0 3.579.393 5.152 1.1a12.54 12.54 0 0 1 7.303-2.332c1.704 0 3.33.34 4.81.953l.024.01a.186.186 0 0 1-.082.353l-.268-.02a13 13 0 0 0-.895-.032c-4.208 0-7.988 1.546-10.28 4.681l-.11.15a.183.183 0 0 1-.281.009C6.76 16.847 3.895 16.036.678 15.98 2.32 20.65 6.768 24 11.998 24 18.628 24 24 18.627 24 12S18.627.001 12 0zm5.885 6.158a7.3 7.3 0 0 1 3.43.715l.14.074a.12.12 0 0 1 .067.11c0 .069-.044.135-.125.125-.042-.004-.115-.018-.16-.024a7 7 0 0 0-.405-.05c-2.447-.23-4.726.45-6.21 2.171-.064.064-.118.066-.179.002-1.18-1.34-2.864-1.934-4.795-2.117a7.2 7.2 0 0 0-2.01.09l-.009.002-.022.002a.125.125 0 0 1-.074-.225l.035-.02a7.23 7.23 0 0 1 4.05-.794c1.053.1 2.035.42 2.9.91a7.3 7.3 0 0 1 3.367-.97z"/></svg>