<svg xmlns="http://www.w3.org/2000/svg" viewBox="0 0 24 24"><path d="M6.904 1.033c-.144 0-.162.05-.162.455 0 .503-.072.791-.271 1.088-.151.225-.177.232-.737.23-.666 0-1.199.066-2.164.268-.246.052-.58.116-.744.143-.372.063-.426.083-.467.183-.128.305.079.85.52 1.371.176.21.227.22.385.088.19-.159.217-.166.562-.162a2 2 0 0 1 .504.055c.268.07.555.213.695.353a1.04 1.04 0 0 1 .268.502c.013.086.005.11-.059.182-.092.105-.207.14-.453.14-.388 0-1.278-.3-1.57-.53a.3.3 0 0 0-.148-.07c-.053 0-.067.017-.09.103-.07.255-.108.353-.2.521-.087.16-.097.198-.097.338 0 .133.01.175.066.26a.8.8 0 0 0 .41.28c.064.02.266.047.446.06.475.037.65.063.806.12.167.063.333.21.373.329.026.079.025.09-.025.13q-.053.045-.18.044a3 3 0 0 0-1.25.298 2.6 2.6 0 0 0-1.234 1.235c-.192.385-.361 1.001-.361 1.322 0 .616.198 1.332.492 1.78a2.5 2.5 0 0 0 .869.785c.298.152.253.408-.121.689-.313.235-.656.372-1.23.488q-1.344.273-1.676.944c-.082.165-.082.245.002.3.06.04.2.045 2.023.055 1.076.007 1.988.01 2.027.004.246-.028.323-.106.41-.412.125-.437.343-.906.567-1.225a9 9 0 0 1 .596-.66c.809-.827 1.252-1.437 1.427-1.959.105-.318.077-.426-.129-.476-.169-.04-.312-.144-.47-.34-.168-.208-.308-.283-.528-.283q-.251 0-.252.132c0 .033.07.18.157.329.086.148.156.295.156.326 0 .142-.313.306-.547.287-.158-.013-.236-.069-.322-.229a.68.68 0 0 1-.08-.517c.068-.235.242-.375.588-.471.376-.104.722-.09 1.189.045a2.6 2.6 0 0 0 .852.129 2.3 2.3 0 0 0 .88-.14c.822-.294 1.486-1.056 1.77-2.034.303-1.045.088-2.417-.54-3.443-.122-.2-.286-.416-.314-.416-.01 0-.02.121-.02.27a3.72 3.72 0 0 1-1.671 3.136c-.302.202-.474.286-1.342.666-1.467.64-2.219 1.025-2.459 1.258a1.14 1.14 0 0 0-.312.467c-.127.37-.056.916.172 1.302a2 2 0 0 0 .55.551c.394.232 1.082.188 1.71-.111.164-.08.22-.09.245-.047.05.08-.378.333-.748.441-.378.111-.83.106-1.154-.015a2.06 2.06 0 0 1-.79-.608c-.265-.35-.357-.638-.34-1.068.01-.233.021-.304.08-.444.2-.494.724-1.028 1.283-1.31.086-.042.4-.185.697-.313 1.545-.67 1.95-.861 2.3-1.095.455-.302.863-.756 1.034-1.149.139-.317.18-.732.107-1.084-.09-.438-.237-.672-.73-1.16-.397-.392-.45-.474-.543-.838-.045-.177-.063-.334-.08-.685-.028-.573-.09-.823-.25-1.012a.55.55 0 0 0-.358-.176zm6.67.918a10.7 10.7 0 0 0-3.834.717c-.512.199-.525.256-.031.133 2.162-.54 4.285-.448 6.105.265a8.6 8.6 0 0 1 1.858 1.043c.67.506 1.094.953 2.402 2.518a25 25 0 0 0 .672.78 1 1 0 0 0 .51.27c.376.057.617-.13.617-.476-.001-.308-.2-.723-.7-1.451-1.403-2.05-3.66-3.385-6.294-3.72a11 11 0 0 0-1.305-.079zm1.32 5.524a6.3 6.3 0 0 0-1.724.197 11 11 0 0 0-.684.215c-.755.26-1.222.377-1.65.408-.277.02-.3.027-.3.094 0 .08.069.13.269.193.457.145 1.223.178 1.95.086.857-.11 1.486-.04 1.99.22.328.17.516.41.671.854.062.177.073.253.082.52.01.26.002.346-.041.527-.101.428-.445 1.007-.723 1.217-.854.642-2.076.487-2.453-.309-.07-.15-.078-.182-.078-.39.001-.264.041-.367.2-.508.135-.124.297-.17.552-.16.248.01.424.081.682.279.179.137.25.155.271.066.022-.086-.05-.337-.16-.562-.292-.595-.918-.825-1.72-.629a2.05 2.05 0 0 0-1.202.896c-.434.72-.24 1.726.432 2.237.638.487.87.768.873 1.058.002.187-.047.227-.453.362-.6.199-1.093.43-1.303.615-.258.226-.293.44-.08.48a105 105 0 0 0 2.07.014c1.512.002 2.024-.003 2.073-.025.095-.042.123-.125.18-.502.11-.767.281-1.292.528-1.623.142-.19.297-.248.32-.117a2.6 2.6 0 0 0 .23.722c.065.132.12.258.12.277 0 .083-.064.124-.248.159a1.1 1.1 0 0 0-.492.199c-.19.14-.307.398-.203.45.049.023 2.409.04 2.594.019.157-.02.242-.086.262-.21q.03-.186-.317-.613c-.146-.182-.18-.24-.18-.306 0-.133.073-.108.293.097a4.3 4.3 0 0 0 1.42.84c.76.254 1.522.257 2.461.01 1.177-.311 2.042-1.01 2.4-1.941.267-.69.257-1.794-.02-2.487-.343-.855-1.12-1.402-2.122-1.494-.715-.066-1.376.188-1.775.68a2.4 2.4 0 0 0-.368.732 1.45 1.45 0 0 0 .022.76c.125.358.41.693.719.836a1.67 1.67 0 0 0 .986.129c.259-.04.408-.13.438-.266.026-.12-.016-.138-.276-.138-.526-.001-.855-.178-1.03-.55-.056-.121-.064-.163-.062-.4.001-.214.011-.288.055-.398a.88.88 0 0 1 .537-.516c.17-.056.703-.036.942.035.546.163.895.519 1.039 1.059.062.236.054.838-.014 1.088-.186.683-.554 1.133-1.162 1.422a2.2 2.2 0 0 1-1.002.234 3 3 0 0 1-.445-.027q-1.037-.217-1.65-1.156c-.184-.278-.339-.62-.507-1.118-.545-1.61-1.217-2.8-1.912-3.388-.239-.202-.55-.358-.81-.403a4 4 0 0 0-.494-.05zm-7.904 5.09c-.193-.002-.348.029-.443.093-.151.103-.177.163-.176.42.001.263.032.35.207.608.11.162.211.385.211.466a.2.2 0 0 1-.031.094c-.031.043-.076.049-.463.06-.474.016-.52.028-.652.178-.15.17-.16.376-.022.436.064.029.318.031 1.518.027 1.432-.006 1.44-.004 1.539-.056.214-.115.194-.268-.076-.563-.2-.217-.276-.39-.235-.535.04-.132.092-.141.639-.113.893.048 1.649-.04 1.914-.22.105-.07.177-.173.158-.22-.012-.033-.087-.039-.596-.039-.98 0-1.638-.106-2.308-.37-.43-.172-.861-.263-1.184-.267zm-2.697 3.652c-.218-.001-.24.002-.397.082a.54.54 0 0 0-.242.199c-.109.161-.136.277-.12.531.02.361.163.693.538 1.256 1.357 2.03 3.215 3.474 5.4 4.192a10.4 10.4 0 0 0 2.395.478 19 19 0 0 0 .676.012c1.69.012 3.276-.363 4.87-1.149 1.073-.53 1.83-1.061 2.673-1.882.49-.478.885-.942 1.008-1.184.058-.112.066-.25.02-.29-.056-.045-.16.035-.456.345-.862.906-2.05 1.73-3.27 2.27-2.368 1.046-4.75 1.128-7.07.245-.712-.27-1.698-.799-2.117-1.133a9 9 0 0 1-.974-.974c-.29-.348-.617-.788-1.047-1.416-.21-.303-.45-.642-.535-.752-.454-.583-.849-.826-1.352-.83zm8.012.164v1.369h.13v-.51c0-.22.132-.35.34-.35.184 0 .291.104.291.31v.55h.131v-.562c0-.278-.162-.417-.398-.417-.164 0-.291.066-.363.178v-.568zm5.093 0v1.369h.131v-1.37zm.563 0a.094.094 0 0 0-.096.092.095.095 0 0 0 .096.093.093.093 0 1 0 0-.185zm-9.928.078-.59 1.289h.143l.154-.344h.72l.153.346h.145l-.59-1.291zm7.149 0v1.291h.136v-.34l.264-.267.527.607h.162l-.597-.707.558-.584h-.156l-.758.78v-.78zm-7.082.14.31.696h-.62zm1.343.172a.42.42 0 0 0-.373.202v-.194h-.127v1.328h.131v-.54a.42.42 0 0 0 .37.193c.276 0 .484-.2.484-.494a.47.47 0 0 0-.485-.495zm1.086 0a.62.62 0 0 0-.394.131l.058.1a.5.5 0 0 1 .323-.115c.18 0 .273.089.273.256v.058h-.307c-.278 0-.375.126-.375.276 0 .167.137.283.356.283.16 0 .275-.061.334-.16v.148h.125v-.6c0-.25-.143-.377-.393-.377zm1.155 0a.48.48 0 0 0-.5.495c0 .289.21.494.5.494a.43.43 0 0 0 .379-.194l-.098-.064a.33.33 0 0 1-.281.14c-.212 0-.368-.148-.368-.376 0-.227.156-.38.368-.38a.33.33 0 0 1 .28.143l.098-.064c-.076-.127-.214-.194-.378-.194zm2.25 0c-.274 0-.475.207-.475.495 0 .287.207.494.51.494a.48.48 0 0 0 .375-.16l-.074-.084a.38.38 0 0 1-.297.127c-.212 0-.368-.135-.383-.338h.812l.002-.04c0-.291-.198-.494-.47-.494zm4.953 0c-.17 0-.3.069-.37.188v-.18h-.124v.971h.128v-.51c0-.22.131-.35.34-.35.184 0 .291.105.291.31v.548h.131v-.56c0-.278-.16-.417-.396-.417zm-2.668.008.433.969-.043.094c-.055.122-.115.162-.2.162a.24.24 0 0 1-.179-.074l-.058.097a.33.33 0 0 0 .234.088c.138 0 .243-.06.323-.25l.486-1.086h-.13l-.364.825-.366-.825zm1.676 0v.969h.13v-.969zm-3.961.106c.19 0 .327.132.343.322h-.687a.337.337 0 0 1 .344-.322zm-4.5.002h.002c.204 0 .36.152.36.377 0 .227-.156.379-.36.379-.207 0-.364-.152-.364-.38 0-.223.156-.375.362-.376zm1.052.414h.303v.156h.002a.31.31 0 0 1-.309.2c-.154 0-.246-.071-.246-.184 0-.1.06-.172.25-.172z"/></svg>