<svg xmlns="http://www.w3.org/2000/svg" viewBox="0 0 24 24"><path d="M11.88.03 1.269 5.91a.28.28 0 0 0-.125.213v11.836c.014.056.017.124.07.16.018.079 10.618 5.8 10.67 5.852a.25.25 0 0 0 .234 0c.003-.002 10.614-5.796 10.615-5.8a.29.29 0 0 0 .125-.212V6.121a.28.28 0 0 0-.12-.21c0-.002-10.617-5.88-10.618-5.882a.25.25 0 0 0-.238 0zm.12.495 10.11 5.598-3.577 2.004-6.412-3.688a.24.24 0 0 0-.242 0L5.467 8.127 1.89 6.123zm0 4.41 6.035 3.471L12 11.8 5.965 8.406zM1.633 6.542l3.592 2.01v6.9l-3.592 2.082zm20.734 0v10.992l-3.592-2.082v-6.9zM5.715 8.826l6.04 3.399v6.545l-6.04-3.323zm12.57 0v6.621l-6.04 3.323v-6.545zM5.473 15.873l6.283 3.455v4.014l-9.87-5.39zm13.054 0 3.586 2.078-9.869 5.39v-4.013z"/></svg>