<svg xmlns="http://www.w3.org/2000/svg" viewBox="0 0 24 24"><path d="M8.684 0a3.08 3.08 0 0 0-2.207.934l-.002.002a3.2 3.2 0 0 0-.916 2.242 3.2 3.2 0 0 0 .916 2.244v.004h.002a3.14 3.14 0 0 0 1.558.863V7.98A3.95 3.95 0 0 0 5.86 9.125h-.005a4.1 4.1 0 0 0-1.174 2.871 4.1 4.1 0 0 0 1.174 2.875l.005.006a3.93 3.93 0 0 0 2.176 1.137v1.699a3.1 3.1 0 0 0-1.558.861h-.002v.004a3.18 3.18 0 0 0-.916 2.244 3.2 3.2 0 0 0 .916 2.239v.01h.002A3.1 3.1 0 0 0 8.684 24a3.1 3.1 0 0 0 2.209-.932l.002-.007a3.2 3.2 0 0 0 .914-2.24c0-.876-.35-1.67-.914-2.243l-.002-.004a3.1 3.1 0 0 0-1.561-.861v-1.7a3.94 3.94 0 0 0 2.18-1.138l.004-.006a4 4 0 0 0 .263-.293l1.448.848a3.2 3.2 0 0 0-.047 1.805 3.16 3.16 0 0 0 1.455 1.927v.006a3.1 3.1 0 0 0 2.37.318 3.15 3.15 0 0 0 1.868-1.435l.004.004.025-.053a3.22 3.22 0 0 0 .313-2.404 3.17 3.17 0 0 0-1.408-1.906v-.002l-.047-.024a3.04 3.04 0 0 0-2.371-.318 3.1 3.1 0 0 0-1.516.943l-1.443-.846a4.16 4.16 0 0 0 0-2.878l1.443-.848a3.13 3.13 0 0 0 1.516.943 3.1 3.1 0 0 0 2.154-.2h.02l.197-.118a3.15 3.15 0 0 0 1.457-1.93 3.22 3.22 0 0 0-.315-2.406v-.004a3.13 3.13 0 0 0-1.896-1.48 3.06 3.06 0 0 0-2.346.304l-.025.018a3.15 3.15 0 0 0-1.455 1.926 3.2 3.2 0 0 0 .047 1.806l-1.448.852a4 4 0 0 0-.263-.299h-.004a3.96 3.96 0 0 0-2.18-1.145V6.29a3.14 3.14 0 0 0 1.56-.864l.003-.006a3.2 3.2 0 0 0 .914-2.242c0-.871-.35-1.67-.914-2.244h-.002V.932A3.1 3.1 0 0 0 8.683 0zm-.225 1.723a1.43 1.43 0 0 1 1.252.414h.002c.262.265.422.633.422 1.04 0 .41-.161.778-.422 1.04l-.002.008a1.44 1.44 0 0 1-1.027.425c-.403 0-.763-.161-1.02-.425l-.008-.008a1.46 1.46 0 0 1-.422-1.04 1.48 1.48 0 0 1 .422-1.04h.006a1.43 1.43 0 0 1 .797-.414zm7.736 4.39a1.4 1.4 0 0 1 .377.051 1.45 1.45 0 0 1 .87.668l.011.02a1.5 1.5 0 0 1 .143 1.119 1.47 1.47 0 0 1-.659.884l-.017.008a1.4 1.4 0 0 1-1.1.145 1.43 1.43 0 0 1-.873-.672l-.008-.01c-.2-.35-.24-.754-.144-1.119.097-.366.328-.696.674-.896a1.43 1.43 0 0 1 .726-.198zm-7.511 3.75a2.08 2.08 0 0 1 1.484.627c.379.385.611.917.611 1.508s-.232 1.124-.611 1.514a2.08 2.08 0 0 1-2.967 0 2.16 2.16 0 0 1-.611-1.514c0-.591.233-1.123.611-1.508a2.08 2.08 0 0 1 1.483-.627zm7.691 5.084a1.4 1.4 0 0 1 .525.172l.022.016a1.45 1.45 0 0 1 .674.894 1.47 1.47 0 0 1-.114 1.069l-.027.05a1.43 1.43 0 0 1-.883.684c-.364.095-.753.06-1.1-.143h-.001a1.5 1.5 0 0 1-.676-.896 1.5 1.5 0 0 1 .146-1.12 1.42 1.42 0 0 1 .881-.685 1.4 1.4 0 0 1 .553-.04zm-7.691 4.399a1.42 1.42 0 0 1 1.027.431h.002c.262.266.422.635.422 1.045 0 .405-.161.774-.422 1.035l-.002.008c-.261.262-.623.43-1.027.43a1.43 1.43 0 0 1-1.022-.43l-.006-.008a1.46 1.46 0 0 1-.422-1.035c0-.41.162-.779.422-1.045h.006a1.4 1.4 0 0 1 1.022-.431z"/></svg>