<svg xmlns="http://www.w3.org/2000/svg" viewBox="0 0 24 24"><path d="M6 4.127v.002c-2.44.043-3.75 1.262-3.75 3.748 1.464.026 2.25.758 2.25 2.25s.786 2.222 2.25 2.248v.002h10.5v-.002c1.464-.026 2.25-.756 2.25-2.248s.786-2.224 2.25-2.25c0-2.486-1.31-3.705-3.75-3.748v-.002zm-3.75 4.5C.786 8.663 0 9.638 0 11.627v3.75c0 2.984.786 4.444 2.25 4.496v.002c.976-.017 1.5-.503 1.5-1.498v-8.25c0-.995-.524-1.482-1.5-1.5zm19.5 0c-.976.017-1.5.503-1.5 1.498v8.25c0 .995.524 1.482 1.5 1.5v-.002c1.464-.052 2.25-1.514 2.25-4.498v-3.75c0-1.99-.786-2.964-2.25-2.998zM6 13.125c-.976.018-1.5.505-1.5 1.5s.524 1.482 1.5 1.5h12c.976-.018 1.5-.505 1.5-1.5s-.524-1.482-1.5-1.5zm0 3.75c-.976.018-1.5.505-1.5 1.5s.524 1.482 1.5 1.5h12c.976-.018 1.5-.505 1.5-1.5s-.524-1.482-1.5-1.5z"/></svg>