<svg xmlns="http://www.w3.org/2000/svg" viewBox="0 0 24 24"><path d="M4.236.002c-.312-.013-.665.07-.828.455-.158.374-.283 1.19-.34 2.277l1.225.59a15 15 0 0 1 .074-2.064c-.026.299-.056.96.006 2.039q.03.512.09 1.148c.002.024 0 .049.006.07a46 46 0 0 0 .308 2.413c.057.368.127.752.196 1.16l-.01.01c.014.01.015.016.014.021l.03.16q.044.244.093.494l.107.553.057.29a62 62 0 0 0 .457 2.068c.09.382.186.78.287 1.185q.145.579.308 1.193c.096.362.2.736.303 1.118.003.018.013.035.016.054a146 146 0 0 0 .34 1.186l.048.174c.078.26.159.532.243.804a4 4 0 0 1-.293-.134l-.19-.655c-.02-.077-.042-.147-.062-.224l-.002-.004-.004-.002q-.129-.451-.258-.916-.032-.13-.068-.264l-.315-1.178c-.1-.38-.193-.765-.289-1.154q-.14-.584-.277-1.172-.14-.6-.266-1.203c-.085-.396-.16-.796-.238-1.191a50 50 0 0 1-.211-1.17l-.012-.041.004-.002q-.086-.58-.174-1.15a61 61 0 0 1-.154-1.206 28 28 0 0 1-.172-2.41l-1.217-.59h-.002l-.013.23q-.018.443-.024.93a45 45 0 0 0 .006 1.159q.015.556.045 1.146.029.504.07 1.024l.002.039.006.004q.006.036.006.076c.033.368.064.737.107 1.113a35 35 0 0 0 .303 2.125l.035.195a23 23 0 0 0 .547 2.32q.106.357.211.68.096.274.194.545.233.633.511 1.233l.006.004a.3.3 0 0 0 .022.05q.336.727.754 1.395c.01.013.02.033.03.047-.454-.183-1.26-.099-1.253-.098.83.288 1.556.641 2.015 1.176-.183.2-.523.352-.953.477.594.064.924-.04 1.045-.092-.31.26-.482.732-.634 1.24.35-.57.696-.949 1.033-1.094.078.258.162.523.244.787A148 148 0 0 0 5.156 24a.56.56 0 0 0 .432-.312c.13-.282.828-1.776 1.906-3.875.413 1.302.88 2.679 1.387 4.109a.5.5 0 0 0 .076-.465 104 104 0 0 1-1.309-3.945q.232-.451.485-.932.187.061.388.154c.203.186.353.491.483.84a1.52 1.52 0 0 0-.334-1.097c1.335.258 2.547.091 3.287-.809a4 4 0 0 0 .191-.26c-.325.304-.681.405-1.312.274.996-.281 1.523-.616 2.035-1.22q.18-.215.371-.48c-.943.722-1.927.822-2.9.493l-.045-.018c.914.02 2.203-.474 3.092-1.19.41-.33.796-.728 1.17-1.208.28-.36.55-.761.82-1.217q.35-.59.7-1.293a2.8 2.8 0 0 1-.74.137l-.144.007c-.048.002-.093 0-.146.002.885-.198 1.5-.74 1.994-1.447a3.1 3.1 0 0 1-1.07.299q-.088.008-.182.006c-.013-.002-.028 0-.047-.002q.458-.116.81-.31a3 3 0 0 0 .358-.235l.131-.108q.148-.128.28-.287c.027-.034.055-.062.08-.097q.054-.075.103-.147a8 8 0 0 0 .51-.828l.047-.088.109-.226q.064-.15.092-.239a.5.5 0 0 1-.108.051c-.273.112-.727.187-1.086.201q-.006-.001-.013.004h-.067c.72-.214 1.067-.448 1.422-.816a14 14 0 0 0 1.154-1.43c.264-.37.505-.736.692-1.07a7 7 0 0 0 .299-.594c.066-.157.122-.304.172-.45-.466.01-.987.012-1.481 0 .495.01 1.015.009 1.484-.003.5-1.485.063-2.264.063-2.264s-.526-1.21-1.4-.85c-.426.176-1.172.73-2.082 1.56l.513 1.45a18 18 0 0 1 1.703-1.601c-.257.22-.807.724-1.615 1.642q-.384.437-.844.998-.027.028-.047.059a51 51 0 0 0-1.666 2.188c-.248.34-.498.703-.765 1.087h-.016q.001.029-.01.034l-.101.15c-.104.155-.214.31-.319.47l-.351.536q-.092.134-.186.275c-.184.282-.367.573-.558.873a97 97 0 0 0-1.428 2.338 97 97 0 0 0-1.342 2.344c-.012.017-.019.04-.033.057a197 197 0 0 0-.668 1.222l-.098.182c-.17.318-.345.641-.52.978l-.005.014q-.039.07-.072.14c-.117.223-.217.426-.45.872a1.4 1.4 0 0 0-.234-.184l.346-.648.142-.272.041-.076.545-1.002.131-.232v-.006l-.002-.006c.17-.31.347-.62.522-.94q.075-.128.152-.265l.684-1.197a92 92 0 0 1 2.134-3.504c.247-.386.503-.77.754-1.153q.136-.205.28-.41a73 73 0 0 1 .48-.7c.007-.013.019-.023.026-.036h.005c.26-.356.518-.714.774-1.066q.417-.559.83-1.09a31 31 0 0 1 1.777-2.075l-.515-1.447-.192.18a32 32 0 0 0-.758.728q-.441.442-.912.936a46 46 0 0 0-1.633 1.838l-.029.031.002.01q-.025.031-.055.062c-.266.323-.537.65-.8.987a39 39 0 0 0-1.446 1.949c-.043.06-.085.125-.127.185a27 27 0 0 0-1.402 2.303q-.196.37-.37.715c-.095.195-.187.396-.278.592q-.315.695-.567 1.398l.002.006a.4.4 0 0 0-.025.059c-.108.303-.202.608-.29.914q-.211.26-.484.46a4 4 0 0 0-.13-.154 5.15 5.15 0 0 0 .824-2.21 6.4 6.4 0 0 0-.016-1.489c-.046-.4-.126-.82-.238-1.273q-.145-.59-.363-1.248-.138.278-.38.545l-.085.093-.092.094c.434-.674.485-1.395.357-2.146a2.7 2.7 0 0 1-.49.85q-.05.056-.11.115l-.032.029c.143-.24.25-.468.318-.7a1 1 0 0 0 .04-.146 3 3 0 0 0 .038-.225l.018-.144a2 2 0 0 0-.002-.356q-.003-.059-.01-.113c-.01-.055-.016-.103-.027-.152a7 7 0 0 0-.194-.842c-.01-.028-.014-.056-.025-.084q-.039-.119-.073-.209a2 2 0 0 0-.09-.209.5.5 0 0 1-.035.102c-.102.24-.34.569-.556.799q-.006.003-.008.01l-.039.042c.318-.58.39-.944.385-1.396a12 12 0 0 0-.16-1.615 11 11 0 0 0-.233-1.106 6 6 0 0 0-.18-.557 6 6 0 0 0-.171-.39l.002-.004C5.576.342 4.82.123 4.82.123S4.55.015 4.238.002zm3.381 15.781.031.082v.002c-.06.033-.115.068-.177.098l-.04.017a2 2 0 0 0 .186-.199zm-.603 1.627q.197.203.353.32l.07.227a2 2 0 0 0-.246.053l-.029-.098q-.035-.126-.076-.258l-.022-.072zm.26.875a2 2 0 0 1 .27.01l.071.228a.8.8 0 0 1 .246-.003l-.326.626z"/></svg>