<svg xmlns="http://www.w3.org/2000/svg" viewBox="0 0 24 24"><path d="M15.674 0c-.795.001-1.793.095-3.166.313l-4.602.73C4.768 1.54 3.683 2.045 2.633 2.84a6.5 6.5 0 0 0-2.24 3.082c-.43 1.245-.577 2.433-.08 5.57l.73 4.602c.497 3.138 1.002 4.218 1.797 5.271a6.5 6.5 0 0 0 3.082 2.24c1.245.431 2.433.58 5.57.082l4.602-.73c3.138-.497 4.218-1.003 5.271-1.799a6.5 6.5 0 0 0 2.24-3.08c.431-1.245.578-2.433.082-5.57l-.73-4.602c-.497-3.138-1.003-4.223-1.799-5.273a6.5 6.5 0 0 0-3.08-2.24C17.378.152 16.695 0 15.674 0zm-5.319 4.566h.002a.52.52 0 0 1 .522.444l.77 4.865a.52.52 0 0 1-.436.6l-4.86.77a.52.52 0 0 1-.601-.436l-.77-4.866a.52.52 0 0 1 .436-.6l4.86-.77zM9.92 5.691l-3.822.606.611 3.83 3.812-.606zm6.504 2.91a3.274 3.274 0 0 1 .498 6.514 3.26 3.26 0 0 1-3.715-2.726 3.274 3.274 0 0 1 3.217-3.787zm-.055 1.06a2.226 2.226 0 1 0 .389 4.42 2.21 2.21 0 0 0 1.818-2.542A2.226 2.226 0 0 0 16.37 9.66zm-6.45 3h.003a.52.52 0 0 1 .422.206l3.824 4.965a.52.52 0 0 1-.332.84l-5.934.935a.52.52 0 0 1-.576-.695l2.11-5.9a.52.52 0 0 1 .484-.352zm.18 1.61-1.49 4.166 4.188-.664z"/></svg>