<svg xmlns="http://www.w3.org/2000/svg" viewBox="0 0 24 24"><path d="M11.69.91A3.35 3.35 0 0 0 12 7.596a3.35 3.35 0 0 0 3.35-3.35v-.002A3.35 3.35 0 0 0 11.69.91zm-.93 7.553a8 8 0 0 0-2.164.635l-6.987 3.17C1.03 12.538 0 13.028 0 13.8s1.011 1.242 1.61 1.535l6.986 3.17a7.8 7.8 0 0 0 3.408.728 8.2 8.2 0 0 0 3.396-.728l6.987-3.17c.598-.294 1.61-.754 1.61-1.531s-1.031-1.264-1.61-1.537L15.4 9.098a9 9 0 0 0-2.263-.62v5.692c0 .384-.476.697-1.14.697-.666 0-1.237-.301-1.237-.697zM4.643 12.8a2.7 2.7 0 0 1 1.226.295c.686.393.682 1.022 0 1.418a2.68 2.68 0 0 1-2.453 0c-.666-.4-.68-1.026 0-1.418a2.7 2.7 0 0 1 1.227-.295zM.38 16.34c-.377-.064-.377.375-.377.375v.955a.97.97 0 0 0 .193.57c.258.31.512.535 1.412.963.718.341 5.132 2.323 6.567 2.973a8.34 8.34 0 0 0 3.82.926 8 8 0 0 0 3.4-.729c.765-.352 6.282-2.833 6.995-3.17.896-.42 1.222-.7 1.412-.959A1.04 1.04 0 0 0 24 17.67v-.955s0-.573-.559-.315l-8.037 3.627a8.2 8.2 0 0 1-3.396.729 7.8 7.8 0 0 1-3.408-.729C7.486 19.537.566 16.4.566 16.4a.8.8 0 0 0-.185-.06z"/></svg>