<svg xmlns="http://www.w3.org/2000/svg" viewBox="0 0 24 24"><path d="m5.986.002-.455.025c-.747.043-1.49.124-2.193.4-1.336.53-2.3 1.452-2.865 2.78-.192.448-.293.925-.364 1.408q-.082.589-.1 1.182c0 .032-.006.06-.009.092V18.11l.027.424c.05.815.153 1.624.496 2.373.65 1.42 1.739 2.355 3.235 2.803.42.127.856.186 1.293.227.555.053 1.11.06 1.668.06h11.029a13 13 0 0 0 1.57-.1c.822-.106 1.596-.35 2.295-.81a5.05 5.05 0 0 0 1.88-2.207c.185-.42.293-.87.37-1.324.113-.675.138-1.357.137-2.04-.002-3.8 0-7.596-.004-11.394h-.002a9.2 9.2 0 0 0-.24-2.19c-.317-1.31-1.062-2.31-2.18-3.042a5 5 0 0 0-1.877-.727 10.5 10.5 0 0 0-1.564-.148c-.04-.003-.082-.011-.123-.014zm11.018 3.672c.31-.025.524.17.555.482q.012.11.011.223.003 2.866 0 5.732v5.715c0 .417-.058.826-.244 1.205-.29.59-.759.963-1.387 1.14q-.524.15-1.07.175a1.87 1.87 0 0 1-1.943-1.537 1.88 1.88 0 0 1 1.039-2.022c.323-.16.67-.25 1.017-.324.378-.082.757-.153 1.133-.24.274-.063.459-.23.512-.516a1 1 0 0 0 .02-.193q0-2.723-.002-5.444a.7.7 0 0 0-.028-.183c-.04-.15-.149-.244-.303-.235-.16.01-.317.036-.474.067q-1.14.225-2.281.455l-2.325.47-1.375.278-.046.014c-.277.077-.378.203-.391.49q-.002.063 0 .129c-.002 2.602 0 5.203-.002 7.804 0 .42-.049.838-.217 1.229-.278.64-.77 1.04-1.433 1.232q-.526.152-1.075.172c-.96.036-1.755-.6-1.92-1.545-.14-.812.23-1.684 1.155-2.074.357-.15.73-.233 1.107-.31.287-.06.574-.115.86-.176q.573-.127.6-.715v-.15q-.001-4.44.001-8.881a1.6 1.6 0 0 1 .043-.371c.07-.285.274-.448.547-.518.255-.066.514-.111.773-.164q1.1-.224 2.2-.445l2.27-.46 2.01-.404c.22-.043.442-.087.663-.105z"/></svg>