<svg xmlns="http://www.w3.org/2000/svg" viewBox="0 0 24 24"><path d="M12.033 3.223c-2.88 0-3.787 3.708-4.615 7.425-1.31-1.752-2.584-3.32-4.365-3.32-1.134 0-3.053.77-3.053 3.658v5.24c0 2.833 1.512 3.527 2.42 3.766 1.565.406 5.334.785 9.578.785s8.012-.379 9.578-.785c.907-.24 2.424-.933 2.424-3.765v-5.24c0-2.863-1.886-3.643-3.021-3.657-1.768.015-3.038 1.577-4.344 3.316-.815-3.714-1.72-7.423-4.602-7.423zM20.98 7.33l.025-.002h-.057zm-8.946-2.47c1.726 0 2.385 3.405 3.301 7.492-1.004 1.238-2.073 2.236-3.3 2.236-1.229 0-2.292-.998-3.3-2.236.857-3.822 1.518-7.493 3.3-7.493zM3.078 8.981c1.257 0 2.62 2.096 3.893 3.78-.91 3.818-1.873 6.143-4.145 5.664-.593-.16-1.15-.536-1.15-2.166l-.012-.018v-5.24c0-1.823.981-2.02 1.414-2.02zm17.951 0c.425 0 1.414.197 1.414 2.02l-.011 5.258c0 1.637-.557 2.006-1.15 2.166-2.276.482-3.235-1.845-4.145-5.664 1.287-1.683 2.618-3.78 3.892-3.78zM8.275 14.307c1.05 1.103 2.266 1.935 3.772 1.935s2.718-.832 3.773-1.935c.488 1.807 1.13 3.514 2.135 4.607a67.5 67.5 0 0 1-11.807 0h-.011c1.006-1.093 1.637-2.8 2.138-4.607z"/></svg>