<svg xmlns="http://www.w3.org/2000/svg" viewBox="0 0 24 24"><path d="M12 0C5.4 0 0 5.4 0 12s5.4 12 12 12 12-5.4 12-12S18.6 0 12 0zm.15 6.143a5.64 5.64 0 0 1 3.57 1.238c2.34 1.86 2.76 5.279 1.08 7.799l-5.22 7.56c-.78 0-2.34-.3-3.06-.6l4.62-4.38c-1.68.36-3.42.06-4.86-1.08-1.68-1.26-2.4-3.3-2.1-5.28l-4.14 4.5c0-.06-.54-1.02-.72-2.94l7.26-5.58a5.9 5.9 0 0 1 3.57-1.237zm-.173 2.084A4.05 4.05 0 0 0 9 9.721c-1.32 1.68-1.14 4.08.54 5.34s4.08.959 5.4-.721 1.14-4.08-.54-5.34a3.7 3.7 0 0 0-2.423-.773z"/></svg>