<svg xmlns="http://www.w3.org/2000/svg" viewBox="0 0 24 24"><path d="M12 0a.85.85 0 0 0-.338.07L3.145 3.766A2.73 2.73 0 0 0 1.5 6.27v13.25l10.162 4.409a.85.85 0 0 0 .676 0l8.517-3.696A2.73 2.73 0 0 0 22.5 17.73V4.48L12.338.07A.85.85 0 0 0 12 0zm0 4.838a7.537 7.537 0 0 1 7.537 7.537A7.537 7.537 0 0 1 12 19.912a7.537 7.537 0 0 1-7.537-7.537A7.537 7.537 0 0 1 12 4.838zm-.35 1.389c-.896-.023-2.327.24-3.746 1.613.35.554.644.978.489 1.418-.232.655-.514.513-1.07.994-.396.342.206 1.014-.313 1.307-.52.293-1.213.663-.95 1.175s1.47.83 1.96 1.075.928.707.607 1.238c-.314.52-.537 1.13-.602 1.61A5.94 5.94 0 0 0 12 18.175c3.293 0 5.819-2.712 5.963-6.002.04-.925-.94-.94-1.535-.94 0 0 .34.925.017 1.438-.322.513-.848.761-.834 1.377.015.615-.937 1.595-1.26 1.947s-.923.747-1.128-.059c-.205-.805-.125-1.477.109-2.048.234-.572-.219-.747-.922-.762s-1.079-.108-1.185-1.193c-.088-.894 1.243-1.844 1.814-1.844.334 0 1.455.22 1.508-.34.08-.86-.822-1.041-1.041-1.602-.22-.56 1.48-1.54-1.506-1.898a4 4 0 0 0-.35-.023z"/></svg>