<svg xmlns="http://www.w3.org/2000/svg" viewBox="0 0 24 24"><path d="M11.998 0c-.604 0-1.208.16-1.748.479l-7.42 4.24c-1.123.64-1.76 1.758-1.76 3.011v8.57a3.4 3.4 0 0 0 1.64 2.907l7.51 4.293A3.43 3.43 0 0 0 12 24c.583 0 1.218-.156 1.781-.5l7.51-4.291a3.4 3.4 0 0 0 1.637-2.898V7.729a3.4 3.4 0 0 0-1.762-3.012L13.746.48A3.44 3.44 0 0 0 11.998 0zm-.055 2.504a.94.94 0 0 1 .557.148l7.545 4.313a.93.93 0 0 1 .379.765v8.67a.93.93 0 0 1-.41.655l-7.52 4.297a.92.92 0 0 1-.984 0l-7.56-4.317a.96.96 0 0 1-.374-.635V7.73c0-.398.178-.61.38-.767L11.5 2.654a.9.9 0 0 1 .443-.15z"/></svg>