<svg xmlns="http://www.w3.org/2000/svg" viewBox="0 0 24 24"><path d="M5.932 0A5.934 5.934 0 0 0 0 5.932v12.136A5.934 5.934 0 0 0 5.932 24h12.136A5.934 5.934 0 0 0 24 18.068V5.932A5.934 5.934 0 0 0 18.068 0zm6.683 4.4a.51.51 0 0 1 .477.313l5.816 14.183a.506.506 0 0 1-.281.672.506.506 0 0 1-.654-.289L12.62 6.23l-2.394 5.762h1.55a.506.506 0 1 1 0 1.01h-5.84a.506.506 0 1 1 0-1.01H9.13l.004-.012 3.023-7.27a.51.51 0 0 1 .457-.31zm-7.748 9.993h5.84a.506.506 0 1 1 0 1.011H8.811l-.006.014-1.606 3.863a.506.506 0 1 1-.935-.386l1.45-3.49H4.868a.506.506 0 1 1 0-1.012z"/></svg>