<svg xmlns="http://www.w3.org/2000/svg" viewBox="0 0 24 24"><path d="M8.697 0c-.36 0-.616.285-.785.727l-5.516 14.99s3.24-1.574 6.49-1.574l2.452-7.567c.092-.366.36-.613.662-.613s.57.247.662.613l2.45 7.567c3.85 0 6.492 1.574 6.492 1.574L16.088.727C15.93.285 15.663 0 15.303 0zM7.32 15.219c-.493 1.627-.149 3.87 1.035 4.941.017-.06.033-.11.045-.164.148-.679.71-1.11 1.416-1.09.69.02 1.055.364 1.16 1.133.045.316.045.637.05.957a3.3 3.3 0 0 0 .542 1.817A3.16 3.16 0 0 0 12.977 24l-.045-.148c-.453-1.372-.127-2.316 1.078-3.12.393-.262.796-.51 1.176-.787.95-.694 1.547-1.608 1.687-2.793a3.15 3.15 0 0 0-.15-1.437c-.22.13-.408.261-.61.36-1.762.854-3.624.962-5.521.679-1.23-.183-2.416-.51-3.272-1.535z"/></svg>