<svg xmlns="http://www.w3.org/2000/svg" viewBox="0 0 24 24"><path d="M3.617 9.521c-.33 0-.484.103-.64.33l-.649.936h9.385V9.521h-4.23c-.985 0-1.416.614-1.518 1.202V9.52zm8.348 0v1.266h1.385V9.521zm4.433 0v1.266h7.506V9.521h-4.656c-.972 0-1.41.6-1.482 1.182V9.521zM2.293 10.92 0 14.479h1.686l2.113-3.409zm9.672.006v1.812h-.031c-.078-.528-.276-1.14-1.596-1.23L6 11.22c0 .666.475 1.06 1.219 1.138l3.023.307c.24.018.414.09.414.287 0 .216-.18.24-.457.24H5.945V11.22l-1.384-.09v3.348h5.644c1.26 0 1.663-.656 1.723-1.202h.029c.156.864.913 1.202 2.191 1.202h1.41c1.495 0 2.202-.458 2.202-1.526v-1.709l-1.367-.078v1.457c0 .456-.23.596-1.022.596H14.28c-.654 0-.93-.188-.93-.596v-1.596zm5.855.318c0 .666.438 1.11 1.182 1.17l3.09.24c.24.018.385.078.385.276 0 .186-.168.258-.516.258h-4.213v1.29h4.303c1.356 0 1.949-.474 1.949-1.554 0-.972-.534-1.338-1.842-1.422z"/></svg>