<svg xmlns="http://www.w3.org/2000/svg" viewBox="0 0 24 24"><path d="M8.965.611c-.515.99-2.434 4.952-4.678 10.399h2.27a.98.98 0 0 0 .697-.256l3.18-2.654c.52-1.409 1.063-2.82 1.629-4.022.282.64.55 1.283.83 1.965 1.226-1.008 2.033-1.556 2.074-1.582l.015-.012a5.7 5.7 0 0 1 1.633-.707 113 113 0 0 0-1.482-3.13zm9.238 4.063a4.6 4.6 0 0 0-2.56.763s-1.102.75-2.704 2.127l-4.904 4.08c-.377.316-.84.522-1.478.522H.387c-.175 0-.118.146-.09.23.435 1.326 1.598 2.508 3.625 2.508l-1.45 1.492c-.057.057-.055.227.089.227h5.503c3.979 0 6.426-1.743 8.034-4.156.137-.207.266-.426.388-.639.06.028.068.086.04.143-.407.98-1.42 2.966-3.274 4.146-.64.374-.842.488-1.74.832-.062.027-.087.126-.059.211l2.229 6.229h1.216l-2.043-5.778h.057l-.002.002c1.33 0 4.503-.34 6.22-3.097 1.72-2.76 2.32-7.139 2.32-7.139l1.882-.89c.118-.06.087-.264-.057-.264h-2.029c-.318-.496-1.42-1.55-3.043-1.55zm.346 1.62c.157 0 .303.037.435.1l-.08-.007a.584.584 0 0 0-.586.58.58.58 0 0 0 .586.58.58.58 0 0 0 .582-.578q0-.03-.004-.057a1 1 0 0 1 .077.385c0 .553-.452 1.004-1.01 1.004a1.01 1.01 0 0 1-1.01-1.004c0-.556.453-1.002 1.01-1.002zm2.103 8.026c-.152.303-.316.562-.49.842a7.45 7.45 0 0 1-3.473 2.965l1.87 5.262H24c-1.087-3.302-2.253-6.279-3.348-9.069zM1.916 17.777A107 107 0 0 0 0 23.39h5.506l1.781-5.612zm13.676.754a8 8 0 0 1-1.125.221l1.652 4.637h1.219z"/></svg>