<svg xmlns="http://www.w3.org/2000/svg" viewBox="0 0 24 24"><path d="M12 0C5.373 0 0 5.373 0 12s5.373 12 12 12 12-5.373 12-12S18.627 0 12 0zM7.426 3.215c.62 0 1.125.503 1.125 1.123v6a1.125 1.125 0 0 1-2.25 0v-6c0-.621.504-1.123 1.125-1.123zm4.15 2.457c.621 0 1.125.504 1.125 1.125v10.389a1.125 1.125 0 0 1-2.25 0V6.796c0-.62.504-1.124 1.125-1.124zm4.153 2.486c.62 0 1.125.503 1.125 1.123v1.057a1.125 1.125 0 0 1-2.25 0V9.28c0-.62.505-1.123 1.125-1.123zm4.152 2.422c.62 0 1.125.503 1.125 1.123v.574a1.125 1.125 0 0 1-2.25 0v-.574c0-.62.505-1.123 1.125-1.123zM7.426 12.527c.62 0 1.125.503 1.125 1.125v6a1.125 1.125 0 0 1-2.25 0v-6c0-.622.504-1.125 1.125-1.125zm8.303 0c.62 0 1.125.503 1.125 1.125v1.057a1.125 1.125 0 0 1-2.25 0v-1.057c0-.622.505-1.125 1.125-1.125z"/></svg>