<svg xmlns="http://www.w3.org/2000/svg" viewBox="0 0 24 24"><path d="M20.135 3.736a2 2 0 0 0-.24.008c-.117.003-.22.008-.317.068-.096.038-.165.089-.19.157-.009.026-.04.128-.085.281a4 4 0 0 0-.098.33v.002c-.084.285-.191.655-.316 1.088a987 987 0 0 1-2.278 7.37c-.133.356-.24.662-.34 1.001-.239.818-.091-.713-.091-.713s.126-5.432.185-6.307c.06-.874-1.192-.919-1.564-.578s-2.972 5.623-3.196 5.666c-.223.044-1.065-1.476-1.263-2.845s-1.488-.067-1.488-.067-1.67 2.076-2.083 2.41-.228-.861-.505-1.091-.74-.537-1.578.521c-.758.957-1.622.424-2.125.23-.83-.319-.835.662-.866 1.083.334.25.9.61 1.457.662 1.332.122 2.003-1.017 2.188-.903.178.11.318 1.961.707 2.502.056.041.112.069.164.059v.014c1.036-.11 2.183-2.132 2.723-2.59.12-.116.253-.2.345 0 .048.102.335 1.031.614 1.94.181.532.354 1.054.462 1.42.03.097.044.216.077.325l.013.041.012.028c.073.164.339.219.51.238.035 0 .067 0 .107-.01 0 0 2.42-3.986 2.73-4.56.304-.56.227 6.161.243 7.412.007.221.826 1.115 1.472 1.31.26.079.445-.038.583-.224.09-.169.22-.496.376-.922.131-.368 1.127-3.379 1.182-3.522.527-1.635 1-3.136 1.11-3.37.126-.274.144-.155.123.118l-.002.014-.004.068c-.03.347-.147 1.691-.147 1.801 0 .127 1.467 1.047 2.125 1.254s1.132-1.817 1.444-1.863c.311-.046 1.19-.293 1.652-.336 0 0 .129-1.23-.09-1.563-.117-.074-.313-.132-.547-.16-.554-.004-1.353.204-1.65.559a.4.4 0 0 1-.092.084q-.032.046-.059.097c-.481 1.012-.435.784-.435.784s.233-4.806.533-7.141c.12-.936 0-1.464-.195-1.75l-.053-.072c-.002-.01-.003-.01-.004-.01a.5.5 0 0 0-.098-.096c-.002-.01-.005-.01-.007-.01-.01-.01-.014-.01-.014-.01a.56.56 0 0 0-.318-.11 3.2 3.2 0 0 0-.8-.122zM.629 11.363c-.163-.007-.299.016-.299.016a.442.442 0 0 0-.219.723c.195.206.47.154.766.144.296-.008.442-.491.219-.725-.112-.116-.304-.15-.467-.158z"/></svg>