<svg xmlns="http://www.w3.org/2000/svg" viewBox="0 0 24 24"><path d="M11.572 0v1.045a10.9 10.9 0 0 0-6.006 2.06l.502.696a10.04 10.04 0 0 1 5.504-1.9V3h.858V1.9a10.03 10.03 0 0 1 5.502 1.9l.502-.695a10.9 10.9 0 0 0-6.004-2.06V0zM.783.178.176.783l6.36 6.36.609-.606zm20.994 1.457-3.359 3.36.605.605 3.362-3.36zM12 5.143a3.7 3.7 0 0 0-2.373.882c-.67.575-1.055 1.348-1.055 2.118v2.142h-.857a.43.43 0 0 0-.43.43v6.428a.43.43 0 0 0 .43.427h8.57a.43.43 0 0 0 .43-.427v-6.428a.43.43 0 0 0-.43-.43h-.855V8.143h-.002c0-1.597-1.6-3-3.426-3zm-8.91.439a10.9 10.9 0 0 0-2.06 5.99H0v.858h1.027c.08 2.18.785 4.252 2.063 6.02l.693-.503a10.04 10.04 0 0 1-1.898-5.517H3v-.858H1.887a10.04 10.04 0 0 1 1.896-5.486zm17.82 0-.693.504a10.04 10.04 0 0 1 1.898 5.484H21v.86h1.115a10.04 10.04 0 0 1-1.9 5.517l.695.502a10.9 10.9 0 0 0 2.063-6.02H24v-.859h-1.027a10.9 10.9 0 0 0-2.063-5.988zM12.002 6h.002c1.345 0 2.568 1.022 2.566 2.143v2.142H9.43V8.143c0-.52.276-1.055.756-1.467.5-.43 1.16-.676 1.816-.676zm-3.86 5.143h7.715v1.287h-1.285v.857h1.285v1.285h-1.285v.858h1.285v1.285H8.143zM12 12.05a1.39 1.39 0 0 0-1.389 1.388 1.385 1.385 0 0 0 .961 1.315v1.103h.858v-1.103c.554-.182.96-.7.96-1.315 0-.766-.625-1.388-1.39-1.388zm-.164.883a.532.532 0 0 1 .697.505.532.532 0 0 1-1.064 0 .53.53 0 0 1 .367-.505zm6.248 4.543-.607.605 5.74 5.74.607-.605zm-13.105.957-3.362 3.359.608.605 3.359-3.359zm1.09 1.798-.503.694a10.9 10.9 0 0 0 6.006 2.062V24h.858v-1.012a10.9 10.9 0 0 0 6.004-2.062l-.502-.694a10.04 10.04 0 0 1-5.502 1.9V21h-.858v1.13a10.04 10.04 0 0 1-5.504-1.898z"/></svg>