<svg xmlns="http://www.w3.org/2000/svg" viewBox="0 0 24 24"><path d="M14.066 0a2 2 0 0 0-1.662.889l-8.2 12.283a1 1 0 0 0 .124 1.264l1.526 1.525 6.769-6.772 2.186 2.186-6.77 6.771 1.525 1.524a1 1 0 0 0 1.262.125l12.283-8.201A2 2 0 0 0 24 9.93V1a1 1 0 0 0-1-1zM18 3a3 3 0 1 1 0 6 3 3 0 0 1 0-6zM.998 6A1 1 0 0 0 0 7v5.5l3.502 3.604.863-.924-.39-.39a1.505 1.505 0 0 1-.188-1.895L8.391 6zm11.625 3.898-7.635 7.635 1.479 1.479 7.635-7.637zM18 15.608l-6.895 4.603a1.5 1.5 0 0 1-.834.252c-.4 0-.777-.156-1.06-.44l-.367-.367-.844.842 3.5 3.498H17a1 1 0 0 0 1-1zM0 18v6h6v-1.8H1.799V18z"/></svg>