<svg xmlns="http://www.w3.org/2000/svg" viewBox="0 0 24 24"><path d="m14.023.902-3.486.002L6.602 12.04l4.798.037-3.748 11.02L17.996 8.39h-5.021L17.848.902zm-7.12 4.006v.002a.6.6 0 0 0-.413.17L.154 11.285a.68.68 0 0 0 0 .865l6.45 6.397a.625.625 0 0 0 .824 0 .64.64 0 0 0 0-.865L1.99 12.15a.64.64 0 0 1 0-.865l5.324-5.344a.574.574 0 0 0 0-.865.6.6 0 0 0-.412-.168zm10.193.002a.6.6 0 0 0-.412.17.572.572 0 0 0 0 .863l5.435 5.344a.64.64 0 0 1 0 .865l-5.549 5.532a.64.64 0 0 0 0 .865.625.625 0 0 0 .825 0l6.45-6.397a.68.68 0 0 0 0-.865l-6.337-6.209a.6.6 0 0 0-.412-.168z"/></svg>