<svg xmlns="http://www.w3.org/2000/svg" viewBox="0 0 24 24"><path d="M0 5.469v9.388h4.549c2.11 0 3.123-1.215 3.123-2.628a2.26 2.26 0 0 0-1.488-2.24H6.18a2.11 2.11 0 0 0 1.203-1.983c0-1.541-1.115-2.537-2.99-2.537zm15.648 0v9.388h2.092v-3.466h1.004l2.78 3.466h2.472l-2.785-3.466h.004s2.13-.443 2.13-2.932c0-1.75-1.075-2.99-3.251-2.99zM2.088 7.062h2.008c.763 0 1.215.4 1.215 1.116 0 .715-.454 1.168-1.32 1.168H2.087zm15.656.198h2.213c.92 0 1.494.385 1.494 1.26 0 .799-.538 1.26-1.494 1.26h-2.213zM9.391 8.592v1.404l.666.836c-.072.036-.539.246-.692.35a2.2 2.2 0 0 0-.937 1.18 2.05 2.05 0 0 0 1.039 2.349c.823.417 1.93.332 2.758-.041.168-.081.333-.177.482-.29l.123-.093.46.567h1.898l-1.418-1.766.623-.768-.83-1.035-.624.768-1.566-1.96 2.193.009v-1.51zm-7.303 2.092h2.256c.91 0 1.453.45 1.453 1.304 0 .803-.517 1.305-1.492 1.305H2.088zm8.805 1.197 1.072 1.351a5 5 0 0 1-.668.366 1.15 1.15 0 0 1-.975-.133 1 1 0 0 1-.177-.168l-.004.004a.71.71 0 0 1-.043-.83c.209-.261.482-.466.795-.59zM0 16.443v2.088h24v-2.088z"/></svg>