<svg xmlns="http://www.w3.org/2000/svg" viewBox="0 0 24 24"><path d="M11.965 5.494c-.253.073-1.011.27-1.535.434.54.162 2.327.577 4.763 1.642.487-.163 1.049-.307 1.536-.45-1.408-.597-3.176-1.228-4.764-1.626zm-3.069.992a43 43 0 0 0-1.642.65c.595.163 2.816.76 4.71 1.716.488-.235 1.172-.524 1.641-.723-.686-.38-3.067-1.264-4.709-1.643zM5.54 7.895c-2.113.974-4.33 2.31-5.54 3.085.433.2.866.362 1.46.65 2.672-1.804 4.765-2.906 5.595-3.267-.595-.217-1.155-.36-1.516-.468zm12.885 0c-2.562.65-6.946 2.4-12.125 6.46.577.343 1.189.812 1.785 1.21 3.952-3.069 7.85-5.433 12.127-6.768-.596-.307-1.12-.578-1.787-.902zM8.59 8.94c-1.425.704-3.285 1.77-5.631 3.448.505.27 1.046.595 1.623.92 1.805-1.335 3.628-2.598 5.65-3.627-.56-.27-1.172-.524-1.642-.74zm13.46.866c-3.77 1.246-8.173 4.007-12.107 7.129.667.505 1.37 1.028 2.02 1.57h.002c3.79-3.25 9.112-6.406 12.035-7.543a48 48 0 0 0-1.95-1.156zm-7.505 7.634a.53.53 0 0 0-.541.524.53.53 0 0 0 .54.54.543.543 0 0 0 .542-.54.527.527 0 0 0-.541-.524zm.018.108a.424.424 0 1 1 0 .847.44.44 0 0 1-.452-.431c0-.216.181-.416.451-.416zm-.217.127v.595h.072v-.269h.11l.179.27h.107l-.18-.272c.109 0 .198-.054.198-.162 0-.054-.016-.108-.07-.127-.036-.036-.092-.035-.147-.035zm.072.072h.162c.072 0 .145.018.145.09 0 .108-.11.09-.2.09h-.107z"/></svg>