<svg xmlns="http://www.w3.org/2000/svg" viewBox="0 0 24 24"><path d="M8.326 5.871a.2.2 0 0 0-.084.024l-8.08 4.734a.33.33 0 0 0 0 .568l2.965 1.737.668.39c.306.18 1.553.929 1.896 1.135a.17.17 0 0 0 .176 0l3.246-1.89a.14.14 0 0 0 .07-.128.15.15 0 0 0-.072-.125c-.412-.237-1.293-.749-1.625-.943l-.793-.463c.424-.246 1.223-.708 1.522-.883a.56.56 0 0 0 .277-.48v-3.51a.166.166 0 0 0-.166-.166zm7.348 0a.165.165 0 0 0-.166.166v3.51a.56.56 0 0 0 .277.48l1.514.885-3.164 1.858a.246.246 0 0 1-.371-.213V8.273a.19.19 0 0 0-.092-.162.19.19 0 0 0-.186-.006c-.12.063-1.095.533-1.539.747a58 58 0 0 1-1.433-.672c-.06-.03-.125-.022-.186.006-.05.022-.092.097-.092.164v4.207c0 .088.01.38-.304.562l-3.293 1.904L12 18.13l11.838-6.932a.33.33 0 0 0 0-.568l-2.815-1.65v0l-.214-.125h-.002l-5.05-2.96a.2.2 0 0 0-.083-.023z"/></svg>