<svg xmlns="http://www.w3.org/2000/svg" viewBox="0 0 24 24"><path d="M8.47.393q-.445.014-.863.171c-1.688.644-2.554 2.97-2.449 6.094-2.2.468-3.914 1.301-5.012 2.496-.056.065-.18.227-.136.305.034.058.145-.007.193-.04 1.274-.89 2.904-1.374 5.027-1.677.303 3.333 1.713 7.561 4.055 10.953-1.28.502-2.355.535-2.945-.088-.812-.856-.786-2.317-.192-4.039a27 27 0 0 1-.806-2.254c-2.46 3.934-2.986 7.61-1.143 9.11 1.402 1.14 3.847.725 6.502-.926 1.505 1.672 3.082 2.74 4.666 3.094.084.015.287.044.332-.033.034-.06-.08-.126-.13-.15-1.409-.658-2.64-1.827-3.964-3.514 2.735-1.93 5.692-5.264 7.458-8.989 1.075.86 1.64 1.774 1.398 2.596-.336 1.131-1.616 1.839-3.404 2.184a28 28 0 0 1-1.547 1.826c4.634.16 8.079-1.22 8.457-3.565.286-1.786-1.295-3.696-4.053-5.17.696-2.139.832-4.04.346-5.588-.03-.08-.106-.27-.196-.27-.068 0-.066.13-.062.186.135 1.547-.264 3.202-1.063 5.192C15.9 6.893 11.534 6 7.426 6.332c.206-1.36.715-2.308 1.549-2.508 1.148-.275 2.4.48 3.593 1.854.782.102 1.71.28 2.356.43C13.02 2.524 10.547.32 8.47.392zm-.45 7.166c3.476 0 6.982.877 10.02 2.638-1.744 3.27-4.386 6.101-7.634 7.967-1.96-3.145-3.09-6.849-3.082-10.594q.348-.01.696-.011z"/></svg>