<svg xmlns="http://www.w3.org/2000/svg" viewBox="0 0 24 24"><path d="M0 2.098v1.65h5.61v-1.65zm0 3.064v1.65h5.61v-1.65zm0 3.041v1.65h9.69c1.06 0 3.536.024 4.455 1.51v-.92c-.448-1.462-1.769-2.24-4.079-2.24zm0 3.067v1.65h9.69c2.356 0 3.842.094 4.455.424v-.73c-.471-1.156-2.451-1.344-4.055-1.344zm14.145 2.64c-.613.33-2.099.424-4.456.424H0v1.65h10.09c1.604 0 3.584-.187 4.055-1.343zm0 1.98c-.92 1.486-3.396 1.51-4.456 1.51H0v1.649h10.066v.002c2.31 0 3.63-.78 4.079-2.24zm-.024 2.876v.449c.283.708 1.486.824 2.453.824h7.403v-1.014H16.81c-1.44 0-2.336-.046-2.69-.26zm0 1.226v.567c.26.872 1.062 1.343 2.477 1.343H24V20.89h-7.19c-.636 0-2.147-.024-2.689-.897z"/></svg>