<svg xmlns="http://www.w3.org/2000/svg" viewBox="0 0 24 24"><path d="M12 1.043c-.327 0-.654.04-.969.12-.715.181-1.337.668-2.578 1.64L2.248 7.658C1.007 8.63.385 9.118.152 9.678a2 2 0 0 0-.152.758v3.128a2 2 0 0 0 .152.758c.233.56.855 1.048 2.096 2.018l6.205 4.857c1.241.972 1.863 1.458 2.578 1.64.63.16 1.308.16 1.938 0 .715-.182 1.337-.668 2.578-1.64l6.205-4.857c1.241-.971 1.863-1.458 2.096-2.018.102-.246.152-.502.152-.758v-3.128c0-.256-.05-.512-.152-.758-.233-.56-.855-1.048-2.096-2.02l-6.205-4.855c-1.241-.972-1.863-1.458-2.578-1.64a4 4 0 0 0-.969-.12zm0 1.805a2 2 0 0 1 .484.06c.36.091.67.335 1.29.82l.886.694c.62.485.931.728 1.047 1.008a.98.98 0 0 1 0 .758c-.117.28-.427.523-1.047 1.01l-.887.693c-.622.485-.93.728-1.289.82-.315.08-.653.08-.968 0-.36-.092-.67-.335-1.29-.82l-.886-.694c-.62-.486-.931-.73-1.047-1.01a.98.98 0 0 1 0-.757c.117-.28.427-.523 1.047-1.008l.887-.693c.622-.486.93-.73 1.289-.82A2 2 0 0 1 12 2.847zM6.09 7.473a2 2 0 0 1 .482.06c.36.092.671.336 1.291.82l6.797 5.32c.62.486.931.729 1.047 1.009a.97.97 0 0 1 0 .757c-.117.28-.427.522-1.047 1.008l-.887.696c-.622.486-.93.728-1.289.82-.315.08-.653.08-.968 0-.36-.092-.67-.334-1.29-.82l-6.796-5.32c-.621-.486-.931-.729-1.047-1.009a.98.98 0 0 1 0-.757c.116-.28.427-.524 1.047-1.01l.886-.693c.62-.485.931-.729 1.29-.82a2 2 0 0 1 .484-.061zm11.82 0a2 2 0 0 1 .485.06c.358.092.669.336 1.289.82l.886.694c.621.486.931.73 1.047 1.01a.98.98 0 0 1 0 .757c-.116.28-.427.523-1.047 1.008l-.886.694c-.62.486-.931.729-1.29.82-.314.08-.652.08-.966 0-.36-.091-.671-.334-1.291-.82l-.885-.694h-.002c-.62-.484-.931-.728-1.047-1.008a.98.98 0 0 1 0-.757c.116-.28.428-.524 1.049-1.01l.885-.693c.62-.485.93-.729 1.289-.82a2 2 0 0 1 .484-.061z"/></svg>