<svg xmlns="http://www.w3.org/2000/svg" viewBox="0 0 24 24"><path d="M3.326 6.3A3.327 3.327 0 0 0 0 9.63v4.744A3.325 3.325 0 0 0 3.326 17.7h17.348A3.325 3.325 0 0 0 24 14.373V9.629A3.327 3.327 0 0 0 20.674 6.3h-8.32L11.06 8.19 9.786 6.3zM4.9 8.49c.814-.008 1.572.07 2.012.242.798.302 1.254.96 1.293 1.807.03.612-.296 1.162-.79 1.58.56.331.977.829.964 1.541-.026 1.26-1.208 2.04-3.338 1.99-1.147-.027-1.704-.028-2.37-.173V8.639c1.16-.157 1.289-.14 2.23-.149zm9.524.112h1.99l1.283 3.224 1.274-3.224h2.05l.551 6.869h-1.97l-.145-3.914-1.771 3.9-1.647-3.887-.342 3.9h-2.015zm-4.473.023h2.09v6.87h-2.09zm-5.236 1.43v1.455h.808a.726.726 0 0 0 .727-.729.71.71 0 0 0-.727-.726zm.967 2.787a2 2 0 0 0-.159.002h-.808v1.197h.78c.41.023.957-.152.962-.588-.021-.43-.405-.594-.775-.611z"/></svg>