<svg xmlns="http://www.w3.org/2000/svg" viewBox="0 0 24 24"><path d="M0 .813v10.052h4.174q2.008 0 2.008-1.754v-1.96Q6.18 6.06 5.469 5.79q.712-.3.713-1.47V2.55q0-1.74-2.008-1.739zm7.564 0v10.052h2.247V.813zm5.665 0q-2.008 0-2.008 1.738v6.56q0 1.755 2.008 1.754h2.119q1.991 0 1.992-1.754v-6.56q0-1.74-1.992-1.739zm-11 1.548h1.296q.427 0 .426.395v1.88q0 .397-.426.397H2.23zm11.68.11h.759q.41 0 .41.396v5.944q0 .394-.41.394h-.76q-.426.001-.426-.394V2.867q0-.395.426-.396zM2.228 6.582h1.296q.238-.001.332.094.095.079.094.285v1.96q0 .395-.426.395H2.23zM20.11 8.025c-.753 0-1.363.61-1.363 1.364v.088a1.363 1.363 0 1 0 2.727 0v-.088c0-.753-.61-1.364-1.364-1.364zM.008 13.135v10.053h5.138v-1.659H2.254v-8.394zm5.914 0v10.053h2.244V13.135zm3.719 0v10.053h2.056v-6.022l2.198 6.022h2.023V13.135h-2.072v6.006l-2.166-6.006zm7.69 0v10.053h2.243V13.135zm4.235 0-1.945 4.963 1.945 5.09H24l-2.023-5.09L24 13.135z"/></svg>