<svg xmlns="http://www.w3.org/2000/svg" viewBox="0 0 24 24"><path d="M12 0C5.373 0 0 5.373 0 12s5.373 12 12 12 12-5.373 12-12S18.627 0 12 0zm.059 5.361h1.632v1.582s.229.003.311.012c1.001.1 2.646.874 2.646 2.53 0 1.041-.492 1.594-1.207 2.085.668.24 1.93 1.096 1.909 2.573-.017 1.842-1.762 2.962-3.66 2.912v1.588h-1.624v-1.594h-1.091v1.592h-1.66v-1.602H7.317l.32-1.588s.373.011.622 0a.41.41 0 0 0 .37-.39V9.02c.025-.315-.197-.66-.798-.676h-.57V6.94s1.757.002 2.049-.005V5.367h1.66v1.576h1.092zm-.344 3.09c-.323.002-.615.006-.74.002v2.71c.025.003 1.539 0 1.545 0 .503-.025.85-.163 1.1-.337a1.24 1.24 0 0 0 .46-.611c.134-.375.106-.81-.137-1.135-.223-.319-.636-.583-1.304-.615a18 18 0 0 0-.924-.014zm-.74 4.065v2.93l1.99-.005c.54-.026.918-.174 1.187-.363a1.34 1.34 0 0 0 .496-.654c.15-.404.118-.874-.144-1.225-.24-.347-.688-.633-1.41-.668-.554-.028-1.831-.007-2.12-.015z"/></svg>