<svg xmlns="http://www.w3.org/2000/svg" viewBox="0 0 24 24"><path d="M12 .002C5.373.001.001 5.372 0 11.998a12 12 0 0 0 1.701 6.16.13.13 0 0 0 .111.037c.03 0 .05-.068.05-.11a1 1 0 0 0-.034-.128 22 22 0 0 1-.422-2.295 9.8 9.8 0 0 1 .426-3.865c1.101-3.396 3.333-5.7 6.664-6.938a10.3 10.3 0 0 1 3.399-.595.78.78 0 0 1 .857.761c0 .45-.343.737-.85.766a13 13 0 0 0-1.607.166 8.7 8.7 0 0 0-4.865 2.64c-2.083 2.22-2.88 4.859-2.4 7.856a8.7 8.7 0 0 0 2.445 4.785 8.94 8.94 0 0 0 6.369 2.76H12a11.95 11.95 0 0 0 5.613-1.39H12.02a8.4 8.4 0 0 1-1.409-.131 7.707 7.707 0 0 1-6.24-8.823 7.72 7.72 0 0 1 7.033-6.48 7.6 7.6 0 0 1 2.16.137.75.75 0 0 1 .618.877.785.785 0 0 1-.961.601 6 6 0 0 0-.801-.115 6.3 6.3 0 0 0-2.899.504 6.2 6.2 0 0 0-3.705 6.383 6.22 6.22 0 0 0 6.163 5.52h6.99c.679 0 .84.013 1.138-.241q.573-.53 1.077-1.125h-9.33a4.35 4.35 0 0 1-2.073-.516 4.847 4.847 0 1 1 4.62-8.513.75.75 0 0 1 .316 1.043.766.766 0 0 1-1.067.271 3.333 3.333 0 0 0-4.546 1.242 3.33 3.33 0 0 0-.397 2.18 3.294 3.294 0 0 0 3.277 2.803c3.36.033 6.719 0 10.079 0a.42.42 0 0 0 .28-.145c3.36-5.713 1.45-13.065-4.263-16.424A12 12 0 0 0 12 .002z"/></svg>