<svg xmlns="http://www.w3.org/2000/svg" viewBox="0 0 24 24"><path d="M12.309.01a1.3 1.3 0 0 0-.8.16l-.698.402-8.606 4.955a1.29 1.29 0 0 0-.643 1.114v10.716c0 .46.244.885.643 1.114l9.305 5.357c.402.232.898.227 1.297-.01l9.002-5.343c.39-.231.628-.652.628-1.106V6.63c0-.453-.238-.875-.628-1.106L12.807.18l-.014-.008.078-.045h-.166A1.3 1.3 0 0 0 12.31.01zm-.147.63a.64.64 0 0 1 .317.09l9.001 5.346a.64.64 0 0 1 .207.203l-4.542 2.555-4.499-2.7a.96.96 0 0 0-.966-.015L6.83 8.848l-4.543-2.52a.64.64 0 0 1 .24-.246L11.844.719a.64.64 0 0 1 .318-.078zm-.002 6a.3.3 0 0 1 .156.046l4.34 2.605v5.086l-4.496-2.492zm-9.957.378L6.7 9.51v5.324c0 .348.19.669.492.84l4.811 2.707.156.088v4.886a.64.64 0 0 1-.328-.084l-9.305-5.357a.64.64 0 0 1-.322-.557zm9.692 5.453 4.69 2.6-4.43 2.66-4.647-2.616a.3.3 0 0 1-.115-.111z"/></svg>