<svg xmlns="http://www.w3.org/2000/svg" viewBox="0 0 24 24"><path d="M14.209.693.697 8.494l9.463 5.463 13.51-7.8-4.4-2.542-5.909 3.412a.333.333 0 0 1-.486-.207l-.28-1.133-2.124-.175a.33.33 0 0 1-.139-.616l5.578-3.22zm2.361 1.364L11.576 4.94l1.309.108a.33.33 0 0 1 .295.25l.23.937 5.2-3.002zM24 6.727l-13.676 7.896a.33.33 0 0 1-.33 0L.191 8.963c-.288.877.015 2.058.123 2.426l9.846 5.683L24 9.082zm0 3.119L10.324 17.74a.33.33 0 0 1-.33 0L.168 12.066c-.39.92.003 2.092.133 2.432l9.86 5.691L24 12.2zm0 3.115-13.676 7.896a.33.33 0 0 1-.33 0L.168 15.184c-.39.92.003 2.093.133 2.431l9.86 5.692L24 15.317z"/></svg>