<svg xmlns="http://www.w3.org/2000/svg" viewBox="0 0 24 24"><path d="M6 1.387 0 12l6 10.613h12L24 12 18 1.387zm.705 3.039h2.453q.71-.004 1.047.33c.222.223.333.576.33 1.049v3.004q-.005.387-.02.625l-.019.248h.04a3 3 0 0 1 .462-.508 3.4 3.4 0 0 1 .602-.426q.368-.211.875-.36.572-.15 1.162-.148 1.053.005 1.894.395a4.1 4.1 0 0 1 1.446 1.11q.6.72.92 1.716.316.987.32 2.197h.002q-.006 1.238-.356 2.23a5 5 0 0 1-.99 1.71 4.3 4.3 0 0 1-1.502 1.091 4.7 4.7 0 0 1-1.896.385 4.2 4.2 0 0 1-1.145-.15 3.8 3.8 0 0 1-.867-.361 4 4 0 0 1-.602-.434 3 3 0 0 1-.466-.516h-.04l.02.194q.017.249.02.498v.527H7.96V7.062q-.002-.226-.113-.337c-.077-.074-.19-.11-.33-.11h-.813zm6.344 6.025a2.6 2.6 0 0 0-.969.186 2.4 2.4 0 0 0-.83.59 2.8 2.8 0 0 0-.578 1.013q-.211.621-.217 1.479c0 .397.052.792.158 1.174.101.366.267.711.485 1.02.21.3.485.548.804.722q.482.264 1.127.27c.343.001.682-.07.996-.214a2.4 2.4 0 0 0 .825-.623q.36-.409.564-1.004.206-.597.209-1.367-.004-.988-.328-1.717-.324-.726-.902-1.125a2.35 2.35 0 0 0-1.344-.404z"/></svg>