<svg xmlns="http://www.w3.org/2000/svg" viewBox="0 0 24 24"><path d="M2.045.465v2.931l-1.613-.64a.317.317 0 0 0-.276.566l1.889 1.166v7.537c.015 3.239 2.457 5.982 4.867 7.97a29.8 29.8 0 0 0 5.508 3.54l.4-.219c.2-.1 2.652-1.336 5.075-3.322 2.192-1.806 4.4-4.242 4.794-7.103l.86.423c.193.097.463-.05.451-.298-.006-.17-.137-.245-.137-.246l-1.1-.819V.465l-10.359.5zm.363.383 9.996.482L22.4.848v10.834l-.492-.366.004-.36V1.304l-9.504.463-9.502-.463v2.433l-.498-.197zM.338 2.994l6.887 2.738-.131-2.404 3.49 2.47s-.04-.017-.1-.017c-.115 0-.205.06-.228.117l-.71 1.319-.888-.621-.375 1.447L.287 3.102a.06.06 0 0 1 .05-.108zm17.992.348h1.639l-.953 2.256h-.53l.784-1.809h-.94zm-6.658 1.207a.14.14 0 0 1 .107.015l.948.559a.14.14 0 0 1 .05.193L12.09 6.46c-.198-.085-.385-.163-1.277-.545l.771-1.3a.14.14 0 0 1 .088-.065zm-9.264.166.498.306v7.008c0 5.8 8.926 10.347 9.307 10.537l.205.104.19-.104c.368-.186 8.82-4.496 9.277-10.07l.457.225c-.323 2.753-2.477 5.184-4.68 6.992a29.5 29.5 0 0 1-5.012 3.283l-.238.129-.248-.125a29.4 29.4 0 0 1-5.02-3.287c-2.385-1.96-4.733-4.646-4.736-7.688zm10.762.695a.1.1 0 0 1 .05.018l.866.513a.14.14 0 0 1 .047.194c-.169.269-.473.758-.688 1.103a.4.4 0 0 0-.164-.224.4.4 0 0 0-.097-.059l-.838-.377.68-1.103a.14.14 0 0 1 .144-.065zm-2.664.678a.14.14 0 0 1 .103.02c.837.339 1.658.712 2.48 1.081a.143.143 0 0 1 .075.188l-.543.867a.14.14 0 0 1-.184.08l-1.244-.498-.187.309c-.003 0 .194.078.851.412a.82.82 0 0 1 .372.342l.595 1.09 1.936 1.279c-.172.311-.233.558-.264.656l-.02.07.278 1.465-.043.012c-.404.134-.765.362-1.135.566-.255.144-.304.17-.431.215a1.23 1.23 0 0 1-.82.018l-.087-.024c-.234-.043-.583-.344-.865-.586-.392-.335-.518-.434-.81-.566l-.043-.02.449-1.572-1.78-2.898a.143.143 0 0 1 .012-.19l1.211-2.254a.14.14 0 0 1 .094-.062zm3.885.195a.14.14 0 0 1 .107.018l.777.459a.14.14 0 0 1 .047.193c-.897 1.43-1.044 1.668-1.299 2.074l-.015.034a.14.14 0 0 1-.192.039l-.777-.46c-.107-.064-.052-.193-.045-.193s.466-.74 1.309-2.1a.14.14 0 0 1 .088-.064zm1.148.89a.15.15 0 0 1 .107.016l.618.368a.14.14 0 0 1 .047.195L15.1 9.678a.145.145 0 0 1-.196.047l-.617-.37a.14.14 0 0 1-.047-.193l1.21-1.926a.15.15 0 0 1 .09-.062zm1.484.829 6.692 4.978a.06.06 0 0 1-.03.11l-.02-.004-5.54-2.729-.38 2.557-4.651-3.111-.637-1.174 2.037 1.152.277.164c.07.043.183.06.217.06.213 0 .328-.19.328-.19l.149-.237.142-.209 1.075.887zm-10.15 3.244c.298 0 .593.12.8.229.104.088.877.18 1.235.255.425.084.75.478.451.774-.193.16-.504.377-.353.447.103.023.5.118.576.139.229.062.49.14.717.23.008.003.236.098.357.176.438.281 1.031.966 1.52 1.057.084.02.281.09.549.09.393 0 .732-.182.83-.239l.191-.103c.368-.207.71-.416 1.066-.535.286-.095.49-.1.518-.1.25-.028.491-.042.566-.066.375-.118.756-.252 1.147-.252.526 0 .887.244 1.158.609.078.104.46.64.356.773-.116.151-.37.311-.4.512-.031.204.069.205.197.192s.235-.022.273.087c.057.161-.14.346-.182.49-.017.06-.008.14-.029.202-.089.25-.287.467-.416.697a.3.3 0 0 1-.102-.031c-.134-.073.305-.581.34-.643.084-.142-.728-.142-.775-.166-.17-.083-.296-.3-.361-.47-.067-.174-.123-.496.103-.577.098-.037.212.017.318-.021.083-.03.154-.127.207-.188-.238-.191-.461-.26-.681-.26-.378 0-.749.206-1.174.354-.289.055-.555.099-.674.123-.508.104-1.016.539-1.418.672a3.1 3.1 0 0 1-1.197.188c-.58-.046-.957-.05-1.826-.784-.452-.357-.568-.614-1.744-.86-.52-.105-.995-.226-.967-.517.008-.182.317-.357.236-.54-.042-.097-.084-.328-.014-.48-.149-.282-.284-.344-.687-.47a1.4 1.4 0 0 0-.451-.066c.015.08.02.165.006.246-.037.195-.131.695-.516.63-.016-.044.164-.253-.127-.595-.175-.202-.528-.778-.144-1.053a.9.9 0 0 1 .521-.156zm3.215 5.574a.26.26 0 0 1 .174.082c.065.062.052.131.052.131l.112.094.652.496s.518-.175.514-.223.06-.037.04-.068c-.019-.03-.026-.057.026-.082.067-.033.049.058.076.031.037-.035.194.05.233.11.037.06-.042.066-.037.115.004.047.035.028-.002.055-.038.028-.074.014-.1-.008-.037-.03-.015-.043-.015-.043l-.407.271 1.006.895 1.006-.895-.406-.271s.02.014-.016.043c-.026.022-.06.035-.098.008-.037-.027-.006-.008-.002-.055.005-.049-.076-.055-.039-.115.04-.06.199-.145.235-.11.026.027.01-.065.076-.031.053.025.044.052.023.082-.018.03.048.02.043.068-.004.048.512.223.512.223l.652-.496.112-.094s-.013-.069.053-.13c.114-.111.246-.098.308-.024.066.08.045.252-.021.314s-.162.043-.162.043l-.09.108-.618.545c.002 0 .034.523.1.523.048.002.03.066.065.05.032-.015.06-.02.08.034.025.07-.067.04-.043.07.03.04-.074.184-.139.215-.065.03-.062-.05-.11-.05-.049-.002-.033.03-.056-.01s-.008-.071.018-.094-.004-.066-.004-.066l-.12-.375-.998.812 1.004.89s.164.344.082.34a2 2 0 0 1-.336-.037l-1.109-.902-1.111.902s-.135.03-.336.038c-.083.003.082-.34.082-.34l1.004-.891-.998-.812-.12.375s-.028.042-.003.066c.025.023.042.054.02.094-.024.04-.008.008-.057.01-.048 0-.047.08-.112.05s-.17-.175-.138-.215c.023-.03-.068 0-.043-.07.02-.053.047-.049.08-.033.033.015.014-.048.062-.05.07-.002.1-.524.1-.524l-.617-.545-.09-.108s-.099.02-.164-.043c-.067-.062-.086-.235-.02-.314a.17.17 0 0 1 .135-.059z"/></svg>