<svg xmlns="http://www.w3.org/2000/svg" viewBox="0 0 24 24"><path d="M11.984 1.543a.25.25 0 0 0-.209.117l-.974 1.508a.62.62 0 0 1-.354.262l-.574.164a.75.75 0 0 0-.453.363L6.955 8.473a.74.74 0 0 1-.48.37 19 19 0 0 1-.621.132.55.55 0 0 0-.4.322L4.296 11.98a1 1 0 0 1-.51.516l-.426.191a1 1 0 0 0-.54.602s-.648 1.665-1.147 3.166C1.222 17.812.04 21.9.04 21.9a.43.43 0 0 0 .09.493.32.32 0 0 0 .467-.108s1.577-3.372 2.152-4.472a.31.31 0 0 1 .46-.094c.255.165.378.608.663.865a.258.258 0 0 0 .422-.104c.206-.504.69-2.075.851-2.724.136-.541.596-.59.858-.194l.19.235a2.25 2.25 0 0 0 .714.592l.35.185a.5.5 0 0 1 .226.244l.383.899a.75.75 0 0 0 .662.455l.12.004a.75.75 0 0 1 .632.398c.176.332.46.933.703 1.326a.26.26 0 0 0 .475-.06 15.4 15.4 0 0 0 .6-2.06c.14-.717.577-.626.728-.432.055.07.245.359.297.418a.252.252 0 0 0 .459-.098 12 12 0 0 0 .404-1.904c.039-.292.357-.33.51-.08.163.265.43.74.574 1.023a2.6 2.6 0 0 1 .235.617l.21.951a2.2 2.2 0 0 0 .667 1.127 3.4 3.4 0 0 0 .476.422.268.268 0 0 0 .41-.105c.111-.255.251-.687.334-.936a.25.25 0 0 1 .194-.166c.107-.02.18-.031.334-.072a.84.84 0 0 0 .562-.492l.207-.498a.257.257 0 0 1 .467-.014c.075.135.209.417.271.572a2 2 0 0 1 .09.246l.164.637a2.3 2.3 0 0 0 .29.66l.076.115a2.13 2.13 0 0 0 .783.723.25.25 0 0 0 .35-.123c.234-.546.325-1.359.433-1.883a.285.285 0 0 1 .518-.092 471 471 0 0 1 2.326 3.92.312.312 0 0 0 .54-.308c-.042-.099-1.505-3.787-2.911-7.053C19.772 11.97 18.53 9.38 18.53 9.38a.46.46 0 0 0-.556-.246c-.377.112-.786.356-1.07.455a.54.54 0 0 1-.647-.252c-.347-.636-1.113-2.3-1.817-3.615-.76-1.424-1.724-3.32-2.242-4.069a.25.25 0 0 0-.215-.109z"/></svg>