<svg xmlns="http://www.w3.org/2000/svg" viewBox="0 0 24 24"><path d="M6.75 1.11C3.103 1.11.27 3.996.02 7.556c-.15 2.21.533 4.02 2.18 5.673l3.722 3.778.213.219.258.26.128.13 4.89 4.957c.065.075.329.317.6.317h.022c.253-.013.502-.243.576-.317l4.952-5.017.214-.217.213-.219.078-.078.155-.156 3.601-3.657c1.623-1.655 2.31-3.463 2.158-5.673-.252-3.561-3.083-6.448-6.73-6.448-2.353 0-3.714 1.418-5.25 3.028-1.546-1.611-2.897-3.028-5.25-3.028zm9.475 6.447c.273 0 .894.064 1.199.304a.439.439 0 0 1-.295.762c-.228 0-.458-.162-.926-.162-.62 0-1.033.37-1.033 2.004 0 1.524.346 1.873 1.076 1.873a1 1 0 0 0 .35-.043v-1.568h-.305c-.273 0-.436-.143-.436-.393 0-.272.142-.414.436-.414h.904c.305 0 .412.141.412.478v1.635c0 .795-.467 1.143-1.48 1.143-1.633 0-2.004-.903-2.004-2.787 0-1.982.828-2.832 2.102-2.832zm-5.543.033c.25 0 .47.118.535.478l.662 3.094a6 6 0 0 1 .119.87c.023-.229.078-.576.121-.87l.6-3.092c.065-.306.251-.48.511-.48.327 0 .568.272.48.697l-.948 4.215c-.098.458-.348.685-.762.685-.479 0-.685-.228-.783-.642l-1.014-4.193c-.098-.413.087-.762.479-.762zm-3.625.031h1.078c1.296 0 1.492.667 1.492 1.385 0 .578-.185 1.087-.904 1.24.784.043 1.054.665 1.054 1.22-.01.872-.324 1.655-1.73 1.655h-.99c-.251 0-.438-.086-.438-.369V8.035a.42.42 0 0 1 .438-.414zm.609.752V9.92h.25c.631 0 .709-.357.719-.682v-.101c0-.555-.087-.762-.664-.762v-.002zm-.012 2.266v1.732h.371c.59 0 .662-.401.664-.851v-.02c0-.49-.054-.86-.74-.86v-.001z"/></svg>