<svg xmlns="http://www.w3.org/2000/svg" viewBox="0 0 24 24"><path d="M11.094.47c-.842 0-1.695.092-2.551.288a11.4 11.4 0 0 0-4.871 2.424 10.6 10.6 0 0 0-2.36 2.826A10 10 0 0 0 .306 8.582c-.398 1.62-.4 3.337-.043 5.049.085.405.183.808.31 1.21a11.9 11.9 0 0 0 1.662 3.73 3 3 0 0 0-.086.427 3.323 3.323 0 0 0 2.848 3.709 3.3 3.3 0 0 0 1.947-.346 11.5 11.5 0 0 0 3.338 1.041 11.7 11.7 0 0 0 4.285-.156 11.6 11.6 0 0 0 4.938-2.484 10.6 10.6 0 0 0 2.351-2.895 11.2 11.2 0 0 0 1.356-4.424 11.2 11.2 0 0 0-.498-4.334 2.14 2.14 0 0 0 1.264-1.635 2.146 2.146 0 0 0-1.79-2.435 2.1 2.1 0 0 0-1.205.172q-.059-.065-.113-.13a11.7 11.7 0 0 0-3.476-2.93 13 13 0 0 0-1.76-.81 13.6 13.6 0 0 0-2.06-.612 12 12 0 0 0-2.48-.258zm.715.327v.002q.517-.006 1.027.04a9.9 9.9 0 0 1 2.742.64c.984.39 1.89.958 2.707 1.632.803.662 1.503 1.45 2.092 2.328q.038.06.07.12a2.12 2.12 0 0 0-.435 2.646c-.158.114-.97.693-1.633 1.184-.414.308-.734.556-.734.556l.582.68s.295-.277.664-.639a108 108 0 0 0 1.394-1.402 2.12 2.12 0 0 0 1.908.678 11.2 11.2 0 0 1-.013 4.045 11.4 11.4 0 0 1-1.475 3.896 12.3 12.3 0 0 1-2.078 2.588c-1.19 1.125-2.634 2.022-4.307 2.531a10.8 10.8 0 0 1-3.972.485 11 11 0 0 1-3.059-.653 3.3 3.3 0 0 0 1.418-2.295 3.3 3.3 0 0 0-.295-1.841c.18-.162.403-.363.656-.6 1.015-.955 2.354-2.303 2.354-2.303l-.47-.6s-1.63.973-2.802 1.73a33 33 0 0 0-.777.517 3.3 3.3 0 0 0-1.516-.612c-1.507-.198-2.926.673-3.486 2.018a10 10 0 0 1-.695-1.078 11 11 0 0 1-.947-2.29 10 10 0 0 1-.202-1.212c-.164-1.653.103-3.258.63-4.754a13 13 0 0 1 1.087-2.287c.57-.968 1.248-1.872 2.069-2.656A11 11 0 0 1 11.809.797zm-.149 3.258a3.84 3.84 0 0 0-3.818 3.82v2.36H6.9c-.75 0-1.377.624-1.377 1.376v3.801h1.461v-3.719h9.354v6.264H10.02v1.461h6.4a1.39 1.39 0 0 0 1.377-1.377v-6.43a1.39 1.39 0 0 0-1.377-1.377h-.94V7.873a3.84 3.84 0 0 0-3.82-3.818zm0 1.46a2.37 2.37 0 0 1 2.361 2.36v2.36h-4.72v-2.36a2.37 2.37 0 0 1 2.36-2.36zm10.143.391a1.253 1.253 0 0 1 1.295 1.436c-.05.319-.217.59-.453.78a1.24 1.24 0 0 1-.967.263 1.253 1.253 0 0 1-1.045-1.42 1.255 1.255 0 0 1 1.17-1.059zM5.385 17.426A2.02 2.02 0 0 1 7.3 18.723c.116.3.158.627.113.966a2.015 2.015 0 0 1-2.248 1.729 2.016 2.016 0 0 1-1.727-2.25 2.02 2.02 0 0 1 1.946-1.742z"/></svg>