<svg xmlns="http://www.w3.org/2000/svg" viewBox="0 0 24 24"><path d="M16.62 4.205c-.972 0-1.58.074-2.102.598-.473.473-.533 1.152-.498 1.771h-.983v1.237c-.183-.784-.804-1.397-2.91-1.397-1.483 0-3.184.28-3.244 2.066h2.232c0-.267.172-.642.9-.642.39 0 .792.156.792.582 0 .4-.33.499-.659.559-1.093.219-3.1.162-3.492 1.609a3 3 0 0 0 .037-.223H4.396c-.048.497-.411.922-.933.922-.924 0-1.059-.777-1.059-1.555 0-.766.136-1.566 1.059-1.566a.9.9 0 0 1 .607.205c.157.135.243.33.268.598H6.62c-.16-1.75-1.545-2.551-3.209-2.551C1.517 6.418 0 7.74 0 9.732c0 1.993 1.518 3.305 3.414 3.305 1.572 0 2.843-.82 3.209-2.297q-.032.18-.033.389c0 1.326 1.008 1.906 2.223 1.906.777 0 1.507-.169 2.029-.752h.025a1.7 1.7 0 0 0 .084.596h2.455c-.28-.401-.293-.934-.293-1.408V8.88c0-.278.001-.558-.033-.824h.94v4.824h2.408V8.057h1.084a3.5 3.5 0 0 0-.424 1.69c0 2.101 1.518 3.29 3.535 3.29 1.42 0 2.756-.631 3.242-1.992h-2.248c-.193.303-.618.45-1.008.45-.765 0-1.163-.497-1.224-1.225H24c0-2.466-1.08-3.852-3.582-3.852-1.231 0-2.207.564-2.775 1.424V6.574h-1.264c-.038-.583.156-.752.738-.752.194 0 .39.047.584.084v-1.65c-.378-.012-.705-.05-1.082-.05zm4.015 3.754h.021a1.04 1.04 0 0 1 1.035 1.035v.022h-2.295c.11-.681.51-1.057 1.239-1.057zm-9.828 2.09v.582c-.036.669-.461.982-1.008.982-.438 0-.754-.29-.754-.582 0-.425.278-.546.814-.68.328-.084.656-.155.948-.302zm-6.893 3.316c-.88 0-1.174.352-1.394.645h-.018v-.524H.746v6.309h1.817v-2.066h.019c.284.405.754.642 1.305.642 1.42 0 1.917-1.065 2.011-2.094v1.975h1.82v-1.885c0-1.028.376-1.44 1.102-1.44a1.8 1.8 0 0 1 .623.089 2.7 2.7 0 0 0-.138.869c0 1.589 1.148 2.486 2.672 2.486 1.02 0 1.983-.43 2.392-1.355.218.986 1.327 1.355 2.342 1.355.973 0 2.022-.252 2.334-1.115.33.807 1.336 1.115 2.266 1.115 1.158 0 2.423-.359 2.423-1.68 0-.78-.525-1.14-1.14-1.332-.605-.193-1.305-.247-1.598-.367-.1-.046-.21-.11-.21-.248 0-.303.294-.367.552-.367a.62.62 0 0 1 .402.137.46.46 0 0 1 .211.359h1.653c-.044-1.222-1.287-1.508-2.315-1.508-.956 0-2.25.314-2.25 1.516 0 .817.56 1.269 1.947 1.498.844.146 1.002.229 1.002.504 0 .274-.377.367-.615.367q-.334 0-.488-.137a.6.6 0 0 1-.22-.422h-1.528c0-.78-.527-1.14-1.14-1.332-.607-.193-1.306-.247-1.599-.367-.102-.046-.21-.11-.21-.248 0-.303.292-.367.55-.367a.62.62 0 0 1 .405.137.47.47 0 0 1 .21.359h1.653c-.045-1.222-1.286-1.508-2.315-1.508-.955 0-2.25.314-2.25 1.516 0 .817.56 1.269 1.948 1.498.844.146 1 .229 1 .504 0 .274-.377.367-.616.367-.22 0-.386-.046-.488-.137a.6.6 0 0 1-.219-.422h-1.734a2 2 0 0 0 .012.174H12.73c-.147.231-.467.34-.761.34-.578 0-.881-.375-.928-.926h3.488c0-1.865-.817-2.912-2.709-2.912-1.085 0-1.906.578-2.285 1.416V13.44a2 2 0 0 0-.531-.074c-.661 0-1.049.304-1.342.883h-.017v-.762H5.898v2.063c-.11-1.097-.76-2.184-1.984-2.184zm8.07 1.168h.02a.787.787 0 0 1 .781.783v.016H11.05c.082-.515.385-.799.935-.799zM3.3 14.69c.652 0 .799.622.799 1.184s-.146 1.176-.8 1.176c-.65 0-.8-.617-.8-1.176 0-.561.15-1.184.8-1.184z"/></svg>