<svg xmlns="http://www.w3.org/2000/svg" viewBox="0 0 24 24"><path d="M12.22 0c-6.63 0-12 5.375-12 12s5.376 12 12 12c5.399 0 9.963-3.564 11.471-8.465.106-.34.24-.91-.445-1.416a5.85 5.85 0 0 0-2.404-1.033c0 .009 0 .012-.004.021a6 6 0 0 1-.35 1.22c.731.12 1.408.395 1.987.818 0 .004-.006.013-.006.017a10.8 10.8 0 0 1-1.489 3.031 10.8 10.8 0 0 1-2.332 2.397 10.65 10.65 0 0 1-6.427 2.137c-1.448 0-2.85-.286-4.174-.842a10.7 10.7 0 0 1-3.408-2.3 10.7 10.7 0 0 1-2.297-3.405 10.6 10.6 0 0 1-.844-4.174 10.7 10.7 0 0 1 3.14-7.582 10.8 10.8 0 0 1 3.409-2.301c1.32-.561 2.726-.84 4.174-.84 2.34 0 4.56.74 6.427 2.139a10.9 10.9 0 0 1 2.332 2.394 10.6 10.6 0 0 1 1.489 3.03c0 .005.006.013.006.017-.58.423-1.256.7-1.987.82a6.3 6.3 0 0 1 .35 1.217l.002.014q-.579.111-1.18.111c-4.179-.004-3.962-2.828-6.73-2.828h-1.035c-1.9 0-3.15 1.358-3.15 3.096v1.41c0 1.738 1.25 3.096 3.15 3.096h1.029c2.768 0 2.552-2.824 6.736-2.824q.6 0 1.182.11a6.2 6.2 0 0 0 0-2.165 5.8 5.8 0 0 0 2.404-1.035c.685-.506.551-1.08.445-1.42C22.183 3.564 17.62 0 12.221 0zm-1.185 3.64a6.24 6.24 0 0 0-5.412 3.128L4.404 8.873a6.25 6.25 0 0 0 0 6.254l1.219 2.105a6.25 6.25 0 0 0 5.412 3.127h2.432a6.24 6.24 0 0 0 5.412-3.127l1.219-2.105c.147-.252.276-.52.38-.787l.004-.014a5.5 5.5 0 0 0-.828-.064c-1.816-.005-2.496.598-3.287 1.3-.763.676-1.708 1.518-3.437 1.518h-1.035c-1.251 0-2.387-.454-3.2-1.277-.796-.804-1.232-1.904-1.232-3.1v-1.41c0-1.195.436-2.295 1.232-3.1.813-.823 1.949-1.279 3.2-1.279h1.029c1.729 0 2.675.842 3.44 1.518.79.699 1.474 1.306 3.29 1.306q.428-.001.828-.064l-.003-.014a6 6 0 0 0-.381-.787l-1.22-2.105a6.25 6.25 0 0 0-5.411-3.127z"/></svg>