<svg xmlns="http://www.w3.org/2000/svg" viewBox="0 0 24 24"><path d="M3.326 0A3.327 3.327 0 0 0 0 3.326v17.348A3.327 3.327 0 0 0 3.326 24h17.348A3.326 3.326 0 0 0 24 20.674V3.326A3.326 3.326 0 0 0 20.674 0zm8.688 3.307c1.875 0 2.84 1.104 2.84 3.048v1.176H13.05v-1.3c0-.868-.392-1.204-.994-1.204-.615-.014-.995.323-.995 1.19v6.558c0 .867.394 1.176.995 1.176.616 0 .994-.309.994-1.176v-1.732h1.803v1.607c-.014 1.945-.979 3.05-2.854 3.05s-2.84-1.12-2.84-3.036V6.355c.014-1.944.98-3.048 2.854-3.048zM9.16 17.477h5.694v3.216H9.16z"/></svg>