<svg xmlns="http://www.w3.org/2000/svg" viewBox="0 0 24 24"><path d="M12 0c-.29 0-.58.067-.812.205l-8.77 5.188c-.46.272-.805.875-.805 1.408v10.398c0 .533.345 1.136.805 1.408l8.77 5.188c.464.275 1.16.275 1.624 0l8.77-5.188c.46-.272.805-.875.805-1.408V6.801c0-.533-.345-1.136-.805-1.408L12.812.205A1.6 1.6 0 0 0 12 0zm-.85 8.305c.394 0 .713.302.713.675v2.223c0 .207.192.375.428.375s.428-.168.428-.375V9.57c0-.373.32-.675.713-.675.394 0 .713.302.713.675v4.713c0 .374-.32.676-.713.676-.394 0-.713-.302-.713-.676v-1.31c0-.206-.192-.373-.428-.373s-.428.167-.428.373v1.226c0 .374-.32.676-.713.676-.394 0-.713-.302-.713-.676v-1.668c0-.207-.191-.375-.427-.375-.235 0-.428.168-.428.375v3.31c0 .374-.318.677-.71.677-.395 0-.714-.303-.714-.676v-2.428c0-.206-.19-.373-.428-.373-.235 0-.427.167-.427.373v.18a.71.71 0 0 1-.711.707.71.71 0 0 1-.713-.707V11.47a.71.71 0 0 1 .713-.71.71.71 0 0 1 .71.71v.177c0 .206.193.373.428.373.237 0 .428-.167.428-.373v-1.53c0-.375.32-.677.713-.677s.711.303.711.676v.647c0 .206.193.375.428.375.236 0 .428-.17.428-.375V8.98c0-.373.318-.675.712-.675zm4.563 2.416c.393 0 .713.301.713.675v2.692c0 .374-.32.676-.713.676-.394 0-.713-.303-.713-.676v-2.692c0-.374.32-.675.713-.675zm2.28 1.367c.394 0 .712.303.712.676v.67c0 .374-.319.675-.713.675s-.713-.3-.713-.673v-.67c0-.374.32-.678.713-.678z"/></svg>