<svg xmlns="http://www.w3.org/2000/svg" viewBox="0 0 24 24"><path d="M14.354 0 8.1 7.404l-.04-4.037-2.294 5.395-.12-1.59-1.13 4.139h.002s.149-.115.355-.174a1 1 0 0 1 .219-.04.6.6 0 0 1 .24.036c.389.136.717 0 .717 0s.365.234.365.43h-.002s-.478.028-.478-.184c0 0-.613-.218-1.471.1l1.808.779c0-.008-.097-.346.008-.463.033-.041.094-.055.184-.024q.048.017.07-.005c.14-.145-.54-1.407-.54-1.407s-.613-.06-1.143.495a2 2 0 0 0-.106.119 2.3 2.3 0 0 1 .514-.606 1.75 1.75 0 0 1 .642-.346c.07-.168-.02-.059.125-.148h.002c.068-.444.32-1.588 1.188-2.566q.086-.1.181-.194s-.222.418-.222.71c.007-.009.223-.335.525-.636l-.004.01c-.057.12-.47 1.002-.427 1.26l.002.008.83-.762c-.034.047-.784 1.062-.858 1.412v.002l1.264-.902c-.004.008-.16.223-.225.342-.047.086-.052.114-.052.123l.001.006.682-.291-.076.085-.777.791-.36.368-.224.228s-.185.192-.207.291c-.022.097.077.157.08.158h.002a.5.5 0 0 1 .213.23.5.5 0 0 1 .037.19.47.47 0 0 1-.147.344.51.51 0 0 1-.685.024c.016.02.313.356.722.09.15-.099.565-.413.565-.413l.025-.017.584-.43q.209.246.387.58c-.623.59-1.866 1.834-2.535 2.666l.228-1.072a2 2 0 0 0-.146.12 3.3 3.3 0 0 0-.424.466 4 4 0 0 0-.112.152A5.5 5.5 0 0 0 5.63 14v.002l-.233.039q.07-.179.143-.332l-.38.533.38-.037c-.325.746-.562 1.721-.562 3.111l.308-.195c.272 1.551 1.55 2.234 1.55 2.234l-.001-.01a6.1 6.1 0 0 0 2.77.94v-.002q.025.005.048.006c.511.045 1.01.026 1.485-.043l-.002.055c0 .307.17.56.386.582-.447.76-.807 1.768-.808 1.773-.017.046-.054.132-.09.158-.11.025-.118.03-.24.069l.002-.002c-.041-.04-.393-.106-.752.03l.002.003a1.1 1.1 0 0 0-.54.522c.147-.118.42-.31.641-.284-.262.15-.715.437-.767.848 0 0 1.574-1.105 2.355-.904 0 0-.113.127.155.605l.123-.443c.14-.431-.4-.495-.627-.504v-.006l.07-.184c.134-.345.444-1.107.785-1.652q.009-.018.014-.035l-.065-.088a1 1 0 0 0 .073-.086.67.67 0 0 0 .109-.353 1.2 1.2 0 0 0-.121-.483l.201-.094q.015.04.031.075l.01.021.018.05.01.026.017.051.006.018 1.152-.348-.256-.21h-.002l-.011-.013-.006-.004-4.362-3.972c1.213.59 2.628 1.275 5.028 2.387a121 121 0 0 0 4.635 2.04l.017.01h.002l.29.117c.164.065.32.125.327.13.013-.008.03-.011.043-.018l-8.822-6.051 5.451-3.766-4.103 1 8.02-3.47-6.612.81 3.539-2.586-3.793 1.483.572-1.15-2.713 1.954-.021-.04zm-6.9 10.559-.208.07a.3.3 0 0 1 .022.1q.001.046-.016.085l.094.057a.3.3 0 0 1-.252.143.31.31 0 0 1-.287-.196q-.008-.016-.012-.035l-.092.031c.075.224.305.345.512.274s.313-.308.238-.53zm1.69.546c.149.32.277.682.372 1.077l-1.317 1zm2.368.21.002.003h-.002zm2.699 8.023.033.158 1.535.906.39.227-.214-.547c1.267.374 2.3.395 2.986.072-1.196.353-4.158-.645-4.73-.816zm-4.98 1.016c-.255.232-.577.57-.868.88-.368.397-.672.743-.672.745-.004.003-.004.01-.01.013l-.92.252c-.401.111-.763.085-.763.348 0 0-.415.221-.318.554 0 0 .834-.666 1.549-.779 0 0-.436.283-.397.668 0 0 .588-.88 1.275-.346 0 0-.304-.415-.177-.644.11-.124.335-.38.595-.66.348-.374.757-.795 1-.994a5 5 0 0 1-.295-.037z"/></svg>