<svg xmlns="http://www.w3.org/2000/svg" viewBox="0 0 24 24"><path d="M13.896 4.7c-.23.002-.394.007-.435.007-.061 0-.327.02-.572.041-.43.04-1.043.102-1.145.143-.02 0-.144.02-.246.04-.818.123-1.84.45-2.412.778a1.3 1.3 0 0 1-.246.123c-.123.04-.982.654-1.309.92-2.351 1.922-3.598 4.927-3.066 7.422.061.307.082.306.287.142.348-.245.653-.45 1.062-.695.246-.143 1.31-.654 1.35-.654 0 0 .081-.041.184-.082.94-.43 3.66-1.37 5.03-1.717.042-.02.286-.081.51-.143 1.289-.347 1.514-.409 1.514-.347 0 .02-.082.041-.164.082-.45.163-1.655.654-1.717.695-.02.02-.042.02-.062.02a1.2 1.2 0 0 0-.244.101c-.123.061-.204.104-.225.104-.02 0-.123.04-.246.101s-.246.104-.246.104l-.285.12-.287.124c-.143 0-3.17 1.595-4.131 2.168a6 6 0 0 0-.408.246s-.307.183-1.268.797a56 56 0 0 0-3.926 2.781 6 6 0 0 1-.347.266c-.94.736-1.063.878-.532.592 1.207-.634 2.555-1.268 3.516-1.657a7.6 7.6 0 0 1 1.637-.468l.183-.022.452.45c1.145 1.144 2.371 1.738 4.191 1.984.43.061 1.82.04 2.146-.022.103-.02.308-.06.471-.08.164-.02.348-.062.389-.082.04-.02.184-.041.306-.082 2.086-.552 3.886-1.84 5.48-3.967.042-.04.185-.226.308-.41.143-.184.285-.366.326-.428.04-.04.123-.184.205-.287a47 47 0 0 0 2.74-4.498c.082-.163.224-.41.285-.553.062-.143.327-.654.572-1.125.246-.47.452-.9.452-.92.061-.122.04-.162-.266-.285a4 4 0 0 0-.512-.164c-.245-.082-.532-.164-.634-.205-.41-.143-1.103-.328-1.942-.553-.736-.184-.92-.245-1.207-.306a1.4 1.4 0 0 1-.326-.082c-.041-.02-.165-.04-.268-.06-.286-.062-.43-.082-.695-.143-1.022-.225-1.9-.307-3.393-.307-.306-.01-.603-.01-.834-.008z"/></svg>