<svg xmlns="http://www.w3.org/2000/svg" viewBox="0 0 24 24"><path d="M3.934 7.982a4.4 4.4 0 0 0-1.317.239 3.84 3.84 0 0 0-2.412 2.476c-.874 2.772 1.172 5.32 3.813 5.32.92 0 1.763-.309 2.439-.83a.35.35 0 0 0 .102-.42l-.43-.945a.32.32 0 0 0-.508-.103 2.34 2.34 0 0 1-1.603.635c-1.627 0-2.868-1.65-2.141-3.368a2.13 2.13 0 0 1 1.13-1.129c.993-.42 1.957-.18 2.598.409a.32.32 0 0 0 .508-.104l.43-.941a.35.35 0 0 0-.111-.428 4 4 0 0 0-2.498-.81zm4.302.002c-.183 0-.302.14-.302.319v7.392c0 .177.12.319.302.319h.993a.32.32 0 0 0 .324-.319V8.303a.317.317 0 0 0-.324-.319zm2.418 0a.32.32 0 0 0-.29.454l3.374 7.38a.32.32 0 0 0 .291.192l.057.004h1.275a.2.2 0 0 0 .076-.012.34.34 0 0 0 .202-.182l1.709-3.892c.515-1.213.826-1.718 1.642-2.065a2.53 2.53 0 0 1 2.055.026c.492.222.878.63 1.084 1.129a2.7 2.7 0 0 1 .207.949 2.354 2.354 0 0 1-2.354 2.387 2.34 2.34 0 0 1-1.603-.635.32.32 0 0 0-.508.103l-.43.946a.35.35 0 0 0 .1.42 4 4 0 0 0 2.44.83c2.641 0 4.688-2.549 3.814-5.32a3.84 3.84 0 0 0-2.412-2.477 4.2 4.2 0 0 0-2.328-.131c-1.2.269-2.07.837-2.834 2.478l-1.535 3.327-2.604-5.721a.32.32 0 0 0-.289-.188z"/></svg>