<svg xmlns="http://www.w3.org/2000/svg" viewBox="0 0 24 24"><path d="M13.352 0C6.729 0 1.359 5.372 1.359 12c0 6.626 5.37 12 11.993 12a11.9 11.9 0 0 0 5.83-1.518l-2.692-2.695a8.3 8.3 0 0 1-3.138.617c-4.638 0-8.399-3.78-8.399-8.441s3.76-8.44 8.399-8.44c1.108 0 2.164.222 3.132.614l2.647-2.65A11.9 11.9 0 0 0 13.35 0zm7.685 2.734-5.51 5.516 1.578 1.576 5.51-5.514zm-7.742 7.227a1.96 1.96 0 0 0-1.953 1.963c0 1.083.875 1.96 1.953 1.96s1.951-.879 1.951-1.962-.873-1.961-1.951-1.961zm3.836 4.103-1.578 1.579 5.51 5.515 1.578-1.578z"/></svg>