<svg xmlns="http://www.w3.org/2000/svg" viewBox="0 0 24 24"><path d="M15.795 5.521a4.94 4.94 0 0 0-2.484.717.43.43 0 0 1-.237.067Q9 6.302 4.924 6.303a.594.594 0 0 0-.596.45.57.57 0 0 0 .285.66c.112.055.25.081.377.081 2.25.005 4.498.003 6.748.004.044 0 .09.005.153.008l-.09.129a5 5 0 0 0-.674 1.303c-.03.09-.075.113-.166.113-2.545-.003-4.844-.003-7.193-.002a.6.6 0 0 0-.58.455.584.584 0 0 0 .31.668.9.9 0 0 0 .352.068q2.885.005 5.77.004h.122a.2.2 0 0 1-.072.084c-.5.367-.909.82-1.219 1.358-.046.08-.094.109-.187.109a5042 5042 0 0 0-7.688-.002.598.598 0 0 0-.566.705c.06.3.3.49.625.49h7.303a5.1 5.1 0 0 0-.075 1.567H7.27c-.233 0-.357.117-.364.35a8 8 0 0 0 0 .474q.01.353.37.353c.268.001.537.004.806 0 .075-.002.113.023.143.092.186.428.439.815.75 1.164.082.092.167.181.273.293h-5.01a.6.6 0 0 0-.574.48.585.585 0 0 0 .352.665.8.8 0 0 0 .304.05c5.458.005 10.345.009 15.371-.019a4 4 0 0 0 1.122-.172c2.332-.688 3.703-3.157 3.005-5.564-.434-1.496-1.413-2.506-2.888-3.022-.067-.024-.095-.053-.108-.123a4 4 0 0 0-.097-.39c-.645-2.184-2.654-3.713-4.93-3.665zM.758 14.557a.31.31 0 0 0-.322.314c-.004.158-.002.317-.002.475 0 .274.117.386.394.386h4.164c.203 0 .352-.123.358-.304a9 9 0 0 0 0-.545.32.32 0 0 0-.329-.326z"/></svg>