<svg xmlns="http://www.w3.org/2000/svg" viewBox="0 0 24 24"><path d="M11.984.316c-4.898 2.4-9.017.108-9.017.108C1.107 3.487.216 6.174 0 8.527h24C23.784 6.176 22.892 3.49 21.033.43c0 0-4.12 2.292-9.02-.106zM5.22 3.527c.424 0 .745.086.89.16l-.166.641a1.8 1.8 0 0 0-.685-.133c-.649 0-1.153.387-1.153 1.182 0 .716.428 1.166 1.157 1.166.246 0 .52-.052.681-.115l.125.63c-.15.075-.49.16-.93.16-1.247 0-1.89-.775-1.89-1.792 0-1.22.878-1.899 1.97-1.899zm6.314 0c1.11 0 1.715.822 1.715 1.809 0 1.172-.717 1.883-1.773 1.883-1.072 0-1.7-.802-1.7-1.82 0-1.072.692-1.872 1.758-1.872zm7.81.034c.687 0 1.131.12 1.48.38.375.276.61.715.61 1.346 0 .684-.25 1.158-.599 1.45-.38.312-.959.458-1.666.458a7 7 0 0 1-.93-.05V3.633a7.4 7.4 0 0 1 1.106-.072zm-12.34.025h.82V6.48h1.435v.68H7.004zm7.179 0h.82v2.057c0 .615.234.927.652.927.43 0 .666-.297.666-.927V3.586h.815V5.59c0 1.103-.565 1.629-1.508 1.629-.91 0-1.445-.5-1.445-1.639zm-2.672.584c-.55 0-.871.52-.871 1.215 0 .701.332 1.197.877 1.197.55 0 .865-.521.865-1.217 0-.643-.31-1.195-.871-1.195zm7.92.01a2 2 0 0 0-.371.03v2.345c.07.016.183.015.285.015.74.006 1.22-.398 1.22-1.254.006-.744-.433-1.136-1.134-1.136zM.006 9.79c-.281 10.275 11.978 13.886 11.978 13.886l.03.008s12.266-3.615 11.98-13.895zm10.767 1.278a6 6 0 0 1 .327.008v1.414c-.212 0-.437 0-.737.024-1.685.133-2.435.967-2.646 1.884h.039c.399-.398.961-.628 1.723-.628 1.36 0 2.507.93 2.507 2.56 0 1.558-1.236 2.838-2.996 2.838-2.159 0-3.219-1.556-3.219-3.428 0-1.473.56-2.706 1.434-3.492.811-.712 1.86-1.1 3.133-1.16a6 6 0 0 1 .435-.02zm6.928 0a6 6 0 0 1 .326.008v1.414c-.211 0-.436 0-.736.024-1.685.133-2.435.967-2.646 1.884h.039c.398-.398.96-.628 1.722-.628 1.36 0 2.506.93 2.506 2.56 0 1.558-1.235 2.838-2.994 2.838-2.16 0-3.219-1.556-3.219-3.428 0-1.473.562-2.706 1.436-3.492.811-.712 1.858-1.1 3.13-1.16a6 6 0 0 1 .436-.02zm-8.847 4.006a1.24 1.24 0 0 0-1.124.701c-.05.096-.076.242-.076.46.038.833.45 1.581 1.31 1.581h.015c.66 0 1.084-.591 1.084-1.388 0-.726-.398-1.354-1.21-1.354zm6.927 0a1.24 1.24 0 0 0-1.123.701c-.05.096-.076.242-.076.46.037.833.45 1.581 1.31 1.581h.014c.662 0 1.084-.591 1.084-1.388 0-.726-.398-1.354-1.209-1.354z"/></svg>