<svg xmlns="http://www.w3.org/2000/svg" viewBox="0 0 24 24"><path d="M6.87.283C3.08.283 0 3.321 0 7.051c0 3.732 3.081 6.765 6.87 6.765h2.429v-3.494h-2.43c-1.83 0-3.318-1.467-3.318-3.271s1.486-3.272 3.318-3.272q1.102.002 1.93.569l2.51-2.475Q9.436.283 6.869.283zm5.151 2.23c-.066-.004-.14.08-.35.253l-.026.027-1.922 1.88c-.323.316-.29.204-.067.557a3.2 3.2 0 0 1 .531 1.749v9.992c0 3.73 3.097 6.746 6.909 6.746 3.81 0 6.904-3.016 6.904-6.746 0-3.728-3.093-6.75-6.904-6.75H13.76V6.979c0-1.495-.512-3.003-1.436-4.159-.175-.203-.235-.3-.3-.306zm5.247 11.21c1.762.088 3.168 1.503 3.168 3.248 0 1.802-1.5 3.263-3.342 3.263s-3.334-1.478-3.334-3.28v-3.22h3.508z"/></svg>