<svg xmlns="http://www.w3.org/2000/svg" viewBox="0 0 24 24"><path d="M1.89 9.262C.666 9.262 0 9.8 0 10.865v2.268c0 1.066.664 1.603 1.89 1.603h3.585v-2.351h-.293c-.13 1.365-.731 1.94-1.914 1.94h-.74c-.577 0-.856-.287-.856-.854v-2.944c0-.567.28-.853.855-.853h.74c1.2 0 1.792.542 1.915 1.865h.293V9.262zm4.339 0v5.474H8.55v-.273c-1.307-.143-1.887-.678-1.887-2.121v-1.963l3.582 4.357h1.457V9.262h-2.29v.275c1.273.127 1.855.668 1.855 2.102v1.716L7.904 9.262zm6.244 0v5.474h5.474v-2.351h-.293c-.13 1.369-.73 1.947-1.914 1.947h-1.646V12.1h.556c.933 0 1.33.413 1.422 1.314h.297v-3.008h-.297c-.094.896-.49 1.315-1.422 1.315h-.556V9.668h1.644c1.201 0 1.792.543 1.916 1.871h.293V9.262zm6.052 0v2.277h.293c.126-1.253.65-1.833 1.633-1.94v3.85c0 .67-.234.936-1.097.992v.295h3.82v-.295c-.864-.056-1.102-.323-1.102-.992V9.6c.983.107 1.508.687 1.635 1.94H24V9.262z"/></svg>