<svg xmlns="http://www.w3.org/2000/svg" viewBox="0 0 24 24"><path d="M10.365 0c-.007.004-.002.066.018.143.19.787.394 1.67.394 1.7 0 .024-.24.248-.537.5a15 15 0 0 0-.734.663l-.176.182h-.248c-1.53-.005-3.06.014-4.588-.01-.578-.01-.853.406-.853.85.007 6.383.005 12.766.005 19.15 0 .542.284.822.829.822h15.06c.542 0 .824-.28.824-.824V4.026q0-.839-.83-.838c-1.632 0-3.262.002-4.894-.006h-.21l-.544-.534c-.94-.915-1.622-1.454-2.764-2.18A17 17 0 0 0 10.365 0zm.953 1.348.002.002c.03-.004.231.125.47.3a17 17 0 0 1 2.497 2.31h.002c.465.52.903 1.058 1.268 1.6.357.53.935 1.545.935 1.64 0 .03.017.052.037.052s.084-.167.14-.373c.128-.45.126-.449.388.402.38 1.238.51 2.105.51 3.38 0 .991-.046 1.402-.23 2.12-.052.205-.065.319-.034.319.026 0 .183-.038.351-.086s.31-.082.319-.075c.028.027-.396.755-.694 1.192-1.246 1.828-2.717 2.909-4.357 3.205-.917.165-1.763.1-2.61-.197-.45-.158-.813-.35-1.398-.735-1.25-.82-2.206-2.29-2.68-4.119-.214-.82-.379-2.075-.379-2.894V9l.278.414c.403.603.89 1.219.93 1.174.006-.01-.104-.225-.247-.479-.302-.536-.303-.53-.08-1.39.362-1.406 1.112-2.862 2.108-4.098.143-.178.394-.431.613-.664.603-.644 1.292-1.32 1.344-1.27.01.01-.01.127-.045.258-.134.492-.332 1.332-.315 1.348.004.004.127-.216.198-.336.072-.124.096-.15.203-.344.21-.38.39-.7.394-.707.006-.007.134.114.282.266.222.225.27.255.25.166L11.52 2.31c-.12-.506-.215-.94-.207-.961q0-.002.004-.002zM15.4 3.939h3.71c.371 0 .49.115.49.483v13.9c0 .36-.119.457-.557.457H6.42q-.78.002-1.56 0c-.33-.003-.454-.127-.454-.449V4.41c0-.343.121-.467.461-.467q1.756-.002 3.514 0c.048 0 .096.005.115.006h.1l-.006.006-.139.164c-.948 1.143-1.77 2.63-2.156 3.912a2 2 0 0 1-.111.32c-.006 0-.208-.288-.444-.638-.237-.352-.447-.653-.469-.666-.074-.046-.01 3.276.075 3.896.305 2.222 1.054 3.927 2.293 5.215.62.646 1.704 1.31 2.632 1.612 1.36.444 2.87.33 4.27-.32 1.37-.639 2.722-1.994 3.705-3.714.366-.642.934-1.741.91-1.765-.01-.01-.254.05-.54.133a6 6 0 0 1-.534.138 1.4 1.4 0 0 1 .033-.29c.09-.535.104-1.683.028-2.397-.134-1.262-.344-2.09-.93-3.662-.467-1.258-.473-1.276-.5-1.276-.014 0-.093.24-.174.53a7 7 0 0 1-.16.525.8.8 0 0 1-.113-.164 21 21 0 0 0-.973-1.34l-.174-.211c.083-.005.159-.014.235-.014zm-3.6.711-.032.235c-.027.2-.206.859-.311 1.156-.048.132.26-.17.434-.426.08-.115.153-.21.166-.21s.17.147.35.327.332.32.34.313c.03-.03-.21-.515-.378-.76a3.6 3.6 0 0 0-.371-.445zM9.32 6.584l-.133.125c-.177.17-.483.64-.628.96-.15.333-.33.85-.329.94 0 .04.073-.06.159-.222.155-.29.603-.871.67-.871.02 0 .06.052.09.119.06.132.358.551.376.53a2 2 0 0 0-.045-.32 8 8 0 0 1-.084-.66 7 7 0 0 0-.052-.476zm5.453.008c-.02 0-.039.113-.04.252 0 .24-.097 1.002-.157 1.242-.026.107-.023.107.088-.02.063-.074.167-.22.23-.33.066-.11.122-.206.131-.216.054-.063.711.814.787 1.05.018.052.04.084.053.07.03-.03-.187-.686-.322-.974-.197-.42-.666-1.074-.77-1.074zm-2.63 1.1c-.04.005-.274.505-.348.745-.083.27-.182.98-.18 1.297v.307l.108-.41c.095-.368.25-.758.365-.926.035-.05.086-.023.273.145.127.114.268.227.31.25.086.045.112 0 .044-.073-.057-.06-.393-.855-.47-1.117-.036-.12-.08-.216-.1-.219zm-2.584 3.226c-.725.02-1.372.592-1.573 1.443-.088.374-.08.66.024 1.063q.3 1.188 1.36 1.59c.097.038.3.058.55.05.34-.007.431-.027.648-.138.51-.258.868-.8.965-1.463.043-.298.04-.41-.021-.72-.187-.95-.813-1.636-1.64-1.8a1.4 1.4 0 0 0-.311-.025zm.605 2.068c.2 0 .24.02.354.147.192.215.166.6-.05.715-.19.1-.331.12-.466.064-.33-.14-.425-.52-.193-.78.113-.125.154-.144.355-.144zM8.65 19.543q.374 0 .746.008c.49.01.682.22.682.713v1.162h-.002v1.138c-.003.416-.191.634-.607.647a26 26 0 0 1-1.623 0c-.416-.015-.603-.228-.608-.648q-.008-1.162 0-2.325c.004-.466.206-.674.666-.685q.374-.008.744-.008zm6.23 0q.433.003.864.025c.348.02.531.23.535.58q.02 1.227.004 2.456c-.005.39-.21.589-.607.603q-.81.03-1.621 0c-.428-.015-.606-.23-.61-.666v-1.16h-.004c0-.39-.004-.775 0-1.164.004-.418.168-.636.575-.656q.432-.02.865-.016zm-2.743.002.879.004v.63h-1.452c-.31 0-.334.024-.334.34 0 .6.008 1.201-.001 1.801-.003.2.074.275.269.272.424-.007.847 0 1.272 0h.267l.002.603c-.05.007-.096.02-.144.02-.527.002-1.055.005-1.58 0-.517-.005-.717-.21-.717-.723v-2.238c0-.476.197-.692.67-.703q.434-.008.869-.006zm6.29.004-.001.002c.358 0 .72.006 1.086.006v.62h-1.793c-.26 0-.287.029-.287.294.006.727-.102.632.64.638.298.003.6-.002.899.004.433.01.63.206.638.633q.008.418-.004.834c-.013.383-.193.606-.572.62-.736.022-1.472.005-2.224.005v-.615h.244c.557 0 1.113-.003 1.668.002.186.002.271-.072.263-.26a5 5 0 0 1 0-.44c.007-.187-.077-.257-.265-.253-.4.01-.805.006-1.207.002-.533-.006-.723-.205-.723-.739 0-.242-.001-.481.006-.722.012-.387.188-.61.566-.621.353-.01.709-.01 1.067-.01zm-12.843.021h.002c.41-.003.82.006 1.236.006v.586c-.08.005-.154.016-.23.016-.438.002-.879.005-1.317 0-.175-.002-.25.072-.25.25q.01.957 0 1.91c0 .196.084.257.266.256.438-.005.877-.002 1.316-.002h.223v.607c-.65 0-1.285.02-1.918-.008-.342-.014-.51-.227-.514-.568q-.015-1.24 0-2.48c.003-.318.159-.544.45-.557.25-.014.509-.01.736-.016zm8.736.608c-.177 0-.248.08-.246.256q.006.963 0 1.925c0 .16.07.23.22.23.38.004.76 0 1.138 0 .17 0 .228-.082.224-.247-.008-.32 0-.642-.006-.963 0-.316-.007-.63 0-.943h.004c.005-.19-.076-.26-.261-.258a32 32 0 0 1-1.073 0zm-6.21.004c-.169-.002-.237.076-.235.24.005.322 0 .644 0 .965s.006.639-.004.96h.002c-.004.17.068.247.23.247h1.118c.158 0 .233-.068.232-.24q-.008-.962 0-1.926c0-.16-.054-.248-.226-.246q-.56.006-1.118 0z"/></svg>