<svg xmlns="http://www.w3.org/2000/svg" viewBox="0 0 24 24"><path d="M2.807 0A2.01 2.01 0 0 0 .8 2v20c0 1.1.903 2 2.006 2h18.386a2.01 2.01 0 0 0 2.006-2v-.934c-.033-1.2-.066-3.7-.066-4.834 0-.633-.469-1.166-1.07-1.166-.668 0-1.102.402-1.436.735-1.003.9-2.509 1.066-3.813.832-.6-.133-1.17-.3-1.638-.6-1.438-.833-2.373-2.4-2.373-4.066 0-1.667.935-3.2 2.373-4.067.502-.3 1.07-.466 1.638-.6 1.27-.232 2.81-.067 3.813.833.367.334.8.734 1.436.734.601 0 1.07-.535 1.07-1.168 0-1.1.033-3.632.066-4.832V2c0-1.1-.903-2-2.006-2z"/></svg>