<svg xmlns="http://www.w3.org/2000/svg" viewBox="0 0 24 24"><path d="M10.016.8a.43.43 0 0 0-.221.126l-9.36 9.97a1.61 1.61 0 0 0 0 2.202l9.36 9.976a.432.432 0 0 0 .746-.295v-4.533a6.46 6.46 0 0 1 0-12.58V1.221a.432.432 0 0 0-.525-.42zm3.97 0a.432.432 0 0 0-.527.42v4.446a6.46 6.46 0 0 1 0 12.58v4.533a.432.432 0 0 0 .746.295l9.36-9.976a1.61 1.61 0 0 0 0-2.202l-9.36-9.97A.43.43 0 0 0 13.986.8zm-1.992 7.425a3.728 3.73 0 0 0-3.726 3.73 3.728 3.73 0 0 0 3.726 3.73 3.728 3.73 0 0 0 3.729-3.73 3.728 3.73 0 0 0-3.729-3.73z"/></svg>