<svg xmlns="http://www.w3.org/2000/svg" viewBox="0 0 24 24"><path d="M15.398.598c-1.424 0-1.547.004-1.59.08a973 973 0 0 0-2.212 5.781c-1.196 3.133-2.172 5.7-2.182 5.709-.005.005-1.035-1.153-2.283-2.572-1.937-2.202-2.28-2.573-2.303-2.483-.042.189-.066.35-.096.541l2.784 3.627c1.528 1.994 2.795 3.632 2.814 3.637.029.01 6.474-13.932 6.588-14.24.028-.076-.067-.08-1.52-.08zM7.684 2.17a9 9 0 0 0-.881.045A7.9 7.9 0 0 0 3.28 3.473c-.555.365-1.515 1.33-1.904 1.904-2.131 3.161-1.756 7.375.893 9.98.602.594 1.2 1.017 2.04 1.44 1.03.522 2.07.826 3.419 1.015 1.006.138 2.923.109 4.119-.062l.199-.027v-.67l-.176.029c-1.073.17-3.099.16-4.096-.016-2.6-.46-4.508-1.76-5.576-3.806-.925-1.77-1.048-4.048-.322-5.994a6.7 6.7 0 0 1 1.646-2.563c.798-.797 1.566-1.277 2.563-1.61 1.315-.436 2.948-.47 4.49-.095l.494.115c.029 0 .185-.38.166-.398-.042-.038-1.001-.267-1.49-.358a11 11 0 0 0-2.062-.187zm10.681.79c-.028-.003.03.05.186.186 2.107 1.833 3.36 4.01 3.8 6.612.143.845.158 2.391.03 3.226-.366 2.35-1.386 4.386-3.047 6.057-1.856 1.87-4.102 2.966-6.813 3.322-.83.11-2.533.072-3.369-.07-.977-.166-1.97-.475-3.013-.926-.575-.251.43.39 1.285.817 2.53 1.267 5.469 1.556 8.26.82.73-.195 1.352-.431 2.13-.81 3.46-1.7 5.757-4.979 6.15-8.776.067-.655.036-1.918-.073-2.592a10.98 10.98 0 0 0-4.819-7.447 7 7 0 0 0-.617-.381.5.5 0 0 0-.088-.037zm-2.094 5.155a4 4 0 0 0-.697.047c-.854.166-1.438.674-1.61 1.4-.18.75.044 1.42.585 1.766.318.2.604.296 1.463.49.902.204 1.21.341 1.39.612.105.156.128.24.123.478 0 .171-.032.352-.08.438-.109.213-.414.455-.69.554-.535.195-1.547.187-2.316-.017-.66-.176-.587-.2-.587.19 0 .294.014.34.109.402.384.256 1.898.39 2.738.248.522-.09 1.03-.314 1.324-.575.105-.1.26-.319.346-.49.147-.294.158-.346.158-.816 0-.451-.014-.52-.132-.768-.266-.546-.732-.788-2.004-1.058-.869-.18-1.234-.377-1.405-.756-.223-.494.004-1.03.535-1.262.485-.209 1.534-.171 2.403.09l.295.09v-.74l-.229-.077c-.453-.15-1.138-.24-1.719-.246z"/></svg>