<svg xmlns="http://www.w3.org/2000/svg" viewBox="0 0 24 24"><path d="M1.955 9.426C.842 9.426 0 10.266 0 11.38c0 1.132.821 1.951 1.953 1.951.73 0 1.374-.405 1.725-1.084l.01-.02-.696-.367-.008.024c-.206.437-.589.685-1.046.685-.663 0-1.18-.522-1.18-1.191 0-.686.515-1.203 1.197-1.203q.665.002 1 .617l.01.021.668-.425-.012-.02a1.9 1.9 0 0 0-1.666-.943zm20.78.187v.905h-.467v.671h.464v.877c0 .892.287 1.188 1.157 1.188h.107v-.701c-.459 0-.516-.065-.516-.492v-.872H24v-.671h-.516v-.905zm-9.858.002v.682h.75v-.682zm-4.727.846c-.619 0-1.33.457-1.33 1.426 0 .963.738 1.422 1.315 1.424.356 0 .648-.15.828-.364v.258c0 .356-.257.674-.662.674a.8.8 0 0 1-.762-.467l-.662.373c.22.428.73.791 1.426.791.926 0 1.412-.624 1.412-1.396v-2.662h-.75v.294a1.07 1.07 0 0 0-.815-.35zm9.598 0c-.619 0-1.33.457-1.33 1.426 0 .963.74 1.422 1.32 1.424.356 0 .646-.15.826-.364v.309h.75v-2.738h-.75v.265c-.18-.19-.46-.322-.816-.322zm-6.232.002a.94.94 0 0 0-.756.361v-.306h-.744v2.738h.75V11.76c0-.46.235-.656.52-.656.333 0 .503.215.503.582v1.57h.762v-1.67c0-.706-.39-1.123-1.035-1.123zm9.601 0a.94.94 0 0 0-.756.361v-.306h-.744l-.002 2.738h.75V11.76c0-.46.238-.656.522-.656.336 0 .504.215.504.582v1.57h.76v-1.67c0-.706-.387-1.123-1.034-1.123zm-15.9.01a1.42 1.42 0 0 0-1.422 1.414l-.002.01a1.42 1.42 0 1 0 1.424-1.424zm8.705.045v.662h1.42L13.9 12.588v.668h2.475v-.664h-1.469l1.442-1.403v-.671zm-1.057.007v2.739h.75v-2.739zm-4.58.621h.002c.405.002.701.33.701.735s-.296.738-.7.738a.72.72 0 0 1-.733-.738c0-.421.315-.734.73-.735zm9.6 0c.405 0 .699.33.699.735.003.405-.292.738-.7.738a.72.72 0 0 1-.734-.738c0-.422.32-.737.735-.735zm-12.672.028c.382 0 .69.325.69.713a.704.704 0 0 1-.69.71c-.388 0-.684-.32-.684-.71s.296-.713.684-.713z"/></svg>