<svg xmlns="http://www.w3.org/2000/svg" viewBox="0 0 24 24"><path d="M11.553 9.855v4.23h.68v-.39c.231.282.56.45.953.45.832 0 1.46-.656 1.46-1.543s-.639-1.55-1.459-1.55h-.001c-.386 0-.71.162-.94.432V9.855zm-4.174.03a.43.43 0 0 0-.445.437c0 .254.19.438.445.438a.43.43 0 0 0 .443-.438.43.43 0 0 0-.443-.437zm-5.826 1.168C.68 11.053 0 11.716 0 12.602c0 .887.664 1.543 1.553 1.543.75 0 1.351-.485 1.484-1.204H2.31a.78.78 0 0 1-.756.565c-.502 0-.856-.386-.856-.904 0-.523.348-.91.85-.91h.002c.363 0 .65.225.76.558h.734c-.133-.713-.722-1.197-1.49-1.197zm3.29 0c-.871 0-1.552.663-1.552 1.549s.664 1.54 1.553 1.54 1.564-.666 1.564-1.546c0-.875-.664-1.543-1.564-1.543zm5.053 0c-.45 0-.745.184-.92.443v-.385H8.29v2.975h.693v-1.617c0-.455.29-.778.717-.778.398 0 .647.284.647.692v1.703h.691V12.33c0-.748-.385-1.277-1.14-1.277zm9.49 0c-.732 0-1.216.375-1.216.904 0 .506.316.8.957.893l.508.074c.249.034.386.132.386.316 0 .236-.24.334-.576.334-.41 0-.64-.167-.675-.42h-.682c.064.581.52.99 1.35.99.756 0 1.26-.347 1.26-.939 0-.53-.364-.805-.936-.89l-.508-.077c-.242-.035-.414-.114-.414-.304 0-.207.224-.311.53-.311.335 0 .55.145.595.38h.67c-.075-.598-.538-.95-1.248-.95zm3.153 0c-.89 0-1.541.669-1.541 1.549 0 .927.698 1.543 1.553 1.543.722 0 1.286-.428 1.431-1.032h-.72c-.104.264-.358.414-.7.414-.445 0-.781-.275-.855-.76H24v-.263c0-.851-.625-1.451-1.46-1.451zm-6.219.002c-.785 0-1.222.396-1.308 1.006h.685c.035-.236.222-.432.614-.432.352 0 .525.156.525.346 0 .248-.318.31-.711.35-.531.057-1.19.242-1.19.933 0 .535.4.88 1.034.88.497 0 .809-.206.965-.534.023.293.242.482.548.482h.405v-.615h-.34v-1.34h-.002c0-.645-.393-1.076-1.225-1.076zm-9.72.054v.618h.431v2.36h.694V11.11zm15.927.55c.392 0 .693.223.762.614h-1.541c.11-.414.421-.615.78-.615zm-17.683.032c.502 0 .867.393.867.91 0 .518-.365.905-.861.905-.497 0-.86-.386-.86-.904 0-.523.357-.91.854-.91zm8.244 0c.503 0 .855.387.855.91 0 .518-.365.905-.861.905-.497 0-.86-.386-.86-.904 0-.517.37-.91.866-.91zm3.775.899.002.289c0 .397-.347.69-.77.69-.26 0-.48-.11-.48-.34 0-.293.355-.374.678-.409.312-.028.483-.097.57-.23z"/></svg>