<svg xmlns="http://www.w3.org/2000/svg" viewBox="0 0 24 24"><path d="M13.52.004C11.262-.054 8.502.56 5.57 2.762a7 7 0 0 0-.556.49 3 3 0 0 0-.715.752 12.47 12.47 0 0 0-3.065 8.678c.207 6.283 5.266 9.292 5.647 9.51.262.17 2.905 1.809 6.494 1.808 2.106 0 4.539-.565 7.006-2.322.248-.138 1.712-1.012 2.101-2.52.23-.894.044-1.814-.56-2.736l-.047-.06c-.043-.049-1.067-1.18-2.365-1.19-.68 0-1.288.282-1.815.857-.773.842-2.35 1.85-4.25 1.92-1.598.06-3.086-.547-4.424-1.804-1.644-1.544-2.153-4.016-1.3-6.297.834-2.23 2.752-3.616 5.13-3.707l.044-.004c.024-.003 2.303-.257 4.326 1.549.17.185 1.153 1.195 2.474 1.226.823.018 1.586-.336 2.27-1.055.602-.632.87-1.34.797-2.11-.154-1.61-1.806-2.878-2.03-3.042-.212-.184-1.878-1.577-4.476-2.293A11.4 11.4 0 0 0 13.52.004zm-.272.994c3.954 0 6.657 2.336 6.826 2.486l.043.036c.42.3 1.533 1.3 1.631 2.324.044.469-.125.897-.52 1.312-.476.5-.982.753-1.503.739-.964-.02-1.743-.889-1.76-.907l-.043-.043c-2.292-2.063-4.829-1.855-5.129-1.822a6.8 6.8 0 0 0-3.014.818 3 3 0 0 0-2.34-3.214C9.542 1.45 11.516.998 13.248.998zm-6.45 2.678a1.979 1.979 0 0 1 0 3.955A1.98 1.98 0 0 1 4.82 5.652c0-.356.097-.688.262-.976v-.002c.236-.275.452-.498.629-.67a1.97 1.97 0 0 1 1.088-.328zM3.884 6.34h.002A3 3 0 0 0 6.8 8.65q.182-.001.357-.023a7 7 0 0 0-.39.865c-.75 2.003-.59 4.14.359 5.854a3 3 0 0 0-.205-.01 3 3 0 0 0-2.967 2.6 10.07 10.07 0 0 1-1.7-5.288 11.43 11.43 0 0 1 1.63-6.308zm15.61 9.85h.005c.762.003 1.46.688 1.594.826.42.658.556 1.291.404 1.884-.3 1.174-1.615 1.89-1.627 1.897l-.056.035c-6.287 4.499-12.138.667-12.383.502l-.035-.021-.036-.02a3 3 0 0 0 2.543-3.229c1.124.64 2.336.952 3.58.907 2.214-.083 4.058-1.264 4.963-2.25.327-.356.67-.532 1.047-.532zm-12.573.164a1.978 1.978 0 0 1 0 3.955 1.979 1.979 0 0 1 0-3.955z"/></svg>