<svg xmlns="http://www.w3.org/2000/svg" viewBox="0 0 24 24"><path d="M5.723 1.91a.35.35 0 0 0-.368.371l-.001.807a.347.347 0 0 0 .37.363h6.97a.342.342 0 0 0 .367-.365v-.807a.346.346 0 0 0-.368-.369zm-3.01 2.344a.346.346 0 0 0-.365.369l.002.807a.342.342 0 0 0 .365.365h8.514a.346.346 0 0 0 .367-.365v-.807a.35.35 0 0 0-.367-.37zM.365 6.6a.347.347 0 0 0-.363.37L0 7.778a.342.342 0 0 0 .363.366h9.323a.342.342 0 0 0 .363-.366v-.806a.346.346 0 0 0-.363-.371zm0 2.35A.347.347 0 0 0 0 9.317v.79a.347.347 0 0 0 .363.37h9.323a.346.346 0 0 0 .363-.37v-.79a.346.346 0 0 0-.363-.369zm10.862 0a.35.35 0 0 0-.37.368v.79a.35.35 0 0 0 .37.369h6.972a.347.347 0 0 0 .365-.37l-.01-.789a.347.347 0 0 0-.363-.369zm-8.514 2.277a.342.342 0 0 0-.365.365v.806a.342.342 0 0 0 .365.37h8.512a.346.346 0 0 0 .37-.37v-.806a.346.346 0 0 0-.37-.365zm9.978 0a.342.342 0 0 0-.363.365v.806a.343.343 0 0 0 .363.37h8.59a.347.347 0 0 0 .367-.37l-.074-.806a.346.346 0 0 0-.369-.365zm-6.966 2.347a.347.347 0 0 0-.37.37v.802a.346.346 0 0 0 .37.37h6.966a.346.346 0 0 0 .371-.37v-.803a.346.346 0 0 0-.37-.369zm8.584 0a.342.342 0 0 0-.364.371v.803a.342.342 0 0 0 .364.367h9.32a.347.347 0 0 0 .369-.367v-.803a.347.347 0 0 0-.367-.37zm0 2.35a.342.342 0 0 0-.364.369v.807a.343.343 0 0 0 .364.365h9.32a.347.347 0 0 0 .369-.365v-.807a.347.347 0 0 0-.367-.37zm-1.618 2.271a.346.346 0 0 0-.363.371v.807a.347.347 0 0 0 .363.37h8.59a.35.35 0 0 0 .367-.37l-.074-.807a.35.35 0 0 0-.367-.37zm-1.464 2.354a.347.347 0 0 0-.37.365v.809a.35.35 0 0 0 .37.367h6.972a.346.346 0 0 0 .365-.367l-.01-.809a.343.343 0 0 0-.363-.365z"/></svg>