<svg xmlns="http://www.w3.org/2000/svg" viewBox="0 0 24 24"><path d="M12.807 0a12 12 0 0 0-4.512.885A12 12 0 0 0 .857 12.979 12 12 0 0 0 10.16 23.7a12 12 0 0 0 13.022-5.654L12.816 12l9.245-7.65A12 12 0 0 0 12.807 0zM9.219 2.143c.34-.003.7.123 1.191.378.847.437 1.014 1.028.361 1.278-.487.187-2.456.176-2.931-.016-.526-.212-.382-.781.318-1.24.402-.263.722-.396 1.06-.4zm4.076 4.052h.021a1.29 1.29 0 0 1 1.293 1.291 1.29 1.29 0 0 1-1.293 1.291 1.29 1.29 0 0 1-1.29-1.29 1.29 1.29 0 0 1 1.269-1.292zm-6.26 3.8c1.033 0 1.79.434 1.79 1.028 0 .694-1.961 2.383-2.766 2.383-.365 0-.728-.165-.805-.367-.078-.203.117-.971.434-1.707.504-1.176.67-1.338 1.347-1.338zm8.639 9.187c.372 0 1.361 2.316 1.185 2.775-.2.524-1.046.467-1.564-.105-.676-.747-.403-2.67.379-2.67z"/></svg>