<svg xmlns="http://www.w3.org/2000/svg" viewBox="0 0 24 24"><path d="M12 2.525c-.97 0-2.527.285-5.646 1.43-2.721 1-3.22 1.246-3.65 1.443C.603 6.36 0 7.356 0 9.863v4.608c0 2.326.357 3.004 2.49 3.933.741.32 1.857.874 4.71 1.955 1.262.478 3.152 1.116 4.796 1.116s3.545-.638 4.803-1.116c2.857-1.08 3.974-1.635 4.713-1.955C23.647 17.475 24 16.797 24 14.471V9.863c.003-2.507-.592-3.503-2.693-4.465-.431-.197-.93-.444-3.65-1.443C14.531 2.81 12.97 2.525 12 2.525zm0 .647c1.373 0 3.347.594 5.492 1.392 2.61.967 2.824 1.106 3.344 1.323 1.472.615 2.5 1.385 2.5 3.668l-.004 2.4v2.691c0 1.77-.406 2.442-1.865 3.096-1.22.542-1.344.6-3.871 1.59-1.596.625-3.717 1.451-5.596 1.451-1.878 0-3.999-.826-5.59-1.451-2.525-.989-2.642-1.047-3.867-1.59C1.082 17.09.676 16.414.676 14.646V9.555c0-2.284 1.029-3.053 2.496-3.668.522-.218.736-.357 3.342-1.323C8.667 3.766 10.628 3.172 12 3.172zm.723.81v7.68h3.07v-1.38l-1.725-.126v-5.72zm-2.213.276a1.1 1.1 0 0 0-.45.078c-1.196.456-1.659 2.218-1.576 4.113.086 1.936.747 3.293 1.813 3.293 1.19 0 1.985-1.34 1.94-3.984-.034-1.903-.721-3.46-1.727-3.5zm5.666.865.002 6.54h2.96v-1.16l-1.738-.116V9.203l1.442.195V8.221L17.4 7.926v-1.11l1.739.463V6.107zm-9.64.438a1.1 1.1 0 0 0-.302.058c-.978.328-1.487 1.71-1.43 3.358.06 1.62.641 2.763 1.602 2.763 1.174 0 1.79-1.276 1.752-3.312-.032-1.62-.686-2.912-1.623-2.867zm3.8.3c.339.02.556.845.586 2.043.034 1.332-.19 2.35-.61 2.39-.378.039-.605-.809-.644-1.966-.045-1.319.212-2.246.514-2.424a.27.27 0 0 1 .154-.043zm9.193.38v5.421h1.121V9.92l.375.043.528 1.7h.953l-.594-1.798c.265-.115.56-.451.56-1.199 0-.813-.426-1.578-1.15-1.822zm-16.355.554q-.102.003-.203.025c-1.117.253-1.562 1.476-1.526 2.782.036 1.27.635 2.14 1.594 2.14.86 0 1.584-.886 1.584-1.857l-.975.082c-.048.429-.324.74-.623.762-.455.032-.64-.483-.656-1.268-.016-.796.154-1.433.615-1.563.3-.084.506.143.579.502l1.015-.187c-.139-.844-.75-1.437-1.404-1.418zm3.234.021c.356-.02.598.704.62 1.739.024 1.082-.207 1.911-.598 1.943-.367.031-.586-.7-.616-1.701-.029-1.132.26-1.879.522-1.967a.3.3 0 0 1 .072-.014zm14.24.864.528.14c.253.067.43.318.43.664s-.177.516-.43.47l-.528-.099zM10.53 12.16c-.95-.012-1.867.806-1.838 2.04.048 2.207 2.455 1.856 2.473 3.69 0 .276-.153.554-.434.526-.356-.068-.624-.314-.648-1.07l-1.25-.307c-.013 1.153.404 2.374 1.625 2.639 1.187.26 2.277-.699 2.02-2.348-.304-1.917-2.47-2.03-2.526-3.059-.02-.385.26-.645.535-.615.203.024.469.242.432.764l1.338.13c.07-1.352-.5-2.369-1.727-2.39zm-8.98.072v4.305l.76.268v-2.723l.576 2.92.328.111.74-2.789v3.047l.998.346v-5.485H3.658L3.08 14.52l-.443-2.288zm4.646 0-1.013 5.561.968.336.137-.858 1.067.303.154 1.02 1.18.412-1.268-6.774zm6.528 0v1.6l.935-.062.002 5.84 1.281-.426v-5.506l.842-.069v-1.377zm3.453 0v6.54l2.963-.987v-1.148l-1.739.457v-1.207l1.534-.307v-1.17l-1.534.197v-1.093l1.739-.123v-1.159zm3.353 0v5.422l1.121-.373V15.55l.377-.082.522 1.515.957-.318-.584-1.594c.264-.204.558-.64.558-1.392 0-.82-.427-1.446-1.154-1.446zm1.65 1.032h.046c.229.008.384.196.384.521 0 .348-.176.58-.43.617l-.529.078V13.3zm-14.39.697.377 2.291-.723-.162z"/></svg>