<svg xmlns="http://www.w3.org/2000/svg" viewBox="0 0 24 24"><path d="M12.76 0a1.76 1.76 0 0 0-1.295.506 1.6 1.6 0 0 0-.3.408l-.099.213a2 2 0 0 0-.045.234l.051.983a.11.11 0 0 0 .043.084l.354.154-.196.324a.055.055 0 0 1-.052.04s-.418.01-.623.019c-.386.015-1.244.485-1.877 1.838l-.725 1.55a.07.07 0 0 1-.068.04l-.578.002c-.036 0-.073.028-.088.06l-.899 2.543a.11.11 0 0 0 .018.11l.627.39a.06.06 0 0 1 .02.059l-.329.966a.2.2 0 0 1-.023.063l-.434.383a.1.1 0 0 0-.035.058l-.598 1.532a.06.06 0 0 1-.06.045l-.336.001a.163.163 0 0 0-.162.149l-.201 2.289-.016.12-.158.907a.13.13 0 0 1-.033.057l-.559.426c-.256.244-.598.69-.766 1.002l-1.861 3.924a.75.75 0 0 0-.078.32l.133.236c.002.084-.034.457-.073.531l-.623 1.088a.1.1 0 0 0-.002.086l.032.07.092.186L2.83 24c.117.01.246-.14.25-.3l.104-1.298-.028-.195 3.606-4.232a2.7 2.7 0 0 0 .287-.45l1.719-3.789a.17.17 0 0 1 .1-.088l.109-.035a.17.17 0 0 1 .181.053c.15.18.506.78.678 1.031.142.208.85 1.23 1.158 1.567.085.092.347.198.465.27a.083.083 0 0 1 .03.112l-1.03 1.807-.455 2.137a1 1 0 0 0-.035.152l-.412 1.483c.003.187-.141.287-.153.507l-.15 1.084a.06.06 0 0 0 .059.061l2.542.014.286-.006.076-.008c.124-.016.563-.076.75-.15a.6.6 0 0 0 .226-.13c.186-.193.2-.276.203-.396a.3.3 0 0 0-.027-.105.12.12 0 0 0-.058-.05l-1.182-.355a.37.37 0 0 1-.19-.132l-.316-.471a.09.09 0 0 1 .016-.096l.619-.61a.2.2 0 0 0 .049-.071l1.902-4.489c.089-.285.06-.604 0-.943-.044-.25-.686-1.328-.854-1.625l-1.285-2.252c-.079-.138-.189-.132-.228-.275l-.072-1.118a.04.04 0 0 1 .035-.05l.332-.028a.1.1 0 0 0 .072-.049l1.148-2.154a.1.1 0 0 0-.002-.094l-.236-.29a.09.09 0 0 1 0-.089l.352-.378a.054.054 0 0 1 .074-.022l.934.527a.4.4 0 0 0 .185.051c.26-.002.686-.155.908-.29a.4.4 0 0 0 .139-.15l.459-1.07c.006-.013.026-.01.03.004l.126.596a.064.064 0 0 0 .078.049l1.35-.299a.066.066 0 0 0 .05-.08l-.318-1.344a.07.07 0 0 1 .01-.053l.131-.203a.3.3 0 0 0 .035-.082l.16-.724a.04.04 0 0 1 .04-.033l3.732.005a.09.09 0 0 0 .093-.093v-.633a.02.02 0 0 1 .022-.022h1.44a.047.047 0 0 0 .046-.047V3.28a.047.047 0 0 0-.047-.047H21.71a.02.02 0 0 1-.02-.02l.004-.423c0-.13-.144-.182-.213-.082l-.228.332a.02.02 0 0 1-.02.01h-6.55a.047.047 0 0 1-.047-.047l-.014-.176a.048.048 0 0 1 .057-.049l.334.034a.06.06 0 0 0 .062-.045l.244-.989a.05.05 0 0 0-.029-.054l-.226-.086a.04.04 0 0 1-.028-.03c-.041-.172-.375-1.322-1.992-1.58A2 2 0 0 0 12.76 0z"/></svg>