<svg xmlns="http://www.w3.org/2000/svg" viewBox="0 0 24 24"><path d="M0 9.143v5.714h24V9.143zm.428.43h23.144v4.898H.428zm1.543 1.142-.371.37v1.901l.37.371h1.06v-.572h-.745v-1.484h.744v-.572l-.886-.014zm1.7 0v2.629h.686v-.973l.528.973h.73l-.601-1.086.37-.244v-.985l-.47-.314zm2.815 0-.357.314v2.315h.629v-.873h.484v.873h.615v-2.315l-.357-.314zm2.07 0v2.629h.714v-.93h.543v-.57H9.27v-.516h.615v-.613zm1.944 0-.2.629h.571v2h.672v-2h.443l.2-.63zm2.1 0-.157.67.942 1.386h-.942l-.185.586h1.713l.2-.615-1.028-1.414h.843l.17-.613zm2.1 0v2.629h.671V11.77l.4.944h.301l.399-.957v1.57h.672v-2.613h-.815l-.4.97-.414-.97zm3.571 0-.357.314v2.315h.615v-.873h.485v.873h.629v-2.315l-.358-.314zm2.057 0v2.629h.629v-1.416l.615 1.416h.627v-2.63h-.627v1.415l-.615-1.414zm-13.586.556h.487v.614h-.487zm11.787 0h.485v.614h-.485zm-14.172.014h.358v.572h-.358z"/></svg>