<svg xmlns="http://www.w3.org/2000/svg" viewBox="0 0 24 24"><path d="M6.393 5.537A6.33 6.33 0 0 0 1.9 7.391l-.046.142c-2.472 2.472-2.472 6.511 0 8.983l.095.047a6.3 6.3 0 0 0 4.467 1.853 6.3 6.3 0 0 0 4.467-1.854l5.799-5.798-1.426-1.426-5.799 5.752c-1.663 1.663-4.371 1.663-6.082 0l-.096-.096c-1.663-1.663-1.663-4.373 0-6.084l.096-.094c1.663-1.663 4.371-1.663 6.082 0l.477.522 1.425-1.426-.476-.521a6.33 6.33 0 0 0-4.49-1.854zm11.144.047a6.3 6.3 0 0 0-4.467 1.854l-5.799 5.798 1.426 1.426 5.797-5.752c1.664-1.663 4.373-1.663 6.084 0l.096.096c1.663 1.663 1.663 4.373 0 6.084l-.096.094c-1.663 1.663-4.373 1.663-6.084 0l-.474-.475-1.426 1.426.476.474c2.472 2.472 6.51 2.472 8.98 0l.096-.093c2.472-2.472 2.472-6.511 0-8.983-.047 0-.142-.096-.142-.096a6.3 6.3 0 0 0-4.467-1.853z"/></svg>