<svg xmlns="http://www.w3.org/2000/svg" viewBox="0 0 24 24"><path d="M12.16 0C7.523-.03 3.224 3.007 1.887 7.715.242 13.51 3.747 19.51 9.602 20.925V24l.625-.094c6.715-1.008 11.876-6.254 12.271-12.472.258-4.041-1.794-8.064-5.107-10.01a9.6 9.6 0 0 0-2-.895A10.6 10.6 0 0 0 12.16 0zm-.084 1.088h.014c1.01 0 2.013.16 2.974.476a8.5 8.5 0 0 1 1.77.791c2.97 1.744 4.81 5.363 4.576 9.008-.35 5.52-4.817 10.21-10.72 11.362v-2.686l-.44-.084a9.518 9.518 0 0 1 1.826-18.867zm2.041 4.305a.96.96 0 0 0-.842.334 4 4 0 0 0-.367.63c-.32.743-.436 1.803.043 2.385v.004a3.08 3.08 0 0 0 1.918-1.64 1.7 1.7 0 0 0 .164-.7.996.996 0 0 0-.916-1.013zm-4.06.091a1.014 1.014 0 0 0-.926.983c.01.24.07.477.18.693a3.28 3.28 0 0 0 2.062 1.602c.413-.593.217-1.651-.117-2.387a2.2 2.2 0 0 0-.377-.574.93.93 0 0 0-.822-.317zM7.629 8c-.858.035-1.202 1.126-.518 1.645q.298.22.633.38a3 3 0 0 0 2.53-.07 3.17 3.17 0 0 0-1.735-1.787A2 2 0 0 0 7.63 8zm8.05 3.215q-.136-.002-.288.002a3.3 3.3 0 0 0-1.229.295 3.1 3.1 0 0 0 1.719 1.756c.236.105.489.16.746.166a.933.933 0 0 0 .682-1.664c-.577-.403-.99-.54-1.63-.555zm-6.14.031c-.297-.012-.634.01-.982.025-.56 0-1.229.28-1.495.567-.694.61-.187 1.75.731 1.642a1.7 1.7 0 0 0 .746-.166c.744-.322 1.628-1.202 1.734-1.89-.182-.12-.437-.165-.734-.178zm2.088 1.215a3.4 3.4 0 0 0-1.932 1.816 1.6 1.6 0 0 0-.166.68c-.02.908 1.091 1.362 1.711.7q.211-.3.362-.634c.322-.69.45-1.926.025-2.562zm1.496.172a2.8 2.8 0 0 0-.115 2.441c.089.211.21.408.361.58.577.627 1.81.187 1.764-.629a1.6 1.6 0 0 0-.168-.697 3.04 3.04 0 0 0-1.842-1.695z"/></svg>