<svg xmlns="http://www.w3.org/2000/svg" viewBox="0 0 24 24"><path d="M14.99 1.975a1.77 1.77 0 0 0-1.77 1.77c0 .208.054.401.12.587l-8.3 14.227c-.804.168-1.419.845-1.419 1.697a1.77 1.77 0 0 0 3.54 0c0-.196-.054-.376-.112-.553l8.344-14.271c.777-.187 1.367-.853 1.367-1.688a1.77 1.77 0 0 0-1.77-1.77zm7.24 0a1.77 1.77 0 0 0-1.77 1.77c0 .208.054.401.12.587l-8.3 14.227c-.803.168-1.419.845-1.419 1.697a1.77 1.77 0 0 0 3.54 0c0-.196-.053-.376-.112-.553l8.342-14.271C23.409 5.245 24 4.579 24 3.744a1.77 1.77 0 0 0-1.77-1.77zm-7.24.802a.967.967 0 1 1-.967.967.966.966 0 0 1 .967-.967zm7.24 0a.967.967 0 1 1-.966.967.966.966 0 0 1 .966-.967zM1.77 6.865c-.125 0-.234.047-.352.072C.616 7.106 0 7.783 0 8.636a1.77 1.77 0 0 0 3.54 0 1.7 1.7 0 0 0-.112-.553C3.193 7.38 2.55 6.865 1.77 6.865zm0 .803a.967.967 0 1 1-.002 1.935.967.967 0 0 1 .002-1.935zm0 5.379c-.125 0-.234.048-.352.072C.616 13.287 0 13.964 0 14.816a1.77 1.77 0 0 0 3.54 0 1.8 1.8 0 0 0-.112-.552c-.235-.703-.877-1.217-1.658-1.217zm0 .803a.967.967 0 1 1 0 1.933.967.967 0 0 1 0-1.933zm10.86 5.44a.967.967 0 1 1-.966.966.966.966 0 0 1 .967-.967zm-7.24.001a.966.966 0 0 1 .967.965.967.967 0 1 1-.966-.965z"/></svg>