<svg xmlns="http://www.w3.org/2000/svg" viewBox="0 0 24 24"><path d="M11.988.014a13 13 0 0 0-1.986.154 12 12 0 0 0-2.285.6 11.5 11.5 0 0 0-1.654.775C3.836 2.811 2.117 4.781 1.066 7.121a13 13 0 0 0-.343.84.46.46 0 0 0-.016.28q.036.123.135.2a.49.49 0 0 0 .515.036 2.2 2.2 0 0 1 .784-.21c.262-.02.528.001.804.051q.276.051.569.131c.04.007.185.052.4.115.43.127 1.14.328 1.842.448q.264.046.52.072.255.026.49.027a3.3 3.3 0 0 0 .89-.125q.098-.03.166-.06a.18.18 0 0 0 .115-.13.3.3 0 0 0-.023-.187 4.5 4.5 0 0 1-.234-.798 4.5 4.5 0 0 1-.082-.829 4.4 4.4 0 0 1 .527-2.076q.102-.184.22-.357a4.37 4.37 0 0 1 1.925-1.576 4.4 4.4 0 0 1 1.705-.34c2.445 0 4.402 1.943 4.402 4.35h-.002q0 .217-.02.427v.002a4.2 4.2 0 0 1-.158.813q-.06.196-.138.384a.3.3 0 0 0-.024.188q.01.043.04.076.027.033.075.053h.002q.069.03.166.06.098.03.227.057h.002q.13.026.293.045.165.018.369.023c.466 0 1.018-.09 1.533-.203.171-.037.34-.077.498-.117.32-.081.605-.163.82-.227.215-.062.36-.108.4-.115.39-.106.755-.181 1.108-.19a2.4 2.4 0 0 1 .526.044q.13.026.26.068h.001q.13.044.26.106h.002a.6.6 0 0 0 .143.046.46.46 0 0 0 .373-.082.4.4 0 0 0 .135-.2.46.46 0 0 0-.016-.28q-.158-.428-.344-.842a13 13 0 0 0-.851-1.586 12.2 12.2 0 0 0-1.666-2.092 11.6 11.6 0 0 0-2.479-1.9h-.002q-.588-.336-1.223-.603h-.001q-.212-.09-.428-.17c-1.3-.487-2.73-.754-4.27-.754zm-1.627 7.908a.97.97 0 0 0-.965.965q0 .103.018.195a.92.92 0 0 0 .649.717 1.05 1.05 0 0 0 .484.033 1 1 0 0 0 .445-.207.95.95 0 0 0 .293-.46.14.14 0 0 0-.012-.106q-.02-.021-.04-.038a.1.1 0 0 0-.051-.015c-.04 0-.094.04-.147.053-.152.086-.277.072-.37.021a.4.4 0 0 1-.185-.207.403.403 0 0 1 .225-.502.6.6 0 0 1 .2-.04.12.12 0 0 0 .068-.044.12.12 0 0 0 .021-.076.1.1 0 0 0-.01-.05.1.1 0 0 0-.04-.042.96.96 0 0 0-.583-.197zm3.291 0a.97.97 0 0 0-.964.965.97.97 0 0 0 .13.48.97.97 0 0 0 .834.485.97.97 0 0 0 .926-.688l.004-.027a.14.14 0 0 0-.006-.053l-.012-.025c-.026-.026-.052-.053-.091-.053-.02 0-.044.01-.069.021q-.038.02-.078.032a.46.46 0 0 1-.213.062.35.35 0 0 1-.277-.139.4.4 0 0 1-.065-.109.403.403 0 0 1 .225-.502.6.6 0 0 1 .2-.04.12.12 0 0 0 .068-.044.12.12 0 0 0 .023-.076c0-.04-.014-.065-.053-.092a.96.96 0 0 0-.582-.197zM2.705 9.666q-.148-.003-.293.01a2.5 2.5 0 0 0-1.553.71 3 3 0 0 0-.216.231 2.7 2.7 0 0 0-.444.737 2.73 2.73 0 0 0 .787 3.125 2.73 2.73 0 0 0 1.54.63h.001a2.74 2.74 0 0 0 1.62-.379c.056-.026.2-.101.406-.224a12.2 12.2 0 0 0 2.887-2.434.44.44 0 0 0 .11-.203.27.27 0 0 0-.023-.18.4.4 0 0 0-.13-.14.6.6 0 0 0-.208-.084h-.002c-.772-.213-1.36-.524-1.88-.826h-.002l-.502-.297a10 10 0 0 0-.729-.385h-.002a3.6 3.6 0 0 0-.506-.184h-.002a3 3 0 0 0-.267-.06h-.002a3 3 0 0 0-.59-.047zm18.59 0a3 3 0 0 0-.59.047 3 3 0 0 0-.271.06c-.792.217-1.42.722-2.288 1.166a7.4 7.4 0 0 1-.96.413q-.18.06-.373.113a.6.6 0 0 0-.21.084.4.4 0 0 0-.076.064.3.3 0 0 0-.08.162.3.3 0 0 0 .004.094.43.43 0 0 0 .111.203 11.7 11.7 0 0 0 1.616 1.551q.255.203.486.37a9 9 0 0 0 1.19.737 2.74 2.74 0 0 0 2.439.184 2.7 2.7 0 0 0 .72-.435l.014-.01.002-.006a2.73 2.73 0 0 0 .328-3.846c-.417-.496-.923-.79-1.484-.9h-.004a2.5 2.5 0 0 0-.574-.051zm-10.71 1.217q-.104-.008-.157.037a.2.2 0 0 0-.063.121c-.01.072.01.155.05.225q.06.1.132.191a1.9 1.9 0 0 0 .517.453c.266.157.58.249.936.256h.002a1.9 1.9 0 0 0 .621-.11 1.86 1.86 0 0 0 .965-.79c.06-.093.076-.212.033-.293a.2.2 0 0 0-.045-.053c-.055-.044-.146-.056-.28-.012a3.48 3.48 0 0 1-2.59 0 .5.5 0 0 0-.12-.025zm-1.839 3.314a.5.5 0 0 0-.115.032 1 1 0 0 0-.12.064l-.001.002c-.088.045-.171.081-.256.121q-.21.098-.41.178c-.094.037-.19.077-.282.11-.53.187-1.026.3-1.537.425-.362.088-.73.182-1.127.314l-.07.02q-.103.024-.203.053a4 4 0 0 0-.256.084l-.002.002q-.125.045-.244.097l-.002.002q-.06.028-.117.057-.124.06-.238.129-.045.024-.088.05l-.002.002-.06.041q-.156.105-.292.223l-.031.026-.002.001a3 3 0 0 0-.164.163l-.002.002q-.159.169-.281.363l-.002.002a2.5 2.5 0 0 0-.21.41l-.001.002a2.9 2.9 0 0 0-.19.957 2.8 2.8 0 0 0 .758 2.008 2.8 2.8 0 0 0 1.951.886h.002a2.8 2.8 0 0 0 1.211-.265 3 3 0 0 0 .422-.194l.002-.002.055-.05a2.8 2.8 0 0 0 .578-.528 2.8 2.8 0 0 0 .43-.746c.053-.112.335-.701.619-1.543.284-.843.572-1.94.625-3.072.013-.185-.05-.322-.156-.387h-.002a.3.3 0 0 0-.19-.039zm6.527.002a.295.295 0 0 0-.316.186.5.5 0 0 0-.035.238q.017.425.072.838c.073.55.19 1.077.324 1.555.134.477.285.903.42 1.254.204.526.375.879.414.968q.108.277.25.51a2.8 2.8 0 0 0 .493.598q.092.083.19.156.098.074.2.137h.002a2.6 2.6 0 0 0 .426.21 2.8 2.8 0 0 0 .92.186 2.95 2.95 0 0 0 2.137-.812 2.6 2.6 0 0 0 .554-.784q.052-.113.094-.234a2.9 2.9 0 0 0 .154-1.076 2.8 2.8 0 0 0-.197-.965 2.55 2.55 0 0 0-.848-1.094 3.3 3.3 0 0 0-.886-.472 4 4 0 0 0-.528-.155h-.002c-.633-.204-1.2-.32-1.777-.47h-.002a13 13 0 0 1-.434-.121h-.002a9 9 0 0 1-.443-.145h-.002a8 8 0 0 1-.46-.184h-.003a8 8 0 0 1-.484-.228h-.002a.6.6 0 0 0-.115-.066h-.002a.4.4 0 0 0-.112-.03zm-3.26 1.047a.3.3 0 0 0-.107.018.37.37 0 0 0-.185.144.5.5 0 0 0-.065.127 3.6 3.6 0 0 1-.273.492c-.213.333-.477.673-.758 1.012q-.212.256-.428.506c-.285.333-.564.657-.799.96-.235.305-.425.59-.53.84-.133.33-.24.806-.24 1.19a3.37 3.37 0 0 0 .425 1.719 3.37 3.37 0 0 0 2.062 1.613 3.4 3.4 0 0 0 .885.117l.002.002a3.4 3.4 0 0 0 1.004-.152 3.4 3.4 0 0 0 1.392-.846 3.4 3.4 0 0 0 .93-1.748 3.5 3.5 0 0 0 .07-.705c0-.384-.106-.86-.238-1.19a3 3 0 0 0-.217-.404 9 9 0 0 0-.691-.91c-.134-.16-.276-.326-.418-.492q-.214-.249-.426-.502-.211-.254-.404-.508a8 8 0 0 1-.358-.502 4 4 0 0 1-.277-.49c-.08-.198-.21-.29-.355-.29z"/></svg>