<svg xmlns="http://www.w3.org/2000/svg" viewBox="0 0 24 24"><path d="M0 0v10.613L1.387 12 0 13.387V24h24V13.387L22.613 12 24 10.613V0zm1.504 1.506h20.99v8.383l-1.664 1.666a.63.63 0 0 0 0 .89l1.666 1.664v8.385H1.506V14.11l1.662-1.664a.63.63 0 0 0 0-.888L1.504 9.89zm13.539 2.596a.5.5 0 0 0-.283.068q-.091.068-.15.262l-2.046 6.127q-.037.049-.037.193 0 .223.27.223h.84q.115 0 .187-.01a.2.2 0 0 0 .115-.049.3.3 0 0 0 .079-.115q.033-.078.072-.203l.316-1.07h2.307l.326 1.05q.039.134.078.213a.4.4 0 0 0 .086.12.2.2 0 0 0 .115.054h.002q.067.01.172.01h.899q.27 0 .27-.223a1 1 0 0 0-.007-.092 1 1 0 0 0-.033-.101l-2.023-6.127q-.069-.204-.155-.268a.5.5 0 0 0-.28-.062zm-8.625.002q-.25 0-.332.072-.081.073-.082.293v6.138q0 .222.082.295t.332.073h2.219q1.571 0 2.148-1.342.136-.309.19-.623a5 5 0 0 0 .052-.795V6.91q.001-.55-.052-.867a2.2 2.2 0 0 0-.192-.607q-.336-.68-.916-1.004-.585-.329-1.47-.328zm1.17 1.35h.789q.55.002.791.323.24.322.24 1.067v1.388q0 .397-.053.663-.053.265-.173.43a.65.65 0 0 1-.319.23 1.5 1.5 0 0 1-.486.068h-.79zm7.959.241.789 2.596h-1.563zm-9.164 7.33q-.224 0-.291.082-.068.083-.069.344v.58q0 .259.069.34.068.083.29.084h2.546L6.109 18.47a.44.44 0 0 0-.105.27v.792q0 .22.082.293.083.072.334.072h4.25q.222 0 .289-.08.068-.083.068-.343v-.58q0-.26-.068-.342-.067-.082-.29-.082H7.962l2.853-4.014a.7.7 0 0 0 .088-.154.4.4 0 0 0 .02-.137v-.771q0-.222-.082-.293-.082-.073-.334-.075zm7.058 0q-.25.002-.332.075-.082.072-.082.293v6.138q0 .221.078.293.077.072.329.072h.656q.25 0 .332-.072t.082-.293v-3.648l1.908 3.656q.116.233.229.297.11.061.388.06h.6q.25 0 .332-.072.081-.072.082-.293v-6.138q0-.222-.082-.293-.082-.073-.332-.075h-.647q-.252 0-.334.073t-.082.295v3.638l-1.91-3.646q-.114-.232-.224-.295-.111-.063-.391-.065z"/></svg>