<svg xmlns="http://www.w3.org/2000/svg" viewBox="0 0 24 24"><path d="m16.861 0-1.127 10.584-1.923-8.924-6.034 1.266 1.924 8.922-8.695 1.822 1.535 7.127L17.832 24l3.498-7.744L22.994.636zm-5.47 13.61a.8.8 0 0 1 .322.066c.208.093.559.29.629.592.103.434.003.799-.313 1.084v.002c-.315.284-.732.258-1.174.113-.44-.145-.635-.672-.468-1.309.124-.473.71-.544 1.004-.549zm4.14.548c.447-.012.833.186 1.051.543s.108.75-.121 1.143h-.004c-.229.392-.83.445-1.422.16-.399-.193-.395-.684-.351-.983a.9.9 0 0 1 .193-.447c.142-.177.38-.408.654-.416z"/></svg>