<svg xmlns="http://www.w3.org/2000/svg" viewBox="0 0 24 24"><path d="M16.281 9.402c-.68.001-1.36.254-1.851.756q-.777.757-.778 1.81 0 1.2.852 1.94c1.028.931 2.664.88 3.625-.084 1.035-.954 1.028-2.695.002-3.66-.49-.51-1.17-.762-1.85-.762zm3.514 0v5.08h.789v-3.234l-.004-.018L24 14.58V9.527h-.78v3.202l-.003-.016zM8.58 9.406v5.076h.78V11.27l.005-.034 3.395 3.362v-5.07h-.78v3.16zM0 9.527v4.955h1.654s2.336-.193 2.336-2.496c0-2.374-2.342-2.459-2.342-2.459zm4.867 0v4.955h2.778v-.773H5.646v-1.473h1.557v-.771H5.646V10.3h2.012v-.774zm11.412.582c.492 0 .985.182 1.323.545.717.685.716 1.987-.008 2.676-.687.712-1.904.734-2.617.01q-.56-.534-.561-1.361 0-.789.54-1.325c.339-.362.831-.544 1.323-.545zm-15.5.135h.69s1.754-.032 1.754 1.77c0 1.647-1.592 1.732-1.592 1.732H.779z"/></svg>