<svg xmlns="http://www.w3.org/2000/svg" viewBox="0 0 24 24"><path d="M11.611 0A13.78 13.78 0 0 0 .06 11.258h2.35c1.634-7.184 7.886-8.654 9.202-8.922zm4.475.07v2.352a11.46 11.46 0 0 1 6.268 3.764l1.63-1.637A13.75 13.75 0 0 0 16.086.07zM11.61 2.844a10.98 10.98 0 0 0-8.691 8.414h1.625a9.4 9.4 0 0 1 7.066-6.803zm4.475.092v1.628a9.4 9.4 0 0 1 4.791 3.1l1.127-1.125a11.04 11.04 0 0 0-5.918-3.603zM9.404 8.252V19.08h4.223a6.3 6.3 0 0 0 2.328-.418 5.6 5.6 0 0 0 1.824-1.146 5 5 0 0 0 1.184-1.715q.418-.99.418-2.137v-.03a5.4 5.4 0 0 0-.418-2.126 5 5 0 0 0-.723-1.201 5 5 0 0 0-.46-.508 5.5 5.5 0 0 0-1.825-1.137 6.4 6.4 0 0 0-2.328-.41zm2.383 2.15h1.84a3.6 3.6 0 0 1 1.33.24 3 3 0 0 1 1.03.672 3 3 0 0 1 .511.739c.051.099.11.192.152.299.16.4.24.84.24 1.312v.033q0 .728-.24 1.315-.239.588-.664 1.02a2.8 2.8 0 0 1-1.029.665 3.7 3.7 0 0 1-1.33.233h-1.84zM.016 15.73A13.74 13.74 0 0 0 4.58 24l1.63-1.635a11.45 11.45 0 0 1-3.853-6.635zm2.85 0a10.95 10.95 0 0 0 3.667 6.254l.031.028 1.124-1.127a9.38 9.38 0 0 1-3.206-5.155z"/></svg>