<svg xmlns="http://www.w3.org/2000/svg" viewBox="0 0 24 24"><path d="M12.078.367c-2.126 0-2.704.007-2.724.037-.014.022-.038 1.764-.051 3.871a291 291 0 0 1-.04 3.903c-.007.038-.031.068-.052.068s-1.725-.554-3.787-1.232c-2.062-.68-3.76-1.222-3.774-1.207-.012.014-.395 1.21-.855 2.656-.637 2.013-.824 2.635-.791 2.648a1605 1605 0 0 0 3.594 1.2c3.149 1.05 3.548 1.192 3.548 1.248 0 .035-1.012 1.53-2.251 3.324-1.24 1.795-2.249 3.277-2.243 3.293.01.033 4.475 3.178 4.51 3.178.012 0 1.045-1.403 2.293-3.116 1.31-1.798 2.29-3.115 2.316-3.115.027.001.535.68 1.157 1.55l2.33 3.255c.672.938 1.233 1.705 1.248 1.705.038 0 4.468-3.263 4.48-3.299.005-.016-.958-1.447-2.142-3.18-1.203-1.76-2.15-3.174-2.145-3.203.007-.04.897-.351 3.647-1.283A335 335 0 0 0 24 11.416c.02-.02-1.597-5.281-1.637-5.326-.012-.013-1.633.521-3.603 1.19a251 251 0 0 1-3.631 1.216c-.068 0-.072-.057-.184-4.33-.068-2.601-.11-3.76-.133-3.775-.018-.013-1.249-.024-2.734-.024z"/></svg>