<svg xmlns="http://www.w3.org/2000/svg" viewBox="0 0 24 24"><path d="M12.555 9.977A2.023 2.023 0 1 0 14.58 12a2.023 2.023 0 0 0-2.023-2.023zm11.158.015a.29.29 0 0 0-.291.305v.004a.29.29 0 0 0 .29.29.29.29 0 0 0 .288-.29.29.29 0 0 0-.287-.309zM9.38 9.998c-1.124 0-2.026.884-2.026 1.99 0 1.118.877 1.985 2.006 1.985.32 0 .595-.063.932-.221v-.873c-.296.297-.56.416-.897.416-.747 0-1.277-.543-1.277-1.313 0-.73.548-1.304 1.244-1.304.354 0 .622.125.93.427v-.873a1.9 1.9 0 0 0-.912-.234zm-3.508.023c-.673 0-1.186.466-1.186 1.088 0 .524.239.792.936 1.043.291.103.439.171.514.217a.46.46 0 0 1 .222.395c0 .308-.245.537-.576.537-.354 0-.638-.178-.808-.508l-.48.46c.341.503.753.726 1.318.726.77 0 1.31-.514 1.31-1.25-.002-.603-.253-.875-1.096-1.184-.445-.165-.576-.275-.576-.48 0-.24.235-.422.555-.422.222 0 .405.091.598.308l.386-.508a1.67 1.67 0 0 0-1.117-.422zm17.838.041a.235.235 0 0 1 .23.239.235.235 0 0 1-.23.238.235.235 0 0 1-.232-.238.234.234 0 0 1 .232-.239zm-20.238.022v3.803h.742v-3.803zm14.867 0v3.803h2.103v-.645h-1.361v-1.025h1.313v-.645h-1.313v-.843h1.361v-.645zm2.596 0v3.803h.74v-1.528h.097l1.028 1.528h.912l-1.197-1.602c.558-.113.865-.495.865-1.078 0-.712-.49-1.123-1.346-1.123zm-20.934.002v3.803h1.082c.576 0 .992-.137 1.357-.44a1.91 1.91 0 0 0 .69-1.46c0-1.124-.84-1.903-2.041-1.903zm14.348 0 1.615 3.898h.398l1.643-3.898H17.2l-1.027 2.553-1.014-2.553zm9.238.049v.334h.08v-.131l.094.13h.097l-.111-.138c.047-.013.073-.048.072-.094q-.002-.1-.125-.101zm.082.06h.014q.058 0 .058.043 0 .044-.058.043h-.014zm-1.992.489h.226c.462 0 .713.192.713.562 0 .382-.25.589-.722.59h-.217zm-20.936.045h.2c.478 0 .768.084 1.013.306a1.31 1.31 0 0 1 0 1.906c-.233.21-.535.301-1.014.301H.742z"/></svg>