<svg xmlns="http://www.w3.org/2000/svg" viewBox="0 0 24 24"><path d="M8.563 2.855A19.7 19.7 0 0 0 3.678 4.37a.07.07 0 0 0-.033.027C.533 9.045-.32 13.581.1 18.06a.08.08 0 0 0 .03.054 19.9 19.9 0 0 0 5.993 3.03.08.08 0 0 0 .084-.028 14 14 0 0 0 1.227-1.994.076.076 0 0 0-.041-.105 13 13 0 0 1-1.873-.893.077.077 0 0 1-.008-.127q.191-.142.373-.29a.07.07 0 0 1 .076-.013c3.928 1.794 8.181 1.794 12.062 0a.07.07 0 0 1 .079.01q.181.151.373.293a.077.077 0 0 1-.008.127 12.3 12.3 0 0 1-1.873.893.077.077 0 0 0-.04.105q.543 1.048 1.225 1.994a.08.08 0 0 0 .084.028 19.8 19.8 0 0 0 6.002-3.03.08.08 0 0 0 .031-.054c.5-5.177-.838-9.674-3.548-13.66a.06.06 0 0 0-.032-.03 19.8 19.8 0 0 0-4.884-1.514.074.074 0 0 0-.078.038c-.211.375-.446.863-.61 1.248a18.3 18.3 0 0 0-5.486 0 13 13 0 0 0-.617-1.248.08.08 0 0 0-.079-.038zm-.543 7.64c1.21 0 2.177 1.093 2.158 2.417 0 1.333-.957 2.42-2.158 2.42-1.183 0-2.157-1.087-2.157-2.42s.955-2.418 2.157-2.418zm7.974 0c1.21 0 2.177 1.093 2.158 2.417 0 1.333-.947 2.42-2.158 2.42-1.182 0-2.156-1.087-2.156-2.42s.955-2.418 2.156-2.418z"/></svg>