<svg xmlns="http://www.w3.org/2000/svg" viewBox="0 0 24 24"><path d="M5.11 2.7c-.495-.003-.68.032-1.133.155C2.322 3.295.602 4.49.12 5.535c-.144.315-.163.887-.039 1.135.178.35.343.382 1.387.238.817-.11 1.084-.116 1.984-.054 1.106.076 1.595.214 1.883.523.172.179 3.75 9.033 3.812 9.418.11.694-.232 1.312-1.187 2.142-.797.687-.927.907-.824 1.381.15.666.506.983 1.111.983.508 0 2.097-.269 3.299-.551 3.476-.817 6.437-1.924 8.504-3.174 1.944-1.168 3.248-2.553 3.763-3.982.15-.433.179-.618.186-1.326 0-.975-.11-1.381-.535-1.96-.858-1.16-1.8-2.005-3.338-2.988-2.96-1.902-3.78-2.294-6.672-3.215C10.935 3.302 8.1 2.79 5.73 2.713c-.255-.007-.455-.013-.62-.014zm7.247 6.36.22.047c.122.028.487.152.81.276 1.477.563 2.823 1.468 4.554 3.068.838.777 1.023 1.073 1.057 1.733.076 1.23-.597 2.033-2.088 2.507-.708.22-2.19.535-2.252.473-.02-.014 0-.13.041-.254.048-.13.061-.446.047-.748-.027-.433-.095-.68-.363-1.318-.18-.433-.709-1.91-1.176-3.283z"/></svg>