<svg xmlns="http://www.w3.org/2000/svg" viewBox="0 0 24 24"><path d="M5.219.002a19 19 0 0 0-1.522.047v23.908c.973.068 1.954.054 2.924-.033q.428-1.409.86-2.817a14.4 14.4 0 0 0 4.19-1.36l3.122 1.505a14 14 0 0 0 2.076-1.58q-.954-1.245-1.91-2.488c.83-1.02 1.443-2.16 1.727-3.356q1.785-.345 3.57-.687a10.5 10.5 0 0 0-.031-2.287l-3.547-.682a8.26 8.26 0 0 0-1.725-3.356l1.916-2.488a13.5 13.5 0 0 0-2.043-1.598l-3.164 1.528A13.8 13.8 0 0 0 7.477 2.87Q7.042 1.458 6.609.045c-.463-.028-.926-.05-1.39-.043zm2.287 5.38.043.01v-.001c3.686.814 6.463 3.746 6.277 6.8-.093 2.897-2.681 5.657-6.242 6.397-.17-.227-.026-.78-.074-1.133z"/></svg>