<svg xmlns="http://www.w3.org/2000/svg" viewBox="0 0 24 24"><path d="M11.03 3.389a.185.185 0 0 0-.186.185v1.889c0 .102.082.183.185.183v.002h2.117a.186.186 0 0 0 .186-.185V3.574a.186.186 0 0 0-.186-.185zM5.136 6.105a.186.186 0 0 0-.188.184v1.889c0 .102.086.184.188.185h2.119a.186.186 0 0 0 .183-.185V6.289a.185.185 0 0 0-.183-.184zm2.963 0a.185.185 0 0 0-.186.184v1.889c0 .102.084.184.186.185h2.119a.186.186 0 0 0 .183-.185V6.289a.185.185 0 0 0-.183-.184zm2.93 0a.185.185 0 0 0-.186.184v1.889c0 .102.082.184.185.185h2.117a.187.187 0 0 0 .186-.185V6.289a.186.186 0 0 0-.186-.184zm7.708.596-.224.328a4.6 4.6 0 0 0-.614 1.43c-.23.97-.088 1.881.405 2.66-.595.332-1.55.413-1.744.42H.752a.75.75 0 0 0-.75.748 11.4 11.4 0 0 0 .691 4.063c.545 1.428 1.356 2.48 2.41 3.125 1.18.723 3.1 1.136 5.276 1.136a15.7 15.7 0 0 0 2.93-.265 12.3 12.3 0 0 0 3.822-1.39c.98-.568 1.86-1.288 2.61-2.136 1.251-1.418 1.999-2.997 2.554-4.4h.22c1.373 0 2.215-.55 2.68-1.01.31-.293.55-.649.707-1.045l.098-.289-.236-.185c-.065-.051-.673-.51-1.955-.51a6 6 0 0 0-1.01.086c-.248-1.7-1.654-2.53-1.717-2.567zm-16.52 2.12a.185.185 0 0 0-.186.185v1.887c0 .102.083.185.186.185h2.119a.185.185 0 0 0 .184-.185V9.006a.185.185 0 0 0-.184-.186zm2.92 0a.186.186 0 0 0-.188.185v1.887c0 .102.086.185.188.185h2.119a.185.185 0 0 0 .183-.185V9.006a.185.185 0 0 0-.183-.186zm2.963 0a.185.185 0 0 0-.186.185v1.887c0 .102.084.185.186.185h2.119a.185.185 0 0 0 .183-.185V9.006a.185.185 0 0 0-.183-.186zm2.93 0a.185.185 0 0 0-.186.185v1.887c0 .102.082.185.185.185h2.117a.186.186 0 0 0 .186-.185V9.006a.186.186 0 0 0-.186-.186zm2.952 0a.185.185 0 0 0-.183.185v1.887c0 .102.081.185.183.185h2.12a.186.186 0 0 0 .185-.185V9.006a.186.186 0 0 0-.185-.186z"/></svg>