<svg xmlns="http://www.w3.org/2000/svg" viewBox="0 0 24 24"><path d="M5.418 1.82a.36.36 0 0 0-.188.157l-.306.533h-.01L4.404 2a.354.354 0 0 0-.593.158l-.168.63-.64-.173a.357.357 0 0 0-.435.436l.172.638-.629.17a.356.356 0 0 0-.16.594l.512.51v.008l-.533.306a.356.356 0 0 0 0 .618l.533.306-.533.309a.356.356 0 0 0 0 .615l.533.307-.533.308a.355.355 0 0 0 0 .615l.533.307-.533.309a.355.355 0 0 0 0 .615l.533.309-.533.306a.356.356 0 0 0 0 .615l.533.309-.533.307a.356.356 0 0 0 0 .617l.533.306-.533.307a.355.355 0 0 0 0 .615l.533.309-.533.309a.355.355 0 0 0 0 .615l.533.306-.533.309a.355.355 0 0 0 0 .615l.533.309-.533.306a.356.356 0 0 0 0 .616l.533.306-.533.309a.355.355 0 0 0 0 .615l.533.309-.533.306a.355.355 0 0 0 0 .616l.533.308a2.46 2.46 0 0 1-2.131-1.23A2.47 2.47 0 0 0 0 19.74c0 1.35 1.113 2.46 2.463 2.461h12.32a2.466 2.466 0 0 0 2.37-1.853l.077.007a.62.62 0 0 0 .616-.615.62.62 0 0 0-.616-.615q-.04.002-.078.008l-.013-.057a.62.62 0 0 0 .377-.566.62.62 0 0 0-.616-.615.6.6 0 0 0-.37.126l-.042-.04a.6.6 0 0 0 .125-.37c0-.67-.92-.857-1.181-.24l-.055-.014q.006-.04.008-.08a.62.62 0 0 0-.615-.615.62.62 0 0 0-.616.615h-.095a.617.617 0 0 0-1.034 0h-.716v-2.46h2.46q.174-.001.33-.047a.307.307 0 1 0 .53-.303l.02-.022c.051.04.117.065.187.065h.002c.337 0 .426-.464.115-.592l.008-.027c.013 0 .026.004.039.004a.31.31 0 0 0 .309-.31.31.31 0 0 0-.309-.308l-.04.004-.007-.025c.327-.13-.028-.746-.305-.53l-.02-.02a.3.3 0 0 0 .063-.185c-.01-.326-.454-.415-.591-.119a1.2 1.2 0 0 0-.32-.047h-2.143a2.47 2.47 0 0 1 2.133-1.23h7.384v-1.23l-8.619-.54a1.315 1.315 0 0 1-1.228-1.308c0-.688.541-1.265 1.228-1.307l8.62-.539v-1.23A2.473 2.473 0 0 0 19.69 2.51H8.615l-.306-.533a.356.356 0 0 0-.618 0l-.306.533-.309-.533a.355.355 0 0 0-.613 0l-.309.533-.308-.533a.355.355 0 0 0-.428-.157zm14.273 2.23a.31.31 0 0 1 .307.306.31.31 0 0 1-.307.31h-.002a.31.31 0 0 1-.306-.31.31.31 0 0 1 .308-.306zm-2.46.152a.31.31 0 0 1 .308.309.31.31 0 0 1-.309.306.31.31 0 0 1-.306-.306.31.31 0 0 1 .306-.309zm-11.077.461a1.54 1.54 0 0 1 1.537 1.54.31.31 0 0 1-.306.308.31.31 0 0 1-.309-.309c-.01-.532-.377-.91-.926-.922-.528-.01-.889.432-.92.922-.01.168-.137.308-.306.309a.31.31 0 0 1-.309-.309c0-.848.69-1.539 1.54-1.539zm15.996 2.6c-.38.013-.56.392-.718.728-.166.35-.294.579-.504.572-.233-.008-.366-.27-.506-.548-.162-.32-.348-.682-.735-.668-.375.013-.555.342-.714.634-.17.311-.286.502-.508.493-.237-.008-.364-.222-.51-.47-.163-.274-.35-.584-.73-.573-.368.013-.55.293-.71.54-.168.263-.285.422-.511.413-.243-.01-.369-.186-.514-.39-.163-.232-.347-.491-.726-.48-.36.014-.541.243-.701.446-.152.192-.27.345-.52.336h-.006a.126.126 0 0 0-.123.123c0 .066.053.12.12.121.37.012.56-.22.724-.428.145-.184.27-.342.515-.351.237-.01.348.138.516.375.16.226.341.48.705.494.382.013.566-.273.729-.525.145-.226.271-.42.511-.428.22-.008.34.166.51.453.16.27.34.577.711.59.385.014.57-.322.733-.62.14-.256.273-.5.507-.507.221-.005.336.194.506.531.16.314.339.672.717.686h.021c.377 0 .555-.378.713-.713.14-.297.274-.576.502-.588v-.246zm.579 4.963a.3.3 0 0 0-.245.177 1.2 1.2 0 0 0-.32-.047h-.01v2.461q.172 0 .33-.046a.308.308 0 1 0 .53-.303l.02-.022c.051.04.117.065.187.065a.31.31 0 0 0 .306-.309.31.31 0 0 0-.19-.283l.009-.027.039.004a.31.31 0 0 0 .306-.31.31.31 0 0 0-.306-.308l-.04.004-.007-.025a.31.31 0 0 0-.117-.594.3.3 0 0 0-.188.065l-.02-.022a.3.3 0 0 0 .063-.184.307.307 0 0 0-.347-.296zm-6.18 1.261a.55.55 0 0 1-.012.246h3.774a.124.124 0 0 0 .123-.123.124.124 0 0 0-.123-.123zm-.453 1.207a.6.6 0 0 1-.164.057.6.6 0 0 1-.073.19h4.452a.124.124 0 0 0 .123-.124.124.124 0 0 0-.123-.123zm-1.946 1.233a.124.124 0 0 0-.123.123.126.126 0 0 0 .123.123h6.16a.124.124 0 0 0 .124-.123.124.124 0 0 0-.123-.123zm8.004 1.07v2.744a2.473 2.473 0 0 1-2.46 2.461h1.23a2.466 2.466 0 0 0 2.383-1.853l.078.007a.62.62 0 0 0 .615-.615.62.62 0 0 0-.615-.615q-.04.002-.078.008l-.014-.057a.62.62 0 0 0 .377-.566.62.62 0 0 0-.615-.615.6.6 0 0 0-.371.126l-.041-.04a.6.6 0 0 0 .125-.37.623.623 0 0 0-.614-.615zm-5.424.158a.9.9 0 0 1 .106.246h3.475a.124.124 0 0 0 .123-.123.124.124 0 0 0-.123-.123zm1.028 1.233a1 1 0 0 1 0 .246h2.553a.124.124 0 0 0 .123-.123.124.124 0 0 0-.123-.123zm.33 1.23a1 1 0 0 1 0 .246h2.223a.124.124 0 0 0 .123-.123.124.124 0 0 0-.123-.123z"/></svg>