<svg xmlns="http://www.w3.org/2000/svg" viewBox="0 0 24 24"><path d="M12 0a.8.8 0 0 0-.377.086l-9.4 5.123 10.53 6.13a.36.36 0 0 1 .173.296v8.943c0 .112-.082.24-.18.293l-.566.317c-.171.062-.257.043-.362 0l-.568-.317a.36.36 0 0 1-.176-.293v-7.973a.22.22 0 0 0-.094-.156l-9.279-5.4v10.578c0 .236.167.528.371.648l9.557 5.635c.102.06.237.091.371.09a.75.75 0 0 0 .371-.09l9.557-5.635a.84.84 0 0 0 .37-.648V7.047L16.01 10.71a.36.36 0 0 1-.342-.008l-.559-.33a.43.43 0 0 1-.181-.312l-.016-.65a.36.36 0 0 1 .166-.3l6.7-3.902L12.376.086A.8.8 0 0 0 12 0z"/></svg>