<svg xmlns="http://www.w3.org/2000/svg" viewBox="0 0 24 24"><path d="M12 0C5.385 0 0 5.385 0 12s5.385 12 12 12 12-5.385 12-12S18.615 0 12 0zm0 1.764c2.605 0 4.985.976 6.795 2.586-.183.262-1.728 2.338-5.373 3.703a55 55 0 0 0-3.822-6v-.004c.77-.185 1.575-.285 2.4-.285zm-4.357.974c.27.37 2.1 2.912 3.798 5.93-4.794 1.274-9.016 1.254-9.476 1.246l.002-.006a10.28 10.28 0 0 1 5.676-7.17zm12.293 2.797.005.006a10.15 10.15 0 0 1 2.311 6.38c-.34-.07-3.73-.76-7.14-.33-.07-.17-.141-.35-.221-.53a28 28 0 0 0-.68-1.487C18 8.027 19.718 5.825 19.936 5.535zm-7.647 4.71c.292.572.572 1.154.832 1.74q-.203.053-.404.12c-5.283 1.709-8.094 6.355-8.33 6.762a10.22 10.22 0 0 1-2.635-6.855l.004-.313c.45.01 5.413.075 10.533-1.455zm5.752 2.794c2.165.025 3.816.521 4.078.604h.004a10.28 10.28 0 0 1-4.394 6.869c-.105-.624-.653-3.625-1.993-7.309a13.6 13.6 0 0 1 2.305-.164zm-4.227.64c1.44 3.739 2.039 6.87 2.192 7.77l-.008.002c-1.23.524-2.58.815-4 .815-2.37 0-4.559-.808-6.289-2.166.18-.375 2.25-4.386 8.039-6.4z"/></svg>