<svg xmlns="http://www.w3.org/2000/svg" viewBox="0 0 24 24"><path d="M2.207 0v15.85l9.465-7.371a.87.87 0 0 0 .328-.41.76.76 0 0 0 .201.327c.687.657 3.8 3.614 4.635 6.143a4.8 4.8 0 0 1 .266 1.527 3.4 3.4 0 0 1-.266 1.272c-.378.962-1.223 1.972-2.084 2.865-.368.375-1.97 1.912-2.477 2.418a.9.9 0 0 0-.232.424 6 6 0 0 0-.04.656V24l9.462-7.371a.76.76 0 0 0 .328-.555.66.66 0 0 0-.234-.476c-.684-.657-3.798-3.613-4.635-6.143a5 5 0 0 1-.262-1.53 3.5 3.5 0 0 1 .262-1.282c.38-.986 1.229-2.007 2.09-2.891a273 273 0 0 1 2.472-2.436.9.9 0 0 0 .235-.43 4.4 4.4 0 0 0 .043-.591V0l-9.461 7.371a.86.86 0 0 0-.328.41.87.87 0 0 0-.313-.41zm.436.8q.007-.008.021 0c.384.3.93.747 1.666 1.315A22 22 0 0 1 6.543 4.11c1.166 1.203 2.06 2.51 2.06 3.805 0 1.294-.894 2.602-2.06 3.805a22 22 0 0 1-2.213 2.008c-.736.57-1.287 1.023-1.672 1.312-.033.026-.033-.055-.033-.1s0-.116.023-.14c.81-.722 3.99-3.159 4.926-5.479a3.44 3.44 0 0 0 0-2.804C6.651 4.195 3.47 1.76 2.648 1.036c-.023-.02-.023-.11-.023-.14 0-.022 0-.08.018-.095zm18.224.475c.01.003.012.027.01.04a.26.26 0 0 1-.063.216 3 3 0 0 1-.25.223c-1.297 1.094-3.392 2.977-4.1 4.758a3.5 3.5 0 0 0 0 2.83 10.7 10.7 0 0 0 1.186 2.176c.214.285.31.407.448.601a.74.74 0 0 1 .125.344h-.028a1 1 0 0 1-.138-.115 10 10 0 0 1-.604-.59c-1.182-1.186-2.03-2.563-2.03-3.844s.89-2.578 2.06-3.768a24 24 0 0 1 2.214-1.972c.3-.237.555-.44.801-.623l.356-.27q.008-.007.013-.006zm-8.4 6.74h1.57c.598 0 .824.598 1.143 1.212a13 13 0 0 0 1.715 2.271.6.6 0 0 1 .119.281c.016.06 0 .079-.063.03-1.938-1.41-4.015-3.17-4.373-3.465-.108-.09-.358-.328-.111-.328zm-2.588.016H11.5c.246 0 .01.22-.102.313-.949.657-2.38 1.852-4.27 3.344-.034.025-.03-.085-.023-.118a.5.5 0 0 1 .057-.162 10.6 10.6 0 0 0 1.73-2.351c.33-.615.402-1.026.987-1.026zm4.934 2.727a.33.33 0 0 1 .177.07c.02.02.267.276.4.424.274.286.546.613.83.941 1.036 1.216 1.946 2.553 1.946 3.864 0 1.195-.848 2.376-1.97 3.486-.284.28-.802.772-1.475 1.363-.092.08-.162.135-.159.073.005-.063 0-.199.053-.245 1.143-1.126 2.28-2.374 2.69-3.373a3.5 3.5 0 0 0 .299-1.314 4.4 4.4 0 0 0-.247-1.432c-.377-1.074-1.21-2.24-2.078-3.252a34 34 0 0 1-.466-.552c-.024-.033-.024-.056 0-.053zm4.607 5.4h1.844c.279 0 .01.263-.116.352-1.077.759-2.686 2.072-4.841 3.777-.06.046-.05-.092-.047-.135a.3.3 0 0 1 .037-.14 12.2 12.2 0 0 0 1.986-2.694c.365-.696.457-1.16 1.137-1.16z"/></svg>