<svg xmlns="http://www.w3.org/2000/svg" viewBox="0 0 24 24"><path d="M7.316.832c-1.504.055-2.573.58-3.394 1.385C3.496 2.636 2.55 3.692 2.73 5.6a3.27 3.27 0 0 0 .555 1.57l.012.002a2.5 2.5 0 0 1 .088-1.137l.492-1.49.627 1.443c.194.45.605.774 1.094 1.069-.05-.71.078-1.51.338-2.063-.071-1.167.76-2.047 1.757-2.047 1.705 0 2.167 2.001 1.36 3.414.367.521.912 1.005 1.396 1.426a21 21 0 0 1 .49.436c.047.044.086.087.131.13.74-.96 1.276-2.31 1.276-3.322 0-2.097-1.414-4.041-4.358-4.193a8 8 0 0 0-.672-.006zm-.648 4.102c-.412.425-.663 1.97-.326 2.808.628.361 1.168.98 1.252 1.53C7.004 7.994 4.618 7.75 3.95 6.21c-.18.549-.078 1.24.242 1.693 0 0-.608-.22-1.832-.174.332.138 1.224.877 1.11 1.311h.002c-.116.441-1.836.943-2.676 1.752 1.244-.247 1.866-.042 2.068.455.144.35-.025.848-.135 1.432.42-.444 1.85-1.385 2.899-1.567-.243-.076-.874-.19-1.12-.19.767-.87 2.438-1.152 3.352-.927-.599-.03-1.772.27-2.24.639a7.5 7.5 0 0 1 1.117.273c-.557.208-1.27.842-1.508 1.52.735-.488 2.197-.36 2.426.648.154.693-.344 1.31-.592 1.406.202.036.728-.02.928-.117-.07.283-.52.752-.795.836.767 0 1.866-.473 2.147-1.16 0 0-.452.144-.662-.059-.212-.203.082-1.078.082-1.078s-.302.382-.532.162c-.248-.24.099-1.04.23-1.228-.237-.096-.917-.17-1.204-.14.843-.295 2.73-.451 2.93-.094.157.29-.243.859-.243.859.326-.023 1.291-.017 1.631.38.344.404.143.93.143.93.756-.348 1.43-1.517 1.265-2.62-.083.227-.423.596-.76.671.055-.365-.264-.578-.494-.636.142-.708-.156-1.574-1.207-2.553-.89-.832-2.559-1.993-2.482-3.48-.261.318-.445 1.248-.205 1.798.728.828 2.264 1.703 2.664 3.086-.683-1.615-3.977-2.885-3.832-5.105zm12.56 3.603c-1.46.058-2.523 1.712-2.966 1.506-.262-.12.394-.922.394-.922-1.336.746-2.454 2.328-2.687 3.291 1.229-1.448 3.614-2.485 5.166-2.266-2.63.122-4.89 2.276-6.05 3.79.208.066.42.16.626.32.244.188.602.47.986.775.306-.65 1.01-2.004 2.098-3.205.98-1.08 2.69-1.183 3.588-.525.577-.502 2.569-.975 3.617-.688-.639-.668-1.996-1.562-3.496-1.562-1.237 0-1.936.581-2.113.318-.228-.336.838-.832.838-.832zM9.196 9.824a1.84 1.84 0 0 1 1.098 1.08c-.707 0-.932-.517-1.098-1.08zM2.23 11.37c-.55.405-2.053 1.685-2.23 3.566 0 0 .292-.395.545-.487.167-.062.312.017.152.487-.06.184-1.51 3.96 1.34 6.57 0 0-.313-.768-.125-1 .092-.114.213-.123.377.08.123.156.25.306.438.51.187.205.446.448.728.658a6 6 0 0 0 3.33 1.035c3.526 0 5.395-2.34 6.43-4.305a2 2 0 0 0-.154-.148 57 57 0 0 0-1.887-1.516c-.667 1.1-2.088 2.532-3.53 2.532-2.65 0-3.978-3.61-1.005-6.565a1.4 1.4 0 0 0-.4-.06c-.256 0-.505.063-.669.173l-1.168.778.264-1.434a2 2 0 0 1 .094-.224c-.675.322-1.34.781-1.588 1.044L2.02 14.28l.123-1.703q.04-.2.08-.385c.06-.275.134-.616.088-.73a.2.2 0 0 0-.082-.092zm6.835.541c-.178.303-.19.83.13 1.186.315.352.844.57 1.062.957.282.5-.195 1.195 1.06 2.142.6.452 1.53 1.195 2.137 1.707 1.021.862.477 1.94.611 2.88.155 1.095 1.072 1.705 1.682 1.859-.526-.46-.725-1.62.014-2.33.038.916.726 2.349 2.293 2.752 1.667.427 3.438-.482 3.806-1.122-.643.28-1.854-.022-2.353-.472 1.956.267 3.685-1.037 3.685-2.711 0-1.633-1.644-2.899-3.517-2.73.533.087 1.281.633 1.281 1.415 0 1.275-1.65 1.667-2.564 1.47.97-.649.84-2.513-.327-3.179.395 1.045-.79 2.082-1.943 1.172-.64-.506-2.121-1.693-2.783-2.205-.66-.51-1.434-.214-1.74-.437-.348-.254-.127-.97-.602-1.237-.399-.222-.789-.098-1.252-.246-.42-.133-.733-.447-.68-.87z"/></svg>