<svg xmlns="http://www.w3.org/2000/svg" viewBox="0 0 24 24"><path d="M10.324.402c-.242-.013-1.004.34-1.4.543-.897.472-1.14.633-1.807 1.541-.766 1.046-1.084 1.639-1.213 2.182-.383 1.392-.533 2.089-1.148 2.934-.457.344-.545.791-.91 1.304-.234.327-.863 1.43-.864 1.518-.003.163-.05.2-.539.183-.526-.018-.737.04-1.004.3-.24.231-.288.24-.289 1.054 0 .98.23 1.09.575 1.545C1.207 14.799.098 18.578 0 20.885c0 .195.015.707.13 1.742.138.296.339.513.589.67.822.062 1.76.303 3.388.303 1.315 0 3.858-.58 4.061-.635.693-.185 1.77-.76 2.51-1.188.174-.1 1.394-.542 1.855-.89.24-.181 1.463-.871 1.889-1.205.876-.687.96-.837 1.717-1.944.345-.505.496-.644.828-1.455l.01-.703c.262.09 2.184.61 2.41.744.367.22.011.449-.184.678-.14.165.093.321.225.201.192-.174.78-.564.744-.76 0-.134-.315-.328-.807-.572-.446-.22-.416-.217-.256-.264.905-.3 1.406-.437 2.032-.8 1.677-1.042 2.555-1.975 2.761-2.926.198-.876.09-1.521-.273-2.295-.183-.683-.513-.934-1.24-1.236-.848-.353-2.396-.511-3.012-.301-.517.175-1.777.737-2.416 1.056-.346.173-.634.307-.639.297-.156-.254-.32-.505-.463-.789-.252-.5-.369-.66-.623-.777-.133-.062-.384-.175-.683-.385-.496-.344-1.164-.821-2.725-1.244.892-1.545.904-1.739 1.04-2.586.124-.629.167-1.686.038-1.97-.117-.258-.617-.8-.955-.962-.66-.315-1.075-.287-1.627-.287zm.024.563v.002c.172-.001.37.02.623.068.44.085.727.2 1.17.47l.3.183.065.525c.069.564.047.986-.072 1.348-.04.124-.134.425-.207.668-.145.484-.5 1.015-.637 1.236-.03.05-.125-.022-.166.08-.184.466-.4.486-.76.52-.113.01-.89-.047-1.687-.07-.963.027-1.337-.221-2.518.257-.253.096.527-1.41.61-1.56.21-.38 1.328-1.66 1.6-1.762.23-.086.455-.34.655-.532.33-.315.419-.349.766-.416.324-.063 1.066-.29 1.43-.037.225.178.38.539.345.823-.069.566-.148.79-.496 1.308-.824 1.227-.806 1.253-.7 1.315.106.06.085.093.067.16-.056.206.008.162.162.11.315-.11.803-.996 1.12-2 .192-.612.19-.337.16-1.122-.017-.465-.03-.414-.184-.664-.227-.37-.449-.49-1.219-.49-.83-.002-1.142.033-1.675.515-.603.544-1.084.77-1.95 2.053-.427.461-.919 1.616-1.148 2.428-.029-.005-.044.02-.016-.365.043-.588.184-.99.79-2.227.428-.874.58-1.132.76-1.299.612-.57 1.661-1.217 2.341-1.445.153-.052.299-.078.47-.08zM8.273 6.643c1.119-.027 2.336.076 3.36.34 1.406.54 2.34.62 3.441 1.654.68 1.108.9 2.22 1.246 3.435.343 1.06.332 2.739.323 2.971-.414-.157-.827-.198-1.293-.215-.06-.542-1.138-.635-1.532-.824-.512-.228-1.293-.364-2.298-.527-.96-.22-1.754-.111-2.723-.125-.11.1-.19.185-.277.316-.15-.08-.355-.275-.635-.264-.105 0-.117-.019-.08-.281.024-.168.102-.305.017-.383-.22-.204-.167-.216-.2-.314-1.108-.64-3.03-1.612-4.02-1.711.34-.476.194-.52.302-.692.272-.429.968-1.342 1.123-1.693 0-.229.723-.985 1.403-1.504a11 11 0 0 1 1.843-.183zm11.88 1.845c1.604.041 2.166.237 2.697.778.524.55.697.875.697 1.308 0 .354-.277 1.345-.461 1.649-.7 1.152-2.267 2.403-3.602 2.879-.316.11-.477.133-1.095.148-.403.035-.91-.044-1.297-.13.22-2.562.027-2.73-.197-3.77.09-.22.504-.48.421-.612.776-.49 1.324-1.04 1.932-1.228.408-.15.494-.16 1.344-.186.802-.023.944-.015 1.224.074.597.19 1.264.746 1.264 1.053 0 .193.046.243.139.242.22-.002.15-.325.037-.558-.378-.704-.968-.955-1.533-1.082a8 8 0 0 0-1.014-.117c-.591-.027-.84-.007-1.143.058-.48.102-.898.24-1.302.598-.31.275-.857.59-1.305.804-.106.015-.174-.17-.256-.267 1.053-.807 2.03-1.522 3.45-1.64zM2.718 10.961c-.304.488-.517.84-.526 1.225-.12.3-.226.596-.379.908-.373-.376-.254-1.177-.093-1.518.357-.69.369-.507.998-.615zm.797.11c1.097.335 2.248.64 3.699 1.534.278.167.13.502.023 1.036a1.68 1.68 0 0 1-1.133.605c.431-.434.879-1.194.403-1.713-.118-.156-.152-.18-.36-.166-.284.02-.287-.006-.439.389-.327.385-.493 1.292-.383 1.576-.566-.033-2.076-.152-2.949-.709.094-.243.334-.595.357-.914.12-.241.622-1.666.782-1.639zm2.699 1.708h.002c.167.282-.193 1.136-.418 1.242-.165-.602.167-1.17.416-1.242zm3.535.832c.437 0 1.24.091 2.21.252.837.138.996.177 1.716.414.854.264.797.365 1.086.786.063.09.156.366.205.609.109.533-.402.942-1.44 1.156-.354.073-.673.098-1.23.094-.88-.007-1.19-.043-1.686-.2-.736-.23-1.112-.556-1.517-1.234-.22-.37-.273-.412-.242-.683.064-.562.182-.928.345-1.065.134-.113.203-.129.553-.129zm-1.984.084c.1-.003.586.225.683.291-.142.385-.009 1.323.383 1.778.092.143.318.464.535.68.684.682 1.13.793 2.656.794 1.278.002 1.65-.067 2.286-.271.589-.188.767-.429.836-.596.17-.402.251-.816.21-1.246l1.288.365c-.106.866-.587 1.376-.944 1.822-.266.428-.815 1.23-.97 1.364-.747.643-1.436 1.094-2.928 1.935-.44.248-1.618.707-1.924.86-.312.156-1.418.81-1.57.855a9.5 9.5 0 0 1-1.553.315c-.4.047-1.822.261-2.727.298-.66.014-.839-.053-1.656-.029-.438-.084-1.396-.3-1.396-.3-.285-.458-.36-.808-.44-1.337.664.778 1.064 1.041 1.596 1.041.479 0 .725-.18.92-.18.123 0 .454-.234.437-.386a1.03 1.03 0 0 0-.254-.603c-.23-.147-1.6-.692-1.832-.692-.64 0-.78.05-.85.18.396-2.142.91-4.615 1.67-6.62 1.175.515 3.098.886 4.044.567 1.452-.51 1.12-.685 1.5-.885zm3.816.15c-.168 0-.584.458-.742.815-.16.36-.203.913-.084 1.057.098.118.503.12.707-.004.398-.243.779-1.097.682-1.54-.035-.16-.331-.327-.563-.327zm.027.391c.148.178-.04.659-.213.85-.204.216-.405.248-.347.059.14-.353.455-.915.56-.909zm-10.427 6.77c.343-.037 1.243.433 1.498.457.156.049.352.27.314.33-.638.036-.998-.01-1.05-.014-.218-.017-.917-.319-.897-.656.005-.074.055-.109.135-.117z"/></svg>