<svg xmlns="http://www.w3.org/2000/svg" viewBox="0 0 24 24"><path d="M2.227 5.256 0 15.893h11.352l-.625 2.851h10.875L24 7.47h-8.658l.463-2.213zM13.143 6.71h.896l-1.64 7.727h-.852l.158-.754h-.082a2.2 2.2 0 0 1-.76.623 2.2 2.2 0 0 1-.984.228q-.415 0-.78-.156a1.9 1.9 0 0 1-.638-.45 2.1 2.1 0 0 1-.436-.708 2.6 2.6 0 0 1-.158-.928q0-.498.1-.953a4 4 0 0 1 .285-.842q.185-.387.443-.7a3 3 0 0 1 .576-.532 2.5 2.5 0 0 1 1.45-.457 2 2 0 0 1 .566.082 1.8 1.8 0 0 1 .488.228 1.6 1.6 0 0 1 .375.354 1.4 1.4 0 0 1 .229.455h.082zM5.258 8.809a2.2 2.2 0 0 1 .808.148 1.95 1.95 0 0 1 .67.434 2.1 2.1 0 0 1 .457.7 2.5 2.5 0 0 1 .168.954 6 6 0 0 1-.02.42l-.02.224a2 2 0 0 1-.026.188H3.309l-.008.139q-.002.065-.002.136a1.9 1.9 0 0 0 .123.727 1.4 1.4 0 0 0 .32.49 1.2 1.2 0 0 0 .444.274q.246.086.498.086.549-.001.882-.192a1.3 1.3 0 0 0 .508-.512h.938a1.8 1.8 0 0 1-.287.594q-.199.278-.504.48a2.6 2.6 0 0 1-.71.319 3.2 3.2 0 0 1-.884.115q-.462 0-.871-.15a2.01 2.01 0 0 1-1.2-1.172 2.6 2.6 0 0 1-.175-.99 4.4 4.4 0 0 1 .21-1.395q.215-.626.595-1.076a2.6 2.6 0 0 1 .91-.695 2.7 2.7 0 0 1 1.162-.246zm9.36.113h2.025l1.156 2.705h.107l2.184-2.705h2.002l-3.578 4.125 1.924 4.242h-1.989l-1.299-2.852h-.162l-2.406 2.852h-1.977l3.749-4.44zm-9.44.666q-.319 0-.596.113a1.7 1.7 0 0 0-.504.32q-.225.208-.389.499a2.8 2.8 0 0 0-.261.642h3a3 3 0 0 0 .01-.23q0-.273-.079-.516a1.2 1.2 0 0 0-.24-.428 1.1 1.1 0 0 0-.392-.293 1.3 1.3 0 0 0-.55-.107zm5.61.016q-.428 0-.792.189a1.95 1.95 0 0 0-.63.527 2.6 2.6 0 0 0-.42.809 3.3 3.3 0 0 0-.155 1.03q0 .348.1.64t.28.5.43.322q.253.116.561.117.431 0 .799-.203.367-.203.639-.555a2.7 2.7 0 0 0 .425-.826q.154-.474.155-1.023-.001-.355-.1-.637a1.4 1.4 0 0 0-.277-.478 1.2 1.2 0 0 0-.436-.305 1.5 1.5 0 0 0-.58-.107z"/></svg>