<svg xmlns="http://www.w3.org/2000/svg" viewBox="0 0 24 24"><path d="m14.412 9.107-.441.006q-.026 0-.028.033l.004 1.62q0 .027.033.029h.444q.025 0 .025-.033l-.004-1.621a.035.035 0 0 0-.033-.034zm-2.2 1.3a.06.06 0 0 0-.081.02l-.457.78a.06.06 0 0 0 .02.084l2.01 1.178v2.363c0 .033.027.06.06.06h.888a.06.06 0 0 0 .06-.06v-2.375l2.009-1.16a.06.06 0 0 0 .021-.082l-.447-.781a.06.06 0 0 0-.082-.022l-2.014 1.162zm-6.888.312c-1.14 0-1.978.839-1.978 1.914v.01c0 1.114.856 1.906 2.002 1.906a2.5 2.5 0 0 0 1.572-.545.1.1 0 0 0 .025-.06v-1.546c.005-.042-.025-.075-.068-.076H5.26v.748h.724v.442q.002.009-.004.01c-.153.098-.338.148-.584.148-.584 0-1-.426-1-1.02v-.011c0-.562.41-1.01.94-1.01.338 0 .584.11.83.3.032.028.082.023.104-.01l.501-.607a.08.08 0 0 0-.01-.109c-.376-.305-.82-.484-1.437-.484zm2.278.07a.075.075 0 0 0-.077.076v3.526c0 .044.033.076.077.076h.855a.075.075 0 0 0 .078-.076v-1.944l1.55 1.992a.1.1 0 0 0 .06.028h.78a.075.075 0 0 0 .077-.076v-3.526c-.005-.038-.044-.076-.082-.076h-.857a.075.075 0 0 0-.077.076v1.865l-1.49-1.914a.1.1 0 0 0-.06-.027zm9.818 0a.075.075 0 0 0-.076.076v.742c0 .044.032.077.076.077h1.025v2.712c0 .043.032.077.076.077h.87a.075.075 0 0 0 .076-.077v-2.703a.01.01 0 0 1 .01-.01h1.015a.075.075 0 0 0 .076-.076v-.742a.08.08 0 0 0-.076-.076zm-17.344.006a.075.075 0 0 0-.076.074v3.527c0 .043.033.077.076.077H2.91a.075.075 0 0 0 .076-.077v-.714a.08.08 0 0 0-.076-.078h-1.9v-.584h1.685a.075.075 0 0 0 .076-.077v-.648a.075.075 0 0 0-.076-.076H1.01v-.557h1.87a.075.075 0 0 0 .077-.076v-.717a.075.075 0 0 0-.076-.074zm21.016 0a.075.075 0 0 0-.076.074v3.527c0 .043.033.077.076.077h2.832a.075.075 0 0 0 .076-.077v-.714a.075.075 0 0 0-.076-.078h-1.9v-.584h1.693a.075.075 0 0 0 .076-.077v-.648a.075.075 0 0 0-.076-.076h-1.692v-.557h1.871a.075.075 0 0 0 .077-.076v-.717a.075.075 0 0 0-.077-.074zm-5.563 1.896q-.01.002-.015.012l-.217.389c-.005.017-.006.033.01.039l1.414.789c.017.006.033.006.039-.01l.217-.389c.01-.01.006-.03-.01-.037l-1.414-.79zm-2.687.079a.1.1 0 0 0-.051.005l-1.342.797c-.027.016-.037.053-.021.086l.19.328c.015.028.055.039.087.022l1.344-.797c.027-.016.037-.055.021-.088l-.191-.326a.06.06 0 0 0-.037-.027z"/></svg>