<svg xmlns="http://www.w3.org/2000/svg" viewBox="0 0 24 24"><path d="M8.258 0a4.104 4.104 0 0 0-4.106 4.102v3.183a4.09 4.09 0 0 0 2.416 3.738v.588a4.1 4.1 0 0 0-2.416 3.739v4.545A4.104 4.104 0 0 0 8.256 24h7.486a4.104 4.104 0 0 0 4.106-4.104v-4.552a4.1 4.1 0 0 0-2.416-3.739v-.587a4.1 4.1 0 0 0 2.416-3.739V4.105A4.104 4.104 0 0 0 15.744 0zm1.674 3.643h4.132c.82 0 1.483.663 1.483 1.482v1.99c0 .82-.664 1.483-1.483 1.483H9.93a1.48 1.48 0 0 1-1.483-1.483l.004-1.988c0-.818.663-1.483 1.48-1.484zm-.002 10.98h4.134c.82 0 1.483.663 1.483 1.482l.004 2.752c0 .818-.664 1.483-1.483 1.483H9.93a1.48 1.48 0 0 1-1.483-1.483v-2.752c0-.819.665-1.482 1.483-1.482z"/></svg>