<svg xmlns="http://www.w3.org/2000/svg" viewBox="0 0 24 24"><path d="M17.646 4.797c-1.347 0-3.024 1.982-4.693 5.402l.117-.04c-3.513 1.288-7.465 3.532-11.22 6.558A45 45 0 0 0 0 18.287h.363c.108-.083.208-.175.315-.266 5.99-4.816 12.532-7.615 16.976-7.615q.224.002.446.016c-.067 2.186-.587 5.088-1.438 8.103.933.058 1.752.29 2.438.678.933-5.362 1.098-10.169.248-12.672-.39-1.148-.959-1.734-1.694-1.734zm-.76 1.982h.075c.446.041.777.47.967 1.28q.094.4.138.892c-1.317.112-2.797.45-4.375.985l.121-.043c1.164-1.957 2.273-3.114 3.075-3.114zm3.47 2.246q.106.944.115 1.893a4 4 0 0 1 1.33.893c.81.826 1.174 1.956 1.092 3.369-.058.958-.324 2.008-.77 3.115h.24c.967-1.76 1.536-3.412 1.627-4.85.075-1.355-.28-2.436-1.049-3.22-.627-.645-1.52-1.026-2.586-1.2zm-7.682 3.008c-.215.066-.432.132-.647.215q-.568 1.348-1.123 2.908a63 63 0 0 0-1.015 3.13h.355a49 49 0 0 1 1.76-4.79c.222-.513.447-.992.67-1.463z"/></svg>