<svg xmlns="http://www.w3.org/2000/svg" viewBox="0 0 24 24"><path d="M12.012 0a1.539 1.539 0 1 0 1.365 2.246c2.22 1.268 3.848 5.474 3.848 10.363 0 2.072-.29 4.055-.827 5.768a.32.32 0 0 0 .211.404.32.32 0 0 0 .405-.213c.555-1.776.853-3.823.853-5.959 0-5.192-1.771-9.687-4.32-11.004 0-.022.004-.043.004-.066A1.54 1.54 0 0 0 12.01 0zm0 .643a.896.896 0 0 1 0 1.793.896.896 0 0 1 0-1.793zM6.525 4.949c-2.067.008-3.647.664-4.388 1.947-.738 1.278-.527 2.971.511 4.782a.322.322 0 0 0 .557-.32c-.935-1.631-1.116-3.092-.512-4.14.821-1.421 3.033-1.955 5.932-1.427a.322.322 0 0 0 .115-.633 12 12 0 0 0-2.215-.209zm11.053.018a.322.322 0 0 0-.01.642c1.834.024 3.156.595 3.75 1.625.82 1.42.182 3.596-1.716 5.838a.32.32 0 0 0 .037.453.32.32 0 0 0 .453-.037c2.053-2.426 2.771-4.866 1.785-6.574-.726-1.257-2.26-1.92-4.299-1.947zm-2.7.29a.3.3 0 0 0-.064.009c-1.856.398-3.834 1.175-5.732 2.271-4.57 2.639-7.592 6.494-7.36 9.371a1.539 1.539 0 1 0 .747-.193q-.057 0-.114.006c-.1-2.56 2.745-6.142 7.05-8.627 1.84-1.063 3.755-1.816 5.544-2.2a.322.322 0 0 0-.07-.636zM12 11.495a1 1 0 0 0-.225.026 1.114 1.114 0 1 0 .225-.026zm-7.469 1.848a.32.32 0 0 0-.23.082.32.32 0 0 0-.022.455c1.268 1.394 2.916 2.7 4.795 3.785 4.415 2.549 9.106 3.286 11.56 1.84a1.53 1.53 0 0 0 .897.289 1.539 1.539 0 1 0-1.338-.78c-2.244 1.215-6.632.5-10.798-1.906-1.823-1.052-3.419-2.318-4.641-3.662a.32.32 0 0 0-.223-.103zM2.47 17.357a.896.896 0 0 1 0 1.793.896.896 0 0 1 0-1.793zm19.062 0a.896.896 0 0 1 0 1.793.9.9 0 0 1-.586-.218l-.008-.014a.3.3 0 0 0-.095-.092.896.896 0 0 1 .69-1.469zm-14.006 1.37a.322.322 0 0 0-.32.43C8.28 22.153 10.037 24 12.012 24c1.44 0 2.773-.982 3.812-2.71a.32.32 0 0 0-.11-.442.32.32 0 0 0-.443.109c-.934 1.554-2.08 2.4-3.26 2.4-1.64 0-3.208-1.646-4.2-4.418a.32.32 0 0 0-.286-.212z"/></svg>