<svg xmlns="http://www.w3.org/2000/svg" viewBox="0 0 24 24"><path d="M11.977 0a.7.7 0 0 0-.43.137L3.223 5.859c-.242.12-.364.362-.364.664V19.48c0 .482.362.844.844.844H9.92a.824.824 0 0 0 .844-.844c0-.06 0-.18-.06-.24l-.06-.181c-.301-.723-.664-1.629-.664-2.532v-.181c-.06-.542.12-1.084.483-1.446a2.1 2.1 0 0 1 1.387-.722c.543-.06 1.027.118 1.449.48s.662.845.722 1.387v.18c.06 1.206-.722 2.953-.843 3.134l-1.147 2.17-.18-.361c-.121-.181-.303-.362-.484-.422-.182-.06-.422-.06-.603.06-.18.12-.362.3-.422.481s-.06.423.06.604l.905 1.687c.12.241.423.422.724.422.302 0 .605-.18.725-.422l1.808-3.375h5.733a.824.824 0 0 0 .844-.844V6.523c-.06-.302-.18-.542-.422-.662L12.45.137A.93.93 0 0 0 11.977 0zm-.006 1.822 7.48 5.123v11.692H15.23c.18-.663.421-1.688.421-2.532v-.24a3.54 3.54 0 0 0-1.267-2.47c-.724-.663-1.69-.966-2.654-.905-1.87.12-3.38 1.747-3.38 3.615 0 .784.12 1.567.422 2.471h-4.22V6.946z"/></svg>