<svg xmlns="http://www.w3.org/2000/svg" viewBox="0 0 24 24"><path d="M2.523 2.275c-.621.004-1.232.033-1.822.086-1.188.11-.88.153 1.98.285 5.678.242 9.044 1.146 11.354 2.995 1.232 1.012 2.188 3.144 2.188 3.144s-3.64.837-7.797 1.65c-4.16.815-7.461 1.54-7.328 1.585.352.11 5.215-.484 10.32-1.276l4.87-.734c.077-.012.034.393.034.513 0 1.1-1.12 2.949-2.793 4.6-2.75 2.684-6.624 4.687-11.574 5.963-1.364.352-2.199.637-1.89.637 1.187.044 5.74-1.298 7.808-2.266 2.685-1.276 4.402-2.508 6.492-4.664 1.48-1.842 2.995-2.797 3.057-5.018l3.058-.505c1.63-.264 3.105-.55 3.282-.616.24-.088.283-.351.195-1.011-.154-1.21-1.1-2.157-3.014-3.038-2.904-1.342-5.879-1.602-7.441-.68-.173.102-.375.416-.533.485l-2.365-.861c-2.467-.84-5.386-1.289-8.08-1.274zm13.44 2.18c.952-.005 2.298.246 3.771.68 1.628.484 4.18 2.014 3.791 2.09l-3.064.6-3.387.773c-.644-1.435-1.492-2.232-2.629-3.305l.133-.328c.141-.348.644-.506 1.385-.51z"/></svg>