<svg xmlns="http://www.w3.org/2000/svg" viewBox="0 0 24 24"><path d="M12.95 0c-.39 0-.766 0-1.143.057l-.252.732a18.91 18.91 0 0 1 11.588 11.576l.73-.263c0-.366.068-.732.068-1.143l.059.033A10.993 10.993 0 0 0 12.95 0zM7.817 1.27A11 11 0 0 0 5.36 3.04v1.636A13.92 13.92 0 0 1 19.268 18.57h1.634a11.7 11.7 0 0 0 1.772-2.447A17.53 17.53 0 0 0 7.818 1.27zm-3.988.466a12.98 12.98 0 0 0-3.828 9.246 13.073 13.073 0 0 0 13.072 13.014v.002a12.97 12.97 0 0 0 9.336-3.727l-.695-.697a12.067 12.067 0 0 1-17.143 0 12.067 12.067 0 0 1 0-17.14zM6.213 6.08a5.5 5.5 0 0 0-1 .092 4.35 4.35 0 0 0-2.16 1.336 4.274 4.274 0 0 0 1.908 6.855 10 10 0 0 0 1.074.196 4.01 4.01 0 0 1 3.336 3.955 3.97 3.97 0 0 1-.639 2.16l1.372.879a10 10 0 0 0 2.056.342 7.5 7.5 0 0 0 .754-2.627l.012.056a7.6 7.6 0 0 0-2.983-6.754 7.44 7.44 0 0 0-3.828-1.554.697.697 0 0 1-.605-.73.674.674 0 0 1 .742-.618 8.97 8.97 0 0 1 8 9.805 8 8 0 0 1-.299 1.543l1.99.558a11 11 0 0 0 1.713-.65 12 12 0 0 0 .217-2.344A12.57 12.57 0 0 0 7.213 6.172a5.5 5.5 0 0 0-1-.092zm.017 10.113a1.691 1.691 0 1 0 1.69 1.692 1.69 1.69 0 0 0-1.69-1.692z"/></svg>