<svg xmlns="http://www.w3.org/2000/svg" viewBox="0 0 24 24"><path d="M23.066 2.254c-.268.003-.575.145-.896.43C20.293 4.506 11.478 13.754.195 20.258c-.172.098-.2.32.559.09 4.48-1.572 14.23-6.704 17.555-8.744 2.39-1.456 4.237-2.531 4.964-4.356 1.207-3.258.75-5.006-.207-4.994zm-2.255 8.773c-.204.008-.445.096-.68.243C18.226 12.5 5.377 19.403.242 20.709c-.396.132-.274.28.127.246 5.39-.65 13.083-2.89 15.158-3.676 3.015-.914 3.794-1.88 4.92-3.543 1.245-2.027.974-2.731.364-2.709zm-2.995 6.182a1.4 1.4 0 0 0-.392.059c-1.745.524-8.112 2.689-15.623 3.734-.338.046-.256.226.14.25 5.018.474 6.911.51 9.213.488 2.204-.072 3.862.242 5.725-1.73 1.706-1.768 1.743-2.791.937-2.801z"/></svg>