<svg xmlns="http://www.w3.org/2000/svg" viewBox="0 0 24 24"><path d="M23.146.012s-8.123 3.157-10.734 4.426S7.125 7.34 6.2 12.143c-.376 1.945.314 3.59 1.608 5.459-.006-1.836 4.637-4.02 5.673-4.52l4.659-2.12a4.39 4.39 0 0 0 2.543-2.636l.58-1.633a.174.174 0 0 0-.11-.222.17.17 0 0 0-.125 0l-8.896 3.771.031-.142a.9.9 0 0 1 .44-.625c1.505-.927 6.904-3.688 6.904-3.688a6.6 6.6 0 0 0 3.53-4.111l.407-1.397a.225.225 0 0 0-.152-.267.22.22 0 0 0-.145 0zM3.896 2.113a2.13 2.13 0 0 0-1.4.381c-.423.294-.624.752-.986 1.098-.11.11-1.006.533-.957.707.109-.05.735 0 1.472.56C4.525 6.62 5.523 12 5.523 12v-.03c.016-.47 1.044-4.28 2.747-5.71.257-.217.464-.364.675-.567a.24.24 0 0 0 0-.312A14 14 0 0 0 7.05 3.67c-.02-.041-1.274-.861-1.729-1.111-.447-.244-.937-.414-1.424-.446zm8.336 12.68c-.557.01-4.982 2.303-3.726 3.875 2.197 2.717 5.444 4.88 6.09 5.287a.21.21 0 0 0 .232.016v-.01l.05-.035a.27.27 0 0 0 .015-.356c-2.103-2.28-2.599-6.966-2.604-8.748q0-.03-.057-.029z"/></svg>