<svg xmlns="http://www.w3.org/2000/svg" viewBox="0 0 24 24"><path d="M12.736.223a8 8 0 0 0-1.48.12C8.82.746 6.504 2.14 5.02 4.087c-.817 1.098-1.203 1.736-1.04 1.736.045 0 .283-.132.52-.31 1.99-1.41 5.6-2.05 8.006-1.41 2.302.608 3.519 1.559 4.543 3.578.862 1.664 1.04 2.3 1.47 5.049l.104.58.283-.358c.505-.653 1.127-2.123 1.38-3.222.846-3.817-.771-6.995-4.44-8.747-1.03-.49-2.048-.741-3.11-.76zM6.14 5.983c-.307.017-.636.27-1.12.76q-.78.766-1.605 1.487C1.974 9.447.654 11.6.194 13.455c-.43 1.768-.121 4.353.726 6.031 1.292 2.584 4.738 4.336 8.42 4.291.728 0 .817-.03.564-.177-.832-.505-2.049-1.856-2.494-2.762-.445-.92-.474-1.071-.474-2.615 0-1.5.03-1.693.416-2.42.683-1.292 1.394-1.901 2.73-2.287 1.604-.46 2.408-1.233 2.854-2.733.178-.579.31-1.129.31-1.203 0-.312-.43-.49-1.559-.652-2.108-.282-3.37-.937-4.574-2.303-.386-.446-.668-.66-.974-.643zm1.181 1.93c.186 0 .41.056.655.167.342.15.385.237.296.623-.268 1.233-.268 1.574 0 1.871.415.46.816.358 1.56-.355.652-.654.86-.728 1.648-.698.297.015.43.12.49.372.045.208.223.415.386.459.387.12.372.357-.074.98-1.544 2.11-4.633 2.095-5.717-.014-.49-.965-.356-2.376.327-3.238q.147-.166.43-.168zm14.703 1.77c-.074 0-.207.342-.296.758-.564 2.613-2.54 5.57-4.678 6.952-1.663 1.084-2.346 1.262-4.99 1.277-1.262 0-2.659-.06-3.104-.12l-.803-.118.106.49c.133.713 1.069 1.976 2.004 2.748 1.708 1.396 3.311 1.9 5.51 1.781 3.905-.208 7.069-2.57 8.033-5.97.12-.447.208-1.38.193-2.301 0-1.292-.074-1.768-.4-2.72-.402-1.172-1.322-2.776-1.575-2.776z"/></svg>