<svg xmlns="http://www.w3.org/2000/svg" viewBox="0 0 24 24"><path d="M4.045 7.094a3.7 3.7 0 0 0-1.066.156 2 2 0 0 0-.36.145 2.6 2.6 0 0 0-.664.474c-.5.49-.754 1.155-.754 1.975v.709H-.002v1.418h1.2v4.793h1.921V11.97h1.2v-1.416h-1.2v-.75a1.02 1.02 0 0 1 .229-.711l.002-.002.06-.06.002-.003s.414-.408 1.389-.138h.002l.474-1.602a3 3 0 0 0-.384-.1l-.02-.003a3.7 3.7 0 0 0-.828-.092zm3.805.42A1.085 1.085 0 1 0 8.934 8.6v-.002c0-.6-.485-1.084-1.084-1.084zm6.271.136v3.44H14.1c-.287-.416-.862-.703-1.64-.703-1.488 0-2.795 1.223-2.784 3.318 0 1.936 1.18 3.201 2.658 3.201.797 0 1.56-.36 1.936-1.039l.117.893h1.668V7.65zm8.371 1.995v.117h.233v.588h.14v-.588h.23v-.117zm.74 0v.707h.131v-.573l.198.573h.113l.195-.573v.573h.129v-.707h-.2l-.18.503-.182-.503zm-2.925.744c-2.01 0-3.328 1.285-3.328 3.306s1.392 3.211 3.212 3.211c1.664 0 3.278-1.039 3.278-3.326-.002-1.874-1.267-3.191-3.162-3.191zm-15.366.164v1.418h1.95v4.793h.703v-2.725h.51v2.725h.709v-6.211zm15.301 1.228c.871 0 1.235.937 1.235 1.852 0 1.137-.483 1.883-1.235 1.883v-.002c-.832 0-1.275-.797-1.275-1.871 0-.915.36-1.862 1.275-1.862zm-7.285.096c.606 0 1.023.435 1.139.945.014.09.023.195.023.301l-.002.05.004.82q0 .229-.031.45c-.11.531-.574.922-1.13.922h-.015c-.796 0-1.316-.66-1.316-1.722 0-.978.445-1.766 1.328-1.766z"/></svg>