<svg xmlns="http://www.w3.org/2000/svg" viewBox="0 0 24 24"><path d="M18.615 0q-.27-.008-.566.084L6.669 3.736a2 2 0 0 0-.358.149 1.03 1.03 0 0 0-.303.724 1.03 1.03 0 0 0 .508.934c2.016.837 4.046 1.639 6.07 2.455.62.247 1.124 1.473 1.135 2.729l.06 5.228 4.385-1.4a2.98 2.98 0 0 0 1.867-2.717l-.074-10.25c0-.945-.567-1.566-1.344-1.588zM5.543 4.25a2 2 0 0 0-.195.121A2.76 2.76 0 0 0 4.23 5.738a4.3 4.3 0 0 0-.255 1.733l.084 11.056c0 1.63.225 2.146 1 2.655 2.289.904 4.566 1.855 6.853 2.771.617.252 1.113-.564 1.102-1.82-.017-3.673-.034-7.347-.06-11.02 0-1.256-.52-2.474-1.136-2.726L6.873 6.373l-1.129-.467a1.02 1.02 0 0 1-.504-.933 1 1 0 0 1 .303-.723z"/></svg>