<svg xmlns="http://www.w3.org/2000/svg" viewBox="0 0 24 24"><path d="M15.623 0c-2.585 1.515-3.657 4.167-3.932 5.855a6.2 6.2 0 0 0-2.304.588.297.297 0 0 0-.147.37c.057.161.24.24.397.17a5.6 5.6 0 0 1 2.008-.522l.066-.006a5.9 5.9 0 0 1 1.957.223l.096.029a6 6 0 0 1 .615.229q.12.053.238.11l.108.056a6 6 0 0 1 .367.21 5.95 5.95 0 0 1 2.035 2.106c-.62-.437-1.735-.869-2.805-.682 4.183 2.09 3.06 9.292-2.736 9.02a5.2 5.2 0 0 1-1.514-.291 4 4 0 0 1-.537-.233c-1.42-.735-2.593-2.121-2.74-3.806 0 0 .538-2 3.846-2 .357 0 1.378-.998 1.396-1.287-.005-.095-2.028-.9-2.816-1.676-.422-.416-.621-.617-.8-.768a4 4 0 0 0-.302-.226 5.4 5.4 0 0 1-.031-2.842c-1.195.544-2.125 1.402-2.8 2.162H5.28c-.46-.584-.426-2.509-.4-2.912-.006-.025-.345.175-.39.205q-.611.436-1.136.975-.597.605-1.085 1.302A9.8 9.8 0 0 0 .707 9.88a14 14 0 0 0-.227 1.346 8 8 0 0 0-.068.666l-.002.035-.023.386v.06C.387 18.793 5.593 24 12.016 24c5.752 0 10.527-4.175 11.463-9.66q.028-.225.052-.45c.232-1.993-.026-4.088-.754-5.841-.505-1.215-1.529-2.529-2.332-2.944.654 1.283 1.032 2.57 1.176 3.53l.002.02c-1.314-3.279-3.543-4.6-5.365-7.477-.091-.147-.185-.292-.274-.446a4 4 0 0 1-.129-.24 2 2 0 0 1-.171-.46.03.03 0 0 0-.028-.03.04.04 0 0 0-.021 0l-.006.002-.01.004z"/></svg>