<svg xmlns="http://www.w3.org/2000/svg" viewBox="0 0 24 24"><path d="M12 0C5.367 0 0 5.367 0 12s5.367 12 12 12 12-5.367 12-12S18.633 0 12 0zm0 1.982A10.015 10.015 0 0 1 22.018 12 10.015 10.015 0 0 1 12 22.018 10.015 10.015 0 0 1 1.982 12 10.015 10.015 0 0 1 12 1.982zm3.883 6.084c-1.4 0-2.1 1.601-2.633 3.334-.35 1.133-.95 2.767-1.383 2.75-.517-.017-.784-.516-1.234-1.132-.5-.684-1.15-1.551-2.5-1.551-1.533 0-2.216 1.199-2.75 2.115-.2.334-.6.935-.934 1.05-.383.15-1.066.269-1.066.886 0 .45.317.716.767.783.783.1 1.617-.55 1.717-.633.366-.317.682-.8.965-1.268.484-.817.735-1.283 1.268-1.283.417 0 .682.15 1.132.817.484.7 1.169 1.882 2.702 1.882 1.767 0 2.266-2.016 2.933-3.85.316-.883.634-2.066 1.051-2.066.2 0 .298.068.648 1.018.3.816.701 2.165.967 2.932.3.9.918 2.367 2.15 2.433.4.017.75-.183.835-.566.133-.5-.302-.784-.569-.934-.233-.116-.45-.484-.717-1.05-.05-.084-.249-.716-.332-1.016-.583-2.017-1.133-4.65-3.017-4.65z"/></svg>