<svg xmlns="http://www.w3.org/2000/svg" viewBox="0 0 24 24"><path d="M1.83 2.195C1.28 2.191.8 2.377.426 2.82-.428 3.823.03 6.136 1.787 8.918l.02.027a10 10 0 0 0 .197.297c1.733 2.58 4.248 4.677 3.742 7.586a4.3 4.3 0 0 1-.598 1.565C3.615 20.798.004 21.047.004 21.047l.04.002-.044.004s4.355 1.343 8.533.437c.598-.13 1.193-.305 1.77-.537l.021-.01q.515-.206.977-.435a12 12 0 0 0 .281-.147q.427-.225.814-.466l.153-.094c.316-.204.609-.418.887-.637l.146-.115q.247-.202.477-.406l.123-.106.035-.04q.01-.013.023-.022a13 13 0 0 0 .862-.89l.146-.167q.09-.102.176-.203l.1-.123q.189-.232.372-.465l.032-.043c.679-.88 1.28-1.779 1.933-2.639l.215-.277c.294-.374.602-.74.934-1.092l.03-.031q.161-.171.333-.338l.07-.066a11 11 0 0 1 .264-.243q.053-.048.11-.095a5 5 0 0 1 .372-.293l.04-.028a5 5 0 0 1 .847-.48h.002l.018-.008a5.6 5.6 0 0 1 1.629-.412h.002a6 6 0 0 1 .533-.025h.068l.115.002.428-.002a.2.2 0 0 0 .09-.018c.062-.03.045-.101-.014-.185a1.4 1.4 0 0 0-.388-.342l-.098-.053-.037-.021a4 4 0 0 1-.256-.163l-.129-.095a4 4 0 0 1-.193-.15c-.205-.2-.433-.732-.524-.887a2 2 0 0 0-.24-.33c-.272-.306-.664-.534-1.3-.616-.892-.115-1.727.071-2.565.332l.1-.035c-1.169.354-2.336.872-3.657.942h-.039a6 6 0 0 1-.668-.01l-.06-.004a5.5 5.5 0 0 1-1.16-.235c-1.313-.411-3.154-1.88-5.047-3.316l-.65-.488a52 52 0 0 0-.79-.58l-.223-.157-.236-.166-.086-.058a18 18 0 0 0-1.611-.998l-.02-.01a10 10 0 0 0-.367-.185q-.058-.028-.115-.053a8 8 0 0 0-.549-.23l-.05-.018a5 5 0 0 0-.315-.102l-.028-.006a3 3 0 0 0-.816-.125zM20.6 8.641a.504.5 0 0 1 .505.5.504.5 0 0 1-.505.5.504.5 0 0 1-.504-.5.504.5 0 0 1 .504-.5z"/></svg>