<svg xmlns="http://www.w3.org/2000/svg" viewBox="0 0 24 24"><path d="M17.47.004q-.019-.009-.042.006c-.142.085-4.164 2.832-8.961 6.117-1.106.759-2.03 1.428-2.051 1.488-.02.061.366.693.86 1.405a434 434 0 0 1 1.646 2.394 596 596 0 0 0 1.5 2.195 2738 2738 0 0 1 3.926 5.74L17.523 24l.032-3.545.029-3.543-.695-.992c-.381-.545-.694-1.036-.694-1.09s.312-.3.692-.545l.691-.445v-2.063c.001-2.03 0-2.062-.224-1.906-1.534 1.068-2.974 2.006-3.084 2.006-.115 0-2.53-3.367-2.647-3.693-.022-.064 1.306-1.026 2.953-2.137l2.994-2.02.004-2.054C17.58.506 17.56.046 17.471.003z"/></svg>