<svg xmlns="http://www.w3.org/2000/svg" viewBox="0 0 24 24"><path d="M5.684 0C3.919 0 3.4 1.328 3.4 2.164v20.34c0 .94.504 1.29.79 1.404.283.117 1.068.214 1.54-.328 0 0 6.045-7.012 6.147-7.115.165-.157.164-.158.314-.158h3.914c1.65 0 1.906-1.17 2.086-1.86.15-.569 1.755-8.774 2.28-11.384C20.876 1.08 20.365 0 18.49 0H5.683zM6.82 2.64h10.274c.375 0 .73.356.633.82v.005l-.536 2.799c-.064.303-.444.623-.8.623h-4.98c-.563 0-.964.391-.964.945v.613c0 .57.404.961.965.961h4.23c.396 0 .786.437.698.856l-.535 2.76c-.051.24-.314.628-.785.628h-3.457c-.63 0-.818.092-1.239.602-.42.524-4.207 5.068-4.207 5.068-.037.045-.072.03-.072-.013V3.42c0-.36.31-.78.775-.78z"/></svg>