<svg xmlns="http://www.w3.org/2000/svg" viewBox="0 0 24 24"><path d="M11.36.305a1 1 0 0 0-.221.01c-.602.1-1.002.601-1.002 1.304q.15.602.601.904l.1 1.004c-1.104.2-2.208.5-3.211 1.002l.502 1.106a10.4 10.4 0 0 1 4.615-1.106c.803 0 1.506.1 2.309.301l.2-1.203q-1.052-.3-2.407-.3h-.803l-.102-1.005c.301-.2.504-.603.403-1.004-.088-.526-.484-.976-.985-1.013zm7.908 4.927-.602 1.004a11.2 11.2 0 0 1 4.014 4.616l1.103-.5c-.402-.904-.902-1.706-1.504-2.51l.602-.602c.1.1.2.1.3.1.502-.1.903-.502.803-1.104-.1-.502-.502-.902-1.004-.802s-.802.502-.802 1.003l-.701.602c-.703-.703-1.406-1.306-2.21-1.807zm-6.422.502a9.42 9.42 0 0 0-9.434 9.434c0 .702.1 1.305.2 2.008 1.003.802 4.215 1.404 8.33 1.203 4.515-.301 8.23-1.505 10.437-3.412 0-.301 0-.602-.1-.903-.603-4.817-4.616-8.33-9.433-8.33zM4.314 6.94c-.702.702-1.203 1.504-1.705 2.307l-.703-.4c-.1-.401-.602-.703-1.004-.703C.3 8.243 0 8.644 0 9.246c0 .501.502.905 1.004.805.1 0 .2-.002.3-.102l.704.4c-.401.905-.704 1.808-.805 2.811l1.205.201c.402-2.107 1.306-4.013 2.81-5.52zm5.22 3.211a2.91 2.91 0 0 1 2.91 2.91c0 1.607-1.306 3.01-2.91 3.01a2.91 2.91 0 0 1-2.911-2.91c0-1.707 1.304-3.01 2.91-3.01zm7.325.202c1.205 0 2.108 1.001 2.108 2.105 0 1.204-.903 2.107-2.108 2.107-1.204 0-2.107-1.003-2.107-2.107 0-1.204 1.004-2.105 2.107-2.105zm5.118 6.22a16.8 16.8 0 0 1-3.813 1.807c-1.806.602-3.913 1.002-6.121 1.103-.602 0-1.205.1-1.807.1q-2.108 0-3.914-.299c-.602-.1-1.305-.303-2.008-.504 1.606 2.91 4.817 4.918 8.43 4.918 4.415 0 8.23-3.01 9.233-7.125z"/></svg>