<svg xmlns="http://www.w3.org/2000/svg" viewBox="0 0 24 24"><path d="M12.17 1.271a.73.73 0 0 0-.719.733v13.914a.73.73 0 0 0 .733.732.73.73 0 0 0 .732-.732V2.004a.73.73 0 0 0-.746-.733zM23.244 5.44a.7.7 0 0 0-.275.065l-6.283 2.803a.733.733 0 0 0 0 1.336l6.283 2.814a.7.7 0 0 0 .299.064.732.732 0 0 0 .296-1.4L18.78 8.977l4.785-2.137a.734.734 0 0 0 .372-.967.73.73 0 0 0-.692-.434zM.746 10.473a.732.732 0 0 0-.723.914 15.17 15.17 0 0 0 14.682 11.342.732.732 0 0 0 0-1.465A13.706 13.706 0 0 1 1.44 11.02a.73.73 0 0 0-.693-.547z"/></svg>