<svg xmlns="http://www.w3.org/2000/svg" viewBox="0 0 24 24"><path d="m10.355 0-.953.637-2.377 1.59.278.814-.332.205-.422-.683a.713.713 0 0 0-.979-.231l-.734.453a.71.71 0 0 0-.232.979l.421.681-.3.186-.293-.861-1.664 1.113-1.666 1.113.64 1.881 1.994-1.336 1.334-.893-.271-.8.172-.106.172-.105.314.508a.7.7 0 0 0 .236.226l.032 1.065a.33.33 0 0 0 .103.228c.017.017.046.015.067.027a.3.3 0 0 0 .162.067l.007-.002.002.002a.33.33 0 0 0 .164-.049l.706-.436.816.588-1.219 7.5a.14.14 0 0 0 .082.149.14.14 0 0 0 .051.01.14.14 0 0 0 .111-.06 13.87 13.87 0 0 1 8.121-4.903.14.14 0 0 0 .11-.123.136.136 0 0 0-.09-.14L7.957 6.74l-.162-.996.687-.424a.367.367 0 0 0-.017-.576l-.967-.521a.7.7 0 0 0-.098-.278l-.312-.51.289-.177.287.85 3.33-2.23-.162-.476zm3.913 6.658a8.8 8.8 0 0 0-3.57.77l1.751.642a.6.6 0 0 1 .225-.25h-.028a7.8 7.8 0 0 1 2.68-.095c-.12.062-.032.104-.119.168a3.3 3.3 0 0 1-.66.298c.252 0 .863.234.98-.115l-.244-.037a2.2 2.2 0 0 1 .5-.24 7.8 7.8 0 0 1 4.121 2.246h-.021a1.24 1.24 0 0 0-.758.176 1 1 0 0 1-.29.19c-.11.03-.23.003-.34.04-.4.134-.338.977-.864.85-.247-.06-.42-.347-.545-.535-.11-.166-.31-.303-.176-.51-.061.015-.127-.004-.187.008.084-.183.367-.167.414-.26.117-.234-.321-.259-.446-.291.15-.158.225.053.373.017.143-.034-.074-.219-.16-.24-.03-.007-.532.137-.242-.119l-1.074-.676c-.06.251.477.393.652.48-.027.104-.19.256-.314.212-.118-.042-.07-.234-.248-.215-.127.29.268.206.304.385.042.203-.149.116-.222.113-.018-.001-.155-.141-.162-.035-.01.125.218.076.234.203a.9.9 0 0 1-.596-.213.42.42 0 0 1-.277.225l-.023.005a1.4 1.4 0 0 0 .195.057c.149.018.233.221.314.305.054.055.15.17.244.158.15-.02.088-.148.174-.207.233-.16.294.057.387.273a.94.94 0 0 0 .324.409c.072.06.387.276.358.41-.02.09-.38.226-.477.256-.352.11-1.015-.18-1.086.37.137-.05.526-.363.643-.214.053.067-.042.165-.02.232.067.201.224.13.389.098.168-.084.175-.087.27-.256a1.3 1.3 0 0 1 .13-.25c.164-.148.19-.046.291.068.027.03.277.386.188.368a1.06 1.06 0 0 0-.813.107 2.2 2.2 0 0 1-.437.274c-.04.014-.334.041-.3-.008.052-.073.227-.121.296-.2-.192-.077-.352.095-.502.196-.16.074-.198.214-.334.336-.06.053-.17.06-.229.13-.056.068-.063.176-.117.24-.037.046-.134.019-.174.087-.05.089.047.17.026.234-.04.116-.264.215-.35.299a1.3 1.3 0 0 0-.228.225 2.5 2.5 0 0 1 .101.574c-.09.263-.265-.143-.336-.248-.243-.362-.728-.12-1.06-.09a.728.728 0 0 0-.578 1.023.516.516 0 0 0 .58.244c.216-.043.279-.34.482-.345.374-.01.009.36-.023.496-.03.126.046.138.177.17.098.023.236-.041.32.013a.1.1 0 0 1 .028.045h.42l.059.221.119.445a.4.4 0 0 1 .06 0c.323.082.17-.024.453-.193.192-.114.223.023.354.023.089 0 .146-.126.295-.09.121.03.167.122.312.143.058.009.118-.018.174-.013v-.536h1.707v1.797c-.034.02-.066.032-.084.028a.3.3 0 0 0 .084.07l.06.039c.095-.3.249-.108.434-.033a4 4 0 0 0 .52.105 1.4 1.4 0 0 1 .564.244c.128.139.038.364-.056.502-.124.181-.308.25-.385.463a3.4 3.4 0 0 0-.05.526c-.048.253-.086.164-.25.318-.14.13-.003.108-.192.191-.19.084-.357.058-.489.264a2 2 0 0 0-.095.246 1 1 0 0 1-.06.076v.457h1.816v1.203a8.6 8.6 0 0 0 3.498-6.902 8.73 8.73 0 0 0-8.79-8.67zm3.39 10.9c-.004-.005-.013-.01-.013-.015q0 .014.013.016zm-3.56-3.706-.008-.043.004.046zM7.996 7.045 14.39 9.39a14.4 14.4 0 0 0-7.504 4.504zm5.908.832a4 4 0 0 0-1.029.227 1 1 0 0 0-.12.08l.25.09c.057-.132.037-.181.202-.24.166-.06.64-.003.697-.157zm-4.244.098a8.8 8.8 0 0 0-1.738 1.4l-.584 3.59a15 15 0 0 1 1.754-1.475 1 1 0 0 0-.059-.074l-.105-.164a1.4 1.4 0 0 0-.278-.379 7 7 0 0 0-.453-.338 7.8 7.8 0 0 1 2.707-2.103zm4.643.588c-.112.002-.166.049-.198.115l.915.336c.017.006.024.023.04.03.012-.088-.04-.098-.165-.183a1.5 1.5 0 0 0-.461-.287.6.6 0 0 0-.131-.011zm-2.588.166a.57.57 0 0 1-.381.054c-.217-.03-.446-.1-.635.088.104.062.39.302.352.05a3.6 3.6 0 0 1 .613.009c.082.01.356.102.43.06a.25.25 0 0 0 .05-.103zm2.09.46-.004.002h.025zm.629.788a14 14 0 0 0-1.649.51c.2.11.467.181.615.247.132.06.517.14.588.239.097.132-.082.256.12.35a.25.25 0 0 0 .25-.028c.09-.1-.036-.121-.057-.236-.042-.223.027-.135.14-.217.231-.168.18-.18.096-.447a1.7 1.7 0 0 1-.103-.418zm-7.62.773a8.44 8.44 0 0 0-.875 7.31v-2.326h2.04c1.33 0 2.914.6 2.914 3.457a4.1 4.1 0 0 1-.778 2.604 2.7 2.7 0 0 1-.799.676 8.75 8.75 0 0 0 9.344.341h-2.545l-.078-.292v.293h-.3l.042.046a8 8 0 0 1-.879.12c.056-.07.07-.13-.107-.14.004-.01.013-.017.018-.026h-.528l-.056-.229-.293-1.213H12.66l-.289 1.211-.057.23h-1.828l.106-.378 1.787-6.48.06-.22h.36a.5.5 0 0 0-.111-.095c-.167-.079-.26.034-.436.011a2.6 2.6 0 0 1-.516-.244.94.94 0 0 1-.568-.545 2 2 0 0 0-.404-.56c-.169-.205-.223-.38-.483-.434-.03-.006.065.215.074.233a5 5 0 0 0 .344.482c.165.233.096.278-.072.053-.192-.258-.416-.515-.582-.787-.063-.103-.05-.17-.154-.268-.1-.094-.231-.14-.332-.23a1.18 1.18 0 0 1-.39-.838 11.4 11.4 0 0 0-2.146 2.12.44.44 0 0 1-.357.188.5.5 0 0 1-.166-.033.436.436 0 0 1-.264-.475zM3.68 15.926a2.39 2.39 0 0 0-1.985.96 3.95 3.95 0 0 0-.746 2.491 3.76 3.76 0 0 0 .682 2.383 2.25 2.25 0 0 0 1.867.865 2.87 2.87 0 0 0 1.787-.547V18.82H3.197v1.166h.983v1.266a1.16 1.16 0 0 1-.63.148 1.22 1.22 0 0 1-1.05-.546 2.63 2.63 0 0 1-.387-1.545 2.6 2.6 0 0 1 .432-1.575 1.33 1.33 0 0 1 1.121-.59 2.23 2.23 0 0 1 1.39.434V16.21a3.16 3.16 0 0 0-1.376-.283zm2.56.107v6.479h1.74a2.3 2.3 0 0 0 1.9-.903 3.8 3.8 0 0 0 .715-2.418 3.15 3.15 0 0 0-1.022-2.714 2.65 2.65 0 0 0-1.593-.444zm6.428 0-1.787 6.479h1.197l.174-.721.172-.719h1.746l.35 1.44h1.203l-1.744-6.479zm3.668 0v6.479h2.924v-1.184h-1.82v-5.295zm-3.057 1.156h.028c.001.025.01.049.011.073a4 4 0 0 0 .07.51l.264 1.09.264 1.087H12.66l.535-2.193a3 3 0 0 0 .084-.567zm-5.933.032h.54a1.35 1.35 0 0 1 1.137.531 2.35 2.35 0 0 1 .407 1.457 2.6 2.6 0 0 1-.01.408 3.1 3.1 0 0 1-.399 1.143 1.31 1.31 0 0 1-1.128.568h-.547zm.3.3v3.497h-.001v.01h.248a1.01 1.01 0 0 0 .884-.444 2.33 2.33 0 0 0 .352-1.375 2.07 2.07 0 0 0-.344-1.273 1.06 1.06 0 0 0-.898-.415zm5.643 1.114-.246 1.015h.492zm1.863.605.19.703a1.3 1.3 0 0 0-.01-.492.54.54 0 0 0-.18-.21z"/></svg>