<svg xmlns="http://www.w3.org/2000/svg" viewBox="0 0 24 24"><path d="M17.346 0c-.229-.01-.082.34.285.555.247.144.318.3.533 1.134.012.045.027.063.049.063.225 0 .744 1.078.984 2.041.042.17.101.362.131.428.167.365-.019.548-.422.416-.393-.13-.555-.43-.357-.66.144-.169.007-.532-.156-.414a.4.4 0 0 1-.127.062c-.076.015-.078.032-.01.084.345.264-.016.558-.758.617-.162.013-.163.014-.053.055.332.122.355.24.073.375q-.277.133.025.055c.628-.16.851-.118.85.16-.004.5-.432.708-1.762.855-.496.055-.664.08-1.08.16-.272.053-.16.1.193.08a4.5 4.5 0 0 0 .703-.087c.163-.047.333-.075.776-.135.982-.134 1.562-.456 1.369-.758-.313-.487.182-.578.646-.12.362.358.266.594-.322.788-.928.306-2.75.62-3.162.545a4 4 0 0 0-.477-.008c-.849.02-.849-.362 0-.637.255-.082.39-.172.565-.375.024-.028.107-.107.183-.175.369-.331-.076-.085-.978.542-.237.165-.55.024-.533-.242.019-.304.494-.974.802-1.13.27-.138.266-.055-.027.423-.121.198-.133.233-.082.233.083 0 .196-.108.268-.254.205-.417.545-.47.851-.135.111.121.111.12.123.047.027-.167.212-.274.477-.274.191 0 .2-.013.06-.078s-.142-.067-.052-.18c.125-.158.088-.173-.202-.081-.349.11-.49.14-.62.129a.8.8 0 0 0-.247.015c-.495.103-.542-.086-.187-.742.415-.768.963-1.963 1.125-2.453.196-.593.188-.719-.035-.49-.116.118-.22.328-.381.78-.164.461-.275.685-.42.847-.169.187-.28.367-.479.78-.374.781-.49.954-.728 1.075-.13.066-.119.594.013.627.045.011.036.023-.242.307-.392.4-.66.74-.943 1.195-.07.11-.14.207-.154.215-.131.068-2.384.07-4.518.002-.3-.01-.847-.025-1.213-.035-1.911-.052-3.476-.277-3.724-.534-.274-.282-.232-.35.289-.457.456-.094.644-.193.644-.34 0-.306-.91-.059-1.275.346-.178.198-.205.328-.127.602.135.48.247 1.024.377 1.826.256 1.582.31 1.873.433 2.383.113.462.273.965.303.947.064-.04-.043-.651-.225-1.29a8 8 0 0 1-.218-.888c-.185-1.068.227-.004.482 1.246.186.909.29.955.156.069-.104-.692-.108-.658.063-.606q.165.052.014-.076c-.214-.179-.056-.166.722.059.467.135.538.141.37.035-.085-.053-.084-.05.01-.092.085-.038.098-.08.032-.105a5 5 0 0 0-.681-.122c-.526-.047-.705-.277-.512-.662.153-.305.576-.598.865-.6.044 0 .19-.023.324-.052.498-.106.856-.155 1.926-.264 1.034-.105 1.624-.184 1.594-.215-.014-.014-.14-.01-1.303.045-1.128.053-1.884.14-2.584.3-.32.072-.365.088-.496.175-.66.437-.997.132-1.215-1.103-.056-.319-.068-.29.127-.329.072-.013.064-.048-.02-.086-.264-.119-.366-.311-.15-.28 1.108.154 3.279.284 6.147.366 2.718.078 2.562.072 2.562.123q0 .042.041.057c.083.032.086.185.008.34-.102.205-.328.414-.97.894-.405.303-.476.363-.78.676-.724.748-1.283 1.029-2.072 1.037-.65.007-.908.105-.4.153.674.063.935.228.6.379-.747.334-.787 1.093-.081 1.562.753.5 1.14.681 1.809.85.991.25 2.506.294 3.793.11 1.274-.184 2.01-.434 2.777-.946.372-.249.545-.391 1.209-.998.583-.534.85-.76.89-.76.013 0 .022.101.03.318.006.176.026.494.045.705.074.824.07.953-.04 1.067-.222.234-.224.398-.003.71.193.275.196.375.008.563-.113.113-.176.605-.23 1.844-.029.633-.044.834-.093 1.187s-.064.507-.111 1.12c-.067.867-.108 1.207-.2 1.656-.034.17-.035.202-.02.656.03.982.01 1.288-.114 1.664-.04.123-.049.18-.041.233.027.179-.112.324-.441.46-.152.063-.136.105.043.11.241.006-.152.433-.61.662-.677.338-1.201.421-3.383.537-1.878.1-4.01-.036-5.478-.35-.503-.107-.847-.71-1.111-1.94a20 20 0 0 0-.116-.5c-.063-.258-.072-.24.102-.214.223.033.222.018-.04-.238-.348-.342-.402-.482-.29-.742.082-.19.08-.19-.03-.18-.159.016-.143.04-.334-.537-.55-1.672-1.073-3.654-1.675-6.37-.153-.69-.382-.17-.276.626.164 1.225.295 1.88.805 4.056.318 1.357.336 1.44.47 2.118a43 43 0 0 0 .786 3.289c.163.569.146.537.277.597 1.098.51 2.41.763 4.469.868.598.03.579.03 1.307.002 2.176-.086 3.261-.225 4.341-.557a3 3 0 0 1 .327-.076c.826-.124 1.215-.725 1.257-1.946.012-.322.026-.492.059-.691.157-.953.316-2.272.36-2.98.005-.094.03-.349.052-.565.09-.865.163-1.877.238-3.252.184-3.364.342-5.132.545-6.031.37-1.636.243-3.529-.322-4.803-.71-1.6-1.646-2.727-2.533-3.05A.4.4 0 0 0 17.346 0zm.998 2.434c-.015 0-.028.017-.028.045 0 .058-.193.284-.462.539-.485.458-.596.582-.596.668 0 .042.02.038.105-.02l.323-.21c.591-.387.801-.684.697-.983q-.016-.04-.04-.04zm-4.426 1.515-.205.014c-1.04.082-2.116.12-4.926.164-1.514.024-1.696.036-2.365.156a23 23 0 0 0-.95.196q-.026.01-.036.076a.4.4 0 0 1-.053.133l-.088.125c-.024.034-.04.072-.033.082.017.027.025.025.523-.102.743-.19 1.284-.289 1.756-.324.136-.01.405-.042.598-.07.718-.106.836-.12 1.136-.13.37-.012.605.016.875.106.215.071.197.071.278.002.14-.12.293-.126.777-.027.456.092 2.169.138 2.594.068.354-.058.47-.186.338-.37-.064-.086-.07-.106-.219-.099zm5.219 2.252c.15-.012.145.015.172.143.06.29-.078.758-.413 1.394-.094.179-.228.444-.298.588-.415.848-1.146 1.165-2.364 1.024-.186-.022-.205-.031-.205-.11 0-.186-.156-.3-.306-.224-.068.034-.06.06.03.1.142.06.146.202.005.165-.015-.004-.029.012-.035.037-.02.078-.38.172-.641.168-.19-.002-.198-.006-.244-.142-.062-.183-.097-.199-.176-.08-.217.323-.498.368-.748.12-.23-.227-.214-.488.07-1.296.19-.536.256-1.041.141-1.041-.087 0-.442 1.127-.615 1.947-.07.333-.066.32-.242.408-.354.176-.367-.037-.053-.81.34-.837.34-.839.219-.875-.288-.086-.49.115-.897.9-.431.831-.643 1.026-1.115 1.026-.312 0-.219-.162.531-.922.419-.424.629-.666.879-1.016.496-.692.123-.372-.812.7-.72.824-1.175 1.166-1.659 1.245-.206.034-.206.048-.007.11.143.044.21.09.21.146 0 .038-.07.112-.107.112-.313 0-.34.654-.035.86.222.153.458.058.297-.118-.329-.36-.21-.684.32-.877.582-.212 1.567-.097 1.397.164-.101.154-.1.34 0 .74.073.293.08.407.033.46-.029.03-.048.035-.178.032-.16-.003-.17-.003-.48-.039a11 11 0 0 0-.522-.043c-1.007-.059-2.216-.279-2.377-.433-.14-.135.283-.594 1.098-1.19.39-.285.654-.493.734-.58.028-.03.236-.218.461-.416.796-.7 1.215-1.085 1.7-1.56.3-.295.3-.296.452-.305l.64-.035a75 75 0 0 0 4.933-.453q.133-.017.207-.024zm-3.885.904c-.034.024.058.139.268.35.635.641 1.247.999 1.882 1.102.442.071.816-.015.791-.184-.006-.044-.045-.046-.191-.006-.39.108-1.045-.077-1.64-.463-.567-.367-.033-.364.802.004.26.115.396.159.42.135.07-.07-.665-.476-.855-.473l-.206.006c-.183.004-.34-.051-.777-.273q-.445-.23-.494-.198zm-2.129.915c.022-.01.037.01.059.052.148.286-.311 1.26-.684 1.45-.096.048-.134.044-.195-.018-.122-.122-.003-.38.455-.988a10 10 0 0 0 .265-.371c.05-.076.078-.115.1-.125zm4.11 1.45c.31.042.197.386-.286.733-.813.586-1.112.7-2.422.924-.277.048-.564.102-.638.121-.167.042-.15.042-.274-.021-.102-.053-.102-.052-.218-.022-.41.106-.737-.135-.803-.59-.074-.507.317-.927.709-.761.18.076.173.176-.06.685-.177.384-.145.483.154.475.183-.005.19-.014.19-.172q0-1.388.833-1.112c.15.05.164.067.217.272.149.579.361.758.888.758.503 0 .587-.071.776-.664.162-.51.224-.559.775-.623a.6.6 0 0 1 .158-.002zm-1.522.214c.226-.009.385.132.385.377 0 .225-.154.389-.387.41-.423.037-.544.007-.703-.174-.248-.281-.103-.577.254-.52.084.014.105.011.207-.033a.7.7 0 0 1 .244-.06zm-.986 4.699a1.96 1.96 0 0 0-1.07.392c-1.468 1.105-.807 2.993 1.152 3.293.983.15 2.065-.728 2.105-1.709.048-1.194-1.072-2.043-2.187-1.976zm-4.565.213c-.497-.008-.973.15-1.275.476-.16.172-.174.173.33.002.863-.292 1.315-.31 1.717-.062a3 3 0 0 0 .195.111c1.036.512 1.05 2.008.023 2.62-1.405.836-3.217-.527-2.636-1.985.139-.35.076-.442-.123-.18-.651.855.137 2.34 1.379 2.602 1.915.402 3.235-1.841 1.802-3.067a2.25 2.25 0 0 0-1.412-.517zm4.746.068a1.8 1.8 0 0 1 1.037.29c1.271.862.77 2.774-.734 2.794a19 19 0 0 0-.443.012 2 2 0 0 1-.266 0c-1.064-.172-1.653-1.401-1.111-2.319.289-.489.902-.768 1.517-.777zm-.924.994a.55.55 0 0 0-.416.197c-.371.403-.301.933.14 1.057.122.035.41.019.554-.031.198-.068.192-.121-.028-.283a1 1 0 0 1-.132-.112c0-.038.084-.051.263-.04.28.016.31-.02.221-.259-.126-.336-.36-.524-.602-.529zm-4.744.24c-.237 0-.489.159-.629.442-.188.382-.025.635.442.68.683.065 1.002-.458.574-.944a.5.5 0 0 0-.387-.178zm-3.203.838c.04.01.12.19.166.442.04.21.107.48.281 1.105.156.56.205.84.205 1.184 0 .27-.02.299-.119.164-.095-.132-.13-.277-.197-.805a6 6 0 0 0-.084-.517 30 30 0 0 1-.267-1.387c-.019-.137-.009-.192.015-.186zm6.436.703c-.168-.003-.309.036-.399.13a5 5 0 0 1-.27.242c-.512.428-.684.647-.718.92-.015.12.016.281.057.292l.115.028c.294.066.39.222.453.726.06.482.128.627.352.737.106.052.11.05.17-.012.16-.168.285-.183.681-.084.468.117.656.032.647-.291l-.008-.256c-.009-.271.053-.352.484-.637.35-.23.353-.345.027-.85-.344-.532-1.089-.934-1.591-.945zm.894.813c.47.016.663.219.664.648 0 .154-.384.21-.861.125-.833-.147-1.104-.138-1.375.043-.182.122-.508-.073-.553-.33-.048-.275.278-.534.553-.44.25.087.453.086 1.008-.001q.33-.053.564-.045zm-1.078.916c.077-.01.155.038.213.162.16.338.079.765-.166.875-.306.138-.436.027-.37-.318a4 4 0 0 0 .034-.221c.035-.294.161-.48.29-.498zm.775.016c.091.007.192.074.284.21.227.341.163.735-.147.893-.246.126-.388-.11-.402-.674-.007-.286.114-.441.265-.43zm-6.251.808c.017.006.023.044.056.22.042.224.1.428.276.966.293.897.379 1.296.336 1.57-.044.275-.386-.507-.45-1.027-.022-.184-.04-.253-.19-.752-.204-.69-.217-.95-.052-.975q.015-.003.024-.002zm.363.285c.046-.013.298.584.424 1.004.068.228.404 1.557.404 1.598 0 .171-.376-.619-.55-1.154-.177-.543-.348-1.428-.278-1.448zm1.174.452c-.065.006-.101.032-.121.076-.05.108-.01.142.166.142.19 0 .48.045 1.123.172.33.066.685.13.787.143.22.028.955.035.97.01q.01-.017.002-.018c-.146 0-1.217-.14-1.351-.178a1.4 1.4 0 0 0-.197-.033q-.211-.019-.743-.18c-.337-.102-.528-.145-.636-.134zm1.4 2.767c.231.002.734.037 1.047.08.066.01.253.025.418.035.643.04.932.084.885.131-.117.117-2.473-.109-2.473-.236 0-.008.046-.01.123-.01z"/></svg>