<svg xmlns="http://www.w3.org/2000/svg" viewBox="0 0 24 24"><path d="M7.31 1.533a.44.44 0 0 0-.222.065 10.14 10.14 0 0 0-3.983 13.79 10.15 10.15 0 0 0 6.487 4.96V16.02c.316.106.634.197.963.263v5.156C4.504 20.636.258 15.084 1.063 9.033a11 11 0 0 1 .605-2.426.49.49 0 0 0-.277-.619.494.494 0 0 0-.62.278c-2.333 6.21.804 13.13 7.014 15.45 1.2.449 2.453.7 3.73.753v-6.09c.173.012.49.012.49.012s.315-.001.487-.014v6.078c6.631-.277 11.773-5.868 11.496-12.5a12.5 12.5 0 0 0-.763-3.703.478.478 0 0 0-.922.172 1 1 0 0 0 .025.17c2.15 5.71-.752 12.077-6.46 14.226a11 11 0 0 1-2.427.608V16.27c.33-.066.647-.157.963-.263v4.338c5.445-1.332 8.794-6.817 7.463-12.262a10.15 10.15 0 0 0-4.959-6.486.47.47 0 0 0-.644.183.47.47 0 0 0 .183.647c4.443 2.452 6.053 8.057 3.602 12.5a9.13 9.13 0 0 1-4.682 4.1V15.19a1.47 1.47 0 0 0 1.028-1.398c0-.527-.264-1.002-.725-1.266.343-3.309 1.86-2.44 1.86-3.494v-.619c0-1.582-3.667-6.736-5.382-6.855h-.316c-1.714.119-5.379 5.273-5.379 6.855v.62c0 1.053 1.504.184 1.86 3.493a1.46 1.46 0 0 0-.725 1.266c0 .646.421 1.2 1.027 1.398v3.836C3.91 17.168 1.59 11.83 3.447 7.11A9.24 9.24 0 0 1 7.55 2.43a.48.48 0 0 0 .183-.66.49.49 0 0 0-.421-.236zM8.837 12.84a1 1 0 0 1 .953.254.983.983 0 0 1-.012 1.398h-.002a.98.98 0 0 1-1.382 0 .995.995 0 0 1 0-1.398 1 1 0 0 1 .443-.254zm5.814 0a1 1 0 0 1 .954.254.995.995 0 0 1 0 1.398.995.995 0 0 1-1.399 0 .99.99 0 0 1 0-1.398 1 1 0 0 1 .445-.254z"/></svg>