<svg xmlns="http://www.w3.org/2000/svg" viewBox="0 0 24 24"><path d="M12 0C5.448 0 .117 5.383.117 12S5.448 24 12 24s11.883-5.383 11.883-12S18.552 0 12 0zm0 .66C18.187.66 23.22 5.747 23.22 12S18.188 23.34 12 23.34.78 18.252.78 12 5.812.66 12 .66zm2.717 2.727a3 3 0 0 0-.475.045c-1.188.217-4.049 1.047-4.049 1.047 3.54-.031 4.13.028 4.395.398.156.218-.072.518-1.016.672-1.027.168-3.162.37-3.162.37-2.049.123-3.493.13-3.926 1.046-.283.599.303 1.13.559 1.46 1.082 1.205 2.646 1.853 3.652 2.33.38.18 1.49.52 1.49.52-3.264-.18-5.62.825-7.001 1.979-1.562 1.445-.871 3.166 2.33 4.226 1.89.626 2.828.922 5.648.668 1.661-.09 1.924-.036 1.94.1.023.192-1.846.67-2.356.816-1.298.374-4.7 1.13-4.717 1.133 0 0 .979.068 2.237-.043.51-.045 2.443-.233 3.89-.55 0 0 1.764-.377 2.707-.725.987-.364 1.526-.674 1.768-1.111-.011-.09.072-.407-.383-.598-1.164-.488-2.513-.4-5.184-.457-2.962-.102-3.948-.6-4.472-.998-.503-.405-.251-1.527 1.906-2.514 1.086-.526 5.346-1.496 5.346-1.496-1.434-.709-4.108-1.954-4.658-2.223-.482-.236-1.255-.591-1.422-1.021-.19-.413.448-.767.804-.87 1.147-.33 2.767-.536 4.24-.56.742-.012.862-.058.862-.058 1.022-.17 1.693-.87 1.412-1.977-.22-.989-1.263-1.62-2.365-1.61z"/></svg>