<svg xmlns="http://www.w3.org/2000/svg" viewBox="0 0 24 24"><path d="M10.438.002Q9.89.011 9.3.076c-4.786.54-7.595 4.526-7.758 9.358C.423 11.63.093 14.214.82 16.74c1.392 4.841 6.203 7.768 11.145 7.188l.904-.108c4.944.327 6-1.021 7.184-4.308.125-.27.303-.769.566-1.57l.022-.096c.788-2.147.903-4.57.24-6.875a10 10 0 0 0-.272-.81 1.9 1.9 0 0 1 .008-.598 3.3 3.3 0 0 1 1.076-1.098l.274-1.871c.287-.322.176-.6.19-1.059.165-.08.256-.214.325-.43.077-.237.448-.685.862-1.033.064-.188.224-.571.222-.892-1.984.227-3.23.606-4.226-.612l-.53-.207c-.24-.372-.67-.585-.978-.95l-.35 1.21c-.43-.265-2.742-2.687-7.044-2.619zm.138.795c2.59.036 4.962 1.343 6.207 2.28l-.949.353-.596-.381-.27.787v.324l-.734 1.762-.08-.026.38-1.574.57-1.515-.192-.164-.84.92c-.18.978-.09 2.357-.54 2.93.14-1.15.34-2.156.353-3.499l-.489-.162c-.113.594-.265 1.275-.382 1.652l.164-1.705-.621.405v.976l-.164-.54-.055-.977-.217-.03-.162.625c.028.27-.014.542.217.813l.054 2.06.133.246-.242 1.164.027-1.138-.08-.08-.164-2.006-.27-1.086-.435-.27-.164-.46-.459-.03 1.03 3.69.08 1.109c-.117-.526-.112-1.1-.567-1.49.045-.553-.037-1.093-.707-1.572l-.975-2.006c-.032-.237-.366-.276-.597-.381-.07.319-.13.641.082 1.031.488.775.977 1.556 1.465 1.979l.025.949c-.16-.875-.602-1.347-.76-1.219-.005-.713-.789-.98-1.244-1.437l-.056-.786-.27-.056c.17.532-.218.57.541 1.627l.027.38c-.29-.195-.578-.562-.867-.974l-.351-.625c.038.427-.175.522.134 1.273.454.395.864.976 1.383 1.114 0 0 .11.19 0 .19-.108 0-.326-.085-.326-.085-.3-.137-.584-.26-1.164-.678l-.598-1.761-.271-.053.056.95.243.107.025.623c.106.37.227.516.408.46-.1.125-.22.151-.46.137-.2-.378-.324-.744-.733-1.191l-.27-.787-.162.162a2.2 2.2 0 0 0 0 .976c-.264-.157-.657-.593-1.123-.82C6.104 1.512 8.468.833 10.326.8l.25-.002zm7.555 2.187.515.17 1.514.866 2.147.017c-.615.242-1.373.525-1.858.672l-.613-.018c-.485-.414-.874-.612-1.309-.875-.526.551-.836 1.034-1.01 1.737l.153-1.192.52-1.17zm-13.578.332L5.1 4.404l.027.244-.299-.107-.27-.623-.298.215-.215-.127q.233-.368.508-.69zm3.52 2.307c1.612-.037 1.867 1.305 2.126 2.545v2.223c.186.019.568 1.135.489 1.49-.046.204.487 1.422.449 1.426.288.278.235.247.465.423.316.243.601 1.134.425 1.264-.167.124.22.4.313.6.566.506.987 1.012.978 1.52l.27.488.514.08.136.191.65.08c.376-.08.32-.485.434-.76.022-.278-.057-.598-.46-.949.02-.42.074-.835-.325-1.326.056-.503-.31-.92-.598-1.355-.034-.373-.196-.884-.32-1.38-.06-.243-.09-.497-.139-.738-.18-1.674.058-1.86.133-2.763.618-.93.944-1.378 1.494-1.575l.704.872c.347.63.198 1.438 1.058 1.597l.022.022c.439-.396 1.02-.383 1.494-.395l-.059.188c-.57-.06-1.035-.076-1.42.214l.383.375c.412-.536.98-.5 1.54-.52l.007.206c-.604-.08-1.181.02-1.494.361l.123.118h.004c.465-.363 1.022-.382 1.549-.39l-.104.184c-.53.044-.892.009-1.271.23q.439.044.878.085l.112.242.676.057c.12.03.213.042.3.045q.124.329.225.673a10 10 0 0 1 .059 5.272c-1.356 3.64-2.799 4.614-5.73 4.418-3.06-.205-5.53-3.607-7.706-8.266-.475-1.292-1.637-2.11-2.312-1.42-3.073 3.055.393 8.49 2.1 9.801a16.3 16.3 0 0 0 2.868 1.67c-3.38-.563-6.269-2.913-7.244-6.307-1.177-4.092.77-8.374 4.486-10.423l.014-.006c.694-.26 1.251-.377 1.703-.387zm10.222 2.041c.293.045.835.365 1.133.662.09.243-.134.353-.12.496-.022-.072-.418-.559-1.013-1.158zm1.8 2.182c-.003.252-.082.339-.19.472-.112.01-.39-.075-.512-.25.185-.212.468-.208.703-.222zm-2.833.17c-.06.07-.087.156-.157.304.092-.14.146-.2.207-.244zm.14.175c-.225.063-.384.418-.609.92.24-.296.404-.715.742-.85zm-11.84 2.913.055 1.052-1.652.95-.027-.786c.688.18 1.145-.558 1.624-1.216zm.735 2.248.242.623-2.088 1.138-.299-.707c2.09-.764 1.732-.757 2.145-1.054zm.758 1.435.271.461c-.787.389-1.436.913-2.006 1.518l-.433-.866c.789-.24 1.53-.573 2.168-1.113zm1.004 1.303.46.433c-.36.81-1.107 1.311-1.818 1.842l-.728-.84c.716-.469 1.625-.838 2.086-1.435zm1.431 1.404c.042-.006.113.033.108.098.072.432-.221 1.073-1.213 2.021-.386-.174-.786-.336-1.033-.65 1.607-.814 2.02-1.254 2.138-1.469zm1.117.766c.036.382-.04.829.19 1.082l.215.054c-.113.47-.34.822-.325 1.291-.856-.207-.952-.296-1.275-.503.996-1.55 1.187-1.912 1.195-1.924zm1.409.783 1.056 1.22c-.106.585-.097.933.3 1.085-.6-.033-1.187-.04-1.68-.344.43-.637.424-1.208.324-1.961zm5.324.475c.307.467.347.705.654.812-.405.393-.586.47-1.062.65.149-.303 0-.728-.133-1.244-.1-.192.399-.175.54-.218zm-2.992.285c1.786.534 1.18.871 1.728 1.404-.472.1-.904.204-1.656.162.555-.41.302-.868-.072-1.566z"/></svg>