<svg xmlns="http://www.w3.org/2000/svg" viewBox="0 0 24 24"><path d="M11.975 2.898c-.828 0-1.498.669-1.498 1.497v2.521a1.497 1.497 0 1 0 2.996 0V4.395c0-.828-.67-1.497-1.498-1.497zm-10.428.897a1.48 1.48 0 0 0-1.26.615c-.49.67-.337 1.603.332 2.092l4.223 3.07c.67.49 1.602.34 2.092-.33a1.495 1.495 0 0 0-.332-2.092L2.379 4.08a1.53 1.53 0 0 0-.832-.285zm21.191.012a1.5 1.5 0 0 0-1.115.271v.002L17.4 7.15a1.5 1.5 0 0 0-.33 2.092 1.5 1.5 0 0 0 2.092.33l4.223-3.07c.67-.49.811-1.422.33-2.092a1.5 1.5 0 0 0-.977-.603zM11.975 9.145c-3.07 0-5.87 1.158-7.993 3.054H19.97a11.96 11.96 0 0 0-7.994-3.054zm6.564 4.689c-1.347 0-2.236.443-2.8.992-.596.587-1.024 1.505-1.024 2.649 0 1.302.563 2.145 1.008 2.59.843.842 1.927 1.037 2.83 1.037 1.482 0 2.279-.459 2.783-.948s.725-1.024.83-1.408h-2.342a1.16 1.16 0 0 1-.43.46c-.308.165-.736.18-.796.18-.55 0-.858-.187-1.008-.337-.293-.286-.43-.776-.43-1.145h5.096v-.263c0-.76-.12-1.957-1.084-2.875-.813-.768-1.835-.932-2.633-.932zm-12.299.082c-.67 0-1.467.247-2.047.947v-.828H1.74v6.858h2.446v-3.38c0-.428 0-1.083.43-1.497.195-.204.406-.248.67-.248.247 0 .525.051.735.277.28.286.325.814.325 1.469v3.379h2.447v-3.508c0-.339.03-.904.443-1.303a1 1 0 0 1 .723-.277c.316 0 .503.106.639.226.278.256.353.744.353 1.467v3.379h2.445v-4.455c0-.474-.028-1.286-.638-1.881-.565-.55-1.393-.625-1.897-.625-.46 0-.932.06-1.422.338-.308.165-.655.46-.933.95a2.13 2.13 0 0 0-.95-.98c-.368-.203-.826-.308-1.316-.308zm12.358 1.475c.24 0 .684.045 1.007.369.189.188.34.473.4.736h-2.769a1.4 1.4 0 0 1 .37-.736c.256-.264.578-.37.992-.37z"/></svg>