<svg xmlns="http://www.w3.org/2000/svg" viewBox="0 0 24 24"><path d="M12.365.002q-.219-.006-.44.008C7.59-.032 4.38 3.263 4.37 8.504c-.152 4.072 1.787 8.551 7.527 8.605 2.275.055 4.345-.91 5.59-3.474h.06l.005 1.63c.005 1.187-.019 1.879-.23 2.92-.359 1.756-1.154 2.943-2.505 3.579-1.345.634-3.499.67-5.082.174-1.618-.596-2.457-1.686-2.681-3.028-.695-.007-1.376.015-2.07.008.173 3.001 2.839 4.868 6.447 5.076 3.833.08 8.016-.77 8.209-7.81V.467l-2.1-.004-.002 2.918-.059-.002c-.89-1.883-2.924-3.32-5.115-3.377zm-.338 1.715c3.902.025 5.406 3.384 5.502 6.644.147 3.556-1.87 7.558-6.402 6.967-3.06-.457-4.716-3.323-4.703-6.762-.021-3.258 1.65-6.866 5.603-6.85z"/></svg>