<svg xmlns="http://www.w3.org/2000/svg" viewBox="0 0 24 24"><path d="M12.01 1.484c-2.082 0-3.753.02-3.742.047.01.02 1.707 3.002 3.773 6.621l3.76 6.575h3.76c2.08 0 3.753-.02 3.742-.047-.005-.02-1.709-3.002-3.776-6.621l-3.76-6.575zm-4.76 1.73a789.828 789.861 0 0 0-3.63 6.32L0 15.866l1.89 3.299 1.885 3.297 3.62-6.334 3.619-6.33-1.881-3.287C8.1 4.705 7.255 3.22 7.25 3.215zm2.26 12.653-.203.35c-.114.198-.961 1.672-1.881 3.287a423.93 423.948 0 0 1-1.697 2.969c-.01.026 3.238.043 7.22.043h7.244l1.797-3.159c.992-1.734 1.85-3.229 1.906-3.322l.104-.168z"/></svg>