<svg xmlns="http://www.w3.org/2000/svg" viewBox="0 0 24 24"><path d="M12 0C8.926 0 5.853 1.17 3.512 3.512c-4.37 4.37-4.66 11.298-.87 16.01a3.14 3.14 0 0 1 .72-3.315 3.14 3.14 0 0 1 3.671-.56 6.163 6.163 0 0 1 9.324-8.004 2.922 2.922 0 0 0 4.131-4.131A11.97 11.97 0 0 0 12 0zm9.36 4.48a3.14 3.14 0 0 1-.72 3.315 3.14 3.14 0 0 1-3.671.559 6.165 6.165 0 0 1-.612 8.003 2.921 2.921 0 0 0 4.131 4.131c4.37-4.37 4.661-11.298.871-16.008zM5.575 15.5v.002a2.92 2.92 0 0 0-2.922 2.922 2.92 2.92 0 0 0 2.922 2.922 2.92 2.92 0 0 0 2.922-2.922A2.92 2.92 0 0 0 5.576 15.5zm2.778 1.469a3.14 3.14 0 0 1-.561 3.672 3.14 3.14 0 0 1-3.314.716c4.376 3.523 10.666 3.523 15.04 0a3.14 3.14 0 0 1-3.314-.716 3.14 3.14 0 0 1-.559-3.672 6.17 6.17 0 0 1-7.292 0z"/></svg>