<svg xmlns="http://www.w3.org/2000/svg" viewBox="0 0 24 24"><path d="M10.816.002c-.305-.03-.304.275-.304.275 0 .408.756 1.585 1.5 2.051l5.058 3.01c.048.028.09.064.131.098v8.595l1.201-.814a.42.42 0 0 0 .192-.397l.06-7.564a.88.88 0 0 0-.42-.781c-.35-.253-.683-.472-1.005-.672-.004-.002-.008-.009-.012-.012l-.363-.217-.006-.004C14.696 2.28 11.234.131 10.967.037a.7.7 0 0 0-.15-.035zM9.367 2.369a.8.8 0 0 0-.428.115l-1.431.856C5.56 4.498 1.524 6.893 1.359 6.975a.276.276 0 0 0 0 .48 3.15 3.15 0 0 0 2.496-.312l5.036-3.045a.85.85 0 0 1 .859.007l6.66 3.956V6.645a.44.44 0 0 0-.24-.372L9.79 2.496a.8.8 0 0 0-.423-.127zm11.305 2.94c-.096-.015-.195.017-.195.017a3.37 3.37 0 0 0-1.008 2.399v5.996a1 1 0 0 1-.192.412l-6.199 3.724 1.2.684a.42.42 0 0 0 .443 0l5.683-3.418c.335-.207.442-.407.442-.705l.002-.002v-1.752l-.004.018c-.006-2.494-.013-6.83.004-7.104.012-.192-.08-.254-.176-.27zm-11.121.05a.4.4 0 0 0-.215.063L3.688 8.756a.86.86 0 0 0-.456.767v8.862a.216.216 0 0 0 .36.156 3.3 3.3 0 0 0 1.043-2.398v-5.997a.9.9 0 0 1 .097-.367l6.235-3.648-1.2-.71a.4.4 0 0 0-.216-.062zm2.459 1.51a.44.44 0 0 0-.229.065L7.85 9.33a.49.49 0 0 0-.229.408v.518l4.39 2.613 4.387-2.613v-.518a.47.47 0 0 0-.226-.408l-3.934-2.396a.44.44 0 0 0-.228-.065zM6.854 9.895l-1.2.709a.49.49 0 0 0-.226.394v7.867a.9.9 0 0 0 .406.72l1.268.786 6.023 3.59a.216.216 0 0 0 .336-.217 3.26 3.26 0 0 0-1.535-2.156l-4.977-2.963c-.04-.025-.06-.07-.095-.1zm.767 1.474v1.08l4.39 2.614 4.387-2.567v-1.078L12.25 13.84a.8.8 0 0 1-.24.072.43.43 0 0 1-.24-.072zm8.803 2.184L12.25 16.07a.43.43 0 0 1-.48 0L7.62 13.6v.793c0 .17.087.326.229.42l3.931 2.398c.123.06.163.068.229.062.088-.003.173-.073.252-.11l3.933-2.4a.47.47 0 0 0 .229-.42zm-8.803 2.35v1.39a.67.67 0 0 0 .203.396l6.358 3.766a.84.84 0 0 0 .886 0l1.414-.863h-.003l6.156-3.647a.252.252 0 0 0 0-.455 3.15 3.15 0 0 0-2.52.3l-5.035 2.985a.88.88 0 0 1-.887 0l-.017-.005z"/></svg>