<svg xmlns="http://www.w3.org/2000/svg" viewBox="0 0 24 24"><path d="M11.986 0a8.44 8.44 0 0 0-6.17 2.766l-.015.017 3.666 3.084L14.162.285l-.047-.012A8.3 8.3 0 0 0 11.986 0zm2.674.436-3.838 4.562.028-.01c1.6-.55 3.403.151 4.22 1.627.176.32.323.683.377 1.045.068.446.085.774.012 1.22l-.004.016 3.838-4.56A8.38 8.38 0 0 0 14.67.439zM5.492 3.148l-.004.004c-1.947 2.466-2.28 5.882-1.117 8.772l4.785-5.69-.056-.05zm14.035 1.65L8.494 17.919c.645.854 1.28 1.726 1.79 2.67.437.812.735 1.651 1.019 2.525.116.357.229.886.695.887h.008c.39-.003.518-.373.627-.687.116-.335.219-.675.34-1.008.12-.334.241-.668.382-.992.425-.977 1.05-1.87 1.668-2.727 1.354-1.874 2.997-3.566 4.098-5.613 1.342-2.495 1.618-5.566.406-8.174zM8.545 7.706l-3.96 4.707c.725 1.54 1.822 2.863 2.872 4.18q.371.464.736.935l4.985-5.923-.03.01c-1.74.6-3.69-.291-4.39-1.987a3.4 3.4 0 0 1-.21-.717c-.062-.437-.076-.76-.003-1.197z"/></svg>