<svg xmlns="http://www.w3.org/2000/svg" viewBox="0 0 24 24"><path d="M12.215.004c-.694.019-.907.229-.906.924l.015 6.457C7.947 3.045.26 4.737.002 11.32c-.009 1.341.053 1.352 1.404 1.352 1.967 0 4.037.008 5.987-.008-4.46 3.463-2.579 11.412 4.466 11.334.573-.019.818-.256.819-.832.003-1.929 0-4.32 0-6.494 3.519 4.252 11.097 2.6 11.32-4.123.013-1.112-.13-1.219-1.227-1.219l-6.13-.002C21.375 7.31 18.624-.183 12.215.004zm.465 1.385c6.595.44 6.558 9.505-.002 9.97zM6.248 6.373c2.398-.057 4.838 1.535 5.102 4.95l-9.95-.009c.094-3.179 2.45-4.884 4.848-4.941zm5.07 6.27.002 9.968c-6.292-.244-6.929-9.37-.002-9.968zm1.32.037 9.977.01c-.307 6.273-9.294 6.865-9.976-.01z"/></svg>