<svg xmlns="http://www.w3.org/2000/svg" viewBox="0 0 24 24"><path d="M6.957 1.338a2 2 0 0 0-.957.27 2.02 2.02 0 0 0-.74 2.761l3.238 5.61H2.021a2.021 2.021 0 1 0 0 4.042h6.477l-3.238 5.61a2.022 2.022 0 1 0 3.502 2.021L12 16.045l3.238 5.607a2.022 2.022 0 0 0 3.502-2.021l-3.238-5.61h6.477a2.021 2.021 0 1 0 0-4.042h-6.477l3.238-5.61a2.022 2.022 0 1 0-3.502-2.021L12 7.955 8.762 2.348a2.02 2.02 0 0 0-1.805-1.01zm9.959 1.006c.193-.013.393.031.578.138a.996.996 0 0 1 .371 1.381l-4.113 7.125h8.227A.997.997 0 0 1 22.99 12a.997.997 0 0 1-1.011 1.012h-7.06l-1.167-2.024-1.168-2.023 3.53-6.111a1 1 0 0 1 .802-.51zm-9.934.004c.36-.01.709.166.905.506l3.529 6.11-1.168 2.024-1.168 2.024H2.021A.997.997 0 0 1 1.01 12c0-.57.44-1.012 1.011-1.012h8.227L6.135 3.863a.996.996 0 0 1 .37-1.38 1 1 0 0 1 .477-.135zM9.666 14.02h4.668l3.531 6.116a.996.996 0 0 1-.37 1.38.996.996 0 0 1-1.382-.37L12 14.024l-4.113 7.121a.996.996 0 0 1-1.381.372.996.996 0 0 1-.371-1.381z"/></svg>