<svg xmlns="http://www.w3.org/2000/svg" viewBox="0 0 24 24"><path d="M3.088 4.234a3.07 3.07 0 0 0-2.184.91A3.13 3.13 0 0 0 0 7.35v9.296a3.13 3.13 0 0 0 .902 2.206 3.07 3.07 0 0 0 2.186.914h4.28a3.08 3.08 0 0 0 2.712-1.647l1.21-2.275a.79.79 0 0 1 .702-.42.78.78 0 0 1 .701.42l1.21 2.275a3.08 3.08 0 0 0 2.718 1.647h4.291a3.07 3.07 0 0 0 2.186-.914A3.13 3.13 0 0 0 24 16.646V7.35c0-.825-.324-1.618-.904-2.205a3.07 3.07 0 0 0-2.184-.91zM6.58 9.891h.002c1.138 0 2.06.936 2.06 2.091 0 1.157-.922 2.094-2.06 2.094-1.139 0-2.06-.937-2.06-2.094 0-1.155.92-2.091 2.058-2.091zm10.834 0c1.14 0 2.06.936 2.06 2.091 0 1.157-.922 2.094-2.06 2.094-1.14 0-2.062-.937-2.062-2.094 0-1.155.923-2.091 2.062-2.091z"/></svg>