<svg xmlns="http://www.w3.org/2000/svg" viewBox="0 0 24 24"><path d="M18.232 1.908a5.8 5.8 0 0 0-1.392.117c-1.11.243-2.173.773-2.979 1.582-.622.613-1.243 1.23-1.865 1.842-.915-.91-1.787-1.937-2.88-2.648a5.98 5.98 0 0 0-3.905-.846c-4.757.578-6.936 6.348-3.615 9.852 3.48 3.418 6.938 6.862 10.414 10.287 3.29-3.251 6.573-6.51 9.87-9.752 2.133-1.831 2.8-5.027 1.339-7.475-1.004-1.782-2.97-2.884-4.987-2.959zM5.882 5.514a2.38 2.38 0 0 1 1.679.63c.627.61 1.235 1.238 1.865 1.844l.006.006a415 415 0 0 0-3.27 3.229c-.692-.755-1.51-1.403-2.14-2.207-.822-1.218-.159-3.014 1.26-3.399.194-.064.397-.097.6-.103zm12.009.007c2.086-.154 3.284 2.374 1.8 3.868-2.549 2.542-5.121 5.06-7.683 7.591l-3.254-3.218c2.555-2.516 5.101-5.043 7.648-7.567a2.3 2.3 0 0 1 1.489-.674z"/></svg>