<svg xmlns="http://www.w3.org/2000/svg" viewBox="0 0 24 24"><path d="M12.006 0a3.158 3.158 0 0 0-1.32 6.027.63.63 0 0 1 .373.573v3.623a.08.08 0 0 1-.12.066L7.805 8.48a.63.63 0 0 1-.313-.605 3.157 3.157 0 1 0-1.306 2.295.63.63 0 0 1 .687-.04l3.12 1.802a.08.08 0 0 1 0 .136l-3.14 1.813a.63.63 0 0 1-.681-.035 3.16 3.16 0 0 0-3.461-.125 3.194 3.194 0 0 0-1.145 4.203A3.159 3.159 0 0 0 7.49 16.13a.63.63 0 0 1 .31-.61l3.138-1.81a.08.08 0 0 1 .119.068V17.4a.63.63 0 0 1-.371.573 3.158 3.158 0 1 0 2.638 0 .63.63 0 0 1-.373-.573v-3.62a.08.08 0 0 1 .12-.07l3.136 1.811a.63.63 0 0 1 .31.61 3.159 3.159 0 0 0 5.924 1.793 3.194 3.194 0 0 0-1.14-4.203 3.16 3.16 0 0 0-3.463.123.63.63 0 0 1-.682.035l-3.136-1.81a.08.08 0 0 1 0-.137l3.119-1.8a.63.63 0 0 1 .685.036 3.16 3.16 0 0 0 3.47.139A3.194 3.194 0 0 0 22.442 6.1a3.158 3.158 0 0 0-5.923 1.773.63.63 0 0 1-.311.606l-3.137 1.81a.08.08 0 0 1-.117-.066V6.6a.63.63 0 0 1 .371-.573A3.158 3.158 0 0 0 12.006 0z"/></svg>