<svg xmlns="http://www.w3.org/2000/svg" viewBox="0 0 24 24"><path d="M12.94 0c-1.805 1.145-2.147 2.744-2.147 2.744l-.018.094q-.149.042-.298.088c-.138.042-.275.093-.413.142-.138.055-.275.107-.41.166a9 9 0 0 0-1.556.87l-.065-.03c-2.497-.955-4.715.196-4.715.196-.203 2.658.996 4.33 1.235 4.636a11.6 11.6 0 0 0-.608 2.635C1.635 12.677.953 15.014.953 15.014c1.926 2.214 4.17 2.351 4.17 2.351q.006-.002.008-.006c.285.51.613.996.984 1.448q.235.283.489.547c-.704 2.009.1 3.68.1 3.68 2.143.08 3.553-.937 3.849-1.173a9.8 9.8 0 0 0 3.164.5h.08l.055-.002.105-.002.104-.005.003.002c1.01 1.44 2.788 1.646 2.788 1.646 1.264-1.332 1.337-2.652 1.337-2.94v-.058l-.003-.06q.4-.281.757-.6a8 8 0 0 0 1.416-1.7c1.43.084 2.438-.884 2.438-.884-.236-1.49-1.087-2.218-1.266-2.356l-.017-.011-.016-.014-.031-.02q.012-.137.02-.27a7 7 0 0 0 .017-.48v-.253l-.006-.098-.008-.135a2 2 0 0 0-.01-.13q-.005-.064-.013-.126l-.016-.123-.017-.123A6.2 6.2 0 0 0 19.4 9.891a6 6 0 0 0-3.22-1.461 6 6 0 0 0-.852-.047l-.105.002h-.065l-.043.002-.103.008a4.78 4.78 0 0 0-3.336 1.695c-.332.4-.592.84-.768 1.297a4.6 4.6 0 0 0-.312 1.816l.004.092c.005.055.005.11.011.164a3.6 3.6 0 0 0 .7 1.82 3.53 3.53 0 0 0 1.826 1.282c.33.098.66.14.97.136q.061 0 .116-.002l.062-.002.063-.004c.034-.002.063-.006.097-.01l.03-.001.03-.006.06-.008a1 1 0 0 0 .113-.02q.053-.01.107-.025a2.6 2.6 0 0 0 .914-.414q.042-.029.086-.064a.25.25 0 0 0 .04-.352.244.244 0 0 0-.31-.059l-.078.041q-.135.067-.283.118a2.5 2.5 0 0 1-.474.095l-.084.006-.082.002-.08-.002-.104-.006h-.012l-.023.006-.043-.006-.092-.01a2.6 2.6 0 0 1-.724-.212 2.6 2.6 0 0 1-.666-.44 2.52 2.52 0 0 1-.805-1.474 2.3 2.3 0 0 1-.03-.444l.006-.123v-.021l.002-.031.004-.061a3.16 3.16 0 0 1 1.354-2.29 3.1 3.1 0 0 1 .935-.43 3 3 0 0 1 .778-.1h.058l.07.002.046.002h.027l.068.005a4 4 0 0 1 1.637.49 3.94 3.94 0 0 1 1.601 1.663 3.8 3.8 0 0 1 .397 1.414l.006.074.002.076q.003.039.002.074c0 .024.003.053 0 .07v.065l-.002.074-.008.174a6 6 0 0 1-.08.639 5 5 0 0 1-.268.928 5.3 5.3 0 0 1-.623 1.129 5.05 5.05 0 0 1-3.236 2.013 5 5 0 0 1-.65.067l-.04.004h-.287a6.6 6.6 0 0 1-1.714-.266 6.8 6.8 0 0 1-3.4-2.274 7 7 0 0 1-.747-1.15 6.6 6.6 0 0 1-.715-2.596l-.004-.084-.002-.02v-.056l-.004-.072v-.096l-.002-.103v-.07l.002-.165c.008-.22.027-.45.055-.677a9 9 0 0 1 .28-1.356q.191-.667.472-1.275a7 7 0 0 1 1.457-2.102 6 6 0 0 1 .953-.761q.254-.167.524-.307c.089-.05.182-.09.273-.135l.139-.062a7 7 0 0 1 .713-.266l.144-.047.149-.04c.098-.03.198-.051.297-.075.049-.013.1-.02.15-.033l.148-.034.153-.027.076-.014.074-.01.152-.023c.057-.01.115-.013.172-.023l.168-.022.108-.01.072-.007.035-.002.043-.002c.057-.003.115-.01.172-.012l.086-.006h.021l.037-.002.147-.008a8 8 0 0 1 1.707.125 8 8 0 0 1 2.049.68 8.3 8.3 0 0 1 1.672 1.092l.09.076.087.078q.088.079.172.158.085.08.166.16c.052.056.107.108.159.165a8.7 8.7 0 0 1 1.41 1.978c.012.026.029.052.04.078l.04.078.076.157q.036.074.068.152l.067.15a9 9 0 0 1 .449 1.34.19.19 0 0 0 .201.143.186.186 0 0 0 .172-.186q.015-.369-.023-.855a8.6 8.6 0 0 0-.862-3.033A8.9 8.9 0 0 0 20.37 5.11c.337-1.342-.414-2.506-.414-2.506-1.292-.08-2.113.402-2.416.622-.052-.02-.1-.045-.152-.065a10 10 0 0 0-.678-.248q-.348-.11-.711-.195a10 10 0 0 0-.875-.162C14.557.753 12.939 0 12.939 0z"/></svg>