<svg xmlns="http://www.w3.org/2000/svg" viewBox="0 0 24 24"><path d="M12.004 0a11.92 11.92 0 0 0-8.486 3.512A11.92 11.92 0 0 0 0 11.998a11.93 11.93 0 0 0 3.516 8.488A11.9 11.9 0 0 0 11.994 24a11.92 11.92 0 0 0 8.488-3.512A11.92 11.92 0 0 0 24 12.004c0-3.205-1.247-6.22-3.512-8.486A11.92 11.92 0 0 0 12.004 0zm-.002 1.336h.002C17.883 1.338 22.662 6.12 22.662 12v.148H19.41c.488.15.817.596.885 1.235l.004.043-.934.103-.004-.047c-.04-.479-.312-.529-.427-.529-.258 0-.4.164-.4.463 0 .369.34.657.73.99.503.427 1.074.911 1.074 1.713 0 .845-.554 1.371-1.447 1.371-.9 0-1.34-.74-1.375-1.474l-.002-.041.931-.133.004.047c.031.469.208.738.485.738.298 0 .47-.156.47-.428 0-.443-.352-.738-.76-1.078-.488-.407-1.042-.867-1.042-1.697 0-.847.516-1.334 1.418-1.334q.206.001.386.056c.627-.16.946-.665.946-1.511V8.609c0-.545-.134-.953-.397-1.213q-.357-.354-1.03-.353h-1.341l-.002 5.103h-.8l.001-5.103-.853-.004v.016l-.004 2.812-1.043-2.828h-.867l-.002 5.106h-.463l-.947-5.106h-1.147l-.95 5.106h-.314l-.732-2.272c.282-.136.611-.47.611-1.299 0-1.06-.468-1.534-1.523-1.535H7.277v5.106h-.843V9.557H4.93v.748h.564v.466c-.002.495-.126.678-.459.678-.263 0-.385-.16-.385-.508V8.318q.002-.53.366-.53c.31 0 .478.149.478.935v.025h.899v-.352c0-.866-.533-1.427-1.356-1.427-.807 0-1.326.526-1.326 1.336v2.629c0 .576.24 1.007.644 1.209h1.1c.13-.073.239-.175.35-.303l.13.303h.452v.86H4.799v1.241h1.187v.863H4.8v2.29h-.98v-5.252H1.338l-.002-.147c0-2.85 1.11-5.527 3.127-7.541a10.6 10.6 0 0 1 7.539-3.121zm-3.783 6.48h.287c.476 0 .627.185.627.758s-.152.756-.63.756H8.22zm10.306.002h.28c.454 0 .607.175.607.688v2.234c0 .282-.045.453-.148.555-.093.092-.235.13-.461.13h-.278zm-6.494.403.323 2.031h-.649l.057-.352zm2.84.883 1.072 3.039h.41v5.253h-.974v-5.25h-.508zm-6.242.984.607 2.058h-.49c1.001.03 1.451.514 1.451 1.565 0 .834-.323 1.18-.611 1.324l.76 2.361h-.998L8.72 15.26a5 5 0 0 1-.383.02v2.116H7.36v-5.253h.858v-2.038c.142 0 .303-.007.41-.017zm2.94.98h.921l.15 1.075h.635l.967 5.253h-.93l-.175-1.144h-.897l-.172 1.144h-.935l.969-5.25h-.682zm-3.231 1.893v1.5h.27c.47 0 .613-.175.613-.75 0-.574-.142-.75-.612-.75zm4.353.353-.328 2.153h.655z"/></svg>