<svg xmlns="http://www.w3.org/2000/svg" viewBox="0 0 24 24"><path d="M12 0C5.373 0 0 5.373 0 12s5.373 12 12 12 12-5.373 12-12S18.627 0 12 0zm.268 1.955c.266.004.539.116.689.416.15.315.182.735.182 1.035-.645-.029-1.215.692-1.215.692s.523-.241 1.185-.256c0 0 .179.164.389.449-.284.556-.779 1.725-.42 2.97.061.24.15.45.256.63.015.016.016.016.016.03l.029.03c.585.886 1.648.977 1.648.977a2.65 2.65 0 0 1-1.168-1.125 3.2 3.2 0 0 1-.271-.647c-.285-1.08.135-1.724.375-2.144a2.74 2.74 0 0 1 2.61-1.23A2.72 2.72 0 0 1 18.97 6.81a2.72 2.72 0 0 1-1.408 2.085c.18.494-.016 1.08-.016 1.08.449.57.479.9.465 1.215-.585-.09-1.14.301-1.14.301s1.11-.255 1.755.315c.42.449.704.87.87 1.17.24.435 1.349.463 1.228 1.228-.135.78-.99.78-2.31-.09l.073-.15c-1.25-.825-1.964-1.524-2.588-2.777-.427.858-1.42 2.134-3.097 3.138-.84 2.61-4.824 7.607-6.114 6.887-.38-.195-.452-.48-.367-.766.093-.704 1.567-2.34 1.567-2.34s.029.345.494 1.065c-.63-1.936 1.02-4.305 1.455-5.131.689-.209.734-1.096.734-1.096.046-1.362-.567-2.337-1.152-2.937.42.525.552 1.305.566 2.023v.254c-.029.601-.209 1.41-.584 1.41v.018c-.39-.016-.886.073-1.32.209l-.96.238s.51-.014.78.227c-.314.51-1.005 1.125-1.771 1.484-1.11.525-1.44-.51-.87-1.17.136-.165.286-.3.405-.404a.56.56 0 0 1-.148-.36c-.075-.344-.046-.78.449-1.486.09-.149.21-.298.346-.447l.013-.018.018-.013v-.016c.029-.046.073-.075.103-.12.57-.584 1.484-1.2 2.91-1.74l.063-.09c1.643-2.403 2.248-2.866 2.248-2.866.181-.18.51-.419.613-.479-.87-1.515-1.049-3.646-.824-4.215a.24.24 0 0 0-.06.106c.09-.195.134-.257.224-.362.12-.135.38-.24.647-.236zm3.439 2.524c-.422.014-.857.241-1.318.773-1.052 1.199-.383 2.608.58 3.283.96.69 2.535.227 3.135-.914l.01-.008c.59-1.13-.247-1.79-.825-2.332-.52-.49-1.04-.821-1.582-.802zm1.215 1.755a.4.4 0 0 1 .353.147c.8.89-.385 1.215-.755.77-.28-.334.04-.872.402-.917zm-4.447 2.069a.37.37 0 0 0-.256.103.366.366 0 0 0 0 .512.36.36 0 1 0 .256-.615zm-.76.76a.362.362 0 0 0-.254.617.366.366 0 0 0 .51 0 .362.362 0 0 0-.256-.617zm1.553.128a.56.56 0 0 0-.399.164l-.465.467a.56.56 0 0 0 0 .797l.51.51c.222.225.579.21.797 0l.469-.467a.557.557 0 0 0 0-.793l-.516-.525v.011a.56.56 0 0 0-.396-.164z"/></svg>