<svg xmlns="http://www.w3.org/2000/svg" viewBox="0 0 24 24"><path d="M11.918.018C4.905.135-.102 5.974.002 11.955c.023 7.33 6.017 12.175 12.08 12.025 7.208-.2 12.324-6.461 11.893-12.05a2.197 2.197 0 0 0-2.192-2h-3.15a2.155 2.155 0 0 0-2.16 2.146c0 1.187.967 2.149 2.16 2.149h.787c-.87 2.79-3.62 5.453-7.44 5.558-3.803.095-7.61-2.903-7.767-7.568a2 2 0 0 0 0-.158c-.148-3.72 2.894-7.638 7.879-7.846a2.096 2.096 0 0 0 2.004-2.184 2.095 2.095 0 0 0-2.07-2.01zm.09 9.91a2.15 2.15 0 0 0-2.147 2.15 2.15 2.15 0 0 0 2.147 2.152 2.15 2.15 0 0 0 2.146-2.152 2.15 2.15 0 0 0-2.146-2.148z"/></svg>