<svg xmlns="http://www.w3.org/2000/svg" viewBox="0 0 24 24"><path d="M11.945 0c-.868 0-1.49.28-2.043 1.043l-5.851 9.453c-.333.457-.14.986.336 1.186.974.412 2.765.977 3.68 1.388.717.326 1.155.203 1.55-.383l4.094-6.505.488-.006v7.404c0 .924.371 1.28.947 1.541.577.246 4.145 1.773 4.69 1.973.644.246 1.143-.05 1.143-.73V1.288A1.3 1.3 0 0 0 19.688 0zm-4.78 17.588c-.34-.005-.671.148-.917.457 0 0-2.67 4.353-3.064 4.947C2.783 23.58 3.2 24 3.727 24h16.378c.644 0 .9-.67.22-1.008-.906-.454-12.626-5.27-12.626-5.27a1.3 1.3 0 0 0-.388-.122 1 1 0 0 0-.147-.012z"/></svg>