<svg xmlns="http://www.w3.org/2000/svg" viewBox="0 0 24 24"><path d="M.008 3.902c-.102 0 .986.638 1.404.823a3 3 0 0 1 .49.267 4 4 0 0 0 .518.303c1.1.557 1.565.835 1.62.963.032.079.031.414-.005.744-.075.689-.002 1.998.123 2.215.174.304.424.476.694.476.434 0 .67-.227.92-.88.231-.604.41-.78.712-.696.278.077.57.462.66.862.152.679.24 1.907.176 2.425l-.06.5-.965.828c-1.536 1.317-1.88 1.972-1.78 3.375.089 1.175.124 1.248.96 1.965.428.365.815.637.91.637.169 0 .587-.494.763-.902.082-.188.063-.227-.224-.457-.172-.138-.337-.252-.367-.252-.116-.001-.42-.553-.495-.895-.06-.28-.049-.424.06-.666.202-.46.409-.62 1.273-.98.593-.247.843-.317 1.023-.282.269.051.297.104.377.764.095.77.39 1.4 1.008 2.137.452.542.564 1.23.32 1.972-.245.743-.244.78.022.866a3 3 0 0 0 .677.084c.425.004.444-.006.596-.272a6 6 0 0 0 .348-.865l.191-.594-.227-.726a66 66 0 0 0-.523-1.57c-.46-1.317-.53-1.553-.53-1.823v-.25l.565.06c.312.034 1.316.062 2.23.065 1.38.006 1.673.027 1.731.117.14.217.258 1.293.205 1.867-.029.323-.127.998-.215 1.502-.234 1.327-.336 2.142-.277 2.192.068.06.858.048 1.143-.016.194-.043.233-.098.279-.398.206-1.351.54-2.257 1.016-2.754.175-.184.199-.284.205-.88.008-.903.086-1.331.244-1.331.068 0 .451.425.853.945s.92 1.12 1.15 1.33c.556.506.64.778.64 2.035 0 1.181-.007 1.17.818 1.135l.525-.021.07-.586c.166-1.358-.249-3.071-1.037-4.281-.483-.745-.67-1.148-.67-1.448 0-.42.253-1.271.377-1.271.183 0 .468.475.76 1.271.572 1.55.666 1.741 1.031 2.051.38.323.655.414 1.235.414.535 0 .548-.033.254-.601a7 7 0 0 1-.327-.754c-.49-1.415-1.039-2.71-1.539-3.621-.418-.764-.525-.893-1.205-1.47-.725-.613-1.604-1.124-2.27-1.314-.544-.156-1.948-.106-3.011.104-1.29.253-2.243.4-2.6.4-.883 0-1.5-.426-2.074-1.428-.825-1.44-1.475-2.236-2.035-2.49-.39-.178-1.412-.332-2.195-.334-.82 0-1.516-.122-1.84-.32a1 1 0 0 0-.238-.117c-.025 0-.026.225-.002.5.05.606.025.746-.135.746-.07 0-.6-.165-1.18-.367-.582-.201-1.095-.367-1.14-.367s-.299-.097-.565-.215C1.017 4.155.201 3.902.008 3.902z"/></svg>