<svg xmlns="http://www.w3.org/2000/svg" viewBox="0 0 24 24"><path d="M3.059 1.066a3 3 0 0 0-.813.114L4.16 2.883l-2.144 2.38L.06 3.53a3 3 0 0 0-.06.593 3.06 3.06 0 0 0 3.059 3.059 3 3 0 0 0 .923-.145l2.473 2.19A6.7 6.7 0 0 1 8.47 6.686L6.082 4.574c.021-.146.033-.299.033-.451v-.02A3.06 3.06 0 0 0 3.06 1.067zm17.882 0a3.06 3.06 0 0 0-3.056 3.038v.021q0 .229.033.45l-2.387 2.113a6.7 6.7 0 0 1 2.014 2.539l2.473-2.19c.292.093.6.145.923.145a3.06 3.06 0 0 0 2.998-3.653l-1.955 1.735-2.144-2.38 1.914-1.702a3 3 0 0 0-.813-.116zm-8.939 4.932c-3.154 0-5.715 2.835-5.715 6.332 0 2.162.982 4.071 2.475 5.213a1.1 1.1 0 0 0-.157.572c0 .615.49 1.115 1.094 1.115a1.105 1.105 0 0 0 1.086-1.246h.15a1.076 1.076 0 1 0 2.127 0h.194a1.076 1.076 0 1 0 1.96-.423c1.507-1.14 2.499-3.058 2.499-5.23 0-3.498-2.559-6.333-5.713-6.333zm-2.457 4.725a1.8 1.8 0 0 1 .918.263 2 2 0 0 1 .558.66c.121.316-.047.677-.302.874-.194.13-.382.282-.61.35a6 6 0 0 0-.808.355.5.5 0 0 0-.258.326c-.091.148-.007.342-.107.476-.15.11-.32-.02-.44-.115-.257-.19-.485-.451-.55-.773-.052-.272-.107-.55-.075-.828.004-.336.164-.65.371-.907.236-.32.58-.596.985-.646a1.5 1.5 0 0 1 .318-.035zm4.91 0a1.5 1.5 0 0 1 .318.035c.405.05.749.326.985.646.207.257.367.57.37.907.033.278-.022.556-.073.828-.066.322-.293.583-.551.773-.118.095-.29.225-.441.115-.1-.134-.015-.33-.106-.476a.5.5 0 0 0-.258-.326 6 6 0 0 0-.808-.356c-.228-.068-.416-.22-.61-.35-.255-.196-.423-.557-.302-.873.139-.254.323-.489.558-.66.274-.164.598-.264.918-.263zm-2.437 3.248c.306.008.609 1.277.53 1.777-.254.751-.207-.49-.53-.504-.337.001-.4 1.228-.575.508-.056-.543.296-1.788.575-1.781zm-5.774.931-2.306 2.045A3.057 3.057 0 0 0 0 19.85v.027q.001.283.053.553l1.98-1.76 2.14 2.365-1.991 1.77a3.06 3.06 0 0 0 3.933-2.928 3 3 0 0 0-.043-.504l1.992-1.764a6.86 6.86 0 0 1-1.82-2.707zm11.51 0a6.86 6.86 0 0 1-1.818 2.707l1.992 1.764a3 3 0 0 0-.043.504 3.06 3.06 0 0 0 3.933 2.928l-1.992-1.77 2.14-2.365 1.981 1.76q.052-.27.053-.553v-.027a3.057 3.057 0 0 0-3.059-3.032q-.46.001-.878.13z"/></svg>