<svg xmlns="http://www.w3.org/2000/svg" viewBox="0 0 24 24"><path d="m1.861 0-.004 8.883H3.59V5.137h3.867v3.746h1.732V0H7.451v3.549H3.59V0zm11.993 0-.002 8.883h1.707v-4.38l-.102-1.49h.102l2.345 3.983h1.04l2.333-3.982h.102l-.102 1.49v4.379h1.72V0h-1.72L18.47 4.7h-.1L15.561 0zm4.576 12.361a3.7 3.7 0 0 0-1.246.2 2.9 2.9 0 0 0-.957.533 2.4 2.4 0 0 0-.618.795 2.25 2.25 0 0 0-.209.966 2.1 2.1 0 0 0 .2.918 2.7 2.7 0 0 0 .525.696 3.4 3.4 0 0 0 .7.51 5 5 0 0 0 .775.334l.576.2a8 8 0 0 1 .851.335 2.5 2.5 0 0 1 .565.336 1 1 0 0 1 .314.373 1.05 1.05 0 0 1 .092.447.9.9 0 0 1-.117.459 1 1 0 0 1-.328.334 1.8 1.8 0 0 1-.46.2 2.2 2.2 0 0 1-.523.062 1.68 1.68 0 0 1-1.207-.434 2.4 2.4 0 0 1-.642-1.115l-1.666.619a3.8 3.8 0 0 0 .537 1.092 3.5 3.5 0 0 0 .8.783 3.4 3.4 0 0 0 1.01.482 4 4 0 0 0 1.155.162l-.006-.013a4.2 4.2 0 0 0 1.127-.16 3.4 3.4 0 0 0 1.037-.485 2.6 2.6 0 0 0 .746-.818 2.3 2.3 0 0 0 .3-1.201 2.4 2.4 0 0 0-.183-.98 2.2 2.2 0 0 0-.512-.768 3 3 0 0 0-.798-.57 6.3 6.3 0 0 0-1.024-.434l-.59-.188a4.2 4.2 0 0 1-1.168-.533.84.84 0 0 1-.367-.682.75.75 0 0 1 .381-.658 1.66 1.66 0 0 1 .957-.262 1.4 1.4 0 0 1 .943.301 1.55 1.55 0 0 1 .487.67l1.558-.62a3 3 0 0 0-.328-.634 2.5 2.5 0 0 0-.59-.607 2.8 2.8 0 0 0-.879-.46 3.6 3.6 0 0 0-1.218-.185zm-12.905.006a4.5 4.5 0 0 0-1.8.362 4.4 4.4 0 0 0-1.426.992 4.6 4.6 0 0 0-.957 1.476 4.8 4.8 0 0 0-.338 1.81 4.9 4.9 0 0 0 .338 1.825 4.8 4.8 0 0 0 .957 1.477 4.44 4.44 0 0 0 3.228 1.34 4.5 4.5 0 0 0 3.229-1.34 4.6 4.6 0 0 0 .943-1.477 4.8 4.8 0 0 0 .352-1.824 4.7 4.7 0 0 0-.352-1.81 4.4 4.4 0 0 0-.943-1.477 4.3 4.3 0 0 0-1.442-.992 4.4 4.4 0 0 0-1.789-.362zm.002 1.59a2.8 2.8 0 0 1 1.125.223 2.8 2.8 0 0 1 .92.62 2.7 2.7 0 0 1 .617.968 3.2 3.2 0 0 1 .23 1.24 3.3 3.3 0 0 1-.23 1.254 2.7 2.7 0 0 1-.617.955 2.8 2.8 0 0 1-.92.62 2.8 2.8 0 0 1-1.125.224 2.86 2.86 0 0 1-2.056-.844 3 3 0 0 1-.617-.955 3.5 3.5 0 0 1-.217-1.252 3.4 3.4 0 0 1 .217-1.24 3 3 0 0 1 .617-.97 2.86 2.86 0 0 1 2.056-.843zM2.23 22.488V24h6.5v-1.512z"/></svg>