<svg xmlns="http://www.w3.org/2000/svg" viewBox="0 0 24 24"><path d="M12.338 0c-.475 0-.861 1.017-.861 2.27 0 .527.067 1.01.181 1.394a8.5 8.5 0 0 0-3.96 1.22 5.2 5.2 0 0 0-.594-1.091c-.606-.866-1.342-1.438-1.791-1.432a.4.4 0 0 0-.217.067c-.39.273-.124 1.326.595 2.353.267.381.56.705.84.948a8.7 8.7 0 0 0-1.527 1.716h1.734a7.18 7.18 0 0 1 5.381-2.422 7.18 7.18 0 0 1 5.383 2.42h1.732a8.7 8.7 0 0 0-1.32-1.529c.35-.249.735-.643 1.078-1.133.72-1.027.986-2.08.596-2.353a.4.4 0 0 0-.217-.065c-.45-.007-1.185.563-1.79 1.43a4.9 4.9 0 0 0-.677 1.324 8.5 8.5 0 0 0-3.898-1.42c.12-.39.193-.885.193-1.427 0-1.253-.385-2.27-.861-2.27zM1.623 9.443v5.162h1.36v-1.968H4.62v1.968h1.36V9.443H4.62v1.838H2.98V9.443zm5.912 0v5.162h3.211v-1.109H8.893v-.95h1.64v-1.142h-1.64v-.84h1.853v-1.12zm4.7 0v5.162h3.216v-1.363h-1.86V9.443zm4.704 0v5.162h1.366v-2.642l1.355 1.225 1.352-1.233v2.65h1.365V9.443h-.615l-2.1 1.914-2.11-1.914zm-11.82 7.28a8.7 8.7 0 0 0 1.412 1.548 5.2 5.2 0 0 0-.84.948c-.719 1.027-.984 2.08-.595 2.353.39.273 1.288-.339 2.006-1.365a5.2 5.2 0 0 0 .595-1.092 8.5 8.5 0 0 0 3.961 1.22 5 5 0 0 0-.183 1.395c0 1.253.386 2.27.86 2.27.477 0 .862-1.017.862-2.27 0-.542-.07-1.04-.191-1.43a8.5 8.5 0 0 0 3.898-1.42c.121.4.353.865.676 1.327.72 1.026 1.618 1.638 2.008 1.365s.121-1.326-.598-2.353c-.343-.49-.726-.885-1.076-1.135a8.7 8.7 0 0 0 1.201-1.36h-1.77a7.17 7.17 0 0 1-5.228 2.253 7.17 7.17 0 0 1-5.224-2.252z"/></svg>