<svg xmlns="http://www.w3.org/2000/svg" viewBox="0 0 24 24"><path d="M19.29 1.008q-1.047.055-2.009 1.035c-.97.987-1.102 2.206-.677 3.316l-1.092-1.312c-.106.04-.306.203-.506.406-.572.596-.706 1.516-.559 2.125l-.732-.635-1.451 1.475 1.996 2.03c-1.583-1.327-3.007-1.26-4.322.081-1.331 1.353-1.254 3.006-.149 4.385l-.185-.187c-1.184-1.205-2.327-1.464-3.46-.3-.665.664-.772 1.314-.707 1.897l-2.792-2.83-1.625 1.652 5.37 5.481H0l3.313 3.37 3.28-3.34h3.13l-2.276-2.315c-.798-.8-1.039-1.355-.547-1.856.36-.379.773-.366 1.278.149l2.742 2.803 1.648-1.678-2.048-2.084c1.623 1.368 3.393 1.03 4.738-.352.706-.704 1.09-1.355 1.277-1.8l-1.451-.827a6.5 6.5 0 0 1-.879 1.219c-.799.812-1.542.813-2.047.393l2.94-2.993L17 12.25l1.65-1.678-1.783-1.814c-1.45-1.476-1.023-2.26-.69-2.6.213-.217.424-.379.571-.46a4.2 4.2 0 0 0 .799 1.097c1.728 1.774 3.618 1.529 5.068.04.865-.88 1.28-1.692 1.385-2.099l-1.424-.798a5.9 5.9 0 0 1-1.023 1.49c-.786.812-1.532.811-2.037.392l2.97-3.006-.375-.378c-.982-1.005-1.923-1.474-2.82-1.428zm-.056 1.918c.273-.002.558.112.838.35l-1.595 1.622c-.452-.527-.465-1.136 0-1.623.226-.23.484-.348.757-.35zM11.88 10.41c.275-.002.564.115.85.352l-1.612 1.625c-.452-.528-.466-1.15 0-1.625.227-.23.488-.35.762-.352z"/></svg>