<svg xmlns="http://www.w3.org/2000/svg" viewBox="0 0 24 24"><path d="M11.074.482a24 24 0 0 0-1.836.14L6.494.933c-.294.03-.713.053-.988.138-.28.092-.606.357-.606.809 0 .39.258.7.606.805.28.08.694.074.988.074h11.012c.293 0 .707.006.988-.074a.835.835 0 0 0 .606-.805c0-.452-.325-.717-.606-.809-.275-.085-.695-.108-.988-.138L14.75.62a24.4 24.4 0 0 0-3.676-.139zm-7.86 5.104c-.3 0-.708-.013-.99.072a.84.84 0 0 0 0 1.613c.282.08.69.099.99.118l7.807.554c.642.042 1.309.042 1.944 0l7.822-.554c.3-.02.71-.039.99-.118a.84.84 0 0 0 0-1.613c-.28-.085-.69-.072-.99-.072zM.835 9.777a1 1 0 0 0-.229.04.84.84 0 0 0-.603.804c0 .397.248.686.603.807.275.092.477.124.99.203l8.825 1.418c1.038.165 2.118.165 3.156 0l8.83-1.418c.513-.08.71-.105.99-.203.354-.121.606-.41.606-.807a.84.84 0 0 0-.606-.805c-.28-.086-.69-.019-.99.012l-9.232.93a12 12 0 0 1-2.358 0l-9.22-.932c-.225-.022-.515-.065-.762-.049zm.584 4.483a1 1 0 0 0-.232.027.85.85 0 0 0-.606.815c0 .39.252.688.606.804.282.092.483.136.99.258l8.004 1.967a7.6 7.6 0 0 0 3.634 0l8.01-1.967c.507-.122.71-.166.99-.258.354-.116.606-.413.606-.804a.85.85 0 0 0-.606-.815c-.28-.08-.697.024-.99.08l-8.664 1.545a6.8 6.8 0 0 1-2.334 0l-8.65-1.545c-.22-.042-.509-.11-.758-.107zm2.398 5.06a1 1 0 0 0-.248.032.85.85 0 0 0-.605.812c0 .427.263.666.605.818.25.117.44.184.99.373l5.137 1.79c1.491.52 3.105.52 4.602 0l5.144-1.79c.55-.19.74-.256.99-.373.343-.152.606-.39.606-.818a.85.85 0 0 0-.605-.812c-.318-.092-.704.04-.99.12l-5.42 1.462a7.8 7.8 0 0 1-4.057 0L4.56 19.473c-.216-.06-.487-.15-.743-.153z"/></svg>