<svg xmlns="http://www.w3.org/2000/svg" viewBox="0 0 24 24"><path d="M12 .313a1.5 1.5 0 0 0-1.06.435l-9.88 9.879C.479 11.21 0 12.364 0 13.187v9c0 .826.675 1.5 1.5 1.5h9.227l-4.063-4.062a2 2 0 0 1-.664.113c-1.13 0-2.05-.92-2.05-2.05s.92-2.05 2.05-2.05 2.05.92 2.05 2.05q-.002.351-.113.666l3.163 3.162V9.928a2.05 2.05 0 0 1-1.15-1.84c0-1.13.92-2.05 2.05-2.05s2.05.92 2.05 2.05a2.05 2.05 0 0 1-1.15 1.84v8.127l3.147-3.147A2.05 2.05 0 0 1 18 12.238c1.13 0 2.05.921 2.05 2.051s-.92 2.05-2.05 2.05a2 2 0 0 1-.709-.13l-4.39 4.393v3.087H22.5c.825 0 1.5-.675 1.5-1.5v-9c0-.825-.477-1.976-1.06-2.56v-.002L13.06.748A1.5 1.5 0 0 0 12 .313z"/></svg>