<svg xmlns="http://www.w3.org/2000/svg" viewBox="0 0 24 24"><path d="M12 0 2.523.994v17.367L12 24l9.477-5.639V.994L12.1.01zm0 1.246 8.236.863v6.522l-8.28-4.883h-.003l-8.19 4.879V2.109zm-.047 3.426 8.277 4.822-2.253 1.328-1.041.614-4.96-2.952-.01.86 4.241 2.52-.037.023-.092.054-.601.356-3.5-2.084-.01.86 2.763 1.642-.652.435-.015.01-2.088-1.228-.008.857 1.37.807-1.396.838-8.16-4.852zm8.281 5.746v7.238L12 22.556l-8.236-4.9v-7.119l8.2 4.883.015.885-5.627-3.35-.008.86 5.648 3.394.016.908-5.649-3.36-.007.86L12 19.01l5.703-3.412v-.862l-.008.004v-2.804z"/></svg>