<svg xmlns="http://www.w3.org/2000/svg" viewBox="0 0 24 24"><path d="M12 5.838C5.373 5.838 0 8.598 0 12c0 3.404 5.373 6.162 12 6.162 6.628 0 12-2.758 12-6.162s-5.372-6.162-12-6.162zm-.158.974c.058-.002.1 0 .117 0 2.178 0 4.204.314 5.902.856.013.004.05.02.063.025.156.055.238.13.238.223 0 .081-.042.143-.098.201a2 2 0 0 1-.107.098c-.391.342-1.571 1.234-3.793 2.123-.78.312-1.753.7-2.773.926-.6.132-2.822.486-1.649-2.364.197-.475.535-1.495 1.313-1.9.236-.122.526-.18.787-.187zm-3.93.323q.12.002.166.05c.035.041.046.11 0 .194a1 1 0 0 1-.105.144C5.848 10.066 4.23 13.817 3.77 14.9c-.035.075-.068.15-.096.198-.042.076-.1.138-.201.144-.057.004-.135-.01-.252-.082-1.41-.882-2.248-1.983-2.248-3.176C.973 9.83 3.7 7.978 7.602 7.17q.189-.038.31-.035zM20.53 8.758c.057-.004.134.009.25.082 1.411.882 2.248 1.983 2.248 3.176 0 2.154-2.729 4.004-6.629 4.814-.25.05-.415.049-.472-.016-.039-.04-.05-.108 0-.193a1 1 0 0 1 .103-.146c2.125-2.543 3.742-6.29 4.201-7.373.035-.075.07-.151.096-.2.043-.076.1-.137.203-.144zm-7.244 3.892c.822-.022 1.853.313.973 2.45-.197.477-.535 1.495-1.313 1.9a1.9 1.9 0 0 1-.787.19h-.119c-2.178 0-4.202-.318-5.898-.858l-.067-.025q-.235-.082-.236-.223c0-.083.041-.144.098-.201q.034-.036.105-.098c.393-.341 1.572-1.237 3.795-2.125.78-.31 1.754-.699 2.775-.924.15-.033.4-.078.674-.086z"/></svg>