<svg xmlns="http://www.w3.org/2000/svg" viewBox="0 0 24 24"><path d="M8.955 0c-.493 0-.894.438-.894.98s.4.98.894.98h6.088c.495 0 .896-.438.896-.98s-.4-.98-.896-.98zm.258 2.486v4.518L3.879 20.299C2.889 23.569 7.019 24 7.019 24h10.11c4.432-.776 2.883-3.959 2.883-3.959L14.936 7.004V2.486zm-.945 2.026c-.83-.02-2.617.236-3.637 2.613 0 0 2.118 1.546 4.084-.42V4.557s-.17-.038-.447-.045zm7.566 0a2.5 2.5 0 0 0-.445.045v2.148c1.964 1.966 4.086.42 4.086.42-1.022-2.377-2.811-2.634-3.641-2.613zm-2.396 5.35c.653 0 1.185.638 1.185 1.429 0 .787-.533 1.428-1.185 1.428-.655 0-1.186-.64-1.186-1.428 0-.791.53-1.43 1.185-1.43zm-3.641 1.296c.552 0 .998.54.998 1.205 0 .666-.446 1.205-.998 1.205s-1-.54-1-1.205.448-1.205 1-1.205zm1.92 3.655c1.567-.016 3.37.181 5.308.783l1.666 4.133.008.013c.097.205 1.125 2.58-2.416 3.178H7.84l-.027-.004c-.324-.04-3.381-.481-2.598-2.98l1.836-4.42a16.6 16.6 0 0 1 4.666-.703zM9.213 16.37c-.789 0-1.428.387-1.428.865 0 .477.64.866 1.428.866.789 0 1.428-.39 1.428-.866 0-.478-.64-.865-1.428-.865zm5.084 0c-.791 0-1.43.387-1.43.865 0 .477.639.866 1.43.866.787 0 1.426-.39 1.426-.866 0-.478-.639-.865-1.426-.865z"/></svg>