<svg xmlns="http://www.w3.org/2000/svg" viewBox="0 0 24 24"><path d="M12 1.328c-.065 0-.193.08-.287.18-.18.172-.182.18-.182 1.566 0 1.36 0 1.396.166 1.547.216.201.374.202.59-.021.18-.172.182-.187.182-1.545 0-1.36-.002-1.375-.182-1.547-.094-.1-.222-.18-.287-.18zm6.328 1.727a.5.5 0 0 0-.303.158c-.237.266-1.386 2.321-1.386 2.486 0 .18.258.446.437.446a.5.5 0 0 0 .268-.13c.194-.164 1.45-2.358 1.45-2.53 0-.18-.272-.43-.466-.43zm-12.662.007a.43.43 0 0 0-.316.135.5.5 0 0 0-.145.295c0 .18 1.244 2.35 1.453 2.524a.5.5 0 0 0 .268.13c.18 0 .437-.267.437-.447 0-.165-1.15-2.213-1.386-2.486a.44.44 0 0 0-.311-.15zm6 3.319c-.468.001-.904.028-1.19.082-3.27.625-5.902 3.241-6.456 6.433-.266 1.482.066 3.819.533 3.819.18 0 .199-.131.129-.791-.094-.85-.015-2.46.15-3.108a7.8 7.8 0 0 1 2.041-3.513c1.51-1.496 3.453-2.244 5.55-2.13 1.778.102 3.396.74 4.811 1.927.483.403.627.44.627.158 0-.15-.13-.323-.533-.719-.957-.934-2.156-1.603-3.566-1.976-.44-.117-1.315-.184-2.096-.182zM.857 7.725a.24.24 0 0 0-.168.088c-.165.21-.165.402 0 .59.158.171 2.116 1.345 2.41 1.439.195.064.524-.209.524-.424 0-.26-.18-.41-1.338-1.072-.814-.458-1.21-.643-1.428-.621zm22.243.02c-.217-.035-.576.134-1.4.614-1.295.747-1.323.771-1.323 1.014 0 .28.157.459.402.459.194-.007 2.192-1.098 2.494-1.363.15-.144.16-.476.008-.627a.32.32 0 0 0-.181-.098zm-5.405 2.534a4 4 0 0 0-.52.037v-.002c-.64.094-1.804.496-2.185.749-.21.143-.337.288-.351.396-.022.15-.009.166.18.13.106-.022.46-.138.777-.253.812-.302 1.523-.402 2.537-.352 1.423.065 2.4.49 3.392 1.489 1.03 1.02 1.497 2.12 1.56 3.636.138 3.063-1.658 5.1-4.901 5.567-.726.1-12.755.093-13.43-.008-1.985-.31-3.453-1.61-3.791-3.357-.13-.64-.057-1.94.137-2.48.288-.828.596-1.289 1.308-2 .467-.46.684-.72.64-.776-.143-.238-1.042.265-1.74.976-.517.525-.87 1.123-1.115 1.856-.165.504-.193.69-.193 1.51 0 1.063.109 1.568.504 2.373.496 1.014 1.25 1.741 2.365 2.273 1.337.64 1.466.653 9.059.617 6.24-.02 6.493-.029 7.119-.172 2.567-.59 4.19-2.085 4.795-4.408.122-.489.158-.825.158-1.652.007-1.28-.107-1.813-.62-2.856a6 6 0 0 0-1.767-2.12c-.518-.383-1.444-.82-2.1-.985-.49-.124-1.232-.196-1.818-.188z"/></svg>