<svg xmlns="http://www.w3.org/2000/svg" viewBox="0 0 24 24"><path d="M12 .793c-.25 0-.453.215-.453.48v2.66c0 .267.203.481.453.481s.453-.213.453-.478V1.273c0-.265-.203-.48-.453-.48zm-6.77 1.81a.5.5 0 0 0-.238.063.463.463 0 0 0-.178.629l.004.01 1.315 2.234a.476.476 0 0 0 .648.172.46.46 0 0 0 .18-.629l-.006-.008-1.314-2.236a.48.48 0 0 0-.41-.234zm13.315 0a.48.48 0 0 0-.41.235l-1.317 2.236a.46.46 0 0 0 .166.631l.008.006a.48.48 0 0 0 .649-.172l1.314-2.236a.46.46 0 0 0-.164-.631l-.01-.006a.5.5 0 0 0-.236-.062zM12.457 6a8.4 8.4 0 0 0-2.451.402c-.051.017-.111.048-.111.102 0 .058.045.088.082.088s.166-.034.25-.047a7.7 7.7 0 0 1 1.455-.111c.789 0 1.599.16 2.375.431-3.1 1.173-6.152 5.54-7.211 9.453-1.125-1.275-1.832-2.723-1.832-4.109 0-2.272 1.845-3.668 4.523-3.668.1 0 .154 0 .197-.012a.08.08 0 0 0 .065-.082q-.002-.072-.1-.088a7 7 0 0 0-1.025-.08c-2.658 0-4.594 1.396-4.594 3.936 0 1.728.982 3.6 2.524 5.18a9 9 0 0 0-.153 1.585c0 .197.021.612.09 1.047-.919-.83-1.633-1.827-2.02-2.877-.076-.206-.22-.584-.257-.742-.02-.077-.047-.103-.104-.103-.049 0-.086.036-.086.095 0 .07.027.241.037.295.526 2.893 3.337 6.512 7.91 6.512 5.074 0 8.583-4.273 8.583-8.719C20.604 9.896 17.158 6 12.457 6zM.459 7.584a.46.46 0 0 0-.396.238.48.48 0 0 0 .171.649l2.237 1.314a.46.46 0 0 0 .232.065.47.47 0 0 0 .404-.239.48.48 0 0 0-.17-.646L.7 7.648l-.008-.005a.46.46 0 0 0-.232-.059zm23.082.002a.46.46 0 0 0-.232.059l-.008.003-2.237 1.317a.48.48 0 0 0-.171.646.47.47 0 0 0 .404.239.5.5 0 0 0 .232-.065l2.239-1.314a.48.48 0 0 0 .17-.649.46.46 0 0 0-.397-.236zm-8.32.226c.289 0 .533.06.865.256a8.3 8.3 0 0 1 1.348 1.07c1.166 1.158 2.263 3.118 2.263 5.518 0 1.878-.632 3.338-1.306 4.24-.733.981-2.111 1.368-3.557 1.368-2.534 0-5.225-1.257-7.137-3.002.99-4.477 4.97-9.45 7.524-9.45zM7.299 18.454c2.01 1.622 4.69 2.766 7.377 2.766a6.3 6.3 0 0 0 1.625-.229c-.897.625-2.493 1.313-4.438 1.313-1.65 0-3.015-.57-3.611-.871-.797-.416-1.006-1.171-1.006-2.127q.001-.418.053-.852z"/></svg>