<svg xmlns="http://www.w3.org/2000/svg" viewBox="0 0 24 24"><path d="M0 9.28v5.232h1.082V9.279zm9.629 0-.002 5.232h1.082V9.279zm13.185 0v1.185a2.3 2.3 0 0 0-.593-.07c-1.012 0-2.092.699-2.092 2.199 0 1.325.87 2.127 2.3 2.127A8 8 0 0 0 24 14.547V9.279zM7.117 10.36c-.942 0-1.99.698-1.99 2.198 0 1.325.908 2.162 2.408 2.162.454 0 .942-.105 1.22-.21l-.138-.697a3.5 3.5 0 0 1-.873.104c-.942 0-1.256-.419-1.326-.768L9 12.594c0-1.884-1.15-2.233-1.883-2.233zm6.069 0c-.663 0-1.255.173-1.604.278 0 .035.139.697.174.767.384-.14.907-.244 1.256-.244.558 0 .802.175.802.559v.174c-1.744 0-2.476.629-2.476 1.431 0 .907.802 1.395 1.953 1.395.767 0 1.395-.14 1.674-.21v-2.72c.035-.977-.559-1.43-1.78-1.43zm4.5 0c-.698 0-1.534.14-1.813.21v3.94h1.15v-3.314c.175-.035.418-.07.627-.07.419 0 .7.141.7.7v2.685h1.15v-2.756c0-.942-.559-1.395-1.814-1.395zm-13.674.034c-1.186 0-2.059.942-2.059 2.267 0 1.221.803 2.059 2.024 2.059.314 0 .732-.104.941-.174l-.174-.733a2.1 2.1 0 0 1-.627.104c-.628 0-1.047-.487-1.047-1.324s.453-1.397 1.116-1.397c.139 0 .313.07.453.106l.21-.733c-.209-.104-.558-.175-.837-.175zm3.103.767h.002c.383.001.663.28.697.838l-1.5.314c.035-.731.314-1.15.801-1.152zm15.315.035c.104 0 .315.035.384.035v2.686a1 1 0 0 1-.314.035c-.733 0-1.15-.522-1.15-1.394 0-.663.277-1.362 1.08-1.362zm-8.944 1.43a3 3 0 0 1 .293 0v1.256h.035c-.104.035-.315.035-.42.035-.383 0-.835-.173-.835-.627 0-.397.293-.634.927-.664z"/></svg>