<svg xmlns="http://www.w3.org/2000/svg" viewBox="0 0 24 24"><path d="M17.555 0C14.498-.02 10.64 1.815 7.213 5.242 1.729 10.717-.573 18.204 2.074 21.947 2.947 23.186 4.258 23.85 5.813 24c1.051.008 1.912-1.185 2.615-2.777.725-1.668 1.169-3.22 1.513-4.66.508-2.294.545-3.933.291-4.278-.435-.58-1.432-.436-2.556.217-.544.3-1.26.1-.408-.934.86-1.042 4.26-3.561 5.494-3.95 1.341-.39 2.874.134 2.357 1.62-.37 1.085-5.049 13.488-1.598 12.274a22.3 22.3 0 0 0 3.266-2.71c5.484-5.474 7.786-12.963 5.139-16.706C20.933.692 19.388.012 17.555 0zm-.942 1.842c.316.012.587.113.78.308.634.644.244 2.049-.834 3.155-1.097 1.096-2.519 1.486-3.135.851-.662-.634-.273-2.057.824-3.172.76-.766 1.67-1.169 2.365-1.142z"/></svg>