<svg xmlns="http://www.w3.org/2000/svg" viewBox="0 0 24 24"><path d="M12 0C5.381 0 0 5.381 0 12s5.381 12 12 12 12-5.381 12-12S18.619 0 12 0zm0 1.5c5.808 0 10.5 4.692 10.5 10.5S17.808 22.5 12 22.5 1.5 17.808 1.5 12 6.192 1.5 12 1.5zm-4.125 6c-.623 0-1.125.502-1.125 1.125v1.5a1.123 1.123 0 0 0 1.125 1.125c.623 0 1.125-.502 1.125-1.125v-1.5C9 8.002 8.498 7.5 7.875 7.5zm8.25 0C15.502 7.5 15 8.002 15 8.625v1.5a1.123 1.123 0 0 0 1.125 1.125c.623 0 1.125-.502 1.125-1.125v-1.5c0-.623-.502-1.125-1.125-1.125zM5.822 15.24c-.085 0-.15.041-.197.135C5.25 16.125 8.25 19.5 12 19.5s7.159-3.379 6.768-4.125c-.393-.75-2.268 1.875-6.768 1.875-3.937 0-5.578-2.01-6.178-2.01z"/></svg>