<svg xmlns="http://www.w3.org/2000/svg" viewBox="0 0 24 24"><path d="M0 6.229V17.77a89 89 0 0 1 2.271-.334 74 74 0 0 1 17.038-.279c1.57.153 3.133.362 4.689.613V6.23H0zm.705.705h22.59v10.013a74.8 74.8 0 0 0-22.59 0zM7.73 8.84a2.62 2.62 0 0 0-1.858.72 2.55 2.55 0 0 0-.728 1.33c-.098.5-.064 1.03.11 1.51.178.488.515.917.954 1.196.547.354 1.224.471 1.865.4a3.24 3.24 0 0 0 1.787-.775c-.003-.724.002-1.45-.002-2.174-.725.004-1.45-.001-2.173.004.003.317-.001.634 0 .951H8.79c.002.236 0 .472.002.709a1.7 1.7 0 0 1-.932.299 1.53 1.53 0 0 1-.921-.227 1.46 1.46 0 0 1-.59-.744c-.18-.499-.135-1.084.162-1.53a1.42 1.42 0 0 1 1.043-.646 1.8 1.8 0 0 1 1.011.205c.152.082.286.192.424.295.228-.28.463-.559.694-.838a3 3 0 0 0-.596-.402c-.418-.212-.892-.285-1.357-.283zm3.468.086v5.002h2.018a2.9 2.9 0 0 0 1.068-.211 2.44 2.44 0 0 0 1.174-.992c.34-.555.43-1.245.293-1.877a2.37 2.37 0 0 0-.828-1.338c-.478-.387-1.096-.577-1.707-.584zm7.912 0c-.68.002-1.36-.003-2.039.004.003 1.666 0 3.332.002 4.998h2.498q.361-.003.71-.098c.275-.076.545-.208.741-.422.194-.208.296-.491.303-.775.016-.278-.03-.573-.193-.805-.175-.252-.454-.408-.735-.514.211-.122.408-.285.522-.505.134-.246.147-.535.115-.807a1.16 1.16 0 0 0-.435-.73c-.264-.208-.599-.305-.93-.335a3 3 0 0 0-.28-.011q-.139.002-.279 0zm-16.435.002v5h1.101v-5q-.551-.002-1.101 0zm15.472.965c.392.002.784-.001 1.176.002.183.01.38.055.51.19a.5.5 0 0 1 .113.43.44.44 0 0 1-.22.315 1.1 1.1 0 0 1-.483.117c-.365.002-.73-.002-1.094 0l-.002-1.052zm-5.843.027h.812c.28 0 .569.052.817.19.274.148.49.396.605.685.113.272.139.572.108.863a1.46 1.46 0 0 1-.334.787 1.43 1.43 0 0 1-.866.465c-.168.031-.34.023-.51.024h-.632zm5.843 1.947h1.36c.174.006.355.035.506.127.11.066.19.18.21.309a.54.54 0 0 1-.099.44c-.102.12-.257.174-.408.198-.172.032-.348.022-.522.024q-.524 0-1.047-.002z"/></svg>