<svg xmlns="http://www.w3.org/2000/svg" viewBox="0 0 24 24"><path d="M7.455 0a.64.64 0 0 0-.64.64v13.95c0 .353.286.64.64.64h3.275a.64.64 0 0 0 .641-.64V.64a.64.64 0 0 0-.64-.64zm5.656 5.307a.404.404 0 0 0-.404.404v3.605c0 .223.182.405.404.405h1.746v8.19a1.83 1.83 0 0 1-.91 1.575 1.83 1.83 0 0 1-1.822 0 1.83 1.83 0 0 1-.912-1.578H6.94a6.11 6.11 0 0 0 3.047 5.278 6.1 6.1 0 0 0 3.047.814 6.1 6.1 0 0 0 3.049-.814 6.12 6.12 0 0 0 3.047-5.274V5.692a.38.38 0 0 0-.379-.38c-1.423.004-4.218-.009-5.64-.005zM5.057 16.689a.187.187 0 0 0-.188.188v.445a.187.187 0 0 0 .188.186h8.072a.187.187 0 0 0 .187-.186v-.445a.187.187 0 0 0-.187-.188z"/></svg>