<svg xmlns="http://www.w3.org/2000/svg" viewBox="0 0 24 24"><path d="M14.643 9.148A2.856 2.856 0 0 0 11.787 12a2.857 2.857 0 0 0 5.711 0 2.856 2.856 0 0 0-2.855-2.852zm-9.819.006a2.5 2.5 0 0 0-2.502 2.498v2.953c0 .09.072.16.16.16h.973a.16.16 0 0 0 .16-.16v-2.953a1.21 1.21 0 0 1 2.418 0v2.953c0 .09.074.16.162.16h.971a.16.16 0 0 0 .162-.16v-2.953a1.21 1.21 0 0 1 2.418 0v2.953c0 .09.072.16.16.16h.973a.16.16 0 0 0 .16-.16v-2.953a2.5 2.5 0 0 0-2.502-2.498c-.737 0-1.397.321-1.855.828a2.5 2.5 0 0 0-1.858-.828zM.16 9.285a.16.16 0 0 0-.16.16v5.16c0 .09.071.16.16.16h.963a.16.16 0 0 0 .162-.16v-5.16a.16.16 0 0 0-.162-.16zm18.29 0a.16.16 0 0 0-.163.16v1.45c0 .089.073.16.162.16h.963a.16.16 0 0 0 .16-.16v-1.45a.16.16 0 0 0-.16-.16zm4.427 0a.16.16 0 0 0-.162.16v1.45c0 .089.073.16.162.16h.963a.16.16 0 0 0 .16-.16v-1.45a.16.16 0 0 0-.16-.16zm-8.234 1.147c.866 0 1.57.703 1.57 1.568a1.57 1.57 0 0 1-3.143 0c0-.865.706-1.568 1.573-1.568zm3.806 1.257a.16.16 0 0 0-.162.16v.08c0 1.545 1.2 2.862 2.746 2.92A2.86 2.86 0 0 0 24 12v-.15a.16.16 0 0 0-.16-.16h-.963a.16.16 0 0 0-.162.16V12a1.57 1.57 0 0 1-3.143 0v-.15a.16.16 0 0 0-.16-.16z"/></svg>