<svg xmlns="http://www.w3.org/2000/svg" viewBox="0 0 24 24"><path d="m15.969 1.455-.52.244c-.308.149-.872.585-1.34 1.053l-.808.807-.658-.606-.649-.615-.648.615-.66.617-.754-.765c-.606-.617-1.638-1.328-1.914-1.328-.032 0-.182.18-.33.392l-.266.404.234.065c.691.18 1.691.956 2.106 1.637l.213.34-.596.882c-.595.893-1.213 2.03-1.213 2.233 0 .095.958.636 1.139.636.042 0 .286-.404.53-.882.532-1.042.958-1.659 1.66-2.403l.5-.531.444.479a10.2 10.2 0 0 1 1.692 2.423c.244.468.467.883.488.914.064.075 1.201-.54 1.201-.658 0-.191-.648-1.37-1.222-2.21l-.596-.874.225-.35c.33-.531 1.2-1.276 1.753-1.5.266-.116.479-.255.479-.308 0-.064-.106-.244-.244-.414zM1.873 4.985c-.042 0-.266.223-.5.5C.183 6.876-.262 8.62.153 10.235.62 12.043 1.81 13.372 3.52 14.01c.691.255 1.882.393 2.456.287.414-.085.456-.202.318-1.031l-.063-.395-.978-.04c-1.627-.075-2.722-.746-3.381-2.085-.574-1.148-.53-2.541.086-3.615l.266-.457L6.072 8.63l3.86 1.955.713-.35c.393-.202.71-.404.71-.447 0-.064-9.344-4.805-9.482-4.805zm20.188 0c-.075.01-1.03.478-2.147 1.052a1060 1060 0 0 1-5.9 3.008c-3.774 1.913-7.027 3.593-7.112 3.668-.032.021.01.404.084.861.574 3.413 2.148 6.453 4.317 8.356l.691.615.692-.596c1.839-1.616 3.325-4.22 4.048-7.058.15-.564.277-1.307.287-1.647l.022-.617-2.955-1.531-.734.373c-.394.202-.723.394-.723.426s.67.392 1.488.796l1.488.733-.062.383c-.393 2.168-1.616 4.752-2.924 6.187l-.605.67-.448-.426c-.924-.893-1.934-2.614-2.52-4.304-.329-.946-.721-2.435-.657-2.489.02-.02 3.04-1.54 6.707-3.39l6.654-3.37.213.35c.67 1.084.723 2.542.139 3.733-.649 1.318-1.756 1.988-3.372 2.062l-.976.041-.065.32a5 5 0 0 0-.064.68c0 .32.032.362.383.426.574.106 1.766-.032 2.457-.287 1.68-.628 2.848-1.915 3.369-3.733.446-1.562-.033-3.423-1.266-4.847-.212-.245-.446-.446-.51-.446z"/></svg>