<svg xmlns="http://www.w3.org/2000/svg" viewBox="0 0 24 24"><path d="M12.002.002c-6.619 0-12 5.381-12 12s5.381 12 12 12 12-5.381 12-12c0-1.73-.361-3.405-1.078-4.975h-.002l-.104-.23-.168.187a3.8 3.8 0 0 1-1.505 1.037l-.159.061.067.154a9.7 9.7 0 0 1 .75 3.76c0 5.405-4.398 9.807-9.807 9.807S2.193 17.405 2.193 12 6.596 2.193 12 2.193c1.467 0 2.882.32 4.2.948l.155.076.067-.156a3.8 3.8 0 0 1 1.105-1.454l.198-.158-.227-.117a11.9 11.9 0 0 0-5.496-1.33zm7.85 2.027a2.494 2.494 0 0 0-2.495 2.494 2.494 2.494 0 1 0 4.989 0 2.494 2.494 0 0 0-2.494-2.494zM12 6.53A5.476 5.476 0 0 0 6.53 12 5.476 5.476 0 0 0 12 17.47 5.476 5.476 0 0 0 17.47 12 5.48 5.48 0 0 0 12 6.53z"/></svg>