<svg xmlns="http://www.w3.org/2000/svg" viewBox="0 0 24 24"><path d="M11.635.006a12 12 0 0 0-1.555.152A11.85 11.85 0 0 0 2.3 4.994a11.95 11.95 0 0 0-2.09 8.938 11.93 11.93 0 0 0 4.814 7.804 11.83 11.83 0 0 0 6.954 2.262 12 12 0 0 0 1.943-.156 11.86 11.86 0 0 0 7.78-4.834 11.96 11.96 0 0 0 2.091-8.938 11.93 11.93 0 0 0-4.814-7.806A11.83 11.83 0 0 0 11.635.006zm.316.812a11.02 11.02 0 0 1 6.543 2.108c4.983 3.6 6.122 10.6 2.54 15.603a11.04 11.04 0 0 1-7.247 4.504 11.02 11.02 0 0 1-8.283-1.96C.522 17.472-.617 10.474 2.967 5.47A11.05 11.05 0 0 1 10.21.967a11 11 0 0 1 1.74-.149zM17.22 3.87c-.073 0-.326.035-.56.078-1.042.19-7.175 1.41-7.28 1.45a.8.8 0 0 0-.4.355l-.065.127s-.031 9.07-.078 9.172a.7.7 0 0 1-.375.35 9 9 0 0 1-.61.136c-1.23.245-1.689.423-2.076.803a1.7 1.7 0 0 0-.453.818c-.067.294-.045.737.051 1.006.1.281.264.52.475.709q.29.224.673.324c.563.144 1.619-.016 2.159-.328a2.4 2.4 0 0 0 .666-.629c.06-.089.15-.267.2-.398.177-.456.181-8.582.204-8.684a.44.44 0 0 1 .32-.344c.147-.04 6.056-1.205 6.223-1.228.146-.02.283.026.36.12a.3.3 0 0 1 .109.095c.048.07.05.213.056 2.785.008 2.96.013 2.891-.148 3.078-.117.136-.262.19-.863.31-.914.189-1.227.277-1.577.448-.437.213-.679.447-.867.836a1.6 1.6 0 0 0-.181.754c0 .49.167.87.548 1.244q.052.051.106.098c.192.148.387.236.633.292.37.082 1.123.026 1.64-.125a2.08 2.08 0 0 0 1.457-1.468l.063-.215.008-5.787c.006-4.334 0-5.814-.024-5.895a.54.54 0 0 0-.119-.215.5.5 0 0 0-.275-.072z"/></svg>