<svg xmlns="http://www.w3.org/2000/svg" viewBox="0 0 24 24"><path d="M4.166 7.168v5.201c0 .676-.445 1.078-1.164 1.078s-1.1-.528-1.1-1.1v-.929H0v.951c0 .972.296 2.707 3.023 2.707s3.108-1.86 3.108-2.748v-5.16zm4.916 2.156c-1.797 0-2.6 1.65-2.6 3.067 0 1.416.91 2.79 2.77 2.79 1.628.022 2.707-1.035 2.707-1.818h-1.797s-.211.508-.846.508c-.634 0-.994-.36-.994-1.226h3.658c0-2.728-1.354-3.32-2.898-3.32zm5.848 0c-1.797 0-2.6 1.65-2.6 3.067 0 1.416.909 2.79 2.77 2.79 1.628.022 2.707-1.035 2.707-1.818h-1.8s-.21.508-.843.508c-.635 0-.994-.36-.994-1.226h3.656c0-2.728-1.352-3.32-2.896-3.32zm6.744.065c-.913 0-1.319.495-1.34.521-.128.154-.29.317-.29-.078v-.295h-1.817v7.295h1.84v-2.01c0-.148.147-.126.253 0 .107.128.571.444 1.375.444 1.46 0 2.305-1.269 2.305-3.002 0-2.242-1.416-2.875-2.326-2.875zM9.27 10.508h.002c.676 0 .971.508.971 1.037h-1.86c0-.571.234-1.036.887-1.037zm5.848 0c.677 0 .973.508.973 1.037H14.23c0-.572.234-1.037.89-1.037zm5.92.297c.932 0 1.1.718 1.1 1.459 0 .74-.127 1.713-1.014 1.713-.888 0-1.121-.571-1.102-1.649.022-1.079.444-1.523 1.016-1.523zm2.281 4.566a.586.586 0 0 0-.586.586.586.586 0 1 0 .586-.586zm0 .063a.524.524 0 0 1 .524.523.524.524 0 0 1-.524.523.526.526 0 0 1-.523-.523c0-.289.234-.523.523-.523zm-.21.2v.622h.072v-.268h.177l.116.268h.08l-.121-.287a.14.14 0 0 0 .072-.045.18.18 0 0 0 .043-.115c0-.104-.08-.174-.195-.174zm.07.07h.174c.072 0 .117.04.117.103 0 .072-.05.117-.13.117h-.161z"/></svg>