<svg xmlns="http://www.w3.org/2000/svg" viewBox="0 0 24 24"><path d="M13.443 0c-.558 0-.9.147-1.007.44l-.008.017v.008l-.006.015-.01.024a.5.5 0 0 0-.008.238c.051.357.1.998-.006 1.268L5.402 20.178l-.09.224.014.006A2.853 2.853 0 0 0 8.072 24l-.002-.006h.006a2.87 2.87 0 0 0 2.543-1.56l.016.005 7.062-18.421c.076-.21.526-.675.84-.946a.8.8 0 0 0 .15-.164l.016-.015.031-.045c.135-.346-.105-.75-.707-1.2-.51-.386-1.236-.769-2.033-1.076C15.045.21 14.116 0 13.444 0zm-.015.479c.6 0 1.499.21 2.367.539.75.285 1.425.643 1.904 1.003.496.375.557.587.557.647 0 .015-.008.014-.02.03l-.015.015c-.14.12-.835.75-.98 1.14l-6.96 18.09-.025.06a2.34 2.34 0 0 1-2.19 1.5c-.286 0-.565-.048-.836-.153a2.36 2.36 0 0 1-1.365-3.018l.022-.05v-.003l6.96-18.12c.182-.48.052-1.41.036-1.514V.604c.02-.044.155-.125.545-.125zm.664.515c-.223 0-.372.048-.41.145h-.004c-.102.266.628.79 1.633 1.175.999.385 1.892.485 1.996.221.099-.26-.632-.786-1.631-1.17-.626-.242-1.21-.371-1.584-.37zm.744 7.781s-.965 1.108-1.844 1.508c-.88.398-1.527.293-2.318.756-.79.461-1.19 1.104-1.19 1.104L6.27 20.506c-.348.944.168 2.05 1.125 2.42.96.369 2.04-.12 2.412-1.057zM10.39 12.21a.19.19 0 0 1 .185.121c.043.104 0 .226-.103.266-.104.042-.227 0-.266-.104a.206.206 0 0 1 .104-.267.2.2 0 0 1 .08-.016zm1.33 1.365a.3.3 0 0 1 .281.18.3.3 0 0 1-.154.398.296.296 0 0 1-.399-.154.29.29 0 0 1 .155-.396v.002a.3.3 0 0 1 .117-.03zm-2.04 1.483a.58.58 0 0 1 .534.332.584.584 0 0 1-.285.757c-.3.126-.63 0-.766-.285h.014a.58.58 0 0 1 .287-.757.6.6 0 0 1 .217-.047zm-.915 1.322a.3.3 0 0 1 .28.18c.075.15.008.314-.155.39v.008a.296.296 0 0 1-.397-.154.296.296 0 0 1 .154-.397.3.3 0 0 1 .118-.027zm1.218 2.365c.08 0 .157.042.188.121a.2.2 0 0 1-.106.264c-.104.043-.224 0-.265-.104a.204.204 0 0 1 .103-.265.2.2 0 0 1 .08-.016z"/></svg>