<svg xmlns="http://www.w3.org/2000/svg" viewBox="0 0 24 24"><path d="m23.719.668-.08.039s-4.563 2.175-8.244 2.652c-1.854.24-4.555.48-6.965.62a66 66 0 0 1-3.254.117c-.917.005-1.63-.032-1.95-.11a20 20 0 0 1-2.4-.732l-.252-.1.346 1.172-.92.81.248.436.44.033 1.052.131.162.514.635.057.318 1.078.092.006s1.338.115 1.762.115c.365 0 .93-.04 1.072-.05l.024.396.287.054v.315l-.799.71.156.028c-.14.01-.227.017-.5.03-.43.016-.934.02-1.203-.018-.586-.086-.71-.086-.71-.086H2.98l-.123.13-.045.446h.153l.055 1.111 2.931-.113-.205 3.682-.02.347-2.242-.127-.02-.761h.54l.057-.42.462-.106.223-.312-2.11-.51-1.704.506.464.388h.167l.025.334.492.028v.763l-.61.157.19.404.106.068v.825h.341v3.296l-.564.086.098 1.247.334.056-.055 2.342 1.803.033-.32-2.303 1.982-.048-.14 1.087-.25 1.032 2.609.033.027-2.28 1.32-.12-.07 1.294-.065.99h1.633l-.053-2.3.176.027.069-1.392h-.245l-.056-.34-.133-1.29.05-1.364h.296v-1.182l-.366.027.042-.806.43-.043.023-.352.172-.025.51-.389-1.829-.375-1.709.379.285.469.24-.02.053-.004.035.442.41-.02.005.674-1.528-.035.055-.877.058-.926v-1.213l.047-1.152 3.487-.178 4.154-.24.033.674-.152 1.949-.063 1.693-1.32-.023-.006-1.018.574-.021.028-.373.27-.041-.012-.057.152-.01.29-.388-2.01-.471-1.985.426.258.45.138-.01v.089h.246v.402l.526.008-.006.856h-.527l-.014.505.185.022-.02.978.393.02-.044 3.615-.524.108.018.423h.175v.985h.29l-.07 1.205-.112 1.314 2.17.057-.07-1.172-.14-.848-.02-.593 1.324-.024-.04 1.002-.01 1.33 1.034.082 1.252-.05.533-.157-.25-.76-.053-1-.08-.583 1.233-.045-.057.742-.006 1.515.738.069.631-.016.416-.13-.187-1.424-.049-.862.25-.027.006-.895.08-.017-.027-.43h-.303l-.049-.527-.023-2.692.222-.006v-.902l.096.014v-.461l-.334-.027.006-.836.57-.051-.033-.362.26-.021-.024-.117.58-.29-2.056-.413-1.88.38.231.432.223-.02.014.077h.203l.011.426.547-.006.035.773-1.67-.012-.212-1.457-.178-.826-.145-1.469.075-.746 3.847-.293.012-1.316.201-.05-.023-.38-.239-.138h-.037l-.357.05-.793.116a62 62 0 0 1-1.625.216l-.19.02-.015-.178-.785-.41.006-.275.271-.008.02-.672c.09-.006.352-.024.771-.062.484-.045 1.04-.105 1.361-.18.597-.14 1.452-.28 1.452-.28l.076-.013.408-1.108.805-.234.066-.184 1.78-.492.306-.252-.717-1.564.047-.236.344-.18.297-.906zM14.824 6.73l-.01.526.409.017-.018.32-.787.518-.088.258-1.86.09.01-.184.114-.18.01-.154v-.228l.068-.156.03-.16v-.092l.08-.323zm-5.18.461-.042.264.199.234-.014.387.176.27-.047.328.025.035-1.847.074.02-.152-.653-.354-.022-.345.29-.014.029-.598zm4.016 8.5 1.258.082-.05 1.938.183 1.541-1.34-.047zm-10.226.084 2.16.112L5.4 17.17v1.219l.137.523-2.09.098zm15.377.01v3.256l-1.291.094-.051-1.723-.158-1.592zm-11.495.076 1.538.006.017 2.996-1.43.026-.076-.928-.006-1.047z"/></svg>