<svg xmlns="http://www.w3.org/2000/svg" viewBox="0 0 24 24"><path d="M12.064 0a.153.153 0 0 0-.152.152V2.98c0 .095.079.171.174.171h1.22c.494 0 .893.38.936.864v13.379l-.017.363-.05.281q-.015.067-.032.133a2.1 2.1 0 0 1-.385.707l-.022.021a2 2 0 0 1-.37.34c-.499.353-1.17.508-1.919.436-.955-.09-1.904-.524-2.67-1.22-.765-.697-1.242-1.558-1.34-2.427-.088-.778.146-1.462.657-1.927l.004-.002.06-.051c.366-.307.844-.492 1.389-.543l.015-.002.3-.016.349.018.023.004c.5.05.994.198 1.463.424q.014 0 .035.011c.143.08.17-.004.174-.06V9.627a.265.265 0 0 0-.203-.258c-2.527-.556-5.005.022-6.754 1.615-1.528 1.39-2.265 3.395-2.025 5.502.213 1.876 1.175 3.68 2.71 5.076 1.498 1.362 3.404 2.215 5.37 2.4.27.026.543.038.809.038 1.876 0 3.618-.644 4.904-1.814a6.32 6.32 0 0 0 2.054-4.288l.01-10.867h.002V4.076a.946.946 0 0 1 .946-.926h1.22a.17.17 0 0 0 .172-.171V.152A.153.153 0 0 0 20.97 0z"/></svg>