<svg xmlns="http://www.w3.org/2000/svg" viewBox="0 0 24 24"><path d="M14.75.77q-.524 0-.861.412a1.44 1.44 0 0 0-.338.937v.074l.148.602.301.75a.93.93 0 0 1 0 .523l-.225.9h-.15l-.225.901v.15l-.15.225q-.15.3-.15.6l-.375 1.2q-.3.3-.45.524 0-.075-.15-.224v-.225l-.3-.15q0-.075-.075-.074l-.15-.15q-.225-.226-.637-.265-.413-.037-.824.338-.413.375-.338.9 0 .301.449.677l.074.074-.148.15q0 .15-.076.225l-.225.224q-.375.001-.676.452l-.224.298q-.225.376-.375.602-.15.224-.3.523l-.075.301a3.7 3.7 0 0 0-.711.787 9 9 0 0 0-.639 1.088l-.074.15-.602.674-.523.227q-.45.15-.75.074-.075 0-.076.074l.076.077.375.074q.3.076.6-.074.075 0 .074.074l-.375.15q-.15.075-.037.15t.187 0l.6-.15q.075 0 0 .15l-.075.075q-.075.074.075.111.15.039.3-.185l.225-.225q.075 0 .188.111a.6.6 0 0 0 .337.15q.225.039.225-.076 0-.111-.15-.185H7.4q-.075 0-.076-.15H7.25l.074-.15a.7.7 0 0 1 0-.45q.15-.45.526-.826.6-.376.826-.639a5.3 5.3 0 0 0 .523-.785l.076-.15q.3-.076.375-.301h.225q.075.225.3.6 0 .225.15.45h.075q0 .374.15.674l-.3.301q-.3 0-.375.225t-.074.6v.374q-.076.075-.227.15l-.148.151H9.35q-.225 0-.375.3-.225.15-.75.524-.6.6-.9 1.125-.45 0-.825.375-1.2.45-2.25 1.276-.525.376-.9.826l-.3.299q-.075 0-.075.076l.076.074-.15.15-.151-.15q-.15 0-.225.15l-.076.15q-.15.15-.224-.226l-.075-.224h-.037q-.037 0-.076.076-.038.075.037.225a.7.7 0 0 0 .076.298v.077q-.15 0-.224.074-.076.075-.076.224l-.3.077-.6.224H.5q-.15 0-.225.074L.2 21.77q-.299.15-.148.375.15.374.375.56.225.188.6.113l.298-.074.451-.074.338.035.225-.148.15-.15a.4.4 0 0 0 .075-.112q.037-.075.187-.113t.3-.338l.15-.225h.15v-.15l.3-.15q.075 0 .3-.075l.15-.15q.15.15.3 0l1.276-.9.824-.376q.675-.375 1.426-.974L9.8 18.02l1.5-.75q.15-.076.299-.077l.15.15q.15.076.45.151l.3.15q.225 0 .824.3l.602.3q.75.375 1.199.45l.9.15.45.3q.375.225 1.5 1.2.3.224.525.224l.975.75q.15.076.3.077l.3.224.15.188.187.224.225.3.187.263.15.3.225.3q.075.075.15 0l.975-.674q.3-.075.676-.375l.9-.827q.15-.15.075-.224H23.9q-.225-.225-.45-.15l-.376.226q-.15.074-.375.148l-.523-.074h-.526l.375-.45.3-.15q.075-.076 0-.076h-.3q-.15.076-.3.227l-.15.074q-.075.075-.15.074h-.075q-.075.001-.3-.148h-.075l-.225-.15.074-.15v-.075l-.299-.227q-1.575-1.499-3.15-2.548l-.225-.077q-.15-.15-.45-.224-.375-.375-.75-.713-.374-.337-1.274-.787l-.375-.15q.375-.525-.526-.975l-.15-.45q.3-1.05.225-2.55 0-.226-.188-.526-.187-.299-.187-.523l-.075-.076q-.15-.675 0-.975.225-.525.262-.75t.113-.6v-.15a23 23 0 0 0 .45-1.574l.076-.3a.9.9 0 0 0 .148-.225l.15-.75q0-.075-.074-.15l.15-1.2.075-.414-.074-.111.224-.077q.525 0 .9-.375.376-.375.339-.937a1.22 1.22 0 0 0-.451-.9A1.44 1.44 0 0 0 14.75.77z"/></svg>