<svg xmlns="http://www.w3.org/2000/svg" viewBox="0 0 24 24"><path d="M11.998 0C5.372.001 0 5.374 0 12a12 12 0 0 0 6.648 10.736v.002h.002A12 12 0 0 0 12 24c6.628 0 12-5.373 12-12A12.01 12.01 0 0 0 16.35.83a8 8 0 0 0-.254-.086v2.889h.004v2.336H9.92l-.371 4.045q.392-.066.949-.157.572-.09 1.389-.09v.003q2.47 0 3.912 1.306 1.44 1.307 1.441 3.567 0 2.615-1.642 4.09-1.633 1.464-4.65 1.464-2.734 0-4.298-.879v-.256h-.002v.254l-.003-.002v-2.38a8 8 0 0 0 2.078.793 9.5 9.5 0 0 0 2.18.28q1.776 0 2.704-.794t.928-2.324q0-2.929-3.732-2.93-.525 0-1.297.111-.772.101-1.354.237l-1.173-.694.626-7.98h8.489V.744A12 12 0 0 0 12 0zm4.096 3.633v.16h.002v-.16zm-8.492 15.78zm1.431.448z"/></svg>