<svg xmlns="http://www.w3.org/2000/svg" viewBox="0 0 24 24"><path d="M19.168 0a1.415 1.427 0 0 0-1.416 1.428 1.415 1.427 0 0 0 1.416 1.427 1.415 1.427 0 0 0 1.414-1.427A1.415 1.427 0 0 0 19.168 0zm-6.842 2.002A9.24 9.24 0 0 0 6.95 3.73a9.36 9.36 0 0 0-3.392 4.547c1.713-2.04 5.003-3.423 8.771-3.423 3.77 0 7.06 1.38 8.768 3.423a9.36 9.36 0 0 0-3.393-4.547 9.24 9.24 0 0 0-5.377-1.728zm-8.38.277a1.047 1.056 0 0 0-1.048 1.057A1.047 1.056 0 0 0 3.945 4.39a1.047 1.056 0 0 0 1.047-1.055 1.047 1.056 0 0 0-1.047-1.057zM3.56 14.723a9.36 9.36 0 0 0 3.394 4.547A9.24 9.24 0 0 0 12.33 21a9.24 9.24 0 0 0 5.377-1.729 9.36 9.36 0 0 0 3.393-4.546c-1.712 2.044-5.003 3.423-8.772 3.423-3.768 0-7.06-1.381-8.767-3.425zm1.812 5.68A1.784 1.799 0 0 0 3.59 22.2 1.784 1.799 0 0 0 5.373 24a1.784 1.799 0 0 0 1.783-1.799 1.784 1.799 0 0 0-1.783-1.799z"/></svg>