<svg xmlns="http://www.w3.org/2000/svg" viewBox="0 0 24 24"><path d="M1.875 0C.839 0 0 .84 0 1.875v20.25C0 23.161.84 24 1.875 24h20.25C23.161 24 24 23.16 24 22.125V1.875C24 .839 23.16 0 22.125 0zM12 3.375c5.385 0 9.75 3.442 9.75 7.688S17.385 18.75 12 18.75q-.888 0-1.732-.121c-.563.396-3.813 2.68-4.12 2.723 0 0-.125.049-.232-.014s-.088-.229-.088-.229c.032-.22.843-3.018.992-3.533-2.745-1.36-4.57-3.769-4.57-6.514 0-4.245 4.365-7.687 9.75-7.687zm-6.83 5.39a.553.553 0 0 0-.553.551c0 .304.249.551.553.551h.877v3.342a.55.55 0 0 0 .562.537.55.55 0 0 0 .563-.537V9.867h.877a.553.553 0 0 0 .553-.55.553.553 0 0 0-.553-.551zm4.768 0c-.367.009-.656.286-.75.555l-1.346 3.543c-.171.53-.02.728.135.8a.9.9 0 0 0 .357.075c.235 0 .413-.095.467-.248l.28-.728h1.714l.28.728c.053.153.231.248.466.248a.9.9 0 0 0 .357-.076c.156-.071.304-.269.133-.8l-1.344-3.54c-.095-.27-.382-.548-.75-.556zm3.035 0a.57.57 0 0 0-.575.563v3.82c0 .285.242.516.54.516h1.804a.53.53 0 0 0 .54-.516.53.53 0 0 0-.54-.515h-1.195V9.328a.57.57 0 0 0-.574-.562zm3.09 0a.563.563 0 0 0-.563.563v3.848a.563.563 0 0 0 .563.562.564.564 0 0 0 .562-.562v-1.227l.195-.195 1.319 1.748a.56.56 0 0 0 .45.223.56.56 0 0 0 .339-.114.56.56 0 0 0 .217-.37.56.56 0 0 0-.108-.417l-1.385-1.834 1.284-1.283a.44.44 0 0 0 .123-.342.56.56 0 0 0-.166-.357.55.55 0 0 0-.387-.166.43.43 0 0 0-.31.125l-1.571 1.57V9.328a.563.563 0 0 0-.562-.562zm-6.125 1.403.562 1.598H9.375z"/></svg>