<svg xmlns="http://www.w3.org/2000/svg" viewBox="0 0 24 24"><path d="M12 0C5.373 0 0 5.373 0 12s5.373 12 12 12 12-5.373 12-12S18.627 0 12 0zm.033 1.217c5.943.009 10.756 4.827 10.756 10.771 0 5.95-4.823 10.774-10.773 10.774H12c-5.95-.01-10.765-4.84-10.756-10.79s4.84-10.764 10.79-10.755zm-1.299 1.467a6.33 6.33 0 0 0-3.642 1.148 5.563 5.563 0 0 1 7.418 6.258 6.33 6.33 0 0 0-3.426-1.764l.094-.174A5.5 5.5 0 0 1 12.48 6.62a6.3 6.3 0 0 0-2.12 1.637A6.327 6.327 0 0 0 7.344 20.3a5.564 5.564 0 0 1 1.713-9.563 6.33 6.33 0 0 0 .183 3.819h-.185a5.5 5.5 0 0 1-1.98-.36 6.3 6.3 0 0 0 2.472 1.026 6.33 6.33 0 0 0 8.512 2.758 6.32 6.32 0 0 0 3.431-6.075 5.562 5.562 0 0 1-9.14 3.215 6.33 6.33 0 0 0 3.25-2.062l.103.17c.34.584.57 1.225.678 1.892a6.3 6.3 0 0 0-.35-2.656 6.328 6.328 0 0 0-5.297-9.78zm-.261 7.779a5.58 5.58 0 0 1 3.6.998 5.6 5.6 0 0 1-2.667 2.617 5.57 5.57 0 0 1-.933-3.615z"/></svg>