<svg xmlns="http://www.w3.org/2000/svg" viewBox="0 0 24 24"><path d="M12.004 0a3.2 3.2 0 0 0-1.414.328L2.275 4.973A3.05 3.05 0 0 0 .861 7.37v9.256a3.05 3.05 0 0 0 1.414 2.4l8.307 4.645a3.21 3.21 0 0 0 2.828 0l8.315-4.645a3.05 3.05 0 0 0 1.414-2.4V7.373a3.05 3.05 0 0 0-1.414-2.4L13.418.328A3.2 3.2 0 0 0 12.004 0zM12 4.92v.002a2.572 2.572 0 1 1 .002 5.142A2.572 2.572 0 0 1 12 4.92zM3.43 9.703c4.646.017 8.074 3.823 8.074 8.51v.197h.926v-.195c0-4.688 3.443-8.512 8.054-8.512.026.29.043.584.086.858a8.5 8.5 0 0 1-5.476 7.988 9.1 9.1 0 0 1-3.104.549 9 9 0 0 1-3.076-.551A8.49 8.49 0 0 1 3.43 10.56z"/></svg>