<svg xmlns="http://www.w3.org/2000/svg" viewBox="0 0 24 24"><path d="M2.482 9.176a.1.1 0 0 0-.052.015L.422 10.398c-.338.2-.422.421-.422.801v3.08c0 .251.169.42.426.418h2.4a.72.72 0 0 0 .422-.12l2.611-1.571a.1.1 0 0 1 .047-.016.07.07 0 0 1 .05.026l1.562 1.558c.099.1.238.125.421.125h2.33c.046 0 .085-.019.085-.043 0-.029-.025-.054-.06-.088L7.72 11.992c-.024-.026-.033-.04-.033-.055 0-.016.01-.032.046-.056l3.608-2.164a.1.1 0 0 1 .056-.024c.03 0 .043.032.043.065v4.523c0 .254.168.422.422.422h3.625a.73.73 0 0 0 .42-.127l5.465-3.55a.1.1 0 0 1 .059-.024c.029 0 .04.027.04.07v3.662c0 .07.026.088.05.088a.14.14 0 0 0 .066-.023l1.994-1.2c.336-.2.42-.42.42-.8v-3.14c0-.253-.17-.42-.422-.42h-1.644a.72.72 0 0 0-.432.13l-7.48 4.854a.1.1 0 0 1-.057.023q-.04 0-.041-.07l-.002-.002.002-4.518c0-.252-.17-.42-.422-.42H9.854a.73.73 0 0 0-.448.123l-6.775 4.08a.14.14 0 0 1-.06.024c-.032 0-.042-.02-.042-.063V9.275c0-.07-.015-.1-.047-.1z"/></svg>