<svg xmlns="http://www.w3.org/2000/svg" viewBox="0 0 24 24"><path d="M21.744 9.658a2.3 2.3 0 0 0-.875.172 2.2 2.2 0 0 0-.72.48 2.3 2.3 0 0 0-.485.743 2.5 2.5 0 0 0-.176.949 2.6 2.6 0 0 0 .176.988 2.2 2.2 0 0 0 .484.735 2.1 2.1 0 0 0 .72.457 2.4 2.4 0 0 0 .876.158 1.7 1.7 0 0 0 .422-.055 2.3 2.3 0 0 0 .406-.146 2.5 2.5 0 0 0 .377-.22 3 3 0 0 0 .197-.148.18.18 0 0 1 .258.036l.27.375a.18.18 0 0 0 .326-.106v-4.06a.18.18 0 0 0-.18-.182l.002.002h-.008a.18.18 0 0 0-.138.066l-.266.317a.18.18 0 0 1-.252.021 3 3 0 0 0-.203-.156 2.5 2.5 0 0 0-.377-.223 2.2 2.2 0 0 0-.408-.15 1.7 1.7 0 0 0-.426-.053zM8.832 9.82a2 2 0 0 0-.719.135 2 2 0 0 0-.617.38L7.18 9.97a.18.18 0 0 0-.137-.063h-.01a.18.18 0 0 0-.18.18v4.07a.18.18 0 0 0 .18.18H7.8a.18.18 0 0 0 .181-.18v-2.35a.8.8 0 0 1 .065-.327.8.8 0 0 1 .182-.27.85.85 0 0 1 .607-.248.8.8 0 0 1 .324.064.85.85 0 0 1 .45.454.8.8 0 0 1 .066.328v2.351a.18.18 0 0 0 .18.182h.765a.18.18 0 0 0 .18-.182v-2.351a2 2 0 0 0-.154-.772 2 2 0 0 0-.422-.63 2 2 0 0 0-.627-.43 1.9 1.9 0 0 0-.764-.155zm-8.65.088A.18.18 0 0 0 0 10.09v4.068a.18.18 0 0 0 .182.182h.773a.18.18 0 0 0 .18-.182V10.09a.18.18 0 0 0-.178-.182zm5.62 0a.18.18 0 0 0-.136.063l-.037.043-.719.834a.18.18 0 0 0-.045.119v3.191a.18.18 0 0 0 .18.182h.766a.18.18 0 0 0 .18-.182V10.09a.18.18 0 0 0-.178-.182zm-2.683.01a.18.18 0 0 0-.137.062l-1.746 2.032a.18.18 0 0 0 0 .238l1.746 2.03a.18.18 0 0 0 .137.062h.87a.181.181 0 0 0 .134-.299l-1.55-1.795a.18.18 0 0 1 0-.238l1.552-1.793a.181.181 0 0 0-.137-.299zm9.735 0a1.4 1.4 0 0 0-.55.11 1.4 1.4 0 0 0-.743.745 1.44 1.44 0 0 0 0 1.1 1.42 1.42 0 0 0 .744.754 1.4 1.4 0 0 0 .549.111h1.209a.24.24 0 0 1 .242.215.24.24 0 0 1-.239.26h-2.435a.18.18 0 0 0-.18.182v.761a.18.18 0 0 0 .18.18h2.392a1.4 1.4 0 0 0 .99-.41 1.5 1.5 0 0 0 .301-.447 1.4 1.4 0 0 0 .112-.55 1.3 1.3 0 0 0-.112-.533 1.3 1.3 0 0 0-.298-.414v-.002a1.4 1.4 0 0 0-.446-.27 1.5 1.5 0 0 0-.543-.095h-1.173a.27.27 0 0 1-.198-.086.28.28 0 0 1-.082-.203.28.28 0 0 1 .28-.281h2.101a.18.18 0 0 0 .18-.182v-.765a.18.18 0 0 0-.18-.18zm3.042 0a.18.18 0 0 0-.18.18v.761a.18.18 0 0 0 .18.182h.19a.18.18 0 0 1 .18.18v1.134a1.95 1.95 0 0 0 .154.77 2 2 0 0 0 1.055 1.059 1.9 1.9 0 0 0 .767.154h.674a.18.18 0 0 0 .182-.182v-.761a.18.18 0 0 0-.182-.18h-.676a.8.8 0 0 1-.334-.069.9.9 0 0 1-.271-.183.9.9 0 0 1-.182-.272.8.8 0 0 1-.064-.334v-1.134a.18.18 0 0 1 .18-.18h1.347a.18.18 0 0 0 .18-.182V10.1a.18.18 0 0 0-.182-.182zm5.85.88a1 1 0 0 1 .436.1 1.2 1.2 0 0 1 .357.27 1.3 1.3 0 0 1 .242.385 1.2 1.2 0 0 1 0 .9 1.3 1.3 0 0 1-.242.383 1.2 1.2 0 0 1-.357.27 1 1 0 0 1-.436.1 1.2 1.2 0 0 1-.433-.079 1 1 0 0 1-.356-.232 1.1 1.1 0 0 1-.238-.377 1.58 1.58 0 0 1 0-1.032 1.1 1.1 0 0 1 .238-.377 1 1 0 0 1 .355-.232 1.2 1.2 0 0 1 .434-.078z"/></svg>