<svg xmlns="http://www.w3.org/2000/svg" viewBox="0 0 24 24"><path d="M0 7.996v8.008h24V7.996zm2.23 1.828h.858v3.227H5.01v.777H2.23zm4.495.87c.512 0 .93.175 1.214.505a1.67 1.67 0 0 1 .372.86l-2.165.896c.162.16.39.25.682.25.325 0 .53-.06.887-.324l.533.41c-.274.317-.86.59-1.432.59-1.022 0-1.724-.664-1.724-1.594 0-.907.702-1.594 1.633-1.594zm3.74 0c.745 0 1.252.515 1.252 1.224v1.908h-.848v-1.752c0-.408-.36-.65-.71-.65-.454 0-.698.334-.698.65v1.752h-.848v-3.08h.848v.441a1.28 1.28 0 0 1 1.004-.494zm3.25 0c.925 0 1.648.69 1.648 1.593 0 .892-.73 1.592-1.662 1.592-.925 0-1.65-.689-1.65-1.592 0-.893.73-1.594 1.664-1.594zm6.514 0c.925 0 1.65.69 1.65 1.593 0 .892-.73 1.592-1.662 1.592-.925 0-1.65-.689-1.65-1.592 0-.893.73-1.594 1.662-1.594zm-4.995.05h.967l.766 2.102.763-2.1h.967l-1.267 3.08h-.926zm-8.496.623a.79.79 0 0 0-.65.309 1 1 0 0 0-.172.736l1.479-.613a.71.71 0 0 0-.657-.43zm6.963.053c-.472 0-.814.357-.814.867 0 .486.364.867.828.867.472 0 .814-.368.814-.867 0-.487-.364-.867-.828-.867zm6.516 0c-.472 0-.815.357-.815.867 0 .487.363.867.827.867.472 0 .816-.367.816-.867 0-.487-.364-.867-.828-.867z"/></svg>