<svg xmlns="http://www.w3.org/2000/svg" viewBox="0 0 24 24"><path d="M11.992 0a.883.883 0 0 0-.873.816v3.022A.883.883 0 0 0 12 4.72a.883.883 0 0 0 .88-.881V.816A.883.883 0 0 0 11.993 0zm7.703 3.11a.88.88 0 0 0-.521.173L16.8 5.23a.88.88 0 0 0 .558 1.563.88.88 0 0 0 .56-.2l2.372-1.95a.88.88 0 0 0-.596-1.534zM4.32 3.122a.883.883 0 0 0-.611 1.52l2.37 1.95a.88.88 0 0 0 .56.2V6.79a.88.88 0 0 0 .56-1.56L4.83 3.282a.9.9 0 0 0-.509-.16zm7.66 3.227a5.046 5.046 0 0 0-5.027 5.045v1.488H5.787a.967.967 0 0 0-.965.965v9.187a.967.967 0 0 0 .965.965h12.426a.967.967 0 0 0 .965-.965v-9.19a.967.967 0 0 0-.965-.962h-1.168v-1.488A5.046 5.046 0 0 0 11.98 6.35zm.012 2.892a2.15 2.15 0 0 1 2.16 2.153v1.488H9.848v-1.488a2.15 2.15 0 0 1 2.144-2.153zm7.381.504a.883.883 0 1 0 .07 1.764h3.028a.883.883 0 0 0 0-1.762h-3.028zm-17.844.002a.883.883 0 0 0 0 1.762h2.998a.883.883 0 0 0 0-1.762zm10.46 6.775a1.28 1.28 0 0 1 .64 2.393v1.244a.63.63 0 0 1-1.258 0v-1.244a1.28 1.28 0 0 1 .617-2.393z"/></svg>