<svg xmlns="http://www.w3.org/2000/svg" viewBox="0 0 24 24"><path d="M5 0C3.338 0 2 1.338 2 3v18c0 1.662 1.338 3 3 3h14c1.662 0 3-1.338 3-3V9l-9-9zm10 0 7 7V0zM9 9c1.657 0 3 .448 3 1v1c0 .552-1.343 1-3 1s-3-.448-3-1v-1c0-.552 1.343-1 3-1zm4 2h5v7h-5zm-7 1c0 .552 1.343 1 3 1s3-.448 3-1v1c0 .552-1.343 1-3 1s-3-.448-3-1zm8 0v1h1v-1zm2 0v1h1v-1zM6 14c0 .552 1.343 1 3 1s3-.448 3-1v1c0 .552-1.343 1-3 1s-3-.448-3-1zm8 0v1h1v-1zm2 0v1h1v-1zM6 16c0 .552 1.343 1 3 1s3-.448 3-1v1c0 .552-1.343 1-3 1s-3-.448-3-1zm8 0v1h1v-1zm2 0v1h1v-1z"/></svg>