<svg xmlns="http://www.w3.org/2000/svg" viewBox="0 0 24 24"><path d="M12.03 7.135a4.81 4.81 0 0 0-4.807 4.808H7.09a18 18 0 0 0-2.766.836l-.136.053a2.4 2.4 0 0 0-1.133.79 1.2 1.2 0 0 1 .486.728 2.4 2.4 0 0 0 1.205-.448 16.6 16.6 0 0 1 2.578-.775 4.808 4.808 0 0 0 9.358 0 16.6 16.6 0 0 1 2.578.77 2.404 2.404 0 1 0 2.385-1.84 2.4 2.4 0 0 0-1.803.8l-.139-.054a18 18 0 0 0-2.865-.86 4.81 4.81 0 0 0-4.809-4.808zM3.54 14.35a2.4 2.4 0 0 1-1.992.736 1.2 1.2 0 0 0 .865.578 1.2 1.2 0 0 0 1.201-1.203 1 1 0 0 0-.074-.111zm-1.992.736a1.2 1.2 0 0 1-.227-.258 2.4 2.4 0 0 0 .227.258zm-.227-.258a2.4 2.4 0 0 1 1.733-1.207 1.202 1.202 0 0 0-1.733 1.207zm11.51-6.287a3.606 3.606 0 0 1 2.803 3.516 3.606 3.606 0 0 1-3.606 3.607 3.606 3.606 0 1 1 .803-7.123zm-.803 1.713a1.803 1.803 0 1 0 1.803 1.803 1.803 1.803 0 0 0-1.803-1.803zm10.076 3.098a1.2 1.2 0 0 1 .743 1.109 1.2 1.2 0 0 1-1.203 1.203 1.202 1.202 0 1 1 .46-2.312z"/></svg>