<svg xmlns="http://www.w3.org/2000/svg" viewBox="0 0 24 24"><path d="M11.998 0c-2.25 0-4.5.06-6.6.21A5.57 5.57 0 0 0 .21 5.31a68 68 0 0 0-.06 9.6 5.644 5.644 0 0 0 5.7 5.19h3.149v-3.9H5.85c-.93.03-1.74-.63-1.83-1.56-.18-3-.152-6 .058-9 .06-.84.72-1.47 1.56-1.53 2.04-.15 4.2-.21 6.36-.21s4.321.09 6.361.18c.81.06 1.5.69 1.56 1.53.24 3 .24 6 .06 9-.12.93-.9 1.62-1.83 1.59h-3.151l-6 3.9V24l6-3.9h3.15c2.97.03 5.462-2.25 5.702-5.19.21-3.18.178-6.39-.032-9.57a5.57 5.57 0 0 0-5.19-5.1c-2.13-.18-4.38-.24-6.63-.24z"/></svg>