<svg xmlns="http://www.w3.org/2000/svg" viewBox="0 0 24 24"><path d="M11.947 0a2.1 2.1 0 0 0-2.095 2.104 2.1 2.1 0 0 0 .355 1.166l.895-.897a.884.884 0 1 1 .566.564l-.895.895A2.096 2.096 0 0 0 13.12.359 2.1 2.1 0 0 0 11.947 0zM7.81 2.832a3.28 3.28 0 0 0-2.041 5.826 3.28 3.28 0 0 0 2.728.666L7.863 7.78h-.031a1.669 1.669 0 0 1-.004-3.338 1.67 1.67 0 0 1 .92.274L9.9 3.565a3.27 3.27 0 0 0-2.091-.733zm2.65 1.316L9.295 5.311a1.67 1.67 0 0 1-.318 2.011l.632 1.545a3.28 3.28 0 0 0 1.504-2.754 3.26 3.26 0 0 0-.654-1.965zm1.533 4.965-.002.002c-.728 0-1.452.106-2.15.315l.922 2.252a5.02 5.02 0 1 1 2.47 9.73 5.021 5.021 0 0 1-3.597-9.295l-.91-2.244a7.44 7.44 0 0 0-3.409 9.957 7.44 7.44 0 0 0 9.957 3.41v-.002a7.44 7.44 0 0 0 3.413-9.955A7.44 7.44 0 0 0 12 9.113z"/></svg>