<svg xmlns="http://www.w3.org/2000/svg" viewBox="0 0 24 24"><path d="M11.96 2.332 5.274 6.238l.022 6.862 1.738-1.12.904-.525-.011-3.697 4.05-2.367 4.07 2.322.013 3.7 2.654 1.513-.024-6.754zm7.685 4.324.01 3.055 1.675.957.014 2.57-2.221 1.295-3.271-1.861-2.633 1.545 5.922 3.377L24 14.752l-.002-5.611zm-15.323.069L0 9.248l.03 5.629 4.888 2.789 10.19-5.943-.01-3.063-10.196 5.947-2.232-1.273-.014-2.57 1.674-.979zM8.881 8.7l.008 2.2 1.906-1.11zm6.351 8.035-3.209 1.875-3.177-1.81-2.514 1.613 5.707 3.258 5.85-3.418z"/></svg>