<svg xmlns="http://www.w3.org/2000/svg" viewBox="0 0 24 24"><path d="M11.563 0q-.524.018-1.043.082l.033.273q.508-.061 1.02-.08zm1.048.008-.013.271c.339.018.681.053 1.017.1l.04-.274Q13.132.034 12.61.008zm8.569.12a2.69 2.69 0 0 0 0 5.38 2.69 2.69 0 0 0 0-5.38zM9.486.259Q8.974.366 8.473.52l.08.262c.325-.099.66-.185.992-.256zm5.198.037-.065.268q.5.114.988.273l.086-.264c-.332-.105-.67-.2-1.01-.277zM7.486.873q-.478.192-.937.428l-.016.008.125.244.016-.008q.449-.226.916-.418zm9.188.066-.108.252q.473.201.926.44l.13-.242a12 12 0 0 0-.948-.45zm-11.051.885a12 12 0 0 0-.863.594l.166.219c.27-.203.555-.4.844-.578zM12 2.818a9.18 9.18 0 1 0 .002 18.357A9.18 9.18 0 0 0 12 2.819zm-8.049.266c-.258.232-.509.48-.746.734l.203.188c.231-.248.477-.49.729-.717zM2.527 4.615q-.32.416-.605.854l.23.15c.185-.285.384-.566.592-.834zm13.276.89a2.69 2.69 0 1 1-.004 5.38 2.69 2.69 0 0 1 .004-5.38zm-14.41.868c-.163.307-.315.625-.45.945l.252.108c.132-.313.28-.625.44-.924zm21.304.174-.244.125c.154.303.297.617.424.932l.256-.104a12 12 0 0 0-.436-.953zM.578 8.299c-.108.332-.201.672-.28 1.01l.268.062c.076-.332.17-.662.274-.984zm22.906.185-.263.082c.1.326.186.66.256.993l.27-.061c-.073-.34-.16-.682-.263-1.014zM.107 10.34c-.048.344-.08.695-.1 1.04l.274.016q.028-.511.1-1.019zm23.813.193-.274.033c.041.338.069.682.08 1.022l.276-.01a12 12 0 0 0-.082-1.045zm-18.149.031h.768v5.346h2.975v.678H5.77zm10.76 1.573c1.066 0 1.627.411 1.627 1.181v2.412c0 .215.133.338.373.338.041-.002.074-.002.149-.017v.52c-.223.058-.33.074-.471.074a.73.73 0 0 1-.711-.57 2.03 2.03 0 0 1-1.47.638c-.878 0-1.423-.463-1.423-1.248 0-.527.256-.916.76-1.123.266-.107.414-.143 1.389-.266.545-.066.719-.19.719-.478v-.184c0-.412-.348-.644-.967-.644-.645 0-.957.24-1.016.77h-.693c.04-1 .686-1.403 1.734-1.403zm-6.334.12h.688v3c0 .52.346.85.892.85.72 0 1.18-.578 1.18-1.46v-2.39h.688v4.33h-.622v-.669c-.405.57-.81.793-1.445.793-.843 0-1.38-.463-1.38-1.182zm-9.924.163-.275.01c.012.348.041.699.084 1.043l.273-.034c-.042-.336-.07-.68-.082-1.02zm23.444.191c-.018.338-.05.682-.1 1.018l.274.039q.072-.52.101-1.043zm-6.244 1.834c-.23.107-.38.142-1.108.24-.735.11-1.04.307-1.04.762 0 .471.313.66.85.66.67 0 1.298-.395 1.298-1.015zM.525 14.45l-.27.057c.074.34.163.682.265 1.014l.263-.08q-.15-.492-.258-.99zm22.907.186q-.116.501-.276.986l.264.086q.161-.499.28-1.01zM1.127 16.402l-.256.104q.196.479.432.943l.006.01.244-.125-.004-.01q-.231-.452-.422-.922zm21.672.178a11 11 0 0 1-.44.924l.245.129c.162-.307.314-.625.449-.945zM2.057 18.225l-.233.144q.279.447.594.863l.219-.164c-.205-.27-.4-.554-.58-.843zm19.785.162q-.28.429-.594.832l.217.17q.323-.411.607-.854zm-18.555 1.47-.205.184c.233.258.48.51.734.746l.19-.201c-.25-.23-.492-.477-.719-.729zm17.297.141c-.23.248-.477.488-.729.717l.184.203c.258-.23.51-.48.746-.732zm-15.8 1.252-.17.217c.273.213.56.418.853.605l.148-.23a12 12 0 0 1-.832-.592zm14.282.113a12 12 0 0 1-.843.58l.144.235c.295-.186.586-.387.863-.596zm-12.568.996-.129.245c.307.162.626.314.947.449l.108-.254c-.313-.133-.626-.28-.926-.44zm10.834.088-.006.002q-.456.232-.926.424l.104.256c.318-.131.64-.275.947-.434l.004-.002zm-8.951.71-.084.261c.33.107.669.201 1.008.28l.062-.268a12 12 0 0 1-.986-.274zm7.055.06c-.325.099-.659.185-.99.258l.058.27q.511-.111 1.014-.266zm-5.063.4-.037.272c.345.049.696.081 1.043.101l.014-.273a12 12 0 0 1-1.02-.1zm3.063.028c-.336.04-.679.068-1.018.08l.008.275q.524-.02 1.045-.084z"/></svg>