<svg xmlns="http://www.w3.org/2000/svg" viewBox="0 0 24 24"><path d="M11.785.002C5.276.002 0 5.332 0 11.906s5.3 12.086 11.785 12.086c4.228.127 8.151-1.86 9.445-5.101l.002-.002h-.002a10.53 10.53 0 0 0 1.612-5.62c0-1.27-.225-2.492-.635-3.62q-.224.021-.45-.004c-1.274-.148-2.196-.892-3.853-1.426-1.428-.46-2.352-.706-3.482-.88-2.228-.338-3.838.18-4.594.638l-.119.074c.363.167.683.442.95.773.572.71.881 1.652.905 2.028.004.059.006.028.004.113v.014c-.027.592-.229 1.08-.576 1.38-.256.222-.593.355-1.023.342h-.012c-.461-.022-.918-.156-1.342-.68-.07-.087-.117-.19-.181-.283l-.012-.021c-.333-.54-.786-.839-1.281-1.022-.526.964-.815 2.084-.815 3.36 0 4.346 3.517 7.578 7.819 7.578 1.367 0 4.255-.469 6.027-1.942l.035-.029c-1.644 1.748-4.417 2.7-6.992 2.7-4.985 0-9.047-4.082-9.027-9.118a8.3 8.3 0 0 1 .578-3.062c.237-.372.87-.318 1.308-.25 1.04.163 2.106.44 2.772 1.521.056.082.097.177.16.254a1.23 1.23 0 0 0 .974.494c.718.021 1.056-.519 1.088-1.246.001-.057.002-.028-.002-.078-.024-.507-.792-2.438-2.062-2.498H8.96a1.326 1.326 0 0 1-1.23-1.373c.07-.467.285-.837.708-1.137a14 14 0 0 1 1.786-1.002c2.368-1.022 3.696-1.289 5.978-1.3l.408.011c1.353.083 2.056.294 2.528.565.252-.254.597-.41.98-.41a1.402 1.402 0 0 1 1.197 2.113 2.5 2.5 0 0 0 .82.47 19 19 0 0 1 .39.143 2 2 0 0 1 .13-.01l.012-.008a1.14 1.14 0 0 1-.217-.677c0-.625.465-1.08.961-1.08l.07.003c-.005-.452-.049-.982-.2-1.283-.308-.6-.528-.857-2.09-1.715-1.563-.858-2.956-.377-2.956-.377s-.305-.257-.459-.43c-.152-.171-.287-.325-.525-.308-.18.013-.37.38-.451.557A11.65 11.65 0 0 0 11.785.002zm8.334 4.23a.895.895 0 0 0-.889.9.895.895 0 0 0 .89.9.895.895 0 0 0 .89-.9c0-.496-.399-.9-.89-.9zm3.293.952c-.254 0-.46.26-.46.58s.206.58.46.58c.255 0 .461-.26.461-.58s-.206-.58-.46-.58zm-.234 1.431s-.115.202-.364.322c-.103.05-.283-.075-.45.1-.36.726.516 1.334.923 1.317s.729-.432.711-.793c-.017-.558-.818-.946-.818-.946z"/></svg>