<svg xmlns="http://www.w3.org/2000/svg" viewBox="0 0 24 24"><path d="M10.514.002c-.344-.02-.746.13-.893.209a.675.675 0 0 0-.254.934c.234.443.647.458.899.322.253-.135.996-.705.736-1.197-.098-.185-.282-.256-.488-.268zm1.95.824c-.403-.01-.878.169-1.042.256a.754.754 0 0 0-.283 1.045c.262.494.722.508 1.004.357.282-.15 1.178-.82.888-1.37-.109-.206-.324-.281-.566-.288zM9.009 1.852a2.84 2.84 0 0 0-1.455.203A11.4 11.4 0 0 0 3.92 4.502a11.38 11.38 0 0 0-3.35 8.076 11.38 11.38 0 0 0 3.35 8.076A11.4 11.4 0 0 0 12 24a11.42 11.42 0 0 0 8.082-3.346 11.4 11.4 0 0 0 2.447-3.629 11.3 11.3 0 0 0 .9-4.447 2.84 2.84 0 0 0-2.837-2.836 2.84 2.84 0 0 0-2.838 2.836 5.7 5.7 0 0 1-1.686 4.067A5.73 5.73 0 0 1 12 18.326a5.73 5.73 0 0 1-4.066-1.681 5.7 5.7 0 0 1-1.686-4.067 5.7 5.7 0 0 1 1.686-4.066 5.8 5.8 0 0 1 1.83-1.233 2.84 2.84 0 0 0 1.507-3.716 2.84 2.84 0 0 0-2.263-1.711zm4.478.77c-.41-.007-.896.18-1.06.267a.754.754 0 0 0-.283 1.043c.26.495.721.509 1.003.359s1.205-.838.915-1.387c-.109-.206-.328-.279-.575-.283zm-.34 2.202c-.343-.02-.743.129-.89.207a.675.675 0 0 0-.254.938c.235.443.645.454.898.318.253-.135.997-.703.737-1.195-.098-.184-.285-.256-.49-.268z"/></svg>