<svg xmlns="http://www.w3.org/2000/svg" viewBox="0 0 24 24"><path d="M10.04.002c-.381.02-.867.18-1.41.361.984.674 1.475 1.477 1.612 2.575-.206 2.54 1.157 3.774 1.317 8.076v.002c.297.116.166-6.165.304-7.846S10.976.455 10.598.146c-.142-.115-.33-.156-.559-.144zm3.91.002c-.229-.012-.418.027-.56.142-.376.31-1.404 1.343-1.267 3.024.137 1.68.009 7.962.307 7.846.16-4.302 1.52-5.538 1.314-8.077v-.002c.137-1.097.631-1.9 1.613-2.574-.542-.181-1.028-.34-1.408-.36zm-6.063.6C7.2.672 5.464 1.708 5.78 2.137c1.68 2.276 2.714 4.355 4.658 5.949.261.213-1.164-2.193-1.224-3.547C9.15 3.055 8.573.536 7.887.604zm8.215 0c-.686-.068-1.262 2.452-1.327 3.935-.059 1.354-1.486 3.763-1.224 3.549v-.002c1.943-1.594 2.975-3.673 4.656-5.95.317-.428-1.42-1.464-2.105-1.532zM5.369 2.274S4.17 3.708 4.26 4.47c.12 1.02 1.198 1.986 2.632 2.379 1.537.42 3.33 1.384 3.33 1.384-2.162-1.36-1.706-1.19-2.907-2.46-1.104-1.168-1.945-3.5-1.945-3.5zm13.25 0s-.84 2.332-1.945 3.5c-1.2 1.27-.745 1.1-2.906 2.46 0 0 1.794-.964 3.33-1.384 1.435-.393 2.512-1.358 2.63-2.38.09-.76-1.109-2.197-1.109-2.197zM3.982 5.284c-.135.051.594 4.813 3.688 4.94 1.599.066 2.429-.8 2.346-1.166-.421-1.87-4.832-.756-5.996-3.72q-.025-.06-.038-.054zm16.026 0q-.015-.005-.04.055c-1.164 2.963-5.572 1.849-5.993 3.719-.083.367.745 1.232 2.343 1.166 3.094-.128 3.825-4.889 3.69-4.94zM3.87 7.051c-.235.068-.506 5.608 2.174 6.744.849.36.398-.903 1.91-2.049.853-.646 3.372-2.484 2.838-2.103V9.64c-2.733 1.95-5.572 1.714-6.875-2.528q-.022-.07-.047-.062zm16.246 0q-.023-.008-.045.062c-1.303 4.242-4.144 4.48-6.877 2.528-.534-.38 1.986 1.46 2.838 2.105 1.513 1.146 1.061 2.409 1.91 2.049 2.682-1.136 2.41-6.676 2.174-6.744zm-9.385 4.664a1.3 1.3 0 0 0-.324.05l-.002.003c-1.504.434-2.087 2.523-3.605 2.78-.314.054-.667.148-1.08.128-.77-.037-1.742-.473-3.043-2.319-.385-.546.954 3.516 4.312 3.565 2.46.036 2.747-2.409 4.387-2.483.531-.024.611-.897.623-1.084 0-.015-.006-.06-.006-.06l.012-.012s-.54-.592-1.274-.568zm1.274.568-.006.072c.01.162.082 1.071.623 1.096 1.64.074 1.927 2.519 4.387 2.483 3.358-.05 4.697-4.11 4.312-3.565-1.3 1.846-2.273 2.281-3.043 2.319-.413.02-.766-.074-1.08-.127-1.518-.258-2.101-2.348-3.605-2.782l-.002-.002c-.87-.25-1.553.47-1.586.506zm-1.149 2.174s.154.922-.035 2.953c-.236 2.546.971 6.59.971 6.59s1.644-4.052 1.357-6.67c-.236-2.152.109-2.904.036-2.803-1.264 1.746-2.329-.07-2.329-.07zm2.622.006c-.147-.059.324 1.114.46 2.18.206 1.59-.023 2.462-.32 4.164-.15.86 3.069-2.589 4.303-4.645.206-.343-1.18 1.337-2.55.137-.953-.832-1.115-1.086-1.854-1.809a.1.1 0 0 0-.04-.027zm-3.012.129a.1.1 0 0 0-.04.027c-.737.722-.903.975-1.853 1.807-1.37 1.2-2.757-.48-2.55-.137 1.233 2.057 4.45 5.506 4.3 4.645-.297-1.703-.524-2.574-.318-4.164.138-1.066.608-2.238.46-2.178z"/></svg>