<svg xmlns="http://www.w3.org/2000/svg" viewBox="0 0 24 24"><path d="M12 0c-.26 0-.522.066-.756.197L4.82 3.795c-.284.173-.235.475 0 .576l1.5.834a1.8 1.8 0 0 0 1.758 0l3.166-1.775a1.55 1.55 0 0 1 1.512 0l3.162 1.773c.545.306 1.21.307 1.756.002l1.451-.81c.277-.156.254-.5 0-.63L12.755.198A1.55 1.55 0 0 0 12 0zm9.133 5.37c-.413.021-.705.198-.705.198L12 10.308l-8.441-4.74s-.776-.393-1.528 0a1.46 1.46 0 0 0-.756 1.27v10.324c0 .64.622.59.877.428l2.145-1.274V9.375l6.947 3.895a1.55 1.55 0 0 0 1.512 0l6.947-3.895v6.943l2.36 1.272c.34.178.662.083.662-.428V6.838a1.46 1.46 0 0 0-.756-1.27 1.5 1.5 0 0 0-.836-.199zM5.723 17.52a.74.74 0 0 0-.352.087l-2.037 1.207c-.276.182-.15.494 0 .557l7.91 4.432a1.55 1.55 0 0 0 1.51 0l8.016-4.49c.242-.144.203-.437 0-.536l-2.155-1.162c-.182-.12-.587-.08-.73.018l-5.131 2.875a1.55 1.55 0 0 1-1.51 0l-5.176-2.9a.66.66 0 0 0-.345-.088z"/></svg>