<svg xmlns="http://www.w3.org/2000/svg" viewBox="0 0 24 24"><path d="M12 5.3c-6.628 0-12 5.403-12 12.071a12.254 12.274 0 0 0 .072 1.33H1.42q-.08-.653-.08-1.328C1.34 11.449 6.11 6.646 12 6.646c5.888 0 10.662 4.803 10.662 10.727q0 .675-.082 1.328h1.348q.072-.654.072-1.328c0-6.668-5.372-12.072-12-12.072zm-9.764 9.641V18.7h1.977v-1.38l1.074 1.082 1.076-1.082v1.38h1.975v-3.757h-1.83l-1.22 1.227-1.222-1.229zm13.42 0V18.7h1.975v-1.603l2.156 1.603h1.942v-3.758h-1.975v1.621l-2.17-1.62zm-4.677.002-2.43 3.758h2.053l.263-.41h2.278l.263.408h2.055l-2.432-3.756zm1.025 1.569.459.71h-.916z"/></svg>