<svg xmlns="http://www.w3.org/2000/svg" viewBox="0 0 24 24"><path d="M12 0C5.394 0 0 5.374 0 12s5.394 12 12 12c6.626 0 12-5.394 12-11.98a11.9 11.9 0 0 0-.727-4.12.815.815 0 0 0-1.05-.486.815.815 0 0 0-.487 1.05c.425 1.133.627 2.324.627 3.556 0 5.717-4.646 10.365-10.363 10.365S1.637 17.737 1.637 12.02 6.283 1.656 12 1.656c1.374 0 2.707.262 3.98.787A.843.843 0 0 0 17.05 2a.843.843 0 0 0-.445-1.07A11.6 11.6 0 0 0 12 0zm8.08 4.322-3.596.707.647.649L12 11.11 7.615 6.605 5.092 17.051h2.342l1.394-5.799L12 14.707l6.787-7.395.647.668zm-2.828 6.446-1.857 1.939 1.029 4.344h2.344z"/></svg>