<svg xmlns="http://www.w3.org/2000/svg" viewBox="0 0 24 24"><path d="M8.734.922c-.12 0-.371.047-.732.13l.012-.046A2.5 2.5 0 0 0 7.33.934a1 1 0 0 0-.518.168 1.8 1.8 0 0 0-.384.335c-.096.12-.18.266-.276.458a6 6 0 0 0-.228.515 8 8 0 0 1-.217.506c-.084.18-.156.323-.24.443-.06.073-.144.181-.24.301-.096.121-.192.24-.264.336a.8.8 0 0 0-.133.266c-.024.084-.012.216.024.384s.048.29.048.374c-.036.36-.168.827-.396 1.392-.23.564-.433.975-.613 1.215a5 5 0 0 1-.313.324c-.169.168-.276.312-.312.444-.036.048-.036.18-.012.41q.054.326.037.455-.054.488-.361 1.299a9.5 9.5 0 0 1-.602 1.322c-.024.06-.106.168-.238.336-.133.168-.217.299-.24.408-.025.072-.015.216.01.408.023.193.024.338-.012.434-.072.36-.216.803-.432 1.32-.217.516-.433.95-.65 1.322-.06.097-.132.204-.24.336-.097.132-.18.24-.24.336a.9.9 0 0 0-.12.301.53.53 0 0 0 .049.277c.036.132.047.228.047.313-.012.132-.025.311-.06.527-.025.216-.048.35-.048.387-.216.576-.204 1.188.024 1.824.264.745.744 1.384 1.43 1.9.684.517 1.405.768 2.138.768h13.303c.625 0 1.212-.205 1.765-.625s.926-.936 1.106-1.549l3.967-13.05c.216-.696.119-1.31-.266-1.862-.204-.3-.48-.504-.853-.648.023.337 0 .612-.073.816l-4.314 14.227c-.072.252-.24.444-.504.6a1.7 1.7 0 0 1-.805.23H3.771c-1.154 0-1.838-.337-2.078-1.01-.096-.264-.096-.469.012-.625.108-.144.288-.217.553-.217h12.52c.89 0 1.515-.167 1.85-.492.338-.324.686-1.07 1.034-2.21l3.953-13.05c.216-.71.122-1.334-.263-1.875-.384-.54-.938-.816-1.647-.816zm1.96 3.146h1.177l.096 4.086 2.836-4.086h1.19l-1.636 5.108h-.851l1.502-4.252-2.945 4.252h-.817L11.15 4.97 9.852 9.176h-.805zm-.25 6.461c.875-.007 3.13.09 2.773 2.108-.408 2.307-2.26 3.028-4.422 3.052s-1.635-.011-1.635-.011l1.707-5.145h1.297zm-.798.762-1.224 3.664c.012.012.47.012 1.021 0 .565-.012 2.272-.349 2.657-2.055.384-1.706-1.383-1.609-1.383-1.609z"/></svg>