<svg xmlns="http://www.w3.org/2000/svg" viewBox="0 0 24 24"><path d="M12.193 0C10.01 1.668 8.79 3.465 8.79 3.465c-2.759 4.17-1.604 9.112 1.99 10.267h.065c.128.064.192.13.32.194-3.657-.192-6.032-4.684-4.428-9.37 0 0 .771-2.053 2.375-4.171-.962.257-1.797.578-2.63 1.09-1.028 2.568-1.284 4.75-1.284 4.75-.32 4.94 3.016 8.598 6.61 7.892H12c.128 0 .257 0 .385-.064-3.273 1.669-7.444-1.026-8.406-5.903 0 0-.385-2.182 0-4.941-.77.77-1.475 1.605-2.053 2.63.32 2.697 1.283 4.684 1.283 4.684 2.181 4.492 6.994 5.97 9.754 3.403l.064-.065c.128-.064.257-.128.32-.257-1.988 3.145-6.993 3.016-10.202-.77 0 0-1.606-2.118-2.44-4.557 0-.064-.64 3.21-.64 3.21 1.603 1.924 3.658 3.529 3.658 3.529 3.979 2.695 8.662 1.668 9.945-1.668a1.4 1.4 0 0 0 .32-.514c-.385 3.594-4.684 5.84-9.175 4.236 0 0-1.99-.77-4.108-2.44 0 .065.065.195.065.259a15 15 0 0 0 1.09 2.821c2.438 1.027 4.62 1.22 4.62 1.22 4.876.32 8.47-3.08 7.765-6.673v-.516c1.54 3.337-1.09 7.509-5.84 8.47 0 0-2.117.387-4.748 0a11.2 11.2 0 0 0 2.117 1.8c2.76-.321 4.813-1.285 4.813-1.285 4.3-2.117 5.775-6.802 3.53-9.625-.066-.193-.193-.386-.321-.579 2.952 2.118 2.76 7.06-.899 10.268 0 0-1.796 1.475-4.427 2.566 1.026.321 2.118.579 3.209.643 2.246-1.733 3.593-3.658 3.593-3.658 2.76-4.17 1.604-9.113-1.925-10.268a1.04 1.04 0 0 0-.45-.256c3.722.193 6.032 4.685 4.428 9.37 0 0-.77 2.246-2.566 4.492.129 0 .256-.065.449-.13a17.6 17.6 0 0 0 2.566-.962c1.091-2.63 1.284-4.94 1.284-4.94.32-4.878-2.887-8.473-6.416-7.959-.13 0-.323-.062-.452-.062h-.127c3.273-1.412 7.315 1.218 8.213 5.967 0 0 .58 2.245.13 4.94-.065.385-.258.963-.579 1.54-.064.192 2.631-2.76 2.631-2.76-.256-2.759-1.54-5.775-1.54-5.775-2.116-4.428-6.8-5.903-9.56-3.53-.129.066-.323.13-.45.194 2.117-2.952 6.93-2.695 10.075.963 0 0 1.412 1.732 2.438 4.363.257-.898.45-1.86.514-2.824-1.67-2.31-3.594-3.656-3.594-3.656-3.978-2.695-8.663-1.733-9.946 1.603-.129.193-.258.385-.322.578.385-3.594 4.686-5.84 9.178-4.3 0 0 2.182.835 4.428 2.63 0-.127-.065-.256-.13-.449-.256-.962-.578-1.858-1.027-2.693-2.567-1.155-4.877-1.348-4.877-1.348-4.877-.32-8.533 3.08-7.763 6.801v.514c-1.668-3.337.962-7.636 5.775-8.535 0 0 2.245-.385 5.004 0A11.8 11.8 0 0 0 18.29 1.86c-2.76.32-4.812 1.284-4.812 1.284-4.428 2.182-5.842 7.059-3.403 9.818.064.192.193.32.32.45-3.08-2.055-2.887-7.124.77-10.397 0 0 1.734-1.475 4.3-2.502-1.09-.32-2.18-.514-3.27-.514z"/></svg>