<svg xmlns="http://www.w3.org/2000/svg" viewBox="0 0 24 24"><path d="M6.98.555a.5.5 0 0 0-.105.011.532.532 0 0 0 .223 1.04.533.533 0 0 0 .408-.633.53.53 0 0 0-.526-.418zm6.456.638a1 1 0 0 0-.514.143.99.99 0 0 0 1.02 1.7.99.99 0 0 0 .34-1.36.99.99 0 0 0-.846-.483zM10.404 3.43a5.03 5.03 0 0 0-4.668 3.248 3.3 3.3 0 0 0-1.459.55 3.374 3.374 0 0 0-.94 4.561 3.634 3.634 0 0 0-.605 4.65 3.6 3.6 0 0 0 2.465 1.596 3.87 3.87 0 0 0 .686 2.115 3.9 3.9 0 0 0 5.424.993c.068-.047.12-.108.183-.159.987.881 2.47 1.027 3.608.24a2.9 2.9 0 0 0 1.162-1.689 4.24 4.24 0 0 0 2.584-.738 4.274 4.274 0 0 0 1.19-5.79 2.466 2.466 0 0 0 .433-3.308 2.45 2.45 0 0 0-1.317-.933 4.44 4.44 0 0 0-.777-2.873 4.47 4.47 0 0 0-5.193-1.657 5.1 5.1 0 0 0-2.774-.806zm-5.601.816a.76.76 0 0 0-.424.135.759.759 0 1 0 .863 1.248.757.757 0 0 0 .194-1.055.76.76 0 0 0-.633-.328zm15.994 2.37a.84.84 0 0 0-.47.152.845.845 0 1 0 1.175.214.85.85 0 0 0-.705-.365zm-8.15 1.029q.093 0 .181.013a.9.9 0 0 1 .45.188c.168.134.274.24.433.392.24.227.413.089.533.02.208-.122.37-.218.985-.207.633.01 1.362.236 1.513 1.316.168 1.2-1.965 4.29-1.816 5.723.106 1.01 1.814.298 1.959 1.219.186 1.198-2.135.754-2.666.494-.832-.408-1.338-1.34-1.121-2.26.16-.688 1.7-3.5 1.757-3.932.06-.44-.177-.474-.324-.482-.19-.01-.34.08-.525.361-.17.255-2.082 4.086-2.248 4.399-.296.56-.671.694-1.045.674-.548-.03-.799-.32-.72-.848.046-.31 1.26-3.05 1.323-3.477.04-.265-.013-.545-.275-.68-.263-.134-.572.07-.664.227-.128.215-1.847 4.705-2.031 5.037-.316.576-.65.761-1.153.785-1.186.056-2.064-.92-1.677-2.117.173-.532 1.315-4.57 1.894-5.597.39-.69 1.468-1.217 2.217-.893.387.167.925.438 1.084.508.366.163.758-.277.912-.412s.302-.277.49-.358a1.4 1.4 0 0 1 .533-.093zm10.878 2.054v.002a.5.5 0 0 0-.091.012.467.467 0 0 0-.362.555.47.47 0 0 0 .559.359.47.47 0 0 0 .36-.557.47.47 0 0 0-.466-.37zm-22.517.813a1 1 0 0 0-.832.433 1 1 0 1 0 1.39-.258 1 1 0 0 0-.558-.175zm21.295 2.093a.6.6 0 0 0-.127.012.627.627 0 0 0-.48.746.63.63 0 0 0 .745.485.63.63 0 0 0 .483-.746.63.63 0 0 0-.621-.497zm-18.24 6.096a.5.5 0 0 0-.092.014.464.464 0 1 0 .193.906.464.464 0 0 0 .357-.553.465.465 0 0 0-.458-.367zm13.673 1.551a1.04 1.04 0 0 0-.582.187 1.047 1.047 0 1 0 1.455.264 1.04 1.04 0 0 0-.873-.45zm-6.338 1.902a.64.64 0 0 0-.359.116.646.646 0 0 0-.162.898.646.646 0 0 0 .898.164.646.646 0 0 0 .164-.898.65.65 0 0 0-.539-.28z"/></svg>