<svg xmlns="http://www.w3.org/2000/svg" viewBox="0 0 24 24"><path d="M7.4 5.355a3.4 3.4 0 0 0-1.552.211l-.12.047A3.42 3.42 0 0 0 3.6 8.908c-.016.455.057.911.224 1.336.458 2.397.218 3.667-1.404 3.703-.795-.085-1.389.244-1.988.844-.602.6-.552 2.206 0 2.906.4.51.944.863 1.6.946 1.264.158 2.386-.762 2.505-2.057a2.44 2.44 0 0 0-.213-1.236c-1.772-3.89 6.972-3.98 5.494-.309l-.01.016c-.698 1.117-.318 2.57.842 3.24.428.248.901.352 1.364.332a2.5 2.5 0 0 0 1.361-.332c1.161-.672 1.54-2.123.842-3.24l-.01-.016c-1.478-3.67 7.267-3.58 5.492.309a2.45 2.45 0 0 0-.21 1.236c.12 1.295 1.241 2.215 2.507 2.057a2.35 2.35 0 0 0 1.424-.737s.589-.489.58-1.734c-.008-1.016-.58-1.578-.58-1.578a2.21 2.21 0 0 0-1.815-.645c-1.623-.036-1.862-1.309-1.404-3.705.169-.425.242-.879.227-1.334a3.42 3.42 0 0 0-2.131-3.295l-.12-.047a2 2 0 0 0-.134-.047 3.416 3.416 0 0 0-4.004 1.454c-.817.897-1.185 1.441-2.025 1.441-.8 0-1.212-.544-2.028-1.441A3.41 3.41 0 0 0 7.4 5.355zm4.604 3.813h.02a2.355 2.355 0 0 1 1.503 4.166 1.8 1.8 0 0 1-.857.451 2.4 2.4 0 0 1-.649.094h-.019a2.4 2.4 0 0 1-.648-.094 1.8 1.8 0 0 1-.856-.451 2.35 2.35 0 0 1-.852-1.81 2.36 2.36 0 0 1 2.358-2.356z"/></svg>