<svg xmlns="http://www.w3.org/2000/svg" viewBox="0 0 24 24"><path d="M13.822.432A10 10 0 0 0 12.4.51c-7.083.875-7.199 8.328-.957 10.1 7.071 1.07 2.813 6.405 2.21 9.095-.542 2.411 5.713 2.807 8.607-6.77C23.996 7.933 20.7.539 13.822.433zm6.164 2.095c-.021.015 0 .065.104.174 1.01 1.066 1.488 1.691 2.469 3.871 2.19 4.87-2.164 12.591-4.995 14.196-1.133.642-2.569.706-3.228.648-.414-.036-.818.44-.555.867.993 1.612 3.542.721 5.721-.832 2.174-1.55 3.659-5.133 4.09-6.717.618-2.277.704-5.907-.96-8.96-.984-1.808-1.945-2.917-2.491-3.204-.07-.036-.133-.058-.155-.043zm-13.783.955c-1.947 3.188-.284 7.656 4.772 9.09 6.636 1.885 1.371 6.093 1.525 8.897.155 2.803 5.771 3.82 10.2-3.541.053-.09.1-.183.152-.274-4.427 7.338-10.031 6.322-10.186 3.522-.154-2.804 5.111-7.012-1.525-8.897-4.903-1.39-6.614-5.634-4.938-8.797zm-.23 2.907c-.068.054-.036.25.002.486.105.66.518 1.822 1.334 2.889 1.105 1.446 3.019 2.062 4.502 2.502 1.899.563 2.34 1.657 2.558 1.523s.164-1.319-.48-1.867c-.627-.534-2.476-.989-3.37-1.195a5.66 5.66 0 0 1-3.076-1.965c-.863-1.094-1.439-2.399-1.47-2.373zm-3.362 2.2c-.534.022-1.114.21-1.537.595-.549.5-.701 1.336-.486 2.013.088.279.316.686.793.754.637.09.767.378 1.52.229.751-.15 1.32-.764 1.548-1.446.261-.943-.128-1.432-.717-1.867-.22-.163-.542-.259-.896-.277a3 3 0 0 0-.225 0zm1.987.735c-.02.015-.012.09.047.25.392 1.083-.371 2.096-1.03 2.565-.658.469-1.493.248-1.834.144s-.52.013-.506.194c.01.1.092.221.243.318a2.46 2.46 0 0 1-1.34-1.961c-.045-.458.03-.884.213-1.271a2.4 2.4 0 0 0-.38 1.566 2.47 2.47 0 0 0 2.696 2.223 2.47 2.47 0 0 0 1.754-1.004c.79-.858.785-2.326.373-2.739-.075-.134-.16-.25-.209-.279q-.017-.011-.027-.006zm-1.092.633a.69.69 0 0 1 .547.326c.38.601-.385 1.388-.963 1.54-.613.16-.898.004-.854-.821.028-.516.547-.958 1.047-1.035a1 1 0 0 1 .223-.01zm18.658.03a.04.04 0 0 1 .033 0c.183.083.193 1.62-.11 2.736-.521 1.924-2.324 4.903-3.532 6.28-.927 1.059-1.962 1.5-3.211 1.685-2.6.506.157-3.82 2.072-3.583s3.973-3.732 4.438-6.156c.123-.646.23-.928.31-.963zm-17.334.62c.014.003.024.092.035.211-.07 1.247-1.215 1.933-1.87 2.024-.178.024-.488.011-.339-.123.098-.088.594-.053 1.041-.293.448-.24.98-.768 1.074-1.518.028-.22.045-.303.06-.3zm3.936.112c.406.148.733.324 1.056.424.59.18 1.277.346 1.7.43.657.13 1.342.45 1.75.585.602.2.873.576.851 1.014-.02.437-.23-.055-.56-.276-.312-.208-1.053-.642-2.579-1.142-1.263-.414-1.905-.77-2.218-1.035zm14.906 2.117h.002c.126.515-.696 4.098-3.016 7.125-.777 1.015-1.841 1.77-2.89 2.295-.775.388-1.343.462-2.016.562-.525.08-.913.014-.885-.326.038-.447.567-.163 1.332-.35 2.752-.667 3.945-2.046 5.59-4.632 1.281-2.014 1.84-4.249 1.883-4.674zm-16.47 2.531c-1.001-.034-2.08.394-2.747 1.233-1.442 1.874-.348 3.957.096 3.964s.71.07 1.16.385c.888.37 2.518.137 3.271-.855s.78-2.36.493-3.186c-.352-1.01-1.274-1.507-2.274-1.54zm2.495 1.164q-.027.011.006.115c.622 1.899.047 3.399-1.025 4.172-1.052.76-2.497.887-3.655.287-.34-.176-.48.08-.322.227 2.937 2.721 7.357-1.017 5.41-4.318-.164-.278-.363-.506-.414-.483zm-6.115.346a3.78 3.78 0 0 0-.45 2.953 3.775 3.775 0 0 0 4.608 2.697 3.78 3.78 0 0 0 2.418-1.96 3.78 3.78 0 0 1-2.254 1.665 3.775 3.775 0 0 1-4.607-2.695 3.78 3.78 0 0 1 .285-2.66zm5.438.61c.06-.008.102.074.128.283.284 2.195-1.227 2.81-1.72 2.939-1.665.436-1.855-.62-.153-1.186.913-.302 1.485-2.006 1.745-2.037zm1.193 1.58c.021-.005.017.1-.006.251-.23 1.542-1.687 2.679-2.928 2.721-.251.026-.58-.084-.273-.148.374-.079 2.548-.642 3.058-2.43.08-.279.127-.39.149-.395z"/></svg>