<svg xmlns="http://www.w3.org/2000/svg" viewBox="0 0 24 24"><path d="M12.002 0c-6.76 0-12 4.949-12 11.639v.002a11.39 11.389 0 0 0 3.758 8.605.97.97 0 0 1 .32.682l.07 2.138a.96.96 0 0 0 1.35.852l2.39-1.05a.96.96 0 0 1 .64-.052c1.09.3 2.26.461 3.47.461 6.76 0 12-4.95 12-11.638C24 4.949 18.762 0 12.002 0zm6.67 8.082c.424-.04.814.437.53.867l-3.52 5.6a1.807 1.807 0 0 1-2.602.48l-2.799-2.1a.71.71 0 0 0-.87 0L5.62 15.8c-.5.389-1.17-.22-.82-.75l3.52-5.6a1.8 1.8 0 0 1 2.61-.48l2.8 2.1c.26.2.61.2.86 0l3.79-2.87a.57.57 0 0 1 .29-.117z"/></svg>