<svg xmlns="http://www.w3.org/2000/svg" viewBox="0 0 24 24"><path d="m0 .234 20.553 21.772s.7.492 1.234-.084c.536-.576.125-1.15.125-1.15zm6.508 2.059L22.16 19.164s.7.494 1.235-.082.123-1.152.123-1.152zm5.502 1.768 10.935 11.79s.49.346.864-.058.086-.805.086-.805zm5.619 2.552 4.953 5.36s.245.16.43-.028c.186-.189.043-.377.043-.377zm-15.693.082 15.652 16.873s.7.494 1.234-.082c.535-.576.123-1.152.123-1.152zM3.44 11.8l10.936 11.787s.488.344.863-.059c.373-.403.088-.802.088-.802zm2.737 5.431 4.957 5.36s.24.163.426-.026.043-.377.043-.377z"/></svg>