<svg xmlns="http://www.w3.org/2000/svg" viewBox="0 0 24 24"><path d="M4.83 0c-.512-.013-1.025.397-1.008.96v14.888l.418 2.359a2.49 2.49 0 0 0 2.455 2.057c.422 0 .823-.1 1.174-.29.355-.214.963-.58 1.7-1.019L9.57 4.502c0-.99-.498-1.865-1.258-2.383-.08-.059-2.91-1.9-2.99-1.955A.9.9 0 0 0 4.83 0zm7.346 7.498c-.426.037-.817.376-.852.824-.045.313.17.655.266.94.385.98 1.168 2.972 1.549 3.947a1.83 1.83 0 0 0 .931.818c.88.308 2.506.854 3.367 1.159 1.672.708 2.252 2.813 1.27 4.289a6.48 6.48 0 0 0 1.469-4.069 6.5 6.5 0 0 0-2.098-4.777c-.49-.48-1.174-.88-1.795-1.172l-3.681-1.889a.85.85 0 0 0-.426-.07zm6.531 11.977a7 7 0 0 1-.268.345q.15-.166.268-.345zm-2.187-4.21c-1.527.903-4.853 2.88-6.952 4.131-1.103.68-2.13 1.35-2.92 1.243a2.866 2.866 0 0 1-2.77-2.326c-.011-.048-.006-.03 0 .01a6.4 6.4 0 0 0 .946 2.654 6.5 6.5 0 0 0 5.487 3.021c1.908.062 3.536-1.153 5.1-2.096.291-.188.803-.497 1.331-.832l1.422-1.51c.553-.576.765-1.424.572-2.265-.264-1.194-1.135-1.745-2.216-2.03z"/></svg>