<svg xmlns="http://www.w3.org/2000/svg" viewBox="0 0 24 24"><path d="M8.55 1.5q-.45 0-.75.3-.3.31-.3.75V6H1q-.42 0-.7.3-.3.29-.3.7v10q0 .41.3.7.29.3.7.3h5.01v3.37a1.11 1.11 0 0 0 1.12 1.13h15.74A1.11 1.11 0 0 0 24 21.38V12a.5.5 0 0 0-.07-.25.8.8 0 0 0-.18-.18h-.01l-1.24-.72v-8.3q0-.45-.3-.75a1.04 1.04 0 0 0-.75-.3zM9 3.75h2.25v2.3l-.12-.04L11 6H9zm3.75 0h3.75v3h-3.75zm5.25 0h3v3h-3zM6.09 8.01q.87 0 1.55.3t1.15.83q.469.531.71 1.24.25.72.25 1.55 0 .87-.25 1.61a3.8 3.8 0 0 1-.73 1.28 3.6 3.6 0 0 1-1.19.86q-.7.3-1.6.3v.01q-.87 0-1.56-.3a3.3 3.3 0 0 1-1.17-.81 3.5 3.5 0 0 1-.74-1.23 4.5 4.5 0 0 1-.26-1.56q0-.89.25-1.63.25-.76.75-1.3.49-.55 1.2-.85.72-.3 1.64-.3zm6.66.24h3.75v3h-3.75zm5.25 0h3v3h-3zM6.04 9.64q-.51 0-.87.2a1.6 1.6 0 0 0-.59.54q-.24.33-.34.76a3.8 3.8 0 0 0 0 1.73q.111.42.33.75.22.34.57.55.35.2.85.2a1.8 1.8 0 0 0 .87-.2q.36-.19.58-.52a2.2 2.2 0 0 0 .33-.74q.11-.42.11-.87t-.1-.88a2.3 2.3 0 0 0-.31-.77 1.7 1.7 0 0 0-.57-.55q-.35-.2-.86-.2zm6.71 3.11h3.75v2.73l-1.34.8-2.41-1.5zm5.25 0h3.05L18 14.58zm4.5.88v7.24l-5.9-3.7zM12 16.08 19.89 21H7.5v-3H11q.41 0 .7-.3.3-.29.3-.7z"/></svg>