<svg xmlns="http://www.w3.org/2000/svg" viewBox="0 0 24 24"><path d="M10.1 0 8.148 3.367l1.94 3.336h3.8l1.928-3.322-1.95-3.37zM2.674 4.322.727 7.69l1.935 3.338h3.793L8.38 7.701 6.434 4.334zm14.88 0L15.606 7.69l1.94 3.338h3.8l1.928-3.326-1.95-3.367zM10.1 8.63l-1.952 3.367 1.94 3.336h3.8l1.928-3.324-1.95-3.37zm-7.422 4.295L.727 16.293l1.939 3.334h3.803l1.926-3.324-1.95-3.37zm14.877 0-1.95 3.369 1.938 3.334h3.803l1.927-3.324-1.95-3.37zM10.1 17.297l-1.952 3.367L10.088 24h3.8l1.928-3.324-1.95-3.37z"/></svg>