<svg xmlns="http://www.w3.org/2000/svg" viewBox="0 0 24 24"><path d="M22.004 5.53v.001H2.002l-.178.006a2.02 2.02 0 0 0-1.242.57A2 2 0 0 0 0 7.535v8.926l.008.178a1.98 1.98 0 0 0 .574 1.244 2 2 0 0 0 1.42.586h20l.15-.006A2.007 2.007 0 0 0 24 16.46V7.533l-.008-.176a1.99 1.99 0 0 0-1.988-1.828zm-20.002.702h12.502l4.025 5.245-.175.642s-.724-.506-1.473-.476h-1.838c-.417 0-.258-.938-.258-.938s.232.037.244-.018c.071-.848.002-2.079-.935-2.699-1.575-1.062-4.192-.862-4.256 1.688l-1.383.967h1.684l.062.265-.457.973s-.05.168.04.168h.56c.17.2.232.857.1.88-.973.266-1.784 1.593-1.784 3.995h.961a92 92 0 0 1 .496.844H2.002a1.32 1.32 0 0 1-.928-.385 1.28 1.28 0 0 1-.373-.922V7.533a1.3 1.3 0 0 1 .373-.926 1.3 1.3 0 0 1 .928-.375zm14.41 0h5.592v.002a1.285 1.285 0 0 1 1.293 1.3h.002v8.915a1.3 1.3 0 0 1-1.293 1.313h-2.488v-.852h1.986c.502-.042 1.04-.929 1.183-1.455.061-.197-.232-.337-.445-.69-.17-.24-.201-.694-.484-.802a3.5 3.5 0 0 1-.844-.565v-.51l-.21-.23-.212-.037v-.22l-.187-.255-.201-.04v-.229l-.188-.246-.297-.037zm-13.156 7.92a.89.89 0 0 0-.752.877.88.88 0 0 0 .88.889.888.888 0 0 0 .637-1.514.89.89 0 0 0-.765-.252z"/></svg>