<svg xmlns="http://www.w3.org/2000/svg" viewBox="0 0 24 24"><path d="M12 0a4.86 4.86 0 0 0-3.455 1.43L1.43 8.545a4.88 4.88 0 0 0-.09 6.805l6.07-6.07a1.45 1.45 0 0 1 .37-1.434 1.47 1.47 0 0 1 2.08 0c.58.58.58 1.513.005 2.086a1.47 1.47 0 0 1-1.369.386L2.398 16.42l6.147 6.144a4.887 4.887 0 0 0 6.91.008l6.244-6.244-2.951-2.95a1.45 1.45 0 0 1-1.434-.37 1.47 1.47 0 0 1 0-2.08 1.474 1.474 0 0 1 2.084-.006c.37.37.497.89.39 1.367l2.962 2.965a4.87 4.87 0 0 0-.186-6.71l-7.107-7.107A4.88 4.88 0 0 0 12 0zm3.16 7.4a1.5 1.5 0 0 1 .361.04c.257.053.508.185.711.388.185.185.317.411.37.656a1.43 1.43 0 0 1-.364 1.428 1.47 1.47 0 0 1-1.369.389l-1.416 1.416a1.457 1.457 0 0 1-1.756 1.756 1.4 1.4 0 0 1-.709-.387 1.35 1.35 0 0 1-.37-.658A1.43 1.43 0 0 1 10.98 11a1.47 1.47 0 0 1 1.368-.389l1.416-1.416A1.46 1.46 0 0 1 15.16 7.4zm.033.733a.736.736 0 0 0-.52 1.254.737.737 0 0 0 1.046.006.737.737 0 0 0-.006-1.045.73.73 0 0 0-.52-.215zm-6.375.017a.735.735 0 0 0-.52 1.254.737.737 0 0 0 1.048.006.737.737 0 0 0-.006-1.045.73.73 0 0 0-.522-.215zm9.541 3.079a.75.75 0 0 0-.527.218.736.736 0 0 0 1.041 1.041.737.737 0 0 0 .006-1.047.73.73 0 0 0-.52-.212zm-6.33.078a.7.7 0 0 0-.41.119 1 1 0 0 0-.119.095 1 1 0 0 0-.096.12.74.74 0 0 0 .104.925.735.735 0 0 0 1.039-1.04.74.74 0 0 0-.518-.22z"/></svg>