<svg xmlns="http://www.w3.org/2000/svg" viewBox="0 0 24 24"><path d="M11.965 0c-.367 0-.553.309-.676.555-.074 0-1.484 2.213-3.21 5.168-2.34 4-3.632 6.892-3.93 8.677a6.6 6.6 0 0 0-.186 1.602c0 1.782.551 3.442 1.66 4.86C7.162 22.891 9.44 24 11.965 24c2.46 0 4.802-1.167 6.422-3.139a7.8 7.8 0 0 0 1.648-4.859c0-.555-.06-1.11-.191-1.602-.308-1.785-1.598-4.677-3.94-8.677A112 112 0 0 0 12.705.555C12.52.308 12.337 0 11.965 0zm-.002 3.262.308.431s1.169 1.722 2.526 4.121c1.78 3.141 2.828 5.48 3.074 6.834.064.428.123.797.123 1.229a6.05 6.05 0 0 1-1.228 3.69c-1.172 1.48-2.896 2.341-4.801 2.341l-.004.008c-1.91 0-3.63-.86-4.74-2.398-.8-1.106-1.229-2.339-1.229-3.694 0-.429.062-.797.123-1.228.18-1.365 1.23-3.691 3.073-6.84 1.35-2.34 2.519-4.125 2.519-4.125z"/></svg>