<svg xmlns="http://www.w3.org/2000/svg" viewBox="0 0 24 24"><path d="M11.986 1.912c-1.9 0-3.692.323-5.297.885C2.756 4.269 0 7.826 0 12c0 4.147 2.756 7.705 6.69 9.203 1.631.562 3.424.885 5.324.885a16.7 16.7 0 0 0 5.27-.858C21.215 19.758 24 16.174 24 12.027V12c0-4.174-2.784-7.731-6.717-9.203a16.3 16.3 0 0 0-5.297-.885zm-1.095 3.346h2.166v3.826c1.525-.402 2.703-1.765 2.783-3.398l2.168.027c-.16 2.73-2.222 4.949-4.899 5.377v1.793c2.676.428 4.736 2.675 4.924 5.404l-2.166.027c-.08-1.633-1.258-2.995-2.783-3.423v3.851h-2.166v-3.851a3.775 3.775 0 0 0-2.81 3.423l-2.169-.027a5.87 5.87 0 0 1 4.924-5.404v-1.766C8.187 10.717 6.1 8.468 5.94 5.74l2.168-.027a3.71 3.71 0 0 0 2.784 3.396z"/></svg>