<svg xmlns="http://www.w3.org/2000/svg" viewBox="0 0 24 24"><path d="M12 .08A12 11.92 0 0 0 0 12a12 11.92 0 0 0 12 11.92A12 11.92 0 0 0 24 12 12 11.92 0 0 0 12 .08zM9.463 1.56v.002c.393 0 .762.21.943.57-.013 1.409-.007 2.817-.008 4.228v.002c.013.303-.019.634.004.952s.103.625.342.878c.357.447.94.47 1.447.448h.002c.736.093 1.469-.478 1.52-1.227.013-1.74.008-3.48 0-5.219.115-.387.562-.669.973-.617h.005c1.457-.108 3.004.616 3.663 1.953v.002c.252.448.327 1.023.38 1.496v4.258a3.4 3.4 0 0 0-.755-.174l-.038-.004v.282h-.021v-.194c0-.148-.13-.263-.285-.263h-.362a.3.3 0 0 0-.101.017c-.002-1.298.007-2.591-.01-3.894v-.002a2.2 2.2 0 0 0-.57-1.358c-.337-.368-.801-.605-1.33-.566l-.032.002v3.994c.104 1.115-.673 2.259-1.79 2.469-.743.09-1.499.028-2.252.047h-.002c-1.184.1-2.305-.88-2.39-2.06-.026-1.476-.005-2.953-.013-4.429v-.03h-.031c-.508-.007-.945.24-1.26.605a2.25 2.25 0 0 0-.535 1.32c-.018 1.337-.008 2.662-.01 3.992a.3.3 0 0 0-.154-.045h-.354a.273.273 0 0 0-.279.266v.123h-.008v-.219l-.035.006a3.4 3.4 0 0 0-.732.166V5.273c.007-.37.044-.734.138-1.117.401-1.573 2.014-2.627 3.604-2.588l.082.002.08.002h.004a1 1 0 0 1 .17-.013zM17.275 9h.36c.122 0 .217.087.217.195v10.737c0 .107-.094.197-.217.197h-.362c-.122 0-.216-.09-.216-.197V9.195c0-.108.095-.195.218-.195zM6.44 9.064h.354q.061 0 .11.03l.013.008a.2.2 0 0 1 .035.027q.053.054.055.13v10.737c0 .108-.094.197-.213.197H6.44c-.12 0-.21-.089-.21-.197V9.26c0-.108.091-.196.21-.196zm11.569.118q.083.011.164.025c2.06.356 3.66 2.655 3.66 5.451 0 2.87-1.684 5.218-3.824 5.477zM6.09 9.24v10.953c-2.14-.259-3.826-2.607-3.826-5.476 0-2.775 1.579-5.063 3.619-5.444l.01-.002.035-.005q.08-.015.162-.026zm11.83 10.643h.021v.326l.038-.004a3 3 0 0 0 .37-.062.2.2 0 0 1-.09.173h-.001v.002s-.618.496-.947.707c-.314.187-.49.338-.758.455a2 2 0 0 1-.192.067 1 1 0 0 1-.138.031h-2.207l-.02-.002a.68.68 0 0 0 .053-.455h2.066s.128-.012.281-.086c.19-.09.39-.224.577-.346.209-.137.403-.283.607-.435q.039-.03.072-.06c.148-.009.268-.12.268-.262zm-5.684.388v.002c.487 0 .928.115 1.244.3.317.183.506.432.506.704s-.19.52-.506.705c-.316.183-.757.3-1.244.3-.488 0-.93-.118-1.246-.302-.317-.183-.506-.432-.506-.703 0-.272.19-.52.506-.705s.758-.3 1.246-.3z"/></svg>