<svg xmlns="http://www.w3.org/2000/svg" viewBox="0 0 24 24"><path d="M19.77 7.031a2 2 0 0 0-.305.028 1 1 0 0 0-.127.03.84.84 0 0 0-.59.585c-.03.1-.042.195-.045.271v6.598h.633a1 1 0 0 0 .176-.01.7.7 0 0 0 .14-.037.5.5 0 0 0 .256-.213.54.54 0 0 0 .072-.244v-.047a2.07 2.07 0 0 0 .907.56q.104.033.213.053a2.34 2.34 0 0 0 1.402-.164 2.4 2.4 0 0 0 .78-.57 2.6 2.6 0 0 0 .525-.853 3 3 0 0 0 .142-.512 3 3 0 0 0 0-1.113 2.9 2.9 0 0 0-.369-.98 2.6 2.6 0 0 0-.299-.4 2.5 2.5 0 0 0-.779-.572 2.3 2.3 0 0 0-1.385-.166 2.1 2.1 0 0 0-.763.31 2 2 0 0 0-.315.259V7.03zM2.32 9.211q-.263 0-.504.045-.12.024-.232.056a2.2 2.2 0 0 0-.791.415 2 2 0 0 0-.303.31 2.3 2.3 0 0 0-.447 1.014 2.6 2.6 0 0 0-.043.48v3.012h.434c.11-.009.259-.034.404-.107a.8.8 0 0 0 .379-.4q.07-.152.097-.37.009-.073.01-.154v-2.004c0-.293.102-.541.278-.717a.92.92 0 0 1 .507-.26 1.2 1.2 0 0 1 .368-.011c.342.036.54.195.654.38a1 1 0 0 1 .123.329 1.4 1.4 0 0 1 .027.279v3.035h.434a1 1 0 0 0 .404-.107.8.8 0 0 0 .271-.22c.12-.152.207-.372.215-.693v-2.015q0-.11.02-.211a.96.96 0 0 1 .408-.625 1 1 0 0 1 .362-.14q.099-.02.207-.02a1.3 1.3 0 0 1 .416.066 1 1 0 0 1 .199.106c.2.144.289.357.328.545.022.107.03.206.03.279v3.035h.433a1.2 1.2 0 0 0 .262-.049 1 1 0 0 0 .146-.06.8.8 0 0 0 .379-.403q.046-.102.074-.234a1.5 1.5 0 0 0 .03-.297v-1.969q0-.127-.01-.25a3 3 0 0 0-.078-.469 2.3 2.3 0 0 0-.256-.613 2 2 0 0 0-1.201-.89 2.6 2.6 0 0 0-.487-.086 3 3 0 0 0-.265-.012 2.3 2.3 0 0 0-.707.113 2 2 0 0 0-.416.192 2.1 2.1 0 0 0-.518.433 2 2 0 0 0-.31-.308 1.9 1.9 0 0 0-.598-.317 2.3 2.3 0 0 0-.733-.113zm13.348 0a2.6 2.6 0 0 0-.77.12 2.5 2.5 0 0 0-1.06.667q-.046.05-.09.104c-.026.03-.054.056-.078.087a2.75 2.75 0 0 0-.54 1.197v.003a3 3 0 0 0 .065 1.388 2.7 2.7 0 0 0 .475.92q.08.1.168.19a2.53 2.53 0 0 0 1.83.773c1.351 0 2.455-1.02 2.588-2.422a3 3 0 0 0-.19-1.37 3 3 0 0 0-.24-.468 2.55 2.55 0 0 0-2.158-1.19zm-7.969.117 2.051 5.05a.64.64 0 0 1 .025.38q-.014.062-.037.137l-.047.128q-.044.113-.093.206c-.133.246-.3.39-.536.46-.176.054-.392.067-.66.05v.011l.493 1.219c.231-.006.447-.029.648-.078q.15-.037.291-.096a1.7 1.7 0 0 0 .633-.455v-.002a2 2 0 0 0 .215-.285q.052-.081.101-.168.098-.178.186-.393l2.46-6.164h-.925a.88.88 0 0 0-.797.598l-1.113 3.094-1.207-3.211a1 1 0 0 0-.078-.166.67.67 0 0 0-.5-.311c-.048-.006-.079-.004-.079-.004zm7.969 1.102c.308 0 .59.12.81.332q.048.045.092.095.175.204.274.483a1.8 1.8 0 0 1 .101.613q0 .165-.025.317a1.7 1.7 0 0 1-.193.54q-.035.06-.075.114a1.21 1.21 0 0 1-.984.517 1.15 1.15 0 0 1-.803-.322 1.4 1.4 0 0 1-.308-.431 1.6 1.6 0 0 1-.098-.272 1.8 1.8 0 0 1-.05-.627q.012-.16.05-.307a1.6 1.6 0 0 1 .162-.402 1.36 1.36 0 0 1 .447-.476 1.16 1.16 0 0 1 .6-.174zm5.684.035a1.24 1.24 0 0 1 1.023.533 1.4 1.4 0 0 1 .143.236q.09.191.13.412a2 2 0 0 1 .028.307 1.7 1.7 0 0 1-.059.443 1.5 1.5 0 0 1-.326.602 1.3 1.3 0 0 1-.195.176 1.26 1.26 0 0 1-.88.236 1.2 1.2 0 0 1-.599-.242 1.45 1.45 0 0 1-.475-.645 1.6 1.6 0 0 1-.076-.869 1.6 1.6 0 0 1 .357-.754 1.3 1.3 0 0 1 .417-.318 1.2 1.2 0 0 1 .246-.088 1.2 1.2 0 0 1 .266-.03z"/></svg>