<svg xmlns="http://www.w3.org/2000/svg" viewBox="0 0 24 24"><path d="M11.506 10.326c-1.068 0-1.746.673-1.746 1.692 0 .987.699 1.656 1.74 1.656.555 0 1.018-.185 1.342-.615.295-.391.329-.783.338-1.24h-1.684v.64h.678c-.035.362-.296.545-.67.545-.566 0-.85-.497-.85-.983 0-.479.246-.99.813-.99.347 0 .597.2.715.498l.816-.324c-.285-.588-.812-.879-1.492-.879zM0 10.43v3.14h.861v-1.924H.87l1.426 1.924h.861v-3.14h-.861v1.922h-.01L.861 10.43zm4.174 0v3.14H6.27v-.69H5.035v-.542h1.186v-.692H5.035v-.525h1.236v-.691zm2.685 0v.691h.834v2.45h.873v-2.45H9.4v-.691zm7.077 0v3.14h2.097v-.69h-1.236v-.542h1.185v-.692h-1.185v-.525h1.236v-.691zm3.773 0-1.156 3.14h.888l.19-.578h1.148l.19.578h.888l-1.156-3.14zm2.69 0v3.14h.86v-1.207h.061l.785 1.207h1.047l-.988-1.287c.47-.079.725-.453.725-.887 0-.67-.498-.966-1.15-.966zm3.214 0a.38.38 0 0 0-.384.379c0 .218.184.379.384.379a.383.383 0 0 0 .387-.38.38.38 0 0 0-.387-.378zm.002.066c.164 0 .317.134.317.313a.31.31 0 0 1-.319.308.31.31 0 0 1-.314-.308c0-.183.15-.313.316-.313zm-.152.096v.416h.11v-.164h.032l.077.164h.12l-.09-.182c.05-.016.087-.053.087-.111 0-.104-.103-.123-.176-.123zm.11.072h.032c.037 0 .08.006.08.057 0 .045-.039.054-.072.054h-.04zm-2.313.393h.246c.282 0 .521.048.521.39s-.265.39-.547.39h-.22zm-3.067.214h.024l.36 1.096h-.741z"/></svg>