<svg xmlns="http://www.w3.org/2000/svg" viewBox="0 0 24 24"><path d="m6.645 6.229-.524.923 5.277.33-.335-1.248zm7.873.005-.82 1.414 3.488.243-.131.236-3.776.242-1.11 1.938 3.505.23-.139.23-11.947.776-.535.926 11.095.691-.136.233-6.178.363.467 1.754 4.345.263-.136.239-4.004.279.379 1.48 7.64-.005c1.843 0 5.15-1.218 5.534-3.776.22-1.44-1.032-1.996-1.54-2.056 2.378-.666 3.186-2.26 3.356-2.899.573-2.085-.897-2.8-2.887-2.8zm-2.873 2.24-6.53.417-.527.92 7.54.496zm6.79.028h1.067c.462-.005.81.534.55 1.166-.28.678-1.044 1.013-1.782 1.018l-1.1.005zm-2.537 4.385h1.266c.385 0 .94.395.639 1.175-.324.836-1.376 1.13-1.965 1.13h-1.266zm-8.093.869-5.742.433-.536.924 5.32.303zm-1.545 2.69-5.727.402L0 17.77l5.49-.01z"/></svg>