<svg xmlns="http://www.w3.org/2000/svg" viewBox="0 0 24 24"><path d="M16.81.002a4.3 4.3 0 0 0-1.09.12v.13h.555A1.474 1.474 0 0 1 18 1.582a1.43 1.43 0 0 1-1.488 1.367q-.03 0-.06-.004c-2.445 0-5.325-1.984-8.456-1.984a4.483 4.483 0 0 0-4.713 4.178A3.12 3.12 0 0 0 5.76 8.346v-.12a1.48 1.48 0 0 1-.676-1.365 1.844 1.844 0 0 1 1.973-1.705l.035.004c2.629 0 6.87 2.184 9.5 2.184h.097v3.14l-2.443 2.184 2.443 2.182v4.548a9.4 9.4 0 0 1-3.033.47 6.75 6.75 0 0 1-4.613-1.516l4.43-1.987V7.451l-6.198 2.727a6.55 6.55 0 0 1 3.59-3.905v-.097C6.35 7.18 2.727 10.419 2.727 14.88c0 5.193 4.025 9.119 9.818 9.119 6.01 0 8.726-4.363 8.726-8.814v-.372h-.097A7.64 7.64 0 0 1 16.81 19.3v-4.485l2.445-2.181-2.445-2.182V7.396a3.917 3.917 0 0 0 3.927-3.84c0-2.628-2.51-3.554-3.927-3.554zm-7.537 9.49v8.477l-.416.217a6.87 6.87 0 0 1-2.005-5.16 8.2 8.2 0 0 1 .37-2.596z"/></svg>