<svg xmlns="http://www.w3.org/2000/svg" viewBox="0 0 24 24"><path d="M6.135.006A6.397 6.397 0 0 0 .002 6.402v4.8a1.6 1.6 0 0 0 1.6 1.597h9.595v4.8a6.37 6.37 0 0 0 .856 3.198l.084.146a6.4 6.4 0 0 0 .662.893 7 7 0 0 0 .562.564 6.5 6.5 0 0 0 .893.659l.144.086a6.41 6.41 0 0 0 7.432-.745 7 7 0 0 0 .566-.564 6.397 6.397 0 0 0 .002-8.467 6 6 0 0 0-.564-.566 6.38 6.38 0 0 0-4.234-1.6h-4.8V6.4a6.38 6.38 0 0 0-1.599-4.234 6 6 0 0 0-.566-.562 6.4 6.4 0 0 0-4.5-1.598zm.267 1.693a4.8 4.8 0 0 1 4.8 4.701v4.8H1.604V6.4a4.8 4.8 0 0 1 4.797-4.7zM12.8 12.8h4.799a4.799 4.799 0 0 1 0 9.596 4.77 4.77 0 0 1-3.2-1.225 4 4 0 0 1-.377-.377 4.78 4.78 0 0 1-1.222-3.2z"/></svg>