<svg xmlns="http://www.w3.org/2000/svg" viewBox="0 0 24 24"><path d="M11.977 0v.018L.813 3.893l1.605 14.875 9.559 5.207V24l.023-.014.023.014v-.025l9.559-5.207 1.605-14.875L12.024.018V0L12 .008zm-1.95 4.566c.551-.026 1.053.185 1.485.62 1.075-.055 2.177.235 3.293.863q2.378 1.414 2.595 3.055c-.17 1.439-2.103 1.4-5.789-.114q-2.894.82-2.845 3.553 0 2.508 2.422 3.643c-.787-.772-1.122-1.422-1.01-1.96q2.456 2.907 5.588 2.174-1.378.05-2.198-.892 2.116-.05 3.998-1.973-1.084.863-2.285.656 3.26-2.562 2.309-5.978l-.002-.008a3.02 3.02 0 0 1 .787 2.031q.023 1.175-.795 2.477.613-.478 1.412-2.047c.23 2.117-.623 3.723-2.572 4.824q.934-.085 2.473-1.228-1.641 3.948-6.032 4.166c-2.829 0-4.66-1.701-4.66-1.701q-1.745-1.358-2.398-3.416c-.695-.76-.702-.843-.774-1.147-.072-.303.044-.387.248-.684q.205-.297.1-.85-.26-.36-.3-1.128 0-.37.495-.783.496-.412.608-.631.083-.12.064-1.031-.006-.898.994-.977c1-.08 1.565-.832 1.88-1.174.21-.228.52-.338.91-.34zm3.618 2.747a.32.32 0 0 0-.32.318.32.32 0 0 0 .638 0 .32.32 0 0 0-.318-.319z"/></svg>