<svg xmlns="http://www.w3.org/2000/svg" viewBox="0 0 24 24"><path d="M3 0C1.338 0 0 1.338 0 3v6.107h2.857c1.092 0 1.971.867 1.965 1.96v.02c.812-.094 1.312-.352 1.674-.683.416-.382.69-.909 1.016-1.498.325-.59.71-1.243 1.408-1.722.575-.395 1.356-.646 2.385-.688v-.45a1.97 1.97 0 0 1 1.97-1.976h7.895c1.09 0 1.973.885 1.973 1.977v1.941c0 1.091-.882 2.03-1.973 2.03h-7.895c-1.092 0-1.97-.938-1.97-2.03v-.453c-.853.037-1.41.236-1.8.504-.48.33-.773.801-1.085 1.367-.312.565-.63 1.22-1.223 1.764l-.076.068c3.071.415 4.464 1.556 5.65 2.594 1.39 1.215 2.477 2.274 6.301 2.287v-.459c0-1.092.895-1.945 1.987-1.945H24V3c0-1.662-1.338-3-3-3zm10.275 5.41c-.369 0-.685.268-.685.637v1.941c0 .368.316.637.685.637h7.893a.614.614 0 0 0 .635-.637V6.047a.614.614 0 0 0-.635-.637zM0 10.447v3.268h2.857a.696.696 0 0 0 .678-.69v-1.943c0-.368-.31-.635-.678-.635zm4.82 1.67v.908A1.965 1.965 0 0 1 2.857 15H0v6c0 1.662 1.338 3 3 3h18c1.662 0 3-1.338 3-3v-1.393h-2.941c-1.092 0-1.987-.913-1.987-2.005v-.446c-4.046-.032-5.597-1.332-6.982-2.543-1.437-1.257-2.753-2.43-7.27-2.496zM21.06 15a.644.644 0 0 0-.649.66v1.942c0 .368.28.613.649.613H24V15z"/></svg>