<svg xmlns="http://www.w3.org/2000/svg" viewBox="0 0 24 24"><path d="M16.273 0c-.285 0-.618.02-1.027.055l-13.31.98C.863 1.127.488 1.83.488 2.668v14.557c0 .654.233 1.214.793 1.96l3.13 4.06c.513.653.982.794 1.962.747l15.457-.933c1.307-.092 1.682-.701 1.682-1.727V4.953c0-.56-.236-.7-.936-1.213L18.328.756C17.558.196 17.13.002 16.273 0zm-.09 1.348c.833.013 1.309.336 1.676.62l2.198 1.587c.093.046.325.326.045.326l-13.215.793c-1.402.094-1.682.139-2.428-.467L2.637 2.762c-.186-.186-.093-.421.373-.467l12.795-.934q.2-.016.379-.013zm4.993 4.119c.515-.046.748.28.748.887v13.81c0 .607-.095 1.122-.936 1.168l-14.521.84c-.841.047-1.215-.234-1.215-.98V7.286c0-.606.186-.886.746-.933zM19.59 8.033l-3.223.188c-.467.046-.84.42-.748.933l1.217.139v6.44l-4.766-7.28-3.455.235c-.653.046-.887.652-.793 1.072l1.164.094v9.193l-.84.232c-.327.093-.419.56-.326.746l3.223-.185c1.168 0 1.168-.84 1.168-.84l-1.45-.328V11.72l4.579 7.185c.56.7.746.934 1.494.934.467 0 1.027-.189 1.635-.516V9.061l.7-.14c.42-.047.514-.468.42-.888z"/></svg>