<svg xmlns="http://www.w3.org/2000/svg" viewBox="0 0 24 24"><path d="M10.56 8.31a3.68 3.68 0 0 0-3.173 1.825l.07-.344a1.107 1.107 0 1 0-2.172-.445l-.476 2.34-1.752-2.72a1.106 1.106 0 0 0-2.012.374L.023 14.354a1.108 1.108 0 0 0 1.086 1.335c.514.004.976-.358 1.084-.892l.477-2.338q.888 1.384 1.78 2.764a1.108 1.108 0 0 0 1.993-.455l.47-2.303a3.68 3.68 0 0 0 3.648 3.219 3.68 3.68 0 0 0 3.57-2.797l.262 1.758c.073.579.547 1.037 1.14 1.037.427 0 .777-.245.998-.584l1.883-2.893.906 2.664c.163.475.58.813 1.096.813.479 0 .855-.288 1.06-.715l2.403-4.844a1.15 1.15 0 0 0-.512-1.541 1.144 1.144 0 0 0-1.539.52l-1.217 2.453-.787-2.32h-.002a1.15 1.15 0 0 0-1.082-.774c-.399 0-.751.206-.957.518-.525.801-1.048 1.609-1.572 2.414l-.28-1.957a1.145 1.145 0 1 0-2.261.341l.049.328a3.68 3.68 0 0 0-3.158-1.794zm0 1.924c.972 0 1.76.79 1.76 1.764s-.788 1.764-1.76 1.764c-.971 0-1.76-.79-1.76-1.764s.789-1.764 1.76-1.764z"/></svg>