<svg xmlns="http://www.w3.org/2000/svg" viewBox="0 0 24 24"><path d="M9.07 4.17c-.283 0-.56.073-.806.21a1.6 1.6 0 0 0-.592.573L.217 17.48a1.53 1.53 0 0 0-.217.784c0 .275.075.545.217.783a1.6 1.6 0 0 0 .59.572c.245.138.523.211.806.211h5.602c2.219 0 3.854-.946 4.98-2.79l2.735-4.593 1.463-2.457 4.394 7.381H14.93l-1.465 2.46h8.922c.283 0 .561-.074.806-.212a1.6 1.6 0 0 0 .59-.572 1.53 1.53 0 0 0 .217-.783 1.53 1.53 0 0 0-.217-.784L17.791 7.414a1.6 1.6 0 0 0-.59-.572 1.65 1.65 0 0 0-.806-.211 1.66 1.66 0 0 0-.81.21 1.6 1.6 0 0 0-.589.573L13.465 9.99l-2.996-5.037a1.6 1.6 0 0 0-.592-.572 1.65 1.65 0 0 0-.807-.211zm.004 3.357 2.922 4.92-1.957 3.29c-.748 1.196-1.597 1.632-2.916 1.632H3.215z"/></svg>