<svg xmlns="http://www.w3.org/2000/svg" viewBox="0 0 24 24"><path d="M8.947 4.063V6.2C4.147 6.594 0 10.652 0 10.652s2.35 6.802 8.947 7.42v-1.236c-4.84-.6-6.492-5.936-6.492-5.936s2.162-3.194 6.492-3.533V8.8a6 6 0 0 1 .797-.035c2.508 0 4 1.95 4 1.95l-2.04 1.716c-.91-1.528-1.219-2.2-2.747-2.385v4.346c.371.123.76.183 1.158.183 2.976 0 5.75-3.85 5.75-3.85S13.293 7.227 9.371 7.35a7 7 0 0 0-.416.017V6.201l.416-.027c5.45-.185 9.012 4.47 9.012 4.47s-4.08 4.963-8.33 4.963q-.554-.001-1.096-.095v1.324c.3.035.61.062.91.062 3.957 0 6.82-2.023 9.594-4.408.459.371 2.338 1.264 2.728 1.653-2.633 2.208-8.77 3.984-12.251 3.984-.335 0-.653-.02-.971-.055v1.866H24V4.063zm0 4.736c-2.915.318-4.672 2.262-4.672 2.262s1.015 3.805 4.672 4.459v-1.13c-2.057-.698-2.736-3.11-2.736-3.11s1.2-1.43 2.728-1.245h.008z"/></svg>