<svg xmlns="http://www.w3.org/2000/svg" viewBox="0 0 24 24"><path d="M.586 8.633A.586.586 0 0 0 0 9.219v5.562c0 .325.263.586.586.586H14.47a.58.58 0 0 0 .416-.172l2.633-2.773a.607.607 0 0 0 0-.836l-2.633-2.781a.58.58 0 0 0-.416-.172zm13.281 1.738a1.08 1.08 0 0 1 .791.334l-.238.377a1.2 1.2 0 0 0-.266-.193.6.6 0 0 0-.244-.051.44.44 0 0 0-.355.14.63.63 0 0 0-.12.417v.097h.733v.457h-.73v1.934h-.557v-1.94h-.514v-.457h.514v-.1a1.1 1.1 0 0 1 .133-.55.9.9 0 0 1 .355-.346c.153-.08.325-.12.498-.119zm-3.103.02q.092.001.172.046a.4.4 0 0 1 .132.126.3.3 0 0 1 .051.171.3.3 0 0 1-.05.174.4.4 0 0 1-.133.123.364.364 0 0 1-.487-.123.3.3 0 0 1-.049-.174.33.33 0 0 1 .108-.246c.07-.066.16-.1.256-.097zm-3.588.027h1.201v3.02h.648v.445H7.141v-.445h.654v-2.569h-.62zM5.52 11.424c.19-.001.38.04.553.12a.97.97 0 0 1 .405.345l-.311.377a.74.74 0 0 0-.645-.34.54.54 0 0 0-.318.1.7.7 0 0 0-.234.269 1 1 0 0 0-.084.422.95.95 0 0 0 .084.39.58.58 0 0 0 .545.356 1 1 0 0 0 .191-.02.6.6 0 0 0 .129-.054.9.9 0 0 0 .291-.243l.332.385a1.22 1.22 0 0 1-.947.426 1.2 1.2 0 0 1-.617-.16 1.14 1.14 0 0 1-.428-.45 1.35 1.35 0 0 1-.156-.646 1.36 1.36 0 0 1 .156-.646 1.17 1.17 0 0 1 1.054-.631zm-2.802.012c.198 0 .394.054.568.164.175.11.32.268.414.453.103.195.155.413.153.634a1.4 1.4 0 0 1-.15.66 1.102 1.102 0 0 1-1.972 0 1.4 1.4 0 0 1-.15-.66c-.002-.22.05-.44.152-.634.095-.185.24-.342.414-.453s.373-.164.57-.164zm7.248.05h1.119v1.936h.514l.007.46H9.943v-.46h.575v-1.475h-.551zm-7.25.416a.46.46 0 0 0-.295.088.6.6 0 0 0-.192.274 1.2 1.2 0 0 0-.068.422 1.3 1.3 0 0 0 .067.43.64.64 0 0 0 .195.279.45.45 0 0 0 .29.1.46.46 0 0 0 .298-.1.64.64 0 0 0 .193-.288q.07-.204.068-.421a1.2 1.2 0 0 0-.068-.422.6.6 0 0 0-.191-.268.48.48 0 0 0-.297-.094zm16.334 2.631a.28.28 0 0 0-.28.281v.274a.28.28 0 0 0 .28.28h4.67a.28.28 0 0 0 .279-.28v-.274a.28.28 0 0 0-.277-.28z"/></svg>