<svg xmlns="http://www.w3.org/2000/svg" viewBox="0 0 24 24"><path d="M12 .357C5.385.357 0 5.69 0 12.254c0 4.36 2.358 8.152 5.896 10.203l.77-5.074a7.05 7.05 0 0 1-1.846-4.72c0-3.898 3.18-7.075 7.13-7.075 3.947 0 7.126 3.178 7.126 7.074 0 1.847-.717 3.49-1.846 4.772L18 22.51c3.59-2.05 6-5.9 6-10.258C24 5.69 18.615.357 12 .357zm-.05 8.157a3.786 3.786 0 0 0-3.796 3.795 3.74 3.74 0 0 0 2.461 3.54l-1.484 7.794h5.639l-1.434-7.795c1.385-.564 2.408-1.897 2.408-3.54a3.786 3.786 0 0 0-3.795-3.794z"/></svg>