<svg xmlns="http://www.w3.org/2000/svg" viewBox="0 0 24 24"><path d="M12 0C5.39 0 0 5.39 0 12c0 1.306.21 2.562.6 3.74l.892-.892.668-.67A10 10 0 0 1 1.922 12C1.922 6.45 6.45 1.922 12 1.922S22.078 6.449 22.078 12 17.551 22.078 12 22.078a10.06 10.06 0 0 1-7.697-3.588l-.014.012-.309.309-.306.308-.309.309-.424.426C5.144 22.39 8.391 24 12.002 24 18.611 24 24 18.61 24 12S18.61 0 12 0zm0 6.367-1.367 1.37-9.39 9.396c.272.615.621 1.185.997 1.738L12 9.104l7.455 7.457.176-.305.191-.373.174-.385.156-.393.137-.404.01-.033-6.932-6.932z"/></svg>