<svg xmlns="http://www.w3.org/2000/svg" viewBox="0 0 24 24"><path d="M12 0C5.374 0 0 5.374 0 12s5.374 12 12 12 12-5.374 12-12S18.629 0 12 0zm.377 4.8a.66.66 0 0 1 .477.202.7.7 0 0 1 .2.484V6.65l.141.04q.017.005.032.015.051.037.146.111.073.059.164.137a10 10 0 0 1 .574.504c.214.199.456.432.686.691.065.074.126.145.191.225.062.079.132.156.19.232.079.104.16.213.234.325.033.053.075.109.106.162.096.142.178.286.257.433.034.067.067.141.096.213q.136.296.201.6a1 1 0 0 1 .03.13v.01q.02.088.025.184a2.1 2.1 0 0 1-.107.875c-.031.084-.06.17-.098.254a3.6 3.6 0 0 1-.264.502c-.034.06-.075.122-.113.182-.043.063-.089.122-.127.18a4 4 0 0 1-.174.222 2 2 0 0 1-.166.209q-.118.147-.244.277c-.048.058-.1.118-.156.17-.052.06-.109.112-.157.16l-.207.203-.136.122a.1.1 0 0 1-.073.03h-1.05v1.347h1.322c.295 0 .575-.105.803-.3.077-.066.415-.358.816-.8a.1.1 0 0 1 .05-.031l3.65-1.057a.108.108 0 0 1 .138.104v.771a.11.11 0 0 1-.064.102c-.243.103-1.07.485-1.415.962-.878 1.222-1.548 2.97-3.048 2.97H9.053a4.02 4.02 0 0 1-4.014-4.028v-.072c0-.058.05-.106.11-.106h3.484c.07 0 .12.064.115.133-.026.226.017.459.125.67.206.42.637.682 1.1.682h1.724v-1.348H9.99a.11.11 0 0 1-.09-.174l.065-.09c.16-.23.39-.584.62-.99.157-.274.309-.567.43-.861.025-.052.043-.108.065-.16.033-.095.068-.181.092-.268a5 5 0 0 0 .064-.225c.057-.25.08-.514.08-.787 0-.108-.003-.22-.013-.326-.005-.117-.02-.235-.033-.352a3 3 0 0 0-.05-.312 7 7 0 0 0-.097-.469l-.014-.058c-.03-.108-.055-.212-.09-.319a12 12 0 0 0-.328-.97 5 5 0 0 0-.142-.356c-.072-.178-.146-.34-.213-.49a4 4 0 0 1-.094-.197 5 5 0 0 0-.103-.213c-.024-.053-.054-.105-.073-.153l-.21-.386c-.03-.053.02-.119.078-.102l1.32.357h.01l.172.05.193.054.068.02v-.784c0-.379.303-.685.68-.685zM9.191 7.39a.11.11 0 0 1 .09.061c.52 1.17.972 2.624.76 3.53-.088.371-.334.875-.613 1.341a2 2 0 0 1-.117.2.1.1 0 0 1-.09.044H6.014a.106.106 0 0 1-.092-.164H5.92l.05-.08 3.124-4.884a.11.11 0 0 1 .097-.047z"/></svg>