<svg xmlns="http://www.w3.org/2000/svg" viewBox="0 0 24 24"><path d="M12.064 2.418c-1.287.016-2.477.283-3.345.701-.895.432-1.426 1.014-1.426 1.627 0 .494.375.98.975 1.397a4.6 4.6 0 0 1 .728-.422c.235-.116.557-.148.977-.15.42-.005.855.09.855.09.008 0 1.498.644 1.498.644l.895-.418h.002s.591-.266 1.267-.258q.068 0 .137.006a4 4 0 0 1 .654.107c.3.07.592.24.778.39.562-.404.896-.88.896-1.364 0-.617-.5-1.203-1.363-1.64-.862-.435-2.069-.708-3.403-.708h-.125zm7.09.139c-.182.008-.295.052-.484.134-.506.275-1.024.55-1.545.825a9.87 9.87 0 0 1 4.725 8.06c.418-.213.831-.428 1.228-.637 1.157-.844 1.235-3.072.178-5.193-.94-1.885-2.53-3.188-3.89-3.185a2 2 0 0 0-.212-.004zm-10.603.37a9.65 9.65 0 0 0-6.178 8.16c.425-.213.858-.423 1.295-.616l.002-.002h.002q.307-.127.637-.133c.22-.005.444.029.671.094.454.13.917.386 1.356.726.88.68 1.693 1.714 2.213 2.883.576 1.293.84 2.533.795 3.56-.045 1.03-.413 1.875-1.139 2.268l-.976.467a9.6 9.6 0 0 0 4.744 1.248 9.6 9.6 0 0 0 5.334-1.611c-.745.289-1.48.318-2.086-.006-.54-.29-.915-.833-1.082-1.541-.121-.413-.09-.715-.104-1.147.015-.475.141-.929.207-1.248.104-.434.378-1.154.776-1.865.398-.71.977-1.41 1.61-2.008.636-.598 1.253-.966 1.704-1.082.45-.116.742-.17 1.043-.174s.609.045.922.21c.772.41 1.162 1.295 1.187 2.357.074-.226.108-1.16.13-1.526a9.64 9.64 0 0 0-5.124-8.515c.447.385.717.84.717 1.342 0 .618-.409 1.185-.92 1.523a6.2 6.2 0 0 1-1.498.744 7.3 7.3 0 0 1-2.21.377c-.739.002-1.25.012-1.665-.06a12 12 0 0 1-.844-.166c-.35-.067-.333-.054-.607-.15-.59-.21-.775-.29-1.377-.686-.601-.396-1.041-.972-1.041-1.604 0-.736.603-1.367 1.506-1.818zm1.498 2.901c.054.332.147.729.162 1.131q.262.061.537.107c.46-.227.863-.424 1.27-.62l-1.247-.538c-.003 0-.09-.015-.214-.033a9 9 0 0 0-.508-.047zm4.201.068c-.388-.003-.91.223-.91.223l-.87.404.022.64c.844-.033 1.631-.175 2.299-.407.02-.298.108-.59.152-.824-.145-.037-.305-.033-.693-.036zm.94.108c-.04.123-.083.25-.108.39-.014.075-.02.168-.027.256q.399-.16.724-.359a1.8 1.8 0 0 0-.59-.287zm-2.967.625c-.291.14-.64.305-.985.476.338.03.675.059 1.002.067zm-7.905 3.959a1.5 1.5 0 0 0-.548.111 33 33 0 0 0-2.213 1.088c.106.01.206.025.298.037.388.052.812.218 1.51.762.28.219.593.543.899.92.327.388.61.844.865 1.238.173.288.325.575.45.848.15.316.26.641.376.945.112.306.18.617.262.91.078.285.102.573.148.844q.048.402.041.754c-.01.449-.044.854-.168 1.215q-.06.172-.154.328a77 77 0 0 0 2.002-.942c1.25-.676 1.36-2.977.234-5.505-.88-1.978-2.652-3.574-4.002-3.553zm15.139.582c-.248 0-.492.06-.7.084.186.347.34.904.132 1.633-.066.172-.12.377-.215.556-.528 1.1-1.506 1.61-1.79 1.739 0 .047-.001.112-.038.463a3.7 3.7 0 0 1-.174.86c-.11.366-.228.628-.385.88-.077.1-.15.257-.506.65-.436.271-1.007.453-1.312.453.17.567.445 1.027.87 1.256.672.358 1.554.239 2.452-.277a6.2 6.2 0 0 0 1.48-1.23c.35-.406.666-.835 1.172-1.72.505-.881.813-2.064.79-3.044-.023-1.004-.383-1.784-1.053-2.141a1.5 1.5 0 0 0-.723-.162zm-.982.13c-.5.166-1.01.47-1.498.876.172.192.37.356.61.537a3.7 3.7 0 0 0 .91.502l.048-.113a3 3 0 0 0 .096-.284c.137-.48.101-.865.011-1.154a1.6 1.6 0 0 0-.177-.363zm-17.178.733a.8.8 0 0 0-.469.155c-.473.368-.778.918-.822 1.894-.043.977.21 2.184.773 3.45.503 1.13 1.299 2.135 2.139 2.784.841.65 1.726.944 2.48.6.62-.343.737-.999.758-1.877s-.24-2.098-.806-3.344c-.474-1.044-1.46-2.38-2.14-2.912-.68-.53-1.04-.665-1.386-.71a3 3 0 0 0-.527-.04zm15.474.322c-.582.582-1.085 1.198-1.45 1.797l1.445.793a3 3 0 0 0 .53-.312 3.5 3.5 0 0 0 1.065-1.192 4.3 4.3 0 0 1-.943-.539c-.356-.266-.51-.39-.647-.547zm-1.574 2.034a7.5 7.5 0 0 0-.658 1.715l1.955-1.004c-.41-.22-.87-.468-1.297-.711zm1.42.935-2.224 1.158-.032.147c.226.053.477.128.784.29.427.228.627.39.78.53q.079-.101.153-.217c.342-.548.473-1.156.524-1.586.012-.108.01-.217.015-.322z"/></svg>