<svg xmlns="http://www.w3.org/2000/svg" viewBox="0 0 24 24"><path d="M11.898.852A5.73 5.73 0 0 0 8.99 11.518l1.64-2.784a.154.154 0 0 0-.048-.205 2.35 2.35 0 1 1 2.635 0 .154.154 0 0 0-.049.205l1.64 2.784A5.731 5.731 0 0 0 11.899.852zm-6.17 10.837a5.73 5.73 0 0 0 0 11.459c3.18 0 5.809-2.7 5.729-5.877H8.23a.154.154 0 0 0-.15.157c-.008 1.266-1.066 2.342-2.351 2.342a2.35 2.35 0 1 1 .955-4.5.155.155 0 0 0 .197-.06l1.646-2.792a5.7 5.7 0 0 0-2.798-.729zm15.444.762-1.637 2.787a.155.155 0 0 0 .05.205 2.349 2.349 0 0 1-1.31 4.299 2.35 2.35 0 0 1-1.326-4.295.154.154 0 0 0 .049-.205l-1.646-2.781a5.73 5.73 0 1 0 5.82-.01z"/></svg>