<svg xmlns="http://www.w3.org/2000/svg" viewBox="0 0 24 24"><path d="M12 0A14.12 14.12 0 0 0 1.994 4.154L3.69 5.85A11.72 11.72 0 0 1 12 2.41a11.72 11.72 0 0 1 8.31 3.44l1.696-1.696A14.12 14.12 0 0 0 12 0zm0 4.32a9.8 9.8 0 0 0-6.947 2.893l1.695 1.695A7.4 7.4 0 0 1 12 6.73c2.043 0 3.905.832 5.252 2.178l1.695-1.695A9.8 9.8 0 0 0 12 4.32zM4.271 8.076a9.76 9.76 0 0 0-2.11 6.084C2.16 19.58 6.58 24 12 24c5.418 0 9.84-4.42 9.84-9.84a9.86 9.86 0 0 0-2.111-6.084L18.016 9.79a7.4 7.4 0 0 1 1.43 4.371c0 4.105-3.34 7.447-7.446 7.447s-7.447-3.342-7.447-7.447c0-1.628.531-3.141 1.43-4.37zM12 8.643a5.56 5.56 0 0 0-3.906 1.613l1.695 1.695a3.13 3.13 0 0 1 4.422 0l1.695-1.695A5.5 5.5 0 0 0 12 8.643zm0 3.888a1.629 1.629 0 1 0 0 3.258 1.629 1.629 0 0 0 0-3.258z"/></svg>