<svg xmlns="http://www.w3.org/2000/svg" viewBox="0 0 24 24"><path d="M11.99 0C5.372 0 0 5.37 0 11.99c0 6.412 5.017 11.69 11.43 11.99.178 0 .384.02.562.02a12 12 0 0 0 7.994-3.047A11.98 11.98 0 0 0 24 12.01a12.04 12.04 0 0 0-4.012-8.963A11.92 11.92 0 0 0 12.028 0zm.02 1.125h.037a10.7 10.7 0 0 1 2.783.385c-2.718.056-5.268 1.397-7.012 3.666-1.388 1.64-2.22 4.012-2.267 6.533v.545c.066 2.503.88 4.876 2.267 6.516 1.762 2.287 4.312 3.627 7.041 3.683a10.1 10.1 0 0 1-3.375.385c-5.812-.263-10.34-5.036-10.34-10.848 0-5.972 4.876-10.865 10.866-10.865zm3.027 1.547a7.7 7.7 0 0 1 4.229 1.283 10.85 10.85 0 0 1 3.59 8.055 10.9 10.9 0 0 1-3.59 8.062 7.7 7.7 0 0 1-4.229 1.283c-2.446 0-4.753-1.18-6.355-3.251l-.02-.02c-1.228-1.443-1.95-3.563-2.006-5.813v-.525c.056-2.24.779-4.368 2.026-5.83 1.603-2.063 3.908-3.244 6.355-3.244zm-.844 1.762c2.147 1.378 3.612 4.248 3.612 7.576s-1.484 6.196-3.612 7.584c2.728-.244 4.912-3.534 4.912-7.584s-2.184-7.332-4.912-7.576z"/></svg>