<svg xmlns="http://www.w3.org/2000/svg" viewBox="0 0 24 24"><path d="M21.19 9.146v.002h-.075c-1.655.027-2.81.92-2.81 2.172s1.156 2.147 2.81 2.174h.074c1.655-.027 2.811-.92 2.811-2.174s-1.156-2.147-2.81-2.174zm-18.38.002C1.157 9.175 0 10.068 0 11.32s1.156 2.147 2.81 2.174h.075c1.655-.027 2.81-.92 2.81-2.174 0-1.253-1.155-2.145-2.81-2.172zm6.11 0c-.79.013-1.464.223-1.955.575v-.371h-.856v5.5h.856v-1.93c.49.35 1.166.558 1.955.572h.072c1.655-.027 2.813-.92 2.813-2.174 0-1.253-1.157-2.145-2.81-2.172zm6.105 0c-.789.013-1.464.223-1.955.575v-.371h-.855v5.5h.855v-1.93c.49.35 1.167.558 1.955.572h.075c1.655-.027 2.808-.92 2.808-2.174 0-1.253-1.153-2.145-2.808-2.172zm-12.177.707c1.21.013 1.992.588 1.992 1.465s-.782 1.453-1.99 1.465C1.64 12.773.857 12.2.857 11.32s.782-1.452 1.99-1.465zm6.107 0c1.21.013 1.99.588 1.99 1.465s-.78 1.453-1.99 1.465c-1.21-.012-1.99-.587-1.99-1.465s.78-1.452 1.99-1.465zm6.108 0c1.21.013 1.992.588 1.992 1.465s-.782 1.453-1.99 1.465h-.002c-1.21-.012-1.99-.587-1.99-1.465s.78-1.452 1.99-1.465zm6.09 0c1.21.013 1.992.588 1.992 1.465s-.782 1.453-1.99 1.465c-1.21-.012-1.993-.587-1.993-1.465s.781-1.452 1.99-1.465z"/></svg>