<svg xmlns="http://www.w3.org/2000/svg" viewBox="0 0 24 24"><path d="M23.516 9.928a.487.487 0 0 0-.485.484c0 .266.22.486.485.486a.487.487 0 0 0 .484-.486.487.487 0 0 0-.484-.484zm-21.452.015A2.06 2.06 0 0 0 0 12.008a2.06 2.06 0 0 0 2.064 2.064 2.06 2.06 0 0 0 2.065-2.064 2.063 2.063 0 0 0-2.065-2.065zm2.5 0a.48.48 0 0 0-.484.487.47.47 0 0 0 .484.482.477.477 0 0 0 .487-.482.49.49 0 0 0-.487-.487zm.956.065v3.969h.656V12.32h.922l.984 1.659h.783l-1.033-1.706c.485-.14.83-.578.83-1.109 0-.642-.515-1.156-1.156-1.156zm3.8 0v3.969h2.75v-.657H9.975v-1h2.002v-.656H9.975v-.984h2.095v-.672zm3.453 0v3.969h.659v-3.97zm1.346 0v3.97h2.565v-.658h-1.909v-3.312zm3.111 0v3.97h2.565v-.658h-1.908v-3.312zm1.862 0 1.484 2.156v1.815h.672v-1.815l1.486-2.156h-.798l-1.016 1.469-1.016-1.47zm4.424 0a.41.41 0 0 1 .406.404.414.414 0 0 1-.406.408.404.404 0 0 1-.407-.408c0-.219.173-.404.407-.404zm-.203.154v.5h.078v-.219h.138l.112.221h.093l-.111-.22a.15.15 0 0 0 .111-.14.14.14 0 0 0-.14-.142zm.078.078h.203c.032 0 .062.033.062.065a.07.07 0 0 1-.062.06h-.203zm-21.54.395a1.42 1.42 0 0 1 1.213.388c.251.25.407.594.407.985 0 .39-.157.735-.407 1a1.42 1.42 0 0 1-1.986 0 1.45 1.45 0 0 1-.406-1c0-.391.156-.735.406-.985a1.4 1.4 0 0 1 .774-.388zm4.325.045h1.33a.5.5 0 0 1 .5.484c0 .281-.234.5-.5.5h-1.33z"/></svg>