<svg xmlns="http://www.w3.org/2000/svg" viewBox="0 0 24 24"><path d="M17.17 0c-.566.004-2.161 3.311-3.377 5.94a2.2 2.2 0 0 1-.408-1.266c-.03-.582-1.089.235-.936 1.273-.068-.035-1.26.228-1.26.23-.23-.93-.802-1.617-1.15-.562-.7 1.663-.88 2.983.115 4.584-.908 4.058-6.948 6.053-6.32 9.33.175.004 1.635 3.482 6.338 2.059 5.557-1.577 8.622 2.116 8.976 2.375.52.526-1.346-4.573-5.3-6.865-2.34-1.276-.87-3.474-.703-4.25 0 0 1.874 1.31 3.232-.694 1.227.316 2.048-.223 3.103.159.64.28 3.336.111 2.334-1.395-.148.129.071.269-.074.459-.043.056-.128.231-.408.314-.314.15-.83.271-1.43-.369-.434-.32-.748-.04-.992-.062.152-.098.577-.317 1.264-.317.388 0 .593.336.853.338.174 0 .685-.26.787-.363.63-.41.697-.28 1.012-.906.17-.76-.215-.92-.332-1.13-.032-.482-.435-.67-.918-.325-1.106-.198-2.192-.106-2.728-.15-1.175-.165-2.153-.786-2.153-.786.143-.19.076-.6-.841-.629-.315-.104-.452-.2-.747-.306.61-1.37.674-2.007 1.418-4.004.261-1.053 1.04-2.685.645-2.682zM8.96 7.256C7.963 8.288 6.856 8.3 5.18 8.58c-1.3.234-3.658 2.447-4.026 4.742-.043.608-.08 2.183.424 3.498.492 1.13.83 1.726 1.846 2.334-.882-3.169 5.295-5.33 6.262-8.955C8.86 9 8.93 8.36 8.96 7.256zm3.94.818c.106-.014.479.162.924.196.395.03.804.047 1.295-.026.03-.005.174.095-.148.194-.02.01-.064-.01-.067.197 0 .022-.01.039-.02.045-.15.152-.707.222-1.064.1-.436-.17-.482-.315-.517-.442-.305-.147-.47-.123-.43-.244q.006-.016.027-.02z"/></svg>