<svg xmlns="http://www.w3.org/2000/svg" viewBox="0 0 24 24"><path d="M11.387 0 9.883 2.637A9.59 9.59 0 0 0 2.41 11.4h2.412a7.205 7.205 0 0 1 6.565-6.578zM12.6 2.412v2.41a7.205 7.205 0 0 1 6.566 6.565H24l-2.637-1.504a9.59 9.59 0 0 0-8.763-7.47zm-.614 3.29-.746 4.554 1.492.998.998 1.492 4.557-.76-4.557-.746 1.973-2.957-2.957 1.973zm.746 5.552L8.283 8.285l2.97 4.447 4.45 2.971zm-1.478 1.478-.998-1.49L5.7 12l4.555.746-1.973 2.957 2.946-1.97.757 4.552.76-4.553zm.732-1.265c.28 0 .52.24.52.52a.52.52 0 1 1-.52-.52zM0 12.6l2.637 1.504a9.59 9.59 0 0 0 8.763 7.472v-2.41A7.21 7.21 0 0 1 4.822 12.6zm19.166 0a7.21 7.21 0 0 1-6.566 6.566V24l1.504-2.637a9.59 9.59 0 0 0 7.472-8.763z"/></svg>