<svg xmlns="http://www.w3.org/2000/svg" viewBox="0 0 24 24"><path d="M12 0C5.396 0 0 5.353 0 12a11.96 11.96 0 0 0 4.79 9.582h.001c.821.69 1.77 1.209 2.85 1.598 1.338.518 2.805.82 4.359.82 6.604 0 12-5.396 12-12S18.604 0 12 0zm0 .69c5.353 0 9.67 4.316 9.67 9.626 0 .431-.044.821-.088 1.21-.992-1.124-2.46-1.813-4.1-1.813V9.71h-.214c-1.598-2.115-4.104-3.496-6.952-3.496a8.69 8.69 0 0 0-7.943 5.137c-.044-.346-.043-.69-.043-1.036C2.33 5.006 6.647.69 12 .69zm-1.64 6.302c2.416 0 4.574 1.123 6.042 2.807a5.55 5.55 0 0 0-4.445 5.437 5.53 5.53 0 0 0 3.928 5.31 7.9 7.9 0 0 1-5.526 2.247c-4.36 0-7.898-3.54-7.898-7.9s3.538-7.9 7.898-7.9zm7.206 3.412a4.827 4.827 0 0 1 4.836 4.834 4.827 4.827 0 0 1-4.836 4.834 4.827 4.827 0 0 1-4.834-4.834 4.827 4.827 0 0 1 4.834-4.834z"/></svg>