<svg xmlns="http://www.w3.org/2000/svg" viewBox="0 0 24 24"><path d="M7.604 0 9.75 5.172H7.018l.904 2.275h5.535zm-.165 7.973c-.306 0-.475 0-.613.457-.166.544-.183 1.569-.183 3.568s.018 3.028.183 3.572c.138.456.307.457.613.457h3.487l-1.729-4.203v.016l-.814-2.117h1.912l.883 2.119 1.826-.016-1.592-3.853zm4.368 0 .722 1.752h3.09c.066 0 .225-.086.225-.877 0-.79-.158-.875-.225-.875zm.867 2.1.724 1.753h2.563c.068 0 .223-.087.223-.877s-.156-.875-.223-.875zm-3.742.075 2.632 6.405H8.346L14.296 24l-2.146-5.172h2.733l-.914-2.275h-1.27l-2.633-6.405zm2.375 2.028.722 1.752h3.932c.067 0 .223-.087.223-.877s-.155-.875-.223-.875zm.867 2.1.722 1.751h2.723c.067 0 .223-.085.223-.875s-.156-.877-.223-.877zm4.158 1.199v.091h.145v.42h.117v-.42h.142v-.091zm.467 0v.511h.101v-.39l.13.39h.097l.125-.39v.39h.105v-.511h-.15l-.127.394-.127-.394z"/></svg>