<svg xmlns="http://www.w3.org/2000/svg" viewBox="0 0 24 24"><path d="M17.02 0a2.1 2.1 0 0 0-.721.123L2.623 5.003A2.1 2.1 0 0 0 1.35 7.69l5.324 14.916a2.1 2.1 0 0 0 2.685 1.272l7.746-2.766c.792-.307 1.344-.533 1.463-.607.543-.314.963-.817 1.965-2.334.904-1.362 1.86-3.322 2.098-4.28.24-.97.239-1.48-.502-3.673l-3.147-8.82A2.1 2.1 0 0 0 17.02 0zm-.082.414a1.68 1.68 0 0 1 1.656 1.12l3.68 10.357c.102.433-.282 1.146-.737 1.35-.2.1-.709.293-1.14.429-1.398.463-2.051.878-2.46 1.547-.363.59-.314 1.18.16 2.377.463 1.142.533 1.864.225 2.4-.113.188-.3.322-1.353.733l-.002-.004-7.746 2.763a1.68 1.68 0 0 1-2.157-1.021L1.74 7.55a1.68 1.68 0 0 1 1.022-2.158L16.438.513a1.7 1.7 0 0 1 .5-.099zM15.9 2.25l-1.203.885.188.52.521-.317.805 2.234-.697.25c.045.145.216.642.238.664l2.166-.78-.238-.661-.688.248zm-3.29 1.182-1.204.884.188.52.523-.316.803 2.236-.697.25c.046.144.216.639.238.662l2.168-.777-.238-.664-.688.248zM9.085 4.785c-.283 0-.56.078-.8.225-.733.448-.85 1.381-.333 2.556.337.776.872 1.218 1.461 1.215 1.345-.007 1.861-1.399 1.086-2.949-.307-.66-.836-1.037-1.414-1.047zm-.193.672h.002c.168-.01.357.085.539.28.145.154.345.51.435.786.35.998.164 1.69-.414 1.547-.6-.14-1.246-2.07-.836-2.484a.4.4 0 0 1 .274-.129zm-3.764.75c-.283 0-.56.078-.8.225-.733.448-.85 1.381-.333 2.556.337.777.874 1.218 1.463 1.215 1.344-.007 1.86-1.397 1.086-2.95-.307-.66-.84-1.037-1.416-1.046zm-.191.674c.167-.01.357.084.539.277.145.155.347.51.437.787.35 1 .163 1.69-.416 1.547-.6-.14-1.243-2.071-.834-2.484a.4.4 0 0 1 .274-.127zm13.36.654c-.282 0-.56.076-.8.223-.732.448-.848 1.382-.33 2.558.337.776.872 1.218 1.46 1.215 1.346-.007 1.862-1.4 1.087-2.95-.307-.66-.838-1.036-1.416-1.046zm-.19.672c.167-.01.356.084.538.277.145.155.348.51.438.787.35 1 .164 1.69-.414 1.547-.601-.14-1.243-2.071-.834-2.484a.4.4 0 0 1 .271-.127zm-3.766.75a1.53 1.53 0 0 0-.799.223c-.73.448-.85 1.381-.332 2.556.337.776.874 1.218 1.463 1.215 1.344-.007 1.859-1.397 1.084-2.949-.307-.66-.838-1.036-1.416-1.045zm-.19.67c.167-.008.357.085.54.28.144.154.347.51.437.786.35.998.163 1.688-.416 1.547-.6-.142-1.243-2.071-.834-2.484a.4.4 0 0 1 .271-.127zm-3.746.744a1.5 1.5 0 0 0-.8.223c-.733.448-.85 1.381-.333 2.556.337.777.874 1.218 1.463 1.215 1.345-.007 1.86-1.397 1.084-2.949-.307-.66-.837-1.036-1.414-1.045zm-.191.672c.169-.01.357.084.539.277.145.155.347.51.437.787.35 1 .164 1.69-.414 1.547-.6-.14-1.245-2.071-.836-2.484a.4.4 0 0 1 .274-.127zm-3.516.615-1.203.885.188.52.523-.317.803 2.234-.697.25c.045.145.216.64.238.663l2.166-.778-.238-.664-.686.248zm15.662 1.33h.002c.034 0 .05.047.065.135.023.11-.065.545-.196.957-.47 1.435-2.052 4.224-3.08 5.397l-.408.47.05-.668c.03-.567-.013-.81-.374-1.709-.496-1.263-.533-1.73-.158-2.31.34-.514 1.027-.906 2.447-1.37.72-.237 1.175-.462 1.385-.663.132-.145.208-.222.254-.237zm-6.427 1.477-1.204.885.188.52.523-.317.803 2.234-.695.25c.045.144.214.642.236.664l2.166-.78-.236-.661-.688.248zm-3.579 1.33c-.283 0-.56.077-.8.223-.731.448-.85 1.382-.332 2.558.337.776.874 1.218 1.463 1.215 1.345-.007 1.86-1.398 1.085-2.95-.307-.66-.838-1.036-1.416-1.046zm-.19.672c.167-.01.356.084.538.28.144.152.347.51.438.786.35.998.165 1.687-.414 1.545-.6-.14-1.245-2.071-.836-2.484a.4.4 0 0 1 .273-.127zm-3.517.615-1.203.887.188.52.523-.317.803 2.232-.697.25c.045.145.216.642.238.664l2.166-.779-.238-.662-.688.248z"/></svg>