<svg xmlns="http://www.w3.org/2000/svg" viewBox="0 0 24 24"><path d="M7.654 0 5.131 3.555v2.01L2.934 6.606l-.02-.007v13.107l8.563 4.047L12 24l.523-.246 8.563-4.047V6.6l-.018.007-2.195-1.045V3.556l-.076-.108L16.35.002l-2.526 3.553v.004L11.988.973l-1.822 2.566-.064-.092zm.448 2.064.974 1.375H6.232l.963-1.359zm8.693 0 .976 1.375h-2.845l.965-1.359zm-4.36.971.975 1.375h-2.844l.965-1.357zM5.964 4.133h1.35v4.543l-1.35-.639zm2.04 0h1.345v5.506l-1.344-.635zm6.653 0h1.35V9l-1.35.637zm2.041 0h1.344v3.904l-1.344.635zm-6.4.97h1.35v5.622l-1.35-.64zm2.04 0h1.345v4.995l-1.344.632zm6.534 1.495 1.19.484-1.19.563zM5.131 6.6v1.046l-1.188-.56zM3.96 8.252l7.516 3.549v10.795l-7.516-3.55zm16.078 0v10.793l-7.516 3.55V11.804z"/></svg>