<svg xmlns="http://www.w3.org/2000/svg" viewBox="0 0 24 24"><path d="M11.639 0c-.148 0-.207.69-.252 2.926-.058 2.86-.07 2.949-.51 3.914-.36.793-1.623 2.675-2.037 3.039-.373.328-1.183 1.56-1.58 2.4-.71 1.504-.66 3.52-.041 5.047.518 1.194 1.263 2.158 2.46 3.184.94.805 1.23.918 1.376.543.049-.128-.164-.572-.485-1.018-.313-.436-.842-1.361-1.177-2.058-1.382-2.926-.7-5.357.902-8.045.89-1.393 1.402-2.644 1.578-3.854.22-1.515.045-6.078-.234-6.078zm-.758 1.215c-.186 0-.229.26-.229 1.422 0 .782-.078 1.653-.175 1.937-.312.914-1.155 1.738-3.483 3.405-1.684 1.205-3.096 2.652-3.64 3.732-1.666 3.299-.196 7.312 3.42 9.334 1.612.902 2.966 1.252 2.966.767 0-.126-.054-.228-.12-.228-.068 0-.633-.332-1.255-.738-2.69-1.755-3.948-3.928-3.748-6.483.15-1.91.874-3.08 3.797-6.134 2.522-2.636 2.69-2.97 2.693-5.303.001-1.42-.036-1.711-.226-1.711zm1.508.633c-.103.017-.14.904-.143 2.902l-.004 2.926-.744 2.812c-.83 2.54-.953 5.133-.344 7.725.558 2.202.796 2.638 1.567 2.857.343.098.89.356 1.217.573.735.49 1.394.434 2.714-.233 1.92-.97 3.209-2.222 4.067-3.953.745-1.648.856-3.71.068-5.35-.7-1.414-1.881-2.554-4.357-4.197-2.162-1.436-2.618-1.82-3.15-2.652-.323-.503-.37-.724-.31-1.444.04-.468.126-.978.192-1.134.101-.24.07-.268-.201-.182-.26.082-.34.028-.42-.285-.061-.245-.112-.372-.152-.365zm.715 4.586c.034-.007.134.111.251.304.144.237 1.022 1 1.952 1.698 2.888 2.189 5.27 4.379 4.088 8.2-.405 1.147-.99 2.07-1.963 3.098-.544.575-1.268 1.09-1.532 1.09-.047 0 .252-.43.664-.955 1.337-1.7 1.973-3.718 1.791-5.674-.168-1.796-1.557-3.973-3.753-5.888-.912-.796-1.518-1.536-1.512-1.846q.001-.024.014-.027zm-1.09 15.492c-.208-.006-.297.349-.297 1.12 0 .94.018.988.342.942.302-.042.346-.15.386-.898.032-.613-.017-.902-.181-1.04q-.146-.12-.25-.124zm-1.051.28c-.124-.003-.227.139-.328.429-.085.245-.253.481-.373.527-.322.124-.263.55.076.55.162 0 .401-.108.533-.24.441-.441.58-.824.383-1.062q-.166-.201-.291-.205zm2.072.062c-.312 0-.278.61.055 1.035.309.392.906.566.906.263 0-.252-.775-1.298-.96-1.298z"/></svg>