<svg xmlns="http://www.w3.org/2000/svg" viewBox="0 0 24 24"><path d="M12 2.664a9.3 9.3 0 0 0-6.754 2.904L.82 10.02a2.8 2.8 0 0 0 0 3.962l4.543 4.579A9.3 9.3 0 0 0 12 21.332a9.3 9.3 0 0 0 6.637-2.773l4.543-4.579a2.8 2.8 0 0 0 0-3.962l-4.426-4.45A9.3 9.3 0 0 0 12 2.664zm0 1.951a7.385 7.385 0 0 1 0 14.77 7.385 7.385 0 0 1 0-14.77zm-1.402 2.828-1.024.416.035 1.407-.443.441-1.443-.014-.41 1.024 1.035 1.01.006.632-.997 1.008.44 1.031 1.428-.002.457.454.015 1.421 1.069.448.964-1.01.635.01 1.03 1.011 1.043-.423-.043-1.409.443-.441 1.43.014.421-1.03-1.029-1-.01-.629 1-1.013-.447-1.03H14.78l-.455-.449-.039-1.437-1.008-.432-1.01.998h-.622zm1.338 3.11a1.533 1.533 0 0 1 0 3.064 1.533 1.533 0 1 1 0-3.064z"/></svg>