<svg xmlns="http://www.w3.org/2000/svg" viewBox="0 0 24 24"><path d="M12.008 0c-6.615.008-12 5.385-12 12s5.385 12 12 12a11.957 11.957 0 0 0 11.974-11.373.4.4 0 0 1 .01-.092v-1.037A11.953 11.953 0 0 0 12.008 0zm0 .87c1.94 0 3.755.485 5.344 1.355-.155-.078-1.011-.36-1.122-.36q-.19-.051-.367-.092a11 11 0 0 0-2.375-.267C7.693 1.489 2.986 6.205 2.986 12s4.715 10.512 10.51 10.512c1.248 0 2.22-.237 2.283-.252.228-.044.483-.125.535-.125a8 8 0 0 0 1.055-.36 11.24 11.24 0 0 1-5.361 1.356C5.87 23.13.878 18.138.878 12S5.87.87 12.009.87zm1.48 1.48a9.4 9.4 0 0 1 3.672.728l.35.15q.224.103.435.217c-.137-.052-.278-.095-.418-.142-.334-.105-.767-.19-.879-.217a8 8 0 0 0-.843-.117 10 10 0 0 0-.87-.041c-5.008 0-9.081 4.071-9.081 9.072s4.071 9.072 9.072 9.072c.284 0 .577-.016.861-.04.155-.01.793-.092 1.063-.169.092-.016.175-.042.267-.058.711-.178.752-.242.82-.242-.142.075-.285.151-.435.218-.287.112-.294.125-.56.225a8 8 0 0 1-.928.293c-.117.033-.235.058-.377.092-.027.01-.055.012-.082.017a4 4 0 0 1-.41.074 10 10 0 0 1-1.665.143c-5.318 0-9.65-4.332-9.65-9.65S8.17 2.35 13.488 2.35zm1.44 1.455c.259 0 .517.018.793.043.206.013.45.055.77.115l.427.094c.229.056.45.132.676.199.288.105.288.114.351.135l.034-.018c.075.025.15.06.234.102a7.8 7.8 0 0 0-1.99-.26c-3.998 0-7.401 3.111-7.752 7.092l-.026.392c0 .1-.008.2-.008.309 0 .1 0 .2.008.293 0 .093.026.12.026.418.35 3.972 3.754 7.074 7.752 7.074.685 0 1.354-.09 1.99-.258-.021 0-.106.05-.234.092-.08.02-.03.014-.108.033-.195.078-.396.14-.594.21-.365.104-.53.143-.619.157a8 8 0 0 1-1.73.202c-4.524 0-8.213-3.679-8.213-8.211a8.217 8.217 0 0 1 8.213-8.213zm1.287 1.263a6.91 6.91 0 0 1 6.906 6.522v.803c-.2 3.662-3.235 6.523-6.906 6.523 0-.004-.37.015-1.012-.084h.074c3.772 0 6.842-3.068 6.842-6.84S19.05 5.15 15.277 5.15h-.074c.335-.05.669-.082 1.012-.082zm-.938.961a5.99 5.99 0 0 1 5.98 5.979 5.99 5.99 0 0 1-6.782 5.93c3.21-.076 5.812-2.71 5.812-5.938a5.93 5.93 0 0 0-5.812-5.92 6 6 0 0 1 .802-.05zm-.91.912A5.065 5.065 0 0 1 19.426 12a5.07 5.07 0 0 1-5.059 5.059 5 5 0 0 1-1.388-.192c.113.013.229.01.343.016A4.89 4.89 0 0 0 18.205 12a4.89 4.89 0 0 0-4.883-4.883c-.117 0-.226.007-.343.016a5 5 0 0 1 1.388-.192zM13.312 7.97a4.03 4.03 0 0 1 4.024 4.023 4.03 4.03 0 0 1-4.023 4.022c-2.124 0-3.889-1.655-4.014-3.754v-.043c-.018-.164 0-.253 0-.367v-.1a4.03 4.03 0 0 1 4.014-3.781z"/></svg>