<svg xmlns="http://www.w3.org/2000/svg" viewBox="0 0 24 24"><path d="M12 5.688C5.373 5.688 0 8.514 0 12s5.373 6.313 12 6.313S24 15.486 24 12s-5.373-6.312-12-6.312zm-1.383 1.84h1.367l-.326 1.683h1.219q1.15 0 1.586.4.435.4.262 1.3l-.573 2.943h-1.388l.543-2.8q.093-.476-.069-.65-.16-.174-.685-.174H11.46l-.705 3.625H9.389zm-5.734 1.68H7.53q1.195 0 1.744.629.549.627.33 1.752a2.8 2.8 0 0 1-.304.846q-.215.383-.56.703a2.4 2.4 0 0 1-.919.55q-.505.163-1.285.165h-1.18l-.328 1.681H3.652zm10.754.002h2.648q1.195 0 1.744.627.55.626.332 1.752a2.8 2.8 0 0 1-.304.846q-.216.383-.563.703a2.44 2.44 0 0 1-.916.55q-.504.163-1.285.165h-1.182l-.326 1.681h-1.379zm-9.57.996-.516 2.648h.838q.834 0 1.242-.314t.55-1.049q.138-.706-.124-.996t-1.047-.289zm10.755 0-.515 2.648h.838q.835 0 1.242-.314t.55-1.049q.138-.706-.125-.996-.261-.29-1.046-.289z"/></svg>