<svg xmlns="http://www.w3.org/2000/svg" viewBox="0 0 24 24"><path d="M5.463 3.477C6.69 5.226 7.497 7.4 7.68 9.799a12.9 12.9 0 0 1-.672 5.254 4.3 4.3 0 0 1 2.969-1.524q.075-.006.148-.008c.08-.49.47-3.45-.977-6.68-1.068-2.385-3-3.16-3.685-3.364zm1.777.035v.002S9.646 4.58 10.566 9.06c.607 2.955.05 4.834-.402 5.771a7.35 7.35 0 0 1 4.506-1.992c.86-.065 1.695.02 2.482.232-.1-.74-.593-3.414-2.732-5.92-3.263-3.823-7.18-3.64-7.18-3.64zm14.817 9.703-17.92 3.049a2.28 2.28 0 0 1 1.535 2.254 2.3 2.3 0 0 1-.106.609c.055-.027 2.69-1.274 6.342-2.033 3.238-.673 5.723-.36 6.285-.274a6.46 6.46 0 0 1 3.864-3.605zm-6.213 4.078c-2.318 0-4.64.493-6.614 1.164-2.868.976-2.951 1.35-5.55 1.045C1.844 19.287 0 18.387 0 18.387s2.406 1.97 4.914 2.127c1.986.125 3.505-.822 5.315-1.414 2.66-.871 4.511-.972 6.253-.977 2.88-.008 7.518 1.23 7.518 1.23s-2.11-1.044-5.033-1.72a14 14 0 0 0-3.123-.34z"/></svg>