<svg xmlns="http://www.w3.org/2000/svg" viewBox="0 0 24 24"><path d="M4.344 0q.011.225.031.441c.09 1.014.307 1.908.625 2.688a8 8 0 0 0 .297.64 7 7 0 0 0 .72 1.118 6.7 6.7 0 0 0 1.346 1.279 6.8 6.8 0 0 0 2.672 1.127q.28.053.56.084a1 1 0 0 0 .003-.166 1.4 1.4 0 0 0-.024-.176c-.095-.486-.444-1.087-.906-1.707a13 13 0 0 0-.365-.467 24 24 0 0 0-1.616-1.76 32 32 0 0 0-1.41-1.326q-.005-.008.002-.013.009-.008.018 0a72 72 0 0 0 2.42 2.209c.472.452.957.934 1.4 1.402q.223.235.428.463c.272.303.517.593.719.86.2.265.358.506.455.71a6.4 6.4 0 0 0 2.424-.607 5.4 5.4 0 0 0 .82-.494 4.6 4.6 0 0 0 .988-.992q.137-.19.252-.395.23-.41.363-.88.135-.473.159-1a5 5 0 0 0-.006-.544s-.58-.086-1.35.082a4.5 4.5 0 0 0-1.035.367 4 4 0 0 0-.646.41c-.285.22-.562.493-.817.833-.446.593-.825 1.387-1.06 2.453a10 10 0 0 0-.092.474 11 11 0 0 0-.196-1.558 9 9 0 0 0-.175-.717 8 8 0 0 0-.508-1.307 6.3 6.3 0 0 0-1.154-1.61 6 6 0 0 0-.752-.634A6 6 0 0 0 8.369.93 6.7 6.7 0 0 0 6.73.283a8 8 0 0 0-.365-.086 9.5 9.5 0 0 0-1.592-.19A11 11 0 0 0 4.343 0zM12 7.682v.002a3.7 3.7 0 0 0-1.402.283 3.7 3.7 0 0 0-1.19.795L4.94 13.227a3.7 3.7 0 0 0-.859 1.355 3.3 3.3 0 0 0-.236 1.256 3.7 3.7 0 0 0 .277 1.414 3.7 3.7 0 0 0 .799 1.197l4.465 4.467a3.7 3.7 0 0 0 .662.523 3.7 3.7 0 0 0 1.588.538h.002q.14.015.281.017l-.102-.008q.089.006.178.008h-.076L12 24l-.004-.006a3.7 3.7 0 0 0 .72-.068 3.7 3.7 0 0 0 1.89-1.008l4.468-4.465a3.7 3.7 0 0 0 .46-.558 3.7 3.7 0 0 0 .339-.64 3.7 3.7 0 0 0 .207-.69l.014-.063a4 4 0 0 0 .056-.541l.002-.06c0-.018.003-.051.004-.061h-.002a4 4 0 0 0-.02-.395l-.017-.129a4 4 0 0 0-.045-.26 4 4 0 0 0-.064-.255l-.041-.125a4 4 0 0 0-.143-.367l-.056-.12-.063-.115a4 4 0 0 0-.207-.336l-.076-.107a4 4 0 0 0-.344-.399l-4.467-4.466a3.7 3.7 0 0 0-.722-.563 3.7 3.7 0 0 0-.84-.365l-.07-.02a3.4 3.4 0 0 0-.47-.1 3.4 3.4 0 0 0-.478-.032zm3.164 3.357a3.8 3.8 0 0 1-.113.945 5 5 0 0 1-.084.301c-.124.398-.292.78-.46 1.164a26 26 0 0 0-.245.576 7 7 0 0 0-.303.885 3.8 3.8 0 0 0-.123.936c.03.417.11.79.23 1.12q.12.333.29.608a3 3 0 0 0 .38.494c.629.661 1.503.957 2.366.922q-.052.006-.106.01c-.693.05-1.315-.122-1.92-.36-.403-.157-.797-.345-1.197-.511a7 7 0 0 0-.914-.32 4 4 0 0 0-.317-.073 3.6 3.6 0 0 0-.654-.062 5 5 0 0 0-.777.125q-.36.094-.664.24a3.1 3.1 0 0 0-.783.537 2.9 2.9 0 0 0-.668.963 3 3 0 0 0-.178.547 3.3 3.3 0 0 0-.076.857l-.008-.103c-.083-1.155.457-2.12.873-3.12.166-.399.313-.803.392-1.228q.061-.318.063-.654a5 5 0 0 0-.05-.42c-.112-.672-.36-1.213-.7-1.63a2.9 2.9 0 0 0-.961-.77 3.3 3.3 0 0 0-1.75-.312q.15-.018.31-.026a3.7 3.7 0 0 1 1.31.15q.31.091.612.211c.605.237 1.19.538 1.803.74q.153.051.309.092c.312.083.632.135.969.135q.39-.03.73-.113a3.5 3.5 0 0 0 .908-.356 2.95 2.95 0 0 0 1.166-1.209q.062-.119.112-.244a3.1 3.1 0 0 0 .228-1.047z"/></svg>