<svg xmlns="http://www.w3.org/2000/svg" viewBox="0 0 24 24"><path d="M11.684 9.79a2.211 2.211 0 1 0 1.843 3.43l.43-.648.201.3a1.578 1.578 0 1 0-.002-1.74l-1.154 1.74a1.579 1.579 0 1 1-.01-1.757l.207.315.38-.575-.056-.084a2.21 2.21 0 0 0-1.84-.982zm10.263.63a.475.475 0 0 0-.474.475v2.21a.474.474 0 0 0 .474.473h1.578a.474.474 0 0 0 .475-.473v-.158h-1.81a.084.084 0 0 1-.085-.084v-.547h1.42a.475.475 0 0 0 .475-.474v-.158h-1.895v-.547c0-.046.037-.084.084-.084h1.336a.475.475 0 0 0 .475-.475v-.158zm-21.472.002a.473.473 0 0 0-.475.473v2.683h.158a.474.474 0 0 0 .475-.473v-.474h1.42c.603 0 1.094-.483 1.105-1.084.012-.62-.516-1.125-1.135-1.125zm3.789 0a.473.473 0 0 0-.475.473v2.683h.158c.262 0 .475-.21.475-.473v-2.683zm4.129 0a.44.44 0 0 0-.313.129l-1.066 1.066a.095.095 0 0 1-.133 0l-1.067-1.064a.447.447 0 0 0-.761.316v2.711h.158a.474.474 0 0 0 .473-.475v-1.689c0-.037.045-.055.072-.03l.855.856a.474.474 0 0 0 .67 0l.858-.855a.042.042 0 0 1 .072.029v2.162h.156c.261 0 .475-.21.475-.473v-2.242a.44.44 0 0 0-.442-.441zm9.765 0a.475.475 0 0 0-.474.474v2.684h.158a.475.475 0 0 0 .474-.475v-.472h1.25l.455.789c.056.098.16.156.274.156h.547l-.613-1.062c.368-.183.618-.564.613-1.004-.007-.61-.525-1.091-1.135-1.09zm-17.431.63h1.326c.269 0 .485.227.472.499A.48.48 0 0 1 2.04 12H.631v-.854c0-.052.044-.093.096-.093zm14.748 0a.949.949 0 1 1-.793 1.467L14.338 12l.348-.523a.95.95 0 0 1 .789-.424zm2.935 0h1.319a.48.48 0 0 1 .482.448.476.476 0 0 1-.475.5h-1.42v-.852a.095.095 0 0 1 .094-.095z"/></svg>