<svg xmlns="http://www.w3.org/2000/svg" viewBox="0 0 24 24"><path d="M4.936 0A4.924 4.924 0 0 0 0 4.936v14.128A4.924 4.924 0 0 0 4.936 24h14.128A4.924 4.924 0 0 0 24 19.064V4.936A4.924 4.924 0 0 0 19.064 0zm7.808 4.547c2.181 0 4.06.677 5.4 1.848a6.12 6.12 0 0 1 2.116 4.66c.005 1.854-.88 3.475-2.256 4.562-1.375 1.092-3.227 1.697-5.26 1.697-2.314 0-4.459-.841-4.459-.841v2.716c.397.116 1.048.366.635.78H5.79c-.41-.41.19-.65.644-.78V7.666c-1.053.81-1.593 1.51-1.868 2.031.32 1.02-.285.969-.285.969l-1.09-1.73s3.868-4.39 9.553-4.39zm-.19.97c-1.422-.002-3.183.474-4.269 1.245v8.646c.988.487 2.484.832 4.26.832h.01c1.596 0 2.98-.593 3.93-1.533.951-.948 1.486-2.184 1.492-3.684-.005-1.54-.504-2.863-1.42-3.859-.918-.992-2.274-1.645-4.002-1.646z"/></svg>