<svg xmlns="http://www.w3.org/2000/svg" viewBox="0 0 24 24"><path d="M12 .045C6.486.045 1.853 3.765.463 8.848c.105.134.642.432.732.492.254.164.524.328.793.492a13.7 13.7 0 0 0 5.155 1.75c.314.06.643.074.957.074 0-.12-.014-.238-.014-.357a14 14 0 0 1 .072-1.766c.03-.239.045-.462.09-.701.015-.045.016-.105.031-.15v-.043c.374-2.003 1.42-3.782 3.362-4.649 2.003-.882 4.29-.523 5.545 1.36a5.22 5.22 0 0 1-.12 5.484c-1.315 2.048-3.632 3.034-6.068 3.363a44 44 0 0 0 .643 4.035 48 48 0 0 0 .882 3.51c.015.06.029.122.059.182.194.672.419 1.345.643 2.002C19.278 23.329 24 18.218 24 12.016 23.97 5.41 18.605.045 12 .045zm1.672 6.082c-1.007.024-2.021 1.001-2.434 1.84 0 0 0 .013-.015.013-.717 1.36-.524 3.541-.524 3.541a8.3 8.3 0 0 0 2.93-1.03c.329-.196.641-.434.91-.733.374-.418.615-.941.69-1.494.015-.12.029-.24.029-.344a2 2 0 0 0-.24-1.016 1.34 1.34 0 0 0-.657-.629 1.5 1.5 0 0 0-.69-.148zM0 11.82v.285c0 6.052 4.483 11.043 10.31 11.85a48.6 48.6 0 0 1-1.806-7.816c-.075-.552-.165-1.135-.24-1.748a18 18 0 0 1-2.645-.3A16 16 0 0 1 0 11.822z"/></svg>