<svg xmlns="http://www.w3.org/2000/svg" viewBox="0 0 24 24"><path d="M6.963 0a1.372 1.372 0 0 0-.045 2.742L7.6 5.328c-1.57.528-2.885 1.366-3.871 2.527-1.18 1.507-1.8 3.404-1.588 5.42.136 1.302.493 1.814.746 2.5 2.062 4.474 7.86 8.428 9.111 8.217L12 4.656c-1.315.007-2.538.157-3.65.448l-.674-2.561A1.37 1.37 0 0 0 6.963 0zM12 4.656v19.336c1.25.211 7.051-3.743 9.113-8.217.253-.686.61-1.198.746-2.5.21-2.016-.41-3.913-1.59-5.42-.986-1.163-2.305-2.003-3.88-2.53l.683-2.585a1.371 1.371 0 1 0-.76-.187l-.67 2.547c-1.11-.288-2.329-.437-3.641-.444zm-5.836 3.76q.202-.006.39.03c2.472.416 4.137 3.563 3.938 6.038.007.92-.085 1.59-.273 2.202-.167.546-.644 1.07-.918 1.103-.52.021-1.498-.12-3.045-1.467-1.944-1.643-3.096-4.367-2.59-5.789.438-1.395 1.554-2.09 2.498-2.117zm11.906 0c.945.027 2.06.722 2.496 2.117.506 1.422-.643 4.146-2.587 5.79-1.548 1.345-2.525 1.487-3.045 1.466-.274-.034-.751-.557-.92-1.103-.188-.612-.28-1.282-.274-2.2-.199-2.476 1.466-5.624 3.938-6.04q.189-.036.392-.03zM7.25 12.295a1.24 1.24 0 0 0 0 2.478 1.24 1.24 0 0 0 0-2.478zm9.691 0a1.24 1.24 0 0 0 0 2.48 1.24 1.24 0 0 0 0-2.48zm-10.109.5a.325.325 0 0 1 0 .648.325.325 0 0 1 0-.648zm10.525 0a.325.325 0 0 1 0 .648.325.325 0 0 1 0-.648z"/></svg>