<svg xmlns="http://www.w3.org/2000/svg" viewBox="0 0 24 24"><path d="M8.984 2.596v17.547l3.914 1.261V6.688c0-.69.305-1.15.795-.99.636.18.76.812.76 1.503v5.875c2.441 1.193 4.361 0 4.361-3.15 0-3.237-1.125-4.676-4.437-5.828-1.307-.448-3.729-1.186-5.39-1.502zM8.23 13.215l-5.615 2.014s-1.359.464-2.16 1.05c-.862.652-.548 1.776 1.352 2.32l.011.069c2.042.675 4.1.81 6.04.478.133-.029.268-.042.388-.072V17l-1.937.705c-.706.27-1.756.316-2.342.121-.586-.194-.467-.555.238-.826l4.025-1.473zm9.875 1.004c-.46-.004-.908.015-1.332.06-1.712.195-2.914.616-2.914.616l-.24.085v2.387l4.205-1.5c.72-.262 1.772-.315 2.358-.123.58.193.469.56-.246.819l-6.295 2.275-.022.021v2.297l8.545-3.107s1.156-.435 1.621-1.035c.464-.6.274-1.472-1.574-2.073-1.24-.473-2.725-.71-4.106-.722z"/></svg>