<svg xmlns="http://www.w3.org/2000/svg" viewBox="0 0 24 24"><path d="M10.256 3.22c-.188-.016-.345.105-.502.425-.371.754-.847 1.977-1.307 3.693-.995 3.714-1.738 11.551 4.412 13.201 6.15 1.647 9.425-5.512 10.42-9.227.46-1.714.661-3.012.717-3.85.063-.948-.589-.673-1.834-.454-.877.154-2.983.343-5.584-.354s-4.326-1.913-5.01-2.486c-.605-.508-1-.919-1.312-.947zm-2.12 3.378a11.3 11.3 0 0 1-2.41.957c-2.007.54-3.631.397-4.308.279-.96-.166-1.461-.376-1.414.354.04.643.193 1.643.545 2.962.76 2.856 3.272 8.36 8.021 7.08v-.001l.17-.05c-.55-.85-.921-1.835-1.148-2.837l-2.526.715s.292-1.69 2.268-2.422c-.195-2.371.2-4.81.633-6.428q.083-.314.17-.61zm3.696 2.351q.276.005.584.09c1.646.467 1.773 2.285 1.773 2.285l-4.386-1.246s.742-1.153 2.029-1.129zm-6.088 1.352s-.096 1.298-1.361 1.63H4.38c-1.265.334-2.01-.742-2.01-.742zm12.846.678c.184.003.38.03.586.09 1.643.467 1.771 2.285 1.771 2.285l-4.384-1.249s.74-1.152 2.027-1.126zm-8.111 2.712 7.767 2.172c0 .001-1.568 1.819-4.43.983-2.892-.847-3.337-3.155-3.337-3.155z"/></svg>