<svg xmlns="http://www.w3.org/2000/svg" viewBox="0 0 24 24"><path d="M5.154 0q-.075 0-.148.006c-.236.02-.467.103-.647.236C1.727 2.254.173 4.976.293 8.29c.12 3.195 1.674 6.27 4.066 8.045.24.118.48.238.72.238.358 0 .717-.12.956-.474.479-.592.358-1.302-.24-1.657-1.914-1.301-3.11-3.785-3.11-6.152 0-2.485 1.076-4.616 3.11-6.154.598-.355.6-1.183.24-1.656C5.84.155 5.5.009 5.155 0zM18.76.006c-.314.03-.614.177-.793.473-.36.473-.36 1.3.238 1.656 2.034 1.538 3.111 3.67 3.111 6.154 0 2.367-1.197 4.85-3.11 6.152-.6.355-.718 1.065-.24 1.657.24.355.599.474.958.474.24 0 .48-.12.719-.238 2.512-1.775 4.066-4.85 4.066-8.045.108-3.313-1.434-6.035-4.066-8.047a1.3 1.3 0 0 0-.883-.236zm-2.266 3.553a1.2 1.2 0 0 0-.83.375 1.17 1.17 0 0 0 .06 1.67c1.532 1.408 1.664 3.797-.011 5.37a1.194 1.194 0 0 0-.037 1.68 1.2 1.2 0 0 0 1.687.047c2.716-2.556 2.487-6.519-.013-8.826a1.18 1.18 0 0 0-.856-.316zm-8.992.005a1.2 1.2 0 0 0-.857.311c-2.5 2.307-2.726 6.27-.01 8.826a1.2 1.2 0 0 0 1.685-.047 1.17 1.17 0 0 0-.049-1.668c-1.674-1.573-1.53-3.965-.011-5.373.478-.45.515-1.192.06-1.666a1.15 1.15 0 0 0-.818-.383zM12 5.714a2.57 2.57 0 0 0-2.572 2.571 2.57 2.57 0 0 0 1.193 2.17L7.715 24h2.523l2.877-13.402a2.57 2.57 0 0 0 1.457-2.313A2.57 2.57 0 0 0 12 5.715z"/></svg>