<svg xmlns="http://www.w3.org/2000/svg" viewBox="0 0 24 24"><path d="M8.938 0q-.424-.004-.862.025S4.52.235 2.832 2.752c-1.58 2.351-1.465 5.143-1.1 8.12C2.095 13.83 2.588 24 2.588 24c.002.003 11.233-11.526 11.228-11.506 1.75-1.805 2.41-4.468 2.397-5.96C16.178 2.525 13.166.041 8.937 0zm-.084 3.506c1.99 0 3.64 1.51 3.64 3.525 0 2.011-1.65 3.768-3.64 3.768S5.248 9.167 5.248 7.154c0-2.015 1.616-3.648 3.606-3.648zm8.062 1.615s.348 1.141.14 2.652c-.21 1.51-.704 2.362-.704 2.362s1.185-.663 2.502-1.076c1.319-.412 3.642-.57 3.642-.57zm-6.879.356a1.58 1.58 0 0 0-1.582 1.582 1.581 1.581 0 0 0 3.162 0 1.58 1.58 0 0 0-1.58-1.582z"/></svg>