<svg xmlns="http://www.w3.org/2000/svg" viewBox="0 0 24 24"><path d="M17.16 1.387a1 1 0 0 0-.318.117L11.15 4.789a.98.98 0 0 0-.49.846v11.748l-3.99 2.303-3.992-2.303V12.77l3.992-2.3 2.633 1.52V8.895L7.158 7.658a.98.98 0 0 0-.976 0L.488 10.945a.98.98 0 0 0-.488.846v6.572a.98.98 0 0 0 .488.848l5.694 3.285a.98.98 0 0 0 .976 0l5.692-3.285a.98.98 0 0 0 .49-.846V6.617l.07-.04 3.92-2.263 3.99 2.305v4.61l-3.99 2.302-2.629-1.515v3.091l2.14 1.237a.98.98 0 0 0 .977 0v-.002h.002l5.692-3.287A.98.98 0 0 0 24 12.21V5.635a.98.98 0 0 0-.488-.846l-5.694-3.285a.98.98 0 0 0-.658-.117z"/></svg>