<svg xmlns="http://www.w3.org/2000/svg" viewBox="0 0 24 24"><path d="M11.697.004C5.873.144.864 4.516.1 10.473-.743 17.045 3.9 23.056 10.473 23.9S23.059 20.1 23.9 13.527C24.744 6.955 20.101.944 13.527.1a12 12 0 0 0-1.83-.096zm5.846 4.484a1.82 1.82 0 0 1 1.289.42l-1.61 1.613a.12.12 0 0 0 0 .168l1.249 1.249a1.82 1.82 0 0 1-2.094-.344l-.004-.002a1.822 1.822 0 0 1 1.17-3.104zm1.467.584c.66.72.636 1.832-.055 2.522a1.7 1.7 0 0 1-.271.218l-1.207-1.207zm-.051.953a.14.14 0 0 0-.104.026.14.14 0 0 0-.052.156.42.42 0 0 1-.055.45.14.14 0 0 0 .023.197.14.14 0 0 0 .084.03.14.14 0 0 0 .108-.05.69.69 0 0 0 .086-.752.14.14 0 0 0-.09-.057zm-3.625 1.25c.257.022.46.143.664.309a.86.86 0 0 0-.594.25l-4.453 4.453-.306-.307-.643-.642c3.292-3.282 4.56-4.126 5.332-4.063zm.592.545a.62.62 0 0 1 .496 1.088l-4.7 4.125-.587-.588 4.44-4.44a.62.62 0 0 1 .35-.185zm.771 1.143c-.148 1.345-2.028 3.246-3.976 5.092h-.002l-.84-.84 4.7-4.125a1 1 0 0 0 .118-.127zm-6.863 2.545.879.879-1.979.425a.074.074 0 0 1-.086-.039.07.07 0 0 1 .014-.093zm1.12 1.119.51.512-1.099.238a.06.06 0 0 1-.066-.031.06.06 0 0 1 .01-.075zm.714.713.873.875c-1.255 1.102-2.97 2.2-5.1 3.267a.23.23 0 0 0-.117.256l.203.866a.125.125 0 0 1-.21.117h-.005l-.933-.936-.293-.295 3.762-3.758zm-5.75 4.322 1.22 1.223-2.122-.147a.076.076 0 0 1-.069-.084.1.1 0 0 1 .022-.045h.002z"/></svg>