<svg xmlns="http://www.w3.org/2000/svg" viewBox="0 0 24 24"><path d="M13.217 3.41a1.3 1.3 0 0 0-.473.104c-.842.34-.687 1.066-.687 1.066.112.753.374.903.8 1.149.012 0 .017.02 0 .027-.274.228-3.036 2.495-5.586 3.379a.05.05 0 0 0 0 .092c.738.32 2.954.146 3.608-.233a.016.016 0 0 1 .023.02c-.072.273-.456 1.872.149 2.369l.033.025-.82.578a.21.21 0 0 0 .146.381l.422-.047a1.2 1.2 0 0 0 .727-.34l.146-.14 1.193.887-.158 1.26a3.1 3.098 0 0 0-1.422.978 2.46 2.46 0 0 1 1.342-.342l-.308 2.455a.21.21 0 0 0 .095.203.21.21 0 0 0 .225 0l2.088-1.328a2.462 2.46 0 0 1 .254 1.402 3.1 3.098 0 0 0 .287-1.746l.304-.195a.748.748 0 0 0 1.22-.756l1.26-.369a.205.205 0 0 0 .147-.24l-.007-.041a.21.21 0 0 0-.204-.164h-1.07a.02.02 0 0 1-.015-.01l-.323-.727.64-3.761 1.034.765a3.1 3.098 0 1 0 5.225 0l-.012.01a3.1 3.098 0 0 0-4.977-.342l-1.107-.83c.277-.113.857-.368.896-.525.022-.093-.272-.159-.726-.188l2.078-1.894a.05.05 0 0 0 .01-.055l-.53-.994a.04.04 0 0 0-.064-.012l-2.162 1.971c-.646 0-1.796.085-2.127-.123-.528-.333-.59-.821-.785-.996s-.414-.199-.461-.348a.015.015 0 0 1 .01-.017c.102-.026.67-.187.8-.58.13-.396-.134-.932-.18-1.016a.02.02 0 0 1 0-.022l.604-.527a.018.018 0 0 0-.013-.03l-.885.108a.02.02 0 0 1-.016 0 .8.8 0 0 0-.648-.29zm1.797 13.945a3.1 3.098 0 0 1-.043.254 2.462 2.46 0 0 0 .043-.254zm-.043.254a2.462 2.46 0 0 1-1.076 1.543 2.46 2.46 0 0 1-3.57-1.074 3.1 3.098 0 0 0 4.646-.469zm-4.647.47a3.1 3.098 0 0 1-.021-.061zm-.021-.061a2.46 2.46 0 0 1 .976-3.026 3.1 3.098 0 0 0-.976 3.026zm.976-3.026a3.1 3.098 0 0 1 .04-.027zm6.543-10.006a.2.2 0 0 0-.14.051l-1.754 1.647a.035.035 0 0 0 .021.058v.002l.72.041a.123.122 0 0 0 .093-.031l1.781-1.672a.032.032 0 0 0-.022-.055zm-1.457 2.881.194.362c-.338.012-.69.039-1.034.082-.247.03-.545-.287-.634-.387a.02.02 0 0 1 .015-.03v-.001zm-2.74.412a.02.02 0 0 1 .018.004c.47.55 1.467.868 1.544.887h.008l1.28-.395.287.213-1.34 1.229a.9.9 0 0 0-.52-.229c-.77-.098-1.976.078-2.195.112a.016.016 0 0 1-.006-.022h-.01c.122-.204.831-1.384.92-1.787a.02.02 0 0 1 .014-.012zm7.428 1.02a2.46 2.46 0 0 1 1.156 4.566l.004-.006a2.46 2.458 0 0 1-3.418-3.363l1.95 1.453a.21.21 0 0 0 .235.008.2.2 0 0 0 .055-.05.21.21 0 0 0-.043-.296l-1.953-1.449a2.4 2.4 0 0 1 .525-.443 2.46 2.46 0 0 1 1.489-.42zm-4.256.248-.49 2.875-.58-1.315a.01.01 0 0 1 0-.01 1.3 1.3 0 0 0-.065-.517zm-2.748 1.924-.963.883-.977-.727a11.265 11.258 0 0 0 1.94-.156zm.586.043-.574 1.568-.627-.469zm-9.002.642.342 1.35-1.108.738 1.35.145.396 1.336.492-1.26 1.352.086-1.045-.924.442-1.283-1.141.691zm9.678.348a.02.02 0 0 1 .015.01l.752 1.18-.076.413a.8.8 0 0 0-.248.075l-.916-.702a.02.02 0 0 1 0-.017l.459-.95a.02.02 0 0 1 .014-.01zm-2.03.508.645.478-.078.211a.286.286 0 0 0 .172.37l1.34.488.04.029a.753.752 0 0 0-.02.473l-.294.193a3.09 3.088 0 0 0-1.918-1.219zm-12.513.47.341 1.35-1.109.74 1.35.143.396 1.338.492-1.264 1.352.088-1.045-.924.44-1.283-1.137.691zm12.306 1.192a2.46 2.458 0 0 1 1.465.924l-1.717 1.091zM4.307 17.02l.341 1.35-1.109.74 1.352.144.394 1.338.492-1.264 1.354.086-1.045-.924.44-1.283-1.14.693z"/></svg>