<svg xmlns="http://www.w3.org/2000/svg" viewBox="0 0 24 24"><path d="M6.805.53C3.21.53.252 3.488.252 7.083a6.56 6.56 0 0 0 .934 3.371l1.544 2.572a4.38 4.38 0 0 1 0 4.498L.154 21.816a1.1 1.1 0 0 0-.154.561 1.1 1.1 0 0 0 1.092 1.094h6.486a1.59 1.59 0 0 1-.205-1.912l2.574-4.291a3.87 3.87 0 0 0 0-3.983l-2.574-4.29c-.637-1.062.128-2.411 1.367-2.411h5.645a1.59 1.59 0 0 1 1.365.773l.072.12.39-.65a.5.5 0 0 1 .43-.243h.301l2.639-4.4a1.093 1.093 0 0 0-.937-1.655zm1.933 6.554a1.092 1.092 0 0 0-.935 1.654l2.574 4.29a4.38 4.38 0 0 1 0 4.495l-2.574 4.293a1.1 1.1 0 0 0-.157.563 1.097 1.097 0 0 0 1.092 1.092h5.647c.383 0 .738-.203.935-.532l2.575-4.29a6.56 6.56 0 0 0 0-6.745l-2.575-4.29a1.09 1.09 0 0 0-.935-.53zm7.905 0-.53.879 2.211 3.683a7.06 7.06 0 0 1 0 7.26l-2.21 3.686.208.347c.198.33.554.532.938.532h5.646a1.097 1.097 0 0 0 .938-1.655l-2.576-4.293-.036-.058-.025-.043a4.4 4.4 0 0 1-.281-.604l-.014-.035-.025-.076q-.034-.093-.063-.187l-.004-.016-.008-.03-.023-.083-.008-.03-.008-.035-.007-.025a4 4 0 0 1-.041-.19l-.002-.015a4.38 4.38 0 0 1 .406-2.82l.01-.018.017-.033.012-.022.023-.045.02-.031.037-.066.02-.034 2.576-4.289a1.093 1.093 0 0 0-.938-1.654z"/></svg>