<svg xmlns="http://www.w3.org/2000/svg" viewBox="0 0 24 24"><path d="M12 0 1.607 6v12L12 24l10.393-6V6zm5.488 5.326a3.7 3.7 0 0 1 .807.07c.235.048.471.126.695.252a1.78 1.78 0 0 1 .81.94v.002c.086.228.125.461.132.687.01.27-.022.534-.075.784a5.3 5.3 0 0 1-.283.906 8.4 8.4 0 0 1-.537 1.076c-.263.448-.556.872-.867 1.281q-.268.348-.553.68c.092.108.191.213.281.324.341.425.665.866.96 1.332.224.36.433.734.61 1.127a6 6 0 0 1 .337.924c.067.255.116.522.127.799a2.4 2.4 0 0 1-.078.736 1.78 1.78 0 0 1-.717 1.014c-.2.138-.417.232-.635.295a3.3 3.3 0 0 1-.777.117 5.3 5.3 0 0 1-.95-.057c-.4-.058-.791-.15-1.171-.261a13 13 0 0 1-1.456-.53 18 18 0 0 1-1.785-.898 22 22 0 0 1-.367-.213c-.564.337-1.141.652-1.74.93a14 14 0 0 1-1.527.609 9 9 0 0 1-1.24.32 6 6 0 0 1-.977.104 3.7 3.7 0 0 1-.807-.07 2.4 2.4 0 0 1-.695-.254 1.78 1.78 0 0 1-.81-.94v-.002a2.2 2.2 0 0 1-.132-.687 3.2 3.2 0 0 1 .075-.782 5.3 5.3 0 0 1 .283-.908 8.4 8.4 0 0 1 .537-1.076c.263-.448.556-.873.867-1.281q.267-.348.553-.68c-.082-.096-.168-.187-.248-.285a14 14 0 0 1-.967-1.334 10 10 0 0 1-.621-1.129 6 6 0 0 1-.352-.959 3.7 3.7 0 0 1-.127-.799c-.01-.24.01-.49.078-.736a1.77 1.77 0 0 1 .717-1.014 2.2 2.2 0 0 1 .635-.295 3.3 3.3 0 0 1 .777-.117c.324-.013.64.013.95.057.4.058.791.15 1.171.261.5.146.984.329 1.456.532a18 18 0 0 1 2.152 1.111c.55-.328 1.112-.638 1.695-.91a14 14 0 0 1 1.53-.615 10 10 0 0 1 1.246-.33 6 6 0 0 1 1.013-.108zm.01.75c-.292.004-.589.04-.887.096a9 9 0 0 0-1.144.303c-.492.163-.975.362-1.45.584-.626.293-1.236.627-1.83.99q-1.104.68-2.128 1.482l-.463-.59a24 24 0 0 1 1.693-1.2 17 17 0 0 0-1.734-.876 12 12 0 0 0-1.37-.5 8 8 0 0 0-1.068-.238 4.6 4.6 0 0 0-.812-.049c-.21.008-.413.035-.6.09a1.5 1.5 0 0 0-.42.19 1 1 0 0 0-.26.255q-.106.152-.158.34a1.7 1.7 0 0 0-.049.508c.008.209.045.422.102.637.075.283.183.563.309.838.163.357.356.7.57 1.039.278.436.587.857.916 1.263.055.067.115.13.17.196.083-.09.163-.185.248-.274q.158-.166.32-.328l.53.53q-.156.155-.31.318c-.1.106-.195.216-.294.324q.36.395.74.77a23 23 0 0 0 1.955 1.708l-.46.59a24 24 0 0 1-2.02-1.763q-.365-.361-.713-.739a12 12 0 0 0-1.272 1.768 8 8 0 0 0-.49.978q-.16.386-.244.778a2.5 2.5 0 0 0-.059.601c.006.161.033.316.084.453.043.116.107.226.186.317.08.092.18.17.291.232q.214.119.478.172.309.062.643.057c.282-.004.568-.038.854-.09a9 9 0 0 0 1.142-.297c.49-.16.97-.357 1.444-.576a19 19 0 0 0 1.828-.983 23 23 0 0 0 2.168-1.505l.015-.014.463.59-.017.015a24 24 0 0 1-1.688 1.194l.025.015a18 18 0 0 0 1.711.86c.45.193.906.363 1.37.5.353.104.71.187 1.068.238.276.04.546.06.812.05a2.6 2.6 0 0 0 .602-.091c.154-.045.297-.106.418-.19q.156-.107.26-.255.106-.152.158-.338c.043-.157.057-.332.049-.51a3 3 0 0 0-.102-.637 5 5 0 0 0-.293-.804 9 9 0 0 0-.564-1.037 13 13 0 0 0-.909-1.262c-.062-.08-.134-.153-.199-.23-.084.09-.163.183-.248.27q-.154.163-.312.321l-.53-.53q.152-.151.301-.308c.102-.106.196-.218.295-.326q-.34-.375-.701-.73a23 23 0 0 0-1.984-1.74l-.02-.014.463-.592.018.014a24 24 0 0 1 2.048 1.796q.345.344.674.702c.155-.185.31-.372.455-.563q.447-.582.817-1.207a8 8 0 0 0 .49-.976 4.6 4.6 0 0 0 .244-.78 2.5 2.5 0 0 0 .059-.601 1.5 1.5 0 0 0-.084-.453 1 1 0 0 0-.186-.315 1.1 1.1 0 0 0-.29-.234 1.7 1.7 0 0 0-.48-.172 3 3 0 0 0-.644-.055zM12 10.406A1.594 1.594 0 0 1 13.594 12 1.594 1.594 0 0 1 12 13.594 1.594 1.594 0 0 1 10.406 12 1.594 1.594 0 0 1 12 10.406z"/></svg>