<svg xmlns="http://www.w3.org/2000/svg" viewBox="0 0 24 24"><path d="M4.887 8.316a.4.4 0 0 0-.278.096.34.34 0 0 0-.105.262.34.34 0 0 0 .105.262.4.4 0 0 0 .278.095.4.4 0 0 0 .277-.095.34.34 0 0 0 .106-.262.34.34 0 0 0-.106-.262.4.4 0 0 0-.277-.096zm10.924 0a.4.4 0 0 0-.278.096.34.34 0 0 0-.105.262.34.34 0 0 0 .105.26.4.4 0 0 0 .278.097.4.4 0 0 0 .277-.097.33.33 0 0 0 .103-.26.34.34 0 0 0-.103-.262.4.4 0 0 0-.277-.096zm2.478.028q-.06 0-.086.023-.026.026-.027.09v1.072a.98.98 0 0 0-.621-.205.86.86 0 0 0-.71.34q-.267.341-.269.91a1.6 1.6 0 0 0 .117.631.97.97 0 0 0 .334.426.87.87 0 0 0 .512.152.96.96 0 0 0 .668-.256l.027.106a.14.14 0 0 0 .043.078.14.14 0 0 0 .084.023h.366q.062 0 .087-.029.026-.026.026-.086V8.457q0-.064-.026-.09-.025-.024-.087-.023zm-16.96.98a1 1 0 0 0-.397.078 1 1 0 0 0-.33.211L.57 9.494q-.022-.1-.127-.101h-.33q-.059 0-.086.025T0 9.508l.002 3.056q0 .064.027.09t.086.026h.436q.065-.001.09-.026.025-.026.025-.09v-1.001a.9.9 0 0 0 .287.164q.167.059.356.058a.85.85 0 0 0 .502-.152 1.04 1.04 0 0 0 .347-.438q.127-.285.127-.666 0-.554-.258-.879a.85.85 0 0 0-.699-.326zm5.898 0q-.205 0-.4.067t-.436.226l-.036-.123q-.024-.1-.128-.101h-.329q-.058 0-.085.025t-.028.09v2.113q0 .06.027.086.027.028.086.027h.438q.065 0 .09-.027t.023-.086v-1.66q.247-.124.502-.123.279 0 .28.312v1.471q0 .06.027.086.027.028.086.027h.437q.065 0 .09-.027t.025-.086V9.957q.25-.12.497-.12.279 0 .279.313v1.471q0 .06.027.086.027.028.086.027h.438q.064 0 .09-.027t.025-.086v-1.617q0-.32-.176-.5t-.494-.18q-.22 0-.426.069-.206.068-.437.224-.169-.293-.578-.293zm3.666 0q-.553 0-.864.34-.308.338-.308.936 0 .582.302.892.304.314.87.313a2 2 0 0 0 .707-.13.17.17 0 0 0 .08-.052q.02-.03.02-.103v-.211q0-.105-.079-.106l-.021.002a3 3 0 0 1-.364.078 2 2 0 0 1-.248.018q-.319 0-.476-.133-.158-.134-.186-.44a1.8 1.8 0 0 0 .451.05q.502 0 .76-.178a.59.59 0 0 0 .26-.52.69.69 0 0 0-.24-.55q-.24-.207-.664-.206zm11.959 0q-.54 0-.846.326-.305.33-.305.91 0 .588.305.915t.846.328q.54 0 .843-.328.305-.328.305-.914 0-.582-.305-.91-.304-.328-.843-.327zm-2.395.022q-.537 0-.84.332-.303.333-.303.918 0 .569.297.875.295.306.846.306a1.9 1.9 0 0 0 .69-.127.2.2 0 0 0 .078-.05q.02-.03.02-.102v-.207q0-.103-.075-.104l-.024.002a3 3 0 0 1-.353.077 2 2 0 0 1-.242.015q-.311 0-.465-.129-.153-.13-.18-.431.186.05.44.049h.002q.488 0 .74-.172.25-.172.25-.51a.68.68 0 0 0-.234-.54q-.233-.202-.647-.202zm-16.406.023a.7.7 0 0 0-.346.086 1.3 1.3 0 0 0-.344.285l-.058-.248q-.025-.1-.13-.1h-.327q-.06 0-.086.026-.028.026-.03.09v2.113q.001.06.03.086.026.028.086.03h.437q.064-.002.088-.03.025-.027.025-.086v-1.54q.105-.046.256-.075a1.4 1.4 0 0 1 .383-.026l.082.004q.065 0 .09-.027.025-.028.025-.088v-.385q0-.064-.027-.09-.028-.024-.092-.025zm.617.024q-.059 0-.088.025-.025.026-.025.09v2.113q-.001.06.025.086.029.028.088.03h.437q.065-.002.09-.03.026-.027.026-.086V9.508q0-.064-.026-.09t-.09-.025zm8.24 0q-.09 0-.09.07a.2.2 0 0 0 .008.049l.024.062.777 2.041a.3.3 0 0 0 .037.07.1.1 0 0 0 .05.038.2.2 0 0 0 .075.011l.397-.002a.2.2 0 0 0 .078-.01.1.1 0 0 0 .047-.036.3.3 0 0 0 .039-.07l.777-2.04.021-.064a.2.2 0 0 0 .008-.051q0-.069-.09-.068h-.439q-.073 0-.107.027a.2.2 0 0 0-.053.092l-.477 1.623-.469-1.623q-.017-.065-.05-.092-.035-.027-.108-.027zm2.684 0q-.06 0-.086.025-.027.026-.027.09v2.111q0 .06.027.086.026.028.086.03h.435q.065 0 .09-.03.024-.026.024-.086V9.508q0-.065-.024-.09-.026-.025-.09-.025zm-4.75.394q.342 0 .342.29 0 .146-.106.218-.104.07-.336.07-.223 0-.406-.037.069-.54.506-.54zm9.566.012q.334-.001.334.283 0 .145-.101.215-.105.069-.33.068a2 2 0 0 1-.397-.035q.067-.53.494-.53zm-19.295.03q.26 0 .38.175.116.173.116.555 0 .374-.12.548t-.376.174a.83.83 0 0 1-.447-.123V9.951a.87.87 0 0 1 .447-.123zm16.614 0a.87.87 0 0 1 .449.112v1.211a.76.76 0 0 1-.418.127q-.258 0-.385-.177-.124-.179-.123-.545-.002-.367.117-.55.118-.18.36-.179zm5.125.009q.476 0 .476.723 0 .728-.476.728-.477 0-.479-.728 0-.724.479-.723zm-5.456 2.93c-.446 0-.983.102-1.388.408q-.075.057-.08.113v.024c.005.04.043.068.111.06.442-.057 1.427-.183 1.602.059.176.24-.196 1.235-.362 1.677-.05.134.058.188.17.086.736-.66.926-2.044.776-2.244-.072-.095-.41-.183-.829-.183zm-11.466.144a.105.105 0 0 0-.108.092v.037a.17.17 0 0 0 .055.098c1.634 1.59 3.794 2.547 6.191 2.547 1.711 0 3.7-.58 5.07-1.67.227-.182.031-.451-.2-.346a11.55 11.55 0 0 1-4.725 1.043 11.8 11.8 0 0 1-6.195-1.774.2.2 0 0 0-.088-.027z"/></svg>