<svg xmlns="http://www.w3.org/2000/svg" viewBox="0 0 24 24"><path d="M9.986 4.49q-.35 0-.56.194a.68.68 0 0 0-.213.525q0 .332.213.525.211.195.56.194.35 0 .563-.194a.68.68 0 0 0 .213-.525.68.68 0 0 0-.213-.525q-.213-.194-.563-.194zM2.795 6.518a2.1 2.1 0 0 0-.797.156 2 2 0 0 0-.668.424l-.064-.24q-.047-.203-.258-.202H.344q-.12-.001-.174.05-.056.051-.057.18v6.145q0 .13.057.182.055.05.174.049h.885q.128 0 .18-.05c.032-.033.05-.096.05-.18v-2.018a1.7 1.7 0 0 0 .58.332q.342.12.719.119a1.73 1.73 0 0 0 1.013-.309q.443-.309.702-.879.257-.57.257-1.336 0-1.114-.521-1.77-.52-.653-1.414-.653zm11.918 0q-.415-.002-.807.132a4 4 0 0 0-.88.457l-.075-.25q-.046-.201-.258-.2h-.662q-.12-.002-.176.048-.054.052-.054.182v4.248q0 .119.054.174.056.055.176.054h.883q.13 0 .182-.054.05-.055.05-.174V7.799q.496-.25 1.012-.25.563 0 .563.627v2.959q0 .119.054.174.056.055.176.054h.885q.129 0 .18-.054.05-.055.05-.174V7.789a2.3 2.3 0 0 1 1.004-.24q.562 0 .563.627v2.959q0 .119.055.174t.175.054h.885q.129 0 .18-.054.05-.055.05-.174V7.88q0-.645-.355-1.004-.355-.36-1-.36-.442 0-.855.137a3.8 3.8 0 0 0-.885.453q-.34-.59-1.17-.59zm7.463 0q-1.115 0-1.742.681t-.627 1.88q0 1.17.613 1.798.614.625 1.756.625a4 4 0 0 0 1.428-.258.34.34 0 0 0 .162-.105q.04-.06.04-.207v-.424q0-.213-.156-.213l-.046.004a6 6 0 0 1-.733.156q-.243.033-.502.033-.644 0-.963-.267t-.373-.883q.387.1.912.1 1.013 0 1.535-.356.52-.354.52-1.045t-.484-1.105q-.482-.415-1.34-.414zm-13.881.091a1.5 1.5 0 0 0-.695.17q-.327.17-.696.576l-.12-.498q-.048-.201-.259-.2h-.662q-.12-.002-.176.048-.053.052-.054.182v4.248q0 .119.054.174.056.055.176.054h.883q.13 0 .182-.054.05-.055.05-.174V8.037q.212-.091.514-.152.306-.06.518-.06a3 3 0 0 1 .258.009 2 2 0 0 0 .166.01q.128 0 .18-.055.05-.056.05-.176V6.84q0-.129-.057-.18-.054-.05-.181-.05zm1.25.047q-.12-.001-.176.05t-.055.18v4.247q0 .12.055.176.056.054.176.054h.885q.128 0 .18-.054.048-.056.048-.176V6.887q.001-.13-.049-.182-.05-.05-.18-.049zm12.53.791q.69 0 .69.58 0 .296-.212.44-.211.142-.682.142-.45 0-.82-.074.139-1.088 1.023-1.088zM2.36 7.531q.526 0 .766.35t.24 1.115q0 .755-.246 1.106-.244.35-.76.35-.498 0-.902-.249V7.78a1.76 1.76 0 0 1 .902-.248zm19.875 6.574c-.84.012-1.832.199-2.584.727-.23.163-.19.388.067.357.846-.1 2.728-.325 3.066.104.337.43-.372 2.202-.69 2.994-.095.24.112.336.329.156 1.409-1.18 1.772-3.65 1.484-4.007-.143-.177-.832-.342-1.672-.33zM.174 14.58c-.175.023-.253.236-.069.402C3.238 17.81 7.38 19.51 11.977 19.51c3.28 0 7.09-1.03 9.716-2.97.435-.322.063-.802-.38-.614a23.6 23.6 0 0 1-9.061 1.853c-4.317 0-8.495-1.183-11.875-3.15a.32.32 0 0 0-.203-.049z"/></svg>