<svg xmlns="http://www.w3.org/2000/svg" viewBox="0 0 24 24"><path d="M7.7 0C5.031 0 4.065.279 3.09.8A5.45 5.45 0 0 0 .824 3.07C.302 4.047.025 5.016.025 7.691v.998c0 .2.077.389.217.53l1.772 1.773a.15.15 0 0 0 .256-.105V8.02c0-2.006.207-2.733.6-3.467A4.1 4.1 0 0 1 4.567 2.85c.731-.392 1.457-.6 3.46-.6h2.163c.2 0 .39-.08.53-.22L12.49.257A.15.15 0 0 0 12.386 0zm7.605 0c-.2 0-.392.08-.532.22l-1.77 1.774a.15.15 0 0 0-.042.106c0 .083.066.148.148.148h2.864c2.002 0 2.727.21 3.459.602a4.1 4.1 0 0 1 1.699 1.703c.39.734.598 1.46.598 3.467v2.17a.75.75 0 0 0 .218.529l1.77 1.773a.15.15 0 0 0 .258-.105V7.69c0-2.675-.28-3.645-.801-4.623A5.45 5.45 0 0 0 20.91.801C19.935.278 18.97 0 16.3 0zm1.933 3.748-5.675.002c-.2 0-.39.08-.53.22L9.26 5.745A.151.151 0 0 0 9.365 6h7.125q.28.002.528.098c.2.072.386.186.546.345l2.413 2.315a.15.15 0 0 0 .255-.11v-1.9a2.995 2.995 0 0 0-2.994-3zM6.762 3.75a2.995 2.995 0 0 0-2.994 2.998v5.691a.75.75 0 0 0 .218.53l1.772 1.775a.149.149 0 0 0 .254-.105V7.498a1.5 1.5 0 0 1 .097-.53q.108-.302.348-.544l2.309-2.42a.15.15 0 0 0-.112-.254zm11.375 5.463a.15.15 0 0 0-.15.15v7.139a1.5 1.5 0 0 1-.096.53 1.5 1.5 0 0 1-.348.546l-2.309 2.42a.15.15 0 0 0 .11.256h1.894a2.997 2.997 0 0 0 2.994-3.002v-5.691a.75.75 0 0 0-.218-.53l-1.772-1.773a.15.15 0 0 0-.105-.045zM.176 11.463a.15.15 0 0 0-.15.15v4.696c0 2.674.278 3.645.8 4.623a5.44 5.44 0 0 0 2.264 2.265c.976.523 1.942.803 4.61.803h.994c.2 0 .39-.08.53-.22l1.771-1.774a.149.149 0 0 0-.105-.256H8.027c-2.002 0-2.729-.208-3.46-.6a4.1 4.1 0 0 1-1.698-1.703c-.39-.734-.6-1.46-.6-3.467v-2.17a.75.75 0 0 0-.218-.528L.28 11.508a.15.15 0 0 0-.105-.045zm21.703 1.5a.15.15 0 0 0-.15.15v2.867c0 2.006-.208 2.733-.6 3.467a4.1 4.1 0 0 1-1.697 1.703c-.731.392-1.457.6-3.46.6H13.81a.75.75 0 0 0-.534.22l-1.767 1.772a.15.15 0 0 0-.043.108c0 .083.063.15.146.15h4.69c2.67 0 3.635-.28 4.611-.803a5.44 5.44 0 0 0 2.264-2.265c.522-.978.799-1.948.799-4.623v-.998a.75.75 0 0 0-.22-.53l-1.769-1.773a.15.15 0 0 0-.105-.045zM3.918 15.2a.15.15 0 0 0-.15.15v1.897a2.997 2.997 0 0 0 2.994 3.002h5.676c.2 0 .389-.08.529-.22l1.773-1.774a.15.15 0 0 0 .043-.106.15.15 0 0 0-.148-.148H7.51a1.5 1.5 0 0 1-.53-.1 1.5 1.5 0 0 1-.546-.345L4.02 15.242a.15.15 0 0 0-.101-.04z"/></svg>