<svg xmlns="http://www.w3.org/2000/svg" viewBox="0 0 24 24"><path d="M12.094 4.637c-2.067 0-3.682.204-4.922.57l.092-.084c.037-.037-.051-.062-.229-.068-.533-.018-1.867.143-2.99.705C2.772 6.359-.073 9.504.002 9.69c.075.188 1.46 1.346 1.871 1.795.262.3 1.048 2.96 1.76 2.51.189-.13.265-.65.33-1.293.058.498.115 1.013.193 1.48.113.75 1.087 1.348 1.2 2.06.139 1.013.76 1.722 1.98 2.173.485.668 1.238.33 1.8.635.9.486 1.91.262 2.92.262s1.985.185 2.92-.301c.577-.3 1.32.03 1.81-.58 1.225-.45 1.831-1.164 1.972-2.19.112-.711 1.048-1.31 1.16-2.058.063-.38.11-.802.158-1.204.057.5.13.905.291 1.016.674.45 1.498-2.21 1.76-2.51.412-.449 1.796-1.607 1.871-1.795s-2.807-3.332-4.08-3.931c-1.123-.562-2.457-.723-2.99-.705-.167.005-.246.028-.225.062-1.175-.308-2.673-.48-4.61-.48zm.029.5c2.204 0 3.848.225 5.01.615.133.045.239.098.36.146.69.715 1.622 1.831 2.013 3.118.024.08.04.165.062.248v.007c.046.77.316 1.417.23 1.99-.153.999-.228 1.973-.372 2.84l-.002.004v.004c-.03.193-.218.477-.479.807-.26.33-.595.702-.681 1.248v.006l-.002.004c-.1.733-.42 1.2-1.17 1.582.125-.445.205-1.055.205-1.963.037-1.123.076-1.572-.86-2.695a5.53 5.53 0 0 0-2.792-1.899c-.112-.39-.722-.836-1.551-.836s-1.415.422-1.535.82a5.53 5.53 0 0 0-2.846 1.915c-.936 1.123-.86 1.61-.86 2.695 0 .904.08 1.513.204 1.96-.77-.384-1.108-.856-1.207-1.58v-.009c-.088-.554-.437-.923-.707-1.254s-.463-.616-.49-.8l-.003-.005v-.003c-.144-.867-.22-1.84-.373-2.838v-.002c-.085-.574.184-1.22.229-1.99v.015c.013-.144.017-.241.025-.371.36-1.159 1.153-2.172 1.805-2.875a6 6 0 0 1 .725-.289c1.192-.392 2.859-.615 5.062-.615zM6.914 8.94a1.647 1.647 0 0 0-1.634 1.65 1.647 1.647 0 0 0 1.649 1.646 1.7 1.7 0 0 0 .441-.06q.523-.563 1.111-1.041a1.7 1.7 0 0 0 .094-.545 1.647 1.647 0 0 0-1.647-1.65zm10.297 0a1.647 1.647 0 0 0-1.637 1.649 1.65 1.65 0 0 0 .15.683q.47.397.895.848a1.7 1.7 0 0 0 .604.115 1.647 1.647 0 0 0 1.646-1.646 1.647 1.647 0 0 0-1.646-1.649zm-9.871.487a.41.41 0 0 1 .41.412.41.41 0 0 1-.41.412.41.41 0 0 1-.412-.412.41.41 0 0 1 .412-.412zm9.47 0a.41.41 0 0 1 .413.412.41.41 0 0 1-.412.412.41.41 0 0 1-.413-.412.41.41 0 0 1 .413-.412zm-5.109 1.486a.15.3 17.23 0 1 .03.004.15.3 17.23 0 1 .054.33.15.3 17.23 0 1-.232.242.15.3 17.23 0 1-.053-.33.15.3 17.23 0 1 .201-.246zm.672.022a.3.15 75.54 0 1 .205.253.3.15 75.54 0 1-.07.329.3.15 75.54 0 1-.22-.252.3.15 75.54 0 1 .07-.328.3.15 75.54 0 1 .015-.002zm-.316.476s.035.226.185.3c.15.076.862-.15.862-.15-.337.263-.973.263-.973.338v.373c0 .408.026 1.462-.031 1.686.823.004 2.09 1.125 2.09 2.508v.074c-.038-1.348-1.61-2.434-2.096-2.434-.487 0-2.06 1.049-2.098 2.434v-.074c0-1.363 1.233-2.47 2.057-2.506-.07-.552-.073-1.137-.073-1.688V11.9a5 5 0 0 0-.656-.236c.185.033.371.049.545.049.15-.075.188-.3.188-.3zM9.016 12.76h.007a.15.15 0 0 1 .15.15.15.15 0 0 1-.15.15.15.15 0 0 1-.15-.15.15.15 0 0 1 .143-.15zm1.123 0h.007a.15.15 0 0 1 .15.15.15.15 0 0 1-.15.15.15.15 0 0 1-.15-.15.15.15 0 0 1 .143-.15zm3.67 0h.007a.15.15 0 0 1 .15.15.15.15 0 0 1-.15.15.15.15 0 0 1-.15-.15.15.15 0 0 1 .143-.15zm1.123 0h.007a.15.15 0 0 1 .15.15.15.15 0 0 1-.15.15.15.15 0 0 1-.15-.15.15.15 0 0 1 .143-.15zm-5.653.898h.008a.15.15 0 0 1 .149.15.15.15 0 0 1-.149.151.15.15 0 0 1-.15-.15.15.15 0 0 1 .142-.15zm5.39 0h.007a.15.15 0 0 1 .15.15.15.15 0 0 1-.15.151.15.15 0 0 1-.149-.15.15.15 0 0 1 .143-.15z"/></svg>