<svg xmlns="http://www.w3.org/2000/svg" viewBox="0 0 24 24"><path d="M12 0A12 12 0 0 0 0 12a12 12 0 0 0 12 12 12 12 0 0 0 12-12A12 12 0 0 0 12 0zm0 1.688A10.31 10.31 0 0 1 22.313 12 10.31 10.31 0 0 1 12 22.313 10.31 10.31 0 0 1 1.688 12 10.31 10.31 0 0 1 12 1.688zM7.258 6.92a.659.772 0 0 0-.658.771v8.645a.603.603 0 0 0 .601.602h1.735a.603.603 0 0 0 .601-.602V7.69a.659.772 0 0 0-.656-.771zm6.94.002q-1.463.007-2.868.002c-.28 0-.473.253-.533.498a1.7 1.7 0 0 0-.043.404q.007 4.281.008 8.47c0 .398.209.643.588.642q1.503-.006 2.894 0c.058 0 .13.021.178.019q1.236-.027 2.182-.697c2.02-1.43 2.554-4.265 1.662-6.47-.574-1.418-1.745-2.572-3.272-2.82a5 5 0 0 0-.797-.048z"/></svg>