<svg xmlns="http://www.w3.org/2000/svg" viewBox="0 0 24 24"><path d="M0 0v24h24V0zm16.111 3c1.89 0 3 .612 3.944 1.557l-1.389 1.609c-.778-.722-1.557-1.111-2.557-1.111-1.658 0-2.872 1.375-2.886 3.084.014 1.709 1.173 3.084 2.886 3.084 1.111 0 1.835-.446 2.612-1.168l1.388 1.388c-.999 1.112-2.164 1.78-4.052 1.78-2.944.055-5.112-2.223-5.112-5.057C10.945 5.333 13.056 3 16.111 3zm-13.888.168h4c2.389 0 3.834 1.387 3.834 3.443v.057c0 2.278-1.78 3.5-4.002 3.5H4.389v2.943H2.223zm2.166 1.943v3.055H6.11c1.111 0 1.721-.666 1.721-1.5v-.055c0-1-.666-1.5-1.777-1.5zM2.277 19.5h9V21h-9z"/></svg>