<svg xmlns="http://www.w3.org/2000/svg" viewBox="0 0 24 24"><path d="m11.91 0-.84.02-.77.04-.71.06-.64.1-.58.12-.51.15-.44.18-.38.2-.31.23-.25.26-.17.28-.11.31-.05.34.02.37.01 2.75h5.84v.83H3.86l-.06-.01h-.16l-.24.01-.32.05-.36.1-.4.16-.42.24-.42.33-.4.44-.36.57-.32.71-.24.87L0 10.75l-.06 1.22.05 1.23.14 1.05.21.88.28.73.32.59.35.46.36.36.36.26.35.18.32.12.28.07.21.03H5.4v-3.06l.02-.21.04-.27.07-.32.1-.35.15-.37.2-.36.27-.35.33-.32.41-.27.5-.22.59-.14.69-.05h5.97l.21-.02.26-.04.3-.07.33-.1.35-.14.35-.19.33-.25.3-.31.26-.38.21-.46.13-.55.05-.63V3.16l.01-.13-.02-.2-.04-.26-.1-.3-.16-.33-.25-.34-.34-.34-.45-.32-.59-.3-.73-.26-.9-.2-1.07-.13zM8.69 1.85l.41.09.33.22.23.33.08.41-.08.41-.23.34-.33.22-.41.09-.41-.09-.33-.22-.23-.34-.08-.41.08-.41.23-.33.33-.22zm9.91 4.22v3.06l-.02.21-.04.28-.07.32-.1.35-.15.36-.2.36-.27.35-.33.32-.41.28-.5.21-.59.14-.69.05H9.39l-.13.01-.21.02-.26.04-.3.06-.33.1-.35.14-.35.2-.33.24-.3.32-.26.38-.21.46-.13.54-.05.64v5.34l-.01.13.02.2.04.25.1.3.16.33.25.34.34.34.45.33.59.3.73.25.9.2 1.07.14 1.27.04.84-.01.77-.04.71-.07.64-.09.58-.13.51-.15.44-.17.38-.2.31-.24.25-.25.17-.29.11-.31.05-.34-.02-.36-.01-2.76h-5.84v-.82h8.22l.16.01.24-.02.32-.05.36-.09.4-.16.42-.24.42-.33.4-.45.36-.57.32-.71.24-.86.16-1.04.06-1.23-.05-1.23-.14-1.04-.21-.88-.28-.73-.32-.59-.35-.47-.36-.35-.36-.27-.35-.18-.32-.12-.28-.06-.21-.03-.14-.01zm-3.29 13.98.41.08.33.23.23.33.08.41-.08.41-.23.33-.33.23-.41.08-.41-.08-.33-.23-.23-.33-.08-.41.08-.41.23-.33.33-.23z"/></svg>