<svg xmlns="http://www.w3.org/2000/svg" viewBox="0 0 24 24"><path d="M12.004.064C5.377.064 0 5.407 0 12s5.377 11.936 12.004 11.936c2.169 0 4.198-.57 5.953-1.57l.625 1.57h4.842l-1.895-4.678A11.85 11.85 0 0 0 24 12C24 5.407 18.63.064 12.004.064zM8.818 2.03c.398.34.324.2.86.135.61-.397.892.942 1.146.195.748.097 1.542.34 2.25.584a3.45 3.45 0 0 1 1.86 1.127l-.014.008.35.463q.066.121.12.248c.143 1.205 1.48 1.19 2.378 1.625.767.272 1.69.686 1.785 1.611-.193-.042-.943-.921-1.532-1.007a4 4 0 0 1-1.093-.254l-2.069-.383v-.008a3 3 0 0 1-.308-.053v.012l-2.928-.361c.048.033.1.078.148.12l3 .585V6.67l.21.053.84.187c.165.016.332.043.468.067.856.236 1.87.195 2.572.793-.184.352-1.21.152-1.718.107-.062-.012-.133-.022-.196-.033l-.033-.008c-.696-.113-1.412-.12-2.082.088h-.006a3.2 3.2 0 0 0-.672.303c-.968.563-2.164.766-2.966 1.576-.787.847-.739 2.012-.604 3.095h.033v.276l.04.281c.41 2.19 1.5 4.2 1.84 6.412.064.843.204 1.931.31 2.617-.306-.09-.476-1.46-.545-1.005a38 38 0 0 0-3.565-5.25C7.844 15.225 7 14.168 5.984 13.334c-.685-.528-.468-1.55-.537-2.303-.23-.926-.093-1.846.06-2.771.314-.963.419-1.97.847-2.895.653-.58.668-1.63 1.302-2.135.094.058.158.085.201.1l.069.01h.006c.09-.095-.889-1.117.02-.713.034-.537.854-.129.866-.598zm3.846 2.184c-.323.009-.573.129-.644.334-.114.33.274.756.867.96.594.206 1.167.108 1.281-.222s-.271-.762-.865-.967a1.8 1.8 0 0 0-.639-.105z"/></svg>