<svg xmlns="http://www.w3.org/2000/svg" viewBox="0 0 24 24"><path d="M3.57 8.342v.002a3.7 3.7 0 0 0-1.377.267 3.6 3.6 0 0 0-1.138.739 3.5 3.5 0 0 0-.775 1.1A3.3 3.3 0 0 0 0 11.814a3.3 3.3 0 0 0 .281 1.358 3.5 3.5 0 0 0 .776 1.105A3.64 3.64 0 0 0 3.6 15.29a3.7 3.7 0 0 0 .988-.129 3.7 3.7 0 0 0 .887-.375l.687.7a.58.58 0 0 0 .824 0 .58.58 0 0 0 0-.817l-.625-.625a3.5 3.5 0 0 0 .614-1.022 3.3 3.3 0 0 0 .226-1.209 3.3 3.3 0 0 0-.281-1.36 3.5 3.5 0 0 0-.775-1.102A3.6 3.6 0 0 0 5 8.61a3.7 3.7 0 0 0-1.398-.27zm11.307.185v1.485h-.766v1.062h.766v2.143q0 .628.158 1.027a1.56 1.56 0 0 0 .434.631 1.5 1.5 0 0 0 .642.316 2.7 2.7 0 0 0 .694.086h.853v-1.011h-.736a1.3 1.3 0 0 1-.352-.05.7.7 0 0 1-.29-.167.8.8 0 0 1-.202-.324 1.6 1.6 0 0 1-.072-.52v-2.13h1.666v-1.063h-1.66V8.527zM9.4 8.855a.69.69 0 0 0-.69.692.69.69 0 0 0 .69.69.69.69 0 0 0 .692-.69.69.69 0 0 0-.692-.692zm2.772 0a.69.69 0 0 0-.692.692.69.69 0 0 0 .692.69.69.69 0 0 0 .69-.69.69.69 0 0 0-.69-.692zm-8.602.54h.032a2.35 2.35 0 0 1 .93.185 2.35 2.35 0 0 1 1.263 1.281 2.5 2.5 0 0 1 .185.957 2.4 2.4 0 0 1-.185.957 2.4 2.4 0 0 1-.506.768 2.36 2.36 0 0 1-1.687.697 2.3 2.3 0 0 1-.93-.185 2.4 2.4 0 0 1-.756-.512 2.43 2.43 0 0 1-.7-1.725 2.44 2.44 0 0 1 .7-1.726 2.4 2.4 0 0 1 .756-.512 2.3 2.3 0 0 1 .898-.185zm17.649.773a2.7 2.7 0 0 0-1.02.2 2.5 2.5 0 0 0-.814.552 2.4 2.4 0 0 0-.526.814 2.7 2.7 0 0 0-.185.998 2.6 2.6 0 0 0 .185.997 2.5 2.5 0 0 0 .526.814 2.4 2.4 0 0 0 .814.547 2.7 2.7 0 0 0 1.059.2 2.4 2.4 0 0 0 .517-.058 2.5 2.5 0 0 0 .461-.144 2.4 2.4 0 0 0 .395-.215 2.4 2.4 0 0 0 .328-.262l.064.53H24v-4.828h-.977l-.068.533a2.5 2.5 0 0 0-.32-.26 2.3 2.3 0 0 0-.395-.219 2.6 2.6 0 0 0-.463-.144 2.4 2.4 0 0 0-.52-.055zm-11.262.842-1.113.002v4.136h1.113zm2.772 0-1.116.002v4.136h1.116zm8.603.146h.025a1.56 1.56 0 0 1 1.098.446 1.5 1.5 0 0 1 .334.494 1.6 1.6 0 0 1 .121.63 1.6 1.6 0 0 1-.12.641 1.6 1.6 0 0 1-.331.498 1.5 1.5 0 0 1-.49.324 1.64 1.64 0 0 1-1.207 0 1.5 1.5 0 0 1-.492-.324 1.5 1.5 0 0 1-.334-.5 1.6 1.6 0 0 1-.122-.638 1.6 1.6 0 0 1 .12-.637 1.5 1.5 0 0 1 .328-.494 1.5 1.5 0 0 1 .49-.325 1.6 1.6 0 0 1 .58-.115z"/></svg>