<svg xmlns="http://www.w3.org/2000/svg" viewBox="0 0 24 24"><path d="M12 0C5.373 0 0 5.373 0 12s5.373 12 12 12 12-5.373 12-12S18.627 0 12 0zm0 1.535c5.77 0 10.465 4.695 10.465 10.465S17.77 22.465 12 22.465 1.535 17.77 1.535 12 6.23 1.535 12 1.535zm0 1.535a9 9 0 0 0-2.234.291v2.325A6.7 6.7 0 0 0 7.66 6.898c.26.944.66 1.806 1.197 2.57.99-2.017 2.848-3.616 5.377-4.638V3.365A9 9 0 0 0 12 3.07zm2.248 2.62a8.3 8.3 0 0 0-1.627 2.322c2.242-.153 4.558.658 6.707 2.338l1.268-.733a9 9 0 0 0-.862-2.082 9 9 0 0 0-1.369-1.789l-2.013 1.162a6.7 6.7 0 0 0-2.104-1.219zm-8.607.058a9 9 0 0 0-1.373 1.787 9 9 0 0 0-.866 2.08l2.014 1.162a6.7 6.7 0 0 0-.004 2.43 8.3 8.3 0 0 0 2.824.25C6.983 11.592 6.53 9.18 6.908 6.479zM12 10.258a1.742 1.742 0 1 0 0 3.484 1.742 1.742 0 0 0 0-3.484zm4.465.254q-.353 0-.701.031c1.253 1.865 1.71 4.275 1.33 6.977l1.267.732a9 9 0 0 0 1.373-1.787 9 9 0 0 0 .866-2.08l-2.014-1.164a6.7 6.7 0 0 0 .004-2.43 8.4 8.4 0 0 0-2.125-.28zM4.674 13.65l-1.268.73a9 9 0 0 0 .862 2.085 9 9 0 0 0 1.369 1.789l2.013-1.162a6.7 6.7 0 0 0 2.102 1.219 8.3 8.3 0 0 0 1.627-2.323c-2.242.153-4.556-.658-6.705-2.338zm10.47.881c-.988 2.018-2.85 3.617-5.378 4.639v1.463a9 9 0 0 0 2.236.297 9 9 0 0 0 2.232-.291v-2.326a6.7 6.7 0 0 0 2.108-1.211 8.3 8.3 0 0 0-1.197-2.57z"/></svg>