<svg xmlns="http://www.w3.org/2000/svg" viewBox="0 0 24 24"><path d="M12 0C5.373 0 0 5.373 0 12s5.373 12 12 12 12-5.373 12-12S18.627 0 12 0zM8.201 8.38c1.642 0 3.07.803 3.684 2.225.318.737.49 1.953-.047 2.985a2.9 2.9 0 0 1-.611.803l-.565.486q.558-.29 1.332-.35l.291-.006a.694.694 0 0 1 .705.684c.005.312-.239.717-.705.717H8.141a5 5 0 0 1-1.61-.248c-1.258-.428-1.8-1.298-2.052-1.914q-.289-.702-.29-1.604c0-1.419.671-2.288 1.145-2.728.441-.408 1.37-1.05 2.867-1.05zm5.223.21h5a.853.853 0 0 1 0 1.705h-5a.853.853 0 0 1 0-1.705zM8.2 9.99q-.45 0-.83.16a2 2 0 0 0-1.101 1.147c-.232.6-.186 1.303-.006 1.789.316.855 1.052 1.322 1.927 1.322.88 0 1.623-.482 1.944-1.322a2.67 2.67 0 0 0 .006-1.79c-.263-.701-.908-1.306-1.94-1.306zm7.723.905c.463 0 .838.178.838.656v3.299a.85.85 0 0 1-.838.865.85.85 0 0 1-.838-.865v-3.3c0-.477.375-.655.838-.655z"/></svg>