<svg xmlns="http://www.w3.org/2000/svg" viewBox="0 0 24 24"><path d="M12.652.016 1.67 1.965a.83.83 0 0 0-.688.818v18.434c0 .403.29.748.688.818l10.982 1.95a1.04 1.04 0 0 0 1.22-1.022v-3.895a7.03 7.03 0 0 0 4.12-1.332l3.069 3.07c.446.447 1.17.448 1.617 0h.002c.447-.446.448-1.17.002-1.617l-.002-.002-3.07-3.068a7.03 7.03 0 0 0 1.331-4.121 7.07 7.07 0 0 0-7.068-7.066V1.037a1.04 1.04 0 0 0-1.22-1.021zm1.221 5.416A6.576 6.576 0 0 1 20.441 12a6.576 6.576 0 0 1-6.568 6.568 6.576 6.576 0 0 1-6.568-6.57 6.576 6.576 0 0 1 6.568-6.566zm0 1.287a5.29 5.29 0 0 0-5.281 5.283 5.286 5.286 0 0 0 5.281 5.28 5.287 5.287 0 0 0 5.281-5.284 5.287 5.287 0 0 0-5.281-5.28z"/></svg>