<svg xmlns="http://www.w3.org/2000/svg" viewBox="0 0 24 24"><path d="M11.988 0C7.5 0 3.593 2.465 1.531 6.107l4.75-.003v-.002c3.71 0 3.849.015 4.573.046l.449.016c1.563.052 3.485.22 4.996 1.363.82.621 2.006 1.99 2.71 2.965.655.902.843 1.942.397 2.936-.408.914-1.29 1.457-2.353 1.457H.39s.1.42.25.886h22.748A12 12 0 0 0 24 12.006C24 5.378 18.621 0 11.988 0zM6.281 7.305c-1.704 0-3.554.004-5.357.01-.234.63-.46 1.24-.569 1.738h9.342v1.215H.113v.002A13 13 0 0 0 0 11.48h18.23a2.2 2.2 0 0 0-.236-.347c-3.117-4.027-4.792-3.676-7.19-3.78-.8-.033-1.339-.048-4.523-.048zM.01 12.695q.029.488.094.961h16.955c.754 0 1.178-.428 1.314-.959v-.002zm1.045 4.282s2.81 6.901 10.93 7.023c4.854 0 9.026-2.882 10.92-7.023H1.054z"/></svg>