<svg xmlns="http://www.w3.org/2000/svg" viewBox="0 0 24 24"><path d="M0 6.545v8.242h16.727l5.091 2.668v-2.668H24V6.545zm.97.97h22.06v6.303h-2.182v2.034l-3.881-2.034H.97zm.97.97v4.363h.97v-.957l.87-.338 1.06 1.295h1.252L4.73 11.182l1.33-.518v-2.18zm5.09 0v4.363H8v-1.453h2.424v1.453h.97V8.484zm5.333 0v2.667h3.395v.727h-3.395v.969h4.364v-2.666h-3.395v-.727h3.395v-.97zm5.334 0v4.363h.971v-1.453h2.424v1.453h.969V8.484zm-14.789.97h2.184v.547l-2.184.848zm5.092 0h2.424v.97H8zm10.668 0h2.422v.97h-2.422z"/></svg>