<svg xmlns="http://www.w3.org/2000/svg" viewBox="0 0 24 24"><path d="M23.4 0a.4.4 0 0 0-.279.125l-.21.225-.401.181a.7.7 0 0 0-.418 0 .3.3 0 0 1-.17 0 1 1 0 0 0-.568 0A.9.9 0 0 0 21 .596a.9.9 0 0 0-.412.338L20.55.98a1.25 1.25 0 0 0-.899.684 1 1 0 0 0-.07.227 2 2 0 0 0-.336-.194 2.03 2.03 0 0 0-2.062.305 2.08 2.08 0 0 0-.692 2.139c.086.376.232.738.43 1.07a12 12 0 0 0 1.736 2.137c.526.512.996 1.077 1.4 1.69l.053.097c.396.754.322 1.31-.218 1.646a1.36 1.36 0 0 1-.573.198 2.5 2.5 0 0 0-.142-2.07 2.3 2.3 0 0 0-.301-.405c-.79-.866-1.63-.674-1.963-.45a.385.385 0 0 0-.148.456l.027.056a.39.39 0 0 0 .379.19 1.07 1.07 0 0 1 .963.582c.23.384.23.86 0 1.244a5 5 0 0 1-.535-.533l-.07-.07-.038-.043a3.37 3.37 0 0 0-1.92-1.207 3.1 3.1 0 0 0-.404-1.456 4.4 4.4 0 0 0-1.36-1.48 3 3 0 0 0-.265-.16 3.085 3.085 0 0 0-2.252-2.717 2.7 2.7 0 0 0-2.969 1.139c-.053.086-.11.171-.164.267a12.3 12.3 0 0 0-1.039 2.78 11.6 11.6 0 0 1-.773 2.187l-.06.107c-.214.374-.405.583-.608.647a.4.4 0 0 1-.375-.064c-.203-.14-.155-.423 0-.973a3 3 0 0 0 .129-.45c.07-.33-.005-.674-.203-.947a1.07 1.07 0 0 0-.788-.41c-.49-.018-.939.27-1.127.723l-.08.148a.97.97 0 0 0-.316-.459 1 1 0 0 0-.295-.129 1 1 0 0 0-.533-.199.34.34 0 0 1-.17-.053.7.7 0 0 0-.436-.095l-.326-.256-.142-.28c-.18-.35-.709-.236-.729.157a.385.385 0 0 0 .033.726l.305.075.342.267c.026.14.092.267.191.37.043.04.072.093.086.15.058.184.169.346.317.469a.88.88 0 0 0 .726.464h.06c.263.313.661.478 1.067.44a1 1 0 0 0 .23-.055 2 2 0 0 0 0 .381 2.03 2.03 0 0 0 1.301 1.637 2.08 2.08 0 0 0 2.207-.483c.276-.26.51-.561.696-.892.422-.817.75-1.68.978-2.573a10.2 10.2 0 0 1 .76-2.056l.059-.098c.454-.722.973-.936 1.535-.637.18.096.337.232.459.397-.714.12-1.34.543-1.717 1.16a2.4 2.4 0 0 0-.203.459c-.353 1.117.23 1.749.594 1.926.16.077.351.035.464-.102l.037-.052a.39.39 0 0 0 0-.424 1.07 1.07 0 0 1 0-1.127c.218-.384.628-.62 1.07-.615q-.06.366-.177.72l-.033.094a3.53 3.53 0 0 0-.084 2.324 3.1 3.1 0 0 0-1.07 1.07 4.4 4.4 0 0 0-.602 1.913 3 3 0 0 0 0 .31 3.085 3.085 0 0 0-1.23 3.31 2.7 2.7 0 0 0 2.468 2h.31a12.3 12.3 0 0 0 2.927-.493 11.6 11.6 0 0 1 2.283-.422h.117c.304-.037.61.035.865.203.102.09.153.223.135.357 0 .246-.29.349-.855.467a3 3 0 0 0-.452.117 1.2 1.2 0 0 0-.72.647 1.07 1.07 0 0 0 .037.888 1.18 1.18 0 0 0 1.193.62h.164a.97.97 0 0 0-.234.501.9.9 0 0 0 0 .366c-.02.183.014.368.092.535a.34.34 0 0 1 .043.176.7.7 0 0 0 .132.422l-.058.412-.166.261a.385.385 0 0 0 .498.535c.287.265.739-.016.629-.39l-.084-.3.062-.433a.7.7 0 0 0 .22-.353.3.3 0 0 1 .087-.15c.13-.141.218-.318.252-.508a.9.9 0 0 0 .12-.336.9.9 0 0 0-.083-.535v-.053c.134-.376.08-.794-.145-1.123a1 1 0 0 0-.16-.17 2 2 0 0 0 .33-.184 2.03 2.03 0 0 0 .77-1.94 2.08 2.08 0 0 0-1.518-1.673 3.7 3.7 0 0 0-1.123-.154c-.919.043-1.83.19-2.717.437-.697.198-1.412.322-2.136.37h-.114c-.85-.033-1.292-.374-1.314-1.01a1.4 1.4 0 0 1 .111-.594c.46.559 1.14.89 1.862.908q.255 0 .502-.055c1.144-.25 1.4-1.068 1.375-1.474a.385.385 0 0 0-.323-.354h-.062a.39.39 0 0 0-.354.237 1.07 1.07 0 0 1-.984.535 1.21 1.21 0 0 1-1.068-.631q.35-.132.714-.21h.157a3.37 3.37 0 0 0 2.01-1.07 3.1 3.1 0 0 0 1.458.376 4.4 4.4 0 0 0 1.963-.434q.142-.066.274-.15a3.085 3.085 0 0 0 3.478-.586 2.7 2.7 0 0 0 .498-3.141 7 7 0 0 0-.148-.271 12.3 12.3 0 0 0-1.889-2.29 11.6 11.6 0 0 1-1.508-1.763l-.062-.102a1.3 1.3 0 0 1-.258-.85.4.4 0 0 1 .16-.267c.225-.107.444.08.83.508q.151.177.326.332c.25.225.584.333.92.299a1.07 1.07 0 0 0 .748-.477c.263-.416.24-.95-.06-1.342l-.084-.144c.18.035.363.018.533-.049a.9.9 0 0 0 .32-.195c.178-.076.332-.2.442-.36a.34.34 0 0 1 .133-.123.7.7 0 0 0 .298-.326l.385-.154h.31a.385.385 0 0 0 .352-.578l-.004.01a.4.4 0 0 0-.119-.127A.385.385 0 0 0 23.4 0zm.006.398-.187.315.347.086-.394.006-.658.261a.26.26 0 0 1-.172.262c-.316.182-.197.32-.582.486-.08.032-.107.101-.256.176s-.407-.027-.535 0a.32.32 0 0 0-.203.535c.085.144.485.68.191 1.114a.71.71 0 0 1-1.107.101c-.368-.305-.866-1.214-1.577-.877-.71.336-.503 1.127-.085 1.795.881 1.39 2.705 2.674 3.523 4.278 1 2-1.108 4.336-3.674 3.117a2.3 2.3 0 0 1-.394.24c-1.07.535-2.514.578-3.397-.117-.395.94-1.788 1.182-2.03 1.24-.422.08-.832.22-1.214.418.487 1.614 2.47 1.455 2.908.428 0 0 .055.822-1.068 1.068a2.14 2.14 0 0 1-2.29-1.158c-.33.346-.506.809-.491 1.287.027.69.461 1.337 1.691 1.385 1.662.064 4.25-1.202 6.014-.668 1.344.335 1.721 2.064.64 2.93a2.7 2.7 0 0 1-1.228.384c-.182.01-.199.09-.182.145.016.053.116.052.277.052.582-.053 1.208.284.93 1.167-.043.123.155.353.117.535-.053.262-.111.203-.111.289-.07.412-.236.324-.338.677a.26.26 0 0 1-.201.21l-.102.705.112.38-.182-.322-.252.258.215-.332.102-.7a.26.26 0 0 1-.16-.267c0-.364-.184-.332-.13-.75.037-.085 0-.042 0-.31.016-.186.232-.342.274-.48.043-.14.054-.45-.37-.45-.197.006-.85.074-1.07-.39a.71.71 0 0 1 .465-1.01c.45-.16 1.498-.124 1.557-.91s-.728-.998-1.514-.971c-1.657.059-3.661 1.009-5.478.902-2.23-.128-3.199-3.132-.862-4.736a2.3 2.3 0 0 1 0-.465c.09-1.22.77-2.472 1.813-2.852-.593-.818-.129-2.148-.059-2.383.135-.4.214-.818.23-1.24-1.641-.37-2.496 1.412-1.823 2.305 0 0-.745-.37-.397-1.467a2.14 2.14 0 0 1 2.139-1.398 1.8 1.8 0 0 0-.871-1.07c-.61-.3-1.385-.268-2.043.769-.887 1.41-1.062 4.294-2.426 5.545-.961 1-2.653.462-2.861-.91a2.7 2.7 0 0 1 .279-1.256c.08-.166.03-.215-.04-.23-.07-.017-.123.07-.187.214a.823.823 0 0 1-1.474.225c-.097-.107-.342.006-.535-.17-.192-.177-.128-.19-.192-.242-.32-.273-.16-.374-.418-.635a.26.26 0 0 1-.08-.285l-.533-.438-.387-.097h.38l-.103-.346.182.351.535.44a.26.26 0 0 1 .31 0c.322.182.38.01.718.262.07.054.133.025.283.132s.186.375.277.477a.32.32 0 0 0 .572-.096c.086-.193.332-.77.866-.728.457.027.77.47.642.91-.09.47-.652 1.357 0 1.8.652.445 1.235-.132 1.604-.827.775-1.46.957-3.68 1.957-5.204 1.23-1.887 4.309-1.222 4.533 1.606q.218.09.412.225c1.032.69 1.759 1.924 1.567 2.994 1.02-.13 1.918.955 2.09 1.136.28.328.606.613.968.846 1.165-1.23.037-2.865-1.07-2.732 0 0 .69-.46 1.467.39.61.728.665 1.772.138 2.56.465.114.957.035 1.364-.218.583-.353.923-1.07.351-2.139-.776-1.476-3.187-3.074-3.588-4.875-.384-1.333.93-2.528 2.22-2.021.38.21.705.51.946.871.102.155.165.134.213.086s-.005-.14-.096-.268a.823.823 0 0 1 .536-1.39c.145-.027.16-.288.418-.373.256-.086.228-.017.308-.05.395-.15.407.043.76-.048.1-.038.212-.01.283.07l.68-.261zM13.11 6.658c-.065.53-.348 1.647-.187 2.332.155.871.822.823 1.068.395.163-.332.2-.71.108-1.069a3.1 3.1 0 0 0-.985-1.636zm.256.871c.17.262.293.553.364.858a1.3 1.3 0 0 1 0 .758c-.086.187-.331.186-.422-.23a5.4 5.4 0 0 1 .058-1.386zm1.727 2.662c-.517.012-.67.473-.47.82.206.31.52.534.882.63a3.1 3.1 0 0 0 1.908-.037c-.422-.32-1.25-1.123-1.902-1.342a1.3 1.3 0 0 0-.418-.07zm.088.4a.8.8 0 0 1 .2.042 5.3 5.3 0 0 1 1.192.752 2.8 2.8 0 0 1-.96-.108 1.3 1.3 0 0 1-.643-.394c-.095-.134-.035-.301.21-.291zm-2.285.184a1.54 1.54 0 0 0-.985.45 3.1 3.1 0 0 0-.935 1.673c.535-.203 1.603-.518 2.138-.972.663-.588.253-1.167-.218-1.15zm-.026.34c.188.008.277.218-.039.489a5.4 5.4 0 0 1-1.234.63c.134-.277.316-.527.535-.742a1.3 1.3 0 0 1 .7-.375z"/></svg>