<svg xmlns="http://www.w3.org/2000/svg" viewBox="0 0 24 24"><path d="M7.732 0a59 59 0 0 0-4.976.219V24a63 63 0 0 1 3.617-.687q.255-.042.51-.079.323-.05.644-.095l.205-.03zm1.18.004V22.96a61 61 0 0 1 12.332-.215V1.484A61 61 0 0 0 8.912.004zm1.707 1.809h.016a62 62 0 0 1 9.166.95.59.59 0 0 1 .476.686.59.59 0 0 1-.57.485.6.6 0 0 1-.115-.01 60.6 60.6 0 0 0-8.992-.932.59.59 0 0 1-.573-.605.59.59 0 0 1 .592-.573zm-4.248.029h.035a.59.59 0 0 1 .578.564.59.59 0 0 1-.562.614 60 60 0 0 0-2.356.144l-.04.002a.59.59 0 0 1-.594-.543.59.59 0 0 1 .539-.635q1.2-.096 2.4-.146zm4.238 2.834h.014a61.6 61.6 0 0 1 9.168.799.59.59 0 0 1 .488.677.59.59 0 0 1-.601.494l-.076-.005a60.4 60.4 0 0 0-8.99-.787.59.59 0 0 1-.585-.596.59.59 0 0 1 .582-.582zm-4.248.095h.037a.59.59 0 0 1 .586.555.59.59 0 0 1-.552.623q-1.18.069-2.358.184l-.039.004a.59.59 0 0 1-.603-.533.59.59 0 0 1 .53-.645q1.199-.117 2.4-.188zM10.6 7.535h.015a61.4 61.4 0 0 1 9.166.65.59.59 0 0 1 .498.67.59.59 0 0 1-.591.504l-.077-.005a60 60 0 0 0-8.992-.64.59.59 0 0 1-.592-.587.59.59 0 0 1 .573-.592zm1.154 2.846a61 61 0 0 1 8.02.515.59.59 0 0 1 .507.66.59.59 0 0 1-.586.514l-.076-.006a60 60 0 0 0-8.988-.492.59.59 0 0 1-.604-.576.59.59 0 0 1 .578-.603q.574-.012 1.149-.012zm1.139 2.832a61 61 0 0 1 6.87.394.59.59 0 0 1 .52.653.59.59 0 0 1-.578.521l-.074-.004a60 60 0 0 0-8.992-.343.59.59 0 0 1-.61-.569.59.59 0 0 1 .567-.61q1.147-.041 2.297-.042z"/></svg>