<svg xmlns="http://www.w3.org/2000/svg" viewBox="0 0 24 24"><path d="M12 0C5.373 0 0 5.373 0 12s5.373 12 12 12c6.628 0 12-5.373 12-12S18.63 0 12.002 0zM5.346 7.654h3.101c1.94 0 3.098 1.043 3.098 2.791 0 1.163-.585 2.077-1.527 2.448l2.209 2.896a.322.322 0 0 1-.24.533l.001.002H5.346a.32.32 0 0 1-.32-.322V7.975a.32.32 0 0 1 .32-.32zm8.088 0H16.4c2.226 0 2.694 1.31 2.694 2.409q-.002.952-.504 1.51c.816.336 1.256 1.097 1.256 2.195 0 1.6-1.202 2.556-3.213 2.556h-3.2a.32.32 0 0 1-.32-.322V7.975a.32.32 0 0 1 .32-.32z"/></svg>