<svg xmlns="http://www.w3.org/2000/svg" viewBox="0 0 24 24"><path d="M12.729.975A11.017 11.017 0 0 0 1.512 12.846l1.603-.584q.077.923.305 1.82L0 15.336a11.2 11.2 0 0 0 1.72 3.73l1.813-.66c3.526 4.95 10.399 6.106 15.35 2.58a11 11 0 0 0 3.597-4.332 10.9 10.9 0 0 0 .993-5.496l-1.809.655a11.1 11.1 0 0 0-1.078-3.967L24 6.6a11 11 0 0 0-.943-1.596l-1.602.584A11 11 0 0 0 12.73.975zm-.442 3.863q.362-.01.73.017a7.2 7.2 0 0 1 2.504.659v-.006a7.1 7.1 0 0 1 2.083 1.482l1.6-.582.005.006c.441.454.82.965 1.129 1.518l-3.412 1.246a7.17 7.17 0 0 1 .894 4.031l1.809-.656a7 7 0 0 1-.647 2.47 7.165 7.165 0 0 1-9.513 3.471 7.1 7.1 0 0 1-2.092-1.488l-1.813.658a7.2 7.2 0 0 1-1.904-3.666l3.428-1.242a7 7 0 0 1-.111-1.897H6.97l-1.606.584a7.14 7.14 0 0 1 6.922-6.605z"/></svg>