<svg xmlns="http://www.w3.org/2000/svg" viewBox="0 0 24 24"><path d="m10.5 2.66.54.998-1.798.645 2.41.217.748 1.246.467-1.121 2.076-.207-1.609-.614.426-1.017-1.578.52zm6.904 2.078L13.76 6.182l3.293 1.298.351-.146 3.293-1.299zm-10.51.313A2.97 1.153 0 0 0 3.927 6.2a2.97 1.153 0 0 0 2.969 1.154A2.97 1.153 0 0 0 9.866 6.2a2.97 1.153 0 0 0-2.97-1.15zM24 6.805s-8.983 4.278-10.395 4.953c-1.226.56-1.901.56-3.261.094C8.318 11.022 0 7.24 0 7.24v1.04c0 .24.333.497.967.798 1.277.613 8.339 3.678 9.449 4.207 1.112.53 1.9.54 3.313-.197 1.412-.738 8.049-3.905 9.326-4.57.654-.342.945-.602.945-.84zm-10.043.601-5.566.854 3.882 1.61zM24 10.636s-8.983 4.28-10.395 4.956c-1.226.56-1.901.559-3.261.092C8.318 14.854 0 11.074 0 11.074v1.037c0 .238.333.5.967.801 1.277.612 8.339 3.676 9.449 4.205 1.112.53 1.9.54 3.313-.197 1.412-.737 8.049-3.905 9.326-4.57.654-.332.945-.602.945-.84zm0 3.843-10.395 4.955c-1.226.56-1.901.56-3.261.093C8.318 18.697 0 14.916 0 14.916v1.037c0 .24.333.5.967.8 1.277.614 8.339 3.678 9.449 4.208 1.112.53 1.9.539 3.313-.2 1.412-.736 8.049-3.903 9.326-4.568.654-.343.945-.613.945-.841z"/></svg>