<svg xmlns="http://www.w3.org/2000/svg" viewBox="0 0 24 24"><path d="M7.871 4.678a3.3 3.3 0 0 0-1.953.63c-1.463 1.042-2.195 2.928-2.385 4.7-.204 1.938.23 4.165 1.399 5.637-.194.57.193 1.201.793 1.267a.975.975 0 0 0 1.06-.713c.197-.66-.426-1.34-1.13-1.187-.983-1.321-1.29-3.04-1.186-4.655.125-1.576.682-3.254 1.984-4.244.81-.602 1.829-.623 2.65-.076 1.108.742 1.764 2.134 1.971 3.432l.51.199.55.287c-.197-1.888-1.096-3.865-2.575-4.773a3.15 3.15 0 0 0-1.688-.504zm9.516 3.945a8.8 8.8 0 0 0-3.057.527.97.97 0 0 0-1.246.27.963.963 0 0 0 .475 1.494c.615.211 1.29-.284 1.265-.918a7.8 7.8 0 0 1 2.838-.402c1.575.07 3.666.654 4.627 2.148.076.12.166.405.522.4a.484.484 0 0 0 .421-.7c-.526-.99-1.522-1.725-2.636-2.194-.984-.412-2.094-.621-3.21-.625zm-11.06.719c-.456-.003-.93.294-.98.931.013 1.233 1.658 1.33 1.913.24 1.887-.27 3.893.584 5.299 1.717.973.77 1.852 1.994 2.072 3.084.162.071.61.264 1.002.305-.146-1.638-1.214-3.1-2.451-4.127-1.568-1.33-4.124-2.327-6.22-1.902a.9.9 0 0 0-.636-.248zm-3.419 1.86c-.866.608-1.65 1.358-2.185 2.28C.008 14.667-.312 16.24.4 17.498c.66 1.218 2.083 1.78 3.41 1.813a7.3 7.3 0 0 0 2.264-.297c2.104-.59 4.375-2.222 5.276-4.362a.96.96 0 0 0 .789-.705c.2-.72-.462-1.372-1.168-1.191-.686.175-.968 1.013-.524 1.54-.607 1.39-1.8 2.449-3.111 3.161-1.493.804-3.306 1.187-4.758.658-.93-.304-1.641-1.13-1.617-2.215 0-1.297.922-2.676 2.06-3.572-.117-.537-.106-.74-.113-1.127zm20.104 1.528a.94.94 0 0 0-.672.293.96.96 0 0 0-.094 1.248c-.546.823-1.506 1.384-2.453 1.706-1.855.613-4.112.504-5.799-.38a4.5 4.5 0 0 1-.99-.673c-.141-.128-.184-.159-.297-.19a.483.483 0 0 0-.455.809c1.269 1.189 3.035 1.706 4.742 1.777a9 9 0 0 0 1.985-.14c1.622-.302 3.317-1.108 4.167-2.522.64-.072 1.037-.775.768-1.344a.96.96 0 0 0-.902-.584zm-8.746 4.514c-.83 1.12-2.646 1.452-4.75.725-.19.13-.303.213-.434.299-.13.087-.29.17-.607.367 2.558 1.032 5.445 1.076 6.74-1.082a3.4 3.4 0 0 1-.95-.309z"/></svg>