<svg xmlns="http://www.w3.org/2000/svg" viewBox="0 0 24 24"><path d="M11.764.62C9.02.62 6.49 2.612 5.47 5.534c-1.393 3.895-.48 7.642 1.228 10.639-.15.195-.239.54-.209.869.03.899.792 1.646 1.707 1.646h.06a1.69 1.69 0 0 0 1.65-1.767c0-.9-.78-1.647-1.694-1.647h-.06c-.06 0-.15 0-.225.03-1.243-2.098-1.769-4.349-1.573-6.774.12-1.828.72-3.416 1.797-4.734.9-1.124 2.592-1.68 3.746-1.707 3.236-.061 4.586 3.97 4.69 5.572l1.498.451C17.74 3.197 14.686.62 11.764.62zm-1.47 7.013c-.942 0-1.677.81-1.646 1.754.03.898.793 1.646 1.707 1.646h.075a1.69 1.69 0 0 0 1.5-1.049h.554c2.31 0 4.496.675 6.489 1.993 1.527 1.005 2.621 2.322 3.236 3.896.538 1.288.51 2.548-.045 3.598-.855 1.647-2.293 2.517-4.195 2.517-1.2 0-2.367-.375-2.967-.644-.36.298-.96.793-1.395 1.093 1.318.598 2.652.944 3.94.944 2.922 0 5.095-1.647 5.92-3.236.898-1.798.823-4.824-1.47-7.416l-.015.029c-2.32-2.728-5.738-4.227-9.634-4.227h-.51c-.253-.554-.837-.898-1.498-.898zM3.569 11.23C-.869 14.408-.416 18.752.932 20.805c1.004 1.498 3.057 2.457 5.304 2.457.6 0 1.23-.046 1.842-.196 3.897-.749 6.848-3.085 8.541-6.53l.016-.032c.87-.075 1.543-.84 1.5-1.754-.047-.914-.796-1.648-1.71-1.648h-.062a1.71 1.71 0 0 0-1.646 1.77c.03.478.226.867.494 1.151-1.048 2.038-2.622 3.536-5.006 4.795-1.603.838-3.295 1.154-4.943.93-1.378-.195-2.457-.81-3.117-1.799-.988-1.499-1.077-3.114-.254-4.732.6-1.17 1.497-2.024 2.097-2.444a10 10 0 0 1-.42-1.543z"/></svg>