<svg xmlns="http://www.w3.org/2000/svg" viewBox="0 0 24 24"><path d="M11.6.098c-1.34.04-2.654.297-3.81.787-2.867.992-5.181 3.34-6.49 5.877-1.665 3.282-1.694 7.373-.294 10.605 1.265 3.007 3.675 5.242 6.402 6.457a7 7 0 0 1-.855-1.539c-.927-2.492-1.357-5.132-.762-7.931.579-2.46 2.437-4.81 5.025-5.182 1.495-.203 3.276.23 4.192 1.555.76 1.212.792 2.942-.018 4.154-.805 1.274-2.373 1.977-3.804 1.713 1.613 1.858 3.228 3.714 4.828 5.582.21.247.44.34.44.34.841.405 1.918.312 2.743-.31 3.123-2.413 4.92-6.174 4.797-10.327-.012-4.014-2.696-8.508-6.244-10.315C16.153.648 14.224.154 12.314.098zM9.31 13.652c-.304 1.741-.943 3.281-1.66 4.787-.68 1.67-.122 3.497 1.692 5.463.67-.729 1.233-1.54 1.582-2.488.32-.87.306-1.742.107-2.584-.52-1.742-1.601-3.36-1.72-5.178z"/></svg>