<svg xmlns="http://www.w3.org/2000/svg" viewBox="0 0 24 24"><path d="M8.69 5.707q-1.761 0-2.903.88-1.144.883-1.457 2.499h-.156V6.01H0v1.185h2.736v9.707H.244v1.188H8.04v-1.188H4.203V12.66q0-2.477 1.156-3.947 1.157-1.47 3.11-1.47.494 0 1.029.093.54.088.953.244V5.977a3 3 0 0 0-.754-.196 7 7 0 0 0-1.008-.074zm10.41.102q-1.494 0-2.616.658a4.5 4.5 0 0 0-1.738 1.838q-.616 1.182-.615 2.773v1.762q0 2.58 1.351 4.015 1.35 1.437 3.786 1.438 1.221 0 2.205-.395a4.3 4.3 0 0 0 1.627-1.11 3.57 3.57 0 0 0 .845-1.68h-1.457q-.28.883-1.133 1.376-.854.495-2.087.495-1.68 0-2.676-1.114-.99-1.118-.99-3.013v-.415H24v-.953q0-1.807-.578-3.074-.575-1.266-1.67-1.931-1.095-.67-2.652-.67zm0 1.3q1.604 0 2.507 1.094.905 1.092.905 3.022H15.6q0-1.94.93-3.028T19.1 7.11z"/></svg>