<svg xmlns="http://www.w3.org/2000/svg" viewBox="0 0 24 24"><path d="M12 0C5.372 0 0 5.372 0 12s5.372 12 12 12 12-5.371 12-12S18.63 0 12 0zM9.973 2.754l3.33 3.33-1.147 1.146-1.084-1.085-1.215 1.214-1.091-1.091L9.98 5.053l-.007-.006L8.826 3.9zm-3.528 1.18 1.147 1.144-1.147 1.145-1.144-1.147zm9.631 2.279c.235.015.466.108.656.285q.756.7 1.457 1.453a1.13 1.13 0 0 1-.033 1.557l-.736.738-2.824 2.822-.086.09c-.16.175-.163.339.004.51.248.258.503.51.775.783.23-.164.458-.26.727-.256.305.005.552.121.763.332q.782.784 1.565 1.565c.464.464.91.942 1.392 1.385.392.36.527 1.064.075 1.533-.24.248-.46.514-.76.7-.325.205-.952.15-1.22-.134-.128-.134-.264-.259-.393-.389-.877-.875-1.748-1.754-2.63-2.626-.273-.272-.433-.593-.347-.965.038-.157.134-.32.258-.504-.227-.225-.527-.55-.764-.803a1.7 1.7 0 0 1-.299-.42c-.236-.499-.094-.932.274-1.31.422-.43.852-.855 1.279-1.282l2.238-2.236q.069-.064.13-.13.155-.194.005-.39-.046-.059-.103-.113L16.28 7.217q-.054-.054-.111-.108c-.092-.082-.235-.076-.338-.004-.072.052-.139.115-.223.186l-.548-.535a1.11 1.11 0 0 1 1.015-.543zm-9.63.031 2.27 2.27L9.86 7.369l1.063 1.063L9.74 9.613l-3.437 3.44-1.04-1.041-1.17-1.17 1.145-1.147 1.149 1.147L7.568 9.66 6.445 8.54 5.301 7.39zm7.384.33a.35.35 0 0 1 .248.104l1.576 1.578a.35.35 0 0 1 0 .492l-6.666 6.67a.35.35 0 0 1-.494 0l-1.58-1.578a.35.35 0 0 1 0-.494l6.668-6.668a.35.35 0 0 1 .248-.104zm-10.85.822 1.146 1.147L2.98 9.689 1.832 8.543z"/></svg>