<svg xmlns="http://www.w3.org/2000/svg" viewBox="0 0 24 24"><path d="M5.66 5.254A6.794 6.794 0 0 0 1.605 16.34c2.38-1.152 4.043-3.755 4.055-6.787zm10.416 0a6.9 6.9 0 0 0-4.1 2.31c1.004 1.183 1.655 2.714 1.655 4.387 0 1.674-.65 3.204-1.654 4.389 2.38-1.15 4.087-3.755 4.1-6.787zm-4.1 2.31a6.8 6.8 0 0 0-4.052-2.308V9.52c0 3.045 1.667 5.663 4.05 6.818a6.77 6.77 0 0 1-1.607-4.387 6.76 6.76 0 0 1 1.61-4.387zm6.364-2.308V9.52c0 3.046 1.667 5.663 4.053 6.82A6.793 6.793 0 0 0 18.34 5.256zM6.793 13.668c-.423 1.752-1.689 3.25-3.264 4.244a6.76 6.76 0 0 0 3.26.834 6.8 6.8 0 0 0 3.266-.834c-1.575-.996-2.84-2.493-3.262-4.244zm10.414 0c-.423 1.752-1.686 3.25-3.262 4.244a6.76 6.76 0 0 0 3.262.834 6.8 6.8 0 0 0 3.264-.834c-1.575-.996-2.841-2.493-3.264-4.244z"/></svg>