<svg xmlns="http://www.w3.org/2000/svg" viewBox="0 0 24 24"><path d="M4.3 7.13C2.68 7.13.88 8 .105 9.689c-.49 1.064.918 1.398.988 1.066.23-1.09 1.448-2.807 3.22-2.807.936 0 1.483.617 1.483 1.705 0 1.35-1.56 2.06-2.25 2.29.307-1.41.416-1.836.416-2.087 0-.554-.322-.646-.648-.646-.397 0-.684.289-.684.289.23.418-.16 1.906-.328 2.508-.203.73-.484 1.81-.66 2.496s1.051.499 1.134.297c.09-.22.325-1.026.54-1.875.357-.112.767-.272.767-.272.18 1.192 1.139 4.217 3.875 4.217 2.346 0 2.196-1.488 2.002-1.392-.235.118-.647.326-1.527.326-2.735 0-3.297-3.506-3.297-3.506s2.068-.874 2.068-2.645c0-1.774-1.444-2.521-2.902-2.521zM14.224 10c-.443 0-.782.384-.782.793 0 .674.553.691.543 1.234-.01.542-.877 2.082-1.46 2.082-.218 0-.25-.218-.25-.32 0-1.038.548-2.52.548-3.02 0-.47-.285-.59-.627-.59a.97.97 0 0 0-.703.288c.157.325.003 1.1-.172 1.845-.303.858-1.286 1.89-2.164 1.893-1.147.007-.978-1.2-.978-1.2s2.697.06 2.613-1.81c-.036-.787-.796-1.123-1.479-1.093-1.391.063-2.5 1.384-2.427 3.02.058 1.29 1.025 1.904 2.053 1.858.91-.04 1.59-.45 2.08-.93.064.538.401.938 1.048.938 1.687 0 3.022-2.43 3.022-3.935 0-.55-.29-1.051-.865-1.051zm8.326.117c-1.393.03-2.57 1.325-2.535 2.961q.006.236.043.443c-.18.236-.5.59-.79.59-.158 0-.218-.14-.218-.299 0-1.201.555-2.384.555-3.083 0-.424-.29-.547-.649-.547-.442 0-.687.289-.687.289.24.663-.616 3.64-1.518 3.64-.213 0-.25-.166-.25-.302 0-.893.55-2.388.55-3.057 0-.444-.296-.576-.646-.576-.414 0-.69.295-.69.295.299.572-.484 2.755-.484 3.388 0 .632.352 1.131.971 1.131 1.003 0 1.584-1.258 1.584-1.258s-.133 1.258 1.086 1.258c.625 0 1.122-.529 1.383-.883.32.602.95.896 1.803.88.612-.014 1.052-.19 1.392-.495.524-.472.176-1.193-.02-.98-.345.376-.779.664-1.261.674-.926.02-.814-1.163-.814-1.163s2.685.094 2.646-1.777c-.016-.788-.768-1.143-1.451-1.129zm-13.21.72c.166-.006.28.077.29.276.05 1.108-1.463 1.225-1.463 1.225.065-.542.574-1.473 1.174-1.5zm13.17.017c.185-.004.28.083.286.283.022 1.088-1.445 1.185-1.445 1.185.077-.54.496-1.454 1.16-1.468z"/></svg>