<svg xmlns="http://www.w3.org/2000/svg" viewBox="0 0 24 24"><path d="M17.666.016a5.04 5.04 0 0 0-2.137.658 4.99 4.99 0 0 0-2.504 4.344c0 .97.351 1.86.791 2.695.372.699.552 1.996-.71 2.73-.949.54-2.132.201-2.72-.746-.495-.8-1.093-1.544-1.939-2.029C6.045 6.28 2.977 7.103 1.6 9.494a5.02 5.02 0 0 0 1.84 6.846 5.03 5.03 0 0 0 5.007 0c.846-.485 1.446-1.23 1.942-2.03.406-.653 1.431-1.489 2.716-.744.948.541 1.241 1.738.711 2.73-.44.824-.789 1.724-.789 2.694A5.01 5.01 0 0 0 18.033 24a5.01 5.01 0 0 0 5.01-5.008 4.98 4.98 0 0 0-2.492-4.344v.002c-.846-.486-1.805-.632-2.752-.666-.79-.023-1.975-.542-1.975-1.986 0-1.072.868-1.94 1.985-1.984.947-.034 1.906-.18 2.752-.666a5.02 5.02 0 0 0 1.84-6.846A5.04 5.04 0 0 0 17.665.016z"/></svg>