<svg xmlns="http://www.w3.org/2000/svg" viewBox="0 0 24 24"><path d="M12 0a17 17 0 0 0-2.283.154.63.63 0 0 0-.485.895l.172.361 1.338 2.8a.63.63 0 0 0 .608.356 12 12 0 0 1 1.3 0 .63.63 0 0 0 .608-.355l1.338-2.8.172-.362a.63.63 0 0 0-.485-.895A17 17 0 0 0 12 0zm4.004 1.87a.63.63 0 0 0-.48.353l-.95 1.988a.63.63 0 0 0 .36.863c3.193 1.134 5.466 4.063 5.466 7.498v.627H24v-.627c0-4.864-3.191-9.02-7.691-10.67a.6.6 0 0 0-.305-.033zm-8.01.003a.6.6 0 0 0-.305.031C3.191 3.551 0 7.706 0 12.572v.627h3.6v-.627c0-3.435 2.275-6.364 5.466-7.498a.63.63 0 0 0 .358-.863l-.95-1.986a.63.63 0 0 0-.48-.352zM12 5.715c-3.976 0-7.2 3.07-7.2 6.857V24h3.6V12.572c0-1.895 1.612-3.43 3.6-3.43s3.6 1.536 3.6 3.43V24h3.6V12.572c0-3.787-3.224-6.857-7.2-6.857zM0 14.4V24h3.6v-9.6zm20.4 0V24H24v-9.6z"/></svg>