<svg xmlns="http://www.w3.org/2000/svg" viewBox="0 0 24 24"><path d="M6.123.809A.24.24 0 0 0 6 .842C2.3 2.982 0 6.955 0 11.21c0 .34.019.703.057 1.113.01.094.07.175.16.21a.3.3 0 0 0 .084.013.25.25 0 0 0 .172-.07l4.123-4.12a6 6 0 0 0 1.771-4.271v-3.03a.244.244 0 0 0-.244-.246zm11.754 0a.24.24 0 0 0-.121.033.25.25 0 0 0-.123.213v10.853a6 6 0 0 0 1.773 4.274l1.996 1.996a.25.25 0 0 0 .174.07h.022a.26.26 0 0 0 .18-.102A11.9 11.9 0 0 0 24 11.211c0-4.255-2.298-8.228-6-10.367V.842a.24.24 0 0 0-.123-.033zm-7.834 3.03a.245.245 0 0 0-.244.247 9.4 9.4 0 0 1-2.778 6.693l-5.636 5.627a.25.25 0 0 0-.045.287 12 12 0 0 0 .889 1.453.25.25 0 0 0 .177.102h.02a.24.24 0 0 0 .174-.07l5.914-5.908a6 6 0 0 0 1.773-4.274v-3.91a.245.245 0 0 0-.244-.246zm3.789 3.932a.25.25 0 0 0-.117.225 9.4 9.4 0 0 1-2.777 6.695l-5.915 5.907a.24.24 0 0 0-.072.191.24.24 0 0 0 .104.182A11.93 11.93 0 0 0 12 23.19a11.93 11.93 0 0 0 6.947-2.22.24.24 0 0 0 .1-.182.24.24 0 0 0-.068-.191l-1.999-1.993a9.4 9.4 0 0 1-2.777-6.697V7.996a.245.245 0 0 0-.371-.225z"/></svg>