<svg xmlns="http://www.w3.org/2000/svg" viewBox="0 0 24 24"><path d="M10.865 0a.97.97 0 0 0-.943.764c-4.205.953-7.285 4.739-7.285 9.125a9.3 9.3 0 0 0 .734 3.64.95.95 0 0 0-.285.688c0 .429.274.783.656.916v3.756c0 .067.02.134.059.191l.209.143 2.851 2.011v2.405c0 .2.162.361.362.361h9.535a.36.36 0 0 0 .361-.361v-2.405l2.861-2.011.211-.153a.34.34 0 0 0 .057-.19v-3.786a.958.958 0 0 0 .354-1.535 9 9 0 0 0 .761-3.663c0-.448-.028-.895-.095-1.324 0-.028-.008-.057-.008-.086-.582-3.785-3.453-6.893-7.229-7.722a.96.96 0 1 0-1.144 1.142v3.52c0 .057.028.114.076.152.029.02.067.03.105.03.02 0 .048 0 .067-.01l1.412-.535c.095.142.236.24.408.287v1.658c-.715.878-1.6 1.669-2.545 2.375l-1.078-2.498a.731.731 0 0 0-.4-1.346.735.735 0 0 0 0 1.469h.039l1.125 2.603c-.658.477-1.335.906-2.002 1.297l-3.205-.963a.16.16 0 0 0-.114.01l-.955.371a.735.735 0 0 0-1.324.44c0 .4.324.732.734.732a.733.733 0 0 0 .735-.732c0-.028-.01-.057-.01-.086l.897-.354 2.793.84a33.4 33.4 0 0 1-4.874 2.23l-.17.057a.92.92 0 0 0-.552-.18h-.03a8.7 8.7 0 0 1-.677-3.367c0-.572.057-1.134.162-1.677h4.185a.73.73 0 0 0 .707.542.733.733 0 1 0-.707-.924h-4.1c.773-3.136 3.252-5.644 6.456-6.388a.98.98 0 0 0 .82.467.96.96 0 0 0 .963-.963.96.96 0 0 0-.963-.963zm2.233.496c.133 0 .246.057.332.143a.462.462 0 0 1-.076.697.42.42 0 0 1-.266.086.454.454 0 0 1-.46-.46.47.47 0 0 1 .47-.466zm-2.223.01a.467.467 0 1 1-.344.152.46.46 0 0 1 .344-.152zm3.05.933c1.02.23 1.974.64 2.823 1.202-.01 1.41-.552 2.707-1.41 3.88V5.34a.726.726 0 0 0 .543-.705c0-.4-.325-.735-.735-.735a.74.74 0 0 0-.724.735c0 .029.01.047.01.066l-1.164.438V1.896a.92.92 0 0 0 .658-.457zM10.942 2.9a.735.735 0 0 0-.734.697l-1.459.533a.19.19 0 0 0-.133.182v.923H7.441a.726.726 0 0 0-.705-.543.734.734 0 1 0 0 1.47c.343 0 .62-.23.705-.546h1.366a.19.19 0 0 0 .19-.19v-.982l1.286-.476a.74.74 0 0 0 .649.4.734.734 0 0 0 .734-.734.726.726 0 0 0-.725-.735zm6.465.23a8.74 8.74 0 0 1 3.157 5.473c-.048 4.777-8.372 7.723-8.458 7.752-.019.009-.067.018-.105.037-.105-.02-.21-.038-.324-.057-.076-.019-.162-.03-.239-.049a5 5 0 0 1-.37-.074.2.2 0 0 0-.069-.012l-.143-.027c-.057-.01-.114-.03-.171-.04a5 5 0 0 1-.391-.095c-.238-.057-.466-.123-.695-.18-.22-.067-.449-.124-.659-.191h-.02a6 6 0 0 1-.466-.152 1 1 0 0 0-.152-.047 3 3 0 0 0-.21-.069 3 3 0 0 1-.345-.123h-.008a6 6 0 0 1-.459-.171c-.143-.058-.266-.105-.361-.143-.096-.048-.18-.078-.229-.106-.057-.029-.085-.037-.085-.037s.018.029.056.067q.056.073.182.19c.077.075.18.172.304.267s.268.2.42.304h.01a2.1 2.1 0 0 0-.096.612c0 1.097.897 1.992 1.993 1.992a1.99 1.99 0 0 0 1.859-1.287l.297.03q.257.01.484.009c.01 0 .02.01.03.01l1.61 1.638c.41.41 1.05.478 1.526.163l2.518-1.41a.8.8 0 0 0 .363-.659v-2.898c.972-.772 1.85-1.69 2.422-2.729a8 8 0 0 1-.602 2.147h-.085a.96.96 0 0 0-.334 1.859v3.51l-3.002 2.115a.37.37 0 0 0-.155.297v2.021a.21.21 0 0 1-.209.21H15.08a.21.21 0 0 1-.21-.21v-.724c0-.191-.132-.363-.323-.383a.37.37 0 0 0-.402.363v.752a.21.21 0 0 1-.21.211h-1.363a.21.21 0 0 1-.21-.21V21.96c0-.19-.134-.362-.325-.38a.364.364 0 0 0-.398.36v1.147a.213.213 0 0 1-.211.209h-1.364a.21.21 0 0 1-.209-.21v-.743c0-.191-.135-.363-.326-.383a.365.365 0 0 0-.398.363v.752a.213.213 0 0 1-.211.211H7.805a.21.21 0 0 1-.21-.21v-2.02a.37.37 0 0 0-.154-.297L4.447 18.64v-3.547a.96.96 0 0 0 .565-.877c0-.057-.01-.114-.02-.172.381-.133 3.29-1.172 6.15-2.955 3.872-2.412 6.017-5.15 6.264-7.961zM4.05 13.769a.45.45 0 0 1 .228.067.47.47 0 0 1 .229.4.46.46 0 0 1-.067.229.42.42 0 0 1-.382.219.5.5 0 0 1-.305-.114.45.45 0 0 1-.133-.506.47.47 0 0 1 .43-.294zm15.865 0a.477.477 0 0 1 .467.467.7.7 0 0 1-.113.268.48.48 0 0 1-.364.18.47.47 0 0 1-.334-.143.47.47 0 0 1-.123-.314c0-.2.124-.372.305-.43a.5.5 0 0 1 .162-.027zm-11.68 2.288c.152.076.315.152.477.228a9 9 0 0 0 1.42.486c.143.038.287.067.43.096-.038.076-.095.154-.143.22a1.257 1.257 0 0 1-1.908 0 1.23 1.23 0 0 1-.295-.81c0-.077.01-.144.02-.22zm3.717 3.023c-.009 0-.018 0-.027.01-.01 0-.02.01-.02.01-.01 0-.017.007-.027.007s-.02.012-.03.022c-.008 0-.009.008-.019.008l-.039.039-.771.963a.275.275 0 0 0 .218.447.28.28 0 0 0 .22-.104l.01-.01a.7.7 0 0 1 1.097 0l.01.01a.286.286 0 0 0 .39.047.276.276 0 0 0 .049-.39l-.783-.953q-.016-.015-.018-.03l-.02-.02a.01.01 0 0 1-.01-.003l-.001-.002q-.003-.003-.008-.002l-.014-.01-.002-.002a.03.03 0 0 1-.013-.01c-.01 0-.02-.007-.03-.007s-.017-.01-.017-.01c-.01 0-.02 0-.03-.01z"/></svg>