<svg xmlns="http://www.w3.org/2000/svg" viewBox="0 0 24 24"><path d="M13.55 0C6.48 0 .47 3.84.47 8.648c0 1.696.887 3.248 2.397 3.248.874 0 1.775-.344 2.36-1.166-.4-.767-.622-1.376-.575-2.277C4.738 6.84 6.635 5.1 8.387 4.256c.029 2.846-.403 5.014-1.106 8.305-.755 3.537-1.748 6.568-1.748 9.085 0 1.073.503 2.354 1.774 2.354 1.35 0 2.533-.788 3.302-1.662-.199-1.552-.226-3.314.25-6.256a55 55 0 0 1 .635-3.187c.43 4.649 2.332 11.044 6.867 11.044 2.742 0 5.168-1.693 5.168-3.918 0-1.012-.636-1.83-1.59-1.709-.544.701-1.352 1.4-2.306 1.4-1.844 0-3.432-2.806-3.71-6.622 3.515-.662 6.575-3.087 6.575-6.824C22.498 3.18 19.314 0 13.551 0zm-.622 3.422h.134c2.995 0 4.641 1.255 4.641 3.363 0 2.77-2.793 4.173-5.77 4.21.29-1.242.554-2.403.715-3.378.293-1.762.364-2.983.28-4.195z"/></svg>