<svg xmlns="http://www.w3.org/2000/svg" viewBox="0 0 24 24"><path d="M6.27 3.6c-2.55 0-4.65 2.07-4.65 4.65 0 .646.135 1.276.39 1.846A4.07 4.07 0 0 0 0 13.606c0 2.25 1.802 4.05 4.006 4.05.285 0 .554-.014.824-.076a4.3 4.3 0 0 0 4.05 2.82 4.31 4.31 0 0 0 3.974-2.625c.495.225 1.05.375 1.65.375a3.75 3.75 0 0 0 3.3-1.95c.33.06.675.105 1.02.105 2.866 0 5.176-2.341 5.176-5.221s-2.308-5.22-5.158-5.22c-.75 0-1.472.15-2.102.45-.736-1.305-2.13-2.205-3.69-2.205a4.2 4.2 0 0 0-3.044 1.305L9.99 5.4a4.71 4.71 0 0 0-3.72-1.8z"/></svg>