<svg xmlns="http://www.w3.org/2000/svg" viewBox="0 0 24 24"><path d="M1.537 9.668c-.92 0-1.537.524-1.537 1.328 0 .788.598 1.121 1.38 1.361.494.152 1.08.358 1.08.844 0 .29-.263.625-.796.625-.41 0-.678-.143-.834-.308a2 2 0 0 1-.447-.612c-.015-.039-.041-.074-.074-.074H.07c-.033 0-.058.026-.058.072v.897c0 .036.02.086.056.107.458.269 1.063.37 1.56.37.886-.005 1.575-.594 1.575-1.538-.006-1.014-.935-1.143-1.676-1.398-.646-.222-.78-.41-.78-.672 0-.284.263-.57.827-.57.197 0 .404.065.596.185.12.074.244.196.385.438.015.025.048.045.066.045h.203c.03-.003.041-.023.041-.059 0-.146.004-.537.004-.768 0-.04-.027-.07-.07-.086a3.8 3.8 0 0 0-1.262-.187zm17.639.033s-.065.052-.065.164.065.174.065.174h.428q.073 0 .072.08v3.69c0 .054-.026.08-.065.08h-.406s-.064.059-.064.164.064.174.064.174l1.766-.004s.047-.074.047-.174-.047-.16-.047-.16h-.291c-.036 0-.069-.03-.069-.076v-.858c.083-.087.232-.239.25-.26.054-.054.11-.033.141.014.036.057.708 1.083.723 1.111.03.051.013.075-.026.075l-.21.003s-.052.076-.052.163.047.164.047.164l1.76.004s.057-.073.057-.165c0-.091-.065-.17-.065-.17s-.048.002-.109.002c-.2 0-.356-.061-.443-.195-.04-.058-1.091-1.667-1.114-1.705.266-.369.403-.504.639-.627.156-.082.443-.142.66-.142.003 0 .05-.042.05-.16 0-.12-.054-.163-.054-.163h-1.054c-.04 0-.091.03-.127.082-.023.033-.852 1.222-1.07 1.541V9.818c0-.066-.041-.117-.118-.117zm-4.268.004c-.043 0-.07.029-.08.065l-.164.558c-.022.065.01.117.065.117h.843c.048 0 .083-.021.092-.06l.195-.604c.015-.05-.018-.076-.066-.076zm-4.424.008s-.088.056-.088.185c0 .16.088.196.088.196h.655c.95 0 1.545.634 1.545 1.879 0 1.342-.59 1.925-1.633 1.925h-.422c-.066 0-.116-.08-.117-.117l-.002-1.955c0-.646-.444-1.002-1.162-1.002-.483 0-.827.217-1.022.584v-.406c0-.065-.04-.094-.092-.094H7.02s-.08.07-.08.196c0 .135.08.185.08.185h.271c.072 0 .148.08.148.166v2.328c0 .048-.066.11-.113.11h-.26l-.12.334 1.734.002s.06-.056.06-.176c0-.113-.058-.16-.058-.16h-.207a.11.11 0 0 1-.108-.104v-1.812c.171-.464.501-.737.776-.737.258 0 .421.194.421.485l-.002 2.039c0 .073-.055.129-.103.129h-.246s-.068.047-.068.16a.24.24 0 0 0 .068.176h2.039c2.031 0 2.555-1.218 2.555-2.256.01-1.632-1.124-2.26-2.586-2.26zm13.133 1.02a.38.38 0 0 0-.263.105.36.36 0 0 0-.12.28.38.38 0 0 0 .11.27.37.37 0 0 0 .271.11.37.37 0 0 0 .27-.107.37.37 0 0 0 .115-.276.37.37 0 0 0-.111-.267.37.37 0 0 0-.272-.116zm-18.543.054c-.447 0-.801.05-1.166.176-.04.015-.05.055-.05.11 0 .18-.004.281-.004.49 0 .043.03.068.062.068h.191c.04 0 .073-.02.108-.06.108-.142.24-.255.342-.313a.9.9 0 0 1 .408-.113c.37 0 .525.269.525.584v.496c-1.396-.083-1.969.33-1.969.988 0 .751.52 1.066 1.028 1.066.463 0 .808-.177 1.002-.445.04.235.178.395.363.395h.729l.119-.333h-.108c-.22-.022-.245-.153-.25-.298V11.82c0-.26-.092-.56-.312-.744-.273-.23-.671-.289-1.018-.289zm18.547.018q.13 0 .223.093a.3.3 0 0 1 .092.223.32.32 0 0 1-.094.225.3.3 0 0 1-.223.091.3.3 0 0 1-.223-.091.3.3 0 0 1-.091-.225q0-.13.091-.223a.3.3 0 0 1 .225-.093zm-5.975.039c-.573 0-1.193.326-1.193 1.033 0 .603.49.93.908 1.045.714.192.918.295.918.6 0 .263-.208.421-.566.421-.36 0-.697-.265-.897-.736-.03-.048-.05-.066-.084-.066-.099-.003-.2 0-.228 0-.029 0-.059.014-.059.06v.694c0 .054.075.113.075.113s.206.127.437.207c.192.066.428.117.76.117.841 0 1.242-.524 1.242-1.133 0-.556-.31-.896-1.016-1.064-.678-.164-.816-.283-.816-.522 0-.202.177-.418.53-.418.35 0 .677.208.827.451.021.033.049.047.092.047h.166a.046.046 0 0 0 .047-.043v-.584c0-.039-.015-.08-.064-.095-.258-.077-.648-.127-1.079-.127zm-3.363.066s-.078.073-.078.186c0 .115.078.19.078.19l.33.001c.026 0 .045.018.045.05l-.004 2.462c0 .054-.047.094-.086.094h-.377s-.072.046-.072.16c0 .108.072.172.072.172h1.875s.061-.07.061-.178c-.003-.102-.064-.152-.064-.152l-.383.003c-.059 0-.09-.037-.09-.091l-.004-2.768c0-.08-.028-.129-.12-.129zm9.164 0v.424h.11v-.152h.023l.025.002q.026 0 .04.007c.015.008.024.015.029.03a.2.2 0 0 1 .008.054.2.2 0 0 0 .007.059h.108l-.002-.014v-.064q0-.067-.04-.094a.2.2 0 0 0-.062-.023.14.14 0 0 0 .075-.028q.03-.028.029-.078a.11.11 0 0 0-.059-.101.2.2 0 0 0-.084-.022zm.116.072h.027a.3.3 0 0 1 .066.008q.034.015.033.05-.003.035-.023.052-.023.014-.06.013h-.044zM5.494 12.59v.812h-.002c-.14.185-.373.342-.62.342-.323 0-.503-.158-.503-.515 0-.413.197-.64 1.125-.64z"/></svg>