<svg xmlns="http://www.w3.org/2000/svg" viewBox="0 0 24 24"><path d="M11.465.768C5.133.768 0 5.798 0 12a11 11 0 0 0 1.424 5.422l3.63-2.711a2.3 2.3 0 0 1 1.71-.44 2.3 2.3 0 0 1 1.513.891l1.727 2.291A2.744 2.744 0 0 0 14.9 16.2a2.69 2.69 0 0 0-.746-2.285c-.479-.39-1.068-.607-1.324-.7a11 11 0 0 0-.91-.255l-1.207-.277-1.264-.36c-.48-.12-1.368-.505-1.853-1.18-.668-.926-1.035-2.082-.856-3.302.354-2.42 2.615-4.108 5.051-3.764a4.42 4.42 0 0 1 2.93 1.72l1.437 1.911.504.67c.442.54 1.106.759 1.688.418l.554-.236a.22.22 0 0 0 .125-.125.23.23 0 0 0 .004-.149l-.07-.226a.327.327 0 0 1 .27-.41l1.968-.182c.334-.044.432.148.432.148l.353.807s.076.202-.181.422l-1.467 1.385a.33.33 0 0 1-.33.056.3.3 0 0 1-.156-.13l-.127-.19a.22.22 0 0 0-.28-.086l-.636.27c-1.264.628-2.426.232-3.46-1.098l-1.808-2.377a2.96 2.96 0 0 0-1.963-1.154 3 3 0 0 0-3.385 2.525c-.153 1.047.387 2.236 1.018 2.682l1.2.513 1.593.375c1.712.361 2.91.81 3.693 1.881a4.14 4.14 0 0 1 .664 2.922c-.334 2.29-2.471 3.884-4.773 3.562a4.2 4.2 0 0 1-2.674-1.501L7.09 16.023a.855.855 0 0 0-1.164-.189l-3.72 2.787a11.53 11.53 0 0 0 9.259 4.611c6.332 0 11.467-5.029 11.467-11.232a11 11 0 0 0-.778-4.066l.604-.278 1.094.383.148-.402-.98-.336.353-.961-.41-.145-.395 1.073-.58.27C20.226 3.554 16.18.767 11.465.767z"/></svg>