<svg xmlns="http://www.w3.org/2000/svg" viewBox="0 0 24 24"><path d="M4.676 4.006C1.8 4.006.046 5.876.046 8.26s2.103 3.414 4.02 4.582c1.426.865 2.922 1.448 2.922 2.99 0 1.496-1.333 2.572-2.922 2.572-1.566 0-2.593-.35-3.785-1.076L0 19.176c1.215.56 2.454.818 4.16.818 2.385 0 4.885-1.472 4.885-4.394h.002c0-2.22-1.965-3.226-3.858-4.348-1.473-.888-3.039-1.497-3.039-3.133 0-1.215.89-2.547 2.643-2.547 1.519 0 2.57.235 3.902 1.03l.117-1.848c-1.238-.514-2.126-.748-4.136-.748zm14.627 0c-4.534 0-7.971 3.53-7.971 8.017 0 5.12 4.09 7.924 7.9 7.924 1.916 0 3.506-.257 4.768-.888l-.14-1.778c-1.427.772-2.945 1.076-4.465 1.076-3.32 0-5.96-2.781-5.96-6.474 0-3.903 2.595-6.31 5.633-6.31 1.917 0 3.39.303 4.791 1.075L24 4.895c-1.286-.608-2.336-.89-4.697-.89z"/></svg>