<svg xmlns="http://www.w3.org/2000/svg" viewBox="0 0 24 24"><path d="m8.537.777-.006.03-.168.963c-.088.513-.165.94-.17.947a1 1 0 0 1-.164.078 10.6 10.6 0 0 0-6.498 8.219 2 2 0 0 1-.04.215c-.02.053-.065.468-.085.826a15 15 0 0 0 0 1.133c.013.234.034.455.067.736l.023.199-.043.04-.326.304-.201.181c-.09.085-.107.102-.563.524-.198.18-.359.335-.363.34-.003 0 .132.245.299.535l1.738 3.01a200 200 0 0 0 1.445 2.484c.006 0 .093-.03.192-.066l.467-.17c.95-.348 1.181-.434 1.19-.434a.4.4 0 0 1 .075.055c.197.165.681.505 1 .703a11 11 0 0 0 1.899.926 10.64 10.64 0 0 0 4.966.593 10.7 10.7 0 0 0 2.583-.646c.106-.042.202-.078.214-.08.06-.01.405-.169.746-.342a10 10 0 0 0 1.545-.959l.207-.152.057.017.09.028a133 133 0 0 1 1.342.42c.015.01.077.025.14.043l.213.066a.6.6 0 0 0 .11.027c.013 0 3.486-6.015 3.482-6.025-.003-.01-.21-.182-1.076-.904l-.414-.348c-.02-.02-.02-.023.002-.18.12-.844.134-1.68.045-2.56a10.59 10.59 0 0 0-5.286-8.135 12 12 0 0 0-1.224-.602c-.05-.02-.094-.043-.096-.052l-.222-.985-.221-.982c-.005-.017-.181-.02-3.49-.02zm.56.559h2.91c2.766 0 2.913 0 2.919.018v.001a183 183 0 0 1 .426 1.833c.008.03.02.038.212.11.425.166.932.4 1.284.597a9.97 9.97 0 0 1 5.105 7.923c.035.432.042 1.2.012 1.559-.028.345-.08.749-.143 1.092l-.013.074.048.045a6 6 0 0 0 .254.219c.006.01.062.052.123.101l.215.178.41.344c.413.345.384.318.37.34-.004.01-.66 1.141-1.452 2.515-.867 1.503-1.45 2.5-1.459 2.5s-.093-.024-.19-.053l-.214-.062a45 45 0 0 1-.855-.264c-.012-.01-.044-.014-.07-.021-.028-.01-.059-.016-.071-.022a.4.4 0 0 0-.098-.031l-.207-.06c-.13-.04-.132-.04-.16-.02l-.18.144c-.26.21-.741.56-.771.56a1 1 0 0 0-.107.062 10.05 10.05 0 0 1-4.745 1.558 16 16 0 0 1-1.283 0c-1.405-.105-2.64-.442-3.846-1.049a10 10 0 0 1-1.763-1.13.6.6 0 0 0-.088-.067 1 1 0 0 1-.117-.096l-.104-.09-.05.01a5 5 0 0 0-.465.164l-.53.196-.527.193a2 2 0 0 1-.19.066c-.005 0-.664-1.133-1.464-2.52l-1.455-2.52.037-.032.213-.201.248-.232.173-.164c.056-.054.129-.12.16-.15l.1-.09.41-.385.073-.07-.016-.079a8 8 0 0 1-.117-1c0-.087-.008-.32-.012-.518a9.97 9.97 0 0 1 4.424-8.484 10 10 0 0 1 2.178-1.1c.124-.043.128-.048.136-.082.011-.043.082-.436.215-1.2l.104-.587zm2.48 3.172v1.111l-.046.01c-.026 0-.147.014-.271.027a7 7 0 0 0-3.147 1.14A7.1 7.1 0 0 0 6.18 8.73a7.01 7.01 0 0 0-.506 6.893c.05.103.09.19.09.195 0 0-.238.145-.53.313a35 35 0 0 0-.543.316c-.014.01.013.064.196.381a9 9 0 0 0 .22.37 26 26 0 0 0 .55-.311c.296-.173.544-.315.55-.315.003 0 .052.064.106.14a7 7 0 0 0 1.8 1.741 7.3 7.3 0 0 0 1.692.826 7 7 0 0 0 4.41 0 7.2 7.2 0 0 0 1.69-.826 7 7 0 0 0 1.816-1.764c.063-.09.116-.162.119-.162l.537.307c.292.17.538.31.547.314.013.01.064-.076.23-.363.192-.33.21-.37.196-.383-.01-.01-.256-.15-.547-.316a17 17 0 0 1-.528-.313s.036-.081.08-.173a7.03 7.03 0 0 0 .567-4.141 7.1 7.1 0 0 0-1.084-2.73 7 7 0 0 0-1.621-1.713 6.7 6.7 0 0 0-1.08-.664 6.8 6.8 0 0 0-2.38-.698l-.269-.027-.049-.01v-1.11zm-.061 2.4h.06v2.508h-.49c-.285 0-.491 0-.488.01.01.032 1.427 2.775 1.431 2.775s1.422-2.742 1.436-2.773c.002-.01-.215-.01-.512-.01h-.514V6.914h.051c.151 0 .606.076.912.152a5.3 5.3 0 0 1 1.137.42 5.6 5.6 0 0 1 1.164.756c.165.136.59.567.73.742.21.26.408.546.569.829.086.151.261.519.328.689a5.74 5.74 0 0 1 .115 3.918c-.096.29-.269.703-.293.703-.013 0-1.993-1.14-2.013-1.16-.013-.011.021-.08.222-.428.13-.228.24-.418.24-.424 0-.01.008-.01-.25-.021-.101 0-.194-.01-.203-.012-.01 0-.104-.01-.214-.01s-.224-.01-.254-.011-.127-.01-.217-.01c-.088 0-.182-.01-.21-.012-.026 0-.134-.01-.237-.012-.104 0-.205-.01-.225-.01s-.119-.01-.22-.011c-.103 0-.202-.01-.223-.012-.02 0-.131-.009-.244-.01-.112 0-.211-.01-.22-.011-.041-.01-.4-.018-.4-.012 0 0 .307.483.682 1.066l.844 1.311c.146.226.163.25.176.232.008-.01.122-.21.257-.443l.246-.424.032.02 1.013.584c.538.31.979.57.979.576 0 .016-.161.229-.291.389a9 9 0 0 1-.719.728 6 6 0 0 1-.76.54 8 8 0 0 1-.816.403 5.74 5.74 0 0 1-4.236 0c-.2-.08-.635-.293-.817-.404a6 6 0 0 1-.76-.539 8 8 0 0 1-.695-.7 4 4 0 0 1-.29-.384l.98-.566 1.01-.582.035-.022.234.406c.13.224.24.417.248.428.01.017.02.01.08-.086.036-.058.132-.21.213-.334l.267-.414c.114-.18.485-.756.583-.906l.242-.377.256-.396a1 1 0 0 0 .056-.1q.002-.013-.082-.012c-.046 0-.15.012-.23.014-.08 0-.183.01-.227.01-.088.01-.237.012-.451.021-.075 0-.173.012-.217.012s-.14.01-.217.012c-.137.01-.259.011-.449.021-.058 0-.212.01-.342.016-.13.01-.284.012-.341.015-.06 0-.154.01-.211.01-.263.014-.348.02-.348.027 0 0 .113.204.252.444l.252.437-.03.018c-.092.06-1.995 1.152-2.003 1.152-.013 0-.116-.214-.192-.406a5.8 5.8 0 0 1-.404-2.49 5.77 5.77 0 0 1 1.289-3.287c.143-.174.567-.607.732-.743.378-.313.73-.54 1.165-.755.4-.196.724-.317 1.136-.42.31-.077.734-.149.9-.15z"/></svg>