<svg xmlns="http://www.w3.org/2000/svg" viewBox="0 0 24 24"><path d="M14.174 0a5.5 5.5 0 0 0-2.725.723h-.111C8.7.723 6.4 2.115 5.188 4.45c-.728 1.393-.9 2.75-.999 3.578-.012.09-.019.172-.029.264-.12.974-.123 1.903-.01 2.771a5.8 5.8 0 0 0-.625 2.53v.015a59 59 0 0 1-.056 1.95 30 30 0 0 0-.008 2.939l.014.209C3.699 21.675 6.158 24 9.082 24a5.5 5.5 0 0 0 3.465-1.21 8.36 8.36 0 0 0 5.193-2.08c1.826-1.586 2.86-3.845 2.83-6.19-.013-1.362-.344-2.637-.976-3.762.117-1.273.22-4.997.22-5.031 0-3.103-2.484-5.67-5.539-5.727zm.056 2.676c1.642.03 2.977 1.41 2.977 3.08 0 .038-.145 4.497-.215 4.883a3.2 3.2 0 0 1-.203.69c.756.89 1.166 2 1.176 3.257.02 1.555-.68 3.074-1.926 4.158a5.76 5.76 0 0 1-3.8 1.445 6 6 0 0 1-.718-.048 3 3 0 0 1-.171.214 2.97 2.97 0 0 1-2.264 1.04c-1.573 0-2.898-1.257-3.014-2.858l-.008-.121a27 27 0 0 1 .004-2.662c.04-.68.06-1.831.063-2.08a3.12 3.12 0 0 1 .783-2.026c-.237-.835-.313-1.835-.168-3.02l.025-.21c.083-.695.207-1.721.72-2.701.764-1.473 2.169-2.319 3.849-2.319a4.6 4.6 0 0 1 .822.07 2.97 2.97 0 0 1 2.068-.792zm-.035 2.33a.685.685 0 0 0-.681.687c0 .01-.003.606-.016 1.207-.536-.592-1.221-1.123-1.992-1.17-2.058-.11-2.284 1.811-2.42 2.918l-.02.196c-.278 2.189.44 3.57 2.13 3.838 1.837.293 3.063.719 3.074 1.867.007.446-.224.903-.627 1.254a2.16 2.16 0 0 1-1.748.508 3 3 0 0 1-.54-.141c-.24-.136-.847-.511-1.154-.943-.26-.364-.35-.936-.379-1.3l.006-.282a.69.69 0 0 0-.67-.704.69.69 0 0 0-.695.682c0 .013-.018 1.368-.067 2.184-.07 1.313 0 2.424 0 2.472.028.382.35.67.727.645a.68.68 0 0 0 .637-.733c0-.006-.034-.546-.03-1.29a5.2 5.2 0 0 0 1.938.773 3.45 3.45 0 0 0 2.855-.82c.713-.62 1.124-1.465 1.112-2.32-.024-2.556-2.866-3.004-4.229-3.222-.78-.122-1.198-.653-.99-2.294l.023-.2c.175-1.426.322-1.742.997-1.705.198.013.426.14.654.33.21.247.678.567.943 1.203.19.466.254.77.281 1.098l.043.402a.68.68 0 0 0 1.342-.007c.008-.044.176-4.367.176-4.438 0-.38-.302-.69-.68-.695z"/></svg>