<svg xmlns="http://www.w3.org/2000/svg" viewBox="0 0 24 24"><path d="M14.86 0 6.878.06a6.139 6.127 0 0 0-3.744 2.508 6.36 6.36 0 0 0-1.358 2.639l-.119.555-.12.855c-.06.8-.06 1.353.12 1.473h5.276c.06 0-.186-.246-.186-.672 0-.738.253-.925.553-1.23.552-.426 2.943-.12 4.726-.247 2.448 0 4.604-.06 4.85-.12 2.7-.428 5.03-2.388 5.521-4.536.12-.547.119-1.106.059-1.166C22.397 0 21.417 0 14.861 0zM9.192 9.008c-3.758-.015-7.469-.002-7.529.058-.126.126-.06.8.06 1.352a5.64 5.64 0 0 0 1.842 2.76 7.55 7.55 0 0 0 3.313 1.59c.366.126 1.045.127 4.598.127 4.236 0 4.913.06 5.218.24a1.842 1.836 0 0 1 .373.37c.18.24.18.308.18.981 0 .671-.066.731-.186 1.043a1.5 1.5 0 0 1-.425.366c-.186.12-.308.12-4.358.18-4.67 0-5.153 0-6.318.43a6.445 6.433 0 0 0-2.461 1.35c-1.163 1.04-1.84 2.203-1.96 3.428l.06.612a283.022 282.613 0 0 0 15.404 0l.49-.12a4.543 4.537 0 0 0 .738-.246l.368-.18a7.735 7.723 0 0 0 3.498-4.296 8.407 8.395 0 0 0-.373-6.06 8.527 8.521 0 0 0-2.329-2.88 6.937 6.925 0 0 0-2.392-.984c-.246-.06-4.052-.107-7.81-.121z"/></svg>