<svg xmlns="http://www.w3.org/2000/svg" viewBox="0 0 24 24"><path d="M4.113 3.477c-1.428 0-2.674.843-2.674 2.185 0 2.393 3.266 2.56 3.266 3.52 0 1.263-2.165.56-3.266-.483v2.02s.81.752 2.42.752c1.773 0 2.674-1.157 2.674-2.403.001-2.426-3.238-2.435-3.238-3.427 0-.897 1.917-.654 2.8-.133l.085-1.774c-.21-.065-1.058-.257-2.067-.257zm18.592 0q-2.84.338-5.693.496l-.307 1.593q1.079-.045 2.156-.11v5.814c.66-.005 1.32.002 1.98-.004l.01-5.953q1.083-.085 2.16-.192zm-15.564.418v7.369c.419.002 2.508.01 3.845.011l.703.002h.176c.334-.004.665-.004 1.02-.004l.445-1.293q1.141-.004 2.281-.015l.448 1.3c.662-.002 1.333.01 1.994.006l-2.639-7.224c-.313.013-1.585.047-1.885.055l-1.99 5.615a281 281 0 0 1-2.41-.016V8.25l1.484.018V6.957L9.13 6.936V5.54c1.616.037 2.36.03 2.36.03l-.303-1.555s-1.934-.032-4.045-.121zm7.332 2.757.687 1.998q-.69.011-1.38.018zM4.225 12.475c-2.003 0-4.225.96-4.225 3.994 0 2.554 1.746 3.852 3.96 3.644 1.56-.146 2.26-.177 2.26-.177V15.49l-2.603.059-.306 1.387 1.207-.059v1.535c-1.811.164-2.555-.435-2.555-2.226 0-1.663 1.344-2.079 2.584-2.079 1.093 0 1.674.122 1.674.122l-.328-1.723c-.288-.015-.8-.031-1.668-.031zm13.23.025v7.428s1.31.08 1.983.133v-3.432l1.957 3.596a91 91 0 0 1 2.605.3l-2.615-4.457 2.312-3.568h-2.232l-2.027 3.18c.008-1.058-.008-2.117 0-3.176zm-10.31.012v7.373c.93-.06 3.49-.118 4.359-.121l.307-1.563q-1.34 0-2.678.03v-1.465l1.48-.018v-1.322l-1.48.011V14.04c1.385.001 2.357.008 2.357.008l-.306-1.535zm5.162 0v7.252a87 87 0 0 1 4.35.12l.32-1.572c-.777-.027-1.975-.067-2.682-.082l-.002-1.478q.69.009 1.379.023v-1.32q-.689-.01-1.379-.018V14.05l2.371.015-.307-1.55z"/></svg>