<svg xmlns="http://www.w3.org/2000/svg" viewBox="0 0 24 24"><path d="M3.963 3.348c2.993 3.547 4.36 7.84 4.084 11.853.346.277.692.537.969.744.76-3.668.12-7.613-1.887-11.039 3.374-.052 6.731-.086 10.105-.138a14.8 14.8 0 0 1 1.297 5.295c.294-.156.588-.295.883-.434-.104-1.868-.64-3.91-1.66-6.264-4.602-.018-9.19-.017-13.791-.017zM1.73 5.06c3.098 2.855 4.985 6.299 5.694 9.656.087.086.19.154.275.224-.138-3.409-1.417-6.886-3.822-9.88zM0 7.139c2.89 2.076 5.123 4.48 6.68 6.92.104.087.207.173.328.277-.9-2.526-2.491-5.017-4.74-7.197zm24 1.47c-2.544.622-9.154 4.204-11.49 5.848l-3.356 2.525c-1.039-.5-3.582-2.783-4.603-3.597l4.568 7.267 1.488-1.816c3.097-3.686 7.095-6.473 11.247-8.982.71-.415 1.298-.709 2.146-1.245z"/></svg>