<svg xmlns="http://www.w3.org/2000/svg" viewBox="0 0 24 24"><path d="M0 0v24h24V0zm12.086 3.648a7.76 7.76 0 0 1 5.51 2.141l-1.819 2.232c-.488-.302-2.509-1.465-4.12-1.136-1.224.25-1.35 1.088-1.356 1.162-.031.373.363.963.717 1.148 1.656.858 3.76 1.56 4.617 2.024 2.452 1.325 2.638 3.322 2.295 4.873-.902 4.092-6.82 4.835-10.516 2.638a7 7 0 0 1-1.424-1.097l2.037-2.442c.32.19.45.408 1.485.955 2.47 1.308 4.133.398 4.29.291.529-.356.547-.956.538-1.154-.03-.627-.502-.97-1.115-1.236-1.01-.438-2.7-1.108-3.87-1.647-1.687-.777-2.756-2.046-2.76-3.982-.002-3.209 2.828-4.26 3.91-4.547a7 7 0 0 1 1.58-.223z"/></svg>