<svg xmlns="http://www.w3.org/2000/svg" viewBox="0 0 24 24"><path d="M12.027 0 1.594 5.992v12.016L12.027 24l10.38-5.992V5.992zm-.029 3.484 7.43 4.227v8.578l-7.43 4.227-7.346-4.182-.08-8.623zm.05.59L9.121 5.766v.254l2.608 1.523v.482l.402-.232.256.15v-.336c.884-.506 1.807-1.04 2.568-1.48.004-.123.003-.253.004-.373zM8.337 6.14c-.97.553-1.931 1.122-2.893 1.691v3.402l2.893 1.67.4-.232V9.754l2.49-1.44V7.83zm7.441.088-2.892 1.67v.337l2.636 1.541v3.067l.256.148 2.895-1.67V7.918zM12.131 8.37q-1.447.837-2.895 1.672v3.424q1.448.833 2.895 1.67l2.892-1.672v-3.402zm-6.2 3.723-.488.285v3.402l2.893 1.672.4-.232v-2.918l.475-.274-.475-.273v-.508l-.4.232c-.825-.477-1.692-.976-2.404-1.386zm12.25.086-2.402 1.388-.256-.148v.334l-.492.285.492.287v3.067l.256.148 2.893-1.672v-3.402zm-8.47 2.138-.475.274v3.424l2.895 1.67 2.892-1.67v-3.403l-.49-.287-2.402 1.389z"/></svg>