<svg xmlns="http://www.w3.org/2000/svg" viewBox="0 0 24 24"><path d="M7.252 0a6.073 6.073 0 0 0-6.066 6.066 6.57 6.57 0 0 0 3.382 5.74l4.532 2.51H6.027a4.847 4.847 0 0 0-4.841 4.842A4.85 4.85 0 0 0 6.027 24h10.721a6.073 6.073 0 0 0 6.066-6.066 6.57 6.57 0 0 0-3.382-5.74L14.9 9.683h3.073a4.847 4.847 0 0 0 4.841-4.842A4.85 4.85 0 0 0 17.973 0zm.115 1.5h10.508c1.797 0 3.345 1.379 3.434 3.174a3.345 3.345 0 0 1-3.336 3.51H11.92a.67.67 0 0 0-.67.67l-.002 4.939-5.953-3.3a5.07 5.07 0 0 1-2.607-4.31C2.627 3.61 4.79 1.5 7.368 1.5zm5.383 8.707 5.953 3.3a5.07 5.07 0 0 1 2.61 4.31c.06 2.574-2.104 4.683-4.68 4.683H6.123c-1.797 0-3.345-1.379-3.434-3.174a3.345 3.345 0 0 1 3.338-3.51h6.053c.37 0 .67-.3.67-.67z"/></svg>