<svg xmlns="http://www.w3.org/2000/svg" viewBox="0 0 24 24"><path d="M12.002.002a11.92 11.92 0 0 0-8.486 3.516A11.92 11.92 0 0 0 0 11.998c0 3.205 1.248 6.219 3.516 8.484a11.92 11.92 0 0 0 8.486 3.516c2.59 0 5.055-.814 7.133-2.352a.17.17 0 0 0 .07-.136.17.17 0 0 0-.066-.139h-.002c-1.043-.784-2.58-1.384-4.205-2.014-1.937-.75-4.133-1.601-5.782-2.912-1.866-1.487-2.775-3.362-2.775-5.732 0-2.128.884-3.947 2.555-5.262 1.873-1.474 4.712-2.254 8.207-2.254.966 0 1.887.058 2.742.176a.17.17 0 0 0 .18-.098.17.17 0 0 0-.043-.2A11.96 11.96 0 0 0 12.002.001zm4.894 7.846c-1.312 0-2.32.264-2.992.783a2.21 2.21 0 0 0-.888 1.81c0 2.06 2.518 3.002 5.435 4.09 1.502.56 3.057 1.14 4.483 1.932a.16.16 0 0 0 .082.021.2.2 0 0 0 .06-.011.17.17 0 0 0 .102-.1c.545-1.395.822-2.868.822-4.375a13 13 0 0 0-.053-1.107.17.17 0 0 0-.06-.118c-2.503-2.078-4.529-2.925-6.99-2.925z"/></svg>