<svg xmlns="http://www.w3.org/2000/svg" viewBox="0 0 24 24"><path d="M12 0C9.161 0 6.845 2.567 6.723 5.791H1.748a.46.46 0 0 0-.45.494l.708 15.528.01.195c.108 1.08.896 1.95 1.97 1.99L19.77 24l.08-.002c1.092-.029 1.978-.912 2.072-2.006l.006-.13.773-15.589a.46.46 0 0 0-.459-.484h-4.967C17.153 2.57 14.84 0 12 0zm-.002 1.4c2.068 0 3.754 1.951 3.834 4.391H8.166c.079-2.44 1.764-4.39 3.832-4.39zm-.166 7.348a6.5 6.5 0 0 1 2.512.514c.279.117.797.396.982.533.13.094.12.2.069.281-.075.126-.301.474-.391.62-.066.098-.146.11-.262.038a5.3 5.3 0 0 0-2.885-.89c-1.304.025-2.286.795-2.351 1.851-.017.952.712 1.644 2.26 2.172 3.194 1.02 4.404 2.217 4.175 4.096-.142 1.16-.85 2.09-1.945 2.555a4.9 4.9 0 0 1-2.076.353 6.7 6.7 0 0 1-2.828-.726 7 7 0 0 1-1.135-.776c-.08-.066-.122-.126-.045-.234.082-.123.41-.593.46-.67.068-.105.182-.11.286-.03l.14.11c.84.653 1.924 1.143 3.128 1.19 1.519-.02 2.621-.696 2.818-1.743.217-1.155-.704-2.145-2.478-2.697-.564-.176-1.98-.74-2.243-.893q-1.854-1.082-1.73-2.828c.126-1.61 1.63-2.818 3.539-2.826z"/></svg>