<svg xmlns="http://www.w3.org/2000/svg" viewBox="0 0 24 24"><path d="M6.74 5.26 5.387 6.613 0 12l1.354 1.354L6.74 18.74l1.354-1.353 3.369-3.37-1.352-1.353-3.37 3.37L2.692 12 6.74 7.953l2.018 2.03 5.387 5.388.498.496a5.4 5.4 0 0 0 3.88 1.596 5.6 5.6 0 0 0 1.788-.293l.05-.012c.051-.025.115-.039.166-.064l.102-.04.103-.05.153-.076.05-.026a5.5 5.5 0 0 0 3.051-4.353c.013-.077.014-.166.014-.242v-.32c0-.09 0-.178-.014-.28v-.039c0-.077-.011-.153-.011-.242v-.014a5.48 5.48 0 0 0-4.877-4.877h-.012c-.077-.013-.155-.012-.244-.012h-.037c-.09 0-.18-.013-.282-.013a5.43 5.43 0 0 0-3.867 1.61l-1.865 1.85 1.354 1.354 1.34-1.353h-.012l.51-.512a3.54 3.54 0 0 1 2.527-1.047h.205c.05 0 .101.001.152.014h.014a3.56 3.56 0 0 1 3.18 3.178v.013c0 .051.011.101.011.153v.408c0 .05-.011.103-.011.154a3.57 3.57 0 0 1-1.98 2.834l-.038.014a.4.4 0 0 0-.104.05l-.076.026-.062.025-.115.037-.026.014a3.56 3.56 0 0 1-3.69-.855l-.497-.498-3.371-3.358z"/></svg>