<svg xmlns="http://www.w3.org/2000/svg" viewBox="0 0 24 24"><path d="M1.479 10.016q-.657 0-1.065.295-.413.297-.412.863a1 1 0 0 0 .283.73q.218.218.94.53.402.172.5.27a.3.3 0 0 1 .095.228q0 .36-.656.361-.475 0-1.09-.203v.756q.57.139 1.133.138.668 0 1.086-.263.516-.329.516-.95 0-.432-.264-.705-.221-.23-.89-.54a7 7 0 0 1-.567-.288q-.125-.084-.125-.215 0-.354.615-.353a2.5 2.5 0 0 1 .945.213v-.727q-.684-.14-1.044-.14zm21.189 0q-.656 0-1.064.295-.414.297-.413.86a1 1 0 0 0 .284.733q.22.222.94.53.405.172.503.27a.3.3 0 0 1 .092.228q0 .36-.655.361-.479 0-1.09-.203v.756q.57.139 1.133.138.667 0 1.088-.263.514-.329.514-.95 0-.432-.264-.705-.223-.23-.888-.54a7 7 0 0 1-.57-.288q-.125-.084-.124-.215 0-.354.612-.353a2.5 2.5 0 0 1 .949.213v-.729l-.092-.015a5 5 0 0 0-.955-.123zm-19.281.066v3.824h1.02v-3.824zm1.957 0v3.824h2.66v-.73H6.326v-.908H7.75v-.63H6.326v-.865h1.635v-.691zm3.326 0v3.824h.719V11.2l1.052 2.746h.631l1.073-2.746v2.707h.968v-3.824h-1.258l-.94 2.443-.92-2.443zm5.38 0v3.824h2.66v-.73h-1.677v-.908h1.422v-.63h-1.422v-.865h1.635v-.691zm3.333 0v3.824h.719v-2.594l1.289 2.594h1.148v-3.824h-.719v2.56l-1.254-2.56z"/></svg>