<svg xmlns="http://www.w3.org/2000/svg" viewBox="0 0 24 24"><path d="M12.002-.002a12 12 0 0 0-1.799.137l.168 1.111a11 11 0 0 1 3.258 0L13.8.135a12 12 0 0 0-1.799-.137zM9.119.35a12 12 0 0 0-3.322 1.375l.578.962A10.9 10.9 0 0 1 9.391 1.44zm5.762 0-.272 1.09a10.9 10.9 0 0 1 3.016 1.248l.58-.963A12 12 0 0 0 14.881.35zM12 2.25a9.75 9.75 0 0 0-8.25 14.938l-.937 4 4-.938A9.75 9.75 0 1 0 12 2.25zm-7.125.09A12 12 0 0 0 2.34 4.873l.906.676a11 11 0 0 1 2.305-2.305zm14.25 0-.676.904a11 11 0 0 1 2.305 2.305l.906-.676a12 12 0 0 0-2.535-2.533zm-17.4 3.457A12 12 0 0 0 .352 9.119l1.09.27a10.9 10.9 0 0 1 1.247-3.016zm20.55 0-.964.576a10.9 10.9 0 0 1 1.248 3.012l1.09-.27a12 12 0 0 0-1.374-3.318zM.135 10.2a12 12 0 0 0 0 3.596l1.111-.168A11 11 0 0 1 1.125 12v-.002a11 11 0 0 1 .121-1.629zm23.73 0-1.111.17a11 11 0 0 1 .121 1.631 11 11 0 0 1-.121 1.629l1.111.168a12 12 0 0 0 0-3.598zM1.441 14.61l-1.09.27a12 12 0 0 0 1.106 2.851l-.275 1.186 1.093.256.375-1.611a10.8 10.8 0 0 1-1.209-2.952zm21.118 0a10.9 10.9 0 0 1-1.248 3.016l.964.58a12 12 0 0 0 1.373-3.324zm-1.805 3.842a11 11 0 0 1-2.305 2.303l.668.906a12 12 0 0 0 2.543-2.535zM.947 19.92l-.543 2.322a1.125 1.125 0 0 0 1.354 1.354l2.32-.534-.256-1.105L1.5 22.5l.543-2.322zm16.678 1.39a10.9 10.9 0 0 1-3.012 1.247l.272 1.091a12 12 0 0 0 3.318-1.375zm-11.186.036-.007.008-1.612.375.256 1.093 1.186-.273a12 12 0 0 0 2.85 1.105l.27-1.091a10.8 10.8 0 0 1-2.943-1.217zm3.932 1.41-.17 1.111a12 12 0 0 0 3.598 0l-.17-1.111a11 11 0 0 1-3.258 0z"/></svg>