<svg xmlns="http://www.w3.org/2000/svg" viewBox="0 0 24 24"><path d="M12 0C8.688 0 6 2.688 6 6s2.688 6 6 6c4.64-.001 7.526 5.038 5.176 9.04h1.68A7.507 7.507 0 0 0 12 10.5 4.5 4.5 0 0 1 7.5 6c0-2.484 2.016-4.5 4.5-4.5s4.5 2.016 4.5 4.5H18c0-3.312-2.688-6-6-6zm0 3a3 3 0 0 0 0 6c4 0 4-6 0-6zm0 1.5A1.5 1.5 0 0 1 13.5 6v.002c-.002 1.336-1.617 2.004-2.56 1.059C9.994 6.116 10.663 4.5 12 4.5zM7.5 15v1.5H9v6H4.5V24h15v-1.5H15v-6h1.5V15zm3 1.5h3v6h-3zm-6 1.47c0 1.09.217 2.11.645 3.07h1.683A5.96 5.96 0 0 1 6 17.97z"/></svg>