<svg xmlns="http://www.w3.org/2000/svg" viewBox="0 0 24 24"><path d="M8.262 3.135a1.84 1.84 0 0 0-1.194.537q-.16.157-.277.346c-.179.292-.273.63-.273.972v.73l-.233.239-.04.043A12 12 0 0 1 .677 9.264l-.162.043-.237.056-.052.239a9.8 9.8 0 0 0-.227 2.1 9.7 9.7 0 0 0 1.758 5.585 9.74 9.74 0 0 0 4.498 3.527l.135.051.136-.049a9.77 9.77 0 0 0 5.2-4.365h10.416c.44 0 .866-.155 1.2-.441a1.9 1.9 0 0 0 .384-.446c.179-.292.273-.628.273-.97V4.99c0-.342-.093-.677-.271-.97a2 2 0 0 0-.278-.348 1.84 1.84 0 0 0-1.195-.537zm.115.883h13.768a1 1 0 0 1 .097.003h.147l-.024.022-6.814 6.03a.435.435 0 0 1-.576 0l-6.817-6.03-.021-.022h.14q.05-.004.1-.003zm-.898.605 5.841 5.172-.418.367a9 9 0 0 0-.1-.564l-.05-.239-.236-.058-.059-.016-.113-.027a12 12 0 0 1-4.938-2.682V4.99a1 1 0 0 1 .073-.367zm15.566.004a1 1 0 0 1 .07.363l-.002 9.604a.9.9 0 0 1-.07.367l-5.84-5.166zm-16.518 2.2a12.74 12.74 0 0 0 5.555 3.167 9 9 0 0 1-5.68 10.037 9.05 9.05 0 0 1-4.074-3.312A9.04 9.04 0 0 1 .783 11.7a9 9 0 0 1 .162-1.697 12.75 12.75 0 0 0 5.582-3.178zm-.004 1.298a10.25 10.25 0 0 1-4.486 2.55c-.086.45-.129.908-.129 1.366a7.26 7.26 0 0 0 4.516 6.691 7.2 7.2 0 0 0 2.97-2.093l.006-.008a7.23 7.23 0 0 0 1.705-4.656v-.082a7.3 7.3 0 0 0-.117-1.223A10.24 10.24 0 0 1 6.61 8.205h-.002zm7.465 2.262.987.87a.43.43 0 0 0 .574 0l.984-.87 5.826 5.152.03.025H12.176a9.7 9.7 0 0 0 .838-3.943q0-.181-.008-.363zm-4.818.947.846.846-3.83 3.832h-.002L3.432 13.26l.845-.85 1.909 1.908z"/></svg>