<svg xmlns="http://www.w3.org/2000/svg" viewBox="0 0 24 24"><path d="M17.553 2.258q-.617.01-1.223.137a.91.91 0 0 0-.705 1.08.91.91 0 0 0 1.082.707 4.5 4.5 0 0 1 4.297 1.382 4.53 4.53 0 0 1 .945 4.416.91.91 0 0 0 .586 1.159.916.916 0 0 0 1.158-.586 6.39 6.39 0 0 0-1.338-6.237l.03.045a6.33 6.33 0 0 0-4.832-2.103zM10.076 5.01C8.377 4.977 5.825 6.323 3.561 8.6 1.309 10.87 0 13.273 0 15.348c0 3.98 5.099 6.394 10.086 6.394 6.536 0 10.889-3.8 10.889-6.818 0-1.822-1.548-2.855-2.916-3.285v.01c-.346-.106-.57-.18-.405-.616.375-.977.42-1.802 0-2.402-.78-1.112-2.916-1.054-5.365-.031 0 0-.765.33-.57-.272.376-1.217.315-2.223-.27-2.808-.334-.335-.806-.5-1.373-.51zm7.729.52a3 3 0 0 0-.797.066.786.786 0 0 0-.617.931c.09.42.51.69.931.602a1.52 1.52 0 0 1 1.444.465c.376.42.464.976.314 1.472a.787.787 0 0 0 .512.993.81.81 0 0 0 .99-.512 3.11 3.11 0 0 0-.645-3.035l.03.045a3.1 3.1 0 0 0-2.162-1.028zm-7.9 5.284c3.656-.117 6.691 1.616 6.933 4.067.259 2.6-2.76 5.047-6.738 5.437l-.002.004c-3.977.391-7.414-1.405-7.672-4.02-.26-2.608 2.759-5.047 6.74-5.44q.373-.037.738-.048zm-.489 1.928c-1.569.017-3.108.893-3.777 2.248-.836 1.704-.026 3.592 1.886 4.211 1.983.64 4.317-.342 5.131-2.18.8-1.793-.2-3.641-2.16-4.148a4 4 0 0 0-1.08-.13zm.525 2.238q.097 0 .186.04c.23.086.307.338.193.572l-.004.004c-.142.234-.447.349-.685.25-.236-.09-.314-.361-.178-.586a.59.59 0 0 1 .488-.28zm-1.82.547c.167.003.332.035.486.1.622.263.822.972.444 1.592-.384.616-1.21.883-1.83.601-.612-.279-.794-.99-.407-1.591a1.55 1.55 0 0 1 1.307-.702z"/></svg>