<svg xmlns="http://www.w3.org/2000/svg" viewBox="0 0 24 24"><path d="m11.086 0-1.7 5.172.102.049a5.1 5.1 0 0 1 1.668 1.261c.765.87 1.206 1.888 1.371 3.032.067.47.07.946.092 1.42l.006.173c1.579-.005 3.536-.003 5.115-.002l-4.127 2.97 1.4 4.269.178.537s-1.478-1.063-2.2-1.586a5.4 5.4 0 0 1-.667 1.803l-.053.09 5.803 4.197.848.615-1.485-4.555-1.507-4.62 7.834-5.669-9.694.004zM6.08 5.82q-.395-.004-.793.018c-.755.039-1.496.151-2.209.412-.996.364-1.775.98-2.24 1.951C.506 8.893.424 9.63.453 10.39c.026.654.222 1.254.516 1.832.357.7.974 1.082 1.66 1.375.857.367 1.778.513 2.67.756.622.169 1.25.31 1.853.54.465.179.916.385 1.303.71.414.347.547.776.414 1.3-.15.584-.545.938-1.092 1.104-1.09.33-2.225.307-3.287-.127-.45-.184-.82-.479-1.053-.92a2.9 2.9 0 0 1-.279-.838s-.027-.147-.025-.195H1.695c-.444 0-1.015.004-1.459 0l.01.119c.051.735.199 1.447.55 2.101.647 1.196 1.675 1.898 2.97 2.235.893.232 1.803.284 2.72.254.778-.025 1.545-.122 2.29-.364.87-.284 1.63-.73 2.181-1.488.457-.63.694-1.337.775-2.103.085-.79.025-1.561-.316-2.29a3.2 3.2 0 0 0-1.605-1.59 10 10 0 0 0-1.877-.638l-2.965-.803c-.463-.133-.907-.315-1.276-.638-.247-.215-.399-.479-.4-.817-.002-.738.446-1.333 1.195-1.552.697-.204 1.407-.197 2.116-.065.775.144 1.37.528 1.728 1.262.238.488.248.736.248.736l2.686-.004v-.095a4.4 4.4 0 0 0-.088-.727c-.333-1.59-1.215-2.718-2.772-3.266-.758-.267-1.537-.364-2.326-.373z"/></svg>