<svg xmlns="http://www.w3.org/2000/svg" viewBox="0 0 24 24"><path d="M4.695.395 4.578.97l5.7.55zm-2.443.851-.04.406H6.44zM0 2.152V21.85h19.697V2.152zm20.197.836V20.24l1.66-17.092zm2.084.965-1.65 17.002L24 4.301zM9.928 7.361q.893 0 1.593.227t.7.508q0 .226-.201.586-.203.359-.36.359-.017 0-.226-.105a2.8 2.8 0 0 0-1.34-.315q-.743 0-1.155.307a.95.95 0 0 0-.412.797q0 .489.307.77.305.278 1.041.507 1.645.509 2.232 1.111.586.605.586 1.82 0 1.219-.867 2.006-.867.789-2.074.788-1.208 0-2.082-.36-.875-.359-.875-.691 0-.175.219-.526.217-.35.392-.35.019 0 .282.167.262.166.751.334.49.166 1.182.166.691 0 1.139-.395.445-.394.445-1.068 0-.675-.393-1.05-.393-.378-1.568-.71-1.172-.33-1.697-.848-.525-.516-.526-1.566 0-1.05.805-1.76.806-.708 2.102-.709zm5.86 14.989 4.165.404.04-.404zm1.126.613 3.18.642.066-.328z"/></svg>