<svg xmlns="http://www.w3.org/2000/svg" viewBox="0 0 24 24"><path d="M2.64 0v18.22H0v1.2h2.64V24h3.84v-4.58H24v-1.2H6.48V0zm9.6 4.3v.473l-.002.477-.039-.104c-.147-.416-.48-.693-.943-.787-.222-.046-.733-.063-1.086-.039-.62.044-1.049.213-1.385.55-.16.16-.193.21-.281.392-.112.23-.171.448-.203.738-.016.128-.022.871-.018 2.29.008 2.047.009 2.104.051 2.28.096.412.219.649.465.89.294.29.603.435 1.111.51.312.047 1.084.043 1.33-.01.398-.081.721-.314.887-.64l.074-.15-.006.61c-.006.697-.01.71-.175.794l-.088.045H8.66v2.002l2.176-.008c1.594-.006 2.22-.013 2.344-.031.6-.09 1.095-.315 1.373-.629.186-.21.312-.476.392-.822.042-.18.043-.186.05-4.508L15 4.301zm7.84 0v.93l-.049-.115q-.255-.618-.931-.756c-.226-.046-.736-.065-1.09-.039-.622.044-1.096.237-1.41.575a1.4 1.4 0 0 0-.332.544c-.138.366-.133.289-.141 2.57-.008 2.097-.004 2.33.064 2.63.142.612.525 1.028 1.125 1.226.342.114.58.141 1.192.13.586-.01.687-.029.963-.17a1.35 1.35 0 0 0 .496-.495l.072-.14-.004.6c-.006.685-.01.7-.176.784l-.088.045H16.5v2h1.986c1.976 0 2.385-.01 2.713-.07.98-.178 1.51-.711 1.621-1.63.012-.11.02-1.616.02-4.394V4.301zm-8.7 2.085c.052-.005.127-.003.263 0 .278.006.293.006.37.058a.4.4 0 0 1 .13.15l.046.096.006 1.397c.004.91-.001 1.436-.015 1.51-.026.142-.094.247-.194.297-.064.032-.123.037-.377.037-.34 0-.4-.02-.478-.15-.04-.069-.041-.098-.041-1.62 0-1.52 0-1.553.04-1.62a.34.34 0 0 1 .13-.116.3.3 0 0 1 .12-.04zm8.112 0c.268.006.284.006.362.058a.4.4 0 0 1 .128.15l.047.096v2.942l-.047.096a.4.4 0 0 1-.128.15c-.08.052-.087.053-.391.053-.292 0-.317-.001-.389-.045-.152-.096-.144.002-.15-1.682-.004-1.018.001-1.53.015-1.584.052-.196.161-.24.553-.234z"/></svg>