<svg xmlns="http://www.w3.org/2000/svg" viewBox="0 0 24 24"><path d="m12.146.793-.42.014c-.987 0-4.333.27-5.872 3.797-.532 1.186-.405 3.211-.307 4.837l.045.569a.94.94 0 0 1-.465.105c-.315 0-.684-.107-1.104-.3a1 1 0 0 0-.382-.075c-.494 0-1.078.314-1.168.793-.06.343.09.839 1.197 1.274.106.045.225.09.346.119.448.15 1.137.374 1.332.808.105.224.06.525-.12.87l-.015.029c-.061.14-1.527 3.48-4.791 4.02a.497.497 0 0 0-.42.51.6.6 0 0 0 .055.224c.239.584 1.27 1.004 3.187 1.226.061.076.12.39.166.57.045.179.076.375.137.567.06.196.208.42.582.42.149 0 .33-.031.54-.074.315-.06.732-.149 1.272-.149.3 0 .614.03.928.074.6.105 1.108.463 1.707.883.852.613 1.811 1.29 3.28 1.29h.148c.06 0 .12.013.18.013 1.468 0 2.442-.688 3.295-1.287.6-.42 1.122-.78 1.722-.885.314-.059.612-.072.912-.072.508 0 .914.06 1.274.135a3 3 0 0 0 .539.074h.03c.284 0 .478-.135.554-.406.06-.193.106-.374.135-.553.044-.195.105-.48.164-.57 1.873-.283 2.904-.703 3.144-1.272a.6.6 0 0 0 .045-.225.5.5 0 0 0-.42-.507c-3.265-.54-4.73-3.88-4.79-4.016l-.015-.014c-.18-.344-.21-.645-.12-.869.193-.45.883-.673 1.333-.808.135-.044.255-.09.344-.12q1.235-.493 1.213-1.167c0-.36-.284-.69-.734-.838a1.4 1.4 0 0 0-.508-.09c-.12 0-.3.015-.465.103-.374.181-.733.285-1.033.301a.8.8 0 0 1-.4-.09c.007-.165.017-.33.029-.51l.004-.06c.104-1.628.23-3.655-.3-4.848-1.582-3.545-4.94-3.82-5.93-3.82z"/></svg>