<svg xmlns="http://www.w3.org/2000/svg" viewBox="0 0 24 24"><path d="M2.094 5.76c-.673 0-1.21.039-1.633.039-.287 0-.461.133-.461.383v11.673c0 .212.135.385.385.385H21.39c.173 0 .326 0 .422-.287 0 0 2.113-6.625 2.152-6.74.077-.25.036-.385-.174-.52C16.973 6.393 6.72 5.76 2.093 5.76zm13.883 5.144v.002c.423 0 .882 0 1.228.076l-.326.883c-.326-.077-.633-.076-.96-.076-1.516 0-2.65.748-2.823 1.9a1.47 1.47 0 0 0 .326 1.268c.385.461 1.094.672 1.94.672.383 0 .767-.019 1.093-.096l1.441-4.55h4.34l-.289.843h-3.07l-.463 1.363h2.613l-.25.807h-2.574l-.672 2.113c-.249.115-1.304.422-2.437.422-1.785 0-3.055-.845-3.227-2.074 0-.039-.039-.037-.039-.037-.038 0-.037.037-.037.037l-.635 1.998H9.891a14.5 14.5 0 0 0-2.018-4.168s-.787 2.382-.787 2.42c0 .039-.037.04-.037.04-.038 0-.04-.04-.04-.04-.153-.326-.288-.577-.73-.922l.883-2.803h1.21c.98 1.19 1.805 2.708 2.189 3.82l1.267-3.82h1.133l-.385 1.192c0 .038.001.037.04.037.038 0 .075 0 .075-.037.73-.807 1.942-1.27 3.286-1.27zm-10.6.059c.423 0 .71.019 1.057.096l-.25.806a3 3 0 0 0-.922-.135c-.711-.038-1.498.135-1.631.596-.135.383.383.597 1.17.942l.136.064.092.047c.943.453 1.946.987 1.52 1.963-.423.883-1.48 1.266-3.074 1.228-.864-.038-1.842-.345-2.342-.556l.383-.846c.673.307 1.517.52 2.19.52.767 0 1.344-.155 1.478-.5.212-.404-.345-.769-1.133-1.114-.96-.442-2.054-1.018-1.67-1.959.307-.806 1.576-1.19 2.996-1.152z"/></svg>