<svg xmlns="http://www.w3.org/2000/svg" viewBox="0 0 24 24"><path d="M12 0C5.373 0 0 5.373 0 12s5.373 12 12 12 12-5.373 12-12S18.627 0 12 0zm7.93 4.965-.002.002.043.875-.916.156a6.4 6.4 0 0 0-1.844.814q-.784.521-1.33 1.149a6.2 6.2 0 0 0-.889 1.338l-.015.037q-.365.76-.65 1.598a5 5 0 0 1 1.31-.813l.033-.012q.78-.334 1.863-.334 1.26 0 2.112.883t.853 2.299q0 2.113-1.625 3.658-1.624 1.547-3.99 1.547-1.883 0-3.004-1.121-1.12-1.122-1.12-2.98 0-3.545 2.52-6.075c1.68-1.686 3.896-2.69 6.65-3.021zM7.926 9.102v.002q.652 0 1.21.08c.38.053.724.155 1.044.298.285.13.522.322.703.559l.002.004q.253.348.252.844 0 .495-.356.851-.357.357-.933.358-.497-.001-.828-.274a2.2 2.2 0 0 1-.538-.64 4 4 0 0 1-.326-.786q-.12-.402-.197-.673a1.82 1.82 0 0 0-1.094.459q-.495.421-.496 1.046 0 .38.117.596c.077.144.184.265.31.358l.005.002c.162.115.347.217.543.296l.017.006c.151.07.432.178.715.28l.131.04q1.168.433 1.762 1.038.479.493.568 1.242c-.008-.117.117 1.108.018.182q.005.084.006.171-.001.649-.29 1.245a2.66 2.66 0 0 1-.818.992 4.3 4.3 0 0 1-1.336.646l-.03.006q-.772.222-1.966.223-1.083 0-1.789-.186-.706-.184-1.12-.472-.421-.29-.575-.618a1.5 1.5 0 0 1-.155-.617q0-.524.373-.916.373-.39.99-.39.517-.002.864.277.356.291.574.691l.006.012c.136.244.259.528.352.824l.01.031c.034.09.105.323.171.557l.033.139q.97.001 1.47-.436.497-.438.497-1.195a1 1 0 0 0-.148-.559 1.5 1.5 0 0 0-.4-.398 3.6 3.6 0 0 0-.635-.315 27 27 0 0 0-.766-.289q-1.038-.369-1.643-1.023-.606-.653-.605-1.627v-.014c0-.385.092-.75.254-1.074q.254-.509.793-.943.532-.413 1.348-.66.816-.249 1.906-.25zm8.015 1.875q-.492 0-.931.199-.441.2-.936.793-.059.273-.209 1.054-.151.781-.152 1.922.001 1.167.365 1.82.364.656.969.657.938 0 1.627-1.295h.002q.69-1.297.69-3.145 0-.927-.401-1.468-.402-.539-1.024-.537z"/></svg>