<svg xmlns="http://www.w3.org/2000/svg" viewBox="0 0 24 24"><path d="M11.936.014A12.2 12.2 0 0 0 8.96.393C4.28 1.556.568 5.795.09 10.602-.5 15.15 1.8 19.887 5.735 22.236c3.861 2.418 9.093 2.32 12.873-.222 3.397-2.206 5.511-6.229 5.385-10.285-.058-4.016-2.309-7.918-5.758-9.981C16.354.587 14.142.005 11.936.014zm-.063 1.695c4.945-.007 9.788 3.815 10.281 8.926.945 5.66-3.751 11.41-9.486 11.578-5.454.544-10.726-4.08-10.88-9.557C1.38 8.222 4.304 3.822 8.485 2.357a9.1 9.1 0 0 1 3.387-.646zm5.092 3.225c-2.687 2.084-5.26 4.308-7.889 6.457 1.203.017 2.41.015 3.62.01 1.41-2.166 2.86-4.302 4.269-6.467zm-5.666 7.654c-1.41 2.166-2.86 4.31-4.27 6.475 2.693-2.08 5.256-4.322 7.903-6.458a255 255 0 0 0-3.633-.017z"/></svg>