<svg xmlns="http://www.w3.org/2000/svg" viewBox="0 0 24 24"><path d="M11.982 1.133c-3.893 0-7.05 3.281-7.05 7.324v.102C2.08 9.493 0 12.269 0 15.543c0 4.035 3.16 7.324 7.05 7.324a6.9 6.9 0 0 0 4.952-2.107 6.9 6.9 0 0 0 4.947 2.107c3.884 0 7.051-3.281 7.051-7.324a7.57 7.57 0 0 0-1.594-4.643 7.1 7.1 0 0 0-3.377-2.357v-.086c0-4.035-3.156-7.324-7.047-7.324zm.008 1.857c2.903 0 5.268 2.457 5.268 5.475a5.57 5.57 0 0 1-2.215 4.463.95.95 0 0 0-.211 1.283c.171.25.45.39.727.39a.86.86 0 0 0 .515-.171 7.38 7.38 0 0 0 2.71-4.022c2.034.785 3.448 2.83 3.448 5.14-.007 3.01-2.37 5.466-5.283 5.466-2.903 0-5.265-2.457-5.265-5.475a.91.91 0 0 0-.891-.924.906.906 0 0 0-.893.926c0 1.368.368 2.651.995 3.748a5.16 5.16 0 0 1-3.844 1.732c-2.904 0-5.272-2.455-5.272-5.472 0-3.016 2.368-5.475 5.272-5.475.63 0 1.24.118 1.826.336.007 0 .012.008.02.008.202.071.489.208.578.285a.86.86 0 0 0 1.25-.1.94.94 0 0 0-.098-1.298c-.39-.342-.996-.576-1.145-.631A6.8 6.8 0 0 0 7.06 8.23q-.169-.001-.338.008c.12-2.916 2.432-5.248 5.27-5.248z"/></svg>