<svg xmlns="http://www.w3.org/2000/svg" viewBox="0 0 24 24"><path d="M11.775.025a1 1 0 0 0-.4.204C6.997 3.967 2.185 4.76.77 4.918a.435.435 0 0 0-.385.463c.29 3.924 1.918 14.21 10.998 18.48.39.184.844.184 1.234 0 9.08-4.27 10.708-14.555 10.998-18.48a.435.435 0 0 0-.385-.463c-1.414-.156-6.226-.946-10.603-4.69a.97.97 0 0 0-.852-.203zm.223 2.293a.44.44 0 0 1 .268.09c3.338 2.556 6.804 3.657 8.974 4.121.186.04.31.217.285.405-.58 4.255-2.539 11.44-9.125 14.894a.87.87 0 0 1-.806 0C5.007 18.372 3.049 11.191 2.47 6.936a.365.365 0 0 1 .285-.405 23 23 0 0 0 2.207-.595v3.378c0 .49.403.891.89.891a.893.893 0 0 0 .89-.89V5.278a22.3 22.3 0 0 0 4.99-2.87.44.44 0 0 1 .265-.09zm.035 3.832q-1.361.001-2.26.608-1.197.792-1.197 2.297 0 1.158.672 1.93.656.757 1.94 1.365 1.047.495 1.59.935.75.615.75 1.432 0 .762-.516 1.138-.409.297-1.082.297-1.11 0-1.711-.824-.368-.5-.9-.5-.456 0-.733.262a.77.77 0 0 0-.28.584q-.001.485.56 1.062 1.092 1.116 3.136 1.116 1.622 0 2.652-.862 1.04-.862 1.041-2.246t-1.056-2.363q-.638-.578-2.018-1.26-1.152-.567-1.598-1.06a1.15 1.15 0 0 1-.316-.809 2 2 0 0 1 .14-.742q.29-.717 1.17-.717.823 0 1.258.68.245.375.786.375a1.13 1.13 0 0 0 .627-.19q.409-.262.41-.666 0-.53-.612-1.04-.96-.802-2.453-.802z"/></svg>