<svg xmlns="http://www.w3.org/2000/svg" viewBox="0 0 24 24"><path d="M12.117 0v3.045c2.084 0 3.973.716 5.307 2.02a6.62 6.62 0 0 1 1.996 4.79 6.78 6.78 0 0 1-2.729 5.426c-.56-3.553-3.418-6.36-3.675-6.605-2.935-2.88-6.864-3.48-8.952-1.358s-1.42 6.041 1.512 8.93c.193.191 2.992 2.904 6.822 3.277l-.234.23c-1.17 1.093-4.958 2.385-8.594-.888l-2.035 2.264C4.128 23.464 6.724 24 8.563 24q.205 0 .4-.01c2.415-.102 4.31-1.105 5.28-2.01.985-.923 1.69-1.939 2.107-3.039a9.83 9.83 0 0 0 6.115-9.086c0-2.669-1.035-5.142-2.916-6.972C17.638 1.025 14.997 0 12.117 0zM7.283 9.076c1.087 0 2.567.756 3.61 1.783l.02.02c.028.028 2.852 2.752 2.837 5.625v.004c-3.254.273-6-2.39-6.025-2.414l-.008-.008c-1.755-1.73-2.23-3.873-1.48-4.635.255-.26.621-.375 1.046-.375z"/></svg>