<svg xmlns="http://www.w3.org/2000/svg" viewBox="0 0 24 24"><path d="M3.72 7.34c-1.01 0-1.84.23-2.5.7C.56 8.5.23 9.12.23 9.88c0 .78.277 1.38.83 1.79.55.42 1.402.8 2.542 1.16.55.2.928.38 1.138.56.22.17.32.42.32.74 0 .28-.1.51-.32.68-.21.19-.539.27-.969.27-.57 0-.999-.12-1.269-.34-.3-.24-.441-.6-.441-1.12H.014l-.012.04c-.02.97.346 1.71 1.1 2.23.75.52 1.64.77 2.67.77q1.529 0 2.458-.66c.62-.46.942-1.09.942-1.88s-.261-1.4-.781-1.85c-.53-.45-1.3-.83-2.33-1.13-.67-.25-1.12-.45-1.37-.61q-.36-.24-.36-.63 0-.42.36-.69c.24-.21.57-.29 1-.29s.77.12 1.01.34c.25.24.37.52.37.88h2.04l.01-.03c.03-.81-.29-1.48-.93-2s-1.46-.77-2.47-.77zm4.782.06v9.18h2.148v-3.15h1.301c1.09 0 1.95-.27 2.59-.83.64-.55.961-1.28.961-2.18 0-.92-.321-1.63-.961-2.19s-1.5-.83-2.59-.83zm9.607 0-3.18 9.19h1.99l3.26-9.19zm3.82 0-3.181 9.19h1.99L24 7.4zM10.65 9.04h1.3c.46 0 .82.13 1.05.39.25.26.37.57.37 1 0 .4-.12.73-.37.98-.23.26-.59.38-1.05.38h-1.3z"/></svg>