<svg xmlns="http://www.w3.org/2000/svg" viewBox="0 0 24 24"><path d="M2.27 9.283c-1.892 0-2.14 1.188-2.14 1.551 0 2.199 2.933 1.396 2.933 2.236 0 .208-.165.428-.737.428-.632 0-.76-.29-.76-.51H0c.005.402.167 1.729 2.326 1.729 1.6 0 2.287-.752 2.287-1.703 0-2.18-2.996-1.356-2.996-2.18 0-.163.129-.408.631-.408.503 0 .63.245.63.408H4.37c0-.392-.208-1.55-2.1-1.55zm2.277.147v1.404h1.42v3.736h1.549v-3.736h1.44V9.43zm5.619 0-2.035 5.14h1.642l.184-.558h1.799l.185.558h1.641l-2.035-5.14zm3.742 0v5.14h1.549v-2.164l1.29 2.164h1.835l-1.312-1.902c.7-.315.992-.93.992-1.557h-.002c0-.928-.613-1.681-2.121-1.681zm4.93 0v1.404h2.037L18.65 14.57h4.182l.78-1.404h-2.454l2.223-3.736zm-3.381 1.265h.682c.416 0 .58.225.58.504s-.164.506-.58.506v-.002h-.682zm-4.602.61.56 1.677h-1.116zm12.836 2.715a.31.31 0 0 0 0 .619.31.31 0 0 0 .309-.309.31.31 0 0 0-.309-.31zm-.013.06h.013a.25.25 0 0 1 .248.25.25.25 0 0 1-.248.248.25.25 0 0 1-.013-.498zm-.094.084v.33h.06v-.129h.047l.07.13h.071l-.078-.138a.1.1 0 0 0 .047-.033.1.1 0 0 0 .02-.06c0-.06-.042-.1-.106-.1zm.06.063h.065q.048 0 .049.039-.001.039-.049.039h-.064z"/></svg>