<svg xmlns="http://www.w3.org/2000/svg" viewBox="0 0 24 24"><path d="M12 .09C5.484.09.181 5.28 0 11.752c1.678.232 2.29-1.276 4.094-.959a8 8 0 0 0-.471.996c-1.438-.159-2.03 1.14-3.61.963a12 12 0 0 0 .075.852c1.358.225 1.846-.985 3.238-.924a9 9 0 0 0-.203.902c-1.148 0-1.612 1.074-2.889.916a12 12 0 0 0 .243.97c1.01.1 1.364-.904 2.533-.876q-.014.249-.014.504l.004.279-2.27.867a12 12 0 0 0 .397.947c.682-.037.917-.913 1.955-.843a9 9 0 0 0 .12.666c-.903-.063-1.098.767-1.743.834a12 12 0 0 0 .531.877c.383-.205.715-.823 1.44-.862a9 9 0 0 1-.196-.699c.644 0 1.38-.25 1.996-.812-.2-1.14 1.569-2.3 1.569-3.133 0-.906-.46-1.408-.46-2.63 0-.905.44-1.887 1.104-2.56a2.2 2.2 0 0 1 .412-.332c-.61.755-1.078 1.65-1.078 2.686 0 1.15.535 1.759.535 2.82 0 1.062-1.552 1.978-1.552 3.072 0 .43.138.852.592 1.678-.698.696-1.606 1.076-2.192 1.076-.19 0-.291-.057-.36-.207q-.087-.194-.167-.39c-.63.024-.918.597-1.268.826a12 12 0 0 0 .604.746c.233-.26.549-.695 1.01-.816a9 9 0 0 0 .26.472c-.397.108-.668.508-.878.772a12 12 0 0 0 .707.675c.153-.238.393-.541.66-.705a8 8 0 0 0 .307.391c-.227.154-.428.433-.558.658a12 12 0 0 0 .878.645c.15-1.22 1.814-2.055 1.366-3.469.147.25.324.56.324.936 0 1.023-1.09 1.837-1.178 2.855a12 12 0 0 0 .694.383c.038-1.118 1.193-2.344 1.193-3.262 0-1.024-1.342-2.054-1.342-3.264s1.549-2.048 1.549-3.11c0-1.063-.658-1.673-.658-3.034a3.63 3.63 0 0 1 1.205-2.65c.129-.115.256-.206.41-.286-.69.828-1.09 1.58-1.09 2.72 0 1.28.754 1.99.754 3.243 0 1.254-1.52 1.95-1.52 3.12 0 1.168 1.415 2.153 1.415 3.353 0 1.092-1.247 2.18-1.266 3.476a12 12 0 0 0 .834.327c-.159-1.31 1.244-2.659 1.244-3.727 0-1.168-1.467-2.17-1.467-3.43s1.492-1.846 1.492-3.138-.916-2.008-.916-3.436c0-1.113.55-2.114 1.352-2.732l.05-.037c.077-.056.138.011.085.078-.569.71-.873 1.426-.873 2.488 0 1.307 1.052 2.368 1.052 3.633 0 1.493-1.412 1.92-1.412 3.144s1.514 2.206 1.514 3.506c0 1.206-1.433 2.546-1.187 3.938a12 12 0 0 0 .875.191c-.269-1.733 1.136-2.977 1.136-4.111 0-1.228-1.568-2.324-1.568-3.524 0-1.132 1.126-1.5 1.273-2.658.02-.157.148-.275.323-.246.229.041.522.191.982.191s.752-.15.98-.19c.175-.03.302.087.323.245.148 1.158 1.273 1.527 1.273 2.658 0 1.2-1.568 2.296-1.568 3.524 0 1.134 1.405 2.378 1.137 4.111a12 12 0 0 0 .875-.191c.245-1.392-1.188-2.732-1.188-3.938 0-1.3 1.514-2.28 1.514-3.506s-1.412-1.65-1.412-3.144c0-1.265 1.052-2.327 1.052-3.633 0-1.062-.305-1.78-.873-2.49-.053-.067.009-.132.084-.076l.051.037a3.48 3.48 0 0 1 1.354 2.734c0 1.428-.916 2.144-.916 3.436 0 1.293 1.492 1.877 1.492 3.136s-1.467 2.264-1.467 3.432c0 1.068 1.402 2.418 1.244 3.727a12 12 0 0 0 .832-.327c-.018-1.295-1.264-2.386-1.264-3.478 0-1.2 1.415-2.185 1.415-3.354 0-1.168-1.52-1.865-1.52-3.119 0-1.253.754-1.964.754-3.244 0-1.14-.4-1.889-1.09-2.717.153.08.28.17.41.284a3.64 3.64 0 0 1 1.205 2.652c0 1.361-.658 1.971-.658 3.033 0 1.063 1.549 1.9 1.549 3.111 0 1.21-1.342 2.24-1.342 3.264 0 .918 1.154 2.141 1.193 3.26q.354-.18.694-.383c-.087-1.018-1.178-1.83-1.178-2.854 0-.375.175-.686.322-.935-.448 1.414 1.216 2.25 1.366 3.469q.455-.304.88-.645c-.13-.226-.331-.504-.558-.658a8 8 0 0 0 .306-.39c.268.163.507.466.66.704a12 12 0 0 0 .708-.675c-.21-.264-.483-.664-.88-.772a9 9 0 0 0 .262-.473c.461.122.776.558 1.01.817q.316-.36.604-.746c-.35-.23-.639-.804-1.27-.828a9 9 0 0 1-.166.392c-.068.15-.17.207-.36.207-.585 0-1.494-.38-2.19-1.076.453-.826.591-1.247.591-1.678 0-1.094-1.552-2.013-1.552-3.074s.535-1.668.535-2.818c0-1.037-.469-1.931-1.078-2.686a2.2 2.2 0 0 1 .41.33c.663.672 1.105 1.657 1.105 2.563 0 1.221-.459 1.723-.459 2.629 0 .834 1.767 1.994 1.567 3.133.617.561 1.354.812 1.998.812a9 9 0 0 1-.196.7c.726.037 1.057.656 1.44.86a12 12 0 0 0 .53-.876c-.647-.068-.84-.898-1.741-.834a9 9 0 0 0 .117-.666c1.038-.07 1.273.806 1.955.843a12 12 0 0 0 .397-.947l-2.27-.867.006-.28q0-.254-.016-.503c1.17-.028 1.525.974 2.535.875q.141-.48.243-.971c-1.278.158-1.741-.915-2.889-.914a9 9 0 0 0-.203-.902c1.392-.061 1.877 1.148 3.236.923a12 12 0 0 0 .076-.851c-1.58.176-2.172-1.122-3.609-.963a9 9 0 0 0-.47-.998c1.802-.317 2.414 1.193 4.093.96C23.819 5.282 18.516.09 12 .09zm0 .715.635 1.48 1.59.111-1.188 1.05.535 1.402c.684-.7 1.62-1.11 2.74-1.229a9 9 0 0 0-1.017 2.026c.618-.504 1.382-.805 2.262-.868-.529.679-.995 1.402-1.342 2.18-.039.088-.124.117-.215.072a9 9 0 0 0-4-.937 8.96 8.96 0 0 0-4 .937c-.09.045-.176.016-.215-.072-.346-.778-.814-1.501-1.342-2.18.88.063 1.644.364 2.262.868a9 9 0 0 0-1.018-2.026c1.12.119 2.057.528 2.74 1.229l.536-1.403-1.188-1.049 1.59-.11zm0 3.447-1.244.945c-.046.035-.024.093.037.082.105-.019.612-.103 1.207-.103s1.102.084 1.207.103c.06.011.084-.047.037-.082zM2.645 5.939q.032.002.066.026c.657.456 1.12 1.212 1.262 2.062.914-.587 1.983-.67 2.867-.308a9 9 0 0 0-2.317 2.361c-1.726-.598-2.86 1.115-4.191.715 1.292-1.371 2.342-2.93 2.203-4.727-.006-.079.045-.133.11-.129zm18.71.002c.065-.004.118.048.112.127-.14 1.797.91 3.358 2.201 4.729-1.331.4-2.464-1.315-4.19-.717a9 9 0 0 0-2.318-2.36c.884-.362 1.955-.279 2.87.308.14-.85.602-1.604 1.26-2.06a.13.13 0 0 1 .065-.026zM12 6.631c1.114 0 2.047.63 2.291 1.445.019.062-.006.103-.078.07a1.6 1.6 0 0 0-.676-.132c-.454 0-.854.166-1.092.457-.145.479-.137 1.016.037 1.435.262-.026.241-.49.461-.49.183 0 .268.129.578.129a.76.76 0 0 0 .526-.172c.25.032.308.272.308.55 0 1.243-1.141 2.95-2.355 2.95s-2.355-1.707-2.355-2.95c0-.278.043-.525.283-.525.204 0 .24.147.55.147s.452-.129.635-.129.249.144.436.186c.118-.286.11-.786.006-1.131-.237-.29-.638-.457-1.092-.457a1.6 1.6 0 0 0-.676.132c-.072.033-.099-.007-.08-.07.244-.814 1.179-1.445 2.293-1.445zm-1.773 1.781c.455 0 .91.279.888.533-.511-.188-1.004-.199-1.238.035-.11-.1-.147-.19-.147-.294 0-.162.166-.274.497-.274zm3.546 0c.33 0 .497.112.497.274 0 .104-.037.194-.147.294-.206-.23-.633-.224-1.117-.058a.3.3 0 0 1-.01-.207c.197-.22.51-.303.777-.303zm-2.05 2.016c-.095 0-.28.077-.32.146a.15.15 0 0 0 .042.094c.213.032.308.15.555.15s.343-.118.557-.15a.16.16 0 0 0 .04-.094c-.039-.069-.224-.145-.32-.146-.1-.001-.131.054-.277.054s-.178-.055-.277-.054zm-.594.797s-.063.022-.08.078c.252.193.425.634.951.634s.7-.44.951-.634c-.016-.057-.08-.078-.08-.078s-.33.078-.871.078c-.542 0-.871-.078-.871-.078z"/></svg>