<svg xmlns="http://www.w3.org/2000/svg" viewBox="0 0 24 24"><path d="M12.463.086c-.095 0-.08-.007-.174.086a26 26 0 0 0-3.662 5.77C3.632 6.888 0 9.886 0 13.384c0 2.588 1.992 4.902 5.049 6.316a65 65 0 0 0-.348 4.012c0 .094.108.201.203.201h.086c.094 0 .08.007.172-.086a80 80 0 0 1 2.54-3.203c1.337.336 2.779.52 4.298.52 2.455 0 4.738-.48 6.635-1.297.46.772.908 1.554 1.385 2.394 0 .094.195.086.289.086a.175.175 0 0 0 .171-.174 70 70 0 0 0-.345-3.088c2.369-1.42 3.865-3.45 3.865-5.681 0-3.252-3.156-6.071-7.615-7.211a33.5 33.5 0 0 0-3.75-6c0-.094-.078-.088-.172-.088zM7.73 8.076a39 39 0 0 0-1.095 3.29 56 56 0 0 0-1.328 6.404c-2.11-1.1-3.461-2.69-3.461-4.385 0-2.274 2.44-4.339 5.884-5.309zm9.635.319h.002c2.858 1.055 4.787 2.906 4.787 4.998 0 1.415-.88 2.728-2.338 3.753-.385-2.26-.896-4.476-1.642-6.615a39 39 0 0 0-.809-2.136zm-2.422 6.2c.094 0 .3.097.577.464a58 58 0 0 1 2.164 3.228C16.057 18.933 14.089 19.3 12 19.3a16 16 0 0 1-2.855-.262c1.417-1.507 2.918-2.854 4.703-3.978.555-.278.818-.463 1.095-.463z"/></svg>