<svg xmlns="http://www.w3.org/2000/svg" viewBox="0 0 24 24"><path d="M12 0C7.96 0 4.417 2.674 3.354 6.531s.614 7.94 4.095 9.969c-3.047-1.988-4.416-5.716-3.367-9.174C5.13 3.867 8.35 1.5 12 1.5s6.867 2.367 7.916 5.826-.318 7.186-3.365 9.174c3.48-2.028 5.158-6.112 4.095-9.969S16.042 0 12 0zm0 3a6.3 6.3 0 0 0-4.406 1.783 6.167 6.167 0 0 0-.145 8.717 5.58 5.58 0 0 1 .725-7.535 5.73 5.73 0 0 1 7.652 0 5.58 5.58 0 0 1 .725 7.535 6.167 6.167 0 0 0-.145-8.717A6.3 6.3 0 0 0 12 3zm0 4.047c-1.256 0-2.275 1.008-2.275 2.25 0 .936.58 1.736 1.404 2.076L5.934 24c1.896-1.1 3.98-1.65 6.066-1.65s4.17.548 6.066 1.648l-5.195-12.625a2.25 2.25 0 0 0 1.404-2.076c0-1.242-1.02-2.25-2.275-2.25zm0 6.342 3.463 7.918A13.4 13.4 0 0 0 12 20.85a13.4 13.4 0 0 0-3.463.457z"/></svg>