<svg xmlns="http://www.w3.org/2000/svg" viewBox="0 0 24 24"><path d="m16.215 6.762-.076.39c-.116.741-.074.954.244 1.229l.306.254-.318 1.418c-.19.846-.422 1.556-.57 1.789-.127.2-.275.495-.307.654-.053.19-.233.382-.508.55-.243.139-.72.509-1.058.806q-.405.363-.557.457l-.33.26c-.106.17-.166.307-.19.411-.022.107-.008.179.026.23q.05.074.168.106a1 1 0 0 0 .281.024 3 3 0 0 0 .631-.111q.104-.03.174-.053c.074-.091.246-.264.549-.563.804-.793 1.11-1.226.793-1.11-.117.043-.065-.064.136-.276.424-.413.668-1.038 1.176-2.995.402-1.545.401-1.566.697-1.566.14 0 .534.023.534.023V6.762zm3.838 3.166c-.064 0-.17.095-.233.2-.116.19.022.307 1.768 1.397 1.037.657 1.872 1.217 1.851 1.26-.02.031-.867.582-1.882 1.217-1.842 1.142-1.853 1.154-1.684 1.387.212.275 0 .369 2.39-1.123L24 13.154v-.836l-1.937-1.195c-1.047-.656-1.957-1.184-2.01-1.195zm-16.084.117c-.053 0-.965.539-2.012 1.184L0 12.426v.836l1.947 1.217c1.08.666 1.99 1.216 2.032 1.216s.127-.097.212-.213c.127-.2.02-.286-1.767-1.418C.72 12.995.54 12.848.71 12.732c.106-.074.91-.572 1.777-1.11 1.98-1.218 1.872-1.134 1.713-1.388-.063-.105-.17-.2-.232-.19zm8.683.021c-.292-.002-.92.444-2.8 1.979-.081.193-.088.326-.051.412a.25.25 0 0 0 .129.13c.06.03.138.049.224.056.171.015.372-.013.535-.045l.112-.026a.4.4 0 0 1 .142-.117c.116-.064.603-.508 1.09-.984.857-.868 1.058-1.26.71-1.387a.2.2 0 0 0-.09-.018zm2.196.604c-.257.007-.72.304-1.512.937-.398.323-.65.498-.785.534l-.526.414c-.197.36-.225.584-.173.707a.25.25 0 0 0 .138.133.6.6 0 0 0 .24.044 2.2 2.2 0 0 0 .58-.084 4 4 0 0 0 .292-.091l.029-.012.053-.03c.1-.128.329-.372.617-.652.91-.878 1.374-1.501 1.28-1.734-.044-.113-.117-.17-.233-.166zm-2.424 1.08c-.074.008-.24.136-.54.398-.431.382-.903.602-1.066.504l-.113.024c-.166.033-.374.06-.559.045a.7.7 0 0 1-.251-.063.34.34 0 0 1-.168-.17c-.037-.09-.037-.202.005-.345l-.65.535-1.47 1.217v1.972l4.82-3.797a.4.4 0 0 1 .015-.123c.037-.134.035-.201-.023-.195zm2.074.639c-.073 0-.196.103-.39.31-.266.283-.682.558-.903.614l-.033.017-.111.041q-.092.031-.229.068a2.2 2.2 0 0 1-.603.09.7.7 0 0 1-.276-.054.34.34 0 0 1-.183-.18c-.058-.14-.036-.334.091-.611l-4.252 3.35v1.204h1.87l3.96-3.111q.154-.173.467-.467c.56-.519.688-.698.688-.963 0-.206-.023-.308-.096-.308zm.943 1.95-.34.339c-.19.18-.527.4-.76.496l-.046.02-.002.005-.012.01-.02.012a3 3 0 0 1-.28.091 3 3 0 0 1-.65.116 1 1 0 0 1-.311-.028.36.36 0 0 1-.217-.142q-.074-.112-.035-.295a1 1 0 0 1 .093-.25l-3.197 2.525h4.254l.508-.582c.698-.814 1.015-1.396 1.015-1.894z"/></svg>