<svg xmlns="http://www.w3.org/2000/svg" viewBox="0 0 24 24"><path d="M13.938 5.842q-.735-.012-1.495.03c-3.99.217-7.831 1.51-10.236 3.442-.469.38-1.18 1.133-1.453 1.543-.54.8-.754 1.444-.754 2.252 0 1.55 1.026 2.851 3.006 3.8 1.218.585 2.67.97 4.392 1.163 1.203.133 3.199.113 4.569-.047 3.963-.465 7.516-1.92 9.52-3.892.241-.242.77-.851.788-.914 0-.004.106.031.235.074.554.188 1.146-.078 1.396-.629.133-.28.123-.732-.021-1.025a1.15 1.15 0 0 0-.621-.57l-.19-.067v-.2c0-.854-.422-1.727-1.203-2.484-1.568-1.52-4.512-2.42-7.933-2.476zm-.159.394h.002a18 18 0 0 1 1.836.065c2.276.2 4.212.781 5.586 1.683.504.332 1.176 1.002 1.418 1.416.234.402.376.85.404 1.272l.02.33-.24.004a1.08 1.08 0 0 0-.823.41c-.196.25-.254.421-.25.777 0 .336.082.556.29.795l.128.145-.347.351c-.683.69-1.46 1.242-2.483 1.75-2.585 1.296-6.064 1.975-9.257 1.807-2.178-.113-3.917-.502-5.366-1.197-1.527-.73-2.478-1.724-2.72-2.82-.613-2.777 3.14-5.614 8.593-6.508a22 22 0 0 1 3.21-.28zM23 7.783l-.01.002a.3.3 0 0 0-.088.012c-.04.007-.079.025-.117.04a.44.44 0 0 0-.139.126c-.016.027-.034.052-.042.082a.4.4 0 0 0-.032.123.5.5 0 0 0 .016.15.44.44 0 0 0 .174.229.5.5 0 0 0 .187.066.46.46 0 0 0 .248-.047.4.4 0 0 0 .215-.28c.005-.036.013-.07.008-.104q-.002-.04-.01-.08a.44.44 0 0 0-.191-.26.5.5 0 0 0-.21-.059zm-.031.086h.06a.3.3 0 0 1 .112.033q.03.012.054.035c.023.02.048.042.063.069a.3.3 0 0 1 .037.074c.012.027.012.059.02.088-.003.031.004.063-.004.094-.003.033-.018.062-.032.092-.006.019-.019.034-.029.05a.3.3 0 0 1-.076.075c-.017.015-.04.02-.059.03-.022.007-.044.015-.068.016l-.018.002c-.03 0-.061.004-.091-.002a.3.3 0 0 1-.155-.078.2.2 0 0 1-.043-.047c-.018-.02-.026-.045-.039-.068q-.012-.03-.017-.062c-.008-.027-.006-.056-.006-.084-.002-.04.01-.078.021-.114.014-.026.024-.054.043-.076.015-.024.039-.04.057-.059a.3.3 0 0 1 .066-.04q.034-.014.069-.02a.1.1 0 0 1 .035-.008zm.05.098-.003.023-.055.002h-.053l-.02.004-.019.002-.015.004h-.016v.416h.094v-.172l.037.002.035.004.012.002.013.002.012.012.004.007.004.008.002.01.002.008.011.039.006.014.006.013h.104l-.006-.012-.008-.035-.01-.037-.006-.021-.005-.022-.008-.013-.008-.014-.01-.012-.01-.01-.015-.007-.014-.01V8.17l.012-.006.013-.006.012-.006.012-.007.01-.01.007-.014.006-.014.002-.02v-.019l-.002-.013-.002-.014-.007-.014-.008-.013-.012-.012-.01-.01-.013-.006-.016-.007-.018-.004-.017-.006zm-.072.094h.067l.017.003.016.006.014.012.01.012.001.006.004.01v.02l-.006.015-.006.01-.01.005-.01.012-.017.002-.013.008-.04.002h-.04v-.121zM4.203 10.318q-.104.007-.103.053c0 .098-.059.103-.286.025a1.04 1.04 0 0 0-.703-.025.83.83 0 0 0-.574.826c0 .406.176.604.887 1.01.175.102.375.246.437.32.192.214.15.445-.093.547-.417.171-.865-.11-.942-.601-.024-.156-.031-.162-.156-.162h-.133v1.17h.133c.097 0 .137-.02.152-.075.02-.075.024-.075.262 0 .718.222 1.32-.047 1.445-.648.102-.48-.117-.777-.875-1.192-.57-.312-.73-.534-.52-.734a.44.44 0 0 1 .454-.115c.26.067.512.41.512.703 0 .055.031.068.136.068h.137V10.32h-.17zm15.045.584-.037.002c-.078 0-.12.023-.137.078-.024.074-.031.074-.148.012-.172-.086-.626-.105-.852-.031-.246.078-.55.364-.683.633-.086.176-.113.29-.125.554-.02.41.076.71.31.963.512.554 1.467.448 1.815-.2l.074-.143-.096-.075-.092-.078-.18.203c-.27.312-.525.38-.853.235-.32-.148-.478-.58-.396-1.088.086-.554.367-.813.797-.735.18.035.387.241.457.46.05.144.073.168.18.18l.124.013-.02-.246c-.06-.704-.059-.74-.138-.737zm-8.393.034v.138c0 .137.002.143.135.143.113 0 .144.02.176.101.023.054.04.45.04.875s-.018.818-.042.873c-.03.082-.06.102-.174.102-.129 0-.135.008-.135.137v.136h1.17v-.132c0-.13-.007-.138-.144-.149l-.149-.012-.011-.404c-.004-.218.003-.394.02-.39.014 0 .202.243.413.544l.38.543h1.523v-.136c0-.125-.014-.137-.112-.137-.19 0-.2-.043-.2-.703l.003-.604.348.78c.465 1.046.428 1.041.861.058l.33-.74.012.553a7 7 0 0 1-.01.605c-.01.027-.08.051-.158.051-.13 0-.137.008-.137.137v.136h2.225v-.136c0-.125-.008-.137-.117-.137-.074 0-.13-.027-.157-.074-.043-.082-.054-1.636-.015-1.791.02-.067.055-.086.156-.086.125 0 .133-.009.133-.137v-.137h-1.865l-.34.77c-.187.425-.356.787-.371.803-.017.016-.188-.322-.383-.76l-.356-.793-.394-.012-.39-.012v.14c0 .124.007.138.116.138.094 0 .13.023.157.101.024.054.039.45.039.875s-.015.818-.04.873c-.026.082-.061.102-.163.102a.6.6 0 0 1-.254-.078c-.117-.07-.415-.432-.57-.697-.064-.11-.064-.11.077-.204.195-.129.281-.257.309-.472a.64.64 0 0 0-.328-.649c-.18-.102-.204-.106-.895-.117zm8.55 0v.136c0 .132.009.14.15.153l.144.011v1.912l-.144.012c-.14.011-.149.02-.149.149v.132h1.168v-.132c0-.13-.005-.138-.142-.149l-.15-.012-.01-.41c-.013-.488-.04-.5.453.196l.343.488.377.012.381.011v-.133c0-.124-.011-.137-.148-.156-.172-.032-.295-.15-.596-.576-.187-.265-.198-.288-.135-.328.04-.02.128-.09.2-.148.323-.277.236-.844-.159-1.055-.144-.074-.229-.087-.869-.098zm-9.626.005-.955.002v.133c0 .128.009.137.149.149l.144.011.012.934c.01 1.008.012.998-.195.998-.097 0-.112.016-.112.137v.136h1.9l.122-.39.117-.39h-.13c-.1 0-.14.027-.21.136-.156.254-.244.293-.63.293h-.346v-.781h.293c.202 0 .3.017.308.048.011.027.027.097.04.155.02.09.047.11.14.11h.117v-.976h.12c.093 0 .119-.013.099-.064a2 2 0 0 1-.024-.35v-.29zm-5.25.002v.135c0 .13.008.139.133.139q.13.002.156.062c.012.035.024.384.024.778 0 .937.058 1.109.449 1.316.125.067.227.082.508.082.48 0 .676-.1.86-.443.062-.117.079-.252.095-.955l.02-.82.238-.012c.223-.012.242-.004.265.078.04.149.028 1.657-.015 1.763-.027.078-.063.102-.157.102-.11 0-.117.012-.117.137v.136h1.133v-.132c0-.13-.007-.139-.144-.15l-.149-.01-.012-.381-.011-.375.228.002c.403.004.64-.128.768-.444.168-.403-.067-.845-.52-.97-.078-.02-.602-.038-1.164-.038H6.092v.133c0 .128.007.137.148.149l.145.011.011.735c.012.86-.012.947-.28 1.08-.27.129-.544.08-.677-.112-.062-.093-.07-.192-.07-.902v-.8l.149-.012c.137-.012.144-.02.144-.149v-.133H4.53zm11.467.276q.052 0 .137.006l.246.011v1.912h-.256c-.234 0-.251-.007-.275-.097-.043-.152-.04-1.624.004-1.737.026-.073.041-.094.144-.095zm-6.351.029.351.016c.246.008.367.025.406.068a.5.5 0 0 1 .082.186c.023.117.02.128-.074.128-.078 0-.106.024-.125.106a1 1 0 0 1-.04.156c-.008.035-.104.049-.307.049h-.293zm2.212.012a.35.35 0 0 1 .149.043c.18.082.27.363.176.543-.05.094-.24.19-.371.19h-.098v-.366c0-.367.011-.402.144-.41zm8.55 0a.35.35 0 0 1 .15.043c.113.05.214.214.214.343 0 .21-.2.39-.433.39-.066 0-.074-.034-.074-.366 0-.367.01-.402.142-.41zm-12.598.035h.132c.102 0 .16.032.239.125.09.11.106.152.09.312-.023.242-.118.344-.313.344h-.148z"/></svg>