<svg xmlns="http://www.w3.org/2000/svg" viewBox="0 0 24 24"><path d="M10 0a24 24 0 0 0-.447 2.13 10.3 10.3 0 0 0-2.846 1.13A23 23 0 0 0 4.93 2.102L2.102 4.928c.34.582.707 1.137 1.087 1.68a10.3 10.3 0 0 0-1.32 2.988A25 25 0 0 0 .002 10v4c.58.151 1.157.273 1.736.379a10.3 10.3 0 0 0 1.282 3.26 22 22 0 0 0-.918 1.431l2.828 2.828c.48-.278.936-.573 1.383-.88a10.3 10.3 0 0 0 3.34 1.392q.143.795.347 1.59h4c.142-.544.258-1.086.361-1.63a10.3 10.3 0 0 0 3.256-1.407c.472.326.96.641 1.457.935L21.9 19.07a25 25 0 0 0-1.004-1.56 10.3 10.3 0 0 0 1.202-3.108c.633-.111 1.266-.24 1.9-.406V10a24 24 0 0 0-2.03-.43 10.4 10.4 0 0 0-1.241-2.851c.411-.58.806-1.171 1.171-1.8l-2.826-2.817c-.643.376-1.253.785-1.85 1.21a10.3 10.3 0 0 0-2.76-1.138c-.12-.72-.267-1.45-.456-2.174zm2.018 4.701a7.5 7.5 0 0 1 3.05.688 7.6 7.6 0 0 1 3.643 3.55 7.56 7.56 0 0 1 .344 5.82 7.6 7.6 0 0 1-4.053 4.4 7.54 7.54 0 0 1-5.99.08c-1.886-.79-3.455-2.383-4.176-4.34a7.55 7.55 0 0 1 .289-5.946 7.6 7.6 0 0 1 3.824-3.646 7.5 7.5 0 0 1 3.069-.606zm2.41 1.842a1.034 1.034 0 0 0-1.082.734 1.04 1.04 0 0 0 .279 1.05l-.969 1.663a2.07 2.07 0 0 0-2.676.944l-2.06-.811v-.02a.96.96 0 1 0-1.05.858.96.96 0 0 0 .872-.389l2.063.809a2.07 2.07 0 0 0 .7 2.121l-.96 1.496a1.283 1.283 0 1 0 .404.26l.961-1.496a2.08 2.08 0 0 0 2.418-.436l1.2.897a1.518 1.518 0 1 0 2.837.394h.002a1.52 1.52 0 0 0-1.79-1.185 1.5 1.5 0 0 0-.763.404l-1.199-.893a2.077 2.077 0 0 0-.547-2.713l.973-1.664a1.036 1.036 0 1 0 .387-2.023z"/></svg>