<svg xmlns="http://www.w3.org/2000/svg" viewBox="0 0 24 24"><path d="M3.383 0C1.513 0 0 1.547 0 3.455v17.09C0 22.45 1.514 24 3.383 24h17.234C22.487 24 24 22.453 24 20.545V3.453C24 1.547 22.484 0 20.617 0zm4.54 6.79q1.275-.001 2.104.454.828.456.827 1.133 0 .486-.291.764-.292.278-.81.277-.288 0-.937-.19-.649-.188-.98-.189-.544 0-.87.256a.81.81 0 0 0-.323.67q-.001.654 1.43 1.105l.519.162q1.542.517 2.248 1.303.705.787.71 1.96-.008 1.615-1.155 2.614-1.147 1-3.022 1-1.439.001-2.457-.515-1.018-.518-1.018-1.211c-.012-.3.109-.592.329-.797s.511-.303.88-.303q.273-.001 1.145.274.87.274 1.467.273c.318.01.626-.105.863-.318a1.03 1.03 0 0 0 .348-.79 1.04 1.04 0 0 0-.358-.82q-.355-.308-1.52-.662-1.69-.502-2.359-1.191-.67-.69-.67-1.858-.001-1.498 1.084-2.45 1.087-.954 2.817-.952zm6.339 2.886c.254-.01.502.077.695.244q.268.244.514.908l1.343 3.592 1.465-3.793a1.85 1.85 0 0 1 .432-.723.9.9 0 0 1 .63-.228 1.17 1.17 0 0 1 .848.306q.315.306.315.83a1.6 1.6 0 0 1-.05.374l-.005.002a3.5 3.5 0 0 1-.146.45l-3.625 8.62q-.229.545-.465.756a.84.84 0 0 1-.578.21q-.544 0-.862-.31-.319-.31-.322-.842.001-.206.053-.404.053-.215.146-.414l.98-2.125-2.403-5.608a1.3 1.3 0 0 1-.09-.29 2 2 0 0 1-.028-.376 1.15 1.15 0 0 1 .332-.84c.214-.222.512-.346.82-.34z"/></svg>