<svg xmlns="http://www.w3.org/2000/svg" viewBox="0 0 24 24"><path d="m7.295 0-.01.002-.037.004q-.015-.001-.03.004-.015.004-.029.01l-.033.01-.008.004L2.824 2.2l-.015.012a.3.3 0 0 0-.077.06.3.3 0 0 0-.052.079.4.4 0 0 0-.024.058.3.3 0 0 0-.01.067l-.001.02.005 10.107v.02l.002.009q0 .022.006.043l.002.01.004.01a.3.3 0 0 0 .02.054h.002q.014.027.03.05l.007.01.006.006.03.034.007.006.01.007.005.004 4.7 3.908-.108 2.674v.037l.006.026.002.015q0 .008.004.014l.002.012.002.006.002.01q.007.02.017.038v.002a.3.3 0 0 0 .031.05l.006.007.004.006a.3.3 0 0 0 .037.039l.006.004.002.002.004.004 5.316 4.21c.1.079.236.093.35.036l7.988-4 .004-.002a.3.3 0 0 0 .045-.03l.014-.01.037-.034.004-.004.031-.047.008-.014.02-.04.003-.01a.3.3 0 0 0 .012-.055v-.016l.004-.025.004-.153-5.225-4.28.024-12.91-.149-.11-.004-.004-.033-.02-.021-.014-.032-.01-.029-.009-.025-.006-.04-.004h-.027l-.037.004-.03.008q-.015.003-.03.01l-.03.011-.029.014-.014.012q-.018.004-.035.012L12.13 3.955l.719.57.027 10.067-5.246-4.32-.002-5.24L7.623.327l-.002-.01-.004-.035q.001-.015-.004-.03l-.008-.03Q7.6.207 7.59.189L7.588.182l-.01-.016Q7.57.15 7.558.135L7.54.11a.4.4 0 0 0-.072-.06L7.439.035 7.41.021a.4.4 0 0 0-.06-.015L7.314.002zm-.44.914.08 9.342-.734.365-.078-9.34zm-1.414.709.024 2.393-1.547-1.237v1.1l1.555 1.234.023 1.184L3.9 5.02v1.1l1.604 1.275-.006 1.283-1.572-1.256v1.1l1.58 1.255.01 1.188-.041.02-1.657-1.28v1.102l.844.584-1.39.699-.006-9.377zm3.174 2.328v1.592l1.31 1.025V4.977zm2.403 1.865v4.436c.507.2 1.027-.198 1.027-1.363s-.52-2.427-1.027-3.073zm-2.403.99.002 1.59 1.309 1.026V7.83zm9.026 2.05c-.326-.002-.54.275-.54.789 0 .823.545 1.946 1.225 2.5l.637.515v.5a.55.55 0 0 0 .18.371l2.033 1.682c.1.083.18.052.18-.07V11.16a.54.54 0 0 0-.18-.369l-2.033-1.682c-.1-.083-.18-.051-.18.07v.503l-.637-.516c-.254-.21-.49-.31-.685-.31zm.359.876c.103 0 .229.053.363.164l.6.487v1.576l-.6-.486c-.358-.296-.648-.888-.648-1.323 0-.271.113-.418.285-.418zM7.268 10.82l5.308 4.366-3.668 1.837L3.6 12.658z"/></svg>