<svg xmlns="http://www.w3.org/2000/svg" viewBox="0 0 24 24"><path d="M12 0c-.304 0-.604.015-.904.037v23.926q.447.034.902.037h.004c.303 0 .602-.016.898-.037V.037A12 12 0 0 0 12 0zm5.158 1.168c-1.756 3.957-2.844 8.164-2.844 10.814 0 2.564 1.177 6.82 2.965 10.797a12 12 0 0 0 1.576-.93c-1.655-3.722-2.736-7.616-2.736-9.87 0-2.336 1.043-6.22 2.647-9.89a12 12 0 0 0-1.608-.921zm-10.347.008a12 12 0 0 0-1.584.918c1.608 3.668 2.646 7.552 2.646 9.885 0 2.254-1.08 6.145-2.734 9.865a12 12 0 0 0 1.576.93c1.79-3.976 2.962-8.227 2.963-10.794 0-2.664-1.13-6.896-2.867-10.804zM21.848 5.14l-.26.257c-2.74 2.766-4.063 4.921-4.047 6.584s1.331 3.81 4.027 6.522h.002l.31.307a12 12 0 0 0 .936-1.612c-1.866-1.893-3.457-3.937-3.47-5.232-.012-1.264 1.571-3.309 3.447-5.223a12 12 0 0 0-.945-1.603zM2.15 5.146a12 12 0 0 0-.945 1.608c3.123 3.173 3.451 4.704 3.447 5.217-.012 1.3-1.601 3.34-3.468 5.228a12 12 0 0 0 .937 1.61c.106-.106.208-.205.31-.309 2.695-2.711 4.01-4.842 4.026-6.516S5.149 8.175 2.41 5.404z"/></svg>