<svg xmlns="http://www.w3.org/2000/svg" viewBox="0 0 24 24"><path d="M13.912 0a8.72 8.72 0 0 0-8.308 6.139 10.2 10.2 0 0 1 3.341-.977c2.415-3.363 7.401-3.41 9.881-.096s1.025 8.084-2.883 9.45a6.1 6.1 0 0 1-.3 2.761 8.7 8.7 0 0 0 3.01-1.224A8.72 8.72 0 0 0 13.912 0zm.082 6.451a2.284 2.284 0 1 0-.15 4.567 2.284 2.284 0 0 0 .15-4.567zm-5.629.27a8.7 8.7 0 0 0-3.031 1.234 8.72 8.72 0 1 0 13.06 9.914 10.2 10.2 0 0 1-3.343.965A6.125 6.125 0 1 1 8.023 9.49a6.114 6.115 0 0 1 .342-2.77zm1.713 6.27a2.284 2.284 0 0 0-2.283 2.282 2.284 2.284 0 0 0 2.283 2.286 2.284 2.284 0 0 0 2.283-2.286 2.284 2.284 0 0 0-2.283-2.283z"/></svg>