<svg xmlns="http://www.w3.org/2000/svg" viewBox="0 0 24 24"><path d="M1.047 4.475C.436 4.475 0 4.91 0 5.563v10.285c0 2.393 1.37 3.656 3.7 3.656.485 0 .97-.08 1.43-.24h.005a3.5 3.5 0 0 0 1.81-1.516c1.034 1.117 2.566 1.775 4.48 1.775 1 0 1.867-.193 2.65-.605h.003c1.588-.827 2.72-2.502 3.502-5.068l.457-1.5-.016-.024c.306.414.738.81 1.323 1.219l1.63 1.13c.245.17.464.34.669.51.289.323.378.67.378 1.079 0 .935-.74 1.564-1.806 1.564-1.022 0-1.893-.521-2.371-.521s-.807.325-.807.804c0 .348.175.63.633.848.63.304 1.652.566 2.566.566 1.153 0 2.111-.348 2.785-.957a2 2 0 0 0 .157-.162A3.1 3.1 0 0 0 24 16.262c0-1.305-.521-2.174-1.826-3.088l-1.785-1.24c-.033-.022-.06-.046-.092-.069-.63-.473-.91-.911-.91-1.43 0-.695.567-1.128 1.37-1.128 1.023 0 1.502.476 2.11.476.48 0 .807-.326.807-.804 0-.348-.174-.631-.631-.848-.718-.348-1.505-.48-2.352-.48-.892 0-1.675.262-2.24.697a4 4 0 0 0-.326.283l-.008.01c-.65.695-1.19 1.713-1.623 3.144l-.502 1.652c-.893 2.912-2.306 4.303-4.504 4.303-2.406 0-3.927-1.663-3.937-4.127v-.025c0-2.467 1.509-4.159 3.69-4.174l.03-.002a4.9 4.9 0 0 1 2.088.457c.282.13.523.176.74.176.1 0 .193-.017.28-.041.362-.103.592-.408.592-.83 0-.326-.196-.654-.653-.871-.827-.414-1.895-.653-3.047-.653-.86 0-1.653.152-2.359.436-2.117.85-3.451 2.886-3.451 5.545l.002-.024v.024c0 .93.168 1.784.478 2.537-.452.985-1.143 1.508-2.046 1.508-1.087 0-1.803-.63-1.805-2.06v-6.14h2.545c.588 0 .978-.347.978-.847s-.388-.848-.978-.848H2.09V5.563c0-.653-.434-1.088-1.043-1.088z"/></svg>