<svg xmlns="http://www.w3.org/2000/svg" viewBox="0 0 24 24"><path d="M11.621 8.791c-1.018 0-2.012.308-2.012 1.326 0 1.752 3.079.83 3.079 1.895 0 .355-.545.498-.971.498-.782 0-1.35-.12-2.037-.522v.877c.52.166 1.207.26 1.988.26 1.066 0 2.06-.284 2.06-1.303 0-1.847-3.078-1.018-3.078-1.918 0-.355.498-.498.924-.498.734 0 1.515.215 1.942.617v-.947h-.047a7 7 0 0 0-1.848-.285zm9.733 0c-1.61.024-2.723.924-2.723 2.227 0 1.255 1.018 2.107 2.51 2.107 1.586 0 2.699-.9 2.699-2.203 0-1.279-.995-2.131-2.486-2.131zm-4.311.023c-1.847 0-3.055.877-3.055 2.227 0 1.231 1.114 2.06 2.795 2.06.545 0 1.018-.07 1.586-.212v-1.043c-.402.426-.875.591-1.396.591-.995 0-1.659-.615-1.659-1.515 0-.876.711-1.516 1.682-1.516.545 0 .971.19 1.303.522v-.994c-.355-.095-.804-.12-1.254-.12zM.16 8.934v.994c.355-.26 1.066-.38 1.848-.38v2.7c0 .403-.026.498-.215.711h1.564c-.165-.213-.212-.332-.212-.711V9.525h.046c.687 0 1.493.119 1.848.403v-.994zm5.305 0c.166.213.19.332.19.71v2.604c0 .403-.024.521-.19.711H9.23v-.97c-.52.378-1.492.378-1.894.355H6.79V11.23h.402c.285 0 .757.025 1.041.12v-.83c-.284.094-.78.119-1.04.119H6.79V9.572h.545c.497 0 1.348.095 1.656.38V8.933zm15.746.498c.829 0 1.375.686 1.375 1.539.024.829-.52 1.515-1.35 1.515-.852 0-1.398-.686-1.398-1.515 0-.853.544-1.54 1.373-1.54zM1.84 14.119c-.497 0-.876.26-1.066.45 0 0-.45.45-.757.617-.024 0-.024.023 0 .023h2.795c.544 0 .805-.19 1.136-.475 0 0 .473-.45.828-.591.024 0 .024-.024 0-.024zm4.807 0c-.497 0-.875.26-1.04.45 0 0-.452.45-.76.617-.024 0-.024.023 0 .023h2.795c.544 0 .805-.19 1.136-.475 0 0 .473-.45.805-.591.024 0 .024-.024 0-.024zm4.784 0c-.474 0-.852.26-1.041.45 0 0-.45.45-.758.617-.024 0-.024.023 0 .023h2.793c.544 0 .805-.19 1.136-.475 0 0 .476-.45.807-.591.024 0 .024-.024 0-.024zm4.806 0c-.473 0-.851.26-1.04.45 0 0-.45.45-.759.617-.023 0-.023.023 0 .023h2.795c.545 0 .804-.19 1.135-.475 0 0 .475-.45.807-.591.024 0 .024-.024 0-.024zm4.809 0c-.474 0-.853.26-1.067.45 0 0-.45.45-.757.617-.024 0-.024.023 0 .023h2.818c.545 0 .805-.19 1.137-.475 0 0 .473-.45.804-.591.024 0 .024-.024 0-.024z"/></svg>