<svg xmlns="http://www.w3.org/2000/svg" viewBox="0 0 24 24"><path d="M0 8.842v1.082h1.984v5.23h1.082v-5.23h1.987V8.842zm18.95.002a.541.541 0 0 0 0 1.082.541.541 0 0 0 0-1.082zm-3.606.002v1.623h-1.262v1.084h1.262v1.533c0 1.086 1.117 2.074 2.344 2.074v-1.084c-.68 0-1.262-.544-1.262-.99v-1.533h1.263v-1.084h-1.263V8.846zm6.717 1.615c-1.02 0-1.848.825-1.848 1.838v2.855h1.082V12.3c0-.417.345-.754.767-.754.44 0 .858.366.858.754v2.855H24V12.3c0-.996-.888-1.838-1.94-1.838zm-3.655.004v4.69h1.084v-4.69zm-7.488.004c-.429 0-.75.146-1.018.414a1.5 1.5 0 0 0-.435 1.045c0 .787.639 1.427 1.426 1.427h1.697c.212 0 .385.17.385.377 0 .19-.159.344-.352.344H9.72v1.084h2.902c.79 0 1.434-.64 1.434-1.426 0-.806-.658-1.463-1.467-1.463H10.89a.344.344 0 0 1-.344-.343.4.4 0 0 1 .117-.28.32.32 0 0 1 .225-.097h2.468v-1.082zm-4.426.004c-1.539 0-2.346 1.18-2.346 2.345 0 .577.167 1.113.471 1.512.287.378.847.83 1.875.83h2.172v-1.084H6.492c-.72 0-1.047-.326-1.181-.717h3.527s.087-.909-.326-1.697c-.403-.769-1.123-1.19-2.02-1.19zm0 1.082c.655 0 .971.417 1.123.767H5.318c.127-.356.434-.767 1.174-.767z"/></svg>