<svg xmlns="http://www.w3.org/2000/svg" viewBox="0 0 24 24"><path d="M12.566.004a11 11 0 0 0-.61.002C5.425-.151-.09 5.485.007 11.805c-.235 6.756 5.536 12.251 12.05 12.197 6.563-.101 11.854-5.408 11.942-11.973C24.03 5.687 18.845.174 12.566.004zm-.66 1.701h.002a10.276 10.276 0 0 1 7.36 17.53 10.275 10.275 0 0 1-17.555-7.288C1.71 6.307 6.267 1.727 11.906 1.705zM6.357 6.486c-.322 0-.357.034-.357.362v2.248c0 .35.04.39.398.39h3.823c.274 0 .273.005.273.266v9.736a.18.18 0 0 0 .053.147q.062.059.146.052h2.555c.247-.003.283-.036.283-.28v-9.32c0-.123.004-.239 0-.39-.004-.15.056-.21.219-.21h3.9c.32.003.35-.032.35-.344V6.855c0-.34-.023-.363-.37-.363h-5.626z"/></svg>