<svg xmlns="http://www.w3.org/2000/svg" viewBox="0 0 24 24"><path d="M.38 0a.268.268 0 0 0-.257.332l2.895 11.717.01.039 2.89 11.709a.268.268 0 0 0 .447.127L23.803 7.15a.268.268 0 0 0-.114-.45l-5.783-1.667a.3.3 0 0 0-.123-.035L6.381 1.715a.27.27 0 0 0-.145-.04L.456.01A.3.3 0 0 0 .38 0zm.374.654L5.71 2.08 1.99 5.664zM6.609 2.34l4.866 1.4-3.65 3.516zm-.521.12 1.217 4.927-4.877-1.4zm6.28 1.538 4.878 1.404-3.662 3.53zm-.52.13 1.209 4.9-4.854-1.391zm6.3 1.534 4.948 1.424-3.715 3.574zm-.525.12 1.217 4.925-4.877-1.396zm-15.432.697 4.965 1.423-3.726 3.586zM8.047 8.15l4.877 1.4-3.66 3.526zm-.518.137 1.237 5.018-4.963-1.434zm6.274 1.535 4.965 1.424-3.73 3.586zm-.52.127 1.235 5.012-4.957-1.43zm-9.63 2.438 4.872 1.406-3.656 3.523zm5.855 1.687 4.861 1.403-3.646 3.51zm-.541.04 1.215 4.927-4.875-1.4zm-3.897 4.02 5.037 1.442-3.78 3.639z"/></svg>