<svg xmlns="http://www.w3.org/2000/svg" viewBox="0 0 24 24"><path d="M17.352.512c-3.355 0-6.649 1.29-7.405 3.93v.001h-.004c-1.92.788-2.125 2.551-1.816 3.5v.02C9.237 7.18 10.658 6.76 12 6.76c3.26 0 5.902 2.155 5.902 4.814S15.26 16.391 12 16.391l-.082-.002c-.155-.006-.355-.012-.436.119-.096.156.117.396.239.535 1.274 1.441 3.122 1.622 3.607 1.67l.076.008c-4.28.414-9.304-2.32-9.306-7.076 0-1.12.415-2.074 1.076-2.83l-.006-.002h-.004C7.31 6.38 6.376 3.47 4.63 2.898c-.124-.04-.246.053-.262.182-.23 1.924-.726 2.59-1.263 3.31-.805 1.08-1.39 2.33-1.366 3.7a11 11 0 0 1-.705-1.91C1.01 8.09.863 7.813.7 7.906c-.13.072-.226.276-.295.487A12 12 0 0 0 0 11.488c0 6.536 5.475 12 12 12 6.627 0 12-5.372 12-12 0-2.526-.781-4.87-2.115-6.804l.168-.002q.778.002 1.51.129c-.734-.816-1.724-1.476-2.877-1.905a8.5 8.5 0 0 1 2.494-.494c-1.426-1.166-3.51-1.9-5.828-1.9zM12.873 3.3c.353.017.531.226.531.226s.055.626-.576.825c-.722.227-1.043-.381-1.043-.381s.092-.417.678-.61c.156-.051.292-.066.41-.06zm3.813 6.394-.213.02-3.996 3.033a.895.895 0 0 1-1.043.004l-4.075-3.04-.203-.012s2.605 3.005 3.475 3.91c.869.905 1.606.955 2.57-.013.965-.965 3.485-3.9 3.485-3.9z"/></svg>