<svg xmlns="http://www.w3.org/2000/svg" viewBox="0 0 24 24"><path d="M12 0 1.77 6v12L12 24l10.23-6V6zm4.17 7.313c.34.054.603.528.797.78.397-.015.772.088 1.146.202.678-.1 1.247-.487 1.846-.79-.607.506-.688 1.327-.62 2.087.027.394-.083.822-.218 1.226-.253.657-.74 1.35-1.307 1.315-.214-.007-.339-.13-.498-.262-.03.267-.15.506-.267.742-.27.525-.976.755-1.63 1.315-.652.56.21 2.56.419 2.924.209.365.791.499.564.828-.068.109-.174.146-.287.19l-.154.019c-.67-.02-.966-.017-1.307-.59l-.267.008-.389-.02c-.345-.014-.29-.348-.35-.525-.098-.602.129-1.206.122-1.807-.002-.214-.299-.968-.405-1.238-.33.063-.664.075-1 .092-.775-.002-1.545-.098-2.31-.221-.15.628-.592 1.506-.227 2.144.445.66.757.841 1.24.881s.593.597.477.797c-.104.137-.286.162-.44.195l-.31.016a1.7 1.7 0 0 1-.678-.18c-.362-.206-.735-.635-1.012-.943.064.123.102.364.043.475-.164.238-.873.236-1.199.09-.369-.168-1.262-1.344-1.4-2.225.368-.708.904-1.327 1.174-2.098a1.87 1.87 0 0 1-.866-1.719l.014-.082c-.58.111-.277.072-.902.12-1.988-.006-3.737-1.384-2.752-3.522.064-.127.122-.24.232-.185.086.044.075.22.031.416-.563 2.555 2.19 2.574 3.88 2.101.167-.047.5-.362.732-.467.378-.17.788-.24 1.195-.29 1.013-.118 2.23.427 2.85.445.618.018 1.497-.153 2.037-.118a5.4 5.4 0 0 1 1.154.194c.245-1.216.262-2.113.842-2.32zm-8.04 7.312c-.11.226-.246.446-.321.684-.088.32.388.667.572.865l.062.055v.001l.104.026c.13-.051.391.028.53.066-.256-.247-.64-.61-.919-.838-.09-.277-.051-.554-.031-.836z"/></svg>