<svg xmlns="http://www.w3.org/2000/svg" viewBox="0 0 24 24"><path d="M12 0C5.384 0 0 5.384 0 12s5.384 12 12 12 12-5.384 12-12S18.616 0 12 0zm0 .775C18.192.775 23.225 5.808 23.225 12S18.192 23.225 12 23.225.775 18.192.775 12 5.808.775 12 .775zM8.902 6.584c-1.359.001-2.517 1.161-2.517 3.287l1.351.193c.192-1.352.576-1.935 1.352-1.935s1.166.19 2.52.967c1.35.776 1.735.968 3.095.968s2.714-.969 2.522-3.289h-1.356c0 1.16-.38 1.745-1.156 1.745s-1.171-.191-2.715-.967-1.736-.969-3.094-.969zm2.13 3.48v8.905h1.552v-8.32z"/></svg>