<svg xmlns="http://www.w3.org/2000/svg" viewBox="0 0 24 24"><path d="M16.512 0a12.4 12.4 0 0 0-4 4.36l.64-2.55a14.6 14.6 0 0 0-1.884 5.276l-1.026-.477c.56 1.44.66 2.56.08 3-2.26 1.87-6 4-6 7.11 0 3.32 2.002 6.91 7.051 7.18a13 13 0 0 1-1.701-.561 3.45 3.45 0 0 1-1.309-.9l-.13-.141a9.34 9.34 0 0 1-2-3.639 2.7 2.7 0 0 1-.08-1.52 6.68 6.68 0 0 1 3.28-4 10 10 0 0 0 .999-.609c.47-.29.77-1.531 1.08-2.531-.16.77-.339 2.26-1.059 2.82-.29.22-.61.431-.93.641-1.28.88-2.54 1.699-3.17 3.809a2.8 2.8 0 0 0 .08 1.38 9.3 9.3 0 0 0 1.95 3.51s.13.13.13.16a3 3 0 0 0 1.94 1.149c-.29-.16-.53-.349-.74-.479a4.36 4.36 0 0 1-2-3.6 3.7 3.7 0 0 1 2.18-3.39 3.58 3.58 0 0 0 1.68-2.379 3.12 3.12 0 0 1-1.59 2.5 4 4 0 0 0-2.1 3.168 5.66 5.66 0 0 0 1.89 3.4 4.1 4.1 0 0 0 1.59.721 3 3 0 0 1-.48-.5 5 5 0 0 1-.451-1 3 3 0 0 1-.27-1 3.6 3.6 0 0 1 .64-2.37 2.84 2.84 0 0 0 .901-1.35 2.87 2.87 0 0 1-.72 1.51 3 3 0 0 0-.561 2.24 4 4 0 0 0 .29.93 4 4 0 0 0 .51 1c.18.21.26.37.55.48a6.5 6.5 0 0 0 .49-2.35 9.5 9.5 0 0 0 0-1.76c-.13-.8-.399-1.6-.399-2.24.12.59.43 1.38.61 2.209a5.6 5.6 0 0 1 .109 1.73c0 .56-.08 1-.16 1.49a2 2 0 0 1-.45.93 3.2 3.2 0 0 0 1.11-2 7.9 7.9 0 0 0 .32-2.359 6.6 6.6 0 0 0-.42-2 12 12 0 0 0-.75-1.44 6.2 6.2 0 0 1-.16-2.07 7 7 0 0 0 .32 1.94 11 11 0 0 1 .69 1.3 9 9 0 0 1 .59 2.27 10.4 10.4 0 0 1-.35 3 5 5 0 0 1-.4 1 4.9 4.9 0 0 0 .701-1.52 12.4 12.4 0 0 0 .36-4.48 11.6 11.6 0 0 0-.462-1.889c-.44-1.2-1.068-2.23-1.148-2.47a16.2 16.2 0 0 1-.39-3.36 14.3 14.3 0 0 0 .439 3.12c.08.24.8 1.38 1.3 2.58a7.5 7.5 0 0 1 .481 1.73 10.7 10.7 0 0 1-.531 5.158 4 4 0 0 1-.35.82 3.7 3.7 0 0 0 .801-1.41 16.14 16.14 0 0 0 0-8.109c-.42-1.28-1.41-2.4-1.65-3.17a7.7 7.7 0 0 1-.08-2.387V7.61a33 33 0 0 1 5.59-6.468 8.42 8.42 0 0 0-4.471 3.119 21.4 21.4 0 0 1 3-4.26zm-3.88 7.69a6.4 6.4 0 0 0 .161 2.388c.24.75 1 1.601 1.52 2.8a18 18 0 0 1 .718 2.92 13.2 13.2 0 0 1-.539 6.12 4.26 4.26 0 0 1-1.43 1.92l-.24.16c4.16.13 8.828-4.63 5.979-9.789-.82-1.52-2.92-3.01-5.13-4.39-.51-.3-.608-1.41-.528-1.89z"/></svg>