<svg xmlns="http://www.w3.org/2000/svg" viewBox="0 0 24 24"><path d="M11.193 0 9.705 2.576a9.324 9.324 0 0 0-7.13 12.36L8.892 3.988l.293.162L11.482.168zM9.186 4.15 2.73 15.332l-.609 1.057a9.34 9.34 0 0 0 3.818 4.804l-1.521 2.641.287.166 2.305-3.986a9.37 9.37 0 0 0 6.064.904l6.322-10.945.288.168-6.168 10.681-.965 1.67a9.32 9.32 0 0 0 7.55-7.555 9.27 9.27 0 0 0-.413-4.8l2.298-3.983-.289-.168-1.556 2.694a9.34 9.34 0 0 0-3.817-4.807l-.775 1.344-8.543 14.795-.291-.166 8.54-14.79a9.37 9.37 0 0 0-6.07-.906z"/></svg>