<svg xmlns="http://www.w3.org/2000/svg" viewBox="0 0 24 24"><path d="M17.695 8.938a.668.668 0 0 0 .096 1.328.67.67 0 0 0 .668-.668.668.668 0 0 0-.764-.66zm-4.394.28v1.122h.75v3.473h-.75v1.119h2.625v-1.12h-.75V9.22zM.752 9.34v1.38H0v1.128h.752v1.086c0 1.18.949 2.136 2.121 2.136a2 2 0 0 0 .461-.05v-1.116a1.1 1.1 0 0 1-.383.069c-.596 0-1.078-.47-1.078-1.047v-1.078h1.463V10.72H1.87V9.34zm20.92 1.26c-1.115-.005-2.02.981-2.02 2.191s.905 2.194 2.02 2.19l.088-.002c.422-.012.874-.21 1.111-.489v.422H24v-4.246h-1.127l-.002.424c-.238-.28-.69-.476-1.111-.486q-.045-.003-.088-.002zm-14.824.046c-.518.003-.928.154-1.297.655l-.229-.639H4.225v1.127h.52v3.145H5.86v-2.2a.99.99 0 0 1 .987-.99h.338v-1.098zm9.654.047v1.118h.75v3.12h1.875v-1.117h-.752l.002-3.12zm-8.262.032v2.21c0 1.178.951 2.133 2.121 2.133s2.12-.953 2.12-2.13v-2.213h-1.12v2.254a1.002 1.002 0 1 1-2.002 0v-2.254zm13.586.97c.593 0 1.076.501 1.076 1.12 0 .618-.483 1.119-1.076 1.119s-1.073-.501-1.074-1.12c0-.618.48-1.119 1.074-1.119z"/></svg>