<svg xmlns="http://www.w3.org/2000/svg" viewBox="0 0 24 24"><path d="M.736 0A.737.737 0 0 0 0 .736v3.092h12a8.177 8.177 0 0 1 6.803 12.705h5.177V.736A.733.733 0 0 0 23.268 0zm12.041 4.873a.9.9 0 0 0-.455.041.84.84 0 0 0-.322.203.89.89 0 0 0-.207.928 13 13 0 0 1 .426 1.406 8 8 0 0 1 .127.912 3.4 3.4 0 0 0-.916.024A9.8 9.8 0 0 0 9.113 6.42a.884.884 0 0 0-.945 1.494A8.8 8.8 0 0 1 9.723 9.11a3.7 3.7 0 0 0-.727.756 9.5 9.5 0 0 0-3.557.69.882.882 0 0 0 .606 1.656 9.3 9.3 0 0 1 2.318-.57c0 .12-.02.24-.02.359a4 4 0 0 0 .044.557A9.7 9.7 0 0 0 6.42 14.87a.88.88 0 0 0 .744 1.356.88.88 0 0 0 .75-.399 8.6 8.6 0 0 1 1.195-1.55 4 4 0 0 0 .756.726 7 7 0 0 0 .127 1.54 12 12 0 0 0 .563 2.01.88.88 0 0 0 .824.563.9.9 0 0 0 .303-.053.9.9 0 0 0 .318-.207.88.88 0 0 0 .207-.923c-.076-.215-.147-.399-.207-.614q-.132-.422-.215-.797a7 7 0 0 1-.144-.87H12a4 4 0 0 0 .563-.04 9.7 9.7 0 0 0 2.308 1.963.882.882 0 1 0 .945-1.49 9 9 0 0 1-1.55-1.215 3.7 3.7 0 0 0 .724-.756h.203a10 10 0 0 0 3.35-.69.884.884 0 0 0-.602-1.66v.028a9.2 9.2 0 0 1-2.28.553 4 4 0 0 0-.024-.92A9.7 9.7 0 0 0 17.6 9.113a.882.882 0 0 0-1.49-.945 8.8 8.8 0 0 1-1.215 1.55 3.6 3.6 0 0 0-.756-.722 7.3 7.3 0 0 0-.123-1.545 12.4 12.4 0 0 0-.563-2.012.88.88 0 0 0-.676-.566zM0 7.467v15.8A.733.733 0 0 0 .736 24h22.532a.733.733 0 0 0 .732-.732v-3.096H12A8.173 8.173 0 0 1 3.828 12a8.15 8.15 0 0 1 1.37-4.533zm11.984 2.566h.159a2 2 0 0 1 .302.047 2 2 0 0 1 1.05.645 2 2 0 0 1 .173.244A2 2 0 0 1 13.975 12h-.016v.16a1.95 1.95 0 0 1-.693 1.35 2 2 0 0 1-.243.176 2 2 0 0 1-1.03.289h-.161a1.95 1.95 0 0 1-1.346-.688 2 2 0 0 1-.18-.248 2 2 0 0 1-.29-1.031v-.158a2 2 0 0 1 .048-.3 2 2 0 0 1 .641-1.048 3 3 0 0 1 .248-.178 2 2 0 0 1 1.031-.29z"/></svg>