<svg xmlns="http://www.w3.org/2000/svg" viewBox="0 0 24 24"><path d="M13.49 9.307c-.612 0-.972.367-.972 1.002v.392h-.383v.572h.383v2.286h.638v-2.286h.621v-.572h-.62v-.447c0-.286.117-.385.382-.385.1 0 .19.027.31.069l.145-.538c-.117-.067-.35-.093-.504-.093zM0 9.557v.62h1.18v3.382h.67v-3.381h1.166v-.621zm7.498 1.1c-.324 0-.647.187-.773.482V10.7h-.64v3.98h.64v-1.42c.135.205.445.34.72.34.85 0 1.3-.632 1.3-1.48-.005-.842-.446-1.464-1.247-1.464zm8.004 0c-.846 0-1.418.642-1.418 1.456 0 .845.58 1.477 1.418 1.477.85 0 1.432-.65 1.432-1.477-.004-.818-.595-1.457-1.432-1.457zm3.602 0c-.45 0-.775.308-.965.706V10.7h-.31v.002h-.323v2.858h.639v-1.096c0-.693.305-1.162.76-1.162a.8.8 0 0 1 .324.049l.1-.676a2 2 0 0 0-.225-.018zm-8.495.003c-.82 0-1.373.666-1.373 1.457 0 .828.545 1.477 1.36 1.477.567 0 .928-.228 1.21-.559l-.31-.42c-.329.335-.53.42-.846.42-.333 0-.581-.169-.685-.514.847-.036 1.676-.242 1.676-.988 0-.43-.425-.873-1.032-.873zm10.65 0c-.364 0-.73.232-.927.666v-.625h-.64v2.858h.64v-1.221c0-.617.325-1.113.766-1.113.36 0 .425.245.425.822v1.515h.641l-.006-1.224c0-.617.33-1.113.772-1.113.36 0 .431.245.431.822v1.515H24v-1.914c0-.689-.473-.988-.91-.988-.386 0-.742.243-.94.69a.9.9 0 0 0-.89-.69zm-16.318.037-.738 2.012-.826-2.008h-.738L3.86 13.51c-.234.519-.36.646-.521.646-.171 0-.332-.137-.45-.258l-.324.43c.22.232.522.365.832.365.387 0 .685-.223.856-.625l1.414-3.37zm2.432.528c.477 0 .701.378.701.892 0 .537-.233.918-.701.918-.473 0-.67-.385-.67-.918 0-.527.202-.892.67-.892zm3.24 0c.292 0 .414.171.414.318 0 .357-.364.513-1.125.535 0-.442.252-.853.711-.853zm4.889 0c.513 0 .756.405.756.892-.004.515-.261.918-.756.918-.5 0-.756-.412-.756-.918 0-.505.252-.892.756-.892z"/></svg>