<svg xmlns="http://www.w3.org/2000/svg" viewBox="0 0 24 24"><path d="M12 0C7.502 3 6.002 3 1.5 3c0 15.002 0 15.002 10.5 21 10.5-5.998 10.5-5.998 10.5-21-4.498 0-5.998 0-10.5-3zM5.955 7.473H7.47v4.535c0 1.322.19 1.508 1.511 1.508 1.323 0 1.512-.19 1.512-1.512V7.473H12v.765a3.75 3.75 0 0 1 2.268-.765 3.79 3.79 0 0 1 3.777 3.779 3.79 3.79 0 0 1-3.781 3.775 3.765 3.764 0 0 1-2.684-1.132c-.464.77-1.315 1.132-2.6 1.132-2.079 0-3.025-.944-3.025-3.023zm8.309 1.511A2.254 2.254 0 0 0 12 11.252a2.254 2.254 0 0 0 2.268 2.264 2.254 2.254 0 0 0 2.263-2.268 2.254 2.254 0 0 0-2.267-2.264z"/></svg>