<svg xmlns="http://www.w3.org/2000/svg" viewBox="0 0 24 24"><path d="M12 0C5.373 0 0 5.372 0 12c0 6.627 5.373 12 12 12s12-5.373 12-12c0-6.628-5.373-12-12-12zm2.006 3.244L18.668 6 14 8.756zM12 4.66c.342 0 .677.027 1.006.072v1.022A6.33 6.33 0 0 0 6.119 9.63l-.863-.512C6.379 6.502 8.978 4.66 12 4.66zm0 2.494c.342 0 .677.043 1 .112V8.3a4 4 0 0 0-1-.13 3.81 3.81 0 0 0-3.672 2.76l-.896-.53A4.855 4.855 0 0 1 12 7.155zm5.885.465A7.3 7.3 0 0 1 19.34 12a7.3 7.3 0 0 1-1.5 4.438l-.87-.516A6.3 6.3 0 0 0 18.329 12a6.3 6.3 0 0 0-1.312-3.865zm-2.17 1.285a4.81 4.81 0 0 1-.047 6.25l-.893-.525A3.8 3.8 0 0 0 15.828 12c0-.996-.378-1.9-.996-2.578zm-12.21.34L8.169 12 3.5 14.756zm4.823 3.822A3.81 3.81 0 0 0 12 15.822c.346 0 .681-.046 1-.129v1.041a4.8 4.8 0 0 1-1 .11c-2.106 0-3.906-1.362-4.568-3.25zM6.12 14.37A6.33 6.33 0 0 0 12 18.33q.509-.001.994-.079v1.016a7 7 0 0 1-.994.074c-3.022 0-5.621-1.842-6.744-4.46zm7.881.963 4.66 2.75-4.666 2.758z"/></svg>