<svg xmlns="http://www.w3.org/2000/svg" viewBox="0 0 24 24"><path d="M11.94 0S6.461 6.106 8.884 14.953c-6.99.964-4.454 6.363-3.346 7.139.052.037.096.017.025-.092-.393-.603-1.49-2.71.774-4.732C7.553 16.184 10.1 15.9 10.1 15.9c-.58-4.248-.54-8.085 2.363-12.332.37.246 4.615 2.113 4.775 8.397.355 3.94-1.69 7.094-3.675 8.322-3.52 1.888-7.47 2.814-10.903 3.62-.29.068-.176.099.018.091 8.156-.343 15.405-4.01 18.193-7.512.537-.673.778-1.414.416-1.824-.36-.41-1.016.245-1.162.422-.672.809-1.35 1.594-2.1 2.195-.108.086-.176.08-.093-.011 2.653-2.896 5.536-9.313 1.8-15.64 0 0-1.476 1.02-2.689 3.134-1.196-1.84-2.938-3.383-5.104-4.762zm7.585 4.191s1.659 4.245.204 8.606c-.9 2.698-1.976 4.327-2.553 5.027-.13.156-.243.207-.172.112 1.36-1.834 2.109-4.75 1.805-7.995a11.6 11.6 0 0 0-.873-3.51c.784-1.633 1.59-2.24 1.59-2.24z"/></svg>