<svg xmlns="http://www.w3.org/2000/svg" viewBox="0 0 24 24"><path d="m3.945 9.727-1.402.283c.089.186.146.411.146.742 0 .606-.429 1.495-.777 2.06l-.373-2.99L0 9.97l.705 4.2h1.758c.77-1.01 1.717-2.448 1.717-3.554a1.6 1.6 0 0 0-.235-.888zm2.836.015c-1.604 0-2.38 1.39-2.38 2.697 0 1.01.478 1.819 1.814 1.819.527 0 1.07-.114 1.418-.283l.185-1.26c-.494.25-.874.348-1.271.348-.365 0-.64-.195-.64-.688.825-.008 2.251-.347 2.251-1.453 0-.687-.494-1.18-1.377-1.18zm4.79 0c-.576 0-.98.218-1.288.42l-.017-.348H8.963l-.69 4.356H9.78l.479-3.055c.13-.065.323-.152.517-.152.147 0 .27.047.27.24 0 .081-.025.229-.033.3l-.422 2.667h1.5l.46-2.908c.025-.153.05-.388.05-.55 0-.581-.268-.97-1.03-.97zm4.544 0c-.542 0-.946.22-1.246.438l-.04-.366h-1.29l-.687 4.356h1.505l.48-3.055c.13-.065.323-.152.518-.152.145 0 .266.048.266.266 0 .056-.015.145-.023.218l-.428 2.723h1.498l.477-3.055c.138-.073.323-.152.51-.152.145 0 .269.048.269.266 0 .056-.018.145-.026.218l-.43 2.723h1.5l.462-2.908a4 4 0 0 0 .049-.55c0-.581-.268-.97-1.038-.97-.558 0-.963.17-1.392.477-.154-.275-.464-.477-.934-.477zm6.158 0c-1.677 0-2.404 1.285-2.404 2.658 0 1.042.422 1.873 1.694 1.873 1.716 0 2.437-1.404 2.437-2.761 0-1.025-.463-1.77-1.727-1.77zm-15.636 1.01c.162 0 .299.097.299.291 0 .404-.714.533-.997.533.041-.485.414-.824.698-.824zm15.467.137c.267 0 .357.242.357.597 0 .533-.13 1.633-.69 1.633-.267 0-.38-.25-.378-.654 0-.533.12-1.576.71-1.576z"/></svg>