<svg xmlns="http://www.w3.org/2000/svg" viewBox="0 0 24 24"><path d="M11.986 0v.027l-1.29 1.291-.538-.539H2.035l-.639.692v1.884l.618.618h.718V9.28L.027 11.986H0L.014 12 0 12.014h.027l2.705 2.707v6.467l.909.523h2.322l1.855-1.904 4.166 4.166V24l.016-.014.014.014v-.027l2.51-2.51h.486c.11 0 .21-.07.25-.18l.144-.426a.26.26 0 0 0-.037-.238l1.463-1.463-.611 1.963a.265.265 0 0 0 .254.344h1.824a.26.26 0 0 0 .242-.162l.166-.395a.27.27 0 0 0-.248-.365h-.074l.84-2.645h1.232l-1.016 3.221a.266.266 0 0 0 .176.332.3.3 0 0 0 .078.014h2.002c.11 0 .207-.066.248-.17l.164-.43a.265.265 0 0 0-.158-.34.3.3 0 0 0-.09-.017h-.144l1.13-3.674a.26.26 0 0 0-.038-.238l-.375-.504-.004-.006a.27.27 0 0 0-.21-.102h-1.435c-.07 0-.14.03-.19.08l-.4.44h-.625l-.04-.047 4.445-4.443H24L23.986 12l.014-.014h-.027l-4.319-4.318 4.303-4.414V1.46l-.648-.649H15.11l-.66.606v1.045L12.016.027V0L12 .014zM2.422 1.66h7.371l.213.215v1.107l-.143.174H8.785v8.688l8.807-8.688h-2.086l-.176-.187V1.805l.121-.112h7.49l.133.133v1.07L12.98 13.25h-.374q-.021 0-.04.002l-.02.002a.26.26 0 0 0-.12.06l-.343.295-.004.002a.3.3 0 0 0-.072.112l-.297.83-6.12 6.275H3.878l-.262-.148V3.092H2.38l-.1-.102V1.814zm10.217 11.963h.894l.15.15-.269.922-.225.227h-.968l-.182-.182.31-.87zm-1.426 2.703h1.658l-1.562 4.555h.623l-.078.258H9.838l1.58-4.508h-.502zm6.642.016h1.061l.488.535h.953l.475-.52h1.334l.309.416-1.264 4.108h.492l-.08.209H19.84l1.125-3.565h-2.016l-1.078 3.391h.426l-.074.174h-1.606l1.108-3.547h-2.096l-1.063 3.338h.438l-.072.209H13.27l1.513-4.46h-.586l.092-.27h1.65l.518.536h.906z"/></svg>