<svg xmlns="http://www.w3.org/2000/svg" viewBox="0 0 24 24"><path d="M17.377.006 9.045 1.639a.306.306 0 0 0-.246.283l-.514 8.656a.306.306 0 0 0 .373.317l2.32-.538a.306.306 0 0 1 .372.362l-.692 3.375a.306.306 0 0 0 .39.353l1.432-.435a.306.306 0 0 1 .39.355l-1.097 5.301c-.045.217.128.37.305.37a.3.3 0 0 0 .252-.142l.123-.189 6.791-13.55a.306.306 0 0 0-.332-.438l-2.389.46a.306.306 0 0 1-.351-.384L17.73.39a.306.306 0 0 0-.353-.385zM.734 2.648a.612.612 0 0 0-.638.907L11.58 23.69a.612.612 0 0 0 1.066-.003l11.26-20.135a.612.612 0 0 0-.644-.9L17.283 3.74l-.543 1.887 2.076-.4a.8.8 0 0 1 .84.369.8.8 0 0 1 .035.783l-6.79 13.55-.014.026-.016.024-.121.189a.8.8 0 0 1-.672.37.83.83 0 0 1-.635-.302.8.8 0 0 1-.16-.67l1.03-4.98-1.12.34a.81.81 0 0 1-.861-.264.8.8 0 0 1-.164-.67l.63-3.08-2.027.469a.81.81 0 0 1-.767-.233.8.8 0 0 1-.219-.6l.39-6.57z"/></svg>