<svg xmlns="http://www.w3.org/2000/svg" viewBox="0 0 24 24"><path d="M8.516 8.852q-.109 0-.23.125l-.35.35c-.165.164-.165.296 0 .46l.35.352c.164.165.296.165.46 0l.352-.352c.165-.164.165-.296 0-.46l-.352-.35q-.122-.125-.23-.125zm11.088 1.722c-2.142 0-2.333 1.752-2.333 2.287s.19 2.285 2.333 2.285h2.062c2.143 0 2.334-1.75 2.334-2.285s-.19-2.287-2.334-2.287zM.176 10.68c-.171 0-.224.12-.127.267l2.281 3.467c.355.521.615.732 1.197.732s.844-.21 1.198-.732l2.283-3.467c.097-.146.044-.267-.127-.267h-.668c-.287 0-.347.05-.457.213-.11.164-2.022 3.082-2.022 3.082-.06.09-.127.127-.207.127s-.144-.037-.205-.127c0 0-1.912-2.918-2.023-3.082-.11-.164-.17-.213-.455-.213zm8.088.002c-.203 0-.284.08-.284.283v3.898c0 .203.08.283.284.283h.506c.203 0 .283-.08.283-.283v-3.898c0-.203-.08-.283-.283-.283zm1.888 0c-.154 0-.224.118-.127.265l2.284 3.467c.354.521.615.732 1.197.732s.841-.21 1.195-.732l2.283-3.467c.096-.146.027-.265-.127-.265h-.668c-.286 0-.346.05-.457.213-.11.164-2.021 3.082-2.021 3.082-.06.09-.125.125-.205.125s-.146-.035-.207-.125c0 0-1.912-2.918-2.022-3.082s-.17-.213-.457-.213zm9.452.937h2.062c1.16 0 1.264.951 1.264 1.242 0 .29-.105 1.24-1.264 1.24h-2.062c-1.16 0-1.262-.95-1.262-1.24s.103-1.242 1.262-1.242z"/></svg>