<svg xmlns="http://www.w3.org/2000/svg" viewBox="0 0 24 24"><path d="M12.12.33a1.5 1.5 0 0 0-.536.211l-.002-.002a1.467 1.467 0 0 0-.44 2.033c2.427 3.758 3 6.591 2.75 9.074-1.003 4.756-3.186 5.721-5.093 5.721-1.863 0-1.365-3.064.035-3.96.836-.523 1.907-.862 2.729-.862a1.47 1.47 0 1 0 0-2.94c-.96 0-1.903.202-2.782.545.18-.847.248-1.763.016-2.736-.352-1.477-1.368-2.888-3.129-4.256a1.476 1.476 0 0 0-2.068.256c-.5.64-.386 1.564.257 2.063 1.435 1.114 1.909 1.94 2.07 2.619.163.679.033 1.407-.292 2.408-.416 1.349-.9 2.552-1.11 3.707-.105.568-.114 1.187-.14 1.68-1.034-1.006-1.438-2.337-1.438-4.28 0-.81-.66-1.468-1.474-1.468A1.47 1.47 0 0 0 0 11.61c0 2.654.776 5.18 2.855 6.864 1.883 1.793 6.67 1.13 6.67 4.01 0 .811 1.19 1.208 2.004 1.208.834 0 1.885-.559 1.885-1.209 0-3.267 3.442-5.253 9.11-5.244A1.47 1.47 0 0 0 24 15.773a1.47 1.47 0 0 0-1.47-1.472c-.389 0-.764.013-1.137.035.634-1.49.913-3.131.855-4.904a1.473 1.473 0 0 0-1.521-1.42 1.47 1.47 0 0 0-1.424 1.517c.076 2.32-.01 4.393-1.74 5.485-.49.31-1.064.58-1.606.58.42-1.145.738-2.353.87-3.655.082-.83.091-1.818-.003-2.585-.148-1.188-.326-2.534.125-3.55.405-.873 1.315-1.24 2.647-1.24a1.472 1.472 0 1 0 0-2.941c-1.98 0-3.481 1.043-4.332 2.3A25 25 0 0 0 13.621.98 1.47 1.47 0 0 0 12.12.33z"/></svg>