<svg xmlns="http://www.w3.org/2000/svg" viewBox="0 0 24 24"><path d="M16.182 0c-2.641 0-4.11 1.969-4.733 3.313l-7.431 13.66 2.097-.393L2.264 24l2.687-.482 2.043-5.838c5.815 0 13.28-2.088 12.238-9.907 0 0-.634-3.15-4.744-2.3-.416-1.42-.341-2.476.567-3.436 1.248-1.32 3.181-.596 3.181-.596l.002-1.086C17.558.057 16.906 0 16.182 0zm2.416 2.523a.496.496 0 1 0 0 .99.496.496 0 0 0 0-.99zm1.502 1.03-1.291 1.574h2.927zm-3.727 4.789.305.012-.041.548-.037.29c-.015.104-.025.22-.051.34l-.074.382-.108.418c-.042.145-.093.294-.142.45a14 14 0 0 1-.186.466l-.113.238-.057.121-.066.118-.135.24-.152.236-.077.12-.085.113q-.085.115-.174.23c-.126.147-.25.299-.39.438-.134.145-.286.275-.433.41l-.23.191c-.076.065-.159.12-.238.18a8 8 0 0 1-1.012.625c-.347.18-.696.343-1.043.476q-.522.204-1.012.352c-.325.1-.638.184-.926.256-.576.142-1.06.24-1.4.306L7.963 16l.531-.115c.338-.076.82-.184 1.39-.34.286-.079.595-.168.917-.275q.484-.158.996-.374c.341-.14.683-.31 1.021-.496.34-.185.667-.402.979-.638.076-.061.157-.12.23-.184l.221-.19c.14-.134.284-.265.41-.41.134-.137.25-.288.37-.433q.082-.113.161-.227l.08-.113.073-.117.142-.23.123-.235.061-.117.053-.117.103-.233q.09-.233.168-.455c.044-.15.092-.295.13-.435l.093-.409.06-.37c.023-.117.032-.229.043-.33l.03-.28z"/></svg>