<svg xmlns="http://www.w3.org/2000/svg" viewBox="0 0 24 24"><path d="M12.107 0a12 12 0 0 0-5.76 1.436H8.73v.16q-.48.022-.65.25-.363-.25-.706-.25h-.781l-.44.066-.076-.066h-.015q-.471.268-.916.576 1.01 1.447 1.218 2.494h.649v.16h-.496v.184q.285 1.046.42 1.045h.152l.344-.09.076.09.074-.09.078.09v.068a1.33 1.33 0 0 0-.515.75h-.057v.16h.133q.267 3.8.992 5.758l.285.227h.154q.287 0 1.202-2.663.59-1.205.859-2.115l-.076-.25q.59-.887 1.218-.886h.135q.4 0 .572.5.535.75.858 2.251l1.066 2.366a.86.86 0 0 1 .211.568q.59 1.342 1.069 1.775h.228q.402 0 1.069-3.322.115 0 .628-1.773v-.092l-1.2-.158-.288.09h-.361v-.182l.724-.07h1.413q.82-2.933 1.505-4.55a34 34 0 0 1 .159-1.736 12 12 0 0 0-2.747-1.71q-.123.284-.482.285v-.16l.443-.143A11.8 11.8 0 0 0 12.107 0zM9.721 1.436h1.924v.16l-.438.066-.42-.068-.363.16-.133-.158h-.57zm3.984 1.296h.21v.069q0 .16-.21.16l-.076.09v.09l-.21-.09v-.158zm-10.242.85C1.365 5.694.018 8.614.018 12A11.98 11.98 0 0 0 6.01 22.377C13.998 26.989 23.982 21.224 23.982 12a11.98 11.98 0 0 0-2.357-7.137q-.482.574-.937 2.17a15 15 0 0 1-.708 3.072q-.438 1.454-.437 2.684l-.555 1.615q0 .205.63.41-.115.478-.343.479v.09h.133v.068q0 .25-.648.25l.076.092v.318h-.133q.134.478.572.479v.158h-.572v.092q.286 0 .285.408l-.8.32.076.09v.069q0 .16-.285.16v.09q.361 0 .36.16-.513.204-1.353 2.025-.858 1.615-1.488 1.615h-.152q-.478-.363-.784-2.412-1.218-3.117-1.218-3.664 0-1.41-.783-3.002-.21-.705-.286-1.775l-.343-.092q-1.298 2.344-1.356 3.664-.361.774-.57 1.865.782.25.781.479v.092q-.61-.092-.857-.342-.268.615-.707 3.414-.344 1.296-.86 1.295a5.5 5.5 0 0 1-2.422-1.865q-.153 0-.496-1.297-.21 0-.285-1.297-.725-1.843-.992-4.21v-2.366h-.076l-.344.09v-.09q0-.159.344-.159L4.016 8.74V7.67l-.553-3.412zm9.174.037v.092q0 .18-.916.387v-.16l.42-.227.076.068h.058zm-2.06.82v.069q-.402.364-1.298.66v-.16q.154 0 .155-.25zm10.792.092-.033.295h.133l.08-.064zm-7.168.705.076.09v.069l-.132.181h-.077l-.154-.181v-.069zm2.633.09h.076v.069l-.135.181H16.7v-.09zm-1.201 1.139.285.226q-.075.25-.42.25l-.152-.25q.001-.113.287-.226zm1.717 1.047.056.09v.068l-.056.092h-.155V7.67zm-2.71.816v.07l-.363.34h-.209v-.09q0-.205.573-.32zM2.814 11.492h.076v.069q-.286.75-.496.91H2.24v-.34zm9.328 3.801h.076v.158l-.572.342-.077-.092v-.158zM4.3 16.361h.133l.228.889h-.15l-.211-.82zm7.629 1.047h.058l.229.25-.076.069h-.077l-.132-.227-.002-.002z"/></svg>