<svg xmlns="http://www.w3.org/2000/svg" viewBox="0 0 24 24"><path d="M9.3 0C7.75.006 6.64 1.157 6.798 3.006l.312 3.73c-1.08.455-2.217.933-3.427 1.446-1.255.535-2.123 1.609-2.457 2.884-.34 1.301-.136 2.808.722 4.143.764 1.195 1.858 2.006 3.256 2.445-.08 1.091.03 2.08.34 2.955a5.5 5.5 0 0 0 .533 1.098c.798 1.268 1.98 2.03 3.184 2.236a3.78 3.78 0 0 0 3.293-1c.98-.945 1.907-1.837 2.79-2.683l3.038 1.826c1.605.957 3.244-.083 3.63-2.113.162-.847.09-1.794-.21-2.864.57-.35.926-.902 1.066-1.672.306-1.633-.502-3.78-1.826-4.878a945 945 0 0 0-2.166-1.786c-.003-.018-.372-2.105-.553-3.109-.306-1.724-1.798-3.54-3.373-4.041-.722-.23-1.393-.158-2.035.225-.778-.824-1.594-1.379-2.48-1.662A3.7 3.7 0 0 0 9.3 0zm1.018 2.48a1.3 1.3 0 0 1 .383.047c.466.126.912.49 1.154.932.2.368.29.671.37 1.299.131 1.03.267 2.073.404 3.142q.02.147.037.293c.115.89.645 1.529 1.33 1.62.66.087 1.011-.431.89-1.262l-.038-.276-.44-3.005c-.063-.425-.085-.751-.05-.961.05-.466.42-.707.894-.579.479.132.928.572 1.135 1.098.106.266.154.472.236.963.157.941.312 1.892.473 2.87.117.637.176 1.201 1.043 1.804.73.573 1.443 1.139 2.142 1.685.421.331.572.484.739.717.269.38.383.935.289 1.36-.087.392-.343.627-.66.59-.26-.032-.48-.138-.924-.465-.734-.55-1.483-1.113-2.258-1.684-.068-.048-.145-.101-.215-.152-.646-.476-1.209-.385-1.424.265-.223.666.092 1.447.756 1.912.071.05.151.108.22.159.81.567 1.607 1.12 2.382 1.66q.491.345.734.636c.357.41.528 1.083.404 1.645-.132.593-.514.9-.978.795-.234-.05-.41-.145-.83-.418q-1.225-.797-2.524-1.637a5 5 0 0 1-.238-.158c-.272-.167-.536-.243-.768-.234h-.002c-.26-.017-.53.078-.79.287-.073.06-.146.116-.214.18-.808.664-1.647 1.374-2.535 2.12-.48.401-.697.56-1.017.672-.646.247-1.359-.03-1.805-.74-.421-.692-.403-1.589.033-2.154.185-.252.498-.54.93-.846.94-.672 1.83-1.305 2.676-1.912l.228-.158c.642-.455.763-1.26.31-2.012-.44-.75-1.167-.976-1.859-.558a5 5 0 0 0-.234.146q-1.34.823-2.824 1.738c-.638.385-.975.51-1.451.532-.59.03-1.206-.333-1.565-.905-.407-.636-.422-1.427-.031-1.918.22-.288.457-.463 1.13-.808a275 275 0 0 1 2.997-1.526c.081-.049.162-.084.246-.125a1 1 0 0 0 .158-.097c.425-.188.633-.657.567-1.293-.012-.107-.02-.209-.038-.31a376 376 0 0 0-.35-3.317c-.068-.66-.062-.893.022-1.155.1-.312.389-.491.75-.502zM7.11 6.74l.004.022-.004-.004zm.004.04.008.09-.012-.085zm.012.144.002.015h-.002zm.004.031v.012l-.004-.006q.004-.002.004-.006z"/></svg>