<svg xmlns="http://www.w3.org/2000/svg" viewBox="0 0 24 24"><path d="M0 0v24h24V0zm17.889 2.889c1.444 0 2.668.445 3.668 1.279l-1.112 1.666c-.889-.611-1.722-1-2.556-1s-1.278.389-1.278.889v.056c0 .667.445.888 2.112 1.332 2 .556 3.109 1.278 3.109 3v.057c0 2-1.498 3.111-3.61 3.111-1.5-.056-3-.612-4.167-1.668l1.277-1.554c.889.722 1.834 1.22 2.945 1.22.89 0 1.389-.332 1.389-.943v-.057c0-.556-.333-.832-2-1.277-2-.5-3.223-1.057-3.223-3.057V5.89c0-1.833 1.446-3 3.446-3zm-16.11.222h2.278l1.5 5.778 1.72-5.778h1.668l1.666 5.778 1.5-5.778h2.334l-2.834 9.944H9.723L8.11 7.277l-1.666 5.778H4.611zM2.277 19.5h9V21h-9z"/></svg>