<svg xmlns="http://www.w3.org/2000/svg" viewBox="0 0 24 24"><path d="M12 0C5.342 0 0 5.342 0 12c0 6.582 5.342 12 12 12s12-5.418 12-12c0-6.658-5.342-12-12-12zm0 2.014c5.498 0 9.986 4.489 9.986 9.986S17.498 21.988 12 21.988c-5.497 0-9.986-4.49-9.986-9.988S6.503 2.014 12 2.014zM6.89 6.969c-.386 0-.697.31-.697.62V8.6a.694.694 0 0 0 .698.692h8.748c.309 0 .62-.311.619-.697V7.588c0-.308-.31-.62-.62-.62zm2.323 3.793a.695.695 0 0 0-.697.697v1.012a.697.697 0 0 0 .697.691h8.672c.386 0 .696-.31.773-.697v-1.006a.695.695 0 0 0-.697-.697zM6.89 14.709c-.388 0-.699.311-.698.621v1.006c0 .386.31.697.698.773h8.754a.696.696 0 0 0 .69-.697v-1.006a.695.695 0 0 0-.696-.697z"/></svg>