<svg xmlns="http://www.w3.org/2000/svg" viewBox="0 0 24 24"><path d="M21.033 2.818c-.105.136-.346.419-.847.87-.287.258-.69.574-1.149.91.224.91.284 2.126-.086 3.312-.49 1.578-1.627 2.72-3.135 3.352-1.489.623-2.789.588-3.152.588-.057 0-.146.003-.248.005l.152.01c.354.015.696.024 1.02.055v-.002c.306-.021.667-.04 1.139-.04.828 0 1.696-.266 2.505-.648.38-.549.695-1.04.88-1.373l.05-.091.09.054a12 12 0 0 1 .644.422 9 9 0 0 0 1.32-1.13c.896-.968 1.467-2.544 1.503-4.155.029-1.274-.487-1.933-.686-2.139zm-17.558.237c-.383 1.018-.59 2.666-.092 4.267.539 1.734 1.792 2.987 3.449 3.68a9 9 0 0 0 .598.223l.377-.002c-1.138-.573-2.139-1.595-2.555-2.194-.564-.812-.85-2.043-.688-3.24a3.6 3.6 0 0 1 .172-.725C4.232 4.394 3.7 3.6 3.475 3.054zm15.119.843c-.17.71-1.453 2.382-1.926 2.872s-2.382 2.296-2.973 2.921c-.7.74-.688.792-1.332 1.301-.202.19-.498.403-.562.531.027-.338.037-.676.025-.998a8 8 0 0 0-.031-.521c.322-.06.566-.522.566-.861 0-.224-.104-.249-.27-.23.076-.895.383-3.922 1.255-4.28.218.109.83.068.648-.295-.182-.364-.826-.074-1.082.266-.28.374-.956 2.046-.92 4.324-.113.014-.172.033-.32.033-.171 0-.322-.04-.434-.05.034-2.276-.714-3.774-.84-4.17-.12-.376-.49-.596-.78-.596-.147 0-.274.056-.335.18-.182.362.46.417.678.308.706.32 1.156 3.517 1.254 4.275-.125-.006-.2.037-.2.235 0 .31.172.754.454.841l-.008.032s-.286.988-.412 2.187a5 5 0 0 1-.719-.224c-.714-.286-1.355-.584-2.02-.567-.663.018-1.364.024-1.802-.035-.438-.058-.65-.15-.65-.15s-.234.366.257 1.076c.42.607 1.056 1.046 1.645 1.18s1.972.18 2.785-.378a8 8 0 0 0 .459-.34 9 9 0 0 0-.014.626c-.289.753-.57 1.993-.267 3.338 0-.001.7-.842.787-2.958q.009-.215.01-.382c.052-.248.103-.518.148-.8.072.136.15.277.232.413.511.842 1.791 1.37 2.383 1.49a2 2 0 0 0 .285.037c.38-.34.877-.915 1.383-1.558-.389-.15-.865-.37-1.318-.59-.598-.29-1.304-.285-2.072-.317a4.7 4.7 0 0 1-.805-.101q.022-.184.039-.37c.062.105.671.057.87.057.353 0 1.62.034 3.073-.574s2.552-1.705 3.024-3.224c.474-1.52.22-3.093-.168-3.954zm-12.992.407s-.656.173-.838 1.511c-.157 1.144.111 2.324.65 3.1.54.776 2.09 2.29 3.615 2.506.991.14 2.055.133 2.055.133s-.592-.576-1.113-1.66-.949-2.104-1.735-2.786c-.785-.68-1.6-1.416-2.045-1.945s-.59-.86-.59-.86zm11.517 1.62q-.19.127-.375.247c-.88.57-1.536 1.42-2.183 2.375.76-.74 1.658-1.601 1.962-1.916a10 10 0 0 0 .596-.705zm-7.99.544c-.194-.013-.369.017-.461.107-.247.241.393.217.69.145.71.157 1.23 1.363 1.505 2.18a.32.32 0 0 1 .13-.143l-.032-.229c-.267-.93-.867-1.542-1.012-1.736-.124-.166-.497-.303-.82-.324zm5.047 0c-.324.02-.697.158-.82.324-.15.202-.789.852-1.04 1.842l-.007.094a.4.4 0 0 1 .091.042.4.4 0 0 1 .067.06c.28-.814.79-1.958 1.48-2.11.296.072.939.096.692-.145-.093-.09-.27-.12-.463-.107zM0 6.826s-.07.732 2.975 2.953c.796.581 1.739 1.028 2.697 1.37l.017-.03.092-.144.157.07s.194.082.595.135a4 4 0 0 0 .268.025l-.047-.02c-1.711-.715-3.006-2.01-3.564-3.801a6 6 0 0 1-.103-.377C1.558 6.822 0 6.826 0 6.826zM21.209 7.98a5.2 5.2 0 0 1-.846 1.266 9 9 0 0 1-1.299 1.12c.59.441.854.776.975 1.036l.016.036C23.32 10.387 24 8.414 24 8.414c-.392-.063-1.476-.289-2.791-.434zm-8.73 1.579c-.046.12-.11.238-.188.337a.9.9 0 0 1-.283.243l.01.162c.355-.097.597-.4.597-.598 0-.087-.05-.127-.136-.144zm-1.59.005c-.064.02-.1.061-.1.14 0 .172.148.373.424.466l.021-.084a.9.9 0 0 1-.216-.24 1.3 1.3 0 0 1-.13-.282zm7.345.483c-.682 1.184-2.719 3.998-3.699 4.773 1.135-.54 4.99-2.249 5.246-2.363a.57.57 0 0 0 .172-.455c-.006-.135.005-.299-.096-.516-.155-.332-.56-.778-1.623-1.44zm-15.955.889c.347.509 1.348 1.748 3.371 2.666 2.602 1.18 3.775.986 4.729.572a2 2 0 0 0 .19-.098 6 6 0 0 1 .22-.72v-.178a3 3 0 0 1-.133.092c-.859.589-2.32.549-2.941.408-.631-.143-1.315-.613-1.766-1.264-.236-.343-.324-.62-.345-.828a28 28 0 0 0-1.166-.125c-.686-.051-1.683-.364-2.159-.525zm14.735.61c-.595.256-1.217.442-1.825.507a29 29 0 0 0 .743.049q.346-.012.709-.04.192-.26.373-.515zm-2.258.67a18 18 0 0 0 1.324.59q.184-.237.367-.482a32 32 0 0 1-1.691-.107zm-2.988.95-.05.242a10 10 0 0 1-.038.82c.089.37.231.622.4.79.205.206.446.285.656.316.268.041.525-.004.713-.059.131-.055.312-.143.89-.558l.015-.01q-.056-.009-.11-.02c-.61-.123-1.913-.666-2.476-1.521zm-7.137.133c-.6.317-1.129.663-1.508 1.008-1.2 1.09-2.29 2.619-2.51 4.111 5.986.522 8.544-1.82 9.805-3.426a6 6 0 0 1 .096-.66l-.055.025c-.987.428-2.202.647-4.89-.574a10 10 0 0 1-.938-.484zm13.17.258c-1.42.635-3.103 1.393-3.428 1.566-.427.226-.81.327-.86.342h-.001a1.9 1.9 0 0 1-.807.066 1.33 1.33 0 0 1-.766-.37 1.6 1.6 0 0 1-.312-.468 6 6 0 0 1-.033.22c.203.803.658 1.766 1.568 2.886 1.891 2.328 6.548 3.128 7.639 3.383.545-2.655-.728-5.713-2.582-7.313a4 4 0 0 0-.418-.312z"/></svg>