<svg xmlns="http://www.w3.org/2000/svg" viewBox="0 0 24 24"><path d="M12 0C9.792 0 8 1.792 8 4s1.792 4 4 4 4-1.792 4-4-1.792-4-4-4zM3.926 3.127A11.96 11.96 0 0 0 0 12c0 6.623 5.377 12 12 12s12-5.377 12-12c0-3.515-1.514-6.678-3.926-8.873L17.81 5.391A8.8 8.8 0 0 1 20.8 12c0 4.857-3.944 8.8-8.801 8.8S3.2 16.858 3.2 12a8.8 8.8 0 0 1 2.99-6.61zm3.398 3.398A7.19 7.19 0 0 0 4.801 12c0 3.703 2.8 6.757 6.398 7.156V10.4zm9.352 0L12.8 10.4v8.756A7.205 7.205 0 0 0 19.199 12c0-2.19-.978-4.154-2.523-5.475z"/></svg>