<svg xmlns="http://www.w3.org/2000/svg" viewBox="0 0 24 24"><path d="M13.992 2.41a.66.66 0 0 0-.66.66.66.66 0 0 0 .66.662.66.66 0 0 0 .662-.662.66.66 0 0 0-.662-.66zm2.133.283a.7.7 0 0 0-.498.498.705.705 0 0 0 .498.862.704.704 0 0 0 .365-1.36.7.7 0 0 0-.365 0zm-4.61.075a.616.616 0 0 0-.431.77.617.617 0 0 0 1.191-.32.616.616 0 0 0-.76-.45zm6.95.748a.75.75 0 0 0-.649.373.749.749 0 1 0 1.295.75.75.75 0 0 0-.646-1.123zm-8.883.195a.57.57 0 0 0-.344.066.57.57 0 0 0-.209.784.57.57 0 0 0 .782.209.573.573 0 0 0-.229-1.06zm10.734 1.178a.8.8 0 0 0-.56.232.79.79 0 0 0 0 1.121.793.793 0 0 0 1.121-1.12.8.8 0 0 0-.56-.233zm-6.324.252a.44.44 0 0 0 0 .88.44.44 0 0 0 0-.88zm-6.453.045a.53.53 0 0 0-.238.136.53.53 0 0 0 0 .748.53.53 0 0 0 .748 0 .53.53 0 0 0 0-.748.53.53 0 0 0-.51-.136zm8.094.12a.48.48 0 0 0-.444.366.484.484 0 0 0 .342.594.484.484 0 0 0 .594-.344.484.484 0 0 0-.492-.615zm-3.406.114a.397.397 0 0 0-.28.484.396.396 0 0 0 .485.282.396.396 0 0 0-.205-.766zm4.982.488a.53.53 0 0 0-.457.266.53.53 0 0 0 .193.72.53.53 0 0 0 .721-.193.53.53 0 0 0-.193-.72.53.53 0 0 0-.264-.073zm-6.338.207a.352.352 0 0 0-.396.508.352.352 0 0 0 .609-.352.35.35 0 0 0-.213-.156zm10.93.54a.881.881 0 0 0-.824 1.318.88.88 0 1 0 1.525-.881.88.88 0 0 0-.701-.438zm-3.406.25a.6.6 0 0 0-.258.148.573.573 0 0 0 0 .808.57.57 0 0 0 .81 0 .573.573 0 0 0 0-.808.57.57 0 0 0-.552-.149zM6.48 7.11a.484.484 0 0 0-.66.178.485.485 0 0 0 .176.662.485.485 0 0 0 .484-.84zm2.97.051a.3.3 0 0 0-.218.09.31.31 0 0 0 0 .437.31.31 0 0 0 .436 0 .31.31 0 0 0 0-.437.3.3 0 0 0-.219-.09zm4.542.07a.308.308 0 0 0 0 .616.308.308 0 0 0 0-.616zm1.242.14a.33.33 0 0 0-.402.233.33.33 0 0 0 .232.405.33.33 0 0 0 .17-.639zm-2.472.046a.287.287 0 0 0 .148.555.287.287 0 1 0-.148-.555zm3.377.379a.35.35 0 0 0-.215.162.352.352 0 1 0 .61.352.352.352 0 0 0-.395-.514zm-4.31.092a.26.26 0 0 0-.202.027.264.264 0 0 0 .266.457.264.264 0 0 0-.065-.484zm7.798.29a.6.6 0 0 0-.37.075.617.617 0 0 0 .616 1.066.617.617 0 0 0-.246-1.14zm-2.47.268a.396.396 0 0 0-.28.676.396.396 0 0 0 .559-.56.4.4 0 0 0-.28-.116zm-8.796.096a.26.26 0 0 0-.16.129.264.264 0 0 0 .457.264.264.264 0 0 0-.297-.393zm2.477.076a.242.242 0 0 0-.174.408.242.242 0 0 0 .342-.341.24.24 0 0 0-.168-.067zm11.74.102a.97.97 0 0 0-.879 1.217.969.969 0 1 0 .88-1.217zm-8.586.14a.198.198 0 0 0 .002.397.198.198 0 1 0-.002-.397zm.822.084a.22.22 0 0 0-.115.426.22.22 0 1 0 .115-.426zm-1.63.047a.176.176 0 0 0 .091.34.176.176 0 1 0-.091-.34zm-7.938.139a.46.46 0 0 0-.326.328.46.46 0 0 0 .326.566.46.46 0 0 0 .566-.328.46.46 0 0 0-.328-.566.46.46 0 0 0-.238 0zm10.16.086a.24.24 0 0 0-.146.111.243.243 0 0 0 .42.244V9.57a.242.242 0 0 0-.274-.353zm-2.847.094a.154.154 0 0 0-.172.226.154.154 0 0 0 .209.057.154.154 0 0 0-.037-.283zm5.218.025a.44.44 0 0 0-.289.65.44.44 0 1 0 .762-.44.44.44 0 0 0-.473-.21zm-7.707.234a.22.22 0 0 0-.133.104.22.22 0 0 0 .08.3.22.22 0 0 0 .221-.38.22.22 0 0 0-.168-.024zm6.012.082a.26.26 0 0 0-.187.078.264.264 0 1 0 .375 0 .26.26 0 0 0-.188-.078zm3.957.047a.66.66 0 0 0-.467.809.66.66 0 0 0 .809.467.66.66 0 0 0-.342-1.276zm-8.164.104a.132.132 0 0 0-.059.22.132.132 0 0 0 .188-.185.13.13 0 0 0-.129-.035zm4.752.449a.286.286 0 0 0-.322.418.287.287 0 0 0 .39.103.286.286 0 0 0 .106-.39.3.3 0 0 0-.174-.131zm1.564.125a.484.484 0 0 0-.341.592.484.484 0 0 0 .593.342.484.484 0 0 0-.252-.934zm-16.01.072a.16.16 0 0 0-.128.078l-.805 1.547-.469-1.453a.13.13 0 0 0-.113-.084H.098c-.073 0-.114.058-.092.127l.928 2.873a.13.13 0 0 0 .115.084h.084a.16.16 0 0 0 .129-.078l.949-1.824.951 1.824a.16.16 0 0 0 .127.078h.084a.13.13 0 0 0 .115-.084l.928-2.873c.022-.07-.02-.127-.092-.127h-.566a.13.13 0 0 0-.115.084l-.47 1.453-.804-1.547a.16.16 0 0 0-.129-.078zm5.973 0c-.394 0-.75.172-1.011.45H7.14l-.102-.278a.14.14 0 0 0-.117-.084h-.264a.13.13 0 0 0-.133.133v4.316c0 .074.06.131.133.131h.572a.13.13 0 0 0 .131-.13v-1.499a2.4 2.4 0 0 0 .793.133c.803 0 1.453-.71 1.453-1.586 0-.875-.65-1.586-1.453-1.586zm3.565 0c-.55 0-.87.45-.87.45l-.101-.278a.14.14 0 0 0-.12-.084h-.263a.133.133 0 0 0-.133.133v2.73a.13.13 0 0 0 .133.133h.572a.13.13 0 0 0 .131-.133v-1.912a.73.73 0 0 1 .848-.232c.087.033.152-.009.178-.067l.197-.445c.046-.105-.022-.295-.572-.295zm2.281 0c-.851 0-1.541.71-1.541 1.586s.69 1.586 1.541 1.586 1.541-.71 1.541-1.586c0-.875-.69-1.586-1.541-1.586zm-8.92.088a.133.133 0 0 0-.133.133v2.73a.13.13 0 0 0 .133.133h.572a.13.13 0 0 0 .133-.133v-2.73a.13.13 0 0 0-.133-.133zm11.69.402a.31.31 0 0 0-.217.377.308.308 0 0 0 .595-.16.31.31 0 0 0-.378-.217zm6.171.002c-.584 0-1.056.475-1.056 1.059a1.058 1.058 0 1 0 1.056-1.059zm-14.943.26c.424 0 .768.374.768.836s-.344.838-.768.838c-.24 0-.46-.063-.637-.17V11.57a.75.75 0 0 1 .637-.37zm6.002 0c.437 0 .793.375.793.836 0 .462-.356.838-.793.838s-.793-.376-.793-.838c0-.46.356-.836.793-.836zm6.432.043a.758.758 0 1 0 0 1.516.758.758 0 0 0 0-1.516zm-1.96.24a.517.517 0 1 0 .518.518.517.517 0 0 0-.517-.518zm-1.519.182a.337.337 0 1 0 0 .672.337.337 0 0 0 0-.672zm-.021.795a.31.31 0 0 0-.38.225.308.308 0 0 0 .596.16.31.31 0 0 0-.216-.385zm1.361.213a.48.48 0 0 0-.443.36.484.484 0 0 0 .935.25.484.484 0 0 0-.492-.61zm2.09.348a.66.66 0 0 0-.81.472.66.66 0 0 0 1.275.342.66.66 0 0 0-.465-.814zm-3.904.177a.3.3 0 0 0-.174.133.287.287 0 0 0 .105.393.286.286 0 0 0 .285-.496.3.3 0 0 0-.216-.03zm6.212.149a.969.969 0 1 0-.113 1.934.969.969 0 0 0 .113-1.934zm-4.822.447a.44.44 0 0 0-.38.22.44.44 0 0 0 .761.44.44.44 0 0 0-.162-.601.44.44 0 0 0-.219-.059zm-1.787.025a.26.26 0 0 0-.187.078.264.264 0 0 0 0 .374.264.264 0 0 0 .375 0 .265.265 0 0 0 0-.374.26.26 0 0 0-.188-.078zm-4.172.12a.13.13 0 0 0-.094.039.132.132 0 1 0 .188.185.133.133 0 0 0 0-.185.13.13 0 0 0-.094-.04zm-1.726.066a.22.22 0 0 0-.166.021.22.22 0 0 0-.08.301.22.22 0 0 0 .38-.22.22.22 0 0 0-.134-.102zm5.35.316a.242.242 0 0 0-.274.352.243.243 0 0 0 .33.088.243.243 0 0 0 .09-.33.24.24 0 0 0-.147-.11zm-3.014.063a.15.15 0 0 0-.133.08.154.154 0 0 0 .265.154.154.154 0 0 0-.132-.234zm7.046.215a.62.62 0 0 0-.535.306.617.617 0 0 0 .227.844.617.617 0 0 0 .617-1.068.6.6 0 0 0-.309-.082zm-4.865.033a.22.22 0 0 0 .113.424.22.22 0 1 0-.113-.424zm-1.426.037a.177.177 0 0 0-.214.125.177.177 0 0 0 .123.215.176.176 0 0 0 .091-.34zm.717.074a.198.198 0 1 0 0 .397.198.198 0 0 0 0-.397zm3.164.02a.396.396 0 0 0-.279.675.396.396 0 0 0 .559 0 .396.396 0 0 0 0-.56.4.4 0 0 0-.28-.115zm-6.32.14a.24.24 0 0 0-.172.07.24.24 0 0 0 0 .342.242.242 0 1 0 .342-.341.24.24 0 0 0-.17-.07zm-2.338.04a.264.264 0 0 0-.297.386.265.265 0 1 0 .46-.264.26.26 0 0 0-.163-.123zm7.822.583a.35.35 0 0 0-.267.036.35.35 0 0 0-.13.482.35.35 0 0 0 .481.129.35.35 0 0 0 .13-.483.35.35 0 0 0-.214-.164zm5.358.065a.88.88 0 0 0-.38 1.64.88.88 0 1 0 .38-1.64zm-9.987.014a.26.26 0 0 0-.16.12.264.264 0 1 0 .457.264.264.264 0 0 0-.297-.384zm-5.535.375a.484.484 0 0 0-.318.714.484.484 0 1 0 .838-.484.48.48 0 0 0-.52-.23zm8.908.011a.33.33 0 0 0 .172.639.33.33 0 0 0-.172-.639zm3.33 0a.6.6 0 0 0-.257.149.573.573 0 0 0 0 .81.573.573 0 0 0 .81 0 .573.573 0 0 0 0-.81.57.57 0 0 0-.552-.149zm-5.486.051a.286.286 0 0 0-.347.19.286.286 0 1 0 .552.148.286.286 0 0 0-.205-.338zm1.084.111a.308.308 0 0 0 0 .616.308.308 0 0 0 0-.616zm-4.543.069a.308.308 0 0 0-.217.527.309.309 0 0 0 .436-.437.3.3 0 0 0-.219-.09zm7.815.816a.53.53 0 0 0-.319.068.528.528 0 0 0 .528.915.528.528 0 0 0-.21-.983zm-6.575.176a.352.352 0 0 0-.085.644.35.35 0 0 0 .482-.128.352.352 0 0 0-.397-.516zm9.422.34a.8.8 0 0 0-.355.205.793.793 0 1 0 1.121 1.12.793.793 0 0 0 0-1.12.79.79 0 0 0-.766-.205zm-4.43.16a.484.484 0 0 0-.492.615.484.484 0 0 0 .936-.25.48.48 0 0 0-.443-.365zm-8.142.08a.53.53 0 0 0-.238.137.53.53 0 0 0 0 .748.53.53 0 0 0 .748 0 .53.53 0 0 0 0-.748.53.53 0 0 0-.51-.137zm4.893.021a.396.396 0 0 0-.485.282.396.396 0 0 0 .766.205.396.396 0 0 0-.281-.487zm1.56.165a.44.44 0 0 0 0 .88.44.44 0 1 0 0-.88zm4.473 1.01a.75.75 0 0 0-.375.099.75.75 0 0 0-.274 1.023.75.75 0 0 0 1.022.274.75.75 0 0 0 .273-1.022.75.75 0 0 0-.646-.375zm-8.998.175a.573.573 0 0 0-.229 1.059.573.573 0 0 0 .782-.21.573.573 0 0 0-.21-.783.57.57 0 0 0-.343-.066zm6.658.783a.704.704 0 0 0-.498.862.704.704 0 1 0 1.36-.364h.001a.704.704 0 0 0-.863-.498zm-4.479.063a.62.62 0 0 0-.562.453.617.617 0 1 0 1.191.318.616.616 0 0 0-.629-.771zm2.348.26a.66.66 0 0 0-.662.66.66.66 0 0 0 .662.66.66.66 0 0 0 .66-.66.66.66 0 0 0-.66-.66z"/></svg>