<svg xmlns="http://www.w3.org/2000/svg" viewBox="0 0 24 24"><path d="M10.951 6.459a.35.35 0 0 0-.344.291l-.181 1.031h-1.28a.35.35 0 0 0-.312.194l-1.8 3.84-.179-3.713a.35.35 0 0 0-.35-.32H4.87a.35.35 0 0 0-.314.193L2.703 11.83l-.182-3.7a.35.35 0 0 0-.35-.349H.352a.35.35 0 0 0-.26.11.37.37 0 0 0-.091.273l.816 7.842a.35.35 0 0 0 .35.31l1.354.002a.45.45 0 0 0 .394-.238l2.068-3.96.254 3.886a.35.35 0 0 0 .348.312h1.344a.45.45 0 0 0 .396-.24l2.512-4.926-.486 2.78a.36.36 0 0 0 .076.287.35.35 0 0 0 .267.125h1.592a.35.35 0 0 0 .344-.281l.766-4.374h2.736l-4.135 5.41a1.38 1.38 0 0 0-.883-.32c-.76 0-1.38.62-1.38 1.381s.62 1.381 1.38 1.381a1.39 1.39 0 0 0 1.373-1.223l10.912-.002a.35.35 0 0 0 .344-.289l.25-1.422a.35.35 0 0 0-.078-.285.35.35 0 0 0-.268-.123l-2.83-.002 4.125-5.4a.33.33 0 0 0 .02-.34.33.33 0 0 0-.295-.178h-4.414l.28-.365a.35.35 0 0 0 .019-.36.35.35 0 0 0-.309-.187h-6.44l.089-.496a.36.36 0 0 0-.082-.287.34.34 0 0 0-.266-.123zm.07.352h1.424a.08.08 0 0 1 .063.025.1.1 0 0 1 .02.068l-.143.81 6.691.007c.036 0 .062.022.074.043a.07.07 0 0 1-.004.076l-.603.789 4.957-.002a.07.07 0 0 1 .059.035.05.05 0 0 1 0 .059l-4.122 5.394c-.047.059-.044.208-.011.272.034.064.15.156.224.156l2.899.004a.08.08 0 0 1 .062.027.08.08 0 0 1 .018.067l-.219 1.26a.08.08 0 0 1-.084.066H11.3l-.18-.002a1 1 0 0 1 .018.193 1.027 1.027 0 1 1-1.028-1.025 1.03 1.03 0 0 1 .903.531l4.494-5.893c.072-.152.035-.205-.004-.294-.029-.068-.138-.138-.256-.137h-3.144l-.805 4.59a.08.08 0 0 1-.08.06H9.793a.08.08 0 0 1-.064-.027.08.08 0 0 1-.018-.067l.873-4.982-3.55 6.963a.18.18 0 0 1-.159.092l-1.209.006c-.043 0-.08-.03-.084-.067L5.25 10.85l-2.625 5.029a.18.18 0 0 1-.156.092l-1.229-.002a.08.08 0 0 1-.08-.07L.36 8.22a.1.1 0 0 1 .02-.065.1.1 0 0 1 .063-.023h1.649c.045 0 .082.038.082.086l.248 5.008 2.426-5.05a.08.08 0 0 1 .072-.044l1.504-.006c.041 0 .08.032.082.068l.244 5.047 2.377-5.066a.09.09 0 0 1 .074-.043h1.52l.218-1.256a.08.08 0 0 1 .082-.066zm6.442 3.232-2.92 3.818a.29.29 0 0 0-.03.309.3.3 0 0 0 .264.166h2.606l2.943-3.85a.28.28 0 0 0 .028-.293.28.28 0 0 0-.252-.15zm.174.35h2.318l-2.746 3.591h-2.318z"/></svg>