<svg xmlns="http://www.w3.org/2000/svg" viewBox="0 0 24 24"><path d="M12 0 9.494 4.287 4.947 2.291l.494 4.943L.588 8.29l3.305 3.707L.588 15.71l4.853 1.053-.5 4.945 4.553-1.994L12 24l2.504-4.287 4.55 1.994-.495-4.937 4.853-1.061-3.307-3.707 3.307-3.709-4.853-1.059.494-4.945-4.55 1.996zm0 1.309 1.969 3.37L12 7.2l-1.97-2.521zm-5.668 2.31 3.092 1.356 1.619 2.072-2.95-1.049zm11.336 0L15.9 5.998l-2.943 1.049 1.62-2.072zm.557.356-.344 3.398-1.533 2.18.088-3.162zm-12.448.002L7.564 6.39l.086 3.162-1.533-2.18zm2.453 2.77 3.438 1.222v3.549l-3.336-1.12zm7.534 0-.096 3.651-3.342 1.12v-3.55zM5.654 7.86l1.838 2.614-3.064 1.134L1.83 8.691zm12.692 0 3.824.836-2.604 2.918-3.064-1.14zM8.13 11.018l3.334 1.127-2.063 2.794-3.498-1.029zm7.738.002 2.22 2.89-3.497 1.031-2.065-2.796zm-8.818.32-1.9 2.47-2.862.977 2.234-2.51zm9.898 0 2.528.941 2.234 2.512-2.861-.982zM12 12.53l2.063 2.8L12 18.335 9.938 15.33zm-6.64 1.905 3.044.896-2.62.838-3.352-.734zm13.28 0 2.928 1.002-3.351.73-2.625-.838zM9.216 15.77l.082 3.31-3.586 1.568.393-3.896zm5.564 0 3.117.982.385 3.9-3.578-1.572zm-4.888.656 1.777 2.597v3.108l-1.711-2.934zm4.218.002-.066 2.77-1.717 2.933v-3.108z"/></svg>