<svg xmlns="http://www.w3.org/2000/svg" viewBox="0 0 24 24"><path d="M12.729 0c-1.614 0-3.193.316-4.665.951a12 12 0 0 0-3.816 2.574 11.92 11.92 0 0 0-3.516 8.479 11.92 11.92 0 0 0 3.516 8.48 12 12 0 0 0 3.816 2.573c1.472.626 3.051.943 4.672.943 1.56 0 3.05-.3 4.416-.838l-.908-2.29a9.5 9.5 0 0 1-3.508.669 9.48 9.48 0 0 1-6.744-2.795A9.48 9.48 0 0 1 3.2 12.004c0-2.547.997-4.944 2.795-6.742a9.5 9.5 0 0 1 6.742-2.793 8.072 8.072 0 0 1 6.735 12.523l-2.098-5.166c-.308-.758-.678-1.894-2.07-1.894-1.393 0-1.765 1.145-2.065 1.894l-1.93 4.77-2.59-6.54H5.993l3.227 7.95c.326.802.688 1.894 2.09 1.894 1.4 0 1.753-1.092 2.08-1.894l1.91-4.726 1.922 4.725c.388.978.802 1.894 2.08 1.894.908 0 1.48-.58 1.797-.959a10.5 10.5 0 0 0 2.168-6.4C23.268 4.715 18.545 0 12.728 0z"/></svg>