<svg xmlns="http://www.w3.org/2000/svg" viewBox="0 0 24 24"><path d="M1.846 0 0 1.846V7.71h7.713V0zm6.299 0v5.867L9.99 7.711h4.022l1.845-1.846V0zm8.144 0v5.867l1.846 1.844h5.863V.002zM7.711 8.145 0 8.146v7.71h5.865l1.846-1.844zm16.289 0-5.867.001-1.844 1.842v4.024l1.846 1.843H24zm-12.014 2.751a1.105 1.105 0 0 0 .014 2.21A1.105 1.105 0 0 0 13.105 12a1.105 1.105 0 0 0-1.119-1.104zM0 16.29V24h5.865l1.846-1.842v-4.023l-1.846-1.846zm9.988 0-1.843 1.846V24h7.71v-5.865l-1.845-1.846zm6.3 0V24H24v-5.865l-1.842-1.846z"/></svg>