<svg xmlns="http://www.w3.org/2000/svg" viewBox="0 0 24 24"><path d="M0 5.139v2.074l1.063-.055.093.426a4 4 0 0 0 .114.418 28 28 0 0 0 .472 1.39l3.295 9.434h2.7l1.501-4.478q.079-.226.246-.772.165-.546.358-1.222.194-.676.373-1.387.18-.711.26-1.283h.025q.121.438.26.93.138.49.263.95a47 47 0 0 0 .248.85q.12.392.2.606l1.873 5.806h2.885l3.095-8.996a23 23 0 0 1 .285-.758 6.3 6.3 0 0 1 .495-.984 3.6 3.6 0 0 1 .71-.85q.41-.358.956-.357V5.139h-5.168V7.21l1.568-.106v.03q-.12.225-.213.45-.093.227-.193.478a8 8 0 0 0-.194.55l-.213.672-1.048 3.442-.354 1.175q-.193.648-.273 1.205h-.026a168 168 0 0 0-.666-2.459l-2.177-7.51H9.86l-1.99 6.835q-.147.504-.254.922a40 40 0 0 0-.332 1.43l-.133.597h-.027a15 15 0 0 0-.246-1.336 39 39 0 0 0-.313-1.256l-.916-3.322a5 5 0 0 1-.127-.52 2 2 0 0 1-.033-.476q0-.478.233-.785.232-.305.804-.344V5.139zm21.768 9.257a2.23 2.23 0 0 0-2.233 2.233 2.232 2.232 0 1 0 4.465 0 2.23 2.23 0 0 0-2.232-2.233z"/></svg>