<svg xmlns="http://www.w3.org/2000/svg" viewBox="0 0 24 24"><path d="M24 1.047 15.67 18.08l-3.475-8.53-3.472 8.53L.393 1.05l3.228 8.976 3.285 8.5C3.873 19.335 1.332 20.46 0 21.75c.443-.168 3.47-1.24 7.408-1.928l1.211 3.13 1.553-3.518a37 37 0 0 1 3.959-.204l1.644 3.721 1.4-3.619c2.133.145 3.86.425 4.675.691 0 0 .92-1.96 1.337-2.865a55 55 0 0 0-5.136-.092l2.72-7.043zm-21.84.025L8.64 13.86l3.567-9.154 3.568 9.154 6.48-12.787-6.433 8.451-3.615-8.218-3.613 8.218zM12.195 14.85l1.116 2.521a43 43 0 0 0-2.364.307z"/></svg>