<svg xmlns="http://www.w3.org/2000/svg" viewBox="0 0 24 24"><path d="M6.39 1.537a.79.79 0 0 0-.677.39l-5.608 9.68a.79.79 0 0 0 0 .786l5.608 9.68a.79.79 0 0 0 .678.39h11.218c.28 0 .538-.149.678-.39l5.608-9.68a.79.79 0 0 0 0-.786l-5.608-9.68a.79.79 0 0 0-.678-.39zm.032.838h10.54l-5.208 9.21H5.969l4.719-8.175a.13.13 0 0 0-.114-.195l-3.068-.002a.26.26 0 0 0-.227.13l-4.763 8.243h-1.43zm11.332.303 5.4 9.322-5.37 9.273-5.3-9.279zm.172 2.824a.13.13 0 0 0-.113.066l-1.52 2.69a.26.26 0 0 0 .002.258l1.943 3.361a.26.26 0 0 1 0 .262l-1.927 3.338a.26.26 0 0 0 0 .261l1.527 2.674a.13.13 0 0 0 .226 0l3.551-6.142a.52.52 0 0 0 0-.524l-3.576-6.18a.13.13 0 0 0-.113-.064zM1.09 12.422h1.435l4.764 8.232a.26.26 0 0 0 .227.131l3.072.002a.13.13 0 0 0 .113-.197l-4.72-8.168h5.783l5.256 9.203H6.422z"/></svg>