<svg xmlns="http://www.w3.org/2000/svg" viewBox="0 0 24 24"><path d="M11.984 0C9.66 0 7.38.647 5.234 2.086c.067-.044.619-.373 1.522-.34C9.056 1.828 12 3.551 12 3.551v-.006s2.946-1.717 5.246-1.799c.905-.033 1.452.294 1.52.34C16.605.646 14.334 0 12 0zm8.082 3.38c-.592 0-1.984.435-4.804 3.247 2.5 2.961 7.484 10.313 6.076 12.912A11.94 11.94 0 0 0 24 12.004c0-3.34-1.365-6.361-3.57-8.535 0 0-.027-.023-.082-.043a.8.8 0 0 0-.282-.045zm-16.13.003a.7.7 0 0 0-.282.045v-.002c-.057.02-.082.042-.086.043A11.95 11.95 0 0 0 0 12.004c0 2.854.997 5.473 2.66 7.533-1.4-2.605 3.58-9.951 6.08-12.91-2.82-2.813-4.214-3.244-4.804-3.244zM12 9.615c-3.582 2.708-9.78 9.506-7.898 11.418A11.95 11.95 0 0 0 12 24a11.96 11.96 0 0 0 7.902-2.967c1.877-1.912-4.316-8.71-7.902-11.418z"/></svg>