<svg xmlns="http://www.w3.org/2000/svg" viewBox="0 0 24 24"><path d="M14.607 0a6 6 0 0 0-.775.041c-.58.065-1.29.129-1.807.322-.064 0-.193.194-.064.194s.582.064.582.064-.582.13-.582.26c0 .129.064.129.129.129.064 0 1.485-.065 2.066 0 .646.129 1.355.45 1.807 1.224.774 1.42.451 2.775.258 3.227-.968 2.13-8.648 15.23-9.035 16.133s-.515 1.485.582 2.066 1.677.323 2-.064c.387-.517 7.034-17.167 9.293-18.264.451-.194.773-.258 1.095-.193.517.129.775.517.969.71.194.388.904.774 1.227.838.258.065.708-.645 1.03-1.29.324-.581.519-1.356.454-1.55s-.969-.58-1.162-.58c-.13 0-.388.13-.84.065-.452-.064-.902-.582-1.16-.969-.452-.645-1.097-1.03-1.678-1.353C18.351.687 17.64.492 16.93.363 16.155.17 15.382.013 14.607 0zm-9.68 1.719A4.765 4.765 0 0 0 .153 6.494v11.744c0 2.646 2.13 4.776 4.453 4.711.646 0 .838-.515 1.032-.902h-.323a4.186 4.186 0 0 1-4.193-4.195V7.01a4.184 4.184 0 0 1 4.193-4.194h9.358c-.194-.193-.968-.515-1.742-.45-.323 0-.969.127-1.356-.132-.387-.322-.321-.515-.902-.515zM5.38 3.46c-2 0-3.549 1.613-3.549 3.549v10.842c0 1.935 1.613 3.548 3.549 3.548h.582c0-.064.773-1.418 2.451-4.257.194-.388.453-.775.711-1.227h-4.71c-.582 0-.905-.388-.97-.71-.129-.517.195-1.161.905-1.161h2.386l3.034-5.293s-.711-1.29-.905-1.613c-.258-.452-.129-.902.13-1.16.386-.388 1.034-.582 1.679.45l.258.387.258-.386c.58-.84.968-.774 1.29-.71.517.13.839.71.387 1.614l-4.002 6.71h1.356a79 79 0 0 0 1.355-2.388c-.064-.322-.129-.708-.064-1.031.064-.516.322-.968.644-1.355l.389.644c1.226-2.13 2.128-3.937 2.387-4.646.129-.388.322-1.162.129-1.807zm14.197 3.025a.26.26 0 0 0-.129.073c-.387.451-1.485 2-4.002 7.486h1.55c1.032 0 1.226.515 1.226.709.064.516-.194 1.162-1.227 1.162h-.967l.774 1.291c.451.774.258 1.162 0 1.42-.387.387-1.226.386-1.678-.453l-.902-1.549c-.646 1.42-1.292 2.968-2.067 4.775h4.002c1.936 0 3.55-1.613 3.55-3.548V6.559c-.033-.065-.081-.08-.13-.073zm.84.46v10.906a4.19 4.19 0 0 1-4.195 4.195h-4.325s-.386 1.031.84 1.031h3.871a4.765 4.765 0 0 0 4.776-4.775V8.816c.064-.903-.709-1.483-.967-1.87zM6.002 16.288c.803.02 1.196.543 1.248.596 0 0-.838 1.484-1.096 1.742s-.581.322-.904.258c-.516-.13-.838-.646-.645-1.098 0-.064.774-1.42.774-1.42.23-.06.438-.083.623-.078z"/></svg>