<svg xmlns="http://www.w3.org/2000/svg" viewBox="0 0 24 24"><path d="m19.94 1.9-9.092 11.873 4.597 6.393a14.3 14.3 0 0 1-2.558.229c-2.387 0-4.583-.578-6.317-1.543l6.557-8.627-6.031-8.31L2.23 1.91 9.8 12.48l-4.33 5.66c-1.692-1.265-2.73-2.964-2.73-4.831 0-2.13 1.348-4.042 3.48-5.342l-.655-1C2.22 8.386 0 10.877 0 13.71c0 2.432 1.636 4.61 4.213 6.074l-1.766 2.307h1.66l1.3-1.71c1.891.83 4.157 1.315 6.591 1.315a17.4 17.4 0 0 0 4.19-.502l.65.905H21.7l-1.728-2.422C22.443 18.215 24 16.083 24 13.71c0-2.94-2.39-5.512-5.947-6.9l-.217.31c3.099 1.214 5.193 3.53 5.193 6.188 0 2.202-1.439 4.17-3.697 5.47l-5.152-7.22L21.56 1.9zM12 5.754v.002c-.586 0-1.212.045-1.775.1 1.004 1.308 1.836 2.416 2.795 3.675-.538-1.157-1.643-2.269-1.26-2.84.378-.565 1.074-.468 1.127-.468 1.118 0 2.195.126 3.2.359l.235-.324C14.98 5.91 13.523 5.754 12 5.754z"/></svg>