<svg xmlns="http://www.w3.org/2000/svg" viewBox="0 0 24 24"><path d="M12 0C5.373 0 0 5.373 0 12s5.373 12 12 12 12-5.373 12-12S18.627 0 12 0zm6.586 9.275a2.69 2.69 0 1 1-.001 5.378 2.69 2.69 0 0 1 0-5.378zM2.91 9.287c.098 0 .188.038.258.106l2.055 2.048L7.27 9.396a.36.36 0 0 1 .26-.109.37.37 0 0 1 .375.367.34.34 0 0 1-.103.258l-2.057 2.055 2.055 2.05a.37.37 0 0 1-.262.627h-.01a.37.37 0 0 1-.265-.117L5.22 12.488l-2.053 2.047a.366.366 0 0 1-.625-.26c0-.099.038-.191.11-.263l2.04-2.05-2.039-2.048a.35.35 0 0 1-.111-.26c0-.203.165-.367.367-.367zm7.516.024a2.66 2.66 0 0 1 1.511.412c.63.405 1.034 1.021 1.184 1.771.075.42-.208.795-.732.81l.066-.046h-3.83q0 .027.006.056c.02.105.046.212.084.311.194.531.764 1.274 1.828 1.29.33-.004.631-.086.9-.23.21-.12.392-.27.526-.427.045-.058.089-.112.119-.168.18-.23.406-.185.54-.082.165.135.18.39.046.568l-.018.018c-.21.27-.433.495-.687.66a2.5 2.5 0 0 1-.813.344c-.33.09-.644.104-.974.06a2.69 2.69 0 0 1-2.28-2.01c-.06-.21-.09-.42-.09-.644 0-.855.422-1.695 1.125-2.205a2.75 2.75 0 0 1 1.489-.488zm5.142.01h.106c.195 0 .36.164.36.367 0 .2-.165.352-.376.359l-.111.006c-.796.1-.883.476-.883 1.404v2.787a.366.366 0 0 1-.732 0v-4.53c0-.203.159-.366.361-.366.166 0 .316.125.346.289.27-.21.6-.317.93-.317zm-5.023.706c-.91 0-1.673.622-1.887 1.465v.031h3.778a1.946 1.946 0 0 0-1.891-1.494zm8.04.006v.002a1.934 1.934 0 0 0-1.93 1.932c0 1.064.866 1.93 1.93 1.93a1.931 1.931 0 0 0 0-3.864zm0 1.266a.665.665 0 1 1-.666.666c0-.367.3-.666.667-.666z"/></svg>