<svg xmlns="http://www.w3.org/2000/svg" viewBox="0 0 24 24"><path d="M18.188 0c-.517 0-.74.325-.926.66 0 0-7.456 13.223-7.703 13.656.015.024 4.92 9.024 4.92 9.024.17.308.435.66.966.66h3.453c.211 0 .375-.079.463-.22.09-.152.09-.346-.007-.536l-4.88-8.916a.02.02 0 0 1 0-.021L22.14.756c.095-.191.097-.387.006-.535-.09-.143-.251-.221-.46-.221zM3.648 4.725v.015c-.21 0-.384.073-.472.215-.09.15-.079.34.02.531l2.34 4.051q.005.015 0 .022L1.858 16.05a.52.52 0 0 0 0 .53.5.5 0 0 0 .452.233h3.46c.518 0 .767-.349.946-.668l3.732-6.609-2.377-4.154c-.172-.315-.435-.658-.963-.658z"/></svg>