<svg xmlns="http://www.w3.org/2000/svg" viewBox="0 0 24 24"><path d="M18.11 5.615c-3.27 0-5.91 2.949-5.91 6.385l.004.219c.107 3.286 2.611 6.064 5.912 6.164C21.387 18.33 24 15.425 24 12c0-3.368-2.577-6.385-5.89-6.385zM0 5.697l5.088 6.385L.13 18.301h1.63L5.903 13.1l4.145 5.2h1.613l-4.959-6.218 5.09-6.385h-1.613l-4.274 5.367L1.63 5.697zm18.11 1.188c2.536 0 4.622 2.363 4.622 5.115 0 2.709-2.04 5.115-4.623 5.115l-.195-.004c-2.46-.115-4.365-2.375-4.443-5.111 0-2.716 2.048-5.115 4.638-5.115zm-.962 3.709c-.507 0-1.1.661-.703 1.472.335.681 1.657 1.34 1.657 1.34l.044-.023c.236-.123 1.313-.712 1.61-1.317.398-.81-.196-1.472-.703-1.472-.561 0-.951.535-.951.535s-.394-.535-.954-.535z"/></svg>