<svg xmlns="http://www.w3.org/2000/svg" viewBox="0 0 24 24"><path d="M12 0A12 12 0 0 0 0 12a12 12 0 0 0 12 12 12 12 0 0 0 12-12A12 12 0 0 0 12 0zm0 .57C18.315.57 23.43 5.685 23.43 12c0 6.31-5.115 11.43-11.43 11.43C5.69 23.43.57 18.314.57 12 .57 5.69 5.69.57 12 .57zm0 .235c-.1 0-.184.06-.219.146l-.492 1.551A9.523 9.523 0 0 0 2.475 12c0 1.48.336 2.886.94 4.137l-1.1 1.205a.24.24 0 0 0-.014.262.25.25 0 0 0 .236.115l1.594-.354A9.52 9.52 0 0 0 12 21.525a9.53 9.53 0 0 0 7.873-4.16l1.594.354a.24.24 0 0 0 .228-.123.23.23 0 0 0-.015-.262l-1.1-1.197A9.4 9.4 0 0 0 21.525 12a9.523 9.523 0 0 0-8.814-9.498L12.219.947A.24.24 0 0 0 12 .805zm-.004.25c.024 0 .049.02.057.043l1.02 3.353a1.2 1.2 0 0 0-.48.957c0 .39.19.733.48.951h-.005c.436.326.72.847.72 1.43v1.12l4.325-2.497.477.824-4.803 2.772v.965l.834.478 4.803-2.773.474.826-4.326 2.5.973.559c.507.293.818.795.883 1.333a1.193 1.193 0 0 0 1.654.954l2.393 2.56c.02.02.02.047.007.07q-.025.037-.068.03l-3.412-.795a1.193 1.193 0 0 0-1.65-.957l.003-.004c-.5.215-1.09.198-1.6-.096l-.968-.558v4.994h-.951v-5.545l-.834-.48-.834.48v5.545h-.953V15.1l-.973.554c-.508.294-1.1.312-1.6.098l.004.004a1.193 1.193 0 0 0-1.65.957l-3.414.793a.054.054 0 0 1-.062-.03c-.016-.02-.013-.046.007-.066l2.399-2.56c.333.143.73.134 1.066-.065.337-.193.543-.525.588-.885v-.004a1.78 1.78 0 0 1 .88-1.332l.97-.56-4.326-2.496.476-.826 4.803 2.773.832-.482v-.965l-4.803-2.77.477-.826 4.326 2.496V7.79c0-.583.282-1.102.719-1.428h-.004a1.18 1.18 0 0 0 .476-.953c0-.393-.19-.738-.48-.957l1.02-3.351c.007-.028.03-.045.05-.045zm.004 5.9a.833.833 0 0 0-.832.834v1.67l.832.48.832-.478V7.789a.833.833 0 0 0-.83-.834zm.002 4.084-.834.48v.965l.834.477.832-.48v-.961zm-2.621 1.518-1.444.832a.833.833 0 0 0-.306 1.14.82.82 0 0 0 .723.412.83.83 0 0 0 .416-.11l1.445-.835v-.96zm5.242 0-.832.478V14l1.445.834a.834.834 0 0 0 .832-1.445z"/></svg>