<svg xmlns="http://www.w3.org/2000/svg" viewBox="0 0 24 24"><path d="M16.61 0 11.4 14.477 8.807 6.359H5.94l3.803 9.772a4.02 4.02 0 0 1 0 2.924c-.387.993-1.072 2.159-2.959 2.506V24c1.512-.06 2.692-.562 3.694-1.57 1.032-1.036 1.92-2.654 2.79-5.09L19.74 0zM5.356 3.273A3.706 3.706 0 0 0 1.662 6.97v10.357a3.706 3.706 0 0 0 3.695 3.695h.817l.26-.035c1.76-.237 2.371-1.224 2.734-2.158a3.4 3.4 0 0 0 0-2.474L5.035 5.738H9.26l2.174 6.81 3.34-9.275zm13.791.08-5.294 14.198c-.502 1.403-1.015 2.539-1.56 3.469h10.044V6.97a3.706 3.706 0 0 0-3.19-3.616z"/></svg>