<svg xmlns="http://www.w3.org/2000/svg" viewBox="0 0 24 24"><path d="M.191 7.79v1.44h4.666L.25 14.934c-.14.206-.25.404-.25.847v.364h6.342a.576.576 0 0 0 .576-.577v-.767H2.023l4.325-5.428c.06-.078.188-.222.242-.283l.03-.035c.248-.366.298-.679.298-1.06v-.206zm14.8 0v7.874a.48.48 0 0 0 .48.48h.96V7.79zm5.702 1.81a3.306 3.306 0 1 0 0 6.613 3.306 3.306 0 0 0 0-6.613zm-10.14.039a3.283 3.283 0 1 0 0 6.564 3.27 3.27 0 0 0 1.937-.63.576.576 0 0 0 .576.572h.77V9.822H12.49v.45a3.27 3.27 0 0 0-1.937-.633zm10.14 1.322a1.945 1.945 0 1 1 .001 3.89 1.945 1.945 0 0 1 0-3.89zm-10.14.031a1.93 1.93 0 1 1 0 3.862 1.933 1.933 0 0 1-1.934-1.932c0-1.065.866-1.93 1.934-1.93z"/></svg>