<svg xmlns="http://www.w3.org/2000/svg" viewBox="0 0 24 24"><path d="M4.156 0A4.15 4.15 0 0 0 0 4.16v15.68A4.15 4.15 0 0 0 4.156 24H19.84A4.15 4.15 0 0 0 24 19.84V4.16A4.15 4.15 0 0 0 19.84 0zm10.612 8.762h.029a.6.6 0 0 1 .23.037.6.6 0 0 1 .202.125.63.63 0 0 1 .162.43.6.6 0 0 1-.162.435.6.6 0 0 1-.202.129.6.6 0 0 1-.23.041.5.5 0 0 1-.235-.041.6.6 0 0 1-.332-.328.6.6 0 0 1-.039-.236.6.6 0 0 1 .17-.43.6.6 0 0 1 .407-.162zm2.851 1.57q.045.006.096.006c.325-.011.646.064.937.219.238.144.43.353.551.607.128.28.19.583.186.889v.193a2 2 0 0 1 0 .219H16.89c.003.227.076.45.205.642a.78.78 0 0 0 .644.264.7.7 0 0 0 .485-.135.64.64 0 0 0 .23-.318l.914.258a1.4 1.4 0 0 1-.28.537c-.14.159-.32.282-.52.353a2.2 2.2 0 0 1-.837.137 1.9 1.9 0 0 1-1-.246 1.6 1.6 0 0 1-.666-.701 2.2 2.2 0 0 1-.226-1.037 1.95 1.95 0 0 1 .48-1.399 1.9 1.9 0 0 1 1.3-.488zm-9.605.023q.244.004.478.08c.207.066.402.173.565.313.26.302.392.694.365 1.09v2.275h-.893l-.107-.71h-.067q-.096.244-.271.439a1.1 1.1 0 0 1-.373.263 1 1 0 0 1-.453.082 1.33 1.33 0 0 1-.867-.263.97.97 0 0 1-.328-.801 1 1 0 0 1 .076-.432 1 1 0 0 1 .242-.363 1.48 1.48 0 0 1 1.043-.303h.951v-.18a.7.7 0 0 0-.137-.454.55.55 0 0 0-.437-.155.7.7 0 0 0-.377.086.48.48 0 0 0-.194.254l-.99-.142a1.26 1.26 0 0 1 .256-.565c.14-.174.321-.3.533-.377.261-.09.54-.136.82-.129q.08-.006.165-.008zm4.382.008c.174 0 .347.038.506.114.182.083.341.212.46.375.256.423.377.91.35 1.406a2.53 2.53 0 0 1-.355 1.447 1.15 1.15 0 0 1-1.01.518c-.203 0-.4-.046-.581-.137a1.05 1.05 0 0 1-.48-.457 1.3 1.3 0 0 1-.114-.234h-.045l.004 1.785h-1.059v-4.713h.905l.117.804h.056c.068-.208.178-.401.329-.56a1.13 1.13 0 0 1 .841-.344h.076zm7.56.084h.903l.114.805h.052a1.4 1.4 0 0 1 .235-.484.8.8 0 0 1 .312-.243.8.8 0 0 1 .39-.076h.235v1.053h-.4a.66.66 0 0 0-.315.008.6.6 0 0 0-.271.154.66.66 0 0 0-.174.26.7.7 0 0 0-.027.314v1.875h-1.055zM2.44 10.45h3.262v.897L3.73 13.104l.034.113h1.972l.043.9H2.4v-.9l1.93-1.754-.045-.117H2.441zm11.815 0h1.055v3.66h-1.055zm3.443.686.02.015a.7.7 0 0 0-.352.045.76.76 0 0 0-.287.203c-.11.155-.174.338-.19.524h1.546c-.034-.525-.257-.786-.737-.787zm-5.719.162q-.041-.001-.082.004a.8.8 0 0 0-.31.053.75.75 0 0 0-.258.189 1.02 1.02 0 0 0-.203.695v.065c-.015.257.056.507.203.71a.63.63 0 0 0 .254.196.64.64 0 0 0 .314.06.64.64 0 0 0 .579-.263c.14-.223.202-.48.187-.74a1.2 1.2 0 0 0-.18-.711.68.68 0 0 0-.504-.258zm-4.507 1.265a.46.46 0 0 0-.27.102.37.37 0 0 0-.113.277q0 .08.027.155a.4.4 0 0 0 .086.133.58.58 0 0 0 .399.109v.004a.86.86 0 0 0 .562-.182.57.57 0 0 0 .211-.457v-.14z"/></svg>