<svg xmlns="http://www.w3.org/2000/svg" viewBox="0 0 24 24"><path d="M19.197 0c-.505.005-1 .025-1.453.025L13.24.043c-1.614 0-9.196-.14-10.783.145C.336.57.022 2.535.021 4.295L.02 17.325c0 1.544-.225 3.96.722 5.28 1.201 1.673 3.567 1.354 5.365 1.35l8.311.031c1.61-.003 5.625.104 7.2-.23 2.114-.448 2.325-2.31 2.327-4.082l.01-13.635c.001-1.532.311-3.424-.68-4.709C22.335.11 20.714-.014 19.197 0zM8.443 3.854h8.264c0 .528.185 1.466-.037 1.947-.11.239-.49.383-.703.517-.496.315-.961.675-1.418 1.043-1.477 1.185-3.034 2.819-3.428 4.74-.182.896-.164 1.99.59 2.628 1.21 1.023 3.034-.025 4.316.986 1.337 1.053 1.141 3.071.371 4.39-.184.316-.417.798-.75.983-.23.13-.598.062-.853.062h-1.85c.057-.37.35-.579.575-.86.374-.47.673-.985.668-1.6-.01-1.158-1.127-1.17-1.983-1.17-1.518 0-3.295-.217-4.072-1.725-1.337-2.595.328-5.73 2.103-7.633.695-.746 1.686-1.333 2.278-2.154h-4.07z"/></svg>