<svg xmlns="http://www.w3.org/2000/svg" viewBox="0 0 24 24"><path d="M5.72 0C2.25 0 0 2.25 0 5.719v12.56C0 21.75 2.252 24 5.72 24h12.561C21.751 24 24 21.75 24 18.281V5.721C24 2.25 21.75 0 18.281 0zm1.966 4.078q-.408 1.096-.68 2.11h4.586c.545-.006.445 1.168.445 1.171H9.385a58 58 0 0 1-.114 3.797h2.713c.388.023.393 1.25.393 1.266H9.184a9.2 9.2 0 0 1-.409 2.101l.756-.603c.452.456 1.512 1.713 1.906 2.178.474.68.065 2.08.065 2.08l-2.795-3.381c-.653 2.518-1.846 3.605-1.846 3.605-.523.468-1.578.822-2.638.518 2.218-1.73 3.439-3.918 3.666-6.498H4.49c0-.015.198-1.243.807-1.266h2.71c.025-.32.087-3.254.087-3.797H6.598c-.136.406-.158.446-.268.752-.594 1.095-1.602 1.124-1.906 1.157.906-1.821 1.415-3.6 1.59-4.065.425-1.124 1.672-1.125 1.672-1.125zM13.078 6h6.377v11.33h-2.572l-2.186 1.373-.4-1.373h-1.219zm1.313 1.219v8.86h.623l.263.937 1.455-.938h1.456v-8.86z"/></svg>