<svg xmlns="http://www.w3.org/2000/svg" viewBox="0 0 24 24"><path d="M7.656 9.271A2.73 2.73 0 0 0 4.928 12a2.729 2.729 0 0 0 5.457 0 2.73 2.73 0 0 0-2.729-2.729zm5.881 0A2.73 2.73 0 0 0 10.81 12a2.729 2.729 0 0 0 5.457 0 2.73 2.73 0 0 0-2.729-2.729zm5.324 0c-1.14 0-2.066.927-2.066 2.067v3.31a1.06 1.06 0 0 0 1.06-1.058v-2.252a1.007 1.007 0 0 1 2.012 0v2.252c0 .586.475 1.058 1.06 1.058v-3.31a1.006 1.006 0 0 1 2.012 0v2.252A1.06 1.06 0 0 0 24 14.648v-3.31c0-1.14-.927-2.067-2.066-2.067-.61 0-1.159.265-1.538.686a2.06 2.06 0 0 0-1.535-.686zM0 9.35a1.06 1.06 0 0 0 1.06 1.06h2.13L.216 13.383a.74.74 0 0 0-.16.808.74.74 0 0 0 .685.457h4.291a1.06 1.06 0 0 0-1.058-1.058H1.51l2.972-2.975a.74.74 0 0 0 .16-.806.74.74 0 0 0-.685-.46zm7.656.98A1.67 1.67 0 0 1 9.324 12a1.669 1.669 0 0 1-3.338 0 1.67 1.67 0 0 1 1.67-1.67zm5.88 0a1.67 1.67 0 0 1 1.67 1.67 1.669 1.669 0 0 1-3.339 0 1.67 1.67 0 0 1 1.668-1.67z"/></svg>