<svg xmlns="http://www.w3.org/2000/svg" viewBox="0 0 24 24"><path d="m3.615.715-.004.004A3.62 3.62 0 0 0 0 4.33v15.328a3.627 3.627 0 0 0 3.615 3.613h8.242a.5.5 0 0 0 .229-.042.607.607 0 0 0-.232-1.168H3.61a2.393 2.393 0 0 1-2.392-2.4V6.112h21.566V18.95a.13.13 0 0 1-.12.074h-.743a.16.16 0 0 1-.09-.043.13.13 0 0 1-.039-.093v-2.23q-.006-.003-.006-.007v-.007a.602.602 0 1 0-1.201 0v6.033h.004v.002a.602.602 0 0 0 1.203.002v-2.385a.12.12 0 0 1 .035-.096.13.13 0 0 1 .094-.039h.744a.12.12 0 0 1 .1.035.1.1 0 0 1 .023.035v2.436a.04.04 0 0 0 .002.021.6.6 0 0 0 .14.381.6.6 0 0 0 .46.213h.01a.59.59 0 0 0 .546-.369l.004-.01.024-.074a.6.6 0 0 0 .025-.162V4.326A3.615 3.615 0 0 0 20.393.715zm-.004 1.219H20.39a2.383 2.383 0 0 1 2.4 2.392V4.9H1.215v-.57A2.39 2.39 0 0 1 3.61 1.934zM6.36 7.279a.2.2 0 0 0-.144.076l-3.963 4.721a.214.214 0 0 0 .326.276L6.543 7.63a.213.213 0 0 0-.184-.35zM3.42 7.4c-.631 0-1.15.52-1.15 1.15 0 .633.52 1.153 1.15 1.153.633 0 1.153-.52 1.153-1.152S4.052 7.4 3.42 7.4zm0 .666a.48.48 0 0 1 .485.485.48.48 0 0 1-.484.484.48.48 0 0 1-.484-.484.48.48 0 0 1 .484-.485zm1.94 1.94c-.632 0-1.152.52-1.152 1.152s.52 1.15 1.152 1.15 1.153-.518 1.153-1.15c0-.633-.522-1.152-1.153-1.152zm0 .668a.48.48 0 0 1 .487.484.48.48 0 0 1-.487.485.48.48 0 0 1-.484-.485.48.48 0 0 1 .484-.484zm2.664 1.205-.005.004a.214.214 0 0 0-.08.41.2.2 0 0 0 .08.016h2.832a.3.3 0 0 0 .086-.02.22.22 0 0 0 .13-.197.213.213 0 0 0-.212-.213zm5.768 4.158-.004.006a.61.61 0 0 0-.61.61.61.61 0 0 0 .61.609l.03-.002h1.122a.05.05 0 0 1 .04.006.08.08 0 0 1 .04.056.1.1 0 0 1-.005.037l-1.784 4.453a.7.7 0 0 0-.048.25v.55a.65.65 0 0 0 .191.474.67.67 0 0 0 .475.195h2.09a.7.7 0 0 0 .244-.05.62.62 0 0 0 .384-.575v-.004a.626.626 0 0 0-.625-.625h-1.42a.05.05 0 0 1-.037-.004.07.07 0 0 1-.039-.056.1.1 0 0 1 .006-.033l2.057-5.127a.555.555 0 0 0-.518-.762h-2.166a.1.1 0 0 0-.033-.008zm4.912.035c-.286 0-.613.027-.81.082a.95.95 0 0 0-.465.268 1.2 1.2 0 0 0-.248.523q-.076.323-.076.82-.001.478.01.772.01.241.056.48a1 1 0 0 0 .125.294q.082.118.19.212.15.132.324.23.19.111.388.212.2.101.381.21.172.098.315.231.055.06.103.13a.3.3 0 0 1 .055.091.7.7 0 0 1 .04.24q.011.11.01.303a4 4 0 0 1-.029.525.8.8 0 0 1-.076.285.26.26 0 0 1-.15.12 2.3 2.3 0 0 1-.38.029.8.8 0 0 1-.228-.03.3.3 0 0 1-.142-.128 1 1 0 0 1-.076-.276 5 5 0 0 1-.02-.46l-.002-.05h-.004a.54.54 0 0 0-.176-.312.517.517 0 0 0-.847.316h-.002q.003.022.002.051v.024l.002.285q0 .543.076.883.085.33.267.523a.9.9 0 0 0 .457.248q.332.08.674.074c.305 0 .7-.026.903-.082a.9.9 0 0 0 .486-.312q.19-.23.266-.637a5.4 5.4 0 0 0 .085-1.057q0-.47-.029-.755a1.7 1.7 0 0 0-.086-.47.8.8 0 0 0-.18-.294 1.5 1.5 0 0 0-.277-.22 3 3 0 0 0-.285-.157 4 4 0 0 0-.342-.176 8 8 0 0 1-.343-.183 3 3 0 0 1-.276-.194 1 1 0 0 1-.113-.11.4.4 0 0 1-.059-.138 2 2 0 0 1-.027-.21v-.346a2.6 2.6 0 0 1 .014-.397.6.6 0 0 1 .068-.23.23.23 0 0 1 .143-.102c.057-.019.215-.027.304-.027q.305 0 .38.175.06.113.066.24c.003.067.003.153.003.245h.004q.005-.004.004 0a.51.51 0 0 0 .516.512.516.516 0 0 0 .515-.512v-.004c-.004-.1-.003-.19-.003-.242a3.2 3.2 0 0 0-.069-.71.9.9 0 0 0-.226-.468.87.87 0 0 0-.457-.258 2.7 2.7 0 0 0-.735-.082z"/></svg>