<svg xmlns="http://www.w3.org/2000/svg" viewBox="-10 0 1010 1000"><path d="M744 65q-8-2-24-2H235v874h499q21-2 33-14t13-34V107q-3-35-36-42zM369 627v-8q1-14 9-22t22-13q22-8 50-20 23-9 26-34 1-8-7-18-31-41-18-97 5-21 21.5-32.5t37.5-10 36.5 14T566 419q8 36-6 71-3 7-12 19t-7 26.5 15 23.5q8 5 28 13 12 5 36 13 15 6 21 15.5t6 26.5zM183 62q-34 0-48 14t-14 48v749q0 9 2 25 6 32 35 36 12 2 38 3l12 1V63h-25zm696 160v121q0 12-8.5 20.5T850 372h-41V192h41q12 0 20.5 9t8.5 21zm0 232v121q0 12-8.5 20.5T850 604h-41V425h41q12 0 20.5 8.5T879 454zm0 232v121q0 13-8.5 21.5T850 837h-41V657h41q12 0 20.5 8.5T879 686z"/></svg>