<svg xmlns="http://www.w3.org/2000/svg" viewBox="-10 0 1010 1000"><path d="M411 472q-37-36-86-37h-5q-26 0-49 9.5T230 472t-27.5 41-9.5 49q0 30 9.5 51.5T230 653t41 27.5 49 9.5q35 0 64.5-17t46.5-46.5 17-64.5q0-26-9.5-49T411 472zm-32 107H261v-33h118zm392-216q-42-126-95-126-61 0-135 89-71 83-71 133 0 28 38 50 35 20 64 20 56 0 102-34l44-55q20 40 27 68 13 34 11 89H480q-1 28-15 52.5T429 690h326q31 0 52-155 1-67-36-172zm-157 70q-16 0-28-4-46-25-46-41 4-17 31-43t44-26q20-1 51 33 27 31 38 63-33 18-90 18zm-12 301v176l-72 28V758zm-5-617-17 93-99-55 17-93z"/></svg>