<svg xmlns="http://www.w3.org/2000/svg" viewBox="-10 0 1020 1000"><path d="M847 154H153q-41 0-76.5 20.5t-56 56T0 308v384q0 42 20.5 77.5t56 56T153 846h694q41 0 76.5-20.5t56-56T1000 692V308q0-42-20.5-77.5t-56-56T847 154zM329 358q2 11-4.5 24T307 403t-23 7q-3-16 10.5-33.5T329 358zm30 201q0 1-1 1-11 14-18 20-13 8-30 1-22-10-44 0-12 5-21 3t-18-13q-37-42-36-96 2-32 22-48 23-20 53-10l6 2q10 4 13.5 4t12.5-4l6-2q29-11 54 5l13 12q-28 19-26 47t31 44q-6 19-17 34zm190-121q-2 23-17.5 37t-37 17.5-42.5-.5v83h-23V379q0-5 4-5l17-1q22-2 33-2 28 0 45 13 24 19 21 54zm98 137q-1-9-3-18l-12 12q-12 9-30 9.5t-29-7.5-15-21.5 0-27.5q8-22 35-32 18-6 45-6 3 0 4-1t0-4q0-8-1-12-2-11-10.5-17t-20.5-6-19 2-19 8l-2-4q-2-6-2.5-8.5t1.5-4.5q17-10 40-10 19-2 31 6 19 9 24 36 1 7 1 20l1 73q0 8 1 13zm150-114q-12 32-36 94-16 38-28 55-16 24-40 31h-1q-1 1-2 1l-6-19q12-6 17-9 21-15 30-39 1-4-1-10-29-77-52-133v-3h17q5 0 6.5 1t3.5 7l33 90 6 21 1-1q1 0 1-1l37-112q1-5 5.5-4.5t13.5-.5h7q-4 12-12 32zm-295-68q-11-5-28-5h-3q-11 2-16 2-2 0-3 1v80q0 3 3 3 18 4 31 1 16-2 27-11 12-11 13-30 2-14-4.5-25.5T502 393zm126 107q-13 1-19 2-10 3-17 8-12 8-13 23t10 23q4 3 8 4t11 1q13-1 23-10t11-21q1-7 0-20v-10z"/></svg>