<svg xmlns="http://www.w3.org/2000/svg" viewBox="-10 0 1010 1000"><path d="M302 767q0 34 16 62 13 21 33 37 13 11 23 15l10 35q-8 0-8 5v12q0 2 2.5 3.5t6.5 1.5h288q4 0 6.5-1.5t2.5-3.5v-12q0-5-7-5l8-29 11-10q14-12 25-26 16-19 24-39 11-24 9-46-24-11-50-47-24-34-42-80 5-54 23-77l9-11q36-46 53-74 31-52 25-81-5-25-25-48t-48-34q-31-12-64-7v2q-7-16-21-25-8-5-23-14-20-12-28-19-12-11-15-26 14-9 14-23 1-9-5.5-17T538 174q5-2 9-7t4-10q0-8-4.5-13.5T535 137l9-9-13-66-16 68 9 7q-7 2-11.5 6.5t-5 11 3.5 12 10 7.5q-10 2-16 9.5t-7 16.5q0 14 11 23 1 7-1.5 15t-9.5 13q-4 3-16 8-26 11-38 21-20 17-22 41l-2 20-22-5q-27-5-52-5-35 1-63 12-34 14-53 45 51-1 92 22 35 20 60 56 22 31 30 67 9 33 3 55-12 49-35 89-29 50-78 90zm333-222v-3q-2-20-1-28 3-45 4-114v-63q1-5 0-11 25-4 48 2 37 10 52 46 12 28 0 59-11 25-41 56-20 22-62 56z"/></svg>