<svg xmlns="http://www.w3.org/2000/svg" viewBox="-10 0 1010 1000"><path d="M603 517q18-2 54 1l15 2q4 0 10.5 1t9 1 6.5-2l3-1-1-2q-3-5-5-6l-53-26-6-2q-7-2-11-4 9-6 28-15 17-8 25-13 13-8 21-19v-4l-17 2q-22 1-33 4-20 6-45 8-15 2-46 3l-65 3q-69 4-103 8-61 7-183 24l-85 12-60 10 10 81 112-12q129-14 193-22 39-5 115-16 74-12 111-16zm158 60q-19-3-37-7 9-6 27-15 17-8 24-13 13-8 21-19h-4q-8-1-11 1-33 13-71 17-32 2-74-1-21-2-65 4l-17 2q-31 3-91 12l-7 1q-190 24-285 37-3 0-6 1l7 65q1 5 3.5 6t6.5 0q56-4 84-7 168-18 251-28 58-8 172-28 34-5 79 3 7 1 21 0h11q1 0 4-2l2-1-3-7q-16-16-42-21zM193 460q15-2 46-6 66-9 99-12 46-5 136-12l49-4q13-1 37.5-1.5T597 423q16-1 38-8 58-16 124 0l9 3h1q1-1 3-1l-4-4q-12-11-18-13-8-4-25-10l-17-7q-4-2-7-4l2-2 3-3q34-12 51-19 6-2 18-10l7-5 3-6-5-3-56 4-27 3q-33 5-50 6l-139 10q-99 8-149 14-47 6-142 21l-74 12 8 64zm453 17 9 6 8 6q16 8 23 14 16 14 36 13 12 0 37-9l4-1q-23-32-53-40-32-10-64 11zm113 87q5 2 14 7 25 10 35.5 19t21.5 11 24-3q5-2 18-5l11-3q-24-16-41-25-23-11-45-15-9-2-18 2-5 2-15 9zm47-147 36-6 7-2q-25-29-57.5-37.5T735 379l55 35q10 4 16 3zm-28 82q6 1 20-7l8-5q7-4 23-12 5-2 4.5-5.5T828 464l-38-15q-2-1-4-.5t-3 1.5l-29 25q1 2 1 3 3 2 8 9 9 11 15 12zm100-101q1 0 3.5-1t3.5-2l35-17-42-22q-1-1-4 0t-5 3q-5 4-16 12l-10 9q4 12 13.5 16.5T878 398zm17 141q-2 0-6 2l-22 21 1 1q15 13 23 16t17.5-1 29.5-19q-9-8-21-13-7-3-22-7zm-35-191-12-3q-27-8-40-11-3-2-7.5 2.5T786 353q20 18 38.5 17t35.5-22zm-93 99q1-1-.5-3.5T763 440l-14-3q-24-4-35-5-5 0-16 10l-5 5 42 17q5 2 18-5t14-12zm111 85q-19-3-53-9-8-1-12.5 2.5T805 538l10 4q21 8 33 10 8 2 14-3 4-3 11-11z"/></svg>