<svg xmlns="http://www.w3.org/2000/svg" viewBox="-10 0 1010 1000"><path d="M672 891q-41-57-125-170L422 552q-41-55-12-103 15-23 38.5-30.5t48 1.5 42.5 33l215 291q2 3 6.5 10t7.5 11q5 5 12 7-7-18-20-38-8-12-26-34-16-21-23-32l-63-87q-69-95-101-144-26-38-21.5-62.5T565 325l-1-1q-1-2-2-2-16-11-52.5-27T456 268q-28-18-44-43-5-7-11-5-3 1-10 7l-46 34-102 75q-10 7-10.5 13t6.5 15q16 20 25 49 5 20 9 54l2 17q1 19 3 28 3 15 9 26 31-29 56.5-27.5T397 547q164 203 283 379 13 19 17 35 4 20-4 39h15q38-11 60-22 32-15 52-37-43 13-63 14-23 0-42-14-15-13-43-50zm199-158Q766 587 621 389q-8-11-22-23v0q-13-11-21-14-12-5-24 4-10 7-10 19-1 9 4 24 9 25 30 55l227 313q16 22 48 52 16 18 31.5 9t14.5-27.5-9-37.5q-6-13-19-30zM608 853Q469 670 384 559q-15-19-27-26-19-11-36 1t-13 30q3 11 17 31l3 4q160 224 271 363 23 28 48 32 22 2 29-9t-3-34q-8-20-23-42-9-13-29-38zM422 174q-4-5-11-16l-15-21q-9-10-19-16-12-8-26-4-9 2-24 13-23 18-70.5 53T185 236q-27 19-35.5 32t-3.5 28q5 13 26 40 9 11 16 13t18-6q34-26 101.5-76T408 192l3-2q5-3 7-6 4-4 4-10zm-249 48q30-22 85-63l50-37q-38-15-56-25-28-15-46-33-21-21-32-50-6-14-23.5-14t-32 13.5T102 42t14 29q20 17 29 29 14 17 17 37 3 22 9 72zm354 245q-24-32-53-34.5T426 458q-14 21-10 43 4 18 20 40 88 120 264 358 17 23 38 34 18 8 36.5 3.5t31-20T818 880q-1-20-20-45l-60-83z"/></svg>