<svg xmlns="http://www.w3.org/2000/svg" viewBox="-10 0 1010 1000"><path d="M128 122H68q-2 0-3.5 2t-1.5 4v744q0 2 1.5 4t3.5 2h60q2 0 4-2t2-4V128q0-2-2-4t-4-2zm659 0h-59q-6 0-6 6v744q0 6 6 6h59q6 0 6-6V128q0-6-6-6zm-359 0h-60q-2 0-3.5 2t-1.5 4v744q0 2 1.5 4t3.5 2h60q2 0 4-2t2-4V128q0-2-2-4t-4-2zm195 0h-36q-6 0-6 6v744q0 6 6 6h36q2 0 4-2t2-4V128q0-2-2-4t-4-2zm-86 0h-24q-2 0-4 2t-2 4v744q0 2 2 4t4 2h24q2 0 4-2t2-4V128q-2-6-6-6zm-262 0h-31q-6 0-6 6v744q0 6 6 6h31q2 0 4-2t2-4V128q0-2-2-4t-4-2zm-64 0h-24q-2 0-4 2t-2 4v744q0 2 2 4t4 2h24q2 0 4-2t2-4V128q0-2-2-4t-4-2zm721 0h-31q-6 0-6 6v744q0 6 6 6h31q2 0 4-2t2-4V128q0-2-2-4t-4-2zm-64 0h-24q-2 0-4 2t-2 4v744q0 2 2 4t4 2h24q2 0 4-2t2-4V128q0-2-2-4t-4-2z"/></svg>