<svg xmlns="http://www.w3.org/2000/svg" viewBox="-10 0 1010 1000"><path d="M888 467q7 14 6 24-1 13-14 22-15 12-29 8-10-3-23-18 3 16-4 19.5t-20.5-2-20-24.5.5-32q5-9 14-14.5t18.5-4.5 10.5 6q1 4 0 11t-.5 10 .5 9q2-13 9.5-22t20.5-12q19-4 31 20zm32-252q-4 8-10 25l-1 3q-6 15-15 21.5t-25 3.5q-29-6-49 7 4 1 9 2l5 1q3 1 11 2 11 1 15 2 7 3 7 10 0 11-12 17-8 4-23 6-31 3-56 20-21 13-39 38-12 15-31 47l-8 13q-19 29 12 69 14 19 49 50l5 5q41 36 44 92 1 27-10.5 40.5t-39 18.5-49-6-23.5-34q-3-29-21-50-11-13-41-33-39-25-56-67-16-37-18-93-20 41-14.5 78t35.5 68q17 17 15 29t-21 21q-28 13-38.5 32t-6.5 51q4 29-6 59-10 27-31 53-14 18-10.5 26.5T496 858q22 6 38 25 9 11 6.5 18.5T524 910q-66 5-114-5-14-3-24.5-19t-12-35 8.5-30q42-51 58-94.5t2.5-86T389 567q39 64 34 121-3 49-40 98-26 35-82 86 7 4 21 9t20 8q10 5 17.5 11.5T370 911q4 8 2.5 15t-8.5 9q-5 1-14 1h-3q-52 2-77 1-48-2-71.5-32T185 829q7-32 4-55-4-27-24-50-14-16-23-46-8-25-15-35-11-15-33-19-10-1-14-9t-1.5-17T91 584q22-11 35-31 10-15 20-43 11-33 45-52l63-39q45-28 71-54 33-33 47-75 42-122 173-142 13-2 39-10 17-5 26-7l5-1q18-4 24-9 8-9 4-29-3-17 11-24 10-5 29.5-5.5T713 69q13 8 10 25.5t5 25.5q5 5 21 9l48 13q15 4 23.5 12.5T833 179q6 23 23 28t37-11l2-2q6-4 10.5-5.5t9.5 2.5q12 8 5 24zm-232-43q-1-12-9.5-20T657 142q-10-1-17 5t-9 16q-3 25 27 35 11 3 21-6.5t9-19.5zm103 36q-4-5-14-7-6-1-8-2-9-4-14-4-8-1-13.5 4.5T741 211q14 12 28 11 8-1 13.5-4t8.5-10zm83 324h-68q10 24 32.5 30.5T880 554l3-3q5-4 7-7t.5-7-4.5-4.5-9-.5zm-41-94h34q10-1 13-5t-3-12q-33-42-98-54-11-2-20 6-5 4-14 17-6 10-10 14l-8 9q-10 12-14 18-5 11-1 19 2 5 12 7 6 2 20 4t20 4q3 1 7.5-.5t7.5-6.5q9-13 24-17 11-3 30-3z"/></svg>