<svg xmlns="http://www.w3.org/2000/svg" viewBox="-10 0 1010 1000"><path d="M795 118q-50 0-87.5 30T659 224H337q-11-46-49-76t-86-30q-38 0-70 18.5T81 187t-19 70.5T83 330t56 51v150q0 95 51 178 48 79 130 125 85 48 181 48t181-48q82-46 130-125 51-83 51-178V381q33-17 53.5-51t20.5-72.5-19.5-70.5-52-50.5T795 118zM316 405q0-16 11.5-28t28.5-12 28.5 11.5T396 405t-11.5 28.5T356 445t-28.5-11.5T316 405zm181 408q-35 0-66-23.5t-49-63-18-86.5 18-87 48.5-63.5 67-23.5 67 23.5T613 553t18 87-18 86.5-48.5 63T497 813zm143-368q-17 0-28.5-11.5t-11.5-28 11.5-28.5 28-12 28.5 12 12 28.5-11.5 28T640 445zM429 567q-9 0-16.5 4.5t-10.5 12-1.5 16T408 613l68 69q9 8 21.5 8t20.5-8l69-69q6-6 8-14t-1.5-16-11-12-16.5-4z"/></svg>