<svg xmlns="http://www.w3.org/2000/svg" viewBox="-10 0 1010 1000"><path d="M809 272H181q-5 25-21.5 44.5T119 344q-4 2-6 2v110q13-20 34-32t46.5-12 47 13 34.5 34.5 13 47.5q0 39-28 66.5T193 601q-25 0-46-11.5T113 557v110q23 7 40 23t24 38h293q-43-9-78-40.5T336.5 608 316 504q0-61 25-113t67-82.5 91.5-30.5 91.5 30.5 66.5 82.5T682 504q0 55-20 103t-55.5 80-78.5 41h285q7-22 23-37.5t39-22.5l12-3V348q-30-5-51.5-25.5T809 272zm78 235q0 39-28 66.5T792 601t-67-27.5-28-66.5q0-26 13-47.5t34.5-34.5 47.5-13 47.5 13 34.5 34.5 13 47.5zm-148 0q0 22 15.5 37.5T792 560t37.5-15.5T845 507t-15.5-37.5T792 454t-37.5 15.5T739 507zm-493 0q0-22-15.5-37.5T193 454t-37.5 15.5T140 507t15.5 37.5T193 560t37.5-15.5T246 507zM63 222v556h875V222zm866 486-18-2h-9q-16 0-27 7-14 9-21 23v1l-1 1-1 4q-2 6-2 9l-1 4-2 14H143l-2-14v-4q-5-26-25-37-11-8-25-8h-4l-16-2V309l20-1q21-2 35.5-17t14.5-36l-1-24h710l-1 23q0 20 13 35.5t32 17.5q3 1 8 1h4l5-1 18-1zm-331-71q20-26 31-60.5t11-72.5q0-78-42-132-20-26-45.5-39.5T499 319t-53 13.5-45.5 39.5-31.5 60-11 72 11 72.5 32 60 46 39 52.5 13.5 53-13.5T598 637zm-46-62q-12 15-36 20v32q-4 1-12 1t-12-1v-29h-18l-13-2-12-3q-6-2-13-5 0-7 3-16l3-12 2-4q11 4 21 6 7 2 21 2 17 0 26-5.5t9-18.5q0-8-2.5-11.5T512 522l-38-17-10-5q-8-5-12-10-6-7-8.5-14.5T441 457q0-24 13.5-38t37.5-17v-28q8-2 11.5-2t9.5 1l2 1v27q14 2 21 4 11 1 21 6-1 13-8 30l-17-6q-4-1-11-1-4-1-14-1-6 0-9 1l-8 2q-3 2-7 6-2 6-2 10t2 10q1 2 5 6 2 2 5 3l8 4 18 8q7 2 18 8t15 10q6 6 9 15t3 22q0 22-12 37z"/></svg>