<svg xmlns="http://www.w3.org/2000/svg" viewBox="-10 0 1010 1000"><path d="M251 895q1 18 13.5 30.5T295 938h411q17 0 30-12.5t14-30.5l29-620H221zm342-466q0-7 5.5-12t12.5-5h29q7 0 12.5 5t5.5 12v355q0 7-5.5 12t-12.5 5h-29q-7 0-12.5-5t-5.5-12zm-125 0q0-7 5.5-12t12.5-5h29q7 0 12 5t5 12v355q0 7-5 12t-12 5h-29q-7 0-12.5-5t-5.5-12zm-125 0q0-7 5.5-12t12.5-5h28q7 0 12.5 5t5.5 12v355q0 7-5.5 12t-12.5 5h-28q-7 0-12.5-5t-5.5-12zm456-321H609V72q0-4-2.5-7t-6.5-3H401q-4 0-7 3t-3 7v36H202q-11 0-19.5 8t-8.5 19v87h652v-87q0-11-8-19t-19-8z"/></svg>