<svg xmlns="http://www.w3.org/2000/svg" viewBox="-10 0 1010 1000"><path d="M907 850H93q-13 0-21.5 8.5T63 879t8.5 20.5T93 908h814q13 0 22-8.5t9-20.5-9-20.5-22-8.5zm-71-329q-9-6-16-13l-38-36q-10-9-24-9t-24 9l-38 36q-29 27-67 27-17 0-36-7.5T562 508l-38-36q-10-9-24-9t-24 9l-38 36q-29 27-67 27-17 0-36-7-20-9-31-20l-38-36q-9-9-23.5-9t-24.5 9l-37 36q-5 5-17 13v175h672zM164 713h672v115H164zm24-258 15-15q18-18 30-25 15-8 32-10.5t33 1.5q19 5 33 17l36 34q7 6 16 8t16-1.5 15-11.5l27-26q13-12 30-18t35-5q30 3 54 25l28 26q11 9 19 11 15 2 26-9 10-8 28-26 4-4 14-12 17-11 37-14t38 3q4 1 12 5 6 2 10 6 2 2 6 4l3 3 8 8 24 22q10 10 23 10v-95q0-21-16-36t-38-15H645v-51q0-9-7-15.5t-17-6.5-17.5 6.5T596 268v51h-72v-91q0-9-7-16t-17-7-17 7-7 16v91h-72v-51q0-9-7-15.5t-17-6.5-17.5 6.5T355 268v51H219q-17 0-31 9-11 7-17.5 18.5T164 370v95h3q9 0 21-10zm192-232q12 0 21-8.5t9-20.5l-30-62-15 25q-16 27-16 38t9 19.5 22 8.5zm120-40q13 0 21.5-8.5T530 155t-15-38l-15-25-15 25q-15 27-15 38t8.5 19.5T500 183zm121 40q12 0 21-8.5t9-20.5l-30-62-15 25q-16 27-16 38t9 19.5 22 8.5z"/></svg>