<svg xmlns="http://www.w3.org/2000/svg" viewBox="-10 0 1010 1000"><path d="M779 521q81 38 115 90 36 54 36 115 0 87-46.5 149T749 968.5 540 1000l-104-2q-98-2-148-2-153 0-217 4v-28q50-3 68-11 21-8 29.5-33.5T177 850V150q0-51-8-78-9-25-30-33-18-8-68-11V0q64 4 215 4 79 0 125-1l96-2q111 0 191 28.5T817 107t39 116q0 53-29.5 102T732 415q-63 39-158 57v2q128 11 205 47zM591 406q37-65 37-167 0-107-33-159-35-52-106-52-39 0-57 10.5t-24 35-6 76.5v319h60q92 0 129-63zM409 926q6 23 26.5 32.5T499 968q196 0 196-248 0-111-55.5-169T461 493h-60v357q0 50 8 76z"/></svg>