<svg xmlns="http://www.w3.org/2000/svg" viewBox="-10 0 1010 1000"><path d="M795 62H206q-10 0-18 8t-8 19v115q0 11 7.5 19t18.5 8h588q11 0 19-8t8-19V89q0-11-8-19t-18-8zM394 425q72-15 212-45V269H394zm190 2q-11 2-34 7-42 9-63 14-25 5-77 17-8 2-12 7t-3 13q1 14 17 16h5l175-39q9-2 13.5-8t2.5-14.5-8.5-11.5-15.5-1zM420 573q18-4 55-12l120-27q8-2 11.5-8t.5-13q-2-5-11-14l-3-3-3 2-4 1q-48 10-143 31l-32 7q-9 2-13 8.5t-2.5 14.5 8.5 11.5 16 1.5zm0 73q23-6 56-13 76-16 113-25 9-2 14-6t5.5-13-6.5-14.5-16-3.5l-175 39q-10 2-13.5 8.5t-2 14.5 8.5 11.5 16 1.5zm163-1-84 18-87 20q-9 1-13.5 7t-3.5 14q3 15 18 15h3l55-12q81-17 121-27 10-2 14-8.5t1.5-14.5-8.5-11-16-1zM419 791q56-12 111-24 26-5 64-14 15-5 14-21-1-13-17-15h-5l-175 39q-10 2-13.5 8.5T396 779t8 11 15 1zm167-1q-29 6-87 19l-87 19q-10 2-14 8.5t-2 15 8.5 11.5 16.5 1q28-6 42-10l126-27q9-2 14-6.5t5-14.5q1-8-6-13t-16-3zm0 73q-58 12-174 38-10 2-14 8.5t-2 14.5 8 11.5 16 1.5l68-15q34-8 102-22 9-3 13.5-7t4.5-13-6.5-14-15.5-3z"/></svg>