<svg xmlns="http://www.w3.org/2000/svg" viewBox="-10 0 1010 1000"><path d="m671 167 45 1q6 0 6-6v-13q0-2-1.5-4t-3.5-2h-45q-2-1-4 1t-2 4v13q0 2 1.5 4t3.5 2zm106-23q3 5 8 2l35-21q2-2 3-4.5t-1-3.5l-7-12q-1-2-3.5-2t-3.5 1l-36 21q-3 3-2 8zm-59-34q1 2 3 3.5t4 .5l12-5q2-1 3.5-3.5t.5-4.5l-14-35q-1-2-3-3t-4 0l-13 5q-5 2-3 7zM602 304v-63h-81q9-32 29-45 23-15 58-2 16 6 47 22 27 13 41 19 48 20 69 3 16-13 12-40-2-15-12-42-2-8-9.5-9t-12.5 3.5-3 11.5l2 5q8 20 10 30 3 20-7 23-6 2-17-1-6-1-18-6l-7-3q-16-6-47-22-27-13-41-19-47-19-79 5-28 20-41 67h-97v62q-64 21-115 67t-79 107q-29 64-29 135 0 88 44 165 44 73 117 116 76 45 164 45t164-45q73-43 117-116 44-77 44-165 0-71-29-135-28-61-78.5-106.5T602 304zm-80 560q-15 0-25.5-11t-10-26 11.5-25 26-9q51 1 92-31 30-24 52-63 11-20 17-37 4-13 16-19.5t25-4.5l4 2q14 4 21 17.5t2 27.5q-6 20-23 51-31 53-73 85-60 45-135 43z"/></svg>