<svg xmlns="http://www.w3.org/2000/svg" viewBox="-10 0 1010 1000"><path d="M391 710q37 12 57 22 29 15 48 37V306q0-21-16-33-2-2-6-4-21-15-48-27-21-8-52-17-92-27-222-39l-50-2v480l86 6q113 12 203 40zm113 47v12q16-19 39-32 19-11 46-20 61-22 132-34 61-11 137-16 26-2 40-2V184q-13 0-19 1h-4q-74 6-111 11-98 13-173 40-26 10-41 18-22 11-37 25-9 9-9 21zm409-495v417q-3 1-7 1-138 3-261 35-52 13-78 25-41 17-67 45-13-16-34-28-15-9-40-19-62-24-137-38-61-11-141-18l-61-3V262H63v455l21 1q135 5 251 30h1q59 13 87 23 47 17 78 45 23-24 70-42 64-22 143-36 62-10 147-17 25-2 77-4V262z"/></svg>