<svg xmlns="http://www.w3.org/2000/svg" viewBox="-10 0 1010 1000"><path d="M675 501q-8-1-24-4-47-7-69-12-4-1-9 1-39 26-49 44-1 1-2.5 2t-3.5 0l-26-10q-1-1-2-3t0-3q9-20 38-43 2-1 1.5-2t-2.5-2q-15-6-30-15-4-2-8 0-48 31-59 50-1 1-2.5 2t-3.5 0l-26-10q-1-1-2-3t0-3q13-28 61-59 4-3 1-6-9-7-19-23-4-4-7-2-59 33-72 57-4 4-7 3l-25-11q-2 0-3-1.5t0-3.5q18-36 90-76 4-2 2-7-21-52-22-127l-1-34q0-5-5-5H102q-4 0-4 5v313l-1 9-33 148q-1 2-1 9v121q0 5 4 5h302q5 0 5-5v-34q0-5 4-5h111q3 0 7 4l23 36q4 4 8 4h398q2 0 3.5-1.5t1.5-3.5l4-30q10-77-7.5-130T863 555q-34-24-86-37-35-9-102-17z"/></svg>