<svg xmlns="http://www.w3.org/2000/svg" viewBox="-10 0 1021 1000"><path d="M980 399q-8-31-43-36-30-6-47 21-14 21-33.5 28.5T812 418q-63-9-118-51-4-3-4.5-5t4.5-5l78-52q18-12 18-30t-17-31l-5-4q-6-4-9-7-17-12-36.5-11T688 237q-40 34-59 51-5 5-11 4-21-6-42 6l-38 22q-4 1-4 3t2 5q7 6 19 20 5 6 11 2 20-12 30-17 13-7 19 4 18 37 62 67 63 46 128 53 79 10 118-51 4-6 9-3 9 2 10 9 21 72 17 143-3 37-11 64-9 32-27 58-4 8-14 8-34 0-51 1-9 2-12-7-25-55-57-91-97-113-242-114-9 0-14 5-7 7-4.5 16t12.5 12q6 2 18 5t18 5q116 41 177 165 2 4 1 5t-6 1l-90 3q-6 0-9-5-5-15-12-26-70-112-194-116-17 0-18 10-1 6 2.5 9t11.5 5q49 12 85 41 34 29 58 75 3 5 2 6.5t-7 1.5q-68 0-153 5-10 1-15-1-8-2-13-9-2-4-6-1v1q-2 2-2 3t2 3l1 1q2 1 1 4-51 0-76-2-5 0-3.5-3t.5-5-3-4l-3-3q-3-3-5 0-4 4-1 6l3 3q2 3 3 5-46-4-70-8h-2q-2 0-2.5-1t0-4.5-7.5-7.5l-4-2q-2 0-4 4-1 1 1 4l1 1q3 1 3 4-76-13-159-43-17-8-20-25h5q4 2 5-2 1-6-6-6t-5-8q1-4 7-10 4-4 5-6 3-5 8-8 3-2 10-4 12-3 36-7 7-2 14 1 14 7 16-5 0-1 2-1l2-1 18-3q67-10 127-47 4-2 4-4t-3-4q-8-9-16-19-4-5-7-5t-9 3q-28 17-65 28-29 8-89 18l-31 5q-26 5-44.5 21T2 592.5 6.5 638 38 674q15 11 17 22 5 18 21 22 8 2 24 8 19 7 29-11 3-6 8-4 13 5 17 15 6 25 34 30l15 4q16 5 23.5 1t12.5-20q1-3 2.5-4.5t4.5-1.5q15 1 23 5 11 5 15 17t21 14l39 7q9 1 16.5-4t10.5-13q1-2 1-6 0-8 3.5-9.5t11.5-.5h9q21-6 32 15 7 13 18 13l16 1q18 2 27 2.5t15.5-5.5 8.5-15l1-11q0-5 4-5l107-3q23 0 68-2h3q5 0 8 1.5t4 5.5q9 14 21 14 28 2 42 2 8 1 14-4t8-13q1-5 3-6.5t7-1.5 16 1q16 2 23 1 10-1 15 8t19 11l36 3q9 0 15-9 4-5 4-17 0-7 5-11 14-11 25-30 7-12 17.5-35t15.5-53q3-19 5-56l1-18q1-30-5-65-4-27-15-64zm-411 31q5 6 11.5 6.5T592 432t5-12-5-13l-77-84q-5-5-13.5-5.5t-13 9T491 345zm-77 30q4 5 10.5 5.5t11.5-4 5.5-11T516 439q-1-2-5-6l-65-72q-5-6-13-7-11 2-15.5 10.5T421 381q23 27 71 79zm-81 34q5 6 13.5 6t13.5-8-1-16q-1-3-5-7-17-20-53-60l-5-5q-6-7-13-8t-12.5 3.5T343 411t6 14zm-114 0q6 6 16 18l16 18q8 8 18 4t10-15q0-7-6-13-17-20-53-60-5-7-11.5-7.5t-12 4-5.5 12 5 13.5l8 9q10 11 15 17zm56-22q1-1 3-2 8-5 8-7.5t-8-10.5l-4-6q-8-11-13-11.5t-15 6.5l-8 5 19 23q4 5 8 6t10-3zm87-51q-7-6-19-20l-5-6q-2-3-8-2-10 6-12.5 8t-1 5.5 10 12.5 12 11.5 8 .5 15.5-10zm31-51q4 5 11.5 12.5t10 8T503 386q3-2 3.5-3.5T504 378l-20-22q-3-3-6-2l-2 1q-7 4-10 7-1 1 2 5zM295 615q-1-4-5.5-5.5T283 606q-2 1-3.5 2.5t-.5 3.5q2 4 10 7l3 1q1 0 2.5-2t.5-3zm-126-44q0-4-1.5-4.5t-5-.5-5-1.5-3.5-.5-1.5 5 4.5 4 5 2q4 0 5.5-.5t1.5-3.5zm195 93q-3 4 2 8l3 2q5 5 8 1l2-3q0-2-6-6.5t-7-4-1 1.5zm-28-18q0 1 5.5 5.5t6.5 4.5q3-1 5-6-4-5-12-9-2-1-5 5zm-71-46q-1-4-9-6l-4-1q-2-1-3 1t-.5 5 7.5 4q3 1 5 1.5t3.5-1.5.5-3zm44 27q1 5 8 8l3 1q3 1 5-5-3-3-10-7l-2-1q-2-1-3.5 1t-.5 3zm-108-48q0-4-2-5t-5.5-1-5-1-2.5.5-1 3.5q1 5 7 6 4 0 6 1t3-.5 0-3.5zm32 10q-1-5-8-6-3 0-4-1-4-1-3.5 4t7.5 6l4 1q2 1 3.5-1t.5-3zm-127 32q-3-2-5-1t-2 4 2 4 5 1 4.5 1 3-.5 1.5-3.5q0-5-6-5zm169 42q1 6 9 10h1q2 1 6-5l-4-3q-5-5-7-6t-4 1-1 3zm-67-44q-1-4-7-6-4-1-5.5-1t-2.5 1.5 0 3.5q1 5 9 6h3q1 1 2.5-1t.5-3zm-91-28q-1-3-6-4-3 0-4-1-6-2-5.5 3.5t6.5 5.5q3 0 4 1 5 2 5-5zm-49 25q0 6 7 6h3q3 1 4.5 0t1.5-3.5-1.5-3.5-4.5-1-4-1h-2q-4-1-4 3zm112-9q-3-3-9-5l-4-1q-4-1-3.5 4t6.5 6q3 0 4.5 1t3-1.5 2.5-3.5zm-32-8q0-4-4-4.5t-5-1.5q-7-2-6.5 3.5t6.5 5.5q3 0 5 1t3-.5 1-3.5zm-18 34q1 4 7 6l4 1q3 1 5-4l1-2q-3-3-11-5h-1q-2-1-3.5.5T130 633zm123 8q-1-1-3 1t-1 4.5 7 6.5l4 2q5-4 4-6-2-6-11-8zM86 587q0-5-6-5h-4q-6 0-5.5 4.5T76 590q4 0 5.5 1t3-.5T86 587zm106 75q4 4 6 5 4 3 6-2l1-2q-1-3-6-6l-4-2q-3-1-4.5 1t-1.5 3.5 3 2.5zm-20-10q4 0 4-5-1-3-5.5-4.5T164 640q-4 0-3.5 4.5t7.5 6.5zm61-14q1 1 2.5-1t1-4.5-5.5-4.5q-3-2-5-2.5t-3.5 1-.5 2.5q1 4 7 7z"/></svg>