<svg xmlns="http://www.w3.org/2000/svg" viewBox="-10 0 1020 1000"><path d="M952 625H22q-9 0-15.5 2T0 632v57q0 3 6.5 5t15.5 2h52l32 37 31-37h38l31 37 31-37h417l32 37 31-37h51l31 37 32-37h32l31 37 32-37h26q9 0 15.5-2t6.5-5v-57q0-3-6.5-5t-15.5-2zM500 443h52L451 593h63l71-95h55l-68 95h62l33-48 48 1-32 47h291l11-12q11-16 14-29 4-20-8-34-15-17-55-25l-40-5q-50-7-101-18-72-16-136-37-79-26-141-61-74-40-121-90l-7-6q-9-6-15-8-10-3-14.5 4t-1.5 28l-30 25q-28 24-77 23-39 0-90-16-36-12-75-30l-31-16q-10-2-19 1-15 4-24 17-12 18-13 52v237h394z"/></svg>