<svg xmlns="http://www.w3.org/2000/svg" viewBox="-10 0 1010 1000"><path d="M782 616q12 5 27.5 4.5T833 613q25-19 34-51 16-54-10-138-18-54-52-117-6-10-18.5-20T763 273q-50-17-70-31-16-12-14.5-25t16.5-19q11-5 19-15t7-21q-3-39-23-61t-55-32q-26-7-60-7-20 0-38 3-12 1-20.5 11T516 98v789q-1 1 3 9.5t11 16.5q21 24 54 24 23 0 52-11 23-9 47-24 10-6 10-15t-11-15q-51-33-70-60-6-10-4-19t8-10q4 0 10 5 3 3 11 12l6 7q21 24 64 47 10 6 25 5.5t26-7.5q52-34 78-65.5t25-59.5q-1-20-16-38-11-14-28-25-13-8-15-8l-14-6-7-4q-7-3-6-3l-7-4q-10-4-19-8-28-11-51-15-29-4-46 3-8 3-15 11t-11 11q-6 4-11.5 2.5t-6-11T615 614q9-14 26-20 28-11 72-2 34 7 69 24zM616 289q4 1 8 7 2 4 6 16l3 7q12 38 63 82 10 8 14.5 16.5t1 13.5-12.5 2.5-18-9.5q-26-21-45-45-26-33-33-63-2-11 2.5-19.5T616 289zM484 857V98q0-12-8.5-22T455 65q-18-3-38-3-33 0-60 7-35 10-55 32t-23 61q-1 11 7 21t19 15q15 7 16.5 19.5T307 242q-19 14-69 31-12 4-24.5 14T195 308q-34 61-52 116-27 84-11 138 11 33 35 51 8 7 23.5 7.5T218 616q37-17 69-24 44-9 71 2 16 6 27 20 7 9 6 18.5t-6.5 11-10.5-2-11-11-15-11.5q-30-12-97 12-9 4-19 8l-7 4q2 2-13 7l-14 7q-2 0-15 8-17 11-28 24-15 18-16 38-3 57 105 127 11 7 26 7.5t25-5.5q43-25 66-48l7-8q8-9 11-12 5-5 9-4 7 0 8.5 9t-4.5 19q-20 30-72 61-11 6-11 15t10 16q57 34 97 34 34 0 53-24 7-9 11.5-17.5t3.5-9.5zM288 431q-3-5 1.5-13.5T304 401q51-44 63-82 5-14 8-20 4-9 9.5-10t10 7.5T397 316q-7 30-33 63-19 24-45 45-9 7-18.5 9.5T288 431z"/></svg>