<svg xmlns="http://www.w3.org/2000/svg" viewBox="-10 0 1021 1000"><path d="M48 321q17-79 37-173l57 1q76 2 113 5 25 2 42.5 16t23 39-4 49.5T285 298q-33 23-76 23-35 1-106 0zm-11 91h49q79-1 118 1 28 1 46 17t23 40q5 28-5.5 53T233 560q-39 20-71 21-38 2-115 1H0zm317 169q8-36 24-110l14-63h28q95 2 142 6 25 2 42 15.5t23 38.5-3.5 50-31.5 40q-31 22-82 24-37 1-112 1h-38zm48-260q21-98 37-171h10q13-1 20 0l40 1q66 0 100 3 25 2 42.5 15.5t23.5 39-4 50-33 40.5q-32 22-74 22-35 1-106 0zm-98 530q24-112 37-171l147 1q10 0 28 4 24 6 38 17 17 14 22 36 11 52-28 86-30 25-68.5 26.5T364 851zm421-376q13-55 31-142 3-16 6-21t8.5-6.5T792 304q77 0 116 1 13 0 28 3 26 6 40 18 18 14 22.5 39.5T995 413t-29 36q-32 22-64 25-41 2-125 1zm-51 272q18-86 28-128l2-12q2-12 3-17 3-9 7.5-13t14.5-4q6 0 19 1l9 1q77 0 116 2 35 3 56 24t20 51q-2 57-51 79-32 15-56 15-41 1-125 1z"/></svg>