<svg xmlns="http://www.w3.org/2000/svg" viewBox="-10 0 1010 1000"><path d="M551 76q27-32 68-53t79-23q4 43-11 86-13 40-41 73.5T580 213q-42 21-82 17-5-40 12-85 15-39 41-69zm285 800q-26 39-43 59-24 29-48 45-29 18-61 19-22 0-42-6-13-3-36-13t-37-14q-24-7-50.5-7t-51.5 7q-15 4-40 15-21 9-32 12-20 6-39 7-43 1-87-40-28-26-70-87-46-66-74-152-31-93-31-180 0-99 42-171 32-57 87.5-91T342 244q24 0 53 8 17 5 49 18 23 9 34 13 17 5 27.5 5t27.5-5q10-4 33-13 40-15 62-21 38-10 69-7 41 1 81 18 63 25 101 81v0q-31 18-57 50-51 61-50 140 0 64 31 115 23 37 60 64 20 14 41 23l1 1v1q-7 22-18 48-22 50-51 93z"/></svg>