<svg xmlns="http://www.w3.org/2000/svg" viewBox="-10 0 1015 1000"><path d="M500 851q-13 0-26.5 5.5t-24 15.5-16 23.5-5.5 27 5.5 27T449 974q21 21 50 21t51.5-21.5T573 923t-22.5-50.5T500 851zm0-424q-14 0-27.5 6T449 449t-15.5 23.5-5.5 27 5.5 27T449 551q19 19 51 21 28 0 50.5-21.5T573 500t-22-51-51-22zm0-422q-14 0-27.5 5T449 25q-21 23-21 51t21 51q21 20 50 20.5t52-20.5q10-10 16-23.5t6-27.5-6-27.5T551 25Q528 5 500 5zm3 211q-14-1-27.5 4T452 235q-21 18-22 48.5t18.5 52T498 359q14 0 27.5-5t23.5-14q22-19 24-50 0-14-5-27.5T553 239q-20-21-50-23zm-3 423q-13 0-26.5 5.5T449 660q-21 23-21 51t21 50 50 22 51.5-21.5T573 711q0-14-6-27.5T551 660q-21-21-51-21zm212-212q-29 0-51 22-10 10-16 23.5t-6 27.5 6 27.5 16 23.5q19 19 51 21 27 0 49.5-21.5T784 500t-22-51-50-22zm0-211q-30 0-51 21-10 10-16 23t-6 27q0 29 22 51 10 10 23.5 16t27.5 6q28 0 50-22 10-10 16-23.5t6-27.5q0-28-22.5-49.5T712 216zm0 423q-28 0-50.5 21.5T639 711t22 51q10 10 23.5 15.5T712 783q27 0 49.5-21.5T784 711q0-14-6-27.5T762 660q-21-21-50-21zm211-212q-14 0-27.5 6T872 449t-15.5 23.5-5.5 27 5.5 27T872 551q19 19 51 21 28 0 51-21 21-23 21-52t-21-50q-10-10-23.5-16t-27.5-6zm-635 0q-14 0-27.5 6T237 449t-15.5 23.5-5.5 27 5.5 27T237 551q21 19 51 21 13 0 26.5-5.5T339 551q21-23 21-51t-21-51q-10-10-23.5-16t-27.5-6zm0-211q-14 0-27.5 5.5T237 237t-15.5 23.5T216 287q0 28 21.5 50.5T288 360q14 0 27.5-6t23.5-16 15.5-23.5T360 287q0-27-21-50-11-10-24.5-15.5T288 216zm0 423q-13 0-26.5 5.5T237 660q-20 23-20 51.5t20 50.5q23 21 51 21 13 0 26.5-5.5T339 762q21-23 21-51 0-13-5.5-26.5t-15.5-24-23.5-16T288 639zM77 427q-14 0-27.5 6T26 449t-15.5 23.5T5 499q0 28 21 51 19 19 51 21 28 0 51-21 10-10 16-23.5t6-27.5-6-27.5-16-23.5q-23-21-51-21z"/></svg>