<svg xmlns="http://www.w3.org/2000/svg" viewBox="-10 0 1020 1000"><path d="M690 351v298h310V351zm242 230q-33 18-75 18-34 0-59-13-23-15-38-38-14-28-14-53 0-46 33-76.5t78-30.5q33 0 73 17l-1 32q-36-21-71-21t-58.5 22.5T776 494t23.5 55.5T859 572t73-23zm-586 68h309V351H346zm95-253h53q27 0 40 6.5t22 18.5q7 11 7 28 0 31-31 43 23 5 36 19 11 13 13 34 0 15-8 28-10 14-24 20-18 8-39 8h-69zm82 79q10-12 10-24 0-30-38-30h-25v62h19q23 0 34-8zm23 84q5-8 5-16-2-12-6-17-4-9-15-12-13-5-33-4h-27v65h29q22 0 32-3 11-6 15-13zM0 649h310V351H0zm94-253h54q25 0 40 6 13 5 22 20 6 9 8 27-1 29-32 44 22 3 36 18 13 13 13 34 0 17-7.5 28.5T203 593t-39 8H94zm83 79q10-10 10-24t-9.5-22-28.5-8h-25v62h20q22 0 33-8zm23 85q3-5 5-17-2-11-6-17-6-9-15-12.5t-33-3.5h-27v65h29q23 0 33-3 7-4 14-12z"/></svg>