<svg xmlns="http://www.w3.org/2000/svg" viewBox="-10 0 1020 1000"><path d="M205 480q-16 0-27.5 7.5T161 508h-1q2-14 2-25h-28v195h29v-59q7 1 21 1 34 0 52-20t18-56q1-31-12-47.5T205 480zm-20 117q-15 0-22-2v-42q0-19 9-34t25-15q27 0 27 43 0 26-10.5 38T185 597zm163-88zM31 482q0-12 9-19t25.5-7 33.5 5l2-26q-22-4-33-4-32 0-50 15T0 485q0 22 15 35 9 8 32 16 17 7 24 12 10 7 10 19 0 14-10.5 21.5T44 596q-20 0-38-7l-2 28q15 4 37 4 33 0 52-16t19-42q0-21-15-34-9-8-32-17-18-7-24-12-10-7-10-18zm719 160q45-31 95-78 54-48 74-78l1-1q6-8 8-12 3-6 3-12 0-10-11-21-6-6-21-16h-1q-23 53-71 122-41 58-77 96zm46-256q-4-16-15.5-31T756 335q15 44 29 105 13 55 17 91 6-35 3-77-2-38-9-68zm-2 195q31-40 51-81 20-43 20-74 0-29-37-50 0 38-10 102-11 69-24 103zm-489-68h-1q3-17 3-30h-28v135h29v-55q0-61 40-54l2-29q-34-3-45 33zm321 57v-65h35v-22h-36v-51l-29 7v44h-26v22h26v74q0 23 8 32.5t30 9.5q15 0 27-3v-24q-10 2-19 2t-12.5-5-3.5-21zm332-95q-55 57-147 129.5T663 707q68-23 162-72 88-46 161-97 7-4 10.5-8.5t3.5-10.5q0-10-16-25-12-11-26-19zM661 293q38 41 117 158l8 11q-19-52-45-93-38-60-80-76zM513 480q-17 0-29 8t-18 21v0q2-14 2-26h-28v135h29v-65q0-20 10-34.5t25-14.5q11 0 16 7t5 20v87h28v-95q1-20-8.5-31.5T513 480zm-138 3h29v135h-29zm15-57q-8 0-13.5 5.5T371 444t5.5 12.5T390 462t13.5-5.5T409 444t-5.5-12.5T390 426z"/></svg>