<svg xmlns="http://www.w3.org/2000/svg" viewBox="-11 0 1021 1000"><path d="M836 271q-68 0-115 38-38-39-117-39-59 0-104 27-17-14-36-20-22-8-51-8-38 0-62 5-39 8-64 30-8-15-23-23-19-9-54-9t-62.5 15.5-46.5 46T60 414q-26 57-42 108-19 62-18 100 1 46 33 75.5t83 31.5q61 1 102-25 37 26 89 26 61 0 105-30 36 30 93 30 73 0 128-47 18 23 48 35t68 12q66 0 112-39 38-31 69-95 12-25 26-65 16-46 19-73v-4q5-44 3-66-3-36-24-65-17-24-45-38-31-14-73-14zm116 147q-1 41-21.5 102.5T889 618q-25 43-58 63-36 23-86 23-38 0-65-15-30-17-42-50-24 30-58.5 47.5T506 704q-31 1-55-9.5T412 665q-17 19-47 30-27 9-59 9-27 0-49.5-9T219 669q-34 36-102 34-42-1-65.5-24T27 619q-1-34 18-93 15-49 41-104 22-49 38-75 30-49 85-49 37 0 54 17 8 8 10 17 2 7 3 23 22-35 62-49 29-10 75-10 29 0 51 9.5t33 26.5q20-17 47.5-26.5T604 296q69 0 100 35 7 7 13 18 20-24 48-37 32-15 71-15 65 0 95 39 24 32 21 82zm23-148q-10 0-17.5 7t-7.5 18v0q0 10 7 17t17 7v0q11 0 18.5-7t7.5-17.5-7-17.5-18-7zm-1 46q-8 0-14-6t-6-15 6-14.5 14-5.5 14.5 6 6.5 14.5-6 14.5-15 6zm-139-11q-71 0-113 49l-7 9-5-10q-3-8-9-15l-2-2q-28-33-95-33-30 0-56.5 9T501 337l-6 6-5-7q-9-15-30-24t-47-9q-45 0-73 10-37 13-58 46l-13 20-1-24q0-14-2-21t-9-14q-13-15-48-15-51 0-79 46-16 27-38 74-25 55-40 103-19 58-18 92t23 54 60 21q64 2 97-31l5-5 5 5q29 32 82 32 32 0 58-9.5t42-26.5l6-6 5 6q30 37 88 37 37 0 70.5-16.5T632 635l8-10 4 12q13 34 46 49 24 11 55 11 48 0 82-22 32-20 56-61 21-35 41-95 8-23 13-48 7-30 8-53 2-55-25-84t-85-29zM150 579q36-7 53 3 14 9 12 25-3 36-34 52-25 13-63 12-25-1-41-12-17-14-18-39 0-29 17-83 15-47 38-99 22-48 38-74 11-18 24-26t32-8 26 7.5 7 21.5q0 21-24 75-13 32-44 96-18 37-23 49zm173-49q0 1-1 3-10 28-14 47 16-4 24-5 13-2 29-2 20 1 31 9.5t11 23.5q0 34-33 52-27 14-62 14t-58-18q-24-20-24-54 0-38 19-97 16-51 39-98 17-34 35.5-50.5T362 332q19-5 53-5 22 0 38 9 19 11 19 28 0 24-18 37-16 11-41 13-12 1-43 1l-6 11q-8 14-15 30 41-6 58.5 3.5T418 492q-8 30-35 38-21 7-60 0zm329 5q-12 59-50 97-41 40-97 40-40 0-62.5-21.5T420 590q0-27 11-69 10-35 23-65 18-42 34-66 21-30 47-45 29-16 70.5-16t64.5 15q25 17 21 51-6 55-54 59-16 0-25-5-16-8-8-30 4-11 2-16.5t-14-5.5q-19 0-31.5 18.5t-32 70.5-23.5 78q-5 30 19 30 15 0 28.5-14.5T571 541l-9-1q-10-3-15-9-6-9-2-23 7-22 22-31 12-7 36-8 39-1 49 23 6 15 0 43zm263-75q-7 34-21 71.5T863 598q-24 44-58 61-24 13-59.5 12.5T690 657q-26-19-26-59-1-28 11-72 8-33 22-69 16-43 29-65 19-31 44-46 28-17 69-17 46 0 67 26 16 19 16 54-1 20-7 51zm63-163zq3 0 5-2t2-5q0-6-8-6h-13v25h7v-11q3 0 4 1 3 3 3 6l3 4h4l-2-6-2-4q-1-1-3-2zm-3-3h-4v-7h3q6 0 6 3.5t-5 3.5zM829 399q-8 0-13.5 2.5T805 411q-12 16-36 83t-23 84q0 7 4 12t12 5 15-6q5-4 10-13 11-20 32-79 22-62 23-81 2-17-13-17z"/></svg>