<svg xmlns="http://www.w3.org/2000/svg" viewBox="-10 0 1020 1000"><path d="M139 696V298h135q8 61 26 183h1q7-61 23-183h136v398h-91V433h-1l-35 263h-65l-38-260v260zm356-398h104q40 0 67 5.5t41 22.5q18 17 20 42 3 27 3 54v165q0 27-3 53-6 40-46 51-16 5-39 5-26 1-79 1h-68zm104 330q3-1 8-1l8-1q11-3 13-14l1-9q2-13 2-19V419l-1-33q0-12-9-17-7-3-23-3zm266-330v128l1 1q1-2 4-5 19-19 47-22 25-3 46 4 31 12 35 41 2 10 2 29v146q0 12-4 36-9 33-43 42-51 14-85-23-2-2-3-4l-1 5q-3 11-4 16t-5 5h-90V298zm0 256zv56l1 8q1 11 2 16 2 9 10 9 3 1 11.5-1t8.5-11q2-18 2-27V501l-1-27q-1-8-4-11.5t-11-5.5v0q-8 0-12 2.5t-5 10.5q-2 14-2 21zM0 298h103v398H0z"/></svg>