<svg xmlns="http://www.w3.org/2000/svg" viewBox="-11 0 1021 1000"><path d="M710 214h202q32 0 56 19.5t29.5 49.5-6 56.5T952 380q-26 15-62 15H758q-9 0-13 1-17 4-20 24l-1 16v264q0 31-21 55t-52 28q-34 5-61.5-15T556 715q-2-10-2-17v-85q1-114 0-171 0-9-3-27l-1-2q-1-4-5-11t-11.5-9-16 1.5T497 409l-6 6q-70 70-105 104l-51 51q-67 68-101 101l-90 90q-21 21-46 25-22 3-41-7-41-20-54-63-12-39 16-73 9-11 29-31l96-96q104-104 156.5-156T407 257q26-26 52-35 24-8 54-8zm131 89q0 27 19 46.5t45.5 19.5 46.5-19 20-46.5-19.5-47T906 237t-46 19.5-19 46.5zm149 298v97q0 30-17.5 52.5T926 781q-23 6-45.5-1t-38-24.5T823 714q-2-12-2-18V504q0-27 15-48 21-32 58-36 33-4 59 14t34 50q1 4 2 13l1 6zm-470-8q1 28-19 49t-49.5 20.5-50-20.5-20.5-50 21-49.5 49.5-19T500 544t20 49z"/></svg>