<svg xmlns="http://www.w3.org/2000/svg" viewBox="-10 0 1020 1000"><path d="M0 252v495h505l495-495zm609 305h-31v94H432l-15-45q-24 8-51 8t-53-8l-15 45h-89l10-26q-2 2-4 3-34 28-84 28l-5 1q-60 0-112-30l31-61q23 14 42 19 16 5 39.5 4t31.5-9q6-8 6-17t-14-17q-11-6-35-13-45-14-67-31-17-13-25.5-29.5T14 434q2-34 24-58 16-17 41.5-26.5T136 340v0q27 0 57.5 7t54.5 20l-34 59q-23-11-42-16-11-2-30-3-21-1-33 5t-12 15q0 16 54 35 43 14 62 26 32 21 37 53l74-196h85l86 234V345h98q71 0 105 26t34 81q0 49-32.5 77T609 557zm-10-147h-21v79h21q52 0 52-39.5T599 410zm-233 32-32 98q15 6 32.5 6t30.5-6z"/></svg>