<svg xmlns="http://www.w3.org/2000/svg" viewBox="-10 0 1020 1000"><path d="M429 517q-2-1-9-5l-21-10q-7-4-9-11t3-12q9-9 26-5.5t24 17.5l2 6h1l11-39-11-7q-6-3-13-4-10-3-22-3-23 0-41 11-22 14-23 41-1 18 10 32 8 11 20 17l12 6q12 5 17 8 8 5 12 10 5 8-.5 17t-21.5 9-27-8q-7-6-12-15l-3-8h-1l-9 42 2 2q2 2 6 4 7 4 18 7 15 4 28 4 25-1 39-9 26-13 28-47 0-12-6-24-9-16-30-26zm315 85q-4-12-16-50l-35-103h-57v1q5 1 6.5 6.5T642 467l-47 151h43v-1l-3-3q-4-5-3-10.5l3-16.5 3-9h46l2 8q3 8 4 11 4 11 7 16l3 4h56q-6-1-12-15zm-69-51h-31l1-1 15-54 16 55zm290-130q11-7 15.5-18.5T983 378l-8 6q-12 7-30 16-27 12-63 26l17 1q20 1 36 0 21-1 30-6zM599 578q-3 5-9 9-11 7-28 4t-28-17q-15-18-14-52 1-24 15-38 10-10 23-12 10-1 20 4 12 6 16 20h1l14-36-1-1q-1-2-3-3l-5-4q-7-4-16-6-13-3-28-2-19 1-37 9-21 10-32 29-14 22-14 53t14 52q12 18 31 28 15 8 31 8 21 0 32.5-10t18.5-35zm-287 10q-11 2-26 1-11 0-16-1v-46h36q6 0 8 2l1 3h1l6-34h-52v1-37l37 1q14 0 18 11v2l6-42H210v1q6 0 9 15 3 11 3 28v104q0 7 1 13.5t2 7.5h103l11-44-1-1v1q-7 10-26 14zm687-15q0 2-5 6-7 6-20 9-11 2-26 1-11 0-16-1v-46h36q5 0 8 2l1 3h1l5-34h-51v1-37l37 1q13 0 17 11v2h1l6-42H872v1q6 0 9 15 2 11 2 28v104q0 7 1 13.5t2 7.5h104l10-44zM748 450q6 1 9 16 2 11 2 27v113q1 8 3 11h55l-1-1q-9-5-9-21v-53h35q5 0 8 2l1 3h1l5-34h-49l-1 1v-37l36 1q13 0 17 11v2h1l6-42H748zm-555-26h650l6-1q7-3 14-9 10-9 17-23l-2-1q0 1-2 2H143v1l3 3q3 6 4 15 3 13 3 33l1 89-1-2q-33-55-54-88l-11-16q-13-18-19-25-9-10-21-10H0v2q3 0 6 9 6 15 6 46v111q0 23-3 37-2 11-6 17l-3 3h44q8 0 8-7v-50q0-29-1-71v-12q0 1 1 1v0l2 3q16 22 46 68l35 55q4 6 7 9 5 4 12 4h42l-1-9q-2-13-2-34z"/></svg>