<svg xmlns="http://www.w3.org/2000/svg" viewBox="-10 0 1020 1000"><path d="M780 737q-22 3-39.5 17T715 789q-10 22-5 48.5t22 43.5q19 19 51 26 22 4 54-13 23-14 34-39.5t5-50.5q-6-32-35-52t-61-15zm-451 86q0 35-24.5 59.5T245 907t-59-24.5-24-59.5 24-59 59-24 59.5 24.5T329 823zM171 156q-2-6-5-20l-5-18q-6-12-19-19t-27-7H0q70 226 122 400l21 67q31 103 48 154h624q18 0 34-8.5t26-22.5q19-28 21-69-95-1-285 0H401q-59 0-89-1l-60-197q-32-105-47-158h616q-4 24-15 72l-10 50q-4 18-11 25-11 11-35 11-133 1-401 1l14 43q12 36 18 53h463q24 0 45-11t34-30q8-12 13-29 3-9 7-30l57-256z"/></svg>