<svg xmlns="http://www.w3.org/2000/svg" viewBox="-10 0 1014 1000"><path d="M831 507q-1 9-3 23-7 48-31 89-38 64-102 97-67 37-151 28-42-5-76-22-5-2-7.5-1t-4.5 5l-79 136 13 6q28 12 43 17 69 27 143 24 19-1 56-6l28-3q3 0 4.5-2t2.5-6q0-7 2-21 17-70 83-97 28-13 63-11 32 3 60 18 42-42 71-97 24-47 37-99 11-44 10-78zM419 695q-6-7-19-19-20-19-29-30-43-55-51-127-5-60 10-106 22-67 70-111l3-2q11-10 16-15-8-14-13-21l-71-113q-2-3-3.5-4t-4.5 1q-14 11-40 33-40 36-75 93-30 52-42 99l3 2q4 2 5 3l6 5q23 19 32 30 30 35 28 91-3 71-64 112-3 2-4 4t0 6l7 17q7 15 10 22 23 52 65 101 32 38 83 72l1-1 80-135q1-1-.5-3.5T419 695zm279-431q116 63 133 202h162q-7-142-107-257-76 51-152 12-81-43-73-143-153-32-295 45 41 64 88 139 127-60 244 2zM106 399q-27 0-50 13.5t-36 36T7 498t13.5 49.5 36 35.5 48.5 13 49-13 36.5-36 13.5-49.5-13-49-35.5-36T106 399zm695-202q40 0 68-28.5t30-68.5q0-26-13.5-49.5t-36-37-49-13.5-50 13T714 49t-13 49q0 43 29 71.5t71 27.5zm4 607q-26 0-49 13.5t-36.5 36T706 902t13.5 48.5 36.5 36 48 13.5 47.5-12.5 37-35T903 903t-13-49.5-36-36-49-13.5z"/></svg>