<svg xmlns="http://www.w3.org/2000/svg" viewBox="-10 0 1020 1000"><path d="M3 574v-30q27 8 45 8 27 0 27-14 0-5-3.5-8.5T53 519l-3-1q-28-12-38-20-12-12-12-29 0-22 17-34t44-12q15 0 43 6v28q-22-8-39-8-25 0-25 14 0 5 5 8 3 3 23 12 27 12 37 21.5t10 26.5q0 24-21 38-16 10-44 10-20 0-47-5zm134-148h42v150h-42zm81 150V426h107v27h-67v34h58v25h-58v35h69v29zm143 0V424h55l38 97 39-97h53v152h-40V468l-45 110h-26l-44-110v108zm224 0V424h109v27h-68v35h59v25h-59v36h70v29zm139 0V424h49l53 102V424h30v152h-48l-54-103v103zm162-2v-31q26 9 45 9 28 0 28-15 0-3-4-9-3-3-18-10l-3-1q-30-12-39-21-12-11-12-29 0-23 17-34.5t45-11.5q19 0 39 5h4v29q-22-8-39-8-26 0-26 14 0 4 5 9l24 11q29 13 37 22 11 11 11 27v1q0 25-21 37-19 11-46 11-20 0-47-5z"/></svg>