<svg xmlns="http://www.w3.org/2000/svg" viewBox="-10 0 1021 1000"><path d="M658 456q-1 38-3 99v10l-6 88q-1 25-5 68l-7 74q-4 36-7 55-5 43-28 70-14 17-40 27-39 15-80 15l-47 1q-45 1-68 0-41 0-80-12-43-14-61-52-16-35-24-76-8-52-7-94 0-3 3-6 30-35 93-103l44-49 8-9q13-15 18-24 20-32 3-69-5-10-20-27l-4-4q-70-80-105-121l-42-48q-3-5-3-9v-13q-1-18 0-27 2-35 5-53 3-30 15-60 15-37 53-52 21-8 45-10l40-4q19-2 57-4 30-1 90 5l31 2q40 3 65 21 17 11 32 41 17 37 20 75 6 50 8 79l4 77q3 63 3 119zm81 46q2-95 22-163l1-3q3-13 6-18 7-16 19.5-22.5T816 293t28 16l23 22q30 28 45 43 45 45 71 82 9 13 15 27 3 9 2 19-1 6-5 18l-1 3q-7 20-27 41l-26 28q-34 38-52 56-34 36-67 59l-2 1q-10 8-19 7.5t-20-9.5q-15-13-22-38-15-66-17-110-1-13-2-37zM0 502q2-95 22-163l1-3q3-13 6-18 7-16 19.5-22.5T78 293t28 16l67 65q45 45 71 82 9 13 15 27 3 9 2 20-1 8-6 20-8 22-27 41l-26 28q-34 38-52 56-34 36-67 59l-2 1q-10 8-19 7.5T42 706q-16-13-21-38Q6 606 3 558q-1-13-2-37z"/></svg>