<svg xmlns="http://www.w3.org/2000/svg" viewBox="-10 0 1020 1000"><path d="M436 494q-10-7-24-11-11-5-11-8.5t4-3.5 8 4q9 6 15.5 6t10.5-5 4-10q0-10-10.5-17.5t-26-7.5-27.5 9q-13 11-13 28 0 23 25 32 14 4 16.5 5.5t2.5 6-5 4.5q-2 0-9-5l-3-2q-6-6-13-6-8 2-12 5.5t-4 11.5q0 10 9 18 11 10 31 10t30-9q13-10 13-29 0-15-11-26zm-105 5 19-27q3-5 3-11t-5.5-11.5-14-5.5-14.5 8l-20 30v-18l-1-8q0-2-4-6-6-6-14-6t-13 6.5-5 13.5v71q0 8 5 14.5t14 6.5 15-8q3-5 3-13v-19l27 35q5 5 12 5t13-5 6-14q0-6-3-10zm-127-21q9 0 16 7l4 4q4 4 5.5 5t7.5 1 10-3q8-4 8-15.5T242 455q-17-14-37-14-24 2-40 16-19 18-19 43 0 17 9 31t24 22q13 5 26 5 23 0 38-14 12-11 12-21 0-7-5.5-12.5T238 505t-12 4q-1 2-5 5l-3 3q-7 5-15 5t-14-6.5-6-15.5 6-15.5 15-6.5zm-83-34q-8 0-13.5 5.5T102 466v69q0 10 5.5 15.5t14 5.5 13-6.5T139 535v-69q0-11-4.5-16.5T121 444zm-52 55 19-27q3-5 3-11t-5.5-11.5-14-5.5-14.5 8l-20 30v-18l-1-8q0-2-4-6-6-6-14-6t-13 6.5T0 464v71q0 8 5 14.5t14 6.5 15-8q3-5 3-13v-19l27 35q5 5 12 5t13-5 6-14q0-6-3-10zm927 27-8-13q12-14 12-29 0-8-4-17t-14-15.5-21-6.5h-24q-22 0-22 21v68q0 10 4 16t13 6 14-5 5-13v-15l16 25q5 8 15 8 6 0 12-5t6-12.5-4-12.5zm-108-47q7 0 15-4 5-5 5-13t-6-14q-4-3-10-3h-44q-4 1-10 5-2 3-4 9v71q0 11 1 14 4 7 10 10 2 1 14 1h28q11 0 16-4.5t5-12-6-13.5q-4-4-15-4h-17v-8h13q16 0 16-14 0-6-4-9.5t-10-3.5h-15v-7zm-71-33q-2-1-17-1h-37q-17 0-20.5 2t-6.5 6q-2 2-2 9.5t6 12 12 4.5h10v55q0 9 3 15 6 7 15.5 7t15.5-8q3-5 3-14v-55h8q8 0 14-5t6-13q0-5-3-9.5t-7-5.5zm-274 15q0-5-3-9.5t-6-5.5-18-1h-37q-17 0-20.5 2t-6 5.5-2.5 9.5q0 8 6 12.5t12 4.5h10v55q0 9 3 15 6 7 15.5 7t15.5-8q3-5 3-14v-55h8q8 0 14-5t6-13zm176 52q12-14 12-29 0-4-3-13l-1-3q-4-8-14-17-10-6-22-6h-23q-22 0-22 21v68q0 10 4 16t13 6 14-6 5-12v-15l15 25q6 8 14.5 8t14-5 5.5-12.5-4-12.5zm-118-58q-5-11-17.5-11T567 455l-35 73-1 2q-1 6-1 8 0 5 3 10 5 8 14.5 8t13.5-6q3-3 6-9h34q3 9 7 12t12 3 14-6q4-8 4-11.5t-2-9.5z"/></svg>