<svg xmlns="http://www.w3.org/2000/svg" viewBox="-10 0 1020 1000"><path d="M588 569v-53h85v-57h-85v-38h85v-60H525v268h148v-60zm315-110h-76l-37 41-37-41h-80l76 85-76 85h78l36-42 37 42h80l-76-85zm65 112q-13 0-22.5 9t-9.5 22 9.5 22.5T968 634t22.5-9 9.5-23-9.5-22.5T968 571zm0 58q-11 0-18.5-7.5t-7.5-19 7.5-19T968 576t18.5 7.5 7.5 19-7.5 19T968 629zm7-27zq6-2 6-8t-2.5-8.5-9.5-2.5h-14v38h6v-17h6q5 0 6 4l1 5q1 6 2 8h6q-2-2-2.5-10.5T975 602zm-7-3h-7v-11h7q7 0 7 5.5t-7 5.5zM462 471zq-19-22-52-22-30 0-52 18t-31 47q-9-31-32.5-48T236 449q-29 0-51 12t-34 33v-35H71v-38h87v-59H0v267h71V516h71q-3 13-3 27 0 42 27.5 68.5T236 638q33 0 56.5-15.5T327 577h-60q-7 9-13 12t-18 3q-14 0-25-10.5T200 556h124q5 34 29 58.5t57 24.5 52-27h1v17h62V361h-63zm-260 46q3-13 12-20.5t22-7.5 22 7.5 12 20.5zm222 71q-17 0-27-13t-10-31.5 10-32.5 27.5-14 27 13.5 9.5 33-9.5 32T424 588z"/></svg>