<svg xmlns="http://www.w3.org/2000/svg" viewBox="-10 0 1020 1000"><path d="M906 493q-15 0-27 4l-51-96q16-19 16-45 0-29-20.5-49.5T774 286q-17 0-31.5 7.5T718 314l-249-78v-11q0-29-20.5-49.5T400 155t-49 20.5-21 49.5q0 6 2 16l-158 67q-12-21-33.5-33T94 263q-39 0-66.5 27.5T0 356q0 25 12.5 46.5T47 437t47.5 13 44.5-12l155 191q-15 28-15 64 0 41 20.5 76t55 55 75.5 20q54 0 96-35t52-88l246-90q12 23 34 36.5t48 13.5q39 0 66.5-27.5T1000 587t-27.5-66.5T906 493zM186 372v-6l1-7 161-87q21 23 52 23 27 0 48-19l41 14q-47 3-87 28.5T339 385t-23 90q0 22 7 50zm156 199v-2l1 1zm208 31q-22-28-53-44t-67-16q-22 0-43 6-21-34-21-72t18.5-69.5 49.5-50 68-18.5 68 18.5 49.5 50T638 475q0 43-24.5 78T550 602zm268-46-226 81q43-24 69-67.5t26-94.5q0-42-17-78.5T622 334l82 27q2 27 22 46t48 19q11 0 16-2l54 93q-19 17-26 39z"/></svg>