<svg xmlns="http://www.w3.org/2000/svg" viewBox="-10 0 1010 1000"><path d="M486 525q-43-36-65-61-33-36-48-75-13-35 2-68 11-23 43-52 22-20 69-58l29-23q51-41 72-81 28-49 18-107 21 25 23 56 1 26-11 59-14 36-41 69-23 28-58 57l-8 6q-27 22-39 35-21 20-34 40-17 27-17 57-1 26 13 58 6 13 23 37 12 16 17 24 8 14 12 27zM246 852q-6 4-19 9-17 7-24 13-10 7-9.5 12t11.5 10q24 11 55 16 18 3 56 6 195 16 388-9 24-3 69-15l13-3q14-5 21-11 9-8 9-22 12 10 11.5 18T814 892q-32 20-83 31-137 30-283 29-135 0-283-26l-6-1q-13-3-19-5-9-5-11.5-14.5T133 888q5-5 17-11l5-3q24-14 44-19 24-7 47-3zm299-285q21-26 21-49t-20-47q-26-32-36-57-14-37-3-71t45-63q19-16 45-31 18-10 49-24 5-3 17-2l11 1-15 11-39 30q-20 17-34 32-45 48-10 103 9 12 20 28 22 32 19.5 58.5T586 540l-6 6q-9 9-15 13-9 6-20 8zm111 253q-129 53-273 24-15-3-38-15h-1q-12-5-17-9-9-7-8-16.5t7-15.5q4-3 14-7l10-5q3-2 6-2t3 4q-1 13 7 17 5 3 16 3h6q89 14 171 1 27-4 36-4 13 0 25 5 8 3 32 18zm36-228q-17 13-42 20-16 5-45 9-192 25-349 2-25-4-39-13-8-5-8-11t8-10q63-37 150-42-10 6-31 11-25 7-36 15l-6 4q-6 3-8.5 5.5t-2 7.5 5.5 7q3 2 10 3l5 1q29 5 65 7 21 0 64-1h12q109-2 210-16h5q21-2 32 1zm-356 73q-6 17-1.5 23.5T360 697q127 17 249-7 18-3 34 3 9 4 29 18l1 1q-22 9-64 15-72 13-132 15-70 1-132-12-29-6-42.5-15t-14-16.5T301 680q10-8 16-11 10-5 19-4zm-36 319q11 0 32 1 120 2 180 0 99-3 177-16 94-17 175-50-1 10-8 17-4 4-14 11l-2 1q-31 17-71 27-32 8-75 13-190 24-360 1-13-1-34-5zm442-433q22-19 56.5-15.5T855 562q18 20 16.5 50T849 663q-51 49-107 60l-19 6 13-10q17-13 27-18 22-13 39-33 20-25 26-41 8-24-4.5-46.5t-33.5-29-48-.5zM336 665v-1z"/></svg>