<svg xmlns="http://www.w3.org/2000/svg" viewBox="-11 0 1021 1000"><path d="M745 564v-34q1-39 0-53v-3q-1-21-5-33-8-22-28-35-27-17-74-19h-17q-20 1-37 5-24 7-39 20-19 17-22 43h53l1-5q3-7 8-12 7-8 17-12 13-5 32-5 35 1 49 17 11 13 11 40h-58q-39 0-68 8-51 14-59 47 3-12 3-26 0-37-17-65-16-26-43.5-40T392 388q-22 0-41 6-15 4-28 12-9 6-16 13l-5 6V299h-50v201q-1-41-22-70-32-42-101-42-56 0-89 26-25 20-35 54-6 21-5 43v12q2 14 6 28 7 19 19 33 15 18 37 28 27 12 64 12 32 0 56-7 21-7 35-18 12-9 20-21 5-9 7-18l2-7h-53l-2 6q-4 7-10 13-9 9-20 13-15 6-35 6-25 0-42-12-14-8-22-24-7-11-9-24l-2-11h201l1-5v68q-1 21-2 34h49l2-30 5 6q6 7 15 12 12 9 27 13 19 6 42 6 45 0 77-23.5t41-65.5v2q-5 31 10 53 12 18 38 27 22 8 48 7 33 0 55-9.5t38-29.5l2 31h46zM53 485l2-10q2-12 9-22 8-14 22-22 17-10 42-10t42 10q13 8 21 22 6 10 8 22l1 10zm328 105q-27 0-46-13-15-10-23-29-6-13-8-29l-1-13 1-13q2-15 8-28 8-18 23-29 18-13 46-14t46 13q15 10 23 29 6 14 8 30l1 14-1 13q-2 15-8 28-9 17-23 28-19 13-46 13zm232 2q-7-1-13-1-15-3-25-11-14-10-15-28-1-15 11-25 9-7 27-12 12-3 27-4h70v13q-1 15-7 28-8 18-24 28-20 12-51 12zm334-196-86 171-85-171h-59l117 220-45 84h56l155-304z"/></svg>