<svg xmlns="http://www.w3.org/2000/svg" viewBox="-10 0 1020 1000"><path d="M373 366v-59q6-1 18-1 46-1 91 13 38 12 75 34 29 18 57 42 19 17 35 36l13 15-20 25q-26 30-53 55-39 36-77 56-47 25-90 25-25 0-49-8V418q29 4 47 13.5t32 29.5q10 12 30 47l6 10 85-72-11-13q-15-15-33-28-25-18-53-28-34-13-70-13-11 0-33 2zm0-197v89l18-1q64-2 126 17 53 16 104 46 41 24 78 56 27 23 50 48l17 20-19 22q-25 26-52 51-39 35-77 61-49 33-95 51-54 22-104 22-16 0-46-4v55q24 2 38 2 78 0 151-25 65-23 131-67 52-35 118-92 9 7 53 32 52 28 61 37-53 44-149 84-89 37-189 59.5T414 755q-27 0-41-2v78h627V169zm0 430v47q-43-8-79-30-30-18-55-47-20-23-36-51-11-20-19-40l-6-17 13-13q18-16 39-30 30-19 61-32 40-16 82-20v52q-22-3-45 5-18 6-36 18-13 9-24 20l-9 9 6 16q8 20 19 38 15 25 35 43 24 22 54 32zM102 454q5-7 11-14 14-17 33-34 25-23 54-42 36-23 76-37 47-16 97-20v-49q-56 4-116 25-50 18-102 47-41 24-81 53-29 21-54 43L0 444l5 12q6 16 15 33 11 23 26 46 17 28 37 54 24 30 51 55 31 28 65 50 38 24 79 38 46 16 95 21v-51q-57-7-106-36-41-24-77-63-28-30-51-69-16-28-28-57z"/></svg>