<svg xmlns="http://www.w3.org/2000/svg" viewBox="-10 0 1018 1000"><path d="M7 444q12 91 71 170 52 70 135 122 76 49 160 72 82 22 147 14 83-10 166-57.5T832 643q65-76 95-164 33-96 17-190 44 64 52 162 7 95-23 194-30 103-90 177-67 83-166 129-97 46-205 49-112 3-214-40-96-40-168-121-70-79-102-181Q-6 553 7 444zm139-291q67-74 161-114Q396 0 495.5-.5T684 36q92 39 157 112 120 137 59 310-20 55-56 107-32 46-81 96 46-98 36-196-9-88-62-166-51-72-130-121.5T440 112q-80-14-150-5-76 9-144 46zm148 576q-99-49-154-107-67-71-84-168-13-76 16-146 28-68 87-110 61-45 138-49 35-2 106 0l35 1q-113 16-196 121l-3 4q-24 31-34 48-18 28-26 54-26 81 2 170 24 79 86 152zm-35-40q-4-6-9-13-11-17-20-36-14-27-24-55-12-35-17-70-6-41-3-80 4-44 21-86 19-46 53-88 38-45 95-85l-65-11-182 165 85 315z"/></svg>