<svg xmlns="http://www.w3.org/2000/svg" viewBox="-10 0 1020 1000"><path d="M282 389q0-25-21.5-25.5T239 388v224q0 24 21.5 24t21.5-25zm458-26q-22 2-22 26v94q0 85 1 128 0 14 7 20.5t19 4.5q16-4 16-25V389q0-26-21-26zM162 470q0-24-21-24-10-1-15.5 5t-5.5 18q-1 50 0 101 0 11 5.5 17t14.5 6q22 0 22-24zm698-24q-10-1-16 5.5t-6 17.5v101q0 11 5.5 17t15.5 6 15.5-6 5.5-17q2-51 0-101 0-23-20-23zm-481 0q-20 2-20 22v103q0 21 20 22 10 1 16-5t6-16q2-53 0-105 0-10-6-16t-16-5zm240 0q-20 0-20 23v99q0 25 21 25 10 0 15.5-6t5.5-18V469q0-11-6-17.5t-16-5.5zm-98 81q-1-10-7-16t-14-6-14.5 6-6.5 16v45q1 10 6.5 16t15.5 5q18-2 20-20zM20 505q-9 1-14.5 6T0 526v46q0 19 20 21 9 1 15.5-4.5T42 573q1-24 0-49-1-9-7-14t-15-5zm980 44v-23q0-18-19-21-9-1-15 4t-7 14q-3 27 0 53 1 9 7 13.5t15 3.5q17-1 19-20z"/></svg>