<svg xmlns="http://www.w3.org/2000/svg" viewBox="-10 0 1020 1000"><path d="M341 427q-34 0-58 23t-24 58 24 58.5 58 23.5 58-23.5 24-58.5-24-58-58-23zm0 131q-19 0-32.5-14.5T295 508t13.5-35 32.5-14 32.5 14 13.5 35-14 35.5-32 14.5zM128 452v35h83q-3 27-19 43-25 25-63 25t-64.5-27T38 463t26.5-65 63-27 63.5 25l24-24q-37-35-87-35-34 0-63.5 17t-47 46T0 463t17.5 63 47 46.5T128 590q55 0 89-36 16-15 24-39 6-19 6-41 0-10-2-22zm669-107h35v240h-35zm134 213q-28 0-40-25l109-45-4-9q-6-19-21-33-20-19-48-19-32 0-54.5 23T850 508t23 58.5 58 23.5q24 0 45-13 14-9 23-23l-28-19q-16 23-40 23zm-3-100q10 0 18.5 5t11.5 13l-73 30q-1-21 14-36 14-12 29-12zm-190-13h-1q-7-7-18.5-12.5T694 427q-31 0-54.5 24T616 508.5t23.5 57.5 54.5 24q14 0 25.5-5.5T737 571h1v12q0 23-11.5 35.5T695 631q-15 0-27-10-10-7-15-19l-31 13q8 19 25 32 21 16 48 16 33 0 54-20 23-23 23-65V432h-34zm-41 113q-19 0-32-14t-13-35.5 13-35.5 31.5-14 31 14 12.5 35.5-12.5 35.5-30.5 14zM519 427q-34 0-58 23t-24 58 24 58.5 58 23.5 58-23.5 24-58.5-24-58-58-23zm0 131q-19 0-32.5-14.5T473 508t13.5-35 32.5-14 32.5 14 13.5 35-13.5 35.5T519 558z"/></svg>