<svg xmlns="http://www.w3.org/2000/svg" viewBox="-10 0 1020 1000"><path d="M179 539 83 421H0v158h48V459l97 120h82V421h-48zm214-121h-82q-22 0-34.5 3.5T257 433q-6 6-8.5 13.5T246 469v61q0 15 2.5 23t8.5 14q7 8 19.5 11t34.5 3h82q22 0 34-3t20-11q5-6 7.5-14t2.5-23v-61q0-15-3-24-2-6-7-12-8-8-20-11.5t-34-3.5zm19 106q0 11-4 14-1 2-5 3H301q-4-1-6.5-3.5T292 524v-48q0-11 3-15 3-2 18-2h78q15 0 17 2t3 5 1 10zm65-103v158h50V421zm202 0h-67l-85 76 92 82h71l-101-84zm21 0h50v158h-50zm211 0h-63l-89 158h56l14-27h98l15 27h58zm-64 96 31-57 32 57z"/></svg>