<svg xmlns="http://www.w3.org/2000/svg" viewBox="-10 0 1021 1000"><path d="M653 841q-65 3-139-27-7-2-16.5-1t-17.5 4q-65 25-135 25t-133-26q-67-28-115-80-70-74-89.5-161.5t12.5-183 100.5-153 170-75.5T484 186q9 4 20 2 6-1 19-5l2-1q100-35 189-20 92 15 171 84 63 54 92 130 29 73 22 151.5T953 674q-42 71-113 115-89 55-187 52zm-80-80q56 18 115.5 10.5t111-39 85-81.5T927 542.5 921 427t-53.5-102-91.5-70q-49-24-102.5-27.5T575 240q39 37 65 77 28 43 41 92h-20q-23-1-33.5 0t-15.5-2.5-9-12.5q-31-68-88-112-9-6-15-6.5t-13 6.5q-58 45-90 114-2 5-7 9t-9 4q-14 1-44 1h-16q12-50 41-94 25-39 66-77-53-19-112.5-11.5t-112 39.5-86.5 81.5T74.5 458 82 575.5 137 678q37 43 91 68 50 24 102.5 27.5T424 760q-60-70-87.5-126T312 529h161v67h-75q3 19 21 47.5t40 52 37 28.5q3 1 8-.5t9-4.5q59-45 88-109 1-2 2-8l2-8h-77v-64h165q-16 138-120 231z"/></svg>