<svg xmlns="http://www.w3.org/2000/svg" viewBox="-10 0 1020 1000"><path d="M531 321q0-25-18-43.5T469 259q-14 0-27 7.5T420 286v33q7-20 19-30 9-8 21-10l9-1q19 0 31.5 12.5T513 322t-12.5 32-30.5 13-32-14l-21-24q-15-15-36-15t-35.5 15-14.5 35.5 15 35.5 35 15q25 0 39-19v-25q-7 13-17 20-7 4-15 5h-7q-13 0-22.5-9t-9.5-22.5 9.5-22.5 23-9 22.5 10l21 24q20 17 44 17 26 0 44-18t18-45zm-28 109h-73q7 0 12.5 6.5T448 451v181q0 8-5.5 14.5T430 653h73q-7 0-12-6.5t-5-14.5V451q0-8 5-14.5t12-6.5zm-136 21v226l-1 11q-3 14-9 26-9 17-23 27l11-3q13-4 25-10 15-10 24-24 11-17 11-40V451q0-8 5-14.5t12-6.5h-73q7 0 12.5 6.5T367 451zm-99-21q7 0 12.5 6.5T286 451v141q0 18-12.5 31T244 636t-29.5-12.5T202 594V451q0-8 5-14.5t12-6.5h-73q7 0 12.5 6.5T164 451v139q0 31 23 50t57 19 57-19 23-50V451q0-8 5-14.5t12-6.5zM18 451v181q0 8-5.5 14.5T0 653h73q-7 0-12-6.5T56 632v-88h51q7 0 13 5t6 12v-39H56v-69h68q8 0 13.5 5.5T143 471v-41H0q7 0 12.5 6.5T18 451zm751 86-45-24q-10-5-15-12-3-6-4-12v-11q1-6 5-12 4-8 12-12 11-6 26-6h8q9 2 16 5 11 5 16 14v-34q-4-4-23-6l-19-1q-27 0-46 10-15 7-23 21-7 10-9 21l-1 10v6q0 7 3 14 4 10 12 19 10 11 26 20l45 26q9 5 13 11 3 5 4 10v4l-1 6q-1 7-5 13-6 8-16 13-11 6-29 6l-11-2q-13-2-23-6-14-7-20-16l13 42q9 4 26 5h15q31 0 52-10 16-8 26-22 6-10 9-22l1-10v-10q-2-12-9-22-10-15-29-26zm158-107q7 0 12 6.5t5 14.5v141q0 18-12 31t-29 13-30-12.5-13-29.5V451q0-8 5.5-14.5T878 430h-73q7 0 12 6.5t5 14.5v139q0 31 23 50t57.5 19 57-19 22.5-50V451q0-8 5.5-14.5t12.5-6.5zm-139 37zm-272-37-12 41q4-8 11-13 5-3 10-4l4-1h39v179q0 8-5.5 14.5T550 653h74q-7 0-12.5-6.5T606 632V453h32q8 0 13 5t5 13l12-41z"/></svg>