<svg xmlns="http://www.w3.org/2000/svg" viewBox="-10 0 1010 1000"><path d="M500 152q8 0 13-5.5t5-12.5V80q0-8-5-13t-12.5-5-13 5-5.5 13v54q0 7 5.5 12.5T500 152zm-188 38q7 9 16 9 5 0 10-3.5t7-10.5-2-13l-26-47q-4-6-11-8t-13.5 1.5T284 129t2 14zM211 293l-46-27q-7-4-14-2t-10.5 8.5T139 286t8 11l46 27q3 2 9 2 11 0 15-9 4-6 2-13t-8-11zm-56 172h-52q-7 0-12.5 5T85 482.5t5.5 13T103 501h52q8 0 13-5.5t5-13-5-12.5-13-5zm743 0h-53q-7 0-12.5 5t-5.5 12.5 5.5 13T845 501h53q7 0 12-5.5t5-12.5-5-12.5-12-5.5zm-38-192q-4-7-11-9t-13 2l-46 27q-7 4-9 11t2 13q5 9 16 9 4 0 8-2l46-27q7-4 9-11t-2-13zm-196-77q3 3 8 3 9 0 16-9l26-47q4-6 2-13t-8.5-11-13-2-10.5 8l-27 47q-4 6-2 13t9 11zM480 556q1 9 6 12.5t14 3.5 14.5-3.5T521 556l14-96q2-12 2-19v-47q0-16-10-24t-27-8-26.5 8-9.5 24v47q0 7 2 19zm20 42q-16 0-27 11.5t-11 28 11 28 27 11.5 27-11.5 11-27.5-11-28-27-12zm-66-361q-86 24-137.5 81T232 462q-14 84 15 154t98 123q15 12 22 20 12 12 15 23 11 33 33 46.5t56 9.5q8-2 23-1h49q22 0 34-3.5t20-13 18-29.5q16-35 33-46 131-95 125-257-4-83-55-150-50-65-125-93-79-29-159-8zm189 459q-27 22-50 54-14 22-42.5 31t-57 1.5T430 754q-30-41-60-63-58-46-79-117.5t3.5-141.5 84-110.5T512 283q56 1 103.5 33t75.5 85 28 116q-1 53-25 98.5T623 696zm-64 176q-13-1-39 0h-38q-26-1-39 0-16 2-20 10-2 3 0 9.5t5 11.5q16 22 44.5 30.5t57 0T574 903q3-4 5-11t0-10q-2-8-20-10z"/></svg>