<svg xmlns="http://www.w3.org/2000/svg" viewBox="-10 0 1010 1000"><path d="M879 728H121q-4 0-6.5 3t-2.5 7v57q0 25 17.5 42.5T172 855h656q25 0 42.5-17.5T888 795v-57q0-4-2.5-7t-6.5-3zm1-158H120q-23 0-40 19t-17 45 17 45 40 19h760q24 0 40.5-18.5T937 634t-16.5-45.5T880 570zm-759-93h758q4 0 7-3t3-7v-1q0-76-29.5-137.5T774 225q-52-39-122-59.5T500 145t-152 20.5T226 225q-56 42-85.5 104T111 467q0 4 3 7t7 3zm684-117q11 0 19 8t8 19-8 19.5-19 8.5-19.5-8-8.5-19.5 8.5-19.5 19.5-8zm-106-81q11 0 19 8t8 20-8 19.5-19.5 7.5-19.5-8-8-19 8-19.5 20-8.5zm-87 81q11 0 19 8t8 19-8 19.5-19 8.5-19.5-8-8.5-19.5 8-19.5 20-8zm-107-81q12 0 20 8t8 20-8 19.5-19.5 7.5-19.5-8-8-19 8-19.5 19-8.5zm-106 81q11 0 19.5 8t8.5 19-8.5 19.5T399 415t-19.5-8-8.5-20 8-19.5 20-7.5zm-87-81q11 0 19.5 8t8.5 20-8 19.5-19.5 7.5-20-8-8.5-19 8.5-19.5T312 279zm-106 81q11 0 19 8t8 19-8 19.5-19 8.5-19.5-8-8.5-20 8-19.5 20-7.5zM83 551h834q8 0 14.5-6t6.5-14.5-6.5-14.5-14.5-6H83q-8 0-14 6t-6 14.5 6 14.5 14 6z"/></svg>