<svg xmlns="http://www.w3.org/2000/svg" viewBox="-10 0 1010 1000"><path d="M926 949q-2-29-8-87.5t-9-88-29-52.5q-23-20-55-33l-133-53q-17-7-22-4t-10 20q-58 220-88 330 0 3-2 7h-3l-23-183q-3-29-6-43-7-39 7-78 4-9 1-12t-13-3h-65q-10 0-13.5 3t.5 12q14 39 7 78-3 14-6 44l-23 182h-3q0-3-2-7l-88-330q-5-17-10-20t-22 4l-133 53q-32 13-55 33-26 23-28.5 52.5t-8.5 88-9 87.5q-2 26 10 38.5t38 12.5h756q26 0 38-12.5t10-38.5zM313 445q17 34 33 58 20 29 44 50 62 55 143 40 48-9 90-53 23-24 43-57 15-25 33-63l1-3q3-6 5-7 19-17 29-50 9-31 1-55-4-8-8-12.5t-12-4.5q-4-1-5-2.5t0-5.5q7-50 6-84 0-60-23-98-41-70-135-92-7-2-22-4l-12-2h-48q-3 2-8 2-56 6-100 33-66 41-79 112-8 36-4 89 1 15 5 45v2q1 4-2 4-24 2-26 32-4 45 23 80 9 11 22 34zm-22-123q0-4 4.5-12t11-8.5T319 309q2 3 6 10l4 7q4 10 7 14l-9-45q-7-43-6-71 0-11 4-18 13-23 27-38 16-17 38-25 9-4 16-2.5t14 8.5q64 64 170 82 46 7 80 7 6 1 8 3t1 8q-4 39-14 83l-1 7 6-12q7-12 11-18 6-9 13-8.5t12 10.5l1 4q2 4 2 7 0 42-25 67-6 5-11 15-20 46-38 77-3 5-10 16l-5 8q-27 40-74 54.5t-93-.5q-48-15-76-58-23-36-51-97-3-9-9-15-26-23-26-67z"/></svg>