<svg xmlns="http://www.w3.org/2000/svg" viewBox="-10 0 1010 1000"><path d="M446 382q15-30 36-38-18-62-50-122-23-43-52-80-16-21-26-31-7-7-16-7t-15 6-6.5 15.5T322 141q9 9 25 31 30 39 52 84 32 62 47 126zm-76 229q19 0 37-10 2-94 18-161-20-59-62-105t-99.5-71.5T141 238q-32 0-55 23t-23 55v107q0 51 25.5 94t68.5 68.5 94 25.5zM162 432q-11-33 3-51 9-13 30-20 17-6 37-6 29 0 50 24t21 57q0 45-9 63t-31 18q-28 0-52-15-33-21-49-70zm392-50q15-64 47-126 22-45 52-84 16-22 25-31 6-7 6-15.5t-6.5-15T662 104t-16 7q-10 10-26 31-29 37-52 80-32 60-50 122 21 8 36 38zM357 637H244q-29 0-49 20t-20 48q0 52 26 95.5t69.5 69.5 95.5 26q26 0 44.5-18.5T429 832v-1q-11-39-17-93-4-40-5-81-20-20-50-20zm-1 145q0 11-8 19t-19 8q-33 0-56.5-23.5T249 728q0-11 8.5-20t20.5-9h48q10 0 21 9 0 42 9 74zm503-545q-65 0-122.5 26T637 335t-62 105q16 67 18 160 17 11 37 11h119q51 0 94.5-25.5t69-68.5 25.5-94V316q0-32-23.5-55.5T859 237zm-21 195q-16 49-49 70-23 15-52 15-22 0-30.5-18t-8.5-63q0-33 20.5-57t49.5-24q20 0 38 6 20 7 29 20 14 19 3 51zm-338-63q-17 0-32 35t-23.5 94.5T436 628t8.5 130 23.5 95 32.5 35 32-35 23-94.5T564 628t-8.5-130.5-23.5-94-32-34.5zm256 268H643q-30 0-50 20-1 41-5 81-6 54-17 93v1q0 26 18.5 45t44.5 19q52 0 95.5-26t69.5-69.5 26-95.5q0-28-20-48t-49-20zm-85 172q-11 0-19-8t-8-19v0q9-32 9-74 11-9 21-9h48q12 0 20.5 8.5T751 728q0 34-23.5 57.5T671 809z"/></svg>