<svg xmlns="http://www.w3.org/2000/svg" viewBox="-10 0 1010 1000"><path d="M855 0H146q-17 0-29.5 13T104 45v910q0 19 12.5 32t29.5 13h709q17 0 29.5-13t12.5-32V45q0-19-12.5-32T855 0zM361 878q0 9-5.5 15t-13.5 6H228q-8 0-14-6t-6-15v-79q0-9 6-15.5t14-6.5h114q8 0 13.5 6.5T361 799zm0-172q0 8-6 14.5t-13 6.5H228q-8 0-14-6.5t-6-14.5v-80q0-9 6-15t14-6h114q8 0 13.5 6t5.5 15zm0-165q0 8-6 14.5t-13 6.5H228q-8 0-14-6.5t-6-14.5v-80q0-8 6-14.5t14-6.5h114q7 0 13 6.5t6 14.5zm216 337q0 9-6 15t-14 6H443q-8 0-13.5-6t-5.5-15v-79q0-9 5.5-15.5T443 777h114q8 0 14 6.5t6 15.5zm0-172q0 8-6 14.5t-14 6.5H443q-7 0-13-6.5t-6-14.5v-80q0-9 5.5-15t13.5-6h114q8 0 14 6t6 15zm0-165q0 8-6 14.5t-14 6.5H443q-7 0-13-6.5t-6-14.5v-80q0-8 6-14.5t13-6.5h114q8 0 14 6.5t6 14.5zm215 337q0 9-5.5 15t-13.5 6H659q-8 0-14-6t-6-15v-79q0-9 6-15.5t14-6.5h114q8 0 13.5 6.5T792 799zm0-172q0 8-6 14.5t-13 6.5H659q-8 0-14-6.5t-6-14.5v-80q0-9 6-15t14-6h114q8 0 13.5 6t5.5 15zm0-165q0 8-6 14.5t-13 6.5H659q-8 0-14-6.5t-6-14.5v-80q0-8 6-14.5t14-6.5h114q7 0 13 6.5t6 14.5zm0-231q0 13-8 22t-20 9H236q-11 0-19.5-9t-8.5-22V154q0-12 8.5-21t19.5-9h528q12 0 20 9t8 21z"/></svg>