<svg xmlns="http://www.w3.org/2000/svg" viewBox="-10 0 1010 1000"><path d="M782 62H218q-6 0-10.5 4.5T203 78v844q0 6 4.5 11t10.5 5h564q6 0 10.5-5t4.5-11V78q0-7-4.5-11.5T782 62zm-510 86q0-7 4.5-11.5T288 132h423q7 0 11.5 4.5T727 148v178q0 6-4.5 11t-11.5 5H288q-7 0-11.5-5t-4.5-11zm280 281v72q0 7-4.5 11.5T536 517h-72q-7 0-11.5-4.5T448 501v-72q0-7 4.5-11.5T464 413h72q7 0 11.5 4.5T552 429zM377 852q0 6-4.5 10.5T361 867h-72q-7 0-11.5-4.5T273 852v-73q0-7 4.5-11.5T289 763h72q7 0 11.5 4.5T377 779zm0-176q0 7-4.5 11.5T361 692h-72q-7 0-11.5-4.5T273 676v-72q0-7 4.5-11.5T289 588h72q7 0 11.5 4.5T377 604zm0-175q0 7-4.5 11.5T361 517h-72q-7 0-11.5-4.5T273 501v-72q0-7 4.5-11.5T289 413h72q7 0 11.5 4.5T377 429zm175 350q0 7-4.5 11.5T536 867h-72q-7 0-11.5-4.5T448 851v-72q0-7 4.5-11.5T464 763h72q7 0 11.5 4.5T552 779zm0-175q0 7-4.5 11.5T536 692h-72q-7 0-11.5-4.5T448 676v-72q0-7 4.5-11.5T464 588h72q7 0 11.5 4.5T552 604zm175 175q0 7-4.5 11.5T711 867h-72q-7 0-11.5-4.5T623 851V604q0-7 4.5-11.5T639 588h72q7 0 11.5 4.5T727 604zm1-350q0 7-5 11.5t-11 4.5h-73q-7 0-11.5-4.5T623 501v-72q0-7 4.5-11.5T639 413h73q6 0 11 4.5t5 11.5z"/></svg>