<svg xmlns="http://www.w3.org/2000/svg" viewBox="-10 0 1010 1000"><path d="M936 478q-1-30-17.5-53T873 392q-16-5-22-21-13-35-40-104l-23-60q-15-40-39.5-56.5T681 134H318q-42 0-66.5 16.5T212 206l-66 168q-2 5-5.5 9.5T133 389q-37 15-53.5 40T63 494v222q0 4 3 4h18q22 1 32.5 0t14.5 3 3 14v19q-1 38 1 57 2 27 24.5 42.5T207 865t38-23 13-43q1-17 0-49v-25q0-2 1.5-3t2.5-1h476q3 0 3 4 0 48 .5 73t12 42 30 23.5 40.5-.5q18-5 29-19t12-33 0-57v-30q0-2 1.5-3t2.5-1h64q4 0 4-3v-69q1-114-1-170zM198 584q-28 0-47.5-20T132 516.5t20.5-47 46-19.5 45.5 20 18.5 48-19 47-45.5 19zm15-198q-3 0-3-4l1-6q29-79 55-146 8-22 18-28.5t33-6.5h156v8q0 4 3 4h48q3 0 3-4v-8h156q36-2 49 29l57 156q1 1 1 3.5t-4 2.5h-36q-9-29-33.5-47t-55-18-55 18-33.5 47zm449-56q27 0 48.5 15.5T740 386H584q8-25 29.5-40.5T662 330zm141 254q-27 0-46-18.5t-19.5-47 18-48.5 45.5-20.5 47 20 20 48-19.5 47T803 584z"/></svg>