<svg xmlns="http://www.w3.org/2000/svg" viewBox="-10 0 1010 1000"><path d="M865 198H135q-30 0-51 21t-21 51v460q0 29 21 50.5t51 21.5h730q30 0 51.5-21t21.5-51V270q0-30-21.5-51T865 198zM472 480q0-5 3.5-8.5t7.5-3.5h226q4 0 7.5 3.5t3.5 8.5v30q0 5-3.5 8.5T709 522H483q-5 0-8-3.5t-3-8.5zm-50 118q0 4-3 7.5t-8 3.5H193q-5 0-8.5-3.5T181 598V402q0-4 3.5-7.5t8.5-3.5h218q5 0 8 3t3 8zm349 0q0 4-3 7.5t-8 3.5H483q-4 0-7.5-3.5T472 598v-31q0-5 3.5-8t7.5-3h277q5 0 8 3t3 8zm48-165q0 5-3.5 8t-8.5 3H483q-4 0-7.5-3.5T472 433v-31q0-5 3.5-8t7.5-3h324q5 0 8.5 3t3.5 8z"/></svg>