<svg xmlns="http://www.w3.org/2000/svg" viewBox="-10 0 1010 1000"><path d="M627 570q-52-25-76-71-20-36-23-68-5-72 11-121 9-30 22-45 4-5 6.5-5t6.5 6l16 25q18 26 26 40 4 6 8 7.5t12-.5q21-6 35-7 20-2 37 3 4 1 13.5 2.5T736 340t12-6l2-2q36-38 55-57l2-3q5-6 8.5-4.5t4.5 8.5v4q5 43 7 64 2 36 1 64-2 39-11 68-12 34-36 58-32 31-68 39-12 4-16 8.5t-6 17.5q-4 24-16 70l-19 79q-2 11-9 35-6 25-9 38-7 36-21 73-5 13-8 19-5 10-12 17-10 9-17.5 6.5t-12-15-5-37T565 813q2-36 2-54 1-22-8-44-8-15-24-15-8 0-13 3.5T512 714q-7 12-11 28-3 10-6.5 28t-9.5 53q-10 56-17 84-2 8-10 22-2 3-5.5 5.5T445 936q-7 0-11-9-9-19-13-49l-5-40q-6-39-8-59l-3-29q-3-39-6-58-4-27-12-42-10-18-26-17-9 1-14 8-3 4-6 14-11 33-15 90l-7 130q-1 18-3 27-2 15-8.5 25t-14 10.5T279 929q-11-15-18-41l-16-64q-10-36-14-54l-16-75q-6-24-8-40l-4-23q-6-31-8-46-8-52-9-81-1-45 8-81 7-28 19-50 2-4 2-6t-3-5q-21-21-31-51-8-25-9-60-2-57 29-103 29-42 79-65 63-29 141-18 57 9 97 60l1 2q9 10 12 15 5 10 4 19t-3 13q-2 7-8.5 10t-11.5 1q-3-1-9-4l-2-2q-5-4-16-12-16-14-25-19-34-21-88-16-65 6-95 74-18 39 0 80 4 10 8 11t12-5q50-36 107-29 33 3 58 13 10 3 7 13-14 48-10 119 6 96 86 139 25 15 71 24 7 2 11-2z"/></svg>