<svg xmlns="http://www.w3.org/2000/svg" viewBox="-10 0 1010 1000"><path d="M913 728q-40-2-60-4-46-4-69-7-40-6-73-15l10-7q8-6 11-9 29-38 29-65 0-32-37-60l-6-4q-15-15-12.5-27.5T728 510q9-3 28-9l13-3q24-8 31-37 2-8-3-12-3-3-11-5.5t-11-4.5l-4-3q-9-5-12-9-13-17-32-25-16-6-39-6-19 0-37-12l-4-3q-17-13-25-17-16-6-26 1t-10 21q1 9 6 28l5 17q2 6 3 10 0 5-3 11-8 13-7 28 0 12 6 29t15 31q5 8 3 14-2 3-8 7.5t-8 7.5q-4 6-7 6t-6.5-3-5.5-4q-19-7-55-26-39-21-60-28-38-12-72-13-36 0-71 14-19 8-35 24-12 13-23 32-28 47-26 114 1 12-3.5 16t-16.5 3q-40-4-67-27.5T119 618q-4-42 19-79t60-49q69-23 163-25 40-1 66-5 36-5 64-19 32-16 50-43.5t17.5-58.5-20.5-58-57-38.5-74.5-3T346 274q-27 31-26 69v3q0 10 1 15 3 7 10.5 8.5T343 366q3-3 6-11l2-5q3-7 7-19 16-37 55-49 26-9 49.5-1t36.5 27.5 9 44.5q-4 21-23 37.5T439 411q-30 5-91.5 7.5T256 426q-72 13-114 40-52 35-72 98-13 39-4.5 76t36 63.5T170 739q33 6 63 5h4q6 0 9.5 1t6.5 5q5 8 15 11 7 2 19 2h46q94 1 141-1h6q13 1 18-1 9-5 7-21 0-1 4-3l6-3q25-4 42-5 22-1 41 4l2 1q6 1 9.5 3t5.5 6q5 11 16 15 8 3 22 4 131 5 262 0h5q9 0 12-2 6-3 5-11-1-19-24-21z"/></svg>