<svg xmlns="http://www.w3.org/2000/svg" viewBox="-10 0 1010 1000"><path d="M937 530q0-58-35-98.5T809 382q-11-2-15 1.5t-4 14.5q1 18 1 54v54q0 8-2.5 11.5T777 521q-13 1-18-4t-3-17q1-5 0-16v-8q0-32-2-40-3-12-15-14-8-2-40-1-10 0-13 5-2 3-3 11v3q-1 8 2.5 11t12 2 12 2 3.5 12q-1 73 0 147 0 9-3.5 12t-12.5 3H218q-10 0-13-3.5t-3-12.5V470q-1-10 3-14t13-3 13-1 2-10q-1-2-1.5-8t-3-9.5T218 421h-3q-31-2-39 0-11 2-14 14-2 8-2 39v6q0 24-1 30-3 9-11 11-6 1-28 0h-3q-7 0-10.5-3.5T103 507q1-34 0-68 0-10-5.5-16t-15-5.5T68 424t-5 15v67q-1 89 0 133 0 23 19.5 23t21.5-23v-47q0-18 1.5-23.5t6.5-7.5 22-3h3q14-1 19 4.5t5 19.5q-1 88-1 263 0 14 3 19 4 7 18.5 7t18.5-6q2-4 2-17V689q0-11 4-14.5t14-3.5h454q20 0 26 1 7 2 9 9t3 27q1 7 3.5 9.5t9.5.5 13 0q11 3 15-1.5t3-15.5q-1-28 0-84v-42q0-10 3-13t13.5-4 15 4 3.5 16v10.5l-1 11.5q0 8 3.5 11t11.5 3h118q9 1 12-2.5t2-12.5zm-74-33q-9 0-14.5-5.5T843 476q0-19 21-22 22 3 22 23-1 10-7 15.5t-16 4.5zm-617-96q4 16 18 25 42 33 93.5 47.5T479 488q22 0 53-7 33-8 65-22 38-15 59-38 23-27 25-65l1-4q23-105-56-170-43-36-108-48-63-12-125 1-65 14-108 50-60 51-56 130 2 32 17 86zm83-232q63-35 128-35t129 35q27 15 36.5 36.5t0 43-37 38.5-62.5 25q-29 6-66 7-60-2-103-20-18-8-25-13-27-17-36.5-38.5t0-42.5 36.5-36zm-69 297q8 36 39 66t75 46 91.5 14 89-19.5T623 527t31-60q-197 108-394-1zm472 267q-28 1-47 21.5T666.5 803t20.5 48 47.5 19.5 48-21T802 802q0-30-20-49.5T732 733zm1 104q-14 0-24-10.5t-10-25 10.5-25 24.5-11 25 10.5 10.5 26-11.5 25.5-25 9.5zM572 254q23-21 20.5-40T562 180q-22-12-49-17-23-5-45-4-38-1-69 5.5T349 182q-23 14-25 32.5t17 37.5q27 27 71 37t88 .5 72-35.5z"/></svg>