<svg xmlns="http://www.w3.org/2000/svg" viewBox="-10 0 1021 1000"><path d="M836 459q-79 33-117 108-19 38-20 71 0 37 25 69 23 30 54.5 41.5T847 751q78-20 102-103 7-26-.5-49.5T921 556q-29-26-68-14-21 8-33 25.5t-8 38.5q3 18 16 25 8 5 28 8l9 1q5 1 13-1h1q13-1 21 3.5t9 17-8 19.5q-6 4-19 7-26 5-51.5-1.5t-44-22.5-22.5-37q-6-29 3-57t30-47.5 49-25.5q72-16 118 37 55 64 26 146-23 59-72 92.5T812 801q-60-2-107-43-121-106-270-186-30-16-41-44-9-24-6-58 8-72 69-97 15-6 40 3 177 67 339 83zM0 339q1-70 53-114.5T164 213q120 64 180 95 12 7 14 11.5t-8 14.5q-61 66-58 147 0 11-4 14.5t-14-.5q-51-21-117-40-40-12-120-33-23-6-31-29-4-13-5-42zm172 218q52-39 107-31 48 7 102 51l-130 56q-7 3-11.5 0t-2.5-11q7-29-9-43-11-9-41-15-7-1-10.5-2.5T172 557z"/></svg>