<svg xmlns="http://www.w3.org/2000/svg" viewBox="-10 0 1010 1000"><path d="M248 905q0 14-9.5 23.5T216 938t-22.5-9.5-9.5-23 9.5-23.5 22.5-10 22.5 10 9.5 23zm283 0q0 14-9 23.5t-22 9.5-22.5-10-9.5-23.5 9.5-23T500 872t22 9.5 9 23.5zm284 0q0 14-9 23.5t-22 9.5-22.5-10-9.5-23.5 9.5-23T784 872t22 9.5 9 23.5zm-9-514h-78q-8 0-14 6.5t-6 15 6 14.5 14 6h19v102l-7 3q-25 10-44 16l-14-14q-14-15-35-12l-29 4q-37 4-78 5v-36q47-3 83-13 24-6 32-11 12-5 18.5-16.5T679 435l-31-319q-2-11-8.5-20.5t-16.5-14-34-9.5q-40-9-89-9t-89 9q-24 5-34 9.5t-16.5 14T352 116l-31 319q-1 14 5.5 25.5T345 477q8 5 32 11 36 10 83 13v36q-41-1-78-5l-29-4q-21-3-35 12l-14 14q-19-6-44-16l-7-3V433h19q8 0 14-6t6-14.5-6-15-14-6.5h-78q-8 0-14 6.5t-6 15 6 14.5 14 6h19v115q0 11 10 18 2 2 15 8 18 8 40 16-3 12 2 26 5 11 15 18.5t22 7.5h143v23q0 11 5.5 21t14.5 15v71q-75 2-146 16-51 10-94 26-27 10-36 15-11 5-11 18v6q0 3 6.5 4.5T215 859v0q23 0 44-7 39-14 88-24 64-12 133-14v23l6 11q7 11 14.5 11t13.5-6.5 6-15.5v-23q68 2 132 14 49 10 88 24 9 3 22 5t22 2v0q23 0 23-6v-6q0-6-3.5-11t-9-8-35.5-14q-43-16-94-26-70-14-145-16v-71q9-5 14.5-15t5.5-21v-23h143q16 0 28-12.5t12-29.5q0-7-1-10 31-11 54-23l1-1q10-7 10-19V433h19q8 0 14-6t6-14.5-6-15-14-6.5z"/></svg>