<svg xmlns="http://www.w3.org/2000/svg" viewBox="-10 0 1020 1000"><path d="M248 822q29 0 49.5-20t20.5-49q0-18-8-33t-22-25l74-184q3 1 10 1 10 0 24-4 32 48 49 72-19 19-19 47.5t20.5 49T496 697t49.5-20.5T566 627q0-18-9-34t-24-25v-1q27-79 79-239 1 0 1-2h7q19 0 37-10l90 90q-10 18-10 36 0 29 20.5 49.5T807 512t49-20.5 20-49.5q0-19-9-34.5T842 383l66-195 16-49 7 1q28 0 48.5-20.5T1000 70t-20.5-49.5-49-20.5-49 20.5T861 70q0 18 8.5 33.5T893 129v2q-47 139-80 239l-1 3h-5q-21 0-38 11-30-31-90-91 10-14 10-36 0-29-20-49.5T620 187t-49.5 20.5T550 257q0 19 9 34.5t24 24.5v2q-52 152-77 228-2 9-4 12h-6q-14 0-25 4l-48-72q19-19 19-47.5t-20.5-49T372 373t-49.5 20.5T302 443q0 17 8 32t22 25l-74 184h-10q-29 0-49.5 20T178 752.5t20.5 49T248 822zm197 116H68V814h58v-62H68V628h58v-62H68V442h58v-62H68V257h58v-63h-10q-11 1-31 0H68V71h58V8H7v1H0v982q0 4 2.5 6.5T9 1000h978q5 1 5-5-1-13 0-38v-19z"/></svg>