<svg xmlns="http://www.w3.org/2000/svg" viewBox="-10 0 1020 1000"><path d="M1000 937H448q-250 0-375 1l-4-1V813h58v-63H69V625h58v-63H69V438h58v-63H69V251h58v-63h-6q-1-1-4-1H93.5L70 188h-1V63h58V0H0v991q0 4 2.5 6.5T9 1000h986q5 1 5-5zM209 508q4 4 6.5 3.5t6.5-4.5l58-71q4-5 7.5-5.5t9.5 3.5l514 343q5 4 8 3t6-7l64-117q2-5 4.5-5.5t7.5 2.5l47 25-4-188-161 98 20 11q19 10 28 15 4 2 4.5 4.5T834 625q-11 18-31 56-4 7-6 7.5t-10-3.5L282 348q-4-3-6.5-3t-5.5 4q-33 40-99 118-2 3-2 5t3 5q20 15 37 31zm267-67q4 2 6 1.5t4-3.5l19-23q3-4 5.5-4.5t7.5 2.5l177 119q5 3 7 2.5t5-4.5q19-35 59-105l118-206q3-5 5.5-6t7.5 2q8 5 24 14l12 7q8 4 9 3.5t1-8.5l-1-171q0-4-2-6l-161 94 8 5q26 15 39 22 5 2 5.5 5t-2.5 7L686 439q-3 5-5.5 6t-7.5-3q-112-74-167-112l-2-1q-3-2-5-2t-5 3q-17 21-52 64l-9 10q-3 3-3 5t4 4q28 18 42 28zM211 759l2 1 3 3q4-4 5-6l176-211q3-4 3-6t-4-4q-28-18-41-28-7-4-11 2l-44 53q-42 51-128 153l-1 1q-2 3-2.5 5t3.5 4z"/></svg>