<svg xmlns="http://www.w3.org/2000/svg" viewBox="-10 0 1010 1000"><path d="m578 643-71-46-1 15q-3 42-4 63v8q-6 194-10 290v5q1 10-1 14-3 7-15 8-16 1-22-5.5t-8-21.5l-58-388q-2-11-6-15.5t-13.5-3.5-10.5-2.5 2-11.5l46-107q7-14 6-20-3-25-12-74l-6-37q-1-6-11-12l-34-22q-45-29-68-44-8-6-13-4.5t-7 10.5q-6 27-31 18-10-4-19 0-5 3-15 11l-8 6q-6 4-10 4t-8-5q-6-11-16-14t-24 0q-25 7-28-18-1-9-8-15-4-3-15-7l-6-2q-11-4-15-10t1-16 2-20q-3-6-11-16l-3-3q-7-8-7.5-15t9-13.5T59 108q1-7-2-22v-1q-2-9-.5-14T67 65q14-2 22-10.5T101 32q3-10 7.5-13.5T123 20q12 6 23 1 7-3 18-14 8-7 15-7t13 8q8 10 19 12 9 2 22-2 11-3 16.5 0t6.5 14.5T267 51q6 5 18 9t15.5 10-1 16.5-.5 20.5q3 6 12 16l1 1q7 9 7.5 15t-8.5 15q-14 14-13 20.5t20 15.5l45 24q8 5 11 3.5t5-10.5q11-41 25-106 6-32 22-45.5T475 40q36-2 56.5 10T562 93q9 26 18 79 6 31 10 47l3 10 99-53q7-3 6-6.5t-6-8.5q-11-11-10.5-20.5T695 121q6-5 6-12 1-5-2-14l-1-6q-5-25 17-26 10-1 16-8 4-5 8-16l3-8q3-9 8-12.5t15 2 21 .5q6-2 17-12l3-2q16-14 27.5 2.5T872 18q12-3 18.5.5T898 34t9 18q6 4 19 8h1q12 4 15.5 10t-2 16.5-.5 20.5q3 7 11.5 16.5T961 140t-9 14q-16 11-10 33 9 29-18 32-9 1-15 7-3 4-6 14-2 6-4 9l-1 3q-4 7-6 9-5 4-11 1-13-7-24-3-7 2-20 12l-10 8q-4 3-6 3.5t-5-3.5q-18-25-50-17-11 2-16.5-1.5T743 246q-3-18-13-21t-25 7q-33 23-101 67-14 10-17 27l-12 71q-3 16-2 26 1 13 8 25 12 21 22 50 23 76 81 121 9 7 8.5 13t-7.5 15L547 816l-2 4q-4 6-7 9t-7 0q-7-4-11.5-11.5T518 803q6-18 15-55 14-53 25-79 4-10 20-26zM260 135q-9-3-13-10-2-4-3-14-1-6-2.5-9t-4.5-5q-5-2-14-11.5T209 73q-9-4-20 1-1 1-2-1l-1-1q-7-5-15-3-5 1-12.5 5.5T147 81q-6 2-11 0-1 7-12 18-8 8-10 13-4 8 0 17 1 3-4 9-4 3-4.5 5.5t2.5 5.5q5 5 8 19 3 11 6 16 5 7 16 8 1 0 2 4l1 2q3 4 23.5 10.5T188 212q5-5 19-9 12-3 16-6 8-5 9-16 10-2 13-9 2-4 2-13.5t2-13.5q3-7 11-10zm564 82q7-9 18-13 7-2 21-4 1 0 2-3l1-2q2-6 10.5-14.5T887 167q3-9-1-19l3-3q2-4-2.5-25.5T879 97q-7-2-17-12-9-9-14-11-8-4-18 0-1 1-3-1l-2-2q-4-2-25.5 3T777 83q-2 6-12 16-9 8-11 13-4 9 0 19 1 2-3 6t-5 6.5 2 5.5q5 5 9 19 3 12 6 16 5 7 16 8 2 10 9 13 4 2 13.5 1.5T815 208q6 2 9 9zm-280 37q-9-4-11-6-16-9-18.5-20t8.5-25q17-23 17-51 0-7-2.5-10t-9.5-3h-85q-12 0-12 10v5q1 15 2 22 3 12 8 21 10 17 12 24t-3 12.5-23 17.5q26 4 40 24 9 12 19 41l4 12q8-9 16-30 7-18 13-26 9-13 25-18z"/></svg>