<svg xmlns="http://www.w3.org/2000/svg" viewBox="-10 0 1010 1000"><path d="M915 349q-30-60-90-93t-134-33-144 35q-53 27-91.5 67.5T397 415q-2 1-4 5-17 30-38 54-28 33-59 48-11 5-16 15.5t-1 20.5l33 94q4 10 14 16.5t22 8.5q50 6 173 40l6 1q55 20 117 16 64-5 124-35 70-35 115-95 43-59 52.5-127T915 349zm-185-28q-69-12-133 27-48 29-104 94-13 14-26.5 15t-17.5-9.5 9-24.5q67-77 129-110 77-41 163-26 19 3 21.5 13t-10 17-31.5 4zM246 566l-34 10q-13-22-32-31-29-16-61-6.5T71 577q-13 24-6 50t29 45q-7 28 1 54 8 28 32 41 29 16 61.5 6.5T237 735q12-23 9-47l33-10z"/></svg>