<svg xmlns="http://www.w3.org/2000/svg" viewBox="-10 0 1010 1000"><path d="M886 405q-12 0-23 9L463 815q-26 26-60 40t-71 14-70.5-14-59.5-40q-35-35-47.5-82.5t0-95T202 555l386-387q40-38 92-38t92 38q38 40 35 84-2 47-40 85L458 646q-22 22-53 22-27 0-42.5-14.5T347 620q0-30 22-52l267-266h-1q8-10 8-23t-10-23-24-10q-11 0-21 8h-1L322 519q-23 23-33 46.5T279 620q0 51 34 83 36 33 92 33v0q29 0 55.5-11t46.5-32l308-308q39-39 52.5-86t1.5-94-49-85q-28-28-64-43t-76-15-76 15-64 43L154 507q-49 48-66 113t0 130 66 114q35 35 81.5 54.5T332 938t96.5-19.5T511 864l400-402 5-6q4-8 4-17 0-14-10-24t-24-10z"/></svg>