<svg xmlns="http://www.w3.org/2000/svg" viewBox="-10 0 1010 1000"><path d="M500 62q-117 0-218 59-98 57-157 154-60 99-62 215-2 120 56 224 56 101 154 161 101 61 220 63 122 1 226-59 98-57 157-156t61-214q2-121-57-225-58-101-158-161-102-61-222-61zm3 788q-96 0-179-47-79-46-126-126-48-81-48-176.5T198 323q46-79 125-125 82-48 177-48t176 48q79 46 126 125 48 82 48 177 0 92-45.5 172T681 800q-82 49-178 50zm27-612h-59q-3 0-5 2t-2 5v210q0 3-2.5 5t-5.5 2H322q-3 0-5 2t-2 5v60q0 3 2 5t5 2h208q3 0 5-2t2-5V245q0-3-2-5t-5-2z"/></svg>