<svg xmlns="http://www.w3.org/2000/svg" viewBox="-10 0 1010 1000"><path d="M861 445q-15-12-22-26t-10-34q-9-66-46-112.5T684 203q-66-25-126-17-63 9-116 54-21 20-48 23-26-32-63.5-50.5T250 194q-51 0-94 25t-68 68-25 94q0 67 43 120-23 39-27.5 83.5T90 675q23 65 77 103t127 38h433q68-1 122-38.5T925.5 677t5-126.5T861 445zM85 381q0-45 22-82.5t60-59.5 83-22q38 0 71 16t56 44q11 14 19 29 12 25 16 49v2q2 16 2 24 0 45-22 82.5T332 523t-82.5 22-79.5-20q-17-10-27.5-19.5T123 486q-18-22-28-49t-10-56zm814 279q-17 57-64.5 91.5T726 786H292q-63 0-111-34.5T116 659q-11-36-8-70.5t20-65.5q9 8 31 22-23 42-9 96 13 50 51.5 78.5T295 748h422q57 0 97-29t52.5-78.5-9.5-94-72-71.5q-7-5-13-14t-6-16q2-67-27-115t-84-67q-62-21-115.5-1.5T446 339q-6 8-11 13h-1q-4-30-18-57 15-3 31-19 47-48 106-59 57-11 120 13 60 23 93 68.5T802 409q0 17 6.5 28t20.5 21q50 34 69 89.5t1 112.5zM157 356q3-2 7-2t6 2l51 51V271q0-4 2.5-6.5t6.5-2.5h36q4 0 6.5 2.5t2.5 6.5v140l54-55q7-5 13 0l21 22q3 2 3 6t-3 6L256 498q-6 5-13 0L136 391q-3-3-3-7t3-6z"/></svg>