<svg xmlns="http://www.w3.org/2000/svg" viewBox="-10 0 1020 1000"><path d="M1000 142q-1 2-1 5l-1 4q-7 38-35 66L830 350q0 1-1 1l-1 1q-2 3-3 3t-4-2q-8-7-26-21l-69-54q-1-1-2-1l4 5 126 126q13 13 16.5 33t-9 38-32.5 23q-31 7-53-15-13-12-38-37-2-2-2.5-3.5t-2.5.5l-3 4Q502 678 275 906q-23 21-48 31-16 5-38 7-14 1-35 5-7 0-17 1.5t-17 8.5l-29 30q-10 8-16 10-1 0-2 1H63l-2-1q-9-3-16-10.5T22 966l-11-11q-8-8-9-15l-2-3v-9l2-3q1-5 7-13l12-12 20.5-20.5L49 865l6-45 2-20q6-43 36-73l14-14 27-27 415-415q4-4 4-5t-4-5q-24-24-36-37-14-14-16-34.5t10-36.5q14-21 40-23.5t44 15.5q26 26 39 38l2 3q2 1 2.5 0t2.5-3q33-32 97-97l48-48q27-27 64-35 34-7 65.5 3T965 39t31 54l1 7q2 6 2 8.5t1 3.5zM676 400q0-12-8-20l-48-48q-10-10-25-7-6 1-16 9-87 89-176 176L143 771q-2 2-3 4-2 5 2 8t7 0q2 0 5-3l55-55 75-75 38-38q10-10 21.5-10t21.5 10l17.5 17.5L400 647q10 10 24 8 10-1 17-10l225-224q2-2 2-3 8-8 8-18z"/></svg>