<svg xmlns="http://www.w3.org/2000/svg" viewBox="-10 0 1010 1000"><path d="m885 977-48-88q10-11 12-26t-5-28L731 626h71q13 0 22.5-9t9.5-22-9.5-22-22.5-9H697l-54-99q36-31 56.5-73.5T720 300q0-54-25-100t-68-76.5T532 86V31q0-13-9.5-22T500 0t-22.5 9-9.5 22v54q-53 8-95.5 38.5T305 200t-25 100q0 49 20.5 91.5T357 464l-54 100h-74q-13 0-22.5 9t-9.5 22 9.5 22 22.5 9h40L156 835q-7 13-5 28t12 26l-48 88q-3 6-1 12t8 9q4 2 8 2t8-2 5-6l48-88 7 1q13 0 24.5-6.5T240 880l137-254h246l137 254q6 12 17.5 18.5T802 905l7-1 47 88q5 8 14 8 4 0 8-2 6-3 8-9t-1-12zM411 564l30-55q30 8 59 8t59-8l30 55zm61-113 28-51 28 51q-13 3-27.5 3t-28.5-3zm140-44-48-89q-7-14-21-22t-31-8h-24q-17 0-31 8t-21 22l-48 89q-21-21-33-48.5T343 300q0-42 21-77.5t57-56 78.5-20.5 78.5 20.5 57.5 56T657 300q0 31-12 58.5T612 407z"/></svg>