<svg xmlns="http://www.w3.org/2000/svg" viewBox="-10 0 1010 1000"><path d="M504 196q24 0 41.5-19.5T563 129t-17.5-47.5T504 62t-41 19.5-17 47.5 17 47.5 41 19.5zm-32-85q3 8 12 13t20 5h4q17 0 25 1 13 2 13 8 0 17-12.5 29T504 179t-29.5-12-12.5-28 10-28zm-51 219h167q7 0 11.5-5t4.5-12v-50q0-21-14.5-35.5T554 213h-38l4 3q4 3 0 7l-8 7q-1 1-2 3.5t0 4.5l15 37q2 5-1 8l-17 26q-3 3-5 0l-18-26q-2-5-1-8l16-37q2-5-2-8l-8-7q-3-4 0-7l3-3h-38q-20 0-35 14.5T404 263v50q0 7 5 12t12 5zm25 407q0 28 17 47.5t41 19.5 41-19.5 17-47.5-17-47.5-41-19.5-41 19.5-17 47.5zm100 8q0 17-12.5 29.5T504 787t-29.5-12.5T462 745q0-14 10-26 3 8 12 13t20 5h7q16 0 23 1 12 1 12 7zm8 75h-38l4 4q4 3 0 7l-8 7q-4 4-2 7l15 38q1 2 .5 4.5T524 891l-17 26q-3 3-5 0l-18-26q-2-5-1-8l16-38q2-3-2-7l-8-7q-3-4 0-7l3-3h-38q-20 0-35 14.5T404 871v50q0 7 5 12t12 5h167q7 0 12-5t5-12v-50q-1-21-15.5-36T554 820zm214-83q0 28 17 47.5t42 19.5 41.5-19.5T885 737t-17-47.5-41.5-19.5-41.5 19.5-17 47.5zm100 8q0 17-12 29.5T827 787t-29.5-12.5T785 745q0-14 10-26 3 8 11.5 13t20.5 5h7q16 0 22 1 12 1 12 7zm9 75h-39l4 4q4 3 0 7l-8 7q-4 4-2 7l16 38q2 3-1 8l-18 26q-2 3-5 0l-17-26q-1-1-1.5-3.5t.5-4.5l15-38q2-3-2-7l-8-7q-3-4 0-7l4-4h-39q-20 0-35 15t-15 36v50q0 7 5 11.5t12 4.5h167q7 0 12-4.5t5-11.5v-50q0-21-15-36t-35-15zm-704-16q24 0 41-19.5t17-47.5-17-47.5-41-19.5-41.5 19.5T114 737t17.5 47.5T173 804zm-32-85q3 8 12 13t20 5h7q16 0 23 1 12 1 12 7 0 17-12.5 29.5T173 787t-29.5-12.5T131 745q0-14 10-26zm82 101h-38l3 4q4 3 0 7l-8 7q-2 4-1 7l15 38q1 2 .5 4.5T193 891l-18 26q-2 3-5 0l-17-26q-1-1-1.5-3.5t.5-4.5l15-38q2-3-2-7l-8-8q-1-1-1-3t1-3l4-4h-38q-21 0-35.5 15T73 871v50q0 7 4.5 11.5T89 937h167q7 0 12-4.5t5-11.5v-50q0-21-14.5-36T223 820zm-48-197q9 0 15.5-6.5T197 601v-88h285v88q0 9 6.5 15.5T504 623t15.5-6.5T526 601v-88h285v88q0 9 6.5 15.5T833 623t15.5-6.5T855 601V491q0-9-6.5-15.5T833 469H526v-66q0-9-6.5-15t-15.5-6-15.5 6-6.5 15v66H175q-9 0-15.5 6.5T153 491v110q0 9 6.5 15.5T175 623z"/></svg>