<svg xmlns="http://www.w3.org/2000/svg" viewBox="-10 0 1010 1000"><path d="m749 297-59-59-60-58q-13-13-32-13H107q-36 0-36 37v758q0 20 8.5 29t28.5 9h617q21 0 29-8.5t8-28.5q0-422 1-633 0-19-14-33zm-59 643H145q-11 0-12.5-1.5T131 929V240q0-8 3-10.5t10-2.5h427q12 0 14 2.5t2 14.5v73q0 14 5.5 19t19.5 5h80q6 0 8.5 2t2.5 9q-1 73 0 220v192q-1 108 0 163 0 7-2.5 10t-10.5 3zm239-461V164q0-21-14-35-76-74-114-112-17-17-41-17H272q-34 1-34 34v57q0 9 8 8h32q14 0 16.5-2t3.5-14V72q0-9 2-10.5t15-1.5h426q8 0 10.5 2.5T754 73q-1 17 0 53v26q0 12 5 17t17 5h81q7-1 9.5 2t2.5 10v559q0 15-1 20t-6 6-20 1h-3q-5 0-6.5 2t-1.5 7v43q0 9 8 9 40 0 60-1 13 0 20.5-7.5T929 803zM601 783q-3-2-10-2H237q-5 0-8.5 3t-3.5 8q0 12 12 12 3 1 9 1h293q36 0 55-1 11 0 12.5-8.5T601 783zm-12-120H242q-18 0-17 12 0 7 4.5 9t12.5 2h172v1h109q46 0 70-1 7 0 11-4t2.5-10-7.5-8q-3-1-10-1zm2-119H239q-14 0-14 11 0 7 3.5 9.5T239 567h355q8 0 11.5-5.5t0-11.5-14.5-6zm-351-96q15-1 45 0h45q31-1 46-.5t15-11.5-15-12H240q-15 0-15 12t15 12z"/></svg>