<svg xmlns="http://www.w3.org/2000/svg" viewBox="-10 0 1010 1000"><path d="M211 365q-36-25-57-48-45-51-35.5-97.5T189 144q71-35 158-38-10 7-30 20-30 17-43 29-33 29-32 55t36 52q20 15 48 28 20 9 51 21 14 6 30 0 93-30 186 0 6 2 9 2 18 3 54-13 34-16 64-38 31-24 36.5-41t-1.5-33q-6-11-21-26t-50-37q-20-12-29-19 61 5 102 17 53 15 92 44 54 41 22 113-11 25-34 47-15 14-51 41 76 3 135 45 17 12 16.5 21T921 455q-50 36-99 41-52 6-104-24l-4-2q-9-6-13-6-6 1-9 14l-8 40q-15 70-21 106-11 59-14 107-3 28 6 57 12 39 .5 61T603 881q-115 28-212-4-40-13-49.5-32t4.5-57q8-25 7-56-1-18-7-54l-4-26q-6-37-21-109l-12-60q-3-14-8-16.5t-19 5.5q-110 59-208-21-11-9-11.5-16T74 418q24-20 51-30 30-12 86-23zm298 513q21 2 46-4.5t49-20 25-32.5-22.5-35.5T542 763t-82-.5-65 22.5q-23 15-23 32t21.5 34 51.5 22q23 5 64 5zM204 486q29 0 74-26 21-12 20.5-25.5T277 408q-44-28-95.5-24.5T89 422v0q-8 7-9.5 11.5T87 445q28 19 52 29 30 11 65 12zm599-1q29 1 58-11 24-9 51-28l2-1q6-5 7-9t-6-11q-24-24-60.5-34.5t-74-5.5-63.5 26q-15 12-14.5 24t15.5 22q47 29 85 28zm-172 27q-1-11-6.5-18t-15.5-8q-12-1-19 6t-7 17.5 6 17 17 7.5q20 0 25-22zm-214 1q0-12-5.5-19t-16-8-17.5 5.5-7 18 6 17.5 16 6.5 16-5.5 8-15z"/></svg>