<svg xmlns="http://www.w3.org/2000/svg" viewBox="-10 0 1010 1000"><path d="M913 193q14-13 21.5-30.5t-.5-23-24.5 13.5-21.5 35v1q-5 13-1.5 14.5t13-3T913 193zm-52 51q10-20 13-42.5t-5-26.5q-12-4-23.5 16T832 234q0 6 2.5 18t5.5 14l1 1-10 12q-13 17-20 24v-1q5-10 8-29.5t1.5-34.5-9-16-14.5 8.5-10 25-1 30.5q1 6 5 16.5t7 13.5q-15 16-35 33l3-6q5-11 7-30.5t-.5-34.5-10-16-13.5 9-8.5 26-.5 30q1 6 5.5 16.5T754 357l-33 26 4-11q4-11 4.5-30.5T726 307t-11.5-15-13 10.5T695 329t3 30q2 6 7.5 16t8.5 12q-12 9-36 25l-3 2q2-6 4-9 5-12 6.5-31t-1.5-34-10-16q-12-1-19 21t-3 45q2 7 6 16 5 10 9 13l-20 11q-7 5-23 13l1-2q2-3 3-5 6-10 9.5-29t2-34.5-9-17-14.5 8-10.5 25T603 419q1 7 4.5 17t6.5 13l-41 21q2-4 3-5 6-10 11-29t5-34.5-7-17.5q-12-3-22.5 17.5T552 446q4 22 9 30l-32 16q-3 2-11 6l5-6q7-9 13-27.5t7-34-6-17.5q-12-4-23.5 16T500 472q0 7 2.5 17.5T508 503l-42 23 2-4q7-9 13.5-27.5t7.5-34-6-17.5q-12-4-23.5 16T446 502q0 6 2 16.5t5 14.5l-6 3q-10 6-32 19l-3 1q8-10 14.5-27t8.5-31.5-5-17.5q-11-5-24 14t-16 42q-1 5 .5 15.5T394 567l-52 32q-35 22-51 34l-22 17q-31 23-45 36l-10 9q-13 11-19 17-10 8-13.5 11.5L172 733l-4 4q-4 5-12 13l2-3 12-28 4-15q2-6 4-18l3-17q2-11 2-16v-3q2-13 2-18l1-30-8 50q-1 5-4 18l-1 6q-2 8-8 26l-4 13-12 27-4 7v2l-11 17-21 27h1q-29 32-50 60-2 2-1 2.5t1 1.5.5 2 2.5 1 3-2q31-36 88-77 36-26 61-39 8-5 27-13l16-7 15-6q20-8 31-11l24-8 32-7 3-1h3l21-3q11-2 17-2l25-2h24q17 0 47 2l13 2q20 2 29 4 30 4 62 10l23 5-22-8-27-8q-13-4-35-9l-24-5-28-5q-24-3-37-3-8-1-25-1l-26 1q-6 0-19 2l-26 3-8 2-25 7-21 6-9 3-15 6-5 2q-6 3-17 7l-6 3-13 7q-20 10-29 16-25 14-36.5 22T148 777q-3 1-7 5l-3 2q24-22 39-37 3-2 8-7l6-5q4-4 14-12l11-9q12-10 19-15 25-21 67-51 14-12 47-33l27-18q8-6 13-8 3 4 10 11t11 9q12 7 28 10t27.5 0 12.5-11q2-11-25.5-21t-47.5-9q26-16 40-24 1 4 9 12.5t13 10.5q20 11 43 11t25-12q2-7-11-14t-31.5-11.5T462 547q-4 0-6 1 30-18 46-27 1 5 8 13.5t12 10.5q11 8 26.5 12.5T576 561t14-8.5-10.5-16-30.5-15-30-6.5h-6q8-4 22-12 10-6 15-8 1 4 9 12.5t14 11.5q19 11 42 11.5t26-11.5q1-7-12-14.5T597.5 492t-29.5-4l-7 1 42-23q1 4 9.5 12.5T626 490q12 7 27.5 10t27 .5 13-10-11.5-15-31.5-12T620 460h-5l10-6q18-10 26.5-15t11.5-8h1l42-27q0 4 7.5 13.5T726 430q12 8 27 12.5t27 3 14-9-10.5-16T753 406t-30-7q-8 0-11 1l31-23q2 4 10 11t12 10q20 11 43 10.5t26-12.5q1-7-12.5-14t-32-11-30.5-3l-6 1 8-7q12-10 17-15v1q2 3 12.5 8.5T807 364q23 5 44.5-2t20.5-20q0-7-15-10t-34-1.5-30 6.5l-7 3 21-21 11-11q-2 2 0 4.5t13.5 5.5 17.5 3q23-1 43-12t16-23q-2-7-17-7t-33.5 5.5T829 297l-7 6q14-16 26-32 5 1 15 0t16-3q13-4 25.5-14t18.5-20.5.5-18-26.5 3-36 25.5zM679 430h-3q-15 0-15 4t8 13 13 13q12 8 27 12.5t27 3.5 14-8.5-10.5-16-30.5-15-30-6.5z"/></svg>