<svg xmlns="http://www.w3.org/2000/svg" viewBox="-10 0 1020 1000"><path d="M165 788q33-8 58-32.5t35-57.5 2-66q-4-17 0-24.5t21-12.5l339-116q144-48 322-110l18-6q26-9 40-12v-4q-9-20-27-33-15-11-38-18-54-17-121-10-31 3-66 15-23 8-63 27-44 20-97 49-32 17-95 52l-37 21q-60 33-105 53-57 27-109 42-28 9-55-3-55-27-108-3-39 17-60.5 54T1 671q4 39 27 69t59 43q22 8 50 7 15 0 28-2zm256-288q1-9 7.5-16t15.5-6.5 15.5 7 6.5 16-7 16-16 6-15.5-7T421 500zM130 736q-32-1-54-24t-20.5-54.5T80 604t54-21 53.5 24.5T208 661q-2 33-24.5 54.5T130 736zm375-201q-5 2-15 5l-33 11 3 2 26 15q72 39 108 58 60 32 110 55 108 50 209 29 32-7 51-18 24-13 36-38v-4q-3 1-8-2l-3-1q-70-24-104-35-98-34-294-100-9-5-18 0zm-88-82q-5-2-11-4l-131-45q-22-7-16-30 12-45-5.5-85.5t-56-62.5-83.5-16Q36 222 9 295q-13 36-7 70t32 63q27 31 66 41 43 11 86-10 27-13 56-4 49 16 91 34l2 1q5 2 9 0l28-14q30-15 45-23zM56 340q0-32 22.5-54t53.5-22 54 23 22.5 54-23 54-53.5 22.5-53.5-23T56 340z"/></svg>