<svg xmlns="http://www.w3.org/2000/svg" viewBox="-10 0 1010 1000"><path d="m276 406 1 1q4 5 6 4t2-4l4-34 1-13q1-19 1-28-1-16-6-28l-2-6q0-6 2-7t4 0 3 3l7 10q7 17 5 46 0 20-4 62l-1 14q-1 31-3 47-3 25-11 45-4 11-.5 27.5T297 577t22 22q8 4 24 11l19 8q34 14 41 44 3 9 12 14 79 27 149 2 16-7 20-20 4-19 24-31l6-3q11-6 17-8l13-5q25-10 36-16 18-11 22-24 9-30 6-50-4-26-5-39-2-16-4-49l-2-26q-4-50-3-75 0-17 8-28l1-1q4-7 8-5t1 10l-4 19q-2 16-1 36 1 11 4 35l2 23q27-22 35-58 9-39 4-82-9-72-61-119-50-46-131-59-10-2-28-4l-15-2h-38q-3 2-8 2-61 3-111.5 26T281 187q-58 84-25 190 6 17 20 29zm269 14h11q50 4 75 9 17 4 28 15.5t10 27.5q-3 39-37 53.5T570 514q-33-31-47-56-9-17-1.5-26.5T545 420zm-42 102q1 2 4 5 17 22 24 33 11 18 14.5 35t-8.5 27q-15 13-22-5t-8-34q-2-18-4-54zm-16 3q0 31-1 46-2 25-9 44-4 12-14 12-6 0-11.5-5.5T445 610q-3-11 2-24 6-16 17-32 8-12 23-29zm-159-67q8-22 36-29 18-4 54-8l22-2q9 0 19.5 2.5t15 11 .5 18.5q-28 53-66 73-21 11-41.5 3.5T335 499q-6-11-8-20-2-11 1-21zm574 319q-23-9-52-6-44 5-80-14-15-8-45.5-23T679 711q-5-2-6.5-1t-2.5 6q-3 22-11 37-1 4 0 6.5t5 4.5q13 5 37.5 17.5T738 800q41 17 65 58 19 32 46 43 10 4 22-1 15-7 12-25l-3-14q-2-11 2-18.5t14-12.5l15-7q11-7 11-20-3-19-20-26zm-575-59q-1-6-3-7t-7 2l-91 45q-34 18-73 13-21-2-37.5.5T89 782q-13 9-11.5 22.5T93 825l13 6q16 9 13 28l-3 15q-2 10 1 15.5t10 9.5q4 3 11 3.5t15-2.5q24-12 42-40l8-13q17-27 50-43l80-40q4-2 5-4t-1-6q-8-21-10-36zM142 534q40-3 78 17 15 9 46 23l1 1q-2-7-6-17-7-21-4-38 1-5-.5-8t-6.5-5l-3-1q-16-8-23-12-12-7-20-16-6-7-17-23l-10-14q-10-14-18-22-11-10-24-15-15-5-27 5-9 8-6 24l2 13q4 19-13 28l-12 6q-12 5-16 15v10q6 23 34 28 15 3 45 1zm488 107q-2-4-6-4 0 33-5 54-10 52-48 77-22 14-51 17-46 4-76-5-33-10-49.5-32t-21-56.5T369 639q-11 11-13 29-3 47 14 95 20 48 70 62 55 15 108 2 55-13 77-62 16-36 16-91 0-15-11-33zM520 763q2 5 5 5h3q4 0 6.5-.5t4.5-4 1-13.5-2.5-11-4.5-1q-9 0-11.5 2.5T520 754zm-31 7q8 2 11-1t3-14-1.5-13.5-9.5-1.5q-5 0-7.5 2t-1.5 5 0 9 0 9 6 5zm8-71h-3q-8-2-10 3-2 7 0 21 1 3 6 5 7 1 10-2t3-13v-8q0-8-6-6zm-39 69q5 1 6.5-1.5t1.5-7.5v-8q0-8-2-10.5t-8.5-3-8 2-.5 7.5v3q-1 2 0 6v2q-1 6 2 8t9 2zm8-56v-2q0-8-2-10.5t-8.5-2.5-7.5 2.5-1 7.5v10q0 8 7.5 9t10-1.5T466 712zm61 14q6 0 9.5-1.5t2.5-7.5v-15q0-4-6.5-5t-9.5 2-3 13v5q0 5 1 7t6 2zm48-30q-2-5-11-2-5 1-6.5 4t-1.5 9v5q1 7 4.5 8t7.5-.5 6-4.5q5-6 1-19zm-153 36q-1 0-2-1-6-2-8.5.5t-.5 9.5l1 2q0 3 4 9 5 9 9.5 8t3.5-7v-12q0-8-7-9zm-4-38q-5 0-6 2.5t-1 7.5v2q-2 14 13 14 4 0 5-2t.5-5 .5-4q0-9-2.5-12t-9.5-3zm141 66q4 2 7-2l1-1q8-9 9-20 2-8-6-6.5t-10.5 4.5-1.5 13v2q-1 2 0 3v2q0 4 1 5zm38-55q6-10 9-23.5t2-25.5q-9 5-12 19.5t1 29.5zm-218-47q2 26 11 42 4-13 .5-26.5T379 658zm10 61q0 8 6 16 1-9-6-16zm546-227q-5-8-13.5-11t-13.5-7q-8-4-11.5-11t-1.5-16l3-18q3-13-8-21-13-9-31-2-22 11-37 36l-8 12q-12 17-20 25-11 11-40 26l-9 5q-7 4-10 7.5t-2 11.5q1 3 0 10v4q-1 8-5 24l-3 12 62-31q28-16 63-14 21 1 42 0 16-1 25-5 11-6 17-18 3-5 3.5-9.5T936 494z"/></svg>