<svg xmlns="http://www.w3.org/2000/svg" viewBox="-10 0 1010 1000"><path d="M933 159q-13-28-48-28H118q-28 0-41.5 13.5T63 187v630q0 25 14 38.5t39 13.5h770q24 0 37.5-13.5T937 819q1-319 0-638 0-13-4-22zm-629 30q23 0 23 23t-22.5 23-22.5-22q-1-13 4.5-18.5T304 189zm-80 0q22 0 22 23 0 13-5 18t-17 5-17.5-5.5T201 212q0-23 23-23zm-81 0q23 0 24 23t-23 23q-13 0-18.5-5.5T120 213q0-24 23-24zm772 625q0 18-7 24.5t-24 6.5H115q-16 0-23-7t-7-23V293h829zm-444-48q25-6 35-28.5t-1-45.5q-1-1-1-3t1-3q26-36 39-53 2-2 5-2 19 5 40-6l4 2 51 39q2 1 2 6v6q-1 8 0 12 1 16 12 27.5t26.5 15 30-3 23-20T745 680t-11-28q-2-4-1-8 36-72 54-107 2-3 3-4t5-1q20 1 35.5-14t15.5-36-15.5-36-35.5-14q-33 2-45 29.5t6 51.5q3 5 1 8l-54 108q-2 4-6 4-13 0-27 6-3 3-6 0l-50-38q-6-3-4-9 4-17-4-32t-23-23-32-4q-25 6-35.5 28.5T517 607q2 4 0 6-13 18-39 52-1 3-6 3l-8-1q-9-1-13 0-20 3-32 21t-8 38.5 22 32.5 38 7zM241 639q38 13 76 2 34-9 56-33 0-1-1-1l-32-29-61-52q-4-4-4-7-10-29-28-87-8-22-11-33-35 13-57 44-25 34-25 76 0 40 24.5 73.5T241 639zm52-120q3 2 9 7l8 8q20 17 53 46l20 16q25-32 27-71 2-36-15-67.5T350 410q-1 0-1 1-19 34-57 104-1 2 1 4zm44-116q-16-10-42.5-12t-45.5 4l35 106 21-39q21-40 32-59z"/></svg>