<svg xmlns="http://www.w3.org/2000/svg" viewBox="-10 0 1010 1000"><path d="M500 433q98 0 182-18 82-17 130.5-47.5T861 302V194q0-36-48.5-66.5T682 80q-84-18-182-18T318 80q-81 17-129.5 47.5T140 194v108q0 35 48.5 65.5T318 415q84 18 182 18zm360-59q-6 34-56 61.5T675 479q-82 17-175 17t-175-17q-79-16-129-43.5T140 374q-1 2 0 90v88q0 36 48.5 66.5T318 666q84 18 182 18t182-18q82-17 130.5-47.5T861 552v-88q0-88-1-90zM500 750q-93 0-175-17-79-16-129-43.5T140 628v178q0 36 48.5 66.5T318 920q84 18 182 18t182-18q82-17 130.5-47.5T861 806l-1-178q-6 34-56 61.5T675 733q-82 17-175 17z"/></svg>