<svg xmlns="http://www.w3.org/2000/svg" viewBox="-10 0 1010 1000"><path d="M608 611q14-13 24-20 16-13 27-19 16-8 32-8t30-8q7-3 8.5-1.5t.5 9.5q-5 42-46 72-23 17-51 25-13 4-18 15-35 74-40 157-2 49-23 78-12 18-32 24t-40.5 0-32.5-24q-20-29-22-76-5-84-40-158-6-12-18-16-50-15-77-49-18-23-21-51-2-10 7.5-5.5T309 564l16 3q13 2 26 11 7 5 22 17l7 6q4 3 11 10 1-17-7-31-6-10-21-21-34-25-84-49-76-37-116-125-20-45-31-79-14-44-17-83v-6q0-11 1-17l1-2q1-4 3.5-4.5t5.5 4.5l1 1q10 18 18 53 6 24 12 34 4 6 7 6 5-1 5-9 1-17-1-51v-1q-4-43-3-73 0-39 7-73 2-8 4-14l1-2q2-4 3.5-5.5t4.5-.5q6 1 8 11 1 5 0 17l-1 18q-1 12 0 16 2 9 10 12.5t16-1.5q5-3 14-12l6-6q13-12 21-18 11-10 23-15 4-3 14-7l6-2q5-2 8 1.5t-2 8.5l-18 18-30 23q-60 46-64 115-2 41 3 74 6 38 23 70 21 41 55 60l2 1q10 6 14.5 3t2.5-13l-1-3q-6-29-8-87v-1q-1-24-7-72-4-34-5-51-4-26 1-43 0-4 3-5t5 3v1q4 10 5 15 3 14 17 7 7-4 12-11 3-4 8-13 7-16 18-22 6-4 11-1 3 2 3 5t-2 6q-3 7-11 19.5T319 223l-2 3q-5 11-6 16-2 7-1.5 11.5t6 6.5 8 0 6.5-7l21-36q8-17 19-26 13-11 25-8-1 6-8 15-4 5-6 8v1q-5 6-2 10t10 2l11-3q14-4 21-3h2q4 0 6 3.5t-4 6.5l-1 1q-8 6-25 18.5T374 262q-64 52-53 138 6 46 14.5 68.5t22 29.5 25.5 1.5 22-21.5q7-12 14-31l1-2q7-19 11-28 7-15 16-25v0q8-11 15.5-6t1.5 17q-10 19-22 60l-7 21q-7 22 0 37t28 26q47 21 87-9 25-19 16-49l-8-26q-13-41-23-60-3-5-2.5-10t5-7.5 7.5-.5 7 7l1 1q9 11 16 26 4 9 11 28 8 24 20 39.5t27.5 15T655 485q7-9 11-21 2-7 6-23l1-5q5-32 6-48 2-27-3-48-7-29-27-54-16-20-44-40l-24-18-7-5q-5-3-4-6.5t6-3.5h2q12 0 27 5 12 5 16-2 2-2 1-4.5t-3-5.5l-11-14q-6-6-2.5-8.5t9.5-.5q14 4 24.5 20t28.5 48l1 1q4 6 7 8.5t8-.5q10-5 4.5-20T665 200l-19-29q-3-6-4-10t3-7q7-4 17 6 7 6 13 18 7 16 17 22 7 4 11.5 2.5t7.5-9.5l1-5q2-6 3.5-9.5t5-2.5 4.5 7q1 3 1 11v2q0 29-8 83-5 40-7 91-2 36-7 64l-1 2q-2 11 2.5 13.5T719 448l3-1q39-21 61-71 34-79 16-164-7-31-29-57-17-21-48-42l-6-5q-16-12-23-20-6-6-3.5-9.5T698 76l2 1q17 5 32 16 12 8 26.5 22.5t23.5 20 16.5 2 9-15T807 87l-1-5v-5q1-6 2.5-9.5T815 63t7 2 3 10l1 3q10 37 8 94 0 19-2 56l-3 44v11q1 6 6 7t8-4q2-3 4-11l2-6q3-9 8-27 6-23 10-34l2-4q2-6 4-8.5t6-1.5q7 2 5 19-1 37-12 75-20 66-45 115-36 71-113 110-44 22-75 44-16 12-22 22-10 14-9 32z"/></svg>