<svg xmlns="http://www.w3.org/2000/svg" viewBox="-10 0 1010 1000"><path d="M926 692h-27V539q0-29-15-51l-69-101q-13-19-33-29.5T740 347H634q-9 0-15.5 6.5T612 370v322H438q27 23 31 56h183q5-33 31-56t61-23 60.5 23 30.5 56h91q5 0 8.5-3t3.5-8v-34q-1-5-4.5-8t-7.5-3zM814 509H674q-5 0-8-3.5t-3-8.5v-77q0-5 3.5-8t7.5-3h85q7 0 10 4l54 78q4 5 1 11.5t-10 6.5zm-70 183q-29 0-49.5 20.5T674 762t20.5 49.5T744 832t49.5-21 20.5-49.5-20.5-49T744 692zm0 105q-15 0-25-10.5t-10-25 10-24.5 25-10 25 10 10 24.5-10.5 25T744 797zM160 692q-4 0-7.5 3t-3.5 8v34q0 4 3.5 7.5t7.5 3.5h126q4-33 31-56zm217 0q-29 0-49.5 20.5t-20.5 49 21 49.5 49.5 21 49-20.5T447 762t-20.5-49.5T377 692zm0 105q-14 0-24.5-10.5t-10.5-25 10.5-24.5 24.5-10 24.5 10 10.5 24.5-10 25-25 10.5zm169-519H415q10 27 10 60 0 52-26 96.5T329 505t-96 26q-29 0-56-9v125q0 4 3.5 7.5t7.5 3.5h380q5 0 8.5-3t3.5-8V311q0-13-10-23t-24-10zM233 168q-46 0-85 23t-62 62-23 85 23 85 62 62 85 23 85-23 62-62 23-85-23-85-62-62-85-23zm0 301q-36 0-66.5-17.5t-48-47.5-17.5-66 17.5-66 48-47.5T233 207t66 17.5 47.5 47.5 17.5 66-17.5 66-48 47.5T233 469zm50-103q-1 0-2-1l-57-15q-13-3-13-16v-84q0-7 5-12t12-5 12 5 5 12v71l42 11q7 2 10.5 8t2 12.5-6.5 10-10 3.5z"/></svg>