<svg xmlns="http://www.w3.org/2000/svg" viewBox="-10 0 1010 1000"><path d="M562 281v-85q89 20 148.5 80T790 429h-85q-17-57-55-95-35-36-88-53zm-126 0v-85q-100 19-158 79-56 57-77 154h86q16-56 57-95 38-36 92-53zM287 546h-86q20 108 77 165 54 54 158 75v-85q-50-16-91-59.5T287 546zm595-55q0 106-53 196-51 88-138 140-90 53-195 53t-195-53q-88-52-139-140-53-90-53-196t53-196q51-88 139-139 90-53 195-53t195 53q87 51 138 139 53 91 53 196zm-38 0q0-95-48-176-46-79-124-125-82-48-176-48t-176 48q-79 46-125 125-48 81-48 176t48 177q46 79 125 125 81 48 176 48t176-48q78-47 124-126 48-81 48-176zM496 668q-48 0-88.5-24T343 579.5 319 491t24-88.5 64.5-64.5 88.5-24 88.5 24 64 64.5T672 491t-23.5 88.5-64 64.5-88.5 24zm137-177q0-37-18.5-69t-50-50.5T496 353t-69 18.5-50.5 50.5-18.5 69 18.5 69 50.5 50.5 69 18.5 68.5-18.5 50-50.5 18.5-69zm-71 210v85q93-21 148-75 61-60 80-165h-85q-18 54-55 95-39 44-88 60zm333 17q-18 0-30.5 12.5T852 761t12.5 30.5T895 804t30.5-13 12.5-30-13-30-30-13zM791 827q-23 0-39 16.5t-16 39 16.5 39 39 16.5 38.5-16.5 16-39-16-39-39-16.5zm90-249q-10 0-17.5 7t-7.5 17.5 7.5 18 18 7.5 17.5-7.5 7-18-7-17.5-18-7zM123 869q-11 0-19.5 8T95 896.5t8.5 19.5 19.5 8 19-8 8-19.5-8-19.5-19-8zm-9-145q-11 0-18.5 7.5T88 750t7.5 18.5T114 776t19-7.5 7.5-18.5-8-18.5T114 724zm86 66q-14 0-24.5 10.5t-10.5 25 10.5 25 25 10.5 24.5-10.5 10-25-10-25-25-10.5zm695-536q-8 0-13 5.5t-5 13 5.5 13 13 5.5 12.5-5.5 5-13-5-13-13-5.5zM94 177q-13 0-22 9t-9 22 9 22 22 9 22-9 8.5-22-9-22-21.5-9zm71-115q-16 0-27.5 11.5t-11.5 28 11.5 28T165 141t27-11.5 11-27.5-11-28-27-12zm-61 243q-8 0-14 5.5T84 324t6 14 14 6 13.5-6 5.5-14-5.5-13.5T104 305z"/></svg>