<svg xmlns="http://www.w3.org/2000/svg" viewBox="-10 0 1010 1000"><path d="M868 224Q693 171 345 67q-28-8-53.5-1.5t-43 24.5-24.5 42q-16 56-50 168L67 657q-12 40 6 73.5t59 45.5l525 157q40 12 73.5-6t45.5-59q69-227 157-524 12-41-6.5-74.5T868 224zM347 687q-7 24-25 40.5t-42 22-48-1.5q-37-11-54.5-45t-6.5-71q7-23 25-39.5t42-22.5 48 1 40.5 25 22 42-1.5 49zm64-213q-11 36-44.5 54t-70.5 7.5-54.5-44.5-7-71 44-54.5 71-6.5 55 44.5T411 474zm63-212q-10 36-43.5 54t-70.5 7-55-45-7-70.5 44.5-54.5 70.5-7 54.5 45 6.5 71zm228 530q-11 37-44.5 55t-70.5 7-55-44-7-70 45-55.5 70.5-7.5 54.5 44.5 7 70.5zm64-213q-11 37-44.5 55t-70.5 7.5-55-44.5-7-71 44.5-54.5 70-6.5 55 44 7.5 70zm63-213q-10 37-43.5 55.5T715 429t-55-44.5-7.5-70.5 44-55 70.5-7 55 44 7 70z"/></svg>