<svg xmlns="http://www.w3.org/2000/svg" viewBox="-10 0 1010 1000"><path d="M538 806q-47 0-87-22.5t-63-62-23-86.5 23-86.5 62.5-62.5 85.5-23 85.5 22.5 63 61.5 23.5 85q0 48-22 88t-61.5 63-86.5 23zM411 636q0 33 17.5 62t46 46 62.5 17 62.5-17 46-46 17.5-63-17-63.5-46.5-46T536 509t-62.5 17-45.5 46.5-17 63.5zM211 363q36 30 89 43.5T462 427q-35 36-85 55-37 14-102 25 25 11 53 14 17 2 50 2h6q-5 11-14 30l-9 18q-3 5-9 7-26 5-42 5-22 1-42-5 20-4 33-9 17-7 29-20-14-3-39-6l-7-1q-34-8-56-33-16-20-27-28-17-13-39-15 15-9 30-10 12 0 27 5 34 12 72 6 29-5 69-23-14-1-42-5-57-11-87-34t-68-27q-31-4-72 6-14 3-28 7 32-41 77.5-56.5T235 333q36 10 57 14 32 5 58 2 12-1 18-3 9-2 15-8-39-20-51.5-31T308 270q23 11 51 13 17 0 52-3l15-1q53-4 97 3 50 9 92 32h1q10 4 12 11l-9-2q-69-12-105-15-59-5-108 4 8 6 24.5 8.5T455 328q-35 29-77 40-37 10-82 7-33-2-85-12zm477 161q-40-49-87-64-7-3-8.5-7t2.5-10l48-86q12-19 32.5-26t41 1 31 26.5T754 398q-3 12 .5 15.5T769 417q15 0 46.5 1t47 1.5 24 6.5 7.5 20q-1 24-32 22l-39-1q-53-1-79-2-13-1-21 3.5T710 485q-3 6-11 20zm142-265q0 27-19.5 46.5t-46 19-46-20.5-18.5-46 20-45 45.5-19.5 46 19T830 259zm19 547q-38 1-64-24.5t-25.5-63 25.5-63 61.5-26.5 63.5 24.5 28 62.5q0 24-12 44.5t-32.5 33T849 806zm67-89q0-28-20-48t-48.5-19.5-48.5 21-19.5 48.5 21 47.5T849 786t48-20 19-49zM694 539h58l80 80-10 2q-12 2-22 7-14 8-21 20l-39-37-22 1-1-10q-2-12-6-25-6-19-17-38z"/></svg>