<svg xmlns="http://www.w3.org/2000/svg" viewBox="-10 0 1010 1000"><path d="M500 393q-29 0-53.5 14.5t-39 39T393 500t14.5 53.5 39 39T500 607t53.5-14.5 39-39T607 500t-14.5-53.5-39-39T500 393zm0 162q-22 0-38.5-16.5t-16.5-39 16.5-38.5 39-16 38.5 16 16 38.5-16 39-39 16.5zm315-358q-38-39-83-68-51-32-109-49-60-18-123-18-119 0-221 60-99 58-156 157-60 102-60 221t60 221q57 99 156 157 102 60 221 60t221-60q99-58 157-157 60-102 60-221 0-87-33-167-32-76-90-136zM500 651q-41 0-75.5-20.5t-55-55T349 500t20.5-75.5 55-55T500 349t75.5 20.5 55 55T651 500t-20.5 75.5-55 55T500 651z"/></svg>