<svg xmlns="http://www.w3.org/2000/svg" viewBox="-10 0 1010 1000"><path d="M850 956q-2-20-4.5-58.5T841 840q-9-97-31-170-7-25-18-41-13-20-33-31-17-11-41-20-15-5-44-14-6-2-7 .5t0 7.5v1q3 36-5 75-3 9 8 15 44 25 47 74 1 21-4 63-3 26-4 39-2 41-13 68-18 39-60 31-17-3-15-19t20-13q9 2 15-1.5t11-12.5q6-12 6-24l12-115q1-26-11.5-44.5t-36-24-42.5 5-29 34.5q-6 15-17 46l-12 33q-10 25-14 45-3 15 1 22.5t18.5 13.5 9.5 20q-2 7-7 9.5t-13 1.5q-20-5-31.5-18.5T489 862q0-16 5-34 9-32 33-93l10-27q11-26 32-41t49-16q6-1 9-3t4-7q6-37 3-73-1-9-5-14t-13-6q-13-3-29-9-7-3-10.5-1.5T571 547q-14 49-45 109-7 13-24 41l-7 12q-4-25-12-67-3-16 2-27l2-3q3-4 3.5-7.5T488 598q-6-6-19-15l-12-9q0-1-1-.5t-1 1.5l-7 6q-17 12-23 20-3 4 3 13l4 8 1 5-13 80q-5-5-6-7-40-65-64-135-1-3-2.5-10.5T344 543q-2-5-6.5-6.5T319 541l-10 4q-10 2-12 9l-5 13q-5 14-7 22-27 114 10 228 3 9 7.5 13.5T316 837q18 4 27 21t2.5 35.5-24 26-35.5-.5-24-27 4-35q3-5 3.5-10t-1.5-12q-39-108-21-223 2-11 7-31l6-22-14 4q-30 8-44 13-24 9-41 19-35 21-49 54-16 39-24 91-8 40-13 90-3 30-8 90l-3 38q-1 27 23 42h739q14-7 20-17.5t4-26.5zM291 340q8 2 13 12 26 63 62 99 37 39 81 43 29 4 55-9 23-10 45-32 37-37 64-100l1-3q1-4 3-6t6-3q13-1 24-13t16.5-29 3.5-30.5-12-14.5q-7 0-8-3t1-9q7-34 9-65 0-33-5-53-12-41-42-57-11-6-17-12-8-7-11-17-2-6-12-14-21-18-59-23-99-9-177 45-60 42-67 106-5 47 4 90v2q2 6 .5 8.5t-8 2.5-10.5 9q-4 13 .5 29.5t15.5 30 24 16.5z"/></svg>