<svg xmlns="http://www.w3.org/2000/svg" viewBox="-10 0 1010 1000"><path d="M742 143h-64V67q-9-2-28-4l-34-1-31 1q-20 2-31 4v76H409q-3 18-3 35.5t3 34.5h145v131q-17-5-33-6l-33-1q-50 0-96 19-44 20-74 53t-46.5 78.5T255 585q0 66 19.5 111t50.5 72.5 76 41.5q40 13 89 13 65 0 104-7 37-5 84-19V213h64q2-22 2-35 0-23-2-35zM554 710q-15 4-27 6-18 2-28 2-20 0-43.5-7.5T417 689q-17-17-24-41-9-26-9-63 0-30 7-57t20-48q17-22 36-32 23-13 51-13 13 0 27 2 10 1 29 6zm43 158H324q-2 22-2 34t2 33v3h334v-3q2-21 2-33t-2-34z"/></svg>