<svg xmlns="http://www.w3.org/2000/svg" viewBox="-10 0 1010 1000"><path d="M490 322q0 14-10 24t-24 10-24-10-10-24 10-24 24-10 24 10 10 24zm0 178q0 14-10 24t-24 10-24-10-10-24 10-24 24-10 24 10 10 24zm0 88q0 14-10 24t-24 10-24-10-10-24 10-23.5 24-9.5 24 9.5 10 23.5zm0 90q0 14-10 23.5t-24 9.5-24-9.5-10-23.5 10-24 24-10 24 10 10 24zm88-90q0 14-9.5 24T545 622t-24-10-10-24 10-23.5 24-9.5 23.5 9.5T578 588zm0-177q0 14-10 24t-23.5 10-23.5-10-10-24 10-23.5 24-9.5 23.5 9.5T578 411zM401 766q0 14-10 24t-24 10-24-10-10-24 10-24 24-10 24 10 10 24zm266-266q0 14-10 24t-24 10-24-10-10-24 10-24 24-10 24 10 10 24zm-89 0q0 14-9.5 24T545 534t-24-10-10-24 10-24 24-10 23.5 10 9.5 24zm-88-89q0 14-10 24t-24 10-24-10-10-24 10-23.5 24-9.5 24 9.5 10 23.5zm-89-177q0 14-10 24t-24 10-24-10-10-24 10-24 24-10 24 10 10 24zm0 444q0 14-10 23.5t-24 9.5-24-10-10-23.5 10-23.5 24-10 24 10 10 24zm0-356q0 14-10 24t-24 10-24-10-10-24 10-24 24-10 24 10 10 24zm0 178q0 14-10 24t-24 10-24-10-10-24 10-24 24-10 24 10 10 24zm0-89q0 14-10 24t-23.5 10-24-10.5T333 411t10-23 24-10 24 9.5 10 23.5zm0 177q0 14-10 24t-24 10-24-10-10-23.5 10-23.5 24-10 24 9.5 10 23.5z"/></svg>