<svg xmlns="http://www.w3.org/2000/svg" viewBox="-10 0 1010 1000"><path d="M678 510q-14 0-24 10t-10 24 10 24 24 10 24-10 10-24-10-24-24-10zm-178 0q-14 0-24 10t-10 24 10 24 24 10 24-10 10-24-10-24-24-10zm-88 0q-14 0-24 10t-10 24 10 24 24 10 23.5-10 9.5-24-9.5-24-23.5-10zm-90 0q-14 0-23.5 10t-9.5 24 9.5 24 23.5 10 24-10 10-24-10-24-24-10zm90-88q-14 0-24 9.5T378 455t10 24 24 10 23.5-10 9.5-24-9.5-23.5T412 422zm177 0q-14 0-24 10t-10 23.5 10 23.5 24 10 23.5-10 9.5-24-9.5-23.5T589 422zM234 599q-14 0-24 10t-10 24 10 24 24 10 24-10 10-24-10-24-24-10zm266-266q-14 0-24 10t-10 24 10 24 24 10 24-10 10-24-10-24-24-10zm0 89q-14 0-24 9.5T466 455t10 24 24 10 24-10 10-24-10-23.5-24-9.5zm89 88q-14 0-24 10t-10 24 10 24 24 10 23.5-10 9.5-24-9.5-24-23.5-10zm177 89q-14 0-24 10t-10 24 10 24 24 10 24-10 10-24-10-24-24-10zm-444 0q-14 0-23.5 10t-9.5 24 10 24 23.5 10 23.5-10 10-24-10-24-24-10zm356 0q-14 0-24 10t-10 24 10 24 24 10 24-10 10-24-10-24-24-10zm-178 0q-14 0-24 10t-10 24 10 24 24 10 24-10 10-24-10-24-24-10zm89 0q-14 0-24 10t-10 23.5 10.5 24T589 667t23-10 10-24-9.5-24-23.5-10zm-177 0q-14 0-24 10t-10 24 10 24 23.5 10 23.5-10 10-24-9.5-24-23.5-10z"/></svg>