<svg xmlns="http://www.w3.org/2000/svg" viewBox="-10 0 1010 1000"><path d="M954 491 778 315q-4-5-10-5t-10 5l-35 35q-4 4-4 10t4 11l83 83H589q-15-33-50-49V209l89 89q5 4 11 4t10-4l35-35q4-5 4-11t-4-10L508 67q-4-5-10-5t-11 5L312 243q-4 4-4 10t4 10l35 35q4 4 10 4t10-4l83-83v193q-28 15-44 46H194l83-83q5-5 5-11t-5-10l-34-35q-4-5-10-5t-11 5L46 491q-4 4-4 10t4 11l176 175q5 4 11 4t10-4l35-35q4-5 4-11t-4-10l-90-89h219q16 30 44 45v198l-84-83q-4-5-10-5t-10 5l-35 35q-4 4-4 10t4 10l175 176q5 4 11 4t10-4l176-176q5-4 5-10t-5-10l-35-35q-4-5-10-5t-11 5l-89 89V590q34-16 49-48h224l-89 89q-4 4-4 10.5t4 10.5l35 35q5 4 11 4t10-4l175-175q5-5 5-11t-5-10z"/></svg>