<svg xmlns="http://www.w3.org/2000/svg" viewBox="-10 0 1020 1000"><path d="M252 502h40q7 0 11.5-5t4.5-12V277q0-7-4.5-11.5T292 261h-40q-7 0-12 4.5t-5 11.5v208q0 7 5 12t12 5zm642-251h-40q-7 0-11.5 4.5T838 267v67q0 7-5 12t-12 5H414q-7 0-12-5t-5-12v-57q0-7-4.5-11.5T381 261h-40q-7 0-11.5 4.5T325 277v208q0 7 4.5 12t11.5 5h40q7 0 11.5-5t4.5-12v-76q0-7 5-12t12-5h407q7 0 12 5t5 12v67q0 7 4.5 11.5T854 492h40q7 0 12-4.5t5-11.5V267q0-7-5-11.5t-12-4.5zm90 0h-40q-7 0-12 4.5t-5 11.5v209q0 7 5 11.5t12 4.5h40q7 0 11.5-4.5t4.5-11.5V267q0-7-4.5-11.5T984 251zM56 508H16q-7 0-11.5 5T0 525l2 208q0 7 5 11.5t12 4.5h39q8 0 12.5-5t4.5-12l-2-208q0-7-5-11.5T56 508zm603-15h-40q-7 0-12 5t-5 12l1 67q0 7-4.5 11.5T587 593l-408 4q-7 0-11.5-4.5T163 581l-1-58q0-7-4.5-11.5T146 507h-40q-7 0-12 5t-4 12l1 208q0 7 5 12t12 5l40-1q7 0 11.5-4.5T164 732l-1-77q0-7 5-11.5t12-5.5l407-3q7 0 12 4.5t5 11.5v67q0 7 5 11.5t12 4.5h40q7 0 11.5-5t4.5-12l-2-208q0-7-4.5-11.5T659 493zm89-1h-40q-7 0-11.5 5t-4.5 12l2 208q0 7 4.5 12t11.5 5l40-1q7 0 12-4.5t5-11.5l-2-209q0-7-5-11.5t-12-4.5z"/></svg>