<svg xmlns="http://www.w3.org/2000/svg" viewBox="-10 0 1020 1000"><path d="M0 990q15 14 35.5 4.5T95 968l40-17q17-8 19-16.5T143 913l-55-56q-13-12-21.5-10T51 865L0 977zm284-356q4 3 7 7l26 26q23 23 34 35 6 6 10 5.5t11-6.5q92-93 277-277l138-138q7-7 6.5-12t-6.5-11q-26-24-56-55-7-9-12.5-8.5T705 208q-82 83-248 249L293 621q-8 7-9 13zm-103-43q-13 31-40 91L87 805q-3 6-1.5 9.5T92 823l85 85q5 6 10 7t13-2q130-58 196-86 8-3 9.5-7t-5.5-10zm498-491q1 6 8 15l197 196q17 19 35 1 36-37 73-73 16-16 0-32L794 10q-15-16-32-1l-25 25q-32 33-49 49-8 8-9 17zM401 751q2 2 5 6 20 21 31 29 4 3 7.5 1t6.5-7l4-5 407-406q10-10 9.5-16t-9.5-15l-2-1q-13-12-18-15t-10.5 0-18.5 16L416 736l-9 9zM212 560q8 14 27 29 4 2 6.5.5t5.5-5.5l3-4 165-165q165-164 248-246 9-9 8-15-1-4-9-11l-6-6q-7-7-10-8-7-2-15 7L223 549q-3 2-7 7z"/></svg>