<svg xmlns="http://www.w3.org/2000/svg" viewBox="-10 0 1010 1000"><path d="M964 250q-21-36-64.5-55T793 176q-30 0-79 7-33-86-79-134Q586 0 531 0q-31 0-64 19-18-12-40-12-32 0-54.5 22.5T350 83q0 28 20 51-15 28-22 49-49-7-79-7-63 0-106.5 19T98 250q-28 48-9 114 18 65 76 136-32 39-55 83-8-2-14-2-32 0-54.5 22.5T19 658q0 30 21 52t51 24l1 3q4 9 6 13 21 37 64.5 55.5T269 824q40 0 79-7 33 86 80 133 48 50 103 50t103-49 80-134q49 7 80 7 9 0 14-1 11 16 28 25.5t37 9.5q32 0 54-22.5t22-53.5q0-7-1-11 11-11 16-21 28-48 9-115-17-64-75-135 58-71 75-136 19-66-9-114zm-250 87q-42-28-65-41-34-20-69-36 58-22 108-32 14 42 26 109zm-39-146q-70 15-144 47-76-32-144-47 7-19 16-35 14 4 24 4 32 0 54-22.5T503 83q0-19-9-35 22-9 37-9 41 0 78.5 40.5T675 191zm-301 37q59 14 108 32-34 16-69 36-31 18-65 41 9-53 26-109zm-242 42q15-26 50.5-40.5T269 215q32 0 66 6-20 63-31 148-63 47-113 100-47-59-63.5-111.5T132 270zm167 307q-43-34-82-77 39-43 82-77-3 37-3 76.5t3 77.5zm-30 208q-51 0-86.5-14.5T132 730l-2-4q19-10 31-28t12-40q0-34-27-58 16-33 45-70 48 53 113 101 11 85 31 148-34 6-66 6zm79-122q34 23 65 41 35 19 69 36-49 18-108 32-16-52-26-109zm183 298q-41 0-79-41-37-40-65-111 70-15 144-47 74 32 144 47-28 71-65.5 111.5T531 961zm157-189q-59-14-108-32 35-17 69-36 23-13 65-41-12 67-26 109zm33-162q-47 34-92 60-39 23-98 50-53-24-98-50t-92-60q-6-54-6-110t6-110q47-34 92-60t98-50q59 27 98 50 45 26 92 60 6 54 6 110t-6 110zm73-395q51 0 86 14t50 41q21 35 4.5 87.5T871 469q-50-53-113-100-9-78-31-148 46-6 67-6zm-31 208q43 34 82 77-39 43-82 77 3-38 3-77.5t-3-76.5zm167 307v1q-11-12-26-19t-31-7q-32 0-54.5 22.5T796 782v3h-2q-31 0-66-6 22-74 30-148 63-47 113-100 47 59 63.5 111.5T930 730zM531 407q-38 0-65.5 27T438 500t27.5 66 65.5 27 65.5-27 27.5-65.5-27.5-66T531 407z"/></svg>