<svg xmlns="http://www.w3.org/2000/svg" viewBox="-10 0 1010 1000"><path d="M520 354q-8 1-16 6t-12.5 14-5.5 16q-2 12-1 20 2 13 8.5 18t14.5 4l10-1q3 0 9-4l6-73zM69 292l139 139q185 184 277 277 9 9 14.5 8.5T514 708l393-394 8-7q16-13 19.5-21.5T937 257l-1-13q1-41-41-41H103q-40 0-40 40v33q-1 5 .5 8t5.5 8zm318 81q7-26 24-51 18-23 46-39 30-17 70-21 20-1 41.5 2.5t36 13.5 26.5 29q10 17 13 43 1 16-2 36-4 17-14 33-8 14-22.5 24.5t-35 13T538 448q-5 4-17 10-8 3-24 5-10 2-18-.5t-15-7.5q-8-8-11-14-4-9-6-21-2-20 3.5-37t15.5-30q8-10 24-21 14-7 31-10h9q12-1 17 0 10 0 24 4l-9 100q2 1 10 1 11-2 19-9t12-17 6.5-22.5.5-25.5q-3-32-25-49-22-15-59-12-26 3-50 14-20 11-34 30t-20 40-4 45q1 17 10 34t19 23q12 9 26 12t31 1q20-2 28-4 13-3 23-9l8 17 3 9q-4 3-12 6-10 4-15.5 5.5T521 519t-18 2q-22 3-43-2t-37.5-16.5T396 472q-12-22-13-47-3-22 4-52zm352 186-3-3-6-5q-4 6-6 8L544 739q-21 21-44.5 21T456 740L276 560q-3-3-7-9-3 2-5 4L68 751q-7 7-4 19.5T77 790t25 7h802q21-3 29-20 4-10 3.5-16t-8.5-14q-63-62-189-188zM63 692l170-170q-56-58-170-172zm873-1V350L766 520z"/></svg>