<svg xmlns="http://www.w3.org/2000/svg" viewBox="-10 0 1010 1000"><path d="M688 326q-3-15-15-21t-32-2l-306 65q-13 4-19.5 13.5T311 404t10.5 19.5 21.5 6 16 10.5l2 5q2 6 2 10-1 5-8 9-3 2-5 5t-1 7q0 7-2.5 10t-11 3.5T322 496t-5 15q-4 57 7 99 14 49 52 84 31 27 39 60 2 8 7 11t14 3h124q9 0 13.5-3t6.5-11q9-31 31-50 42-37 58-88 15-45 10-104 0-8-3-13.5t-9.5-6.5-10.5-5q-2-2-5.5-8t-5.5-8q-12-14-9-27 2-9 12-24l8-13q11-17 18-37l5-16q13-12 9-28zM458 489q-8 0-11.5-2t-3.5-10q0-11-6-12-8-3-11-9-3-4-5-12.5t-3-11.5q-4-10-1-14t13-6l177-37q-16 23-22 37-9 19-10 38-1 7-9 10-14 5-13 18 1 7-2 9t-10 2zm187 44q2 6 1 18v6q2 79-52 128-20 18-29 44-3 8-14.5 12t-18.5 0q-4-1-3-6l1-3q8-25 25-39 35-30 49-72 13-38 10-88 0-1-1-5-3-6-2-9.5t9-3.5q22-2 25 18zm4-324q-150 32-225 47-58 12-87 19-14 3-21 12t-5 22 10 20 21 8q6 0 10-1l95-20q144-30 216-46 14-3 21-13t4-24-14-20.5-25-3.5zm-313-26q-14 3-20.5 12.5t-4.5 22 10.5 19.5 22.5 8l14-2 240-51q45-9 68-15 13-4 19-14.5t3-23.5q-8-26-37-23l-15 3-171 36-45 10q-56 11-84 18zm152 681h5l10-2 69-9q12-2 12-8.5t-4-8.5-10-1l-88 10q-12 3-12-4 0-4 2-5t6-2l91-11q7-1 10-3 5-2 4.5-8.5t-4-7.5-10.5 0l-3 1q-18 1-54 6l-33 3q-4 1-6.5.5t-3-4.5 1.5-5 6-2l5-1 21-2q6-1 9-2.5t2.5-7-3-7-6.5-1.5h-66q-7 0-14.5 8T414 808t1 17q5 9 3 30-1 11-1 16l1 8q1 18 4 26 4 13 13 14.5t28.5 9 29 8.5 20.5-2q7-2 20-7 20-9 31-10 6-1 10-7.5t3-14.5q0-3 1-9l1-2q5-13 3-16t-16-2q-52 6-77 8l-5 1q-7 2-10 1.5t-3.5-5 2-5.5 8.5-2zM348 152q13-3 39-8 67-13 101-21 11-3 16.5-13.5t3-22.5-12-19-22.5-6L338 89q-30 8-27 36 2 13 11.5 20.5T348 152z"/></svg>