<svg xmlns="http://www.w3.org/2000/svg" viewBox="-10 0 1010 1000"><path d="M902 674q-33-33-82-36h-4q-25 0-47.5 9.5T729 674t-26.5 39.5-9.5 47 11 48.5q7 20 24.5 37.5t40 27T815 883q33 0 61.5-16.5t45-45T938 760q0-24-9.5-46.5T902 674zm-23 58-75 75q-3 3-7 0l-45-46q-3-4 0-7l11-11q1-2 3.5-2t3.5 2l31 31 60-60q4-4 7 0l11 11q4 3 0 7zM411 294q-29 34-45 93h304l-43 84H354q-1 10-1 31v14h274l-40 84H362q38 176 223 176 32 0 57-3 2 26 13.5 50.5t31 43T726 896q-21 7-60 14l-4 1q-46 6-100 6-97 0-168.5-31T274 800.5 200 668q-10-31-16-68H63l38-84h75l-1-14q0-11 2-31H64l42-84h82q3-18 13-52 29-81 75-133 53-59 120-87 73-32 162-32 57 0 99.5 6.5T756 118q-3 37-13 65t-25 65q-34-12-70-19-30-6-72-6-108 0-165 71z"/></svg>