<svg xmlns="http://www.w3.org/2000/svg" viewBox="-10 0 1020 1000"><path d="M847 154H153q-41 0-76.5 20.5t-56 56T0 308v384q0 42 20.5 77.5t56 56T153 846h694q41 0 76.5-20.5t56-56T1000 692V308q0-42-20.5-77.5t-56-56T847 154zM622 449q29-12 52-7 16 2 26 13 7 7 7 19v92q0 4 4 4h5q3-1 3 2.5t-2 3.5q-15-2-30 0-3 0-3-3v-19q-4 8-12 16-10 10-27 10t-28-9-12-23q-2-17 8-28 7-7 22-11l37-8q9-2 10.5-4t1.5-12v-8q1-9 0-14-3-14-17-17-11-1-17.5 2.5t-11 12.5-10.5 27q-1 4-6 3-1 0-1-1v-39q0-2 1-2zm225 212q-11-2-34-5l-91-13q-40-4-60-5-57-3-114-3h-74q-45 0-68 1-58 2-86 4-20 1-60 5h-5q-72 7-118 19l-5 1q59-28 151-46-18-2-26-5-84-27-100-111-13-70 37-125 36-36 84-42 69-9 119 40 29 29 38 68 2 3 4 3h41q3 0 3 3t-3 3h-11q-2 0-2 3 5 11 12 34l21 60q0 1 1 1l6-15 13-40q2-3 0-6-4-15-11-34-1-3-4-3h-10q-2 0-2-3v-1q0-2 2-2h60q2 0 2 3t-3 3h-18q-2 0-2.5.5t.5 2.5l28 84 5 12 2-6q10-30 32-90 1-2 .5-2.5t-3.5-.5h-15q-2 0-2-3t2-3h30q3 0 3 3.5t-2.5 3-4.5 2.5l-43 120q-1 4-5 4-1-1-1 0h-1q-6 0-7-1t-3-7l-23-66q0-2-1-2-4 10-5 15l-21 58q0 3-3 2h-4q-5 1-6.5 0t-2.5-6l-40-117-1-1q-1-2-2-2h-2v2q3 16 1 35-5 42-29 74-22 28-54 43l-3 2q201-21 367 10-3-1-3-6v-35q0-2 2-2h1q3 0 4 3 2 9 8 27 0 2 2 6t6 5 8.5-2.5T757 602q6-10 9-23v-3l-15-36q-24-57-35-85-2-2-4-2h-4q-3 0-3-3t2-3h51q2 0 3 3t-3 3h-17l38 90 30-90h-19q-3 0-3-3t3-3h36q3 0 3 3t-3 3h-1q-6 0-7.5 1t-3.5 7l-47 134q-3 10-7 16-7 12-21 12 83 21 129 42zM392 519q2-3-2-3l-51-1q-3 0-3 3-6 13-19 16.5t-26.5 1-24-13T257 495q0-4 4-4h131q3 0 3-3v-11q0-25-9-47-13-31-38-42-45-20-93-2-31 11-43 40-22 46-3 99 14 36 50 46 40 12 78.5 1t54.5-53zm-102-99q12-2 24 3t19 16q3 5 5 16 0 3-3 3h-73q-3 0-3-3 0-13 8.5-22.5T290 420zm391 84q-7 4-17 6-12 2-17 5-11 5-14 14-3 15 0 28 1 9 11 12 7 3 13 1 16-4 22.5-19.5T684 518v-12q0-4-3-2z"/></svg>