<svg xmlns="http://www.w3.org/2000/svg" viewBox="-10 0 1010 1000"><path d="M462 200v-15q-1-20 0-31 0-18 11-29.5t28-11.5 28.5 12 12.5 29q0 62-1 93 0 7 2 9.5t8.5 3T570 263l6 2q9 3 10-6l28-86q5-17 18.5-24.5t30-3T687 164t3 31q-9 30-29 90-2 6-1 8.5t6 4.5 14 7l9 5q9 5 11.5 4.5t7.5-9.5l47-74q8-12 21.5-16t26.5 1.5 20 18.5q11 21-3 41l-13 22-36 57q-6 8 2 13 16 12 24 20 6 6 11-1 38-44 58-65 13-14 29-16t29 10 13.5 28-12.5 30q-19 23-59 67-4 4-4 8t4 10q40 45 60 90 12 23 1 49-13 29-35 58-17 23-44 52-80 86-177 134.5T485 887q-81-3-157-43-148-75-243-220-10-15-17-29-10-23 0-45 23-47 67-97 5-5 5-8.5t-5-7.5q-40-44-59-67-9-10-9.5-23t7.5-24 20-15.5 23.5-1T141 323q8 10 25 29t25 29q4 5 7 5t9-5.5 22-17.5q4-3 4.5-5.5T231 351l-47-75q-12-19-4-38t30-24q11-3 22 2t19 16l45 73q3 5 6 5.5t8-2.5q18-10 28-15 4-2 4.5-4t-.5-6l-27-86q-5-17 2-32t23-20 30 2.5 20 24.5l9 28q13 37 18 56 1 5 4 6.5t8 .5q8-3 24-5h1q5-1 6.5-3t1.5-6q-1-11 0-32zM269 570q0 62 30.5 114.5t82 83.5T493 799q64 0 117.5-30t84.5-83 31-117q0-60-31-112t-83-83-112-31q-63 0-116 30t-84 82-31 115zm100 1q1-37 19-66.5t48-46 67-15.5q33 0 61.5 18.5t45 48.5 16 64-19 64-50 46.5T488 699q-32-2-59.5-19.5t-43.5-46-16-62.5z"/></svg>