<svg xmlns="http://www.w3.org/2000/svg" viewBox="-10 0 1010 1000"><path d="M937 531q-40-63-86-104-49-43-107-72l-63 76h1q80 37 131 98 3 4 3.5 6.5T814 541q-84 100-229 129 85-50 85-134 0-39-18-70L404 764q86 15 180 0 235-35 352-223 3-4 1-10zM719 185 614 312q-55-11-117-13l-52 3-29 4Q179 344 64 530q-1 2-1 5t1 5q45 75 107 122 40 32 101 61l-42 50 51 43 489-589zM440 437q16 1 28 11t13 24l-33 38q-2 1-7 1-18 0-29.5-10.5t-12-26T411 448t29-11zM211 568q-3-3-9-10l-14.5-14.5-4-7.5 3.5-8q66-77 168-111 25-9 59-16-84 51-83 135 0 48 27 84l-23 27q-72-30-124-79z"/></svg>