<svg xmlns="http://www.w3.org/2000/svg" viewBox="-10 0 1010 1000"><path d="M911 316h-79q-3 0-5-2.5t-2-5.5V70q0-3-2.5-5.5T817 62H455q-3 0-5 2.5t-2 5.5v238q0 3-2.5 5.5T440 316H308q-3 0-5.5 2t-2.5 5v574q0 3 2.5 5t5.5 2h603q8 0 8-7V323q0-7-8-7zM506 115q0-3 2-5t5-2h254q3 0 5 2t2 5v11q0 3-2 5t-5 2H514q-8 0-8-7zm0 67q0-3 2-5.5t5-2.5h254q3 0 5 2.5t2 5.5v10q0 3-2 5t-5 2H514q-8 0-8-7zm0 62q0-3 2-5.5t5-2.5h254q7 0 7 8v10q0 3-2 5t-5 2H514q-8 0-8-7zM400 789q0 3-2.5 5t-5.5 2h-26q-3 0-5-2t-2-5V465q0-3 2-5t5-2h26q8 0 8 7zm148 3q0 3-2.5 5t-5.5 2h-66q-3 0-5-2t-2-5v-65q0-3 2-5.5t5-2.5h66q3 0 5.5 2t2.5 6zm0-133q0 3-2.5 5.5T540 667h-66q-7 0-7-8v-65q0-3 2-5t5-2h66q3 0 5.5 2t2.5 5zm0-126q0 3-2.5 5.5T540 541h-66q-3 0-5-2.5t-2-5.5v-65q0-3 2-5t5-2h66q3 0 5.5 2t2.5 5zm150 259q0 3-2.5 5t-5.5 2h-66q-3 0-5.5-2t-2.5-5v-65q0-3 2.5-5.5t5.5-2.5h66q3 0 5.5 2t2.5 6zm0-133q0 3-2.5 5.5T690 667h-66q-3 0-5.5-2t-2.5-6v-65q0-3 2.5-5t5.5-2h66q3 0 5.5 2t2.5 5zm0-126q0 3-2.5 5.5T690 541h-66q-3 0-5.5-2.5T616 533v-65q0-3 2.5-5t5.5-2h66q3 0 5.5 2t2.5 5zm150 259q0 3-2.5 5t-5.5 2h-66q-3 0-5.5-2t-2.5-5v-65q0-3 2.5-5.5t5.5-2.5h66q3 0 5.5 2t2.5 6zm0-133q0 3-2.5 5.5T840 667h-66q-3 0-5.5-2t-2.5-6v-65q0-3 2.5-5t5.5-2h66q3 0 5.5 2t2.5 5zm0-126q0 3-2.5 5.5T840 541h-66q-3 0-5.5-2.5T766 533v-65q0-3 2.5-5t5.5-2h66q3 0 5.5 2t2.5 5zm24-124q0 3-2 5t-5 2H407q-3 0-5-2t-2-5v-49q0-3 2-5t5-2h33q3 0 5.5 2t2.5 5v17q0 3 2 5t5 2h362q3 0 5-2t2-5v-17q0-3 2.5-5t5.5-2h33q3 0 5 2t2 5zM252 250H99q-8 0-13 5.5T81 269v650q0 8 5.5 13.5T99 938h153q8 0 13.5-5.5T271 919V269q0-8-5.5-13.5T252 250z"/></svg>