<svg xmlns="http://www.w3.org/2000/svg" viewBox="-10 0 1010 1000"><path d="M712 516q-1-8-5-24-6-32-19-96t-19-96q-5-29-30-51t-54-22q-84-2-168 0-11 0-16 1-60 18-72 82-7 40-23 120l-17 83q-4 17 4 30.5t23.5 16.5 27.5-5.5 16-25.5l38-185 4-11 4 2v4q1 5 0 8l-65 321q-2 11 1.5 15t14.5 4h49v205q0 21 12.5 33t32.5 12q16 0 28.5-13t12.5-32q-1-64-1-192v-12h17v206q0 17 9.5 29t25.5 14q23 3 37-9.5t14-36.5V687h48q14 0 17-4t1-18l-66-323q0-1 2-5l1-3 5 6q0 3 1 5 12 62 38 186 3 16 15.5 24.5T684 561t23-16 5-29zM501 216q31-1 53-23.5t21.5-54-22-53.5-53-22.5-53.5 22-22 54.5 22.5 54.5T501 216z"/></svg>