<svg xmlns="http://www.w3.org/2000/svg" viewBox="-11 0 1022 1000"><path d="M486 834q-1-41 0-124v-62q0-10-3-14.5t-13-7.5q-47-13-73.5-47t-26-79.5T398 420t73-46q8-2 11.5-6t3.5-12v-63q-1-85 0-127 0-10-4-14t-14-3H190q-111 0-167-1-14 0-18.5 5T0 172q2 75 0 112-1 13 4 17.5t18 4.5q21-1 62-1h46q10 0 13.5 3.5T147 322v357q0 10-4 13.5t-13 3.5q-19-1-56.5-1H17q-10 0-13.5 4T0 712q1 63 0 124 0 11 5 14 4 2 14 2 224-2 449 0 11 0 14.5-4t3.5-14zm272-685H534q-11-1-15 3t-4 14q2 93 0 186 0 10 4 15t15 8q43 10 70.5 46t27.5 79.5-28 79.5-71 46q-10 2-14 6.5t-4 14.5q2 93 0 185 0 11 4 15.5t16 4.5q75-2 112-1 222 0 332 1 13 0 17.5-4t3.5-16q-1-59 0-117 1-12-4-16t-17-4h-52l-53 1q-12 0-16.5-3.5T853 677q1-177 0-355 0-10 4.5-13.5T872 305q24 1 72 0h36q11 1 15.5-2.5t4.5-15.5q-2-60 0-119 0-12-4-16t-15-4q-75 1-223 1zM118 651V349q0-9-3-12.5t-12-3.5q-41 1-83 0-12-1-16 4t-4 17q1 49 1 147.5T0 649q0 11 4 15t14 4q42-1 83 0 9 0 13-3.5t4-13.5zm781-318q-9 0-12 3.5t-3 12.5v303q0 10 4 13t14 2h20q40 0 60 1 11 0 14.5-4t3.5-15q-1-33 0-99v-99q-1-67 0-100 0-10-4-14t-14-4q-41 1-83 0zm-413 83q0-10-3.5-12t-12.5 0q-30 10-50.5 37T399 500t20.5 59 50.5 37q10 3 13 0t3-13q-1-19 0-55zm43 181q30-8 51-35t21-60.5-20-61.5-51-36q-8-3-11.5-1t-3.5 12q1 28 1 84v87q0 8 2.5 10.5t10.5.5z"/></svg>