<svg xmlns="http://www.w3.org/2000/svg" viewBox="-10 0 1010 1000"><path d="M623 278h-95v22h-22v22h22v22h-22v22h22v22h-22v22h22v22h-22v23h22v22h-22v22h22v22h-22v44q19 5 31.5 20.5T550 621q0 23-16 39t-39.5 16-39.5-16-16-38 12.5-37.5T483 565v-22h-22v-22h22v-22h-22v-22h22v-22h-22v-23h22v-22h-22v-22h22v-22h-22v-22h22v-22h-22v-22h22v-22H376q-27 0-49.5 13.5t-36 36T277 377v246q0 27 13.5 49.5t36 36T376 722h247q27 0 50-13.5t36.5-36T723 623V377q0-27-13.5-49.5t-36.5-36-50-13.5zM476 593l-2.5 2.5-2.5 2.5-1 1-3 3v1q-3 1-4 5l-1.5 6-.5 6.5 1 6.5v2q0 2 2 4 0 3 3 6v0q1 3 4 4 5 6 11 8 4 2 5 2h1q2 1 6.5 1t6.5-1h1q2 0 4-2 7-1 12-8l4-4 3-6q3-6 3-11.5t-.5-7.5-2.5-6l-3-5v-1l-4-4q-3-3-5-4t-4-3l-5-2-5-1h-10l-3 1zM842 0H176q-33 0-56 23.5T97 80v840q0 33 23 56.5t56 23.5h647q33 0 56.5-23.5T903 920V61q0-26-17.5-43.5T842 0zm-7 556v364q0 5-3.5 8.5T823 932H176q-5 0-8-3.5t-3-8.5V80q0-5 3-8.5t8-3.5h489q11 0 24.5 6.5T710 89l16 18q20 24 30 35 28 32 41 48l18 21q8 8 14 24.5t6 27.5z"/></svg>