<svg xmlns="http://www.w3.org/2000/svg" viewBox="-10 0 1010 1000"><path d="M842 0H176q-33 0-56 23.5T97 80v840q0 33 23 56.5t56 23.5h647q33 0 56.5-23.5T903 920V61q0-26-17.5-43.5T842 0zm-7 556v364q0 5-3.5 8.5T823 932H176q-5 0-8-3.5t-3-8.5V80q0-5 3-8.5t8-3.5h489q11 0 24.5 6.5T710 89l16 18q20 24 30 35 28 32 41 48l18 21q8 8 14 24.5t6 27.5zm-295 21q-2-1-2-4v-16q0-2 2.5-4t10.5-6q4-3 14-9l9-5-9-26q-1-2-2-3h-3q-22 2-35 4-2 0-5-3l-10-13q-1-2 0-4 4-5 5-11l11-25q-6-4-18-13l-5-3q-3-1-5 1l-27 23q-1 3-5 1l-15-5q-3 0-4-4l-6-30-2-7h-31l-9 37q0 4-3 4l-7 2q-6 2-8.5 3t-4.5-1l-28-24h-1q-2-1-2 0l-24 16 15 36q1 2 0 5-5 5-8 10t-9 4l-33-3-4 1-9 28 3 2q15 9 31 17 2 2 2 5v15q1 3-2 5-20 12-30 17l-4 3 9 25q1 4 5 3l35-3q3 0 5 3t8 11q3 3 1 6l-15 35 24 16q1 1 3 0h1l27-24q1-1 5-1l3 1q7 3 11 4t5 4q3 15 8 37h31l9-37q0-3 4-4 7-1 14-5 4 0 6 1l27 24q0 1 3 1l24-17q-10-24-16-35-1-3 1-5v-1q4-4 8-10 2-4 9-4l33 3q2 0 4-2l9-26-4-3q-10-5-30-17zm-119 37q-20-1-34.5-15.5t-13.5-35 16-34.5 37-13q19 0 33.5 15t14 35.5T458 601t-37 13zm181-158 3 12 2 12h21q4-16 5-24 1-2 3-3l10-3q2 0 3 1l18 15q0 1 2 1 7-6 16-11-3-6-7-17l-3-6q-1-2 0-4 4-4 5.5-6.5t5.5-2.5l22 2 2-1 6-18-22-13q-2 0-2-2v-11l1-1q0-1 1.5-2t4.5-2l17-10-6-17q0-2-3-2l-23 2q-2 0-3-1l-6-9q-1-1 0-2l6-14q3-6 4-10l-15-10q-2-1-3 0l-18 15q-1 1-3 1l-10-3-1-1q-1-1-1-2l-6-24h-20q-3 13-6 24 0 3-2 3l-10 3q-2 0-3-1l-18-15h-1q-1-1-2 0l-15 10 10 23q1 1 0 3v1q-4 4-5.5 6.5T550 345q-14-2-22-2-2 0-2 1l-7 18q1 0 2 1l21 11q1 1 1 3v10q0 3-1 3l-21 12q-1 1-2 1l6 17q1 2 4 2 14-2 22-2 3-2 3 1l6 8q1 1 1 4-2 4-6 13l-5 10q6 3 16 11 2 0 3-1l17-15q1-1 4-1l10 3q2 1 2 3zm-17-74q1-14 10.5-23t23-8.5 23 10 9 23T640 406t-23.5 8.5-23-10T585 382zm126 183q4-2 5-3l11-6-4-11q0-2-3-2l-15 2q-2 0-3-1-2-4-4-6v-1q-1 0 0-1l7-16-11-8q0-1-1 0h-1l-12 11q-1 1-2 0-3 0-7-2-1 0-2-1l-3-17h-15v3q-2 9-4 14 0 1-1 1l-2 1q-4 1-5 1.5t-3-.5l-12-11h-1l-4 3q-5 3-7 5 4 10 7 16 0 1-1 2l-3 5q-1 2-4 2l-15-2q-2 0-2 1l-4 12 1 1 14 8q1 1 1 2v7q1 1 .5 1.5t-1.5.5q-6 4-13 8l-2 1 4 12q0 1 2 1l16-1q2 0 2 1 3 3 4 4.5t1 3.5q-4 6-7 16l11 7h1l14-11q0-1 1 0l7 2q1 0 1 1l1 1 3 17h15l3-17 1-1q0-1 1-1l7-2q1-1 1 0h1q3 3 11 9l2 2h1l11-7-7-17v-2q3-3 4-5t4-1l15 1q1 0 2-1 2-8 4-12-1-1-2-1-6-5-13-8l-1-1q-1 0-.5-1t.5-3.5-.5-3.5.5-1zm-54 28q-9 0-15.5-7t-6-16.5 7-15.5 16.5-5.5 16.5 7 6 16T674 587t-17 6z"/></svg>