<svg xmlns="http://www.w3.org/2000/svg" viewBox="-10 0 1010 1000"><path d="M575 444q32-1 54-22.5t22-53.5-22.5-55-54.5-23.5-55 23.5-22 56 23.5 53.5T575 444zm67 104q-7-9-17.5-9T607 549q-5 9-15 23-7 10-17.5 11t-18.5-8q-23-27-67-77-8-9-19.5-9t-19.5 9l-32 40q-8 10-18.5 12.5t-17.5-3-15-5.5-12.5 6-11.5 3.5-12-10.5q-8-14-12-20-6-11-9-8l-48 92q-13 24-18 35-2 4-4 18-2 16-1 29 2 16 10 22 61 1 203 1l292 1q12-1 15-7.5t-4-16.5l-33-41q-52-65-80-98zM842 0H176q-33 0-56 23.5T97 80v840q0 33 23 56.5t56 23.5h647q33 0 56.5-23.5T903 920V61q0-26-17.5-43.5T842 0zm-7 556v364q0 5-3.5 8.5T823 932H176q-5 0-8-3.5t-3-8.5V80q0-5 3-8.5t8-3.5h489q11 0 24.5 6.5T710 89l16 18q20 24 30 35 28 32 41 48l18 21q8 8 14 24.5t6 27.5z"/></svg>