<svg xmlns="http://www.w3.org/2000/svg" viewBox="-10 0 1010 1000"><path d="M735 246H265q-6 0-6 6v49q0 6 6 6h26q7 0 7 6v291q0 6 6 6h158q6 0 6 5v95q0 6-6 6h-40q-2 0-4 2t-2 5v26q0 2 2 3.5t4 1.5h156q2 0 4-1.5t2-3.5v-26q0-3-2-5t-4-2h-40q-6 0-6-6v-95q0-6 6-6h158q7 0 7-6V312q0-2 1.5-4t3.5-2h27q6 0 6-6v-48q0-6-6-6zM365 367q0-2 2-3.5t4-1.5h83q3 0 4.5 1.5t1.5 3.5v86q0 6-6 6h-83q-6 0-6-6zm269 150q0 2-2 4t-4 2H371q-2 0-4-2t-2-4v-22q0-2 2-4t4-2h257q2 0 4 2t2 4zm0-64q0 6-6 6H501q-6 0-6-6v-21q0-2 2-4t4-2h127q2 0 4 2t2 4zm0-63q0 2-2 4t-4 2H501q-2 0-4-2t-2-4v-22q0-2 2-4t4-2h127q2 0 4 2t2 4zM842 0H176q-33 0-56 23.5T97 80v840q0 33 23 56.5t56 23.5h647q33 0 56.5-23.5T903 920V61q0-26-17.5-43.5T842 0zm-7 556v364q0 5-3.5 8.5T823 932H176q-5 0-8-3.5t-3-8.5V80q0-5 3-8.5t8-3.5h489q11 0 24.5 6.5T710 89l16 18q20 24 30 35 28 32 41 48l18 21q8 8 14 24.5t6 27.5z"/></svg>