<svg xmlns="http://www.w3.org/2000/svg" viewBox="-10 0 1010 1000"><path d="M440 491h119q24 0 41.5-17.5T618 431V318q0-23-17-40t-42.5-21.5T497 252q-29 0-57 5-36 6-48 21-11 13-11 40v45h118v15H337q-27 0-47 15.5T263 438q-8 35-8.5 61t8.5 60q6 28 22 44t41 16h40v-54q0-29 22-51.5t52-22.5zm-7-158q-9 0-15.5-6.5t-6.5-16 6.5-16T433 288t15.5 7 6.5 16-6.5 15.5T433 333zm244 45h-45v53q0 31-22 53t-51 22H440q-24 0-41.5 18T381 566v113q0 22 18 39 15 13 41 21 30 9 57 9 30 0 62-9 59-18 59-60v-45H500v-15h177q24 0 38-17 11-12 21-43 9-28 9-56.5t-9-64.5q-14-60-59-60zM566 664q9 0 15.5 6.5T588 686t-6.5 16-15.5 7-15.5-6.5-6.5-16 6.5-16T566 664zM842 0H176q-33 0-56 23.5T97 80v840q0 33 23 56.5t56 23.5h647q33 0 56.5-23.5T903 920V61q0-26-17.5-43.5T842 0zm-7 556v364q0 5-3.5 8.5T823 932H176q-5 0-8-3.5t-3-8.5V80q0-5 3-8.5t8-3.5h489q11 0 24.5 6.5T710 89l16 18q20 24 30 35 28 32 41 48l18 21q8 8 14 24.5t6 27.5z"/></svg>