<svg xmlns="http://www.w3.org/2000/svg" viewBox="-10 0 1010 1000"><path d="m756 492 6-34q1-10-4-16.5t-14-6.5H259q-9 0-14 6.5t-4 16.5l6 34q1 9 8 15t15 6h463q8 0 15-6t8-15zm-37 81H284q-8 0-12.5 5.5T268 592l4 29q2 8 8 13t14 5h416q8 0 14-5.5t7-12.5l5-29q1-8-4-13.5t-13-5.5zm207 115q-12-14-30-14H104q-18 0-29 14-6 6-8.5 14.5T66 719l31 219h806l32-219q2-19-9-31zm-758-39-41-273q0-26 18-43.5t43-17.5h622q26 0 43.5 17.5T871 376l-37 270h55l36-270q0-32-15.5-58.5t-42-42T810 260H188q-31 0-58 15.5T87.5 318 72 376l41 273zm36-432h568l10-43q2-7-3.5-12.5T767 156H208q-6 0-10.5 6t-3.5 13zm56-94h456l8-43q0-8-4-12-3-6-11-6H266q-6 0-11 5.5T252 80z"/></svg>