<svg xmlns="http://www.w3.org/2000/svg" viewBox="-10 0 1010 1000"><path d="M612 540q14 0 23.5-9.5t10-23.5-9.5-24.5-24-10.5-24.5 10-10 24.5 10.5 24 24 9.5zm-1-259L239 437l120 282h401V413h-94zM359 671l-96-226 337-141 46 109H359zm383 16-61-77q-4-5-10-5t-10 6l-3 4q-4 6-6 8-4 6-10 6.5t-10-4.5l-38-44q-4-5-10.5-5t-11.5 5l-19 23q-4 5-10 6.5t-10-2-8.5-3.5-7 3.5-6 2.5-6.5-6q-2-2-4-8l-3-4q-1-2-3-4l-2-1-38 72q-1 3-2.5 3.5t-4.5.5q-20-6-40.5-.5T377 687V430h365zM842 0H176q-33 0-56 23.5T97 80v840q0 33 23 56.5t56 23.5h647q33 0 56.5-23.5T903 920V61q0-26-17.5-43.5T842 0zm-7 556v364q0 5-3.5 8.5T823 932H176q-5 0-8-3.5t-3-8.5V80q0-5 3-8.5t8-3.5h489q11 0 24.5 6.5T710 89l16 18q20 24 30 35 28 32 41 48l18 21q8 8 14 24.5t6 27.5z"/></svg>