<svg xmlns="http://www.w3.org/2000/svg" viewBox="-10 0 1010 1000"><path d="M110 95v810q0 13 10 23t23 10h714q14 0 23.5-10t9.5-23V95q0-14-9.5-23.5T857 62H143q-13 0-23 9.5T110 95zm98 775q-13 0-23-10t-10-23v-1q0-14 10-23.5t23-9.5 22.5 9.5T240 836v1q0 14-9.5 23.5T208 870zm0-135q-14 0-23.5-9.5T175 703v-2q0-14 10-23.5t23-9.5 22.5 9.5T240 701v2q0 13-9 22.5t-23 9.5zm0-134q-13 0-23-10t-10-23v-2q0-14 10-23.5t23-9.5 22.5 9.5T240 566v2q0 14-9.5 23.5T208 601zm0-135q-14 0-23.5-9.5T175 433v-1q0-14 10-23.5t23-9.5 22.5 9.5T240 432v1q0 14-9 23.5t-23 9.5zm0-134q-13 0-23-10t-10-23v-2q0-14 10-23.5t23-9.5 22.5 9.5T240 297v2q0 14-9.5 23.5T208 332zm0-135q-13 0-23-10t-10-23v-1q0-14 10-23.5t23.5-9.5 22.5 9.5 9 23.5v1q0 14-9.5 23.5T208 197zm454 673H338q-13 0-23-10t-10-23V566q0-14 10-23.5t23-9.5h324q14 0 23.5 9.5T695 566v271q0 13-9.5 23T662 870zm0-404H338q-14 0-23.5-9.5T305 433V163q0-14 10-23.5t23-9.5h324q14 0 23.5 9.5T695 163v271q0 13-9.5 22.5T662 466zm130 404q-13 0-22.5-9.5T760 837v-1q0-14 9.5-23.5t23-9.5 23 9.5T825 836v1q0 13-9.5 23T792 870zm0-135q-13 0-22.5-9.5T760 703v-2q0-14 9.5-23.5t23-9.5 23 9.5T825 701v2q0 13-9.5 22.5T792 735zm0-134q-13 0-22.5-9.5T760 568v-2q0-14 9.5-23.5t23-9.5 23 9.5T825 566v2q0 13-9.5 23T792 601zm0-135q-14 0-23-9.5t-9-23.5v-1q0-14 9.5-23.5t23-9.5 23 9.5T825 432v1q0 14-9.5 23.5T792 466zm0-134q-13 0-22.5-9.5T760 299v-2q0-14 9.5-23.5t23-9.5 23 9.5T825 297v2q0 13-9.5 23T792 332zm0-135q-13 0-22.5-9.5T760 164v-1q0-14 9.5-23.5t23-9.5 23 9.5T825 163v1q0 13-9.5 23T792 197z"/></svg>