<svg xmlns="http://www.w3.org/2000/svg" viewBox="-10 0 1010 1000"><path d="M342 710q-24-2-44-22-16-15-28-41-10-18-16-39l-5-18-2 27q-1 33 3 66 5 47 18 87 17 50 46 86 35 43 86 66-15-28-14.5-61.5T401 801q14-23 19-44 4-18 2-34-2-11-6-21l-4-7q30 11 42 30 11 15 10 36-1 14-7 29l-6 13 8-3q9-3 16-9 9-8 14-20 5-14 2-33-3-22-18.5-49T452 637q-4-20-1-39 3-15 10-27 6-9 13-16l6-5-4 7q-3 9-4 20-1 16 4 33 7 21 22 43 19 26 50 53l36 158q15-2 27-17 9-11 15-27l4-14 1 13q0 17-2 34-3 23-10 43-10 24-25 42 42-12 74-38 30-24 50-58 35-59 35-131.5T720 583l-2-4q-27-44-35-84-7-29-6-56 1-21 7-41 4-14 11-26l5-9q-60 21-87 60-22 31-22 72 0 22 7 46 5 17 12 33l7 13-12-4q-14-5-26-14-18-12-29-28-14-20-17-46-7-60 41-145 21-36 32-70 11-30 14-59 3-26 0-50-3-21-10-40-6-16-15-30-8-11-17-21-6-7-13-13l-5-4 3 6q4 7 7 16 4 13 5 27 2 18 0 37-3 23-12 47-9 27-27 55-19 31-47 63-31 35-72 71-66 58-96 110-22 38-28 74-5 31 2 60 5 23 17 44 9 15 20 28z"/></svg>