<svg xmlns="http://www.w3.org/2000/svg" viewBox="-10 0 1020 1000"><path d="M912 243H763q-7 0-12-5.5t-5-12.5V79q0-8-5-13t-13-5H272q-7 0-12.5 5T254 79v146q0 8-5 13t-12 5H88q-37 0-62.5 25.5T0 330v498q0 36 25.5 61.5T88 915h42v5q0 7 10.5 12.5T165 938h142q14 0 24.5-5.5T342 920v-5h330v5q0 7 10.5 12.5T707 938h142q14 0 24.5-5.5T884 920v-5h28q37 0 62.5-25.5T1000 828V330q0-36-25.5-61.5T912 243zm-508-79q0-8 5-13t12-5h158q8 0 13 5t5 13v61q0 7-5 12.5t-13 5.5h-37v-1q0-7-5-12t-12-5h-50q-7 0-12.5 5t-5.5 12v1h-36q-7 0-12-5t-5-13zm230 456q0 3-2.5 5.5T625 628h-71q-4 0-6.5 2.5T545 637v71q0 8-8 8h-60q-3 0-5.5-2t-2.5-6v-71q0-4-2.5-6.5T460 628h-71q-4 0-6-2.5t-2-5.5v-60q0-4 2-6.5t6-2.5h71q4 0 6.5-2t2.5-6v-71q0-4 2.5-6.5t5.5-2.5h60q4 0 6 2.5t2 6.5v71q0 4 2.5 6t6.5 2h71q4 0 6.5 2.5t2.5 6.5z"/></svg>