<svg xmlns="http://www.w3.org/2000/svg" viewBox="-10 0 1010 1000"><path d="M624 319q-3 3-10 4h-21q-2 4-4 14-2 12-5 17 9 7 35 13 16 4 22 6 12 5 18 11 14-5 18-15 3-5 3-18 0-11 1-16 2-9 9-16 22-3 34 9 8 7 17 26l2 4q-4 4-12 4-5 1-16 .5t-16-.5q-4 4-10 15-5 8-8 12 4 8 17 19 7 6 11 10 5 6 7 14 70-18 142-30 5-6 10-21 4-12 7-17 6-8 14-10 24 4 36 25 10 17 12 49-9 15-25 17.5t-31.5-5T858 419q-61 9-133 26-1 4-1 19 1 27-3 37 11 8 22 6 6-2 17-9 8-5 13-7 7-4 14-3 8 8 9.5 26.5T792 546q-7 14-23 12-12-1-17-13-4-9-5-26-8 2-16-2-6-3-10-3-9 5-23 20-18 19-30 24 1 15 12 20 6 3 22 3 12 0 17 1 10 1 15 6-1 23-17 33-14 9-40 11v-16q0-18-3-25-4-13-19-20-11 1-21 6-6 3-17 9-20 12-33 15-1 11 6 24l3 7q3 2 14.5 1t17.5 0q9 1 12 7 0 16-12.5 28.5t-29.5 16-29-5.5q-1-9 3-15 2-4 7.5-9.5t7.5-9.5q-7-7-15-27l-3-8-12 5q-23 10-35 14-21 6-41 7 0 4-3 10-4 8-2 16 0 6 2.5 8t8.5 4 8.5 4 2.5 6q4 18-10 27.5t-32.5 6.5-23.5-17q0-8 3-14 3-3 10-9t9-11q4-9 0-22-10-4-38-6-15 0-23-1-11-2-18-6-7 2-12 12.5T350 658q1 5 6 11 4 5 6 8.5t1 10.5q-15 6-31.5 4t-27-12-7.5-27q5-6 12-8 5-2 15-3 12-2 17-4 9-5 13-15l-6-7q-16-18-22-28-11-16-16-34-28 6-59 16-19 7-55 20-44 17-67 24-2 5-5 16t-5 16q-3 8-8 12-13 3-26 1l-14-1q-9-14-8.5-34.5t9.5-36T98 571q7-1 10 1t6 7q4 9 10 9 32-8 91-26.5t90-25.5q-3-21 5-44 4-13 17-36 11-19 12-26 2-11-11-15t-49-1q-6-18-2-33.5t14.5-24T315 349t18 12q3 6 4.5 21t3.5 21q3 11 13 16 9-5 26-17.5t26-18.5q16-8 32-12 2-9-2-20-2-6-2.5-10t-4.5-4.5-11-.5-10.5-.5-4.5-3.5v-31q11-10 32.5-8.5T464 306q3 13-3 18.5t-19 7.5q1 8 8 18l6 12q15-6 38-8 14-1 45-1h27q7-6 9-26 1-5-1.5-7t-8-3-8-3-.5-8q2-21 18.5-24t32.5 9 16 28zm35 196q10-6 13-24 1-11 0-36v-23q-19-16-35-6.5T616 457t5 39q11 19 38 19zm-194 47q20 3 42.5-8.5t37-31T557 484t-23.5-35-50-21.5-49 4.5-26.5 31q-4 19 3 41.5t22.5 39T465 562z"/></svg>