<svg xmlns="http://www.w3.org/2000/svg" viewBox="-10 0 1010 1000"><path d="M689 62q-40 0-69 27t-32 67l-27 376q-1 12 3.5 24t12.5 21q17 19 43 19h2l-9 294q-1 19 13 34 12 13 33 13h39q19 0 33-13.5t14-32.5V118q0-23-16.5-39.5T689 62zm-222 1h-4q-7 0-12 4.5T446 80v165q0 11-8 19t-19 8h-4q-11 0-19-8t-8-19V79q0-7-5-11.5T371 63h-3q-7 0-12 4.5T351 79v166q0 11-8 19t-19 8h-4q-11 0-18.5-8t-7.5-19V79q0-7-5-11.5T276 63h-3q-8 0-13 4.5T255 79v251q0 23 16.5 39t39.5 16h8l-16 505q-1 19 12.5 33t33.5 14h37q21 0 34-13t13-34l-16-505h11q23 0 39-16t16-39V79q0-7-4.5-11.5T467 63z"/></svg>