<svg xmlns="http://www.w3.org/2000/svg" viewBox="-10 0 1010 1000"><path d="M938 546v79q0 15-11 25.5T902 661h-39q-5-36-33-60t-64.5-24-64.5 24-33 60H342q-5-36-33-60t-65-24-64.5 24-32.5 60H99q-15 0-25.5-10.5T63 625v-79zM310 354h-21l-7 39h20q10 0 17-6.5t7-18.5q0-14-16-14zm530 322q0 31-21.5 52.5T766 750t-53-21.5-22-53 22-53 53-21.5 52.5 22 21.5 53zm-37 0q0-16-11-27t-26.5-11-26 11-10.5 26.5 10.5 26.5 26 11 26.5-11 11-26zm-484 0q0 31-22 52.5T244 750t-52.5-21.5T170 676t21.5-53 52.5-22 53 22 22 53zm-38 0q0-16-10.5-27T244 638t-26.5 11-10.5 26.5 11 26.5 26 11 26-11 11-26zm657-150H63V286q0-15 10.5-25.5T98 250h543q15 0 25.5 10.5T677 286v26h72q19 0 33 14l141 140q14 14 14 34zM190 389l7-35h49l3-19h-71l-24 124h22l10-50h42l3-20zm131 17zq14-4 21-15.5t7-25.5q0-10-4-17t-12.5-10-17.5-3h-44l-24 124h22l9-46h23l15 46h24l-16-46zm138-71h-74l-25 124h77l4-20h-54l6-33h42l4-19h-42l6-33h52zm100 0h-74l-24 124h77l3-20h-54l6-33h42l4-19h-42l6-33h52zm307 126L755 355q-1-1-4-1h-26q-5 0-5 5v106q0 5 5 5h137q4 1 5-3t-1-6z"/></svg>