<svg xmlns="http://www.w3.org/2000/svg" viewBox="-10 0 1010 1000"><path d="M599 873q-10-4-18-16-6-8-11-11-1 8-1 23 0 19-1 28-3 15-12 26-5-4-12-15.5T532 892q-3 3-2.5 9.5T528 911q-4 2-7.5 0t-8-6.5-8.5-5.5q-5 7-8 21l-2 9q-2 7-5.5 8t-6-1-2.5-4q-1-12-14-30-8-12-11-18-4-11-3-21-4 0-5.5 1.5T444 870q-2 7-7 7l-5-21q-1-2-1-6t-.5-6-4-3-6 4.5-5.5 6.5q-5-5-2-15l1-3q4-10 2.5-19.5T409 795q-22-39-21-85 1-34-16-77-21-52-31-90-13-49-13-94 0-60-57-78-39-13-56-47-11-24-14-69-1-10 5-11t13 2q17 6 47 26 35 24 71 53 9 6 16 6t14-7l3-2q3-1 2-3-4-9-1-17 2-5 10-13 5-6 7-9 10-14 2-43-21-89-101-156-10-8-18-14 23-2 55.5 12t55.5 36q36 36 61 102l6 16q10 28 19 39 16 25 36 25.5t37-24.5q5-8 13-27l12-28q19-47 33-69 24-37 59.5-57.5T743 63q-73 56-106 121-20 40-20 70v6q-1 12 1 17 3 9 13 13 6 3 2 14-5 8-2.5 13.5T642 330q7 5 13 4 4-1 10-6l25-19q51-42 80-59l3-2q7-4 10-5 6-2 10.5.5t5.5 9.5q0 3-1 11l-1 5q-4 39-19 63-17 29-52 42-47 18-47 83 1 40-11 87-7 30-26 84-18 50-21 101v2q-3 14-11 40-9 32-12 49-4 28 1 53zm35-434q23 0 24-17 1-6-4-11.5t-12-5.5q-16 1-23 26-1 5 1.5 6t7 1 6.5 1zm-268 0q1-1 6-1t7-1 1-7q-6-23-21-25-7-1-13 4.5t-5 13.5q2 16 25 16zm113 295q-5-16-23-41-12-19-17-29-1 22 11 40 9 13 29 30zm37 5q52-39 42-82-3 12-9 24-4 7-13 20-15 23-20 38zm17 53q-16 9-34 9-15-1-34-8 22 17 36.5 16.5T533 792z"/></svg>