<svg xmlns="http://www.w3.org/2000/svg" viewBox="-10 0 1020 1000"><path d="M999 979q2-75-8-138-8-49-30-81-25-35-69-52l-7-3q-29-13-67-26-23-7-69-20l-82-24 1 10q2 30 1 45-1 25-9 44-51 122-149 192-6 4-11 4t-11-4q-96-68-149-192-7-17-9-46 0-36 2-53h-3q-95 28-161 49T59 737q-21 17-30 39-17 41-22 78l-6 52v84q-1 6 1 8t8 2h989zM259 520q33 1 99-3 39-2 59-5 0-2-2-4l-1-2q-61-72-69-180-1-4 .5-6t6.5-3q10 0 24-4 57-18 97-50 42-34 67-86 3 10 11 28 30 59 96 76 5 1 7 3.5t2 7.5l-1 20q0 19-1 29-11 100-68 165l-1 2q-2 2-1 4l33 4 21 1q72 4 109 2 8 0 11-8 25-51 30-109 12-113-35-223Q710 76 619 21 573-7 525 7q-4 1-12-1-57-15-110 7-80 34-129 115-59 97-64 218-3 89 29 160 6 14 20 14zm289 127q-25 23-62 17-20-3-34-17-4-4-9-4.5t-9 3.5-4 8.5 4 9.5l3 3 2 2q23 22 61 22 9 0 13-1 35-5 53-26 4-5 4-9.5t-4-8.5-9-3.5-9 4.5z"/></svg>