<svg xmlns="http://www.w3.org/2000/svg" viewBox="-10 0 1010 1000"><path d="M738 65q-28 17-60 22-26 4-58-1-18-3-54-11-31-8-45-10-73-10-132 16-53 23-86 71-30 45-34 101.5T289 362q27 54 81 89-23 12-31 51-8 37 2 72 11 38 36 47-43 5-73 36-26 28-36 69.5t-2 82.5 32 67q28 31 85 47 52 15 114.5 14.5T612 921q55-16 81-45 24-27 34.5-70t5-85-26.5-67q-11-13-41-25-19-8-63-21-66-20-92-33-42-22-41-52 1-24 23-37 13-7 48-15 33-7 47-14 41-19 69.5-60.5t37-92T686 209l22-6q20-5 30-7zM423 340q-17-37-18-68-1-28 11-48 10-18 29-27.5t40.5-8.5 40.5 11.5 30 30 10 45.5q-1 30-18 65-24 18-63 18t-62-18zm177 412q3 33-25 54-25 18-64.5 22t-72.5-8q-34-12-42-36-9-27-5-43t21-26q14-8 44-16 33-9 64-7 34 1 54 15 24 15 26 45z"/></svg>