<svg xmlns="http://www.w3.org/2000/svg" viewBox="-11 0 1021 1000"><path d="M997 317q5-5 1.5-11t-9.5-7l-91-5q28-71 55-134 3-8-3.5-13.5T936 148q-52 46-104 95l-7 5q-3-4-10-10l-2-2q-8-13-32-37l-14-14q-4-4-10.5-2t-7.5 7l-7 46q-1 6-3.5 17.5T736 269q0 6 6 6-11 1-32-5-12-4-37-13-20-8-27.5-10t-11 5.5T636 265l54 59q4 5 9.5 3t7.5-7.5-2-10.5l-29-32 67 18q4 1 8-1t5-7l11-71 5 5q30 34 45 50 3 4 7.5 3.5t7.5-3.5l84-76-43 103q-2 6 .5 11t9.5 5l81 5-66 60q-4 3-3.5 8t3.5 7q28 30 43 45l-47-16q-6-2-10 2.5t-2.5 10.5 7.5 8l87 28q7 3 10.5-5t-1.5-13l-36-37q-4-4-11-13-9-12-13-16-6-5-9 1 5-11 23-27 11-9 35-27 18-13 23-18zm-76 508h-30.5l-31.5 1q-8 0-11-2.5t-3-11.5q1-138 1-415 0-25-8-33t-33-8H205q-56 0-83 1-29 0-31 31v64q0 239 1 359 0 8-3 11.5t-12.5 3T46 825t-31-.5T3 827t-3 11v3q-1 9 3 12t12 3h604q201-1 302 0 10 0 13-3.5t3.5-13-3.5-12-13-2.5zM788 432q-7-6-18-17 11-2 14.5-2t4 3.5-.5 15.5zm-16 4 6 6q6 5 8 8 3 6 2 12 2 7-2 12-2 3-8 9l-5 4q-9 10-13 12t-7.5.5T740 489l-1-1-9-9q-13-10-13.5-16t3.5-11q3-3 9.5-8t8.5-7q9-11 13-13.5t8 0 13 12.5zm17 54v46l-10-9q-9-8-11.5-11.5t0-6.5 11.5-10zm-45-77-14 14q-15 16-23 23-3 3-6-1l-1-1q-11-10-36-35zm-91 8q4 2 5 3l34 34q3 3 2 5t-4 5l-10 10-21 21q-3 3-5.5 3.5T648 499l-32-32q-6-5-1-10l33-33q1-1 5-3zm-12-7q-24 24-35 36-4 3-8-1-10-10-31-30l-6-5zm-88 7 1 2 3 3q6 5 18 17 10 11 12.5 15t0 8-13.5 15q-13 13-18 16.5t-10 0-18-16.5q-11-11-13.5-15t0-8 13.5-15q5-6 16-17l1-1q4-4 8-4zm-89-7h70l2 3q-22 20-33 31-4 4-10-1l-31-30zm-102-1h71q-8 11-25 27l-8 8q-1 2-3 2t-4-2q-18-15-34-31zm-12 10q18 17 35 35l2 3q-4 4-5 6l-21 21-10 10q-3 3-5.5 3.5T340 498q-20-20-31-30-3-4-3.5-6.5t3.5-5.5l11-11 21-21q3-3 4.5-3.5t4.5 2.5zm-90-9h74q-24 24-36 35-3 3-8-1-22-20-33-31zm-6 15q4 4 12 11l7 7q10 10 10 13.5T273 475q-15 15-23 22-4 4-7 6l-9-9-11.5-10-11.5-10q-6-7-6-12t4-11q3-3 11-10 10-8 13-12 6-7 11-7t10 7zm-26-15 3 4q-22 20-34 30-4 4-8 0l-5-5q-20-17-29-29zm-79 16q1 0 2 1l2 1q19 17 23 23 5 9-2 17-4 7-25 23zm-1 307 4-4 27 30q3 3 2.5 5t-5 6.5T162 790l-14 14zm78 88q-16 1-51 0h-29q16-16 42-44 3-2 5-1.5t4 2.5l1 1 21 21 11 11q4 4 3 7t-7 3zm17-15q-3-1-4.5-3t-4.5-5.5-12-10.5-12-11q-6-6-5-11.5t7-12.5q4-4 13-12t12.5-11.5 6-4 6.5 3.5q10 11 30 31l1 1q3 3 3.5 5t-2.5 4q-7 8-23 23l-12 12zm92 12q-1 3-7 3h-65q-7 0-8.5-3.5t2.5-6.5l11-11 21-21q3-3 5-3.5t6 3.5l21 21 12 12q4 3 2 6zm-25-47q-7-5-3-9 12-13 38-37 0-1 2 0h2q20 22 32 33 10 8-1 16l-1 1q-11 10-32 31-10-8-28-26zm126 47q-1 3-5 3h-67q-6 0-7.5-3t2.5-6l33-34q5-5 9 1l11 11 21 21 1 1q4 3 2 6zm103 0q-2 3-8 3h-65q-7 0-8-3t4-6q22-22 32-34 3-2 5-2t5 3l21 21 11 11q4 4 3 7zm5-17q-4-4-13.5-12T518 781q-6-7-5.5-13t7.5-14q4-4 14-13l12-10q6-6 9-1 12 11 36 35l2 4-15 15-21 21q-4 4-6.5 4t-6.5-4zm98 16q-1 4-10 4h-62q-7 0-8-3.5t3-6.5l1-1q20-20 29-30 7-8 13.5-.5T628 803l11 11q5 4 3 7zm6-15q-15-16-31-31-7-7 0-13l10-10q13-12 19-19 4-4 7-4t7 4q9 10 29 28 3 3 5 7 0 2-1 3l-13 13q-16 17-25 25-3 2-6-2zm96 15q-1 3-2.5 3.5t-5.5.5h-64q-6 0-8-3t2-6l1-1q21-21 31-32 7-7 12 0l10 10 21 21 1 1q4 3 2 6zm45-7q-1 8-7 11t-13-1q-3-2-3-4t3-5l4-4q4-4 12-14l4 2zm-19-18q-2 2-5 6-7 7-9.5 7t-10.5-9l-4-4q-2-2-9-7-8-7-11-10-5-6-4.5-11.5T722 757q3-3 11-9l9-8q10-11 13.5-11t13.5 11l5 5q8 6 10 10 5 7 5 14t-3 13q-3 3-9 8zm9-111q-12 12-7 22 3-1 7.5-5.5t7.5-5.5q2 10 1 30v13q-6-2-12-10l-4-4q-17-15-32 0-18 16-26 25-6 6-10 6.5t-9-5.5q-7-9-25-25-16-18-34 0l-7 7q-13 13-19 20-4 4-7.5 4t-8.5-4q-6-8-20-21l-7-7q-8-7-16-7.5t-15 6.5l-27 27q-10 12-19-1-7-7-10.5-10t-10.5 1l-1 1q-3 3 1 7l2 1q10 12 12.5 16.5t0 8.5-13.5 15q-12 12-17 15t-10 0-18-16l-1-1q-9-9-11.5-13t-1-8.5T421 751q-6-2-10.5-1.5T403 754q-7 9-13 0-9-11-34-22l-7-4q-5-7-10-7.5t-11 6.5q-3 3-10 12t-11 13q-7 5-12.5 5t-12.5-6q-4-4-11-13l-10-11q-10-10-19-9.5T223 728q-16 16-24 25-4 4-7 4t-7-4q-15-17-30-30-4-4-4-6.5t4-5.5l24-24q7-5 0-12-3-2-4.5-1t-3.5 4l-1 1q-13 13-21 23v-67q5 1 10 7.5t9 8.5q0-13-1.5-16.5T157 624q-5-5-5.5-9t5.5-8q14-10 18-38l-22 29-5-3v-61l5-4 24 29q2 3 4 3.5t5-1.5q6-6-1-11l-10-10q-12-13-19-19l-1-1q-3-4-3.5-6.5t3.5-5.5l21-21 10-10q3-4 6-3.5t7 4.5q16 18 26 26 6 5 6 9.5t-7 9.5l-2 1q-6 5-8 10l13-4q11-4 17-5 9-2 18 0-8-7-7-12.5t9-11.5q5-4 14-14t13-12.5 8 0 14 12.5q1 3 4 4 11 11 13.5 15.5t0 9T318 531l-1 1q-3 2-4 3.5t2.5 4 5.5 2.5 5-3q42-40 62-61 5-5 8.5-5.5t8.5 4.5l5 5q7 8 11 10 8 4 19 1-10-10-28-26-9-6 0-13 20-20 29-30 4-3 6.5-3.5t5.5 3.5l21 21 10 10q4 4 4 6.5t-4 5.5q-7 6-21 19l-11 10q7 6 12 5.5t10-5.5q3-3 8.5-9.5t8.5-9.5q5-4 10.5-3t17.5 15l7 8q2 0 2 2 11 10 11 13.5T528 527q-3 4-6 7t-2.5 5 3 5 6.5-1q1 0 1-1v0q9-11 17-15 11-4 24 2l-1-2q-6-12-5.5-16t10.5-13q3-3 8.5-10t8.5-10q5-4 9.5-4t9.5 4q3 3 9 9.5t9 9.5q0 1 1 1l1 1q9 7 10.5 13.5T632 527q22-3 45 1-12-9-11.5-15.5T676 499q11-10 18-19 6-7 10.5-6.5T715 480q3 4 10 11 12 12 15 17t0 10-16 18q-9 9-10 12.5t3 15.5l31-35q4-5 7.5-5t7 4 11 11 10.5 11q11 12 1 27 0 2-2 2-4 3-10 10.5t-8 9.5q-5 4-9 4t-9-4q-3-3-9-9.5t-9-9.5l-5-5q-6-6-10-8-5 10 4 19 12 12 18 19 5 2 5 5 1 10 7 13 3 1 11.5.5t11.5.5q-3 13 8 23.5t11 19-11 18.5zm9-49q-4-1-9-6t-8-6q-4-5-4.5-9t5.5-8q3-2 7-7t6-7q4 12 3 34zM424 533q-37-1-64 25t-28 63 25.5 64 63.5 27.5 64-25.5 27-63q0-24-11.5-45t-32-33.5T424 533zm2 13q1-4 6-3h2q25 4 45 23-29 1-49-14h-1q-4-2-3-6zm11 48q2 3 5 9 10 16 12 24.5t-9.5 16.5-23.5 8-22.5-9-10.5-17.5 11.5-21.5 19.5-13h6q9-1 12 3zm-25-51q2-1 4-.5t3 4-5 5.5l-2 1q-13 6-20 9-12 3-24 2 16-16 44-21zm-31 26q9-2 15.5 5.5T400 591q-3 7-12 20l-6 10q-1 3-8 3h-6q-3 1-5-.5t-4-5.5l-1-2q-9-18-3-30.5t26-16.5zm-35 81q-3-10-4-23 0-9 2-25 15 22 14 46l-1 2q-1 5-4.5 6t-5.5-4zm10 18q0-1-1-2-2-3 0-4 5-3 8-1 13 7 20 14 10 9 14 23-24-6-41-30zm35 5q0-6 4-10t10-6h23q9 0 13 3l2 2q11 8 9 13-7 18-22 23-12 5-25.5-3.5T391 673zm95-1q-16 20-46 29 13-21 39-37 5-4 8-1t0 7zm11-19q-1 1-2 3.5t-4 2-5-5.5v-2q-1-21 14-49 5 32-3 51zm-13-29q-1 4-7 2h-3q-13 1-18-9l-6-10q-5-8-7-13-4-9 2-16t16-7q12-1 20 6 6 5 11 17 2 5 1 11-1 3-4.5 9.5T484 624zm-197-6h-5q-7 1-10 0-7-1-9 2.5t-2 9.5 2.5 7.5 7 .5 6-.5 4.5.5 5 .5 2.5 4.5-.5 7.5-6 6.5q-17 10-32.5 3.5T230 635q-4-14 .5-31t23.5-20q9-2 17 0t13 10q8 14 23 2 4-2 3-5.5t-5-8.5l-2-3q-10-13-29.5-16t-37.5 5-25 24q-8 18-7 36t11.5 33 27.5 20q12 3 33 .5t28.5-10.5 7.5-28q0-14-1-18.5t-5.5-5.5-18.5-1zm307-40q0-1-1-2-2-7-5-10t-10-1q-2 1-6 .5t-6.5.5-3.5 5l-40 101q-1 4-.5 6t3.5 2h5q8 1 11 0 6-2 7-10.5t6.5-12T570 654h8q13 0 18 3 9 4 12 18 1 6 10 6 5 0 12-2 3-1 3-3t-2-6l-2-4q-11-30-35-88zm-5 55q-9 5-24 1-4-1-2-6l1-2q3-9 10-28l2-5 5 12q4 9 5 14l2 4q4 8 1 10zm136 28h-37q-8 1-11-2t-2-11v-24q-1-32 0-49 0-6-2.5-8t-9-2-9.5 1.5-3 8.5q1 11 0 32v63q0 5 2 7.5t7 2.5h65q5 0 6.5-2.5t1.5-7.5q0-9-8-9z"/></svg>