<svg xmlns="http://www.w3.org/2000/svg" viewBox="-10 0 1010 1000"><path d="M417 1v25l-5 2q-77 22-115 97-21 42-29 93-14 73-7 162 5 70 24 125 23 61 64 100 43 40 104 56h3V239q0-19 2-55l1-28q1-21 8-50 11-37 41.5-66T576 4q60-13 122 16 43 20 85 62 67 70 85 169 4 23 5 50 1 17 1 51-4 117-75 215-64 89-176 120-40 12-83 15l-6 1v297h-78V703l-9-1q-118-13-199-81-84-72-110-183-16-72-10-148 8-85 47-149Q240 37 353 9q30-8 60-9 2 0 4 1zm117 660q37-5 71-18 88-35 126-120 21-50 26-110 5-71-3.5-123.5T723 189q-20-43-48-70-33-31-70-35-31-2-50 20-15 16-18 41.5t-3 74.5z"/></svg>