<svg xmlns="http://www.w3.org/2000/svg" viewBox="-10 0 1010 1000"><path d="M542 854q22 23 15.5 47T522 936l-8 1-30 1q-32 0-42.5-1t-31.5-6q-16-5-25-6.5t-13.5-6T366 904q-6-49 0-109 3-35 14-106l3-17q4-25 15-75l10-46q-8 7-11 15-12 26-16 40-2 5-4 17-3 17-8 20.5t-11 2.5q-4-1-12-5-11-6-17-6-1 0-3 1l3 5q5 8 9 12 21 23 8 54-8 17-22 51.5T302 810q-4 9-2.5 14.5T310 835q23 12 29 23.5t1 37.5q-1 14-15 17-53 9-116 3-11-1-16.5-6.5T184 894q-39-116-60-239l-3-17q-9-63-11-132-1-50 2-97l3-38q5-18 9-29 7-15 18-25 19-19 47-35 21-12 52-24 8-4 11.5-1.5T257 268v10q-1 11 1 16 2 8 12 12 2 1 1 3t-3 4q-12 10-9.5 16t17.5 9q12 2 15 10l-49-8q-19-3-13 15 13 35 37 55 12 11 25 8 30-5 43-27t3-51v-1q-3-4 0-8h6q15 8 32 5 10-2 29-11l6-3q15-9 8-18-5-8-5-16 1-5 4-15l2-5q7-20 2-27.5t-26-6.5q-24 2-36 4-44 10-79-8-13-6-14-12.5t7-15.5 17-12q14-7 18-22 16-63 60-103l3-1q4-2 10.5-1t14.5 6q85 37 146 101 34 36 50 63l-11 6q-10 6-14 9-7 6-11 12 3 2 9 0 45-27 85-9 37 16 56 64 38 99-10 188-32 59-89 121-7 9-9.5 16t.5 15q24 73-28 129-4 5-11 15-11 13-17 19-11 9-10.5 17t10.5 19zm98-135q-3 1-10 2t-11 2q-5 2-7 8-8 26-27 51-13 17-38 42-4 4-5.5 7t1.5 7l7 11q8 11 11 17 5 10 5 20 1 4 3.5 4.5t6.5-.5h4q20 0 26-5t12-24q4-11 10-35 6-15-4-23.5t-8.5-16.5 11.5-16q5-3 12-12l6-6q13-11 6-24l-1-2q-1-4-3-6t-7-1zm247 70q-13-41-36-69-21-26-28-48-9-29 3-57 3-7 4-24l1-6q2-50-21.5-74.5T736 486q-10 0-15.5 4T710 503l-5 10q-24 43-37 63-23 34-50 54-5 4-4 11 5 30 2 70l8-2q12-2 17-4 7-3 11-1t7 9l67 132q4 8 3 12.5t-10 6.5q-17 3-15 27 1 8 6 11 4 1 12 2h44q35 0 53 1 27 2 42-5 19-7 26-28 3-20 3-41 0-15-1-30zM305 280q10-5 19-2t17.5 11 15.5 8 15-7q4-4 12.5-10t12.5-9l1-1q3-3 4-5.5t-1-6.5-10-2l-11 1q-37 3-56 2-31-1-55-10-2 5 2 10 2 3 2 4 5 31 32 17z"/></svg>