<svg xmlns="http://www.w3.org/2000/svg" viewBox="-11 0 1022 1000"><path d="M998 897v-6q-3-86-12-171-8-72-19-130-7-41-45-56l-46-18q-7-2-10.5-.5T860 523q-20 44-54 72-30 24-64 44-9 4-12.5 10.5T726 666q1 76 1 228v2h-27V660q0-12-9-17-20-11-41-26-36-24-57-50-10-12-24-38l-5-9q-2-4-4-5.5t-6-.5l-16 6q-36 13-52 24-19 11-23 30-11 45-18 99-6 39-11 100-6 82-6 123v0q-1 5-1 16-1 25 24 25h525q25 0 24-25 0-5-2-15zM575 352q10 7 17 22 12 29 22 48 14 25 32 42 28 28 63 28.5t64-25.5q21-19 38-47 13-22 27-53 3-10 11-15 17-11 20-27.5T859 292q-2-3 0-7l1-2q8-28 8-42 1-51-39-96-5-5-5.5-9t1.5-10l15-26q-17 1-37 12-5 3-7.5 2t-4.5-6q-5-10-10-33l-3-12q-9 8-15 23-3 6-5.5 6.5T750 89l-7-7q-11-11-19-15 0 2-1 4v1q-1 3 0 10 2 4 1.5 6.5t-4.5 5-16 1.5h-5l-1 1q-91 10-133 94-10 20-10 44 0 20 7 46l1 1q4 8 0 12-13 16-8 33t20 26zm31-65q45 3 92-8 49-12 85-47 12 40 41 65 4 4 3 10-12 42-26 70-17 37-41 62-18 18-36 23t-35-3q-14-6-28-21-16-19-29-44-9-20-19-50l-14-48q-1-6 0-7.5t7-1.5zm190 209h-2q-4 0-6 3-8 20-25 36-11 10-35 27l-11 8q-4 3-8 0l-11-7q-24-17-34-27-18-16-26-35v-1q-2-6-6-4l-40 8q-7 1-3 7l8 12q15 26 26 37 12 14 31 28 11 8 35 23l20 13q4 3 10-1 32-22 49-33 38-24 68-79 5-7-4-8-24-4-36-7zM394 912v-16h1q0-41 6-123l3-33q-34 9-67 15l-8 2q-46 9-70 7.5T185 753q-69-15-138-36-5-1-7 .5t-3 6.5Q23 840 21 899q0 10-1 13v7q-1 18 21 18l227-1h147q-22 0-21-24zM66 477q6-1 7.5-2.5T75 468q-3-51 7-96 4-16 9-26 7-12 18-22 6 40 34 65 4 3 9 12l3 4q24 42 54 66 26 20 55 20.5t55-18.5q17-12 32-32 12-14 25-37l3-4q3-5 5-7 23-23 33-59l1-3q0-5 3-6t7 4l2 3q17 24 22.5 59.5T456 467v2q0 4 1 5.5t5 2.5q30 3 50-15t19-47q0-27-14-52.5t-36.5-44T432 295q-6-1-8-4.5t-1-8.5q2-36-7-60-34-96-133-108-50-5-89.5 15T127 193q-23 39-20 87 1 7-1.5 10.5T96 295q-42 10-71 50-24 31-25 68-1 30 16 47.5T66 477zm91-163q11-3 19-13 5-6 13-19l11-24q6 20 1 44-1 5 0 7t6 3q14 0 23-8 15-17 26-51l1-2q1-5 3-7 4 15 2 46v6q0 4 1.5 6t5.5 3q29 3 49 4 26 0 49-5 10-2 11.5-1t-.5 10q-12 70-58 122-25 29-55 28.5T209 434l-5-6q-36-45-50-105v-3q-1-3-.5-4.5t3.5-1.5zm8 266q1-10 3-31l4-36q-40 12-73 31-25 15-33 43t-20 84q-1 6 1 8.5t8 4.5q87 27 173 42l9 2q27 5 41 3 65-10 130-27 9-81 22-129 3-14 14-24l-8-6q-26-16-66-30-6-2-7.5.5t-.5 7.5q6 29 8 69 1 14 1 43v15q-64-38-96-58-8-5-15 0l-91 56q-5 2-6.5 1t-.5-5l1-21q1-29 2-43z"/></svg>