<svg xmlns="http://www.w3.org/2000/svg" viewBox="-10 0 1010 1000"><path d="M753 420q37 0 63.5-26t26.5-63.5-26-63.5-63.5-26-63.5 26.5-26 63.5 26 63 63 26zm-506 0q37 0 63-26t26-63-26-63.5-63-26.5-63.5 26.5-26 63.5 26.5 63 63 26zm253-93q36 0 66.5-17.5t48-48T632 195t-18-66.5T566 80t-66-18-66 18-48 48.5-18 66.5 17.5 66.5 48 48T500 327zm253 128q-20 0-40 6 27 52 27 108v286h156V597q0-39-19-71.5T825 474t-72-19zM104 597v258h156V569q0-52 27-108-19-6-40-6-39 0-72 19t-52 51.5-19 71.5zm396-235q-56 0-103.5 28T321 465.5 293 569v369h414V569q0-56-28-103.5T603.5 390 500 362z"/></svg>