<svg xmlns="http://www.w3.org/2000/svg" viewBox="-10 0 1020 1000"><path d="M518 185q35 0 60.5-25T604 99.5t-25.5-61-61-25.5T457 38.5t-25 61 25 60.5 61 25zM0 657l3 315 95-1-3-315zm786-20 1 130-166 2V344l210-216q11-11 11.5-26t-10-26-26-11T780 76L644 213H381L245 76q-10-11-25-11t-25.5 10.5T184 101t10 26q0 1 105 108l105 108-1 428-190 2-1-118-95 1 2 315 95-1-1-143 190-2v113q0 20 14.5 34.5T452 987t34.5-14.5T501 938V824h22v114q1 20 15.5 34.5t34 14.5 34-14.5T621 938V823l166-1 1 130 95-1-3-315zM621 321q1 0 0 1v2zM501 770V540h22v230zm496-135-95 1 3 315 95-1z"/></svg>