<svg xmlns="http://www.w3.org/2000/svg" viewBox="-10 0 1010 1000"><path d="M820 420q-68-67-159-35-9 3-13 2t-8-10q-29-73-92-110.5T408 238q-47 5-86 30.5t-65.5 66T222 425v3q-1 6-2.5 9t-5.5 5q-22 10-40 29v-1l-8 8q-8 11-15 24-9 17-12 35-3 22 4 44 7 26 29 50 4 6 7 8v0q0 1 1 1v0q28 28 72 31 18 2 55 1h337q48 1 72 0 97-5 134-91 19-41 10.5-85T820 420zM443 207q-4 8-5 12 56-1 104 23t79 68l6-11q13-25 11-52t-16.5-50-39.5-36q-39-19-79.5-5.5T443 207zm210 36q-1 5 1.5 9.5t6.5 6.5 6 1q16 0 46-2 6-1 10-5.5t3.5-10-4.5-10-10-3.5q-15 0-44 2h-3q-4 1-7.5 4t-4.5 8zm-63-92q5 3 11 1t9-8l19-38v-1q3-5 1-11t-7.5-8.5-11-1T603 92l-20 39q-3 6-1 11.5t8 8.5zm-219 36 19 10 20 10q5 3 10.5 1t8.5-7 1.5-11-6.5-9l-10-5q-21-11-31-15-5-3-11-.5t-8.5 7.5-.5 10.5 8 8.5zm288 112q-5-2-11 0t-8 7 0 11 7 9l39 19q6 3 11.5 1.5t8.5-7 1.5-11.5-7.5-9l-24-12zm-20-102q8 3 14 0l39-26q4-3 5-8.5t-2-10.5-8.5-6.5T676 147q-24 14-39 25-7 5-6 13t8 12zm-118-63q7 4 14-.5t7-12.5l-3-45q0-6-4.5-10t-11-3.5-10.5 5-3 10.5q0 14 2 41v3q2 10 9 12zm-72 17q4 4 6 5 10 5 17.5-3.5T474 135l-24-37q-4-5-10-6.5T429 94t-6 9.5 3 11.5q7 12 23 36zm-61 621q0 19-13.5 32.5T342 818t-33-13.5-14-32.5 13.5-32.5T342 726t33 13 13 33zm210 7q0 16-11 27.5T559.5 818t-28-11.5T520 779t11.5-27.5T559 740t27.5 11.5T598 779zM491 881q0 13-8.5 21.5T461 911t-21-8.5-8-21.5 8.5-21 20.5-8 21 8.5 9 20.5zm93 34q0 9-6.5 16t-16 7-16-7-6.5-16 6.5-15.5T561 893t16 6.5 7 15.5zM471 790q0 6-4.5 10.5t-11 4.5-10.5-4.5-4-10.5 4-10.5 10.5-4.5 11 4.5T471 790zm234-35q0 13-8.5 21.5T676 785t-21-8.5-9-21.5 8.5-21 21-8 21 8.5T705 755z"/></svg>