<svg xmlns="http://www.w3.org/2000/svg" viewBox="-10 0 1010 1000"><path d="M528 317q-15-4-44-13l-28-9q-17-5-26.5 0T416 317l-13 52q-10 39-15 58-30 106-50 169-16 49-50 145l-8 22q-9 23-28 70l-14 35q-6 17-1.5 27t21.5 15l23 7q32 10 48 17 21 8 33-1 9-7 14-26l7-29q25-102 40-152 9-31 29-93l30-92q16-46 52-135l16-40q8-18 4-29-4-14-26-20zm245-154-15-3q-27-5-41-5-37-2-66-27-62-55-163-65-59-5-121 24-38 19-113 60l-32 17q-2 1-6 5l3 2q33 17 69 .5t90-32.5q37-11 52 .5t14 49.5q0 15-2 46v5l35 12q30 9 90 29 5 2 8 .5t7-6.5q15-23 31-38 32-28 69-3l10 9q9 8 14 11 15 12 33 21 6 3 11 .5t7-9.5q15-42 27-84 2-8-1-13t-10-6z"/></svg>