<svg xmlns="http://www.w3.org/2000/svg" viewBox="-10 0 1020 1000"><path d="M876 264q-20-11-63-26-47-17-68-29-36-20-56-52-4-6-20.5-7.5T643 153q-22 11-42 5-12-4-33-20l-12-9q-44-31-80.5-40.5T401 89q-35 9-83 38-34 20-59 57-16 23-40 72-26 51-42 74-28 38-64 57-3 2-5 9.5t-1 13.5q5 30-9 58-9 17-35 47l-8 9Q17 569 5.5 626t4 113T65 838t94 63 111 14 104-37q50-33 79.5-84t32-109T462 574q-10-20-36-57-29-40-39-63-17-37-12-76 1-12-13-22-11-7-29-12-30-8-35-30-5-19 9-40 36-51 89-84 20-12 44.5-9t47.5 20q20 14 19 28 0 9-12 26l-8 12q-10 16-9 35t14 34q40 49 24 102-3 69 18.5 126t64.5 95 102 51 117-3 102.5-56 65.5-97q19-53 12-110t-39-105-83-75zM244 396q14 0 24.5 10.5T279 431t-10.5 24.5T244 466t-24.5-10-10.5-24.5 10-25 25-10.5zm162 275q1 46-21 85t-60.5 61.5-83 22.5-81.5-22.5-58.5-60T80 675t21.5-82.5 58-58.5 81.5-21 82.5 20.5 59.5 57 23 80.5zm168-401q0-14 10.5-24.5T609 235t24.5 10.5 10.5 25-10.5 24.5-24.5 10-24.5-10-10.5-25zm185 365q-46 0-83.5-20t-59-56.5-22-82T614 393t56-60 81-23 85 20.5 63.5 59.5 23.5 82-22 81-60 59-82 23z"/></svg>