<svg xmlns="http://www.w3.org/2000/svg" viewBox="-10 0 1010 1000"><path d="M815 464q-4-13-16.5-20.5t-27-5-23 12T740 476v79q0 6-1 8-1 6-4 9-3 0-5-9-1-2-1-8v-56.5l-.5-55-12.5-29-28.5-11-26 11L652 443v81q0 3-2 7 0 3-1.5 5t-3.5 1-3-3-1.5-6-.5-10l-1-43q0-42-1-63-1-18-13-28.5t-29-9.5-27.5 13-10.5 31v95l-1 8q-1 4-2.5 6t-3.5 2-4-11q0-7-1-10V303q0-24-13.5-38.5t-34-14.5-32.5 14.5-12 39.5v307q0 2-1 6l-1 2q-3 8-11 5-4-1-8-4l-70-58q-21-18-45-11-29 9-36 38-5 27 19 48l44 37q75 63 111 94 12 10 15 24 18 53 29 101 2 8 6.5 11t12.5 3h230q9 1 13.5-2.5T769 892q7-33 13-56l2-8q5-17 9-23 26-29 26-76V490q0-15-4-26zM501 199q40 0 74 20t54 54 20 74h24q0-47-23-86.5T587.5 198 501 175t-86.5 23-62.5 62.5-23 86.5q0 30 10 57.5t28 49.5l18-16q-32-40-32-91 0-40 20-74t54-54 74-20zm435 37L862 96q-2-4-5-4t-5 4l-14 27q-4 9 0 18l41 77H720q-34-57-92-91T501 93t-127.5 34.5T281 220v-2H121l41-77q2-4 2-9t-2-9l-14-27q-2-4-5-4t-5 4L65 236q-2 4-2 9t2 9l73 140q2 4 5 4t5-4l14-27q2-4 2-9t-2-9l-41-78h138q-12 36-12 76 0 82 47 148 10-11 24-14 6-2 9-2-21-28-32.5-62T283 347q0-59 29.5-109.5t79.5-80T501 128t109 29.5 79.5 80T719 347v2l36 5v-7q0-38-11-76h135l-41 78q-4 9 0 18l14 27q2 4 5 4t5-4l74-140q4-9 0-18z"/></svg>