<svg xmlns="http://www.w3.org/2000/svg" viewBox="-10 0 1010 1000"><path d="M429 126q7-8 20-25.5T469.5 74 488 63t23 3q19 8 21 31-1 11-6 21-4 6-12 17l-5 6q-16 22-22 27-9 7-19 5-7-1-30-12l-2-1q-16-7-17.5-14.5T429 126zm71 65q15 6 24.5 16.5T538 237l3-4q45-57 64-85 10-13 7.5-27t-14-23-26.5-7-25.5 15-30.5 41l-20 26q-6 7-5.5 11t9.5 7zm103-24q-24 30-69 91l-9 12q-6 8-5.5 18t6.5 19q10 17 29 17t28-13q52-66 77-100 8-12 5.5-26T652 163t-25.5-7-23.5 11zm94 71q-11-9-23-9t-22 10q-35 36-51 69-6 11-2.5 23t13.5 19.5 24 7.5 21-10q30-35 50-67 7-11 4-23t-14-20zM573 524l56-70q17-21 29-46 16-34 15-60-20 14-33 17.5t-24.5-4.5-25.5-29q-3-5-5.5-5t-6.5 2l-3 1q-5 2-15 7.5t-15 6.5q-8 3-13 2t-10-7q-3-3-8-12-7-12-12-17-17-17-41-31-17-10-45-23l-2-1q-5-1-7-3t0-6.5 4-4 6 2.5l3 2 53 25q15 7 29 3t21.5-18 3.5-28.5-20-23.5q-48-26-100-50-17-8-30.5-2.5t-21.5 22-21 48.5l-9 20q-14 37 7 74 24 42 70 102 7 8 8 15t-4 16l-4 7-114 247h63l88-1-40 72-83 164q76-75 227-223l123-121-156 6z"/></svg>