<svg xmlns="http://www.w3.org/2000/svg" viewBox="-10 0 1010 1000"><path d="M778 800H497q-8 0-13-6L203 513v-27l280-280q6-6 14-6h281q8 0 14 6t6 14.5-9 15.5L525 500l267 266q8 10 4 22-2 5-7.5 8.5T778 800zM208 511l280 279q3 4 9 4h281q9 0 12-9t-3-15L517 500l268-269q7-5 7-11t-4-10-9-4H497q-6 0-9 4L208 489zm508 255h-31l-3-1q-17-13-104-64l3-5 97 50q9 6 23 13zm-29-5h5q-10-6-17-9-4-2-6-4l5 4q8 6 11 7zm-32 5h-42l-3-1q-8-6-39-25l-80-51 3-5zm-40-5h15l-79-41 23 15q31 19 39 25 2 0 2 1zm-33 5h-31v0q-39-26-59-40l3-5 42 22q11 6 28 14zm-29-5h5q-4-3-15-8l-6-3q6 3 16 11zm-33 5h-17l-17-17 17 9q4 2 5 3zm221-2L560 657l3-5q75 38 90 45l8 2q3-1 4-4l1-1 1-4 4 3zm-101-67 65 38-36-35q-1 3-6 5h-1q-3 0-11-3zm4-23q-20-14-116-74l-30-18 3-5 15 7q39 19 47 22l7 2q3-1 4-4v-2l2-5 71 72zm-95-67q56 35 74 46l-45-44q-2 4-6 4-1 1-7 0v2l-5-3zm-149 49-14-6-22-23 38 24zm-20-45-67-35-25-25 48 28q31 17 47 26zm34-17q-146-74-162-80h-1l-14-14 266-266h241L488 490q-1 1-2 3l-1 1v1l-1 1v7l2 3q1 3 2 4l63 64-3 4-97-68 3-5q15 7 19 7h1q3-1 5-5v-3l-2-4-73-62 76 38q2 1 5 0t4.5-3 .5-4-5-6l-1-1q-10-10-37-33l-17-16 74 38q7 3 10-2 1-2 1-4.5t-2-4.5l-63-60 56 30q27 14 30 14h2q3-1 4.5-3.5t.5-4.5-5-6l-2-1-20-17 3-5 33 17q2 1 5 0t4.5-3 .5-4-5-6l-1-1v-1l-4-2q-9-5-18-18l-3-5 6 1q15 6 30 14l10 4q3-1 5-3l1-1q0-3-2-7l-62-58 18 9q62 33 67 33h2q3-1 4-6t-1-6q-22-19-39-34l-19-16 36 18q39 20 42 20l1-1q3 0 4-5t-1-7l-49-49 17 9q50 26 54 26 1 0 3-.5t3-3 1-6.5l-13-37 7 4q22 11 28 13l-3-7 3-8q-5-2-28-14l-20-11-4 3q-3 3-2 8l13 38-96-49-4 4q0 1-1 1-2 3 3 9 7 9 35 37l13 13-17-8-70-37q-2-2-5.5 0t-4.5 3.5 0 3.5 5 6v1q7 6 35 32l19 16-22-11q-51-27-55-27h-2q-4 2-4 6-1 1 0 3t2 3l62 60-18-10q-34-18-64-32v-1q-7-2-10 3-1 2-.5 4.5t2.5 4.5l53 43-66-34q-2-2-5.5-1t-4.5 4v1q-1 2-.5 3.5t4.5 4.5l1 2q3 2 9 7l9 7-3 5q-30-15-33-15h-2q-3 1-4 4-2 5 1 9l61 57-18-9q-63-33-67-33h-1q-3 1-4.5 3.5t-.5 4.5 5 6q7 7 14 13l42 37-75-39q-2-1-5.5 0t-4.5 3 0 4 5 6v1q13 13 49 44l19 16-22-12q-16-7-48-24l-20-10q-5-4-9 2t2 10l132 94-3 5q-64-33-153-80-3-1-6-.5t-4 3.5v1q-1 2-.5 3.5t4.5 4.5l2 1v1l2 1q12 9 49 34l122 76-2 5-134-68q-48-25-57-29l-3-2v1l-3-1q-3-2-5-2l-9 15 5-3 153 90zm59-76 50 35-39-39q-1 0-1-1v0q-4 4-7 5zm-200-36 3 1 5 3q12 5 81 40l48 25-4-3q-95-59-108-70l-7-4 1-1q-5-4-5.5-7.5t1-7.5 7-5.5 10.5.5l117 60-99-69q-4-3-5-8.5t1.5-10 8-5.5 9.5 2q13 7 45 23-21-18-30-28h-1q-5-6-6-9.5t1-8 7.5-6 10.5.5l33 17-21-18q-6-6-6.5-9.5t2-8.5 7.5-6l2-1q3 0 29 13l23 11-31-29q-4-3-4.5-7t1-8.5 8.5-6.5l3-1q3 0 12 4v-1q-5-5-5.5-8t1.5-7.5 8-6 10 1.5l14 7-8-6q-8-8-3-18 3-4 8-5t9 1l47 24-33-31q-5-6-3.5-13.5t8.5-8.5q1-1 3.5-1t9.5 3 27 14q-9-8-17-16l-2-2v-1q-9-9-4-15 2-5 6.5-6.5t10.5.5q27 15 54 28-19-20-23.5-26.5T537 239h-31L245 500l5 5 16-24q3 0 7 1zm-15 28q17 7 74 36l-68-40zm187-45q5 4 15 13l19 16v-2l4-6 5-4q-7 2-11-1zm46-5q4 5 5 8t-1 7l17-18q-5 2-10 0l-33-17q9 8 19 18l3 1zm-7-55 33 30q6 6 3 15l20-21h-1q-1 1-3.5 1t-8.5-3zm59 2q5 5 6 8t-1 7l12-13q-2 1-5.5 1t-5.5-1l-9-4h1l2 1zm20-19q4 5 5 8t-1 7l15-15q-2 0-4 1t-8-2l-25-13q6 5 10 7 2 1 5 4l3 2zm-10-50 31 30q6 4 4 12 0 1-1 2l22-21-5 1q-3 0-12.5-4.5T553 338zm39-17q8 8 20 18 6 4 4 12v3l17-18v1h-4q-6 0-37-16zm22-29q6 5 16 16l7 7q6 6 4 12l-1 2 20-19-4 1q-6 0-42-19zm46-22 7 24q2 4 0 9l23-23h-1q-2 1-4.5 1t-7.5-2zm28-2 3 10 39-39h-73q16 9 32 17l2 1zm-119-29q42 22 64 33l-8-24q-1-5 0-9z"/></svg>