<svg xmlns="http://www.w3.org/2000/svg" viewBox="-10 0 1010 1000"><path d="M499 733H140q-51 0-70-40-14-29-1.5-58.5T112 595l358-117q9-3 9-12 0-29 21-50l9-9q12-11 17-17 10-12 11-26t-7-26-20.5-18-25.5-4q-16 3-26 13t-12 26l-1 7q-1 11-8 17.5t-17 5.5-16.5-8-6.5-18q1-35 24.5-61t60.5-31q32-4 61 16t38 52q14 52-23 90l-21 22-2 3q-5 6-6 9-4 9-2 13.5t12 7.5l345 113q25 8 39.5 27t14 43-15.5 43-38 24q-8 3-26 3zm0-49h363q5 1 7 0 16-1 19-17 4-19-20-28l-267-87-88-29q-13-4-26 0L130 640q-11 4-15.5 11t-2.5 16q3 17 27 17z"/></svg>