<svg xmlns="http://www.w3.org/2000/svg" viewBox="-10 0 1021 1000"><path d="M861 820h-10q-13 1-20 0-10-1-14-7t-1-16l8-23q8-24 13-36 3-7-4-11-16-12-21-29t1.5-34 22.5-27q6-4 6-11V389q0-7-2-8.5t-8 .5l-258 66-52 13q-23 6-46 1-154-40-231-61-128-35-229-66-8-3-12-6.5t-4-11T5 305q3-2 11-5 69-21 207-55l82-21q35-10 107-27l48-12q42-12 88 1 134 34 217 57 119 33 215 65l5 1q16 5 15 18 0 7-4 10t-12 5q-68 18-102 26-5 2-6.5 4t-1.5 6v247q0 6 6 9 19 9 27 26t3.5 35.5T889 727q-4 2-4.5 4.5t1.5 7.5l20 56q8 25-18 25zM178 470v-16q1-23 0-34 0-6 2-7.5t8 .5q122 35 192 51l106 26q13 3 29 0 9-1 27-6 51-14 152-39l114-29q11-2 12.5-1t1.5 12v87q0 29-21 49-26 26-74 42-74 25-165 30-91 7-183-6-80-10-135-36-31-14-48.5-33T178 515z"/></svg>