<svg xmlns="http://www.w3.org/2000/svg" viewBox="-10 0 1010 1000"><path d="M937 505q-1-5-6-12l-3-6q-43-90-136-114-38-10-92-26-57-16-83-60-14-24-47-51-14-12-23.5-13.5T528 222q-16 3-30 18-8 9-22 30v1q-12 21-40 61-25 35-36 53-17 26-38 39-10 6-17.5 5.5T329 421t-18-24l-5-6q-8-9-12-13-18-16-37 1-7 7-14 19-10 15-29 46-28 46-44 67-12 16-30 33-11 10-35 28l-13 10q-3 3-11 8-14 8-18 15-2 4 0 6 5 5 19 6 10 0 14 2 21 8 26 29 2 9 6 12t13 5l14 1q20 0 27 22 2 6 4 17v3q0 3 3 4t4-2q6-10 18.5-28t17.5-27.5-1-20-24-26.5l-10-9q-3-3-5-6 9 5 27 11l18 6q12 5 14.5 13t-4.5 20q-12 20-38 58-4 6-6 10l-2 2q-3 5-1.5 8t9.5 3h2q28-2 45-24.5t20-59.5v-4q0-5 2-6t7 2l2 2q3 2 1 7l-1 2q-3 12-9 35-8 32-13 47-2 5-2 16 3 15 16 7 21-14 23-42v-8q1-19 1-28 0-16-4-30 14 5 20.5 18t2.5 28q-3 12-13 34-8 19-11 28l-1 2q-3 6 0 8t8-2l2-2q10-9 25-20 21-19 32-32 14-19 19-41 8 31-13 53t-31 33q-9 9-12 14.5t-3 10.5 6.5 6.5 12.5-.5q9-2 17-10 5-4 13-16l3-3q40-58 61-86 4-5 3-8t-7-5q-16-6-20.5-20T388 611q-6-2-20-4h-2q-23-3-36-9-18-7-29.5-23.5T260 541q-19-10-30-23l-2-2q-5-4-6.5-7.5t.5-8 5-5.5 9-2h4q8-1 23.5.5T286 495q10 0 13-4t1-14l-13-46-2-5q-2-5-2.5-7.5t2.5-3.5 6 4l1 3q34 45 82 67 22 10 41 10 9 0 10-3.5t-4-8.5l-5-4q-5-3-7-5 9 1 26 6l27 8q24 6 35 9 20 4 37 5 22 0 32 2 12 3 19 5 9 4 16 10-5 2-13 2h-3q-26 2-40 2l-3 1q-4 0-5 3 0 5 6 5 15 4 31 6 19 2 55 1h21q7-2 7.5 2.5T649 552l-25 7q-4 2-3.5 5.5t6.5 3.5h5q52-4 78-5 6 0 6.5-3t-2.5-5l-1-2q-18-17-42-28-48-22-110-35-27-6-56-6 7-8 9-13 4-10 11.5-14t18.5-3q27 2 44-15 9-10 26.5-9t27.5 3q25 5 74 25l14 5q7 2 9.5-1t-1.5-10l-6-12q-12-19-14-30-1-4-7-10l-24-21q-9-8-17 2-11 13-18 18-12 9-24 0-8-5-14-19l-16-37q-12-28-17.5-41.5T567 280q-5-4-10.5-3.5T548 282t-5 11q-10 28-26 85l-8 29q-2 7-4 23-2 18-4 26-4 14-13 22-5 5-17-4-17-11-47-39-7-7-11.5-7.5T401 434q-14 12-29 15-7 1-9.5-3.5t4.5-6.5q18-6 37-22 4-2 11 0l3 1q10 3 23 18 18 22 29 32 16 13 17.5 10t4.5-10.5 3-9.5q6-23 12.5-62t11.5-61l3-12q7-33 14-49 13-34 39-8 16 16 26 42l8 21q14 37 18 56 2 9 9 10t12-6q5-5 9-17 8-18 15-19.5t20 12.5q11 11 17 15 9 7 19 9 8 2 9 9.5t4 20.5l1 5q0 6 3.5 6.5t5.5-4.5v-2q5-8 9-18 2 4 2 5l2 13q3 25 3 36.5t1 16 3.5 7 6 3 5.5-1.5 4-6l1-3q2-5 2-7l8-60q1-6 5-5t4 9q-1 19-1.5 57.5T804 528q-1 6 1 18v1q2 8 6.5 9t9-7.5T827 522l9-97q0-6 4-6t4 6v14q-2 41-2 62 0 12 9 13 4 1 6-2t3-8l8-42q0-5 3-5t3 5q0 17-3 32l-3 12q-10 35-14 53v1q-3 15-4 22-1 11 1 21 1 5 2.5 7.5t5.5 3.5 9-8q8-14 13-31l4-17q5-23 8-34 9-27 34-15l4 1q5 3 6 0 1-1 0-3zm-404 56q2 0 4-1 5-1 7-1h2q5-2 4.5-6t-7.5-4h-8q-18 4-33-12 1-1 5-2 8-2 7.5-6.5t-3.5-7-9-4.5l-12-6q-14-7-20-9-11-3-13.5 3.5T460 517q4 3 16.5 8.5T494 535q-7 1-17 1-26 0-58 5-8 0-8 3t5 4l2 1q8 2 12 2 27 3 81 1 16 0 13 6-1 2-5 2l-77 6q-30 2-45 6-4 0-4.5 2.5t3.5 4.5h1q12 2 19 2 88 0 131-1h3q7 2 6.5-2t-4-6.5-10-5.5-9.5-5z"/></svg>