<svg xmlns="http://www.w3.org/2000/svg" viewBox="-10 0 1020 1000"><path d="M212 465q-12 13-36 37-50 50-73 75-7 7-12 8t-10-7q-3-5-8-8-6-11-16-3-3 2-10 4l-5 2q-11 2-17 1-9-1-14.5-8.5t-6-16T9 534q9-12 7.5-21T3 496q-3-3-2.5-5.5T4 485l52-52q3-4 5.5-3.5T68 434l14 13q20 18 29 27 4 4 7 3.5t7-4.5l1-1q4-4 4.5-7t-4.5-7q-9-8-28-26l-14-13q-4-3-5-5.5t2-6 5.5-3T93 409l40 36q5 5 8 5.5t8.5-5 4.5-9-6-6.5l-40-38q-3-2-4-4t2.5-5.5 6-3.5 6.5 4l37 35q5 5 8.5 5t8-5 4-8.5-5.5-7.5l-36-34q-4-4-4.5-6.5t3.5-5.5l37-36q33-31 50-47 28-25 52-43l31-20q5-3 7.5-2t4.5 8q11 45 49 66t76.5 9 58.5-50l2-5q3-7 4-10 5-12 8-13t13 6q19 11 40 29 13 11 37 34l22 20q11 10 32 30l21 21q6 5 6 9t-6 9-17.5 16-17 15.5-5 7.5 5 7.5 7 5.5 7.5-3q9-10 28-27l10-9q4-4 7-5t6 3 2.5 6-3.5 4l-16 15q-18 17-27 25-4 4-3.5 6t4.5 6l2 2q3 4 5.5 5t6.5-3l41-39q4-4 7-5t6 3 2.5 6-3.5 4l-18 18q-17 16-25 23-5 4-5 7t5 8l1 1q3 3 6 3.5t7-3.5q7-7 22-20t22-20q4-5 7.5-4t6.5 6l4 3q5 4 6 6.5t-4 7.5q-19 19-54 56l-27 28q-4 4-6.5 4t-6.5-4l-72-67q-5 12-4 19 0 11 10.5 20t27.5 29q11 14 18 20.5t0 13.5q-77 78-114 119-4 5-7 4t-6-5l-1-1q-73-74-109-114-6-6-10-6t-9 6q-83 88-249 262-6 6-10 6t-8.5-6-14.5-16q-7-8-11.5-12.5t-8-5T89 809q-13 15-35 18-19 3-28-8t-2-29.5T44 763q7-5 6.5-8.5T44 746l-18-20q-5-3-4.5-6.5T26 711l46-52q89-99 134-148 10-11 11-21.5t-5-24.5zm48 60q-2 2-7 8-6 7-10 10-7 6 1 13l59 55q11 9 15 11.5t7.5 0T338 609q4-4 4-6.5t-4-6.5q-12-11-35.5-33T267 531q-4-4-7-6zm235 102q1-1 3-2l6-5q20-18 58-54l1-1q9-9 11.5-12.5t.5-7-11-12.5l-1-1q-4-5-7-4.5t-8 4.5q-22 21-66 61l-3 2q-3 3-4.5 5t.5 4q3 6 13 15zM303 247q-2 1-4 1l-30 18q-13 7-13.5 10.5T262 293q3 6 5.5 7t7.5-2l39-24q2-2 3-3.5t-1-4.5l-4-6q-5-10-9-13zm211 0q-4 2-7 9-3 4-4 6-8 9 3 14l6 4q17 9 24 14.5t11.5 4.5 9.5-9 4-12.5-8.5-8T532 257l-10-6q-2-2-8-4zM380 57v71q0 5 1.5 7.5t7 2.5 6.5-2.5 1-6.5v-25q1-30 0-45 0-6 2-8t8-3q13-1 17 0t5 5 1 17v59q0 4 1 6t6.5 2.5 7-1.5 1.5-7V69q0-11 2.5-12.5T460 61q32 18 44.5 52.5T503 183q-5 11-7 24-5 31-29.5 52.5t-55 21-54-22T329 206q-2-13-7-24-9-23-6-47.5T333.5 89 370 58l2-1q5-2 8 0zm450 415q-16 17-48 50L617 695Q463 855 386 936q-11 12-25 15-10 2-27 0-5-1-7-6l-23-48q-5-10 6-8l16 1q21 1 31.5 2t20.5-9l132-138q173-180 259-271 7-7 13-9.5t14.5.5 27.5 6zm-61 356q-25 0-40-18-6-6-10-5.5t-9 6.5l-28 29q-3 4-5.5 4t-6.5-4q-26-28-78-82-5-4-5-7.5t4-7.5q74-76 110-115 5-5 8.5-4.5t7.5 5.5l75 84q7 6 0 13l-7 7q-8 9-13 13.5t-5.5 8 5.5 7.5q22 17 23 39 1 13-6 20t-20 7zm72-428 11-11q74-79 111-116 7-7 15-7.5t15 6 7 15-7 15.5l-97 102q-6 6-11 5l-8-2q-22-5-36-7zM215 945h-7q-18 0-27-2-20-6-18-29 1-15 5.5-22t15.5-9q6-1 19 0l11 1q3 0 6 4l1 2q11 24 23 49 2 5 .5 7t-6.5 1zm546-379 5-5q26-22 38-33 7 10 7.5 20.5t-6.5 18-19 7.5-25-8zM268 888q8-3 12.5-.5t7.5 9.5l20 44q2 3 2.5 5t-2.5 4-7 .5-6-5.5l-9-19q-11-25-18-38zm11 59q-7 2-11.5 0t-7.5-8l-15-33-6-14q-3-5 0-6.5t7-1 6 4.5zm540-522q7-14 19-10l30 5q7 1 6 5t-4.5 6.5-7.5 1.5zm34 24q-8 8-18 8-6 0-18-3-14-4-22-3 13-22 58-2z"/></svg>