<svg xmlns="http://www.w3.org/2000/svg" viewBox="-10 0 1021 1000"><path d="M749 653q-1-14-4-17t-17-4q-30-3-51-12-25-11-41-33l-2-3q-14-17-19-26l-93-161q-40-70-59-106-15-28-49-83l-19-31q-4-6-8-6h-39l24 42q23 41 34 61 17 30 53 90 28 47 84 144l31 55q23 37 32 57 34 74 103 93 12 3 37 9l6 1q5 1 6-.5t0-5.5zM474 480q9-15 11-21.5t0-12-10-19.5l-2-4q-4-6-6-5.5t-4 6.5l-45 76q-28 50-43 74-33 50-89 56l-26 4q-4 1-5.5 2.5T253 641l-12 78q-1 5 .5 5.5t5.5-.5l14-3q35-8 52-15 47-21 67-60 12-24 19-36zM161 640q-27 2-83-2-10 0-32 2-18 3-26.5 11T6 676q-4 13-5 23-3 21 4 31t28 13q43 5 115-3 7-1 7-9l3-27 10-54q3-10-7-10zm834 39q-4-19-13-27.5T953.5 640t-55.5 0q-21 1-31 1h-24q-8-1-10.5 2t-.5 11q10 50 14 75 1 8 11 10 13 3 41 4 19 1 29 2 26 3 54-5 10-4 14-10t5-17.5-5-33.5zm-402 78q-8 0-24.5-.5t-24.5.5q-14 1-40 .5t-39-.5l-11 1q-9 1-14 0-13-2-37 0-14 3-14 15v40q1 9 4.5 12.5T406 829h41q33-1 47 0h100q10 0 14.5-4t4.5-14v-36q0-19-20-18zm-175 18q-1 4 0 12v11q-1 6 0 9 0 6-1.5 9t-8 2.5-9-3-2-9-.5-21.5v-10q0-11 9-9h3q5 1 7.5 2.5t1.5 6.5zm115-396q20-35 60-104l59-104h-38q-6 0-9 6l-24 42q-44 77-67 115-3 6-1 12zM226 637q-10 0-28 2-6 1-6 7l-14 83q-1 7 7 7 14-1 20-3t8.5-7.5T218 705q1-1 1-4 5-20 11-60v-1q0-4-4-3zm585 22q-2-15-5.5-17.5T787 638v0q-13-1-14.5 1t-.5 16q1 8 5 24 6 25 5 39.5t15 14.5q4-1 14 1l3 1q11 3 8-8-5-17-9-51z"/></svg>