<svg xmlns="http://www.w3.org/2000/svg" viewBox="-10 0 1010 1000"><path d="m937 801-77-670q0-4-2.5-12.5T846 111l-10 1q-10 2-12.5 5.5T823 139q5 60-8 103-13 49-47 87-28 32-58 49l-10 6q-31 18-46 25-27 13-60 24.5T534 450l-19 5q-56 13-84 17-104 16-215 30-30 4-74 2-12-1-36-9l-3-1q-4-1-10-8l-5-5q-7-7-11-8-7-2-11 1.5T63 486q11 107 19 170 1 3 3.5 6.5T90 666q9 0 16-7 2-3 5-10t6-10q15-15 38-21l46-11q2-1 7-1 3 5 1.5 9t-4.5 10l-2 2q-37 67-10 135 14 36 50 66 40 33 94 47 16 4 48 10 57 10 122-5 26-6 41-11 23-7 40-18l21-12q25-15 37-24 35-29 54-61 22-37 24-80 1-34-15-68l-6-15 2-3 30 8q31 13 48 23 65 35 95 105 14 35 21 84 1 13 5 16t15 1q14-2 16.5-5.5T937 801zm-294-81q-15 22-37 39-19 14-46.5 26.5T509 802q-35 8-59 10-32 4-60-1l-50-9q-35-8-65-35-18-16-25-40t0-48q9-30 40-56 27-23 68-36 12-3 36-7l23-4v2l10-1q22-4 33-4 7-1 21.5-1H503q35-1 73 8 29 7 49 22 27 20 32.5 54T643 720z"/></svg>