<svg xmlns="http://www.w3.org/2000/svg" viewBox="-10 0 1010 1000"><path d="M925 575q-2 4-5 13-21 46-28.5 69.5T871 727l-4 17q-78-3-161-17l-8-22q-9-27-15-39-22-48-63.5-71T525 580l-27 4q4 21 7 34 24-4 40-5 21 0 39 5l-4 13q-4 12-5 18-10 44 21 83 10 12 30 35.5t29 35.5q43 53 64 128 1 2 1 7H290l-6-31q-6-37-9-55-12-85-11-164 2-111 33-197 60-161 219-208 25-7 76-15l17-3q1-1 3.5 1t4.5 4q23 24 67 74l66 75q72 78 167 149zM598 398q1-19-12-32.5T555 351q-21-1-35 12t-15 33q-1 18 12.5 32.5T549 444q20 0 34-13t15-33zm-207-95q-50 50-75 74l-58-50q-65-57-98-85 53-87 138-135 61 127 93 196zM330 93q29-17 87-26t93-2l-6 43-24 143q0 3-2.5 6t-4.5 4q-10 5-29 14l-23 11-37-78q-36-76-54-115zm187 152q16-108 28-176 100 18 204 81-4 4-6 5-37 23-113 69-6 4-22 6l-84 15zM262 482q-55-19-165-59-2-1-3.5-3.5T92 416q15-75 49-141 0-1 1-1l1-1q35 30 106 91l49 43zm-10 33q-9 40-19 98-104-20-158-31l8-127zM77 618q22 4 65 12l87 17v72q-3 1-9 1l-124-3q-2 0-4.5-1.5T88 713zm153 136q3 27 7 79l-47 5q-42 4-62 7-7 1-10.5-1t-4.5-8q-5-28-19-82zm12 114q1 8 4 23l8 46h-39q-41-1-62 0-5 0-7.5-1.5T142 929l-16-49z"/></svg>