<svg xmlns="http://www.w3.org/2000/svg" viewBox="-10 0 1010 1000"><path d="m361 938-25-5q-20-4-29-6-70-18-111-68-40-48-40-111 0-65 43-123 39-52 98-93 48-32 119-64l25-11q41-18 61-28 33-17 56-36 33-26 46-60.5t3.5-67T568 212q9 51 1.5 83.5T536 349t-76 36l-16 4q-43 13-63 22-33 15-53 41-11 14-26 13-10-1-27-10-14-8-18-19t1-27q27-80 64-142 42-70 98-121h1q19-18 26-27 13-16 16-34l1-3q1-9 3-12 3-6 9.5-7t12 3.5T496 78q7 19 22 26 10 4 34 6h2q81 4 151 52 66 46 104 121 38 76 35 162-6 145-83 220.5T532 752q-47 3-84 13-43 11-78 33-49 31-51.5 64t42.5 76z"/></svg>