<svg xmlns="http://www.w3.org/2000/svg" viewBox="-10 0 1010 1000"><path d="M915 610 156 245q-19-10-43 5.5t-38.5 46T63 355t22 37l759 366q19 9 43-6t38.5-46 11.5-59-22-37zm-41 95q-5 8-11 11t-13 0q-17-8-27-22-5-8-12-25v-1q-5-13-8-18-6-8-16-13t-20-4q-7 1-19 5h-2q-16 6-26 6-17 1-34-7t-27-23q-6-8-12-25l-1-2q-4-12-7-16-6-8-15.5-12.5T604 555q-6 0-18 4l-3 1q-16 5-26 5-17 2-33.5-6T497 537q-6-8-12-24l-1-2q-5-13-8-18-6-8-16-13t-20-4q-6 0-18 4h-1q-16 6-27 7-18 1-35-7t-27-23q-6-8-12-25l-1-2q-4-12-7-17-5-7-15-12-13-6-26-3h-2q-8 2-11 4h-2q-16 6-26 6-17 1-34-7t-27-22q-5-8-12-25v-1q-5-12-8-17-6-9-16-14-6-3-8-10.5t1.5-14.5 10.5-10 13 0q17 8 27 22 5 8 12 25v1q5 12 8 17 6 8 15.5 13t18.5 5q6-1 18-4l3-1q16-6 27-7 18-1 35 7l3 2q7 4 9 6 11 8 18 20 4 7 9 20t8 18q6 8 16 13t20 4q7-1 19-5 17-5 27-6 17-1 34 7t27 22q5 8 12 25v1q5 13 8 18 6 8 16 13t20 4q7-1 19-5h2q16-6 26-6 17-1 34 7t27 22q5 8 12 25v1q5 12 8 17 6 8 15.5 13t18.5 5q6-1 18-4l5-2q16-5 26-5 17-2 33 6t26 22q6 8 12 24l1 2q5 13 8 18 6 8 16 13 6 3 8 10.5t-1 14.5zM191 216l725 348q3 2 6.5.5t4.5-5.5q14-37 3.5-71.5T889 438L307 157q-31-14-65-1t-54 47q-2 4-1 7.5t4 5.5zm619 568L86 435q-3-2-7 0t-5 6q-9 23-7 49 2 24 13.5 43t31.5 29l583 280q31 15 64.5 1.5T813 796q2-3 1.5-7t-4.5-5z"/></svg>