<svg xmlns="http://www.w3.org/2000/svg" viewBox="-10 0 1010 1000"><path d="M919 234q15 0 10-3l-6-3Q649 120 512 65q-12-5-24 0L111 215l-43 18q1 1 16 1zm-6 650H87q-6 0-10.5 4.5T72 899v23q0 7 4.5 11t10.5 4h826q7 0 11.5-4t4.5-11v-23q0-6-4.5-10.5T913 884zm-791-75v22q0 6 4.5 10.5T138 846h725q7 0 11.5-4.5T879 831v-22q0-6-4.5-10.5T863 794H138q-7 0-11.5 4.5T122 809zm321-65q6 0 10.5-4t4.5-11V387q0-6-4.5-10.5T443 372h-71q-6 0-10.5 4.5T357 387v342q0 7 4.5 11t10.5 4zm370 0q7 0 11.5-4t4.5-11V387q0-6-4.5-10.5T813 372h-70q-7 0-11.5 4.5T727 387v342q0 6 4.5 10.5T743 744zm-556 0q7 0 11.5-4.5T273 729V387q0-6-4.5-10.5T257 372h-71q-6 0-10.5 4.5T171 387v342q0 6 4.5 10.5T186 744zm665-469H79q-7 0-11.5 4.5T63 290v12q0 7 4.5 11t11.5 4h843q7 0 11.5-4t4.5-11v-12q0-6-4.5-10.5T922 275zM628 744q6 0 10.5-4.5T643 728V387q0-6-4.5-10.5T628 372h-70q-7 0-11.5 4.5T542 387v341q0 7 4.5 11.5T558 744z"/></svg>