<svg xmlns="http://www.w3.org/2000/svg" viewBox="-10 0 1010 1000"><path d="M928 472q-25-136-165-168-62-15-113 6t-77.5 69.5T554 492q5 41 29 70.5t58.5 40T711 599q-44-23-66-43.5T617.5 513t3.5-52q12-38 40.5-58.5T728 384q44 3 75.5 33.5T840 494q-23-24-42-36-24-14-54-17 43 36 62 73 20 42 14 95-5-7-13.5-22T793 566q-9-10-19-15 3 30-14 66.5T713.5 682 655 717q-6 1-19-1-16-4-23-5l-347-78q0-3-5.5-9.5T254 613v-1q-2-7-5-9-3-4-10-2-20 6-48 1h-2q-3 0-4.5.5t-3 4-1.5 7.5l-34-8q-5 0-13-3-13-4-18 1t-4 18v31q0 62-1 93-1 19 6 26t27 7q356-2 711 0 20 1 31-7t18-26q52-132 25-274zM208 353q7-1 11-8l3-4q7-11 17-14.5t21 2.5q14 6 32 5 13-1 22 8t10 24v4q0 5 .5 8t4.5 6q59 48 92 85-2-45-20-75-11-21-33-25h-3q-4-1-6-2t-1.5-4.5 3-4.5 7.5-1h2q33-2 51 1 28 5 48 21-9-44-60-58-38-10-66-9h-2q-11 0-12.5-4.5t1-6.5 7.5-4l3-1q50-25 96-13-21-25-50-31.5t-55 8.5q-9 5-25 18l-6 5q-6 4-8.5 3.5T286 279q-12-33-40.5-48t-66.5-9q33 20 59 54l2 3q4 5 1 8.5t-9 1.5l-2-1q-49-16-92-12-28 2-49 15.5T63 326q56-35 122-23 9 2 10 5.5t-3 7.5l-3 2-8 5q-22 13-31 20-25 19-40 38-17 23-23 50 2-1 6-6l2-2q27-30 50-46 30-20 63-24zm-13 185q-10 2-12 12-1 6 0 21l1 10q0 11 8 14 5 1 18 0l9-1q13 1 17.5-.5t5.5-7 0-19.5v0q-1-18-3-23-3-6-11.5-7.5T195 538zm25-52q-6 0-14-2h-2q-5 0-6 3l-2 8q-6 19-4 27 0 5 4 6t11 1h18q9-1 12-3 5-3 6-14v-3q1-12 0-16t-5.5-5-17.5-2zm34-42q0-9-3-10t-9.5 1-7.5 0q-15-1-22 6.5t-9 23.5q-1 8 2 9.5t9 1.5h5q18 2 26-5.5t9-26.5zm16-80q0 22 22 24 10 0 16-6t6.5-16-5-15.5T293 344q-20-1-23 20zm-1 29q-1-6-3-6.5t-6.5 1.5-6.5 1q-13 1-24 10.5t-9 18.5q1 6 5.5 7t11 .5 9.5-.5q8 0 16-11t7-21zm-21-13q9-1 12-7 1-3 1-13t3-14-.5-6-11.5-4l-3-1q-21 2-22 21-1 10 5 17t16 7z"/></svg>