<svg xmlns="http://www.w3.org/2000/svg" viewBox="-10 0 1010 1000"><path d="M803 385q-9-86-84-128-17-9-28-24-10-13-18-33l-11-28q-13-37-22-54-14-24-25-35-16-15-38-18-41-6-75 5-35 12-60 44-21 27-45 51-5 5-10.5 6.5T374 171q-27-6-52.5 4T280 207.5 264 258q0 10-3.5 15T249 283q-26 16-43 45-10 17-8.5 40.5T212 410q15 20 39 24 38 7 116 13h2q8 1 11 4t4 10q7 62-37 122-31 40-43 67-21 41-1 78 11 24 2 44-8 17-22 51-17 33-22 64-2 14 4.5 26.5t18 16T304 926q6-4 14-17 4-4 5-8 17-45 22-81 7-44-1-84-7-35-3-62 5-32 27-57 31-36 47-71 19-40 20-83 5 2 6 4.5t1 6.5q4 50-10 83-13 35-17 56-6 32 2 58 9 31 7 68-2 28-11 68-5 24 0 42 4 12 13.5 21.5T445 879q11-2 17-12 4-6 7-20 12-62-7-142-9-41-1-70l6-26q9-42 11-62 4-35-3-64-1-5-2-17l-1-8q-3-14 11-13h13q12 0 15.5 1t3.5 4-2 13l-1 3q-11 46-9 81 2 42 23 78 8 14 20 42 13 32 14 59 1 31-13 60-27 59-36 94-5 20-1.5 36.5T525 937q5 2 8.5 0t8.5-6l3-3q6-8 8-12 14-23 25-60 11-41 15-65 4-37-3-67-5-22-20-64l-13-36q-12-35-16-53.5t-2-41.5q2-14 9-41 4-19 6-28t10.5-12 21.5 0q7 2 8 5t0 9l-1 4q-4 37 4 63 9 31 35 54 24 22 29 45.5t-8 53.5q-11 28-15 42-7 24-8 44-1 34 1 58 3 32 11 58 5 12 10 17 7 7 17 5t14-10q2-5 3-16l1-6-11-64q-7-31-6-56 0-30 9-56 11-29 13-45 4-26-4-47-6-15-24-41l-10-14q-15-25-20-41-8-23-3-45 2-9 6-13.5t14-3.5q32 2 64 0l19-1q18 0 27-1 18-2 31-21t11-40zM493 137q30 0 55 15t39.5 40 14.5 54.5-14.5 55-40 40.5-55.5 14q-47 0-78.5-31T382 247t32-78.5 79-31.5zm-139 53q14 0 17.5 4t-.5 18q-12 46 7 87 7 15 4 20t-20 7h-9q-28 0-47.5-20t-19-48 20.5-48 47-20zm136 124q25 0 42-16.5t17.5-42T533 213t-42-17.5-42.5 16.5-17.5 42 17 42.5 42 17.5zm-7-85q1-10 8.5-16.5T509 207t16.5 9 5 17.5-9 15.5-17 5.5T488 246t-5-17zm-141 53q8 0 13-5t5-13q-1-14-18-16-16 2-16 16-1 8 3.5 13t12.5 5z"/></svg>