<svg xmlns="http://www.w3.org/2000/svg" viewBox="-10 0 1020 1000"><path d="M999 564q-4-15-13.5-21.5T960 536H35q-14 0-24.5 10.5T0 571v73q0 13 9 22 10 13 32 13h924q12 0 22-8 8-6 13-21v-85 0q-1 0-1-1zM1 221q2 12 12 20.5t24 8.5h928q11 0 21-8 8-6 14-21v-84q-5-15-16-24-7-4-17-6H33l-2 1q-14 2-22.5 12T0 145v68q0 6 1 8zm959 101H33q-14 1-23.5 11.5T0 358v71q0 5 1 7 3 13 13 21t23 8h927q14 0 23.5-8.5T1000 435v-84 0q-1 0-1-1-4-15-13.5-21.5T960 322zM773 750H222q-9 1-15.5 11.5T200 787v70q0 14 6 25t19 11h554q8 0 15-12 2-3 4-12l2-5v-84q-5-18-10-24t-17-6z"/></svg>