<svg xmlns="http://www.w3.org/2000/svg" viewBox="-10 0 1020 1000"><path d="M960 536H35q-14 0-24.5 10.5T0 571v73q0 13 9 22 10 13 32 13h924q12 0 22-8 8-6 13-21v-85 0q-1 0-1-1-4-15-13.5-21.5T960 536zm24-423q-9-5-17-6H33l-2 1q-14 2-22.5 12T0 145v68q0 6 1 8 2 12 12 20.5t24 8.5h928q11 0 21-8 8-6 14-21v-84q-5-15-16-24zm-24 209H33q-14 1-23.5 11.5T0 358v71q0 5 1 7 3 13 13 21t23 8h927q14 0 23.5-8.5T1000 435v-84l-1-1q-4-15-13.5-21.5T960 322zM573 750H22q-10 1-16 11t-6 26v70q0 14 6 25 4 6 8 8.5t11 2.5h554q8 0 15-12 3-5 5-17v-84q-4-18-9.5-24t-16.5-6z"/></svg>