<svg xmlns="http://www.w3.org/2000/svg" viewBox="-10 0 1010 1000"><path d="m681 646 28 86q1 3-.5 5.5T704 741l-19 6q-3 1-5.5-.5T676 743l-32-99q-1-5 0-5h-1q-2 0-4 7l-29 91q-1 3-3.5 4t-4.5 0l-20-6q-3-1-4-3.5t0-5.5l25-81q1-2-.5-4t-4.5-2H291q-2 0-4.5 2t-3.5 5l-76 284q-1 3 .5 5t4.5 2h576q2 0 4-2t1-4l-76-285q-1-3-3.5-5t-5.5-2h-22q-3 0-4.5 2t-.5 5zM632 63H368q-8 0-12 4L150 227q-2 2-4 5t-2 6L90 592q0 7 6 7h131q3 0 5-2t2-5V334q0-8 1-9t3 6l45 251q2 7 8 7h418q6 0 8-7l45-250q2-7 3-6l1 8v259q0 2 2 4.5t5 2.5h130q3 0 5-2t1-5l-53-355q-2-8-7-11L645 67q-4-4-13-4zM496 299 377 124q-3-5 3-5h239q6 0 3 5L504 299q-5 5-8 0z"/></svg>