<svg xmlns="http://www.w3.org/2000/svg" viewBox="-10 0 1010 1000"><path d="M666 685h-62q-10 0-15 9l-2 2q-21 37-39 63-34 49-48 49t-48-49q-18-26-39-63l-2-2q-5-9-15-9h-62q-29 0-61 16.5T220 745q-22 30-22 63v110h604V808q0-33-22-63-21-27-53-43.5T666 685zm271-124zq-5-22-6-52 0-17 1-54 2-44 1-66-2-36-11-64-10-34-32-61.5T844 230q-19-5-40 4-12 5-31 19-8 6-12 8-5 3-8 2-26-62-76-109-39-35-84-53.5T500 82t-93 18.5-84 53.5q-48 45-76 109-3 1-8-2-4-2-12-8-19-14-31-19-21-9-40-4-24 6-46 33.5T78 325q-9 28-11 64-1 22 1 66 1 37 1 54-1 30-6 52v5q0 8 5 14t13 7h2q51 3 90-11 33-12 55-34 18-19 25-41l1 1q38 66 98 108 70 50 148 52v0q77-2 149-52 62-45 97-108l1-1q7 22 25 41 22 22 55 34 39 14 90 11h2q8-1 13.5-7t5.5-14zm-197-97q-2 0-3-1l-13-1-6 12q-19 37-51 70-34 35-74 56-46 23-93 24-47-1-93-24-40-21-74-56-32-33-51-70l-6-12-13 1q-1 1-3 1-21 0-32-15t-11-43q0-18 6-34 8-25 29-31h37q46-2 88-7 58-7 102-20 13-4 23-4 6 0 19 4l4 1q44 12 101 19 42 5 86 6l36 1q21 6 30 31 5 16 5 34 0 28-11 43t-32 15z"/></svg>