<svg xmlns="http://www.w3.org/2000/svg" viewBox="-10 0 1010 1000"><path d="M953 896 655 239q-6-16-6-30v-61q0-6 4.5-12t10.5-9q15-9 24.5-25t9.5-34q0-28-19.5-48T631 0H381q-28 0-48 19.5T313 68q0 17 8 31.5t21 23.5q6 4 10 10.5t4 12.5v70q0 14-6 30L47 896q-9 19-8.5 38.5t10 34.5T75 992t39 8h770q22 0 39-8t27-23 11-34.5-8-38.5zM266 613 112 932q-3 5-8 5l-4-1q-3-2-4-5.5t0-6.5l154-319q2-3 5-4t6.5.5 4.5 4.5 0 7zm461-49H269q-7 0-9.5-4.5t.5-9.5l136-294q6-12 6-30V106q0-7-3-12t-7-5h-11q-9 0-15-6.5t-6-15 6-14.5 15-6h250q8 0 14.5 6t6.5 14.5-6.5 15T631 89h-14q-6 0-10 5t-4 12v112q0 18 6 30l128 302q2 5-.5 9.5T727 564z"/></svg>