<svg xmlns="http://www.w3.org/2000/svg" viewBox="-10 0 1020 1000"><path d="M500 0Q398 0 305 39q-89 38-158.5 107.5T39 305Q0 398 0 500t39 195q38 89 107.5 158.5T305 961q93 39 195 39t195-39q89-38 158.5-107.5T961 695q39-93 39-195t-39-195q-38-89-107.5-158.5T695 39Q602 0 500 0zm0 933q-117 0-218-59-98-58-156-156-59-101-59-218t59-218q58-98 156-156 101-59 218-59t218 59q98 58 156 156 59 101 59 218.5T874 718q-58 98-156 156-100 59-218 59zm-59-617q0 20-14.5 34.5T392 365t-34.5-14.5T343 316t14.5-34.5T392 267t34.5 14.5T441 316zm177-43q18 10 23.5 29.5T637 340t-29.5 23-37-5-23-29.5 5-36.5 29.5-23 36 4zM264 596q0 57 28 108 13 25 32 45 21 22 44 34 31 15 53 22 32 10 62 10h29q50 0 112-33 45-22 75-74 26-45 26-109V478H264zm56-51h360v55q0 33-12 61t-34.5 46.5T581 736q-32 11-70 11h-27q-75 0-122-42-42-38-42-112z"/></svg>