<svg xmlns="http://www.w3.org/2000/svg" viewBox="-10 0 1021 1000"><path d="M639 625q1 20 1 61v45q0 18-14 31-32 30-72.5 31T480 765q-11-10-20-11t-23 4L47 895q-13 4-17 1.5T26 880V108q0-13 5-17.5T49 86q283 1 568 0 14 0 18.5 5.5T640 111q-1 103-1 310v29q16-7 21.5-17t4.5-24V301q-1-144 0-215 1-15-5-20.5T639 60q-306 2-613 0-16 0-21 5.5T0 86q2 416 0 832 0 15 5 19t20 1l58-12q279-58 418-92l24-6q37-9 55-16 30-10 51-24 15-9 22-16 10-10 11-22 1-36 0-108v-55q-14 6-20 15t-5 23zM161 888q0-2-2-4 81-29 178-65l21-8q53-19 79-29 12-5 21-4t18 10q6 6 21 14l12 6-84 19q-177 40-264 61zm834-634q-1-2-3-7-6-11-9-16-6-8-14-11-17-7-37 11l-59 51q-86 74-128 112l-19 16q-35 29-50 47 16 6 27 20 10 11 17 29l13-11 90-78 3-3q4-4 6.5-5t3.5 2q4 11 8 10.5t8-6.5l4-4q40-33 114-99l8-7q15-12 19-20 7-13-2-31zm-443-51H108q-9-1-13 1-6 4-5.5 14.5T95 232q4 2 12 1h450q9 1 12-1 6-3 6.5-14t-5.5-14q-4-2-13-1zm3 120H109q-10 0-13 2-6 3-6 13.5t6 14.5q3 1 12 1h449q9 0 12-1 6-4 6.5-14.5T570 325q-4-2-15-2zm20 138q1-11-5-14-4-2-14-2H109q-10 0-14 2-6 3-5 14t6 14q4 2 13 1h447q9 1 13-1 6-3 6-14zm100-4q-29 21-84 71-27 24-41 36-21 17-26 24-6 8-1 17 4 7 23 27l1 2q7 8 12 9t13-6l132-117 16-14q-16-3-29-17.5T675 457zm45 49q0 1 1 1zm-45-50 1 1zv1h1zM455 709q-7-1-13 2-4 1-10 6-9 7-14 8l-5 6q-6 8-9 11 11-5 34-10 29-7 42-14 21-12 30-35 4-6 9-8 14-7 14.5-15T522 642q-6-4-12-13t-11.5-10.5T485 627q-13 18-36 20-8 0-13 9l-41 80q10-6 22-12 2-4 8.5-10.5t8.5-9.5q3-6 2-14-1-5 4-8.5t11-2.5q13 0 15 14 1 6-2.5 11.5T455 709zm-321-11q78-26 117-38 20-7 25-10 7-4 6-12 0-6-6-25l-58 18q-65 21-97 30-11 3-15 8.5t-.5 17T116 700t18-2zm142-85zm-188 0q-3 1-10 3l-7 2 9 11q9 11 14 15 2 2 3 7t2.5 7 7 1.5 7.5-4 3-10.5l1-5q9-32 32.5-47.5T206 581q25 3 45 23 6 8 12 5l2-1q3-1 4.5-3t.5-5q-3-7-1.5-22t-2.5-24q-25 18-43 11t-27-37l-9 10q-11 17-15 22-6 6-13.5 5t-26.5-7q-11-3-13 .5t0 10.5v3q9 38-31 41zm210 90q5-1 17-5l2-1-8-10q-9-10-14-15-2-2-3.5-7t-3.5-7-7.5-1.5-7.5 5.5q-2 3-3 11l-1 5q-8 28-30 43.5T187 735q-27-1-50-24-7-7-13-3l-1 1q-6 3-4 8.5t1 18.5q-1 17 3 26 25-20 43-11 15 7 27 37l10-15q8-19 20-24t30 6q11 7 14 2.5t1-15.5q-3-19 4-28.5t26-10.5zm-22-90zm16 32 5-5q14-13 18-23l-10-2q-10-3-14-4-8-1-15 2 6 2 9 8 2 3 3.5 11.5T292 645zm259 7q-26-33-45-50l-5 5 45 50z"/></svg>