<svg xmlns="http://www.w3.org/2000/svg" viewBox="-10 0 1010 1000"><path d="m770 392-287 35q-7 1-8.5 5.5t3.5 8.5l189 189q5 5 11.5 4.5T690 629q41-49 65-105.5T785 407q1-7-3.5-11.5T770 392zm-342 91-36 287q-1 7 3.5 11.5T407 785q60-6 117-30.5T629 690q5-5 5.5-12t-4.5-11L442 479q-5-5-9-4t-5 8zm270-324L494 363q-5 5-3.5 8t8.5 2l271-34q7-1 11.5-6.5T785 320q-12-91-65-160-4-5-11-5.5t-11 4.5zM364 493 159 698q-5 4-4.5 11t5.5 11q69 53 161 65 7 1 12.5-3.5T340 770l34-272q1-7-2.5-8.5T364 493zM789 67l-31 31q-5 5-5 12t4 13q44 55 65 123t17 143q-5 86-41 165.5T698 698q-68 68-154.5 105T366 840q-68 0-130.5-21.5T123 757q-5-4-12.5-4T98 758l-31 31q-5 5-4.5 12t5.5 11q71 61 159 93t183 32q106 0 202-39.5T783 783t115-171 40-202q0-95-32.5-182.5T812 68q-4-5-11-5.5T789 67z"/></svg>