<svg xmlns="http://www.w3.org/2000/svg" viewBox="-10 0 1010 1000"><path d="M198 336H85q-9 0-15.5 6.5T63 358v526q0 10 6.5 16.5T85 907h113q10 0 16.5-6.5T221 884V358q0-9-6.5-15.5T198 336zm-3 528H88v-26h107zm17-567H71q-4 0-6-2.5t-2-5.5v-29q0-4 2-6.5t6-2.5h141q3 0 5.5 2.5t2.5 6.5v29q0 3-2.5 5.5T212 297zm-11-84H81q-7 0-12.5-5.5T63 194v-74q0-8 5.5-13.5T81 101h120q8 0 13.5 5.5T220 120v74q0 8-5.5 13.5T201 213zm447 123H534q-9 0-15.5 6.5T512 358v526q0 10 6.5 16.5T534 907h114q9 0 15.5-6.5T670 884V358q0-9-6.5-15.5T648 336zm-57 530q-14 0-24.5-10.5T556 830t10.5-25 25-10 24.5 10.5 10 25-10 25-25 10.5zm70-569H520q-3 0-5.5-2.5T512 289v-29q0-4 2.5-6.5t5.5-2.5h142q3 0 5.5 2.5t2.5 6.5v29q0 3-2.5 5.5T661 297zm-10-84H531q-8 0-13.5-5.5T512 194v-74q0-8 5.5-13.5T531 101h120q8 0 13.5 5.5T670 120v74q0 7-5.5 13t-13.5 6zm203 113-113 13q-9 2-15 9t-5 16l59 523q2 9 9 15t16 5l113-13q9-2 14.5-9t4.5-16l-59-523q-1-9-8-15t-16-5zm9-40-141 16q-3 1-5.5-1t-3.5-6l-3-29q-1-3 1.5-6t5.5-3l140-16q8 0 10 7l3 29q0 4-2 6.5t-5 2.5zm-20-82-120 13q-7 1-13-3.5t-7-12.5l-9-74q-1-7 4-13t13-7l119-14q8-1 14 4t7 13l8 73q1 8-4 14t-12 7zM435 467H297q-11 0-19 6.5t-8 15.5v396q0 9 8 15.5t19 6.5h138q11 0 19.5-6.5T463 885V489q0-9-8.5-15.5T435 467zm-157-42h176q3 0 5.5-2t2.5-6v-29q0-4-2.5-6t-5.5-2H278q-3 0-5.5 2t-2.5 6v29q0 4 2.5 6t5.5 2zm11-84h154q8 0 13.5-5.5T462 322v-73q0-8-5.5-13.5T443 230H289q-8 0-13.5 5.5T270 249v73q0 8 5.5 13.5T289 341z"/></svg>