<svg xmlns="http://www.w3.org/2000/svg" viewBox="-10 0 1010 1000"><path d="M500 62q-119 0-221 60-99 58-156 157-60 102-60 221t60 221q57 99 156 157 102 60 221 60t221-60q99-58 157-157 60-102 60-221t-60-221q-58-99-157-157-102-60-221-60zm-1 79q0-14 10-23.5t24-8.5q60 4 116 27.5T752 199q10 9 10.5 22.5T753 245l-62 63q-10 10-24.5 10t-25.5-8q-61-45-140-47h-1l-1-33zM109 467q5-61 28-117t62-102q9-10 22.5-10.5T246 247l62 62q10 9 10.5 23.5T310 359q-36 47-44 107-2 14-12.5 24T230 500l-89 1q-14 0-23.5-10t-8.5-24zm393 426h-2q-69 0-134-24t-118-68q-11-9-11.5-22.5T247 754l62-62q9-10 23.5-10.5T358 690q62 45 140 47h1l1 34v44l5 49q2 29 1 29zm-2-201q-52 0-96-26t-70-70-26-96 26-96 70-70 96-26 96 26 70 70 26 96-26 96-70 70-96 26zm254 62-63-63q-10-10-10-24t9-25q36-49 44-109 2-14 12.5-23.5T770 500l89-1q14 0 23.5 10t8.5 23q-4 61-27.5 117T801 753q-9 10-23 10.5t-24-9.5z"/></svg>