<svg xmlns="http://www.w3.org/2000/svg" viewBox="-10 0 1010 1000"><path d="M327 29q-8-13-21-20.5T277 1h-96q-25 0-43 18t-18 44q0 18 9 32l1 1q21 31 33 68t12 76q0 67-33 125-32 55-86 89h-1q-11 7-17 18t-6 24v29h433V291q-1-9-4-19-4-15-12-28zm70 465q-7 0-12-5t-5-12.5 5-12.5 12-5 12.5 5 5.5 12-5 12.5-13 5.5zm138 31h434v-29q0-13-6-24t-17-18h-1q-55-34-87.5-91T825 240q0-39 12-76t33-68l1-1q9-14 9-32 0-26-18-44T819 1h-96q-16 0-29 7.5T673 29L551 244q-7 13-11 28-3 10-4 19l-1 8zm68-67q8 0 13 5t5 12.5-5 13-12.5 5.5-13-5.5-5.5-13 5.5-12.5 12.5-5zm-68 112h434v64H535zm-504 0h434v64H31zm504 107h434v63H535zm-504 0h434v63H31zm938 261V786H535v162q1 11 6 20 6 14 19 21 17 10 43 10h298q26 0 42-10 13-7 20-21 5-9 6-20zm-366-86q-7 0-12.5-5.5T585 834t5-12 12.5-5 13 5 5.5 12-5 12.5-13 5.5zm-138-66H31v162q1 11 6 20 6 14 19 21 17 10 43 10h298q26 0 43-10 13-7 20-21 4-9 5-20zm-68 66q-7 0-12-5t-5-12.5 5-12.5 12-5 12.5 5 5.5 12-5 12.5-13 5.5z"/></svg>