<svg xmlns="http://www.w3.org/2000/svg" viewBox="-10 0 1010 1000"><path d="M502 84q108 3 192 37 93 37 161 113 52 57 71.5 125t4.5 137-63 129q-68 85-166 159-81 61-195 123h-1q-11 7-18 8-10 3-18-2t-8-14q-1-6 2-17l2-10q6-35 5-49-2-16-16-24-11-6-45-13-69-14-123-39-61-27-109-68-74-65-102-151-26-84-2-168 25-87 98-154 67-62 152-92 79-28 178-30zm79 365q-2 2-5 3l-2 1q-37-47-76-100-7-9-14-13t-16-1q-17 5-17 28-1 52-1 155 2 31 24.5 30.5T497 521v-81q22 21 45 48 13 16 38 49 8 9 13 13 8 5 17.5 2t12.5-10.5 3-18.5V368q0-31-23-30-13 1-18 11-3 6-4 21zm76-6zv79q0 13 5.5 21.5T681 553q44 3 87 0 10-1 16-7.5t5-16-6.5-14.5-14.5-6q-14-2-44-2-11 0-16-4.5t-4.5-15.5 5-14.5T723 469q27 0 40-1 26-2 26-24 0-18-24-22-5-1-15.5-1H728q-13 1-17-2-8-4-7.5-17t6.5-17q4-2 15-2h10q6-1 19 0h9q12-2 19-7t7-16-7-17q-5-3-17-6-44-10-67-5.5T666 357t-9 66zm-439 2v76q0 14 6.5 23t20.5 10q45 2 83-1 10-1 16.5-7t6.5-16q0-18-24-22-16-2-24-1-23 4-31.5-6t-6.5-34q1-21 0-61v-31q0-18-3-25-6-12-21-11.5T221 350q-3 7-3 23zm153-5q0 56 1 84 0 13 6 21t18 7 17.5-8.5T419 524q0-106-1-159 0-13-5.5-20t-17.5-7q-23 0-23 27v37z"/></svg>