<svg xmlns="http://www.w3.org/2000/svg" viewBox="-10 0 1010 1000"><path d="M894 196q-49-53-87-88-32-30-72-40.5t-80-.5-72 39.5-94 92.5l-40 41q0 2 1 2h6q62 0 110 27 4 2 6 1.5t5-2.5l1-1q37-39 76-76 18-18 40.5-18t40.5 18q38 36 74 74 18 18 18 40.5T810 345Q695 462 578 577q-11 11-25 14-30 9-56-17-21-20-62-61-4-5-11-5t-12 5l-54 54q-4 4-4 11t4 12q44 46 67 68 31 30 72.5 40.5t83 0T653 658l117-117q85-84 125-127 28-29 37.5-69t-.5-79.5-38-69.5zM548 758h-2q-63 0-113-27-3-3-5.5-2t-5.5 4q-25 26-75 76-19 18-41.5 18T264 808q-46-46-70-69-22-22-22-44.5t22-44.5l223-222q3-4 7-7 13-12 30-14.5t32 6.5q10 4 19 15 40 40 60 59 5 5 12 5t11-5l18-18q25-24 37-37 5-5 5-11.5t-5-11.5l-15-15q-41-42-63-61-30-26-69-34t-77 2-67.5 37.5T265 424l-70 70q-61 60-89.5 90.5t-38 70.5.5 79.5 38 70.5q42 45 87 87 31 30 71.5 40.5t80.5.5 71-39q33-31 96-95l39-39q0-2-3-2z"/></svg>