<svg xmlns="http://www.w3.org/2000/svg" viewBox="-10 0 1010 1000"><path d="M931 347q-21-6-38-15h-1q-6-2-6-5.5t-4-8.5l-2-1q-10-8-20-14-3-3-2-6 4-13 .5-21.5T844 260q-31-17-70-17-19 0-28 3l16 3q27 4 43 11 9 5 13 13-35-15-81-15t-79 19h9q15 0 23 3 11 5 2 12-7 5-17 7-24 4-51-8-2 4 2 12 6 16 23 24l1 1q3 2 3 3.5t-3 2.5l-2 1q-4 0-12 2-17 3-26 5-14 4-25 11-14 8-21 22 25-7 41.5-5.5T627 382q3 6 1.5 11.5T622 405l-7 7q-16 13-45 22l-3 1q-6 2-11 1 24-8 39.5-19.5T615 392q-34 19-60 27-47 15-86 4-55-16-113-4-20 3-33 10-16 8-25 23-5 10-15 16-6 5-19 10l-6 3q-34 15-51 21-30 10-54.5 13t-42.5-6-27-32q-10-28 8-47t45-17q16 1 26.5 8t12.5 20q4 17-.5 22t-20.5 4q-2 0-2-1-11-2-14-6.5t1-16 15-19.5q-28-2-42 23-11 19 0 34l1-2q7-10 14-12-3 7-1 13 0 9 4.5 16.5T142 506h2q3 1 4 .5t0-4.5q-3-12 7-22 8 11 21 15t21-2q-17-13-9.5-27.5t4.5-28-16-23.5q-18-14-43.5-14T88 414q-25 18-26 44 0 45 41 65 17 9 39 10 16 2 40-1 41-4 91-23l4-1q6-3 8.5-2t4.5 6q0 4 1 5l3 6q4 10 15 29l5 8q-17-13-35-48v12q6 27 29 57l1 1q3 6 1 10-9 27-25 39-4 3-4 7.5t4 10.5l5 10q6 12 8 18.5t-1 14.5q-6 18-24 27 10 2 22-6-1 3-3.5 8t-3.5 8q-3 12 8 13h22q20 0 30 5 7 5 16-3t8-17q-3-14-16-15-3 0-3-1-3-5-6.5-5.5t-9 2-8.5-3-5-17.5v-1q-2-20 1-31 5-15 19-24 8-4 10-8 4-5-1-14 6 4 7 7v1q6 23-4 43-4 9-3 11.5t8 8.5l7 5q15 12 21.5 19.5t8 15.5-2.5 17q-6 12 9 14 28 3 53-1 8-1 8.5-3.5T462 737v-3q-1-6-6.5-6.5T449 725q-5-6-14.5-4.5t-14.5-6-6-12.5q-8-21-5-48 1-6 6-11 44-36 49-101 1-19-4-49 11 18 13 38 2 18-2 41-3 20-15 38-9 14-26 31 23-10 38-22 18-15 26-35 2-3 3-4t4 0q18 9 36 15 20 8 36 9 19 3 36-2 3 0 5 1 19 10 25 30l1 4q0 3 1 5 4-9 3-19-3-13-11-28-2-2-2.5-7.5t.5-9.5q24 34 16 68-1 3-1 10 4 16 4 24 2 18-2 27-7 14-19 18 3 2 10 3l3 1-4 11q-1 6 0 9t6 4q29 8 55-2 4-2 6-6.5t-1-7.5q-8-10-16-11-10 0-12-11-2-14 0-21 6-13 11-41 5-25 10-37l2-8q3-11 5-32l3 9q3 10 5 15l1 2q4 9 6 10t11-3l14-5q16-5 23-6t11.5 4 3.5 11q-6 25-24 32 6 2 12 0 3-1 10-5l3-2q-3 14-11 19-10 8-11 22.5t5 26.5q6 9 15 3l1-2q3-2 5-3 10-4 14.5-11.5T803 675q-6-17 5-39l3-8q7-14 8-22 4-11-5-16-3-1-8-7l-8-8q-23-25-37-35-2-1-1.5-2t2.5-3q15-10 19-25t-1-34q-3-8-11-24 14 8 21 28 6 16 2 32-4 14-14 30 31 0 52-17 29-22 17-50v-1q10 11 10 22.5t-8 25.5q14-12 16-21 5-15-6-33-6-9-20-24l-5-6q-16-16-21-33-5-14-1.5-25t15.5-20q-1 2-3 5l-2 4q-5 16-3 24 6 23 21.5 31.5T878 426q8-2 15-.5t15 11.5l2 2 1-5q3-13 4-20 1-3 .5-4.5T912 407q-7-1-11-10v-1q-3-6 0-8 6-6 14-4 5 1 2 9v0q0 1 1 1 6-6 6.5-9.5t2.5-4.5q6-3 8-9 2-4 3-12v-3q0-8-7-9z"/></svg>