<svg xmlns="http://www.w3.org/2000/svg" viewBox="-10 0 1010 1000"><path d="M828 62H172q-22 0-38.5 16T117 117v766q0 22 16.5 38.5T172 938h656q23 0 39-16.5t16-38.5V117q0-23-16-39t-39-16zm-188 90h158v55H640zm-441 0h159v55H199zm621 725H180V290h640zM268 443h468q12 0 20-8.5t8-20.5-8-20-20-8H268q-11 0-19.5 8.5T240 414t8.5 20 19.5 9zm0 116h468q12 0 20-8t8-20-8-20-20-8H268q-11 0-19.5 8.5T240 531t8.5 19.5T268 559zm0 117h468q12 0 20-8.5t8-19.5-8-19.5-20-8.5H268q-11 0-19.5 8t-8.5 20 8.5 20 19.5 8zm0 117h468q12 0 20-8.5t8-20-8-20-20-8.5H268q-11 0-19.5 8.5T240 765t8.5 20 19.5 8z"/></svg>