<svg xmlns="http://www.w3.org/2000/svg" viewBox="-10 0 1010 1000"><path d="M823 612h-87q-5 0-9 3.5t-4 8.5v87q0 5-3.5 8.5T711 723H289q-5 0-8.5-3.5T277 711v-88q0-5 3.5-8.5t8.5-3.5h84q5 0 6.5-2.5T377 602L230 456q-4-4-9-4t-8 4L65 603q-3 4-2 6.5t6 2.5h82q13 0 13 6v129q0 40 24.5 64.5T253 836h494q39 0 64-24.5t25-63.5V618q0-2-4-4t-9-2zm108-224h-83q-5 0-8.5-2t-3.5-4V252q0-38-25-63t-64-25H252q-39 0-63.5 25T164 252v130q0 2 3.5 4t8.5 2h88q5 0 8.5-4t3.5-9v-86q0-5 3.5-8.5t8.5-3.5h423q5 0 8.5 3.5t3.5 8.5v87q0 5-3.5 8.5T711 388h-84q-5 0-6 2.5t3 6.5l146 146q3 4 8 4t9-4l148-146q4-4 2.5-6.5T931 388z"/></svg>