<svg xmlns="http://www.w3.org/2000/svg" viewBox="-10 0 1010 1000"><path d="M504 523q-42 38-62 57l-7 7q-7 7-10 9-7 5-9 13-2 6-2 16 0 105-11 176l-1 4q-1 22-16 34-11 10-34 15-54 12-133 7-49-5-94-19-25-8-39.5-26T66 771q-4-23-4-51 1-18 2-51l1-11q6-84 7-126 1-54 27-112 63-139 172-247 10-10 25-20 10-7 18.5-7t17.5 9q19 19 27 38 24 48 33 122 8 58 18 169v1q1 2 1 4l12-13q11-12 18-18 11-9 15-20.5t4-27.5q-1-58 0-174v-99h80v105q-1 123 0 185 0 9 6 17 16 22 35 44 4 4 7 8l3-40q7-107 23-181 6-29 12-48 8-25 19-45 8-13 23-28 9-7 18-7.5t17 6.5q32 26 46 40 97 105 150 224 29 63 29 129 1 33 6 98l3 49q1 31 0 47-1 26-7 46-13 41-50 54-53 19-124 22-55 3-98-6-28-6-39-12t-16-17q-3-7-7-31l-1-7q-11-77-9-175 0-14-10-23z"/></svg>