<svg xmlns="http://www.w3.org/2000/svg" viewBox="-10 0 1020 1000"><path d="M995 445q-11-66-51-121t-99.5-88T718 200q-125-6-217 74 3 4 10.5 11t10.5 11q-3-4-10.5-11T501 274l-5-3q-85-71-194.5-72T108 269Q12 349 2 472q-9 87 29 159 77 152 245 168 82 9 159-30 30-15 66-44 68 61 161 73 99 12 183-35 57-32 94.5-82t52-111 3.5-125zM489 297h32q5 5 15 17 1 0 2 1l4 6q6 7 8 12-2-5-8-12l-4-6q-1-2-4-1h-69q7-17 24-17zm-28 36h88q6 7 11 16 2 0 2 2l3 6q5 7 6 12-1-5-6-12l-3-6q-1-2-5-2H441q2-9 6.5-12.5T461 333zm-37 47q2-6 6.5-8.5T442 369h129l14 31-1-4q-3-8-5.5-9.5T567 385q-93 0-139 1-4 0-4.5-1t.5-5zm-20 77v-1zm2 0h-1zm-3-2v-1zM219 594h-29q-4 0-5-1t0-5l18-98q4-21 5-34h-1l-54 133q-3 6-9 5h-31q-7 1-7-7-2-40-7-123l-1-9q-2 6-3 17l-1 5q-14 74-20 111-1 4-2 5t-5 1H39q-3 0-4-.5t0-4.5l30-176q2-6 7-6 28 1 56 0 4 0 5 1.5t1 5.5l6 100q2 0 3-3l1-1q26-64 40-97 2-6 8-6 29 2 58 0 4 0 5 1.5t0 5.5l-4 26-27 150q0 4-5 4zm140 0h-22q-8 1-7-7v-5q1 0 1-1v0h-1q-20 14-41 15-19 1-31-7.5t-15.5-23T245 536q13-34 55-37 24-2 36-2 6 1 6.5-6.5t-5-12T323 473q-31 0-58 8 5-19 10-32 0-2 3-3l2-1q7-3 23-4l16-1q24-1 37 4 25 9 30 30 2 5 0 16l-19 98q-1 7-8 6zm68 28q0-1-1.5-3t-.5-4 4-1h140q8 0 10-2l-8 19v0H442q-7 0-10.5-1.5T427 622zm90-94v-1zm0-1 1-1h-1zm-70 133q-1-2-5-8h110q6 0 10-3l-14 23v-2q-2-3-9-2l-5 1q-36-2-72 0-11 0-15-9zm55 63 6-6q8-6 11-11-2-2-6-1h-3q-5-1-16.5-1t-15.5-2-11-13q2-2 7-1h53q11 0 14-7l3-4q-20 27-42 46zm128-249q-8-2-22-2h-8v1q1 7 1 21l-1-22h-7q-1 1-2.5 1t-3.5 1-4 3v0q-1 0-1 1-2 2-3 4-3 7 4 13h1v1l3 2q5 2 8 3l2 1 4 1v-7 7h2q14 4 21 11 8 8 9 21 3 36-24 51-9 5-24 7l-5 1-43-1-12-2q0-1-1-1h-3l-1-1h-2v-1h-1v0q-2-2 0-8l3-17v-4l2-2q1-1 4 0h3q21 6 42 5 7 0 11-3t6-12q1-5-2-8-1-2-5-3l-25-11q-10-5-15-11l-4-5-3-11q0-4-1-6 0-19 10-35 9-11 32-17h-96l13 4 8 4 5 4q3 2 5 4.5t4 6.5l3 6 3 10q3 12 1 30l-3 17-1 1v1h-1 1-1l-2 1q-1 0-1-1h-76q-6 0-10 2-2 1-2 6 1 1 1 3l2 4 3 4q2 4 3.5 5.5t6.5 3.5l2 2 3 1q4 2 6 2l11 1h11q10 0 15-1l10-4q4-1 10-5h3v5l-1 3v3l-3 14q0 4-1 6l-1 3-2 2-4 2-5 1q-4 2-7 2-19 5-43 1l-6-1q-8-2-11-4h-2v0l-4-2h-2v-1h-1q-1 0-1-1v0h-1l-1-1-3-1q-34-22-29-67l1-13 3-12 5-11q6-13 17-24h-2 2l8-6q1 0 4-1l1-1q2-2 4-2l2-1q2-1 3-1 4-2 14-4l4-1h8q14 0 20 1h97l20-2q-2-13-4.5-15t-15.5-2h-53q-71-1-106 0-4 0-5-1t0-5l1-2q2-7 4-8t10-1h152q4 0 5.5-1t1.5-3v1q6 18 8 27v1q2 6 2 9h21l20 2q4 1 5 2t0 4l-1 4q-3 12-4 19-1 3-2 4.5t-4 .5zm-223-17 1-1zm308 17h-16q-5 0-5 5l-1 9q-8 43-12 64 0 9 7 10 9 3 18 0 3-1 4-.5t1 4.5l-1 2q-1 6-1 9-1 9-3 11t-11 4q-20 5-39 0-10-3-13.5-8t-2.5-15l16-101 10-55q0-6 5.5-5.5t15 .5 14-.5 5.5 1 0 5.5q-2 8-4 24-1 3 0 3.5t3 .5h16q4 0 4 5l-5 23q0 5-5 4zm59 32q-4 20-11 61l-2 12q-2 11-4.5 13t-15.5 2h-18q-3 0-4.5-1t-.5-4l21-121q2-7 4-21 0-5 6-5h31q3 0 4 1t0 4l-3 17q19-27 50-23-10 15-15 37 0 2-3.5 2.5t-11.5.5q-23 5-27 25zm172 66q-30 31-78 23-28-4-44-24t-14-49q1-21 7-36 7-18 23-30 20-15 49.5-16t49.5 13q27 20 27 61 0 35-20 58zM616 439q-3 0-10-1h-11zm-289 83q-7 1-15 3-15 4-21 11-4 4-4.5 10t1.5 10.5 6 5.5 10 1q15-2 22-8.5t9-22.5q2-7 1-8t-9-2zm138-50q-12-2-22 4.5T432 496q-1 4 3 4h43q3 0 4-3 2-8-3.5-16t-13.5-9zm-42 29q-3 1-3 5l-4 16q-1 4 3.5 4t5.5-1 1.5-4.5T429 509v-2q1-4 0-5.5t-4-.5zm466-26q-12 2-19 13-7 9-9 21-2 9-1 23t9.5 20.5T892 555q9-2 17-14 9-18 9.5-35.5T911 480t-22-5z"/></svg>