<svg xmlns="http://www.w3.org/2000/svg" viewBox="-10 0 1010 1000"><path d="M375 188q3 3 4 8t0 9l-17 56q-1 4 .5 5.5t5.5.5l55-21q4-1 9-.5t8 2.5l48 34q3 2 5 .5t2-5.5l-3-58q0-4 2-8.5t6-6.5l46-35q7-6-2-9l-55-15q-10-4-13-12l-19-55q-1-4-4-4t-5 3l-31 49q-2 3-7 5.5t-9 2.5l-58 1q-4 0-5 2.5t2 5.5zm384 107q-7 0-15-4.5T733 280l-54-87q-4-7-8.5-6.5T664 194l-37 95q-3 7-9.5 13.5T604 310l-99 24q-7 1-8 5.5t4 9.5l80 64q5 4 8.5 12t3.5 16l-8 102q-1 7 3 9.5t10-2.5l86-55q6-4 15-4.5t15 1.5l95 39q6 3 9.5 0t1.5-10l-26-98q-2-7-.5-16t6.5-15l67-77q5-5 3-9.5t-9-4.5zm176-126-32-9q-6-2-8-7l-11-32q-2-5-5 0l-18 28q-3 4-9 4l-34 1q-2 0-2.5 1.5t.5 3.5l21 26q4 5 2 10l-10 32q-1 2 .5 3.5t3.5.5l32-12q2-1 5-.5t5 1.5l27 19q2 1 3.5.5t.5-2.5l-1-33q0-6 4-10l27-20q4-4-1-5zM350 553 172 734l-94 95q-14 14-15.5 32T73 891l25 25q12 12 30.5 10.5T160 911l318-317-74-96zm75-75 71 99 57-58-74-96z"/></svg>