<svg xmlns="http://www.w3.org/2000/svg" viewBox="-10 0 1010 1000"><path d="m377 730-22-57-29 3-11-28 59-7-31-265-206 24-6 28q-8 27-9 64-8 0-20 2-6 1-13 1-13 2-20 11.5T63 528l3 30q1 11 12 19t21 7q1-1 6-1l27-3q10 31 23 60l13 25 59-7 86 226 88-10-54-140zm309-496q-31 31-76 58-38 25-103 50-57 22-135 31l20 166q4 39 7 57l4 42q74-9 138-1 58 7 112 25 46 15 88 38 38 23 64 43l-66-565q-21 26-53 56zm251 210q-3-30-29-48.5T851 380l-28-239q0-11-7.5-19t-24.5-6q-5 2-11 9-9 9-17 21l72 623q11 10 21 16.5t14 6.5q15-1 21-11 5-8 5-22l-28-232q30-4 52-29 20-23 17-54z"/></svg>