<svg xmlns="http://www.w3.org/2000/svg" viewBox="-10 0 1010 1000"><path d="M359 1000H131q-32 0-32-32v-48q2-31 32-31h96q6 0 8.5-2t1.5-8v-5q2-8-1-11t-11-2q-23 1-46.5.5T155 838q-1-7 0-23v-11q0-14 6-19.5t19-5.5q53-1 161-1 152 0 228 1 17 0 22.5 5.5T597 807v45q0 5 1.5 6t5.5 0q46-8 83-36.5t57-70.5 18-88q-3-71-47.5-122T600 477q-9-2-16 4-51 34-103 4l-138-80q-11-7-13-14t5-18l33-57q60-105 91-157 6-11 13-13t18 4q43 24 129 74 10 6 12 13t-4 18l-35 60-2 2q-5 7-2 10l1 1q8 10 16 11 103 10 182 80 95 83 110 204 23 173-106 291-79 73-184 83-32 3-96 3zm198-597q0-12-8-20t-19-8-19 8-8 19.5 8 19.5 19 8 19-8 8-19zm-87 119q0 2-3 8l-14 25q-14 25-21 38-6 10-13 11.5t-17-3.5l-131-76q-17-10-7-28l9-16q16-30 25-45 10-19 30-8 86 50 130 75 12 7 12 19zM716 99q-11 24-21 33-6 6-15 0-18-10-26-15-9-7-13 3l-33 57q-2 4-4.5 5t-6.5-2l-58-34q-4-2-4.5-4.5t1.5-6.5l12-21q13-23 20-33 4-7 2.5-10.5T563 64q-11-6-23-13-8-5-9-10t3-13l12-21q8-11 21-5 92 54 139 81 10 6 10 16z"/></svg>