<svg xmlns="http://www.w3.org/2000/svg" viewBox="-10 0 1010 1000"><path d="M272 922q80 3 238 10l119 5V251H272zm233-397h16l-1 37h1l4-11 11-26h17l-18 36 17 46h-17l-11-34-4 6v27h-16zm-46-1 16 1-1 68h21v13h-37zm-30 0h16l-1 81h-16zm-74-1h17l7 35q3 16 4 23l6-28 7-29h16l4 81h-14l-1-28v-27l-13 54-12-1-8-38q-2-11-3-16v0q0 11-2 27l-1 29-14-1zm375-252q-2-5-4-5l-86-15v683l81-50q5-3 7.5-6.5T731 867q-1-196-1-589v-2q1-4 0-5zm-53-133H513l-9 9q-7 8-11 10-33 21-75 15-18-3-21-11.5t8-23.5q-51 0-75 1-5 0-7 6-32 56-47 84l-7 12 7 1h348q8 0 11-8zm-153 59q-25 15-42 21-39 14-72 4-11-3-14.5-8t-3.5-16v-31q17 12 42.5 12t48.5-10 31-25l6 14q7 15 9 23 1 3-.5 8t-4.5 8zm-107-70q5 0 17-2 38-11 63-1 8 3 16 3 53 1 161 1h9l2-3V87q0-16-4-20.5T661 62H354q-7 0-12 1t-8.5 4.5T330 76q-1 11 0 34v17h11q37 1 76 0zm225 115q58 10 89 15l-44-118-17 38q-18 41-27 61-1 1-1 4z"/></svg>