<svg xmlns="http://www.w3.org/2000/svg" viewBox="-10 0 1010 1000"><path d="M627 594 500 437 373 594l-76 314q-3 11 4 20.5t18 9.5h126v-91q0-23 16-38.5t39-15.5 38.5 15.5T554 847v91h127q11 0 18-9.5t4-20.5zm-278-83 131-164q-24-9-34-33L283 445q-13 13-13 32.5t13 33 32.5 13.5 33.5-13zm205-197q-10 24-34 33l131 164q14 13 33.5 13t33-13.5 13.5-33-14-32.5zm-108-41q10-24 34-33L349 76q-16-14-34-14t-31.5 13.5-13.5 33 13 33.5zm108 0 163-131q14-14 14-33.5t-14-33T684.5 62 652 76L520 240q24 9 34 33zm-93 20q0 16 11.5 27.5T500 332t27.5-11.5T539 293t-11.5-27-27.5-11-27.5 11-11.5 27z"/></svg>