<svg xmlns="http://www.w3.org/2000/svg" viewBox="-10 0 1010 1000"><path d="M894 318v-34l-18 8q-107 68-110 188 0 12-2 16-4 5-18 4-28-4-57 3-25 6-54 22-11 6-13 13t3 19q21 45 10.5 90T589 720t-86 26q-31-1-57 11-22 10-44 33-8 8-16 11.5t-19 3.5q-120 0-190 106-11 17-8.5 21.5T191 937h225q300-1 450 0 18 1 23.5-6t4.5-24zM505 904q-16 1-26.5-9.5t-11-26 9-26 26-11T529 841t10.5 25.5T530 893t-25 11zm218-57q-18 1-30-11t-12.5-30 12-30.5 30.5-12 29.5 12.5 11.5 29.5-12 29.5-29 12zm44-195q-13 1-21.5-5.5T736 627q1-14 8.5-22t20-9 20 6.5 8 21T786 644t-19 8zm74-226q-8-1-12.5-5.5t-4.5-13 5-13.5 13.5-5 13.5 5 4 14-6 14-13 4zm-187-81 5 1 111-200q18-32 20-42 4-14-8-21-9-6-45-18h-1q-11-4-16-1.5T713 77q-9 45-29 133zM545 611q-24-5-73-17l-90-20q-23-5-30-5-8 0-11 9-2 6-3 29v3q-1 9 2.5 13t12.5 3l191-12zm-39 78q-48 2-71 3-14 1-16 3.5t2 16.5q1 4 2.5 5t5.5 0l77-27zm-62-312q-29-19-49-35-7-8-15 3-106 120-158 180l-37 43q-47 53-70 79-8 9-8.5 15.5t8.5 13 24 20.5l10 9q6 5 10.5 4t9.5-7l275-313q4-4 4.5-6.5T444 377zm205 20q-36-32-83-65-35-23-89-57-79-47-181-79-14-4-24-1t-18 14q-6 7-5.5 10t7.5 7q92 47 190 118t149 118q5 5 8.5 5t7.5-5l40-47q3-2 7-8-1-4-6-8zM482 245q2 1 7 4 28 16 41 25 6 4 9.5 3t7.5-6l3-3q5-6 5-10.5t-6-9.5l-40-34q-4-4-9.5-2.5T485 224l-6 7q-4 4-3.5 7.5t6.5 6.5zm366 18q8-7 5-12-1-3-8-8l-6-4-1-1q-4-7-8-9-5-2-11 7l-25 36q-28 40-42 61l4 4q45-35 92-74z"/></svg>