<svg xmlns="http://www.w3.org/2000/svg" viewBox="-10 0 1010 1000"><path d="M822 154 707 261H293L178 154l10-13q14-15 30-28 23-19 48-31 31-15 63-18 38-4 71 6 19 6 49 23 17 9 26 13 13 5 25 5t25-5q9-4 26-13 30-17 49-23 32-10 70-6 33 3 64 18 25 12 48 31 16 13 30 28zM516 668v80q19-3 30-15t11-26-10.5-24.5T516 668zm-68-104q0 11 9 21t23 15v-72q-13 4-22.5 14t-9.5 22zm444 278q-3 7-6 15-8 18-21 33-18 21-43 33-31 15-70 15H248q-40 0-70-15-25-12-43-33-13-15-21-33l-6-15q-13-60-15-117-1-53 7-103 8-45 24-88 13-37 33-73 16-29 36-57 17-21 34-41l25-25 10-8h476l10 8 25 25q17 20 34 41 20 28 36 57 20 36 33 73 16 43 24 88 8 50 7 103-2 57-15 117zM617 700q0-34-21-55.5T516 610v-81q23 9 29 33l62-7q-6-31-28-49t-63-23v-20h-36v20q-41 4-67 27t-26 56 23 58q21 23 70 35v87q-15-7-24-18-11-13-14-28l-64 5q6 40 33 64 28 22 69 26v38h36v-39q49-6 74-31 27-27 27-63z"/></svg>