<svg xmlns="http://www.w3.org/2000/svg" viewBox="-10 0 1010 1000"><path d="M440 545q13 7 31.5 5.5T500 539q14 11 28 12t31-5q11-5 9-12-1-4-3.5-8t-6.5-5q-33-13-58 6-12-10-27-11t-31 5q-3 1-5.5 5t-3.5 7.5 7 11.5zm177-62q21 3 37-13t15-38-15-36-35.5-14-36 14-15.5 37q-1 20 15 36t35 14zm134 138q-19-10-37 3-31 23-76 38-58 20-142 22-7 0-21-2l-15-1q-20 0-29-2l-16-4q-45-11-67-19-17-6-49-25l-11-7q-17-9-31-6-18 5-24 22-3 10-1 19t10 15q20 17 41 29 54 28 115 39 45 9 102 11l43-3q20 0 38-3l21-4q30-7 44-11 63-18 106-51 8-6 12-12 5-7 5-16 1-21-18-32zm172-300q-21-41-62-60-38-18-83-11Q687 78 493 81q-91 1-158.5 43.5T223 249q-52-5-88 14-46 24-62 70l-3 8q-5 13-6 20v4q-3 22 0 40 2 11 10 30l3 7q18 40 57 60l24 11q-11 24-16 41-14 41-11 89 6 76 57 140 35 46 96 82 50 28 105 42 23 5 43 8 31 5 75 3 73-3 147-24 27-11 51-24 36-20 66-45.5t56-62.5q34-52 41-105 9-74-24-140l-2-4q69-24 88-88 19-54-7-104zM198 449q-33-2-51-24-14-18-14.5-40.5T145 343q8-13 25.5-20.5T202 317l-1 10q-4 27-3 40 1 18 5 52l3 19q2 12-8 11zm600 201q-8 46-34 81-31 43-79 71-53 32-118 44-47 8-89 5-88-7-153-43-50-28-83-71-26-32-37-75-14-61 9-116 19-44 50-74 7-7 9-13t0-15q-9-35-6-78 7-79 49-128 30-35 66-46 31-9 67 10 39 20 49 70 1 5 1 17h3q-1-25 12-50 24-41 72-49 24-4 46 5 17 8 37 26 46 40 59 110 10 46 4 87l-7 36q-2 7 3 11 33 27 57 76 14 33 16 73 1 12-3 36zm15-202q-1 0-2 1-11 2-15-3-2-4-2-7l2-13q5-28 6-41.5t0-40.5l-1-27q20-2 39.5 11.5T866 365q8 29-7.5 54T813 448zm-430 35q20 2 35.5-13.5T434 435q0-24-15-38.5T382.5 382 347 396.5 332 434q-1 20 15 35.5t36 13.5zm78 436h1z"/></svg>