<svg xmlns="http://www.w3.org/2000/svg" viewBox="-10 0 1020 1000"><path d="M461 499zv-2q0-5-3.5-9t-8.5-4h-68q-5 0-9 4t-4 9l1 3h-1q0 7-2.5 8.5T357 510H109q-9 0-12.5-3.5T93 494V340q0-10 4-13.5t12-2.5h90q10 0 13-2 6-3 6-13t-5-12q-3-2-11-2h-2q-121 0-181-1-11 0-15 4.5T0 314q1 213 0 424 0 12 4.5 16t15.5 3h424q10 0 14-3t3-13v-77q1-107 0-158zm-30 11q16 2 16 15.5T432.5 541t-28.5 0q-8 0-13.5-4t-4.5-12q1-16 20-16h10q10 0 15 1zM30 324q7-1 19 0h9q9 0 14.5 4t5 12-5.5 12-14 4H40q-7 1-10 0-14-3-14-16.5T30 324zm31 403H35q-19 0-19-15-1-18 20-16h26q7 0 11 4t4 11-4 11-12 5zm-4-61q-2-1-7 0h-3v-1h-6q-8 1-12 0-7-1-10.5-5T16 649q0-14 13-14 10-1 30-1 9 0 14 4t4 12q-1 16-20 16zm6-63q-4 1-13 1H40q-7 1-10 0-7-2-11-6.5T16 586q2-10 10-13 4-2 16-2h8q12 0 17 1 8 3 10 13 4 14-14 18zm-1-62H49l-13 1q-21 0-20-17 0-8 5-12t14-4h11q10 0 15 1 16 2 16 15.5T62 541zm2-93q13 3 13 15 0 14-14 16H35q-19 2-19-15.5T36 448zm-1-31H49l-14 1q-19 0-19-16-1-8 4-12t14-3h28q15 0 15 15 0 6-4 10.5T63 417zm291 310q-28-1-83 0h-81q-53-1-80 0-10 0-14-3.5T93 710V556q0-9 3.5-12.5T109 540h246q8 0 11.5 3t3.5 12q-1 78 0 156 0 10-3.5 13t-12.5 3zm75 0h-26q-8 0-12.5-4t-4.5-11q0-16 17-16h26q9 0 14 4t4.5 11.5T442 723t-13 4zm-1-61h-21q-21 0-21-17 0-9 5.5-12t14.5-3h24q18 0 17.5 15T428 666zm6-63q-4 1-13 1h-9q-8 0-12-1-14-3-14-16 0-6 3.5-10t9.5-5q18-1 35 0 6 1 10 5t4 11q-1 11-14 15zm101-159h-93q-102-1-153 0-10 0-14.5-3.5T270 426q2-123 0-246 0-10 4-13.5t14-3.5q200 2 400 0 10 0 13.5 4t3.5 14v63-2 101l6-1q15-2 22-2v-1h2v-11q-2-89 0-176 0-11-4-14.5t-15-3.5H262q-12 0-16 3.5t-4 15.5v302q0 12 4 15.5t16 3.5q115-1 230 0h9q9 1 13 0 8-13 21-30zM379 291q19 1 33.5-14t13.5-33.5-14.5-31.5-33-12.5-32 13.5-12 32 13.5 32.5 31 13.5zm189 118q28-25 60-41l-75-114q-1-2-3.5-2.5T545 253l-58 82q-1 3-5 1l-53-26q-3-1-5 1l-85 90q-2 2-1 5t4 3zm188-39q-68 0-125.5 32.5T539 492t-34 124 33.5 124 90.5 91.5T752 866t123.5-33.5 91-90.5 33.5-123.5T967 495t-89-91-122-34zM596 647v-4q7-15 16-19 6-3 12-3 2-1 4 0t2.5 3.5-1 4.5-3.5 2q-15 3-19 16-1 4-4.5 3.5T596 647zm25 31q-2 4-7 4-2 1-3.5-1.5t-.5-5.5q8-29 37-38l9-1q3-1 5.5 0t3 4-1 4.5-5.5 2.5q-19 2-29 15-7 8-8 16zm192 26q-14 2-24.5-3.5T774 686q-9-14 2-28t27-17q4-1 12.5-1t18.5 5h1l1-8 1-24q1-6 1-19 1-6 1-19 1-6 1-19 1-6 1-16 0-2-1-2l-79 8q-10 2-17 2l-14 2q-8 0-12 1-1 0-1 1l-2 51q-1 7-1 21l-1 29q-1 7-1 21-1 5-2 14.5t-6 14.5q-10 12-26 15l-7 1h-6q-11 0-22-8-7-5-12-15 0-3-1-5v-6q1 0 1-1v0q1-8 8-16 14-13 34-13 12 0 20 4 1 0 1-1 0-10 1-16l3-83q0-16 1-24 0-17 1-25 0-1 1-1 5-1 17-1 16-2 25-2h2q16-2 24-2 16-2 25-2l30-3q11 0 31-2h4v8l-2 26v20l-2 32-2 58q-1 8-1 25l-2 13q-2 7-11 14-9 9-26 11zm43 17q-4 0-5 2h-4q-4-4-3.5-7t5.5-5q12-3 15-15 0-6 6-6 3 1 4 2.5t1 5.5q-4 16-19 23z"/></svg>