<svg xmlns="http://www.w3.org/2000/svg" viewBox="-10 0 1010 1000"><path d="M209 319h-19q-21 0-35.5 15T140 370v251q0 21 14.5 36t35.5 15h19q21 0 36-15t15-36V370q0-21-15-36t-36-15zm471 58q-33 0-61.5 16.5t-45 45T557 500t16.5 61.5 45 45T680 623t61-16.5 44.5-45T802 500t-16.5-61.5-44.5-45-61-16.5zm56 171-9 8q-2 3-6 3t-6-3l-29-28q-6-7-13 0l-29 29q-2 2-6 2t-7-3l-8-8q-5-7 0-13l29-29q2-2 2-6t-2-6l-29-29q-2-2-2-6t2-7l8-8q3-3 7-3t6 3l29 28q7 6 13 0l29-28q2-3 6-3t6 3l9 8q2 3 2 7t-2 6l-29 29q-3 2-3 6t3 6l29 29q5 6 0 13zm-57-230V91q0-21-11.5-27T640 71L362 294q-17 14-28.5 37.5T322 377v246q0 21 11.5 45t28.5 38l278 222q16 13 27.5 7.5T679 909V682q50 0 91.5-24.5t66-66.5 24.5-91-24.5-91-66-66.5T679 318zm0 346zq-44 0-81.5-22T538 582t-22-82.5 22-82 59.5-59.5 82-22 82.5 22 60 59.5 22 82.5-22 82.5-60 59.5-83 22z"/></svg>