<svg xmlns="http://www.w3.org/2000/svg" viewBox="-10 0 1010 1000"><path d="M828 240v-81q0-6-4-10t-10-4H77q-6 0-10 4t-4 10v587l2 17q3 21 12 38 12 24 32 38 26 17 63 17h683l13-2q15-4 28-13 18-12 28-32 13-26 13-63V268q0-6-4-10t-10-4h-81q-6 0-10-4t-4-10zM117 746V214q0-6 4.5-10.5T132 199h627q6 0 10.5 4.5T774 214v532q0 25 10 43 3 5 1.5 8.5T778 801H172q-19 0-32-9-10-6-16-19-4-8-6-18zm69-437h518q6 0 10.5 4t4.5 10v26q0 6-4.5 10t-10.5 4H186q-6 0-10-4t-4-10v-26q0-6 4-10t10-4zm301 328h163q6 0 10 4t4 10v26q0 6-4 10.5t-10 4.5H487q-6 0-10-4.5t-4-10.5v-26q0-6 4-10t10-4zm0-110h217q6 0 10.5 4.5T719 542v26q0 6-4.5 10t-10.5 4H487q-6 0-10-4t-4-10v-26q0-6 4-10.5t10-4.5zm0-109h217q6 0 10.5 4.5t4.5 9.5v27q0 6-4.5 10t-10.5 4H487q-6 0-10-4t-4-10v-27q0-5 4-9.5t10-4.5zm-301 0h218q5 0 9.5 4.5t4.5 9.5v245q0 6-4.5 10.5T404 692H186q-6 0-10-4.5t-4-10.5V432q0-5 4-9.5t10-4.5z"/></svg>