<svg xmlns="http://www.w3.org/2000/svg" viewBox="-10 0 1010 1000"><path d="M270 373h-64V135h-12L66 191l9 25q5 9 15 23l55-22v156H80q-2 10-2 14v26q0 3 1 11l1 2h190q1-5 1-13 1-5 1-13.5t-1-12.5q0-9-1-14zm-96 439 24-32q7-9 20-27l4-6q11-13 19.5-30t12.5-29.5 4-29.5q0-21-8-39-7-13-22-27-15-10-35-15-16-5-44-5-16 0-23 1-10 0-19 3-6 1-18 5l-20 7q0 12 5 27l2 5q5 14 8 20l4-2 9-3 14-5q8-2 14-2 4-1 17-1 25 0 36 10 14 11 14 29 0 10-5 22-2 6-9 19l-3 5-7 11q-8 11-13 17l-8 10q-13 15-20 25l-65 85 3 7h204q3-14 3-29 0-13-3-26zm195-620h399q13 0 22.5-9.5T800 160v-1q0-13-9.5-22t-22.5-9H369q-13 0-22 9t-9 22v1q-1 13 8.5 22.5T369 192zm537 57H369q-13 0-22.5 9t-9.5 22v1q0 13 9.5 22.5T369 313h537q13 0 22.5-9.5T938 281v-1q0-13-9.5-22t-22.5-9zm0 121H369q-13 0-22.5 9t-9.5 22v1q0 13 9.5 22.5T369 434h537q13 0 22.5-9.5T938 402v-1q0-13-9.5-22t-22.5-9zM369 630h399q14 0 23-9.5t9-22.5v0q0-14-9-23t-23-9H369q-13 0-22 9.5t-9 22.5h-1q0 13 9.5 22.5T369 630zm0 121h289q13 0 22-9.5t9-22.5v0q0-13-9-22.5t-22-9.5H369q-13 0-22 9.5t-9 22.5h-1q0 13 9.5 22.5T369 751zm537 57H369q-13 0-22.5 9.5T337 840v0q0 13 9.5 22.5T369 872h537q13 0 22.5-9.5T938 840v0q0-13-9.5-22.5T906 808z"/></svg>