<svg xmlns="http://www.w3.org/2000/svg" viewBox="-10 0 1010 1000"><path d="m326 279 6 12q9 18 10 28 12 59 53 105 12 12 14 28 1 13-4 29-4 13-2 22.5t10 19.5l3 4q14 15 22 22 12 12 25 19 18 10 41 7t43-18q27-22 53-62 3-4 1-10l-3-15q-6-26 14-49 39-43 51-103 2-11 13-29l5-9v15q-6 34-3 73 2 31 10 74 4 24 18 58 3 6 8 9 3 1 10 3l6 2q53 22 90 44 18 11 31 29 10 15 18 39 25 76 35 130 15 70 10 147-1 29-33 41-55 21-132 38l-79 14q-20 4-60 4h-52q-70-1-105 0-71 1-149-13-93-18-151-38-22-6-41-15-14-6-20-20-4-9-6-27-2-23 4-68l2-19q6-58 21-115 16-64 39-103 11-17 30-30 15-10 38-18.5t69-24.5q8-3 11-11 18-46 25-108 5-57-1-97v-2q0-8 2-12zm147 578v25q0 6 1.5 8t8.5 2h36q6 0 8-2.5t2-9v-21l-1-21.5q0-12 12-12h21.5l21 .5 9-2 2.5-8.5v-12q-1-16 0-24 0-6-2.5-8t-8.5-2h-41q-7 1-10.5-2.5t-3-11 .5-21.5v-22l-9-8h-38q-5 0-7.5 2t-2 8.5.5 21V758q0 12-12 12h-31q-13 1-17 2t-5 5-1 16q0 18 1.5 24t7.5 7.5 24 2.5l10-1q8-1 12-1 5 1 8 4t3.5 7 0 11-.5 10zM368 233q-27 0-40.5.5T314 221q-2-47 1-69 6-47 30-81 28-42 78-57 57-18 98-13 52 7 86 26 41 23 62 65 14 26 17 60 3 24 1 63v1q0 4-1 5t-5.5 0-7.5 10v1q-1 5-3 5.5t-6-1.5q-39-20-57-65-2-6-4-6.5t-8 3.5q-71 50-165 62-31 4-62 3z"/></svg>