<svg xmlns="http://www.w3.org/2000/svg" viewBox="-10 0 1010 1000"><path d="M589 675q55-55 82-113 29-63 27-136-3-114-88-183-9-7-18-8 1 9 6 22l2 5q5 10 7 15 2 9 1 17-4 41-36 67-34 29-91 41-8 1-12 4.5t-6 11.5q-7 26-23 34-32 18-61 16-34-2-57-32-18-21-45-21h-2q-25-4-41-13-20-10-32-29-24-41-74-36-26 2-43.5 17.5T63 393t8.5 47 33.5 38q74 48 139 61 17 3 50 7l34 4q38 4 58 15 17 8 19.5 20.5t-9.5 27-34 28.5q-16 9-48 24l-20 9q-26 11-39 24-12 10-17 20-7 12-4 26 5 25 38 33 110 28 202-19 65-32 115-83zm246-21q-19-25-46-33t-52 4q-61 31-64 91-2 30-17.5 46T610 781q-21 3-47.5-4t-57.5-4q-28 2-40.5 21.5t-4.5 45 30 42 51 18.5q76 4 116 9l24 4q20 4 31 5 17 2 31 1 14 1 42-1 41-3 63-27t23-66q1-54-16-127-4-22-20-44zM244 213q30-8 52-31 18-19 33-50 6-11 1.5-22T314 91q-14-10-31-10-34 0-60 22t-34 57q-4 18 2.5 32.5t20.5 20 32 .5zm669 349q-36-78-97-147-54-60-131-118l-13-8q3 8 7 12 15 19 50 53 20 18 29 28 83 85 128 180 41 84 18 175l-8 38q-8 41-13 63l7-8q39-68 46-131 8-70-23-137zM510 174q8 1 14 6 4 4 11 12l3 3q13 14 28.5 11.5T589 186q5-11 5-34-1-35-11.5-50T544 82q-15-3-31 0-21 3-32 15t-12 29.5 10.5 30.5 30.5 17zm-194 85q-25 5-45 30t-20 52q0 7 1 12 5 21 22 26 26 6 37-8l4-6q15-20 21-30 12-18 17-34 7-20-4.5-33t-32.5-9zm3 44q-13-1-13-15-1-7 3-10.5t10-3.5q13 0 15 15-2 14-15 14zm138-50q-15-2-23.5 6t-8.5 23q1 12 8 27 4 7 13 21 15 22 19 35 3 8 12 5 11-4 24-22t13-31q0-23-17.5-42.5T457 253zm0 46q-13-1-13-16 0-11 14-13 14 2 14 15 0 7-4 10.5t-11 3.5zm-78 159q2 1 5 1 8-3 20-17t13-22.5-3-13-11-3.5l-4 1q-10 2-15 2-9 0-14-4-18 1-18 17 0 9 9.5 22.5T379 458zM160 333q2-69 46-113-14-1-20 6-20 23-29 45-5 12-7 26-1 10 0 26 1 4 3 6.5t7 3.5zm189-189q27-12 51-13 26-1 51 11h1q8 5 14 2-5-10-18-14-52-19-103 5l-4 2q-5 2-7.5 4.5t-.5 6 5 2.5 8-4z"/></svg>