<svg xmlns="http://www.w3.org/2000/svg" viewBox="-10 0 1010 1000"><path d="M350 195h246q36 1 53-1 13 0 19.5-6t6.5-17-7-19-19-9q-35-4-55.5-5t-27.5-7q-11-8-10-28 0-4-2-12-5-24-28-27-30-2-45-1-20 2-29 11t-10 30q-1 18-8 25t-26 8.5-59 5.5q-11 2-19 10t-7.5 18 8 16.5T350 195zM500 84q7 0 12.5 5.5T518 103t-5 13.5-13 5.5-14-5.5-5.5-14 6.5-14 13-4.5zm192 96q-7 29-40 29-153 1-306 0-16 0-24.5-6.5T308 181l-1-4q-1-3-18-3h-68q-7 0-12 4.5t-5 11.5v731q0 7 5 12t12 5h558q7 0 12-5t5-12V190q0-7-5-12t-12-5h-80q-2 0-4.5 2.5T692 180zM402 359h42q7 0 12-5t5-12v-42q0-7 4.5-12t11.5-5h45q7 0 12 5t5 12v42q0 7 4.5 11.5T555 358h44q7 0 11.5 5t4.5 12v45q0 7-4.5 11.5T599 436h-43q-7 0-11.5 5t-4.5 12v44q0 7-5 11.5t-12 4.5h-45q-7 0-11.5-4.5T462 497v-44q0-7-5-11.5t-12-4.5h-43q-7 0-12-5t-5-12v-44q0-8 5-12.5t12-4.5zm283 479H316q-7 0-12-5t-5-12v-12q0-7 5-11.5t12-4.5h369q7 0 11.5 4.5T701 809v12q0 7-4.5 12t-11.5 5zm0-98H316q-7 0-12-5t-5-12v-12q0-7 5-11.5t12-4.5h369q7 0 11.5 4.5T701 711v12q0 7-4.5 12t-11.5 5zm0-98H316q-7 0-12-5t-5-12v-12q0-7 5-11.5t12-4.5h369q7 0 11.5 4.5T701 613v12q0 7-4.5 12t-11.5 5z"/></svg>