<svg xmlns="http://www.w3.org/2000/svg" viewBox="-10 0 1010 1000"><path d="M267 780q26-1 64-4 66-5 134-5h39l8 1h18q24-2 45-12 12-6 20-17 5-7 14-26 13-30 27-49l16-21q23-32 31-46 13-20 19-40.5t6-50.5l1-36q0-31-1-43l200 1q12 0 20.5-8.5T937 403V220q0-12-8-20.5t-20-8.5l-315-1q-12 0-20.5 8.5T565 219v109l8 9v1l3-2 11-4v-27l329 1v97q0 3-2.5 5t-4.5 2H675q-2 5-5 10.5t-8 10.5q-14 19-34 34l-4 26q0 11-5 28l-2 6q-6 6-17 16-19 16-35 27l-12 7q-4 2-5 3-5 1-14 1-31 0-32-29l3-5q4-7 12-15 11-12 28-25 21-16 50-34 33-21 49-40 5-5 8-11 2-2 5-7l2-3q6-11 9-22 2-8 2-15l-2-15q-2-10-7-17-8-9-24-9t-39 11l-11 5-11 4-6 1h-.5l-3.5-1-1-1-3-4q-7-10-12-14-9-7-20-7-6 0-14 3-16 5-20 18-2 8 2 19l5 10-29-8q-34-8-54-8-23 0-25.5 11.5T392 393q0 7 2 12l1 4-19 2q-22 3-34 9-18 9-16 22 4 22 13.5 28.5T373 477q6 0 0 3-4 1-23 8-60 20-99 37-69 31-108 65l-11 8q-13 9-27 16-18 9-34 13t-2 51q9 34 32 87l21 45 19-7q24-7 51-13 37-8 75-10zm320-534v-27q0-3 2-5t5-2h315q3 0 5 2.5t2 4.5v27z"/></svg>