<svg xmlns="http://www.w3.org/2000/svg" viewBox="-10 0 1010 1000"><path d="m768 360-76 638v2H309l-76-639h79l-29-206 76-10 30 216h50l-12-138 76-6 13 144h59l2-249h77l13 3q15 4 27 13 26 17 29 53 2 43 2 100-1 6-5.5 10.5T708 298h-3q-8-1-13.5-6.5T686 279v-1q1-56-2-95-2-19-14-28-7-6-19-6l-1 211zM280 135l75-9-2-17-76 9zm-6-35 76-9-3-17-75 9zm-5-35 76-9-5-29q-4-12-12-19-11-10-29-8t-26 14q-6 9-7 22l1 11zm156 138 76-5-2-18-76 6zm-4-35 76-6-1-17-76 5zm-3-35 76-6-2-18-2-11q-4-13-11-20-11-11-29-9.5T423 82q-6 8-7 21v11zm233-57h-17V22h-38v54h-21v18h76z"/></svg>