<svg xmlns="http://www.w3.org/2000/svg" viewBox="-10 0 1010 1000"><path d="M692 340q-48-40-71-61-20-20-30.5-36t-5-28 24.5-15q11-2 34-3l93-4q-4-22-15.5-31T681 151q-34-3-56-14-26-13-44-41-16-24-42.5-30.5T482 68q-25 7-39 26t-17 47-1 48q4 46-29 78-13 13-41.5 37.5T312 342q-29 29-37 50-22 57-5 121 2 6 7 17l12 24 5-21q6-24 9-32 18-46 34-76 2-6 11-10.5t14-1.5 6 9q1 3 .5 10.5t-.5 10-2 6.5l-2 4-14 41q-20 55-28 82-25 80-15 147 10 74 62 135 9 10 6 19.5T360 893q-4 2-14 6t-15 7q-24 12-35 19l-17 9h33q58-1 79 0 11 0 19-4t16-13q5-7 14-12.5t17-6.5q40-5 70 0 11 2 33 15l10 6q3 2 9 8 9 9 14 9 25 2 82 1h41l-20-11-17-8q-21-11-32-15-25-10-28.5-20.5T632 852q64-76 57-190-6-91-42-186l-2-6q-7-16-8-25v-17q2-7 6.5-9.5t13 .5 13.5 8q16 17 23 38 4 12 9 38 3 16 5 24l3 10q3 14 5 18 4-4 9-13t5-13q8-78 7-117-1-21-14-40-10-16-30-32zM542 108q7 0 12.5 5t5.5 12-5.5 12.5T542 143t-12-5-5-13 5-12.5 12-4.5zm84 650q-8 38-35 58-26 19-66 21-37 2-72-6-40-10-63.5-40.5T361 711q-2-10-2-30 1-30 9-64 4-21 16-62l1-3q21-70 53-167 6-17 20-49 7-15 19-23.5t28-7.5 28 9.5 17 23.5q42 126 60 189 10 38 16 61 7 34 9 62 4 43-9 108z"/></svg>