<svg xmlns="http://www.w3.org/2000/svg" viewBox="-10 0 1010 1000"><path d="M845 621q-36-37-86-38h-5q-27 0-50.5 10t-41 27.5-27.5 41-10 50 11 50.5q8 20 27 41 18 18 41 27.5t50 9.5q35 0 64.5-17.5t46.5-47 17-64.5q0-26-9.5-49T845 621zm-32 107H694v-34h119zm21-466h-86q-8-32-19-53-33-59-81-90-53-34-110-45-61-12-119.5-12T304 65q-36 2-104 7l-7 1v189h-75v54h75v77h-75v54h75v485h3q29 4 44 4.5t41.5.5 41-.5T367 932V657q7 0 22 2h33q58 0 118-12 11-2 33-8 17-43 54-70t84-29q10-15 17-29 16-30 23-64h83v-55h-76q1-10 1-31 0-31-2-45h77zm-467-52q21-3 33-3 7-1 24-1 28 0 58 8 28 7 51 26 10 8 20 22H367zm166 272q-24 19-51 25-25 8-58 8h-30q-17 0-27-2v-66h194q-13 23-28 35zm45-90H367v-76h209q5 25 5 47 0 15-3 29z"/></svg>