<svg xmlns="http://www.w3.org/2000/svg" viewBox="-10 0 1010 1000"><path d="m393 813-3 3q-29 31-44 48l8 3q12 5 17 10.5t10 18.5l3 9 48-51q-26-28-39-41zm174 41q8 9 24 26l24 26q7-31 40-43l-48-51zM345 500q28 30 47 50l41-44-48-51q-8 33-40 45zm270-43q-6 6-18 19-20 22-30 32l41 43 3-3q29-31 44-48-17-7-26-16-11-11-14-27zm-156 51 21 21 20 22 41-44q-26-28-40-42zm189 232q-5-5-14-15-18-20-27-29l-13 14q-18 19-27 29 15 15 41 43 26-28 40-42zm-148 72q-4 5-13 14l-26 28q12 14 37 41l3 3 40-43q-15-15-41-43zm41-72q-21-23-42-45-13 15-39 43l41 44q26-28 40-42zm-149 42q26-28 40-42-19-23-41-44l-40 42zm-41-158q26 28 40 42l14-15q18-19 27-29-26-28-40-42zm109-2q28 30 41 44l40-42q-28-30-40-44-14 15-41 42zm149-41-21 21-21 22q15 15 41 43l40-43q-11-13-34-38zM485 798l-3-3q-25-27-37-41-26 28-39 41l41 43q24-26 38-40zm109-1q-4-5-13-14l-26-28q-9 9-27 29l-13 14q9 9 26 28l13 14zm-40-73q8-10 26-28l13-14-2-3q-26-27-37-40l-40 43q14 14 40 42zm-148-43 21 21 20 22q8-9 26-28l13-14-3-3q-25-27-37-41zm149-158q-9 9-27 29l-13 14 39 42q9-10 27-29l13-14zm-149 43 39 42q16-16 40-42l-39-42q-14 14-40 42zm-7 353q22 20 47.5 18.5T486 914l-41-44-15 16q-20 22-31 33zm115-4q17 21 40.5 22.5T600 920l-45-48q-13 13-41 43zM337 753q-20 18-22 45t17 49q30-32 46-50l-14-15q-18-19-27-29zm325 0-3 3q-25 27-38 40 32 34 47 51 19-26 17-53t-23-41zM338 609q10-10 28-30l11-12-46-50q-18 23-16 50t23 42zm330-92q-11 11-31 33l-15 16 14 15q18 19 27 29 13-13 18.5-31t2-35-15.5-27zM337 725q9-10 27-29l13-14-41-44q-14 10-19 27.5t.5 34.5 19.5 25zm327-87q-28 30-41 44 8 8 25 27l15 16q14-8 19.5-25t.5-34.5-19-27.5zM401 443q5 6 15 16 22 22 31 33 18-21 40-43-17-20-42-22t-44 16zm113 6q14 15 40 43l46-48q-22-19-48-17t-38 22zm172-182-54 15-73 20q-1 1-3 1t-2-1 3-4l130-110q3-3 3-4l-5 1-132 37q-4 0-3-3l88-153q1-2 1-4l-4 3-132 114q-3 2-7 0-29-26-88-76l-44-38q-4-4-4-2l1 4 88 152q2 3-3 3l-131-37q-2-1-5-1-1 0 .5 1.5l2.5 2.5 132 112q3 3 3 4l-5-1-127-36h-2l1 2 182 155q4 2 7 0l27-23q103-88 156-132 1-1 1-2t-2 0z"/></svg>