<svg xmlns="http://www.w3.org/2000/svg" viewBox="-10 0 1010 1000"><path d="M352 110q7 0 9-6 1-3 1-11 0-55 57-73l4-1q6-1 9-3t2-8q-2-11-19-7-30 5-53 32.5T340 93v2q1 7 3 10 3 5 9 5zm230-90q55 19 56 71v5q0 7 2 11t9 3 9-7q1-3 1-12v-2q0-30-21.5-56T586 1h-3q-8-1-12 0t-5 7 2 8 9 3zM390 94v2q0 6 1 9.5t7 4.5 8-2 3-10q3-28 29-35 4-1 7-4t2-8q-3-9-17.5-7t-27 17.5T390 94zm174-30q24 7 27 33 1 7 3 10.5t7.5 2.5 6.5-3.5 2-8.5v-4q-1-36-37-49-6-3-11.5-2t-8 7 1 9.5T564 64zm416 455q0-25-16-44t-40-24q-11-2-29-4l-33-136q-10-40-13-60-5-38-33-64t-64-27l-182-1q1-3 1-8v-26q0-17-12.5-29.5T529 83h-56q-17 0-29.5 12.5T431 125v26q0 5 1 8H277q-75 0-105 62-4 9-8 30l-2 13q-30 122-46 185H92q-29 0-50.5 21T20 520q-1 132 0 264 0 26 18.5 46T84 854l26 2v72q1 24 15 42.5t37 26 46.5.5 37.5-26q16-21 16-54v-62h476v27q0 35 2 53 2 27 22 45t48 20 50-14.5 27-42.5q3-9 3-29v-59h17q30-1 51.5-21.5T980 783q1-59 0-176zM215 359l12-51 11-51q2-8 9-14.5t14-7.5 18-1h453q24 0 31.5 6t12.5 29l43 173v6H193zm-40 349q-28 0-51.5-13.5t-38-36.5T71 606.5t13.5-52 37-38 52-14.5 52.5 14 38 38 14 51.5-14 51-37.5 37.5-51.5 14zm650 0q-28 0-51.5-13.5T736 658t-14-51 13.5-52 37-38.5T824 502t52.5 14 38.5 38 14 52-14.5 51-38 37-51.5 14zm-1-175q-30 0-51 21.5T752.5 606t21.5 51 51 21 51.5-21.5 21.5-51-21.5-51T824 533zm-650-3q-30 1-51 23t-20.5 53.5 21.5 53 50.5 21 51-22T247 606t-21.5-53.5T174 530z"/></svg>