<svg xmlns="http://www.w3.org/2000/svg" viewBox="-10 0 1010 1000"><path d="M893 579v-3q1-7-3-10-144 88-219 133V564l-88 54q-88 53-133 81V564l-30 18q-103 64-155 97l-2-9-15-285q-1-8-3-10.5t-9-2.5q-46 1-91 0-6 0-9 2.5t-3 8.5l-11 197q-12 228-19 342-1 9 2 12.5t13 3.5q68-1 206-1h554q10 0 12.5-3t2.5-12zM405 848q-19-1-56 0h-27q-6 0-8.5-2.5T311 837v-84q0-6 2.5-8t7.5-2h28q36 1 55 0 7 0 9 2.5t1 8.5v42q0 27 1 41 0 6-2 8.5t-8 2.5zm213-11q0 6-2 8.5t-8 2.5q-43-1-85 0-10 0-10-10v-29q1-38 0-57 0-9 9-9h57q19 1 28 0 6 0 8.5 2t2.5 9q-1 18 0 55zm199 8q-4 4-13 5-5 0-17-1t-18-1h-43q-10 0-10-10 2-43 0-85 0-6 2.5-8t8.5-2h83q6 0 8 2.5t2 7.5v46q0 5 1.5 16t.5 17q0 9-5 13zm56-534q-2 8-4 14-21-19-47-29.5T767 285q-43 0-78.5 22T633 365q-24-27-36-66-7 26 0 47 3 7 1.5 12t-6.5 10q-22 30-57.5 40.5T462 407q-64-21-80-85-1-7 .5-10t7.5-5q23-7 34-28-34 15-66 15t-64-17q0 12 9.5 19t2.5 16q-11 18-22 25-15 10-34 8-24-2-72 0-15 0-25-10-48-45-27-108 10-30 32-46.5t53-19.5q26-3 45 0 24 4 44 16-7-23-21-29-9-4-8.5-9t5.5-12q19-27 49-38t64-3q30 7 49.5 29.5T463 171q2 11 0 25-1 8-4 25l-1 5q29-15 30-43 0-7 2.5-9.5t9.5-2.5q22 2 32 6 6 2 8 0t1-8q-2-36 22-66 21-27 54.5-37t70.5 3 59 42q20 25 18 62 5 1 8-1.5t4-5.5q2-10 7-10 4-1 11 3l2 1q43 19 65 61.5t11 89.5zm-8 108q0-2-1-7l-2-6q-6-23-23-40-8-9-22-18-1-1-1 0l-17 30-17 29v0q13 8 15 26h69zm-128 14v-6q3-12 14-20 1 0 1-1l-35-58h-1q-17 11-29 26-19 26-19 58v1zm45 26h-1q-7 4-16 4-6 0-11-3l-2-1q-1 0-1 2l-33 57q-1 0-1 .5t1 .5q17 9 36 12 4 1 13 1h5q3-1 9-1 10-2 15-4 9-3 20-8v-1zm-15-6q8 0 13.5-6t5.5-14-5.5-14-13.5-6-14 6-6 14 6 14 14 6zm96-112q-18-20-43-31t-53-11q-40 0-73 22t-47 57q-11 25-11 52 0 35 17.5 65.5t48 48T767 561t65.5-17.5 48-48T898 430q0-49-35-89zm-96 205q-31 0-58-15.5T666.5 488 651 430q0-21 8-42 13-33 42.5-53.5T767 314q26 0 48.5 10.5T855 354q28 35 28 76 0 31-15.5 58T825 530.5 767 546z"/></svg>