<svg xmlns="http://www.w3.org/2000/svg" viewBox="-10 0 1010 1000"><path d="M857 332q-36-64-87-108-7-7-17-6t-16 9q-28 36-41 54-6 8-5 18t8 17q61 57 82 136 20 74 1 149.5T709.5 732t-127 76.5T436 814q-75-17-131-69-96-88-96.5-214T301 317q8-8 9-18t-6-18q-11-15-33-43l-7-10q-7-8-17-9.5t-17 5.5q-61 54-97 126.5T92 504q-5 83 24 163 31 86 97.5 152T367 915q92 32 190 18 88-12 164-61t124-125q50-79 61-172 15-128-49-243zM467 470h66q11 0 18-7.5t7-17.5V87q0-11-7-18t-18-7h-66q-10 0-17 7.5T443 87v358q0 10 7 17.5t17 7.5z"/></svg>