<svg xmlns="http://www.w3.org/2000/svg" viewBox="-10 0 1010 1000"><path d="M732 232q0-21-7.5-39.5T702 160l-67-67q-29-31-73-31H321q-22 0-37.5 16T268 116v172h464zM118 797h92V611h580v186h92q23 0 38.5-16t15.5-38V404q0-22-16-37.5T882 351H118q-22 0-37.5 15.5T65 404v339q0 22 15.5 38t37.5 16zm85-373q23 0 39.5 16.5T259 480t-16.5 40-39.5 17-39.5-17-16.5-40 16.5-39.5T203 424zm533 487V664H264v247q0 11 8 19t19 8h418q11 0 19-8t8-19zM384 774h232q10 0 17.5 6.5T643 797v4q0 11-8 19t-19 8H384q-11 0-19-8t-8-19v-4q2-10 9.5-16.5T384 774z"/></svg>