<svg xmlns="http://www.w3.org/2000/svg" viewBox="-10 0 1020 1000"><path d="M510 812q-6 13-21 15v0q-7 0-13-4t-8-11L299 394l-60 124q-6 13-21 13H73q1 1 3 5l41 60 7 8q16 20 25 29 155 168 277 314 20 24 46 32.5t52 .5 46-32q119-143 261-298H572zM738 16q-49 0-94.5 18T563 84.5 497.5 117t-66-32T352 35q-46-18-96-18-77 0-142 42-63 41-95 109Q1 208 0 278q0 63 14 113 13 46 36 97 6-2 10-2h144l77-158q3-6 9-9.5t12-2.5q13 0 20 14l166 413 47-123q6-14 21-14h291q10 0 16 6l23-32q22-32 43-68 29-50 42-88t21-76q5-27 7-52l1-19q0-71-35-131t-95.5-95T738 16z"/></svg>