<svg xmlns="http://www.w3.org/2000/svg" viewBox="-10 0 1010 1000"><path d="M437 605h1v0zm42 167v1zh.5zm-83-167zm251-84zh-1zm-48-41h-70q-2 0-4 1.5t-2 3.5v115q0 2 2 3.5t4 1.5h69q2 0 3.5 2t1.5 4v29q0 5-5 5H442q-5 0-5-5v-30q0-5-5-5h-30q-2 0-4 1.5t-2 3.5v114q0 2 2 3.5t4 1.5h29q2 0 4-1.5t2-3.5l1-29q0-2 2-3.5t4-1.5h155q5 0 5 5 2 20 2 29 0 2 2 3.5t4 1.5l28 2q2 0 3.5 1.5t1.5 3.5v32q0 5-5 5h-29q-2 0-3.5 1.5T606 778l-2 29q0 5-5 5H484q-5 0-5-5v-29q0-2-1.5-4t-3.5-2h-31q-2 0-3.5 2t-1.5 4v72q0 5 5 5h32q5 0 5 5v32q0 5 5 5l31 1q5 0 5 5v29q0 5 5 5h240q2 0 4-1.5t2-3.5v-29q0-2-2-3.5t-4-1.5h-31q-2 0-3.5-2t-1.5-4v-31q0-5-5-5h-30q-5 0-5 5l-2 30q0 2-2 3.5t-4 1.5h-29q-5 0-5-5v-72q0-5 5-5h29q2 0 4-1.5t2-3.5v-32q0-2 1.5-4t3.5-2h32q5 0 5-5v-73q0-5-5-5h-31q-2 0-4-1.5t-2-3.5v-72q0-5-5-5h-3q-19-2-28-2-6-2-6-6v-71q0-2-1.5-4t-3.5-2l-31-1q-2 0-4-1.5t-2-3.5l1-30q-2-5-6-5zm-43 417h-29q-5 0-5-5v-29q0-5 5-5h29q5 0 5 5v29q0 5-5 5zm9-340v-31q0-5 5-5h28q5 0 5 5v31q0 2-1.5 3.5T598 562h-28q-2 0-3.5-1.5T565 557zm373 83V528q0-2-1.5-4t-3.5-2l-31-2q-2 0-3.5-1.5T897 515v-73q0-2-2-3.5t-4-1.5h-71q-4 0-6-5 0-20-1-29 0-2-1.5-3.5T808 398h-71q-5 0-5 5v28q0 4 5 6l28 1q2 0 3.5 2t1.5 4v72q0 5-5 5h-71q-2 0-3.5 2t-1.5 4v32q0 5 5 5h197q5 0 5 5v31q0 5-5 5H738q-2 0-4 1.5t-2 3.5v32q0 2 2 3.5t4 1.5h28q5 0 5 5v3q2 19 2 28 2 5 6 5h29q2 0 3.5 2t1.5 4v32q0 2 2 3.5t4 1.5h32q2 0 4 1.5t2 3.5v29q0 5 5 5h70q5 0 5-5v-29q0-5-5-5l-28-2q-5 0-5-5v-71q0-2 1.5-4t3.5-2l29-2q5 0 5-5zm-89-121h-28q-5 0-5-5v-28q0-5 5-5h28q2 0 4 1.5t2 3.5v28q0 2-2 3.5t-4 1.5zm0 169h-30q-2 0-3.5-1.5T814 683v-29q0-2 1.5-4t3.5-2h30q2 0 3.5 2t1.5 4v29q0 5-5 5zM689 522v-1h-.5l-.5.5zM68 937h279q5 0 5-5V653q0-5-5-5H68q-2 0-3.5 1.5T63 653v279q0 2 1.5 3.5T68 937zm42-248h196q2 0 3.5 2t1.5 4v195q0 5-5 5H110q-5 0-5-5V695q0-2 1.5-4t3.5-2zM347 63H68q-5 0-5 5v279q0 5 5 5h279q5 0 5-5V68q0-2-1.5-3.5T347 63zm-41 247H110q-5 0-5-5V109q0-5 5-5h196q5 0 5 5v196q0 5-5 5zM933 62H654q-2 0-3.5 2t-1.5 4v278q0 2 1.5 4t3.5 2h279q2 0 3.5-2t1.5-4V68q0-2-1.5-4t-3.5-2zm-42 250H696q-2 0-3.5-2t-1.5-4V110q0-5 5-5h195q5 0 5 5v196q0 2-1.5 4t-3.5 2zM145 521zm0-41v-1zm293 35v-29q0-2 2-4t4-2l28-2q2 0 3.5-1.5t1.5-3.5v-31q0-5-5-5h-71q-2 0-3.5-1.5T396 432v-29q0-5-5-5H275q-5 0-5 5v29q0 2-2 4t-4 2h-71q-5 0-5 5v3q-2 19-2 28 0 2-2 4t-4 2h-29q-2 0-4 1.5t-2 3.5v30q0 2 2 3.5t4 1.5h71q2 0 4-1.5t2-3.5l1-29q2-5 6-5h32q5 0 5 5v72q0 5 5 5l30-2q2 0 4-1.5t2-3.5v-31q0-2 1.5-3.5t3.5-1.5h115q5 0 5-5zm-119-77h71q5 0 5 5v29q0 2-1.5 4t-3.5 2h-71q-2 0-3.5-2t-1.5-4v-29q0-5 5-5zm251-252h28q5 0 5-5V68q0-5-5-5h-72q-5 0-5 5v29q0 2-1.5 4t-3.5 2h-31q-5 0-5 5v115q0 5 5 5h72q5 0 5-5l2-32q0-2 2-3.5t4-1.5zm-14-43h-29q-5 0-5-5v-29q0-2 1.5-4t3.5-2h29q2 0 3.5 2t1.5 4v29q0 5-5 5zm-77 85zh1zm376 628h1v0zm1 41h-1v0q0 1 1 0zm-84 0v1zm-41-41h-1v-1h1zm0-84h-1v0zm41 89v31q0 2 2 3.5t4 1.5h72q5 0 5-5v-31q0-2-1.5-3.5T850 856h-32q-5 0-5-5v-73q0-2-1.5-4t-3.5-2h-72q-2 0-3.5 2t-1.5 4v72q0 5 5 5h31q2 0 3.5 2t1.5 4zM438 312zm5-1h32q2 0 3.5-2t1.5-4l-1-71q0-5-5-5h-30q-2 0-4-1.5t-2-3.5l-1-31q-2-5-6-5h-28q-2 0-4 1.5t-2 3.5v71q0 2 2 3.5t4 1.5q20 2 30 2 2 0 3.5 2t1.5 4v29q0 5 5 5zm36-83v.5l1 .5v-1 0zm-41 628v-1 0q-1 0-1 1v0zm-6 0h-29q-5 0-5 5v71q0 5 5 5h71q5 0 5-5v-29q0-5-5-5h-32q-5 0-5-5v-32q0-5-5-5zm48 41q0 1-.5 1h-.5v-1 0zM145 521zm-76 82h28q5 0 5-5l2-30q0-2 2-4t4-2h29q5 0 5-5l1-30q0-2-2-4t-4-2H69q-2 0-4 2t-2 4v71q0 2 2 3.5t4 1.5zm76-41-1 1h1zm544-41zh-1zm-84-42zv1q-1 0-1-1t1 0zm0-34v29q0 2 1.5 3.5t3.5 1.5h32q5 0 5 5v31q0 2 1.5 4t3.5 2h31q2 0 3.5-2t1.5-4v-71q0-2-1.5-3.5T683 439h-73q-2 0-3.5 2t-1.5 4zM63 403v28q0 4 5 6l29 1q5 2 5 6l2 30q0 2 2 3.5t4 1.5h29q2 0 4-1.5t2-3.5v-71q0-2-2-3.5t-4-1.5H68q-5 0-5 5zm82 76zm424-126h29q5 0 5-5v-71q0-5-5-5h-71q-5 0-5 5v29q0 2 1.5 4t3.5 2h31q5 0 5 5v31q0 2 2 3.5t4 1.5zM226 598v-30q0-2-1.5-3.5T221 563h-71q-1 0-3 1.5t-2 3.5v30q0 2 1.5 3.5t3.5 1.5h71q5 0 5-5zm-81-35zm168-1v-1zm0 6v31q0 2 2 3.5t4 1.5h71q2 0 4-1.5t2-3.5v-31q0-2-2-4t-4-2h-71q-2 0-4 2t-2 4zm83 37v-1zm460 251zv-1 0q-1 1 0 1zm76-40h-71q-5 0-5 5v29q0 5 5 5h71q5 0 5-5v-29q1-2-1-3.5t-4-1.5zM563 354zv-1zm-36 81h30q2 0 4-1.5t2-3.5v-71q0-2-2-3.5t-4-1.5h-30q-2 0-3.5 1.5T522 359v71q0 5 5 5zm29 297h-71q-5 0-5 5v29q0 2 1.5 4t3.5 2h71q2 0 3.5-2t1.5-4v-29q0-5-5-5zm-77 40h1zm377 125q-1 1 0 1t0 0zm40 35v-29q0-2-2-3.5t-4-1.5h-29q-5 0-5 5v29q0 2 1.5 4t3.5 2h29q2 0 4-2t2-4zM472 565h-29q-5 0-5 5v29q0 5 5 5h29q2 0 4-1.5t2-3.5v-29q0-2-2-3.5t-4-1.5zm-34 40zv-1 0q-1 1 0 1zm83-293h1zm-40-1h-1v0zm41 43h-1v-1zm-1-6v-30q0-2-1.5-4t-3.5-2h-30q-2-1-3.5 1t-1.5 4v31q0 5 5 5h30q5 0 5-5zm-118 4h29q5 0 5-5v-29q0-2-1.5-4t-3.5-2h-29q-2 0-3.5 2t-1.5 4v29q0 5 5 5zm35-40h-1zM152 854h112q2 0 3.5-2t1.5-4V737q0-5-5-5H152q-5 0-5 5v111q0 2 1.5 4t3.5 2zm111-708H152q-2 0-4 1.5t-2 3.5v112q0 2 2 3.5t4 1.5h111q5 0 5-5V151q0-5-5-5zm586 1H737q-5 0-5 5v112q0 2 1.5 3.5t3.5 1.5h112q2 0 3.5-1.5t1.5-3.5V152q0-5-5-5z"/></svg>