<svg xmlns="http://www.w3.org/2000/svg" viewBox="-10 0 1010 1000"><path d="M900 555h-42q-14 0-26 9.5T816 588q-19 69-65 123.5T641 796q-67 32-142 32t-141.5-32.5T245 706q-9-10-7.5-25.5T250 656l85-78q10-10 7.5-16.5T326 555H97q-14 0-24 10t-10 24v205q0 14 7.5 17.5T88 805l30-28q10-10 23.5-8.5T164 781q62 74 148 114 89 43 188 43 104 0 196-47 89-44 150.5-124T928 588q3-13-5.5-23T900 555zm13-359-30 30q-10 10-22.5 9T839 223q-62-75-149-117-90-44-190-44-104 0-196 46-89 45-150.5 125T72 412q-3 13 5.5 23t22.5 10h42q14 0 26-9.5t16-23.5q19-69 65-123.5T359 203q67-31 141-31 78 0 146.5 34.5T761 301q9 11 7 26.5T756 353l-68 68q-10 11-7 17.5t17 6.5h205q14 0 24.5-10t10.5-24V206q0-14-7-17t-18 7z"/></svg>