<svg xmlns="http://www.w3.org/2000/svg" viewBox="-10 0 1010 1000"><path d="M804 434q-4-32-24-47-18-14-49-14-38 0-91 30l2 117q0 62 12 96 10 30 34 48 22 17 58 17t57-18q-5-42-41-112 23-39 44-66h4q37 84 37 131.5T820 712q-32 57-95 57-55 0-87-44-34-47-34-135 0-36-3-113l-2-45-2-2q-39 33-74 73 2 78 2 123 0 88-24 168-33 52-84.5 82.5T310 907q-49 0-84-23.5T172 818t-19-96q0-82 50-172l18 10q-29 64-29 118 0 36 15 66.5t41.5 48.5 61.5 18q37 0 70-14 29-11 58-35 43-36 49-62 0-78-6-151l-2-1q-4 4-13 15l-7 9q-42 48-67 67-31 22-63 22-24 0-45-15.5t-33-43-12-62.5q0-108 82-224l18 12q-63 97-63 159 0 37 13 57 9 16 24 23 11 5 24 5 28 0 64-27 31-24 74-72l-3-40q-9-135-14-183l-6-21q-10-39-10-52 0-17 16-47.5T493 78l8 5q-2 9-2 25 0 48 54 119l-44 43 8 160h2q45-45 76-71-3-67-17-236 22-36 40-60l6 1q15 89 15 262h2q64-43 112-43 33 0 54 17 22 18 22 52 0 37-16 85zM656 818q44 26 77 59-17 32-45 61-33-30-77-59zm117-11q43 27 74 61-12 26-41 61-27-26-75-61z"/></svg>