<svg xmlns="http://www.w3.org/2000/svg" viewBox="-10 0 1020 1000"><path d="M95 230q4 3 4 6.5t-3.5 6.5-9.5 9l-4 4q10 11 28 29l2-3q8-9 12-13 5-7 11.5-.5T137 282l-15 14q19 19 29 28l13-16q7-7 13.5 0t-.5 13q-4 5-14 15 9 9 27 25l2 2 13-15q6-6 13 0t0 13l-9 9-4 4 29 29 8-12 2-2q4-5 7-6t8 3.5 3.5 8-5.5 8.5l-2 1q-3 3-11 9 10 10 27 25l4 4q3-5 11-15 8-8 14.5-1.5T300 439l-14 13 20 20 155-168v0l-1-1Q351 201 246 98q-20-19-59-57l-30-29-2 1L7 173l-7 6v2l28 26q8-10 11.5-14t7-5 7.5 3q8 7-1 14-4 6-13 12l29 29 13-15q6-7 13-1zm591 290-3 3-1 1q-86 92-128 138-5 5-14 18l-7 9q14 12 27 27l13-16q7-7 14-.5t0 13.5l-14 13 30 30q8-10 13.5-16t12.5 0q6 8 0 13l-14 15 29 28 13-16q6-7 13-.5t1 13.5l-5 5-9 9q8 9 26 26l3 2 12-15q5-7 13-1 4 3 4 6.5t-4 7.5-14 12l19 19 11 11 12-17q7-7 13.5 0t.5 13l-15 15q11 9 31 29 6-9 12.5-16t13-.5.5 13.5q-5 4-14 13l29 28q8-8 11-13 8-9 15-2t-1 15l-14 12 9 9q10 9 14 14l156-168Q796 626 686 520zm220-383 2-1-76-80-43 46Q430 489 250 682q-5 7-5 14 2 36 2 55l2 14q23 0 65-2 10 1 18-8 192-206 574-618zm21 65q1-12-1-36v-4l-6 6-581 625q-3 3-3 5l-9 39-3 17q4-2 8-6l8-8q68-74 102-110l479-517q6-6 6-11zM159 689q3-1 9-2 22-4 33-7t19-11Q398 478 753 95l39-42 7-6-1-3q-23 0-33 1.5T751 51Q555 261 165 681zm-32 167q6-17 18-50 23-66 36-100l-13 3q-10 2-14.5 3t-6.5 2.5-4 6.5L73 940q-3 11 1.5 13t12.5 0l208-81q6-2 6-5l6-33q-32 14-94 40l-47 20q-8-27-39-38z"/></svg>