<svg xmlns="http://www.w3.org/2000/svg" viewBox="-10 0 1010 1000"><path d="M947 503q-13 2-26 5-33 5-64 9l-24-103h18V243h-62V108h-67v135h-62v171h18l-24 103q-31-4-64-9l-26-5v76l21 4q26 5 52 8l-72 314 20 5-6 27 13 3-2 12 7 1 2-12 16 4 6-27 23 5 76-323 37 1 35-1 76 323 23-5 6 29 15-4 3 12 7-1-2-12 12-3-6-29 21-5-73-314q26-3 52-8l21-4zM679 263h153v132H679zm-50 637-41-10 69-296q15 2 43 4zm89-377q-30-2-44-4l24-105h45zm39 1h-19l18-77 18 77zm11-110h45l24 105q-13 2-40 4h-3zm155 476-41 10-71-301 44-5zM52 327l231 673 43-106L684 0zm544-195-10 23-43-17-6 15 43 18-7 17-29-12-7 16 30 12-9 24-44-18-6 16 43 18-7 17-29-12-7 16 30 12-9 21-43-17-6 16 43 17-7 18-29-12-7 16 30 12-9 23-44-17-6 16 43 17-6 18-30-12-7 16 30 11-8 22-1-1-4 12-33-13-6 16 34 14-7 17-20-8-7 16 21 8-10 24-34-14-6 16 34 13-7 18-20-9-7 16 21 8-10 24-38-16-6 16 38 15-7 18-24-10-7 16 25 10-10 23-38-15-6 16 38 15-7 17-24-10-7 16 25 10-9 22-38-15-6 16 38 15-7 17-24-10-7 16 24 10-9 23-38-15-6 16 37 15-6 17-24-9-7 16 24 9-20 50L89 342 622 66l-20 50-25-10-7 16zM297 666l170-424-267 138zm3-87-63-184 172-89z"/></svg>