<svg xmlns="http://www.w3.org/2000/svg" viewBox="-10 0 1010 1000"><path d="M521 181q38 0 64.5-27T612 90t-26.5-63.5-64-26.5-64 26T431 90t26.5 64.5T521 181zm44 343q-99-57-164-78v263l-29 139q-6 24 8.5 38t38.5 14q38 0 57-46l28-129V530h23v419q1 21 15.5 36t36 15 36.5-15 15-36V561l-4-2q-39-22-61-35zM180 120l163 167q121 13 287 106v-45l221-228q11-11 11-27t-11-27-27-11-27 11L654 210H377L234 66q-11-11-27-11t-27 11-11 27 11 27zm450 203q1 0 0 2v2zm249 108-81 73q-69-34-154-84-158-92-280-119.5T158 312q-54 25-87 73-25 38-31 74l111 20q0-3 4-12 6-15 16-26 14-17 34-26 45-21 120-7 108 20 262 110 121 71 192 102 69 30 107 30 19 0 33-7t25-21q22-27 15-63-11-51-80-128z"/></svg>