<svg xmlns="http://www.w3.org/2000/svg" viewBox="-10 0 1010 1000"><path d="M906 400q-10-6-14-13t-3-18q3-32-30-42L582 227q-10-3-22-3t-22 3q-77 27-231 83-41 16-77 15-24 0-56 7-41 10-59 28-24 25-21 70 1 6-2.5 13.5T83 457q-20 21-20.5 46.5T82 548q12 11 16.5 23t4.5 28q0 32 12 49.5t41 27.5q19 6 59 11 25 3 37 5 16 5 18 10 15 38 54 49 26 7 80 18l33 7 32-6q52-9 77-15 39-11 60-45 4-7 10-13t13-8q72-27 216-79 29-10 37-15 10-6 13-19 2-9 1-40 0-10 3-17t11-13q19-15 25-34.5t-1.5-39T906 400zm-757-23q21-12 49-16 17-3 52-4 25 0 40-5 43-15 128-46t128-46q6-2 12.5-2.5T570 259q66 23 199 71l78 28 6 5-164 60-102 36q-8 3-11.5 6.5T571 477q-1 14-11 23.5T536 513l-7 2q-27 7-41 10-23 5-41 6-24 1-72-6l-27-4q-9-1-27-11l-2-1q-21-11-25-25t7-33h-26q-44 1-66-1-31-3-60-17-21-10-20.5-27t20.5-29zm734 106q-27 10-84 20l-9 2q-10 1-14 3-7 3-12.5 10T748 528q-27 8-36 32-7 15-17 13t-23-19q-62 34-94 51l-2 1q-4 2-6 4-9 21-30 30-13 5-41 10l-6 1q-9 2-15 5t-10 10q-13 19-28 18.5T411 665q-7-11-23-17-23-8-71-23l-19-6q-9-3-12-7-8-10-21-15-7-4-24-6-11-2-17-4-19-5-30-10-16-8-25-22-2-4-12-7l-5-1-16-7q-17-7-25-11-20-12-13-36 26 33 66 44 28 9 77 9 8 0 13 3.5t11 11.5q23 31 41 40 125 54 250 0 8-3 16-11 5-4 14-15t14-16l4-4q10-8 16-10l227-83q11-4 32-17l15-9q12 13 9.5 26T883 483z"/></svg>