<svg xmlns="http://www.w3.org/2000/svg" viewBox="-10 0 1020 1000"><path d="M1000 627q0-13-1-17.5t-5.5-5.5-17.5-1q-6 0-8-2.5t-2-7.5v-20q0-38-1-57-1-24-24-33l-3-1q-4-2-5-5l-4-7q-6-12-8-18l-69-227q-4-14-18-17-75-16-127-16-139-1-416 0H84q-32 0-51 14-26 22-26 62v303q0 7 1 8t8 1h4q222 1 667 1 6 0 9 2.5t2 8.5v4q-1 5-2.5 7.5T687 606l-357-3h-75l-2 2q2 2 6 4 37 32 44 78 1 5 2.5 6t5.5 1h338q5 0 7-1.5t3-6.5q6-39 32.5-66.5T755 583t73 5q65 25 79 96v2q1 5 2.5 7t6.5 1q38 0 56-1 13 0 20-7.5t8-20.5zM174 359v26q-1 34 0 51 0 14-13 13h-11q-12 2-19-1.5T121 432t-11.5-18-20.5-6q-21 0-33 24-2 4-4 10v1q-1 3-2 4.5t-4 1.5q-9-2-9-8V281q0-7 2.5-9.5T49 269h113q7 0 9.5 3t2.5 10q-1 17 0 51zm155 93q-30 0-46 1-7 0-8-6-2-2-2-3-10-19-26.5-19T219 443l-1 3q-1 3-2.5 4.5t-5 .5-4-3.5-.5-6.5v-79l-1-77q0-14 13-14 37 1 111 1 13-1 13 12v156q0 7-3 9.5t-10 2.5zm178-15q0 6-1.5 8.5T498 449l-2 1q-4 0-5-5l-1-1q-1-12-11-22.5T456.5 411 434 422l-2 3q-5 6-6 10-1 10-6.5 13t-16.5 2q-5-1-14 0h-7q-7 0-9.5-3t-2.5-10V282q0-7 3-10t10-3q25 1 74 0h38q12 0 12 12zm157 14q-18-2-35 0-5 0-6.5-2t-2.5-6q-4-16-13-25t-19.5-9-19.5 9-13 25q0 8-6 8-9-2-9-9-1-1 0-5v-52q-1-66 0-99 0-11 3-13.5t13-2.5h105q10 0 13 2.5t3 12.5v152q0 14-13 14zm187 1h-90q-12 0-16.5-4.5T740 432V284q0-13 4-17t17-4h29q20 1 28 21l51 138 1 5q6 25-19 25zM178 603q-28 0-51 14t-37 37.5T76 706t13.5 51.5 37 37T178 808t51.5-14 37.5-37.5 14-51.5q0-25-14.5-48.5T228 618t-50-15zm-1 147q-21 0-32-11t-11-32q0-41 43-43 21 0 32 11t11 32-11 32-32 11zm606-147q-43 1-72.5 30.5T681 706q0 28 14 51.5t37.5 37T784 808q43 0 72-29.5t30-72.5q0-26-14.5-50T833 617.5 783 603zm-1 147q-21 0-32-11t-11-32 11-32 32-11q43 0 43 44 0 20-11 31t-32 11zM104 603H8q-5 0-6.5 1.5T0 610v41q0 24 10.5 34t34.5 9q5 0 6.5-1.5T54 686q5-36 29-63 6-7 19-19zm156-278q-19 0-33.5 14.5t-14.5 34 14.5 34 34 14.5 33.5-14.5 14.5-33.5-14-34-34.5-15zm342-20q-20-1-34 13t-14 34 14 34 33.5 14.5 34-14.5 14.5-34-14-33-34-14zm-160 6q-20 0-34.5 14.5t-14.5 34 14 33.5 33.5 14.5 34.5-14 14.5-34T475 326t-33-15zm-343-8q-20 0-34 14t-14.5 33.5 14 34T99 399t33.5-14 14-33.5-13.5-34T99 303z"/></svg>