<svg xmlns="http://www.w3.org/2000/svg" viewBox="-10 0 1010 1000"><path d="M227 273v454q0 74 36.5 137t99.5 99.5 137 36.5 137-36.5 99.5-99.5T773 727V273q0-74-36.5-137T637 36.5 500 0 363 36.5 263.5 136 227 273zm37 0q0-64 32-118.5T382 68t118-32 118 32 86 86.5T736 273v454q0 64-31.5 118.5t-86 86.5T500 964t-118.5-32-86-86.5T264 727zm344 304L500 685 392 577q-2-2-5.5-2t-6 2-2.5 5.5 2 6.5l114 113q3 3 6 3t6-3l114-113q2-3 2-6.5t-2-5.5-6-2-6 2zm49 137L500 870 344 714q-4-4-9-4t-8.5 3.5-3.5 8.5 4 8l165 165q3 4 8 4t8-4l165-165q4-3 4-8t-3.5-8.5-8.5-3.5-8 4z"/></svg>