<svg xmlns="http://www.w3.org/2000/svg" viewBox="-10 0 1010 1000"><path d="M271 229v381q0 53 23 99.5t62.5 79T446 833v-32q-41-11-74-39t-51.5-67.5T302 611V229q0-54 26.5-99.5t72-72.5T500 30t99.5 27 72.5 72.5 27 99.5v381q0 45-19 84.5T628 762t-74 39v32q50-12 89.5-44.5t62.5-79 23-99.5V229q0-62-30.5-114.5T615 31 500 0 385 31t-83.5 83.5T271 229zm206 671V645q0-7 4.5-11.5T493 629h14q7 0 11.5 4.5T523 645v255h68q7 0 8.5 3t-3.5 8l-85 84q-4 5-10.5 5t-11.5-5l-85-84q-5-5-3.5-8t8.5-3zm30-673h-14q-7 0-11.5-4.5T477 211v-94q0-7 4.5-11.5T493 101h14q7 0 11.5 4.5T523 117v94q0 7-4.5 11.5T507 227z"/></svg>