<svg xmlns="http://www.w3.org/2000/svg" viewBox="-10 0 1028 1000"><path d="M906 706q-4-4-4.5-10t2.5-10q35-56 35-122 0-62-31-114.5T824 366t-115-31-115 31-83.5 83.5T480 564t31 115 83.5 84T709 794q72 0 130-41 4-3 10-2.5t10 4.5l81 81q6 6 12 11l4 5q5 4 10 4t9-4l29-29q4-4 4-9.5t-4-9.5zm-58-35q-9 13-25 27-50 42-114 42-47 0-87.5-23.5t-64-64T534 564t23.5-88 64-63.5 88-23.5 88 23.5 64 64T885 564q0 60-37 107zM438 571q0-68 31-125.5t85-93.5H46q-26 0-34 12-6 8-4 29l34 373q2 20 10 29 10 12 36 12h496q-66-33-106-96.5T438 571zm332-311q-3-13-18-23t-32-10H438q-17 0-38-8.5T366 198l-24-24q-13-13-34-21.5t-38-8.5H135q-17 0-30.5 12T89 185L77 293h702z"/></svg>