<svg xmlns="http://www.w3.org/2000/svg" viewBox="-10 0 1020 1000"><path d="M887 684q-4-4-4.5-10t2.5-10q39-61 39-134 0-68-33.5-125.5t-91-91T674 280t-125.5 33.5-91.5 91T423 530t34 126 91.5 91.5T674 781q78 0 142-45 5-3 10.5-2.5t9.5 4.5l89 88q0 1 1 1l18 18q5 4 10 4t9-4l33-33q4-4 4-9.5t-4-9.5zm-62-37q-12 16-27 30-26 21-57.5 33T674 722q-52 0-96-26t-70-70-26-96 26-96 70-69.5 96-25.5 95.5 26 69.5 69.5 26 95.5q0 32-10.5 62.5T825 647zM188 333h-61q-6 0-9.5 4t-3.5 9v343q0 5 3.5 9t9.5 4h61q6 0 10-4t4-9V346q0-5-4-9t-10-4zm141-144h-62q-5 0-9 4t-4 9v490q0 5 4 9t9 4h62q5 0 9-4t4-9V202q0-5-4-9t-9-4zm275 0h-62q-5 0-9 4t-4 9v65q0 5 3.5 7t8.5 0q30-14 63-21 5-1 9-5.5t4-9.5v-36q0-5-4-9t-9-4zM464 313q-16-1-61-1-6 0-9.5 4t-3.5 9v94q0 5 1.5 5.5t3.5-4.5q25-56 72-98 4-4 3-6.5t-6-2.5zM47 743V165q0-6-4-10t-9-4H13q-5 0-9 4t-4 10v625q0 5 4 9t9 4h498q5 0 5.5-2t-4.5-4q-25-17-43-32-4-4-10.5-6.5T446 756H60q-5 0-9-4t-4-9z"/></svg>