<svg xmlns="http://www.w3.org/2000/svg" viewBox="-10 0 1010 1000"><path d="M865 62H135q-30 0-51 21.5T63 135v730q0 30 21 51.5t51 21.5h730q30 0 51.5-21.5T938 865V135q0-30-21.5-51.5T865 62zM669 793q-31 0-57-15.5t-41.5-41T555 680q0-14 6-36l-148-82q-33 35-82 35-30 0-56-15.5T233.5 540 218 483.5t15.5-56.5 41-41.5T331 370q24 0 45.5 9.5T414 406l113-49q-6-17-6-37 0-30 15.5-56t41.5-41.5 56.5-15.5 56.5 15.5 41.5 41T748 320t-15.5 57-41.5 41.5-57 15.5q-28 0-52.5-13T541 385l-109 47q13 26 13 53t-14 52l144 79q16-23 40.5-36.5T669 566q31 0 57 15.5t41 41.5 15 57-15 56.5-41 41-57 15.5z"/></svg>