<svg xmlns="http://www.w3.org/2000/svg" viewBox="-10 0 1010 1000"><path d="M215 300q18 48 29 72 9 23 31 67l6 13q11 23 33 11 14-7 40-21l29-16q5-3 13-9 3-2 1.5-5t-2.5-10l-2-8q-12-50-17-86-1-9-3-27.5t-4-28.5-9-16-17-5q-3 0-11 2l-5 1q-39 8-95 30-9 4-14 12t-5 17q0 3 2 7zm194-78q-11-1-18.5 7t-6.5 18q2 30 6 58 6 35 19 97 6 21 27 18l86-12q24-3 21-27-5-53-2-101 2-22 2-34 0-8-6-14t-14-7l-80-3h-11q-16 1-23 0zM156 453l6 6q8 7 12 10 0 2 2 3h1l51 45q5 4 10.5 5t8.5-.5 6-6.5q-10-4-17-10l-29-28-21-19-2-3q-18-18-27-28 1 0 2 1l1 1q24 21 76 61l2 2q10 8 17 10t11-2 11-13l6-7q2-4-1-5-8-5-11-13-8-14-22-44-21-44-39-90-2-7-9.5-9t-14.5 3q-24 18-58 56l-4 4q-5 6-7.5 11t-.5 13.5 7 14.5q11 10 33 32zm52 245q9-2 12-6.5t1-13.5q-35 11-102 24 1-1 3-2l2-1q16-4 23-7l59-20q13-5 11-17l-3-37q-1-3-4-3l-17-2q-37-4-56-8-15-2-45-8-2-1-3-.5t-2 2.5l-4 26q-4 35 1 79 0 6 6 16 6 7 16 6l43-10zm119 90q-15-18-40-17h-5q-14 2-20 7l-12 10q-16 13-24 20t-8.5 11 5.5 13l1 1q0 1 1 1 9 13 26 25 19 13 43 5t49-24q10-6 11.5-13t-6.5-17zm-83-25q-1 0-1-1l-1-1q-1-3-2.5-3t-4.5 2l-34 23-1-1 1-1q0-1 1-1 18-20 28-30 4-3 1-8-8-18-11-27l-3-3h-4l-28 8q-37 11-56 16-2 0-4 2-4 12-2.5 23.5T133 781q13 15 44 26 10 5 23 3 4 0 6-2 14-15 37-33 5-4 5-5.5t-4-6.5zm210-26q-6-7-16-7-29 4-43 30-10 15-27 23-6 3-18 7l5 7q6 7 8 11 7 12 6 21-1 4 3 4l17-3q44-8 82-46 6-6 6.5-10.5t-3.5-11-12-16.5zm470-551q0-2-3-5l-1-1q-10-13-19-17l-5-3q-17-11-37-11l-1-1q0-1-1-1h-7q-15-1-23 1-21 3-63 11l-44 8q-46 8-68.5 8t-67.5-8h-3q-18-3-54-12l-20-6q-1 0-2 1-4-3-11-3-2-2-8-2-74-17-130-12l-15 2-14 3q2 2 4 0 30-5 54-5 45 1 102 15 5 2 7 0 3 4 13 4 3 3 8 3l18 5q41 11 62 14 41 8 78 5 23-1 69-9l27-5q8-1 25-4 26-5 39.5-5.5T853 154q1 1 2 1l2 1q29 3 46 19 27 24 25 66 0 33-18 67-25 48-70 84-28 23-56 24h-4q-4 0-6 2-2-2-6-2-18-3-35-15 15-6 23-24l5-10q14-33 24-48 18-29 39-40 3-2 8-4l8-3-4-1q-32-8-75-1l-61 14q-20 2-29 0-19-5-40-18-11-7-30-22l-15-11q-6-5-9.5-4.5T569 236q-6 10-10.5 31t-3.5 64v16q0 5 2.5 7.5t7.5 5.5l7 3q14 3 40 11 32 12 46 22 8 6 14 7 3 0 4.5 1.5t2.5 5.5q5 19 5 44l1-4q6-19 4-41 0-4 4-4 10 2 19 0 3-1 8 2l1 1q18 15 38 19l4 1q13 2 20-1 2 1 5 1 23-3 45-18 34-21 59-56 40-51 45-103 3-40-13-65zM710 322q0-10 7-16.5t17-6 16.5 7 6 16.5-7.5 16.5-17 5.5q-22-2-22-23zM403 562q2 1 4.5-1t3.5-5l3-9q14-58 6-105l-1-2q-1-5-2.5-7.5T411 429l-2-1q-2-1-4.5 1t-.5 5q7 28 4 68-2 0-2-2-4-22-20-49-3-6-4.5-6.5t-7 2-2.5 7.5q13 21 18 36 9 30 7 64 0 7 6 8zm37-16q-2 7 3.5 8.5t8.5-3.5l3-4q8-14 16-34 16-37 20-76 1-8 0-9.5t-9 .5q-4 0-4 5-1 14-8 41l-1 3q-1 4-4 12l-2 6q-1-3-1-8v-4q0-10-2-15 1 0 1-1-1-11-7-33 0-2-2-1h-1q-7 0-10 2l2 8q1 7 3 11-1 1 0 2v1q4 22 1 47-2 23-7 42zm-117-72-2 2 1 2q3 5 9 13 16 26 22 72 0 4 1.5 6t6.5 2.5 6-7.5q5-25 3-64-1-16-7-42l-1-2q0-2-2-1l-4 2q-4 2-5.5 3.5t-.5 4.5l1 3q5 17 5 43-10-22-17-33-4-7-6-7.5t-10 3.5zm-42 45q-3-5-4.5-5.5T271 517l-1 1q-4 4-1 8 10 13 15 29 9 26 11 44 0 4 3.5 6t6.5 0 3-7q6-42-2-85-3-15-9-30l-1 2q-3 6-6 8t-1 7q4 10 6 32 1 2 1 7 2 3 0 8-5-14-15-28zm213 244-1.5 1-1.5 3q2 7-1 16 38-42 61-75 30-42 46-84-11 26-30 52-30 43-73 87zm62-129q-14 22-22 32-18 23-56 65-4 4-4.5 5t3 5 4.5 4 3-3q29-36 49-66 15-21 23-42zm-128 83q3 0 7-4 36-48 54-89l3-8q0-1 1.5-4t.5-6q-14 32-37 63-19 26-47 55l9-4zm33 7q4 4 7-1l3-4q31-45 43-68 6-9 9-19l-1 1q-20 32-62 80-4 4-3.5 5t4.5 6zm126-342q-5-2-13-4 5 9 15.5 12.5T606 402q4 5 9 17 5 15 5 38 2-27-3-44-6-23-30-31zM144 589q0 1 3 1l64 13q6 2 11.5.5t7.5-4 4-8.5q-12 2-20-1l-46-11q-12-3-18-4 0-1-3-1l-35-11q1-1 3 0h1q30 6 92 16l4 1q12 2 18.5 0t9.5-6l8-23q0-4-3-4-11-2-15-5l-37-26q-38-28-68-54-5-4-12.5-2.5T101 467q-20 30-33 70l-2 4q-3 7-3 11-1 7 4 13t12 7l42 12q14 4 23 5z"/></svg>