<svg xmlns="http://www.w3.org/2000/svg" viewBox="-10 0 1020 1000"><path d="M0 550q0 78 19 140 17 57 45.5 89.5T125 812q22 0 41-14 11-9 29-31 16-19 25-26 14-12 30.5-12t31.5 21q9 13 27 51 21 42 34 62 23 35 49 53 33 22 75 22 74 0 152-30 69-26 132-72 57-41 92.5-86t35.5-75V479q-118 0-227-5-98-5-188-15-80-8-152-20-63-10-119-23-48-10-88-22-33-10-60-20-20-8-34-15l-11-5zm83-75q115 35 265 56 198 29 444 32v108q-7 19-36 48-32 32-74 61-50 33-102 52-60 22-117 22-24 0-41-20-15-17-39-67l-2-5q-18-35-29-52-19-29-41-45-27-19-61-19-40 0-73 23-19 14-44 42v1q0 3-4 6l-4 3q-16-20-27-59-15-51-15-116zm917-92q0 53-9 100-7 39-20 74-11 27-25 51-10 16-20 29l-9 9V479q22-37 31-99 9-65-2-125-12-67-47-106-41-45-107-45-20 0-41 13-14 7-41 30-31 25-50 37-33 21-67 32-43 13-93 13-33 0-102-9-75-11-111-10-59 1-100 24-49 27-79 91l-91-33q40-66 89-101 43-31 95-40 42-8 96-1 31 4 92 19 40 9 58 12 31 6 53 6 49 0 86-11 30-9 55-27 14-11 38-34 28-27 46-37 28-16 67-16 59 0 106 38t74 109q28 75 28 174z"/></svg>