<svg xmlns="http://www.w3.org/2000/svg" viewBox="-10 0 1010 1000"><path d="m937 524-1-3q-8-23-27.5-37T864 471q-14 0-25 4l-86 29-56-166 83-28q28-10 44-34 17-26 8-55l-1-3q-8-23-28-37t-45-14q-11 0-23 3l-85 29-29-84q-9-31-38-45-18-8-35-8-8 0-24 4-29 10-43 37.5t-6 56.5l30 88-164 55-29-84q-7-24-27.5-38.5T239 167q-13 0-24 4-29 10-43 37t-6 56l29 87-83 28q-29 10-43 37t-6 56l1 4q8 23 27 36.5t44 13.5h1q16-2 24-5l83-28 55 164-82 28q-29 10-43.5 37.5T166 779l2 4q7 22 26.5 35.5T239 832q10 0 26-4l81-28 29 85q8 24 28 38.5t45 14.5q16-2 24-4 29-11 43.5-38t5.5-56q0-2-1-4l-29-86 164-56 29 87q8 24 28.5 38.5T758 833q14 0 23-4 29-10 43.5-37t5.5-58v-2l-30-87 91-31 15-8q16-10 22-18 9-14 11.5-31t-2.5-33zm-493 84-56-164q65-23 164-56l55 165z"/></svg>