<svg xmlns="http://www.w3.org/2000/svg" viewBox="-10 0 1010 1000"><path d="M416 128q0 27-25 46.5T331.5 194 272 174.5 247 128t25-46.5T332 62t59.5 19.5T416 128zm296-66q-34 0-59 19.5T628 128t25 46.5 59.5 19.5 59.5-19.5 25-46.5-25-46.5T712 62zm226 334q0 24-18 81-22 70-57 138-44 85-99 151-67 79-146 122-92 50-197 50-132 0-219-58-78-52-114-144-32-83-24-184 7-96 47-180 9-19 20-31 8-9 16-13l6-3h723l10 2q11 3 21 9 14 9 21 21 10 17 10 39zm-88 16H187q-23 46-33 102-12 60-5 116 7 62 35 110 37 62 110 89 55 21 127 21 98 0 183-56 71-47 129-130 46-65 81-146 25-60 36-106z"/></svg>