<svg xmlns="http://www.w3.org/2000/svg" viewBox="-10 0 1010 1000"><path d="M680 178q0-2-2-7-4-16-2-25 5-26 21-38 3-3 10-6 11-5 23-5 17 1 33 10 13 9 19 26.5t2 30.5q-10 26-30 37-3 2-4 6t1 7l5 17q5 22 10 32 3 5 2.5 7t-6 3-16.5 6l-9 4q-3 1-4.5.5T729 280q-22-36-31-55-8-15-18-47zm141 86q3 0 9 1 13 1 19 2.5t7.5 0 2.5-6.5v-1q0-12 6-37l3-16q2-10 10-10 26-2 45-21 11-10 14-29t-5-34q-10-17-26-25-11-7-24-8-8 0-12 1-22 4-38 25-6 9-11 28l-1 5q-7 30-7 52 0 32 3 67 0 4 1 5t4 1zm111 184q-16 51-60 72-4 1-4 7l-1 20q-2 28-2 41 0 22-5 49-3 17-11 47-12 52-42 94-26 38-61 66-29 23-67 40-17 8-34 12-39 14-100 20-48 4-109 3-43 0-88-4l-36-3q-25-2-73-7l-7-1q-52-7-93-16-6-2-19-4-23-4-32-8-16-7-22-20-2-3-2-8.5t2-7.5q2-5 12-7h1q29-9 57-9 7 0 19.5-1.5T174 821q-8-6-21-19l-5-5q-22-22-35-43-6-9-16-27-19-39-28-82-7-35-6-71 0-25 3-49l4-18q7-25 21-53 21-39 46-68 28-29 52-46 39-27 76-39 42-14 85-15 40-2 71 5 43 8 79 28 48 27 83 64 48 54 64 113l2 7q7 22 8 34l5 48q0-1 1-3l1-1q2-11 7.5-32.5T679 516q8-44 12-107 1-41 25-73 33-42 85-48 57-6 99 35 27 26 35 64 7 35-3 61zm-353 93q-8-33-22-60-24-44-59-70-53-41-115-45-30-3-57 1-32 4-66 22-67 36-97 99-30 60-21 126 7 49 27 81 27 48 75 78 20 13 58 26 13 5 27 3 11-2 26-9 11-5 29-19 36-31 55-77 5-12 6-27 1-9 1-26v-6q-3-58-41-86-35-24-72-13-11 3-17 15t-4.5 22 10.5 17 21 8q22 2 30 15 12 19 5 35-9 21-28 22-32 3-60-13-34-19-46-54-8-24-3-55 4-34 30-58 22-22 54-28 27-4 55 0 25 3 50 17 29 14 50 42.5t30 60.5q8 29 10 47 4 71-34 137l9-7q34-26 54-59 24-38 31-83 8-41-1-79z"/></svg>