<svg xmlns="http://www.w3.org/2000/svg" viewBox="-10 0 1010 1000"><path d="M816 416q-68-67-157-34-9 3-12.5 2t-7.5-10q-29-72-91-109t-139-28q-70 7-120.5 58T225 421v3q-1 5-2.5 8t-5.5 5q-22 10-40 29l-8 8q-8 11-15 23-8 18-11 35-3 22 3 44 8 25 29 49l8 9v-1q28 27 71 32 17 1 51 1h39l259-1h39q48 1 71 0 95-3 134-90 18-41 9.5-84.5T816 416zM444 205l-3 6-3 7q55-1 102.5 22t79.5 67l6-10q12-25 10.5-52t-16-49.5-39.5-35-52-11-50 16-35 39.5zm207 36q-1 4 1.5 9t6.5 7q2 1 7 1 15 0 45-2 6-1 9.5-5.5t3.5-10-4-9.5-10-4q-23 0-47 3-4 0-7.5 3t-4.5 8zm-62-91q5 3 11 1t9-8l9-19 10-19q3-6 1-11.5t-7.5-8.5-11-1-8.5 8q-7 12-19 38-3 6-1 11.5t7 8.5zm-217 36 20 10 19 9q5 3 10.5 1.5t8.5-6.5 1.5-11-6.5-9l-10-5q-21-11-31-15-5-3-11-.5t-8 7.5 0 10.5 7 8.5zm286 111q-5-3-11-.5t-8.5 7.5-.5 10.5 8 8.5l19 10 19 9q6 3 11.5 1.5t8.5-6.5 1-11-7-9q-26-14-40-20zm-20-101q7 3 13-1 26-16 39-25 4-3 5-8.5t-2-10.5-8.5-6.5T674 146q-26 16-39 25-6 5-5 13t8 12zm-118-63q8 4 15-.5t6-12.5q0-14-2-41v-3q-1-6-5-10t-10.5-3.5-10.5 5-3 10.5q0 15 2 43 2 9 8 12zm-70 17q2 3 5 5 12 5 18.5-2.5T475 134l-24-36q-4-5-10-6.5T430 93q-11 8-4 21zm50 758q0 12-8.5 21t-20.5 9-21-9-9-21 9-20.5 21-8.5 20.5 8.5T500 908zm-20-95q0 6-4 10.5t-10.5 4.5-10.5-4.5-4-10.5 4-10.5 10-4.5 10.5 4.5T480 813zm233-29q0 12-9 20.5t-21 8.5-20.5-8.5T654 784t8.5-21 20.5-9 21 8.5 9 21.5zm-166-35v6l-6-5-4 4 10 9v10h5v-10l10-9-4-4-6 5v-6zm5 50h-5v10l-10 10 4 4 6-6v6h5v-6l6 6 4-4-10-10zm-15-10q-1-1-1-3t1-2h-11l-9-10-4 4 6 5h-6v6h6l-6 6 4 3 9-9zm-19-17h13l7 7 4-4-7-7v-13h-6v8l-4-5-4 4 5 4h-8zm20 21-7 7h-13v6h8l-5 4 4 4 4-4v8h6v-14l7-7-1-1zm44-19-9 9h-11q1 1 1 3t-1 3h11l9 9 4-4-6-5h6v-6h-6l6-5zm-18-19v13l-7 7 4 4 7-7h13v-6h-8l5-4-4-4-4 5v-8zm6 55 4 4 4-4-5-4h8v-6l-13 1-7-8-3 3-1 1 7 7v14h6zm-21-34q-4 0-6.5 3t-2.5 7 2.5 7 7 3 7-3 2.5-7.5-2.5-7-7.5-2.5zm-224-81v13l-13-12-9 8 22 22v23q2-1 6-1t6 1v-23l21-22-9-8-12 12v-13zm12 111h-3l-3 1-6-1v23l-21 22 8 8 13-12v13h12v-13l13 12 9-8-22-22zm-35-23v-12h-23l-21-21-9 9 13 12h-14v13h14l-13 12 9 9 21-21h23zm-42-38h30l16 17q5-6 9-9l-16-17-1-30h-12v18l-9-9-9 8 10 10h-18zm46 48-16 16h-30v13h17l-9 9 8 9 10-10v18h12v-30l17-16q-4-3-9-9zm107-34-8-9-22 21h-23q1 2 1 6t-1 6h23l22 22 8-9-12-13h13v-12h-13zm-49-53v30l-16 17q5 3 8 9l17-17h30v-12h-18l10-10-9-8-9 9v-18zm39 103h-30l-17-16q-3 5-8 9l16 16v30h12v-18l10 10 9-9-10-9h18zm-72-54q-9 0-15.5 6.5T309 777t6.5 16 15.5 7 15.5-6.5 6.5-16-6.5-16T331 755zm249 91v2l-2-2-2 1 4 4v4h2v-4l4-4-2-1-2 2v-2zm3 19-1 .5-1-.5v5l-4 3 1 2 3-2v2h2v-2l2 2 2-2-4-3zm-7-4v-2h-4l-4-3-1 1 2 3h-2v2h2l-2 2 1 2 4-4zm-7-6h5l3 3 1-2-2-3v-5h-3v3l-1-2-2 2 2 2h-3zm8 8-3 3h-5v2h3l-2 2 2 2 1-2v3h3v-5l3-3-1-1q-1 0-1-1zm19-6-2-2-3 4h-5l1 1q0 1-1 1h5l3 4 2-2-2-2h2v-2h-2zm-9-9v5l-3 3q1 0 1 1l1 1 3-3h5v-2h-3l2-2-2-2-2 2v-3zm7 18h-5l-3-3q0 1-1 1l-1 1 3 3v5h2v-3l2 2 2-2-2-2h3zm-9-6q0 4-3 4t-4-1v-3q0-4 3.5-4t3.5 4z"/></svg>