<svg xmlns="http://www.w3.org/2000/svg" viewBox="-10 0 1010 1000"><path d="M842 448q-36-36-79-45.5t-91 8.5q-10 3-14 1.5t-8-10.5q-31-79-99-119t-151-30q-50 6-92 33t-70 70.5-37 96.5v4q-1 5-2.5 8.5T193 471q-24 9-44 31l-8 9q-10 12-17 25-9 19-12 38-4 24 3 47 9 28 32 54l7 7 1 2v-1q31 30 78 34 23 2 70 1h28q8 1 11-3t6-13l46-168q2-9 6.5-12.5T414 518q66 1 132 0 10 0 12.5 3.5T558 535l-27 96h141l-61 87h43q51 1 77 0 103-5 144-98 20-44 11-91.5T842 448zM509 661q-11 0-14-3t1-14l9-34q9-32 14-48 2-8 0-11t-10-3q-37 1-75 0-12 0-15 11l-10 35q-23 86-36 129-2 6 .5 9t9.5 3q13-1 39 0h19q12-1 16 2t0 16q-12 46-33 139l-10 43 3 2q130-182 197-277-72 0-105 1zm171-348q-8-4-17 2-6 5-4.5 13.5t9.5 13 27 14.5l9 4q8 4 13 3.5t12-6.5q0-2 2-4v-2q2-12-9-17zm-229-98q-2 4-4 10l-2 4q59-1 109.5 23.5T639 324l2-2q3-6 5-9 13-26 11-55t-17.5-53.5T597 167t-55.5-11.5-53 17T451 215zm222 39q-1 5 1.5 9.5t6.5 6.5 7 2l49-3q6 0 10-5t3.5-11-4.5-10.5-11-4.5l-50 3q-5 1-8 4.5t-4 8.5zm-67-98q6 3 12 1t9.5-8.5T637 128l10-20h1q2-6 0-12.5t-7.5-9T629 86t-9 8q-7 13-21 41-3 6-1 12t8 9zm-232 39 21 10 20 10q6 3 12 1.5t9-7 1.5-12-7.5-9.5q-18-11-43-22-6-2-12 0t-8.5 8-.5 12 8 9zm284 10q9 4 15 0l41-27q5-4 6-10t-2.5-11-9.5-6.5-11 1.5q-28 18-41 27-7 4-6.5 13t8.5 13zm-125-67q8 4 15.5-.5t7-14.5-2.5-30l-1-16q0-7-4.5-11T536 62.5t-11 5-4 11.5l3 46q2 11 9 13zm-76 18q4 4 6 5 10 6 19-3 4-4 4.5-9.5T484 139l-26-39q-4-5-10.5-6.5T436 96t-6.5 10 2.5 12l6 9q13 19 19 29zm107 653v6l-6-6-4 4 10 10v11h6v-11l10-10-4-4-6 6v-6zm6 53h-6v11l-10 10 4 4 6-6v6h6v-6l6 6 4-4-10-10zm-17-11v-6h-11l-10-10-4 4 6 6h-7v6h7l-6 6 4 4 10-10zm-20-18h14l8 7 4-4-8-8v-14h-6v9l-4-5-4 4 4 5h-8zm22 23-8 7h-14v6h8l-4 5 4 4 5-5v9h5l1-14 7-8zm51-17-4-4-10 10h-11v6h11l10 10 4-4-6-6h7v-6h-7zm-19-6h14v-6h-8l4-5-4-4-5 5v-9h-5l-1 15-7 7q3 3 4 5zm14 30h-14l-8-7-1 1-3 3 8 8v14h6v-9l4 5 4-4-4-5h8zm-34-4q4 0 7-3t3-8-3-8-7-3-7.5 3-3.5 7.5 3.5 8 7.5 3.5zm-348-83v11l-10-10-7 7 17 18v18h10v-18l18-18-7-7-11 10v-11zm10 91q-1 1-5 1l-5-1v19l-17 17 7 7 10-10v11h10v-11l11 10 7-7-18-17zm-28-18v-10h-19l-17-18-7 7 10 11h-11v10h11l-10 10 7 7 17-17zm-35-31h25l13 13q1-2 5-5l2-2-13-13v-25h-10v15l-8-8-7 7 8 8h-14zm38 39-13 13h-24v10h14l-8 8 7 7 8-8v14h10v-24l13-13zm87-29-7-7-17 18h-19q1 1 1 4.5t-1 5.5h19l17 17 7-7-10-10h11v-10h-11zm-40-42v25l-13 13q4 3 7 7l13-13h25v-10h-15l8-8-7-7-8 7v-14zm32 84h-25l-13-13-2 2q-3 4-5 5l13 13v24h10v-14l8 8 7-7-8-8h15zm-59-44q-7 0-12.5 5t-5.5 12.5 5.5 13 13 5.5 12.5-5.5 5-13-5-12.5-13-5zm462-49v5l-5-5-3 3 8 8v9l2-1 3 1v-9l8-8-4-3-4 5v-5zm5 41h-5v9l-8 8 3 3 5-5v5h4v-5l5 5 3-3-8-8zm-13-8q-1-1-1-2.5t1-2.5h-9l-8-8-3 3 5 5h-6v4h6l-5 5 3 3 8-8zm-16-15h11l6 6 3-3-6-6v-11h-4v7l-4-4-3 3 3 4h-6zm17 18-6 6h-11v5h6l-3 3 3 3 4-3v6h4v-11l6-6q-1 0-2-2zm40-13-3-3-8 8h-9v5h9l8 8 3-3-5-5h5v-5h-5zm-18-19v11l-7 6q2 1 4 3l6-6h11v-4h-7l4-4-3-3-4 4v-7zm14 38h-11l-6-6q-1 3-4 3l7 6v12h4v-7l4 4 3-4-4-3h7zm-18-12q0 4-2.5 6.5T688 816t-6-2.5-2-6 2.5-6 5.5-2.5 6 2.5 3 5.5zm-351 43v3l-2-2-2 1 4 4v5h3v-5l4-4-2-1-3 2v-3zm3 22h-2v4l-4 4 1 2 3-3v3h2v-3l3 3 1-2-4-4zm-7-5v-2h-4l-4-4-2 2 3 2h-3v3h3l-3 2 2 2 4-4zm-8-7h6l3 3q0-1 1-1l1-1-3-3v-5h-3v3l-2-2-1 2 2 2h-4zm9 9-3 3h-6v3h4l-2 1 1 2 2-2v4h3v-6l3-3-1-1q-1 0-1-1zm20-6-2-2-4 4h-4v2h4l4 4 2-2-2-2h2v-2h-2zm-9-10v5l-3 3 1 2 4-3h5v-2h-3l2-2-2-2-2 2v-3zm7 19h-5l-4-3-1 2 3 3v5h2v-3l2 2 2-2-2-2h3zm-9-6q0 1-1 2.5t-3 1.5q-5 0-5-4t5-4q2 0 3 1t1 3z"/></svg>