<svg xmlns="http://www.w3.org/2000/svg" viewBox="-10 0 1010 1000"><path d="M280 437q-13 0-22 9t-9 22v251q0 12 9 18t22 6 21.5-5.5T310 719V468q0-13-9-22t-21-9zM92 507q-12 0-21 9t-9 21v119q0 16 12 24.5t25.5 5.5 18-8.5T122 655V537q0-13-8.5-21.5T92 507zm94-106q-12 0-21 9t-9 21v275q0 12 8.5 18t21.5 6 21.5-5.5T216 706V431q0-11-8.5-20.5T186 401zm197-127q-13-3-26.5 7.5T343 313v407q0 23 30 23t30-23V313q0-34-20-39zm514 234q-40-40-97-40-30 0-53 10-6-62-39-111-35-53-87-80-52-30-116-30-29 0-54 7-13 3-13 25v443q0 1 1 3l1 3q1 2 4 4h2l354 1q56 0 97-41t41-97-41-97z"/></svg>