<svg xmlns="http://www.w3.org/2000/svg" viewBox="-10 0 1010 1000"><path d="M280 482q-5-33-29.5-58T193 392.5t-65 7.5-49 42q-11 19-16 44v28q1 1 1 6 4 27 22.5 49t45 33 53.5 7q48-7 75-43.5t20-83.5zm441 41q8 35 35.5 59.5T819 609q37 3 67.5-16t43.5-54q2-5 5-15l3-10v-28q-2-2-2-4-5-31-24.5-53t-47-32-57.5-4.5-51.5 25-31 47.5-3.5 58zm-98 210q0 28 14 53t38.5 40 54.5 15 55.5-14.5 41-39.5 15.5-55-14.5-55-40-40-55.5-15-55 15-39.5 40-14.5 56zm-14 95q0-30-14.5-55T555 733.5 500 719t-55 14.5-40 39.5-15 55 14 54.5 38.5 39.5 55 15.5 56-14T594 884t15-56zM497 281q31 0 56.5-14.5T594 227t15-54.5-14.5-55T555 77t-55-15-55 15-39.5 40-14.5 56q0 28 13.5 53t38 40 54.5 15zm-120-13q0-30-14.5-55T323 173t-55-15-55 15-39.5 41-14.5 56 15 54.5 40 38.5 54.5 14 54.5-14.5 39.5-39.5 14.5-55zm246 0q0 31 15 56t40.5 39 55.5 14 54.5-15 39-40 14.5-55-15.5-55.5T785 172t-56.5-13.5-54.5 16-37.5 40.5-13.5 53zM378 732q0-30-15-55.5t-40.5-40T267 622t-55 15-39.5 40.5-14.5 55 15.5 54.5 40.5 39.5 55 14.5 55-14.5 39.5-39.5 14.5-55z"/></svg>