<svg xmlns="http://www.w3.org/2000/svg" viewBox="-10 0 1010 1000"><path d="M906 469q-104 0-157 1-14 0-22.5 8.5t-8 22.5 9 22.5T750 532h157q16 0 26-15 1-1 1.5-3.5t2.5-3.5v-17q-8-23-31-24zM531 828v-77q0-14-8.5-22.5t-22.5-9-22.5 8T469 750v157q0 13 9 22t22.5 9 22-9 8.5-23zm87-513q11 3 20-.5t15-13.5q54-90 80-135 7-11 4-23t-14.5-19-23.5-4.5-19 13.5q-54 90-80 135-5 8-5 16 0 11 6.5 20t16.5 11zM501 62q-14 0-23 8.5T469 93v156q0 10 4 17 5 9 15 13t21 1.5 17-10.5 6-20V93q0-13-8.5-21.5T501 62zm182 318q4 11 12 17t19 6q7 0 17-6l87-52q9-6 29-18l18-11q11-7 13.5-19t-4.5-23-18-14.5-22 2.5q-47 28-139 84-9 5-12 14.5t0 19.5zm184 295q-19-12-59-34-52-30-78-44-11-7-22.5-3t-18 15.5-3.5 23 14 18.5q45 26 137 78 16 9 31 0t16-29q-2-17-17-25zm-217 26q-7-11-18.5-14.5t-23 3.5-15 18.5T597 732q52 92 78 137 6 10 15 13.5t19.5.5 17-11.5T733 852q0-6-4-14zM282 502q0-15-8-23.5t-23-8.5H94q-21 0-31 23v18q2 1 3 4l1 2q10 16 27 16h157q14-1 22.5-9.5T282 502zm65-201q6 10 15 13.5t19.5 1T399 304t7-20q0-6-5-16l-80-135q-8-11-19.5-13.5t-23 4.5-15 19 3.5 23q54 90 80 135zm-212 15q8 5 24 14l112 68q10 5 16 5 11 0 19-6.5t11-16.5 0-19.5-12-14.5q-92-56-138-83-11-7-22.5-3.5T126 274t-4.5 22.5T135 316zm176 294q-6-12-17.5-16t-23.5 3l-77 43-60 35q-16 9-16 24 1 20 15.5 29.5t30.5.5q92-52 138-79 11-6 14-17.5t-4-22.5zm81 80q-12-7-23.5-3.5T350 701q-26 45-78 137-5 7-5 14 0 10 6.5 18.5t17 12 20 0T325 869l79-138q7-11 3.5-22.5T392 690z"/></svg>