<svg xmlns="http://www.w3.org/2000/svg" viewBox="-10 0 1010 1000"><path d="M509 84q-4 0-6.5 2.5T500 93v83q0 4 3 7t7 3q83 4 152 44 63 35 107 94 40 55 54 118 39 172-81 308-3 3-7 3t-7-3l-75-74q-3-3-5-2t-2 5l1 227q0 4 3 7t7 3q152 0 229-1 4 0 5-2t-2-4l-71-72q-3-2-3-6.5t2-7.5q106-130 119-263 13-139-73-278-59-95-151-145-88-48-203-53zM255 250q3-3 7-3t7 3l75 75q3 2 5 1.5t2-4.5V95q0-4-3-6.5t-7-2.5H112q-4 0-5 2t2 5q47 47 72 71 2 3 2.5 7t-2.5 7q-75 82-103 185-26 93-9 190 15 92 63 165 42 63 104 110 59 44 125.5 66.5T488 914q4 0 7-3t3-8q0-52 1-78 0-4-3-7.5t-7-3.5q-234-22-306-229-61-179 72-335z"/></svg>