<svg xmlns="http://www.w3.org/2000/svg" viewBox="-10 0 1010 1000"><path d="M500 131q-100 0-186 50-84 49-133 133-50 86-50 186 0 72 27 138 26 64 73.5 114T341 832l12-223-27-9q-35-15-57-58t-22-100q0-41 19-78 18-35 48-57.5t62-22.5v0q32 0 62 22.5t48 57.5q19 37 19 78 0 57-22 100t-57 58l-27 10 13 248q44 11 88 11 62 0 117-20l12-221q-22-4-41-17.5T557 578q-9-13-5-89 3-55 12-135l8-70h23v248h23V284h25v248h23V284h25v248h23V284h18l8 70q9 81 12 135 4 77-5 90-12 18-30.5 31T676 628l-1 1 10 190q84-49 133-133 51-86 51-186t-50-186q-49-84-133-133-86-50-186-50zM301 405q2-6 3-11 0-4-3-5.5t-6 1.5l-6 10q-6 11-10 24-6 15-7 34-1 7 0 19t3 21l1 3q6 20 11 29 8 16 21 28 4 5 13 12l6 4q1 0 3 2l7 3q3 0 4.5-2t-.5-6l-6-5-6-9-6-9q-9-13-20-48l-3-9q-2-4-4-14l-1-19q0-15 2-31t4-22zM500 62q-118 0-220 60-99 58-157 157-60 102-60 221t60 221q58 99 157 157 102 60 220.5 60T721 878q99-58 157-157 60-102 60-221t-60-221q-58-99-157-157-102-60-221-60zm0 843q-110 0-204-55-92-54-146-146-55-94-55-204t55-204q54-92 146-146 94-55 204-55t204 55q92 54 146 146 55 94 55 204t-55 204q-54 92-146 146-94 55-204 55z"/></svg>