<svg xmlns="http://www.w3.org/2000/svg" viewBox="-10 0 1010 1000"><path d="M837 747q0 26-18 44.5T775 810t-44.5-18.5T712 747v-6q11 6 22 6 17 0 29.5-12.5T776 705q0-10-5-20h4q26 0 44 18t18 44zm63 51q-14 35-44 70-56 60-127 68-9 1-24.5 1t-25.5-1q-52-8-86-41-30-27-46-56-18-31-21-67-3-45-31.5-70.5T422 679q-16 1-47 4-27 3-40 4-23 2-41 0-52-5-84-33-34-31-39-84-4-64 11-127 9-37 3-63-8-30-38-50 31 1 54.5 23t25.5 51q1 21 0 65v33q0 29 9 56 7 18 19 27t31 10q31 1 68-3 24-3 67-11l5-1q22-3 33-6-4-8-18-17l-55-35q-94-64-114-186-3-24-11-52-14-44-40-63.5T149 200q-26-1-64 5 9-8 19-13l18-6 4-1q50-13 95-6 23 4 39 17t28 35q9 17 16 39 5 14 13 41l5 19q12 37 32 61 23 26 58 38 33 13 50 18 28 9 52 11 7 1 9-1t1-9q-2-9-2-29v-17q-3-32-14-54-13-25-38-40-46-28-95-71-39-34-53-80-12-41-5-95 5 57 32 95 24 31 49 42 66 30 113 67 40 30 64 65 28 38 37 83 0 4 2 12l1 1q1 1 2 3l13-16q31-39 44-59.5t10.5-42.5-18.5-43q-25-34-69-53l-36-17q-36-15-49-39t-7-64q4 3 5 6.5t2 9.5v5q5 24 19 38.5t38 21.5q65 18 102 43 55 35 74 80 13 31 5 66-6 25-27 61-9 16-12 26-6 16-5 29 0 20 8 29t28 11q63 6 109 45 42 35 59 100v1q5 21 5 44 0 45-15 86zm-40-142q-19-48-74-70-29-12-60-6.5T668 605q-86 65-73 176 4 31 22.5 58t46.5 42 60 14q27-1 53-12 28-12 47-35 37-44 47-90 10-50-11-102z"/></svg>