<svg xmlns="http://www.w3.org/2000/svg" viewBox="-10 0 1010 1000"><path d="M822 677V447h-57V328q0-72-35.5-133T633 98 500 62 367 98t-96.5 97T235 328v120h-57v257q14-15 44-45h59L178 764v60q83-81 164-164h60l-17 17Q257 805 193 870h-15v67h644v-81l-14 14h-59l1-3q11-10 32-31l40-40v-60l-74 74-59 60h-60zM335 448V328q0-45 22-83t60-60 83-22 83 22 60 60 22 83v120zm-22 422h-59q74-75 149-149l61-61h59zm60 0 .5-1 1.5-1 31-32 176-176h60l-17 17Q497 805 433 870zm388-193Q633 805 569 870h-60q0-2 2-2 10-11 31-32l176-176h60l-6 6q-8 7-11 11z"/></svg>