<svg xmlns="http://www.w3.org/2000/svg" viewBox="-10 0 1010 1000"><path d="M936 487h2zq-108-7-169-14-93-10-170-30-2 0-1-3l100-158-1 1q-41 42-66 65-37 35-71 60-1 1-2 .5t-1-1.5q-21-76-34-171-8-61-17-171v-2 2q-7 101-16 169-12 92-32 168-1 2-4 1-29-21-62-51-20-17-59-54l-17-17 1 1q35 48 53 75 28 42 48 79 1 3-1 4-79 21-175 33-67 9-176 16h-1 1q118 10 177 18 99 14 178 37 1 0 1.5 1t-.5 2L307 687q-1 1 0 1l1-1q44-37 67-55 38-30 71-51 3 0 3 2 24 79 39 175 11 70 20 177v1l1-1q6-111 13-178 11-98 32-178 0-1 1-1.5t2 .5l17 10q43 26 64 40 26 16 76 52l1 1-1-2q-39-39-62-65-34-36-60-70-1-3 1-3l43-10q47-12 71-16 39-7 117-17 22-3 67-7z"/></svg>