<svg xmlns="http://www.w3.org/2000/svg" viewBox="-10 0 1010 1000"><path d="M926 475H571q-5 0-6-2t3-6l251-251q3-3 3-7.5t-3-8.5l-19-19q-4-3-8.5-3t-7.5 3L533 432q-4 4-6 3t-2-6V74q0-5-3-8.5t-8-3.5h-28q-5 0-8 3.5t-3 8.5v355q0 5-2 6t-6-3L216 181q-3-3-7.5-3t-8.5 3l-19 19q-3 4-3 8.5t3 7.5l251 251q4 4 3 6t-6 2H74q-4 0-7.5 3t-3.5 8v28q0 5 3 8t8 3h355q5 0 6 2t-3 6L181 784q-3 3-3 7.5t3 8.5l19 19q4 3 8.5 3t7.5-3l251-251q4-4 6-3t2 6v355q0 5 3 8.5t8 3.5h28q5 0 8-3.5t3-8.5V571q0-5 2-6t6 3l251 251q3 3 7.5 3t8.5-3l19-19q3-4 3-8.5t-3-7.5L568 533q-4-4-3-6t6-2h355q5 0 8.5-3t3.5-8v-28q0-5-3.5-8t-8.5-3z"/></svg>