<svg xmlns="http://www.w3.org/2000/svg" viewBox="-11 0 1021 1000"><path d="M503 0Q402-1 309 38q-90 38-160 107T41 303Q1 396 0 498t38 195q37 90 106 159.5T303 960q93 40 195 40 137 0 254-66 113-65 179-178 68-115 69-252 0-103-38-196-37-90-105.5-159.5T698 40Q605 1 503 0zM145 328q112-212 356-224 120 7 208 61t145 158q14 25 8.5 38T831 385q-81 31-165 48-21 4-36-.5T601 412q-27-31-63-42.5t-72-.5-64 42q-17 18-34 22.5t-40-1.5q-101-23-165-50-21-9-25-21.5t7-32.5zm181 526q-152-73-207-246-8-26-.5-37t35.5-12q125-7 191 55t67 188v2q-2 39-4 51-3 18-9 23t-19 1q-9-3-37-17zm180-234q-33 0-61.5-16t-45-44-16.5-61q0-30 16-57t43-43 58-16 59 16.5 44 44.5 16 58-16.5 57-42.5 43.5-54 17.5zm136 250q-27 12-39.5 6T591 839q1-9 0-26v-13q0-85 31.5-142t91.5-82 144-16q20 2 25.5 9.5t.5 27.5q-53 193-242 273zM497 400q-43 1-71.5 32T399 507q1 26 15 47.5t36.5 34T499 601q46-1 74.5-29t28-72-30.5-72.5-74-27.5z"/></svg>