<svg xmlns="http://www.w3.org/2000/svg" viewBox="-10 0 1010 1000"><path d="M799 522q-5-57-25-93-18-31-48-51-26-16-65-26-36-10-79-13-32-3-79-3h-13q-49 0-83 4-45 4-82 16-95 28-117 119-24 105 19.5 201.5T353 853q51 49 101 73 45 21 85 3l8-4q22-11 32-18 105-69 174-192 27-48 39-93 13-50 7-100zm-535 40q-1 4-3 9 0 1-1 2.5t-2.5 1.5-3-1.5-1.5-2.5q-7-18 0-36 3-5 4-4 5 2 5 5 2 4 2 8 2 9 0 18zm8-109q-3-18 10-31 2-3 6.5-5t7.5-.5 4 5.5.5 9.5T298 442q-5 9-10 15.5t-9.5 4.5-6.5-9zm33 231q-4 1-9-3-9-8-14-22-3-11-1-16 1-2 2.5-3.5t4-.5 4.5 3q14 13 16 34 0 2-1 5t-2 3zm40-120q-1 6-4.5 11t-7.5 5-8-5q-6-8-6-22t6-22q5-5 9.5-5t7.5 6l3 11q4 10 0 21zm261-155q8-14 18-3 8 8 10.5 21t.5 22l-3 8q-3 7-8 7.5t-10-4.5q-8-8-10.5-24.5T606 409zm-239 17q2-6 8-18 5-7 11.5-6t9.5 10q7 24-8 45-1 3-5 5t-7.5 1.5T367 453q-2-4-2-6.5t-.5-5-1.5-2.5zm12 364q-2 3-7 0-16-10-19-31-1-5 1.5-6.5t6.5 1.5q10 6 15 16 3 5 4 11.5t-1 8.5zm24-108q-4 8-9 10t-10.5-3-7.5-14q-4-20 0-34 2-8 8-8.5t10.5 7.5 7.5 16q5 17 1 26zm21-117q-4-13 0-25l5-14q4-7 10-7.5t11 6.5q8 10 8 27.5t-8 27.5q-5 7-10.5 7.5T430 581zm27 305q-2 1-4 1-8-7-15-17-1 0 1.5-3t4.5-3q5-1 12 8 3 4 3 8.5t-2 5.5zm12-85q-4 9-9.5 9.5T443 789t-6-14q0-13 3-23 2-6 7-6.5t9 4.5q2 3 6 11 5 15 1 24zm48 83q-1 2-3.5 4t-5 2.5-7.5-6.5q-2-4-2-7-3-11 .5-19t9-8.5 8.5 5.5 3 15q0 6-3 14zm3-193q-2 8-4 12-4 7-9.5 7t-10.5-6q-6-9-6-24.5t5.5-24 11-8.5 9.5 8q2 4 4 12 2 5 2 12t-2 12zm0-228q-2 8-4 12-4 7-9.5 7t-10.5-7q-7-10-7-25.5t6-25.5q5-8 11.5-7.5T511 409q2 4 4 12 2 6 1.5 13.5T514 447zm25 338q-2-4-2-7-2-9 2-18 1-3 5-9t9.5-5 8.5 8q7 19-3 34-7 7-11 6.5t-9-9.5zm14 86q-2 0-4-2t-2.5-4 2-6 6.5-7 8.5-3.5 6.5 1.5l1 4q-1 5-7 11t-11 6zm25-305q-1 1-2 4-2 6-4 10-4 7-10 7t-11-7q-7-11-6.5-27.5T552 526q5-7 10.5-7t9.5 7q2 3 4 10l2 4q2 5 2 13t-2 13zm22 118q-8-23 6-43 2-3 6-5.5t7-1.5q5 2 9 11 1 2 1 6l1 3q0 3 1 3 0 5-4 13-4 12-8.5 18t-10 4.5-8.5-8.5zm28 106q-5 3-7 1-4-5 3-20 8-12 15-17 4-2 6.5-.5t2.5 6.5q-5 20-20 30zm53-227q-1 4-3.5 10t-7.5 6.5-9-4.5q-6-8-6-22.5t6-21.5q3-5 7.5-5t7.5 5 4 11q4 12 1 21zm38 97q-3 12-13 22-6 4-9 3-4-4-4-9 4-23 17-34 2-2 4.5-2.5t4 0 2.5 3 .5 7.5-2.5 10zm6-205q-1 4-4 5.5t-7-.5-6-4q-13-13-11-30 0-3 2-6t4-4.5 5.5 0 5.5 3.5q9 9 11 17 1 5 1 10.5t-1 8.5zm22 118q-1 1-2.5 1t-3-1.5-1.5-2.5q-2-6-2-8-2-9 0-18 0-3 2-9 0-2 1.5-2.5l3-1 3 1 1.5 2.5v12q1 16 0 23 0 1-2 3zM350 247q7 7 23 18l9 6q5 3 4.5 5.5T381 280l-11 3q-4 1-7.5 4t-4 6.5 2.5 5.5l2 2 6 3q46 10 70 12 21 3 64 1l18-1q47-1 70-4 13-1 38-9l13-4q2-1 4.5-3.5t2-6-2.5-4.5l-2-1q-3-2-4-2-6-3-11-4t-5-3.5 4-5.5l4-3q8-5 12-8l11-10q19-17 27-26 6-7 3.5-12t-12.5-6h-8l-18 5q-18 5-27 9-15 6-43 20-5 2-8 2.5t-2-1.5l2-5 4-18q5-17 6-26 1-4-1-9.5t-5-6.5-8 .5-9 4.5q-9 8-25 28l-6 9q-2 4-4 2.5t-1-6.5q3-74 37-127 3-5 2-10.5t-6-7.5q-11-6-25-4-21 2-27 29-9 33-16 77-1 9-2 27l-1 14q0 6-2 7t-5-4l-2-3q-3-5-5-7-15-18-28-28-7-5-11.5-2.5T423 183q0 14 1 20 4 16 7 23 2 5-.5 7.5t-7.5.5q-23-12-41-18-14-6-44-12-4-1-8.5 1t-6.5 4.5-.5 7.5 4.5 7q11 14 23 23z"/></svg>