<svg xmlns="http://www.w3.org/2000/svg" viewBox="-10 0 1010 1000"><path d="M760 720q-29-29-71-48-32-13-82-25-5-1-10.5 4t-6 9 1 5.5 5.5 2 5 1.5h2q59 16 95 45 34 28 34.5 62T701 838q-28 23-53 32-72 28-148 28t-148-28q-29-12-53-33-34-27-33-61t36-62.5 94-44.5q2 0 2.5-1t4-1 5.5-1.5 1.5-6-6-9T393 647q-49 10-82 25-42 18-71 48-32 32-31 69t34 69q24 22 55 37 26 13 61 23.5t74 15.5q33 4 61 3h11q28 1 62-3 38-5 73.5-15.5T702 895q31-15 55-37 33-31 34-68.5T760 720zM355 438q1 14 9 22.5t21 9 21.5-8.5 8.5-23q0-95 1-143 0-4 4-12l1 4q2 5 2 8 1 130 1 390h-5q-22 8-35 16-18 11-29 27-8 12-7.5 26.5T357 781q19 25 54 37 42 16 89 16h1q45 0 89-16 35-12 54-37 8-12 8.5-26.5T646 728q-11-16-29-27-13-8-35-16h-4V296q0-2 2-7l2-6 2 6q2 5 2 7v138q0 19 12 28 16 11 32 3t16-30q1-81 0-160-1-36-23.5-58T564 195H435q-35 1-57 23.5T356 275v68q-1 32-1 95zm92 334q18 6 32.5-4.5T494 738V513q0-5 1-8t5.5-3 5.5 3 1 9v220q0 13 5.5 23.5t17 14.5 23.5.5 18.5-12.5 6.5-21v-31l13 6q12 7 17 14 8 8 8 20t-8 20q-5 7-17 13-33 19-82 19h-18q-49 0-82-19-12-6-17-13-8-8-8-20t8-20q5-7 17-14l15-7v35q0 11 6.5 19t16.5 11zm53-585q26 0 44-18t18.5-44T545 80.5 501 62t-45 18.5-18.5 44 19 44T500 187z"/></svg>