<svg xmlns="http://www.w3.org/2000/svg" viewBox="-10 0 1010 1000"><path d="M504 669q4-5 11-16 36-51 53-77 6-8 12-11.5t14.5-2.5 25.5 1q29-1 43 3l3 1q11 3 13 5.5t1 14.5q-8 104-11 156l-1 11q-7 90-12 135-8 64 29 111H315q18-24 26-52 5-16 5-36 0-14-3-36-6-40-11-119l-12-177q0-5 1.5-7.5t5.5-3.5q18-6 35-6 34 0 51-1 7 0 13 7 23 31 71 93l2 2q2 4 5 5zm-9-440H311q-4 0-6-1t-3-5q-5-32-5-57 1-30 9-56 21-72 96-94 96-30 193-3 45 13 70 44.5t30 78.5q2 18 0 41-1 13-5 40v2q-1 5-3.5 7t-7.5 2H495zm0 20h182q35-1 50.5 32t-7.5 61q-16 18-32 19-6 1-8 3.5t-4 8.5q-17 62-50 102-22 26-46 42-28 17-59 21-70 10-126-45-48-48-67-122-1-5-3-6.5t-8-2.5q-20 0-34.5-11t-19-29 2.5-36q6-13 13-22 12-15 32-15zm1 27H313q-11 0-14.5 2.5T292 292q-6 18 3.5 29.5T320 331q3-1 10 0h5q16-3 16 12 1 10 6.5 15t17.5 6 38 5q35 6 52 7 72 5 177-13 4-1 5.5-2t2.5-5l1-7q2-12 5.5-16t15.5-2h10q10-1 16.5-9.5t6-20-7-18.5-17.5-7zm-60 212q20 15 45 20t48-.5 38-19.5zm166-36q24-25 36-62-11 2-31 4-5 1-5 7zm-238-63q15 39 35 62 1-18 1-53 0-4-5-4zm513 211q-1 37-3 75v1q-1 6 2.5 6t3.5-7l3-49q2-20 17-20 7-1 11.5 4t5.5 14l5 56q1 16-10 27l-12 11q-11 12-18 17-27 20-30 60 0 5-2 16l-3 16.5-2.5 7-6.5 1.5-132-7q-7 0-7-7 1-20 3-59.5t4-59.5l13-147v-6q2-7 6-11t10-3q13 2 13 17l-3 54q0 17-1 25v1q0 5 2.5 5.5t2.5-4.5v-1q4-34 5-51 3-19 7-59v-5q1-8 5-12t10-3.5 9.5 5T789 520l-5 112q0 4 2 4.5t2-2.5l1-2 6-62q4-50 7-75 2-19 19-17 7 1 11 6.5t4 13.5l-7 139q0 4 3 4t3-3l3-35 9-80q2-17 17-17 8 0 12 5t4 14zm-754-1-3-72q0-20 15-21 17-2 19 18l11 107v6l1 1q1 3 3 2.5t2-3.5v-12q-4-81-5-124-1-22 15.5-22.5T199 500l12 131q0 6 3 5.5t3-5.5v-1q-4-67-5-103-1-24 13.5-24t15.5 23l1 8q5 66 9 98v1q0 6 3 5.5t2-5.5l-3-78q0-18 13-18.5t15 17.5q15 151 18 265 1 6-1 8.5t-9 2.5q-28 1-86 4l-41 2q-5 0-7.5-2t-2.5-7l-9-55q-1-14-11-23l-44-43q-13-11-10-26 4-37 5-58 1-8 6-13t12-4.5 11.5 5.5 4.5 13l3 51q0 8 3 8t3.5-1.5-.5-5.5v-76zm117 250q22 0 52-3 5 0 7.5 2t3.5 7q5 26 6 42 1 24-3 43-5 25-18 39t-35 18q-25 4-46.5-5.5t-33.5-31-16-49.5q-4-21-2-52 0-4 2-5t7-1q44-2 76-4zm528 0q23 2 69 4 7 0 7 8 0 51-14 85-12 30-35.5 43t-52.5 7q-33-7-44-42t-4-86q2-12 3.5-16.5t6-5 17.5.5zM424 299q11 0 19 7.5t8 18.5-8 19-19 8-18.5-8-7.5-19 8-18.5 18-7.5zm129 26q0-11 7.5-18.5t18.5-8 19 7.5 8 19-8 19-19 8-18.5-8-7.5-19z"/></svg>