<svg xmlns="http://www.w3.org/2000/svg" viewBox="-10 0 1010 1000"><path d="M938 714q-1 6-3 17-3 18-5 27-34 112-148 144-53 15-106 4t-96-45.5-68-85.5q-17-35-24-81-10-62-53.5-107.5T329 530q-40-7-79 3.5t-69 37-45 64.5q-12 33-9 67.5t20.5 63.5 46.5 46q37 22 78 16.5t68-34.5q20-22 24.5-50t-8.5-53q-11-22-32.5-32.5T281 655q-26 8-32 33-1 12 5 21 4 6 11.5 7t12.5-7q3-5 8.5-5.5t11 4.5 7.5 13-1 16q-5 16-20.5 24.5T250 767q-27-5-44.5-27T189 689q1-35 25.5-62.5T275 593q48-9 89.5 17.5T421 685q16 52-4 102.5T350 867q-51 31-112 25t-105-46q-79-72-69-177 7-69 52-122t113-73q81-24 161 8 89 34 168-6 92-47 102-145 4-42-10.5-79t-44-62-66.5-33q-32-7-64 1t-55.5 29.5T386 239q-11 34-1 66.5t37 51.5q25 17 53.5 14.5T522 349q21-24 12-51-4-12-12.5-18.5T502 275q-8 1-11.5 6.5t-.5 13-2 12.5q-7 9-18 7t-19-12-9-23q-1-22 14.5-40t39.5-22q32-5 59.5 13.5T594 284t-3.5 71-47.5 58q-40 26-89 21t-85-40q-29-28-42-65.5t-8.5-77T346 178q51-79 150-87l3-1q4 0 5-1h10l9 2q93 6 152 79 35 43 45.5 98t-4 109.5T665 474q-10 11-33 30-15 13-22 20-32 31-47 72t-11.5 84.5T577 762q29 49 81 71t105 9q37-9 64.5-34t39-59 4.5-69q-9-44-44-70.5T750 588q-33 5-54.5 29T676 672q2 18 13.5 32t27.5 18q11 3 21.5-1.5t14.5-13 1-14.5-10.5-7-10.5-6.5-.5-13.5 10-13 17.5-5q16-1 30 9.5t18 27.5q12 41-18 72-23 24-58 27t-65-17q-32-21-45.5-58.5T618 631q9-33 32.5-59t57.5-38.5 73-8.5q57 6 99.5 46t53.5 97l1 7q1 15 3 23z"/></svg>