<svg xmlns="http://www.w3.org/2000/svg" viewBox="-10 0 1010 1000"><path d="M902 715q-17-16-38.5-25.5T819 679h-5q-25 0-47.5 9.5t-40 27-27 40-9.5 47 10 49.5q9 22 26.5 39t40 26.5T814 927q33 0 61.5-17t45.5-45.5 17-61.5q0-25-9.5-47.5T902 715zm-37 119-21 20-30-31-31 31-20-20 30-31-30-31 20-20 31 30 30-30 21 20-31 31zM752 637q-34 5-62 25.5T646 714t-16 67q0 27 9 51-59 56-139 82-142 46-241-71-30-35-29-77 1-53 0-158v-98q-48 0-72-1-13 0-22-9l-74-76h168V261q0-34-22-53-3-3-8-5l-4-2q-4 0-10-2l-10-1-62-2q-6-30-6-61.5t6-61.5h87l19 1q34 6 57 34 31 37 40 88v2q2 18 2 27 2 44 1 134v63q5 1 9 1 22-4 41 5 16 8 31 27 8 9 26 26.5t27 28.5H320v232q0 40 20.5 61.5T400 827q43 2 71-15 54-31 89-71 38-44 54-100 2-5 3-17l2-11h-28q-48-1-76-27t-31-74q-2-28 2-48 8-35 33-55t61-22q59-4 103 28t63 94q20 65 6 128z"/></svg>