<svg xmlns="http://www.w3.org/2000/svg" viewBox="-10 0 1010 1000"><path d="M575 230q-4-18-18-30t-33-12-33 12-18 30q-47 10-86.5 39T322 340h404q-24-42-63.5-71T575 230zm-51 13q-7 0-12.5-5.5T506 224t5.5-13 13-5 13 5 5.5 13-5.5 13.5T524 243zm400 163q-17-42-55-54-46-14-118 21-5-5-8-7H303q-40 31-63.5 72.5T213 526q-2-6-4.5-17t-4.5-32l-2-17q-2-14-5-21-7-24-22-38-15-17-34-20t-33 2q-11 4-19 13-6 6-10 15l-2 7 10-1q13-1 23 1 14 3 22 10 10 9 9 25 2 5 0 10l-1 16q0 25 1 38 4 47 18 77 17 39 50 61 24 17 55 23l10 2q23 24 51.5 43t58.5 30h276q77-28 126-88 66-50 98-84 39-42 49-81 11-43-9-94zM819 608q14-36 14-71 0-41-16-78.5T771 391q22-11 45-16 27-5 47 1 25 7 39 39 15 37 11 67t-28 61q-21 28-66 65zM647 767H401q-6 0-10 4.5t-4 10.5v15q0 6 4 10.5t10 4.5h246q6 0 10.5-4.5T662 797v-15q0-6-4.5-10.5T647 767zM81 344q0-4 6-10 10-10 9-20t-11-18l-3-1q-4-3-5-4t-1.5-4 1-5 4.5-5l2-2q8-10 7-19-1-2-3-4t-4-1q-6 0-6 7 0 3-4 9l-1 1q-10 8-9 19.5T76 306h1q6 5 6 8.5t-4 9.5l-1 1q-10 8-9 20 0 6 7 6 2 0 4-2.5t1-4.5zm37-42h1q6 4 6.5 8t-5.5 10l-1 2q-9 10-8 19 2 6 8 6 2-1 4-3t1.5-5 5.5-9l1-2q9-10 8-19-2-12-13-18-7-4-7.5-8.5T124 272q10-10 9-20-2-6-6-5.5t-6 2.5-1.5 4.5-3.5 8.5l-1 1q-10 10-9 21 1 6 4 11 2 2 7 6z"/></svg>