<svg xmlns="http://www.w3.org/2000/svg" viewBox="-10 0 1010 1000"><path d="M535 313q2 2 5.5-4t13.5-9q-3 7-2.5 11.5t5.5 7.5q9 6 17 0t2-19q13 6 15 13 2 4 5 3t1.5-6-7.5-9q-8-7-21-8t-24 4q-7 4-10 9.5t0 6.5zm-27 116q-7 4-18 0-8-2-13-2l-12 2q-13 2-20 2 14 10 26 9 9-2 14 1 16 5 28 0 8-2 15 0 13 2 24-1 2 0 2.5-1t-.5-1l-1-1q-7 2-19-4l-4-2q-12-6-22-2zm-31-44q13 9 27 3t16-23q0-5-1-7-2-6-6-5t-2 7q4 8-5 17-5 5-12 5t-13-5q-5-3-7-.5t1 6.5zm-4 72q8 12 24 13t24-10q-30 4-48-3zm67-176q5 0 7-1 6-2 10-4 14-5 29-2t24 14q2-5 .5-8.5T605 273q-12-12-30-12-22 0-37 8-5 3-4.5 7.5t6.5 4.5zm318 601q-3-110-15-221-3-28-17.5-49T785 577.5 724 555q-20-5-62-12-31-5-47-8-6-1-7.5.5T605 542l-1 4q-8 47-44 73-28 17-60 19-32-2-60-19-36-26-44-73v-2q-1-6-3-8t-8-1q-16 3-47 8-42 7-62 12-35 9-61 22.5T174.5 612 157 661q-12 111-15 221 0 24 10 39t31 24q36 17 81 27 35 9 84 16 94 13 152 12 58 1 152-12 49-7 84-16 45-10 81-27 21-9 31-24t10-39zm-678-8v4q0 21-5 32-6-5-7-12-1-4-1-12v-4q-1-53 8-160l2-23q4-41 14-63.5t31-35.5 62-22l11-2q44-9 66-12l4-1q4-2 6.5-2t3.5 4.5-1 6-7 2.5h-3q-11 3-35 7-37 7-56 13-40 11-59.5 35T190 696q-10 118-10 178zm595 62q-45 16-122 27.5T500 976q-76-1-152.5-12.5T225 936q-15-5-20.5-12t-4.5-22q4-65 10-193 2-38 18-62 18-25 54-34 16-4 47-10t46-9q5-1 8 1t7 7l2 2q21 28 49.5 42.5T500 661t58.5-14.5T608 604l2-2q4-5 7-7t8-1q16 3 47 9t46 10q36 9 54 34 16 24 18 62 6 128 11 193 1 15-5 22t-21 12zm50-26q-5-11-5-32v-4q0-60-10-178-4-43-23.5-67T727 594q-19-6-58-13l-36-7q-4-1-6.5-2.5t-1-6 3.5-4.5 6 2l4 1q22 3 66 12l11 2q41 9 62 22t31 35.5 14 63.5l2 23q9 107 8 160v5q1 8 0 11-2 7-8 12zM678 702h-2q-13 10-25 15-4 2-13 6l-3 1v1q0 5 2 15 0 7 4 23 5 13 15 24 6 6 9 8l12 9q0-1 1-1 6-4 18-14 8-7 13-18 4-6 7-21l1-6 1-15 1-5q-7-2-15-6-18-10-26-16zM457 298q-16-8-31-5-19 3-24 18-2 4 1 5t5-2q3-10 17-14-3 7-3 11t4 8q7 5 15 2 11-7 5-20 11 3 15 10 0 2 1.5 2.5t3.5-.5-.5-5.5-8.5-9.5zm-126-3q-10 8-14 21-3 10-1 25 1 10 10 29l4 11q6 13 19 17 3 1 4 4v2q5 28 17 48 19 32 52 54l8 6q20 14 32 19 46 20 88-4 47-27 69-54 27-32 28-63l1-6q0-6 5-7 13-5 20-23l5-13q5-14 7-21v-15q-2-4-4-14-6-13-15-18-2-1-2-5-1-9 2-27l1-13q6-52-16-103l-2-4q-7-14-8-21 0-4-5-4-7-1-12-11v-1q-1-3 1-4.5t1-2.5-4.5-2-10.5 0h-4q-4 1-5-3 0-6-4-14-1-4-5-3-16 3-28-2-7-4-10-12t-8-12.5-13-5.5q-3-1-3-5V20l-4 2q-6 5-10.5 6.5t-6.5 0-2-6.5q0-8 6-22h-4q-8 3-12 5-6 4-9 9l-4 8q-2-4-1.5-7.5T487 6l2-4q-19 6-32 23-4 4-9 12l-6 7q-2 3-3 3t-3-3l-2-4q0-2-1-3-5 2-8 9-5 9-10 22-3 6-6 6.5t-9-3.5q-2 0-2-2-4-4-5.5-4t-6.5 5q-8 9-20 31l-3 6q-5 11-16 20-6 8-14 14 3 2 7.5 2.5t5 1.5-.5 5q-2 6-9 18l-6 11-2 5q1 0 3-1l4-1q2-1 3 .5t-1 3.5l-13 37q1 1 2 0h1q5-2 5.5-1.5t.5 5.5q-2 42 0 63 0 3-2 5zm4 16q3 7 5 22v1q1 4 5.5 6.5t8.5 1.5q2-1 1-3l-1-19q-2-19 1-42 2-14 8-41 7-37 14-58 4-12 7-18 8-18 32-20 18-1 41 4 25 7 53-1 14-5 43-7 12 0 21 5t17 15q10 14 22 46 8 22 16 37 2 4 3 5 7 7 9 17 2 7 2 19 1 16 1 49v1q0 5 4 5h2q3 0 4.5-.5t1.5-4.5l3-24q6 2 8 10 6 16 0 33l-9 21q-2 6-8 11l-1 1q-3 2-5 1-8-2-8 7-2 7-4 23v2q-4 23-20 42-32 41-80 61-40 17-77-8-29-18-46-34-34-30-42-78l-2-8q-1-5-2.5-6.5t-6-.5-7.5-2-5-7l-4-10q-8-17-10-26-3-14 5-28zm66-34q8-3 15-3 16-3 33 6 12 3 15-3t-9-10q-18-8-36-6-15 1-27 12-6 6-5 16 6-9 14-12z"/></svg>