<svg xmlns="http://www.w3.org/2000/svg" viewBox="-10 0 1010 1000"><path d="M771 616h-29q-39-1-58 0-110 4-177 94-4 5-6 5t-6-5q-72-95-192-95h-54q-73 1-110 .5T76 595t-34-55q-7-27 3-54t32.5-44 50-18 79.5 0h39q9 0 10-1.5t-3-9.5q-13-32-17-61-1-6-3.5-8t-8.5-5Q117 307 99 198q-9-51 13.5-98.5T180 25Q231-6 290 1.5T391 51q8 8 18 4 92-33 182 0 6 2 10.5 1t8.5-5q76-73 172-42 49 15 79 49t40 84q8 44-5.5 85t-45 71-74.5 42q-10 3-11 12-4 30-19 63-2 5-.5 7t6.5 2q56-2 111 0 43 0 70.5 27t27.5 68-28 68.5-70 27.5q-20 1-61 0h-31zM502 243q-68 2-116 42-29 25-40 59.5t-2.5 69.5 35.5 62q30 30 71 42.5t83.5 5 75-34 45-62 4-72T620 291q-46-46-118-48zm-329-67q3 56 53 83 5 3 7.5 2t3.5-7q20-91 88-150 4-3 3.5-5t-4.5-5q-49-32-100-5-49 25-51 87zm557-99q-24-1-50 15-8 4-8 6t7 9q66 58 84 146 1 7 4 8t8-2q30-16 44-46t6-62-34-52.5T730 77zM309 693q41 0 76.5 20.5t56 55.5 20.5 76.5-20.5 77-56 56.5-77 21-77-21-56-56.5-20.5-77 20.5-76.5 56-55.5T309 693zm384 0q43 0 78.5 21t55.5 57 19.5 77.5-22 76.5-56.5 55-75 20q-43 0-78.5-21.5t-55.5-58-20-79.5q0-40 21.5-74t57-54 75.5-20zM500 410q-52-2-80-35-16-20-16-42.5t16-41.5q18-21 47.5-29.5t60-1.5 48.5 27q22 23 20 51.5T569 387q-29 23-69 23z"/></svg>