<svg xmlns="http://www.w3.org/2000/svg" viewBox="-10 0 1010 1000"><path d="M638 170q35 0 60-25t25-60-25-60-60-25-60 25-25 60 25 60 60 25zm197 119q-3-32-21-54-15-17-40-27-17-7-38-10l-17-1H549q-34 1-59 10-21 9-35 23-11 12-18 27-4 11-5 23l-1 17-1 5q-3-3-7-5-21-27-26-69 3-15 1-33-3-25-17-52l-1-2q-26-45-88-69-12-4-23-5-8-1-21 0-34 3-57 26-20 20-25 49t6 59.5 36 55.5q21 21 47 32.5t52 11.5v0q13 0 29 4 32 8 58 28l1 1q1 0 1 1l35 33v14q0 16 10.5 26.5T467 419q8 0 15-3-9 10-12.5 21.5t.5 22.5q5 14 21 20t34 2v46l-38 221 38 202q0 20 14 34.5t34 14.5 34.5-14.5T622 951l-39-208 39-223h22l77 432q0 20 14 34t34 14 34-14 14-34l-66-554 47-17q16-6 26-18t11-25zm-310 15v88l-22-22v-66zm-304-60q-22-21-32-47.5t-7-51 19-41 40.5-20 51 6.5 48.5 31.5 32 48 7 51-19 41-40.5 20-51-6.5-48.5-32zm174 58q-6 6-6 16-25-17-51-22 18-5 35-21 12-12 18-28 4 23 19 48-9 0-15 7zm346 12-1-10h23l3 1z"/></svg>