<svg xmlns="http://www.w3.org/2000/svg" viewBox="-10 0 1010 1000"><path d="M175 263h25q18-91 43.5-142t61-74T392 24h23v610q0 44-9 65-7 19-31.5 27t-73.5 8v21q129-3 197-3t201 3v-21q-48 0-72-8t-33-28-9-64V24h25q51 0 87 23t61 75 43 141h24q-3-36-3-82 0-80 7-181-96 3-328 3T171 0q8 115 8 181 0 50-4 82zm570 554q-5-5-11-5t-10 4q-10 10 .5 21.5T756 869l16 16 6 4-1 2H526q4 7 4 16t-4 14h252q-1 2-4 4l-18 18q-21 20-31 31-9 9-4.5 17.5t15.5 8.5q5-1 9-5l80-78q5-5 5-11.5t-5-10.5zm-270 74H353q-27 1-81 0h-48l-1-2 6-4q10-11 31-31l16-16q5-5 5.5-10.5t-4-10.5-11-5-11.5 5l-79 78q-5 5-5 11t5 11q26 26 80 78 3 5 9 5 10 2 15-7.5t-4-18.5l-54-53h253q-4-5-4-14t4-16zm43 15q0 7-5 12.5t-12.5 5.5-13-5.5-5.5-13 5.5-12.5 13-5 12.5 5 5 13z"/></svg>