<svg xmlns="http://www.w3.org/2000/svg" viewBox="-10 0 1010 1000"><path d="M896 316q1-16-5-22t-21-4h-16q-12 1-17-3.5t-7-17.5q-6-69-47-128-45-63-120-101Q590 4 507 1V0h-14v1q-83 3-156 39-75 38-120 101-41 59-47 128-1 13-6 17.5t-18 3.5h-16q-15-2-21 4t-5 22q2 28 0 85-1 13 3.5 18t17.5 5q19-1 25.5 1t7.5 10q1 5-1 25-20 211 87 379 39 61 87 99 53 42 119 56 15 3 43 5v1h14v-1q28-2 43-5 127-28 206-155 107-168 87-379-2-19-.5-26t8-9 24.5-1q13 0 17.5-5t3.5-18q-2-43 0-85zM500 958q-59-1-110-31-46-26-90-79 64 5 109-8 54-15 91-56v-1 1q37 41 91 56 45 13 109 8-44 53-90 79-51 30-110 31zm220-137q-7 11-14 13.5t-20-2.5q-59-23-151-76-14-8-28-10v-3l-7 1-7-1v3q-14 2-28 10-92 53-151 76-12 4-19 2t-15-13q-56-89-73-189 59 32 121 38 58 6 104.5-12t67.5-53q22 35 68.5 53T673 670q62-6 121-38-19 104-74 189zm80-354q-75-37-165-18-46 11-77 30-37 24-58 61-21-37-58-61-31-19-77-30-90-19-165 18-1-24 1-31 2-9 10-11 5-2 27-2h524q22 0 28 2 8 2 10 11 1 7 0 31z"/></svg>