<svg xmlns="http://www.w3.org/2000/svg" viewBox="-10 0 1010 1000"><path d="M192 581H96q-18 0-25.5-7.5T63 548V128q0-16 7.5-24T94 95h98q33 1 33 33v421q0 17-8 24.5t-25 7.5zm640 29H563l1 5q9 45 13 76 6 41 6 76 0 29-3 49-3 26-13 47-8 16-17 25-11 12-26.5 15.5T496 901t-14.5-20-6.5-42q-5-54-34-86-6-7-18-21.5T404 710q-49-51-74-112-2-5-8-16l-4-8q-11-18-35-20-12-1-18.5-5.5t-9.5-16-3-22.5V167q0-12 1-18 5-27 32-27h21q49-4 80-12l21-5q41-10 63-10h228q38 2 65 29.5t28 66.5q21 15 33 37.5t12 49.5v10l2 2q6 4 8 6 34 32 34 78v2q0 13-5 30 28 12 45 38t17 58v2q0 29-14 53.5T885 596t-53 14z"/></svg>