<svg xmlns="http://www.w3.org/2000/svg" viewBox="-10 0 1010 1000"><path d="M753 287H247q-50 0-92.5 29t-67 77.5T63 500t24.5 107 67 77.5T247 713h506q50 0 92.5-28.5t67-77.5T937 500t-24.5-106.5-67-77.5-92.5-29zm-22 389H269q-45 0-83.5-23.5t-61-64T102 500t22.5-88.5 61-64T269 324h462q45 0 83.5 23.5t61 64T898 500t-22.5 88.5-61 64T731 676zm-38-310q-36 0-67 18t-49 49-18 67 18 67 49 49 67 18 67-18 49-49 18-67-18-67-49-49-67-18zm-387 78q-7-11-14-14-9-6-21.5-6t-21 5-15.5 15q-6 14-8 23-3 13-3 27.5t3 28.5q2 11 8 22 5 8 15 15 8 5 20.5 5t22-5.5 15-14.5 8.5-21.5 3-28-3-28-9-23.5zm-36 98q-23 0-23-47t23-47q12 0 18 12t6 35q0 47-24 47zm126-115v86l-42-86q-3-1-9-1t-9 1v136q3 1 9.5 1t10.5-1v-87l42 87q3 1 9 1t9-1V427q-3-1-9.5-1t-10.5 1z"/></svg>