<svg xmlns="http://www.w3.org/2000/svg" viewBox="-10 0 1010 1000"><path d="M671 422q24-25 46-34 25-11 56-5 70 12 115-33 32-32 44-76 13-47-3-86l-73 80q-8 9-16 11t-20-1l-2-1q-40-10-52-16-16-7-23-23-6-11-16-50l-1-2q-4-14-1.5-24t13.5-19q16-15 47-47l26-26q-54-12-99 5t-69.5 56.5T620 223q1 5 1 16.5V257q3 16-3 30-5 11-18 25-99 97-295 295-16 16-42 16l-23-2q-27-2-41-2-22 0-38 5-38 13-65 48-24 32-31 72.5t7 71.5l73-80q6-7 11-10 6-4 15-3 39 6 54 13 19 8 29 25 9 15 20 53 5 17 1.5 28.5T259 865q-19 15-55 47l-17 15q54 17 101 1 46-15 71.5-55t22.5-91l-3-43q-1-12 2.5-21t12.5-18l40-40q159-157 237-238zm17 126q-15-16-25.5-16.5T641 548q-5 7-11 10-13 9-13 17.5t12 19.5q35 34 105 104l70 69q14 14 17 22 5 14-7.5 25t-24.5 6q-9-3-21-16l-55-55q-75-72-110-110-17-18-28.5-19T549 639q-5 6-11 11-10 7-10 14t9 16l84 84q94 94 142 140 23 23 51 27.5t58-8.5q27-12 42-35 14-21 17-49 0-26-10-48-8-18-26-37-122-119-207-206zM119 215l3 3q19 19 30 26 19 11 39 8 12-1 22 3 8 4 18 13 24 24 72 71.5t71 71.5q10 11 18 9 6-1 16.5-11t10.5-17-10-17q-34-33-101-100l-41-41q-14-12-17-19-6-12 1-26 0-22-13-40-8-11-28-29l-4-4q-24-23-33-28-11-6-23 1-7 4-31 28l-1 1q-27 27-33 36-7 13 1 25 5 9 33 36z"/></svg>