<svg xmlns="http://www.w3.org/2000/svg" viewBox="-10 0 1010 1000"><path d="M855 537q-7-5-22-15l-22-15q-34-25-49-48t-14-50.5 18-66.5q-85-25-138-80-28-28-13.5-57.5T663 181q25 4 44-15 44-48 38-80.5T681.5 24 566 1q-71 8-119.5 44.5t-71.5 101T364.5 270 425 379q25 25 30.5 59.5T446 500q-8 13-56 24-46 11-93 12-50 2-60-9-16-17-44-53-35-44-63.5-42T72 482q-33 55-39 126-5 52 6 131 17 129 84.5 190T322 998q108 6 234-3 98-7 232-26 150-20 172-154 12-71 6-117-5-49-31.5-86T855 537zM544 875q-33 17-72 24-36 7-81 7-51 5-111.5-15.5T187 829t-37-106q-1-10-7-31-6-17-7-26-5-30 9-44.5t40-4.5q59 22 133 30 45 5 136 7h22q45 0 75 16 34 19 49 60 17 47 2.5 85T544 875zm128-675q-4 0-11-1-12-1-18 0-8 3-12 14t1 21q3 8 12 19 7 9 16 10 6 1 19-2l6-1q20-3 43-12 14-5 41-17 35-16 53-22 31-10 58-10t38-13q8-10 7-32-1-39-13-48.5t-44 4.5q-21 10-38 12-20 3-37-5-21-10-33-2-9 5-18 26-14 29-25 41-18 19-45 18zm186 18q-7 0-20 6l-24 10q-42 18-63 25-37 13-71 18 40 35 75.5 40t73.5-22q11-7 35-19l13-6q4-2 15-7 16-7 22-11 10-8 6-20.5T902 216q-8-1-28 1-11 1-16 1zM461 671h-7q-90 0-134-4-73-8-130-31-20-7-29 1t-6 31q5 37 26 57t62 26l16 2q17 2 26 5 13 3 23 11-35 6-72-1-31-6-74-24 11 28 31 46 17 16 42 26 15 6 46 14t45 14l-5 12-32-6q-38-7-59-10 37 31 104 42 64 11 127 1 66-11 99-41 24-20 29-47 5-25-5-56-11-36-40.5-52.5T461 671z"/></svg>