<svg xmlns="http://www.w3.org/2000/svg" viewBox="-10 0 1020 1000"><path d="M144 475q32-24 52.5-56.5T220 334q3-55 47-86 12-8 28-12 10-2 30-4 96-7 147-90 0-1 1-1l1-1q16 28 22 65 15 90-30 170-2 4-2 6.5t3 5.5q118 118 176 177 5 4 8.5 4.5t9.5-2.5q50-27 107-28 54 0 103.5 24.5T954 630q34 45 43 102 10 64-13.5 122.5t-73 97T797 998q-60 7-115-16t-92.5-69T542 808q-12-78 24-147 5-8-2-14l-60-60q-79-80-119-119-3-4-6-4t-6 3q-62 35-131 32-47-1-90-20-4-1-8-4zm625 179q-33 0-59.5 16t-41 42.5-14.5 58 16 58 42.5 41.5 56.5 15q32 0 59-16.5t42-43.5 15-60q0-30-16.5-55.5t-43-40.5-56.5-15zM0 248q1-62 29-115.5t77.5-88T218 2q107-13 192 56 6 5 5 15-6 35-31.5 57T319 155q-91 6-140 71-31 39-36 98-3 52-35 81-15 12-23.5 15.5t-16-1T50 400Q2 334 0 248z"/></svg>