<svg xmlns="http://www.w3.org/2000/svg" viewBox="-10 0 1010 1000"><path d="M438 104q0-28 14-52t38-38 52-14 52 14 38 38 14 52-14 52-38 38-52.5 14-52-14-37.5-37.5-14-52.5zM305 458q8-23 42-139l33-111h-9q-40 0-63 4-40 8-70 34-36 29-61 78-24 44-31 88-5 34 17 54 16 14 54 26 31 9 56-1.5t32-32.5zm545-143q-5-11-15-17t-22-6v-42h-42v58l-116 58-104-107q-5-6-12.5-10.5T525 242l-104-25-79 270q-7 43-1 68 9 33 43 62l137 113v228q0 17 12.5 29.5T563 1000t29.5-12.5T605 958V708q0-16-13-29l-6-7-98-126 45-186 83 86q12 12 30 12 11 0 19-4l106-53v599h42V380l19-10q15-7 20.5-23.5T850 315zM334 608l-21 134-80 201q-7 17 0 32.5t23 21.5q8 3 15 3 13 0 23.5-7t15.5-19l80-201q5-6 6-15l17-58-19-16q-35-30-45-41-15-17-15-35z"/></svg>