<svg xmlns="http://www.w3.org/2000/svg" viewBox="-10 0 1010 1000"><path d="M664 477v355l1-2q3-15 11.5-31t22.5-28q11-11 32-20 17-7 38-7 40 0 71 26 28 25 34 59l1 3V544q0-7 4-13l38-55q2-2 1-4t-4-2H671q-3 0-5 2t-2 5zm170 199H705q-3 0-5-2t-2-5V514q0-3 2-5t5-2h129q3 0 5 2t2 5v155q0 3-2 5t-5 2zm-648 96L84 916q-3 7 0 12l3 4q5 5 11 5h92q3 0 5-2t2-5v-73q0-3 2-5t5-2h28q3 0 5-2.5t2-4.5V582q0-3-2-5t-5-2h-34q-3 0-5 2t-2 5v178q0 2-1.5 6t-3.5 6zm647 11q-11-11-29-19-14-7-34.5-7t-36 7-28.5 19q-11 11-18.5 29.5T679 847t7.5 34.5T705 911q13 13 29 19 18 8 36 8t34-8q20-10 29-19 13-13 20-29 7-19 7-35t-7-35q-7-17-20-29zM642 608h-24q-2 0-4.5-2t-2.5-5v-28q0-2-2-4.5t-5-2.5h-80q-2 0-4.5 2t-2.5 5v28q0 3-2 5t-5 2h-24q-2 0-4.5-2t-2.5-5v-28q0-2-2-4.5t-5-2.5h-79q-3 0-5 2t-2 5v28q0 3-2.5 5t-4.5 2h-14q-3 0-5-2t-2-5v-54q0-2-2-4.5t-5-2.5h-89q-2 0-4.5 2.5T255 547v196q0 3 2 5t5 2h380q2 0 4.5-2t2.5-5V616q0-3-2-5.5t-5-2.5zM259 850q2 0 6-4l3-3q13-13 31-13t31 13l3 3q4 4 10 4h16q7 0 9-4l3-3q15-13 32-13t32 13l3 3q2 4 9 4h16q6 0 10-4l1-1 2-2q13-13 31-13t31 13l3 3q4 4 10 4h10q6 0 10-4l3-3q13-13 31-13t31 13l3 3q4 4 6.5 4t2.5-7v-73q0-3-2-5t-5-2H263q-3 0-5 2t-2 5v73q-1 3 0 5t3 2zm378 12q-13-13-31.5-13T574 862q-4 4-5 6-8 13-8 26 0 16 13 31 14 12 32 12t31-12q13-15 13-31 0-13-8-26-1-2-5-6zm-98 0q-13-13-31-13-20 0-32 13l-6 6q-7 11-7 26 0 18 13.5 30.5T508 937t30.5-13 12.5-30q0-15-7-26zm-209 0q-12-13-31-13t-31 13l-6 6q-7 11-7 26 0 18 12.5 30.5T299 937t31.5-12.5T343 894q0-15-7-26zm105 0q-13-13-32-13t-32 13l-5 6q-8 13-8 26 0 16 13 31 14 12 32.5 12t31.5-12.5 13-30.5q0-13-8-26-1-2-5-6zM255 407v110q0 3 2.5 5t4.5 2h89q2 0 4.5-2t2.5-5V407q0-3-2-5t-5-2h-88q-3 0-5.5 2t-2.5 5zm8-22h88q6 0 10-6l26-48q3-6-4-6h-44q-3 0-4.5-2t-.5-5q15-35 36-46 10-5 18-3 6 1 16 5 17 9 30 9 23 0 57-16 31-15 49-19 16-4 25-1 6 2 14.5 9.5T595 267l8 3q16 8 25 10 15 3 32 0 20-3 45-17 29-15 45-10 9 3 16 16 2 5 4 5l6 2q27 9 45 5 33-6 47-51 12-37-2-67-12-24-37-39-22-13-39-13-10 0-28.5 9.5T734 131q-17 3-33-9.5t-28.5-17T645 101q-10 1-37 6l-12 2q-29 6-46 2-10-2-25-11-8-5-13-8l-10-6q-36-20-59-23-41-5-69 33-19 25-24 46-3 13-1 29 1 8 0 12.5t-7 8.5q-19 12-35 29-18 19-19 32 0 6-4 19-7 28-4 46 0 7-6 7h-44q-3 0-4 2t0 4l26 48q2 2 5 4t6 2z"/></svg>