<svg xmlns="http://www.w3.org/2000/svg" viewBox="-10 0 1010 1000"><path d="M917 363h-8v-22q0-17-7.5-25t-24.5-8h-50V62H172v246h-53q-13 0-20.5 8T91 337v26h-9q-7 0-12.5 5T64 381q-1 64 0 127 0 8 5 13t13 6h45q8-1 13-6t5-12V381q0-7-5-12t-13-6h-9v-27h54v300q-14 4-20.5 11.5T145 669v31q1 42 0 63 0 14 4.5 23t17.5 14q-13 4-18 12.5t-4 21.5q1 3 0 10v5q1 17 6 24t21 11l1 2v26q0 12 6.5 18.5T198 937h86q11 0 18-6.5t7-18.5v-29h381l1 1v29q0 11 6.5 17.5T715 937h87q12 0 18.5-6.5T827 912q1-6 0-19v-7l8-5q10-5 13-8 7-7 7.5-31t-6.5-32q-3-3-9-7l-5-3q11-6 15.5-13t4.5-20v-94q0-17-5.5-24.5T828 636V336h54v27h-9q-8 1-13 6t-5 13v126q0 8 5 13.5t13 5.5h45q8-1 13-6.5t5-13.5q2-62 0-124 0-18-19-20zM200 226h107q5-15 12-21.5t18-6.5q21 2 27 27h26q4-14 11-20.5t18-6.5q20 2 27 28h25q9-28 29-28 11 0 17.5 6.5T528 226h25q5-14 11.5-20.5T582 198q21 0 28 27h25q8-27 29-27t28 28h107v82h-27v-14q0-18-11.5-29.5T731 253H267q-18 1-29 12t-11 28v14h-27zm600 110v300h-28V336zM312 554q2-11 12-19t23-8h304q13 0 23 6.5t14 17.5v3zm379 28v27H309v-27zM200 336h27v300h-27zm27 520q-10 0-18.5-8.5t-9-19 8-19 19.5-9 19 7.5 8.5 19-8 19.5T227 856zm55-118q0 8-8 8h-67q-7 0-7-8v-38q0-9 8-9h66q8 0 8 8zm22-266q-21 0-23-22 0-79 1-118 0-24 23-24h167v164zm5 165h381v26H309zm342 136q-15 1-47 0H349q-14 0-24-7t-14-20h377q-1 12-12 19.5t-25 7.5zm40-55H309v-26h382zm1-246H527V308h167q24 0 24 24v114q1 14-5.5 20t-20.5 6zm81 384q-11 0-19.5-8.5T745 828t8.5-19 19.5-8.5 19 8 8 19.5-8 19.5-19 8.5zm18-110h-64q-9 0-9-9v-37q0-9 9-9h65q5 0 6.5 1.5t1.5 6.5v38q0 9-9 9z"/></svg>