<svg xmlns="http://www.w3.org/2000/svg" viewBox="-10 0 1018 1000"><path d="M516 0q3 2 8 6 9 7 13 11 13 15 9.5 34.5T526 82q-7 3-7 13v58q149 17 243 93 99 79 134 220 33 130-10 241-42 106-151 193 26 26 40 39 14 15 11 34-3 13-13 20t-22.5 6.5T728 990q-24-23-48-48-5-5-8.5-5.5T661 938q-159 68-323 0-5-3-8.5-2t-7.5 5q-15 16-47 48-11 11-25.5 11t-25-10.5-10-24.5 11.5-25q14-14 21-20l19-20q-120-97-158-215-39-122 10-265 24-70 75-128 53-60 125-95 76-38 164-43v-22q1-28 0-43 0-3-4-5-15-8-20.5-24.5t1-33T482 2q2 0 2-2zm299 563q0-85-43-158-42-71-113-113-74-43-158.5-43T343 292q-71 41-113 112-44 73-44 158t43 158q41 71 112 113 74 44 159 44t158-43q71-42 113-113 44-73 44-158zM3 228q6-34 11-51Q57 51 183 26q64-13 119 7t98 72l3 3q1 1 1 3-120 29-204.5 100.5T64 399v-2q-2-5-4-7-46-52-55-122l-2-10zm592-116Q682 5 807 24q69 11 115 51t66 107q35 116-53 216-45-112-134-187t-206-99zm-62 428h43q40-1 59 0 14 0 22.5 8.5T666 571t-9 23-23 9H501q-14 0-23-9t-9-24V366q0-15 9-24.5t23-9 23 10 9 23.5z"/></svg>