<svg xmlns="http://www.w3.org/2000/svg" viewBox="-10 0 1010 1000"><path d="M881 126q-14-8-27-8-38-1-115-1l-4 1v146q0 29-29 29H299q-18 0-26-7.5t-8-25.5V117H150q-26 1-43.5 18.5T89 178v766q0 22 15.5 38t38.5 17q4 1 12 1h229q305-1 458 0 27 0 44-10.5t25-34.5V168q-6-16-11-24-8-13-19-18zM724 506 619 611 513 718q-29 29-43 44-21 21-44 0-98-94-147-140-13-13-13.5-24t11.5-24l29-28q11-12 21.5-12t22.5 11l97 89 95-94q24-23 71-71l36-36q12-13 23-13t23 13q19 19 28 29 22 21 1 44zM346 234q7 2 21 1h7q134 2 268 0h10q23-4 25-28v-90q-1-22-11-37t-27-19q-9-2-26.5-2.5T560 58l-2-12q-1-19-8.5-30.5T524 0h-48q-21 5-29 22-5 11-6 36h-56q-27 0-43.5 16T324 117q-2 45 0 91 0 11 6 18t16 8z"/></svg>