<svg xmlns="http://www.w3.org/2000/svg" viewBox="-10 0 1020 1000"><path d="M500 0Q398 0 305 39q-89 38-158.5 107.5T39 305Q0 398 0 500t39 195q38 89 107.5 158.5T305 961q93 39 195 39t195-39q89-38 158.5-107.5T961 695q39-93 39-195t-39-195q-38-89-107.5-158.5T695 39Q602 0 500 0zm-3 830q-90 0-166-45-75-44-119-119-45-76-45-166t45-166q44-75 119-119 76-45 166-45t167 45q75 44 119 119 45 76 45 166t-45 166q-44 75-119 119-77 45-167 45zm75-376V280q0-24-17-41.5T514 221h-28q-24 0-41 17.5T428 280v210q0 16 8 29.5t22 21.5v1q2 4 5 6l149 149q17 17 41 17t41-17l19-19q17-17 17-41.5T713 596z"/></svg>