<svg xmlns="http://www.w3.org/2000/svg" viewBox="-10 0 1020 1000"><path d="M417 674q-28 0-47.5 19.5T350 741t19.5 47.5T417 808t47.5-19.5T484 741t-19.5-47.5T417 674zm350 0q-28 0-47.5 19.5T700 741t19.5 47.5T767 808t47.5-19.5T834 741t-19.5-47.5T767 674zm217-403H252l-50-79H36q-15 0-25.5 10.5T0 228v13q0 15 10.5 25.5T36 277h108q-3 7 2 15l188 314q5 9 16.5 15.5T372 628h445q10 0 20.5-6.5T852 605l146-312q4-9 0-15.5t-14-6.5zm-248 86q0-11 7.5-18t17.5-7h10q10 0 17.5 7.5T796 357v5q0 10-7.5 17.5T771 387h-10q-10 0-17.5-7.5T736 362zm-91 0q0-10 7.5-17.5T670 332h10q11 0 18 7t7 18v5q0 10-7 17.5t-18 7.5h-10q-10 0-17.5-7.5T645 362zm-91 0q0-10 7.5-17.5T579 332h10q11 0 18 7t7 18v5q0 10-7 17.5t-18 7.5h-10q-10 0-17.5-7.5T554 362zm-90 0q0-11 7.5-18t17.5-7h9q11 0 18 7t7 18v5q0 10-7 17.5t-18 7.5h-9q-10 0-17.5-7.5T464 362zm-91 0q0-11 7.5-18t17.5-7h9q11 0 18 7t7 18v5q0 10-7 17.5t-18 7.5h-9q-10 0-17.5-7.5T373 362zm-66 30q-10 0-17.5-7.5T282 362v-5q0-11 7.5-18t17.5-7h9q11 0 18 7t7 18v5q0 10-7 17.5t-18 7.5zm55 88h-9q-10 0-17.5-7.5T328 450v-5q0-11 7.5-18t17.5-7h9q11 0 18 7t7 18v5q0 10-7 17.5t-18 7.5zm70 67q0 10-7 17.5t-18 7.5h-9q-10 0-17.5-7.5T373 542v-5q0-11 7.5-18t17.5-7h9q11 0 18 7t7 18zm12-67q-10 0-17.5-7.5T419 450v-5q0-11 7.5-18t17.5-7h9q11 0 18 7t7 18v5q0 10-7 17.5t-18 7.5zm79 67q0 10-7 17.5t-18 7.5h-9q-10 0-17.5-7.5T464 542v-5q0-11 7.5-18t17.5-7h9q11 0 18 7t7 18zm12-67q-10 0-17.5-7.5T510 450v-5q0-11 7.5-18t17.5-7h9q11 0 18 7t7 18v5q0 10-7 17.5t-18 7.5zm79 67q0 10-7 17.5t-18 7.5h-10q-10 0-17.5-7.5T554 542v-5q0-10 7.5-17.5T579 512h10q11 0 18 7t7 18zm12-67q-10 0-17.5-7.5T601 450v-5q0-11 7.5-18t17.5-7h9q11 0 18 7t7 18v5q0 10-7 17.5t-18 7.5zm79 67q0 10-7 17.5t-18 7.5h-10q-10 0-17.5-7.5T645 542v-5q0-10 7.5-17.5T670 512h10q11 0 18 7t7 18zm11-67q-10 0-17.5-7.5T691 450v-5q0-10 7.5-17.5T716 420h10q11 0 18 7t7 18v5q0 10-7 17.5t-18 7.5zm80 67q0 10-7.5 17.5T771 567h-10q-10 0-17.5-7.5T736 542v-5q0-11 7.5-18t17.5-7h10q10 0 17.5 7.5T796 537zm46-92q0 10-7.5 17.5T817 475h-10q-10 0-17.5-7.5T782 450v-5q0-11 7.5-18t17.5-7h10q10 0 17.5 7.5T842 445zm44-88q0 10-7 17.5t-17 7.5h-10q-10 0-17.5-7.5T827 362v-5q0-11 7.5-18t17.5-7h10q10 0 17 7.5t7 17.5z"/></svg>