<svg xmlns="http://www.w3.org/2000/svg" viewBox="-10 0 1010 1000"><path d="M900 254v1L646 1h-12q-7-1-14 0H197q-34 0-62 16.5t-45 45T73 125v751q0 33 17 61.5t45.5 45.5 61.5 17h607q33 0 61.5-17t45.5-45.5 17-61.5V282zm-76 554q0 34-24 58.5T742 891H259q-34 0-58.5-24.5T176 808V193q0-34 24.5-58.5T259 110h228v149H295q-16 0-28.5 12T254 300v38q0 17 12 29.5t29 12.5h198q5 9 14.5 15t20.5 6h297zM625 311q-16 0-27.5-11.5T586 272V65q0-3 2-9l1-4q4 10 10 17l241 242zm80 320H295q-17 0-29 12.5T254 673v37q0 17 12 29.5t29 12.5h410q17 0 29.5-12.5T747 710v-37q0-17-12.5-29.5T705 631zM254 487v37q0 17 12 29.5t29 12.5h410q17 0 29.5-12.5T747 524v-37q0-17-12.5-29.5T705 445H295q-17 0-29 12.5T254 487z"/></svg>