<svg xmlns="http://www.w3.org/2000/svg" viewBox="-10 0 1010 1000"><path d="M782 343q-5-95-44-173.5T637 46Q573 0 500 0T363 46q-62 45-101 123.5T218 343q-45 12-81 42t-56.5 72.5T60 549v238q0 58 29 106.5t77.5 77.5 106.5 29h454q58 0 106.5-29t77.5-77.5T940 787V549q0-49-20.5-91.5T863 385t-81-42zM552 709v68q0 44-15.5 75.5T500 884t-36.5-31.5T448 777v-68q-31-15-50.5-44.5T378 599q0-33 16.5-61.5t44.5-45 61-16.5 61 16.5 44.5 45T622 599q0 36-19.5 65.5T552 709zM337 335q4-57 26.5-104t58.5-74 78-27 78 27 58.5 74T663 335z"/></svg>