<svg xmlns="http://www.w3.org/2000/svg" viewBox="-10 0 1010 1000"><path d="M500 606q-30 0-55 14.5T405.5 660 391 714.5t14.5 54.5 39.5 39.5 55 14.5 55-14.5 39.5-39.5 14.5-54.5-14.5-54.5-39.5-39.5-55-14.5zM716 0H285q-36 0-61.5 25.5T198 87v826q0 36 25.5 61.5T285 1000h431q36 0 61.5-25.5T803 913V87q0-36-25.5-61.5T716 0zM283 110q0-18 12.5-30.5T326 67h348q18 0 31 12.5t13 30.5v283q0 18-13 30.5T674 436H326q-18 0-30.5-12.5T283 393zm217 833q-62 0-114.5-30.5t-83-83T272 715t30.5-114.5 83-83.5T500 486t114.5 31 83.5 83.5T729 715t-31 114.5-83.5 83T500 943z"/></svg>