<svg xmlns="http://www.w3.org/2000/svg" viewBox="-10 0 1020 1000"><path d="M500 0Q398 0 305 39q-89 38-158.5 107.5T39 305Q0 398 0 500t39 195q38 89 107.5 158.5T305 961q93 39 195 39t195-39q89-38 158.5-107.5T961 695q39-93 39-195t-39-195q-38-89-107.5-158.5T695 39Q602 0 500 0zm79 849V690q0-14-10.5-24.5T544 655h-88q-14 0-24.5 10.5T421 690v159q-66-15-122-53.5T204.5 701 151 579h159q14 0 24.5-10.5T345 544v-88q0-14-10.5-24.5T310 421H151q15-66 53.5-122t94.5-95 122-54v160q0 14 10.5 24.5T456 345h88q14 0 24.5-10.5T579 310V150q66 15 122 54t95 95 54 122H690q-14 0-24.5 10.5T655 456v88q0 14 10.5 24.5T690 579h160q-15 66-54 122t-95 94.5T579 849z"/></svg>