<svg xmlns="http://www.w3.org/2000/svg" viewBox="-11 0 1022 1000"><path d="M767 979q-20 0-43-13L504 837h-9L276 966q-25 16-52 12t-44-24q-22-30-13-67l55-249q0-3-3-9L29 461q-19-17-26-38t0-41.5T27.5 348 71 333l253-25q1 0 3.5-2t3.5-4L433 70q10-23 27.5-36T500 21t40 13 28 36l101 233q5 5 8 5l253 25q25 2 42.5 15t24.5 33.5 0 41.5-26 38L780 630l-1 2q-1 5-1 7l55 248q9 37-13 67-20 25-53 25zM174 437l121 108q23 20 34 53.5t5 63.5l-35 159 139-83q27-15 62-15t62 15l140 83-35-159q-7-30 4-63.5t34-53.5l121-108-161-15q-31-3-59.5-23.5T565 349l-65-149-65 149q-12 29-40.5 49.5T335 422z"/></svg>