<svg xmlns="http://www.w3.org/2000/svg" viewBox="-10 0 1010 1000"><path d="M918 273q-12 16-31 11-21-5-24-25-4-33-18-63-20-44-56.5-76.5T705 72t-95-9q-19 4-30-6-16-13-10-31 5-20 25-23 35-6 73-1 95 10 165 75 75 69 90 170 3 14-5 26zM756 132q64 50 77 129 2 14-5.5 24.5T807 298t-23-6-12-22q-10-57-53-89t-101-26q-24 2-33-16-4-8-3-17.5t7.5-17.5T609 94q80-10 147 38zm-34 217q9 58-3 102-15 49-58 84-22 18-36.5 23.5t-29 .5-37.5-22l-60-45q-65-49-99-73-16-11-20-24t0-32q26-108 131-134 50-12 93.5 1.5T681 283q12 13 32 41zM345 458q124 92 208 156-116 119-345 355l-30 31-16-11q-56-40-86-62z"/></svg>