<svg xmlns="http://www.w3.org/2000/svg" viewBox="-10 0 1020 1000"><path d="M277 678h446q26 0 44-18.5t18-43.5V350q0-26-18-44t-44-18h-40v-83q0-26-18-44t-44-18H379q-25 0-43.5 18T317 205v83h-40q-25 0-43.5 18T215 350v266q0 25 18.5 43.5T277 678zm101-421v-28q0-13 9-22t22-9h182q13 0 22 9t9 22v59H378zM56 746q-23 0-39.5 16.5T0 802t16.5 39T56 857t39-16 16-39-16-39.5T56 746zm177 0q-23 0-39 16.5t-16 39 16.5 39 39 16.5 39-16.5 16.5-39-16.5-39T233 746zm178 0q-23 0-39.5 16.5T355 802t16.5 39 39.5 16 39.5-16 16.5-39-16.5-39.5T411 746zm178 0q-23 0-39.5 16.5T533 802t16.5 39 39.5 16 39.5-16 16.5-39-16.5-39.5T589 746zm178 0q-23 0-39.5 16.5T711 802t16.5 39 39.5 16 39-16.5 16-39-16-39-39-16.5zm177 0q-23 0-39 16.5t-16 39 16.5 39 39 16.5 39-16 16.5-39-16.5-39.5T944 746z"/></svg>