<svg xmlns="http://www.w3.org/2000/svg" viewBox="-10 0 1020 1000"><path d="M692 665q-94-57-190-58.5T312 659q-65 37-87 95h544q-9-26-28.5-49T692 665zM497 246q44 0 80.5 21t58 57.5 21.5 80-21 80.5-58 59-80.5 22-80-21-58-58.5T338 405t21-80.5 57.5-57.5 80.5-21zm467 434q-51-44-127-47-70-2-118 27 58 45 74 94h207q0-20-9-39.5T964 680zm-683-20q-1-1-3-2-4-3-6-4-123-52-224 17-23 16-35.5 38T0 754h208q19-51 73-94zm447-154q0-27 13-49.5t35.5-36T826 407t50 13 36.5 35.5 13.5 49-13 49.5-35.5 37-49 14-50-13-37-36-13.5-50zm-553 98q-42 1-71-27.5T75 506q0-27 13-49.5t36-36.5 49.5-14 49.5 13.5 36.5 36 13.5 49-13 49.5-35.5 36.5T175 604z"/></svg>