<svg xmlns="http://www.w3.org/2000/svg" viewBox="-10 0 1020 1000"><path d="M892 129H109q-30 0-55 14.5T14.5 183 0 238v523q0 30 14.5 55T54 855.5t55 14.5h783q29 0 54-14.5t39.5-40T1000 761V238q0-29-14.5-54.5t-39.5-40-54-14.5zM113 300q0-22 16-38t39-16h181q23 0 39 16t16 38v209q0 22-16 38t-39 16H168q-23 0-39-16t-16-38zm736 426H143q-14 0-23.5-9.5T110 694t10-22.5 23-9.5h706q13 0 22.5 9.5T881 694t-9.5 22.5T849 726zm0-168H529q-14 0-23.5-9t-9.5-22 9.5-22.5T529 495h320q13 0 22.5 9.5T881 527t-9.5 22-22.5 9zm0-130H529q-13 0-23-9.5T496 396t9.5-22.5T529 364h320q13 0 22.5 9.5T881 396t-9.5 22.5T849 428z"/></svg>