<svg xmlns="http://www.w3.org/2000/svg" viewBox="-10 0 1010 1000"><path d="M930 500q-34-21-81-21-38 0-68 13.5T739 527l-2 3q-3 6-4.5 6t-6.5-9q-12-21-42-34.5T616 479q-46 0-81 20-4 2-6.5 7t-2.5 10v265q0 33-16 61.5T466.5 888 407 905t-59.5-17-43.5-45.5-16-61.5q0-12 8-20t19-8 18.5 8 7.5 20q0 29 19.5 49t47.5 20 47-20 19-49V516q0-4-2.5-9t-6.5-7q-34-21-81-21-37 0-67 13.5T275 527q-5 9-7 9t-7-9q-12-21-42-34.5T152 479q-49 0-81 20-4 2-6.5.5T63 494q11-92 66.5-169.5T271 200q89-49 193-57 4 0 7-3.5t3-7.5v-10q0-11 7.5-19t18.5-8 19 8 8 19v10l3 5q3 6 7 6 104 8 193 57 86 47 141.5 124.5T938 495q0 5-2 6t-6-1z"/></svg>