<svg xmlns="http://www.w3.org/2000/svg" viewBox="-10 0 1020 1000"><path d="M609 795q-2-48-31.5-85.5T501 659l-2-1q-4-1-6-1-40 24-85 24t-84-25q-48 10-80.5 49.5T210 793v3q-2 65-2 98v9q0 17 1.5 20.5T222 930l35 7q44 7 89 11 63 5 121 3 71-4 129-20 14-6 14-19v-59zM256 658q12-9 37-21l5-2q-21-21-33.5-48T251 530h-33q-41-1-62 0-54 1-93 30-20 17-35 48Q1 662 0 742v62q73 23 158 34 13 2 18.5-2.5T181 817q-3-101 75-159zm474-106q-27-16-63-21-21-2-65-1h-35q-1 30-13.5 57T520 635q44 19 66 44 56 59 50 142-1 10 3 14.5t15 3.5q73-5 134-29 8-3 12-8t4-14l-1-47q0-48-1-71-3-76-72-118zm-320 92q32 0 58.5-16t42-43 15.5-58.5-15.5-58.5-42-43-58.5-16-59.5 15.5T307 467t-16 58.5 16.5 59 44 43.5 58.5 16zM206 523q9 0 15-1l7-2q17-4 23-8 3-37 21-68t48-52l-1-9q-6-29-25-52t-46-34.5-55-8.5q-32 4-57 21t-38.5 43T85 408q3 49 37 81.5t84 33.5zm731-81q-39-29-93-30-21-1-62 0h-33q-1 30-13.5 57T702 517l7 3q25 12 35 20 78 56 75 159-1 14 4.5 18.5T843 720q84-11 157-34v-62q-1-80-28-134-15-31-35-48zm-188-48q10 5 31 9 5 2 14 2 50-1 84-33.5t37-81.5q1-30-12.5-56t-39-43.5T807 170q-28-3-55 8.5T706 213t-25 52l-1 9q30 21 48 52t21 68zm-261-14v3l-1 3q35 20 57 54.5t23 76.5l5 1q37 10 71.5-3t56-43 21.5-68q-1-46-31.5-79T612 288q-27-3-53.5 8.5T513 330t-25 50zm-21-4q2-14 9-30 4-11 14-30-77-7-176 0 21 29 26 64 32-15 69-15 30 0 58 11zm-65-71h1q31 0 59.5-15t46.5-42q16-24 20-48 2-16 2-24 0-46-29.5-81.5T427 50h-3q-14-2-22-2-35 0-64.5 17T291 111.5 274 176t17 64.5 46.5 47T402 305z"/></svg>