<svg xmlns="http://www.w3.org/2000/svg" viewBox="-10 0 1010 1000"><path d="M315 557v15l159-300-147 81q-7 5-10 9.5t-3 12.5q1 30 1 91zm378-96V206L381 791l104 56q107 58 161 86 20 11 33.5 2t13.5-32V655q0-13 7-21 28-32 28-74t-27-74q-9-12-8-25zM261 672V382q0-7-2.5-9.5T249 371h-47q-64-1-96 0-26 0-41.5 15.5T49 429v261q0 24 15.5 40t39.5 16l117 1zm589-315q-4-4-7-5t-8 4q-16 17-49 49l-25 25q-4 4-3.5 6t5.5 5q45 27 62 74 15 45-.5 91T766 677q-5 3-5 5.5t4 6.5q24 23 70 71 5 5 9.5 5.5t9.5-4.5q94-78 97-202-2-125-101-202zM716 11l-10-5q-17-9-35-3.5T644 24L148 927q-9 16-4 34t22 28l11 5q17 9 35 3.5t27-21.5L734 73q10-16 4.5-34T716 11z"/></svg>