<svg xmlns="http://www.w3.org/2000/svg" viewBox="-10 0 1010 1000"><path d="M767 563 513 75q-6-13-15-13t-16 13L230 563q-19 41-23 63-10 63 13 123 22 55 67 99 44 42 100.5 66t112 24 113-23.5T714 849q47-44 68-99 23-60 10-124-3-13-11-32-7-17-14-31zM484 875q-7-1-15-2l-19-4q-14-4-26-8l-14-6q-7-3-14-7-5-2-15-8-17-11-28-20l-2-2q-8-6-12-10-7-6-18-19l-6-7-5-7q-10-15-15-23-2-3-6-11l-5-12q-7-16-8-22-4-10-5-15l-4-20v-7q-2-8-2-22v-18q1-3 1-6.5t.5-3.5 1.5 3l1 7q2 10 4 16 4 14 7 21l3 6q2 7 5 11l3 6q4 8 7 12l17 23 3 3q4 5 7 8t11 9q6 6 21 17l2 1q8 6 25 13 11 4 24 9l13 3 21 3q10 1 17 0h15l15-1q19-2 33.5 10t15.5 31-11 33.5-31 16.5q-8 0-12-1z"/></svg>