<svg xmlns="http://www.w3.org/2000/svg" viewBox="-10 0 1010 1000"><path d="M891 377q-26-83-83.5-148T671 128q-81-38-170.5-38T329 127q-79 36-136.5 101.5T109 377H63v246h46q26 83 83.5 148T329 872q82 38 171.5 38T671 872q78-36 136-101t84-148h47V377zM740 232q-34 14-49 20-16-28-48-82 54 23 97 62zm-82 202h32l15 83 18-83h27l19 83 15-83h32l-28 132h-34l-18-75-17 75h-33zm14 189q-1 7-5 20-5 24-7 36-1 4-3 5.5t-6 .5l-126-21v-41zM526 143q40 15 70 50 20 26 45 75l-115 17zm0 191 24-3 23-2 77-13q8-4 9 4 6 19 14 57H526zm-51-189v137q-51 0-114-15 10-28 29.5-55.5t42.5-46 42-20.5zM329 377q1-3 2-10 7-30 9-45 1-5 3.5-6.5t7.5-.5q59 15 120 18 2 0 4 1v43zm13 57-28 132h-33l-18-75-17 76h-33l-28-133h31l15 83 19-83h27l18 83 16-83zm15-264-33 57-14 25q-13-6-40-16l-10-4q43-39 97-62zM223 270l36 15 35 15q-12 37-18 77H162q21-58 61-107zm-61 353h114q6 40 18 77l-71 30q-40-49-61-107zm98 145q18-7 50-19l47 81q-51-20-97-62zm215 87q-31-6-63.5-41.5T362 734q16-6 57.5-11.5T475 719zm0-189q-42 4-63 7-13 2-39 7l-23 5q-4 1-6 0t-3-5q-6-19-14-57h148zm25-175-18 76h-33l-28-133h32l15 83 18-83h27l19 83 15-83h32l-28 132h-33zm25 364V716l114 15q-14 43-47 80-35 40-67 44zm118-24q7-11 20-34l28-48 49 19q-42 38-97 63zm134-101q-23-10-71-30 12-37 18-77h114q-21 58-61 107zm-53-353q-6-40-18-77l71-30q40 49 61 107z"/></svg>