<svg xmlns="http://www.w3.org/2000/svg" viewBox="-10 0 1010 1000"><path d="M158 715q2-5 5-15 13-41 20-61 3-7 1.5-11.5T176 618Q82 549 66 452q-11-69 11-126.5T152 222q65-57 154-76 85-18 169 4 88 24 150 84 53 51 70 119 2 9 0 11.5t-11 2.5q-136-6-225 80-99 94-65 221 3 9 .5 11.5T383 682q-31-1-50-3-27-4-49-11-20-6-38 4.5T191 702l-24 13q-4 2-9 0zm157-400q1-17-12-30.5t-31-14-31 12.5-13.5 30.5 12.5 31 31 14.5 31-12 13-32zm220 1q1-18-12-31.5t-31-14-31 12-14 30.5 11.5 31.5T489 359t31.5-11.5T535 316zm149 66q60 2 111 25 57 26 98 76 33 41 41.5 92T926 675t-56 85l-14 13q-12 9-15 13.5t-2.5 10T843 816q2 9 8 25l3 7q2 9-2 13-3 2-7-1l-24-13q-23-12-34-19-8-5-16-5.5t-19 2.5q-151 38-266-50-55-42-75-105-20-60-1-121 20-62 75-105 41-31 88.5-46.5T684 382zm-97 119q-13 0-23.5 10.5T553 536t11 25 25 10.5 24-11 10-24.5-10.5-24.5T587 501zm212 35q0-14-10.5-24.5t-25-10-24.5 11-10 24.5 10.5 24.5T764 572t24.5-11 10.5-25z"/></svg>