<svg xmlns="http://www.w3.org/2000/svg" viewBox="-10 0 1010 1000"><path d="M138 420q8-5 24-16l13-9q15-13 35-18h1q4 0 4-1.5t-3-4.5q-37-32-81-35-35-2-56 21-11 11-12.5 27t7.5 27q12 14 35 16 16 0 33-7zm636 213q1 8 5.5 12.5t13 8.5 21.5 5q8 1 23.5 1t18 4-3.5 18l-9 16q-16 22-36 38-58 43-118 28-21-6-40-21-15-11-31-32l-8-11q-42-53-64-79-37-42-72.5-69T404 510q-66-29-122-34h-5v-17q0-33 1-49 1-39 41-53 7-2 23-4h2q23-2 35.5-10.5t15-20.5-4.5-23q-11-16-28-20-26-6-47.5 5T283 320l-6 19q-1-3 0-5 3-18 4-27 1-15-1-28-5-33-23.5-52.5T208 204q-51-5-77 28-14 17-13 37t16 36q9 9 21 18 8 5 24 14l8 5q36 20 52 34 22 19 25 44 2 27 0 55-48-3-84 10-31 11-54.5 39T92 589.5 88 662q7 38 32 67 21 26 58 46 3 1 9 1l38 1q77 2 115 1 7 0 21-8 8-5 12-6 8-3 15-.5t1 8.5-13 8q-12 4-39 4H206v3l2 1q24 9 38 9h427q40 0 72-11 101-32 120-120 1-4 2.5-5t5.5-1q15 1 25 0 14-2 25-7 14-7 14-18-80 18-163-2zm-429 92q0 7-5 10.5t-14 2.5l1-2q4-4 4.5-7t-2.5-6q-5-5-13 1 2-17 16-15 6 0 10 5t3 11z"/></svg>