<svg xmlns="http://www.w3.org/2000/svg" viewBox="-10 0 1010 1000"><path d="M164 486q21 32 54 49 28 15 70 21 28 4 59 24 13 9 17.5 23.5T363 634q-12 31-48 29-20-1-37-9.5T249 630q-15-17-42-55l-18-25-10-15zm43 138q19 33 52 50 27 15 69 21 29 4 60 23 15 9 20.5 25t-.5 32-21 24-32 3q-39-11-61-31-16-16-42-54l-18-25-10-15zM78 215q20 33 52 50 29 15 70 21 25 2 58 21 16 10 21.5 26.5t-1 32.5-21.5 24-32 2q-45-14-68-40-19-20-49-67l-14-21zm42 133q20 33 54 50 28 15 70 21 26 4 57 22 15 9 20 25.5t-1.5 32.5-21 24-31.5 2q-45-14-68-40-13-13-26-31-8-11-23-35l-14-22zm86-286q54 72 79 109 11 15 19 47 4 18-1.5 30.5T282 268q-19 9-35.5 5.5T223 254q-20-44-24-86-2-26 1-80l2-24zm231 194q14 58 16 97 2 52-16 95-8 21-34 39-11 8-24 8t-22.5-10-14.5-21q-7-13-5-21 4-15 14-31 5-10 18-29l4-6q6-8 20-24 20-24 28-38 5-8 8-19 2-7 4-22zm-41-130q12 45 15 82 3 45-8 84-6 26-33 57-11 11-26 13t-30-8.5-20-24.5 2-30q9-20 37-56 5-7 18-20 18-20 24.5-32.5T390 148zm363 651q-25 35-46 53-28 24-60 32-16 3-27-3-15-10-20-26-2-10 2.5-19t13.5-12q29-8 52-7 27 3 44 0 23-4 41-18zM578 650q-7 23-1 48 4 18 17 43 10 18 13 43 1 12-5 21.5t-17 13-21-1-16.5-15T540 782q-4-34 7-69 9-28 31-63zm-99-255q14 47 17 85 3 46-9 86-7 24-36 55-10 10-24 10.5t-28-8-19.5-22 .5-27.5q17-39 41-63 31-33 42-54t16-62zm208 88q-7 23 0 49 5 16 19 44 9 17 11 37 1 12-5 22.5t-17 14-21-1-16-15-8-19.5q-4-34 7-69 9-27 30-62zm-55 84q-6 22 0 45 4 18 17 42 10 21 14 42 2 12-4.5 22.5t-17.5 14-21.5-1T604 716q-9-18-9-32-1-57 37-117zm109-167q-7 21-3 42 3 18 14 40 14 28 17 42 4 16-2.5 28T747 568t-25-3.5-16-22.5q-6-26-2-50 6-48 37-92zM523 536q15 56 17 97 2 53-17 97-8 16-21.5 27.5T473 771t-29.5-7-19.5-24.5 2-32.5q11-28 31-48 33-33 47-54 20-33 19-69zm398-10q-38 58-86 79-16 8-41 6-11-2-18-9t-8-19 4.5-20.5T789 549q14-5 35-5 8-1 24 1l7 1q38 3 66-20zm-53 83q-22 31-43 50-25 22-55 32-14 5-26.5 2.5T723 680q-4-5-5.5-14.5t.5-16.5q8-23 42-25 10 0 28 2 23 3 42 0 20-4 38-17zm-54 83q-1 1-2.5 4.5T809 701q-21 27-38 42-23 20-47 29-17 6-40 2-9-1-14.5-7.5T662 749t2-19.5 13-12.5q11-5 37-9h2q6-1 20 1l11 2q36 3 67-19zm60-295q-4 37-11 60-8 31-23 55-18 28-42 14-13-8-16-21t5-28q14-24 38-46 18-15 49-34zM401 812l65-20q7 25 11 43l5 22q9 38 12 58 1 5-3.5 13t-8.5 9q-7 2-17-.5t-12-6.5q-13-26-35-78zm162 19q11 8 31 22l7 5q-36 48-55 71-2 2-8 2.5t-9-2-6-8.5-2-9q7-15 23-44z"/></svg>