<svg xmlns="http://www.w3.org/2000/svg" viewBox="-10 0 1020 1000"><path d="M866 243H134q-36 0-67 18t-49 49-18 67v247q0 36 18 66.5T67 739t67 18h732q36 0 67-18t49-48.5 18-66.5V377q0-36-18-67t-49-49-67-18zm-485 29h249q8 0 13.5 5.5T649 291t-5.5 13.5T630 310H381q-7 0-13-6t-6-13.5 5.5-13T381 272zM58 371q0-14 10-24t24-10 24 10 10 24-10 24.5T92 406t-24-10.5T58 371zm123 129h-29v29h-38v-29H86v-38h28v-29h38v29h29zm324 246q-9 0-15-6.5t-6-15 6-15 15-6.5 15.5 6.5 6.5 15-6.5 15T505 746zm276-74H219V338h562zm55-168q-8 0-14-6t-6-14 6-13.5 14-5.5 13.5 5.5T855 484t-5.5 14-13.5 6zm44 40q-8 0-14-6t-6-14 6-13.5 14-5.5 13.5 5.5T899 524t-5.5 14-13.5 6zm0-79q-8 0-14-5.5t-6-13.5 6-14 14-6 13.5 6 5.5 14-5.5 13.5T880 465zm43 39q-8 0-13.5-6t-5.5-14 5.5-13.5T923 465t13.5 5.5T942 484t-5.5 14-13.5 6zm-4-98q-14 0-24-10.5T885 371t10-24 24-10 24.5 10 10.5 24-10.5 24.5T919 406z"/></svg>