<svg xmlns="http://www.w3.org/2000/svg" viewBox="-10 0 1010 1000"><path d="M524 382q-48-45-107-23-6 2-9 1t-6-7q-20-49-62.5-74.5T245 260q-48 5-82.5 39.5T119 386q0 9-5 11-16 7-27 20l-8 9q-8 11-12 23-6 18-3 35 4 21 22 41 2 4 4 5l1 1q20 20 49 21 11 1 35 1h279q64-3 91-62 12-28 6.5-57.5T524 382zM151 597q-7-4-16 5-36 36-55 54-13 13-2.5 22.5T100 676l18-18q23-24 35-35 7-7 7-12 0-10-9-14zm168 3q-6-4-13 3l-43 44q-11 9-2.5 17.5T278 662l44-43q4-5 4-8 0-8-7-11zm80 1-39 39-19 19q-6 6-1.5 14t13.5 8q5 0 8-4l57-56q8-10-1-19-4-4-9-4.5t-9 3.5zm71 29q-3 0-4 1-19 12-33 33-4 6 4 13t15 3q21-17 30-31 4-6 0-12.5t-12-6.5zm-262-1q-18 13-28 29-5 6-.5 13t12.5 7q2 0 3-1 20-12 32-32 2-4 1-8t-4.5-7-7.5-3.5-8 2.5zm482-130H574v0q-14 30-37 45h156q26 0 47.5 13t32.5 35 9 48q-2 19-15 33.5t-31 20-35-.5q-21-7-28.5-27.5T676 629q10-14 25-14.5t26 12.5q6 7 14.5 8t15.5-4 8.5-13.5T762 601q-10-18-32-26t-45-3q-29 8-45 29.5T624.5 651t17.5 52q21 29 64 38h25l10-3q13-3 20-6 29-13 46.5-38t19.5-56-12-61q-36-78-125-78zm-95-125q9 1 16-4.5t8-15.5q0-15 9.5-24.5T649 320q16-1 29 8t18 24.5-1 33-20 29.5-31 13q-30 3-68 1 8 22 5 44h58q27 0 51.5-15t38.5-39.5 14-51.5q-1-40-26-65t-64-27q-31-1-54.5 21.5T575 350q0 10 5.5 16.5T595 374zm325-15q-28-31-66-22-35 7-46 44-2 5-2 16 1 9 6.5 14.5t14 6.5 15-4 8.5-14q3-12 7.5-16.5t14.5-3 16 10.5 5 20q-2 15-13.5 24t-29.5 9.5-56-.5h-28q-19 0-24 16-2 11 3.5 19t17 9 34.5 0h33q18 1 26 0 15 0 27-4 25-9 40-31t14.5-48-17.5-46z"/></svg>