<svg xmlns="http://www.w3.org/2000/svg" viewBox="-10 0 1010 1000"><path d="M458 622q66-1 93-62 12-28 6.5-58T530 450q-48-46-109-24-6 2-9 1.5t-5-6.5q-20-50-63.5-76T247 326q-48 5-83 40t-44 87l-1 3q0 8-4 9-18 8-28 20l-8 9q-8 11-12 24-6 17-3 35 4 22 22 42l5 6q20 18 50 21 11 1 35 1h206q52 0 76-1zM333 324q44 19 69 60h9q22 0 40-11t27.5-28 10.5-34q-18 21-43 23t-46-14q-15-14-20-36-4-33 20-57-20 1-40 16-26 21-29 56-1 11 2 25zm191-112q1 1 1 2l2 9q1 2 2.5 2t2.5-1l6-7q0-1 2-1l9 1q2 0 3-1.5t0-2.5l-5-8q-1-2 0-3l3-8q1-1 0-2.5t-3-1.5l-9 3q-1 0-2-1l-7-6q-1-1-2.5-.5T525 188l-1 9-1 2-8 5q-1 1-1 2.5t1 2.5zm-40 87 9 3 1 2 2 9q1 2 2.5 2t2.5-1l6-7q0-1 2-1l9 1q2 0 3-1.5t0-2.5l-5-8q-1-2 0-3l3-8q1-1 0-2.5t-3-1.5l-9 3q-1 0-2-1l-7-6q-1-1-2.5-.5T494 278l-1 9-1 2-8 5q-1 1-1 2.5t1 2.5zm-64-19h.5l.5 1 1 6q0 1 1 1.5t2-.5l5-5q0-1 1 0h6q3 0 1-3l-3-5 2-7q1-1 0-2t-2 0l-7 1-5-4q-1-1-2-.5t-1 1.5v6l-6 4q-3 1 0 4zm57-19h1l1 4q0 1 .5 1.5t1.5-.5l3-4h1l4 1q1 0 1-2l-2-4 1-4q1-1 .5-1.5t-1.5-.5l-5 1-3-3q-1-1-1.5-.5t-.5 1.5l-1 5-4 2q-1 0-1 1t1 1zm-155-3h1l1 4q0 1 .5 1t.5-1l3-3v0h4q1 0 1-1v0l-2-3 1-4q1-1 .5-1.5t-1.5-.5l-4 1-3-2q0-1-.5-1t-.5 1l-1 5-3 1q-2 2 0 2zm369 315H575q-12 30-36 45h52q69-1 103 0 27 0 48 13t32 35 9 48q-2 18-15 32.5T737 767t-35 0q-20-8-28-28.5t3-36.5q10-13 25.5-13.5T728 700q6 7 14 8t15.5-3.5 9-13T763 675q-10-18-32-26t-45-3q-28 8-44 29.5t-15.5 49T644 776q22 30 64 38h25l11-3 18-6q29-12 46-37t19.5-56.5T816 651q-37-78-125-78zm-95-125q10 1 17-4.5t7-14.5q1-15 10.5-24.5T651 395q15-1 28 7.5t18 24.5-1 33-20 29-31 13q-22 2-67 2 7 20 4 43h20q25 1 38 0 27 0 51.5-15t38.5-39.5 14-51.5q-1-39-26-64t-64-27q-31-1-54 21.5T577 425q0 10 5.5 16t13.5 7zm-37 197q-9-2-28-2H263q-12 0-19 5.5t-8 15.5q0 19 17 22 10 2 31 2h259q7 0 11 2t5 8-2.5 8.5T546 711q-10 2-15.5 8.5T526 735t7.5 14 16.5 5q20 0 36-14.5t18-35.5-11-38-34-21zm361-211q-26-31-66-22-35 7-46 44-1 5-1 14.5t5.5 15 14 6.5 15-3.5T850 475q3-13 8-17.5t14.5-3 16 10.5 4.5 20q-2 16-13.5 25t-28.5 9h-84q-19 0-24 16-2 11 3.5 18.5T763 562t35 0h33q18 1 26 0 15 0 26-4 25-9 40-31t14.5-48-17.5-45z"/></svg>