<svg xmlns="http://www.w3.org/2000/svg" viewBox="-10 0 1020 1000"><path d="M500 739q-59 0-109-28.5t-79-78T283 522h-68q0 78 39 144 38 65 103.5 103T500 807t142.5-38T746 666q39-66 39-144h-68q0 61-29 110.5t-79 78T500 739zM335 421h128l9-16q10-20 10-37 0-34-24.5-58T399 286t-58.5 24.5T316 369q0 19 10 36zm226 20zq19 11 40.5 11t41-11.5T673 409q17-29 7.5-62T641 297t-62.5-8-49 39-7 63.5T561 441zM500 0Q398 0 305 39q-89 38-158.5 107.5T39 305Q0 398 0 500t39 195q38 89 107.5 158.5T305 961q93 39 195 39t195-39q89-38 158.5-107.5T961 695q39-93 39-195t-39-195q-38-89-107.5-158.5T695 39Q602 0 500 0zm0 933q-117 0-218-59-98-58-156-156-59-101-59-218t59-218q58-98 156-156 101-59 218-59t218 59q98 58 156 156 59 101 59 218.5T874 718q-58 98-156 156-100 59-218 59z"/></svg>