<svg xmlns="http://www.w3.org/2000/svg" viewBox="-10 0 1010 1000"><path d="M909 605q-29-28-67-29h-3q-41 0-70 29-14 14-21.5 32t-7.5 38 8 39q7 17 21 31 29 29 70 29 27 0 49.5-13.5t36-36T938 675q0-20-7.5-38T909 605zm-30 95-16 16-24-25-25 25-16-16 24-25-24-24 16-17 25 25 24-25 16 17-24 24zm-16-238h-69l69-294q-11-2-33-4-12-2-35-2-29 0-58 6l-53 294h-89l-66-294q-31-6-59-6-21 0-30 1t-28 4l-6 1-66 294h-84l-54-294q-11-3-33-5-11-1-33-1-41 0-74 6l69 294H64q-1 10-1 29.5t1 29.5h80l9 38H64q-1 9-1 29t1 29h102l50 216q28 5 60 5 26 0 37-2l38-3 54-216h110l51 216q45 5 74 5 31 0 68-5l20-88q-25-33-25-74 0-36 19-66.5t50-45.5h-1l9-38h83q1-10 1-30zM294 668l-9-51h21zm25-109h-45l-7-38h60zm143-169 17 72h-35zm-42 169 9-38h64l9 38zm225 122-15-64h26zm22-122h-50l-9-38h66z"/></svg>