<svg xmlns="http://www.w3.org/2000/svg" viewBox="-10 0 1010 1000"><path d="M909 605q-13-13-30.5-20.5T842 576h-3q-41 0-70 29-14 14-21.5 32t-7.5 38 8 39q7 17 21 31 29 29 70 29 27 0 49.5-13.5t35.5-36 13-49.5q1-20-6.5-38T909 605zm-19 47-60 61q-4 2-6 0l-37-37q-1-2-1-3.5t1-2.5l9-9q1-2 3-2t3 2l25 25 49-49q2-2 6 0l8 9q2 1 2 3t-2 3zm-27-190h-69l69-294q-11-2-33-4h-3q-21-2-32-2-29 0-58 6l-53 294h-89l-66-294q-31-6-59-6-21 0-30 1t-28 4l-6 1-66 294h-83l-55-294q-11-3-33-5-11-1-33-1-41 0-73 6l68 294H64q-1 10-1 29.5t1 29.5h80l9 38H64q-1 10-1 29.5t1 29.5h102l50 215q33 6 60 6 15 0 37-2l13-2q16-1 25-2l54-216h110l51 216q33 5 74 5t67-5l21-87q-25-33-25-75 0-36 19-66t50-46h-1l9-38h82q1-10 1-30 1-7 0-19zM294 668l-9-51h21zm25-109h-45l-7-38h60zm143-169 17 72h-35zm-42 169 9-38h64l9 38zm225 122-15-64h26zm22-122h-50l-9-38h66z"/></svg>