<svg xmlns="http://www.w3.org/2000/svg" viewBox="-10 0 1010 1000"><path d="M838 263q-28 0-85 3-45 3-68 3-8 0-14-6-7-12-24-27-31-26-69-25-34 0-61.5 22T480 288l-3 15-8-5Q315 201 93 69l-2-1q-6-3-8-6h-2q-1 30 10 62 32 95 107 181 39 47 88 77 20 11 35 12 6 0 18 2l9 1-20 1q-21 0-31 1-74 6-106 68-20 41-18 105 1 31 7 66 4 26 13 65 13 52 35 114 13 37 42 111l3 9q1 1 2 0l19-116q2-10-1-18-9-26-14.5-46t-8.5-43l14 32q11 27 18 41 2-7 5.5-21.5T314 744q11-25-6-48-10-15-15-33 13 19 33 41 4 6 7-1 11-23 23-38 2-4 1.5-6t-3.5-4l-30-25q9 4 27 13l12 6q4 1 6-1 21-21 43-36l-26-4q-32-5-47-8-26-6-46-15 1-1 2.5-1t3.5 1q63 17 112 8 45-9 83.5-38t61.5-71.5 25-89.5q1-31 26-51 18-17 49-27 45-14 99-24 41-8 101-15 21-3 63-7-34-9-81-7zm-232 26q-8 0-13.5-5.5t-5.5-13 5-13 13-5.5 13.5 5.5 5 13-5.5 13-12 5.5zM308 187q98 62 147 92l7 5 2-2q-28-47-71-98-25-31-80-90l-12-13v46.5l-1 47.5q0 7 8 12z"/></svg>