<svg xmlns="http://www.w3.org/2000/svg" width="512" height="512" viewBox="0 0 512 512"><path d="M254.652 8c-16.71 16.833-33.398 33.683-50.187 50.438-.776.774-2.548 1.185-3.635.906-8.544-2.191-17.022-4.639-25.543-6.92-14.645-3.923-29.307-7.787-43.896-11.658-.274.43-.491.64-.557.89-5.887 22.083-11.87 44.138-17.527 66.276-.924 3.612-2.715 5.075-6.03 5.945-20.911 5.479-41.775 11.154-62.695 16.602-3.428.89-4.146 1.935-3.123 5.63 5.881 21.258 11.264 42.654 17.103 63.922.745 2.708.064 4.047-1.609 5.717-15.616 15.59-31.132 31.28-46.842 46.773-2.686 2.65-2.912 4.113-.08 6.897 15.73 15.473 31.22 31.193 46.856 46.762 1.844 1.833 2.343 3.312 1.58 6.088-5.856 21.256-11.3 42.624-17.135 63.884-.957 3.485-.072 4.519 3.113 5.36 21.403 5.667 42.739 11.592 64.17 17.136 2.816.73 3.791 2.092 4.416 4.448 3.095 11.716 6.208 23.427 9.319 35.14 2.925 11.011 5.855 22.018 8.795 33.067 23.357-6.227 46.298-12.376 69.279-18.373 1.27-.333 3.343.095 4.238.982 16.735 16.622 33.349 33.368 49.988 50.088h1.666c6.285-6.438 12.533-12.912 18.866-19.303 10.062-10.154 20.2-20.228 30.252-30.392 1.61-1.629 2.933-2.072 5.394-1.4 21.504 5.88 43.077 11.504 64.635 17.189 1.167.308 2.37.492 3.896.804 2.544-9.364 5.043-18.508 7.504-27.66 3.618-13.458 7.238-26.913 10.78-40.392.569-2.168 1.302-3.385 3.843-4.059 22.36-5.91 44.653-12.08 66.963-18.18.502-.138.979-.356 1.639-.597-5.998-22.397-11.885-44.656-17.988-66.854-.9-3.277-.592-5.35 1.97-7.867 15.441-15.167 30.642-30.585 45.96-45.885 1.07-1.068 2.433-1.842 3.97-2.978-11.23-11.175-21.752-21.637-32.262-32.117-6.29-6.273-12.628-12.497-18.75-18.93-.948-.998-1.505-3.159-1.156-4.5 5.881-22.556 11.935-45.063 17.943-67.588.104-.389.1-.805.186-1.549-12.671-3.453-25.339-6.906-38.006-10.351-9.998-2.722-19.96-5.59-30.021-8.051-2.791-.682-3.719-2-4.391-4.553-5.712-21.744-11.564-43.45-17.393-65.162-.207-.781-.604-1.513-1.076-2.67-8.432 2.218-16.774 4.381-25.101 6.61-14.652 3.918-29.288 7.903-43.955 11.761-1.024.268-2.686.123-3.344-.537C289.828 41.917 273.082 24.951 256.316 8zm-34.668 172.543c4.52-.008 8.304 1.424 11.495 4.69 5.722 5.856 11.482 11.68 17.359 17.38 3.378 3.276 4.939 7.255 4.951 11.787.066 25.701.035 51.402.031 77.104-.003 4.658-1.922 8.592-5.084 11.787-6.237 6.303-12.534 12.559-19.109 18.502-1.778 1.608-4.628 2.837-6.996 2.855-25.652.197-51.303.117-76.955.102-.394 0-.79-.14-1.48-.27V180.56h4.238c23.849 0 47.699.022 71.55-.016zm76.43.262h25.516v119.578h70.578v24.16h-96.094zm-84.309 23.863c-12.599.166-25.203.066-37.804.066h-4.332v95.864c11.965 0 23.496-.57 34.933.19 8.604.57 15.394-1.438 20.227-8.628 1.355-2.019 2.746-4.54 2.773-6.844.22-19.284-.281-38.584.319-57.853.254-8.172-1.55-14.413-8.102-19.455-2.514-1.935-4.682-3.384-8.014-3.34z"/></svg>