<svg xmlns="http://www.w3.org/2000/svg" width="512" height="512" viewBox="0 0 512 512"><path d="M235.355 8c-23.394 34.2-42.163 71.946-55.67 112.053 95.808 17.87 182.582 72.86 244.512 155 24.909-32.93 45.346-69.624 60.71-108.953C417.09 88.47 330.552 33.645 235.354 8zm188.842 267.053c-61.93 70.409-148.709 117.577-244.511 132.912 13.582 34.38 32.386 66.744 55.863 96.035 95.105-22.017 181.596-69.006 249.357-135.496-15.366-33.721-35.795-65.216-60.709-93.451zM98.631 122.506c-16.251.198-32.454 1.152-48.629 2.97-30.519 97.687-30.545 201.452-.066 299.149a486 486 0 0 0 129.748-2.84C146.699 339.912 142.18 250.511 166.7 166.1a409 409 0 0 1 12.918-37.782c-26.776-4.205-53.9-6.125-80.986-5.812z"/></svg>