<svg xmlns="http://www.w3.org/2000/svg" width="256" height="512" viewBox="0 0 256 512"><path d="M128.234 64c-56.61 0-102.672 46.06-102.672 102.672v95.805c-11.793 18.676-18.63 40.78-18.63 64.455C6.932 393.682 61.249 448 128.002 448c66.755 0 121.066-54.318 121.066-121.068 0-23.36-6.655-45.191-18.162-63.71v-96.55C230.906 110.059 184.846 64 128.234 64zm0 41.117c33.938 0 61.553 27.612 61.553 61.555v56.183c-18.1-10.786-39.23-16.994-61.785-16.994-22.363 0-43.326 6.103-61.322 16.72v-55.91c0-33.942 27.617-61.554 61.554-61.554zm-.232 141.863c44.083 0 79.945 35.865 79.945 79.952 0 44.081-35.862 79.955-79.945 79.955-44.085 0-79.955-35.874-79.955-79.955 0-44.087 35.87-79.952 79.955-79.952zm.394 46.39c-18.734 0-33.921 15.187-33.921 33.929 0 18.73 15.187 33.918 33.921 33.918 18.736 0 33.922-15.187 33.922-33.918 0-18.742-15.186-33.93-33.922-33.93z"/></svg>