<svg xmlns="http://www.w3.org/2000/svg" width="512" height="512" viewBox="0 0 512 512"><path d="M256 8C119.034 8 8 119.034 8 256s111.034 248 248 248 248-111.034 248-248S392.966 8 256 8zm-104.76 94.447h45.936v229.344h-45.938v-18.7c-4.664 5.856-15.639 11.825-20.4 14.503-8.335 4.662-19.653 7.699-30.272 7.699-17.167 0-32.45-5.424-45.845-17.23-15.977-14.09-23.483-35.635-23.483-58.856q-.001-35.427 24.559-56.562c12.999-11.214 28.897-20.19 45.767-20.19 9.823 0 21.94.883 30.573 5.049 4.962 2.38 13.843 7.985 19.103 13.443zm261.418.948q11.46 0 19.498 8.039 8.038 7.888 8.037 19.35 0 11.608-8.037 19.646-7.889 7.889-19.498 7.888-11.464 0-19.5-8.037-7.889-8.038-7.888-19.498c-.003-7.64 2.63-14.09 7.888-19.35q8.04-8.037 19.5-8.038zm-120.935 77.072q39.144 0 62.515 26.54 19.053 21.672 19.053 51.665.004 30.308-18.9 51.978-22.923 26.382-64.155 26.383-41.378 0-64.304-26.383-18.903-21.67-18.905-53.234 0-28.424 19.053-50.408 23.071-26.54 65.643-26.541zm96.523 5.375h48.822v145.834h-48.822zm-272.654 36.664v.002c-9.726 0-18.735 7.073-24.987 14.416-5.06 5.954-7.59 15.133-7.59 22.775 0 7.64 2.871 16.138 7.932 22.092 6.153 7.343 12.779 12.377 22.604 12.377 8.833 0 19.337-3.708 25.388-9.762 6.153-6.053 11.27-16.218 11.27-25.049 0-8.731-2.397-19.186-8.549-25.24-6.152-6.154-17.337-11.611-26.068-11.611zm174.644 2.4q-15.18.001-24.709 11.938-7.739 9.579-7.74 21.828.001 12.406 7.74 21.986 9.528 11.937 24.71 11.938c9.03 0 16.67-3.251 22.921-9.742 6.254-6.598 9.377-14.654 9.377-24.182q0-14.132-9.525-23.867c-6.25-6.595-13.844-9.897-22.774-9.897z"/></svg>