<svg xmlns="http://www.w3.org/2000/svg" width="512" height="512" viewBox="0 0 512 512"><path d="M95.996 64c-17.648 0-31.998 14.327-31.998 31.998v320.006c0 17.646 14.327 31.998 31.998 31.998h111.06L256.003 512l48.941-63.998h111.06c17.647 0 31.999-14.328 31.999-31.998V95.998C448.002 78.35 433.674 64 416.004 64zm32.002 64h48.129v112.031S192.174 208.05 224 208.05c32.003 0 64.436 15.954 64.436 65.695v110.258h-48.133V288.06c0-26.06-16.302-36.06-32.303-32.055-16.001 3.999-31.873 20.995-31.873 56.045v71.953h-48.129zM368 320.004c17.676 0 32.002 14.276 32.002 31.892 0 17.618-14.326 31.897-32.002 31.897-17.671 0-31.996-14.279-31.996-31.897 0-17.616 14.325-31.892 31.996-31.892z"/></svg>