<svg xmlns="http://www.w3.org/2000/svg" width="448" height="512" viewBox="0 0 448 512"><path d="M121.248 64.002c-7.383.043-14.8.75-22.033 1.523-15.516 3.692-30.67 9.883-42.027 21.45-13.967 11.384-26.241 25.833-31.733 43.238-13.413 31.687-9.078 68.538 5.336 99.129 27.443 54.284 73.033 95.398 114.725 138.5 19.985 20.16 40.131 40.205 59.662 60.775 5.618 6.818 12.966 12.094 18.062 19.383 22.64-23.288 46.236-47.525 69.756-70.73 28.392-28.498 56.79-57.06 82.942-87.631 24.982-29.566 47.817-63.038 53.37-102.235 2.36-13.844 1.5-28.173-2.247-41.67-5.91-23.946-19.089-46.081-39.245-60.666-16.575-12.56-37.272-18.755-57.572-20.822-41.45.81-82.13 23.984-101.307 61.178l-5.181 8.664-5.342-8.56c-8.666-17.892-23.921-31.52-39.467-43.358-10.268-8.873-23.108-12.304-35.879-15.713-7.09-1.88-14.437-2.499-21.82-2.455zm200.512 83.172c10.388-.229 18.31 13.77 26.045 20.154 10.897 11.842-4.965 22.443-12.711 30.688-37.866 37.759-75.525 75.74-113.524 113.357-12.897 9.048-22.1-6.83-30.62-14.342-18.08-18.639-37.447-36.201-54.516-55.683-5.685-14.736 12.194-22.354 19.837-32.137 12.601-9.904 22.506 7.085 31.032 14.623 8.488 8.814 17.697 17.01 25.724 26.209 34.167-32.916 66.976-67.28 101.12-100.17 2.687-1.837 5.216-2.646 7.613-2.7z"/></svg>