<svg xmlns="http://www.w3.org/2000/svg" width="448" height="512" viewBox="0 0 448 512"><path d="M48 32C21.5 32 0 53.5 0 80v352c0 26.5 21.5 48 48 48h352c26.5 0 48-21.5 48-48V80c0-26.5-21.5-48-48-48zm310.816 127.16 2.344.125 2.342.123 1.502.246 1.502.244 1.373.358 1.371.357 1.393.553 1.39.553.903.488.9.488 1.021.698 1.022.697.885.77.886.769.774.887.773.884.766 1.143.767 1.14.717 1.503.719 1.501.307.909.306.908.3 1.195.298 1.196.184 1.08.181 1.082.13 1.382.128 1.381-.037 75.16-.037 75.159-.223 1.322-.22 1.322-.393 1.563-.393 1.56-.449 1.203-.451 1.202-.518 1.033-.517 1.031-.871 1.31-.87 1.311-1.45 1.443-1.452 1.444-1.082.732-1.08.733-.902.49-.9.49-1.335.543-1.332.545-1.636.43-1.64.431-1.534.258-1.535.26-138.545.023-138.543.022-1.442-.158-1.441-.157-1.53-.31-1.527-.309-1.459-.48-1.459-.479-1.347-.652-1.348-.652-1.313-.877-1.312-.875-1.451-1.448-1.451-1.447-.871-1.31-.87-1.311-.517-1.033-.518-1.031-.451-1.204-.45-1.2-.392-1.563-.392-1.56-.221-1.323-.223-1.322-.035-75.34-.035-75.34.191-1.682.19-1.681.3-1.424.3-1.424.435-1.338.438-1.34.876-1.744.88-1.742.812-1.135.81-1.133 1.149-1.15 1.148-1.148 1.106-.782 1.105-.78.81-.468.811-.465 1.381-.597 1.381-.596 1.395-.4 1.392-.403 1.01-.191 1.012-.193 1.441-.202 1.441-.203 136.502-.039zM89.84 184.885v22.109h24.514v-22.109zm243.924.119v22.111l12.226-.031 12.225-.031v-21.989l-12.225-.03zM166.2 217.928l-1.623.12-1.621.122-1.504.19-1.502.187-1.62.295-1.624.295-1.94.476-1.939.477-1.724.553-1.725.552-1.984.782-1.983.783-1.56.746-1.563.746-1.14.697-1.141.696-1.082.816-1.082.814-.989.922-.988.92-.9 1.072-.9 1.073-.587.873-.587.873-.551.97-.549.971-.535 1.252-.533 1.252-.387 1.201-.385 1.203-.285 1.262-.285 1.262-.21 1.502-.208 1.502-.008 3.123-.006 3.125.154 1.08.155 1.082.299 1.262.298 1.261.375 1.143.375 1.14.516 1.172.518 1.174.69 1.168.687 1.17.423.602.426.603.723.9.722.901 1.024 1.03 1.025 1.027.961.765.961.764 1.082.713 1.082.713 1.201.607 1.202.608 1.082.443 1.082.443 1.922.784 1.921.783 1.983.683 1.982.686 4.387 1.246 4.387 1.246 8.41 2.309 8.412 2.306 1.709.463 1.71.461.755.379.752.38.844.854.845.856.383.73.383.73.183.708.186.705v2.662l-.182.717-.181.717-.475.96-.473.961-.576.686-.578.686-.6.464-.601.465-.72.43-.721.428-.842.418-.84.416-1.121.441-1.121.441-1.416.346-1.414.346-1.162.146-1.163.147-2.37-.065-2.37-.064-1.388-.3-1.391-.304-1.193-.394-1.194-.395-1.742-.877-1.742-.877-1.137-.81-1.137-.813-1.232-1.181-1.23-1.182-.653-.8-.654-.801-.67-1.004-.67-1.004-.68-1.34-.677-1.338-.557-.58-.557-.582-.447-.23-.445-.231h-.791l-2.692.365-2.691.363-3.195.467-3.198.467-5.377.815-5.377.816v.373l.776 2.297.773 2.297.73 1.668.731 1.668.856 1.562.853 1.563.762 1.158.762 1.158.957 1.229.957 1.23 1.097 1.188 1.098 1.185 1.344 1.156 1.341 1.157 1.143.812 1.14.815 1.128.681 1.127.68 1.396.7 1.397.7 1.681.666 1.684.666 1.861.555 1.863.557 1.381.345 1.383.348 1.861.361 1.864.362 1.742.24 1.742.238 1.623.131 1.621.13.541.038.541.035 2.524.02 2.523.02 1.742-.12.002.002 1.742-.121 1.622-.186 1.623-.185 1.78-.295 1.782-.297 1.102-.244 1.103-.242 1.863-.479 1.862-.478 1.502-.494 1.502-.493 1.472-.634 1.473-.635 1.41-.807 1.412-.806 1.158-.797 1.159-.797 1.185-.98 1.186-.98 1.328-1.362 1.328-1.364.982-1.236.983-1.236.931-1.407.934-1.408.85-1.683.85-1.682.55-1.502.55-1.502.368-1.467.37-1.467.21-1.357.211-1.355v-4.928l-.215-1.32-.217-1.323-.289-1.15-.287-1.153-.433-1.244-.434-1.244-.518-1.11-.519-1.109-.66-1.12-.662-1.122-.9-1.207-.903-1.209-1.176-1.236-1.176-1.236-1.15-.96-1.148-.96-1.442-.965-1.443-.965-1.922-.938-1.922-.939-2.885-1.08-2.883-1.08-2.343-.783-2.344-.782-2.223-.66-2.222-.658-2.463-.727-2.463-.726-5.287-1.514-5.287-1.513-2.284-.711-2.283-.71-1.802-.613-1.803-.611-.633-.38-.633-.382-.615-.605-.613-.604-.405-.623-.402-.623-.242-.615-.244-.615-.116-.52-.117-.52.18-.704.18-.705.435-.893.436-.893.914-.918.914-.918.568-.326.57-.326 1.266-.232 1.266-.233 1.709-.24 1.71-.238 2.104-.188 2.102-.185 3.004-.073 3.004-.074 1.322.131 1.322.13.781.194.782.194 1.32.642 1.322.643.961.777.961.78.467.562.465.562.629 1.004.63 1.004.454 1.239.45 1.238.235.463.233.463.502.547.501.548.516.229.514.228h1.51l.953-.248.95-.25 1.085-.134 1.082-.133 7.93-1.307 7.931-1.307.272-.062.271-.063-.076-.328-.076-.328-.815-2.463-.814-2.463-.637-1.502-.637-1.501-.703-1.368-.7-1.367-.704-1.117-.701-1.117-.682-.906-.683-.907-.834-.918-.834-.918-.977-.884-.978-.883-1.094-.787-1.096-.786-2.162-1.074-2.162-1.072-1.982-.777-1.985-.778-1.724-.552-1.725-.553-1.94-.477-1.939-.476-1.623-.295-1.621-.295-1.502-.188-1.502-.19-1.623-.12-1.623-.121zm117.637.328-2.344.068-2.344.07-1.56.239-1.563.24-1.2.262-1.204.26-1.861.603-1.864.602-1.572.69-1.572.689-1.213.68-1.213.68-1.24.82-1.24.818-1.262 1.005-1.262 1.006-3.123 3.026-3.125 3.023-.24.268-.24.27-.06-6.052-.06-6.05-11.505-.032-11.506-.029v95.166h24.873v-17.002l.178-11.055.177-11.054.125-5.287.125-5.287.118-3.305.117-3.305.129-2.822.127-2.824.168-1.143.166-1.14.314-1.083.314-1.08.393-.906.393-.906.505-.865.504-.866.713-.943.711-.945 1.084-1.031 1.084-1.032 1.182-.787 1.181-.787.893-.412.895-.412 1.261-.473 1.262-.472 1.201-.311 1.201-.31.866-.13.863-.128h3.226l1.028.18 1.027.179.881.314.88.315.903.467.9.468.794.596.79.596.794.84.793.84.625.927.625.926.515 1.092.518 1.092.312.96.313.962.289 1.443.287 1.441.19 1.864.19 1.86.134 1.503.134 1.502.094 28.117.094 28.117.101.72.1.722h24.873l.031-23.01.034-23.01-.12-9.012-.12-9.011-.184-2.645-.184-2.643-.185-1.923-.184-1.922-.24-1.502-.239-1.502-.35-1.383-.349-1.38-.42-1.202-.418-1.203-.431-1.008-.432-1.008-.65-1.156-.649-1.158-.76-1.072-.76-1.073-1.44-1.492-1.44-1.494-1.233-.926-1.232-.924-1.264-.754-1.263-.751-1.35-.608-1.352-.605-2.306-.766-2.307-.766-1.238-.3-1.238-.303-1.33-.233-1.332-.232-1.614-.143zm49.926 3.275v95.049l12.226-.031 12.225-.031v-94.924l-12.225-.031zm-243.924.002v95.045h24.514v-95.045H89.84z"/></svg>