<svg xmlns="http://www.w3.org/2000/svg" width="512" height="512" viewBox="0 0 512 512"><path d="M154.525 118.266c-13.673-.15-27.57 3.679-40.052 11.877-26.538 17.414-36.12 45.563-31.035 76.83 1.434 8.804 4.162 17.342 5.632 26.129 2.09 12.187 3.118 24.534 1.01 36.918-2.374 14.1-9.938 22.499-23.225 25.156-3.507.726-7.228.69-10.824.867-3.118.213-6.289.001-9.37.373-11.002 1.559-19.558 7.67-27.53 14.934-5.155 4.694-8.308 10.435-9.672 17.095-.815 4.057-1.418 8.184-1.453 12.223-.142 13.375 2.055 26.112 11.603 36.37 12.011 12.914 26.661 19.114 44.252 15.837 26.36-4.872 42.978-30.4 37.043-56.617-1.488-6.378-4.358-12.366-6.306-18.62-4.234-13.551-2.374-25.811 7.742-36.28 5.049-5.244 11.231-8.874 17.928-11.532 15.678-6.253 32.028-7.458 48.591-5.314 10.7 1.382 20.852 4.587 29.94 10.699 16.563 11.09 19.61 29.212 10.752 45.492-11.444 21.063-6.395 46.875 12.648 61.596 12.295 9.495 26.343 11.994 41.418 10.54 35.678-3.418 56.849-41.276 38.78-73.093-7.565-13.304-5.988-29.265 6.058-40.426 5.049-4.694 10.93-7.936 17.342-10.328 14.951-5.615 30.418-6.554 46.113-4.482 11.657 1.559 22.78 4.996 32.488 11.994 11.533 8.362 17.31 19.487 14.971 33.783-.868 5.386-2.763 10.646-4.765 15.748-3.756 9.319-5.032 18.884-3.42 28.805 3.542 21.772 21.896 38.07 44.289 38.867 20.035.69 41.912-12.95 46.695-34.863 1.63-7.317 2.339-14.687 1.436-22.145-2.375-20-13.394-34.685-34.014-39.451-4.624-1.08-9.549-1.134-14.35-1.045-18.725.354-30.115-8.486-32.844-26.98-1.204-8.114-1.008-16.475-.423-24.696.62-8.556 1.807-17.219 4.021-25.492 2.356-8.91 4.499-17.678 4.41-26.943-.372-4.57-.39-9.213-1.097-13.748-4.447-28.947-26.395-51.853-55.625-58.319-28.274-6.306-57.044 5.476-73.944 29.037-6.554 9.159-14.668 17.467-23.011 25.102-11.391 10.222-26.733 10.47-38.797 1.559a104.3 104.3 0 0 1-24.448-25.385c-13.994-20.527-36.167-31.824-58.957-32.072zm101.952 79.459c26.838.036 48.611 21.79 48.54 48.468-.106 24.252-18.901 48.645-48.804 48.645l-.002.002c-29.991 0-48.893-24.536-48.805-48.877.07-26.82 21.967-48.31 49.07-48.238z"/></svg>