<svg xmlns="http://www.w3.org/2000/svg" width="512" height="512" viewBox="0 0 512 512"><path d="M64 64v384h384V64zm8.258 8.258h367.484v367.484H72.258zm264.672 47.451c-6.4 0-7.021.619-10.325 10.941-2.89 9.084-4.747 11.561-10.734 14.452-5.368 2.683-7.226 4.749-7.226 8.671 0 4.336 1.033 5.163 5.988 5.163h5.986l.826 33.445c.62 27.664 1.24 34.889 4.336 40.463 5.987 10.942 21.47 15.278 40.463 11.562 5.78-1.238 6.4-2.064 6.4-9.084v-7.845l-11.56.412c-16.723.413-17.342-1.031-17.342-38.399v-30.554h28.903v-16.518h-28.902v-22.709zm-145.053 21.072c-4.97-.14-9.941.503-14.328 2.051-3.304 1.239-8.671 4.541-11.768 7.432-5.987 5.574-5.575 5.78-8.879-4.748q-.928-3.098-9.289-3.098h-8.258V243.58h22.709v-32.826c0-18.168.826-35.303 1.858-37.986 3.716-9.29 10.323-13.832 21.058-13.832 8.052 0 10.53 1.031 14.04 5.367 3.922 5.161 4.335 8.258 4.335 42.322v36.955h22.709v-34.064c0-44.8 2.684-50.58 23.536-50.58 7.432 0 9.91 1.031 13.42 5.367 3.922 5.161 4.335 8.258 4.335 42.322v36.955h23.121l-.824-39.846c-.826-43.974-2.891-52.438-14.246-58.425-15.07-7.64-36.335-5.162-47.07 5.367l-5.988 6.195-3.922-5.162c-4.684-6.529-15.614-10.62-26.549-10.928zM336.93 266.29c-6.4 0-7.021.62-10.325 10.943-2.89 9.084-4.747 11.561-10.734 14.452-5.368 2.683-7.226 4.747-7.226 8.67 0 4.335 1.033 5.162 5.988 5.162h5.986l.826 33.445c.62 27.664 1.24 34.89 4.336 40.465 5.987 10.942 21.47 15.276 40.463 11.56 5.78-1.238 6.4-2.064 6.4-9.084v-7.845l-11.56.414c-16.723.413-17.342-1.033-17.342-38.4v-30.555h28.903V289h-28.902v-22.711zm-145.053 21.074c-4.97-.14-9.941.5-14.328 2.05-3.304 1.238-8.671 4.54-11.768 7.43-5.987 5.575-5.575 5.782-8.879-4.747q-.928-3.097-9.289-3.096h-8.258v101.16h22.709v-32.826c0-18.168.826-35.302 1.858-37.986 3.716-9.29 10.323-13.832 21.058-13.832 8.052 0 10.53 1.031 14.04 5.367 3.922 5.161 4.335 8.258 4.335 42.322v36.955h22.709v-34.064c0-44.8 2.684-50.58 23.536-50.58 7.432 0 9.91 1.031 13.42 5.367 3.922 5.161 4.335 8.258 4.335 42.322v36.955h23.121l-.824-39.846c-.826-43.974-2.891-52.438-14.246-58.425-15.07-7.639-36.335-5.16-47.07 5.369l-5.988 6.193-3.922-5.162c-4.684-6.529-15.614-10.617-26.549-10.926z"/></svg>