<svg xmlns="http://www.w3.org/2000/svg" width="384" height="512" viewBox="0 0 384 512"><path d="M190.225 64.021c-55.202.962-107.104 34.338-129.016 88.772-29.24 72.589 5.925 155.117 78.504 184.344a142.4 142.4 0 0 0 32.826 8.832L182.365 448h18.088l9.527-101.668c49.434-6.146 94.142-38.206 114.08-87.715.042-.082.075-.18.116-.277-33.703 20.808-83.803 33.83-134.969 13.238-44.084-17.745-63.974-57.784-49.842-92.906 12.207-30.306 44.783-43.614 71.64-32.803 30.991 12.486 43.751 46.44 32.376 74.674-5.542 13.792-17.293 25.049-28.895 33.99 43.968 15.92 93.52 1.555 109.364-22.539 19.687-29.907-4.547-87.826-4.547-87.826-13.541-29.797-37.552-55.303-73.768-69.879-18.144-7.304-36.91-10.588-55.31-10.268zM19.332 308.56c2.716 31.275 63.889 104.889 148.465 103.703-.041-.12-.075-.25-.14-.336-24.191-63.47-84.3-102.69-148.325-103.367zm337.475 41.484c-80.69 1.026-143.18 83.967-144.602 97.877 63.995 1.867 125.615-34.942 152.322-97.383.042-.106.086-.227.141-.334a118 118 0 0 0-7.861-.16z"/></svg>