<svg xmlns="http://www.w3.org/2000/svg" width="512" height="512" viewBox="0 0 512 512"><path d="M255.967 8c-14.42 0-28.913 3.166-39.842 9.51L69.402 102.205c-21.954 12.675-39.898 43.756-39.898 69.086v169.418c0 25.336 17.944 56.426 39.898 69.094l146.723 84.715c10.929 6.324 25.421 9.482 39.842 9.482 14.485 0 28.97-3.158 39.898-9.482l146.723-84.715c21.922-12.668 39.908-43.758 39.908-69.094V171.291c0-25.33-17.986-56.411-39.908-69.086L295.865 17.51C284.936 11.166 270.452 8 255.967 8zm99.19 144.373c4.227 0 8.449 1.602 11.65 4.813l17.847 17.828c6.402 6.428 6.402 16.938 0 23.359L228.221 354.824c-6.467 6.415-16.938 6.415-23.34 0l-68.942-68.914c-6.402-6.415-5.044-18.276 0-23.34l17.856-17.828c6.402-6.428 16.938-6.428 23.34 0l27.746 27.727c6.402 6.415 16.873 6.415 23.34 0l115.236-115.283a16.56 16.56 0 0 1 11.7-4.813z"/></svg>