<svg xmlns="http://www.w3.org/2000/svg" width="512" height="512" viewBox="0 0 512 512"><path d="M255.967 8c-14.42 0-28.906 3.166-39.899 9.51L69.402 102.205c-21.986 12.675-39.898 43.756-39.898 69.086v169.418c0 25.336 17.912 56.426 39.898 69.094l146.666 84.715c10.993 6.324 25.478 9.482 39.899 9.482 14.485 0 28.905-3.158 39.898-9.482l146.733-84.715c21.922-12.668 39.898-43.758 39.898-69.094V171.291c0-25.33-17.976-56.411-39.898-69.086L295.865 17.51C284.872 11.166 270.452 8 255.967 8zm25.992 106.596c11.446 0 21.218 6.111 26.326 15.365l-14.162 3.723c-2.651-3.305-7.572-5.371-12.164-5.371-9.57 0-15.516 6.856-15.516 16.369 0 9.99 6.527 16.19 15.516 16.19 5.561 0 10.87-2.81 13.262-6.774l14.029 3.636c-4.786 10.244-15.133 17.024-27.291 17.024-16.555 0-29.941-12.642-29.941-30.076 0-17.448 13.386-30.086 29.941-30.086zm-82.771 2.256H246.2v12.474h-16.947v43.168h-13.318v-43.168h-16.749zm155.949 80.79c4.235 0 8.469 1.602 11.67 4.813l17.845 17.828c6.402 6.428 6.402 16.928 0 23.35l-156.431 156.46c-6.467 6.416-16.938 6.416-23.34 0l-68.934-68.913c-6.402-6.415-5.044-18.277 0-23.34l17.848-17.828c6.402-6.428 16.873-6.428 23.34 0l27.746 27.726c6.402 6.415 16.873 6.415 23.34 0l115.236-115.283c3.201-3.21 7.444-4.812 11.68-4.812z"/></svg>