<svg xmlns="http://www.w3.org/2000/svg" width="512" height="512" viewBox="0 0 512 512"><path d="M55.514 64v185.773H249.95V64zm48.203 50.73 12.457.903q.541 0 .543.543v12.094c.18 8.304 0 16.61.902 24.916 1.264 12.637 7.762 19.135 20.219 21.12 1.986.362 3.972.364 6.5.364v-59.576h13.902v59.576c16.068 1.264 27.26-8.667 27.621-23.832l.182-26.9.18-5.958c0-1.444 1.085-2.527 2.529-2.527l11.191-.36v6.858c-.18 11.193.181 22.388-.902 33.4-1.444 14.805-10.652 23.65-24.373 27.983-5.055 1.625-10.291 1.625-16.068 1.625v24.014h-13.72v-24.014c-11.192 0-17.15-1.805-24.372-5.416-11.193-5.777-16.247-15.885-16.428-28.342-.542-11.735-.363-23.652-.363-36.47zM55.514 261.508V447.82l194.437.18V261.508zm206.535 0V447.82l194.437.18V261.508zm74.514 44.57c5.889.213 11.817 3.985 14.671 10.315 3.25 7.04 5.956 14.079 8.844 21.3l1.988 4.514 11.553-27.441c3.61-8.666 4.876-9.206 15.166-7.4l-20.762 47.298 13 31.953c1.986 4.694 5.774 6.138 10.649 6.319.361 3.069.363 5.599.363 7.765a14.08 14.08 0 0 1-19.86-6.139c-4.152-8.124-7.4-16.79-11.01-25.275l-2.169-5.236-15.885 36.83h-12.1l21.667-49.285-12.096-29.608c-2.166-5.235-6.68-6.139-11.734-6.5v-7.404c2.37-1.467 5.038-2.103 7.714-2.006zm-183.918 4.897h13.177l24.551 93.156h-12.996l-6.498-24.735H130.98l-8.488 17.15c-1.625 3.431-4.693 7.042-4.693 7.042h-12.094zm5.052 13.9-21.664 44.053h32.317z"/></svg>