<svg xmlns="http://www.w3.org/2000/svg" width="320" height="512" viewBox="0 0 320 512"><path d="M18.56 64v384h63.376V287.713h13.12c14.673 0 25.312 1.438 31.952 4.318s12.927 8.13 18.863 15.713c5.936 7.584 17.184 26.495 33.744 56.703L225.6 448h75.84l-38.223-74.896c-15.377-30.048-27.506-50.865-36.418-62.481-8.912-11.6-20.175-22.304-33.791-32.08 26.544-4.72 47.008-16.239 61.424-34.574 14.416-18.336 21.615-42.529 21.615-72.56 0-23.76-4.719-44.145-14.143-61.169s-21.472-28.992-36.144-35.888C211.088 67.455 186.64 64 152.416 64zm63.376 64.96h49.777q42.696 0 51.6 2.88c8.384 2.8 15.024 7.904 19.904 15.328s7.328 17.248 7.328 29.473c0 12.736-2.432 22.958-7.328 30.638-4.896 7.696-11.265 12.8-19.121 15.328q-11.784 3.793-55.008 3.793H81.936z"/></svg>