<svg xmlns="http://www.w3.org/2000/svg" width="512" height="512" viewBox="0 0 512 512"><path d="M156.807 64v11.674c26.175.956 43.383 4.8 51.683 11.492 8.319 6.731 12.406 20.033 12.406 39.904v257.616c0 20.806-4.087 34.514-12.406 41.023-8.3 6.569-25.508 10.106-51.683 10.656V448h197.716l.67-11.635c-25.504-.55-42.568-4.351-51.072-11.408-8.418-6.956-12.73-20.442-12.73-40.271V127.07c0-19.87 4.169-33.173 12.568-39.904 8.42-6.692 25.525-10.536 51.234-11.492V64zM36.684 77.85c-5.959 0-11.41.225-16.454.591-5.044.428-9.742 1.037-14.156 1.83v14.786h10.598c12.325 0 20.907 3.825 25.666 11.533 4.78 7.75 7.14 25.486 7.14 53.146v68.014c0 42.123 13.018 74.196 39.235 96.162 19.627 16.474 46.635 27.234 81.03 32.4v-20.175c-16.394-4.272-29.043-10.517-37.118-19.446-13.344-14.745-20.055-42.184-20.055-82.293v-54.79c0-37.323-5.817-63.583-17.533-78.837C83.361 85.478 63.877 77.85 36.684 77.85zm438.632 0c-27.193 0-46.677 7.628-58.353 22.921-11.716 15.254-17.533 41.514-17.533 78.836v54.791c0 40.11-6.711 67.548-20.055 82.293-8.075 8.929-20.724 15.174-37.117 19.446v20.176c34.394-5.167 61.402-15.927 81.03-32.4 26.216-21.967 39.233-54.04 39.233-96.163v-68.014c0-27.66 2.361-45.397 7.141-53.146 4.76-7.708 13.34-11.533 25.666-11.533h10.598V80.27c-4.414-.793-9.112-1.402-14.156-1.83a226 226 0 0 0-16.454-.591z"/></svg>