<svg xmlns="http://www.w3.org/2000/svg" width="512" height="512" viewBox="0 0 512 512"><path d="M71.79 157.666c-35.216 0-59.468 20.591-59.468 49.494 0 12.957 4.32 23.591 12.625 32.229 9.302 9.634 19.267 14.95 42.522 22.923 24.251 7.641 28.905 9.967 33.888 13.622 8.638 6.976 13.62 16.61 13.62 26.908 0 20.93-19.934 37.873-44.518 37.873-14.95 0-30.563-5.983-40.197-15.617-7.309-7.31-12.29-15.614-16.61-28.239-.664-1.66-1.33-2.654-2.66-2.654-1.66 0-2.992 1.659-2.992 3.984 0 2.658 1.335 10.301 3.66 17.61 1.993 6.976 3.322 11.624 3.322 12.289 1.994 9.966 2.325 10.301 4.983 12.627 6.976 5.315 27.57 10.297 42.851 10.297 38.205 0 65.45-24.251 65.45-58.137 0-24.916-16.279-42.853-49.832-53.816-33.554-10.964-35.217-11.967-42.858-20.272-5.315-5.98-7.974-12.95-7.974-20.924 0-17.94 14.617-30.9 34.882-30.9 24.252 0 46.843 14.29 53.155 33.89 1.66 5.316 2.329 6.307 4.322 6.307 1.329 0 2.654-1.659 2.654-3.984 0-.997-.33-3.325-.662-5.983-3.654-22.59-3.99-23.583-4.322-27.57 0-4.65-.997-6.643-3.322-6.643-.333 0-.992.328-1.325.66-3.322 2.658-3.659 2.993-5.32 2.993-.664 0-1.656-.33-2.652-.662-17.608-7.309-20.599-8.305-33.223-8.305zm108.632.662c-25.248 0-44.847 10.298-53.817 26.908l1.993 13.62c.332 1.993.33 3.325.33 3.99 0 5.315-3.318 9.3-7.637 10.297.997 10.298 5.31 19.269 12.62 26.578 9.301 9.634 19.271 14.95 42.527 22.924 23.919 7.973 28.9 9.964 33.882 13.619 8.638 6.644 13.62 16.61 13.62 26.908 0 20.93-19.928 37.873-44.512 37.873-14.95 0-30.57-5.977-40.203-15.611a58.3 58.3 0 0 1-7.967-9.965c-1.993 4.65-4.325 9.3-6.983 13.287 1.994 9.302 2.325 9.966 4.983 11.959 6.976 5.315 27.575 10.297 42.857 10.297 37.873 0 65.451-24.251 65.451-58.137-.664-24.252-17.278-41.859-50.832-53.154-33.886-11.296-35.548-11.959-42.857-20.264q-7.974-8.972-7.975-20.934c0-18.271 14.618-30.89 34.883-30.89 24.252 0 46.51 14.282 53.154 33.883 1.662 5.315 2.662 6.312 4.323 6.312 1.329 0 2.66-1.665 2.66-3.99 0-.997-.336-2.985-.668-5.975-3.654-22.59-3.984-23.591-4.316-27.578 0-4.65-.995-6.644-3.32-6.644-.665 0-1 .337-1.333.67-3.322 2.657-3.651 2.984-5.312 2.984-.665 0-1.332-.33-2.66-.662-17.276-7.641-20.6-8.305-32.891-8.305zm96.342 3.652c-6.312 0-13.287.336-20.264.668-14.95.997-14.95.993-21.926.993h-2.66c.664 1.66 1 3.656 1 6.314.332 2.658.329 3.986 2.322 14.95l2.33 14.618c.333 1.994.33 3.32.33 3.985 0 2.99-.996 5.65-2.99 7.642v52.157q8.969 12.956 8.967 29.898c0 12.956-3.655 24.587-9.967 34.22-1.66 11.96-5.978 14.95-16.941 18.272-2.658.665-3.322.993-3.322 2.655 0 1.993.994 2.66 3.652 2.66.997 0 4.325-.33 6.982-.662 4.651-.665 11.628-.998 18.272-.998 12.956 0 27.24.333 30.562.998 3.655.332 6.644.662 8.305.662 2.326 0 4.32-1 4.32-2.66 0-1.662-1.66-2.653-4.982-2.985-19.269-1.993-25.58-8.972-24.916-27.908v-49.17c.332-4.65.992-5.315 7.969-4.982h14.949c5.98 0 7.645.999 10.635 5.65.996 1.661 1.66 2.654 1.66 2.986l33.553 51.493c13.62 20.93 25.578 28.906 42.189 28.906 9.966 0 19.271-2.657 19.271-5.315 0-.996-.995-1.998-2.324-1.998-14.285.332-23.922-7.64-40.865-33.552l-37.873-55.147c21.926-11.295 33.89-27.243 33.89-47.508 0-14.617-5.98-27.571-16.61-35.545-10.632-7.973-24.257-11.297-45.518-11.297zm223.252 2.33c-1.661 0-3.655.33-6.645.663-3.322.664-6.647.998-12.295.998-7.973 0-21.263-.666-26.246-.998l-5.976-.332c-2.658 0-3.99.993-3.99 2.654 0 1.993 1 2.996 3.99 3.66 25.912 3.654 28.234 9.633 27.57 73.086v65.113c0 4.32-.333 5.317-1.662 4.985-.665 0-1.66-.997-3.653-3.323L346.197 168.625c-2.657-2.99-4.314-3.984-7.304-3.984-.997 0-2.66 0-4.653.332h-2.33c-.664 0-6.642 0-10.629-.332 1.661.996 3.324 2.325 4.985 3.322 11.96 8.97 19.27 24.249 19.27 40.86 0 2.657-.337 5.316-.669 7.642v86.377l3.322 4.982c2.99 4.319 5.32 7.975 7.645 11.297V221.78c0-4.65.659-5.976 2.652-5.976 1.33 0 1.662.33 3.323 1.992l114.615 131.557c4.319 4.983 4.319 4.982 6.312 4.982 3.322 0 4.323-1.995 4.323-7.975v-2.652c.332-7.973.33-20.268.33-37.543v-88.37l.332-8.636c-.332-32.89.995-36.213 13.619-39.535 1.993-.332 2.66-1 2.66-2.328 0-1.661-1.659-2.984-3.984-2.984zm-230.559 6.975c12.624 0 26.242 4.32 33.883 11.297 9.634 7.973 15.281 21.259 15.281 33.883 0 22.59-14.285 36.543-38.205 36.543h-15.28c-8.97-.332-9.636-.997-9.636-9.635v-55.146c0-9.302.001-10.302 1.662-12.627 1.993-2.658 5.983-4.315 12.295-4.315z"/></svg>