<svg xmlns="http://www.w3.org/2000/svg" viewBox="-10 0 610 1000"><path d="m1 77-1 1v112l1 1h58l1-1V78l-1-1zm60 114-1 1v112l1 1h58l1-1V192l-1-1zM1 305l-1 1v112l1 1h58l1-1V306l-1-1zm120 0-1 1v112l1 1h58l1-1V306l-1-1zM61 419l-1 1v112l1 1h58l1-1V420l-1-1zm120 0-1 1v112l1 1h58l1-1V420l-1-1zM1 533l-1 1v112l1 1h58l1-1V534l-1-1zm120 0-1 1v112l1 1h58l1-1V534l-1-1zm120 0-1 1v112l1 1h58l1-1V534l-1-1zM61 647l-1 1v112l1 1h58l1-1V648l-1-1zm120 0-1 1v112l1 1h58l1-1V648l-1-1zm120 0-1 1v112l1 1h58l1-1V648l-1-1zM1 761l-1 1v112l1 1h58l1-1V762l-1-1zm120 0-1 1v112l1 1h58l1-1V762l-1-1zm120 0-1 1v112l1 1h58l1-1V762l-1-1zm120 0-1 1v112l1 1h58l1-1V762l-1-1zM61 875l-1 1v112l1 1h58l1-1V876l-1-1zm120 0-1 1v112l1 1h58l1-1V876l-1-1zm120 0-1 1v112l1 1h58l1-1V876l-1-1zm120 0-1 1v112l1 1h58l1-1V876l-1-1zM1 989l-1 1v112l1 1h58l1-1V990l-1-1zm120 0-1 1v112l1 1h58l1-1V990l-1-1zm120 0-1 1v112l1 1h58l1-1V990l-1-1zm120 0-1 1v112l1 1h58l1-1V990l-1-1zm120 0-1 1v112l1 1h58l1-1V990l-1-1z"/></svg>