<svg xmlns="http://www.w3.org/2000/svg" viewBox="-10 0 620 1000"><path d="m1 505-1 1v112l1 1h58l1-1V506l-1-1zm120 0-1 1v112l1 1h58l1-1V506l-1-1zm120 0-1 1v112l1 1h58l1-1V506l-1-1zm120 0-1 1v112l1 1h58l1-1V506l-1-1zm120 0-1 1v112l1 1h58l1-1V506l-1-1zM61 619l-1 1v112l1 1h58l1-1V620l-1-1zm120 0-1 1v112l1 1h58l1-1V620l-1-1zm120 0-1 1v112l1 1h58l1-1V620l-1-1zm120 0-1 1v112l1 1h58l1-1V620l-1-1zm120 0-1 1v112l1 1h58l1-1V620l-1-1zM1 733l-1 1v112l1 1h58l1-1V734l-1-1zm120 0-1 1v112l1 1h58l1-1V734l-1-1zm120 0-1 1v112l1 1h58l1-1V734l-1-1zm120 0-1 1v112l1 1h58l1-1V734l-1-1zm120 0-1 1v112l1 1h58l1-1V734l-1-1zM61 847l-1 1v112l1 1h58l1-1V848l-1-1zm120 0-1 1v112l1 1h58l1-1V848l-1-1zm120 0-1 1v112l1 1h58l1-1V848l-1-1zm120 0-1 1v112l1 1h58l1-1V848l-1-1zm120 0-1 1v112l1 1h58l1-1V848l-1-1zM1 961l-1 1v112l1 1h58l1-1V962l-1-1zm120 0-1 1v112l1 1h58l1-1V962l-1-1zm120 0-1 1v112l1 1h58l1-1V962l-1-1zm120 0-1 1v112l1 1h58l1-1V962l-1-1zm120 0-1 1v112l1 1h58l1-1V962l-1-1z"/></svg>