<svg xmlns="http://www.w3.org/2000/svg" viewBox="-10 0 620 1000"><path d="m61-23-1 1V90l1 1h58l1-1V-22l-1-1zm120 0-1 1V90l1 1h58l1-1V-22l-1-1zm120 0-1 1V90l1 1h58l1-1V-22l-1-1zm120 0-1 1V90l1 1h58l1-1V-22l-1-1zm120 0-1 1V90l1 1h58l1-1V-22l-1-1zM121 91l-1 1v112l1 1h58l1-1V92l-1-1zm120 0-1 1v112l1 1h58l1-1V92l-1-1zm120 0-1 1v112l1 1h58l1-1V92l-1-1zm120 0-1 1v112l1 1h58l1-1V92l-1-1zM181 205l-1 1v112l1 1h58l1-1V206l-1-1zm120 0-1 1v112l1 1h58l1-1V206l-1-1zm120 0-1 1v112l1 1h58l1-1V206l-1-1zm120 0-1 1v112l1 1h58l1-1V206l-1-1zM241 319l-1 1v112l1 1h58l1-1V320l-1-1zm120 0-1 1v112l1 1h58l1-1V320l-1-1zm120 0-1 1v112l1 1h58l1-1V320l-1-1zM301 433l-1 1v112l1 1h58l1-1V434l-1-1zm120 0-1 1v112l1 1h58l1-1V434l-1-1zm120 0-1 1v112l1 1h58l1-1V434l-1-1zM361 547l-1 1v112l1 1h58l1-1V548l-1-1zm120 0-1 1v112l1 1h58l1-1V548l-1-1zm-60 114-1 1v112l1 1h58l1-1V662l-1-1zm120 0-1 1v112l1 1h58l1-1V662l-1-1zm-60 114-1 1v112l1 1h58l1-1V776l-1-1zm60 114-1 1v112l1 1h58l1-1V890l-1-1z"/></svg>