<svg xmlns="http://www.w3.org/2000/svg" width="24" height="24" viewBox="0 0 24 24"><path d="M12 1C8.146 1 5 4.146 5 8c0 3.357-.712 5.428-1.377 6.646-.665 1.219-1.178 1.522-1.178 1.522A1 1 0 0 0 3 18h18a1 1 0 0 0 .555-1.832s-.513-.303-1.178-1.522C19.712 13.428 19 11.357 19 8a1 1 0 0 0-.078-.387C18.709 3.948 15.717 1 12 1zm0 2c2.773 0 5 2.227 5 5 0 3.643.788 6.072 1.623 7.604.149.272.172.176.324.396H5.053c.152-.22.175-.124.324-.396C6.212 14.072 7 11.643 7 8c0-2.773 2.227-5 5-5zm-1.666 17.002a1 1 0 0 0-.566.133 1 1 0 0 0-.364 1.367c1.132 1.952 4.06 1.952 5.192 0a1 1 0 0 0-.364-1.367 1 1 0 0 0-1.367.363c-.409.706-1.321.706-1.73 0a1 1 0 0 0-.608-.465 1 1 0 0 0-.193-.031z"/></svg>