<svg xmlns="http://www.w3.org/2000/svg" width="24" height="24" viewBox="0 0 24 24"><path d="M12 1C5.937 1 1 5.937 1 12s4.937 11 11 11 11-4.937 11-11S18.063 1 12 1zm0 2c2.2 0 4.21.783 5.771 2.086-1.323 1.335-2.875 2.27-4.628 2.998a54 54 0 0 0-3.04-4.885Q11.024 3.002 12 3zm-3.873.87a55 55 0 0 1 3.143 4.92c-2.26.642-4.869.989-8.024 1.114A9 9 0 0 1 8.127 3.87zm11.027 2.66a8.96 8.96 0 0 1 1.836 5.106c-2.268-.463-4.311-.41-6.181-.123-.234-.56-.478-1.163-.735-1.698 1.895-.807 3.614-1.83 5.08-3.285zm-6.912 4.053c.194.4.395.844.574 1.258-.102.033-.241.02-.341.056-2.601.928-5.023 2.807-7.358 5.91A8.97 8.97 0 0 1 3 12l.002-.086c3.545-.123 6.592-.516 9.24-1.33zm5.348 2.695c1.012.006 2.095.114 3.258.373a8.98 8.98 0 0 1-3.532 5.616 65 65 0 0 0-1.785-5.872c.656-.076 1.34-.12 2.059-.117zm-4.057.442c.684 1.867 1.322 3.92 1.979 6.572A9 9 0 0 1 12 21a8.97 8.97 0 0 1-5.42-1.809c2.21-2.995 4.348-4.617 6.565-5.408.108-.038.275-.027.388-.062z"/></svg>