<svg xmlns="http://www.w3.org/2000/svg" width="24" height="24" viewBox="0 0 24 24"><path d="M1 0a1 1 0 0 0-.707.293 1 1 0 0 0 0 1.414L4.57 5.984a19.5 19.5 0 0 0-4.45 5.543 1 1 0 0 0-.015.92S4.238 21 12 21h.016a11.1 11.1 0 0 0 5.81-1.76l4.467 4.467a1 1 0 0 0 1.414 0 1 1 0 0 0 0-1.414l-8.906-8.904-4.19-4.19L1.707.293A1 1 0 0 0 1 0zm11 3a10 10 0 0 0-2.328.266 1 1 0 0 0-.746 1.203 1 1 0 0 0 1.201.744A8 8 0 0 1 11.998 5H12c5.875 0 9.37 6.244 9.79 7.014-.513.884-1.057 1.75-1.716 2.533a1 1 0 0 0 .121 1.408 1 1 0 0 0 1.41-.121 19.5 19.5 0 0 0 2.278-3.363 1 1 0 0 0 .012-.918S19.763 3 12.002 3zM5.988 7.402l2.54 2.54c-.476.713-.695 1.508-.66 2.263.047 1.05.528 1.996 1.23 2.697.701.702 1.647 1.183 2.697 1.23.755.035 1.55-.184 2.264-.66l2.308 2.31a9.1 9.1 0 0 1-4.375 1.216c-5.869-.006-9.36-6.239-9.781-7.01 1.003-1.727 2.262-3.29 3.777-4.586zm3.996 3.996 2.618 2.618c-.244.1-.48.13-.717.119-.484-.022-.99-.263-1.373-.647-.384-.384-.625-.89-.647-1.373-.01-.236.02-.473.12-.717z"/></svg>