<svg xmlns="http://www.w3.org/2000/svg" width="24" height="24" viewBox="0 0 24 24"><path d="M7.059 1.9q-.157 0-.311.01c-1.653.097-3.165.863-4.295 1.992S.556 6.544.46 8.197s.52 3.427 1.994 4.9l1.06 1.06 7.78 7.78a1 1 0 0 0 1.414 0l7.78-7.78 1.06-1.06c2.531-2.53 2.531-6.664 0-9.195-2.53-2.531-6.663-2.531-9.193 0L12 4.256l-.354-.354C10.266 2.521 8.621 1.893 7.06 1.9zm.222 2.002c.973.04 1.972.435 2.951 1.414l1.061 1.061a1 1 0 0 0 1.414 0l1.06-1.06a4.485 4.485 0 0 1 6.366 0 4.487 4.487 0 0 1 0 6.367l-1.06 1.058L12 19.816l-7.072-7.074-1.06-1.058c-1.12-1.12-1.476-2.265-1.411-3.368s.595-2.184 1.41-3c.816-.815 1.896-1.345 2.998-1.41q.207-.013.416-.004z"/></svg>