<svg xmlns="http://www.w3.org/2000/svg" width="24" height="24" viewBox="0 0 24 24"><path d="M5 2C3.355 2 2 3.355 2 5v14c0 1.645 1.355 3 3 3h14c1.645 0 3-1.355 3-3V5c0-1.645-1.355-3-3-3zm0 2h14c.571 0 1 .429 1 1v7.586l-3.293-3.293a1 1 0 0 0-1.414 0L4.648 19.938A.97.97 0 0 1 4 19V5c0-.571.429-1 1-1zm3.5 2A2.515 2.515 0 0 0 6 8.5C6 9.869 7.131 11 8.5 11S11 9.869 11 8.5 9.869 6 8.5 6zm0 2c.288 0 .5.212.5.5s-.212.5-.5.5a.486.486 0 0 1-.5-.5c0-.288.212-.5.5-.5zm7.5 3.414 4 4V19c0 .571-.429 1-1 1H7.414z"/></svg>