<svg xmlns="http://www.w3.org/2000/svg" width="24" height="24" viewBox="0 0 24 24"><path d="M4 1C2.355 1 1 2.355 1 4s1.355 3 3 3 3-1.355 3-3-1.355-3-3-3zm0 2c.564 0 1 .436 1 1s-.436 1-1 1-1-.436-1-1 .436-1 1-1zm12 4c-3.854 0-7 3.146-7 7v7a1 1 0 0 0 1 1h4a1 1 0 0 0 1-1v-7c0-.564.436-1 1-1s1 .436 1 1v7a1 1 0 0 0 1 1h4a1 1 0 0 0 1-1v-7c0-3.854-3.146-7-7-7zM2 8a1 1 0 0 0-1 1v12a1 1 0 0 0 1 1h4a1 1 0 0 0 1-1V9a1 1 0 0 0-1-1zm14 1c2.773 0 5 2.227 5 5v6h-2v-6c0-1.645-1.355-3-3-3s-3 1.355-3 3v6h-2v-6c0-2.773 2.227-5 5-5zM3 10h2v10H3z"/></svg>