<svg xmlns="http://www.w3.org/2000/svg" width="24" height="24" viewBox="0 0 24 24"><path d="M2 1a1 1 0 0 0-.121.016l-.082.01a1 1 0 0 0-.324.13l-.055.041a1 1 0 0 0-.125.096 1 1 0 0 0-.076.105 1 1 0 0 0-.07.098 1 1 0 0 0-.116.287l-.017.053a1 1 0 0 0 .011.365l.002.033 3.5 14.5a1 1 0 0 0 .778.746l5.775 1.155a1 1 0 0 0 .213 1.072l3 3a1 1 0 0 0 1.414 0l7-7a1 1 0 0 0 0-1.414l-3-3a1 1 0 0 0-1.072-.213L17.48 5.305a1 1 0 0 0-.746-.778L2.26 1.033h-.002l-.024-.006h-.027A1 1 0 0 0 2 1zm3.22 2.807 10.425 2.515 1.27 6.35-4.243 4.242-6.35-1.27L3.807 5.222l4.49 4.49A2.96 2.96 0 0 0 8 11c0 1.645 1.355 3 3 3s3-1.355 3-3-1.355-3-3-3c-.46 0-.897.108-1.29.297zM11 10c.564 0 1 .436 1 1s-.436 1-1 1-1-.436-1-1c0-.272.103-.513.271-.691l.022-.016.039-.043A1 1 0 0 1 11 10zm8 3.414L20.586 15 15 20.586 13.414 19l.293-.293 5-5z"/></svg>