<svg xmlns="http://www.w3.org/2000/svg" width="24" height="24" viewBox="0 0 24 24"><path d="M4.93 3.93a1 1 0 0 0-.707.293c-4.286 4.287-4.286 11.267 0 15.554a1 1 0 0 0 1.414 0 1 1 0 0 0 0-1.414 8.986 8.986 0 0 1 0-12.726 1 1 0 0 0 0-1.414 1 1 0 0 0-.707-.293zm14.14 0a1 1 0 0 0-.707.293 1 1 0 0 0 0 1.414 8.986 8.986 0 0 1 0 12.726 1 1 0 0 0 0 1.414 1 1 0 0 0 1.414 0c4.286-4.287 4.286-11.267 0-15.554a1 1 0 0 0-.707-.293zM7.76 6.75a1 1 0 0 0-.707.293c-2.73 2.726-2.73 7.178 0 9.904a1 1 0 0 0 1.414 0 1 1 0 0 0 0-1.414 4.986 4.986 0 0 1 0-7.076 1 1 0 0 0 0-1.414 1 1 0 0 0-.707-.293zm8.48.01a1 1 0 0 0-.707.293 1 1 0 0 0 0 1.414 4.986 4.986 0 0 1 0 7.076 1 1 0 0 0 0 1.414 1 1 0 0 0 1.414 0c2.73-2.726 2.73-7.178 0-9.904a1 1 0 0 0-.707-.293zM12 9c-1.645 0-3 1.355-3 3s1.355 3 3 3 3-1.355 3-3-1.355-3-3-3zm0 2c.564 0 1 .436 1 1s-.436 1-1 1-1-.436-1-1 .436-1 1-1z"/></svg>