<svg xmlns="http://www.w3.org/2000/svg" width="24" height="24" viewBox="0 0 24 24"><path d="M1 0a1 1 0 0 0-.707.293 1 1 0 0 0 0 1.414l2.32 2.32C1.148 4.22 0 5.487 0 7v10c0 1.645 1.355 3 3 3h11c1.23 0 2.297-.758 2.758-1.828l5.535 5.535a1 1 0 0 0 1.414 0 1 1 0 0 0 0-1.414l-7-7-11-11-4-4A1 1 0 0 0 1 0zm9.66 4a1 1 0 0 0-1 1 1 1 0 0 0 1 1H14c.564 0 1 .436 1 1v3.34a1 1 0 0 0 .293.707l1 1a1 1 0 0 0 1.293.103L22 8.957V17a1 1 0 0 0 1 1 1 1 0 0 0 1-1V7a1 1 0 0 0-1.586-.81l-5.31 3.84L17 9.925V7c0-1.645-1.355-3-3-3zM3 6h1.586L15 16.414V17c0 .564-.436 1-1 1H3c-.564 0-1-.436-1-1V7c0-.564.436-1 1-1z"/></svg>