<svg xmlns="http://www.w3.org/2000/svg" viewBox="0 0 18 18"><g clip-path="url(#a)"><path d="M5.285 2a.5.5 0 0 0-.5.5v.951c-.16.011-.4 0-.545.02-.601.08-1.12.266-1.508.654-.388.387-.573.905-.654 1.506-.051.384-.045.937-.05 1.443L2 7.143l.023.058c-.001.25-.023.403-.023.692V11.5c0 .943-.003 1.66.078 2.262.081.6.267 1.118.654 1.506.388.387.905.573 1.506.654.601.08 1.319.078 2.262.078h1a.5.5 0 0 0 .5-.5.5.5 0 0 0-.5-.5h-1c-.943 0-1.64-.003-2.127-.068-.488-.066-.735-.173-.934-.371-.198-.199-.305-.446-.37-.934C3.002 13.139 3 12.443 3 11.5V7.893c0-.111.008-.146.008-.25h11.984c0 .104.008.139.008.25V8a.5.5 0 0 0 .5.5.5.5 0 0 0 .5-.5v-.107c0-.289-.022-.443-.023-.692L16 7.143a.5.5 0 0 0-.031-.163c-.007-.464.001-.99-.047-1.35-.081-.6-.266-1.118-.654-1.505-.388-.388-.905-.573-1.506-.654-.146-.02-.387-.009-.547-.02V2.5a.5.5 0 0 0-.5-.5.5.5 0 0 0-.5.5v.918c-.257-.002-.418-.025-.717-.025H6.502c-.299 0-.46.023-.717.025V2.5a.5.5 0 0 0-.5-.5m1.217 2.393h4.996c.318 0 .454.02.717.023v.87a.5.5 0 0 0 .5.5.5.5 0 0 0 .5-.5v-.839c.11.009.317.001.412.014.488.066.736.173.934.371.197.198.305.446.37.934.028.2.018.602.028.877H3.041c.01-.275 0-.676.027-.877.066-.488.174-.736.371-.934.199-.198.446-.305.934-.371.095-.013.302-.005.412-.014v.838a.5.5 0 0 0 .5.5.5.5 0 0 0 .5-.5v-.869c.263-.003.4-.023.717-.023"/><path d="M13 9.5c-.861 0-1.729.285-2.395.877S9.5 11.875 9.5 13s.44 2.031 1.105 2.623c.666.592 1.534.877 2.395.877s1.729-.285 2.395-.877S16.5 14.125 16.5 13s-.44-2.031-1.105-2.623C14.729 9.785 13.86 9.5 13 9.5m0 1c.639 0 1.271.215 1.73.623s.77 1.002.77 1.877-.31 1.469-.77 1.877c-.459.408-1.091.623-1.73.623s-1.271-.215-1.73-.623-.77-1.002-.77-1.877.31-1.469.77-1.877c.459-.408 1.091-.623 1.73-.623"/><path d="M13 11.5a.5.5 0 0 0-.5.5v1a.5.5 0 0 0 .5.5h1a.5.5 0 0 0 .5-.5.5.5 0 0 0-.5-.5h-.5V12a.5.5 0 0 0-.5-.5M6.125 10A.562.562 0 1 1 5 10a.562.562 0 0 1 1.125 0"/><path d="M6.125 10A.562.562 0 1 1 5 10a.562.562 0 0 1 1.125 0m0 2.5A.562.562 0 1 1 5 12.5a.562.562 0 0 1 1.125 0"/><path d="M6.125 12.5A.562.562 0 1 1 5 12.5a.562.562 0 0 1 1.125 0M9.563 10a.562.562 0 1 1-1.125 0 .562.562 0 0 1 1.124 0z"/><path d="M9.563 10a.562.562 0 1 1-1.125 0 .562.562 0 0 1 1.124 0z"/></g><defs><clipPath id="a"><path d="M0 0h18v18H0z"/></clipPath></defs></svg>