<svg xmlns="http://www.w3.org/2000/svg" viewBox="0 0 24 24"><path clip-path="url(#a)" d="M12 2C6.489 2 2 6.489 2 12s4.489 10 10 10 10-4.489 10-10S17.511 2 12 2m0 2c4.43 0 8 3.57 8 8s-3.57 8-8 8-8-3.57-8-8 3.57-8 8-8"/><path clip-path="url(#b)" d="M12.354 6.5c-2.19 0-3.911 1.73-4.477 4H6.5v1h1.203c-.014.172-.086.324-.086.5s.072.328.086.5H6.5v1h1.377c.566 2.27 2.288 4 4.477 4 1.138 0 2.184-.47 2.99-1.234l-.688-.725c-.644.61-1.437.959-2.302.959-1.593 0-2.96-1.242-3.483-3h4.012v-1H8.7c-.016-.173-.084-.321-.084-.5s.068-.327.084-.5h4.182v-1H8.87c.522-1.758 1.89-3 3.483-3 .864 0 1.659.35 2.302.959l.688-.725C14.537 6.97 13.49 6.5 12.354 6.5"/><defs><clipPath clipPathUnits="userSpaceOnUse" id="b"><path d="M0 0h24v24H0Z"/></clipPath><clipPath clipPathUnits="userSpaceOnUse" id="a"><path d="M0 0h24v24H0Z"/></clipPath></defs></svg>