<svg xmlns="http://www.w3.org/2000/svg" viewBox="0 0 24 24"><path d="M7 2a1 1 0 0 0-1 1 1 1 0 0 0 1 1h10a1 1 0 0 0 1-1 1 1 0 0 0-1-1Zm4.5 4.5c-.943 0-1.67-.006-2.328.082s-1.31.314-1.793.797c-.483.482-.708 1.135-.797 1.793-.088.658-.082 1.385-.082 2.328v1c0 .943-.006 1.67.082 2.328s.314 1.31.797 1.793c.482.483 1.135.708 1.793.797.658.088 1.385.082 2.328.082h1c.943 0 1.67.007 2.328-.082s1.31-.314 1.793-.797c.483-.482.708-1.135.797-1.793.088-.658.082-1.385.082-2.328v-1c0-.943.007-1.67-.082-2.328s-.314-1.31-.797-1.793c-.482-.483-1.135-.708-1.793-.797-.658-.088-1.385-.082-2.328-.082Zm0 2h1c.943 0 1.63.006 2.06.064.432.058.543.125.647.229s.17.215.229.646.064 1.118.064 2.061v1c0 .943-.006 1.63-.064 2.06-.058.432-.125.543-.229.647s-.215.17-.646.229-1.118.064-2.061.064h-1c-.943 0-1.63-.006-2.06-.064-.432-.058-.543-.125-.647-.229s-.17-.215-.229-.646S8.5 13.443 8.5 12.5v-1c0-.943.006-1.63.064-2.06.058-.432.125-.543.229-.647s.215-.17.646-.229S10.557 8.5 11.5 8.5"/></svg>