<svg xmlns="http://www.w3.org/2000/svg" viewBox="0 0 18 18"><path d="M4.5 2c-.471 0-.835-.003-1.164.041s-.655.157-.897.398c-.24.242-.354.568-.398.897S2 4.029 2 4.5v9c0 .472-.003.835.041 1.164s.157.655.398.897c.242.24.568.354.897.398S4.029 16 4.5 16h9c.472 0 .835.003 1.164-.041s.655-.157.897-.398c.24-.242.354-.568.398-.897S16 13.972 16 13.5v-3.234a.5.5 0 0 0-.5-.5.5.5 0 0 0-.5.5V13.5c0 .472-.002.816-.031 1.031-.03.216-.064.27-.115.323-.052.051-.107.086-.323.115-.215.029-.56.031-1.031.031h-9c-.471 0-.816-.002-1.031-.031-.216-.03-.27-.064-.323-.115-.051-.052-.086-.107-.115-.323C3.002 14.316 3 13.971 3 13.5v-9c0-.471.002-.816.031-1.031.03-.216.064-.27.115-.323.052-.051.107-.086.323-.115C3.684 3.002 4.029 3 4.5 3h3a.5.5 0 0 0 .5-.5.5.5 0 0 0-.5-.5Z"/><path d="M11 2a.5.5 0 0 0-.5.5.5.5 0 0 0 .5.5h3.293L6.5 10.793V7.5A.5.5 0 0 0 6 7a.5.5 0 0 0-.5.5V12a.5.5 0 0 0 .146.354A.5.5 0 0 0 6 12.5h4.5a.5.5 0 0 0 .5-.5.5.5 0 0 0-.5-.5H7.207L15 3.707V7a.5.5 0 0 0 .5.5.5.5 0 0 0 .5-.5V2.5a.5.5 0 0 0-.018-.09l-.011-.058a.5.5 0 0 0-.117-.206A.5.5 0 0 0 15.5 2Z"/></svg>