<svg xmlns="http://www.w3.org/2000/svg" viewBox="0 0 24 24"><path d="M12 2C6.489 2 2 6.489 2 12s4.489 10 10 10 10-4.489 10-10S17.511 2 12 2m0 2c4.43 0 8 3.57 8 8s-3.57 8-8 8-8-3.57-8-8 3.57-8 8-8"/><path d="M12.73 8.27v2.153c-5.5 0-5 4.846-5 4.846s1.5-2.692 5-2.692v2.154l4.707-3.23-4.706-3.232z"/><path d="M13.014 7.857a.5.5 0 0 0-.637.059.5.5 0 0 0-.147.354v1.714c-2.538.16-3.928 1.386-4.515 2.65-.628 1.353-.483 2.686-.483 2.686a.5.5 0 0 0 .934.192s1.23-2.086 4.064-2.344v1.562a.5.5 0 0 0 .784.413l4.707-3.229a.5.5 0 0 0 0-.826zm.216 1.362 3.323 2.281-3.323 2.281v-1.205a.5.5 0 0 0-.5-.5c-2.01 0-3.336.793-4.218 1.578.06-.275-.028-.301.11-.597.496-1.07 1.505-2.133 4.108-2.133a.5.5 0 0 0 .5-.5z"/></svg>