<svg xmlns="http://www.w3.org/2000/svg" viewBox="0 0 24 24"><path d="M12.736 6v3.385C4.246 9.385 5.018 17 5.018 17s2.316-4.23 7.718-4.23v3.384L20 11.077Z"/><path d="M12.506 5.557a.5.5 0 0 0-.27.443v2.945c-4.022.167-6.106 2.084-6.998 4.04-.932 2.043-.717 4.066-.717 4.066a.5.5 0 0 0 .936.19s2.05-3.6 6.78-3.878v2.791a.5.5 0 0 0 .784.41l7.266-5.078a.5.5 0 0 0 0-.818L13.021 5.59a.5.5 0 0 0-.515-.033m.73 1.404 5.891 4.117-5.89 4.115V12.77a.5.5 0 0 0-.5-.5c-4.2 0-6.158 2.053-7.147 3.33.07-.64.195-1.403.558-2.2.805-1.763 2.493-3.515 6.588-3.515a.5.5 0 0 0 .5-.5z"/></svg>