<svg xmlns="http://www.w3.org/2000/svg" viewBox="0 0 18 18"><path d="M9 2C5.14 2 2 5.14 2 9s3.14 7 7 7 7-3.14 7-7-3.14-7-7-7m0 1c3.32 0 6 2.68 6 6s-2.68 6-6 6-6-2.68-6-6 2.68-6 6-6"/><path d="M9.486 6.969v1.15c-2.938 0-2.67 2.59-2.67 2.59s.8-1.44 2.67-1.44v1.151L12 8.695Z"/><path d="M9.254 6.527a.5.5 0 0 0-.268.442v.779c-1.246.169-2.072.77-2.39 1.455-.366.789-.278 1.557-.278 1.557a.5.5 0 0 0 .936.191s.593-.759 1.732-1.01v.479a.5.5 0 0 0 .784.412l2.513-1.725a.5.5 0 0 0 0-.824L9.77 6.557a.5.5 0 0 0-.516-.03m.732 1.391 1.131.777-1.13.776V9.27a.5.5 0 0 0-.5-.5 3.46 3.46 0 0 0-1.596.392c.293-.298.714-.543 1.595-.543a.5.5 0 0 0 .5-.5z"/></svg>