<svg xmlns="http://www.w3.org/2000/svg" viewBox="0 0 24 24"><g clip-path="url(#a)"><path d="M11 3c-.943 0-1.67-.006-2.328.082s-1.31.314-1.793.797c-.483.482-.708 1.135-.797 1.793C5.994 6.33 6 7.057 6 8v.04c-.52.007-1.105-.004-1.531.056-.728.102-1.445.366-1.938.931s-.659 1.31-.662 2.045c-.002.54.1 1.222.192 1.91l-.03-.015.098.709.408 3c.113.824.193 1.462.348 2.039s.42 1.138.886 1.545h.002c.466.406 1.057.595 1.649.67S6.658 21 7.49 21h9.02c.831 0 1.474.005 2.066-.07s1.185-.264 1.65-.67c.466-.406.733-.966.887-1.543s.236-1.217.348-2.041v-.002l.41-2.998c.144-1.057.263-1.869.26-2.604s-.17-1.48-.662-2.045c-.493-.564-1.21-.829-1.938-.931-.426-.06-1.01-.049-1.531-.057V8c0-.943.006-1.67-.082-2.328s-.314-1.31-.797-1.793c-.482-.483-1.135-.708-1.793-.797C14.67 2.994 13.943 3 13 3Zm0 2h2c.943 0 1.63.006 2.06.064.432.058.543.125.647.229s.17.215.229.646S16 7.057 16 8H8c0-.943.006-1.63.064-2.06.058-.432.125-.543.229-.647s.215-.17.646-.229S10.057 5 11 5m-3.918 5h9.836c1.067 0 1.846.007 2.334.076s.604.145.709.266c.105.12.168.247.17.74s-.096 1.266-.24 2.322l-.41 3v.002c-.113.825-.2 1.423-.3 1.793-.099.371-.17.468-.269.555-.1.087-.207.145-.588.193-.38.049-.983.053-1.814.053H7.49c-.832 0-1.435-.004-1.816-.053-.381-.048-.487-.106-.586-.193-.1-.087-.172-.186-.272-.557-.099-.37-.186-.967-.298-1.79l-.313-2.292.004-.002-1.809-.95.272-.517 1.537 1.467-.098-.709c-.145-1.056-.244-1.83-.242-2.322.002-.493.065-.62.17-.74s.219-.197.707-.266S6.016 10 7.082 10"/></g><defs><clipPath id="a"><path d="M0 0h24v24H0z"/></clipPath></defs></svg>