<svg xmlns="http://www.w3.org/2000/svg" width="32" height="32" viewBox="0 0 32 32"><path d="M16 0C7.163 0 0 7.163 0 16s7.163 16 16 16 16-7.163 16-16S24.837 0 16 0zm-.064 4a11.937 11.937 0 0 1 11.939 11.936c.001 6.593-5.344 11.937-11.936 11.939C9.346 27.876 4.001 22.531 4 15.939 4 9.346 9.343 4.001 15.936 4zm-4.723 5.11a.123.123 0 0 0-.125.12v5.797l3.607-2.086v-.931a.123.123 0 0 1 .12-.127h1.689l3.236-1.854a6 6 0 0 0-.527-.29 7 7 0 0 0-3.027-.63zm10.91.019L17.15 12a1.8 1.8 0 0 1 .815.521 2.42 2.42 0 0 1 .562 1.674q0 .233-.037.463l5.815-3.345zm-.242 4.053-3.578 2.07a1.7 1.7 0 0 1-.319.432 2.06 2.06 0 0 1-1.297.513l-5.601 3.225v4.455l.105-.06 1.692-.977 1.808-1.043v-2.688a.123.123 0 0 1 .123-.123h1.297q2.733 0 4.3-1.308 1.565-1.31 1.56-3.502a5.4 5.4 0 0 0-.09-.994zm-7.174.234-7.12 4.107 2.161 2.184h.008l6.094-3.51h-1.018a.123.123 0 0 1-.125-.119z"/></svg>