<svg xmlns="http://www.w3.org/2000/svg" width="32" height="32" viewBox="0 0 32 32"><path d="M16 0C7.163 0 0 7.163 0 16s7.163 16 16 16 16-7.163 16-16S24.837 0 16 0zm-2.27 5.5h.112v.002c.08.001.125.006.125.006l-.71 1.14c.092-.055 1.617-.994 3.868-.994 1.634 0 3.65.498 5.773 2.192-.944-.11-1.851-.149-1.851-.149a4 4 0 0 1 .223.102l.134.068c1.3.666 5.655 3.4 5.035 9.867-.236-.294-.688-.847-.724-.902.018.147.78 4.456-3.74 7.9.163-.626.289-1.546.289-1.546s-1.652 2.835-5.047 3.314h-.02c.618-.571 1-1.068 1-1.068s-1.09.756-3.142.756c-.962 0-2.142-.168-3.541-.665a5.8 5.8 0 0 0 1.38.166c3.052 0 5.52-2.32 5.52-5.193 0-1.62-.78-3.075-2.033-4.033 0 0-.636.83-.98 1.29-.273.387-.51.774-.456 1.216.073.478-.07.956-.343 1.306-.217.257-.907.81-1.307 1.215-.272.258-.655.315-.945.315-.127 0-.237-.02-.327-.02h-.054c-.218 0-.308.055-.617.332-.072.073-.237.112-.418.112-.51 0-1.271-.24-1.58-.35-.417-.166-.89-1.658-.926-2.008-.035-.35.726-1.528.799-1.86.072-.331.398-3.04.435-3.353s.019-.534-.236-.957c-.181-.314-.181-.626 0-1.289-.835-.552-4.648-3.407-4.848-3.572-.109-.092-.072-.149-.072-.149s.037-.054.164-.035l.018.004.085.03a250 250 0 0 1 4.09 1.476c-.595-1.874.417-3.103.707-3.406l.055-.057q.019-.018.02-.017s.235.939.49 1.584c.824-2.507 2.895-2.759 3.595-2.77zm1.053 1.61s-2.489 3.793-2.797 3.867-.525-.313-.525-.313-.655 1.731-.836 2.357c-.182.626.035 1.215.2 1.51.18.295.563 1.03.036 1.785.073-.33-.254-.847-.49-1.16-.09.81-.327 2.746-.4 3.059-.036.22-.162.459-.381.883-.108.22-.327.609-.381.793.072.332.344 1.122.525 1.361a6 6 0 0 0 .928.24c.144 0 .326-.072.58-.312.472-.442.78-.682.871-1.162.091-.46.056-1.177.274-1.38.2-.202.634-.294.978-.202-.272 0-.58.128-.58.128s.528-.092.727.295c.2.386.036.608-.291.828-.272.184-1.07 1.033-1.342 1.4h.543q.327 0 .435-.11c.182-.185.418-.387.635-.59.22-.202.529-.479.602-.57a1.2 1.2 0 0 0 .199-.794v-.035c-.2-.792-.98-1.216-1.234-1.197-.291.036-.692.092-.819.184a1.5 1.5 0 0 1 .89-.645c.273-.792.854-2.413.981-2.523.073-.055.254-.11.563-.202.182-.038.436-.111.472-.148.032-.048.189-.414.36-.82l.146-.354.348-.834c-.019-.129-.383-1.067-.764-1.969-.926.681-1.924.497-1.924.497s.707-.204 1.434-1.29c.708-1.086.037-2.578.037-2.578zm-.162 1.122s.162.743-.25 1.243c-.45.53-.846.587-.932.593h-.015zm1.469 1.235a4 4 0 0 1-.381.531c.272.682.98 2.47.98 2.56 0 .112-.343 1.014-.38 1.051-.037.02-.455.055-.618.055-.182.441-.363.866-.4.922-.054.073-.217.129-.562.22-.181.057-.454.13-.49.167-.092.11-.582 1.417-.909 2.338a2 2 0 0 1 .908.054c.708-1.363 1.27-2.097 1.416-2.097.145-.02 1.871.24 2.543-1.4.553-1.372-.039-2.572-.256-2.942l-.048-.08-.024-.035c.036.019 1.49.7 1.852 2.91a7.25 7.25 0 0 1 1.49 3.664c0 .092.145.222.236.332.163.166.326.33.326.496 0 .442-.037.884-.109 1.308-.037.147-.216.257-.398.35-.11.073-.273.166-.291.22-.4 1.456-1.307 2.745-2.487 3.665a7.55 7.55 0 0 0 4.23-6.795c0-3.885-2.905-7.09-6.628-7.494zm-2.488 1.928s-.235.772-.397 1.158c.632.128.814.88.47 1.285-.343.385-1.213.935-1.72 1.064-.108.422-1.03.239-.685-1.101 0 0 .16.643.324.588.163-.056 2.008-2.994 2.008-2.994zm6.173 2.71a8.8 8.8 0 0 1-.144 2.415c1.267 2.266.539 5.1-1.043 6.9l-.154.168.222-.18a6.87 6.87 0 0 0 2.088-3.09l.084-.283c.037-.147.2-.238.383-.33.127-.074.29-.167.309-.223q.11-.633.109-1.27c0-.091-.147-.239-.274-.349-.145-.147-.29-.293-.308-.441a6.8 6.8 0 0 0-1.272-3.317zm-9.341 4.588-.145.73s.287-.037.287.29c0 .256-.286.601-.521.619-.234.018-.326-.272-.272-.436.054-.146.65-1.203.65-1.203zm2.453.157a.5.5 0 0 0-.139.01c-.145.037-.18.274-.197.404l-.006.06c-.01.144-.015.411-.106.617l-.052.094c.037-.038.291-.31.418-.44.18-.164.433-.22.433-.46 0-.194-.193-.273-.351-.285z"/></svg>