<svg xmlns="http://www.w3.org/2000/svg" width="32" height="32" viewBox="0 0 32 32"><path d="M16 0C7.163 0 0 7.163 0 16s7.163 16 16 16 16-7.163 16-16S24.837 0 16 0zm-4.727 4.02c.166-.006.302-.001.393.001h.045c.22 0 1.011.111 1.935.64.891.505 1.693 1.132 2.31 2.056l.056.088.064-.164c.583-.825 1.298-1.486 2.123-1.948.935-.528 1.727-.648 1.947-.648h.045c.363-.011 1.463-.056 2.178.637.264.264.582.726.582 1.496 0 .957-.319 1.66-.957 2.09-.506.33-1.076.407-1.527.43-.396.01-1.035.02-1.717.02-1.1 0-2.343 0-2.75-.011-.154 0-1.64-.021-2.904-.021-.682 0-1.33 0-1.715-.022-.451-.022-1.023-.089-1.53-.43-.637-.429-.958-1.132-.947-2.078 0-.429.1-1.034.584-1.496.537-.52 1.29-.625 1.785-.64zm.163 1.2q-.81 0-1.123.298c-.144.143-.21.34-.21.627 0 1.045.495 1.276 1.342 1.32.715.033 2.376.023 3.465.012-.484-.748-1.089-1.332-1.793-1.739-.78-.45-1.374-.517-1.418-.517zm8.722.034c-.044 0-.639.066-1.42.517a5.2 5.2 0 0 0-1.781 1.739c1.078.01 2.738.021 3.453-.012.847-.044 1.344-.275 1.344-1.32 0-.286-.078-.484-.22-.627-.232-.22-.673-.32-1.3-.297zM5 9.52h5.873v1.454h.727v.724h.726v-.724h.736v-.727H11.6V9.52h2.2v1.454h.725v.736h-.724v.726h.736v-.726h.727v-.736H16v.736h.736V9.52h.727v1.454h1.474V9.52h.725v1.454h.738v.724h.727v-.724h.736v-.727H20.4V9.52H27v5.094h-5.127v-1.463h-.736v-.726H20.4v-.715h-.738v-.736h-.724v1.463H20.4V13.9h.737v.737H20.4V13.9h-.738v.737h-.724v-1.475h-.739v1.465h-.736v-1.465h-.727v1.465H16v-1.465h.736v-.725H16v-.726h-.736v.726h-.727V13.9h.727v.727h-.727V13.9h-.736v.727h-.727v-1.465h-.736v-.725H11.6V13.9h.738v.737H11.6V13.9h-.727v.737H5zm8.074 3.641h.727v-.725h-.727zM11.6 11.7h-.737v-.715h-.736v.727h.746v.715h.727zm-5.864-1.451V13.9H9.4v-3.652zm16.864 0V13.9h3.664v-3.652zm-16.137.727h2.2v2.187h-2.2zm6.6.01v.714h.738v-.715zm10.275 0h2.2v2.189h-2.2zm-13.211 1.453V13.9h.736v-1.463zm5.146 2.914h1.463v2.2h.727v1.464h1.474v.724H18.2v.739h.738v.724h.725v-.724h2.201v-.739h-2.2v-1.463h-.726l-.738.012v-.736h.738V16.09h.725v1.463h.738v-.739h.737v-.724H20.4v-.727h.737v.727h.726v.736h.737v.727h1.462v-2.19h.739v2.19h-.727v.736h.727v1.451h-1.463v-.724H22.6v2.914h-2.2v3.652h3.663V21.93h.738v4.388h-5.863v-.736h.724v-.727h-.724v-.724h-.739v.724h-.724v1.463h-.739v-1.463h.727v-.724h.736v-.738h.738v-.725H18.2v-.738h.738v-.727H18.2v-.724h-.736v-.739h-1.451v1.453h-.739v-.726h-2.199v1.463h.727v-.727h.736v.727h.736v1.474h-.736v.727H16v-.738h.736v-2.19h.727v2.19h-.727v.738H16v2.187h-.736v-1.463h-.727v-.724h-1.475V21.93h-.724v4.388H7.199v-5.115h.739v-.724h.724v.724h1.465v-.724h.736v.724h1.475v-.736h-1.465v-1.463h.727v-.727h-.737v.727h-.726v-.727H9.4v-.724h-.738v1.463h-.736v1.463h-.727v-3.653h.727V16.1h.736v-.727h1.465v.727h.736v.726h1.475v.727h.725v1.463h.738v.724h1.463v-2.187h-.727v.724h-.736v-.724h.724V16.09h.748zm-7.347 1.474v.727h.736v-.727zm1.474.727h.737v-.727H9.4zm2.2.724h.726v-.724H11.6zm11-.724h-.737v-.727h-.726v2.19h.726v-.739h.737zm-5.864 0h-.724v.724h.724zM7.2 15.363h.739v.727H7.2zm3.664 0h2.2v.727h-2.2zm6.6 0h.736v.727h-.736zm5.137 0h.738v.727H22.6zm-11 3.653v.724h.738v-.724zm11.738 1.463H24.8v.736h-1.463zm-15.4 1.45v3.653H11.6V21.93zm.724.739h2.201v2.187h-2.2zm5.139 0v.725h.736v-.725zm7.336 0h2.2v2.187h-2.2zm-8.074 2.187h.738v1.463h-.739z"/></svg>