<svg xmlns="http://www.w3.org/2000/svg" width="32" height="32" viewBox="0 0 32 32"><path d="M16 0C7.163 0 0 7.163 0 16s7.163 16 16 16 16-7.163 16-16S24.837 0 16 0zm-.854 6.006a.24.24 0 0 1 .172.121.26.26 0 0 1-.062.303A6.7 6.7 0 0 0 13.5 8.672a4.24 4.24 0 0 0-.307 2.48 4.03 4.03 0 0 0 1.188 2.121 14.5 14.5 0 0 0 2.375 1.641 10.8 10.8 0 0 1 2.625 1.941 5.47 5.47 0 0 1 1.312 3.15 5.18 5.18 0 0 1-.818 3.214 7.8 7.8 0 0 1-2.375 2.12.25.25 0 0 1-.203.061.24.24 0 0 1-.174-.12.207.207 0 0 1 .064-.303A6.1 6.1 0 0 0 19 22.795a4.22 4.22 0 0 0 .313-2.608 3.6 3.6 0 0 0-1.188-2.181 13.3 13.3 0 0 0-2.375-1.576 10.8 10.8 0 0 1-2.687-1.877 6 6 0 0 1-1-1.455 5.3 5.3 0 0 1-.438-1.698 5 5 0 0 1 .88-3.273 5.6 5.6 0 0 1 2.438-2.06.24.24 0 0 1 .203-.061zm1.916.055a.28.28 0 0 0 .083.363.28.28 0 0 1-.082-.363zm1.2.478a6 6 0 0 1 .218.149 6 6 0 0 0-.218-.149zM18.5 8a5 5 0 0 1 .125.23A5 5 0 0 0 18.5 8zm.143.262a5 5 0 0 1 .101.215 5 5 0 0 0-.101-.215zm.226.523a5 5 0 0 1 .078.229 5 5 0 0 1 .065.22 5 5 0 0 0-.065-.22 5 5 0 0 0-.078-.229zm.158.51a5 5 0 0 1 .05.21 5 5 0 0 0-.05-.21zm.11.564.021.182zm.029.274a5 5 0 0 1 .014.234 5 5 0 0 0-.014-.234zm.012.576a5 5 0 0 1-.012.223 5 5 0 0 0 .012-.223zm-.012.232a5 5 0 0 1-.027.25 5 5 0 0 0 .027-.25zm-.033.286a5 5 0 0 1-.033.214 5 5 0 0 0 .033-.214zm-.108.55a5 5 0 0 1-.062.229 5 5 0 0 0 .062-.229zm-.068.25a5 5 0 0 1-.07.21 5 5 0 0 0 .07-.21zm-.117.332-.055.133zm-.082.202a5 5 0 0 1-.086.183 5 5 0 0 0 .086-.183zm-.145.298-.074.139zm-.11.202a5 5 0 0 1-.128.212 5 5 0 0 0 .129-.212zm-.204.543.008.084zm.139.396a.7.7 0 0 0 .26.21.7.7 0 0 1-.26-.21zm.937.182a.7.7 0 0 1-.314.097.7.7 0 0 0 .314-.097zm-.662.037a.7.7 0 0 0 .318.062.7.7 0 0 1-.318-.062zm-5.81 3.222zm1.214.084.016.028zm.072.252v.034zm-.056.258-.016.027zm-.082.123a5 5 0 0 0-.457.912 5 5 0 0 1 .457-.912zm-1.998.96c-.05.193-.092.384-.123.562-.083.475-.106.864-.13 1.023a4.5 4.5 0 0 0 .048.643 4.5 4.5 0 0 0 .14.63 4.5 4.5 0 0 1-.187-1.273c.023-.16.046-.548.129-1.023.03-.178.072-.369.123-.563zm1.44.28a5 5 0 0 0-.167.67 5 5 0 0 1 .166-.67zm-.212 1.051a5 5 0 0 0-.013.66 5 5 0 0 1 .013-.66zm.012 1.035a5 5 0 0 0 .133.676 5 5 0 0 1-.133-.676zm.22 1.014a5 5 0 0 0 .413.932 5 5 0 0 1-.412-.932zm-1.025.629a4 4 0 0 0 .334.516 4 4 0 0 0 .416.455 3.7 3.7 0 0 1-.75-.971zm1.53 1.623a6 6 0 0 0 .199.135 6 6 0 0 1-.2-.135zm1.345.559v.002l-.01.005z"/></svg>