<svg xmlns="http://www.w3.org/2000/svg" width="32" height="32" viewBox="0 0 32 32"><path d="M16 0C7.163 0 0 7.163 0 16s7.163 16 16 16 16-7.163 16-16S24.837 0 16 0zm0 9.5c7.446 0 10.797 5.995 10.936 6.25l.005.012.004.006a.5.5 0 0 1 .051.187q.003.012.002.024v.023l.002.014v.007a.5.5 0 0 1-.062.229c-.14.255-3.491 6.248-10.936 6.248S5.203 16.507 5.064 16.252A.5.5 0 0 1 5 16.023v-.044l.002-.024a.5.5 0 0 1 .053-.19l.002-.003.005-.012C5.203 15.494 8.555 9.5 16 9.5zm-.662 1.055a.3.3 0 0 1-.05.011 5.4 5.4 0 0 0-2.43.971.272.272 0 0 1-.417-.14.28.28 0 0 1 .102-.31l.072-.052C8.785 12.212 6.672 15.126 6.11 16c.557.867 2.642 3.74 6.41 4.936a6.04 6.04 0 0 1-2.374-3.772.594.594 0 0 1-.381-.625.594.594 0 0 1 .51-.525.59.59 0 0 1 .622.377.6.6 0 0 1-.21.703c.43 2.21 2.148 3.927 4.332 4.33a12 12 0 0 0 1.966 0 5.4 5.4 0 0 0 2.246-.992.27.27 0 0 1 .272-.036.278.278 0 0 1 .053.479l-.088.064c3.778-1.193 5.866-4.071 6.424-4.939-.563-.874-2.678-3.793-6.514-4.967a6.07 6.07 0 0 1 2.436 3.63.59.59 0 0 1 .457.57.584.584 0 0 1-1.102.296.6.6 0 0 1 .12-.724c-.495-2.223-2.323-3.939-4.575-4.239a.3.3 0 0 1-.05-.011 12 12 0 0 0-1.325 0zm.662.572c2.658 0 4.82 2.193 4.82 4.89 0 2.698-2.163 4.893-4.82 4.893s-4.82-2.195-4.82-4.892 2.162-4.891 4.82-4.891zm0 .55c-2.357 0-4.277 1.948-4.277 4.34 0 2.394 1.919 4.34 4.277 4.34s4.275-1.946 4.275-4.34c0-2.392-1.918-4.34-4.275-4.34zm-4.143.096a.27.27 0 0 1 .196.077.28.28 0 0 1 .01.39 5.5 5.5 0 0 0-1.422 2.967.274.274 0 0 1-.27.236.276.276 0 0 1-.27-.316 6.04 6.04 0 0 1 1.567-3.268.27.27 0 0 1 .19-.086zm4.21 1.342q.134.002.269.03c.72.144 1.24.784 1.24 1.529v.002a1.56 1.56 0 0 1-.69 1.299l.428 2.627c.034.209-.107.378-.316.378h-1.92a.315.315 0 0 1-.316-.378l.427-2.627a1.57 1.57 0 0 1-.574-1.895 1.54 1.54 0 0 1 1.451-.965zm5.585 3.293a.275.275 0 0 1 .272.309 6.04 6.04 0 0 1-1.512 3.369.27.27 0 0 1-.26.086.276.276 0 1 1-.142-.46 5.5 5.5 0 0 0 1.373-3.06.274.274 0 0 1 .27-.244z"/></svg>