<svg xmlns="http://www.w3.org/2000/svg" width="32" height="32" viewBox="0 0 32 32"><path d="M16 0C7.163 0 0 7.163 0 16s7.163 16 16 16 16-7.163 16-16S24.837 0 16 0zm.06 6.502a2.5 2.5 0 0 1 1.663.547 3.6 3.6 0 0 1 1.056 1.46l1.475 3.97h2.719a.86.86 0 0 1 .601.242c.16.156.25.368.248.59a.84.84 0 0 1-.845.806h-2.094l.295.826h1.84a.82.82 0 0 1 .572.235c.15.148.236.35.236.56a.85.85 0 0 1-.85.836H21.8l1.972 5.309v.013a5.5 5.5 0 0 1 .229.926 1.6 1.6 0 0 1-.225.846 3 3 0 0 1-.615.598 1.73 1.73 0 0 1-.883.218 1.81 1.81 0 0 1-1.84-1.24l-.777-2.322h-7.144l-.776 2.27a1.8 1.8 0 0 1-1.84 1.304 2.04 2.04 0 0 1-1.34-.482A1.72 1.72 0 0 1 8 22.822c.011-.323.078-.64.201-.94l2.006-5.316h-1.18a.83.83 0 0 1-.836-.824.81.81 0 0 1 .819-.799h1.84l.314-.804H9.111a.836.836 0 0 1-.845-.828.81.81 0 0 1 .816-.797h2.703l1.543-4.004a3.6 3.6 0 0 1 1.06-1.461 2.57 2.57 0 0 1 1.673-.547zm-.015 3.771-2.385 7.114h4.815z"/></svg>