<svg xmlns="http://www.w3.org/2000/svg" width="32" height="32" viewBox="0 0 32 32"><path d="M16 0C7.163 0 0 7.163 0 16s7.163 16 16 16 16-7.163 16-16S24.837 0 16 0zm-4.441 5c.121.006.231.053.355.088 1.352.433 2.777.67 4.113 1.146.19.09.41.105.418.358-1.113.177-2.195.181-3.316.267-1.2.081-2.365.198-3.566.04-.376-.03-.757-.123-1.131-.11.405.976.852 1.935 1.275 2.904.055.152.192.137.324.186.344.079.585.28.895.432.353.18.766.273 1.156.343a5 5 0 0 0 .498.07l.041.1c-.747.203-1.493.214-2.26.25a4 4 0 0 0 .287.739c3.548.006 7.097-.005 10.645.005.234-.465.43-.949.654-1.418-.655.227-1.308.441-1.994.557a3 3 0 0 1-.348.016q.244-.149.5-.272a15 15 0 0 0 2.155-1.23c.196-.133.242-.328.338-.53.324-.718.64-1.439.966-2.156.941.767 1.77 1.668 2.442 2.678-.441-.182-.875-.224-1.348-.182l-.79 1.735c-.156.347-.32.689-.475 1.037l-.493 1.076c-.117.262-.243.52-.351.785-.134.253-.241.52-.365.777-.12.26-.232.524-.354.782q-.107.219-.207.441c2.126.01 4.251.002 6.377.006q.003.307-.01.611c-2.209.004-4.42-.002-6.63.004-.118.213-.217.436-.317.656a100 100 0 0 1-.537 1.184l-.268.59q-.232.498-.457 1c-.157.34-.308.683-.468 1.023l-.577 1.258c-.144.307-.282.619-.422.928-.233.522-.476 1.04-.714 1.56-.222.513-.464 1.02-.694 1.528q-.394.87-.797 1.738l-.318-.002c-.298-.663-.605-1.322-.9-1.986-.21-.472-.431-.94-.641-1.41-.191-.43-.39-.856-.582-1.286l-.465-1.023c-.21-.482-.436-.958-.65-1.44-.191-.423-.386-.846-.574-1.271l-.225-.494c-.131-.298-.27-.593-.404-.89-.096-.215-.197-.425-.293-.641l-.217-.48a15 15 0 0 0-.25-.544c-2.196-.005-4.393.006-6.59-.004v-.61c2.102-.003 4.204.004 6.305-.005a9 9 0 0 0-.223-.525c-.124-.264-.24-.53-.36-.795-.106-.233-.21-.47-.32-.703-.15-.322-.291-.65-.441-.973-.18-.389-.346-.785-.533-1.17-1 .162-1.935.54-2.73 1.166l-.018.012c-.342.247-.647.57-.94.875-.233.258-.46.528-.65.82a11.8 11.8 0 0 1 1.95-5.219c.452.395 1.006.65 1.62.618-.26-.574-.535-1.141-.775-1.721.467-.55.99-1.05 1.547-1.51a12.5 12.5 0 0 1 3-1.78.5.5 0 0 1 .127-.009zm15.572 6.588a12 12 0 0 1 .531 1.642 10.5 10.5 0 0 0-1.867-.138c-.477-.008-.963.044-1.438-.002l-.039-.162c.162-.216.367-.382.594-.526.666-.419 1.434-.724 2.219-.814zM11.502 13.69l.937 2.254h7.018l1.03-2.254zm1.268 2.842a44 44 0 0 0 .289.67c.092.211.19.419.283.629l.213.488.228.5.188.42.285.645c.168.37.33.742.496 1.113.2.439.386.883.59 1.32.248.5.427 1.022.652 1.528.225-.608.47-1.201.742-1.791.17-.372.33-.747.5-1.12.133-.294.26-.592.391-.888.13-.293.266-.585.39-.879l.13-.28.218-.492.223-.5q.172-.38.34-.761.137-.3.258-.602-3.206-.004-6.416 0z"/></svg>