<svg xmlns="http://www.w3.org/2000/svg" viewBox="0 0 32 32"><path d="M16 0C7.163 0 0 7.163 0 16s7.163 16 16 16 16-7.163 16-16S24.837 0 16 0zm3.479 5.258c1.09 1.074 2.17 2.16 3.25 3.246-.022 3.925 0 7.85-.01 11.775a6.65 6.65 0 0 1-1.899 4.405 6.7 6.7 0 0 1-8.502.91c-1.479-.973-2.55-2.553-2.879-4.295-.285-1.38-.09-2.845.502-4.12a6.75 6.75 0 0 1 3.268-3.253c1.885-.888 4.18-.814 6.006.191a291 291 0 0 0 0 4.483c-.298-.617-.741-1.17-1.326-1.536-1.157-.747-2.764-.712-3.881.098-1.23.846-1.787 2.526-1.297 3.936.437 1.39 1.82 2.412 3.281 2.396 1.406.035 2.765-.885 3.268-2.195.32-.743.239-1.564.246-2.35.006-4.054-.01-8.109-.008-12.164.001-.509.01-1.018-.02-1.527zm-6.987.058c-.014 2.716.01 5.433-.01 8.149 2.05-1.13 4.63-1.18 6.737-.168q-.003.262-.002.523c-1.682-.903-3.75-1.017-5.543-.388-2.062.712-3.706 2.458-4.35 4.537.004-3.118 0-6.235.004-9.352-.019-.147.117-.236.197-.336a437 437 0 0 0 2.967-2.965z"/></svg>