<svg xmlns="http://www.w3.org/2000/svg" width="32" height="32" viewBox="0 0 32 32"><path d="M16 0C7.163 0 0 7.163 0 16s7.163 16 16 16 16-7.163 16-16S24.837 0 16 0zm-.023 6a1.037 1.037 0 0 1 1.015 1.266l6.11 3.468a1.05 1.05 0 0 1 .853-.435c.577 0 1.045.46 1.045 1.027 0 .48-.335.885-.787.998l-.018 7.022c.461.106.805.513.805 1 0 .568-.468 1.027-1.045 1.027-.308 0-.584-.13-.775-.34l-6.239 3.543q.079.185.08.397c0 .568-.467 1.027-1.044 1.027s-1.045-.46-1.045-1.027a1 1 0 0 1 .076-.385L8.797 21.06c-.19.194-.457.312-.752.312-.577 0-1.045-.46-1.045-1.027a1.03 1.03 0 0 1 .783-.996v-7.028A1.03 1.03 0 0 1 7 11.326 1.04 1.04 0 0 1 8.045 10.3a1.05 1.05 0 0 1 .844.422l6.072-3.45A1.037 1.037 0 0 1 15.977 6zm.804 1.684v.002c-.139.164-.33.284-.547.34l-.015 6.054a1.22 1.22 0 0 1 1.015 1.195c0 .151-.028.298-.08.432l6.073 3.902c.134-.129.304-.222.494-.265l.017-7.012a1.033 1.033 0 0 1-.816-1.16zm-1.605.005-6.102 3.465a1.033 1.033 0 0 1-.814 1.18v7.006a1.05 1.05 0 0 1 .543.299l6.006-4.045a1.22 1.22 0 0 1 .933-1.506l.018-6.055a1.05 1.05 0 0 1-.584-.344zm-.155 8.327-5.976 4.027a1 1 0 0 1-.006.615l6.242 3.545c.184-.162.43-.26.696-.26a1.05 1.05 0 0 1 .685.254l6.287-3.572a1 1 0 0 1 .022-.621l-6.067-3.9a1.246 1.246 0 0 1-1.883-.088z"/></svg>