<svg xmlns="http://www.w3.org/2000/svg" width="32" height="32" viewBox="0 0 32 32"><path d="M16 0C7.163 0 0 7.163 0 16s7.163 16 16 16 16-7.163 16-16S24.837 0 16 0zm-.59 6 1.723.43-.688 2.79c.453.106.92.21 1.373.327l.674-2.777 1.723.43-.7 2.841c2.164.757 3.757 1.891 3.446 3.99-.09.64-.31 1.278-.764 1.76-.389.418-.996.64-1.515.809a6.5 6.5 0 0 1-1.93.34c-.44 0-.869-.014-1.309-.053-.712-.053-1.436-.118-2.136-.274-.22-.052-.43-.091-.623-.144l-.946 3.82-.556 2.086-.7 2.855-1.722-.43.713-2.88c-.402-.104-.818-.221-1.233-.326L8 21.034l.855-1.97s1.27.339 1.258.313c.492.117.698-.208.79-.416l.97-3.912.453-1.813.52-2.086c.026-.365-.103-.834-.803-1.004.026-.013-1.258-.314-1.258-.314l.455-1.85 2.37.6c.362.09.726.169 1.1.26zm.557 5.254-.856 3.469c.972.248 3.976 1.239 4.455-.717.506-2.047-2.627-2.491-3.6-2.752zm5.635 5.775c.894.795 1.32 2.086.738 3.742-.92 2.686-3.135 2.908-6.063 2.348L15.564 26l-1.709-.43.66-2.752.026-.09.52-2.113c1.528.34 3.586.562 3.974-1.03.208-.846-.194-1.46-.842-1.903l.674-.04a10 10 0 0 0 1.205-.142v-.002c.48-.078 1.063-.271 1.477-.441.013-.013.04-.015.053-.028z"/></svg>