<svg xmlns="http://www.w3.org/2000/svg" viewBox="0 0 32 32"><path d="M16 0C7.163 0 0 7.163 0 16s7.163 16 16 16 16-7.163 16-16S24.837 0 16 0zm-.96 6 1.728.432-.696 2.783c.464.106.931.21 1.385.324l.69-2.764 1.728.43-.707 2.84c2.183.752 3.779 1.879 3.465 3.975-.227 1.535-1.077 2.279-2.207 2.539 1.55.807 2.34 2.045 1.588 4.191-.933 2.666-3.149 2.89-6.096 2.332l-.717 2.867-1.728-.43.707-2.828q-.671-.167-1.38-.357l-.706 2.84-1.729-.43.717-2.873-1.232-.316-2.25-.563.857-1.976s1.276.337 1.258.312c.49.121.707-.198.793-.41l1.129-4.531.183.045a2 2 0 0 0-.18-.059l.805-3.234c.021-.368-.104-.831-.804-1.006.027-.018-1.256-.313-1.256-.313l.46-1.845 2.384.595-.002.008q.538.134 1.103.262zm.567 5.256-.86 3.45c.974.242 3.983 1.235 4.47-.718.508-2.037-2.634-2.49-3.61-2.732zm10.832.931a1.8 1.8 0 0 1 .668.11l-.511 2.22a1.2 1.2 0 0 0 .35.03.9.9 0 0 0 .32-.084.7.7 0 0 0 .254-.205.85.85 0 0 0 .156-.346.82.82 0 0 0-.018-.5.77.77 0 0 0-.314-.353l.144-.631a1.3 1.3 0 0 1 .65.668 1.4 1.4 0 0 1 .106.45q.014.24-.04.487a1.6 1.6 0 0 1-.263.604 1.34 1.34 0 0 1-1.003.56 2.1 2.1 0 0 1-1.254-.295 1.6 1.6 0 0 1-.442-.41 1.4 1.4 0 0 1-.24-.539 1.4 1.4 0 0 1 .01-.639 1.4 1.4 0 0 1 .297-.603q.215-.25.503-.38a1.6 1.6 0 0 1 .627-.143zm-.244.67a.77.77 0 0 0-.52.288.82.82 0 0 0-.15.625.75.75 0 0 0 .114.285.9.9 0 0 0 .515.363l.362-1.557a1.2 1.2 0 0 0-.32-.004zm-1.535 2.065.643.146-.053.139a1 1 0 0 0-.043.143.75.75 0 0 0 .133.64 1 1 0 0 0 .283.25 1.4 1.4 0 0 0 .432.166l1.437.332-.154.666-3.024-.697.147-.625.584.135.002-.012a.7.7 0 0 1-.213-.17 1.14 1.14 0 0 1-.26-.555.8.8 0 0 1 .01-.31 2 2 0 0 1 .043-.16zm-10.347 1.525-.95 3.807c1.172.29 4.786 1.452 5.319-.695h.002c.558-2.238-3.202-2.819-4.372-3.112zm10.722 1.12a2 2 0 0 1 .66.044 2 2 0 0 1 .62.25 1.45 1.45 0 0 1 .433.414 1.4 1.4 0 0 1 .22.555 1.7 1.7 0 0 1-.029.676 1.7 1.7 0 0 1-.27.617 1.4 1.4 0 0 1-.44.404 1.45 1.45 0 0 1-.57.182 2 2 0 0 1-.669-.047 2 2 0 0 1-.613-.25 1.5 1.5 0 0 1-.434-.414 1.4 1.4 0 0 1-.22-.555 1.7 1.7 0 0 1 .03-.673 1.7 1.7 0 0 1 .268-.62q.186-.255.442-.402a1.45 1.45 0 0 1 .572-.182zm.11.671a1 1 0 0 0-.377.076.79.79 0 0 0-.489.577.79.79 0 0 0 .186.732 1.1 1.1 0 0 0 .305.234 1.6 1.6 0 0 0 .775.178 1.1 1.1 0 0 0 .379-.074.79.79 0 0 0 .488-.576.79.79 0 0 0-.187-.735 1.1 1.1 0 0 0-.305-.232 1.6 1.6 0 0 0-.775-.18zm-.745 2.713-.154.666a.64.64 0 0 0-.475.127.75.75 0 0 0-.25.434 1 1 0 0 0-.019.285.7.7 0 0 0 .102.305.9.9 0 0 0 .285.283 1.6 1.6 0 0 0 .539.21q.187.043.384.042a1 1 0 0 0 .366-.065.73.73 0 0 0 .47-.539.7.7 0 0 0-.07-.525q-.138-.231-.455-.354l.154-.666q.57.23.801.657.231.425.096 1.01a1.6 1.6 0 0 1-.266.6 1.37 1.37 0 0 1-.992.554q-.309.03-.643-.047a2.2 2.2 0 0 1-.615-.242 1.5 1.5 0 0 1-.453-.4 1.3 1.3 0 0 1-.236-.546 1.6 1.6 0 0 1 .023-.68 2 2 0 0 1 .184-.484 1.4 1.4 0 0 1 .299-.375q.177-.153.408-.22a1.2 1.2 0 0 1 .517-.03z"/></svg>