<svg xmlns="http://www.w3.org/2000/svg" width="32" height="32" viewBox="0 0 32 32"><path d="M16 0C7.163 0 0 7.163 0 16s7.163 16 16 16 16-7.163 16-16S24.837 0 16 0zm-4.668 5.75h3.629l-.762 4.293h7.502l-9.05 8.836-.497 2.814s6.432.591 8.37-2.613c1.968-3.266-.17-5.646-.17-5.646l2.542-2.489s2.804 1.897 1.936 6.797c-.636 3.624-4.99 6.828-8.725 6.953-3.72.124-8.107 0-8.107 0l1.162-6.658 5.488-4.945h-4.619zm2.992 4.588-4.06 2.488h5.021l-5.904 5.32-1.117 6.315h5.687l4.465-3.25s-1.69.622-3.193.777c-1.503.14-3.41 0-3.41 0l.574-3.22 8.54-8.43z"/></svg>