<svg xmlns="http://www.w3.org/2000/svg" viewBox="0 0 32 32"><path d="M16 0C7.163 0 0 7.163 0 16s7.163 16 16 16 16-7.163 16-16S24.837 0 16 0zm-.22 7c.797 0 1.45.483 1.732.729v.142c0 .878-.027 3.986-.373 7.12-.331 3.002-.861 6.306-.97 6.97l-.077-.002a4 4 0 0 0-.43.021c-.106-.615-.674-3.986-1.025-7.154-.383-3.449-.54-6.369-.56-6.96h-.003l-.004-.136c.274-.247.912-.73 1.71-.73zm2.435.701c.185-.007.424.015.726.096.691.186 1.226.88 1.471 1.254l-.002.242c-.012 1.338-.438 4.645-1.176 7.125-.645 2.167-2.052 5.052-2.338 5.627a3 3 0 0 0-.425-.068c.119-.731.638-3.987.965-6.954.347-3.148.375-6.27.375-7.154l-.002-.088c.089-.037.22-.073.406-.08zm-5.053.045c.272-.01.483.032.613.07l.002.061c.021.595.179 3.523.563 6.98.35 3.163.915 6.526 1.025 7.166a3 3 0 0 0-.44.112c-.277-.591-1.517-3.272-2.349-5.957-.928-2.995-1.458-5.776-1.57-6.653l-.035-.273c.162-.355.52-.947 1.21-1.262a2.6 2.6 0 0 1 .981-.244zm7.547 1.537c.261-.006.835.04 1.492.463.636.41.965 1.188 1.102 1.606l-.065.248c-.155.602-1.302 3.703-2.537 6.043-1.048 1.982-2.72 4.174-3.086 4.644a3 3 0 0 0-.426-.166c.34-.687 1.698-3.49 2.33-5.619.747-2.506 1.177-5.852 1.19-7.207zm-10.004.246.006.034c.112.884.648 3.688 1.582 6.7.828 2.67 2.052 5.337 2.352 5.975q-.152.065-.297.145c-.365-.422-1.88-2.243-3.274-4.916-1.524-2.924-2.101-4.947-2.35-5.81l-.037-.13q-.056-.199-.091-.336c.077-.366.265-.913.73-1.252a2.17 2.17 0 0 1 1.38-.41zm-2.309 2.073.002.005.038.131c.25.872.835 2.912 2.373 5.862 1.373 2.633 2.865 4.453 3.283 4.941q-.169.114-.32.25a34 34 0 0 1-3.91-3.996c-1.483-1.792-2.505-3.382-3.042-4.723a13 13 0 0 1-.207-.547 1.96 1.96 0 0 1 .23-.927c.342-.62 1.21-.905 1.553-.996zm15.13.08c.258.094.815.342 1.177.836.31.422.41.991.443 1.351l-.12.283c-.235.543-1.66 3.045-3.096 4.828-1.244 1.544-3.115 3.376-3.563 3.811a3 3 0 0 0-.486-.36c.42-.544 2.053-2.699 3.086-4.654 1.176-2.227 2.362-5.35 2.558-6.095zm1.767 2.603a1.54 1.54 0 0 1 .703 1.42c-.062 1.091-1.933 3.256-4.285 5.445a29 29 0 0 1-2.791 2.288 3 3 0 0 0-.342-.44c.456-.441 2.332-2.282 3.584-3.836 1.44-1.786 2.874-4.294 3.131-4.877zm-18.69.043c.564 1.337 1.58 2.9 3.028 4.652a34 34 0 0 0 3.93 4.022 3 3 0 0 0-.3.387 45 45 0 0 1-2.532-2.032c-3.011-2.574-4.66-4.365-4.725-5.496-.05-.863.39-1.35.6-1.533zm9.489 7.926c1.617 0 2.363.98 2.588 1.353-1.225.86-2.223 1.393-2.575 1.393s-1.227-.44-2.603-1.436c.22-.355.962-1.31 2.59-1.31z"/></svg>