<svg xmlns="http://www.w3.org/2000/svg" width="32" height="32" viewBox="0 0 32 32"><path d="M16 0C7.163 0 0 7.163 0 16s7.163 16 16 16 16-7.163 16-16S24.837 0 16 0zm-3.004 7.25c1.751 0 6.082.836 10.192 3.807s2.263 7.146 1.343 7.96c-.919.816-8.106 1.891-8.554 2.635s-.971 3.598-3.211 3.598-3.282-2.27-3.81-3.588c-.529-1.316-1.206-3.548-1.206-6.676 0-3.127 1.35-7.736 5.246-7.736zm3.115 4.025c-.826-.017-1.305.3-.863 1.268q.448.978.723 3.396 5.286-.39 6.343-1.26c1.057-.868-1.361-1.927-3.255-2.665-.948-.369-2.122-.721-2.948-.739zm-4.507 4.254-.137.004c-1.353.101-1.99 2.086-1.848 4.248.143 2.162 1.775 4.004 2.758 4.004s2.438-1.307 2.148-4.13c-.272-2.637-1.52-4.03-2.787-4.122z"/></svg>