<svg xmlns="http://www.w3.org/2000/svg" width="32" height="32" viewBox="0 0 32 32"><path d="M16 0C7.163 0 0 7.163 0 16s7.163 16 16 16 16-7.163 16-16S24.837 0 16 0zm.156 4.002a.25.25 0 0 1 .27.146A31070 31070 0 0 1 26.72 21.895c-.183 0-.36-.06-.535-.088l-9.159-1.827c-.3-.015-.367-.499-.074-.572l3.594-.988a.3.3 0 0 0 .197-.42L15.896 4.39v.008c-.09-.206.083-.375.26-.396zm-.787.426a1 1 0 0 1 .088.154c1.086 3.08 2.2 6.16 3.277 9.24.096.256-.263.468-.44.278-.922-.968-1.802-1.964-2.712-2.932-.147-.132-.359-.046-.455.094L5.682 22.357c-.11.117-.205.295-.389.317-.132 0-.22-.103-.293-.205v-.17q5.192-8.931 10.37-17.871zm-2.752 10.56c.138.024.26.133.215.293-.367 1.276-.755 2.545-1.137 3.813-.058.162.088.308.242.316 4.943.99 9.887 2.016 14.829 3.006.095.015.161.087.234.146v.206l-.14.146H5.88c2.2-2.64 4.393-5.295 6.6-7.92a.3.3 0 0 1 .137-.006z"/></svg>