<svg xmlns="http://www.w3.org/2000/svg" viewBox="0 0 32 32"><path d="M16 0C7.163 0 0 7.163 0 16s7.163 16 16 16 16-7.163 16-16S24.837 0 16 0zm-5.52 8h6.55q1.816 0 3.144.627 1.327.628 2.166 1.715.841 1.087 1.25 2.543A11.5 11.5 0 0 1 24 16a11.5 11.5 0 0 1-.408 3.115q-.41 1.457-1.25 2.543t-2.168 1.715q-1.328.626-3.143.627h-6.549v-7.104H9V14.61h1.48zm2.768 2.285v4.326h4.315v2.285h-4.315v4.819h2.72q1.617 0 2.645-.438 1.029-.436 1.616-1.21.585-.773.794-1.815A11.4 11.4 0 0 0 21.234 16q0-1.21-.21-2.252a4.4 4.4 0 0 0-.795-1.814q-.587-.774-1.616-1.211t-2.644-.438z"/></svg>