<svg xmlns="http://www.w3.org/2000/svg" width="32" height="32" viewBox="0 0 32 32"><path d="M16 0C7.163 0 0 7.163 0 16s7.163 16 16 16 16-7.163 16-16S24.837 0 16 0zm-2.209 6 11.152 6.563.02 1.949h.02L25 19.479 13.822 26l-2.992-1.682v.002l-.018-.013h-.001L8 22.506V9.484l3.072-1.812.006.002zm.092.527-2.406 1.391 10.431 6.1 2.43-1.387zm-.303 3.368-2.344 1.402v9.271l2.344-1.418zm-5.094.001v12.28l2.334 1.394.03-2.71-.018.01v-9.573zm5.532.034-.01 2.687 7.742 4.531v-2.705zm-.012 3.297-.022 5.68 4.838-2.923zm5.344 3.058-7.807 4.594 2.291 1.363 7.854-4.619zm5.185.195-10.42 6.122-.047 2.835 10.438-6.136z"/></svg>