<svg xmlns="http://www.w3.org/2000/svg" width="32" height="32" viewBox="0 0 32 32"><path d="M16 0C7.163 0 0 7.163 0 16s7.163 16 16 16 16-7.163 16-16S24.837 0 16 0zm.084 4c5.47.004 9.904 4.434 9.91 9.904 0 4.76-4.82 10.05-8.44 13.625a2.11 2.11 0 0 1-2.945 0 58 58 0 0 1-4.046-4.355.152.152 0 0 1 .177-.238l.137.054a8.6 8.6 0 0 0 2.295.551h.04a61 61 0 0 0 2.532 2.625.484.484 0 0 0 .68 0c2.056-2.025 7.799-7.76 7.799-12.25a8.14 8.14 0 0 0-16.28 0 6 6 0 0 0 .102 1.072.152.152 0 0 1-.154.176 2.24 2.24 0 0 0-1.3.418.154.154 0 0 1-.24-.09 8 8 0 0 1-.177-1.588c.006-5.469 4.44-9.9 9.91-9.904zm-2.459 4.035h1.998c.1.01.188.012.28.012a5.9 5.9 0 0 1 2.083.553 7.1 7.1 0 0 1 3.076 2.793 6.5 6.5 0 0 1 .778 1.976 6 6 0 0 1 .129 1.072h.002c0 .088.007.188 0 .262v.252c-.006.17-.016.332-.03.51a6.6 6.6 0 0 1-.486 2.064 7 7 0 0 1-1.139 1.774l-.011-.01a8.24 8.24 0 0 1-3.137 2.287 8 8 0 0 1-3.863.604 7.3 7.3 0 0 1-1.938-.463 7.5 7.5 0 0 1-1.734-.965 9.3 9.3 0 0 1-2.516-2.924.884.884 0 0 1 1.377-1.07 3.35 3.35 0 0 0 1.942.867q.306.028.603-.047a.7.7 0 0 0 .344-.197.6.6 0 0 0 .09-.153q.042-.111.056-.228a3 3 0 0 0 .026-.348v-6.629a2.14 2.14 0 0 1 1.127-1.744c.233-.124.487-.202.748-.232a1 1 0 0 1 .195-.016zm.012 1.774a.38.38 0 0 0-.32.304v6.543q.009.289-.018.576-.049.343-.18.663a2.3 2.3 0 0 1-.951 1.117q-.301.177-.639.271a3.2 3.2 0 0 1-.76.117 5.56 5.56 0 0 0 2.708 1.028 6.2 6.2 0 0 0 3.003-.483 7 7 0 0 0 2.5-1.787l-.01-.008c.35-.393.636-.837.852-1.316.2-.482.322-.994.358-1.514a5 5 0 0 0 .023-.414v-.404a4.3 4.3 0 0 0-.09-.764 5 5 0 0 0-.22-.744 5 5 0 0 0-.344-.7 5.33 5.33 0 0 0-2.305-2.093 4.2 4.2 0 0 0-1.465-.392z"/></svg>