<svg xmlns="http://www.w3.org/2000/svg" width="32" height="32" viewBox="0 0 32 32"><path d="M16 0C7.163 0 0 7.163 0 16s7.163 16 16 16 16-7.163 16-16S24.837 0 16 0zm1.953 8C22.397 8 26 11.582 26 16s-3.603 8-8.047 8a8.05 8.05 0 0 1-7.432-4.928H4l3.123-2.498h2.805a8 8 0 0 1-.004-1.08H7.123L4 12.996h6.494A8.05 8.05 0 0 1 17.954 8zm.111 3.174q-1.041 0-1.937.353a4.6 4.6 0 0 0-1.553.994q-.655.642-1.031 1.551-.376.91-.375 2.02 0 1.128.375 2.017a4.3 4.3 0 0 0 1.041 1.502 4.7 4.7 0 0 0 1.57.95 5.7 5.7 0 0 0 1.987.334q2.603 0 3.972-1.838l-1.543-1.225q-.384.556-.982.871-.599.317-1.467.317-.5 0-.963-.172a3 3 0 0 1-.83-.47 2.26 2.26 0 0 1-.848-1.616h7.038q.02-.153.02-.307v-.307q0-1.245-.339-2.171-.337-.928-.933-1.551a3.9 3.9 0 0 0-1.418-.938 4.9 4.9 0 0 0-1.784-.314zm-.02 1.72q.56 0 .974.182.415.182.685.488a1.9 1.9 0 0 1 .395.71 2.8 2.8 0 0 1 .125.841H15.48a2.26 2.26 0 0 1 .8-1.597q.723-.622 1.765-.623z"/></svg>