<svg xmlns="http://www.w3.org/2000/svg" width="32" height="32" viewBox="0 0 32 32"><path d="M16 0C7.163 0 0 7.163 0 16s7.163 16 16 16 16-7.163 16-16S24.837 0 16 0zm.057 5.002a.6.6 0 0 1 .375.176l10.39 10.39a.61.61 0 0 1-.004.864l-10.39 10.39-.084.07a.61.61 0 0 1-.776-.072L5.178 16.428l-.07-.084a.61.61 0 0 1 .072-.776l10.392-10.39.084-.07a.6.6 0 0 1 .4-.106zm-.012 2.434a.12.12 0 0 0-.133.027l-8.455 8.455-.025.039a.12.12 0 0 0 .025.13l7.617 7.616V16h1.848v7.703l7.615-7.615.027-.041a.12.12 0 0 0-.027-.131l-8.453-8.453z"/></svg>