<svg xmlns="http://www.w3.org/2000/svg" width="32" height="32" viewBox="0 0 32 32"><path d="M16 0C7.163 0 0 7.163 0 16s7.163 16 16 16 16-7.163 16-16S24.837 0 16 0zm.123 4c.185 0 .37.185.678.555 1.477 2.154 4.861 7.076 4.861 7.076.155.217.232.356.238.512l.008-.02a3333 3333 0 0 0 2.153 10.154c.124.431 0 .676-.43.922-2.138 1.261-6.229 3.84-7.098 4.389a.67.67 0 0 1-.41.166.75.75 0 0 1-.312-.078l.003.015s-4.861-3.077-7.261-4.492c-.43-.246-.553-.492-.43-.922.739-3.139 2.215-10.215 2.215-10.215l.012.036c.018-.138.096-.271.236-.467 0 0 3.382-4.984 4.86-7.076.246-.37.492-.555.677-.555zm-.06 1.354a2640 2640 0 0 1-4.407 6.46h8.81a2810 2810 0 0 1-4.404-6.46zm-4.489 7.138a3516 3516 0 0 0 4.549 13.045c1.247-3.686 3.83-11.285 4.428-13.045zm-.806.928c-.676 2.83-1.352 5.966-1.967 8.857 0 .123 0 .309.246.493.616.43 1.29.8 1.906 1.17l4.426 2.689a256 256 0 0 0-1.47-4.29c-.794-2.378-2.504-7.15-3.141-8.92zm10.673.105c-.663 1.857-2.324 6.528-3.103 8.813A245 245 0 0 1 16.9 26.57c1.37-.834 2.988-1.815 4.33-2.63.615-.37 1.294-.74 1.909-1.17.247-.184.246-.37.246-.495-.608-2.854-1.276-5.948-1.944-8.75z"/></svg>