<svg xmlns="http://www.w3.org/2000/svg" width="32" height="32" viewBox="0 0 32 32"><path d="M16 0C7.163 0 0 7.163 0 16s7.163 16 16 16 16-7.163 16-16S24.837 0 16 0zm1.996 6.004c1.28.035 2.628.407 3.881 1.39 0 0 3.352 2.598 1.633 6.838 0 0-1.204 3.375-5.33 3.635l-.573-.033a1.9 1.9 0 0 1-1.414-.69 1.92 1.92 0 0 1-.414-1.527 1.9 1.9 0 0 1 1.819-1.603l.582-.041s1.976-.087 1.804-2.424c0 0-.17-2.077-3.263-1.47h-.002s-4.126.605-4.727 5.192c0 0-.638 5.134 4.608 6.52a4.4 4.4 0 0 0 1.113.143h.258a2 2 0 0 1 1.424.593c.378.38.59.898.59 1.436a2.014 2.014 0 0 1-1.856 2.021c-2.58.174-6.04-1.092-8.285-4.136 0 0-4.4-6.325.394-12.137a10.2 10.2 0 0 1 4.278-3.072c.985-.369 2.2-.67 3.48-.635z"/></svg>