<svg xmlns="http://www.w3.org/2000/svg" viewBox="0 0 32 32"><path d="M16 0C7.163 0 0 7.163 0 16s7.163 16 16 16 16-7.163 16-16S24.837 0 16 0zm-.832 6a.826.826 0 0 1 .818.855.82.82 0 0 1-.851.815.823.823 0 0 1-.809-.863.834.834 0 0 1 .842-.807zm4.945.857a.725.725 0 0 1 .71.713.725.725 0 0 1-.718.707.71.71 0 0 1 .008-1.42zm-9.467.655a1.1 1.1 0 0 1 1.102 1.115 1.1 1.1 0 0 1-1.11 1.105 1.09 1.09 0 0 1-1.095-1.115 1.09 1.09 0 0 1 1.103-1.105zm13.038 2.547a.527.527 0 0 1 .546.521.53.53 0 0 1-.517.555.54.54 0 0 1-.549-.526.53.53 0 0 1 .52-.55zm-15.916 1.34c.719.001 1.296.58 1.296 1.294a1.303 1.303 0 0 1-1.32 1.305 1.284 1.284 0 0 1-1.273-1.312 1.275 1.275 0 0 1 1.297-1.288zm4.164.013c.064 0 .148.033.205.065a84 84 0 0 1 1.697.974c.136.081.235.091.377.004.518-.317 1.054-.608 1.57-.93.186-.116.32-.098.496.008.596.356 1.201.696 1.803 1.043l-.01 2.676a780 780 0 0 0 .004 4.451c0 .18-.049.288-.207.383-.61.367-1.208.75-1.853 1.152v-.324c0-2.297-.003-4.596.004-6.893 0-.192-.051-.297-.223-.39-.535-.29-1.058-.602-1.586-.904-.059-.033-.12-.062-.209-.106v.316c0 2.06-.003 4.118.006 6.176.002.207-.065.315-.24.412-.524.291-1.038.6-1.557.9-.073.044-.15.081-.266.141v-.32c0-2.067-.006-4.134.006-6.201.001-.24-.078-.36-.277-.47-.585-.327-1.16-.673-1.766-1.028.671-.387 1.318-.762 1.971-1.123a.1.1 0 0 1 .055-.012zm7.988.065a.43.43 0 0 1 .351.002 47 47 0 0 1 1.723.98.36.36 0 0 1 .156.256c.01 2.163.008 4.325.004 6.488 0 .071-.017.181-.064.21-.648.385-1.303.76-1.998 1.161v-.328c0-2.084-.002-4.169.004-6.252 0-.177-.043-.284-.21-.375-.605-.336-1.2-.692-1.798-1.04.044-.047.08-.104.133-.134.563-.328 1.126-.658 1.699-.968zm5.37 2.398a1.215 1.215 0 0 1 0 2.43 1.215 1.215 0 0 1 0-2.43zM6.92 15.941a1.417 1.417 0 0 1 1.437 1.414 1.416 1.416 0 0 1-1.418 1.432A1.42 1.42 0 0 1 5.5 17.375a1.42 1.42 0 0 1 1.42-1.434zm17.701 2.746a1.11 1.11 0 0 1 1.111 1.108 1.09 1.09 0 0 1-1.095 1.115 1.087 1.087 0 0 1-1.112-1.1 1.107 1.107 0 0 1 1.096-1.122zM8.826 20.382c.725-.016 1.352.602 1.36 1.338a1.347 1.347 0 0 1-1.332 1.355 1.35 1.35 0 0 1-1.36-1.33 1.36 1.36 0 0 1 1.332-1.363zm12.961 2.324a.82.82 0 0 1 .82.83c-.002.471-.368.826-.85.822a.814.814 0 0 1-.818-.826.823.823 0 0 1 .848-.826zm-8.826 1.219a.62.62 0 0 1 .605.635.61.61 0 0 1-.629.609.606.606 0 0 1-.607-.633.62.62 0 0 1 .63-.611zm4.527.504a.8.8 0 0 1 .791.795.78.78 0 0 1-.802.777.767.767 0 0 1-.784-.787.78.78 0 0 1 .795-.785z"/></svg>