<svg xmlns="http://www.w3.org/2000/svg" viewBox="0 0 32 32"><path d="M16 0C7.163 0 0 7.163 0 16s7.163 16 16 16 16-7.163 16-16S24.837 0 16 0zm5.213 5.78c.632-.029 1.282.15 1.945.566.773.485 1.083.984.947 1.455-.1.349-.482.627-.687.6-.3.028-.603-.03-.89-.243-.223-.163-.406-.4-.542-.72-.21-.498-.49-.671-.83-.631-.247.029-.535.187-.625.293l-.234.26a4 4 0 0 0-.485.634c-.476.793-.915 2.248-1.525 5.26l4.037.59-.222 1.617-4.096-.602-.176 1.065a32 32 0 0 1-.125.715l4.137.605-.237 1.615-4.234-.62c-.488 2.077-1.133 4.305-1.588 5.185-.176.439-.885 1.486-1.664 2.18-1.297 1.154-2.75 1.446-4.265.496-.773-.485-1.084-.985-.948-1.455.101-.35.483-.628.688-.6a1.25 1.25 0 0 1 .89.24 1.7 1.7 0 0 1 .541.723c.211.499.49.67.83.63.247-.028.534-.186.625-.292.907-1.01 1.627-2.957 2.536-7.451l-4.036-.592.221-1.617 4.098.6.176-1.063a31 31 0 0 1 .123-.715l-4.12-.604.237-1.615 4.217.62c.372-1.564.822-2.969 1.297-3.886.175-.438.884-1.486 1.664-2.18.73-.649 1.508-1.027 2.32-1.064z"/></svg>