<svg xmlns="http://www.w3.org/2000/svg" width="32" height="32" viewBox="0 0 32 32"><path d="M16 0C8.367 0 1.982 5.344.385 12.496c1.573-2.807 5.24-5.118 10.597-5.978 2.94-4.386 6.379-6.482 9.325-5.932A16 16 0 0 0 16 0zm5.488.967c.775.368 1.45.95 2.02 1.707a.9.9 0 0 0-.281-.143c-2.242-.91-5.267.399-8.21 3.645h.14C21.74 6.148 25.074 8.939 26 12.213c-1.009-1.054-3.082-1.939-6.95-2.479a60 60 0 0 0-3.67-.398c-.952-.057-1.877-.113-2.773-.113-1.485 2.22-2.886 4.896-4.119 8.113C7.143 20.866 5.94 24.34 5.1 27.5h-.223A15.95 15.95 0 0 0 16 32c8.837 0 16-7.163 16-16C32 9.092 27.621 3.207 21.488.967zM9.303 9.422c-4.266.454-7.393 1.713-9.01 3.517A16 16 0 0 0 0 16a15.95 15.95 0 0 0 4.848 11.473c.086-3.38.647-7.216 1.793-11.192.757-2.59 1.653-4.867 2.662-6.86zm8.46 7.06c1.794 0 3.25 1.51 3.25 3.36s-1.456 3.36-3.25 3.36c-1.792 0-3.25-1.51-3.25-3.36 0-1.88 1.458-3.36 3.25-3.36z"/></svg>