<svg xmlns="http://www.w3.org/2000/svg" viewBox="0 0 32 32"><path d="M16 0C7.163 0 0 7.163 0 16s7.163 16 16 16 16-7.163 16-16S24.837 0 16 0zm-.092 5h.02a11.18 11.18 0 0 1 8.342 3.771l.326.368-8.56 8.644-8.669-8.828.346-.367C9.853 6.288 12.77 5 15.908 5zm.02 1.03A10.08 10.08 0 0 0 8.78 8.952v.002l7.254 7.377 7.164-7.23c-1.922-1.95-4.534-3.073-7.254-3.073zm-8.705 4.452.96.975c-.18.275-.343.57-.453.9a4.09 4.09 0 0 0 2.43 5.225 4.02 4.02 0 0 0 3.61-.459l2.23 2.28 2.557-2.594c.236.165.508.296.798.406 2.05.736 4.298-.35 5.024-2.41.434-1.214.235-2.483-.4-3.494l.798-.811.2.33a10.8 10.8 0 0 1 1.523 5.537C26.482 22.235 21.785 27 16 27h-.02c-5.784 0-10.499-4.8-10.478-10.67a10.74 10.74 0 0 1 1.539-5.535zm15.615 2.004c.236.35.361.773.361 1.215 0 1.195-.96 2.17-2.138 2.17-.454 0-.854-.127-1.198-.367zm-13.475.166 3.01 3.036a2.05 2.05 0 0 1-1.305.458c-1.18 0-2.14-.974-2.14-2.17a2.23 2.23 0 0 1 .435-1.324z"/></svg>