<svg xmlns="http://www.w3.org/2000/svg" width="32" height="32" viewBox="0 0 32 32"><path d="M16 0C7.163 0 0 7.163 0 16s7.163 16 16 16 16-7.163 16-16S24.837 0 16 0zm.52 5 4.738 2.732 4.736 2.725v10.914l-4.736 2.733-4.738-2.733-4.73-2.725 4.73-2.732v-5.457l-.743-.428v5.45l-2.726-1.573-.012.006 1.941 1.121-4.728 2.727v-5.438l-.025-.013v5.45l1.248.72-4.737 2.732v1.432L2 19.91l4.738-2.726v-1.43l3.489 2.006-4.737-2.727 4.73-2.728-3.92-2.26 4.74-2.727v2.29l2.722 1.572 2.008-1.155-3.989-2.293zM4.273 10.273l4.739 2.725-4.739 2.732zm5.586 9.598 3.717 2.14 1.895-1.091v5.457l-3.721-2.14-1.89 1.091zm6.621 2.35 4.73 2.724-4.73 2.733z"/></svg>