<svg xmlns="http://www.w3.org/2000/svg" width="32" height="32" viewBox="0 0 32 32"><path d="M16 0C7.163 0 0 7.163 0 16s7.163 16 16 16 16-7.163 16-16S24.837 0 16 0zm0 6c.023 0 .044.015.05.043l7.944 13.65c.014.028 0 .055-.014.082l-4.574 5.168a.1.1 0 0 1-.054.03h-3.715c-.07 0-.099-.07-.057-.112l2.483-2.814 2.328-2.62c.028-.027.027-.054.013-.081l-4.408-7.608-1.664-2.869c-.014-.014-.014-.04 0-.068l1.607-2.758C15.953 6.015 15.977 6 16 6zm-2.23 3.855c.024 0 .048.011.062.032l1.596 2.758c.014.014.014.042 0 .07l-3.856 6.644c-.014.027.002.055.016.084l2.3 2.59a.1.1 0 0 0 .055.028h2.717c.07 0 .099.069.057.11l-2.469 2.786c-.014.014-.04.029-.055.043h-1.552c-.028 0-.041-.013-.055-.027L8.01 19.805a.09.09 0 0 1 0-.084l5.697-9.834a.08.08 0 0 1 .063-.032z"/></svg>