<svg xmlns="http://www.w3.org/2000/svg" viewBox="0 0 32 32"><path d="M16 0C7.163 0 0 7.163 0 16s7.163 16 16 16 16-7.163 16-16S24.837 0 16 0zm-.047 7c.424-.008.847.14 1.207.357a482 482 0 0 0 6.465 3.635c.833.441 1.387 1.347 1.375 2.281-.002 3.094-.01 6.189-.006 9.284.034.215-.111.46-.355.437-.961.006-1.923.003-2.883.002-.21.032-.413-.144-.39-.357-.093-2.635-.057-5.273-.03-7.91-.001-.33-.064-.679-.277-.946-.216-.283-.557-.428-.862-.595-.5-.263-.972-.58-1.49-.81-.196-.077-.45-.163-.635-.013-.205.193-.202.498-.224.758a74 74 0 0 0-.01 3.88c-.001.307.007.663-.227.901-.239.234-.6.237-.914.242-.568-.006-1.135.017-1.7-.011-.24-.026-.528-.041-.684-.25-.142-.207-.135-.47-.147-.707-.003-1.358.014-2.718 0-4.078-.014-.238-.01-.509-.18-.7-.163-.167-.424-.11-.619-.04-.426.165-.806.418-1.209.628-.403.232-.835.43-1.181.746-.225.205-.286.517-.293.805-.005 2.67.003 5.34-.02 8.01.023.202-.097.447-.332.443-.99.012-1.98.004-2.97.002-.2.018-.382-.154-.36-.351.038-3.245.015-6.49.018-9.737a1.85 1.85 0 0 1 .957-1.672c2.255-1.263 4.513-2.517 6.76-3.796.253-.144.508-.296.794-.374q.21-.06.422-.064z"/></svg>