<svg xmlns="http://www.w3.org/2000/svg" width="32" height="32" viewBox="0 0 32 32"><path d="M16 0C7.163 0 0 7.163 0 16s7.163 16 16 16 16-7.163 16-16S24.837 0 16 0zm8.95 11c.856 0 1.55.694 1.55 1.518 0 .89-.725 1.582-1.582 1.582-1.221 0-1.586.43-1.586 1.584v.1a1.556 1.556 0 0 1-1.549 1.484h-.033c-1.187.033-1.55.46-1.55 1.582v.132c-.034.791-.725 1.452-1.55 1.452a1.584 1.584 0 0 1-1.584-1.584c0-.792.626-1.45 1.418-1.55.033-.032.1-.032.166-.032 1.353 0 1.582-.298 1.582-1.518v-.033a1.55 1.55 0 0 1 1.418-1.551h.133c1.386 0 1.584-.33 1.584-1.584 0-.89.724-1.582 1.582-1.582zm-12.944.094a1.584 1.584 0 0 1 1.928 1.488c0 1.253.197 1.584 1.582 1.584h.132a1.6 1.6 0 0 1 1.452 1.518c0 .89-.693 1.584-1.584 1.584-.89 0-1.582-.726-1.582-1.584 0-1.12-.364-1.551-1.584-1.551s-1.582.43-1.582 1.584v.1c-.033.79-.727 1.45-1.551 1.45a1.584 1.584 0 0 1-1.584-1.583 1.55 1.55 0 0 1 1.42-1.551h.13c1.386 0 1.585-.297 1.585-1.551a1.584 1.584 0 0 1 1.238-1.488zm-5.924 6.174a1.583 1.583 0 1 1 0 3.166 1.583 1.583 0 0 1 0-3.166z"/></svg>