<svg xmlns="http://www.w3.org/2000/svg" width="32" height="32" viewBox="0 0 32 32"><path d="M16 0C7.163 0 0 7.163 0 16s7.163 16 16 16 16-7.163 16-16S24.837 0 16 0zm1.885 5.004a.6.6 0 0 1 .176.006c.219.038.383.189.423.363l2.827 1.611a.57.57 0 0 1 .472.059.59.59 0 0 1 .287.428l1.215.818a.53.53 0 0 1 .461.09c.228.164.31.45.18.639l-.008.01 1.783 3.482c.17-.023.344.107.406.316.068.23-.027.464-.209.522-.183.059-.386-.079-.453-.307l-.011-.049-3.668-1.967a.56.56 0 0 1-.23.19v9.793a.566.566 0 0 1 .323.64l1.49 1.52a.5.5 0 0 1 .243-.035l2.25-3.977a.45.45 0 0 1-.022-.427c.095-.218.316-.331.49-.254.176.077.24.317.145.535a.45.45 0 0 1-.344.275l-2.226 4.104c.045.162-.012.362-.16.51a.55.55 0 0 1-.43.165l-4.338 2.598a.52.52 0 0 1-.41.326c-.215.041-.42-.036-.518-.181l-5.097-.358a.53.53 0 0 1-.452.096c-.252-.055-.426-.258-.416-.465l-3.937-2.842a.53.53 0 0 1-.459-.138c-.173-.156-.237-.383-.172-.555l-1.619-3.758c-.176-.035-.327-.21-.367-.44-.034-.205.033-.401.16-.505l.238-5.688a.55.55 0 0 1-.068-.515c.079-.233.273-.381.463-.37l4.252-4.455c-.036-.21.123-.432.373-.511a.53.53 0 0 1 .468.062l6.12-1.111a.45.45 0 0 1 .369-.25zm.078.178c-.076.012-.137.062-.149.13-.015.09.062.182.172.202s.213-.04.229-.131c.016-.09-.062-.18-.172-.2a.2.2 0 0 0-.08-.001zm-.764.523-4.931.899 2.582.57a.54.54 0 0 1 .623-.194zm1.149.035a.54.54 0 0 1-.428.096.6.6 0 0 1-.115-.033l-1.838 1.36 5.045.14.01-.04zm-7.317.717a.2.2 0 0 0-.08.012c-.106.033-.17.132-.144.22.027.09.134.133.24.1.107-.033.173-.133.146-.22-.02-.067-.085-.11-.162-.112zm.444.422a.57.57 0 0 1-.307.225.6.6 0 0 1-.273.017L9.307 9.703a.4.4 0 0 1 .048.235l1.174.36a.55.55 0 0 1 .399-.171.56.56 0 0 1 .5.32h1.967a.56.56 0 0 1 .388-.31l1.07-2.276a.6.6 0 0 1-.11-.257zm10.066.297a.2.2 0 0 0-.127.09c-.055.096-.013.227.094.289.104.064.236.036.29-.06.056-.097.013-.227-.093-.29a.23.23 0 0 0-.164-.03zm-6.252.039a.224.224 0 0 0-.22.226.224.224 0 0 0 .22.227.225.225 0 0 0 .223-.227c0-.125-.1-.226-.223-.226zm.549.387a.5.5 0 0 1-.022.09l2.125 2.449a.555.555 0 0 1 .622.304h2.255a.56.56 0 0 1 .266-.265l.191-2.272a.6.6 0 0 1-.173-.162zm5.865.394-.183 2.17a.57.57 0 0 1 .35.48l3.46 1.938zm-6.174.031a.55.55 0 0 1-.299.051l-1.013 2.156a.575.575 0 0 1 .152.746l3.381 4.19a1 1 0 0 1 .096-.03v-3.925a.566.566 0 0 1-.256-.815zm6.694.012 2.627 3.422-1.278-2.285a.6.6 0 0 1-.297-.112c-.17-.12-.258-.31-.238-.476zM9.64 8.33l-2.436 2.55 1.248-.846a.6.6 0 0 1 .143-.306.57.57 0 0 1 .3-.188zm13.89.138a.14.14 0 0 0-.113.062c-.053.076-.022.19.07.256.091.065.208.059.26-.017s.022-.191-.07-.256a.23.23 0 0 0-.147-.045zM8.863 9.766a.23.23 0 0 0-.133.078c-.072.086-.077.204-.01.265.069.061.184.042.259-.045.073-.085.077-.205.01-.265a.14.14 0 0 0-.126-.033zm.29.572a.6.6 0 0 1-.128.088l-1.92 6.076a.56.56 0 0 1 .086.299.55.55 0 0 1-.082.295l3.602 3.72v-9.601a.56.56 0 0 1-.338-.502zm4.74.129a.224.224 0 0 0-.221.226.224.224 0 0 0 .22.227c.122 0 .221-.102.221-.227s-.1-.226-.22-.226zm7.423 0a.224.224 0 0 0-.22.226c0 .125.098.227.22.227a.225.225 0 0 0 .223-.227c0-.125-.1-.226-.223-.226zm-10.388.004a.22.22 0 0 0-.217.222c0 .122.097.221.217.221s.217-.099.217-.22a.22.22 0 0 0-.217-.223zm7.134 0c-.12 0-.214.1-.214.222h-.002a.22.22 0 0 0 .216.221.22.22 0 0 0 .217-.22.22.22 0 0 0-.216-.223zm-9.515.031-1.904 1.293a1 1 0 0 1-.03.12.6.6 0 0 1-.136.228l.29 3.99zm2.9.389a.56.56 0 0 1-.302.324v9.793a.57.57 0 0 1 .302.324h2.215a.56.56 0 0 1 .303-.324v-4.069a.57.57 0 0 1-.266-.484.56.56 0 0 1 .555-.566.56.56 0 0 1 .52.763l3.484 4.33a.6.6 0 0 1 .142-.02.555.555 0 0 1 .52.37h1.879a.56.56 0 0 1 .3-.324v-9.793a.56.56 0 0 1-.3-.324h-2.217a.56.56 0 0 1-.3.324v4.01a.57.57 0 0 1 .24.466.56.56 0 0 1-.555.569.56.56 0 0 1-.555-.569.6.6 0 0 1 .035-.199l-3.427-4.248a.555.555 0 0 1-.647-.353zm-5.293.611c-.065.01-.126.063-.154.144h-.002c-.037.108.005.222.09.252.086.03.185-.031.223-.14.036-.107-.003-.22-.09-.25a.14.14 0 0 0-.067-.006zm19.701 1.287a.1.1 0 0 0-.054.004c-.073.023-.111.118-.084.209s.108.144.181.121c.072-.023.11-.116.082-.207a.17.17 0 0 0-.125-.127zM6.2 14.3l-.138 3.351.277-.59a.56.56 0 0 1 .021-.558zm11.768 1.168c-.122 0-.223.1-.223.224a.224.224 0 0 0 .223.229.224.224 0 0 0 .22-.229.22.22 0 0 0-.22-.224zm-3.713.763a.223.223 0 0 0-.223.225.224.224 0 0 0 .223.227.223.223 0 0 0 .22-.227.22.22 0 0 0-.22-.225zm-7.594.364c-.1 0-.183.093-.183.207 0 .115.082.207.183.207s.184-.092.184-.207-.084-.207-.184-.207zm7.813.383-.075.025v4.006a.566.566 0 0 1 .327.637l3.591 3.117a.6.6 0 0 1 .104-.047l-.184-2.645a.57.57 0 0 1-.39-.54.6.6 0 0 1 .068-.274zm-7.862.515-.306.654a.57.57 0 0 1-.076.493l1.16 2.69zm.487.223.943 4.646a.6.6 0 0 1 .15.094l2.182-.951a.6.6 0 0 1 .102-.3zM5.76 18.1c-.09.015-.147.119-.127.232.018.113.105.193.195.176.09-.015.146-.12.127-.233-.02-.113-.105-.191-.195-.175zm20.44.627c-.057.004-.113.046-.141.11-.038.088-.013.184.058.216.07.03.158-.017.197-.104.038-.088.012-.183-.058-.213a.1.1 0 0 0-.057-.01zm-15.272 2.576a.224.224 0 0 0-.221.226.223.223 0 0 0 .22.227.223.223 0 0 0 .221-.227.22.22 0 0 0-.22-.226zm3.254 0a.224.224 0 0 0-.221.226.223.223 0 0 0 .22.227.223.223 0 0 0 .221-.227.223.223 0 0 0-.22-.226zm4.216 0a.223.223 0 0 0-.218.226.223.223 0 0 0 .22.227.223.223 0 0 0 .221-.227.223.223 0 0 0-.223-.226zm2.918 0a.224.224 0 0 0-.22.226.223.223 0 0 0 .22.227.224.224 0 0 0 .221-.229l.002.002c0-.126-.1-.226-.223-.226zm-9.888.472a1 1 0 0 1-.047.08l1.256 3.782 1.234-3.639a.56.56 0 0 1-.187-.223zm7.472 0a.57.57 0 0 1-.23.248l.185 2.707a.55.55 0 0 1 .192.135l3.973-1.373.011-.023-1.43-1.455a.54.54 0 0 1-.285.082.55.55 0 0 1-.498-.32zm-8.375.145-2.123.926a.4.4 0 0 1-.006.115l3.805 2.744-1.203-3.615a.55.55 0 0 1-.473-.17zm3.95.09a.6.6 0 0 1-.172.072l-1.295 3.816 5.015-.808zm-6.64.638a.15.15 0 0 0-.12.05c-.06.07-.042.188.043.263.083.075.2.08.26.01.059-.068.042-.186-.043-.262a.23.23 0 0 0-.14-.06zm15.722.788a.23.23 0 0 0-.137.066c-.08.08-.094.2-.031.266.063.065.18.054.26-.026.08-.079.094-.197.03-.263a.15.15 0 0 0-.122-.043zm-1.239.765-3.16 1.094a.52.52 0 0 1-.312.35l-.096.564a.4.4 0 0 1 .102.068zm-3.677.809c-.121 0-.22.093-.22.203s.099.2.22.2c.122 0 .222-.09.222-.202s-.1-.201-.222-.201zm-.448.502-3.978.64 3.808.266a.53.53 0 0 1 .291-.23l.092-.536a.56.56 0 0 1-.213-.14zm-5.72.529c-.077.01-.138.056-.153.123-.019.091.054.183.164.207s.215-.029.233-.119c.019-.091-.054-.183-.164-.207a.2.2 0 0 0-.08-.004zm6.074.445a.2.2 0 0 0-.08.002c-.11.02-.186.11-.17.201.017.09.12.146.228.127.11-.02.186-.112.17-.203-.012-.068-.072-.116-.148-.127z"/></svg>