<svg xmlns="http://www.w3.org/2000/svg" viewBox="0 0 32 32"><path d="M16 0C7.163 0 0 7.163 0 16s7.163 16 16 16 16-7.163 16-16S24.837 0 16 0zm0 7.5h5.947q-1.1.496-1.955 2.477l-1.842 3.742-1.941-3.817q.605-1.32.605-1.494 0-.619-.814-.908zM9.604 8.572h4.644l4.033 7.922 3.912-7.922H27c-2.037.536-6.07 10.148-6.07 11.266q0 .33.123.412h-4.239l-3.625-7.262-3.585 7.262H5c1.181-.701 5.5-8.171 5.5-10.273q-.001-.744-.896-1.405zm3.726 7.26 1.904 3.814-.904 1.842h5.338q3.626 0 4.848-1.361L21.662 24.5H7.078q2.364-.454 4.766-5.693.809-1.612 1.486-2.975z"/></svg>