<svg xmlns="http://www.w3.org/2000/svg" viewBox="0 0 32 32"><path d="M16 0C7.163 0 0 7.163 0 16a15.9 15.9 0 0 0 2.006 7.76c.605-1.765 1.771-3.676 3.394-5.56a2 2 0 0 1 2.787-2.81 35 35 0 0 1 4.106-3.109c6.934-4.503 14.262-5.942 17.836-3.799C27.438 3.434 22.12 0 16 0zm3.088 11.428c-2.498.11-5.673 1.207-8.734 3.195a24 24 0 0 0-1.717 1.227 2 2 0 0 1-2.881 2.714h-.002C3.41 21.272 2.47 24.06 3.607 25.81c1.716 2.643 7.52 1.92 12.961-1.614 5.442-3.535 8.462-8.54 6.746-11.183-.75-1.157-2.283-1.67-4.226-1.584zm12.861 3.29c-1.154 3.779-4.966 8.293-10.398 11.821-3.747 2.433-7.61 3.972-10.934 4.533A16 16 0 0 0 16 32c8.837 0 16-7.163 16-16q0-.648-.05-1.281z"/></svg>