<svg xmlns="http://www.w3.org/2000/svg" width="32" height="32" viewBox="0 0 32 32"><path d="M16 0C7.163 0 0 7.163 0 16s7.163 16 16 16 16-7.163 16-16S24.837 0 16 0zm-.162 12 2.504 5.332h-1.416l-1.121-2.314-1.121 2.353-.594 1.297-.623 1.33h-1.381zm-7.08.004a3.5 3.5 0 0 1 2.664 1.154 3.97 3.97 0 0 1 1.086 2.844 4.12 4.12 0 0 1-1.086 2.842C10.699 19.653 9.807 20 8.754 20a3.58 3.58 0 0 1-2.668-1.156 4 4 0 0 1-1.084-2.842 3.97 3.97 0 0 1 .69-2.316l.921.98a2.82 2.82 0 0 0 .36 3.266 2.4 2.4 0 0 0 1.78.808 2.4 2.4 0 0 0 1.78-.808 2.65 2.65 0 0 0 .725-1.897 2.83 2.83 0 0 0-.725-1.894 2.33 2.33 0 0 0-1.78-.772 2.2 2.2 0 0 0-1.25.352l-.919-.98a3.4 3.4 0 0 1 2.174-.737zm16.662 0H27L24.07 16 27 19.998h-1.58l-2.14-2.91-2.141 2.91h-2.963l-.625-1.33h1.38l.614 1.3 2.93-3.95-2.952-3.98h1.616l2.14 2.91-.779 1.07.78 1.07.79-1.088-.79-1.088z"/></svg>