<svg xmlns="http://www.w3.org/2000/svg" width="32" height="32" viewBox="0 0 32 32"><path d="M16 0C7.163 0 0 7.163 0 16s7.163 16 16 16 16-7.163 16-16S24.837 0 16 0zm1.965 3.113a2 2 0 0 1 .812.002 2.03 2.03 0 0 1-.83 3.97l-2.01 3.138a7.97 7.97 0 0 1 7.012 7.127 7.965 7.965 0 0 1-7.142 8.707 7.965 7.965 0 0 1-8.705-7.143 7.96 7.96 0 0 1 7.14-8.707l2.494-3.89a2.03 2.03 0 0 1 1.229-3.204zM15.02 13.896a4.22 4.22 0 0 0-4.222 4.225 4.22 4.22 0 0 0 4.222 4.223 4.21 4.21 0 0 0 3.944-2.717 2.44 2.44 0 0 1-3.85-.008 2.44 2.44 0 0 1 .434-3.424 2.44 2.44 0 0 1 3.424.434 4.22 4.22 0 0 0-3.952-2.733z"/></svg>