<svg xmlns="http://www.w3.org/2000/svg" width="32" height="32" viewBox="0 0 32 32"><path d="M16 0C7.163 0 0 7.163 0 16s7.163 16 16 16 16-7.163 16-16S24.837 0 16 0zm-.057 6.002c.837-.026 1.723.25 2.66.91 1.739 1.227 3.549 1.363 5.864 1.79 2.106.39 2.552 2.542 1.59 5.28l-.018.045.02-.045c1.466 2.492 1.454 5.193-1.721 6.573-5.653 2.459-5.99 7.305-11.332 4.695a6.7 6.7 0 0 1-2.004-1.51l-.209-.236-.193-.033c-3.585-.635-5.94-2.58-3.76-7.54 1.894-4.31.26-8.554 5.83-8.51l.283.007h.002c.916-.86 1.912-1.393 2.988-1.426zm.44 4.236c-1.1.003-2.249.36-3.287 1.106-2.478 1.779-3.295 5.093-1.645 7.666a5.493 5.493 0 0 0 7.621 1.654c2.558-1.66 2.909-4.88 1.645-7.668-.81-1.786-2.503-2.762-4.334-2.758z"/></svg>