<svg xmlns="http://www.w3.org/2000/svg" width="32" height="32" viewBox="0 0 32 32"><path d="M16 0C7.163 0 0 7.163 0 16s7.163 16 16 16 16-7.163 16-16S24.837 0 16 0zm-3.062 7 8.562.03c1.25.094 2.75.095 3.594 1.157 1 1.156.781 2.814.281 4.126A8.71 8.71 0 0 1 19.031 18c-2.062.312-4.156.219-6.25.219a924 924 0 0 0 1.25-3.063c1.72 0 3.469.094 5.219-.187 1.594-.406 3.063-2 2.813-3.75-.156-.75-1.001-1.094-1.72-1.094-2.874-.125-5.75 0-8.624-.062h-.031zM8 10.906h10.156l-1.343 3.469H6.624L8 10.938zm1.656 4.25h3.5L9.47 24.531H6z"/></svg>