<svg xmlns="http://www.w3.org/2000/svg" viewBox="0 0 32 32"><path d="M16 0C7.163 0 0 7.163 0 16s7.163 16 16 16 16-7.163 16-16S24.837 0 16 0zm1.883 6.115a10 10 0 0 1 .418.084 10 10 0 0 0-.418-.084zm1.404.322a10 10 0 0 1 .498.168 10 10 0 0 0-.498-.168zm1.373.536a10 10 0 0 1 .47.232 10 10 0 0 0-.47-.232zm1.33.765a10 10 0 0 1 .362.242 10 10 0 0 0-.362-.242zm-5.56.924a7.3 7.3 0 0 0-2.112.315 7.2 7.2 0 0 0-1.867.877 7.3 7.3 0 0 0 1.867-.877 7.2 7.2 0 0 1 2.112-.315zm1.006.08a7 7 0 0 1 .253.037q-.126-.02-.253-.037zm1.222.274.094.035c-.032-.01-.062-.025-.094-.035zm.973.4.164.082zm1.008.602.17.127q-.085-.065-.17-.127zM16.592 11c2.71 0 4.91 2.213 4.91 4.945 0 2.731-2.198 4.946-4.91 4.946a4.86 4.86 0 0 1-2.483-.676v5.51a9.8 9.8 0 0 1-2.43-.942v-9.11h.008C11.828 13.07 13.97 11 16.593 11zm-6.096.742zm6.096 1.703a2.49 2.49 0 0 0-2.483 2.5 2.49 2.49 0 0 0 2.483 2.5 2.49 2.49 0 0 0 2.482-2.5c0-1.38-1.111-2.5-2.482-2.5zm-7.373 1.508zM6.5 16a10 10 0 0 0 .07 1.164A10 10 0 0 1 6.5 16zm.086 1.307a10 10 0 0 0 .178.95 10 10 0 0 1-.178-.95zm.266 1.308a10 10 0 0 0 .294.922 10 10 0 0 1-.294-.922zm.34 1.053a10 10 0 0 0 .47 1.02 10 10 0 0 1-.47-1.02zm.617 1.277a10 10 0 0 0 .45.723 10 10 0 0 1-.45-.723zm13.773.242v.002a7 7 0 0 1-.982.817 7 7 0 0 0 .982-.819zm-13.14.74a10 10 0 0 0 .703.868 10 10 0 0 1-.704-.867zm11.845.276a7 7 0 0 1-.805.443 7 7 0 0 0 .805-.443zm-1.193.61a7 7 0 0 1-.871.279 7 7 0 0 0 .87-.28zm4.357.257v.002l-.078.069zm-5.592.116a7 7 0 0 1-1.267.15 7 7 0 0 0 1.267-.15zm4.524.812a10 10 0 0 1-.371.254 10 10 0 0 0 .37-.254zm-1.197.768a10 10 0 0 1-.477.242 10 10 0 0 0 .477-.242zm-1.295.59a10 10 0 0 1-.514.181 10 10 0 0 0 .514-.182zm-1.46.421a10 10 0 0 1-.423.09 10 10 0 0 0 .424-.09z"/></svg>