<svg xmlns="http://www.w3.org/2000/svg" width="32" height="32" viewBox="0 0 32 32"><path d="M16 0C7.163 0 0 7.163 0 16s7.163 16 16 16 16-7.163 16-16S24.837 0 16 0zm-.148 6.025a.46.46 0 0 1 .296 0l9.319 4.672c.132.07.2.201.166.367a.32.32 0 0 1-.332.268h-.664v1c0 .202-.137.336-.336.336h-.662v7.344h.666c.198 0 .332.135.332.334v1.004h.664c.202 0 .336.132.336.33v1h.004c.198 0 .33.14.33.34 0 .198-.136.33-.334.33H6.33c-.199 0-.33-.132-.33-.334s.136-.336.334-.336v-1.002c0-.2.132-.332.332-.332h.664v-1.004c0-.198.136-.33.336-.33h.662v-7.35h-.666c-.198 0-.332-.132-.332-.33v-1h-1c-.165 0-.297-.101-.297-.271a.33.33 0 0 1 .166-.364zm-7.86 5.307v.666h15.975v-.666zm2.332 1.336v7.344h1.328v-7.344zm3.328 0v7.344h1.328v-7.344zm3.325 0v7.344h1.332v-7.344zm3.332 0v7.344h1.328v-7.344zm-12.313 8.01v.668h15.975v-.668z"/></svg>