<svg xmlns="http://www.w3.org/2000/svg" viewBox="0 0 32 32"><path d="M16 0C7.163 0 0 7.163 0 16s7.163 16 16 16 16-7.163 16-16S24.837 0 16 0zm-.266 6c4.826 0 8.736 3.982 8.735 8.895a9.1 9.1 0 0 1-1.23 4.564c-.027.039-.09.026-.102-.025-.304-2.186-1.614-3.388-3.518-3.75-.165-.026-.19-.129.026-.155.584-.05 1.41-.039 1.841.04.025-.22.037-.453.037-.686 0-3.245-2.59-5.883-5.777-5.883s-5.776 2.637-5.775 5.88c0 3.247 2.59 5.884 5.775 5.884h.268a8 8 0 0 1-.116-1.59c.013-.362.09-.415.243-.131.8 1.41 1.942 2.677 4.177 3.18 1.828.415 3.655.892 5.623 3.44.178.218-.088.452-.29.27-2.007-1.81-3.836-2.404-5.499-2.404-1.867.014-3.135.258-4.418.258-4.824 0-8.734-3.98-8.734-8.892S10.91 6 15.734 6zm6.256 12.564a.4.4 0 0 1 .117.028c.33.129.458.633.483.853.05.401-.063.557-.19.557s-.306-.156-.496-.467c-.19-.31-.266-.659-.164-.84a.26.26 0 0 1 .25-.13zm-1.812 1.489c.203 0 .431.09.634.271.394.337.51.723.305 1.008a.66.66 0 0 1-.52.234.9.9 0 0 1-.595-.22c-.356-.311-.459-.829-.23-1.114a.49.49 0 0 1 .406-.18z"/></svg>