<svg xmlns="http://www.w3.org/2000/svg" width="32" height="32" viewBox="0 0 32 32"><path d="M16 0C7.163 0 0 7.163 0 16s7.163 16 16 16 16-7.163 16-16S24.837 0 16 0zm0 5 7.527 4.36-.988.57L16 6.14l-8.516 4.934v9.856l8.512 4.925 8.51-4.925v-7.674l.994-.57V21.5L16 27l-9.5-5.5v-11zm8.494 4.934.98.57v1.158l-.98.545-.98-.545v-1.158zm-12.299 1.35h4.748a3.15 3.15 0 0 1 2.213.929 3.18 3.18 0 0 1 .928 2.223 3.1 3.1 0 0 1-.555 1.783 3.1 3.1 0 0 1-1.367 1.123 5.5 5.5 0 0 1-1.697.258h-2.848v3.336h-1.422v-4.79h4.744a1.7 1.7 0 0 0 1.196-.507c.316-.32.492-.753.496-1.203a1.66 1.66 0 0 0-.5-1.198 1.7 1.7 0 0 0-.543-.37 1.6 1.6 0 0 0-.649-.128h-4.744zm6.399 6.986 1.455 2.544h-1.66l-1.28-2.24a5.4 5.4 0 0 0 1.485-.304z"/></svg>