<svg xmlns="http://www.w3.org/2000/svg" width="32" height="32" viewBox="0 0 32 32"><path d="M16 0C7.163 0 0 7.163 0 16s7.163 16 16 16 16-7.163 16-16S24.837 0 16 0zm-.564 5.75h1.128a.49.49 0 0 1 .42.242l4.784 8.112a.25.25 0 0 1-.079.335l-1.24.805a.243.243 0 0 1-.342-.082l-4.002-6.785a.122.122 0 0 0-.21 0l-4.002 6.785a.243.243 0 0 1-.342.082l-1.24-.805a.25.25 0 0 1-.08-.335l4.785-8.112a.49.49 0 0 1 .42-.242zM9.127 16.127a.24.24 0 0 1 .187.031l1.24.805a.25.25 0 0 1 .08.338l-1.09 1.844a.127.127 0 0 0 .042.168l6.348 4.125a.12.12 0 0 0 .13 0l6.35-4.125a.125.125 0 0 0 .041-.168L21.367 17.3a.25.25 0 0 1 .078-.338l1.24-.805a.243.243 0 0 1 .342.082l1.905 3.229a.504.504 0 0 1-.157.674l-8.51 5.529a.48.48 0 0 1-.529 0l-8.51-5.53a.5.5 0 0 1-.156-.673l1.905-3.229a.24.24 0 0 1 .152-.113z"/></svg>