<svg xmlns="http://www.w3.org/2000/svg" viewBox="0 0 32 32"><path d="M16 0C7.163 0 0 7.163 0 16s7.163 16 16 16 16-7.163 16-16S24.837 0 16 0zm-2.146 7c.606 0 .698.257.42.275-.748.045-2.378 1.534-2.378 2.97 0 .958.85 2.605 2.75 2.605 2.241 0 4.156-3.565 8.811-3.565 2.797 0 3.543 2.187 3.543 2.787s-.873.914-2.05.914c-1.179 0-1.223-2.101-3.59-2.101-3.719 0-6.887 4.025-8.407 7.037h2.625a.093.093 0 0 1 .094.094v.634a.093.093 0 0 1-.094.094h-3.01c-.208.48-.364.915-.46 1.28h2.63a.093.093 0 0 1 .094.093v.637a.093.093 0 0 1-.094.094H11.99q.074 1.749 2.936 3.152H7.607a177 177 0 0 1 2-3.152H7.094A.095.095 0 0 1 7 20.754v-.637a.093.093 0 0 1 .094-.094h3.05q.45-.682.852-1.279H7.932a.09.09 0 0 1-.092-.094v-.634a.093.093 0 0 1 .092-.094h3.623c1.936-2.83 2.906-3.993 2.906-4.113 0-.183-.041-.274-.701-.274-1.305 0-3.45-.93-3.45-3.472C10.31 8.68 12.549 7 13.855 7z"/></svg>