<svg xmlns="http://www.w3.org/2000/svg" width="32" height="32" viewBox="0 0 32 32"><path d="M16 0C7.163 0 0 7.163 0 16s7.163 16 16 16 16-7.163 16-16S24.837 0 16 0zm-5.31 9c1.28 0 2.256.533 2.906 1.467v-1.27h2.888v12.746h.858v-3.632h.894a4 4 0 0 0 .014.209 6 6 0 0 0 .076.48 6 6 0 0 0 .438 1.357c.533 1.134 1.348 1.784 2.529 1.784.924 0 1.638-.37 2.143-1.022.428-.55.67-1.282.67-1.896 0-.787-.298-1.367-.893-1.858-.484-.4-1.042-.681-2.192-1.158l-.203-.084c-1.195-.495-1.748-.767-2.285-1.191-.742-.586-1.137-1.315-1.137-2.245 0-1.114.404-2.058 1.122-2.726A3.66 3.66 0 0 1 21.012 9c1.28 0 2.259.534 2.908 1.469V9.252h.894v4.42h-.894c0-.923-.214-1.859-.63-2.55-.493-.818-1.232-1.263-2.278-1.263a2.75 2.75 0 0 0-1.873.72c-.54.502-.846 1.223-.846 2.108 0 .66.265 1.15.809 1.58.449.356.955.604 2.072 1.067l.203.084c1.233.511 1.844.82 2.42 1.295.787.649 1.203 1.465 1.203 2.51 0 .797-.302 1.707-.846 2.41-.669.864-1.646 1.367-2.863 1.367-.842 0-1.565-.256-2.16-.729a4 4 0 0 1-.895-1.027v1.559h-2.644V10.057H14.49v3.615h-.892c0-.923-.214-1.859-.631-2.55-.492-.818-1.232-1.263-2.278-1.263a2.75 2.75 0 0 0-1.873.72c-.54.502-.847 1.223-.847 2.108 0 .66.266 1.15.81 1.58.45.356.954.604 2.07 1.067l.204.084c1.233.511 1.844.82 2.42 1.295.787.649 1.205 1.465 1.205 2.51 0 .797-.304 1.707-.848 2.41-.669.864-1.644 1.367-2.861 1.367-.842 0-1.565-.256-2.16-.729a4 4 0 0 1-.914-1.054v1.531H7v-4.44h.895v.003c0 .02.006.104.02.203a6 6 0 0 0 .08.482c.096.47.243.935.442 1.36.536 1.136 1.353 1.785 2.534 1.785.924 0 1.637-.37 2.142-1.022.428-.55.67-1.282.67-1.896 0-.787-.297-1.367-.892-1.858-.484-.4-1.042-.681-2.192-1.158l-.203-.084c-1.195-.495-1.746-.767-2.283-1.191-.742-.586-1.139-1.315-1.139-2.245 0-1.114.403-2.058 1.121-2.726A3.66 3.66 0 0 1 10.69 9z"/></svg>