<svg xmlns="http://www.w3.org/2000/svg" viewBox="0 0 32 32"><path d="M16 0C7.163 0 0 7.163 0 16s7.163 16 16 16 16-7.163 16-16S24.837 0 16 0zm-3.16 10.002c.306 0 .305.312.305.375 0 .374.062.809.367.996-.244.749-.734 1.748-1.53 1.686-.55-.063-.672-.999-.55-1.686.55-.187 1.04-1.371 1.408-1.371zm3.181 0c.612 0 .612 1.185 1.102 1.435 0 .313-.182 1.684-1.162 1.684-.857 0-1.042-1.123-1.102-1.684.734-.311.49-1.435 1.162-1.435zm3.243 0c.307-.062.919 1.184 1.408 1.371.184.811.061 1.623-.55 1.686-.858.125-1.285-.999-1.53-1.686.245-.187.305-.622.365-.996 0-.063 0-.375.307-.375zm-9.055.062c.183.062.06.375.06.375-.121.375-.182.747 0 .934-.366.749-.98 1.81-1.53 1.748-.612-.124-.121-1.559-.06-1.684.368-.186 1.223-1.373 1.53-1.373zm11.686 0c.306 0 1.164 1.187 1.53 1.374.062.123.55 1.558-.062 1.683-.612.063-1.161-1.061-1.527-1.748.122-.187.122-.56 0-.934 0-.062-.124-.375.059-.375zm-13.645.188c.245.062-.428.686-.367.998-.184.311-1.04 1.871-1.346 1.871-.245 0-.245-.812.367-1.748.122-.062.918-1.121 1.346-1.121zm15.604 0c.306 0 1.225 1.059 1.285 1.121.674.998.672 1.746.427 1.746-.367 0-1.162-1.557-1.345-1.869.06-.312-.611-.998-.367-.998zm-13.28 1.185h.43c-.123.935.122 1.372.305 1.622h.002c-.367.999-.735 1.558-1.225 1.558-.612 0-.674-1.308-.674-1.433.49-.374.856-1.123 1.162-1.746zm3.307 0a1.24 1.24 0 0 0 .672 0c.123.935.429 1.372.674 1.622-.184.687-.43 1.558-1.47 1.558-.55-.062-.857-.81-.98-1.433.612-.436.92-1.186 1.104-1.746zm3.61 0a1.24 1.24 0 0 0 .671 0c.184.561.49 1.31.98 1.684-.06.748-.368 1.373-.98 1.436-.918.062-1.163-.812-1.346-1.498.306-.188.613-.749.674-1.621zm3.488 0c.183.063.305.063.427 0 .367.686.734 1.372 1.162 1.684 0 .187-.06 1.436-.672 1.436h-.001c-.428.062-.795-.5-1.223-1.498.244-.25.429-.749.307-1.621zm2.69 0h.245c0 .063.856 1.56 1.162 1.747.123.686.123 1.371-.244 1.433-.306 0-.55-.311-.978-1.558.062-.25.183-.687-.184-1.621zm-15.603.061h.245v.002c-.306.872-.183 1.31-.061 1.62-.489 1.247-.735 1.56-1.102 1.56-.367-.062-.366-.81-.244-1.434.367-.25 1.162-1.685 1.162-1.748zm-1.529.063c.183-.062-.49.874-.428 1.31.061.624-.675 1.684-.736 1.621-.244-.062.246-2.307 1.164-2.93zm18.906.002c.98.622 1.348 2.867 1.164 2.93-.06.062-.733-1.06-.673-1.622.06-.437-.55-1.372-.49-1.309zm-13.705 1.746c.245.125.49.123.795.06.123.687.306 1.123.735 1.373-.184 1.122-.551 2.246-1.346 2.246-.735 0-1.101-1.498-1.162-2.246.245-.125.733-.81.978-1.433zm-5.445.06c.061 0 .183.063.244 0-.06.811.062 1.186.184 1.373 0 0-.305 2.3-.612 2.309-.429 0-.551-1.623-.43-2.309a5.8 5.8 0 0 0 .614-1.373zm2.201 0a.367.367 0 0 0 .49 0c0 .811.244 1.187.428 1.31-.184 1.062-.428 2.31-.978 2.31-.49 0-.734-1.125-.795-2.247.49-.187.794-1.248.855-1.373zm11.871 0c.244.562.674 1.249 1.041 1.436-.06.749-.49 2.246-1.164 2.246-.918.063-1.162-1.061-1.346-2.246.367-.25.613-.747.674-1.371.245.062.55.06.795-.065zm3.244 0c0 .125.367 1.187.795 1.498 0 1.061-.305 2.246-.795 2.246-.55 0-.795-1.185-.978-2.308.183-.187.428-.623.428-1.371a.59.59 0 0 0 .55-.065zm1.957 0a.183.183 0 0 0 .247 0 8 8 0 0 0 .548 1.373c.061.685-.06 2.308-.367 2.246-.306 0-.611-2.308-.611-2.308.123-.187.244-.624.183-1.31zm-9.851.065c.307.125.612.062.857 0 .184.624.49 1.183.795 1.433-.183 1.56-.734 2.121-1.346 2.121-.856 0-1.285-1.809-1.285-2.12.184-.125.735-.5.979-1.434zm-8.69 1.496h.307c0 1.31.368 1.933.553 2.183-.062.686.06 1.621-.49 1.621-.245 0-.552-.31-.858-1.558h-.002c.123-.25.123-.313.49-2.246zm2.877 0c.123.062.307.062.49 0 .062 1.31.429 1.871.735 2.183-.122 1.06-.43 1.621-.797 1.621-.735 0-1.162-1.184-1.162-1.558.367-.374.551-1.061.734-2.246zm3.793 0c.244.062.552.062.735 0 .123.935.367 1.623.857 2.12-.122.999-.613 1.684-1.225 1.684-.978 0-1.345-1.371-1.406-1.558.428-.312.672-1 1.04-2.246zm4.102 0c.122.062.426.062.732 0 .184 1.247.491 1.934 1.041 2.246-.06.187-.55 1.558-1.408 1.558-.674.062-1.039-.747-1.223-1.683.428-.498.735-1.186.858-2.121zm3.914 0a.66.66 0 0 0 .49 0c.245 1.123.429 1.872.735 2.246-.062.374-.55 1.558-1.163 1.558-.367 0-.672-.623-.794-1.62.306-.25.672-.874.732-2.184zm3.06 0c.123.062.183 0 .305 0 .306 1.933.367 1.996.49 2.246-.306 1.185-.611 1.558-.855 1.558-.552 0-.43-.997-.49-1.62.244-.25.55-.874.55-2.184zm1.897 0c.184-.063.733 2.681-.184 3.68-.123.124-.123-1.434-.123-1.434.306-.5.185-2.121.307-2.246zm-21.355.062c.183.063.061 1.684.306 2.246 0 0 0 1.559-.123 1.434-.918-1.123-.305-3.742-.184-3.68zm10.402 2.309c.245.125.612.062.857 0 .184.874.367 1.433.795 1.683-.122.998-.734 1.684-1.285 1.684-.795 0-1.162-1.247-1.285-1.746.368-.312.612-.811.918-1.621zm4.1.06c.183.063.488.125.794 0 .122.874.247 1.311.614 1.498-.061.312-.736 1.56-1.409 1.684-.857.188-.918-.998-.918-1.621.428-.25.734-.812.918-1.56zm3.488 0a.56.56 0 0 0 .55 0c0 .75.062 1.248.368 1.498-.245.624-1.04 1.809-1.53 1.809-.245 0-.368-.436-.246-1.746.367-.25.674-.875.858-1.56zm-17.194.063h.245c.306 1.186.734 1.56.734 1.56.306 1.434.305 1.809.06 1.684-.55-.186-.978-1.247-1.162-1.746a28 28 0 0 1 .123-1.498zm2.143 0c.183.063.427.063.549 0 .183.812.49 1.31.857 1.56.122 1.31 0 1.746-.246 1.746-.55 0-1.284-1.185-1.53-1.808.246-.312.308-.811.37-1.498zm3.24 0c.306.125.613.063.797 0 .183.812.489 1.31.918 1.56 0 .686-.062 1.808-.918 1.621-.735-.187-1.346-1.433-1.408-1.683.306-.25.49-.686.611-1.498zm14.32.062h.245c0 .5 0 1.311.123 1.498-.245.5-.673 1.558-1.162 1.746-.307.062-.248-.311.058-1.683 0 0 .43-.438.736-1.56zm-12.117 1.498c.244.062.552.062.735 0 .123.561.307 1.371.857 1.746-.06.686-.246 1.062-.674 1.124-.306.125-1.162.124-1.468-.999h.001c.428-.31.488-.998.55-1.87zm11.016.063c-.245 1.373-.306 1.495-.246 1.683-.428.81-.856 1.124-1.406 1.124-.245 0-.123-.437.183-.999 0 0 .734-.623 1.162-1.746.061.062.185.063.307-.062zm-14.688.062c.184.062.369.062.49 0 .368.873.675 1.434 1.165 1.746.06.437-.002.937-.186.999-.673.312-1.284-.499-1.59-.999.245-.312.244-.81.121-1.746zm7.588 0q.367.093.735 0h.002c0 .748.181 1.434.548 1.871-.306 1.06-1.16 1.06-1.466.999-.43-.125-.552-.5-.674-1.124.489-.436.733-1.185.855-1.746zm3.856 0c.122.062.306.062.49 0-.062.936-.063 1.434.121 1.746-.245.5-.917 1.249-1.59.999-.244-.062-.243-.562-.183-.999.55-.312.917-.936 1.162-1.746zm-14.135.063c.123 0 .185 0 .307.062C8.068 20.356 8.8 20.98 8.8 20.98c.245.5.367.999.183.999-.55.062-.98-.313-1.408-1.124.061-.187.001-.311-.244-1.683z"/></svg>