<svg xmlns="http://www.w3.org/2000/svg" viewBox="0 0 32 32"><path d="M16 0C7.163 0 0 7.163 0 16s7.163 16 16 16 16-7.163 16-16S24.837 0 16 0zm.05 6a.73.73 0 0 1 .376.104l10.21 6.048a.744.744 0 0 1-.003 1.282l-10.211 5.943a.73.73 0 0 1-.74 0l-9.643-5.66.008 1.736a.76.76 0 0 0 .377.656l9.627 5.61 9.785-5.79a.74.74 0 0 1 1.107.64v2.626a.74.74 0 0 1-.361.637l-10.156 6.064a.73.73 0 0 1-.746.002L5.26 19.773a.53.53 0 0 1-.19-.72.52.52 0 0 1 .717-.192l10.264 6.034 9.845-5.877v-1.903l-9.472 5.606a.74.74 0 0 1-.742.002l-9.784-5.7A1.82 1.82 0 0 1 5 15.453V12.98a1 1 0 0 1 .008-.097.53.53 0 0 1 .248-.543l10.42-6.236A.73.73 0 0 1 16.05 6zm.003 1.105L6.555 12.79l9.498 5.584 9.593-5.584z"/></svg>