<svg xmlns="http://www.w3.org/2000/svg" width="32" height="32" viewBox="0 0 32 32"><path d="M16 0C7.163 0 0 7.163 0 16s7.163 16 16 16 16-7.163 16-16S24.837 0 16 0zm.05 6c.49.912.87 1.476 1.76 2.588h-3.57c.93-1.145 1.312-1.703 1.81-2.588zm-2.06 3.084h4.07c3.404 3.565 4.27 4.195 5.096 4.422-2.875-.36-4.498-.564-7.207-1.986l-1.709 1.99L25 15.9c-3.366 2.862-4.824 4.387-6.94 7.014h-4.072c-1.789-2.618-2.98-3.467-5.277-4.525 3.057.28 4.755.47 7.238 1.94l1.862-2.09L7 15.9c2.514-2.072 3.977-3.454 6.99-6.816zm.25 14.328h3.57C16.88 24.557 16.499 25.115 16 26c-.49-.912-.87-1.476-1.76-2.588z"/></svg>