<svg xmlns="http://www.w3.org/2000/svg" width="32" height="32" viewBox="0 0 32 32"><path d="M16 0C7.163 0 0 7.163 0 16s7.163 16 16 16 16-7.163 16-16S24.837 0 16 0zm1.11 6.004c.678-.035 1.44.173 1.915.557l6.055 4.918c.632.513 1.033 1.572.893 2.351l-1.362 7.525c-.142.784-.892 1.648-1.664 1.918L15.53 25.88c-.772.272-1.92.073-2.552-.44L6.92 20.523c-.633-.513-1.034-1.57-.89-2.353l1.359-7.524C7.53 9.862 8.28 9 9.053 8.73l7.42-2.608c.193-.068.41-.105.636-.117zm-1.385 5.31a5.76 5.76 0 0 1-2.748 2.225l-.258 1.32h1.238s-.419 1.893-.559 2.592c-.352 1.78.528 3.043 1.881 3.043h2.287l.4-1.69h-1.913c-.85 0-.806-.465-.64-1.29l.526-2.662 2.83.003.301-1.529-2.832.004.4-2.016z"/></svg>