<svg xmlns="http://www.w3.org/2000/svg" width="32" height="32" viewBox="0 0 32 32"><path d="M16 0C7.163 0 0 7.163 0 16s7.163 16 16 16 16-7.163 16-16S24.837 0 16 0zm0 4a12 12 0 0 1 12 12c0 6.627-5.373 12-12 12S4 22.627 4 16 9.373 4 16 4zm0 3.94-6.7 3.25v6.39l6.7 3.87 6.71-3.87v-6.39zm0 .77 6 2.94-4.6 2.47a2 2 0 0 0 .6-1.36v-.09c0-1.15-1.87-2.94-1.93-3-.06 0-1.93 1.84-1.93 3v.08a2.05 2.05 0 0 0 .74 1.49L10 11.62zM10 12l4.27 2.3a4 4 0 0 0-.48 0c-1.49.05-2.16 2.07-3.1 2a8.2 8.2 0 0 0 3 1.55 2 2 0 0 0 2.17-1.31l.01 4.04L10 17.19zm12 0v5.18l-5.82 3.32v-4a2 2 0 0 0 2.17 1.3 8.2 8.2 0 0 0 3-1.55c-.94.11-1.62-1.9-3.1-2a4 4 0 0 0-.48 0zM9.29 18.28v.37l6.76 3.9 6.68-3.86v-.36l-6.68 3.86zm0 .72v.4l6.76 3.9 6.68-3.86v-.39l-6.68 3.86zm0 .78v.37l6.76 3.9 6.68-3.86v-.37l-6.68 3.86z"/></svg>