<svg xmlns="http://www.w3.org/2000/svg" width="32" height="32" viewBox="0 0 32 32"><path d="M16 0C7.163 0 0 7.163 0 16s7.163 16 16 16 16-7.163 16-16S24.837 0 16 0zm.004 4.037a3.8 3.8 0 0 1 1.902.51l7.16 4.135a3.82 3.82 0 0 1 1.905 3.297v8.433a3.82 3.82 0 0 1-1.905 3.295l-7.16 4.135a3.81 3.81 0 0 1-3.806 0l-7.16-4.135a3.82 3.82 0 0 1-1.903-3.295V11.98A3.82 3.82 0 0 1 6.94 8.682l7.163-4.133a3.8 3.8 0 0 1 1.902-.51zm0 1.563c-.393 0-.781.103-1.123.3l-7.16 4.133a2.25 2.25 0 0 0-1.123 1.946v8.433a2.25 2.25 0 0 0 1.123 1.945l7.162 4.135a2.25 2.25 0 0 0 2.244 0l7.16-4.135a2.25 2.25 0 0 0 1.123-1.945V11.98a2.25 2.25 0 0 0-1.123-1.946L17.13 5.9a2.25 2.25 0 0 0-1.123-.3zm.002 3.921a.5.5 0 0 1 .224.057l2.125 1.16-1.066 1.846a.47.47 0 0 1-.404.234h-1.758a.47.47 0 0 1-.404-.234l-1.067-1.846 2.125-1.16a.5.5 0 0 1 .225-.057zm-3.035 1.592 1.074 1.862a.47.47 0 0 1 0 .466l-.861 1.495a.47.47 0 0 1-.407.234h-1.855a13 13 0 0 1-.291-2.492.47.47 0 0 1 .242-.42zm6.068 0 2.098 1.145a.47.47 0 0 1 .244.42 13 13 0 0 1-.291 2.492h-1.858a.47.47 0 0 1-.404-.234l-.861-1.495a.47.47 0 0 1 0-.466zm-3.912 2.485h1.758a.47.47 0 0 1 .404.234l.863 1.492a.47.47 0 0 1 0 .469l-.863 1.492a.47.47 0 0 1-.404.235h-1.758a.47.47 0 0 1-.406-.235l-.862-1.492a.47.47 0 0 1 0-.469l.862-1.492a.47.47 0 0 1 .406-.234zm-4.012 2.351h1.664a.47.47 0 0 1 .405.235l.863 1.492a.47.47 0 0 1 0 .469l-1.035 1.79a13.1 13.1 0 0 1-1.897-3.986zm8.117 0h1.663A13.1 13.1 0 0 1 19 19.936l-1.035-1.791a.47.47 0 0 1 0-.47l.861-1.491a.47.47 0 0 1 .406-.235zm-4.105 2.352h1.76a.47.47 0 0 1 .404.232l1.2 2.08a13.2 13.2 0 0 1-2.198 2.16.47.47 0 0 1-.572 0 13.2 13.2 0 0 1-2.2-2.16l1.2-2.08a.47.47 0 0 1 .406-.232z"/></svg>