<svg xmlns="http://www.w3.org/2000/svg" viewBox="0 0 32 32"><path d="M16 0C7.163 0 0 7.163 0 16s7.163 16 16 16 16-7.163 16-16S24.837 0 16 0zm0 6c5.523 0 10 4.477 10 10 0 4.44-2.895 8.205-6.9 9.51V22.5a7.2 7.2 0 0 0 2.1-9.545V15.4h-3.5v7.598a7 7 0 0 0 .6-.174v2.91a10.1 10.1 0 0 1-4 .121V15.4h-3.5v-2.445a7.2 7.2 0 0 0 2.1 9.545v3.01C8.895 24.205 6 20.44 6 16c0-5.523 4.477-10 10-10zm-5.2 6.955a7 7 0 0 1 .446-.355h-.445zm.446-.355h9.508a7.2 7.2 0 0 0-9.508 0zm9.508 0a7 7 0 0 1 .445.355V12.6z"/></svg>