<svg xmlns="http://www.w3.org/2000/svg" width="32" height="32" viewBox="0 0 32 32"><path d="M16 0C7.163 0 0 7.163 0 16s7.163 16 16 16 16-7.163 16-16S24.837 0 16 0zM4.355 13h1.012a.346.346 0 0 1 .34.275l.01.073v3.927h3.806v-3.927A.346.346 0 0 1 9.87 13h.985a.346.346 0 0 1 .345.348v5.164a.46.46 0 0 1-.459.46H4.46a.46.46 0 0 1-.451-.376L4 18.512v-5.164A.354.354 0 0 1 4.355 13zm16.829 0h6.28a.46.46 0 0 1 .46.459v5.166a.35.35 0 0 1-.27.34l-.068.008h-1.012a.35.35 0 0 1-.34-.278l-.007-.07v-3.703a.23.23 0 0 0-.165-.217l-.06-.008h-3.348a.23.23 0 0 0-.216.164l-.008.06v3.704a.35.35 0 0 1-.348.348H21.07a.35.35 0 0 1-.34-.278l-.005-.07v-5.164a.46.46 0 0 1 .459-.461zm-8.475.037h.002a.4.4 0 0 1 .252.084l2.793 1.924a.32.32 0 0 0 .385 0l2.793-1.924a.464.464 0 0 1 .722.375v5.139a.33.33 0 0 1-.328.345h-1.012a.346.346 0 0 1-.347-.345v-2.662l-1.772 1.105a.46.46 0 0 1-.488 0l-1.762-1.105v2.662c0 .187-.15.345-.347.345h-1.002a.35.35 0 0 1-.34-.275l-.008-.07v-5.139a.46.46 0 0 1 .459-.459zm11.11 2.746h1.001a.346.346 0 0 1 .348.348v1.021c0 .187-.15.348-.348.348h-1.002a.35.35 0 0 1-.347-.348v-1.03a.344.344 0 0 1 .347-.339z"/></svg>