<svg xmlns="http://www.w3.org/2000/svg" width="32" height="32" viewBox="0 0 32 32"><path d="M16 0a15.93 15.93 0 0 0-9.588 3.19l.102.11q5.786 6.363 6.285 6.932l.02.026.175.205-.015.32c-.02.422-.151.702-.467.994-.364.335-.808.517-1.504.612-.427.058-.582.122-.754.312-.166.182-.23.409-.275.985-.071.89-.175 1.268-.596 2.152-.408.854-.492 1.176-.42 1.633.087.557.402.963 1.139 1.467.562.384.817.631.957.93.086.182.096.25.095.568-.003.487-.08.684-.414 1.039-.539.574-1.497 1.042-2.676 1.308-.493.111-.513.11-.513-.004 0-.143-.184-.509-.502-1.002-.368-.57-.513-.855-.65-1.287a3.4 3.4 0 0 1-.18-1.344c.022-.488.075-.703.27-1.09.154-.306.255-.446.865-1.208 1.044-1.301 1.418-2.062 1.552-3.139.12-.96.287-1.425.656-1.838.222-.248.272-.341.272-.521 0-.09-.354-.75-1.4-2.621A253 253 0 0 1 6.84 5.86l-.031-.06q-.007-.018-.004-.018l.011.012a189 189 0 0 1 1.711 2.633c.853 1.322 1.363 2.096 1.633 2.48l.086.12a2 2 0 0 0 .135.167c.183.173.433.28.656.28.196 0 .59-.11.781-.22.344-.195.42-.444.22-.722q-.18-.248-5.495-6.758l-.25-.306-.094-.113A15.97 15.97 0 0 0 0 16c0 8.837 7.163 16 16 16s16-7.163 16-16S24.837 0 16 0zm-3.652 5.684c.299.003.72.052 1.035.127.977.233 1.864.827 2.814 1.884l.252.282.362-.057c1.52-.245 3.066-.051 4.359.547.356.164.918.491.988.576.022.026.063.199.09.383.096.637.049 1.123-.146 1.488-.105.198-.112.262-.041.432a.42.42 0 0 0 .373.234c.322 0 .668-.52.828-1.242l.062-.287.127.142c.692.783 1.235 1.854 1.328 2.614l.026.199-.117-.182c-.2-.31-.402-.521-.659-.691-.465-.307-.956-.412-2.256-.48-1.174-.063-1.838-.162-2.496-.376-1.12-.366-1.685-.852-3.017-2.6-.591-.775-.958-1.205-1.32-1.55-.828-.786-1.638-1.197-2.678-1.36-.285-.043-.298-.05-.164-.07.064-.01.15-.014.25-.013zm10.433.414a.8.8 0 0 1-.054.205c-.104.303-.12.719-.05 1.203.09.614.142.7.79 1.363.305.312.659.704.787.873l.232.307-.232-.22c-.286-.268-.941-.788-1.086-.862-.097-.05-.112-.05-.172.01-.055.055-.067.137-.074.527-.012.608-.095 1-.295 1.39-.107.212-.125.165-.027-.074.073-.178.08-.253.08-.843-.001-1.184-.142-1.47-.967-1.957a9 9 0 0 0-.764-.397 3 3 0 0 1-.375-.182c.023-.024.828.211 1.15.336.483.185.563.21.622.188.039-.014.057-.13.076-.465.03-.52.1-.863.242-1.176.056-.124.11-.226.117-.226zm-10.802.21.132.024a3.3 3.3 0 0 1 .875.326c.548.333.787.772 1.028 1.897a11 11 0 0 0 .207.83c.068.204.327.679.539.988.152.222.05.327-.285.297-.515-.047-1.21-.527-1.66-1.145-.58-.797-.937-2.02-.86-2.933zm6.097 5.092a2 2 0 0 1 .235.172c.549.44 1.164.63 2.865.877 1 .147 1.564.266 2.084.438 1.652.548 2.674 1.66 2.918 3.174.07.44.029 1.264-.086 1.699-.091.344-.368.962-.442.986-.02.006-.04-.07-.045-.178-.027-.568-.314-1.122-.796-1.537-.55-.472-1.287-.845-3.09-1.57-2.706-1.09-3.66-2.037-3.66-3.633 0-.235.007-.428.017-.428zm-4.451 1.127c.218-.01.497.032.648.11v-.002c.391.2.676.653.614.98-.076.4-.721.718-1.465.723-.38.003-.521-.048-.666-.242-.09-.12-.125-.51-.065-.73.1-.364.416-.71.743-.81a.8.8 0 0 1 .191-.029zm.246.155c-.314-.027-.63.145-.63.408 0 .174.292.365.56.365.179 0 .424-.107.502-.219.116-.163.066-.34-.13-.459a.7.7 0 0 0-.302-.095zm5.75 2.455.127.14c.177.2.318.455.438.795.09.26.1.335.1.756-.002.414-.014.5-.099.735a2.3 2.3 0 0 1-.57.908c-.495.504-1.129.782-2.047.898-.159.02-.624.053-1.033.074-1.029.054-1.707.165-2.316.38a.5.5 0 0 1-.174.04c-.024-.025.39-.27.732-.435.483-.233.963-.36 2.041-.54.531-.088 1.081-.197 1.221-.24 1.318-.404 1.994-1.446 1.777-2.736a5 5 0 0 0-.129-.572zm1.27.629a.7.7 0 0 1 .187.101c.166.112.5.3 1.385.781 1.105.602 1.734 1.071 2.162 1.604.376.467.609.998.72 1.646.064.367.026 1.25-.068 1.62-.297 1.166-.988 2.083-1.972 2.617a2.4 2.4 0 0 1-.287.142c-.014 0 .038-.133.117-.297.33-.692.367-1.367.117-2.117-.153-.459-.467-1.018-1.098-1.965-.648-.97-.863-1.313-1.029-1.646l-.064-.137c-.36-.773-.444-1.518-.247-2.215.021-.074.057-.134.077-.134zM7.357 18.912c-.117.024-.205.093-.205.192 0 .06.033.103.108.142.127.065.137.137.037.287-.101.152-.094.286.021.377.187.146.452.065.59-.18a.565.565 0 0 0-.174-.746.52.52 0 0 0-.377-.072zm7.348 1.701c.458-.019 1.003.02 1.344.108.729.186 1.379.602 1.719 1.1.33.485.473.91.62 1.853a23 23 0 0 0 .141.83c.111.488.326.877.594 1.072.425.312 1.159.332 1.879.051a1 1 0 0 1 .236-.072c.026.027-.336.268-.592.396-.345.172-.62.238-.984.238-.66 0-1.208-.334-1.664-1.02-.09-.134-.292-.539-.45-.898-.482-1.1-.72-1.435-1.28-1.802-.488-.32-1.117-.377-1.59-.145-.622.305-.797 1.1-.352 1.604a1.38 1.38 0 0 0 .778.404.83.83 0 0 0 .939-.83c0-.331-.127-.52-.447-.664-.437-.197-.909.033-.907.443.001.175.078.285.254.365.113.051.116.057.024.038-.401-.084-.495-.57-.172-.89.387-.385 1.188-.215 1.463.311.116.221.128.662.027.928-.225.595-.884.907-1.55.737-.455-.115-.64-.241-1.186-.805-.952-.98-1.32-1.17-2.692-1.385l-.263-.04.299-.253c1.005-.848 2.253-1.45 3.392-1.635.123-.02.267-.032.42-.039z"/></svg>