<svg xmlns="http://www.w3.org/2000/svg" width="32" height="32" viewBox="0 0 32 32"><path d="M16 0C7.163 0 0 7.163 0 16s7.163 16 16 16 16-7.163 16-16S24.837 0 16 0zm.035 7.084a8.44 8.44 0 0 1 4.895 1.61l-.205.105-1.375.699a6.909 6.909 0 0 0-10.217 6.926l11.597-5.908 2.4-1.223 2.815-1.438v1.723l-2.84 1.447-1.375.7-12.224 6.23-.682.348-.691.351-2.135 1.088V18.02l.727-.372a1.535 1.535 0 0 0 .834-1.484 8.44 8.44 0 0 1 8.476-9.08zm9.91 4.22v1.72l-.724.369a1.54 1.54 0 0 0-.834 1.484 8.439 8.439 0 0 1-13.371 7.475l1.49-.76.084-.045a6.909 6.909 0 0 0 10.228-6.932L11.21 20.531l-2.4 1.225L6 23.186v-1.723l2.826-1.443 1.375-.7z"/></svg>