<svg xmlns="http://www.w3.org/2000/svg" viewBox="0 0 32 32"><path d="M16 0C7.163 0 0 7.163 0 16s7.163 16 16 16 16-7.163 16-16S24.837 0 16 0zm-.6 11c.84 0 1.923.485 2.403 1.576.66-.728 1.804-1.576 3.427-1.576 1.502 0 2.764 1.03 2.764 2.848q0 1.03-1.021 4.304l2.636-.017c.771 0 1.391.64 1.391 1.431S26.381 21 25.617 21h-4.566c-.601 0-1.264-.303-1.264-1.213q0-.671 1.049-4.13.215-.536.215-.96c0-.545-.422-1.092-1.203-1.092-.453 0-1.443.183-1.743 1.153q-.3.969-1.382 5.152Q16.302 21 15.22 21c-1.083 0-1.264-.788-1.264-1.273q0-.29.865-3.48.337-1.065.336-1.55c0-.485-.359-1.092-1.201-1.092-.841 0-1.622.607-1.982 1.94q-.363 1.335-1.024 4Q10.591 21 9.328 21q-1.142 0-1.201-1.273L9.51 13.97H6.443a1.425 1.425 0 0 1-.03-2.85h5.14q1.083 0 1.322 1.031C13.597 11.242 14.56 11 15.4 11z"/></svg>