<svg xmlns="http://www.w3.org/2000/svg" viewBox="0 0 32 32"><path d="M16 0C7.163 0 0 7.163 0 16s7.163 16 16 16 16-7.163 16-16S24.837 0 16 0zm0 5c6.075 0 11 4.925 11 11s-4.925 11-11 11S5 22.075 5 16 9.925 5 16 5zm1.107 1.77-2.238.697v1.402c-3.456.538-6.103 3.52-6.103 7.125 0 3.691 2.771 6.731 6.345 7.166v2.069l2.24-.7v-1.445a7.23 7.23 0 0 0 5.44-4.682h-2.322a5.08 5.08 0 0 1-4.48 2.688 5.094 5.094 0 0 1-5.077-4.727l12.318-.017c.007-.126 0 0 0-.125 0-3.608-2.666-6.814-6.123-7.352zm-1.119 4.13a5.095 5.095 0 0 1 4.739 3.23h-9.475a5.09 5.09 0 0 1 4.736-3.23z"/></svg>