<svg xmlns="http://www.w3.org/2000/svg" viewBox="0 0 32 32"><path d="M16 0C7.163 0 0 7.163 0 16s7.163 16 16 16 16-7.163 16-16S24.837 0 16 0zm.016 5C22.08 5.004 27.008 9.934 27 16.002c-.012 6.002-4.836 10.99-11.008 10.998C9.917 26.996 5 22.07 5 15.986 5 9.916 9.933 4.996 16.016 5zm-.034 2.74q-.677.01-1.37.131c-1.84.327-3.39 1.196-4.66 2.57-.168.18-.318.374-.477.561.004.011.012.02.015.031h7.18a3 3 0 0 1-.098.178c-.437.776-.878 1.55-1.312 2.326a.2.2 0 0 1-.201.115q-3.395-.005-6.786-.002H8.14c-1.146 3.602.473 8.12 4.533 9.93 3.932 1.755 8.055.14 9.988-2.559q-5.572.012-11.15.008.044-.086.078-.142 1.475-2.604 2.955-5.203 1.297-2.277 2.586-4.557a.15.15 0 0 1 .15-.09q1.508.005 3.014.004h.143c-1.394 2.46-2.777 4.902-4.172 7.36.05.003.076.003.103.003q3.78 0 7.553.004c.085 0 .112-.03.13-.103a8.3 8.3 0 0 0 .106-4.127c-.376-1.65-1.2-3.044-2.418-4.21a7.7 7.7 0 0 0-1.84-1.296q-1.883-.962-3.916-.932zm8.186 1.324c-.504.508-.996 1.003-1.484 1.497 2.56 3.078 2.669 7.63.027 10.9l1.441 1.467c1.395-1.55 2.635-4.1 2.557-7.162-.061-2.523-.926-4.742-2.541-6.702z"/></svg>