<svg xmlns="http://www.w3.org/2000/svg" width="24" height="24" viewBox="0 0 24 24"><path d="M8.5 0A2.506 2.506 0 0 0 6 2.5v19C6 22.876 7.124 24 8.5 24h7c1.376 0 2.5-1.124 2.5-2.5v-19C18 1.124 16.876 0 15.5 0zm0 1h7c.84 0 1.5.66 1.5 1.5v19c0 .84-.66 1.5-1.5 1.5h-7c-.84 0-1.5-.66-1.5-1.5v-19C7 1.66 7.66 1 8.5 1zM15 2a1 1 0 1 0 0 2 1 1 0 0 0 0-2zM9 8a1 1 0 1 0 0 2 1 1 0 0 0 0-2zm-.5 3.5a.5.5 0 0 0 0 1h7a.5.5 0 0 0 0-1zM15 14a1 1 0 1 0 0 2 1 1 0 0 0 0-2zm-3 3a1 1 0 1 0 0 2 1 1 0 0 0 0-2zm-3 3a1 1 0 1 0 0 2 1 1 0 0 0 0-2z"/></svg>