<svg xmlns="http://www.w3.org/2000/svg" width="24" height="24" viewBox="0 0 24 24"><path d="M2.5 6A2.506 2.506 0 0 0 0 8.5v7C0 16.876 1.124 18 2.5 18h19c1.376 0 2.5-1.124 2.5-2.5v-7C24 7.124 22.876 6 21.5 6zm0 1h19c.84 0 1.5.66 1.5 1.5v7c0 .84-.66 1.5-1.5 1.5h-19c-.84 0-1.5-.66-1.5-1.5v-7C1 7.66 1.66 7 2.5 7zM3 8a1 1 0 1 0 0 2 1 1 0 0 0 0-2zm6 0a1 1 0 1 0 0 2 1 1 0 0 0 0-2zm3 0a.5.5 0 0 0-.5.5v7a.5.5 0 0 0 1 0v-7A.5.5 0 0 0 12 8zm3 0a1 1 0 1 0 0 2 1 1 0 0 0 0-2zm6 0a1 1 0 1 0 0 2 1 1 0 0 0 0-2zm-3 3a1 1 0 1 0 0 2 1 1 0 0 0 0-2zM3 14a1 1 0 1 0 0 2 1 1 0 0 0 0-2zm6 0a1 1 0 1 0 0 2 1 1 0 0 0 0-2zm6 0a1 1 0 1 0 0 2 1 1 0 0 0 0-2zm6 0a1 1 0 1 0 0 2 1 1 0 0 0 0-2z"/></svg>