<svg xmlns="http://www.w3.org/2000/svg" viewBox="0 0 24 24"><path d="m19.07 3.93-1.41 1.41A7.96 7.96 0 0 1 20 11c0 2.22-.89 4.22-2.34 5.66l1.41 1.41A9.97 9.97 0 0 0 22 11a9.97 9.97 0 0 0-2.93-7.07zM2.28 4 1 5.27l1.81 1.81a9.97 9.97 0 0 0 2.12 10.99l1.41-1.41A7.94 7.94 0 0 1 4 11c0-.82.14-1.61.37-2.36l1.67 1.67C6 10.54 6 10.77 6 11c0 1.65.67 3.15 1.76 4.24l1.41-1.41c-.35-.33-.63-.76-.83-1.22L11 15.27V19h-1a1 1 0 0 0-1 1H2v2h7a1 1 0 0 0 1 1h4a1 1 0 0 0 1-1h2.73l2 2L21 22.73l-.73-.73h.01l-2-2h-.01L11 12.71l-.72-.71-2.11-2.1-1.54-1.55-1.48-1.48L3.7 5.42zm13.96 2.76-1.41 1.41A4 4 0 0 1 16 11c0 1.11-.45 2.11-1.17 2.83l1.41 1.41A5.98 5.98 0 0 0 18 11c0-1.65-.67-3.15-1.76-4.24zM12 9c-.6 0-1.13.27-1.5.68l2.82 2.82c.41-.37.68-.9.68-1.5a2 2 0 0 0-2-2zm1 8.27L15.73 20H15a1 1 0 0 0-1-1h-1zM20.82 20 22 21.18V20z"/></svg>