<svg xmlns="http://www.w3.org/2000/svg" viewBox="0 0 24 24"><path d="m20.06 1-1.63 1.63c2.77 3.02 2.77 7.56 0 10.74L20.06 15c3.9-3.89 3.94-9.95 0-14zM9 4C6.79 4 5 5.79 5 8s1.79 4 4 4 4-1.79 4-4-1.79-4-4-4zm7.75.36-1.68 1.69c.84 1.18.84 2.71 0 3.89l1.68 1.69c2.02-2.02 2.02-5.07 0-7.27zM9 6c1.1 0 2 .9 2 2s-.9 2-2 2-2-.9-2-2 .9-2 2-2zm0 7.03c-.67 0-1.32.05-1.94.12L8 15.03l-.88 5.07H2.9V17c0-.38 1.1-1.04 2.6-1.5l-.23-.5-.62-1.24C2.69 14.42 1 15.5 1 17v5h16v-5c0-1.5-1.69-2.58-3.64-3.24L12.73 15l-.23.5c1.5.46 2.6 1.12 2.6 1.5v3.1h-4.22L10 15.03l.94-1.88c-.62-.07-1.27-.12-1.94-.12z"/></svg>