<svg xmlns="http://www.w3.org/2000/svg" viewBox="0 0 24 24"><path d="M12 2C6.5 2 2 6.04 2 11c0 4.08 5.68 11 10 11s10-6.92 10-11c0-4.96-4.5-9-10-9zm0 2c4.41 0 8 3.14 8 7s-5.5 9-8 9-8-5.14-8-9 3.59-7 8-7zM7.256 9.037a2.05 2.05 0 0 0-1.006.303c-1.22.76-1.38 2.71-.36 4.35 1.03 1.64 2.85 2.35 4.07 1.59 1.22-.78 1.37-2.71.35-4.35-.764-1.23-1.98-1.937-3.054-1.893zm9.488 0c-1.074-.044-2.29.663-3.055 1.893-1.02 1.64-.87 3.57.35 4.35 1.22.76 3.04.05 4.07-1.59 1.02-1.64.861-3.59-.359-4.35a2.04 2.04 0 0 0-1.006-.303zM9.5 17c0 .03.5 2 2.5 2s2.5-2 2.5-2-.5.75-2.5.75S9.5 17 9.5 17z"/></svg>