<svg xmlns="http://www.w3.org/2000/svg" viewBox="0 0 24 24"><path d="M13 2.05v2c1.42.19 2.77.75 3.9 1.64l1.43-1.43A9.8 9.8 0 0 0 13 2.05zm-2 .01c-1.96.2-3.81.97-5.33 2.21L7.1 5.69A8 8 0 0 1 11 4.06zM4.26 5.67A10 10 0 0 0 2 11h2c.18-1.42.75-2.77 1.63-3.9v-.04zm15.54 0L18.26 7.1c.9 1.12 1.48 2.47 1.68 3.9H22a9.8 9.8 0 0 0-2.2-5.33zM12 7l-1.57 3.44L7 12l3.43 1.58L12 17l1.56-3.42L17 12l-3.44-1.56zM2 14v5l1.6-1.6C5.38 20.17 8.47 22 12 22c4.82 0 8.87-3.45 9.8-8h-2.05c-.89 3.45-4.03 6-7.75 6-2.95 0-5.61-1.61-7-4l2-2z"/></svg>