<svg xmlns="http://www.w3.org/2000/svg" viewBox="0 0 24 24"><path d="M2.39 1.73 1.11 3l8.17 8.17-3.57 4.18C5.16 16 5.62 17 6.47 17H14c.32 0 .62-.08.89-.22l5.95 5.95 1.27-1.27zM17.61 3c-.66 0-1.17.2-1.61.5-.68.41-1.12 1.09-1.53 1.57l-2.85 3.35L16 12.8V6.38c.58-.68.93-1.38 1.61-1.38.77 0 1.39.66 1.39 1.5V7h2v-.5C21 4.56 19.5 3 17.61 3zm-8.354.082q-.2 0-.397.008a9.7 9.7 0 0 0-2.199.37l3.81 3.81 1.85-2.17c.27-.32.59-.72.98-1.1a9.6 9.6 0 0 0-3.65-.91q-.196-.008-.394-.008zM5 18c-1.1 0-2 .9-2 2s.9 2 2 2a2 2 0 0 0 2-2c0-1.11-.89-2-2-2zm10 0a2 2 0 0 0-2 2c0 1.11.89 2 2 2s2-.89 2-2c0-1.1-.9-2-2-2z"/></svg>