<svg xmlns="http://www.w3.org/2000/svg" viewBox="0 0 24 24"><path d="M17.855 2.018a8.7 8.7 0 0 0-1.894.242 5.13 5.13 0 0 0-2.73 1.24c-.49.63.168.57.708.73a6.6 6.6 0 0 1 1.42.58c.64.37 2.142 1.91.702 2.35-.56.19-1.17-.23-1.68-.45a11.6 11.6 0 0 0-2.49-.79C10.23 5.62 8.5 6 8.5 8c1.47 0 3.94.12 4.81 1.6.36.63.19 1.49-.64 1.56-.55.04-1.13-.39-1.63-.56a10.8 10.8 0 0 0-2.54-.56C7.04 9.9 5 10.14 5 12c1.28 0 4.41.03 4.85 1.75a1.21 1.21 0 0 1-1.56 1.37c-1.06-.24-1.89-.94-3.06-.74A2.5 2.5 0 0 0 3.36 16a5.56 5.56 0 0 0-.32 2.7c.11.94.64 3.3 1.96 3.3 1.3 0 2.62-.96 3.62-1.68a36.6 36.6 0 0 0 4.6-3.99 39 39 0 0 0 6.85-8.63 5.3 5.3 0 0 0 .85-3.58c-.316-1.637-1.648-2.11-3.065-2.102z"/></svg>