<svg xmlns="http://www.w3.org/2000/svg" viewBox="0 0 24 24"><path d="M12 2c-.32 0-.64.16-.83.45L6.79 9H2c-.55 0-1 .45-1 1 0 .09 0 .18.04.27l2.54 9.27c.23.84 1 1.46 1.92 1.46h7.85c-.22-.63-.35-1.3-.35-2H5.5l-2.19-8H20.7l-.58 2.11c.67.13 1.31.39 1.88.7l.97-3.54L23 10c0-.55-.45-1-1-1h-4.79l-4.38-6.56C12.64 2.16 12.32 2 12 2zm0 2.8L14.8 9H9.2zm0 8.2c-1.1 0-2 .9-2 2s.9 2 2 2 2-.9 2-2-.9-2-2-2zm9.12 2.46L19 17.59l-2.12-2.12-1.41 1.41L17.59 19l-2.12 2.12 1.41 1.42L19 20.41l2.12 2.13 1.42-1.42L20.41 19l2.13-2.12z"/></svg>