<svg xmlns="http://www.w3.org/2000/svg" viewBox="0 0 24 24"><path d="M12 2c-1.1 0-2 .9-2 2v.29C7.03 5.17 5 7.9 5 11v6l-2 2v1h9.08c-.05-.33-.08-.66-.08-1 0-3.87 3.13-7 7-7v-1c0-3.1-2.03-5.83-5-6.71V4c0-1.1-.9-2-2-2zm6 12c-.12 0-.23.09-.25.21l-.18 1.33c-.32.12-.57.29-.85.46l-1.22-.47c-.13-.03-.27 0-.33.11l-1 1.72c-.06.14-.03.25.06.32l1.06.82c-.02.17-.04.33-.04.5s.02.33.04.5l-1.06.82c-.09.07-.12.21-.06.32l1 1.73c.06.13.2.13.33.13l1.22-.53c.28.2.53.37.85.5l.18 1.32c.02.12.13.21.25.21h2c.13 0 .23-.09.25-.21l.19-1.32c.31-.13.56-.3.84-.5l1.25.53c.11 0 .24 0 .3-.13l1-1.73c.06-.11.04-.25-.06-.32l-1.05-.82a4.3 4.3 0 0 0 0-1l1.05-.82c.1-.07.12-.18.06-.32l-1-1.72c-.06-.11-.19-.14-.3-.11l-1.25.47c-.28-.17-.53-.34-.84-.46l-.19-1.33A.25.25 0 0 0 20 14zm1 3.25c.97 0 1.75.78 1.75 1.75s-.79 1.75-1.75 1.75-1.75-.78-1.75-1.75.78-1.75 1.75-1.75zM10 21a2 2 0 0 0 2 2c.39 0 .75-.12 1.06-.31-.32-.52-.56-1.09-.76-1.69z"/></svg>