<svg xmlns="http://www.w3.org/2000/svg" viewBox="0 0 24 24"><path d="M10.5 4v1.5h2.56l1.08 2.21-2.4 5.65L9.97 9h.28c.41 0 .75-.34.75-.75s-.34-.75-.75-.75H7.5c-.41 0-.75.34-.75.75s.34.75.75.75h.8l2.28 5.5H10C9.72 11.97 7.59 10 5 10c-2.76 0-5 2.24-5 5a5.002 5.002 0 0 0 9.9 1h2.35L15 9.5l.82 1.65C14.71 12.06 14 13.45 14 15c0 2.76 2.24 5 5 5s5-2.24 5-5a5.002 5.002 0 0 0-6.89-4.63L16.44 9h4.31l1-3.5h-7.02L14 4zM5 11.5c1.76 0 3.22 1.3 3.47 3H4V16h4.36a3.504 3.504 0 0 1-6.86-1c0-1.93 1.57-3.5 3.5-3.5zm14 0c1.93 0 3.5 1.57 3.5 3.5s-1.57 3.5-3.5 3.5-3.5-1.57-3.5-3.5c0-.95.38-1.82 1-2.45l1.85 3.79 1.35-.66-1.93-3.96c.38-.14.8-.22 1.23-.22z"/></svg>