<svg xmlns="http://www.w3.org/2000/svg" viewBox="0 0 24 24"><path d="M9 5v1.5h3v7.8h-1L9 10c.3-.1.5-.4.5-.7 0-.4-.3-.8-.7-.8h-2c-.5 0-.8.3-.8.7s.3.8.8.8h.6l2 4.2H7.9C7.6 12.4 6 11 4 11c-2.2 0-4 1.8-4 4s1.8 4 4 4c2 0 3.6-1.4 3.9-3.2h8.6c.2-2.4 2.1-4.3 4.5-4.3V10l-7.5-1V5zm-5 7.6c1.1 0 2.1.7 2.4 1.8H4v1.5h2.365c-.335.953-1.302 1.7-2.365 1.7-1.4 0-2.5-1.1-2.5-2.5s1.1-2.5 2.5-2.5zm17 .4c-1.7 0-3 1.3-3 3s1.3 3 3 3 3-1.3 3-3-1.3-3-3-3zm0 1.5c.8 0 1.5.7 1.5 1.5s-.7 1.5-1.5 1.5-1.5-.7-1.5-1.5.7-1.5 1.5-1.5z"/></svg>