<svg xmlns="http://www.w3.org/2000/svg" viewBox="0 0 24 24"><path d="M16 1.2c-1 0-1.8.8-1.8 1.8S15 4.8 16 4.8 17.8 4 17.8 3 17 1.2 16 1.2zm-3.6 2.9c-.47 0-.9.19-1.2.5L7.5 8.29C7.19 8.6 7 9 7 9.5c0 .63.33 1.16.85 1.47L11.2 13v5H13v-6.5l-2.25-1.65 2.32-2.35L14.8 10H19V8.2h-3.2l-1.94-3.27c-.29-.5-.86-.83-1.46-.83zM5 12a5 5 0 0 0-5 5 5 5 0 0 0 5 5 5 5 0 0 0 5-5 5 5 0 0 0-5-5zm14 0a5 5 0 0 0-5 5 5 5 0 0 0 5 5 5 5 0 0 0 5-5 5 5 0 0 0-5-5zM5 13.5A3.5 3.5 0 0 1 8.5 17 3.5 3.5 0 0 1 5 20.5 3.5 3.5 0 0 1 1.5 17 3.5 3.5 0 0 1 5 13.5zm14 0a3.5 3.5 0 0 1 3.5 3.5 3.5 3.5 0 0 1-3.5 3.5 3.5 3.5 0 0 1-3.5-3.5 3.5 3.5 0 0 1 3.5-3.5z"/></svg>