<svg xmlns="http://www.w3.org/2000/svg" viewBox="0 0 24 24"><path d="M9.06 2a5.877 5.877 0 0 0-2.25 8.14C3.59 10.24 1 12.85 1 16.06c0 .23 0 .44.03.64A4.97 4.97 0 0 1 6 12.11c.37 0 .73.05 1.07.12-.03.27-.07.5-.07.77 0 2.35 1.68 4.32 3.93 4.81-.36 2.25-2.24 3.98-4.58 4.15.22.04.43.04.65.04 2.09 0 3.93-1.06 5-2.66A6.02 6.02 0 0 0 17 22c.22 0 .43 0 .65-.04-2.34-.17-4.23-1.91-4.58-4.15C15.31 17.32 17 15.35 17 13c0-.27-.04-.5-.08-.77.35-.07.71-.12 1.08-.12 2.64 0 4.78 2.03 4.96 4.59.04-.2.04-.41.04-.64 0-3.21-2.58-5.82-5.81-5.92A5.877 5.877 0 0 0 14.94 2C16.18 2.9 17 4.34 17 6c0 1.35-.57 2.59-1.5 3.5A4.85 4.85 0 0 0 12 8.04c-1.38 0-2.62.55-3.53 1.46A4.95 4.95 0 0 1 7 6c0-1.66.81-3.1 2.06-4zM12 9.03c1.06 0 2 .42 2.73 1.08a5 5 0 0 1-5.46 0C10 9.45 10.94 9.03 12 9.03zm0 2.47a1.5 1.5 0 0 1 1.5 1.5c0 .8-.68 1.47-1.5 1.47-.83 0-1.5-.67-1.5-1.47a1.5 1.5 0 0 1 1.5-1.5zm-3.95 1.05a4.92 4.92 0 0 1 2.92 4.24C9.27 16.34 8 14.82 8 13c0-.16.03-.3.05-.45zm7.91 0c.01.15.04.29.04.45 0 1.82-1.27 3.34-3 3.79a4.98 4.98 0 0 1 2.96-4.24z"/></svg>