<svg xmlns="http://www.w3.org/2000/svg" viewBox="0 0 24 24"><path d="M11.105 1.88A4.6 4.6 0 0 0 7.87 3.12c-1.79-.12-3.42 1.01-4 2.7-.87.5-1.57 1.29-1.94 2.24-.25.76-.219 1.58.071 2.33-.31.66-.43 1.39-.35 2.11.05 1.57 1 2.97 2.43 3.61.73.3 1.51.46 2.3.45.55.01 1.09-.06 1.62-.22.74.52 1.62.79 2.5.79.5 0 1-.08 1.5-.23.71.57 1.55.95 2.44 1.1l2.12 2.5a1.69 1.69 0 0 0 1.86.55l.79-.25c.48-.16.87-.53 1.06-1 .2-.47.17-1-.06-1.45l-.77-1.49c1.27-.91 1.98-2.4 1.89-3.95 0-.37-.04-.73-.11-1.09.61-.93.91-2.02.86-3.13a4.8 4.8 0 0 0-3.58-4.47A4.34 4.34 0 0 0 15 2.58c-.44 0-.88.06-1.3.17a4.57 4.57 0 0 0-2.595-.87zm-.13 2.042q.266.007.525.078c-.43.5-.68 1.13-.68 1.79 0 .63-.78.75-.94.77-.55.05-.96.54-.88 1.1.03.55.5.95 1.07.9.57-.06 1.12-.25 1.6-.56.4.34.9.54 1.43.56.55 0 1-.45 1-1a1 1 0 0 0-1-1c-.04-.03-.28-.52-.25-.75 0-.92 3.15-2.56 4.4.4 2.25.21 2.81 1.29 2.87 2.53 0 .3-.03.6-.08.89a5.23 5.23 0 0 0-3.33-1.3 1 1 0 0 0-1 1 1 1 0 0 0 1 1 2.59 2.59 0 0 1 2.69 2.49c0 .05.6 3.18-4.53 3.25-.26-.07-.52-.12-.77-.21.74-.6 1.3-1.39 1.62-2.29h.63a1 1 0 0 0 1-1c0-.57-.45-1-1.02-1.07-1.22 0-2.33.12-2.56 1.5a3.75 3.75 0 0 1-3.19 2.13c-1.2-.13-2.22-.91-2.62-2.05a1.039 1.039 0 0 0-1.96.68q.165.42.39.81c-.59.01-1.18-.13-1.71-.4-.63-.4-1-1.09-1-1.83 0-.44 0-1 .32-1.27.75-.28 1.57-.26 2.3.06.52.19 1.1-.07 1.29-.59.19-.54-.09-1.1-.59-1.29A5.9 5.9 0 0 0 3.78 9C4 8 4.5 7.67 5.45 7.2 6 5.25 6.75 5 8.59 5.29c.812-.984 1.617-1.386 2.385-1.368zm1.53 5.406A2.67 2.67 0 0 0 10.84 10c-.57.58-.87 1.38-.84 2.19a1 1 0 0 0 1 1c.57 0 1-.45 1-1 0-.27.07-.54.23-.76.12-.1.27-.15.43-.15.55.03 1.02-.38 1.02-.92a1 1 0 0 0-.91-1.03 3 3 0 0 0-.264-.002zm5.206 8.342.62 1.3-.331.11-1-1.25z"/></svg>