<svg xmlns="http://www.w3.org/2000/svg" viewBox="0 0 24 24"><path d="M16 1c-2.45 0-4.37 1-5.78 3.03-.13 0-.33-.03-.61-.03H9c-2.59 0-4.58.26-5.95.8C1.67 5.35 1 6.42 1 8v10c0 .84.33 1.58 1 2.2V22c0 .27.11.5.3.71.2.2.42.29.7.29h1a.983.983 0 0 0 1-1v-1h8v1a.983.983 0 0 0 1 1h1c.28 0 .5-.09.7-.29.19-.21.3-.44.3-.71v-1.8c.67-.62 1-1.36 1-2.2v-3.09c1.7-.25 3.13-1.03 4.28-2.32C22.44 11.29 23 9.77 23 8c0-1.92-.67-3.58-2.05-4.95C19.58 1.67 17.92 1 16 1zm0 2c1.36 0 2.54.5 3.5 1.5 1 .96 1.5 2.14 1.5 3.5 0 1.39-.5 2.56-1.5 3.53-.96.97-2.14 1.47-3.5 1.47-1.39 0-2.56-.5-3.53-1.47S11 9.39 11 8c0-1.36.5-2.54 1.47-3.5.97-1 2.14-1.5 3.53-1.5zm-1 1v5l3.61 2.16.75-1.22-2.86-1.69V4zM3 8h6c0 2 .7 3.64 2.11 5H3zm1.5 8c.44 0 .8.13 1.08.43s.42.65.42 1.07c0 .39-.14.74-.42 1.04S4.94 19 4.5 19s-.8-.16-1.08-.46S3 17.89 3 17.5c0-.42.14-.77.42-1.07S4.06 16 4.5 16zm9 0c.44 0 .8.13 1.08.43s.42.65.42 1.07c0 .39-.14.74-.42 1.04s-.64.46-1.08.46-.8-.16-1.08-.46-.42-.65-.42-1.04c0-.42.14-.77.42-1.07s.64-.43 1.08-.43z"/></svg>