<svg xmlns="http://www.w3.org/2000/svg" viewBox="0 0 24 24"><path d="M15.93 2.42a4.03 4.03 0 0 0-1.1 3.92c1.39.36 2.47 1.44 2.83 2.83 1.12.3 2.68.15 3.92-1.1a5.25 5.25 0 0 0-2.9-1.49c.39-.58.7-1.25.79-2.03 0 0-.97.12-2.04.81a5.24 5.24 0 0 0-1.5-2.94zm-3.922 4.57A5 5 0 0 0 8.47 8.46c-1.97 1.96-1.95 5.12 0 7.08a4.983 4.983 0 0 0 7.068 0 4.995 4.995 0 0 0 0-7.08 4.98 4.98 0 0 0-3.531-1.47zM5.43 14.7c-.97-.027-2.08.292-3.01 1.23.84.84 1.87 1.34 2.9 1.49-.39.58-.7 1.26-.79 2.03 0 0 .97-.12 2.04-.81.15 1.04.65 2.09 1.5 2.94 1.25-1.24 1.4-2.8 1.1-3.92a3.94 3.94 0 0 1-2.83-2.83 4 4 0 0 0-.91-.13z"/></svg>