<svg xmlns="http://www.w3.org/2000/svg" viewBox="0 0 24 24"><path d="M2.4 1.7 1.1 3l6.6 6.6c-1.1 1.9-.8 4.4.8 6s4.1 1.9 6 .8l6.4 6.4 1.2-1.3zm13.5.7c-1.3 1.2-1.4 2.8-1.1 3.9 1.4.4 2.5 1.5 2.8 2.8 1.1.3 2.7.1 3.9-1.1-.8-.8-1.9-1.3-2.9-1.5.4-.5.7-1.2.8-2 0 0-.9.1-2 .8-.1-1-.6-2-1.5-2.9zm-3.845 4.53a4.8 4.8 0 0 0-1.655.27L12.2 9c.7.1 1.3.4 1.9.9s.8 1.2.9 1.9l1.7 1.7c.6-1.8.2-3.7-1.2-5.1a4.97 4.97 0 0 0-3.445-1.47zM9.199 11 13 14.8c-1.1.4-2.3.2-3.1-.7-.8-.8-1.1-2-.7-3.1zm-3.703 3.777A4.15 4.15 0 0 0 2.5 16c.8.8 1.9 1.3 2.9 1.5-.4.5-.7 1.2-.8 2 0 0 .9-.1 2-.8.1 1 .6 2 1.5 2.9 1.3-1.2 1.4-2.8 1.1-3.9-1.4-.4-2.5-1.5-2.8-2.8a3.7 3.7 0 0 0-.904-.123z"/></svg>