<svg xmlns="http://www.w3.org/2000/svg" viewBox="0 0 24 24"><path d="M2.39 1.73 1.11 3l7.51 7.5C6.5 8.75 4.17 8.11 4.17 8.11 5.7 12.08 7.69 14 9.28 14.97 6.47 14.59 4 16 4 16c2.68 1.19 4.64 1.23 5.94.95-1.41 1.15-1.91 2.86-1.91 2.86 1.97-.72 2.97-1.68 3.47-2.46V22h1v-4.65c.5.78 1.5 1.74 3.47 2.46 0 0-.5-1.71-1.91-2.86.33.05.71.12 1.14.14l5.64 5.64 1.27-1.27zM12 2s-1.14 2.3-1.59 5.21l3.31 3.29c.2-2.05-.11-4.87-1.72-8.5zm7.83 6.11s-2.99.83-5.33 3.21l2.12 2.1c1.11-1.15 2.25-2.82 3.21-5.31z"/></svg>