<svg xmlns="http://www.w3.org/2000/svg" viewBox="0 0 24 24"><path d="M6.5 4c-.66 0-1.22.42-1.42 1L3 11v8c0 .55.45 1 1 1h1c.55 0 1-.45 1-1v-1h5.42a4.9 4.9 0 0 1-.42-2c0-2.76 2.24-5 5-5s5 2.24 5 5v-5l-2.08-6c-.2-.58-.76-1-1.42-1zM21 16c0 .15-.03.3-.04.45l.04.05zM6.5 5.5h11L19 10H5zm0 6.5c.83 0 1.5.67 1.5 1.5S7.33 15 6.5 15 5 14.33 5 13.5 5.67 12 6.5 12zm9.54 1.107a3 3 0 0 0-1.3.274l1.94 1.94-1.35 1.359-1.99-1.95c-.54 1.09-.29 2.44.59 3.35a2.91 2.91 0 0 0 3.12.68l4.11 4.1c.18.19.45.19.63 0l1.04-1.03c.22-.18.22-.5.04-.64l-4.11-4.11c.41-1.04.18-2.26-.68-3.11a2.9 2.9 0 0 0-2.04-.863z"/></svg>