<svg xmlns="http://www.w3.org/2000/svg" viewBox="0 0 24 24"><path d="M12 .5c-1.8 0-3.6.7-5 2.1l.8.8C9 2.3 10.5 1.7 12 1.7s3 .6 4.2 1.7l.8-.8C15.6 1.2 13.8.5 12 .5zm0 2.3c-1.2 0-2.4.5-3.3 1.4l.8.8c.7-.7 1.6-1 2.5-1s1.8.3 2.5 1l.8-.8c-.9-.9-2.1-1.4-3.3-1.4zM12 5c-1.1 0-2 .9-2 2v1H6.5c-.66 0-1.22.42-1.42 1L3 15v8c0 .55.45 1 1 1h1c.55 0 1-.45 1-1v-1h12v1c0 .55.45 1 1 1h1c.55 0 1-.45 1-1v-8l-2.08-6c-.2-.58-.76-1-1.42-1H14V7a2 2 0 0 0-2-2zM6.5 9.5h11L19 14H5zm0 6.5c.83 0 1.5.67 1.5 1.5S7.33 19 6.5 19 5 18.33 5 17.5 5.67 16 6.5 16zm11 0c.83 0 1.5.67 1.5 1.5s-.67 1.5-1.5 1.5-1.5-.67-1.5-1.5.67-1.5 1.5-1.5z"/></svg>