<svg xmlns="http://www.w3.org/2000/svg" viewBox="0 0 24 24"><path d="M4.5 2c-.64 0-1.21.4-1.42 1L1 9v8a1 1 0 0 0 1 1h1a1 1 0 0 0 1-1v-4.09A1.49 1.49 0 0 1 3.1 11c.22-.6.77-1 1.4-1h.07l.7-2H3l1.5-4.5h10.59l-.17-.5c-.21-.6-.78-1-1.42-1zm5 3c-.64 0-1.21.4-1.42 1L6 12v8a1 1 0 0 0 1 1h1a1 1 0 0 0 1-1v-1h10v1a1 1 0 0 0 1 1h1a1 1 0 0 0 1-1v-8l-2.08-6c-.21-.6-.78-1-1.42-1zm0 1.5h9L20 11H8zm0 6.5a1.5 1.5 0 0 1 1.5 1.5A1.5 1.5 0 0 1 9.5 16 1.5 1.5 0 0 1 8 14.5 1.5 1.5 0 0 1 9.5 13zm9 0a1.5 1.5 0 0 1 1.5 1.5 1.5 1.5 0 0 1-1.5 1.5 1.5 1.5 0 0 1-1.5-1.5 1.5 1.5 0 0 1 1.5-1.5z"/></svg>