<svg xmlns="http://www.w3.org/2000/svg" viewBox="0 0 24 24"><path d="M1 2v2h2l3.6 7.59-1.36 2.45c-.15.28-.24.61-.24.96a2 2 0 0 0 2 2h12v-2H7.42c-.14 0-.25-.11-.25-.25l.03-.12.9-1.63h7.45c.75 0 1.41-.42 1.75-1.03l3.58-6.47c.07-.16.12-.33.12-.5 0-.55-.45-1-1-1H5.21l-.94-2zm5.14 4H10v2H7.08zM11 6h3v2h-3zm4 0h3.78l-1.11 2H15zM7.56 9H10v2H8.5zM11 9h3v2h-3zm4 0h2.11L16 11h-1zm-8 9c-1.11 0-2 .89-2 2a2 2 0 0 0 2 2c1.11 0 2-.89 2-2s-.89-2-2-2zm10 0c-1.11 0-2 .89-2 2a2 2 0 0 0 2 2c1.11 0 2-.89 2-2a2 2 0 0 0-2-2z"/></svg>