<svg xmlns="http://www.w3.org/2000/svg" viewBox="0 0 24 24"><path d="M12 2 9.07 4.93H4.93v4.14L2 12l2.93 2.93v4.14h4.14L12 22l2.93-2.93h4.14v-4.14L22 12l-2.93-2.93V4.93h-4.14zm0 .59 2.34 2.34h-1.88v5.38l-.46.46-.46-.46V4.93H9.66zM5.35 5.35h3.3L7.32 6.68l3.81 3.82v.63h-.63L6.68 7.32 5.35 8.65zm3.89 0h1.89v4.54L7.91 6.68zm3.63 0h1.89l1.33 1.33-3.22 3.21zm2.48 0h3.31v3.3l-1.34-1.33-3.82 3.81h-.63v-.63l3.81-3.82zM6.68 7.91l3.21 3.22H5.35V9.24zm10.64 0 1.34 1.33v1.89h-4.55zM4.93 9.66v1.88h5.38l.46.46-.46.46H4.93v1.88L2.59 12zm14.14 0L21.41 12l-2.34 2.34v-1.88h-5.38l-.46-.46.46-.46h5.38zm-7.53 1.24.46.46.46-.46v.64h.64l-.45.46.45.46h-.64v.64l-.46-.45-.46.45v-.64h-.64l.46-.46-.46-.46h.64zm-6.19 1.97h4.54l-3.21 3.22-1.33-1.33zm5.15 0h.63v.63l-3.81 3.82 1.33 1.33h-3.3v-3.3l1.33 1.33zm2.37 0h.63l3.82 3.81 1.33-1.33v3.31h-3.3l1.33-1.34-3.81-3.82zm1.24 0h4.55v1.89l-1.34 1.33zm-2.11.36.46.46v5.38h1.88L12 21.41l-2.34-2.34h1.88v-5.38zm-.87.88v4.55H9.24l-1.33-1.34zm1.74 0 3.22 3.21-1.33 1.34h-1.89z"/></svg>