<svg xmlns="http://www.w3.org/2000/svg" viewBox="0 0 24 24"><path d="M11.25 2A3.75 3.75 0 0 0 7.5 5.75v.06c-1.09.19-2.04.76-2.67 1.56l1.2.9c.5-.62 1.31-1.02 2.22-1.02.5 0 .97.12 1.38.34l.43-1.46C9.73 6 9.37 5.87 9 5.81v-.06C9 4.5 10 3.5 11.25 3.5s2.25 1 2.25 2.25v.06c-.37.06-.73.19-1.06.32l.43 1.46c.41-.22.88-.34 1.38-.34.91 0 1.72.4 2.22 1.02l1.2-.9C17.04 6.57 16.09 6 15 5.81v-.06A3.75 3.75 0 0 0 11.25 2zm-3 6C7 8 6 8.9 6 10c0 .87.63 1.61 1.5 1.89v5.36A4.75 4.75 0 0 0 12.25 22 4.75 4.75 0 0 0 17 17.25v-3.5a.75.75 0 0 0-.75-.75.75.75 0 0 0-.75.75v3.5a3.25 3.25 0 0 1-3.25 3.25A3.25 3.25 0 0 1 9 17.25v-5.36c.87-.28 1.5-1.02 1.5-1.89 0-1.1-1-2-2.25-2zm6 0C13 8 12 8.9 12 10c0 .87.63 1.61 1.5 1.89v3.61a1 1 0 0 1-1 1 1 1 0 0 1-1-1v-1.75a.75.75 0 0 0-.75-.75.75.75 0 0 0-.75.75v1.75a2.5 2.5 0 0 0 2.5 2.5 2.5 2.5 0 0 0 2.5-2.5v-3.61c.87-.28 1.5-1.02 1.5-1.89 0-1.1-1-2-2.25-2zm-6 1.25c.55 0 1 .34 1 .75s-.45.75-1 .75-1-.34-1-.75.45-.75 1-.75zm6 0c.55 0 1 .34 1 .75s-.45.75-1 .75-1-.34-1-.75.45-.75 1-.75z"/></svg>