<svg xmlns="http://www.w3.org/2000/svg" viewBox="0 0 24 24"><path d="M12 4c-1.58 0-3 .5-4.25 1.43-1.25.95-2.08 2.19-2.5 3.72-1.25.28-2.29.93-3.08 1.95A5.58 5.58 0 0 0 1 14.58c0 1.51.54 2.8 1.61 3.85C3.68 19.5 5 20 6.5 20h2.91A5.1 5.1 0 0 1 9 18c0-2.8 2.2-5 5-5 1.61 0 3.07.77 4 2h4.96c-.1-.94-.46-1.77-1.1-2.5-.75-.87-1.71-1.37-2.86-1.5 0-1.95-.68-3.61-2.04-4.96C15.61 4.68 13.95 4 12 4zm2 11c-1.7 0-3 1.3-3 3s1.3 3 3 3c1.3 0 2.4-.8 2.8-2H19v2h2v-2h2v-2h-6.2c-.4-1.2-1.5-2-2.8-2zm0 2c.6 0 1 .5 1 1s-.4 1-1 1-1-.5-1-1 .4-1 1-1z"/></svg>