<svg xmlns="http://www.w3.org/2000/svg" viewBox="0 0 24 24"><path d="M12 2C6.5 2 2 6.5 2 12s4.5 10 10 10 10-4.5 10-10S17.5 2 12 2zm.006 3.82a.53.53 0 0 1 .295.09l5.648 3.76.012.01.039.02v.02l.03.02.03.03.02.03.02.03.01.02.02.04.01.02c.01.02.01.03.02.04l.01.05.01.05v3.9l-.01.05h-.01v.05l-.02.04-.01.02-.02.04-.01.02-.02.03-.02.03-.03.03-.03.02v.02l-.04.02-.01.01-5.65 3.77c-.09.05-.2.08-.3.08s-.21-.02-.29-.08l-5.66-3.77-.01-.01L6 14.3v-.02l-.03-.02-.03-.03-.02-.03-.02-.03-.01-.02-.02-.04-.01-.02c-.01-.02-.01-.03-.02-.04V14h-.01l-.01-.05v-3.9l.01-.05h.01v-.05l.02-.04.01-.02.02-.04.01-.02.03-.03.01-.03.03-.03.03-.02V9.7l.05-.02v-.01l5.66-3.76a.53.53 0 0 1 .296-.09zm-.535 1.52-4.16 2.78 1.85 1.24 2.31-1.54zm1.058 0v2.48l2.31 1.54 1.86-1.24zM12 10.74 10.12 12 12 13.26 13.88 12zm-5.12.37v1.78L8.21 12zm10.24 0-1.33.89 1.33.89zm-7.96 1.53-1.85 1.24 4.16 2.78v-2.48zm5.68 0-2.31 1.54v2.48l4.17-2.78z"/></svg>