<svg xmlns="http://www.w3.org/2000/svg" viewBox="0 0 24 24"><path d="M10 2c-.25 0-.46.18-.5.42l-.37 2.65c-.63.25-1.17.59-1.69.98l-2.49-1a.49.49 0 0 0-.61.22l-2 3.46a.49.49 0 0 0 .12.64L4.57 11l-.07 1 .07.97-2.11 1.66a.49.49 0 0 0-.12.64l2 3.46c.12.22.39.3.61.22l2.49-1.01c.52.4 1.06.74 1.69.99l.37 2.65c.04.24.25.42.5.42h3.54c-.54-.58-.93-1.25-1.19-2h-1.11l-.37-2.62a5.45 5.45 0 0 1-3.01-1.76l-2.43 1.04-.75-1.3L6.8 13.8a5.55 5.55 0 0 1 0-3.6L4.69 8.65l.75-1.3 2.41 1.04a5.5 5.5 0 0 1 3.03-1.78L11.25 4h1.5l.37 2.62c1.2.24 2.26.88 3.03 1.77l2.41-1.04.75 1.3-2.11 1.55c.2.59.3 1.21.3 1.83.16-.03.33-.03.5-.03.5 0 1 .07 1.5.19V12l-.07-1 2.11-1.63a.49.49 0 0 0 .12-.64l-2-3.46a.49.49 0 0 0-.61-.22l-2.49 1c-.52-.39-1.06-.73-1.69-.98l-.37-2.65A.505.505 0 0 0 14 2zm2 6c-2.21 0-4 1.79-4 4s1.79 4 4 4c.12 0 .24 0 .36-.04a6.05 6.05 0 0 1 3.6-3.6c.04-.12.04-.24.04-.36 0-2.21-1.79-4-4-4zm0 2a2 2 0 1 1 .001 3.999A2 2 0 0 1 12 10zm3 5v6h6v-6z"/></svg>