<svg xmlns="http://www.w3.org/2000/svg" viewBox="0 0 24 24"><path d="M10 2c-.25 0-.46.18-.5.42l-.37 2.65c-.63.25-1.17.59-1.69.98l-2.49-1a.49.49 0 0 0-.61.22l-2 3.46a.49.49 0 0 0 .12.64L4.57 11c-.04.34-.07.67-.07 1s.03.65.07.97l-2.11 1.66a.49.49 0 0 0-.12.64l2 3.46c.12.22.39.3.61.22l2.49-1.01c.52.4 1.06.74 1.69.99l.37 2.65c.04.24.25.42.5.42h3.53a5.97 5.97 0 0 1-.95-6.56c-.19.03-.38.06-.58.06-1.93 0-3.5-1.57-3.5-3.5s1.57-3.5 3.5-3.5 3.5 1.57 3.5 3.5c0 .2-.03.39-.06.58.78-.37 1.64-.58 2.56-.58.5 0 1 .07 1.5.19V12c0-.33-.03-.66-.07-1l2.11-1.63a.5.5 0 0 0 .12-.64l-2-3.46a.49.49 0 0 0-.61-.22l-2.49 1c-.52-.39-1.06-.73-1.69-.98l-.37-2.65A.505.505 0 0 0 14 2zm5 13v6h6v-6z"/></svg>