<svg xmlns="http://www.w3.org/2000/svg" viewBox="0 0 24 24"><path d="M5.79 2c-.12 0-.21.08-.23.19L5.4 3.38l-.77.44-1.13-.45c-.09-.04-.2 0-.26.1l-.9 1.56a.23.23 0 0 0 .05.29l.95.74-.03.44.03.44-.95.74a.23.23 0 0 0-.05.29l.9 1.56c.06.1.17.14.26.1l1.14-.45.76.44.16 1.19c.02.11.11.19.23.19h1.8c.11 0 .2-.08.22-.19L8 9.62l.74-.44 1.12.45c.1.04.22 0 .27-.1l.9-1.56a.24.24 0 0 0-.03-.29l-.97-.74.03-.44-.03-.44.97-.74a.24.24 0 0 0 .03-.29l-.9-1.56a.216.216 0 0 0-.27-.1l-1.12.45L8 3.38l-.19-1.19A.225.225 0 0 0 7.59 2zm.9 2.92c.87 0 1.57.71 1.57 1.58s-.7 1.57-1.57 1.57-1.58-.7-1.58-1.57a1.58 1.58 0 0 1 1.58-1.58zM14.5 9c-.18 0-.32.13-.35.29l-.26 1.86a4.8 4.8 0 0 0-1.18.69l-1.75-.71a.337.337 0 0 0-.42.16l-1.4 2.42c-.09.15-.05.34.08.45l1.48 1.15-.05.69.05.68-1.48 1.16a.35.35 0 0 0-.08.45l1.4 2.42c.08.15.27.21.42.15l1.75-.7c.36.28.75.51 1.18.69l.26 1.85c.03.17.17.3.35.3h2.8c.17 0 .32-.13.34-.3l.27-1.85c.42-.18.82-.41 1.18-.69l1.74.7c.17.06.34 0 .43-.15l1.4-2.42a.35.35 0 0 0-.08-.45l-1.48-1.16.05-.68-.05-.69 1.48-1.15c.13-.11.17-.3.08-.45l-1.4-2.42a.34.34 0 0 0-.43-.16l-1.74.71c-.36-.28-.76-.52-1.18-.69l-.27-1.86A.344.344 0 0 0 17.3 9zm1.4 4.55c1.35 0 2.45 1.1 2.45 2.45s-1.1 2.45-2.45 2.45c-1.36 0-2.45-1.1-2.45-2.45s1.09-2.45 2.45-2.45z"/></svg>