<svg xmlns="http://www.w3.org/2000/svg" viewBox="0 0 24 24"><path d="M4 2a2 2 0 0 0-2 2v12a2 2 0 0 0 2 2h4v3a1 1 0 0 0 1 1h.5c.25 0 .5-.1.7-.29L13.9 18H20a2 2 0 0 0 2-2V4a2 2 0 0 0-2-2zm8.19 3.5c.94 0 1.69.21 2.23.62q.81.63.81 1.68c0 .44-.15.83-.44 1.2-.29.36-.67.64-1.13.85-.26.15-.43.3-.52.47-.09.18-.14.4-.14.68h-2c0-.5.1-.84.29-1.08.21-.24.55-.52 1.07-.84.26-.14.47-.32.64-.54.14-.21.22-.46.22-.74 0-.3-.09-.52-.27-.69-.18-.18-.45-.26-.76-.26-.27 0-.49.07-.69.21-.16.14-.26.35-.26.63H9.27c-.05-.69.23-1.29.78-1.65.54-.36 1.25-.54 2.14-.54zM11 12h2v2h-2z"/></svg>