<svg xmlns="http://www.w3.org/2000/svg" viewBox="0 0 24 24"><path d="M17.035 1.04c-.184.01-.366.06-.535.15-.31.21-.5.56-.56.94.16.45.35.87.56 1.31A17.3 17.3 0 0 1 18.63 12c.04 3.09-.73 6.14-2.23 8.84-.4.72-.45.9-.4 1.16.07.45.37.83.79 1h.66c.38 0 .74-.54 1.38-1.82a21.1 21.1 0 0 0 2.06-6.71c.17-1.82.14-3.66-.09-5.47a21.4 21.4 0 0 0-2.17-6.58c-.2-.42-.44-.78-.72-1.14a1.4 1.4 0 0 0-.875-.24zm-4.387 2.189a1.24 1.24 0 0 0-.818.412c-.37.54-.33.74.3 2 .87 1.61 1.4 3.388 1.54 5.218.23 2.55-.28 5.111-1.46 7.381-.28.56-.59 1.11-.59 1.23-.12.58.24 1.16.81 1.32v-.05c.83.26 1.42-.35 2.26-2.24a15.82 15.82 0 0 0 .56-11.56c-.42-1.22-.99-2.38-1.71-3.44a1.27 1.27 0 0 0-.892-.271zM8.08 5.467a.85.85 0 0 0-.55.293c-.53.48-.53.74.12 2a8.99 8.99 0 0 1 0 8.68c-.45.8-.45 1.06-.45 1.26.1.38.37.7.73.86v-.06c.18.09.38.11.57.09.54-.09.81-.34 1.35-1.39.87-1.59 1.31-3.39 1.27-5.2.01-1.78-.43-3.53-1.28-5.09-.54-1.13-.9-1.44-1.54-1.44a1 1 0 0 0-.22-.003zM4.195 7.449A1.3 1.3 0 0 0 4 7.471c-.69.12-1.11.72-1 1.35.13.27.27.538.44.788.49.7.72 1.541.65 2.391.05.84-.19 1.68-.69 2.36-.4.64-.5.94-.4 1.29.13.35.39.62.72.78h.01c.6.2 1.18-.03 1.69-.8a6.62 6.62 0 0 0 0-7.27c-.438-.666-.783-.923-1.225-.91z"/></svg>