<svg xmlns="http://www.w3.org/2000/svg" viewBox="0 0 24 24"><path d="M6 2a4 4 0 0 0-4 4 4 4 0 0 0 4 4 3.9 3.9 0 0 0 1.64-.36L10 12l-2.36 2.36A3.9 3.9 0 0 0 6 14a4 4 0 0 0-4 4 4 4 0 0 0 4 4 4 4 0 0 0 4-4 3.9 3.9 0 0 0-.36-1.64L12 14l7 7h3v-1L9.64 7.64c.23-.5.36-1.05.36-1.64a4 4 0 0 0-4-4zm13 1-6 6 2 2 7-7V3zM6 4a2 2 0 0 1 2 2 2 2 0 0 1-2 2 2 2 0 0 1-2-2 2 2 0 0 1 2-2zm6 7.5a.5.5 0 0 1 .5.5.5.5 0 0 1-.5.5.5.5 0 0 1-.5-.5.5.5 0 0 1 .5-.5zM6 16a2 2 0 0 1 2 2 2 2 0 0 1-2 2 2 2 0 0 1-2-2 2 2 0 0 1 2-2z"/></svg>