<svg xmlns="http://www.w3.org/2000/svg" viewBox="0 0 24 24"><path d="M3.28 4 2 5.27l2.19 2.19A4.52 4.52 0 0 0 3 10.12L2 17.5v.25a1.75 1.75 0 0 0 1.75 1.75c.48 0 .92-.2 1.25-.5l2.97-3h4.76l6 6L20 20.72zm4.54 2L21.1 19.28c.54-.28.9-.87.9-1.53v-.25l-1-7.38A4.523 4.523 0 0 0 16.5 6zm8.68 2a.75.75 0 0 1 .75.75.75.75 0 0 1-.75.75.75.75 0 0 1-.75-.75.75.75 0 0 1 .75-.75zm-1.75 1.75a.75.75 0 0 1 .75.75.75.75 0 0 1-.75.75.75.75 0 0 1-.75-.75.75.75 0 0 1 .75-.75zm3.5 0a.75.75 0 0 1 .75.75.75.75 0 0 1-.75.75.75.75 0 0 1-.75-.75.75.75 0 0 1 .75-.75zM5 10h1.73L8 11.27V13H7v-2H5zm11.5 1.5a.75.75 0 0 1 .75.75.75.75 0 0 1-.75.75.75.75 0 0 1-.75-.75.75.75 0 0 1 .75-.75z"/></svg>