<svg xmlns="http://www.w3.org/2000/svg" viewBox="0 0 24 24"><path d="M12 2C6.5 2 2 6.5 2 12s4.5 10 10 10 10-4.5 10-10S17.5 2 12 2zm0 2c4.41 0 8 3.59 8 8s-3.59 8-8 8-8-3.59-8-8 3.59-8 8-8zm2.68 2.65-1.37.66c.79 1.56 1.19 3.12 1.19 4.69s-.4 3.11-1.19 4.65l1.37.7C15.55 15.6 16 13.82 16 12c0-1.78-.45-3.57-1.32-5.35zm-3.15 1.31-1.31.75c.53.98.78 2.02.78 3.15 0 1.14-.25 2.3-.78 3.43l1.31.65c.66-1.25.97-2.61.97-4.08 0-1.44-.31-2.74-.97-3.9zm-3.1 1.6-1.36.61c.28.59.43 1.22.43 1.88 0 .62-.15 1.22-.43 1.78l1.36.61c.38-.84.57-1.64.57-2.39q0-1.275-.57-2.49z"/></svg>