<svg xmlns="http://www.w3.org/2000/svg" viewBox="0 0 24 24"><path d="M12 2a9 9 0 1 0 9 9c0-.5-.04-1-.13-1.5C20.6 9 20 9 20 9h-2V8c0-1-1-1-1-1h-2V6c0-1-1-1-1-1h-1V3c0-1-1-1-1-1zM9.5 5c.83 0 1.5.67 1.5 1.5S10.33 8 9.5 8 8 7.33 8 6.5 8.67 5 9.5 5zm-3 4c.83 0 1.5.67 1.5 1.5S7.33 12 6.5 12 5 11.33 5 10.5 5.67 9 6.5 9zm5 1c.83 0 1.5.67 1.5 1.5s-.67 1.5-1.5 1.5-1.5-.67-1.5-1.5.67-1.5 1.5-1.5zm5 2c.83 0 1.5.67 1.5 1.5s-.67 1.5-1.5 1.5-1.5-.67-1.5-1.5.67-1.5 1.5-1.5zM11 15c.83 0 1.5.67 1.5 1.5S11.83 18 11 18s-1.5-.67-1.5-1.5.67-1.5 1.5-1.5zm-4 7v2h2v-2zm4 0v2h2v-2zm4 0v2h2v-2z"/></svg>