<svg xmlns="http://www.w3.org/2000/svg" viewBox="0 0 24 24"><path d="M12 3a9 9 0 0 0 0 18c.34 0 .67 0 1-.06V17c0-.92.42-1.74 1.07-2.29A4.51 4.51 0 0 1 18.5 11c.92 0 1.77.29 2.5.77 0-.42-.05-.85-.13-1.27C20.6 10 20 10 20 10h-2V9c0-1-1-1-1-1h-2V7c0-1-1-1-1-1h-1V4c0-1-1-1-1-1zM9.5 6c.83 0 1.5.67 1.5 1.5S10.33 9 9.5 9 8 8.33 8 7.5 8.67 6 9.5 6zm-3 4c.83 0 1.5.67 1.5 1.5S7.33 13 6.5 13 5 12.33 5 11.5 5.67 10 6.5 10zm5 1c.83 0 1.5.67 1.5 1.5s-.67 1.5-1.5 1.5-1.5-.67-1.5-1.5.67-1.5 1.5-1.5zm7 2a2.5 2.5 0 0 0-2.5 2.5v.5c-.55 0-1 .45-1 1v4c0 .55.45 1 1 1h5c.55 0 1-.45 1-1v-4c0-.55-.45-1-1-1v-.5a2.5 2.5 0 0 0-2.5-2.5zm0 1c.83 0 1.5.67 1.5 1.5v.5h-3v-.5c0-.83.67-1.5 1.5-1.5zM11 16c.83 0 1.5.67 1.5 1.5S11.83 19 11 19s-1.5-.67-1.5-1.5.67-1.5 1.5-1.5z"/></svg>