<svg xmlns="http://www.w3.org/2000/svg" viewBox="0 0 24 24"><path d="M2.39 1.73 1.11 3 6.7 8.59c-.06.14-.13.27-.2.41H3l-1 2h4.06c-.06.33-.06.66-.06 1s0 .67.06 1H3l-1 2h4.5c1.26 3.5 4.58 6 8.5 6 1.21 0 2.36-.26 3.41-.7l2.43 2.43 1.27-1.27zM15 3c-2.44 0-4.64.97-6.26 2.54l1.76 1.78C11.69 6.2 13.26 5.5 15 5.5c1.61 0 3.09.59 4.23 1.57L21 5.3A8.96 8.96 0 0 0 15 3zm-2.8 6 2 2h.8l1-2zm-3.62 2h.53l2 2H8.58c-.05-.33-.08-.66-.08-1s.03-.67.08-1zm.66 4h3.87l3.33 3.33c-.47.1-.94.17-1.44.17-2.5 0-4.68-1.42-5.76-3.5z"/></svg>