<svg xmlns="http://www.w3.org/2000/svg" viewBox="0 0 24 24"><path d="M2 3v18h2v-7h1.88l3.52 7h2.24l-3.78-7.53A5.51 5.51 0 0 0 11 8.5 5.5 5.5 0 0 0 5.5 3zm13.5 0v2.18C13.47 5.69 12 7.21 12 9c0 2.78 2.64 3.44 4.76 3.97 2.2.53 3.24.93 3.24 2.03 0 1.08-1.37 2-3 2s-3-.92-3-2h-2c0 1.79 1.47 3.31 3.5 3.82V21h3v-2.18c2.03-.51 3.5-2.03 3.5-3.82 0-2.78-2.64-3.44-4.76-3.97C15.04 10.5 14 10.1 14 9c0-1.08 1.37-2 3-2s3 .92 3 2h2c0-1.79-1.47-3.31-3.5-3.82V3zM4 5h1.5A3.5 3.5 0 0 1 9 8.5 3.5 3.5 0 0 1 5.5 12H4z"/></svg>