<svg xmlns="http://www.w3.org/2000/svg" viewBox="0 0 24 24"><path d="M2.39 1.73 1.11 3l2.07 2.07c-.1.29-.18.59-.18.93v12c0 3.71 6.89 4 9 4 1.36 0 4.7-.13 6.91-1.2l1.93 1.93 1.27-1.27zM12 2c-1.18 0-3.85.1-5.97.83l1.61 1.61C8.84 4.17 10.35 4 12 4c3.87 0 7 .89 7 2s-3.13 2-7 2h-.82l1.99 1.97c1.65-.08 4.11-.34 5.83-1.22v6.5c-.3-.15-.61-.28-.94-.39L21 17.8V6c0-3.71-6.89-4-9-4zM5 8.75c.8.4 1.76.68 2.73.87L12.11 14H12c-1.38 0-4.8.13-7 1.25zM12 16c.78 0 1.5.04 2.21.1l3.18 3.18c-1.29.44-3.22.72-5.39.72-3.87 0-7-.9-7-2s3.13-2 7-2z"/></svg>