<svg xmlns="http://www.w3.org/2000/svg" viewBox="0 0 24 24"><path d="M12 3C7.58 3 4 4.79 4 7v10c0 2.21 3.59 4 8 4 2.94 0 5.5-.8 6.9-2l-1.04-1-.36-.39c-.85.62-2.72 1.39-5.5 1.39-3.87 0-6-1.5-6-2v-2.23c1.61.78 3.72 1.23 6 1.23 1.24 0 2.41-.14 3.5-.39l-.12-.11 1-1H13.5v-.58c-.5.05-1 .08-1.5.08-2.42 0-4.7-.6-6-1.55V9.64c1.47.83 3.61 1.36 6 1.36.5 0 1-.03 1.5-.08V9.5h2.88l-.96-.96C14.5 8.81 13.37 9 12 9 8.13 9 6 7.5 6 7s2.13-2 6-2c2.78 0 4.65.77 5.5 1.4l.36-.4 1.04-1c-1.4-1.2-3.95-2-6.9-2zm6.92 4.08L17.5 8.5 20 11h-5v2h5l-2.5 2.5 1.42 1.42L23.84 12z"/></svg>