<svg xmlns="http://www.w3.org/2000/svg" viewBox="0 0 24 24"><path d="M12 3C7.6 3 4 4.8 4 7v10c0 1.8 2.4 3.3 5.7 3.8-.2-.3-.4-.7-.6-1.1l-.3-.7.2-.4c-1.9-.5-3-1.3-3-1.6v-2.2c1.3.6 2.8 1 4.6 1.2.7-.8 1.6-1.5 2.5-2H12c-2.4 0-4.7-.6-6-1.5V9.6c1.5.8 3.6 1.4 6 1.4s4.5-.5 6-1.4v2.8c-.3.2-.6.4-1 .6q1.5 0 3 .6V7c0-2.2-3.6-4-8-4zm0 2c3.9 0 6 1.5 6 2s-2.1 2-6 2-6-1.5-6-2 2.1-2 6-2zm5 10c-2.7 0-5.1 1.7-6 4 .9 2.3 3.3 4 6 4s5.1-1.7 6-4c-.9-2.3-3.3-4-6-4zm0 1.5c1.4 0 2.5 1.1 2.5 2.5s-1.1 2.5-2.5 2.5-2.5-1.1-2.5-2.5 1.1-2.5 2.5-2.5zm0 1.5c-.6 0-1 .4-1 1s.4 1 1 1 1-.4 1-1-.4-1-1-1z"/></svg>