<svg xmlns="http://www.w3.org/2000/svg" viewBox="0 0 24 24"><path d="M12 3C7.58 3 4 4.79 4 7v10c0 2.21 3.59 4 8 4 .34 0 .67 0 1-.03v-2.02c-.32.05-.65.05-1 .05-3.87 0-6-1.5-6-2v-2.23c1.61.78 3.72 1.23 6 1.23.41 0 .81-.03 1.21-.06.19-.48.47-.91.86-1.24.06-.31.16-.61.27-.9-.74.13-1.53.2-2.34.2-2.42 0-4.7-.6-6-1.55V9.64c1.47.83 3.61 1.36 6 1.36s4.53-.53 6-1.36v1.41c.17-.02.33-.05.5-.05.53 0 1.03.1 1.5.26V7c0-2.21-3.58-4-8-4zm0 2c3.87 0 6 1.5 6 2s-2.13 2-6 2-6-1.5-6-2 2.13-2 6-2zm6.5 8a2.5 2.5 0 0 0-2.5 2.5v.5c-.55 0-1 .45-1 1v4c0 .55.45 1 1 1h5c.55 0 1-.45 1-1v-4c0-.55-.45-1-1-1v-.5a2.5 2.5 0 0 0-2.5-2.5zm0 1c.83 0 1.5.67 1.5 1.5v.5h-3v-.5c0-.83.67-1.5 1.5-1.5z"/></svg>