<svg xmlns="http://www.w3.org/2000/svg" viewBox="0 0 24 24"><path d="M12 3C7.58 3 4 4.79 4 7c0 2 3 3.68 6.85 4h.05c1.2-1.26 2.86-2 4.6-2 .91 0 1.81.19 2.64.56A3.22 3.22 0 0 0 20 7c0-2.21-3.58-4-8-4zM4 9v3c0 1.68 2.07 3.12 5 3.7v-.2c0-.93.2-1.85.58-2.69C6.34 12.3 4 10.79 4 9zm11.496 2.006a4.48 4.48 0 0 0-3.176 1.324 4.49 4.49 0 0 0 0 6.36 4.51 4.51 0 0 0 5.57.63L21 22.39 22.39 21l-3.09-3.11a4.47 4.47 0 0 0-.62-5.57 4.47 4.47 0 0 0-3.184-1.314zm.006 1.996c.639 0 1.278.243 1.768.728.97.98.97 2.56 0 3.54-.98.98-2.56.97-3.54 0-.97-.98-.97-2.56.01-3.54a2.48 2.48 0 0 1 1.762-.728zM4 14v3c0 2.21 3.58 4 8 4-.4-.26-.77-.56-1.1-.9a6.5 6.5 0 0 1-1.48-2.32C6.27 17.25 4 15.76 4 14z"/></svg>