<svg xmlns="http://www.w3.org/2000/svg" viewBox="0 0 24 24"><path d="m20.72 1.73-2.35 2.39c.37.49.69 1.03.95 1.6L22 3zM12 2C8.07 2 5 5.07 5 9h2c0-2.8 2.2-5 5-5s5 2.2 5 5c0 .93-.29 2-.82 2.94-.71 1.29-1.53 1.92-2.32 2.53-.92.71-1.86 1.44-2.39 3-.5 1.5-1 2.03-1.71 2.38a1.98 1.98 0 0 1-2.33-.629L6 20.65c.75.82 1.81 1.35 3 1.35.57 0 1.13-.12 1.64-.35 1.36-.71 2.13-1.73 2.73-3.55.32-.98.9-1.43 1.71-2.05.87-.67 1.92-1.5 2.85-3.15C18.62 11.65 19 10.26 19 9c0-3.93-3.07-7-7-7zm0 4.5a2.5 2.5 0 0 0 0 5 2.5 2.5 0 0 0 0-5zm-2.25 6.37L2.4 20.73 3.67 22l8.02-8.53a4.5 4.5 0 0 1-1.94-.6zM16 17v2h2v4h2v-4h2v-2z"/></svg>