<svg xmlns="http://www.w3.org/2000/svg" viewBox="0 0 24 24"><path d="M5 3C3 3 2 5 2 6v5c0 1 1 3 3 3 .61 0 1.32-.28 2-.73V20c0 .55.45 1 1 1h1c.55 0 1-.45 1-1V8c0-2-3-5-5-5zm11.5 0C13.46 3 11 5.46 11 8.5s2.46 5.5 5.5 5.5S22 11.54 22 8.5 19.54 3 16.5 3zM5 5c.9 0 3 2.1 3 3v2.23L5.91 11.6c-.51.33-.83.4-.91.4-.7 0-1-.92-1-1V6.03C4 5.92 4.3 5 5 5zm11.5 0C18.43 5 20 6.57 20 8.5S18.43 12 16.5 12 13 10.43 13 8.5 14.57 5 16.5 5zm-2 9.68V20c0 .55.45 1 1 1h2c.55 0 1-.45 1-1v-5.32a6.3 6.3 0 0 1-2 .32 6.3 6.3 0 0 1-2-.32z"/></svg>