<svg xmlns="http://www.w3.org/2000/svg" viewBox="0 0 24 24"><path d="M12 0C7 0 3 4 3 9c0 2.8 1.3 5.4 3.3 7H6c-2.2 0-4 1.8-4 4s1.8 4 4 4h12c2.2 0 4-1.8 4-4s-1.8-4-4-4h-.3c2-1.6 3.3-4.2 3.3-7 0-5-4-9-9-9zm0 2c3.9 0 7 3.1 7 7s-3.1 7-7 7-7-3.1-7-7 3.1-7 7-7zM9.3 4.5c-1 0-1.8.8-1.8 1.8s.8 1.8 1.8 1.8 1.8-.8 1.8-1.8-.8-1.8-1.8-1.8zm5.4 0c-1 0-1.8.8-1.8 1.8s.8 1.8 1.8 1.8 1.8-.8 1.8-1.8-.8-1.8-1.8-1.8zM8.1 9c-.6 0-1 .6-1 1.2s.5 1.1 1.1 1.1 1.1-.5 1.1-1.1S8.8 9 8.1 9zm7.8 0c-.7 0-1.1.6-1.1 1.2s.5 1.1 1.1 1.1 1.1-.5 1.1-1.1S16.5 9 15.9 9zM12 10.9c-1 0-1.8.8-1.8 1.8s.8 1.8 1.8 1.8 1.8-.8 1.8-1.8-.8-1.8-1.8-1.8zM6 18h12c1.1 0 2 .9 2 2s-.9 2-2 2H6c-1.1 0-2-.9-2-2s.9-2 2-2zm0 .5c-.8 0-1.5.7-1.5 1.5s.7 1.5 1.5 1.5 1.5-.7 1.5-1.5-.7-1.5-1.5-1.5zm12 0c-.8 0-1.5.7-1.5 1.5s.7 1.5 1.5 1.5 1.5-.7 1.5-1.5-.7-1.5-1.5-1.5z"/></svg>