<svg xmlns="http://www.w3.org/2000/svg" viewBox="0 0 24 24"><path d="M12 4.5C7 4.5 2.7 7.6 1 12c1.696 4.39 5.979 7.485 11.063 7.5h.037c-.1-.3-.1-.7-.1-1 0-.5.1-1 .2-1.5H12c-2.8 0-5-2.2-5-5s2.2-5 5-5 5 2.2 5 5v.2c.5-.1 1-.2 1.5-.2 1.5 0 2.8.5 3.9 1.3.2-.4.4-.9.6-1.3-1.7-4.4-6-7.5-11-7.5zM12 9c-1.7 0-3 1.3-3 3s1.3 3 3 3 3-1.3 3-3-1.3-3-3-3zm6 5.5c-2.2 0-4 1.8-4 4s1.8 4 4 4c1.7 0 3.1-1 3.7-2.5H20c-.5.6-1.2 1-2 1-1.4 0-2.5-1.1-2.5-2.5S16.6 16 18 16c.7 0 1.3.3 1.8.7L18 18.5h4v-4l-1.2 1.2c-.7-.8-1.7-1.2-2.8-1.2z"/></svg>