<svg xmlns="http://www.w3.org/2000/svg" viewBox="0 0 24 24"><path d="M3.75 6C2.23 6 1 7.23 1 8.75v3.5C1 13.77 2.23 15 3.75 15h1.93c1.13 2.36 3.53 4 6.32 4s5.19-1.64 6.32-4h1.93c1.52 0 2.75-1.23 2.75-2.75v-3.5C23 7.23 21.77 6 20.25 6c-1.46 0-2.64 1.14-2.75 2.58l-4.95-1.42c-.18-.05-.36-.08-.55-.08-.18 0-.37.03-.55.08L6.5 8.58C6.39 7.14 5.21 6 3.75 6zm0 1.5C4.44 7.5 5 8.06 5 8.75v4.75H3.75c-.69 0-1.25-.56-1.25-1.25v-3.5c0-.69.56-1.25 1.25-1.25zm16.5 0c.69 0 1.25.56 1.25 1.25v3.5c0 .69-.56 1.25-1.25 1.25H19V8.75c0-.69.56-1.25 1.25-1.25zM12 9.08l5 1.42V12c0 2.76-2.24 5-5 5s-5-2.24-5-5v-1.5zm-.037 1.145a2.8 2.8 0 0 0-.662.076L9 11v1l2.6-.7c.2-.1.5-.1.8 0l2.6.7v-1l-2.3-.7a4 4 0 0 0-.737-.075z"/></svg>