<svg xmlns="http://www.w3.org/2000/svg" viewBox="0 0 24 24"><path d="M12 2C6.5 2 2 6.5 2 12v10h20V12c0-5.5-4.5-10-10-10zm0 2c2.9 0 5.44 1.56 6.84 3.88-.43.07-.88.12-1.34.12-2.9 0-5.44-1.56-6.84-3.88.43-.07.88-.12 1.34-.12zM8.08 5.03a8.05 8.05 0 0 1-3.66 4.44 8.05 8.05 0 0 1 3.66-4.44zm1.66 1.28A10 10 0 0 0 17.5 10c.75 0 1.47-.09 2.17-.24.21.71.33 1.46.33 2.24 0 4.41-3.59 8-8 8s-8-3.59-8-8v-.14c2.6-.98 4.69-2.99 5.74-5.55zM9 11.75a1.25 1.25 0 1 0 0 2.5 1.25 1.25 0 0 0 0-2.5zm6 0a1.25 1.25 0 1 0 0 2.5 1.25 1.25 0 0 0 0-2.5zM4 18c.57.75 1.25 1.43 2 2H4zm16 0v2h-2c.75-.57 1.43-1.25 2-2z"/></svg>