<svg xmlns="http://www.w3.org/2000/svg" viewBox="0 0 24 24"><path d="M12.5 2c-3.56 0-4.35 3.96-2.36 7.65-.41.32-.73.74-.92 1.22-.93-.19-1.98-.62-2.48-1.61C5.56 6.89 2 7 2 11.5c0 3.57 3.96 4.35 7.65 2.37.32.4.75.72 1.24.92-.2.92-.64 1.96-1.62 2.45C6.91 18.42 7 22 11.5 22c3.58 0 4.37-3.97 2.38-7.66.4-.34.71-.75.91-1.23.93.19 1.99.63 2.49 1.62 1.18 2.37 4.75 2.27 4.75-2.23 0-3.58-3.98-4.37-7.68-2.37a3.06 3.06 0 0 0-1.22-.91c.19-.93.63-1.98 1.62-2.47C17.11 5.57 17 2 12.5 2zm-.5 9a1 1 0 0 1 1 1 1 1 0 0 1-1 1 1 1 0 0 1-1-1 1 1 0 0 1 1-1z"/></svg>