<svg xmlns="http://www.w3.org/2000/svg" viewBox="0 0 24 24"><path d="M12 1c-1 0-1.84.74-2 1.71-2 .42-3.75 1.47-5.07 2.94-.22-.09-.47-.15-.73-.15a2.006 2.006 0 0 0-1.24 3.58 9.5 9.5 0 0 0 .01 5.87c-.47.37-.77.93-.77 1.55a2 2 0 0 0 2 2c.27 0 .52-.03.76-.13.43.49.92.93 1.45 1.31L5 23h2.17l.98-2.31c.6.26 1.22.47 1.85.6.16.97 1 1.71 2 1.71s1.84-.74 2-1.71a9.5 9.5 0 0 0 1.85-.6l.98 2.31H19l-1.41-3.32c.53-.39 1.02-.83 1.46-1.32.24.1.49.14.76.14 1.11 0 2-.88 2-2 0-.63-.31-1.2-.77-1.57.3-.93.46-1.93.46-2.93s-.16-2-.46-2.93a2 2 0 0 0 .77-1.57 2 2 0 0 0-2-2c-.27 0-.52.05-.75.14A9.4 9.4 0 0 0 14 2.71C13.84 1.74 13 1 12 1zm-1.87 2.71C10.41 4.46 11.14 5 12 5s1.59-.54 1.87-1.29c1.72.38 3.23 1.29 4.38 2.53-.28.35-.44.76-.44 1.26 0 1.11.89 2 2 2h.31c.25.77.38 1.62.38 2.5s-.13 1.73-.38 2.53l-.31-.03c-1.1 0-2 .91-2 2 0 .5.19.92.44 1.26-.33.35-.68.68-1.06.97l-1.9-4.46c.45-.65.71-1.43.71-2.27a4 4 0 0 0-4-4 4 4 0 0 0-4 4c0 .84.26 1.62.71 2.27l-1.9 4.46c-.37-.29-.73-.61-1.05-.96.28-.34.44-.77.44-1.27 0-1.08-.89-2-2-2l-.31.05A8.6 8.6 0 0 1 3.5 12c0-.88.13-1.72.38-2.5h.32a2 2 0 0 0 2-2c0-.47-.17-.91-.45-1.26a8.5 8.5 0 0 1 4.38-2.53zm.17 11.91c.52.25 1.09.38 1.7.38s1.18-.13 1.7-.38l1.76 4.15c-.51.23-1.04.4-1.59.52A1.99 1.99 0 0 0 12 19c-.86 0-1.59.54-1.87 1.29a8 8 0 0 1-1.59-.52z"/></svg>