<svg xmlns="http://www.w3.org/2000/svg" viewBox="0 0 24 24"><path d="M2.39 1.73 1.11 3l5.98 6C5.66 10.36 4.88 12.47 5 14.47c.06.5.12 1 .29 1.5.14.6.41 1.2.71 1.73 1.08 1.73 2.95 2.97 4.96 3.22 2.14.27 4.43-.12 6.07-1.6.07-.06.12-.14.19-.21l3.62 3.62 1.27-1.27zM13.95 3c-.95.23-1.78.75-2.49 1.32a7.7 7.7 0 0 0-1.81 2.14l9.27 9.26c.14-1 .04-2.03-.36-3l-.13-.26c-.21-.46-.77-1.26-.77-1.26-.23-.3-.51-.56-.77-.82-.67-.6-1.43-1.03-2.07-1.66C13.33 7.26 13 4.85 13.95 3zM7.26 9.15l1.32 1.32c0 .93.15 1.86.49 2.75.04.1.08.2.08.33 0 .22-.15.42-.35.5-.23.1-.47.04-.66-.12a.6.6 0 0 1-.14-.17c-1-1.29-1.26-3.07-.74-4.61zm5.38 5.38L15 16.88c-.15.23-.31.45-.5.62-.28.24-.74.5-1.1.6-1.12.4-2.24-.16-2.9-.82 1.19-.28 1.9-1.16 2.11-2.05.05-.23.05-.47.03-.7z"/></svg>