<svg xmlns="http://www.w3.org/2000/svg" viewBox="0 0 24 24"><path d="M12 1a2.5 2.5 0 0 0-2.5 2.5v.19c-.38-.28-.87-.44-1.4-.44a2.5 2.5 0 0 0-2.5 2.5c0 .99.59 1.85 1.43 2.25a2.49 2.49 0 0 0-1.43 2.25 2.5 2.5 0 0 0 2.5 2.5c.53 0 1.02-.17 1.4-.44v.19A2.5 2.5 0 0 0 12 15a2.5 2.5 0 0 0 2.5-2.5v-.19c.38.27.87.44 1.4.44a2.5 2.5 0 0 0 2.5-2.5c0-1-.59-1.85-1.43-2.25.84-.4 1.43-1.26 1.43-2.25a2.5 2.5 0 0 0-2.5-2.5c-.53 0-1.02.16-1.4.44V3.5A2.5 2.5 0 0 0 12 1zm0 4.5A2.5 2.5 0 0 1 14.5 8a2.5 2.5 0 0 1-2.5 2.5A2.5 2.5 0 0 1 9.5 8 2.5 2.5 0 0 1 12 5.5zM3 13a9 9 0 0 0 9 9c0-5-4.03-9-9-9zm9 9a9 9 0 0 0 9-9c-5 0-9 4-9 9z"/></svg>