<svg xmlns="http://www.w3.org/2000/svg" viewBox="0 0 24 24"><path d="M2.4 1.7 1.1 3l7.4 7.4c-.2.3-.4.5-.6.8-1.2 1.2-1.2 2.9-.1 4l1 1c.5.5 1.3.8 2 .8s1.4-.3 2-.8c.3-.3.6-.5.9-.7l7.2 7.2 1.2-1.2zm13.3.3c-1.1 0-2.3.4-3.3 1-1.4.9-2.3 2.1-2.7 3.5l1.7 1.7v-.3c.1-1.3.8-2.5 2-3.2.7-.5 1.5-.7 2.3-.7s1.6.2 2.3.6c1.2.8 1.9 1.9 2 3.2.2 1.3-.3 2.6-1.2 3.5-.7.7-1.6 1.1-2.6 1.2-.2 0-.3.1-.4.1l1.7 1.7c1-.3 1.9-.8 2.7-1.6 2.7-2.7 2.4-7.4-1.1-9.7-1-.7-2.2-1-3.4-1zm-5.8 9.8 2.2 2.2c-.2.3-.5.5-.8.8-.2.2-.4.2-.5.2s-.4 0-.6-.2l-1-1c-.2-.2-.2-.4-.2-.6s.1-.5.3-.7.4-.5.6-.7zm-3.2 3.5-2.5 2.4c-.6-.3-1.2-.2-1.7.3-.6.6-.6 1.5 0 2.1.3.2.6.4 1 .4 0 .4.1.7.4 1 .6.6 1.5.6 2.1 0 .5-.5.6-1.1.3-1.7l2.5-2.4c-.3-.1-.5-.3-.6-.5l-1-1c-.2-.2-.4-.4-.5-.6z"/></svg>