<svg xmlns="http://www.w3.org/2000/svg" viewBox="0 0 24 24"><path d="M3 3v1H2v2h1v14H2v2h5v-2H6V6h5v1h.5v3.62c-.5.17-.81.63-.81 1.14 0 .44.23.84.61 1.06V14h.62c.34 0 .62.27.63.61a.62.62 0 0 1-1.16.32.617.617 0 0 0-.84-.22c-.29.16-.4.54-.23.84.33.57.94.92 1.6.92a1.853 1.853 0 0 0 1.83-1.87 1.84 1.84 0 0 0-1.22-1.72v-.06a1.2 1.2 0 0 0 .5-1.62c-.11-.2-.29-.39-.5-.5V7H13V6h5v14h-1v2h5v-2h-1V6h1V4h-1V3h-3v1H6V3zm2 3.29v1.42l-1 1V7.29zm15 0v1.42l-1 1V7.29zm-15 3v1.42l-1 1v-1.42zm15 0v1.42l-1 1v-1.42zm-15 3v1.42l-1 1v-1.42zm15 0v1.42l-1 1v-1.42zm-15 3v1.42l-1 1v-1.42zm15 0v1.42l-1 1v-1.42zM5 18.24v1.42l-.34.34H4v-.76zm15 0v1.42l-.34.34H19v-.76z"/></svg>