<svg xmlns="http://www.w3.org/2000/svg" viewBox="0 0 24 24"><path d="M4 2c-1.1 0-2 .9-2 2v8a2 2 0 0 0 2 2h4v-2H4V4h16v8h-2v2h2v-.04l.04.04c1.09 0 1.96-.91 1.96-2V4a2 2 0 0 0-2-2zm9 3c-2.21 0-4 1.79-4 4 0 1.5.8 2.77 2 3.46v-1.22c-.61-.55-1-1.35-1-2.24 0-1.66 1.34-3 3-3s3 1.34 3 3c0 .89-.39 1.69-1 2.24v1.22c1.2-.69 2-1.96 2-3.46 0-2.21-1.79-4-4-4zm0 3c-.55 0-1 .45-1 1v9l-2.3-1.72h-.2c-.3 0-.57.11-.76.32l-.74.77 4 4.2c.26.28.62.43 1 .43h5.5c.82-.03 1.47-.68 1.5-1.5v-3.36c0-.58-.32-1.11-.85-1.35l-3.94-2.19-1.21-.13V9c0-.55-.45-1-1-1z"/></svg>