<svg xmlns="http://www.w3.org/2000/svg" viewBox="0 0 24 24"><path d="M12 2.1c-1.9 0-3.6.7-4.9 2S5 7.1 5 9s.7 3.6 2 4.9 3 2 4.9 2 3.6-.7 4.9-2 2-3 2-4.9-.5-3.6-1.9-4.9c-1.4-1.4-3-2-4.9-2zM12 4c1.4 0 2.6.5 3.5 1.5S17 7.6 17 9s-.5 2.6-1.5 3.5c-1 1-2.2 1.5-3.5 1.5s-2.6-.5-3.5-1.5S7 10.4 7 9s.5-2.6 1.5-3.5S10.6 4 12 4zm0 1c-.3 0-.5.1-.7.3s-.3.4-.3.7.1.5.3.7.4.3.7.3.5-.1.7-.3.3-.4.3-.7-.1-.5-.3-.7-.4-.3-.7-.3zm-2 2c-.3 0-.5.1-.7.3S9 7.7 9 8s.1.5.3.7.4.3.7.3.5-.1.7-.3.3-.4.3-.7-.1-.5-.3-.7-.4-.3-.7-.3zm4 0c-.3 0-.5.1-.7.3s-.3.4-.3.7.1.5.3.7.4.3.7.3.5-.1.7-.3.3-.4.3-.7-.1-.5-.3-.7-.4-.3-.7-.3zM7 17v2h2c.5 0 1 .2 1.4.6s.6.9.6 1.4v1h2v-1c0-.5.2-1 .6-1.4s.9-.6 1.4-.6h2v-2z"/></svg>