<svg xmlns="http://www.w3.org/2000/svg" viewBox="0 0 24 24"><path d="M12.965 1.002a.95.95 0 0 0-.914.537l-2.4 4.91 1.43 1.432 2.698-5.5a.966.966 0 0 0-.814-1.379zm-3.086.203a.94.94 0 0 0-.908.535l-1.33 2.7 1.44 1.44 1.608-3.3a.96.96 0 0 0-.81-1.375zM2.39 1.73 1.109 3l1.862 1.86c-.25.1-.471.33-.471.64L2 11.79A6.1 6.1 0 0 0 4.35 17c-.02-.88.11-1.79.42-2.67L6.8 8.69l1.17 1.17-1.79 4.98a6.09 6.09 0 0 0 1.72 6.63 6.13 6.13 0 0 0 8.66-.55l1.16-1.31 3.12 3.12 1.27-1.27zm12.484 1.485a.97.97 0 0 0-.914.535l-2.3 4.71.339.32L14.43 6c.24-.27.54-.5.87-.63l.38-.78a.946.946 0 0 0-.44-1.28.9.9 0 0 0-.365-.095zM4.711 6.6l1.26 1.26L5 9.84l-.5-.25.21-2.91zm11.496.074a.95.95 0 0 0-.656.326l-2.512 2.84L14.4 11.2 17 8.26c.34-.39.3-1-.09-1.35a.98.98 0 0 0-.703-.236zm3.033.619a.96.96 0 0 0-.66.326l-3.64 4.121 1.36 1.36L20 8.89a.95.95 0 0 0-.07-1.36.94.94 0 0 0-.69-.237zm1.25 2.64a.96.96 0 0 0-.66.327l-2.98 3.39L18.2 15l3.07-3.5c.35-.37.3-1-.09-1.33a.94.94 0 0 0-.69-.236zM9.77 11.66l.88.88-1.06 1.21-.43-.38zm11.21 1.774a.96.96 0 0 0-.66.326l-1.58 1.78 1.36 1.36 1.66-1.9c.35-.37.32-1-.08-1.33a.96.96 0 0 0-.7-.236z"/></svg>