<svg xmlns="http://www.w3.org/2000/svg" viewBox="0 0 24 24"><path d="M7.5 2v2H9v2.11A5.06 5.06 0 0 0 5.25 9.5h2.16C7.94 8.61 8.89 8 10 8a3.01 3.01 0 0 1 3 2.9l2 .75V11a5 5 0 0 0-4-4.9V4h2c.57 0 1.1.17 1.55.45L16 3c-.85-.61-1.87-1-3-1zM17 5l-.64 1.37L15 7l1.36.63L17 9l.62-1.37L19 7l-1.38-.63zm3 3s-2 2.9-2 4 .9 2 2 2 2-.9 2-2-2-4-2-4zM1 11v11h6v-1.44l7 1.94 8-2.5v-1c0-1.66-1.34-3-3-3h-2c0-1.2-.75-2.28-1.87-2.7L8.97 11zm2 2h2v7H3zm4 0h1.61l5.82 2.17c.34.13.57.46.57.83 0 0-2-.05-2.3-.15l-2.38-.79-.63 1.9 2.38.79c.51.17 1.04.25 1.58.25H19c.39 0 .74.24.9.57l-5.93 1.84L7 18.5z"/></svg>