<svg xmlns="http://www.w3.org/2000/svg" viewBox="0 0 24 24"><path d="M6 2a2 2 0 0 0-2 2v9.09A5.5 5.5 0 0 1 5 13a5.7 5.7 0 0 1 2 .36 6 6 0 1 1 8.71 1.33l-1.92-2.42a1 1 0 0 0-1.37-.37l-.86.5a1 1 0 0 0-.37 1.37L12.1 16a6.1 6.1 0 0 1-2.1-.38 6 6 0 0 1 .19 6.38H18a2 2 0 0 0 2-2V4a2 2 0 0 0-2-2zm6 7a1 1 0 0 0-.346.084l-.05.012a1 1 0 0 0-.583.87L11 10a1 1 0 0 0 .041.203 1 1 0 0 0 .027.137 1 1 0 0 0 .225.367 1 1 0 0 0 .367.225 1 1 0 0 0 .137.027A1 1 0 0 0 12 11l.033-.021a1 1 0 0 0 .858-.526l.013-.057.012-.05A1 1 0 0 0 13 10a1 1 0 0 0-.012-.156 1 1 0 0 0-.037-.153 1 1 0 0 0-.06-.144 1 1 0 0 0-.184-.254 1 1 0 0 0-.398-.244A1 1 0 0 0 12 9zm.95 3.77 4.22 5.31-2.59 1.5-2.49-6.31zM4 15v3H1v2h3v3h2v-3h3v-2H6v-3z"/></svg>