<svg xmlns="http://www.w3.org/2000/svg" viewBox="0 0 24 24"><path d="M13 3C9.23 3 6.19 5.95 6 9.66l-1.92 2.53c-.24.31 0 .81.42.81H6v3c0 1.11.89 2 2 2h1v3h7v-4.69c2.37-1.12 4-3.51 4-6.31 0-3.86-3.12-7-7-7zm1.326 2.273a.91.91 0 0 1 .834 1.137l-.53 1.96 1.96-.53a.91.91 0 0 1 1.11.66.88.88 0 0 1-.64 1.07l-1.96.52 1.44 1.45a.899.899 0 0 1-1.27 1.271l-1.46-1.442-.51 1.961c-.12.49-.62.77-1.09.64a.894.894 0 0 1-.64-1.1l.53-1.97-1.97.53a.89.89 0 0 1-1.1-.64c-.13-.47.15-.97.64-1.09l1.96-.51-1.44-1.46a.899.899 0 0 1 1.27-1.27l1.45 1.44.52-1.96a.88.88 0 0 1 .896-.667z"/></svg>