<svg xmlns="http://www.w3.org/2000/svg" viewBox="0 0 24 24"><path d="M13 3C9.23 3 6.19 5.95 6 9.66l-1.92 2.53c-.24.31 0 .81.42.81H6v3c0 1.11.89 2 2 2h1v3h7v-4.69c2.37-1.12 4-3.51 4-6.31 0-3.86-3.12-7-7-7zm-.81 3h1.59c.14 0 .19.05.22.19l.16 1.03c.23.09.47.23.65.42l.99-.42c.09-.05.23 0 .28.09l.8 1.36c.04.1 0 .24-.05.28l-.89.66c.06.14.06.23.06.39v.41l.83.65c.05.05.09.14.05.24l-.8 1.4c-.05.1-.19.1-.28.1l-.99-.42c-.18.18-.42.28-.65.37L14 13.83c-.03.09-.08.17-.22.17h-1.59c-.1 0-.19-.08-.19-.17l-.14-1.08c-.28-.09-.47-.19-.7-.38l-.99.43c-.09 0-.17 0-.23-.1l-.8-1.4c-.05-.1-.05-.19.05-.24l.84-.65c0-.14-.03-.28-.03-.41 0-.11.03-.25.03-.39l-.84-.66c-.1-.04-.1-.14-.05-.28l.8-1.36c.06-.09.14-.14.23-.09l1.03.42c.19-.19.43-.33.66-.42L12 6.19c0-.14.09-.19.19-.19zM13 8.58c-.81 0-1.42.64-1.42 1.42s.64 1.44 1.42 1.44 1.44-.63 1.44-1.44-.66-1.42-1.44-1.42z"/></svg>