<svg xmlns="http://www.w3.org/2000/svg" viewBox="0 0 24 24"><path d="M7 3a2 2 0 0 0-2 2v10a2 2 0 0 0 2 2h4v2h-1a1 1 0 0 0-1 1H2v2h7a1 1 0 0 0 1 1h4a1 1 0 0 0 1-1h7v-2h-7a1 1 0 0 0-1-1h-1v-2h4a2 2 0 0 0 2-2V5a2 2 0 0 0-2-2zm5.19 2c.93 0 1.66.23 2.19.68.54.45.81 1.06.81 1.82 0 .5-.15.91-.44 1.31s-.66.69-1.11.93c-.25.16-.42.33-.51.52-.09.18-.13.43-.13.74h-2c0-.5.11-.92.31-1.18.19-.27.54-.57 1.05-.91.26-.16.47-.36.61-.59.16-.23.23-.5.23-.82 0-.3-.08-.56-.26-.75-.18-.18-.44-.28-.75-.28a1 1 0 0 0-.66.23c-.18.16-.27.39-.28.69H9.32l-.01-.03c-.01-.79.25-1.36.77-1.77.54-.39 1.24-.59 2.11-.59zM11 12h2v2h-2z"/></svg>