<svg xmlns="http://www.w3.org/2000/svg" viewBox="0 0 24 24"><path d="M5.75 2c-.19 0-.36.11-.44.26L3.09 6.22 3 6.5l.09.28 2.22 3.96c.08.15.25.26.44.26h4.5c.19 0 .36-.11.44-.26l2.22-3.96.09-.28-.09-.28-2.22-3.96a.5.5 0 0 0-.44-.26zm.88 2h2.74l1.41 2.5L9.37 9H6.63l-1.4-2.5zM15 7.5c-.19 0-.36.11-.44.26l-2.22 3.96-.09.28.09.28 2.22 3.96c.08.15.25.26.44.26h4.5c.19 0 .36-.11.44-.26l2.22-3.96.09-.28-.09-.28-2.22-3.96a.5.5 0 0 0-.44-.26zm.88 2h2.74L20 12l-1.38 2.5h-2.74L14.5 12zM5.75 13c-.19 0-.36.11-.44.26l-2.22 3.96-.09.28.09.28 2.22 3.96c.08.15.25.26.44.26h4.5c.19 0 .36-.11.44-.26l2.22-3.96.09-.28-.09-.28-2.22-3.96a.5.5 0 0 0-.44-.26zm.88 2h2.74l1.41 2.5L9.37 20H6.63l-1.4-2.5z"/></svg>