<svg xmlns="http://www.w3.org/2000/svg" viewBox="0 0 24 24"><path d="M18.5 3c-2.21 0-4 1.79-4 4v.5H8.75c-.45 0-.88.09-1.25.26-.44-.34-.95-.58-1.45-.68-.79-.16-1.76-.08-2.66.53-.89.61-1.36 1.72-1.39 2.57-.05.87.21 1.61.42 2.12l.53 1.13c.11.27.18.57.12.94-.04.39-.23.81-.42 1.28l.7.7c.5-.26.97-.6 1.4-1.09.42-.49.75-1.23.79-1.95.07-.72-.04-1.37-.07-1.81-.03-.32-.01-.54.03-.69.03 1.19.7 2.22 1.68 2.77l-1.02 1.81c-.16.26-.19.56-.16.86L7 21h2.53l-.96-4.79 1.12-2.01 4.44.74c.2.03.41.06.62.06H15v6h2.5v-7.22c.61-.67 1-1.55 1-2.53V7.67c0-.25.33-.34.46-.13L20.5 10l1.5-.5V6c0-.69-.35-1.3-.89-1.66L22 3z"/></svg>