<svg xmlns="http://www.w3.org/2000/svg" viewBox="0 0 24 24"><path d="M4.59 2.059c-.952-.024-1.828.479-2.09 1.441-.3 1.1.4 2.3 1.5 2.6.5.1 1.1.1 1.6-.2l6.4 5c-1.2 1.8-1.2 4.1.1 5.9l-2 2c-.2 0-.3-.1-.5-.1-.9 0-1.7.8-1.7 1.7S8.7 22 9.6 22s1.7-.8 1.7-1.7c0-.2 0-.3-.1-.5l1.9-1.9c2.3 1.7 5.6 1.3 7.3-1s1.3-5.6-1-7.3c-.6-.5-1.4-.9-2.3-1V6.2c.6-.3 1.1-.9 1.1-1.6v-.1c0-1-.8-1.8-1.8-1.8h-.1c-1 0-1.8.8-1.8 1.8v.1c0 .7.4 1.3 1.1 1.6v2.4c-.9.1-1.8.5-2.5 1.1L6.5 4.6c.3-1.1-.4-2.3-1.5-2.5a3 3 0 0 0-.41-.041zM16.3 11c1.5 0 2.7 1.2 2.7 2.7s-1.2 2.7-2.7 2.7a2.69 2.69 0 0 1-2.7-2.7c0-1.5 1.2-2.7 2.7-2.7z"/></svg>