<svg xmlns="http://www.w3.org/2000/svg" viewBox="0 0 24 24"><path d="M12 2c-.4 0-.78.12-1.11.34s-.59.53-.74.9c-.15.36-.19.76-.11 1.15s.27.74.55 1.02.63.47 1.02.55.79.04 1.16-.11c.36-.15.67-.41.89-.74S14 4.4 14 4c0-.53-.21-1.04-.59-1.41C13.04 2.21 12.53 2 12 2zm5 0c0 1.33-.53 2.6-1.46 3.54C14.6 6.47 13.33 7 12 7a7 7 0 0 0-7 7h2a4.99 4.99 0 0 1 2-4v3l-2 4h1.32l-.54.68c-.31.38-.46.87-.43 1.36s.23.96.58 1.3l2.36 2.37 1.42-1.42-2.37-2.36L10.88 17H13v6h2v-6h2l-2-4V8.31c1.2-.57 2.2-1.46 2.91-2.58A6.94 6.94 0 0 0 19 2z"/></svg>