<svg xmlns="http://www.w3.org/2000/svg" viewBox="0 0 24 24"><path d="M11 2.05c-2 .2-3.84 1-5.32 2.21L7.1 5.69A7.94 7.94 0 0 1 11 4.07zm2 0v2.02c1.46.18 2.79.76 3.9 1.62l1.42-1.43A10 10 0 0 0 13 2.05zM4.26 5.68A10 10 0 0 0 2.05 11h2.02c.18-1.46.76-2.79 1.62-3.9zm15.48 0L18.31 7.1a7.94 7.94 0 0 1 1.62 3.9h2.02c-.2-2-1-3.84-2.21-5.32zM12 9a3 3 0 0 0-3 3 3 3 0 0 0 3 3 3 3 0 0 0 3-3 3 3 0 0 0-3-3zm-9.95 4c.2 2 1 3.84 2.21 5.32l1.43-1.43A7.87 7.87 0 0 1 4.07 13zm17.88 0a7.94 7.94 0 0 1-1.62 3.9l1.43 1.43A10 10 0 0 0 21.95 13zM7.1 18.31l-1.42 1.43A10 10 0 0 0 11 21.95v-2.02a7.94 7.94 0 0 1-3.9-1.62zm9.79 0A7.87 7.87 0 0 1 13 19.93v2.02c2-.2 3.84-1 5.32-2.21z"/></svg>