<svg xmlns="http://www.w3.org/2000/svg" viewBox="0 0 24 24"><path d="M2.39 1.73 1.11 3l2.95 2.95A9.9 9.9 0 0 0 2 12c0 5.5 4.5 10 10 10 2.28 0 4.37-.77 6.05-2.06l2.79 2.79 1.27-1.27zM12 2c-1.94 0-3.75.56-5.28 1.5l3.22 3.24c.16-.19.42-.29.67-.24l.04.03L12 7l1.35-.47c.32-.1.65.06.8.36l.01.03 1.48 3.91h-1.61l.67.67h3.13v.67h-2.46l5.13 5.11c.94-1.53 1.5-3.34 1.5-5.28 0-5.5-4.5-10-10-10zm-3.5 8.41.44.42h-.58zM6.17 11.5h3.44l.67.67H6.17zm2.91 1.31c1.07 0 1.97.74 2.21 1.74.36-.15.84-.21 1.36-.01l.66.66c.06.8.69 1.41 1.47 1.47l.6.6c-.15.03-.3.06-.46.06-1.19 0-2.15-.91-2.25-2.07-.63-.4-1.14-.14-1.34-.01a2.243 2.243 0 0 1-2.25 2.08c-1.25 0-2.26-1.01-2.26-2.26s1.01-2.26 2.26-2.26zm0 .64c-.89 0-1.62.73-1.62 1.62s.73 1.62 1.62 1.62c.92 0 1.62-.73 1.62-1.62s-.7-1.62-1.62-1.62z"/></svg>