<svg xmlns="http://www.w3.org/2000/svg" viewBox="0 0 24 24"><path d="M5.4 6.62C2.42 6.62 0 9.04 0 12s2.42 5.38 5.4 5.38c1.44 0 2.8-.56 3.77-1.53L12 13.34l2.78 2.46a5.4 5.4 0 0 0 3.82 1.57c2.98 0 5.4-2.41 5.4-5.37 0-3-2.42-5.38-5.4-5.38-1.44 0-2.8.56-3.77 1.53L12 10.66 9.22 8.2A5.37 5.37 0 0 0 5.4 6.62zm0 2c.91 0 1.76.35 2.44 1.03L10.5 12l-2.7 2.39c-.64.64-1.49.99-2.4.99C3.53 15.38 2 13.87 2 12s1.53-3.38 3.4-3.38zm13.2 0c1.87 0 3.4 1.51 3.4 3.38s-1.53 3.38-3.4 3.38c-.9 0-1.76-.35-2.44-1.03L13.5 12l2.7-2.39c.64-.64 1.49-.99 2.4-.99z"/></svg>