<svg xmlns="http://www.w3.org/2000/svg" viewBox="0 0 24 24"><path d="m12.38 2.36-.92.64c-3.17 2.68-3.59 7.41-.92 10.58a7.48 7.48 0 0 0 10.56.92l.81-.78c-3.11 1.91-7.23 1.28-9.65-1.58a7.496 7.496 0 0 1 .12-9.78zm4.58.01-.51.38c-2.11 1.75-2.39 4.92-.61 7.04a5.006 5.006 0 0 0 7.04.62l.46-.44c-2.09 1.35-4.91.97-6.54-.97a5.025 5.025 0 0 1 .16-6.63zm-9.38.13-1.11.79C2.03 7 1.45 13.64 5.17 18.08c3.73 4.45 10.36 5.03 14.8 1.3l.99-.95c-4.37 2.79-10.25 1.97-13.68-2.11-3.43-4.09-3.21-10.02.3-13.82z"/></svg>