<svg xmlns="http://www.w3.org/2000/svg" viewBox="0 0 24 24"><path d="M13.6 5c-2.17 0-4.19 1.17-5.28 3.03-.44-.24-.93-.36-1.44-.36-1.68 0-3.05 1.36-3.05 3.03 0 .2.02.39.06.58a4.26 4.26 0 0 0-1.82 3.47c0 2.31 1.89 4.21 4.21 4.25h11.56c1.11 0 2.16-.43 2.94-1.21.79-.79 1.22-1.83 1.22-2.94 0-1.58-.89-3.01-2.3-3.71v-.07C19.7 7.72 16.97 5 13.6 5zm0 .87c2.9 0 5.24 2.33 5.24 5.2 0 .07-.01.15-.01.22l-.01.09c-.01.19.1.36.27.43a3.26 3.26 0 0 1 2.04 3.04c0 .88-.34 1.7-.97 2.32-.62.62-1.44.96-2.33.96H6.29c-1.85-.03-3.35-1.54-3.35-3.38 0-1.2.62-2.28 1.67-2.9.17-.1.25-.31.19-.51-.07-.2-.1-.42-.1-.64 0-1.2.98-2.17 2.18-2.17.49 0 .95.16 1.34.47.1.07.24.1.36.07.13-.03.24-.12.29-.24.87-1.8 2.73-2.96 4.73-2.96zm-4.39 5.48c-1.37 0-2.48 1.05-2.48 2.34 0 1.31 1.11 2.34 2.48 2.34 1.14 0 1.73-.65 2.06-1l.06-.07c.17-.17.17-.46-.02-.61a.44.44 0 0 0-.61.02l-.07.08c-.28.3-.66.72-1.42.72-.89 0-1.61-.67-1.61-1.48s.72-1.47 1.61-1.47c.75 0 1.53.74 2.24 1.48.02.03.05.06.05.09l.25.25c.89.96 1.9 2 3.11 2 1.37 0 2.48-1.04 2.48-2.34s-1.11-2.34-2.48-2.34c-1.13 0-1.73.64-2.05 1l-.07.06a.45.45 0 0 0 .02.62c.18.16.45.15.61-.04l.07-.06c.28-.3.67-.72 1.42-.72.89 0 1.61.66 1.61 1.47s-.72 1.48-1.61 1.48c-.75 0-1.53-.74-2.24-1.48l-.06-.09-.24-.25c-.89-.94-1.9-2-3.11-2z"/></svg>