<svg xmlns="http://www.w3.org/2000/svg" viewBox="0 0 24 24"><path d="M4.5 3C3.7 3 3 3.7 3 4.5v6c0 .7.5 1.4 1.2 1.5v5.2C4.2 18.5 5 21 8 21h4c1.6 0 2.8-1.3 2.8-2.8V8.3c0-1.6-1.1-2.8-2.7-2.8S9.3 6.8 9.3 8.3v10q0 .6.3 1.2H8c-2.1 0-2.2-1.8-2.2-2.2V12c.7-.1 1.2-.8 1.2-1.5v-6C7 3.7 6.3 3 5.5 3zm14 0c-.8 0-1.5.7-1.5 1.5v6c0 .8.5 1.4 1.2 1.5v5.4c0 .3-.1 2.2-2.2 2.2h-.5c-.2.6-.6 1.1-1 1.5H16c3 0 3.8-2.5 3.8-3.8V12c.7-.1 1.2-.8 1.2-1.5v-6c0-.8-.7-1.5-1.5-1.5zM12 7c.7 0 1.2.6 1.2 1.2v10c0 .6-.6 1.2-1.2 1.2s-1.2-.5-1.2-1.2v-10c0-.6.5-1.2 1.2-1.2z"/></svg>