<svg xmlns="http://www.w3.org/2000/svg" viewBox="0 0 24 24"><path d="M16.5.3c-1.1 0-2 .9-2 2s.9 2 2 2 2-.9 2-2-.9-2-2-2zm-5.1 4.1c-1.1 0-2 .9-2 2s.9 2 2 2 2-.9 2-2-.9-2-2-2zm6.53.362c-.664-.007-1.217.351-1.63 1.039l-1 1.6c-.7 1.2-1.8 1.998-3.4 2.298.7.7 1.6 1.101 2.5 1.201.8-.4 1.5-1 2.1-1.6l.6 3-2.1 2v7.5h2v-6l2.1-2 1.8 8H23l-.9-4.4-1-5.2-.9-4.4 1.8.7v3.4h2V7.2L18.9 5a2.4 2.4 0 0 0-.97-.238zM7.8 8c-.5 0-1 .2-1.4.7L3.1 12c-.5.4-.8.9-.6 1.5L3.7 17 .1 20.6 1.5 22l4.2-4.3v-2.2L7 16.7v5.2h2v-6l-2.2-2.1 2.3-2.4.7.7q2.25 2.1 5.1 2.1l-.1-2.1q-2.1 0-3.6-1.5L8.9 8.3c-.3-.2-.6-.3-1.1-.3z"/></svg>