<svg xmlns="http://www.w3.org/2000/svg" viewBox="0 0 24 24"><path d="m18.8 2-1.3 2.95.5 1.32-1.69 3.7-2.81 1.5L11 10.2a.5.5 0 0 0-.26-.14c-.92-.33-1.97.26-2.24 1.17l-1.37 4.18c-.54-.23-5.88 1.56-6.216 1.71L0 17.47c1.33.57 2.2.92 3.94 1.41.81-.25 1.5-.79 2.06-1.41 1.5 1.95 4.5 1.95 6 0 1.5 1.95 4.5 1.95 6 0 .56.62 1.25 1.16 2.06 1.41l2.89-.97 1.05-.44-.61-.26c-2.26-.92-5.09-1.65-7.73-1.99l3.7-8.34 1.31-.47 1.33-3zM12 5.5a2 2 0 0 0-2 2c0 1.11.89 2 2 2s2-.89 2-2c0-1.1-.9-2-2-2zm-.23 7.33 1.73.94 1.5-.85-.94 2.16c-.99-.08-2-.08-3-.08zM6 20c-1.21.9-2.58 1.05-4 1v2c1.38.05 2.79-.06 4-.75 1.84 1 4.16 1 6 0 1.84 1 4.16 1 6 0 1.21.69 2.62.8 4 .75v-2c-1.42.05-2.79-.1-4-1-1.77 1.25-4.23 1.25-6 0-1.77 1.25-4.23 1.25-6 0z"/></svg>