<svg xmlns="http://www.w3.org/2000/svg" viewBox="0 0 24 24"><path d="M2.4 1.7 1.1 3l3.6 3.6C4.3 7.3 4 8.1 4 9c0 1.2.5 2.3 1.4 3.3C4.5 13.5 4 15 4 16.5V20c0 1.1.9 2 2 2h13c.3 0 .6-.1.9-.2l.9.9 1.3-1.2zM12.5 3c-1.9 0-3.7.5-5.1 1.2l2.1 2.1c.8-.4 1.9-.6 3-.6 1.4 0 2.8.4 3.8 1l2-2C16.6 3.5 14.6 3 12.5 3zM19 8l-2.1 2.1c-1.5-.8-3.1-1.2-4.7-1.1l2.4 2.4c2.2.7 3.9 2.5 4.3 4.3l2.1 2.1v-1.3c0-1.2-.3-2.4-1-3.5l2-2zM7 8.9l1.2 1.2-.6.3C7.2 10 7 9.5 7 9zm2.7 2.7 1.2 1.2c-1.8.6-2.9 2-2.9 4.2v1h2v-1c0-.8 0-2.5 1.4-3.7l6.7 6.7H6v-3.5c0-1.8 1.6-3.9 3.7-4.9z"/></svg>