<svg xmlns="http://www.w3.org/2000/svg" viewBox="0 0 24 24"><path d="m15.6 4.4-2.1.2.4 1.2c.2 0 1.9-.1 2.1-.1zm2.9.4-.1 1.3c.7.2 1.4.5 2.1.8l.1-1.3zm-7.5.4-1.8 1 .8 1.3c.6-.4 1.2-.7 1.8-1zm4.873 1.425c-6.584.104-11.014 7.771-11.572 12.074H10.6C10 13.2 13.2 6.1 21.3 8.4v-.2c-1.929-1.138-3.749-1.602-5.427-1.575zM6.699 8.199 5.2 9.801 6.5 10.9c.4-.5.9-1.1 1.4-1.6zm11.801.5L18.7 10l1.8.2.1-1.2q-1.05-.3-2.1-.3zm-1.3.102c-.9.2-1.6.499-2 .699l.6 1.2 1.8-.7zM14.3 10.1c-.6.4-1.1.9-1.4 1.5l1.1 1 1.1-1.3zm1.4 1.7V19h1.9v-1.7l1.7 1.7H22l-2.2-2.3s1.8-.2 1.8-2.4-2.1-2.5-2.1-2.5zm-3.5.9c-.3.8-.5 1.5-.6 2.3l1.5.6.3-1.9zm-9.3.3L2 15.3l1.8.7c.3-.7.6-1.5 1-2.3zm14.6.7H19s.4.2.4.8c.1.6-.4.8-.4.8h-1.5zm-6 2.6c0 1.2.1 1.9.1 2.1l2 .5-.3-2z"/></svg>