<svg xmlns="http://www.w3.org/2000/svg" viewBox="0 0 24 24"><path d="m15.5 1-.77 3.08c.27-.05.51-.08.77-.08s.5.03.77.08zM10 3l2.37 3.96c-.23.46-.37.98-.37 1.54 0 1.93 1.57 3.5 3.5 3.5.56 0 1.08-.14 1.54-.37L21 14l-2.37-3.96c.23-.46.37-.98.37-1.54s-.14-1.08-.37-1.54L21 3l-3.96 2.37c-.46-.23-.98-.37-1.54-.37s-1.08.14-1.54.37zm1.08 4.73L8 8.5l3.08.77C11.03 9 11 8.76 11 8.5s.03-.5.08-.77zm8.84 0c.05.27.08.51.08.77s-.03.5-.08.77L23 8.5zm-8.22 3.16-4.91 4.9-.7-.7L1 20.17 3.83 23l5.08-5.09-.7-.7 4.9-4.91a4.5 4.5 0 0 1-1.41-1.41zm2.99 2.03.81 3.24.81-3.24c-.26.05-.53.08-.81.08s-.55-.03-.81-.08z"/></svg>