<svg xmlns="http://www.w3.org/2000/svg" viewBox="0 0 24 24"><path d="M12 1C8.97 1 6.38 2.06 4.22 4.22S1 8.97 1 12s1.06 5.63 3.22 7.78C6.38 21.94 8.97 23 12 23s5.63-1.06 7.78-3.22C21.94 17.63 23 15.03 23 12s-1.06-5.62-3.22-7.78C17.63 2.06 15.03 1 12 1zm0 2c2.09 0 3.97.67 5.63 2H6.38C8.03 3.67 9.91 3 12 3zM5 6.38v11.25C3.67 15.97 3 14.09 3 12c0-2.03.67-3.91 2-5.62zm14 0c1.33 1.71 2 3.59 2 5.62 0 2.09-.67 3.97-2 5.63zM8.25 7h7.5L12 14.53zM7 9l4 8H7zm10 0v8h-4zM6.38 19h11.25c-.69.55-1.58 1-2.68 1.41-1.09.39-2.07.59-2.95.59-.87 0-1.86-.2-2.95-.59-1.1-.41-1.99-.86-2.67-1.41z"/></svg>