<svg xmlns="http://www.w3.org/2000/svg" viewBox="0 0 24 24"><path d="M4 2c-1.1 0-2 .9-2 2v18l4-4h14c1.1 0 2-.9 2-2V4c0-1.1-.9-2-2-2zm0 2h16v12H5.2L4 17.2zm7 1c-.1 0-.2.1-.2.2l-.2 1.3c-.3.2-.6.3-.9.5l-1.2-.5c-.1 0-.2 0-.3.1l-1 1.7c-.1.1 0 .2.1.3l1.1.8v1l-1.1.8c-.1.1-.1.2-.1.3l1 1.7c.1.1.2.2.3.1l1.2-.3c.3.2.5.4.8.5l.2 1.3c0 .1.1.2.3.2h2c.1 0 .2-.1.2-.2l.2-1.3c.3-.1.6-.3.8-.5l1.2.5c.1 0 .2 0 .3-.1l1-1.7c.2-.2.2-.3.1-.4l-1.1-.8v-1l1.1-.8c.1-.1.1-.2.1-.3l-1-1.7c-.1-.1-.2-.2-.3-.1l-1.3.4c-.3-.2-.5-.4-.9-.5l-.2-1.3c0-.1-.1-.2-.2-.2zm1 3.5c.8 0 1.5.7 1.5 1.5s-.7 1.5-1.5 1.5-1.5-.7-1.5-1.5.7-1.5 1.5-1.5z"/></svg>