<svg xmlns="http://www.w3.org/2000/svg" viewBox="0 0 24 24"><path d="M17.824 2.033C16.708 2.07 15.4 2.426 14 3.061L13 3a9 9 0 0 0-8.81 7.17c1.52-1.55 3.02-2.6 4.19-3.29l-.81.77C6.14 9.06 4.93 10.54 4 12c-2.32 3.57-3 6.96-1.43 8.56 1.32 1.34 3.93 1.12 6.84-.31 1.09.48 2.31.75 3.59.75 3.92 0 7.25-2.5 8.5-6h-5.3c-.73 1.21-1.89 2-3.2 2-1.94 0-3.55-1.72-3.92-4h12.87l.05-1c0-1.55-.39-3-1.08-4.28.66-2.05.58-3.79-.42-4.8-.635-.64-1.56-.923-2.676-.887zm.444 1.477c.765-.042 1.38.132 1.793.55.58.59.67 1.59.35 2.83-.91-1.33-2.19-2.39-3.67-3.08a6.4 6.4 0 0 1 1.527-.3zM13 7c1.79 0 3.31 1.47 3.82 3.5H9.18C9.69 8.47 11.21 7 13 7zm-8.53 7.88a9.05 9.05 0 0 0 3.97 4.88c-2.04.93-3.72 1.08-4.55.24-.89-.93-.62-2.85.58-5.12z"/></svg>