<svg xmlns="http://www.w3.org/2000/svg" viewBox="0 0 24 24"><path d="M11.38 2q-1.08.001-2.04.38a5.6 5.6 0 0 0-1.71 1.06Q6.87 4.11 6.39 5a5.7 5.7 0 0 0-.61 2H2.83q-.33 0-.59.24a.85.85 0 0 0-.24.59v8.34q0 .33.24.59.26.24.59.24h4.22q-.02.16-.05.31v.32q0 .9.35 1.7.339.8.93 1.39.6.591 1.39.93.8.35 1.71.35.831 0 1.59-.3.75-.29 1.33-.82.59-.529.97-1.25.37-.71.46-1.54.63.16 1.27.16a4.9 4.9 0 0 0 1.94-.39 5.2 5.2 0 0 0 1.59-1.08q.68-.68 1.07-1.58.4-.91.4-1.95t-.4-1.96a4.7 4.7 0 0 0-1.1-1.58 4.9 4.9 0 0 0-1.59-1.07 4.9 4.9 0 0 0-1.95-.39q.041-.16.04-.31v-.31q0-1.17-.44-2.19a5.8 5.8 0 0 0-1.21-1.79 5.8 5.8 0 0 0-1.79-1.21A5.4 5.4 0 0 0 11.38 2zm-.01 1.25q.91 0 1.71.35.791.35 1.38.94.6.589.94 1.38a4.2 4.2 0 0 1 .27 2.51q-.63.17-1.17.5-.58.34-1.03.79-.47.45-.79 1.02a4.8 4.8 0 0 0-.5 1.18l-.18.03V7.83q0-.33-.24-.58a.83.83 0 0 0-.59-.25H7.05q.12-.8.5-1.5.39-.68.95-1.18a4.5 4.5 0 0 1 1.33-.78q.73-.29 1.54-.29zM7.55 8.86q.25-.001.45.01.22.019.42.05.19.03.39.08.19.049.44.12v1.48a4 4 0 0 0-.79-.38 3 3 0 0 0-.88-.12q-.12 0-.3.01a1.2 1.2 0 0 0-.33.09.8.8 0 0 0-.28.15.35.35 0 0 0-.12.27q0 .229.22.38.23.14.55.27l.72.29q.379.15.71.38.33.24.55.59.2.35.2.88 0 .52-.19.88-.21.349-.55.56-.34.22-.76.31-.45.09-.9.09-1.07 0-2.06-.39V13.3q.46.32.92.52Q6.41 14 7 14h.31a.6.6 0 0 0 .32-.08.6.6 0 0 0 .26-.16.4.4 0 0 0 .11-.3q0-.22-.22-.38a3 3 0 0 0-.56-.29l-.72-.29a5 5 0 0 1-.7-.41 2.1 2.1 0 0 1-.55-.59q-.22-.31-.22-.81 0-.51.23-.86.24-.33.59-.56a2.8 2.8 0 0 1 .82-.32q.45-.09.88-.09zM17 9.5q.77 0 1.45.29.69.3 1.2.81t.81 1.2q.29.7.29 1.45 0 .781-.29 1.46-.3.68-.81 1.19a3.6 3.6 0 0 1-1.2.81Q17.77 17 17 17q-.68 0-1.34-.26a5 5 0 0 0-.32-.95 5 5 0 0 0-.52-.86 5.4 5.4 0 0 0-.7-.71 4.2 4.2 0 0 0-.85-.54l-.02-.22v-.21q0-.75.3-1.45.3-.68.81-1.19t1.19-.81T17 9.5zm-5 5.06q.55.12 1 .4.46.281.8.69.33.4.51.91.19.511.19 1.07 0 .641-.25 1.21-.25.57-.67 1-.43.42-1 .66a3 3 0 0 1-1.21.25q-.641 0-1.21-.25-.57-.24-1-.66-.42-.43-.66-1a3 3 0 0 1-.25-1.21q0-.319.06-.63h2.86q.33 0 .59-.24.24-.26.24-.59z"/></svg>