<svg xmlns="http://www.w3.org/2000/svg" viewBox="0 0 24 24"><path d="M12 2A10 10 0 0 0 2 12a10 10 0 0 0 10 10 10 10 0 0 0 10-10A10 10 0 0 0 12 2zm0 2a2.5 2.5 0 0 1 2.5 2.5A2.5 2.5 0 0 1 12 9a2.5 2.5 0 0 1-2.5-2.5A2.5 2.5 0 0 1 12 4zM6.809 7.799c.246.003.496.042.742.12a2.5 2.5 0 0 1 1.6 3.151A2.5 2.5 0 0 1 6 12.68a2.5 2.5 0 0 1-1.6-3.15 2.49 2.49 0 0 1 2.41-1.732zm10.392 0A2.51 2.51 0 0 1 19.61 9.5c.42 1.33-.299 2.75-1.609 3.17a2.5 2.5 0 0 1-3.15-1.6 2.49 2.49 0 0 1 1.61-3.15 2.5 2.5 0 0 1 .741-.121zM12 10.5a1.5 1.5 0 0 1 1.5 1.5 1.5 1.5 0 0 1-1.5 1.5 1.5 1.5 0 0 1-1.5-1.5 1.5 1.5 0 0 1 1.5-1.5zm3.148 3.438a2.5 2.5 0 0 1 2.112 1.033c.81 1.12.56 2.68-.56 3.49-1.11.81-2.7.57-3.49-.55a2.497 2.497 0 0 1 .56-3.491 2.46 2.46 0 0 1 1.378-.482zm-6.287.007c.482.016.963.171 1.38.475 1.12.81 1.37 2.37.56 3.49a2.487 2.487 0 0 1-3.49.55 2.497 2.497 0 0 1-.561-3.49 2.5 2.5 0 0 1 2.111-1.025z"/></svg>