<svg xmlns="http://www.w3.org/2000/svg" viewBox="0 0 24 24"><path d="M2.4 1.7 1.1 3l3 3C2.8 7.6 2 9.7 2 12c0 1.1.9 2 2 2h8.1l1 1H9l-1 3.5-.3 1c-.3 1.1.4 2.2 1.4 2.4l.6.1h4.7c1.1 0 2-.9 2-2l-.1-.5-.3-1-.2-.9 5.1 5.1 1.2-1.2zM12 2c-1.9 0-3.7.6-5.3 1.5L8.2 5c.5-.3 1.2-.6 1.8-.8.1 1 1 1.8 2 1.8s1.9-.8 2-1.8c3.4.9 6 4.1 6 7.8h-4.8l2 2H20c1.1 0 2-.9 2-2 0-5.5-4.5-10-10-10zm4 5c-1.1 0-2 .9-2 2s.9 2 2 2 2-.9 2-2-.9-2-2-2zm-10.5.4.7.7c-.1.3-.2.6-.2.9 0 1.1.9 2 2 2 .3 0 .6-.1.9-.2l1.2 1.2H4c0-1.7.6-3.3 1.5-4.6zm5.1 9.6h3l.6 2 .3 1H9.7l.3-1z"/></svg>