<svg xmlns="http://www.w3.org/2000/svg" viewBox="0 0 24 24"><path d="M4 2a2 2 0 0 0-2 2v16a2 2 0 0 0 2 2h9.03c-.82-.5-1.5-1.2-2.03-2H4V4h16v7a6.7 6.7 0 0 1 2 2.04V4a2 2 0 0 0-2-2zm2 4v12h4.17c-.17-.65-.21-1.32-.17-2H8V8h2V6zm7 0a2 2 0 0 0-2 2v2.28c-.59.34-1 .98-1 1.72 0 .62.28 1.17.72 1.53a6.46 6.46 0 0 1 2.81-2.81l-.53-.44V8h3v2c.66-.03 1.33 0 2 .18V6zm3.5 6C14 12 12 14 12 16.5s2 4.5 4.5 4.5c.88 0 1.7-.25 2.39-.68L22 23.39 23.4 22l-3.08-3.1c.44-.69.68-1.52.68-2.4 0-2.5-2-4.5-4.5-4.5zm0 2a2.5 2.5 0 0 1 2.5 2.5c0 1.38-1.11 2.5-2.5 2.5a2.5 2.5 0 0 1-2.5-2.5 2.5 2.5 0 0 1 2.5-2.5z"/></svg>