<svg xmlns="http://www.w3.org/2000/svg" viewBox="0 0 24 24"><path d="M7.12 2A5.12 5.12 0 0 0 2 7.12v9.76C2 19.71 4.29 22 7.12 22h4.53V2zm6.53 0v20h3.23A5.12 5.12 0 0 0 22 16.88V7.12C22 4.29 19.71 2 16.88 2zM7.12 3.62h2.92V20.4H7.12c-.93 0-1.82-.4-2.48-1.04C4 18.7 3.6 17.81 3.6 16.88V7.12c0-.93.4-1.82 1.04-2.48a3.58 3.58 0 0 1 2.48-1.02zM7 6.12a1.881 1.881 0 1 0 0 3.76c1.03 0 1.87-.84 1.87-1.88S8.03 6.12 7 6.12zM17.61 11c1.11 0 2.01.89 2.01 2 0 1.12-.9 2-2.01 2s-2.03-.88-2.03-2c0-1.11.92-2 2.03-2z"/></svg>