<svg xmlns="http://www.w3.org/2000/svg" viewBox="0 0 24 24"><path d="M9 1c-.6 0-1 .4-1 1v13.3c-.6.3-1 1-1 1.7 0 1.1.9 2 2 2s2-.9 2-2c0-.7-.4-1.4-1-1.7V13h3v-2h-3V9h3V7h-3V5h3V3h-3V2c0-.6-.4-1-1-1zM2.8 12.2a1 1 0 0 0-.7.3L.4 14.2c-.4.4-.4 1 0 1.4s1 .4 1.4 0l1.7-1.7c.4-.4.4-1 0-1.4-.2-.2-.45-.3-.7-.3zm16.4 0L13 15.8v2.4l3.1-1.8L14 20H5v-5c-1.1 0-2 .9-2 2v3c0 1.1.9 2 2 2h9c.8 0 1.5-.4 1.8-1l3.6-6.3 2.1 1.2c.5.2 1.1.1 1.4-.4.2-.5.1-1.1-.4-1.4zm2.8 5.3s-2 2.2-2 3.5c0 1.1.9 2 2 2s2-.9 2-2c0-1.3-2-3.5-2-3.5z"/></svg>