<svg xmlns="http://www.w3.org/2000/svg" viewBox="0 0 24 24"><path d="M6 6a1 1 0 0 0-1 1 1 1 0 0 0 1 1h1v2H5a2 2 0 0 0-2 2v3a2 2 0 0 0 2 2h9c.75 0 1.41-.42 1.75-1.03l3.65-6.32 2.1 1.21c.5.28 1.09.11 1.37-.36.27-.5.13-1.1-.37-1.37l-3.26-1.89L12.73 11c-.34-.6-.99-1-1.73-1H9V8h1a1 1 0 0 0 1-1 1 1 0 0 0-1-1zM2.803 7.207c-.253 0-.508.098-.713.293L.38 9.21C0 9.6 0 10.23.38 10.62c.39.38 1.02.38 1.41 0L3.5 8.91c.39-.41.39-1.02 0-1.41a.98.98 0 0 0-.697-.293zM16.06 11.43 14 15H5v-3h6.69l.91 1.43zM22 12.5s-2 2.17-2 3.5a2 2 0 0 0 2 2 2 2 0 0 0 2-2c0-1.33-2-3.5-2-3.5z"/></svg>