<svg xmlns="http://www.w3.org/2000/svg" viewBox="0 0 24 24"><path d="M12.164 2.629a10.01 10.01 0 0 0-9.504 6.4c-1.99 5.15.58 10.942 5.73 12.932.11.04.24.04.36 0 .12-.05.21-.152.25-.272l2.28-5.798a.48.48 0 0 0-.28-.612c-.75-.28-1.34-.85-1.64-1.59-.27-.69-.25-1.479.05-2.189a2.836 2.836 0 0 1 5.17 2.33c-.3.67-.87 1.23-1.58 1.49-.23.1-.35.37-.26.61l2.22 5.8c.04.12.14.22.26.27h.36c2.65-1 4.74-3.12 5.75-5.78.96-2.47.89-5.22-.2-7.65a10.05 10.05 0 0 0-5.54-5.27 10 10 0 0 0-3.426-.671zm-.627.96q.23-.005.463 0c1.17-.01 2.33.211 3.42.641a9.004 9.004 0 0 1 5.02 11.7 9.1 9.1 0 0 1-4.76 5L13.79 16a3.76 3.76 0 0 0 1.53-1.53 3.777 3.777 0 0 0-1.53-5.11 3.783 3.783 0 0 0-5.11 1.53c-.99 1.83-.3 4.11 1.53 5.11l-1.89 4.9a9.01 9.01 0 0 1-5.55-8.54c.125-4.815 4.006-8.653 8.767-8.77z"/></svg>