<svg xmlns="http://www.w3.org/2000/svg" viewBox="0 0 24 24"><path d="M12 1a3 3 0 0 0-3 3v1a1 1 0 0 0-1 1v1.07C5.61 8.45 4 11.04 4 14a8 8 0 0 0 8 8 8 8 0 0 0 8-8c0-2.96-1.61-5.55-4-6.93V6a1 1 0 0 0-1-1V4a3 3 0 0 0-3-3zm0 2a1 1 0 0 1 1 1v1h-2V4a1 1 0 0 1 1-1zm0 5c1.78 0 3.37.77 4.47 2H7.53c1.1-1.23 2.69-2 4.47-2zm-5.67 4c.95.19 1.67 1 1.67 2s-.72 1.81-1.67 1.97C6.12 15.35 6 14.69 6 14s.12-1.35.33-2zM12 12a2 2 0 0 1 2 2 2 2 0 0 1-2 2 2 2 0 0 1-2-2 2 2 0 0 1 2-2zm5.67 0c.21.65.33 1.31.33 2s-.12 1.35-.33 1.97C16.72 15.81 16 15 16 14s.72-1.81 1.67-2zM7.53 18h8.94A5.97 5.97 0 0 1 12 20a5.97 5.97 0 0 1-4.47-2z"/></svg>