<svg xmlns="http://www.w3.org/2000/svg" viewBox="0 0 24 24"><path d="M12 3a9 9 0 0 0-9 9 9 9 0 0 0 9 9 1.5 1.5 0 0 0 1.5-1.5c0-.39-.15-.74-.39-1-.23-.27-.38-.62-.38-1a1.5 1.5 0 0 1 1.5-1.5H16a5 5 0 0 0 5-5c0-4.42-4.03-8-9-8zM9.5 5A1.5 1.5 0 0 1 11 6.5 1.5 1.5 0 0 1 9.5 8 1.5 1.5 0 0 1 8 6.5 1.5 1.5 0 0 1 9.5 5zm5 0A1.5 1.5 0 0 1 16 6.5 1.5 1.5 0 0 1 14.5 8 1.5 1.5 0 0 1 13 6.5 1.5 1.5 0 0 1 14.5 5zm-8 4A1.5 1.5 0 0 1 8 10.5 1.5 1.5 0 0 1 6.5 12 1.5 1.5 0 0 1 5 10.5 1.5 1.5 0 0 1 6.5 9zm11 0a1.5 1.5 0 0 1 1.5 1.5 1.5 1.5 0 0 1-1.5 1.5 1.5 1.5 0 0 1-1.5-1.5A1.5 1.5 0 0 1 17.5 9z"/></svg>