<svg xmlns="http://www.w3.org/2000/svg" viewBox="0 0 24 24"><path d="M7.76 2c.66.24 1.29.58 1.87 1 .6.47 1.1 1 1.51 1.56-1.64-.24-3.34.07-4.84 1.01-1.3.82-2.25 2.01-2.8 3.34q.69-.795 1.62-1.41a7.2 7.2 0 0 1 4.33-1.04 7.12 7.12 0 0 0-1.56 9.87 7.3 7.3 0 0 1-.31-2.11 7.13 7.13 0 0 1 4.96-6.79c.82.49 1.57 1.15 2.16 1.98.08.12.17.23.25.36a7.11 7.11 0 0 1 .55 6.49 7.1 7.1 0 0 0 .63-8.44c-.13-.23-.3-.45-.47-.66 1.99.27 3.72 1.34 4.84 2.92a7.13 7.13 0 0 0-6.81-5.02c-.1 0-.19.01-.29.01-.4-.6-.9-1.17-1.53-1.64A7.1 7.1 0 0 0 7.76 2zM12 9c1.59 7.61-2 13-2 13h3c1.88-5.8 1-9.91.5-12z"/></svg>