<svg xmlns="http://www.w3.org/2000/svg" viewBox="0 0 24 24"><path d="M4.5 3A3.5 3.5 0 0 0 1 6.5c0 1.5.95 2.78 2.28 3.28C3.1 10.5 3 11.23 3 12a9 9 0 0 0 9 9 9 9 0 0 0 9-9c0-.77-.1-1.5-.28-2.22A3.51 3.51 0 0 0 23 6.5 3.5 3.5 0 0 0 19.5 3c-1.12 0-2.12.53-2.76 1.35C15.36 3.5 13.74 3 12 3s-3.36.5-4.74 1.35A3.5 3.5 0 0 0 4.5 3zM12 5a7 7 0 0 1 7 7 7 7 0 0 1-7 7 7 7 0 0 1-7-7 7 7 0 0 1 7-7zM9.795 8.297c-.834.017-1.67.831-1.984 2.004-.36 1.33.109 2.61 1.039 2.86.94.26 1.98-.622 2.34-1.962.36-1.33-.11-2.61-1.04-2.86a1.3 1.3 0 0 0-.355-.042zm4.41 0a1.3 1.3 0 0 0-.355.043c-.93.25-1.4 1.53-1.04 2.86.36 1.34 1.4 2.22 2.34 1.96.93-.25 1.4-1.53 1.04-2.86-.316-1.172-1.151-1.986-1.985-2.003zM12 14c-.6 0-1.13.19-1.5.5l1 1a.75.75 0 0 1-.75.75.75.75 0 0 1-.75-.75.5.5 0 0 0-.5-.5.5.5 0 0 0-.5.5 1.75 1.75 0 0 0 1.75 1.75c.49 0 .93-.2 1.25-.53.32.33.76.53 1.25.53A1.75 1.75 0 0 0 15 15.5a.5.5 0 0 0-.5-.5.5.5 0 0 0-.5.5.75.75 0 0 1-.75.75c-.41 0-.75-.33-.75-.75l1-1c-.37-.31-.9-.5-1.5-.5z"/></svg>