<svg xmlns="http://www.w3.org/2000/svg" viewBox="0 0 24 24"><path d="M12.012.951A5.97 5.97 0 0 0 8.18 2.28a6.004 6.004 0 0 0-.9 8.442.93.93 0 0 1 0 1.279c-.83.87-1.41 1.95-1.66 3.13-.75 3.51 1.48 6.97 4.99 7.72a6.44 6.44 0 0 0 5.8-1.6c2.63-2.45 2.76-6.57.31-9.19-.35-.36-.39-.93-.1-1.34 1.77-2.22 1.77-5.34 0-7.53A6 6 0 0 0 12.011.95zM12 3h.88c.59.14 1.12.41 1.62.79 1.72 1.38 2 3.9.62 5.62a3 3 0 0 0 .18 4 4.5 4.5 0 0 1 0 6.15 4.495 4.495 0 0 1-6.36.21c-1.81-1.7-1.91-4.55-.21-6.36 1.04-1.08 1.11-2.77.15-3.91a3.976 3.976 0 0 1 .62-5.61C10.2 3.31 11.09 3 12 3zm1 2c-.55 0-1 .45-1 1s.45 1 1 1 1-.45 1-1-.45-1-1-1zm0 9c-.55 0-1 .45-1 1s.45 1 1 1 1-.45 1-1-.45-1-1-1zm-2 2c-.55 0-1 .45-1 1s.45 1 1 1 1-.45 1-1-.45-1-1-1zm3 1c-.55 0-1 .45-1 1s.45 1 1 1 1-.45 1-1-.45-1-1-1z"/></svg>