<svg xmlns="http://www.w3.org/2000/svg" viewBox="0 0 24 24"><path d="M5 3v6h1.5V5.5L12 11l7-7-1-1-6 6-4.5-4.5H11V3zm7 9C7.5 12 3.3 13.8.3 16.7c-.2.2-.3.4-.3.7 0 .2.1.5.1.7l2.5 2.5c.2.2.4.3.7.3s.5-.1.7-.3q1.2-1.05 2.7-1.8.6-.3.6-.9v-3.1c1.5-.5 3-.7 4.6-.7s3.1.2 4.6.7v3.1c0 .4.3.7.6.9 1 .4 1.9 1.1 2.7 1.8.2.2.5.3.7.3.3 0 .5-.1.7-.3l2.5-2.5c.2-.2.3-.4.3-.7s-.1-.5-.3-.7c-3-3-7.2-4.7-11.7-4.7zm-6.6 3.5h.1v1.7c-.7.4-1.3.8-1.9 1.3l-1.1-1.1c.9-.8 1.9-1.4 2.9-1.9zm13.2 0c1.1.5 2.1 1.1 3 2l-1.1 1.1c-.6-.5-1.2-.9-1.9-1.3z"/></svg>