<svg xmlns="http://www.w3.org/2000/svg" viewBox="0 0 24 24"><path d="m17 1.5-2.25 2.25L17 6V4.5A2.5 2.5 0 0 1 19.5 7c0 .4-.09.78-.26 1.12l1.09 1.09c.42-.63.67-1.39.67-2.21 0-2.21-1.79-4-4-4zM4 3c-.5 0-1 .5-1 1 0 9.4 7.6 17 17 17 .5 0 1-.5 1-1v-3.5c0-.5-.5-1-1-1-1.2 0-2.5-.2-3.6-.6h-.3c-.3 0-.5.1-.7.3l-2.2 2.2c-2.8-1.5-5.2-3.8-6.6-6.6l2.2-2.2c.3-.3.4-.7.2-1-.3-1.1-.5-2.4-.5-3.6 0-.5-.5-1-1-1zm9.67 1.79C13.25 5.42 13 6.18 13 7c0 2.21 1.79 4 4 4v1.5l2.25-2.25L17 8v1.5A2.5 2.5 0 0 1 14.5 7c0-.4.09-.78.26-1.12zM5 5h1.5c.1.9.3 1.8.5 2.6L5.8 8.8C5.4 7.6 5.1 6.3 5 5zm11.4 12c.8.2 1.7.4 2.6.4V19c-1.3-.1-2.6-.4-3.8-.8z"/></svg>