<svg xmlns="http://www.w3.org/2000/svg" viewBox="0 0 24 24"><path d="m17 1.5-2.25 2.25L17 6V4.5A2.5 2.5 0 0 1 19.5 7c0 .4-.09.78-.26 1.12l1.09 1.09c.42-.63.67-1.39.67-2.21 0-2.21-1.79-4-4-4zM4 3c-.55 0-1 .45-1 1 0 9.39 7.61 17 17 17 .55 0 1-.45 1-1v-3.5c0-.55-.45-1-1-1-1.25 0-2.45-.2-3.57-.57-.35-.11-.74-.03-1.02.25l-2.2 2.2a15.1 15.1 0 0 1-6.59-6.59l2.2-2.2c.28-.28.36-.67.25-1.02A11.4 11.4 0 0 1 8.5 4c0-.55-.45-1-1-1zm9.67 1.79C13.25 5.42 13 6.18 13 7c0 2.21 1.79 4 4 4v1.5l2.25-2.25L17 8v1.5A2.5 2.5 0 0 1 14.5 7c0-.4.09-.78.26-1.12z"/></svg>