<svg xmlns="http://www.w3.org/2000/svg" viewBox="0 0 24 24"><path d="M5.62 2c.2 4 2.71 5.88 5.21 6.15.14-1.41-3.6-4.65-3.58-4.68 0 0 3.87 3.34 4.52 4.7 2.3-.12 4.33-1.62 4.16-4.09 0 0-3.43-.51-4.16 3.85C11.57 4.29 9.5 2 5.62 2zm6.423 6.373c-.769 0-1.538.292-2.123.877l-3.86 3.86a3 3 0 0 0 0 4.24l3.86 3.86a3 3 0 0 0 4.24 0L18 17.35a2.964 2.964 0 0 0 0-4.24l-3.84-3.86a2.97 2.97 0 0 0-2.117-.877zm2.646 2.967c0 1.56-1.1 2.52-1.1 3.85 0 1.66 1.282 2.73 2.722 2.77-1.44.14-2.911-1.11-4.221-1.11-1.819 0-2.601 1.328-2.692 2.507.08-1.893 1.102-2.422 1.102-4.007 0-2.05-1.92-2.68-2.63-2.72 1.68 0 2.72 1.14 4.13 1.14 1.82 0 2.63-1.44 2.69-2.43z"/></svg>