<svg xmlns="http://www.w3.org/2000/svg" viewBox="0 0 24 24"><path d="M16.56 1.002c-.39 0-.78.145-1.06.437L11.61 5.33 2.42 3.21 1 4.62l7.43 3.91-3.87 3.87-2.5-.37L1 13.11l3.19 1.77 1.76 3.18L7 17l-.34-2.47 3.9-3.9.91 1.74.03-.06c.29-.81 1.04-1.31 1.91-1.31h1.14l-.82-3.55 3.89-3.89c.59-.56.59-1.53 0-2.12a1.46 1.46 0 0 0-1.06-.438zM13.41 12c-.46 0-.83.26-.98.66L11 16.77v5.51c0 .38.32.72.7.72h.62c.38 0 .68-.38.68-.76V21h8v1.24c0 .38.31.76.69.76h.61c.38 0 .7-.34.7-.72v-5.51l-1.43-4.11c-.14-.4-.52-.66-.97-.66zm0 1h7.19l1.03 3h-9.25zM13 17c.55 0 1 .45 1 1s-.45 1-1 1-1-.45-1-1 .45-1 1-1zm8 0c.55 0 1 .45 1 1s-.45 1-1 1-1-.45-1-1 .45-1 1-1z"/></svg>