<svg xmlns="http://www.w3.org/2000/svg" viewBox="0 0 24 24"><path d="M12 2a7 7 0 0 0-7 7c0 1.4.41 2.71 1.12 3.8L12 22.21l5.88-9.41A6.95 6.95 0 0 0 19 9a7 7 0 0 0-7-7zm0 1.5A5.5 5.5 0 0 1 17.41 8h-2.58A2.99 2.99 0 0 0 12 6c-1.31 0-2.42.83-2.83 2H6.59A5.5 5.5 0 0 1 12 3.5zm0 4A1.5 1.5 0 0 1 13.5 9a1.5 1.5 0 0 1-1.5 1.5A1.5 1.5 0 0 1 10.5 9 1.5 1.5 0 0 1 12 7.5zM6.59 10h2.58c.41 1.17 1.52 2 2.83 2s2.42-.83 2.83-2h2.58c-.13.69-.38 1.34-.75 1.91l-.04.09c-.98 1.5-2.68 2.5-4.62 2.5s-3.64-1-4.62-2.5l-.04-.09c-.37-.57-.62-1.22-.75-1.91z"/></svg>