<svg xmlns="http://www.w3.org/2000/svg" viewBox="0 0 24 24"><path d="M11.17 2v2.23L7.68 2.14l-1 1.72L10.23 6 6.66 8.14l1 1.72 3.51-2.09v4.73H9.5c-1.14-3.18-5.84-2.37-5.84 1s4.7 4.18 5.84 1h1.67V20a2 2 0 0 0-2 2h6a2 2 0 0 0-2-2v-5.5h1.68c.81 2.3 3.88 2.72 5.28.73s-.03-4.73-2.46-4.73c-1.27 0-2.4.8-2.82 2h-1.68V7.77l3.49 2.09 1-1.72L14.11 6l3.57-2.14-1-1.72-3.51 2.09V2zM6.637 12.496A1.003 1.003 0 0 1 7.67 13.5a1 1 0 0 1-1 1c-.89 0-1.34-1.08-.71-1.71a.98.98 0 0 1 .677-.294zm11 0A1.003 1.003 0 0 1 18.67 13.5a1 1 0 0 1-1 1c-.89 0-1.34-1.08-.71-1.71a.98.98 0 0 1 .677-.294z"/></svg>