<svg xmlns="http://www.w3.org/2000/svg" viewBox="0 0 24 24"><path d="M12 2C6.5 2 2 6.5 2 12s4.5 10 10 10 10-4.5 10-10S17.5 2 12 2zm4.18 3.96c.57 0 1.04.47 1.04 1.04s-.47 1.04-1.04 1.04c-.56 0-1.02-.44-1.04-.99l-2.17-.47-.67 3.13c1.53.06 2.9.52 3.9 1.24.26-.25.62-.41 1.02-.41a1.466 1.466 0 0 1 .59 2.8c.03.16.04.3.04.44 0 2.25-2.62 4.07-5.85 4.07-3.21 0-5.82-1.85-5.82-4.07 0-.16.01-.28.03-.44a1.452 1.452 0 0 1 .6-2.78c.39 0 .75.15 1.01.4 1.02-.73 2.42-1.19 3.97-1.24l.74-3.48c.01-.07.04-.13.1-.17.05-.04.12-.07.19-.04l2.43.52c.16-.35.52-.59.93-.59zM9.71 12c-.57 0-1.04.47-1.04 1.04s.47 1.05 1.04 1.04c.57 0 1.04-.47 1.04-1.04S10.28 12 9.71 12zm4.58 0c-.57 0-1.04.5-1.04 1.05s.47 1.04 1.04 1.04 1.04-.48 1.04-1.04c0-.55-.47-1.05-1.04-1.05zm-4.556 3.336a.3.3 0 0 0-.195.074c-.1.09-.1.28 0 .39.71.7 2.071.76 2.461.76.41 0 1.77-.06 2.5-.76.08-.11.08-.3 0-.39-.12-.1-.29-.1-.4 0-.44.46-1.41.59-2.1.59-.67 0-1.62-.13-2.08-.59a.26.26 0 0 0-.186-.074z"/></svg>