<svg xmlns="http://www.w3.org/2000/svg" viewBox="0 0 24 24"><path d="M12 2c-1.1 0-2 .9-2 2 0 .74.4 1.39 1 1.73V7h-1c-3.87 0-7 3.13-7 7H2c-.55 0-1 .45-1 1v3c0 .55.45 1 1 1h1v1a2 2 0 0 0 2 2h14c1.11 0 2-.89 2-2v-1h1c.55 0 1-.45 1-1v-3c0-.55-.45-1-1-1h-1c0-1.5-.47-2.87-1.26-4H15V7.08c-.33-.05-.66-.08-1-.08h-1V5.73c.6-.34 1-.99 1-1.73 0-1.1-.9-2-2-2zm4 1v4h1V3zm2 0v1h2v1h-1v2h1V6h.5c.28 0 .5-.22.5-.5v-2c0-.28-.22-.5-.5-.5zm-2 5v1h1V8zm3 0v1h1V8zM7.5 13a2.5 2.5 0 0 1 0 5 2.5 2.5 0 0 1 0-5zm9 0a2.5 2.5 0 0 1 0 5 2.5 2.5 0 0 1 0-5z"/></svg>