<svg xmlns="http://www.w3.org/2000/svg" viewBox="0 0 24 24"><path d="M7 3v2h2.5c.3 0 .5.23.5.5s-.2.5-.5.5H7c-2.78 0-5 2.25-5 5 0 2.41 1.7 4.42 4 4.89v.05A5.04 5.04 0 0 0 11.06 21h8.86c1.88 0 2.81-2.34 1.41-3.61l-2.39-2.16c.51-2.34-1.36-4.23-3.44-4.23-1.16 0-3.5.91-3.5 3.5 0 .97.38 1.86 1.03 2.47l-.7.7c-.83-.8-1.33-1.92-1.33-3.17 0-1.7.95-3.16 2.36-3.95-.7-.33-1.5-.55-2.3-.55-2.39 0-4.36 1.67-4.92 3.87A3.01 3.01 0 0 1 4 11c0-1.67 1.34-3 3-3h2.5C10.88 8 12 6.89 12 5.5 12 4.13 10.88 3 9.5 3zm11 14c.56 0 1 .44 1 1s-.44 1-1 1-1-.44-1-1 .44-1 1-1z"/></svg>