<svg xmlns="http://www.w3.org/2000/svg" viewBox="0 0 24 24"><path d="M4.85 2c-.17 0-.31.14-.31.31v16.26c.46-1.24 1.3-3.01 2.62-5.44C11.91 4.4 12.53 3.5 15 3.5c1.3 0 2.62.6 3.46 1.65A6.62 6.62 0 0 0 12.92 2zm10.806 2.123c-1.068-.045-2.057.326-2.457 1.246-.8 1.88 1.361 3.97 2.301 3.8 1.2-.21-.21-2.958-.21-2.958 1.83 3.46 1.41 2.398-1.91 5.578s-6.72 9.892-7.21 10.172L6.1 22h13.03c.23 0 .37-.24.28-.45L16 14.81c-.07-.15 0-.31.12-.41a6.63 6.63 0 0 0 3.34-5.76c0-1.19-.31-2.3-.86-3.26-.725-.75-1.875-1.212-2.944-1.257z"/></svg>