<svg xmlns="http://www.w3.org/2000/svg" viewBox="0 0 24 24"><path d="M12 1C9.39 1 7.25 5.39 7 11H4.75L8 14.25 11.25 11H9c.18-4.5 1.46-8 3-8 1.06 0 2 1.65 2.5 4.13C13.71 7.05 12.87 7 12 7l-1.57.05-.29 2.01L12 9q1.5 0 2.85.15Q15 10.5 15 12c0 4.97-1.34 9-3 9-.91 0-1.72-1.2-2.27-3.11L7.7 17.6c.87 3.23 2.47 5.4 4.3 5.4 2.76 0 5-4.92 5-11 0-.87-.05-1.71-.13-2.5C19.35 10 21 10.94 21 12c0 .91-1.2 1.72-3.11 2.27l-.29 2.03c3.23-.87 5.4-2.47 5.4-4.3 0-2-2.64-3.77-6.45-4.55C15.77 3.64 14 1 12 1zM6.4 7.7C3.17 8.57 1 10.17 1 12c0 2.61 4.39 4.75 10 5v2.25L14.25 16 11 12.75V15c-4.5-.18-8-1.46-8-3 0-.91 1.2-1.72 3.11-2.27z"/></svg>