<svg xmlns="http://www.w3.org/2000/svg" viewBox="0 0 24 24"><path d="M16 1c-1.8 0-3.6.7-5 2.1l.8.8C13 2.8 14.5 2.2 16 2.2s3 .6 4.2 1.7l.8-.8C19.6 1.7 17.8 1 16 1zm0 2.3c-1.2 0-2.4.5-3.3 1.4l.8.8c.7-.7 1.6-1 2.5-1s1.8.3 2.5 1l.8-.8c-.9-.9-2.1-1.4-3.3-1.4zM15 6v4H5c-.53 0-1.04.21-1.41.59-.38.37-.59.88-.59 1.41v2c0 .53.21 1.04.59 1.41.37.38.88.59 1.41.59h6v2h-1c-.55 0-1 .45-1 1H2v2h7c0 .55.45 1 1 1h4c.55 0 1-.45 1-1h7v-2h-7c0-.55-.45-1-1-1h-1v-2h6c.53 0 1.04-.21 1.41-.59.38-.37.59-.88.59-1.41v-2c0-.53-.21-1.04-.59-1.41-.37-.38-.88-.59-1.41-.59h-2V6zM5 12h2v2H5zm3.5 0h2v2h-2zm3.5 0h2v2h-2z"/></svg>