<svg xmlns="http://www.w3.org/2000/svg" viewBox="0 0 24 24"><path d="M12 2A10 10 0 0 0 2 12a10 10 0 0 0 10 10 10 10 0 0 0 10-10A10 10 0 0 0 12 2zm2.664 2.43c1.805-.031 3.296.626 3.606 1.85.45 1.75-1.07 3.84-3.01 4.59-1.73.67-3.17.56-3.76.37-.66-.24-1.06-.66-1.15-.91-.04-.1-.11-.26 0-.33.06-.03.08 0 .25.17.16.17.81.65 2.03.51 3.2-.36 5.13-2.85 4.52-4.18-.43-.95-2.9-1.37-5.98.17-3.77 1.88-3.97 3.42-4 4.01-.09 1.62 1.99 2.47 3.12 3.67l.08.09c.34-.13.81-.2 1.56-.22 1.82-.03 2.85 1.17 2.81 2.25-.03.85-.81 1.19-.96 1.22-.1.02-.16.02-.17-.06-.01-.06.03-.09.15-.16.12-.08.49-.33.55-.79.07-.46-.27-1.55-2.03-1.76-.62-.07-1.11-.02-1.53.08.31.68.36 2.03-.34 3.07-.72 1.09-2.07 1.74-3.41 1.38-.4-.12-1.04-1-.5-2.22.54-1.16 2.78-2.29 3.08-2.44v-.01c-1.04-.89-3.58-2.1-3.92-3.94-.1-.52.15-1.77 1.68-3.21 1.29-1.21 3.09-2.13 4.75-2.72a8.2 8.2 0 0 1 2.574-.48zM10 15.33l-.08.05s-1.04.5-1.76 1.26c-.66.71-.87 1.61-.49 1.83.33.2 1.16-.04 1.74-.68.19-.2.35-.43.46-.67.03-.05.05-.12.07-.12.02-.07.06-.12.06-.17.14-.46.16-.96 0-1.5z"/></svg>