<svg xmlns="http://www.w3.org/2000/svg" viewBox="0 0 24 24"><path d="M6.535 2a2.01 2.01 0 0 0-1.676.85c-.63.91-.41 2.15.49 2.79.91.63 2.152.41 2.792-.49.63-.91.41-2.15-.49-2.79A2 2 0 0 0 6.534 2zM2 7l2 9.76A4.99 4.99 0 0 0 8.94 21H16v-2H8.93a2.99 2.99 0 0 1-2.96-2.54L4 7zm5.639.002a2 2 0 0 0-.248.027h-.022a2.27 2.27 0 0 0-1.84 2.612l1.352 5.92A2.99 2.99 0 0 0 9.83 18h6.849l3.82 3 1.5-1.5-5.77-4.5h-4.88l-1.03-4.1c1.58.89 3.28 1.54 5.15 1.22V10c-1.63.3-3.44-.28-4.69-1.26L9.14 7.47a2.32 2.32 0 0 0-1.502-.469z"/></svg>