<svg xmlns="http://www.w3.org/2000/svg" viewBox="0 0 24 24"><path d="M12 1 3 5v6c0 5.55 3.84 10.74 9 12 5.16-1.26 9-6.45 9-12V5zm0 5 1.38 2A3.5 3.5 0 0 0 12 7.73c-.5 0-.95.09-1.38.27zm2.6 2.68 2.4.21-1 2.19c-.1-.46-.26-.9-.5-1.32s-.55-.76-.9-1.08zm-5.2.01c-.34.31-.66.65-.9 1.07-.25.42-.4.86-.5 1.32L7 8.89zm2.6.2c1.6 0 2.89 1.29 2.89 2.89S13.6 14.67 12 14.67s-2.89-1.3-2.89-2.89 1.3-2.89 2.89-2.89zM8.03 12.5c.08.43.24.88.47 1.3.25.43.56.79.9 1.08L7 14.67zm7.94 0L17 14.67l-2.4.2c.34-.29.65-.65.9-1.07.24-.42.39-.87.47-1.3zm-5.36 3.07c.43.15.89.25 1.39.25s.95-.1 1.37-.25L12 17.55z"/></svg>