<svg xmlns="http://www.w3.org/2000/svg" viewBox="0 0 24 24"><path d="M12 1 3 5v6c0 5.55 3.84 10.74 9 12 5.16-1.26 9-6.45 9-12V5zm0 2.18 7 3.12v4.92c0 4.32-3.25 8.78-7 9.78-3.75-1-7-5.46-7-9.78V6.3zM12 6l-1.38 2c.43-.18.88-.27 1.38-.27q.75 0 1.38.27zm2.6 2.68c.35.32.66.66.9 1.08s.4.86.5 1.32l1-2.19zm-5.2.01-2.4.2 1 2.19c.1-.46.25-.9.5-1.32.24-.42.56-.76.9-1.07zm2.6.2a2.897 2.897 0 0 0-2.89 2.89c0 1.59 1.29 2.89 2.89 2.89s2.89-1.29 2.89-2.89S13.6 8.89 12 8.89zM8.03 12.5 7 14.67l2.4.21c-.34-.29-.65-.65-.9-1.08a4.4 4.4 0 0 1-.47-1.3zm7.94 0c-.08.43-.23.88-.47 1.3-.25.42-.56.78-.9 1.07l2.4-.2zm-5.36 3.07L12 17.55l1.37-1.98c-.42.15-.87.25-1.37.25s-.96-.1-1.39-.25z"/></svg>