<svg xmlns="http://www.w3.org/2000/svg" viewBox="0 0 24 24"><path d="M12 1 3 5v6c0 5.55 3.84 10.74 9 12 5.16-1.26 9-6.45 9-12V5zm2.924 5c.789 0 1.576.3 2.176.9.58.6.9 1.36.9 2.18s-.32 1.6-.9 2.18l-1.25 1.24.01-.56c0-.44-.07-.88-.22-1.3l-.04-.14.36-.37c.29-.28.44-.63.44-1.05 0-.39-.15-.76-.43-1.04-.57-.57-1.54-.57-2.1 0l-2.01 2.01c-.28.28-.44.65-.44 1.05s.15.76.44 1.04c.14.15.24.36.24.57 0 .22-.1.42-.25.57a.74.74 0 0 1-.56.22c-.2 0-.41-.07-.57-.22a3.054 3.054 0 0 1 0-4.36l2.02-2.02c.605-.6 1.395-.9 2.184-.9zm-1.201 3.502c.21.001.416.078.556.228.58.58.9 1.35.9 2.17 0 .83-.32 1.6-.9 2.18l-2.02 2.02c-.6.6-1.389.9-2.179.9s-1.58-.3-2.18-.9a3.09 3.09 0 0 1 0-4.36l1.25-1.24-.01.56c0 .44.07.89.22 1.31l.05.13-.37.37a1.477 1.477 0 0 0 0 2.102c.56.559 1.53.559 2.09-.001l2.01-2.01c.29-.29.44-.66.44-1.05 0-.41-.15-.772-.43-1.052a.83.83 0 0 1-.25-.57c0-.21.1-.409.25-.559a.8.8 0 0 1 .573-.228z"/></svg>