<svg xmlns="http://www.w3.org/2000/svg" viewBox="0 0 24 24"><path d="M12 1C9.2 1 7 3.2 7 6H5c-1.1 0-2 .9-2 2v12c0 1.1.9 2 2 2h7.05a6.4 6.4 0 0 1-2.02-2H5V8h14v3.03c.81.52 1.5 1.21 2 2.02V8c0-1.1-.9-2-2-2h-2c0-2.8-2.2-5-5-5zm0 2c1.7 0 3 1.3 3 3H9c0-1.7 1.3-3 3-3zM7 9c0 2 1.12 3.65 2.76 4.46.32-.61.74-1.16 1.24-1.64-1.18-.4-2-1.48-2-2.82zm8 0c0 .37-.07.71-.18 1.04.22-.04.45-.04.68-.04.47 0 .92.05 1.36.15.09-.37.14-.75.14-1.15zm.377 3.006a4.51 4.51 0 0 0-3.678 2.094c-1.33 2.1-.7 4.9 1.4 6.2 1.46.92 3.322.93 4.782.02L21 23.39 22.39 22l-3.08-3.1c1.33-2.1.69-4.9-1.4-6.21a4.5 4.5 0 0 0-2.533-.684zM15.5 14a2.5 2.5 0 0 1 0 5 2.5 2.5 0 0 1 0-5z"/></svg>