<svg xmlns="http://www.w3.org/2000/svg" viewBox="0 0 24 24"><path d="M12.7-.1c-.25 0-.5.1-.7.3-.4.4-.4 1 0 1.4l3.8 4-.7.7-4.8-5.1c-.4-.4-1-.4-1.4 0s-.4 1 0 1.4l3.8 4L15.4 9l3.6 3.4.6.6c.3.3.5.6.7.9l.9-.8c.5-.5.8-1.1.8-1.8v-8l-.3-.1c-.7-.2-1.6.2-2.1.8l-.7 2L13.4.2a1 1 0 0 0-.7-.3zM8.2 3.7c-.25 0-.5.1-.7.3-.4.4-.4 1.1 0 1.5l2.7 2.7c.4-.6.8-.8 1.6-1.2L8.9 4a1 1 0 0 0-.7-.3zM7 6.9c-.25 0-.5.1-.7.3-.4.4-.4 1 0 1.4L8.6 11h.8c-.1-.5 0-1.2.2-1.8l-1.9-2a.98.98 0 0 0-.7-.3zM12.5 9l-.2.1c-.8.4-1.1 1.3-.7 2l.9 1.9h-8c-.5 0-1 .5-1 1s.5 1 1 1H10v1H3c-.5 0-1 .5-1 1s.5 1 1 1h7v1H4c-.5 0-1 .5-1 1s.5 1 1 1h6v1H5.5c-.5 0-1 .5-1 1s.5 1 1 1h11c1.4 0 2.5-1.1 2.5-2.5v-5.2c0-.7-.3-1.3-.8-1.8z"/></svg>