<svg xmlns="http://www.w3.org/2000/svg" viewBox="0 0 24 24"><path d="M8 3a5 5 0 0 0-5 5c0 .89.23 1.73.64 2.45-.49 2.66.29 5.51 2.36 7.55 2.04 2.07 4.89 2.85 7.55 2.36.72.41 1.56.64 2.45.64a5 5 0 0 0 5-5c0-.89-.23-1.73-.64-2.45.49-2.66-.29-5.51-2.36-7.55-2.04-2.07-4.89-2.85-7.55-2.36A4.94 4.94 0 0 0 8 3zm3.86 3.4c1.86 0 4.05 1.03 4.05 2.4 0 .59-.5.93-1.08.93-1.11 0-.9-1.53-3.13-1.53-1.1 0-1.7.5-1.7 1.22 0 .71.86.94 1.62 1.11l1.99.44c2.17.49 2.73 1.76 2.73 2.95 0 1.86-1.43 3.24-4.3 3.24-3.04 0-4.37-1.48-4.37-2.59 0-.57.42-.97 1-.97 1.29 0 .96 1.85 3.37 1.85 1.23 0 1.91-.67 1.91-1.35 0-.42-.2-.87-1.01-1.07l-2.69-.68c-2.16-.54-2.55-1.71-2.55-2.81 0-2.28 2.15-3.14 4.16-3.14z"/></svg>