<svg xmlns="http://www.w3.org/2000/svg" viewBox="0 0 24 24"><path d="M12 2a3 3 0 0 0-3 3c0 1 .5 1.87 1.22 2.42a3.9 3.9 0 0 0-1.49 1.27L6.04 7.14l-.24-.1-.69-2.54-.96.25.59 2.22-1.98-1.15-.5.87 1.98 1.15-2.21.59.26.96 2.54-.68.21.16L8 10.59V11c0 .83.26 1.61.69 2.25A4.97 4.97 0 0 0 7 17a5 5 0 0 0 5 5 5 5 0 0 0 5-5c0-1.5-.65-2.83-1.69-3.75.43-.64.69-1.42.69-2.25v-.41l2.96-1.72.21-.16 2.54.68.26-.96-2.21-.59 1.98-1.15-.5-.87-1.98 1.15.59-2.22-.96-.25-.69 2.54-.24.1-2.69 1.55a3.9 3.9 0 0 0-1.49-1.27C14.5 6.87 15 6 15 5a3 3 0 0 0-3-3z"/></svg>