<svg xmlns="http://www.w3.org/2000/svg" viewBox="0 0 24 24"><path d="M2.39 1.73 1.11 3 4 5.89l.47 1.76-1.77.47.52 1.93 2.33-.62 2 1.13v2.89l-2 1.13-2.33-.62-.52 1.93 1.77.47L4 18.12l1.93.52.62-2.33 2-1.13L11 16.62v2.26l-1.71 1.71L10.71 22 12 20.71 13.29 22l1.41-1.41-1.7-1.71v-2.26l1.1-.62 6.74 6.73 1.27-1.27zm8.32.27L9.29 3.41 11 5.12v2.26l-.27.15 2.01 2.01 1.76 1.02v.74l1.96 1.96v-2.7l2-1.13 2.33.62.52-1.93-1.77-.47.46-1.77-1.93-.52-.62 2.33-2 1.13L13 7.38V5.12l1.71-1.71L13.29 2 12 3.29zM9.5 11.39l3.13 3.11-.63.39-2.5-1.45zm7.37 2.28 2.68 2.68 1.75-.47-.51-1.93-2.33.62z"/></svg>