<svg xmlns="http://www.w3.org/2000/svg" viewBox="0 0 24 24"><path d="M6 2c-1.1 0-2 .9-2 2s.9 2 2 2 2-.9 2-2-.9-2-2-2zm12 0c-1.1 0-2 .9-2 2s.9 2 2 2 2-.9 2-2-.9-2-2-2zM6 7c-1 0-1.93.21-2.78.58C2.5 7.9 2 8.62 2 9.43V10h8v-.57c0-.81-.5-1.53-1.22-1.85C7.93 7.21 7 7 6 7zm12 0c-1 0-1.93.21-2.78.58C14.5 7.9 14 8.62 14 9.43V10h8v-.57c0-.81-.5-1.53-1.22-1.85C19.93 7.21 19 7 18 7zM5 11l-3 3 3 3v-2h14v2l3-3-3-3v2H5zm2.5 7c-.28 0-.5.22-.5.5v3c0 .28.22.5.5.5h2c.28 0 .5-.22.5-.5V20c0-.28-.22-.5-.5-.5H8V19h2v-1zm4 0v4h1v-1.5h1v-1h-1V19H14v-1zm3 0v1h1v3h1v-3h1v-1zM8 20.5h1v.5H8z"/></svg>