<svg xmlns="http://www.w3.org/2000/svg" viewBox="0 0 24 24"><path d="M6 2a2 2 0 0 0-2 2v16a2 2 0 0 0 2 2h12a2 2 0 0 0 2-2V4a2 2 0 0 0-2-2zm2.25 2.5c1.25 0 2.25 1 2.25 2.25 0 .98-.63 1.81-1.5 2.12v3.97c.66-.49 1.62-.84 3-.84 2 0 2.67-1 2.89-1.67a2.235 2.235 0 0 1-1.39-2.08C13.5 7 14.5 6 15.75 6S18 7 18 8.25c0 1.01-.66 1.86-1.57 2.15-.19 1.07-.93 3.1-3.68 3.1-2.52 0-3.34 1-3.62 1.68.81.32 1.37 1.14 1.37 2.07 0 1.25-1 2.25-2.25 2.25S6 18.5 6 17.25c0-.98.63-1.81 1.5-2.12V8.87C6.63 8.56 6 7.73 6 6.75 6 5.5 7 4.5 8.25 4.5zm0 1.5a.75.75 0 0 0-.75.75.75.75 0 0 0 .75.75.75.75 0 0 0 .75-.75.75.75 0 0 0-.75-.75zm7.5 1.5a.75.75 0 0 0-.75.75.75.75 0 0 0 .75.75.75.75 0 0 0 .75-.75.75.75 0 0 0-.75-.75zm-7.5 9a.75.75 0 0 0-.75.75.75.75 0 0 0 .75.75.75.75 0 0 0 .75-.75.75.75 0 0 0-.75-.75z"/></svg>