<svg xmlns="http://www.w3.org/2000/svg" viewBox="0 0 24 24"><path d="M7 2C5.34 2 4 3.34 4 5c0 1.31.83 2.42 2 2.83v8.34c-1.17.41-2 1.52-2 2.83 0 1.66 1.34 3 3 3s3-1.34 3-3c0-1.24-.75-2.3-1.82-2.76C8.54 15.35 9.64 14 13 14c3.68 0 4.65-2.71 4.91-4.14C19.12 9.5 20 8.34 20 7c0-1.66-1.34-3-3-3s-3 1.34-3 3c0 1.25.77 2.32 1.85 2.77-.29.89-1.18 2.23-3.85 2.23-1.84 0-3.12.47-4 1.12V7.83c1.17-.41 2-1.52 2-2.83 0-1.66-1.34-3-3-3zm0 2c.55 0 1 .45 1 1s-.45 1-1 1-1-.45-1-1 .45-1 1-1zm10 2c.55 0 1 .45 1 1s-.45 1-1 1-1-.45-1-1 .45-1 1-1zm1 7c-2.15 2.13-2.22 2.17-2.28 2.22l.03.03L18 17.5V16a2.5 2.5 0 0 1 2.5 2.5c0 .4-.09.78-.26 1.12l1.09 1.09c.42-.63.67-1.39.67-2.21 0-2.21-1.79-4-4-4zm-3.33 3.29c-.42.63-.67 1.39-.67 2.21 0 2.21 1.79 4 4 4V24c2.15-2.13 2.22-2.17 2.28-2.22l-.03-.03L18 19.5V21a2.5 2.5 0 0 1-2.5-2.5c0-.4.09-.78.26-1.12zM7 18c.55 0 1 .45 1 1s-.45 1-1 1-1-.45-1-1 .45-1 1-1z"/></svg>