<svg xmlns="http://www.w3.org/2000/svg" viewBox="0 0 24 24"><path d="M7 3a3 3 0 0 0-3 3c0 1.31.83 2.42 2 2.83v6.34c-1.17.41-2 1.52-2 2.83a3 3 0 0 0 3 3 3 3 0 0 0 3-3c0-1.31-.83-2.42-2-2.83v-1.78c1.44 1.8 2.91 3.41 7.16 3.61.41 1.16 1.53 2 2.84 2a3 3 0 0 0 3-3 3 3 0 0 0-3-3c-1.29 0-2.39.81-2.81 1.96-2.11-.19-6.61-1.15-7.15-6.15A2.99 2.99 0 0 0 10 6a3 3 0 0 0-3-3zm0 2a1 1 0 0 1 1 1 1 1 0 0 1-1 1 1 1 0 0 1-1-1 1 1 0 0 1 1-1zm11 10a1 1 0 0 1 1 1 1 1 0 0 1-1 1 1 1 0 0 1-1-1 1 1 0 0 1 1-1zM7 17a1 1 0 0 1 1 1 1 1 0 0 1-1 1 1 1 0 0 1-1-1 1 1 0 0 1 1-1z"/></svg>