<svg xmlns="http://www.w3.org/2000/svg" viewBox="0 0 24 24"><path d="M7 1.76 5.89 6.31l3.2 3.19-2.69-.45L2.6 6.2 1.4 7.8 5.6 11l1.86.31-3 .85-3.17 3.13 1.42 1.42 2.79-2.82 2.37-.67L4 16.54V22h2v-4.54l1.56-1.34c.12.71.4 1.38.82 1.94.2.28.44.53.71.76.81.68 1.84 1.07 2.91 1.07s2.1-.39 2.91-1.07c.27-.23.51-.48.71-.76.42-.56.7-1.23.82-1.94L18 17.46V22h2v-5.46l-3.87-3.32 2.37.67 2.79 2.82 1.42-1.42-3.21-3.18-3-.85 1.91-.26 4.19-3.2-1.2-1.6-3.81 2.85-2.68.45 3.2-3.19L17 1.76l-2 .48.86 3.45-1.1 1.14a2.8 2.8 0 0 0-.46-.75c-.15-.18-.33-.35-.53-.49l-.12-.09c-.08-.05-.15-.1-.25-.14-.43-.23-.9-.36-1.4-.36s-.97.13-1.41.36c-.09.04-.16.09-.24.14-.05.04-.1.07-.15.11-.2.14-.36.31-.51.49-.19.22-.33.46-.45.73L8.11 5.69 9 2.24zM12 7c.2 0 .39.06.55.17.17.11.29.26.37.44l.31.74L12 9.58l-1.23-1.23.31-.74c.08-.18.21-.33.37-.44A.97.97 0 0 1 12 7zm0 5 3 .5-.53 3.29c-.1.59-.4 1.12-.85 1.5a2.48 2.48 0 0 1-3.24 0c-.45-.38-.75-.91-.85-1.5L9 12.5z"/></svg>