<svg xmlns="http://www.w3.org/2000/svg" viewBox="0 0 24 24"><path d="m12 1.75-1 .04v.47c-.68 1.47-1.91 2.96-3.57 4.17-1.69 1.22-3.51 1.94-5.14 2.11l-.4-.13c-.26.59-.47 1.25-.62 1.91l.44.14c1.19 1.1 2.23 2.73 2.87 4.68.64 1.98.75 3.94.42 5.55l-.25.31q.75.69 1.62 1.2l.32-.44C8.1 21 9.96 20.5 12 20.5s3.9.5 5.31 1.26l.32.44q.87-.51 1.62-1.2l-.33-.43c-.3-1.57-.18-3.48.45-5.41.63-1.95 1.67-3.58 2.86-4.66l.5-.18c-.15-.66-.36-1.32-.62-1.91l-.44.15c-1.61-.19-3.41-.9-5.07-2.11-1.69-1.22-2.93-2.74-3.6-4.24v-.42zm1 2.45c.76 1.11 1.77 2.16 3 3.06 1.23.89 2.53 1.52 3.8 1.9l-2.03.66c-.94.05-2-.26-2.93-.94-.98-.71-1.62-1.67-1.84-2.61zm-2 .02v2.14c-.24.91-.87 1.82-1.81 2.5-.97.7-2.08 1.02-3.04.94l-1.97-.64C5.46 8.78 6.78 8.14 8 7.24c1.24-.89 2.25-1.93 3-3.02zm0 4.28v2.87l-2.75-.87c.52-.21 1.04-.5 1.53-.83.48-.35.88-.75 1.22-1.17zm2 0c.34.42.76.83 1.25 1.19.47.34.98.61 1.49.81l-2.74.87zm-9.42 2.57 2.03.66c.79.51 1.46 1.39 1.82 2.49.37 1.14.33 2.28-.05 3.19l-1.21 1.67c.03-1.34-.17-2.79-.64-4.25-.47-1.43-1.15-2.71-1.95-3.76zm16.78.02c-.8 1.05-1.48 2.33-1.95 3.76-.46 1.42-.66 2.83-.64 4.15l-1.27-1.78c-.32-.86-.33-1.93 0-2.99.37-1.09 1.04-1.97 1.82-2.48zm-12.72 1.3 2.74.89-1.7 2.34a6.2 6.2 0 0 0-.3-1.71c-.18-.56-.43-1.07-.74-1.52zm8.66.02c-.3.45-.56.96-.74 1.52a6 6 0 0 0-.3 1.61l-1.64-2.26zM12 14.45l1.65 2.27a6.3 6.3 0 0 0-3.3 0zm0 3.05c1.13 0 2.16.35 2.88.92l1.28 1.76c-1.24-.43-2.66-.68-4.16-.68s-2.92.25-4.16.68l1.28-1.76c.72-.57 1.75-.92 2.88-.92z"/></svg>