<svg xmlns="http://www.w3.org/2000/svg" viewBox="0 0 24 24"><path d="M12 2c-2.31 0-4.34.71-6.09 2.09L7.34 5.5C8.71 4.5 10.26 4 12 4c2 0 3.76.66 5.27 2 1.52 1.38 2.4 3.05 2.65 5H17l-3-3h-4l-.09.09 6.42 6.41c.27-.45.47-.96.59-1.5h3a7.7 7.7 0 0 1-1.42 3.67l1.41 1.42C21.29 16.34 22 14.31 22 12c0-2.75-1-5.1-2.95-7.05S14.75 2 12 2zM3.28 4 2 5.27l1.5 1.48Q2 9.075 2 12c0 2.75 1 5.1 2.95 7.05S9.25 22 12 22q2.925 0 5.25-1.5l1.48 1.5L20 20.72zm1.68 4.23 2.41 2.4L7 11H4.08c.13-1 .42-1.92.88-2.77zM4.08 13h3c.22 1 .68 1.84 1.38 2.54S10 16.7 11 16.92v3c-1.8-.25-3.35-1.02-4.65-2.32S4.3 14.77 4.08 13zm9.42 3.78 2.28 2.27c-.85.45-1.78.75-2.78.87v-3c.16-.04.34-.08.5-.14z"/></svg>