<svg xmlns="http://www.w3.org/2000/svg" viewBox="0 0 24 24"><path d="M11 1 8.6 4.4c.8-.2 1.6-.4 2.4-.4s1.6.2 2.4.4zm4.5 4.6c.6.5 1.1 1.1 1.5 1.9.3.6.5 1.1.7 1.7-.5-.1-1.1-.2-1.7-.2h-.4c-.8-1.8-2.5-3-4.6-3-2.8 0-5 2.2-5 5 0 2.1 1.2 3.8 3 4.6v.4c0 3.9 3.1 7 7 7s7-3.1 7-7c0-3.1-2.1-5.8-4.9-6.7L19.6 6zm-9 .1L2.3 6l1.8 3.8c.1-.8.4-1.6.8-2.3.5-.7 1-1.3 1.6-1.8zM16 11c2.8 0 5 2.2 5 5s-2.2 5-5 5-5-2.2-5-5 2.2-5 5-5zm-1 1v5l3.6 2.1.8-1.2-2.9-1.7V12zm-10.8.2L2.4 16l4.1.4c-.6-.5-1.2-1.2-1.6-1.9s-.6-1.5-.7-2.3z"/></svg>