<svg xmlns="http://www.w3.org/2000/svg" viewBox="0 0 24 24"><path d="M10 2 7.6 5.4C8.4 5.2 9.2 5 10 5s1.6.2 2.4.4zm9 3c-1.1 0-2 .9-2 2v6.8c-.6.6-1 1.4-1 2.2 0 1.7 1.3 3 3 3s3-1.3 3-3c0-.9-.4-1.7-1-2.2V7c0-1.1-.9-2-2-2zm0 1c.6 0 1 .4 1 1v1h-2V7c0-.6.4-1 1-1zm-13.5.7L1.3 7l1.8 3.8c.1-.8.4-1.6.8-2.3.5-.7 1-1.3 1.6-1.8zM10 7c-2.8 0-5 2.2-5 5s2.2 5 5 5 5-2.2 5-5-2.2-5-5-5zm0 2c1.7 0 3 1.3 3 3s-1.3 3-3 3-3-1.3-3-3 1.3-3 3-3zm-6.8 4.2L1.4 17l4.1.4c-.5-.5-1.1-1.2-1.5-1.9-.5-.7-.7-1.5-.8-2.3zm4.4 5.4L10 22l2.4-3.4c-.8.2-1.6.4-2.4.4-.9 0-1.7-.2-2.4-.4z"/></svg>