<svg xmlns="http://www.w3.org/2000/svg" viewBox="0 0 24 24"><path d="M12 2c-.467 0-.934.18-1.29.54a1.84 1.84 0 0 0 0 2.59v3.74L8.06 6.22c0-1.01-.82-1.83-1.84-1.83a1.83 1.83 0 0 0-1.83 1.83c0 1.02.82 1.84 1.83 1.84l2.65 2.65H5.13a1.843 1.843 0 0 0-2.59 0 1.81 1.81 0 0 0 0 2.58c.71.71 1.87.71 2.59 0h3.74l-2.65 2.66a1.831 1.831 0 0 0 0 3.66c1.02 0 1.84-.82 1.84-1.83l2.65-2.65v3.74a1.84 1.84 0 0 0 0 2.59c.71.72 1.87.72 2.58 0 .71-.71.71-1.87 0-2.59v-3.74l2.66 2.65c0 1.01.81 1.83 1.83 1.83a1.83 1.83 0 0 0 1.83-1.83c0-1.02-.82-1.83-1.83-1.83l-2.65-2.66h3.74c.72.71 1.88.71 2.59 0 .72-.71.72-1.87 0-2.58a1.843 1.843 0 0 0-2.59 0h-3.74l2.65-2.65c1.01 0 1.83-.82 1.83-1.84a1.831 1.831 0 0 0-3.66 0l-2.66 2.65V5.13c.71-.72.71-1.88 0-2.59A1.8 1.8 0 0 0 12 2z"/></svg>