<svg xmlns="http://www.w3.org/2000/svg" viewBox="0 0 24 24"><path d="M11 1.5v1.55C6.83 3.5 3.5 6.83 3.05 11H1.5v2h1.55c.45 4.17 3.78 7.5 7.95 7.95v1.55h2v-1.55c4.17-.45 7.5-3.78 7.95-7.95h1.55v-2h-1.55C20.5 6.83 17.17 3.5 13 3.05V1.5zm0 3.57V6.5h2V5.07A6.98 6.98 0 0 1 18.93 11H17.5v2h1.43A6.98 6.98 0 0 1 13 18.93V17.5h-2v1.43A6.98 6.98 0 0 1 5.07 13H6.5v-2H5.07A6.98 6.98 0 0 1 11 5.07zM12 8a2 2 0 0 0-2 2 2 2 0 0 0 2 2 2 2 0 0 0 2-2 2 2 0 0 0-2-2zm0 5c-1.33 0-4 .67-4 2v1h8v-1c0-1.33-2.67-2-4-2z"/></svg>