<svg xmlns="http://www.w3.org/2000/svg" viewBox="0 0 24 24"><path d="M7.67 3C6.34 3 5.25 4.09 5.25 5.42c0 1.16.82 2.13 1.9 2.37v.06c0 1.05.35 2.03.91 2.82-.77.4-1.42.92-1.9 1.53A2.24 2.24 0 0 0 3 14.25c0 1.25 1 2.25 2.25 2.25h.06c-.04.24-.06.5-.06.75 0 2.07 1.34 3.75 3 3.75 1.01 0 1.9-.63 2.45-1.59.42.06.85.09 1.3.09s.88-.03 1.3-.09c.55.96 1.44 1.59 2.45 1.59 1.66 0 3-1.68 3-3.75 0-.25-.02-.51-.06-.75h.06c1.25 0 2.25-1 2.25-2.25a2.24 2.24 0 0 0-3.16-2.05c-.48-.61-1.13-1.13-1.91-1.53.57-.8.91-1.77.91-2.82v-.06c1.09-.23 1.91-1.2 1.91-2.37 0-1.33-1.09-2.42-2.42-2.42-.69 0-1.33.29-1.75.75a4.81 4.81 0 0 0-5.16 0C9 3.29 8.36 3 7.67 3zM12 7.5c1.24 0 2.25.84 2.25 1.88 0 1.03-1.01 1.87-2.25 1.87s-2.25-.84-2.25-1.87c0-1.04 1.01-1.88 2.25-1.88zm0 .75c-.41 0-.75.34-.75.75s.34.75.75.75.75-.34.75-.75-.34-.75-.75-.75zm-3.75 7.13c.83 0 1.5.84 1.5 1.87 0 1.04-.67 1.88-1.5 1.88s-1.5-.84-1.5-1.88c0-1.03.67-1.87 1.5-1.87zm7.5 0c.83 0 1.5.84 1.5 1.87 0 1.04-.67 1.88-1.5 1.88s-1.5-.84-1.5-1.88c0-1.03.67-1.87 1.5-1.87z"/></svg>