<svg xmlns="http://www.w3.org/2000/svg" viewBox="0 0 24 24"><path d="M9 1v2h6V1zm3 3a9 9 0 0 0 0 18c.42 0 .83-.04 1.24-.09-.15-.38-.24-.79-.24-1.21v-3.5c0-.96.5-1.86 1.2-2.46v-.24c0-2.44 2.2-4.5 4.8-4.5.55 0 1.07.11 1.57.28a9 9 0 0 0-1.54-2.89l1.42-1.42c-.45-.51-.9-.97-1.41-1.41L17.62 6c-1.55-1.26-3.5-2-5.62-2zm-1 3h2v7h-2zm8 5c-1.4 0-2.8 1.1-2.8 2.5V16c-.6 0-1.2.6-1.2 1.2v3.5c0 .7.6 1.3 1.2 1.3h5.5c.7 0 1.3-.6 1.3-1.2v-3.5c0-.7-.6-1.3-1.2-1.3v-1.5c0-1.4-1.4-2.5-2.8-2.5zm0 1.2c.8 0 1.5.5 1.5 1.3V16h-3v-1.5c0-.8.7-1.3 1.5-1.3z"/></svg>