<svg xmlns="http://www.w3.org/2000/svg" viewBox="0 0 24 24"><path d="M9 1v2h6V1zm3 3a9 9 0 0 0 0 18c.87 0 1.7-.13 2.5-.35-.94-1.15-1.5-2.57-1.5-4.15a6.5 6.5 0 0 1 7.8-6.37 9 9 0 0 0-1.77-3.74l1.42-1.42c-.45-.51-.9-.97-1.41-1.41L17.62 6c-1.55-1.26-3.5-2-5.62-2zm-1 3h2v7h-2zm8 5-2.25 2.25L19 16.5V15a2.5 2.5 0 0 1 2.5 2.5c0 .4-.09.78-.26 1.12l1.09 1.09c.42-.63.67-1.39.67-2.21 0-2.21-1.79-4-4-4zm-3.33 3.29c-.42.63-.67 1.39-.67 2.21 0 2.21 1.79 4 4 4V23l2.25-2.25L19 18.5V20a2.5 2.5 0 0 1-2.5-2.5c0-.4.09-.78.26-1.12z"/></svg>