<svg xmlns="http://www.w3.org/2000/svg" viewBox="0 0 24 24"><path d="M12 2c-1.06 0-2.08.22-3.04.5l.68 1.84-.94.36L8 2.84c-2.12.92-3.82 2.56-4.86 4.62l1.78.8-.42.92-1.8-.8A9.9 9.9 0 0 0 2 12c0 1.06.22 2.08.5 3.04l1.84-.68.36.94-1.86.7c.92 2.12 2.56 3.82 4.62 4.86l.8-1.78.92.42-.8 1.8c1.12.44 2.34.7 3.62.7 1.06 0 2.08-.22 3.04-.5l-.68-1.84.94-.36.7 1.86c2.12-.92 3.82-2.56 4.86-4.62l-1.78-.8.42-.92 1.8.8c.44-1.12.7-2.34.7-3.62 0-1.06-.22-2.08-.5-3.04l-1.84.68-.36-.94 1.86-.7c-.92-2.12-2.56-3.82-4.62-4.86l-.8 1.78-.92-.42.8-1.8A9.9 9.9 0 0 0 12 2zm.04 4.004c2.34.017 4.554 1.4 5.5 3.695a5.985 5.985 0 0 1-3.24 7.84c-3.06 1.26-6.58-.178-7.84-3.238s.18-6.58 3.24-7.84a6 6 0 0 1 2.34-.457z"/></svg>