<svg xmlns="http://www.w3.org/2000/svg" viewBox="0 0 24 24"><path d="M4 2c-.53 0-1.04.21-1.41.59C2.21 2.96 2 3.47 2 4v12c0 .53.21 1.04.59 1.41.37.38.88.59 1.41.59h4l4 4 4-4h4c.53 0 1.04-.21 1.41-.59S22 16.53 22 16V4c0-.53-.21-1.04-.59-1.41C21.04 2.21 20.53 2 20 2zm0 2h16v12h-4.83L12 19.17 8.83 16H4zm8.19 1.5c-.89 0-1.6.18-2.14.54-.55.36-.83.96-.78 1.65h1.97c0-.28.1-.49.26-.63.2-.14.42-.21.69-.21.31 0 .58.08.76.26.18.17.27.39.27.69 0 .28-.08.53-.22.74-.17.22-.38.4-.64.54-.52.32-.86.6-1.07.84-.19.24-.29.58-.29 1.08h2c0-.28.05-.5.14-.68.09-.17.26-.32.52-.47.46-.21.84-.49 1.13-.85.29-.37.44-.76.44-1.2q0-1.05-.81-1.68c-.54-.41-1.29-.62-2.23-.62zM11 12v2h2v-2z"/></svg>