<svg xmlns="http://www.w3.org/2000/svg" viewBox="0 0 24 24"><path d="M8 3c-.55 0-1 .45-1 1v1H4c0 1.86 1.28 3.41 3 3.86V10H4c0 1.86 1.28 3.41 3 3.86V15H4c0 1.86 1.28 3.41 3 3.86V20c0 .55.45 1 1 1h8c.55 0 1-.45 1-1v-1.14c1.72-.45 3-2 3-3.86h-3v-1.14c1.72-.45 3-2 3-3.86h-3V8.86c1.72-.45 3-2 3-3.86h-3V4c0-.55-.45-1-1-1zm1 2h6v14H9zm3 1c-.83 0-1.5.67-1.5 1.5S11.17 9 12 9s1.5-.67 1.5-1.5S12.83 6 12 6zm0 4.5c-.83 0-1.5.67-1.5 1.5s.67 1.5 1.5 1.5 1.5-.67 1.5-1.5-.67-1.5-1.5-1.5zm0 4.5c-.83 0-1.5.67-1.5 1.5S11.17 18 12 18s1.5-.67 1.5-1.5S12.83 15 12 15z"/></svg>