<svg xmlns="http://www.w3.org/2000/svg" viewBox="0 0 24 24"><path d="M15 2c-2.71 0-5.05 1.54-6.22 3.78a7.1 7.1 0 0 0-3 3A7.02 7.02 0 0 0 2 15a7 7 0 0 0 7 7c2.71 0 5.05-1.54 6.22-3.78a7.1 7.1 0 0 0 3-3A7.02 7.02 0 0 0 22 9a7 7 0 0 0-7-7zm0 2a5 5 0 0 1 5 5c0 1.13-.37 2.16-1 3a7 7 0 0 0-7-7c.84-.63 1.87-1 3-1zm-3 3a5 5 0 0 1 5 5c0 .6-.1 1.17-.3 1.7-.53.2-1.1.3-1.7.3a5 5 0 0 1-5-5c0-.6.1-1.17.3-1.7.53-.2 1.1-.3 1.7-.3zM8 9a7 7 0 0 0 7 7c-.84.63-1.87 1-3 1a5 5 0 0 1-5-5c0-1.13.37-2.16 1-3zm-3 3a7 7 0 0 0 7 7c-.84.63-1.87 1-3 1a5 5 0 0 1-5-5c0-1.13.37-2.16 1-3z"/></svg>