<svg xmlns="http://www.w3.org/2000/svg" viewBox="0 0 24 24"><path d="M6 2a2 2 0 0 0-2 2v16a2 2 0 0 0 2 2h12a2 2 0 0 0 2-2V4a2 2 0 0 0-2-2zm1 2a1 1 0 0 1 1 1 1 1 0 0 1-1 1 1 1 0 0 1-1-1 1 1 0 0 1 1-1zm3 0a1 1 0 0 1 1 1 1 1 0 0 1-1 1 1 1 0 0 1-1-1 1 1 0 0 1 1-1zm2 4a6 6 0 0 1 6 6 6 6 0 0 1-6 6 6 6 0 0 1-6-6 6 6 0 0 1 6-6zm-3.89 2.5c-.26 1.79.21 3.14 1.31 4.21.58.62.82 1.41.58 2.79h1.89c.27-1.79-.21-3.14-1.31-4.21-.58-.62-.82-1.41-.58-2.79zm4 0c-.26 1.79.21 3.14 1.31 4.21.58.62.82 1.41.58 2.79h1.89c.27-1.79-.21-3.14-1.31-4.21-.58-.62-.82-1.41-.58-2.79z"/></svg>