<svg xmlns="http://www.w3.org/2000/svg" viewBox="0 0 24 24"><path d="M12 2C6.5 2 2 6.5 2 12s4.5 10 10 10 10-4.5 10-10S17.5 2 12 2zm0 2c4.4 0 8 3.6 8 8s-3.6 8-8 8-8-3.6-8-8 3.6-8 8-8zm-.7 1c-1 .3-1.6 1.3-1.4 2.4l.3 1.3-2.3-2.4c-.7.7-.7 2 0 2.7l1 1-3.3-.9c-.3 1 .3 2.1 1.4 2.4l1.3.3-3.3.9c.3 1 1.3 1.6 2.4 1.4l1.3-.3-2.4 2.4c.8.7 2 .7 2.7 0l.9-.9-.9 3.3c1 .3 2.1-.3 2.4-1.4l.3-1.3.9 3.3c1-.3 1.6-1.3 1.4-2.4l-.3-1.3 2.4 2.4c.7-.8.7-2 0-2.7l-1-1.2 3.3.9c.3-1-.3-2.1-1.4-2.4l-1.3-.3 3.3-.9c-.3-1-1.3-1.6-2.4-1.4l-1.3.3 2.4-2.4c-.8-.7-2-.7-2.7 0l-.9 1 .9-3.3c-1.1-.2-2.2.4-2.5 1.5l-.3 1.3zm.7 5.5c.8 0 1.5.7 1.5 1.5s-.7 1.5-1.5 1.5-1.5-.7-1.5-1.5.7-1.5 1.5-1.5z"/></svg>