<svg xmlns="http://www.w3.org/2000/svg" viewBox="0 0 24 24"><path d="M11.97 1.97C10.87 2 10 2.9 10 4v1.28c-.53.16-1.05.39-1.53.67l1.6 2.12h3.86l1.6-2.12c-.48-.28-1-.5-1.53-.67V4c0-1.1-.87-2-2.03-2.03zm4.77 4.88-1.6 2.11 1.19 3.66 2.53.78c.09-.45.14-.9.14-1.4v-.36l3-.36a3.57 3.57 0 0 0-1.89-2.69c-.68-.34-1.44-.46-2.23-.39q-.495-.75-1.14-1.35zm-9.5.02c-.45.41-.83.88-1.16 1.39a3.54 3.54 0 0 0-2.19.33A3.57 3.57 0 0 0 2 11.28l3 .37V12c0 .5.05.95.14 1.4l2.53-.78 1.19-3.67zm3 2.7-1.09 3.36L12 15l2.85-2.07-1.09-3.36zm-2.11 4.48-2.54.77c.28.64.65 1.22 1.1 1.74-.34.68-.46 1.44-.32 2.2a3.49 3.49 0 0 0 2.02 2.58l1.23-2.76c.51.19 1.06.32 1.63.38v-2.65zm7.74 0-3.12 2.26V19c.58-.06 1.11-.23 1.64-.42l1.22 2.76a3.52 3.52 0 0 0 2.03-2.58c.13-.76.01-1.52-.33-2.2.45-.52.82-1.1 1.1-1.74z"/></svg>