<svg xmlns="http://www.w3.org/2000/svg" viewBox="0 0 24 24"><path d="M6 3v7H3v2h18v-2h-3V3zm2 2h8v1H8zm0 2h6v1H8zm-4 6-2 5v2c0 1.1.9 2 2 2h16c1.1 0 2-.9 2-2v-2l-2-5h-4c0 1.1-.9 2-2 2h-4c-1.1 0-2-.9-2-2zm1.965 4.996A1.005 1.005 0 0 1 7 19c0 .55-.45 1-1 1-.89 0-1.34-1.08-.71-1.71a.98.98 0 0 1 .675-.294zm4 0A1.005 1.005 0 0 1 11 19c0 .55-.45 1-1 1-.89 0-1.34-1.08-.71-1.71a.98.98 0 0 1 .675-.294zm4 0A1.005 1.005 0 0 1 15 19c0 .55-.45 1-1 1-.89 0-1.34-1.08-.71-1.71a.98.98 0 0 1 .675-.294zm4 0A1.005 1.005 0 0 1 19 19c0 .55-.45 1-1 1-.89 0-1.34-1.08-.71-1.71a.98.98 0 0 1 .675-.294z"/></svg>