<svg xmlns="http://www.w3.org/2000/svg" viewBox="0 0 24 24"><path d="M12 2A10 10 0 0 0 2 12a10 10 0 0 0 10 10 10 10 0 0 0 10-10A10 10 0 0 0 12 2zm2.857 3.496A1.226 1.226 0 0 1 16 7.301c-.35.57-1.08.77-1.66.44A1.21 1.21 0 0 1 13.9 6.1c.207-.375.572-.582.957-.604zM11.881 6.78c.49 0 .948.072 1.398.192.08.48.36.93.82 1.19.45.26.98.288 1.44.118.89.87 1.46 2.061 1.55 3.381l-1.708.03a3.497 3.497 0 0 0-3.5-3.19c-.53 0-1.03.11-1.47.32l-.84-1.5c.7-.35 1.48-.54 2.31-.54zM9 7.65l.86 1.48c-.9.63-1.49 1.68-1.49 2.87s.59 2.24 1.49 2.87L9 16.34a5.2 5.2 0 0 1-2.17-3.03c.38-.31.62-.78.62-1.31s-.24-1-.62-1.31A5.22 5.22 0 0 1 9 7.65zM5.76 10.8c.67 0 1.2.54 1.2 1.2s-.53 1.2-1.2 1.2c-.66 0-1.2-.54-1.2-1.2s.54-1.2 1.2-1.2zm9.62 1.51 1.71.02a5.2 5.2 0 0 1-1.55 3.39c-.46-.17-.98-.15-1.44.12-.46.26-.74.7-.82 1.19-.45.12-.91.19-1.4.19-.83 0-1.61-.22-2.31-.54l.84-1.5c.44.21.94.32 1.47.32 1.84 0 3.34-1.4 3.5-3.19zm-.353 3.792c.387.026.754.235.973.597.31.57.12 1.3-.46 1.64-.57.33-1.31.131-1.64-.439a1.205 1.205 0 0 1 1.127-1.798z"/></svg>