<svg xmlns="http://www.w3.org/2000/svg" viewBox="0 0 24 24"><path d="M19.09 3.41c-2.77-.09-4.65 1.48-5.63 4.71.51-.22 1-.33 1.48-.33q1.53 0 1.35 1.71-.09 1.05-1.35 3.03c-.84 1.33-1.47 1.97-1.89 1.97-.55 0-1.05-1-1.48-3.04-.15-.6-.42-2.13-.81-4.6-.36-2.28-1.32-3.36-2.88-3.2-.65.06-1.64.66-2.96 1.8C3.96 6.33 3 7.2 2 8.07l.94 1.22c.9-.63 1.42-.95 1.56-.95.7 0 1.34 1.08 1.94 3.24.56 1.98 1.06 3.96 1.61 5.92.81 2.17 1.8 3.25 2.95 3.25 1.9 0 4.2-1.75 6.92-5.31 2.63-3.4 3.99-6.07 4.08-8.02.12-2.61-.85-3.95-2.91-4.01z"/></svg>