<svg xmlns="http://www.w3.org/2000/svg" viewBox="0 0 24 24"><path d="M5 5a4 4 0 0 0-4 4 4 4 0 0 0 4 4c1.1 0 2.1-.45 2.83-1.17l-1.42-1.42c-.36.37-.86.59-1.41.59a2 2 0 0 1-2-2 2 2 0 0 1 2-2c.55 0 1.05.22 1.41.59l2.76 2.76 1.42-1.42-2.76-2.76A4 4 0 0 0 5 5zm4 0 3 3 3-3zm10 0c-1.11 0-2.11.45-2.83 1.17l-7.08 7.07.01.01C8.42 13.96 8 14.93 8 16a4 4 0 0 0 4 4 4 4 0 0 0 4-4c0-1.1-.45-2.1-1.17-2.83l-1.42 1.42c.37.36.59.86.59 1.41a2 2 0 0 1-2 2 2 2 0 0 1-2-2c0-.5.2-1 .5-1.34l7.09-7.07c.36-.37.86-.59 1.41-.59a2 2 0 0 1 2 2 2 2 0 0 1-2 2c-.55 0-1.05-.22-1.41-.59l-1.42 1.42C16.9 12.55 17.9 13 19 13a4 4 0 0 0 4-4 4 4 0 0 0-4-4z"/></svg>