<svg xmlns="http://www.w3.org/2000/svg" viewBox="0 0 24 24"><path d="M2.39 1.73 1.11 3l5.8 5.8a5.997 5.997 0 0 0 1.36 7.92L9 21h6l.55-3.56 5.29 5.29 1.27-1.27-5.61-5.6-1.06-1.07L9.17 8.5 8.09 7.44zM9 3l-.41 2.39 2.27 2.27c.37-.11.75-.16 1.14-.16 2.47 0 4.47 2.03 4.46 4.5-.01.38-.06.76-.16 1.13l1.2 1.18c.31-.73.5-1.51.5-2.31 0-1.83-.84-3.56-2.28-4.69L15 3zM3 7v10h2V7zm16 0v8.8l1.2 1.2h.8V7zM0 9v6h2V9zm22 0v6h2V9zm-13.95.94 6 6a4.3 4.3 0 0 1-2.05.52c-2.47.01-4.5-1.99-4.5-4.46 0-.72.2-1.43.55-2.06z"/></svg>