<svg xmlns="http://www.w3.org/2000/svg" viewBox="0 0 24 24"><path d="M13.29 3c-2.1 0-4.13.7-5.79 2a7.3 7.3 0 0 0-2.72 4.35c-.08.52-.14 1.04-.17 1.57-.01.76-.15 1.51-.39 2.23-.17.38-.45.63-1.17.63-.23 0-.45.08-.63.22-.46.34-.56.97-.23 1.41a8.37 8.37 0 0 0 4 2.85 2.2 2.2 0 0 0-.1.57c.02 1.06.82 1.94 1.88 2.04 1.14.13 2.16-.73 2.27-1.87h3.07c.04 1.11.96 2 2.07 2 .25 0 .5-.05.74-.14a2.08 2.08 0 0 0 1.2-2.68 9.1 9.1 0 0 0 2.26-1.58 7.35 7.35 0 0 0 2-3.06c.42-1.2.52-2.47.31-3.72a7.6 7.6 0 0 0-1.35-3.19A8.7 8.7 0 0 0 17.4 4a9.04 9.04 0 0 0-4.11-1zm0 1.05c4.71 0 8.92 4.22 7.3 9.16-.69 1.83-2.09 3.29-3.87 4.1-.12-.1-.22-.19-.37-.27-1.02-.54-2.28-.12-2.8.9H10a1.4 1.4 0 0 0-.26-.39c-.77-.86-2.08-.94-2.93-.18C5.32 16.93 4 16 3.05 14.79c2.95 0 2.38-3.29 2.76-5.29.59-3 3.55-5 6.42-5.38.35-.05.71-.07 1.06-.07zm-2.44 4.14c-.58.04-1.03.54-1 1.12.03.59.54 1.03 1.12 1l.03-.02c.56-.02 1-.49.97-1.04-.03-.64-.54-1.09-1.12-1.06zm4.69 0c-.58.04-1.04.54-1 1.12.03.59.54 1.03 1.12 1v-.02c.59-.02 1.02-.49 1-1.04-.03-.64-.54-1.09-1.12-1.06zm-5.315 3.251a.5.5 0 0 0-.106.008.526.526 0 0 0-.408.621l-.031-.01a3.51 3.51 0 0 0 3.53 2.58h.11c.84-.01 1.65-.28 2.34-.76.6-.43 1.04-1.05 1.23-1.76 0-.2-.11-.37-.29-.47-.25-.15-.57-.03-.71.23a2.59 2.59 0 0 1-2.57 1.72c-1.16.09-2.23-.63-2.58-1.74a.54.54 0 0 0-.515-.419z"/></svg>