<svg xmlns="http://www.w3.org/2000/svg" viewBox="0 0 24 24"><path d="m14.37.84-2.49 1.31c.57.11 1.12.27 1.67.51.64.29 1.21.65 1.72 1.07zm-9.46 1L4.8 4.66q.555-.675 1.29-1.2c.56-.41 1.16-.73 1.78-.93zm5.705 2.19c-2.144-.036-4.2 1.187-5.115 3.25-.9 1.99-.5 4.19.77 5.75H6c-2.21 0-4 1.78-4 4a4 4 0 0 0 4 4s1 0 1-1-1-1-1-1a2 2 0 0 1-2-2 2 2 0 0 1 2-2h2c0-2.22 1.79-4 4-4a4 4 0 0 1 4 4v2h3a1 1 0 0 1 1 1c0 .54-.45 1-1 1h-2s-1 0-1 1 1 1 1 1h2a3 3 0 0 0 3-3c0-1.66-1.34-3-3-3-.35 0-.69.05-1 .16v-.16c0-1.82-.81-3.45-2.08-4.53.43-2.45-.82-4.97-3.17-6a5.5 5.5 0 0 0-2.135-.47zm-.045 1.986c.455.008.917.107 1.36.304A3.52 3.52 0 0 1 14 9.37c-.62-.22-1.3-.34-2-.34-1.84 0-3.5.82-4.59 2.13a3.51 3.51 0 0 1-.1-3.07 3.49 3.49 0 0 1 3.26-2.074zm7.02 1.013c.19.54.32 1.121.41 1.701.05.69.03 1.37-.08 2.03l2.05-2.23zM3.1 8.301l-2.04 2.228 2.37 1.5a8.4 8.4 0 0 1-.39-1.709C2.97 9.64 3 8.95 3.1 8.3zm9.187 8.726a.72.72 0 0 0-.736.534l-.41 1.58L10 17.97c-.3-.28-.77-.28-1.05 0-.27.3-.27.749 0 1.029l1.16 1.16-1.57.41a.72.72 0 0 0 .37 1.39l1.59-.42-.44 1.57c-.1.39.13.79.51.89s.78-.13.88-.5l.42-1.59 1.16 1.16c.27.28.74.28 1.02 0s.28-.75 0-1.02l-1.16-1.17 1.58-.41c.38-.1.61-.5.53-.88-.12-.38-.5-.59-.91-.51l-1.59.42.44-1.57a.71.71 0 0 0-.653-.903z"/></svg>