<svg xmlns="http://www.w3.org/2000/svg" viewBox="0 0 24 24"><path d="M12 3C9.3 3 7 4.65 6 7a5 5 0 0 0-5 5l.1 1h2.07A3 3 0 0 1 3 12a3 3 0 0 1 3-3c.37 0 .73.07 1.06.19A5 5 0 0 1 12 5a5 5 0 0 1 5 5v1h2a2 2 0 0 1 2 2h2c-.03-2.24-1.81-4-4-4l-.5.03C18.24 5.66 15.43 3 12 3zM3 15a1 1 0 0 0-1 1 1 1 0 0 0 1 1h10a1 1 0 0 0 1-1 1 1 0 0 0-1-1zm13 0a1 1 0 0 0-1 1 1 1 0 0 0 1 1h5a1 1 0 0 0 1-1 1 1 0 0 0-1-1zM3 19a1 1 0 0 0-1 1 1 1 0 0 0 1 1h2a1 1 0 0 0 1-1 1 1 0 0 0-1-1zm5 0a1 1 0 0 0-1 1 1 1 0 0 0 1 1h13a1 1 0 0 0 1-1 1 1 0 0 0-1-1z"/></svg>