<svg xmlns="http://www.w3.org/2000/svg" viewBox="0 0 24 24"><path d="M12 2C9.3 2 7 3.65 6 6a5 5 0 0 0-5 5c0 1.85 1 3.47 2.5 4.33.5.27 1.09.11 1.37-.37a1 1 0 0 0-.37-1.37v.01C3.6 13.08 3 12.11 3 11a3 3 0 0 1 3-3c.37 0 .73.07 1.06.19A5 5 0 0 1 12 4a5 5 0 0 1 5 5v1h2a2 2 0 0 1 2 2 2 2 0 0 1-2 2 1 1 0 0 0-1 1 1 1 0 0 0 1 1 4 4 0 0 0 4-4 4 4 0 0 0-4-4l-.5.03C18.24 4.66 15.43 2 12 2zm-2.5 9L7 17h2.5l-.75 5 3.75-7h-2l2-4zm5.75 3.5S13 17.12 13 18.67c0 1.29 1 2.33 2.25 2.33s2.25-1.04 2.25-2.33c0-1.55-2.25-4.17-2.25-4.17z"/></svg>