<svg xmlns="http://www.w3.org/2000/svg" viewBox="0 0 24 24"><path d="M12 2 9.61 5.42C10.35 5.15 11.16 5 12 5s1.65.15 2.39.42zm4.5 4.64a7.02 7.02 0 0 1 2.38 4.148L20.65 7zm-9 .01L3.34 7l1.77 3.79c.14-.79.39-1.55.83-2.29A7.2 7.2 0 0 1 7.5 6.65zM12 7a5 5 0 0 0-5 5H3a1 1 0 0 0-1 1 1 1 0 0 0 1 1h18a1 1 0 0 0 1-1 1 1 0 0 0-1-1h-4a5 5 0 0 0-5-5zm0 2a3 3 0 0 1 3 3H9a3 3 0 0 1 3-3zm-3.115 6.887a1 1 0 0 0-.705.293c-.39.39-.39 1.03 0 1.42l3.11 3.11c.21.19.45.29.71.29s.5-.1.71-.29l3.11-3.11c.39-.39.39-1.03 0-1.42a.996.996 0 0 0-1.41 0L12 18.59l-2.41-2.41a1 1 0 0 0-.705-.293z"/></svg>