<svg xmlns="http://www.w3.org/2000/svg" viewBox="0 0 24 24"><path d="M5 3a2 2 0 0 0-2 2v14a2 2 0 0 0 2 2h14a2 2 0 0 0 2-2V5a2 2 0 0 0-2-2zm8.096 2.086A7 7 0 0 1 19 12a7 7 0 0 1-7 7 7 7 0 1 1 1.096-13.914zM12 6.42a9.5 9.5 0 0 0-1.34 2.78h2.68A9.5 9.5 0 0 0 12 6.42zm-1.82.29A5.55 5.55 0 0 0 7.16 9.2H9.2a12 12 0 0 1 .98-2.49zm3.63 0a11 11 0 0 1 .97 2.49h2.06a5.6 5.6 0 0 0-3.03-2.49zM6.58 10.6a5.5 5.5 0 0 0 0 2.8h2.37a12 12 0 0 1-.1-1.4 12 12 0 0 1 .1-1.4zm3.78 0a8.8 8.8 0 0 0 0 2.8h3.28a10 10 0 0 0 .11-1.4 10 10 0 0 0-.11-1.4zm4.69 0a12 12 0 0 1 .1 1.4 12 12 0 0 1-.1 1.4h2.37a5.5 5.5 0 0 0 0-2.8zm-7.89 4.2a5.6 5.6 0 0 0 3.02 2.49 12 12 0 0 1-.98-2.49zm3.5 0A9.5 9.5 0 0 0 12 17.57a9.5 9.5 0 0 0 1.34-2.77zm4.12 0a11 11 0 0 1-.97 2.49 5.62 5.62 0 0 0 3.03-2.49z"/></svg>