<svg xmlns="http://www.w3.org/2000/svg" viewBox="0 0 24 24"><path d="M12 3C7.78 3 3.69 4.41.365 7 4.39 12.06 7.88 16.37 12 21.5l1-1.26V17.2c0-.96.5-1.86 1.2-2.46V13.5c0-.06.02-.12.02-.19-.72-.19-1.48-.31-2.22-.31-1.26 0-2.5.28-3.62.8L3.26 7.44A17 17 0 0 1 12 5c3.06 0 6.08.86 8.7 2.45l-1.28 1.59c.74.07 1.44.29 2.08.65L23.64 7C20.31 4.41 16.2 3 12 3zm7 8c-1.4 0-2.8 1.1-2.8 2.5V16c-.6 0-1.2.6-1.2 1.2v3.5c0 .7.6 1.3 1.2 1.3h5.5c.7 0 1.3-.6 1.3-1.2v-3.5c0-.7-.6-1.3-1.2-1.3h-4.3v-2.5c0-.8.7-1.3 1.5-1.3s1.5.5 1.5 1.3v.5h1.3v-.5c0-1.4-1.4-2.5-2.8-2.5z"/></svg>