<svg xmlns="http://www.w3.org/2000/svg" viewBox="0 0 24 24"><path d="M12.344 2C10.95 1.977 10.5 3.44 10.5 3.44l-.81 2.59c-1.23.13-2.23.97-2.56 2.15L2.67 9.63c.64 1.9 2.53 1.27 2.53 1.27l2.07-.67c.34.74.96 1.31 1.73 1.59V19s-2 0-2 2v1h6v-1s0-2-2-2v-7.18c.12-.04.23-.1.33-.15l2.88 2.91c1.41-1.42 0-2.83 0-2.83l-1.49-1.51c.18-.38.28-.8.28-1.24 0-1.05-.54-1.97-1.36-2.5L13 2.11a2.4 2.4 0 0 0-.656-.11zM10 7.5c.83 0 1.5.67 1.5 1.5s-.67 1.5-1.5 1.5S8.5 9.83 8.5 9s.67-1.5 1.5-1.5zM20.34 15l-3.59 3.59L15.16 17 14 18.16l2.75 3 4.75-4.75z"/></svg>