<svg xmlns="http://www.w3.org/2000/svg" viewBox="0 0 24 24"><path d="M17.62 1.5c-.56 0-1.12.21-1.56.62l-3.43 3.21c-.4.37-.63.9-.63 1.45v3.4c-.47.17-.89.45-1.23.82H3.28C2 11 1 12 1 13.28c0 1.02.67 1.91 1.65 2.19l4.51 1.29c.18.05.37.08.55.08.36 0 .72-.1 1.03-.29L11 15.21c.27.26.61.47 1 .61V21c-1.1 0-2 .9-2 2h6c0-1.1-.9-2-2-2v-4.28l4.61 4.61c.45.45 1.03.67 1.61.67s1.17-.22 1.61-.67c.72-.72.88-1.83.38-2.72l-2.28-4.11a2.07 2.07 0 0 0-1.26-.96L16 12.87c-.04-.47-.16-.92-.39-1.33l3.96-6.59a2.28 2.28 0 0 0-.78-3.13c-.36-.22-.79-.32-1.17-.32zM4 3v2h6V3zm13.664.492a.28.28 0 0 1 .205.418l-3.738 6.24-.131-.01V6.78l3.43-3.21a.27.27 0 0 1 .234-.078zM1 7v2h5V7zm12 5c.55 0 1 .45 1 1s-.45 1-1 1-1-.45-1-1 .45-1 1-1zm-9.72 1H10c0 .15 0 .3.04.44l-2.32 1.4-4.52-1.29c-.12-.05-.2-.15-.2-.27 0-.15.13-.28.28-.28zm12.13 1.79 2.78.71 2.28 4.08c.06.11.03.25-.05.34-.05.05-.24.16-.42 0l-4.83-4.85c.08-.07.16-.18.24-.28zM3 19v2h5v-2z"/></svg>