<svg xmlns="http://www.w3.org/2000/svg" viewBox="0 0 24 24"><path d="M6 1c-.7 0-1.4.1-2 .3l.7 1.9c.8-.3 1.9-.3 2.6 0L8 1.3C7.4 1.1 6.7 1 6 1zm8 0c-.7 0-1.4.1-2 .3l.7 1.9c.8-.3 1.9-.3 2.6 0l.7-1.9c-.6-.2-1.3-.3-2-.3zm-4 1.4L8.2 3.9c.7.7.8 1.8.8 2.1-6.3.4-9 5-9 5l7 7s.7-1.3 2-1.8v2.1c-.6.3-1 1-1 1.7a2 2 0 1 0 4 0c0-.7-.4-1.4-1-1.7v-2.1c1.3.5 2 1.8 2 1.8l7-7s-2.7-4.5-9-5c0-.3.1-1.4.8-2.2zm-7.8.2C1 4 1 5.9 1 6h2s0-1.3.7-2.1zm15.5 0-1.5 1.3c.8.8.8 2.1.8 2.1h2c0-.1 0-2-1.3-3.4zM22 7v6h2V7zM9 8.1v6c-.8.2-1.5.5-2.1 1l-4.2-4.2C3.8 9.8 5.8 8.3 9 8.1zm2 0c3.2.3 5.2 1.7 6.3 2.8l-4.2 4.2c-.6-.4-1.3-.8-2.1-1zM22 15v2h2v-2z"/></svg>