<svg xmlns="http://www.w3.org/2000/svg" viewBox="0 0 24 24"><path d="M12 2C9.22 2 6.7 3.13 4.89 4.97h.28c3.11-.4 6.26-.5 9.39-.32.94-.01 1.89.17 2.77.52A2.67 2.67 0 0 1 19 7.37c0 .16-.07.33-.18.45l-9.11 9.37-.71.76v.11h4.14c2.36-.06 4.7-.25 7.03-.56.09-.03.18-.06.26-.11A10 10 0 0 0 22 12 10 10 0 0 0 12 2zm-1.16 3.6c-2.27.04-4.53.22-6.78.55a.7.7 0 0 0-.26.13A9.9 9.9 0 0 0 2 12a10 10 0 0 0 10 10c3 0 5.68-1.32 7.5-3.4l-2.5.25c-2.75.3-5.55.34-8.34.11a5.2 5.2 0 0 1-2.07-.51 2.62 2.62 0 0 1-1.52-2.16c-.01-.16.05-.29.16-.42l2.19-2.27 7.61-7.9v-.1z"/></svg>