<svg xmlns="http://www.w3.org/2000/svg" width="24" height="24" viewBox="0 0 24 24"><path d="M16.5 2.25a.75.75 0 0 0-.531.219.75.75 0 0 0 0 1.062l3.219 3.219H7.5a.75.75 0 0 0-.75.75.75.75 0 0 0 .75.75h11.688l-3.22 3.219a.75.75 0 0 0 0 1.062.75.75 0 0 0 1.063 0l4.5-4.5a.75.75 0 0 0 .194-.338 1 1 0 0 0 0-.13l.025-.063a1 1 0 0 0-.025-.129 1 1 0 0 0-.02-.098.75.75 0 0 0-.174-.304l-4.5-4.5a.75.75 0 0 0-.531-.219zm-9 9a.75.75 0 0 0-.531.219l-4.5 4.5a.75.75 0 0 0 0 1.062l4.5 4.5a.75.75 0 0 0 1.062 0 .75.75 0 0 0 0-1.062L4.812 17.25H16.5a.75.75 0 0 0 .75-.75.75.75 0 0 0-.75-.75H4.813l3.218-3.219a.75.75 0 0 0 0-1.062.75.75 0 0 0-.531-.219z"/></svg>