<svg xmlns="http://www.w3.org/2000/svg" width="24" height="24" viewBox="0 0 24 24"><path d="M12 2.25c-5.376 0-9.75 4.374-9.75 9.75s4.374 9.75 9.75 9.75 9.75-4.374 9.75-9.75S17.376 2.25 12 2.25zm0 1.5A8.24 8.24 0 0 1 20.25 12 8.24 8.24 0 0 1 12 20.25 8.24 8.24 0 0 1 3.75 12 8.24 8.24 0 0 1 12 3.75zm.75 4.5a.75.75 0 0 0-.531.219.75.75 0 0 0 0 1.062l1.719 1.719H8.25a.75.75 0 0 0-.75.75.75.75 0 0 0 .75.75h5.688l-1.72 1.719a.75.75 0 0 0 0 1.062.75.75 0 0 0 1.063 0l3-3a.75.75 0 0 0 .194-.338 1 1 0 0 0 0-.13L16.5 12a1 1 0 0 0-.025-.129v-.064l-.02-.034a.75.75 0 0 0-.174-.304l-3-3a.75.75 0 0 0-.531-.219z"/></svg>