<svg xmlns="http://www.w3.org/2000/svg" width="24" height="24" viewBox="0 0 24 24"><path d="M3 2.25a.749.749 0 0 0-.531 1.281l18 18a.752.752 0 0 0 1.062-1.062l-18-18A.75.75 0 0 0 3 2.25zm9 0a6.73 6.73 0 0 0-4.682 1.887l12.578 12.576q.34-.114.674-.238a.75.75 0 0 0 .3-1.205 8.22 8.22 0 0 1-2.12-5.52V9A6.75 6.75 0 0 0 12 2.25zM5.271 8.453q-.021.27-.021.547v.75a8.22 8.22 0 0 1-2.12 5.52.75.75 0 0 0 .3 1.205c1.544.57 3.159.99 4.83 1.244q-.01.14-.01.281a3.75 3.75 0 0 0 7.406.838zm4.481 9.445a25 25 0 0 0 4.496 0l.002.102a2.25 2.25 0 1 1-4.498-.102z"/></svg>