<svg xmlns="http://www.w3.org/2000/svg" width="24" height="24" viewBox="0 0 24 24"><path d="M5.322 2.25a.75.75 0 0 0-.59.25 9.7 9.7 0 0 0-2.347 4.875.75.75 0 1 0 1.479.25A8.2 8.2 0 0 1 5.85 3.5a.75.75 0 0 0-.528-1.25zm6.678 0A6.75 6.75 0 0 0 5.25 9v.75a8.22 8.22 0 0 1-2.12 5.52.75.75 0 0 0 .3 1.205c1.544.57 3.159.99 4.83 1.244q-.01.14-.01.281a3.75 3.75 0 1 0 7.49-.281 24.6 24.6 0 0 0 4.83-1.244.75.75 0 0 0 .3-1.205 8.22 8.22 0 0 1-2.12-5.52V9A6.75 6.75 0 0 0 12 2.25zm6.678 0a.75.75 0 0 0-.53 1.25 8.2 8.2 0 0 1 1.987 4.125.751.751 0 0 0 1.48-.25A9.7 9.7 0 0 0 19.268 2.5a.75.75 0 0 0-.59-.25zM9.752 17.898a25 25 0 0 0 4.496 0l.002.102a2.25 2.25 0 1 1-4.498-.102z"/></svg>