<svg xmlns="http://www.w3.org/2000/svg" width="24" height="24" viewBox="0 0 24 24"><path d="M6 3a9.7 9.7 0 0 0-3.25.555.75.75 0 0 0-.5.707v14.25a.75.75 0 0 0 1 .707A8.2 8.2 0 0 1 6 18.75c2.117 0 4.04.793 5.5 2.1a.8.8 0 0 0 .234.082.8.8 0 0 0 .246.101l.02.008.02-.008a.8.8 0 0 0 .246-.101.8.8 0 0 0 .234-.082 8.2 8.2 0 0 1 5.5-2.1c.966 0 1.89.165 2.75.469a.75.75 0 0 0 1-.707V4.262a.75.75 0 0 0-.5-.707A9.7 9.7 0 0 0 18 3c-2.283 0-4.337.858-6 2.176C10.337 3.858 8.283 3 6 3zm0 1.5c2.011 0 3.82.753 5.25 1.945v12.52C9.716 17.96 7.967 17.25 6 17.25c-.788 0-1.515.208-2.25.385V4.883C4.472 4.676 5.21 4.5 6 4.5zm12 0c.79 0 1.528.176 2.25.383v12.752c-.735-.177-1.462-.385-2.25-.385-1.967 0-3.716.71-5.25 1.715V6.445C14.18 5.253 15.989 4.5 18 4.5z"/></svg>