<svg xmlns="http://www.w3.org/2000/svg" width="24" height="24" viewBox="0 0 24 24"><path d="M5.379 2.25a2.25 2.25 0 0 0-1.592.658l-1.19 1.19a3.763 3.763 0 0 0 0 5.304c.123.123.268.207.403.309V20.25h-.639a.75.75 0 0 0-.75.75.75.75 0 0 0 .75.75H21.64a.75.75 0 0 0 .75-.75.75.75 0 0 0-.75-.75H21V9.71c.134-.101.278-.186.4-.308a3.763 3.763 0 0 0 0-5.304l-1.187-1.19a2.25 2.25 0 0 0-1.592-.658zm0 1.5H18.62c.2 0 .39.08.531.22l1.188 1.188a2.24 2.24 0 0 1 0 3.184 2.247 2.247 0 0 1-3.182 0V8.34a2 2 0 0 1-.096-.102.75.75 0 0 0-1.125 0A2.24 2.24 0 0 1 14.25 9a2.24 2.24 0 0 1-1.687-.762.75.75 0 0 0-1.126 0A2.24 2.24 0 0 1 9.75 9a2.24 2.24 0 0 1-1.687-.762.75.75 0 0 0-1.126 0q-.045.053-.095.104a2.25 2.25 0 0 1-3.184 0 2.24 2.24 0 0 1 0-3.184l1.19-1.187a.75.75 0 0 1 .53-.221zm2.08 5.87c.642.512 1.41.88 2.291.88.863 0 1.614-.358 2.25-.852.636.494 1.387.852 2.25.852.881 0 1.649-.368 2.291-.88.884.668 1.917.825 2.959.605V20.25h-.75V13.5c0-.82-.68-1.5-1.5-1.5h-3c-.82 0-1.5.68-1.5 1.5v6.75H4.5V10.225c1.041.22 2.075.062 2.959-.606zM6.75 12c-.82 0-1.5.68-1.5 1.5v3.75c0 .82.68 1.5 1.5 1.5h3.75c.82 0 1.5-.68 1.5-1.5V13.5c0-.82-.68-1.5-1.5-1.5zm0 1.5h3.75v3.75H6.75zm7.5 0h3v6.75h-3z"/></svg>