<svg xmlns="http://www.w3.org/2000/svg" width="24" height="24" viewBox="0 0 24 24"><path d="M6.75 2.25A.75.75 0 0 0 6 3v1.5h-.75a3 3 0 0 0-3 3v11.25a3 3 0 0 0 3 3h13.5a3 3 0 0 0 3-3V7.5a3 3 0 0 0-3-3H18V3a.75.75 0 0 0-1.5 0v1.5h-9V3a.75.75 0 0 0-.75-.75zm-1.5 7.5h13.5a1.5 1.5 0 0 1 1.5 1.5v7.5a1.5 1.5 0 0 1-1.5 1.5H5.25a1.5 1.5 0 0 1-1.5-1.5v-7.5a1.5 1.5 0 0 1 1.5-1.5zM11.96 12a.75.75 0 1 0 .04 0zm2.25 0a.75.75 0 1 0 .04 0zm2.25 0a.75.75 0 1 0 .04 0zm-9 2.25a.75.75 0 1 0 .04 0zm2.25 0a.75.75 0 1 0 .04 0zm2.25 0a.75.75 0 1 0 .04 0zm2.25 0a.75.75 0 1 0 .04 0zm2.25 0a.75.75 0 1 0 .04 0zm-9 2.25a.75.75 0 1 0 .04 0zm2.25 0a.75.75 0 1 0 .04 0zm2.25 0a.75.75 0 1 0 .04 0zm2.25 0a.75.75 0 1 0 .04 0z"/></svg>