<svg xmlns="http://www.w3.org/2000/svg" width="24" height="24" viewBox="0 0 24 24"><path d="M12 1.5c-4.97 0-9 2.183-9 4.875s4.03 4.875 9 4.875 9-2.183 9-4.875S16.97 1.5 12 1.5zM3.025 9.756a3 3 0 0 0-.025.369C3 12.817 7.03 15 12 15s9-2.183 9-4.875a3 3 0 0 0-.025-.37 8.3 8.3 0 0 1-1.897 1.386C17.19 12.163 14.685 12.75 12 12.75s-5.19-.587-7.078-1.61a8.3 8.3 0 0 1-1.897-1.384zm0 3.75a3 3 0 0 0-.025.369c0 2.692 4.03 4.875 9 4.875s9-2.183 9-4.875a3 3 0 0 0-.025-.37 8.3 8.3 0 0 1-1.897 1.386C17.19 15.913 14.685 16.5 12 16.5s-5.19-.587-7.078-1.61a8.3 8.3 0 0 1-1.897-1.384zm0 3.75a3 3 0 0 0-.025.369c0 2.692 4.03 4.875 9 4.875s9-2.183 9-4.875a3 3 0 0 0-.025-.37 8.3 8.3 0 0 1-1.897 1.386C17.19 19.663 14.685 20.25 12 20.25s-5.19-.587-7.078-1.61a8.3 8.3 0 0 1-1.897-1.384z"/></svg>