<svg xmlns="http://www.w3.org/2000/svg" width="24" height="24" viewBox="0 0 24 24"><path d="M11.828 2.25c-.916 0-1.699.662-1.85 1.566l-.091.55a.8.8 0 0 1-.516.609q-.244.09-.478.197a.8.8 0 0 1-.797-.065l-.453-.322a1.875 1.875 0 0 0-2.416.2l-.243.242a1.875 1.875 0 0 0-.199 2.416l.322.453a.8.8 0 0 1 .065.797 7 7 0 0 0-.197.478.8.8 0 0 1-.61.516l-.549.092a1.875 1.875 0 0 0-1.566 1.85v.343c0 .916.662 1.699 1.566 1.85l.55.091c.28.047.509.25.609.516q.09.243.197.478a.8.8 0 0 1-.065.797l-.324.453a1.876 1.876 0 0 0 .201 2.416l.243.243c.648.648 1.67.732 2.416.199l.453-.322a.8.8 0 0 1 .797-.065q.235.107.478.197a.8.8 0 0 1 .516.61l.092.549c.15.904.933 1.566 1.85 1.566h.343c.916 0 1.699-.662 1.85-1.566l.091-.55a.8.8 0 0 1 .516-.609q.243-.09.478-.197a.8.8 0 0 1 .797.065l.453.322a1.875 1.875 0 0 0 2.416-.2l.243-.242c.648-.648.732-1.67.199-2.416l-.322-.453a.8.8 0 0 1-.065-.797q.107-.235.197-.478a.8.8 0 0 1 .61-.516l.549-.092a1.875 1.875 0 0 0 1.566-1.85v-.343c0-.916-.662-1.699-1.566-1.85l-.55-.091a.8.8 0 0 1-.609-.516 8 8 0 0 0-.197-.478.8.8 0 0 1 .065-.797l.322-.453a1.875 1.875 0 0 0-.2-2.416l-.242-.243a1.875 1.875 0 0 0-2.416-.199l-.453.322a.8.8 0 0 1-.797.065 8 8 0 0 0-.478-.197.8.8 0 0 1-.516-.61l-.092-.549a1.875 1.875 0 0 0-1.85-1.566z"/></svg>