<svg xmlns="http://www.w3.org/2000/svg" width="24" height="24" viewBox="0 0 24 24"><path d="M8.25 2.25A.75.75 0 0 0 7.5 3v.75h-.75c-1.648 0-3 1.352-3 3v.75H3a.75.75 0 0 0-.75.75A.75.75 0 0 0 3 9h.75v2.25H3a.75.75 0 0 0-.75.75.75.75 0 0 0 .75.75h.75V15H3a.75.75 0 0 0-.75.75.75.75 0 0 0 .75.75h.75v.75c0 1.648 1.352 3 3 3h.75V21a.75.75 0 0 0 .75.75A.75.75 0 0 0 9 21v-.75h2.25V21a.75.75 0 0 0 .75.75.75.75 0 0 0 .75-.75v-.75H15V21a.75.75 0 0 0 .75.75.75.75 0 0 0 .75-.75v-.75h.75c1.648 0 3-1.352 3-3v-.75H21a.75.75 0 0 0 .75-.75A.75.75 0 0 0 21 15h-.75v-2.25H21a.75.75 0 0 0 .75-.75.75.75 0 0 0-.75-.75h-.75V9H21a.75.75 0 0 0 .75-.75.75.75 0 0 0-.75-.75h-.75v-.75c0-1.648-1.352-3-3-3h-.75V3a.75.75 0 0 0-.75-.75A.75.75 0 0 0 15 3v.75h-2.25V3a.75.75 0 0 0-.75-.75.75.75 0 0 0-.75.75v.75H9V3a.75.75 0 0 0-.75-.75zm-1.5 3h10.5c.837 0 1.5.663 1.5 1.5v10.5c0 .837-.663 1.5-1.5 1.5H6.75a1.49 1.49 0 0 1-1.5-1.5V6.75c0-.837.663-1.5 1.5-1.5zm.75 1.5a.75.75 0 0 0-.75.75v9a.75.75 0 0 0 .75.75h9a.75.75 0 0 0 .75-.75v-9a.75.75 0 0 0-.75-.75zm.75 1.5h7.5v7.5h-7.5z"/></svg>