<svg xmlns="http://www.w3.org/2000/svg" width="24" height="24" viewBox="0 0 24 24"><path d="M12 1.5a.75.75 0 0 0-.377.102l-9 5.25a1 1 0 0 0-.059.078.8.8 0 0 0-.134.134 1 1 0 0 0-.078.059 1 1 0 0 0-.014.104.8.8 0 0 0-.049.18 1 1 0 0 0-.039.093v9a.75.75 0 0 0 .373.648l9 5.25a1 1 0 0 0 .104.014.8.8 0 0 0 .18.049A1 1 0 0 0 12 22.5a1 1 0 0 0 .094-.04.8.8 0 0 0 .18-.048 1 1 0 0 0 .103-.014l9-5.25a.75.75 0 0 0 .373-.648V7.496l-.002-.01a.75.75 0 0 0-.088-.324l-.002-.002-.008-.033-.002-.004-.007-.006-.034-.033a.8.8 0 0 0-.187-.19l-.043-.042-9-5.25A.75.75 0 0 0 12 1.5zm0 1.62 7.512 4.38L12 11.88 4.488 7.5zM3.75 8.806l7.5 4.375v7.261l-7.5-4.375zm16.5 0v7.261l-7.5 4.375v-7.261z"/></svg>