<svg xmlns="http://www.w3.org/2000/svg" width="24" height="24" viewBox="0 0 24 24"><path d="M12 2.25c-5.376 0-9.75 4.374-9.75 9.75s4.374 9.75 9.75 9.75 9.75-4.374 9.75-9.75S17.376 2.25 12 2.25zm0 1.5A8.24 8.24 0 0 1 20.25 12 8.24 8.24 0 0 1 12 20.25 8.24 8.24 0 0 1 3.75 12 8.24 8.24 0 0 1 12 3.75zM8.89 6.473c-.188.01-.378.057-.56.148l-.416.21a.75.75 0 0 0-.334 1.005.75.75 0 0 0 1.006.334L9 7.963V9.75h-.75a.75.75 0 0 0-.75.75.75.75 0 0 0 .75.75H9v4.688c0 .581.275 1.206.867 1.525A4.5 4.5 0 0 0 12 18a4.51 4.51 0 0 0 4.41-3.602c.18-.886-.59-1.648-1.416-1.648h-.744a.75.75 0 0 0-.75.75.75.75 0 0 0 .75.75h.6c-.342 1.279-1.454 2.25-2.85 2.25a3 3 0 0 1-1.422-.357c-.031-.017-.078-.08-.078-.206V11.25h5.25a.75.75 0 0 0 .75-.75.75.75 0 0 0-.75-.75H10.5V7.963c0-.88-.792-1.535-1.61-1.49z"/></svg>