<svg xmlns="http://www.w3.org/2000/svg" width="24" height="24" viewBox="0 0 24 24"><path d="M5.625 1.5c-1.036 0-1.875.84-1.875 1.875v17.25c0 1.035.84 1.875 1.875 1.875h12.75c1.035 0 1.875-.84 1.875-1.875V12.75A3.75 3.75 0 0 0 16.5 9h-1.875a1.875 1.875 0 0 1-1.875-1.875V5.25A3.75 3.75 0 0 0 9 1.5zm7.346.316A5.23 5.23 0 0 1 14.25 5.25v1.875c0 .207.168.375.375.375H16.5a5.23 5.23 0 0 1 3.434 1.28 9.77 9.77 0 0 0-6.963-6.964zM12 11.25a.75.75 0 0 1 .75.75v4.19l1.719-1.721a.752.752 0 0 1 1.062 1.062l-3 3a.75.75 0 0 1-1.062 0l-3-3A.752.752 0 0 1 9.53 14.47l1.719 1.72V12a.75.75 0 0 1 .75-.75z"/></svg>