<svg xmlns="http://www.w3.org/2000/svg" width="24" height="24" viewBox="0 0 24 24"><path d="M5.625 1.5A1.886 1.886 0 0 0 3.75 3.375v17.25c0 1.027.848 1.875 1.875 1.875h12.75a1.886 1.886 0 0 0 1.875-1.875V11.25c0-5.376-4.374-9.75-9.75-9.75zm0 1.5h4.5a2.614 2.614 0 0 1 2.625 2.625v1.5c0 1.027.848 1.875 1.875 1.875h1.5a2.614 2.614 0 0 1 2.625 2.625v9c0 .216-.16.375-.375.375H5.625a.364.364 0 0 1-.375-.375V3.375c0-.216.159-.375.375-.375zm8.037.637a8.24 8.24 0 0 1 4.451 4.45c-.599-.34-1.253-.587-1.988-.587h-1.5a.364.364 0 0 1-.375-.375v-1.5c0-.735-.248-1.39-.588-1.988zM8.25 14.25a.75.75 0 0 0-.75.75.75.75 0 0 0 .75.75h7.5a.75.75 0 0 0 .75-.75.75.75 0 0 0-.75-.75zm0 3a.75.75 0 0 0-.75.75.75.75 0 0 0 .75.75H12a.75.75 0 0 0 .75-.75.75.75 0 0 0-.75-.75z"/></svg>