<svg xmlns="http://www.w3.org/2000/svg" width="24" height="24" viewBox="0 0 24 24"><path d="M12 2.25c-5.376 0-9.75 4.374-9.75 9.75s4.374 9.75 9.75 9.75 9.75-4.374 9.75-9.75S17.376 2.25 12 2.25zm0 1.5A8.24 8.24 0 0 1 20.25 12 8.24 8.24 0 0 1 12 20.25 8.24 8.24 0 0 1 3.75 12 8.24 8.24 0 0 1 12 3.75zm-3.75 7.125c-.612 0-1.125.513-1.125 1.125s.513 1.125 1.125 1.125c.407 0 .705-.26.902-.592A.75.75 0 0 0 9.375 12a.75.75 0 0 0-.225-.535c-.198-.33-.494-.59-.9-.59zm3.75 0c-.612 0-1.125.513-1.125 1.125s.513 1.125 1.125 1.125c.407 0 .705-.26.902-.592a.75.75 0 0 0 .223-.533.75.75 0 0 0-.225-.535c-.198-.33-.494-.59-.9-.59zm3.75 0c-.612 0-1.125.513-1.125 1.125s.513 1.125 1.125 1.125c.407 0 .705-.26.902-.592a.75.75 0 0 0 .223-.533.75.75 0 0 0-.225-.535c-.198-.33-.494-.59-.9-.59z"/></svg>