<svg xmlns="http://www.w3.org/2000/svg" width="24" height="24" viewBox="0 0 24 24"><path d="M18.75 1.504a3.74 3.74 0 0 0-3.623 2.775L14.666 6H12a.75.75 0 0 0-.531.219l-.75.75a.75.75 0 0 0 0 1.062l.969.969-7.938 7.94A2.56 2.56 0 0 0 3 18.75c0 .282-.112.551-.31.75l-.971.969a.75.75 0 0 0 0 1.062l.75.75a.75.75 0 0 0 1.062 0l.969-.97c.2-.2.468-.311.75-.311.679 0 1.33-.27 1.81-.75L15 12.313l.969.968a.75.75 0 0 0 1.062 0l.75-.75A.75.75 0 0 0 18 12V9.334l1.72-.461a3.75 3.75 0 0 0 1.682-.97 3.763 3.763 0 0 0 0-5.305 3.74 3.74 0 0 0-2.652-1.094zm0 1.492c.574 0 1.15.22 1.592.662a2.24 2.24 0 0 1 0 3.184c-.292.292-.64.483-1.01.582l-2.275.61a.75.75 0 0 0-.557.724v2.93l-.969-.97-2.25-2.25-.97-.968h2.931a.75.75 0 0 0 .725-.557l.61-2.275v-.002c.098-.37.29-.716.581-1.008a2.24 2.24 0 0 1 1.592-.662zm-6 7.067 1.188 1.187L6 19.19c-.2.199-.468.31-.75.31-.48 0-.88.282-1.281.531.249-.402.531-.8.531-1.281 0-.282.112-.551.31-.75z"/></svg>