<svg xmlns="http://www.w3.org/2000/svg" width="24" height="24" viewBox="0 0 24 24"><path d="M3 2.25a.75.75 0 0 0-.531.219.75.75 0 0 0 0 1.062l3.228 3.227 3.65 3.65 4.245 4.244 3.65 3.65 3.227 3.23a.75.75 0 0 0 1.062 0 .75.75 0 0 0 0-1.063l-2.69-2.69c1.818-1.42 3.267-3.298 3.942-5.566a.75.75 0 0 0 0-.428C21.4 7.137 17.088 3.75 12 3.75c-2.055 0-3.95.615-5.61 1.58L3.532 2.47A.75.75 0 0 0 3 2.25zm9 3c4.337 0 7.969 2.841 9.24 6.744-.625 1.928-1.859 3.548-3.445 4.74l-2.717-2.716c.389-.592.672-1.26.672-2.018A3.76 3.76 0 0 0 12 8.25c-.757 0-1.426.283-2.018.672L7.506 6.445C8.86 5.731 10.359 5.25 12 5.25zM3.918 7.475a.75.75 0 0 0-.51.263 11.2 11.2 0 0 0-2.193 4.05.75.75 0 0 0 0 .427C2.599 16.864 6.912 20.25 12 20.25c1.062 0 2.09-.148 3.066-.424a.75.75 0 0 0 .518-.926.75.75 0 0 0-.926-.517A9.8 9.8 0 0 1 12 18.75c-4.334 0-7.964-2.838-9.238-6.736.394-1.217.982-2.351 1.79-3.307a.75.75 0 0 0-.087-1.057.75.75 0 0 0-.547-.175zM12 9.75c1.252 0 2.25.998 2.25 2.25 0 .33-.221.561-.348.842l-2.744-2.744c.28-.127.511-.348.842-.348z"/></svg>