<svg xmlns="http://www.w3.org/2000/svg" width="24" height="24" viewBox="0 0 24 24"><path d="M12 3.75c-4.964 0-9.187 3.223-10.676 7.697-.12.362-.12.75 0 1.112C2.814 17.029 7.038 20.25 12 20.25c4.964 0 9.187-3.223 10.676-7.697.12-.361.12-.751 0-1.112v-.002C21.186 6.97 16.96 3.75 12 3.75zm0 1.5a9.75 9.75 0 0 1 9.252 6.664.27.27 0 0 1 0 .166A9.75 9.75 0 0 1 12 18.75a9.75 9.75 0 0 1-9.254-6.664h.002a.27.27 0 0 1-.002-.166A9.75 9.75 0 0 1 12 5.25zm0 3A3.76 3.76 0 0 0 8.25 12 3.76 3.76 0 0 0 12 15.75 3.76 3.76 0 0 0 15.75 12 3.76 3.76 0 0 0 12 8.25zm0 1.5c1.252 0 2.25.998 2.25 2.25s-.998 2.25-2.25 2.25A2.24 2.24 0 0 1 9.75 12c0-1.252.998-2.25 2.25-2.25z"/></svg>