<svg xmlns="http://www.w3.org/2000/svg" width="24" height="24" viewBox="0 0 24 24"><path d="M12 2.25c-5.376 0-9.75 4.374-9.75 9.75s4.374 9.75 9.75 9.75 9.75-4.374 9.75-9.75S17.376 2.25 12 2.25zm0 1.5A8.24 8.24 0 0 1 20.25 12 8.24 8.24 0 0 1 12 20.25 8.24 8.24 0 0 1 3.75 12 8.24 8.24 0 0 1 12 3.75zm-2.625 4.5c-.509 0-.8.363-.936.635s-.189.557-.189.865.053.593.19.865c.136.272.426.635.935.635s.8-.363.936-.635.189-.557.189-.865-.053-.593-.19-.865c-.136-.272-.426-.635-.935-.635zm5.25 0c-.509 0-.8.363-.936.635s-.189.557-.189.865.053.593.19.865c.136.272.426.635.935.635s.8-.363.936-.635.189-.557.189-.865-.053-.593-.19-.865c-.136-.272-.426-.635-.935-.635zm-2.607 6a5.24 5.24 0 0 0-3.73 1.537.75.75 0 0 0 0 1.06.75.75 0 0 0 1.062 0 3.73 3.73 0 0 1 2.664-1.097 3.73 3.73 0 0 1 2.638 1.098.75.75 0 0 0 1.06 0 .75.75 0 0 0 0-1.06 5.25 5.25 0 0 0-3.694-1.538z"/></svg>