<svg xmlns="http://www.w3.org/2000/svg" width="24" height="24" viewBox="0 0 24 24"><path d="M3.375 3.75a.75.75 0 0 0-.533.223 1.71 1.71 0 0 0-1.12 1.119l-.003.002a.75.75 0 0 0-.219.531v12.75a.75.75 0 0 0 .223.533c.188.554.565.931 1.119 1.12l.002.003a.75.75 0 0 0 .531.219h17.25a.75.75 0 0 0 .533-.223 1.71 1.71 0 0 0 1.12-1.119l.003-.002a.75.75 0 0 0 .219-.531V5.625a.75.75 0 0 0-.223-.535 1.71 1.71 0 0 0-1.117-1.117l-.004-.004a.75.75 0 0 0-.531-.219zm0 1.5h1.5c.216 0 .375.159.375.375v1.5a.364.364 0 0 1-.375.375h-1.5A.364.364 0 0 1 3 7.125v-1.5c0-.216.159-.375.375-.375zm3.75 0h9.75c.216 0 .375.159.375.375v5.25c0 .216-.16.375-.375.375h-9.75a.364.364 0 0 1-.375-.375v-5.25c0-.216.159-.375.375-.375zm12 0h1.5c.216 0 .375.159.375.375v1.5a.364.364 0 0 1-.375.375h-1.5a.364.364 0 0 1-.375-.375v-1.5c0-.216.159-.375.375-.375zM3.375 9h1.5c.216 0 .375.159.375.375v1.5a.364.364 0 0 1-.375.375h-1.5A.364.364 0 0 1 3 10.875v-1.5C3 9.159 3.159 9 3.375 9zm15.75 0h1.5c.216 0 .375.159.375.375v1.5c0 .216-.16.375-.375.375h-1.5a.364.364 0 0 1-.375-.375v-1.5c0-.216.159-.375.375-.375zm-15.75 3.75h1.5c.216 0 .375.159.375.375v1.5a.364.364 0 0 1-.375.375h-1.5A.364.364 0 0 1 3 14.625v-1.5c0-.216.159-.375.375-.375zm3.75 0h9.75c.216 0 .375.16.375.375v5.25c0 .216-.16.375-.375.375h-9.75a.364.364 0 0 1-.375-.375v-5.25c0-.216.159-.375.375-.375zm12 0h1.5c.216 0 .375.16.375.375v1.5c0 .216-.16.375-.375.375h-1.5a.364.364 0 0 1-.375-.375v-1.5c0-.216.16-.375.375-.375zM3.375 16.5h1.5c.216 0 .375.159.375.375v1.5a.364.364 0 0 1-.375.375h-1.5A.364.364 0 0 1 3 18.375v-1.5c0-.216.159-.375.375-.375zm15.75 0h1.5c.216 0 .375.16.375.375v1.5c0 .216-.16.375-.375.375h-1.5a.364.364 0 0 1-.375-.375v-1.5c0-.216.16-.375.375-.375z"/></svg>