<svg xmlns="http://www.w3.org/2000/svg" width="24" height="24" viewBox="0 0 24 24"><path d="M12 2.25a8.2 8.2 0 0 0-4.55 1.367.75.75 0 0 0-.212 1.04.75.75 0 0 0 1.04.21A6.7 6.7 0 0 1 12 3.75a6.74 6.74 0 0 1 6.75 6.75 21.7 21.7 0 0 1-1.516 7.992.75.75 0 0 0 .422.975.75.75 0 0 0 .973-.422A23.2 23.2 0 0 0 20.25 10.5c0-4.547-3.703-8.25-8.25-8.25zM5.887 5.627a.8.8 0 0 0-.293.002.75.75 0 0 0-.477.32A8.2 8.2 0 0 0 3.75 10.5a6.7 6.7 0 0 1-1.035 3.594.75.75 0 0 0 .236 1.033.75.75 0 0 0 1.033-.234A8.2 8.2 0 0 0 5.25 10.5a6.7 6.7 0 0 1 1.117-3.723.75.75 0 0 0-.21-1.039.8.8 0 0 0-.27-.111zM12 6a4.51 4.51 0 0 0-4.5 4.5c0 2.717-1.027 5.185-2.717 7.049a.75.75 0 0 0 .053 1.058.75.75 0 0 0 1.059-.052A11.96 11.96 0 0 0 9 10.5c0-1.666 1.334-3 3-3s3 1.334 3 3q0 .76-.06 1.502a.75.75 0 0 0 .685.81.75.75 0 0 0 .809-.685q.066-.806.066-1.627C16.5 8.024 14.476 6 12 6zm0 3.75a.75.75 0 0 0-.75.75c0 3.54-1.286 6.772-3.42 9.264a.75.75 0 0 0 .082 1.056.75.75 0 0 0 1.057-.082A15.7 15.7 0 0 0 12.75 10.5a.75.75 0 0 0-.75-.75zm2.85 5.178a.75.75 0 0 0-.537.521 17.9 17.9 0 0 1-2.387 5.115.75.75 0 0 0 .203 1.041.75.75 0 0 0 1.04-.2 19.4 19.4 0 0 0 2.585-5.546.75.75 0 0 0-.516-.925.75.75 0 0 0-.388-.006z"/></svg>