<svg xmlns="http://www.w3.org/2000/svg" width="24" height="24" viewBox="0 0 24 24"><path d="M9.375 1.5a3.375 3.375 0 0 0-2.807 5.25H3.375c-1.036 0-1.875.84-1.875 1.875v.75c0 1.035.84 1.875 1.875 1.875h7.875v-4.5H9.375a1.875 1.875 0 1 1 1.875-1.875V6.75h1.5V4.875a1.875 1.875 0 1 1 1.875 1.875H12.75v4.5h8.625c1.035 0 1.875-.84 1.875-1.875v-.75c0-1.036-.84-1.875-1.875-1.875h-3.943A3.375 3.375 0 0 0 12 2.754 3.37 3.37 0 0 0 9.375 1.5zM3 12.75v6.75a2.25 2.25 0 0 0 2.25 2.25h6v-9zm9.75 0v9h6.75a2.25 2.25 0 0 0 2.25-2.25v-6.75z"/></svg>