<svg xmlns="http://www.w3.org/2000/svg" width="24" height="24" viewBox="0 0 24 24"><path d="M15 2a.75.75 0 0 0-.75.75v.633c0 .572-.11 1.14-.322 1.672-.304.76-.93 1.33-1.653 1.715a9 9 0 0 0-2.86 2.4 2.9 2.9 0 0 1-1.214.924c-.227.088-.449.205-.6.396A7.47 7.47 0 0 0 6 15.125c0 .968.183 1.894.518 2.744.155.395.55.631.974.631h.778c.483 0 .965.078 1.423.23l3.114 1.04c.459.152.94.23 1.423.23h4.016c.618 0 1.218-.247 1.606-.729A11.95 11.95 0 0 0 22.5 11.75q0-.651-.068-1.285c-.11-1.021-1.028-1.715-2.055-1.715h-3.125c-.618 0-.99-.725-.725-1.283a7.5 7.5 0 0 0 .723-3.217A2.25 2.25 0 0 0 15 2zM4.25 9.5c-.832 0-1.613.452-1.918 1.227a12 12 0 0 0-.832 4.398c0 1.22.183 2.398.521 3.508.26.85 1.082 1.367 1.971 1.367H4.9c.446 0 .721-.499.524-.898a8.96 8.96 0 0 1-.924-3.977 8.96 8.96 0 0 1 1.303-4.666c.245-.403-.028-.959-.5-.959z"/></svg>