<svg xmlns="http://www.w3.org/2000/svg" width="24" height="24" viewBox="0 0 24 24"><path d="M11.098 1.514a.75.75 0 0 0-.883.59L9.135 7.5H5.25a.75.75 0 0 0-.75.75.75.75 0 0 0 .75.75h3.586l-1.201 6H3.75a.75.75 0 0 0-.75.75.75.75 0 0 0 .75.75h3.586l-1.022 5.104a.75.75 0 0 0 .588.882.75.75 0 0 0 .883-.59l1.08-5.396h4.47l-1.02 5.104a.75.75 0 0 0 .587.882.75.75 0 0 0 .883-.59l1.08-5.396h3.885a.75.75 0 0 0 .75-.75.75.75 0 0 0-.75-.75h-3.586l1.201-6h3.885a.75.75 0 0 0 .75-.75.75.75 0 0 0-.75-.75h-3.586l1.022-5.104a.75.75 0 0 0-.588-.882.75.75 0 0 0-.883.59L15.135 7.5h-4.47l1.02-5.104a.75.75 0 0 0-.587-.882zM10.365 9h4.47l-1.2 6h-4.47z"/></svg>