<svg xmlns="http://www.w3.org/2000/svg" width="24" height="24" viewBox="0 0 24 24"><path d="M7.688 3C4.71 3 2.25 5.343 2.25 8.25c0 3.922 2.41 7.085 4.738 9.256 2.329 2.17 4.66 3.406 4.66 3.406a.75.75 0 0 0 .704 0s2.331-1.236 4.66-3.406c2.328-2.17 4.738-5.334 4.738-9.256 0-2.908-2.46-5.25-5.437-5.25C14.472 3 12.987 4.012 12 5.383 11.013 4.012 9.528 3 7.688 3zm0 1.5c1.644 0 3.034.957 3.626 2.29a.75.75 0 0 0 1.372 0c.592-1.333 1.982-2.29 3.627-2.29 2.2 0 3.937 1.687 3.937 3.75 0 3.299-2.09 6.134-4.262 8.158-1.89 1.762-3.53 2.709-3.988 2.965-.458-.256-2.098-1.203-3.988-2.965C5.84 14.384 3.75 11.548 3.75 8.25c0-2.063 1.738-3.75 3.938-3.75z"/></svg>