<svg xmlns="http://www.w3.org/2000/svg" width="24" height="24" viewBox="0 0 24 24"><path d="M12 2.25a.75.75 0 0 0-.75.75v6.44L9.531 7.718A.752.752 0 0 0 8.47 8.78l3 3a.75.75 0 0 0 1.062 0l3-3a.752.752 0 0 0-1.062-1.06l-1.719 1.72V3a.75.75 0 0 0-.75-.75zM6.912 3a3 3 0 0 0-2.867 2.117l-2.412 7.84a3 3 0 0 0-.133.88V18a3 3 0 0 0 3 3h15a3 3 0 0 0 3-3v-4.162a3 3 0 0 0-.133-.881l-2.412-7.84A3 3 0 0 0 17.088 3H15a.75.75 0 0 0 0 1.5h2.088a1.5 1.5 0 0 1 1.433 1.059l2.213 7.191h-2.843a3 3 0 0 0-2.684 1.658l-.256.512a1.5 1.5 0 0 1-1.342.83h-3.218a1.5 1.5 0 0 1-1.342-.83l-.256-.512a3 3 0 0 0-2.684-1.658H3.266l2.213-7.191A1.5 1.5 0 0 1 6.912 4.5H9A.75.75 0 0 0 9 3z"/></svg>