<svg xmlns="http://www.w3.org/2000/svg" width="24" height="24" viewBox="0 0 24 24"><path d="M12 2.25c-5.376 0-9.75 4.374-9.75 9.75s4.374 9.75 9.75 9.75 9.75-4.374 9.75-9.75S17.376 2.25 12 2.25zm0 1.5A8.24 8.24 0 0 1 20.25 12 8.24 8.24 0 0 1 12 20.25 8.24 8.24 0 0 1 3.75 12 8.24 8.24 0 0 1 12 3.75zm0 3.75a.75.75 0 0 0-.75.75v.008a.75.75 0 0 0 .75.75h.008a.75.75 0 0 0 .75-.75V8.25a.75.75 0 0 0-.75-.75zm.004.012.742.742-.742.742-.742-.742zm-.418 2.898c-.21 0-.425.046-.63.149l-.04.02a.75.75 0 0 0-.338 1.005.75.75 0 0 0 1.006.338l.043-.022-.709 2.836c-.297 1.19 1.028 2.252 2.125 1.705l.041-.02a.75.75 0 0 0 .338-1.005.75.75 0 0 0-1.006-.338l-.043.022.709-2.836c.223-.893-.467-1.715-1.289-1.838a1.4 1.4 0 0 0-.207-.016z"/></svg>