<svg xmlns="http://www.w3.org/2000/svg" width="24" height="24" viewBox="0 0 24 24"><path d="M17.25 1.5a5.23 5.23 0 0 0-3.713 1.537l-4.5 4.5a5.25 5.25 0 0 0 1.45 8.451.75.75 0 0 0 .646-1.353 3.752 3.752 0 0 1-1.035-6.037l4.5-4.5a3.752 3.752 0 0 1 5.304 5.304l-1.757 1.756a.75.75 0 1 0 1.06 1.06l1.758-1.755A5.251 5.251 0 0 0 17.25 1.5zm-4.025 6.44a.75.75 0 0 0-.358 1.425 3.752 3.752 0 0 1 1.035 6.037l-4.5 4.5a3.752 3.752 0 0 1-5.304-5.304l1.757-1.756a.75.75 0 1 0-1.06-1.06l-1.758 1.755a5.251 5.251 0 0 0 7.426 7.426l4.5-4.5a5.25 5.25 0 0 0-1.45-8.451.8.8 0 0 0-.288-.073z"/></svg>