<svg xmlns="http://www.w3.org/2000/svg" width="24" height="24" viewBox="0 0 24 24"><path d="M17.25 1.504c-1.345 0-2.69.511-3.713 1.533l-4.5 4.5a5.263 5.263 0 0 0 0 7.426c.433.432.925.775 1.45 1.025a.75.75 0 0 0 1-.353.75.75 0 0 0-.354-1 3.7 3.7 0 0 1-1.035-.733 3.74 3.74 0 0 1 0-5.304l4.5-4.5a3.74 3.74 0 0 1 5.304 0 3.74 3.74 0 0 1 0 5.304l-1.757 1.756a.75.75 0 0 0 0 1.06.75.75 0 0 0 1.06 0l1.758-1.755a5.263 5.263 0 0 0 0-7.426 5.24 5.24 0 0 0-3.713-1.533zm-4.02 6.435a.8.8 0 0 0-.29.041.75.75 0 0 0-.426.385.75.75 0 0 0 .353 1c.374.179.724.421 1.035.733a3.74 3.74 0 0 1 0 5.304l-4.5 4.5a3.74 3.74 0 0 1-5.304 0 3.74 3.74 0 0 1 0-5.304l1.757-1.756a.75.75 0 0 0 0-1.06.75.75 0 0 0-1.06 0l-1.758 1.755a5.263 5.263 0 0 0 0 7.426 5.263 5.263 0 0 0 7.426 0l4.5-4.5a5.263 5.263 0 0 0 0-7.426 5.3 5.3 0 0 0-1.45-1.025.8.8 0 0 0-.283-.073z"/></svg>