<svg xmlns="http://www.w3.org/2000/svg" width="24" height="24" viewBox="0 0 24 24"><path d="M18.83 2.25a.75.75 0 0 0-.74 1.008q.087.24.17.482a23.2 23.2 0 0 1 1.24 7.51 23.2 23.2 0 0 1-1.41 7.992.75.75 0 1 0 1.408.516 24.5 24.5 0 0 0 1.416-6.43 3 3 0 0 0 .836-2.078 3 3 0 0 0-.836-2.078 24.7 24.7 0 0 0-1.416-6.43.75.75 0 0 0-.668-.492zm-1.95 2.096a23.1 23.1 0 0 1-6.605 1.566Q9.275 6 8.25 6H7.5a5.25 5.25 0 0 0-.88 10.426 21.5 21.5 0 0 0 1.378 3.941c.464 1.004 1.674 1.32 2.582.795l.656-.379c.88-.508 1.165-1.591.772-2.467a17 17 0 0 1-.627-1.607c1.917.258 3.76.75 5.5 1.445.726-2.17 1.119-4.49 1.119-6.904s-.393-4.735-1.12-6.904z"/></svg>