<svg xmlns="http://www.w3.org/2000/svg" width="24" height="24" viewBox="0 0 24 24"><path d="M18.924 2.262a.75.75 0 0 0-.387.033.75.75 0 0 0-.447.963c.052.143.097.29.146.435-2.454 1.173-5.121 1.974-7.96 2.22Q9.273 5.998 8.25 6H7.5c-2.89 0-5.25 2.36-5.25 5.25 0 2.585 1.922 4.647 4.389 5.074.335 1.4.767 2.763 1.359 4.043.451.976 1.671 1.321 2.582.795l.656-.379c.865-.499 1.17-1.582.772-2.467-.217-.482-.359-1.001-.531-1.505 2.387.334 4.662.993 6.76 1.996-.05.144-.095.292-.147.435a.75.75 0 0 0 .447.963.75.75 0 0 0 .961-.447q.21-.575.393-1.16c.015-.05.014-.105.029-.155l.002-.007v-.002c.501-1.655.826-3.386.97-5.166.505-.538.858-1.227.858-2.018s-.353-1.48-.857-2.018c-.15-1.837-.474-3.627-1.002-5.33a25 25 0 0 0-.393-1.16.75.75 0 0 0-.574-.48zm-.315 2.89c.39 1.433.723 2.891.832 4.42a24 24 0 0 1 0 3.356c-.109 1.529-.441 2.987-.832 4.42a24.5 24.5 0 0 0-7.6-2.143c-.3-1.275-.509-2.587-.509-3.955s.21-2.68.51-3.955a24.5 24.5 0 0 0 7.6-2.143zM9.49 7.447C9.233 8.685 9 9.937 9 11.25s.233 2.565.49 3.803c-.413-.02-.822-.053-1.24-.053H7.5c-2.08 0-3.75-1.67-3.75-3.75S5.42 7.5 7.5 7.5h.75c.418 0 .827-.032 1.24-.053zM8.271 16.5c.517 0 1.026.035 1.534.068.239.807.495 1.607.836 2.364.097.216.026.448-.155.552l-.656.38c-.192.11-.387.054-.47-.126-.474-1.024-.79-2.13-1.089-3.238z"/></svg>