<svg xmlns="http://www.w3.org/2000/svg" width="24" height="24" viewBox="0 0 24 24"><path d="M4.5 1.5c-1.648 0-3 1.352-3 3v2.25c0 8.69 7.06 15.75 15.75 15.75h2.25c1.648 0 3-1.352 3-3v-1.371c0-.857-.59-1.613-1.42-1.82l-4.424-1.106a1.88 1.88 0 0 0-1.955.695l-.969 1.293c-.096.129-.234.168-.351.125a11.29 11.29 0 0 1-6.697-6.697c-.043-.117-.004-.255.125-.351l1.293-.97a1.88 1.88 0 0 0 .695-1.954L7.69 2.92A1.88 1.88 0 0 0 5.87 1.5zm0 1.5h1.371a.37.37 0 0 1 .365.283l1.106 4.424a.37.37 0 0 1-.139.39l-1.295.971c-.622.467-.913 1.303-.633 2.067a12.78 12.78 0 0 0 7.588 7.59c.765.28 1.602-.01 2.069-.633l.97-1.295a.37.37 0 0 1 .391-.139l4.424 1.106a.37.37 0 0 1 .283.365V19.5c0 .837-.663 1.5-1.5 1.5h-2.25C9.371 21 3 14.629 3 6.75V4.5C3 3.663 3.663 3 4.5 3zm11.25 0a.75.75 0 0 0-.75.75.75.75 0 0 0 .75.75h2.688l-4.72 4.719a.75.75 0 0 0 0 1.062.75.75 0 0 0 1.063 0L19.5 5.562V8.25a.75.75 0 0 0 .75.75.75.75 0 0 0 .75-.75v-4.5a.8.8 0 0 0-.057-.287.8.8 0 0 0-.162-.244A.75.75 0 0 0 20.25 3z"/></svg>