<svg xmlns="http://www.w3.org/2000/svg" width="24" height="24" viewBox="0 0 24 24"><path d="M12.75 1.5c-1.243 0-2.25.84-2.25 1.875 0 .369.129.714.35 1.004.215.282.4.604.4.959a.64.64 0 0 1-.656.64 48 48 0 0 1-4.076-.292.752.752 0 0 0-.832.83 48 48 0 0 1 .31 4.82.656.656 0 0 1-.658.664c-.355 0-.677-.185-.96-.4a1.65 1.65 0 0 0-1.003-.35c-1.036 0-1.875 1.007-1.875 2.25s.84 2.25 1.875 2.25a1.65 1.65 0 0 0 1.004-.35c.282-.215.604-.4.959-.4a.53.53 0 0 1 .53.568 47 47 0 0 1-.628 4.924.75.75 0 0 0 .645.88 49 49 0 0 0 4.707.358.643.643 0 0 0 .658-.644c0-.355-.185-.674-.4-.957a1.65 1.65 0 0 1-.35-1.004c0-1.035 1.007-1.875 2.25-1.875s2.25.84 2.25 1.875c0 .369-.129.714-.35 1.004-.215.283-.4.602-.4.957a.58.58 0 0 0 .611.582 49 49 0 0 0 5.555-.64.75.75 0 0 0 .61-.612q.415-2.385.595-4.844a.535.535 0 0 0-.535-.572c-.355 0-.674.185-.957.4a1.65 1.65 0 0 1-1.004.35c-1.035 0-1.875-1.007-1.875-2.25s.84-2.25 1.875-2.25c.369 0 .714.129 1.004.35.283.215.602.4.957.4a.66.66 0 0 0 .66-.664 49 49 0 0 0-.375-5.453.75.75 0 0 0-.879-.645 47 47 0 0 1-5.633.676.575.575 0 0 1-.609-.576c0-.355.185-.677.4-.96.221-.29.35-.634.35-1.003C15 2.339 13.993 1.5 12.75 1.5z"/></svg>