<svg xmlns="http://www.w3.org/2000/svg" width="24" height="24" viewBox="0 0 24 24"><path d="M8.25 3c-1.648 0-3 1.352-3 3v.549c-.856.53-1.5 1.378-1.5 2.451v.549c-.856.53-1.5 1.378-1.5 2.451v6c0 1.648 1.352 3 3 3h13.5c1.648 0 3-1.352 3-3v-6c0-1.073-.644-1.923-1.5-2.453V9c0-1.073-.644-1.92-1.5-2.451V6c0-1.648-1.352-3-3-3zm0 1.5h7.5c.837 0 1.5.663 1.5 1.5H6.75c0-.837.663-1.5 1.5-1.5zm-1.5 3h10.5q.266.001.5.086c.58.205 1 .754 1 1.414H5.25a1.495 1.495 0 0 1 1.5-1.5zm-1.5 3h13.5q.266.001.5.086c.58.205 1 .754 1 1.414v6c0 .837-.663 1.5-1.5 1.5H5.25a1.49 1.49 0 0 1-1.5-1.5v-6a1.495 1.495 0 0 1 1.5-1.5z"/></svg>