<svg xmlns="http://www.w3.org/2000/svg" width="24" height="24" viewBox="0 0 24 24"><path d="M12 2.25a.75.75 0 0 0-.75.75v.803c-2.028.03-4.038.146-6 .418-.034.004-.071.003-.105.008q-1.54.216-3.047.527a.75.75 0 0 0-.582.887.75.75 0 0 0 .886.582c.61-.126 1.23-.219 1.848-.32L1.9 15.517c-.202.827.196 1.773 1.065 2.086A6.7 6.7 0 0 0 5.25 18c.8 0 1.57-.14 2.285-.396.869-.313 1.267-1.26 1.065-2.086L6.19 5.654a48 48 0 0 1 5.06-.351v14.332c-1.28.078-2.546.233-3.697.662a.75.75 0 0 0-.442.965.75.75 0 0 0 .965.441A11.2 11.2 0 0 1 12 21c1.382 0 2.703.249 3.924.703a.75.75 0 0 0 .965-.441.75.75 0 0 0-.442-.965c-1.151-.429-2.417-.584-3.697-.662V5.303c1.712.027 3.398.147 5.06.351l-2.41 9.864c-.202.827.196 1.773 1.065 2.086A6.7 6.7 0 0 0 18.75 18c.8 0 1.57-.14 2.285-.396.869-.313 1.267-1.26 1.065-2.086l-2.35-9.614c.618.102 1.238.195 1.848.32a.75.75 0 0 0 .886-.581.75.75 0 0 0-.582-.887 49 49 0 0 0-3.047-.527c-.034-.005-.07-.004-.105-.008-1.962-.272-3.972-.387-6-.418V3a.75.75 0 0 0-.75-.75zM5.25 8.129l1.893 7.746c.041.17-.018.281-.116.316-.554.2-1.151.309-1.777.309s-1.223-.11-1.777-.309c-.098-.035-.157-.146-.116-.316zm13.5 0 1.893 7.746c.041.17-.018.281-.116.316-.554.2-1.151.309-1.777.309s-1.223-.11-1.777-.309c-.098-.035-.157-.146-.116-.316z"/></svg>