<svg xmlns="http://www.w3.org/2000/svg" width="24" height="24" viewBox="0 0 24 24"><path d="M7.924 3a4.13 4.13 0 0 0-4.016 3.18l-2.27 9.64a5.2 5.2 0 0 0-.138 1.201v.229A3.76 3.76 0 0 0 5.25 21h13.5a3.76 3.76 0 0 0 3.75-3.75v-.229q0-.608-.139-1.2l-2.27-9.641A4.13 4.13 0 0 0 16.077 3zm0 1.5h8.152a2.62 2.62 0 0 1 2.557 2.023l1.736 7.385c-.496-.243-1.032-.408-1.619-.408H5.25c-.587 0-1.123.165-1.62.408l1.737-7.385A2.62 2.62 0 0 1 7.924 4.5zM5.25 15h13.5c1.252 0 2.25.998 2.25 2.25s-.998 2.25-2.25 2.25H5.25A2.24 2.24 0 0 1 3 17.25C3 15.998 3.998 15 5.25 15zm10.5 1.5a.75.75 0 0 0-.75.75v.008a.75.75 0 0 0 .75.75h.008a.75.75 0 0 0 .75-.75v-.008a.75.75 0 0 0-.75-.75zm3 0a.75.75 0 0 0-.75.75v.008a.75.75 0 0 0 .75.75h.008a.75.75 0 0 0 .75-.75v-.008a.75.75 0 0 0-.75-.75zm-2.996.012.742.742-.742.742-.742-.742zm3 0 .742.742-.742.742-.742-.742z"/></svg>