<svg xmlns="http://www.w3.org/2000/svg" width="24" height="24" viewBox="0 0 24 24"><path d="M11.813 1.988a.75.75 0 0 0-.329.182A11.2 11.2 0 0 1 3.75 5.25l-.143-.002a.75.75 0 0 0-.722.518A12.7 12.7 0 0 0 2.25 9.75c0 5.933 4.061 10.932 9.563 12.348a.75.75 0 0 0 .374 0c5.502-1.416 9.563-6.415 9.563-12.348 0-1.39-.222-2.73-.635-3.984a.75.75 0 0 0-.722-.518l-.143.002c-3 0-5.717-1.17-7.734-3.08a.75.75 0 0 0-.703-.182zM12 3.59a12.6 12.6 0 0 0 7.756 3.064c.284.99.494 2.014.494 3.096 0 5.176-3.503 9.495-8.25 10.813-4.747-1.318-8.25-5.637-8.25-10.813 0-1.082.21-2.107.494-3.096A12.6 12.6 0 0 0 12 3.59zm2.877 5.42a.75.75 0 0 0-.486.304l-3.235 4.53-1.625-1.625a.75.75 0 0 0-1.062 0 .75.75 0 0 0 0 1.06l2.25 2.25a.75.75 0 0 0 1.14-.093l3.75-5.25a.75.75 0 0 0-.173-1.047.75.75 0 0 0-.559-.13z"/></svg>