<svg xmlns="http://www.w3.org/2000/svg" width="24" height="24" viewBox="0 0 24 24"><path d="M3 2.25a.749.749 0 0 0-.531 1.281l8.941 8.94q.056.071.127.127l4.705 4.705 2.123 2.123 2.104 2.105a.752.752 0 0 0 1.062-1.062l-1.595-1.594c3.58-4.125 3.41-10.377-.512-14.299a.75.75 0 1 0-1.06 1.06 9 9 0 0 1 .509 12.176l-1.066-1.066a7.5 7.5 0 0 0-.504-10.049.75.75 0 1 0-1.06 1.06 6 6 0 0 1 .497 7.923l-1.072-1.073a4.5 4.5 0 0 0-.486-5.789.75.75 0 1 0-1.06 1.06 3 3 0 0 1 .462 3.645l-1.461-1.46.002-.063a1.125 1.125 0 0 0-1.187-1.123L3.53 2.469A.75.75 0 0 0 3 2.25zm.371 4.56a.75.75 0 0 0-.723.409 10.5 10.5 0 0 0 1.928 12.205.75.75 0 1 0 1.06-1.06A9.005 9.005 0 0 1 3.985 7.9a.748.748 0 0 0-.613-1.09zm2.174 2.286a.75.75 0 0 0-.654.51 7.5 7.5 0 0 0 1.806 7.697.75.75 0 1 0 1.06-1.06 6 6 0 0 1-1.444-6.159.752.752 0 0 0-.768-.988zm2.789 2.685a.75.75 0 0 0-.79.854 4.5 4.5 0 0 0 1.274 2.547.75.75 0 1 0 1.06-1.06 3 3 0 0 1-.849-1.698.75.75 0 0 0-.695-.643z"/></svg>