<svg xmlns="http://www.w3.org/2000/svg" width="24" height="24" viewBox="0 0 24 24"><path d="M11.951 2.559A1.47 1.47 0 0 0 10.94 3l-4.5 4.5H4.51c-1.14 0-2.318.664-2.66 1.904A9.8 9.8 0 0 0 1.5 12c0 .897.122 1.769.35 2.596.341 1.24 1.518 1.904 2.66 1.904h1.93l4.5 4.5c.944.945 2.56.276 2.56-1.06V4.06c0-.918-.764-1.521-1.549-1.501zm7.162 2.328a.75.75 0 0 0-.53 1.28 8.25 8.25 0 0 1 .001 11.667.75.75 0 1 0 1.06 1.06c3.808-3.807 3.808-9.98 0-13.789a.75.75 0 0 0-.53-.218zm-2.65 2.65a.75.75 0 0 0-.531 1.281 4.5 4.5 0 0 1 0 6.364.75.75 0 1 0 1.06 1.06 6 6 0 0 0 0-8.484.75.75 0 0 0-.53-.22z"/></svg>