<svg xmlns="http://www.w3.org/2000/svg" width="24" height="24" viewBox="0 0 24 24"><path d="M4.125 2.25A1.886 1.886 0 0 0 2.25 4.125V17.25c0 1.236.506 2.357 1.318 3.172v.01c.138.138.318.194.47.31.314.246.62.503.993.658.406.167.837.215 1.268.258.155.017.291.092.451.092h13.125a1.886 1.886 0 0 0 1.875-1.875v-5.25a1.886 1.886 0 0 0-1.875-1.875h-2.26l1.598-1.6a1.885 1.885 0 0 0 0-2.65L15.5 4.787a1.885 1.885 0 0 0-2.65 0l-1.6 1.598v-2.26A1.886 1.886 0 0 0 9.375 2.25zm0 1.5h5.25c.216 0 .375.159.375.375V17.25c0 .827-.334 1.57-.87 2.111l-.009.01c-.345.345-.811.375-1.242.518-.307.105-.535.361-.879.361s-.572-.256-.879-.361c-.43-.143-.897-.173-1.242-.518l-.006-.002a3 3 0 0 1-.873-2.119V4.125c0-.216.159-.375.375-.375zm10.05 1.982c.095 0 .188.04.264.116l3.713 3.713a.363.363 0 0 1 0 .529l-2.879 2.879-4.023 4.023V8.508l2.66-2.66a.38.38 0 0 1 .266-.116zm1.94 8.518h3.76c.216 0 .375.16.375.375v5.25c0 .216-.16.375-.375.375h-9.762zM6.75 16.5a.75.75 0 0 0-.75.75v.008a.75.75 0 0 0 .75.75h.008a.75.75 0 0 0 .75-.75v-.008a.75.75 0 0 0-.75-.75zm.004.012.742.742-.742.742-.742-.742z"/></svg>