<svg xmlns="http://www.w3.org/2000/svg" width="24" height="24" viewBox="0 0 24 24"><path d="M12 3a3.76 3.76 0 0 0-3.75 3.75A3.76 3.76 0 0 0 12 10.5a3.76 3.76 0 0 0 3.75-3.75A3.76 3.76 0 0 0 12 3zm0 1.5c1.252 0 2.25.998 2.25 2.25S13.252 9 12 9a2.24 2.24 0 0 1-2.25-2.25c0-1.252.998-2.25 2.25-2.25zM5.25 6.75c-1.648 0-3 1.352-3 3s1.352 3 3 3 3-1.352 3-3-1.352-3-3-3zm13.5 0c-1.648 0-3 1.352-3 3s1.352 3 3 3 3-1.352 3-3-1.352-3-3-3zm-13.5 1.5c.837 0 1.5.663 1.5 1.5s-.663 1.5-1.5 1.5-1.5-.663-1.5-1.5.663-1.5 1.5-1.5zm13.5 0c.837 0 1.5.663 1.5 1.5s-.663 1.5-1.5 1.5-1.5-.663-1.5-1.5.663-1.5 1.5-1.5zM12 12c-2.17 0-4.023 1.112-5.258 2.71-.473-.214-.941-.46-1.492-.46a3.76 3.76 0 0 0-3.738 4.05.75.75 0 0 0 .5.65 9.7 9.7 0 0 0 3.238.55l.041-.002a.75.75 0 0 0 .373.568A12.7 12.7 0 0 0 12 21.75c2.303 0 4.47-.612 6.336-1.684a.75.75 0 0 0 .373-.568l.041.002a9.7 9.7 0 0 0 3.24-.55.75.75 0 0 0 .498-.65q.012-.147.012-.3a3.76 3.76 0 0 0-3.75-3.75c-.551 0-1.018.246-1.492.46C16.023 13.114 14.17 12 12 12zm0 1.5a5.24 5.24 0 0 1 5.25 5.223l.002.002-.002.002v.023c0 .054-.006.106-.008.16-1.57.833-3.338 1.34-5.242 1.34s-3.672-.507-5.242-1.34c-.002-.054-.008-.106-.008-.16v-.027a5.2 5.2 0 0 1 .824-2.797A5.24 5.24 0 0 1 12 13.5zm-6.75 2.25c.252 0 .45.132.674.207a6.6 6.6 0 0 0-.567 2.04L5.25 18c-.738 0-1.422-.176-2.102-.357.191-1.053.991-1.893 2.102-1.893zm13.5 0c1.111 0 1.913.84 2.104 1.893-.68.18-1.365.357-2.104.357q-.054-.001-.107-.004a6.6 6.6 0 0 0-.567-2.039c.224-.075.422-.207.674-.207z"/></svg>