<svg xmlns="http://www.w3.org/2000/svg" width="24" height="24" viewBox="0 0 24 24"><path d="M10.375 2.25A4.136 4.136 0 0 0 6.25 6.375a4.136 4.136 0 0 0 4.125 4.125A4.136 4.136 0 0 0 14.5 6.375a4.136 4.136 0 0 0-4.125-4.125zm0 1.5A2.614 2.614 0 0 1 13 6.375 2.614 2.614 0 0 1 10.375 9 2.614 2.614 0 0 1 7.75 6.375a2.614 2.614 0 0 1 2.625-2.625zm5.625 6a.75.75 0 0 0-.75.75.75.75 0 0 0 .75.75h6a.75.75 0 0 0 .75-.75.75.75 0 0 0-.75-.75zM10.375 12c-3.926 0-7.125 3.199-7.125 7.125l.002.121a.75.75 0 0 0 .361.631 13.1 13.1 0 0 0 6.762 1.873c2.47 0 4.787-.684 6.762-1.873a.75.75 0 0 0 .361-.63l.002-.12v-.002c0-3.926-3.199-7.125-7.125-7.125zm0 1.5c2.993 0 5.367 2.335 5.555 5.28-1.657.908-3.53 1.47-5.555 1.47s-3.898-.562-5.555-1.47c.188-2.945 2.562-5.28 5.555-5.28z"/></svg>