<svg xmlns="http://www.w3.org/2000/svg" width="24" height="24" viewBox="0 0 24 24"><path d="M11.979 3.75A14.95 14.95 0 0 0 1.37 8.143a.75.75 0 0 0 0 1.06l.531.531a.75.75 0 0 0 1.06 0c4.98-4.979 13.053-4.979 18.032 0a.75.75 0 0 0 1.06 0l.53-.53a.75.75 0 0 0 0-1.061A14.95 14.95 0 0 0 11.979 3.75zm0 4.5a10.47 10.47 0 0 0-7.426 3.076.75.75 0 0 0 0 1.06l.531.53a.75.75 0 0 0 1.06 0 8.25 8.25 0 0 1 11.667 0 .753.753 0 0 0 1.062 0l.53-.53a.75.75 0 0 0 0-1.06 10.47 10.47 0 0 0-7.424-3.076zm.021 4.5a5.98 5.98 0 0 0-4.242 1.758.75.75 0 0 0 0 1.06l.53.53a.75.75 0 0 0 1.06 0 3.75 3.75 0 0 1 5.304 0 .75.75 0 0 0 1.06 0l.53-.53a.75.75 0 0 0 0-1.06A5.98 5.98 0 0 0 12 12.75zm0 4.5c-.384 0-.768.147-1.06.44a.75.75 0 0 0 0 1.06l.529.531a.75.75 0 0 0 1.062 0l.53-.531a.75.75 0 0 0 0-1.06A1.5 1.5 0 0 0 12 17.25z"/></svg>