<svg xmlns="http://www.w3.org/2000/svg" width="24" height="24" viewBox="0 0 24 24"><path d="M17.25 1.5a5.25 5.25 0 0 0-5.23 5.697c.086 1.018-.102 1.87-.635 2.309L2.7 16.656A3.296 3.296 0 1 0 7.344 21.3l7.15-8.684c.44-.533 1.292-.72 2.309-.635q.22.02.447.02a5.25 5.25 0 0 0 5.025-6.775.75.75 0 0 0-1.248-.313L17.71 8.23a2.24 2.24 0 0 1-1.94-1.939l3.319-3.318a.75.75 0 0 0-.313-1.248A5.3 5.3 0 0 0 17.25 1.5zm-13.844.375a.75.75 0 0 0-.562.219l-.75.75a.75.75 0 0 0-.112.918l2.25 3.75a.75.75 0 0 0 .643.363h1.564l2.063 2.063 1.574-1.297-2.201-2.202V4.875a.75.75 0 0 0-.363-.643l-3.75-2.25a.75.75 0 0 0-.356-.107zm14.8 11.559a6.8 6.8 0 0 1-1.53.043c-.395-.034-.682-.008-.867.04a.6.6 0 0 0-.166.065l-3.086 3.746 4.181 4.184a3.376 3.376 0 0 0 4.774-4.774zM16.5 15.75c.192 0 .385.072.531.219l1.875 1.875a.75.75 0 1 1-1.06 1.063L15.97 17.03a.752.752 0 0 1 .529-1.281z"/></svg>