<svg xmlns="http://www.w3.org/2000/svg" width="24" height="24" viewBox="0 0 24 24"><path d="M2 2a1 1 0 0 0-1 1v3a1 1 0 0 0 1 1h20a1 1 0 0 0 1-1V3a1 1 0 0 0-1-1Zm2.23 7 .604 2.258C5.051 12.27 5.987 13 7 13h10c1.013 0 1.95-.73 2.166-1.742L19.77 9ZM8 15a1 1 0 0 0-1 1c0 .983-.281 1.25-.781 1.875S5 19.483 5 21a1 1 0 0 0 2 0c0-.983.281-1.25.781-1.875S9 17.517 9 16a1 1 0 0 0-1-1Zm5 0a1 1 0 0 0-1 1c0 .983-.281 1.25-.781 1.875S10 19.483 10 21a1 1 0 0 0 2 0c0-.983.281-1.25.781-1.875S14 17.517 14 16a1 1 0 0 0-1-1Zm5 0a1 1 0 0 0-1 1c0 .983-.281 1.25-.781 1.875S15 19.483 15 21a1 1 0 0 0 2 0c0-.983.281-1.25.781-1.875S19 17.517 19 16a1 1 0 0 0-1-1Z"/></svg>