<svg xmlns="http://www.w3.org/2000/svg" width="24" height="24" viewBox="0 0 24 24"><path d="M19.002 2q-.057 0-.113.006a1 1 0 0 0-.596 1.701l3 3a1 1 0 0 0 1.414-1.414l-3-3A1 1 0 0 0 19.002 2ZM8.822 4.58 20.42 16.178A9 9 0 0 0 8.822 4.58ZM2 1a1 1 0 0 0-.707 1.707L2.586 4 1.293 5.293a.999.999 0 1 0 1.414 1.414L4 5.414l1.434 1.434a9 9 0 0 0-1.207 1.62A8.95 8.95 0 0 0 3 13a9 9 0 0 0 1.982 5.604l-1.689 1.689a1 1 0 0 0 1.414 1.414l1.69-1.69A9 9 0 0 0 12 22a8.95 8.95 0 0 0 4.531-1.227 9 9 0 0 0 1.621-1.207l3.141 3.141a1 1 0 0 0 1.414-1.414l-3.252-3.252L6.96 5.545 4.742 3.33l-.035-.037-.035-.035-1.965-1.965A1 1 0 0 0 2 1Z"/></svg>