<svg xmlns="http://www.w3.org/2000/svg" width="24" height="24" viewBox="0 0 24 24"><path d="M7 3a1 1 0 0 0-1 1v11H3a1 1 0 0 0-.707 1.707l.035.035 3.965 3.965q.036.03.074.057a1 1 0 0 0 .086.066 1 1 0 0 0 .166.084 1 1 0 0 0 .102.041 1 1 0 0 0 .558 0 1 1 0 0 0 .102-.04 1 1 0 0 0 .166-.085 1 1 0 0 0 .086-.066 1 1 0 0 0 .074-.057l4-4-.039.035a.998.998 0 0 0-.28-1.662l-.015-.006a1 1 0 0 0-.406-.07L11 15H8V4a1 1 0 0 0-1-1Zm10 0a1 1 0 0 0-.28.045 1 1 0 0 0-.1.04 1 1 0 0 0-.167.085 1 1 0 0 0-.086.066 1 1 0 0 0-.074.057L12.328 7.26l-.035.033A1 1 0 0 0 13 9h3v11a1 1 0 0 0 2 0V9h3a1 1 0 0 0 .707-1.707l-3.959-3.957a1 1 0 0 0-.258-.205A1 1 0 0 0 17 3Z"/></svg>