<svg xmlns="http://www.w3.org/2000/svg" width="24" height="24" viewBox="0 0 24 24"><path d="M12 1q-.18 0-.36.01h-.001a7 7 0 0 0-1.047.133A7.03 7.03 0 0 0 5.08 6.938a7 7 0 0 0-.064 1.503q.009.165.025.329l.008.056a7 7 0 0 0 2.392 4.475l-.002.015A6.97 6.97 0 0 0 12 15a6.97 6.97 0 0 0 4.56-1.684l-.001-.015a7 7 0 0 0 2.392-4.475l.008-.056q.016-.164.025-.329a7 7 0 0 0 .006-.8v-.002a7 7 0 0 0-.133-1.047 7.03 7.03 0 0 0-5.794-5.512A7 7 0 0 0 12 1zM7.07 15.521l-1.056 6.315a1 1 0 0 0 1.5 1.021L12 20.166l4.486 2.691a1 1 0 0 0 1.5-1.021L16.93 15.52A8.94 8.94 0 0 1 12 17a8.94 8.94 0 0 1-4.93-1.479z"/></svg>