<svg xmlns="http://www.w3.org/2000/svg" width="24" height="24" viewBox="0 0 24 24"><path d="M15.909 2.866c.567.93.88 2.008.88 3.125l-.001.051a3.013 3.013 0 0 1-2.97 2.95 3.016 3.016 0 0 1-3.028-2.948 1 1 0 1 1 2-.035c.01.56.45.987 1.01.982s.99-.44.99-1a4 4 0 0 0-1.649-3.236 4 4 0 0 0-1.675-.703c-4.393.244-8.094 3.377-9.123 7.674a2.92 2.92 0 0 0 .003 4.62c1.227 4.966 5.452 7.602 9.655 7.602 4.199 0 8.42-2.632 9.65-7.588l.004-.013c1.504-1.159 1.512-3.415.033-4.594a10.04 10.04 0 0 0-5.779-6.887Zm-6.908 8.168h.01a1 1 0 0 1 0 2H9a1 1 0 0 1 0-2zm6 0h.01a1 1 0 0 1 0 2H15a1 1 0 0 1 0-2zm-5.05 4a1 1 0 0 1 .563.143c.315.189.853.357 1.487.357.633 0 1.171-.168 1.486-.357a1 1 0 0 1 1.027 1.715c-.685.41-1.547.642-2.513.642-.967 0-1.829-.231-2.514-.642a1 1 0 0 1 .465-1.858z"/></svg>