<svg xmlns="http://www.w3.org/2000/svg" width="24" height="24" viewBox="0 0 24 24"><path d="M4 6C2.355 6 1 7.355 1 9v6c0 .833.386 1.55.918 2.082.51.51 1.191.882 1.98.912A1 1 0 0 0 4 18h3.18A2.9 2.9 0 0 1 7 17c0-.763.3-1.466.785-2A2.98 2.98 0 0 1 7 13V7c0-.35.065-.686.18-1zm6 0a1 1 0 0 0-1 1v6a1 1 0 0 0 1 1 1 1 0 0 0 1-1V7a1 1 0 0 0-1-1zm2.82 0c.115.314.18.65.18 1v6c0 .763-.3 1.466-.785 2A2.98 2.98 0 0 1 13 17a2.9 2.9 0 0 1-.18 1H16l.05-.002q.025 0 .05-.004h.002c.789-.03 1.47-.402 1.98-.912.532-.532.918-1.249.918-2.082V9c0-1.645-1.355-3-3-3zM22 10a1 1 0 0 0-1 1v2a1 1 0 0 0 2 0v-2a1 1 0 0 0-1-1zm-12 6a1 1 0 0 0-1 1 1 1 0 0 0 1 1 1 1 0 0 0 1-1l-.002-.049a1 1 0 0 0-.95-.949z"/></svg>