<svg xmlns="http://www.w3.org/2000/svg" width="24" height="24" viewBox="0 0 24 24"><path d="M13.754 20.002a1 1 0 0 0-.93.516c-.382.695-1.266.695-1.648 0a1 1 0 0 0-.598-.479 1 1 0 0 0-.76.084 1 1 0 0 0-.394 1.36c1.091 1.984 4.06 1.984 5.152 0a1 1 0 0 0-.394-1.36 1 1 0 0 0-.428-.121zM12 1C8.146 1 5 4.146 5 8c0 3.357-.712 5.428-1.377 6.646-.665 1.219-1.178 1.522-1.178 1.522C1.623 16.717 2.011 18 3 18h18c.99 0 1.377-1.283.555-1.832 0 0-.513-.303-1.178-1.522C19.712 13.428 19 11.357 19 8c0-3.854-3.146-7-7-7Z"/><path d="M13.755 20.002a1 1 0 0 0-.93.516c-.382.695-1.265.695-1.648 0a1 1 0 0 0-.597-.479 1 1 0 0 0-.76.084 1 1 0 0 0-.395 1.36c1.092 1.984 4.061 1.984 5.153 0a1 1 0 0 0-.395-1.36 1 1 0 0 0-.428-.121zM12.002 1c-3.855 0-7 3.146-7 7 0 3.357-.713 5.428-1.377 6.646-.665 1.219-1.178 1.522-1.178 1.522-.823.549-.435 1.832.555 1.832h18c.989 0 1.377-1.283.554-1.832 0 0-.513-.303-1.177-1.522-.665-1.218-1.377-3.289-1.377-6.646 0-3.854-3.146-7-7-7z"/></svg>