<svg xmlns="http://www.w3.org/2000/svg" width="24" height="24" viewBox="0 0 24 24"><path d="M2 1a1 1 0 0 0-.707 1.707L5.17 6.584A5.7 5.7 0 0 0 5 8.012c-.002 3.35-.713 5.418-1.377 6.634-.665 1.219-1.178 1.522-1.178 1.522C1.623 16.717 2.011 18 3 18h13.586l4.707 4.707a1 1 0 0 0 1.414-1.414l-5-5L6.984 5.57 2.707 1.293A1 1 0 0 0 2 1Zm10 0a6.97 6.97 0 0 0-4.818 1.94l14.636 14.636c.292-.424.256-1.062-.263-1.408 0 0-.513-.303-1.178-1.522C19.712 13.428 19 11.357 19 8c0-3.854-3.146-7-7-7Zm-1.713 19a1 1 0 0 0-.863 1.482c1.091 1.985 4.06 1.985 5.152 0a1 1 0 1 0-1.752-.964c-.382.695-1.266.695-1.648 0a1 1 0 0 0-.889-.518z"/></svg>