<svg xmlns="http://www.w3.org/2000/svg" width="24" height="24" viewBox="0 0 24 24"><path d="m18.549 6.031.004.008c.013.044.022.09.035.133C18.853 7.069 19 8.018 19 9v.01a1 1 0 0 0 .082.388 1 1 0 0 0 .367.436 1 1 0 0 0 .36.148 1 1 0 0 0 .59-.064 1 1 0 0 0 .435-.367 1 1 0 0 0 .148-.36 1 1 0 0 0 .018-.2 13 13 0 0 0-.346-2.854 12 12 0 0 0-.67-1.985q-.14-.314-.298-.617a.99.99 0 0 0-.88-.535.98.98 0 0 0-.64.227 1 1 0 0 0-.248.298q-.044.086-.072.178a1 1 0 0 0 .068.762 8 8 0 0 1 .455 1.025q.097.266.18.541zM4.342 15.51A7.97 7.97 0 0 0 9 17c1.74 0 3.348-.552 4.658-1.49l-.01-.008a8.03 8.03 0 0 0 3.211-5.004l.014-.082q.032-.18.057-.363l.013-.115a8 8 0 0 0-.105-2.547 8.04 8.04 0 0 0-6.229-6.229 8.1 8.1 0 0 0-3.218 0 8.04 8.04 0 0 0-6.229 6.229 8 8 0 0 0-.142 2.154q.012.198.037.393l.013.115q.025.183.057.363l.014.082a8.03 8.03 0 0 0 3.21 5.004zM9 8h.01a1 1 0 0 1 0 2H9a1 1 0 0 1 0-2Z"/><path d="M14.854 17.1A9.94 9.94 0 0 1 9 19a9.94 9.94 0 0 1-5.854-1.9A3 3 0 0 0 3 18v2c0 1.645 1.355 3 3 3h6c1.645 0 3-1.355 3-3v-.059a8.3 8.3 0 0 0 3.602-1.293c.418.224.894.352 1.398.352 1.645 0 3-1.355 3-3s-1.355-3-3-3-3 1.355-3 3c0 .416.088.814.244 1.176-.476.286-1.219.619-2.246.758-.006-.29-.06-.57-.144-.834z"/></svg>