<svg xmlns="http://www.w3.org/2000/svg" width="24" height="24" viewBox="0 0 24 24"><path d="M6.5 1A3.515 3.515 0 0 0 3 4.5v15c0 .847.277 1.708.877 2.383S5.417 23 6.5 23H20a1 1 0 0 0 1-1V2a1 1 0 0 0-1-1ZM12 5c1.222 0 2.458.402 3.414 1.252S17 8.417 17 10v2c0 1.093-.907 2-2 2s-2-.907-2-2 .907-2 2-2c0-1.083-.37-1.769-.914-2.252S12.778 7 12 7s-1.542.265-2.086.748S9 8.917 9 10c1.093 0 2 .907 2 2s-.907 2-2 2-2-.907-2-2v-2c0-1.583.63-2.898 1.586-3.748S10.778 5 12 5ZM6.5 18H19v3H6.5c-.583 0-.894-.183-1.127-.445C5.14 20.292 5 19.903 5 19.5s.14-.792.373-1.055S5.917 18 6.5 18Z"/></svg>