<svg xmlns="http://www.w3.org/2000/svg" width="24" height="24" viewBox="0 0 24 24"><path d="M8.916.992c-.986.02-1.98.368-2.738 1.084-.613.579-.955 1.449-1.067 2.418A4.89 4.89 0 0 0 2.416 10.7a4.886 4.886 0 0 0 .67 7.217c-.032 2.613 1.919 4.895 4.59 5.068 2.525.164 4.731-1.598 5.222-3.984H18c.529 0 .944.384.994.896a1.5 1.5 0 0 0-.494 1.104c0 .817.683 1.5 1.5 1.5s1.5-.683 1.5-1.5a1.5 1.5 0 0 0-.502-1.111A3.016 3.016 0 0 0 18 17h-5v-3h1.89a1.5 1.5 0 0 0 1.11.5c.817 0 1.5-.683 1.5-1.5s-.683-1.5-1.5-1.5a1.5 1.5 0 0 0-1.11.5H13V9h5.89a1.5 1.5 0 0 0 1.11.5c.817 0 1.5-.683 1.5-1.5s-.683-1.5-1.5-1.5a1.5 1.5 0 0 0-1.11.5H17V5c0-.273.104-.515.273-.693.217.122.465.193.727.193.817 0 1.5-.683 1.5-1.5s-.683-1.5-1.5-1.5c-.572 0-1.078.335-1.33.816A3.02 3.02 0 0 0 15 5v2h-2V5.004c.004-1.276-.514-2.359-1.303-3.043S9.902.97 8.916.992Z"/><path d="M8.916.992c.986-.02 1.993.285 2.781.969.789.684 1.307 1.767 1.303 3.043V7h2V5c0-1.168.684-2.19 1.67-2.684.252-.48.758-.816 1.33-.816.817 0 1.5.683 1.5 1.5s-.683 1.5-1.5 1.5c-.262 0-.51-.07-.727-.193A1 1 0 0 0 17 5v2h1.89A1.5 1.5 0 0 1 20 6.5c.817 0 1.5.683 1.5 1.5s-.683 1.5-1.5 1.5a1.5 1.5 0 0 1-1.11-.5H13v3h1.89a1.5 1.5 0 0 1 1.11-.5c.817 0 1.5.683 1.5 1.5s-.683 1.5-1.5 1.5a1.5 1.5 0 0 1-1.11-.5H13v3h5a3.016 3.016 0 0 1 2.998 2.889A1.5 1.5 0 0 1 21.5 21c0 .817-.683 1.5-1.5 1.5s-1.5-.683-1.5-1.5a1.5 1.5 0 0 1 .494-1.104A.983.983 0 0 0 18 19h-5.102c-.491 2.386-2.697 4.148-5.222 3.984-2.671-.173-4.622-2.455-4.59-5.068a4.886 4.886 0 0 1-.67-7.217 4.89 4.89 0 0 1 2.695-6.205c.112-.97.454-1.84 1.067-2.418C6.937 1.36 7.93 1.013 8.916.992Z"/></svg>