<svg xmlns="http://www.w3.org/2000/svg" width="24" height="24" viewBox="0 0 24 24"><path d="M13 1.482v7.483a3.49 3.49 0 0 0 2.332 3.09 1 1 0 0 1 .611 1.275 1 1 0 0 1-1.275.611A5 5 0 0 1 13 12.943v9.037a4.96 4.96 0 0 0 3.324 1.004c2.671-.173 4.622-2.455 4.59-5.068a4.886 4.886 0 0 0 .67-7.217 4.89 4.89 0 0 0-2.695-6.205c-.112-.97-.454-1.84-1.067-2.418-.759-.716-1.752-1.063-2.738-1.084a4.2 4.2 0 0 0-2.084.49ZM11 21.98v-9.037a5 5 0 0 1-1.668.998 1 1 0 0 1-1.275-.61 1 1 0 0 1 .611-1.276A3.49 3.49 0 0 0 11 8.965V1.482a4.2 4.2 0 0 0-2.084-.49c-.986.02-1.98.368-2.738 1.084-.613.579-.955 1.449-1.067 2.418A4.89 4.89 0 0 0 2.416 10.7a4.886 4.886 0 0 0 .67 7.217c-.032 2.613 1.919 4.895 4.59 5.068A4.96 4.96 0 0 0 11 21.98Z"/></svg>