<svg xmlns="http://www.w3.org/2000/svg" width="24" height="24" viewBox="0 0 24 24"><path d="M17.002.998a1 1 0 0 0-.982.807l-.723 3.615q-.146-.063-.297-.117v12.105a7 7 0 0 0 .215-.209l1.984-1.984c1.37-1.342 1.955-2.977 1.871-4.502a5.8 5.8 0 0 0-.49-2.01l3.615-.723a1 1 0 0 0 .701-1.425l-.681-1.37-.014-.029A1.8 1.8 0 0 1 22 4.301V3a1 1 0 0 0-1-1h-1.293a2 2 0 0 1-.887-.213l-.006-.002-1.369-.681a1 1 0 0 0-.443-.106ZM13 4.922c-.661 0-1.34.127-2 .387v13.769c.661 0 1.34-.127 2-.387V6.928Zm-4 1.67a7 7 0 0 0-.215.209L6.801 8.785c-1.37 1.342-1.955 2.977-1.871 4.502.038.706.213 1.383.49 2.01l-3.615.723a1 1 0 0 0-.701 1.425l.681 1.37.002.005c.139.275.211.579.213.887V21a1 1 0 0 0 1 1h1.293a2 2 0 0 1 .887.213l.006.002 1.369.682a1 1 0 0 0 1.425-.702l.723-3.615q.146.063.297.117V9.414z"/></svg>