<svg xmlns="http://www.w3.org/2000/svg" width="24" height="24" viewBox="0 0 24 24"><path d="M4 3C2.355 3 1 4.355 1 6v12c0 1.645 1.355 3 3 3h16c1.645 0 3-1.355 3-3V6c0-1.645-1.355-3-3-3zm4 4c1.645 0 3 1.355 3 3 0 .35-.062.687-.174 1h2.348A3 3 0 0 1 13 10c0-1.645 1.355-3 3-3s3 1.355 3 3-1.355 3-3 3H8c-1.645 0-3-1.355-3-3s1.355-3 3-3zm0 2c-.564 0-1 .436-1 1s.436 1 1 1 1-.436 1-1-.436-1-1-1zm8 0c-.564 0-1 .436-1 1s.436 1 1 1 1-.436 1-1-.436-1-1-1zm-7.924 8h7.865a.39.39 0 0 1 .399.283l.4 1.717H7.27l.402-1.666.006-.02A.39.39 0 0 1 8.076 17z"/></svg>