<svg xmlns="http://www.w3.org/2000/svg" width="24" height="24" viewBox="0 0 24 24"><path d="M12 1C7.142 1 3.419 3.974 1.838 7.791c-1.58 3.817-1.05 8.552 2.385 11.986s8.17 3.966 11.986 2.385C20.026 20.582 23 16.858 23 12a1 1 0 0 0-1.295-.955 2.968 2.968 0 0 1-3.75-3.75 1 1 0 0 0-1.25-1.25 2.968 2.968 0 0 1-3.75-3.75 1 1 0 0 0 .027-.25L13 2l-.01-.045a1 1 0 0 0-.039-.197 1 1 0 0 0-.053-.178 1 1 0 0 0-.107-.16 1 1 0 0 0-.127-.154 1 1 0 0 0-.15-.102 1 1 0 0 0-.18-.098l-.04-.021-.019.01A1 1 0 0 0 12 1zM8.5 7.5a1 1 0 0 1 1 1v.01a1 1 0 0 1-2 0V8.5a1 1 0 0 1 1-1zM12 11a1 1 0 0 1 1 1v.01a1 1 0 0 1-2 0V12a1 1 0 0 1 1-1zm-5 2a1 1 0 0 1 1 1v.01a1 1 0 0 1-2 0V14a1 1 0 0 1 1-1zm9 1.5a1 1 0 0 1 1 1v.01a1 1 0 0 1-1 1 1 1 0 0 1-1-1v-.01a1 1 0 0 1 1-1zM11 16a1 1 0 0 1 1 1v.01a1 1 0 0 1-1 1 1 1 0 0 1-1-1V17a1 1 0 0 1 1-1z"/></svg>