<svg xmlns="http://www.w3.org/2000/svg" width="24" height="24" viewBox="0 0 24 24"><path d="M4 1C2.355 1 1 2.355 1 4v10c0 1.645 1.355 3 3 3a1 1 0 0 0 0-2c-.555 0-1-.445-1-1V4c0-.555.445-1 1-1h10c.555 0 1 .445 1 1a1 1 0 0 0 2 0c0-1.645-1.355-3-3-3zm6 6c-1.645 0-3 1.355-3 3v10c0 1.645 1.355 3 3 3h10c1.645 0 3-1.355 3-3V10c0-1.645-1.355-3-3-3zm2 4a1 1 0 0 1 .707.293L15 13.586l2.293-2.293a1 1 0 0 1 1.414 0 1 1 0 0 1 0 1.414L16.414 15l2.293 2.293a1 1 0 0 1 0 1.414 1 1 0 0 1-1.414 0L15 16.414l-2.293 2.293a1 1 0 0 1-1.414 0 1 1 0 0 1 0-1.414L13.586 15l-2.293-2.293a1 1 0 0 1 0-1.414A1 1 0 0 1 12 11z"/></svg>