<svg xmlns="http://www.w3.org/2000/svg" width="24" height="24" viewBox="0 0 24 24"><path d="M15 1v5c0 .564.436 1 1 1h5a1 1 0 0 0-.293-.707l-5-5A1 1 0 0 0 15 1Z"/><path d="M21 9h-5c-1.645 0-3-1.355-3-3V1H6C4.355 1 3 2.355 3 4v16c0 1.645 1.355 3 3 3h12c1.645 0 3-1.355 3-3zm-11 2a1 1 0 0 1 0 2v1c0 .387-.222.691-.418 1 .196.309.418.613.418 1v1a1 1 0 0 1 0 2c-1.093 0-2-.907-2-2v-1c-1.315-.019-1.315-1.981 0-2v-1c0-1.093.907-2 2-2zm4 0c1.093 0 2 .907 2 2v1c1.315.019 1.315 1.981 0 2v1c0 1.093-.907 2-2 2a1 1 0 0 1 0-2v-1c0-.387.222-.691.418-1-.196-.309-.418-.613-.418-1v-1a1 1 0 0 1 0-2z"/></svg>