<svg xmlns="http://www.w3.org/2000/svg" width="24" height="24" viewBox="0 0 24 24"><path d="M11.5 13c-.84 0-1.5.66-1.5 1.5s.66 1.5 1.5 1.5 1.5-.66 1.5-1.5-.66-1.5-1.5-1.5ZM15 1v5c0 .564.436 1 1 1h5a1 1 0 0 0-.293-.707l-5-5A1 1 0 0 0 15 1Z"/><path d="M21 9h-5c-1.645 0-3-1.355-3-3V1H6C4.355 1 3 2.355 3 4v16c0 1.645 1.355 3 3 3h12c1.645 0 3-1.355 3-3zm-9.5 2c1.921 0 3.5 1.579 3.5 3.5 0 .6-.156 1.165-.426 1.66v.002l1.133 1.131a1 1 0 0 1-1.414 1.414l-1.13-1.133h-.003c-.495.27-1.06.426-1.66.426A3.515 3.515 0 0 1 8 14.5c0-1.921 1.579-3.5 3.5-3.5Z"/></svg>