<svg xmlns="http://www.w3.org/2000/svg" width="24" height="24" viewBox="0 0 24 24"><path d="M2 1a1 1 0 0 0-.707.293 1 1 0 0 0 0 1.414l7.49 7.49L6.38 15h10.035l-5.658-5.656a1 1 0 0 0-.092-.092L2.707 1.293A1 1 0 0 0 2 1zm6.5 0a1 1 0 0 0-1 1 1 1 0 0 0 1 1H9v1.344a1 1 0 0 0 1 1 1 1 0 0 0 1-1V3h2v5.344a1 1 0 0 0 1 1 1 1 0 0 0 1-1V3h.5a1 1 0 0 0 1-1 1 1 0 0 0-1-1zM5.379 17l-1.553 3.102c-.652 1.297.349 2.908 1.801 2.898h12.746c.88.006 1.592-.585 1.873-1.34l1.047 1.047a1 1 0 0 0 1.414 0 1 1 0 0 0 0-1.414l-4.043-4.041-.252-.252z"/></svg>