<svg xmlns="http://www.w3.org/2000/svg" width="24" height="24" viewBox="0 0 24 24"><path d="M4 2C2.355 2 1 3.355 1 5v13c0 1.645 1.355 3 3 3h16c1.645 0 3-1.355 3-3V8l-.002-.05q0-.027-.004-.052A3.013 3.013 0 0 0 20 5h-7.93a1 1 0 0 1-.842-.459l-.802-1.191-.004-.002A3 3 0 0 0 7.89 2Zm7.834 6c.46 0 .832.384.832.857v1.313a4.87 4.87 0 0 1 4.252-1.21 4.99 4.99 0 0 1 3.617 2.876c.194.43.011.94-.406 1.139a.825.825 0 0 1-1.106-.418c-.953-2.113-3.552-2.654-5.226-1.13h1.369c.46 0 .834.385.834.858a.846.846 0 0 1-.834.858h-3.332l-.076-.008-.06-.008a.83.83 0 0 1-.415-.203l-.025-.02q-.015-.017-.028-.035a1 1 0 0 1-.101-.137l-.035-.058a1 1 0 0 1-.074-.219l-.006-.058a1 1 0 0 1-.014-.112V8.857c0-.473.374-.857.834-.857Zm5 6.857h3.332a1 1 0 0 1 .195.026l.041.015q.076.023.145.057l.068.045a1 1 0 0 1 .098.072l.03.024a.9.9 0 0 1 .173.246l.002.002a1 1 0 0 1 .06.185q.02.09.022.18V18c0 .564-.436 1-1 1h-.666v-1.17A4.86 4.86 0 0 1 17.125 19a4.984 4.984 0 0 1-5.66-2.836.87.87 0 0 1 .406-1.139.825.825 0 0 1 1.106.418c.953 2.113 3.55 2.654 5.224 1.13h-1.367a.846.846 0 0 1-.834-.858c0-.474.374-.858.834-.858z"/></svg>