<svg xmlns="http://www.w3.org/2000/svg" width="24" height="24" viewBox="0 0 24 24"><path d="M4 2C2.355 2 1 3.355 1 5v13c0 1.645 1.355 3 3 3h16c1.645 0 3-1.355 3-3V8c0-1.645-1.355-3-3-3h-7.93a1 1 0 0 1-.842-.459l-.802-1.191-.004-.002A3 3 0 0 0 7.89 2Zm12 6a3.05 3.05 0 0 1 2.04.752c.58.517.96 1.331.96 2.248v1c1.09 0 2 .91 2 2v3c0 1.09-.91 2-2 2h-6c-1.09 0-2-.91-2-2v-3c0-1.09.91-2 2-2v-1c0-.917.38-1.731.96-2.248A3.05 3.05 0 0 1 16 8Z"/><path d="M13 14v3h6v-3h-5zm3-4a1.1 1.1 0 0 0-.71.248c-.17.15-.29.335-.29.752v1h2v-1c0-.417-.12-.602-.29-.752A1.1 1.1 0 0 0 16 10Z"/></svg>