<svg xmlns="http://www.w3.org/2000/svg" width="24" height="24" viewBox="0 0 24 24"><path d="M4 2C2.355 2 1 3.355 1 5v13c0 1.645 1.355 3 3 3h16c1.645 0 3-1.355 3-3V8c0-1.645-1.355-3-3-3h-7.9c-.415 0-.638-.111-.868-.455l-.8-1.2A3.06 3.06 0 0 0 7.9 2Zm7.9 4.941q.076 0 .153.004a3.22 3.22 0 0 1 2.055.947c.532.533.9 1.249.947 2.055.047.807-.27 1.683-.948 2.36l-5.4 5.4a1 1 0 0 1-.465.264l-4 1q-.114.027-.224.029H4a1 1 0 0 1-.195-.02l-.034-.007a.97.97 0 0 1-.744-.744l-.007-.034A1 1 0 0 1 3 18v-.018q.002-.11.03-.224l1-4a1 1 0 0 1 .263-.465l5.4-5.4a3.2 3.2 0 0 1 1.92-.938q.145-.014.287-.014z"/><path d="M11.84 8.94c-.224.005-.45.084-.733.367l-5.205 5.205-.527 2.113 2.113-.527 5.205-5.205c.324-.324.38-.573.366-.829a1.22 1.22 0 0 0-.366-.757 1.22 1.22 0 0 0-.757-.366z"/></svg>