<svg xmlns="http://www.w3.org/2000/svg" width="24" height="24" viewBox="0 0 24 24"><path d="M13 3.063V5a1 1 0 0 1-.293.707L11.414 7l2.293 2.293a1 1 0 0 1 0 1.414L12.414 12l.293.293a1 1 0 0 1 0 1.414 1 1 0 0 1-1.414 0l-1-1a1 1 0 0 1 0-1.414L11.586 10 9.293 7.707a1 1 0 0 1 0-1.414L11 4.586V3.062C9.912 2.373 8.776 2 7.5 2 3.922 2 1 4.922 1 8.5c0 2.735 1.755 4.72 3.305 6.219l6.988 6.988a1 1 0 0 0 1.414 0l6.992-6.992C21.233 13.212 23 11.23 23 8.5 23 4.922 20.078 2 16.5 2c-1.276 0-2.412.372-3.5 1.063Z"/></svg>