<svg xmlns="http://www.w3.org/2000/svg" width="24" height="24" viewBox="0 0 24 24"><path d="M2.876 8.704 1.29 10.293a1 1 0 0 0 .002 1.414l3.998 3.998.002.002A1 1 0 0 0 6 16a1 1 0 0 0 .291-.121 1 1 0 0 0 .414-.17l.002-.002 1.59-1.582a.997.997 90.073 0 0 .002-1.412l-4.01-4.01a1 1 179.963 0 0-1.413.001Zm7.007 7.007-1.588 1.58a1 1 0 0 0-.002 1.416l4 4a1 1 0 0 0 1.416 0l1.583-1.587a1 1 89.963 0 0-.001-1.415l-3.992-3.992a1.003 1.003.073 0 0-1.416-.002zm3.865-14.578c-1.91.042-3.904.774-5.666 2.351l-.041.04-2.34 2.348a1 1 89.954 0 0 0 1.415l4.016 4.016a1 1 .065 0 0 1.416.001l1.885-1.876c.605-.451 1.09-.284 1.478.105s.556.874.108 1.479l-1.886 1.878a1 1 90.054 0 0-.001 1.413l3.984 3.984a1 1 179.963 0 0 1.413 0l2.345-2.351.035-.04c1.803-2.013 2.503-4.326 2.33-6.476s-1.18-4.12-2.662-5.602c-1.481-1.48-3.452-2.489-5.601-2.662a8 8 0 0 0-.813-.023Z"/></svg>