<svg xmlns="http://www.w3.org/2000/svg" width="24" height="24" viewBox="0 0 24 24"><path d="M9.934 9.457q-.064-.001-.127.004c-.341.027-.72.225-.996.537-.278.312-.43.71-.416 1.05.012.342.13.672.642 1.044a1 1 0 0 1 .11.092l2.904 2.822 2.892-2.813c.868-.867.745-1.63.184-2.279H15.1a1.48 1.48 0 0 0-2.079-.008l-.22.293a1 1 0 0 1-1.451.16l-.35-.3a1 1 0 0 1-.084-.08c-.376-.407-.683-.519-.982-.522Z"/><path d="M12.037 1.943c-2.143.014-4.226.736-5.918 1.967C2.631 6.448.778 11.237 2.96 16.057L1.053 21.68a1 1 0 0 0 1.267 1.267l5.623-1.906c4.82 2.181 9.609.328 12.147-3.16 2.626-3.61 2.942-9-1.014-12.957-1.978-1.978-4.316-2.888-6.61-2.975a10 10 0 0 0-.429-.006ZM9.79 7.461c.72-.013 1.462.306 2.12.824 1.36-1.07 3.33-1.036 4.591.201a1 1 0 0 1 .094.045c1.208 1.342 1.278 3.562-.237 5.076l-.01.01-3.599 3.5a1 1 0 0 1-1.395 0l-3.56-3.459c-.884-.672-1.363-1.62-1.397-2.535-.034-.938.34-1.8.92-2.453.581-.654 1.393-1.126 2.329-1.201q.071-.006.144-.008z"/></svg>