<svg xmlns="http://www.w3.org/2000/svg" width="24" height="24" viewBox="0 0 24 24"><path d="M6.748 9.162c-1.328 1.23-2.724 1.487-4.912 1.852a1 1 0 0 0-.617 1.611l8 10a1 1 0 0 0 1.228.27c1.239-.62 2.728-1.902 4.043-3.348.431-.474.832-.963 1.188-1.455zm.258 7.496 6.035 1.508-.031.037c-.978 1.075-2.034 1.858-2.852 2.395zM19.719.975c-.718.038-1.465.357-2.057.949L14 5.586l-.883-.883-.002-.002a3.016 3.016 0 0 0-4.23 0l-.002.002-1.59 1.59a1 1 0 0 0-.227.36l10.276 10.275a1 1 0 0 0 .365-.221l1.59-1.59.002-.002a3.016 3.016 0 0 0 0-4.23l-.002-.002-.883-.883 3.662-3.662c.677-.677.997-1.555.95-2.361s-.418-1.521-.95-2.053-1.246-.902-2.053-.95a3 3 0 0 0-.304 0z"/></svg>