<svg xmlns="http://www.w3.org/2000/svg" width="24" height="24" viewBox="0 0 24 24"><path d="M17 .922c-1.44 0-2.957.595-4.215 1.879L7.793 7.793l-4.992 4.992C1.43 14.127.846 15.762.93 17.287c.083 1.525.79 2.917 1.828 3.955s2.43 1.745 3.955 1.828c1.525.084 3.16-.501 4.502-1.87l4.992-4.993 4.992-4.992c1.37-1.342 1.955-2.977 1.871-4.502-.083-1.525-.79-2.917-1.828-3.955S18.812 1.013 17.287.93A5 5 0 0 0 17 .922Zm-.187 2.004q.183-.009.365.002c.969.053 1.927.52 2.65 1.244.723.723 1.191 1.681 1.244 2.65.053.97-.26 1.972-1.271 2.963l-.008.008-4.293 4.293L9.914 8.5l4.293-4.293.008-.008c.867-.885 1.743-1.235 2.597-1.273z"/></svg>