<svg xmlns="http://www.w3.org/2000/svg" width="24" height="24" viewBox="0 0 24 24"><path d="M4 2c-.825 0-1.614.264-2.172.816C1.27 3.37 1 4.157 1 4.973V11c0 .825.266 1.618.824 2.176S3.175 14 4 14v1c0 .167-.114.45-.332.668S3.167 16 3 16c-.251 0-.455-.005-.697.023-.242.03-.607.111-.899.415-.291.303-.357.653-.383.892-.025.239-.021.446-.021.701V20c0 .25-.005.452.021.69s.099.594.397.892.655.37.893.397c.237.026.439.021.689.021 1.611 0 3.617-.26 5.258-1.602C9.898 19.056 11 16.69 11 13V5c0-.827-.266-1.621-.824-2.182-.559-.56-1.36-.83-2.19-.818Zm12 0c-.825 0-1.614.264-2.172.816C13.27 3.37 13 4.157 13 4.973V11c0 .825.266 1.618.824 2.176.479.478 1.17.641 1.865.707-.015.604-.006 1.33-.107 1.562-.079.182-.132.25-.334.352-.202.1-.595.203-1.248.203a1 1 0 0 0-1 1v3c0 .25-.005.452.021.69s.099.594.397.892.655.37.893.397c.237.026.439.021.689.021 1.611 0 3.617-.26 5.258-1.602C21.898 19.056 23 16.69 23 13V5c0-.827-.268-1.621-.826-2.182-.559-.56-1.358-.83-2.188-.818Z"/></svg>