<svg xmlns="http://www.w3.org/2000/svg" width="24" height="24" viewBox="0 0 24 24"><path d="M3.941 1c-.5.03-.941.442-.941 1v20a1 1 0 0 0 1.447.895L6 22.117l1.553.778a1 1 0 0 0 .894 0L10 22.117l1.553.778a1 1 0 0 0 .894 0L14 22.117l1.553.778a1 1 0 0 0 .894 0L18 22.117l1.553.778A1 1 0 0 0 21 22V2a1 1 0 0 0-1.447-.895L18 1.883l-1.553-.778a1 1 0 0 0-.894 0L14 1.883l-1.553-.778a1 1 0 0 0-.894 0L10 1.883l-1.553-.778a1 1 0 0 0-.894 0L6 1.883l-1.553-.778A1 1 0 0 0 3.941 1ZM9 6a1 1 0 0 1 .707.293L12 8.586l2.293-2.293a1 1 0 1 1 1.414 1.414L13.414 10H15a1 1 0 0 1 0 2h-2v2h2a1 1 0 0 1 0 2h-2v1.5a1 1 0 0 1-2 0V16H9a1 1 0 0 1 0-2h2v-2H9a1 1 0 0 1 0-2h1.586L8.293 7.707A1 1 0 0 1 9 6Z"/></svg>