<svg xmlns="http://www.w3.org/2000/svg" width="24" height="24" viewBox="0 0 24 24"><path d="M3.941 1c-.5.03-.941.442-.941 1v20a1 1 0 0 0 1.447.895L6 22.117l1.553.778a1 1 0 0 0 .894 0L10 22.117l1.553.778a1 1 0 0 0 .894 0L14 22.117l1.553.778a1 1 0 0 0 .894 0L18 22.117l1.553.778A1 1 0 0 0 21 22V2a1 1 0 0 0-1.447-.895L18 1.883l-1.553-.778a1 1 0 0 0-.894 0L14 1.883l-1.553-.778a1 1 0 0 0-.894 0L10 1.883l-1.553-.778a1 1 0 0 0-.894 0L6 1.883l-1.553-.778A1 1 0 0 0 3.941 1zM10 6h3c.917 0 1.731.38 2.248.96A3.05 3.05 0 0 1 16 9a3.05 3.05 0 0 1-.752 2.04c-.517.58-1.331.96-2.248.96h-2v2h2a1 1 0 0 1 0 2h-2v1a1 1 0 0 1-2 0v-1H8a1 1 0 0 1 0-2h1v-2H8a1 1 0 0 1 0-2h1V7a1 1 0 0 1 1-1zm1 2v2h2c.417 0 .602-.12.752-.29.15-.168.248-.432.248-.71s-.098-.542-.248-.71C13.602 8.12 13.417 8 13 8z"/></svg>