<svg xmlns="http://www.w3.org/2000/svg" width="24" height="24" viewBox="0 0 24 24"><path d="M5.861 14.99a3.17 3.17 0 0 0-2.004.744c-1.08.909-1.546 2.294-1.88 3.463a17 17 0 0 0-.467 2.17 1 1 0 0 0 1.123 1.123s1-.132 2.17-.467c1.17-.334 2.554-.8 3.463-1.88 1.035-1.23 1.025-3.1-.153-4.264l-.013-.012a3.17 3.17 0 0 0-2.239-.877z"/><path d="M22.006 1a13.88 13.88 0 0 0-11.41 5.855 13 13 0 0 0-1.362-.251c-.573-.074-1.22-.134-1.873-.075s-1.313.237-1.916.639h-.002c-1.076.72-1.577 1.89-1.927 2.855s-.5 1.8-.5 1.8A1 1 0 0 0 4 13h4.586L11 15.414V20a1 1 0 0 0 1.178.984s.833-.15 1.799-.5c.965-.35 2.135-.851 2.855-1.927v-.002c.803-1.205.712-2.642.564-3.79a13 13 0 0 0-.25-1.349C22.153 9.742 23 4.804 23 2a1 1 0 0 0-.994-1Z"/></svg>