<svg xmlns="http://www.w3.org/2000/svg" width="24" height="24" viewBox="0 0 24 24"><path d="M12 10c-1.116 0-2 .884-2 2s.884 2 2 2 2-.884 2-2-.884-2-2-2z"/><path d="M11.78 1c-1.646 0-3 1.355-3 3v.18a1 1 0 0 1-.5.865h-.003l-.43.25a1 1 0 0 1-1.027-.018l-.12-.064a3.014 3.014 0 0 0-4.095 1.096l-.22.38h-.002a3.016 3.016 0 0 0 1.043 4.063l.15.1.055.035a1 1 0 0 1 .5.86v.507a1 1 0 0 1-.516.879l-.136.082a3.016 3.016 0 0 0-1.096 4.096h.002l.22.38A3.014 3.014 0 0 0 6.7 18.787l.121-.064.03-.018a.99.99 0 0 1 1 0l.427.25h.002c.31.18.5.507.5.865V20c0 1.645 1.355 3 3 3h.442c1.645 0 3-1.355 3-3v-.18c0-.358.19-.686.5-.865h.002l.427-.25a1 1 0 0 1 1.03.018l.12.064a3.014 3.014 0 0 0 4.095-1.096l.005-.01.217-.382v-.002a3.014 3.014 0 0 0-1.127-4.11l-.12-.064a1 1 0 0 1-.5-.87v-.507a1 1 0 0 1 .515-.88l.137-.081a3.016 3.016 0 0 0 1.095-4.096h-.002l-.22-.38A3.014 3.014 0 0 0 17.3 5.213l-.121.064-.03.018a1 1 0 0 1-.998 0h-.002l-.427-.25h-.002a1 1 0 0 1-.5-.865V4c0-1.645-1.355-3-3-3zM12 8c2.197 0 4 1.803 4 4s-1.803 4-4 4-4-1.803-4-4 1.803-4 4-4Z"/></svg>