<svg xmlns="http://www.w3.org/2000/svg" width="24" height="24" viewBox="0 0 24 24"><path d="M14.5 1A2.517 2.517 0 0 0 12 3.5v5c0 1.368 1.132 2.5 2.5 2.5S17 9.868 17 8.5v-5C17 2.132 15.868 1 14.5 1Zm-5.947.004q-.068 0-.135.002-.181.006-.361.037a2.5 2.5 0 0 0-1.325.69 2.52 2.52 0 0 0-.543 2.724A2.52 2.52 0 0 0 8.5 6H10a1 1 0 0 0 1-1V3.5a2.52 2.52 0 0 0-1.543-2.31 2.5 2.5 0 0 0-.904-.186Zm11.85 5.002c-.3.01-.592.072-.86.183A2.52 2.52 0 0 0 18 8.5V10a1 1 0 0 0 1 1h1.5a2.52 2.52 0 0 0 2.31-1.543 2.52 2.52 0 0 0-.542-2.725 2.48 2.48 0 0 0-1.866-.726ZM3.5 7A2.517 2.517 0 0 0 1 9.5C1 10.868 2.132 12 3.5 12h5c1.368 0 2.5-1.132 2.5-2.5S9.868 7 8.5 7Zm12 5a2.517 2.517 0 0 0-2.5 2.5c0 1.368 1.132 2.5 2.5 2.5h5c1.368 0 2.5-1.132 2.5-2.5S21.868 12 20.5 12Zm-12 1a2.52 2.52 0 0 0-2.31 1.543 2.52 2.52 0 0 0 .542 2.725 2.52 2.52 0 0 0 2.725.543A2.52 2.52 0 0 0 6 15.5V14a1 1 0 0 0-1-1Zm6 0A2.517 2.517 0 0 0 7 15.5v5C7 21.868 8.132 23 9.5 23s2.5-1.132 2.5-2.5v-5c0-1.368-1.132-2.5-2.5-2.5Zm4.5 5a1 1 0 0 0-1 1v1.5a2.52 2.52 0 0 0 1.543 2.31 2.52 2.52 0 0 0 2.725-.542 2.52 2.52 0 0 0 .543-2.725c-.292-.705-.986-1.195-1.801-1.383a1 1 0 0 0-.51-.16Z"/></svg>