<svg xmlns="http://www.w3.org/2000/svg" width="24" height="24" viewBox="0 0 24 24"><path d="M6 3C4.355 3 3 4.355 3 6v2.16a2.9 2.9 0 0 0-1.04.592C1.38 9.269 1 10.083 1 11v5c0 1.295.84 2.406 2 2.822V20a1 1 0 0 0 2 0v-1h14v1a1 1 0 0 0 2 0v-1.178c1.16-.416 2-1.527 2-2.822v-5c0-.917-.38-1.731-.96-2.248A2.9 2.9 0 0 0 21 8.16V6c0-1.645-1.355-3-3-3h-6zm-2 7c.278 0 .542.098.71.248.17.15.29.335.29.752v2a1 1 0 0 0 1 1h12a1 1 0 0 0 1-1v-2c0-.417.12-.602.29-.752.168-.15.432-.248.71-.248s.542.098.71.248c.17.15.29.335.29.752v5c0 .564-.436 1-1 1H4c-.564 0-1-.436-1-1v-5c0-.417.12-.602.29-.752A1.1 1.1 0 0 1 4 10Z"/></svg>