<svg xmlns="http://www.w3.org/2000/svg" width="24" height="24" viewBox="0 0 24 24"><path d="M2 1a1 1 0 0 0-.707 1.707l1.006 1.006A2.95 2.95 0 0 0 2 5v14c0 1.645 1.355 3 3 3h14c.46 0 .896-.11 1.287-.299l1.006 1.006a1 1 0 0 0 1.414-1.414l-1.006-1.006-6.754-6.754-1.56-1.56L10 8.586 8.066 6.652 3.713 2.3 2.707 1.293A1 1 0 0 0 2 1zm4.242 1 4 4H13c1.25 0 2.315.505 2.998 1.273C16.681 8.043 17 9.028 17 10a4.2 4.2 0 0 1-.592 2.166L22 17.758V5c0-1.645-1.355-3-3-3zm6 6 2.656 2.656c.063-.21.102-.43.102-.656 0-.528-.181-1.042-.498-1.398C14.185 8.245 13.75 8 13 8zM8 9.414l2 2V12h.586l2 2H10v3a1 1 0 0 1-2 0z"/></svg>