<svg xmlns="http://www.w3.org/2000/svg" width="24" height="24" viewBox="0 0 24 24"><path d="M5 2C3.355 2 2 3.355 2 5v14c0 1.645 1.355 3 3 3h14c1.645 0 3-1.355 3-3V5c0-1.645-1.355-3-3-3Zm9.412 3.96q.354 0 .723.05a1 1 0 0 1-.27 1.98c-.888-.12-1.296.06-1.574.346-.278.285-.49.83-.49 1.664v.2h1.898a1 1 0 0 1 0 2h-1.898v2c0 1.047-.24 2.04-.926 2.763C11.189 17.687 10.167 18 9 18a1 1 0 0 1 0-2c.833 0 1.21-.186 1.424-.412s.377-.637.377-1.389v-2H9a1 1 0 0 1 0-2h1.8V10c0-1.167.288-2.27 1.06-3.06.626-.642 1.531-.974 2.552-.98z"/></svg>