<svg xmlns="http://www.w3.org/2000/svg" width="24" height="24" viewBox="0 0 24 24"><path d="M7.83 1a3 3 0 0 0-2.129.885L3.295 4.293A.414.414 67.491 0 0 3.588 5h16.826a.414.414 112.5 0 0 .293-.707l-2.408-2.408A3 3 0 0 0 16.169 1ZM1 8v2a1 1 0 0 0 1 1h1.951a1.7 1.7 0 0 0 .994-.395l.059-.046a1.7 1.7 0 0 1 .996-.32 1.7 1.7 0 0 1 1.055.366c.266.225.599.344.945.375a1.7 1.7 0 0 0 1.004-.421 1.71 1.71 0 0 1 2.05.046c.267.225.6.344.946.375a1.7 1.7 0 0 0 1.004-.421 1.71 1.71 0 0 1 2.05.046c.267.225.6.344.946.375a1.7 1.7 0 0 0 1.004-.421 1.71 1.71 0 0 1 2.05.046c.281.236.63.374.995.395H22a1 1 0 0 0 1-1V8a1 1 0 0 0-1-1H2a1 1 0 0 0-1 1Zm5 4.229q-.196.141-.404.263a3.7 3.7 0 0 1-1.037.432q-.061.013-.123.023A3 3 0 0 1 4 13a1 1 135 0 0-1 1v6c0 1.645 1.355 3 3 3h1a1 1 135 0 0 1-1v-4c0-1.645 1.355-3 3-3h2c1.645 0 3 1.355 3 3v4a1 1 45 0 0 1 1h1c1.645 0 3-1.355 3-3v-6a1 1 45 0 0-1-1l-.055-.002c-.552-.03-1.069-.226-1.54-.506a5 5 0 0 1-.405-.264c-.575.42-1.231.73-1.945.77a1 1 0 0 1-.11 0c-.714-.04-1.37-.35-1.945-.77-.575.42-1.231.73-1.945.77a1 1 0 0 1-.11 0c-.714-.04-1.37-.35-1.945-.77-.575.42-1.231.73-1.945.77a1 1 0 0 1-.11 0c-.714-.04-1.37-.35-1.945-.77ZM11 17c-.564 0-1 .436-1 1v4a1 1 0 0 0 1 1h2a1 1 0 0 0 1-1v-4c0-.564-.436-1-1-1z"/></svg>