<svg xmlns="http://www.w3.org/2000/svg" width="24" height="24" viewBox="0 0 24 24"><path d="M12 1a1 1 0 0 0-1 1v2a1 1 0 0 0 1 1 1 1 0 0 0 1-1V2a1 1 0 0 0-1-1zM4.9 3.9a1 1 0 0 0-.707.293 1 1 0 0 0 0 1.414l1.4 1.4a1 1 0 0 0 1.415 0 1 1 0 0 0 0-1.413l-1.4-1.4A1 1 0 0 0 4.9 3.9zm14.2 0a1 1 0 0 0-.707.293l-1.4 1.4a1 1 0 0 0 0 1.415 1 1 0 0 0 1.413 0l1.4-1.4a1 1 0 0 0 0-1.415A1 1 0 0 0 19.1 3.9zM12 7c-.546 0-1.063.084-1.543.238a5.013 5.013 0 0 0-2.914 7.037c.23.449.536.874.922 1.26a5 5 0 0 0 1.26.922 5.015 5.015 0 0 0 7.037-2.914c.154-.48.238-.997.238-1.543a1 1 0 0 0-.02-.193v-.002a1 1 0 0 0-.029-.098 1 1 0 0 0-.033-.098 1 1 0 0 0-.043-.084 1 1 0 0 0-.055-.093 1 1 0 0 0-.058-.073 1 1 0 0 0-.075-.082 1 1 0 0 0-.072-.06 1 1 0 0 0-.088-.063 1 1 0 0 0-.08-.045 1 1 0 0 0-.101-.045 1 1 0 0 0-.092-.027 1 1 0 0 0-.102-.021 1 1 0 0 0-.095-.012 1 1 0 0 0-.11.002 1 1 0 0 0-.093.006 1 1 0 0 0-.096.021 1 1 0 0 0-.106.031 1 1 0 0 0-.086.04 1 1 0 0 0-.09.044 1 1 0 0 0-.16.122 3 3 0 0 1-.355.279c-.347.221-.67.279-.99.256-.427-.031-.864-.245-1.198-.578-.333-.334-.547-.77-.578-1.198s.081-.86.535-1.345l.026-.034.004-.004.045-.062.01-.014.013-.021.01-.02.01-.017.013-.026.006-.011.014-.03.004-.008.015-.037v-.002l.016-.04.012-.038.013-.054.006-.028.004-.02.004-.02.004-.026.002-.016.004-.031v-.01l.004-.037v-.046L13 8a1 1 0 0 0-.04-.201 1 1 0 0 0-.024-.125 1 1 0 0 0-.245-.39l-.007-.014h-.012a1 1 0 0 0-.276-.176l-.074-.03A1 1 0 0 0 12 7zM2 11a1 1 0 0 0-1 1 1 1 0 0 0 1 1h2a1 1 0 0 0 1-1 1 1 0 0 0-1-1zm18 0a1 1 0 0 0-1 1 1 1 0 0 0 1 1h2a1 1 0 0 0 1-1 1 1 0 0 0-1-1zM6.3 16.7a1 1 0 0 0-.706.292l-1.4 1.4a1 1 0 0 0 0 1.415 1 1 0 0 0 1.413 0l1.4-1.4a1 1 0 0 0 0-1.415 1 1 0 0 0-.706-.293zm11.311.003a1 1 0 0 0-.619.29 1 1 0 0 0-.172.237l-.015.026a1 1 0 0 0-.082.254l-.012.058a1 1 0 0 0 0 .262l.012.059a1 1 0 0 0 .082.254l.015.025a1 1 0 0 0 .172.238l1.4 1.4a1 1 0 0 0 .239.173l.025.015a1 1 0 0 0 .254.082l.059.012a1 1 0 0 0 .261 0l.06-.012a1 1 0 0 0 .253-.082l.025-.015a1 1 0 0 0 .239-.172 1 1 0 0 0 .08-.09l.004-.004a1 1 0 0 0 .12-.203l.007-.014a1 1 0 0 0 .066-.217v-.006a1 1 0 0 0 0-.353l-.002-.008a1 1 0 0 0-.07-.223l-.022-.043-.035-.064-.03-.045a1 1 0 0 0-.118-.144l-1.4-1.4a1 1 0 0 0-.204-.153l-.053-.03a1 1 0 0 0-.238-.085l-.031-.006a1 1 0 0 0-.27-.016zM12 19a1 1 0 0 0-1 1v2a1 1 0 0 0 1 1 1 1 0 0 0 1-1v-2a1 1 0 0 0-1-1z"/></svg>