<svg xmlns="http://www.w3.org/2000/svg" width="24" height="24" viewBox="0 0 24 24"><path d="M18.002 1q-.057 0-.113.006a1 1 0 0 0-.596 1.701L18.586 4 17 5.586l-1.293-1.293-1-1a1 1 0 0 0-1.414 0 1 1 0 0 0-.1 1.293l5.805 5.83.002-.002.293.293a1 1 0 0 0 1.414-1.414l-1-1L18.414 7 20 5.414l1.293 1.293a1 1 0 0 0 1.414-1.414l-4-4A1 1 0 0 0 18.002 1zm-5.82 5.818a1 1 0 0 0-.707.293l-3.176 3.176-.01.012-4.258 4.258c-1.266 1.14-1.377 3.048-.408 4.406l-2.33 2.33a1 1 0 0 0 1.414 1.414l2.316-2.316c1.298.965 3.183.817 4.383-.383l7.471-7.47a1 1 0 0 0 .002-1.417l-3.992-4.008a1 1 0 0 0-.705-.295z"/></svg>