<svg xmlns="http://www.w3.org/2000/svg" width="24" height="24" viewBox="0 0 24 24"><path d="M22.002 1q-.057 0-.113.006a1 1 0 0 0-.596.287L19 3.586l-.592-.592A3.4 3.4 0 0 0 16 2a3.4 3.4 0 0 0-2.408.994l-2.299 2.299a1 1 0 0 0 0 1.414l6 6a1 1 0 0 0 1.414 0l2.299-2.299.002-.002a3.415 3.415 0 0 0 0-4.812l-.002-.002L20.414 5l2.293-2.293A1 1 0 0 0 22.002 1ZM10 10a1 1 0 0 0-.707.293L7.5 12.086l-.793-.793a1 1 0 0 0-1.414 0l-2.3 2.3a3.415 3.415 0 0 0 .001 4.815l.592.592-2.293 2.293a1 1 0 0 0 1.414 1.414L5 20.414l.594.594a3.415 3.415 0 0 0 4.814-.002l2.299-2.299a1 1 0 0 0 0-1.414l-.793-.793 1.793-1.793a1 1 0 0 0-1.414-1.414L10.5 15.086 8.914 13.5l1.793-1.793A1 1 0 0 0 10 10Z"/></svg>