<svg xmlns="http://www.w3.org/2000/svg" viewBox="-10 0 1034 1024"><path d="M888 307q-33-53-77.5-97.5T716 130 613.5 68.5 512 26q-34 10-67 24.5T380 84l169 132-46 47 166 127-312-98 64-61-169-54q-32 28-60.5 61T138 307q34 91 51 152t17 115.5-17 115T138 841q92 70 186 106t188.5 37T701 949.5 888 841q-28-91-42-151.5t-14-115T846 459t42-152zM764 575q-47-23-93-38t-92-21q-9 58-13.5 115t-4 114 6 114T584 973H465q14-57 20-114t6-114.5-6-114.5-16-115q-47 6-94 21t-94 39V433q60-17 122-23t123.5-5 121.5 9 116 19z"/></svg>