<svg xmlns="http://www.w3.org/2000/svg" viewBox="-10 0 1034 1024"><path d="m925 328-76 21-11 39-64-64 23-23-16-60-60-16-24 23-64-65 40-10 20-77-56-56-77 20-20 77 28 29-88 23-8-31-60-16-44 44 8 31-88 24 10-39-56-57-77 21-20 77 56 56 39-10-23 87-31-8-45 44 17 60 31 9-24 88-29-29-76 20-21 77 56 56 77-20 11-40 64 65-23 23 17 60 60 16 23-23 64 65-39 10-21 77 56 56 77-20 21-77-29-29 88-24 8 32 60 16 44-44-8-32 88-24-11 40 57 57 76-21 21-77-56-56-40 11 24-89 31 9 44-44-16-60-31-9 23-88 29 29 77-21 21-76zM724 516q-11 46-50.5 77t-85 54.5-86.5 43-54 42.5q0-29-24.5-65.5t-52-78.5-46.5-88-8-94q11-46 41.5-66.5T424 322t66 26 43 68q33-33 71-38.5t68 10.5 46.5 49.5T724 516z"/></svg>