<svg xmlns="http://www.w3.org/2000/svg" viewBox="-10 0 1034 1024"><path d="M507 50q-95 0-178 36t-145 97.5-97.5 145T51 506q0 95 35.5 178T184 829t145 97.5T507 962q94 0 177.5-35.5t145-97.5T927 684t36-178q0-94-36-177.5t-97.5-145-145-97.5T507 50zm0 847q-82 0-153.5-31t-125-84.5-84.5-125T113 503t31-153.5 84.5-125 125-84.5T507 109t153.5 31 125 84.5 84.5 125T901 503t-31 153.5-84.5 125-125 84.5T507 897zm45-739h-90l-58 361-164 51v101h158l37 37h-39v83h222v-83h-39l36-37h159V570l-164-51zm6 323H455q0-150 51.5-149.5T558 481z"/></svg>