<svg xmlns="http://www.w3.org/2000/svg" viewBox="-10 0 1034 1024"><path d="M512 37q-98 0-184 37T178 175 76.5 325.5 39 510q0 97 37.5 183.5T178 844t150 101 184 37 184-37 150-101 101.5-150.5T985 510q0-98-37.5-184.5T846 175 696 74 512 37zm170 655q-32 57-72 83t-82.5 25-85.5-28-81-76q-27 42-85.5 69.5T165 785q-33-41-56-90T76 592q35 34 87 39t83-44q24 36 60 55t75 18.5 77.5-21T527 577q18 25 48.5 46t66.5 24.5 75-16.5 73-76q31 61 80.5 51t84.5-50q-7 64-31 121.5T862 783q-51 29-92.5 9T682 692zM513 62q92 0 173 35t141.5 95.5T923 334t35 173v14l-1 14q-46 13-96-15t-76-73q-71 99-135 104T527 444q-28 51-65 78.5t-75.5 32-74-13T252 484q-51 70-91 81t-92-25q-1-8-1-16.5V507q0-92 35-173t95-141.5T339.5 97 513 62zM224 846q37 13 73.5 5t58.5-48q36 57 84.5 77t95.5 16 87-25 59-46q26 30 56 33.5t61-10.5q-58 49-131 76.5T513 952q-83 0-156.5-28T224 846z"/></svg>