<svg xmlns="http://www.w3.org/2000/svg" viewBox="-10 0 1034 1024"><path d="M392 392q22 0 48.5 15t71.5 15 71-15 49-15q67 0 44.5 34T632 482q0 112 37.5 197.5T752 827t82.5 102 37.5 63H152q0-23 37.5-63T272 827t82.5-147.5T392 482q-22-22-45-56t45-34zm150-30q0 12-9 21t-21 9-21-9-9-21 9-21 21-9 21 9 9 21zm30-270q0 25-17.5 42.5T512 152t-42.5-17.5T452 92t17.5-42.5T512 32t42.5 17.5T572 92zm-90 150q0 25-17.5 42.5T422 302t-42.5-17.5T362 242t17.5-42.5T422 182t42.5 17.5T482 242zm120 30q0 12-9 21t-21 9-21-9-9-21 9-21 21-9 21 9 9 21z"/></svg>