<svg xmlns="http://www.w3.org/2000/svg" viewBox="-10 0 1034 1024"><path d="M917 817q-47-26-73.5-67T814 668q-8-110-92-180.5T521 355 277 223 57 43v0q5 140 75 218.5t171 131 214 96T720 602q-58-26-132.5-39T433 535t-160-38-150-68q33 105 102 149t156 60 182.5 21.5T744 693q-50-4-108 4t-119.5 15.5-125.5 7T264 696q55 88 118.5 111t131 16T651 795.5 791 775q-35 9-71.5 30T644 847t-82 36-92 11q59 57 106 64t88-11.5 79.5-51T824 842q-8 10-13 23t-6 27q-2 35 21.5 60.5T885 979q34 2 60-21.5t27-57.5q1-29-14.5-51.5T917 817z"/></svg>