<svg xmlns="http://www.w3.org/2000/svg" viewBox="-10 0 1034 1024"><path d="M207 498q0 87 47.5 174T359 828.5t104 113l47 43.5 47.5-43.5 104.5-113L766.5 672 814 498q0-233-95-347T510.5 38 302 154.5 207 498zm217 255q-29-31-50.5-71T338 598q-23-6-37-25t-14-43q0-17 8-31.5t20-24.5q-2-49 5-96.5t25-89.5l30 176q22 6 36.5 24.5T426 531q0 18-8.5 33T396 588zm173 0 28-165q-14-9-22-24t-8-33q0-24 14.5-42.5T646 464l30-176q18 42 25 89.5t5 96.5q12 10 20 24.5t8 31.5q0 24-14.5 43T683 598q-14 44-35.5 84T597 753z"/></svg>