<svg xmlns="http://www.w3.org/2000/svg" viewBox="-10 0 1034 1024"><path d="M930 747zq-49-17-95-38.5t-88.5-47-82-55T588 543l-48 49q33 37 63.5 76.5t57 81.5 49.5 85.5 42 89.5q34 83 99 40.5T836 841q95 68 139 2t-45-96zM489 440q-33-39-63.5-81t-58-87-53-92.5T266 82q-31-65-94-21t-3 118q-72-67-114.5-10T87 260q48 22 94 47.5t90.5 54.5 86 61 81.5 67zM99 746q117-40 215.5-105.5t180-151 148-189T764 81q30-65 93.5-21t2.5 118q73-67 115-10t-33 91q-110 50-210.5 119T545 532 391 715.5 277 924q-34 83-99 40.5T193 840q-95 68-139 2t45-96z"/></svg>