<svg xmlns="http://www.w3.org/2000/svg" viewBox="-10 0 1034 1024"><path d="M45 57q80 51 158.5 96T361 233t160 58.5T688 324q61 7 74 47.5T751 464q-20 44-14 95.5t35 104T852.5 766 975 855q-9 42-56.5 70T833 941q-31-65-77-118t-98-34q-53 18-106.5 29.5t-104 13-96-7T269 795q50-6 98-16t94.5-23.5T552 725t86-38q-75 11-154 15.5t-151-2-130.5-26T111 617q68 3 130.5 1t122.5-9 119.5-18T604 565q-82-8-165-20.5T284 510t-127-56-81-84q61 19 130 32t138.5 21.5 136 12.5 121.5 4q-86-21-181-60t-176-90-136.5-110.5T45 57z"/></svg>