<svg xmlns="http://www.w3.org/2000/svg" viewBox="-10 0 1034 1024"><path d="M459 32q-55 4-102 27.5t-82 62-54.5 88.5T201 317q0 28 5 54t15 51 36.5 64T385 620l38-23q-1-5-2-10.5t-1-11.5q0-23 14.5-41t36.5-23v-45q-43-3-79.5-21t-64-47-43-67.5T269 249t14-81 39.5-67T383 54t76-22zm505 792q24-50 27.5-103t-12-102.5-49-91.5-81.5-71q-24-14-49.5-22.5T749 421q-27-4-74 0t-178 44v45q5 1 10.5 3t10.5 5q20 12 28 33.5t1 43.5l39 23q24-36 57.5-59.5T716 526t79.5-3.5T873 549t62 52.5 37.5 68.5 10.5 76.5-19 77.5zM32 869q31 46 75 75.5t94 41 102.5 3.5T405 952q24-14 44-31.5t36-38.5q17-21 37-64t51-178l-39-22q-3 4-7.5 7.5T517 632q-20 12-42.5 8T437 620l-39 22q19 39 22 80t-8.5 79.5T375 873t-62 54q-36 22-76 28.5t-77.5-1.5T89 924.5 32 869zm453-562q-45 0-85.5 13.5T326 359q10 15 23 27.5t27 22.5q23-15 51-24t58-9q31 0 60 9.5t53 27.5q22-6 43-10t43-6q-37-42-88.5-66T485 307zm231 405q22-39 30.5-81.5T750 547q-17 2-34 6.5T683 566q1 28-5.5 56.5T656 677q-15 28-38 48.5T569 758q-7 22-14 42.5T539 841q54-11 100.5-44t76.5-85zm-463-1q23 39 55 67.5t70 45.5q7-16 11.5-33.5T395 755q-25-12-46-32t-36-46q-16-28-22-58t-4-60q-15-16-29-32.5T231 492q-17 53-12 110t34 109z"/></svg>