<svg xmlns="http://www.w3.org/2000/svg" viewBox="-10 0 1034 1024"><path d="M512 32q-11 0-22.5 33T467 146q-50 6-96 25.5T285 222q-41-26-73-41.5t-40-8.5q-7 8 8.5 39.5T222 285q-31 39-50.5 85.5T146 467q-48 11-81 22.5T32 512t33 22.5 81 22.5q6 50 25.5 96t50.5 86q-26 41-41.5 73t-8.5 39q8 8 39.5-7.5T285 802q39 31 85.5 50.5T467 878q11 48 22.5 81t22.5 33 22.5-33 22.5-81q50-6 96-25.5t86-50.5q41 26 73 41.5t39 7.5q8-7-7.5-38.5T802 739q31-40 50.5-86t25.5-96q48-11 81-22.5t33-22.5-33-22.5-81-22.5q-6-50-25.5-96T802 285q26-41 41.5-73t7.5-40q-7-7-38.5 8.5T739 222q-40-31-86-50.5T557 146q-11-48-22.5-81T512 32zm6 258q45 2 84.5 20t68.5 48 46 69.5 17 84.5q-1 46-18 86.5T668.5 669 598 716t-86 17-86.5-17-70.5-47.5-47.5-70.5-17.5-86 17.5-86.5T355 355t70.5-47.5T512 290z"/></svg>