<svg xmlns="http://www.w3.org/2000/svg" viewBox="-10 0 1034 1024"><path d="M19 886v121h118l220-220-119-120zm796-196-93-181 79-74 191 97-95-186 72-68-51-51 53-53L851 54l-53 53-52-52-233 246-179-91 93 182-80 84-169-87 88 173-65 69 189 188 68-63 177 91-89-174 83-78zm-73-496q37 0 63 26.5t26 63.5-26 63.5-63 26.5-63.5-26.5T652 284t26.5-63.5T742 194zM318 620q0-36 25.5-61.5T405 533t61.5 25.5T492 620t-25.5 61.5T405 707t-61.5-25.5T318 620zm164-169q0-37 26.5-63t63.5-26 63.5 26 26.5 63q0 38-26.5 64T572 541t-63.5-26-26.5-64zm196-324L492 33l97 189zm145 157q0 34-24.5 58T740 366t-58-24-24-58 24-58.5 58-24.5 58.5 24.5T823 284zM629 395q23 24 23 56.5T629 507t-55.5 23-56.5-23q-23-23-23-56t23-56 55.5-23 56.5 23zM458 567q22 22 22 53t-22 52q-22 22-53 22t-53-22-22-53 22-53q21-22 52.5-22t53.5 23z"/></svg>