<svg xmlns="http://www.w3.org/2000/svg" viewBox="-10 0 1034 1024"><path d="m668 567-103-54 11 69-80-27q53 37 98 79t84 89 74 100 67 113q34 61 79.5 26.5T888 867q62 51 99.5-3.5T969 786q-47-21-91-44.5T795.5 691 725 633t-57-66zM34 611q-21 31 9 62t99 4q-83 50-41.5 97t91.5-10q51-58 111-107.5T427 581l26-56-66 12 97-119q-45 31-91.5 58.5t-96 49-102 36T86 580q-20 2-33 11t-19 20zm532-202 87-207-51-161-66 269zm277 176L603 462l223 17zM507 381 322 87l4 221zm-50 225L337 764l93-20zm166-185 171-78-112-3zM495 608l38 236 73-39z"/></svg>