<svg xmlns="http://www.w3.org/2000/svg" viewBox="-10 0 1034 1024"><path d="M840 385q-5-9-13.5-16.5T808 355q-22-12-43-12t-38 9v0q-47 22-93.5 34.5T541 407q-12-4-15-13.5t5-24.5q28-27 60.5-48.5T658 288q27-4 47.5-23.5T734 219q35-7 73-1.5t64 33.5q-17-102-67.5-124.5T700 117l-4-2-4-2q-45-26-83.5-2.5T559 173q-9 23-19.5 45T517 260q-53 47-101 34t-87-65q-29-42-54-95T235 29H34v139q43 20 91 62t86.5 89.5 59 90.5 6.5 65q-30 14-62.5 26.5T145 526q-4 1-8 2.5t-8 3.5h-1v0q-32 15-49 49.5T73 650q-29 57-13 120t130 83q-33-32-41.5-70t2.5-71q35 4 61.5-17.5T249 642q12-32 32-58t51-35q17-5 48 2t66.5 26.5 71 50T578 700q4 15 14.5 27.5T621 750q17 9 33 11.5t31-1.5q28 31 46.5 74t7.5 87q81-73 70-136.5T757 676q3-25-7.5-49.5T711 586q-14-7-27.5-10t-26.5-1q-23 0-49-4.5T557 558q-33-24-32.5-45.5T553 476q41-4 80 7t71 27q3 3 6.5 5t6.5 4q39 21 72 7.5t51-42.5q32 8 60.5 35t47.5 62q33-102-7.5-146.5T840 385z"/></svg>