<svg xmlns="http://www.w3.org/2000/svg" viewBox="-10 0 1034 1024"><path d="M726 387q-24 55-57.5 105t-76 93.5-93 78.5T392 724q72-8 133-38.5T630.5 609 700 505.5 726 387zm117 0q-33 74-78 142T663 655.5t-125 106T392 842q97-11 179.5-52T714 687t94-139.5T843 387zm144 0q-42 98-102 188T750 742 585 881.5 392 989q129-15 238-69.5T818 783t124-184 45-212zM381 544q-40-31-78.5-62.5T250 436q-57-57-63.5-111.5T223 226q44-43 98-36.5T433 254q14 14 45 52t62 77l71-73q-32-51-68-105t-56-74q-45-39-93.5-59t-96-21T205 68t-83 56v0q-43 42-62 90.5t-16.5 97 24 94.5 60.5 84q20 20 75 57t107 69zm-58 80q33 21 55 34.5l22 13.5 63-63q-9-7-28-22t-43-33zm226-230q19 24 34 43.5t23 29.5l63-63-14-23.5-36-57.5z"/></svg>