<svg xmlns="http://www.w3.org/2000/svg" viewBox="-10 0 1034 1024"><path d="M942 399q13-62-20-105t-93-28q17-49-6-89t-63-58v0q-30-15-64.5-13T636 133q-13-39-44-62.5t-67-27-68.5 15T408 123q-23-25-56.5-23t-62 20-46.5 47.5-11 61.5q-39-20-73-1.5t-53 54T86.5 358t26.5 67q-68 15-65.5 91.5T105 613q-48 64-22 109.5t85 44.5q6 30 17.5 48.5T211 844l-16 11q16 12 37.5 12t42.5-8q60 55 135 64.5T531 842q-57 46-111.5 29T329 815q7-12 9.5-26t-2.5-29l-16 11q-4-16-17.5-31.5T264 710q10-25 5-55t-25-56q33-26 35.5-57T265 478q33-16 48.5-39t16.5-63q5-4 10-4t10 10q32 78 54 71.5t13-85.5q-2-21 30.5-17.5T477 378q-10 92 11.5 105t49.5-93q8-31 35.5-16t19.5 32q-37 85-21.5 95t72.5-59q23-28 39.5-5.5T687 475q-57 66-51.5 82.5T713 533q5-3 11.5-5.5T738 524q-5 19-6 38t4 36q-43 41-42.5 108T744 836q-34-82-16.5-123.5T782 660q12 8 27 14t33 10q14 4 26.5 5t23.5 0q27 26 22 70.5T842 858q79-27 104-80.5t6-109.5q29-22 41-59t10-77.5-18-76.5-43-56z"/></svg>