<svg xmlns="http://www.w3.org/2000/svg" viewBox="-10 0 1034 1024"><path d="M393 547h233v55h72v68h48V561h49v109h58V547h62v-90H390q-14-49-51-81t-85-32v0q-60 0-102 47.5T110 506t42 114.5T254 668q50 0 88.5-34.5T393 547zm-183 1q-18 0-30.5-13T167 505q0-18 12.5-30.5T210 462t30.5 12.5T253 505q0 17-12.5 30T210 548zm94-326h233v123h52v-71h50v71h126v-52h-65v-57h65v-14h62v-89H302q-14-49-51.5-81T165 20v0q-59 0-101 47T22 182q0 67 42 114.5T165 344q50 0 88.5-34.5T304 222zM84 182q0-40 24-68t57-28q34 0 58 28t24 68q0 39-24 67t-58 28q-33 0-57-28t-24-67zm920 676v-68H488L366 680l-125 69v184l125 67 122-120h241v16h84v49h-84v57h275v-94h-88v-50zm-679 11q-12 0-21-8.5t-9-21.5q0-12 9-21t21-9 21 9 9 21q0 13-9 21.5t-21 8.5z"/></svg>