<svg xmlns="http://www.w3.org/2000/svg" viewBox="-10 0 1034 1024"><path d="M515 54q-94 0-176.5 35.5t-144 97-97 144.5T62 507q0 94 35.5 177t97 144.5 144 97T515 961t176.5-35.5 144-97T933 684t36-177q0-93-36-176t-97.5-144.5-144-97T515 54zm264 745q26-38 41.5-83.5t19-94.5-4-100.5T808 419q-15 31-44.5 50.5T697 489q-51 0-87-36t-36-87q0-29 12.5-54t33.5-42q-14-7-23-20t-11-28q-7 9-18 14t-24 5q-23 0-39-16t-16-39q0-14 6-25.5t16-18.5q-24-7-48-10.5t-48-2.5q25-7 51-10.5t53-3.5q81 0 152.5 30.5T796 229t84 124.5T911 506q0 44-9.5 85T875 669t-41.5 70-54.5 60z"/></svg>