<svg xmlns="http://www.w3.org/2000/svg" viewBox="-10 0 1034 1024"><path d="M935 610q41-41 50-90t-19-77-76.5-18.5T800 475q-8 8-15 16.5T773 508q-20-11-43-17.5t-49-8.5l-35-281 39-41-11-70-37 39-1-10-14 2 1 9-45-24 11 70 42 23 36 283q-15-1-30 .5t-30 3.5L436 190l19-48-35-61-20 48-6-11-12 8 6 10-52-7 36 61 51 7 169 292q-15 3-29.5 7t-29.5 9L310 315l4-51-52-48-4 54-13-10-9 10 10 9-49 8 52 48 52-9 217 184q-63 25-114.5 66t-74 92-5.5 107.5T415 888H176l-53 95h514L461 777q36-40 92.5-64T655 687q10 34 23.5 74.5t31.5 81 39.5 77.5 48.5 63h122q-33-35-61-75.5t-49.5-86-35.5-95T756 624q2 4 5 8.5t7 8.5q28 28 77 19t90-50z"/></svg>