<svg xmlns="http://www.w3.org/2000/svg" viewBox="-10 0 1034 1024"><path d="M993 873q-46 6-88.5 8t-83 .5-78-7T671 861q42-35 77-78.5t62.5-93 46.5-105T884 470q3-5 5-9.5t3-10.5q22 11 41.5 27t34.5 37l17-115-91-15q-1-4-3-8l-4-8q5-65-3.5-132.5T849 111q13-7 19.5-17.5T872 73t-13-16-24-7v-3.5l-1-3.5q-2-6-11-8t-18 1q-10 3-15 10t-2 14l.5.5.5 1.5q-10 7-14.5 16T773 96q3 11 14.5 17t26.5 6q8 56 8 116.5T810 351q-5 4-9 8.5t-7 9.5l-107-17-18 115q24-17 50.5-26.5T773 428v10.5l1 10.5q-18 57-43.5 108.5t-58 95-72.5 80-87 64.5q-47-28-87-64t-72.5-79.5-57.5-94T253 453q1-6 1-12.5V428q27 2 54 12t51 27l-17-115-108 17q-4-5-8.5-10t-8.5-9q-13-54-13-114.5t9-116.5q16 1 28-5.5T256 96q3-9-1-17.5T242 63q0-1 .5-2t1.5-1q2-7-2.5-14T227 36t-18.5-1-11.5 8q0 2-.5 3.5T196 50q-14 0-25 6t-14 17q-3 10 3 20t18 17q-26 57-34.5 125T139 369q-2 3-3.5 7t-2.5 9l-90 14 18 115q15-20 34-36t40-27l2 6 3 6q8 61 26.5 117.5t46.5 107 63.5 94T354 861q-35 8-72.5 13.5t-77.5 7-83-.5-88-8q61 45 123.5 70.5t123 34 119.5 2T513 953q54 20 113 26.5t120-2 123-34T993 873z"/></svg>