<svg xmlns="http://www.w3.org/2000/svg" viewBox="-10 0 1034 1024"><path d="M959 543zq-20-19-51.5-21T838 532.5 759 571t-81 64q-54-78-108.5-155.5T458 327.5t-117.5-146T215 43q183 281 153.5 316T65 154q63 78 131 148t140.5 134T485 559.5 640 675q-36 41-60 83t-34.5 80-7 69 22.5 50q21 20 55.5 21.5t75-13.5 84.5-45 85-73q42-42 70-87.5t41-87 10.5-75.5-23.5-54zM740 745q-14 17-19.5 32.5t.5 22.5q8 7 25.5-.5T782 774q18-17 25.5-35t-.5-25q-7-7-24-.5T748 737q-6-9-12.5-18T723 701q35-34 71-46t53 5q19 17 6.5 56T805 793t-75 52-57-4q-17-16-7.5-50.5T705 721q9 6 17.5 12t17.5 12zm98 80q-63 65-130.5 90t-99.5-6q-30-29-12.5-90.5T667 694q5 4 10.5 8t11.5 8q-40 46-52.5 92t9.5 67q24 23 74.5 4.5T818 806q48-49 64-100t-8-74v0q-23-22-69.5-6.5T712 685q-4-6-7.5-11.5T697 662q61-58 123-78.5t92 8.5q32 31 10.5 99T838 825zM215 43z"/></svg>