<svg xmlns="http://www.w3.org/2000/svg" viewBox="-10 0 1034 1024"><path d="M805 628q41 19 64.5 43t23.5 51q0 31-30.5 58.5t-83 47.5T657 860t-150 12-150.5-12-123-32-82.5-47.5-30-58.5q0-27 23-51t64-43q-77 25-123 61.5T39 768q0 37 37 70.5t100 58 148.5 39T507 950t182-14.5 148.5-39 100-58T974 768q0-42-46-78.5T805 628zM507 829q52 0 98.5-7.5t81-21T741 769t20-39q0-23-25.5-42T668 656q22 10 35.5 22.5T717 706q0 34-61.5 57.5T507 787t-148.5-23.5T297 706q0-15 13-27.5t36-22.5q-43 13-68.5 32T252 730q0 21 20 39t54.5 31.5 81 21T507 829zm-11-649zm6 556q67 0 121.5-47T708 567q-9 10-18.5 16t-17.5 7q-24 2-34-41t-5-116q-10 21-21.5 33T588 478q-17 0-32-23t-27.5-62.5-21-94T496 180q-3 64-11.5 118.5t-20.5 94-27.5 62.5-32.5 23q-8 0-16.5-6T371 455q2 63-7.5 100T332 590q-8-1-17.5-7T296 567q30 75 84.5 122T502 736zm41-648q0 20-14.5 34.5T494 137t-34-14.5T446 88t14-34 34-14 34.5 14T543 88z"/></svg>