<svg xmlns="http://www.w3.org/2000/svg" viewBox="-10 0 1034 1024"><path d="M988 724q-45-29-98-66.5T837 578q0-43 53.5-81.5T988 429q-51 1-107-16.5T807 358q-19-37 4.5-85t49.5-99q-43 30-84 57.5t-73 6.5-47.5-86.5T642 27v0q-25 51-57 85.5T516 147t-70-34-58-85q1 59-14.5 124T326 238q-31 21-72-6.5T169 174q26 51 52 99t7 85q-18 37-76.5 54.5T43 429q44 29 100.5 67.5T200 578q0 42-56.5 79.5T43 724q50-1 108.5 17t76.5 55q19 37-5.5 82T161 967q67-23 103.5-13t67.5 35h63q-32-27-58.5-66.5t-45.5-89-29.5-107T251 606q0-89 20.5-167.5T328 302t83.5-92T514 176v0q54 0 102 34t83.5 92T756 438.5 777 606q0 63-10.5 120.5t-29.5 107-45.5 89T633 989h54q30-22 67.5-32.5T866 970q-39-45-58.5-91t-.5-83q18-37 74-55t107-17zM583 417q14-17 22.5-41t8.5-51q0-54-30-91.5T512 196q-3 0-5.5-.5t-4.5.5v0q-39 5-65 42t-26 87q0 28 8.5 52t23.5 42q-40 7-63 41t-34.5 81.5-14 101.5-2.5 101h73l20 262h187l17-262h70q0-48-1-102t-11.5-102-34-82-66.5-41z"/></svg>