<svg xmlns="http://www.w3.org/2000/svg" viewBox="-10 0 1034 1024"><path d="M886 720q-16-53-58.5-95T727 551t-126.5-53.5T464 464q13 59 14 109.5t.5 97.5 2 93 17.5 97q16 54 50.5 82t72 30 70-23 43.5-77q42 39 76.5 38.5t56-26 28-70T886 720zM103 599q31-41 73-71.5t91.5-47.5 106-16.5T491 486q-29 67-37.5 125.5T441 720t-12.5 93-37.5 81q-31 39-70 48t-71.5-6-52.5-50.5-14-86.5q-48 15-77.5-.5T66 751t-1-73.5 38-78.5zM325 86q50 29 83 72t52 97 25 116.5 3 130.5q-136-78-201-51.5T124 436q-53-22-75-62.5T32 294t35-68 80-27q-33-51-27-85.5T155.5 64t76-10T325 86zm365 14q-53 13-92.5 50t-66 89.5-39.5 118T478 494q74-18 128-8t99 27 87.5 30 93.5 0q54-13 78.5-49t21-77-34.5-78.5-87-52.5q34-41 30.5-80t-32-67-75-40-97.5 1z"/></svg>