<svg xmlns="http://www.w3.org/2000/svg" viewBox="-10 0 1034 1024"><path d="M543 479v479q44 0 88-1.5t88-8 88-19.5 88-34l-64-767Q591 32 511 32t-319 96l-64 767q44 21 88 34t87.5 19.5 87.5 8 88 1.5V479H224v-96h575v96zm96 256h-32v-32h32zm0-64h-32v-32h32zm0-64h-32v-32h32zm64 128h-32v-32h32zm0-64h-32v-32h32zm0-64h-32v-32h32zm64 128h-32v-32h32zm0-64h-32v-32h32zm0-64h-32v-32h32zm-384-32h32v32h-32zm0 64h32v32h-32zm0 64h32v32h-32zm-64-128h32v32h-32zm0 64h32v32h-32zm0 64h32v32h-32zm-63-128h32v32h-32zm0 64h32v32h-32zm0 64h32v32h-32zm63-352q-6 0-10.5-4.5T304 335q0-6 4.5-11t10.5-5q7 0 11.5 5t4.5 11q0 7-4.5 11.5T319 351zm96 0q-6 0-11-4.5t-5-11.5q0-6 5-11t11-5q7 0 11.5 5t4.5 11q0 7-4.5 11.5T415 351zm96 0q-6 0-11-4.5t-5-11.5q0-6 5-11t11-5q7 0 11.5 5t4.5 11q0 7-4.5 11.5T511 351zm96 0q-7 0-11.5-4.5T591 335q0-6 4.5-11t11.5-5 11.5 5 4.5 11q0 7-4.5 11.5T607 351zm96 0q-7 0-11.5-4.5T687 335q0-6 4.5-11t11.5-5q6 0 11 5t5 11q0 7-5 11.5t-11 4.5z"/></svg>