<svg xmlns="http://www.w3.org/2000/svg" viewBox="-10 0 1034 1024"><path d="M496 778q49 45 105 81.5T719.5 923t130 42.5T988 985q-3-72-19-139.5T926.5 716 863 597.5 781 492q12 47 17.5 98.5T803 696l-16.5-16.5L769 663q-23-24-46.5-47T675 570l53-107-108 54-56-52-56-51 50-102-105 53q-28-25-56-49l-56-48 43-86-91 46q-26-21-51-41.5T192 147l36-74-80 40q-26-20-52.5-39.5T44 36q18 26 37 52t39 52l-41 82 76-37q19 24 39 49t41 50l-47 95 89-45q22 27 45.5 54t47.5 54l-56 115 110-55q25 27 50 54.5t51 54.5l-54 109 107-53q33 33 65.5 66t66.5 66q-58 2-111.5-3.5T496 778z"/></svg>