<svg xmlns="http://www.w3.org/2000/svg" viewBox="-10 0 1034 1024"><path d="M997 606q0-79-14-162.5t-43.5-160-77-141.5T748 33v0l-47 73q34 21 54.5 43t37.5 57q-12 16-21 36t-17 42q7 14 10.5 35t4.5 37l-72-11-62 67-50-101q-49 60-79.5 86T400 418l-29-88-102 19-13-53.5-37-70.5q7-27 27-51.5t56-46.5l-45-84q-62 44-106.5 107T78 287 37 443 24 606q69 35 115.5 72.5t73 76.5 36 80 5.5 83q21 12 43 22.5t47 17.5q35 9 71.5 13.5T490 976t76-4.5 74-13.5q33-8 62.5-21t56.5-29q0-41 11.5-81.5t39.5-79 74-74T997 606zm-622 56q-42 25-85 19.5T228 644q-10-18-8.5-39.5T233 563v0q19-1 41.5-5t46.5-13q23-9 44.5-21t38.5-25q9 5 16.5 12t12.5 16q19 31 1.5 71T375 662zm54 205q15-54 34-108.5T510 650v0q28 54 49 108.5T591 867q-40-13-80.5-13.5T429 867zm363-223q-18 32-61 37.5T645 662q-42-24-59-64t1-71q5-9 12.5-16t16.5-12q18 13 39 25t45 21 46.5 13 41.5 5v0q11 20 13 41.5t-9 39.5zM211 237q8-21 17-44.5t35-39.5zm593-21q-8-17-22-41t-32-37z"/></svg>