<svg xmlns="http://www.w3.org/2000/svg" viewBox="-10 0 1034 1024"><path d="M964 545q0-18-20.5-34T886 481t-88-25-112-17q-1-3-1-5.5V427q-1-3-1-6t-1-5v-2q0-3-.5-5.5t-.5-5.5v-1q-1-3-1.5-5.5t-.5-5.5v-1 0q-1-5-2-10.5t-2-10.5q63-6 116-17t91.5-25 59.5-30.5 21-34.5q0-21-27-39.5T862 189t-113.5-25.5T607 149q-2-43-23-75.5T531 31q-6-2-12.5-3T506 27h-11v0q-36 5-62 39.5T405 149q-76 5-140.5 15T153 189t-74 33.5T52 262q0 18 21.5 34.5t60 30.5 91.5 25 116 17q-2 8-3.5 16.5T334 402v1q0 3-.5 5.5t-.5 5.5q-1 0-1 .5v1.5q0 2-.5 5t-.5 6v1q-1 3-1 5.5t-1 5.5q-61 7-112 17.5T129.5 481t-57 30T52 545q0 21 26.5 39.5t73.5 33 111.5 25T403 658l4 51q-76 5-141 15t-112.5 25T79 782.5 52 822q0 24 36 45t97.5 36.5T330 928t178 9q94 0 177-9t145-24.5 98-36.5 36-45q0-21-27-39.5t-74-33-112-25T610 709l4-51q75-5 139.5-15.5t111-25 73-33T964 545zm-130-15q0 27-61 48.5T617 608l2-36h70v-39.5l-1-42.5v1-1 0-12 0-6l-1-6v-4q66 11 106.5 28.5T834 530zm0-284q0 24-48 43.5T660 320q-12-29-32.5-48.5T576 247q12-15 20-35t10-43q99 7 163.5 28.5T834 246zm-652 0q0-27 63-48t161-29q2 23 10 43.5t21 36.5q-28 5-47.5 24T358 320q-78-11-127-30.5T182 246zm0 284q0-21 40-39t105-29v5q0 3-.5 5.5t-.5 5.5v2q0 3-.5 5.5t-.5 5.5v14q-1 17-1 34v33h73l3 36q-95-8-156.5-29.5T182 530zm652 277q0 17-26 32t-70 26.5-103.5 18T508 890q-68 0-127-6.5t-103.5-18-70-26.5-25.5-32q0-27 64-48.5T409 729l7 103q37 13 96 12.5t90-12.5l7-103q98 8 161.5 29.5T834 807z"/></svg>