<svg xmlns="http://www.w3.org/2000/svg" viewBox="-10 0 1034 1024"><path d="M531 659q-29-50-83-40t-52 70q2 63 64 103.5t71 76.5q9-32 73-76t62-104q-2-59-53.5-70.5T531 659zm151-333q40 44 32 74.5t-36 43-63 5-48-38.5q-22-54 2.5-87t64.5-36q52-3 86-29.5t46.5-63 2-75T720 54q17 32 9.5 64T695 174q-11-54-44-88t-77-45-91.5 2.5T396 98q81-16 112 10t46 77q25 87-52.5 93.5T434 164q-38 24-45 72.5t45 97.5q33 32 23 68.5T407 439q-34 0-70-25.5T278 348t-24.5-90 34.5-98q-53 21-88 44.5T152 279q-10-44 8-80.5t55-55.5q-76 5-106.5 41.5t-25 81.5 40.5 87 90 58q49 14 55 47.5T254.5 514t-59 19-79.5-63q-4 84 17.5 137.5t60 91 89.5 67T388 832q48 32 70.5 55.5T481 942q0 53 52.5 52.5T586 936q0-32 27-56t79-57q44-28 81-61t64.5-67.5 43-68.5 15.5-64q0-103-58.5-149T682 326zM531 903q-7-28-41-57.5T418.5 782t-68-74-32.5-89q-1-48 23.5-76.5t59-35.5 71 8.5T531 571q24-41 59.5-56t69-7.5 58 36T744 619q1 47-29 87.5T646.5 782 573 847t-42 56zm386-770q-104 98-39 137t35 181q63-82 67-128.5t-14-77-39.5-54T917 133z"/></svg>