<svg xmlns="http://www.w3.org/2000/svg" viewBox="-10 0 1034 1024"><path d="M337 611q19 0 32-13.5t13-31.5q0-19-13-32t-32-13-32 13-13 32q0 18 13 31.5t32 13.5zm-217-45q0-44 16.5-83.5T182 414t68-46 83-18q-2-13-2.5-27t-.5-28q4-141 96.5-199.5T621 50t175.5 92.5T837 358q-12 50-28.5 98.5t-35 96-38.5 93-40 88.5q-37 82-4 87t38-21l167 3q-2 105-80.5 147T656 973.5t-127.5-96T543 665q20-44 38-87.5t35-87 31.5-86.5 27.5-86q15-49-22.5-79t-80-25.5T506 265t16 152q12 30 20.5 66t8.5 72v11q0 45-16.5 84t-46 68.5-69 46.5-84.5 17q-44 0-83.5-17t-69-46.5-46-68.5-16.5-84z"/></svg>