<svg xmlns="http://www.w3.org/2000/svg" viewBox="-10 0 1034 1024"><path d="M380 985q68 0 141.5-.5T654 984q77-57 86.5-120.5T717 749t-94.5-80T497 652q57 43 65 96t-15.5 102-69.5 86-97 49zm364-787v4q59 139 24.5 210T671 485.5 550.5 423 506 225q-31 75-75.5 81T352 275.5 305.5 174 324 43v0q-138 79-141 163.5t39.5 169 85 168.5-3.5 162q-27 45-65.5 38.5T165 698t-58.5-105.5T87 453q-37 95-44 176t9.5 147.5T105 895t85 89q3 1 35 1h82q-5-1-10-3l-10-4q-32-14-34-74.5T345 802q-9 58 29.5 64t71-36.5T478 697t-86-223v0q64 21 116.5 44t96 51.5T683 633t64 79q40-36 68-93t37-118q32 59 40 129.5t-10.5 138-65 125T693 984h79q116-26 169-110t47.5-197T921 436.5 744 198z"/></svg>