<svg xmlns="http://www.w3.org/2000/svg" viewBox="-10 0 1034 1024"><path d="M345 273q-28 5-56.5 40T278 366l146 146-146 146q-22 22 22 66t66 22l146-146 146 146q22 22 66-22t22-66L600 512l146-146q22-22-22-66t-66-22L512 424 366 278q-4-4-9.5-5.5t-11.5.5zM512 32q-99 0-186.5 37.5t-153 103-103 153T32 512t37.5 186.5 103 153 153 103T512 992t186.5-37.5 153-103 103-153T992 512t-37.5-186.5-103-153-153-103T512 32zm0 120q75 0 140.5 28.5t114 77 77 114T872 512t-28.5 140.5-77 114-114 77T512 872t-140.5-28.5-114-77-77-114T152 512t28.5-140.5 77-114 114-77T512 152z"/></svg>