<svg xmlns="http://www.w3.org/2000/svg" viewBox="-10 0 1034 1024"><path d="M914 150q-27 0-45.5 19T850 214q0 16 7 29.5t19 22.5L775 425q16 8 26 24t10 36q0 28-19.5 48T744 553q-29 0-48.5-20T676 485q0-26 16.5-45t41.5-22l-70-163q23-5 38-24t15-43q0-29-20-49t-49-20q-28 0-48.5 20T579 188q0 22 12.5 39.5T624 252l-89 152q22 7 36.5 25.5T586 472q0 30-21 51t-51 21-51-21-21-51q0-22 13-40t33-26l-88-153q19-8 32-25.5t13-39.5q0-29-20-49t-49-20-49 20-20 49q0 24 14.5 42.5T359 255l-71 163q24 4 40 23t16 44q0 28-20 48t-48 20-48-20-20-48q0-20 10.5-36.5T246 424L144 266q12-9 19-22.5t7-29.5q0-26-18.5-45T107 150q-27 0-45.5 19T43 214q0 27 18.5 45.5T107 278h4l90 490q-41 1-40.5 40.5T203 848h13v1h588v-1h15q42 0 42-40t-42-40v0l90-490h5q26 0 45-18.5t19-45.5q0-26-19-45t-45-19z"/></svg>