<svg xmlns="http://www.w3.org/2000/svg" viewBox="-10 0 1034 1024"><path d="M181 779h77v33H131v-33l63-56q5-4 8-8t5-8q2-3 3-7t1-8q0-6-2-11t-6-9q-4-3-9.5-5t-12.5-2q-5 0-11 1t-12 3q-6 3-13 6t-14 8v-39q8-2 15.5-4t14.5-3q8-2 15-2.5t14-.5q16 0 28 3.5t21 10.5 13 16.5 4 21.5q0 8-1.5 14.5T249 713t-11.5 14.5T218 746zm697 66q9 2 16 6t11 9q5 6 7 13t2 16q0 13-5 23t-14 17q-10 6-24.5 9.5T836 942q-6 0-13-.5t-14-1.5q-6-1-13-2.5t-13-4.5v-34q6 3 12.5 5.5T808 908q6 2 12 2.5t12 .5q9 0 16-1.5t12-4.5 7-7.5 2-10.5q0-5-2.5-9.5T860 869q-5-3-12.5-4.5T831 863h-18v-29h19q8 0 14.5-1t10.5-4 6-7 2-9-2-9-6-7-9.5-4-13.5-1q-5 0-10.5.5T812 794q-5 1-10.5 3t-11.5 4v-33q7-1 13.5-2.5T817 763q6-1 12.5-1.5t12.5-.5q17 0 30 3t21 8q9 6 13 14t4 20q0 7-2 13.5t-6 11.5-10 8.5-14 5.5zM471 461h40V348l-41 8v-30l41-9h43v144h40v31H471zm519 529V703H703V256H351v319H32v415z"/></svg>