<svg xmlns="http://www.w3.org/2000/svg" viewBox="-10 0 1034 1024"><path d="M511 164q-84 0-158.5 32t-130 87.5-88 130T102 572q0 85 32.5 159.5t88 130 130 87.5T511 981q85 0 159.5-32t130-87.5 87.5-130T920 572q0-84-32-158.5t-87.5-130-130-87.5T511 164zm0 747q-70 0-131.5-26.5t-107-72.5T200 704t-27-132 27-131 72.5-107 107-72.5T511 235t131.5 26.5T750 334t72.5 107T849 572t-26.5 132T750 812t-107.5 72.5T511 911zm72-349v-2q-2-8-5.5-15.5T569 530l94-255-152 226q-4 0-8 .5t-8 1.5q-30 6-46.5 31.5T438 590t32 47 56 11q12-3 22.5-9.5T567 623l261 40zM340 23h323v120H340z"/></svg>