<svg xmlns="http://www.w3.org/2000/svg" viewBox="-10 0 1034 1024"><path d="M943 631q-11-10-24-16.5t-28-8.5L657 417q-15-15-36-19.5t-46 .5q-2-6-5-11t-7-9l-108-87 1-1q-3-2-6-4.5t-7-4.5l-48-39q-11-11-27.5-13t-35.5 4q-1-5-3-10t-6-8l-93-75q9-22 7.5-42T224 66q-21-20-58-11.5T96 96q-33 32-41.5 69.5T66 224q12 12 32 13.5t42-7.5l75 93q3 4 8 6t10 3q-6 19-4 35.5t13 27.5l44 53q1 2 2 3.5t3 3.5l87 108q4 4 9 7t11 5q-5 25-.5 46t19.5 36l189 234q2 15 8.5 28t16.5 24q40 40 114 22.5T884 884q64-65 81.5-139T943 631zM741 801q28-28 60.5-37.5T854 768q1 2 1.5 4.5t1.5 5.5q-7 2-13.5 6.5T831 795q-16 16-20.5 34.5T816 858q2 2 4.5 3.5t5.5 2.5l-4.5 4.5-4.5 4.5q-28 29-60.5 38t-52.5-5q-9-21 1-50t36-55z"/></svg>