<svg xmlns="http://www.w3.org/2000/svg" viewBox="-10 0 1034 1024"><path d="M509 49q-94 0-177.5 36T186 183 88 328.5 52 507q0 94 36 177.5T186 830t145.5 98T509 964q95 0 178-36t145.5-98 98-145.5T966 507q0-95-35.5-178.5T833 183 687.5 85 509 49zm0 880q-87 0-164-33.5T210.5 805 120 671 87 506q0-87 33-164t90.5-134.5T345 117t164-33q88 0 165 33t134 90.5T898.5 342 932 506q0 88-33.5 165T808 805t-134 90.5T509 929zm309-388-125 33-50-43 25-24-23-23 48-42 123 32-84-66 96-84-120 41-15-109-33 125-63 22-9-35-34 9-12-63 92-92-102 42-24-125-25 126-99-40 89 90-12 62-33-9-9 34-60-20-34-126-14 109-121-41 97 84-85 66 123-32 47 41-23 24 25 25-48 42-125-34 87 67-96 84 121-41 15 106 34-123 58-20 8 32 33-9 12 62-89 90 99-40 25 126 24-125 102 42-92-92 12-63 34 9 9-32 60 20 33 123 15-106 122 42-96-85zM634 222zm0 569z"/></svg>