<svg xmlns="http://www.w3.org/2000/svg" viewBox="-10 0 1034 1024"><path d="M446 638q30-46 22.5-85t-35-57.5-66-9T296 546v0q-45-50-94-63t-83 4.5-42.5 62T105 658q-38 26-52.5 70t-4 84T94 877.5t96 14.5q4 59 50 78t95.5 8.5 82.5-44 13-80.5q129-45 108-114.5T446 638zM298 816q-38 0-64-26.5T208 726t26-63.5 64-26.5q37 0 63.5 26.5T388 726t-26.5 63.5T298 816zm578-382zq19-58 6.5-103.5t-42-64-68.5-5-73 72.5q-39-19-80.5-15.5T550 345t-31.5 64.5T551 509q-37 50-32.5 91.5t31.5 67 67 31.5 75-15q26 46 64.5 51.5t70-13 47.5-54-3-72.5q51 3 78.5-20.5t29.5-54-23-57.5-80-30zM774 591q-29 17-62.5 8T661 560q-17-29-8-62.5t38-50.5q30-17 63.5-8t50.5 38q17 30 8 63.5T774 591zM397 199q49-84-1-135.5T264 81q-31-32-68.5-38.5T129 52t-41.5 53.5T94 200q-47 16-52.5 57.5t13.5 79 53.5 57T176 386q64 94 115.5 62t62.5-97q87 29 112.5-45.5T397 199zM276 309q-30 8-57-7.5T184 256t7.5-57 45.5-35 57 7.5 35 45.5-7.5 57-45.5 35zm445 535q33-45-8.5-71.5T658 819q-36-46-66.5-13t25.5 67q-71 36-28 67.5t72-13.5q6 75 55.5 48.5T719 906q60 10 60.5-27T721 844zm-44 54q-9 0-16-6.5t-7-16.5q0-9 7-15.5t16-6.5 16 6.5 7 15.5q0 10-7 16.5t-16 6.5zm-14-747q64-14 33-57t-72 9q0-52-48-44.5T559 129v0q-52-1-41 43t49 24q-20 62 29 68t38-59q49 31 63.5 0T663 151zm-58 30q-10 0-16.5-6.5T582 159q0-10 6.5-16.5T605 136q9 0 15.5 6.5T627 159q0 9-6.5 15.5T605 181z"/></svg>