<svg xmlns="http://www.w3.org/2000/svg" viewBox="-10 0 1034 1024"><path d="m899 981-58-185h-78V419l122-151V46H756v105h-78V46H548v105h-77V46H341v105h-77V46H135v222l123 151v377h-79l-57 185zM488 374l1.5 1.5 1.5 1.5v0l1 1 .5 1 1.5 2v0q1 1 2 2.5t2 2.5l1.5 1.5.5.5q0 1 .5 1.5t.5 1.5q1 0 1.5.5t.5 1.5.5 1.5l.5.5 1.5 1.5.5 1.5.5 1 .5 1q1 1 1.5 2l1.5 3v0-1q1-1 1.5-2t1.5-2l.5-.5.5-1.5.5-1 1.5-1q0-1 .5-1.5t.5-1.5l.5-.5 1.5-1.5.5-.5.5-1.5q1 0 1-.5t1-1.5l.5-1 1.5-1v-1h1q0-1 .5-2t1.5-1v-.5l1-.5q1-1 2.5-3t3.5-3v0q40-40 94.5-39t86.5 39v0l2 2 1 2v0l2 2 1 2h1q0 1 .5 2t1.5 2l.5.5.5.5q0 1 .5 1.5t.5 1.5q1 0 1 .5v1.5q1 0 1 1t1 1q0 1 .5 1.5l.5.5q0 1 .5 1.5t.5 1.5l.5 1 .5 1q0 1 .5 1.5t.5 1.5l.5 1 .5 1q0 1 .5 1.5l.5.5v2l1 1v3q1 0 1 1v2l.5.5.5 1.5v1.5l1 1.5v4l1 2v3l1 2v10l1 2v12q-2 49-31 84t-67 68-76 69.5-58 87.5q-21-51-60.5-86.5t-78-67.5-66.5-67.5-26-87.5v-11q1-1 1-2v-4l.5-2 .5-2v-1q0-1 .5-2t.5-2v-2l.5-2 .5-2v-.5l1-.5v-2l1-2v-1q0-1 .5-2t.5-2l.5-.5.5-.5q2-6 4.5-11.5T297 392v0q1-1 1.5-2t.5-2h1v-1q1 0 1.5-1t.5-2l.5-.5.5-.5q0-1 1-1.5t1-1.5l.5-.5.5-.5 1.5-1.5.5-1.5h.5l.5-1q33-38 86.5-41.5T488 374z"/></svg>