<svg xmlns="http://www.w3.org/2000/svg" viewBox="-10 0 1034 1024"><path d="M920 490q-20-51-47-43t-5 63l4 10q-41 10-61.5-5.5T776 468q5-32 6-63.5t-3-62.5q-2-15 5.5-24t17.5-17q12 0 24-3.5t23-11.5q15 10 32.5 7t28.5-17q12-15 9-33.5T902 213l-3-1.5-2-1.5q47-124 6.5-156T757 104q-1-1-2-1.5t-2-1.5q-14-11-32.5-8.5T690 110q-11 14-8.5 32.5T698 172q-7 22-2.5 42.5T712 252q0 10-4.5 19T692 288q-13 11-27.5 24.5T635 342q-33-17-59.5-42.5T527 243l4-2q55-23 42-48t-64-4q-24-58-48.5-43.5T457 211q-61 26-48.5 51.5t70.5.5l4-1q21 42 49.5 72.5T598 387q-26 35-48.5 75.5T511 547q-52-41-102.5-32T303 567l-1-2q-34-54-58.5-40t10.5 70v0q-46 30-34.5 56t65.5-8q29 46 54 33t-7-63l-4-7q55-24 95-15t64 57q-2 14-2.5 28.5T484 706q-24 41-54.5 79T363 847t-76 28.5-82-20.5q-35-21-60-67.5T112.5 690t5.5-96.5 54-64.5q-67 10-96 62T48 708t28.5 128 72.5 96q52 38 115 43t126-15 118.5-62.5T601 797q14-13 27.5-28.5T654 737q42 15 70 50t39 83h-3q-60-4-59 24.5t55 31.5q-4 64 24.5 61.5T812 930q67 4 67-24t-63-32l-7-1q4-71-27-121.5T704 662q17-28 30.5-58.5T758 542q22 26 54.5 31t76.5-8q23 57 49.5 48t2.5-71q51-20 44.5-48t-65.5-4z"/></svg>