<svg xmlns="http://www.w3.org/2000/svg" viewBox="-10 0 1034 1024"><path d="M494 318q-1-62-17-116T428 91q13-33 48.5-41.5T535 43q15 76 18.5 140T550 320zm509 201q-1-83-29-149.5T898 259t-111-61.5-135-2.5q-25 6-49.5 15.5T555 233q0 21-1.5 42.5T550 320l-56-2q0-21-2-40.5t-6-38.5q-26-15-53-25t-55-16q-18-4-36-5.5t-35-1.5v0q-59 2-111.5 28t-92 70T41 394 19 527q1 83 29.5 161t77 142T238 938t136 58q36 8 81 5.5t70-26.5q24 20 70 23.5t82-4.5q72-16 132-61.5t103.5-110 67.5-143 23-160.5zM693 418q-7 62-39.5 92T556 531q-15-54 29.5-95.5T693 418zm-172-85q47 47 42 91t-51 86q-56-36-49.5-96.5T521 333zm-53 178q-60 26-99 5t-61-79q55-39 108-10t52 84zm-199 66q39-55 99-45.5t77 61.5q-48 45-92 38.5T269 577zm38 182q-6-67 46-98.5t99-3.5q-8 66-45.5 89T307 759zm189 91q-46-42-50.5-86t41.5-91q52 20 59 80t-50 97zm180-93q-61 12-99-10.5T529 659q47-30 99.5.5T676 757zM553 584q27-48 87.5-46t88.5 63q-48 40-92.5 38T553 584z"/></svg>