<svg xmlns="http://www.w3.org/2000/svg" viewBox="-10 0 1034 1024"><path d="M858 130zq-15-14-32.5-25T788 84q-77-38-167-38.5T442.5 78 274 174 137 326q-2 2-3 4t-2 5q0-1 1-1.5t1-1.5q-30 43-43 92.5T82 524t25 97 59 85q41 41 92 62.5t104.5 23T468 775t95-55q-7 10-14.5 19.5T532 758q-43 43-96.5 64T326 843t-110-21-97-64q-26-27-44.5-58T46 636q2 49 15 94t36.5 84.5 57.5 71 78 53.5q78 39 168 39t179-33 169-96 137-152q50-77 72.5-158T977 382.5t-34-141T858 130zm-60 200q-3 44-27 90t-63.5 86.5-91 72.5T507 628q-1 1-2.5 1t-2.5 1l2-1q-57 19-105.5.5T335 561q-17-52 12.5-111t88.5-93q-7 2-13.5 5t-13.5 6q-63 32-111.5 93.5T266 578q6 17 15.5 30.5T304 632q-45-15-70-50.5T212 495q2-53 31-102t73.5-89.5T417 232t114-49q50-15 95-13t80 16.5 58.5 41T795 288v0q2 9 2.5 19.5t.5 22.5zm-310 35q16 13 11 36t-28 42q-24 19-51.5 23.5T376 458q-16-14-11-36.5t29-42.5q23-19 50.5-23t43.5 9z"/></svg>