<svg xmlns="http://www.w3.org/2000/svg" width="24" height="24" viewBox="0 0 24 24"><path d="M12 14a2 2 0 1 0 0-4 2 2 0 0 0 0 4Z"/><path clip-rule="evenodd" d="M12 22C6.477 22 2 17.523 2 12S6.477 2 12 2s10 4.477 10 10-4.477 10-10 10Zm-2.97-2.57Q9 19.22 9 19a3 3 0 1 1 5.97.43 8.03 8.03 0 0 0 4.46-4.46q-.21.03-.43.03a3 3 0 1 1 .43-5.97 8.03 8.03 0 0 0-4.46-4.46q.03.21.03.43a3 3 0 1 1-5.97-.43 8.03 8.03 0 0 0-4.46 4.46A3 3 0 0 1 5 9a3 3 0 1 1-.43 5.97 8.03 8.03 0 0 0 4.46 4.46Z" fill-rule="evenodd"/></svg>