<svg xmlns="http://www.w3.org/2000/svg" width="24" height="24" viewBox="0 0 24 24"><path d="M10 5a1 1 0 1 1-2 0 1 1 0 0 1 2 0ZM9 9a1 1 0 1 0 0-2 1 1 0 0 0 0 2Zm1 10a1 1 0 1 1-2 0 1 1 0 0 1 2 0Zm-1-7a1 1 0 1 0 0-2 1 1 0 0 0 0 2Zm4-7a1 1 0 1 1-2 0 1 1 0 0 1 2 0Zm-1 4a1 1 0 1 0 0-2 1 1 0 0 0 0 2Zm1 10a1 1 0 1 1-2 0 1 1 0 0 1 2 0Zm2-13a1 1 0 1 0 0-2 1 1 0 0 0 0 2Zm1 2a1 1 0 1 1-2 0 1 1 0 0 1 2 0Zm-1 12a1 1 0 1 0 0-2 1 1 0 0 0 0 2Z"/><path clip-rule="evenodd" d="M8 1a3 3 0 0 0-3 3v16a3 3 0 0 0 3 3h8a3 3 0 0 0 3-3V4a3 3 0 0 0-3-3zm8 2H8a1 1 0 0 0-1 1v16a1 1 0 0 0 1 1h8a1 1 0 0 0 1-1V4a1 1 0 0 0-1-1Z"/></svg>