<svg xmlns="http://www.w3.org/2000/svg" width="16" height="16" viewBox="0 0 16 16"><path d="M4.377.002a.344.344 0 0 0-.344.342v6.064c0 .197.245.339.473.385.444.094.543-.047.652-.197l.016-.02c.166-.247.68-.765.687-.771a4.26 4.26 0 0 1 3.037-1.25c1.147 0 2.224.444 3.03 1.25a4.25 4.25 0 0 1 1.256 3.02 4.24 4.24 0 0 1-1.25 3.019 4.34 4.34 0 0 1-3.047 1.25 4.14 4.14 0 0 1-2.16-.598L6.73 8.81c0-.491.214-1.029.573-1.432A2.1 2.1 0 0 1 8.89 6.66c.594 0 1.148.226 1.564.635.41.406.639.95.639 1.527a2.18 2.18 0 0 1-2.207 2.198c-.238 0-.673-.107-.692-.11-.25-.075-.355.274-.39.389-.134.44.07.528.11.54.396.126.659.147 1.003.147a3.173 3.173 0 0 0 3.168-3.17c0-1.734-1.422-3.142-3.166-3.142-.856 0-1.66.327-2.264.918-.575.566-.902 1.318-.902 2.068v.02c-.003.094-.003 2.306-.006 3.03l-.004-.003c-.328-.363-.651-.917-.867-1.486-.084-.222-.276-.185-.535-.104-.125.034-.469.142-.39.395h.001a5.238 5.238 0 0 0 9.783.354 5.2 5.2 0 0 0 .412-2.038c0-.706-.137-1.394-.412-2.037a5.2 5.2 0 0 0-1.12-1.666 5.2 5.2 0 0 0-1.667-1.121 5.2 5.2 0 0 0-2.037-.414c-.716 0-1.431.145-2.066.414-.51.216-1.372.769-1.875 1.29l-.002.003V.984h7.24c.262-.003.262-.373.262-.492 0-.122 0-.486-.266-.49zm4.576 1.713v.002c-.938 0-1.939.19-2.67.506a.2.2 0 0 0-.133.18.75.75 0 0 0 .069.337c.047.116.166.425.4.334a6.7 6.7 0 0 1 2.334-.443c.856 0 1.688.168 2.469.496.622.263 1.206.643 1.844 1.193q.07.06.146.06c.125 0 .245-.122.348-.237.169-.191.287-.35.119-.508a6.9 6.9 0 0 0-2.1-1.358 7.3 7.3 0 0 0-2.826-.562zM8.146 7.76q-.119 0-.275.154c-.18.181-.219.306-.125.406l.588.584-.584.584q-.079.076-.074.157v.001c0 .106.095.201.154.254l.02.02q.15.146.28.146a.18.18 0 0 0 .132-.05c.044-.041.537-.543.588-.59l.552.549c.05.056.106.088.172.088q.134-.001.285-.157c.238-.244.119-.374.063-.437l-.559-.559.584-.588c.128-.137.016-.283-.097-.396-.162-.162-.322-.207-.422-.114l-.58.583-.588-.588a.16.16 0 0 0-.114-.047zM2.393 9.537q-.086.003-.188.02c-.112.019-.459.073-.428.32v.006a7.27 7.27 0 0 0 2.04 3.994 7.27 7.27 0 0 0 10.288 0l.06-.06c.068-.085.134-.225-.16-.516q-.166-.168-.292-.203a.22.22 0 0 0-.223.052l-.056.055a6.3 6.3 0 0 1-2.012 1.358 6.3 6.3 0 0 1-2.463.496 6.3 6.3 0 0 1-4.477-1.854 6 6 0 0 1-1.355-2.012c-.288-.713-.38-1.247-.412-1.422l-.008-.037c-.03-.154-.144-.201-.314-.197z"/></svg>