<svg xmlns="http://www.w3.org/2000/svg" width="16" height="16" viewBox="0 0 16 16"><path d="m4.64 3.205.003.002H.002v9.844h4.771q.664-.001 1.288-.166a3.4 3.4 0 0 0 1.119-.508q.485-.344.777-.893c.19-.363.287-.79.287-1.29 0-.619-.143-1.143-.443-1.58-.3-.436-.748-.742-1.354-.917.444-.213.774-.481 1.002-.812q.339-.497.338-1.242 0-.692-.224-1.157a1.94 1.94 0 0 0-.643-.75 2.8 2.8 0 0 0-.994-.406 6 6 0 0 0-1.285-.125zM10.444 4v.973h3.993V4zm-8.277.88h2.025q.287 0 .555.05c.184.03.34.088.479.172q.209.121.334.343c.08.147.123.339.123.567 0 .413-.12.713-.37.894q-.376.276-.953.276V7.18H2.166zm10.367.84q-.819 0-1.486.292c-.45.194-.831.458-1.156.793a3.5 3.5 0 0 0-.748 1.193q-.262.69-.262 1.492c0 .55.087 1.06.256 1.52q.26.693.724 1.187a3.2 3.2 0 0 0 1.15.766c.454.178.957.27 1.52.27.804 0 1.497-.188 2.063-.557.575-.37.993-.98 1.271-1.838h-1.724q-.098.33-.522.63c-.284.2-.627.302-1.021.302q-.826 0-1.268-.432v-.002c-.296-.284-.484-.82-.484-1.379h5.146a5.1 5.1 0 0 0-.137-1.588 3.8 3.8 0 0 0-.625-1.351 3.2 3.2 0 0 0-1.113-.946c-.453-.237-.98-.351-1.584-.351zm-.06 1.477c.478 0 .874.14 1.105.397.234.259.406.629.453 1.129h-3.187a2.3 2.3 0 0 1 .092-.47 1.4 1.4 0 0 1 .261-.503q.192-.236.496-.395.31-.159.78-.158zM2.164 8.658h2.352q.704-.001 1.13.322.427.33.428 1.088c0 .26-.04.471-.129.637a1.05 1.05 0 0 1-.351.395c-.143.1-.316.165-.51.209a2.7 2.7 0 0 1-.605.062v-.004H2.164z"/></svg>