<svg xmlns="http://www.w3.org/2000/svg" width="16" height="16" viewBox="0 0 16 16"><path d="M1.5 0C.675 0 0 .675 0 1.5v13c0 .825.675 1.5 1.5 1.5h13c.825 0 1.5-.675 1.5-1.5v-13c0-.825-.675-1.5-1.5-1.5zm4.402 2H7.87c2.156 0 3.881 1.609 3.881 3.75.028.4.392.75.8.75h.673c.43 0 .773.453.773.88v2.745H14A3.883 3.883 0 0 1 10.104 14H5.902C3.746 14 2 12.266 2 10.125v-4.25C2 3.734 3.746 2 5.902 2zM6 5c-.55 0-1 .45-1 1s.45 1 1 1h2c.55 0 1-.45 1-1s-.45-1-1-1zm0 4c-.55 0-1 .45-1 1s.45 1 1 1h4c.55 0 1-.45 1-1s-.45-1-1-1z"/></svg>