<svg xmlns="http://www.w3.org/2000/svg" width="16" height="16" viewBox="0 0 16 16"><path d="M8-.002C6.229.017 4.8 1.474 4.8 3.27c0 .932.38 1.77 1 2.367.485.465 1.18 1.525 1.4 2.367-.47-.277-.903-.59-1.153-.856a3.2 3.2 0 0 0-2.342-1.011C1.918 6.137.471 7.6.471 9.408s1.446 3.272 3.234 3.272c.923 0 1.752-.397 2.342-1.024.263-.279.726-.627 1.223-.916-.047 2.308-1.15 4.003-2.272 4.67V16h6v-.59c-1.122-.668-2.222-2.363-2.27-4.67.499.29.961.637 1.223.916a3.2 3.2 0 0 0 2.342 1.024c1.787 0 3.234-1.465 3.234-3.272s-1.445-3.27-3.232-3.271h-.002a3.2 3.2 0 0 0-2.34 1.011c-.25.265-.683.58-1.152.856.22-.842.915-1.902 1.398-2.367a3.27 3.27 0 0 0 1-2.367C11.2 1.475 9.771.017 8-.002z"/></svg>