<svg xmlns="http://www.w3.org/2000/svg" width="16" height="16" viewBox="0 0 16 16"><path d="m9.998-.002-.191 1.053q-.19.029-.371.074l-.58-.898-.924.382.224 1.045a4 4 0 0 0-.314.211l-.88-.607-.706.707.607.879a5 5 0 0 0-.21.314l-1.046-.224-.382.923.898.58a5 5 0 0 0-.074.372L4.996 5v1l1.053.191q.029.189.074.372l-.898.58.382.923 1.045-.224q.099.162.211.314l-.607.88.707.706.879-.607q.152.112.314.21l-.224 1.046.923.382.58-.898q.184.044.372.074l.191 1.053h1l.191-1.053q.189-.029.372-.074l.58.898.923-.382-.224-1.045a4 4 0 0 0 .314-.211l.88.607.706-.707-.607-.879q.112-.152.21-.314l1.046.224.382-.923-.898-.58a5 5 0 0 0 .074-.372L16 6V5l-1.053-.191a4 4 0 0 0-.074-.372l.898-.58-.382-.923-1.045.224a4 4 0 0 0-.211-.314l.607-.88-.707-.706-.879.607a5 5 0 0 0-.314-.21l.224-1.046-.923-.382-.58.898a5 5 0 0 0-.372-.074l-.191-1.053zm.502 3.326a2.177 2.177 0 1 1-.002 4.353 2.177 2.177 0 0 1 .002-4.353zM3 9l-.184 1.096a2.4 2.4 0 0 0-.535.22l-.902-.644-.707.707.644.902a2.5 2.5 0 0 0-.22.535L0 12v1l1.096.184q.08.283.22.535l-.644.902.707.707.902-.644q.253.14.535.22L3 16h1l.184-1.096q.283-.08.535-.22l.902.644.707-.707-.644-.902q.14-.252.22-.535L7 13.002v-1l-1.096-.184a2.4 2.4 0 0 0-.22-.535v-.002l.644-.902-.707-.707-.902.644a2.5 2.5 0 0 0-.535-.22L4 9zm.5 2.5a1 1 0 1 1 0 2 1 1 0 0 1 0-2z"/></svg>