<svg xmlns="http://www.w3.org/2000/svg" width="16" height="16" viewBox="0 0 16 16"><path d="M8 0a8 8 0 1 0 0 16A8 8 0 0 0 8 0zm0 1.5a6.5 6.5 0 1 1 0 13 6.5 6.5 0 0 1 0-13zM3.5 5a.5.5 0 0 0 0 1h2a.5.5 0 0 0 0-1zm7 0a.5.5 0 0 0 0 1h2a.5.5 0 0 0 0-1zM4.475 7A.5.5 0 0 0 4 7.5v1a.5.5 0 0 0 1 0v-1a.5.5 0 0 0-.5-.5zm7 0a.5.5 0 0 0-.475.5v1a.5.5 0 0 0 1 0v-1a.5.5 0 0 0-.5-.5zm-7 3a.5.5 0 0 0-.475.5v1a.5.5 0 0 0 1 0v-1a.5.5 0 0 0-.5-.5zm7 0a.5.5 0 0 0-.475.5v1a.5.5 0 0 0 1 0v-1a.5.5 0 0 0-.5-.5zm-3.473 2.002c-.401 0-1.385.048-1.856.52a.5.5 0 0 0 .708.707C6.924 13.157 7.314 13 8 13s1.074.157 1.146.229a.5.5 0 0 0 .354.146h.002a.5.5 0 0 0 .354-.854c-.472-.47-1.453-.519-1.854-.519z"/></svg>