<svg xmlns="http://www.w3.org/2000/svg" width="16" height="16" viewBox="0 0 16 16"><path d="M2.5 0A2.507 2.507 0 0 0 0 2.5v8a2.51 2.51 0 0 0 2 2.45V3c0-.55.45-1 1-1h9.95a2.51 2.51 0 0 0-2.45-2zm3 3A2.507 2.507 0 0 0 3 5.5v8C3 14.875 4.125 16 5.5 16h8c1.375 0 2.5-1.125 2.5-2.5v-8C16 4.125 14.875 3 13.5 3zm1 2a1.5 1.5 0 1 1-.001 3.001A1.5 1.5 0 0 1 6.5 5zm6 0a1.5 1.5 0 1 1-.001 3.001A1.5 1.5 0 0 1 12.5 5zm-3 3a1.5 1.5 0 1 1-.001 3.001A1.5 1.5 0 0 1 9.5 8zm-3 3a1.5 1.5 0 1 1-.001 3.001A1.5 1.5 0 0 1 6.5 11zm6 0a1.5 1.5 0 1 1-.001 3.001A1.5 1.5 0 0 1 12.5 11z"/></svg>