<svg xmlns="http://www.w3.org/2000/svg" width="16" height="16" viewBox="0 0 16 16"><path d="M14.25 0a.75.75 0 0 0-.531.22L10.56 3.38a8.8 8.8 0 0 0-2.563-.377c-3.489 0-6.514 2.032-8 5A9.2 9.2 0 0 0 2.7 11.237L.22 13.721a.75.75 0 0 0 1.058 1.06l13.5-13.5A.75.75 0 0 0 14.25 0zm-1.281 4.531-1.084 1.084.058.037c.94.6 1.738 1.403 2.336 2.348a7.6 7.6 0 0 1-2.336 2.348 7.32 7.32 0 0 1-5.724.933l-1.201 1.201A8.8 8.8 0 0 0 8 13c3.489 0 6.514-2.032 8-5a9.14 9.14 0 0 0-3.031-3.469zM6.5 5c.66 0 1.22.427 1.422 1.02L6.02 7.922A1.5 1.5 0 0 1 6.5 5zm-2.26.537c-.156.427-.24.888-.24 1.37 0 .857.27 1.653.73 2.304l-.953.951A7.6 7.6 0 0 1 1.721 8a7.6 7.6 0 0 1 2.336-2.348q.09-.059.183-.115zm7.57.152-5.027 5.028A4 4 0 0 0 11.81 5.69z"/></svg>