<svg xmlns="http://www.w3.org/2000/svg" width="16" height="16" viewBox="0 0 16 16"><path d="M2.25 0C1.561 0 1 .561 1 1.25v13.5c0 .689.561 1.25 1.25 1.25h11.5c.689 0 1.25-.561 1.25-1.25V5c0-.224-.067-.616-.658-1.422a14 14 0 0 0-1.363-1.557A14 14 0 0 0 11.422.658C10.616.068 10.224 0 10 0zm0 1H10v3.5a.5.5 0 0 0 .5.5H14v9.75c0 .136-.114.25-.25.25H2.25a.253.253 0 0 1-.25-.25V1.25c0-.135.115-.25.25-.25zm8.748.596a14 14 0 0 1 1.272 1.133h.001c.48.48.855.912 1.133 1.271h-2.406zm1.313 5.406a3.54 3.54 0 0 0-1.526.37v-.003c-.948-.448-2.157-.537-3.045.096 1.08-.103 2.265.075 3.05.892.75-.86 1.939-1.02 3.015-.931a2.65 2.65 0 0 0-1.494-.424zM10.2 9.465c-.997.024-1.957.398-2.787.94-1.675-.713-3.793-.58-5.219.609.411-.015.814-.117 1.221-.17 1.487-.148 3.071.222 4.195 1.248a4.53 4.53 0 0 1 1.871-1.563c.986-.477 2.095-.526 3.168-.539-.65-.448-1.477-.53-2.248-.525H10.4a4 4 0 0 0-.199 0z"/></svg>