<svg xmlns="http://www.w3.org/2000/svg" width="16" height="16" viewBox="0 0 16 16"><path d="M8 0C3.582 0 0 1.119 0 2.5V4l6 6v5c0 .552.895 1 2 1s2-.448 2-1v-5l6-6V2.5C16 1.119 12.418 0 8 0zm0 1c1.853 0 3.632.206 5.006.582.62.17 1.145.374 1.52.588.246.14.379.259.44.33-.061.071-.194.19-.44.33-.375.213-.9.418-1.52.588C11.632 3.794 9.853 4 8 4s-3.632-.206-5.006-.582c-.62-.17-1.145-.374-1.52-.588a1.7 1.7 0 0 1-.44-.33c.061-.071.194-.19.44-.33.375-.213.9-.418 1.52-.588C4.368 1.206 6.147 1 8 1z"/></svg>