<svg xmlns="http://www.w3.org/2000/svg" width="16" height="16" viewBox="0 0 16 16"><path d="M11.982.188c-.775 0-1.593.37-2.242 1.019-1.039 1.039-1.643 2.472-1.969 3.496-.24-1.028-.723-2.414-1.658-3.35-.5-.5-1.142-.76-1.748-.76-.495 0-.964.173-1.316.524-.781.781-.675 2.154.236 3.065.325.325.706.594 1.106.818H.998v4h1v7h12V9h1V5h-2.943a6 6 0 0 0 .804-.674c.522-.522.87-1.164.983-1.808.123-.706-.057-1.361-.494-1.797-.348-.348-.82-.533-1.366-.533zm0 1.123c.167 0 .403.035.57.203.408.407.177 1.348-.49 2.015-.686.687-1.609 1.16-2.412 1.471h-.793c.29-.899.813-2.131 1.678-2.996.433-.433.975-.693 1.447-.693zm-7.615.408c.332 0 .678.157.951.43.53.528.965 1.37 1.26 2.435l.024.086-.086-.024c-1.064-.295-1.906-.73-2.436-1.26a1.4 1.4 0 0 1-.426-.87v-.002c-.01-.143 0-.41.192-.602a.73.73 0 0 1 .521-.193zM2 6h5v2H2zm7 0h5v2H9zM3 8.5h4V15H3zm6 0h4V15H9z"/></svg>