<svg xmlns="http://www.w3.org/2000/svg" width="16" height="16" viewBox="0 0 16 16"><path d="M3.75 4.25c-1.002 0-1.944.39-2.652 1.098A3.73 3.73 0 0 0 0 8c0 1.002.39 1.944 1.098 2.652A3.73 3.73 0 0 0 3.75 11.75c1.002 0 1.944-.39 2.652-1.098L8 9.055l1.598 1.597a3.73 3.73 0 0 0 2.652 1.098c1.002 0 1.944-.39 2.652-1.098A3.73 3.73 0 0 0 16 8c0-1.002-.39-1.944-1.098-2.652A3.73 3.73 0 0 0 12.25 4.25c-1.002 0-1.944.39-2.652 1.098L8 6.945 6.402 5.348A3.73 3.73 0 0 0 3.75 4.25zm0 1.49c.604 0 1.17.235 1.598.662L6.945 8 5.348 9.598a2.24 2.24 0 0 1-1.598.662c-.604 0-1.17-.235-1.598-.662A2.24 2.24 0 0 1 1.49 8c0-.604.235-1.17.662-1.598A2.24 2.24 0 0 1 3.75 5.74zm8.5 0c.604 0 1.17.235 1.598.662.427.427.662.994.662 1.598s-.235 1.17-.662 1.598a2.24 2.24 0 0 1-1.598.662c-.604 0-1.17-.235-1.598-.662L9.055 8l1.597-1.598a2.24 2.24 0 0 1 1.598-.662z"/></svg>