<svg xmlns="http://www.w3.org/2000/svg" width="16" height="16" viewBox="0 0 16 16"><path d="M2 0C.9 0 0 .9 0 2v4c0 1.1.9 2 2 2h1c1.336 0 2.59.52 3.535 1.465A4.96 4.96 0 0 1 8 13v1c0 1.1.9 2 2 2h4c1.1 0 2-.9 2-2v-4c0-1.1-.9-2-2-2h-1c-1.336 0-2.59-.52-3.535-1.465A4.96 4.96 0 0 1 8 3V2c0-1.1-.9-2-2-2zm0 1h4c.265 0 .515.105.705.295S7 1.735 7 2v1a6 6 0 0 0 6 6h1c.265 0 .515.105.705.295S15 9.735 15 10v4a1 1 0 0 1-.295.705A1 1 0 0 1 14 15h-4a1 1 0 0 1-.705-.295A1 1 0 0 1 9 14v-1a6 6 0 0 0-6-6H2a1 1 0 0 1-.705-.295A1 1 0 0 1 1 6V2c0-.265.105-.515.295-.705S1.735 1 2 1zm1 1c-.55 0-1 .45-1 1v2c0 .55.45 1 1 1h2c.55 0 1-.45 1-1V3c0-.55-.45-1-1-1zm8 0c-.55 0-1 .45-1 1v2c0 .55.45 1 1 1h2c.55 0 1-.45 1-1V3c0-.55-.45-1-1-1zm0 1h2v2h-2zm-8 7c-.55 0-1 .45-1 1v2c0 .55.45 1 1 1h2c.55 0 1-.45 1-1v-2c0-.55-.45-1-1-1zm8 0c-.55 0-1 .45-1 1v2c0 .55.45 1 1 1h2c.55 0 1-.45 1-1v-2c0-.55-.45-1-1-1zm-8 1h2v2H3z"/></svg>