<svg xmlns="http://www.w3.org/2000/svg" width="16" height="16" viewBox="0 0 16 16"><path d="M8 0C3.588 0 0 3.587 0 8s3.587 8 8 8 8-3.588 8-8-3.588-8-8-8zm-.002 1.07a6.93 6.93 0 1 1-2.05 13.55c.28-.458.705-1.213.86-1.813l.432-1.649c.225.431.887.797 1.586.797 2.091 0 3.598-1.921 3.598-4.312 0-2.291-1.869-4.002-4.272-4.002-2.99 0-4.578 2.008-4.578 4.193 0 1.016.541 2.28 1.406 2.684.131.063.2.034.23-.094.023-.097.141-.566.194-.787a.21.21 0 0 0-.047-.2c-.287-.346-.515-.989-.515-1.582 0-1.528 1.157-3.007 3.129-3.007 1.703 0 2.892 1.158 2.892 2.818 0 1.875-.946 3.176-2.177 3.176-.681 0-1.192-.564-1.026-1.254.197-.825.576-1.714.576-2.307 0-.53-.285-.974-.879-.974-.697 0-1.252.718-1.252 1.683 0 .612.206 1.03.206 1.03s-.688 2.902-.813 3.443c-.141.6-.084 1.441-.025 1.988a6.92 6.92 0 0 1-4.407-6.449A6.93 6.93 0 0 1 7.998 1.07z"/></svg>