<svg xmlns="http://www.w3.org/2000/svg" width="16" height="16" viewBox="0 0 16 16"><path d="M8 1.068A6.93 6.93 0 0 0 1.068 8a6.93 6.93 0 0 0 4.407 6.453c-.06-.547-.116-1.391.025-1.988.125-.541.813-3.444.813-3.444s-.206-.417-.206-1.029c0-.963.558-1.683 1.252-1.683.591 0 .88.443.88.974 0 .594-.38 1.485-.577 2.307-.166.69.345 1.254 1.026 1.254 1.23 0 2.177-1.301 2.177-3.176 0-1.659-1.192-2.818-2.892-2.818-1.972 0-3.13 1.476-3.13 3.007 0 .597.228 1.235.516 1.582.056.07.066.128.047.2-.053.219-.168.69-.193.787-.031.128-.1.153-.23.094-.867-.403-1.407-1.67-1.407-2.684 0-2.188 1.587-4.193 4.578-4.193 2.403 0 4.272 1.71 4.272 4.002 0 2.388-1.507 4.312-3.598 4.312-.703 0-1.362-.366-1.588-.797l-.43 1.649c-.155.603-.579 1.354-.863 1.814a6.93 6.93 0 0 0 8.984-6.621 6.93 6.93 0 0 0-6.929-6.934z"/></svg>