<svg xmlns="http://www.w3.org/2000/svg" width="16" height="16" viewBox="0 0 16 16"><path d="M0 0v6h6V0zm7 0v1h1V0zm1 1v1h1V1zm0 1H7v1h1zm0 1v1h1V3zm0 1H7v1h1zm0 1v1h1V5zm0 1H7v1h1zM7 7H6v1h1zm0 1v1h1V8zm1 1v1h1V9zm1 0h1V8H9zm1-1h1V7h-1zm1 0v1h1V8zm1 0h1V7h-1zm1 0v1h1V8zm1 0h1V7h-1zm1 0v1h1V8zm0 1h-1v1h1zm0 1v1h1v-1zm0 1h-1v1h1zm0 1v1h1v-1zm-1 0h-1v1h1zm-1 1h-1v1h1zm0 1v1h1v-1zm1 1v1h1v-1zm1 0h1v-1h-1zm-2 0h-1v1h1zm-1 0v-1h-1v1zm-1 0h-1v1h1zm0-1v-1h-1v1zm-1-1v-1H9v1zm-1 0H8v1h1zm-1 1H7v1h1zm0 1v1h1v-1zm0-2v-1H7v1zm0-1h1v-1H8zm0-1v-1H7v1zm1 0h1v-1H9zm1-1h1V9h-1zm1 0v1h1v-1zm1 1v1h1v-1zm1 0h1v-1h-1zm-2 0h-1v1h1zM6 8H5v1h1zM5 8V7H4v1zm5-8v6h6V0zM1 1h4v4H1zm10 0h4v4h-4zM2 2v2h2V2zm10 0v2h2V2zM0 7v1h1V7zm1 1v1h1V8zm1 0h1V7H2zm-2 2v6h6v-6zm1 1h4v4H1zm1 1v2h2v-2z"/></svg>