<svg xmlns="http://www.w3.org/2000/svg" width="16" height="16" viewBox="0 0 16 16"><path d="M7.963-.002q-.091.004-.178.022l-.09.011L7.6.043q-.06.007-.127.018-.136.019-.297.044L6.85.174c-.058.01-.117.029-.178.045l-.188.049q-.048.012-.097.027l-.098.03-.203.066-.053.015-.05.02-.106.039-.215.082-.219.094-.111.046-.11.053-.224.112q-.113.059-.225.123l-.113.062q-.055.032-.111.068c-.038.023-.15.092-.225.14a8 8 0 0 0-.863.66 8 8 0 0 0-.775.792q-.355.427-.641.885c-.188.306-.35.62-.488.93l-.094.23-.047.115-.039.116c-.013.038-.054.151-.078.226l-.067.225-.033.107-.025.11c-.01.036-.036.143-.053.213q-.022.105-.04.207l-.018.101-.01.049-.006.05-.027.192-.014.094-.01.09-.014.174q-.008.085-.011.166l-.002.025a1 1 0 0 0-.965 1.023H.002v.002q.002.092.02.178l.011.09.012.096q.007.06.018.127.018.136.044.296l.069.327c.01.058.029.116.045.177l.049.188q.012.049.027.098l.03.097.066.203.015.051.02.053.039.105.082.215.094.219.046.11.053.11c.018.039.075.15.112.225q.059.112.123.225l.062.111q.032.056.068.113l.14.223c.197.295.416.588.66.865.244.275.511.536.792.776.284.236.583.45.887.64.306.188.619.35.928.489l.23.093.115.047.116.041c.038.014.151.054.226.078l.225.067.107.03.11.026.212.053.207.04.102.019.049.01.049.005.191.028.094.013.092.008.173.016q.085.008.165.012h.01a1 1 0 0 0 1 .982h.029q.09-.004.177-.022l.09-.011.096-.012.127-.018q.136-.019.297-.044l.326-.069c.058-.01.117-.029.178-.045l.187-.049q.049-.012.098-.027l.097-.03.204-.066.05-.015.053-.02.106-.039.214-.082.217-.094.112-.046.11-.053c.039-.018.15-.075.225-.112q.111-.058.223-.123l.113-.062q.057-.032.114-.068l.222-.14c.295-.196.589-.416.866-.66.275-.244.535-.511.775-.792q.354-.428.64-.885c.189-.306.35-.62.489-.93l.094-.23q.024-.057.046-.115l.04-.116c.013-.038.054-.151.078-.226l.066-.225q.017-.054.031-.107l.028-.11.05-.213.041-.207.018-.101.01-.049.008-.05.025-.192.014-.094.01-.09.013-.174c.005-.056.013-.112.014-.166v-.025a1 1 0 0 0 .996-1v-.027a1 1 0 0 0-.022-.176l-.011-.092-.01-.094-.02-.129-.045-.294-.068-.327c-.01-.058-.029-.116-.045-.177l-.049-.19q-.012-.048-.027-.096-.016-.048-.03-.097l-.066-.203-.015-.053-.02-.053-.039-.103-.082-.215-.094-.219-.047-.111-.052-.112c-.018-.038-.075-.146-.112-.222q-.058-.113-.123-.225l-.062-.113q-.033-.056-.069-.111l-.138-.225a8 8 0 0 0-.66-.863 8 8 0 0 0-.793-.776 8 8 0 0 0-.885-.642 8 8 0 0 0-1.16-.582l-.115-.045-.116-.041c-.038-.013-.151-.054-.226-.078l-.225-.067-.107-.03-.11-.026c-.036-.01-.143-.036-.213-.053l-.207-.04-.101-.019-.049-.01-.049-.005-.191-.028-.094-.013q-.047-.006-.092-.008L9.191.992Q9.108.984 9.027.98h-.039a1 1 0 0 0-.998-.981zM8.975 1.16l.023.008q.077.016.156.039l.162.045q.042.01.084.023l.086.03.176.056.045.016.047.018.09.035.185.072.285.127.096.049.195.097c.065.034.129.074.194.11l.097.054q.049.03.096.063l.195.123c.256.176.507.368.745.582q.355.327.664.697c.202.25.385.513.547.778.159.268.294.54.41.806l.08.203q.02.049.037.098l.033.102c.011.033.045.13.065.195l.054.193q.015.048.026.096l.021.094.041.183.033.18.014.088.01.043q.003.021.004.043l.02.166.011.08.006.076.01.15q.006.074.007.143l.006.256-.006.2-.002.085-.005.094-.006.09a1 1 0 0 0-.012.177v.004a1 1 0 0 0 .822.96l-.002.015c-.01.051-.026.101-.04.154l-.046.162q-.01.042-.023.084l-.027.086c-.01.03-.04.116-.059.176l-.016.047-.015.045-.035.09-.075.185-.127.285-.046.096-.098.195q-.053.097-.11.194l-.056.097-.06.096c-.022.032-.084.13-.126.195a7 7 0 0 1-.582.745 7 7 0 0 1-.697.664q-.376.303-.775.547a7 7 0 0 1-.809.41l-.201.08-.1.037-.1.033-.197.065-.193.054q-.048.015-.096.026l-.093.021-.184.041-.18.033-.086.016-.043.008-.043.004-.166.02-.08.01q-.04.005-.078.007l-.15.01q-.074.006-.143.007l-.256.006-.199-.006-.086-.002-.092-.005-.091-.006a1 1 0 0 0-.157-.012h-.023a1 1 0 0 0-.963.834q-.075-.016-.152-.04-.078-.02-.162-.044-.042-.01-.084-.023l-.086-.03-.176-.056-.045-.016-.047-.018-.09-.035-.185-.072-.285-.127-.096-.049-.195-.097c-.065-.034-.129-.074-.194-.11l-.097-.055-.096-.06-.195-.125a7 7 0 0 1-.745-.582 7 7 0 0 1-.664-.697 7 7 0 0 1-.547-.778 7 7 0 0 1-.41-.806l-.08-.203q-.02-.05-.037-.098l-.033-.102c-.011-.033-.045-.13-.065-.195l-.054-.193q-.015-.048-.026-.096l-.021-.094-.041-.183-.033-.18-.014-.086-.01-.043-.004-.045-.02-.166-.011-.078-.006-.078-.01-.15q-.006-.074-.007-.143l-.006-.256.006-.2.002-.085.005-.094.006-.09A1 1 0 0 0 2 7.98v-.003a1 1 0 0 0-.852-.963v-.002l.002-.01c.01-.051.027-.101.041-.154l.045-.164.024-.084.027-.086.059-.176.015-.045.018-.045.033-.092c.012-.03.05-.122.074-.185l.127-.285.047-.096.1-.194q.052-.097.107-.195l.057-.097.06-.096.125-.194a7 7 0 0 1 .582-.744q.327-.355.698-.666.376-.304.775-.547a7 7 0 0 1 .809-.41l.203-.078q.049-.021.097-.039l.1-.031c.033-.011.132-.047.197-.067l.194-.052q.047-.015.095-.028l.094-.02c.031-.006.123-.028.184-.042l.18-.031.085-.016.043-.008.043-.006.166-.02.08-.009.079-.006.15-.012q.072-.006.142-.007l.256-.006.2.008.085.002.092.005.092.006q.076.012.156.012h.026c.487-.012.888-.374.963-.842z"/></svg>