<svg xmlns="http://www.w3.org/2000/svg" width="16" height="16" viewBox="0 0 16 16"><path d="M12.5 1c-.896 0-1.791.342-2.475 1.025A3.48 3.48 0 0 0 9.035 4L5.838 8.848c-.43.022-.855.132-1.248.328l-2.47-1.93A1.312 1.312 0 0 0 .506 9.314l2.435 1.907a3.157 3.157 0 1 0 6.168.227l3.893-3.483a3.5 3.5 0 0 0 1.975-5.94h-.002A3.5 3.5 0 0 0 12.5 1zm0 1a2.5 2.5 0 1 1 0 5 2.5 2.5 0 0 1 0-5zm0 1a1.5 1.5 0 1 0 .001 3.001A1.5 1.5 0 0 0 12.5 3zM6 9.895A2.106 2.106 0 1 1 3.895 12l.001-.033 1.045.816a1.311 1.311 0 1 0 1.617-2.066l-.992-.778q.21-.044.434-.044z"/></svg>