<svg xmlns="http://www.w3.org/2000/svg" width="16" height="16" viewBox="0 0 16 16"><path d="M8 0a1 1 0 0 0-1 1v1a1 1 0 0 0 2 0V1a1 1 0 0 0-1-1zm4.95 2.049a1 1 0 0 0-.708.295l-.707.707a1 1 0 0 0 1.414 1.414l.707-.707a1 1 0 0 0-.707-1.71zm-9.9.002a.999.999 0 0 0-.706 1.707l.707.707A1 1 0 1 0 4.465 3.05l-.707-.707a1 1 0 0 0-.707-.293zM8 4a4 4 0 1 0 0 8 4 4 0 0 0 0-8zm0 1.5a2.5 2.5 0 1 1 0 5 2.5 2.5 0 0 1 0-5zM1 7a1 1 0 0 0 0 2h1a1 1 0 0 0 0-2zm13 0a1 1 0 0 0 0 2h1a1 1 0 0 0 0-2zM3.758 11.244a1 1 0 0 0-.707.291l-.707.707a1 1 0 1 0 1.414 1.414l.707-.707a1 1 0 0 0-.707-1.705zm8.484 0a1 1 0 0 0-.707.291 1 1 0 0 0 0 1.414l.707.707a1 1 0 0 0 1.414-1.414l-.707-.707a1 1 0 0 0-.707-.29zM8 13a1 1 0 0 0-1 1v1a1 1 0 0 0 2 0v-1a1 1 0 0 0-1-1z"/></svg>