<svg xmlns="http://www.w3.org/2000/svg" width="16" height="16" viewBox="0 0 16 16"><path d="M7.498.002q-.331.004-.686.033C-.65.636 1.329 8.518 1.218 11.158 1.117 12.555.655 14.263 0 16h2.018a12.3 12.3 0 0 0 .423-2.158q.183.127.391.244c.226.133.421.309.627.496.48.438 1.026.934 2.09.996q.106.007.213.008c1.077 0 1.813-.473 2.404-.852.283-.18.529-.337.76-.412.655-.205 1.226-.536 1.654-.957q.1-.1.188-.203c.238.873.563 1.856.925 2.836H16c-1.034-1.596-2.1-3.16-2.078-5.156.042-3.825.424-10.947-6.424-10.84zM8.52 5.859c1.159-.03 2.12 1.153 2.152 2.643v.002a3.2 3.2 0 0 1-.475 1.773 3 3 0 0 0-.215-.097 12 12 0 0 0-.851-.328c.127-.248.206-.559.213-.895.018-.818-.395-1.481-.922-1.482s-.968.66-.986 1.478v.08a4.5 4.5 0 0 0-.956-.324q0-.045-.003-.092v-.002c-.03-1.49.884-2.725 2.043-2.756zm-5.204.412c.835-.049 1.57.957 1.645 2.245v.002q.006.103.006.205a3.2 3.2 0 0 0-.717.275l-.002-.03c-.071-.73-.462-1.284-.873-1.234s-.685.685-.613 1.416c.03.32.122.604.25.819-.032.025-.122.09-.225.166l-.285.21c-.31-.406-.524-.991-.563-1.652v-.002c-.074-1.288.542-2.37 1.377-2.42zm2.428 3.264c.6 0 1.266.233 1.973.688.333.217.621.316.988.443.252.087.54.186.924.35l.006.004c.357.147.78.414.76.857v.002c-.03.68-.92 1.321-1.743 1.578l-.006.002c-.342.111-.645.307-.968.514-.543.347-1.104.705-1.914.705-.053 0-.11-.001-.162-.004-.742-.043-1.09-.36-1.53-.762-.232-.21-.47-.43-.779-.611l-.008-.004c-.667-.377-1.08-.844-1.107-1.252q-.02-.306.267-.524c.416-.312.695-.515.88-.65.204-.15.266-.194.312-.238q.049-.047.105-.104c.382-.37 1.021-.994 2.002-.994zM3.287 11.41a.453.453 0 0 0-.256.83c.542.367 1.502.641 2.504.713q.255.019.557.02c.872 0 1.98-.082 3.164-.633a.455.455 0 0 0-.385-.824l-.002-.002c-1.28.596-2.47.59-3.27.533-.953-.07-1.721-.33-2.058-.559a.45.45 0 0 0-.254-.078z"/></svg>