<svg xmlns="http://www.w3.org/2000/svg" width="16" height="16" viewBox="0 0 16 16"><path d="M5.969.855c-.81.015-1.694.218-2.701.622L1.885 6.33c1.013-.382 1.885-.568 2.69-.568h.001c1.204.012 2.096.472 2.834.945l1.45-4.959c-.306-.175-1.107-.61-1.686-.758A5.3 5.3 0 0 0 5.969.855zm4.185 1.805L8.72 7.633c.965.62 2.004.935 3.095.935.89 0 1.813-.212 2.743-.634l-.004-.036.058-.013 1.391-4.79H16c-.919.358-1.816.54-2.672.54-1.433 0-2.49-.498-3.174-.975zM4.287 7.422a3 3 0 0 0-.28.012 9 9 0 0 0-2.185.48q-.204.075-.418.162L.002 12.941c.964-.357 1.817-.529 2.598-.529 1.263 0 2.178.471 2.935.957.36-1.217 1.22-4.157 1.477-5.035a12 12 0 0 0-.57-.332v-.004c-.746-.383-1.47-.576-2.155-.576zm3.969 1.814-1.414 4.909c.419.24 1.83 1 2.91 1 .872 0 1.848-.223 2.982-.684l1.348-4.719c-.916.296-1.793.447-2.615.447-1.5 0-2.55-.487-3.211-.953z"/></svg>