<svg xmlns="http://www.w3.org/2000/svg" width="16" height="16" viewBox="0 0 16 16"><path d="M8 0a8 8 0 1 0 0 16A8 8 0 0 0 8 0zm0 1.5a6.5 6.5 0 1 1 0 13 6.5 6.5 0 0 1 0-13zM11 4c-.552 0-1 .672-1 1.5S10.448 7 11 7s1-.672 1-1.5S11.552 4 11 4zm-5.5.906c-.828 0-1.5.394-1.5.88 0 .101.03.513.086.605.206-.341.761-.586 1.414-.586s1.208.245 1.414.586C6.97 6.3 7 5.888 7 5.785c0-.485-.672-.879-1.5-.879zm7.486 3.446c-.615 1.329-2.315 2.324-4.506 2.757-2.043.403-3.984.235-5.084-.625C4.318 11.995 5.953 13 7.816 13c2.646 0 4.832-2.024 5.17-4.648z"/></svg>