<svg xmlns="http://www.w3.org/2000/svg" width="16" height="16" viewBox="0 0 16 16"><path d="M1.5 0C.675 0 0 .675 0 1.5v13c0 .825.675 1.5 1.5 1.5h13c.825 0 1.5-.675 1.5-1.5v-13c0-.825-.675-1.5-1.5-1.5zm9.594 2.004h1.752c.103 0 .187.04.23.107.044.072.044.17-.006.268h-.002l-3.83 6.773a.01.01 0 0 0 0 .012l2.442 4.457c.047.097.049.195.002.27-.044.072-.125.107-.23.107h-1.73c-.265 0-.397-.173-.484-.326L6.78 9.158l3.852-6.828c.094-.166.206-.326.463-.326zM3.828 4.367h1.73c.267 0 .397.173.481.326 0 0 1.181 2.063 1.191 2.075-.069.125-1.869 3.302-1.869 3.302-.094.162-.217.334-.476.334v.002H3.156a.25.25 0 0 1-.224-.119c-.047-.075-.047-.169 0-.266L4.77 6.777q.005-.004 0-.01L3.6 4.743c-.047-.097-.055-.19-.008-.265.044-.072.13-.11.236-.11z"/></svg>