<svg xmlns="http://www.w3.org/2000/svg" width="16" height="16" viewBox="0 0 16 16"><path d="M7.15.002c-.11.004-.178.047-.246.057l-3.15 1.17s-.31.103-.47.36c-.23.366.234.9.234.9l3.275 4.464s.322.334.734.233v-.002c.447-.11.518-.758.518-.758l-.03-5.405S7.949.354 7.649.174C7.413.03 7.261-.002 7.15.002zm4.91 4.078c-.36-.03-.582.406-.582.406L9.332 7.861s-.19.337-.01.641c.196.327.73.232.73.232l3.798-1.109s.515-.21.59-.49c.071-.281-.085-.62-.085-.62L12.541 4.38s-.156-.272-.482-.299zm-9.724 2.8a.45.45 0 0 0-.22.05c-.188.11-.352.311-.368.487l-.22 2.717s-.035.47.087.683c.173.304.742.092.742.092l3.956-.873c.153-.103.422-.113.437-.664h-.002c.011-.417-.5-.668-.5-.668l-3.387-1.71s-.28-.117-.525-.114zm7.582 3.16a.6.6 0 0 0-.404.17v.002c-.27.272-.041.768-.041.768l2.033 3.392s.334.447.623.447c.29 0 .576-.238.576-.238l1.608-2.297s.162-.29.166-.545c.006-.36-.54-.459-.54-.459l-3.804-1.222s-.093-.025-.217-.018zm-2.445.754c-.258.028-.487.23-.487.23L4.338 13.94s-.33.445-.246.72c.079.256.21.384.396.474l2.658.84s.324.067.569-.004c.347-.1.281-.645.281-.645l.06-3.945s-.014-.38-.324-.541a.45.45 0 0 0-.26-.045z"/></svg>