<svg xmlns="http://www.w3.org/2000/svg" width="96.628" height="96.628" viewBox="0 0 96.628 96.628" version="1.0"><path d="m48.314.004-.101.25c-.011.024-.019.022-.03.049l-.378.94c-.14.333-.478 1.162-.725 1.769-.382.932-.448 1.064-.973 2.365a826 826 0 0 1-4.191 10.23c-.258.616-.61 1.501-.86 2.084-.212.501-.407.941-.61 1.414a389 389 0 0 1-3.548 7.967l-.283.62-.006.013.008.008-.002.002.424.426a75 75 0 0 0 2.107 2.127q.924.914 1.881 1.796c.288.27.732.714.926.885.185.163.386.318.574.48l.149.13c.125.108.256.214.383.322.175.152.357.298.533.447.399.336.795.684 1.205 1.012.224.18.435.343.658.52l.022.017h.002l.019.018c.051.04.109.078.16.119l.14.107a72 72 0 0 0 2.306 1.752c.22.157.272.203.376.285l.06.047c.015.015.09.07.095.076a2 2 0 0 1-.143-.045c-.203-.071-1.234-.532-2.205-.968-.563-.259-1.107-.508-1.682-.788q-.404-.197-.806-.402a73 73 0 0 1-1.658-.867 54 54 0 0 1-1.5-.852l-.328-.191q-.312-.191-.643-.402a46 46 0 0 1-1.51-.973c-.37-.25-.626-.448-.947-.678-.471-.34-.954-.683-1.375-1.021l-.602-.48-2.586 5.206-.037.075c-3.146 6.33-6.765 13.307-11.252 21.7L20.17 59.82a1838 1838 0 0 1-7.293 13.448l-.09.164A3615 3615 0 0 1 2.943 91.27 637 637 0 0 0 0 96.604l.027-.014c0 .015-.006.037.022.021.679-.392 1.302-.732 1.965-1.109.786-.448 1.521-.843 2.287-1.27 1.16-.647 2.317-1.293 3.43-1.892 9.668-5.203 17.617-8.626 24.634-10.63.353-.1.716-.217 1.065-.312a63 63 0 0 1 3.084-.742c.42-.092.854-.21 1.271-.293.097-.019.101-.029.176-.047.045-.012.255-.056.26-.06v-.002l.004-.002v-.006l.023-.006c0-.013-.05-.262-.102-.513-.022-.142-.015-.164-.05-.344a27 27 0 0 1-.338-2.215c-.015-.136-.025-.271-.04-.408a28.6 28.6 0 0 1-.103-4.358l.008-.172q.068-1.127.223-2.228l.01-.066c.427-2.973 1.337-5.758 2.673-8.067.037-.063.069-.133.106-.195q.489-.82 1.033-1.518l.107-.133q.672-.839 1.409-1.49.347-.307.705-.57c.118-.087.235-.178.355-.258a9 9 0 0 1 .85-.494q.198-.103.398-.193.45-.202.908-.338.172-.05.344-.09.447-.11.899-.16l.17-.02c.044-.004.09-.003.134-.006q.495-.031.99.01l.18.014a7 7 0 0 1 1.324.285c.351.11.7.243 1.045.408.089.043.175.093.262.139q.432.226.856.511.21.141.416.295c.072.055.143.115.214.172.158.129.315.253.473.397q.155.14.307.287.136.134.271.275a14.6 14.6 0 0 1 2.154 2.914l.067.121c.039.07.073.145.111.215.274.504.535 1.025.774 1.578l.054.12c.543 1.28.986 2.69 1.323 4.193q.041.187.08.375c.125.6.226 1.22.316 1.848.028.205.065.41.088.617.014.118.022.26.033.383.032.394.055.847.072 1.314.012.445.024.879.024 1.53l-.002.072c-.001 1.147-.023 2.011-.088 2.787-.03.352-.098.759-.152 1.13-.034.233-.053.44-.098.708-.03.172-.052.33-.088.515-.04.21-.038.245-.058.381l-.006.041c-.015.105-.057.322-.05.322.165 0 2.954.652 4.134.965.88.234 1.775.505 2.673.78.327.1.648.189.977.294.762.244 1.543.518 2.324.793.482.17.961.336 1.451.518.788.292 1.593.61 2.405.935q.701.28 1.416.577a121 121 0 0 1 3.851 1.687c1.078.494 2.175 1.01 3.309 1.563.368.18.752.372 1.127.558 4.05 2.01 8.46 4.38 13.433 7.223.063.036.061.028.12.06.045.027.204.115.242.137l.357.21-.453-.843-1.539-2.841c-.357-.663-.34-.646-.764-1.428l-4.09-7.547-1.363-2.52-2.986-2.392c-.295-.237-.443-.343-.744-.582-.687-.55-1.545-1.24-1.82-1.453-.256-.199-.53-.39-.792-.586-.2-.152-.666-.527-.787-.615-.27-.198-.563-.396-.843-.594l-.061-.041a73 73 0 0 0-2.197-1.485l-.442-.289a76 76 0 0 0-1.09-.683c-.268-.165-.55-.34-.822-.5a65 65 0 0 0-2.521-1.45c-.576-.31-.933-.517-1.026-.583-.008-.01-.114-.064-.109-.067.002 0 .027.007.03.006.004 0 .097.028.107.03.251.036 2.089.577 3.447 1.007q.662.216 1.314.438c1.076.378 2.214.82 3.332 1.3.342.151.641.281 1.02.457q.38.173.746.344c.908.436 1.77.867 2.256 1.145.095.055.222.117.31.172.058.035.06.024.104.044l.018.008.134.078-.013-.027c0-.001.02.01.02.008l-.028-.053c0-.006.007-.007.004-.015l-.01-.018c-.001-.004.002-.004 0-.008-.031-.083-1.066-2.035-2.299-4.338-7.49-13.994-12.17-22.945-16.76-32.049-.367-.728-.627-1.269-.972-1.957-1.175-2.35-2.38-4.745-3.4-6.857a361 361 0 0 1-3.37-7.129l-.228-.498c-2.312-5.054-4.674-10.522-8.014-18.443-.364-.865-.402-.932-.678-1.573-.021-.051-.02-.043-.04-.093-.364-.845-.912-2.137-.925-2.137z"/></svg>