<svg xmlns="http://www.w3.org/2000/svg" xml:space="preserve" viewBox="0 0 32 32"><path d="M11.7 5.596c-2.7 0-5 1.7-6 4.1h-.4c-2.9 0-5.3 2.4-5.3 5.4s2.4 5.3 5.3 5.3h11.9c.3.7 1 1.2 1.9 1.2 1.1 0 2-.9 2-2.1s-.9-2-2.1-2c-.8 0-1.5.5-1.9 1.2H5.3c-2 0-3.6-1.7-3.6-3.7s1.6-3.7 3.6-3.7H7c0-.4.2-.8.3-1.2.1-.1.1-.3.2-.4.8-1.5 2.4-2.5 4.2-2.5 1.6 0 3 .8 3.9 2 .5-.2 1-.4 1.6-.5-1.1-1.9-3.1-3.1-5.5-3.1zm7.4 3.7c-3.5 0-6.4 2.5-7.1 5.8-1.7.2-3.2 1.1-4.1 2.4h8.7c.6-.8 1.5-1.2 2.5-1.2 1.8 0 3.2 1.5 3.2 3.3s-1.5 3.3-3.2 3.3c-1 0-1.9-.5-2.5-1.2H6.9c.4 2.8 2.8 5 5.6 5h13c3.6 0 6.5-2.9 6.5-6.6s-2.9-6.6-6.4-6.7c-1.2-2.4-3.7-4.1-6.5-4.1z"/></svg>