<svg xmlns="http://www.w3.org/2000/svg" viewBox="0 0 99.31 100"><path d="m8.414 10.033-3.709 17.18h13.617c10.637 0 13.674-5.03 13.674-9.72 0-3.282-2.018-7.46-10.517-7.46zm35.217 0-3.71 17.18h13.616c10.64 0 13.652-5.03 13.654-9.72 0-3.282-2.02-7.46-10.498-7.46zm32.1 15.371-3.71 17.178 13.612.002c10.635-.002 13.674-5.035 13.676-9.703 0-3.298-2.037-7.477-10.514-7.477zM3.708 35.881 0 53.074h13.611c10.637 0 13.68-5.05 13.68-9.719 0-3.28-2.018-7.474-10.518-7.474zm35.195 0-3.709 17.193H48.81c10.637 0 13.674-5.05 13.675-9.719 0-3.28-2.02-7.474-10.498-7.474zm31.75 16.463-3.709 17.18h13.612c10.643 0 13.678-5.055 13.68-9.72 0-3.302-2.02-7.46-10.518-7.46zM33.848 62.799 30.138 80h13.618c10.637 0 13.674-5.033 13.674-9.703 0-3.319-2.018-7.498-10.496-7.498z"/></svg>