<svg xmlns="http://www.w3.org/2000/svg" width="720" height="720" viewBox="0 0 540 540"><path d="M269 0C141.6 0 67.1.4 67.5.9c.8 1.4-2.3 2.7-8.3 3.5-3 .4-6.1 1.1-7 1.6-1 .4-5.2 2.5-9.4 4.5-14.4 7-27.3 19.9-34.3 34.4-5.3 11-5.4 11-6.7 17.6-1.5 7.7-1.7 409.1-.2 417 1.3 6.4 4.1 14 7.1 18.7 1.3 2.1 2.3 4.2 2.3 4.7 0 1.1 7.8 11.1 11.4 14.7C26 521.1 36 529 37 529c.5 0 3.1 1.3 5.7 2.8 4.7 2.8 10.8 4.9 20.6 7.1 6.7 1.5 404.7 1.5 411.4 0 9.8-2.2 15.9-4.3 20.6-7.1 2.6-1.5 5.2-2.8 5.7-2.8 1 0 11-7.9 14.6-11.4 3.6-3.6 11.4-13.6 11.4-14.7 0-.5 1.1-2.7 2.5-4.8 3-4.9 6.5-14.6 6.5-18.2 0-3.8 1-5.9 2.6-5.9 1.2 0 1.4-30.1 1.4-202.5 0-175.1-.2-202.5-1.4-202.5-1.6 0-2.1-1.4-3.1-8.4-.4-2.7-1-5.6-1.4-6.5-9.1-18.8-14.5-26.3-25.2-34.9-3.4-2.8-9.6-6.7-13.8-8.7s-8.3-4.1-9.3-4.5c-.9-.5-4-1.2-7-1.6-6-.8-9.1-2.1-8.3-3.5.4-.5-74.1-.9-201.5-.9zm-42.7 112c68.2 0 83.7.3 92.1 1.5 24.4 3.7 40.2 10.8 53.7 24 15.9 15.6 22.4 36.3 19.9 63-1 10.3-2.4 15.5-6.3 23.5-6.4 13.3-17.9 25.2-30.6 31.5-2.9 1.5-5 3.2-4.8 3.8.2.7 2.4 1.7 4.8 2.3 18.6 4.7 36.4 20.9 44.3 40.4 1 2.5 2.4 6 3.2 7.8s1.4 4.5 1.4 6c.1 1.5.7 5.4 1.5 8.7 1.9 7.9 1.9 20.3-.1 31.7-2.1 12.4-4.7 19.8-10 28.8-9.4 15.9-23 26.9-43.4 34.9-3 1.2-6.4 2.6-7.5 3.1-1.1.4-5.6 1.6-10 2.5s-10.8 2.3-14.2 3.1c-5.1 1.1-21.3 1.4-91.8 1.4H143V271.7c0-87.1.3-158.7.7-159 .3-.4 37.5-.7 82.6-.7zM213 159.647c-9.426.047-12.2.403-12.5 1.153-.7 1.9-.6 80.7.1 82.6.5 1.4 5.199 1.6 42.799 1.6 40.6-.1 60.5-.9 64.3-2.8 1-.5 4-2 6.7-3.3 6.1-3 13.5-10.1 16-15.4 1-2.2 2.4-4.9 3-6s1.2-7.5 1.4-14.2c.3-9.6 0-13.5-1.4-18-3.2-10.6-8.7-17.5-16.8-20.8-2.3-.9-5-2.2-6.1-2.9-1.4-.7-11.7-1.2-32-1.4-16.5-.1-40.7-.3-53.7-.5a787 787 0 0 0-11.799-.053zm18.513 126.488c-17.1.044-30.539.228-30.914.566-.3.4-.6 22.399-.6 48.999v48.4l54.3-.4c33.8-.2 56.1-.8 59.4-1.5 13.1-2.7 25.4-11.7 30.7-22.2 5.3-10.8 7-30.6 3.5-41-2.2-6.5-5.8-13.5-8.6-16.7-3.5-4-12.3-10.3-14.3-10.3-.9 0-2-.4-2.6-1-1.3-1.3-8.9-2.9-18.4-4-5.312-.625-43.985-.938-72.486-.865z"/></svg>