<svg xmlns="http://www.w3.org/2000/svg" viewBox="0 0 64.59 100"><path d="M32.295 0c-8.486 0-16.192 1.549-22.022 4.23C7.36 5.571 4.896 7.194 3.06 9.191S0 13.672 0 16.37v54.262c0 2.697 1.22 5.179 3.059 7.176 1.837 1.997 4.3 3.62 7.214 4.96C16.103 85.45 23.808 87 32.295 87s16.19-1.551 22.02-4.232c2.914-1.341 5.376-2.964 7.214-4.961s3.06-4.48 3.06-7.176V16.369l-.023-.023c-.007-2.687-1.22-5.161-3.05-7.153-1.836-1.997-4.296-3.62-7.21-4.96C48.482 1.55 40.782 0 32.296 0zm.008 5.684c7.56 0 14.39 1.44 19.117 3.615 2.364 1.087 4.188 2.359 5.332 3.603s1.602 2.366 1.602 3.467-.458 2.224-1.602 3.469-2.968 2.516-5.332 3.603c-4.728 2.175-11.558 3.616-19.117 3.616s-14.392-1.44-19.12-3.616c-2.363-1.087-4.187-2.358-5.331-3.603S6.25 17.47 6.25 16.369s.457-2.222 1.602-3.467c1.144-1.244 2.968-2.516 5.332-3.603 4.727-2.175 11.56-3.615 19.119-3.615zM5.609 24.348c1.544 1.334 3.42 2.48 5.563 3.466 5.572 2.564 12.973 4.055 21.13 4.055 8.159 0 15.557-1.49 21.13-4.055 2.135-.982 4.006-2.122 5.547-3.45V70.63c0 1.047-.43 2.129-1.579 3.377-1.148 1.248-3.008 2.55-5.431 3.664-4.847 2.23-11.886 3.719-19.674 3.719s-14.831-1.49-19.678-3.72c-2.423-1.114-4.28-2.413-5.43-3.661-1.148-1.248-1.578-2.332-1.578-3.38z"/></svg>