<svg xmlns="http://www.w3.org/2000/svg" viewBox="0 0 80.05 100"><path d="M38.01-.004 21.637 6.635 9.762 16.883s-6.266 9.662-7.15 11.431C1.725 30.084 0 39.068 0 39.068l.434 13.37 3.062 16.1L15 86.237l15.973 10.4 15.886 3.4.002-.042-6.37-2.21-10.003-5.311-6.636-7.08-6.637-7.079-4.426-8.85-3.539-7.964-.885-7.523-.443-9.735 1.77-10.176 5.751-10.177 8.409-6.196 9.29-4.867s8.407-2.654 10.62-2.654 8.814 1.219 8.814 1.219 5.789 2.32 7.559 3.205 5.752 4.425 5.752 4.425 4.423 8.85 5.308 11.063c.885 2.212.885 7.964.885 10.62 0 2.654-2.654 9.29-2.654 9.29l-4.424 6.195-8.85 4.424h-8.408l-8.406-5.308-4.426-6.196v-8.85l3.541-5.751 3.54-3.54 6.194-1.77 5.31 1.327 8.407 6.637-4.867-7.123-6.594-3.539-9.336.928-7.964 7.08-3.098 10.178 3.098 11.06 7.964 7.08 12.832 3.983L66.33 61.5l9.29-9.291 4.426-12.832s-.886-11.504-1.328-13.273-1.77-7.524-1.77-7.524L69.426 7.52l-9.184-4.725L49.072.439z"/></svg>