<svg xmlns="http://www.w3.org/2000/svg" xml:space="preserve" width="466" height="423.891" viewBox="0 0 466 423.891"><path d="M185.559 74.191v47.147H91.268v47.144H44.123v48.194H3.809l-.664 7.127c-2.215 23.797 1.05 47.612 10.88 69.351l4.239 8.621.476.807c29.083 49.387 80.155 70.197 135.82 70.197 107.748 0 196.611-48.132 237.428-149.795 27.278 1.426 55.18-6.64 68.526-32.685l3.408-6.653-6.477-3.734c-15.78-9.108-36.8-10.354-54.7-5.088-2.206-19.027-14.71-35.72-29.577-47.666l-5.904-4.746-4.957 5.733c-9.955 11.513-12.923 30.657-11.565 45.367 1.001 10.815 4.399 21.787 11.055 30.476-5.054 3.04-10.803 5.458-15.926 7.194-10.425 3.532-21.748 5.494-32.756 5.494H289.28V168.48h-47.146V74.191z"/></svg>