<svg xmlns="http://www.w3.org/2000/svg" viewBox="0 0 88.22 100"><path d="M82.25.004c-1.705-.04-3.617.282-5.627.824-3.842 1.037-8 2.908-11.516 4.871C58.803 2.16 51.731.83 44.09.83c-7.748 0-14.994 2.09-21.28 5.677C17.39 3.436 10.48.079 5.49.107c-1.57.01-3.034.406-4.066 1.438C.304 2.665-.046 4.269.004 5.98c.049 1.711.485 3.624 1.14 5.627 1.251 3.82 3.338 7.944 5.311 11.428-3.448 6.195-5.451 13.295-5.451 20.88C1.004 67.684 20.318 87 44.09 87s43.086-19.315 43.086-43.086c0-7.524-1.01-13.88-4.453-20.088 1.975-3.554 3.775-7.895 4.75-11.92.51-2.105.802-4.105.736-5.873-.065-1.768-.466-3.378-1.576-4.488C85.535.447 83.955.044 82.252.004zm-.053 2.242h.002c1.375.032 2.323.377 2.84.895.51.51.873 1.508.928 2.963.054 1.455-.189 3.304-.666 5.275-.94 3.881-2.778 8.281-4.713 11.697l-.002-.004c-2.014 3.53-3.888 6.308-4.61 7.03-2.165 2.165-7.846.007-12.675-4.823-4.83-4.829-6.987-10.506-4.82-12.672.692-.692 3.298-2.457 6.623-4.377l.021.012.56-.316C69.146 5.947 73.47 4.013 77.222 3c1.876-.506 3.601-.786 4.976-.754zM5.51 2.352c3.864-.022 10.845 3.093 16.146 6.07A42.2 42.2 0 0 0 8.313 21.805c-1.9-3.372-3.875-7.373-5.03-10.899C2.67 9.03 2.29 7.295 2.25 5.928s.26-2.278.77-2.787c.476-.477 1.281-.783 2.49-.79z"/></svg>