<svg xmlns="http://www.w3.org/2000/svg" xml:space="preserve" viewBox="0 0 100 100"><path d="M21.424 10C14.59 10 8.998 15.59 8.998 22.424v57.15C8.998 86.408 14.591 92 21.424 92h57.15c6.834 0 12.424-5.592 12.424-12.426v-57.15C90.998 15.59 85.408 10 78.574 10zm0 3.313h57.152c2.42 0 4.704.952 6.432 2.68a9.04 9.04 0 0 1 2.678 6.43v57.153c0 2.42-.95 4.704-2.678 6.432a9.05 9.05 0 0 1-6.434 2.678h-57.15c-2.42 0-4.706-.95-6.434-2.678a9.05 9.05 0 0 1-2.677-6.434v-57.15c0-2.42.95-4.704 2.677-6.432a9.05 9.05 0 0 1 6.434-2.68zm40.49 4.144c-.16.013-.377.071-.607.25-.46.358-5.323 3.334-6.5 3.445s-4.094.176-4.094.176v.008a18 18 0 0 0-4.492.656c-8.466 2.346-13.677 10.21-11.639 17.56 1.747 6.306 8.26 10.184 15.42 9.68-.387.621-.773 1.595-.773 3.018 0 2.475 1.963 4.786 2.5 5.371-.114-.005-.227-.01-.35-.01-1.344 0-4.683.039-7.617.504l-.073.012c-1.109.135-2.156.38-3.175.72a29 29 0 0 0-3.188 1.329c-.537.25-1.05.552-1.586.857q-.797.466-1.562 1.06c-.509.398-1.005.84-1.463 1.344q-.346.377-.67.792c-.207.282-.409.575-.594.882a9.6 9.6 0 0 0-1.064 2.602c-.364 1.296-.719 3.185-.428 5.033.515 3.275 2.777 5.568 5.305 7.352.941.713 1.968 1.238 2.992 1.658 1.083.454 1.805.607 1.805.607l-.002-.004a18.5 18.5 0 0 0 2.367.48v.003s9.452 1.636 16.885-2.139a21 21 0 0 0 3.48-2.201 17 17 0 0 0 .963-.766c1.674-1.504 3.109-3.313 4.105-5.535.12-.276.237-.588.33-.873.058-.2.106-.365.145-.535.042-.171.071-.346.105-.52a12.7 12.7 0 0 0 .184-2.822c-.003-.2-.014-.314-.014-.314a13.4 13.4 0 0 0-.529-3.075 12.2 12.2 0 0 0-1.965-3.802h.002l-.03-.033a10 10 0 0 0-.786-.918 19 19 0 0 0-1.229-1.19 34 34 0 0 0-2.244-1.824l-.035-.03c-3.351-2.735-5.066-2.794-5.066-5.831 0-1.229 1.1-3.174 4.093-5.477 2.994-2.303 5.302-5.27 5.297-8.916-.005-3.602-1.396-6.469-1.396-6.469l-.002.002c-.78-1.847-1.994-3.44-3.516-4.72l.002-.002s-.206-.595.127-1.004 2.662-3.608 2.662-3.608.41-.587.256-.894-2.074-1.87-2.074-1.87-.102-.032-.262-.019zm-13.902 6.266c4.154-.19 8.493 3.409 10.256 8.84 2.014 6.207-.098 12.455-4.721 13.955-4.622 1.5-10.006-2.315-12.02-8.522-2.015-6.207.1-12.455 4.723-13.955a6.7 6.7 0 0 1 1.762-.318zm4.734 36.082h1.746l.069.052.058.05.184.142c1.407 1.116 7.18 5.859 8.09 9.191 1.033 3.788-2.322 9.11-8.618 10.051a19 19 0 0 1-1.94.172 30 30 0 0 1-3.578-.072 23 23 0 0 1-2.769-.43c-1.795-.41-3.482-1.065-4.867-1.963-.695-.444-1.3-.959-1.824-1.498a8.4 8.4 0 0 1-1.28-1.758c-.336-.623-.565-1.288-.742-1.986a8 8 0 0 1-.107-.533l-.037-.254-.026-.186-.005-.043c0 .003.001 0 .002.004l-.004-.062a9.3 9.3 0 0 1 .215-2.916q.06-.254.148-.51a6 6 0 0 1 .184-.527 8.7 8.7 0 0 1 2.098-3.086 10 10 0 0 1 2.19-1.567c.797-.427 1.641-.785 2.477-1.006q.706-.178 1.426-.334c.48-.098.966-.18 1.453-.263.974-.16 1.955-.315 2.941-.432.837-.087 1.68-.18 2.516-.236z"/></svg>