<svg xmlns="http://www.w3.org/2000/svg" viewBox="0 0 100 100"><path d="M49.29.186c-3.29.043-6.61.374-9.63.978-7.786 1.558-14.545 4.8-21.094 10.135-1.584 1.29-6.004 5.698-7.402 7.385-2.488 3.001-4.494 6.062-6.088 9.29-1.402 2.84-1.866 4.064-2.9 7.589-.85 2.891-.972 3.351-1.416 5.833C.29 44.024.004 47.538 0 50.64c-.004 3.517.788 9.075 1.889 13.271.478 1.826 1.353 4.471 1.838 5.53.21.46.587 1.291.826 1.855s.768 1.595 1.181 2.277S6.814 75.347 7.201 76c.883 1.486 1.902 2.918 3.406 4.79 9.147 11.376 20.638 17.75 34.383 19.054 2.958.28 8.779.171 11.77-.219 10.957-1.431 20.346-6.08 28.566-14.148 2.426-2.381 4.479-4.824 5.987-7.118a224 224 0 0 1 2.005-3.002c1.305-1.898 3.475-6.625 4.418-9.61 1.747-5.533 2.574-12.718 2.159-18.938-.196-2.933-.88-7.524-1.399-9.393a34 34 0 0 1-.455-1.838c-.375-1.825-2.83-7.514-4.436-10.25-2.127-3.626-4.837-7.079-8.126-10.371-8-8.006-17.345-12.738-28.247-14.299C55.15.36 52.935.212 50.69.186a56 56 0 0 0-1.398 0zM27.384 28.699c4.905-.013 12.301-.009 22.275 0l29.494.018.034.556c.07 1.224-.637 4.658-1.315 6.34a39 39 0 0 0-.64 1.721c-.28.827-.72 1.654-1.874 3.523-2.172 3.524-6.04 7.246-9.88 9.495-1.803 1.055-4.238 2.167-5.565 2.546-.66.19-2.53 1.974-3.34 3.188a10 10 0 0 1-.64.86c-.377.42-1.099 2.202-1.332 3.27-.17.777-.215 1.408-.22 3.255-.002 1.256.028 2.523.07 2.816.296 2.13 1.91 6.775 3.421 9.815.264.53.575 1.16.674 1.398.099.237.394.798.658 1.248.544.929.583 1.216.236 1.736-.771 1.157-3.59 2.147-7.199 2.53-1.323.14-3.55.183-4.385.086l-1.35-.153c-2.202-.25-4.865-1.024-5.85-1.703-.58-.398-1.046-1.031-1.046-1.416 0-.147.63-1.515 1.399-3.035 1.875-3.712 2.2-4.579 3.289-8.668.644-2.42.766-5.87.287-8.043-.48-2.18-2.151-4.89-3.81-6.156-.933-.712-1.12-.81-1.79-1.045-1.874-.658-4.316-1.83-5.968-2.867-1.62-1.018-2.642-1.805-4.149-3.153-2.86-2.56-4.713-4.955-6.322-8.162-1.376-2.741-2.024-4.764-2.412-7.605-.252-1.847-.265-2.186-.117-2.309.044-.037 2.462-.072 7.367-.086zM9.68 40.977h11.365l.219.47c.113.264.529.933.927 1.485.4.552 1.066 1.49 1.485 2.074.909 1.268 3.547 3.878 5.04 4.992 2.39 1.781 4.908 3.2 6.981 3.928.727.255 1.317.483 1.317.523 0 .205-1.68 1-2.748 1.299-1.3.363-1.614.579-2.227 1.533-.494.77-1.04 2.438-1.164 3.526s-.036 2.092.371 3.978c.399 1.85.763 2.827 1.856 4.992.552 1.095.994 2.076.994 2.176 0 .251-.58.813-1.13 1.078-.736.357-1.859.64-3.237.81-1.217.152-2.054.173-2.8.085-1.98-.236-3.111-.461-3.896-.793-.629-.267-1.23-.83-1.23-1.147 0-.143.459-1.186 1.029-2.326 1.609-3.214 2.23-5.38 2.227-7.86-.003-1.662-.204-2.58-.793-3.675-.89-1.652-1.22-1.919-3.102-2.477-1.62-.48-3.657-1.67-5.43-3.187-2.359-2.02-2.898-2.64-4.132-4.79a14.05 14.05 0 0 1-1.854-5.917l-.068-.775zm68.511.05h11.755l.033.387c.035.418-.085 1.064-.608 3.12-.288 1.133-.466 1.542-1.06 2.58-1.101 1.92-1.555 2.572-2.58 3.626-2.547 2.62-4.965 4.216-7.555 4.99-.604.181-1.205.388-1.332.456-.27.144-1.293 1.688-1.67 2.513-1.087 2.378-.329 7.04 1.838 11.264.499.973.91 1.863.91 1.973 0 .31-.365.687-.961 1.011-.67.365-1.286.557-2.547.776-2.657.461-5.888.162-7.621-.707-.603-.303-1.18-.857-1.18-1.131 0-.08.478-1.079 1.06-2.227 1.507-2.966 2.155-5.144 2.26-7.603.044-1.005.008-1.503-.134-2.143-.225-1.008-1.088-2.786-1.584-3.254-.332-.313-1.218-.694-2.664-1.164-.7-.227-2.088-1.023-2.041-1.164.018-.055.44-.235.943-.404 1.262-.425 1.965-.739 3.322-1.518 2.913-1.672 4.026-2.524 6.358-4.822s3.57-3.842 4.672-5.852z"/></svg>