<svg xmlns="http://www.w3.org/2000/svg" width="48.26" height="100" viewBox="0 0 48.26 100"><path d="M35.963.002c-2.063.062-1.954 1.586-2.022 3.51-.076 2.198.296 3.772 1.295 7.554-3.398-2.567-3.151-8.185-6.119-7.093-2.967 1.091-2.182 3.643-1.12 6.425 1.06 2.783 2.47 5.462 4.884 7.875-2.706.446-6.33 1.632-5.346 4.43s3.24.688 5.346.842 3.612 2.262 5.719 2.416c2.106.154 2.586 4.242 2.402 7.486-.17 2.978-3.85 5.087-5.773 3.19-8.727-14.544-20.067-24.696-24.797-27.34 1.43 2.994.95 20.227-.362 31.805-1.84 9.517-6.843 10.9-7.107 15.195-.277 4.505 1.457 4.935 1.35 9.101C4.205 69.565.5 71.254.054 73.514s1.907 2.982 3.275 2.982c.4 0 .802-.512 1.182-1.334-.13 1.464-.237 2.903-.307 4.305-.215 4.212.432 5.87 3.184 5.87 4.858 0 11.024-10.239 18.757-10.009 7.75.23 10.212 11.749 13.84 11.672s6.55-1.337 6.58-12.545c.032-9.932-2.418-19.31-6.093-27.701l-.006-.02c-.955-3.264-.52-7.115 1.3-9.69 1.969-2.782.31-8.975 1.356-11.696s3.472-1.952 4.256-6.18-2.548-7.134.035-12.5C50 1.302 45.934 1.33 44.15 2.637s-2.23 4.488-2.968 6.994C38.752 6.986 40.106.499 36.984.068a6 6 0 0 0-1.021-.066zM23.098 31.738c2.516-.072 4.937.9 6.039 3.037l.047-.005c.19.397.324.813.408 1.24v.006q.084.36.125.754.018.347.008.687v.033q0 .254-.008.508a7 7 0 0 1-.36 1.648l-.005.02-.047.135c-.015.043-.039.084-.055.127q-.028.076-.059.152c-.066.169-.134.34-.214.508-.676 1.413-1.79 2.508-3.116 3.256-.02.012-.045.02-.066.033a8.43 8.43 0 0 1-4.28 1.154h-.033a10 10 0 0 1-.607-.006 6.2 6.2 0 0 1-3.355-1.162l-.047-.033-.014-.012c-.074-.053-.15-.103-.22-.16l-.012-.008a5.9 5.9 0 0 1-1.67-1.982l.007-.006a6.3 6.3 0 0 1-.742-3.723c.364-3.208 4.316-5.716 7.282-6.12q.496-.068.994-.08zm8.367 2.698h.002c4.781 7.456 12.87 24.381 12.638 37.634-.23 13.254-1.656 12.41-3.824 12.487S34.601 72.869 25.7 72.793c-8.886-.077-14.31 10.483-18.123 10.068s3.672-33.21 4.871-39.084c.554-.372 1.13-.765 1.71-1.16.085.165.169.332.265.494 1.85 3.13 5.947 4.166 9.303 3.383 4.592-1.07 7.986-5.088 7.687-9.863a7.4 7.4 0 0 0-.527-2.143q.29-.032.58-.052zM7.342 53.16c.26.007.401.373.314 1.254a234 234 0 0 0-1.502 8.135c-.56-1.636-1.347-3.023-1.347-4.531 0-1.879 1.772-4.878 2.535-4.858z"/></svg>