<svg xmlns="http://www.w3.org/2000/svg" viewBox="0 0 70.189 95.96" version="1.0"><path d="M2.662-.018C-.872 2.892.478 7.854.404 11.772c-.089 2.844 3.645 5.582 1.504 6.474-.248 4.055.822 8.006 1.065 12.037-.136 1.478 1.077 2.797 2.384 3.787-1.38-.894-2.415-1.234-1.888 1.62 1.521 3.837 2.362 7.082 2.873 11.367-.183 1.864 2.373 3.719.24 4.074.234 3.493 1.565 9.886.883 11.44.57 3.7 1.47 7.325 1.912 11.113-.595 1.733 1.816 3.387 2.576 3.671-3.593.96 5.324 3.639.733 3.131-3.692.42 2.388 2.215-1.36 2.514-2.675 1.642 6.126-1.616 1.705 1.309-.652.6-.5.703-.08.642 1.015-.147 3.76-1.355 1.678.438-1.786 2.386-7.605 6.215-6.97 7.492 3.515-1.044 7.2-6.58 9.886-6.256.175 2.361-1.387 7.407-.014 8.018.914-1.848 1.41-7.881 2.477-6.985.286 2.558 2.268 3.838 1.226.516-.096-2.2-.093-5.202.327-1.225-.139 1.112 1.147 3.674 1.15.975 3.614 3.157-1.429-4.646 2.447-1.793 3.26.333-5.122-5.012-.986-2.752 2.436 2.008-.1-1.32 2.267.017 3.68-.14 5.472-2.968 7.514-5.019-2.286.022 3.35-1.604 3.627-3.514.518-1.832 5.208-4.507 3.785-5.45 1.296-.79 4.13-5.094 5.135-7.794a7 7 0 0 1-1.043.418c1.602-.878 4.111-4.301 3.64-5.16-4.547 1.845 2.032-.215 1.499-2.988 2.74-4.004 2.967-6.011 5.392-9.805.397-1.212 1.507-3.023 1.082-3.305 1.232-1.068 2.433-2.879 2.098-3.957 1.445-2.513 4.08-8.232 3.24-9.718-2.544 1.964 2.824-2.174 2.399-4.004 1.298-2.634-.893-1.674-.598-1.707 1.568-2.027 2.289-5.496 2.732-6.137 1.67-2.745 2.638-6.173 2.727-9.442-2.245 4.15 3.39-6.16-1.945-4.84-3.09 1.788-6.14 4.024-7.985 7.178-1.827 1.48-2.133 3.495-1.988 5.604-.266-1.464-.702-2.024-1.703.582-.176.4-.202 1.14-.162 1.955-.217-.94-.662-1.275-1.45.684-3.892 2.437-5.223 7.189-8.365 10.351-1.056 1.202-1.183 2.995-.976 4.717-.167-1.036-.344-1.917-.711-2.053-2.013 2.11-3.415 4.992-4.063 7.463-.5-.775-2.477 4.052-3.646 5.434-1.138 1.087-2.18 3.418-2.553 5.136-.368-.995-1.347-.681-2.293 1.207-1.345 1.377-2.462 3.047-2.5 4.893-.3-1.054-.695-1.326-1.707 1.012-2.006 3.283-2.049-2.819-2.963-2.453.64-2.359-1.031-6.14-1.326-4.325.3-3.723-1.423-7.138-2.441-10.922-.872-3.4-1.854-6.897-3.102-10.13-1.303-3.578-3.347-6.834-4.48-10.47-2.773-3.033-3.13-7.103-4.914-10.605C6.659 4.112 5.487.808 2.662-.018zm.717 1.303c.356 2.257-.1 3.026-.068.272l.058-.23zm-1.299.059c1.034.92.66 1.085 0 0zm66.58.554c-.663 1.154-2.176 3.646-2.947 4.975.93-1.827 1.766-3.523 2.947-4.975zm-.27 2.534c-.944.762-1.322.768 0 0zm-6.117.81c-.238.81-.202 1.813-.14 2.512-.035-.275-.04-.392-.13-.94 0-.533.074-1.073.27-1.572zm1.188.817c.196 1.55-.092 1.24 0 0zM.33 6.787c.717.723 1.836 2.469.501.701zM65.562 8.22c-.206 1.778-.898 1.054 0 0zm.126 2.623c-1.547 1.146-2.948 2.575-2.878 2.734.45-1.436 1.626-2.126 2.878-2.734zm-5.912.037c.358 2.511.308 3.707 0 0zm6.47 2.726c-1.31.91-2.912 1.925-.538.36zM2.47 14.795c1.66 1.406 5.306 4.04 1.474 1.26a23 23 0 0 1-1.474-1.26zm59.5.752c-.682 2.019-2.812 5.508-.748 1.539zm-50.092.465c.179.625.08 2.238.006.668zm46.187.306c.145.866.302 1.725.393 2.534-.18-.53-.289-1.506-.393-2.534zm-2.039 1.578c.253 2.065.647 3.654.002.786.017-.228 0-.516-.002-.786zm-45.04 2.46c-.544 1.13-.727.981 0 0zm42.687.5c.096.814.35 1.706.597 2.415-.124-.304-.109-.301-.337-.83a8 8 0 0 1-.26-1.586zM12.03 21.99c-.498 1.263-.675.813 0 0zm-7.636.006c2.042 1.16 3.594 2 .62.463zm9.224.371c-.964 1.849-2.928 4.683-.793 1.346.28-.44.55-.885.793-1.346zm2.783 2.695c.272 2.067-1.817 5.279-.2 1.627a6.4 6.4 0 0 0 .2-1.626zm-11.013.073c2.36.822 4.036 1.424.722.29zm5.363 1.498c.744-.052-.27.88 0 0zm37.889 1.638c.4.71.91 1.938 1.353 3.147-.637-1-1.35-1.998-1.353-3.147zm10.912.178c-1.925.696-6.005 1.983-1.766.551.59-.18 1.181-.355 1.766-.55zm-54.23 1.049c1.65 1.012 7.455 2.717 2.45 1.158a18 18 0 0 1-2.45-1.158zm41.343.533c.32 1.877 1.537 5.065.287 1.533a9 9 0 0 1-.287-1.533zM5.068 31.785c1.79 1.092 3.195 1.917.578.436-.205-.128-.385-.29-.578-.436zm40.27 1.697c.336 1.503.825 2.79 1.045 3.295-.57-.725-.84-2.024-1.045-3.295zm-1.98.762c.25 2.436 1.801 5.604 1.788 6.104-.72-1.977-1.648-3.988-1.789-6.104zm7.511.344c.003.208-.024.36-.123.373.054-.127.09-.25.123-.373zm-44.053.455c.816.48 1.47.79 1.536.832-.468-.151-1-.477-1.536-.832zm9.19.158c-.511 1.023-1.057 1.41 0 0zm3.79.168c.006 2.196-.468 2.58 0 0zm-2.243.535c-1.016 1.977-3.275 6.383-1.096 1.887.357-.634.731-1.257 1.096-1.887zm-12.303.362c1.933 1.617 6.268 3.39 2.021 1.492a11.3 11.3 0 0 1-2.021-1.492zm9.793.808c.152 1.542-.595 1.81-.951.963.314.293.906-.225.951-.963zm27.475 1.537c.712 1.764 2.342 6.879.873 2.569a62 62 0 0 1-.873-2.569zM7.584 39.705c1.782.814 5.819 2.971 1.666.863l-.836-.423zm10.656.254c-1.02 1.503-3.575 5.257-1.318 1.605.436-.537.899-1.054 1.318-1.605zm-6.246.105c1.643 1.286 1.794 2.145 0 0zm7.986.96c-.726 1.31-1.246 1.751 0 0zm34.428.962c-1.922.567-9.592 4.137-4.217 1.596 1.39-.576 2.824-1.032 4.217-1.596zm-16.084.436c.143 2.116 2.328 5.85.256 1.834a5.9 5.9 0 0 1-.256-1.834zm7.58.135c.174 2.234-.547 1.843 0 0zm-32.32.32c.357-.015.082.534 0 0zm27.303.44c1.097 2.666 3.304 5.57.797 1.888a11.6 11.6 0 0 1-.797-1.889zm14.584.234c-.778 1.267-2.75 2.201-4.557 2.812a15.2 15.2 0 0 0 4.557-2.812zm-45.6.334c2.42.653 4.335 1.415.81.375zm6.031.566c.587 1.8.852 3.334.139.56zm-8.37.586c2.013.899 3.824 1.776.716.49-.258-.135-.482-.32-.717-.49zm13.82.46c-.965 1.526-1.772 2.023 0 0zm-6.868 1.228c1.268 1.504-.864.603 0 0zm37.643 1.455c-1.4.859-4.83 1.319-1.342.556l.682-.254zm-37.385.078c.458 2.154.119 1.32 0 0zm2.022.096c.98 1.465-.113 2.19 0 0zm19.006.398c1.056 2.44 4.099 5.425.994 1.988a7.6 7.6 0 0 1-.994-1.988zm6.042.326c.67.502.539 1.198 0 0zm3.057.44c-.881 2.184-1.666 2.276-.08.1zm-35.941.433c1.753 1.14 8.118 1.363 2.64.953-.923-.168-1.835-.46-2.64-.953zm33.224.092c-.692 1.236-1.239 1.772 0 0zm-24.851 1.076c.632.222-.263.717 0 0zm23.789.418c-.78 1.595-1.248 1.998 0 0zm8.732 1.453c-1.849 1.06-5.724.952-1.611.563a9 9 0 0 0 1.611-.563zm-33.947 1.121c.932 2.2-5.367-.13-.66.936.479-.016.74-.51.66-.936zm26.1 1.793c1.516.274 4.788.168 1.447.186l-.725-.076zm-30.143.926c2.01.294 3.61.78.605.135zm4.072.486c.658-.002.24.847-.35.061q.21-.062.35-.06zm-7.588.147c1.199.529 1.088 1.151 0 0zm8.163 1.744c.912 1.132-1.238-.117 0 0zm-5.393 1.854c2.49.57 6.785.738 1.984.402a15 15 0 0 1-1.984-.402zm15.896.818c1.407 1.52 5.819 5.752 1.887 2.111-.672-.663-1.336-1.34-1.887-2.111zm-8.205.03c.434 2.12.331 5.571.147 1.54-.037-.515-.105-1.026-.147-1.54zm26.436.212c-1.279.39-2.164.436 0 0zm-34.346 1.484c1.628.186 8.378.516 3.381.301-1.131-.013-2.28 0-3.38-.3zm23.121 2.206c2.501-.02-.614.85 0 0zm-16.63.76c.756 1.583-.624 1.306 0 0zm15.913.2c-.706 1.19-.878.89 0 0zM9.69 68.491c1.28 1.023 6.548 1.697 2.381 1.095-.848-.224-1.668-.58-2.38-1.096zm6.94.976q.13-.008.371.043c.052.788-.982-.017-.371-.043zm12.035.004c.12.87-1.266.87 0 0zM14.52 71.303h.064c4.187.296-4.794.113-.3.004zm10.101.486c.213.092-.225.123 0 0zm7.434.16c.853.33 2.009.52 2.713.612-.279-.033-.473-.06-1.141-.12a9.3 9.3 0 0 1-1.572-.492zm-3.05.328c1.61.65-1.014.472 0 0zm-7.644.7c.459.23-.336.075 0 0zm4.504.189c-.11.405-.882.35 0 0zm2.053.406c.292.463.754.827 1.22 1.096-.055-.015-.077-.023-.136-.04-.352-.064-2.082-.346-1.084-1.056zm-11.092.33c.357.235-.401.072 0 0zm6.555.618c.207.184-.525-.02 0 0zm2.799 1.207c.21.57.731 1.015 1.26 1.345-.126-.044-.188-.072-.335-.12-.428-.22-1.204-.6-.925-1.225zm-1.528 2.029c.594.461-.493.132 0 0zm-.232.139c-.621 1.164-.808.433 0 0zm.414.18c1.678 1.118 5.575 2.547 1.516.945a10.6 10.6 0 0 1-1.516-.946zm-7.191 1.302c.544-.06-.09.658 0 0zm3.91 2.014c1.124.635-.593.517 0 0zm-.676.656c.775 1.248.255 1.384 0 0z" fill-rule="evenodd"/></svg>