<svg xmlns="http://www.w3.org/2000/svg" width="94.91" height="100" viewBox="0 0 75.928 80"><path d="M4.527.005C2.719-.028 1.14.702.32 2.852c-1.381 3.617 2.065 7.147 3.297 8.98.865 1.285 1.973 2.727 2.59 4.173.407.95.478 1.903.826 2.91.856 2.476 1.6 5.172 2.708 7.462.56 1.158 1.176 2.378 1.884 3.414.434.635 1.178.915 1.295 1.897-.727 1.092-.768 2.79-1.176 4.174-1.84 6.234-1.148 13.98 1.53 18.593.821 1.416 2.756 4.452 5.417 3.287 2.327-1.018 1.807-4.173 2.473-6.956.15-.631.058-1.095.353-1.517v.126l2.12 4.552c1.57 2.714 4.354 5.55 6.713 7.464 1.223.992 2.187 2.707 3.769 3.287v-.126H34c-.306-.513-.785-.725-1.177-1.138-.921-.97-1.947-2.177-2.709-3.289-2.146-3.129-4.043-6.553-5.77-10.118-.826-1.702-1.542-3.58-2.238-5.311-.268-.668-.264-1.68-.823-2.025-.762 1.269-1.884 2.296-2.474 3.795-.942 2.396-1.063 5.317-1.412 8.347-.207.08-.116.025-.238.126-1.64-.424-2.216-2.238-2.825-3.793-1.542-3.935-1.828-10.27-.471-14.799.35-1.171 1.937-4.861 1.295-5.944-.307-1.08-1.318-1.705-1.885-2.53-.7-1.021-1.4-2.363-1.884-3.541-1.262-3.068-1.85-6.512-3.178-9.613-.635-1.482-1.709-2.982-2.59-4.3-.977-1.459-2.07-2.534-2.827-4.3-.27-.627-.635-1.632-.236-2.277.127-.435.305-.615.706-.757.683-.566 2.586.187 3.297.504 1.889.843 3.464 1.645 5.064 2.783.768.547 1.545 1.604 2.473 1.897h1.06c1.658.41 3.515.128 5.064.633 2.737.894 5.19 2.283 7.419 3.794 6.787 4.603 12.338 11.155 16.134 18.972.61 1.258.875 2.46 1.413 3.795 1.085 2.692 2.453 5.461 3.532 8.094 1.078 2.626 2.127 5.277 3.65 7.462.801 1.149 3.895 1.765 5.3 2.403.986.448 2.6.913 3.533 1.517 1.783 1.155 3.51 2.53 5.183 3.796.836.632 3.403 2.018 3.531 3.16-4.14-.12-7.303.293-10.008 1.518-.768.348-1.995.357-2.12 1.392.422.476.488 1.185.824 1.77.645 1.123 1.736 2.627 2.709 3.416 1.063.861 2.159 1.782 3.298 2.528 2.027 1.328 4.29 2.086 6.24 3.416 1.151.783 2.294 1.771 3.417 2.656.554.437.927 1.117 1.648 1.39v-.126c-.379-.518-.477-1.23-.825-1.77l-1.531-1.644c-1.497-2.134-3.398-4.009-5.417-5.566-1.611-1.242-5.216-2.92-5.888-4.932l-.117-.127c1.142-.138 2.479-.581 3.533-.884 1.77-.51 3.353-.38 5.18-.886l2.474-.76v-.504c-.924-1.02-1.584-2.368-2.592-3.29-2.637-2.411-5.514-4.82-8.478-6.83-1.644-1.113-3.675-1.838-5.417-2.782-.586-.318-1.615-.483-2.002-1.012-.915-1.253-1.414-2.841-2.12-4.3-1.48-3.056-2.931-6.395-4.24-9.611-.894-2.194-1.477-4.356-2.591-6.324C40.547 19.211 34.79 13.511 25.875 7.91c-1.897-1.19-4.181-1.661-6.595-2.276l-3.886-.252c-.79-.355-1.613-1.395-2.355-1.898C11.193 2.23 7.54.059 4.527.005zm10.55 14.492c-.696.013-1.228.119-1.786.25v.125h.117c.407.898 1.124 1.478 1.628 2.251l1.164 2.624.117-.124c.72-.545 1.05-1.418 1.047-2.75-.289-.326-.33-.737-.581-1.126-.333-.519-.978-.812-1.397-1.249a8 8 0 0 0-.31-.001z"/></svg>