<svg xmlns="http://www.w3.org/2000/svg" width="88.19" height="100" viewBox="0 0 88.19 115.814"><path d="M73.676.009C64.62.185 55.601 2.61 46.01 5.419c-17.166 5.027-32.437 7.747-49.59.896 1.869 3.269 2.803 4.903 4.673 8.169l5.153 9.011 4.673 8.168c13.657 3.779 24.97-1.12 37.106-7.06 14.574-7.127 27.736-13.54 44.387-9.825C78.34 7.88 65.585 9.59 50.871 13.498 65.276 6.318 78.839.736 95.158 4.561 87.786 1.1 80.72-.128 73.676.01zM-5.672 6.564c-.198 0-.433.06-.718.213-.945.513-.456 1.461-.456 1.461L10.926 45.03h.09l15.36 31.952h-.012l13.507 27.952s1.36 2.633 4.281 1.178c2.92-1.454 1.446-3.734 1.446-3.734L32.155 76.982h-.086L15.154 45.03h.086L-4.854 7.082s-.225-.519-.818-.518z"/></svg>