<svg xmlns="http://www.w3.org/2000/svg" xml:space="preserve" viewBox="0 0 80 100"><path d="M6.406.188C3.006.188 0 3.013 0 6.313v.093c0 .2.313.488.313.688l6.78 61c.1.9.407 1.705.907 2.406.6 1.199 1.613 2.088 2.813 2.688l26.874 13.218c.9.398 1.82.594 2.72.594s1.787-.195 2.687-.594l26.812-13.219a6.18 6.18 0 0 0 3.406-5.78l6.594-60.5c0-.2.094-.52.094-.72v-.093c0-3.1-2.788-5.906-6.187-5.906zM63.25 20h4.188v4.719h-1.313c-1.811 0-3.01.292-3.562.906-.54.6-.813 1.895-.813 3.875v3.469c0 2.189-.266 3.791-.844 4.781s-1.587 1.651-3 2c1.426.377 2.435 1.07 3 2.06.578.992.844 2.576.844 4.75v3.471c0 1.995.274 3.276.813 3.875.552.614 1.751.938 3.562.938h1.313v4.687H63.25q-4.199-.002-6.125-1.843c-1.284-1.228-1.906-3.185-1.906-5.877v-4c0-2.092-.339-3.566-1.032-4.373-.693-.823-1.957-1.22-3.78-1.22h-1.188v-4.657h1.187c1.824 0 3.088-.408 3.782-1.217.692-.81 1.03-2.252 1.03-4.344v-4.312c0-2.692.623-4.631 1.907-5.844Q59.051 20 63.25 20zm-35.844 2.438c2.877 0 5.463.58 7.813 1.78 2.35 1.186 4.327 2.912 5.906 5.157a15.6 15.6 0 0 1 2.188 4.469c.5 1.59.75 3.242.75 5 0 3.779-1.064 6.72-3.157 8.812s-5.03 3.125-8.843 3.125h-.75v-3.22c-.386.99-1.016 1.787-1.875 2.345-.848.544-1.859.813-3 .813-2.21 0-3.989-.865-5.375-2.594C19.689 46.382 19 44.101 19 41.311s.677-5.036 2.063-6.78c1.386-1.743 3.179-2.625 5.375-2.625 1.141 0 2.152.286 3 .844.86.558 1.49 1.32 1.875 2.31v-2.75h4.03v14.5c1.593-.263 2.839-1.072 3.75-2.466.912-1.41 1.343-3.218 1.344-5.407 0-1.394-.158-2.692-.53-3.906a11 11 0 0 0-1.72-3.375c-1.22-1.7-2.726-3.017-4.562-3.937-1.823-.921-3.807-1.375-5.937-1.375-1.49 0-2.92.224-4.282.656a13.1 13.1 0 0 0-3.781 1.844c-1.9 1.367-3.373 3.137-4.437 5.312-1.053 2.162-1.594 4.507-1.594 7.032 0 2.077.35 4.046 1.031 5.873.693 1.814 1.672 3.419 2.969 4.814a13.1 13.1 0 0 0 4.437 3.094 13.1 13.1 0 0 0 5.313 1.092 12.9 12.9 0 0 0 4.875-.967c1.618-.656 2.982-1.542 4.125-2.657l2.062 3.374c-1.605 1.353-3.349 2.384-5.25 3.095-1.887.725-3.798 1.094-5.75 1.094-2.375 0-4.644-.455-6.75-1.375-2.106-.907-3.98-2.225-5.625-3.969-1.643-1.743-2.889-3.775-3.75-6.062-.86-2.301-1.281-4.772-1.281-7.407 0-2.538.44-4.949 1.313-7.25s2.1-4.319 3.718-6.062a17.25 17.25 0 0 1 5.656-4.031 16.5 16.5 0 0 1 6.72-1.407zm-.281 13.343c-1.13 0-2.038.51-2.719 1.5-.668.977-1 2.313-1 4q-.001 2.576 1 4.063c.681.99 1.595 1.468 2.75 1.467 1.143 0 2.07-.477 2.75-1.467.681-1.004 1-2.36 1-4.063 0-1.687-.338-3.023-1.031-4-.681-.99-1.594-1.5-2.75-1.5z"/></svg>