<svg xmlns="http://www.w3.org/2000/svg" viewBox="0 0 93.65 100" version="1.0"><path d="M64.035.01a23 23 0 0 0-1.455.004c-.667.02-1.387.07-2.142.105-2.243.41-4.334 1.323-6.485 1.986-3.329 1.143-6.528 3.097-7.902 6.065-.345.658-1.853 2.79-2.635 3.758-1.463 1.494-3.32 2.72-5.187 3.795-2.318 1.206-4.21 2.798-6.485 5.46-2.3 2.767-2.499 5.172-3.646 8.3-1.769 1.636-3.165-.622-2.715-2.2 1.082-3.818 3.027-7.261 2.756-11.312C27.467 10.637 24.954 3.516 17.72 3.1c-1.617.004-2.076.227-3.89 1.666-1.216.963-2.025 1.291-4.013 1.738-2.374.51-4.906.156-7.132 1.062C1.62 8.113.334 9.78.05 10.973c-.237.996.33 1.982 1.459 2.517 2.275.936 6.155.238 6.646 3.014-.773 2.94-2.878 4.973-2.756 7.908-.15 3.211.319 5.863.569 9.006.33 3.852 3.508 5.896 5.713 9.115 3.319 3.706 9.21 7.576 14.873 6.063 1.966-.556 2.754-.458 3.486.46.5.628.569 1.206.283 2.59-.348 1.69-.345 4.898 0 6.702.256 1.336.446 3.368.446 4.504 0 .928.21 2.09.486 3.05.18.626.21 1.282.283 3.405.05 1.433.135 2.832.203 3.119.23.972.179 1.763-.324 4.787-.213 1.28-.952 3.62-1.459 4.611-.274.535-1.1 1.785-1.701 2.801l.12.035c1.003-.079 2.559-.148 4.782-.283.28-1.23.51-2.526.569-3.44.057-.892.197-1.918.365-2.624.151-.64.301-1.707.363-2.376.145-1.57.285-2.025 1.135-3.617.386-.724.824-1.68.972-2.129.26-.783.268-.935.245-3.226-.022-2.084.032-2.512.242-3.617.417-2.196.611-2.85 1.42-4.291 1.099-1.96 1.191-2.258 1.297-4.041.122-2.08.51-3.16 1.336-3.903.464-.418.865-.638 1.62-.709.252-.023.554.001.893 0 1.43-.003 2.07.167 2.512.674.414.476.461 1.062.123 2.342a17 17 0 0 0-.406 2.305c-.14 1.517-.442 2.379-1.215 3.58-.986 1.53-1.013 1.666-1.014 4.22-.001 2.052.018 2.262.242 2.873.134.365.403.855.61 1.1.46.544 1.828 1.57 3.281 2.48 1.407.883 3.008 2.24 3.973 3.37 1.024 1.188 2.49 2.364 2.673 3.902.003 1.124-.743 2.542-1.822 3.475-.553.478-.933.702-2.027 1.17-1.506.643-2.073 1.06-2.188 1.595a.6.6 0 0 0 0 .319c2.661-.024 5.358-.008 8.065.072.312-.26.586-.583.81-.994.411-.753.727-1.128 1.135-1.098s.875.48 1.5 1.31q.454.605.89.995c1.096.062 2.17.133 3.243.213.397-.428.658-1.073.81-1.987.106-.628.101-.912-.04-1.63-.325-1.648-.772-2.29-2.108-3.264-.45-.33-.942-.757-1.094-.957-.402-.531-.528-1.234-.365-1.914.2-.829 1.125-2.299 2.19-3.547.953-1.118 1.453-1.817 2.228-3.121.29-.489.723-.968 1.379-1.56.525-.475 1.101-1.139 1.297-1.454l.324-.566v-3.229c-.013-2.3.139-4.53.486-6.808.288-2.732 1.395-4.888 2.918-7.235.871-1.574 1.28-2.02 2.026-2.02 1 0 1.61.97 1.904 3.014.337 2.007 1.453 3.724 2.148 5.639.424 1.364.728 1.977 1.704 3.687.925 1.624 1.705 3.434 1.945 4.54.127.585.161 1.396.162 3.085 0 2.489.095 3.478.445 4.75.267.967.397 3.74.284 5.604-.067 1.09-.09 1.232-.77 2.978-.996 2.562-1.224 3.312-1.418 4.612-.187 1.252-.313 1.554-.973 2.8-.04.076-.047.14-.082.213 3.44.492 5.477.856 6.647 1.065.145-.913-.14-1.85-.08-2.768.16-.226-.218-1.833-.852-3.545-1.007-2.72-1.085-3.155-.568-5 .09-.32.23-1.386.285-2.376.104-1.903.202-2.381.77-3.618.509-1.108.657-1.597.728-2.73.082-1.317-.096-2.09-.648-3.227-.547-1.124-.617-1.636-.364-2.836.275-1.298.274-4.347 0-5.32-.272-.967-.411-4.474-.365-8.97l.566-5.499c.874-2.974 1.407-4.04 2.108-4.04.642 0 1.247.917 1.662 2.587.254 1.549.125 3.14.445 4.682.415 2.13-.247 4.26-1.498 6.097-.742 1.14-.998 1.96-.81 2.555.15.475.703 1.005 1.135 1.1.187.04.42-.025.687-.143.33-.145.667-.508 1.824-2.021.785-1.026 1.532-2.111 1.662-2.412 1.08-4.141 1.124-7.196.528-11.276 0-2.65-.42-3.642-2.514-5.638-3.922-4.27-6.184-8.018-8.434-13.051-.776-1.128-1.905-2.497-2.755-3.334-1.323-1.303-2.114-2.594-2.838-4.54-1.043-2.316-1.936-5.051-3.485-7.056-1.459-1.43-2.819-3.001-4.945-3.725C66.778.278 65.45.057 64.034.01zm-3.678 49.187c.16.01.31.092.487.213.498.343.615.729.89 3.334.144 1.36.332 3.065.448 3.795.511 3.22.592 4.228.445 5.318-.076.562-.154 1.719-.203 2.553-.14 2.35-.521 3.393-1.986 5.604-.448.674-.995 1.546-1.215 1.95-.438.807-.91 1.349-1.38 1.561-.46.209-1.062.17-1.66-.107-.821-.38-2.317-1.395-3.038-2.055-.77-.707-1.1-1.087-1.987-2.482-1.01-1.585-1.135-1.918-1.135-2.625 0-.924.385-1.61 1.418-2.483a97 97 0 0 0 2.149-1.878c1.491-1.35 1.53-1.418 1.904-3.334.339-1.737.348-1.766 1.744-3.545.5-.638.737-1.217 1.336-3.192.554-1.825.806-2.278 1.258-2.482.217-.098.366-.152.525-.143z"/></svg>