<svg xmlns="http://www.w3.org/2000/svg" xml:space="preserve" viewBox="0 0 512.04 512.04"><path d="M228.453 77.611c-66.042.343-137.667 35.912-181.842 71.987-25.6 20.9-57.6 54.2-42.9 89 15.9 37.8 64.7 57.199 96.5 80.298-25.7 12.8-57.9 26-74.5 49.9-9.5 13.7-12.899 28.4-5.799 44 12.6 27.6 58.3 15.6 77.6 3.5 17.7-11.1 29.599-26.098 34.699-45.198 4.5-16.6 3.501-33.9-3.899-49.5l28.6-14.5c-7.7 23.1-11.1 51.998 4.9 72.898 6.4 8.3 23 8.7 29.8.3 8.8-10.9 14.7-24.698 20.5-37.198-.7 9.4-1.9 19.999 1.4 28.199 3.7 9.4 12.1 11.3 20.8 5.3 26.5-18.2 43.4-68.7 56.5-98.1 3.6 12.8 7.5 24.5 14 36.4 1.6 2.9 1.4 4.8-.8 7.2-9.7 10.7-32.8 28.5-35.1 42.9-.5 3.4 1.7 6.6 5.7 7.4 15.6 3.1 32.8-2.5 45.5-11.1 13.2-8.9 17.4-21.1 14.2-35.5-4.6-20.8 11-44 25.8-61 2.7 12.9 6.799 25.3 14.099 36.6-13.1 11.5-32.599 27.8-29.799 46.9 1 6.9 7.1 11.3 14.5 9.7 15.8-3.3 29.4-10.1 39.4-22.1 9-10.9 5.799-22.7 1.899-34.6 23.9-6.8 48-8.2 71.8 0 11.5 3.9 20.8 10.5 26.2 20.8 6.7 12.6 2.9 24.3-10 32.6-3.3 2.1-5.6 3.8-4.5 4.7s4.9 2.1 13.3-3.2 13.501-12.4 14.801-21.7q.45-3.9 0-7.8c-1.659-13.274-8.875-23.58-20.005-31.785-.473-.329-.131-.078-.895-.615-28.5-20.3-65.701-15.8-96.701-4.5-12.4-20.3-12.999-35.8-5.799-57.9.9-2.8.3-4.4-2.6-5.6-7.1-3-17.3-1.4-24.4.5-2.5.6-4.3 1.9-4.8 4.4-5.2 24.2-21 46.4-34.8 66.9-9.7-18.7-9-33.1-2.4-52.5.8-2.4.4-3.6-1.9-4.9-7.3-3.8-18.401-1.9-25.801.3-8.5 2.5-21.298 44.6-25.399 52.9-8.5 17.4-16.101 44.7-30.601 58.5-12.3-15.8 22.5-51.5 10.9-65.9-3.9-4.8-11.1-4.7-15.6-.6 1.1-7.6 1.6-12.6-.3-19.1-2.1-6.8-7.4-10.7-15.1-10.5-18 .5-33.8 13.8-44.6 26.4-10.3 12.1-37.4 19.6-52 26.9-25-21.8-79.199-44.9-80.599-82.1-1.5-41.8 48.3-70.2 81.6-87.2 43.3-22.1 110-49.6 159.1-25.4 13 6.4 18.3 20.2 14.7 33.3-9.4 34.4-47.201 57.3-80.101 67.8-16.2 5.2-34 9-51.1 8-23-1.3-40.798-15.2-43.298-16.1-2-.4-1.901 2.3-1.301 3.7 23.8 62.4 144.4 16.7 176-15.4 15.2-15.4 24.4-30.4 28.4-53.9 4.6-27.6-15.6-44.8-31-52-19.55-9-40.945-12.8-62.959-12.686zm263.354 217.301c2.867 1.995 1.695 1.102-.795-.615.277.198.522.414.795.615zm-278.453-19.408c2.039.206 3.108 1.592 2.658 3.992-3.9 22.3-14.801 62.3-32.301 78.3-2.4 2.1-4.599 2-5.799-.8-10.3-24.1 3.7-73.699 33.1-81.299.875-.2 1.662-.262 2.342-.193zm166.058 37.992c4.4 11.4-.9 23.902-12.3 30.102-2.3 1.3-7.6 2.498-7.8.798-1.5-12.1 11.8-24.9 20.1-30.9zm-269 18c2.1 6.8 3.1 13.6 2.5 20.5-1.4 16.7-9.601 30.202-23.201 41.102-7.6 6.2-17.1 11.2-26.5 12.1s-16.799-1.502-17.398-11.202c-1.8-27.5 40.9-54.4 64.6-62.5zm201.299 2.9c1 10-17.599 29.9-25.299 26.9 8.4-9 16.799-17.9 25.299-26.9z"/></svg>