<svg xmlns="http://www.w3.org/2000/svg" width="17" height="17" viewBox="0 0 17 17"><path d="M11.715 0c-1.187.276-2.046.777-2.557 1.514-.51.735-.776 1.614-.797 2.625.48-.041.828-.102 1.063-.174q.551-.186 1.103-.736.646-.645.952-1.41c.194-.502.296-.97.296-1.39 0-.071-.011-.133-.011-.204-.01-.061-.03-.133-.05-.225zm.172 3.842c-.501 0-1.094.122-1.768.345-.675.235-1.165.348-1.46.348q-.354 0-1.411-.306c-.715-.204-1.309-.305-1.809-.305-1.176 0-2.135.49-2.9 1.47-.766.992-1.154 2.258-1.154 3.82 0 1.676.512 3.382 1.502 5.14C3.897 16.11 4.909 17 5.96 17c.337 0 .788-.112 1.35-.348.553-.224 1.042-.338 1.45-.338.42 0 .939.104 1.542.329.614.214 1.083.326 1.431.326.868 0 1.746-.664 2.625-2.002.592-.89 1.001-1.748 1.256-2.555q-.905-.275-1.613-1.287a3.9 3.9 0 0 1-.705-2.277c0-.776.225-1.483.664-2.116.245-.357.634-.756 1.166-1.205a5.2 5.2 0 0 0-1.065-1.021 3.73 3.73 0 0 0-2.175-.664zm-.002 1c.609 0 1.134.158 1.61.488q.099.069.204.154a5.3 5.3 0 0 0-.562.678 4.62 4.62 0 0 0-.842 2.686c0 1.048.296 2.005.883 2.85q.53.757 1.181 1.206a9.7 9.7 0 0 1-.836 1.514c-.657 1-1.294 1.553-1.79 1.553-.148 0-.459-.049-1.08-.266-.694-.259-1.331-.389-1.893-.389q-.812 0-1.838.414c-.58.243-.865.27-.961.27-.628 0-1.411-.762-2.203-2.137-.923-1.639-1.373-3.16-1.373-4.648 0-1.336.31-2.386.941-3.205.58-.741 1.251-1.086 2.113-1.086.401 0 .903.086 1.53.265 1.05.305 1.444.346 1.69.346.424 0 1.01-.131 1.777-.398.589-.196 1.076-.295 1.449-.295z"/></svg>