<svg xmlns="http://www.w3.org/2000/svg" width="17" height="17" viewBox="0 0 17 17"><path d="M7.5 0C6.673 0 6 .673 6 1.5v3.451l.31 1.08H1.5c-.827 0-1.5.673-1.5 1.5v3.487h.932L.166 17h16.668l-.766-5.982H17V7.53c0-.827-.673-1.5-1.5-1.5h-4.809l.286-.914L11 1.5C11 .673 10.327 0 9.5 0zm0 1h2a.5.5 0 0 1 .5.5v3.393L9.332 7.03H15.5a.5.5 0 0 1 .5.5v2.487H1V7.53a.5.5 0 0 1 .5-.5h6.164L7 4.877V1.5a.5.5 0 0 1 .5-.5zM8 2v1h1V2zm-6.06 9.018h13.12L15.698 16H14v-2h-1v2h-1v-3h-1v3h-1v-4H9v4H4v-2H3v2H1.303z"/></svg>