<svg xmlns="http://www.w3.org/2000/svg" width="17" height="17" viewBox="0 0 17 17"><path d="M7.75 1.5a4.7 4.7 0 0 0-4.396 3.002C1.53 4.415 0 5.924 0 7.75A3.254 3.254 0 0 0 3.25 11h3.7v-1h-3.7A2.253 2.253 0 0 1 1 7.75C1 6.509 2.01 5.5 3.25 5.5c.125 0 .244.018.363.037l.436.072.125-.421A3.715 3.715 0 0 1 7.75 2.5c1.073 0 2.101.478 2.82 1.307l.266.304.353-.193A3.2 3.2 0 0 1 12.75 3.5 3.254 3.254 0 0 1 16 6.75 3.254 3.254 0 0 1 12.75 10H9.992v1h2.758A4.255 4.255 0 0 0 17 6.75a4.255 4.255 0 0 0-4.25-4.25c-.578 0-1.145.123-1.691.367A4.73 4.73 0 0 0 7.75 1.5zm.75 3.793L5.646 8.146l.708.708L8 7.207V15h1V7.207l1.646 1.647.708-.708z"/></svg>