<svg xmlns="http://www.w3.org/2000/svg" width="17" height="17" viewBox="0 0 17 17"><path d="M7.75 3.5a4.7 4.7 0 0 0-4.396 3.002C1.55 6.428 0 7.923 0 9.75A3.254 3.254 0 0 0 3.25 13h9.5A4.255 4.255 0 0 0 17 8.75a4.255 4.255 0 0 0-4.25-4.25c-.578 0-1.146.123-1.691.367A4.73 4.73 0 0 0 7.75 3.5zm0 1a3.74 3.74 0 0 1 2.82 1.307l.266.306.353-.195A3.2 3.2 0 0 1 12.75 5.5 3.254 3.254 0 0 1 16 8.75 3.254 3.254 0 0 1 12.75 12h-9.5A2.25 2.25 0 0 1 1 9.75 2.25 2.25 0 0 1 3.25 7.5c.125 0 .244.018.363.037l.436.072.125-.421C4.652 5.58 6.089 4.5 7.75 4.5z"/></svg>