<svg xmlns="http://www.w3.org/2000/svg" width="17" height="17" viewBox="0 0 17 17"><path d="M7.926.5c-.101 1.066-.42 1.504-.803 1.805-.774.619-1.265.811-1.95 1.175-.573.301-3.671 2.14-3.671 6.114 0 3.98 3.343 6.906 7.06 6.906 3.71 0 6.936-2.697 6.936-6.78 0-4.09-3.026-5.939-3.518-6.24-.81-.51-1.586-.71-2.36-1.22C9.145 1.94 8.48 1.165 7.925.5zm-.828 9.154c1.805-.017 3.052 1.79 3.953 1.772.774-.01 2.25-1.524 2.978-1.524.775 0 .987.803.987 1.276 0 .483-.158 1.34-.522 1.886-.373.537-.6.738-1.037.702-.557-.036-1.66-1.777-2.37-1.803-.892-.03-2.833 1.865-4.364 1.865-.92 0-1.202-.127-1.512-.336-.465-.318-.685-.819-.676-1.494.02-1.203 1.14-2.334 2.563-2.344zm3.466 3.39.168.003c.246 0 .51.019.692.137.183.127.292.4.357.554.064.156 0 .249-.129.313-.109.054-.116.026-.226-.174-.108-.2-.202-.402-.739-.402s-.71.192-.974.402c-.255.218-.355.29-.447.174-.091-.128-.063-.249.111-.403.172-.156.445-.4.71-.51.198-.081.323-.093.477-.093zm1.48 1.647c.054.006.08.056.09.096.02.064.047.156-.062.264-.072.073-.784.564-1.623.646-.829.074-1.959.127-2.633-.492a.23.23 0 0 1 0-.326c.082-.063.137-.11.237-.11.092 0 .074 0 .119.036.31.237.774.447 1.758.447s1.678-.284 1.988-.512c.054-.04.095-.052.127-.049z"/></svg>