<svg xmlns="http://www.w3.org/2000/svg" width="17" height="17" viewBox="0 0 17 17"><path d="M6.385 0c-.644 0-1.286.071-1.91.205-1.86.408-3.36 2.063-3.36 4.004 0 2.054 1.716 3.516 3.698 3.516.234 0 .468-.021.714-.051-.104.316-.224.54-.224.877 0 .573.316 1.082.652 1.521-1.829.051-4.668.524-5.576 2.362-.215.429-.379.899-.379 1.379C0 16.183 2.76 17 4.67 17c1.512 0 3.116-.328 4.29-1.34.87-.756 1.43-1.706 1.43-2.88 0-2.86-3.066-3.382-3.066-4.7 0-1.349 2.29-1.553 2.29-4.26 0-1.144-.51-2.38-1.522-3.013h1.38L10.853 0zm6.691 0v2.615h-2.613v1.309h2.613v2.615h1.309V3.924H17V2.615h-2.615V0zm-8.08.736c1.89 0 2.729 2.565 2.729 4.118 0 1.246-.481 2.256-1.88 2.257-1.818 0-2.84-2.432-2.84-3.984 0-1.206.654-2.39 1.991-2.39zm1.06 9.95c.175 0 .338 0 .512.02 1.041.725 2.381 1.522 2.381 2.952 0 1.788-1.697 2.403-3.219 2.403-1.635 0-3.841-.758-3.841-2.72 0-2.124 2.494-2.655 4.168-2.655z"/></svg>