<svg xmlns="http://www.w3.org/2000/svg" width="17" height="17" viewBox="0 0 17 17"><path d="M8.488 0c-.78 0-1.425.595-1.492 1.352a1.5 1.5 0 0 0-.5-.084c-.83 0-1.504.664-1.504 1.482v4.393l-.236-.266c-.578-.674-1.324-.85-2-.469a1.48 1.48 0 0 0-.707.91c-.101.383-.045.781.135 1.08l3.29 7.01c.138.231.328.417.56.545v.547a.5.5 0 0 0 1 0v-.885a.5.5 0 0 0-.382-.486.5.5 0 0 1-.295-.188l-3.29-7.01a.467.467 0 0 1 .181-.654c.097-.056.361-.203.754.256l1.115 1.254a.505.505 0 0 0 .553.135.5.5 0 0 0 .32-.467V2.75c0-.266.227-.482.506-.482.252 0 .467.18.5.418Q7 2.69 7 2.696v4.591a.5.5 0 0 0 1 0V2.393c0-.016-.008-.03-.01-.045v-.866c0-.27.22-.482.498-.482.284 0 .526.221.526.482v.795C9.01 2.298 9 2.317 9 2.34v4.896a.5.5 0 1 0 1 0v-4.48c.002-.014.01-.026.012-.04.016-.24.27-.448.545-.448.306 0 .445.25.445.482v1.406l-.004.016L11 8.258a.5.5 0 0 0 1 0l-.002-3.862.004-.007c.009-.258.241-.47.52-.47a.47.47 0 0 1 .478.483v7.258c0 .693-.323 1.664-.582 2.444C12.185 14.8 12 15.35 12 15.75v.75a.5.5 0 0 0 1 0v-.75c0-.238.186-.792.365-1.33.298-.891.635-1.904.635-2.76V4.402c0-.832-.649-1.481-1.477-1.48q-.274 0-.52.09V2.75c0-.832-.635-1.482-1.446-1.482q-.29.001-.547.1C9.948.603 9.29 0 8.488 0z"/></svg>