<svg xmlns="http://www.w3.org/2000/svg" width="17" height="17" viewBox="0 0 17 17"><path d="M9.87 2.996a1.46 1.46 0 0 0-.7.186L2.072 6.469c-.244.136-.44.331-.574.564H1a.5.5 0 0 0 0 1h.832c.23 0 .43-.156.484-.379a.5.5 0 0 1 .211-.297L9.623 4.07a.55.55 0 0 1 .742.19c.085.143.173.289-.287.748l-1.21 1.111a.503.503 0 0 0 .337.87h6.182c.295 0 .535.226.535.505 0 .278-.24.504-.535.504h-3.631a.5.5 0 0 0-.066.996.536.536 0 0 1 .462.522c0 .275-.24.5-.535.5H10.35a.498.498 0 0 0-.032.998.52.52 0 0 1 .498.502c0 .279-.239.505-.535.505H8.72a.5.5 0 0 0-.018 1c.258.01.52.171.52.463 0 .28-.244.516-.535.516H5.5c-.494 0-1.29-.29-1.994-.547C2.81 13.2 2.258 13 1.856 13H1a.5.5 0 0 0 0 1h.855c.228 0 .802.21 1.31.395.78.284 1.665.605 2.335.605h3.186c.846 0 1.535-.68 1.535-1.516a1.4 1.4 0 0 0-.075-.463h.135c.847 0 1.537-.675 1.537-1.505q0-.266-.09-.504c.796-.056 1.424-.705 1.424-1.496q0-.273-.09-.518h2.325c.847 0 1.535-.675 1.535-1.504 0-.83-.69-1.506-1.535-1.506H10.49l.281-.26c.28-.28 1.028-1.025.454-1.982a1.56 1.56 0 0 0-1.356-.75z"/></svg>