<svg xmlns="http://www.w3.org/2000/svg" width="17" height="17" viewBox="0 0 17 17"><path d="M7.064 3.002a1.55 1.55 0 0 0-1.367.742c-.575.958.173 1.703.469 1.998l.266.246H1.535C.688 5.988 0 6.664 0 7.494s.688 1.504 1.535 1.504h2.326a1.5 1.5 0 0 0-.091.518c0 .79.628 1.44 1.423 1.496a1.5 1.5 0 0 0-.088.504c0 .83.689 1.505 1.536 1.505h.134a1.4 1.4 0 0 0-.074.463c0 .836.688 1.516 1.535 1.516h3.186c.67 0 1.555-.321 2.336-.605.507-.185 1.081-.395 1.308-.395h.856a.5.5 0 0 0 0-1h-.856c-.403 0-.954.2-1.65.453-.703.256-1.5.547-1.994.547H8.236a.533.533 0 0 1-.535-.516c0-.292.262-.454.52-.463a.5.5 0 0 0-.018-1H6.641c-.295 0-.536-.226-.536-.505 0-.264.219-.482.499-.5a.501.501 0 0 0-.032-1H5.305c-.295 0-.535-.225-.535-.5 0-.26.201-.489.46-.522a.499.499 0 0 0-.064-.996h-3.63C1.24 7.998 1 7.772 1 7.494a.52.52 0 0 1 .533-.506h6.182a.5.5 0 0 0 .338-.87L6.857 5.022c-.474-.474-.386-.62-.3-.763.148-.25.481-.332.775-.168l7.027 3.25c.124.07.212.181.246.314a.5.5 0 0 0 .485.38h.832a.5.5 0 0 0 0-1h-.5a1.57 1.57 0 0 0-.608-.585L7.785 3.197a1.54 1.54 0 0 0-.72-.195z"/></svg>