<svg xmlns="http://www.w3.org/2000/svg" width="17" height="17" viewBox="0 0 17 17"><path d="M2.926 0 0 3.088V9.52h.936L0 10.69V17h17v-6.26l-1.047-1.22H17V3.15L14.076 0zm.43 1H13.64l1.853 2H1.461zM1 4h15v4.52H1zm12.5 1c-.827 0-1.5.673-1.5 1.5a1.5 1.5 0 0 0 3 0c0-.827-.673-1.5-1.5-1.5zm0 1a.5.5 0 1 1 0 .996.5.5 0 0 1 0-.996zM2.215 9.52h12.424L15.906 11H1.033zM1 12h15v4H1zm12.5.5c-.827 0-1.5.673-1.5 1.5s.673 1.5 1.5 1.5S15 14.827 15 14s-.673-1.5-1.5-1.5zm0 1c.275 0 .5.225.5.5s-.225.5-.5.5a.5.5 0 0 1-.5-.5c0-.275.225-.5.5-.5z"/></svg>