<svg xmlns="http://www.w3.org/2000/svg" width="17" height="17" viewBox="0 0 17 17"><path d="M4.5.658a4.505 4.505 0 0 0-4.5 4.5c0 .343.048.698.154 1.117l.11.352c1.432 4.354 7.659 9.392 7.924 9.603l.312.252.313-.252c.281-.227 6.926-5.597 7.927-9.613l.112-.369A4.4 4.4 0 0 0 17 5.158c0-2.48-2.019-4.5-4.5-4.5a4.51 4.51 0 0 0-4 2.44 4.51 4.51 0 0 0-4-2.44zm0 1c1.93 0 3.5 1.571 3.5 3.5v.252h1v-.252c0-1.93 1.57-3.5 3.5-3.5s3.5 1.57 3.5 3.5c0 .258-.038.527-.111.822l-.114.37c-.809 3.246-5.945 7.727-7.275 8.843C7.218 14.11 2.378 9.855 1.215 6.32l-.1-.314A3.5 3.5 0 0 1 1 5.158c0-1.93 1.57-3.5 3.5-3.5z"/></svg>