<svg xmlns="http://www.w3.org/2000/svg" width="17" height="17" viewBox="0 0 17 17"><path d="M4 4C1.794 4 0 5.794 0 8s1.794 4 4 4a3.98 3.98 0 0 0 3.113-1.49l.01.008.822-1.02-.777-.629-.816 1.014-.01-.008A2.99 2.99 0 0 1 4 11c-1.654 0-3-1.346-3-3s1.346-3 3-3c.856 0 1.673.368 2.242 1.008l3.635 4.482-.006.002c.012.015.028.025.04.04l.013.017h.002A3.98 3.98 0 0 0 13 12c2.206 0 4-1.794 4-4s-1.794-4-4-4a4 4 0 0 0-3.002 1.357l.004.004-.947 1.174.777.63.947-1.177A3 3 0 0 1 13 5c1.654 0 3 1.346 3 3s-1.346 3-3 3c-.9 0-1.736-.4-2.309-1.094L6.992 5.348l-.04-.053-.009.006A4 4 0 0 0 4 4z"/></svg>