<svg xmlns="http://www.w3.org/2000/svg" width="17" height="17" viewBox="0 0 17 17"><path d="M8.5 0C5.468 0 3 2.616 3 5.832c0 2.354.964 3.671 1.814 4.832C5.451 11.532 6 12.283 6 13.338v2.096C6 16.298 6.673 17 7.5 17h2c.827 0 1.5-.702 1.5-1.566v-2.127c0-1.045.517-1.736 1.17-2.61C12.985 9.607 14 8.25 14 5.832 14 2.616 11.532 0 8.5 0zm0 1C10.981 1 13 3.167 13 5.832c0 2.085-.829 3.196-1.63 4.268-.588.785-1.19 1.593-1.337 2.7H6.961c-.152-1.101-.754-1.928-1.34-2.728C4.824 8.984 4 7.86 4 5.832 4 3.167 6.019 1 8.5 1zM7 13.8h3v1.634c0 .313-.225.566-.5.566h-2c-.275 0-.5-.253-.5-.566z"/></svg>