<svg xmlns="http://www.w3.org/2000/svg" width="17" height="17" viewBox="0 0 17 17"><path d="m2.135 3.137-.598.318.072.281.473-.256h.01v2.383h.355V3.137zM5 4v1h12V4zM1.96 7.113a1.2 1.2 0 0 0-.77.278l.117.26a.93.93 0 0 1 .58-.231c.406 0 .54.254.54.531-.003.411-.319.765-1.015 1.428l-.289.281v.227h1.74V9.58H1.64v-.008l.218-.2c.574-.555.94-.962.94-1.466 0-.39-.248-.793-.836-.793zM5 8v1h12V8zm-3.04 3.09c-.293 0-.57.105-.714.21l.098.268a1 1 0 0 1 .545-.18c.34 0 .478.193.478.41 0 .324-.34.464-.607.464h-.207v.275h.205c.357 0 .7.163.705.545.005.227-.142.53-.615.53-.257 0-.502-.105-.606-.173l-.1.286c.135.089.403.185.71.185.654 0 .994-.382.994-.818 0-.382-.274-.634-.61-.701v-.008c.336-.121.504-.36.504-.643 0-.33-.242-.65-.78-.65zM5 12v1h12v-1z"/></svg>