<svg xmlns="http://www.w3.org/2000/svg" width="17" height="17" viewBox="0 0 17 17"><path d="M12.41 1.393c-.449 0-.768.323-1.107.666l-9.035 9.037-.336 2.955.105.103-.973.973 1.194.22.486-.486.106.106 2.953-.334L14.5 5.936l.455.455a.25.25 0 0 1 .076.246c-.026.14-.129.309-.283.463l-3.016 3.017.707.707 3.016-3.017c.303-.302.498-.646.56-.99a1.24 1.24 0 0 0-.35-1.133l-.546-.543c.078-.18.129-.369.14-.563a1.45 1.45 0 0 0-.415-1.13l-1.746-1.745c-.206-.206-.438-.31-.688-.31zm-.02 1.017 1.747 1.744c.12.12.129.279.125.362a.73.73 0 0 1-.219.463l-2.371 2.37L9.55 5.23l2.465-2.465c.136-.14.34-.347.375-.354zM8.845 5.936l2.12 2.12-5.62 5.622-2.13.24-.234-.234.243-2.127z"/></svg>