<svg xmlns="http://www.w3.org/2000/svg" width="17" height="17" viewBox="0 0 17 17"><path d="M8 0v.05C5.756.304 4 2.19 4 4.5v3C4 9.981 6.019 12 8.5 12S13 9.981 13 7.5v-3C13 2.189 11.244.303 9 .05V0zm0 1.05V4h1V1.05q.531.077 1 .302V4h1V2.059c.617.63 1 1.491 1 2.441V5H5v-.5c0-.95.383-1.811 1-2.441V4h1V1.352a3.5 3.5 0 0 1 1-.301zM5 6h7v1.5c0 1.93-1.57 3.5-3.5 3.5S5 9.43 5 7.5zM2 7v3.25C2 12.317 4.019 14 6.5 14H8v3h1v-3h1.5c2.481 0 4.5-1.683 4.5-3.75V7h-1v3.25c0 1.517-1.57 2.75-3.5 2.75h-4C4.57 13 3 11.767 3 10.25V7z"/></svg>