<svg xmlns="http://www.w3.org/2000/svg" width="17" height="17" viewBox="0 0 17 17"><path d="M1 0v17h15V0zm1 1h2v1.092c-.581.207-1 .757-1 1.408C3 4.327 3.673 5 4.5 5S6 4.327 6 3.5c0-.651-.419-1.201-1-1.408V1h3v1.092c-.581.207-1 .757-1 1.408C7 4.327 7.673 5 8.5 5S10 4.327 10 3.5c0-.651-.419-1.201-1-1.408V1h3v1.092c-.581.207-1 .757-1 1.408 0 .827.673 1.5 1.5 1.5S14 4.327 14 3.5c0-.651-.419-1.201-1-1.408V1h2v15H2zm2.5 2c.275 0 .5.225.5.5s-.225.5-.5.5a.5.5 0 0 1-.5-.5c0-.275.225-.5.5-.5zm4 0c.275 0 .5.225.5.5s-.225.5-.5.5a.5.5 0 0 1-.5-.5c0-.275.225-.5.5-.5zm4 0c.275 0 .5.225.5.5s-.225.5-.5.5a.5.5 0 0 1-.5-.5c0-.275.225-.5.5-.5z"/></svg>