<svg xmlns="http://www.w3.org/2000/svg" width="17" height="17" viewBox="0 0 17 17"><path d="M5.205 0c-.948 0-1.84.37-2.512 1.041A3.53 3.53 0 0 0 1.65 3.555c0 .94.367 1.826 1.028 2.494L.47 8.258a1.595 1.595 0 0 0-.004 2.262l4.81 4.859a1.6 1.6 0 0 0 1.131.469c.43 0 .833-.168 1.135-.471L13.1 9.818h3.6L7.832.895l-.133.132A3.53 3.53 0 0 0 5.205 0zm0 1c.674 0 1.307.262 1.787.734L3.387 5.342a2.53 2.53 0 0 1-.737-1.787c0-.682.267-1.324.75-1.807A2.54 2.54 0 0 1 5.205 1zM7.83 2.31l6.47 6.509-1.613.002L11.504 10H1.359l-.183-.186a.6.6 0 0 1 .002-.85zM2.35 11h8.154l-3.672 3.672a.596.596 0 0 1-.846.002zm12.931.355-.418.598c-.319.457-1.363 2.012-1.363 2.799 0 .965.785 1.75 1.75 1.75S17 15.715 17 14.75c0-.782-1.005-2.334-1.312-2.791zm-.015 1.803c.4.67.734 1.35.734 1.592 0 .413-.337.75-.75.75a.75.75 0 0 1-.75-.75c0-.24.349-.92.766-1.592z"/></svg>