<svg xmlns="http://www.w3.org/2000/svg" width="17" height="17" viewBox="0 0 17 17"><path d="M8.5.5c-4.411 0-8 3.589-8 8a7.98 7.98 0 0 0 7.63 7.982l1.29.059-2.725-2.723a1.5 1.5 0 0 1-.437-1.06c0-.401.154-.779.437-1.063.566-.566 1.555-.566 2.121 0l3.72 3.72.341-.224A7.98 7.98 0 0 0 16.5 8.5c0-4.411-3.589-8-8-8zm0 1c3.86 0 7 3.14 7 7a6.98 6.98 0 0 1-2.84 5.625L9.525 10.99c-.943-.944-2.592-.944-3.535 0a2.48 2.48 0 0 0-.732 1.768c0 .668.26 1.295.732 1.767l.74.743A6.98 6.98 0 0 1 1.5 8.5c0-3.86 3.14-7 7-7zm0 1.5a1.5 1.5 0 1 0 0 3 1.5 1.5 0 0 0 0-3zM4.75 4.89a1 1 0 1 0 0 2.001 1 1 0 0 0 0-2zM11.5 6.5c-1.103 0-2 .897-2 2s.897 2 2 2 2-.897 2-2-.897-2-2-2zm0 1c.551 0 1 .449 1 1s-.449 1-1 1-1-.449-1-1 .449-1 1-1z"/></svg>