<svg xmlns="http://www.w3.org/2000/svg" width="17" height="17" viewBox="0 0 17 17"><path d="M8.5 0C4.38 0 0 1.227 0 3.5q-.002.225.08.5H0v9.5C0 15.773 4.38 17 8.5 17s8.5-1.227 8.5-3.5V4h-.08a1.7 1.7 0 0 0 .08-.5C17 1.227 12.62 0 8.5 0zm0 1C12.793 1 16 2.32 16 3.5c0 .398-.389.835-1.094 1.229C13.487 5.525 11.093 6 8.5 6s-4.987-.475-6.406-1.271C1.389 4.335 1 3.898 1 3.5 1 2.32 4.207 1 8.5 1zM1 5.2c.175.135.367.27.604.404C3.166 6.479 5.743 7 8.5 7s5.334-.521 6.896-1.396c.237-.133.429-.269.604-.405v1.633c0 .398-.389.837-1.094 1.23-1.419.795-3.813 1.27-6.406 1.27s-4.987-.475-6.406-1.27C1.389 7.67 1 7.23 1 6.833zm0 3.333c.175.135.368.27.605.403 1.561.874 4.139 1.396 6.895 1.396s5.334-.522 6.895-1.396A5 5 0 0 0 16 8.533v1.635c0 .398-.39.833-1.094 1.228-1.42.795-3.813 1.272-6.406 1.272q-.488-.002-.963-.023c-2.214-.102-4.201-.552-5.443-1.247C1.39 11.002 1 10.566 1 10.168zm15 3.332V13.5c0 1.18-3.207 2.5-7.5 2.5S1 14.68 1 13.5v-1.633c.175.135.367.27.604.403 1.562.874 4.14 1.396 6.896 1.396q.518 0 1.023-.023c2.361-.111 4.505-.608 5.872-1.373h.001c.236-.133.43-.27.604-.405z"/></svg>