<svg xmlns="http://www.w3.org/2000/svg" width="17" height="17" viewBox="0 0 17 17"><path d="M9.73 2.104c-.325 0-.943.121-1.42.921l-3.087 4.99H2.932a.5.5 0 0 0 0 1H5.5a.5.5 0 0 0 .426-.238l3.24-5.232c.169-.283.37-.441.566-.441.158 0 .287.094.34.183.205.343.03 1.118-.033 1.39l-.52 2.735a.5.5 0 0 0 .49.594h4.454c.296 0 .535.226.535.504s-.24.506-.535.506h-.631l-.02.004h-.982a.5.5 0 0 0 0 1h1.076l.156.005c.44.013.44.014.44.506 0 .234-.118.485-.45.485h-1.437a.5.5 0 0 0 0 1h.75c.268 0 .717.065.717.515 0 .271-.222.469-.53.469h-1.257a.5.5 0 0 0 0 1h.105c.935 0 1.025.094 1.028.531q0 .259-.102.362c-.079.08-.239.123-.451.123H7.25c-.411 0-.716-.238-1.04-.489-.326-.254-.696-.543-1.183-.543H2.926a.5.5 0 0 0 0 1h2.101c.144 0 .352.162.57.332.38.296.899.702 1.653.702h5.625c.494 0 .884-.141 1.16-.418.262-.263.395-.626.393-1.075a1.8 1.8 0 0 0-.13-.705 1.44 1.44 0 0 0 .784-1.287c0-.267-.065-.533-.203-.767.38-.262.621-.709.621-1.235 0-.34-.05-.603-.133-.806.382-.274.632-.717.631-1.215 0-.83-.688-1.504-1.535-1.504h-3.85l.403-2.125c.15-.661.278-1.497-.086-2.106a1.42 1.42 0 0 0-1.2-.671z"/></svg>