<svg xmlns="http://www.w3.org/2000/svg" width="17" height="17" viewBox="0 0 17 17"><path d="m6.383 0-.057.438c-.096.757-.27 1.391-.512 1.878a3.9 3.9 0 0 1-.947 1.217 4.4 4.4 0 0 1-1.451.783l-.344.114v3.123h1.772v5.115c0 .812.086 1.422.261 1.853.171.453.495.89.97 1.3a4.6 4.6 0 0 0 1.6.872c.612.202 1.317.307 2.096.307.7 0 1.347-.072 1.915-.21.574-.132 1.214-.365 1.955-.714l.287-.135v-3.77l-.778.517c-.72.477-1.42.708-2.14.708-.371 0-.685-.08-.961-.25a.73.73 0 0 1-.332-.376c-.052-.134-.113-.524-.113-1.614V7.553h3.792v-3.51H9.604V0zm.87 1h1.35v4.043h3.793v1.51H8.604v4.603c0 1.068.051 1.64.175 1.961.131.363.384.659.75.881.93.571 2.227.503 3.399-.041v1.348a8.3 8.3 0 0 1-1.473.513c-1.037.253-2.476.255-3.473-.076a3.6 3.6 0 0 1-1.26-.681q-.51-.444-.687-.905c-.129-.316-.191-.816-.191-1.488V6.553H4.072V5.14a5.3 5.3 0 0 0 1.442-.844 5 5 0 0 0 1.193-1.531c.249-.498.43-1.078.547-1.766z"/></svg>