<svg xmlns="http://www.w3.org/2000/svg" width="17" height="17" viewBox="0 0 17 17"><path d="M8.5.5c-4.411 0-8 3.59-8 8s3.589 8 8 8 8-3.59 8-8-3.589-8-8-8zm0 .365c4.206 0 7.635 3.43 7.635 7.635s-3.429 7.635-7.635 7.635S.865 12.705.865 8.5 4.294.865 8.5.865zm0 .77a6.84 6.84 0 0 0-5.732 3.097c.16 0 .312.01.437.01 0 0 .722-.01 1.83-.09.366-.028.411.518.045.563-.375.045-.785.072-.785.072l2.5 7.428 1.5-4.5-1.072-2.928-.713-.072c-.375-.027-.33-.59.045-.563 1.134.08 1.802.09 1.802.09s.715-.01 1.83-.09c.367-.028.411.518.045.563-.375.045-.787.072-.787.072l2.483 7.373.68-2.285c.286-.955.526-1.636.525-2.223 0-.849-.294-1.436-.563-1.892-.348-.57-.677-1.046-.677-1.608 0-.634.482-1.215 1.152-1.215h.09A6.86 6.86 0 0 0 8.5 1.636zm6.018 3.57q.053.333.052.705c0 .698-.177 1.464-.525 2.465l-2.1 6.055a6.847 6.847 0 0 0 2.573-9.225zm-12.286.5A6.8 6.8 0 0 0 1.635 8.5a6.87 6.87 0 0 0 3.875 6.18zM8.615 9.1l-2.054 5.98a6.7 6.7 0 0 0 1.937.287 6.9 6.9 0 0 0 2.277-.392.4.4 0 0 1-.045-.098z"/></svg>