<svg xmlns="http://www.w3.org/2000/svg" width="17" height="17" viewBox="0 0 17 17"><path d="M3.736 0c.201.588.41 1.185.618 1.773.304.882.494 1.547.58 2.012v2.57h.949v-2.57L7.029 0h-.966l-.645 2.494L4.744 0zm4.565 1.564q-.642.001-.994.485-.27.355-.268 1.11v1.66q-.002.751.268 1.12.352.483.994.483c.437 0 .769-.162 1.006-.484.18-.237.265-.617.265-1.12v-1.66c0-.503-.084-.872-.265-1.11-.238-.32-.57-.484-1.006-.484zm1.974.057V5.36c0 .341.027.568.075.711.085.238.283.352.558.352.315 0 .638-.19.979-.588v.521h.863V1.621h-.863v3.615q-.285.41-.54.409c-.113 0-.18-.076-.199-.21-.01-.02-.01-.131-.01-.331V1.62zm-1.974.713c.285 0 .408.218.408.654V4.98c0 .437-.123.665-.408.665-.275 0-.408-.229-.408-.665V2.988c0-.436.133-.654.408-.654zm.197 4.877c-1.755 0-3.52 0-5.256.19-.738.084-1.345.634-1.525 1.384-.237 1.062-.246 2.22-.246 3.32 0 1.091-.001 2.258.246 3.32.17.75.787 1.3 1.517 1.376C4.98 17 6.745 17 8.5 17s3.52 0 5.266-.2c.729-.075 1.336-.624 1.517-1.374.237-1.062.248-2.23.248-3.32 0-1.1 0-2.259-.248-3.32A1.78 1.78 0 0 0 13.766 7.4c-1.746-.19-3.513-.19-5.268-.19zM2.523 8.85h2.96v.891H4.468v5.399h-.95V9.742h-.996zm6.262 0h.844v2.06q.413-.514.883-.513c.332 0 .57.18.674.532.066.19.085.5.085.937v1.87c0 .436-.02.75-.085.949-.104.342-.342.521-.674.521-.303 0-.598-.17-.883-.521v.455h-.844zm4.434 1.545c.428 0 .758.162 1.004.485.172.237.257.595.257 1.1v.978h-1.7v.824q-.002.655.438.655c.209 0 .33-.112.379-.34a5 5 0 0 0 .02-.58h.863v.125c0 .275-.001.463-.02.548-.02.19-.096.36-.2.512-.228.332-.578.504-1.023.504-.446 0-.78-.161-1.025-.484-.18-.228-.275-.599-.275-1.102v-1.64c0-.504.085-.862.265-1.1.247-.323.58-.485 1.018-.485zm-7.614.06h.846v3.452c0 .2 0 .305.01.334q.029.199.197.2.258 0 .541-.399v-3.586h.846v4.684h-.846v-.512c-.342.389-.663.578-.967.578-.274 0-.474-.113-.55-.35-.048-.142-.077-.362-.077-.693zm7.6.708c-.284 0-.426.22-.426.647v.435h.854v-.435c0-.427-.144-.646-.428-.647zm-3.148.002c-.143 0-.285.066-.428.209v2.855c.143.142.285.207.428.207.246 0 .369-.207.369-.634V11.8c0-.417-.123-.635-.37-.635z"/></svg>