<svg xmlns="http://www.w3.org/2000/svg" viewBox="0 0 640 640"><path d="M202.2 7.121a26.53 26.53 0 0 0-14.458 6.014C142.73 50.094 114.39 102.616 108 159.86l-41.121 74.196-58.072 33.07C.75 271.85-2.308 282.13 1.859 290.746l44.457 88.925c4.08 8.16 14.51 12.474 23.895 7.781l66.406-33.348s93.914 8.616 94.47 8.616c34.176 0 65.575-20.008 80.3-50.854 8.594-17.935-5.188-38.07-23.617-38.07 18.469 0 32.193-20.173 23.617-38.072-14.37-30.101-42.972-50.577-85.578-50.577 20.592-7.309 44.443-6.258 64.738 3.891 13.06 6.391 29.175.833 35.564-12.226 6.67-13.34 1.112-29.18-12.224-35.848-29.367-14.253-61.964-16.828-88.078-11.115 13.058-7.781 28.061-13.339 44.177-15.284 14.726-1.667 25.008-15.006 23.063-29.734-1.667-14.729-15.006-25.01-29.73-23.064-27.508 3.335-52.514 13.337-74.186 28.066 8.89-13.061 20.005-25.011 32.508-35.57 11.392-9.45 13.059-26.122 3.613-37.516-5.73-7.121-14.502-10.444-23.055-9.627zm374.72 115.533c-2.363.127-4.779.736-7.13 1.912l-66.405 33.348-92.805-8.615c-37.927-.033-67.932 21.457-81.965 50.853-8.594 17.935 5.188 38.073 23.617 38.073-18.469 0-32.193 20.17-23.617 38.07 14.37 30.1 42.972 50.576 85.578 50.576-20.592 7.31-44.445 6.258-64.74-3.89-13.06-6.393-29.175-.835-35.564 12.226-6.67 13.339-1.112 29.18 12.224 35.85 29.367 14.253 61.964 16.828 88.078 11.115-13.058 7.78-28.061 13.337-44.177 15.283-14.726 1.667-25.008 15.006-23.063 29.734 2.178 17.422 19.71 25.57 29.73 23.065 27.508-3.335 52.514-13.338 74.186-28.067-8.89 13.061-20.005 25.012-32.508 35.57-11.393 9.45-13.059 26.122-3.613 37.516 9.711 11.757 26.58 12.726 37.512 3.614C497.27 461.927 525.61 409.405 532 352.16l41.121-74.195 58.072-33.07c8.057-4.724 11.114-15.007 6.946-23.622l-44.455-88.925c-3.05-6.102-9.674-10.073-16.764-9.694zm-168.008 80.002c17.757 0 35.565 14.142 35.565 35.57a35.46 35.46 0 0 1-35.565 35.57c-13.893 0-26.118-7.781-32.23-20.286-4.446-9.448-13.615-15.005-23.34-15.283 9.725-.278 18.894-5.837 23.34-15.286 6.112-12.505 18.337-20.285 32.23-20.285zm-177.824 35.569c13.893 0 26.118 7.782 32.23 20.287 4.446 9.449 13.613 15.006 23.338 15.283-9.725.278-18.892 5.834-23.338 15.283-6.112 12.505-18.337 20.287-32.23 20.287-17.757 0-35.567-14.142-35.567-35.57a35.46 35.46 0 0 1 35.567-35.57z"/></svg>