<svg xmlns="http://www.w3.org/2000/svg" viewBox="0 0 448 512"><path d="M71.287 95.95A23.96 23.96 0 0 0 54.301 103l-22.5 22.8c-9.4 9.3-9.4 24.5 0 33.9l96.398 96.4-96.398 96.4c-9.4 9.3-9.4 24.5 0 33.9L54.4 409c9.3 9.4 24.5 9.4 33.9 0l136-136c9.4-9.4 9.398-24.6-.102-34l-136-136c-4.65-4.7-10.774-7.05-16.912-7.05zm192.026 0c-6.138 0-12.263 2.35-16.913 7.05l-22.6 22.6c-9.4 9.4-9.4 24.6 0 33.9l96.4 96.4-96.4 96.4c-9.4 9.4-9.4 24.6 0 33.9l22.6 22.6c9.4 9.4 24.6 9.4 33.9 0l136-136c9.4-9.2 9.4-24.4 0-33.8l-136-136a23.96 23.96 0 0 0-16.988-7.05z"/></svg>