<svg xmlns="http://www.w3.org/2000/svg" viewBox="0 0 320 512"><path d="M159.975 56.65A23.95 23.95 0 0 0 143 63.7L7 199.7c-9.4 9.4-9.4 24.6 0 33.9l22.6 22.6c9.4 9.4 24.6 9.4 33.9 0l96.4-96.4 96.4 96.4c9.4 9.4 24.6 9.4 33.9 0l22.6-22.6c9.4-9.4 9.4-24.6 0-33.9l-136-136c-4.6-4.7-10.7-7.05-16.825-7.05zM160 248.662a23.9 23.9 0 0 0-17 7.139L7 391.8c-9.4 9.3-9.4 24.498 0 33.898L29.7 448.3c9.3 9.4 24.5 9.4 33.9 0l96.4-96.4 96.5 96.298c9.3 9.4 24.5 9.4 33.9 0l22.6-22.6c9.4-9.3 9.4-24.5 0-33.9l-136-136a23.9 23.9 0 0 0-17-7.037z"/></svg>