<svg xmlns="http://www.w3.org/2000/svg" viewBox="0 0 512 512"><path d="M316.969.07c-10.884.773-20.775 7.908-24.526 18.883-5 14.633 2.812 30.55 17.444 35.55 85.906 29.355 144.609 110.512 146.076 201.952l.004.19c.026 1.118.031 2.236.031 3.363 0 15.464 12.536 28 28 28s28.002-12.536 28.002-28c0-1.518-.012-3.025-.045-4.531-1.879-114.951-75.798-217.006-183.96-253.965A27.9 27.9 0 0 0 316.968.07zM240 84c-97.047 0-176 78.953-176 176 0 15.464 12.536 28 28 28s28-12.536 28-28c0-66.168 53.832-120 120-120s120 53.832 120 120c0 75.164-71.008 70.31-71.996 143.621L288 404c0 28.673-23.327 52-52 52-15.464 0-28 12.536-28 28s12.536 28 28 28c59.475 0 107.876-48.327 108-107.773.595-34.428 72-48.241 72-144.227 0-97.047-78.953-176-176-176zm0 96c-44.112 0-80 35.888-80 80 0 15.464 12.536 28 28 28s28-12.536 28-28c0-13.234 10.767-24 24-24s24 10.766 24 24c0 15.464 12.536 28 28 28s28-12.536 28-28c0-44.112-35.888-80-80-80zm-80 140c-17.673 0-32 14.327-32 32s14.327 32 32 32 32-14.327 32-32-14.327-32-32-32zm-87.03 39.03-33.94 33.94 80 80 33.94-33.94zM32 448c-17.673 0-32 14.327-32 32s14.327 32 32 32 32-14.327 32-32-14.327-32-32-32z"/></svg>