<svg xmlns="http://www.w3.org/2000/svg" viewBox="0 0 448 512"><path d="M96 0C41.6 0 0 41.6 0 96v320c0 54.4 41.6 96 96 96h326.4c12.8 0 25.6-9.6 25.6-25.6v-16q0-9.6-9.6-19.2c-3.2-16-3.2-60.8 0-73.6q9.6-4.8 9.6-19.2V25.6c0-16-9.6-25.6-25.6-25.6zm128 64c70.69 0 128 57.31 128 128s-57.31 128-128 128S96 262.69 96 192 153.31 64 224 64zm0 33.31c-7.69 7.45-20.77 34.42-23.43 78.69h46.87c-2.67-44.26-15.75-71.24-23.44-78.69zm-41.08 8.28c-27.71 13.24-48.02 39.19-53.3 70.41h39.09c1.49-27.03 6.53-51.35 14.21-70.41zm82.16 0c7.68 19.06 12.72 43.38 14.21 70.41h39.09c-5.29-31.22-25.59-57.17-53.3-70.41zM129.62 208c5.28 31.22 25.59 57.17 53.3 70.41-7.68-19.06-12.72-43.38-14.21-70.41zm70.94 0c2.66 44.26 15.74 71.24 23.43 78.69 7.7-7.45 20.78-34.43 23.44-78.69zm78.73 0c-1.49 27.03-6.54 51.35-14.21 70.41 27.71-13.24 48.02-39.19 53.3-70.41zM96 384h288v64H96c-19.2 0-32-12.8-32-32s16-32 32-32z"/></svg>