<svg xmlns="http://www.w3.org/2000/svg" viewBox="0 0 384 512"><path d="M192 0c-44.2 0-80 35.8-80 80s35.8 80 80 80 80-35.8 80-80-35.8-80-80-80zm151.229 127.992A40.03 40.03 0 0 0 321 135.2l-40.6 28.5c-52.7 37-124.2 37-176.8 0L63 135.301C44.9 122.6 20 127 7.3 145-5.4 163.1-1 188 17 200.7l40.6 28.5c17 11.9 35.4 20.9 54.4 27.9V288h160v-30.8c19-7 37.4-16 54.4-27.9l40.6-28.5c18.1-12.8 22.4-37.7 9.7-55.8-7.938-11.312-20.641-17.233-33.471-17.008zM102.699 325.6 56.801 383C45.4 397.2 45.1 417.4 56 432l48 64c7.9 10.5 19.9 16 32 16 8.3 0 16.8-2.6 24-8 17.7-13.2 21.2-38.3 8-56l-29.4-39.2 25.6-32zm178.602 0-61.5 51.2 25.6 32L216 448c-13.2 17.7-9.7 42.8 8 56 7.2 5.4 15.6 8 24 8 12.2 0 24.2-5.5 32-16l48-64c10.9-14.6 10.6-34.8-.8-49z"/></svg>