<svg xmlns="http://www.w3.org/2000/svg" viewBox="0 0 448 512"><path d="M96 0C41.6 0 0 41.6 0 96v320c0 54.4 41.6 96 96 96h326.4c12.8 0 25.6-9.6 25.6-25.6v-16q0-9.6-9.6-19.2c-3.2-16-3.2-60.8 0-73.6q9.6-4.8 9.6-19.2V25.6c0-16-9.6-25.6-25.6-25.6zm128 64h32c8.84 0 16 7.16 16 16v48h48c8.84 0 16 7.16 16 16v32c0 8.84-7.16 16-16 16h-48v112c0 8.84-7.16 16-16 16h-32c-8.84 0-16-7.16-16-16V192h-48c-8.84 0-16-7.16-16-16v-32c0-8.84 7.16-16 16-16h48V80c0-8.84 7.16-16 16-16zM96 384h284.8v64H96c-19.2 0-32-12.8-32-32s16-32 32-32z"/></svg>