<svg xmlns="http://www.w3.org/2000/svg" viewBox="0 0 448 512"><path d="M96 0c0 41-32 33-32 64 0 17.75 14.25 32 32 32s32-13.5 32-40S108 0 96 0zm128 0c0 41-32 33-32 64 0 17.75 14.25 32 32 32s32-13.5 32-40-20-56-32-56zm128 0c0 41-32 33-32 64 0 17.75 14.25 32 32 32s32-13.5 32-40-20-56-32-56zM64 112v144H48c-26.5 0-48 21.5-48 48v80c28.097 0 31.203-32 74.75-32 43.548 0 46.602 32 74.75 32 27.282 0 31.658-32 74.5-32 43.296 0 47.055 32 74.75 32 27.925 0 31.32-32 74.75-32 43.24 0 46.48 32 74.5 32v-80c0-26.5-21.5-48-48-48h-16V112h-64v144h-64V112h-64v144h-64V112zm10.75 272C46.767 384 43.356 416 0 416v96h448v-96c-43.248 0-47.012-32-74.5-32-27.983 0-31.393 32-74.75 32-43.549 0-46.602-32-74.75-32-27.283 0-31.657 32-74.5 32-43.497 0-46.799-32-74.75-32z"/></svg>