<svg xmlns="http://www.w3.org/2000/svg" viewBox="0 0 512 512"><path d="M257 0c-61.856 0-112 50.144-112 112h224C369 50.144 318.856 0 257 0zM64 96c-8.19 0-16.38 3.123-22.629 9.371-12.496 12.497-12.496 32.759 0 45.256L88 197.256V256H32C14.028 256-.483 270.816.014 288.9.492 306.33 15.23 320 32.666 320H88v16c0 21.864 4.882 42.584 13.6 61.145l-60.23 60.228c-12.496 12.497-12.496 32.759 0 45.256s32.76 12.497 45.258 0l54.734-54.736C166.113 467.966 197.65 480 232 480V236c0-6.627 5.373-12 12-12h24c6.627 0 12 5.373 12 12v244c34.351 0 65.887-12.034 90.637-32.107l54.734 54.736c12.497 12.496 32.76 12.497 45.258 0 12.496-12.497 12.496-32.759 0-45.256L410.4 397.145C419.118 378.584 424 357.864 424 336v-16h55.336c17.436 0 32.174-13.67 32.652-31.1.496-18.084-14.016-32.9-31.988-32.9h-56v-58.744l46.627-46.627c12.496-12.497 12.496-32.759 0-45.256-12.498-12.497-32.758-12.497-45.256 0L370.744 160H141.256l-54.627-54.629C80.379 99.123 72.189 96 64 96z"/></svg>