<svg xmlns="http://www.w3.org/2000/svg" viewBox="0 0 576 576"><path d="M288 32C133.27 32 7.79 132.32 7.79 256S133.27 480 288 480s280.21-100.32 280.21-224S442.73 32 288 32zm93.74 67.77h92.5l-53.05 205.36h103.87l-21.2 84.06H306.79L322.63 328a79 79 0 0 0 11.47.83c42.34 0 76.69-33.87 76.69-75.65 0-32.65-21-60.46-50.38-71.06zm-240.39.04h133.44c63.149 0 84.93 28.65 78 72.84a60 60 0 0 1-1.5 6.85 77.4 77.4 0 0 0-17.21-1.93c-42.35 0-76.69 33.88-76.69 75.65 0 37.14 27.14 68 62.93 74.45-18.24 37.16-56.16 60.92-117.71 61.52L64.1 390.55zM211.66 170 200 217.71h21.37c18 0 35.38-14.64 39.21-30.14C265.23 168.71 251.07 170 233 170zm90.55 37.11h31.34l15 36.75 9.45-36.75h32l-22.16 90.31h-35.41l-11.19-35.63-7.83 35.63h-37.83zM187 269.39l-13.8 56.47h24.7c16.14 0 32.11-3.18 37.94-26.65 5.56-22.309-7.99-29.82-24.14-29.82z"/></svg>