<svg xmlns="http://www.w3.org/2000/svg" viewBox="0 0 640 640"><path d="M134.725-.002c-4.45-.18-8.943 2.882-9.455 8.182l-7.55 77.86c-.52 5.34-5.54 9.06-10.8 8L30.24 78.6c-8.35-1.68-14.19 8.05-8.78 14.62l49.71 60.41c3.4 4.14 2.48 10.32-1.98 13.29l-65.15 43.3c-7.09 4.71-4.33 15.72 4.14 16.54l77.86 7.55c5.34.51 9.06 5.53 8 10.79L78.6 321.78c-1.69 8.34 8.05 14.18 14.62 8.77l35.2-28.98c-1.22-11.5-.6-23.14 2.41-34.39l12.42-46.37c8.9-33.21 35.35-58.98 68.08-67.74l10.71-14.32 32.15-42.97c2.48-3.31 5.2-6.35 7.91-9.4l11.33-56.16c1.68-8.34-8.05-14.18-14.62-8.77l-60.4 49.71c-4.14 3.4-10.32 2.48-13.29-1.98l-43.3-65.14c-1.77-2.66-4.425-3.934-7.095-4.042zM365.05 70.07c-11.05.41-21.91 2.46-32.24 6.04a110 110 0 0 0-15.051 6.49 111.8 111.8 0 0 0-26.74 19.51c-4.01 3.94-7.75 8.23-11.2 12.84l-32.15 42.97-18.13 24.23a64.3 64.3 0 0 0-18.49 4.72c-17.53 7.38-31.58 22.41-36.89 42.21l-12.42 46.37c-3.13 11.68-2.68 23.41.52 34.2a66.6 66.6 0 0 0 4.09 10.45l-13.99 52.23a32 32 0 0 0-.79 12.68c1.72 12.35 10.62 23.08 23.42 26.51l30.91 8.28c17.07 4.57 34.62-5.56 39.19-22.63l8.28-30.91 247.28 66.26-8.28 30.91c-4.57 17.07 5.56 34.62 22.63 39.19l30.91 8.28c12.8 3.43 25.87-1.41 33.54-11.25a31.9 31.9 0 0 0 5.65-11.38l13.99-52.23a67 67 0 0 0 8.76-7c8.17-7.75 14.42-17.68 17.55-29.36l12.42-46.36c3.54-13.2 2.64-26.51-1.75-38.39A64.5 64.5 0 0 0 613.33 285l-3.59-30.05-6.36-53.29c-2.04-17.15-7.86-33.11-16.68-46.99a111.1 111.1 0 0 0-34.69-34.5c-9.37-5.89-19.73-10.45-30.85-13.43L398.48 73.87c-11.12-2.98-22.38-4.21-33.43-3.8zm2.719 63.996a48 48 0 0 1 14.14 1.604l122.68 32.87c14.22 3.81 25.62 13.83 31.42 26.82a48 48 0 0 1 3.82 13.86l6.36 53.29-75.29-20.18-172-46.08 32.15-42.97a48 48 0 0 1 36.72-19.214zm-118.995 99.057c2.214.193 4.486.596 6.805 1.217 18.54 4.97 38.93 40.15 33.97 58.64-4.95 18.49-31.94 7.95-50.49 2.98-18.54-4.97-27.61-20.6-22.65-39.09 4.34-16.18 16.873-25.1 32.365-23.747zm308.258 83.305c2.749-.115 5.328.11 7.647.732 18.55 4.97 27.61 20.61 22.66 39.09-4.96 18.49-20.62 27.5-39.17 22.53s-47.19-9.34-42.24-27.83c4.33-16.17 31.861-33.717 51.103-34.522z"/></svg>