<svg xmlns="http://www.w3.org/2000/svg" viewBox="0 0 576 576"><path d="M48 32C21.5 32 0 53.5 0 80v352c0 26.5 21.5 48 48 48h480c26.5 0 48-21.5 48-48V80c0-26.5-21.5-48-48-48zm308.5 141.1c15.5 0 28.1 3.5 36 6.6l-5.5 33.6-3.6-1.7c-7.2-3.1-16.8-6.2-29.9-5.9-15.8 0-22.9 6.8-23.1 13.4 0 7.3 8.6 12.1 22.7 19.2 23.1 11.1 33.9 24.6 33.7 42.3-.3 32.2-27.8 53.1-70 53-18-.2-35.4-4-44.8-8.3l5.6-34.9 5.3 2.5c13.1 5.8 21.7 8.3 37.7 8.3 11.5 0 23.9-4.8 24.1-15.2 0-6.7-5.3-11.7-20.8-19.3-15.2-7.5-35.5-19.9-35.2-42.2.2-30.2 28.1-51.4 67.8-51.4zM32.7 176h64.7c8.8.4 15.9 3.2 18.2 13.1l14 71.4 4.3 21.5 39.3-106h42.5l-63.2 155.2H110l-35.8-135c-12.3-7.3-26.4-13.1-42.2-17.1zm199.2 0h40.2l-25.2 155.4h-40.1zm232.6 0h31.1L528 331.4h-37.2s-3.6-17.8-4.8-23.3h-51.6c-1.5 4.1-8.4 23.3-8.4 23.3h-42.2l59.7-142.5c4.1-10.1 11.4-12.9 21-12.9zm2.8 41.9c-2 5.8-5.5 15.2-5.3 14.9 0 0-12.7 34.6-16 43.5h33.4c-1.7-7.8-9.3-45-9.3-45z"/></svg>