<svg xmlns="http://www.w3.org/2000/svg" viewBox="0 0 512 512"><path d="M318.248.002c-6.194-.093-12.467 2.163-17.258 7.227L256 53.57 211.012 7.23c-12.63-13.351-36.048-7.234-40.326 10.667L154.7 80.568 92.707 62.9c-17.837-4.994-34.65 11.838-29.66 29.672l17.66 62.016-62.65 15.988C.069 174.877-6.31 197.943 7.393 210.914l45.984 45.006-45.984 45.004c-13.708 12.977-7.316 36.04 10.664 40.34l62.648 15.99-17.66 62.014c-4.991 17.838 11.828 34.663 29.66 29.671l61.994-17.668 15.985 62.672c4.439 18.575 27.697 24.018 40.326 10.668L256 458.61l44.988 46.002c12.5 13.488 35.988 7.486 40.326-10.668l15.985-62.672 61.994 17.668c17.836 4.994 34.65-11.837 29.66-29.671l-17.66-62.014 62.648-15.99c17.987-4.302 24.366-27.368 10.664-40.34l-45.984-45.004 45.986-45.006c13.708-12.977 7.316-36.038-10.664-40.338l-62.65-15.99 17.66-62.016c4.991-17.838-11.828-34.662-29.66-29.67l-61.994 17.666-15.985-62.67C338.671 6.835 328.571.157 318.248.002z"/></svg>