<svg xmlns="http://www.w3.org/2000/svg" viewBox="0 0 512 512"><path d="M48 32C21.49 32 0 53.49 0 80v352c0 26.51 21.49 48 48 48h352c26.51 0 48-21.49 48-48V80c0-26.51-21.49-48-48-48zm0 48h352v352H48zm285.197 67.04a11.97 11.97 0 0 0-8.5 3.48L183.346 290.734l-59.791-60.277c-4.667-4.706-12.266-4.735-16.971-.068l-22.719 22.537c-4.706 4.668-4.735 12.265-.068 16.97l90.78 91.516c4.666 4.705 12.265 4.735 16.97.068l172.59-171.205c4.705-4.667 4.733-12.264.066-16.97l-22.535-22.717a11.96 11.96 0 0 0-8.47-3.549z"/></svg>