<svg xmlns="http://www.w3.org/2000/svg" viewBox="0 0 384 512"><path d="M192 0c-39.765 0-72 32.235-72 72s32.235 72 72 72 72-32.236 72-72-32.235-72-72-72zM32 64c-8.19 0-16.379 3.125-22.627 9.373-12.497 12.497-12.497 32.759 0 45.256L104 213.254V480c0 17.673 14.327 32 32 32h16c17.673 0 32-14.327 32-32V368h16v112c0 17.673 14.327 32 32 32h16c17.673 0 32-14.327 32-32V213.254l94.627-94.627c12.497-12.497 12.497-32.757 0-45.254s-32.758-12.497-45.254 0L242.744 160h-101.49L54.627 73.373C48.379 67.125 40.189 64 32 64z"/></svg>