<svg xmlns="http://www.w3.org/2000/svg" viewBox="0 0 512 512"><path d="M312.17 15.012C299.237 14.843 288 25.407 288 39.057v16.658c0 10.804 7.28 20.16 17.686 23.066C383.203 100.434 440 171.518 440 256c0 101.689-82.295 184-184 184-101.689 0-184-82.295-184-184 0-84.47 56.787-155.564 134.313-177.219C216.719 75.874 224 66.518 224 55.713V39.064c0-15.709-14.835-27.153-30.047-23.234C86.603 43.482 7.395 141.206 8.003 257.332c.72 137.052 111.476 246.955 248.53 246.666C393.254 503.71 504 392.788 504 256c0-115.633-79.14-212.78-186.21-240.236a24 24 0 0 0-5.62-.752z"/></svg>