<svg xmlns="http://www.w3.org/2000/svg" viewBox="0 0 576 576"><path d="M461.8 0c-77.9 0-141.1 61.2-144.4 137.9 26.7 11.9 48.2 33.8 58.9 61.7 37.1 14.3 64 47.4 70.2 86.8 5.1.5 10 1.5 15.2 1.5 44.7 0 85.6-20.2 112.6-53.3 4.2-4.8-.2-12-6.4-10.8-70.4 13.3-135-40.3-135-110.8 0-40.6 21.9-78 57.5-98.1 5.5-3.1 4.1-11.4-2.1-12.5C479.6.8 470.7 0 461.8 0zM160 128c-53 0-96 43-96 96 0 .5.2 1.1.2 1.6C27.6 232.9 0 265.2 0 304c0 44.2 35.8 80 80 80h256c44.2 0 80-35.8 80-80 0-39.2-28.2-71.7-65.5-78.5-6.9-37.2-39.3-65.5-78.5-65.5-12.3 0-23.9 3-34.3 8-17.4-24.1-45.6-40-77.7-40zM67.422 416.053c-5.113.368-9.973 3.172-12.723 8.047l-36.6 64c-4.4 7.7-1.7 17.4 6 21.8C26.6 511.3 29.3 512 32 512c5.5 0 10.9-2.9 13.9-8.1l36.6-64c4.3-7.7 1.7-17.4-6-21.8a16.06 16.06 0 0 0-9.078-2.047zm96 0c-5.113.368-9.973 3.172-12.723 8.047l-36.6 64c-4.4 7.7-1.7 17.4 6 21.8 2.5 1.4 5.201 2.1 7.901 2.1 5.5 0 10.9-2.9 13.9-8.1l36.6-64c4.3-7.7 1.7-17.4-6-21.8a16.06 16.06 0 0 0-9.078-2.047zm96 0c-5.113.368-9.973 3.172-12.723 8.047l-36.6 64c-4.4 7.7-1.7 17.4 6 21.8 2.5 1.4 5.201 2.1 7.901 2.1 5.5 0 10.9-2.9 13.9-8.1l36.6-64c4.3-7.7 1.7-17.4-6-21.8a16.06 16.06 0 0 0-9.078-2.047zm96 0c-5.113.368-9.973 3.172-12.723 8.047l-36.6 64c-4.4 7.7-1.7 17.4 6 21.8 2.5 1.4 5.201 2.1 7.901 2.1 5.5 0 10.9-2.9 13.9-8.1l36.6-64c4.3-7.7 1.7-17.4-6-21.8a16.06 16.06 0 0 0-9.078-2.047z"/></svg>