<svg xmlns="http://www.w3.org/2000/svg" viewBox="0 0 576 576"><path d="M191.95 0c-4.626 0-9.25 2.4-11.65 7.2l-35.5 71-75.3-25.1c-10.2-3.4-19.8 6.3-16.4 16.5l25.1 75.3-71 35.5c-9.6 4.8-9.6 18.5 0 23.3l71 35.5-25.1 75.3c-3.4 10.2 6.3 19.8 16.5 16.5l59.2-19.7c-.2-2.4-.7-4.7-.7-7.2 0-12.5 2.3-24.5 6.2-35.9-3.6-2.7-7.1-5.2-10.2-8.3-37.4-37.4-37.4-98.3 0-135.8 34.6-34.6 89.1-36.8 126.7-7.4 20-12.9 43.6-20.7 69.2-20.7.7 0 1.3.2 2 .2l8.9-26.7c3.4-10.2-6.3-19.8-16.5-16.4l-75.3 25.1-35.5-71c-2.4-4.8-7.026-7.2-11.65-7.2zm.05 128c-35.3 0-64 28.7-64 64 0 18.7 8.2 35.4 21.1 47.1 11.3-15.9 26.6-28.9 44.8-37.2 4.3-24.5 15.8-46.4 31.9-64-9.8-6.2-21.4-9.9-33.8-9.9zm128 0c-53 0-96 43-96 96 0 .5.2 1.1.2 1.6C187.6 233 160 265.2 160 304c0 44.2 35.8 80 80 80h256c44.2 0 80-35.8 80-80 0-39.2-28.2-71.7-65.5-78.5-6.9-37.2-39.3-65.5-78.5-65.5-12.3 0-23.9 3-34.3 8-17.4-24.1-45.6-40-77.7-40zm-92.578 288.053c-5.113.368-9.973 3.172-12.723 8.047l-36.6 64c-4.4 7.7-1.7 17.4 6 21.8 2.5 1.4 5.201 2.1 7.901 2.1 5.5 0 10.9-2.9 13.9-8.1l36.6-64c4.3-7.7 1.7-17.4-6-21.8a16.06 16.06 0 0 0-9.078-2.047zm96 0c-5.113.368-9.973 3.172-12.723 8.047l-36.6 64c-4.4 7.7-1.7 17.4 6 21.8 2.5 1.4 5.201 2.1 7.901 2.1 5.5 0 10.9-2.9 13.9-8.1l36.6-64c4.3-7.7 1.7-17.4-6-21.8a16.06 16.06 0 0 0-9.078-2.047zm96 0c-5.113.368-9.973 3.172-12.723 8.047l-36.6 64c-4.4 7.7-1.7 17.4 6 21.8 2.5 1.4 5.201 2.1 7.901 2.1 5.5 0 10.9-2.9 13.9-8.1l36.6-64c4.3-7.7 1.7-17.4-6-21.8a16.06 16.06 0 0 0-9.078-2.047zm96 0c-5.113.368-9.973 3.172-12.723 8.047l-36.6 64c-4.4 7.7-1.7 17.4 6 21.8 2.5 1.4 5.201 2.1 7.901 2.1 5.5 0 10.9-2.9 13.9-8.1l36.6-64c4.3-7.7 1.7-17.4-6-21.8a16.06 16.06 0 0 0-9.078-2.047z"/></svg>