<svg xmlns="http://www.w3.org/2000/svg" viewBox="0 0 512 512"><path d="M255.988 31.975a35.9 35.9 0 0 0-12.687 2.326l-100 37.5c-14.1 5.3-23.4 18.699-23.4 33.699V214l-96.6 36.2C9.3 255.5 0 268.9 0 283.9V394c0 13.6 7.7 26.1 19.9 32.2l100 50c10.1 5.1 22.1 5.1 32.2 0l103.9-52 103.9 52c10.1 5.1 22.1 5.1 32.2 0l100-50c12.2-6.1 19.9-18.6 19.9-32.2V283.9c0-15-9.3-28.4-23.4-33.7L392 214V105.5c0-15-9.3-28.4-23.4-33.7l-100-37.5a35.3 35.3 0 0 0-12.612-2.325zM256 65.9l102 38.2v.6l-102 41.4-102-41.4v-.6zm102 75.6v73.3l-85 31.9v-68.2zM136 244.4l102 38.2v.6l-102 41.4-102-41.4v-.6zm240 0 102 38.2v.6l-102 41.4-102-41.4v-.6zm-138 75.4v75.4l-85 42.5v-79.1zm240 0v75.4l-85 42.5v-79.1z"/></svg>