<svg xmlns="http://www.w3.org/2000/svg" viewBox="0 0 512 512"><path d="M257.525 32c-26.1-.025-52.225.15-52.625.75-.7 1-1.3 147.6-1.7 149.6-.1.7-.6 1.3-1 1.3-1.1 0-144.9-47.7-145.5-47-.3.3-33 101.6-31.7 102.1 8 3.1 137.6 44.9 137.6 47.1 0 1.7-86.94 126.65-86.6 127.4s86.24 61.2 86.94 61.2c.699 0 87.18-119.73 88.681-119.874 2.002.15 89.88 125.275 90.879 125.475.8 0 86-62.7 86.3-63.5s-82.8-121.5-82.5-122.9c.4-1.7 139.7-47.901 140.6-48.801.4-.4-30.7-101.7-31.5-102.6-.6-.7-137.9 46.3-139.3 46.3-2.6 0-4.6-155.1-6.1-156.1-.3-.2-26.375-.425-52.475-.45z"/></svg>