<svg xmlns="http://www.w3.org/2000/svg" viewBox="0 0 512 512"><path d="M218.209.053c-4.37-.106-8.81 1.61-12.11 5.547-21.1 24.9-37.7 54.1-48.9 86.5C191.4 130.4 237.2 156.7 288 167.2v-28.1c-28.2-36.3-47.1-79.3-54.1-125.2C232.588 5.463 225.493.23 218.21.053zM72.613 32.05C66.776 31.85 60.9 34.75 58 40.9 41.4 76 32 115.2 32 156.6c0 70.8 34.1 136.9 85.1 185.9 13.2 12.7 26.1 23.2 38.9 32.8l-143.9 36C1.4 414-3.4 426.4 2.6 435.7 20 462.6 63 508.2 155.8 512c8 .3 16-2.6 22.1-7.9l65.2-56.1H320c88.4 0 160-71.5 160-159.9V128l32-64H400c-44.2 0-80 35.9-80 80.1v59.4C215.6 197.3 127 133 87 41.8c-2.75-6.25-8.55-9.55-14.387-9.75zM400 128.1c8.8 0 16 7.2 16 16s-7.2 16-16 16-16-7.2-16-16 7.2-16 16-16z"/></svg>