<svg xmlns="http://www.w3.org/2000/svg" viewBox="0 0 576 576"><path d="M474.287-.074C459.325-.074 444.35 5.65 432.9 17.1L170.3 279.7l-10 90.4c-2.9 26.4 19.4 48.5 45.6 45.6l90.4-10 262.6-262.6c22.8-22.8 22.8-59.9-.1-82.8l-43.2-43.2C504.2 5.65 489.25-.074 474.287-.074zm-.025 48.1c2.687 0 5.387 1.024 7.437 3.074L524.9 94.3c4.1 4.1 4.1 10.7.1 14.9l-30.9 30.9L436 82l30.9-30.9c2-2.05 4.674-3.075 7.362-3.075zM48 64C21.5 64 0 85.5 0 112v352c0 26.5 21.5 48 48 48h352c26.5 0 48-21.5 48-48V318.6c0-7.2-8.7-10.7-13.7-5.7l-32 32c-1.5 1.5-2.3 3.5-2.3 5.6V464H48V112h241.5c2.2 0 4.2-.8 5.7-2.3l32-32c5-5.1 1.4-13.7-5.7-13.7zm354 51.9 58.1 58.1-185.9 185.8-65.3 7.3 7.3-65.3z"/></svg>