<svg xmlns="http://www.w3.org/2000/svg" viewBox="0 0 576 576"><path d="M24 0C10.7 0 0 10.7 0 24v464c0 13.3 10.7 24 24 24h336c13.3 0 24-10.7 24-24v-40l-128-.11c-16.12-.31-30.58-9.28-37.83-23.75-2.95-5.92-8.09-6.52-10.17-6.52s-7.22.59-10.02 6.19l-7.67 15.34c-6.37 12.78-25.03 11.37-29.48-2.09L144 386.59l-10.61 31.88c-5.89 17.66-22.38 29.53-41 29.53H80c-8.84 0-16-7.16-16-16s7.16-16 16-16h12.39c4.83 0 9.11-3.08 10.64-7.66l18.19-54.64c3.3-9.81 12.44-16.41 22.78-16.41s19.48 6.59 22.77 16.41l13.88 41.64c19.75-16.19 54.06-9.7 66 14.16 1.89 3.78 5.49 5.95 9.36 6.26v-82.12l128-127.09V160H248c-13.2 0-24-10.8-24-24V0zm232 0v128h128v-6.1c0-6.3-2.5-12.4-7-16.9L279.1 7c-4.5-4.5-10.6-7-17-7zm262.664 128.006a25.38 25.38 0 0 0-18.004 7.455l-27.25 27.25 67.88 67.879 27.25-27.25c9.95-9.94 9.95-26.07 0-36.01l-31.87-31.87c-4.97-4.97-11.488-7.454-18.006-7.454zM450.79 185.34 288 346.96V416h68.99l161.68-162.78z"/></svg>