<svg xmlns="http://www.w3.org/2000/svg" viewBox="0 0 512 512"><path d="M48 0C21.49 0 0 21.49 0 48v416c0 26.51 21.49 48 48 48h288c26.51 0 48-21.49 48-48V131.883a48 48 0 0 0-14.059-33.942L286.06 14.06A48 48 0 0 0 252.117 0zm0 48h160v104c0 13.255 10.745 24 24 24h104v288H48zm208 3.883L332.117 128H256zM100 248c-11.046 0-20 8.954-20 20v104c0 11.046 8.954 20 20 20h104c11.046 0 20-8.954 20-20v-37.373l52.688 52.674C286.704 397.319 304 390.28 304 375.986V264.012c0-14.311-17.309-21.32-27.312-11.315L224 305.373V268c0-11.046-8.954-20-20-20z"/></svg>