<svg xmlns="http://www.w3.org/2000/svg" viewBox="0 0 512 512"><path d="M48 0C21.49 0 0 21.49 0 48v416c0 26.51 21.49 48 48 48h288c26.51 0 48-21.49 48-48V131.883a48 48 0 0 0-14.059-33.942L286.06 14.06A48 48 0 0 0 252.117 0zm0 48h160v104c0 13.255 10.745 24 24 24h104v288H48zm208 3.883L332.117 128H256zm-74.682 188.199c-3.379-.397-6.967.622-9.802 3.457L136 280.486h-28c-6.627 0-12 5.373-12 12v56c0 6.627 5.373 12 12 12h28l35.516 35.975c7.559 7.56 20.484 2.207 20.484-8.484V252.023c0-6.681-5.05-11.278-10.682-11.941zm68.442 26.272c-17.981.882-33.17 23.988-16.559 41.052 9.06 9.306 9.051 24.143 0 33.44-22.55 23.166 12.604 55.866 34.397 33.48 27.21-27.957 27.198-72.46 0-100.4-5.54-5.691-11.845-7.867-17.838-7.572z"/></svg>