<svg xmlns="http://www.w3.org/2000/svg" viewBox="0 0 448 512"><path d="M144 0c-39.435 0-66.369 39.676-52.229 76.203-52.038 13.051-75.38 54.214-90.048 90.885-4.923 12.307 1.064 26.272 13.37 31.195 12.318 4.926 26.28-1.074 31.196-13.369C75.058 112.99 106.964 120 168 120v27.076c-41.543 10.862-72 49.235-72 94.13V488c0 13.255 10.745 24 24 24h144c13.255 0 24-10.745 24-24V240c0-44.731-30.596-82.313-72-92.97V120h40c0 2.974-1.703 15.717 10.027 17.672l168 28C441.342 166.89 448 161.25 448 153.834V38.166c0-7.416-6.658-13.057-13.973-11.838l-168 28C254.693 56.218 256 67.8 256 72h-58.332C208.353 36.108 181.446 0 144 0zm0 40c8.822 0 16 7.178 16 16s-7.178 16-16 16-16-7.178-16-16 7.178-16 16-16z"/></svg>