<svg xmlns="http://www.w3.org/2000/svg" viewBox="0 0 512 512"><path d="M479.854-.025c-5.691.006-11.604 1.35-17.254 4.224C291.3 91.5 305.4-62.2 96 32.4v151.9c94.8-37.5 154.6-22.7 212.1-7.6 57.2 15 111.7 28.7 203.9-11.1V96.7c-53.6 23.5-93.3 31.4-126.1 31.4s-59-7.8-85.7-15.9c-4-1.2-8.1-2.4-12.1-3.5V75.5c7.2 2 14.3 4.1 21.3 6.2 51.8 15.6 97.4 29 202.6-20.1V30.8c0-18.824-15.075-30.844-32.146-30.825zM32 0C14.3 0 0 14.3 0 32v464c0 8.8 7.2 16 16 16h32c8.8 0 16-7.2 16-16V32C64 14.3 49.7 0 32 0zm192 32.3c8.8 0 16 7.1 16 16 0 8.8-7.2 16-16 16s-16-7.1-16-16c0-8.8 7.2-16 16-16zm-64 8c8.8 0 16 7.1 16 16 0 8.8-7.2 16-16 16s-16-7.1-16-16c0-8.8 7.2-16 16-16zm64 47.9c8.8 0 16 7.1 16 16 0 8.8-7.2 16-16 16s-16-7.1-16-16c0-8.8 7.2-16 16-16zm-64 7.9c8.8 0 16 7.1 16 16s-7.2 16-16 16-16-7.1-16-16c0-8.8 7.2-16 16-16zm51.074 96.425C178.774 192.2 142.1 198.75 96 218.7v61.5c94.8-37.6 154.6-22.7 212.1-7.6 57.2 15.1 111.7 28.8 203.9-11.1V200c-43.6 17.3-80.2 24.1-112.1 24.1-37.4 0-68.9-8.3-100-16.5-28.6-7.55-56.526-14.75-88.826-15.075zm0 96C178.774 288.2 142.1 294.75 96 314.7V384c185.7-92.2 221.7 53.3 397.5-23.1 11.4-5 18.5-16.5 18.5-28.8v-36c-43.6 17.3-80.2 24.1-112.1 24.1-37.4-.1-68.9-8.4-100-16.6-28.6-7.55-56.526-14.75-88.826-15.075z"/></svg>