<svg xmlns="http://www.w3.org/2000/svg" viewBox="0 0 512 512"><path d="M66.338.049C34.345-1.253 8 24.296 8 56c0 19.026 9.497 35.825 24 45.945V488c0 13.255 10.745 24 24 24h16c13.255 0 24-10.745 24-24v-94.4c28.311-12.064 63.583-22.121 114.436-22.121 53.587 0 97.843 34.783 165.216 34.783 48.17 0 86.666-16.296 122.504-40.86 8.683-5.95 13.844-15.831 13.844-26.357v-243.1c0-23.393-24.268-38.87-45.484-29.015-34.338 15.948-76.456 31.853-116.952 31.853C295.978 98.783 251.721 64 184.348 64c-24.955 0-47.31 4.385-68.045 12.014a55.95 55.95 0 0 0 3.586-23.563C118.117 24.015 94.806 1.207 66.338.05z"/></svg>