<svg xmlns="http://www.w3.org/2000/svg" viewBox="0 0 512 512"><path d="M295.668 0a23.92 23.92 0 0 0-16.97 7.03L154.245 131.48c-9.373 9.373-9.373 24.57 0 33.942l22.627 22.627c9.373 9.373 24.57 9.373 33.941 0l5.657-5.658 39.597 39.597-81.039 81.041-5.658-5.658c-12.497-12.497-32.757-12.497-45.254 0L9.373 412.117c-12.497 12.497-12.497 32.76 0 45.256l45.256 45.256c12.497 12.497 32.757 12.497 45.254 0l114.746-114.746c12.497-12.497 12.497-32.757 0-45.254l-5.658-5.658 81.04-81.04 39.598 39.598-5.658 5.657c-9.373 9.373-9.373 24.569 0 33.941l22.627 22.627c9.373 9.373 24.57 9.373 33.942 0l124.45-124.451c9.373-9.372 9.373-24.569 0-33.942l-22.626-22.627c-9.373-9.373-24.57-9.373-33.942 0l-5.656 5.659L329.607 69.256l5.659-5.658c9.373-9.373 9.373-24.57 0-33.942L312.639 7.03A23.93 23.93 0 0 0 295.668 0z"/></svg>