<svg xmlns="http://www.w3.org/2000/svg" viewBox="0 0 480 512"><path d="M48.4 64c-9.7 19.5-14.6 30.3-14.6 51.8 0 16.4 2.5 33 7.7 48.8C13.9 196.7 0 236.3 0 278.2c0 31.9 5.6 66 20.2 95C59.6 450.7 170 448 245.8 448c74.6 0 178.8 1.8 216.7-74.8 14.3-29.3 17.5-63.1 17.5-95 0-41.9-11.5-81.8-39-114.2 5.1-15.5 7.7-31.8 7.7-48.2 0-21.5-4.8-32.3-14.6-51.8-44.8 0-73.8 8.5-107.8 35.2-26.2-6.3-53.4-9.2-80.4-9.2-29.9 0-59.7 3.1-88.7 10-34.5-27-63.5-36-108.8-36zM140 246.1c19 0 37.3 3.4 56 6 15 2.3 29.9 3.2 45.1 3.2 15.3 0 30.2-.9 45.1-3.2 19-2.6 37.1-6 56-6 46.8 0 73.5 38.7 73.5 82.6 0 87.9-80.3 101.3-150.6 101.3h-48.2c-70 0-150.4-13.5-150.4-101.3 0-43.9 26.7-82.6 73.5-82.6zm9.4 27.5c-25.8 0-36.7 34.2-36.7 55.1s10.9 55.1 36.7 55.1 36.7-34.2 36.7-55.1-10.9-55.1-36.7-55.1zm183.7 0c-25.8 0-36.7 34.2-36.7 55.1s10.9 55.1 36.7 55.1 36.7-34.2 36.7-55.1-10.9-55.1-36.7-55.1z"/></svg>