<svg xmlns="http://www.w3.org/2000/svg" viewBox="0 0 448 512"><path d="M48 32C21.5 32 0 53.5 0 80v352c0 26.5 21.5 48 48 48h352c26.5 0 48-21.5 48-48V80c0-26.5-21.5-48-48-48zm189.3 64.1c43.7 0 67.5 18.1 67.5 62.7 0 30.2-10.3 58-14.6 87.4l.5.5c19.5-11 35.1-21.5 58.2-21.5 2.4 0 7.4 1.4 9.6 2.3 4.7 1.8 25.5 34.4 25.5 39.5 0 1.8-2.3 3.6-4.1 3.5-17.7-2.9-25.6-5.2-36.7-5.2-22.6 0-38.4 6.7-58.4 16.8-5.3 2.7-2.9 4.4-12.3 42.1-10.9 42-46.1 91.7-94.3 91.7-32.9 0-53.3-22.4-53.3-54.7 0-17.6 11.6-50.6 32.7-50.6 7.4 0 36.5 9.6 36.7 17.2-.3 1.5-28.3 13.6-28.3 38 0 24 46 21.4 56.5-58.9 0-2.9.6-2.3-6.9-2.3-54.3 0-86.3-30.3-86.3-85 0-52.7 36.3-123.5 108-123.5zm3.2 34.6c-4.9 0-9.8 1.7-14.1 4.2-27.3 15-38.5 53.8-38.5 83.1 0 19.5 6.7 45.5 30.5 45.5 5.4 0 12.3 1.4 13.7-4.9 5.7-27.8 11.5-55.8 17.3-83.6 1.8-8.7 3.4-17.6 3.4-26.4 0-9.6-.9-17.9-12.3-17.9z"/></svg>