<svg xmlns="http://www.w3.org/2000/svg" viewBox="0 0 384 512"><path d="M191.6 0C112.3.6 58.3 47.7 37.7 118.8c-6.5 22.8-8.8 46-8.3 69.7 2.6 119.2 69 180.2 172 176.2 44.1-1.7 83.3-26 105.4-69.1.8-1.5 1.7-2.9 2.5-4.4l.9.3c.5 5.8.3 47 .2 52.8-.3 22.7-3 45-11 66.5-12 32.1-34.2 53-68 60.4-27.2 6-54.4 5.8-81.3-1.8-32.9-9.3-55.8-29-62.9-63.9-.5-2.5-2-2.1-3.6-2.1-12.7-.1-25.5-.1-38.2-.1h-2.8c1.2 16.2 5 31 13 44.5 37 62 126.5 74.1 196 57.2 76.3-18.5 102.9-83.7 103-162.2 0 0-.1-51.9-.1-332.2h-44.3v61.6c-1.1.4-1.9-.8-2.4-1.9C293.1 38.7 252.9-.4 191.6 0zm-2.7 36.5c71.8-.3 109.9 48.6 119.6 119.7 7.9 57-7.2 120.8-54.8 154-34 23.7-80.7 21.6-108.3 8.7-56.7-26.4-75.6-89.6-71.5-148.6 6.5-93.1 62.5-134.3 115-133.8z"/></svg>