<svg xmlns="http://www.w3.org/2000/svg" viewBox="0 0 512 512"><path d="M256 8C119 8 8 119 8 256s111 248 248 248 248-111 248-248S393 8 256 8zm6.787 38.287C269.05 46.175 275 49.4 277.7 54.9c3 6.7 3.602 15.2 3.602 21.6 0 0-13.301-.8-25.201 14.4 10.8-5.3 24.6-5.3 24.6-5.3 3.6 3.1 8 8.9 8 8.9-6.1 11.6-15.5 35.7-8.9 61.4 5.8 22.4 25.7 32.9 40.1 34.3-21-10.5-45.6-41.3-22.4-81.4 10.6-18 32.2-28.2 54.3-25.7 31 3.6 53.4 31.8 49.8 62.8-2.3 18.8-13.6 34.6-29.1 43.2 0 0 3.6 9.9-.3 22.4 9.4 11.9 9.7 18.5 9.4 24.9 0 0-11.9-1.9-23.5 6.1 26.8-6.4 40.9 6.3 54.5 30.4 5 9.1 27.7 9.6 25.2 25.7-5.8 35.5-79.1-15.5-101.1-59-8.5 17.7-29.3 44.2-63.9 65-17.4 53.7-99.6 157-126.2 142.3-21.9-12.2 7.2-45.1 24.6-64.5.5 7.2 10.2 22.1 10.2 22.1-12.8-40.1 21.3-89.4 30.4-106 0 0 14.4-4.7 15.2-23 1.1-27.9-15.5-48.4-28-60.6 8.9 10.5 11.1 26.8 11.1 41.5 0 0 0 38.2-8 34.3-11.9-.3-18.5 2.5-46.2 9.1 10.8-.6 16.3 4.4 16.3 4.4-6.7 10.2-20.5 23.2-36.3 30.4-23 10.8-29.6-10.6-17.7-24.4 2.8-3.3 5.5-6.1 8.3-8.3-1.6-2-2.7-4.5-3-7.5-6.6-28.8 42.4-68.9 70.6-79.7 0 0 34.6-50.6 56.2-60.3 3.9-3.9 10.5-8.6 13-10-18-31.3-21.9-75.3-16.9-87.2-.1.1-.3.3-.4.5 3.95-7.85 10.525-11.3 16.787-11.413zm69.836 54.084c-8.702.282-17.673 4.934-27.123 15.828-21.9 24.9-8 53.702 11.9 68.102 20 14.1 52.6 4.398 65.1-19.102 12.1-23.3-5.3-36.899-17.2-48.199-10.743-10.125-21.488-16.99-32.677-16.629zm27.072 36.412c1.873.212 3.736 1.143 5.405 3.018 16.6 18.5-8.1 25.1-15.5 16.1-6.338-7.476 1.98-20.035 10.095-19.118zm-93.97 42.768c-1.9 0-3.825.75-5.325 2.25-2.8 2.8-2.8 7.5 0 10.5 3.1 2.8 7.8 2.8 10.5 0 3-3 3-7.8 0-10.5a7.03 7.03 0 0 0-5.175-2.25zm-15.65 15.799c-1.9 0-3.775.75-5.175 2.25-3 2.8-3 7.5 0 10.2 2.8 3 7.5 3 10.5 0 2.8-2.8 2.8-7.5 0-10.2-1.5-1.5-3.426-2.25-5.326-2.25zm32.113 2.55c-3.013 0-5.988 1.1-8.188 3.3l-9.7 9.7c-4.4 4.7-4.4 11.9 0 16.6l10.5 10.5c4.7 4.7 12.2 4.7 16.6 0l9.7-9.7c4.4-4.4 4.4-11.9 0-16.3l-10.5-10.8c-2.35-2.2-5.4-3.3-8.413-3.3z"/></svg>