<svg xmlns="http://www.w3.org/2000/svg" viewBox="0 0 512 512"><path d="M461.863 0C449.126-.125 436.45 4.6 426.9 14.2c-14.8 14.8-23.5 65.7-26.8 88.3-.8 5.5 3.9 10.2 9.5 9.4 22.6-3.2 73.5-12 88.3-26.8 19.2-19.2 18.9-50.6-.7-70.2C487.4 5.1 474.6.125 461.862 0zM254.984 8.166C191.866 8.337 128.812 32.446 80.6 80.6-.5 161.7-13.4 285 41.4 379.9c14.4-4.1 32.4-8 56.5-11.5 33.2-3.9 48.6 25.2 45.7 45.7-3.4 24-7.4 42.1-11.5 56.5 94.8 54.8 218.1 41.9 299.3-39.2s94-204.4 39.2-299.3c-14.4 4.1-32.5 8-56.5 11.5-33 3.9-48.6-25.1-45.7-45.7 3.4-24 7.4-42.1 11.5-56.5-38.512-22.262-81.73-33.35-124.916-33.234zm13.303 88.797c5.338.437 10.414 4.188 11.014 10.838L284.1 160.1l52.3 4.8c13.4 1.2 14.9 20.3 1.8 23.6l-90.5 22.6c-8.9 2.2-16.7-5.9-14.5-14.5l22.5-90.6c1.65-6.6 7.25-9.475 12.587-9.037zM401.912 206.25c5.263-.425 10.737 1.7 14.287 6.65 32.3 45.3 7.101 124.7-35.699 167.6-29.3 29.3-75.7 50.4-116.7 50.4-18.9 0-36.6-4.5-51-14.7-9.8-6.9-8.7-21.8 2-27.2 28.3-14.6 63.9-42.4 97.8-76.3s61.7-69.6 76.3-97.8c2.7-5.25 7.75-8.225 13.012-8.65zm-202.271 26.385c7.377.176 13.184 7.253 11.26 14.865L188.3 338c-3.1 13.2-22.2 11.7-23.5-1.7L160 284l-52.3-4.8c-13.4-1.2-14.9-20.3-1.8-23.6l90.5-22.6c1.1-.275 2.187-.39 3.24-.365zm-95.192 167.414a8.7 8.7 0 0 0-2.049.05C79.8 403.3 28.9 412.1 14.1 426.9c-19.1 19.1-18.8 50.6.8 70.2s51 19.9 70.2.7c14.8-14.8 23.5-65.7 26.8-88.3.7-4.812-2.81-9.012-7.45-9.451z"/></svg>