<svg xmlns="http://www.w3.org/2000/svg" viewBox="0 0 496 512"><path d="M248 8C111 8 0 119 0 256s111 248 248 248 248-111 248-248S385 8 248 8zm-80.1 120.037c6.225-.037 12.5 2.812 16.5 8.662 12.4 18.4 15.1 36.901 15.7 55.301-.5 18.4-3.3 36.9-15.7 55.3-7.6 11.4-24.7 11.7-32.7 0-12.4-18.4-15.1-36.9-15.7-55.3.5-18.4 3.3-36.9 15.7-55.3 3.8-5.7 9.975-8.625 16.2-8.663zm160 0c6.225-.037 12.5 2.812 16.5 8.662 12.4 18.4 15.1 36.901 15.7 55.301-.5 18.4-3.3 36.9-15.7 55.3-7.6 11.4-24.7 11.7-32.7 0-12.4-18.4-15.1-36.9-15.7-55.3.5-18.4 3.3-36.9 15.7-55.3 3.8-5.7 9.975-8.625 16.2-8.663zM120.656 320.023c1.396.064 2.82.315 4.244.778C155.1 330.5 200 336 248 336s92.9-5.5 123.1-15.2c11.4-3.7 22.6 6.1 20.7 17.9-9.3 55-83.2 93.3-143.8 93.3s-134.5-38.3-143.8-93.3c-1.75-10.326 6.684-19.118 16.456-18.677z"/></svg>