<svg xmlns="http://www.w3.org/2000/svg" viewBox="0 0 512 512"><path d="M248 8C111 8 0 119 0 256s111 248 248 248 248-111 248-248S385 8 248 8zm0 48c110.3 0 200 89.7 200 200s-89.7 200-200 200S48 366.3 48 256 137.7 56 248 56zm-80 120c-17.7 0-32 14.3-32 32s14.3 32 32 32 32-14.3 32-32-14.3-32-32-32zm160 0c-17.7 0-32 14.3-32 32s14.3 32 32 32 32-14.3 32-32-14.3-32-32-32zM138.727 303.96c-8.428-.314-15.515 7.278-14.028 15.94 7.9 47.1 71.301 80 123.301 80s115.3-32.9 123.3-80c1.6-9.8-7.7-18.4-17.7-15.3-25.9 8.3-64.4 13.1-105.6 13.1s-79.6-4.8-105.6-13.1a14 14 0 0 0-3.673-.64z"/></svg>