<svg xmlns="http://www.w3.org/2000/svg" viewBox="0 0 512 512"><path d="M156.8 0C140.896 0 128 14.327 128 32v64c0 8.584 3.048 16.372 8 22.12v2.679c0 6.964-6.193 14.862-23.668 30.183l-.148.13-.147.13c-9.937 8.856-20.84 18.117-33.252 25.852C48.537 195.799 0 207.487 0 252.8c0 56.928 35.285 92 83.2 92 8.025 0 15.489-.816 22.4-2.178V428.8c0 45.1 38.102 83.2 83.2 83.2 45.617 0 83.2-37.764 83.2-83.2v-35.648a93.2 93.2 0 0 0 22.064-7.927c22.006 2.507 44.978-3.505 62.791-15.987C409.342 368.1 448 331.841 448 269.298V248c0-60.063-40-98.511-40-127.2v-2.679c4.952-5.747 8-13.535 8-22.119V32c0-17.673-12.895-32-28.8-32zM352 40c13.255 0 24 10.745 24 24s-10.745 24-24 24-24-10.745-24-24 10.745-24 24-24zm-168.43 88h176.752C364.086 170.79 400 202.509 400 248v21.299c0 40.524-22.196 57.124-61.324 50.601-8.001 14.612-33.98 24.15-53.625 12.924-18.225 19.365-46.382 17.788-61.051 4.951v91.026C224 447.776 207.776 464 188.8 464c-18.7 0-35.2-16.774-35.2-35.2V270.4c-17.325 0-35.2 26.4-70.4 26.4-26.4 0-35.2-20.624-35.2-44 0-8.793 32.712-20.446 56.1-34.927 14.575-9.074 27.225-19.524 39.875-30.799 18.374-16.109 36.632-33.835 39.595-59.074z"/></svg>