<svg xmlns="http://www.w3.org/2000/svg" viewBox="0 0 512 512"><path d="M229.889.008c-23.306.35-46.394 12.911-58.34 37.01C130.269 26.457 89.145 57.945 89.145 102v126.13c-19.953-7.426-43.31-5.067-62.084 8.872-29.355 21.796-35.793 63.332-14.55 93.152l119.97 168.414a32 32 0 0 0 26.062 13.434h222.896c14.904 0 27.835-10.29 31.182-24.814l30.184-130.958A203.6 203.6 0 0 0 448 310.564V179c0-40.62-35.523-71.992-75.43-66.36v-10.824c0-43.612-40.52-76.691-83.039-65.546C276.717 11.52 253.194-.342 229.89.008zm.968 48.15c9.143.193 18.286 6.783 18.286 19.533V256c0 8.837 7.163 16 16 16h6.855c8.837 0 16-7.163 16-16V101.125c0-25.672 36.57-24.81 36.57.691V256c0 8.837 7.163 16 16 16h6.858c8.837 0 16-7.163 16-16v-76.309c0-26.242 36.568-25.64 36.568-.691v131.563h.002c0 11.73-1.334 23.47-3.965 34.886L368.707 464h-201.92L51.592 302.303c-14.44-20.27 15.021-42.777 29.392-22.606l27.13 38.08c8.994 12.626 29.03 6.287 29.03-9.283V102c0-25.645 36.57-24.81 36.57.691V256c0 8.837 7.164 16 16 16h6.856c8.837 0 16-7.163 16-16V67c0-12.831 9.145-19.035 18.287-18.842z"/></svg>