<svg xmlns="http://www.w3.org/2000/svg" viewBox="0 0 576 576"><path d="M56 32C25.121 32 0 57.122 0 88v8c0 44.112 35.888 80 80 80h196.043l-18.334 48H144c-48.523 0-88 39.477-88 88 0 30.879 25.121 56 56 56h131.553c2.987 0 5.912.549 8.695 1.63L352 408.419V480h224V355.828c0-23.225-6.68-45.799-19.314-65.285L410.328 64.828C397.001 44.271 374.418 32 349.918 32zm0 48h293.918c8.166 0 15.693 4.09 20.137 10.941l146.357 225.715A71.84 71.84 0 0 1 528 355.828V432H400v-23.582c0-19.948-12.014-37.508-30.604-44.736l-99.751-38.787A71.7 71.7 0 0 0 243.553 320H112c-4.411 0-8-3.589-8-8 0-22.056 17.944-40 40-40h113.709c19.767 0 37.786-12.407 44.84-30.873l24.553-64.281c8.996-23.553-8.43-48.846-33.631-48.846H80c-17.645 0-32-14.355-32-32v-8c0-4.411 3.589-8 8-8z"/></svg>