<svg xmlns="http://www.w3.org/2000/svg" viewBox="0 0 512 512"><path d="M224 64c-34.222-.014-57.752 35.098-44.12 66.908 3.584 8.36 8.312 16.67 14.153 24.918H44.801C21.35 155.826 0 176.37 0 199.652c0 23.625 20.65 43.827 44.8 43.827h99.85c-16.34 17.047-18.346 49.766 6.3 70.943-14.289 22.829-2.147 53.017 16.45 62.314C158.426 425.877 189.346 448 240 448c2.746 0 13.276-.202 16-.195 61.97.168 76.894-31.065 123.73-38.315 11.673-1.806 20.27-11.89 20.27-23.703V214.262l-.002-.002c-.01-18.366-10.608-35.89-28.465-43.846C342.647 157.42 276.122 121.378 264 93.092 256.203 74.897 242.616 64.008 224 64zm216 112c-13.255 0-24 10.745-24 24v192c0 13.255 10.745 24 24 24h48c13.255 0 24-10.745 24-24V200c0-13.255-10.745-24-24-24zm24 172c11.046 0 20 8.954 20 20s-8.954 20-20 20-20-8.954-20-20 8.954-20 20-20z"/></svg>