<svg xmlns="http://www.w3.org/2000/svg" viewBox="0 0 448 512"><path d="M144 0c-22.092 0-40 17.909-40 40v275.992l-31.648-43.517c-12.993-17.866-38.01-21.819-55.877-8.825-17.865 12.993-21.816 38.011-8.823 55.877l127.998 176A40 40 0 0 0 168 512h208c18.562 0 34.687-12.77 38.938-30.838l32-136A40 40 0 0 0 448 336v-96c0-22.091-17.908-40-40-40s-40 17.909-40 40h-8v-24c0-22.091-17.908-40-40-40s-40 17.909-40 40v24h-8v-40c0-22.091-17.908-40-40-40s-40 17.909-40 40v40h-8V40c0-22.091-17.908-40-40-40zm40 320h8v96h-8zm88 0h8v96h-8zm88 0h8v96h-8z"/></svg>