<svg xmlns="http://www.w3.org/2000/svg" viewBox="0 0 512 512"><path d="M80 0 53.34 53.33 0 80l53.34 26.67L80 160l26.66-53.33L160 80l-53.34-26.67zm144 0-16 32-32 16 32 16 16 32 16-32 32-16-32-16zm171.15 0c-8.19 0-16.38 3.12-22.63 9.38L9.38 372.52c-12.5 12.5-12.5 32.76 0 45.25l84.85 84.85c6.25 6.25 14.44 9.37 22.62 9.37 8.19 0 16.38-3.12 22.63-9.37l363.14-363.15c12.5-12.48 12.5-32.75 0-45.24L417.77 9.38C411.53 3.12 403.34 0 395.15 0zm-.01 65.95 50.91 50.91-86.6 86.6-50.91-50.91zM432 288l-26.66 53.33L352 368l53.34 26.67L432 448l26.66-53.33L512 368l-53.34-26.67z"/></svg>