<svg xmlns="http://www.w3.org/2000/svg" viewBox="0 0 448 512"><path d="m288.16 0-4.58 2.32c-4.45 2.21-4.82 2.28-15.26 2.68l-10.74.39-4.35 2.4c-4.05 2.24-4.54 2.35-7.05 1.67a22.7 22.7 0 0 1-5-2.17 18.2 18.2 0 0 0-6-1.91 29.5 29.5 0 0 1-5.82-1.36c-1.85-.77-2.7-.71-6.35.4a29.6 29.6 0 0 1-6 1.29 45.3 45.3 0 0 0-7.55 1.68c-3.21.93-6.49 1.5-7.37 1.28-2.2-.55-7.22 1.81-8.82 4.15-2.93 5.02-8.39 13.27-6.06 19.2 3.4 4.49 15.69 1.05 15.4 8.68-2.14 8.96-5.5 17.56-8.61 26.22l-11.36-2.52c7.48-25.23 6.37-15.61-14.07-29a30.4 30.4 0 0 1 2.37-6.82c2.81-4.09 5.42-8.42 5.42-9a6.7 6.7 0 0 1 1.34-2.32c1.65-2.1 1.83-6.94.29-8.5s-3.13-1.75-11.66-1.56c-6.92.11-8.06.31-11.37 2-2.11 1.08-6.64 4.68-10.59 8.43l-6.91 6.55.22 13 .22 13 2.44 5c2.42 5 5.02 7.78 11.26 12a23 23 0 0 1 2.69 2c.19.23 2.25 1.92 4.6 3.76s5.2 4.06 6.35 5.06a43.2 43.2 0 0 0 13.34 7.88c8.91 3.16 11.27 6.28 12.91 17.39.85 5.72 3.38 13.92 4.93 15.92.45.54 1.55 4.84 4.1 16 .39 1.84.85 4.4 1 5.69s.56 3.69.93 5.35a133 133 0 0 1 2 17.84c0 2.45-.25 2.96-2.25 4.18a9.4 9.4 0 0 1-3.33 1.39c-1.46 0-4.15-5.49-5.46-11.14-2-8.85-4.82-12.59-10-13.39-4.33-.67-11.78-6.13-22.95-16.85a18.7 18.7 0 0 0-4.72-2.85c-7.47-3.11-11.87-6.15-15.2-10.52-2.06-2.7-2.25-3.39-2.25-7.39a101 101 0 0 1 1-11.11c1.27-8.76 1.24-13.76-.1-18.55-1.71-6-6.23-8.47-9.41-5-2.86 3.13-8.27 18.03-10.6 29.22-1.05 5.05-2.22 7.87-4.45 10.73a4.24 4.24 0 0 0-.87 3.9c.5 2.6 4.67 11.98 6 13.49a32 32 0 0 1 2.59 4.07l1.69 3-1.35 4.65c-2.23 7.63-2.25 7.21.56 9.63 1.41 1.19 7.6 7.19 13.75 13.19 12.85 12.65 14.99 13.93 23.85 14.55 5.49.39 7.71 1.18 8.54 3.05.25.56.53 5.99.63 12.06.42 25.52.36 25.19 6.22 33.27l3.28 4.52.89 8.7c1.1 10.49 1.09 43.35 0 59.06l-.75 10.9 1.95 2.81c1.07 1.55 6.91 7.78 12.91 13.85 8.35 8.4 11.5 12.06 13.22 15.34l2.26 4.3-.43 16.77c-.24 9.22-.74 17.82-1.13 19.11s-1.16 9.27-1.72 17.73c-.95 14.43-1.78 25.41-2.61 34.78-.19 2.21-.64 7.93-1 12.71-1.07 14.33-2.63 29.62-3.33 32.62-1.17 5.16-.92 6.08 2.83 9.95 4.45 4.58 11.88 10.22 12.52 9.49 1.12-1.28 2.06-12.35 2.42-28.65.21-9.56.48-19.07.6-21.07.15-3.21.69-19.45 2-61.21.2-6.25.53-14.05.73-17.32.38-6.06-.16-10.58-2.39-20.14a91 91 0 0 1-1.71-10.37 38 38 0 0 0-2.06-9c-.88-2.18-1.46-4.1-1.29-4.27s.02-.86-.34-1.52c-1.05-1.96-1.93-12.84-2-24.71s-1-16.82-4.41-23.56c-1.71-3.38-10.57-16.13-13.78-19.83l-2-2.25.34-12.19c.4-12.89 1.22-19 3-22 1.48-2.52 2.83-2.06 4.54 1.54 1.6 3.38 3.23 5.12 10.23 11.3 5.21 4.57 7.41 7.5 7.41 9.89a14.2 14.2 0 0 1-1.67 4.61c-2.52 4.85-2.28 10.1 1 21 1.45 4.82 2.83 10.19 3.08 11.93a14.9 14.9 0 0 0 1.44 4.75c.91 1.44 1.05 1.53 2.05.53a9.85 9.85 0 0 0 1.55-4.26c.25-1.76.79-5.46 1.25-8.22s1.07-6.46 1.46-8.23a28.83 28.83 0 0 0-.72-15.36c-.82-2.48-1.77-4.67-2.11-4.88-.84-.53-.8-4.57.16-7.76s4.29-6.5 12.66-12.58c3.53-2.56 7.26-5.87 8.29-7.36s2.11-2.71 2.41-2.71c2.12 0 1.9 9.14-.37 15.39a109.5 109.5 0 0 0-4.42 15.05c-.71 3.56-2.33 10.88-4.59 20.74-2.11 9.27-5.57 18.56-8.62 23.27-1.63 2.52-1.85 3.47-2.06 9.67s1.25 20.9 3.25 33.9a92 92 0 0 1 .34 12.71c-.23 7.59-.1 9.11 1 11.43 2.2 4.64 2.6 8.29 2.73 24.76.06 8.83.38 18.15.69 20.73.64 5.26.84 32.13.24 33.13-.41.66-2.64 15.18-3.28 21.38-.4 4.04-.85 12.87-1.4 28.76-.299 8.732.387 21.256 1.384 24.547.824.816 12.73-8.453 15.386-12.287l1.81-2.63v-19.06c-.01-11.74-.32-20.48-.79-22.74-.42-2.03-.91-5.36-1.08-7.36a61 61 0 0 0-1.08-7c-.89-3.88-1.09-17.75-.63-44.15.35-20.21.23-21.13-4.38-37.13a40.8 40.8 0 0 1-1.14-8.87l-.07-5.19 4-3.49c11.52-10.15 14.41-16.15 11-22.84-2.19-4.38-2.77-10.93-2-23.15.35-6.05.97-13.29 1.35-16.05s.82-6.7 1-8.7c1.01-11.469 3.28-20.74 5.07-20.74 1.07 0 4.02-7.52 4.7-12 1.09-7.1.57-21.63-.83-23.22a9.3 9.3 0 0 1-1.57-2.89 42 42 0 0 0-2.09-4.83 14.6 14.6 0 0 1-1.59-7.26c0-4.85 1.21-7.68 4.26-10 1.17-.92 5.34-4.6 9.17-8.17l7-6.49 2.29-7.22c2.3-7.26 6.58-17.15 8.76-20.26.64-.89 2.61-4.51 4.38-8 3.88-7.68 8.22-13.28 16.76-21.61l6.43-6.28-.82-2.47c-.45-1.36-.86-6.26-.92-10.89l-.11-8.42-4.45-4.09-4.45-4.09.61-7.36c.34-4.05.98-10.52 1.44-14.38 1.41-11.96.11-15.05-4.59-10.87-2.73 2.43-4.58 6.21-5.58 11.51a20.4 20.4 0 0 1-2.89 7.31 18.4 18.4 0 0 0-2.86 7.73c-2.85 17.08-5.74 24.51-12.85 33.3a40.1 40.1 0 0 1-15.22 11.67c-2.58 1.22-6.83 3.47-9.37 4.91s-7.06 3.93-10 5.44c-10.05 5.16-11.58 7.08-13.76 17.08-2.41 11.07-2.71 11.89-4.71 12.12-1.42.16-2-.22-3.24-2.32s-1.46-3.5-1.46-8.38a33.5 33.5 0 0 1 1.06-8.91c1.45-4.28 1.29-6.21-.71-8.84-2.24-2.94-2.66-6.88-1.35-9.59s1.32-6.77 0-10.57a36.5 36.5 0 0 1-1.42-5.88c-.35-2.49-.17-3.21 1.14-4.6A5.76 5.76 0 0 1 224 100a7.3 7.3 0 0 0 2.38-1.7c1-1 4.54-3.66 7.87-6a68 68 0 0 0 7-5.38 6.9 6.9 0 0 1 2.45-1.71 5.9 5.9 0 0 0 2.49-2.91 13.6 13.6 0 0 1 4.38-4.78 18.3 18.3 0 0 0 4.09-3.71c.54-1.01 1.44-1.26 4.54-1.26 3.91 0 7.01-.99 16.21-5.19 7.5-3.44 9.26-5.49 14.26-17a14.8 14.8 0 0 0 1.07-3c0-1.43 4.83-7.87 7-9.34 2.41-1.62 2.72-2.59 2.41-6.92a13.6 13.6 0 0 0-1.31-4 36 36 0 0 1-2.1-5.91c-.79-3.09-.78-3.95.1-6.39 1.01-2.79.99-2.86-1.37-7.37-1.71-3.27-3.09-5-4.85-6zm-55.896 511.857c-.017-.016-.096.027-.104.002l.11.032c-.003-.007-.004-.027-.006-.034zm94.976-381.296c-21.08 21.7-27.57 38.37-30.57 53.82 37.41 38.66 64.28 68 64.28 68 35.78 51.49 10.12 96.108-46.54 89.228v.022C341 371.1 424 350.56 419.7 279.92c-.46-7.75-3.26-85.85-92.46-149.36zm-223.62 32.048v.041c-83.09 69.36-85.68 147.71-61 187.66 20.68 33.53 84.5 34.13 98.68 4.9C72.55 369.59 47.55 320 78.55 268c7.7-13 33.05-34.72 76.71-70.86-4.28-9.74-10.15-12.58-23.15-16.87-10.65-3.51-7.42-4.87-28.49-17.66zm77.632 172.162c-.259-.016-.457.034-.582.159-.62.62-.45 22.08.22 28.29.36 3.31.7 6.62.7 7.36.07 1.72 2.42 16.28 3.42 21.07.42 2.02 1.02 6.29 1.33 9.48a37.5 37.5 0 0 0 1 6.49 101 101 0 0 1 1.73 10.79 101 101 0 0 0 1.73 10.79h-.01a.62.62 0 0 0 1 .14c.71-.71 1.86-14.59 2.65-32 .33-7.36.76-14.88.94-16.72s.49-7.11.67-11.71.53-11.27.78-14.83l.45-6.47-5.28-5.25c-4.113-4.087-8.936-7.475-10.748-7.589zm80.81 6.659c-.757.09-1.973.874-4.113 2.44-4.28 3.13-5.28 4.9-5.28 9.13 0 3.64 2.34 20.23 3 21.3 1.24 2.01 2.492 14.45 2.642 26.38.09 7.36.5 15.06.9 17.06 1.37 6.91 2.26 20.39 2.26 34.45 0 7.72.15 14.29.33 14.59l.11-.03c.63 1.05 2.719-1.65 3.429-4.43 1.36-5.54 2.17-21.87 2-41.27-.17-16.04 0-21.36 1-28.43 1.61-11.6 1.64-11.95 1.74-17.73.09-5.47-.12-6.62-4.05-21.74-1.15-4.38-2.32-8.9-2.6-10-.31-1.21-.61-1.812-1.368-1.72z"/></svg>