<svg xmlns="http://www.w3.org/2000/svg" viewBox="0 0 512 512"><path d="M144 0c-26.51 0-48 21.49-48 48v416c0 26.51 21.49 48 48 48h224c26.51 0 48-21.49 48-48V48c0-26.51-21.49-48-48-48zM30 88a6 6 0 0 0-6 6v6H6a6 6 0 0 0-6 6v12a6 6 0 0 0 6 6h18v6a6 6 0 0 0 6 6h42V88zm410 0v48h42a6 6 0 0 0 6-6v-6h18a6 6 0 0 0 6-6v-12a6 6 0 0 0-6-6h-18v-6a6 6 0 0 0-6-6zM30 184a6 6 0 0 0-6 6v6H6a6 6 0 0 0-6 6v12a6 6 0 0 0 6 6h18v6a6 6 0 0 0 6 6h42v-48zm410 0v48h42a6 6 0 0 0 6-6v-6h18a6 6 0 0 0 6-6v-12a6 6 0 0 0-6-6h-18v-6a6 6 0 0 0-6-6zM30 280a6 6 0 0 0-6 6v6H6a6 6 0 0 0-6 6v12a6 6 0 0 0 6 6h18v6a6 6 0 0 0 6 6h42v-48zm410 0v48h42a6 6 0 0 0 6-6v-6h18a6 6 0 0 0 6-6v-12a6 6 0 0 0-6-6h-18v-6a6 6 0 0 0-6-6zM30 376a6 6 0 0 0-6 6v6H6a6 6 0 0 0-6 6v12a6 6 0 0 0 6 6h18v6a6 6 0 0 0 6 6h42v-48zm410 0v48h42a6 6 0 0 0 6-6v-6h18a6 6 0 0 0 6-6v-12a6 6 0 0 0-6-6h-18v-6a6 6 0 0 0-6-6z"/></svg>