<svg xmlns="http://www.w3.org/2000/svg" viewBox="0 0 640 640"><path d="M256.92 68c-72.266 0-136.224 46.516-159.205 114.074-54.545 8.03-96.631 54.822-96.631 111.582 0 62.298 50.667 112.965 113.242 112.965h289.615c52.33 0 94.97-42.36 94.97-94.691 0-45.131-32.12-83.064-74.481-92.201C416.124 134.727 344.136 68 256.92 68zm0 42.361c69.496 0 125.978 56.485 125.978 125.703 0 13.568-2.215 26.857-6.369 39.594-8.943 27.517 32.135 38.938 40.149 13.29 2.769-8.307 4.984-16.888 6.369-25.471 19.38 7.476 33.502 26.303 33.502 48.453 0 28.795-23.536 52.33-52.608 52.33H114.326c-39.04 0-70.88-31.566-70.88-70.606s31.84-70.603 70.88-70.603c18.827 0 36.548 7.474 49.838 20.765 19.963 19.963 50.135-10.226 30.182-30.18-14.675-14.397-32.672-24.365-52.053-29.349 19.935-44.3 64.789-73.926 114.627-73.926zm326.678 69.545c-14.428 1.04-27.617 17.482-16.854 33.178a178.1 178.1 0 0 1 29.904 98.846c0 35.44-10.523 69.772-29.904 99.12-9.684 14.124 1.127 32.95 17.443 32.95 6.922 0 13.568-3.322 17.721-9.414 24.365-36.271 37.102-78.632 37.102-122.656s-12.736-86.386-37.102-122.38c-4.938-7.407-11.752-10.117-18.31-9.644zm-60.813 34.365c-14.462 1.01-27.511 17.344-16.676 33.147 13.013 19.104 19.659 41.53 19.659 64.512 0 23.258-6.646 45.407-19.659 64.511-9.579 13.97.243 32.95 17.444 32.95 6.922 0 13.567-3.046 17.72-9.137 17.72-26.304 26.858-56.76 26.858-88.324s-9.139-62.021-26.858-88.047c-5.048-7.363-11.914-10.07-18.488-9.612z"/></svg>