<svg xmlns="http://www.w3.org/2000/svg" viewBox="0 0 384 512"><path d="M191.994.002a15.95 15.95 0 0 0-11.314 4.687l-76.6 76.612a31.97 31.97 0 0 0-9.21 19.44L64 416h256l-30.86-315.26a31.97 31.97 0 0 0-9.21-19.44L203.31 4.69A15.96 15.96 0 0 0 191.995.001zM156.801 256h70.398c6.4 0 12.801 6.4 12.801 12.8v38.4c0 6.4-6.4 12.8-12.8 12.8h-70.4c-6.4 0-12.8-6.4-12.8-12.8v-38.4c0-6.4 6.4-12.8 12.8-12.8zM16 448c-8.84 0-16 7.16-16 16v32c0 8.84 7.16 16 16 16h352c8.84 0 16-7.16 16-16v-32c0-8.84-7.16-16-16-16z"/></svg>