<svg xmlns="http://www.w3.org/2000/svg" viewBox="0 0 400 512"><path d="M93.707 7.967C90.084 7.97 88 8.1 88 8.1 85.6 134.9 192 128 192 127.9c-2.4-88.1-77.6-107.5-77.6-107.5 73.8 5.2 93.6 99.7 93.6 99.7 42.2-59.1 82.1-48.8 82.1-48.8-51.5 2-66.1 56.6-66.1 56.6 70.3 18 88-56 88-56-83.9-34.3-103 40.6-103 40.6C219.85 13.975 119.071 7.937 93.707 7.967zM200 143.4c-62.9 0-117.8 17.7-160 48.6-22.3 37-40 83.3-40 131.7C0 372.2 9.7 419 32 456c42.2 30.9 105.1 48 168 48 63 0 125.8-17.1 168-48 22.3-37 32-83.8 32-132.3 0-48.4-17.7-94.7-40-131.7-42.2-31-97-48.6-160-48.6zm0 24.6c53.5 0 105.2 12.1 144 32 8.6 19.1 11.2 33.7 16 56-42.2-7.9-98.7-14.8-160-14.8S82.2 248.1 40 256c4.8-22.1 7.2-36.5 16-56 38.8-19.9 90.5-32 144-32zM92 267.6c15.5 0 28 12.5 28 28s-12.5 28-28 28-28-12.5-28-28 12.5-28 28-28zm72 0c15.5 0 28 12.5 28 28s-12.5 28-28 28-28-12.5-28-28 12.5-28 28-28zm72 0c15.5 0 28 12.5 28 28s-12.5 28-28 28-28-12.5-28-28 12.5-28 28-28zm72 0c15.5 0 28 12.5 28 28s-12.5 28-28 28-28-12.5-28-28 12.5-28 28-28zM92 333.8c15.5 0 28 12.5 28 28s-12.5 28-28 28-28-12.5-28-28 12.5-28 28-28zm72 0c15.5 0 28 12.5 28 28s-12.5 28-28 28-28-12.5-28-28 12.5-28 28-28zm72 0c15.5 0 28 12.5 28 28s-12.5 28-28 28-28-12.5-28-28 12.5-28 28-28zm72 0c15.5 0 28 12.5 28 28s-12.5 28-28 28-28-12.5-28-28 12.5-28 28-28zM92 400c15.5 0 28 12.5 28 28s-12.5 28-28 28-28-12.5-28-28 12.5-28 28-28zm72 0c15.5 0 28 12.5 28 28s-12.5 28-28 28-28-12.5-28-28 12.5-28 28-28zm72 0c15.5 0 28 12.5 28 28s-12.5 28-28 28-28-12.5-28-28 12.5-28 28-28zm72 0c15.5 0 28 12.5 28 28s-12.5 28-28 28-28-12.5-28-28 12.5-28 28-28z"/></svg>