<svg xmlns="http://www.w3.org/2000/svg" viewBox="0 0 640 640"><path d="M176 96c-8.84 0-16 7.16-16 16v16c0 8.84 7.16 16 16 16h56v48h-56L37.72 166.86a32 32 0 0 0-5.79-.53C14.67 166.33 0 180.36 0 198.34v94.95c0 15.459 11.06 28.72 26.28 31.48L96 337.46V384c0 17.67 14.33 32 32 32h274.63c8.55 0 16.75-3.42 22.76-9.51l212.26-214.75c1.5-1.5 2.34-3.54 2.34-5.66V168c.01-5.31-5.08-9.15-10.19-7.69L416 224l-50.49-25.24a64.1 64.1 0 0 0-28.62-6.76H280v-48h56c8.84 0 16-7.16 16-16v-16c0-8.84-7.16-16-16-16zM48 217.51l48 8.73v62.43l-48-8.73zM592 288s-42.67 61.77-42.67 85.33S568.43 416 592 416s42.67-19.1 42.67-42.67S592 288 592 288z"/></svg>