<svg xmlns="http://www.w3.org/2000/svg" viewBox="0 0 496 512"><path d="M248 0C111 0 0 111 0 248c0 133.1 104.6 241.6 236.1 247.7 3.9.3 8 .3 11.9.3 63.4 0 121.5-23.8 165.3-63-29.1 19.3-63.1 30.4-99.4 30.4-58.9 0-111-30.2-147.5-75.6C61.3 256.5 143.7 32.7 313.9 32.7c36.2 0 70.3 11 99.3 30.4C369.5 24.1 311.9.3 248.8 0zm102.488 48.463C327.701 49.225 304.9 56.8 284 71.4c56.2 20.8 97.4 91.9 97.4 176.6 0 85-41.5 156.1-97.7 176.6 41.3 29.4 91.1 30.5 132 5.8 106.7-98.3 107.1-265.3 1.2-364-20.85-12.65-43.624-18.7-66.412-17.937z"/></svg>