<svg xmlns="http://www.w3.org/2000/svg" viewBox="0 0 512 512"><path d="M260.197 16.021a261.5 261.5 0 0 0-38.396 2.319C105.4 34 10.3 130.64 8 266.44c1.6 21 1.9 59.5 26.8 108.7 29.4 58 78.2 98.7 130.8 119 7.2 2.8 12.9.4 15.5-6.5q26.85-70 53.7-139.9c3.7-9.8 1.8-14-7.8-18.4-30.8-14-47.1-44.7-41.9-77.7 5.7-36 38.5-63.1 77.5-59.7a71.47 71.47 0 0 1 64.5 82.2c-4 26.4-19.1 44.8-43.3 55.8-8 3.6-10.1 8.7-7 16.8q26.7 69.55 53.4 139c3.6 9.4 8.7 11.5 18 7.7 107.6-44 172.9-155.2 151.6-274C479.5 105.885 381.67 17.711 260.198 16.02zm-9.049 20.883c123.806-2.722 217.508 89.68 230.352 199.836 6.8 59.1-7.5 112.8-42.3 161-22.9 31.7-52.6 55.4-88.1 72-3.2 1.5-4.4.8-5.6-2.3q-22.4-58.9-45.2-117.7c-1.2-3.1-.4-4.4 2.3-6 26.4-15.9 42.1-39.2 45.7-69.8a91.64 91.64 0 0 0-45.2-90.4c-38.5-22.2-85.5-15.1-115.5 17.6-14.5 15.8-22.8 34.7-23.8 56.3-1.7 37.5 14 66.1 45.6 86 3 1.9 3.7 3.4 2.4 6.7q-22.65 58.65-45 117.3c-1.2 3.1-2.4 3.8-5.6 2.3-81.4-39.6-124.7-111.2-131-183.1-.7-7.8-.9-15.5-1.3-22.1 1.8-123.3 91-212.8 197.1-225.8a250 250 0 0 1 25.148-1.836z"/></svg>