<svg xmlns="http://www.w3.org/2000/svg" viewBox="0 0 512 512"><path d="M403.875-.002c-12.29 0-24.58 4.688-33.955 14.063l-56.55 56.548 128.02 128.022 56.55-56.55c18.75-18.75 18.75-49.151 0-67.911l-60.11-60.11C428.455 4.687 416.165-.001 403.875-.001zM222.859 41.926c-10.235 0-20.469 3.905-28.279 11.715L75.8 172.43c-6.25 6.25-6.25 16.38 0 22.62l22.63 22.63c6.25 6.25 16.38 6.25 22.63 0l101.82-101.82 22.63 22.62L93.95 290.03A327.04 327.04 0 0 0 .17 485.11l-.03.23c-1.7 15.28 11.21 28.2 26.49 26.51a327.02 327.02 0 0 0 195.34-93.8l196.79-196.79-82.77-82.77-84.85-84.85c-7.81-7.81-18.046-11.714-28.28-11.714z"/></svg>