<svg xmlns="http://www.w3.org/2000/svg" viewBox="0 0 512 512"><path d="M418.709-.01c-12.296 0-24.594 4.69-33.979 14.07l-46.02 46.01 113.2 113.2 46.02-46.03c18.76-18.76 18.75-49.17 0-67.93l-45.25-45.25C443.3 4.68 431.005-.01 418.709-.01zm-297.28.008c-8.117 0-16.234 3.096-22.429 9.291L9.29 99c-12.38 12.39-12.39 32.47 0 44.86l100.17 100.18 134.58-134.56-44.12-44.12-61.68 61.68a7.92 7.92 0 0 1-11.21 0l-11.21-11.21c-3.1-3.1-3.1-8.12 0-11.21l61.68-61.68-33.64-33.65c-6.196-6.196-14.313-9.292-22.43-9.292zM316.08 82.711l-297 296.959L.32 487.11c-2.53 14.49 10.09 27.11 24.59 24.56l107.45-18.84L429.28 195.9zm86.43 185.228L267.93 402.5l100.21 100.2c12.39 12.39 32.47 12.39 44.86 0l89.71-89.7c12.39-12.39 12.39-32.47 0-44.86l-33.64-33.64-61.68 61.68c-3.1 3.1-8.12 3.1-11.21 0l-11.21-11.21c-3.09-3.1-3.09-8.12 0-11.21l61.68-61.68z"/></svg>