<svg xmlns="http://www.w3.org/2000/svg" viewBox="0 0 448 512"><path d="M226.6 0C111.9 0 18.5 96.2 18.5 214.4c0 75.1 57.8 159.8 82.7 192.7C137.8 455.5 192.6 512 226.6 512c41.6 0 112.9-94.2 120.9-105 24.6-33.1 82-118.3 82-192.6 0-56.5-21.1-110.1-59.5-150.8C331.4 22.6 280.5 0 226.6 0zm0 18.2c100.8 0 184.7 89 184.7 196.3.1 112.1-147.4 279.4-184.7 279.4-42.5 0-190-167.3-190-279.4 0-107.4 83.9-196.3 190-196.3zm-1.55 72.519C215.96 90.814 206.576 92 197 94.4c15.8 6.9 26.9 22.5 26.9 40.7 0 24.5-20.1 44.4-44.8 44.4s-44.8-19.9-44.8-44.4v-.4c-57.8 73.6-7.7 181.8 92.9 181.8 59.7 0 110.8-50.6 110.8-109.7 0-63.962-49.307-116.747-112.95-116.081z"/></svg>