<svg xmlns="http://www.w3.org/2000/svg" viewBox="0 0 496 512"><path d="M248 8C111 8 0 119 0 256c0 105.1 65.4 194.9 157.6 231-2.1-19.6-4.1-49.8.9-71.2 4.5-19.4 29-123.2 29-123.2s-7.4-14.8-7.4-36.8c0-34.5 20-60.2 44.9-60.2 21.2 0 31.4 15.9 31.4 34.9 0 21.3-13.5 53.1-20.5 82.6-5.9 24.7 12.4 44.8 36.7 44.8 44.1 0 78-46.5 78-113.6 0-59.4-42.7-100.9-103.6-100.9-70.6 0-112 52.9-112 107.6 0 21.3 8.2 44.1 18.3 56.6 2 2.4 2.3 4.6 1.7 7.1-1.9 7.8-6.1 24.7-6.9 28.1-1.1 4.5-3.6 5.5-8.3 3.3-30.9-14.4-50.3-59.7-50.3-96.1 0-78.3 56.9-150.1 163.9-150.1 86 0 152.9 61.3 152.9 143.2 0 85.5-53.9 154.3-128.7 154.3-25.1 0-48.7-13.1-56.8-28.5 0 0-12.4 47.4-15.4 59-5.6 21.5-20.7 48.5-30.8 65 23.2 7.2 47.8 11.1 73.4 11.1 137 0 248-111 248-248S385 8 248 8z"/></svg>