<svg xmlns="http://www.w3.org/2000/svg" viewBox="0 0 512 512"><path d="M152.88.105c-13.76 1.1-25.727 10.427-29.34 24.165l-14.81 56.27c187.62 5.49 314.54 130.61 322.48 317l56.94-15.78c15.72-4.36 25.49-19.68 23.62-35.9C490.89 165.08 340.779 17.32 158.87.15a34.6 34.6 0 0 0-5.99-.045zM100.4 112.15.55 491.64a16.21 16.21 0 0 0 20 19.75l379-105.1c-4.27-174.89-123.08-292.14-299.15-294.1zm87.846 90.286A32 32 0 0 1 208 232a32 32 0 0 1-32 32 32 32 0 1 1 12.246-61.564zm104 104A32 32 0 0 1 312 336a32 32 0 0 1-32 32 32 32 0 1 1 12.246-61.564zm-152 48A32 32 0 0 1 160 384a32 32 0 0 1-32 32 32 32 0 1 1 12.246-61.564z"/></svg>