<svg xmlns="http://www.w3.org/2000/svg" viewBox="0 0 640 640"><path d="M368-.05c-5.675 0-11.35 2.95-14.3 8.85L304 108.2l-19.9-39.8c-1.4-2.7-4.1-4.4-7.2-4.4H136c-4.4 0-8 3.6-8 8v16c0 4.4 3.6 8 8 8h126.1l27.6 55.2c5.9 11.8 22.7 11.8 28.6 0L368 51.8 390.1 96H512c8.8 0 16-7.2 16-16s-7.2-16-16-16H409.9L382.3 8.8c-2.95-5.9-8.625-8.85-14.3-8.85zM16 128c-8.8 0-16 7.2-16 16v352c0 8.8 7.2 16 16 16h32c8.8 0 16-7.2 16-16v-48h512v48c0 8.8 7.2 16 16 16h32c8.8 0 16-7.2 16-16V336c0-61.9-50.1-112-112-112H272c-8.8 0-16 7.2-16 16v144H64V144c0-8.8-7.2-16-16-16zm144 96c-35.3 0-64 28.7-64 64s28.7 64 64 64 64-28.7 64-64-28.7-64-64-64z"/></svg>