<svg xmlns="http://www.w3.org/2000/svg" viewBox="0 0 576 576"><path d="M283.938 32.06q-7.777.11-15.637.64C115.4 42.9 0 176.9 0 330.2V464c0 8.8 7.2 16 16 16h32c8.8 0 16-7.2 16-16V320C64 186.8 180.9 80.3 317.5 97.9 430.4 112.4 512 214 512 327.8V464c0 8.8 7.2 16 16 16h32c8.8 0 16-7.2 16-16V320c0-160.134-131.387-290.238-292.062-287.94zm.5 95.952c-7.167.128-14.42.65-21.739 1.588C166 142 96 229.1 96 326.7V464c0 8.8 7.2 16 16 16h32c8.8 0 16-7.2 16-16V320c0-74.8 64.5-134.8 140.8-127.4 66.5 6.5 115.2 66.2 115.2 133.1V464c0 8.8 7.2 16 16 16h32c8.8 0 16-7.2 16-16V320c0-107.062-88.067-193.91-195.562-191.988zm7.007 96.088c-7.337-.257-14.882.313-22.545 1.8-45.6 8.9-76.9 51.5-76.9 97.9V464c0 8.8 7.2 16 16 16h32c8.8 0 16-7.2 16-16V320c0-17.6 14.3-32 32-32s32 14.4 32 32v144c0 8.8 7.2 16 16 16h32c8.8 0 16-7.2 16-16V320c0-51.8-41.19-94.105-92.555-95.9z"/></svg>