<svg xmlns="http://www.w3.org/2000/svg" viewBox="0 0 512 512"><path d="M276.314 16q-16.143.009-32.289.006c-2.41.389-4.808.925-7.236 1.15a179.3 179.3 0 0 0-34.256 7.1 221.5 221.5 0 0 0-39.767 16.355 281.4 281.4 0 0 0-38.08 24.159c-6.167 4.61-12.267 9.36-17.973 14.517C96.54 88.494 86.34 97.72 76.785 107.555a244 244 0 0 0-33.648 43.95 206.5 206.5 0 0 0-20.494 44.6 198 198 0 0 0-7.692 34.758 201 201 0 0 0-1.55 35.522 300 300 0 0 0 4.423 40.24 227 227 0 0 0 16.73 53.3 210.5 210.5 0 0 0 24 39.528 213.6 213.6 0 0 0 26.358 28.416 251.3 251.3 0 0 0 41.787 30.586 288 288 0 0 0 55.9 25.277 269.5 269.5 0 0 0 40.641 9.834c6.071 1.01 12.275 1.253 18.412 1.873a4.2 4.2 0 0 1 1.192.561h32.289c2.507-.389 4.998-.937 7.525-1.143 16.336-1.332 32.108-5.334 47.49-10.716a220 220 0 0 0 48.952-23.819c9.749-6.447 19.396-13.076 28.738-20.1 5.785-4.347 10.987-9.5 16.299-14.456 3.964-3.7 7.763-7.578 11.51-11.5a232.2 232.2 0 0 0 31.427-41.639c9.542-16.045 17.354-32.907 22.299-50.928 2.859-10.413 4.948-21.043 7.018-31.65 1.032-5.28 1.252-10.724 1.87-16.088.037-.317.357-.6.551-.9v-37.055a10 10 0 0 1-.56-1.783c-1.208-10.34-1.7-20.826-3.746-31a310 310 0 0 0-9.621-36.6 184.1 184.1 0 0 0-30.875-57.5 251 251 0 0 0-18.819-21.69 237.4 237.4 0 0 0-47.113-36.115 240.8 240.8 0 0 0-56.723-24.668c-11.018-3.1-22.27-5.43-33.513-7.615-6.78-1.314-13.75-1.667-20.627-2.482-.316-.036-.6-.358-.9-.553zm60.827 149.805-.006 67.267s-16.573-2.978-28.47-2.978c-27.2 0-33.57 14.899-33.57 37.039V360.8h-73.513V170.063H275.1v31.93c8.924-26.823 26.772-36.188 62.04-36.188z"/></svg>