<svg xmlns="http://www.w3.org/2000/svg" viewBox="0 0 512 512"><path d="M256.033 0c-31.313-.017-62.638 14.99-81.441 45.076l-17.963 28.766c-3.51 5.62-1.8 13.021 3.82 16.533l33.918 21.195c5.62 3.512 13.025 1.804 16.537-3.816l17.961-28.744c12.712-20.341 41.972-19.676 54.256-.022l41.29 66.076-40.74 25.457c-12.05 7.528-9 25.954 4.88 29.159l110.236 25.449c8.672 1.999 17.216-3.438 19.19-11.99l25.449-110.237c3.197-13.844-11.99-24.719-24.069-17.168l-40.685 25.424-41.264-66.082C318.648 15.06 287.346.017 256.033 0zM143.135 139.268c-1.063.026-2.139.16-3.215.408L29.684 165.127c-13.845 3.197-16.96 21.61-4.88 29.156l40.725 25.45-50.822 81.386C-25.187 364.951 20.781 448 96.115 448H148c6.627 0 12-5.373 12-12v-40c0-6.627-5.373-12-12-12H96.012c-25.052 0-40.405-27.727-27.121-48.982l50.867-81.403 40.734 25.455c11.945 7.467 27.3-3.17 24.069-17.168l-25.452-110.236c-1.74-7.533-8.534-12.585-15.974-12.398zm316.877 112.148c-2.31-.083-4.67.501-6.778 1.818l-33.861 21.159c-5.62 3.512-7.328 10.916-3.816 16.537l27.562 44.111c13.257 21.211-2.056 48.961-27.135 48.961H320V336.02c0-14.213-17.242-21.383-27.312-11.313l-80 79.98c-6.25 6.248-6.25 16.38 0 22.627l80 79.99C302.689 517.31 320 510.3 320 495.989V448h95.88c75.275 0 121.334-82.998 81.407-146.88l-27.514-44.065a11.99 11.99 0 0 0-9.761-5.639z"/></svg>