<svg xmlns="http://www.w3.org/2000/svg" viewBox="0 0 512 512"><path d="M256 8C119 8 8 119 8 256s111 248 248 248 248-111 248-248S393 8 256 8zm103.2 99.2c13.8 0 24.9 11.3 24.9 24.9S373 157 359.2 157c-13.5 0-24.6-11-24.6-24.6l-55.4-12.5-17.4 78.3c33.5 1.1 63.7 11.1 86.1 26.6 6.1-6.1 14.4-10 23.8-10 34.7 0 46.2 46.5 14.9 62.5 1.3 5 1.9 10.5 1.9 15.8 0 52.6-59.2 95.2-132.3 95.2-72.8 0-132-42.6-132-95.2 0-5.3.6-10.5 1.7-15.5-31.9-15.9-20.5-62.8 14.4-62.8 9.4 0 18 3.8 24.1 10.2 22.4-15.5 52.3-25.4 85.5-26.8l19.1-86.4c.8-3 3.9-5.2 6.9-4.4l61.2 13.6c4.1-8 12.4-13.8 22.1-13.8zM201.5 256c-13.8 0-24.9 11.1-24.9 24.9 0 13.5 11.1 24.6 24.9 24.6 13.5 0 24.6-11 24.6-24.6 0-13.8-11-24.9-24.6-24.9zm109 0c-13.6 0-24.6 11.1-24.6 24.9 0 13.6 11.1 24.6 24.6 24.6 13.8 0 24.9-11.1 24.9-24.6 0-13.8-11-24.9-24.9-24.9zm-105.45 73.35c-1.524 0-3.05.55-4.15 1.65-2.5 2.5-2.5 6.4 0 8.6 22.8 22.8 87.3 22.8 110.2 0 2.5-2.2 2.5-6.1 0-8.6-2.2-2.2-6.1-2.2-8.3 0-18.2 18.2-76.1 17.9-93.6 0-1.1-1.1-2.624-1.65-4.15-1.65z"/></svg>