<svg xmlns="http://www.w3.org/2000/svg" viewBox="0 0 512 512"><path d="M256 8C119.033 8 8 119.033 8 256s111.033 248 248 248 248-111.033 248-248S392.967 8 256 8zm-75.512 107.695h70.668c73.998 0 105.498 35.008 105.498 89.252 0 31.507-14.513 59.315-37.945 74.487 1.403 2.344-2.028-3.845 44.701 80.98 8.811 15.996-2.756 35.587-21.017 35.588H317.93a24 24 0 0 1-21.19-12.729l-44.129-82.935h-25.554V372c0 13.255-10.745 24-24 24h-22.569c-13.255 0-24-10.745-24-24V139.695c0-13.255 10.745-24 24-24zm46.569 64.07v56.141h29.875c18.6 0 28.431-9.831 28.431-28.431 0-18.936-6.261-27.71-34.93-27.71z"/></svg>