<svg xmlns="http://www.w3.org/2000/svg" viewBox="0 0 640 640"><path d="M160 32C71.6 32 0 103.6 0 192v64h544v-64c0-88.4-71.6-160-160-160zm-32.012 96.063c2.138.012 4.263 1.137 5.313 3.337l12.199 24.8 27.4 4c5 .7 6.9 6.7 3.4 10.2l-19.8 19.3 4.7 27.3c.8 4.9-4.3 8.6-8.7 6.3L128 210.4l-24.5 12.9c-4.3 2.3-9.5-1.4-8.7-6.3l4.7-27.3-19.8-19.3c-3.6-3.5-1.6-9.5 3.3-10.2l27.4-4 12.2-24.8c1.1-2.25 3.25-3.35 5.388-3.338zm144 0c2.138.012 4.263 1.137 5.313 3.337l12.199 24.8 27.4 4c5 .7 6.9 6.7 3.4 10.2l-19.8 19.3 4.7 27.3c.8 4.9-4.3 8.6-8.7 6.3L272 210.4l-24.5 12.9c-4.3 2.3-9.5-1.4-8.7-6.3l4.7-27.3-19.8-19.3c-3.6-3.5-1.6-9.5 3.3-10.2l27.4-4 12.2-24.8c1.1-2.25 3.25-3.35 5.388-3.338zm144 0c2.138.012 4.263 1.137 5.313 3.337l12.199 24.8 27.4 4c5 .7 6.9 6.7 3.4 10.2l-19.8 19.3 4.7 27.3c.8 4.9-4.3 8.6-8.7 6.3L416 210.4l-24.5 12.9c-4.3 2.3-9.5-1.4-8.7-6.3l4.7-27.3-19.8-19.3c-3.6-3.5-1.6-9.5 3.3-10.2l27.4-4 12.2-24.8c1.1-2.25 3.25-3.35 5.388-3.338zM0 288v176c0 8.8 7.2 16 16 16h96c8.8 0 16-7.2 16-16v-80h192v80c0 8.8 7.2 16 16 16h96c8.8 0 16-7.2 16-16V352h32v43.3c0 41.8 30 80.1 71.6 84.3 47.8 4.9 88.4-32.7 88.4-79.6v-64c0-8.8-7.2-16-16-16h-32c-8.8 0-16 7.2-16 16v64c0 8.8-7.2 16-16 16s-16-7.2-16-16V288z"/></svg>