<svg xmlns="http://www.w3.org/2000/svg" viewBox="0 0 496 512"><path d="M248 8C111 8 0 119 0 256s111 248 248 248 248-111 248-248S385 8 248 8zm-80 168c17.7 0 32 14.3 32 32s-14.3 32-32 32-32-14.3-32-32 14.3-32 32-32zm160 0c17.7 0 32 14.3 32 32s-14.3 32-32 32-32-14.3-32-32 14.3-32 32-32zM152 287.975c2.4 0 4.8 1.074 6.4 3.224C171.5 308.6 200 349 200 369c0 26-21.5 47-48 47s-48-21-48-47c0-20 28.5-60.4 41.6-77.8 1.6-2.15 4-3.225 6.4-3.225zM248 320c44.4 0 86.3 19.6 114.7 53.8 13.8 16.4-11.2 36.5-24.5 20.4-22.4-26.8-55.3-42.2-90.2-42.2-21.2 0-21.2-32 0-32z"/></svg>