<svg xmlns="http://www.w3.org/2000/svg" viewBox="0 0 512 512"><path d="M256 8C119 8 8 119 8 256s111 248 248 248 248-111 248-248S393 8 256 8zm0 52a8 8 0 0 1 8 8v16a8 8 0 0 1-8 8 8 8 0 0 1-8-8V68a8 8 0 0 1 8-8zm68.887 14.91a8 8 0 0 1 6.113.01 8 8 0 0 1 4.33 10.45l-6.13 14.78a8 8 0 0 1-10.45 4.33A8 8 0 0 1 314.43 94l6.12-14.78a8 8 0 0 1 4.337-4.31zm-137.76.006a8 8 0 0 1 4.334 4.334L197.57 94a8 8 0 1 1-14.782 6.12l-6.129-14.78A8 8 0 0 1 181 74.92a8 8 0 0 1 6.127-.004zM401.66 110.34 286.25 286.25 110.34 401.66l115.41-175.91zm-278.586 4.728a8 8 0 0 1 5.656 2.342L140 128.72a8 8 0 0 1 0 11.28 8 8 0 0 1-11.31 0l-11.31-11.31a8 8 0 0 1 .03-11.28h.01a8 8 0 0 1 5.654-2.342zm303.557 61.592a8 8 0 0 1 10.45 4.34 8 8 0 0 1-4.331 10.46L418 197.57a8 8 0 0 1-10.45-4.33 8 8 0 0 1 4.3-10.45zm-341.262.01 14.781 6.13a8 8 0 0 1 4.33 10.44v-.03A8 8 0 0 1 94 197.57l-14.78-6.12a8 8 0 0 1-4.3-10.45 8 8 0 0 1 10.45-4.33zm151.942 60.64L166 346l108.69-71.31zM68 248h16a8 8 0 0 1 8 8 8 8 0 0 1-8 8H68a8 8 0 0 1-8-8 8 8 0 0 1 8-8zm360 0h16a8 8 0 0 1 8 8 8 8 0 0 1-8 8h-16a8 8 0 0 1-8-8 8 8 0 0 1 8-8zm-16.137 66.414a8 8 0 0 1 6.137.016l14.78 6.12a8 8 0 0 1 4.3 10.45 8 8 0 0 1-10.45 4.33l-14.78-6.13a8 8 0 0 1-4.33-10.45 8 8 0 0 1 4.343-4.336zM94 314.43a8 8 0 0 1 10.45 4.33 8 8 0 0 1-4.3 10.45l-14.78 6.13A8 8 0 0 1 74.92 331a8 8 0 0 1 4.33-10.46zm283.654 55.228a8 8 0 0 1 5.657 2.342l11.308 11.31a8 8 0 0 1-.03 11.28h-.009a8 8 0 0 1-11.31 0L372 383.28a8 8 0 0 1 0-11.28 8 8 0 0 1 5.654-2.342zm-184.353 37.746A8 8 0 0 1 197.57 418l-6.122 14.78a8.003 8.003 0 0 1-14.789-6.12l6.13-14.78a8 8 0 0 1 10.51-4.476zm125.459.147a8 8 0 0 1 10.45 4.33l6.13 14.78a8 8 0 0 1-4.34 10.42 8 8 0 0 1-10.46-4.331L314.43 418a8 8 0 0 1 4.33-10.45zM256 420a8 8 0 0 1 8 8v16a8 8 0 0 1-8 8 8 8 0 0 1-8-8v-16a8 8 0 0 1 8-8z"/></svg>