<svg xmlns="http://www.w3.org/2000/svg" viewBox="0 0 512 512"><path d="M224.469 0a31.63 31.63 0 0 0-22.504 9.299l-96.719 96.715a32 32 0 0 0 0 45.1l80.31 80.417-9.798 9.8a190.58 190.58 0 0 0-168.53 5.405c-8.5 4.595-9.594 16.394-2.796 23.207l107.517 107.514-17.799 17.799c-2.61-.703-5.001-1.61-7.798-1.61a32.005 32.005 0 1 0 32.005 32.006c0-2.797-.906-5.189-1.609-7.798l17.799-17.8 107.52 107.514c6.813 6.798 18.706 5.705 23.206-2.797a190.56 190.56 0 0 0 5.407-168.523l9.892-9.906 80.326 80.416a31.88 31.88 0 0 0 45.008 0l96.703-96.715a31.79 31.79 0 0 0 .11-45.008l-80.31-80.416 47.804-47.898a33.633 33.633 0 0 0 0-47.506l-47.508-47.506a33.61 33.61 0 0 0-47.508 0l-47.804 47.896L247.066 9.3A32 32 0 0 0 224.47 0zm0 54.71 68.918 68.901-73.824 73.823-68.903-68.916zm163.933 163.913 68.903 68.916-73.809 73.807-68.918-68.9z"/></svg>