<svg xmlns="http://www.w3.org/2000/svg" viewBox="0 0 512 512"><path d="M48 32C21.49 32 0 53.49 0 80v352c0 26.51 21.49 48 48 48h352c26.51 0 48-21.49 48-48V163.883a48 48 0 0 0-14.059-33.942L350.06 46.06A48 48 0 0 0 316.117 32zm6 48h42v104c0 13.255 10.745 24 24 24h176c13.255 0 24-10.745 24-24V83.883l78.242 78.242a6 6 0 0 1 1.758 4.242V426a6 6 0 0 1-6 6H54a6 6 0 0 1-6-6V86a6 6 0 0 1 6-6zm90 0h128v80H144zm80 152c-48.523 0-88 39.477-88 88s39.477 88 88 88 88-39.477 88-88-39.477-88-88-88zm0 48c22.056 0 40 17.944 40 40s-17.944 40-40 40-40-17.944-40-40 17.944-40 40-40z"/></svg>