<svg xmlns="http://www.w3.org/2000/svg" viewBox="0 0 448 512"><path d="m369.7 72.6-73.4 39 54.2 46.1 97.5-40.9zm-132 21.3L192 122.1l25 35.4 55.4-29zm-78.9 12.7-31.9 22.1 12.4 28.8L176 135zm-52.5 8.5-23.9 18.1 6.1 24.2 26.7-18.3zm-28.6 47.5-22.3 15.5 3.6 28.4 24.8-15.2zm46.7 1.2-29.6 18.3 8.8 34.8 33.9-17.8zm70.3 1.7-42.2 22.4 19.4 44.8 50.8-21.3zm117.5 2.9-67.3 28.8 44.2 62.8 88.6-26.2zm-263 41.9-20.8 12.8 1.2 32.6 22.9-12zM90.1 221l-27.4 14.4 5.2 40.8 31.1-13zm61.6 16.1L113 253.7l13.7 54.1 46.2-13.6zM20.6 257.8 1.4 268 0 304.8l21-8.8zm234.2 6.3-61.3 18.7 34.3 79.2 79.8-11.3zm-199.1 14-25.1 10.7 1.6 46.8 28.3-8.3zm53 30.5-35.2 10.8 8.1 63.5 41.6-5.9zm88.7 51.3-55.2 8.6 24.3 95.8 70.9 3.3z"/></svg>