<svg xmlns="http://www.w3.org/2000/svg" viewBox="0 0 448 512"><path d="M352 0c-53.019 0-96 42.981-96 96 0 7.158.79 14.13 2.275 20.842L155.79 180.895C139.386 167.819 118.608 160 96 160c-53.019 0-96 42.981-96 96s42.981 96 96 96c22.608 0 43.386-7.819 59.79-20.895l102.485 64.053A96.3 96.3 0 0 0 256 416c0 53.019 42.981 96 96 96s96-42.981 96-96-42.981-96-96-96c-22.608 0-43.386 7.819-59.79 20.895l-102.485-64.053a96.55 96.55 0 0 0 0-41.684l102.486-64.054C308.614 184.18 329.392 192 352 192c53.019 0 96-42.981 96-96S405.019 0 352 0z"/></svg>