<svg xmlns="http://www.w3.org/2000/svg" viewBox="0 0 640 640"><path d="M418.38.014c-8.18.064-16.367.396-24.54.976-27.3 1.93-54.1 7.77-80.31 15.04L256 32v128c60.2 0 79.94 15.62 104.73 32 28.57 18.88 69.821 32 104.73 32C555.82 224 640 192 640 128c0-45.22-39.1-97.3-148.58-120.81-23.985-5.154-48.493-7.37-73.04-7.177zM192 32c-35.35 0-64 28.65-64 64s28.65 64 64 64h32V32zm145.46 256c-34.909 0-76.16 13.12-104.73 32-24.79 16.38-44.52 32-104.73 32v128l57.53 15.97c26.21 7.28 53.01 13.12 80.31 15.05 32.69 2.31 65.6.67 97.58-6.2C472.9 481.3 512 429.22 512 384c0-64-84.18-96-174.54-96zM64 352c-35.35 0-64 28.65-64 64s28.65 64 64 64h32V352z"/></svg>