<svg xmlns="http://www.w3.org/2000/svg" viewBox="0 0 576 576"><path d="M336 0c-26.5 0-48 21.5-48 48s21.5 48 48 48 48-21.5 48-48-21.5-48-48-48zM223.67 96.027c-21.314-.272-42.22 6.574-59.47 19.774l-39.7 30.398c-14 10.7-16.7 30.8-5.9 44.9.7.9 1.7 1.3 2.4 2.1L66.9 464H24c-13.2 0-24 10.7-24 24s10.8 24 24 24h480c39.7 0 72-32.3 72-72 0-13.2-10.8-24-24-24s-24 10.7-24 24c0 13.2-10.8 24-24 24h-69.5L460 285.6c11.7-4.7 20.1-16.2 20.1-29.6 0-17.7-14.3-32-32-32h-44L378 170.8c-12.5-25.5-35.5-44.2-61.8-50.9L245 98.7a96.5 96.5 0 0 0-21.33-2.673zm-1.373 63.795c2.14-.022 4.228.203 6.203.678l14.7 4.4-37.5 87.4c-12.6 29.5-1.3 64 26.3 80.3l85 50.2-25.5 81.2h-96.9l43.1-91-22-13c-12.1-7.2-21.9-16.9-29.5-27.8L123.7 464H99.5l52.3-261.4c4.1-1 8.1-2.9 11.7-5.6l39.7-30.4c5.774-4.425 12.675-6.712 19.097-6.778zM330.6 219.7l20.3 41.4c8 16.3 24.9 26.9 43.1 26.9h33.3l-25.2 176h-43.6l23.6-75.5c5.9-20.8-2.9-43.1-21.6-54.4L299.3 298z"/></svg>