<svg xmlns="http://www.w3.org/2000/svg" viewBox="0 0 512 512"><path d="M248 8C111 8 0 119 0 256s111 248 248 248 248-111 248-248S385 8 248 8zm0 48c110.3 0 200 89.7 200 200s-89.7 200-200 200S48 366.3 48 256 137.7 56 248 56zm-80 120c-17.7 0-32 14.3-32 32s14.3 32 32 32 32-14.3 32-32-14.3-32-32-32zm160 0c-17.7 0-32 14.3-32 32s14.3 32 32 32 32-14.3 32-32-14.3-32-32-32zM147.7 304.074c-6.126-.55-12.45 1.226-17.5 5.426-10.2 8.5-11.5 23.6-3.1 33.8 30 36 74.1 56.6 120.9 56.6s90.9-20.6 120.9-56.6c8.5-10.2 7.1-25.3-3.1-33.8-10.1-8.4-25.3-7.1-33.8 3.1-20.8 25-51.5 39.4-84 39.4s-63.2-14.3-84-39.4c-4.25-5.1-10.176-7.976-16.3-8.526z"/></svg>