<svg xmlns="http://www.w3.org/2000/svg" viewBox="0 0 512 512"><path d="M222.832 2.35A48 48 0 0 0 160 48a48 48 0 0 0 48 48 48 48 0 0 0 14.832-93.65zm148.922.086A32 32 0 0 0 352 32a32 32 0 0 0 32 32 32 32 0 1 0-12.246-61.564zM320 128a64 64 0 0 0-64 64 64 64 0 0 0 64 64 64 64 0 0 0 0-128zM96 192a96 96 0 0 0-96 96v128a96 96 0 0 0 96 96h320a96 96 0 0 0 96-96V288a96 96 0 0 0-96-96 95.42 95.42 0 0 1-30.94 70.21A95.8 95.8 0 0 1 352 448H160a96 96 0 0 1 0-192h88.91A95.3 95.3 0 0 1 224 192zm64 96a64 64 0 0 0 0 128h192a64 64 0 0 0 0-128z"/></svg>