<svg xmlns="http://www.w3.org/2000/svg" viewBox="0 0 496 512"><path d="M247.6 8C117.1 8 10.2 108.4 0 236.1l133.1 55c12.8-8.7 28-13 43.5-12.1l59.2-85.7v-1.2c0-51.5 42-93.5 93.7-93.5s93.7 41.9 93.7 93.5c0 52.6-43.7 94.8-95.8 93.5l-84.5 60.2c1.7 41.1-31 73.5-70.2 73.5-34 0-62.5-24.3-68.9-56.4L8.6 323.6C38 427.7 133.8 504 247.6 504 384.8 504 496 393 496 256S384.8 8 247.6 8zm81.9 121.8c-34.4 0-62.4 28-62.4 62.3s28 62.3 62.4 62.3c34.5 0 62.4-28 62.4-62.3s-28-62.3-62.4-62.3zm.1 15.4c25.9 0 46.9 20.9 46.9 46.8 0 25.8-21 46.8-46.9 46.8-25.8 0-46.8-21-46.9-46.8 0-25.8 21-46.8 46.9-46.8zM173.287 296.15c-6.587-.05-13.087 1.15-19.187 3.45l31.5 13c19.8 8.2 29.2 30.9 20.9 50.7-8.3 19.9-31 29.2-50.8 21l-30.5-12.6a52.8 52.8 0 0 0 27.2 25.8c26.9 11.2 57.8-1.6 69-28.4 5.4-13 5.5-27.3.1-40.3S206 305.6 193 300.2a51.9 51.9 0 0 0-19.713-4.05z"/></svg>