<svg xmlns="http://www.w3.org/2000/svg" viewBox="0 0 512 512"><path d="m32.2 0 101.3 108L18.6 89.9l166 122.9-81.9 10.5 173.4 53.3-15.2 18.2 125.4-23.3-14.8 68.4-56.8 51.5-88.3 45.2-20.7-12.9-6.9 5.5-20.8 73.6 6.6-1.4 22.8-28 55.9-36.8 92.5-26.1-66.7 38.6s-18.2-.7-20.3-.7-19.4 63.6-19.4 63.6l9.6-4 7.7-12 17.7-24.5 79.1-37.8 56.1-67.5 39.8-78.4 25.1-44.1v-28l-4.2-28-10.5-23.9 10.3-20.2 13.1-7.4-8.5-12 7-6.2-11.5-4.2L451 89.1l-37.8 10.4-4.2 37.8 21 16.4-12 8.9-108-96.4 42.9 55.8L158.3 0l45.5 84.3 49.6 18.1L234.7 64 378 163 253.6 88.6l31.5 38z"/></svg>