<svg xmlns="http://www.w3.org/2000/svg" viewBox="0 0 512 512"><path d="M32 0A32 32 0 0 0 0 32v384a96 96 0 0 0 192 0V32a32 32 0 0 0-32-32zm32 64h64v64H64zm258.014 4.01a31.83 31.83 0 0 0-22.514 9.28l-.07.07L224 152.88V424l210.66-211.1a32 32 0 0 0 0-45.19L344.5 77.36a31.83 31.83 0 0 0-22.486-9.35zM64 192h64v64H64zm309.09 128L186.68 506.51c-2.06 2.07-4.5 3.58-6.68 5.49h300a32 32 0 0 0 32-32V352a32 32 0 0 0-32-32zm-267.906 73.826A24 24 0 0 1 120 416a24 24 0 0 1-24 24 24 24 0 1 1 9.184-46.174z"/></svg>