<svg xmlns="http://www.w3.org/2000/svg" viewBox="0 0 512 512"><path d="M256 8C134.813 8 33.934 94.924 12.297 209.824 10.91 217.194 16.606 224 24.104 224h57.302c5.53 0 10.307-3.787 11.65-9.15C111.52 141.178 178.39 88.068 255.849 88c43.04-.038 83.61 16.007 114.873 45.28l-41.75 41.75c-15.12 15.12-4.412 40.97 16.97 40.97H480c13.255 0 24-10.745 24-24V57.941c0-21.382-25.852-32.09-40.97-16.97l-35.716 35.715C382.79 34.136 322.448 8 256 8zm174.594 280.002c-5.53 0-10.307 3.787-11.65 9.15-18.473 73.705-85.37 126.78-162.788 126.85-43.04.039-83.615-16.008-114.877-45.281l41.75-41.75C198.15 321.85 187.441 296 166.06 296H32c-13.255 0-24 10.745-24 24v134.059c0 21.382 25.852 32.09 40.97 16.97l35.716-35.715C129.209 477.864 189.552 504 256 504c121.187 0 222.067-86.924 243.705-201.822 1.387-7.37-4.309-14.176-11.807-14.176z"/></svg>