<svg xmlns="http://www.w3.org/2000/svg" viewBox="0 0 512 512"><path d="M24 32C10.745 32 0 42.745 0 56v160c0 13.255 10.745 24 24 24h192c13.255 0 24-10.745 24-24V56c0-13.255-10.745-24-24-24zm272 0c-13.255 0-24 10.745-24 24v160c0 13.255 10.745 24 24 24h192c13.255 0 24-10.745 24-24V56c0-13.255-10.745-24-24-24zM24 272c-13.255 0-24 10.745-24 24v160c0 13.255 10.745 24 24 24h192c13.255 0 24-10.745 24-24V296c0-13.255-10.745-24-24-24zm272 0c-13.255 0-24 10.745-24 24v160c0 13.255 10.745 24 24 24h192c13.255 0 24-10.745 24-24V296c0-13.255-10.745-24-24-24z"/></svg>