<svg xmlns="http://www.w3.org/2000/svg" viewBox="0 0 352 512"><path d="M53.693 80c-8.048 0-16.099 3.07-22.244 9.21L9.211 111.45c-12.28 12.28-12.28 32.19 0 44.48L109.279 256 9.211 356.07c-12.28 12.28-12.28 32.19 0 44.48l22.238 22.24c12.28 12.279 32.2 12.279 44.48 0L176 322.72l100.07 100.07c12.28 12.279 32.2 12.279 44.48 0l22.24-22.24c12.279-12.28 12.279-32.19 0-44.48L242.72 256l100.07-100.07c12.279-12.28 12.279-32.19 0-44.48l-22.24-22.24c-12.28-12.279-32.19-12.279-44.48 0L176 189.28 75.93 89.21C69.79 83.07 61.742 80 53.693 80z"/></svg>