<svg xmlns="http://www.w3.org/2000/svg" viewBox="0 0 512 512"><path d="M64 0 0 64l96 128h62.1l106.6 106.6c-13.6 27.8-9.2 62.3 13.9 85.4l117.1 117.1c14.6 14.6 38.2 14.6 52.7 0l52.7-52.7c14.5-14.6 14.5-38.2 0-52.7L384 278.6c-23.1-23.1-57.6-27.6-85.4-13.9L192 158.1V96zm302.563.082C330.15.424 293.85 14.449 266.1 42.199c-28.5 28.5-41.9 66.102-41.2 103.602l82.1 82.1c8.1-1.9 16.5-2.901 24.7-2.901 28.3 0 54.9 11 74.9 31l19.4 19.4c15.8-6.9 30.8-16.5 43.8-29.5 37.1-37.1 49.7-89.3 37.9-136.7-2.2-9-13.5-12.1-20.1-5.5l-74.4 74.4-67.9-11.3L334 98.9l74.4-74.4c6.6-6.6 3.4-17.9-5.7-20.2-11.85-2.924-24-4.332-36.137-4.218zM171.1 250.301 18.7 402.8c-25 25-25 65.5 0 90.5s65.5 25 90.5 0l123.6-123.602c-7.6-19.9-9.9-41.599-5-62.699zM64 424c13.3 0 24 10.7 24 24 0 13.2-10.7 24-24 24-13.2 0-24-10.8-24-24 0-13.3 10.7-24 24-24z"/></svg>