<svg xmlns="http://www.w3.org/2000/svg" viewBox="0 0 512 512"><path d="M354.436 48.082c-58.152 0-104.934 47.106-104.934 104.934 0 8.122.974 16.244 2.598 24.04-87.065-4.548-164.71-46.133-216.366-109.808-9.097 15.594-14.293 33.463-14.293 52.955 0 36.386 18.518 68.548 46.782 87.39-17.217-.648-33.463-5.52-47.432-13.318v1.3c0 51.004 36.062 93.237 84.143 102.984-8.771 2.273-18.193 3.574-27.614 3.574-6.823 0-13.32-.651-19.818-1.625 13.32 41.584 51.98 71.796 98.111 72.771-36.06 28.264-81.218 44.832-130.273 44.832-8.772 0-16.893-.325-25.34-1.298 46.457 29.886 101.685 47.107 161.137 47.107 192.975 0 298.558-159.839 298.558-298.559 0-4.548 0-9.096-.326-13.644 20.467-14.945 38.337-33.463 52.629-54.254-18.842 8.12-39.309 13.97-60.426 16.242 21.766-12.994 38.333-33.46 46.131-57.826-20.143 12.02-42.883 20.792-66.598 25.34-19.168-20.467-46.456-33.137-76.67-33.137z"/></svg>