<svg xmlns="http://www.w3.org/2000/svg" viewBox="0 0 496 512"><path d="M248 8C111 8 0 119 0 256s111 248 248 248 248-111 248-248S385 8 248 8zm78.076 77.127a31.5 31.5 0 0 1 18.123 4.174c15.3 8.8 20.501 28.3 11.701 43.6-8.8 15.2-28.3 20.499-43.5 11.699-15.3-8.9-20.5-28.4-11.7-43.6 5.5-9.5 15.179-15.133 25.376-15.873zm-81.332 33.955c21.156-.496 36.231 3.931 39.156 4.719 4.4 28.3 33.8 45.3 60.5 35 23.1 22.9 38 53.9 40.2 88.5l-46 .6c-5.4-62-71.3-101.201-128.9-74.401l-22.5-40.3c20.955-10.37 41.09-13.732 57.544-14.118zM172 142l23.7 39.6c-51.5 36.3-51.5 112.5 0 148.8L172 370c-27.4-18.3-47.8-46.3-56.5-79 22.3-17.9 22.4-51.9 0-69.9 8.6-32.8 29.1-60.7 56.5-79.1zm-84.6 82.1c17.6 0 31.9 14.3 31.9 31.9s-14.3 31.9-31.9 31.9-31.9-14.3-31.9-31.9 14.3-31.9 31.9-31.9zm251.3 40 46.1.7c-2.3 34.5-17.3 65.5-40.3 88.4-26.7-10.3-56.1 6.6-60.5 35-5.2 1.4-48.9 14.3-96.7-9.4l22.5-40.3c57 26.5 123.4-11.7 128.9-74.4zm-8.177 99.101c10.198.72 19.877 6.336 25.377 15.899 8.8 15.3 3.6 34.8-11.7 43.6s-34.7 3.6-43.5-11.7-3.6-34.8 11.7-43.6a31.6 31.6 0 0 1 18.123-4.199z"/></svg>