<svg xmlns="http://www.w3.org/2000/svg" viewBox="0 0 512 512"><path d="M12 0C5.373 0 0 5.373 0 12v200.332c0 6.627 5.373 12 12 12h200.332c6.627 0 12-5.373 12-12v-48c0-6.627-5.373-12-12-12h-98.273C146.053 108.475 197.836 80 256.332 80c97.284 0 176 78.733 176 176 0 97.284-78.732 176-176 176-44.753 0-85.571-16.664-116.607-44.127-4.74-4.192-11.929-3.949-16.403.525l-33.967 33.967c-4.867 4.866-4.632 12.798.467 17.42C133.836 479.687 192.243 504 256.332 504c136.787 0 247.709-110.742 248-247.46.291-136.91-109.25-247.538-246.156-248.532C184.26 7.47 117.773 39.278 72 90.11V12c0-6.627-5.373-12-12-12z"/></svg>