<svg xmlns="http://www.w3.org/2000/svg" viewBox="0 0 640 640"><path d="m0 168.945 45.2 170.76h38.029l28.459-116.23h.478l28.934 116.23h37.314l45.916-170.76H187.5l-27.979 117.668h-.478l-29.18-117.668H94.707L65.053 285.178h-.479L37.55 168.945zm433.41 0v62.184h-.238c-7.893-12.198-22.243-18.416-36.832-18.416-36.352 0-54.768 30.853-54.768 64.096 0 34.2 18.177 66.246 55.487 66.246 15.783 0 29.653-5.741 37.546-19.133h.479v15.783h32.287v-170.76zM271.4 212.713c-38.74 0-63.853 25.828-63.855 65.29 0 39.223 25.112 65.052 63.855 65.052 38.99 0 64.1-25.83 64.1-65.051 0-39.463-25.116-65.291-64.1-65.291zm205.569 3.348v76.052c0 30.613 9.088 50.942 45.2 50.942 14.35 0 29.177-6.699 37.786-20.569h.719v17.22h32.287V216.06h-33.963v64.818c0 25.11-7.89 35.392-26.305 35.392-15.786 0-21.765-10.042-21.765-30.37v-69.84zm-71.541 22.24c22.004 0 29.177 19.135 29.177 39.222 0 20.327-6.695 39.94-29.177 39.94-21.046 0-29.895-20.328-29.895-39.7 0-20.328 7.655-39.462 29.895-39.462zm-134.028.004c23.2 0 30.133 19.847 30.133 39.699 0 19.61-6.933 39.463-30.133 39.463-22.957 0-29.892-19.853-29.894-39.463 0-19.85 2.194-39.7 29.894-39.7zm331.053 64.572v36.828H640v-36.828z"/></svg>