<svg xmlns="http://www.w3.org/2000/svg" width="120" height="120" viewBox="0 0 120 120"><path d="M22.413 52.709v3.9c0 2.087.497 2.165 1.646 2.165 1.378 0 2.526-1.063 2.526-2.954 0-2.284-1.57-3.111-3.062-3.111zm3.1 6.853H15.026v-.748c1.225-.04 2.028-.197 2.105-.473.115-.197.115-.551.115-.867v-9.412c0-.316 0-.63-.115-.867-.077-.236-.88-.433-2.105-.473v-.748h10.602c2.87 0 5.32.906 5.32 2.954 0 1.89-1.608 2.875-4.287 3.19v.04c3.368.157 5.435 1.496 5.435 3.544 0 2.52-2.602 3.86-6.583 3.86zm-3.1-12.8v5.198h1.378c1.148 0 2.181-.748 2.181-2.717 0-1.812-.727-2.48-2.335-2.48zm19.942 13.04c-2.857 0-8.478-1.349-8.478-7.037 0-3.47 3.888-6.749 9.369-6.749 4.45 0 8.478 2.651 8.478 6.7 0 4.966-5.434 7.087-9.369 7.087zm.563-.818c1.499 0 3.56-.772 3.56-5.881 0-4.29-2.108-6.267-4.123-6.267-1.592 0-3.232 1.253-3.232 5.399 0 4.338 1.687 6.749 3.795 6.749zm26.655.626h-3.56c-1.453-1.928-5.669-6.507-8.76-9.545h-.047v6.363c0 .58-.047 1.158.047 1.64.093.53.515.771 2.81.819v.723h-6.371v-.723c1.5-.048 1.874-.29 1.968-.82.094-.481.094-1.06.094-1.639v-7.52c-.703-1.204-1.921-1.928-3.467-1.928v-.722h7.495c1.968 2.41 5.715 6.314 8.339 8.87h.047v-5.69c0-.578-.047-1.156-.094-1.638-.094-.53-.469-.771-2.81-.82v-.723h6.417v.723c-1.546.049-1.92.29-2.015.82-.14.482-.093 1.06-.093 1.639zm10.822-11.328v6.749c0 1.832.843 3.133 3.326 3.133 2.342 0 3.887-.627 3.887-3.615v-5.11c0-.578 0-1.157-.093-1.639-.094-.53-.469-.771-2.014-.82v-.722h5.574v.722c-2.342.049-2.061.579-2.061 2.459v5.495c0 3.375-2.951 4.869-6.184 4.869-5.855 0-7.542-2.025-7.542-5.254v-6.267c0-.289 0-.626-.094-.82-.094-.24-.843-.433-2.06-.482v-.722h9.368v.722c-1.171.049-1.92.242-2.014.483-.093.193-.093.53-.093.82zm23.158 1.262h-.71c-.749-1-1.609-2.541-3.48-2.541-.561 0-1.796.385-1.796 1.77 0 1.348 1.46 1.772 4.377 3.58 2.357 1.425 3.03 2.619 3.03 3.85 0 2.464-2.918 3.697-6.995 3.697-2.918 0-4.228-.231-5.462-.616-.113-.039-.187-.116-.187-.231v-3.119h.748c.561 1.117 1.31 3.157 3.629 3.157 1.421 0 2.806-.885 2.806-2.271 0-1.232-.45-1.887-3.48-3.35-2.58-1.27-3.89-2.81-3.89-3.85 0-2.117 2.057-3.426 6.809-3.426 1.758 0 3.254.039 4.376.27.187.077.225.192.225.27zM39.647 70.572h.691l-.543 2.286c-.098.304-.493.406-1.234.61-.592.101-2.369.558-4.146.558-5.43 0-8.589-2.133-8.589-5.841 0-2.49 1.827-5.74 8.935-5.74 1.974 0 3.01.254 4.047.508.642.152.889.406.889.66v2.032h-.691c-.79-1.168-1.925-2.59-4.097-2.59-2.666 0-4.295 2.082-4.295 4.977-.049 2.946 1.135 5.385 4.147 5.385 1.924 0 3.75-1.169 4.886-2.845zm11.158-.102H45.82l-.691 1.524c-.346.762-.148 1.22.889 1.22v.61h-4.74v-.61c.692 0 1.728-.255 2.42-1.27.592-.813 3.455-5.994 5.281-9.5h1.777c1.086 1.83 4.394 7.62 5.233 9.246.394.761 1.53 1.523 2.468 1.523v.61h-7.75v-.61c.987 0 1.283-.406.938-1.117zm-4.491-.863h3.998l-1.925-3.86zm19.945-6.197v4.775h1.036c2.024 0 2.32-1.473 2.32-2.49 0-1.726-.692-2.285-2.074-2.285zm-6.615-.203v-.61h9.872c2.913 0 5.084.915 5.084 2.997 0 1.22-1.184 2.49-3.504 2.946 1.53 1.524 3.455 3.251 5.331 4.876v.407h-4.64c-1.432 0-2.962-3.15-4.59-4.876h-.939v3.2c0 .253 0 .507.099.71.1.204.79.356 1.876.356v.61h-8.59v-.61c1.087 0 1.827-.152 1.926-.355.05-.204.05-.458.05-.712v-7.822c0-.254 0-.508-.05-.71-.099-.204-.79-.356-1.925-.407zm18.612-.61h9.132c4.492 0 7.996 2.032 7.996 5.334 0 4.774-4.887 5.892-9.132 5.892h-7.996v-.61c1.086 0 1.777-.152 1.875-.355.099-.204.099-.458.099-.712v-7.822c0-.254 0-.508-.098-.71-.099-.204-.79-.356-1.876-.407zm6.614.66v8.28c0 1.371-.099 1.676.987 1.676 2.567 0 4.887-1.27 4.887-5.282 0-3.048-1.876-4.673-5.479-4.673z"/></svg>