<svg xmlns="http://www.w3.org/2000/svg" width="120" height="120" viewBox="0 0 120 120"><path d="M54.083 38.543c-1.61.028-3.074 1.326-3.074 3.129v12.361c0 2.175 2.125 3.605 4.072 2.973l.026.144c.363 2.06 2.82 2.956 4.422 1.612l9.441-7.922c1.478-1.24 1.202-3.525-.393-4.434-.027-.015-.051-.036-.08-.05l-12.802-7.391a3.1 3.1 0 0 0-1.612-.422Zm42.971 41.593q.96-.169 1.533-.483a2.7 2.7 0 0 0 .924-.812 6 6 0 0 0 .665-1.269h-.464c-1.177-2.805-2.45-6.508-3.31-9.688a9 9 0 0 1 1.422-.13l2.497 7.673c.12.38.26.82.32 1.24h.079c.08-.42.2-.86.341-1.26l2.517-7.652c.373 0 1.029.037 1.422.13 0 0-2.843 8.366-3.35 9.689s-.924 2.041-1.615 2.707q-.98.942-2.75 1.176c-.129-.436-.23-.945-.232-1.318zm-9.95-11.658c0-2.787-2.227-4.175-4.508-4.175-1.197 0-2.076.093-3.441.263v13.006h1.552v-4.768h1.796c2.226 0 4.6-1.5 4.6-4.325zm-1.59 0c0 1.963-1.496 3.015-3.236 3.015h-1.57v-5.805a20 20 0 0 1 1.85-.113c1.44 0 2.955.957 2.955 2.903zm10.664 7.82H95.15c-.43 0-.56-.167-.56-.616v-7.144c-.805-.636-2.207-.917-3.461-.917-.954 0-1.703.13-2.525.374 0 .43.075.991.188 1.347.543-.243 1.477-.411 2.3-.411.767 0 1.628.187 2.095.448v2.712l-2.058.093c-2.301.093-3.479.899-3.479 2.936 0 1.795 1.16 2.637 2.825 2.637.972 0 1.85-.263 2.767-1.01h.075c.318.767.972 1.01 1.72 1.01.75 0 1.142-.299 1.142-1.03zm-2.992-.578c-.636.468-1.608.804-2.45.804-1.104 0-1.552-.43-1.552-1.496 0-1.216.448-1.683 1.888-1.74l2.114-.093zm-72.322 2.046c-3.82 0-5.864-2.339-5.864-6.78 0-4.695 2.513-6.741 5.67-6.741 1.227 0 2.844.253 3.585.624-.039.74-.214 1.734-.39 2.572-.895-.429-2.026-.663-3.039-.663-1.52 0-2.727.876-2.727 4.19 0 3.313.936 4.267 2.844 4.267 1.11 0 2.417-.41 3.176-.915.195.78.35 1.656.41 2.571-.974.585-2.515.878-3.664.878zm12.675-4.5h-5.612v.117c0 1.285.507 1.91 2.241 1.91.897 0 2.124-.274 2.747-.625.234.683.448 1.656.565 2.475-.895.41-2.436.624-3.35.624-3.215 0-5.027-1.753-5.027-5.143 0-3.585 1.87-5.417 4.48-5.417 2.844 0 4.034 1.812 4.034 4.52 0 .429-.02 1.07-.078 1.539zm-2.573-2.28c0-1.208-.429-1.812-1.422-1.812s-1.597.702-1.597 2.338h3c.02-.117.02-.429.02-.526zm15.007 6.585v-6.917c0-.721-.234-1.149-1.188-1.149a2.56 2.56 0 0 0-1.578.527v7.539h-2.632v-6.897c0-.76-.214-1.169-1.11-1.169-.565 0-1.168.195-1.656.527v7.539h-2.63V67.498a23 23 0 0 1 2.63-.156v1.013h.137c.954-.858 1.636-1.15 2.59-1.15s1.773.332 2.202 1.286c.995-1.012 1.832-1.285 2.883-1.285 1.715 0 2.981.934 2.981 3.156v7.209zm8.69.195c-1.618 0-3.157-.39-4.23-1.247V63.252a23 23 0 0 1 2.632-.176v5.202h.136c.76-.838 1.48-1.07 2.378-1.07 2.065 0 3.702 1.363 3.702 4.87s-1.695 5.69-4.617 5.69zm.077-8.26c-.643 0-1.266.214-1.675.604v5.026c.35.254.915.37 1.441.37 1.48 0 1.968-.914 1.968-3.194s-.585-2.805-1.734-2.805zm11.495.545a4.6 4.6 0 0 0-.954-.117c-.722 0-1.266.137-1.89.566v7.072h-2.63V67.5c.76-.098 1.793-.156 2.63-.156v1.305h.136c.954-1.325 1.578-1.442 2.222-1.442.175 0 .507.04.721.117 0 .915-.097 1.832-.234 2.727zm8.132 7.715c-.876 0-1.54-.234-1.89-1.052h-.117c-.799.702-1.657 1.052-2.67 1.052-1.772 0-3.058-.897-3.058-2.942 0-2.24 1.383-3 3.82-3.097l1.597-.059v-1.734c-.488-.292-1.188-.39-1.89-.39-.818 0-1.715.176-2.3.43-.156-.644-.331-1.52-.37-2.359a10.6 10.6 0 0 1 2.883-.41c1.52 0 3.176.371 4.188 1.189v6.058c0 .507.137.683.605.683h1.051v.876c0 1.344-.798 1.753-1.851 1.753zm-2.32-4.364-1.597.059c-.858.039-1.188.273-1.188 1.188 0 .78.331 1.09 1.07 1.09.566 0 1.286-.136 1.716-.468v-1.87z"/></svg>