<svg xmlns="http://www.w3.org/2000/svg" width="120" height="120" viewBox="0 0 120 120"><path d="M60 40c-6.906 0-12.986 3.487-16.578 8.799A15.95 15.95 0 0 0 32 44c-8.843 0-16 7.157-16 16s7.157 16 16 16c4.478 0 8.52-1.84 11.422-4.799C47.014 76.513 53.094 80 60 80s12.986-3.487 16.578-8.799A15.95 15.95 0 0 0 88 76c8.843 0 16-7.157 16-16s-7.157-16-16-16c-4.478 0-8.52 1.84-11.422 4.799C72.986 43.487 66.906 40 60 40zm-2.678 9.023h2.012v3.27a80 80 0 0 1 1.607-.022v-3.248h2.014l.002 3.334c2.599.23 4.657 1.037 4.887 3.442.17 1.76-.562 2.816-1.729 3.416 1.922.465 3.126 1.618 2.889 4.2-.295 3.205-2.663 4.065-6.047 4.26l-.002 3.37h-2.014V67.72c-.521 0-1.054-.004-1.607-.016v3.34l-2.012-.002-.002-3.373c-.47-.004-.949-.011-1.437-.012h-2.62l.4-2.426s1.49.023 1.464 0c.57 0 .722-.413.758-.672v-5.337l-.002-3.801c-.077-.412-.343-.89-1.158-.89.024-.028-1.461.001-1.461.001v-2.168h2.775v.01c.418 0 .847-.009 1.283-.018zm-24.174 3.44 4.457 7.678-4.457 2.73-4.457-2.732zM87.32 53.84h3.018L89.22 58.61l3.93-2.43-.462 1.977-3.927 2.418-.778 3.324h6.65l-.536 2.327H84.43l.812-3.485-1.58.975.385-1.906 1.652-1.024zm-26.648.687c-.504-.003-.949.022-1.238.022v4.097c1.159 0 4.8.271 4.8-2.048 0-1.815-2.05-2.061-3.562-2.07zm.18 6.196c-.577-.005-1.085.021-1.416.021l-.002 4.785c1.326 0 5.486.305 5.486-2.394 0-2.111-2.34-2.4-4.068-2.412zm-32.16.256 4.453 2.777h.002l4.459-2.777-4.46 6.625z"/></svg>