<svg xmlns="http://www.w3.org/2000/svg" width="120" height="120" viewBox="0 0 120 120"><path d="M26.495 59.902c0-1.299.646-2.378 1.882-2.378 1.493 0 2.12 1.188 2.12 2.249 0 1.463-.941 2.45-2.12 2.45-.996 0-1.882-.84-1.882-2.32zm7.211-4.681H30.7v1.718h-.035c-.703-1.17-1.847-1.94-3.266-1.94-2.987 0-4.334 2.124-4.334 4.957 0 2.816 1.642 4.79 4.277 4.79 1.33 0 2.436-.513 3.229-1.627h.037v.512c0 1.865-1.033 2.76-2.95 2.76-1.384 0-2.233-.292-3.246-.785l-.166 2.597c.773.275 2.083.604 3.67.604 3.873 0 5.79-1.262 5.79-5.176zm5.61-3.968h-3.32v2.414h3.32zm-3.318 13.493h3.318v-9.525h-3.318zM48.56 55.11a7 7 0 0 0-1.125-.11c-1.438 0-2.268.768-2.84 1.976h-.037V55.22h-3.024v9.525h3.319v-4.021c0-1.866.868-2.98 2.416-2.98.389 0 .756 0 1.125.108zm5.716 7.552c-1.531 0-2.157-1.262-2.157-2.669 0-1.426.626-2.688 2.157-2.688s2.159 1.262 2.159 2.688c0 1.407-.627 2.67-2.16 2.67zm0 2.303c3.172 0 5.588-1.827 5.588-4.972 0-3.164-2.416-4.993-5.588-4.993s-5.587 1.829-5.587 4.993c0 3.145 2.415 4.972 5.587 4.972zM22.449 41.053c-3.805 0-6.89 3.044-6.89 6.799v24.296c0 3.753 3.085 6.8 6.89 6.8h75.102c3.806 0 6.89-3.047 6.89-6.8V47.852c0-3.755-3.084-6.8-6.89-6.8zm.246 2.783h39.346v32.332H22.695c-2.38 0-4.308-1.904-4.308-4.25V48.086c0-2.346 1.929-4.25 4.308-4.25zM71.525 55c2.657 0 4.114 2.506 4.114 4.809 0 2.816-1.53 5.156-4.389 5.156-1.162 0-2.418-.42-3.047-1.555h-.037v5.176h-3.318V55.22h3.06v1.718h.037c.666-1.335 2.07-1.939 3.58-1.939Zm10.582 0c2.454 0 4.573 1.044 4.573 3.951v3.547c0 .749.039 1.5.185 2.248h-3.043c-.02-.513-.074-1.005-.074-1.5h-.037c-.756 1.19-1.678 1.719-3.043 1.719-1.9 0-3.596-.931-3.596-2.998 0-2.907 3.192-3.254 4.961-3.254a10 10 0 0 1 1.549.129c-.02-1.299-.996-1.647-2.193-1.647-1.07 0-2.142.2-3.06.713l-.058-2.23c1.181-.476 2.417-.678 3.836-.678Zm5.569.22h3.576l2.066 6.218h.037l1.973-6.217h3.32l-3.523 8.867c-.94 2.396-1.658 4.719-4.701 4.719-.7 0-1.384-.074-2.067-.221l.221-2.504c.443.145.848.201 1.31.201.813 0 1.438-.477 1.678-1.318zm-5.494 5.249c-1.127 0-2.012.346-2.012 1.26 0 .66.59 1.042 1.365 1.042 1.255 0 2.047-1.133 2.047-2.248-.424-.02-.903-.054-1.4-.054zm-11.985-2.946c-1.218 0-2.031 1.06-2.031 2.487 0 1.39.924 2.433 2.031 2.433 1.254 0 2.01-1.043 2.01-2.56 0-1.262-.718-2.36-2.01-2.36z"/></svg>