<svg xmlns="http://www.w3.org/2000/svg" width="120" height="120" viewBox="0 0 120 120"><path clip-rule="evenodd" d="M34.816 69.53h4.24V50.111h-4.24zm26.849-11.229v-1.737h-3.962V69.53h4.01v-6.795c0-1.972 2.28-2.837 3.844-2.4.015.005.03.002.047.002v-3.773c-1.642 0-3.151.697-3.939 1.737zm-13.64 8.226c-2.078 0-3.761-1.558-3.761-3.48s1.683-3.48 3.76-3.48 3.762 1.558 3.762 3.48-1.684 3.48-3.761 3.48zm3.723-9.065a7.1 7.1 0 0 0-4.05-1.257c-3.872 0-7.011 3.063-7.011 6.842s3.14 6.842 7.012 6.842a7.1 7.1 0 0 0 4.049-1.257v.898h3.464V56.564h-3.464zm23.772-1.247c-1.59 0-3.094.481-4.1 1.81v-1.46h-.053l-3.7-.002-.208.001V69.53h4.01v-7.092c0-1.972 1.355-2.937 2.987-2.937 1.749 0 2.754 1.019 2.754 2.91v7.119h3.974v-8.245c0-3.018-2.459-5.07-5.664-5.07zm25.819 8.716c-1.38 0-2.497 1.09-2.497 2.437 0 1.345 1.118 2.436 2.497 2.436s2.498-1.09 2.498-2.436-1.12-2.437-2.498-2.437zm-11.411 1.596c-2.077 0-3.761-1.558-3.761-3.48s1.684-3.48 3.76-3.48c2.078 0 3.762 1.558 3.762 3.48s-1.684 3.48-3.761 3.48zm3.723-9.065a7.1 7.1 0 0 0-4.049-1.257c-3.873 0-7.012 3.063-7.012 6.842s3.14 6.842 7.012 6.842a7.1 7.1 0 0 0 4.05-1.257v.898h3.463V56.564H93.65zm5.982-.661h.193c.122 0 .173.057.173.145s-.033.154-.173.154h-.193zm.003.457h.193l.162.362h.194l-.181-.392c.116-.05.175-.148.175-.282 0-.183-.144-.306-.353-.306h-.368v.978h.178zM16.163 69.53h4.42V50.111h-4.42zm15.764-19.417h-4.291c-.088 4.384-2.684 8.168-6.446 10.04l6.593 9.377h5.384l-5.993-8.529c2.992-2.864 4.692-6.726 4.753-10.888zm67.855 6.28c.421 0 .761.337.761.752s-.34.752-.76.752a.756.756 0 0 1-.76-.752c0-.415.34-.752.76-.752zm0 1.683a.94.94 0 0 0 .944-.93.94.94 0 0 0-.944-.931c-.52 0-.94.417-.94.93s.42.93.94.93z"/></svg>