<svg xmlns="http://www.w3.org/2000/svg" width="120" height="120" viewBox="0 0 120 120"><path d="M50.966 60c0-7.545 3.533-14.265 9.034-18.596a23.55 23.55 0 0 0-14.617-5.056c-13.062 0-23.65 10.589-23.65 23.652s10.588 23.652 23.65 23.652A23.55 23.55 0 0 0 60 78.596C54.499 74.265 50.966 67.545 50.966 60zm47.302 0c0 13.063-10.589 23.652-23.65 23.652A23.55 23.55 0 0 1 60 78.596c5.501-4.331 9.034-11.051 9.034-18.596S65.5 45.735 60 41.404a23.55 23.55 0 0 1 14.617-5.056c13.062 0 23.65 10.589 23.65 23.652zm-.74 14.656v-.918h-.239l-.275.632-.276-.632h-.24v.918h.17v-.692l.258.597h.175l.26-.599v.694zm-1.517 0v-.761h.307v-.155h-.782v.155h.307v.761z"/></svg>