<svg xmlns="http://www.w3.org/2000/svg" width="120" height="120" viewBox="0 0 120 120"><path d="M45.265 46.893h1.562c.132 0 .245-.132.269-.262l.339-1.82a.28.28 0 0 0-.267-.327l-1.574.001a.284.284 0 0 0-.27.232l-.328 1.813a.36.36 0 0 0 .058.263c.052.063.13.1.211.1zm65.177.252a.276.276 0 0 1 .268.32l-.238 1.374a.27.27 0 0 1-.268.226l-1.7.002c-.074.423-1.267 6.853-1.267 6.853a.27.27 0 0 1-.266.222h-1.77c-.043 0-.085-.03-.123-.049-.03.011-.062.049-.095.049l-1.697-.001a.27.27 0 0 1-.227-.12s-1.649-2.741-2.21-3.597c-.22 1.27-.618 3.381-.665 3.53a.27.27 0 0 1-.26.186h-1.521a.27.27 0 0 1-.208-.096.26.26 0 0 1-.06-.215c.01-.062.627-3.741 1.15-6.85-.032.02-.188.018-.227.024-.761.112-1.623.498-1.966 1.798l-1.037 5.126a.264.264 0 0 1-.264.213h-1.355a.28.28 0 0 1-.216-.09.25.25 0 0 1-.065-.214l1.512-8.262.038-.214c.027-.13.14-.207.271-.206h1.415c.081 0 .157.021.208.083a.27.27 0 0 1 .058.224l-.032.196c.511-.33 1.223-.595 1.871-.613.081-.002.16.05.221.123.21-1.248.423-2.25.46-2.459a.27.27 0 0 1 .268-.224l1.548.002a.271.271 0 0 1 .271.273q0 .022-.003.046s-.67 3.565-.89 4.848c.746-.81 2.02-2.42 2.02-2.42a.27.27 0 0 1 .2-.082h1.81c.09 0 .173.043.222.118a.26.26 0 0 1 .235-.118l.253.002.237-.001s.245.003.384 0c.064-.37.451-2.44.451-2.44a.27.27 0 0 1 .268-.225h1.575c.08 0 .156.036.208.096.041.05.063.112.063.176q.001.023-.004.046s-.355 1.851-.44 2.34zm-5.237 8.247c.233-1.423 1.081-5.847 1.16-6.329h-.77a.272.272 0 0 1-.268-.323l.197-1.052c-.45.532-2.68 3.248-2.89 3.497.161.259 1.943 3.198 2.571 4.207zm6.017-10.86v.358h.325a.32.32 0 0 0 .178-.044q.065-.044.066-.138a.15.15 0 0 0-.066-.133.32.32 0 0 0-.178-.044zm.328-.253q.255 0 .392.115a.39.39 0 0 1 .137.314.37.37 0 0 1-.109.277.52.52 0 0 1-.313.133l.433.508h-.338l-.4-.504h-.13v.504h-.28V44.28zm-.084 1.81q.23 0 .43-.089.199-.09.348-.241a1.13 1.13 0 0 0 .32-.802 1.14 1.14 0 0 0-.32-.8q-.149-.15-.349-.24a1.1 1.1 0 0 0-.429-.087 1.1 1.1 0 0 0-1.025.687 1.1 1.1 0 0 0-.086.44 1.14 1.14 0 0 0 .321.802q.15.151.353.241.204.09.437.089zm0-2.583q.3 0 .564.115a1.45 1.45 0 0 1 .77.773q.112.266.113.563 0 .3-.114.564a1.47 1.47 0 0 1-.769.773 1.439 1.439 0 0 1-1.598-.313 1.5 1.5 0 0 1-.309-.46 1.4 1.4 0 0 1-.113-.564q0-.297.113-.563.114-.264.31-.462.195-.197.46-.311.268-.115.573-.115zM7.086 55.926v-.015a.2.2 0 0 1 .051-.126l11.33-13.056a.21.21 0 0 1 .155-.076l1.784-.002c.062 0 .12.027.159.075a.22.22 0 0 1 .042.176s-1.215 6.996-1.479 8.263c.894-1.009 6.604-8.437 6.604-8.437a.2.2 0 0 1 .153-.075h1.84c.061 0 .121.028.16.079a.22.22 0 0 1 .038.18l-1.343 7.335q.02-.038.04-.078c.862-1.673 2.634-2.848 4.403-3.065l.02-.002c1.598-.08 2.834.524 3.574 1.748l.011.02c.266.534.465 1.251.5 1.99a5.8 5.8 0 0 1 1.585-2.383c1.263-1.176 2.805-1.638 4.34-1.303q.027.007.052.018l.143.061c.34.146.71.31 1.025.591.166-.782.653-3.139.653-3.139a.276.276 0 0 1 .267-.22h1.413a.276.276 0 0 1 .269.326l-2.06 11.147c-.024.13-.138.18-.27.18l-1.401.002c-.082-.002-.16.004-.211-.059a.27.27 0 0 1-.059-.224l.059-.309c-1.143.706-2.3.98-3.383.783-1.24-.246-2.393-1.457-2.626-2.756a5.4 5.4 0 0 1-.088-1.04.28.28 0 0 1-.184.072l-6.506.003a.3.3 0 0 0-.01.08c0 .1.033.225.077.375l.029.096c.31.758 1.05 1.234 1.89 1.214.837-.02 1.61-.419 2.298-1.188a.27.27 0 0 1 .204-.091h1.45c.094 0 .181.048.232.127.05.079.055.178.015.264-.822 1.731-2.67 2.894-4.609 2.894-1.347-.053-2.48-.708-3.109-1.806-.314-.585-.463-1.312-.454-2.053l-.648 3.457a.206.206 0 0 1-.198.158l-1.694.002a.206.206 0 0 1-.198-.253c.716-2.984 1.279-7.31 1.644-8.99-.878 1.03-6.852 9.165-6.852 9.165a.21.21 0 0 1-.154.077h-1.746a.2.2 0 0 1-.16-.079.21.21 0 0 1-.041-.172c.655-3.02 1.326-7.305 1.65-8.979-.846 1.01-8.034 9.154-8.034 9.154a.21.21 0 0 1-.164.075c-.525.006-2.274.003-2.274.003-.08 0-.152-.064-.184-.136a.2.2 0 0 1-.02-.077zm34.775-4.66c.012-.419-.086-.829-.28-1.142-.354-.579-.828-.835-1.212-.924a2.62 2.62 0 0 0-2.03.394c-.994.747-1.564 1.723-1.564 2.733 0 .161.004.294.048.49.1.485.377.962.8 1.252.4.26 1.014.362 1.806.208 1.026-.25 2.053-1.281 2.346-2.402.053-.2.08-.337.086-.608zm-13.098-.677c.65-.006 3.763.007 4.21.002-.031-.302-.19-.614-.524-.948-.367-.316-.747-.519-1.588-.46-.776.107-1.674.6-2.098 1.406zm66.477-3.173-.3 1.814-1.267 6.728c-.024.13-.138.182-.27.18H92c-.08 0-.158.006-.21-.058a.27.27 0 0 1-.06-.223l.06-.31c-1.143.706-2.3.979-3.383.783-1.239-.246-2.393-1.456-2.626-2.756-.063-.348.057-.696.06-1.04 0 0 .006-.102.004-.23l-.635 3.674a.21.21 0 0 1-.199.162H83.29a.2.2 0 0 1-.16-.085.2.2 0 0 1-.038-.173c.602-2.975 1.22-7.044 1.586-8.722-.88 1.028-6.796 8.905-6.796 8.905a.2.2 0 0 1-.154.072h-1.746a.205.205 0 0 1-.206-.205q0-.02.004-.042c.603-3.023 1.25-7.06 1.574-8.733-.846 1.01-8.194 8.908-8.194 8.908a.2.2 0 0 1-.164.072h-2.23a.2.2 0 0 1-.185-.12.23.23 0 0 1 .012-.2v-.007l.009-.011-.003.003c.082-.133.15-.244.205-.342.18-.346.274-.67.321-.893.239-1.548-.083-2.855-.083-2.855-.533-2.754-2.906-4.293-4.816-3.46a1.2 1.2 0 0 1 .318.025c2.068-.326 3.974 1.78 3.776 4.587 0 0-.119 1.332-.766 2.84-.465.24-.963.436-1.493.57q-.124.03-.249.057c1.046-1.3 1.517-2.582 1.517-2.582.938-2.724-.441-5.307-2.61-5.42q.14.052.263.136c2.086.653 2.764 3.52 1.146 5.92 0 0-.784 1.11-2.12 2.1a6.9 6.9 0 0 1-1.87-.353c1.544-.604 2.586-1.471 2.586-1.471 2.141-1.863 2.268-4.733.527-5.947q.118.146.188.321c1.33 1.626.461 4.34-2.074 5.575 0 0-1.198.557-2.814.752a7 7 0 0 1-1.258-1.047c1.56.21 2.803-.007 2.803-.007 2.783-.54 4.326-2.959 3.432-4.879l.002.078q0 .106-.017.206c.408 2.106-1.719 4.073-4.568 3.873 0 0-1.25-.112-2.7-.708a7 7 0 0 1-.638-1.624q-.017-.07-.031-.139a10.2 10.2 0 0 0 2.427 1.394c2.66.917 5.188-.38 5.407-2.464q-.073.157-.184.286c-.752 1.953-3.528 2.55-5.86.977 0 0-1.207-.937-2.133-2.034l-1.23 6.684c-.024.13-.138.18-.27.179l-1.402-.003c-.082 0-.169-.02-.221-.082a.2.2 0 0 1-.053-.146.3.3 0 0 1 .004-.05l.06-.31c-1.143.707-2.301.98-3.383.783-1.24-.245-2.393-1.456-2.626-2.756-.063-.347-.093-1.052-.1-1.075l-.623 3.456c-.022.131-.137.183-.27.182l-1.565.002c-.08 0-.158.005-.21-.059a.27.27 0 0 1-.058-.222l1.557-8.492a.276.276 0 0 1 .269-.227h1.567a.27.27 0 0 1 .21.097.27.27 0 0 1 .06.221l-.645 3.46q.026-.056.027-.057a5.77 5.77 0 0 1 1.57-2.384c1.262-1.175 2.816-1.66 4.343-1.288.018.005.2.068.2.068.341.146.702.306 1.016.588.05-.325.126-.49.126-.49.067-.14.17-.209.3-.209h1.412a.32.32 0 0 1 .224.078c.048.046.084.13.1.183.509 1.418 1.434 2.647 1.434 2.647 1.891 2.178 4.826 2.272 6.003.44a1.3 1.3 0 0 1-.2.133l-.034.023-.01.003c-1.607 1.495-4.44.65-5.71-1.957 0 0-.53-1.146-.739-2.708a7 7 0 0 1 1.202-1.502c-.222 1.585 0 2.856 0 2.856.545 2.81 3.005 4.357 4.933 3.406a1.2 1.2 0 0 1-.345.013c-2.102.403-4.066-1.723-3.867-4.57 0 0 .116-1.287.735-2.763a7 7 0 0 1 1.554-.612 10.2 10.2 0 0 0-1.393 2.426c-.935 2.717.435 5.295 2.595 5.418a1.3 1.3 0 0 1-.197-.11l-.028-.013-.008-.008c-2.098-.644-2.782-3.519-1.161-5.923 0 0 .743-1.053 2.013-2.02.656.005 1.306.1 1.934.29a10.3 10.3 0 0 0-2.543 1.454c-2.17 1.886-2.27 4.809-.457 5.992a1.2 1.2 0 0 1-.172-.267c-1.452-1.613-.6-4.415 1.988-5.676 0 0 1.213-.562 2.844-.754.522.321.991.703 1.403 1.138-1.625-.243-2.944-.013-2.944-.013-2.816.547-4.363 3.016-3.4 4.947a1.3 1.3 0 0 1-.008-.306c-.448-2.121 1.688-4.12 4.56-3.919 0 0 1.349.121 2.867.78q.396.738.61 1.572.03.123.057.25c-1.304-1.05-2.594-1.524-2.594-1.524-2.662-.917-5.192.383-5.406 2.468q.074-.177.197-.322c.769-1.928 3.528-2.51 5.846-.944 0 0 1.117.786 2.107 2.127a7 7 0 0 1-.286 1.65A10.3 10.3 0 0 0 67.555 49c-1.848-2.126-4.689-2.265-5.919-.567q.123-.075.26-.121c1.622-1.37 4.365-.506 5.61 2.047 0 0 .759 1.738.919 3.335L77.92 42.73a.21.21 0 0 1 .154-.077h1.98c.062 0 .12.028.16.075a.25.25 0 0 1 .04.188s-1.175 7.023-1.498 8.264c.894-1.009 6.561-8.452 6.561-8.452a.21.21 0 0 1 .153-.076l1.887-.002c.062 0 .122.029.16.078a.22.22 0 0 1 .039.183l-1.406 7.543a5.9 5.9 0 0 1 1.418-1.976c1.263-1.176 2.805-1.638 4.34-1.303q.028.007.052.017l.143.062c.447.175.76.354 1.075.638l.108-.537a.266.266 0 0 1 .268-.206h1.413c.08 0 .158.026.21.088a.27.27 0 0 1 .062.18zm-42.255 4.46c.06-.199.09-.416.09-.635 0-.398-.097-.808-.28-1.13-.33-.593-.856-.823-1.24-.91a2.62 2.62 0 0 0-2.03.393c-.994.747-1.535 1.72-1.535 2.73 0 .162-.001.266.051.487.134.48.368.96.79 1.25.4.258 1.08.344 1.846.2 1.026-.251 1.99-1.277 2.308-2.386zm39.671 0c.06-.199.082-.416.081-.635 0-.398-.089-.808-.272-1.13-.328-.593-.855-.823-1.24-.91a2.62 2.62 0 0 0-2.03.393c-.993.747-1.534 1.72-1.534 2.73q0 .243.043.487c.12.468.376.96.798 1.25.4.258.975.358 1.76.228 1.026-.249 2.052-1.311 2.394-2.414zM80.757 69.551l-1.008 6h1.932l.63-3.955s1.01-.59.967-.272c-.042.318-.672 4.227-.672 4.227h1.849l.798-4.5s.127-1.637-.546-1.637c-.672 0-2.185.682-2.185.682l.084-.682zm7.775-.091.336-1.41 2.017-.136-1.05 1.819s.294.09.462.409.042 1.318.042 1.682-.925 1.5-1.43 1.636-1.722 0-1.722 0l-.168.59s1.344.092 1.975.046c.63-.045.672.637.714.955s-.168 1.136-.336 1.409-1.513.954-2.942.954-1.429-.772-1.429-1.318c0-.545.126-.772.799-1.09-.336-.41-.252-.682-.21-.864s.252-.864.378-1.137c-.294-.181-.294-.5-.336-.863-.042-.364.126-1.046.336-1.546s.588-.772.84-1.045c.253-.273 1.724-.091 1.724-.091zm-.132 1.958s.462-.682-.169-.727c-.63-.046-.588 1-.588 1s-.168.59.21.636.547-.909.547-.909zm-.799 3.996s-.294-.09-.462 0a.57.57 0 0 0-.294.41c-.042.181.252.228.588.181.336-.046.546-.182.588-.364s-.42-.227-.42-.227zm8.958-7.363s-2.732-.637-3.447.863-.84 2.41-.924 3.273c-.084.864-.252 1.864-.126 2.364s.714 1.09 1.303 1.136c.588.046 1.89-.227 1.89-.227l.337-1.818-1.599.182s-.084-.273-.042-.773.337-2.182.463-2.5.546-.727 1.008-.682c.463.045.799.045.799.045zm.292 1.636s1.555-.363 2.227-.318c.673.045 1.765.455 1.723 1.182s-.714 5-.714 5l-1.723.09-.042-.363s-.714.41-1.135.455c-.42.045-1.176-.41-1.176-1.319s.084-1.772.672-2.045 1.681-.5 2.017-.5.21-.682.21-.682-1.596-.045-2.017.182c-.084-.818-.042-1.682-.042-1.682zm1.677 3.773s.21-.273.042-.41-.378-.045-.588.228-.294.864 0 .864.546-.682.546-.682zm3.24-3.864-1.05 5.955 1.89.045.631-3.682s1.051-.409 1.345-.409.462-2.09.462-2.09-.967-.046-1.639.863c0-.454.084-.909.084-.909zm6.304-.136.293-1.59 1.976-.227-1.387 8-1.723-.09v-.637s-.378.864-1.386.818c-1.009-.045-1.05-1.229-1.05-1.229s-.21-.772.251-2.954c.462-2.182 3.026-2.091 3.026-2.091zm-.298 2s0-.455-.253-.455c-.252 0-.546.455-.672.955s-.21.954-.168 1.227.042.455.42.455.466-.411.466-.684.207-1.498.207-1.498zm-29.37-3.727-.21 1.318 1.975-.136.21-1.318zm-.253 1.818-1.05 5.955 1.891.091 1.051-6.09zm-21.514-1.41-.337 1.82s-1.266-.274-1.35-.046c-.084.227.042 1.227.378 1.863.337.637.547 1.773.379 2.273s-.42 1.227-1.051 1.5c-.63.273-2.06.182-2.606 0a13 13 0 0 1 .085-1.913s1.387.363 1.555.272-.086-1.272-.296-1.727c-.21-.454-.756-1.59-.546-2.318.21-.727.42-1.636 1.134-1.773.715-.136 1.051-.363 1.555-.273.505.091 1.1.323 1.1.323zm.666-.23-1.26 7.681 1.849.046.714-4.091s.715-.364.84-.273c.127.09 0 .818 0 .818l-.672 3.548h1.891l.967-4.957s-.21-1.09-.546-1.227-1.387 0-1.64.136c-.251.137-.546.364-.546.364l.337-2.318zm4.413 6.367c-.085-.506.022-1.418.126-2 .295-1.636 1.263-2.864 2.564-2.864.638 0 1.487.249 1.85.773.375.545.21 1.52.21 2.364 0 .854-.328 1.907-.967 2.5-.601.558-1.497.682-2.06.682-.74 0-1.572-.56-1.723-1.455zm3.066-3.225s-.63 0-.798.5-.253 1.181-.295 1.454-.292 1 .084 1c.377 0 .797-1.044.881-1.544s.128-1.41.128-1.41zm2.904-1.411 1.85-.182.083.409s.967-.5 1.345-.5c.379 0 .84.59.925 1.318.084.727-.168 2-.42 3.137-.253 1.136-1.387 1.727-1.597 1.772-.21.046-1.387.046-1.387.046l-.252 1.5-1.934.182zm2.307 1.592s-.63 0-.798.5-.252 1.182-.294 1.455-.293 1 .084 1c.376 0 .797-1.044.88-1.544.085-.5.128-1.41.128-1.41zm2.905-1.592 1.849-.182.084.409s.966-.5 1.345-.5c.378 0 .84.59.924 1.318.084.727-.168 2-.42 3.137-.252 1.136-1.387 1.727-1.597 1.772-.21.046-1.387.046-1.387.046l-.252 1.5-1.933.182zm2.307 1.592s-.63 0-.799.5c-.168.5-.252 1.182-.294 1.455s-.292 1 .084 1c.377 0 .797-1.044.881-1.544s.128-1.41.128-1.41z"/></svg>