<svg xmlns="http://www.w3.org/2000/svg" width="120" height="120" viewBox="0 0 120 120"><path d="M9.022 55.75a2.7 2.7 0 0 1 .533-.18c.327-1.589 1.707-2.781 3.363-2.781s3.038 1.193 3.364 2.782c.509.098.929.308 1.256.619a5 5 0 0 0-.033-.876c-.21-2.4-2.186-4.283-4.594-4.283-2.48 0-4.498 2.002-4.603 4.505a7 7 0 0 0-.011.677c.207-.178.446-.339.725-.463zm6.588.356h-5.526q-.399 0-.825.192-.409.184-.677.445-.515.63-.531 1.841v4.402q.017 1.214.53 1.841.27.266.678.448.426.19.825.19h5.526c1.426-.012 2.153-.81 2.175-2.386v-4.586q-.034-2.368-2.175-2.387zm59 6.184v.146q0 .286.147.45.105.21.294.211h4.647v2.368h-4.941q-.677 0-1.05-.128a1.9 1.9 0 0 1-.729-.447q-.374-.376-.503-.769-.14-.41-.14-1.09l-.018-4.74q.038-2.148 2.202-2.185h3.048q2.114.036 2.147 2.266v1.873zm2.801-3.348v-.055a.37.37 0 0 0-.146-.302.66.66 0 0 0-.39-.111h-1.574a.69.69 0 0 0-.49.176.5.5 0 0 0-.237.43v.95zm-10.3-4.179q.02-.959.699-1.537.66-.585 1.73-.603h1.437v2.289h-.87q-.719.016-.732.694v.5h1.602v2.37h-1.602v6.99H67.11zm-4.08 4.223q.016-.53-.61-.512h-4.555v-2.367h5.13q2.24.034 2.276 2.212v4.953q-.02.939-.565 1.554-.57.64-1.477.64h-3.103q-2.263-.018-2.296-2.111v-1.912q.015-2.188 2.19-2.224h3.01zm-2.939 3.643q0 .203.184.321.157.146.407.147h1.74q.592 0 .609-.468v-.662q0-.541-.627-.542h-1.722q-.337.001-.468.11-.121.13-.123.505zm-10.782.468h4.031q.554-.019.572-.452v-.212a.5.5 0 0 0-.053-.204q-.135-.268-.332-.268h-2a2.2 2.2 0 0 1-1.524-.622c-.43-.37-.65-.828-.662-1.364v-1.766q.033-2.067 2.204-2.102h4.675v2.367h-3.96q-.7 0-.7.435v.23q.001.45.716.45h1.993q.795.019 1.36.623.572.611.591 1.453v1.728q-.02.727-.656 1.453-.311.354-.63.492-.328.127-.895.127h-4.73zm-4.662 3.505a.73.73 0 0 0 .46-.195.5.5 0 0 0 .183-.38v-.561h-2.897q-.567 0-.906-.147-.355-.136-.712-.49-.34-.374-.488-.784c-.103-.248-.156-.567-.156-.948v-6.99h2.262v6.24q0 .75.606.75h1.598q.285.001.493-.193a.5.5 0 0 0 .2-.393v-6.405h2.243V66.42q-.02 1.143-.575 1.837-.564.695-1.546.712h-5.281v-2.367zm-8.597-7.616c.01-.354-.19-.523-.61-.512h-4.555v-2.367h5.13q2.24.035 2.278 2.212v4.953q-.019.939-.566 1.554-.573.64-1.478.64h-3.102q-2.262-.018-2.297-2.111v-1.912q.018-2.187 2.19-2.224h3.01zm-2.938 3.643q0 .203.182.321c.106.097.24.147.41.147h1.737q.59 0 .609-.468v-.662q.001-.541-.625-.542h-1.722q-.339.001-.469.11-.121.13-.122.505zm-11.525-4.044q.018-1.211.531-1.842.269-.263.677-.445.426-.193.826-.191h3.233q2.14.018 2.176 2.386v4.86a2.02 2.02 0 0 1-.645 1.454 2.05 2.05 0 0 1-1.477.658H23.85v3.504h-2.262zm5.178.458q-.015-.55-.511-.57h-1.762q-.626.04-.643.698v3.23q.016.676.712.696h1.615a.53.53 0 0 0 .418-.193.47.47 0 0 0 .171-.376zm85.183 3.804q-.071 2.678-2.78 2.622h-2.008q-.637 0-1.14-.109-.517-.138-.993-.64-.361-.449-.455-.916a3.5 3.5 0 0 1-.106-1.033v-4.024q.035-2.719 2.69-2.699h4.251v-3.055h.541zm-.54-6.246h-4.285q-.463.001-.835.103c-.26.06-.514.221-.749.484q-.338.358-.429.713a2.5 2.5 0 0 0-.1.86v4.312c0 .717.202 1.205.616 1.466q.303.184.678.275.377.1.836.1h1.873q1.051.001 1.712-.495.661-.465.682-1.61zm-9.157-.002q-1.894.036-1.859 2.104v6.762h-.542v-6.76q-.038-2.66 2.487-2.66h.602v.554zm-5.084 6.317c0 .356-.026.67-.07.943a2.15 2.15 0 0 1-.453.861 2.26 2.26 0 0 1-1.766.745h-2.703q-1.052 0-1.712-.639c-.45-.42-.68-1.005-.68-1.755v-1.424q.036-2.412 2.358-2.468h4.503v-.624q0-.77-.437-1.35a1.4 1.4 0 0 0-.65-.506q-.375-.1-.845-.1h-4.912v-.554h4.657q.638 0 1.16.09.267.056.493.21.237.148.445.43a2.98 2.98 0 0 1 .612 1.895zm-.54-3.184h-4.546q-.816.02-1.278.514-.475.503-.474 1.38v1.41q0 .412.085.75.087.355.426.63.59.496 1.302.495h2.755c1.15-.012 1.73-.63 1.73-1.857zm-12.126 5.734q-.514-.001-.939-.091-.444-.073-.896-.427a2.2 2.2 0 0 1-.643-.926 3.3 3.3 0 0 1-.184-1.143v-4.42q-.019-.54.105-.95.115-.412.478-.805c.275-.276.556-.46.853-.55q.428-.109.968-.11h3.467v.555h-3.388q-.895 0-1.41.376-.53.412-.531 1.408v4.423q0 .467.138.905c.096.288.254.539.482.76q.37.285.73.358.376.082.801.082h3.232v.555z"/></svg>