<svg xmlns="http://www.w3.org/2000/svg" width="120" height="120" viewBox="0 0 120 120"><path d="m34.286 60.988-2.132-11.519s-.258-2.307-3.006-2.307h-9.984l-.116.433s4.799 1.048 9.403 4.97c4.4 3.75 5.835 8.422 5.835 8.422zm8.025-13.826-6.39 17.66-.755-3.804.001.002-2.255-11.545s-.272-2.313-3.18-2.313h-10.56l-.124.435s3.23.67 7.01 2.936l5.821 22.304h6.983l10.662-25.675Zm12.34 25.675H47.62l4.396-25.675h7.033zm22.536-19.266.908-5.327s-2.805-1.081-5.73-1.081c-3.162 0-10.67 1.4-10.67 8.21 0 6.41 8.812 6.49 8.812 9.854s-7.903 2.763-10.511.64l-.948 5.57s2.844 1.4 7.192 1.4c4.347 0 10.907-2.283 10.907-8.491 0-6.45-8.892-7.05-8.892-9.854s6.205-2.444 8.932-.92zm9.48 11.367 3.657-9.876 2.057 9.876zm14.285 7.9L95.81 47.163h-7.07c-2.386 0-2.967 1.913-2.967 1.913l-9.581 23.762h6.696l1.34-3.814h8.168l.753 3.813z"/></svg>