<svg xmlns="http://www.w3.org/2000/svg" width="24" height="24" viewBox="0 0 24 24"><g clip-path="url(#a)"><path clip-rule="evenodd" d="M21.992 22.816c.768-.592 1.304-1.424 1.536-2.016.464-1.192.472-2.544.472-3.4V6.6c0-.848 0-2.208-.472-3.4-.232-.592-.776-1.432-1.536-2.016a5 5 0 0 0-1.688-.88C19.528.08 18.584 0 17.4 0H6.6C5.416 0 4.472.08 3.696.304a5.1 5.1 0 0 0-1.688.88C1.24 1.776.704 2.608.472 3.2.008 4.392 0 5.744 0 6.6v10.8c0 .856.008 2.208.472 3.4.232.592.776 1.432 1.536 2.016.44.344.968.664 1.688.88.776.224 1.72.304 2.904.304h10.8c1.184 0 2.136-.072 2.904-.304a5.1 5.1 0 0 0 1.688-.88Zm-5.706-19.05c.062-.013.576-.104.634-.11.385-.033.6.22.6.63v11.289c0 .303-.003.577-.067.881a2.2 2.2 0 0 1-.348.821 2.1 2.1 0 0 1-.655.606 2.6 2.6 0 0 1-.831.303c-.552.11-.93.136-1.284.065a1.8 1.8 0 0 1-.864-.44 1.88 1.88 0 0 1-.604-1.184 1.9 1.9 0 0 1 .51-1.488c.197-.207.445-.37.776-.499.347-.134.729-.215 1.317-.333l.464-.094c.205-.041.379-.093.52-.265s.144-.384.144-.593V8.084c0-.404-.182-.514-.566-.44-.276.054-6.19 1.247-6.19 1.247-.333.08-.45.19-.45.603v7.722c0 .303-.015.578-.08.882a2.2 2.2 0 0 1-.348.82 2.1 2.1 0 0 1-.654.606 2.6 2.6 0 0 1-.831.307c-.552.112-.93.136-1.284.065a1.8 1.8 0 0 1-.864-.443 1.86 1.86 0 0 1-.59-1.184 1.87 1.87 0 0 1 .496-1.488c.197-.208.445-.371.776-.5.347-.134.729-.214 1.317-.333l.464-.093c.204-.042.379-.094.52-.266.14-.172.157-.374.157-.582V6.104c0-.12.01-.201.016-.241a.72.72 0 0 1 .24-.462 1 1 0 0 1 .443-.2h.003z" fill-rule="evenodd"/></g><defs><clipPath id="a"><path d="M0 0h24v24H0z"/></clipPath></defs></svg>