<svg xmlns="http://www.w3.org/2000/svg" width="24" height="24" viewBox="0 0 24 24"><path d="M15.74.688c-1.187.06-2.417.575-3.447 1.605l-9 9c-1.677 1.677-2.37 3.678-2.26 5.547s.978 3.585 2.26 4.867 2.998 2.15 4.867 2.26c1.87.11 3.87-.583 5.547-2.26l9-9-1.414-1.414-9 9c-1.323 1.323-2.697 1.755-4.016 1.678-1.318-.078-2.602-.71-3.57-1.678s-1.6-2.252-1.678-3.57.355-2.693 1.678-4.016l9-9c.823-.823 1.635-1.068 2.422-1.021.787.046 1.571.428 2.164 1.021s.975 1.377 1.021 2.164c.047.787-.198 1.599-1.021 2.422l-9 9c-.323.323-.572.38-.828.365a1.22 1.22 0 0 1-.758-.365 1.22 1.22 0 0 1-.365-.758c-.015-.256.042-.505.365-.828l9-9-1.414-1.414-9 9c-.677.677-.995 1.553-.947 2.36.047.806.415 1.522.947 2.054s1.248.9 2.055.947c.806.048 1.682-.27 2.359-.947l9-9c1.177-1.177 1.682-2.615 1.604-3.953-.08-1.338-.697-2.554-1.604-3.461S17.584.768 16.247.689a5 5 0 0 0-.507-.001z"/></svg>