<svg xmlns="http://www.w3.org/2000/svg" width="24" height="24" viewBox="0 0 24 24"><path d="M7 0v4H0v20h4v-2H2V6h20v16h-6v2h8V4h-7V0zm2 2h6v2H9zm0 5c-2.75 0-5 2.25-5 5 0 1.675.89 3.091 2.164 4C5.496 16.852 5 17.84 5 19c0 2.75 2.25 5 5 5s5-2.25 5-5c2.75 0 5-2.25 5-5s-2.25-5-5-5c-.645 0-1.18.309-1.748.533C12.382 8.05 10.835 7 9 7zm0 2c1.669 0 3 1.331 3 3s-1.331 3-3 3-3-1.331-3-3 1.331-3 3-3zm6 2c1.669 0 3 1.331 3 3s-1.331 3-3 3c-.23 0-.447-.036-.66-.084-.36-.748-.872-1.302-1.537-1.787C13.515 14.264 14 13.2 14 12c0-.232-.102-.43-.133-.654.362-.156.71-.346 1.133-.346zm-3.713 5.371C12.274 16.86 13 17.813 13 19c0 1.669-1.331 3-3 3s-3-1.331-3-3c0-.894.431-1.645 1.045-2.193.32.064.617.193.955.193.837 0 1.592-.261 2.287-.629z"/></svg>