<svg xmlns="http://www.w3.org/2000/svg" width="24" height="24" viewBox="0 0 24 24"><path d="M5.5 1C3 1 1 3 1 5.5S3 10 5.5 10H8v4H5.5C3 14 1 16 1 18.5S3 23 5.5 23s4.5-2 4.5-4.5V16h4v2.5c0 2.5 2 4.5 4.5 4.5s4.5-2 4.5-4.5-2-4.5-4.5-4.5H16v-4h2.5C21 10 23 8 23 5.5S21 1 18.5 1 14 3 14 5.5V8h-4V5.5C10 3 8 1 5.5 1zm0 2C7 3 8 4 8 5.5V8H5.5C4 8 3 7 3 5.5S4 3 5.5 3zm13 0C20 3 21 4 21 5.5S20 8 18.5 8H16V5.5C16 4 17 3 18.5 3zM10 10h4v4h-4zm-4.5 6H8v2.5C8 20 7 21 5.5 21S3 20 3 18.5 4 16 5.5 16zM16 16h2.5c1.5 0 2.5 1 2.5 2.5S20 21 18.5 21 16 20 16 18.5z"/></svg>