<svg xmlns="http://www.w3.org/2000/svg" width="24" height="24" viewBox="0 0 24 24"><path d="M3.998 0v9h2V2H17v5h5v15h-4.2l6.2 2V4.086L19.914 0zM19 2h.086L22 4.914V5h-3zM2 11v8h2.25v-2h.25c1.208 0 2.153-.44 2.668-1.11.515-.669.582-1.404.582-1.89s-.067-1.221-.582-1.89C6.653 11.44 5.708 11 4.5 11zm6.5 0v8h2.705c.715 0 1.61-.174 2.285-.86.676-.684 1.01-1.736 1.01-3.14s-.334-2.456-1.01-3.14c-.676-.686-1.57-.86-2.285-.86zm7 0v8h2v-2.5h2v-2h-2V13h3v-2zM4 13h.5c.792 0 .972.185 1.082.328s.168.408.168.672-.058.529-.168.672S5.292 15 4.5 15H4zm6.5 0h.705c.422 0 .674.076.861.266.188.19.434.638.434 1.734s-.246 1.544-.434 1.734c-.187.19-.44.266-.86.266H10.5zM4 22v2l1.8-2z"/></svg>