<svg xmlns="http://www.w3.org/2000/svg" width="24" height="24" viewBox="0 0 24 24"><path d="M3.998 0v7h2V2H17v5h5v15h-1.143l1.143.727V23l.166-.166L24 24V4.086L19.914 0zM19 2h.086L22 4.914V5h-3zM2 10l1.834 1.166-.147.146zm0 0v14h15v-2.334l-1.582-1.23 1.37-1.026.212.135V10zm2 1.273L5.143 12H15v5l-2.049-2.73-1.264 1.894.676.432-.164.004.85 1.13.326-.492L15 18.273v1.838l-.4-.312.4.535V22h-4.797l2.467-3.701-1.584-1.233-2.242 3.364-2-2L4.464 22H4V12h.572L4 11.555zM7 13c-.067 0-.107.066-.172.072l1.861 1.184C8.374 13.56 7.805 13 7 13zm-.744.31C5.56 13.627 5 14.196 5 15c0 1.093.907 2 2 2 .963 0 1.678-.75 1.86-1.664zm.9 8.26.43.43h-.717z"/></svg>