<svg xmlns="http://www.w3.org/2000/svg" width="24" height="24" viewBox="0 0 24 24"><path d="M3.998 0v9h2V2H17v5h5v15h-6v2h8V4.086L19.914 0zM19 2h.086L22 4.914V5h-3zM8 11v2.203a4 4 0 0 0-.98.402l-1.313-1.312-1.414 1.414 1.312 1.313a4 4 0 0 0-.402.98H3v2h2.203c.094.352.221.673.402.98l-1.312 1.313 1.414 1.414 1.313-1.312c.307.18.628.308.98.402V23h2v-2.203c.352-.094.673-.221.98-.402l1.313 1.312 1.414-1.414-1.312-1.313c.18-.307.308-.628.402-.98H15v-2h-2.203a4 4 0 0 0-.402-.98l1.312-1.313-1.414-1.414-1.313 1.312a4 4 0 0 0-.98-.402V11zm1 4c1.116 0 2 .884 2 2s-.884 2-2 2-2-.884-2-2 .884-2 2-2z"/></svg>