<svg xmlns="http://www.w3.org/2000/svg" width="24" height="24" viewBox="0 0 24 24"><g clip-path="url(#a)"><path d="M21.666 17.873c-.32.165-.65.308-.991.44a9.6 9.6 0 0 1-3.369.606c-4.437 0-8.3-3.05-8.3-6.97 0-1.102.638-2.06 1.54-2.556-4.018.166-5.042 4.35-5.042 6.795 0 6.927 6.386 7.632 7.762 7.632.737 0 1.86-.22 2.532-.43a.5.5 0 0 0 .12-.044 12.07 12.07 0 0 0 6.243-4.956c.21-.319-.154-.704-.495-.517Z"/><path d="M9.908 22.641a7.4 7.4 0 0 1-2.136-2.004 7.62 7.62 0 0 1-1.42-4.449 7.62 7.62 0 0 1 2.896-6.002 7.7 7.7 0 0 1 1.288-.804c.297-.143.792-.385 1.453-.374 1.1.011 1.937.573 2.41 1.211a3.02 3.02 0 0 1 .595 1.751c0-.022 2.29-7.466-7.508-7.466C3.391 4.504 0 8.414 0 11.849c0 2.17.506 3.91 1.134 5.253a12.07 12.07 0 0 0 7.21 6.343 11.9 11.9 0 0 0 3.667.573c1.32 0 2.598-.22 3.798-.617a7.1 7.1 0 0 1-2.136.33 7.2 7.2 0 0 1-3.765-1.09Z"/><path d="M14.279 13.964c-.077.099-.309.23-.309.528 0 .242.154.485.44.683 1.355.936 3.887.815 3.898.815 1.046 0 1.992-.297 2.84-.782.386-.22.738-.496 1.057-.793 1.101-1.046 1.773-2.522 1.795-4.163.022-2.103-.75-3.502-1.068-4.118C20.95 2.235 16.668 0 12 0 5.427 0 .088 5.286 0 11.838c.044-3.425 3.446-6.2 7.497-6.2.33 0 2.202.033 3.941.947 1.53.804 2.334 1.773 2.896 2.742.583 1.002.682 2.269.682 2.764 0 .496-.264 1.256-.737 1.873Z"/></g><defs><clipPath id="a"><path d="M0 0h24v24H0z"/></clipPath></defs></svg>