<svg xmlns="http://www.w3.org/2000/svg" width="24" height="24" viewBox="0 0 24 24"><path clip-rule="evenodd" d="M6.006 2.02a1 1 0 1 0 0 2h6a1 1 0 1 0 0-2zm5.916 2.976a1.1 1.1 0 0 0-1.1 1.1v1.8a1.1 1.1 0 0 0 1.1 1.1h5.8a1.1 1.1 0 0 0 1.1-1.1v-1.8a1.1 1.1 0 0 0-1.1-1.1zm-8.822 0a1.1 1.1 0 0 0-1.1 1.1v1.8a1.1 1.1 0 0 0 1.1 1.1h5.8a1.1 1.1 0 0 0 1.1-1.1v-1.8a1.1 1.1 0 0 0-1.1-1.1zm0 9.992a1.1 1.1 0 0 0-1.1 1.1v1.8a1.1 1.1 0 0 0 1.1 1.1h5.8a1.1 1.1 0 0 0 1.1-1.1v-1.8a1.1 1.1 0 0 0-1.1-1.1zm7.723 1.1a1.1 1.1 0 0 1 1.1-1.1h5.8a1.1 1.1 0 0 1 1.1 1.1v1.8a1.1 1.1 0 0 1-1.1 1.1h-5.8a1.1 1.1 0 0 1-1.1-1.1zm-5.975-5.015a1.1 1.1 0 0 1 1.1-1.1h5.8a1.1 1.1 0 0 1 1.1 1.1v1.8a1.1 1.1 0 0 1-1.1 1.1h-5.8a1.1 1.1 0 0 1-1.1-1.1zm9.866-1.061a1.1 1.1 0 0 0-1.1 1.1v1.8a1.1 1.1 0 0 0 1.1 1.1h5.8a1.1 1.1 0 0 0 1.1-1.1v-1.8a1.1 1.1 0 0 0-1.1-1.1zM14 3.019a1 1 0 0 1 1-1h6a1 1 0 1 1 0 2h-6a1 1 0 0 1-1-1Zm1 16.962a1 1 0 0 0 0 2h6a1 1 0 1 0 0-2zm-9.988 1a1 1 0 0 1 1-1h6a1 1 0 0 1 0 2h-6a1 1 0 0 1-1-1ZM3 9.973a1 1 0 0 0-1 1v2a1 1 0 1 0 2 0v-2a1 1 0 0 0-1-1Zm16.63-3.977a1 1 0 1 1 2 0v2a1 1 0 0 1-2 0zm1.015 8.992a1 1 0 0 0-1 1v2a1 1 0 1 0 2 0v-2a1 1 0 0 0-1-1ZM2 20.981a1 1 0 1 1 2 0 1 1 0 0 1-2 0ZM3.011 2.019a1 1 0 1 0 0 2 1 1 0 0 0 0-2Z"/></svg>