<svg xmlns="http://www.w3.org/2000/svg" width="24" height="24" viewBox="0 0 24 24"><path d="M2 24V2c8-3.524 11 4.644 20 0v12c-8 4.895-13-4.103-20 0"/><path d="M7.328.191C5.63-.018 3.75.136 1.598 1.084L1 1.348V24h2v-9.328c1.353-.672 2.58-.874 3.834-.723 1.412.17 2.878.722 4.453 1.29 3.15 1.133 6.923 2.253 11.234-.385L23 14.56V.359l-1.459.752c-4.247 2.192-6.743 1.376-9.582.368C10.539.974 9.026.4 7.329.19Zm-.187 1.95c1.395.186 2.695.703 4.15 1.22 2.593.921 5.71 1.634 9.709.075v9.92c-3.438 1.88-6.08 1.064-9.037 0-1.55-.558-3.146-1.181-4.89-1.391-1.286-.155-2.668.084-4.073.598V2.736c1.56-.584 2.91-.76 4.14-.595Z"/></svg>