<svg xmlns="http://www.w3.org/2000/svg" width="24" height="24" viewBox="0 0 24 24"><path d="M12 6c-1.703 0-3.361.806-4.666 1.9C6.029 8.995 5 10.398 5 12s1.03 3.005 2.334 4.1S10.297 18 12 18s3.361-.806 4.666-1.9C17.971 15.005 19 13.602 19 12s-1.03-3.005-2.334-4.1S13.703 6 12 6zm0 2c1.024 0 2.368.584 3.38 1.434C16.395 10.284 17 11.38 17 12s-.606 1.716-1.62 2.566C14.369 15.416 13.025 16 12 16s-2.368-.584-3.38-1.434C7.605 13.716 7 12.62 7 12s.606-1.716 1.62-2.566C9.631 8.584 10.975 8 12 8zm0 2c-1.093 0-2 .907-2 2s.907 2 2 2 2-.907 2-2-.907-2-2-2z"/></svg>