<svg xmlns="http://www.w3.org/2000/svg" width="24" height="24" viewBox="0 0 24 24"><path d="M12.547 3.857v.87l-.98.98.566.566-2.817 2.813c-.804-.124-2.856-.323-4.75 1.57l-.707.707 3.123 3.123-3.689 3.807 1.414 1.414 3.748-3.748 3.182 3.182.707-.707c1.894-1.894 1.693-3.948 1.568-4.752l2.815-2.815.566.567 1.414-1.414-.566-.565-2.797-2.799-2.364-2.363zm1 3.83.015.016-5.187 5.348-1.549-1.549c1.32-.72 2.658-.441 2.658-.441l.55.136zm.025.026 1.74 1.74-3.511 3.512.138.55s.28 1.339-.441 2.659l-3.06-3.06z"/></svg>