<svg xmlns="http://www.w3.org/2000/svg" width="24" height="24" viewBox="0 0 24 24"><path d="M.02 11.203c.066-3.906 3.676-7.327 7.603-7.197 1.882-.087 3.65.728 5.091 1.872a27 27 0 0 1-1.932 1.991C9.05 6.68 6.586 6.338 4.853 7.713c-2.478 1.705-2.59 5.731-.207 7.567 2.318 2.092 6.7 1.053 7.34-2.15-1.451-.022-2.907 0-4.36-.048-.003-.861-.007-1.723-.003-2.585a708 708 0 0 1 7.286.008c.145 2.027-.124 4.185-1.376 5.86-1.896 2.655-5.702 3.43-8.672 2.292-2.98-1.13-5.092-4.26-4.84-7.454m19.623-2.882h2.165q.005 1.083.015 2.165c.724.008 1.452.008 2.176.015v2.154l-2.176.018q-.01 1.086-.015 2.165H19.64c-.007-.72-.007-1.44-.014-2.161l-2.177-.022v-2.154q1.086-.009 2.177-.015.005-1.085.018-2.165"/></svg>