<svg xmlns="http://www.w3.org/2000/svg" width="24" height="24" viewBox="0 0 24 24"><path d="M12 0c-1.988 0-3.664.737-4.793 1.941-.962 1.027-1.435 2.39-1.58 3.829-.19.07-.417.05-.58.177-.409.32-.69.906-.596 1.467.094.56.486.982.938 1.229.24.131.57.133.859.191L12 23.785l5.75-14.951c.29-.058.62-.06.861-.191.452-.247.844-.668.938-1.229.093-.56-.187-1.147-.596-1.467-.163-.127-.39-.107-.58-.177-.145-1.44-.618-2.802-1.58-3.829C15.664.737 13.988 0 12 0zm0 2c1.512 0 2.586.513 3.332 1.309S16.5 5.222 16.5 6.5V7h-9v-.5c0-1.278.422-2.396 1.168-3.191C9.414 2.513 10.488 2 12 2zM6.334 6.895c.002.02.035.073.057.105h-.846c-.357 0 .74-.069.789-.105zM8.457 9h7.086L12 18.213z"/></svg>