<svg xmlns="http://www.w3.org/2000/svg" width="24" height="24" viewBox="0 0 24 24"><path d="M12 0C8.698 0 6 2.698 6 6c0 2.947 2.19 5.301 5 5.797v2.637L6.639 17.05C5.93 16.416 5.019 16 4 16c-2.197 0-4 1.803-4 4s1.803 4 4 4 4-1.803 4-4c0-.452-.12-.871-.26-1.277L12 16.166l4.26 2.557c-.14.406-.26.825-.26 1.277 0 2.197 1.803 4 4 4s4-1.803 4-4-1.803-4-4-4c-1.019 0-1.93.416-2.639 1.05L13 14.435v-2.637c2.81-.496 5-2.85 5-5.797 0-3.302-2.698-6-6-6zm0 2c2.22 0 4 1.78 4 4s-1.78 4-4 4-4-1.78-4-4 1.78-4 4-4zM4 18c1.117 0 2 .883 2 2s-.883 2-2 2-2-.883-2-2 .883-2 2-2zm16 0c1.117 0 2 .883 2 2s-.883 2-2 2-2-.883-2-2 .883-2 2-2z"/></svg>