<svg xmlns="http://www.w3.org/2000/svg" width="24" height="24" viewBox="0 0 24 24"><path d="M11.686.004C8.466.02 5.838 2.744 6 6v.92h2v-.95l-.002-.03a3.705 3.705 0 0 1 3.941-3.942l.061.004.06-.004a3.705 3.705 0 0 1 3.942 3.941L16 5.971v3.158a7.94 7.94 0 0 0-7.06-.52C6.166 9.758 4 12.48 4 16c0 4.406 3.594 8 8 8 3.521 0 6.242-2.167 7.39-4.94 1.082-2.611.728-5.802-1.39-8.247V6c.168-3.363-2.638-6.154-6-5.988a6 6 0 0 0-.314-.008zm.503 9.976q.427.008.852.08c1.132.194 2.241.738 3.201 1.698 1.92 1.92 2.17 4.44 1.301 6.539C16.673 20.397 14.715 22 12 22c-3.326 0-6-2.674-6-6 0-2.715 1.603-4.673 3.703-5.543a6.2 6.2 0 0 1 2.486-.477zM9.016 15v2h5.968v-2z"/></svg>