<svg xmlns="http://www.w3.org/2000/svg" width="24" height="24" viewBox="0 0 24 24"><g clip-path="url(#a)"><path d="M14.27 13.385h-.268c-.21.129-.302.373-.21.582l1.002 2.457a5.15 5.15 0 0 0 2.084-2.62l-2.596-.419zm-4.016.338a.48.48 0 0 0-.443-.338h-.093l-2.584.431a5.14 5.14 0 0 0 2.084 2.596l.99-2.41v-.035c.046-.058.046-.162.046-.244Zm2.13.943a.44.44 0 0 0-.594-.175c-.081.059-.14.094-.174.175h-.012l-1.269 2.293a5.2 5.2 0 0 0 2.83.14c.162-.035.337-.081.5-.14l-1.27-2.293h-.01Zm4.017-5.32-1.956 1.711.011.035a.43.43 0 0 0-.046.617q.087.104.21.14l.011.011 2.526.722c.082-1.13-.163-2.27-.756-3.236Zm-3.621.186c.012.244.21.43.454.419a.54.54 0 0 0 .245-.058h.011l2.13-1.525a5.2 5.2 0 0 0-2.991-1.444zm-2.258.36a.44.44 0 0 0 .605-.104.45.45 0 0 0 .093-.244h.012l.14-2.62c-.175.023-.35.058-.536.093a5.06 5.06 0 0 0-2.468 1.35l2.142 1.526h.011ZM9.368 11.86a.426.426 0 0 0 .303-.535c0-.093-.059-.163-.128-.221v-.012L7.588 9.31a5.2 5.2 0 0 0-.734 3.283l2.515-.722zm1.91.769.721.349.722-.35.174-.78-.5-.616h-.804l-.5.617.186.78Zm12.677 1.536-2.06-8.929a1.59 1.59 0 0 0-.862-1.094L12.687.148a1.7 1.7 0 0 0-1.385 0L2.966 4.142c-.431.21-.757.605-.862 1.094l-2.06 8.93a1.4 1.4 0 0 0 0 .686c.011.07.035.14.058.21.035.105.093.221.151.314.035.047.058.093.105.128L6.121 22.7c.023 0 .058.047.058.07.116.105.221.186.326.256.14.093.303.163.466.198.128.058.267.058.372.058h9.454c.081 0 .162-.035.232-.058.059-.012.117-.035.163-.047.047-.023.082-.035.128-.058.059-.023.117-.058.175-.093.14-.093.268-.21.384-.326l.175-.233 5.588-6.962c.116-.14.198-.29.256-.442a1.4 1.4 0 0 0 .058-.21 1.4 1.4 0 0 0 0-.687Zm-8.65 3.481c.024.07.047.14.082.198a.4.4 0 0 0-.035.303c.14.28.268.536.442.792.093.128.187.267.28.395 0 .035.035.094.046.14a.5.5 0 0 1-.174.687.495.495 0 0 1-.687-.175c-.012-.035-.024-.058-.035-.093-.023-.035-.047-.105-.07-.105a5 5 0 0 1-.14-.477c-.104-.29-.198-.57-.349-.838a.44.44 0 0 0-.245-.163l-.093-.186a6.52 6.52 0 0 1-4.621-.012l-.117.21a.4.4 0 0 0-.221.104c-.163.28-.28.57-.384.897a4 4 0 0 1-.14.465c-.023 0-.047.082-.07.117a.501.501 0 0 1-.943-.338c.012-.035.035-.058.047-.093.046-.035.046-.093.046-.128.105-.14.187-.268.28-.407.186-.245.337-.524.454-.804a.6.6 0 0 0-.035-.29l.081-.21a6.53 6.53 0 0 1-2.875-3.598l-.233.035a.45.45 0 0 0-.268-.104 6 6 0 0 0-.896.256c-.128.07-.28.128-.431.174a1 1 0 0 1-.151.035.51.51 0 0 1-.63-.314.504.504 0 0 1 .327-.64c.023 0 .058-.012.093-.012v-.012h.012l.128-.023c.163-.047.326-.047.477-.047.303 0 .605-.07.896-.14a.7.7 0 0 0 .222-.22l.22-.059a6.35 6.35 0 0 1 1.002-4.505l-.163-.14a.5.5 0 0 0-.093-.29 5 5 0 0 0-.745-.525q-.21-.105-.42-.244c-.022-.024-.07-.059-.092-.082l-.012-.011c-.233-.187-.291-.49-.128-.734a.53.53 0 0 1 .407-.175.66.66 0 0 1 .35.14l.104.082c.117.104.222.233.326.349.21.221.431.43.676.605a.45.45 0 0 0 .302.035l.175.128a6.4 6.4 0 0 1 3.26-1.862c.29-.07.605-.117.908-.14l.011-.21a.52.52 0 0 0 .163-.267 4.6 4.6 0 0 0-.058-.897 3 3 0 0 1-.07-.477v-.14a.517.517 0 0 1 .454-.559.497.497 0 0 1 .548.443v.256a3 3 0 0 1-.07.477c-.047.291-.07.594-.058.897a.4.4 0 0 0 .163.256l.011.22A6.5 6.5 0 0 1 16.692 7.6l.186-.14a.45.45 0 0 0 .303-.034 4.2 4.2 0 0 0 .675-.606c.105-.116.21-.233.326-.349.035-.023.081-.07.116-.07.198-.21.513-.21.687 0 .221.186.21.5 0 .699 0 .023-.035.046-.07.07a3 3 0 0 1-.512.326 4.3 4.3 0 0 0-.745.523.36.36 0 0 0-.093.28l-.186.163a6.33 6.33 0 0 1 1.024 4.494l.221.058a.5.5 0 0 0 .222.21c.29.08.593.127.896.162h.477c.035.035.093.047.14.059a.5.5 0 0 1 .43.57c-.058.268-.279.466-.558.43-.035-.01-.082-.01-.082-.023v-.011a.6.6 0 0 1-.163-.023 2.3 2.3 0 0 1-.419-.175 4 4 0 0 0-.896-.245c-.105 0-.198 0-.268.094l-.221-.035c-.477 1.525-1.525 2.805-2.876 3.62Z"/></g><defs><clipPath id="a"><path d="M0 0h24v24H0z"/></clipPath></defs></svg>