<svg xmlns="http://www.w3.org/2000/svg" width="24" height="24" viewBox="0 0 24 24"><path d="M17.545.838a3 3 0 0 0-2.127.875l-3.705 3.705a3.024 3.024 0 0 0-.002 4.254l.601.601-2.039 2.04-.601-.602a3.023 3.023 0 0 0-4.254.002l-3.705 3.705a3.024 3.024 0 0 0-.002 4.254l2.617 2.617a3.023 3.023 0 0 0 4.254-.002l3.705-3.705a3.024 3.024 0 0 0 .002-4.254l-.601-.601 2.039-2.04.601.602a3.023 3.023 0 0 0 4.254-.002l3.705-3.705a3.024 3.024 0 0 0 .002-4.254l-2.617-2.617a3 3 0 0 0-2.127-.873zm0 1.988c.256 0 .513.101.713.301l2.615 2.615a.98.98 0 0 1 0 1.426l-3.705 3.705a.996.996 0 0 1-1.426 0l-.601-.6 2.566-2.566-1.414-1.414-2.566 2.566-.6-.601a.98.98 0 0 1 0-1.426l3.705-3.705c.201-.201.457-.3.713-.3zm-10 10c.256 0 .513.101.713.301l.601.6-2.566 2.566 1.414 1.414 2.566-2.566.6.601a.98.98 0 0 1 0 1.426l-3.705 3.705a.996.996 0 0 1-1.426 0l-2.615-2.615a.98.98 0 0 1 0-1.426l3.705-3.705c.201-.201.457-.3.713-.3z"/></svg>