<svg xmlns="http://www.w3.org/2000/svg" width="24" height="24" viewBox="0 0 24 24"><path d="M16.076 1c-1.99 0-3.789.225-5.172.625-.691.2-1.279.437-1.77.771-.49.335-.98.86-.98 1.604v.088c-1.892.054-3.713.192-5.052.527-.782.196-1.44.426-1.983.746C.577 5.681 0 6.183 0 7v5c0 .843.593 1.295 1.127 1.605.39.227.916.38 1.436.541-.18.09-.414.14-.573.247C1.496 14.726 1 15.25 1 16v4.938c0 .743.484 1.278.979 1.623.494.344 1.089.588 1.789.794C5.167 23.768 6.988 24 9 24s3.833-.232 5.232-.645c.7-.206 1.295-.45 1.79-.794.494-.345.978-.88.978-1.623v-4.065c1.553-.075 3.087-.202 4.215-.533.698-.205 1.288-.442 1.777-.764.49-.321 1.008-.8 1.008-1.576V4c0-.744-.49-1.269-.98-1.604-.49-.334-1.078-.571-1.77-.771-1.383-.4-3.184-.625-5.174-.625zm0 2c1.834 0 3.497.223 4.62.547.508.147.859.315 1.085.453a4.5 4.5 0 0 1-1.086.453C19.573 4.777 17.91 5 16.076 5s-3.494-.223-4.617-.547A4.5 4.5 0 0 1 10.373 4a4.5 4.5 0 0 1 1.086-.453C12.582 3.223 14.242 3 16.076 3zm-5.922 3.049c.257.102.457.241.75.326 1.383.4 3.182.625 5.172.625s3.79-.225 5.174-.625c.293-.085.494-.224.75-.326V8.83a1 1 0 0 1-.102.08c-.217.146-.647.344-1.21.512-1.127.336-2.786.578-4.612.578s-3.523-.242-4.693-.58c-.565-.163-.988-.355-1.229-.504zm-2 .039v1.824c-1.745-.056-3.444-.188-4.568-.469-.562-.14-.934-.3-1.223-.443a5.8 5.8 0 0 1 1.223-.443c1.124-.281 2.823-.413 4.568-.47zM2 8.97c.359.139.667.305 1.102.414 1.34.335 3.16.473 5.052.527v2.996c-1.74-.061-3.434-.205-4.56-.496-.668-.172-1.188-.377-1.463-.537A1 1 0 0 1 2 11.783zm20 2.043v2.808a1 1 0 0 1-.105.082c-.226.149-.668.347-1.243.516-1.007.296-2.515.46-4.08.51a2.8 2.8 0 0 0-.562-.537c-.494-.334-1.087-.569-1.785-.768-1.088-.31-2.58-.41-4.07-.486v-2.082c.233.088.407.207.671.283 1.413.408 3.252.66 5.25.66s3.803-.251 5.182-.662c.291-.087.488-.222.742-.324zM9 15c1.856 0 3.538.222 4.676.547.511.146.86.314 1.092.453a4.5 4.5 0 0 1-1.092.453C12.538 16.778 10.856 17 9 17s-3.538-.222-4.676-.547A4.5 4.5 0 0 1 3.232 16a4.5 4.5 0 0 1 1.092-.453C5.462 15.222 7.144 15 9 15zm-6 3.041c.264.105.472.247.775.334C5.171 18.774 6.99 19 9 19s3.829-.226 5.225-.625c.303-.087.51-.229.775-.334v2.783c-.01.009-.029.032-.121.096-.214.15-.644.348-1.211.516C12.534 21.77 10.853 22 9 22s-3.534-.23-4.668-.564c-.567-.168-.997-.367-1.21-.516-.093-.064-.112-.087-.122-.096z"/></svg>