<svg xmlns="http://www.w3.org/2000/svg" width="24" height="24" viewBox="0 0 24 24"><path d="M18 2c-1.093 0-2 .907-2 2s.907 2 2 2 2-.907 2-2-.907-2-2-2zM9.525 5a1 1 0 0 0-1 .992l-.025 3.5a1 1 0 0 0 .992 1.008 1 1 0 0 0 1.008-.992L10.518 7h2.66L7.45 16H4a1 1 0 0 0-1 1 1 1 0 0 0 1 1h4a1 1 0 0 0 .844-.463l2.125-3.338L15 17.021V21.5a1 1 0 0 0 1 1 1 1 0 0 0 1-1v-5a1 1 0 0 0-.426-.818l-2.709-1.897 1.108-1.601 2.472 1.648a1 1 0 0 0 1.387-.277 1 1 0 0 0-.277-1.387l-2.444-1.629 1.711-2.47a1 1 0 0 0-.222-1.37l-2-1.5a1 1 0 0 0-.21-.053A1 1 0 0 0 15 5z"/></svg>