<svg xmlns="http://www.w3.org/2000/svg" width="24" height="24" viewBox="0 0 24 24"><path d="M5 0v2H0v18h12.406c.834 2.314 3 4 5.594 4 3.302 0 6-2.698 6-6 0-2.593-1.686-4.76-4-5.594V2h-4.8L15 0h-2v2H7V0zM2 4h13.123l.248 2H2zm13.396 0H18v2h-2.404zM2 8h13.62l.245 2H8v2h8v-.912l.158 1.285c-.994.328-1.866.868-2.556 1.627H8v2h4.406c-.228.632-.406 1.291-.406 2H2zm13.793 0H18v4c-.629 0-1.205.178-1.775.36L16 10.087V10h-.008zM4 10v2h2v-2zm0 4v2h2v-2zm14 0c2.221 0 4 1.779 4 4s-1.779 4-4 4-4-1.779-4-4c0-1.65.986-3.05 2.402-3.664l.098.795-.08-.807A4 4 0 0 1 18 14zm-1.5 1.13v5.74L20.803 18z"/></svg>