<svg xmlns="http://www.w3.org/2000/svg" width="24" height="24" viewBox="0 0 24 24"><path d="M7 2c-1.093 0-2 .907-2 2s.907 2 2 2 2-.907 2-2-.907-2-2-2zm5 0c-1.093 0-2 .907-2 2s.907 2 2 2 2-.907 2-2-.907-2-2-2zm5 0c-1.093 0-2 .907-2 2s.907 2 2 2 2-.907 2-2-.907-2-2-2zM7 7c-1.093 0-2 .907-2 2s.907 2 2 2 2-.907 2-2-.907-2-2-2zm5 0c-1.093 0-2 .907-2 2s.907 2 2 2 2-.907 2-2-.907-2-2-2zm5 0c-1.093 0-2 .907-2 2s.907 2 2 2 2-.907 2-2-.907-2-2-2zM7 12c-1.093 0-2 .907-2 2s.907 2 2 2 2-.907 2-2-.907-2-2-2zm5 0c-1.093 0-2 .907-2 2s.907 2 2 2 2-.907 2-2-.907-2-2-2zm5 0c-1.093 0-2 .907-2 2s.907 2 2 2 2-.907 2-2-.907-2-2-2zM7 18c-1.093 0-2 .907-2 2s.907 2 2 2h10c1.093 0 2-.907 2-2s-.907-2-2-2z"/></svg>