<svg xmlns="http://www.w3.org/2000/svg" width="24" height="24" viewBox="0 0 24 24"><path d="M6.998.834a3 3 0 0 0-2.12.873l-3.17 3.172a3.015 3.015 0 0 0 0 4.242l4.586 4.586 1.414-1.414-4.586-4.586a.98.98 0 0 1 0-1.414l3.172-3.172a.98.98 0 0 1 1.414 0l4.586 4.586 1.414-1.414-4.586-4.586A3 3 0 0 0 6.998.834zM15 3v4h2V3zm2 4v2h4V7zm.707 3.293-1.414 1.414 4.586 4.586a.98.98 0 0 1 0 1.414l-3.172 3.172a.98.98 0 0 1-1.414 0l-4.586-4.586-1.414 1.414 4.586 4.586a3.015 3.015 0 0 0 4.242 0l3.172-3.172a3.015 3.015 0 0 0 0-4.242zM3 15v2h4v-2zm4 2v4h2v-4z"/></svg>