<svg xmlns="http://www.w3.org/2000/svg" width="24" height="24" viewBox="0 0 24 24"><path d="M12 0C8.698 0 6 2.698 6 6c0 1.875.923 3.486 2.28 4.588-1.225.399-2.346.986-3.29 1.785C3.153 13.928 2 16.245 2 19v5h2v-5c0-2.215.861-3.9 2.281-5.102C7.701 12.697 9.718 12 12 12s4.299.697 5.719 1.898S20 16.785 20 19v5h2v-5c0-2.755-1.153-5.072-2.99-6.627-.944-.799-2.065-1.386-3.29-1.785C17.078 9.486 18 7.875 18 6c0-3.302-2.698-6-6-6zm0 2c2.221 0 4 1.779 4 4s-1.779 4-4 4-4-1.779-4-4 1.779-4 4-4zM7 19v5h2v-5zm8 0v5h2v-5z"/></svg>