<svg xmlns="http://www.w3.org/2000/svg" width="24" height="24" viewBox="0 0 24 24"><path d="M8 0C4.698 0 2 2.698 2 6c0 1.96 1.012 3.622 2.475 4.719-.748.3-1.483.629-2.09 1.17C.888 13.223 0 15.305 0 18v6h2v-6c0-2.275.679-3.694 1.715-4.617C4.75 12.459 6.242 12 8 12c1.76 0 3.25.454 4.285 1.373C13.32 14.293 14 15.709 14 18v6h2v-6c0-2.709-.888-4.792-2.387-6.123-.605-.537-1.337-.863-2.082-1.16C12.991 9.62 14 7.957 14 6c0-3.302-2.698-6-6-6zm0 2c2.221 0 4 1.779 4 4s-1.779 4-4 4-4-1.779-4-4 1.779-4 4-4zm11 5v3h-3v2h3v3h2v-3h3v-2h-3V7zM4 19v5h2v-5zm6 0v5h2v-5z"/></svg>