<svg xmlns="http://www.w3.org/2000/svg" width="24" height="24" viewBox="0 0 24 24"><path d="m2.613 10.096.282-.985q1-3.452 1.996-6.904c.026-.09.054-.164.157-.205 1.15-.461 2.327-.825 3.565-.959 1.666-.18 3.195.21 4.607 1.094.184.115.362.24.55.347.12.069.136.142.098.272Q13.04 5.601 12.22 8.45c-.192.661-.388 1.322-.574 1.986-.04.148-.075.173-.211.08-.814-.553-1.672-1.017-2.633-1.263-1.212-.312-2.423-.25-3.632.015-.862.19-1.692.474-2.557.828m14.664 2.929c-1.529.01-2.878-.526-4.134-1.351-.355-.234-.354-.232-.238-.635l2.134-7.376c.07-.241.019-.285.29-.104.895.6 1.839 1.094 2.908 1.31 1.128.228 2.248.15 3.362-.099.7-.157 1.38-.377 2.048-.635.096-.036.195-.098.294-.007.097.09.052.19.022.293q-1.07 3.697-2.134 7.397c-.033.115-.093.171-.2.214-1.162.465-2.351.831-3.604.95-.248.025-.498.03-.748.043m4.1.327-.442 1.533c-.602 2.08-1.206 4.162-1.801 6.245a.44.44 0 0 1-.298.32c-1.026.395-2.069.72-3.163.874q-2.538.358-4.73-.963c-.242-.146-.475-.306-.72-.45-.12-.07-.13-.144-.093-.272.523-1.796 1.04-3.594 1.56-5.392l.635-2.194c.067-.23.068-.23.28-.09.76.501 1.551.936 2.434 1.186 1.273.36 2.547.3 3.822.018.849-.187 1.668-.472 2.516-.815m-10.198-1.305-.366 1.261c-.623 2.156-1.249 4.312-1.866 6.47-.054.185-.103.19-.253.088-.857-.585-1.764-1.065-2.787-1.298-1.157-.264-2.309-.193-3.458.059-.72.157-1.418.384-2.106.649-.09.034-.183.085-.277.008-.105-.086-.06-.191-.03-.291l2.132-7.377a.28.28 0 0 1 .185-.203c1.18-.475 2.389-.844 3.663-.962 1.571-.144 3.026.212 4.372 1.029q.344.211.684.43c.058.038.138.07.107.137"/></svg>