<svg xmlns="http://www.w3.org/2000/svg" width="24" height="24" viewBox="0 0 24 24"><path d="M16.586 4a.999.999 0 0 0-.707 1.707L17.172 7h-1.838c-2.274 0-4.71 1.967-5.547 4.479l-.473 1.412C8.674 14.817 7.243 16 6.5 16H4a1 1 0 1 0 0 2h2.5c1.837 0 3.863-1.925 4.713-4.479l.473-1.41C12.236 10.454 13.94 9 15.334 9h1.838l-1.293 1.293a.999.999 0 1 0 1.414 1.414L21 8l-3.707-3.707A1 1 0 0 0 16.586 4zM4 7a1 1 0 1 0 0 2h3.5c.736 0 1.394.392 1.852 1.002a8 8 0 0 1 1.191-1.662C9.74 7.517 8.676 7 7.5 7zm12.586 6a.999.999 0 0 0-.707 1.707L17.172 16h-2.338c-1.268 0-2.33-.89-2.691-2.107a9.3 9.3 0 0 1-1.09 2.183C11.939 17.238 13.296 18 14.834 18h2.338l-1.293 1.293a.999.999 0 1 0 1.414 1.414L21 17l-3.707-3.707a1 1 0 0 0-.707-.293z"/></svg>