<svg xmlns="http://www.w3.org/2000/svg" width="24" height="24" viewBox="0 0 24 24"><path d="M10 4.03c-.777 0-1.555.283-2.121.849A2.98 2.98 0 0 0 7 7c0 .801.312 1.555.879 2.121L10.758 12l-2.88 2.879A2.98 2.98 0 0 0 7 17c0 .801.313 1.555.879 2.121S9.198 20 10 20s1.555-.312 2.121-.879L19.242 12l-7.12-7.121c-.568-.567-1.345-.85-2.122-.85zM10 6c.268 0 .518.104.707.293L16.414 12l-5.707 5.707a1.023 1.023 0 0 1-1.414 0A1 1 0 0 1 9 17c0-.268.104-.518.293-.707L13.586 12 9.293 7.707A1 1 0 0 1 9 7c0-.267.104-.517.293-.707A1 1 0 0 1 10 6z"/></svg>