<svg xmlns="http://www.w3.org/2000/svg" width="24" height="24" viewBox="0 0 24 24" version="1.2"><path d="M8 3C6.346 3 5 4.346 5 6v1H4a1 1 0 1 0 0 2h1v2H4a1 1 0 1 0 0 2h1v2H4a1 1 0 1 0 0 2h1v1c0 1.654 1.346 3 3 3h11c1.654 0 3-1.346 3-3V6c0-1.654-1.346-3-3-3zm0 2v2H7V6c0-.551.449-1 1-1zm1 0h10c.551 0 1 .449 1 1v12c0 .551-.449 1-1 1H9zm5 3.5a2 2 0 0 0-2 2 2 2 0 0 0 2 2 2 2 0 0 0 2-2 2 2 0 0 0-2-2zM7 9h1v2H7zm0 4h1v2H7zm7 .355c-1.562 0-2.5.716-2.5 1.43 0 .357.938.715 2.5.715 1.466 0 2.5-.357 2.5-.715 0-.714-.98-1.43-2.5-1.43zM7 17h1v2c-.551 0-1-.449-1-1z"/></svg>