<svg xmlns="http://www.w3.org/2000/svg" width="24" height="24" viewBox="0 0 24 24" version="1.2"><path d="M5 3C3.346 3 2 4.346 2 6v9c0 .385.002.73.012 1.049A2.504 2.504 0 0 0 0 18.5C0 19.878 1.122 21 2.5 21h19c1.378 0 2.5-1.122 2.5-2.5a2.505 2.505 0 0 0-2.012-2.451c.01-.315.012-.657.012-1.049V6c0-1.654-1.346-3-3-3zm0 2h14c.551 0 1 .449 1 1v9c0 .388-.005.726-.014 1H19V7c0-.55-.45-1-1-1H6c-.55 0-1 .45-1 1v9h-.98A23 23 0 0 1 4 15V6c0-.551.449-1 1-1zm1 2h12v9H6zM2.5 18h19c.271 0 .5.229.5.5s-.229.5-.5.5h-19a.507.507 0 0 1-.5-.5c0-.271.229-.5.5-.5z"/></svg>