<svg xmlns="http://www.w3.org/2000/svg" width="24" height="24" viewBox="0 0 24 24"><path d="M17.621 2c-.385 0-.767.146-1.06.44L13 6H4a1 1 0 0 0-1 1v13a1 1 0 0 0 1 1h13a1 1 0 0 0 1-1v-9l3.56-3.56a1.494 1.494 0 0 0 0-2.121l-2.878-2.88A1.5 1.5 0 0 0 17.622 2zm0 2.207 2.172 2.172L18.5 7.672 16.328 5.5zm-2 2 2.172 2.172-6.293 6.293L9.328 12.5zM5 8h6l-3.18 3.18c-.293.293-.478.812-.629 1.289-.16.5-.191 1.056-.191 1.47V17h3.06c.415 0 1.11-.1 1.573-.29.464-.19.895-.347 1.187-.64L16 13v6H5zm3.94 5.332 1.755 1.729L9 15z"/></svg>