<svg xmlns="http://www.w3.org/2000/svg" width="24" height="24" viewBox="0 0 24 24"><path d="M12 6c-1.825 0-3.61.552-5.03 1.555-2.73 1.93-4.707 4.756-4.79 4.875a1 1 0 0 0 0 1.14c.083.12 2.06 2.944 4.79 4.875C8.39 19.447 10.176 20 12 20s3.611-.552 5.027-1.555c2.731-1.93 4.71-4.756 4.793-4.875a1 1 0 0 0 0-1.14c-.083-.12-2.062-2.944-4.793-4.875C15.611 6.552 13.826 6 12 6zm0 3.5c1.93 0 3.5 1.566 3.5 3.5 0 1.93-1.57 3.5-3.5 3.5-1.934 0-3.5-1.57-3.5-3.5 0-1.934 1.566-3.5 3.5-3.5zm0 1.5a2 2 0 1 0-.001 3.999A2 2 0 0 0 12 11z"/></svg>