<svg xmlns="http://www.w3.org/2000/svg" width="24" height="24" viewBox="0 0 24 24" version="1.2"><path d="M7 2a3 3 0 0 0-3 3 2.99 2.99 0 0 0 2 2.816V15c0 2.757 2.243 5 5 5h3.184A2.99 2.99 0 0 0 17 22a3 3 0 1 0 0-6 2.99 2.99 0 0 0-2.816 2H11c-1.654 0-3-1.346-3-3v-3.025A4.95 4.95 0 0 0 11 13h3.184A2.99 2.99 0 0 0 17 15a3 3 0 1 0 0-6 2.99 2.99 0 0 0-2.816 2H11c-1.654 0-3-1.346-3-3v-.184A2.99 2.99 0 0 0 10 5a3 3 0 0 0-3-3zm0 2a1.001 1.001 0 0 1 0 2 1.001 1.001 0 0 1 0-2zm10 7a1.001 1.001 0 0 1 0 2 1.001 1.001 0 0 1 0-2zm0 7a1.001 1.001 0 0 1 0 2 1.001 1.001 0 0 1 0-2z"/></svg>