<svg xmlns="http://www.w3.org/2000/svg" width="24" height="24" viewBox="0 0 24 24" version="1.2"><path d="M12 2c-1.654 0-3 1.346-3 3 0 1.302.839 2.4 2 2.814v1.518c0 .827-.673 1.5-1.5 1.5-1.93 0-3.5 1.57-3.5 3.5v1.852A3 3 0 0 0 4 19c0 1.654 1.346 3 3 3s3-1.346 3-3a3 3 0 0 0-2-2.816v-1.852c0-.827.673-1.5 1.5-1.5.979 0 1.864-.406 2.5-1.057a3.5 3.5 0 0 0 2.5 1.057c.827 0 1.5.673 1.5 1.5v1.852A3 3 0 0 0 14 19c0 1.654 1.346 3 3 3s3-1.346 3-3a3 3 0 0 0-2-2.816v-1.852c0-1.93-1.57-3.5-3.5-3.5-.827 0-1.5-.673-1.5-1.5V7.816A3 3 0 0 0 15 5c0-1.654-1.346-3-3-3zm0 2a1.001 1.001 0 0 1 0 2 1.001 1.001 0 0 1 0-2zM7 18a1.001 1.001 0 0 1 0 2 1.001 1.001 0 0 1 0-2zm10 0a1.001 1.001 0 0 1 0 2 1.001 1.001 0 0 1 0-2z"/></svg>