<svg xmlns="http://www.w3.org/2000/svg" width="24" height="24" viewBox="0 0 24 24"><path d="M12 4c-1.381 0-2.63.56-3.535 1.465A5 5 0 0 0 7 9a4.98 4.98 0 0 0 1.465 3.535A4.98 4.98 0 0 0 12 14c1.381 0 2.63-.56 3.535-1.465A5 5 0 0 0 17 9a4.98 4.98 0 0 0-1.465-3.535A4.98 4.98 0 0 0 12 4zm-8 6a2.5 2.5 0 0 0-2.5 2.5A2.494 2.494 0 0 0 4 15c.69 0 1.315-.28 1.768-.732A2.5 2.5 0 0 0 6.5 12.5a2.5 2.5 0 0 0-.732-1.768A2.5 2.5 0 0 0 4 10zm16 0a2.494 2.494 0 0 0-2.5 2.5A2.496 2.496 0 0 0 20 15a2.494 2.494 0 0 0 2.5-2.5c0-.69-.28-1.315-.732-1.768A2.5 2.5 0 0 0 20 10zm-8 5c-2.266 0-3.995.648-5.092 1.564C6.312 16 5.3 15.59 4 15.59c-2.188 0-3.5 1.09-3.5 2.181 0 .545 1.312 1.092 3.5 1.092.604 0 1.146-.05 1.623-.133l-.041.272c0 1 2.407 2 6.418 2 3.762 0 6.418-1 6.418-2l-.022-.256c.463.073.996.117 1.604.117 2.051 0 3.5-.547 3.5-1.092 0-1.092-1.373-2.181-3.5-2.181-1.331 0-2.333.407-2.918.969C15.967 15.642 14.205 15 12 15z"/></svg>