<svg xmlns="http://www.w3.org/2000/svg" width="24" height="24" viewBox="0 0 24 24" version="1.2"><path d="M17.002 4c-.862 0-1.663.381-2.22 1H8C6.346 5 5 6.346 5 8v8c0 1.654 1.346 3 3 3h8c1.654 0 3-1.346 3-3V9.547l.621-1.09c.39-.7.483-1.508.264-2.28a3 3 0 0 0-1.428-1.798A3 3 0 0 0 17.002 4zm.043 2.012a.9.9 0 0 1 .441.115c.232.13.403.343.477.6a1 1 0 0 1-.063.683l-.021.067-4.006 7.01a1.01 1.01 0 0 1-.742.505l-.133.01a1 1 0 0 1-.705-.293l-3-3a1 1 0 0 1 .705-1.707c.267 0 .518.104.707.293l1.125 1.125.922.92.65-1.125 2.725-4.7a1 1 0 0 1 .459-.415c.15-.057.306-.09.459-.088zM8 7h6.69l-2.15 3.713-1.126-1.125A2 2 0 0 0 10 9.002a1.997 1.997 0 0 0-1.414 3.412l3 3c.378.378.888.588 1.414.588l.277-.022a2 2 0 0 0 1.471-1.01L17 11.032V16c0 .551-.448 1-1 1H8c-.552 0-1-.449-1-1V8c0-.551.448-1 1-1z"/></svg>