<svg xmlns="http://www.w3.org/2000/svg" width="24" height="24" viewBox="0 0 24 24" version="1.2"><path d="M12.5 1C8.364 1 5 4.364 5 8.5a7.44 7.44 0 0 0 1.273 4.164l.08.137C8.18 15.407 8.5 16.23 8.5 17v3a1 1 0 0 0 1 1h2c0 .26.11.52.29.71.19.18.45.29.71.29s.52-.11.71-.29c.18-.19.29-.45.29-.71h2a1 1 0 0 0 1-1v-3c0-.782.32-1.61 2.133-4.2A7.45 7.45 0 0 0 20 8.5C20 4.364 16.636 1 12.5 1zm0 2C15.533 3 18 5.467 18 8.5a5.46 5.46 0 0 1-1.006 3.152c-1.466 2.093-2.143 3.29-2.385 4.348H13.5v-2a1 1 0 0 0-2 0v2h-1.113c-.24-1.03-.899-2.2-2.307-4.22l-.076-.13A5.45 5.45 0 0 1 7 8.5C7 5.467 9.467 3 12.5 3zm0 2.5a.5.5 0 0 0 0 1c1.083 0 1.965.882 1.965 1.965a.5.5 0 0 0 1 0A2.97 2.97 0 0 0 12.5 5.5zm-2 12.5h4v1h-4z"/></svg>