<svg xmlns="http://www.w3.org/2000/svg" width="24" height="24" viewBox="0 0 24 24"><path d="M16.03 2.996a2 2 0 0 0-1.423.565c-.196.196-.35.435-.418.628-.653 1.362-1.353 2.215-2.253 2.727l-.217.105C10.75 7.506 9.434 8 7 8q-.398.001-.766.152a2.02 2.02 0 0 0-1.082 1.084 2.02 2.02 0 0 0 0 1.526c.104.249.25.47.436.65l3.234 3.234L5 20l5.352-3.822 3.226 3.226q.28.287.656.442a1.98 1.98 0 0 0 1.532 0 1.96 1.96 0 0 0 1.08-1.078c.103-.242.156-.507.156-.768 0-2.436.493-3.752.977-4.72.496-.993 1.368-1.749 2.753-2.415q.408-.156.711-.457a2.005 2.005 0 0 0-.007-2.822l-3.998-4.02a2 2 0 0 0-1.409-.57zm-.01 1.98 3.923 4.051c-1.863.893-3.057 1.96-3.756 3.36-.818 1.643-1.188 3.37-1.195 5.603L7 10c2.139 0 3.814-.335 5.396-1.084l.235-.105c1.399-.7 2.469-1.893 3.389-3.834z"/></svg>