<svg xmlns="http://www.w3.org/2000/svg" width="24" height="24" viewBox="0 0 24 24"><path d="M12 3c-2.488 0-4.633.884-6.373 2.625C3.884 7.366 3 9.512 3 12c0 2.465.882 4.603 2.623 6.354C7.364 20.11 9.511 21 12 21c2.467 0 4.604-.89 6.355-2.643C20.11 16.604 21 14.465 21 12c0-2.488-.891-4.635-2.646-6.377C16.604 3.882 14.466 3 12 3zm0 2c1.945 0 3.562.668 4.945 2.043C18.328 8.415 19 10.037 19 12c0 1.941-.673 3.56-2.059 4.943C15.561 18.327 13.943 19 12 19c-1.964 0-3.585-.672-4.957-2.055C5.668 15.562 5 13.944 5 12c0-1.966.669-3.589 2.043-4.96C8.413 5.665 10.034 5 12 5zM9 9.5A2.5 2.5 0 0 0 6.5 12c0 1.379 1.121 2.5 2.5 2.5s2.5-1.121 2.5-2.5S10.379 9.5 9 9.5zm6 0a2.5 2.5 0 0 0-2.5 2.5c0 1.379 1.121 2.5 2.5 2.5s2.5-1.121 2.5-2.5-1.121-2.5-2.5-2.5zm-6 1c.827 0 1.5.673 1.5 1.5s-.673 1.5-1.5 1.5-1.5-.673-1.5-1.5.673-1.5 1.5-1.5z"/></svg>