<svg xmlns="http://www.w3.org/2000/svg" width="24" height="24" viewBox="0 0 24 24" version="1.2"><path d="M8.865 2.695c-1.609 0-3.053.61-4.174 1.766C3.586 5.596 3 7.045 3 8.652c0 .832.157 1.619.467 2.348a8 8 0 0 0-.07 1.063c0 2.437.852 4.545 2.53 6.265 1.694 1.732 3.769 2.611 6.165 2.611.254 0 .547-.02.896-.06a5.6 5.6 0 0 0 2.147.426c1.588 0 3.024-.615 4.156-1.778A5.9 5.9 0 0 0 21 15.317q0-1.019-.332-2.005c.059-.426.09-.846.09-1.251 0-2.437-.847-4.543-2.514-6.262-1.685-1.735-3.755-2.615-6.152-2.615q-.42 0-.801.037a5.7 5.7 0 0 0-2.426-.526zm3.164 4.528q.823 0 1.553.213.701.242 1.127.578.395.364.639.728.214.488.214.791a.9.9 0 0 1-.275.67.96.96 0 0 1-.7.307.93.93 0 0 1-.577-.186q-.153-.15-.397-.547a2.1 2.1 0 0 0-.576-.761q-.365-.274-1.127-.274-.76.001-1.156.307-.426.275-.426.639 0 .243.152.394.152.216.397.338.152.09.518.21l.41.106q.319.079.533.108.425.09 1.46.396.609.21 1.155.547.518.364.764.82.242.548.24 1.217a2.76 2.76 0 0 1-.457 1.524q-.425.64-1.34 1.064-.914.365-2.1.365-1.43.001-2.404-.517a3.1 3.1 0 0 1-1.095-1.004q-.427-.67-.428-1.248 0-.365.273-.639a.95.95 0 0 1 .701-.273q.305 0 .61.213.242.244.363.609.032.029.397.7.152.211.546.425.366.182.975.182.822.001 1.37-.364.485-.335.486-.853 0-.427-.274-.639a1.9 1.9 0 0 0-.7-.428l-.318-.074-.457-.123a4 4 0 0 0-.44-.105q-1.034-.212-1.767-.55-.638-.242-1.156-.85-.425-.58-.426-1.37 0-.792.457-1.4.456-.609 1.307-.912.855-.335 1.95-.334z"/></svg>