<svg xmlns="http://www.w3.org/2000/svg" width="24" height="24" viewBox="0 0 24 24"><path d="M12 3c-4.963 0-9 4.037-9 9s4.037 9 9 9 9-4.037 9-9-4.037-9-9-9zm0 2c3.859 0 7 3.141 7 7s-3.141 7-7 7-7-3.141-7-7 3.141-7 7-7zM9.232 7.834a.87.87 0 0 0-.615.232.74.74 0 0 0-.25.569q0 .8.865.799.867 0 .868-.8 0-.799-.868-.8zM14.1 9.967c-.733 0-1.266.278-1.633.834l-.1-.7h-1.4q.031.467.033 1.667V15.3h1.633v-3q0-.3.066-.4.202-.634.834-.633.8 0 .801 1.132v2.9h1.635v-3.066q0-1.1-.52-1.683-.514-.585-1.35-.584zm-5.666.135V15.3h1.6v-5.2z"/></svg>