<svg xmlns="http://www.w3.org/2000/svg" width="24" height="24" viewBox="0 0 24 24" version="1.2"><path d="M8.531 7.818q-1.603 0-2.814 1.188Q4.5 10.19 4.5 12.148q-.002 1.835 1.156 2.934a3.86 3.86 0 0 0 2.756 1.1q1.604 0 2.55-.77l-.53-1.484q-.833.833-1.96.832-.947 0-1.628-.744-.684-.74-.686-1.926-.001-1.484.742-2.164c.497-.455 1.057-.682 1.69-.682.674 0 1.155.178 1.457.531q.443.537.797 1.662l.537 1.721q.949 3.023 4.56 3.024 3.56 0 3.559-2.373.002-1.955-2.254-2.49l-1.119-.235c-.637-.159-.951-.496-.951-1.01q0-.89 1.185-.888 1.305-.001 1.364 1.005l1.716-.177c-.114-1.463-1.108-2.196-2.96-2.196q-3.029 0-3.028 2.496.001 1.774 1.96 2.25l1.187.237c.79.196 1.185.555 1.185 1.068q0 .948-1.842.95c-1.498 0-2.488-.733-2.96-2.196l-.598-1.72q-.529-1.72-1.334-2.401c-.53-.45-1.368-.684-2.52-.684z"/></svg>