<svg xmlns="http://www.w3.org/2000/svg" width="24" height="24" viewBox="0 0 24 24"><path d="M12.97 3a9 9 0 1 0 .002 18.001A9 9 0 0 0 12.971 3zM9.01 5.15h.91l.48 1.76.49-1.76h.91l-.94 2.78V9.9h-.89V7.93zM13 6.3c.55 0 1 .45 1 1V9c0 .55-.45 1-1 1s-1-.45-1-1V7.3c0-.55.45-1 1-1zm2.85.06h.8V9.9h-.8v-.31q-.165.15-.33.24c-.15.08-.29.11-.43.11a.52.52 0 0 1-.41-.17c-.09-.11-.13-.28-.13-.49V6.37h.8v2.68c0 .17.08.17.11.17.12 0 .3-.13.39-.22zm-2.86.59c-.12 0-.25.1-.25.24v1.9c0 .15.07.25.24.26.17 0 .25-.1.26-.26v-1.9c0-.13-.13-.24-.25-.24zm0 4.21s4.31.01 4.83.51c.51.5.52 2.99.52 3.01 0 0 0 2.5-.52 3.01-.51.5-4.83.51-4.83.51s-4.31-.01-4.83-.51c-.51-.5-.51-2.99-.51-3.01 0-.01 0-2.5.51-3.01.51-.5 4.83-.51 4.83-.51zm.27 1.36v4.23h.63v-.24s.21.28.59.28c.33 0 .58-.29.58-.69v-1.73c0-.47-.22-.76-.58-.76s-.59.27-.59.27v-1.36zm-4.78.01v.61h.73v3.61h.7v-3.61h.73v-.61zm7.94 1.04c-.22 0-.45.07-.63.21-.19.15-.31.38-.31.69v1.4c0 .28.09.5.23.66.17.18.4.28.64.29.29.01.6-.11.78-.36.11-.15.18-.35.18-.59v-.16h-.59v.15c0 .24-.13.4-.28.41-.16.01-.32-.12-.32-.41v-.59h1.19v-.8a.9.9 0 0 0-.26-.66.92.92 0 0 0-.63-.24zm-5.4.06v2.61c0 .79.79.58 1.16.17v.34h.62v-3.12h-.62V16h-.01c-.12.14-.53.42-.53.02v-2.39zm3.117.456c.16-.01.273.137.273.324v1.61c0 .23-.16.34-.37.25a.5.5 0 0 1-.15-.11v-1.94c.04-.04.09-.07.13-.1q.06-.031.117-.034zm2.273.014c.19 0 .31.18.31.37v.32h-.6v-.32c0-.17.1-.37.29-.37z"/></svg>