<svg xmlns="http://www.w3.org/2000/svg" width="24" height="24" viewBox="0 0 24 24" version="1.2"><path d="M11.053 3.844C8.09 3.786 5.006 5.463 3.6 8.5c-2.5 5.6 2.1 11.8 8 11.8 4.8 0 8.9-3.9 9.3-8.6.1-.6-.1-1.4-.9-1.4-.6-.1-1.1.4-1.1.9 0 1.4-.5 2.7-1.2 3.8-1.5 2.4-4.4 3.7-7.2 3.2-2.9-.5-5.2-2.9-5.5-5.9-.2-2.7 1.4-5.4 4-6.2 2.8-.9 6 .6 6.7 3.6.6 2.5-1 5.2-3.7 5.4-2.5.1-4.9-2.5-3.4-4.9.7-1.2 2.3-1.7 3.4-.8.7.6 1 2 0 2.4 0 0 .1-.3-.1-1.1-.4-.7-1.7-1-2.3-.1-.9 1.5.5 3.2 2.1 3.2 2.5.3 3.6-3 2.5-4.9-1.5-2.6-5.3-2.5-7-.2-1.8 2.3-1.1 5.6 1.1 7.2 2.4 1.7 5.7 1.3 7.7-.7 2.1-2.1 2.4-5.4.9-7.9-1.312-2.318-3.543-3.412-5.847-3.456z"/></svg>