<svg xmlns="http://www.w3.org/2000/svg" width="24" height="24" viewBox="0 0 24 24"><path d="M11.998 4.033a.5.5 0 0 0-.453.295L9.36 9.158l-5.267.584a.5.5 0 0 0-.42.344.49.49 0 0 0 .139.52c1.565 1.428 3.92 3.57 3.92 3.57-.003 0-.647 3.112-1.075 5.19a.5.5 0 0 0 .196.505c.163.12.374.12.539.027 1.844-1.048 4.605-2.623 4.605-2.623l4.604 2.625c.168.092.378.09.54-.029a.5.5 0 0 0 .196-.506l-1.07-5.19 3.918-3.566a.5.5 0 0 0 .14-.523.5.5 0 0 0-.42-.342c-2.108-.236-5.27-.586-5.27-.586l-2.183-4.83a.5.5 0 0 0-.455-.295z"/></svg>