<svg xmlns="http://www.w3.org/2000/svg" width="24" height="24" viewBox="0 0 24 24"><path d="M12.002 2.027c-.323 0-.647.14-.832.418l-1.234 1.85-1.993-.984a1 1 0 0 0-1.441.832l-.143 2.216-2.218.143a1 1 0 0 0-.832 1.441l.984 1.993-1.85 1.234a.998.998 0 0 0 0 1.662l1.852 1.234-.986 1.993a1 1 0 0 0 .832 1.439l2.218.145.143 2.216a1 1 0 0 0 1.441.832l1.993-.984 1.232 1.85a1.002 1.002 0 0 0 1.664 0l1.232-1.85 1.993.984a1 1 0 0 0 1.44-.832l.144-2.216 2.218-.145a1 1 0 0 0 .832-1.44l-.984-1.992 1.85-1.234a.998.998 0 0 0 0-1.662l-1.85-1.232.984-1.995a.997.997 0 0 0-.832-1.44l-2.218-.144-.145-2.216a.997.997 0 0 0-1.44-.832l-1.99.984-1.234-1.85c-.185-.278-.507-.418-.83-.418zM12 4.803l.889 1.334c.279.418.826.563 1.275.342l1.436-.711.103 1.6c.033.5.435.9.936.933l1.597.101-.709 1.438a1 1 0 0 0 .342 1.275l1.332.889-1.334.889a1 1 0 0 0-.344 1.273l.711 1.436-1.6.103a1 1 0 0 0-.935.934l-.101 1.597-1.436-.709a1 1 0 0 0-1.275.342L12 19.2l-.889-1.332a1 1 0 0 0-1.275-.342l-1.436.71-.103-1.598a1 1 0 0 0-.934-.934L5.768 15.6l.709-1.436a1 1 0 0 0-.342-1.273l-1.332-.889 1.332-.889c.418-.279.564-.825.342-1.275l-.711-1.436 1.6-.103c.501-.033.902-.432.935-.934l.101-1.597 1.436.709c.448.22.996.076 1.275-.342z"/></svg>