<svg xmlns="http://www.w3.org/2000/svg" width="24" height="24" viewBox="0 0 24 24" version="1.2"><path d="M12 3.5c-4.688 0-8.5 3.812-8.5 8.5s3.812 8.5 8.5 8.5 8.5-3.812 8.5-8.5-3.812-8.5-8.5-8.5zm0 1.998a6.5 6.5 0 0 1 2.955.72L13.023 8.15A4 4 0 0 0 12 8c-.355 0-.693.062-1.021.148L9.047 6.217A6.46 6.46 0 0 1 12 5.498zM8.207 6.791l1.775 1.775A4 4 0 0 0 8.568 9.98L6.793 8.205zm7.588.002 1.414 1.414-1.775 1.775a4 4 0 0 0-1.413-1.416zM6.219 9.045l1.931 1.932c-.086.33-.146.667-.146 1.021s.061.69.146 1.022l-1.933 1.933A6.5 6.5 0 0 1 5.5 12c0-1.064.265-2.065.719-2.955zm11.564.002c.455.889.717 1.891.717 2.953a6.5 6.5 0 0 1-.719 2.955l-1.93-1.93A4 4 0 0 0 15.999 12c0-.355-.061-.693-.146-1.021zM12 10a2.002 2.002 0 0 1 1.416 3.412c-.755.757-2.073.758-2.83.002A2 2 0 0 1 12 10zm-3.436 4.02c.17.289.363.563.606.808s.52.439.807.608l-1.772 1.771-1.414-1.414zm6.872.003 1.77 1.772-1.413 1.412-1.773-1.771c.29-.17.566-.366.81-.61.241-.242.437-.518.606-.803zm-4.46 1.827c.333.088.673.148 1.024.148a4 4 0 0 0 1.021-.146l1.932 1.931A6.46 6.46 0 0 1 12 18.5a6.5 6.5 0 0 1-2.955-.719z"/></svg>