<svg xmlns="http://www.w3.org/2000/svg" width="24" height="24" viewBox="0 0 24 24"><path d="M9 2c-1.87 0-3.628.729-4.95 2.05A6.95 6.95 0 0 0 2 8.999c0 1.87.729 3.63 2.05 4.951l3 3q.164.162.35.28l5.188 5.185a2 2 0 0 0 1.414.586c.513 0 1.02-.195 1.412-.586l7-7c.78-.78.78-2.047 0-2.828l-5-5-3.45-3.522A6.97 6.97 0 0 0 9 2zm0 2a4.98 4.98 0 0 1 3.535 1.465L16 9l5 5-7 7-5.498-5.498c-.037.033-3.037-2.967-3.037-2.967A4.998 4.998 0 0 1 9 4zm0 2.498A2.503 2.503 0 0 0 6.5 9 2.5 2.5 0 0 0 9 11.498c1.379 0 2.5-1.121 2.5-2.498A2.503 2.503 0 0 0 9 6.498zm0 1a1.5 1.5 0 1 1 0 3 1.5 1.5 0 0 1 0-3z"/></svg>