<svg xmlns="http://www.w3.org/2000/svg" width="24" height="24" viewBox="0 0 24 24" version="1.2"><path d="M5 2.5A2.5 2.5 0 0 0 2.5 5 2.5 2.5 0 0 0 5 7.5 2.5 2.5 0 0 0 7.5 5 2.5 2.5 0 0 0 5 2.5zm7 0A2.5 2.5 0 0 0 9.5 5 2.5 2.5 0 0 0 12 7.5 2.5 2.5 0 0 0 14.5 5 2.5 2.5 0 0 0 12 2.5zm7 0A2.5 2.5 0 0 0 16.5 5 2.5 2.5 0 0 0 19 7.5 2.5 2.5 0 0 0 21.5 5 2.5 2.5 0 0 0 19 2.5zm-14 7A2.5 2.5 0 0 0 2.5 12 2.5 2.5 0 0 0 5 14.5 2.5 2.5 0 0 0 7.5 12 2.5 2.5 0 0 0 5 9.5zm7 0A2.5 2.5 0 0 0 9.5 12a2.5 2.5 0 0 0 2.5 2.5 2.5 2.5 0 0 0 2.5-2.5A2.5 2.5 0 0 0 12 9.5zm7 0a2.5 2.5 0 0 0-2.5 2.5 2.5 2.5 0 0 0 2.5 2.5 2.5 2.5 0 0 0 2.5-2.5A2.5 2.5 0 0 0 19 9.5zm-14 7A2.5 2.5 0 0 0 2.5 19 2.5 2.5 0 0 0 5 21.5 2.5 2.5 0 0 0 7.5 19 2.5 2.5 0 0 0 5 16.5zm7 0A2.5 2.5 0 0 0 9.5 19a2.5 2.5 0 0 0 2.5 2.5 2.5 2.5 0 0 0 2.5-2.5 2.5 2.5 0 0 0-2.5-2.5zm7 0a2.5 2.5 0 0 0-2.5 2.5 2.5 2.5 0 0 0 2.5 2.5 2.5 2.5 0 0 0 2.5-2.5 2.5 2.5 0 0 0-2.5-2.5z"/></svg>