<svg xmlns="http://www.w3.org/2000/svg" width="24" height="24" viewBox="0 0 24 24"><path d="M9 4c-1.879 0-2.607.294-3.252.553l-.316.123c-.834.305-1.579 1.23-1.739 2.201l-.664 5.97c-.174 1.04.442 2.128 1.4 2.48.395.143 2.513.405 3.883.56a21 21 0 0 0-.31 3.615c0 1.379 1.121 2.5 2.5 2.5s2.5-1.121 2.5-2.5c0-1.875.666-2.737 1.615-3.7a2.99 2.99 0 0 0 2.385 1.2 3.003 3.003 0 0 0 2.998-3v-6A3.005 3.005 0 0 0 17 5c-.755 0-1.438.29-1.965.752l-.187-.193C13.888 4.822 11.182 4 9 4zm.002 2c1.914 0 4.118.753 4.633 1.146.156.12.365.564.365.854v4.977c-.001.026-.04.649-.707 1.316C12.38 15.206 11 16.586 11 19.5c0 .275-.225.5-.5.5a.5.5 0 0 1-.5-.5c0-1.805.256-3.241.479-4.293l.296-1.398-1.32.187c-.605-.05-3.935-.446-4.336-.55-.058-.029-.131-.182-.107-.323l.664-5.975c.037-.223.29-.538.441-.593l.377-.147C7.038 6.19 7.511 6 9.002 6zM17 7a1 1 0 0 1 1 1v6a1 1 0 0 1-2 0V8a1 1 0 0 1 1-1z"/></svg>