<svg xmlns="http://www.w3.org/2000/svg" width="24" height="24" viewBox="0 0 24 24"><path d="M16.002 4.998a3 3 0 0 0-2.623 1.545l-3.07 5.523L9.12 10.88c-1.133-1.133-3.11-1.133-4.242 0A2.98 2.98 0 0 0 4 13c0 .801.312 1.555.879 2.121l4 4a2.98 2.98 0 0 0 2.537.85 3.01 3.01 0 0 0 2.205-1.514l5-9c.39-.701.485-1.51.264-2.281a3.004 3.004 0 0 0-2.883-2.178zm-.088 2.012a.992.992 0 0 1 .959 1.477l-5 9a1 1 0 0 1-1.58.22l-4-4A1 1 0 0 1 6 13c0-.268.104-.518.293-.707A1 1 0 0 1 7 12c.268 0 .517.104.707.293l3.063 3.062 4.357-7.841c.16-.292.465-.473.787-.504z"/></svg>