<svg xmlns="http://www.w3.org/2000/svg" width="24" height="24" viewBox="0 0 24 24" version="1.2"><path d="M11.982 2a1 1 0 0 0-.556.182 1 1 0 0 0-.22.23c-.026.015-7.026 10.016-7.026 10.016A1 1 0 0 0 5 14h.92l-2.701 3.375c-.24.301-.287.712-.121 1.059.167.345.518.566.902.566h7v3a1 1 0 1 0 2 0v-3h7a1 1 0 0 0 .781-1.625L18.081 14H19a.998.998 0 0 0 .818-1.572l-7-10A1 1 0 0 0 11.982 2zM12 4.744 17.08 12H16a1 1 0 0 0-.78 1.625L17.92 17H13v-5a1 1 0 1 0-2 0v5H6.08l2.701-3.375c.24-.301.287-.712.121-1.059A1 1 0 0 0 8 12H6.92z"/></svg>