<svg xmlns="http://www.w3.org/2000/svg" width="24" height="24" viewBox="0 0 24 24"><path d="M13.154 2.615A1.053 1.053 0 0 0 12.072 4l.793 2.379-1.086-1.086a.999.999 0 1 0-1.414 1.414l1.102 1.102a4.5 4.5 0 0 0-1.219.716l-.404-1.513a1 1 0 1 0-1.934.516l.397 1.484-1.662-1.877a1.056 1.056 0 0 0-1.823.486c-.117.57.252 1.13.823 1.246L8.1 9.37l-1.48.397a1 1 0 0 0 .257 1.966l.26-.035 1.508-.402a4 4 0 0 0-.073.705c0 .242.034.475.07.707l-1.507-.404a1 1 0 1 0-.518 1.932l1.483.398-2.455.502c-.216.044-.42.156-.577.334a1.053 1.053 0 1 0 1.576 1.396l1.667-1.877-.399 1.485a1 1 0 0 0 .707 1.224l.26.033a1 1 0 0 0 .965-.74l.406-1.515a4.5 4.5 0 0 0 1.22.716l-1.105 1.102a.999.999 0 1 0 1.414 1.414l.707-.707h.252l-.666 1.998a1.052 1.052 0 0 0 1.332 1.334c.553-.184.852-.781.668-1.334L13.406 18h.252l.707.707a.999.999 0 1 0 1.414-1.414l-1.101-1.104a4.4 4.4 0 0 0 1.218-.716l.407 1.517c.12.447.523.74.965.74l.26-.033a1 1 0 0 0 .706-1.224l-.396-1.48 1.662 1.872a1.05 1.05 0 0 0 1.82-.486 1.054 1.054 0 0 0-.82-1.244l-2.457-.504 1.482-.397a1 1 0 1 0-.517-1.931l-1.508.402c.037-.23.07-.463.07-.705s-.033-.476-.07-.707l1.51.404.26.033a1 1 0 0 0 .257-1.964l-1.482-.399 2.455-.502a1.054 1.054 0 1 0-1-1.73l-1.662 1.873.396-1.479a1 1 0 0 0-.705-1.226 1.005 1.005 0 0 0-1.226.707l-.407 1.515a4.5 4.5 0 0 0-1.218-.716l1.101-1.102a.999.999 0 1 0-1.414-1.414L13.28 6.379 14.072 4a1.053 1.053 0 0 0-.918-1.385zM13.072 9.5c1.38 0 2.5 1.121 2.5 2.5s-1.12 2.5-2.5 2.5a2.5 2.5 0 0 1-2.5-2.5c0-1.379 1.121-2.5 2.5-2.5z"/></svg>