<svg xmlns="http://www.w3.org/2000/svg" viewBox="0 0 1024 1024"><path d="M512.477-2.035c-71.248 0-128.993 57.744-128.993 129.008 0 60.817 42.113 111.665 98.737 125.28-.336.88-.576 1.808-.848 2.72H351.996c-17.665 0-32 14.336-32 32s14.335 32 32 32H479.98v641.584c-164.175-14.784-298.16-142.128-318.816-308.112l86.943 59.12c10.88 7.007 25.665 6.545 32.145-4.64l6.56-7.2c6.48-11.216 2.944-25.903-7.95-32.91l-145.6-98.32c-.193-.145-.306-.322-.48-.417l-9.858-6.336a22.16 22.16 0 0 0-17.408-2.974c-5.744 1.36-10.913 4.991-14.194 10.591l-5.87 10.16c-.113.194-.097.384-.21.592L2.971 731.408c-6.496 11.168-2.944 25.873 7.953 32.897l9.119 3.424c10.88 6.992 24.256.64 30.752-10.543l47.904-88.975c29.376 204.72 205.104 357.822 413.28 357.822 208.062 0 383.92-153.089 413.36-357.713l47.84 88.866c6.497 11.184 19.888 17.535 30.768 10.543l9.12-3.424c10.895-7.024 14.448-21.729 7.952-32.897L938.735 580.11c-.128-.208-.096-.398-.224-.591l-5.871-10.145c-3.28-5.617-8.434-9.232-14.194-10.592-5.696-1.408-11.985-.544-17.408 2.975l-9.84 6.336c-.193.113-.304.288-.496.416l-145.6 98.32c-10.88 7.008-14.417 21.68-7.937 32.912l6.545 7.201c6.48 11.184 21.264 11.646 32.16 4.64l87.041-59.185c-20.608 166-154.737 293.392-318.96 308.176v-641.6h128.048c17.664 0 32-14.335 32-32 0-17.663-14.336-32-32-32h-129.44c-.24-.831-.449-1.662-.769-2.462 57.103-13.28 99.695-64.37 99.695-125.537 0-71.248-57.744-129.008-129.007-129.008zm.021 64c35.84 0 65.01 29.154 65.01 65.01s-29.153 65.007-65.01 65.007c-35.824-.016-64.992-29.167-64.992-65.007s29.152-65.01 64.992-65.01z"/></svg>