<svg xmlns="http://www.w3.org/2000/svg" viewBox="0 0 1024 1024"><path d="M512 0C229.216 0 0 229.216 0 512c0 282.768 229.216 512 512 512 282.768 0 512-229.232 512-512C1024 229.216 794.768 0 512 0zm0 64c247.024 0 448 200.976 448 448S759.024 960 512 960 63.008 759.024 63.008 512 264.976 64 512 64zm-.656 193.36-194 189.007c-6.256 6.256-9.375 14.433-9.375 22.625s3.119 16.367 9.375 22.623c12.496 12.496 32.752 12.496 45.248 0l117.744-117.76V736.32c0 17.68 14.336 32 32 32s32-14.32 32-32V375.855l115.76 115.76c12.496 12.496 32.752 12.496 45.248 0s12.496-32.752 0-45.248z"/></svg>