<svg xmlns="http://www.w3.org/2000/svg" viewBox="0 0 1024 1024"><path d="M512 0C229.216 0 0 229.232 0 512c0 282.784 229.216 512 512 512 282.768 0 512-229.216 512-512C1024 229.232 794.768 0 512 0zm0 63.998c247.024 0 448 200.977 448 448s-200.976 449.01-448 449.01S64 759.024 64 511.998c0-247.024 200.976-448 448-448zm-43.008 245.285c-8.188 0-16.377 3.125-22.625 9.373l-189.008 194 189.008 194c6.256 6.256 14.433 9.375 22.625 9.375s16.367-3.119 22.623-9.375c12.496-12.496 12.496-32.752 0-45.248l-117.76-117.744H736.32c17.68 0 32-14.336 32-32s-14.32-32-32-32H375.855l115.76-115.76c12.496-12.496 12.496-32.752 0-45.248-6.248-6.248-14.435-9.373-22.623-9.373z"/></svg>