<svg xmlns="http://www.w3.org/2000/svg" viewBox="0 0 1024 1024"><path d="M512 0C229.232 0 0 229.232 0 512c0 282.784 229.232 512 512 512 282.784 0 512-229.216 512-512C1024 229.232 794.784 0 512 0zm0 63.998c247.024 0 448 200.977 448 448s-200.976 449.01-448 449.01S64 759.024 64 511.998c0-247.024 200.976-448 448-448zm43 245.27a31.93 31.93 0 0 0-22.633 9.373c-12.496 12.496-12.496 32.752 0 45.248l115.762 115.76h-360.45c-17.68 0-32 14.335-32 32 0 17.663 14.32 32 32 32h362.466l-117.76 117.744c-12.496 12.496-12.496 32.752 0 45.248 6.256 6.256 14.43 9.375 22.623 9.375 8.192 0 16.369-3.12 22.625-9.375l189.008-194-189.008-194A31.93 31.93 0 0 0 555 309.268z"/></svg>