<svg xmlns="http://www.w3.org/2000/svg" viewBox="0 0 1024 1024"><path d="M965.7-.52a59.5 59.5 0 0 0-13.622 2.073L529.04 116.145c-10.752 2.88-34.095 2.847-44.814-.16L72.08 1.774C35.295-8.353-.336 18.177-.336 56.05v778.11c0 32.096 24.335 62.784 55.31 71.408l412.16 114.225c11.026 3.055 25.218 4.752 39.938 4.752 10.095 0 25.008-.785 38.721-4.53l423.021-114.591c31.056-8.4 55.504-39.024 55.504-71.248V56.049c.014-33.11-27.264-57.633-58.619-56.569zm-5.38 66.295v768.4h.016c0 3.153-5.186 8.657-8.258 9.505L544 954.207v-775.92c.592-.144 1.201-.225 1.793-.385zm-896.658.368L467.135 177.68c3.904 1.088 8.287 1.936 12.863 2.656v776.607L71.07 843.887c-3.088-.847-7.408-6.495-7.408-9.711zM164.34 239.36c-14.798-1.04-28.93 8.378-33.117 23.26-4.785 17.008 5.12 34.658 22.16 39.475l223.935 63.023a31.8 31.8 0 0 0 8.688 1.184c13.968 0 26.815-9.214 30.783-23.342 4.784-16.993-5.12-34.659-22.16-39.475l-223.934-63.023a32 32 0 0 0-6.355-1.102zm699.328 0a32 32 0 0 0-6.356 1.102l-223.935 63.023c-17.024 4.816-26.944 22.465-22.16 39.473 3.968 14.128 16.813 23.344 30.781 23.344 2.88 0 5.811-.367 8.691-1.184l223.934-63.023c17.025-4.816 26.945-22.467 22.16-39.475-4.187-14.882-18.318-24.3-33.115-23.26zm-699.326 192c-14.798-1.04-28.931 8.378-33.117 23.26-4.784 17.008 5.12 34.656 22.16 39.473l223.935 63.023a31.8 31.8 0 0 0 8.688 1.186c13.968 0 26.815-9.216 30.783-23.344 4.784-16.993-5.12-34.657-22.16-39.473L170.697 432.46a32 32 0 0 0-6.355-1.1zm699.328 0a32 32 0 0 0-6.356 1.102L633.38 495.486c-17.024 4.816-26.944 22.464-22.16 39.457 3.968 14.127 16.815 23.362 30.783 23.362 2.88 0 5.81-.369 8.69-1.186l223.935-63.023c17.025-4.816 26.943-22.467 22.158-39.475-4.185-14.882-18.317-24.3-33.115-23.26zm-699.326 192c-14.798-1.04-28.931 8.378-33.117 23.26-4.784 17.008 5.12 34.658 22.16 39.475l223.935 63.023a31.8 31.8 0 0 0 8.688 1.184c13.968 0 26.815-9.216 30.783-23.344 4.784-17.008-5.12-34.657-22.16-39.473l-223.934-63.023a32 32 0 0 0-6.355-1.102zm699.328.002a32 32 0 0 0-6.356 1.102l-223.935 63.023c-17.024 4.816-26.944 22.465-22.16 39.473 3.968 14.113 16.815 23.346 30.783 23.346 2.88 0 5.81-.369 8.69-1.186l223.935-63.023c17.025-4.816 26.943-22.467 22.158-39.475-4.187-14.882-18.318-24.3-33.115-23.26z"/></svg>