<svg xmlns="http://www.w3.org/2000/svg" viewBox="0 0 1024 1024"><path d="M415.982 33.473c-52.944 0-96 43.056-96 96v62H64.016c-35.184 0-64 28.816-64 64v224.256h-.034v64h.034v382.816c0 35.184 28.816 64 64 64h896c35.184 0 64-28.816 64-64V255.473c0-35.184-28.816-64-64-64H704.414v-62c0-52.944-43.056-96-96-96zm0 64h192.432c17.664 0 32 14.336 32 32v62H383.982v-62c0-17.664 14.336-32 32-32zm-351.964 158h895.998v224.256H607.648v-32.752c0-35.28-28.72-64-64-64h-63.746c-35.28 0-64 28.72-64 64v32.752H64.018zm415.869 191.504h63.744l.064 161.152h-63.808zM64.016 543.713h351.87v64.398c0 35.281 28.72 64 64 64h63.745c35.28 0 64-28.719 64-64v-64.398h352.367v382.814H64.016z"/></svg>