<svg xmlns="http://www.w3.org/2000/svg" viewBox="0 0 1024 1024"><path d="M512 64.002C229.2 64.002 0 235.936 0 448c0 132.064 78.256 247.152 213.584 316.336 0 .816-.256 1.408-.256 2.32 0 57.376-32.16 120.464-51.008 152.944h.047c-1.488 3.49-2.367 7.313-2.367 11.41 0 16.08 12.96 28.992 29.008 28.992 2.416 0 6.256-.496 7.664-.496.336 0 .528 0 .496.096 100-16.336 209.952-104.688 231.824-131.344 22.48 3.344 37.665 3.84 56.48 3.84 7.937 0 16.496-.096 26.528-.096 282.752 0 512-171.904 512-384 0-212.064-229.248-384.001-512-384zM512 128c247.024 0 448 143.554 448 320.002 0 176.432-200.976 320-448 320l-26.512.096c-17.584 0-29.088-.466-47.072-3.155l-35.855-5.119-23.008 27.84c-10.576 12.784-64.546 57.12-124.114 85.664 12.112-32.032 21.04-67.008 21.84-101.6l.32-1.904V725.2l-34.863-17.806C129.136 649.28 64 554.752 64 448c0-176.448 200.976-320 448-320z"/></svg>