<svg xmlns="http://www.w3.org/2000/svg" viewBox="0 0 1024 1024"><path d="M64-.096c-35.184 0-64 28.816-64 64v896.192c0 35.184 28.816 64 64 64h896c35.184 0 64-28.816 64-64V63.904c0-35.184-28.816-64-64-64zm0 64h896v896.194H64zm256 128.4c-17.664 0-32 14.337-32 32v64h-64c-17.664 0-32 14.337-32 32 0 17.665 14.336 32 32 32h64v64c0 17.665 14.336 32 32 32s32-14.335 32-32v-64h64c17.664 0 32-14.335 32-32 0-17.663-14.336-32-32-32h-64v-64c0-17.663-14.336-32-32-32zm288 96c-17.664 0-32 14.337-32 32 0 17.665 14.336 32 32 32h192c17.664 0 32-14.335 32-32 0-17.663-14.336-32-32-32zM229.486 581.78c-8.19 0-16.38 3.123-22.636 9.371-12.496 12.496-12.496 32.77 0 45.266l67.87 67.871-67.87 67.873c-12.496 12.496-12.496 32.768 0 45.264s32.751 12.497 45.263 0L320 749.568l67.889 67.871c12.496 12.496 32.752 12.496 45.248 0s12.496-32.767 0-45.263l-67.873-67.873 67.873-67.871c12.496-12.511 12.496-32.768 0-45.28-12.496-12.496-32.752-12.498-45.248-.002L320 659.023l-67.887-67.873c-6.248-6.248-14.437-9.37-22.627-9.37zM608 608.305c-17.664 0-32 14.336-32 32s14.336 32 32 32h192c17.664 0 32-14.336 32-32s-14.336-32-32-32zm0 128c-17.664 0-32 14.336-32 32s14.336 32 32 32h192c17.664 0 32-14.336 32-32s-14.336-32-32-32z"/></svg>