<svg xmlns="http://www.w3.org/2000/svg" viewBox="0 0 1024 1024"><path d="M512 0C229.216 0 0 229.216 0 512s229.216 512 512 512 512-229.216 512-512S794.784 0 512 0zm0 64c247.024 0 448 200.976 448 448 0 66.32-14.594 129.264-40.56 185.936L636.222 546.383c3.025-10.976 4.785-22.465 4.785-34.385 0-71.248-57.746-129.008-129.01-129.008-14.624 0-28.623 2.545-41.71 7.026L300.671 117.104C363.664 83.264 435.616 64 512 64zm-265.426 87.373 170.178 273.84c-.752.832-1.535 1.649-2.287 2.514L131.297 276.205c30.208-48.577 69.39-90.976 115.277-124.832zm-145.07 181.455 284.367 152.16c-1.857 8.72-2.88 17.728-2.88 27.008 0 71.248 57.743 129.01 129.007 129.01 12.4 0 24.354-1.842 35.697-5.106l170.192 273.793c-61.68 32.048-131.665 50.303-205.889 50.303-247.024 0-448-200.976-448-448H64c0-63.68 13.44-124.256 37.504-179.168zm410.494 114.178c35.84 0 65.01 29.15 65.01 65.008s-29.17 64.992-65.01 64.992-64.99-29.168-64.99-65.008 29.15-64.992 64.99-64.992zm92.4 154.928 284.29 152.144a452.1 452.1 0 0 1-116.24 122.08v-.002L602.942 603.471c.496-.496.96-1.025 1.455-1.537z"/></svg>