<svg xmlns="http://www.w3.org/2000/svg" viewBox="0 0 1024 1024"><path d="M513.938-.152c-24.883-.008-49.77 9.047-67.907 27.191L28.814 427.295c-9.024 8.4-28.878 31.09-28.878 53.346v479.52c0 35.183 28.816 64 64 64h896c35.183 0 64-28.817 64-64V481.903c.222-2.88-.066-5.76-.625-8.607-1.36-11.312-5.615-21.715-12.096-30.467h.16l-.88-.879c-3.28-4.32-7.12-8.128-11.407-11.504L581.807 27.04C563.695 8.928 538.82-.144 513.937-.152zm-.034 63.06c8.56 0 16.593 3.345 22.657 9.377l361.375 344.352h-.975l54.896 55.793-242.304 215.039-135.248-121.664c-37.68-29.536-91.775-30.815-131.68 1.377L317.121 682.766 75.331 469.422l26.991-26.594h1.455L491.28 72.285c6.064-6.032 14.097-9.377 22.625-9.377zM63.938 544.718l205.857 181.618L63.937 915.902zm896 6.143v361.84L757.457 730.56zm-450.993 56.194c9.184 0 18.368 3.216 24.528 8l383.6 345.103H110.337l225.23-207.44c2.288-1.52 4.466-3.247 6.371-5.407.367-.416.622-.912.96-1.344l141.167-130c7.248-5.84 15.84-8.912 24.88-8.912z"/></svg>