<svg xmlns="http://www.w3.org/2000/svg" viewBox="0 0 1024 1024"><path d="M112.006 160c-38.08 0-79.106 14-99.281 41.473-1.745 1.328-3.41 2.832-4.912 4.576-6.45 7.44-8.705 17.007-7.264 26.031-.288 2.592-.543 5.202-.543 7.922v512c0 53.024 58.992 112 112 112h832c53.024 0 80-58.976 80-112v-512c0-2.832-.37-5.314-.545-8.002a31.63 31.63 0 0 0-2.48-18.271C1012.918 178.288 987.3 160 944.006 160zm831.996 63.998h.432L512.002 568.654 81.314 225.406C91.106 223.598 103.154 224 112 224h.002zM64.004 293.551l427.039 341.648c6.016 5.2 13.487 7.791 20.959 7.791a32.05 32.05 0 0 0 20.977-7.79l427.023-341.634v458.432c0 17.664 1.664 48-16 48H112.004c-17.648 0-48-30.336-48-48z"/></svg>