<svg xmlns="http://www.w3.org/2000/svg" viewBox="0 0 1024 1024"><path d="M581.76 16.494c-23.008 0-67.97 3.81-110.563 29.475-40.32 24.256-88.367 73.934-88.367 172.687v85.184h-63.713c-17.008 0-33.312 6.783-45.344 18.816a64 64 0 0 0-18.654 45.408l.256 95.872c.128 35.248 28.752 63.777 64 63.777h63.408l.065 415.775c0 35.344 28.657 64 64 64h95.904c35.343 0 64-28.656 64-64V527.713h75.6c28.4 0 53.408-18.722 61.408-45.969l22.558-95.873c5.68-19.343 1.904-40.254-10.191-56.367a63.91 63.91 0 0 0-51.217-25.664h-97.633v-63.152l63.633-.032c35.216 0 63.84-28.465 64-63.713l.432-92.752a64 64 0 0 0 .096-3.535c0-35.344-28.591-64-63.934-64h-81.938c-1.84-.096-4.495-.16-7.806-.162zm0 64v.002c3.808 0 6 .16 6 .16h83.566l-.43 96H587.89c-45.68 0-44.625 39.006-44.625 39.006v152.193h161.632l-22.56 95.872h-139.6v479.777h-95.904l-.064-479.777h-127.41l-.255-95.872h127.712V218.672C446.83 88.592 554.864 80.494 581.76 80.494z"/></svg>