<svg xmlns="http://www.w3.org/2000/svg" viewBox="0 0 1024 1024"><path d="M102.158 2.623c-18.112 0-32.77 14.657-32.77 32.77S84.047 68.16 102.16 68.16c470.175 0 852.67 382.497 852.67 852.656 0 18.096 14.657 32.752 32.77 32.752s32.767-14.656 32.767-32.752C1020.351 414.53 608.447 2.623 102.16 2.623zm-.287 327.633c-18.128 0-32.767 14.656-32.767 32.77 0 18.094 14.64 32.767 32.767 32.767 303.008 0 525.344 224.368 525.344 527.36 0 18.095 14.656 32.751 32.77 32.751 18.112 0 32.767-14.656 32.767-32.752 0-340.367-250.53-592.896-590.88-592.896zM184.016 659.6c-99.472 0-180.37 81.12-180.37 180.879 0 99.711 80.912 180.912 180.368 180.912s180.4-81.186 180.4-180.912c0-99.76-80.927-180.88-180.398-180.88zm-.002 63.326c64.624 0 117.216 52.719 117.216 117.535s-52.592 117.568-117.216 117.568c-64.608 0-117.168-52.752-117.168-117.568s52.56-117.535 117.168-117.535z"/></svg>