<svg xmlns="http://www.w3.org/2000/svg" viewBox="0 0 1024 1024"><path d="M64 15.904c-35.184 0-64 28.816-64 64v864.192c0 35.184 28.816 64 64 64h896c35.184 0 64-28.816 64-64V79.904c0-35.184-28.816-64-64-64zm0 64h896v864.194H64zm96 96.383c-17.664 0-32 14.336-32 32v32c0 17.664 14.336 32 32 32h64c17.664 0 32-14.336 32-32v-32c0-17.664-14.336-32-32-32zm640 0c-17.664 0-32 14.336-32 32v32c0 17.664 14.336 32 32 32h64c17.664 0 32-14.336 32-32v-32c0-17.664-14.336-32-32-32zm-640 192c-17.664 0-32 14.336-32 32v32c0 17.664 14.336 32 32 32h64c17.664 0 32-14.336 32-32v-32c0-17.664-14.336-32-32-32zm640 0c-17.664 0-32 14.336-32 32v32c0 17.664 14.336 32 32 32h64c17.664 0 32-14.336 32-32v-32c0-17.664-14.336-32-32-32zm-640 192c-17.664 0-32 14.336-32 32v32c0 17.664 14.336 32 32 32h64c17.664 0 32-14.336 32-32v-32c0-17.664-14.336-32-32-32zm640 0c-17.664 0-32 14.336-32 32v32c0 17.664 14.336 32 32 32h64c17.664 0 32-14.336 32-32v-32c0-17.664-14.336-32-32-32zm-640 192c-17.664 0-32 14.336-32 32v32c0 17.664 14.336 32 32 32h64c17.664 0 32-14.336 32-32v-32c0-17.664-14.336-32-32-32zm640 0c-17.664 0-32 14.336-32 32v32c0 17.664 14.336 32 32 32h64c17.664 0 32-14.336 32-32v-32c0-17.664-14.336-32-32-32z"/></svg>