<svg xmlns="http://www.w3.org/2000/svg" viewBox="0 0 1024 1024"><path d="M584.23.732a32 32 0 0 0-8.15 1.237c-8.385 2.4-204.033 61.871-250.37 310.447-16.88 90.56-6.512 178.817 7.024 237.473-20-13.568-37.774-33.105-55.31-60.754-26.096-41.088-45.873-115.088-46.065-115.84a32.05 32.05 0 0 0-26.88-23.566c-13.056-1.441-25.568 4.719-31.936 16.062-3.12 5.52-76.496 137.345-76.496 259.713 0 230.497 171.121 397.775 412.369 397.775h.002c243.104 0 419.535-167.28 419.535-397.76 0-95.312-13.28-145.01-59.28-221.681-50.944-84.911-41.872-144.783-41.536-146.943a32.06 32.06 0 0 0-11.68-31.008c-9.376-7.344-22.033-8.976-32.88-4.032-2.753 1.217-67.792 31.248-92.944 119.217-6.336 22.192-10.463 45.057-13.12 66.56-9.343-15.663-18.032-31.313-24.255-44.784C583.698 214.56 616 40.528 616.32 38.783c2.128-10.913-1.614-22.16-9.806-29.664C600.358 3.516 592.382.56 584.23.732zm-35.945 84.516c-5.312 70.128-6.191 191.873 45.904 304.465 25.088 54.272 82 134.832 84.4 138.24 8.289 11.727 23.313 16.446 36.817 11.662s22.192-17.983 21.248-32.256c-.065-.816-4.976-80.56 14.528-148.754 4.304-15.088 10.191-27.615 16.527-37.87 6.288 31.743 19.44 71.631 46.064 116 39.84 66.431 50.16 105.215 50.16 188.751 0 193.408-149.535 333.776-355.535 333.776-204.175 0-348.369-140.368-348.369-333.776 0-54.56 18.098-113.502 35.666-157.806 7.887 19.376 17.23 39.295 27.647 55.76 58.304 91.886 148.369 115.312 152.336 116.287 11.632 2.785 23.697-1.152 31.537-10.032 7.808-8.928 10.062-21.504 5.806-32.591-.528-1.343-49.712-137.136-24.4-272.944 26-139.568 106.944-208.192 159.664-238.912z"/></svg>