<svg xmlns="http://www.w3.org/2000/svg" viewBox="0 0 1024 1024"><path d="M274.688-.672C144-.672 64 98.016 64 98.016v894.656c0 17.665 14.336 32 32 32s32-14.335 32-32V584.8c33.76-21.776 80.336-41.473 138.688-41.473 202.655 0 261.312 96 421.312 96s272-96 272-96v-544s-120 96-280 96-202.656-96-405.312-96zm.001 64c94.112 0 147.088 22.85 203.184 47.01 55.872 24.08 113.665 48.99 202.129 48.99 85.248 0 160.128-23.566 216-48.91v400.303c-36.16 23.584-112.784 64.605-208 64.605-62.912 0-105.84-17.263-160.225-39.135-66.272-26.64-141.408-56.865-261.088-56.865-54.687 0-101.071 13.76-138.687 32.16V124.018c24.096-21.92 76.624-60.69 146.687-60.69z"/></svg>