<svg xmlns="http://www.w3.org/2000/svg" viewBox="0 0 1024 1024"><path d="M514.914-.863c-98.288 0-166.305 56.703-208.96 99.36l-206.85 207.07C-11.582 416.368-29.26 529.17 41.842 671.377c11.025 22.08 22.369 46.334 34.369 72.031 64.704 138.384 131.583 281.489 241.055 281.489 3.072 0 6.112-.096 9.216-.336 112.976-8.848 145.024-154.288 173.313-282.592 4.496-20.32 8.75-39.81 13.12-57.282 7.6-30.208 22.559-48.976 63.55-90.064l5.633-5.662 3.47-3.473 9.121-9.088c41.088-41.088 59.856-56.032 90.096-63.664 17.311-4.35 36.752-8.64 57.024-13.088 128.223-28.303 273.6-60.367 282.4-173.52 8.879-114.832-138.464-183.84-280.992-250.575-25.6-12.016-49.806-23.329-71.838-34.385C614.915 12.88 563.714-.863 514.914-.863zm-1.488 62.972c37.808 0 79.633 11.056 127.873 35.248 127.456 63.905 323.888 136.481 317.168 222.979-6.224 79.776-184.815 103.322-291.104 129.978-47.008 11.872-75.615 36.754-118.783 79.938-3.008 3.007-6.032 6.013-9.088 9.068-3.024 3.025-6.031 6.097-9.056 9.09-43.168 43.215-68 71.808-79.825 118.881-26.672 106.384-50.192 285.167-129.87 291.44a56 56 0 0 1-4.321.144c-84.544 0-155.68-192.24-218.447-317.664-63.744-127.504-36.434-210.224 45.359-292.096 15.696-15.727 35.215-35.246 59.135-59.181a288648 288648 0 0 1 87.92-88c23.904-23.936 43.407-43.426 59.119-59.186 50.8-50.848 101.936-80.639 163.92-80.639zm-34.639 129.166v64h64v-64zm96 0v64h64v-64zm-96 96v64h64v-64zm96 0v64h64v-64zm-334.422 179.37c-7.86 0-15.72 3-21.72 9-12 12-12 31.455 0 43.455l24.351 24.351-24.351 24.352c-12 11.985-12 31.44 0 43.44s31.457 12 43.44 0l24.353-24.335 25.054 25.055c12 12 31.442 12 43.442 0s12-31.47 0-43.47l-25.041-25.057 24.336-24.336c12-12 12-31.471 0-43.455-12-12-31.44-12-43.44 0l-24.351 24.351-24.352-24.351c-6-6-13.86-9-21.72-9z"/></svg>