<svg xmlns="http://www.w3.org/2000/svg" viewBox="0 0 1024 1024"><path d="M205.6-.002c-9.8-.4-18.6 4.2-24 12.2-25.8 38.6-33.6 110.6-19.6 163.8-62.56 73.086-58.826 233.463-29.982 325.59.492 2.11 1.16 4.2 2.18 6.21 38.8 75.6 120.598 129 232.798 152.4-8.446 20.931-15.727 48.746-23.361 82.517-72.784 13.813-112.05 13.882-130.44-16.518-4.6-7.6-8-16.599-11.6-26.199-5.6-14.8-11.999-31.6-24.199-46.6-9.6-11.8-26.8-13.4-38.4-3.8s-13.4 26.8-3.8 38.4c6.6 8 10.6 18.8 15.4 31.2 4.2 11 8.8 23.2 16 35.2 36.4 60.2 105.201 56.8 168.601 45.8.2 11.4.799 23.2 1.399 34.8 1.4 27.4 3 61.6-3.2 74.8-1.2 2.8-3.4 4.4-10.6 8.6-10.6 6.2-28.4 16.8-33.4 42.2-3 14.8 6.8 28.6 21.6 31.6 1.8.4 3.4.6 5.2.6 13 0 24.4-9.402 26.2-22.802.8-1 4.8-3.199 7.4-4.799 9.4-5.4 23.6-13.8 32.4-32.4 12.2-25.8 10.4-62.2 8.4-100.8-.823-18.106-1.677-36.578-.875-52.311a27.2 27.2 0 0 0 3.476-8.487l1.801-8c16.2-74.2 26.8-96.001 32.6-101.2 9-6.601 13-18 10.2-28.8-2.8-10.599-11.8-18.599-22.8-20.199-113.34-15.6-195.01-60.871-230.752-127.65-28.962-92.285-22.63-239.732 26.555-281.55 8.8-7.4 12-20 7.6-30.8C205.8 141.4 207.4 88 220 55.8c50.6 6.2 85.199 29.4 121.799 53.598l6.799 4.6c6.8 4.6 15 5.802 22.6 3.602 58-16.6 114-22.402 181.4-18.602 12.2.8 26 4 39.2 7 19 4.6 37 8.6 54.4 7 21.6-2 41-15.199 58-26.799 8.6-6 16.8-11.4 23.4-14.4 20.21-8.93 38.023-13.603 60.193-15.822 10.322 32.884 14.755 76.479 4.002 107.226-3.8 10.6-.599 22.4 8 29.8 52.277 44.555 72.91 180.23 44.004 285.99-39.353 75.54-119.823 123.267-221.604 130.806-9 .6-17 5.6-21.6 13.4-4.4 7.8-5 17.2-1.2 25.4 5.8 12.402 13.2 21.802 19.6 30.202 10 12.8 17.2 22 20 42.6 3.2 24.4 1.6 55.4.001 85.4-2.6 48.8-5.2 95 11 126.8 9 17.4 21 25.8 29.8 32 5.6 3.8 8.8 6 11 9.6 5.4 8 14 12.397 23 12.397h.003c5.2 0 10.4-1.4 15-4.6 12.599-8.2 16.198-25.202 7.998-37.8-8.2-12.6-18.202-19.598-25.602-24.598-6.8-4.8-9.799-7.001-12.199-11.801-9.4-18.8-7.201-61.4-5.201-99 1.8-32.4 3.6-66-.4-95.4-3.4-25.8-12.2-42.6-21.2-55.8 100.12-18.947 179.34-74.107 221.034-155.93.942-1.715 1.78-3.511 2.367-5.466 30.6-107.6 17.8-261.2-47.4-333.2 11-49.799 0-109.6-16.8-147.6-3.039-6.991-8.705-12.007-15.341-14.499a27.8 27.8 0 0 0-10.854-1.906c-38.8 1.4-67.6 7.8-99.6 21.8-11.2 5-22 12.2-32.2 19.2-11 7.6-24.6 16.802-32.2 17.602-8.4.8-22.8-2.601-36.8-5.801-14.8-3.4-31.6-7.201-48.6-8.201-69-3.8-127.2 1.602-187 17.2-42-28-89.8-58.599-163.2-61.8zm273.994 645.404c-15-.6-27.801 11.4-28.201 26.4-3.8 113.4-12 242.2-19.6 264-20.4 31.6-30 38.002-30.4 38.202-12.6 8.2-16.4 25.199-8.2 37.799 5.2 8.2 14 12.6 23 12.6 5 0 10.2-1.4 14.6-4.4 5-3.2 20-13 47.8-56 12.6-19.4 21.8-117.2 27.4-290.4.6-15-11.4-27.8-26.4-28.2zm80.4 0c-15 .401-26.798 13.202-26.398 28.202 5.599 173.2 14.798 270.8 27.398 290.4 27.8 43.2 42.8 52.8 47.8 56 4.6 3 9.8 4.398 14.8 4.398 9 0 17.8-4.4 22.8-12.6 8.2-12.8 4.401-29.598-8.199-37.798-.4-.2-10-6.601-30.4-38.201-7.6-22-16-150.6-19.6-264-.4-15-13.2-26.802-28.2-26.4z"/></svg>