<svg xmlns="http://www.w3.org/2000/svg" viewBox="0 0 1024 1024"><path d="M944 224c-44.192 0-79.998 35.824-79.998 80 0 9.072 1.838 17.632 4.605 25.76L673.6 497.68C659.92 486.784 642.848 480 624 480c-21.743 0-41.408 8.736-55.809 22.816l-152.752-76.48C412.464 384.848 378.241 352 336 352c-44.175 0-80 35.824-80 80 0 12.096 2.88 23.44 7.68 33.713L107.936 645.297C99.2 642.033 89.872 640 80 640c-44.176 0-80 35.824-80 80s35.824 80 80 80 80-35.824 80-80c0-10.64-2.175-20.768-5.951-30.049l158.271-181.92C319.856 510.367 327.696 512 336 512c23.28 0 44.048-10.112 58.672-26l149.406 74.912C544.608 604.656 580.127 640 624 640c44.193 0 80-35.824 80-80 0-1.424-.336-2.752-.416-4.16L911.68 377.072C921.584 381.456 932.463 384 944 384c44.193 0 80-35.808 80-80 0-44.176-35.806-80-79.998-80z"/></svg>