<svg xmlns="http://www.w3.org/2000/svg" viewBox="0 0 1024 1024"><path d="M515.664-.367C305.76-.367 128 178.4 128 390.176c0 221.76 206.031 448.543 344.623 607.935.528.64 22.93 25.522 50.53 25.522h2.449c27.6 0 49.839-24.882 50.398-25.522 130.064-149.52 320-396.047 320-607.935C896 178.4 757.344-.367 515.664-.367zm0 63.982c218.528 0 316.336 164 316.336 326.56 0 143.185-102.128 333.297-303.504 565.009-1.12 1.12-2.753 2.37-4.193 3.41-1.472-1.008-3.071-2.288-4.254-3.408l-16.738-19.249C371.92 785.202 192 578.786 192 390.177c0-177.008 148.224-326.56 323.664-326.56zm-2.545 129.793c-106.032 0-192 85.968-192 192s85.968 192 192 192 192-85.968 192-192-85.968-192-192-192zM511.646 256c70.624 0 128 57.424 128 128 .032 70.592-55.903 129.408-126.527 129.408-70.576 0-129.473-58.816-129.473-129.408 0-70.576 57.425-128 128-128z"/></svg>