<svg xmlns="http://www.w3.org/2000/svg" viewBox="0 0 1024 1024"><path d="M580.309.137a31.4 31.4 0 0 0-16.454 3.496c-10.369 5.312-17.026 15.872-17.41 27.504l-5.535 185.935-146.496 114.592c-9.183 7.184-13.711 18.816-11.871 30.32s9.806 21.088 20.814 25.024l137.457 49.28c-.928.735-1.903 1.393-2.767 2.257L7.295 969.297c-12.496 12.496-12.496 32.752 0 45.248 6.256 6.256 14.431 9.377 22.623 9.377s16.369-3.121 22.625-9.377l530.752-530.752c2.065-2.064 3.663-4.4 5.039-6.816l53.793 147.552a32.06 32.06 0 0 0 25.15 20.657 32 32 0 0 0 4.912.367 32.04 32.04 0 0 0 25.311-12.434l113.775-147.168 183.905-6.558c11.664-.4 22.16-7.12 27.44-17.536 5.263-10.384 4.448-22.848-2.112-32.48h.002l-102.783-153.68 51.152-178.814c3.184-11.216.063-23.28-8.225-31.504-8.256-8.256-20.255-11.311-31.535-8.031l-178.512 52.127L596.318 5.57a32.2 32.2 0 0 0-16.01-5.433zm28.396 90.922 118.592 79.873a32.2 32.2 0 0 0 26.85 4.19l137.248-40.095-39.344 137.471a32.18 32.18 0 0 0 4.336 26.85l80.558 118.127-142.896 5.072c-9.504.32-18.368 4.881-24.192 12.4l-87.472 113.104-48.977-134.32c-3.248-8.945-10.32-15.937-19.28-19.153l-134.59-48.256L592.16 258.26c7.504-5.872 11.97-14.752 12.29-24.256z"/></svg>