<svg xmlns="http://www.w3.org/2000/svg" viewBox="0 0 1024 1024"><path d="M396.59-.002c-220.912 0-400 179.088-400 400s179.088 400 400 400c100.368 0 192.049-37.055 262.289-98.143l310.494 312.448c12.496 12.497 32.77 12.497 45.266 0 12.48-12.496 12.48-32.753 0-45.264h.002L703.71 656.207c57.952-69.408 92.879-158.705 92.879-256.209 0-220.912-179.088-400-400-400zm0 63.473c185.856 0 336.527 150.671 336.527 336.527s-150.671 336.53-336.527 336.53S60.063 585.853 60.063 399.997 210.734 63.471 396.59 63.471z"/></svg>