<svg xmlns="http://www.w3.org/2000/svg" viewBox="0 0 1024 1024"><path d="M58.2 119c-12.6 0-23 4-31.2 12.2s-12.2 18.6-12.2 31.2 4 23 12.2 31.2 18.6 12.2 31.2 12.2h912.4c12.6 0 23-4 31.2-12.2s12.2-18.6 12.2-31.2-4-23-12.2-31.2-18.6-12.2-31.2-12.2zm0 347.6c-12.6 0-23 4-31.2 12.2S14.8 497.4 14.8 510s4 23 12.2 31.2 18.6 12.2 31.2 12.2h912.4c12.6 0 23-4 31.2-12.2s12.2-18.6 12.2-31.2-4-23-12.2-31.2-18.6-12.2-31.2-12.2zm0 347.4c-12.6 0-23 4-31.2 12.2s-12.2 18.6-12.2 31.2 4 23 12.2 31.2 18.6 12.2 31.2 12.2h912.4c12.6 0 23-4 31.2-12.2s12.2-18.6 12.2-31.2-4-23-12.2-31.2c-8.2-8-18.6-12.2-31.2-12.2z"/></svg>