<svg xmlns="http://www.w3.org/2000/svg" viewBox="0 0 1024 1024"><path d="M390.53 287.266c-63.842.496-102.514 43.744-136.69 81.904-24.975 27.936-48.574 69.31-81.71 84.062-19.327 8.61-38.463 12.946-56.831 12.946-36.481 0-58.435-16.88-59.059-17.344-8.592-7.088-20.127-9.153-30.607-5.377C15.217 447.185 7.457 456.146 5.2 467.09c-18.624 90.448 10.752 150.784 38.672 185.473 41.648 51.743 111.584 83.873 182.576 83.873 95.568 0 149.68-42.226 193.153-76.16l3.087-2.368c16.928-13.216 31.904-26.097 45.04-37.377 14.48-12.432 32.496-27.936 37.568-30 .304-.033 3.28-.622 4.447-.718.223.032 3.713.19 3.936.19 7.344 2.56 28.431 21.056 45.343 35.903 11.153 9.76 23.407 20.513 36.88 31.666 38.08 31.52 95.6 79.149 196.945 79.149 71.697 0 142.832-32.561 185.6-84.961 28.223-34.56 58.273-94.527 41.185-183.967-2.032-10.784-9.568-19.664-19.711-23.664-10.161-3.968-21.714-2.271-30.48 4.225-.946.752-24.578 18.062-62.45 18.062-18.816 0-38.16-4.351-57.488-12.943-33.136-14.752-57.168-56.095-82.608-83.967-34.846-38.224-74.336-81.504-139.439-82-42.913 0-82.369 16.19-117.68 48.256-35.456-32.208-75.2-48.496-119.248-48.496zm1.29 64.033c45.424 0 75.311 29.183 93.84 51.119 6 7.12 14.8 11.248 24.08 11.248s18.065-4.097 24.098-11.217c18.463-21.856 48.256-50.912 94.416-50.912 34.608.288 57.553 23.505 92.082 61.377 27.376 30.032 58.432 79.057 103.68 99.152 27.408 12.176 55.31 18.368 82.974 18.368 21.04 0 39.297-3.503 54.32-8.192-.67 34.064-11.28 63.808-31.68 88.783-31.04 38.048-83.471 61.68-136.782 61.68-78.72 0-122.033-35.838-156.817-64.654-12.976-10.752-24.766-21.088-35.47-30.496-32.592-28.56-54.064-47.41-77.217-50.69-.288-.064-2.96-.4-3.295-.431 0-.033-4.658-.37-4.69-.37-.944-.095-3.635-.189-4.627-.189-6.705 0-16.385 1.631-16.4 1.615-20.32 3.6-39.136 19.792-67.648 44.29-12.448 10.687-26.64 22.912-42.688 35.44l-3.088 2.417c-39.568 30.88-80.465 62.814-154.465 62.814-52.399 0-103.501-23.103-133.437-60.256-20.224-25.12-30.368-55.313-30.336-90.033 14.56 4.624 32.225 8.033 52.625 8.033 27.2 0 54.91-6.176 82.303-18.367 45.535-20.209 76.174-69.457 103.23-99.68 33.584-37.569 55.904-60.592 90.992-60.85z"/></svg>