<svg xmlns="http://www.w3.org/2000/svg" viewBox="0 0 1024 1024"><path d="M64 79.904c-35.184 0-64 28.816-64 64v736.192c0 35.184 28.816 64 64 64h896c35.184 0 64-28.816 64-64V143.904c0-35.184-28.816-64-64-64zm.002 64h896v585.889L771.97 537.377c-11.408-11.248-29.28-12.402-41.938-2.754l-120.56 105.025-264.944-262.08a32.1 32.1 0 0 0-22.687-11.6c-8.816-.32-17.505 2.56-23.969 8.624l-233.871 227.6zm672 128.559c-35.28 0-63.84 28.608-63.84 63.824 0 35.233 28.56 63.842 63.84 63.842s63.84-28.61 63.84-63.842c0-35.217-28.56-63.824-63.84-63.824zM320.85 442.623 585.633 707.12c10.912 13.248 30.337 11.57 44.129 1.121L746.64 602.432l210.8 216.384c.8.8 1.696 1.391 2.56 2.08v59.2l-.001.002-895.998-.002v-188.56z"/></svg>