<svg xmlns="http://www.w3.org/2000/svg" viewBox="0 0 1024 1024"><path d="M191.984.48v254.448H71.266c-39.312 0-71.313 32-71.313 71.343v433.89c0 39.343 32 71.343 71.31 71.343h120.721v192.015h640.032V831.505h120.72c39.313 0 71.313-32 71.313-71.344v-433.89c0-39.343-32-71.343-71.313-71.343H832.018V.48zm64 63.006h512.034v191.442H255.984zM71.266 318.926h881.47c4.033 0 7.315 3.28 7.315 7.345v433.887c0 4.08-3.282 7.346-7.315 7.346H832.018V543.119H191.984v224.367H71.266c-4.032 0-7.313-3.263-7.313-7.343V326.27c0-4.064 3.28-7.345 7.313-7.345zm728.736 64.513c-17.664 0-32 14.336-32 32s14.336 32 32 32h32c17.664 0 32-14.336 32-32s-14.336-32-32-32zM255.986 607.12h512.032v352.4H255.986z"/></svg>