<svg xmlns="http://www.w3.org/2000/svg" viewBox="0 0 1024 1024"><path d="M681.209 1.678c-4.448-.354-9.015.517-13.13 2.767l-148.817 76.21c-.176.111-.383.078-.576.206l-9.967 5.473c-5.537 3.04-9.17 7.968-10.625 13.504-1.52 5.52-.815 11.647 2.465 16.975l5.92 9.712c.096.192.27.304.382.496l91.92 143.649c6.512 10.736 20.69 14.529 31.713 8.514l7.217-5.026c11.008-6 11.726-21.536 5.23-32.24l-59.2-91.855c13.007 2 25.968 4.415 38.624 7.76 103.232 27.04 187.394 96.864 236.4 191.568 46.32 89.519 55.023 191.693 24.48 287.726-30.512 96.047-96.656 174.449-186.175 220.817-15.233 7.887-21.167 26.608-13.279 41.87 5.519 10.64 16.336 16.768 27.6 16.768 4.8 0 9.663-1.12 14.271-3.488 104.272-53.936 181.249-145.28 216.817-257.12 35.535-111.903 25.392-230.929-28.575-335.152C856.848 210.51 758.318 129.184 638.143 97.696c-8.56-2.24-17.312-3.985-26.05-5.713l79.825-40.478c11.008-6.033 17.567-19.632 11.039-30.37l-3.152-8.16c-4.1-6.71-11.182-10.707-18.596-11.296zM313.355 112.602A30.9 30.9 0 0 0 301.504 116c-104.272 53.952-184.402 145.28-219.97 257.152C45.98 485.008 56.11 604.032 110.077 708.29c57.136 110.336 158.832 191.665 279.024 223.137 1.36.352 2.784.56 4.16.912l-81.31 41.232c-11.009 6.032-14.659 19.632-8.13 30.352l3.153 8.176c6.56 10.72 17.84 14.526 28.814 8.511l148.833-76.21c.193-.128.385-.096.578-.224l9.985-5.455c5.52-3.024 9.169-7.97 10.625-13.506 1.52-5.52.813-11.662-2.45-16.99l-5.95-9.664c-.08-.193-.273-.325-.386-.485l-91.92-143.664c-6.527-10.72-20.688-14.527-31.728-8.512l-8.193 5.041c-11.007 6-10.766 21.537-4.254 32.256l58.926 91.408c-5.024-1.104-10.095-1.998-15.055-3.294-103.184-26.993-190.495-96.832-239.535-191.6-46.336-89.52-55.04-191.696-24.512-287.744 30.512-96.048 99.775-174.463 189.295-220.783 15.248-7.888 21.198-26.642 13.31-41.858-5.904-11.448-17.935-17.665-30.002-16.724z"/></svg>