<svg xmlns="http://www.w3.org/2000/svg" viewBox="0 0 1024 1024"><path d="M963.508-1.678c-58.445-.656-191.485 4.063-320.701 52.315C579.863 74.14 528.053 111.373 479.7 167.773c-40.32 47.025-80.384 132.034-115.744 202.61-13.664 27.248-26.721 53.313-37.793 73.217H148.15a32 32 0 0 0-23.935 10.767L6.918 581.504a31.99 31.99 0 0 0-6.53 31.006c3.44 10.785 12.32 18.944 23.329 21.44l190.943 43.665c13.007 16.064 34.688 40.096 69.377 78.592l72.334 80.193 38.945 164.72a31.98 31.98 0 0 0 21.233 23.056c3.233 1.024 6.574 1.568 9.902 1.568a31.95 31.95 0 0 0 20.832-7.713l118.56-117.935a31.98 31.98 0 0 0 11.184-24.287V710.688c15.936-9.904 44.192-25.152 70.784-40.032 72.463-40.496 180.624-90.913 225.472-130.785 63.153-56.128 86.16-97.28 108.752-158.111 53.712-144.688 42.288-344.032 41.744-352.447-.976-15.968-13.63-28.772-29.597-29.956 0 0-11.193-.816-30.674-1.035zm-2.645 63.899c1.04 59.008-1.182 195.824-38.861 297.248-19.712 53.072-37.568 84.83-91.248 132.558-39.664 35.232-148.13 85.825-214.193 122.77-49.312 27.568-78.847 43.664-91.791 54.256a31.95 31.95 0 0 0-11.76 24.783v167.248l-67.522 74.193-28.752-121.6a31.95 31.95 0 0 0-7.392-14.064C350.497 734.397 261.6 635.804 254.784 627.98a32 32 0 0 0-17.567-10.847L90.623 583.598l71.904-76h182.034a31.99 31.99 0 0 0 27.263-15.248c14.08-22.928 30.416-55.537 49.344-93.297 32.048-63.952 71.92-148.543 107.12-189.631 41.583-48.528 83.824-79.01 136.896-98.85 118.095-44.128 239.967-48.766 295.68-48.351zM704.96 188.656c-70.768 0-128.352 57.584-128.352 128.336 0 70.784 57.6 128.354 128.352 128.354s128.336-57.586 128.336-128.354c0-70.752-57.6-128.336-128.336-128.336zm0 64.256c35.328 0 64.08 28.767 64.08 64.08-.016 35.344-28.752 64.08-64.08 64.08s-64.08-28.752-64.08-64.08c0-35.313 28.752-64.08 64.08-64.08zm-551.822 477.01c-18.4 14.128-35.33 21.569-51.698 29.713C32.801 793.859.45 827.569.45 988.289l.543 32.703 31.457-.703c169.632 0 201.328-38.32 233.104-104.32 6.96-14.464 10.832-24.24 22.56-43.729l-47.457-43.103c-14.224 19.408-23.102 37.87-30.974 54.127h-.002c-20.112 41.807-32.803 69.666-144.69 73.73 3.216-107.968 23.792-119.552 64.992-140.08 17.296-8.624 38.833-19.344 62.114-37.248z"/></svg>