<svg xmlns="http://www.w3.org/2000/svg" viewBox="0 0 1024 1024"><path d="M760.77.688c-12.928.287-23.632 10.975-23.92 23.92l-.032 16.415c1.967 15.248 13.951 24.161 26.88 23.873l151.247.4L640.656 337.92c-12.496 12.496-12.496 32.752 0 45.264 12.496 12.48 32.753 12.48 45.248 0L961.168 109.61l-.897 155.073c-.289 12.928 9.968 24.176 22.913 23.888l16.416-.015c12.944-.304 23.647-8 23.92-20.928l.671-231.01c0-.223-.879-.399-.879-.623l1.264-11.71c.128-6.497-1.39-12.29-5.584-16.432-4.143-4.176-9.951-6.72-16.4-6.543l-11.696.271c-.223 0-.4.08-.64.113zM264.24.699l-230.51.992c-.256-.032-.417-.11-.641-.11l-11.711-.274c-6.431-.175-12.272 2.37-16.385 6.545C.784 11.996-.735 17.787-.592 24.283L.672 35.994c0 .223-.879.385-.879.625l.672 231.008c.288 12.928 10.976 20.624 23.92 20.928l17.424.015c12.928.288 23.182-10.96 22.894-23.888l-.879-154.225 275.264 272.72c12.48 12.498 32.753 12.498 45.25 0 12.497-12.496 12.496-32.767 0-45.263L110.048 65.32l151.265-.396c12.927.288 24.912-8.64 26.88-23.873l-.033-16.432C287.84 11.676 277.15.971 264.24.7zm399.041 630.739c-8.188 0-16.375 3.123-22.623 9.37-12.496 12.497-12.496 32.753 0 45.249L914.93 958.648l-151.233.4c-12.928-.287-24.91 8.659-26.879 23.874l.032 16.432c.304 12.943 11.008 23.632 23.92 23.935l229.503-1.008c.24 0 .417.096.641.096l11.695.287c6.448.16 12.273-2.366 16.4-6.558 4.194-4.129 5.697-9.936 5.585-16.432l-1.264-11.682c0-.255.88-.398.88-.62l-.673-231.01c-.288-12.945-10.992-20.624-23.92-20.944l-16.416-.031c-12.944-.29-23.184 10.974-22.912 23.902l.897 155.072-275.28-273.552c-6.248-6.248-14.437-9.371-22.625-9.371zm-301.578.01a31.85 31.85 0 0 0-22.615 9.365L63.824 913.53l.881-154.222c.304-12.944-9.968-24.193-22.896-23.905l-17.424.032c-12.96.32-23.648 8-23.92 20.945l-.672 231.008c0 .224.879.367.879.623l-1.264 11.68c-.144 6.495 1.376 12.318 5.584 16.431 4.128 4.192 9.953 6.72 16.385 6.56l11.71-.287c.224 0 .385-.095.642-.095l230.494 1.008c12.928-.32 23.617-11.01 23.92-23.938l.033-16.432c-1.967-15.216-13.953-24.159-26.881-23.87l-151.246-.401L384.32 686.076c12.496-12.497 12.496-32.752 0-45.248a31.9 31.9 0 0 0-22.617-9.38z"/></svg>