<svg xmlns="http://www.w3.org/2000/svg" viewBox="0 0 1024 1024"><path d="M64.002 63.6c-35.344 0-64 28.656-64 64v577.504c0 35.343 28.656 64 64 64h127.535v159.312a31.97 31.97 0 0 0 19.633 29.504 32 32 0 0 0 12.365 2.496 31.93 31.93 0 0 0 22.434-9.184l185.023-182.128H960c35.343 0 64-28.657 64-64V127.6c0-35.343-28.657-64-64-64zm0 64h896v577.488H404.785L255.537 852V705.088H64.002zm160 129.408c-17.664 0-32 14.336-32 32s14.336 32 32 32h576c17.664 0 32-14.336 32-32s-14.336-32-32-32zm0 128c-17.664 0-32 14.336-32 32s14.336 32 32 32h576c17.664 0 32-14.336 32-32s-14.336-32-32-32zm0 128c-17.664 0-32 14.336-32 32s14.336 32 32 32h384c17.664 0 32-14.336 32-32s-14.336-32-32-32z"/></svg>