<svg xmlns="http://www.w3.org/2000/svg" viewBox="0 0 1024 1024"><path d="M623.695-.225c-220.911 0-400 179.075-400 400.002 0 98.512 35.682 188.672 94.737 258.368L191.119 786.24 55.855 649.697c-12.48-12.496-32.753-12.496-45.25 0s-12.496 32.752 0 45.248l135.393 136.688L9.646 968.816c-12.496 12.496-12.496 32.784 0 45.248 12.48 12.496 32.753 12.496 45.25 0L191.04 877.073l136.465 137.76c12.497 12.496 32.752 12.496 45.248 0s12.497-32.75 0-45.246l-136.61-137.904 127.409-128.194c69.953 59.968 160.77 96.29 260.13 96.29 220.911 0 400-179.089 400-400 .016-220.928-179.074-400-399.986-400zm0 63.473c185.856 0 336.53 150.672 336.53 336.527.016 185.856-150.658 336.545-336.53 336.545-185.856 0-336.527-150.688-336.527-336.545 0-185.856 150.671-336.527 336.527-336.527z"/></svg>