<svg xmlns="http://www.w3.org/2000/svg" viewBox="0 0 1024 1024"><path d="M684.396 94.691c-125.663 0-229.771 91.81-245.804 210.434-102.816-20.656-196.32-75.087-263.504-154.943a64 64 0 0 0-48.979-22.817 66 66 0 0 0-5.021.194 64.11 64.11 0 0 0-49.777 30.783 237.6 237.6 0 0 0-34.096 122.656c0 28.848 5.183 56.945 15.008 83.217-10.464 11.632-16.496 26.848-16.496 42.912v2.287c0 62.689 24.783 120.865 65.935 164.465-2.368 10.976-1.84 22.463 1.775 33.47 14.193 43.184 40.034 80.4 73.538 108.75-22.497 5.01-45.712 7.538-69.409 7.538-12.528 0-24.72-.689-36.255-2.098-2.56-.32-5.09-.432-7.633-.432-26.88 0-51.28 16.946-60.336 42.786-9.936 28.32 1.09 59.712 26.56 75.568 94.53 58.817 203.711 89.871 315.711 89.871 364.032 0 583.01-284.976 587.266-563.344a429.6 429.6 0 0 0 78.447-85.152 63.4 63.4 0 0 0 12.96-38.496c0-21.776-10.895-41.025-27.487-52.594 7.184-24.624-1.01-51.278-21.01-67.566-11.68-9.504-25.998-14.336-40.398-14.336a63.75 63.75 0 0 0-31.97 8.558c-21.151 12.193-43.775 21.842-67.599 28.787-43.105-32.432-96.546-50.497-151.426-50.498zm.004 63.997c52.88 0 100.62 21.637 134.252 56.373 41.84-8.096 81.28-22.85 116.721-43.282-13.712 41.633-42.88 76.56-80.814 98.657 37.12-4.368 72.656-13.905 105.632-28.16-24.72 35.743-55.841 67.217-91.777 92.369.336 7.632.53 15.344.53 23.023 0 235.728-185.008 507.613-523.311 507.613-103.84 0-200.562-29.63-281.904-80.222a378 378 0 0 0 43.84 2.527c86.16 0 165.502-28.496 228.462-76.4-80.528-1.376-148.494-53.008-171.806-123.84a188 188 0 0 0 34.623 3.216c16.72 0 33.008-2.16 48.4-6.255-84.128-16.336-147.535-88.448-147.535-174.93v-2.287c24.816 13.376 53.152 21.408 83.344 22.336-49.376-32.033-81.84-86.56-81.84-148.465 0-32.72 9.088-63.377 24.912-89.633C216.817 299.2 352.337 370.241 505.217 377.713c-3.153-13.025-4.783-26.785-4.783-40.625 0-98.544 82.35-178.4 183.966-178.4z"/></svg>