<svg xmlns="http://www.w3.org/2000/svg" viewBox="0 0 1024 1024"><path d="M511.795.146C370.483.146 223.665 118.082 223.665 224v159.92c0 69.872 31.889 211.248 121.394 283.088L64.018 799.633S.066 828.129.066 863.6v96.033c0 35.344 28.64 63.967 63.95 63.967h703.92v-64l-703.872.033v-64.946c0-25.44 19.091-33.404 26.723-36.939l281.04-132.625c20.143-9.248 34.047-28.32 36.751-50.32 2.72-22-6.159-43.84-23.455-57.711-66.48-53.376-97.455-170.689-97.455-233.186V224.002c0-66.864 116.399-159.856 224.127-159.856 108.672 0 223.92 91.536 223.92 159.856v159.92c0 61.552-25.6 179.312-94.256 233.36a63.99 63.99 0 0 0-23.969 57.808c2.624 22.16 16.594 41.312 36.85 50.623l95.92 45.504 15.806-63.871-85.007-39.778c88.656-69.776 118.656-206.83 118.656-283.646V224C799.715 118.08 653.09.146 511.795.146zm352.144 703.729c-17.664 0-32 14.32-32 32v96h-96c-17.664 0-32 14.32-32 32 0 17.664 14.336 32 32 32h96v96c0 17.664 14.336 32 32 32s32-14.336 32-32v-96h96c17.664 0 32-14.336 32-32 0-17.68-14.32-32-32-32h-96v-96c0-17.68-14.336-32-32-32z"/></svg>