<svg xmlns="http://www.w3.org/2000/svg" viewBox="0 0 24 24"><path d="M12 3.963A6 6 0 0 0 6.33 8l-.18.05a3 3 0 0 0-.41.09 4 4 0 0 0-.5.15l-.39.18a4 4 0 0 0-.44.23l-.36.3-.37.31c-.11.1-.22.19-.32.3s-.21.25-.31.37-.18.23-.26.36-.16.29-.24.44-.13.25-.18.37a4 4 0 0 0-.18.57c0 .11-.07.22-.09.33A5 5 0 0 0 2 13a5.5 5.5 0 0 0 .09.91c0 .1.05.19.07.29a6 6 0 0 0 .18.58l.12.29a5 5 0 0 0 .3.56l.14.22a1 1 0 0 0 .05.08L3 16a5 5 0 0 0 4 2h3v-1.37a2 2 0 0 1-1 .27 2.05 2.05 0 0 1-1.44-.61 2 2 0 0 1 .05-2.83l3-2.9A2 2 0 0 1 12 10a2 2 0 0 1 1.41.59l3 3a2 2 0 0 1 0 2.82A2 2 0 0 1 15 17a1.9 1.9 0 0 1-1-.27V18h3a5 5 0 0 0 4-2l.05-.05a1 1 0 0 0 .05-.08l.14-.22a5 5 0 0 0 .3-.56l.12-.29a6 6 0 0 0 .18-.58c0-.1.05-.19.07-.29A5.5 5.5 0 0 0 22 13a5 5 0 0 0-.1-1c0-.11-.06-.22-.09-.33a4 4 0 0 0-.18-.57c-.05-.12-.12-.24-.18-.37a4 4 0 0 0-.24-.44c-.09-.14-.21-.21-.21-.29s-.2-.25-.31-.37-.21-.2-.32-.3L20 9l-.36-.24a4 4 0 0 0-.44-.23l-.39-.18a4 4 0 0 0-.5-.15 3 3 0 0 0-.41-.09L17.67 8A6 6 0 0 0 12 3.963zm-.145 7.053a1 1 0 0 0-.544.273l-3 2.9a1 1 0 1 0 1.378 1.442L11 14.359V20a1 1 0 0 0 2 0v-5.59l1.29 1.3a1 1 0 0 0 1.42 0 1 1 0 0 0 0-1.42l-3-3a1 1 0 0 0-.855-.274z"/></svg>