<svg xmlns="http://www.w3.org/2000/svg" viewBox="0 0 24 24"><path d="M5 2a3 3 0 1 0 3 3 3 3 0 0 0-3-3zm7 0a3 3 0 1 0 3 3 3 3 0 0 0-3-3zm7.428.031A3 3 0 0 0 16 5a3 3 0 0 0 3 3 3 3 0 0 0 .428-5.969zM19 4a1 1 0 1 1-1 1 1 1 0 0 1 1-1zm-13.777.025A1 1 0 0 1 6 5a1 1 0 0 1-1 1 1 1 0 1 1 .223-1.975zm7 0A1 1 0 0 1 13 5a1 1 0 0 1-1 1 1 1 0 1 1 .223-1.975zM5 9a3 3 0 1 0 3 3 3 3 0 0 0-3-3zm7 0a3 3 0 1 0 3 3 3 3 0 0 0-3-3zm7 0a3 3 0 1 0 3 3 3 3 0 0 0-3-3zM5.223 11.025A1 1 0 0 1 6 12a1 1 0 0 1-1 1 1 1 0 1 1 .223-1.975zm7 0A1 1 0 0 1 13 12a1 1 0 0 1-1 1 1 1 0 1 1 .223-1.975zm7 0A1 1 0 0 1 20 12a1 1 0 0 1-1 1 1 1 0 1 1 .223-1.975zM5 16a3 3 0 1 0 3 3 3 3 0 0 0-3-3zm7 0a3 3 0 1 0 3 3 3 3 0 0 0-3-3zm7 0a3 3 0 1 0 3 3 3 3 0 0 0-3-3zM5.223 18.025A1 1 0 0 1 6 19a1 1 0 0 1-1 1 1 1 0 1 1 .223-1.975zm7 0A1 1 0 0 1 13 19a1 1 0 0 1-1 1 1 1 0 1 1 .223-1.975zm7 0A1 1 0 0 1 20 19a1 1 0 0 1-1 1 1 1 0 1 1 .223-1.975z"/></svg>