<svg xmlns="http://www.w3.org/2000/svg" viewBox="0 0 24 24"><path d="M6.668 3.043A3 3 0 0 0 4.18 5H3a1 1 0 0 0 0 2h1.18a3 3 0 0 0 5.64 0H21a1 1 0 0 0 0-2H9.82a3 3 0 0 0-3.152-1.957zM7 5a1 1 0 1 1-1 1 1 1 0 0 1 1-1zm12 4a3 3 0 0 0-2.82 2H3a1 1 0 0 0 0 2h13.18A3 3 0 1 0 19 9zm.383 2.076A1 1 0 0 1 20 12a1 1 0 0 1-1 1 1 1 0 1 1 .383-1.924zm-8.715 3.967A3 3 0 0 0 8.18 17H3a1 1 0 0 0 0 2h5.18a3 3 0 0 0 5.64 0H21a1 1 0 0 0 0-2h-7.18a3 3 0 0 0-3.152-1.957zm.715 2.033A1 1 0 0 1 12 18a1 1 0 0 1-1 1 1 1 0 1 1 .383-1.924z"/></svg>