<svg xmlns="http://www.w3.org/2000/svg" viewBox="0 0 24 24"><path d="M6.6 2A4.6 4.6 0 0 0 2 6.6a15.33 15.33 0 0 0 3.27 9.46l1.43-1.43A13.3 13.3 0 0 1 4 6.6 2.61 2.61 0 0 1 6.6 4h.33L8 8.64l-.55.29c-.87.45-1.5.78-1.17 1.58a11.6 11.6 0 0 0 1.57 3l1.43-1.42a10.4 10.4 0 0 1-.8-1.42C9.71 10 9.72 10 9.85 9.85a1 1 0 0 0 .26-.92L8.74 3a1 1 0 0 0-.65-.72 4 4 0 0 0-.72-.18A4 4 0 0 0 6.6 2zm12.51 1.998a.9.9 0 0 0-.63.262L4.26 18.48a.9.9 0 0 0-.26.63.89.89 0 0 0 1.52.63L19.74 5.52a.89.89 0 0 0 0-1.26.9.9 0 0 0-.63-.262zm-4.41 9.873a1 1 0 0 0-.59.28c-.14.13-.15.138-.8 1.378a11 11 0 0 1-1.41-.799l-1.43 1.43a11.5 11.5 0 0 0 2.94 1.56c.84.34 1.17-.29 1.62-1.16l.29-.55L20 17.07v.33a2.61 2.61 0 0 1-2.6 2.6 13.3 13.3 0 0 1-8-2.7l-1.46 1.43A15.33 15.33 0 0 0 17.4 22a4.6 4.6 0 0 0 4.6-4.6 5 5 0 0 0-.06-.76 4.3 4.3 0 0 0-.19-.73 1 1 0 0 0-.72-.65l-6-1.37a1 1 0 0 0-.33-.019z"/></svg>