<svg xmlns="http://www.w3.org/2000/svg" viewBox="0 0 24 24"><path d="M6.6 2A4.6 4.6 0 0 0 2 6.6 15.42 15.42 0 0 0 17.4 22a4.6 4.6 0 0 0 4.6-4.6 5 5 0 0 0-.06-.76 4.3 4.3 0 0 0-.19-.73 1 1 0 0 0-.72-.65l-6-1.37a1 1 0 0 0-.92.26c-.14.13-.15.14-.8 1.38a10 10 0 0 1-4.88-4.89C9.71 10 9.72 10 9.85 9.85a1 1 0 0 0 .26-.92L8.74 3a1 1 0 0 0-.65-.72 4 4 0 0 0-.72-.18A4 4 0 0 0 6.6 2zm10.043 1.975A1.05 1.05 0 0 0 15.8 5.77l.728.73-.728.73a1.05 1.05 0 0 0 0 1.47 1.05 1.05 0 0 0 1.469 0L18 8l.73.73a1.05 1.05 0 0 0 1.47-1.5l-.73-.73.73-.73a1.04 1.04 0 0 0-1.47-1.47L18 5l-.73-.73a1.05 1.05 0 0 0-.627-.295z"/></svg>