<svg xmlns="http://www.w3.org/2000/svg" viewBox="0 0 24 24"><path d="M11.06 2a1.69 1.69 0 0 0-1.69 1.68V4.7c0 .14-.11.24-.26.3a.34.34 0 0 1-.37 0L8 4.26a1.72 1.72 0 0 0-1.22-.5 1.65 1.65 0 0 0-1.18.5L4.26 5.63a1.67 1.67 0 0 0 0 2.37l.8.74a.38.38 0 0 1 0 .41.34.34 0 0 1-.29.22H3.68A1.68 1.68 0 0 0 2 11.05v1.89a1.69 1.69 0 0 0 1.68 1.69H4.7c.14 0 .24.11.3.26a.34.34 0 0 1 0 .37l-.74.74a1.72 1.72 0 0 0-.5 1.21 1.66 1.66 0 0 0 .5 1.19l1.37 1.34a1.67 1.67 0 0 0 2.37 0l.74-.8a.38.38 0 0 1 .41 0 .34.34 0 0 1 .22.29v1.09A1.68 1.68 0 0 0 11.05 22h1.89a1.69 1.69 0 0 0 1.69-1.61V19.3c0-.14.11-.24.26-.3a.34.34 0 0 1 .37 0l.77.74a1.72 1.72 0 0 0 1.19.5 1.65 1.65 0 0 0 1.18-.5l1.31-1.33a1.67 1.67 0 0 0 0-2.37l-.77-.77a.34.34 0 0 1 0-.37.34.34 0 0 1 .29-.22h1.09A1.68 1.68 0 0 0 22 13v-1.94a1.69 1.69 0 0 0-1.61-1.69H19.3c-.14 0-.24-.11-.3-.26a.34.34 0 0 1 0-.37l.74-.74a1.63 1.63 0 0 0 .5-1.21 1.67 1.67 0 0 0-.5-1.19l-1.37-1.34a1.67 1.67 0 0 0-2.37 0l-.69.8a.38.38 0 0 1-.41 0 .34.34 0 0 1-.22-.29V3.68A1.68 1.68 0 0 0 13 2zm.31 2h1.3v.77a2.39 2.39 0 0 0 4 1.67l.55-.54.88.88-.54.54a2.36 2.36 0 0 0-.47 2.59 2.33 2.33 0 0 0 2.14 1.46H20v1.29h-.78a2.33 2.33 0 0 0-2.14 1.45 2.34 2.34 0 0 0 .48 2.56l.54.55-.88.88-.54-.54a2.36 2.36 0 0 0-2.59-.47 2.33 2.33 0 0 0-1.46 2.14V20h-1.26l-.04-.81a2.39 2.39 0 0 0-4-1.67l-.55.54-.88-.88.54-.54a2.36 2.36 0 0 0 .47-2.59 2.33 2.33 0 0 0-2.14-1.46H4v-1.26h.77a2.39 2.39 0 0 0 1.67-4l-.54-.55.88-.88.54.54a2.36 2.36 0 0 0 2.59.47 2.33 2.33 0 0 0 1.46-2.14zm.132 4.535A3.5 3.5 0 0 0 12 15.5a3.5 3.5 0 0 0 3.5-3.5 3.5 3.5 0 0 0-3.998-3.465zM12 10.5a1.5 1.5 0 0 1 1.5 1.5 1.5 1.5 0 1 1-1.5-1.5z"/></svg>