<svg xmlns="http://www.w3.org/2000/svg" width="16" height="16" viewBox="0 0 16 16"><path d="M14.67 4H14V2a2 2 0 0 0-2-2H4a2 2 0 0 0-2 2v2h-.68q0 0 0 0a.32.32 0 0 0-.32.32v2.36c0 .177.143.32.32.32q0 0 0 0H2v6c0 .55 0 1 1 1v1.5a.5.5 0 0 0 .5.5h2a.5.5 0 0 0 .5-.5V14h4v1.5a.5.5 0 0 0 .5.5h2a.5.5 0 0 0 .5-.5V14c1 0 1-.45 1-1V7h.67a.33.33 0 1 0 0-.66.33.33 0 0 0 0 .66.33.33 0 0 0 .33-.33V4.33a.33.33 0 0 0-.33-.33q0 0 0 0zM6 1h4v1H6zM4 12a1 1 0 1 1 0-2 1 1 0 0 1 0 2zM3 8V3h10v5zm9 4a1 1 0 1 1 0-2 1 1 0 0 1 0 2z"/></svg>