<svg xmlns="http://www.w3.org/2000/svg" width="16" height="16" viewBox="0 0 16 16"><path d="M14 10.58a.37.37 0 0 0-.001-.332l-.479-.698q-.014-.02-.014-.045c0-.025.005-.032.014-.045l.48-.7a.37.37 0 0 0-.001-.332.4.4 0 0 0-.236-.237l-.823-.301a.09.09 0 0 1-.06-.069V6.98a.39.39 0 0 0-.169-.299.4.4 0 0 0-.231-.071h-.17l-.85.22a.1.1 0 0 1-.071 0l-.549-.65a.43.43 0 0 0-.63 0l-.55.65a.1.1 0 0 1-.071 0h.001l-.9-.23h-.108a.4.4 0 0 0-.234.071.39.39 0 0 0-.168.298v.841a.09.09 0 0 1-.059.07l-.821.3a.4.4 0 0 0-.338.395q0 .091.039.167l.479.698q.014.02.014.045c0 .025-.005.032-.014.045l-.48.7a.37.37 0 0 0 .001.332.4.4 0 0 0 .236.237l.823.301a.09.09 0 0 1 .06.069v.841a.39.39 0 0 0 .169.299.4.4 0 0 0 .234.071h.168l.31-.07V16l1.53-2 1.47 2v-3.69l.31.08h.118a.4.4 0 0 0 .234-.071.39.39 0 0 0 .168-.298v-.841a.09.09 0 0 1 .059-.07l.821-.3a.4.4 0 0 0 .289-.227z"/><path d="M0 1v12h8l-.11-.05a1.13 1.13 0 0 1-.49-.867V12H1V2h14v10h-1.43v.08a1.13 1.13 0 0 1-.486.868L13 13h3V1z"/><path d="M7.43 6.91a1.13 1.13 0 0 1 .486-.908q.024-.007.044-.006c.02.001.028.001.041.004H3v1h4.43zM6.42 8H3v1h3.36a.99.99 0 0 1-.047-.837A.3.3 0 0 1 6.42 8zM3 4h10v1H3z"/></svg>