<svg xmlns="http://www.w3.org/2000/svg" width="16" height="16" viewBox="0 0 16 16"><path d="M8.25 0C1.87 0-.86 7.38.24 9.92c.82 1.89 2.62.08 3.34 1 1.88 2.46-2.11 3.81.09 4.68C6.26 16.66 16 16 16 7.07 16 4.38 14.66 0 8.25 0zM4.47 9A1.5 1.5 0 1 1 6 7.5q0 0 0 0A1.5 1.5 0 0 1 4.5 9h-.032zM6 3.5A1.5 1.5 0 1 1 7.5 5h-.032A1.5 1.5 0 0 1 6 3.5q0 0 0 0zM8.47 14A1.5 1.5 0 1 1 10 12.5q0 0 0 0A1.5 1.5 0 0 1 8.5 14h-.032zm4-3A1.5 1.5 0 1 1 14 9.5q0 0 0 0a1.5 1.5 0 0 1-1.5 1.5h-.032zm0-5A1.5 1.5 0 1 1 14 4.5q0 0 0 0A1.5 1.5 0 0 1 12.5 6h-.032z"/></svg>