<svg xmlns="http://www.w3.org/2000/svg" width="24" height="24" viewBox="0 0 24 24"><path d="M14.957 2c-.709 0-1.356.36-1.82.88-.465.522-.786 1.208-.969 2.026-.367 1.637-.183 3.826.887 6.469l.011-.018.006.016a1 1 0 0 0 .883.62l.025.007.03-.01a1 1 0 0 0 .14-.006v.002l.008-.002h.012s1.617-.273 3.268-1.033c.825-.38 1.679-.88 2.369-1.6a4.4 4.4 0 0 0 1.006-1.64v-.002c.125-.382.194-.791.187-1.225a4 4 0 0 0-.24-1.306v-.002a4 4 0 0 0-.096-.23v-.003a4 4 0 0 0-.107-.218l-.002-.002c-.348-.645-.873-1.134-1.48-1.397a2.6 2.6 0 0 0-.641-.183h-.006a2 2 0 0 0-.219-.024h-.006a2.15 2.15 0 0 0-.902.145c-.023.009-.03.04-.049.054-.41-.585-1.09-1.237-2.092-1.31A3 3 0 0 0 14.957 2zM6.484 3c-1.512.025-2.69.849-3.158 1.932-.234.541-.295 1.175-.062 1.767.014.037.073.044.09.08-.214.143-.422.226-.625.448C2.334 7.654 2 8.295 2 9.043c0 .709.36 1.356.88 1.82.522.465 1.208.786 2.026.969 1.637.367 3.826.183 6.469-.887l-.133-.09A1 1 0 0 0 12 10.02a1 1 0 0 0-.1-.188l.08-.008-.062-.31-.006-.028-.08-.351-.008-.024-.074-.29-.006-.02-.092-.328-.006-.024-.11-.357-.009-.026-.127-.38-.011-.032-.147-.398-.006-.016c-.355-.911-.851-1.915-1.601-2.75-.75-.834-1.837-1.51-3.15-1.49zm8.485 1c.308.005.502.19.719.533.219.348.318.711.318.711a1 1 0 0 0 .95.754 1 1 0 0 0 .31-.041l.002-.002a1 1 0 0 0 .67-.656c.06-.19.086-.167.103-.174l.025-.006q.018-.003.043-.002a.5.5 0 0 1 .166.045 1 1 0 0 1 .114.06h.002c.175.113.372.323.494.645a1.9 1.9 0 0 1 .107.856 1.8 1.8 0 0 1-.076.382v.002q-.03.09-.07.178v.002a2 2 0 0 1-.09.172v.002a2 2 0 0 1-.111.168v.002q-.06.083-.131.166v.002q-.072.082-.153.166c-.431.448-1.083.856-1.767 1.17-.935.429-1.406.49-1.907.603-.61-1.884-.755-3.441-.542-4.396.124-.557.33-.933.505-1.131.17-.191.271-.21.319-.211zM6.516 5c.646-.01 1.133.273 1.63.826.498.553.925 1.365 1.227 2.14l.137.37.117.355.103.334.08.287c-1.921.64-3.5.785-4.466.569-.557-.125-.933-.333-1.131-.51C4.015 9.195 4 9.091 4 9.043c0-.197.057-.306.2-.461.142-.155.38-.31.599-.414l.164-.074.004-.002.054-.022.018-.006.125-.044.127-.038a1 1 0 0 0 .01-1.912c-.19-.06-.169-.085-.176-.103-.007-.019-.025-.099.037-.242.124-.287.542-.712 1.354-.725zM17.4 11.996a10 10 0 0 0-1.164.076c-1.082.134-2.29.448-3.611.983l.133.09a1 1 0 0 0-.758.835 1 1 0 0 0 .1.188l-.08.008.062.31.006.028.08.351.008.024.074.29.006.02.092.328.006.024.11.357.005.016.06.187.01.026.139.392.004.012c.344.932.837 1.987 1.595 2.87.759.881 1.872 1.61 3.239 1.589 1.512-.025 2.69-.849 3.158-1.932.234-.541.295-1.175.062-1.767-.014-.037-.073-.044-.09-.08.214-.143.421-.226.625-.448.395-.427.729-1.068.729-1.816 0-.709-.36-1.356-.88-1.82-.522-.465-1.208-.786-2.026-.969a7.6 7.6 0 0 0-1.694-.172zM10.02 12a1 1 0 0 0-.188.1l-.008-.08-.31.062-.028.006-.351.08-.024.008-.29.074-.02.006-.328.092-.024.006-.357.11-.016.005-.187.06-.026.01-.392.139-.012.004c-.932.344-1.987.837-2.87 1.595-.882.759-1.61 1.871-1.589 3.239.025 1.512.849 2.69 1.932 3.158.541.234 1.175.295 1.767.062.037-.014.044-.073.08-.09.143.214.226.421.448.625.427.395 1.068.729 1.816.729.709 0 1.356-.36 1.82-.88.465-.522.786-1.208.969-2.026.367-1.637.183-3.826-.887-6.469l-.068.1A1 1 0 0 0 10.02 12zm7.394 2c.48-.004.895.041 1.242.12.557.124.933.332 1.131.509.198.176.213.28.213.328 0 .197-.056.306-.2.461a2.1 2.1 0 0 1-.599.414l-.193.086-.053.02-.12.04-.126.04a1 1 0 0 0-.01 1.912c.19.06.169.085.176.103.007.019.025.099-.037.242-.124.287-.542.712-1.354.725-.672.01-1.18-.297-1.691-.893-.512-.595-.94-1.461-1.234-2.26l-.131-.365-.055-.168-.103-.34-.08-.287c.815-.27 1.638-.544 2.292-.624q.5-.06.932-.063zm-8.102.19c.64 1.921.785 3.5.569 4.466-.125.557-.333.933-.51 1.131-.176.198-.28.213-.328.213-.197 0-.306-.056-.461-.2a2.1 2.1 0 0 1-.414-.599l-.078-.178-.026-.06-.043-.127-.039-.127a1 1 0 0 0-1.912-.01c-.06.19-.085.169-.103.176-.019.007-.099.025-.242-.037-.287-.124-.712-.542-.725-1.354-.01-.672.297-1.18.893-1.691.595-.512 1.461-.94 2.26-1.234l.365-.131.168-.055.34-.103z"/></svg>