<svg xmlns="http://www.w3.org/2000/svg" width="24" height="24" viewBox="0 0 24 24"><path d="M11.902 1.969a10 10 0 0 0-1.19.088 10.2 10.2 0 0 0-3.206 1.007 1 1 0 0 0-.444 1.344 1 1 0 0 0 1.342.444c3.495-1.761 6.987-.785 9.258 1.486s3.247 5.763 1.486 9.258a1 1 0 0 0 .444 1.342 1 1 0 0 0 1.344-.444c2.143-4.254.952-8.759-1.86-11.57-1.845-1.845-4.42-2.99-7.174-2.955zM3 2a1 1 0 0 0-.707.293 1 1 0 0 0 0 1.414l1.959 1.959c-3.257 3.919-3.055 9.776.623 13.455s9.539 3.885 13.459.627l1.959 1.959a1 1 0 0 0 1.414 0 1 1 0 0 0 0-1.414L6.359 4.945l-.01-.011-.005-.004-2.637-2.637A1 1 0 0 0 3 2zm8.727 4.248c-.283-.007-.701.12-.94.404-.255.304-.287.613-.287.848a1 1 0 0 0 .646.854A1 1 0 0 0 12 9c.235 0 .544-.032.848-.287s.426-.714.4-.994c-.052-.56-.28-.756-.496-.971s-.41-.444-.97-.496zm.252.752H12a1 1 0 0 0-.44.18c.196-.164.356-.179.419-.18zm-6.305.088 2.662 2.664a1 1 0 0 0-.285.432 1 1 0 0 0 .633 1.265l2.027.676.289.29v.782l-1.832 2.748a1 1 0 0 0 .277 1.387 1 1 0 0 0 1.387-.277L12 15.303l1.168 1.752a1 1 0 0 0 1.387.277 1 1 0 0 0 .441-.922l1.914 1.914a7.98 7.98 0 0 1-10.62-.617 7.98 7.98 0 0 1-.616-10.62zM12.5 7.5c0 .038.008.216-.18.44a1 1 0 0 0 .18-.44zm2.44 2.002a1 1 0 0 0-.256.049l-.371.125a1 1 0 0 0-.635 1.263 1 1 0 0 0 1.265.633l.373-.123a1 1 0 0 0 .633-1.265 1 1 0 0 0-1.01-.682z"/></svg>