<svg xmlns="http://www.w3.org/2000/svg" width="24" height="24" viewBox="0 0 24 24"><path d="M11.346 2.021a10 10 0 0 0-9.34 9.655L2 12l.006.324A10 10 0 1 0 17 3.34a10 10 0 0 0-5.654-1.319zM12 6a1.5 1.5 0 0 1 0 3 1.5 1.5 0 1 1 0-3zm3.158 3.514a1 1 0 0 1 .791.67 1 1 0 0 1-.523 1.22l-.11.043L13 12.22v.976l1.832 2.75.059.102a1 1 0 0 1-1.653 1.101l-.07-.093L12 15.303l-1.168 1.752-.076.1a1 1 0 0 1-1.21.238l-.1-.061-.1-.076a1 1 0 0 1-.239-1.21l.061-.1L11 13.195v-.975l-2.316-.772-.11-.045a1 1 0 0 1 .63-1.883l.112.03 2.684.894 2.684-.894.113-.03a1 1 0 0 1 .361-.007z"/></svg>