<svg xmlns="http://www.w3.org/2000/svg" width="24" height="24" viewBox="0 0 24 24"><path d="M12 1C5.937 1 1 5.937 1 12s4.937 11 11 11 11-4.937 11-11S18.063 1 12 1zm0 2c4.982 0 9 4.018 9 9s-4.018 9-9 9-9-4.018-9-9 4.018-9 9-9zM8.5 8c-.597 0-1.208.194-1.695.627S6 9.75 6 10.5V15a1 1 0 0 0 1 1 1 1 0 0 0 1-1v-1h1v1a1 1 0 0 0 1 1 1 1 0 0 0 1-1v-4.5c0-.75-.317-1.44-.805-1.873A2.53 2.53 0 0 0 8.5 8zM14 8a1 1 0 0 0-1 1v6a1 1 0 0 0 1 1h1c1.645 0 3-1.355 3-3v-2c0-1.645-1.355-3-3-3zm-5.5 2a.58.58 0 0 1 .367.123c.075.067.133.127.133.377V12H8v-1.5c0-.25.058-.31.133-.377A.58.58 0 0 1 8.5 10zm6.5 0c.564 0 1 .436 1 1v2c0 .564-.436 1-1 1z"/></svg>