<svg xmlns="http://www.w3.org/2000/svg" width="24" height="24" viewBox="0 0 24 24"><path d="M3 2a1 1 0 0 0-.707.293 1 1 0 0 0 0 1.414l.906.906A3 3 0 0 0 2 7v10c0 1.645 1.355 3 3 3h13.586l1.707 1.707a1 1 0 0 0 1.414 0 1 1 0 0 0 0-1.414l-9.969-9.967a1 1 0 0 0-.064-.064L9.738 8.326a1 1 0 0 0-.064-.064L3.707 2.293A1 1 0 0 0 3 2zm6 2a1 1 0 0 0-1 1 1 1 0 0 0 1 1h10c.564 0 1 .436 1 1v10a1 1 0 0 0 1 1 1 1 0 0 0 1-1V7c0-1.645-1.355-3-3-3zM4.648 6.063l2.55 2.548A3 3 0 0 0 6 11v4a1 1 0 0 0 1 1 1 1 0 0 0 1-1v-1h2v1a1 1 0 0 0 1 1 1 1 0 0 0 1-1v-1.586L16.586 18H5c-.564 0-1-.436-1-1V7a.98.98 0 0 1 .648-.937zM17 8a1 1 0 0 0-1 1v2.139a1 1 0 0 0-.238.056 1 1 0 0 0-.559.524 1 1 0 0 0 .5 1.324c.11.05.2.137.252.248a1 1 0 0 0 .309.377A1 1 0 0 0 17 14a1 1 0 0 0 1-1V9a1 1 0 0 0-1-1zm-8.354 2.06L10 11.415V12H8v-1c0-.439.264-.8.646-.94z"/></svg>