<svg xmlns="http://www.w3.org/2000/svg" width="24" height="24" viewBox="0 0 24 24"><path d="M12 1c-1.91 0-3.714.488-5.281 1.348a1 1 0 0 0-.397 1.357 1 1 0 0 0 1.36.397A8.94 8.94 0 0 1 12 3c4.983 0 9 4.017 9 9v.002a8.95 8.95 0 0 1-1.1 4.31 1 1 0 0 0 .399 1.358 1 1 0 0 0 1.355-.397A10.96 10.96 0 0 0 23 12c0-6.063-4.937-11-11-11zM3 2a1 1 0 0 0-.707.293 1 1 0 0 0 0 1.414l1.254 1.254A10.98 10.98 0 0 0 1 12.002C1.001 18.064 5.937 23 12 23a10.97 10.97 0 0 0 7.037-2.549l1.256 1.256a1 1 0 0 0 1.414 0 1 1 0 0 0 0-1.414l-5.959-5.957a1 1 0 0 0-.084-.084l-.916-.916a1 1 0 0 0-.084-.084l-4.143-4.145-6.814-6.814A1 1 0 0 0 3 2zm1.969 4.383 2.1 2.1C6.436 8.926 5.998 9.65 6 10.5V15a1 1 0 0 0 1 1 1 1 0 0 0 1-1v-1h1v1a1 1 0 0 0 1 1 1 1 0 0 0 1-1v-2.586l2 2V15a1 1 0 0 0 1 1h.586l3.031 3.031A8.97 8.97 0 0 1 12.002 21H12c-4.983 0-9-4.017-9-9v-.002a8.97 8.97 0 0 1 1.969-5.615zM14 8a1 1 0 0 0-1 1v1a1 1 0 0 0 1 1 1 1 0 0 0 1-1c.564 0 1 .436 1 1v2a1 1 0 0 0 1 1 1 1 0 0 0 1-1v-2c0-1.645-1.355-3-3-3zM8.447 9.988a.5.5 0 0 1 .143.016l.4.4q.01.045.01.096V12H8v-1.5c0-.304.195-.504.447-.512z"/></svg>