<svg xmlns="http://www.w3.org/2000/svg" width="24" height="24" viewBox="0 0 24 24"><path d="M8 3C6.355 3 5 4.355 5 6v1H4a1 1 0 0 0-1 1 1 1 0 0 0 1 1h1v2H4a1 1 0 0 0-1 1 1 1 0 0 0 1 1h1v2H4a1 1 0 0 0-1 1 1 1 0 0 0 1 1h1v1c0 1.645 1.355 3 3 3h10c1.645 0 3-1.355 3-3V6c0-1.645-1.355-3-3-3zm0 2h10c.564 0 1 .436 1 1v12c0 .564-.436 1-1 1H8c-.564 0-1-.436-1-1v-1a1 1 0 0 0 1-1 1 1 0 0 0-1-1v-2a1 1 0 0 0 1-1 1 1 0 0 0-1-1V9a1 1 0 0 0 1-1 1 1 0 0 0-1-1V6c0-.564.436-1 1-1zm5 3a3.05 3.05 0 0 0-2.04.752C10.38 9.269 10 10.083 10 11s.38 1.731.96 2.248A3.05 3.05 0 0 0 13 14a3.05 3.05 0 0 0 2.04-.752c.58-.517.96-1.331.96-2.248s-.38-1.731-.96-2.248A3.05 3.05 0 0 0 13 8zm0 2c.278 0 .542.098.71.248.17.15.29.335.29.752s-.12.602-.29.752c-.168.15-.432.248-.71.248s-.542-.098-.71-.248c-.17-.15-.29-.335-.29-.752s.12-.602.29-.752A1.1 1.1 0 0 1 13 10zm-3 5a1 1 0 0 0-1 1 1 1 0 0 0 1 1h6a1 1 0 0 0 1-1 1 1 0 0 0-1-1z"/></svg>