<svg xmlns="http://www.w3.org/2000/svg" width="24" height="24" viewBox="0 0 24 24"><path d="M3 2a1 1 0 0 0-.707.293 1 1 0 0 0 0 1.414L5 6.414v.744a2.9 2.9 0 0 0-1.04.594C3.38 8.269 3 9.083 3 10s.38 1.731.96 2.248c.312.276.667.471 1.04.594V20a1 1 0 0 0 1 1 1 1 0 0 0 1-1v-7.158a2.9 2.9 0 0 0 1.04-.594c.496-.442.846-1.102.937-1.857L11 12.414v.744a2.9 2.9 0 0 0-1.04.594C9.38 14.269 9 15.083 9 16s.38 1.731.96 2.248c.312.276.667.471 1.04.594V20a1 1 0 0 0 1 1 1 1 0 0 0 1-1v-1.158a2.9 2.9 0 0 0 1.04-.594c.496-.442.846-1.102.937-1.857L17 18.414V20a1 1 0 0 0 1 1 1 1 0 0 0 .932-.654l1.361 1.361a1 1 0 0 0 1.414 0 1 1 0 0 0 0-1.414l-2.965-2.963a1 1 0 0 0-.072-.072l-5.963-5.965-5.978-5.977-.045-.045-2.977-2.978A1 1 0 0 0 3 2zm9 1a1 1 0 0 0-1 1v4a1 1 0 0 0 1 1 1 1 0 0 0 1-1V4a1 1 0 0 0-1-1zm6 0a1 1 0 0 0-1 1v.158a2.9 2.9 0 0 0-1.04.594C15.38 5.269 15 6.083 15 7s.38 1.731.96 2.248c.312.276.667.471 1.04.594V14a1 1 0 0 0 1 1 1 1 0 0 0 1-1V9.842a2.9 2.9 0 0 0 1.04-.594C20.62 8.731 21 7.917 21 7s-.38-1.731-.96-2.248A2.9 2.9 0 0 0 19 4.158V4a1 1 0 0 0-1-1zm0 3c.278 0 .542.098.71.248.17.15.29.335.29.752s-.12.602-.29.752c-.168.15-.432.248-.71.248s-.542-.098-.71-.248C17.12 7.602 17 7.417 17 7s.12-.602.29-.752A1.1 1.1 0 0 1 18 6zM6 9c.278 0 .542.098.71.248.17.15.29.335.29.752s-.12.602-.29.752c-.168.15-.432.248-.71.248s-.542-.098-.71-.248C5.12 10.602 5 10.417 5 10s.12-.602.29-.752C5.457 9.098 5.721 9 6 9zm6 6c.278 0 .542.098.71.248.17.15.29.335.29.752s-.12.602-.29.752c-.168.15-.432.248-.71.248s-.542-.098-.71-.248c-.17-.15-.29-.335-.29-.752s.12-.602.29-.752A1.1 1.1 0 0 1 12 15z"/></svg>