<svg xmlns="http://www.w3.org/2000/svg" width="24" height="24" viewBox="0 0 24 24"><path d="M6 3a1 1 0 0 0-1 1v3H4a1 1 0 0 0-1 1v4a1 1 0 0 0 1 1h1v7a1 1 0 0 0 1 1 1 1 0 0 0 1-1v-7h1a1 1 0 0 0 1-1V8a1 1 0 0 0-1-1H7V4a1 1 0 0 0-1-1zm6 0a1 1 0 0 0-1 1v9h-1a1 1 0 0 0-1 1v4a1 1 0 0 0 1 1h1v1a1 1 0 0 0 1 1 1 1 0 0 0 1-1v-1h1a1 1 0 0 0 1-1v-4a1 1 0 0 0-1-1h-1V4a1 1 0 0 0-1-1zm6 0a1 1 0 0 0-1 1h-1a1 1 0 0 0-1 1v4a1 1 0 0 0 1 1h1v10a1 1 0 0 0 1 1 1 1 0 0 0 1-1V10h1a1 1 0 0 0 1-1V5a1 1 0 0 0-1-1h-1a1 1 0 0 0-1-1zm-1 3h2v2h-2zM5 9h2v2H5zm6 6h2v2h-2z"/></svg>