<svg xmlns="http://www.w3.org/2000/svg" width="24" height="24" viewBox="0 0 24 24"><path d="m19.875 2.008-16 2a1 1 0 0 0-.867 1.117 1 1 0 0 0 1.117.867L11 5.132V7H6.895a1 1 0 0 0-.764.354C4.646 9.104 3.986 11.562 3.986 14s.66 4.896 2.145 6.646a1 1 0 0 0 .764.354H17a1 1 0 0 0 .75-.338c1.544-1.748 2.235-4.211 2.262-6.65s-.606-4.892-2.037-6.645A1 1 0 0 0 17.199 7H13V4.883l7.125-.89a1 1 0 0 0 .867-1.118 1 1 0 0 0-1.117-.867zM7.473 9H11v4H6.133c.152-1.54.588-2.967 1.34-4zM13 9h3.61c.72 1.034 1.136 2.46 1.269 4H13zm-6.867 6H17.85c-.172 1.541-.629 2.968-1.416 4H7.473c-.752-1.033-1.188-2.46-1.34-4z"/></svg>