<svg xmlns="http://www.w3.org/2000/svg" width="24" height="24" viewBox="0 0 24 24"><path d="M6.977 2.994a1 1 0 0 0-.565.197V3.19l-2.75 2-.098.08a1 1 0 0 0 1.274 1.542l2.75-2 .098-.08a1 1 0 0 0-.71-1.737zm10.113.01a1 1 0 0 0-.899.408 1 1 0 0 0 .221 1.397l2.75 2 .106.068a1 1 0 0 0 1.07-1.686l-2.75-2-.106-.068a1 1 0 0 0-.392-.12zm-5.606 2.014a8 8 0 0 0-7.478 7.697L4 13l.006.285A8 8 0 1 0 16 6.072a8 8 0 0 0-4.516-1.054zM12 10a1 1 0 0 1 .992.883L13 11v1h1a1 1 0 0 1 .117 1.992L14 14h-1v1a1 1 0 0 1-1.992.117L11 15v-1h-1a1 1 0 0 1-.117-1.992L10 12h1v-1a1 1 0 0 1 1-1z"/></svg>