<svg xmlns="http://www.w3.org/2000/svg" width="24" height="24" viewBox="0 0 24 24"><path d="M11.926 1.002a3.3 3.3 0 0 0-1.5.412l-6.95 4.098A3.22 3.22 0 0 0 2 8.217v7.285l.008.207a3.23 3.23 0 0 0 1.67 2.62l6.695 4.235.195.1c.985.467 2.086.438 3.004-.066l6.805-4.303.17-.1C21.43 17.631 22 16.608 22 15.502V8.219l-.006-.205-.017-.201a3.22 3.22 0 0 0-1.266-2.19l-.107-.074-.092-.076-.096-.065-6.775-3.994-.19-.098a3.3 3.3 0 0 0-1.525-.314zM12 7a1 1 0 0 1 .992.883L13 8v4l-.008.117a1 1 0 0 1-1.984 0L11 12V8l.008-.117A1 1 0 0 1 12 7zm.01 8 .117.008a1 1 0 0 1 0 1.984L12 17l-.117-.008a1 1 0 0 1 0-1.984z"/></svg>