<svg xmlns="http://www.w3.org/2000/svg" width="24" height="24" viewBox="0 0 24 24"><path d="M6 7a3.05 3.05 0 0 0-2.04.752C3.38 8.269 3 9.083 3 10v6a1 1 0 0 0 1 1 1 1 0 0 0 1-1v-2h2v2a1 1 0 0 0 1 1 1 1 0 0 0 1-1v-6c0-.917-.38-1.731-.96-2.248A3.05 3.05 0 0 0 6 7zm5 0a1 1 0 0 0-1 1v8a1 1 0 0 0 1 1h4a1 1 0 0 0 1-1 1 1 0 0 0-1-1h-3V8a1 1 0 0 0-1-1zm5 0a1 1 0 0 0-1 1 1 1 0 0 0 1 1h1v7a1 1 0 0 0 1 1 1 1 0 0 0 1-1V9h1a1 1 0 0 0 1-1 1 1 0 0 0-1-1zM6 9c.278 0 .542.098.71.248.17.15.29.335.29.752v2H5v-2c0-.417.12-.602.29-.752C5.457 9.098 5.721 9 6 9z"/></svg>