<svg xmlns="http://www.w3.org/2000/svg" width="24" height="24" viewBox="0 0 24 24"><path d="M11.97 1c-1.312 0-2.58.817-3.273 2.184v.003l-7.129 14.08c-1.016 2.006-.51 4 .752 4.994a3.45 3.45 0 0 0 4.528-.252v-.002l1.859-1.809c1.5-1.457 2.512-1.985 3.328-1.97.816.014 1.832.585 3.305 2.068l1.33 1.338c1.473 1.482 3.546 1.607 4.904.627s1.886-3.03.871-5.014L15.25 3.18C14.552 1.814 13.283 1 11.97 1zm0 2c.519 0 1.083.275 1.499 1.09l7.195 14.068c.674 1.319.3 2.075-.26 2.479-.559.403-1.417.49-2.316-.414l-1.328-1.338c-1.607-1.618-3.04-2.63-4.688-2.658-1.648-.03-3.115.94-4.758 2.537l-1.86 1.81v-.002c-.62.602-1.367.534-1.895.117-.529-.416-.901-1.147-.205-2.521l7.128-14.082c.412-.813.97-1.086 1.489-1.086zM12 9a3.05 3.05 0 0 0-2.04.752C9.38 10.269 9 11.083 9 12s.38 1.731.96 2.248A3.05 3.05 0 0 0 12 15a3.05 3.05 0 0 0 2.04-.752c.58-.517.96-1.331.96-2.248s-.38-1.731-.96-2.248A3.05 3.05 0 0 0 12 9zm0 2c.278 0 .542.098.71.248.17.15.29.335.29.752s-.12.602-.29.752c-.168.15-.432.248-.71.248s-.542-.098-.71-.248c-.17-.15-.29-.335-.29-.752s.12-.602.29-.752A1.1 1.1 0 0 1 12 11z"/></svg>