<svg xmlns="http://www.w3.org/2000/svg" width="24" height="24" viewBox="0 0 24 24"><path d="M10.93 2q-.375.001-.748.016a1 1 0 0 0-.098.007c-1.562.21-2.634.642-3.385 1.225S5.573 4.543 5.334 5.033a1 1 0 0 0-.053.125 11 11 0 0 0-.314 1.188c-1.45.406-2.489 1.471-2.836 2.715-.359 1.284.098 2.785 1.314 3.683-.44 2.615-.71 5.928-.123 8.463a1 1 0 0 0 .973.773l12.703.02h3.882a1 1 0 0 0 .993-.879c.318-2.592-.008-6.577-.271-10.008l-.002-.002c-.031-.482-.329-.827-.543-1.002-.216-.175-.397-.26-.534-.33a1 1 0 0 0-.17-.068 24 24 0 0 0-2.46-.57c-.128-.954-.266-1.944-.563-2.96l-.002-.007c-.344-1.14-.761-2.092-1.443-2.824-.68-.731-1.64-1.164-2.715-1.25a24 24 0 0 0-2.24-.1zm.058 2.004q1.004-.005 2.004.086l.014.002c.697.055 1.058.238 1.414.62.356.383.694 1.046.994 2.038v.002c.299 1.023.418 2.139.586 3.334v9.912l-10.78-.016c-.269-1.836-.178-4.284.116-6.373 1.796.529 3.804.486 5.482.147 1.51-.253 2.731-1.394 3.002-2.887.31-1.475.22-2.541-.302-3.308-.527-.772-1.331-.986-1.74-1.112a10.1 10.1 0 0 0-2.932-.445 19 19 0 0 0-1.746.068q.03-.104.062-.207c.205-.418.373-.735.762-1.037.4-.31 1.1-.633 2.396-.812q.334-.011.668-.012zM8.79 7.998c.828.008 1.58.107 2.4.361l.002.002c.426.13.588.2.674.326.086.127.255.57-.004 1.792l-.006.03c-.113.633-.642 1.159-1.37 1.278l-.04.008c-1.746.357-4.13.24-5.572-.51l-.004-.002c-.857-.441-.992-1.042-.812-1.685.18-.644.771-1.291 1.886-1.412 1.118-.112 2.021-.196 2.846-.188zM18 11.205c.555.115 1.109.243 1.615.387.231 3.033.396 6.242.248 8.408H18z"/></svg>