<svg xmlns="http://www.w3.org/2000/svg" width="24" height="24" viewBox="0 0 24 24"><path d="M14 2c-1.645 0-3 1.355-3 3v1.064C7.063 6.56 4 9.932 4 14c0 4.406 3.594 8 8 8s8-3.594 8-8c0-3.238-1.943-6.035-4.72-7.291A3.02 3.02 0 0 0 17 4V3a1 1 0 0 0-1-1zm0 2h1c0 .564-.436 1-1 1h-1c0-.564.436-1 1-1zm-3 4.084v1.754a4.5 4.5 0 0 1-.553-.233 1 1 0 0 0-.763-.054 1 1 0 0 0-.579.502 1 1 0 0 0 .448 1.342 5.5 5.5 0 0 0 2.312.587A1 1 0 0 0 12 12a1 1 0 0 0 .135-.018 5.5 5.5 0 0 0 2.312-.587 1 1 0 0 0 .448-1.342 1 1 0 0 0-1.342-.448q-.284.141-.553.233V8.084c2.845.473 5 2.932 5 5.916 0 3.326-2.674 6-6 6s-6-2.674-6-6a5.98 5.98 0 0 1 5-5.916z"/></svg>