<svg xmlns="http://www.w3.org/2000/svg" width="24" height="24" viewBox="0 0 24 24"><path d="M14 1c-1.37 0-2.353 1.028-2.705 2.293A1 1 0 0 0 11 4a1 1 0 0 0 .293.707A1 1 0 0 0 12 5a1 1 0 0 0 .707-.295C13.972 4.353 15 3.37 15 2a1 1 0 0 0-1-1zm.94 5c-.886.016-1.654.318-2.268.584-.563.244-1.095.416-1.186.477-.112-.055-.538-.2-.994-.416-.588-.28-1.313-.637-2.207-.637-1.943 0-3.41 1.077-4.21 2.445C3.272 9.821 3 11.45 3 12.928c0 1.835.57 3.94 1.443 5.693.437.877.949 1.663 1.56 2.277.613.615 1.37 1.102 2.282 1.102h.043c.714-.03 1.266-.199 1.729-.322.462-.124.85-.215 1.443-.215.575 0 .793.085 1.23.223.438.137 1.07.314 1.985.314.736 0 1.348-.315 1.924-.72.575-.406 1.113-.935 1.597-1.534C19.206 18.548 20 17.11 20 15.62a1 1 0 0 0-.656-.94l-.131-.036-.02-.006-.021-.004-.059-.014a2.8 2.8 0 0 1-.885-.395c-.466-.321-.896-.759-.908-1.845-.006-.793.397-1.274.909-1.668a4.2 4.2 0 0 1 1.003-.566l.088-.034c.026-.01-.028.03.159-.072a1 1 0 0 0 .347-1.441c-.685-1.005-1.634-1.625-2.476-2.01-.838-.383-1.522-.541-2.022-.576h-.002A4 4 0 0 0 14.94 6zm.044 2.002q.097-.002.188.004h.01c.087.006.726.12 1.338.4.267.123.467.394.722.576-.084.058-.147.077-.232.143-.81.623-1.703 1.733-1.69 3.273v.002c.019 1.71.916 2.88 1.774 3.471.238.164.428.222.642.32-.164.69-.436 1.533-1.054 2.297-.386.477-.817.89-1.196 1.157s-.704.355-.771.355c-.692 0-.967-.092-1.383-.223-.416-.13-1.001-.314-1.832-.314-.822 0-1.46.15-1.959.283-.486.13-.831.225-1.266.248-.16-.003-.467-.118-.855-.508-.393-.394-.818-1.02-1.186-1.757C5.5 16.253 5 14.32 5 12.928c0-1.213.263-2.544.8-3.463.539-.92 1.212-1.457 2.485-1.457.284 0 .804.183 1.346.441s1.012.637 1.869.637c.915 0 1.357-.402 1.967-.666.533-.231 1.067-.404 1.517-.418z"/></svg>