<svg xmlns="http://www.w3.org/2000/svg" width="24" height="24" viewBox="0 0 24 24"><path d="M3 2a1 1 0 0 0-.707.293 1 1 0 0 0 0 1.414l.39.39a3.05 3.05 0 0 0-.617 2.536A3.05 3.05 0 0 0 4 8.826V18c0 1.645 1.355 3 3 3h10a3 3 0 0 0 1.902-.684l1.391 1.391a1 1 0 0 0 1.414 0 1 1 0 0 0 0-1.414l-2.139-2.139a1 1 0 0 0-.08-.08l-.031-.03-6.728-6.728-.045-.045-3.977-3.978-5-5A1 1 0 0 0 3 2zm5 1a1 1 0 0 0-1 1 1 1 0 0 0 1 1h11c.417 0 .602.12.752.29.15.168.248.432.248.71s-.098.542-.248.71c-.15.17-.335.29-.752.29h-7a1 1 0 0 0-1 1 1 1 0 0 0 1 1h6v6a1 1 0 0 0 1 1 1 1 0 0 0 1-1V8.842a2.86 2.86 0 0 0 1.248-.803A3.05 3.05 0 0 0 22 6a3.05 3.05 0 0 0-.752-2.04C20.731 3.38 19.917 3 19 3zM4.094 5.508 5.586 7H5c-.622 0-.882-.341-.979-.79-.054-.251-.044-.493.073-.702zM6 9h1.586l2.064 2.064A1 1 0 0 0 9 12a1 1 0 0 0 1 1h1.586l5.88 5.88A1 1 0 0 1 17 19H7c-.564 0-1-.436-1-1z"/></svg>