<svg xmlns="http://www.w3.org/2000/svg" width="24" height="24" viewBox="0 0 24 24"><path d="M3 8a1 1 0 0 0-.707.293 1 1 0 0 0 0 1.414L4.586 12l-2.293 2.293a1 1 0 0 0 0 1.414 1 1 0 0 0 1.414 0L6.414 13h12.172l-1.293 1.293a1 1 0 0 0 0 1.414 1 1 0 0 0 1.414 0l3-3a1 1 0 0 0 .098-.115l.004-.004.002-.004a1 1 0 0 0 .136-.268l.006-.02A1 1 0 0 0 22 12a1 1 0 0 0-.008-.113v-.008l-.002-.014-.013-.072-.012-.05-.026-.085-.02-.049-.026-.056-.008-.018-.008-.014a1 1 0 0 0-.05-.082l-.005-.007-.004-.006a1 1 0 0 0-.058-.076l-.033-.036-.02-.021-.043-.041-2.957-2.959a1 1 0 0 0-1.414 0 1 1 0 0 0 0 1.414L18.586 11H6.414L3.707 8.293A1 1 0 0 0 3 8z"/></svg>