<svg xmlns="http://www.w3.org/2000/svg" width="24" height="24" viewBox="0 0 24 24"><path d="M12 3a1 1 0 0 0-.28.045 1 1 0 0 0-.1.04 1 1 0 0 0-.167.085 1 1 0 0 0-.086.066 1 1 0 0 0-.074.057l-4 4a1 1 0 0 0 0 1.414 1 1 0 0 0 1.414 0L11 6.414V8c0 2.541-.478 4.521-1.357 5.986-.88 1.465-2.15 2.462-3.96 3.065a1 1 0 0 0-.632 1.265 1 1 0 0 0 1.265.633c1.97-.656 3.567-1.806 4.684-3.39V20a1 1 0 0 0 1 1 1 1 0 0 0 1-1V6.414l2.293 2.293a1 1 0 0 0 1.414 0 1 1 0 0 0 0-1.414l-3.959-3.957-.041-.043-.008-.006a1 1 0 0 0-.19-.144l-.019-.012A1 1 0 0 0 12 3z"/></svg>