<svg xmlns="http://www.w3.org/2000/svg" width="24" height="24" viewBox="0 0 24 24"><path d="M9 5a1 1 0 0 0-.707.293l-4 4a1 1 0 0 0-.19.283 1 1 0 0 0-.037.09A1 1 0 0 0 4 10a1 1 0 0 0 .066.334 1 1 0 0 0 .038.09 1 1 0 0 0 .189.283l4 4a1 1 0 0 0 1.414 0 1 1 0 0 0 0-1.414L7.414 11H16c1.083 0 1.769.37 2.252.914S19 13.222 19 14s-.265 1.542-.748 2.086S17.083 17 16 17h-1a1 1 0 0 0-1 1 1 1 0 0 0 1 1h1c1.583 0 2.898-.63 3.748-1.586S21 15.222 21 14s-.402-2.458-1.252-3.414S17.583 9 16 9H7.414l2.293-2.293a1 1 0 0 0 0-1.414A1 1 0 0 0 9 5z"/></svg>