<svg xmlns="http://www.w3.org/2000/svg" width="24" height="24" viewBox="0 0 24 24"><path d="M10 2a1 1 0 0 0-.236.03 1 1 0 0 0-.098.034 1 1 0 0 0-.135.057 1 1 0 0 0-.08.05 1 1 0 0 0-.117.09l-.041.032-.025.035a1 1 0 0 0-.14.192l-.02.035a1 1 0 0 0-.087.26l-.01.081A1 1 0 0 0 9 3v4a1 1 0 0 0 1 1 1 1 0 0 0 1-1V5.414l9.293 9.293a1 1 0 0 0 1.414 0 1 1 0 0 0 0-1.414L12.414 4H14a1 1 0 0 0 1-1 1 1 0 0 0-1-1zM3 9a1 1 0 0 0-.707.293 1 1 0 0 0 0 1.414L11.586 20H10a1 1 0 0 0-1 1 1 1 0 0 0 1 1h4a1 1 0 0 0 .104-.012l.082-.01a1 1 0 0 0 .26-.085l.034-.022a1 1 0 0 0 .192-.139l.035-.025a1 1 0 0 0 .193-.273l.002-.004a1 1 0 0 0 .073-.207v-.008a1 1 0 0 0 .023-.197L15 21v-4a1 1 0 0 0-1-1 1 1 0 0 0-1 1v1.586L3.707 9.293A1 1 0 0 0 3 9z"/></svg>