<svg xmlns="http://www.w3.org/2000/svg" width="24" height="24" viewBox="0 0 24 24"><path d="M6 3a1 1 0 0 0-.707.293l-3 3a1 1 0 0 0-.19.283 1 1 0 0 0-.037.09 1 1 0 0 0 0 .668 1 1 0 0 0 .038.09 1 1 0 0 0 .189.283l3 3a1 1 0 0 0 1.414 0 1 1 0 0 0 0-1.414L5.414 8H21a1 1 0 0 0 1-1 1 1 0 0 0-1-1H5.414l1.293-1.293a1 1 0 0 0 0-1.414A1 1 0 0 0 6 3zm0 10a1 1 0 0 0-.707.293l-3 3a1 1 0 0 0-.19.283 1 1 0 0 0-.037.09A1 1 0 0 0 2 17a1 1 0 0 0 .066.334 1 1 0 0 0 .038.09 1 1 0 0 0 .189.283l3 3a1 1 0 0 0 1.414 0 1 1 0 0 0 0-1.414L5.414 18H21a1 1 0 0 0 1-1 1 1 0 0 0-1-1H5.414l1.293-1.293a1 1 0 0 0 0-1.414A1 1 0 0 0 6 13z"/></svg>