<svg xmlns="http://www.w3.org/2000/svg" width="24" height="24" viewBox="0 0 24 24"><path d="M10 2a1 1 0 0 0-.707.293 1 1 0 0 0 0 1.414L18.586 13H17a1 1 0 0 0-1 1 1 1 0 0 0 1 1h4a1 1 0 0 0 .104-.012l.082-.01a1 1 0 0 0 .26-.085l.034-.022a1 1 0 0 0 .192-.139l.035-.025a1 1 0 0 0 .074-.084 1 1 0 0 0 .115-.184l.004-.005.002-.004a1 1 0 0 0 .069-.198l.004-.01v-.007a1 1 0 0 0 .023-.197L22 14v-4a1 1 0 0 0-1-1 1 1 0 0 0-1 1v1.586l-9.293-9.293A1 1 0 0 0 10 2zM3 9a1 1 0 0 0-.236.03 1 1 0 0 0-.098.034 1 1 0 0 0-.135.057 1 1 0 0 0-.08.05 1 1 0 0 0-.117.09l-.041.032-.025.035a1 1 0 0 0-.14.192l-.02.035a1 1 0 0 0-.087.26l-.01.081A1 1 0 0 0 2 10v4a1 1 0 0 0 1 1 1 1 0 0 0 1-1v-1.586l9.293 9.293a1 1 0 0 0 1.414 0 1 1 0 0 0 0-1.414L5.414 11H7a1 1 0 0 0 1-1 1 1 0 0 0-1-1z"/></svg>