<svg xmlns="http://www.w3.org/2000/svg" width="24" height="24" viewBox="0 0 24 24"><path d="M12 2C6.489 2 2 6.489 2 12s4.489 10 10 10 10-4.489 10-10S17.511 2 12 2zm0 2c4.43 0 8 3.57 8 8s-3.57 8-8 8-8-3.57-8-8 3.57-8 8-8zm0 3a1 1 0 0 0-.195.02l-.032.01h-.002l-.08.023a1 1 0 0 0-.156.066l-.05.03h-.003a1 1 0 0 0-.189.144l-4 4a1 1 0 0 0 0 1.414 1 1 0 0 0 1.414 0L11 10.414V16a1 1 0 0 0 1 1 1 1 0 0 0 1-1v-5.586l2.293 2.293a1 1 0 0 0 1.414 0 1 1 0 0 0 0-1.414L12.74 7.328l-.002-.002-.031-.033-.012-.01a1 1 0 0 0-.133-.11l-.007-.005-.006-.002-.006-.004a1 1 0 0 0-.139-.074l-.004-.002-.017-.01-.012-.004a1 1 0 0 0-.162-.049l-.014-.003-.011-.002A1 1 0 0 0 12 7z"/></svg>