<svg xmlns="http://www.w3.org/2000/svg" width="24" height="24" viewBox="0 0 24 24"><path d="M18 3a1 1 0 0 0-.707.293 1 1 0 0 0 0 1.414L18.586 6H16a6 6 0 0 0-5 2.693A6 6 0 0 0 6 6H3a1 1 0 0 0-1 1 1 1 0 0 0 1 1h3c2.221 0 4 1.779 4 4s-1.779 4-4 4H3a1 1 0 0 0-1 1 1 1 0 0 0 1 1h3a6 6 0 0 0 5-2.693A6 6 0 0 0 16 18h2.586l-1.293 1.293a1 1 0 0 0 0 1.414 1 1 0 0 0 1.414 0l3-3a1 1 0 0 0 .217-.324l.002-.006a1 1 0 0 0 .066-.496l-.008-.055a1 1 0 0 0-.025-.107l-.008-.02a1 1 0 0 0-.031-.088l-.014-.033-.017-.031-.024-.047-.008-.012-.03-.049a1 1 0 0 0-.071-.093l-.01-.01-.039-.043-3-3a1 1 0 0 0-1.414 0 1 1 0 0 0 0 1.414L18.586 16H16c-2.221 0-4-1.779-4-4s1.779-4 4-4h2.586l-1.293 1.293a1 1 0 0 0 0 1.414 1 1 0 0 0 1.414 0l3-3a1 1 0 0 0 .213-.318l.004-.006.002-.006A1 1 0 0 0 22 7a1 1 0 0 0-.008-.12l-.006-.04-.002-.014a1 1 0 0 0-.025-.107l-.008-.02a1 1 0 0 0-.031-.088l-.014-.033-.017-.031-.024-.047-.008-.012-.03-.049a1 1 0 0 0-.061-.082l-.01-.011-.01-.01-.039-.043-3-3A1 1 0 0 0 18 3z"/></svg>