<svg xmlns="http://www.w3.org/2000/svg" width="24" height="24" viewBox="0 0 24 24"><path d="M12 3a1 1 0 0 0-.28.045 1 1 0 0 0-.1.04 1 1 0 0 0-.167.085 1 1 0 0 0-.086.066 1 1 0 0 0-.074.057l-4 4a1 1 0 0 0 0 1.414 1 1 0 0 0 1.414 0L11 6.414V20a1 1 0 0 0 1 1 1 1 0 0 0 1-1v-4.441c1.117 1.584 2.714 2.734 4.684 3.39a1 1 0 0 0 1.265-.633 1 1 0 0 0-.633-1.265c-1.81-.603-3.08-1.6-3.959-3.065S13 10.541 13 8V6.414l2.293 2.293a1 1 0 0 0 1.414 0 1 1 0 0 0 0-1.414l-3.959-3.957-.041-.043-.008-.006a1 1 0 0 0-.19-.144l-.019-.012A1 1 0 0 0 12 3z"/></svg>