<svg xmlns="http://www.w3.org/2000/svg" width="24" height="24" viewBox="0 0 24 24"><path d="M12 2a1 1 0 0 0-1 1 1 1 0 0 0 1 1c4.43 0 8 3.57 8 8s-3.57 8-8 8a1 1 0 0 0-1 1 1 1 0 0 0 1 1c5.511 0 10-4.489 10-10S17.511 2 12 2zm-1 5a1 1 0 0 0-.707.293 1 1 0 0 0 0 1.414L12.586 11H3a1 1 0 0 0-1 1 1 1 0 0 0 1 1h9.586l-2.293 2.293a1 1 0 0 0 0 1.414 1 1 0 0 0 1.414 0l4-4a1 1 0 0 0 .102-.12l.002-.003a1 1 0 0 0 .14-.275v-.002a1 1 0 0 0 .043-.405 1 1 0 0 0-.014-.097l-.005-.028-.006-.017a1 1 0 0 0-.026-.09l-.004-.008a1 1 0 0 0-.039-.096l-.02-.037-.007-.011-.041-.073a1 1 0 0 0-.125-.152l-4-4A1 1 0 0 0 11 7z"/></svg>