<svg xmlns="http://www.w3.org/2000/svg" width="24" height="24" viewBox="0 0 24 24"><path d="M4 3a1 1 0 0 0-1 1 1 1 0 0 0 1 1h16a1 1 0 0 0 1-1 1 1 0 0 0-1-1zm8 6a1 1 0 0 0-1 1v7.586l-2.293-2.293A1 1 0 0 0 8 15a1 1 0 0 0-.707.293 1 1 0 0 0 0 1.414l4 4a1 1 0 0 0 .191.147 1 1 0 0 0 .086.04 1 1 0 0 0 .133.057 1 1 0 0 0 .106.024 1 1 0 0 0 .146.02L12 21l.045-.006h.066l.08-.02h.008a1 1 0 0 0 .098-.023l.033-.008a1 1 0 0 0 .1-.048 1 1 0 0 0 .086-.041 1 1 0 0 0 .191-.147l4-4a1 1 0 0 0 0-1.414 1 1 0 0 0-1.414 0L13 17.586V10a1 1 0 0 0-1-1z"/></svg>