<svg xmlns="http://www.w3.org/2000/svg" width="24" height="24" viewBox="0 0 24 24"><path d="M6 3a1 1 0 0 0-.707.293l-3 3a1 1 0 0 0-.19.283 1 1 0 0 0-.037.09 1 1 0 0 0 0 .668 1 1 0 0 0 .038.09 1 1 0 0 0 .189.283l3 3a1 1 0 0 0 1.414 0 1 1 0 0 0 0-1.414L5.414 8H21a1 1 0 0 0 1-1 1 1 0 0 0-1-1H5.414l1.293-1.293a1 1 0 0 0 0-1.414A1 1 0 0 0 6 3zm12 10a1 1 0 0 0-.707.293 1 1 0 0 0 0 1.414L18.586 16H3a1 1 0 0 0-1 1 1 1 0 0 0 1 1h15.586l-1.293 1.293a1 1 0 0 0 0 1.414 1 1 0 0 0 1.414 0l3-3a1 1 0 0 0 .213-.318l.004-.006.002-.006A1 1 0 0 0 22 17a1 1 0 0 0-.006-.105l-.008-.06-.002-.009-.004-.017a1 1 0 0 0-.033-.123l-.008-.028-.015-.04-.008-.016a1 1 0 0 0-.05-.102 1 1 0 0 0-.063-.094l-.01-.015-.014-.016a1 1 0 0 0-.072-.082l-3-3A1 1 0 0 0 18 13z"/></svg>