<svg xmlns="http://www.w3.org/2000/svg" width="24" height="24" viewBox="0 0 24 24"><path d="M7 7a1 1 0 0 0-.707.293l-4 4a1 1 0 0 0-.19.283 1 1 0 0 0-.037.09A1 1 0 0 0 2 12a1 1 0 0 0 .066.334 1 1 0 0 0 .038.09 1 1 0 0 0 .189.283l4 4a1 1 0 0 0 1.414 0 1 1 0 0 0 0-1.414L5.414 13h13.172l-2.293 2.293a1 1 0 0 0 0 1.414 1 1 0 0 0 1.414 0l4-4a1 1 0 0 0 .217-.324A1 1 0 0 0 22 12a1 1 0 0 0-.006-.098l-.012-.08-.002-.017-.005-.02-.016-.064-.002-.012a1 1 0 0 0-.092-.209l-.011-.018a1 1 0 0 0-.051-.078l-.01-.013-.006-.006a1 1 0 0 0-.08-.092l-4-4a1 1 0 0 0-1.414 0 1 1 0 0 0 0 1.414L18.586 11H5.414l2.293-2.293a1 1 0 0 0 0-1.414A1 1 0 0 0 7 7z"/></svg>