<svg xmlns="http://www.w3.org/2000/svg" width="24" height="24" viewBox="0 0 24 24"><path d="M16 3a1 1 0 0 0-1 1 1 1 0 0 0 1 1h1.586l-4.293 4.293a1 1 0 0 0 0 1.414 1 1 0 0 0 1.414 0L19 6.414V8a1 1 0 0 0 1 1 1 1 0 0 0 1-1V4a1 1 0 0 0-.025-.223l-.002-.007a1 1 0 0 0-.073-.204l-.005-.01a1 1 0 0 0-.188-.263l-.041-.031a1 1 0 0 0-.117-.09 1 1 0 0 0-.08-.049 1 1 0 0 0-.168-.07l-.055-.02A1 1 0 0 0 20 3zm-6 10a1 1 0 0 0-.707.293L5 17.586V16a1 1 0 0 0-1-1 1 1 0 0 0-1 1v4a1 1 0 0 0 .033.246l.02.055a1 1 0 0 0 .07.168 1 1 0 0 0 .049.08 1 1 0 0 0 .09.117l.031.041.041.031a1 1 0 0 0 .117.09 1 1 0 0 0 .08.049 1 1 0 0 0 .168.07l.055.02A1 1 0 0 0 4 21h4a1 1 0 0 0 1-1 1 1 0 0 0-1-1H6.414l4.293-4.293a1 1 0 0 0 0-1.414A1 1 0 0 0 10 13z"/></svg>