<svg xmlns="http://www.w3.org/2000/svg" width="24" height="24" viewBox="0 0 24 24"><path d="M8 2a1 1 0 0 0-1 1v1l.008.117A1 1 0 0 0 9 4V3l-.008-.117A1 1 0 0 0 8 2zm8 0a1 1 0 0 0-1 1v1l.008.117A1 1 0 0 0 17 4V3l-.008-.117A1 1 0 0 0 16 2zM3 7l-.117.008A1 1 0 0 0 3 9h1l.117-.008A1 1 0 0 0 4 7zm6 0a2 2 0 0 0-2 2v6a2 2 0 0 0 2 2h6a2 2 0 0 0 2-2V9a2 2 0 0 0-2-2zm11 0-.117.008A1 1 0 0 0 20 9h1l.117-.008A1 1 0 0 0 21 7zM3 15l-.117.008A1 1 0 0 0 3 17h1l.117-.008A1 1 0 0 0 4 15zm17 0-.117.008A1 1 0 0 0 20 17h1l.117-.008A1 1 0 0 0 21 15zM8 19a1 1 0 0 0-1 1v1l.008.117A1 1 0 0 0 9 21v-1l-.008-.117A1 1 0 0 0 8 19zm8 0a1 1 0 0 0-1 1v1l.008.117A1 1 0 0 0 17 21v-1l-.008-.117A1 1 0 0 0 16 19z"/></svg>