<svg xmlns="http://www.w3.org/2000/svg" width="24" height="24" viewBox="0 0 24 24"><path d="M3 2a1 1 0 0 0-.707.293 1 1 0 0 0 0 1.414l.389.389A3 3 0 0 0 2 6v12c0 1.645 1.355 3 3 3h13.998q.27-.002.535-.053l.76.76a1 1 0 0 0 1.414 0 1 1 0 0 0 0-1.414l-1.182-1.182-.03-.03-3.788-3.788-4-4-4-4-5-5A1 1 0 0 0 3 2zm5 1a1 1 0 0 0-1 1 1 1 0 0 0 1 1h11c.564 0 1 .436 1 1v11a1 1 0 0 0 1 1 1 1 0 0 0 1-1V6c0-1.645-1.355-3-3-3zM4.117 5.531l2.004 2.004A1 1 0 0 0 6 8a1 1 0 0 0 1 1h.586l2 2H7a1 1 0 0 0-1 1 1 1 0 0 0 1 1h4.586l2 2H7a1 1 0 0 0-1 1 1 1 0 0 0 1 1h8.586l2 2H5c-.564 0-1-.436-1-1V6c0-.168.043-.327.117-.469zM12 7a1 1 0 0 0-1 1 1 1 0 0 0 1 1h5a1 1 0 0 0 1-1 1 1 0 0 0-1-1zm4 4a1 1 0 0 0-1 1 1 1 0 0 0 1 1h1a1 1 0 0 0 1-1 1 1 0 0 0-1-1z"/></svg>