<svg xmlns="http://www.w3.org/2000/svg" width="24" height="24" viewBox="0 0 24 24"><path d="M12.033 1c-.554 0-1.107.138-1.607.414l-.026.014-6.724 3.967A3.23 3.23 0 0 0 2 8.217v7.287a3.23 3.23 0 0 0 1.678 2.824l6.695 4.236.053.032c.978.537 2.17.537 3.148 0l.053-.032 6.75-4.27-.053.032A3.23 3.23 0 0 0 22 15.502V8.225c.007-1.101-.582-2.098-1.498-2.694a1 1 0 0 0-.086-.123l-6.75-3.98-.025-.014A3.3 3.3 0 0 0 12.033 1zm0 2.002c.22 0 .44.054.64.164l6.696 3.947.012.026c.387.22.622.627.619 1.072v7.291c0 .444-.241.853-.64 1.072l-.053.031-6.702 4.239a1.27 1.27 0 0 1-1.21 0l-6.702-4.239-.056-.033A1.22 1.22 0 0 1 4 15.502V8.217c0-.444.24-.85.64-1.07l.026-.016 6.725-3.965h.002c.2-.11.42-.164.64-.164zm-.02 3.498c-.34 0-.681.086-.988.258l-.023.013L8.027 8.55A2.01 2.01 0 0 0 7 10.299v3.277c0 .726.395 1.398 1.03 1.75l-.055-.031 3 1.922.054.031c.602.334 1.34.334 1.942 0l.054-.031 3-1.922-.054.031A2.01 2.01 0 0 0 17 13.574v-3.267c.006-.683-.356-1.305-.926-1.676l-.047-.069-3-1.79-.023-.012a2 2 0 0 0-.99-.26zm-.011 2.004h.002a.02.02 0 0 1 .021 0l2.965 1.767.01.018v3.285q0 .004-.002.004l-.053.031L12 15.496 9.055 13.61 9 13.58V10.3q0-.004.002-.004l.025-.016zm4.467.865.031.053-.062.062a1 1 0 0 0 .03-.115z"/></svg>