<svg xmlns="http://www.w3.org/2000/svg" width="24" height="24" viewBox="0 0 24 24"><path d="M19 2c-.664 0-1.338.2-1.895.633L5.602 8.877l-.047.035A7.01 7.01 0 0 0 2 15c0 3.854 3.146 7 7 7a7.01 7.01 0 0 0 6.047-3.482l.049-.065L21.41 6.84c.366-.495.59-1.138.59-1.84 0-.917-.38-1.731-.96-2.248A3.05 3.05 0 0 0 19 2zm0 2c.278 0 .542.098.71.248.17.15.29.335.29.752 0 .122-.012.221-.031.309l-.01.015-.215.397-.033.031c-.169.15-.433.248-.711.248s-.542-.098-.71-.248C18.12 5.602 18 5.417 18 5c0-.378.1-.565.244-.709l.473-.256Q18.853 4.001 19 4zm-2.963 1.488c.108.715.448 1.337.924 1.76a3 3 0 0 0 1.562.717l-2.789 5.13a7.04 7.04 0 0 0-4.82-4.825zM9 10c2.773 0 5 2.227 5 5s-2.227 5-5 5-5-2.227-5-5a4.98 4.98 0 0 1 2.547-4.361l.01-.004.197-.108A5 5 0 0 1 9 10zm0 2a3.05 3.05 0 0 0-2.04.752c-.544.484-.912 1.231-.956 2.078A3 3 0 0 0 6 15c0 .917.38 1.731.96 2.248A3.05 3.05 0 0 0 9 18a3.05 3.05 0 0 0 2.04-.752c.58-.517.96-1.331.96-2.248s-.38-1.731-.96-2.248A3.05 3.05 0 0 0 9 12zm0 2c.278 0 .542.098.71.248.17.15.29.335.29.752s-.12.602-.29.752c-.168.15-.432.248-.71.248s-.542-.098-.71-.248C8.12 15.602 8 15.417 8 15q0-.078.006-.146c.025-.317.135-.475.283-.606.169-.15.433-.248.711-.248z"/></svg>