<svg xmlns="http://www.w3.org/2000/svg" width="24" height="24" viewBox="0 0 24 24"><path d="M3 2a1 1 0 0 0-.707.293 1 1 0 0 0 0 1.414L3.656 5.07a3.7 3.7 0 0 0-.271 1.543c.024.879.277 1.807.695 2.783.36.84.854 1.716 1.451 2.604-.598.889-1.091 1.766-1.45 2.605-.42.977-.672 1.904-.696 2.782-.025.878.207 1.763.836 2.392h.002c.63.63 1.514.863 2.392.838.878-.024 1.805-.279 2.781-.697.84-.36 1.718-.852 2.606-1.45.888.598 1.765 1.09 2.603 1.45.977.418 1.904.67 2.782.695a3.7 3.7 0 0 0 1.543-.271l1.363 1.363a1 1 0 0 0 1.414 0 1 1 0 0 0 0-1.414l-1.914-1.914-.02-.02-4.238-4.238-2.795-2.793a1 1 0 0 0-.068-.068L9.879 8.465 5.637 4.223l-1.93-1.93A1 1 0 0 0 3 2zm14.625 1.379c-.638-.013-1.317.112-1.994.322-1.146.355-2.378.982-3.635 1.83-.888-.596-1.765-1.09-2.6-1.449a1 1 0 0 0-.765-.012 1 1 0 0 0-.549.534 1 1 0 0 0 .522 1.314 13.5 13.5 0 0 1 1.785.957 1 1 0 0 0 .113 1.031 1 1 0 0 0 1.404.164l.092-.07a23 23 0 0 1 2.123 1.879A23 23 0 0 1 16 12l-.072.096a1 1 0 0 0 .166 1.404 1 1 0 0 0 1.037.111c.39.623.711 1.225.95 1.782a1 1 0 0 0 1.312.527 1 1 0 0 0 .527-1.313c-.36-.84-.85-1.717-1.447-2.605.847-1.255 1.471-2.486 1.826-3.63.48-1.549.513-3.115-.522-4.15-.517-.517-1.166-.769-1.88-.83a4 4 0 0 0-.272-.013zm-.262 2.01c.517-.026.844.092 1 .248.25.249.4.938.026 2.142-.228.735-.636 1.597-1.198 2.512a25.4 25.4 0 0 0-3.484-3.482c.917-.563 1.78-.97 2.516-1.198.451-.14.83-.207 1.14-.222zM5.404 6.819l2.367 2.367q-.505.549-.96 1.103a13 13 0 0 1-.891-1.68c-.295-.687-.461-1.304-.516-1.79zm3.784 3.783 2.039 2.039a1 1 0 0 0 .142.142l2.031 2.031c-.464.428-.933.823-1.398 1.186a23 23 0 0 1-2.123-1.879A23 23 0 0 1 8 12.002q.545-.7 1.188-1.4zm-2.377 3.11a25.6 25.6 0 0 0 3.478 3.477c-.587.362-1.154.666-1.68.891-.815.35-1.535.523-2.05.537s-.771-.1-.922-.252-.269-.407-.254-.922c.014-.514.188-1.233.537-2.048.225-.526.529-1.094.89-1.682zm8.003 2.517 2.368 2.367c-.486-.055-1.102-.222-1.787-.516a13 13 0 0 1-1.68-.89q.552-.456 1.1-.961z"/></svg>