<svg xmlns="http://www.w3.org/2000/svg" width="24" height="24" viewBox="0 0 24 24"><path d="M5 2a3.05 3.05 0 0 0-2.04.752C2.38 3.269 2 4.083 2 5s.38 1.731.96 2.248c.312.276.667.471 1.04.594V10c0 1.093.907 2 2 2h2v6c0 1.093.907 2 2 2h3a1 1 0 0 0 1-1 1 1 0 0 0-1-1h-3v-6h3a1 1 0 0 0 1-1 1 1 0 0 0-1-1H6V7.842a2.9 2.9 0 0 0 1.04-.594C7.62 6.731 8 5.917 8 5s-.38-1.731-.96-2.248A3.05 3.05 0 0 0 5 2zm0 2c.278 0 .542.098.71.248.17.15.29.335.29.752s-.12.602-.29.752C5.543 5.902 5.279 6 5 6s-.542-.098-.71-.248C4.12 5.602 4 5.417 4 5s.12-.602.29-.752C4.457 4.098 4.721 4 5 4zm12 3a1 1 0 0 0-1 1v5a1 1 0 0 0 1 1 1 1 0 0 0 1-1v-1h.5c.75 0 1.44-.317 1.873-.805A2.53 2.53 0 0 0 21 9.5c0-.597-.194-1.208-.627-1.695S19.25 7 18.5 7zm1 2h.5c.25 0 .31.058.377.133A.58.58 0 0 1 19 9.5a.58.58 0 0 1-.123.367c-.067.075-.127.133-.377.133H18zm-1 7a1 1 0 0 0-1 1v4a1 1 0 0 0 1 1h1c.917 0 1.731-.38 2.248-.96A3.05 3.05 0 0 0 21 19a3.05 3.05 0 0 0-.752-2.04C19.731 16.38 18.917 16 18 16zm1 2c.417 0 .602.12.752.29.15.168.248.432.248.71s-.098.542-.248.71c-.15.17-.335.29-.752.29z"/></svg>