<svg xmlns="http://www.w3.org/2000/svg" width="24" height="24" viewBox="0 0 24 24"><path d="M12 2C8.146 2 5 5.146 5 9c0 1.06.239 2.066.664 2.969L2.535 17.39a1 1 0 0 0 .932 1.498l2.931-.192 1.303 2.635a1 1 0 0 0 1.764.057l2.533-4.391 2.535 4.393a1 1 0 0 0 1.764-.057l1.303-2.637 2.931.19a1 1 0 0 0 .932-1.498l-3.129-5.418A6.94 6.94 0 0 0 19 9c0-3.854-3.146-7-7-7zm0 2c2.773 0 5 2.227 5 5s-2.227 5-5 5a4.98 4.98 0 0 1-4.309-2.453 1 1 0 0 0-.048-.086l-.014-.024A5 5 0 0 1 7 9c0-2.773 2.227-5 5-5zm-5.082 9.8a7 7 0 0 0 3.459 2.009L8.666 18.77l-.77-1.558a1 1 0 0 0-.96-.555l-1.733.113zm10.164.003 1.713 2.967-1.733-.112a1 1 0 0 0-.96.557l-.77 1.558-1.71-2.964a7 7 0 0 0 3.46-2.006z"/></svg>