<svg xmlns="http://www.w3.org/2000/svg" width="24" height="24" viewBox="0 0 24 24"><path d="M4.5 4c-.597 0-1.208.194-1.695.627S2 5.75 2 6.5V11a1 1 0 0 0 1 1 1 1 0 0 0 1-1v-1h1v1a1 1 0 0 0 1 1 1 1 0 0 0 1-1V6.5c0-.75-.317-1.44-.805-1.873A2.53 2.53 0 0 0 4.5 4zM19 4c-1.093 0-2 .907-2 2v1c0 1.093.907 2 2 2h1v1h-1.049A1 1 0 0 0 18 9.25a1 1 0 0 0-1 1c0 .955.795 1.75 1.75 1.75H20c1.093 0 2-.907 2-2V9c0-1.093-.907-2-2-2h-1V6h1.104a1 1 0 0 0 .896.75 1 1 0 0 0 1-1C22 4.795 21.205 4 20.25 4zm-9.936.002a1 1 0 0 0-.26.018 1 1 0 0 0-.784 1.175l1.199 6a1 1 0 0 0 1.892.215L12 9.436l.889 1.974a1 1 0 0 0 1.892-.215l1.2-6a1 1 0 0 0-.786-1.175 1 1 0 0 0-1.175.785l-.588 2.94-.52-1.155a1 1 0 0 0-1.824 0l-.52 1.154-.588-2.94a1 1 0 0 0-.916-.802zM4.5 6a.58.58 0 0 1 .367.123C4.942 6.19 5 6.25 5 6.5V8H4V6.5c0-.25.058-.31.133-.377A.58.58 0 0 1 4.5 6zm12.545 8.002a1 1 0 0 0-1.043.953 1 1 0 0 0 .953 1.043c1.133.052 2.089.235 2.938.62-.147 1.336-.56 2.79-1.235 3.841a1 1 0 0 0 .301 1.383 1 1 0 0 0 1.383-.301c1.03-1.604 1.603-3.64 1.658-5.512a1 1 0 0 0-.457-.869c-1.438-.928-3.029-1.09-4.498-1.158zM2.883 16.008a1 1 0 0 0-.668.373 1 1 0 0 0 .166 1.404 15.6 15.6 0 0 0 7.084 3.14 1 1 0 0 0 .11.012 16.2 16.2 0 0 0 7.853-1.533 1 1 0 0 0 .476-1.332 1 1 0 0 0-1.332-.476 14.2 14.2 0 0 1-6.828 1.342 13.6 13.6 0 0 1-6.125-2.723 1 1 0 0 0-.736-.207z"/></svg>