<svg xmlns="http://www.w3.org/2000/svg" width="24" height="24" viewBox="0 0 24 24"><path d="M16.39 2.006q-.506.008-1.003.103c-1.13.217-2.201.733-3.201 1.448l-.08.023a1 1 0 0 0-.426.357 14 14 0 0 0-1.116 1.002l-5.642 5.637c-1.467 1.465-2.534 3.149-2.838 4.963s.257 3.74 1.812 5.293l.022.02.143.134.029.026a4.01 4.01 0 0 0 5.451-.18h.002L20.83 9.559v-.002a4.003 4.003 0 0 0 0-5.643l-.014-.012-.187-.181-.014-.012c-1.272-1.181-2.763-1.723-4.224-1.703zm.266 1.988c.878.022 1.718.364 2.598 1.18l.162.156a1.97 1.97 0 0 1 0 2.813L8.131 19.416a1.987 1.987 0 0 1-2.723.092l-.097-.092-.002-.002c-1.171-1.17-1.46-2.302-1.252-3.545.197-1.176.936-2.47 2.082-3.672l.941 2.198a1 1 0 0 0 1.315.525 1 1 0 0 0 .525-1.315l-1.26-2.939 1.477-1.475.943 2.204a1 1 0 0 0 1.315.525 1 1 0 0 0 .525-1.315l-1.258-2.937 1.317-1.314c.053-.054.108-.101.162-.153l.94 2.194a1 1 0 0 0 1.314.525 1 1 0 0 0 .525-1.315l-1.154-2.693c.678-.425 1.355-.714 1.998-.838q.454-.089.892-.08z"/></svg>