<svg xmlns="http://www.w3.org/2000/svg" width="24" height="24" viewBox="0 0 24 24"><path d="M12 2C7.686 2 3.998 4.751 2.6 8.59l-.032.049a1 1 0 0 0-.015.09A10 10 0 0 0 2 12c0 5.511 4.489 10 10 10s10-4.489 10-10a10 10 0 0 0-.518-3.166 1 1 0 0 0-.05-.195l-.032-.05C20.002 4.752 16.314 2 12 2zm-1 2.064V6.49L7.094 9.32 4.83 8.443A7.98 7.98 0 0 1 11 4.064zm2 0a7.98 7.98 0 0 1 6.17 4.38l-2.264.876L13 6.49zm-1 4.17 3.588 2.602L14.268 15H9.732l-1.32-4.164zm-7.826 2.1 2.258.875 1.472 4.646-1.568 1.805A7.98 7.98 0 0 1 4 12q.002-.86.174-1.666zm15.652 0c.113.537.174 1.094.174 1.666a7.98 7.98 0 0 1-2.324 5.648l-1.557-1.867 1.45-4.572zM9.56 17h4.972l1.565 1.877A8 8 0 0 1 12 20a8 8 0 0 1-4.078-1.111z"/></svg>