<svg xmlns="http://www.w3.org/2000/svg" width="24" height="24" viewBox="0 0 24 24"><path d="M3 2a1 1 0 0 0-.707.293 1 1 0 0 0 0 1.414L5.42 6.834A13.97 13.97 0 0 0 2 16.002C2.001 19.302 4.699 22 8 22a13.96 13.96 0 0 0 9.166-3.42l3.127 3.127a1 1 0 0 0 1.414 0 1 1 0 0 0 0-1.414l-9-9L7.59 6.176a1 1 0 0 0-.069-.08l-.035-.024-3.779-3.779A1 1 0 0 0 3 2zm13 0a13.94 13.94 0 0 0-7.504 2.178 1 1 0 0 0-.307 1.38 1 1 0 0 0 1.381.307 11.9 11.9 0 0 1 5.522-1.832 6.03 6.03 0 0 0 4.875 4.875 11.94 11.94 0 0 1-1.836 5.528 1 1 0 0 0 .306 1.38 1 1 0 0 0 1.381-.306A13.94 13.94 0 0 0 22 8c0-3.301-2.697-5.999-5.998-6zm1.174 2.174a3.98 3.98 0 0 1 2.652 2.652 3.98 3.98 0 0 1-2.652-2.652zM15 8a1 1 0 0 0-.707.293l-1 1a1 1 0 0 0 0 1.414 1 1 0 0 0 1.414 0l1-1a1 1 0 0 0 0-1.414A1 1 0 0 0 15 8zm-8.162.252 2.814 2.814a1 1 0 0 0-.359.227 1 1 0 0 0 0 1.414l.293.293-1.293 1.293a1 1 0 0 0 0 1.414 1 1 0 0 0 1.414 0L11 14.414l.293.293a1 1 0 0 0 1.414 0 1 1 0 0 0 .229-.357l2.812 2.812a11.95 11.95 0 0 1-6.842 2.8 6.025 6.025 0 0 0-4.869-4.868 11.96 11.96 0 0 1 2.8-6.842zm-2.664 8.922a3.98 3.98 0 0 1 2.652 2.652 3.98 3.98 0 0 1-2.652-2.652z"/></svg>