<svg xmlns="http://www.w3.org/2000/svg" width="24" height="24" viewBox="0 0 24 24"><path d="M16 2C8.28 2 2 8.28 2 16c0 3.302 2.698 6 6 6 7.72 0 14-6.28 14-14 0-3.165-2.5-5.71-5.613-5.922l-.006-.002A1 1 0 0 0 16 2zm-.906 2.037a6.025 6.025 0 0 0 4.869 4.87A11.98 11.98 0 0 1 8.906 19.962a6.025 6.025 0 0 0-4.869-4.87A11.98 11.98 0 0 1 15.094 4.038zm2.08.137a3.98 3.98 0 0 1 2.652 2.652 3.98 3.98 0 0 1-2.652-2.652zM15 8a1 1 0 0 0-.707.293L13 9.586l-.293-.293A1 1 0 0 0 12 9a1 1 0 0 0-.707.293 1 1 0 0 0 0 1.414l.293.293-.586.586-.293-.293A1 1 0 0 0 10 11a1 1 0 0 0-.707.293 1 1 0 0 0 0 1.414l.293.293-1.293 1.293a1 1 0 0 0 0 1.414 1 1 0 0 0 1.414 0L11 14.414l.293.293a1 1 0 0 0 1.414 0 1 1 0 0 0 0-1.414L12.414 13l.586-.586.293.293a1 1 0 0 0 1.414 0 1 1 0 0 0 0-1.414L14.414 11l1.293-1.293a1 1 0 0 0 0-1.414A1 1 0 0 0 15 8zM4.174 17.174a3.98 3.98 0 0 1 2.652 2.652 3.98 3.98 0 0 1-2.652-2.652z"/></svg>