<svg xmlns="http://www.w3.org/2000/svg" width="24" height="24" viewBox="0 0 24 24"><path d="M9.06 3.002a1 1 0 0 0-1.01.682L6.946 7H5.002c-1.82 0-3.243 1.656-2.967 3.455l.004.022 1.252 7.13A4.01 4.01 0 0 0 7.244 21H12a1 1 0 0 0 1-1 1 1 0 0 0-1-1H7.244a1.99 1.99 0 0 1-1.976-1.695l-.004-.022-1.25-7.135A.98.98 0 0 1 5 9h1.279l-.228.684a1 1 0 0 0 .633 1.265 1 1 0 0 0 1.265-.633L8.39 9h7.222l.44 1.316a1 1 0 0 0 1.265.633 1 1 0 0 0 .633-1.265L17.721 9H19a.98.98 0 0 1 .988 1.152l-.263 1.5a1 1 0 0 0 .812 1.159 1 1 0 0 0 1.158-.813l.268-1.521.002-.022C22.24 8.656 20.82 7 19 7h-1.945l-1.106-3.316a1 1 0 0 0-1.265-.633 1 1 0 0 0-.633 1.265L14.945 7h-5.89l.894-2.684a1 1 0 0 0-.633-1.265 1 1 0 0 0-.255-.049zM12 11a3.05 3.05 0 0 0-2.04.752C9.38 12.269 9 13.083 9 14s.38 1.731.96 2.248A3.05 3.05 0 0 0 12 17a3.05 3.05 0 0 0 2.04-.752c.58-.517.96-1.331.96-2.248s-.38-1.731-.96-2.248A3.05 3.05 0 0 0 12 11zm0 2c.278 0 .542.098.71.248.17.15.29.335.29.752s-.12.602-.29.752c-.168.15-.432.248-.71.248s-.542-.098-.71-.248c-.17-.15-.29-.335-.29-.752s.12-.602.29-.752A1.1 1.1 0 0 1 12 13zm7.002 1.5a1 1 0 0 0-1 1v.658a2.9 2.9 0 0 0-.982.545l-.551-.318a1 1 0 0 0-1.365.365 1 1 0 0 0 .367 1.365l.578.334a3.3 3.3 0 0 0 0 1.102l-.578.334a1 1 0 0 0-.367 1.365 1 1 0 0 0 1.365.365l.55-.318c.297.25.632.43.983.545v.658a1 1 0 0 0 1 1 1 1 0 0 0 1-1v-.658c.35-.115.684-.295.98-.545l.551.318a1 1 0 0 0 1.365-.365 1 1 0 0 0-.365-1.365l-.578-.334a3.3 3.3 0 0 0 0-1.102l.576-.334a1 1 0 0 0 .367-1.365 1 1 0 0 0-.607-.467 1 1 0 0 0-.76.102l-.549.316a2.9 2.9 0 0 0-.98-.543V15.5a1 1 0 0 0-1-1zm0 3.5c.278 0 .54.098.709.248q.041.037.078.078a1 1 0 0 0 .078.174 1 1 0 0 0 .09.129c.029.1.045.22.045.371 0 .15-.015.268-.043.367a1 1 0 0 0-.092.133 1 1 0 0 0-.078.174q-.037.04-.078.078a1.1 1.1 0 0 1-.709.248c-.278 0-.542-.098-.711-.248a1 1 0 0 1-.074-.074 1 1 0 0 0-.08-.178 1 1 0 0 0-.092-.133 1.4 1.4 0 0 1-.043-.367c0-.152.016-.271.045-.371a1 1 0 0 0 .09-.129 1 1 0 0 0 .08-.178q.035-.038.074-.074c.169-.15.433-.248.711-.248z"/></svg>