<svg xmlns="http://www.w3.org/2000/svg" width="24" height="24" viewBox="0 0 24 24"><path d="M10 7a1 1 0 0 0-1 1v5a1 1 0 0 0 1 1h11a1 1 0 0 0 1-1v-2c0-2.197-1.803-4-4-4zM5 8a3.05 3.05 0 0 0-2.04.752C2.38 9.269 2 10.083 2 11s.38 1.731.96 2.248A3.05 3.05 0 0 0 5 14a3.05 3.05 0 0 0 2.04-.752C7.62 12.731 8 11.917 8 11s-.38-1.731-.96-2.248A3.05 3.05 0 0 0 5 8zm6 1h7c1.116 0 2 .884 2 2v1h-9zm-6 1c.278 0 .542.098.71.248.17.15.29.335.29.752s-.12.602-.29.752c-.168.15-.432.248-.71.248s-.542-.098-.71-.248C4.12 11.602 4 11.417 4 11s.12-.602.29-.752A1.1 1.1 0 0 1 5 10zm-2 5a1 1 0 0 0-1 1 1 1 0 0 0 1 1h18a1 1 0 0 0 1-1 1 1 0 0 0-1-1z"/></svg>