<svg xmlns="http://www.w3.org/2000/svg" width="24" height="24" viewBox="0 0 24 24"><path d="m12 2-.176.004-.181.017a3 3 0 0 0-2.563 2.29l-.01.043-.248.146a8 8 0 0 0-3.82 6.453L5 13.923l-.021.143a3 3 0 0 1-1.471 2.065C2.614 16.637 2.972 18 4 18h16l.115-.006c.937-.098 1.237-1.376.377-1.863l-.162-.1-.166-.117a3 3 0 0 1-1.143-1.848L19 13.932V11l-.02-.29-.027-.286a8.01 8.01 0 0 0-4.023-6.069l-.008-.043-.047-.171A3 3 0 0 0 12 2zm1.969 6.002a1 1 0 0 1 .82 1.611l-.082.094L13.414 11l1.293 1.293a1 1 0 0 1-1.32 1.496l-.094-.082L12 12.414l-1.293 1.293a1 1 0 0 1-1.496-1.32l.082-.094L10.586 11 9.293 9.707a1 1 0 0 1 1.219-1.566l.101.07.094.082L12 9.586l1.293-1.293a1 1 0 0 1 .676-.291zM14.234 19v.002h-4.47l-.11.006c-.792.082-1.186 1.044-.634 1.66A4 4 0 0 0 12 22a4 4 0 0 0 2.98-1.332c.577-.644.12-1.668-.746-1.668z"/></svg>