<svg xmlns="http://www.w3.org/2000/svg" width="24" height="24" viewBox="0 0 24 24"><path d="M12 2a3.05 3.05 0 0 0-2.04.752c-.44.392-.702.985-.833 1.635-2.402 1.34-3.995 3.793-4.125 6.566L5 11v2.9a3 3 0 0 1-1.492 2.229A1 1 0 0 0 4 18h4c0 1.25.505 2.315 1.273 2.998C10.043 21.681 11.028 22 12 22s1.958-.319 2.727-1.002S16 19.25 16 18v-1a1 1 0 0 0-.006-.11l-.012-.074-.003-.015-.018-.074-.024-.069-.005-.02-.002-.003-.02-.047a1 1 0 0 0-.498-.498l-.05-.022a1 1 0 0 0-.089-.029 1 1 0 0 0-.09-.021l-.013-.002-.06-.01A1 1 0 0 0 15 16H6.297c.335-.579.613-1.197.695-1.879A1 1 0 0 0 7 14v-2.959a6 6 0 0 1 3.428-5.137A1 1 0 0 0 11 5c0-.417.12-.602.29-.752.168-.15.432-.248.71-.248s.542.098.71.248c.17.15.29.335.29.752a1 1 0 0 0 .572.904A6 6 0 0 1 17 11.041V12.5a1 1 0 0 0 1 1 1 1 0 0 0 1-1V11l-.002-.047c-.13-2.773-1.723-5.225-4.125-6.566-.13-.65-.393-1.243-.834-1.635A3.05 3.05 0 0 0 12 2zm7 13a1 1 0 0 0-1 1v3a1 1 0 0 0 1 1 1 1 0 0 0 1-1v-3a1 1 0 0 0-1-1zm-9 3h4c0 .75-.245 1.185-.602 1.502-.356.317-.87.498-1.398.498s-1.042-.181-1.398-.498C10.245 19.185 10 18.75 10 18zm9 3a1 1 0 0 0-1 1v.01a1 1 0 0 0 1 1 1 1 0 0 0 1-1V22a1 1 0 0 0-1-1z"/></svg>