<svg xmlns="http://www.w3.org/2000/svg" width="24" height="24" viewBox="0 0 24 24"><path d="M12 2a3.05 3.05 0 0 0-2.04.752c-.44.392-.702.985-.833 1.635-2.402 1.34-3.995 3.793-4.125 6.566L5 11v2.9a3 3 0 0 1-1.492 2.229A1 1 0 0 0 4 18h4c-.002 2.25 1.725 3.757 3.52 3.975s3.83-.836 4.365-3.022a1 1 0 0 0-.733-1.209 1 1 0 0 0-1.209.735c-.308 1.26-1.231 1.625-2.183 1.51-.952-.116-1.761-.692-1.76-1.989h3.5a1 1 0 0 0 1-1 1 1 0 0 0-1-1H6.297c.335-.579.613-1.197.695-1.879A1 1 0 0 0 7 14v-2.959a6 6 0 0 1 3.428-5.137A1 1 0 0 0 11 5c0-.417.12-.602.29-.752.168-.15.432-.248.71-.248s.542.098.71.248c.17.15.29.335.29.752a1 1 0 0 0 .572.904 6 6 0 0 1 3.43 5.143 1 1 0 0 0 1.045.951 1 1 0 0 0 .951-1.045c-.13-2.773-1.723-5.225-4.125-6.566-.13-.65-.393-1.243-.834-1.635A3.05 3.05 0 0 0 12 2zm7.04 12.002a3 3 0 0 0-2.304 1.053 1 1 0 0 0 .118 1.41 1 1 0 0 0 1.41-.117.97.97 0 0 1 1.193-.24c.53.275.617.69.512 1.124-.106.436-.372.766-.973.768A1 1 0 0 0 18 19.004a1 1 0 0 0 1.004.996c1.495-.005 2.615-1.084 2.908-2.297s-.211-2.686-1.539-3.373l-.004-.002a2.96 2.96 0 0 0-1.33-.326zM19 21a1 1 0 0 0-1 1v.01a1 1 0 0 0 1 1 1 1 0 0 0 1-1V22a1 1 0 0 0-1-1z"/></svg>