<svg xmlns="http://www.w3.org/2000/svg" width="24" height="24" viewBox="0 0 24 24"><path d="M17.752 3.057a3 3 0 0 0-1.38.441l-.038.023-.277-.07a8 8 0 0 0-7.266 1.86l-2.102 2.1-.115.085a3 3 0 0 1-2.5.418c-.99-.274-1.7.945-.972 1.672l11.312 11.312.086.079c.732.594 1.85-.1 1.586-1.051l-.047-.186-.033-.2a3 3 0 0 1 .498-2.112l.08-.114 2.072-2.072.192-.217.183-.222a8.01 8.01 0 0 0 1.446-7.139l.025-.035.09-.152a3 3 0 0 0-.522-3.547v-.002l-.127-.12-.14-.117a3 3 0 0 0-2.051-.634zM5.746 14.077a1 1 0 0 0-.982.944 4 4 0 0 0 1.164 3.05 4 4 0 0 0 3.05 1.165c.864-.048 1.265-1.094.653-1.705v-.002l-3.162-3.16-.082-.072a.97.97 0 0 0-.64-.22z"/></svg>