<svg xmlns="http://www.w3.org/2000/svg" width="24" height="24" viewBox="0 0 24 24"><path d="M12 2a3.05 3.05 0 0 0-2.04.752c-.44.392-.702.985-.833 1.635-2.402 1.34-3.995 3.793-4.125 6.566L5 11v2.9a3 3 0 0 1-1.492 2.229A1 1 0 0 0 4 18h4c0 2.948 3.2 4.905 5.824 3.56a1 1 0 0 0 .434-1.345 1 1 0 0 0-1.346-.436C11.543 20.481 10 19.54 10 18h3.5a1 1 0 0 0 1-1 1 1 0 0 0-1-1H6.297c.335-.579.613-1.197.695-1.879A1 1 0 0 0 7 14v-2.959a6 6 0 0 1 3.428-5.137A1 1 0 0 0 11 5c0-.417.12-.602.29-.752.168-.15.432-.248.71-.248s.542.098.71.248c.17.15.29.335.29.752a1 1 0 0 0 .572.904A6 6 0 0 1 17 11.041V12a1 1 0 0 0 1 1 1 1 0 0 0 1-1v-1l-.002-.047c-.13-2.773-1.723-5.225-4.125-6.566-.13-.65-.393-1.243-.834-1.635A3.05 3.05 0 0 0 12 2zm7.064 13.002a1 1 0 0 0-.26.018 1 1 0 0 0-.636.425l-2 3A1 1 0 0 0 17 20h2.13l-.962 1.445a1 1 0 0 0 .277 1.387 1 1 0 0 0 1.387-.277l2-3A1 1 0 0 0 21 18h-2.13l.962-1.445a1 1 0 0 0-.277-1.387 1 1 0 0 0-.49-.166z"/></svg>