<svg xmlns="http://www.w3.org/2000/svg" width="24" height="24" viewBox="0 0 24 24"><path d="M12 2a3.05 3.05 0 0 0-2.04.752c-.44.392-.702.985-.833 1.635-2.402 1.34-3.995 3.793-4.125 6.566L5 11v2.9a3 3 0 0 1-1.492 2.229A1 1 0 0 0 4 18h4a4.01 4.01 0 0 0 3.041 3.885 1 1 0 0 0 1.209-.733 1 1 0 0 0-.73-1.21A1.99 1.99 0 0 1 10 18a1 1 0 0 0 1-1 1 1 0 0 0-1-1H6.297c.335-.579.613-1.197.695-1.879A1 1 0 0 0 7 14v-2.959a6 6 0 0 1 3.428-5.137A1 1 0 0 0 11 5c0-.417.12-.602.29-.752.168-.15.432-.248.71-.248s.542.098.71.248c.17.15.29.335.29.752a1 1 0 0 0 .572.904 6 6 0 0 1 3.43 5.143 1 1 0 0 0 1.045.951 1 1 0 0 0 .951-1.045c-.13-2.773-1.723-5.225-4.125-6.566-.13-.65-.393-1.243-.834-1.635A3.05 3.05 0 0 0 12 2zm4.219 12.006a3.24 3.24 0 0 0-2.264.91 3.16 3.16 0 0 0-.012 4.502l3.356 3.295a1 1 0 0 0 1.4.002l3.348-3.281a3.16 3.16 0 0 0 .008-4.504c-1.064-1.04-2.621-1.005-3.854-.278l.274.27c-.13-.127-.326-.091-.471-.192-.147.101-.343.064-.475.192l.276-.272c-.507-.3-1.012-.643-1.586-.644zm-.004 1.988c.31 0 .62.12.865.36l.219.216a1 1 0 0 0 1.404.002l.223-.22-.004.005a1.23 1.23 0 0 1 1.734.002v.002c.47.459.47 1.18-.002 1.637l-.004.004L18 20.6l-2.654-2.61-.002-.002a1.126 1.126 0 0 1 .004-1.636 1.24 1.24 0 0 1 .867-.358z"/></svg>