<svg xmlns="http://www.w3.org/2000/svg" width="24" height="24" viewBox="0 0 24 24"><path d="M12 2a3.05 3.05 0 0 0-2.04.752c-.44.392-.702.985-.833 1.635-2.402 1.34-3.995 3.793-4.125 6.566L5 11v2.9a3 3 0 0 1-1.492 2.229A1 1 0 0 0 4 18h4c0 2.466 2.263 4.365 4.691 3.94a1 1 0 0 0 .813-1.157 1 1 0 0 0-1.158-.812A1.98 1.98 0 0 1 10 18h2.5a1 1 0 0 0 1-1 1 1 0 0 0-1-1H6.297c.335-.579.613-1.197.695-1.879A1 1 0 0 0 7 14v-2.959a6 6 0 0 1 3.428-5.137A1 1 0 0 0 11 5c0-.417.12-.602.29-.752.168-.15.432-.248.71-.248s.542.098.71.248c.17.15.29.335.29.752a1 1 0 0 0 .572.904A6 6 0 0 1 17 11.041V12a1 1 0 0 0 1 1 1 1 0 0 0 1-1v-1l-.002-.047c-.13-2.773-1.723-5.225-4.125-6.566-.13-.65-.393-1.243-.834-1.635A3.05 3.05 0 0 0 12 2zm7 13a1 1 0 0 0-1 1v3.586l-1.293-1.293a1 1 0 0 0-1.414 0 1 1 0 0 0 0 1.414l3 3 .041.031a1 1 0 0 0 .117.09 1 1 0 0 0 .08.049 1 1 0 0 0 .168.07l.055.02A1 1 0 0 0 19 23a1 1 0 0 0 .246-.033l.055-.02a1 1 0 0 0 .168-.07 1 1 0 0 0 .08-.049 1 1 0 0 0 .117-.09l.041-.031 3-3a1 1 0 0 0 0-1.414 1 1 0 0 0-1.414 0L20 19.586V16a1 1 0 0 0-1-1z"/></svg>