<svg xmlns="http://www.w3.org/2000/svg" width="24" height="24" viewBox="0 0 24 24"><path d="M8 2a1 1 0 0 0-.555.168 1 1 0 0 0-.277 1.387L8.131 5H7c-2.75 0-5 2.25-5 5v6c0 2.75 2.25 5 5 5h10c2.75 0 5-2.25 5-5v-6c0-2.75-2.25-5-5-5h-1.13l.962-1.445a1 1 0 0 0-.277-1.387 1 1 0 0 0-.75-.148 1 1 0 0 0-.637.425L13.465 5h-2.93L8.832 2.445a1 1 0 0 0-.637-.425A1 1 0 0 0 8 2zM7 7h10c1.669 0 3 1.331 3 3v6c0 1.669-1.331 3-3 3H7c-1.669 0-3-1.331-3-3v-6c0-1.669 1.331-3 3-3zm2 3a1 1 0 0 0-1 1v2a1 1 0 0 0 1 1 1 1 0 0 0 1-1v-2a1 1 0 0 0-1-1zm6 0a1 1 0 0 0-1 1v2a1 1 0 0 0 1 1 1 1 0 0 0 1-1v-2a1 1 0 0 0-1-1z"/></svg>