<svg xmlns="http://www.w3.org/2000/svg" width="24" height="24" viewBox="0 0 24 24"><path d="M14 1a3.05 3.05 0 0 0-2.04.752C11.38 2.269 11 3.083 11 4c0 .73.242 1.397.635 1.898l-1.98 3.168A3.3 3.3 0 0 0 9 9a3.05 3.05 0 0 0-2.04.752C6.38 10.269 6 11.083 6 12c0 .73.242 1.397.635 1.898l-1.98 3.168A3.3 3.3 0 0 0 4 17a3.05 3.05 0 0 0-2.04.752C1.38 18.269 1 19.083 1 20s.38 1.731.96 2.248A3.05 3.05 0 0 0 4 23a3.05 3.05 0 0 0 2.04-.752C6.62 21.731 7 20.917 7 20c0-.73-.242-1.397-.635-1.898l1.98-3.168a3.3 3.3 0 0 0 1.31 0l1.98 3.168A3.1 3.1 0 0 0 11 20c0 .917.38 1.731.96 2.248A3.05 3.05 0 0 0 14 23a3.05 3.05 0 0 0 2.04-.752c.58-.517.96-1.331.96-2.248s-.38-1.731-.96-2.248A3.05 3.05 0 0 0 14 17q-.33 0-.654.066l-1.98-3.166A3.1 3.1 0 0 0 12 12c0-.73-.242-1.397-.635-1.898l1.979-3.168a3.3 3.3 0 0 0 1.31 0l1.98 3.168A3.1 3.1 0 0 0 16 12c0 .917.38 1.731.96 2.248A3.05 3.05 0 0 0 19 15a3.05 3.05 0 0 0 2.04-.752c.58-.517.96-1.331.96-2.248s-.38-1.731-.96-2.248A3.05 3.05 0 0 0 19 9q-.328 0-.652.066l-1.983-3.168A3.1 3.1 0 0 0 17 4c0-.917-.38-1.731-.96-2.248A3.05 3.05 0 0 0 14 1zm0 2c.278 0 .542.098.71.248.17.15.29.335.29.752s-.12.602-.29.752l-.04.033a1 1 0 0 0-.137.067l-.064.05a1.18 1.18 0 0 1-.916.01 1 1 0 0 0-.084-.06 1 1 0 0 0-.147-.075l-.033-.025C13.12 4.602 13 4.417 13 4s.12-.602.29-.752A1.1 1.1 0 0 1 14 3zm-5 8c.164 0 .321.035.459.094a1 1 0 0 0 .072.056 1 1 0 0 0 .143.069l.037.029c.169.15.289.335.289.752s-.12.602-.29.752l-.058.047a1 1 0 0 0-.117.058l-.047.038a1.18 1.18 0 0 1-.935.017 1 1 0 0 0-.084-.06 1 1 0 0 0-.14-.069q-.021-.015-.04-.031C8.12 12.602 8 12.417 8 12s.12-.602.29-.752A1.1 1.1 0 0 1 9 11zm10 0c.278 0 .542.098.71.248.17.15.29.335.29.752s-.12.602-.29.752c-.168.15-.432.248-.71.248s-.542-.098-.71-.248c-.17-.15-.29-.335-.29-.752s.12-.602.29-.752a1 1 0 0 0 .185-.09 1 1 0 0 0 .113-.084A1.2 1.2 0 0 1 19 11zM4 19c.157 0 .308.032.441.086a1 1 0 0 0 .086.068 1 1 0 0 0 .168.082l.016.012c.169.15.289.335.289.752s-.12.602-.29.752c-.168.15-.432.248-.71.248s-.542-.098-.71-.248C3.12 20.602 3 20.417 3 20s.12-.602.29-.752A1.1 1.1 0 0 1 4 19zm10 0c.278 0 .542.098.71.248.17.15.29.335.29.752s-.12.602-.29.752c-.168.15-.432.248-.71.248s-.542-.098-.71-.248c-.17-.15-.29-.335-.29-.752s.12-.602.29-.752q.013-.012.028-.023a1 1 0 0 0 .153-.073 1 1 0 0 0 .095-.068A1.2 1.2 0 0 1 14 19z"/></svg>