<svg xmlns="http://www.w3.org/2000/svg" width="24" height="24" viewBox="0 0 24 24"><path d="M3 2a1 1 0 0 0-.707.293 1 1 0 0 0 0 1.414L11.586 13H10.5c-.817 0-1.5.683-1.5 1.5v4c0 .817.683 1.5 1.5 1.5h2c.817 0 1.5-.683 1.5-1.5v-3.086l3 3V19a1 1 0 0 0 1 1 1 1 0 0 0 .467-.12l1.826 1.827a1 1 0 0 0 1.414 0 1 1 0 0 0 0-1.414l-2.96-2.959a1 1 0 0 0-.081-.08L3.707 2.293A1 1 0 0 0 3 2zm7 2a1 1 0 0 0-1 1 1 1 0 0 0 1 1v1a1 1 0 0 0 1 1 1 1 0 0 0 1-1V5a1 1 0 0 0-1-1zm5.5 0c-.817 0-1.5.683-1.5 1.5v4c0 .817.683 1.5 1.5 1.5h2c.817 0 1.5-.683 1.5-1.5v-4c0-.817-.683-1.5-1.5-1.5zm.5 2h1v3h-1zM6 9a1 1 0 0 0-1 1v.01a1 1 0 0 0 1 1 1 1 0 0 0 1-1V10a1 1 0 0 0-1-1zm5 6h1v3h-1zm-5 3a1 1 0 0 0-1 1v.01a1 1 0 0 0 1 1 1 1 0 0 0 1-1V19a1 1 0 0 0-1-1z"/></svg>