<svg xmlns="http://www.w3.org/2000/svg" width="24" height="24" viewBox="0 0 24 24"><path d="M4 4a1 1 0 0 0-.97.758l-.5 2A1 1 0 0 0 3.5 8H6c1.093 0 2-.907 2-2s-.907-2-2-2zm7 0a1 1 0 0 0-.97.758l-.5 2A1 1 0 0 0 10.5 8H13c1.093 0 2-.907 2-2s-.907-2-2-2zm7 3a1 1 0 0 0-.97.758l-.5 2A1 1 0 0 0 17.5 11H20c1.093 0 2-.907 2-2s-.907-2-2-2zM3 10a1 1 0 0 0-.97.758l-.5 2A1 1 0 0 0 2.5 14H5c1.093 0 2-.907 2-2s-.907-2-2-2zm7 0a1 1 0 0 0-.97.758l-.5 2A1 1 0 0 0 9.5 14H12c1.093 0 2-.907 2-2s-.907-2-2-2zm7 3a1 1 0 0 0-.97.758l-.5 2A1 1 0 0 0 16.5 17H19c1.093 0 2-.907 2-2s-.907-2-2-2zm-8 3a1 1 0 0 0-.97.758l-.5 2A1 1 0 0 0 8.5 20H11c1.093 0 2-.907 2-2s-.907-2-2-2z"/></svg>