<svg xmlns="http://www.w3.org/2000/svg" width="24" height="24" viewBox="0 0 24 24"><path d="M11.99 2.002c-1.033 0-2.067.505-2.625 1.514l-7.09 12.232a1 1 0 0 0-.062.125c-.765 1.884.594 4.02 2.625 4.125l.084-.03L5 20h14.008c2.084-.015 3.541-2.193 2.76-4.125a1 1 0 0 0-.063-.127l-7.09-12.232c-.558-1.01-1.591-1.514-2.625-1.514zm0 1.932c.336 0 .672.184.875.55l.01.018 7.035 12.14c.262.68-.185 1.353-.918 1.358H5l-.025.01-.034-.008c-.71-.037-1.127-.698-.873-1.357l7.037-12.143.01-.018c.203-.366.54-.55.875-.55zM10 11c-.917 0-1.731.38-2.248.96A3.05 3.05 0 0 0 7 14c0 .722.235 1.458.752 2.04.517.58 1.331.96 2.248.96h1a1 1 0 0 0 1-1 1 1 0 0 0-1-1h-1c-.417 0-.602-.12-.752-.29A1.1 1.1 0 0 1 9 14c0-.278.098-.542.248-.71.15-.17.335-.29.752-.29h1a1 1 0 0 0 1-1 1 1 0 0 0-1-1zm4 0a1 1 0 0 0-1 1v4a1 1 0 0 0 1 1h2a1 1 0 0 0 1-1 1 1 0 0 0-1-1h-1v-3a1 1 0 0 0-1-1z"/></svg>