<svg xmlns="http://www.w3.org/2000/svg" width="24" height="24" viewBox="0 0 24 24"><path d="M12.94 4.002a1 1 0 0 0-.688.336 1 1 0 0 0 .086 1.41L14.883 8H6a1 1 0 0 0-1 1 1 1 0 0 0 1 1h3.598l-7.184 5.19a1 1 0 0 0-.225 1.396 1 1 0 0 0 1.397.225l4.428-3.198A6 6 0 0 0 8 14c0 3.41 3.236 6 7 6s7-2.59 7-6c0-1.967-.94-3.561-2.28-4.553A7 7 0 0 0 19.028 9l-5.365-4.748a1 1 0 0 0-.723-.25zM15 10c1.03 0 2.05.232 2.883.656l.103.092a1 1 0 0 0 .412.213q.068.045.131.092C19.441 11.728 20 12.633 20 14c0 2.113-2.137 4-5 4s-5-1.887-5-4c0-1.11.369-1.916.996-2.541l1.086-.785C12.921 10.238 13.957 10 15 10zm0 2c-.472 0-.958.152-1.352.502-.206.183-.226.512-.34.785A1 1 0 0 0 13 14a1 1 0 0 0 .309.713c.113.273.133.602.34.785.393.35.879.502 1.351.502s.958-.152 1.352-.502c.393-.35.648-.915.648-1.498s-.255-1.148-.648-1.498A2.02 2.02 0 0 0 15 12z"/></svg>