<svg xmlns="http://www.w3.org/2000/svg" width="24" height="24" viewBox="0 0 24 24"><path d="M7.5 3.795a10 10 0 0 0-5 1.34l-.031.027a1 1 0 0 0-.229.201l-.037.037a1 1 0 0 0-.16.325l-.012.078A1 1 0 0 0 2 6v13l.014.082a1 1 0 0 0 .017.11 1 1 0 0 0 .08.24l.024.068.027.031a1 1 0 0 0 .201.229l.037.037a1 1 0 0 0 .325.16l.078.012A1 1 0 0 0 3 20l.082-.014a1 1 0 0 0 .11-.017 1 1 0 0 0 .24-.08l.068-.024a8 8 0 0 1 8 0l.082.03a1 1 0 0 0 .188.068 1 1 0 0 0 .13.021A1 1 0 0 0 12 20a1 1 0 0 0 .1-.016 1 1 0 0 0 .13-.021 1 1 0 0 0 .188-.068l.082-.03a8 8 0 0 1 8 0l.068.024a1 1 0 0 0 .24.08 1 1 0 0 0 .11.017L21 20a1 1 0 0 0 .197-.031l.078-.012a1 1 0 0 0 .325-.16l.037-.037a1 1 0 0 0 .2-.229l.028-.031a1 1 0 0 0 .078-.176l.01-.031A1 1 0 0 0 22 19V6a1 1 0 0 0-.01-.13 1 1 0 0 0-.023-.122l-.002-.006-.004-.012-.027-.085-.024-.055-.035-.072-.01-.018-.004-.006A1 1 0 0 0 21.8 5.4l-.006-.007-.012-.016a1 1 0 0 0-.074-.084 1 1 0 0 0-.084-.074l-.002-.002-.04-.03-.075-.048-.006-.004C18.566 3.44 15 3.408 12 4.928c-1.419-.719-2.95-1.133-4.5-1.133zm0 1.998A8 8 0 0 1 11 6.6v10.882c-1.128-.44-2.308-.687-3.5-.687-1.186 0-2.373.21-3.5.63V6.6a8 8 0 0 1 3.5-.807zm9 0A8 8 0 0 1 20 6.6v10.838a9.98 9.98 0 0 0-7 .052V6.6a8 8 0 0 1 3.5-.807z"/></svg>