<svg xmlns="http://www.w3.org/2000/svg" width="24" height="24" viewBox="0 0 24 24"><path d="M8.305 3.02a1 1 0 0 0-.791.816c-.441 2.644-2.051 4.259-4.729 4.85a1 1 0 0 0-.06.093 1 1 0 0 0-.375.123 1 1 0 0 0-.041.53 1 1 0 0 0-.286.445 1 1 0 0 0 .225.322 1 1 0 0 0-.008.114c.909 1.061 1.26 1.922 1.26 2.644s-.325 1.454-1.207 2.336a1 1 0 0 0 .543 1.693c1.473.246 2.462.503 3.033.899.571.395.92.93 1.145 2.28a1 1 0 0 0 1.818.39c.858-1.287 2.104-2.087 3.37-2.184 1.264-.097 2.65.431 3.997 2.229A1 1 0 0 0 18 20c0-1.389.24-2.075.582-2.418.343-.343 1.03-.584 2.42-.586a1 1 0 0 0 .705-1.707C20.825 14.41 20.5 13.666 20.5 13s.325-1.41 1.207-2.293A1 1 0 0 0 21 9c-1.278 0-2.245-.41-2.918-1.082S17 6.278 17 5a1 1 0 0 0-1.895-.447c-.447.895-.922 1.437-1.33 1.713-.407.275-.732.331-1.15.252-.837-.16-2.103-1.168-3.277-3.047a1 1 0 0 0-1.043-.451zm.572 3.035c1.017 1.22 2.1 2.185 3.373 2.427.894.17 1.85-.023 2.646-.56.204-.138.326-.459.512-.635.282.779.694 1.48 1.26 2.045.687.687 1.599 1.093 2.588 1.357-.445.738-.756 1.503-.756 2.311 0 .767.273 1.497.676 2.201-.782.167-1.48.438-2.008.967-.496.497-.775 1.136-.947 1.857-1.333-1.072-2.757-1.755-4.172-1.646-1.388.107-2.572.844-3.604 1.793-.349-.799-.794-1.485-1.44-1.932-.663-.46-1.443-.706-2.286-.904.457-.755.781-1.54.781-2.379 0-.96-.412-1.885-.984-2.799 1.993-.777 3.53-2.181 4.361-4.103z"/></svg>