<svg xmlns="http://www.w3.org/2000/svg" width="24" height="24" viewBox="0 0 24 24"><path d="M17 2a1 1 0 0 0-1 1 1 1 0 0 0 1 1h1.586L16.5 6.086C14.874 4.776 12.793 4 10.5 4c-2.667 0-5.393.968-7.209 2.795a1 1 0 0 0 .002 1.412l5.543 5.543L5.586 17H3a1 1 0 0 0-1 1 1 1 0 0 0 1 1h2v2a1 1 0 0 0 1 1 1 1 0 0 0 1-1v-2.586l3.25-3.25 5.543 5.543a1 1 0 0 0 1.414 0C19.022 18.892 20 16.161 20 13.5c0-2.293-.777-4.374-2.086-6L20 5.414V7a1 1 0 0 0 1 1 1 1 0 0 0 1-1V3l-.002-.018a1 1 0 0 0-.023-.205l-.004-.011a1 1 0 0 0-.063-.18l-.017-.035a1 1 0 0 0-.11-.174l-.008-.008a1 1 0 0 0-.066-.076l-.03-.02a1 1 0 0 0-.277-.185l-.054-.02A1 1 0 0 0 21 2zm-6.5 4c1.77 0 3.353.544 4.604 1.482l-4.854 4.854-4.672-4.672C6.933 6.69 8.701 6 10.5 6zm6.018 2.896C17.456 10.147 18 11.73 18 13.5c0 1.787-.694 3.563-1.666 4.92l-4.67-4.67z"/></svg>