<svg xmlns="http://www.w3.org/2000/svg" width="24" height="24" viewBox="0 0 24 24"><path d="M9 2C7.355 2 6 3.355 6 5v1H5C3.355 6 2 7.355 2 9v10c0 1.645 1.355 3 3 3h10c1.645 0 3-1.355 3-3v-1h1c1.645 0 3-1.355 3-3V5c0-1.645-1.355-3-3-3zm0 2h10c.564 0 1 .436 1 1v10c0 .564-.436 1-1 1H9c-.564 0-1-.436-1-1V5c0-.564.436-1 1-1zm4.922 1.004a1 1 0 0 0-.629.289l-2 2a1 1 0 0 0 0 1.414 1 1 0 0 0 1.414 0L13 8.414V14a1 1 0 0 0 1 1 1 1 0 0 0 1-1V6a1 1 0 0 0-.617-.924 1 1 0 0 0-.461-.072zM5 8h1v7c0 1.645 1.355 3 3 3h7v1c0 .564-.436 1-1 1H5c-.564 0-1-.436-1-1V9c0-.564.436-1 1-1z"/></svg>