<svg xmlns="http://www.w3.org/2000/svg" width="24" height="24" viewBox="0 0 24 24"><path d="M3 2a1 1 0 0 0-.707.293 1 1 0 0 0 0 1.414l1.002 1.002C3.107 5.102 3 5.539 3 6v12c0 1.645 1.355 3 3 3h12c.451 0 .891-.104 1.291-.295l1.002 1.002a1 1 0 0 0 1.414 0 1 1 0 0 0 0-1.414l-1.586-1.586-3.414-3.414-8-8-5-5A1 1 0 0 0 3 2zm5 1a1 1 0 0 0-1 1 1 1 0 0 0 1 1h10c.564 0 1 .436 1 1v10a1 1 0 0 0 1 1 1 1 0 0 0 1-1V6c0-1.645-1.355-3-3-3zM5 6.414l2 2V16a1 1 0 0 0 1 1h7.586l2 2H6c-.564 0-1-.436-1-1zM12 7a1 1 0 0 0-1 1 1 1 0 0 0 1 1h3v3a1 1 0 0 0 1 1 1 1 0 0 0 1-1V8a1 1 0 0 0-1-1zm-3 3.414L13.586 15H9z"/></svg>