<svg xmlns="http://www.w3.org/2000/svg" width="24" height="24" viewBox="0 0 24 24"><path d="M9 2C7.355 2 6 3.355 6 5v1H5C3.355 6 2 7.355 2 9v10c0 1.645 1.355 3 3 3h10c1.645 0 3-1.355 3-3v-1h1c1.645 0 3-1.355 3-3V5c0-1.645-1.355-3-3-3zm0 2h10c.564 0 1 .436 1 1v10c0 .564-.436 1-1 1H9c-.564 0-1-.436-1-1V5c0-.564.436-1 1-1zm3 1a1 1 0 0 0-1 1 1 1 0 0 0 1 1h2.719l-1.69 6.758a1 1 0 0 0 .729 1.213 1 1 0 0 0 1.213-.729l2-8A1 1 0 0 0 16 5zM5 8h1v7c0 1.645 1.355 3 3 3h7v1c0 .564-.436 1-1 1H5c-.564 0-1-.436-1-1V9c0-.564.436-1 1-1z"/></svg>