<svg xmlns="http://www.w3.org/2000/svg" width="24" height="24" viewBox="0 0 24 24"><path d="M5 3.006a2 2 0 0 0-2 2v5a1 1 0 0 0 1 1h16a1 1 0 0 0 1-1v-5a2 2 0 0 0-2-2zM4 13.994a1 1 0 0 0-1 1l.008.127A1 1 0 0 0 5 15.006l-.008-.127A1 1 0 0 0 4 13.994zm16 0a1 1 0 0 0-1 1l.008.127A1 1 0 0 0 21 15.006l-.008-.127a1 1 0 0 0-.992-.885zm-16 5a1 1 0 0 0-1 1l.008.127A1 1 0 0 0 5 20.006l-.008-.127A1 1 0 0 0 4 18.994zm5 0a1 1 0 0 0-1 1l.008.127A1 1 0 0 0 10 20.006l-.008-.127A1 1 0 0 0 9 18.994zm6 0a1 1 0 0 0-1 1l.008.127A1 1 0 0 0 16 20.006l-.008-.127a1 1 0 0 0-.992-.885zm5 0a1 1 0 0 0-1 1l.008.127A1 1 0 0 0 21 20.006l-.008-.127a1 1 0 0 0-.992-.885z"/></svg>