<svg xmlns="http://www.w3.org/2000/svg" width="24" height="24" viewBox="0 0 24 24"><path d="M4 3a1 1 0 0 0-1 1l.008.127A1 1 0 0 0 5 4.01l-.008-.127A1 1 0 0 0 4 3zm5 0a1 1 0 0 0-1 1l.008.127A1 1 0 0 0 10 4.01l-.008-.127A1 1 0 0 0 9 3zm6 0a1 1 0 0 0-1 1l.008.127A1 1 0 0 0 16 4.01l-.008-.127A1 1 0 0 0 15 3zm5 0a1 1 0 0 0-1 1l.008.127A1 1 0 0 0 21 4.01l-.008-.127A1 1 0 0 0 20 3zM4 8a1 1 0 0 0-1 1l.008.127A1 1 0 0 0 5 9.01l-.008-.127A1 1 0 0 0 4 8zm16 0a1 1 0 0 0-1 1l.008.127A1 1 0 0 0 21 9.01l-.008-.127A1 1 0 0 0 20 8zM5 12a2 2 0 0 0-2 2v5a2 2 0 0 0 2 2h5a2 2 0 0 0 2-2v-5a2 2 0 0 0-2-2zm15 2a1 1 0 0 0-1 1l.008.127A1 1 0 0 0 21 15.01l-.008-.127A1 1 0 0 0 20 14zm-5 5a1 1 0 0 0-1 1l.008.127A1 1 0 0 0 16 20.01l-.008-.127A1 1 0 0 0 15 19zm5 0a1 1 0 0 0-1 1l.008.127A1 1 0 0 0 21 20.01l-.008-.127A1 1 0 0 0 20 19z"/></svg>