<svg xmlns="http://www.w3.org/2000/svg" width="24" height="24" viewBox="0 0 24 24"><path d="M12 2.5a1 1 0 0 0-.707.293L9.086 5H6a1 1 0 0 0-1 1v3.086l-2.207 2.207a1 1 0 0 0 0 1.414L5 14.914V18a1 1 0 0 0 1 1h3.086l2.207 2.207a1 1 0 0 0 1.414 0L14.914 19H18a1 1 0 0 0 1-1v-3.086l2.207-2.207a1 1 0 0 0 0-1.414L19 9.086V6a1 1 0 0 0-1-1h-3.086l-2.207-2.207A1 1 0 0 0 12 2.5zm0 2.414 1.793 1.793A1 1 0 0 0 14.5 7H17v2.5a1 1 0 0 0 .293.707L19.086 12l-1.793 1.793A1 1 0 0 0 17 14.5V17h-2.5a1 1 0 0 0-.707.293L12 19.086l-1.793-1.793A1 1 0 0 0 9.5 17H7v-2.5a1 1 0 0 0-.293-.707L4.914 12l1.793-1.793A1 1 0 0 0 7 9.5V7h2.5a1 1 0 0 0 .707-.293zM12 8a3.05 3.05 0 0 0-2.04.752C9.38 9.269 9 10.083 9 11v3.5a1 1 0 0 0 1 1 1 1 0 0 0 1-1V14h2v.5a1 1 0 0 0 1 1 1 1 0 0 0 1-1V11c0-.917-.38-1.731-.96-2.248A3.05 3.05 0 0 0 12 8zm0 2c.278 0 .542.098.71.248.17.15.29.335.29.752v1h-2v-1c0-.417.12-.602.29-.752A1.1 1.1 0 0 1 12 10z"/></svg>