<svg xmlns="http://www.w3.org/2000/svg" width="24" height="24" viewBox="0 0 24 24"><path d="M12 4a1 1 0 0 0-1 1v.01a1 1 0 0 0 1 1 1 1 0 0 0 1-1V5a1 1 0 0 0-1-1zM7 6a1 1 0 0 0-1 1v.01a1 1 0 0 0 1 1 1 1 0 0 0 1-1V7a1 1 0 0 0-1-1zm10 0a1 1 0 0 0-1 1v.01a1 1 0 0 0 1 1 1 1 0 0 0 1-1V7a1 1 0 0 0-1-1zm-5 2c-.972 0-1.958.319-2.727 1.002S8 10.75 8 12s.505 2.315 1.273 2.998C10.043 15.681 11.028 16 12 16s1.958-.319 2.727-1.002S16 13.25 16 12s-.505-2.315-1.273-2.998C13.957 8.319 12.972 8 12 8zm0 2c.528 0 1.042.181 1.398.498.357.317.602.752.602 1.502s-.245 1.185-.602 1.502c-.356.317-.87.498-1.398.498s-1.042-.181-1.398-.498C10.245 13.185 10 12.75 10 12s.245-1.185.602-1.502c.356-.317.87-.498 1.398-.498zm-7 1a1 1 0 0 0-1 1v.01a1 1 0 0 0 1 1 1 1 0 0 0 1-1V12a1 1 0 0 0-1-1zm14 0a1 1 0 0 0-1 1v.01a1 1 0 0 0 1 1 1 1 0 0 0 1-1V12a1 1 0 0 0-1-1zM7 16a1 1 0 0 0-1 1v.01a1 1 0 0 0 1 1 1 1 0 0 0 1-1V17a1 1 0 0 0-1-1zm10 0a1 1 0 0 0-1 1v.01a1 1 0 0 0 1 1 1 1 0 0 0 1-1V17a1 1 0 0 0-1-1zm-5 2a1 1 0 0 0-1 1v.01a1 1 0 0 0 1 1 1 1 0 0 0 1-1V19a1 1 0 0 0-1-1z"/></svg>