<svg xmlns="http://www.w3.org/2000/svg" width="24" height="24" viewBox="0 0 24 24"><path d="M12.406 2.035c-1.698.015-3.368.772-4.627 2.162a5.73 5.73 0 0 0-5.695 3.94c-.701 2.154-.065 4.728 2.037 6.33A3.575 3.575 0 0 0 6 18.457V21a1 1 0 0 0 1.514.857l3.525-2.115c.448.121.894.258 1.36.258h.001c.66 0 1.113-.22 1.352-.283a1 1 0 0 0 .715-1.219 1 1 0 0 0-1.219-.715c-.45.118-.76.217-.848.217a3.3 3.3 0 0 1-1.205-.229 1 1 0 0 0-.879.073L8 19.234v-1.369a1 1 0 0 0-.775-.972 1.646 1.646 0 0 1-1.121-2.36 1 1 0 0 0-.4-1.306c-1.857-1.068-2.238-2.88-1.72-4.471.519-1.592 1.893-2.831 4.022-2.602a1 1 0 0 0 .91-.398 4.304 4.304 0 0 1 7.47.875 1 1 0 0 0 .802.6 4.313 4.313 0 0 1 3.642 5.507 1 1 0 0 0 .684 1.239 1 1 0 0 0 1.238-.682c1.034-3.572-1.297-7.173-4.877-7.89-1.028-1.898-2.788-3.102-4.74-3.33a6 6 0 0 0-.729-.04zM17 16a1 1 0 0 0-.707.293 1 1 0 0 0 0 1.414l1.793 1.793-1.793 1.793a1 1 0 0 0 0 1.414 1 1 0 0 0 1.414 0l1.793-1.793 1.793 1.793a1 1 0 0 0 1.414 0 1 1 0 0 0 0-1.414L20.914 19.5l1.793-1.793a1 1 0 0 0 0-1.414 1 1 0 0 0-1.414 0L19.5 18.086l-1.793-1.793A1 1 0 0 0 17 16z"/></svg>