<svg xmlns="http://www.w3.org/2000/svg" width="24" height="24" viewBox="0 0 24 24"><path d="M12 2c-2.111 0-4.218.336-5.906 1.086-.844.375-1.591.858-2.158 1.506S3 6.083 3 7c0 .752.1 1.501.299 2.229l2.736 10.035.016.052c.35 1.049 1.22 1.8 2.254 2.184 1.033.383 2.254.5 3.695.5s2.662-.117 3.695-.5 1.905-1.135 2.254-2.184c.37-1.113 1.263-4.404 2.752-10.087.198-.727.3-1.476.299-2.229 0-.917-.369-1.76-.936-2.408s-1.314-1.13-2.158-1.506C16.218 2.336 14.111 2 12 2zm0 2c1.889 0 3.782.331 5.094.914.656.292 1.159.642 1.467.994S19 6.583 19 7s-.131.74-.44 1.092c-.307.352-.81.702-1.466.994C15.782 9.669 13.889 10 12 10s-3.782-.331-5.094-.914c-.656-.292-1.159-.642-1.467-.994S5 7.417 5 7s.131-.74.44-1.092c.307-.352.81-.702 1.466-.994C8.218 4.331 10.111 4 12 4zm6.229 6.764c-1.16 4.39-1.923 7.153-2.178 7.92-.15.451-.4.7-1.051.941-.652.242-1.68.375-3 .375s-2.348-.133-3-.375c-.65-.241-.898-.49-1.049-.94l-2.158-7.912q.15.074.3.141C7.784 11.664 9.89 12 12 12s4.218-.336 5.906-1.086q.164-.072.323-.15z"/></svg>