<svg xmlns="http://www.w3.org/2000/svg" width="24" height="24" viewBox="0 0 24 24"><path d="M14.56 2c-.572-.014-1.17.098-1.75.291-1.322.441-2.698 1.331-3.943 2.576s-2.135 2.62-2.576 3.944c-.44 1.323-.463 2.758.494 3.714a7 7 0 0 0 1.408 1.09l6.895 4.047.049.026c.808.417 1.77.37 2.572.017.801-.353 1.522-.948 2.285-1.71.763-.764 1.36-1.485 1.713-2.286s.399-1.766-.02-2.574c-.424-.82-1.748-3.069-4.072-6.942l-.006-.005a7 7 0 0 0-1.084-1.403c-.478-.478-1.077-.712-1.72-.771A4 4 0 0 0 14.56 2zm-.228 2.004c.403-.021.659.075.78.195.192.193.321.731.01 1.668-.313.937-1.039 2.108-2.093 3.162s-2.225 1.782-3.162 2.094-1.475.181-1.668-.012c-.192-.192-.324-.73-.011-1.668.312-.937 1.039-2.108 2.093-3.162s2.226-1.781 3.162-2.093c.352-.118.647-.172.889-.184zm2.55 2.867c1.702 2.851 2.76 4.665 3.028 5.184.14.27.15.431-.033.847s-.623 1.004-1.297 1.678-1.26 1.112-1.676 1.295-.58.175-.85.035l-5.165-3.033c1.201-.476 2.43-1.31 3.554-2.434 1.13-1.129 1.965-2.365 2.44-3.572zM5 15a1 1 0 0 0-.746.334l-1.55 1.736-.03.035a3.01 3.01 0 0 0-.361 3.227A3.01 3.01 0 0 0 5.1 21.998a3.01 3.01 0 0 0 2.67-1.846 3.01 3.01 0 0 0-.573-3.195l-1.45-1.623A1 1 0 0 0 5 15zm0 2.502.719.803.013.013c.318.341.337.719.192 1.067s-.425.6-.89.615c-.466.015-.761-.219-.929-.557-.167-.337-.175-.713.12-1.074z"/></svg>