<svg xmlns="http://www.w3.org/2000/svg" width="24" height="24" viewBox="0 0 24 24"><path d="M12 2a1 1 0 0 0-.96.72C10.13 5.856 6.825 8.108 3.026 8A1 1 0 0 0 2 9c0 1.852 1.282 3.419 3 3.867V20H3a1 1 0 0 0-1 1 1 1 0 0 0 1 1h7a1 1 0 0 0 1-1v-3c0-.417.12-.602.29-.752.168-.15.432-.248.71-.248s.542.098.71.248c.17.15.29.335.29.752v3a1 1 0 0 0 1 1h7a1 1 0 0 0 1-1 1 1 0 0 0-1-1h-2v-7.133c1.718-.448 3-2.015 3-3.867a1 1 0 0 0-1.027-1c-3.8.107-7.104-2.145-8.012-5.28A1 1 0 0 0 12 2zm0 3.186c1.553 2.623 4.383 4.324 7.66 4.644-.326.654-.87 1.17-1.66 1.17H6c-.79 0-1.334-.516-1.66-1.17 3.277-.32 6.107-2.02 7.66-4.644zM7 13h10v7h-2v-2c0-.917-.38-1.731-.96-2.248A3.05 3.05 0 0 0 12 15a3.05 3.05 0 0 0-2.04.752C9.38 16.269 9 17.083 9 18v2H7z"/></svg>