<svg xmlns="http://www.w3.org/2000/svg" width="24" height="24" viewBox="0 0 24 24"><path d="M12.943 2.002a1 1 0 0 0-.39.103l-8 4A1 1 0 0 0 4 7v13H3a1 1 0 0 0-1 1 1 1 0 0 0 1 1h18a1 1 0 0 0 1-1 1 1 0 0 0-1-1h-1v-9a1 1 0 0 0-.445-.832L14 6.465V3a1 1 0 0 0-1.057-.998zM12 4.617V20H6V7.617zM9 8a1 1 0 0 0-1 1v.01a1 1 0 0 0 1 1 1 1 0 0 0 1-1V9a1 1 0 0 0-1-1zm5 .87 4 2.665V20h-4zM9 11a1 1 0 0 0-1 1v.01a1 1 0 0 0 1 1 1 1 0 0 0 1-1V12a1 1 0 0 0-1-1zm0 3a1 1 0 0 0-1 1v.01a1 1 0 0 0 1 1 1 1 0 0 0 1-1V15a1 1 0 0 0-1-1zm0 3a1 1 0 0 0-1 1v.01a1 1 0 0 0 1 1 1 1 0 0 0 1-1V18a1 1 0 0 0-1-1z"/></svg>