<svg xmlns="http://www.w3.org/2000/svg" width="24" height="24" viewBox="0 0 24 24"><path d="M6.805 2.02a1 1 0 0 0-.36.148l-3 2A1 1 0 0 0 3 5v15c0 1.093.907 2 2 2h3c1.093 0 2-.907 2-2v-1c0-.75.245-1.185.602-1.502.356-.317.87-.498 1.398-.498s1.042.181 1.398.498c.357.317.602.752.602 1.502v1c0 1.093.907 2 2 2h3c1.093 0 2-.907 2-2V5a1 1 0 0 0-.445-.832l-3-2a1 1 0 0 0-1.11 0l-3 2A1 1 0 0 0 13 5v5h-2V5a1 1 0 0 0-.445-.832l-3-2a1 1 0 0 0-.75-.148zM7 4.2l2 1.334V11a1 1 0 0 0 1 1h4a1 1 0 0 0 1-1V5.535l2-1.334 2 1.334V20h-3v-1a1 1 0 0 0-.078-.387c-.099-1.069-.514-2.005-1.195-2.611C13.957 15.319 12.972 15 12 15s-1.958.319-2.727 1.002S8 17.75 8 19v1H5V5.535zM7 6a1 1 0 0 0-1 1v.01a1 1 0 0 0 1 1 1 1 0 0 0 1-1V7a1 1 0 0 0-1-1zm10 0a1 1 0 0 0-1 1v.01a1 1 0 0 0 1 1 1 1 0 0 0 1-1V7a1 1 0 0 0-1-1zM7 9a1 1 0 0 0-1 1v.01a1 1 0 0 0 1 1 1 1 0 0 0 1-1V10a1 1 0 0 0-1-1zm10 0a1 1 0 0 0-1 1v.01a1 1 0 0 0 1 1 1 1 0 0 0 1-1V10a1 1 0 0 0-1-1zM7 12a1 1 0 0 0-1 1v.01a1 1 0 0 0 1 1 1 1 0 0 0 1-1V13a1 1 0 0 0-1-1zm10 0a1 1 0 0 0-1 1v.01a1 1 0 0 0 1 1 1 1 0 0 0 1-1V13a1 1 0 0 0-1-1z"/></svg>