<svg xmlns="http://www.w3.org/2000/svg" width="24" height="24" viewBox="0 0 24 24"><path d="M3 4a1 1 0 0 0-1 1v14c0 1.093.907 2 2 2h4c1.093 0 2-.907 2-2v-2c0-.75.245-1.185.602-1.502.356-.317.87-.498 1.398-.498s1.042.181 1.398.498c.357.317.602.752.602 1.502v2c0 1.093.907 2 2 2h4c1.093 0 2-.907 2-2V5a1 1 0 0 0-1-1h-4a1 1 0 0 0-1 1v2h-1V5a1 1 0 0 0-1-1h-4a1 1 0 0 0-1 1v2H8V5a1 1 0 0 0-1-1zm1 2h2v2a1 1 0 0 0 1 1h3a1 1 0 0 0 1-1V6h2v2a1 1 0 0 0 1 1h3a1 1 0 0 0 1-1V6h2v4H4zm0 6h16v7h-4v-2c0-1.25-.505-2.315-1.273-2.998C13.957 13.319 12.972 13 12 13s-1.958.319-2.727 1.002S8 15.75 8 17v2H4z"/></svg>