<svg xmlns="http://www.w3.org/2000/svg" width="24" height="24" viewBox="0 0 24 24"><path d="M11 3.004a3.4 3.4 0 0 0-2.812 1.412 1 1 0 0 0 .228 1.396 1 1 0 0 0 1.396-.228c.27-.376.704-.594 1.167-.584h.042c.463-.01.897.208 1.166.584A3.4 3.4 0 0 0 15 6.996a3.4 3.4 0 0 0 2.813-1.412c.27-.376.703-.594 1.166-.584h.042c.463-.01.897.208 1.166.584a1 1 0 0 0 1.397.229 1 1 0 0 0 .229-1.397A3.4 3.4 0 0 0 19 3.004a3.4 3.4 0 0 0-2.812 1.412c-.27.376-.704.594-1.167.584h-.042a1.4 1.4 0 0 1-1.166-.584A3.4 3.4 0 0 0 11 3.004zM6 8a1 1 0 0 0-1 .996C4.985 12.598 4.266 16.274 3.24 20H3a1 1 0 0 0-1 1 1 1 0 0 0 1 1h19a1 1 0 0 0 1-1 1 1 0 0 0-1-1h-2.32c-.96-2.439-1.659-4.8-1.68-7.01a1 1 0 0 0-1-.99h-3.834A31 31 0 0 1 13 8.996 1 1 0 0 0 12 8zm.904 2h4.192c.122 3.347.717 6.683 1.593 10H5.311c.876-3.317 1.47-6.653 1.593-10zm6.522 4h2.72c.164 2.018.677 4.02 1.395 6H14.76c-.555-2.016-1.023-4.017-1.334-6z"/></svg>