<svg xmlns="http://www.w3.org/2000/svg" width="24" height="24" viewBox="0 0 24 24"><path d="M19.066 2a3.3 3.3 0 0 0-1.175.246l-.063.027a8.6 8.6 0 0 0-2.943 2.295 19.4 19.4 0 0 0-2.717 4.075l-.002.005-.002.002c-.147.29-.232.607-.371.9-1.179.115-2.368-.02-3.457-.5a16.8 16.8 0 0 1-3.762-2.583 1 1 0 0 0-1.414.064 1 1 0 0 0 .067 1.412 18.8 18.8 0 0 0 4.232 2.909l.043.02c1.097.487 2.276.657 3.465.679-.31.768-.692 1.506-.947 2.295v.002a14 14 0 0 0-.725 3.76 5.06 5.06 0 0 0 .504 2.704l.027.055c.505.879 1.632 1.633 3.211 1.633 2.076 0 3.669-1.1 4.686-2.414s1.55-2.835 1.761-4.031v-.002c.293-1.667.029-3.802-1.57-4.987a1 1 0 0 0-1.4.21 1 1 0 0 0 .209 1.398c.595.441.98 1.97.793 3.033-.159.894-.62 2.181-1.373 3.154-.754.974-1.708 1.639-3.106 1.639-.959 0-1.304-.362-1.453-.607a3.07 3.07 0 0 1-.299-1.616l.002-.043c.057-1.104.267-2.195.625-3.242l.006-.015c.35-1.085.845-2.112 1.303-3.155 1.435-.393 2.793-1.028 3.97-1.95a13.1 13.1 0 0 0 3.118-3.13l.023-.037c.708-1.104 1.1-2.219.516-3.26-.293-.521-.856-.838-1.385-.918A2.6 2.6 0 0 0 19.066 2zm0 2.023c-.035-.006.021.392-.41 1.084a11.1 11.1 0 0 1-2.636 2.647l-.04.03c-.369.29-.845.363-1.25.593.52-.863 1.01-1.748 1.672-2.51l.018-.02a6.6 6.6 0 0 1 2.238-1.745c.196-.07.323-.08.408-.079z"/></svg>