<svg xmlns="http://www.w3.org/2000/svg" width="24" height="24" viewBox="0 0 24 24"><path d="M3 2a1 1 0 0 0-.707.293 1 1 0 0 0 0 1.414l.33.33A2.02 2.02 0 0 0 1 6v11a1 1 0 0 0 1 1h1.158c.164.499.445.93.803 1.248A3.05 3.05 0 0 0 6 20a3.05 3.05 0 0 0 2.04-.752c.357-.318.638-.75.802-1.248h6.334a3 3 0 0 0 .705 1.125 3.03 3.03 0 0 0 2.656.826l1.756 1.756a1 1 0 0 0 1.414 0 1 1 0 0 0 0-1.414l-2.08-2.08a1 1 0 0 0-.178-.178l-2.488-2.486-.012-.014a1 1 0 0 0-.142-.142l-.012-.01-6.047-6.047a1 1 0 0 0-.084-.084L7.73 6.318l-.048-.048-3.975-3.977A1 1 0 0 0 3 2zm6 2a1 1 0 0 0-1 1 1 1 0 0 0 1 1h2v2a1 1 0 0 0 1 1 1 1 0 0 0 1-1V6h2.191l.643 3H14a1 1 0 0 0-1 1 1 1 0 0 0 1 1h2.262l.26 1.209A1 1 0 0 0 17.5 13H21v3a1 1 0 0 0-1 1 1 1 0 0 0 1 1h1a1 1 0 0 0 1-1v-5c0-2.126-.606-4.069-1.65-5.531C20.305 5.006 18.759 4 17 4zM3 6h1.586L6 7.414V9H3zm14.24.012c.914.082 1.777.634 2.48 1.619.615.86 1.063 2.038 1.218 3.369h-2.63zM3 11h6.586l5 5H8.842a2.86 2.86 0 0 0-.803-1.248A3.05 3.05 0 0 0 6 14a3.05 3.05 0 0 0-2.04.752c-.357.318-.638.75-.802 1.248H3zm3 5c.278 0 .542.098.71.248.17.15.29.335.29.752s-.12.602-.29.752c-.168.15-.432.248-.71.248s-.542-.098-.71-.248C5.12 17.602 5 17.417 5 17s.12-.602.29-.752A1.1 1.1 0 0 1 6 16z"/></svg>