<svg xmlns="http://www.w3.org/2000/svg" width="24" height="24" viewBox="0 0 24 24"><path d="M4 2c-1.093 0-2 .907-2 2v4c0 1.093.907 2 2 2v10a1 1 0 0 0 1 1 1 1 0 0 0 1-1V10c1.093 0 2-.907 2-2V4c0-1.093-.907-2-2-2zm0 2h2v4H4zm6 0a1 1 0 0 0-1 1 1 1 0 0 0 1 1h1v3H9.5a1 1 0 0 0-1 1 1 1 0 0 0 1 1h6.762l.26 1.209A1 1 0 0 0 17.5 13H21v3h-.158a2.86 2.86 0 0 0-.803-1.248A3.05 3.05 0 0 0 18 14a3.05 3.05 0 0 0-2.04.752c-.357.318-.638.75-.802 1.248H8a1 1 0 0 0-1 1 1 1 0 0 0 1 1h7.158c.164.499.445.93.803 1.248A3.05 3.05 0 0 0 18 20a3.05 3.05 0 0 0 2.04-.752c.357-.318.638-.75.802-1.248H22a1 1 0 0 0 1-1v-5c0-2.126-.606-4.069-1.65-5.531C20.305 5.006 18.759 4 17 4zm3 2h2.191l.643 3H13zm4.24.012c.914.082 1.777.634 2.48 1.619.616.86 1.067 2.037 1.221 3.369H18.31zM18 16c.278 0 .542.098.71.248.17.15.29.335.29.752s-.12.602-.29.752c-.168.15-.432.248-.71.248s-.542-.098-.71-.248c-.17-.15-.29-.335-.29-.752s.12-.602.29-.752A1.1 1.1 0 0 1 18 16z"/></svg>