<svg xmlns="http://www.w3.org/2000/svg" width="24" height="24" viewBox="0 0 24 24"><path d="M16 2c-1.383 0-2.767.259-3.908.867C10.95 3.476 10 4.583 10 6v12c0 1.279.852 2.32 1.95 2.979C13.046 21.637 14.456 22 16 22s2.953-.363 4.05-1.021C21.149 20.32 22 19.279 22 18V6a1 1 0 0 0-.006-.111c-.049-1.363-.975-2.43-2.086-3.022C18.768 2.26 17.383 2 16 2zm0 2c1.117 0 2.233.241 2.967.633C19.7 5.024 20 5.417 20 6s-.3.976-1.033 1.367C18.233 7.76 17.117 8 16 8s-2.233-.241-2.967-.633C12.3 6.976 12 6.583 12 6s.3-.976 1.033-1.367C13.767 4.24 14.883 4 16 4zM5 7a1 1 0 0 0-1 1v.049a2.46 2.46 0 0 0-1.373.756A2.53 2.53 0 0 0 2 10.5c0 .597.194 1.208.627 1.695S3.75 13 4.5 13h1c.25 0 .31.058.377.133A.58.58 0 0 1 6 13.5a.58.58 0 0 1-.123.367C5.81 13.942 5.75 14 5.5 14H3a1 1 0 0 0-1 1 1 1 0 0 0 1 1h1a1 1 0 0 0 1 1 1 1 0 0 0 1-1v-.049a2.46 2.46 0 0 0 1.373-.756A2.53 2.53 0 0 0 8 13.5c0-.597-.194-1.208-.627-1.695S6.25 11 5.5 11h-1c-.25 0-.31-.058-.377-.133A.58.58 0 0 1 4 10.5a.58.58 0 0 1 .123-.367C4.19 10.058 4.25 10 4.5 10H7a1 1 0 0 0 1-1 1 1 0 0 0-1-1H6a1 1 0 0 0-1-1zm7 2.08.092.053C13.232 9.74 14.617 10 16 10s2.767-.259 3.908-.867L20 9.08V10c0 .378-.266.836-.979 1.264C18.31 11.69 17.218 12 16 12s-2.309-.309-3.021-.736C12.266 10.836 12 10.378 12 10zm0 3.928c1.09.64 2.48.992 4 .992s2.91-.353 4-.992V14c0 .378-.266.836-.979 1.264C18.31 15.69 17.218 16 16 16s-2.309-.309-3.021-.736C12.266 14.836 12 14.378 12 14zm0 4c1.09.64 2.48.992 4 .992s2.91-.353 4-.992V18c0 .378-.266.836-.979 1.264C18.31 19.69 17.218 20 16 20s-2.309-.309-3.021-.736C12.266 18.836 12 18.378 12 18z"/></svg>