<svg xmlns="http://www.w3.org/2000/svg" width="24" height="24" viewBox="0 0 24 24"><path d="M6.5 5A4.515 4.515 0 0 0 2 9.5v5C2 16.973 4.027 19 6.5 19H7c2.197 0 4-1.803 4-4a1 1 0 0 0-1-1 1 1 0 0 0-1 1c0 1.116-.884 2-2 2h-.5A2.485 2.485 0 0 1 4 14.5v-5C4 8.107 5.107 7 6.5 7H7c1.116 0 2 .884 2 2a1 1 0 0 0 1 1 1 1 0 0 0 1-1c0-2.197-1.803-4-4-4zm9.6 1.006a1 1 0 0 0-1.094.894l-.21 2.1H14a1 1 0 0 0-1 1 1 1 0 0 0 1 1h.596l-.2 2H13.5a1 1 0 0 0-1 1 1 1 0 0 0 1 1h.695l-.19 1.9a1 1 0 0 0 .895 1.094 1 1 0 0 0 1.094-.894l.21-2.1h1.991l-.19 1.9a1 1 0 0 0 .895 1.094 1 1 0 0 0 1.094-.894l.21-2.1H21a1 1 0 0 0 1-1 1 1 0 0 0-1-1h-.596l.2-2h.896a1 1 0 0 0 1-1 1 1 0 0 0-1-1h-.695l.19-1.9a1 1 0 0 0-.895-1.094 1 1 0 0 0-1.094.894l-.21 2.1h-1.991l.19-1.9a1 1 0 0 0-.895-1.094zM16.604 11h1.992l-.2 2h-1.992z"/></svg>