<svg xmlns="http://www.w3.org/2000/svg" width="24" height="24" viewBox="0 0 24 24"><path d="M3 2a1 1 0 0 0-.707.293 1 1 0 0 0 0 1.414L6.586 8H6c-2.197 0-4 1.803-4 4v8a1 1 0 0 0 1 1h16.586l.707.707a1 1 0 0 0 1.414 0 1 1 0 0 0 0-1.414l-7.021-7.022L3.707 2.293A1 1 0 0 0 3 2zm9 1a1 1 0 0 0-.746.334L9.704 5.07l-.028.035a3 3 0 0 0-.418.678 1 1 0 0 0 .51 1.319 1 1 0 0 0 1.318-.508 1 1 0 0 1 .139-.223V6.37L12 5.502l.719.803.013.015c.489.525.33 1.303-.324 1.594a1 1 0 0 0-.506 1.32 1 1 0 0 0 .354.418A1 1 0 0 0 13 10h5c1.116 0 2 .884 2 2v2h-.021a1.4 1.4 0 0 1-1.166-.584 1 1 0 0 0-1.397-.229 1 1 0 0 0-.229 1.397A3.4 3.4 0 0 0 20 15.996V17a1 1 0 0 0 1 1 1 1 0 0 0 1-1v-5c0-2.197-1.803-4-4-4h-3.187c.35-1.007.18-2.189-.616-3.043l-1.45-1.623A1 1 0 0 0 12 3zm-6 7h2.586l3.922 3.922a1.4 1.4 0 0 1-.487.078h-.042a1.4 1.4 0 0 1-1.166-.584A3.4 3.4 0 0 0 8 12.004a3.4 3.4 0 0 0-2.812 1.412c-.27.376-.704.594-1.167.584H4v-2c0-1.116.884-2 2-2zm1.979 4h.042c.463-.01.897.208 1.166.584A3.4 3.4 0 0 0 12 15.996a3.4 3.4 0 0 0 1.98-.601L17.586 19H4v-3.004a3.4 3.4 0 0 0 2.813-1.412c.27-.376.703-.594 1.166-.584z"/></svg>