<svg xmlns="http://www.w3.org/2000/svg" width="24" height="24" viewBox="0 0 24 24"><path d="M8 2a1 1 0 0 0-1 1v1H6C4.355 4 3 5.355 3 7v12c0 1.645 1.355 3 3 3h6a1 1 0 0 0 1-1 1 1 0 0 0-1-1H6c-.564 0-1-.436-1-1v-7h14.154a1 1 0 0 0 .846.5 1 1 0 0 0 1-1V7c0-1.645-1.355-3-3-3h-1V3a1 1 0 0 0-1-1 1 1 0 0 0-1 1v1H9V3a1 1 0 0 0-1-1zM6 6h1v1a1 1 0 0 0 1 1 1 1 0 0 0 1-1V6h6v1a1 1 0 0 0 1 1 1 1 0 0 0 1-1V6h1c.564 0 1 .436 1 1v3H5V7c0-.564.436-1 1-1zm13 8a3.05 3.05 0 0 0-2.04.752c-.58.517-.96 1.331-.96 2.248 0 .893.36 1.689.916 2.207A3.02 3.02 0 0 0 15 22a1 1 0 0 0 1 1 1 1 0 0 0 1-1c0-.564.436-1 1-1h2c.564 0 1 .436 1 1a1 1 0 0 0 1 1 1 1 0 0 0 1-1c0-1.263-.8-2.354-1.916-2.793.556-.518.916-1.314.916-2.207 0-.917-.38-1.731-.96-2.248A3.05 3.05 0 0 0 19 14zm0 2c.278 0 .542.098.71.248.17.15.29.335.29.752s-.12.602-.29.752c-.168.15-.432.248-.71.248s-.542-.098-.71-.248c-.17-.15-.29-.335-.29-.752s.12-.602.29-.752A1.1 1.1 0 0 1 19 16z"/></svg>