<svg xmlns="http://www.w3.org/2000/svg" width="24" height="24" viewBox="0 0 24 24"><path d="M8 2a1 1 0 0 0-1 1v1H6C4.355 4 3 5.355 3 7v12c0 1.645 1.355 3 3 3h6.5a1 1 0 0 0 1-1 1 1 0 0 0-1-1H6c-.564 0-1-.436-1-1v-7h14a1 1 0 0 0 1 1 1 1 0 0 0 1-1V7c0-1.645-1.355-3-3-3h-1V3a1 1 0 0 0-1-1 1 1 0 0 0-1 1v1H9V3a1 1 0 0 0-1-1zM6 6h1v1a1 1 0 0 0 1 1 1 1 0 0 0 1-1V6h6v1a1 1 0 0 0 1 1 1 1 0 0 0 1-1V6h1c.564 0 1 .436 1 1v3H5V7c0-.564.436-1 1-1zm13 9a1 1 0 0 0-.246.033l-.055.02a1 1 0 0 0-.168.07 1 1 0 0 0-.08.049 1 1 0 0 0-.117.09l-.041.031-3 3a1 1 0 0 0 0 1.414 1 1 0 0 0 1.414 0L18 18.414V22a1 1 0 0 0 1 1 1 1 0 0 0 1-1v-3.586l1.293 1.293a1 1 0 0 0 1.414 0 1 1 0 0 0 0-1.414l-2.97-2.97-.03-.03a1 1 0 0 0-.207-.158 1 1 0 0 0-.242-.1A1 1 0 0 0 19 15z"/></svg>