<svg xmlns="http://www.w3.org/2000/svg" width="24" height="24" viewBox="0 0 24 24"><path d="M8 2a1 1 0 0 0-1 1v1H6C4.355 4 3 5.355 3 7v12c0 1.645 1.355 3 3 3h9a1 1 0 0 0 1-1 1 1 0 0 0-1-1H6c-.564 0-1-.436-1-1v-7h14a1 1 0 0 0 1 1 1 1 0 0 0 1-1V7c0-1.645-1.355-3-3-3h-1V3a1 1 0 0 0-1-1 1 1 0 0 0-1 1v1H9V3a1 1 0 0 0-1-1zM6 6h1v1a1 1 0 0 0 1 1 1 1 0 0 0 1-1V6h6v1a1 1 0 0 0 1 1 1 1 0 0 0 1-1V6h1c.564 0 1 .436 1 1v3H5V7c0-.564.436-1 1-1zm5 8a1 1 0 0 0-1 1 1 1 0 0 0 1 1v2a1 1 0 0 0 1 1 1 1 0 0 0 1-1v-3l-.002-.068-.004-.043a1 1 0 0 0-.015-.092l-.004-.02-.012-.047-.002-.007-.02-.057-.017-.05-.006-.014a1 1 0 0 0-.043-.086 1 1 0 0 0-.059-.092v-.002l-.04-.053-.03-.035-.016-.016a1 1 0 0 0-.064-.064l-.035-.03-.008-.005-.047-.035-.056-.038-.036-.021-.004-.002-.046-.023-.036-.018-.015-.006-.053-.02-.06-.019-.047-.012-.086-.015-.026-.004-.043-.004h-.011L12 14zm8 1a1 1 0 0 0-1 1v3a1 1 0 0 0 1 1 1 1 0 0 0 1-1v-3a1 1 0 0 0-1-1zm0 6a1 1 0 0 0-1 1v.01a1 1 0 0 0 1 1 1 1 0 0 0 1-1V22a1 1 0 0 0-1-1z"/></svg>