<svg xmlns="http://www.w3.org/2000/svg" width="24" height="24" viewBox="0 0 24 24"><path d="M8 2a1 1 0 0 0-1 1v1H6C4.355 4 3 5.355 3 7v12c0 1.645 1.355 3 3 3h7.5a1 1 0 0 0 1-1 1 1 0 0 0-1-1H6c-.564 0-1-.436-1-1v-7h14a1 1 0 0 0 1 1 1 1 0 0 0 1-1V7c0-1.645-1.355-3-3-3h-1V3a1 1 0 0 0-1-1 1 1 0 0 0-1 1v1H9V3a1 1 0 0 0-1-1zM6 6h1v1a1 1 0 0 0 1 1 1 1 0 0 0 1-1V6h6v1a1 1 0 0 0 1 1 1 1 0 0 0 1-1V6h1c.564 0 1 .436 1 1v3H5V7c0-.564.436-1 1-1zm13.064 9.002a1 1 0 0 0-.26.018 1 1 0 0 0-.636.425l-2 3A1 1 0 0 0 17 20h2.13l-.962 1.445a1 1 0 0 0 .277 1.387 1 1 0 0 0 1.387-.277l2-3A1 1 0 0 0 21 18h-2.13l.962-1.445a1 1 0 0 0-.277-1.387 1 1 0 0 0-.49-.166z"/></svg>