<svg xmlns="http://www.w3.org/2000/svg" width="24" height="24" viewBox="0 0 24 24"><path d="M8 2a1 1 0 0 0-1 1v1H6C4.355 4 3 5.355 3 7v12c0 1.645 1.355 3 3 3h6.5a1 1 0 0 0 1-1 1 1 0 0 0-1-1H6c-.564 0-1-.436-1-1v-7h11a1 1 0 0 0 1-1 1 1 0 0 0-1-1H5V7c0-.564.436-1 1-1h1v1a1 1 0 0 0 1 1 1 1 0 0 0 1-1V6h6v1a1 1 0 0 0 1 1 1 1 0 0 0 1-1V6h1c.564 0 1 .436 1 1v3a1 1 0 0 0 1 1 1 1 0 0 0 1-1V7c0-1.645-1.355-3-3-3h-1V3a1 1 0 0 0-1-1 1 1 0 0 0-1 1v1H9V3a1 1 0 0 0-1-1zm11.889 11.006a1 1 0 0 0-.596.287 1 1 0 0 0 0 1.414l.293.293H19c-2.77 0-4.725 2.84-3.736 5.428s4.337 3.4 6.402 1.552a1 1 0 0 0 .08-1.412 1 1 0 0 0-1.412-.078 1.976 1.976 0 0 1-3.203-.777A1.974 1.974 0 0 1 19 17h.586l-.293.293a1 1 0 0 0 0 1.414 1 1 0 0 0 1.414 0l2-2a1 1 0 0 0 .086-.098l.004-.005a1 1 0 0 0 .068-.104l.006-.01a1 1 0 0 0 .053-.107l.006-.016a1 1 0 0 0 .06-.236v-.004a1 1 0 0 0 0-.258l-.002-.006a1 1 0 0 0-.064-.246l-.008-.015a1 1 0 0 0-.123-.211l-.012-.014a1 1 0 0 0-.074-.084l-2-2a1 1 0 0 0-.818-.287z"/></svg>