<svg xmlns="http://www.w3.org/2000/svg" width="24" height="24" viewBox="0 0 24 24"><path d="M8 2a1 1 0 0 0-1 1v1H6C4.355 4 3 5.355 3 7v12c0 1.645 1.355 3 3 3h12c1.645 0 3-1.355 3-3V7c0-1.645-1.355-3-3-3h-1V3a1 1 0 0 0-1-1 1 1 0 0 0-1 1v1H9V3a1 1 0 0 0-1-1zM6 6h1v1a1 1 0 0 0 1 1 1 1 0 0 0 1-1V6h6v1a1 1 0 0 0 1 1 1 1 0 0 0 1-1V6h1c.564 0 1 .436 1 1v3H5V7c0-.564.436-1 1-1zm-1 6h14v7c0 .564-.436 1-1 1H6c-.564 0-1-.436-1-1zm5.006 1a1 1 0 0 0-1 1 1 1 0 0 0 1 1h.01a1 1 0 0 0 1-1 1 1 0 0 0-1-1zm4 0a1 1 0 0 0-1 1 1 1 0 0 0 1 1h.01a1 1 0 0 0 1-1 1 1 0 0 0-1-1zM12 16.373c-.9 0-1.8.27-2.572.807a1 1 0 0 0-.248 1.392 1 1 0 0 0 1.392.248 2.49 2.49 0 0 1 2.856 0 1 1 0 0 0 1.392-.248 1 1 0 0 0-.248-1.392A4.5 4.5 0 0 0 12 16.373z"/></svg>