<svg xmlns="http://www.w3.org/2000/svg" width="24" height="24" viewBox="0 0 24 24"><path d="M9 3c-1.093 0-2 .907-2 2 0 .564-.436 1-1 1H5a1 1 0 0 0-.707.295C3.028 6.647 2 7.63 2 9v9c0 1.645 1.355 3 3 3h14c1.645 0 3-1.355 3-3V9c0-1.645-1.355-3-3-3h-1c-.564 0-1-.436-1-1 0-1.093-.907-2-2-2zm0 2h6c0 1.645 1.355 3 3 3h1c.564 0 1 .436 1 1v9c0 .564-.436 1-1 1H5c-.564 0-1-.436-1-1V9c0-.564.436-1 1-1h1c1.645 0 3-1.355 3-3zm3.064 4a4 4 0 0 0-.904.094 4.08 4.08 0 0 0-2.283 1.426A1 1 0 0 0 8 10a1 1 0 0 0-1 1v2a1 1 0 0 0 1 1h2a1 1 0 0 0 1-1 1 1 0 0 0-.76-.97 1.975 1.975 0 0 1 2.26-.967 1 1 0 0 0 1.219-.717A1 1 0 0 0 13 9.127 4 4 0 0 0 12.064 9zM14 12a1 1 0 0 0-1 1 1 1 0 0 0 .762.967 1.98 1.98 0 0 1-2.266.969 1 1 0 0 0-1.219.716 1 1 0 0 0 .717 1.22c1.596.414 3.186-.215 4.133-1.395A1 1 0 0 0 16 16a1 1 0 0 0 1-1v-2a1 1 0 0 0-1-1z"/></svg>