<svg xmlns="http://www.w3.org/2000/svg" width="24" height="24" viewBox="0 0 24 24"><path d="M9 3c-1.093 0-2 .907-2 2 0 .564-.436 1-1 1H5C3.355 6 2 7.355 2 9v9c0 1.645 1.355 3 3 3h6a1 1 0 0 0 1-1 1 1 0 0 0-1-1H5c-.564 0-1-.436-1-1V9c0-.564.436-1 1-1h1c1.645 0 3-1.355 3-3h6c0 1.645 1.355 3 3 3h1c.564 0 1 .436 1 1v4a1 1 0 0 0 1 1 1 1 0 0 0 1-1V9c0-1.645-1.355-3-3-3h-1c-.564 0-1-.436-1-1 0-1.093-.907-2-2-2zm2.895 6.002q-.154.004-.307.02a3.94 3.94 0 0 0-2.322 1.06c-1.37 1.284-1.559 3.18-.887 4.615s2.247 2.504 4.111 2.274a1 1 0 0 0 .871-1.116 1 1 0 0 0-1.115-.869c-1.018.126-1.71-.396-2.057-1.136-.346-.741-.304-1.608.444-2.309s1.613-.687 2.33-.293 1.193 1.117 1.002 2.125a1 1 0 0 0 .797 1.168 1 1 0 0 0 1.168-.795c.35-1.845-.616-3.49-2.004-4.252a4.05 4.05 0 0 0-2.031-.492zm4.994 7.004a1 1 0 0 0-.596.287l-2 2a1 1 0 0 0 0 1.414l2 2a1 1 0 0 0 1.414 0 1 1 0 0 0 0-1.414L16.414 19l1.293-1.293a1 1 0 0 0 0-1.414 1 1 0 0 0-.818-.287zm3 0a1 1 0 0 0-.596.287 1 1 0 0 0 0 1.414L20.586 19l-1.293 1.293a1 1 0 0 0 0 1.414 1 1 0 0 0 1.414 0l2-2a1 1 0 0 0 0-1.414l-2-2a1 1 0 0 0-.818-.287z"/></svg>