<svg xmlns="http://www.w3.org/2000/svg" width="24" height="24" viewBox="0 0 24 24"><path d="M5 3C3.355 3 2 4.355 2 6v11c0 1.093.907 2 2 2h.158c.164.499.445.93.803 1.248A3.05 3.05 0 0 0 7 21a3.05 3.05 0 0 0 2.04-.752c.357-.318.638-.75.802-1.248h4.316c.164.499.445.93.803 1.248A3.05 3.05 0 0 0 17 21a3.05 3.05 0 0 0 2.04-.752c.357-.318.638-.75.802-1.248H20c1.093 0 2-.907 2-2v-4a1 1 0 0 0-.143-.514L19.766 9H21a1 1 0 0 0 1-1c0-2.75-2.25-5-5-5zm0 2h12c1.276 0 2.15.887 2.588 2H4V6c0-.564.436-1 1-1zM4 9h9v8H9.842a2.86 2.86 0 0 0-.803-1.248A3.05 3.05 0 0 0 7 15a3.05 3.05 0 0 0-2.04.752c-.357.318-.638.75-.802 1.248H4zm11 0h2.434l1.8 3H15zm0 5h5v3h-.158a2.86 2.86 0 0 0-.803-1.248A3.05 3.05 0 0 0 17 15c-.706 0-1.425.226-2 .719zm-8 3c.278 0 .542.098.71.248.17.15.29.335.29.752s-.12.602-.29.752c-.168.15-.432.248-.71.248s-.542-.098-.71-.248C6.12 18.602 6 18.417 6 18s.12-.602.29-.752A1.1 1.1 0 0 1 7 17zm10 0c.278 0 .542.098.71.248.17.15.29.335.29.752s-.12.602-.29.752c-.168.15-.432.248-.71.248s-.542-.098-.71-.248c-.17-.15-.29-.335-.29-.752s.12-.602.29-.752A1.1 1.1 0 0 1 17 17z"/></svg>