<svg xmlns="http://www.w3.org/2000/svg" width="24" height="24" viewBox="0 0 24 24"><path d="M13.875 2.008a1 1 0 0 0-.322.097C9.379 4.191 7 7.464 7 11a5 5 0 0 0 10 0c0-1.047-.187-1.808-.605-2.705l-.17-.346-.33-.646C15.274 6.063 15 4.965 15 3a1 1 0 0 0-1.125-.992zm6.215 13.996a1 1 0 0 0-.332.025L12 17.97l-7.758-1.94-.113-.021a1 1 0 0 0-1.1.75 1 1 0 0 0 .729 1.213L7.875 19l-4.117 1.03-.112.034a1 1 0 0 0 .596 1.907L12 20.03l7.758 1.94.115.021a1 1 0 0 0 .37-1.963L16.124 19l4.117-1.03.112-.034a1 1 0 0 0-.264-1.932z"/></svg>