<svg xmlns="http://www.w3.org/2000/svg" width="24" height="24" viewBox="0 0 24 24"><path d="M3 2a1 1 0 0 0-.707.293 1 1 0 0 0 0 1.414l5.465 5.465-1.418 1.416-.002.002a3.01 3.01 0 0 0-.72 3.058l-1.874.803c-1.595.683-2.01 2.84-.783 4.067l2.217 2.214c1.339 1.34 3.734.677 4.193-1.16H9.37l.37-1.47c1.151.692 2.682.549 3.671-.44l1.418-1.42 5.465 5.465a1 1 0 0 0 1.414 0 1 1 0 0 0 0-1.414l-18-18A1 1 0 0 0 3 2zm13.723.246a2.6 2.6 0 0 0-.444.047 2.48 2.48 0 0 0-1.828 1.451l-.805 1.879a2.99 2.99 0 0 0-3.06.72l-.004.003-.117.12a1 1 0 0 0 .006 1.415 1 1 0 0 0 1.414-.006L12 7.758a.985.985 0 0 1 1.414 0l2.828 2.83a.985.985 0 0 1 0 1.414l-.123.123a1 1 0 0 0 0 1.414 1 1 0 0 0 1.414 0l.123-.123v-.002c.99-.99 1.133-2.522.438-3.674l1.478-.37v.001c1.837-.459 2.5-2.854 1.16-4.193L18.518 2.96a2.45 2.45 0 0 0-1.795-.715zm-.016 1.963a.52.52 0 0 1 .397.164l2.214 2.219c.31.31.194.731-.232.838l-2.54.634-1.24-1.242.983-2.29c.086-.201.246-.312.418-.323zm-7.535 6.377 4.242 4.242-1.418 1.42a.985.985 0 0 1-1.414 0l-.64-.64a1 1 0 0 0-.14-.14l-2.048-2.05a.985.985 0 0 1 0-1.414zm-2.356 4.723 1.247 1.246-.633 2.53c-.107.427-.528.544-.838.233l-2.219-2.214c-.274-.275-.199-.662.158-.815z"/></svg>