<svg xmlns="http://www.w3.org/2000/svg" width="24" height="24" viewBox="0 0 24 24"><path d="m15 3-.117.008A1 1 0 0 0 15 5h1v3.5l.008.117A1 1 0 0 0 18 8.5V5l-.006-.15A2 2 0 0 0 16 3zm-4.05.018a2 2 0 0 0-.602.152l-7.15 3.11a2 2 0 0 0-1.03 2.61l4.92 11.894a1.96 1.96 0 0 0 2.59 1.063l7.142-3.11a2 2 0 0 0 1.035-2.611l-4.92-11.895a1.96 1.96 0 0 0-1.986-1.214zm8.927 1.99a1 1 0 0 0-.797.601h-.002a1 1 0 0 0 .531 1.313l.403.166.365.148-2.297 5.371-.039.11a1 1 0 0 0 1.879.676l2.297-5.373.056-.147a2 2 0 0 0-1.115-2.478 36 36 0 0 1-.767-.315 1 1 0 0 0-.514-.072z"/></svg>