<svg xmlns="http://www.w3.org/2000/svg" width="24" height="24" viewBox="0 0 24 24"><path d="M5 5C3.355 5 2 6.355 2 8v8.5C2 18.421 3.579 20 5.5 20h1.063a4 4 0 0 0 3.117-1.504l.002-.002 1.539-1.918a.978.978 0 0 1 1.558 0l1.541 1.918v.002A4 4 0 0 0 17.437 20H18.5c1.921 0 3.5-1.579 3.5-3.5V8c0-1.645-1.355-3-3-3zm0 2h14c.564 0 1 .436 1 1v8.5c0 .84-.66 1.5-1.5 1.5h-1.061a2 2 0 0 1-1.556-.754l-.002-.002-1.541-1.92c-1.187-1.48-3.493-1.48-4.68 0l-1.54 1.92-.003.002c-.379.476-.95.753-1.558.754H5.5c-.84 0-1.5-.66-1.5-1.5V8c0-.564.436-1 1-1zm3 3c-.472 0-.958.152-1.352.502-.206.183-.226.512-.34.785A1 1 0 0 0 6 12a1 1 0 0 0 .309.713c.113.273.133.602.34.785.393.35.879.502 1.351.502s.958-.152 1.352-.502c.393-.35.648-.915.648-1.498s-.255-1.148-.648-1.498A2.02 2.02 0 0 0 8 10zm8 0c-.472 0-.958.152-1.352.502-.206.183-.226.512-.34.785A1 1 0 0 0 14 12a1 1 0 0 0 .309.713c.113.273.133.602.34.785.393.35.879.502 1.351.502s.958-.152 1.352-.502c.393-.35.648-.915.648-1.498s-.255-1.148-.648-1.498A2.02 2.02 0 0 0 16 10z"/></svg>