<svg xmlns="http://www.w3.org/2000/svg" width="24" height="24" viewBox="0 0 24 24"><path d="M15 3a1 1 0 0 0-1 1 1 1 0 0 0 1 1h1v3.5a1 1 0 0 0 1 1 1 1 0 0 0 1-1V5c0-1.093-.907-2-2-2zm-3.88.014a1.9 1.9 0 0 0-.772.154l-.006.004-7.137 3.107.008.006-.016-.002A2.014 2.014 0 0 0 2.17 8.891l4.914 11.882.002.002A1.977 1.977 0 0 0 9.68 21.85l.004-.002 7.138-3.11.006-.004a2.014 2.014 0 0 0 1.03-2.603L12.94 4.244l-.002-.002a1.95 1.95 0 0 0-1.07-1.076 2 2 0 0 0-.75-.152zm.02 1.99-.003.004-.002-.002zm8.739.004a1 1 0 0 0-.254.064 1 1 0 0 0-.545.537 1 1 0 0 0 .53 1.31q.393.169.767.315l.023.01-.023-.008-2.297 5.371a1 1 0 0 0 .527 1.313 1 1 0 0 0 1.313-.527l2.297-5.373.002-.004a2.015 2.015 0 0 0-1.06-2.621l-.024-.01q-.36-.142-.744-.305a1 1 0 0 0-.512-.072zm-8.781.015 4.914 11.875.004.01-7.09 3.088L4.014 8.117l-.004-.006V8.11z"/></svg>