<svg xmlns="http://www.w3.org/2000/svg" width="24" height="24" viewBox="0 0 24 24"><path d="M3 2a1 1 0 0 0-1 1v18a1 1 0 0 0 1 1 1 1 0 0 0 1-1v-2h10.586l-1.293 1.293a1 1 0 0 0 0 1.414 1 1 0 0 0 1.414 0l3-3a1 1 0 0 0 .102-.12l.002-.003a1 1 0 0 0 .136-.268l.006-.02A1 1 0 0 0 18 18l-.004-.088-.002-.008-.006-.047-.008-.052-.015-.063-.022-.072-.004-.012a1 1 0 0 0-.039-.092l-.035-.066-.004-.008-.03-.047-.05-.068-.015-.02-.059-.064-3-3A1 1 0 0 0 14 14a1 1 0 0 0-.707.293 1 1 0 0 0 0 1.414L14.586 17H4v-4h5.586l-1.293 1.293a1 1 0 0 0 0 1.414 1 1 0 0 0 1.414 0l3-3a1 1 0 0 0 .25-.426l.014-.045a1 1 0 0 0 .025-.324l-.012-.086-.004-.021a1 1 0 0 0-.04-.147l-.016-.04-.018-.04-.006-.012-.035-.066-.033-.055-.014-.02-.011-.015-.041-.053-.059-.064-3-3A1 1 0 0 0 9 8a1 1 0 0 0-.707.293 1 1 0 0 0 0 1.414L9.586 11H4V7h14.586l-1.293 1.293a1 1 0 0 0 0 1.414 1 1 0 0 0 1.414 0l3-3a1 1 0 0 0 .213-.318l.004-.006.002-.006A1 1 0 0 0 22 6a1 1 0 0 0-.006-.105l-.008-.06-.002-.009-.004-.017a1 1 0 0 0-.033-.123l-.008-.028-.015-.04-.008-.016a1 1 0 0 0-.05-.102 1 1 0 0 0-.063-.094l-.01-.015-.014-.016a1 1 0 0 0-.072-.082l-3-3a1 1 0 0 0-1.414 0 1 1 0 0 0 0 1.414L18.586 5H4V3a1 1 0 0 0-1-1z"/></svg>