<svg xmlns="http://www.w3.org/2000/svg" width="24" height="24" viewBox="0 0 24 24"><path d="M15.883 5.008a1 1 0 0 0-.662.367h-.002l-3.494 4.37-3.278-1.64-.115-.048a1 1 0 0 0-1.164.388l-4 6-.059.102-.046.103a1 1 0 0 0-.036.114l-.017.103-.01.112.004.109.016.107.027.108.039.101.016.035.054.096.065.09.072.082.059.055.093.07.102.059.103.046.108.034.11.02.11.009H20l.117-.008A1 1 0 0 0 21 15v-5l-.01-.13a1 1 0 0 0-.283-.577l-4-4-.094-.082a1 1 0 0 0-.73-.203zM4 18l-.117.008A1 1 0 0 0 4 20h16l.117-.008A1 1 0 0 0 20 18z"/></svg>