<svg xmlns="http://www.w3.org/2000/svg" width="24" height="24" viewBox="0 0 24 24"><path d="M14.5 2c-1.347 0-2.708.444-3.758 1.377S9 5.75 9 7.5s.692 3.19 1.742 4.123S13.152 13 14.5 13s2.708-.444 3.758-1.377S20 9.25 20 7.5s-.692-3.19-1.742-4.123S15.848 2 14.5 2zm0 2c.903 0 1.792.306 2.43.873C17.567 5.44 18 6.25 18 7.5s-.433 2.06-1.07 2.627c-.638.567-1.527.873-2.43.873s-1.792-.306-2.43-.873C11.433 9.56 11 8.75 11 7.5s.433-2.06 1.07-2.627C12.708 4.306 13.597 4 14.5 4zM6 12c-.972 0-1.958.319-2.727 1.002S2 14.75 2 16s.505 2.315 1.273 2.998C4.043 19.681 5.028 20 6 20s1.958-.319 2.727-1.002S10 17.25 10 16s-.505-2.315-1.273-2.998C7.957 12.319 6.972 12 6 12zm0 2c.528 0 1.042.181 1.398.498.357.317.602.752.602 1.502s-.245 1.185-.602 1.502C7.042 17.819 6.528 18 6 18s-1.042-.181-1.398-.498C4.245 17.185 4 16.75 4 16s.245-1.185.602-1.502C4.958 14.181 5.472 14 6 14zm10 2a3.05 3.05 0 0 0-2.04.752c-.58.517-.96 1.331-.96 2.248s.38 1.731.96 2.248A3.05 3.05 0 0 0 16 22a3.05 3.05 0 0 0 2.04-.752c.58-.517.96-1.331.96-2.248s-.38-1.731-.96-2.248A3.05 3.05 0 0 0 16 16zm0 2c.278 0 .542.098.71.248.17.15.29.335.29.752s-.12.602-.29.752c-.168.15-.432.248-.71.248s-.542-.098-.71-.248c-.17-.15-.29-.335-.29-.752s.12-.602.29-.752A1.1 1.1 0 0 1 16 18z"/></svg>