<svg xmlns="http://www.w3.org/2000/svg" width="24" height="24" viewBox="0 0 24 24"><path d="M10.076 2.195a2 2 0 0 0-.193.012l-.047.059-.063-.04C2.177 3.989-.553 13.527 4.961 19.04c5.514 5.514 15.051 2.784 16.812-4.812a1 1 0 0 0 .028-.227c0-1.093-.907-2-2-2H16a1 1 0 0 0-.969.748A3.069 3.069 0 0 1 9.84 14.16a3.069 3.069 0 0 1 1.412-5.191A1 1 0 0 0 12 8V4a1 1 0 0 0-.006-.104 1.92 1.92 0 0 0-1.918-1.7zM15 2.5a1 1 0 0 0-.842.62 1 1 0 0 0-.101.048 1 1 0 0 0 .01.174A1 1 0 0 0 14 3.5V8a1 1 0 0 0 .352.76q.48.41.888.888A1 1 0 0 0 16 10h4.5a1 1 0 0 0 .943-1.332 10 10 0 0 0-6.033-6.074l-.045-.022-.033-.015-.014.006A1 1 0 0 0 15 2.5zm-5 1.76v3.207c-3.096 1.43-4.107 5.574-1.574 8.107s6.677 1.522 8.107-1.574h3.207c-1.57 5.98-8.948 8.042-13.365 3.625S4.02 5.83 10 4.26zm6 1.021A7.7 7.7 0 0 1 18.719 8h-2.31A10 10 0 0 0 16 7.592z"/></svg>