<svg xmlns="http://www.w3.org/2000/svg" width="24" height="24" viewBox="0 0 24 24"><path d="M3 2a1 1 0 0 0-.707.293 1 1 0 0 0 0 1.414L4.26 5.674C1.046 9.6 1.273 15.423 4.938 19.08c3.66 3.652 9.473 3.872 13.392.664l1.963 1.963a1 1 0 0 0 1.414 0 1 1 0 0 0 0-1.414l-2.55-2.55a1 1 0 0 0-.079-.093l-.04-.027-5.331-5.33-2-2-8-8A1 1 0 0 0 3 2zm7.076.195a2 2 0 0 0-.193.012 1 1 0 0 0-.108.02 10 10 0 0 0-2.287.832 1 1 0 0 0-.435 1.343 1 1 0 0 0 1.343.438A8 8 0 0 1 10 4.256V7a1 1 0 0 0 1 1 1 1 0 0 0 1-1V4a1 1 0 0 0-.006-.104 1.92 1.92 0 0 0-1.918-1.7zM15 2.5a1 1 0 0 0-.842.62 1 1 0 0 0-.101.048 1 1 0 0 0 .01.174A1 1 0 0 0 14 3.5V8c0 1.093.907 2 2 2h4.5a1 1 0 0 0 .943-1.332 10 10 0 0 0-6.033-6.074l-.045-.022-.033-.015-.014.006A1 1 0 0 0 15 2.5zm1 2.781A7.7 7.7 0 0 1 18.719 8H16zM5.682 7.096l4.355 4.355a3.02 3.02 0 0 0 2.512 2.512l4.357 4.357a7.984 7.984 0 0 1-10.556-.656 7.983 7.983 0 0 1-.668-10.568zM17 12a1 1 0 0 0-1 1 1 1 0 0 0 1 1h2.744a8 8 0 0 1-.59 1.613 1 1 0 0 0 .438 1.346 1 1 0 0 0 1.346-.436 10 10 0 0 0 .835-2.298 1 1 0 0 0 .028-.225c0-1.093-.907-2-2-2z"/></svg>