<svg xmlns="http://www.w3.org/2000/svg" width="24" height="24" viewBox="0 0 24 24"><path d="M15.893 3.006a1 1 0 0 0-.66.353l-4.495 5.393-3.29-1.647-.11-.046a1 1 0 0 0-1.139.341l-3 4-.068.106A1 1 0 0 0 3.4 12.8l.105.068A1 1 0 0 0 4.8 12.6l2.498-3.331 3.254 1.627.115.048a1 1 0 0 0 1.1-.302l4.298-5.159 3.227 3.225.094.082a1 1 0 0 0 1.32-1.496l-4-4-.094-.082a1 1 0 0 0-.72-.205zm-.01 6.002a1 1 0 0 0-.662.367h-.002l-3.494 4.37-3.278-1.64-.115-.048a1 1 0 0 0-1.164.388l-4 6-.059.102-.046.103a1 1 0 0 0-.036.114l-.017.103-.01.112.004.109.016.107.027.108.039.101.016.035.054.096.065.09.072.082.059.055.093.07.102.059.103.047.108.033.11.02.11.009H20l.117-.008A1 1 0 0 0 21 19v-5l-.01-.13a1 1 0 0 0-.283-.577l-4-4-.094-.082a1 1 0 0 0-.73-.203z"/></svg>