<svg xmlns="http://www.w3.org/2000/svg" width="24" height="24" viewBox="0 0 24 24"><path d="M6 3a1 1 0 0 0-1 1v1c-1.093 0-2 .907-2 2v3c0 1.093.907 2 2 2v8a1 1 0 0 0 1 1 1 1 0 0 0 1-1v-8c1.093 0 2-.907 2-2V7c0-1.093-.907-2-2-2V4a1 1 0 0 0-1-1zm6 0a1 1 0 0 0-1 1v9c-1.093 0-2 .907-2 2v3c0 1.093.907 2 2 2a1 1 0 0 0 1 1 1 1 0 0 0 1-1c1.093 0 2-.907 2-2v-3c0-1.093-.907-2-2-2V4a1 1 0 0 0-1-1zm6 0a1 1 0 0 0-1 1c-1.093 0-2 .907-2 2v4c0 1.093.907 2 2 2v8a1 1 0 0 0 1 1 1 1 0 0 0 1-1v-8c1.093 0 2-.907 2-2V6c0-1.093-.907-2-2-2a1 1 0 0 0-1-1zm-1 3h2v4h-2zM5 7h2v3H5zm6 8h2v3h-2z"/></svg>