<svg xmlns="http://www.w3.org/2000/svg" width="24" height="24" viewBox="0 0 24 24"><path d="M9.018 1.988a2 2 0 0 0-.198.028 1 1 0 0 0-.77 1.3l.75 2.248-2.814 1.733c-.802.493-1.098 1.474-.879 2.248S6.091 11 7.033 11h1.563L7.1 15.332l-.995.498A2 2 0 0 0 5 17.617V20a1 1 0 0 0 1 1h12a1 1 0 0 0 1-1v-2.383c0-.755-.43-1.45-1.105-1.787l-.99-.496.095-4.313V11c0-1.621-.287-3.264-1.018-4.697-.73-1.433-1.946-2.65-3.652-3.246q-1.457-.51-2.219-.764a25 25 0 0 0-.6-.193 4 4 0 0 0-.198-.057l-.114-.025c-.037-.007-.038-.04-.181-.03zm1.56 2.58c.365.126.61.207 1.092.375 1.204.421 1.99 1.205 2.531 2.268S15 9.62 15 10.998V11l-.09 4H9.332l1.613-4.674A1 1 0 0 0 10 9H7.033l3.49-2.148a1 1 0 0 0 .426-1.168zM8.236 17h7.528l1.236.62V19H7v-1.38z"/></svg>