<svg xmlns="http://www.w3.org/2000/svg" width="24" height="24" viewBox="0 0 24 24"><path d="M11.867 2.014c-5.48 0-9.96 4.436-10 9.916S6.24 21.92 11.721 22h.295c5.482-.08 9.892-4.59 9.851-10.07s-4.519-9.916-10-9.916zm0 2a7.98 7.98 0 0 1 8 7.93A7.986 7.986 0 0 1 11.984 20h-.234a7.986 7.986 0 0 1-7.883-8.057 7.98 7.98 0 0 1 8-7.93zM12 7a1 1 0 0 0-.707.293l-3 3a1 1 0 0 0 0 1.414 1 1 0 0 0 1.414 0L12 9.414l2.293 2.293a1 1 0 0 0 1.414 0 1 1 0 0 0 0-1.414l-3-3A1 1 0 0 0 12 7zm0 4a1 1 0 0 0-.707.293l-3 3a1 1 0 0 0 0 1.414 1 1 0 0 0 1.414 0L12 13.414l2.293 2.293a1 1 0 0 0 1.414 0 1 1 0 0 0 0-1.414l-3-3A1 1 0 0 0 12 11z"/></svg>