<svg xmlns="http://www.w3.org/2000/svg" width="24" height="24" viewBox="0 0 24 24"><path d="M12 4a1 1 0 0 0-1 1v5H6a1 1 0 0 0-1 1 1 1 0 0 0 1 1h12a1 1 0 0 0 1-1 1 1 0 0 0-1-1h-5V5a1 1 0 0 0-1-1zM6 14a3.05 3.05 0 0 0-2.04.752c-.357.318-.638.75-.802 1.248H2a1 1 0 0 0-1 1 1 1 0 0 0 1 1h1.158c.164.499.445.93.803 1.248A3.05 3.05 0 0 0 6 20a3.05 3.05 0 0 0 2.04-.752C8.62 18.731 9 17.917 9 17s-.38-1.731-.96-2.248A3.05 3.05 0 0 0 6 14zm12 0a3.05 3.05 0 0 0-2.04.752c-.58.517-.96 1.331-.96 2.248s.38 1.731.96 2.248A3.05 3.05 0 0 0 18 20a3.05 3.05 0 0 0 2.04-.752c.357-.318.638-.75.802-1.248H22a1 1 0 0 0 1-1 1 1 0 0 0-1-1h-1.158a2.86 2.86 0 0 0-.803-1.248A3.05 3.05 0 0 0 18 14zM6 16c.278 0 .542.098.71.248.17.15.29.335.29.752s-.12.602-.29.752c-.168.15-.432.248-.71.248s-.542-.098-.71-.248C5.12 17.602 5 17.417 5 17s.12-.602.29-.752A1.1 1.1 0 0 1 6 16zm12 0c.278 0 .542.098.71.248.17.15.29.335.29.752s-.12.602-.29.752c-.168.15-.432.248-.71.248s-.542-.098-.71-.248c-.17-.15-.29-.335-.29-.752s.12-.602.29-.752A1.1 1.1 0 0 1 18 16z"/></svg>