<svg xmlns="http://www.w3.org/2000/svg" width="24" height="24" viewBox="0 0 24 24"><path d="M13 8a1 1 0 0 0-.707.293 1 1 0 0 0 0 1.414L13.586 11H8a1 1 0 0 0-1 1 1 1 0 0 0 1 1h5.586l-1.293 1.293a1 1 0 0 0 0 1.414 1 1 0 0 0 1.414 0l3-3a1 1 0 0 0 .158-.207 1 1 0 0 0 .092-.219l.014-.045A1 1 0 0 0 17 12a1 1 0 0 0-.004-.092l-.012-.082-.002-.01-.017-.074-.004-.015-.022-.069-.007-.02-.026-.06-.011-.023-.03-.055-.006-.008-.04-.066-.05-.065-.003-.004-.028-.03-.031-.034-.033-.031-2.967-2.969A1 1 0 0 0 13 8zM3 10l-.023.023C1.896 10.038 1 10.93 1 12.013v.012a2.03 2.03 0 0 0 1.252 1.83 2.03 2.03 0 0 0 2.172-.45 2.03 2.03 0 0 0 .422-2.176A2.03 2.03 0 0 0 3 10zm18 0-.023.023c-1.081.015-1.977.907-1.977 1.99v.012a2.03 2.03 0 0 0 1.252 1.83 2.03 2.03 0 0 0 2.172-.45 2.03 2.03 0 0 0 .422-2.176A2.03 2.03 0 0 0 21 10z"/></svg>