<svg xmlns="http://www.w3.org/2000/svg" width="24" height="24" viewBox="0 0 24 24"><path d="M12 2a1 1 0 0 0-1 1v3a1 1 0 0 0 1 1 1 1 0 0 0 1-1V3a1 1 0 0 0-1-1zM5.6 4.6a1 1 0 0 0-.707.293 1 1 0 0 0 0 1.414l2.2 2.2a1 1 0 0 0 1.415 0 1 1 0 0 0 0-1.413L6.307 4.893A1 1 0 0 0 5.6 4.6zm12.8 0a1 1 0 0 0-.707.293l-2.2 2.2a1 1 0 0 0 0 1.415 1 1 0 0 0 1.413 0l2.201-2.201a1 1 0 0 0 0-1.414A1 1 0 0 0 18.4 4.6zM3 11a1 1 0 0 0-1 1 1 1 0 0 0 1 1h3a1 1 0 0 0 1-1 1 1 0 0 0-1-1zm8.684.05a1 1 0 0 0-.211.423 1 1 0 0 0-.422.21 1 1 0 0 0 .158.317 1 1 0 0 0-.158.316l3 9a1 1 0 0 0 1.844.131l1.851-3.7 3.701-1.852a1 1 0 0 0-.13-1.844l-9-3a1 1 0 0 0-.317.158 1 1 0 0 0-.316-.158zm1.898 2.532 4.81 1.604-1.84.92a1 1 0 0 0-.447.447l-.92 1.84zm-5.781 1.617a1 1 0 0 0-.707.293l-2.201 2.201a1 1 0 0 0 0 1.414 1 1 0 0 0 1.414 0l2.2-2.2a1 1 0 0 0 0-1.415 1 1 0 0 0-.706-.293z"/></svg>