<svg xmlns="http://www.w3.org/2000/svg" width="24" height="24" viewBox="0 0 24 24"><path d="M12.092 2.027c-2.575-.052-5.202.88-7.268 3.008-5.875 6.055-1.932 16.357 6.485 16.942a1 1 0 0 0 1.066-.93 1 1 0 0 0-.93-1.067C4.584 19.504 1.47 11.363 6.26 6.428c4.79-4.936 13.019-2.065 13.7 4.779a1 1 0 0 0 1.095.895 1 1 0 0 0 .896-1.094c-.523-5.247-4.786-8.634-9.346-8.957q-.256-.018-.513-.024zM12 6a1 1 0 0 0-1 1v5a1 1 0 0 0 .293.707l.5.5a1 1 0 0 0 1.414 0 1 1 0 0 0 0-1.414L13 11.586V7a1 1 0 0 0-1-1zm4.219 8.006a3.24 3.24 0 0 0-2.264.91 3.16 3.16 0 0 0-.012 4.502l3.356 3.295a1 1 0 0 0 1.4.002l3.348-3.281a3.16 3.16 0 0 0 .008-4.504c-1.064-1.04-2.621-1.005-3.854-.278l.274.27c-.13-.127-.326-.091-.471-.192-.147.101-.343.064-.475.192l.276-.272c-.507-.3-1.012-.643-1.586-.644zm-.004 1.988c.31 0 .62.12.865.36l.219.216a1 1 0 0 0 1.404.002l.223-.22-.004.005a1.23 1.23 0 0 1 1.734.002v.002c.47.459.47 1.18-.002 1.637l-.004.004L18 20.6l-2.654-2.61-.002-.002a1.126 1.126 0 0 1 .004-1.636 1.24 1.24 0 0 1 .867-.358z"/></svg>