<svg xmlns="http://www.w3.org/2000/svg" width="24" height="24" viewBox="0 0 24 24"><path d="M11.906 1.986c-2.608.009-5.269 1.035-7.324 3.309-3.131 3.464-3.24 8.038-1.37 11.48 1.872 3.443 5.768 5.841 10.38 5.098a1 1 0 0 0 .828-1.146 1 1 0 0 0-1.147-.829c-3.783.61-6.792-1.299-8.302-4.078S3.496 9.48 6.064 6.637c2.57-2.842 6.11-3.238 9.028-2.016 2.917 1.223 5.12 4.024 4.894 7.85a1 1 0 0 0 .94 1.056 1 1 0 0 0 1.056-.937c.276-4.663-2.503-8.298-6.117-9.813a10.2 10.2 0 0 0-3.959-.79zM12 6a1 1 0 0 0-1 1v5a1 1 0 0 0 .293.707l3 3a1 1 0 0 0 1.414 0 1 1 0 0 0 0-1.414L13 11.586V7a1 1 0 0 0-1-1zm7.064 9.002a1 1 0 0 0-.26.018 1 1 0 0 0-.636.425l-2 3A1 1 0 0 0 17 20h2.13l-.962 1.445a1 1 0 0 0 .277 1.387 1 1 0 0 0 1.387-.277l2-3A1 1 0 0 0 21 18h-2.13l.962-1.445a1 1 0 0 0-.277-1.387 1 1 0 0 0-.49-.166z"/></svg>