<svg xmlns="http://www.w3.org/2000/svg" width="24" height="24" viewBox="0 0 24 24"><path d="M12.025 1.99c-2.499-.018-5.057.897-7.103 2.948-3.118 3.124-3.597 7.436-2.154 10.904S7.607 22.01 12.02 22a1 1 0 0 0 .999-1.002A1 1 0 0 0 12.018 20c-3.609.008-6.242-2.13-7.405-4.926C3.45 12.28 3.79 8.904 6.338 6.35s5.92-2.9 8.719-1.743C17.854 5.764 20 8.391 20 12a1 1 0 0 0 1 1 1 1 0 0 0 1-1c0-4.415-2.707-7.805-6.178-9.24a10.2 10.2 0 0 0-3.797-.77zM12 6a1 1 0 0 0-1 1v5a1 1 0 0 0 .293.707l1 1a1 1 0 0 0 1.414 0 1 1 0 0 0 0-1.414L13 11.586V7a1 1 0 0 0-1-1zm6.344 7.512a1 1 0 0 0-.551.281C17.029 14.557 15.667 15 15 15a1 1 0 0 0-1 1c0 2.208.696 3.929 1.574 5.1.44.585.92 1.036 1.403 1.357.481.321.94.543 1.523.543s1.042-.222 1.523-.543a5.8 5.8 0 0 0 1.403-1.357C22.304 19.929 23 18.208 23 16a1 1 0 0 0-1-1c-.667 0-2.029-.443-2.793-1.207a1 1 0 0 0-.863-.281zm.156 2.16c.768.571 1.561.931 2.38 1.101-.142 1.35-.538 2.437-1.056 3.127a3.9 3.9 0 0 1-.91.893c-.195.13-.365.18-.414.197-.049-.018-.219-.067-.414-.197a3.9 3.9 0 0 1-.91-.893c-.518-.69-.914-1.776-1.057-3.127.82-.17 1.613-.53 2.381-1.101z"/></svg>