<svg xmlns="http://www.w3.org/2000/svg" width="24" height="24" viewBox="0 0 24 24"><path d="M11.865 1.99c-2.881.019-5.812 1.27-7.87 4.02-2.93 3.912-2.45 8.66-.048 11.922s6.795 5.128 11.4 3.492a1 1 0 0 0 .608-1.278 1 1 0 0 0-1.277-.607c-3.792 1.347-7.178-.156-9.12-2.793s-2.372-6.317.038-9.537 6.063-3.844 9.14-2.725c3.078 1.12 5.476 3.946 5.252 7.963a1 1 0 0 0 .942 1.053 1 1 0 0 0 1.054-.941c.272-4.881-2.757-8.568-6.564-9.954a10.2 10.2 0 0 0-3.555-.615zM12 6a1 1 0 0 0-1 1v5a1 1 0 0 0 .293.707l3 3a1 1 0 0 0 1.414 0 1 1 0 0 0 0-1.414L13 11.586V7a1 1 0 0 0-1-1zm7 9a1 1 0 0 0-1 1v3a1 1 0 0 0 1 1 1 1 0 0 0 1-1v-3a1 1 0 0 0-1-1zm0 6a1 1 0 0 0-1 1v.01a1 1 0 0 0 1 1 1 1 0 0 0 1-1V22a1 1 0 0 0-1-1z"/></svg>