<svg xmlns="http://www.w3.org/2000/svg" width="24" height="24" viewBox="0 0 24 24"><path d="M11.688 1.988q-.368.01-.737.047c-1.965.2-3.927.999-5.62 2.516C1.941 7.585 1.288 12 2.665 15.586S7.483 22.014 12.031 22a1 1 0 0 0 .996-1.004A1 1 0 0 0 12.025 20c-3.724.011-6.381-2.238-7.492-5.13S3.89 8.525 6.664 6.04s6.255-2.57 9.008-1.148 4.698 4.308 4.277 8.01a1 1 0 0 0 .881 1.107 1 1 0 0 0 1.108-.881c.513-4.52-1.935-8.251-5.348-10.014a10.1 10.1 0 0 0-4.902-1.127zM12 6a1 1 0 0 0-1 1v5a1 1 0 0 0 .293.707l2 2a1 1 0 0 0 1.414 0 1 1 0 0 0 0-1.414L13 11.586V7a1 1 0 0 0-1-1zm4.5 10a1 1 0 0 0-1 1 1 1 0 0 0 1 1h2.086l-3.293 3.293a1 1 0 0 0 0 1.414 1 1 0 0 0 1.414 0L20 19.414V21.5a1 1 0 0 0 1 1 1 1 0 0 0 1-1V17l-.002-.016a1 1 0 0 0-.03-.224l-.011-.041a1 1 0 0 0-.092-.219l-.004-.006a1 1 0 0 0-.154-.201 1 1 0 0 0-.207-.158A1 1 0 0 0 21 16z"/></svg>