<svg xmlns="http://www.w3.org/2000/svg" width="24" height="24" viewBox="0 0 24 24"><path d="M12.096 2.998a5.3 5.3 0 0 0-1.553.227c-1.37.412-2.358 1.439-2.893 2.687C5.625 6.208 4 7.826 4 9.896 4 12.178 5.945 14 8.26 14H11v1.158a2.9 2.9 0 0 0-1.04.594c-.357.318-.638.75-.802 1.248H3a1 1 0 0 0-1 1 1 1 0 0 0 1 1h6.158c.164.499.445.93.803 1.248A3.05 3.05 0 0 0 12 21a3.05 3.05 0 0 0 2.04-.752c.357-.318.638-.75.802-1.248H21a1 1 0 0 0 1-1 1 1 0 0 0-1-1h-6.158a2.86 2.86 0 0 0-.803-1.248A2.9 2.9 0 0 0 13 15.158V14h3.572A3.436 3.436 0 0 0 20 10.588v-.004c-.004-1.805-1.447-3.264-3.227-3.371-.088-1.193-.523-2.346-1.51-3.125a5.06 5.06 0 0 0-2.242-1.006 5.3 5.3 0 0 0-.925-.084zm-.012 2.004q.292.003.576.055c.504.09.978.296 1.361.6h.002c.768.605 1.072 1.457.883 2.294a1 1 0 0 0 .977 1.22h.693c.795 0 1.421.62 1.424 1.415A1.405 1.405 0 0 1 16.576 12H8.26C6.975 12 6 11.041 6 9.896s.975-2.103 2.26-2.103a1 1 0 0 0 .976-.78c.189-.836.877-1.572 1.883-1.874h.002c.314-.095.64-.14.963-.137zM12 17c.278 0 .542.098.71.248.17.15.29.335.29.752s-.12.602-.29.752c-.168.15-.432.248-.71.248s-.542-.098-.71-.248c-.17-.15-.29-.335-.29-.752s.12-.602.29-.752A1.1 1.1 0 0 1 12 17z"/></svg>