<svg xmlns="http://www.w3.org/2000/svg" width="24" height="24" viewBox="0 0 24 24"><path d="M12.133 3.998a7.1 7.1 0 0 0-2.092.307c-1.937.59-3.334 2.06-3.998 3.851C3.246 8.466 1 10.694 1 13.518c0 3.037 2.565 5.481 5.656 5.486H12a1 1 0 0 0 1-1 1 1 0 0 0-1-1H6.656C4.605 17 3 15.432 3 13.518s1.604-3.483 3.656-3.483a1 1 0 0 0 .977-.783c.308-1.382 1.423-2.556 2.99-3.033 1.566-.477 3.313-.15 4.527.824h.002c1.216.972 1.726 2.389 1.418 3.771a1 1 0 0 0 .977 1.217h.988c.988 0 1.827.576 2.225 1.414a1 1 0 0 0 1.334.475 1 1 0 0 0 .472-1.332 4.47 4.47 0 0 0-4.03-2.557h-.1c-.013-1.725-.614-3.412-2.034-4.549a6.8 6.8 0 0 0-3.02-1.369 7 7 0 0 0-1.25-.115zM19 15a1 1 0 0 0-.246.033l-.055.02a1 1 0 0 0-.168.07 1 1 0 0 0-.08.049 1 1 0 0 0-.117.09l-.041.031-3 3a1 1 0 0 0 0 1.414 1 1 0 0 0 1.414 0L18 18.414V22a1 1 0 0 0 1 1 1 1 0 0 0 1-1v-3.586l1.293 1.293a1 1 0 0 0 1.414 0 1 1 0 0 0 0-1.414l-2.97-2.97-.03-.03a1 1 0 0 0-.207-.158 1 1 0 0 0-.242-.1A1 1 0 0 0 19 15z"/></svg>