<svg xmlns="http://www.w3.org/2000/svg" width="24" height="24" viewBox="0 0 24 24"><path d="M12.596 3.94a7.6 7.6 0 0 0-1.203.058 6.9 6.9 0 0 0-2.305.717c-1.256.658-2.222 1.871-2.762 3.414-1.477.156-2.75.693-3.588 1.596-.972 1.046-1.443 2.418-1.443 3.775s.47 2.729 1.443 3.775C3.711 18.322 5.193 19 7 19a1 1 0 0 0 1-1 1 1 0 0 0-1-1c-1.329 0-2.2-.447-2.795-1.088-.595-.64-.91-1.52-.91-2.412 0-.893.315-1.771.91-2.412C4.801 10.448 5.671 10 7 10a1 1 0 0 0 .977-.781c.31-1.382 1.053-2.216 2.039-2.733.985-.516 2.239-.667 3.416-.453 1.176.214 2.25.789 2.916 1.584.665.796.986 1.783.675 3.164A1 1 0 0 0 18 12h1c.917 0 1.477.308 1.877.758s.623 1.09.623 1.742c0 .653-.223 1.292-.623 1.742S19.917 17 19 17h-1a1 1 0 0 0-1 1 1 1 0 0 0 1 1h1c1.417 0 2.606-.567 3.373-1.43.767-.862 1.127-1.973 1.127-3.07s-.36-2.208-1.127-3.07C21.606 10.567 20.417 10 19 10h-.023c.025-1.41-.299-2.714-1.094-3.666-1.027-1.23-2.52-1.982-4.094-2.268a8 8 0 0 0-1.193-.127zm.343 9.062a1 1 0 0 0-.255.049 1 1 0 0 0-.579.502l-2 4A1 1 0 0 0 11 19h1.383l-1.278 2.553a1 1 0 0 0 .448 1.342 1 1 0 0 0 1.342-.448l2-4A1 1 0 0 0 14 17h-1.383l1.278-2.553a1 1 0 0 0-.448-1.342 1 1 0 0 0-.508-.103z"/></svg>