<svg xmlns="http://www.w3.org/2000/svg" width="24" height="24" viewBox="0 0 24 24"><path d="M12.133 3.998a7.1 7.1 0 0 0-2.092.307c-1.937.59-3.334 2.06-3.998 3.851C3.246 8.466 1 10.694 1 13.518c0 3.037 2.565 5.481 5.656 5.486H10a1 1 0 0 0 1-1 1 1 0 0 0-1-1H6.656C4.605 17 3 15.432 3 13.518s1.604-3.483 3.656-3.483a1 1 0 0 0 .977-.783c.308-1.382 1.423-2.556 2.99-3.033 1.566-.477 3.313-.15 4.527.824h.002c1.216.972 1.726 2.389 1.418 3.771a1 1 0 0 0 .977 1.217h.988a1 1 0 0 0 1-1 1 1 0 0 0-1-1h-.1c-.012-1.725-.613-3.412-2.033-4.549a6.8 6.8 0 0 0-3.02-1.369 7 7 0 0 0-1.25-.115zm4.086 10.008a3.24 3.24 0 0 0-2.264.91 3.16 3.16 0 0 0-.012 4.502l3.356 3.295a1 1 0 0 0 1.4.002l3.348-3.281a3.16 3.16 0 0 0 .008-4.504c-1.064-1.04-2.621-1.005-3.854-.278l.274.27c-.13-.127-.326-.091-.471-.192-.147.101-.343.064-.475.192l.276-.272c-.507-.3-1.012-.643-1.586-.644zm-.004 1.988c.31 0 .62.12.865.36l.219.216a1 1 0 0 0 1.404.002l.223-.22-.004.005a1.23 1.23 0 0 1 1.734.002v.002c.47.459.47 1.18-.002 1.637l-.004.004L18 20.6l-2.654-2.61-.002-.002a1.126 1.126 0 0 1 .004-1.636 1.24 1.24 0 0 1 .867-.358z"/></svg>