<svg xmlns="http://www.w3.org/2000/svg" width="24" height="24" viewBox="0 0 24 24"><path d="M12.133 3.998a7.1 7.1 0 0 0-2.092.307c-1.937.59-3.334 2.06-3.998 3.851C3.246 8.466 1 10.694 1 13.518c0 3.037 2.565 5.481 5.656 5.486H11a1 1 0 0 0 1-1 1 1 0 0 0-1-1H6.656C4.605 17 3 15.432 3 13.518s1.604-3.483 3.656-3.483a1 1 0 0 0 .977-.783c.308-1.382 1.423-2.556 2.99-3.033 1.566-.477 3.313-.15 4.527.824h.002c1.216.972 1.726 2.389 1.418 3.771a1 1 0 0 0 .977 1.217h.988a2.46 2.46 0 0 1 2.352 1.739 1 1 0 0 0 1.252.66 1 1 0 0 0 .66-1.25 4.48 4.48 0 0 0-4.262-3.149h-.102c-.012-1.725-.613-3.412-2.033-4.549a6.8 6.8 0 0 0-3.02-1.369 7 7 0 0 0-1.25-.115zm4.756 12.008a1 1 0 0 0-.596.287l-2 2a1 1 0 0 0 0 1.414l2 2a1 1 0 0 0 1.414 0 1 1 0 0 0 0-1.414L16.414 19l1.293-1.293a1 1 0 0 0 0-1.414 1 1 0 0 0-.818-.287zm3 0a1 1 0 0 0-.596.287 1 1 0 0 0 0 1.414L20.586 19l-1.293 1.293a1 1 0 0 0 0 1.414 1 1 0 0 0 1.414 0l2-2a1 1 0 0 0 0-1.414l-2-2a1 1 0 0 0-.818-.287z"/></svg>