<svg xmlns="http://www.w3.org/2000/svg" width="24" height="24" viewBox="0 0 24 24"><path d="M12 2C6.489 2 2 6.489 2 12s4.489 10 10 10 10-4.489 10-10S17.511 2 12 2zm0 2c4.43 0 8 3.57 8 8s-3.57 8-8 8-8-3.57-8-8 3.57-8 8-8zm-2 5a1 1 0 0 0-.707.293l-2 2a1 1 0 0 0 0 1.414l2 2a1 1 0 0 0 1.414 0 1 1 0 0 0 0-1.414L9.414 12l1.293-1.293a1 1 0 0 0 0-1.414A1 1 0 0 0 10 9zm4 0a1 1 0 0 0-.707.293 1 1 0 0 0 0 1.414L14.586 12l-1.293 1.293a1 1 0 0 0 0 1.414 1 1 0 0 0 1.414 0l2-2a1 1 0 0 0 0-1.414l-2-2A1 1 0 0 0 14 9z"/></svg>