<svg xmlns="http://www.w3.org/2000/svg" width="24" height="24" viewBox="0 0 24 24"><path d="M14.77 3.002c-1.534-.021-3.134.205-4.795.668h-.002c-1.908.532-3.592 1.285-5.041 2.268-1.466.993-2.58 2.214-3.276 3.644-.717 1.474-.834 3.155-.388 4.879.441 1.715 1.352 3.115 2.693 4.03l.002.001v.002c1.298.885 2.86 1.37 4.611 1.48h.004c1.731.105 3.548-.116 5.447-.644h.002c1.908-.532 3.592-1.285 5.041-2.27 1.466-.994 2.58-2.212 3.276-3.64.717-1.475.834-3.156.388-4.88-.441-1.717-1.354-3.117-2.695-4.032-1.298-.886-2.86-1.374-4.613-1.483q-.326-.019-.654-.023zM14.742 5q.282.005.559.021c1.463.091 2.641.479 3.61 1.14.923.63 1.54 1.531 1.886 2.878v.002c.35 1.357.25 2.47-.252 3.504l-.004.006c-.257-.38-.6-.691-.969-.91C18.8 11.183 17.898 11 17 11s-1.8.183-2.572.64C13.656 12.099 13 12.959 13 14s.656 1.902 1.428 2.36c.295.174.61.31.935.41a18 18 0 0 1-1.873.634c-1.72.478-3.312.664-4.789.575-1.464-.093-2.644-.48-3.611-1.14-.923-.628-1.54-1.531-1.887-2.878v-.002c-.35-1.356-.25-2.47.252-3.502.525-1.08 1.37-2.03 2.6-2.863C7.3 6.749 8.779 6.08 10.51 5.598c1.505-.42 2.914-.616 4.232-.598zM9 11c-1.009 0-1.938.262-2.676.754S5 13.042 5 14s.586 1.754 1.324 2.246S7.991 17 9 17c.934 0 1.8-.227 2.51-.648a1 1 0 0 0 .35-1.37 1 1 0 0 0-1.37-.351C10.135 14.84 9.6 15 9 15c-.648 0-1.219-.186-1.566-.418C7.086 14.35 7 14.147 7 14s.086-.35.434-.582C7.78 13.186 8.352 13 9 13c.604 0 1.138.158 1.488.367a1 1 0 0 0 1.371-.347 1 1 0 0 0-.347-1.372C10.802 11.225 9.936 11 9 11zm8 2c.602 0 1.2.15 1.553.36.353.208.447.348.447.64s-.094.432-.447.64c-.353.21-.951.36-1.553.36s-1.2-.15-1.553-.36c-.353-.208-.447-.348-.447-.64s.094-.432.447-.64c.353-.21.951-.36 1.553-.36z"/></svg>