<svg xmlns="http://www.w3.org/2000/svg" width="24" height="24" viewBox="0 0 24 24"><path d="M11.346 2.021a10 10 0 0 0-9.34 9.655L2 12a10 10 0 1 0 15-8.66 10 10 0 0 0-5.654-1.319zM8.893 7.006a1 1 0 0 1 .939.44L12 10.695l2.168-3.25a1 1 0 0 1 1.387-.278l.093.07a1 1 0 0 1 .184 1.317L13.535 12H15a1 1 0 0 1 1 1l-.008.117A1 1 0 0 1 15 14h-2v3a1 1 0 0 1-.883.992L12 18l-.117-.008A1 1 0 0 1 11 17v-3H9a1 1 0 0 1-1-1l.008-.117A1 1 0 0 1 9 12h1.465L8.168 8.555a1 1 0 0 1 .277-1.387l.102-.059a1 1 0 0 1 .346-.103z"/></svg>