<svg xmlns="http://www.w3.org/2000/svg" width="24" height="24" viewBox="0 0 24 24"><path d="M12 2C6.489 2 2 6.489 2 12s4.489 10 10 10 10-4.489 10-10S17.511 2 12 2zm0 2c4.43 0 8 3.57 8 8s-3.57 8-8 8-8-3.57-8-8 3.57-8 8-8zM8.979 6.627a1.9 1.9 0 0 0-.874.203l-.552.275a1 1 0 0 0-.448 1.342 1 1 0 0 0 1.342.448L9 8.619V10H8a1 1 0 0 0-1 1 1 1 0 0 0 1 1h1v3c0 1.645 1.355 3 3 3h.5c1.921 0 3.5-1.579 3.5-3.5V14a1 1 0 0 0-1-1h-1a1 1 0 0 0-1 1 1 1 0 0 0 .824.928C13.628 15.526 13.171 16 12.5 16H12c-.564 0-1-.436-1-1v-3h4a1 1 0 0 0 1-1 1 1 0 0 0-1-1h-4V8.617c0-1.083-.901-1.91-1.896-1.984z"/></svg>