<svg xmlns="http://www.w3.org/2000/svg" width="24" height="24" viewBox="0 0 24 24"><path d="M12 1C8.146 1 5 4.146 5 8c0 .547.066 1.079.186 1.59A7.02 7.02 0 0 0 1 16c0 3.852 3.148 7 7 7a6.93 6.93 0 0 0 3.998-1.264A6.93 6.93 0 0 0 16.002 23c3.85-.001 6.998-3.149 6.998-7a7.02 7.02 0 0 0-4.186-6.41C18.934 9.079 19 8.547 19 8c0-3.854-3.146-7-7-7zm0 2c2.773 0 5 2.227 5 5s-2.227 5-5 5-5-2.227-5-5 2.227-5 5-5zm-6.082 8.453A7.01 7.01 0 0 0 12 15q.45-.001.887-.059.111.513.113 1.059a4.94 4.94 0 0 1-1.664 3.71l-.008.009A4.93 4.93 0 0 1 8.002 21H8c-2.768 0-5-2.232-5-5a5.01 5.01 0 0 1 2.918-4.547zm12.164 0A5.01 5.01 0 0 1 21 16c0 2.768-2.232 5-5 5h-.002a4.93 4.93 0 0 1-2.502-.678A6.95 6.95 0 0 0 15 16c0-.548-.064-1.083-.184-1.596a7.06 7.06 0 0 0 3.266-2.95z"/></svg>