<svg xmlns="http://www.w3.org/2000/svg" width="24" height="24" viewBox="0 0 24 24"><path d="M3 2a1 1 0 0 0-.707.293 1 1 0 0 0 0 1.414L3.65 5.064A1 1 0 0 0 3 6a1 1 0 0 0 1 1h1.586l2 2H4a1 1 0 0 0-1 1 1 1 0 0 0 1 1h5.5l.076-.01 6.01 6.01H14.5a1 1 0 0 0-1 1 1 1 0 0 0 1 1h3.086l2.707 2.707a1 1 0 0 0 1.414 0 1 1 0 0 0 0-1.414l-3-3L6.729 5.316l-.045-.045-2.977-2.978A1 1 0 0 0 3 2zm11.5 3a1 1 0 0 0-1 1 1 1 0 0 0 1 1H20a1 1 0 0 0 1-1 1 1 0 0 0-1-1zm0 4a1 1 0 0 0-1 1 1 1 0 0 0 1 1H20a1 1 0 0 0 1-1 1 1 0 0 0-1-1zM4 13a1 1 0 0 0-1 1 1 1 0 0 0 1 1h5.5a1 1 0 0 0 1-1 1 1 0 0 0-1-1zm14 0a1 1 0 0 0-1 1 1 1 0 0 0 1 1h2a1 1 0 0 0 1-1 1 1 0 0 0-1-1zM4 17a1 1 0 0 0-1 1 1 1 0 0 0 1 1h5.5a1 1 0 0 0 1-1 1 1 0 0 0-1-1z"/></svg>