<svg xmlns="http://www.w3.org/2000/svg" width="24" height="24" viewBox="0 0 24 24"><path d="M11.902 1.969a10 10 0 0 0-1.19.088 10.2 10.2 0 0 0-3.206 1.007 1 1 0 0 0-.444 1.344 1 1 0 0 0 1.342.444A8.4 8.4 0 0 1 11 4.023V5a1 1 0 0 0 1 1 1 1 0 0 0 1-1v-.99c1.788.224 3.411 1.077 4.662 2.328S19.766 9.212 19.99 11H19a1 1 0 0 0-1 1 1 1 0 0 0 1 1h.977a8.4 8.4 0 0 1-.829 2.596 1 1 0 0 0 .444 1.342 1 1 0 0 0 1.344-.444c2.143-4.254.952-8.759-1.86-11.57-1.845-1.845-4.42-2.99-7.174-2.955zM3 2a1 1 0 0 0-.707.293 1 1 0 0 0 0 1.414l1.959 1.959c-3.257 3.919-3.055 9.776.623 13.455s9.539 3.885 13.459.627l1.959 1.959a1 1 0 0 0 1.414 0 1 1 0 0 0 0-1.414l-10.99-10.99-.02-.022-.011-.01-4.327-4.326-.01-.011-.005-.004-2.637-2.637A1 1 0 0 0 3 2zm13.02 5a1 1 0 0 0-.336.05l-3 1a1 1 0 0 0-.633 1.266 1 1 0 0 0 1.265.633l1.102-.367-.367 1.102a1 1 0 0 0 .633 1.265 1 1 0 0 0 1.265-.633l1-3A1 1 0 0 0 16.02 7zm-10.346.088 3.181 3.182-1.804 5.414a1 1 0 0 0 1.265 1.265l5.414-1.804 3.18 3.18a7.95 7.95 0 0 1-3.91 1.66V19a1 1 0 0 0-1-1 1 1 0 0 0-1 1v1a7.97 7.97 0 0 1-4.71-2.293A7.97 7.97 0 0 1 4 13h1a1 1 0 0 0 1-1 1 1 0 0 0-1-1h-.988a7.96 7.96 0 0 1 1.662-3.912zm4.764 4.764 1.71 1.71-2.566.856z"/></svg>