<svg xmlns="http://www.w3.org/2000/svg" width="24" height="24" viewBox="0 0 24 24"><path d="M12 1.033c-.685 0-1.37.326-1.74.98l-.01.016-8.129 14.99a1 1 0 0 0-.121.477v.5c0 .82.493 1.486 1.088 1.955s1.345.824 2.232 1.12C7.094 21.66 9.425 22 12 22q.267 0 .525-.006a1 1 0 0 0 .983-1.017 1 1 0 0 0-1.018-.98A27 27 0 0 1 12 20c-2.395 0-4.563-.333-6.047-.828-.742-.248-1.31-.542-1.627-.791-.316-.25-.326-.375-.326-.385v-.246l8-14.748 5.15 9.496a1 1 0 0 0 1.356.402 1 1 0 0 0 .402-1.355L13.75 2.03l-.01-.017c-.37-.655-1.055-.98-1.74-.98zM19 15a1 1 0 0 0-1 1v2h-2a1 1 0 0 0-1 1 1 1 0 0 0 1 1h2v2a1 1 0 0 0 1 1 1 1 0 0 0 1-1v-2h2a1 1 0 0 0 1-1 1 1 0 0 0-1-1h-2v-2a1 1 0 0 0-1-1z"/></svg>