<svg xmlns="http://www.w3.org/2000/svg" width="24" height="24" viewBox="0 0 24 24"><path d="M12 2C6.489 2 2 6.489 2 12s4.489 10 10 10c5.483 0 9.954-4.447 9.998-9.92a1 1 0 0 0 0-.144c-.035-5.479-4.505-9.93-9.99-9.936zm.416 2.01a7.985 7.985 0 0 1 7.57 7.523c-1.135.876-2.425 1.462-3.834 1.838.011-3.055-2.609-5.62-5.68-5.52.332-1.418.914-2.717 1.944-3.841zm-2.717.326C7.792 7.582 8 11.474 8 15a1 1 0 0 0 .947.998c3.87.206 7.628-.116 10.772-1.89A7.98 7.98 0 0 1 12 20c-4.43 0-8-3.57-8-8 0-3.63 2.397-6.68 5.7-7.664zm1.03 5.504a3.45 3.45 0 0 1 3.4 3.924c-1.294.17-2.661.215-4.086.18-.004-1.403-.004-2.765.113-4.06q.291-.045.573-.044z"/></svg>