<svg xmlns="http://www.w3.org/2000/svg" width="24" height="24" viewBox="0 0 24 24"><path d="M19 4a1 1 0 0 0-1 1v6c0 1.116-.884 2-2 2h-4.586l2.293-2.293a1 1 0 0 0 0-1.414A1 1 0 0 0 13 9a1 1 0 0 0-.707.293l-4 4-.047.062a1 1 0 0 0-.092.13 1 1 0 0 0-.068.134 1 1 0 0 0-.049.149 1 1 0 0 0-.025.158L8 14l.012.074a1 1 0 0 0 .025.158 1 1 0 0 0 .049.149 1 1 0 0 0 .068.135 1 1 0 0 0 .092.129l.047.062 4 4a1 1 0 0 0 1.414 0 1 1 0 0 0 0-1.414L11.414 15H16c2.197 0 4-1.803 4-4V5a1 1 0 0 0-1-1zM8 9a1 1 0 0 0-.707.293l-4 4a1 1 0 0 0 0 1.414l4 4a1 1 0 0 0 1.414 0 1 1 0 0 0 0-1.414L5.414 14l3.293-3.293a1 1 0 0 0 0-1.414A1 1 0 0 0 8 9z"/></svg>