<svg xmlns="http://www.w3.org/2000/svg" width="24" height="24" viewBox="0 0 24 24"><path d="M4 4a1 1 0 0 0-1 1v6c0 2.197 1.803 4 4 4h4.586l-2.293 2.293a1 1 0 0 0 0 1.414 1 1 0 0 0 1.414 0l4-4a1 1 0 0 0 .092-.11l.017-.023a1 1 0 0 0 .131-.258l.006-.02A1 1 0 0 0 15 14a1 1 0 0 0-.006-.111 1 1 0 0 0-.094-.323 1 1 0 0 0-.119-.189 1 1 0 0 0-.074-.084l-4-4A1 1 0 0 0 10 9a1 1 0 0 0-.707.293 1 1 0 0 0 0 1.414L11.586 13H7c-1.116 0-2-.884-2-2V5a1 1 0 0 0-1-1zm11 5a1 1 0 0 0-.707.293 1 1 0 0 0 0 1.414L17.586 14l-3.293 3.293a1 1 0 0 0 0 1.414 1 1 0 0 0 1.414 0l4-4a1 1 0 0 0 0-1.414l-4-4A1 1 0 0 0 15 9z"/></svg>