<svg xmlns="http://www.w3.org/2000/svg" width="24" height="24" viewBox="0 0 24 24"><path d="M5.5 5A4.515 4.515 0 0 0 1 9.5v5C1 16.973 3.027 19 5.5 19H6c2.197 0 4-1.803 4-4a1 1 0 0 0-1-1 1 1 0 0 0-1 1c0 1.116-.884 2-2 2h-.5A2.485 2.485 0 0 1 3 14.5v-5C3 8.107 4.107 7 5.5 7H6c1.116 0 2 .884 2 2a1 1 0 0 0 1 1 1 1 0 0 0 1-1c0-2.197-1.803-4-4-4zM13 9a1 1 0 0 0-1 1v1h-1a1 1 0 0 0-1 1 1 1 0 0 0 1 1h1v1a1 1 0 0 0 1 1 1 1 0 0 0 1-1v-1h1a1 1 0 0 0 1-1 1 1 0 0 0-1-1h-1v-1a1 1 0 0 0-1-1zm7 0a1 1 0 0 0-1 1v1h-1a1 1 0 0 0-1 1 1 1 0 0 0 1 1h1v1a1 1 0 0 0 1 1 1 1 0 0 0 1-1v-1h1a1 1 0 0 0 1-1 1 1 0 0 0-1-1h-1v-1a1 1 0 0 0-1-1z"/></svg>