<svg xmlns="http://www.w3.org/2000/svg" width="24" height="24" viewBox="0 0 24 24"><path d="m9 2-.023.004a1 1 0 0 0-.22.025 1 1 0 0 0-.095.037l-.076.032a1 1 0 0 0-.287.191l-.006.004-6 6A1 1 0 0 0 3 10h5v10H6a1 1 0 0 0-1 1 1 1 0 0 0 1 1h6a1 1 0 0 0 1-1 1 1 0 0 0-1-1h-2V10h6v3a1 1 0 0 0 1 1c.488 0 .775.258.924.617.149.36.128.745-.217 1.09s-.73.366-1.09.217c-.36-.15-.617-.436-.617-.924a1 1 0 0 0-1-1 1 1 0 0 0-1 1c0 1.294.82 2.344 1.852 2.771a3.01 3.01 0 0 0 3.27-.65 3.01 3.01 0 0 0 .65-3.27c-.303-.73-.98-1.234-1.772-1.537V10h3a1 1 0 0 0 1-1 1 1 0 0 0-1-1h-1.725L9.514 2.143a1 1 0 0 0-.09-.04l-.041-.027-.041-.008a1 1 0 0 0-.336-.066zm1 2.766L15.39 8H10zm-2 .648V8H5.414z"/></svg>