<svg xmlns="http://www.w3.org/2000/svg" width="24" height="24" viewBox="0 0 24 24"><path d="M12 2C6.489 2 2 6.489 2 12s4.489 10 10 10 10-4.489 10-10S17.511 2 12 2zm0 2c4.43 0 8 3.57 8 8s-3.57 8-8 8-8-3.57-8-8 3.57-8 8-8zm.164 3.002a5.1 5.1 0 0 0-2.078.379 4.98 4.98 0 0 0-3.07 4.22l-.309-.308A1 1 0 0 0 6 11a1 1 0 0 0-.707.293 1 1 0 0 0 0 1.414l2 2a1 1 0 0 0 1.414 0l2-2a1 1 0 0 0 0-1.414 1 1 0 0 0-1.414 0l-.262.262c.152-1.14.883-1.938 1.82-2.326 1.056-.438 2.295-.325 3.27.65s1.088 2.214.65 3.27C14.334 14.203 13.38 15 12 15a1 1 0 0 0-1 1 1 1 0 0 0 1 1c2.185 0 3.903-1.357 4.62-3.086.715-1.729.46-3.904-1.085-5.45a4.94 4.94 0 0 0-3.37-1.462z"/></svg>