<svg xmlns="http://www.w3.org/2000/svg" width="24" height="24" viewBox="0 0 24 24"><path d="M6 4C3.803 4 2 5.803 2 8v8c0 2.197 1.803 4 4 4h6a1 1 0 0 0 1-1 1 1 0 0 0-1-1H6c-1.116 0-2-.884-2-2v-5h16v1.5a1 1 0 0 0 1 1 1 1 0 0 0 1-1V8c0-2.197-1.803-4-4-4zm0 2h12c1.116 0 2 .884 2 2v1H4V8c0-1.116.884-2 2-2zm1 8a1 1 0 0 0-1 1 1 1 0 0 0 1 1h.01a1 1 0 0 0 1-1 1 1 0 0 0-1-1zm4 0a1 1 0 0 0-1 1 1 1 0 0 0 1 1h2a1 1 0 0 0 1-1 1 1 0 0 0-1-1zm8 1a1 1 0 0 0-.707.293l-3 3-.031.041a1 1 0 0 0-.09.117 1 1 0 0 0-.049.08 1 1 0 0 0-.07.168l-.02.055A1 1 0 0 0 15 19a1 1 0 0 0 .033.246l.02.055a1 1 0 0 0 .07.168 1 1 0 0 0 .049.08 1 1 0 0 0 .09.117l.031.041 3 3a1 1 0 0 0 1.414 0 1 1 0 0 0 0-1.414L18.414 20H22a1 1 0 0 0 1-1 1 1 0 0 0-1-1h-3.586l1.293-1.293a1 1 0 0 0 0-1.414A1 1 0 0 0 19 15z"/></svg>