<svg xmlns="http://www.w3.org/2000/svg" width="24" height="24" viewBox="0 0 24 24"><path d="M3 2a1 1 0 0 0-.707.293 1 1 0 0 0 0 1.414l6.02 6.02-.54.81L4.16 7.648l-.008-.005a1.29 1.29 0 0 0-1.422-.084c-.4.244-.678.784-.578 1.304l.002.006 1.866 9.326A1 1 0 0 0 5 19h12.586l2.707 2.707a1 1 0 0 0 1.414 0 1 1 0 0 0 0-1.414L10.267 8.855l-6.56-6.562A1 1 0 0 0 3 2zm9 3a1 1 0 0 0-.832.445l-.805 1.205a1 1 0 0 0 .278 1.387 1 1 0 0 0 1.338-.267l3.189 4.785a1 1 0 0 0 1.457.226l2.855-2.287-.959 4.8a1 1 0 0 0 .786 1.177 1 1 0 0 0 1.175-.784l1.364-6.818v-.002a1.3 1.3 0 0 0-.576-1.31 1.29 1.29 0 0 0-1.428.09l-.002.001-3.613 2.89-3.395-5.093A1 1 0 0 0 12 5zm-7.48 5.496 2.855 2.285a1 1 0 0 0 1.457-.226l.924-1.385 5.83 5.83H5.82z"/></svg>