<svg xmlns="http://www.w3.org/2000/svg" width="24" height="24" viewBox="0 0 24 24"><path d="M5 2C3.355 2 2 3.355 2 5v14c0 1.645 1.355 3 3 3h14c1.645 0 3-1.355 3-3V5c0-1.645-1.355-3-3-3zm0 2h14c.564 0 1 .436 1 1v14c0 .564-.436 1-1 1H5c-.564 0-1-.436-1-1V5c0-.564.436-1 1-1zm8 2a1 1 0 0 0-1 1v6c0 .917.38 1.731.96 2.248A3.05 3.05 0 0 0 15 16a3.05 3.05 0 0 0 2.04-.752c.58-.517.96-1.331.96-2.248s-.38-1.731-.96-2.248A3.05 3.05 0 0 0 15 10a3.2 3.2 0 0 0-1 .158V7a1 1 0 0 0-1-1zm-4.117 4.006a3 3 0 0 0-1.031.223A3.01 3.01 0 0 0 6 13a3.01 3.01 0 0 0 1.852 2.771 3.01 3.01 0 0 0 3.27-.65 1 1 0 0 0 0-1.414 1 1 0 0 0-1.415 0c-.345.345-.73.366-1.09.217C8.257 13.774 8 13.488 8 13s.258-.775.617-.924c.36-.149.745-.128 1.09.217a1 1 0 0 0 1.414 0 1 1 0 0 0 0-1.414 2.97 2.97 0 0 0-1.59-.828 3 3 0 0 0-.648-.045zM15 12c.278 0 .542.098.71.248.17.15.29.335.29.752s-.12.602-.29.752c-.168.15-.432.248-.71.248s-.542-.098-.71-.248c-.17-.15-.29-.335-.29-.752s.12-.602.29-.752A1.1 1.1 0 0 1 15 12z"/></svg>