<svg xmlns="http://www.w3.org/2000/svg" width="24" height="24" viewBox="0 0 24 24"><path d="M10 2C8.355 2 7 3.355 7 5c0 1.295.84 2.41 2 2.826v4.266a4 4 0 0 0 .672 2.219l.992 1.488a2 2 0 0 1 .336 1.11V20a1 1 0 0 0-1 1 1 1 0 0 0 1 1h2a1 1 0 0 0 1-1 1 1 0 0 0-1-1v-3.092a2 2 0 0 1 .336-1.11l.992-1.487A4 4 0 0 0 15 12.09V7.827c1.16-.416 2-1.53 2-2.826 0-1.645-1.355-3-3-3zm0 2h4c.564 0 1 .436 1 1s-.436 1-1 1h-4c-.564 0-1-.436-1-1s.436-1 1-1zm1 4h2v2h-2zm0 4h2v.092a2 2 0 0 1-.336 1.11l-.664.995-.664-.996a2 2 0 0 1-.336-1.11z"/></svg>