<svg xmlns="http://www.w3.org/2000/svg" width="24" height="24" viewBox="0 0 24 24"><path d="M8 5a1 1 0 0 0-.707.293l-4 4a1 1 0 0 0-.078.107 1 1 0 0 0-.076.106 1 1 0 0 0-.075.18 1 1 0 0 0-.04.12 1 1 0 0 0-.012.206 1 1 0 0 0 0 .119 1 1 0 0 0 .062.215 1 1 0 0 0 .031.097 1 1 0 0 0 .188.264L6.586 14l-3.293 3.293A1 1 0 0 0 4 19h12a1 1 0 0 0 .707-.293l4-4a1 1 0 0 0 .12-.146l.02-.034a1 1 0 0 0 .08-.158l.016-.039a1 1 0 0 0 .045-.176l.002-.031a1 1 0 0 0 .008-.185l-.004-.03a1 1 0 0 0-.117-.387l-.004-.005a1 1 0 0 0-.117-.17l-.012-.01-.037-.043L17.414 10l3.293-3.293A1 1 0 0 0 20 5zm.414 2h9.172l-2 2H6.414zm-2 4h9.172l2 2H8.414zm2 4h9.172l-2 2H6.414z"/></svg>