<svg xmlns="http://www.w3.org/2000/svg" width="24" height="24" viewBox="0 0 24 24"><path d="M10 4a1 1 0 0 0-1 1v3.383l-3.447 1.722a1 1 0 0 0-.448 1.342 1 1 0 0 0 1.342.448L9 10.617v1.766l-3.447 1.722a1 1 0 0 0-.448 1.342 1 1 0 0 0 1.342.448L9 14.617V20a1 1 0 0 0 1 1c4.406 0 8-3.594 8-8a1 1 0 0 0-1-1 1 1 0 0 0-1 1c0 2.97-2.175 5.309-5 5.799v-5.182l3.447-1.722a1 1 0 0 0 .448-1.342 1 1 0 0 0-.579-.502 1 1 0 0 0-.763.054L11 11.383V9.617l3.447-1.722a1 1 0 0 0 .448-1.342 1 1 0 0 0-.579-.502 1 1 0 0 0-.763.054L11 7.383V5a1 1 0 0 0-1-1z"/></svg>