<svg xmlns="http://www.w3.org/2000/svg" width="24" height="24" viewBox="0 0 24 24"><path d="M18 3a1 1 0 0 0-1 1v1c-1.25 0-2.315.505-2.998 1.273C13.319 7.043 13 8.028 13 9s.319 1.958 1.002 2.727S15.75 13 17 13h1c.75 0 1.185.245 1.502.602.317.356.498.87.498 1.398s-.181 1.042-.498 1.398c-.317.357-.752.602-1.502.602h-4a1 1 0 0 0-1 1 1 1 0 0 0 1 1h2v1a1 1 0 0 0 1 1 1 1 0 0 0 1-1v-1c1.25 0 2.315-.505 2.998-1.273C21.681 16.957 22 15.972 22 15s-.319-1.958-1.002-2.727S19.25 11 18 11h-1c-.75 0-1.185-.245-1.502-.602C15.181 10.042 15 9.528 15 9s.181-1.042.498-1.398C15.815 7.245 16.25 7 17 7h4a1 1 0 0 0 1-1 1 1 0 0 0-1-1h-2V4a1 1 0 0 0-1-1zM3 5a1 1 0 0 0-1 1v12a1 1 0 0 0 1 1h4c1.25 0 2.315-.505 2.998-1.273C10.681 16.957 11 15.972 11 15s-.319-1.958-1.002-2.727c-.101-.113-.264-.172-.38-.273.116-.101.279-.16.38-.273C10.681 10.957 11 9.972 11 9s-.319-1.958-1.002-2.727S8.25 5 7 5zm1 2h3c.75 0 1.185.245 1.502.602C8.819 7.958 9 8.472 9 9s-.181 1.042-.498 1.398C8.185 10.755 7.75 11 7 11H4zm0 6h3c.75 0 1.185.245 1.502.602.317.356.498.87.498 1.398s-.181 1.042-.498 1.398C8.185 16.755 7.75 17 7 17H4z"/></svg>