<svg xmlns="http://www.w3.org/2000/svg" width="24" height="24" viewBox="0 0 24 24"><path d="M12 2c-2.31 0-4.403.34-6.008.941-.802.301-1.487.664-2.027 1.143S3 5.225 3 6v12c0 .775.425 1.437.965 1.916s1.225.842 2.027 1.143C7.597 21.66 9.69 22 12 22s4.403-.34 6.008-.941c.802-.301 1.487-.664 2.027-1.143S21 18.775 21 18V6a1 1 0 0 0-.01-.143c-.048-.712-.448-1.324-.955-1.773-.54-.479-1.225-.842-2.027-1.143C16.403 2.34 14.31 2 12 2zm0 2c2.108 0 4.014.33 5.305.814.645.243 1.133.527 1.402.766.27.239.293.366.293.42s-.023.181-.293.42-.757.523-1.402.766C16.014 7.67 14.108 8 12 8s-4.014-.33-5.305-.814c-.645-.243-1.133-.527-1.402-.766C5.023 6.18 5 6.054 5 6s.023-.181.293-.42.757-.523 1.402-.766C7.986 4.33 9.892 4 12 4zM5 8.617q.46.242.992.442C7.597 9.66 9.69 10 12 10s4.403-.34 6.008-.941q.532-.2.992-.442V18c0 .054-.023.181-.293.42s-.757.523-1.402.766C16.014 19.67 14.108 20 12 20s-4.014-.33-5.305-.814c-.645-.243-1.133-.527-1.402-.766C5.023 18.18 5 18.054 5 18zM10 13a1 1 0 0 0-1 1 1 1 0 0 0 1 1h.01a1 1 0 0 0 1-1 1 1 0 0 0-1-1zm4 0a1 1 0 0 0-1 1 1 1 0 0 0 1 1h.01a1 1 0 0 0 1-1 1 1 0 0 0-1-1zm-.02 3a1 1 0 0 0-.552.18c-.862.6-1.994.6-2.856 0a1 1 0 0 0-1.392.248 1 1 0 0 0 .248 1.392 4.51 4.51 0 0 0 5.144 0 1 1 0 0 0 .248-1.392 1 1 0 0 0-.644-.412A1 1 0 0 0 13.98 16z"/></svg>