<svg xmlns="http://www.w3.org/2000/svg" width="24" height="24" viewBox="0 0 24 24"><path d="M12 2c-2.31 0-4.403.34-6.008.941-.802.301-1.487.664-2.027 1.143S3 5.225 3 6v12c0 .775.425 1.437.965 1.916s1.225.842 2.027 1.143C7.597 21.66 9.69 22 12 22q.602 0 1.186-.031a1 1 0 0 0 .945-1.053 1 1 0 0 0-1.053-.945Q12.551 20 12 20c-2.108 0-4.014-.33-5.305-.814-.645-.243-1.133-.527-1.402-.766C5.023 18.18 5 18.054 5 18v-3.383q.46.242.992.442C7.597 15.66 9.69 16 12 16q.843 0 1.645-.06a1 1 0 0 0 .921-1.073 1 1 0 0 0-1.07-.922Q12.77 14 12 14c-2.108 0-4.014-.33-5.305-.814-.645-.243-1.133-.527-1.402-.766C5.023 12.18 5 12.054 5 12V8.617q.46.242.992.442C7.597 9.66 9.69 10 12 10s4.403-.34 6.008-.941q.532-.2.992-.442V13.5a1 1 0 0 0 1 1 1 1 0 0 0 1-1V6a1 1 0 0 0-.008-.121c-.042-.722-.445-1.342-.957-1.795-.54-.479-1.225-.842-2.027-1.143C16.403 2.34 14.31 2 12 2zm0 2c2.108 0 4.014.33 5.305.814.645.243 1.133.527 1.402.766.27.239.293.366.293.42s-.023.181-.293.42-.757.523-1.402.766C16.014 7.67 14.108 8 12 8s-4.014-.33-5.305-.814c-.645-.243-1.133-.527-1.402-.766C5.023 6.18 5 6.054 5 6s.023-.181.293-.42.757-.523 1.402-.766C7.986 4.33 9.892 4 12 4zm5 12a1 1 0 0 0-.707.293 1 1 0 0 0 0 1.414l1.793 1.793-1.793 1.793a1 1 0 0 0 0 1.414 1 1 0 0 0 1.414 0l1.793-1.793 1.793 1.793a1 1 0 0 0 1.414 0 1 1 0 0 0 0-1.414L20.914 19.5l1.793-1.793a1 1 0 0 0 0-1.414 1 1 0 0 0-1.414 0L19.5 18.086l-1.793-1.793A1 1 0 0 0 17 16z"/></svg>