<svg xmlns="http://www.w3.org/2000/svg" width="24" height="24" viewBox="0 0 24 24"><path d="M12 2c-2.31 0-4.403.34-6.008.941-.802.301-1.487.664-2.027 1.143S3 5.225 3 6v12c0 .775.425 1.437.965 1.916s1.225.842 2.027 1.143C7.597 21.66 9.69 22 12 22c1.113 0 2.177-.082 3.158-.232a1 1 0 0 0 .838-1.14 1 1 0 0 0-1.14-.837c-.875.134-1.84.209-2.856.209-2.108 0-4.014-.33-5.305-.814-.645-.243-1.133-.527-1.402-.766C5.023 18.18 5 18.054 5 18v-3.383q.46.242.992.442C7.597 15.66 9.69 16 12 16c1.17 0 2.284-.09 3.307-.254a1 1 0 0 0 .828-1.146 1 1 0 0 0-1.145-.829c-.91.146-1.923.229-2.99.229-2.108 0-4.014-.33-5.305-.814-.645-.243-1.133-.527-1.402-.766C5.023 12.18 5 12.054 5 12V8.617q.46.242.992.442C7.597 9.66 9.69 10 12 10s4.403-.34 6.008-.941q.532-.2.992-.442V12a1 1 0 0 0 1 1 1 1 0 0 0 1-1V6a1 1 0 0 0-.01-.14c-.048-.714-.448-1.327-.955-1.776-.54-.479-1.225-.842-2.027-1.143C16.403 2.34 14.31 2 12 2zm0 2c2.108 0 4.014.33 5.305.814.645.243 1.133.527 1.402.766.27.239.293.366.293.42s-.023.181-.293.42-.757.523-1.402.766C16.014 7.67 14.108 8 12 8s-4.014-.33-5.305-.814c-.645-.243-1.133-.527-1.402-.766C5.023 6.18 5 6.054 5 6s.023-.181.293-.42.757-.523 1.402-.766C7.986 4.33 9.892 4 12 4zm7 11a1 1 0 0 0-1 1v3a1 1 0 0 0 1 1 1 1 0 0 0 1-1v-3a1 1 0 0 0-1-1zm0 6a1 1 0 0 0-1 1v.01a1 1 0 0 0 1 1 1 1 0 0 0 1-1V22a1 1 0 0 0-1-1z"/></svg>