<svg xmlns="http://www.w3.org/2000/svg" width="24" height="24" viewBox="0 0 24 24"><path d="M12 2c-2.31 0-4.403.34-6.008.941-.802.301-1.487.664-2.027 1.143S3 5.225 3 6v12c0 .775.425 1.437.965 1.916s1.225.842 2.027 1.143C7.597 21.66 9.69 22 12 22q.553 0 1.084-.025a1 1 0 0 0 .951-1.047 1 1 0 0 0-1.045-.951Q12.503 20 12 20c-2.108 0-4.014-.33-5.305-.814-.645-.243-1.133-.527-1.402-.766C5.023 18.18 5 18.054 5 18v-3.383q.46.242.992.442C7.597 15.66 9.69 16 12 16q.651 0 1.277-.037a1 1 0 0 0 .942-1.055 1 1 0 0 0-1.057-.941Q12.594 14 12 14c-2.108 0-4.014-.33-5.305-.814-.645-.243-1.133-.527-1.402-.766C5.023 12.18 5 12.054 5 12V8.617q.46.242.992.442C7.597 9.66 9.69 10 12 10s4.403-.34 6.008-.941q.532-.2.992-.442V10a1 1 0 0 0 1 1 1 1 0 0 0 1-1V6a1 1 0 0 0-.008-.123c-.042-.721-.446-1.34-.957-1.793-.54-.479-1.225-.842-2.027-1.143C16.403 2.34 14.31 2 12 2zm0 2c2.108 0 4.014.33 5.305.814.645.243 1.133.527 1.402.766.27.239.293.366.293.42s-.023.181-.293.42-.757.523-1.402.766C16.014 7.67 14.108 8 12 8s-4.014-.33-5.305-.814c-.645-.243-1.133-.527-1.402-.766C5.023 6.18 5 6.054 5 6s.023-.181.293-.42.757-.523 1.402-.766C7.986 4.33 9.892 4 12 4zm7 9a1 1 0 0 0-1 1v.049a2.46 2.46 0 0 0-1.373.756A2.53 2.53 0 0 0 16 16.5c0 .597.194 1.208.627 1.695S17.75 19 18.5 19h1c.25 0 .31.058.377.133A.58.58 0 0 1 20 19.5a.58.58 0 0 1-.123.367c-.067.075-.127.133-.377.133H17a1 1 0 0 0-1 1 1 1 0 0 0 1 1h1a1 1 0 0 0 1 1 1 1 0 0 0 1-1v-.049a2.46 2.46 0 0 0 1.373-.756A2.53 2.53 0 0 0 22 19.5c0-.597-.194-1.208-.627-1.695S20.25 17 19.5 17h-1c-.25 0-.31-.058-.377-.133A.58.58 0 0 1 18 16.5a.58.58 0 0 1 .123-.367c.067-.075.127-.133.377-.133H21a1 1 0 0 0 1-1 1 1 0 0 0-1-1h-1a1 1 0 0 0-1-1z"/></svg>