<svg xmlns="http://www.w3.org/2000/svg" width="24" height="24" viewBox="0 0 24 24"><path d="M19 5a1 1 0 0 0-1 1v.5a1 1 0 0 0 1 1h2.5a1 1 0 0 0 1-1V6a1 1 0 0 0-1-1zM8 8.5a1 1 0 0 0-1 1v.5a1 1 0 0 0 1 1h2.5a1 1 0 0 0 1-1v-.5a1 1 0 0 0-1-1zm11 0a1 1 0 0 0-1 1v.5a1 1 0 0 0 1 1h2.5a1 1 0 0 0 1-1v-.5a1 1 0 0 0-1-1zM8 12a1 1 0 0 0-1 1v.5a1 1 0 0 0 1 1h2.5a1 1 0 0 0 1-1V13a1 1 0 0 0-1-1zm5.5 0a1 1 0 0 0-1 1v.5a1 1 0 0 0 1 1H16a1 1 0 0 0 1-1V13a1 1 0 0 0-1-1zm5.5 0a1 1 0 0 0-1 1v.5a1 1 0 0 0 1 1h2.5a1 1 0 0 0 1-1V13a1 1 0 0 0-1-1zM3 15.5a1 1 0 0 0-1 1v.5a1 1 0 0 0 1 1h2a1 1 0 0 0 1-1v-.5a1 1 0 0 0-1-1zm5 0a1 1 0 0 0-1 1v.5a1 1 0 0 0 1 1h2.5a1 1 0 0 0 1-1v-.5a1 1 0 0 0-1-1zm5.5 0a1 1 0 0 0-1 1v.5a1 1 0 0 0 1 1H16a1 1 0 0 0 1-1v-.5a1 1 0 0 0-1-1zm5.5 0a1 1 0 0 0-1 1v.5a1 1 0 0 0 1 1h2.5a1 1 0 0 0 1-1v-.5a1 1 0 0 0-1-1z"/></svg>