<svg xmlns="http://www.w3.org/2000/svg" width="24" height="24" viewBox="0 0 24 24"><path d="M8 2C6.355 2 5 3.355 5 5v14c0 1.645 1.355 3 3 3h5.5a1 1 0 0 0 1-1 1 1 0 0 0-1-1H8c-.564 0-1-.436-1-1V5c0-.564.436-1 1-1h2a1 1 0 0 0 1 1h2a1 1 0 0 0 1-1h2c.564 0 1 .436 1 1v7a1 1 0 0 0 1 1 1 1 0 0 0 1-1V5c0-1.645-1.355-3-3-3zm11.064 13.002a1 1 0 0 0-.26.018 1 1 0 0 0-.636.425l-2 3A1 1 0 0 0 17 20h2.13l-.962 1.445a1 1 0 0 0 .277 1.387 1 1 0 0 0 1.387-.277l2-3A1 1 0 0 0 21 18h-2.13l.962-1.445a1 1 0 0 0-.277-1.387 1 1 0 0 0-.49-.166zM12 16a1 1 0 0 0-1 1v.01a1 1 0 0 0 1 1 1 1 0 0 0 1-1V17a1 1 0 0 0-1-1z"/></svg>