<svg xmlns="http://www.w3.org/2000/svg" width="24" height="24" viewBox="0 0 24 24"><path d="M3 2a1 1 0 0 0-.707.293 1 1 0 0 0-.201 1.113A2 2 0 0 0 2 4v2c0 1.093.907 2 2 2v6c-.001 3.904 2.593 6.73 5.697 7.664 2.778.835 6.049.177 8.248-2.305l2.348 2.348a1 1 0 0 0 1.414 0 1 1 0 0 0 0-1.414L11.141 9.727a1 1 0 0 0-.082-.082L7.707 6.293l-4-4A1 1 0 0 0 3 2zm4 0a1 1 0 0 0-1 1 1 1 0 0 0 1 1h13v2h-9a1 1 0 0 0-1 1 1 1 0 0 0 1 1h7v6q0 .412-.055.813a1 1 0 0 0 .856 1.124 1 1 0 0 0 1.127-.855Q20 14.551 20 14V8c1.093 0 2-.907 2-2V4c0-1.093-.907-2-2-2zM4 5.414 4.586 6H4zM6 8h.586l2.185 2.186c-2.13 1.818-2.414 5.231-.31 7.341 2.108 2.114 5.532 1.838 7.353-.298l.713.712c-1.681 1.997-4.106 2.453-6.254 1.807C7.913 19.038 6 17.038 6 14zm4.19 3.604 1.462 1.462A1 1 0 0 0 11 14a1 1 0 0 0 1 1h.01a1 1 0 0 0 .931-.645l1.455 1.456a2.968 2.968 0 0 1-4.517.304 2.968 2.968 0 0 1 .31-4.511z"/></svg>