<svg xmlns="http://www.w3.org/2000/svg" width="24" height="24" viewBox="0 0 24 24"><path d="M6 2C4.355 2 3 3.355 3 5v14c0 1.645 1.355 3 3 3h9a1 1 0 0 0 1-1 1 1 0 0 0-1-1H6c-.564 0-1-.436-1-1V5c0-.564.436-1 1-1h12c.564 0 1 .436 1 1v6a1 1 0 0 0 1 1 1 1 0 0 0 1-1V5c0-1.645-1.355-3-3-3zm13.04 12.002a3 3 0 0 0-2.304 1.053 1 1 0 0 0 .118 1.41 1 1 0 0 0 1.41-.117.97.97 0 0 1 1.193-.24c.53.275.617.69.512 1.124-.106.436-.372.766-.973.768A1 1 0 0 0 18 19.004a1 1 0 0 0 1.004.996c1.495-.005 2.615-1.084 2.908-2.297s-.211-2.686-1.539-3.373l-.004-.002a2.96 2.96 0 0 0-1.33-.326zM9 17a1 1 0 0 0-1 1 1 1 0 0 0 1 1h5a1 1 0 0 0 1-1 1 1 0 0 0-1-1zm10 4a1 1 0 0 0-1 1v.01a1 1 0 0 0 1 1 1 1 0 0 0 1-1V22a1 1 0 0 0-1-1z"/></svg>