<svg xmlns="http://www.w3.org/2000/svg" width="24" height="24" viewBox="0 0 24 24"><path d="M6 2c-1.093 0-2 .907-2 2v16c0 1.093.907 2 2 2h7a1 1 0 0 0 1-1 1 1 0 0 0-1-1H6V4h12v9.5a1 1 0 0 0 1 1 1 1 0 0 0 1-1V4c0-1.093-.907-2-2-2zm6 13c-.472 0-.958.152-1.352.502-.206.183-.226.512-.34.785A1 1 0 0 0 10 17a1 1 0 0 0 .309.713c.113.273.133.602.34.785.393.35.879.502 1.351.502s.958-.152 1.352-.502c.393-.35.648-.915.648-1.498s-.255-1.148-.648-1.498A2.02 2.02 0 0 0 12 15zm5 1a1 1 0 0 0-.707.293 1 1 0 0 0 0 1.414l1.793 1.793-1.793 1.793a1 1 0 0 0 0 1.414 1 1 0 0 0 1.414 0l1.793-1.793 1.793 1.793a1 1 0 0 0 1.414 0 1 1 0 0 0 0-1.414L20.914 19.5l1.793-1.793a1 1 0 0 0 0-1.414 1 1 0 0 0-1.414 0L19.5 18.086l-1.793-1.793A1 1 0 0 0 17 16z"/></svg>