<svg xmlns="http://www.w3.org/2000/svg" width="24" height="24" viewBox="0 0 24 24"><path d="M9 2a1 1 0 0 0-1 1v2.129C6.281 5.577 5 7.148 5 9v6c0 1.852 1.281 3.423 3 3.871V21a1 1 0 0 0 1 1h3a1 1 0 0 0 1-1 1 1 0 0 0-1-1h-2v-1h2a1 1 0 0 0 1-1 1 1 0 0 0-1-1H9c-1.116 0-2-.884-2-2V9c0-1.116.884-2 2-2h6c1.116 0 2 .884 2 2v2.5a1 1 0 0 0 1 1 1 1 0 0 0 1-1V9c0-1.852-1.281-3.423-3-3.871V3a1 1 0 0 0-1-1zm1 2h4v1h-4zm9.002 10.5a1 1 0 0 0-1 1v.658a2.9 2.9 0 0 0-.982.545l-.551-.318a1 1 0 0 0-1.365.365 1 1 0 0 0 .367 1.365l.578.334a3.3 3.3 0 0 0 0 1.102l-.578.334a1 1 0 0 0-.367 1.365 1 1 0 0 0 1.365.365l.55-.318c.297.25.632.43.983.545v.658a1 1 0 0 0 1 1 1 1 0 0 0 1-1v-.658c.35-.115.684-.295.98-.545l.551.318a1 1 0 0 0 1.365-.365 1 1 0 0 0-.365-1.365l-.578-.334a3.3 3.3 0 0 0 0-1.102l.576-.334a1 1 0 0 0 .367-1.365 1 1 0 0 0-.607-.467 1 1 0 0 0-.76.102l-.549.316a2.9 2.9 0 0 0-.98-.543V15.5a1 1 0 0 0-1-1zm0 3.5c.278 0 .54.098.709.248q.041.037.078.078a1 1 0 0 0 .078.174 1 1 0 0 0 .09.129c.029.1.045.22.045.371 0 .15-.015.268-.043.367a1 1 0 0 0-.092.133 1 1 0 0 0-.078.174q-.037.04-.078.078a1.1 1.1 0 0 1-.709.248c-.278 0-.542-.098-.711-.248a1 1 0 0 1-.074-.074 1 1 0 0 0-.08-.178 1 1 0 0 0-.092-.133 1.4 1.4 0 0 1-.043-.367c0-.152.016-.271.045-.371a1 1 0 0 0 .09-.129 1 1 0 0 0 .08-.178q.035-.038.074-.074c.169-.15.433-.248.711-.248z"/></svg>