<svg xmlns="http://www.w3.org/2000/svg" width="24" height="24" viewBox="0 0 24 24"><path d="M9 2a1 1 0 0 0-1 1v2.129C6.281 5.577 5 7.148 5 9v6c0 1.852 1.281 3.423 3 3.871V21a1 1 0 0 0 1 1h6a1 1 0 0 0 1-1v-2.129c1.719-.448 3-2.019 3-3.871V9c0-1.852-1.281-3.423-3-3.871V3a1 1 0 0 0-1-1zm1 2h4v1h-4zM9 7h6c1.116 0 2 .884 2 2v6c0 1.116-.884 2-2 2H9c-1.116 0-2-.884-2-2V9c0-1.116.884-2 2-2zm3 2c-1.294 0-2.344.82-2.771 1.852a3.01 3.01 0 0 0 .65 3.27 3.01 3.01 0 0 0 3.27.65A3.01 3.01 0 0 0 15 12a1 1 0 0 0-1-1 1 1 0 0 0-1 1c0 .488-.258.775-.617.924-.36.149-.745.128-1.09-.217s-.366-.73-.217-1.09c.15-.36.436-.617.924-.617a1 1 0 0 0 1-1 1 1 0 0 0-1-1zm-2 10h4v1h-4z"/></svg>