<svg xmlns="http://www.w3.org/2000/svg" width="24" height="24" viewBox="0 0 24 24"><path d="M6 1a1 1 0 0 0-1 1 1 1 0 0 0 1 1h12c.564 0 1 .436 1 1v12a1 1 0 0 0 1 1 1 1 0 0 0 1-1V4c0-1.645-1.355-3-3-3zM3 2a1 1 0 0 0-.707.293 1 1 0 0 0 0 1.414L3 4.414V20c0 1.645 1.355 3 3 3h12a3 3 0 0 0 2.402-1.219 1 1 0 0 0 1.305-.074 1 1 0 0 0 0-1.414l-1-1-16-16-1-1A1 1 0 0 0 3 2zm2 4.414 13.938 13.938A.98.98 0 0 1 18 21H6c-.564 0-1-.436-1-1zM9 18a1 1 0 0 0-1 1 1 1 0 0 0 1 1h6a1 1 0 0 0 1-1 1 1 0 0 0-1-1z"/></svg>