<svg xmlns="http://www.w3.org/2000/svg" width="24" height="24" viewBox="0 0 24 24"><path d="M3 2a1 1 0 0 0-.707.293 1 1 0 0 0 0 1.414l.97.97A5 5 0 0 0 2 8v8c0 2.75 2.25 5 5 5h3a1 1 0 0 0 1-1v-7.586l2 2V20a1 1 0 0 0 1 1h2.998c.735 0 1.457-.162 2.117-.47l1.178 1.177a1 1 0 0 0 1.414 0 1 1 0 0 0 0-1.414l-7-7-4-4-7-7A1 1 0 0 0 3 2zm5 1a1 1 0 0 0-1 1 1 1 0 0 0 1 1h1v1a1 1 0 0 0 1 1 1 1 0 0 0 1-1V4a1 1 0 0 0-1-1zm6 0a1 1 0 0 0-1 1v6a1 1 0 0 0 1 1 1 1 0 0 0 1-1V5h2c1.669 0 3 1.331 3 3v8q-.001.348-.076.676a1 1 0 0 0 .756 1.195 1 1 0 0 0 1.195-.756A5 5 0 0 0 22 16V8c0-2.75-2.25-5-5-5zM4.684 6.098l.714.715q-.13.082-.25.189c-.206.183-.226.512-.34.785A1 1 0 0 0 4.5 8.5a1 1 0 0 0 .309.713c.113.273.133.602.34.785.393.35.879.502 1.351.502s.958-.152 1.352-.502q.192-.17.334-.398l.814.814V19H7c-1.669 0-3-1.331-3-3V8c0-.703.248-1.372.684-1.902zM15 16.414l2.535 2.535a3 3 0 0 1-.533.051H15z"/></svg>