<svg xmlns="http://www.w3.org/2000/svg" width="24" height="24" viewBox="0 0 24 24"><path d="M4 3c-1.093 0-2 .907-2 2v10c0 1.093.907 2 2 2h4v2H7a1 1 0 0 0-1 1 1 1 0 0 0 1 1h5a1 1 0 0 0 1-1 1 1 0 0 0-1-1h-2v-2h2.5a1 1 0 0 0 1-1 1 1 0 0 0-1-1H4V5h16v7.5a1 1 0 0 0 1 1 1 1 0 0 0 1-1V5c0-1.093-.907-2-2-2zm15 12c-.972 0-1.958.319-2.727 1.002S15 17.75 15 19s.505 2.315 1.273 2.998C17.043 22.681 18.028 23 19 23s1.958-.319 2.727-1.002S23 20.25 23 19s-.505-2.315-1.273-2.998C20.957 15.319 19.972 15 19 15zm0 2q.268.002.523.063l-2.472 2.472A2.7 2.7 0 0 1 17 19c0-.75.245-1.185.602-1.502.356-.317.87-.498 1.398-.498zm1.95 1.465q.049.237.05.535c0 .75-.245 1.185-.602 1.502-.356.317-.87.498-1.398.498q-.268-.002-.523-.062z"/></svg>