<svg xmlns="http://www.w3.org/2000/svg" width="24" height="24" viewBox="0 0 24 24"><path d="M4 3c-1.093 0-2 .907-2 2v12c0 1.093.907 2 2 2h8a1 1 0 0 0 1 1 1 1 0 0 0 1-1V9h1a1 1 0 0 0 1 1h2a1 1 0 0 0 1-1h1v3.5a1 1 0 0 0 1 1 1 1 0 0 0 1-1V9c0-1.093-.907-2-2-2h-1V5c0-1.093-.907-2-2-2zm0 2h13v2h-3c-1.093 0-2 .907-2 2v8H4zm15.064 10.002a1 1 0 0 0-.26.018 1 1 0 0 0-.636.425l-2 3A1 1 0 0 0 17 20h2.13l-.962 1.445a1 1 0 0 0 .277 1.387 1 1 0 0 0 1.387-.277l2-3A1 1 0 0 0 21 18h-2.13l.962-1.445a1 1 0 0 0-.277-1.387 1 1 0 0 0-.49-.166z"/></svg>