<svg xmlns="http://www.w3.org/2000/svg" width="24" height="24" viewBox="0 0 24 24"><path d="M4 2c-1.093 0-2 .907-2 2v12c0 1.093.907 2 2 2h4.867l-.25 2H8a1 1 0 0 0-1 1 1 1 0 0 0 1 1h4.5a1 1 0 0 0 1-1 1 1 0 0 0-1-1h-1.867l.25-2H12.5a1 1 0 0 0 1-1 1 1 0 0 0-1-1H4v-2h12a1 1 0 0 0 1-1 1 1 0 0 0-1-1H4V4h16v8.5a1 1 0 0 0 1 1 1 1 0 0 0 1-1V4c0-1.093-.907-2-2-2zm15 13a1 1 0 0 0-1 1v3.586l-1.293-1.293a1 1 0 0 0-1.414 0 1 1 0 0 0 0 1.414l3 3 .041.031a1 1 0 0 0 .117.09 1 1 0 0 0 .08.049 1 1 0 0 0 .168.07l.055.02A1 1 0 0 0 19 23a1 1 0 0 0 .246-.033l.055-.02a1 1 0 0 0 .168-.07 1 1 0 0 0 .08-.049 1 1 0 0 0 .117-.09l.041-.031 3-3a1 1 0 0 0 0-1.414 1 1 0 0 0-1.414 0L20 19.586V16a1 1 0 0 0-1-1z"/></svg>