<svg xmlns="http://www.w3.org/2000/svg" width="24" height="24" viewBox="0 0 24 24"><path d="M6 2C4.355 2 3 3.355 3 5v14c0 1.645 1.355 3 3 3h5.5a1 1 0 0 0 1-1 1 1 0 0 0-1-1H6c-.564 0-1-.436-1-1V5c0-.564.436-1 1-1h12c.564 0 1 .436 1 1v8a1 1 0 0 0 1 1 1 1 0 0 0 1-1V5c0-1.645-1.355-3-3-3zm15 14a1 1 0 0 0-.707.293L17 19.586l-1.293-1.293a1 1 0 0 0-1.414 0 1 1 0 0 0 0 1.414l2 2a1 1 0 0 0 1.414 0l4-4a1 1 0 0 0 0-1.414A1 1 0 0 0 21 16zM9 17a1 1 0 0 0-1 1 1 1 0 0 0 1 1h2a1 1 0 0 0 1-1 1 1 0 0 0-1-1z"/></svg>