<svg xmlns="http://www.w3.org/2000/svg" width="24" height="24" viewBox="0 0 24 24"><path d="M8 2C6.355 2 5 3.355 5 5v14c0 1.645 1.355 3 3 3h4.5a1 1 0 0 0 1-1 1 1 0 0 0-1-1H8c-.564 0-1-.436-1-1V5c0-.564.436-1 1-1h2a1 1 0 0 0 1 1h2a1 1 0 0 0 1-1h2c.564 0 1 .436 1 1v7a1 1 0 0 0 1 1 1 1 0 0 0 1-1V5c0-1.645-1.355-3-3-3zm11 13a1 1 0 0 0-1 1v3.586l-1.293-1.293a1 1 0 0 0-1.414 0 1 1 0 0 0 0 1.414l3 3 .041.031a1 1 0 0 0 .117.09 1 1 0 0 0 .08.049 1 1 0 0 0 .168.07l.055.02A1 1 0 0 0 19 23a1 1 0 0 0 .246-.033l.055-.02a1 1 0 0 0 .168-.07 1 1 0 0 0 .08-.049 1 1 0 0 0 .117-.09l.041-.031 3-3a1 1 0 0 0 0-1.414 1 1 0 0 0-1.414 0L20 19.586V16a1 1 0 0 0-1-1zm-7 1a1 1 0 0 0-1 1v.01a1 1 0 0 0 1 1 1 1 0 0 0 1-1V17a1 1 0 0 0-1-1z"/></svg>