<svg xmlns="http://www.w3.org/2000/svg" width="24" height="24" viewBox="0 0 24 24"><path d="M12.04 1.96c-1.47-.008-2.999.405-4.444 1.358a1 1 0 0 0-.284 1.387 1 1 0 0 0 1.385.283c2.796-1.843 5.68-1.099 7.545.766s2.612 4.749.77 7.545a1 1 0 0 0 .283 1.385 1 1 0 0 0 1.387-.286c2.345-3.559 1.417-7.617-1.026-10.058a8.14 8.14 0 0 0-4.611-2.307 8 8 0 0 0-1.006-.072zM3 2a1 1 0 0 0-.707.293 1 1 0 0 0 0 1.414l2.602 2.602c-1.796 3.377-.836 7.07 1.445 9.351q.216.216.45.416l-1.74 2.895v.002c-.772 1.29.212 3.026 1.716 3.027h10.468c.923 0 1.647-.656 1.893-1.459l1.166 1.166a1 1 0 0 0 1.414 0 1 1 0 0 0 0-1.414L9.9 8.486a1 1 0 0 0-.134-.134L3.707 2.293A1 1 0 0 0 3 2zm8.96 4.01a4 4 0 0 0-1.112.168 1 1 0 0 0-.67 1.246 1 1 0 0 0 1.246.668c1.579-.475 2.966.913 2.492 2.492a1 1 0 0 0 .67 1.244 1 1 0 0 0 1.244-.67c.676-2.25-.776-4.433-2.81-5.004a4 4 0 0 0-1.06-.144zM6.39 7.805 8.038 9.45c-.354 2.568 1.943 4.867 4.512 4.512l1.644 1.644c-2.431 1.032-4.82.259-6.44-1.36-1.619-1.62-2.394-4.01-1.362-6.442zm9.151 9.373L17.234 20H6.766l1.69-2.814c2.087 1.049 4.66 1.22 7.085-.008z"/></svg>