<svg xmlns="http://www.w3.org/2000/svg" width="24" height="24" viewBox="0 0 24 24"><path d="M3 2a1 1 0 0 0-.346.068l-.054.02a1 1 0 0 0-.278.185l-.029.02-.02.03a1 1 0 0 0-.185.277l-.02.054A1 1 0 0 0 2 3v4a1 1 0 0 0 1 1h3.586L9 10.414V14a1 1 0 0 0 1 1h3.586l6.707 6.707a1 1 0 0 0 1.414 0 1 1 0 0 0 0-1.414l-6.97-6.97-.06-.06-3.94-3.94-.06-.06-2.94-2.94-.06-.06-3.94-3.94-.03-.03a1 1 0 0 0-.322-.215l-.002-.002H3.38A1 1 0 0 0 3 2zm7 0a1 1 0 0 0-1 1v3a1 1 0 0 0 1 1 1 1 0 0 0 1 1h3a1 1 0 0 0 1-1V3a1 1 0 0 0-1-1zm7 0a1 1 0 0 0-1 1v4a1 1 0 0 0 1 1h4a1 1 0 0 0 1-1V3a1 1 0 0 0-1-1zm-6 2h2v2h-2zm7 0h2v2h-2zM4 5.414 4.586 6H4zM3 9a1 1 0 0 0-1 1v4a1 1 0 0 0 1 1h4a1 1 0 0 0 1-1v-4a1 1 0 0 0-1-1zm14 0a1 1 0 0 0-1 1v3a1 1 0 0 0 1 1 1 1 0 0 0 1 1h3a1 1 0 0 0 1-1v-4a1 1 0 0 0-1-1zM4 11h2v2H4zm14 0h2v2h-2zm-7 1.414.586.586H11zM10 16a1 1 0 0 0-1 1v4a1 1 0 0 0 1 1h4a1 1 0 0 0 1-1v-4a1 1 0 0 0-1-1zm1 2h2v2h-2z"/></svg>