<svg xmlns="http://www.w3.org/2000/svg" width="24" height="24" viewBox="0 0 24 24"><path d="m6 4-.117.006-.112.02-.109.03-.06.026-.05.023-.087.05-.09.064a1 1 0 0 0-.154.154l-.065.09-3.013 5.021-.061.116a1 1 0 0 0 .174 1.068l8.5 9.5.135.125c.325.277.709.418 1.109.418a1.7 1.7 0 0 0 1.215-.512l8.53-9.531.08-.104a1 1 0 0 0 .032-1.078l-3-5-.074-.107A1 1 0 0 0 18 4zm2.746 3.813a1 1 0 0 1 .367.13 1 1 0 0 1 .399 1.268l-.055.103-.219.364 1.502 1.648a1 1 0 0 1 .02 1.324l-.086.09a1 1 0 0 1-1.324.02l-.09-.088-2-2.2a1 1 0 0 1-.178-1.07l.06-.117.6-1a1 1 0 0 1 1.004-.473z"/></svg>