<svg xmlns="http://www.w3.org/2000/svg" width="24" height="24" viewBox="0 0 24 24"><path d="M6 6a1 1 0 0 0-1 1v3H3a1 1 0 0 0-1 1v4a1 1 0 0 0 1 1h3a1 1 0 0 0 .236-.03 1 1 0 0 0 .098-.034 1 1 0 0 0 .135-.057 1 1 0 0 0 .08-.05 1 1 0 0 0 .117-.09 1 1 0 0 0 .072-.073 1 1 0 0 0 .09-.117 1 1 0 0 0 .05-.08 1 1 0 0 0 .058-.135 1 1 0 0 0 .035-.098A1 1 0 0 0 7 15V7a1 1 0 0 0-1-1zm3 4a1 1 0 0 0-1 1v4a1 1 0 0 0 1 1 1 1 0 0 0 1-1v-4a1 1 0 0 0-1-1zm3 0a1 1 0 0 0-1 1v4a1 1 0 0 0 1 1h2v1h-2a1 1 0 0 0-1 1 1 1 0 0 0 1 1h3a1 1 0 0 0 1-1v-7l-.004-.082-.01-.082-.004-.02-.002-.011-.02-.078-.015-.051-.013-.037-.002-.004-.035-.08-.016-.032-.03-.05-.011-.02-.014-.02-.035-.046-.025-.032-.028-.033-.062-.06-.03-.026-.03-.025-.067-.049-.02-.012-.05-.029a1 1 0 0 0-.116-.053l-.037-.013-.05-.016-.006-.002-.084-.02-.02-.003-.033-.004-.049-.006L15 10zm6 0a1 1 0 0 0-1 1v4a1 1 0 0 0 1 1h2v1h-2a1 1 0 0 0-1 1 1 1 0 0 0 1 1h3a1 1 0 0 0 1-1v-7l-.004-.082-.006-.049-.004-.033-.004-.02-.002-.011-.017-.073-.002-.005-.016-.051-.013-.037-.002-.004-.035-.08-.016-.032-.03-.05-.011-.02-.014-.02-.035-.046-.025-.032-.028-.033-.062-.06-.03-.026-.03-.025-.048-.035-.02-.014-.019-.012-.05-.029-.032-.016-.08-.035-.004-.002-.037-.013-.05-.016-.006-.002-.073-.017-.011-.002-.02-.004-.033-.004-.049-.006L21 10zM4 12h1v2H4zm9 0h1v2h-1zm6 0h1v2h-1z"/></svg>