<svg xmlns="http://www.w3.org/2000/svg" width="24" height="24" viewBox="0 0 24 24"><path d="M12 2C6.489 2 2 6.489 2 12s4.489 10 10 10 10-4.489 10-10S17.511 2 12 2zm0 2c4.43 0 8 3.57 8 8s-3.57 8-8 8-8-3.57-8-8 3.57-8 8-8zM8.047 6.502a1 1 0 0 0-1.014 1.254c.424 1.607.63 3.243 1.213 4.648.292.703.7 1.37 1.338 1.86.323.247.813.249 1.227.373l-.782 3.12a1 1 0 0 0 1.596 1.024l5-4a1 1 0 0 0-.611-1.775l.492-1.15a2.016 2.016 0 0 0-1.133-2.66h-.002l-7.02-2.632a1 1 0 0 0-.304-.062zm1.398 2.607 5.223 1.96-1.088 2.536a1 1 0 0 0 .111.96l-1.002.802.282-1.125A1 1 0 0 0 11.99 13c-.605.006-.928-.122-1.192-.324s-.495-.531-.705-1.037c-.242-.583-.448-1.633-.649-2.53z"/></svg>