<svg xmlns="http://www.w3.org/2000/svg" width="24" height="24" viewBox="0 0 24 24"><path d="M12 2C6.489 2 2 6.489 2 12s4.489 10 10 10 10-4.489 10-10S17.511 2 12 2zm0 2c4.43 0 8 3.57 8 8s-3.57 8-8 8-8-3.57-8-8 3.57-8 8-8zm0 2a1 1 0 0 0-.707.293l-1 1a1 1 0 0 0 0 1.414 1 1 0 0 0 1.414 0L12 8.414l.293.293a1 1 0 0 0 1.414 0 1 1 0 0 0 0-1.414l-1-1A1 1 0 0 0 12 6zm-4 4a1 1 0 0 0-.707.293l-1 1a1 1 0 0 0 0 1.414l1 1a1 1 0 0 0 1.414 0 1 1 0 0 0 0-1.414L8.414 12l.293-.293a1 1 0 0 0 0-1.414A1 1 0 0 0 8 10zm8 0a1 1 0 0 0-.707.293 1 1 0 0 0 0 1.414l.293.293-.293.293a1 1 0 0 0 0 1.414 1 1 0 0 0 1.414 0l1-1a1 1 0 0 0 0-1.414l-1-1A1 1 0 0 0 16 10zm-5 5a1 1 0 0 0-.707.293 1 1 0 0 0 0 1.414l1 1a1 1 0 0 0 1.414 0l1-1a1 1 0 0 0 0-1.414 1 1 0 0 0-1.414 0l-.293.293-.293-.293A1 1 0 0 0 11 15z"/></svg>