<svg xmlns="http://www.w3.org/2000/svg" width="24" height="24" viewBox="0 0 24 24"><path d="M3 2a1 1 0 0 0-.707.293 1 1 0 0 0 0 1.414l3.566 3.566-3.246 3.247a2.11 2.11 0 0 0 0 2.96l7.907 7.907a2.11 2.11 0 0 0 2.96 0l3.247-3.246 3.566 3.566a1 1 0 0 0 1.414 0 1 1 0 0 0 0-1.414l-8.975-8.973-.052-.052-8.973-8.975A1 1 0 0 0 3 2zm9 .006c-.538 0-1.076.203-1.48.607L8.568 4.564a1 1 0 0 0 0 1.415 1 1 0 0 0 1.414 0l1.952-1.95q.066-.067.132 0l7.905 7.905q.068.066 0 .132l-1.948 1.952a1 1 0 0 0 0 1.414 1 1 0 0 0 1.415 0l1.949-1.952a2.11 2.11 0 0 0 0-2.96L13.48 2.613A2.1 2.1 0 0 0 12 2.006zM7.273 8.688 9.586 11H8a1 1 0 0 0-1 1 1 1 0 0 0 1 1h3.586l.75.75-1.043 1.043a1 1 0 0 0 0 1.414 1 1 0 0 0 1.414 0l1.043-1.043 1.563 1.563-3.247 3.246c-.046.046-.087.045-.132 0l-7.905-7.907q-.067-.066 0-.132z"/></svg>