<svg xmlns="http://www.w3.org/2000/svg" width="24" height="24" viewBox="0 0 24 24"><path d="M3 2a1 1 0 0 0-.707.293 1 1 0 0 0 0 1.414L7 8.414V9a1 1 0 0 0 1 1h.586l2 2H6a1 1 0 0 0-.707.293l-2 2a1 1 0 0 0 0 1.414l2 2A1 1 0 0 0 6 18h5v2h-1a1 1 0 0 0-1 1 1 1 0 0 0 1 1h4a1 1 0 0 0 1-1 1 1 0 0 0-1-1h-1v-2h1a1 1 0 0 0 1-1v-.586l5.293 5.293a1 1 0 0 0 1.414 0 1 1 0 0 0 0-1.414l-6.965-6.963a1 1 0 0 0-.072-.072l-.928-.928a1 1 0 0 0-.072-.072l-.924-.924a1 1 0 0 0-.08-.08L9.707 8.293l-1-1-5-5A1 1 0 0 0 3 2zm9 0a1 1 0 0 0-1 1v1H9a1 1 0 0 0-1 1 1 1 0 0 0 1 1h9.586l1 1-1 1H13a1 1 0 0 0-1 1 1 1 0 0 0 1 1h6a1 1 0 0 0 .707-.293l2-2a1 1 0 0 0 0-1.414l-2-2A1 1 0 0 0 19 4h-6V3a1 1 0 0 0-1-1zM6.414 14h6.172l.414.414V16H6.414l-1-1z"/></svg>