<svg xmlns="http://www.w3.org/2000/svg" width="24" height="24" viewBox="0 0 24 24"><path d="M11.908 1.969q-.59.006-1.19.088c-1.063.145-2.141.47-3.204 1.004a1 1 0 0 0-.446 1.343 1 1 0 0 0 1.342.444c3.493-1.756 6.981-.778 9.25 1.492s3.247 5.757 1.49 9.25a1 1 0 0 0 .446 1.344 1 1 0 0 0 1.342-.444c2.138-4.252.947-8.754-1.862-11.564-1.843-1.844-4.415-2.99-7.168-2.957zM3 2a1 1 0 0 0-.707.293 1 1 0 0 0 0 1.414l1.965 1.965c-2.51 3.04-2.823 6.958-1.494 10.16C4.202 19.298 7.59 22 12 22a9.95 9.95 0 0 0 6.328-2.258l1.965 1.965a1 1 0 0 0 1.414 0 1 1 0 0 0 0-1.414l-5.318-5.318a1 1 0 0 0-.135-.166 1 1 0 0 0-.133-.102l-4.043-4.043a1 1 0 0 0-.066-.076l-.063-.053-8.242-8.242A1 1 0 0 0 3 2zm9 4q-.572.002-1.113.104a1 1 0 0 0-.801 1.164 1 1 0 0 0 1.166.8Q11.618 8 12 8a1 1 0 0 0 1-1 1 1 0 0 0-1-1zM5.682 7.096l1.43 1.43A6 6 0 0 0 6 12a1 1 0 0 0 1 1 1 1 0 0 0 1-1c0-.746.203-1.437.555-2.031l1.506 1.506a1.9 1.9 0 0 0-.079.61c.027.527.26.982.59 1.32.331.336.781.575 1.307.61.211.015.432-.013.646-.076l1.506 1.506c-.61.36-1.308.556-2.029.555a1 1 0 0 0-1.002.998A1 1 0 0 0 11.998 18a6 6 0 0 0 3.477-1.111l1.431 1.431A7.9 7.9 0 0 1 12 20c-3.604 0-6.23-2.14-7.389-4.934-1.05-2.53-.863-5.531 1.07-7.97zM17 11a1 1 0 0 0-1 1q-.001.385-.07.748a1 1 0 0 0 .797 1.168 1 1 0 0 0 1.17-.797Q18 12.574 18 12a1 1 0 0 0-1-1z"/></svg>