<svg xmlns="http://www.w3.org/2000/svg" width="24" height="24" viewBox="0 0 24 24"><path d="M11.848 2c-5.59 0-9.899 4.515-9.899 10 0 1.221.227 2.45.684 3.633l-1.52 2.904A1 1 0 0 0 2 20h3.707c1.736 1.297 3.855 2 6.14 2C17.435 22 22 17.521 22 12c0-5.52-4.569-10-10.152-10zm0 2C16.368 4 20 7.58 20 12c0 4.423-3.629 8-8.152 8-2.062 0-3.883-.601-5.28-1.768a1 1 0 0 0-.64-.232H3.652l.942-1.803a1 1 0 0 0 .021-.884c-.47-1.015-.667-2.136-.666-3.313 0-4.455 3.372-8 7.899-8zM10 8a1 1 0 0 0-1 1v6a1 1 0 0 0 1 1h1.484c1.183 0 2.29-.212 3.16-.883.872-.67 1.356-1.797 1.356-3.101v-.036c0-1.295-.484-2.417-1.354-3.09-.869-.672-1.976-.89-3.162-.89zm1 2h.484c.926 0 1.577.194 1.938.473.36.278.578.645.578 1.507v.036c0 .875-.218 1.241-.576 1.517s-1.01.467-1.94.467H11z"/></svg>