<svg xmlns="http://www.w3.org/2000/svg" width="24" height="24" viewBox="0 0 24 24"><path d="M6.426 2.023q-.455 0-.905.092a4.34 4.34 0 0 0-2.208 1.197C.735 5.89 2.25 10.434 5.858 10.95a1 1 0 0 0 1.131-.847 1 1 0 0 0-.85-1.131c-2.101-.3-2.915-2.743-1.413-4.244 1.5-1.502 3.943-.688 4.244 1.414a1 1 0 0 0 1.13.85 1 1 0 0 0 .848-1.132c-.338-2.368-2.41-3.836-4.523-3.836zm11.148 0c-2.113 0-4.185 1.468-4.523 3.836a1 1 0 0 0 .847 1.131 1 1 0 0 0 1.131-.85c.3-2.101 2.743-2.915 4.244-1.413 1.502 1.5.688 3.943-1.414 4.244a1 1 0 0 0-.85 1.13 1 1 0 0 0 1.132.848c3.608-.516 5.124-5.06 2.547-7.636a4.34 4.34 0 0 0-3.114-1.29zM6.5 5.5a1 1 0 0 0-.707.293 1 1 0 0 0 0 1.414L9 10.414v3.172l-3.207 3.207a1 1 0 0 0 0 1.414 1 1 0 0 0 1.414 0L10.414 15h3.172l3.207 3.207a1 1 0 0 0 1.414 0 1 1 0 0 0 0-1.414L15 13.586v-3.172l3.207-3.207a1 1 0 0 0 0-1.414 1 1 0 0 0-1.414 0L13.586 9h-3.172L7.207 5.793A1 1 0 0 0 6.5 5.5zM11 11h2v2h-2zm-5.14 2.05c-3.61.517-5.125 5.06-2.548 7.637s7.121 1.062 7.637-2.546a1 1 0 0 0-.847-1.131 1 1 0 0 0-1.131.85c-.3 2.101-2.743 2.915-4.244 1.413-1.502-1.5-.688-3.943 1.414-4.244a1 1 0 0 0 .85-1.13 1 1 0 0 0-1.132-.848zm12.28 0a1 1 0 0 0-1.13.848 1 1 0 0 0 .85 1.131c2.101.3 2.915 2.743 1.413 4.244-1.5 1.502-3.943.688-4.244-1.414a1 1 0 0 0-1.13-.85 1 1 0 0 0-.848 1.132c.516 3.608 5.06 5.124 7.637 2.547 2.577-2.578 1.061-7.121-2.547-7.637z"/></svg>