<svg xmlns="http://www.w3.org/2000/svg" width="24" height="24" viewBox="0 0 24 24"><path d="M12 2.025c-.517 0-1.034.235-1.34.704v.001L8.563 5.957l-.03.047a4.01 4.01 0 0 0 .895 5.062h.002a4.01 4.01 0 0 0 5.14 0 4.015 4.015 0 0 0 .895-5.064l-.027-.045-2.096-3.227-.002-.001A1.58 1.58 0 0 0 12 2.025zm0 2.313 1.732 2.668a1.99 1.99 0 0 1-.447 2.527 1.99 1.99 0 0 1-2.57 0h-.002a1.99 1.99 0 0 1-.447-2.527zm-6 7.687c-.517 0-1.034.235-1.34.704v.001l-2.097 3.227-.03.047a4.01 4.01 0 0 0 .895 5.062h.002a4.01 4.01 0 0 0 5.14 0 4.015 4.015 0 0 0 .895-5.064l-.027-.045-2.096-3.227-.002-.001A1.58 1.58 0 0 0 6 12.025zm12 0c-.517 0-1.034.235-1.34.704v.001l-2.097 3.227-.03.047a4.01 4.01 0 0 0 .895 5.062h.002a4.01 4.01 0 0 0 5.14 0 4.015 4.015 0 0 0 .895-5.064l-.027-.045-2.096-3.227-.002-.001a1.58 1.58 0 0 0-1.34-.704zM6 14.338l1.732 2.668a1.99 1.99 0 0 1-.447 2.527 1.99 1.99 0 0 1-2.57 0h-.002a1.99 1.99 0 0 1-.447-2.527zm12 0 1.732 2.668a1.99 1.99 0 0 1-.447 2.527 1.99 1.99 0 0 1-2.57 0h-.002a1.99 1.99 0 0 1-.447-2.527z"/></svg>