<svg xmlns="http://www.w3.org/2000/svg" width="24" height="24" viewBox="0 0 24 24"><path d="M13.021 1.957c-1.712-.014-3.488.54-5.082 1.842a1 1 0 0 0-.142 1.406 1 1 0 0 0 1.408.143c2.68-2.189 5.683-1.654 7.723.111 2.032 1.76 2.984 4.64 1.226 7.596q-.247.327-.523.63a1 1 0 0 0 .06 1.413 1 1 0 0 0 1.413-.059q.369-.404.697-.84a1 1 0 0 0 .056-.084c2.26-3.761 1.045-7.862-1.62-10.17a8.15 8.15 0 0 0-4.874-1.978 8 8 0 0 0-.342-.01zM3 2a1 1 0 0 0-.707.293 1 1 0 0 0 0 1.414l3.291 3.291A8 8 0 0 0 5 10a1 1 0 0 0 1 1 1 1 0 0 0 1-1q.002-.73.168-1.418l7.838 7.838a9 9 0 0 0-.904 1.736 3.476 3.476 0 0 1-5.274 1.065 1 1 0 0 0-1.406.152 1 1 0 0 0 .15 1.406c2.677 2.156 6.706 1.327 8.313-1.71a1 1 0 0 0 .05-.116q.214-.564.52-1.084l3.838 3.838a1 1 0 0 0 1.414 0 1 1 0 0 0 0-1.414l-4.645-4.645-9.591-9.59-3.764-3.765A1 1 0 0 0 3 2zm9.902 3.96a3.95 3.95 0 0 0-2.01.604 1 1 0 0 0-.322 1.377 1 1 0 0 0 1.377.323c.965-.599 1.849-.335 2.469.285s.883 1.504.285 2.469a1 1 0 0 0 .322 1.377 1 1 0 0 0 1.377-.325c1.072-1.73.62-3.746-.57-4.935a4.06 4.06 0 0 0-2.928-1.174z"/></svg>