<svg xmlns="http://www.w3.org/2000/svg" width="24" height="24" viewBox="0 0 24 24"><path d="M18.748 1.967c-.713.038-1.453.353-2.041.941L15.41 4.201a1 1 0 0 0-.117.092 1 1 0 0 0-.09.113l-6.908 6.885A1 1 0 0 0 8 12v3a1 1 0 0 0 1 1h3a1 1 0 0 0 .709-.295l6.885-6.908a1 1 0 0 0 .113-.09 1 1 0 0 0 .115-.14l1.27-1.274c.672-.672.988-1.542.941-2.344a3.16 3.16 0 0 0-.941-2.04 3.16 3.16 0 0 0-2.041-.942q-.15-.009-.303 0zm.186 1.996c.25.015.53.145.744.36a1.2 1.2 0 0 1 .36.743c.014.251-.042.493-.36.811l-.002.002-.69.693-1.558-1.558.693-.69.002-.002c.318-.318.56-.374.81-.36zM6 6C4.355 6 3 7.355 3 9v9c0 1.645 1.355 3 3 3h9c1.645 0 3-1.355 3-3v-1a1 1 0 0 0-1-1 1 1 0 0 0-1 1v1c0 .564-.436 1-1 1H6c-.564 0-1-.436-1-1V9c0-.564.436-1 1-1h1a1 1 0 0 0 1-1 1 1 0 0 0-1-1zm10.012.426 1.562 1.562L11.584 14H10v-1.584z"/></svg>