<svg xmlns="http://www.w3.org/2000/svg" width="24" height="24" viewBox="0 0 24 24"><path d="M18.746 1.967c-.713.038-1.453.353-2.04.941l-1.304 1.299a1 1 0 0 0-.109.086 1 1 0 0 0-.084.107l-3.414 3.403a1 1 0 0 0-.004 1.414 1 1 0 0 0 1.414.002l2.805-2.795 1.562 1.562-2.787 2.8a1 1 0 0 0 .002 1.415 1 1 0 0 0 1.414-.004l3.381-3.39a1 1 0 0 0 .125-.1 1 1 0 0 0 .12-.146l1.263-1.268.002-.002c.67-.671.986-1.541.94-2.342a3.16 3.16 0 0 0-.942-2.04 3.16 3.16 0 0 0-2.041-.942q-.15-.009-.303 0zM3 2a1 1 0 0 0-.707.293 1 1 0 0 0 0 1.414l3.486 3.486c-3.05 1.838-4.207 5.245-3.642 8.274C2.778 18.904 5.662 22 10 22c2.8 0 5.36-1.463 6.8-3.785l3.493 3.492a1 1 0 0 0 1.414 0 1 1 0 0 0 0-1.414l-4.441-4.441a1 1 0 0 0-.069-.069l-5.926-5.926-.056-.064-.024-.016-2.986-2.986-.02-.02-4.478-4.478A1 1 0 0 0 3 2zm15.932 1.963c.25.015.53.145.744.36a1.2 1.2 0 0 1 .36.743c.014.251-.042.493-.36.811l-.002.002-.69.691-1.556-1.556.691-.69v-.002c.318-.318.562-.374.813-.36zm-11.684 4.7 1.84 1.839-.793.789A1 1 0 0 0 8 12v3a1 1 0 0 0 1 1h3a1 1 0 0 0 .709-.295l.789-.793 1.834 1.834A5.99 5.99 0 0 1 10 20c-3.415 0-5.408-2.272-5.898-4.9-.46-2.46.422-5.1 3.146-6.438zm3.254 3.253 1.582 1.582-.5.502H10v-1.584z"/></svg>