<svg xmlns="http://www.w3.org/2000/svg" width="24" height="24" viewBox="0 0 24 24"><path d="M18.748 1.967c-.713.038-1.453.353-2.041.941L15.41 4.201a1 1 0 0 0-.117.092 1 1 0 0 0-.09.113l-6.908 6.885A1 1 0 0 0 8 12v3a1 1 0 0 0 1 1h3a1 1 0 0 0 .709-.295l6.885-6.908a1 1 0 0 0 .113-.09 1 1 0 0 0 .115-.14l1.27-1.274.002-.002c.67-.671.986-1.541.94-2.342a3.16 3.16 0 0 0-.942-2.04 3.16 3.16 0 0 0-2.041-.942q-.15-.009-.303 0zm.186 1.996c.25.015.53.145.744.36a1.2 1.2 0 0 1 .36.743c.014.251-.042.493-.36.811l-.002.002-.69.693-1.558-1.558.693-.69.002-.002c.318-.318.56-.374.81-.36zM8.859 6.08c-4.79.683-7.121 4.73-6.851 8.492S5.163 22.01 10.002 22a8.01 8.01 0 0 0 7.916-6.857 1 1 0 0 0-.846-1.133 1 1 0 0 0-1.133.847A5.99 5.99 0 0 1 10 20h-.002c-3.864.007-5.788-2.671-5.996-5.57s1.313-5.824 5.139-6.37a1 1 0 0 0 .85-1.13 1 1 0 0 0-1.132-.85zm7.153.346 1.562 1.562L11.584 14H10v-1.584z"/></svg>