<svg xmlns="http://www.w3.org/2000/svg" width="24" height="24" viewBox="0 0 24 24"><path d="M3.053 8.002a1 1 0 0 0-.721.254 1 1 0 0 0-.076 1.412 14 14 0 0 0 1.9 1.754l-1.992 3.03a1 1 0 0 0 .287 1.384 1 1 0 0 0 1.385-.287l2.004-3.045q1.23.659 2.586 1.03l-.418 3.341a1 1 0 0 0 .867 1.117 1 1 0 0 0 1.117-.867l.403-3.217a14.3 14.3 0 0 0 3.21 0l.403 3.217a1 1 0 0 0 1.117.867 1 1 0 0 0 .867-1.117l-.418-3.342a12.3 12.3 0 0 0 2.594-1.033l1.998 3.027a1 1 0 0 0 1.385.284 1 1 0 0 0 .283-1.385l-1.984-3.01a14 14 0 0 0 1.894-1.748 1 1 0 0 0-.076-1.412 1 1 0 0 0-1.412.076C18.022 10.814 15.353 12 12 12s-6.022-1.186-8.256-3.668a1 1 0 0 0-.691-.33z"/></svg>