<svg xmlns="http://www.w3.org/2000/svg" width="24" height="24" viewBox="0 0 24 24"><path d="M12 5c-3.97 0-7.344 2.297-9.857 6.486a1 1 0 0 0 0 1.028C4.656 16.703 8.03 19 12 19a1 1 0 0 0 1-1 1 1 0 0 0-1-1c-3.062 0-5.57-1.594-7.771-5C6.43 8.594 8.939 7 12 7c3.23 0 5.856 1.703 8.143 5.514a1 1 0 0 0 1.37.343 1 1 0 0 0 .344-1.37C19.344 7.296 15.97 5 12 5zm0 4a3.05 3.05 0 0 0-2.04.752C9.38 10.269 9 11.083 9 12s.38 1.731.96 2.248A3.05 3.05 0 0 0 12 15a3.05 3.05 0 0 0 2.04-.752c.58-.517.96-1.331.96-2.248s-.38-1.731-.96-2.248A3.05 3.05 0 0 0 12 9zm0 2c.278 0 .542.098.71.248.17.15.29.335.29.752s-.12.602-.29.752c-.168.15-.432.248-.71.248s-.542-.098-.71-.248c-.17-.15-.29-.335-.29-.752s.12-.602.29-.752A1.1 1.1 0 0 1 12 11zm7 4c-.972 0-1.958.319-2.727 1.002S15 17.75 15 19s.505 2.315 1.273 2.998C17.043 22.681 18.028 23 19 23s1.958-.319 2.727-1.002S23 20.25 23 19s-.505-2.315-1.273-2.998C20.957 15.319 19.972 15 19 15zm0 2q.268.002.523.063l-2.472 2.472A2.7 2.7 0 0 1 17 19c0-.75.245-1.185.602-1.502.356-.317.87-.498 1.398-.498zm1.95 1.465q.049.237.05.535c0 .75-.245 1.185-.602 1.502-.356.317-.87.498-1.398.498q-.268-.002-.523-.062z"/></svg>