<svg xmlns="http://www.w3.org/2000/svg" width="24" height="24" viewBox="0 0 24 24"><path d="M3 2a1 1 0 0 0-.707.293 1 1 0 0 0 0 1.414l3.484 3.484c-1.356 1.07-2.563 2.51-3.634 4.295a1 1 0 0 0 0 1.028C4.656 16.703 8.03 19 12 19a9.7 9.7 0 0 0 4.504-1.082l3.789 3.789a1 1 0 0 0 1.414 0 1 1 0 0 0 0-1.414l-7.586-7.586-2.83-2.828-7.584-7.586A1 1 0 0 0 3 2zm9 3a10 10 0 0 0-2.018.2A1 1 0 0 0 9.2 6.378a1 1 0 0 0 1.18.781A8 8 0 0 1 11.998 7H12c3.059 0 5.565 1.592 7.766 4.992-.527.81-1.062 1.589-1.631 2.192a1 1 0 0 0 .04 1.414 1 1 0 0 0 1.413-.041q1.224-1.297 2.27-3.043a1 1 0 0 0 0-1.028C19.343 7.298 15.97 5.001 12.001 5zM7.207 8.621l2.076 2.076a2.86 2.86 0 0 0-.314 1.451c.046.777.4 1.464.91 1.975a3.05 3.05 0 0 0 1.975.91c.478.028.981-.079 1.449-.316l1.695 1.695a7.7 7.7 0 0 1-2.992.588H12c-3.06 0-5.567-1.593-7.768-4.994.93-1.432 1.92-2.577 2.975-3.385z"/></svg>