<svg xmlns="http://www.w3.org/2000/svg" width="24" height="24" viewBox="0 0 24 24"><path d="M4 2a1 1 0 0 0-1 1 1 1 0 0 0 1 1v16c0 1.093.907 2 2 2h12c1.093 0 2-.907 2-2V4a1 1 0 0 0 1-1 1 1 0 0 0-1-1zm2 2h12v16H6zm4 2a1 1 0 0 0-1 1 1 1 0 0 0 1 1h1v3a1 1 0 0 0 1 1 1 1 0 0 0 1-1V8h1a1 1 0 0 0 1-1 1 1 0 0 0-1-1zm-1 8a1 1 0 0 0-1 1 1 1 0 0 0 1 1h1a1 1 0 0 0 1-1 1 1 0 0 0-1-1zm5 0a1 1 0 0 0-1 1 1 1 0 0 0 1 1h1a1 1 0 0 0 1-1 1 1 0 0 0-1-1zm-6.012 3a1 1 0 0 0-1 1 1 1 0 0 0 1 1H8a1 1 0 0 0 1-1 1 1 0 0 0-1-1zm4 0a1 1 0 0 0-1 1 1 1 0 0 0 1 1H12a1 1 0 0 0 1-1 1 1 0 0 0-1-1zm4 0a1 1 0 0 0-1 1 1 1 0 0 0 1 1H16a1 1 0 0 0 1-1 1 1 0 0 0-1-1z"/></svg>