<svg xmlns="http://www.w3.org/2000/svg" width="24" height="24" viewBox="0 0 24 24"><path d="M6 3a1 1 0 0 0-.957.713l-3 10A1 1 0 0 0 2 14v2.5c0 1.417.567 2.606 1.43 3.373C4.292 20.64 5.403 21 6.5 21s2.208-.36 3.07-1.127c.76-.674 1.29-1.677 1.407-2.873h2.046c.117 1.196.648 2.199 1.407 2.873.862.767 1.973 1.127 3.07 1.127s2.208-.36 3.07-1.127c.863-.767 1.43-1.956 1.43-3.373V14a1 1 0 0 0-.043-.287l-3-10A1 1 0 0 0 18 3h-2a1 1 0 0 0-1 1 1 1 0 0 0 1 1h1.256l2.226 7.422A4.8 4.8 0 0 0 17.5 12c-1.097 0-2.208.36-3.07 1.127A4.2 4.2 0 0 0 13.229 15H10.77a4.2 4.2 0 0 0-1.2-1.873C8.707 12.36 7.596 12 6.5 12a4.8 4.8 0 0 0-1.982.422L6.744 5H8a1 1 0 0 0 1-1 1 1 0 0 0-1-1zm.5 11c.653 0 1.292.223 1.742.623S9 15.583 9 16.5s-.308 1.477-.758 1.877S7.152 19 6.5 19c-.653 0-1.292-.223-1.742-.623S4 17.417 4 16.5s.308-1.477.758-1.877S5.848 14 6.5 14zm11 0c.653 0 1.292.223 1.742.623s.758.96.758 1.877-.308 1.477-.758 1.877S18.152 19 17.5 19c-.653 0-1.292-.223-1.742-.623S15 17.417 15 16.5s.308-1.477.758-1.877S16.848 14 17.5 14z"/></svg>