<svg xmlns="http://www.w3.org/2000/svg" width="24" height="24" viewBox="0 0 24 24"><path d="M6 3a1 1 0 0 0-.957.713l-3 10v.006A1 1 0 0 0 2 14v2.5c0 1.417.567 2.606 1.43 3.373C4.292 20.64 5.403 21 6.5 21s2.208-.36 3.07-1.127c.76-.674 1.29-1.677 1.407-2.873h2.046c.117 1.196.648 2.199 1.407 2.873.862.767 1.973 1.127 3.07 1.127s2.208-.36 3.07-1.127c.863-.767 1.43-1.956 1.43-3.373V14l-.002-.021a1 1 0 0 0-.027-.215l-.012-.041-.002-.01-3-10A1 1 0 0 0 18 3h-2a1 1 0 0 0-1 1 1 1 0 0 0 1 1h1.256l2.4 8H14a1 1 0 0 0-1 1v1h-2v-1a1 1 0 0 0-1-1H4.344l2.4-8H8a1 1 0 0 0 1-1 1 1 0 0 0-1-1zM4 15h5v1.5c0 .917-.308 1.477-.758 1.877S7.152 19 6.5 19c-.653 0-1.292-.223-1.742-.623S4 17.417 4 16.5zm11 0h5v1.5c0 .917-.308 1.477-.758 1.877S18.152 19 17.5 19c-.653 0-1.292-.223-1.742-.623S15 17.417 15 16.5z"/></svg>