<svg xmlns="http://www.w3.org/2000/svg" width="24" height="24" viewBox="0 0 24 24"><path d="m5.668 2-.195.006A3.67 3.67 0 0 0 2 5.668v12.664l.006.195A3.667 3.667 0 0 0 5.668 22h12.664l.195-.006A3.67 3.67 0 0 0 22 18.332V5.668l-.006-.195A3.67 3.67 0 0 0 18.332 2zM8 8h2a1 1 0 0 1 .117 1.992L10 10H9v1h1a1 1 0 0 1 .117 1.992L10 13H9v2a1 1 0 0 1-.883.992L8 16a1 1 0 0 1-.992-.883L7 15V9a1 1 0 0 1 .883-.992zm5 0h3a1 1 0 0 1 .99 1.133l-.02.11-1.5 6a1 1 0 0 1-1.962-.372l.021-.113L14.72 10H13a1 1 0 0 1-.992-.883L12 9a1 1 0 0 1 .883-.992z"/></svg>