<svg xmlns="http://www.w3.org/2000/svg" width="24" height="24" viewBox="0 0 24 24"><path d="M5 2C3.355 2 2 3.355 2 5v14c0 1.645 1.355 3 3 3h14c1.645 0 3-1.355 3-3V5c0-1.645-1.355-3-3-3zm0 2h14c.564 0 1 .436 1 1v14c0 .564-.436 1-1 1H5c-.564 0-1-.436-1-1V5c0-.564.436-1 1-1zm3 4a1 1 0 0 0-1 1v6a1 1 0 0 0 1 1 1 1 0 0 0 1-1v-2h1a1 1 0 0 0 1-1 1 1 0 0 0-1-1H9v-1h1a1 1 0 0 0 1-1 1 1 0 0 0-1-1zm5 0a1 1 0 0 0-1 1 1 1 0 0 0 1 1h1.719l-1.19 4.758a1 1 0 0 0 .729 1.213 1 1 0 0 0 1.213-.729l1.5-6A1 1 0 0 0 16 8z"/></svg>