<svg xmlns="http://www.w3.org/2000/svg" width="24" height="24" viewBox="0 0 24 24"><path d="M16.482 3c-1.222 0-2.362.47-3.187 1.291l-.002.002-4 4-4 4A1 1 0 0 0 5 13v4.586l-1.707 1.707a1 1 0 0 0 0 1.414 1 1 0 0 0 1.414 0L6.414 19H11a1 1 0 0 0 .707-.293l4-4 3.998-3.998.002-.002.004-.008.004-.004C20.538 9.87 21 8.727 21 7.514A4.53 4.53 0 0 0 16.482 3zm0 2h.002A2.5 2.5 0 0 1 19 7.514c0 .576-.166 1.08-.459 1.486H15V5.463c.408-.293.91-.463 1.482-.463zM13 7.414v2.172l-2 2V9.414zM14.414 11h2.172l-2 2h-2.172zM9 11.414v2.172l-2 2v-2.172zM10.414 15h2.172l-2 2H8.414z"/></svg>