<svg xmlns="http://www.w3.org/2000/svg" width="24" height="24" viewBox="0 0 24 24"><path d="M12 0C9.25 0 7 2.25 7 5v.025l.006.2v.025c.065 1.298.745 2.4 1.668 3.275a4.75 4.75 0 0 0-1.422 2.704c-1.888-.501-3.772.115-4.943 1.398-1.376 1.506-1.85 3.915-.561 6s3.655 2.739 5.617 2.182c1.749-.497 3.198-2.013 3.508-4.065.377.09.725.256 1.127.256.395 0 .738-.164 1.11-.252.26 1.725 1.345 3.118 2.779 3.785 1.715.799 3.93.625 5.543-.896 1.612-1.522 1.913-3.724 1.214-5.483C21.948 12.396 20.217 11 18 11h-.025l-.2.006h-.023c-.347.017-.662.174-.996.262a4.74 4.74 0 0 0-1.367-2.676c1.407-1.32 1.887-3.222 1.441-4.887C16.296 1.713 14.488 0 12 0zm0 2c1.605 0 2.57.994 2.898 2.223.33 1.228-.008 2.572-1.398 3.375a1 1 0 0 0-.498.88v.073a1 1 0 0 0 .5.851 2.99 2.99 0 0 1 1.49 2.819 1 1 0 0 0 .494.937l.221.13a1 1 0 0 0 .95.028 3 3 0 0 1 1.19-.312L18 13h.002c1.401.001 2.358.818 2.785 1.893.427 1.074.291 2.326-.728 3.289-1.02.962-2.278 1.025-3.327.537s-1.809-1.49-1.728-2.89a1 1 0 0 0-.502-.927l-.28-.16a1 1 0 0 0-.927-.033c-.39.187-.828.291-1.295.291a3 3 0 0 1-1.295-.293 1 1 0 0 0-.93.035l-.279.16a1 1 0 0 0-.502.897l.006.203c-.001 1.577-.972 2.54-2.18 2.883s-2.542.032-3.37-1.309c-.83-1.341-.512-2.674.335-3.601.848-.928 2.145-1.364 3.557-.659a1 1 0 0 0 .949-.03l.22-.13a1 1 0 0 0 .497-.937 2.99 2.99 0 0 1 1.49-2.817 1 1 0 0 0 .5-.838L11 8.492a1 1 0 0 0-.5-.892 3 3 0 0 1-1.496-2.45L9 5v-.002A2.985 2.985 0 0 1 12 2zm0 2a1 1 0 0 0-1 1v.01a1 1 0 0 0 1 1 1 1 0 0 0 1-1V5a1 1 0 0 0-1-1zm0 7a1 1 0 0 0-1 1v.01a1 1 0 0 0 1 1 1 1 0 0 0 1-1V12a1 1 0 0 0-1-1zm-6 4a1 1 0 0 0-1 1v.01a1 1 0 0 0 1 1 1 1 0 0 0 1-1V16a1 1 0 0 0-1-1zm12 0a1 1 0 0 0-1 1v.01a1 1 0 0 0 1 1 1 1 0 0 0 1-1V16a1 1 0 0 0-1-1zm-7 1 .01.338-.076.043c.01-.133.066-.244.066-.381z"/></svg>