<svg xmlns="http://www.w3.org/2000/svg" width="24" height="24" viewBox="0 0 24 24"><path d="M7 2C5.355 2 4 3.355 4 5v14c0 1.645 1.355 3 3 3h2.5a1 1 0 0 0 1-1 1 1 0 0 0-1-1H7c-.564 0-1-.436-1-1V5c0-.564.436-1 1-1h6v3c0 1.093.907 2 2 2h3v5a1 1 0 0 0 1 1 1 1 0 0 0 1-1V8a1 1 0 0 0-.074-.375l-.008-.016a1 1 0 0 0-.207-.31l-.004-.006-.033-.031-4.936-4.936-.037-.037a1 1 0 0 0-.31-.207l-.016-.008A1 1 0 0 0 14 2zm8 3.414L16.586 7H15zm4.924 10.59c-.778 0-1.555.284-2.154.855l-.002.002-.008.006-.76.74-.764-.742-.033-.023a3.1 3.1 0 0 0-2.13-.836c-.778 0-1.556.284-2.155.855-1.213 1.153-1.212 3.12-.002 4.274 1.106 1.064 2.785 1.034 3.984.13l.094.096.008-.007h.002v-.002l.03-.028.196-.191.143-.137.057-.055.029-.029.006-.004v-.002l.004-.002v-.002l.531-.511.52.502.011.011.012.01.002.004.002.002.02.017.07.07.127.124h.002v.002c.087.084.136.128.173.164l.028.027.017.018.006.006.01.01.094-.094c1.198.904 2.878.935 3.986-.131a2.97 2.97 0 0 0-.002-4.274 3.1 3.1 0 0 0-2.154-.855zm-5.854 1.99c.277 0 .555.106.776.317l.04.029.677.66-.483.467-.002-.002-.004.006-.002.002-.002.002-.029.027-.2.191-.003.004a1.126 1.126 0 0 1-1.537-.002l-.004-.006a.935.935 0 0 1 0-1.378c.22-.21.496-.317.773-.317zm5.856 0c.277 0 .553.104.773.315a.935.935 0 0 1 0 1.378l-.004.006a1.13 1.13 0 0 1-1.539 0h-.002v-.002l-.195-.189-.021-.02-.004-.003-.004-.004-.004-.004-.018-.016-.047-.043-.425-.412.699-.68.015-.011c.22-.21.499-.315.776-.315z"/></svg>