<svg xmlns="http://www.w3.org/2000/svg" width="24" height="24" viewBox="0 0 24 24"><path d="M7 2C5.355 2 4 3.355 4 5v7a1 1 0 0 0 1 1 1 1 0 0 0 1-1V5c0-.564.436-1 1-1h6v3c0 1.093.907 2 2 2h3v3a1 1 0 0 0 1 1 1 1 0 0 0 1-1V8a1 1 0 0 0-.074-.375l-.008-.016a1 1 0 0 0-.211-.316l-4.969-4.967a1 1 0 0 0-.347-.244l-.016-.008A1 1 0 0 0 14 2zm8 3.414L16.586 7H15zM5 14c-1.093 0-2 .907-2 2v1c0 1.093.907 2 2 2h1v1H4.951A1 1 0 0 0 4 19.25a1 1 0 0 0-1 1c0 .955.795 1.75 1.75 1.75H6c1.093 0 2-.907 2-2v-1c0-1.093-.907-2-2-2H5v-1h1.104a1 1 0 0 0 .896.75 1 1 0 0 0 1-1C8 14.795 7.205 14 6.25 14zm14 0c-1.645 0-3 1.355-3 3v2c0 1.645 1.355 3 3 3h1a1 1 0 0 0 1-1v-3a1 1 0 0 0-1-1 1 1 0 0 0-1 1v2c-.564 0-1-.436-1-1v-2c0-.564.436-1 1-1h1a1 1 0 0 0 1-1 1 1 0 0 0-1-1zm-9.06.002a1 1 0 0 0-.256.049 1 1 0 0 0-.633 1.265l2 6a1 1 0 0 0 1.898 0l2-6a1 1 0 0 0-.633-1.265 1 1 0 0 0-1.265.633L12 17.836l-1.05-3.152a1 1 0 0 0-1.01-.682z"/></svg>