<svg xmlns="http://www.w3.org/2000/svg" width="24" height="24" viewBox="0 0 24 24"><path d="M7 2C5.355 2 4 3.355 4 5v6a1 1 0 0 0 1 1 1 1 0 0 0 1-1V5c0-.564.436-1 1-1h6v3c0 1.093.907 2 2 2h3v10c0 .564-.436 1-1 1h-2.5a1 1 0 0 0-1 1 1 1 0 0 0 1 1H17c1.645 0 3-1.355 3-3V8a1 1 0 0 0-.074-.375l-.008-.016a1 1 0 0 0-.207-.31l-.004-.006-.033-.031-4.936-4.936-.037-.037a1 1 0 0 0-.31-.207l-.016-.008A1 1 0 0 0 14 2zm8 3.414L16.586 7H15zM4 13c-1.093 0-2 .907-2 2v3c0 1.093.907 2 2 2h1q.218-.001.424-.047l1.72 2.666.008.014c.542.812 1.556 1.086 2.356.844S11 22.443 11 21.467V20h1c.63 0 1.226-.222 1.66-.807.478-.642.334-1.357.213-1.765a1 1 0 0 0-.031-.086l-1.2-3A2.01 2.01 0 0 0 10.757 13H7c-.363 0-.704.102-1 .275A1.97 1.97 0 0 0 5 13zm0 2h1v3H4zm3 0h3.756l.03.084L11.952 18H10a1 1 0 0 0-1 1v2.467c0 .112-.013.078-.07.096-.056.017-.053.046-.112-.042h-.002L7 18.705z"/></svg>