<svg xmlns="http://www.w3.org/2000/svg" width="24" height="24" viewBox="0 0 24 24"><path d="M7 2C5.355 2 4 3.355 4 5v14c0 1.645 1.355 3 3 3h10c1.645 0 3-1.355 3-3V8a1 1 0 0 0-.074-.375l-.008-.016a1 1 0 0 0-.211-.316l-4.969-4.967a1 1 0 0 0-.347-.244l-.016-.008A1 1 0 0 0 14 2zm0 2h6v3c0 1.093.907 2 2 2h3v10c0 .564-.436 1-1 1H7c-.564 0-1-.436-1-1V5c0-.564.436-1 1-1zm8 1.414L16.586 7H15zm-3.2 3.629c-.502 0-1.005.242-1.247.728v.002l-.854 1.723-1.902.275c-1.082.15-1.559 1.616-.774 2.375L8.4 15.484l-.326 1.891-.002.012C7.9 18.455 9.13 19.34 10.09 18.842l.002-.002 1.709-.895 1.703.893c.963.51 2.205-.39 2.02-1.465l.001.002-.326-1.89 1.38-1.34.001-.002c.778-.76.304-2.215-.771-2.372h-.002l-1.907-.275-.853-1.723v-.002c-.242-.486-.744-.728-1.246-.728zm0 2.719.542 1.092a1 1 0 0 0 .752.546l1.2.174-.866.842a1 1 0 0 0-.29.887l.206 1.193-1.08-.564a1 1 0 0 0-.928 0l-1.08.566.205-1.195a1 1 0 0 0-.29-.887l-.866-.842 1.2-.174a1 1 0 0 0 .755-.546z"/></svg>