<svg xmlns="http://www.w3.org/2000/svg" width="24" height="24" viewBox="0 0 24 24"><path d="M7 2C5.355 2 4 3.355 4 5v7a1 1 0 0 0 1 1 1 1 0 0 0 1-1V5c0-.564.436-1 1-1h6v3c0 1.093.907 2 2 2h3v3a1 1 0 0 0 1 1 1 1 0 0 0 1-1V8a1 1 0 0 0-.074-.375l-.008-.016a1 1 0 0 0-.211-.316l-4.969-4.967a1 1 0 0 0-.347-.244l-.016-.008A1 1 0 0 0 14 2zm8 3.414L16.586 7H15zM19 14a1 1 0 0 0-1 1v6a1 1 0 0 0 1 1h3a1 1 0 0 0 1-1 1 1 0 0 0-1-1h-2v-5a1 1 0 0 0-1-1zm-15.064.002a1 1 0 0 0-.49.166 1 1 0 0 0-.278 1.387L4.798 18l-1.63 2.445a1 1 0 0 0 .277 1.387 1 1 0 0 0 1.387-.277L6 19.803l1.168 1.752a1 1 0 0 0 1.387.277 1 1 0 0 0 .277-1.387L7.202 18l1.63-2.445a1 1 0 0 0-.277-1.387 1 1 0 0 0-1.387.277L6 16.197l-1.168-1.752a1 1 0 0 0-.637-.425 1 1 0 0 0-.26-.018zm12.003 0a1 1 0 0 0-.707.357L13.5 16.438l-1.732-2.079a1 1 0 0 0-1.108-.298A1 1 0 0 0 10 15v6a1 1 0 0 0 1 1 1 1 0 0 0 1-1v-3.238l.732.879a1 1 0 0 0 1.536 0l.732-.88V21a1 1 0 0 0 1 1 1 1 0 0 0 1-1v-6a1 1 0 0 0-1.06-.998z"/></svg>