<svg xmlns="http://www.w3.org/2000/svg" width="24" height="24" viewBox="0 0 24 24"><path d="M7 2C5.355 2 4 3.355 4 5v7a1 1 0 0 0 1 1 1 1 0 0 0 1-1V5c0-.564.436-1 1-1h6v3c0 1.093.907 2 2 2h3v3a1 1 0 0 0 1 1 1 1 0 0 0 1-1V8a1 1 0 0 0-.074-.375l-.008-.016a1 1 0 0 0-.211-.316l-4.969-4.967a1 1 0 0 0-.347-.244l-.016-.008A1 1 0 0 0 14 2zm8 3.414L16.586 7H15zM5 14a1 1 0 0 0-1 1v6a1 1 0 0 0 1 1 1 1 0 0 0 1-1v-2h.5c.75 0 1.44-.317 1.873-.805A2.53 2.53 0 0 0 9 16.5c0-.597-.194-1.208-.627-1.695S7.25 14 6.5 14zm6 0a1 1 0 0 0-1 1v6a1 1 0 0 0 1 1 1 1 0 0 0 1-1v-2h1v2a1 1 0 0 0 1 1 1 1 0 0 0 1-1v-6a1 1 0 0 0-1-1 1 1 0 0 0-1 1v2h-1v-2a1 1 0 0 0-1-1zm6 0a1 1 0 0 0-1 1v6a1 1 0 0 0 1 1 1 1 0 0 0 1-1v-2h.5c.75 0 1.44-.317 1.873-.805A2.53 2.53 0 0 0 21 16.5c0-.597-.194-1.208-.627-1.695S19.25 14 18.5 14zM6 16h.5c.25 0 .31.058.377.133A.58.58 0 0 1 7 16.5a.58.58 0 0 1-.123.367C6.81 16.942 6.75 17 6.5 17H6zm12 0h.5c.25 0 .31.058.377.133A.58.58 0 0 1 19 16.5a.58.58 0 0 1-.123.367c-.067.075-.127.133-.377.133H18z"/></svg>