<svg xmlns="http://www.w3.org/2000/svg" width="24" height="24" viewBox="0 0 24 24"><path d="M7 2C5.355 2 4 3.355 4 5v14c0 1.645 1.355 3 3 3h10c1.645 0 3-1.355 3-3V8a1 1 0 0 0-.074-.375l-.008-.016a1 1 0 0 0-.211-.316l-4.969-4.967a1 1 0 0 0-.347-.244l-.016-.008A1 1 0 0 0 14 2zm0 2h6v3c0 1.093.907 2 2 2h3v10c0 .564-.436 1-1 1H7c-.564 0-1-.436-1-1V5c0-.564.436-1 1-1zm8 1.414L16.586 7H15zM12 9c-1.222 0-2.458.402-3.414 1.252S7 12.417 7 14s.63 2.898 1.586 3.748S10.778 19 12 19s2.458-.402 3.414-1.252S17 15.583 17 14s-.63-2.898-1.586-3.748S13.222 9 12 9zm0 2c.778 0 1.542.265 2.086.748S15 12.917 15 14s-.37 1.769-.914 2.252S12.778 17 12 17s-1.542-.265-2.086-.748S9 15.083 9 14s.37-1.769.914-2.252S11.222 11 12 11zm0 .496a1 1 0 0 0-1 1V14a1 1 0 0 0 .293.707l1 1a1 1 0 0 0 1.414 0 1 1 0 0 0 0-1.414L13 13.586v-1.09a1 1 0 0 0-1-1z"/></svg>