<svg xmlns="http://www.w3.org/2000/svg" width="24" height="24" viewBox="0 0 24 24"><path d="M7 2C5.355 2 4 3.355 4 5v14c0 1.645 1.355 3 3 3h10c1.645 0 3-1.355 3-3V8a1 1 0 0 0-.074-.375l-.008-.016a1 1 0 0 0-.211-.316l-4.969-4.967a1 1 0 0 0-.347-.244l-.016-.008A1 1 0 0 0 14 2zm0 2h6v3c0 1.093.907 2 2 2h3v10c0 .564-.436 1-1 1H7c-.564 0-1-.436-1-1V5c0-.564.436-1 1-1zm8 1.414L16.586 7H15zm-1.875 4.59q-.361-.009-.71.047c-1.547.243-2.88 1.393-3.288 2.949H9a1 1 0 0 0-1 1 1 1 0 0 0 1 1h.125c.571 2.181 2.962 3.567 5.209 2.771a1 1 0 0 0 .61-1.277 1 1 0 0 0-1.278-.61c-.98.348-1.964-.073-2.414-.884H12a1 1 0 0 0 1-1 1 1 0 0 0-1-1h-.748c.45-.81 1.434-1.232 2.414-.885a1 1 0 0 0 1.277-.61 1 1 0 0 0-.609-1.276 3.9 3.9 0 0 0-1.209-.225z"/></svg>