<svg xmlns="http://www.w3.org/2000/svg" width="24" height="24" viewBox="0 0 24 24"><path d="M4 3a1 1 0 0 0-1 1v2.227a3 3 0 0 0 .78 2.017L8 12.887V21a1 1 0 0 0 1.316.95l3.705-1.237a1 1 0 0 0 .633-1.264 1 1 0 0 0-1.265-.633L10 19.611V12.5a1 1 0 0 0-.26-.672l-4.48-4.93A1 1 0 0 1 5 6.227V5h14v1.172c0 .265-.105.52-.293.707l-4.414 4.414A1 1 0 0 0 14 12v.5a1 1 0 0 0 1 1 1 1 0 0 0 1-1v-.086l4.121-4.121A3 3 0 0 0 21 6.172V4a1 1 0 0 0-1-1zm12 12a1 1 0 0 0-1 1v.01a1 1 0 0 0 1 1 1 1 0 0 0 1-1V16a1 1 0 0 0-1-1zm5 0a1 1 0 0 0-.707.293l-5 5a1 1 0 0 0 0 1.414 1 1 0 0 0 1.414 0l5-5a1 1 0 0 0 0-1.414A1 1 0 0 0 21 15zm0 5a1 1 0 0 0-1 1v.01a1 1 0 0 0 1 1 1 1 0 0 0 1-1V21a1 1 0 0 0-1-1z"/></svg>