<svg xmlns="http://www.w3.org/2000/svg" width="24" height="24" viewBox="0 0 24 24"><path d="M11.871 1.982c-4.64.1-8.885 3.852-8.871 9.02v.965a23 23 0 0 0 .941 7.318 1 1 0 0 0 1.245.674 1 1 0 0 0 .673-1.244A21 21 0 0 1 5 12.033v-1.035c-.015-5.445 5.784-8.805 10.5-6.082a1 1 0 0 0 1.365-.365 1 1 0 0 0-.365-1.367 8.8 8.8 0 0 0-4.629-1.202zM12 6c-1.222 0-2.458.402-3.414 1.252S7 9.417 7 11a1 1 0 0 0 1 1 1 1 0 0 0 1-1c0-1.083.37-1.769.914-2.252S11.222 8 12 8s1.542.265 2.086.748S15 9.917 15 11v1c0 2.38.771 4.696 2.2 6.6a1 1 0 0 0 1.4.2 1 1 0 0 0 .2-1.4A9 9 0 0 1 17 12v-1c0-1.583-.63-2.898-1.586-3.748S13.222 6 12 6zm6.883 0a1 1 0 0 0-.498.143 1 1 0 0 0-.342 1.373 7 7 0 0 1 .963 4.375A1 1 0 0 0 19 12v1a7 7 0 0 0 .934 3.498 1 1 0 0 0 1.365.37 1 1 0 0 0 .367-1.366 5 5 0 0 1-.666-2.5v-.957a9 9 0 0 0-1.244-5.56A1 1 0 0 0 18.883 6zM12 10a1 1 0 0 0-1 1v2a15 15 0 0 0 2.678 8.57 1 1 0 0 0 1.392.252 1 1 0 0 0 .252-1.392A13 13 0 0 1 13 13.002V11a1 1 0 0 0-1-1zm-4.117 4.006a1 1 0 0 0-.877 1.111 19 19 0 0 0 1.9 6.332 1 1 0 0 0 1.344.444 1 1 0 0 0 .443-1.342 17 17 0 0 1-1.699-5.668 1 1 0 0 0-1.111-.877z"/></svg>