<svg xmlns="http://www.w3.org/2000/svg" width="24" height="24" viewBox="0 0 24 24"><path d="M21.07 2.002a1 1 0 0 0-.386.049l-18 6a1 1 0 0 0-.633 1.265 1 1 0 0 0 1.265.633L5 9.39V11H3a1 1 0 0 0-1 1v5c0 .917.38 1.731.96 2.248A3.05 3.05 0 0 0 5 20a3.05 3.05 0 0 0 2.04-.752A3 3 0 0 0 7.282 19h7.434q.114.134.244.248A3.05 3.05 0 0 0 17 20a3.05 3.05 0 0 0 2.04-.752 3 3 0 0 0 .243-.248H21a1 1 0 0 0 1-1v-6a1 1 0 0 0-.078-.387C21.71 8.5 19.165 6 16 6h-.836l6.152-2.05a1 1 0 0 0 .633-1.266 1 1 0 0 0-.879-.682zM11 7.389V11H7V8.72zM13 8h1.258l1.285 4.287A1 1 0 0 0 16.5 13H20v4c0-.917-.38-1.731-.96-2.248A3.05 3.05 0 0 0 17 14a3.05 3.05 0 0 0-2.04.752c-.58.517-.96 1.331-.96 2.248h-1zm3.365.072c1.692.16 3.018 1.33 3.436 2.928h-2.557zM4 13h7v4H8c0-.917-.38-1.731-.96-2.248A3.05 3.05 0 0 0 5 14a3.2 3.2 0 0 0-1 .158zm1 3c.278 0 .542.098.71.248.17.15.29.335.29.752s-.12.602-.29.752c-.168.15-.432.248-.71.248s-.542-.098-.71-.248C4.12 17.602 4 17.417 4 17s.12-.602.29-.752A1.1 1.1 0 0 1 5 16zm12 0c.278 0 .542.098.71.248.17.15.29.335.29.752s-.12.602-.29.752c-.168.15-.432.248-.71.248s-.542-.098-.71-.248c-.17-.15-.29-.335-.29-.752s.12-.602.29-.752A1.1 1.1 0 0 1 17 16z"/></svg>