<svg xmlns="http://www.w3.org/2000/svg" width="24" height="24" viewBox="0 0 24 24"><path d="M8.5 2.576a5.98 5.98 0 0 0-4.2 1.71A1 1 0 0 0 4 5v16a1 1 0 0 0 1 1 1 1 0 0 0 1-1v-6.553l.002-.002a3.987 3.987 0 0 1 5.299.27l.002.002a5.9 5.9 0 0 0 1.804 1.203 1 1 0 0 0 1.313-.527 1 1 0 0 0-.527-1.313 3.9 3.9 0 0 1-1.194-.795l-.002-.002C10.875 11.5 8.2 11.164 6 12.178v-6.66c1.566-1.28 3.827-1.248 5.3.197C13.124 7.5 15.8 7.836 18 6.822V11a1 1 0 0 0 1 1 1 1 0 0 0 1-1V5a1 1 0 0 0-1.7-.715 3.987 3.987 0 0 1-5.6 0 5.98 5.98 0 0 0-4.2-1.709zm10.54 11.426a3 3 0 0 0-2.304 1.053 1 1 0 0 0 .118 1.41 1 1 0 0 0 1.41-.117.97.97 0 0 1 1.193-.24c.53.275.617.69.512 1.124-.106.436-.372.766-.973.768A1 1 0 0 0 18 19.004a1 1 0 0 0 1.004.996c1.495-.005 2.615-1.084 2.908-2.297s-.211-2.686-1.539-3.373l-.004-.002a2.96 2.96 0 0 0-1.33-.326zM19 21a1 1 0 0 0-1 1v.01a1 1 0 0 0 1 1 1 1 0 0 0 1-1V22a1 1 0 0 0-1-1z"/></svg>