<svg xmlns="http://www.w3.org/2000/svg" width="24" height="24" viewBox="0 0 24 24"><path d="M8.5 2.576a5.98 5.98 0 0 0-4.2 1.71A1 1 0 0 0 4 5v16a1 1 0 0 0 1 1 1 1 0 0 0 1-1v-6.553l.002-.002a3.987 3.987 0 0 1 5.299.27 6 6 0 0 0 2.566 1.488 1 1 0 0 0 1.233-.691 1 1 0 0 0-.69-1.233 4 4 0 0 1-1.709-.992l-.002-.002C10.877 11.5 8.201 11.164 6 12.178v-6.66c1.566-1.28 3.827-1.248 5.3.197C13.124 7.5 15.8 7.836 18 6.822V12a1 1 0 0 0 1 1 1 1 0 0 0 1-1V5a1 1 0 0 0-1.7-.715 3.987 3.987 0 0 1-5.6 0 5.98 5.98 0 0 0-4.2-1.709zM19 15a1 1 0 0 0-.246.033l-.055.02a1 1 0 0 0-.168.07 1 1 0 0 0-.08.049 1 1 0 0 0-.117.09l-.041.031-3 3a1 1 0 0 0 0 1.414 1 1 0 0 0 1.414 0L18 18.414V22a1 1 0 0 0 1 1 1 1 0 0 0 1-1v-3.586l1.293 1.293a1 1 0 0 0 1.414 0 1 1 0 0 0 0-1.414l-2.97-2.97-.03-.03a1 1 0 0 0-.207-.158 1 1 0 0 0-.242-.1A1 1 0 0 0 19 15z"/></svg>