<svg xmlns="http://www.w3.org/2000/svg" width="24" height="24" viewBox="0 0 24 24"><path d="M5 3C3.355 3 2 4.355 2 6v11c0 1.447 1.118 2.514 2.49 2.787a1 1 0 0 0 .158.149 1 1 0 0 0 .094-.043c.098.01.158.107.258.107h14.025a3.01 3.01 0 0 0 2.948-2.437l.996-5.211.004-.024c.133-.804-.338-1.436-.973-1.857V9c0-1.645-1.355-3-3-3h-6.586L9.707 3.293A1 1 0 0 0 9 3zm0 2h3.586l2.707 2.707A1 1 0 0 0 12 8h7c.564 0 1 .436 1 1v1H8.693c-.83 0-1.581.521-1.873 1.299l-2.422 6.457C4.168 17.575 4 17.326 4 17V6c0-.564.436-1 1-1zm3.693 7H21l-.992 5.188a.99.99 0 0 1-.983.812H6.443z"/></svg>