<svg xmlns="http://www.w3.org/2000/svg" width="24" height="24" viewBox="0 0 24 24"><path d="M5 3C3.355 3 2 4.355 2 6v11c0 1.645 1.355 3 3 3h10a1 1 0 0 0 1-1 1 1 0 0 0-1-1H5c-.564 0-1-.436-1-1V6c0-.564.436-1 1-1h3.586l2.707 2.707A1 1 0 0 0 12 8h7c.564 0 1 .436 1 1v2.5a1 1 0 0 0 1 1 1 1 0 0 0 1-1V9c0-1.645-1.355-3-3-3h-6.586L9.707 3.293A1 1 0 0 0 9 3zm14.04 11.002a3 3 0 0 0-2.304 1.053 1 1 0 0 0 .118 1.41 1 1 0 0 0 1.41-.117.97.97 0 0 1 1.193-.24c.53.275.617.69.512 1.124-.106.436-.372.766-.973.768A1 1 0 0 0 18 19.004a1 1 0 0 0 1.004.996c1.495-.005 2.615-1.084 2.908-2.297s-.211-2.686-1.539-3.373l-.004-.002a2.96 2.96 0 0 0-1.33-.326zM19 21a1 1 0 0 0-1 1v.01a1 1 0 0 0 1 1 1 1 0 0 0 1-1V22a1 1 0 0 0-1-1z"/></svg>