<svg xmlns="http://www.w3.org/2000/svg" width="24" height="24" viewBox="0 0 24 24"><path d="M5 3C3.355 3 2 4.355 2 6v11c0 1.645 1.355 3 3 3h8.5a1 1 0 0 0 1-1 1 1 0 0 0-1-1H5c-.564 0-1-.436-1-1V6c0-.564.436-1 1-1h3.586l2.707 2.707A1 1 0 0 0 12 8h7c.564 0 1 .436 1 1v4a1 1 0 0 0 1 1 1 1 0 0 0 1-1V9c0-1.645-1.355-3-3-3h-6.586L9.707 3.293A1 1 0 0 0 9 3zm12 13a1 1 0 0 0-.707.293 1 1 0 0 0 0 1.414l1.793 1.793-1.793 1.793a1 1 0 0 0 0 1.414 1 1 0 0 0 1.414 0l1.793-1.793 1.793 1.793a1 1 0 0 0 1.414 0 1 1 0 0 0 0-1.414L20.914 19.5l1.793-1.793a1 1 0 0 0 0-1.414 1 1 0 0 0-1.414 0L19.5 18.086l-1.793-1.793A1 1 0 0 0 17 16z"/></svg>