<svg xmlns="http://www.w3.org/2000/svg" width="24" height="24" viewBox="0 0 24 24"><path d="M5 3C3.355 3 2 4.355 2 6v11c0 1.645 1.355 3 3 3h8.5a1 1 0 0 0 1-1 1 1 0 0 0-1-1H5c-.564 0-1-.436-1-1V6c0-.564.436-1 1-1h3.586l2.707 2.707A1 1 0 0 0 12 8h7c.564 0 1 .436 1 1v1.5a1 1 0 0 0 1 1 1 1 0 0 0 1-1V9c0-1.645-1.355-3-3-3h-6.586L9.707 3.293A1 1 0 0 0 9 3zm14 10a1 1 0 0 0-1 1v.049a2.46 2.46 0 0 0-1.373.756A2.53 2.53 0 0 0 16 16.5c0 .597.194 1.208.627 1.695S17.75 19 18.5 19h1c.25 0 .31.058.377.133A.58.58 0 0 1 20 19.5a.58.58 0 0 1-.123.367c-.067.075-.127.133-.377.133H17a1 1 0 0 0-1 1 1 1 0 0 0 1 1h1a1 1 0 0 0 1 1 1 1 0 0 0 1-1v-.049a2.46 2.46 0 0 0 1.373-.756A2.53 2.53 0 0 0 22 19.5c0-.597-.194-1.208-.627-1.695S20.25 17 19.5 17h-1c-.25 0-.31-.058-.377-.133A.58.58 0 0 1 18 16.5a.58.58 0 0 1 .123-.367c.067-.075.127-.133.377-.133H21a1 1 0 0 0 1-1 1 1 0 0 0-1-1h-1a1 1 0 0 0-1-1z"/></svg>