<svg xmlns="http://www.w3.org/2000/svg" width="24" height="24" viewBox="0 0 24 24"><path d="M6.994 2c-1.079 0-2 .916-2 2v16c0 .9.615 1.648 1.35 1.904.735.257 1.681.056 2.242-.648l.002-.004 4.14-5.244q.008-.009.012-.008h2.248a2.025 2.025 0 0 0 1.987-1.611v-.002l1.982-9.854C19.215 3.296 18.364 2 17 2zm0 2H17c-.076 0 .005.096-.002.127v.006L16.218 8H12a1 1 0 0 0-1 1 1 1 0 0 0 1 1h3.816l-.802 3.988c-.003.013-.001.012-.014.012h-2.26a2.02 2.02 0 0 0-1.574.758l-.004.004-4.144 5.25c-.007.011.001.009-.014.004-.02-.007-.01.047-.01-.016z"/></svg>