<svg xmlns="http://www.w3.org/2000/svg" width="24" height="24" viewBox="0 0 24 24"><path d="M2 3a1 1 0 0 0-1 1 1 1 0 0 0 1 1h1.322v.002L5 9.193V19c0 .908.635 1.657 1.379 1.9.743.244 1.695.016 2.232-.716l.004-.006 3.442-4.744 2.41.252A3.66 3.66 0 0 0 14 17.5c0 1.083.442 2.023 1.117 2.623S16.653 21 17.5 21s1.708-.277 2.383-.877S21 18.583 21 17.5s-.442-2.023-1.117-2.623a3.4 3.4 0 0 0-.914-.578l2.926-5.852A1 1 0 0 0 21 7H6.277L5.18 4.26v-.002A2.01 2.01 0 0 0 3.324 3zm5.078 6h12.305l-2.467 4.934-6.412-.676a2.99 2.99 0 0 1-2.47-1.87zM7 13.5a5 5 0 0 0 2.783 1.664L7 18.998zM17.5 16c.403 0 .792.14 1.055.373S19 16.917 19 17.5s-.183.894-.445 1.127c-.263.233-.652.373-1.055.373s-.792-.14-1.055-.373S16 18.083 16 17.5s.183-.894.445-1.127c.263-.233.652-.373 1.055-.373z"/></svg>