<svg xmlns="http://www.w3.org/2000/svg" width="24" height="24" viewBox="0 0 24 24"><path d="M11.92 1.969q-.59.006-1.19.086a10.2 10.2 0 0 0-3.207 1.002 1 1 0 0 0-.447 1.341 1 1 0 0 0 1.344.446c3.496-1.753 6.981-.77 9.248 1.504s3.239 5.763 1.477 9.254a1 1 0 0 0 .443 1.343 1 1 0 0 0 1.344-.443c2.145-4.25.96-8.752-1.846-11.566-1.841-1.847-4.413-2.997-7.166-2.967zM3 2a1 1 0 0 0-.707.293 1 1 0 0 0 0 1.414l1.965 1.965c-3.21 3.923-2.983 9.74.676 13.398 3.657 3.657 9.474 3.881 13.396.674l1.963 1.963a1 1 0 0 0 1.414 0 1 1 0 0 0 0-1.414l-2.6-2.6-.033-.039-.017-.011-9.768-9.768a1 1 0 0 0-.105-.127 1 1 0 0 0-.096-.074l-2.73-2.73-.018-.018-2.633-2.633A1 1 0 0 0 3 2zm9 4q-.555 0-1.086.098a1 1 0 0 0-.803 1.164 1 1 0 0 0 1.164.804Q11.627 8.001 12 8a1 1 0 0 0 1-1 1 1 0 0 0-1-1zm4 1a1 1 0 0 0-.707.293l-2 2a1 1 0 0 0 0 1.414 1 1 0 0 0 1.414 0l2-2a1 1 0 0 0 0-1.414A1 1 0 0 0 16 7zm-10.316.098L7.11 8.525A6 6 0 0 0 6 12a1 1 0 0 0 1 1 1 1 0 0 0 1-1c0-.746.2-1.439.553-2.033l1.504 1.504a1.9 1.9 0 0 0-.078.646c.032.526.268.978.603 1.31.335.334.789.567 1.314.596a1.9 1.9 0 0 0 .633-.08l4.375 4.375a7.98 7.98 0 0 1-10.556-.662 7.98 7.98 0 0 1-.664-10.558z"/></svg>