<svg xmlns="http://www.w3.org/2000/svg" width="24" height="24" viewBox="0 0 24 24"><path d="M15 2a1 1 0 0 0-1 1 1 1 0 0 0 1 1h1.586l-2.79 2.79A5.24 5.24 0 0 0 11 6c-1.222 0-2.458.402-3.414 1.252S6 9.417 6 11s.63 2.898 1.586 3.748c.697.62 1.543 1 2.424 1.162A1 1 0 0 0 10 16v2H8a1 1 0 0 0-1 1 1 1 0 0 0 1 1h2v2a1 1 0 0 0 1 1 1 1 0 0 0 1-1v-2h2a1 1 0 0 0 1-1 1 1 0 0 0-1-1h-2v-2a1 1 0 0 0-.006-.092 5 5 0 0 0 2.42-1.16C15.37 13.898 16 12.583 16 11c0-1.08-.293-2.035-.783-2.803L18 5.414V7a1 1 0 0 0 1 1 1 1 0 0 0 1-1V3l-.002-.018a1 1 0 0 0-.023-.205l-.002-.006a1 1 0 0 0-.073-.205l-.004-.007a1 1 0 0 0-.115-.182 1 1 0 0 0-.074-.084l-.041-.031a1 1 0 0 0-.117-.09 1 1 0 0 0-.08-.049 1 1 0 0 0-.168-.07l-.055-.02A1 1 0 0 0 19 2zm-4 6c.778 0 1.542.265 2.086.748S14 9.917 14 11s-.37 1.769-.914 2.252S11.778 14 11 14s-1.542-.265-2.086-.748S8 12.083 8 11s.37-1.769.914-2.252S10.222 8 11 8z"/></svg>