<svg xmlns="http://www.w3.org/2000/svg" width="24" height="24" viewBox="0 0 24 24"><path d="M14 4a1 1 0 0 0-1 1 1 1 0 0 0 1 1h2.586l-3.059 3.059C12.482 8.346 11.237 8 10 8c-1.472 0-2.958.485-4.102 1.502C4.755 10.519 4 12.083 4 14c0 3.302 2.698 6 6 6s6-2.698 6-6c0-1.388-.398-2.59-1.05-3.535l4.757-4.758a1 1 0 0 0 .074-.084l.002-.002a1 1 0 0 0 .113-.18l.004-.007.002-.006a1 1 0 0 0 .07-.2l.003-.005.002-.01a1 1 0 0 0 .021-.195L20 5l-.002-.04v-.007l-.002-.031-.006-.06v-.003a1 1 0 0 0-.017-.088l-.022-.08-.004-.01-.031-.081-.002-.004-.023-.05-.018-.032a1 1 0 0 0-.049-.078l-.015-.024-.04-.05-.01-.012-.052-.057a1 1 0 0 0-.207-.158 1 1 0 0 0-.242-.1A1 1 0 0 0 19 4zm-4 6c1.028 0 2.042.348 2.773.998S14 12.583 14 14c0 2.221-1.779 4-4 4s-4-1.779-4-4c0-1.417.495-2.352 1.227-3.002C7.957 10.348 8.972 10 10 10z"/></svg>