<svg xmlns="http://www.w3.org/2000/svg" width="24" height="24" viewBox="0 0 24 24"><path d="M12 2a1 1 0 0 0-1 1v1.158a2.9 2.9 0 0 0-1.04.594C9.38 5.269 9 6.083 9 7c0 .877.348 1.66.887 2.178l-1.895 5.681a8.4 8.4 0 0 1-3.103-3.318 1 1 0 0 0-1.348-.43 1 1 0 0 0-.43 1.348 10.4 10.4 0 0 0 4.235 4.342L6.05 20.684a1 1 0 0 0 .633 1.265 1 1 0 0 0 1.265-.633l1.246-3.736a9.6 9.6 0 0 0 5.611-.002l1.245 3.738a1 1 0 0 0 1.265.633 1 1 0 0 0 .633-1.265L16.654 16.8a10.4 10.4 0 0 0 4.235-4.342 1 1 0 0 0-.43-1.348 1 1 0 0 0-.762-.064 1 1 0 0 0-.586.494C17.748 14.176 15.01 16 12 16a7.6 7.6 0 0 1-2.172-.32l1.897-5.692a3.3 3.3 0 0 0 .55 0l1.256 3.768a1 1 0 0 0 1.266.63 1 1 0 0 0 .63-1.263l-1.314-3.945C14.652 8.659 15 7.877 15 7c0-.917-.38-1.731-.96-2.248A2.9 2.9 0 0 0 13 4.158V3a1 1 0 0 0-1-1zm0 4c.278 0 .542.098.71.248.17.15.29.335.29.752s-.12.602-.29.752c-.168.15-.432.248-.71.248s-.542-.098-.71-.248C11.12 7.602 11 7.417 11 7s.12-.602.29-.752A1.1 1.1 0 0 1 12 6z"/></svg>