<svg xmlns="http://www.w3.org/2000/svg" width="24" height="24" viewBox="0 0 24 24"><path d="M7.49 2.002c-1.079.003-2.015.442-2.613 1.115C4.277 3.792 4 4.653 4 5.5c0 .51.102 1.024.313 1.5H4c-1.093 0-2 .907-2 2v2c0 1.093.907 2 2 2v6c0 1.645 1.355 3 3 3h10c1.645 0 3-1.355 3-3v-6c1.093 0 2-.907 2-2V9c0-1.093-.907-2-2-2h-.312c.21-.476.312-.99.312-1.5 0-.847-.277-1.708-.877-2.383-.598-.673-1.534-1.112-2.613-1.115-1.324-.02-2.54.644-3.465 1.672-.402.447-.737.993-1.045 1.57-.308-.577-.643-1.123-1.045-1.57-.925-1.028-2.14-1.692-3.465-1.672zM7.5 4h.018c.647-.011 1.307.296 1.95 1.012.44.488.846 1.166 1.169 1.988H7.5c-.583 0-.894-.183-1.127-.445C6.14 6.292 6 5.903 6 5.5s.14-.792.373-1.055S6.917 4 7.5 4zm8.982 0h.018c.583 0 .894.183 1.127.445.233.263.373.652.373 1.055s-.14.792-.373 1.055S17.083 7 16.5 7h-3.137c.323-.822.728-1.5 1.168-1.988.644-.716 1.304-1.023 1.951-1.012zM4 9h7v2H4zm9 0h7v2h-7zm-7 4h5v7H7c-.564 0-1-.436-1-1zm7 0h5v6c0 .564-.436 1-1 1h-4z"/></svg>