<svg xmlns="http://www.w3.org/2000/svg" width="24" height="24" viewBox="0 0 24 24"><path d="M7.482 2C5.566 2 4 3.567 4 5.5A3.5 3.5 0 0 0 4.338 7H4a2 2 0 0 0-2 2v1a2 2 0 0 0 2 2h7V7h2v5h7a2 2 0 0 0 2-2V9a2 2 0 0 0-2-2h-.338A3.5 3.5 0 0 0 16.5 2l-.209.002C14.56 2.063 13.033 3.264 12 5.178l-.137-.244C10.794 3.092 9.237 1.97 7.483 2zM7.5 4c1.194-.02 2.402 1.095 3.143 3H7.5a1.5 1.5 0 0 1 0-3zm8.982 0a1.5 1.5 0 1 1 .018 3h-3.143c.741-1.904 1.945-3.02 3.125-3zM5 14a1 1 0 0 0-1 1v4a3 3 0 0 0 3 3h4v-8zm8 0v8h4a3 3 0 0 0 3-3v-4a1 1 0 0 0-1-1z"/></svg>