<svg xmlns="http://www.w3.org/2000/svg" width="24" height="24" viewBox="0 0 24 24"><path d="M6 4C3.803 4 2 5.803 2 8v8c0 2.197 1.803 4 4 4h12c2.197 0 4-1.803 4-4V8c0-2.197-1.803-4-4-4zm0 2h12c1.116 0 2 .884 2 2v8c0 1.116-.884 2-2 2H6c-1.116 0-2-.884-2-2V8c0-1.116.884-2 2-2zm1.494 3.002A2.5 2.5 0 0 0 5 11.5c0 .902.582 1.508 1.145 1.889.453.306.94.514 1.468.584l-1.32 1.32a1 1 0 0 0 0 1.414 1 1 0 0 0 1.414 0L10 14.414l2.293 2.293a1 1 0 0 0 1.414 0 1 1 0 0 0 0-1.414l-1.32-1.32c.527-.07 1.015-.278 1.468-.584.563-.38 1.145-.987 1.145-1.889a2.5 2.5 0 0 0-2.494-2.498c-.916-.012-1.73.484-2.293 1.168-.101.123-.123.331-.213.467-.09-.136-.112-.344-.213-.467-.563-.684-1.377-1.18-2.293-1.168zM7.5 11h.018c.207-.004.427.08.724.441.093.113.156.397.246.559H8c-.11 0-.496-.105-.736-.268-.211-.142-.254-.27-.262-.25.013-.248.282-.482.498-.482zm4.982 0h.018c.216 0 .485.234.498.482-.008-.02-.051.108-.262.25-.24.163-.625.268-.736.268h-.488c.09-.162.153-.446.246-.559.297-.36.517-.445.724-.441z"/></svg>