<svg xmlns="http://www.w3.org/2000/svg" width="24" height="24" viewBox="0 0 24 24"><path d="M5.588 2.078a2.6 2.6 0 0 0-.451.057 1 1 0 0 0-.649.554c-.482 1.074-.504 2.264-.218 3.395C3.497 7.065 3 8.238 3 9.498V9.5c0 2.496.784 4.277 2.045 5.37.878.76 1.92 1.109 2.975 1.343-.002.008-.013.015-.014.023-.092.478-.056.91-.006 1.32v.557c-.458.068-.984.188-1.242.116-.401-.113-.68-.33-.979-.672-.298-.343-.576-.804-.925-1.276s-.81-1.016-1.573-1.24a1 1 0 0 0-1.24.678 1 1 0 0 0 .678 1.24c.087.026.264.155.527.512.264.356.572.879 1.024 1.398.451.52 1.087 1.044 1.949 1.285.496.14 1.173-.052 1.781-.117V21a1 1 0 0 0 1 1 1 1 0 0 0 1-1v-3.5a1 1 0 0 0-.008-.125c-.046-.37-.051-.616-.023-.762.028-.145.056-.224.238-.406a1 1 0 0 0-.6-1.701c-1.305-.14-2.463-.466-3.252-1.149S5 11.604 5 9.5a3.6 3.6 0 0 1 1.018-2.504 1 1 0 0 0 .218-1.049c-.207-.551-.053-1.13.053-1.699.447.12 1.061.32 2.057.984a1 1 0 0 0 .806.135 11.3 11.3 0 0 1 5.696 0 1 1 0 0 0 .806-.135c.996-.663 1.61-.864 2.057-.984.106.57.26 1.148.053 1.7a1 1 0 0 0 .218 1.048A3.6 3.6 0 0 1 19 9.502c0 2.103-.567 3.173-1.355 3.855-.79.683-1.947 1.009-3.252 1.149a1 1 0 0 0-.6 1.701c.202.202.175.184.195.307.02.122.012.453.012.986V21a1 1 0 0 0 1 1 1 1 0 0 0 1-1v-3.5c0-.456.033-.822-.04-1.283 1.062-.234 2.111-.583 2.995-1.348C20.216 13.777 21 11.996 21 9.5v-.002c-.001-1.26-.497-2.433-1.27-3.414.286-1.13.264-2.32-.218-3.395a1 1 0 0 0-.649-.554s-.229-.052-.45-.057a3.8 3.8 0 0 0-.876.094c-.624.136-1.547.575-2.59 1.209a13.25 13.25 0 0 0-5.894 0c-1.043-.634-1.966-1.073-2.59-1.21a3.8 3.8 0 0 0-.875-.093z"/></svg>