<svg xmlns="http://www.w3.org/2000/svg" width="24" height="24" viewBox="0 0 24 24"><path d="M12 2c-.472 0-.958.152-1.352.502-.206.183-.226.512-.34.785A1 1 0 0 0 10 4a1 1 0 0 0 .309.713c.113.273.133.602.34.785q.166.146.351.248v7.229l-6.129 4.213A2.1 2.1 0 0 0 4 17c-.472 0-.958.152-1.352.502-.206.183-.226.512-.34.785A1 1 0 0 0 2 19a1 1 0 0 0 .309.713c.113.273.133.602.34.785.393.35.879.502 1.351.502s.958-.152 1.352-.502C5.745 20.148 6 19.583 6 19a2 2 0 0 0-.008-.156L12 14.713l6.016 4.137A1 1 0 0 0 18 19a1 1 0 0 0 .309.713c.113.273.133.602.34.785.393.35.879.502 1.351.502s.958-.152 1.352-.502c.393-.35.648-.915.648-1.498s-.255-1.148-.648-1.498A2.02 2.02 0 0 0 20 17c-.294 0-.592.059-.871.188L13 12.974V5.746q.185-.101.352-.248C13.745 5.148 14 4.583 14 4s-.255-1.148-.648-1.498A2.02 2.02 0 0 0 12 2z"/></svg>