<svg xmlns="http://www.w3.org/2000/svg" width="24" height="24" viewBox="0 0 24 24"><path d="M11.588 7.994a4 4 0 0 0-.932.104 4.75 4.75 0 0 0-2.271 1.271c-1.604 1.59-1.918 4.129-.389 5.647h.002c1.53 1.515 4.06 1.205 5.664-.381q.336-.33.598-.717c.163.398.404.769.728 1.094 1.52 1.518 4.047 1.207 5.639-.383l.002-.002c1.59-1.592 1.901-4.119.383-5.639-.76-.759-1.772-1.061-2.793-.974s-2.05.562-2.846 1.357l-.002.002a4.8 4.8 0 0 0-1.086 1.672A1 1 0 0 0 14 11h-2.428a1 1 0 0 0-1 1 1 1 0 0 0 1 1h.803c-.051.06-.054.15-.111.205l-.006.006c-.962.954-2.242.985-2.852.383-.607-.605-.576-1.85.387-2.805.785-.778 1.837-.937 2.47-.646a1 1 0 0 0 1.327-.493 1 1 0 0 0-.492-1.326 3.7 3.7 0 0 0-1.51-.33zM4 8a1 1 0 0 0-1 1 1 1 0 0 0 1 1h2a1 1 0 0 0 1-1 1 1 0 0 0-1-1zm14.512 2.002c.433-.004.822.137 1.086.4.6.602.568 1.857-.383 2.81h-.002v.003c-.954.951-2.209.984-2.81.383-.602-.603-.57-1.858.384-2.813.477-.475 1.03-.721 1.537-.773q.096-.01.188-.01zM2 11a1 1 0 0 0-1 1 1 1 0 0 0 1 1h3a1 1 0 0 0 1-1 1 1 0 0 0-1-1zm2 3a1 1 0 0 0-1 1 1 1 0 0 0 1 1h1.5a1 1 0 0 0 1-1 1 1 0 0 0-1-1z"/></svg>