<svg xmlns="http://www.w3.org/2000/svg" width="24" height="24" viewBox="0 0 24 24"><path d="M12 2.229c-.752 0-1.503.283-2.07.851l-7.07 7.063-.003.002A2.94 2.94 0 0 0 2 12.215v6.857A2.943 2.943 0 0 0 4.928 22h14.144A2.943 2.943 0 0 0 22 19.072v-6.857c0-.776-.308-1.523-.86-2.072l-5.523-5.518a1 1 0 0 0-.11-.133l-.071-.049L14.07 3.08A2.92 2.92 0 0 0 12 2.23zm0 1.986c.235 0 .47.094.656.28l.719.716L4 14.586v-2.371c0-.247.095-.477.273-.658l.002-.002 7.067-7.06h.002a.93.93 0 0 1 .656-.28zm2.79 2.41 4.937 4.932.002.002a.92.92 0 0 1 .271.656v6.857a.913.913 0 0 1-.928.928H18v-7a1 1 0 0 0-.293-.707L13.414 8zM12 9.415l4 4V16H8v-2.586zm-6 6V20H4.928A.913.913 0 0 1 4 19.072v-1.658zM8 18h8v2H8z"/></svg>