<svg xmlns="http://www.w3.org/2000/svg" width="24" height="24" viewBox="0 0 24 24"><path d="M18.105 2C16.955 2 16 2.955 16 4.105v15.79c0 1.15.955 2.105 2.105 2.105h1.79c1.15 0 2.105-.955 2.105-2.105V4.105C22 2.955 21.045 2 19.895 2zm0 2h1.79Q20 4 20 4.105v15.79q0 .105-.105.105h-1.79Q18 20 18 19.895V4.105Q18 4 18.105 4zm-7 4C9.955 8 9 8.955 9 10.105v9.79C9 21.045 9.955 22 11.105 22h1.79c1.15 0 2.105-.955 2.105-2.105v-9.79C15 8.955 14.045 8 12.895 8zm0 2h1.79q.105 0 .105.105v9.79q0 .105-.105.105h-1.79Q11 20 11 19.895v-9.79q0-.105.105-.105zM5 16a3.05 3.05 0 0 0-2.04.752C2.38 17.269 2 18.083 2 19s.38 1.731.96 2.248A3.05 3.05 0 0 0 5 22a3.05 3.05 0 0 0 2.04-.752C7.62 20.731 8 19.917 8 19s-.38-1.731-.96-2.248A3.05 3.05 0 0 0 5 16zm0 2c.278 0 .542.098.71.248.17.15.29.335.29.752s-.12.602-.29.752c-.168.15-.432.248-.71.248s-.542-.098-.71-.248C4.12 19.602 4 19.417 4 19s.12-.602.29-.752A1.1 1.1 0 0 1 5 18z"/></svg>