<svg xmlns="http://www.w3.org/2000/svg" width="24" height="24" viewBox="0 0 24 24"><path d="M12 2a9.995 9.995 0 0 0-9.758 7.78 1 1 0 0 0 .756 1.195 1 1 0 0 0 1.195-.754A7.976 7.976 0 0 1 11.998 4H12a7.99 7.99 0 0 1 7.805 6.223 1 1 0 0 0 1.197.752 1 1 0 0 0 .754-1.198A10.01 10.01 0 0 0 12.002 2zm0 7a3.05 3.05 0 0 0-2.04.752C9.38 10.269 9 11.083 9 12s.38 1.731.96 2.248A3.05 3.05 0 0 0 12 15a3.05 3.05 0 0 0 2.04-.752c.58-.517.96-1.331.96-2.248s-.38-1.731-.96-2.248A3.05 3.05 0 0 0 12 9zm0 2c.278 0 .542.098.71.248.17.15.29.335.29.752s-.12.602-.29.752c-.168.15-.432.248-.71.248s-.542-.098-.71-.248c-.17-.15-.29-.335-.29-.752s.12-.602.29-.752A1.1 1.1 0 0 1 12 11zm-8.605 2.014a1 1 0 0 0-.391.011 1 1 0 0 0-.752 1.198C3.272 18.669 7.256 22 12 22c4.745 0 8.73-3.33 9.748-7.777a1 1 0 0 0-.752-1.198 1 1 0 0 0-1.197.752C18.986 17.33 15.809 20 12 20c-3.808 0-6.984-2.67-7.799-6.223a1 1 0 0 0-.806-.763z"/></svg>