<svg xmlns="http://www.w3.org/2000/svg" width="24" height="24" viewBox="0 0 24 24"><path d="M9.5 2.5c-.472 0-.958.152-1.352.502-.206.183-.226.512-.34.785A1 1 0 0 0 7.5 4.5a1 1 0 0 0 .309.713c.113.273.133.602.34.785.393.35.879.502 1.351.502s.958-.152 1.352-.502c.393-.35.648-.915.648-1.498s-.255-1.148-.648-1.498A2.02 2.02 0 0 0 9.5 2.5zm10 0c-.472 0-.958.152-1.352.502-.206.183-.226.512-.34.785a1 1 0 0 0-.308.713 1 1 0 0 0 .309.713c.113.273.133.602.34.785.393.35.879.502 1.351.502s.958-.152 1.352-.502c.393-.35.648-.915.648-1.498s-.255-1.148-.648-1.498A2.02 2.02 0 0 0 19.5 2.5zm-15 5c-.472 0-.958.152-1.352.502-.206.183-.226.512-.34.785A1 1 0 0 0 2.5 9.5a1 1 0 0 0 .309.713c.113.273.133.602.34.785.393.35.879.502 1.351.502s.958-.152 1.352-.502c.393-.35.648-.915.648-1.498s-.255-1.148-.648-1.498A2.02 2.02 0 0 0 4.5 7.5zm10 0c-.472 0-.958.152-1.352.502-.206.183-.226.512-.34.785a1 1 0 0 0-.308.713 1 1 0 0 0 .309.713c.113.273.133.602.34.785.393.35.879.502 1.351.502s.958-.152 1.352-.502c.393-.35.648-.915.648-1.498s-.255-1.148-.648-1.498A2.02 2.02 0 0 0 14.5 7.5zm-5 5c-.472 0-.958.152-1.352.502-.206.183-.226.512-.34.785a1 1 0 0 0-.308.713 1 1 0 0 0 .309.713c.113.273.133.602.34.785.393.35.879.502 1.351.502s.958-.152 1.352-.502c.393-.35.648-.915.648-1.498s-.255-1.148-.648-1.498A2.02 2.02 0 0 0 9.5 12.5zm10 0c-.472 0-.958.152-1.352.502-.206.183-.226.512-.34.785a1 1 0 0 0-.308.713 1 1 0 0 0 .309.713c.113.273.133.602.34.785.393.35.879.502 1.351.502s.958-.152 1.352-.502c.393-.35.648-.915.648-1.498s-.255-1.148-.648-1.498A2.02 2.02 0 0 0 19.5 12.5zm-15 5c-.472 0-.958.152-1.352.502-.206.183-.226.512-.34.785a1 1 0 0 0-.308.713 1 1 0 0 0 .309.713c.113.273.133.602.34.785.393.35.879.502 1.351.502s.958-.152 1.352-.502c.393-.35.648-.915.648-1.498s-.255-1.148-.648-1.498A2.02 2.02 0 0 0 4.5 17.5zm10 0c-.472 0-.958.152-1.352.502-.206.183-.226.512-.34.785a1 1 0 0 0-.308.713 1 1 0 0 0 .309.713c.113.273.133.602.34.785.393.35.879.502 1.351.502s.958-.152 1.352-.502c.393-.35.648-.915.648-1.498s-.255-1.148-.648-1.498A2.02 2.02 0 0 0 14.5 17.5z"/></svg>