<svg xmlns="http://www.w3.org/2000/svg" width="24" height="24" viewBox="0 0 24 24"><path d="M6 3C4.355 3 3 4.355 3 6v12c0 1.645 1.355 3 3 3h12c1.645 0 3-1.355 3-3V6c0-1.645-1.355-3-3-3zm0 2h12c.564 0 1 .436 1 1v12c0 .564-.436 1-1 1H6c-.564 0-1-.436-1-1V6c0-.564.436-1 1-1zm8.844 4.012a1 1 0 0 0-.551.281L12 11.586l-1.293-1.293a1 1 0 0 0-1.414 0l-3 3a1 1 0 0 0 0 1.414 1 1 0 0 0 1.414 0L10 12.414l1.293 1.293a1 1 0 0 0 1.414 0L15 11.414l1.293 1.293a1 1 0 0 0 1.414 0 1 1 0 0 0 0-1.414l-2-2a1 1 0 0 0-.863-.281z"/></svg>