<svg xmlns="http://www.w3.org/2000/svg" width="24" height="24" viewBox="0 0 24 24"><path d="M5 3c-.472 0-.958.152-1.352.502-.206.183-.226.512-.34.785A1 1 0 0 0 3 5a1 1 0 0 0 .309.713c.113.273.133.602.34.785C4.041 6.848 4.527 7 5 7s.958-.152 1.352-.502C6.745 6.148 7 5.583 7 5s-.255-1.148-.648-1.498A2.02 2.02 0 0 0 5 3zm7 0c-.472 0-.958.152-1.352.502-.206.183-.226.512-.34.785A1 1 0 0 0 10 5a1 1 0 0 0 .309.713c.113.273.133.602.34.785.393.35.879.502 1.351.502s.958-.152 1.352-.502C13.745 6.148 14 5.583 14 5s-.255-1.148-.648-1.498A2.02 2.02 0 0 0 12 3zm7 0c-.472 0-.958.152-1.352.502-.206.183-.226.512-.34.785A1 1 0 0 0 17 5a1 1 0 0 0 .309.713c.113.273.133.602.34.785.393.35.879.502 1.351.502s.958-.152 1.352-.502C20.745 6.148 21 5.583 21 5s-.255-1.148-.648-1.498A2.02 2.02 0 0 0 19 3zM5 10c-.472 0-.958.152-1.352.502-.206.183-.226.512-.34.785A1 1 0 0 0 3 12a1 1 0 0 0 .309.713c.113.273.133.602.34.785.393.35.879.502 1.351.502s.958-.152 1.352-.502C6.745 13.148 7 12.583 7 12s-.255-1.148-.648-1.498A2.02 2.02 0 0 0 5 10zm7 0c-.472 0-.958.152-1.352.502-.206.183-.226.512-.34.785A1 1 0 0 0 10 12a1 1 0 0 0 .309.713c.113.273.133.602.34.785.393.35.879.502 1.351.502s.958-.152 1.352-.502c.393-.35.648-.915.648-1.498s-.255-1.148-.648-1.498A2.02 2.02 0 0 0 12 10zm7 0c-.472 0-.958.152-1.352.502-.206.183-.226.512-.34.785A1 1 0 0 0 17 12a1 1 0 0 0 .309.713c.113.273.133.602.34.785.393.35.879.502 1.351.502s.958-.152 1.352-.502c.393-.35.648-.915.648-1.498s-.255-1.148-.648-1.498A2.02 2.02 0 0 0 19 10zM5 17c-.472 0-.958.152-1.352.502-.206.183-.226.512-.34.785A1 1 0 0 0 3 19a1 1 0 0 0 .309.713c.113.273.133.602.34.785.393.35.879.502 1.351.502s.958-.152 1.352-.502C6.745 20.148 7 19.583 7 19s-.255-1.148-.648-1.498A2.02 2.02 0 0 0 5 17zm7 0c-.472 0-.958.152-1.352.502-.206.183-.226.512-.34.785A1 1 0 0 0 10 19a1 1 0 0 0 .309.713c.113.273.133.602.34.785.393.35.879.502 1.351.502s.958-.152 1.352-.502c.393-.35.648-.915.648-1.498s-.255-1.148-.648-1.498A2.02 2.02 0 0 0 12 17zm7 0c-.472 0-.958.152-1.352.502-.206.183-.226.512-.34.785A1 1 0 0 0 17 19a1 1 0 0 0 .309.713c.113.273.133.602.34.785.393.35.879.502 1.351.502s.958-.152 1.352-.502c.393-.35.648-.915.648-1.498s-.255-1.148-.648-1.498A2.02 2.02 0 0 0 19 17z"/></svg>