<svg xmlns="http://www.w3.org/2000/svg" width="24" height="24" viewBox="0 0 24 24"><path d="M9 3c-.472 0-.958.152-1.352.502-.206.183-.226.512-.34.785A1 1 0 0 0 7 5a1 1 0 0 0 .309.713c.113.273.133.602.34.785C8.041 6.848 8.527 7 9 7s.958-.152 1.352-.502C10.745 6.148 11 5.583 11 5s-.255-1.148-.648-1.498A2.02 2.02 0 0 0 9 3zm6 0c-.472 0-.958.152-1.352.502-.206.183-.226.512-.34.785A1 1 0 0 0 13 5a1 1 0 0 0 .309.713c.113.273.133.602.34.785.393.35.879.502 1.351.502s.958-.152 1.352-.502C16.745 6.148 17 5.583 17 5s-.255-1.148-.648-1.498A2.02 2.02 0 0 0 15 3zm-6 7c-.472 0-.958.152-1.352.502-.206.183-.226.512-.34.785A1 1 0 0 0 7 12a1 1 0 0 0 .309.713c.113.273.133.602.34.785.393.35.879.502 1.351.502s.958-.152 1.352-.502c.393-.35.648-.915.648-1.498s-.255-1.148-.648-1.498A2.02 2.02 0 0 0 9 10zm6 0c-.472 0-.958.152-1.352.502-.206.183-.226.512-.34.785A1 1 0 0 0 13 12a1 1 0 0 0 .309.713c.113.273.133.602.34.785.393.35.879.502 1.351.502s.958-.152 1.352-.502c.393-.35.648-.915.648-1.498s-.255-1.148-.648-1.498A2.02 2.02 0 0 0 15 10zm-6 7c-.472 0-.958.152-1.352.502-.206.183-.226.512-.34.785A1 1 0 0 0 7 19a1 1 0 0 0 .309.713c.113.273.133.602.34.785.393.35.879.502 1.351.502s.958-.152 1.352-.502c.393-.35.648-.915.648-1.498s-.255-1.148-.648-1.498A2.02 2.02 0 0 0 9 17zm6 0c-.472 0-.958.152-1.352.502-.206.183-.226.512-.34.785A1 1 0 0 0 13 19a1 1 0 0 0 .309.713c.113.273.133.602.34.785.393.35.879.502 1.351.502s.958-.152 1.352-.502c.393-.35.648-.915.648-1.498s-.255-1.148-.648-1.498A2.02 2.02 0 0 0 15 17z"/></svg>