<svg xmlns="http://www.w3.org/2000/svg" width="24" height="24" viewBox="0 0 24 24"><path d="M16.012 4a1 1 0 0 0-.625.21l-4.5 3.5a1 1 0 0 0-.176 1.403 1 1 0 0 0 1.402.176l4.5-3.5a1 1 0 0 0 .176-1.402A1 1 0 0 0 16.012 4zM8 5c-.472 0-.958.152-1.352.502-.206.183-.226.512-.34.785A1 1 0 0 0 6 7a1 1 0 0 0 .309.713c.113.273.133.602.34.785C7.041 8.848 7.527 9 8 9s.958-.152 1.352-.502C9.745 8.148 10 7.583 10 7s-.255-1.148-.648-1.498A2.02 2.02 0 0 0 8 5zm13.076.004a1 1 0 0 0-.726.236l-6.631 5.684-4.524-.904A1 1 0 0 0 9 10H3a1 1 0 0 0-1 1 1 1 0 0 0 1 1h5.9l4.004.8-.898 8.089a1 1 0 0 0 .883 1.105 1 1 0 0 0 1.105-.883l.957-8.609 6.7-5.742a1 1 0 0 0 .109-1.41 1 1 0 0 0-.684-.346z"/></svg>