<svg xmlns="http://www.w3.org/2000/svg" width="24" height="24" viewBox="0 0 24 24"><path d="M3 5a1 1 0 0 0-1 1 1 1 0 0 0 1 1v10a1 1 0 0 0-1 1 1 1 0 0 0 1 1h2a1 1 0 0 0 1-1 1 1 0 0 0-1-1v-4h6v4a1 1 0 0 0-1 1 1 1 0 0 0 1 1h2a1 1 0 0 0 1-1 1 1 0 0 0-1-1V7a1 1 0 0 0 1-1 1 1 0 0 0-1-1h-2a1 1 0 0 0-1 1 1 1 0 0 0 1 1v4H5V7a1 1 0 0 0 1-1 1 1 0 0 0-1-1zm16 4a3.05 3.05 0 0 0-2.04.752c-.58.517-.96 1.331-.96 2.248a1 1 0 0 0 1 1 1 1 0 0 0 1-1c0-.417.12-.602.29-.752.168-.15.432-.248.71-.248s.542.098.71.248c.17.15.29.335.29.752 0 .12-.28.799-.621 1.262v.002l-3.172 4.129A1 1 0 0 0 17 19.002h4a1 1 0 0 0 1-1 1 1 0 0 0-1-1h-1.97l1.947-2.535.011-.014C21.444 13.836 22 13.061 22 12c0-.917-.38-1.731-.96-2.248A3.05 3.05 0 0 0 19 9z"/></svg>