<svg xmlns="http://www.w3.org/2000/svg" width="24" height="24" viewBox="0 0 24 24"><path d="M3 5a1 1 0 0 0-1 1 1 1 0 0 0 1 1v10a1 1 0 0 0-1 1 1 1 0 0 0 1 1h2a1 1 0 0 0 1-1 1 1 0 0 0-1-1v-4h6v4a1 1 0 0 0-1 1 1 1 0 0 0 1 1h2a1 1 0 0 0 1-1 1 1 0 0 0-1-1V7a1 1 0 0 0 1-1 1 1 0 0 0-1-1h-2a1 1 0 0 0-1 1 1 1 0 0 0 1 1v4H5V7a1 1 0 0 0 1-1 1 1 0 0 0-1-1zm15.883 4.006a3 3 0 0 0-1.031.223A3.01 3.01 0 0 0 16 12a1 1 0 0 0 1 1 1 1 0 0 0 1-1c0-.488.258-.775.617-.924.36-.149.745-.128 1.09.217s.366.73.217 1.09c-.15.36-.436.617-.924.617a1 1 0 0 0-1 1 1 1 0 0 0 .74.967A1 1 0 0 0 19 15c.488 0 .775.258.924.617.149.36.128.745-.217 1.09s-.73.366-1.09.217c-.36-.15-.617-.436-.617-.924a1 1 0 0 0-1-1 1 1 0 0 0-1 1c0 1.294.82 2.344 1.852 2.771a3.01 3.01 0 0 0 3.27-.65 3.01 3.01 0 0 0 .65-3.27A3 3 0 0 0 21.23 14c.23-.254.414-.543.541-.852a3.01 3.01 0 0 0-.65-3.27 2.97 2.97 0 0 0-1.59-.827 3 3 0 0 0-.648-.045z"/></svg>