<svg xmlns="http://www.w3.org/2000/svg" width="24" height="24" viewBox="0 0 24 24"><path d="M3 5a1 1 0 0 0-1 1 1 1 0 0 0 1 1v10a1 1 0 0 0-1 1 1 1 0 0 0 1 1h2a1 1 0 0 0 1-1 1 1 0 0 0-1-1v-4h6v4a1 1 0 0 0-1 1 1 1 0 0 0 1 1h2a1 1 0 0 0 1-1 1 1 0 0 0-1-1V7a1 1 0 0 0 1-1 1 1 0 0 0-1-1h-2a1 1 0 0 0-1 1 1 1 0 0 0 1 1v4H5V7a1 1 0 0 0 1-1 1 1 0 0 0-1-1zm14 4a1 1 0 0 0-1 1v4a1 1 0 0 0 1 1h2c.417 0 .602.12.752.29.15.168.248.432.248.71s-.098.542-.248.71c-.15.17-.335.29-.752.29h-2a1 1 0 0 0-1 1 1 1 0 0 0 1 1h2c.917 0 1.731-.38 2.248-.96A3.05 3.05 0 0 0 22 16a3.05 3.05 0 0 0-.752-2.04C20.731 13.38 19.917 13 19 13h-1v-2h3a1 1 0 0 0 1-1 1 1 0 0 0-1-1z"/></svg>