<svg xmlns="http://www.w3.org/2000/svg" width="24" height="24" viewBox="0 0 24 24"><path d="M3 2a1 1 0 0 0-.707.293 1 1 0 0 0 0 1.414l7.004 7.004-5.97 5.998a3.105 3.105 0 0 0 0 4.385 3.125 3.125 0 0 0 4.384 0h.002l5.992-5.975 6.588 6.588a1 1 0 0 0 1.414 0 1 1 0 0 0 0-1.414l-18-18A1 1 0 0 0 3 2zm9.42.416c-.514 0-1.028.192-1.414.578l-2 2a1 1 0 0 0 0 1.414 1 1 0 0 0 1.414 0l2-1.998 7.586 7.584-2 2a1 1 0 0 0 0 1.414 1 1 0 0 0 1.414 0l2-2a2.016 2.016 0 0 0 0-2.828l-7.586-7.586a2 2 0 0 0-1.414-.578zm-1.71 9.709 1.58 1.578-5.99 5.973a1.096 1.096 0 0 1-1.566 0 1.077 1.077 0 0 1 0-1.549l.004-.004z"/></svg>