<svg xmlns="http://www.w3.org/2000/svg" width="24" height="24" viewBox="0 0 24 24"><path d="M9.5 2c-.597 0-1.208.194-1.695.627S7 3.75 7 4.5v6.115a2.87 2.87 0 0 0-3.264-.222 2.514 2.514 0 0 0-.894 3.369c1.88 3.342 2.929 5.182 3.32 5.783v.002l.197.3.002.003c1.24 1.883 3.329 2.986 5.57 3.08A1 1 0 0 0 12 23h2c3.854 0 7-3.146 7-7v-4.5c0-.75-.317-1.44-.805-1.873A2.53 2.53 0 0 0 18.5 9c-.294 0-.59.047-.875.146a2.3 2.3 0 0 0-.43-.519A2.53 2.53 0 0 0 15.5 8c-.294 0-.59.047-.875.146a2.3 2.3 0 0 0-.43-.519A2.53 2.53 0 0 0 12.5 7a2.7 2.7 0 0 0-.5.047V4.5c0-.75-.317-1.44-.805-1.873A2.53 2.53 0 0 0 9.5 2zm4.54.459a1 1 0 0 0-1.007.74 1 1 0 0 0 .707 1.225 12.4 12.4 0 0 1 3.412 1.492 1 1 0 0 0 1.38-.312 1 1 0 0 0-.313-1.38 14.4 14.4 0 0 0-3.96-1.732 1 1 0 0 0-.22-.033zm-9.067.709a1 1 0 0 0-.38.086 14.5 14.5 0 0 0-2.642 1.533 1 1 0 0 0-.217 1.397 1 1 0 0 0 1.397.216 12.5 12.5 0 0 1 2.277-1.32 1 1 0 0 0 .506-1.32 1 1 0 0 0-.557-.528 1 1 0 0 0-.384-.064zM9.5 4a.58.58 0 0 1 .367.123c.075.067.133.127.133.377V12a1 1 0 0 0 1 1 1 1 0 0 0 1-1V9.5c0-.25.058-.31.133-.377A.58.58 0 0 1 12.5 9a.58.58 0 0 1 .367.123c.075.067.133.127.133.377V12a1 1 0 0 0 1 1 1 1 0 0 0 1-1v-1.5c0-.25.058-.31.133-.377A.58.58 0 0 1 15.5 10a.58.58 0 0 1 .367.123c.075.067.133.127.133.377V12a1 1 0 0 0 1 1 1 1 0 0 0 1-1v-.5c0-.25.058-.31.133-.377A.58.58 0 0 1 18.5 11a.58.58 0 0 1 .367.123c.075.067.133.127.133.377V16c0 2.773-2.227 5-5 5h-1.793a5 5 0 0 1-4.176-2.25l-.193-.295v-.002c-.233-.358-1.375-2.335-3.252-5.672a.486.486 0 0 1 .178-.674.86.86 0 0 1 1.06.131l1.469 1.469.053.035a1 1 0 0 0 .205.137 1 1 0 0 0 .1.05A1 1 0 0 0 8 14a1 1 0 0 0 .35-.07 1 1 0 0 0 .1-.051 1 1 0 0 0 .204-.137l.053-.035a1 1 0 0 0 .102-.12 1 1 0 0 0 .138-.27l.006-.024a1 1 0 0 0 .045-.281L9 13V4.5c0-.25.058-.31.133-.377A.58.58 0 0 1 9.5 4z"/></svg>