<svg xmlns="http://www.w3.org/2000/svg" width="24" height="24" viewBox="0 0 24 24"><path d="M3 2a1 1 0 0 0-.707.293 1 1 0 0 0 0 1.414l6.775 6.775-5.529 3.073a3 3 0 0 0-1.543 2.623V17c0 1.645 1.355 3 3 3h13.59l1.707 1.707a1 1 0 0 0 1.414 0 1 1 0 0 0 0-1.414l-18-18A1 1 0 0 0 3 2zm9 1a3.05 3.05 0 0 0-2.04.752C9.38 4.269 9 5.083 9 6a1 1 0 0 0 1 1 1 1 0 0 0 1-1c0-.417.12-.602.29-.752.168-.15.432-.248.71-.248s.542.098.71.248c.17.15.29.335.29.752a1 1 0 0 0 1 1 1 1 0 0 0 1-1c0-.917-.38-1.731-.96-2.248A3.05 3.05 0 0 0 12 3zm4.62 8.512a1 1 0 0 0-.39.033 1 1 0 0 0-.6.475 1 1 0 0 0 .39 1.36l3.462 1.923c.32.177.514.508.514.873V17a1 1 0 0 0 1 1 1 1 0 0 0 1-1v-.822a3 3 0 0 0-1.543-2.623l-3.46-1.924a1 1 0 0 0-.374-.12zm-6.08.441L16.585 18H4.996c-.564 0-1-.436-1-1v-.824c0-.365.195-.696.514-.873z"/></svg>