<svg xmlns="http://www.w3.org/2000/svg" width="24" height="24" viewBox="0 0 24 24"><path d="M3 2a1 1 0 0 0-.707.293 1 1 0 0 0 0 1.414L6 7.414V18H5a1 1 0 0 0-1 1 1 1 0 0 0 1 1h4a1 1 0 0 0 1-1 1 1 0 0 0-1-1H8v-5h3.586L16 17.414V18h-1a1 1 0 0 0-1 1 1 1 0 0 0 1 1h3.586l1.707 1.707a1 1 0 0 0 1.414 0 1 1 0 0 0 0-1.414l-1.975-1.973-.052-.052-1.973-1.975-5-5-5-5-4-4A1 1 0 0 0 3 2zm12 2a1 1 0 0 0-1 1 1 1 0 0 0 1 1h1v5a1 1 0 0 0-1 1 1 1 0 0 0 1 1 1 1 0 0 0 1 1 1 1 0 0 0 1-1V6h1a1 1 0 0 0 1-1 1 1 0 0 0-1-1zM8 9.414 9.586 11H8z"/></svg>