<svg xmlns="http://www.w3.org/2000/svg" width="24" height="24" viewBox="0 0 24 24"><path d="M3 2a1 1 0 0 0-.707.293 1 1 0 0 0 0 1.414l2.678 2.678A8.98 8.98 0 0 0 3 12v6c0 1.645 1.355 3 3 3h1c1.645 0 3-1.355 3-3v-3c0-1.645-1.355-3-3-3H6c-.35 0-.687.062-1 .174V12a6.95 6.95 0 0 1 1.393-4.193L14 15.414V18c0 1.645 1.355 3 3 3h1c.46 0 .9-.105 1.293-.293l1 1a1 1 0 0 0 1.414 0 1 1 0 0 0 0-1.414L7.064 5.65l-.02-.02-3.337-3.337A1 1 0 0 0 3 2zm8.674 1.002c-1.12.037-2.26.29-3.371.791A1 1 0 0 0 7.8 5.115a1 1 0 0 0 1.322.5C13.791 3.511 19.002 6.88 19 12v.174A3 3 0 0 0 18 12h-1a1 1 0 0 0-1 1 1 1 0 0 0 1 1h1c.564 0 1 .436 1 1v1a1 1 0 0 0 1 1 1 1 0 0 0 1-1v-4c.002-4.872-3.81-8.554-8.215-8.965a9 9 0 0 0-1.111-.033zM6 14h1c.564 0 1 .436 1 1v3c0 .564-.436 1-1 1H6c-.564 0-1-.436-1-1v-3c0-.564.436-1 1-1zm10 3.414L17.586 19H17c-.564 0-1-.436-1-1z"/></svg>