<svg xmlns="http://www.w3.org/2000/svg" width="24" height="24" viewBox="0 0 24 24"><path d="M15.504 2.006a5.4 5.4 0 0 0-1.1.064l-7.82 1.268c-2.963.48-4.993 3.295-4.514 6.258l1.268 7.82c.48 2.963 3.295 4.993 6.258 4.514l7.82-1.268c2.963-.48 4.993-3.295 4.514-6.258l-1.268-7.82c-.42-2.592-2.628-4.47-5.158-4.578zm-.078 1.996a3.44 3.44 0 0 1 3.262 2.902l1.267 7.82a3.44 3.44 0 0 1-2.86 3.964l-7.82 1.267a3.44 3.44 0 0 1-3.963-2.86l-1.267-7.82a3.44 3.44 0 0 1 2.86-3.963l7.82-1.267q.355-.057.7-.043zm-.037 1.412a2 2 0 0 0-.4.024L7.091 6.717a2.017 2.017 0 0 0-1.654 2.295l.67 4.133a1 1 0 0 0 1.331.779L17 10.414a1 1 0 0 0 .643-1.1l-.36-2.22v-.002a2.02 2.02 0 0 0-1.894-1.678zm-.08 1.996v.002l.228 1.408-7.647 2.81-.48-2.94h.002z"/></svg>