<svg xmlns="http://www.w3.org/2000/svg" width="24" height="24" viewBox="0 0 24 24"><path d="M8.02 2.996a5.96 5.96 0 0 0-3.985 1.479c-2.624 2.297-2.732 6.382-.232 8.814l6.517 6.455.977.967a1 1 0 0 0 1.414-.008 1 1 0 0 0-.008-1.414l-.974-.965-6.526-6.463-.006-.006a3.983 3.983 0 0 1 .155-5.876 3.983 3.983 0 0 1 5.845.623 1 1 0 0 0 1.602.005c1.576-2.096 3.736-2.015 5.375-.953s2.593 3.001 1.322 5.295a1 1 0 0 0 .389 1.36 1 1 0 0 0 1.36-.391c1.743-3.146.382-6.407-1.983-7.941-2.112-1.37-5.105-1.326-7.272.718-.967-.894-2.11-1.53-3.367-1.664a6 6 0 0 0-.603-.035zM18 14c-.972 0-1.958.319-2.727 1.002S14 16.75 14 18s.505 2.315 1.273 2.998C16.043 21.681 17.028 22 18 22a4.2 4.2 0 0 0 2.059-.527l1.234 1.234a1 1 0 0 0 1.414 0 1 1 0 0 0 0-1.414l-1.23-1.23c.33-.586.523-1.289.523-2.063 0-1.25-.505-2.315-1.273-2.998C19.957 14.319 18.972 14 18 14zm0 2c.528 0 1.042.181 1.398.498.357.317.602.752.602 1.502s-.245 1.185-.602 1.502c-.356.317-.87.498-1.398.498s-1.042-.181-1.398-.498C16.245 19.185 16 18.75 16 18s.245-1.185.602-1.502c.356-.317.87-.498 1.398-.498z"/></svg>