<svg xmlns="http://www.w3.org/2000/svg" width="24" height="24" viewBox="0 0 24 24"><path d="M15.885 2.941q-.279 0-.559.028c-1.19.118-2.332.767-3.336 1.728-2.202-2.037-5.614-2.271-7.955-.222-2.624 2.297-2.732 6.382-.232 8.814l7.494 7.422a1 1 0 0 0 1.408 0l1.3-1.291 1.266 1.283a1 1 0 0 0 .711.297h.008a1 1 0 0 0 .71-.295l4.196-4.223.002-.003a3.83 3.83 0 0 0 .467-4.776c.715-1.366.863-2.794.557-4.057-.354-1.462-1.273-2.693-2.453-3.53-1.033-.734-2.285-1.175-3.584-1.175zm0 2c.847.002 1.709.295 2.428.805.821.583 1.438 1.433 1.666 2.371.167.693.143 1.44-.188 2.244-1.222-.54-2.683-.367-3.791.47-.664-.506-1.434-.822-2.234-.823a3.73 3.73 0 0 0-2.668 1.101 3.826 3.826 0 0 0-.01 5.354l.002.002 1.51 1.531-.6.596-6.797-6.73-.006-.007a3.983 3.983 0 0 1 .155-5.876 3.983 3.983 0 0 1 5.845.623 1 1 0 0 0 1.602.005c.825-1.098 1.764-1.553 2.724-1.648q.18-.018.362-.018zm-2.123 7.053c.448 0 .898.176 1.244.527v.002l.28.284a1 1 0 0 0 1.421.002l.28-.282.001-.002a1.733 1.733 0 0 1 2.487.004v.002c.703.713.703 1.83 0 2.543l.004-.002-3.49 3.51-1.21-1.227-.052-.06-.026-.018-2.187-2.216a1.795 1.795 0 0 1 .004-2.543 1.74 1.74 0 0 1 1.244-.524z"/></svg>