<svg xmlns="http://www.w3.org/2000/svg" width="24" height="24" viewBox="0 0 24 24"><path d="M16.006 2.953a6 6 0 0 0-.569.016c-1.22.093-2.402.746-3.44 1.732-2.203-2.041-5.62-2.277-7.962-.226-2.624 2.297-2.732 6.382-.232 8.814l7.494 7.422a1 1 0 0 0 1.414-.008 1 1 0 0 0-.008-1.414l-7.5-7.428-.006-.006a3.983 3.983 0 0 1 .155-5.876 3.983 3.983 0 0 1 5.845.623 1 1 0 0 0 1.6.01c.857-1.128 1.817-1.574 2.793-1.65.975-.074 1.992.264 2.81.886s1.417 1.512 1.606 2.472.016 2.005-.842 3.133a1 1 0 0 0 .191 1.402 1 1 0 0 0 1.4-.19c1.161-1.527 1.507-3.228 1.212-4.73-.295-1.5-1.184-2.788-2.356-3.68-1.025-.779-2.284-1.27-3.605-1.302zM19 15a1 1 0 0 0-1 1v2h-2a1 1 0 0 0-1 1 1 1 0 0 0 1 1h2v2a1 1 0 0 0 1 1 1 1 0 0 0 1-1v-2h2a1 1 0 0 0 1-1 1 1 0 0 0-1-1h-2v-2a1 1 0 0 0-1-1z"/></svg>