<svg xmlns="http://www.w3.org/2000/svg" width="24" height="24" viewBox="0 0 24 24"><path d="M12 3C7.339 3 3.876 5.98 2.572 9.668s-.483 8.18 3.143 11.11a1 1 0 0 0 .629.222h11.312a1 1 0 0 0 .63-.223c3.625-2.93 4.446-7.42 3.142-11.109S16.66 3 12 3zm0 2c2.742 0 4.885 1.216 6.268 3h-7.069c-1.279.002-2.25 1.253-1.935 2.492h-.002c.563 2.222 1.87 3.942 3.79 4.903 1.753.876 3.727 1.389 5.901 1.55A8.3 8.3 0 0 1 17.23 19H6.77c-2.76-2.395-3.335-5.772-2.312-8.666C5.512 7.356 8.177 5 12 5zm-.799 5h8.21q.068.165.13.334c.527 1.49.627 3.106.227 4.652-2.23-.083-4.16-.55-5.82-1.38-1.424-.712-2.296-1.827-2.747-3.606z"/></svg>