<svg xmlns="http://www.w3.org/2000/svg" width="24" height="24" viewBox="0 0 24 24"><path d="M12 5c-2.324 0-4.638.248-6.47.791-.917.272-1.718.61-2.362 1.102C2.524 7.383 2 8.125 2 9c0 5.511 4.489 10 10 10a1 1 0 0 0 1-1 1 1 0 0 0-1-1 7.98 7.98 0 0 1-7.475-5.139q.475.194 1.004.348C7.362 12.752 9.676 13 12 13s4.638-.248 6.47-.791q.53-.155 1.003-.348l-.01.026a1 1 0 0 0 .572 1.295 1 1 0 0 0 1.293-.573A10 10 0 0 0 22 9v-.002c0-.874-.524-1.615-1.168-2.105-.644-.491-1.445-.83-2.361-1.102C16.638 5.248 14.324 5 12 5zm0 2c2.176 0 4.362.252 5.904.709.772.228 1.377.514 1.717.773.34.26.379.393.379.518v.002c0 .124-.04.258-.379.516-.34.259-.945.545-1.717.773-1.542.457-3.728.709-5.904.709s-4.362-.252-5.904-.709c-.772-.228-1.377-.514-1.717-.773C4.039 9.258 4 9.125 4 9s.039-.259.379-.518.945-.545 1.717-.773C7.638 7.252 9.824 7 12 7zm7 8a1 1 0 0 0-1 1v2h-2a1 1 0 0 0-1 1 1 1 0 0 0 1 1h2v2a1 1 0 0 0 1 1 1 1 0 0 0 1-1v-2h2a1 1 0 0 0 1-1 1 1 0 0 0-1-1h-2v-2a1 1 0 0 0-1-1z"/></svg>