<svg xmlns="http://www.w3.org/2000/svg" width="24" height="24" viewBox="0 0 24 24"><path d="M3 2a1 1 0 0 0-.707.293 1 1 0 0 0 0 1.414L7 8.414v1.969l-3.447 1.722A1 1 0 0 0 3 13v5a1 1 0 0 0 .553.895l4 2a1 1 0 0 0 .894 0L12 19.117l3.553 1.778a1 1 0 0 0 .894 0l2.022-1.012 1.824 1.824a1 1 0 0 0 1.414 0 1 1 0 0 0 0-1.414l-2.328-2.326L8.742 7.33a1 1 0 0 0-.072-.072L3.707 2.293A1 1 0 0 0 3 2zm8.846 1.012a1 1 0 0 0-.293.093L8.885 4.44a1 1 0 0 0-.447 1.342 1 1 0 0 0 1.341.448L12 5.117l3 1.5v3.766l-.104.05a1 1 0 0 0-.445 1.342 1 1 0 0 0 1.342.448l.207-.104 3 1.498V16a1 1 0 0 0 1 1 1 1 0 0 0 1-1v-3a1 1 0 0 0-.553-.895L17 10.383V6a1 1 0 0 0-.553-.895l-4-2a1 1 0 0 0-.601-.093zM8 12.117l3 1.5v3.766l-3 1.5-3-1.5v-3.766zm5 2.297 3.979 3.979-.979.49-3-1.5z"/></svg>