<svg xmlns="http://www.w3.org/2000/svg" width="24" height="24" viewBox="0 0 24 24"><path d="M12.037 1.002a3.3 3.3 0 0 0-1.611.412l-6.95 4.098A3.22 3.22 0 0 0 2 8.217v7.285a3.23 3.23 0 0 0 1.678 2.826l6.695 4.236c1.034.57 2.22.572 3.2.034l6.804-4.303c.98-.537 1.623-1.618 1.623-2.793V8.219l-.006-.205a3.22 3.22 0 0 0-1.283-2.391l-.106-.072-.093-.078-.096-.065-6.75-3.978a3.4 3.4 0 0 0-1.629-.428zm2.033 6.002a1 1 0 0 1 .377.101l.102.06a1 1 0 0 1 .346 1.282L13.117 12l1.778 3.553a1 1 0 0 1-.448 1.342l-.107.046a1 1 0 0 1-1.235-.494L12 14.237l-1.107 2.21a1 1 0 0 1-1.34.448l-.104-.06a1 1 0 0 1-.344-1.282L10.881 12 9.105 8.447a1 1 0 0 1 .448-1.342l.107-.046a1 1 0 0 1 1.235.494L12 9.763l1.105-2.21a1 1 0 0 1 .965-.55z"/></svg>