<svg xmlns="http://www.w3.org/2000/svg" width="24" height="24" viewBox="0 0 24 24"><path d="M12.033 1c-.554 0-1.107.138-1.607.414l-.026.014-6.724 3.967A3.23 3.23 0 0 0 2 8.217v7.287a3.23 3.23 0 0 0 1.678 2.824l6.695 4.236.053.032c.978.537 2.17.537 3.148 0a1 1 0 0 0 .395-1.358 1 1 0 0 0-1.358-.394c-.38.208-.836.206-1.216 0l-6.702-4.239-.056-.033A1.22 1.22 0 0 1 4 15.502V8.217c0-.444.24-.85.64-1.07l.026-.016 6.725-3.965h.002c.4-.22.88-.22 1.28 0l6.696 3.947.012.026c.387.22.622.627.619 1.072V12.5a1 1 0 0 0 1 1 1 1 0 0 0 1-1V8.225c.007-1.101-.582-2.098-1.498-2.694a1 1 0 0 0-.086-.123l-6.75-3.98-.025-.014A3.3 3.3 0 0 0 12.033 1zM19 15a1 1 0 0 0-1 1v2h-2a1 1 0 0 0-1 1 1 1 0 0 0 1 1h2v2a1 1 0 0 0 1 1 1 1 0 0 0 1-1v-2h2a1 1 0 0 0 1-1 1 1 0 0 0-1-1h-2v-2a1 1 0 0 0-1-1z"/></svg>