<svg xmlns="http://www.w3.org/2000/svg" width="24" height="24" viewBox="0 0 24 24"><path d="M12.037 1.002a3.3 3.3 0 0 0-1.611.412l-6.95 4.098A3.22 3.22 0 0 0 2 8.217v7.285a3.23 3.23 0 0 0 1.678 2.826l6.695 4.236c1.034.57 2.22.572 3.2.034l6.804-4.303c.98-.537 1.623-1.618 1.623-2.793V8.219l-.006-.205a3.22 3.22 0 0 0-1.283-2.391l-.106-.072-.093-.078-.096-.065-6.75-3.978a3.4 3.4 0 0 0-1.629-.428zM10 7l.117.008A1 1 0 0 1 11 8v2.912l2.152-3.441a1 1 0 0 1 1.377-.319 1 1 0 0 1 .319 1.377L12.678 12l2.17 3.47a1 1 0 0 1-.223 1.31l-.096.068-.101.056a1 1 0 0 1-1.276-.375L11 13.086V16a1 1 0 0 1-2 0V8a1 1 0 0 1 1-1z"/></svg>