<svg xmlns="http://www.w3.org/2000/svg" width="24" height="24" viewBox="0 0 24 24"><path d="M8.367 2c-.615 0-1.217.188-1.722.545L3.279 4.908h-.002A3 3 0 0 0 2 7.371v9.26c0 .978.477 1.898 1.28 2.46v.003h.003l3.362 2.361a3 3 0 0 0 .923.434A1 1 0 0 0 8 22a1 1 0 0 0 .092-.014q.136.014.273.014h7.268q.14 0 .28-.014L16 22a1 1 0 0 0 .426-.11c.33-.09.645-.234.93-.435l3.363-2.361.002-.002A3.01 3.01 0 0 0 22 16.63V7.369a3.01 3.01 0 0 0-1.28-2.46l-3.365-2.364A3 3 0 0 0 15.635 2zm0 2h7.266c.205 0 .404.064.572.182l3.367 2.363q.03.022.057.045l-3.184 2.228c-.168.118-.37.182-.576.182H8.131a1 1 0 0 1-.572-.18l-.002-.002L4.37 6.59l.057-.045 3.367-2.363.002-.002a1 1 0 0 1 .57-.18zM4 8.77l2.41 1.687q.279.195.59.322v8.48l-2.572-1.804h-.002A1 1 0 0 1 4 16.631zm16 .001v7.86c0 .328-.16.637-.428.824L17 19.26v-8.48q.312-.128.59-.321zM9 11h6v9H9z"/></svg>