<svg xmlns="http://www.w3.org/2000/svg" width="24" height="24" viewBox="0 0 24 24"><path d="M12.033 1a3.3 3.3 0 0 0-1.607.414L3.65 5.408A3.21 3.21 0 0 0 2 8.217v7.285a3.23 3.23 0 0 0 1.678 2.826l6.695 4.236c1.034.57 2.22.572 3.2.034l6.804-4.303c.98-.537 1.623-1.618 1.623-2.793V8.219l-.006-.203a3.22 3.22 0 0 0-1.283-2.391l-.107-.076-.008-.006a1 1 0 0 0-.18-.135l-6.775-3.994A3.3 3.3 0 0 0 12.033 1zM12 7a3 3 0 0 1 2.994 2.824L15 10v4l-.006.176a3 3 0 0 1-5.988 0L9 14v-4l.006-.176A3 3 0 0 1 12 7zm0 2a1 1 0 0 0-.992.883L11 10v4l.008.117a1 1 0 0 0 1.984 0L13 14v-4l-.008-.117A1 1 0 0 0 12 9z"/></svg>