<svg xmlns="http://www.w3.org/2000/svg" width="24" height="24" viewBox="0 0 24 24"><path d="M3 2a1 1 0 0 0-.707.293 1 1 0 0 0 0 1.414L7.586 9l-5.293 5.293A1 1 0 0 0 2 15v4a1 1 0 0 0 1 1h4a1 1 0 0 0 .707-.293L13 14.414 14.586 16l-2.293 2.293A1 1 0 0 0 13 20h5.586l1.707 1.707a1 1 0 0 0 1.414 0 1 1 0 0 0 0-1.414l-2-2-3-3-3-3-4-4-6-6A1 1 0 0 0 3 2zm12.314.621c-.874.046-1.781.43-2.52 1.168L10.3 6.287a1 1 0 0 0 0 1.414 1 1 0 0 0 1.414 0l.787-.787L15.086 9.5l-.793.793a1 1 0 0 0 0 1.414 1 1 0 0 0 1.414 0l2.504-2.502c.843-.843 1.224-1.909 1.166-2.892-.058-.984-.509-1.867-1.166-2.524s-1.54-1.108-2.523-1.166a3 3 0 0 0-.374-.002zm.092 1.998q.082-.003.162.002c.433.026.884.241 1.227.584s.558.794.584 1.227-.094.867-.584 1.357l-.295.297L13.914 5.5l.297-.295c.429-.429.815-.573 1.195-.586zM9 10.414 11.586 13 8.5 16.086 5.914 13.5zM19 14a1 1 0 0 0-1 1 1 1 0 0 0 1 1h1v1a1 1 0 0 0 1 1 1 1 0 0 0 1-1v-2a1 1 0 0 0-1-1zm-14.5.914L7.086 17.5l-.5.5H4v-2.586zm11.5 2.5.586.586h-1.172z"/></svg>