<svg xmlns="http://www.w3.org/2000/svg" width="24" height="24" viewBox="0 0 24 24"><path d="M11.889 1.912c-5.078.058-9.32 3.934-9.834 8.986a1 1 0 0 0 .894 1.096 1 1 0 0 0 1.096-.892 7.99 7.99 0 0 1 7.867-7.19 7.986 7.986 0 0 1 8.025 7.008 7.986 7.986 0 0 1-6.054 8.768c-3.438.831-6.82-.771-8.598-3.688h2.766a1 1 0 0 0 1-1 1 1 0 0 0-1-1h-5a1 1 0 0 0-1 1v5a1 1 0 0 0 1 1 1 1 0 0 0 1-1v-2.229c2.336 3.162 6.315 4.825 10.303 3.86 4.935-1.194 8.198-5.92 7.568-10.96-.63-5.038-4.956-8.817-10.033-8.759zM12 7a1 1 0 0 0-1 1v4a1 1 0 0 0 .293.707l2 2a1 1 0 0 0 1.414 0 1 1 0 0 0 0-1.414L13 11.586V8a1 1 0 0 0-1-1z"/></svg>