<svg xmlns="http://www.w3.org/2000/svg" width="24" height="24" viewBox="0 0 24 24"><path d="M12 2a1 1 0 0 0-.707.293l-9 9A1 1 0 0 0 3 13h1v6c0 1.645 1.355 3 3 3h7a1 1 0 0 0 1-1 1 1 0 0 0-1-1h-4v-5c0-.564.436-1 1-1h2c.239 0 .446.078.617.213a1 1 0 0 0 1.404-.166 1 1 0 0 0-.166-1.404A3 3 0 0 0 13 12h-2c-1.645 0-3 1.355-3 3v5H7c-.564 0-1-.436-1-1v-7a1 1 0 0 0-.793-.793L12 4.414l7.43 7.43a1 1 0 0 0 1.414 0 1 1 0 0 0 0-1.414l-8.137-8.137A1 1 0 0 0 12 2zm7.04 12.002a3 3 0 0 0-2.304 1.053 1 1 0 0 0 .118 1.41 1 1 0 0 0 1.41-.117.97.97 0 0 1 1.195-.24l.002.001c.538.275.623.689.518 1.125-.106.437-.371.768-.975.766a1 1 0 0 0-1.004.996A1 1 0 0 0 18.996 20c1.502.005 2.632-1.078 2.926-2.295s-.217-2.695-1.553-3.377a2.96 2.96 0 0 0-1.33-.326zM19 21a1 1 0 0 0-1 1v.01a1 1 0 0 0 1 1 1 1 0 0 0 1-1V22a1 1 0 0 0-1-1z"/></svg>