<svg xmlns="http://www.w3.org/2000/svg" width="24" height="24" viewBox="0 0 24 24"><path d="M12 2a1 1 0 0 0-.707.293l-9 9A1 1 0 0 0 3 13h1v6c0 1.645 1.355 3 3 3h5.5a1 1 0 0 0 1-1 1 1 0 0 0-1-1H10v-5c0-.564.436-1 1-1h2c.296 0 .551.122.734.32a1 1 0 0 0 1.412.057 1 1 0 0 0 .057-1.414A3 3 0 0 0 13 12h-2c-1.645 0-3 1.355-3 3v5H7c-.564 0-1-.436-1-1v-7a1 1 0 0 0-.793-.793L12 4.414l6.707 6.707A1 1 0 0 0 18 12a1 1 0 0 0 1 1h2a1 1 0 0 0 .707-1.707l-9-9A1 1 0 0 0 12 2zm7 13c-.972 0-1.958.319-2.727 1.002S15 17.75 15 19s.505 2.315 1.273 2.998C17.043 22.681 18.028 23 19 23s1.958-.319 2.727-1.002S23 20.25 23 19s-.505-2.315-1.273-2.998C20.957 15.319 19.972 15 19 15zm0 2q.268.002.523.063l-2.472 2.472A2.7 2.7 0 0 1 17 19c0-.75.245-1.185.602-1.502.356-.317.87-.498 1.398-.498zm1.95 1.465q.049.237.05.535c0 .75-.245 1.185-.602 1.502-.356.317-.87.498-1.398.498q-.268-.002-.523-.062z"/></svg>