<svg xmlns="http://www.w3.org/2000/svg" width="24" height="24" viewBox="0 0 24 24"><path d="M12 2a1 1 0 0 0-.707.293l-9 9A1 1 0 0 0 3 13h1v6c0 1.645 1.355 3 3 3h6a1 1 0 0 0 1-1 1 1 0 0 0-1-1h-3v-5c0-.564.436-1 1-1h2a1 1 0 0 1 .531.152 1 1 0 0 0 1.377-.318 1 1 0 0 0-.316-1.377A3 3 0 0 0 13 12h-2c-1.645 0-3 1.355-3 3v5H7c-.564 0-1-.436-1-1v-7a1 1 0 0 0-.793-.793L12 4.414l8.293 8.293a1 1 0 0 0 1.414 0 1 1 0 0 0 0-1.414l-9-9A1 1 0 0 0 12 2zm5.662 13.016c-.69 0-1.38.266-1.892.798a2.753 2.753 0 0 0 0 3.797l.001.004 2.51 2.59a1 1 0 0 0 1.451-.05l-.017.044 2.52-2.58.003-.006a2.753 2.753 0 0 0 0-3.799c-.875-.91-2.207-.877-3.234-.232-.426-.267-.852-.566-1.342-.566zm0 1.984c.162 0 .325.066.453.2l.006.005.168.172a1 1 0 0 0 1.43 0l.168-.172.006-.006a.61.61 0 0 1 .904 0v.002a.725.725 0 0 1 0 1.026l-1.799 1.843-1.787-1.843v-.002a.73.73 0 0 1 0-1.026.62.62 0 0 1 .451-.199z"/></svg>