<svg xmlns="http://www.w3.org/2000/svg" width="24" height="24" viewBox="0 0 24 24"><path d="M12 2a1 1 0 0 0-.707.293l-9 9A1 1 0 0 0 3 13h1v6c0 1.645 1.355 3 3 3h6.344a1 1 0 0 0 1-1 1 1 0 0 0-1-1H10v-5c0-.564.436-1 1-1h2c.327 0 .605.151.79.387a1 1 0 0 0 1.403.172 1 1 0 0 0 .174-1.403A3 3 0 0 0 13 12h-2c-1.645 0-3 1.355-3 3v5H7c-.564 0-1-.436-1-1v-7a1 1 0 0 0-.793-.793L12 4.414l7.43 7.43a1 1 0 0 0 1.414 0 1 1 0 0 0 0-1.414l-8.137-8.137A1 1 0 0 0 12 2zm7 13a1 1 0 0 0-.246.033l-.055.02a1 1 0 0 0-.168.07 1 1 0 0 0-.08.049 1 1 0 0 0-.117.09l-.041.031-3 3a1 1 0 0 0 0 1.414 1 1 0 0 0 1.414 0L18 18.414V22a1 1 0 0 0 1 1 1 1 0 0 0 1-1v-3.586l1.293 1.293a1 1 0 0 0 1.414 0 1 1 0 0 0 0-1.414l-2.97-2.97-.03-.03a1 1 0 0 0-.207-.158 1 1 0 0 0-.242-.1A1 1 0 0 0 19 15z"/></svg>