<svg xmlns="http://www.w3.org/2000/svg" width="24" height="24" viewBox="0 0 24 24"><path d="M18.957 2c-2.715.117-4.549 1.028-5.719 2.342-.992 1.115-1.487 2.416-1.927 3.658H6c-2.197 0-4 1.803-4 4a1 1 0 0 0 1 1 1 1 0 0 0 1-1c0-1.037.762-1.873 1.766-1.986L4.32 16.877q-.093-.073-.185-.148a1 1 0 0 0-1.406.136 1 1 0 0 0 .136 1.406C5.825 20.71 8.892 22 12 22s6.175-1.291 9.135-3.729a1 1 0 0 0 .136-1.406 1 1 0 0 0-.675-.361 1 1 0 0 0-.73.225l-.216.171-1.593-6.777.39-.781 1.106.553a1 1 0 0 0 1.154-.188l1.5-1.5a1 1 0 0 0 .168-1.193l-2.5-4.5A1 1 0 0 0 18.957 2zm-.484 2.111 1.787 3.215-.457.457-1.356-.678a1 1 0 0 0-1.342.448l-1 2a1 1 0 0 0-.078.676l1.866 7.925q-.64.398-1.272.707l-1.693-4.232A1 1 0 0 0 14 14h-4a1 1 0 0 0-.928.629L7.38 18.86a14 14 0 0 1-1.283-.715L7.81 10H12a1 1 0 0 0 .943-.668c.508-1.442.973-2.745 1.787-3.66.73-.82 1.862-1.37 3.743-1.56zM10.678 16h2.644l1.438 3.592A9.7 9.7 0 0 1 12 20a9.7 9.7 0 0 1-2.76-.408z"/></svg>