<svg xmlns="http://www.w3.org/2000/svg" width="24" height="24" viewBox="0 0 24 24"><path d="M3 2a1 1 0 0 0-.707.293 1 1 0 0 0 0 1.414L5.016 6.43A7.01 7.01 0 0 0 8.402 12 7.01 7.01 0 0 0 5 18v2c0 1.093.907 2 2 2h10c.964 0 1.783-.706 1.963-1.623l1.33 1.33a1 1 0 0 0 1.414 0 1 1 0 0 0 0-1.414l-2.959-2.957a1 1 0 0 0-.084-.084l-5.916-5.916a1 1 0 0 0-.084-.084L6.748 5.336a1 1 0 0 0-.084-.084L3.707 2.293A1 1 0 0 0 3 2zm4 0a1 1 0 0 0-1 1 1 1 0 0 0 1 1h10v2a5 5 0 0 1-2.393 4.268 1 1 0 0 0-.33 1.375 1 1 0 0 0 1.375.33A7 7 0 0 0 19 6V4c0-1.093-.907-2-2-2zm4.602 11.016L17 18.414V20H7v-2a4.984 4.984 0 0 1 4.602-4.984z"/></svg>