<svg xmlns="http://www.w3.org/2000/svg" width="24" height="24" viewBox="0 0 24 24"><path d="M12.03 3.018A9 9 0 0 0 5 6.36V5a1 1 0 0 0-1-1 1 1 0 0 0-1 1v4a1 1 0 0 0 1 1h4a1 1 0 0 0 1-1 1 1 0 0 0-1-1H6.29c1.602-2.298 4.12-3.245 6.595-2.926 2.945.38 5.618 2.414 6.125 6.063a1 1 0 0 0 1.127.853 1 1 0 0 0 .853-1.127c-.628-4.52-4.12-7.292-7.847-7.773a9 9 0 0 0-1.114-.072zm-8.159 8.99a1 1 0 0 0-.863 1.12c.527 4.058 3.786 7.352 7.867 7.864a1 1 0 0 0 1.117-.867 1 1 0 0 0-.867-1.117c-3.151-.396-5.724-2.994-6.133-6.137a1 1 0 0 0-1.12-.863zM15 14a1 1 0 0 0-1 1v6a1 1 0 0 0 1 1 1 1 0 0 0 1-1v-6a1 1 0 0 0-1-1zm3 0a1 1 0 0 0-1 1 1 1 0 0 0 1 1h2v1h-1c-1.093 0-2 .907-2 2v1c0 1.093.907 2 2 2h2a1 1 0 0 0 1-1 1 1 0 0 0-1-1h-2v-1h1c1.093 0 2-.907 2-2v-1c0-1.093-.907-2-2-2z"/></svg>