<svg xmlns="http://www.w3.org/2000/svg" width="24" height="24" viewBox="0 0 24 24"><path d="M5 3c-1.093 0-2 .907-2 2v2a1 1 0 0 0 1 1 1 1 0 0 0 1-1V5h2a1 1 0 0 0 1-1 1 1 0 0 0-1-1zm6 0a1 1 0 0 0-1 1 1 1 0 0 0 1 1h2a1 1 0 0 0 1-1 1 1 0 0 0-1-1zm6 0a1 1 0 0 0-1 1 1 1 0 0 0 1 1h2v2a1 1 0 0 0 1 1 1 1 0 0 0 1-1V5c0-1.093-.907-2-2-2zM6 10c-1.645 0-3 1.355-3 3v5c0 1.645 1.355 3 3 3h5c1.645 0 3-1.355 3-3v-5c0-1.645-1.355-3-3-3zm14 0a1 1 0 0 0-1 1v2a1 1 0 0 0 1 1 1 1 0 0 0 1-1v-2a1 1 0 0 0-1-1zM6 12h5c.564 0 1 .436 1 1v1.068c-.936.129-1.95.456-2.85 1.131-1.043.783-1.858 2.065-2.086 3.801H6c-.564 0-1-.436-1-1v-5c0-.564.436-1 1-1zm14 4a1 1 0 0 0-1 1v2h-2a1 1 0 0 0-1 1 1 1 0 0 0 1 1h2c1.093 0 2-.907 2-2v-2a1 1 0 0 0-1-1zm-8.004.102H12V18c0 .564-.436 1-1 1H9.076c.181-1.106.67-1.747 1.274-2.2.478-.358 1.067-.582 1.646-.698z"/></svg>