<svg xmlns="http://www.w3.org/2000/svg" width="24" height="24" viewBox="0 0 24 24"><path d="M12 1.695c-.968 0-1.936.46-2.492 1.377l-.002.006-8.108 13.533-.007.014c-1.091 1.89.308 4.347 2.49 4.371h16.238c2.18-.025 3.58-2.48 2.49-4.369l-.007-.016-8.108-13.535-.002-.004c-.556-.917-1.524-1.377-2.492-1.377zm0 1.946c.296 0 .592.154.781.466l8.096 13.52c.37.645-.037 1.36-.781 1.37H3.904c-.746-.01-1.154-.726-.781-1.372l8.096-13.518.002-.002c.189-.31.484-.464.779-.464zM12 8a1 1 0 0 0-1 1 1 1 0 0 0 1 1h.01a1 1 0 0 0 1-1 1 1 0 0 0-1-1zm-1 3a1 1 0 0 0-1 1 1 1 0 0 0 1 1v3a1 1 0 0 0 1 1h1a1 1 0 0 0 1-1 1 1 0 0 0-1-1v-3a1 1 0 0 0-1-1z"/></svg>