<svg xmlns="http://www.w3.org/2000/svg" width="24" height="24" viewBox="0 0 24 24"><path d="M12 1.67a2.91 2.91 0 0 0-2.49 1.402l-8.112 13.54-.097.185a2.914 2.914 0 0 0 2.582 4.2h16.224l.196-.009a2.914 2.914 0 0 0 2.306-4.363L14.494 3.076l-.103-.158A2.92 2.92 0 0 0 12 1.67zM12.01 8l.117.008a1 1 0 0 1 0 1.984L12 10l-.117-.008a1 1 0 0 1 0-1.984zM11 11h1l.117.008a1 1 0 0 1 .875.875L13 12v3l.117.006.112.02a1 1 0 0 1 .763.857L14 16l-.008.117a1 1 0 0 1-.875.875L13 17h-1l-.117-.008a1 1 0 0 1-.875-.875L11 16v-3l-.117-.008a1 1 0 0 1 0-1.984z"/></svg>