<svg xmlns="http://www.w3.org/2000/svg" width="24" height="24" viewBox="0 0 24 24"><path d="M12 2.006A9.97 9.97 0 0 0 4.93 4.93c-3.897 3.897-3.897 10.243 0 14.14s10.243 3.897 14.14 0 3.897-10.243 0-14.14A9.97 9.97 0 0 0 12 2.006zm0 1.988a7.97 7.97 0 0 1 5.656 2.35 7.983 7.983 0 0 1 0 11.312 7.983 7.983 0 0 1-11.312 0 7.983 7.983 0 0 1 0-11.312A7.97 7.97 0 0 1 12 3.994zm4.242 2.764a1 1 0 0 0-.707.293 1 1 0 0 0 0 1.414 4.983 4.983 0 0 1 0 7.07 1 1 0 0 0 0 1.414 1 1 0 0 0 1.414 0c2.726-2.725 2.726-7.173 0-9.898a1 1 0 0 0-.707-.293z"/></svg>