<svg xmlns="http://www.w3.org/2000/svg" width="24" height="24" viewBox="0 0 24 24"><path d="M8 3C5.25 3 3 5.25 3 8v8c0 2.75 2.25 5 5 5h8c2.75 0 5-2.25 5-5V8c0-2.75-2.25-5-5-5zm0 2h8c1.669 0 3 1.331 3 3v8c0 1.669-1.331 3-3 3H8c-1.669 0-3-1.331-3-3V8c0-1.669 1.331-3 3-3zm8.5 1.5a1 1 0 0 0-1 1v.01a1 1 0 0 0 1 1 1 1 0 0 0 1-1V7.5a1 1 0 0 0-1-1zM12 8c-.972 0-1.958.319-2.727 1.002S8 10.75 8 12s.505 2.315 1.273 2.998C10.043 15.681 11.028 16 12 16s1.958-.319 2.727-1.002S16 13.25 16 12s-.505-2.315-1.273-2.998C13.957 8.319 12.972 8 12 8zm0 2c.528 0 1.042.181 1.398.498.357.317.602.752.602 1.502s-.245 1.185-.602 1.502c-.356.317-.87.498-1.398.498s-1.042-.181-1.398-.498C10.245 13.185 10 12.75 10 12s.245-1.185.602-1.502c.356-.317.87-.498 1.398-.498z"/></svg>