<svg xmlns="http://www.w3.org/2000/svg" width="24" height="24" viewBox="0 0 24 24"><path d="M6 3C4.355 3 3 4.355 3 6v12c0 1.645 1.355 3 3 3h12c1.645 0 3-1.355 3-3V6c0-1.645-1.355-3-3-3zm0 2h12c.564 0 1 .436 1 1v12c0 .564-.436 1-1 1H6c-.564 0-1-.436-1-1V6c0-.564.436-1 1-1zm4 1a1 1 0 0 0-1 1v6a1 1 0 0 0 1 1 1 1 0 0 0 1-1V7a1 1 0 0 0-1-1zm4 0a1 1 0 0 0-1 1v6a1 1 0 0 0 1 1 1 1 0 0 0 1-1V7a1 1 0 0 0-1-1zM7 7a1 1 0 0 0-1 1v3a1 1 0 0 0 1 1 1 1 0 0 0 1-1V8a1 1 0 0 0-1-1zm10 0a1 1 0 0 0-1 1v3a1 1 0 0 0 1 1 1 1 0 0 0 1-1V8a1 1 0 0 0-1-1zM6.959 14a1 1 0 0 0-.791.445 1 1 0 0 0 .277 1.387C8.51 17.208 10.204 18 12 18s3.49-.792 5.555-2.168a1 1 0 0 0 .277-1.387 1 1 0 0 0-.637-.425 1 1 0 0 0-.75.148C14.51 15.458 13.204 16 12 16s-2.51-.541-4.445-1.832A1 1 0 0 0 6.959 14z"/></svg>