<svg xmlns="http://www.w3.org/2000/svg" width="24" height="24" viewBox="0 0 24 24"><path d="M12 1c-.418 0-.837.077-1.234.229l-.014.003-3.545 1.413a1 1 0 0 0-.559 1.298 1 1 0 0 0 1.3.56l3.534-1.407a1.46 1.46 0 0 1 1.036 0l5.066 2.017-5.037 1.774-.041.015c-.143.057-.35.096-.516.098A1 1 0 0 0 11 8.01a1 1 0 0 0 1.01.99c.413-.004.833-.08 1.24-.242l5.156-1.813-1.226 4.287-1.024.366a1 1 0 0 0-.611 1.275 1 1 0 0 0 1.275.61l.512-.182.508 1.78a1 1 0 0 0 1.236.687 1 1 0 0 0 .688-1.237L19.04 12l1.672-5.854v-.001a2.01 2.01 0 0 0-1.184-2.409l-6.281-2.504-.014-.003A3.5 3.5 0 0 0 12 1zM3 2a1 1 0 0 0-.707.293 1 1 0 0 0 0 1.414l1.09 1.09a2 2 0 0 0-.096 1.35L4.96 12l-1.672 5.854a2.01 2.01 0 0 0 1.184 2.41l6.281 2.504.014.003a3.46 3.46 0 0 0 2.468 0l.014-.003 5.795-2.311 1.25 1.25a1 1 0 0 0 1.414 0 1 1 0 0 0 0-1.414l-9-9L6.734 5.32 3.707 2.293A1 1 0 0 0 3 2zm2.62 5.033L11 12.414v.31l-4.18-1.492zm1.048 6.268 4.205 1.502c.042.015.085.025.127.039v5.87l-5.79-2.306h0v-.002zm6.652 1.433 4.184 4.184L13 20.713v-5.871c.042-.014.085-.024.127-.04v.003z"/></svg>