<svg xmlns="http://www.w3.org/2000/svg" width="24" height="24" viewBox="0 0 24 24"><path d="M4 3a1 1 0 0 0-.99 1.137l2 14.5a1 1 0 0 0 .674.812l6 2a1 1 0 0 0 .632 0l6-2a1 1 0 0 0 .674-.812l2-14.5A1 1 0 0 0 20 3zm1.146 2h13.708l-1.76 12.748L12 19.445l-5.094-1.697zM7.5 7a1 1 0 0 0-1 1 1 1 0 0 0 1 1h2v5.383l-.553-.278a1 1 0 0 0-1.342.448 1 1 0 0 0 .448 1.342l2 1A1 1 0 0 0 11.5 16V8a1 1 0 0 0-1-1zM14 7c-.817 0-1.5.683-1.5 1.5v3c0 .817.683 1.5 1.5 1.5h.846l-.24 1.693-1.348.336a1 1 0 0 0-.729 1.213 1 1 0 0 0 1.213.729l2-.5a1 1 0 0 0 .748-.83l.418-2.93c.125-.885-.59-1.71-1.484-1.711H14.5V9h2a1 1 0 0 0 1-1 1 1 0 0 0-1-1z"/></svg>