<svg xmlns="http://www.w3.org/2000/svg" width="24" height="24" viewBox="0 0 24 24"><path d="M14.275 2.08c-.814 0-1.512.209-2.017.62-.505.41-.76.94-.945 1.411l-.024.067-1.357 4.41H8.68c-.136-.269-.238-.546-.463-.797-.374-.418-1.012-.71-1.656-.71h-.008L4.156 7.1a2.08 2.08 0 0 0-1.59.726c-.41.475-.596 1.219-.398 1.928l2.207 9.398.008.037c.253.91.46 1.477.734 1.92.138.222.302.423.535.578.233.156.534.233.762.233h.64l.038-.002h6.806c.718 0 1.407-.146 1.98-.531.575-.385.98-.98 1.237-1.672l.016-.047 4.687-15.11-.02.06c.446-1.16-.517-2.538-1.878-2.538zm0 1.84h5.645c.32 0 .157.05.162.037l-.02.059-4.673 15.062c-.163.438-.335.648-.534.781-.199.134-.48.221-.957.221H8.201c.12-.275.24-.469.371-.822l.016-.049 4.441-14.438c.138-.345.26-.542.389-.646.13-.106.324-.205.857-.205zm-7.714 5c.251 0 .193-.006.285.096s.26.412.476.879a.92.92 0 0 0 .834.53h1.211l-2.52 8.192c-.15.406-.285.729-.402.98a11 11 0 0 1-.287-.894c-.001-.005-.002-.003-.004-.008l-2.207-9.4-.01-.037c-.051-.186-.016-.186.022-.23a.33.33 0 0 1 .197-.09h.008z"/></svg>