<svg xmlns="http://www.w3.org/2000/svg" width="24" height="24" viewBox="0 0 24 24"><path d="M7.992 4A2.6 2.6 0 0 0 6 4.957l-4.355 5.24-.006.008a2.85 2.85 0 0 0 0 3.59l.006.008 4.36 5.248A2.61 2.61 0 0 0 8 20h.008A2.6 2.6 0 0 0 10 19.043l4.355-5.24.006-.008a2.85 2.85 0 0 0 0-3.59l-.006-.008-4.36-5.248A2.6 2.6 0 0 0 8 4zm8.97 0a1 1 0 0 0-.58.213 1 1 0 0 0-.17 1.404l4.587 5.836.012.014a.836.836 0 0 1 0 1.066l-.012.014-4.586 5.836a1 1 0 0 0 .17 1.404 1 1 0 0 0 1.404-.17l4.574-5.822a2.85 2.85 0 0 0 0-3.59l-4.574-5.822A1 1 0 0 0 16.963 4zm-3.843.008a1 1 0 0 0-.736.205 1 1 0 0 0-.17 1.404l4.586 5.836.012.014a.836.836 0 0 1 0 1.066l-.012.014-4.586 5.836a1 1 0 0 0 .17 1.404 1 1 0 0 0 1.404-.17l4.574-5.822a2.85 2.85 0 0 0 0-3.59l-4.574-5.822a1 1 0 0 0-.668-.375zM8.004 6.002c.161.001.322.07.451.225l4.356 5.24a.836.836 0 0 1 0 1.066l-4.356 5.24-.006.008a.6.6 0 0 1-.453.217.59.59 0 0 1-.451-.225l-4.356-5.24a.836.836 0 0 1 0-1.066l4.356-5.24.006-.008a.6.6 0 0 1 .453-.217z"/></svg>