<svg xmlns="http://www.w3.org/2000/svg" width="24" height="24" viewBox="0 0 24 24"><path d="M11.992 4A2.6 2.6 0 0 0 10 4.957l-4.355 5.24-.006.008a2.85 2.85 0 0 0 0 3.59l.006.008 4.36 5.248A2.6 2.6 0 0 0 12 20h.008A2.6 2.6 0 0 0 14 19.043l4.355-5.24.006-.008a2.85 2.85 0 0 0 0-3.59l-.006-.008-4.36-5.248A2.6 2.6 0 0 0 12 4zm.012 2.002c.161.001.322.07.451.225l4.356 5.24a.836.836 0 0 1 0 1.066l-4.356 5.24-.006.008a.6.6 0 0 1-.453.217.59.59 0 0 1-.451-.225l-4.356-5.24a.836.836 0 0 1 0-1.066l4.356-5.24.006-.008a.6.6 0 0 1 .453-.217z"/></svg>