<svg xmlns="http://www.w3.org/2000/svg" width="24" height="24" viewBox="0 0 24 24"><path d="M18 2c-.972 0-1.958.319-2.727 1.002S14 4.75 14 6v5.8c-.7-.284-1.528-.489-2.46-.624l-.017-.002-.5-.065-.017-.002A18 18 0 0 0 9.002 11H9q-1.006 0-2.006.107l-.017.002-.5.065-.018.002c-1.135.165-2.117.429-2.9.82-.392.196-.74.422-1.03.736C2.24 13.047 2 13.494 2 14v1c0 3.854 3.146 7 7 7s7-3.146 7-7V6c0-.75.245-1.185.602-1.502C16.958 4.181 17.472 4 18 4s1.042.181 1.398.498C19.755 4.815 20 5.25 20 6a1 1 0 0 0 1 1 1 1 0 0 0 1-1c0-1.25-.505-2.315-1.273-2.998C19.957 2.319 18.972 2 18 2zM8.998 13H9c.627 0 1.227.034 1.785.096l.467.06c.987.143 1.807.386 2.295.63.173.085.24.15.32.214-.08.064-.148.129-.32.215-.488.244-1.307.486-2.293.629l-.465.06h-.008l-.011.002q-.883.096-1.768.094H9c-.627 0-1.227-.034-1.785-.096l-.467-.06c-.987-.143-1.807-.386-2.295-.63-.173-.085-.24-.15-.32-.214.08-.064.148-.129.32-.215.488-.244 1.307-.486 2.293-.629l.484-.062A16 16 0 0 1 8.998 13zm-4.832 3.268c.664.25 1.435.432 2.295.556l.016.002.5.065.017.002C7.628 16.963 8.301 17 9 17q1.006 0 2.006-.107l.017-.002.5-.065.018-.002c.858-.124 1.628-.307 2.291-.556A4.98 4.98 0 0 1 9 20a4.98 4.98 0 0 1-4.834-3.732z"/></svg>