<svg xmlns="http://www.w3.org/2000/svg" width="24" height="24" viewBox="0 0 24 24"><path d="M3 2a1 1 0 0 0-.707.293 1 1 0 0 0 0 1.414l3.822 3.822-2.01 4.024A1 1 0 0 0 5 13h6v6H9a1 1 0 0 0-1 1 1 1 0 0 0 1 1h6a1 1 0 0 0 1-1 1 1 0 0 0-1-1h-2v-4.586l7.293 7.293a1 1 0 0 0 1.414 0 1 1 0 0 0 0-1.414l-8.959-8.957-.01-.01a1 1 0 0 0-.074-.074L3.707 2.293A1 1 0 0 0 3 2zm6 1a1 1 0 0 0-.895.553l-.337.676a1 1 0 0 0 .447 1.341 1 1 0 0 0 1.342-.447L9.617 5h4.766l3 6H16a1 1 0 0 0-1 1 1 1 0 0 0 1 1h3a1 1 0 0 0 .895-1.447l-4-8A1 1 0 0 0 15 3zM7.607 9.021 9.586 11H6.617z"/></svg>