<svg xmlns="http://www.w3.org/2000/svg" width="24" height="24" viewBox="0 0 24 24"><path d="M9 2a1 1 0 0 0-1 1v1H4a1 1 0 0 0-1 1 1 1 0 0 0 1 1h3.955c-.14 1.634-.614 3.082-1.267 4.127l-.084.129C6.189 9.834 6 9.4 6 9a1 1 0 0 0-1-1 1 1 0 0 0-1 1c0 1.025.466 1.93 1.191 2.666A2.4 2.4 0 0 1 4 12a1 1 0 0 0-1 1 1 1 0 0 0 1 1c1.085 0 2.071-.421 2.91-1.11 1.323.673 2.965 1.066 4.766 1.11a1 1 0 0 0 1.023-.975A1 1 0 0 0 11.725 12c-1.301-.032-2.49-.29-3.432-.676l.09-.136C9.263 9.779 9.82 7.983 9.963 6H11a1 1 0 0 0 1-1 1 1 0 0 0-1-1h-1V3a1 1 0 0 0-1-1zm7 8a1 1 0 0 0-.914.594l-4 9a1 1 0 0 0 .508 1.32 1 1 0 0 0 1.32-.508L13.54 19h4.922l.625 1.406a1 1 0 0 0 1.32.508 1 1 0 0 0 .508-1.32l-4-9A1 1 0 0 0 16 10zm0 3.463L17.572 17h-3.144z"/></svg>