<svg xmlns="http://www.w3.org/2000/svg" width="24" height="24" viewBox="0 0 24 24"><path d="M12 2c-2.695 0-5.155.844-6.979 2.262S2 7.72 2 10c0 1.06.262 2.074.723 2.994A3.06 3.06 0 0 0 2 15c0 .917.38 1.731.96 2.248a2.95 2.95 0 0 0 1.075.606c.106 1.275.457 2.522 1.098 3.642a1 1 0 0 0 1.363.371 1 1 0 0 0 .371-1.363c-.456-.797-.728-1.71-.826-2.676a2.9 2.9 0 0 0 1.209-.789A12 12 0 0 0 12 18c2.695 0 5.155-.844 6.979-2.262S22 12.28 22 10s-1.198-4.32-3.021-5.738C17.155 2.844 14.695 2 12 2zm0 2c2.275 0 4.316.724 5.75 1.84C19.184 6.955 20 8.414 20 10s-.816 3.045-2.25 4.16S14.275 16 12 16c-1.467 0-2.834-.302-4.006-.814Q8 15.094 8 15c0-.917-.38-1.731-.96-2.248A3.05 3.05 0 0 0 5 12q-.26 0-.52.041A4.6 4.6 0 0 1 4 10c0-1.586.816-3.045 2.25-4.16S9.725 4 12 4zM5 14c.278 0 .542.098.71.248.17.15.29.335.29.752q0 .15-.021.264l-.002.004a1 1 0 0 0-.075.24.8.8 0 0 1-.191.244c-.169.15-.433.248-.711.248s-.542-.098-.71-.248C4.12 15.602 4 15.417 4 15s.12-.602.29-.752a1 1 0 0 1 .144-.103 1 1 0 0 0 .154-.065l.016-.012C4.725 14.025 4.86 14 5 14z"/></svg>