<svg xmlns="http://www.w3.org/2000/svg" width="24" height="24" viewBox="0 0 24 24"><path d="M4.982 2a1 1 0 0 0-.312.057 1 1 0 0 0-.63.668l-2 7a1 1 0 0 0 .007.576l.807 2.55C2.333 13.372 2 14.142 2 15c0 .917.38 1.731.96 2.248a2.95 2.95 0 0 0 1.075.606c.106 1.275.457 2.522 1.098 3.642a1 1 0 0 0 1.363.371 1 1 0 0 0 .371-1.363c-.456-.797-.728-1.71-.826-2.676.358-.123.699-.314.998-.58q.176-.158.326-.35l4.399 1.073a1 1 0 0 0 .552-.022l9-3a1 1 0 0 0 .678-1.06l-1-9a1 1 0 0 0-1.346-.825l-7.5 2.813-6.566-4.691a1 1 0 0 0-.6-.186zm.59 2.639 5.846 4.175a1 1 0 0 0 .934.122l6.796-2.55.768 6.92-7.959 2.655L8 14.994c-.002-.914-.381-1.727-.96-2.242A3.05 3.05 0 0 0 5 12q-.156 0-.312.016l-.643-2.03zM5 14c.278 0 .542.098.71.248.17.15.29.335.29.752 0 .137-.014.246-.037.34a1 1 0 0 0-.078.168l-.002.039a.8.8 0 0 1-.172.205c-.169.15-.433.248-.711.248s-.542-.098-.71-.248C4.12 15.602 4 15.417 4 15s.12-.602.29-.752l.067-.055a1 1 0 0 0 .247-.125C4.725 14.025 4.86 14 5 14z"/></svg>