<svg xmlns="http://www.w3.org/2000/svg" width="24" height="24" viewBox="0 0 24 24"><path d="M3 2a1 1 0 0 0-.707.293 1 1 0 0 0 0 1.414l2.91 2.91c-1.565 1.761-2.21 4.032-2.217 6.381V13c0 .886.049 2.927 1.614 4.936-.285.94-.48 1.928-.594 2.953a1 1 0 0 0 .883 1.105 1 1 0 0 0 1.105-.883A16 16 0 0 1 6.364 19H9c2.553 0 4.887-.534 6.807-1.78l4.486 4.487a1 1 0 0 0 1.414 0 1 1 0 0 0 0-1.414l-5.004-5.002-4.629-4.63a1 1 0 0 0-.086-.087L3.707 2.293A1 1 0 0 0 3 2zm12.986 1c-2.957 0-5.34.416-7.24 1.193A1 1 0 0 0 8.2 5.496a1 1 0 0 0 1.305.547C11.09 5.394 13.218 5 15.986 5H19v.955c-.188 3.252-.92 5.633-2.018 7.313a1 1 0 0 0 .29 1.382 1 1 0 0 0 1.384-.289c1.349-2.062 2.141-4.803 2.342-8.304L21 6V4a1 1 0 0 0-1-1zM6.621 8.035l3.068 3.069a11.75 11.75 0 0 0-4.142 4.5c-.524-1.043-.56-1.944-.56-2.604.005-1.962.484-3.638 1.634-4.965zm4.522 4.522 3.212 3.213C12.892 16.608 11.102 17 9 17H7.045c.821-1.823 2.126-3.302 4.098-4.443z"/></svg>