<svg xmlns="http://www.w3.org/2000/svg" width="24" height="24" viewBox="0 0 24 24"><path d="M15.986 3C11.338 3 8.08 4.031 5.961 5.87c-2.119 1.837-2.967 4.43-2.975 7.128V13c0 .886.048 2.928 1.614 4.938a16.4 16.4 0 0 0-.594 2.95 1 1 0 0 0 .883 1.106 1 1 0 0 0 1.105-.883q.122-1.11.367-2.111H9c3.285 0 6.219-.892 8.352-3.025s3.387-5.407 3.646-9.918L21 6V4a1 1 0 0 0-1-1zm0 2H19v.953c-.242 4.194-1.376 6.92-3.062 8.608C14.25 16.249 11.933 17 9 17H7.041c.983-2.19 2.663-3.885 5.365-5.086a1 1 0 0 0 .508-1.32 1 1 0 0 0-.555-.528 1 1 0 0 0-.765.02c-2.858 1.27-4.817 3.182-6.045 5.521-.526-1.044-.563-1.946-.563-2.607.007-2.3.658-4.207 2.285-5.62C8.9 5.97 11.634 5 15.986 5z"/></svg>