<svg xmlns="http://www.w3.org/2000/svg" width="24" height="24" viewBox="0 0 24 24"><path d="M5 2C3.355 2 2 3.355 2 5v14c0 1.645 1.355 3 3 3h14c1.645 0 3-1.355 3-3V5c0-1.645-1.355-3-3-3zm0 2h14c.564 0 1 .436 1 1v14c0 .564-.436 1-1 1H5c-.564 0-1-.436-1-1V5c0-.564.436-1 1-1zm5.06 3.002a1 1 0 0 0-.507.103 1 1 0 0 0-.448 1.342L10.883 12l-1.778 3.553a1 1 0 0 0 .448 1.342 1 1 0 0 0 1.342-.448L12 14.237l1.105 2.21a1 1 0 0 0 1.342.448 1 1 0 0 0 .448-1.342L13.117 12l1.778-3.553a1 1 0 0 0-.448-1.342 1 1 0 0 0-.763-.054 1 1 0 0 0-.579.502L12 9.763l-1.105-2.21a1 1 0 0 0-.579-.502 1 1 0 0 0-.255-.049z"/></svg>