<svg xmlns="http://www.w3.org/2000/svg" width="24" height="24" viewBox="0 0 24 24"><path d="M17.5 4c-1.097 0-2.208.36-3.07 1.127C13.567 5.894 13 7.083 13 8.5V19a1 1 0 0 0 1 1 1 1 0 0 0 1-1v-5h5v5a1 1 0 0 0 1 1 1 1 0 0 0 1-1V8.5c0-1.417-.567-2.606-1.43-3.373C19.708 4.36 18.597 4 17.5 4zm0 2c.653 0 1.292.223 1.742.623S20 7.583 20 8.5V12h-5V8.5c0-.917.308-1.477.758-1.877S16.848 6 17.5 6zm-11 5c-1.097 0-2.208.36-3.07 1.127C2.567 12.894 2 14.083 2 15.5s.567 2.606 1.43 3.373C4.292 19.64 5.403 20 6.5 20c.883 0 1.775-.234 2.54-.725A1 1 0 0 0 10 20a1 1 0 0 0 1-1v-7a1 1 0 0 0-1-1 1 1 0 0 0-.96.725A4.7 4.7 0 0 0 6.5 11zm0 2c.653 0 1.292.223 1.742.623S9 14.583 9 15.5s-.308 1.477-.758 1.877S7.152 18 6.5 18c-.653 0-1.292-.223-1.742-.623S4 16.417 4 15.5s.308-1.477.758-1.877S5.848 13 6.5 13z"/></svg>