<svg xmlns="http://www.w3.org/2000/svg" width="24" height="24" viewBox="0 0 24 24"><path d="M6.5 4c-1.097 0-2.208.36-3.07 1.127C2.567 5.894 2 7.083 2 8.5V19a1 1 0 0 0 1 1 1 1 0 0 0 1-1v-5h5v5a1 1 0 0 0 1 1 1 1 0 0 0 1-1V8.5c0-1.417-.567-2.606-1.43-3.373C8.708 4.36 7.597 4 6.5 4zm11 0c-1.097 0-2.208.36-3.07 1.127C13.567 5.894 13 7.083 13 8.5V19a1 1 0 0 0 1 1 1 1 0 0 0 1-1v-5h5v5a1 1 0 0 0 1 1 1 1 0 0 0 1-1V8.5c0-1.417-.567-2.606-1.43-3.373C19.708 4.36 18.597 4 17.5 4zm-11 2c.653 0 1.292.223 1.742.623S9 7.583 9 8.5V12H4V8.5c0-.917.308-1.477.758-1.877S5.848 6 6.5 6zm11 0c.653 0 1.292.223 1.742.623S20 7.583 20 8.5V12h-5V8.5c0-.917.308-1.477.758-1.877S16.848 6 17.5 6z"/></svg>