<svg xmlns="http://www.w3.org/2000/svg" width="24" height="24" viewBox="0 0 24 24"><path d="M5.5 3c-.597 0-1.208.194-1.695.627S3 4.75 3 5.5V10a1 1 0 0 0 1 1 1 1 0 0 0 1-1V9h1v1a1 1 0 0 0 1 1 1 1 0 0 0 1-1V5.5c0-.75-.317-1.44-.805-1.873A2.53 2.53 0 0 0 5.5 3zm0 2a.58.58 0 0 1 .367.123C5.942 5.19 6 5.25 6 5.5V7H5V5.5c0-.25.058-.31.133-.377A.58.58 0 0 1 5.5 5zM11 5a1 1 0 0 0-1 1 1 1 0 0 0 1 1h9a1 1 0 0 0 1-1 1 1 0 0 0-1-1zm0 6a1 1 0 0 0-1 1 1 1 0 0 0 1 1h9a1 1 0 0 0 1-1 1 1 0 0 0-1-1zm-7 2a1 1 0 0 0-1 1v6a1 1 0 0 0 1 1h1.5c.75 0 1.44-.317 1.873-.805A2.53 2.53 0 0 0 8 18.5c0-.528-.22-1.045-.555-1.5.335-.455.555-.972.555-1.5 0-.597-.194-1.208-.627-1.695S6.25 13 5.5 13zm1 2h.5c.25 0 .31.058.377.133A.58.58 0 0 1 6 15.5a.58.58 0 0 1-.123.367C5.81 15.942 5.75 16 5.5 16H5zm6 2a1 1 0 0 0-1 1 1 1 0 0 0 1 1h9a1 1 0 0 0 1-1 1 1 0 0 0-1-1zm-6 1h.5c.25 0 .31.058.377.133A.58.58 0 0 1 6 18.5a.58.58 0 0 1-.123.367C5.81 18.942 5.75 19 5.5 19H5z"/></svg>