<svg xmlns="http://www.w3.org/2000/svg" width="24" height="24" viewBox="0 0 24 24"><path d="M6 3C4.355 3 3 4.355 3 6v2a1 1 0 0 0 1 1 1 1 0 0 0 1-1V6c0-.564.436-1 1-1h2a1 1 0 0 0 1-1 1 1 0 0 0-1-1zm10 0a1 1 0 0 0-1 1 1 1 0 0 0 1 1h2c.564 0 1 .436 1 1v2a1 1 0 0 0 1 1 1 1 0 0 0 1-1V6c0-1.645-1.355-3-3-3zm-4 3.064c-3.762 0-6.197 4.128-4.375 7.42a1 1 0 0 0 .057.09l3.5 5a1 1 0 0 0 .148.096 1 1 0 0 0 .096.148 1 1 0 0 0 .215.047 1 1 0 0 0 .359.08 1 1 0 0 0 .36-.08 1 1 0 0 0 .214-.047 1 1 0 0 0 .158-.19 1 1 0 0 0 .086-.054l3.5-5a1 1 0 0 0 .057-.09c1.822-3.292-.613-7.42-4.375-7.42zm0 2c2.326 0 3.744 2.4 2.629 4.438L12 16.256l-2.629-3.754A2.967 2.967 0 0 1 12 8.064zM12 10a1 1 0 0 0-1 1v.01a1 1 0 0 0 1 1 1 1 0 0 0 1-1V11a1 1 0 0 0-1-1zm-8 5a1 1 0 0 0-1 1v2c0 1.645 1.355 3 3 3h2a1 1 0 0 0 1-1 1 1 0 0 0-1-1H6c-.564 0-1-.436-1-1v-2a1 1 0 0 0-1-1zm16 0a1 1 0 0 0-1 1v2c0 .564-.436 1-1 1h-2a1 1 0 0 0-1 1 1 1 0 0 0 1 1h2c1.645 0 3-1.355 3-3v-2a1 1 0 0 0-1-1z"/></svg>