<svg xmlns="http://www.w3.org/2000/svg" width="24" height="24" viewBox="0 0 24 24"><path d="M20.904 2.004a1 1 0 0 0-.244.055l-18 6.5-.076.033c-1.14.522-1.14 2.294 0 2.816l-.031-.013 6.7 3.351 1.852 3.701a1 1 0 0 0 1.342.448 1 1 0 0 0 .448-1.342l-2-4a1 1 0 0 0-.448-.448l-6.074-3.037 14.961-5.402-2.176 6.03a1 1 0 0 0 .602 1.279 1 1 0 0 0 1.28-.602l2.9-8.033a1 1 0 0 0-1.037-1.336zM19 14a4 4 0 0 0-3.695 2.469 4 4 0 0 0 .867 4.36c.464.465 1.18 1.096 2.185 1.939a1 1 0 0 0 1.29-.004c1.058-.897 1.765-1.52 2.181-1.938a4 4 0 0 0 .867-4.357A4 4 0 0 0 19 14zm0 2c.933 0 1.555.527 1.848 1.234.293.708.226 1.52-.434 2.18h-.002c-.21.212-.845.758-1.412 1.25-.551-.476-1.157-.994-1.412-1.25h-.002c-.66-.66-.727-1.472-.434-2.18C17.445 16.527 18.067 16 19 16zm0 1a1 1 0 0 0-1 1v.01a1 1 0 0 0 1 1 1 1 0 0 0 1-1V18a1 1 0 0 0-1-1z"/></svg>