<svg xmlns="http://www.w3.org/2000/svg" width="24" height="24" viewBox="0 0 24 24"><path d="M20.904 2.004a1 1 0 0 0-.244.055l-18 6.5-.076.033c-1.14.522-1.14 2.294 0 2.816l-.031-.013 6.7 3.351 1.852 3.701a1 1 0 0 0 1.342.448 1 1 0 0 0 .448-1.342l-2-4a1 1 0 0 0-.448-.448l-6.074-3.037 14.961-5.402-2.635 7.303a1 1 0 0 0 .6 1.279 1 1 0 0 0 1.281-.6l3.361-9.308a1 1 0 0 0-1.037-1.336zM19 15a1 1 0 0 0-1 1v2h-2a1 1 0 0 0-1 1 1 1 0 0 0 1 1h2v2a1 1 0 0 0 1 1 1 1 0 0 0 1-1v-2h2a1 1 0 0 0 1-1 1 1 0 0 0-1-1h-2v-2a1 1 0 0 0-1-1z"/></svg>