<svg xmlns="http://www.w3.org/2000/svg" width="24" height="24" viewBox="0 0 24 24"><path d="M20.904 2.004a1 1 0 0 0-.244.055l-18 6.5-.076.033c-1.14.522-1.14 2.294 0 2.816l-.031-.013 6.7 3.351 3.352 6.701-.013-.031c.522 1.14 2.294 1.14 2.816 0l.033-.076.524-1.45a1 1 0 0 0-.602-1.28 1 1 0 0 0-1.279.6l-.152.419-3.037-6.076a1 1 0 0 0-.448-.448l-6.074-3.037 14.961-5.402-2.592 7.18a1 1 0 0 0 .602 1.281 1 1 0 0 0 1.279-.602l3.318-9.185a1 1 0 0 0-1.037-1.336zM19 15a1 1 0 0 0-1 1v3a1 1 0 0 0 1 1 1 1 0 0 0 1-1v-3a1 1 0 0 0-1-1zm0 6a1 1 0 0 0-1 1v.01a1 1 0 0 0 1 1 1 1 0 0 0 1-1V22a1 1 0 0 0-1-1z"/></svg>