<svg xmlns="http://www.w3.org/2000/svg" width="24" height="24" viewBox="0 0 24 24"><path d="M12 1c-1.222 0-2.458.402-3.414 1.252S7 4.417 7 6v4c-1.645 0-3 1.355-3 3v6c0 1.645 1.355 3 3 3h10c1.645 0 3-1.355 3-3v-6c0-1.645-1.355-3-3-3H9V6c0-1.083.37-1.769.914-2.252S11.222 3 12 3s1.542.265 2.086.748S15 4.917 15 6a1 1 0 0 0 1 1 1 1 0 0 0 1-1c0-1.583-.63-2.898-1.586-3.748S13.222 1 12 1zM7 12h10c.564 0 1 .436 1 1v6c0 .564-.436 1-1 1H7c-.564 0-1-.436-1-1v-6c0-.564.436-1 1-1zm5 2c-.472 0-.958.152-1.352.502-.206.183-.226.512-.34.785A1 1 0 0 0 10 16a1 1 0 0 0 .309.713c.113.273.133.602.34.785.393.35.879.502 1.351.502s.958-.152 1.352-.502c.393-.35.648-.915.648-1.498s-.255-1.148-.648-1.498A2.02 2.02 0 0 0 12 14z"/></svg>