<svg xmlns="http://www.w3.org/2000/svg" width="24" height="24" viewBox="0 0 24 24"><path d="M4.885 4.008a1 1 0 0 0-.346.105A1 1 0 0 0 4 5v3H2a1 1 0 0 0-1 1 1 1 0 0 0 1 1h2v4H2a1 1 0 0 0-1 1 1 1 0 0 0 1 1h2v3a1 1 0 0 0 1.574.818l8.865-6.205c.146.242.321.457.522.635A3.05 3.05 0 0 0 17 15a3.05 3.05 0 0 0 2.04-.752c.357-.318.638-.75.802-1.248H22a1 1 0 0 0 1-1 1 1 0 0 0-1-1h-2.158a2.86 2.86 0 0 0-.803-1.248A3.05 3.05 0 0 0 17 9a3.05 3.05 0 0 0-2.04.752c-.2.178-.375.393-.52.635L5.573 4.182a1 1 0 0 0-.69-.174zM6 6.92 13.256 12 6 17.08zM17 11c.278 0 .542.098.71.248.17.15.29.335.29.752s-.12.602-.29.752c-.168.15-.432.248-.71.248s-.542-.098-.71-.248c-.17-.15-.29-.335-.29-.752s.12-.602.29-.752A1.1 1.1 0 0 1 17 11z"/></svg>