<svg xmlns="http://www.w3.org/2000/svg" width="24" height="24" viewBox="0 0 24 24"><path d="M5 3C3.355 3 2 4.355 2 6v10c0 1.645 1.355 3 3 3h7a1 1 0 0 0 1-1 1 1 0 0 0-1-1H5c-.564 0-1-.436-1-1V7.87l7.445 4.962a1 1 0 0 0 1.11 0L20 7.869V13.5a1 1 0 0 0 1 1 1 1 0 0 0 1-1V6l-.002-.04-.002-.04A3.014 3.014 0 0 0 19 3zm0 2h14c.396 0 .725.216.889.54L12 10.798l-7.889-5.26A.98.98 0 0 1 5 5zm13 9a1 1 0 0 0-.707.293 1 1 0 0 0 0 1.414L18.586 17H15a1 1 0 0 0-1 1 1 1 0 0 0 1 1h3.586l-1.293 1.293a1 1 0 0 0 0 1.414 1 1 0 0 0 1.414 0l3-3a1 1 0 0 0 .072-.082l.002-.002.002-.004a1 1 0 0 0 .115-.183l.002-.002v-.002a1 1 0 0 0 .07-.196l.007-.027A1 1 0 0 0 22 18l-.004-.088-.01-.076-.002-.01-.015-.072-.004-.012-.02-.066-.006-.018-.007-.017-.026-.063-.027-.055-.014-.023-.043-.068-.004-.006-.029-.04-.023-.029-.006-.005-.053-.059-.03-.03-2.97-2.97A1 1 0 0 0 18 14z"/></svg>