<svg xmlns="http://www.w3.org/2000/svg" width="24" height="24" viewBox="0 0 24 24"><path d="M5 4C3.355 4 2 5.355 2 7v10c0 1.645 1.355 3 3 3h8.5a1 1 0 0 0 1-1 1 1 0 0 0-1-1H5c-.564 0-1-.436-1-1V8.87l7.445 4.962a1 1 0 0 0 1.11 0L20 8.869V13a1 1 0 0 0 1 1 1 1 0 0 0 1-1V7l-.002-.04-.002-.04A3.014 3.014 0 0 0 19 4zm0 2h14c.396 0 .725.216.889.54L12 11.798l-7.889-5.26A.98.98 0 0 1 5 6zm12 10a1 1 0 0 0-.707.293 1 1 0 0 0 0 1.414l1.793 1.793-1.793 1.793a1 1 0 0 0 0 1.414 1 1 0 0 0 1.414 0l1.793-1.793 1.793 1.793a1 1 0 0 0 1.414 0 1 1 0 0 0 0-1.414L20.914 19.5l1.793-1.793a1 1 0 0 0 0-1.414 1 1 0 0 0-1.414 0L19.5 18.086l-1.793-1.793A1 1 0 0 0 17 16z"/></svg>