<svg xmlns="http://www.w3.org/2000/svg" width="24" height="24" viewBox="0 0 24 24"><path d="M5 4C3.355 4 2 5.355 2 7v10c0 1.645 1.355 3 3 3h5.5a1 1 0 0 0 1-1 1 1 0 0 0-1-1H5c-.564 0-1-.436-1-1V8.87l7.445 4.962a1 1 0 0 0 1.11 0l2.982-1.988L20 8.869V11a1 1 0 0 0 1 1 1 1 0 0 0 1-1V7l-.002-.04-.002-.04A3.014 3.014 0 0 0 19 4zm0 2h14c.396 0 .725.216.889.54l-5.461 3.64L12 11.799l-7.889-5.26A.98.98 0 0 1 5 6zm11.219 8.006a3.24 3.24 0 0 0-2.264.91 3.16 3.16 0 0 0-.012 4.502l3.356 3.295a1 1 0 0 0 1.4.002l3.348-3.281a3.16 3.16 0 0 0 .008-4.504c-1.064-1.04-2.621-1.005-3.854-.278l.274.27c-.13-.127-.326-.091-.471-.192-.147.101-.343.064-.475.192l.276-.272c-.507-.3-1.012-.643-1.586-.644zm-.004 1.988c.31 0 .62.12.865.36l.219.216a1 1 0 0 0 1.404.002l.223-.22-.004.005a1.23 1.23 0 0 1 1.734.002v.002c.47.459.47 1.18-.002 1.637l-.004.004L18 20.6l-2.654-2.61-.002-.002a1.126 1.126 0 0 1 .004-1.636 1.24 1.24 0 0 1 .867-.358z"/></svg>