<svg xmlns="http://www.w3.org/2000/svg" width="24" height="24" viewBox="0 0 24 24"><path d="M5 4C3.355 4 2 5.355 2 7v10c0 1.645 1.355 3 3 3h7a1 1 0 0 0 1-1 1 1 0 0 0-1-1H5c-.564 0-1-.436-1-1V8.87l7.445 4.962a1 1 0 0 0 1.11 0L20 8.869V12a1 1 0 0 0 1 1 1 1 0 0 0 1-1V7l-.002-.04-.002-.04A3.014 3.014 0 0 0 19 4zm0 2h14c.396 0 .725.216.889.54L12 11.798l-7.889-5.26A.98.98 0 0 1 5 6zm14 9c-.972 0-1.958.319-2.727 1.002S15 17.75 15 19s.505 2.315 1.273 2.998C17.043 22.681 18.028 23 19 23s1.958-.319 2.727-1.002S23 20.25 23 19s-.505-2.315-1.273-2.998C20.957 15.319 19.972 15 19 15zm0 2q.268.002.523.063l-2.472 2.472A2.7 2.7 0 0 1 17 19c0-.75.245-1.185.602-1.502.356-.317.87-.498 1.398-.498zm1.95 1.465q.049.237.05.535c0 .75-.245 1.185-.602 1.502-.356.317-.87.498-1.398.498q-.268-.002-.523-.062z"/></svg>