<svg xmlns="http://www.w3.org/2000/svg" width="24" height="24" viewBox="0 0 24 24"><path d="M3 2a1 1 0 0 0-.707.293 1 1 0 0 0 0 1.414l.906.906A3 3 0 0 0 2 7v10c0 1.645 1.355 3 3 3h13.586l1.707 1.707a1 1 0 0 0 1.414 0 1 1 0 0 0 0-1.414l-18-18A1 1 0 0 0 3 2zm6 2a1 1 0 0 0-1 1 1 1 0 0 0 1 1h10c.396 0 .725.216.889.54l-5.444 3.628a1 1 0 0 0-.277 1.387 1 1 0 0 0 1.387.277L20 8.869V17a1 1 0 0 0 1 1 1 1 0 0 0 1-1V7l-.002-.04-.002-.04A3.014 3.014 0 0 0 19 4zM4.648 6.063l2.504 2.503-3.04-2.027a.97.97 0 0 1 .536-.476zM4 8.869l7.445 4.963a1 1 0 0 0 1.012.04L16.586 18H5c-.564 0-1-.436-1-1z"/></svg>