<svg xmlns="http://www.w3.org/2000/svg" width="24" height="24" viewBox="0 0 24 24"><path d="M8 2C5.815 2 4.097 3.357 3.38 5.086c-.715 1.729-.46 3.904 1.085 5.45l2.828 2.827a1 1 0 0 0 1.414 0l2.828-2.828c1.545-1.545 1.8-3.72 1.084-5.45C11.903 3.358 10.185 2 8 2zm0 2c1.379 0 2.334.796 2.771 1.852.438 1.055.325 2.294-.65 3.27L8 11.241l-2.121-2.12c-.975-.976-1.088-2.215-.65-3.27C5.666 4.796 6.62 4 8 4zm0 2a1 1 0 0 0-1 1v.01a1 1 0 0 0 1 1 1 1 0 0 0 1-1V7a1 1 0 0 0-1-1zm8 4c-2.185 0-3.903 1.357-4.62 3.086-.715 1.729-.46 3.904 1.085 5.45l2.828 2.827a1 1 0 0 0 1.414 0l2.828-2.828c1.545-1.545 1.8-3.72 1.084-5.45C19.903 11.358 18.185 10 16 10zm0 2c1.379 0 2.334.796 2.771 1.852.438 1.055.325 2.294-.65 3.27L16 19.241l-2.121-2.12c-.975-.976-1.088-2.215-.65-3.27C13.666 12.796 14.62 12 16 12zm0 2a1 1 0 0 0-1 1v.01a1 1 0 0 0 1 1 1 1 0 0 0 1-1V15a1 1 0 0 0-1-1z"/></svg>