<svg xmlns="http://www.w3.org/2000/svg" width="24" height="24" viewBox="0 0 24 24"><path d="M9 3a1 1 0 0 0-.396.094l-.051.011-6 3A1 1 0 0 0 2 7v13a1 1 0 0 0 1.447.895L9 18.117l3.553 1.778a1 1 0 0 0 1.342-.448 1 1 0 0 0-.448-1.342L10 16.383V5.617l4 2V12.5a1 1 0 0 0 1 1 1 1 0 0 0 1-1V7.617l4-2V12.5a1 1 0 0 0 1 1 1 1 0 0 0 1-1V4a1 1 0 0 0-1.447-.895L15 5.883 9.447 3.105l-.006-.001A1 1 0 0 0 9 3zM8 5.617v10.766l-4 2V7.617zM16 15a1 1 0 0 0-1 1v.01a1 1 0 0 0 1 1 1 1 0 0 0 1-1V16a1 1 0 0 0-1-1zm5 0a1 1 0 0 0-.707.293l-5 5a1 1 0 0 0 0 1.414 1 1 0 0 0 1.414 0l5-5a1 1 0 0 0 0-1.414A1 1 0 0 0 21 15zm0 5a1 1 0 0 0-1 1v.01a1 1 0 0 0 1 1 1 1 0 0 0 1-1V21a1 1 0 0 0-1-1z"/></svg>