<svg xmlns="http://www.w3.org/2000/svg" width="24" height="24" viewBox="0 0 24 24"><path d="M12.148 2.002a8.9 8.9 0 0 0-3.81.777C2.602 5.335 1.197 12.923 5.637 17.363l4.242 4.244c.209.21.448.387.709.526a1 1 0 0 0 1.353-.412 1 1 0 0 0-.412-1.354 1 1 0 0 1-.234-.174L7.05 15.95A6.974 6.974 0 0 1 9.152 4.605a6.974 6.974 0 0 1 9.838 6.026 1 1 0 0 0 1.051.945 1 1 0 0 0 .947-1.05c-.248-4.704-4.014-8.147-8.3-8.497a9 9 0 0 0-.54-.027zm-.222 5.018q-.1 0-.201.005a3.84 3.84 0 0 0-2.086.748c-2.593 1.898-1.912 6.067 1.15 7.04a1 1 0 0 0 1.256-.65 1 1 0 0 0-.65-1.257c-1.62-.514-1.947-2.516-.577-3.52C12.188 8.385 14 9.302 14 11a1 1 0 0 0 1 1 1 1 0 0 0 1-1c0-2.334-1.992-3.982-4.074-3.98zm5.875 6.023c-.502 0-1.006.242-1.248.728v.002l-.854 1.723-1.902.275c-1.082.15-1.559 1.616-.774 2.375l1.377 1.338-.326 1.891-.002.012c-.172 1.068 1.058 1.954 2.018 1.455l.002-.002 1.709-.895 1.703.893c.963.51 2.205-.39 2.02-1.465l.001.002-.326-1.89 1.38-1.34.001-.002c.778-.76.304-2.215-.771-2.372h-.002l-1.907-.275-.853-1.723v-.002c-.242-.486-.744-.728-1.246-.728zm0 2.719.54 1.092a1 1 0 0 0 .753.546l1.2.174-.866.842a1 1 0 0 0-.29.887l.206 1.193-1.08-.564a1 1 0 0 0-.928 0l-1.08.566.205-1.195a1 1 0 0 0-.29-.887l-.866-.842 1.2-.174a1 1 0 0 0 .755-.546z"/></svg>