<svg xmlns="http://www.w3.org/2000/svg" width="24" height="24" viewBox="0 0 24 24"><path d="M3 2a1 1 0 0 0-.707.293 1 1 0 0 0 0 1.414l.898.898A3 3 0 0 0 2 7.002V17c0 1.645 1.355 3 3 3h13.586l1.707 1.707a1 1 0 0 0 1.414 0 1 1 0 0 0 0-1.414l-9.969-9.967a1 1 0 0 0-.064-.064l-.967-.969-7-7A1 1 0 0 0 3 2zm6 2a1 1 0 0 0-1 1 1 1 0 0 0 1 1h10c.564 0 1 .436 1 1v10a1 1 0 0 0 1 1 1 1 0 0 0 1-1V7c0-1.645-1.355-3-3-3zM4.648 6.063l2.004 2.003-.035.01A1 1 0 0 0 6 9v6a1 1 0 0 0 1 1 1 1 0 0 0 1-1v-3.586l.293.293a1 1 0 0 0 1.414 0l.293-.293V15a1 1 0 0 0 1 1 1 1 0 0 0 1-1v-1.586L16.586 18H5c-.564 0-1-.436-1-1V6.998a.98.98 0 0 1 .648-.936zM16 8a1 1 0 0 0-1 1v3a1 1 0 0 0 1 1 1 1 0 0 0 1-1V9a1 1 0 0 0-1-1zm1.889 4.006a1 1 0 0 0-.596.287l-.5.5a1 1 0 0 0 0 1.414 1 1 0 0 0 1.414 0l.5-.5a1 1 0 0 0 0-1.414 1 1 0 0 0-.818-.287z"/></svg>