<svg xmlns="http://www.w3.org/2000/svg" width="24" height="24" viewBox="0 0 24 24"><path d="M5 3c-1.093 0-2 .907-2 2v1a1 1 0 0 0 1 1 1 1 0 0 0 1-1V5h1a1 1 0 0 0 1-1 1 1 0 0 0-1-1zm6 0a1 1 0 0 0-1 1 1 1 0 0 0 1 1h2a1 1 0 0 0 1-1 1 1 0 0 0-1-1zm7 0a1 1 0 0 0-1 1 1 1 0 0 0 1 1h1v1a1 1 0 0 0 1 1 1 1 0 0 0 1-1V5c0-1.093-.907-2-2-2zM4 10a1 1 0 0 0-1 1v2a1 1 0 0 0 1 1 1 1 0 0 0 1-1v-2a1 1 0 0 0-1-1zm16 0a1 1 0 0 0-1 1v2a1 1 0 0 0 1 1 1 1 0 0 0 1-1v-2a1 1 0 0 0-1-1zM4 17a1 1 0 0 0-1 1v1c0 1.093.907 2 2 2h1a1 1 0 0 0 1-1 1 1 0 0 0-1-1H5v-1a1 1 0 0 0-1-1zm16 0a1 1 0 0 0-1 1v1h-1a1 1 0 0 0-1 1 1 1 0 0 0 1 1h1c1.093 0 2-.907 2-2v-1a1 1 0 0 0-1-1zm-9 2a1 1 0 0 0-1 1 1 1 0 0 0 1 1h2a1 1 0 0 0 1-1 1 1 0 0 0-1-1z"/></svg>