<svg xmlns="http://www.w3.org/2000/svg" width="24" height="24" viewBox="0 0 24 24"><path d="M3 2a1 1 0 0 0-.707.293 1 1 0 0 0-.012 1.396q-.164.135-.308.293a3 3 0 0 0-.768 2.291l.566 6.184A5.01 5.01 0 0 0 6.75 17h1.5q.239 0 .477-.021a1 1 0 0 0 .9-1.09 1 1 0 0 0-1.09-.903A3 3 0 0 1 8.25 15h-1.5a2.987 2.987 0 0 1-2.986-2.727l-.569-6.181a1 1 0 0 1 .258-.766l.006-.006a1 1 0 0 1 .25-.197l1.943 1.943A1 1 0 0 0 5 8a1 1 0 0 0 1 1h.01a1 1 0 0 0 .931-.645l3.3 3.3.53 5.802A5.01 5.01 0 0 0 15.75 22h1.5c.925 0 1.826-.255 2.605-.73l.438.437a1 1 0 0 0 1.414 0 1 1 0 0 0 0-1.414l-.936-.936a1 1 0 0 0-.076-.093 1 1 0 0 0-.082-.065l-2.85-2.85a1 1 0 0 0-.199-.199l-5.591-5.591a1 1 0 0 0-.094-.094l-7.131-7.13-1.041-1.042A1 1 0 0 0 3 2zm5 1a1 1 0 0 0-1 1 1 1 0 0 0 1 1h2.809c.564 0 1 .436 1 1a1 1 0 0 0 1 1 1 1 0 0 0 1-1c0-1.645-1.355-3-3-3zm5 5a1 1 0 0 0-1 1 1 1 0 0 0 1 1h6.809c.604 0 1.051.49.996 1.092l-.555 6.04a1 1 0 0 0 .904 1.089 1 1 0 0 0 1.088-.907l.553-6.039C22.955 9.533 21.558 8 19.809 8zm-5.486 2.512a3.5 3.5 0 0 0-.512.04 3.9 3.9 0 0 0-1.557.616 1 1 0 0 0-.277 1.387 1 1 0 0 0 1.387.277c.568-.38.925-.419 1.402-.25a1 1 0 0 0 1.277-.61 1 1 0 0 0-.609-1.275 3.3 3.3 0 0 0-1.111-.185zM18 12a1 1 0 0 0-1 1 1 1 0 0 0 1 1h.01a1 1 0 0 0 1-1 1 1 0 0 0-1-1zm-5.549 1.865 1.889 1.889a1 1 0 0 0-.172.191 1 1 0 0 0 .277 1.387c.652.434 1.395.677 2.137.664l1.787 1.787A3 3 0 0 1 17.25 20h-1.5a2.987 2.987 0 0 1-2.986-2.727z"/></svg>