<svg xmlns="http://www.w3.org/2000/svg" width="24" height="24" viewBox="0 0 24 24"><path d="M3 2a1 1 0 0 0-.707.293 1 1 0 0 0 0 1.414l1.004 1.004A3 3 0 0 0 3 6v12c0 1.645 1.355 3 3 3h12c.452 0 .891-.104 1.291-.295l1.002 1.002a1 1 0 0 0 1.414 0 1 1 0 0 0 0-1.414l-1.516-1.516a1 1 0 0 0-.066-.076l-.03-.02-5.163-5.163a1 1 0 0 0-.102-.12l-.07-.052-4.086-4.086a1 1 0 0 0-.076-.09l-.063-.049-5.197-5.197-.041-.047-.018-.012-1.572-1.572A1 1 0 0 0 3 2zm5 1a1 1 0 0 0-1 1 1 1 0 0 0 1 1h10c.564 0 1 .436 1 1v10a1 1 0 0 0 1 1 1 1 0 0 0 1-1V6c0-1.645-1.355-3-3-3zM5 6.414l3.543 3.543c-.446.71-.645 1.492-.604 2.232.059 1.033.534 1.96 1.225 2.65.691.691 1.618 1.163 2.65 1.22.74.04 1.52-.157 2.229-.602L17.586 19H6c-.564 0-1-.436-1-1zm8.19 1.873a1 1 0 0 0-.254.055 1 1 0 0 0-.567.515 1 1 0 0 0 .479 1.33c.421.199.76.537.96.958a1 1 0 0 0 1.333.474 1 1 0 0 0 .474-1.332A4 4 0 0 0 13.7 8.38a1 1 0 0 0-.51-.092zm-3.17 3.147 2.546 2.546a1.7 1.7 0 0 1-.64.082c-.478-.026-.974-.263-1.35-.638-.376-.376-.612-.87-.639-1.348a1.7 1.7 0 0 1 .083-.642z"/></svg>