<svg xmlns="http://www.w3.org/2000/svg" width="24" height="24" viewBox="0 0 24 24"><path d="M11.145 2.004c-.51.007-1.202.038-1.963.13-1.55.19-3.409.542-4.582 1.884-.74.845-1.2 1.713-1.403 2.705S3 8.788 3 10.309v.023l.025 1.137c.019 3.374.8 5.824 2.098 7.517s3.089 2.562 4.863 2.87c1.775.307 3.548.094 5.034-.325s2.654-.972 3.394-1.738a1 1 0 0 0-.789-1.691 17 17 0 0 1-4.648-.28c.502-.005.82.025 1.794-.101 1.522-.198 3.337-.551 4.573-1.75a4.8 4.8 0 0 0 1.273-2.088c.272-.9.383-2.004.383-3.572 0-1.521.006-2.596-.197-3.588s-.663-1.86-1.403-2.705c-1.173-1.342-3.033-1.694-4.582-1.883-1.522-.187-2.774-.123-2.818-.121-.022-.001-.347-.017-.855-.01zm.052 1.998c.462-.007.754.008.754.008a1 1 0 0 0 .098 0s1.17-.057 2.527.11c1.358.165 2.82.647 3.319 1.216h.001c.59.673.805 1.103.946 1.789S19 8.795 19 10.311c0 1.467-.117 2.398-.297 2.994s-.386.877-.752 1.232c-.58.564-2.089 1.024-3.437 1.2-1.349.174-2.485.144-2.485.144h-.043a17.3 17.3 0 0 1-3.107-.242 1 1 0 0 0-1.037 1.478c.722 1.271 2.031 2.12 3.695 2.578.388.107.873.133 1.305.203-.833.1-1.685.13-2.514-.013-1.39-.241-2.65-.854-3.617-2.115s-1.669-3.24-1.686-6.313v-.016L5 10.31v-.006c0-1.511.018-2.495.158-3.18.14-.686.356-1.116.946-1.789h.001c.498-.569 1.961-1.049 3.319-1.215a17 17 0 0 1 1.773-.117zM10 5C8.28 5 7 6.545 7 8.277V13a1 1 0 0 0 1 1 1 1 0 0 0 1-1V8.277C9 7.494 9.51 7 10 7s1 .494 1 1.277v2.926a1 1 0 0 0 1 1 1 1 0 0 0 1-1V8.277C13 7.494 13.51 7 14 7s1 .494 1 1.277V13a1 1 0 0 0 1 1 1 1 0 0 0 1-1V8.277C17 6.545 15.72 5 14 5c-.795 0-1.476.355-2 .88-.524-.525-1.205-.88-2-.88z"/></svg>