<svg xmlns="http://www.w3.org/2000/svg" width="24" height="24" viewBox="0 0 24 24"><path d="M11 2c-.833 0-1.592.52-2.008 1.154-.416.635-.642 1.383-.842 2.246-.398 1.728-.64 3.955-1.13 6.405-.51 2.55-.768 4.823-1.12 6.345-.175.762-.386 1.327-.564 1.598S5.166 20 5 20c-.564 0-1-.436-1-1a1 1 0 0 0-1-1 1 1 0 0 0-1 1c0 1.645 1.355 3 3 3 .833 0 1.592-.52 2.008-1.154.416-.635.642-1.383.842-2.246.398-1.728.64-3.955 1.13-6.405.51-2.55.768-4.823 1.12-6.345.175-.762.386-1.327.564-1.598S10.834 4 11 4c.564 0 1 .436 1 1a1 1 0 0 0 1 1 1 1 0 0 0 1-1c0-1.645-1.355-3-3-3zm8 0c-.833 0-1.592.52-2.008 1.154-.416.635-.642 1.383-.842 2.246-.398 1.728-.64 3.955-1.13 6.405-.51 2.55-.768 4.823-1.12 6.345-.175.762-.386 1.327-.564 1.598S13.166 20 13 20c-.564 0-1-.436-1-1a1 1 0 0 0-1-1 1 1 0 0 0-1 1c0 1.645 1.355 3 3 3 .833 0 1.592-.52 2.008-1.154.416-.635.642-1.383.842-2.246.398-1.728.64-3.955 1.13-6.405.51-2.55.768-4.823 1.12-6.345.175-.762.386-1.327.564-1.598S18.834 4 19 4c.564 0 1 .436 1 1a1 1 0 0 0 1 1 1 1 0 0 0 1-1c0-1.645-1.355-3-3-3z"/></svg>