<svg xmlns="http://www.w3.org/2000/svg" width="24" height="24" viewBox="0 0 24 24"><path d="M21 2a1 1 0 0 0-.707.293l-2.682 2.682A8.95 8.95 0 0 0 12 3c-4.959 0-9 4.041-9 9 0 2.12.741 4.07 1.975 5.611l-2.682 2.682a1 1 0 0 0 0 1.414 1 1 0 0 0 1.414 0l2.682-2.682A8.95 8.95 0 0 0 12 21c4.959 0 9-4.041 9-9a8.95 8.95 0 0 0-1.975-5.611l2.682-2.682a1 1 0 0 0 0-1.414A1 1 0 0 0 21 2zm-9 3a6.98 6.98 0 0 1 4.197 1.389L6.39 16.197A6.98 6.98 0 0 1 5 12c0-3.878 3.122-7 7-7zm5.611 2.803A6.98 6.98 0 0 1 19 12c0 3.878-3.122 7-7 7a6.98 6.98 0 0 1-4.197-1.389z"/></svg>