<svg xmlns="http://www.w3.org/2000/svg" width="24" height="24" viewBox="0 0 24 24"><path d="M8 3a1 1 0 0 0-1 1v6a1 1 0 0 0 1 1 1 1 0 0 0 1-1V4a1 1 0 0 0-1-1zm4 0a1 1 0 0 0-1 1v3a1 1 0 0 0 1 1 1 1 0 0 0 1-1V4a1 1 0 0 0-1-1zm4 0a1 1 0 0 0-1 1v6a1 1 0 0 0 1 1 1 1 0 0 0 1-1V4a1 1 0 0 0-1-1zm-4 7a1 1 0 0 0-.895.553l-1.271 2.545-2.498.416a1 1 0 0 0-.543 1.693l1.646 1.647-.43 3.005a1 1 0 0 0 1.438 1.036L12 19.617l2.553 1.278a1 1 0 0 0 1.437-1.036l-.43-3.005 1.647-1.647a1 1 0 0 0-.543-1.693l-2.498-.416-1.271-2.545A1 1 0 0 0 12 10zm0 3.236.605 1.211a1 1 0 0 0 .73.54l1.085.179-.627.627a1 1 0 0 0-.283.848l.23 1.611-1.293-.647a1 1 0 0 0-.894 0l-1.293.647.23-1.611a1 1 0 0 0-.283-.848l-.627-.627 1.084-.18a1 1 0 0 0 .73-.539z"/></svg>