<svg xmlns="http://www.w3.org/2000/svg" width="24" height="24" viewBox="0 0 24 24"><path d="M3 2a1 1 0 0 0-.707.293 1 1 0 0 0 0 1.414L4.236 5.65a2 2 0 0 0-.396.485l-1 1.73a2.016 2.016 0 0 0 .732 2.733L6 12l-2.428 1.402a2.016 2.016 0 0 0-.732 2.733l1 1.73a2.016 2.016 0 0 0 2.732.733L9 17.195V20c0 1.093.907 2 2 2h2c1.093 0 2-.907 2-2v-2.803l1.854 1.07 3.439 3.44a1 1 0 0 0 1.414 0 1 1 0 0 0 0-1.414l-2.81-2.81a1 1 0 0 0-.47-.616l-.347-.201L3.707 2.293A1 1 0 0 0 3 2zm8 0c-1.093 0-2 .907-2 2v2a1 1 0 0 0 1 1 1 1 0 0 0 1-1V4h2v4.535a1 1 0 0 0 1.5.865l3.928-2.265 1 1.73-3.928 2.27a1 1 0 0 0 0 1.73l3.928 2.27-.24.416a1 1 0 0 0 .367 1.367 1 1 0 0 0 1.365-.367l.24-.416a2.016 2.016 0 0 0-.732-2.733L18 12l2.428-1.402a2.016 2.016 0 0 0 .732-2.733l-1-1.73a2.016 2.016 0 0 0-2.732-.733L15 6.802V4c0-1.093-.907-2-2-2zM5.572 7.135l.334.191.01.004 7.404 7.404a1 1 0 0 0-.32.73V20h-2v-4.535a1 1 0 0 0-1.5-.867l-3.928 2.267-1-1.73 3.928-2.27a1 1 0 0 0 0-1.73l-3.928-2.27z"/></svg>