<svg xmlns="http://www.w3.org/2000/svg" width="24" height="24" viewBox="0 0 24 24"><path d="M11 2c-1.093 0-2 .907-2 2v2.803l-2.428-1.4a2.016 2.016 0 0 0-2.732.732l-1 1.73a2.016 2.016 0 0 0 .732 2.733L6 12l-2.428 1.402a2.016 2.016 0 0 0-.732 2.733l1 1.73a2.016 2.016 0 0 0 2.732.733L9 17.195V20c0 1.093.907 2 2 2h2c1.093 0 2-.907 2-2v-2.803l2.428 1.403a2.016 2.016 0 0 0 2.732-.733l1-1.732a2.016 2.016 0 0 0-.732-2.733L18 12l2.428-1.402a2.016 2.016 0 0 0 .732-2.733l-1-1.73a2.016 2.016 0 0 0-2.732-.733L15 6.802V4c0-1.093-.907-2-2-2zm0 2h2v4.535a1 1 0 0 0 1.5.865l3.928-2.265 1 1.73-3.928 2.27a1 1 0 0 0 0 1.73l3.928 2.27-1 1.732-3.928-2.27a1 1 0 0 0-1.5.868V20h-2v-4.535a1 1 0 0 0-1.5-.867l-3.928 2.267-1-1.73 3.928-2.27a1 1 0 0 0 0-1.73l-3.928-2.27 1-1.73L9.5 9.4a1 1 0 0 0 1.5-.865z"/></svg>