<svg xmlns="http://www.w3.org/2000/svg" width="24" height="24" viewBox="0 0 24 24"><path d="M12 2a3.75 3.75 0 0 0-3.318 1.963c-.425.788-.457 1.559-.516 2.293-1.023.29-2.234.664-3.398 1.305-.684.375-1.323.808-1.838 1.353S2 10.167 2 11c0 .708.387 1.318.828 1.701.442.384.95.62 1.461.803.335.12.566.09.889.162-.363.408-.766.854-1.182 1.355C3.035 16.181 2 17.437 2 19c0 1.093.907 2 2 2h5c.458 0 .802-.217 1.033-.42.232-.203.396-.42.549-.65.307-.46.563-.983.813-1.483.22-.44.425-.824.605-1.117.18.293.385.677.605 1.117.25.5.506 1.022.813 1.483.153.23.317.447.549.65.231.203.575.42 1.033.42h5c1.093 0 2-.907 2-2 0-1.563-1.035-2.818-1.996-3.979-.416-.501-.819-.947-1.182-1.355.323-.073.554-.042.889-.162.511-.183 1.02-.42 1.46-.803.442-.383.829-.993.829-1.701 0-.833-.415-1.541-.93-2.086s-1.154-.978-1.838-1.353c-1.164-.64-2.375-1.015-3.398-1.305-.059-.734-.091-1.505-.516-2.293A3.75 3.75 0 0 0 12 2zm0 2c.917 0 1.244.331 1.557.912S14 6.362 14 7a1 1 0 0 0 .758.97c.924.232 2.376.721 3.51 1.344.566.312 1.052.66 1.35.975.297.315.382.544.382.711 0 .042.012.057-.14.19-.153.132-.457.301-.82.431-.728.26-1.707.379-2.04.379a1 1 0 0 0-.87 1.494c.255.446.597.82 1.009 1.285.411.466.882.985 1.324 1.518C19.346 17.363 20 18.563 20 19h-4.777c-.038-.042-.073-.078-.141-.18-.193-.29-.437-.767-.687-1.267s-.506-1.022-.813-1.483a3 3 0 0 0-.549-.65c-.231-.203-.575-.42-1.033-.42s-.802.217-1.033.42c-.232.203-.396.42-.549.65-.307.46-.563.983-.813 1.483s-.494.978-.687 1.267c-.068.102-.103.138-.14.18H4c0-.437.654-1.637 1.537-2.703.442-.533.913-1.052 1.324-1.518s.754-.84 1.008-1.285A1 1 0 0 0 7 12c-.333 0-1.312-.12-2.04-.379-.363-.13-.667-.3-.82-.432S4 11.042 4 11c0-.167.085-.396.383-.71.297-.316.783-.664 1.35-.976 1.133-.623 2.585-1.112 3.51-1.343A1 1 0 0 0 10 7c0-.639.13-1.507.443-2.088.313-.58.64-.912 1.557-.912z"/></svg>