<svg xmlns="http://www.w3.org/2000/svg" width="24" height="24" viewBox="0 0 24 24"><path d="M17.5 2.344a1 1 0 0 0-.73.275l-4.342 4.152a1 1 0 0 0-.088 1.352c1.232 1.53.792 3.041-.262 4.049-1.053 1.008-2.585 1.381-4.058.082a1 1 0 0 0-1.352.03l-4.344 4.152a1 1 0 0 0-.008 1.437A10.97 10.97 0 0 0 10.002 21c6.062-.001 10.997-4.936 10.998-10.998a10.96 10.96 0 0 0-2.793-7.326 1 1 0 0 0-.707-.332zm-.234 2.568C18.318 6.415 19.003 8.146 19 9.998V10c0 4.983-4.017 9-9 9h-.002c-1.988.003-3.835-.776-5.396-1.975l2.918-2.789c2.06 1.227 4.462.796 5.94-.619 1.48-1.415 2.016-3.795.882-5.908z"/></svg>