<svg xmlns="http://www.w3.org/2000/svg" width="24" height="24" viewBox="0 0 24 24"><path d="M6 3C3.803 3 2 4.803 2 7v8c0 2.197 1.803 4 4 4h2.586l2.707 2.707a1 1 0 0 0 1.414 0l2.5-2.5a1 1 0 0 0 0-1.414 1 1 0 0 0-1.414 0L12 19.586l-2.293-2.293A1 1 0 0 0 9 17H6c-1.116 0-2-.884-2-2V7c0-1.116.884-2 2-2h12c1.116 0 2 .884 2 2v4.5a1 1 0 0 0 1 1 1 1 0 0 0 1-1V7c0-2.197-1.803-4-4-4zm2 5a1 1 0 0 0-1 1 1 1 0 0 0 1 1h8a1 1 0 0 0 1-1 1 1 0 0 0-1-1zm0 4a1 1 0 0 0-1 1 1 1 0 0 0 1 1h6a1 1 0 0 0 1-1 1 1 0 0 0-1-1zm11.04 2.002a3 3 0 0 0-2.304 1.053 1 1 0 0 0 .118 1.41 1 1 0 0 0 1.41-.117.97.97 0 0 1 1.193-.24c.53.275.617.69.512 1.124-.106.436-.372.766-.973.768A1 1 0 0 0 18 19.004a1 1 0 0 0 1.004.996c1.495-.005 2.615-1.084 2.908-2.297s-.211-2.686-1.539-3.373l-.004-.002a2.96 2.96 0 0 0-1.33-.326zM19 21a1 1 0 0 0-1 1v.01a1 1 0 0 0 1 1 1 1 0 0 0 1-1V22a1 1 0 0 0-1-1z"/></svg>