<svg xmlns="http://www.w3.org/2000/svg" width="24" height="24" viewBox="0 0 24 24"><path d="M6 3C3.803 3 2 4.803 2 7v8c0 2.197 1.803 4 4 4h1v2a1 1 0 0 0 1.514.857l3.998-2.398a1 1 0 0 0 .343-1.373 1 1 0 0 0-1.37-.342L9 19.234V18a1 1 0 0 0-1-1H6c-1.116 0-2-.884-2-2V7c0-1.116.884-2 2-2h12c1.116 0 2 .884 2 2v5.5a1 1 0 0 0 1 1 1 1 0 0 0 1-1V7c0-2.197-1.803-4-4-4zm2 5a1 1 0 0 0-1 1 1 1 0 0 0 1 1h8a1 1 0 0 0 1-1 1 1 0 0 0-1-1zm0 4a1 1 0 0 0-1 1 1 1 0 0 0 1 1h6a1 1 0 0 0 1-1 1 1 0 0 0-1-1zm11 3a1 1 0 0 0-1 1v3.586l-1.293-1.293a1 1 0 0 0-1.414 0 1 1 0 0 0 0 1.414l3 3 .041.031a1 1 0 0 0 .117.09 1 1 0 0 0 .08.049 1 1 0 0 0 .168.07l.055.02A1 1 0 0 0 19 23a1 1 0 0 0 .246-.033l.055-.02a1 1 0 0 0 .168-.07 1 1 0 0 0 .08-.049 1 1 0 0 0 .117-.09l.041-.031 3-3a1 1 0 0 0 0-1.414 1 1 0 0 0-1.414 0L20 19.586V16a1 1 0 0 0-1-1z"/></svg>