<svg xmlns="http://www.w3.org/2000/svg" width="24" height="24" viewBox="0 0 24 24"><path d="M12.031 2.967c-2.182-.003-4.373.641-6.209 1.943-3.74 2.655-4.767 7.408-2.58 11.201l-1.191 3.573a1 1 0 0 0 1.158 1.295l4.437-.946c1.378.603 2.855.95 4.362.947a1 1 0 0 0 .998-1.001 1 1 0 0 0-1.002-.999 8.9 8.9 0 0 1-3.87-.88 1 1 0 0 0-.642-.079l-2.99.637.746-2.242a1 1 0 0 0-.12-.877c-2.033-3.007-1.286-6.772 1.85-8.998s7.734-2.034 10.618.426c1.766 1.506 2.556 3.523 2.398 5.504a1 1 0 0 0 .918 1.076 1 1 0 0 0 1.076-.918c.21-2.625-.873-5.29-3.093-7.184-1.814-1.546-4.103-2.374-6.428-2.468q-.218-.01-.436-.01zM19 15a1 1 0 0 0-1 1v3.586l-1.293-1.293a1 1 0 0 0-1.414 0 1 1 0 0 0 0 1.414l3 3 .041.031a1 1 0 0 0 .117.09 1 1 0 0 0 .08.049 1 1 0 0 0 .168.07l.055.02A1 1 0 0 0 19 23a1 1 0 0 0 .246-.033l.055-.02a1 1 0 0 0 .168-.07 1 1 0 0 0 .08-.049 1 1 0 0 0 .117-.09l.041-.031 3-3a1 1 0 0 0 0-1.414 1 1 0 0 0-1.414 0L20 19.586V16a1 1 0 0 0-1-1z"/></svg>