<svg xmlns="http://www.w3.org/2000/svg" width="24" height="24" viewBox="0 0 24 24"><path d="M6 3C3.803 3 2 4.803 2 7v8c0 2.197 1.803 4 4 4h1v2a1 1 0 0 0 1.514.857L13.277 19H18c2.197 0 4-1.803 4-4V7c0-2.197-1.803-4-4-4zm0 2h12c1.116 0 2 .884 2 2v8c0 1.116-.884 2-2 2h-5a1 1 0 0 0-.514.143L9 19.234V18a1 1 0 0 0-1-1H6c-1.116 0-2-.884-2-2V7c0-1.116.884-2 2-2zm5 2a1 1 0 0 0-.707.293l-3 3a1 1 0 0 0-.158.207A1 1 0 0 0 7 11a1 1 0 0 0 .135.5 1 1 0 0 0 .158.207l3 3a1 1 0 0 0 1.414 0 1 1 0 0 0 0-1.414L10.414 12H16a1 1 0 0 0 1-1 1 1 0 0 0-1-1h-5.586l1.293-1.293a1 1 0 0 0 0-1.414A1 1 0 0 0 11 7z"/></svg>