<svg xmlns="http://www.w3.org/2000/svg" width="24" height="24" viewBox="0 0 24 24"><path d="M12.031 2.967c-2.182-.003-4.373.641-6.209 1.943-3.74 2.655-4.767 7.408-2.58 11.201l-1.191 3.573a1 1 0 0 0 1.158 1.295l4.47-.952c.89.387 1.81.708 2.772.844a1 1 0 0 0 1.13-.851 1 1 0 0 0-.85-1.13 8.8 8.8 0 0 1-2.594-.79 1 1 0 0 0-.645-.079l-2.99.637.746-2.242a1 1 0 0 0-.12-.877c-2.033-3.007-1.286-6.772 1.85-8.998s7.734-2.034 10.618.426c1.386 1.183 2.168 2.683 2.367 4.228a1 1 0 0 0 1.119.864 1 1 0 0 0 .865-1.12c-.263-2.046-1.31-4.007-3.052-5.494-1.814-1.546-4.103-2.374-6.428-2.468q-.218-.01-.436-.01zm4.188 11.039a3.24 3.24 0 0 0-2.264.91 3.16 3.16 0 0 0-.012 4.502l3.356 3.295a1 1 0 0 0 1.4.002l3.348-3.281a3.16 3.16 0 0 0 .008-4.504c-1.064-1.04-2.621-1.005-3.854-.278l.274.27c-.13-.127-.326-.091-.471-.192-.147.101-.343.064-.475.192l.276-.272c-.507-.3-1.012-.643-1.586-.644zm-.004 1.988c.31 0 .62.12.865.36l.219.216a1 1 0 0 0 1.404.002l.223-.22-.004.005a1.23 1.23 0 0 1 1.734.002v.002c.47.459.47 1.18-.002 1.637l-.004.004L18 20.6l-2.654-2.61-.002-.002a1.126 1.126 0 0 1 .004-1.636 1.24 1.24 0 0 1 .867-.358z"/></svg>