<svg xmlns="http://www.w3.org/2000/svg" width="24" height="24" viewBox="0 0 24 24"><path d="M6 3C3.803 3 2 4.803 2 7v8c0 2.197 1.803 4 4 4h1v2a1 1 0 0 0 1.514.857l5-3a1 1 0 0 0 .343-1.37 1 1 0 0 0-1.37-.344L9 19.234V18a1 1 0 0 0-1-1H6c-1.116 0-2-.884-2-2V7c0-1.116.884-2 2-2h12c1.116 0 2 .884 2 2v4.5a1 1 0 0 0 1 1 1 1 0 0 0 1-1V7c0-2.197-1.803-4-4-4zm13 11a3.05 3.05 0 0 0-2.04.752c-.58.517-.96 1.331-.96 2.248 0 .893.36 1.689.916 2.207A3.02 3.02 0 0 0 15 22a1 1 0 0 0 1 1 1 1 0 0 0 1-1c0-.564.436-1 1-1h2c.564 0 1 .436 1 1a1 1 0 0 0 1 1 1 1 0 0 0 1-1c0-1.263-.8-2.354-1.916-2.793.556-.518.916-1.314.916-2.207 0-.917-.38-1.731-.96-2.248A3.05 3.05 0 0 0 19 14zm0 2c.278 0 .542.098.71.248.17.15.29.335.29.752s-.12.602-.29.752c-.168.15-.432.248-.71.248s-.542-.098-.71-.248c-.17-.15-.29-.335-.29-.752s.12-.602.29-.752A1.1 1.1 0 0 1 19 16z"/></svg>