<svg xmlns="http://www.w3.org/2000/svg" width="24" height="24" viewBox="0 0 24 24"><path d="M12.031 2.967c-2.182-.003-4.373.641-6.209 1.943-3.74 2.655-4.767 7.408-2.58 11.201l-1.191 3.573a1 1 0 0 0 .02.265 1 1 0 0 0-.05.26l.07.045a1 1 0 0 0 .593.695 1 1 0 0 0 .431-.031 1 1 0 0 0 .094.06l4.48-.953c4.298 1.867 9.46.833 12.356-2.681 2.989-3.627 2.475-8.805-1.15-11.899-1.814-1.546-4.103-2.374-6.428-2.468q-.218-.01-.436-.01zm-.363 2.03q.357-.015.715.001c1.902.077 3.77.74 5.213 1.969 2.884 2.46 3.249 6.26.906 9.103s-6.821 3.75-10.365 2.03a1 1 0 0 0-.645-.079l-2.99.637.746-2.242a1 1 0 0 0-.12-.877c-2.033-3.007-1.286-6.772 1.85-8.998 1.373-.973 3.024-1.484 4.69-1.545z"/></svg>