<svg xmlns="http://www.w3.org/2000/svg" width="24" height="24" viewBox="0 0 24 24"><path d="M12.03 2a3.67 3.67 0 0 0-3.04 1.652c-1.424.196-2.813 1.074-3.996 2.446-1.2 1.39-2.01 3.31-1.947 5.408C1.244 13.02.713 14.955 1.2 16.59c.52 1.744 1.852 3.14 3.139 4.185a1 1 0 0 0 1.406-.144 1 1 0 0 0-.144-1.406c-1.109-.901-2.16-2.127-2.483-3.207s-.207-2.006 1.438-3.211a1 1 0 0 0 .4-.936c-.213-1.641.502-3.253 1.55-4.469C7.558 6.187 9.008 5.5 9.489 5.5a1 1 0 0 0 .946-.672c.156-.45.875-.828 1.595-.828s1.37.346 1.537.828a1 1 0 0 0 .946.672c.48 0 1.932.687 2.98 1.902 1.049 1.216 1.764 2.828 1.551 4.47a1 1 0 0 0 .4.935c1.645 1.205 1.76 2.13 1.438 3.21s-1.374 2.307-2.483 3.208a1 1 0 0 0-.144 1.406 1 1 0 0 0 1.406.144c1.287-1.046 2.618-2.441 3.139-4.185.488-1.635-.043-3.57-1.846-5.084.063-2.098-.748-4.018-1.947-5.408-1.18-1.37-2.568-2.244-3.988-2.442C14.33 2.598 13.178 2 12.029 2zM9 8c-.694 0-1.255.47-1.559 1.01C7.138 9.55 7 10.208 7 11s.138 1.45.441 1.99C7.745 13.53 8.306 14 9 14s1.255-.47 1.559-1.01c.303-.54.441-1.198.441-1.99s-.138-1.45-.441-1.99C10.255 8.47 9.694 8 9 8zm6 0c-.694 0-1.255.47-1.559 1.01C13.138 9.55 13 10.208 13 11s.138 1.45.441 1.99c.304.54.865 1.01 1.559 1.01s1.255-.47 1.559-1.01c.303-.54.441-1.198.441-1.99s-.138-1.45-.441-1.99C16.255 8.47 15.694 8 15 8zm2.059 7a1 1 0 0 0-.895.45 9.4 9.4 0 0 1-.797 1.054 1.64 1.64 0 0 0-1.004-.496c-.548-.056-1.097.224-1.457.611-.324.35-.566.788-.781 1.36-1.003-.11-2.176-.65-3.512-1.684a1 1 0 0 0-1.404.178 1 1 0 0 0 .178 1.402c1.86 1.44 3.716 2.272 5.578 2.104 1.862-.169 3.52-1.376 4.87-3.428a1 1 0 0 0-.284-1.387 1 1 0 0 0-.492-.164z"/></svg>