<svg xmlns="http://www.w3.org/2000/svg" width="24" height="24" viewBox="0 0 24 24"><path d="M5.5 2a3.39 3.39 0 0 0-2.945 1.715c-.547.967-.684 2.107-.553 3.203S2.535 9.09 3.295 9.9c.367.392.844.704 1.383.887A7.9 7.9 0 0 0 4 14c0 4.406 3.594 8 8 8s8-3.594 8-8a7.95 7.95 0 0 0-.625-3.092c1.837-.374 3.352-1.885 3.59-3.873.318-2.66-1.785-5.032-4.463-5.035H18.5c-2.466 0-4.347 1.99-4.486 4.258A8 8 0 0 0 12 6c-.694 0-1.369.088-2.012.256C9.848 3.99 7.966 2 5.502 2zm-.002 2H5.5c1.7 0 2.825 1.561 2.389 3.143a8.1 8.1 0 0 0-2.067 1.783c-.454.052-.76-.065-1.068-.393-.371-.396-.676-1.107-.766-1.853-.09-.747.04-1.508.307-1.98.267-.473.548-.7 1.203-.7zm13 0h.002a2.482 2.482 0 0 1 2.479 2.797c-.169 1.406-1.43 2.313-2.795 2.137a8.1 8.1 0 0 0-2.073-1.791C15.675 5.563 16.8 4 18.498 4zM12 8c1.003 0 1.946.245 2.775.676l.01.008a6 6 0 0 1 2.078 1.804l.03.032A6 6 0 0 1 18 14c0 3.326-2.674 6-6 6s-6-2.674-6-6c0-1.303.412-2.505 1.111-3.486l.026-.028a6 6 0 0 1 2.078-1.8l.021-.016A6 6 0 0 1 12 8z"/></svg>