<svg xmlns="http://www.w3.org/2000/svg" width="24" height="24" viewBox="0 0 24 24"><path d="M16.025 1.994c-1.01 0-2.003.256-2.87.723-2.01 1.08-3.44 3.34-3.118 5.978l-7.205 8.23.047-.048c-.649.648-.957 1.491-.912 2.268s.4 1.465.91 1.976 1.196.864 1.973.91c.757.045 1.578-.247 2.22-.863l8.233-7.205c2.64.321 4.9-1.113 5.98-3.123 1.148-2.137 1.014-5.025-1.045-7.082a5.9 5.9 0 0 0-4.213-1.764zm.133 1.975c.92.024 1.853.39 2.666 1.203 1.447 1.445 1.477 3.268.697 4.72-.743 1.385-2.174 2.339-4.042 2.073L12.033 8.52c-.267-1.867.685-3.298 2.069-4.042a4.1 4.1 0 0 1 2.056-.51zm-5.012 6.496 2.391 2.387-7.783 6.81-.049.045c-.295.295-.51.342-.736.328a1.1 1.1 0 0 1-.678-.328 1.1 1.1 0 0 1-.328-.678c-.013-.225.033-.442.328-.736l.047-.049z"/></svg>