<svg xmlns="http://www.w3.org/2000/svg" width="24" height="24" viewBox="0 0 24 24"><path d="M11.82 3.018a1 1 0 0 0-.334.125l-5 3A1 1 0 0 0 6 7v13a1 1 0 0 0 1 1h10a1 1 0 0 0 1-1V7a1 1 0 0 0-.486-.857l-5-3a1 1 0 0 0-.694-.125zM12 5.166l4 2.4V19H8V7.566zm-.092 1.838a1 1 0 0 0-.355.101l-2 1a1 1 0 0 0-.448 1.342 1 1 0 0 0 1.342.448L12 9.117l1.553.778a1 1 0 0 0 1.342-.448 1 1 0 0 0-.448-1.342l-2-1a1 1 0 0 0-.539-.101zm0 4a1 1 0 0 0-.355.101l-2 1a1 1 0 0 0-.448 1.342 1 1 0 0 0 1.342.448L12 13.117l1.553.778a1 1 0 0 0 1.342-.448 1 1 0 0 0-.448-1.342l-2-1a1 1 0 0 0-.539-.101zm0 4a1 1 0 0 0-.355.101l-2 1a1 1 0 0 0-.448 1.342 1 1 0 0 0 1.342.448L12 17.117l1.553.778a1 1 0 0 0 1.342-.448 1 1 0 0 0-.448-1.342l-2-1a1 1 0 0 0-.539-.101z"/></svg>