<svg xmlns="http://www.w3.org/2000/svg" width="24" height="24" viewBox="0 0 24 24"><path d="M11.78 1.023a1 1 0 0 0-.397.19C9.915 2.366 8.345 3.602 7.11 5.193S5 8.77 5 11.227c0 1.82.564 3.309 1.62 4.763 1.006 1.388 2.443 2.834 4.38 4.906V22a1 1 0 0 0 1 1 1 1 0 0 0 1-1v-1.104c1.937-2.072 3.374-3.518 4.38-4.906 1.056-1.454 1.62-2.942 1.62-4.763 0-2.457-.877-4.442-2.111-6.034s-2.804-2.827-4.272-3.98a1 1 0 0 0-.838-.19zM11 4.164v13.777c-1.17-1.24-2.173-2.315-2.762-3.127C7.34 13.576 7 12.68 7 11.227c0-1.998.658-3.476 1.691-4.809.631-.814 1.446-1.544 2.309-2.254zm2 0c.863.71 1.678 1.44 2.309 2.254C16.342 7.751 17 9.229 17 11.227c0 1.452-.34 2.35-1.238 3.587-.59.812-1.591 1.887-2.762 3.127z"/></svg>