<svg xmlns="http://www.w3.org/2000/svg" width="24" height="24" viewBox="0 0 24 24"><path d="M12.285 2.002a10 10 0 0 0-.701.002C8.78 2.11 5.969 3.384 4.01 5.986c-2.612 3.47-2.535 7.744-.697 10.967 1.837 3.223 5.475 5.467 9.792 4.986a1 1 0 0 0 .883-1.105 1 1 0 0 0-1.105-.883c-3.526.392-6.354-1.391-7.834-3.988s-1.574-5.94.558-8.774 5.37-3.668 8.276-2.964c2.905.703 5.403 2.927 6.002 6.423a1 1 0 0 0 1.154.817 1 1 0 0 0 .816-1.154c-.733-4.282-3.896-7.156-7.501-8.03a10 10 0 0 0-2.069-.279zM9 9a1 1 0 0 0-1 1 1 1 0 0 0 1 1h.01a1 1 0 0 0 1-1 1 1 0 0 0-1-1zm6 0a1 1 0 0 0-1 1 1 1 0 0 0 1 1h.01a1 1 0 0 0 1-1 1 1 0 0 0-1-1zm4 4a1 1 0 0 0-1 1v.049a2.46 2.46 0 0 0-1.373.756A2.53 2.53 0 0 0 16 16.5c0 .597.194 1.208.627 1.695S17.75 19 18.5 19h1c.25 0 .31.058.377.133A.58.58 0 0 1 20 19.5a.58.58 0 0 1-.123.367c-.067.075-.127.133-.377.133H17a1 1 0 0 0-1 1 1 1 0 0 0 1 1h1a1 1 0 0 0 1 1 1 1 0 0 0 1-1v-.049a2.46 2.46 0 0 0 1.373-.756A2.53 2.53 0 0 0 22 19.5c0-.597-.194-1.208-.627-1.695S20.25 17 19.5 17h-1c-.25 0-.31-.058-.377-.133A.58.58 0 0 1 18 16.5a.58.58 0 0 1 .123-.367c.067-.075.127-.133.377-.133H21a1 1 0 0 0 1-1 1 1 0 0 0-1-1h-1a1 1 0 0 0-1-1zm-9.514 1a1 1 0 0 0-.703.303 1 1 0 0 0 .02 1.414A4.58 4.58 0 0 0 12 17c.454 0 .902-.065 1.328-.191a1 1 0 0 0 .674-1.245 1 1 0 0 0-1.242-.673c-.242.071-.5.109-.76.109a2.6 2.6 0 0 1-1.803-.717 1 1 0 0 0-.71-.283z"/></svg>