<svg xmlns="http://www.w3.org/2000/svg" width="24" height="24" viewBox="0 0 24 24"><path d="M11.697 1.986a10 10 0 0 0-.736.047c-1.964.198-3.924.995-5.62 2.508-3.39 3.026-4.053 7.436-2.685 11.023C4.024 19.152 7.455 22 12 22a1 1 0 0 0 1-1 1 1 0 0 0-1-1c-3.722 0-6.371-2.255-7.475-5.148-1.103-2.894-.63-6.34 2.147-8.819 2.776-2.478 6.256-2.56 9.006-1.137s4.692 4.31 4.271 8.008a1 1 0 0 0 .88 1.108 1 1 0 0 0 1.107-.881c.514-4.516-1.929-8.247-5.338-10.012a10.14 10.14 0 0 0-4.9-1.133zM9 9a1 1 0 0 0-1 1 1 1 0 0 0 1 1h.01a1 1 0 0 0 1-1 1 1 0 0 0-1-1zm6 0a1 1 0 0 0-1 1 1 1 0 0 0 1 1h.01a1 1 0 0 0 1-1 1 1 0 0 0-1-1zm-5.49 5a1 1 0 0 0-.71.285 1 1 0 0 0-.015 1.414C9.65 16.581 10.827 17 12 17q.4 0 .79-.062a1 1 0 0 0 .827-1.147 1 1 0 0 0-1.144-.828A3 3 0 0 1 12 15c-.707 0-1.333-.237-1.785-.7a1 1 0 0 0-.705-.3zm6.99 2a1 1 0 0 0-1 1 1 1 0 0 0 1 1h2.086l-3.293 3.293a1 1 0 0 0 0 1.414 1 1 0 0 0 1.414 0L20 19.414V21.5a1 1 0 0 0 1 1 1 1 0 0 0 1-1V17l-.002-.016a1 1 0 0 0-.03-.224l-.011-.041a1 1 0 0 0-.09-.215l-.002-.004-.004-.006a1 1 0 0 0-.154-.201 1 1 0 0 0-.207-.158A1 1 0 0 0 21 16z"/></svg>