<svg xmlns="http://www.w3.org/2000/svg" width="24" height="24" viewBox="0 0 24 24"><path d="M11.701 1.99c-2.384.058-4.806.973-6.77 2.936-3.222 3.22-3.627 7.672-2.048 11.18s5.18 6.153 9.728 5.874a1 1 0 0 0 .938-1.058 1 1 0 0 0-1.06-.938c-3.726.228-6.51-1.87-7.784-4.699-1.274-2.83-.999-6.306 1.64-8.943 2.64-2.638 6.118-2.91 8.946-1.635s4.924 4.062 4.693 7.787a1 1 0 0 0 .938 1.06 1 1 0 0 0 1.058-.937c.282-4.548-2.36-8.15-5.867-9.732a10.2 10.2 0 0 0-4.412-.895zM9 9a1 1 0 0 0-1 1 1 1 0 0 0 1 1h.01a1 1 0 0 0 1-1 1 1 0 0 0-1-1zm6 0a1 1 0 0 0-1 1 1 1 0 0 0 1 1h.01a1 1 0 0 0 1-1 1 1 0 0 0-1-1zm-5.514 5a1 1 0 0 0-.703.303 1 1 0 0 0 .02 1.414A4.58 4.58 0 0 0 12 17q.37 0 .732-.057a1 1 0 0 0 .829-1.146 1 1 0 0 0-1.145-.83 2.6 2.6 0 0 1-2.219-.684 1 1 0 0 0-.71-.283zm7.014 1.5a1 1 0 0 0-.707.293 1 1 0 0 0 0 1.414L17.586 19l-1.793 1.793a1 1 0 0 0 0 1.414 1 1 0 0 0 1.414 0L19 20.414l1.793 1.793a1 1 0 0 0 1.414 0 1 1 0 0 0 0-1.414L20.414 19l1.793-1.793a1 1 0 0 0 0-1.414 1 1 0 0 0-1.414 0L19 17.586l-1.793-1.793a1 1 0 0 0-.707-.293z"/></svg>