<svg xmlns="http://www.w3.org/2000/svg" width="24" height="24" viewBox="0 0 24 24"><path d="M12 2q-.085 0-.17.004h-.012C6.391 2.102 2 6.55 2 12c0 5.511 4.489 10 10 10s10-4.489 10-10S17.511 2 12 2zm0 2c4.43 0 8 3.57 8 8s-3.57 8-8 8-8-3.57-8-8a7.98 7.98 0 0 1 5.03-7.432Q9 4.784 9 5c0 .722.235 1.458.752 2.04.517.58 1.331.96 2.248.96a1 1 0 0 0 1-1 1 1 0 0 0-1-1c-.417 0-.602-.12-.752-.29A1.1 1.1 0 0 1 11 5c0-.278.098-.542.248-.71.15-.17.335-.29.752-.29zM9 9a1 1 0 0 0-1 1 1 1 0 0 0 1 1h.01a1 1 0 0 0 1-1 1 1 0 0 0-1-1zm6 0a1 1 0 0 0-1 1 1 1 0 0 0 1 1h.01a1 1 0 0 0 1-1 1 1 0 0 0-1-1zm-5.49 5a1 1 0 0 0-.71.285 1 1 0 0 0-.015 1.414c1.756 1.792 4.674 1.792 6.43 0a1 1 0 0 0-.016-1.414 1 1 0 0 0-1.414.016 2.483 2.483 0 0 1-3.57 0A1 1 0 0 0 9.51 14z"/></svg>