<svg xmlns="http://www.w3.org/2000/svg" width="24" height="24" viewBox="0 0 24 24"><path d="M12 2C6.489 2 2 6.489 2 12s4.489 10 10 10 10-4.489 10-10S17.511 2 12 2zm0 2c4.43 0 8 3.57 8 8s-3.57 8-8 8-8-3.57-8-8 3.57-8 8-8zM8.5 8.25c-.892 0-1.906.326-2.395 1.303a1 1 0 0 0 .448 1.342 1 1 0 0 0 1.342-.448c.011-.023.247-.197.605-.197s.594.174.605.197a1 1 0 0 0 1.342.448 1 1 0 0 0 .448-1.342C10.406 8.576 9.392 8.25 8.5 8.25zm7 0c-.892 0-1.906.326-2.395 1.303a1 1 0 0 0 .448 1.342 1 1 0 0 0 1.342-.448c.011-.023.247-.197.605-.197s.594.174.605.197a1 1 0 0 0 1.342.448 1 1 0 0 0 .448-1.342c-.489-.977-1.503-1.303-2.395-1.303zm-.41 5.254a1 1 0 0 0-.442.06l-4 1.5a1 1 0 0 0-.584 1.288 1 1 0 0 0 1.288.584l4-1.5a1 1 0 0 0 .584-1.288 1 1 0 0 0-.846-.644z"/></svg>