<svg xmlns="http://www.w3.org/2000/svg" width="24" height="24" viewBox="0 0 24 24"><path d="M12 2C6.489 2 2 6.489 2 12s4.489 10 10 10 10-4.489 10-10S17.511 2 12 2zm0 2c4.43 0 8 3.57 8 8s-3.57 8-8 8a7.985 7.985 0 0 1-7.99-8.412A7.985 7.985 0 0 1 12 4zm3.5 4.25c-.892 0-1.906.326-2.395 1.303a1 1 0 0 0 .448 1.342 1 1 0 0 0 1.342-.448c.011-.023.247-.197.605-.197s.594.174.605.197a1 1 0 0 0 1.342.448 1 1 0 0 0 .448-1.342c-.489-.977-1.503-1.303-2.395-1.303zM9 9a1 1 0 0 0-1 1 1 1 0 0 0 1 1h.01a1 1 0 0 0 1-1 1 1 0 0 0-1-1zm-.5 4a1 1 0 0 0-1 1 1 1 0 0 0 1 1H9v1c0 .917.38 1.731.96 2.248A3.05 3.05 0 0 0 12 19a3.05 3.05 0 0 0 2.04-.752c.58-.517.96-1.331.96-2.248v-1h.5a1 1 0 0 0 1-1 1 1 0 0 0-1-1zm2.5 2h2v1c0 .417-.12.602-.29.752-.168.15-.432.248-.71.248s-.542-.098-.71-.248c-.17-.15-.29-.335-.29-.752z"/></svg>