<svg xmlns="http://www.w3.org/2000/svg" width="24" height="24" viewBox="0 0 24 24"><path d="M12 1.992c-7.933.002-12.718 8.953-8.314 15.551s14.506 5.612 17.55-1.713a1 1 0 0 0-1.299-1.31c-3.43 1.389-6.367-.09-7.923-2.536-1.557-2.445-1.652-5.732 1.06-8.252A1 1 0 0 0 12.393 2h-.373zM17 3a1 1 0 0 0-.707.293A1 1 0 0 0 16 4c0 .564-.436 1-1 1a1 1 0 0 0 0 2c.564 0 1 .436 1 1a1 1 0 0 0 2 0c0-.564.436-1 1-1a1 1 0 0 0 0-2c-.564 0-1-.436-1-1a1 1 0 0 0-.076-.383 1 1 0 0 0-.217-.324A1 1 0 0 0 17 3zm-6.762 1.234a8.36 8.36 0 0 0 .088 8.823 8.36 8.36 0 0 0 8.006 3.808c-3.189 4.228-9.811 4.323-12.984-.431-3.234-4.845-.431-11.039 4.89-12.2zM20 9a1 1 0 0 0-1 1 1 1 0 0 0-1 1 1 1 0 0 0 1 1 1 1 0 0 0 1 1 1 1 0 0 0 1-1 1 1 0 0 0 1-1 1 1 0 0 0-1-1 1 1 0 0 0-1-1z"/></svg>