<svg xmlns="http://www.w3.org/2000/svg" width="24" height="24" viewBox="0 0 24 24"><path d="M12 3.12c-1.201 0-2.401.613-2.982 1.84L2.096 19.573A1 1 0 0 0 3 21h18a1 1 0 0 0 .904-1.428L14.982 4.961c-.58-1.228-1.781-1.842-2.982-1.842zm0 1.905c.463 0 .926.264 1.176.791l2.597 5.485-1.546 1.236-1.395-2.092a1 1 0 0 0-1.539-.152l-1.709 1.709-1.063-1.326 2.303-4.86c.25-.527.713-.79 1.176-.79zm-.156 7.545 1.324 1.985a1 1 0 0 0 1.457.226l2.027-1.623L19.42 19H4.58l2.99-6.312 1.149 1.437a1 1 0 0 0 1.488.082z"/></svg>