<svg xmlns="http://www.w3.org/2000/svg" width="24" height="24" viewBox="0 0 24 24"><path d="M3 2a1 1 0 0 0-.707.293 1 1 0 0 0 0 1.414l2.738 2.738v.002Q5.001 6.72 5 7v10c0 2.75 2.25 5 5 5h4a5.01 5.01 0 0 0 4.238-2.348l2.055 2.055a1 1 0 0 0 1.414 0 1 1 0 0 0 0-1.414l-3.06-3.06a1 1 0 0 0-.079-.079L3.707 2.293A1 1 0 0 0 3 2zm7 0a5 5 0 0 0-2.834.88 1 1 0 0 0-.256 1.391 1 1 0 0 0 1.39.256A3 3 0 0 1 9.999 4H14c1.669 0 3 1.331 3 3v7a1 1 0 0 0 1 1 1 1 0 0 0 1-1V7c0-2.75-2.25-5-5-5zm2 4a1 1 0 0 0-1 1v1a1 1 0 0 0 1 1 1 1 0 0 0 1-1V7a1 1 0 0 0-1-1zM7 8.414l9.762 9.762A2.99 2.99 0 0 1 14 20h-4c-1.669 0-3-1.331-3-3z"/></svg>