<svg xmlns="http://www.w3.org/2000/svg" width="24" height="24" viewBox="0 0 24 24"><path d="M3 2a1 1 0 0 0-.707.293 1 1 0 0 0 0 1.414l1.002 1.002A3 3 0 0 0 3 6v12c0 1.645 1.355 3 3 3h12c.46 0 .898-.107 1.291-.295l1.002 1.002a1 1 0 0 0 1.414 0 1 1 0 0 0 0-1.414l-4.959-4.957a1 1 0 0 0-.084-.084l-3.916-3.916a1 1 0 0 0-.084-.084L8.732 7.32l-.025-.027-.027-.025-4.973-4.975A1 1 0 0 0 3 2zm5 1a1 1 0 0 0-1 1 1 1 0 0 0 1 1h7v7a1 1 0 0 0 1 1h3v3a1 1 0 0 0 1 1 1 1 0 0 0 1-1V6c0-1.645-1.355-3-3-3zm9 2h1c.564 0 1 .436 1 1v1h-2zM5 6.414 5.586 7H5zM5 9h2v2H5zm12 0h2v2h-2zm-8 1.414.586.586H9zM5 13h2v2H5zm4 0h2.586L15 16.414V19H9zm-4 4h2v2H6c-.564 0-1-.436-1-1zm12 1.414.586.586H17z"/></svg>