<svg xmlns="http://www.w3.org/2000/svg" width="24" height="24" viewBox="0 0 24 24"><path d="M9 3a1 1 0 0 0-1 1v9.494A4.2 4.2 0 0 0 6 13c-.972 0-1.958.319-2.727 1.002S2 15.75 2 17s.505 2.315 1.273 2.998C4.043 20.681 5.028 21 6 21s1.958-.319 2.727-1.002S10 18.25 10 17V9h8v3a1 1 0 0 0 1 1 1 1 0 0 0 1-1V4a1 1 0 0 0-1-1zm1 2h8v2h-8zM6 15c.528 0 1.042.181 1.398.498.357.317.602.752.602 1.502s-.245 1.185-.602 1.502C7.042 18.819 6.528 19 6 19s-1.042-.181-1.398-.498C4.245 18.185 4 17.75 4 17s.245-1.185.602-1.502C4.958 15.181 5.472 15 6 15zm13 0a1 1 0 0 0-1 1v3.586l-1.293-1.293a1 1 0 0 0-1.414 0 1 1 0 0 0 0 1.414l3 3 .041.031a1 1 0 0 0 .117.09 1 1 0 0 0 .08.049 1 1 0 0 0 .168.07l.055.02A1 1 0 0 0 19 23a1 1 0 0 0 .246-.033l.055-.02a1 1 0 0 0 .168-.07 1 1 0 0 0 .08-.049 1 1 0 0 0 .117-.09l.041-.031 3-3a1 1 0 0 0 0-1.414 1 1 0 0 0-1.414 0L20 19.586V16a1 1 0 0 0-1-1z"/></svg>