<svg xmlns="http://www.w3.org/2000/svg" width="24" height="24" viewBox="0 0 24 24"><path d="M9 3a1 1 0 0 0-1 1v9.494A4.2 4.2 0 0 0 6 13c-.972 0-1.958.319-2.727 1.002S2 15.75 2 17s.505 2.315 1.273 2.998C4.043 20.681 5.028 21 6 21s1.958-.319 2.727-1.002S10 18.25 10 17V9h8v4a1 1 0 0 0 1 1 1 1 0 0 0 1-1V4a1 1 0 0 0-1-1zm1 2h8v2h-8zM6 15c.528 0 1.042.181 1.398.498.357.317.602.752.602 1.502s-.245 1.185-.602 1.502C7.042 18.819 6.528 19 6 19s-1.042-.181-1.398-.498C4.245 18.185 4 17.75 4 17s.245-1.185.602-1.502C4.958 15.181 5.472 15 6 15zm10.5 1a1 1 0 0 0-1 1 1 1 0 0 0 1 1h2.086l-3.293 3.293a1 1 0 0 0 0 1.414 1 1 0 0 0 1.414 0L20 19.414V21.5a1 1 0 0 0 1 1 1 1 0 0 0 1-1V17l-.002-.016a1 1 0 0 0-.03-.224l-.011-.041a1 1 0 0 0-.09-.215l-.002-.004-.004-.006a1 1 0 0 0-.154-.201 1 1 0 0 0-.207-.158A1 1 0 0 0 21 16z"/></svg>