<svg xmlns="http://www.w3.org/2000/svg" width="24" height="24" viewBox="0 0 24 24"><path d="M12 2a1 1 0 0 0-.908.582l-7.97 17.273a1 1 0 0 0-.036.09 1.54 1.54 0 0 0 .38 1.614 1.54 1.54 0 0 0 1.636.336l7.218-2.448a1 1 0 0 0 .627-1.267 1 1 0 0 0-1.267-.627L5.404 19.68 12 5.387l3.463 7.508a1 1 0 0 0 1.326.49 1 1 0 0 0 .49-1.328l-4.37-9.475A1 1 0 0 0 12 2zm7 13c-.972 0-1.958.319-2.727 1.002S15 17.75 15 19s.505 2.315 1.273 2.998C17.043 22.681 18.028 23 19 23s1.958-.319 2.727-1.002S23 20.25 23 19s-.505-2.315-1.273-2.998C20.957 15.319 19.972 15 19 15zm0 2q.268.002.523.063l-2.472 2.472A2.7 2.7 0 0 1 17 19c0-.75.245-1.185.602-1.502.356-.317.87-.498 1.398-.498zm1.95 1.465q.049.237.05.535c0 .75-.245 1.185-.602 1.502-.356.317-.87.498-1.398.498q-.268-.002-.523-.062z"/></svg>