<svg xmlns="http://www.w3.org/2000/svg" width="24" height="24" viewBox="0 0 24 24"><path d="M12 2a1 1 0 0 0-.908.582l-7.97 17.273a1 1 0 0 0-.036.09 1.54 1.54 0 0 0 .38 1.614 1.54 1.54 0 0 0 1.636.336L12 19.557l.633.214a1 1 0 0 0 1.27-.626 1 1 0 0 0-.628-1.268l-.955-.324a1 1 0 0 0-.64 0L5.404 19.68 12 5.387l3.725 8.074a1 1 0 0 0 1.328.49 1 1 0 0 0 .488-1.326L12.908 2.582A1 1 0 0 0 12 2zm4.5 14a1 1 0 0 0-1 1 1 1 0 0 0 1 1h2.086l-3.293 3.293a1 1 0 0 0 0 1.414 1 1 0 0 0 1.414 0L20 19.414V21.5a1 1 0 0 0 1 1 1 1 0 0 0 1-1V17l-.002-.016a1 1 0 0 0-.03-.224l-.011-.041a1 1 0 0 0-.09-.215l-.002-.004-.004-.006a1 1 0 0 0-.154-.201 1 1 0 0 0-.207-.158A1 1 0 0 0 21 16z"/></svg>