<svg xmlns="http://www.w3.org/2000/svg" width="24" height="24" viewBox="0 0 24 24"><path d="M12 2a1 1 0 0 0-.908.582l-7.97 17.273a1 1 0 0 0-.036.09 1.54 1.54 0 0 0 .38 1.614 1.54 1.54 0 0 0 1.636.336l7.218-2.448a1 1 0 0 0 .627-1.267 1 1 0 0 0-1.267-.627L5.404 19.68 12 5.387l3.633 7.875a1 1 0 0 0 1.326.49 1 1 0 0 0 .488-1.328l-4.539-9.842A1 1 0 0 0 12 2zm7 13a1 1 0 0 0-.246.033l-.055.02a1 1 0 0 0-.168.07 1 1 0 0 0-.08.049 1 1 0 0 0-.117.09l-.041.031-3 3a1 1 0 0 0 0 1.414 1 1 0 0 0 1.414 0L18 18.414V22a1 1 0 0 0 1 1 1 1 0 0 0 1-1v-3.586l1.293 1.293a1 1 0 0 0 1.414 0 1 1 0 0 0 0-1.414l-2.97-2.97-.03-.03a1 1 0 0 0-.207-.158 1 1 0 0 0-.242-.1A1 1 0 0 0 19 15z"/></svg>