<svg xmlns="http://www.w3.org/2000/svg" width="24" height="24" viewBox="0 0 24 24"><path d="M12 2a1 1 0 0 0-.908.582l-7.97 17.273a1 1 0 0 0-.036.09 1.54 1.54 0 0 0 .38 1.614 1.54 1.54 0 0 0 1.636.336L12 19.557l2.787.943a1 1 0 0 0 1.268-.627 1 1 0 0 0-.63-1.268l-3.105-1.052a1 1 0 0 0-.64 0L5.404 19.68 12 5.387l3.627 7.863a1 1 0 0 0 1.326.49 1 1 0 0 0 .49-1.326l-4.535-9.832A1 1 0 0 0 12 2zm7 13a1 1 0 0 0-1 1v3a1 1 0 0 0 1 1 1 1 0 0 0 1-1v-3a1 1 0 0 0-1-1zm0 6a1 1 0 0 0-1 1v.01a1 1 0 0 0 1 1 1 1 0 0 0 1-1V22a1 1 0 0 0-1-1z"/></svg>