<svg xmlns="http://www.w3.org/2000/svg" width="24" height="24" viewBox="0 0 24 24"><path d="M12 2a1 1 0 0 0-.908.582l-7.97 17.273a1 1 0 0 0-.036.09 1.54 1.54 0 0 0 .38 1.614 1.54 1.54 0 0 0 1.636.336L12 19.557l.734.248a1 1 0 0 0 1.27-.625 1 1 0 0 0-.627-1.27l-1.057-.357a1 1 0 0 0-.64 0L5.404 19.68 12 5.387l3.758 8.146a1 1 0 0 0 1.326.488 1 1 0 0 0 .49-1.326L12.908 2.582A1 1 0 0 0 12 2zm5 14a1 1 0 0 0-1 1v5a1 1 0 0 0 1 1 1 1 0 0 0 1-1v-5a1 1 0 0 0-1-1zm4 0a1 1 0 0 0-1 1v5a1 1 0 0 0 1 1 1 1 0 0 0 1-1v-5a1 1 0 0 0-1-1z"/></svg>