<svg xmlns="http://www.w3.org/2000/svg" width="24" height="24" viewBox="0 0 24 24"><path d="M5 3c-1.093 0-2 .907-2 2v12c0 2.197 1.803 4 4 4h11a3.05 3.05 0 0 0 2.04-.752c.58-.517.96-1.331.96-2.248V7c0-1.093-.907-2-2-2h-2c0-1.093-.907-2-2-2zm0 2h10v13c0 .36.099.684.205 1H7c-1.116 0-2-.884-2-2zm3 2a1 1 0 0 0-1 1 1 1 0 0 0 1 1h4a1 1 0 0 0 1-1 1 1 0 0 0-1-1zm9 0h2v11c0 .417-.12.602-.29.752-.168.15-.432.248-.71.248s-.542-.098-.71-.248c-.17-.15-.29-.335-.29-.752zm-9 4a1 1 0 0 0-1 1 1 1 0 0 0 1 1h4a1 1 0 0 0 1-1 1 1 0 0 0-1-1zm0 4a1 1 0 0 0-1 1 1 1 0 0 0 1 1h4a1 1 0 0 0 1-1 1 1 0 0 0-1-1z"/></svg>