<svg xmlns="http://www.w3.org/2000/svg" width="24" height="24" viewBox="0 0 24 24"><path d="M6.82 2.018a1 1 0 0 0-.334.125l-5 3A1 1 0 0 0 1 6v12a1 1 0 0 0 .486.857l5 3a1 1 0 0 0 1.069-.025l4.213-2.805 4.718 2.83a1 1 0 0 0 1.028 0l5-3A1 1 0 0 0 23 18V6a1 1 0 0 0-.486-.857l-5-3a1 1 0 0 0-1.028 0L12 4.834 7.514 2.143a1 1 0 0 0-.694-.125zM7 4.166l4.486 2.691L16 9.567v3.667L7.514 8.143A1 1 0 0 0 6 9v6a1 1 0 0 0 .486.857l3.383 2.03-2.896 1.93L3 17.433V6.566zm10 0 4 2.4v10.868l-4 2.4-9-5.4v-3.668l8.486 5.091A1 1 0 0 0 18 15V9a1 1 0 0 0-.486-.857L13.944 6z"/></svg>