<svg xmlns="http://www.w3.org/2000/svg" width="24" height="24" viewBox="0 0 24 24"><path d="M12 2C6.489 2 2 6.489 2 12s4.489 10 10 10 10-4.489 10-10S17.511 2 12 2zm0 2c4.43 0 8 3.57 8 8a7.97 7.97 0 0 1-1.678 4.908l-1.115-1.115a1 1 0 0 0-1.414 0 1 1 0 0 0 0 1.414l1.115 1.115A7.97 7.97 0 0 1 12 20c-4.43 0-8-3.57-8-8a7.97 7.97 0 0 1 1.678-4.908l1.115 1.115a1 1 0 0 0 1.414 0 1 1 0 0 0 0-1.414L7.092 5.678A7.97 7.97 0 0 1 12 4zm.03 4.004q-.095 0-.188.004c-1 .041-1.984.451-2.725 1.22a4.01 4.01 0 0 0 0 5.543 4.03 4.03 0 0 0 5.543.231 1 1 0 0 0 .092-1.412 1 1 0 0 0-1.412-.092 2.003 2.003 0 0 1-2.783-.115 1.98 1.98 0 0 1 0-2.766 2.003 2.003 0 0 1 2.783-.115 1 1 0 0 0 1.412-.092 1 1 0 0 0-.092-1.412 4 4 0 0 0-2.63-.994z"/></svg>