<svg xmlns="http://www.w3.org/2000/svg" width="24" height="24" viewBox="0 0 24 24"><path d="M12 1.016a4 4 0 0 0-2.086.586l-6 3.668A4 4 0 0 0 2 8.682v6.634c0 1.393.726 2.688 1.914 3.414l.023.016 1.569.899c1.958 1.124 4.494-.342 4.494-2.6V9a1 1 0 0 0-1-1 1 1 0 0 0-1 1v8.045c-.001.815-.79 1.271-1.498.865l-1.549-.889A2 2 0 0 1 4 15.316V8.682c0-.699.361-1.343.957-1.707l6-3.666a2 2 0 0 1 2.086 0l6 3.666c.596.364.957 1.01.957 1.709v6.632c0 .699-.361 1.343-.957 1.707l-6 3.668a2 2 0 0 1-2.086 0 1 1 0 0 0-1.375.332 1 1 0 0 0 .332 1.373 4.01 4.01 0 0 0 4.172 0l6-3.666A4 4 0 0 0 22 15.316V8.684a4 4 0 0 0-1.914-3.414l-6-3.668A4 4 0 0 0 12 1.016zM13.5 8c-.75 0-1.44.317-1.873.805A2.53 2.53 0 0 0 11 10.5c0 .597.194 1.208.627 1.695S12.75 13 13.5 13h2c.25 0 .31.058.377.133A.58.58 0 0 1 16 13.5a.58.58 0 0 1-.123.367c-.067.075-.127.133-.377.133H12a1 1 0 0 0-1 1 1 1 0 0 0 1 1h3.5c.75 0 1.44-.317 1.873-.805A2.53 2.53 0 0 0 18 13.5c0-.597-.194-1.208-.627-1.695S16.25 11 15.5 11h-2c-.25 0-.31-.058-.377-.133A.58.58 0 0 1 13 10.5a.58.58 0 0 1 .123-.367c.067-.075.127-.133.377-.133H17a1 1 0 0 0 1-1 1 1 0 0 0-1-1z"/></svg>