<svg xmlns="http://www.w3.org/2000/svg" width="24" height="24" viewBox="0 0 24 24"><path d="M12 3c-1.222 0-2.458.402-3.414 1.252S7 6.417 7 8v1c0 1.583.63 2.898 1.586 3.748S10.778 14 12 14c1.053 0 2.115-.3 3-.926V16c0 1.083-.37 1.769-.914 2.252S12.778 19 12 19s-1.542-.265-2.086-.748S9 17.083 9 16a1 1 0 0 0-1-1 1 1 0 0 0-1 1c0 1.583.63 2.898 1.586 3.748S10.778 21 12 21s2.458-.402 3.414-1.252S17 17.583 17 16V8c0-1.583-.63-2.898-1.586-3.748S13.222 3 12 3zm0 2c.778 0 1.542.265 2.086.748S15 6.917 15 8v1c0 1.083-.37 1.769-.914 2.252S12.778 12 12 12s-1.542-.265-2.086-.748S9 10.083 9 9V8c0-1.083.37-1.769.914-2.252S11.222 5 12 5z"/></svg>