<svg xmlns="http://www.w3.org/2000/svg" width="24" height="24" viewBox="0 0 24 24"><path d="M7.922 2.004a1 1 0 0 0-.629.289l-2 2a1 1 0 0 0 0 1.414 1 1 0 0 0 1.414 0L7 5.414V9h-.5a1 1 0 0 0-1 1 1 1 0 0 0 1 1h3a1 1 0 0 0 1-1 1 1 0 0 0-1-1H9V3a1 1 0 0 0-.617-.924 1 1 0 0 0-.461-.072zm8.96 5.002a3 3 0 0 0-1.03.223A3.01 3.01 0 0 0 14 10a1 1 0 0 0 1 1 1 1 0 0 0 1-1c0-.488.258-.775.617-.924.36-.149.745-.128 1.09.217s.366.73.217 1.09c-.15.36-.436.617-.924.617v2c.488 0 .775.258.924.617.149.36.128.745-.217 1.09s-.73.366-1.09.217c-.36-.15-.617-.436-.617-.924a1 1 0 0 0-1-1 1 1 0 0 0-1 1c0 1.294.82 2.344 1.852 2.771a3.01 3.01 0 0 0 3.27-.65 3.01 3.01 0 0 0 .65-3.27c-.14-.334-.431-.582-.688-.851.257-.27.549-.517.687-.852a3.01 3.01 0 0 0-.65-3.27 2.97 2.97 0 0 0-1.59-.827 3 3 0 0 0-.648-.045zM8 13a3.05 3.05 0 0 0-2.04.752C5.38 14.269 5 15.083 5 16a1 1 0 0 0 1 1 1 1 0 0 0 1-1c0-.417.12-.602.29-.752.168-.15.432-.248.71-.248s.542.098.71.248c.17.15.29.335.29.752l-.002-.002c-.014.029-.078.277-.22.533a9 9 0 0 1-.551.828l-2.934 2.934A1 1 0 0 0 6 22h4a1 1 0 0 0 1-1 1 1 0 0 0-1-1H8.414l1.293-1.293a1 1 0 0 0 .098-.113c.209-.283.481-.663.718-1.088S11 16.634 11 16c0-.917-.38-1.731-.96-2.248A3.05 3.05 0 0 0 8 13z"/></svg>