<svg xmlns="http://www.w3.org/2000/svg" width="24" height="24" viewBox="0 0 24 24"><path d="M6.502 2c-1.931-.004-3.263 1.478-3.475 3.027-.16 1.17.308 2.473 1.348 3.262-1.925 3.164-1.929 7.45.85 10.63a8.8 8.8 0 0 0 6.562 3.048A1 1 0 0 0 12 22a1 1 0 0 0 .23-.037c3.758-.123 7.395-2.541 8.479-6.688a1 1 0 0 0-.715-1.22 1 1 0 0 0-1.219.715c-.78 2.981-3.162 4.818-5.775 5.193V10a1 1 0 0 0-1.47-.883l-6.551 3.494a7.03 7.03 0 0 1 1.496-3.963 1 1 0 0 0 .209-.252c1.018-1.173 2.452-2.026 4.205-2.302l6.197 2.816A1 1 0 0 0 17.5 9c1.083 0 2.023-.442 2.623-1.117S21 6.347 21 5.5s-.277-1.708-.877-2.383S18.583 2 17.5 2a1 1 0 0 0-1 1 1 1 0 0 0 1 1c.583 0 .894.183 1.127.445.233.263.373.652.373 1.055s-.14.792-.373 1.055c-.21.235-.536.367-1.012.4L6.915 2.09A1 1 0 0 0 6.501 2zm-.125 2.043 1.791.814a8.8 8.8 0 0 0-2.59 1.864c-.516-.331-.646-.865-.57-1.424.092-.673.5-1.195 1.369-1.254zM11 11.668v8.293a7 7 0 0 1-1-.219v-7.54zm4.99.332a1 1 0 0 0-1 1 1 1 0 0 0 1 1H16a1 1 0 0 0 1-1 1 1 0 0 0-1-1zM8 13.268v5.486c-.45-.32-.878-.7-1.27-1.149a7.1 7.1 0 0 1-1.529-2.845z"/></svg>