<svg xmlns="http://www.w3.org/2000/svg" width="24" height="24" viewBox="0 0 24 24"><path d="M17 2a1 1 0 0 0-.707.293 1 1 0 0 0 0 1.414l2 2a1 1 0 0 0 1.414 0 1 1 0 0 0 0-1.414l-2-2A1 1 0 0 0 17 2zm-4.902.006a1 1 0 0 0-.512.084 1 1 0 0 0-.496 1.324c1.807 3.975 5.364 5.937 9.986 5.582a1 1 0 0 0 .92-1.072 1 1 0 0 0-1.072-.92c-4.044.31-6.487-1.059-8.014-4.418a1 1 0 0 0-.558-.522 1 1 0 0 0-.254-.058zM7 4c-1.935 0-3.656.983-4.492 2.523A1 1 0 0 0 2.91 7.88a1 1 0 0 0 1.356-.402C4.715 6.649 5.747 6 7 6c1.737 0 3 1.184 3 2.5S8.737 11 7 11a1 1 0 0 0-1 1 1 1 0 0 0 1 1c.708 0 1.375.292 1.9.791l.016.021q.078.08.158.155c.566.626.926 1.514.926 2.533 0 2.005-1.398 3.5-3 3.5s-3-1.495-3-3.5v-.004c-.002-.554.114-1.1.338-1.607a1 1 0 0 0-.51-1.32 1 1 0 0 0-1.32.51A5.95 5.95 0 0 0 2 16.5v.004C2.002 19.467 4.183 22 7 22s5-2.535 5-5.5q-.001-.674-.145-1.307.105.006.21.006c1.539 0 2.888-.865 3.751-2.12l.01-.015C16.32 12.374 16.964 12 17.5 12c.58 0 1.16.328 1.656 1.037.497.71.844 1.772.844 2.963s-.347 2.254-.844 2.963C18.66 19.672 18.08 20 17.5 20c-.507 0-1.003-.247-1.463-.79-.46-.541-.837-1.37-.976-2.343a1 1 0 0 0-1.131-.847 1 1 0 0 0-.848 1.132c.187 1.304.68 2.47 1.43 3.354S16.317 22 17.5 22c1.353 0 2.525-.79 3.295-1.89C21.565 19.008 22 17.57 22 16s-.435-3.009-1.205-4.11c-.77-1.1-1.942-1.89-3.295-1.89-1.38 0-2.547.833-3.316 1.922l-.01.014c-.571.835-1.303 1.263-2.11 1.263-.625 0-1.209-.265-1.72-.787l-.014-.01a5 5 0 0 0-.334-.304C11.2 11.288 12 9.998 12 8.5 12 5.95 9.683 4 7 4z"/></svg>