<svg xmlns="http://www.w3.org/2000/svg" width="24" height="24" viewBox="0 0 24 24"><path d="M9.443 1.334a4.5 4.5 0 0 0-.736.07C6.775 1.751 5.001 3.418 5 5.832v.775c-1.38.14-2.66.93-3.4 2.211a4.49 4.49 0 0 0 1.636 6.112l.612.361c-.827 1.684-.444 3.598.623 4.861 1.266 1.5 3.597 2.202 5.69.994l.003-.001.652-.381c1.051 1.513 2.87 2.12 4.477 1.832 1.932-.347 3.706-2.014 3.707-4.428v-.844c1.38-.14 2.66-.93 3.4-2.21a4.49 4.49 0 0 0-1.632-6.11l-.004-.002-.588-.344c.794-1.671.41-3.56-.647-4.81-.95-1.126-2.498-1.8-4.095-1.559a4.5 4.5 0 0 0-1.594.565l-.004.001-.652.381c-.893-1.286-2.34-1.918-3.74-1.902zm.036 1.992c.752-.03 1.48.236 1.982.916L9.496 5.391A1 1 0 0 0 9 6.254v5.219l-2-1.15V5.831c.002-1.487.94-2.258 2.059-2.459q.21-.038.42-.047zm6.734.88c.713.02 1.33.39 1.789.933.586.694.848 1.595.447 2.513L16.46 6.49a1 1 0 0 0-1.002-.004L11 9.046V6.829l3.84-2.242c.483-.28.945-.393 1.373-.38zM15.95 8.51l3.809 2.222.004.002a2.46 2.46 0 0 1 .904 3.38c-.392.678-.994 1.086-1.668 1.202V13a1 1 0 0 0-.512-.873l-4.48-2.502zM5 8.615V10.9a1 1 0 0 0 .502.868l4.467 2.568-1.955 1.09-3.77-2.223-.008-.006a2.46 2.46 0 0 1-.904-3.379C3.724 9.14 4.326 8.732 5 8.615zm6.984 2.172 1.016.567v1.29l-.994.555L11 12.621v-1.27zM15 12.471l2 1.117v4.58c-.002 1.487-.94 2.258-2.059 2.459-.893.16-1.806-.063-2.402-.87l1.965-1.148a1 1 0 0 0 .496-.863zm-2 2.463v2.238l-3.84 2.242c-1.29.745-2.428.316-3.162-.553-.595-.704-.858-1.623-.43-2.556l1.924 1.134a1 1 0 0 0 .994.012z"/></svg>