<svg xmlns="http://www.w3.org/2000/svg" width="24" height="24" viewBox="0 0 24 24"><path d="M11.73 2.037a1 1 0 0 0-.097.076 1 1 0 0 0-.123.016l-8 4.5-.008.008a1 1 0 0 0-.24.195 1 1 0 0 0-.055.072 1 1 0 0 0-.078.106 1 1 0 0 0-.04.1l-.032.081a1 1 0 0 0-.053.286L3 7.5v9a1 1 0 0 0 .51.871l8 4.5.025.01a1 1 0 0 0 .268.094l.074.01A1 1 0 0 0 12 22a1 1 0 0 0 .123-.016l.074-.01a1 1 0 0 0 .268-.093l.025-.01 8-4.5A1 1 0 0 0 21 16.5v-9a1 1 0 0 0-.06-.338l-.008-.017a1 1 0 0 0-.06-.135 1 1 0 0 0-.079-.106 1 1 0 0 0-.055-.072 1 1 0 0 0-.24-.195l-.008-.008-3.98-2.238-4.02-2.262a1 1 0 0 0-.123-.016A1 1 0 0 0 12 2.07a1 1 0 0 0-.27-.033zm.27 2.11 1.96 1.103L8 8.604 6.04 7.5zm4 2.25L17.96 7.5 12 10.854 10.04 9.75zM5 9.208l2.49 1.4L11 12.584v6.707l-6-3.375zm14 0v6.707l-6 3.375v-6.707z"/></svg>