<svg xmlns="http://www.w3.org/2000/svg" width="24" height="24" viewBox="0 0 24 24"><path d="M3 2a1 1 0 0 0-.707.293 1 1 0 0 0 0 1.414L5 6.414v1.35l-1.367 2.732A6 6 0 0 0 3 13.18V19c0 1.645 1.355 3 3 3h12a3 3 0 0 0 1.902-.684l.391.391a1 1 0 0 0 1.414 0 1 1 0 0 0 0-1.414l-5.125-5.125a1 1 0 0 0-.123-.123l-2.492-2.492a1 1 0 0 0-.082-.082L3.707 2.293A1 1 0 0 0 3 2zm5 0c-.447 0-.878.098-1.264.277a1 1 0 0 0-.484 1.33 1 1 0 0 0 1.328.485A1 1 0 0 1 8 4h8c.564 0 1 .436 1 1v1.82c0 .932.216 1.85.633 2.684l.945 1.887A4 4 0 0 1 19 13.18V16a1 1 0 0 0 1 1 1 1 0 0 0 1-1v-2.82c0-.932-.216-1.85-.633-2.684l-.945-1.887A4 4 0 0 1 19 6.82V5c0-1.645-1.355-3-3-3zm3 4a1 1 0 0 0-1 1 1 1 0 0 0 1 1h2a1 1 0 0 0 1-1 1 1 0 0 0-1-1zM7.65 9.064l4.037 4.038c-.913 1.14-.927 2.895.19 4.015 1.12 1.122 2.878 1.11 4.021.195l2.57 2.57A1 1 0 0 1 18 20H8.822c.113-.314.178-.65.178-1v-5.82c0-.932-.216-1.85-.633-2.684zM6 10.234l.578 1.157A4 4 0 0 1 7 13.18V19c0 .564-.436 1-1 1s-1-.436-1-1v-5.82a4 4 0 0 1 .422-1.79zm7.107 4.287 1.373 1.374c-.366.206-.84.158-1.187-.19-.346-.347-.392-.819-.186-1.184z"/></svg>