<svg xmlns="http://www.w3.org/2000/svg" width="24" height="24" viewBox="0 0 24 24"><path d="M12 1C5.937 1 1 5.937 1 12l.012.059a1 1 0 0 0 .049.246 1 1 0 0 0 .035.107 1 1 0 0 0 .197.295l10 10a1 1 0 0 0 .139.105l.05.04a1 1 0 0 0 .29.119l.035.004a1 1 0 0 0 .267.015 1 1 0 0 0 .098-.015 1 1 0 0 0 .203-.057 1 1 0 0 0 .1-.047 1 1 0 0 0 .166-.117l.066-.047 10-10a1 1 0 0 0 .213-.32l.006-.012a1 1 0 0 0 .072-.365L23 12l-.002-.06q0-.075-.004-.149C22.882 5.824 17.994 1 12 1zm0 2a8.99 8.99 0 0 1 8.182 5.24A4.4 4.4 0 0 0 18.75 8c-1.33 0-2.49.629-3.277 1.56A4.66 4.66 0 0 0 12 8a4.66 4.66 0 0 0-3.473 1.56C7.74 8.63 6.576 8 5.25 8c-.5 0-.98.089-1.432.242A8.98 8.98 0 0 1 12 3zm-6.75 7c1.29 0 2.25.926 2.25 2l.002.008a1 1 0 0 0 .055.322l2.052 5.865-6.57-6.57C3.23 10.717 4.101 10 5.25 10zM12 10c1.399 0 2.402.883 2.492 1.857L12 18.975l-2.492-7.118C9.598 10.883 10.6 10 12 10zm6.75 0c1.138 0 2.018.72 2.21 1.625l-6.57 6.57 2.053-5.865a1 1 0 0 0 .053-.314L16.5 12c0-1.078.946-2 2.25-2z"/></svg>