<svg xmlns="http://www.w3.org/2000/svg" width="24" height="24" viewBox="0 0 24 24"><path d="M3 2a1 1 0 0 0-.707.293 1 1 0 0 0 0 1.414l1.004 1.004A3 3 0 0 0 3 6v12c0 1.645 1.355 3 3 3h12a3 3 0 0 0 1.29-.297l1.003 1.004a1 1 0 0 0 1.414 0 1 1 0 0 0 0-1.414l-1.518-1.518a1 1 0 0 0-.066-.076l-.03-.02-7.35-7.349a1 1 0 0 0-.073-.072L9.742 8.33a1 1 0 0 0-.072-.072L5.367 3.953a1 1 0 0 0-.066-.076l-.03-.02-1.564-1.564A1 1 0 0 0 3 2zm5 1a1 1 0 0 0-1 1 1 1 0 0 0 1 1h10c.564 0 1 .436 1 1v10a1 1 0 0 0 1 1 1 1 0 0 0 1-1V6c0-1.645-1.355-3-3-3zM5 6.414l3 3V16a1 1 0 0 0 1 1 1 1 0 0 0 1-1v-3h1.586l6 6H6c-.564 0-1-.436-1-1zM12 7a1 1 0 0 0-1 1 1 1 0 0 0 1 1h1c.768 0 1.23.72.908 1.418a1 1 0 0 0 .49 1.326 1 1 0 0 0 1.327-.49C16.623 9.3 15.149 7 13 7z"/></svg>