<svg xmlns="http://www.w3.org/2000/svg" width="24" height="24" viewBox="0 0 24 24"><path d="M12 2C7.588 2 4.198 4.705 2.762 8.174 1.325 11.643 1.81 15.95 4.93 19.07s7.427 3.605 10.896 2.168S22 16.412 22 12c0-5.511-4.489-10-10-10zm0 2c4.43 0 8 3.57 8 8 0 3.606-2.142 6.233-4.937 7.39-2.796 1.159-6.17.816-8.72-1.734-2.549-2.55-2.892-5.923-1.734-8.718S8.394 4 12 4zm-1.988 4.002a1 1 0 0 0-.504.129A1 1 0 0 0 9 9v6a1 1 0 0 0 1.514.857l5-3a1 1 0 0 0 0-1.714l-5-3a1 1 0 0 0-.502-.141zM11 10.766 13.057 12 11 13.234z"/></svg>