<svg xmlns="http://www.w3.org/2000/svg" width="24" height="24" viewBox="0 0 24 24"><path d="M5 9a1 1 0 0 0-1 1v.383l-.553-.278a1 1 0 0 0-1.342.448 1 1 0 0 0 .448 1.342l.21.105-.21.105a1 1 0 0 0-.448 1.342 1 1 0 0 0 1.342.448L4 13.617V14a1 1 0 0 0 1 1 1 1 0 0 0 1-1v-.383l.553.278a1 1 0 0 0 1.342-.448 1 1 0 0 0-.448-1.342L7.237 12l.21-.105a1 1 0 0 0 .448-1.342 1 1 0 0 0-.579-.502 1 1 0 0 0-.763.054L6 10.383V10a1 1 0 0 0-1-1zm7 0a1 1 0 0 0-1 1v.383l-.553-.278a1 1 0 0 0-.763-.054 1 1 0 0 0-.579.502 1 1 0 0 0 .448 1.342l.21.105-.21.105a1 1 0 0 0-.448 1.342 1 1 0 0 0 1.342.448l.553-.278V14a1 1 0 0 0 1 1 1 1 0 0 0 1-1v-.383l.553.278a1 1 0 0 0 1.342-.448 1 1 0 0 0-.448-1.342l-.21-.105.21-.105a1 1 0 0 0 .448-1.342 1 1 0 0 0-.579-.502 1 1 0 0 0-.763.054l-.553.278V10a1 1 0 0 0-1-1zm7 0a1 1 0 0 0-1 1v.383l-.553-.278a1 1 0 0 0-1.342.448 1 1 0 0 0 .448 1.342l.21.105-.21.105a1 1 0 0 0-.448 1.342 1 1 0 0 0 1.342.448l.553-.278V14a1 1 0 0 0 1 1 1 1 0 0 0 1-1v-.383l.553.278a1 1 0 0 0 1.342-.448 1 1 0 0 0-.448-1.342l-.21-.105.21-.105a1 1 0 0 0 .448-1.342 1 1 0 0 0-1.342-.448l-.553.278V10a1 1 0 0 0-1-1z"/></svg>