<svg xmlns="http://www.w3.org/2000/svg" width="24" height="24" viewBox="0 0 24 24"><path d="M9.025 3c-.112 0-.184.003-.27.016l-.093.015c-1.532.206-2.396 1.99-2.107 3.856C6.827 8.612 8.017 10 9.475 10l.185-.006.084-.01.094-.015c1.341-.18 2.17-1.568 2.162-3.162a5 5 0 0 0-.055-.694C11.675 4.386 10.485 3 9.025 3zM12 6.807c-.007 1.595.83 2.984 2.23 3.173q.153.02.295.02c1.39 0 2.543-1.265 2.877-2.883l.041-.23c.29-1.867-.573-3.65-2.173-3.867a2 2 0 0 0-.297-.02c-1.46 0-2.647 1.388-2.916 3.113a5 5 0 0 0-.057.694zM4.217 7a2 2 0 0 0-.797.16c-1.426.615-1.767 2.563-1.078 4.336C2.905 12.947 4.052 14 5.283 14c.274 0 .544-.053.797-.16 1.426-.615 1.767-2.563 1.078-4.336C6.595 8.053 5.448 7 4.217 7zM19.75 7c-1.219.02-2.35 1.066-2.908 2.504-.69 1.775-.347 3.72 1.076 4.334.256.109.527.162.8.162 1.232 0 2.38-1.053 2.942-2.504.686-1.774.342-3.72-1.074-4.332A2.05 2.05 0 0 0 19.78 7zM12 10c-1.32 0-1.984.42-2.932 1.924l-.244.398-.394.688-.14.254c-.24.434-.572.753-1.14 1.142l-.55.365c-.94.627-1.432 1.119-1.707 1.956-.124.338-.197.852-.194 1.279C4.7 19.693 5.898 21 7.5 21l.242-.006a4 4 0 0 0 .354-.033l.248-.043.133-.03.29-.072.163-.045.568-.17.764-.244.455-.134c.53-.15.94-.223 1.283-.223.344 0 .753.074 1.283.223l.455.134.764.243.568.171.313.084q.145.037.273.063l.248.043c.12.017.235.027.354.033L16.5 21c1.602 0 2.8-1.307 2.8-3 0-.427-.072-.94-.206-1.307-.236-.724-.678-1.223-1.48-1.83l-.259-.19-.527-.378c-.642-.47-1.004-.827-1.254-1.28l-.27-.484-.251-.431C14.042 10.404 13.435 10 12 10z"/></svg>