<svg xmlns="http://www.w3.org/2000/svg" width="24" height="24" viewBox="0 0 24 24"><path d="M3 7a1 1 0 0 0-1 1v8a1 1 0 0 0 1 1 1 1 0 0 0 1-1v-3h1c.917 0 1.731-.38 2.248-.96A3.05 3.05 0 0 0 8 10a3.05 3.05 0 0 0-.752-2.04C6.731 7.38 5.917 7 5 7zm7 0a1 1 0 0 0-1 1v8a1 1 0 0 0 1 1h2c1.645 0 3-1.355 3-3v-4c0-1.645-1.355-3-3-3zm7 0a1 1 0 0 0-1 1v8a1 1 0 0 0 1 1 1 1 0 0 0 1-1v-3h2a1 1 0 0 0 1-1 1 1 0 0 0-1-1h-2V9h3a1 1 0 0 0 1-1 1 1 0 0 0-1-1zM4 9h1c.417 0 .602.12.752.29.15.168.248.432.248.71s-.098.542-.248.71c-.15.17-.335.29-.752.29H4zm7 0h1c.564 0 1 .436 1 1v4c0 .564-.436 1-1 1h-1z"/></svg>