<svg xmlns="http://www.w3.org/2000/svg" width="24" height="24" viewBox="0 0 24 24"><path d="M16.313 3.625c-.875.046-1.782.43-2.52 1.168l-10.5 10.5A1 1 0 0 0 3 16v4a1 1 0 0 0 .293.707A1 1 0 0 0 4 21h4a1 1 0 0 0 .707-.293l10.5-10.5c.843-.843 1.224-1.907 1.166-2.89s-.509-1.867-1.166-2.524-1.54-1.108-2.523-1.166a3 3 0 0 0-.372-.002zm.091 1.996q.082-.003.162.002c.433.026.884.241 1.227.584s.558.794.584 1.227-.094.87-.584 1.359l-.293.293L14.914 6.5l.293-.293c.429-.429.817-.573 1.197-.586zM13.5 7.914l2.586 2.586-8.5 8.5H5v-2.586zM19 15a1 1 0 0 0-1 1v3.586l-1.293-1.293a1 1 0 0 0-1.414 0 1 1 0 0 0 0 1.414l3 3 .041.031a1 1 0 0 0 .117.09 1 1 0 0 0 .08.049 1 1 0 0 0 .168.07l.055.02A1 1 0 0 0 19 23a1 1 0 0 0 .246-.033l.055-.02a1 1 0 0 0 .168-.07 1 1 0 0 0 .08-.049 1 1 0 0 0 .117-.09l.041-.031 3-3a1 1 0 0 0 0-1.414 1 1 0 0 0-1.414 0L20 19.586V16a1 1 0 0 0-1-1z"/></svg>