<svg xmlns="http://www.w3.org/2000/svg" width="24" height="24" viewBox="0 0 24 24"><path d="M16.313 3.625c-.875.046-1.782.43-2.52 1.168l-10.5 10.5A1 1 0 0 0 3 16v4a1 1 0 0 0 1 1h4a1 1 0 0 0 .707-.293l3-3a1 1 0 0 0 0-1.414 1 1 0 0 0-1.414 0L7.586 19H5v-2.586l8.5-8.5 2.627 2.627a1 1 0 0 0 .166 1.166 1 1 0 0 0 1.414 0l1.5-1.5c.843-.843 1.224-1.907 1.166-2.89s-.509-1.867-1.166-2.524-1.54-1.108-2.523-1.166a3 3 0 0 0-.372-.002zm.091 1.996q.082-.003.162.002c.433.026.884.241 1.227.584s.558.794.584 1.227-.094.87-.584 1.359l-.293.293L14.914 6.5l.293-.293c.429-.429.817-.573 1.197-.586zM18 14c-.972 0-1.958.319-2.727 1.002S14 16.75 14 18s.505 2.315 1.273 2.998C16.043 21.681 17.028 22 18 22a4.2 4.2 0 0 0 2.059-.527l1.234 1.234a1 1 0 0 0 1.414 0 1 1 0 0 0 0-1.414l-1.23-1.23c.33-.586.523-1.289.523-2.063 0-1.25-.505-2.315-1.273-2.998C19.957 14.319 18.972 14 18 14zm0 2c.528 0 1.042.181 1.398.498.357.317.602.752.602 1.502s-.245 1.185-.602 1.502c-.356.317-.87.498-1.398.498s-1.042-.181-1.398-.498C16.245 19.185 16 18.75 16 18s.245-1.185.602-1.502c.356-.317.87-.498 1.398-.498z"/></svg>