<svg xmlns="http://www.w3.org/2000/svg" width="24" height="24" viewBox="0 0 24 24"><path d="M12 .791c-.615 0-1.23.19-1.75.568L7.545 3.324a1 1 0 0 0-.22 1.397 1 1 0 0 0 1.396.22l2.705-1.964a.97.97 0 0 1 1.148 0l8.022 5.828a.97.97 0 0 1 .355 1.093l-1.887 5.809a1 1 0 0 0 .643 1.26 1 1 0 0 0 1.26-.643l1.887-5.806a2.985 2.985 0 0 0-1.083-3.33L13.75 1.359A2.97 2.97 0 0 0 12 .791zM3 2a1 1 0 0 0-.707.293 1 1 0 0 0 0 1.414l1.988 1.988L2.23 7.187a2.985 2.985 0 0 0-1.083 3.33l3.063 9.43a2.99 2.99 0 0 0 2.832 2.059h9.918c.967 0 1.856-.472 2.406-1.227l.928.928a1 1 0 0 0 1.414 0 1 1 0 0 0 0-1.414l-1.965-1.963L3.707 2.293A1 1 0 0 0 3 2zm2.713 5.127 12.182 12.182-.006.02v.001a.97.97 0 0 1-.932.676H7.043c-.428 0-.8-.27-.932-.676v-.002L3.05 9.898a.97.97 0 0 1 .355-1.093z"/></svg>