<svg xmlns="http://www.w3.org/2000/svg" width="24" height="24" viewBox="0 0 24 24"><path d="M12 .791c-.615 0-1.23.19-1.75.568L2.229 7.188a2.985 2.985 0 0 0-1.083 3.33l3.063 9.43a2.99 2.99 0 0 0 2.832 2.058h9.918a2.99 2.99 0 0 0 2.832-2.059l3.063-9.43a2.985 2.985 0 0 0-1.083-3.33L13.75 1.36A2.97 2.97 0 0 0 12 .791zm0 1.996c.2 0 .401.064.574.19l8.022 5.828a.97.97 0 0 1 .355 1.093l-3.062 9.43v.002a.97.97 0 0 1-.932.676H7.043c-.428 0-.8-.27-.932-.676v-.002L3.05 9.898a.97.97 0 0 1 .355-1.093l8.022-5.828a.98.98 0 0 1 .574-.19z"/></svg>