<svg xmlns="http://www.w3.org/2000/svg" width="24" height="24" viewBox="0 0 24 24"><path d="M12 2C6.489 2 2 6.489 2 12s4.489 10 10 10 10-4.489 10-10a9.99 9.99 0 0 0-3.855-7.879 1 1 0 0 0-.166-.13A9.95 9.95 0 0 0 12 2zm0 2c1.568 0 3.027.45 4.26 1.225-1.155 3.178-2.788 4.823-4.84 6.103-1.967 1.227-4.37 2.065-6.969 3.328A8 8 0 0 1 4 12c0-4.43 3.57-8 8-8zm5.88 2.572q.069.073.134.147c.211 2.53-.198 4.123-.897 5.191-.71 1.087-1.775 1.728-3.146 2.195-1.912.652-4.335.829-6.617 1.428 1.773-.775 3.509-1.5 5.125-2.508 2.177-1.358 4.095-3.295 5.402-6.453zm1.958 3.813q.16.783.162 1.615c0 4.43-3.57 8-8 8a7.97 7.97 0 0 1-5.418-2.107c2.213-.783 5.295-.959 8.035-1.893 1.614-.55 3.153-1.436 4.174-2.996.482-.737.835-1.605 1.047-2.62z"/></svg>