<svg xmlns="http://www.w3.org/2000/svg" width="24" height="24" viewBox="0 0 24 24"><path d="M5 2C3.355 2 2 3.355 2 5v14c0 1.645 1.355 3 3 3h14c1.645 0 3-1.355 3-3V5c0-1.645-1.355-3-3-3zm0 2h14c.564 0 1 .436 1 1v14c0 .564-.436 1-1 1H5c-.564 0-1-.436-1-1V5c0-.564.436-1 1-1zm10 4.037a1 1 0 0 0-.707.293l-6 6a1 1 0 0 0 0 1.414 1 1 0 0 0 1.414 0l6-6a1 1 0 0 0 0-1.414A1 1 0 0 0 15 8.037zm-6 .031a1 1 0 0 0-1 1v.014a1 1 0 0 0 1 1 1 1 0 0 0 1-1v-.014a1 1 0 0 0-1-1zm6 6.014a1 1 0 0 0-1 1v.016a1 1 0 0 0 1 1 1 1 0 0 0 1-1v-.016a1 1 0 0 0-1-1z"/></svg>