<svg xmlns="http://www.w3.org/2000/svg" width="24" height="24" viewBox="0 0 24 24"><path d="M7 5c-.472 0-.958.152-1.352.502-.206.183-.226.512-.34.785A1 1 0 0 0 5 7a1 1 0 0 0 .309.713c.113.273.133.602.34.785C6.041 8.848 6.527 9 7 9s.958-.152 1.352-.502C8.745 8.148 9 7.583 9 7s-.255-1.148-.648-1.498A2.02 2.02 0 0 0 7 5zm11 0a1 1 0 0 0-.707.293l-12 12a1 1 0 0 0 0 1.414 1 1 0 0 0 1.414 0l12-12a1 1 0 0 0 0-1.414A1 1 0 0 0 18 5zm-1 10c-.472 0-.958.152-1.352.502-.206.183-.226.512-.34.785A1 1 0 0 0 15 17a1 1 0 0 0 .309.713c.113.273.133.602.34.785.393.35.879.502 1.351.502s.958-.152 1.352-.502c.393-.35.648-.915.648-1.498s-.255-1.148-.648-1.498A2.02 2.02 0 0 0 17 15z"/></svg>