<svg xmlns="http://www.w3.org/2000/svg" width="24" height="24" viewBox="0 0 24 24"><path d="m6 2-.2.006A4 4 0 0 0 2 6v9.586l5.307-5.307.154-.14c1.246-1.08 2.84-1.078 4.096.017l.15.137L14 12.586l.307-.307.154-.14c1.246-1.08 2.84-1.078 4.096.017l.15.137L22 15.586V6l-.006-.2A4 4 0 0 0 18 2zm9.01 5 .117.008a1 1 0 0 1 0 1.984L15 9l-.117-.008a1 1 0 0 1 0-1.984zm-5.508 4.328q-.346-.002-.69.283l-.105.096-6.687 6.69A4 4 0 0 0 6 22h12l.205-.006a4 4 0 0 0 3.775-3.598l-4.673-4.675-.108-.098c-.468-.391-.93-.392-1.387-.012l-.105.096-.293.293 1.293 1.293.082.094a1 1 0 0 1-1.402 1.402l-.094-.082-4.986-4.986-.108-.098q-.35-.292-.697-.295z"/></svg>