<svg xmlns="http://www.w3.org/2000/svg" width="24" height="24" viewBox="0 0 24 24"><path d="M6 2C3.803 2 2 3.803 2 6v12c0 2.197 1.803 4 4 4h6a1 1 0 0 0 1-1 1 1 0 0 0-1-1H6c-1.116 0-2-.884-2-2v-1.586l4.693-4.693c.316-.304.576-.39.807-.39.23 0 .49.086.807.39l2.986 2.986a1 1 0 0 0 .225.162l.074.037a1 1 0 0 0 .205.067l.066.015a1 1 0 0 0 .274 0l.066-.015a1 1 0 0 0 .205-.067l.074-.037a1 1 0 0 0 .225-.162l.986-.986c.316-.304.576-.39.807-.39.23 0 .49.086.807.39a1 1 0 0 0 1.414-.028 1 1 0 0 0-.028-1.414c-.612-.589-1.388-.949-2.193-.949s-1.581.36-2.193.95l-.014.013-.293.293-2.293-2.293-.014-.014c-.612-.589-1.388-.949-2.193-.949s-1.581.36-2.193.95l-.014.013L4 13.586V6c0-1.116.884-2 2-2h12c1.116 0 2 .884 2 2v7a1 1 0 0 0 1 1 1 1 0 0 0 1-1V6c0-2.197-1.803-4-4-4zm9 5a1 1 0 0 0-1 1 1 1 0 0 0 1 1h.01a1 1 0 0 0 1-1 1 1 0 0 0-1-1zm1.5 9a1 1 0 0 0-1 1 1 1 0 0 0 1 1h2.086l-3.293 3.293a1 1 0 0 0 0 1.414 1 1 0 0 0 1.414 0L20 19.414V21.5a1 1 0 0 0 1 1 1 1 0 0 0 1-1V17l-.002-.016a1 1 0 0 0-.03-.224l-.011-.041a1 1 0 0 0-.09-.215l-.002-.004-.004-.006a1 1 0 0 0-.154-.201 1 1 0 0 0-.207-.158A1 1 0 0 0 21 16z"/></svg>