<svg xmlns="http://www.w3.org/2000/svg" width="24" height="24" viewBox="0 0 24 24"><path d="M6 2C3.803 2 2 3.803 2 6v12c0 2.197 1.803 4 4 4h7.5a1 1 0 0 0 1-1 1 1 0 0 0-1-1H6c-1.116 0-2-.884-2-2v-1.586l4.693-4.693c.316-.304.576-.39.807-.39.23 0 .49.086.807.39l3.986 3.986a1 1 0 0 0 1.414 0 1 1 0 0 0 0-1.414L15.414 14l.28-.28c.455-.437.752-.472 1.124-.327a1 1 0 0 0 1.295-.57 1 1 0 0 0-.572-1.296 2.84 2.84 0 0 0-1.693-.1 3.37 3.37 0 0 0-1.541.852l-.014.014-.293.293-2.293-2.293-.014-.014c-.612-.589-1.388-.949-2.193-.949s-1.581.36-2.193.95l-.014.013L4 13.586V6c0-1.116.884-2 2-2h12c1.116 0 2 .884 2 2v6.5a1 1 0 0 0 1 1 1 1 0 0 0 1-1V6c0-2.197-1.803-4-4-4zm9 5a1 1 0 0 0-1 1 1 1 0 0 0 1 1h.01a1 1 0 0 0 1-1 1 1 0 0 0-1-1zm4.064 8.002a1 1 0 0 0-.26.018 1 1 0 0 0-.636.425l-2 3A1 1 0 0 0 17 20h2.13l-.962 1.445a1 1 0 0 0 .277 1.387 1 1 0 0 0 1.387-.277l2-3A1 1 0 0 0 21 18h-2.13l.962-1.445a1 1 0 0 0-.277-1.387 1 1 0 0 0-.49-.166z"/></svg>