<svg xmlns="http://www.w3.org/2000/svg" width="24" height="24" viewBox="0 0 24 24"><path d="M6 2C3.803 2 2 3.803 2 6v12c0 2.197 1.803 4 4 4h12c2.197 0 4-1.803 4-4V6c0-2.197-1.803-4-4-4zm0 2h12c1.116 0 2 .884 2 2v7.586l-1.293-1.293-.014-.014c-.612-.589-1.388-.949-2.193-.949s-1.581.36-2.193.95l-.014.013-.293.293-2.293-2.293-.014-.014c-.612-.589-1.388-.949-2.193-.949s-1.581.36-2.193.95l-.014.013L4 13.586V6c0-1.116.884-2 2-2zm9 3a1 1 0 0 0-1 1 1 1 0 0 0 1 1h.01a1 1 0 0 0 1-1 1 1 0 0 0-1-1zm-5.5 4.33c.23 0 .49.087.807.39l2.986 2.987 2 2a1 1 0 0 0 1.414 0 1 1 0 0 0 0-1.414L15.414 14l.28-.28c.315-.303.575-.39.806-.39.23 0 .49.087.807.39L20 16.415V18c0 1.116-.884 2-2 2H6c-1.116 0-2-.884-2-2v-1.586l4.693-4.693c.316-.304.576-.39.807-.39z"/></svg>