<svg xmlns="http://www.w3.org/2000/svg" width="24" height="24" viewBox="0 0 24 24"><path d="M6 2C3.803 2 2 3.803 2 6v12c0 2.197 1.803 4 4 4h7a1 1 0 0 0 1-1 1 1 0 0 0-1-1H6c-1.116 0-2-.884-2-2v-1.586l4.693-4.693c.316-.304.576-.39.807-.39.23 0 .49.086.807.39l2.986 2.986a1 1 0 0 0 .225.162l.074.037a1 1 0 0 0 .205.067l.066.015a1 1 0 0 0 .274 0l.066-.015a1 1 0 0 0 .205-.067l.074-.037a1 1 0 0 0 .225-.162l.986-.986c.316-.304.576-.39.807-.39.23 0 .49.086.807.39a1 1 0 0 0 1.414-.028 1 1 0 0 0-.028-1.414c-.612-.589-1.388-.949-2.193-.949s-1.581.36-2.193.95l-.014.013-.293.293-2.293-2.293-.014-.014c-.612-.589-1.388-.949-2.193-.949s-1.581.36-2.193.95l-.014.013L4 13.586V6c0-1.116.884-2 2-2h12c1.116 0 2 .884 2 2v7a1 1 0 0 0 1 1 1 1 0 0 0 1-1V6c0-2.197-1.803-4-4-4zm9 5a1 1 0 0 0-1 1 1 1 0 0 0 1 1h.01a1 1 0 0 0 1-1 1 1 0 0 0-1-1zm2 9a1 1 0 0 0-.707.293 1 1 0 0 0 0 1.414l1.793 1.793-1.793 1.793a1 1 0 0 0 0 1.414 1 1 0 0 0 1.414 0l1.793-1.793 1.793 1.793a1 1 0 0 0 1.414 0 1 1 0 0 0 0-1.414L20.914 19.5l1.793-1.793a1 1 0 0 0 0-1.414 1 1 0 0 0-1.414 0L19.5 18.086l-1.793-1.793A1 1 0 0 0 17 16z"/></svg>