<svg xmlns="http://www.w3.org/2000/svg" width="24" height="24" viewBox="0 0 24 24"><path d="M12 2c-3.683 0-6.242.43-7.906 2.094C2.429 5.758 2 8.317 2 12s.43 6.242 2.094 7.906C5.758 21.571 8.317 22 12 22s6.242-.43 7.906-2.094C21.571 18.242 22 15.683 22 12s-.43-6.242-2.094-7.906C18.242 2.429 15.683 2 12 2zm0 2c3.517 0 5.456.472 6.492 1.508S20 8.483 20 12c0 .56-.015 1.065-.04 1.547l-1.253-1.254-.014-.014c-.612-.589-1.388-.949-2.193-.949s-1.581.36-2.193.95l-.014.013-.293.293-2.293-2.293-.014-.014c-.612-.589-1.388-.949-2.193-.949s-1.581.36-2.193.95l-.014.013-3.254 3.254A31 31 0 0 1 4 12c0-3.517.472-5.456 1.508-6.492S8.483 4 12 4zm3 3a1 1 0 0 0-1 1 1 1 0 0 0 1 1h.01a1 1 0 0 0 1-1 1 1 0 0 0-1-1zm-5.5 4.33c.23 0 .49.087.807.39l2.986 2.987 2 2a1 1 0 0 0 1.414 0 1 1 0 0 0 0-1.414L15.414 14l.28-.28c.315-.303.575-.39.806-.39.23 0 .49.087.807.39l2.35 2.35c-.248 1.109-.63 1.888-1.165 2.422C17.456 19.528 15.517 20 12 20s-5.456-.472-6.492-1.508c-.535-.534-.917-1.313-1.164-2.422l4.35-4.35c.315-.303.575-.39.806-.39z"/></svg>