<svg xmlns="http://www.w3.org/2000/svg" width="24" height="24" viewBox="0 0 24 24"><path d="M6 2C3.803 2 2 3.803 2 6v12c0 2.197 1.803 4 4 4h5.5a1 1 0 0 0 1-1 1 1 0 0 0-1-1H6c-1.116 0-2-.884-2-2v-1.586l4.693-4.693c.316-.304.576-.39.807-.39.23 0 .49.086.807.39l1.986 1.986a1 1 0 0 0 1.414 0 1 1 0 0 0 0-1.414l-2-2-.014-.014c-.612-.589-1.388-.949-2.193-.949s-1.581.36-2.193.95l-.014.013L4 13.586V6c0-1.116.884-2 2-2h12c1.116 0 2 .884 2 2v5.5a1 1 0 0 0 1 1 1 1 0 0 0 1-1V6c0-2.197-1.803-4-4-4zm9 5a1 1 0 0 0-1 1 1 1 0 0 0 1 1h.01a1 1 0 0 0 1-1 1 1 0 0 0-1-1zm3 7c-.972 0-1.958.319-2.727 1.002S14 16.75 14 18s.505 2.315 1.273 2.998C16.043 21.681 17.028 22 18 22a4.2 4.2 0 0 0 2.059-.527l1.234 1.234a1 1 0 0 0 1.414 0 1 1 0 0 0 0-1.414l-1.23-1.23c.33-.586.523-1.289.523-2.063 0-1.25-.505-2.315-1.273-2.998C19.957 14.319 18.972 14 18 14zm0 2c.528 0 1.042.181 1.398.498.357.317.602.752.602 1.502s-.245 1.185-.602 1.502c-.356.317-.87.498-1.398.498s-1.042-.181-1.398-.498C16.245 19.185 16 18.75 16 18s.245-1.185.602-1.502c.356-.317.87-.498 1.398-.498z"/></svg>