<svg xmlns="http://www.w3.org/2000/svg" width="24" height="24" viewBox="0 0 24 24"><path d="M12 4c-.472 0-.958.152-1.352.502-.206.183-.226.512-.34.785A1 1 0 0 0 10 6a1 1 0 0 0 .309.713c.113.273.133.602.34.785.393.35.879.502 1.351.502s.958-.152 1.352-.502C13.745 7.148 14 6.583 14 6s-.255-1.148-.648-1.498A2.02 2.02 0 0 0 12 4zm0 5-.043.006a1 1 0 0 0-.2.025 1 1 0 0 0-.087.031 1 1 0 0 0-.117.043l-4 2a1 1 0 0 0-.502 1.211l1 3a1 1 0 0 0 1.265.633 1 1 0 0 0 .633-1.265l-.726-2.178L11 11.619V17a1 1 0 0 0 1 1 1 1 0 0 0 1-1v-5.719l2.758.69A1 1 0 0 0 16 12h3.5a1 1 0 0 0 1-1 1 1 0 0 0-1-1h-3.377l-3.863-.967-.018-.004h-.004A1 1 0 0 0 12.006 9zm7.852 4.012a1 1 0 0 0-.3.093l-4 2a1 1 0 0 0-.523.653L14.22 19H8a1 1 0 0 0-1 1 1 1 0 0 0 1 1h7a1 1 0 0 0 .97-.758l.89-3.553 3.587-1.794a1 1 0 0 0 .448-1.342 1 1 0 0 0-1.043-.541zM4 17c-.472 0-.958.152-1.352.502-.206.183-.226.512-.34.785A1 1 0 0 0 2 19a1 1 0 0 0 .309.713c.113.273.133.602.34.785.393.35.879.502 1.351.502s.958-.152 1.352-.502C5.745 20.148 6 19.583 6 19s-.255-1.148-.648-1.498A2.02 2.02 0 0 0 4 17zm14 2a1 1 0 0 0-1 1 1 1 0 0 0 1 1h3a1 1 0 0 0 1-1 1 1 0 0 0-1-1z"/></svg>