<svg xmlns="http://www.w3.org/2000/svg" width="24" height="24" viewBox="0 0 24 24"><path d="M5 4C3.355 4 2 5.355 2 7v10c0 1.645 1.355 3 3 3h6a1 1 0 0 0 1-1 1 1 0 0 0-1-1H5c-.564 0-1-.436-1-1V7c0-.564.436-1 1-1h14c.564 0 1 .436 1 1v4a1 1 0 0 0 1 1 1 1 0 0 0 1-1V7c0-1.645-1.355-3-3-3zm2 4a1 1 0 0 0-.707.293 1 1 0 0 0 0 1.414L8.586 12H8a1 1 0 0 0-1 1 1 1 0 0 0 1 1h3l.05-.006a1 1 0 0 0 .12-.014 1 1 0 0 0 .105-.023 1 1 0 0 0 .104-.037 1 1 0 0 0 .105-.05 1 1 0 0 0 .09-.057 1 1 0 0 0 .086-.069l.047-.037a1 1 0 0 0 .074-.084 1 1 0 0 0 .12-.19 1 1 0 0 0 .072-.206l.002-.004v-.004a1 1 0 0 0 .023-.201L12 13v-3a1 1 0 0 0-1-1 1 1 0 0 0-1 1v.586L7.707 8.293A1 1 0 0 0 7 8zm8 5c-1.093 0-2 .907-2 2v3c0 1.093.907 2 2 2h5c1.093 0 2-.907 2-2v-3c0-1.093-.907-2-2-2zm0 2h5v3h-5z"/></svg>