<svg xmlns="http://www.w3.org/2000/svg" width="24" height="24" viewBox="0 0 24 24"><path d="M5 4C3.355 4 2 5.355 2 7v10c0 1.645 1.355 3 3 3h6a1 1 0 0 0 1-1 1 1 0 0 0-1-1H5c-.564 0-1-.436-1-1V7c0-.564.436-1 1-1h14c.564 0 1 .436 1 1v4a1 1 0 0 0 1 1 1 1 0 0 0 1-1V7c0-1.645-1.355-3-3-3zm2 4a1 1 0 0 0-.209.023l-.062.02a1 1 0 0 0-.143.049l-.059.033a1 1 0 0 0-.123.076l-.056.047-.055.045-.037.047a1 1 0 0 0-.069.086 1 1 0 0 0-.056.09 1 1 0 0 0-.05.105 1 1 0 0 0-.038.104 1 1 0 0 0-.023.105 1 1 0 0 0-.014.12L6 9v3a1 1 0 0 0 1 1 1 1 0 0 0 1-1v-.586l2.293 2.293a1 1 0 0 0 1.414 0 1 1 0 0 0 0-1.414L9.414 10H10a1 1 0 0 0 1-1 1 1 0 0 0-1-1zm8 5c-1.093 0-2 .907-2 2v3c0 1.093.907 2 2 2h5c1.093 0 2-.907 2-2v-3c0-1.093-.907-2-2-2zm0 2h5v3h-5z"/></svg>