<svg xmlns="http://www.w3.org/2000/svg" width="24" height="24" viewBox="0 0 24 24"><path d="M12 2a1 1 0 0 0-.889.543l-8.5 16.516a1 1 0 0 0 .444 1.353A20.1 20.1 0 0 0 12 22.5a20.1 20.1 0 0 0 8.943-2.086 1 1 0 0 0 .446-1.355l-8.5-16.516A1 1 0 0 0 12 2zm0 3.184 5.322 10.345c-1.63.642-3.367.973-5.125.971h-.004a13.9 13.9 0 0 1-5.449-1.104zM13 10a1 1 0 0 0-1 1v.01a1 1 0 0 0 1 1 1 1 0 0 0 1-1V11a1 1 0 0 0-1-1zm-2 2.99a1 1 0 0 0-1 1V14a1 1 0 0 0 1 1 1 1 0 0 0 1-1v-.01a1 1 0 0 0-1-1zm-5.174 4.19a15.9 15.9 0 0 0 6.371 1.32 16 16 0 0 0 6.045-1.184l.85 1.65c-2.248.959-4.64 1.538-7.09 1.534H12c-2.523 0-4.911-.597-7.094-1.531z"/></svg>