<svg xmlns="http://www.w3.org/2000/svg" width="24" height="24" viewBox="0 0 24 24"><path d="M3 2a1 1 0 0 0-.707.293 1 1 0 0 0 0 1.414L8.105 9.52q-.021.154-.039.31A10.93 10.93 0 0 0 2 8a1 1 0 0 0-.35.07 1 1 0 0 0-.1.051 1 1 0 0 0-.204.137 1 1 0 0 0-.088.088 1 1 0 0 0-.137.205 1 1 0 0 0-.05.1A1 1 0 0 0 1 9c0 6.063 4.937 11 11 11a10.95 10.95 0 0 0 5.252-1.334l3.041 3.041a1 1 0 0 0 1.414 0 1 1 0 0 0 0-1.414l-18-18A1 1 0 0 0 3 2zm8.979 1a1 1 0 0 0-.131.02 1 1 0 0 0-.098.015 1 1 0 0 0-.162.063l-.078.033a1 1 0 0 0-.14.103l-.06.043-.023.024-.01.008-.004.005a10.7 10.7 0 0 0-1.888 2.434 1 1 0 0 0 .377 1.363 1 1 0 0 0 1.363-.379q.381-.673.873-1.267A8.7 8.7 0 0 1 14 11.014a1 1 0 0 0 .596.906 1 1 0 0 0 .107.172 1 1 0 0 0 1.41.1 8.96 8.96 0 0 1 4.823-2.128 8.96 8.96 0 0 1-2.135 4.832 1 1 0 0 0 .097 1.41 1 1 0 0 0 1.41-.097A10.97 10.97 0 0 0 23 9.002v-.006a1 1 0 0 0-.074-.371l-.008-.02a1 1 0 0 0-.213-.314l-.006-.004A1 1 0 0 0 22.002 8h-.004a10.96 10.96 0 0 0-6.064 1.822 10.7 10.7 0 0 0-3.243-6.545 1 1 0 0 0-.103-.076 1 1 0 0 0-.086-.062 1 1 0 0 0-.133-.059 1 1 0 0 0-.11-.043 1 1 0 0 0-.126-.02 1 1 0 0 0-.11-.017L12 3.002zm-8.915 7.064a8.98 8.98 0 0 1 7.872 7.872 8.98 8.98 0 0 1-7.872-7.872zm6.942 1.356 2.328 2.328q-.18.329-.338.67a11 11 0 0 0-1.988-2.945v-.024zm3.816 3.816 1.942 1.942a9 9 0 0 1-2.7.756c.113-.954.372-1.86.758-2.698z"/></svg>