<svg xmlns="http://www.w3.org/2000/svg" width="24" height="24" viewBox="0 0 24 24"><path d="M3 2a1 1 0 0 0-.35.07 1 1 0 0 0-.1.051 1 1 0 0 0-.204.137l-.053.035-.035.053a1 1 0 0 0-.137.205 1 1 0 0 0-.05.1A1 1 0 0 0 2 3v2c0 3.854 3.146 7 7 7h1.586l.414.414V14H7a1 1 0 0 0-1 1v4c0 1.645 1.355 3 3 3h6a3.016 3.016 0 0 0 2.973-2.613l2.32 2.32a1 1 0 0 0 1.414 0 1 1 0 0 0 0-1.414l-4-4-2-2-2.977-2.975-.048-.048-.975-.977-8-8a1 1 0 0 0-.314-.211l-.022-.008A1 1 0 0 0 3 2zm3.982.11a1 1 0 0 0-.855.806 1 1 0 0 0 .799 1.168 4.99 4.99 0 0 1 3.99 4.006 1 1 0 0 0 .68.758 1 1 0 0 0 .523.591 1 1 0 0 0 1.322-.5A5 5 0 0 1 18 6h2a4.99 4.99 0 0 1-4.197 4.936 1 1 0 0 0-.826 1.148 1 1 0 0 0 1.146.826A7.01 7.01 0 0 0 22 6V5a1 1 0 0 0-1-1h-3a7 7 0 0 0-5.432 2.582 7.01 7.01 0 0 0-5.273-4.463 1 1 0 0 0-.313-.01zM4.02 5.433 8.566 9.98A4.98 4.98 0 0 1 4.02 5.434zM8 16h6.586L16 17.414V19c0 .564-.436 1-1 1H9c-.564 0-1-.436-1-1z"/></svg>