<svg xmlns="http://www.w3.org/2000/svg" width="24" height="24" viewBox="0 0 24 24"><path d="M12 2C6.489 2 2 6.489 2 12s4.489 10 10 10 10-4.489 10-10S17.511 2 12 2zm0 2c4.43 0 8 3.57 8 8s-3.57 8-8 8-8-3.57-8-8 3.57-8 8-8zm0 2.5c-1.347 0-2.708.444-3.758 1.377S6.5 10.25 6.5 12s.692 3.19 1.742 4.123S10.652 17.5 12 17.5s2.708-.444 3.758-1.377S17.5 13.75 17.5 12s-.692-3.19-1.742-4.123S13.348 6.5 12 6.5zm0 2c.903 0 1.792.306 2.43.873.637.567 1.07 1.377 1.07 2.627s-.433 2.06-1.07 2.627c-.638.567-1.527.873-2.43.873s-1.792-.306-2.43-.873C8.933 14.06 8.5 13.25 8.5 12s.433-2.06 1.07-2.627c.638-.567 1.527-.873 2.43-.873z"/></svg>