<svg xmlns="http://www.w3.org/2000/svg" width="24" height="24" viewBox="0 0 24 24"><path d="M13.64 9.566a1 1 0 0 0-.554.528l-2 4.5a1 1 0 0 0 .25 1.154l3.459 3.074-2.291 1.309a1 1 0 0 0-.373 1.365 1 1 0 0 0 1.365.373l3.5-2a1 1 0 0 0 .168-1.617l-3.953-3.514 1.703-3.832a1 1 0 0 0-.508-1.32 1 1 0 0 0-.765-.02Z"/><path d="M7.316 5.05a1 1 0 0 0-.763.055 1 1 0 0 0-.448 1.342l2 4a1 1 0 0 0 .795.547l4.768.479 3.666 2.29 2.398 2.878a1 1 0 0 0 1.409.127 1 1 0 0 0 .127-1.409l-2.5-3a1 1 0 0 0-.239-.207l-4-2.5a1 1 0 0 0-.43-.146L9.65 9.06 7.894 5.553a1 1 0 0 0-.579-.502Zm3.044 10.96a1 1 0 0 0-.66.39l-1.27 1.694-4.625.926a1 1 0 0 0-.785 1.175 1 1 0 0 0 1.175.785l5-1a1 1 0 0 0 .606-.38l1.5-2a1 1 0 0 0-.201-1.4 1 1 0 0 0-.74-.19zM16 5c-.472 0-.958.152-1.352.502-.206.183-.226.512-.34.785A1 1 0 0 0 14 7a1 1 0 0 0 .309.713c.113.273.133.602.34.785.393.35.879.502 1.351.502s.958-.152 1.352-.502C17.745 8.148 18 7.583 18 7s-.255-1.148-.648-1.498A2.02 2.02 0 0 0 16 5ZM9.5 5a.5.5 0 1 0 0-1 .5.5 0 0 0 0 1z"/><path d="M9.5 3c-.417 0-.856.192-1.123.492S8 4.152 8 4.5c0 .347.11.708.377 1.008S9.083 6 9.5 6s.856-.192 1.123-.492S11 4.848 11 4.5c0-.347-.11-.708-.377-1.008A1.56 1.56 0 0 0 9.5 3Zm0 1c.083 0 .273.067.373.18a.464.464 0 0 1 0 .64c-.1.113-.29.18-.373.18a.62.62 0 0 1-.373-.18.464.464 0 0 1 0-.64c.1-.113.29-.18.373-.18Z"/></svg>