<svg xmlns="http://www.w3.org/2000/svg" width="24" height="24" viewBox="0 0 24 24"><path d="M20.889 2.006a1 1 0 0 0-.596.287l-1.824 1.824a4.5 4.5 0 0 0-2.244-.756c-1.173-.061-2.436.402-3.444 1.444l-1.488 1.488a1 1 0 0 0 0 1.414l5 5a1 1 0 0 0 1.414 0l1.488-1.488c1.042-1.008 1.505-2.27 1.444-3.444a4.5 4.5 0 0 0-.756-2.244l1.824-1.824a1 1 0 0 0 0-1.414 1 1 0 0 0-.818-.287zm-5 3.351q.115-.004.23.002c.53.028 1.068.256 1.51.621a1 1 0 0 0 .164.227 1 1 0 0 0 .227.164c.365.442.593.98.62 1.51.033.615-.155 1.242-.835 1.9l-.012.012-.793.793L13.414 7l.793-.793.012-.012c.576-.595 1.129-.814 1.67-.838zM10 10a1 1 0 0 0-.707.293L8 11.586l-.293-.293a1 1 0 0 0-1.414 0l-1.488 1.488C3.763 13.79 3.3 15.051 3.36 16.225c.044.821.323 1.587.756 2.244l-1.824 1.824a1 1 0 0 0 0 1.414 1 1 0 0 0 1.414 0l1.824-1.824a4.5 4.5 0 0 0 2.244.756c1.173.061 2.436-.402 3.444-1.444l1.488-1.488a1 1 0 0 0 0-1.414L12.414 16l1.293-1.293a1 1 0 0 0 0-1.414A1 1 0 0 0 13 13a1 1 0 0 0-.707.293L11 14.586 9.414 13l1.293-1.293a1 1 0 0 0 0-1.414A1 1 0 0 0 10 10zm-3 3.414 3.293 3.293.293.293-.793.793-.012.012c-.658.68-1.285.868-1.9.836-.525-.028-1.058-.252-1.498-.612a1 1 0 0 0-.176-.236 1 1 0 0 0-.228-.166c-.365-.442-.592-.979-.62-1.508-.032-.615.156-1.242.836-1.9l.012-.012z"/></svg>