<svg xmlns="http://www.w3.org/2000/svg" width="24" height="24" viewBox="0 0 24 24"><path d="M3.854 3.012a1 1 0 0 0-.815 1.265l3.889 13.504a2.23 2.23 0 0 0 1.845 1.701 2.23 2.23 0 0 0 2.188-1.05l1.47-2.176a1 1 0 0 0 1.169-.102 1 1 0 0 0 0-1.414l-.67-.67a1 1 0 0 0-1.537.149l-2.09 3.092a1 1 0 0 0-.051.085c-.067.125-.112.117-.203.104s-.137-.016-.168-.154l-.016-.059L5.461 5.461l11.846 3.404.058.016c.139.03.142.076.155.168.012.091.02.136-.104.203a1 1 0 0 0-.082.05l-3.113 2.09a1 1 0 0 0-.15 1.538l.982.98a1 1 0 0 0 1.414 0 1 1 0 0 0 0-1.414l-.121-.121 2.103-1.412a2.23 2.23 0 0 0 1.053-2.19 2.23 2.23 0 0 0-1.703-1.845L4.275 3.039a1 1 0 0 0-.421-.027zm13.035 12.994a1 1 0 0 0-.596.287l-2 2a1 1 0 0 0 0 1.414l2 2a1 1 0 0 0 1.414 0 1 1 0 0 0 0-1.414L16.414 19l1.293-1.293a1 1 0 0 0 0-1.414 1 1 0 0 0-.818-.287zm3 0a1 1 0 0 0-.596.287 1 1 0 0 0 0 1.414L20.586 19l-1.293 1.293a1 1 0 0 0 0 1.414 1 1 0 0 0 1.414 0l2-2a1 1 0 0 0 0-1.414l-2-2a1 1 0 0 0-.818-.287z"/></svg>