<svg xmlns="http://www.w3.org/2000/svg" width="24" height="24" viewBox="0 0 24 24"><path d="M3.854 3.012a1 1 0 0 0-.815 1.265l3.889 13.504a2.23 2.23 0 0 0 1.845 1.701 2.23 2.23 0 0 0 2.188-1.05l2.09-3.094a1 1 0 0 0-.27-1.389 1 1 0 0 0-1.388.27l-2.09 3.092a1 1 0 0 0-.051.085c-.067.125-.112.117-.203.104s-.137-.016-.168-.154l-.016-.059L5.461 5.461l11.846 3.404.058.016c.139.03.142.076.155.168.012.091.02.136-.104.203a1 1 0 0 0-.082.05l-3.113 2.09a1 1 0 0 0-.274 1.387 1 1 0 0 0 1.389.274l3.113-2.09a2.23 2.23 0 0 0 1.053-2.19 2.23 2.23 0 0 0-1.703-1.845L4.275 3.039a1 1 0 0 0-.421-.027zM18 14c-.972 0-1.958.319-2.727 1.002S14 16.75 14 18s.505 2.315 1.273 2.998C16.043 21.681 17.028 22 18 22a4.2 4.2 0 0 0 2.059-.527l1.234 1.234a1 1 0 0 0 1.414 0 1 1 0 0 0 0-1.414l-1.23-1.23c.33-.586.523-1.289.523-2.063 0-1.25-.505-2.315-1.273-2.998C19.957 14.319 18.972 14 18 14zm0 2c.528 0 1.042.181 1.398.498.357.317.602.752.602 1.502s-.245 1.185-.602 1.502c-.356.317-.87.498-1.398.498s-1.042-.181-1.398-.498C16.245 19.185 16 18.75 16 18s.245-1.185.602-1.502c.356-.317.87-.498 1.398-.498z"/></svg>