<svg xmlns="http://www.w3.org/2000/svg" width="24" height="24" viewBox="0 0 24 24"><path d="m6 2-.2.006A4 4 0 0 0 2 6v6.586l4.307-4.307.154-.14c1.246-1.08 2.84-1.078 4.096.017l.15.137L13 10.586l1.307-1.307.154-.14c1.246-1.08 2.84-1.078 4.096.017l.15.137L22 12.586V6l-.006-.2A4 4 0 0 0 18 2zm9.01 3 .117.008a1 1 0 0 1 0 1.984L15 7l-.117-.008a1 1 0 0 1 0-1.984zM8.502 9.328q-.346-.002-.69.283l-.105.096-5.516 5.518A4 4 0 0 0 6 18h12l.213-.006a4 4 0 0 0 3.596-2.77l-4.502-4.503-.108-.098c-.468-.391-.93-.392-1.387-.012l-.105.096L14.414 12l.293.293.082.094a1 1 0 0 1-1.402 1.402l-.094-.082-3.986-3.986-.108-.098q-.35-.292-.697-.295zM8.01 20l-.127.008A1 1 0 0 0 8 22l.127-.008A1 1 0 0 0 8.01 20zm4 0-.127.008A1 1 0 0 0 12 22l.127-.008A1 1 0 0 0 12.01 20zm4 0-.127.008A1 1 0 0 0 16 22l.127-.008A1 1 0 0 0 16.01 20z"/></svg>