<svg xmlns="http://www.w3.org/2000/svg" width="24" height="24" viewBox="0 0 24 24"><path d="M11.063 2.994C10.539 2.968 10 3.346 10 4l.008.117a1 1 0 0 0 .094.322l.01.018c.642 1.305.128 2.537-.612 2.537h-.164c-1.157.074-2.153.653-2.756 1.565l-.113.185a3.5 3.5 0 0 0-.451 2.059l.005.049-.033.025a4 4 0 0 0-1.474 2.797l-.012.19-.14.118A4 4 0 0 0 7 20.99h10.176c1.83-.106 3.32-1.364 3.72-3.092l.041-.209a4 4 0 0 0-1.289-3.693l-.15-.125-.01-.19a4 4 0 0 0-1.476-2.8l-.032-.026.006-.048a3.5 3.5 0 0 0-.566-2.243l-.125-.18a3.5 3.5 0 0 0-1.719-1.22l-.133-.039-.01-.074c-.343-2.36-1.977-3.95-4.214-4.047h-.07zM10 11h.01a1 1 0 0 1 0 2H10a1 1 0 0 1 0-2zm4 0h.01a1 1 0 0 1 0 2H14a1 1 0 0 1 0-2zm-3.842 4.012a1 1 0 0 1 .412.168 2.5 2.5 0 0 0 2.86 0 1 1 0 0 1 1.39.25 1 1 0 0 1-.25 1.39 4.5 4.5 0 0 1-5.14 0 1 1 0 0 1 .728-1.808z"/></svg>