<svg xmlns="http://www.w3.org/2000/svg" width="24" height="24" viewBox="0 0 24 24"><path d="M3 2a1 1 0 0 0-.707.293 1 1 0 0 0 0 1.414L8 9.414V12a1 1 0 0 0 1 1 1 1 0 0 0 1-1v-.586l3.564 3.565q-.206.201-.377.437c-.27.376-.703.594-1.166.584h-.042a1.4 1.4 0 0 1-1.166-.584A3.4 3.4 0 0 0 8 14.004a3.4 3.4 0 0 0-2.812 1.412c-.27.376-.704.594-1.167.584H3.98a1.4 1.4 0 0 1-1.166-.584 1 1 0 0 0-1.397-.229 1 1 0 0 0-.228 1.397A3.4 3.4 0 0 0 4 17.996a3.4 3.4 0 0 0 2.813-1.412c.27-.376.703-.594 1.166-.584h.042c.463-.01.897.208 1.166.584A3.4 3.4 0 0 0 12 17.996a3.4 3.4 0 0 0 2.813-1.412c.05-.07.107-.13.167-.19l1.66 1.66a3.4 3.4 0 0 0-.64-.05 3.4 3.4 0 0 0-2.812 1.412c-.27.376-.704.594-1.167.584h-.042a1.4 1.4 0 0 1-1.166-.584A3.4 3.4 0 0 0 8 18.004a3.4 3.4 0 0 0-2.812 1.412c-.27.376-.704.594-1.167.584H3.98a1.4 1.4 0 0 1-1.166-.584 1 1 0 0 0-1.397-.229 1 1 0 0 0-.228 1.397A3.4 3.4 0 0 0 4 21.996a3.4 3.4 0 0 0 2.813-1.412c.27-.376.703-.594 1.166-.584h.042c.463-.01.897.208 1.166.584A3.4 3.4 0 0 0 12 21.996a3.4 3.4 0 0 0 2.813-1.412c.27-.376.703-.594 1.166-.584h.042c.463-.01.897.208 1.166.584a3.4 3.4 0 0 0 2.825 1.414q.331-.001.668-.062a1 1 0 0 0 1.027-.229 1 1 0 0 0 0-1.414l-.064-.064a1 1 0 0 0-.104-.104L10.736 9.322l-.058-.058-.971-.971-6-6A1 1 0 0 0 3 2zm13.5 0c-.597 0-1.208.194-1.695.627A2.46 2.46 0 0 0 14.049 4H9.947c-.21-1-1.03-1.765-2.004-1.953a2.4 2.4 0 0 0-1.17.06 1 1 0 0 0-.666 1.248 1 1 0 0 0 1.248.666c.348-.105.645.116.645.479V5a1 1 0 0 0 .03.236 1 1 0 0 0 .034.098 1 1 0 0 0 .057.135 1 1 0 0 0 .05.08 1 1 0 0 0 .09.117 1 1 0 0 0 .073.072 1 1 0 0 0 .117.09 1 1 0 0 0 .08.05 1 1 0 0 0 .135.058 1 1 0 0 0 .098.035A1 1 0 0 0 9 6h5v3a1 1 0 0 0-1 1 1 1 0 0 0 1 1 1 1 0 0 0 1 1 1 1 0 0 0 1-1V4.5c0-.25.058-.31.133-.377A.58.58 0 0 1 16.5 4a.58.58 0 0 1 .367.123c.075.067.133.127.133.377a1 1 0 0 0 1 1 1 1 0 0 0 1-1c0-.75-.317-1.44-.805-1.873A2.53 2.53 0 0 0 16.5 2zm5.338 13.012a1 1 0 0 0-.65.404 1.4 1.4 0 0 1-.667.504 1 1 0 0 0-.605 1.277 1 1 0 0 0 1.277.606 3.4 3.4 0 0 0 1.62-1.219 1 1 0 0 0-.229-1.396 1 1 0 0 0-.746-.176z"/></svg>