<svg xmlns="http://www.w3.org/2000/svg" width="24" height="24" viewBox="0 0 24 24"><path d="M10 2a3.05 3.05 0 0 0-2.04.752C7.38 3.269 7 4.083 7 5v1H4a1 1 0 0 0-.709.297C2.577 6.604 2 7.182 2 8v3c0 1.093.907 2 2 2h1c.417 0 .602.12.752.29.15.168.248.432.248.71s-.098.542-.248.71c-.15.17-.335.29-.752.29H4c-1.093 0-2 .907-2 2v3c0 1.093.907 2 2 2h3c1.093 0 2-.907 2-2v-1c0-.417.12-.602.29-.752.168-.15.432-.248.71-.248s.542.098.71.248c.17.15.29.335.29.752v1c0 1.093.907 2 2 2h3c1.093 0 2-.907 2-2v-3h1c.917 0 1.731-.38 2.248-.96A3.05 3.05 0 0 0 22 14a3.05 3.05 0 0 0-.752-2.04C20.731 11.38 19.917 11 19 11h-1V8c0-1.093-.907-2-2-2h-3V5c0-.917-.38-1.731-.96-2.248A3.05 3.05 0 0 0 10 2zm0 2c.278 0 .542.098.71.248.17.15.29.335.29.752v1c0 1.093.907 2 2 2h3v3c0 1.093.907 2 2 2h1c.417 0 .602.12.752.29.15.168.248.432.248.71s-.098.542-.248.71c-.15.17-.335.29-.752.29h-1c-1.093 0-2 .907-2 2v3h-3v-1c0-.917-.38-1.731-.96-2.248A3.05 3.05 0 0 0 10 16a3.05 3.05 0 0 0-2.04.752C7.38 17.269 7 18.083 7 19v1H4v-3h1c.917 0 1.731-.38 2.248-.96A3.05 3.05 0 0 0 8 14a3.05 3.05 0 0 0-.752-2.04C6.731 11.38 5.917 11 5 11H4V8h3c1.093 0 2-.907 2-2V5c0-.417.12-.602.29-.752A1.1 1.1 0 0 1 10 4z"/></svg>