<svg xmlns="http://www.w3.org/2000/svg" width="24" height="24" viewBox="0 0 24 24"><path d="M10 2C8.355 2 7 3.355 7 5v3H5c-1.645 0-3 1.355-3 3v4c0 1.645 1.355 3 3 3h2v1c0 1.645 1.355 3 3 3h4c1.645 0 3-1.355 3-3v-3h2c1.645 0 3-1.355 3-3V9c0-1.645-1.355-3-3-3h-2V5c0-1.645-1.355-3-3-3zm0 2h4c.564 0 1 .436 1 1v5c0 .564-.436 1-1 1h-4c-1.645 0-3 1.355-3 3v2H5c-.564 0-1-.436-1-1v-4c0-.564.436-1 1-1h7a1 1 0 0 0 1-1 1 1 0 0 0-1-1H9V5c0-.564.436-1 1-1zm1 1a1 1 0 0 0-1 1v.01a1 1 0 0 0 1 1 1 1 0 0 0 1-1V6a1 1 0 0 0-1-1zm6 3h2c.564 0 1 .436 1 1v4c0 .564-.436 1-1 1h-7a1 1 0 0 0-1 1 1 1 0 0 0 1 1h3v3c0 .564-.436 1-1 1h-4c-.564 0-1-.436-1-1v-5c0-.564.436-1 1-1h4c1.645 0 3-1.355 3-3zm-4 9a1 1 0 0 0-1 1v.01a1 1 0 0 0 1 1 1 1 0 0 0 1-1V18a1 1 0 0 0-1-1z"/></svg>