<svg xmlns="http://www.w3.org/2000/svg" width="24" height="24" viewBox="0 0 24 24"><path d="M5 3c-1.093 0-2 .907-2 2v4c0 1.093.907 2 2 2h4c1.093 0 2-.907 2-2V5c0-1.093-.907-2-2-2zm10 0c-1.093 0-2 .907-2 2v4c0 1.093.907 2 2 2h4c1.093 0 2-.907 2-2V5c0-1.093-.907-2-2-2zM5 5h4v4H5zm10 0h4v4h-4zM7 6a1 1 0 0 0-1 1v.01a1 1 0 0 0 1 1 1 1 0 0 0 1-1V7a1 1 0 0 0-1-1zm10 0a1 1 0 0 0-1 1v.01a1 1 0 0 0 1 1 1 1 0 0 0 1-1V7a1 1 0 0 0-1-1zM5 13c-1.093 0-2 .907-2 2v4c0 1.093.907 2 2 2h4c1.093 0 2-.907 2-2v-4c0-1.093-.907-2-2-2zm9 0a1 1 0 0 0-1 1v3a1 1 0 0 0 1 1 1 1 0 0 0 1-1v-2h2a1 1 0 0 0 1-1 1 1 0 0 0-1-1zm6 0a1 1 0 0 0-1 1v.01a1 1 0 0 0 1 1 1 1 0 0 0 1-1V14a1 1 0 0 0-1-1zM5 15h4v4H5zm2 1a1 1 0 0 0-1 1v.01a1 1 0 0 0 1 1 1 1 0 0 0 1-1V17a1 1 0 0 0-1-1zm10 0a1 1 0 0 0-1 1 1 1 0 0 0 1 1h2v2a1 1 0 0 0 1 1 1 1 0 0 0 1-1v-3a1 1 0 0 0-1-1zm-3 3a1 1 0 0 0-1 1 1 1 0 0 0 1 1h3a1 1 0 0 0 1-1 1 1 0 0 0-1-1z"/></svg>