<svg xmlns="http://www.w3.org/2000/svg" width="24" height="24" viewBox="0 0 24 24"><path d="M11.775 2.03A9.84 9.84 0 0 0 4.93 4.942C-.238 10.117 1.776 19 8.67 21.438a1 1 0 0 0 1.277-.61 1 1 0 0 0-.61-1.275C3.756 17.579 2.16 10.545 6.345 6.355s11.219-2.602 13.199 2.979a1 1 0 0 0 1.277.61 1 1 0 0 0 .608-1.278c-1.529-4.307-5.573-6.707-9.653-6.637zm.336 3.982a5.96 5.96 0 0 0-4.353 1.746c-2.57 2.569-2.264 6.863.642 9.043a1 1 0 0 0 1.4-.201 1 1 0 0 0-.2-1.4 3.98 3.98 0 0 1-.428-6.028 3.98 3.98 0 0 1 6.027.428 1 1 0 0 0 1.4.2 1 1 0 0 0 .202-1.4 5.98 5.98 0 0 0-4.69-2.388zm-.177 3.994a2 2 0 0 0-1.348.58 2.03 2.03 0 0 0-.434 2.18c.16.383.47.69.848.916V21a1 1 0 0 0 1 1c5.511 0 10-4.489 10-10a1 1 0 0 0-.076-.383 1 1 0 0 0-.217-.324 1 1 0 0 0-.324-.217A1 1 0 0 0 21 11h-7.318c-.226-.377-.533-.689-.916-.848a2 2 0 0 0-.832-.146zM13 13h6.799c-.466 3.59-3.21 6.333-6.799 6.799z"/></svg>