<svg xmlns="http://www.w3.org/2000/svg" width="24" height="24" viewBox="0 0 24 24"><path d="M12 2.004a10 10 0 0 0-5 1.34 1 1 0 0 0-.365 1.367l3 5.19.062.097a1 1 0 0 0 1.303.268l.158-.082a2 2 0 0 1 1.842.082l.104.052a1 1 0 0 0 .546.07l.108-.023.105-.033a1 1 0 0 0 .196-.102l.087-.068a1 1 0 0 0 .157-.164l.062-.098 3-5.19.053-.105A1 1 0 0 0 17 3.344a10 10 0 0 0-5-1.34zM3 11l-.117.008A1 1 0 0 0 2 12a10 10 0 0 0 5 8.656 1 1 0 0 0 1.365-.367l3-5.19.055-.103a1 1 0 0 0 .078-.437l-.01-.11-.021-.107a1 1 0 0 0-.035-.106l-.045-.1-.057-.093-.066-.09a1 1 0 0 0-.166-.154l-.237-.153A2 2 0 0 1 10 12.002l-.008-.117A1 1 0 0 0 9 11zm12 0-.117.008a1 1 0 0 0-.883.994l-.008.162a2 2 0 0 1-.992 1.57l-.098.065a1 1 0 0 0-.166.154l-.066.09-.057.094-.045.1-.035.105-.021.105-.01.112a1 1 0 0 0 .133.54l3 5.19.062.1a1 1 0 0 0 1.303.267A10 10 0 0 0 22 12a1 1 0 0 0-1-1z"/></svg>