<svg xmlns="http://www.w3.org/2000/svg" width="24" height="24" viewBox="0 0 24 24"><path d="M6 2a1 1 0 0 0-1 1v5a1 1 0 0 0 1 1h5a1 1 0 0 0 1-1V3a1 1 0 0 0-1-1zm10.5 0c-.847 0-1.708.277-2.383.877S13 4.417 13 5.5s.442 2.023 1.117 2.623S15.653 9 16.5 9s1.708-.277 2.383-.877S20 6.583 20 5.5s-.442-2.023-1.117-2.623S17.347 2 16.5 2zM7 4h3v3H7zm9.5 0c.403 0 .792.14 1.055.373S18 4.917 18 5.5s-.183.894-.445 1.127C17.292 6.86 16.903 7 16.5 7s-.792-.14-1.055-.373S15 6.083 15 5.5s.183-.894.445-1.127C15.708 4.14 16.097 4 16.5 4zm-5.523 6-.217.006h-.022c-1.875.084-3.384.883-4.351 2.04-.968 1.159-1.41 2.634-1.38 4.085.032 1.45.539 2.905 1.556 4.02S9.12 21.997 10.997 22A1 1 0 0 0 12 21V11a1 1 0 0 0-1.023-1zM10 12.2v7.61c-.812-.182-1.493-.497-1.959-1.007-.652-.715-1.011-1.707-1.033-2.717s.294-2.014.914-2.756c.472-.565 1.191-.927 2.078-1.13z"/></svg>