<svg xmlns="http://www.w3.org/2000/svg" width="24" height="24" viewBox="0 0 24 24"><path d="M3 2a1 1 0 0 0-.707.293 1 1 0 0 0 0 1.414l3.93 3.93A11 11 0 0 0 1 17a1 1 0 0 0 1 1 1 1 0 0 0 1-1 9 9 0 0 1 4.686-7.9l1.494 1.494A7.02 7.02 0 0 0 5 17a1 1 0 0 0 1 1 1 1 0 0 0 1-1 4.99 4.99 0 0 1 3.744-4.842l1.908 1.908A3.3 3.3 0 0 0 12 14a3.05 3.05 0 0 0-2.04.752C9.38 15.269 9 16.083 9 17a1 1 0 0 0 1 1 1 1 0 0 0 1-1c0-.417.12-.602.29-.752.168-.15.432-.248.71-.248s.542.098.71.248c.17.15.29.335.29.752a1 1 0 0 0 1 1 1 1 0 0 0 1-1 3.3 3.3 0 0 0-.066-.652l5.359 5.359a1 1 0 0 0 1.414 0 1 1 0 0 0 0-1.414l-9.824-9.824a1 1 0 0 0-.211-.211L3.707 2.293A1 1 0 0 0 3 2zm9 4q-.508 0-1.004.045a1 1 0 0 0-.906 1.086 1 1 0 0 0 1.086.906A8.985 8.985 0 0 1 21 17a1 1 0 0 0 1 1 1 1 0 0 0 1-1c0-6.063-4.937-11-11-11z"/></svg>