<svg xmlns="http://www.w3.org/2000/svg" width="24" height="24" viewBox="0 0 24 24"><path d="M12 2C6.489 2 2 6.489 2 12s4.489 10 10 10 10-4.489 10-10S17.511 2 12 2zm0 2c4.43 0 8 3.57 8 8s-3.57 8-8 8-8-3.57-8-8 3.57-8 8-8zM8.5 8c-.597 0-1.208.194-1.695.627S6 9.75 6 10.5a1 1 0 0 0 1 1 1 1 0 0 0 1-1c0-.25.058-.31.133-.377A.58.58 0 0 1 8.5 10a.58.58 0 0 1 .367.123c.075.067.133.127.133.377 0-.028-.176.47-.416.797v.002L6.207 14.39A1 1 0 0 0 7 16h3a1 1 0 0 0 1-1 1 1 0 0 0-1-1h-.97l1.152-1.498.01-.014c.356-.482.808-1.074.808-1.988 0-.75-.317-1.44-.805-1.873A2.53 2.53 0 0 0 8.5 8zM13 8a1 1 0 0 0-1 1v6a1 1 0 0 0 1 1 1 1 0 0 0 1-1V9a1 1 0 0 0-1-1zm4 1.5a1 1 0 0 0-1 1v.5h-.5a1 1 0 0 0-1 1 1 1 0 0 0 1 1h.5v.5a1 1 0 0 0 1 1 1 1 0 0 0 1-1V13h.5a1 1 0 0 0 1-1 1 1 0 0 0-1-1H18v-.5a1 1 0 0 0-1-1z"/></svg>