<svg xmlns="http://www.w3.org/2000/svg" width="24" height="24" viewBox="0 0 24 24"><path d="M7.852 2.004a2.6 2.6 0 0 0-1.338.365c-.766.456-1.195 1.26-1.381 2.121-.187.862-.168 1.832-.008 2.899q.065.43.162.879c-1.047.33-1.952.743-2.678 1.261C1.7 10.18 1 11.08 1 12.176c0 .875.466 1.642 1.098 2.222.631.58 1.453 1.035 2.423 1.413q.35.134.723.255c-.213 1.05-.296 2.008-.215 2.866.105 1.106.52 2.146 1.442 2.705.75.455 1.66.436 2.468.168.81-.268 1.595-.769 2.39-1.44q.293-.247.585-.527c.812.756 1.625 1.346 2.44 1.726 1.027.48 2.18.642 3.138.067.764-.456 1.19-1.261 1.375-2.121s.17-1.83.01-2.897a15 15 0 0 0-.162-.88c1.044-.334 1.95-.749 2.676-1.268.906-.649 1.609-1.543 1.609-2.64 0-.876-.466-1.645-1.098-2.225-.631-.58-1.453-1.033-2.423-1.41a14 14 0 0 0-.721-.256c.212-1.05.293-2.009.21-2.866-.105-1.105-.517-2.14-1.433-2.7h-.002a2.55 2.55 0 0 0-1.215-.36 3.5 3.5 0 0 0-1.257.185c-.812.268-1.6.768-2.395 1.44q-.292.248-.584.527c-.81-.755-1.624-1.345-2.437-1.724-.514-.24-1.058-.4-1.594-.428a3 3 0 0 0-.2-.004zm8.351 1.992a.56.56 0 0 1 .29.08h.001c.194.12.413.435.485 1.184.053.56.003 1.306-.163 2.176A24 24 0 0 0 12.184 7a14 14 0 0 1 1.773-1.84c.662-.56 1.277-.917 1.729-1.066a1.6 1.6 0 0 1 .517-.098zm-8.357.002c.217-.012.523.049.955.25.546.255 1.214.727 1.918 1.377C9.795 6.737 8.9 8.06 8.089 9.543l-.001.004q-.116.216-.227.43c-.374-1.047-.63-2.03-.76-2.885-.135-.901-.125-1.663-.013-2.178s.287-.732.45-.828l.007-.004a.64.64 0 0 1 .3-.084zM12.154 9q.739 0 1.446.043c.31.45.602.87.875 1.35q.332.593.623 1.183l-.014.022a27 27 0 0 1-.934 1.906q-.411.75-.85 1.434c-.475.036-.904.062-1.45.062q-.74 0-1.45-.043c-.313-.449-.604-.87-.87-1.346a25 25 0 0 1-.628-1.191l.016-.024a24 24 0 0 1 1.787-3.345c.474-.034.888-.051 1.45-.051zm4.03.354c.975.179 1.847.418 2.57.699.81.315 1.432.685 1.797 1.02.364.334.449.572.449.751 0 .229-.161.578-.771 1.014-.475.34-1.18.677-2.045.963a25.4 25.4 0 0 0-1.967-4.39l-.002-.005zm-10.366.845a25.5 25.5 0 0 0 1.967 4.39l.033.057c-.976-.18-1.848-.42-2.572-.7-.81-.316-1.432-.685-1.797-1.02-.364-.335-.449-.572-.449-.75 0-.234.162-.582.771-1.018.474-.338 1.178-.675 2.047-.959zm6.153.545v.004c-.014 0-.02.015-.034.016-.018 0-.026-.017-.044-.016l-.05.055c-.616.08-1.103.579-1.103 1.191v.012a1.277 1.277 0 0 0 1.201 1.248l.05.002c.404 0 .716-.225.947-.522a1 1 0 0 0 .18-.375c.032-.096.12-.162.128-.267l-.03.027a1 1 0 0 0 .044-.103 1 1 0 0 0-.317-.723q-.279-.419-.838-.475a1 1 0 0 0-.125-.074zm-.729 1.299.004.004a1 1 0 0 0 .217.521c-.138-.12-.207-.305-.22-.525zm4.897 1.977c.374 1.049.63 2.033.76 2.89.135.901.127 1.662.015 2.178-.111.515-.288.731-.447.826l-.004.002c-.204.122-.574.157-1.264-.164-.546-.255-1.217-.728-1.922-1.38a24.7 24.7 0 0 0 2.631-3.913l.004-.008q.116-.216.227-.431zm-8.953 2.546c1.401.279 2.966.432 4.625.434a14 14 0 0 1-1.774 1.838c-.662.56-1.275.919-1.726 1.068s-.663.105-.803.02c-.199-.121-.416-.433-.487-1.182-.052-.56-.002-1.307.165-2.178z"/></svg>