<svg xmlns="http://www.w3.org/2000/svg" width="24" height="24" viewBox="0 0 24 24"><path d="M7 2C5.355 2 4 3.355 4 5v16a1 1 0 0 0 .111.27 1 1 0 0 0 .057.285 1 1 0 0 0 .086.056 1 1 0 0 0 .309.207 1 1 0 0 0 .341.143A1 1 0 0 0 5 22a1 1 0 0 0 .27-.111 1 1 0 0 0 .285-.057l2.318-1.545 1.42 1.42a1 1 0 0 0 1.414 0L12 20.414l1.293 1.293a1 1 0 0 0 1.414 0l1.42-1.42 2.318 1.545A1 1 0 0 0 20 21V5c0-1.645-1.355-3-3-3zm0 2h10c.564 0 1 .436 1 1v14.13l-1.445-.962a1 1 0 0 0-1.262.125L14 19.586l-1.293-1.293a1 1 0 0 0-1.414 0L10 19.586l-1.293-1.293a1 1 0 0 0-1.262-.125L6 19.131V5c0-.564.436-1 1-1zm5 1a1 1 0 0 0-1 1c-.917 0-1.731.38-2.248.96A3.05 3.05 0 0 0 8 9c0 .722.235 1.458.752 2.04.517.58 1.331.96 2.248.96v2h-.033a1 1 0 0 1-.9-.5 1 1 0 0 0-1.366-.367 1 1 0 0 0-.367 1.367A3 3 0 0 0 11 16a1 1 0 0 0 1 1 1 1 0 0 0 1-1c.917 0 1.731-.38 2.248-.96A3.05 3.05 0 0 0 16 13a3.05 3.05 0 0 0-.752-2.04C14.731 10.38 13.917 10 13 10V8h.033a1 1 0 0 1 .9.5 1 1 0 0 0 1.366.367 1 1 0 0 0 .367-1.367A3 3 0 0 0 13 6a1 1 0 0 0-1-1zm-1 3v2c-.417 0-.602-.12-.752-.29A1.1 1.1 0 0 1 10 9c0-.278.098-.542.248-.71.15-.17.335-.29.752-.29zm2 4c.417 0 .602.12.752.29.15.168.248.432.248.71s-.098.542-.248.71c-.15.17-.335.29-.752.29z"/></svg>