<svg xmlns="http://www.w3.org/2000/svg" width="24" height="24" viewBox="0 0 24 24"><path d="M3 2a1 1 0 0 0-.707.293 1 1 0 0 0 0 1.414L6.605 8.02a4.03 4.03 0 0 0-2.332.982C3.505 9.685 3 10.75 3 12s.505 2.315 1.273 2.998C5.043 15.681 6.028 16 7 16h7.586l5.707 5.707a1 1 0 0 0 1.414 0 1 1 0 0 0 0-1.414l-5.969-5.967a1 1 0 0 0-.064-.064L3.707 2.293A1 1 0 0 0 3 2zm13.996 6.014q-.22 0-.437.025a3.98 3.98 0 0 0-2.95 1.838 1 1 0 0 0 .317 1.379 1 1 0 0 0 1.377-.317 1.978 1.978 0 0 1 3.115-.345 1.978 1.978 0 0 1-.373 3.111 1 1 0 0 0-.328 1.375 1 1 0 0 0 1.375.328c2.176-1.337 2.544-4.408.746-6.222a3.96 3.96 0 0 0-2.842-1.172zM7 10c.528 0 1.042.181 1.398.498.357.317.602.752.602 1.502s-.245 1.185-.602 1.502C8.042 13.819 7.528 14 7 14s-1.042-.181-1.398-.498C5.245 13.185 5 12.75 5 12s.245-1.185.602-1.502C5.958 10.181 6.472 10 7 10zm3.982 2.396L12.586 14H10.51a4.1 4.1 0 0 0 .472-1.604z"/></svg>