<svg xmlns="http://www.w3.org/2000/svg" width="24" height="24" viewBox="0 0 24 24"><path d="M17 3.5a1 1 0 0 0-1 1v1.666l-1.51-.85a1 1 0 0 0-.76-.091 1 1 0 0 0-.601.472 1 1 0 0 0 .38 1.364l1.452.814-1.451.816a1 1 0 0 0-.381 1.362 1 1 0 0 0 1.361.38L16 9.585v1.666a1 1 0 0 0 1 1 1 1 0 0 0 1-1V9.584l1.51.85a1 1 0 0 0 1.361-.381 1 1 0 0 0-.38-1.362l-1.452-.816 1.451-.814a1 1 0 0 0 .381-1.364 1 1 0 0 0-1.361-.38L18 6.165V4.5a1 1 0 0 0-1-1zM6.5 14c-1.083 0-2.023.442-2.623 1.117S3 16.653 3 17.5s.277 1.708.877 2.383S5.417 21 6.5 21s2.023-.442 2.623-1.117S10 18.347 10 17.5s-.277-1.708-.877-2.383S7.583 14 6.5 14zm0 2c.583 0 .894.183 1.127.445.233.263.373.652.373 1.055s-.14.792-.373 1.055S7.083 19 6.5 19s-.894-.183-1.127-.445C5.14 18.292 5 17.903 5 17.5s.14-.792.373-1.055S5.917 16 6.5 16z"/></svg>