<svg xmlns="http://www.w3.org/2000/svg" width="24" height="24" viewBox="0 0 24 24"><path d="M10 2a3.02 3.02 0 0 0-2.826 2H6C4.355 4 3 5.355 3 7v12c0 1.645 1.355 3 3 3h5.697a1 1 0 0 0 1-1 1 1 0 0 0-1-1H6c-.564 0-1-.436-1-1V7c0-.564.436-1 1-1h1.174C7.59 7.16 8.704 8 10 8h2a3.02 3.02 0 0 0 2.826-2H16c.564 0 1 .436 1 1v5a1 1 0 0 0 1 1 1 1 0 0 0 1-1V7c0-1.645-1.355-3-3-3h-1.174C14.41 2.84 13.296 2 12 2zm0 2h2c.564 0 1 .436 1 1s-.436 1-1 1h-2c-.564 0-1-.436-1-1s.436-1 1-1zm-2 6a1 1 0 0 0-1 1 1 1 0 0 0 1 1h4a1 1 0 0 0 1-1 1 1 0 0 0-1-1zm0 4a1 1 0 0 0-1 1 1 1 0 0 0 1 1h3a1 1 0 0 0 1-1 1 1 0 0 0-1-1zm8.5 0c-.847 0-1.708.277-2.383.877S13 16.417 13 17.5s.442 2.023 1.117 2.623S15.653 21 16.5 21c.577 0 1.16-.13 1.686-.4l2.107 2.107a1 1 0 0 0 1.414 0 1 1 0 0 0 0-1.414l-2.105-2.105A3.7 3.7 0 0 0 20 17.5c0-1.083-.442-2.023-1.117-2.623S17.347 14 16.5 14zm0 2c.403 0 .792.14 1.055.373S18 16.917 18 17.5s-.183.894-.445 1.127c-.263.233-.652.373-1.055.373s-.792-.14-1.055-.373S15 18.083 15 17.5s.183-.894.445-1.127c.263-.233.652-.373 1.055-.373z"/></svg>