<svg xmlns="http://www.w3.org/2000/svg" width="24" height="24" viewBox="0 0 24 24"><path d="M3 2a1 1 0 0 0-.707.293 1 1 0 0 0 0 1.414l3.918 3.918-3.172 11.1a1 1 0 0 0 .686 1.236 1 1 0 0 0 1.236-.686L7.828 9.242 11 12.414V13a1 1 0 0 0 1 1 1 1 0 0 0 .467-.12l7.826 7.827a1 1 0 0 0 1.414 0 1 1 0 0 0 0-1.414l-8.96-8.959a1 1 0 0 0-.081-.08L3.707 2.293A1 1 0 0 0 3 2zm13.035 2.002a1 1 0 0 0-.31.037 1 1 0 0 0-.686 1.236l2.805 9.823a1 1 0 0 0 1.236.687 1 1 0 0 0 .688-1.236L16.96 4.725a1 1 0 0 0-.926-.723zM12 5a1 1 0 0 0-1 1v2a1 1 0 0 0 1 1 1 1 0 0 0 1-1V6a1 1 0 0 0-1-1zm0 10a1 1 0 0 0-1 1v2a1 1 0 0 0 1 1 1 1 0 0 0 1-1v-2a1 1 0 0 0-1-1z"/></svg>