<svg xmlns="http://www.w3.org/2000/svg" width="24" height="24" viewBox="0 0 24 24"><path d="M11.99 3.04c-4.09.014-8.258 2.76-8.898 7.883a9.01 9.01 0 0 0 6.685 9.832c3.482.895 7.006-.442 9.172-3.115V20a1 1 0 0 0 1 1 1 1 0 0 0 1-1v-5a1 1 0 0 0-1-1h-5a1 1 0 0 0-1 1 1 1 0 0 0 1 1h2.711c-1.64 2.337-4.508 3.558-7.385 2.818a6.985 6.985 0 0 1-5.199-7.646c.523-4.18 3.677-6.12 6.922-6.133s6.412 1.9 6.961 6.092a1 1 0 0 0 1.121.861 1 1 0 0 0 .861-1.123c-.672-5.131-4.86-7.846-8.95-7.83zM12 10c-.472 0-.958.152-1.352.502-.206.183-.226.512-.34.785A1 1 0 0 0 10 12a1 1 0 0 0 .309.713c.113.273.133.602.34.785.393.35.879.502 1.351.502s.958-.152 1.352-.502c.393-.35.648-.915.648-1.498s-.255-1.148-.648-1.498A2.02 2.02 0 0 0 12 10z"/></svg>