<svg xmlns="http://www.w3.org/2000/svg" width="24" height="24" viewBox="0 0 24 24"><path d="M12 1.006c-.781 0-1.562.296-2.152.887L1.893 9.848a3.06 3.06 0 0 0 0 4.304l7.955 7.955a3.06 3.06 0 0 0 4.304 0l7.955-7.955a3.06 3.06 0 0 0 0-4.304l-7.955-7.955A3.04 3.04 0 0 0 12 1.006zm0 1.988c.265 0 .53.104.738.313l7.955 7.955c.417.416.417 1.06 0 1.476l-7.955 7.955a1.03 1.03 0 0 1-1.476 0l-7.955-7.955a1.03 1.03 0 0 1 0-1.476l7.955-7.955A1.04 1.04 0 0 1 12 2.994zM9.5 8.5a1 1 0 0 0-.707.293 1 1 0 0 0 0 1.414l5 5a1 1 0 0 0 1.414 0 1 1 0 0 0 0-1.414l-5-5A1 1 0 0 0 9.5 8.5z"/></svg>