<svg xmlns="http://www.w3.org/2000/svg" width="24" height="24" viewBox="0 0 24 24"><path d="M12 2q-.327 0-.643.006l-.615.015-.299.014-.58.033-.552.047c-4.785.464-6.732 2.41-7.196 7.196l-.047.552-.033.58-.014.3-.015.614-.004.319L2 12q0 .327.006.643l.015.615.014.299.033.58.047.552c.464 4.785 2.41 6.732 7.196 7.196l.552.047.58.033.3.014.614.015L12 22l.643-.006.615-.015.299-.014.58-.033.552-.047c4.785-.464 6.732-2.41 7.196-7.196l.047-.552.033-.58.014-.3.015-.614L22 12l-.006-.643-.015-.615-.014-.299-.033-.58-.047-.552c-.464-4.785-2.41-6.732-7.196-7.196l-.552-.047-.58-.033-.3-.014-.614-.015-.319-.004zm0 5a1 1 0 0 1 .992.883L13 8v5.586l2.293-2.293a1 1 0 0 1 1.32-.082l.094.082a1 1 0 0 1 .082 1.32l-.082.094-4 4a1 1 0 0 1-.111.098l-.112.07-.113.055-.105.035-.149.03L12 17l-.074-.004-.127-.016-.111-.03-.112-.044-.097-.052-.092-.065-.094-.082-4-4a1 1 0 0 1 1.32-1.496l.094.082L11 13.586V8a1 1 0 0 1 1-1z"/></svg>