<svg xmlns="http://www.w3.org/2000/svg" width="24" height="24" viewBox="0 0 24 24"><path d="M12 2c-3.683 0-6.242.43-7.906 2.094C2.429 5.758 2 8.317 2 12s.43 6.242 2.094 7.906C5.758 21.571 8.317 22 12 22q.275.001.563-.004a1 1 0 0 0 .976-1.023 1 1 0 0 0-1.021-.977q-.241.005-.518.004c-3.517 0-5.456-.472-6.492-1.508S4 15.517 4 12s.472-5.456 1.508-6.492S8.483 4 12 4s5.456.472 6.492 1.508S20 8.483 20 12q0 .272-.004.527a1 1 0 0 0 .983 1.016 1 1 0 0 0 1.017-.982Q22 12.283 22 12c0-3.683-.43-6.242-2.094-7.906C18.242 2.429 15.683 2 12 2zm7 13a1 1 0 0 0-1 1v2h-2a1 1 0 0 0-1 1 1 1 0 0 0 1 1h2v2a1 1 0 0 0 1 1 1 1 0 0 0 1-1v-2h2a1 1 0 0 0 1-1 1 1 0 0 0-1-1h-2v-2a1 1 0 0 0-1-1z"/></svg>