<svg xmlns="http://www.w3.org/2000/svg" width="24" height="24" viewBox="0 0 24 24"><path d="M17 2a1 1 0 0 0-1 1v4a1 1 0 0 0 1 1h4a1 1 0 0 0 1-1V3a1 1 0 0 0-1-1zM8.5 4c-1.417 0-2.606.567-3.373 1.43C4.36 6.292 4 7.403 4 8.5s.36 2.208 1.127 3.07C5.894 12.433 7.083 13 8.5 13h8c.917 0 1.477.308 1.877.758S19 14.848 19 15.5c0 .653-.223 1.292-.623 1.742S17.417 18 16.5 18H11a1 1 0 0 0-1 1 1 1 0 0 0 1 1h5.5c1.417 0 2.606-.567 3.373-1.43C20.64 17.708 21 16.597 21 15.5s-.36-2.208-1.127-3.07C19.106 11.567 17.917 11 16.5 11h-8c-.917 0-1.477-.308-1.877-.758S6 9.152 6 8.5c0-.653.223-1.292.623-1.742S7.583 6 8.5 6H13a1 1 0 0 0 1-1 1 1 0 0 0-1-1zM18 4h2v2h-2zM3 16a1 1 0 0 0-1 1v4a1 1 0 0 0 1 1h4a1 1 0 0 0 1-1v-4a1 1 0 0 0-1-1zm1 2h2v2H4z"/></svg>