<svg xmlns="http://www.w3.org/2000/svg" width="24" height="24" viewBox="0 0 24 24"><path d="M19 2c-.917 0-1.731.38-2.248.96A3.05 3.05 0 0 0 16 5c0 .722.235 1.458.752 2.04.517.58 1.331.96 2.248.96s1.731-.38 2.248-.96A3.05 3.05 0 0 0 22 5a3.05 3.05 0 0 0-.752-2.04C20.731 2.38 19.917 2 19 2zm-5 2c-1.645 0-3 1.355-3 3v10c0 .564-.436 1-1 1a1 1 0 0 0-1 1 1 1 0 0 0 1 1c1.645 0 3-1.355 3-3V7c0-.564.436-1 1-1a1 1 0 0 0 1-1 1 1 0 0 0-1-1zm5 0c.417 0 .602.12.752.29.15.168.248.432.248.71s-.098.542-.248.71c-.15.17-.335.29-.752.29s-.602-.12-.752-.29A1.1 1.1 0 0 1 18 5c0-.278.098-.542.248-.71.15-.17.335-.29.752-.29zM5 16a3.05 3.05 0 0 0-2.04.752C2.38 17.269 2 18.083 2 19s.38 1.731.96 2.248A3.05 3.05 0 0 0 5 22a3.05 3.05 0 0 0 2.04-.752C7.62 20.731 8 19.917 8 19s-.38-1.731-.96-2.248A3.05 3.05 0 0 0 5 16zm0 2c.278 0 .542.098.71.248.17.15.29.335.29.752s-.12.602-.29.752c-.168.15-.432.248-.71.248s-.542-.098-.71-.248C4.12 19.602 4 19.417 4 19s.12-.602.29-.752A1.1 1.1 0 0 1 5 18z"/></svg>