<svg xmlns="http://www.w3.org/2000/svg" width="24" height="24" viewBox="0 0 24 24"><path d="M6 3C4.355 3 3 4.355 3 6v2a1 1 0 0 0 1 1 1 1 0 0 0 1-1V6c0-.564.436-1 1-1h2a1 1 0 0 0 1-1 1 1 0 0 0-1-1zm10 0a1 1 0 0 0-1 1 1 1 0 0 0 1 1h2c.564 0 1 .436 1 1v2a1 1 0 0 0 1 1 1 1 0 0 0 1-1V6c0-1.645-1.355-3-3-3zM7 8a1 1 0 0 0-.236.03 1 1 0 0 0-.098.034 1 1 0 0 0-.135.057 1 1 0 0 0-.08.05 1 1 0 0 0-.117.09l-.041.032-.031.041a1 1 0 0 0-.09.117 1 1 0 0 0-.049.08 1 1 0 0 0-.07.168l-.02.055A1 1 0 0 0 6 9v3a1 1 0 0 0 1 1 1 1 0 0 0 1-1v-.586l2.707 2.707a1 1 0 0 1 .293.707V17a1 1 0 0 0 .74.967A1 1 0 0 0 12 18a1 1 0 0 0 .26-.033A1 1 0 0 0 13 17v-2.172c0-.265.105-.52.293-.707L16 11.414V12a1 1 0 0 0 1 1 1 1 0 0 0 1-1V9a1 1 0 0 0-.025-.217v-.006l-.002-.007a1 1 0 0 0-.069-.194l-.004-.01-.005-.01a1 1 0 0 0-.114-.179 1 1 0 0 0-.074-.084l-.041-.031a1 1 0 0 0-.117-.09 1 1 0 0 0-.08-.049 1 1 0 0 0-.168-.07l-.055-.02A1 1 0 0 0 17 8h-3a1 1 0 0 0-1 1 1 1 0 0 0 1 1h.586L12 12.586 9.414 10H10a1 1 0 0 0 1-1 1 1 0 0 0-1-1zm-3 7a1 1 0 0 0-1 1v2c0 1.645 1.355 3 3 3h2a1 1 0 0 0 1-1 1 1 0 0 0-1-1H6c-.564 0-1-.436-1-1v-2a1 1 0 0 0-1-1zm16 0a1 1 0 0 0-1 1v2c0 .564-.436 1-1 1h-2a1 1 0 0 0-1 1 1 1 0 0 0 1 1h2c1.645 0 3-1.355 3-3v-2a1 1 0 0 0-1-1z"/></svg>