<svg xmlns="http://www.w3.org/2000/svg" width="24" height="24" viewBox="0 0 24 24"><path d="M15 2.182c-2.763 0-5.526 1.246-7.312 3.736a1 1 0 0 0 .23 1.394 1 1 0 0 0 1.394-.23 6.975 6.975 0 0 1 11.376 0 1 1 0 0 0 1.394.23 1 1 0 0 0 .23-1.394c-1.786-2.49-4.55-3.736-7.312-3.736zM15 6.1c-1.537 0-3.074.69-4.062 2.068a1 1 0 0 0 .23 1.395 1 1 0 0 0 1.395-.231 2.975 2.975 0 0 1 4.874 0 1 1 0 0 0 1.395.23 1 1 0 0 0 .23-1.394C18.075 6.79 16.538 6.1 15 6.1zm0 3.9a1 1 0 0 0-1 1v1H5c-1.645 0-3 1.355-3 3v4c0 1.645 1.355 3 3 3h14c1.645 0 3-1.355 3-3v-4c0-1.645-1.355-3-3-3h-3v-1a1 1 0 0 0-1-1zM5 14h14c.564 0 1 .436 1 1v4c0 .564-.436 1-1 1H5c-.564 0-1-.436-1-1v-4c0-.564.436-1 1-1zm8 2a1 1 0 0 0-1 1v.01a1 1 0 0 0 1 1 1 1 0 0 0 1-1V17a1 1 0 0 0-1-1zm4 0a1 1 0 0 0-1 1v.01a1 1 0 0 0 1 1 1 1 0 0 0 1-1V17a1 1 0 0 0-1-1z"/></svg>