<svg xmlns="http://www.w3.org/2000/svg" width="24" height="24" viewBox="0 0 24 24"><path d="M3 2a1 1 0 0 0-.707.293 1 1 0 0 0 0 1.414l.777.777Q3.002 4.734 3 5v14c0 1.093.907 2 2 2h5c1.093 0 2-.907 2-2v-5.586l8.293 8.293a1 1 0 0 0 1.414 0 1 1 0 0 0 0-1.414L5.141 3.727a1 1 0 0 0-.112-.141 1 1 0 0 0-.1-.07L3.708 2.293A1 1 0 0 0 3 2zm5 1a1 1 0 0 0-1 1 1 1 0 0 0 1 1h3v2a1 1 0 0 0 1 1 1 1 0 0 0 1-1V5h2v1a1 1 0 0 0 1 1 1 1 0 0 0 1-1V5h2v5h-4a1 1 0 0 0-1 1 1 1 0 0 0 1 1h4c1.093 0 2-.907 2-2V5c0-1.093-.907-2-2-2zM5 6.414 5.586 7H5zM6.936 8.35l3.132 3.132A2 2 0 0 0 10 12v7H5v-2h1a1 1 0 0 0 1-1 1 1 0 0 0-1-1H5v-2h2a1 1 0 0 0 1-1 1 1 0 0 0-1-1H5V9h1a1 1 0 0 0 .936-.65z"/></svg>