<svg xmlns="http://www.w3.org/2000/svg" width="24" height="24" viewBox="0 0 24 24"><path d="M3 2a1 1 0 0 0-.707.293 1 1 0 0 0 0 1.414l4.248 4.248-1.469 3.674a1 1 0 0 0 .557 1.299 1 1 0 0 0 1.299-.557L8.08 9.494l1.92 1.92V12a1 1 0 0 0 1 1h.586l1 1H3a1 1 0 0 0-.95 1.316l1 3a1 1 0 0 0 1.266.633 1 1 0 0 0 .633-1.265L4.39 16h10.197l2.055 2.055a3.4 3.4 0 0 0-.641-.051 3.4 3.4 0 0 0-2.812 1.412c-.27.376-.704.594-1.167.584h-.042a1.4 1.4 0 0 1-1.166-.584A3.4 3.4 0 0 0 8 18.004a3.4 3.4 0 0 0-2.812 1.412c-.27.376-.704.594-1.167.584H3.98a1.4 1.4 0 0 1-1.166-.584 1 1 0 0 0-1.397-.229 1 1 0 0 0-.228 1.397A3.4 3.4 0 0 0 4 21.996a3.4 3.4 0 0 0 2.813-1.412c.27-.376.703-.594 1.166-.584h.042c.463-.01.897.208 1.166.584A3.4 3.4 0 0 0 12 21.996a3.4 3.4 0 0 0 2.813-1.412c.27-.376.703-.594 1.166-.584h.042c.463-.01.897.208 1.166.584A3.4 3.4 0 0 0 20 21.996q.346.004.682-.058a1 1 0 0 0 1.025-.231 1 1 0 0 0 .182-.25c.355-.227.67-.52.924-.873a1 1 0 0 0-.229-1.396 1 1 0 0 0-1.396.228q-.077.103-.168.19l-5.313-5.313-3-3-1-1-8-8A1 1 0 0 0 3 2zm7.98 0a1 1 0 0 0-.304.055A1 1 0 0 0 10 3v4a1 1 0 0 0 1 1 1 1 0 0 0 1-1V5.914l3.967 5.1A1 1 0 0 0 15 12a1 1 0 0 0 1 1h2a1 1 0 0 0 .79-1.613l-7-9A1 1 0 0 0 10.98 2zM19 14a1 1 0 0 0-1 1 1 1 0 0 0 1 1h.611l-.066.201a1 1 0 0 0 .633 1.264 1 1 0 0 0 1.265-.631l.506-1.518A1 1 0 0 0 21 14z"/></svg>