<svg xmlns="http://www.w3.org/2000/svg" width="24" height="24" viewBox="0 0 24 24"><path d="M12 2a1 1 0 0 0-1 1v1.152l-5.164.862-.043.013a1 1 0 0 0-.191.065 1 1 0 0 0-.086.039 1 1 0 0 0-.166.121 1 1 0 0 0-.075.062 1 1 0 0 0-.17.239l-3 6A1 1 0 0 0 2 12c0 1.25.505 2.315 1.273 2.998C4.043 15.681 5.028 16 6 16s1.958-.319 2.727-1.002c.737-.656 1.207-1.675 1.246-2.86a1 1 0 0 0 .02-.103c0-.013.007-.022.007-.035a1 1 0 0 0-.1-.418l-.005-.03L7.5 6.765 11 6.18V19H7a1 1 0 0 0-1 1 1 1 0 0 0 1 1h10a1 1 0 0 0 1-1 1 1 0 0 0-1-1h-4V6.18l3.5.584-2.395 4.789A1 1 0 0 0 14 12c0 1.25.505 2.315 1.273 2.998C16.043 15.681 17.028 16 18 16s1.958-.319 2.727-1.002c.737-.656 1.207-1.675 1.246-2.86a1 1 0 0 0 .02-.103c0-.013.007-.022.007-.035a1 1 0 0 0-.1-.418l-.005-.03-3-6-.008-.011a1 1 0 0 0-.149-.215 1 1 0 0 0-.203-.17l-.021-.013a1 1 0 0 0-.223-.098l-.037-.01a1 1 0 0 0-.09-.021L13 4.152V3a1 1 0 0 0-1-1zM6 8.236l1.947 3.895c-.038.636-.223 1.082-.549 1.371-.356.317-.87.498-1.398.498s-1.042-.181-1.398-.498c-.326-.29-.511-.735-.55-1.371zm12 0 1.947 3.895c-.038.636-.223 1.082-.549 1.371-.356.317-.87.498-1.398.498s-1.042-.181-1.398-.498c-.326-.29-.511-.735-.55-1.371z"/></svg>