<svg xmlns="http://www.w3.org/2000/svg" width="24" height="24" viewBox="0 0 24 24"><path d="M3 2a1 1 0 0 0-.707.293 1 1 0 0 0 0 1.414l3.174 3.174A4.9 4.9 0 0 0 5 9c0 3.033 2.583 6 7 6q.744-.002 1.486-.1l.912.912C13.135 17.162 11.316 18 10 18c-2.778 0-4.282-.725-6.168-3.555a1 1 0 0 0-.637-.425 1 1 0 0 0-.75.148 1 1 0 0 0-.277 1.387C4.282 18.725 6.778 20 10 20c2.045 0 4.221-1.049 5.816-2.77l4.477 4.477a1 1 0 0 0 1.414 0 1 1 0 0 0 0-1.414l-5.25-5.25-.02-.022-.011-.01L7.514 6.1a1 1 0 0 0-.18-.18L3.707 2.293A1 1 0 0 0 3 2zm8 2c-.714 0-1.39.077-2.018.23a1 1 0 0 0-.734 1.207 1 1 0 0 0 1.209.735A6.5 6.5 0 0 1 11 6c2.333 0 5 2.5 5 6q0 .39-.06.775l.046.063a1 1 0 0 0 .004.476 1 1 0 0 0 .483.196 1 1 0 0 0 .298.41 1 1 0 0 0 .452-.11l.08.034c.057-.025.1-.065.156-.09l.074-.043c2.279-1.016 4.247-2.474 5.315-4.182a1 1 0 0 0-.319-1.377 1 1 0 0 0-1.377.319c-.585.936-1.848 1.915-3.295 2.752C17.482 7.125 14.44 4 11 4zM7.043 8.457l4.527 4.527C8.307 12.826 7 10.885 7 9q0-.29.043-.543z"/></svg>