<svg xmlns="http://www.w3.org/2000/svg" width="24" height="24" viewBox="0 0 24 24"><path d="M4 7c-1.093 0-2 .907-2 2v2c0 1.093.907 2 2 2h2v2H3a1 1 0 0 0-1 1 1 1 0 0 0 1 1h3c1.093 0 2-.907 2-2v-2c0-1.093-.907-2-2-2H4V9h3a1 1 0 0 0 1-1 1 1 0 0 0-1-1zm6 0a1 1 0 0 0-1 1v8a1 1 0 0 0 1 1h2c1.645 0 3-1.355 3-3v-4c0-1.645-1.355-3-3-3zm7 0a1 1 0 0 0-1 1v8a1 1 0 0 0 1 1 1 1 0 0 0 1-1v-2.332l2.2 2.932a1 1 0 0 0 1.4.2 1 1 0 0 0 .2-1.4L19.25 12l2.55-3.4a1 1 0 0 0-.2-1.4 1 1 0 0 0-.74-.19 1 1 0 0 0-.66.39L18 10.332V8a1 1 0 0 0-1-1zm-6 2h1c.564 0 1 .436 1 1v4c0 .564-.436 1-1 1h-1z"/></svg>