<svg xmlns="http://www.w3.org/2000/svg" width="24" height="24" viewBox="0 0 24 24"><path d="M3 2a1 1 0 0 0-.707.293 1 1 0 0 0 0 1.414l3.662 3.662L2.66 8.56l-.076.033c-1.14.522-1.14 2.294 0 2.816l-.031-.013 6.7 3.351 3.352 6.701-.013-.031c.522 1.14 2.294 1.14 2.816 0l.033-.076 1.19-3.295 3.662 3.662a1 1 0 0 0 1.414 0 1 1 0 0 0 0-1.414l-9-9-9-9A1 1 0 0 0 3 2zm17.904.004-.035.008-.08.017a1 1 0 0 0-.129.03L10.38 5.77a1 1 0 0 0-.602 1.282 1 1 0 0 0 1.282.601l6.062-2.19-3.828 3.829a1 1 0 0 0 0 1.414 1 1 0 0 0 1.414 0l3.828-3.828-2.191 6.07a1 1 0 0 0 .601 1.281 1 1 0 0 0 1.28-.601l3.716-10.29.004-.017a1 1 0 0 0 .047-.207l.004-.035a1 1 0 0 0-.006-.201l-.006-.059a1 1 0 0 0-.052-.181l-.02-.05a1 1 0 0 0-.121-.202l-.004-.004a1 1 0 0 0-.08-.09l-.035-.025a1 1 0 0 0-.19-.137l-.043-.026a1 1 0 0 0-.535-.101zM7.518 8.932 10.586 12l-.783.783-5.43-2.715zM12 13.414l3.068 3.068-1.136 3.145-2.715-5.43z"/></svg>