<svg xmlns="http://www.w3.org/2000/svg" width="24" height="24" viewBox="0 0 24 24"><path d="M3 2a1 1 0 0 0-.707.293 1 1 0 0 0 0 1.414l2.07 2.07a2.72 2.72 0 0 0 .166 2.496c.27.444.058.958-.447 1.08C2.769 9.674 2 10.87 2 12s.768 2.327 2.08 2.646c.504.123.717.638.447 1.08-.702 1.155-.397 2.544.403 3.344s2.188 1.104 3.341.4h.002c.444-.27.958-.057 1.08.448C9.674 21.231 10.87 22 12 22s2.327-.768 2.646-2.08v-.002c.124-.503.638-.715 1.08-.445a2.72 2.72 0 0 0 2.497.164l2.07 2.07a1 1 0 0 0 1.414 0 1 1 0 0 0 0-1.414l-2.53-2.53a1 1 0 0 0-.103-.118l-.045-.03-8.326-8.326a1 1 0 0 0-.103-.125 1 1 0 0 0-.096-.074L6.42 5.006a1 1 0 0 0-.068-.08l-.036-.024-2.609-2.609A1 1 0 0 0 3 2zm9 0c-1.131 0-2.328.769-2.646 2.082a.7.7 0 0 1-.366.469 1 1 0 0 0-.424 1.35 1 1 0 0 0 1.35.423 2.73 2.73 0 0 0 1.383-1.771C11.404 4.11 11.669 4 12 4s.596.11.703.553c.428 1.765 2.513 2.628 4.065 1.683.389-.237.654-.126.888.108s.345.499.108.888c-.945 1.551-.081 3.636 1.683 4.065.443.107.553.372.553.703s-.11.596-.553.703a2.73 2.73 0 0 0-1.773 1.387 1 1 0 0 0 .422 1.35 1 1 0 0 0 1.35-.424.73.73 0 0 1 .472-.37C21.231 14.328 22 13.131 22 12c0-1.13-.768-2.327-2.08-2.646h-.002c-.503-.124-.715-.638-.445-1.08.702-1.155.397-2.544-.403-3.344s-2.188-1.104-3.341-.4h-.002c-.444.27-.958.057-1.08-.448C14.326 2.769 13.13 2 12 2zM6.537 7.951 8.545 9.96a3.8 3.8 0 0 0-.592 2.215c.056 1.027.524 1.952 1.21 2.642.684.69 1.605 1.166 2.632 1.23a3.8 3.8 0 0 0 2.246-.59l2.01 2.009c-1.415-.366-2.982.48-3.348 1.982-.107.443-.372.553-.703.553s-.596-.11-.703-.553c-.428-1.765-2.513-2.628-4.065-1.683-.389.237-.654.126-.888-.108s-.345-.499-.108-.888c.945-1.551.081-3.636-1.683-4.065C4.11 12.596 4 12.331 4 12s.11-.596.553-.703c1.503-.364 2.349-1.93 1.984-3.346zm6.672.342a1 1 0 0 0-.256.055 1 1 0 0 0-.568.511 1 1 0 0 0 .472 1.334c.415.198.749.531.948.946a1 1 0 0 0 1.336.468 1 1 0 0 0 .468-1.336 4 4 0 0 0-1.89-1.884 1 1 0 0 0-.51-.094zm-3.182 3.148 2.532 2.532c-.217.07-.428.091-.64.078-.475-.03-.965-.268-1.337-.643s-.605-.867-.63-1.344a1.7 1.7 0 0 1 .075-.623z"/></svg>