<svg xmlns="http://www.w3.org/2000/svg" width="24" height="24" viewBox="0 0 24 24"><path d="M12 2c-1.131 0-2.328.769-2.646 2.082-.125.506-.633.718-1.08.445-1.155-.702-2.544-.397-3.344.403s-1.104 2.188-.4 3.341v.002c.27.444.057.958-.448 1.08C2.769 9.674 2 10.87 2 12s.768 2.327 2.08 2.646c.504.123.717.638.447 1.08-.702 1.155-.397 2.544.403 3.344s2.188 1.104 3.341.4h.002c.444-.27.958-.057 1.08.448.392 1.617 2.07 2.364 3.426 1.973a1 1 0 0 0 .682-1.239 1 1 0 0 0-1.236-.683c-.376.108-.796.023-.928-.522-.428-1.765-2.513-2.628-4.065-1.683-.389.237-.654.126-.888-.108s-.345-.499-.108-.888c.945-1.551.081-3.636-1.683-4.065C4.11 12.596 4 12.331 4 12s.11-.596.553-.703c1.765-.428 2.628-2.513 1.683-4.065V7.23c-.235-.387-.126-.653.108-.886.234-.234.499-.345.888-.108h.002c1.552.944 3.634.08 4.063-1.683C11.404 4.11 11.669 4 12 4s.596.11.703.553c.428 1.765 2.513 2.628 4.065 1.683.389-.237.654-.126.888.108s.345.499.108.888c-.945 1.551-.081 3.636 1.683 4.065.541.13.627.544.524.92a1 1 0 0 0 .697 1.23 1 1 0 0 0 1.23-.697c.373-1.348-.372-3.007-1.978-3.396h-.002c-.503-.124-.715-.638-.445-1.08.702-1.155.397-2.544-.403-3.344s-2.188-1.104-3.341-.4h-.002c-.444.27-.958.057-1.08-.448C14.326 2.769 13.13 2 12 2zm0 6c-.972 0-1.958.319-2.727 1.002S8 10.75 8 12s.505 2.315 1.273 2.998C10.043 15.681 11.028 16 12 16s1.958-.319 2.727-1.002S16 13.25 16 12s-.505-2.315-1.273-2.998C13.957 8.319 12.972 8 12 8zm0 2c.528 0 1.042.181 1.398.498.357.317.602.752.602 1.502s-.245 1.185-.602 1.502c-.356.317-.87.498-1.398.498s-1.042-.181-1.398-.498C10.245 13.185 10 12.75 10 12s.245-1.185.602-1.502c.356-.317.87-.498 1.398-.498zm7 5a1 1 0 0 0-.246.033l-.055.02a1 1 0 0 0-.168.07 1 1 0 0 0-.08.049 1 1 0 0 0-.117.09l-.041.031-3 3a1 1 0 0 0 0 1.414 1 1 0 0 0 1.414 0L18 18.414V22a1 1 0 0 0 1 1 1 1 0 0 0 1-1v-3.586l1.293 1.293a1 1 0 0 0 1.414 0 1 1 0 0 0 0-1.414l-2.97-2.97A1 1 0 0 0 19 15z"/></svg>