<svg xmlns="http://www.w3.org/2000/svg" width="24" height="24" viewBox="0 0 24 24"><path d="M5 2a3.05 3.05 0 0 0-2.04.752C2.38 3.269 2 4.083 2 5s.38 1.731.96 2.248c.312.276.667.471 1.04.594v8.316a2.9 2.9 0 0 0-1.04.594C2.38 17.269 2 18.083 2 19s.38 1.731.96 2.248A3.05 3.05 0 0 0 5 22a3.05 3.05 0 0 0 2.04-.752C7.62 20.731 8 19.917 8 19c0-.472-.1-.917-.277-1.309l9.968-9.968q.152.069.309.119v8.316a2.9 2.9 0 0 0-1.04.594c-.58.517-.96 1.331-.96 2.248s.38 1.731.96 2.248A3.05 3.05 0 0 0 19 22a3.05 3.05 0 0 0 2.04-.752c.58-.517.96-1.331.96-2.248s-.38-1.731-.96-2.248a2.9 2.9 0 0 0-1.04-.594V7.842a2.9 2.9 0 0 0 1.04-.594C21.62 6.731 22 5.917 22 5s-.38-1.731-.96-2.248A3.05 3.05 0 0 0 19 2a3.05 3.05 0 0 0-2.04.752C16.38 3.269 16 4.083 16 5c0 .472.1.917.277 1.309L6.31 16.277a3 3 0 0 0-.31-.119V7.842a2.9 2.9 0 0 0 1.04-.594C7.62 6.731 8 5.917 8 5s-.38-1.731-.96-2.248A3.05 3.05 0 0 0 5 2zm0 2c.278 0 .542.098.71.248.17.15.29.335.29.752s-.12.602-.29.752C5.543 5.902 5.279 6 5 6s-.542-.098-.71-.248C4.12 5.602 4 5.417 4 5s.12-.602.29-.752C4.457 4.098 4.721 4 5 4zm14 0c.278 0 .542.098.71.248.17.15.29.335.29.752s-.12.602-.29.752c-.168.15-.432.248-.71.248s-.542-.098-.71-.248C18.12 5.602 18 5.417 18 5s.12-.602.29-.752A1.1 1.1 0 0 1 19 4zM5 18c.278 0 .542.098.71.248.17.15.29.335.29.752s-.12.602-.29.752c-.168.15-.432.248-.71.248s-.542-.098-.71-.248C4.12 19.602 4 19.417 4 19s.12-.602.29-.752A1.1 1.1 0 0 1 5 18zm14 0c.278 0 .542.098.71.248.17.15.29.335.29.752s-.12.602-.29.752c-.168.15-.432.248-.71.248s-.542-.098-.71-.248c-.17-.15-.29-.335-.29-.752s.12-.602.29-.752A1.1 1.1 0 0 1 19 18z"/></svg>