<svg xmlns="http://www.w3.org/2000/svg" width="24" height="24" viewBox="0 0 24 24"><path d="M11.762 2.031a1 1 0 0 0-.424.221 11 11 0 0 1-7.793 2.75 1 1 0 0 0-1.004.717c-2.067 7.032 2.112 14.41 9.207 16.25a1 1 0 0 0 1.22-.717 1 1 0 0 0-.716-1.22C6.42 18.518 3.039 12.647 4.41 6.856 7.18 6.775 9.816 5.85 12 4.14a12.85 12.85 0 0 0 7.639 2.726c.354 1.502.441 3.044.162 4.54a1 1 0 0 0 .799 1.165 1 1 0 0 0 1.166-.799 13 13 0 0 0-.307-6.054 1 1 0 0 0-1.004-.715 11 11 0 0 1-7.793-2.75 1 1 0 0 0-.9-.22zM18 14c-.972 0-1.958.319-2.727 1.002S14 16.75 14 18s.505 2.315 1.273 2.998C16.043 21.681 17.028 22 18 22a4.2 4.2 0 0 0 2.059-.527l1.234 1.234a1 1 0 0 0 1.414 0 1 1 0 0 0 0-1.414l-1.23-1.23c.33-.586.523-1.289.523-2.063 0-1.25-.505-2.315-1.273-2.998C19.957 14.319 18.972 14 18 14zm0 2c.528 0 1.042.181 1.398.498.357.317.602.752.602 1.502s-.245 1.185-.602 1.502c-.356.317-.87.498-1.398.498s-1.042-.181-1.398-.498C16.245 19.185 16 18.75 16 18s.245-1.185.602-1.502c.356-.317.87-.498 1.398-.498z"/></svg>