<svg xmlns="http://www.w3.org/2000/svg" width="24" height="24" viewBox="0 0 24 24"><path d="M11.762 2.031a1 1 0 0 0-.424.221 11 11 0 0 1-7.793 2.75 1 1 0 0 0-1.004.717c-2.067 7.032 2.112 14.41 9.207 16.25a1 1 0 0 0 .506-.002q.236-.062.476-.133a1 1 0 0 0 .672-1.244 1 1 0 0 0-1.244-.672l-.088.025C6.36 18.348 3.055 12.58 4.41 6.857 7.18 6.775 9.816 5.85 12 4.14c2.195 1.719 4.846 2.65 7.63 2.724.408 1.723.456 3.512.018 5.233a1 1 0 0 0 .723 1.217 1 1 0 0 0 1.215-.723c.575-2.26.53-4.634-.127-6.871a1 1 0 0 0-1.004-.717 11 11 0 0 1-7.793-2.75 1 1 0 0 0-.9-.22zM19 15a1 1 0 0 0-1 1v3.586l-1.293-1.293a1 1 0 0 0-1.414 0 1 1 0 0 0 0 1.414l3 3 .041.031a1 1 0 0 0 .117.09 1 1 0 0 0 .08.049 1 1 0 0 0 .168.07l.055.02A1 1 0 0 0 19 23a1 1 0 0 0 .246-.033l.055-.02a1 1 0 0 0 .168-.07 1 1 0 0 0 .08-.049 1 1 0 0 0 .117-.09l.041-.031 3-3a1 1 0 0 0 0-1.414 1 1 0 0 0-1.414 0L20 19.586V16a1 1 0 0 0-1-1z"/></svg>