<svg xmlns="http://www.w3.org/2000/svg" width="24" height="24" viewBox="0 0 24 24"><path d="M11.762 2.031a1 1 0 0 0-.424.221 11 11 0 0 1-7.793 2.75 1 1 0 0 0-1.004.717c-2.067 7.032 2.112 14.41 9.207 16.25a1 1 0 0 0 .504 0q.25-.066.496-.14a1 1 0 0 0 .67-1.245 1 1 0 0 0-1.246-.67l-.102.027C6.361 18.346 3.055 12.58 4.41 6.857 7.18 6.775 9.816 5.85 12 4.14c2.185 1.71 4.823 2.637 7.594 2.718.614 2.594.364 5.322-.893 7.688a1 1 0 0 0 .414 1.353 1 1 0 0 0 1.352-.414 13 13 0 0 0 .992-9.765 1 1 0 0 0-1.004-.717 11 11 0 0 1-7.793-2.75 1 1 0 0 0-.9-.22zM16 18a1 1 0 0 0-1 1 1 1 0 0 0 1 1h6a1 1 0 0 0 1-1 1 1 0 0 0-1-1z"/></svg>