<svg xmlns="http://www.w3.org/2000/svg" width="24" height="24" viewBox="0 0 24 24"><path d="M11.762 2.031a1 1 0 0 0-.424.221 11 11 0 0 1-7.793 2.75 1 1 0 0 0-1.004.717c-2.067 7.032 2.112 14.41 9.207 16.25a1 1 0 0 0 .504-.002q.691-.18 1.355-.432a1 1 0 0 0 .58-1.289 1 1 0 0 0-1.29-.58 11 11 0 0 1-.842.27c-5.7-1.602-8.999-7.362-7.645-13.079C7.18 6.775 9.816 5.85 12 4.14c2.192 1.716 4.838 2.646 7.617 2.722.483 2.043.448 4.176-.25 6.164a1 1 0 0 0 .612 1.276 1 1 0 0 0 1.275-.614 13 13 0 0 0 .205-7.968 1 1 0 0 0-1.004-.717 11 11 0 0 1-7.793-2.75 1 1 0 0 0-.9-.22zM17 16a1 1 0 0 0-.707.293 1 1 0 0 0 0 1.414l1.793 1.793-1.793 1.793a1 1 0 0 0 0 1.414 1 1 0 0 0 1.414 0l1.793-1.793 1.793 1.793a1 1 0 0 0 1.414 0 1 1 0 0 0 0-1.414L20.914 19.5l1.793-1.793a1 1 0 0 0 0-1.414 1 1 0 0 0-1.414 0L19.5 18.086l-1.793-1.793A1 1 0 0 0 17 16z"/></svg>