<svg xmlns="http://www.w3.org/2000/svg" width="24" height="24" viewBox="0 0 24 24"><path d="M4 2a1 1 0 0 0-1 1 1 1 0 0 0 1 1h1v12.158a2.9 2.9 0 0 0-1.04.594C3.38 17.269 3 18.083 3 19s.38 1.731.96 2.248A3.05 3.05 0 0 0 6 22a3.05 3.05 0 0 0 2.04-.752C8.62 20.731 9 19.917 9 19c0-.352-.056-.69-.158-1H12.5a1 1 0 0 0 1-1 1 1 0 0 0-1-1H7v-2h6a1 1 0 0 0 1-1 1 1 0 0 0-1-1H7V6.074l11.857.848-.707 4.947A1 1 0 0 0 19 13a1 1 0 0 0 1.13-.848l.86-6.011a1 1 0 0 0-.92-1.139L7 4.068V3a1 1 0 0 0-1-1zm12 13a1 1 0 0 0-1 1v.01a1 1 0 0 0 1 1 1 1 0 0 0 1-1V16a1 1 0 0 0-1-1zm5 0a1 1 0 0 0-.707.293l-5 5a1 1 0 0 0 0 1.414 1 1 0 0 0 1.414 0l5-5a1 1 0 0 0 0-1.414A1 1 0 0 0 21 15zM6 18c.278 0 .542.098.71.248.17.15.29.335.29.752s-.12.602-.29.752c-.168.15-.432.248-.71.248s-.542-.098-.71-.248C5.12 19.602 5 19.417 5 19s.12-.602.29-.752A1.1 1.1 0 0 1 6 18zm15 2a1 1 0 0 0-1 1v.01a1 1 0 0 0 1 1 1 1 0 0 0 1-1V21a1 1 0 0 0-1-1z"/></svg>