<svg xmlns="http://www.w3.org/2000/svg" width="24" height="24" viewBox="0 0 24 24"><path d="M6 7a1 1 0 0 0-1 1 1 1 0 0 0 1 1h2.5c.288 0 .5.212.5.5v1c0 .288-.212.5-.5.5H7a1 1 0 0 0 0 2h1.5c.288 0 .5.212.5.5v1c0 .288-.212.5-.5.5H6a1 1 0 0 0-1 1 1 1 0 0 0 1 1h2.5c1.369 0 2.5-1.131 2.5-2.5v-1c0-.582-.286-1.073-.627-1.5.34-.427.627-.918.627-1.5v-1C11 8.131 9.869 7 8.5 7zm9 0c-1.645 0-3 1.355-3 3v4c0 1.645 1.355 3 3 3h2a1 1 0 0 0 1-1v-4a1 1 0 0 0-1-1h-1a1 1 0 0 0-1 1 1 1 0 0 0 1 1v2h-1c-.564 0-1-.436-1-1v-4c0-.564.436-1 1-1h2a1 1 0 0 0 1-1 1 1 0 0 0-1-1z"/></svg>