<svg xmlns="http://www.w3.org/2000/svg" width="24" height="24" viewBox="0 0 24 24"><path d="M3 7a1 1 0 0 0-1 1v3c0 1.093.907 2 2 2h2v3a1 1 0 0 0 1 1 1 1 0 0 0 1-1V8a1 1 0 0 0-1-1 1 1 0 0 0-1 1v3H4V8a1 1 0 0 0-1-1zm9 0c-1.645 0-3 1.355-3 3v4c0 1.645 1.355 3 3 3h2a1 1 0 0 0 1-1v-4a1 1 0 0 0-1-1h-1a1 1 0 0 0-1 1 1 1 0 0 0 1 1v2h-1c-.564 0-1-.436-1-1v-4c0-.564.436-1 1-1h2a1 1 0 0 0 1-1 1 1 0 0 0-1-1zm7 2a1 1 0 0 0-1 1v1h-1a1 1 0 0 0-1 1 1 1 0 0 0 1 1h1v1a1 1 0 0 0 1 1 1 1 0 0 0 1-1v-1h1a1 1 0 0 0 1-1 1 1 0 0 0-1-1h-1v-1a1 1 0 0 0-1-1z"/></svg>