<svg xmlns="http://www.w3.org/2000/svg" width="24" height="24" viewBox="0 0 24 24"><path d="M12 1c-.472 0-.958.152-1.352.502-.206.183-.226.512-.34.785A1 1 0 0 0 10 3a1 1 0 0 0 .309.713c.113.273.133.602.34.785.393.35.879.502 1.351.502s.958-.152 1.352-.502C13.745 4.148 14 3.583 14 3s-.255-1.148-.648-1.498A2.02 2.02 0 0 0 12 1zM3.059 3.42a1 1 0 0 0-.38.094A3.016 3.016 0 0 0 1.23 7.5l6.76 14.502a1 1 0 0 0 1.33.484 1 1 0 0 0 .483-1.328l-1.588-3.404L12 14.348l3.785 3.406-1.588 3.404a1 1 0 0 0 .483 1.328 1 1 0 0 0 1.33-.484L22.77 7.5c.695-1.49.04-3.29-1.45-3.984a1 1 0 0 0-.766-.036 1 1 0 0 0-.565.518 1 1 0 0 0 .485 1.33.985.985 0 0 1 .484 1.328l-4.29 9.2L13 12.554V9.082l3.375 2.7a1 1 0 0 0 1.406-.157 1 1 0 0 0-.156-1.406l-5-4-.014-.008a1 1 0 0 0-.152-.09 1 1 0 0 0-.088-.049 1 1 0 0 0-.213-.054l-.047-.012a1 1 0 0 0-.275.008h-.002l-.025.007a1 1 0 0 0-.23.075l-.013.004-.056.037a1 1 0 0 0-.135.082l-5 4a1 1 0 0 0-.156 1.406 1 1 0 0 0 1.406.156L11 9.082v3.47l-3.67 3.303-4.289-9.2a.985.985 0 0 1 .484-1.329 1 1 0 0 0 .485-1.328 1 1 0 0 0-.565-.518 1 1 0 0 0-.386-.06z"/></svg>