<svg xmlns="http://www.w3.org/2000/svg" width="24" height="24" viewBox="0 0 24 24"><path d="M3 2a1 1 0 0 0-.707.293 1 1 0 0 0 0 1.414L10.586 12H4c-1.093 0-2 .907-2 2v2c0 1.093.907 2 2 2h12.586l3.707 3.707a1 1 0 0 0 1.414 0 1 1 0 0 0 0-1.414l-4-4-4-4-10-10A1 1 0 0 0 3 2zm13 2a1 1 0 0 0-1 1v.5c0 1.645 1.355 3 3 3 .564 0 1 .436 1 1v.5a1 1 0 0 0 1 1 1 1 0 0 0 1-1v-.5c0-1.645-1.355-3-3-3-.564 0-1-.436-1-1V5a1 1 0 0 0-1-1zm1 8a1 1 0 0 0-1 1 1 1 0 0 0 1 1h3v2a1 1 0 0 0-.016 1.414 1 1 0 0 0 1.414.016c.37-.362.602-.876.602-1.43v-2c0-1.093-.907-2-2-2zM4 14h3v2H4zm5 0h3.586l2 2H9z"/></svg>