<svg xmlns="http://www.w3.org/2000/svg" width="24" height="24" viewBox="0 0 24 24"><path d="M16 1c-.472 0-.958.152-1.352.502-.206.183-.226.512-.34.785A1 1 0 0 0 14 3a1 1 0 0 0 .309.713c.113.273.133.602.34.785.393.35.879.502 1.351.502s.958-.152 1.352-.502C17.745 4.148 18 3.583 18 3s-.255-1.148-.648-1.498A2.02 2.02 0 0 0 16 1zM8.5 5a1 1 0 0 0-.895.553l-1.5 3a1 1 0 0 0 .448 1.342 1 1 0 0 0 1.342-.448L9.117 7h3.143l-2.623 4.496a1 1 0 0 0 .308 1.336l4.139 2.76.766 4.584c-1.696-.345-3.633-.73-5.891-1.223l2.57-1.605a1 1 0 0 0 .42-1.164l-.5-1.5a1 1 0 0 0-1.265-.633 1 1 0 0 0-.633 1.265l.252.752-3.332 2.084a1 1 0 0 0-.215.188c-.5-.117-1-.233-1.52-.36v-.001c-.062-.016-.438-.285-.79-1.305a1 1 0 0 0-1.272-.62 1 1 0 0 0-.62 1.272c.446 1.288 1.07 2.319 2.21 2.596 6.037 1.473 10.854 2.283 13.5 2.928 1.594.388 3.19-.108 4.062-1.383a1 1 0 0 0-.262-1.39 1 1 0 0 0-1.39.26c-.463.678-.866.83-1.938.57a52 52 0 0 0-1.287-.296l-.963-5.775a1 1 0 0 0-.431-.668l-3.717-2.479 2.094-3.59 1.173 2.348a1 1 0 0 0 .579.502l3 1a1 1 0 0 0 1.265-.633 1 1 0 0 0-.633-1.265l-2.607-.87-1.814-3.628-.014-.018a1 1 0 0 0-.135-.197l-.021-.024a1 1 0 0 0-.184-.152l-.027-.02-.01-.005-.043-.016a1 1 0 0 0-.227-.09 1 1 0 0 0-.09-.011A1 1 0 0 0 14 5z"/></svg>