<svg xmlns="http://www.w3.org/2000/svg" width="24" height="24" viewBox="0 0 24 24"><path d="M12 2a3.05 3.05 0 0 0-2.04.752C9.38 3.269 9 4.083 9 5s.38 1.731.96 2.248c.312.276.667.471 1.04.594v2.275a3.95 3.95 0 0 0-1.727.885C8.505 11.685 8 12.75 8 14c0 .525.09 1.018.25 1.463L6.756 16.53A3.1 3.1 0 0 0 5 16a3.05 3.05 0 0 0-2.04.752C2.38 17.269 2 18.083 2 19s.38 1.731.96 2.248A3.05 3.05 0 0 0 5 22a3.05 3.05 0 0 0 2.04-.752C7.62 20.731 8 19.917 8 19c0-.286-.037-.564-.105-.824l1.501-1.074c.75.61 1.683.898 2.604.898s1.854-.287 2.604-.898l1.501 1.074c-.068.26-.105.538-.105.824 0 .917.38 1.731.96 2.248A3.05 3.05 0 0 0 19 22a3.05 3.05 0 0 0 2.04-.752c.58-.517.96-1.331.96-2.248s-.38-1.731-.96-2.248A3.05 3.05 0 0 0 19 16a3.1 3.1 0 0 0-1.756.531l-1.494-1.068c.16-.445.25-.938.25-1.463 0-1.25-.505-2.315-1.273-2.998A3.95 3.95 0 0 0 13 10.117V7.842a2.9 2.9 0 0 0 1.04-.594C14.62 6.731 15 5.917 15 5s-.38-1.731-.96-2.248A3.05 3.05 0 0 0 12 2zm0 2c.278 0 .542.098.71.248.17.15.29.335.29.752s-.12.602-.29.752c-.168.15-.432.248-.71.248s-.542-.098-.71-.248C11.12 5.602 11 5.417 11 5s.12-.602.29-.752A1.1 1.1 0 0 1 12 4zm0 8c.528 0 1.042.181 1.398.498.357.317.602.752.602 1.502s-.245 1.185-.602 1.502c-.356.317-.87.498-1.398.498s-1.042-.181-1.398-.498C10.245 15.185 10 14.75 10 14s.245-1.185.602-1.502c.356-.317.87-.498 1.398-.498zm-7 6c.278 0 .542.098.71.248.17.15.29.335.29.752s-.12.602-.29.752c-.168.15-.432.248-.71.248s-.542-.098-.71-.248C4.12 19.602 4 19.417 4 19s.12-.602.29-.752A1.1 1.1 0 0 1 5 18zm14 0c.278 0 .542.098.71.248.17.15.29.335.29.752s-.12.602-.29.752c-.168.15-.432.248-.71.248s-.542-.098-.71-.248c-.17-.15-.29-.335-.29-.752s.12-.602.29-.752A1.1 1.1 0 0 1 19 18z"/></svg>