<svg xmlns="http://www.w3.org/2000/svg" width="24" height="24" viewBox="0 0 24 24"><path d="M12 1c-1.096 0-1.92.12-2.623.473s-1.171.898-1.6 1.476L4.846 6.633a1 1 0 0 0-.116.181l-.003.008C4.247 7.547 4 8.47 4 9.5c0 1.02.293 1.947.86 2.656q.105.134.222.256l-.418.147-.021.013a1 1 0 0 0-.309.186l-.01.01a1 1 0 0 0-.125.132l-3 4a1 1 0 0 0-.06.104l-.032.05a1 1 0 0 0-.093.31l-.006.058a1 1 0 0 0 .025.332 1 1 0 0 0 .145.307l.029.04a1 1 0 0 0 .193.2l.041.023.018.018C6.181 21.377 9.5 23 12 23c1.45 0 2.712-.444 3.61-1.26.275-.25.513-.535.71-.845l.008-.008 2.883-3.825.021-.03c.506-.728.768-1.61.768-2.532 0-1.094-.379-2.13-1.074-2.918l.396-.135.074-.033a1 1 0 0 0 .086-.039 1 1 0 0 0 .133-.09l.031-.021.004-.004a1 1 0 0 0 .149-.156l.002-.004.002-.004L22.8 7.1a1 1 0 0 0 .066-.102l.006-.012a1 1 0 0 0 .049-.095l.002-.006v-.002a1 1 0 0 0 .064-.225l.002-.012a1 1 0 0 0 .008-.09L23 6.48l-.002-.062-.002-.02a1 1 0 0 0-.016-.1l-.015-.062-.006-.017-.02-.06a1 1 0 0 0-.095-.196V5.96a1 1 0 0 0-.07-.096l-.02-.021a1 1 0 0 0-.063-.067l-.01-.007a1 1 0 0 0-.081-.07C18.472 2.602 14.5 1 12 1zm0 2c1.395 0 4.978 1.21 8.588 3.715L18.79 9.11q-.507-.364-1.018-.724l-.01-.008C14.502 6.139 11.11 5 9 5q-.153.002-.305.008l.668-.84.022-.027c.372-.504.594-.732.89-.881S11.055 3 12 3zM9 7c1.266 0 4.67.997 7.629 3.027l.004.002.207.15-.139.048A6.3 6.3 0 0 0 15 10c-1.798 0-4.278.555-7.555 1.613-.469-.184-.798-.423-1.021-.703C6.159 10.58 6 10.162 6 9.5c0-.787.148-1.271.404-1.613l.006-.008q.127-.165.285-.293C7.127 7.232 7.883 7 9 7zm6 5c.51 0 .946.073 1.314.197a1 1 0 0 0 .131.05c.33.127.604.296.82.493.478.434.735 1.01.735 1.76 0 .552-.146 1.009-.406 1.385l-.844 1.119a4.2 4.2 0 0 0-1.14-1.744C14.711 14.444 13.45 14 12 14c-1.746 0-4.127.52-7.262 1.518l.88-1.174C10.09 12.762 13.313 12 15 12zm-3 4c1.05 0 1.788.306 2.266.74.477.434.734 1.01.734 1.76s-.257 1.326-.734 1.76c-.478.434-1.216.74-2.266.74-1.248 0-4.007-1.211-7.477-3.238C7.892 16.672 10.596 16 12 16z"/></svg>