<svg xmlns="http://www.w3.org/2000/svg" width="24" height="24" viewBox="0 0 24 24"><path d="M4 5a1 1 0 0 0-1 1 1 1 0 0 0 1 1h9a1 1 0 0 0 1-1 1 1 0 0 0-1-1zm14 0a1 1 0 0 0-1 1v9.586l-1.293-1.293A1 1 0 0 0 15 14a1 1 0 0 0-.707.293 1 1 0 0 0 0 1.414l3 3a1 1 0 0 0 .074.057 1 1 0 0 0 .086.066 1 1 0 0 0 .166.084 1 1 0 0 0 .102.041A1 1 0 0 0 18 19a1 1 0 0 0 .28-.045 1 1 0 0 0 .1-.04 1 1 0 0 0 .167-.085 1 1 0 0 0 .086-.066 1 1 0 0 0 .074-.057l3-3a1 1 0 0 0 0-1.414 1 1 0 0 0-1.414 0L19 15.586V6a1 1 0 0 0-1-1zM4 11a1 1 0 0 0-1 1 1 1 0 0 0 1 1h7a1 1 0 0 0 1-1 1 1 0 0 0-1-1zm0 6a1 1 0 0 0-1 1 1 1 0 0 0 1 1h7a1 1 0 0 0 1-1 1 1 0 0 0-1-1z"/></svg>