<svg xmlns="http://www.w3.org/2000/svg" width="24" height="24" viewBox="0 0 24 24"><path d="M5.5 4C4.683 4 4 4.683 4 5.5v4c0 .817.683 1.5 1.5 1.5h4c.817 0 1.5-.683 1.5-1.5v-4c0-.817-.683-1.5-1.5-1.5zM17 5a1 1 0 0 0-1 1v9.586l-1.293-1.293A1 1 0 0 0 14 14a1 1 0 0 0-.707.293 1 1 0 0 0 0 1.414l3 3a1 1 0 0 0 .074.057 1 1 0 0 0 .086.066 1 1 0 0 0 .166.084 1 1 0 0 0 .102.041A1 1 0 0 0 17 19a1 1 0 0 0 .28-.045 1 1 0 0 0 .1-.04 1 1 0 0 0 .167-.085 1 1 0 0 0 .086-.066 1 1 0 0 0 .074-.057l3-3a1 1 0 0 0 0-1.414 1 1 0 0 0-1.414 0L18 15.586V6a1 1 0 0 0-1-1zM6 6h3v3H6zm-.5 7c-.817 0-1.5.683-1.5 1.5v4c0 .817.683 1.5 1.5 1.5h4c.817 0 1.5-.683 1.5-1.5v-4c0-.817-.683-1.5-1.5-1.5zm.5 2h3v3H6z"/></svg>