<svg xmlns="http://www.w3.org/2000/svg" width="24" height="24" viewBox="0 0 24 24"><path d="M12 2C6.489 2 2 6.489 2 12s4.489 10 10 10 10-4.489 10-10S17.511 2 12 2zm0 2c4.43 0 8 3.57 8 8 0 .009-.01.134-.326.383-.317.25-.885.542-1.627.789-1.484.495-3.652.828-6.047.828s-4.563-.333-6.047-.828c-.742-.247-1.31-.54-1.627-.79C4.01 12.135 4 12.01 4 12c0-4.43 3.57-8 8-8zM4.484 14.756q.396.168.836.314c1.774.591 4.105.93 6.68.93s4.906-.339 6.68-.93a11 11 0 0 0 .836-.314A7.985 7.985 0 0 1 12 20a7.985 7.985 0 0 1-7.516-5.244z"/></svg>