<svg xmlns="http://www.w3.org/2000/svg" width="24" height="24" viewBox="0 0 24 24"><path d="M11.346 2.021a10 10 0 0 0-9.34 9.655L2 12a10 10 0 1 0 15-8.66 10 10 0 0 0-5.654-1.319zm.521 4.893c1.883.05 3.824.59 5.662 1.738a1 1 0 0 1-1.058 1.696c-3.026-1.891-6.389-1.77-9.024-.453a1 1 0 0 1-.894-1.79 11.24 11.24 0 0 1 5.314-1.19zm-.545 3.174a8.06 8.06 0 0 1 4.778 1.611 1 1 0 0 1-1.2 1.602c-1.848-1.385-4.406-1.636-6.392-.465a1 1 0 0 1-1.016-1.725 7.46 7.46 0 0 1 3.83-1.023zm.15 3.21c1.35.024 2.637.563 3.36 1.647a1 1 0 0 1-1.664 1.11c-.599-.898-2.418-1.02-3.613-.223a1 1 0 0 1-1.11-1.664 5.36 5.36 0 0 1 3.028-.87z"/></svg>