<svg xmlns="http://www.w3.org/2000/svg" width="24" height="24" viewBox="0 0 24 24"><path d="M12 2C6.489 2 2 6.489 2 12s4.489 10 10 10 10-4.489 10-10S17.511 2 12 2zm0 2c4.43 0 8 3.57 8 8s-3.57 8-8 8-8-3.57-8-8 3.57-8 8-8zm-.389 2.932q-.183 0-.363.005a11.6 11.6 0 0 0-4.695 1.168 1 1 0 0 0-.448 1.342 1 1 0 0 0 1.342.448c1.762-.881 5.38-1.825 9.024.453a1 1 0 0 0 1.377-.319 1 1 0 0 0-.319-1.377c-2.041-1.276-4.088-1.722-5.918-1.72zm-.445 3.154a7.4 7.4 0 0 0-3.674 1.025 1 1 0 0 0-.353 1.37 1 1 0 0 0 1.369.353c2.113-1.245 4.691-.81 6.392.467a1 1 0 0 0 1.4-.201 1 1 0 0 0-.2-1.4 8.16 8.16 0 0 0-4.082-1.579 8 8 0 0 0-.852-.035zm.152 3.217a5.3 5.3 0 0 0-2.873.865 1 1 0 0 0-.277 1.387 1 1 0 0 0 1.387.277c.536-.358 1.352-.569 2.066-.521s1.26.314 1.547.744a1 1 0 0 0 1.387.277 1 1 0 0 0 .277-1.387c-.713-1.07-1.917-1.553-3.078-1.63a6 6 0 0 0-.436-.012z"/></svg>