<svg xmlns="http://www.w3.org/2000/svg" width="24" height="24" viewBox="0 0 24 24"><path d="M6 3C4.355 3 3 4.355 3 6v8c0 1.645 1.355 3 3 3h1v1c0 .805.326 1.539.85 2.08l.029.041.04.03A3 3 0 0 0 10 21h8c1.645 0 3-1.355 3-3v-8c0-.776-.304-1.485-.795-2.02a1 1 0 0 0-.086-.1l-.02-.013A3 3 0 0 0 18 7h-1V6c0-1.645-1.355-3-3-3zm0 2h8c.564 0 1 .436 1 1v1h-5c-1.645 0-3 1.355-3 3v5H6c-.564 0-1-.436-1-1V6c0-.564.436-1 1-1zm4 4h2.086L9 12.086V10c0-.564.436-1 1-1zm4.914 0h2.672L9 17.586v-2.672zM19 10.414v2.668L13.082 19h-2.668zm0 5.496V18c0 .564-.436 1-1 1h-2.09z"/></svg>