<svg xmlns="http://www.w3.org/2000/svg" width="24" height="24" viewBox="0 0 24 24"><path d="M12 4 4 8l8 4 8-4z"/><path d="m11.684 3.05-.057.05-.074.005-8 4a1 1 0 0 0 0 1.79l8 4a1 1 0 0 0 .894 0l8-4a1 1 0 0 0 0-1.79l-8-4-.074-.005A1 1 0 0 0 12 3.074a1 1 0 0 0-.316-.023ZM12 5.118 17.764 8 12 10.883 6.236 8Z"/><path d="M8.316 13.05a1 1 0 0 0-.763.055l-4 2a1 1 0 0 0 0 1.79l8 4a1 1 0 0 0 .894 0l8-4a1 1 0 0 0 0-1.79l-4-2a1 1 0 0 0-1.342.448 1 1 0 0 0 .448 1.342L17.763 16 12 18.883 6.236 16l2.211-1.105a1 1 0 0 0 .448-1.342 1 1 0 0 0-.579-.502z"/><path d="M8.316 9.05a1 1 0 0 0-.763.055l-4 2a1 1 0 0 0 0 1.79l8 4a1 1 0 0 0 .894 0l8-4a1 1 0 0 0 0-1.79l-4-2a1 1 0 0 0-1.342.448 1 1 0 0 0 .448 1.342L17.763 12 12 14.883 6.236 12l2.211-1.105a1 1 0 0 0 .448-1.342 1 1 0 0 0-.579-.502Z"/></svg>