<svg xmlns="http://www.w3.org/2000/svg" width="24" height="24" viewBox="0 0 24 24"><path d="M12 5 4 9l8 4 8-4z"/><path d="m11.684 4.05-.057.05-.074.005-8 4a1 1 0 0 0 0 1.79l8 4a1 1 0 0 0 .894 0l8-4a1 1 0 0 0 0-1.79l-8-4-.074-.005A1 1 0 0 0 12 4.074a1 1 0 0 0-.316-.023ZM12 6.118 17.764 9 12 11.883 6.236 9Z"/><path d="M10.316 11.05a1 1 0 0 0-.763.055l-6 3a1 1 0 0 0 0 1.79l8 4a1 1 0 0 0 .894 0l8-4a1 1 0 0 0 0-1.79l-6-3a1 1 0 0 0-1.342.448 1 1 0 0 0 .448 1.342L17.763 15 12 17.883 6.236 15l4.211-2.105a1 1 0 0 0 .448-1.342 1 1 0 0 0-.579-.502z"/></svg>