<svg xmlns="http://www.w3.org/2000/svg" width="24" height="24" viewBox="0 0 24 24"><path d="M11.992 1.002a1 1 0 0 0-.896.557l-2.854 5.78-6.379.927A1 1 0 0 0 1.31 9.97l4.623 4.5-1.09 6.355a1 1 0 0 0 1.451 1.055l5.705-3 5.693 2.998a1 1 0 0 0 1.454-1.053l-1.092-6.355 4.623-4.5a1 1 0 0 0-.553-1.705l-6.38-.926-2.852-5.781a1 1 0 0 0-.899-.557zm0 3.262 2.19 4.433a1 1 0 0 0 .754.547l4.892.71-3.547 3.452a1 1 0 0 0-.287.885l.834 4.873-4.361-2.299a1 1 0 0 0-.932 0l-4.379 2.301.836-4.875a1 1 0 0 0-.287-.885L4.158 9.953l4.893-.709a1 1 0 0 0 .754-.547z"/></svg>