<svg xmlns="http://www.w3.org/2000/svg" width="24" height="24" viewBox="0 0 24 24"><path d="M6 2a1 1 0 0 0-.95.684l-3 9a1 1 0 0 0-.05.312V19c0 1.093.907 2 2 2h4.586c.53 0 1.04-.211 1.414-.586l2-2 2 2a2 2 0 0 0 1.414.586H20c1.093 0 2-.907 2-2v-7.002a1 1 0 0 0-.05-.314l-3-9A1 1 0 0 0 18 2h-2a1 1 0 0 0-1 1 1 1 0 0 0 1 1h1.28l2.331 7H4.39l2.33-7H8a1 1 0 0 0 1-1 1 1 0 0 0-1-1zM4 13h16v6h-4.586l-2-2a2.016 2.016 0 0 0-2.828 0l-2 2H4zm3 2a1 1 0 0 0-1 1 1 1 0 0 0 1 1h1a1 1 0 0 0 1-1 1 1 0 0 0-1-1zm9 0a1 1 0 0 0-1 1 1 1 0 0 0 1 1h1a1 1 0 0 0 1-1 1 1 0 0 0-1-1z"/></svg>