<svg xmlns="http://www.w3.org/2000/svg" width="24" height="24" viewBox="0 0 24 24"><path d="m18.93 2.002-14 1A1 1 0 0 0 4 4.032l.5 16.5a1 1 0 0 0 .963.968l13.5.5A1 1 0 0 0 20 21V3a1 1 0 0 0-1.07-.998zM18 4.074v15.887l-11.53-.426L6.03 4.93 15 4.29v.21a1 1 0 0 0 1 1 1 1 0 0 0 1-1v-.354zM11.98 6a5 5 0 0 0-.369.02h-.002l-.611.054C9.403 6.218 8 7.375 8 8.963c0 1.51 1.048 2.804 2.502 3.394l1.975.801c.604.245 1.026.494 1.24.705.214.212.283.336.283.701 0 .457-.147.74-.455.99-.285.232-.792.386-1.43.413-.596-.022-1.071-.1-1.365-.27-.33-.19-.582-.467-.822-1.068a1 1 0 0 0-1.3-.557 1 1 0 0 0-.556 1.3c.36.898.927 1.621 1.678 2.056.643.371 1.394.453 2.168.49A1 1 0 0 0 12 18h.283a1 1 0 0 0 .092-.055c.925-.063 1.779-.31 2.43-.838A3.28 3.28 0 0 0 16 14.564c0-.829-.347-1.601-.877-2.125-.53-.523-1.183-.845-1.894-1.134l-1.975-.801C10.408 10.16 10 9.544 10 8.963c0-.352.395-.826 1.176-.897l.613-.054c1.083-.098 2.094.628 2.24 1.226a1 1 0 0 0 1.21.733 1 1 0 0 0 .732-1.21C15.546 7.03 13.82 5.979 11.98 6z"/></svg>