<svg xmlns="http://www.w3.org/2000/svg" width="24" height="24" viewBox="0 0 24 24"><path d="M14 4c-1.093 0-2 .907-2 2v1h-1a1 1 0 0 0-.95.684L9.28 10H9a1 1 0 0 0-.447.105l-2.211 1.106-.51-.766A1 1 0 0 0 5 10H3a1 1 0 0 0-1 1v6a1 1 0 0 0 1 1h2a1 1 0 0 0 .832-.445l.51-.766 2.21 1.106A1 1 0 0 0 9 18h10c1.25 0 2.315-.505 2.998-1.273C22.681 15.957 23 14.972 23 14s-.319-1.958-1.002-2.727S20.25 10 19 10h-1.28l-.77-2.316A1 1 0 0 0 16 7h-2V6h1a1 1 0 0 0 1-1 1 1 0 0 0-1-1zm-2.28 5h3.56l.333 1h-4.226zM4 12h.465l.703 1.055a1 1 0 0 0 1.28.34L9.235 12H19c.75 0 1.185.245 1.502.602.317.356.498.87.498 1.398s-.181 1.042-.498 1.398c-.317.357-.752.602-1.502.602H9.236l-2.789-1.395a1 1 0 0 0-1.279.34L4.465 16H4z"/></svg>