<svg xmlns="http://www.w3.org/2000/svg" width="24" height="24" viewBox="0 0 24 24"><path d="M12 2a1 1 0 0 0-1 1v3.586L9.707 5.293a1 1 0 0 0-1.414 0 1 1 0 0 0 0 1.414l3 3a1 1 0 0 0 .248.104 1 1 0 0 0 .211.085 1 1 0 0 0 .955-.189l3-3a1 1 0 0 0 0-1.414 1 1 0 0 0-1.414 0L13 6.586V3a1 1 0 0 0-1-1zM5.6 9.6a1 1 0 0 0-.707.293 1 1 0 0 0 0 1.414l.7.7a1 1 0 0 0 1.415 0 1 1 0 0 0 0-1.413l-.701-.701A1 1 0 0 0 5.6 9.6zm12.8 0a1 1 0 0 0-.707.293l-.7.7a1 1 0 0 0 0 1.415 1 1 0 0 0 1.413 0l.701-.701a1 1 0 0 0 0-1.414A1 1 0 0 0 18.4 9.6zM12 12c-1.222 0-2.458.402-3.414 1.252S7 15.417 7 17a1 1 0 0 0 1 1 1 1 0 0 0 1-1c0-1.083.37-1.769.914-2.252S11.222 14 12 14s1.542.265 2.086.748S15 15.917 15 17a1 1 0 0 0 1 1 1 1 0 0 0 1-1c0-1.583-.63-2.898-1.586-3.748S13.222 12 12 12zm-9 4a1 1 0 0 0-1 1 1 1 0 0 0 1 1h1a1 1 0 0 0 1-1 1 1 0 0 0-1-1zm17 0a1 1 0 0 0-1 1 1 1 0 0 0 1 1h1a1 1 0 0 0 1-1 1 1 0 0 0-1-1zM3 20a1 1 0 0 0-1 1 1 1 0 0 0 1 1h18a1 1 0 0 0 1-1 1 1 0 0 0-1-1z"/></svg>