<svg xmlns="http://www.w3.org/2000/svg" width="24" height="24" viewBox="0 0 24 24"><path d="M16 7c-.472 0-.958.152-1.352.502-.206.183-.226.512-.34.785A1 1 0 0 0 14 9a1 1 0 0 0 .309.713c.113.273.133.602.34.785.393.35.879.502 1.351.502s.958-.152 1.352-.502c.393-.35.648-.915.648-1.498s-.255-1.148-.648-1.498A2.02 2.02 0 0 0 16 7zm-5.879 1.008a1 1 0 0 0-.568.097l-4 2a1 1 0 0 0-.448 1.342 1 1 0 0 0 1.342.448l3.407-1.704 2.285 1.96-.94 1.25a1 1 0 0 0 .201 1.4 1 1 0 0 0 1.4-.201l1.5-2a1 1 0 0 0-.15-1.36l-3.5-3a1 1 0 0 0-.529-.232zM8 14.004a3.4 3.4 0 0 0-2.812 1.412 1.4 1.4 0 0 1-1.165.582 1.4 1.4 0 0 1-.578-.143 1 1 0 0 0-1.34.45 1 1 0 0 0 .45 1.34c.44.219.923.34 1.416.355h.008a3.4 3.4 0 0 0 2.834-1.416c.27-.376.703-.594 1.166-.584h.042c.463-.01.897.208 1.166.584A3.4 3.4 0 0 0 12 17.996a3.4 3.4 0 0 0 2.813-1.412c.27-.376.703-.594 1.166-.584h.042c.463-.01.897.208 1.166.584A3.4 3.4 0 0 0 20.022 18h.008a3.4 3.4 0 0 0 1.416-.355 1 1 0 0 0 .45-1.34 1 1 0 0 0-1.34-.45 1.4 1.4 0 0 1-.578.143 1.4 1.4 0 0 1-1.165-.582A3.4 3.4 0 0 0 16 14.004a3.4 3.4 0 0 0-2.812 1.412c-.27.376-.704.594-1.167.584h-.042a1.4 1.4 0 0 1-1.166-.584A3.4 3.4 0 0 0 8 14.004z"/></svg>