<svg xmlns="http://www.w3.org/2000/svg" width="24" height="24" viewBox="0 0 24 24"><path d="M15 3a1 1 0 0 0-1 1 1 1 0 0 0 1 1h1.904l-2.931 3.621a1 1 0 0 0 .148 1.406 1 1 0 0 0 1.406-.148L18 6.824V8a1 1 0 0 0 1 1 1 1 0 0 0 1-1V3.998a1 1 0 0 0-.023-.209l-.006-.023a1 1 0 0 0-.19-.389l-.004-.004a1 1 0 0 0-.148-.15l-.006-.004a1 1 0 0 0-.201-.123 1 1 0 0 0-.09-.032 1 1 0 0 0-.143-.043 1 1 0 0 0-.1-.011A1 1 0 0 0 19 3zM5 4a1 1 0 0 0-.707.293 1 1 0 0 0 0 1.414L16.586 18H15a1 1 0 0 0-1 1 1 1 0 0 0 1 1h4a1 1 0 0 0 .346-.068l.054-.02a1 1 0 0 0 .278-.185l.029-.02a1 1 0 0 0 .072-.082l.002-.002v-.002a1 1 0 0 0 .11-.172l.013-.03a1 1 0 0 0 .065-.18l.008-.038A1 1 0 0 0 20 19v-4a1 1 0 0 0-1-1 1 1 0 0 0-1 1v1.586L5.707 4.293A1 1 0 0 0 5 4zm4 10a1 1 0 0 0-.707.293l-4 4a1 1 0 0 0 0 1.414 1 1 0 0 0 1.414 0l4-4a1 1 0 0 0 0-1.414A1 1 0 0 0 9 14z"/></svg>