<svg xmlns="http://www.w3.org/2000/svg" width="24" height="24" viewBox="0 0 24 24"><path d="M3 2a1 1 0 0 0-1 1v5a1 1 0 0 0 .36.768l3 2.5a1 1 0 0 0 1.408-.127 1 1 0 0 0-.127-1.409L4 7.532V4h3.52l1.699 2.125a1 1 0 0 0 1.406.156 1 1 0 0 0 .156-1.406l-2-2.5A1 1 0 0 0 8 2zm13 0a1 1 0 0 0-.773.367l-8.75 10.696-.77-.77A1 1 0 0 0 5 12a1 1 0 0 0-.707.293 1 1 0 0 0 0 1.414l.793.793-2.793 2.793a1 1 0 0 0 0 1.414l3 3a1 1 0 0 0 1.414 0L9.5 18.914l.793.793a1 1 0 0 0 1.414 0 1 1 0 0 0 0-1.414l-.77-.77 10.696-8.75A1 1 0 0 0 22 8V3a1 1 0 0 0-1-1zm.475 2H20v3.525L9.518 16.104l-1.622-1.622zm1.16 9.635a1 1 0 0 0-.707.293 1 1 0 0 0 0 1.414L19.586 18 18 19.586l-2.973-2.973a1 1 0 0 0-1.414 0 1 1 0 0 0 0 1.414l3.68 3.68a1 1 0 0 0 1.414 0l3-3a1 1 0 0 0 0-1.414l-3.365-3.365a1 1 0 0 0-.707-.293zM6.5 15.915 8.086 17.5 6 19.586 4.414 18z"/></svg>