<svg xmlns="http://www.w3.org/2000/svg" width="24" height="24" viewBox="0 0 24 24"><path d="M6 2C3.803 2 2 3.803 2 6v5.172c0 .795.317 1.559.879 2.121l7.71 7.71a3.423 3.423 0 0 0 4.821 0l5.594-5.593a3.423 3.423 0 0 0 0-4.82l-7.711-7.711A3 3 0 0 0 11.172 2zm0 2h5.172c.265 0 .52.105.707.293l7.709 7.71a1.393 1.393 0 0 1 0 1.993l-5.592 5.592a1.393 1.393 0 0 1-1.992 0l-7.711-7.71A1 1 0 0 1 4 11.173V6c0-1.116.884-2 2-2zm1.5 1.5c-.472 0-.958.152-1.352.502-.206.183-.226.512-.34.785A1 1 0 0 0 5.5 7.5a1 1 0 0 0 .309.713c.113.273.133.602.34.785.393.35.879.502 1.351.502s.958-.152 1.352-.502c.393-.35.648-.915.648-1.498s-.255-1.148-.648-1.498A2.02 2.02 0 0 0 7.5 5.5z"/></svg>