<svg xmlns="http://www.w3.org/2000/svg" width="24" height="24" viewBox="0 0 24 24"><path d="M6 2a3.05 3.05 0 0 0-2.04.752C3.38 3.269 3 4.083 3 5v8.05c-1.713 1.31-2.315 3.4-1.83 5.208.534 1.992 2.343 3.705 4.83 3.705s4.296-1.713 4.83-3.705c.485-1.807-.117-3.898-1.83-5.207V5c0-.917-.38-1.731-.96-2.248A3.05 3.05 0 0 0 6 2zm7 0a1 1 0 0 0-1 1v1a1 1 0 0 0 1 1 1 1 0 0 0 1-1V3a1 1 0 0 0-1-1zM6 4c.278 0 .542.098.71.248.17.15.29.335.29.752v3H5V5c0-.417.12-.602.29-.752C5.457 4.098 5.721 4 6 4zm13.4.6a1 1 0 0 0-.707.293l-.7.7a1 1 0 0 0 0 1.415 1 1 0 0 0 1.413 0l.701-.701a1 1 0 0 0 0-1.414A1 1 0 0 0 19.4 4.6zM13 7q-.632 0-1.244.154a1 1 0 0 0-.725 1.215 1 1 0 0 0 1.213.725C12.491 9.03 12.746 9 13 9c1.083 0 1.769.37 2.252.914S16 11.222 16 12s-.265 1.542-.748 2.086S14.083 15 13 15a1 1 0 0 0-1 1 1 1 0 0 0 1 1c1.583 0 2.898-.63 3.748-1.586S18 13.222 18 12s-.402-2.458-1.252-3.414S14.583 7 13 7zm-8 3h2v3.5a1 1 0 0 0 .5.865c1.39.803 1.728 2.147 1.398 3.375C8.57 18.968 7.604 19.963 6 19.963s-2.57-.995-2.898-2.223c-.33-1.228.007-2.572 1.398-3.375a1 1 0 0 0 .123-.123 1 1 0 0 0 .12-.119A1 1 0 0 0 5 13.5zm16 1a1 1 0 0 0-1 1 1 1 0 0 0 1 1h1a1 1 0 0 0 1-1 1 1 0 0 0-1-1zm-2.389 5.703a1 1 0 0 0-.619.29 1 1 0 0 0 0 1.413l.701.701a1 1 0 0 0 1.414 0 1 1 0 0 0 0-1.414l-.7-.7a1 1 0 0 0-.796-.29zM13 19a1 1 0 0 0-1 1v1a1 1 0 0 0 1 1 1 1 0 0 0 1-1v-1a1 1 0 0 0-1-1z"/></svg>