<svg xmlns="http://www.w3.org/2000/svg" width="24" height="24" viewBox="0 0 24 24"><path d="M6 5a3.05 3.05 0 0 0-2.04.752C3.38 6.269 3 7.083 3 8s.38 1.731.96 2.248A3.05 3.05 0 0 0 6 11a3.05 3.05 0 0 0 2.04-.752C8.62 9.731 9 8.917 9 8s-.38-1.731-.96-2.248A3.05 3.05 0 0 0 6 5zm10 0c-2.197 0-4 1.803-4 4v6c0 2.197 1.803 4 4 4h1c2.197 0 4-1.803 4-4a1 1 0 0 0-1-1 1 1 0 0 0-1 1c0 1.116-.884 2-2 2h-1c-1.116 0-2-.884-2-2V9c0-1.116.884-2 2-2h1c1.116 0 2 .884 2 2a1 1 0 0 0 1 1 1 1 0 0 0 1-1c0-2.197-1.803-4-4-4zM6 7c.278 0 .542.098.71.248.17.15.29.335.29.752s-.12.602-.29.752C6.543 8.902 6.279 9 6 9s-.542-.098-.71-.248C5.12 8.602 5 8.417 5 8s.12-.602.29-.752C5.457 7.098 5.721 7 6 7z"/></svg>