<svg xmlns="http://www.w3.org/2000/svg" width="24" height="24" viewBox="0 0 24 24"><path d="M3 6a1 1 0 0 0-1 1v1a1 1 0 0 0 1 1 1 1 0 0 0 1-1h1v7a1 1 0 0 0 1 1 1 1 0 0 0 1-1V8h1a1 1 0 0 0 1 1 1 1 0 0 0 1-1V7a1 1 0 0 0-1-1zm12.965 0a1 1 0 0 0-.494.152 1 1 0 0 0-.319 1.377L17.322 11l-2.17 3.47a1 1 0 0 0 .319 1.378 1 1 0 0 0 1.377-.319l1.652-2.644 1.652 2.644a1 1 0 0 0 1.377.319 1 1 0 0 0 .319-1.377L19.678 11l2.17-3.47a1 1 0 0 0-.319-1.378 1 1 0 0 0-1.377.319L18.5 9.115l-1.652-2.644a1 1 0 0 0-.623-.446 1 1 0 0 0-.26-.025zM10 10a1 1 0 0 0-1 1v8a1 1 0 0 0 1 1h4a1 1 0 0 0 1-1 1 1 0 0 0-1-1h-3v-2h2a1 1 0 0 0 1-1 1 1 0 0 0-1-1h-2v-2h3a1 1 0 0 0 1-1 1 1 0 0 0-1-1z"/></svg>