<svg xmlns="http://www.w3.org/2000/svg" width="24" height="24" viewBox="0 0 24 24"><path d="M9.5 3c-1.417 0-2.606.567-3.373 1.43C5.36 5.292 5 6.403 5 7.5s.36 2.208 1.127 3.07c.674.76 1.677 1.29 2.873 1.407V15a1 1 0 0 0 1 1 1 1 0 0 0 1-1V5h2v10a1 1 0 0 0 1 1 1 1 0 0 0 1-1V5h1a1 1 0 0 0 1-1 1 1 0 0 0-1-1zM9 5.035v4.93c-.63-.092-1.056-.361-1.377-.723C7.223 8.792 7 8.152 7 7.5c0-.653.223-1.292.623-1.742.321-.362.747-.63 1.377-.723zM7 16a1 1 0 0 0-.707.293l-2 2a1 1 0 0 0-.066.084l-.05.062a1 1 0 0 0-.122.243l-.012.048a1 1 0 0 0-.037.233L4 19l.006.037a1 1 0 0 0 .037.233l.012.048a1 1 0 0 0 .123.243l.049.062a1 1 0 0 0 .066.084l2 2a1 1 0 0 0 1.414 0 1 1 0 0 0 0-1.414L7.414 20H19a1 1 0 0 0 1-1 1 1 0 0 0-1-1H7.414l.293-.293a1 1 0 0 0 0-1.414A1 1 0 0 0 7 16z"/></svg>