<svg xmlns="http://www.w3.org/2000/svg" width="24" height="24" viewBox="0 0 24 24"><path d="M17.203 2.998a2 2 0 0 0-.287.006L17 3h-7c-.938 0-1.767.377-2.451.924C7.186 3.4 6.676 3 6 3H4c-1.093 0-2 .907-2 2v7c0 1.093.907 2 2 2h3c1.669 0 3 1.331 3 3v1c0 .917.38 1.731.96 2.248A3.05 3.05 0 0 0 13 21a3.05 3.05 0 0 0 2.04-.752c.58-.517.96-1.331.96-2.248v-4h2c1.645 0 3-1.355 3-3a1 1 0 0 0-.02-.195l-1-5-.007-.034c-.184-.782-.53-1.467-1.043-1.98-.45-.45-1.063-.765-1.727-.793zm-.119 1.998c.116-.01.241.02.432.211.19.19.397.543.51 1.018l.001.004.96 4.802c-.02.546-.435.969-.987.969h-3a1 1 0 0 0-1 1v5c0 .417-.12.602-.29.752-.168.15-.432.248-.71.248s-.542-.098-.71-.248c-.17-.15-.29-.335-.29-.752v-1c0-2.396-1.742-4.317-4-4.797V7c0-1.116.884-2 2-2h7zM4 5h2v7H4z"/></svg>