<svg xmlns="http://www.w3.org/2000/svg" width="24" height="24" viewBox="0 0 24 24"><path d="M3 2a1 1 0 0 0-.707.293 1 1 0 0 0 0 1.414l.105.106A1.98 1.98 0 0 0 2 5v7c0 1.093.907 2 2 2h3c1.669 0 3 1.331 3 3v1c0 .917.38 1.731.96 2.248A3.05 3.05 0 0 0 13 21a3.05 3.05 0 0 0 2.04-.752c.58-.517.96-1.331.96-2.248v-.586l4.293 4.293a1 1 0 0 0 1.414 0 1 1 0 0 0 0-1.414l-18-18A1 1 0 0 0 3 2zm14.201.998a2 2 0 0 0-.287.006L17 3h-7a4 4 0 0 0-2.074.578 1 1 0 0 0-.338 1.373 1 1 0 0 0 1.375.338A2 2 0 0 1 10 5h7l.086-.004c.117-.01.24.019.43.21.19.19.398.545.51 1.023l.96 4.802c-.018.546-.434.969-.986.969h-1a1 1 0 0 0-1 1 1 1 0 0 0 1 1h1c1.645 0 3-1.355 3-3a1 1 0 0 0-.02-.195l-1-5-.005-.034c-.184-.782-.532-1.464-1.045-1.978-.45-.45-1.064-.767-1.729-.795zM4 5.414l2 2V12H4zm4 4 6 6V18c0 .417-.12.602-.29.752-.168.15-.432.248-.71.248s-.542-.098-.71-.248c-.17-.15-.29-.335-.29-.752v-1c0-2.396-1.742-4.317-4-4.797z"/></svg>