<svg xmlns="http://www.w3.org/2000/svg" width="24" height="24" viewBox="0 0 24 24"><path d="M12 2a1 1 0 0 0-1 1v11.5c0 1.157-1.135 1.86-2.17 1.342S7.674 13.995 8.6 13.3a1 1 0 0 0 .4-.8V8.174A1 1 0 0 0 7.77 7.2C1.735 8.631-.017 16.533 4.848 20.38c4.864 3.847 12.15.32 12.152-5.88v-2.809c1.224.633 2.518 1.117 3.9 1.254a1 1 0 0 0 1.1-.994V7.918a1 1 0 0 0-.832-.986 5 5 0 0 1-4.1-4.1A1 1 0 0 0 16.082 2zm1 2h2.377A6.9 6.9 0 0 0 20 8.623v2.068c-1.22-.28-2.392-.732-3.398-1.49A1 1 0 0 0 15 10v4.5c-.001 4.663-5.254 7.205-8.912 4.313-3.25-2.571-2.455-7.184.912-8.973v2.373c-1.478 1.65-1.146 4.377.936 5.418C10.226 18.776 13 17.06 13 14.5z"/></svg>