<svg xmlns="http://www.w3.org/2000/svg" width="24" height="24" viewBox="0 0 24 24"><path d="M12.002 2A1 1 0 0 0 11 2.998 1 1 0 0 0 11.998 4c1.05.002 2.09.21 3.059.613a1 1 0 0 0 1.306-.539 1 1 0 0 0-.539-1.306A10 10 0 0 0 12.002 2zm-3.385.691a1 1 0 0 0-.44.075 10 10 0 0 0-3.243 2.168 1 1 0 0 0 0 1.414 1 1 0 0 0 1.414 0 8 8 0 0 1 2.595-1.735 1 1 0 0 0 .541-1.306 1 1 0 0 0-.867-.616zm9.742 1.95a1 1 0 0 0-.707.293 1 1 0 0 0 0 1.414 8 8 0 0 1 1.735 2.595 1 1 0 0 0 1.306.541 1 1 0 0 0 .541-1.306 10 10 0 0 0-2.168-3.244 1 1 0 0 0-.707-.293zM3.691 7.559a1 1 0 0 0-.382.076 1 1 0 0 0-.541.54A10 10 0 0 0 2 11.999 1 1 0 0 0 2.998 13 1 1 0 0 0 4 12.002c.002-1.05.21-2.09.613-3.059a1 1 0 0 0-.539-1.306 1 1 0 0 0-.383-.078zM12 9a3.05 3.05 0 0 0-2.04.752C9.38 10.269 9 11.083 9 12s.38 1.731.96 2.248A3.05 3.05 0 0 0 12 15a3.05 3.05 0 0 0 2.04-.752c.58-.517.96-1.331.96-2.248s-.38-1.731-.96-2.248A3.05 3.05 0 0 0 12 9zm0 2c.278 0 .542.098.71.248.17.15.29.335.29.752s-.12.602-.29.752c-.168.15-.432.248-.71.248s-.542-.098-.71-.248c-.17-.15-.29-.335-.29-.752s.12-.602.29-.752A1.1 1.1 0 0 1 12 11zm9.002 0a1 1 0 0 0-1.002.998 8 8 0 0 1-.613 3.059 1 1 0 0 0 .539 1.306 1 1 0 0 0 1.306-.539A10 10 0 0 0 22 12.002 1 1 0 0 0 21.002 11zM3.746 14.441a1 1 0 0 0-.44.075 1 1 0 0 0-.54 1.306 10 10 0 0 0 2.168 3.244 1 1 0 0 0 1.414 0 1 1 0 0 0 0-1.414 8 8 0 0 1-1.735-2.595 1 1 0 0 0-.867-.616zm14.502 2.924a1 1 0 0 0-.596.287 8 8 0 0 1-2.595 1.735 1 1 0 0 0-.541 1.306 1 1 0 0 0 1.306.541 10 10 0 0 0 3.244-2.168 1 1 0 0 0 0-1.414 1 1 0 0 0-.818-.287zm-9.687 1.946a1 1 0 0 0-.924.615 1 1 0 0 0 .539 1.306 10 10 0 0 0 3.822.768A1 1 0 0 0 13 21.002 1 1 0 0 0 12.002 20a8 8 0 0 1-3.059-.613 1 1 0 0 0-.382-.076z"/></svg>