<svg xmlns="http://www.w3.org/2000/svg" width="24" height="24" viewBox="0 0 24 24"><path d="M12 2a1 1 0 0 0-1 1 1 1 0 0 0 1 1c4.43 0 8 3.57 8 8s-3.57 8-8 8a1 1 0 0 0-1 1 1 1 0 0 0 1 1c5.511 0 10-4.489 10-10S17.511 2 12 2zM7.5 3.2a1 1 0 0 0-1 1v.01a1 1 0 0 0 1 1 1 1 0 0 0 1-1V4.2a1 1 0 0 0-1-1zM4.2 6.5a1 1 0 0 0-1 1v.01a1 1 0 0 0 1 1 1 1 0 0 0 1-1V7.5a1 1 0 0 0-1-1zM8 8a1 1 0 0 0-1 1 1 1 0 0 0 1 1h1.5c.25 0 .31.058.377.133A.58.58 0 0 1 10 10.5a.58.58 0 0 1-.123.367C9.81 10.942 9.75 11 9.5 11H9a1 1 0 0 0 0 2h.5c.25 0 .31.058.377.133A.58.58 0 0 1 10 13.5a.58.58 0 0 1-.123.367C9.81 13.942 9.75 14 9.5 14H8a1 1 0 0 0-1 1 1 1 0 0 0 1 1h1.5c.75 0 1.44-.317 1.873-.805A2.53 2.53 0 0 0 12 13.5c0-.528-.22-1.045-.555-1.5.335-.455.555-.972.555-1.5 0-.597-.194-1.208-.627-1.695S10.25 8 9.5 8zm7.5 0c-.597 0-1.208.194-1.695.627S13 9.75 13 10.5v3c0 .75.317 1.44.805 1.873A2.53 2.53 0 0 0 15.5 16c.597 0 1.208-.194 1.695-.627S18 14.25 18 13.5v-3c0-.75-.317-1.44-.805-1.873A2.53 2.53 0 0 0 15.5 8zm0 2a.58.58 0 0 1 .367.123c.075.067.133.127.133.377v3c0 .25-.058.31-.133.377A.58.58 0 0 1 15.5 14a.58.58 0 0 1-.367-.123C15.058 13.81 15 13.75 15 13.5v-3c0-.25.058-.31.133-.377A.58.58 0 0 1 15.5 10zM3 11a1 1 0 0 0-1 1v.01a1 1 0 0 0 1 1 1 1 0 0 0 1-1V12a1 1 0 0 0-1-1zm1.2 4.5a1 1 0 0 0-1 1v.01a1 1 0 0 0 1 1 1 1 0 0 0 1-1v-.01a1 1 0 0 0-1-1zm3.3 3.3a1 1 0 0 0-1 1v.01a1 1 0 0 0 1 1 1 1 0 0 0 1-1v-.01a1 1 0 0 0-1-1z"/></svg>