<svg xmlns="http://www.w3.org/2000/svg" width="24" height="24" viewBox="0 0 24 24"><path d="M9.098 1.9q-.408 0-.82.05a7.1 7.1 0 0 0-2.21.648 1 1 0 0 0-.275 1.609L9 7.414V9H7.414L4.207 5.793a1 1 0 0 0-1.61.275c-1.399 2.93-.565 6.034 1.368 7.967 1.774 1.774 4.532 2.535 7.238 1.582l5.59 5.59c.677.677 1.553.995 2.36.947a3.18 3.18 0 0 0 2.054-.947c.532-.532.9-1.248.947-2.055.048-.806-.27-1.682-.947-2.359l-5.59-5.59c.953-2.706.192-5.464-1.582-7.238A7.03 7.03 0 0 0 9.098 1.9zm.029 1.983c1.35-.003 2.575.577 3.494 1.496 1.4 1.4 2.015 3.515.977 5.69a1 1 0 0 0 .195 1.138l6 6c.323.323.38.572.365.828s-.147.54-.365.758-.502.35-.758.365-.505-.042-.828-.365l-6-6a1 1 0 0 0-1.139-.195c-2.174 1.038-4.29.423-5.69-.977-1.084-1.085-1.673-2.602-1.411-4.24l2.326 2.326A1 1 0 0 0 7 11h3a1 1 0 0 0 1-1V7a1 1 0 0 0-.293-.707L8.381 3.967c.052-.009.108-.04.16-.047q.296-.037.586-.037z"/></svg>