<svg xmlns="http://www.w3.org/2000/svg" width="24" height="24" viewBox="0 0 24 24"><path d="M5 2c-1.093 0-2 .907-2 2v4.395a3 3 0 0 0 .504 1.664l1.328 1.992c.11.164.168.357.168.554V20c0 1.093.907 2 2 2h10c1.093 0 2-.907 2-2v-7.395c0-.197.058-.39.168-.554l1.328-1.992A3 3 0 0 0 21 8.395V4c0-1.093-.907-2-2-2h-1c-1.093 0-2 .907-2 2v1h-1V4c0-1.093-.907-2-2-2h-2c-1.093 0-2 .907-2 2v1H8V4c0-1.093-.907-2-2-2zm0 2h1v2a1 1 0 0 0 1 1h3a1 1 0 0 0 1-1V4h2v2a1 1 0 0 0 1 1h3a1 1 0 0 0 1-1V4h1v4.395c0 .197-.058.39-.168.554l-1.328 1.992A3 3 0 0 0 17 12.605V20h-2v-4c0-.917-.38-1.731-.96-2.248A3.05 3.05 0 0 0 12 13a3.05 3.05 0 0 0-2.04.752C9.38 14.269 9 15.083 9 16v4H7v-7.395a3 3 0 0 0-.504-1.664L5.168 8.95A1 1 0 0 1 5 8.395zm7 11c.278 0 .542.098.71.248.17.15.29.335.29.752v4h-2v-4c0-.417.12-.602.29-.752A1.1 1.1 0 0 1 12 15z"/></svg>