<svg xmlns="http://www.w3.org/2000/svg" width="24" height="24" viewBox="0 0 24 24"><path d="M3 2a1 1 0 0 0-.707.293 1 1 0 0 0 0 1.414L3 4.414v3.98c0 .593.175 1.172.504 1.665l1.328 1.992c.11.164.168.357.168.554V20c0 1.093.907 2 2 2h10c.964 0 1.783-.706 1.963-1.623l1.33 1.33a1 1 0 0 0 1.414 0 1 1 0 0 0 0-1.414l-18-18A1 1 0 0 0 3 2zm8 0c-1.093 0-2 .907-2 2v2a1 1 0 0 0 1 1 1 1 0 0 0 1-1V4h2v2a1 1 0 0 0 1 1h3a1 1 0 0 0 1-1V4h1v4.395c0 .197-.058.39-.168.554l-1.328 1.992A3 3 0 0 0 17 12.605V14a1 1 0 0 0 1 1 1 1 0 0 0 1-1v-1.395c0-.197.058-.39.168-.554l1.328-1.992A3 3 0 0 0 21 8.395V4c0-1.093-.907-2-2-2h-1c-1.093 0-2 .907-2 2v1h-1V4c0-1.093-.907-2-2-2zM5 6.414l6.61 6.61a3 3 0 0 0-1.65.728C9.38 14.269 9 15.083 9 16v4H7v-7.395a3 3 0 0 0-.504-1.664L5.168 8.95A1 1 0 0 1 5 8.395zM12 15c.278 0 .542.098.71.248.17.15.29.335.29.752v4h-2v-4c0-.417.12-.602.29-.752A1.1 1.1 0 0 1 12 15zm3 1.414 2 2V20h-2z"/></svg>