<svg xmlns="http://www.w3.org/2000/svg" width="24" height="24" viewBox="0 0 24 24"><path d="M15 3a1 1 0 0 0-.707.293L13 4.586l-.293-.293a1 1 0 0 0-1.414 0 1 1 0 0 0 0 1.414l.293.293L9.5 8.086l-.293-.293a1 1 0 0 0-1.414 0 1 1 0 0 0 0 1.414l.293.293L6 11.586l-.293-.293a1 1 0 0 0-1.414 0 1 1 0 0 0 0 1.414l.293.293-1.293 1.293a1 1 0 0 0 0 1.414 1 1 0 0 0 1.414 0L6 14.414 9.586 18l-1.293 1.293a1 1 0 0 0 0 1.414 1 1 0 0 0 1.414 0L11 19.414l.293.293a1 1 0 0 0 1.414 0 1 1 0 0 0 0-1.414L12.414 18l2.086-2.086.293.293a1 1 0 0 0 1.414 0 1 1 0 0 0 0-1.414l-.293-.293L18 12.414l.293.293a1 1 0 0 0 1.414 0 1 1 0 0 0 0-1.414L19.414 11l1.293-1.293a1 1 0 0 0 0-1.414 1 1 0 0 0-1.414 0L18 9.586 14.414 6l1.293-1.293a1 1 0 0 0 0-1.414A1 1 0 0 0 15 3zm-2 4.414L16.586 11 14.5 13.086 10.914 9.5zm-3.5 3.5 3.586 3.586L11 16.586 7.414 13z"/></svg>