<svg xmlns="http://www.w3.org/2000/svg" width="24" height="24" viewBox="0 0 24 24"><path d="M6 2a4 4 0 0 0-3.994 3.8L2 6l.006.2A4 4 0 1 0 6 2zm9.844.012a1 1 0 0 0-.551.281l-2.959 2.959a1 1 0 0 0-.244.334l-.041.103-.035.147a.98.98 0 0 0 .279.871l3 3 .094.082a1 1 0 0 0 1.32-1.496L15.414 7H19l.117.008A1 1 0 0 1 20 8v3l.008.117A1 1 0 0 0 22 11V8l-.006-.176A3 3 0 0 0 19 5h-3.586l1.293-1.293.082-.094a1 1 0 0 0-.082-1.32 1 1 0 0 0-.863-.281zM3 12a1 1 0 0 0-1 1v3l.006.176A3 3 0 0 0 5 19h3.584l-1.291 1.293-.082.094a1 1 0 0 0 1.496 1.32l2.959-2.959a1 1 0 0 0 .244-.334l.041-.103.035-.147a.98.98 0 0 0-.279-.871l-3-3-.094-.082a1 1 0 0 0-1.32.082l-.082.094a1 1 0 0 0 .082 1.32L8.586 17H5l-.117-.008A1 1 0 0 1 4 16v-3l-.008-.117A1 1 0 0 0 3 12zm15 2a4 4 0 0 0-3.994 3.8L14 18l.006.2A4 4 0 1 0 18 14z"/></svg>