<svg xmlns="http://www.w3.org/2000/svg" width="24" height="24" viewBox="0 0 24 24"><path d="M5 2a3.05 3.05 0 0 0-2.04.752C2.38 3.269 2 4.083 2 5s.38 1.731.96 2.248A3.05 3.05 0 0 0 5 8a3.2 3.2 0 0 0 1-.158V13c0 2.197 1.803 4 4 4h1a1 1 0 0 0 1-1 1 1 0 0 0-1-1h-1c-1.116 0-2-.884-2-2V6h6.158c.164.499.445.93.803 1.248A3.05 3.05 0 0 0 17 8a3.05 3.05 0 0 0 2.04-.752C19.62 6.731 20 5.917 20 5s-.38-1.731-.96-2.248A3.05 3.05 0 0 0 17 2a3.05 3.05 0 0 0-2.04.752c-.357.318-.638.75-.802 1.248H7.842a2.86 2.86 0 0 0-.803-1.248A3.05 3.05 0 0 0 5 2zm0 2c.278 0 .542.098.71.248.17.15.29.335.29.752s-.12.602-.29.752C5.543 5.902 5.279 6 5 6s-.542-.098-.71-.248C4.12 5.602 4 5.417 4 5s.12-.602.29-.752C4.457 4.098 4.721 4 5 4zm12 0c.278 0 .542.098.71.248.17.15.29.335.29.752s-.12.602-.29.752c-.168.15-.432.248-.71.248s-.542-.098-.71-.248C16.12 5.602 16 5.417 16 5s.12-.602.29-.752A1.1 1.1 0 0 1 17 4zm2.125 7c-1.21 0-2.28.638-2.998 1.557A5.4 5.4 0 0 0 15.082 15H15a1 1 0 0 0-1 1 1 1 0 0 0 1 1h.082a5.4 5.4 0 0 0 1.045 2.443c.717.919 1.789 1.557 2.998 1.557.986 0 1.888-.428 2.566-1.08a1 1 0 0 0 .03-1.412 1 1 0 0 0-1.414-.03c-.366.353-.762.522-1.182.522-.518 0-1.008-.258-1.422-.787A3.3 3.3 0 0 1 17.127 17H19a1 1 0 0 0 1-1 1 1 0 0 0-1-1h-1.873c.123-.476.326-.893.576-1.213.414-.53.904-.787 1.422-.787.42 0 .814.169 1.182.521a1 1 0 0 0 1.414-.029 1 1 0 0 0-.028-1.414C21.015 11.427 20.111 11 19.125 11z"/></svg>