<svg xmlns="http://www.w3.org/2000/svg" width="24" height="24" viewBox="0 0 24 24"><path d="M5.99 2.002a4.08 4.08 0 0 0-2.496.885c-1.197.961-1.786 2.68-1.226 4.357-1.465 1.473-1.563 3.801-.164 5.373-.207 2.202 1.386 4.248 3.662 4.381l.029.002.176.004.029.002h1V21a1 1 0 0 0 1 1 1 1 0 0 0 1-1v-3.994h1c2.37 0 4.103-2.098 3.893-4.383 1.402-1.572 1.304-3.905-.163-5.379.559-1.676-.03-3.394-1.226-4.355C11.31 1.93 9.514 1.724 8 2.62c-.645-.383-1.326-.625-2.01-.619zm-.023 1.953c.442-.013.909.15 1.367.56a1 1 0 0 0 1.332 0c.916-.818 1.865-.647 2.586-.068.721.58 1.092 1.468.49 2.54a1 1 0 0 0 .334 1.333 1.975 1.975 0 0 1 .203 3.221 1 1 0 0 0-.334 1A1.98 1.98 0 0 1 10 15.006H9v-2.592l1.707-1.707a1 1 0 0 0 0-1.414A1 1 0 0 0 10 9a1 1 0 0 0-.707.293L9 9.586V8a1 1 0 0 0-1-1 1 1 0 0 0-1 1v2.586l-.293-.293A1 1 0 0 0 6 10a1 1 0 0 0-.707.293 1 1 0 0 0 0 1.414L7 13.414v1.592h-.986l-.133-.004a1.98 1.98 0 0 1-1.826-2.461 1 1 0 0 0-.334-1 1.975 1.975 0 0 1 .203-3.22 1 1 0 0 0 .332-1.335c-.603-1.071-.231-1.961.49-2.54.36-.29.779-.478 1.22-.49zm9.877.057a1 1 0 0 0-.551.281 1 1 0 0 0 0 1.414l2.02 2.02-.76.378a1 1 0 0 0-.26 1.602l2.855 2.855-1.464.489a1 1 0 0 0-.391 1.656L19.586 17H13a1 1 0 0 0-1 1 1 1 0 0 0 1 1h1v2a1 1 0 0 0 1 1 1 1 0 0 0 1-1v-2h6a1 1 0 0 0 .707-1.707l-2.855-2.855 1.464-.489a1 1 0 0 0 .391-1.656l-3.02-3.02.76-.378a1 1 0 0 0 .26-1.602l-3-3a1 1 0 0 0-.863-.281z"/></svg>