<svg xmlns="http://www.w3.org/2000/svg" width="24" height="24" viewBox="0 0 24 24"><path d="M12 2.025c-.647 0-1.293.298-1.67.895L3.313 13.94l-.004.005a2.013 2.013 0 0 0 .59 2.73l.007.007c.32.207.693.318 1.074.318h4.635l-1.283 1.93H8.33c-.84 1.265.12 3.063 1.639 3.07h8.058c1.522 0 2.485-1.805 1.641-3.07v-.002L18.385 17h.635c1.086 0 1.98-.907 1.98-1.988v-.004a2 2 0 0 0-.312-1.067v-.002L13.67 2.92c-.377-.596-1.023-.894-1.67-.894zm0 1.996L18.992 15h-1.94l-1.407-2.117A1.96 1.96 0 0 0 14 12.02c-.631 0-1.262.288-1.643.86L10.947 15h-5.94zm2 10 .65.979h-1.3zM12.018 17h3.964l1.997 3H10.02z"/></svg>