<svg xmlns="http://www.w3.org/2000/svg" width="24" height="24" viewBox="0 0 24 24"><path d="M5.076 2.004a3 3 0 0 0-.808.1c-1.556.421-2.683 2.115-2.116 3.816l2.682 8.045c.687 2.06 3.396 2.7 4.932 1.164l1.974-1.975 3.533 3.534a2.9 2.9 0 0 0-.304 1.126c-.045.767.26 1.602.898 2.24l1.08 1.079c.639.639 1.472.943 2.239.898a3 3 0 0 0 1.947-.898 3 3 0 0 0 .898-1.947c.045-.767-.257-1.6-.896-2.239h-.002l-1.078-1.08c-.64-.639-1.472-.941-2.239-.896a2.9 2.9 0 0 0-1.128.302l-3.534-3.533 1.971-1.972.002-.002h.002c1.534-1.536.895-4.243-1.164-4.93L5.92 2.154v-.002a2.9 2.9 0 0 0-.844-.148zm-.09 1.986q.147.009.301.06l8.045 2.682c.729.244.924 1.076.38 1.62l-1.974 1.972-1.031-1.031A1 1 0 0 0 10 9a1 1 0 0 0-.707.293 1 1 0 0 0 0 1.414l1.031 1.031-1.972 1.975c-.544.543-1.376.348-1.62-.381L4.05 5.287c-.24-.721.257-1.338.937-1.297zm13.028 12.975c.187.003.377.067.627.316v.002l1.08 1.078c.285.286.327.492.314.707a1.05 1.05 0 0 1-.316.65c-.19.19-.435.305-.65.317s-.422-.03-.708-.316l-1.08-1.078v-.002c-.283-.285-.327-.49-.314-.705a1.06 1.06 0 0 1 .314-.653c.19-.19.437-.302.653-.314q.04-.003.08-.002z"/></svg>