<svg xmlns="http://www.w3.org/2000/svg" width="24" height="24" viewBox="0 0 24 24"><path d="M3 2a1 1 0 0 0-.707.293 1 1 0 0 0 0 1.414l.621.621A2.01 2.01 0 0 0 2 6v11a1 1 0 0 0 1 1h1.158c.164.499.445.93.803 1.248A3.05 3.05 0 0 0 7 20a3.05 3.05 0 0 0 2.04-.752c.357-.318.638-.75.802-1.248h4.304c.16.427.415.807.729 1.121a3.05 3.05 0 0 0 1.973.912c.48.029.985-.078 1.455-.316l1.99 1.99a1 1 0 0 0 1.414 0 1 1 0 0 0 0-1.414l-5.414-5.414L3.707 2.293A1 1 0 0 0 3 2zm5.96 2a1 1 0 0 0-1 1 1 1 0 0 0 1 1H12v3a1 1 0 0 0 1 1 1 1 0 0 0 1-1V7h3.434l1.8 3H15a1 1 0 0 0-1 1 1 1 0 0 0 1 1h5v5a1 1 0 0 0 1 1 1 1 0 0 0 1-1v-6l-.018-.018a1 1 0 0 0-.125-.496l-3-5A1 1 0 0 0 18 5h-4a1 1 0 0 0-1-1zM4 6h.586L12 13.414V16H9.842a2.86 2.86 0 0 0-.803-1.248A3.05 3.05 0 0 0 7 14a3.05 3.05 0 0 0-2.04.752c-.357.318-.638.75-.802 1.248H4zm10 9.414.283.283q-.075.15-.133.303H14zM7 16c.278 0 .542.098.71.248.17.15.29.335.29.752s-.12.602-.29.752c-.168.15-.432.248-.71.248s-.542-.098-.71-.248C6.12 17.602 6 17.417 6 17s.12-.602.29-.752A1.1 1.1 0 0 1 7 16zm9.244 1.658.098.098q-.026-.022-.051-.047z"/></svg>