<svg xmlns="http://www.w3.org/2000/svg" width="24" height="24" viewBox="0 0 24 24"><path d="M16.43 2.918a6.3 6.3 0 0 0-2.16.408c-1.93.723-3.22 2.532-3.239 4.586C8.511 7.71 6.31 6.51 4.812 4.418a1 1 0 0 0-1.683.092S1.957 6.55 1.932 9.152c-.022 2.218 1.058 4.86 4.054 6.79C4.73 16.593 3.478 17.055 2.04 17a1 1 0 0 0-.518 1.879c3.492 1.903 7.355 2.595 10.792 1.598 3.881-1.128 7.115-4.09 8.335-8.432v-.004c.34-1.23.486-2.502.5-3.777l.014-.032c.028-.064.085-.18.154-.318.14-.277.34-.657.551-1.072.423-.831.896-1.754 1.104-2.592l-.112-.014A1 1 0 0 0 23 4.01a1 1 0 0 0-1.758-.389l.319-.51c-.725.355-1.528.54-2.385.78-.61-.482-1.285-.82-2.018-.924a5 5 0 0 0-.728-.049zm-.037 1.965q.219-.008.425.015c.55.066 1.03.31 1.434.766a1 1 0 0 0 1.031.295c.283-.084.626-.226.924-.307-.053.108-.07.177-.123.282-.204.401-.401.777-.555 1.082a9 9 0 0 0-.197.41 2 2 0 0 0-.078.199c-.026.076-.072.128-.072.396v.006a12.8 12.8 0 0 1-.461 3.48v.003c-1.04 3.691-3.688 6.095-6.965 7.047-1.83.53-3.89.29-5.969-.28a15 15 0 0 0 2.768-1.445 1 1 0 0 0-.155-1.748c-3.8-1.657-4.488-3.905-4.468-5.912.008-.894.218-1.667.423-2.31C6.37 8.89 9.06 10.075 12.025 10A1 1 0 0 0 13 9V7.986c-.017-1.253.74-2.326 1.97-2.787.51-.19.985-.3 1.423-.316z"/></svg>