<svg xmlns="http://www.w3.org/2000/svg" width="24" height="24" viewBox="0 0 24 24"><path d="M16.324 2.9a6.4 6.4 0 0 0-2.054.426l-.211.084c-1.807.767-2.996 2.452-3.057 4.38L11 7.972l-.242-.024c-2.392-.269-4.5-1.512-5.945-3.531a1 1 0 0 0-1.684.092l-.098.185-.049.1c-.719 1.485-1.19 3.29-1.017 5.203l.03.273c.282 2.263 1.5 4.214 3.778 5.678l.174.108-.082.043c-1.315.663-2.517.952-3.826.9-1.056-.04-1.446 1.373-.518 1.879 3.598 1.96 7.46 2.566 10.792 1.6 4.06-1.18 7.152-4.224 8.335-8.434l.127-.494a14.8 14.8 0 0 0 .4-3.026l.005-.332.392-.779.44-.861.215-.434.117-.248c.265-.565.456-1.033.574-1.43l.014-.054.007-.02c.22-.593-.166-1.357-.941-1.357l-.121.008a1 1 0 0 0-.23.056l-.086.037a8 8 0 0 1-.881.362l-.356.115-.271.08-.772.213c-.835-.699-1.854-1.013-2.957-.98z"/></svg>