<svg xmlns="http://www.w3.org/2000/svg" width="24" height="24" viewBox="0 0 24 24"><path d="M3 7a1 1 0 0 0-1 1 1 1 0 0 0 1 1h1v7a1 1 0 0 0 1 1 1 1 0 0 0 1-1V9h1a1 1 0 0 0 1-1 1 1 0 0 0-1-1zm14 0a1 1 0 0 0-1 1 1 1 0 0 0 1 1h1v7a1 1 0 0 0 1 1 1 1 0 0 0 1-1V9h1a1 1 0 0 0 1-1 1 1 0 0 0-1-1zm-6.94.002a1 1 0 0 0-.507.103 1 1 0 0 0-.448 1.342L10.883 12l-1.778 3.553a1 1 0 0 0 .448 1.342 1 1 0 0 0 1.342-.448L12 14.237l1.105 2.21a1 1 0 0 0 1.342.448 1 1 0 0 0 .448-1.342L13.117 12l1.778-3.553a1 1 0 0 0-.448-1.342 1 1 0 0 0-.763-.054 1 1 0 0 0-.579.502L12 9.763l-1.105-2.21a1 1 0 0 0-.579-.502 1 1 0 0 0-.255-.049z"/></svg>