<svg xmlns="http://www.w3.org/2000/svg" width="24" height="24" viewBox="0 0 24 24"><path d="M3 2a1 1 0 0 0-.707.293 1 1 0 0 0 0 1.414l2.676 2.676A8.98 8.98 0 0 0 3 12a1 1 0 0 0 1 1h7v5c0 .917.38 1.731.96 2.248A3.05 3.05 0 0 0 14 21a3.05 3.05 0 0 0 2.04-.752c.496-.442.846-1.102.937-1.857l3.316 3.316a1 1 0 0 0 1.414 0 1 1 0 0 0 0-1.414l-9-9-5.658-5.656-3.342-3.344A1 1 0 0 0 3 2zm8.684 1a8.9 8.9 0 0 0-3.37.787 1 1 0 0 0-.502 1.322 1 1 0 0 0 1.32.502c4.33-1.943 8.942.897 9.612 5.389H16a1 1 0 0 0-1 1 1 1 0 0 0 1 1h4a1 1 0 0 0 1-1c.002-4.868-3.804-8.55-8.205-8.965A9 9 0 0 0 11.684 3zM6.406 7.82 9.586 11H5.2c.174-1.168.564-2.264 1.205-3.18zM13 14.414l2.654 2.654A1 1 0 0 0 15 18c0 .417-.12.602-.29.752-.168.15-.432.248-.71.248s-.542-.098-.71-.248c-.17-.15-.29-.335-.29-.752z"/></svg>