<svg xmlns="http://www.w3.org/2000/svg" width="24" height="24" viewBox="0 0 24 24"><path d="m12 3-.074.012a1 1 0 0 0-.158.025 1 1 0 0 0-.149.049 1 1 0 0 0-.135.068 1 1 0 0 0-.129.092l-.062.047-5 5a1 1 0 0 0 0 1.414 1 1 0 0 0 1.414 0L11 6.414V16a1 1 0 0 0 1 1 1 1 0 0 0 1-1V6.414l3.293 3.293a1 1 0 0 0 1.414 0 1 1 0 0 0 0-1.414l-5-5a1 1 0 0 0-.25-.18l-.004-.004-.004-.002a1 1 0 0 0-.28-.091l-.024-.004A1 1 0 0 0 12 3zM4 16a1 1 0 0 0-1 1v2c0 1.645 1.355 3 3 3h12c1.645 0 3-1.355 3-3v-2a1 1 0 0 0-1-1 1 1 0 0 0-1 1v2c0 .564-.436 1-1 1H6c-.564 0-1-.436-1-1v-2a1 1 0 0 0-1-1z"/></svg>