<svg xmlns="http://www.w3.org/2000/svg" width="24" height="24" viewBox="0 0 24 24"><path d="M3 2a1 1 0 0 0-.707.293 1 1 0 0 0 0 1.414l5.012 5.012a5.01 5.01 0 0 0 2.976 2.976L12.586 14H10c-2.75 0-5 2.25-5 5v2a1 1 0 0 0 1 1 1 1 0 0 0 1-1v-2c0-1.669 1.331-3 3-3h4q.342 0 .658.072l2.27 2.27q.07.316.072.658v2a1 1 0 0 0 1 1 1 1 0 0 0 1-1v-.586l1.293 1.293a1 1 0 0 0 1.414 0 1 1 0 0 0 0-1.414l-3.078-3.078a1 1 0 0 0-.227-.227l-2.453-2.453-.006-.008a1 1 0 0 0-.111-.109L3.707 2.293A1 1 0 0 0 3 2zm9.076.016a4.97 4.97 0 0 0-4.184 2.133 1 1 0 0 0 .25 1.39 1 1 0 0 0 1.391-.25 2.98 2.98 0 0 1 4.578-.416 2.98 2.98 0 0 1-.384 4.58 1 1 0 0 0-.24 1.395 1 1 0 0 0 1.392.24c2.524-1.78 2.834-5.456.642-7.633a4.96 4.96 0 0 0-3.445-1.44z"/></svg>