<svg xmlns="http://www.w3.org/2000/svg" width="24" height="24" viewBox="0 0 24 24"><path d="M12 2c-1.222 0-2.458.402-3.414 1.252S7 5.417 7 7s.63 2.898 1.586 3.748S10.778 12 12 12s2.458-.402 3.414-1.252S17 8.583 17 7s-.63-2.898-1.586-3.748S13.222 2 12 2zm0 2c.778 0 1.542.265 2.086.748S15 5.917 15 7s-.37 1.769-.914 2.252S12.778 10 12 10s-1.542-.265-2.086-.748S9 8.083 9 7s.37-1.769.914-2.252S11.222 4 12 4zm-2 10c-2.75 0-5 2.25-5 5v2a1 1 0 0 0 1 1 1 1 0 0 0 1-1v-2c0-1.669 1.331-3 3-3h3.5a1 1 0 0 0 1-1 1 1 0 0 0-1-1zm9.04.002a3 3 0 0 0-2.304 1.053 1 1 0 0 0 .118 1.41 1 1 0 0 0 1.41-.117.97.97 0 0 1 1.193-.24c.53.275.617.69.512 1.124-.106.436-.372.766-.973.768A1 1 0 0 0 18 19.004a1 1 0 0 0 1.004.996c1.495-.005 2.615-1.084 2.908-2.297s-.211-2.686-1.539-3.373l-.004-.002a2.96 2.96 0 0 0-1.33-.326zM19 21a1 1 0 0 0-1 1v.01a1 1 0 0 0 1 1 1 1 0 0 0 1-1V22a1 1 0 0 0-1-1z"/></svg>