<svg xmlns="http://www.w3.org/2000/svg" width="24" height="24" viewBox="0 0 24 24"><path d="M6 3C3.803 3 2 4.803 2 7v8a4.01 4.01 0 0 0 2.707 3.785 1 1 0 0 0 1.27-.62 1 1 0 0 0-.623-1.27A2 2 0 0 1 4 15V7c0-1.116.884-2 2-2h12c1.116 0 2 .884 2 2v8c0 .843-.52 1.59-1.312 1.879a1 1 0 0 0-.598 1.283 1 1 0 0 0 1.283.596A4.01 4.01 0 0 0 22 15V7c0-2.197-1.803-4-4-4zm6 8a3.05 3.05 0 0 0-2.04.752C9.38 12.269 9 13.083 9 14s.38 1.731.96 2.248A3.05 3.05 0 0 0 12 17a3.05 3.05 0 0 0 2.04-.752c.58-.517.96-1.331.96-2.248s-.38-1.731-.96-2.248A3.05 3.05 0 0 0 12 11zm0 2c.278 0 .542.098.71.248.17.15.29.335.29.752s-.12.602-.29.752c-.168.15-.432.248-.71.248s-.542-.098-.71-.248c-.17-.15-.29-.335-.29-.752s.12-.602.29-.752A1.1 1.1 0 0 1 12 13zm-2 5c-1.645 0-3 1.355-3 3a1 1 0 0 0 1 1 1 1 0 0 0 1-1c0-.564.436-1 1-1h4c.564 0 1 .436 1 1a1 1 0 0 0 1 1 1 1 0 0 0 1-1c0-1.645-1.355-3-3-3z"/></svg>