<svg xmlns="http://www.w3.org/2000/svg" width="24" height="24" viewBox="0 0 24 24"><path d="M12 2c-1.222 0-2.458.402-3.414 1.252S7 5.417 7 7s.63 2.898 1.586 3.748S10.778 12 12 12s2.458-.402 3.414-1.252S17 8.583 17 7s-.63-2.898-1.586-3.748S13.222 2 12 2zm0 2c.778 0 1.542.265 2.086.748S15 5.917 15 7s-.37 1.769-.914 2.252S12.778 10 12 10s-1.542-.265-2.086-.748S9 8.083 9 7s.37-1.769.914-2.252S11.222 4 12 4zm-2 10c-2.75 0-5 2.25-5 5v2a1 1 0 0 0 1 1 1 1 0 0 0 1-1v-2c0-1.669 1.331-3 3-3h2.5a1 1 0 0 0 1-1 1 1 0 0 0-1-1zm9 0a4 4 0 0 0-3.695 2.469 4 4 0 0 0 .867 4.36c.464.465 1.18 1.096 2.185 1.939a1 1 0 0 0 1.29-.004c1.058-.897 1.765-1.52 2.181-1.938a4 4 0 0 0 .867-4.357A4 4 0 0 0 19 14zm0 2c.933 0 1.555.527 1.848 1.234.293.708.226 1.52-.434 2.18h-.002c-.21.212-.845.758-1.412 1.25-.551-.476-1.157-.994-1.412-1.25h-.002c-.66-.66-.727-1.472-.434-2.18C17.445 16.527 18.067 16 19 16zm0 1a1 1 0 0 0-1 1v.01a1 1 0 0 0 1 1 1 1 0 0 0 1-1V18a1 1 0 0 0-1-1z"/></svg>