<svg xmlns="http://www.w3.org/2000/svg" width="24" height="24" viewBox="0 0 24 24"><path d="M16.889 2.006a1 1 0 0 0-.596.287 1 1 0 0 0 0 1.414L17.586 5 14.5 8.086l-2.293-2.293A1 1 0 0 0 11.5 5.5a1 1 0 0 0-.707.293 1 1 0 0 0 0 1.414l.293.293-5.793 5.793A1 1 0 0 0 5 14v3.586l-2.707 2.707a1 1 0 0 0 0 1.414 1 1 0 0 0 1.414 0L6.414 19H10a1 1 0 0 0 .707-.293l5.793-5.793.293.293a1 1 0 0 0 1.414 0 1 1 0 0 0 0-1.414L15.914 9.5 19 6.414l1.293 1.293a1 1 0 0 0 1.414 0 1 1 0 0 0 0-1.414l-4-4a1 1 0 0 0-.818-.287zM12.5 8.914l2.586 2.586-5.5 5.5H7v-2.586l.5-.5.793.793a1 1 0 0 0 1.414 0 1 1 0 0 0 0-1.414l-.793-.793 1.586-1.586.793.793a1 1 0 0 0 1.414 0 1 1 0 0 0 0-1.414l-.793-.793z"/></svg>