<svg xmlns="http://www.w3.org/2000/svg" width="24" height="24" viewBox="0 0 24 24"><path d="M5.07 3.002a1 1 0 0 0-.386.049 1 1 0 0 0-.579.502C1.486 8.79 1.5 14.203 4.076 20.385a1 1 0 0 0 1.309.539 1 1 0 0 0 .539-1.309C3.5 13.797 3.514 9.21 5.894 4.447a1 1 0 0 0-.447-1.342 1 1 0 0 0-.377-.103zm13.86 0a1 1 0 0 0-.377.103 1 1 0 0 0-.448 1.342c1.315 2.629 1.887 5.195 1.75 7.951a1 1 0 0 0 .95 1.05 1 1 0 0 0 1.049-.95c.153-3.1-.514-6.054-1.96-8.945a1 1 0 0 0-.578-.502 1 1 0 0 0-.386-.049zM9 8a1 1 0 0 0-1 1 1 1 0 0 0 1 1h.969c.003.007.037.038.119.223.167.376.405 1.124.793 2.14-.427.614-.91 1.253-1.4 1.742C8.878 14.707 8.305 15 8 15a1 1 0 0 0-1 1 1 1 0 0 0 1 1c1.194 0 2.121-.707 2.895-1.48.29-.291.562-.604.818-.92.067.19.138.397.201.564.222.594.431 1.167 1.053 1.557a1 1 0 0 0 1.379-.317 1 1 0 0 0-.317-1.379c.083.052-.054-.062-.242-.564-.157-.42-.361-1.046-.66-1.834.425-.611.906-1.246 1.393-1.732.6-.602 1.174-.895 1.48-.895a1 1 0 0 0 1-1 1 1 0 0 0-1-1c-1.194 0-2.121.707-2.895 1.48-.288.29-.558.598-.812.913a14 14 0 0 0-.377-.985c-.154-.345-.335-.686-.674-.974C10.903 8.144 10.417 8 10 8zm10 7a1 1 0 0 0-1 1v2h-2a1 1 0 0 0-1 1 1 1 0 0 0 1 1h2v2a1 1 0 0 0 1 1 1 1 0 0 0 1-1v-2h2a1 1 0 0 0 1-1 1 1 0 0 0-1-1h-2v-2a1 1 0 0 0-1-1z"/></svg>