<svg xmlns="http://www.w3.org/2000/svg" width="24" height="24" viewBox="0 0 24 24"><path d="M5.07 3.002a1 1 0 0 0-.386.049 1 1 0 0 0-.579.502C1.486 8.79 1.5 14.203 4.076 20.385a1 1 0 0 0 1.309.539 1 1 0 0 0 .539-1.309C3.5 13.797 3.514 9.21 5.894 4.447a1 1 0 0 0-.447-1.342 1 1 0 0 0-.377-.103zm13.86 0a1 1 0 0 0-.377.103 1 1 0 0 0-.448 1.342c2.381 4.762 2.395 9.35-.029 15.168a1 1 0 0 0 .54 1.309 1 1 0 0 0 1.308-.54c2.576-6.181 2.59-11.593-.03-16.831a1 1 0 0 0-.964-.551zM9 8a1 1 0 0 0-1 1 1 1 0 0 0 1 1h.969c.003.007.037.038.119.223.167.376.405 1.124.793 2.14-.427.614-.91 1.253-1.4 1.742C8.878 14.707 8.305 15 8 15a1 1 0 0 0-1 1 1 1 0 0 0 1 1c1.194 0 2.121-.707 2.895-1.48.29-.29.561-.6.816-.916.128.365.246.696.377.992.152.343.333.685.672.972.339.288.823.432 1.24.432h1a1 1 0 0 0 1-1 1 1 0 0 0-1-1h-.97c-.003-.007-.034-.035-.114-.215-.166-.375-.402-1.132-.791-2.156.425-.612.907-1.247 1.395-1.734.6-.602 1.174-.895 1.48-.895a1 1 0 0 0 1-1 1 1 0 0 0-1-1c-1.194 0-2.121.707-2.895 1.48-.288.29-.558.598-.812.913a14 14 0 0 0-.377-.985c-.154-.345-.335-.686-.674-.974C10.903 8.144 10.417 8 10 8z"/></svg>