<svg xmlns="http://www.w3.org/2000/svg" width="24" height="24" viewBox="0 0 24 24"><path d="M4 2c-1.093 0-2 .907-2 2v2c0 1.093.907 2 2 2h2a2.02 2.02 0 0 0 1.893-1.361c.686.217 1.318.684 1.85 1.375C10.496 8.995 11 10.413 11 12c0 2.003.617 3.834 1.672 5.205q.33.43.723.795h-2.653a1.9 1.9 0 0 0-.39-.498A2.02 2.02 0 0 0 9 17c-.472 0-.958.152-1.352.502-.206.183-.226.512-.34.785A1 1 0 0 0 7 19a1 1 0 0 0 .309.713c.113.273.133.602.34.785.393.35.879.502 1.351.502s.958-.152 1.352-.502c.153-.137.286-.307.39-.498H16c0 1.093.907 2 2 2h2c1.093 0 2-.907 2-2v-2c0-1.093-.907-2-2-2h-2a2.02 2.02 0 0 0-1.893 1.361c-.686-.217-1.318-.684-1.85-1.375C13.504 15.005 13 13.587 13 12c0-2.003-.617-3.834-1.672-5.205A6.6 6.6 0 0 0 10.605 6h2.797c.055.191.11.376.246.498.394.35.88.502 1.352.502s.958-.152 1.352-.502C16.745 6.148 17 5.583 17 5s-.255-1.148-.648-1.498A2.02 2.02 0 0 0 15 3c-.472 0-.958.152-1.352.502-.137.122-.191.307-.246.498H8c0-1.093-.907-2-2-2zm0 2h2v2H4zm14 14h2v2h-2z"/></svg>