<svg xmlns="http://www.w3.org/2000/svg" width="24" height="24" viewBox="0 0 24 24"><path d="M15.932 2.002a1 1 0 0 0-.174.027l-6 1.5a1 1 0 0 0-.75.838l-.127.947-6.692-1.296a1 1 0 0 0-1.05 1.49l10 17a1 1 0 0 0 1.722 0l10-17a1 1 0 0 0-1.07-1.487l-5.416 1.16.58-1.886a1 1 0 0 0-1.023-1.293zM14.523 4.4l-1.478 4.805a1 1 0 0 0 .996 1.207L13 12.232V11a1 1 0 0 0-1.316-.95l-1.48.495.51-3.836.009-.02a1 1 0 0 0 .017-.166l.162-1.218zM3.986 6.404l4.631.897-.61 4.566a1 1 0 0 0 1.31 1.082L11 12.39V16a1 1 0 0 0 1.87.496l4-7a1 1 0 0 0-1.112-1.467l-.281.07.222-.726 4.285-.918L12 20.027z"/></svg>