<svg xmlns="http://www.w3.org/2000/svg" width="24" height="24" viewBox="0 0 24 24"><path d="M2 5a1 1 0 0 0-1 1v5c0 4.959 4.041 9 9 9h4l-.217-.027a1 1 0 0 0 1.246-.965V16.09c1.11.6 1.971 1.579 1.971 2.914a1 1 0 0 0 1 1h4a1 1 0 0 0 .984-1.178l-.433-2.39c-.317-1.743-1.48-3.07-2.93-4.008 1.476-1.148 2.644-2.652 3.018-4.518l.341-1.71A1 1 0 0 0 22 5.003h-4a1 1 0 0 0-1 1c0 1.347-.873 2.332-2 2.928V6a1 1 0 0 0-1-1h-4a1 1 0 0 0-1 1v7.588C7.887 13.15 7 12.276 7 11V6a1 1 0 0 0-1-1zm1 2h2v4c0 2.75 2.25 5 5 5a1 1 0 0 0 1-1V7h2v3.5a1 1 0 0 0 1 1h.03a1 1 0 0 0 .124-.008c2.413-.3 4.22-2.172 4.66-4.488h1.967l-.103.516a5.86 5.86 0 0 1-3.125 4.09 1 1 0 0 0 .13 1.843 4.33 4.33 0 0 1 2.899 3.34l.219 1.21h-1.987c-.44-2.315-2.247-4.186-4.66-4.487a1 1 0 0 0-1.125.992V18H10c-3.878 0-7-3.122-7-7z"/></svg>