<svg xmlns="http://www.w3.org/2000/svg" width="24" height="24" viewBox="0 0 24 24"><path d="M12 1C5.937 1 1 5.937 1 12s4.937 11 11 11 11-4.937 11-11S18.063 1 12 1zm0 2c4.983 0 9 4.017 9 9s-4.017 9-9 9-9-4.017-9-9 4.017-9 9-9zm3 5c-1.093 0-2 .907-2 2v1c0 1.093.907 2 2 2h1v1h-1.049a1 1 0 0 0-.951-.75 1 1 0 0 0-1 1c0 .955.795 1.75 1.75 1.75H16c1.093 0 2-.907 2-2v-1c0-1.093-.907-2-2-2h-1v-1h1.104a1 1 0 0 0 .896.75 1 1 0 0 0 1-1C18 8.795 17.205 8 16.25 8zm-8.06.002a1 1 0 0 0-.256.049 1 1 0 0 0-.633 1.265l2 6a1 1 0 0 0 1.898 0l2-6a1 1 0 0 0-.633-1.265 1 1 0 0 0-1.265.633L9 11.836 7.95 8.684a1 1 0 0 0-1.01-.682z"/></svg>