<svg xmlns="http://www.w3.org/2000/svg" width="24" height="24" viewBox="0 0 24 24"><path d="M12 2a1 1 0 0 0-1 1v5.04a1 1 0 0 0 1 1 1 1 0 0 0 1-1V3a1 1 0 0 0-1-1zM3.92 6.498a1 1 0 0 0-.193.035 1 1 0 0 0-.6.475 1 1 0 0 0 .387 1.361l4.5 2.504a1 1 0 0 0 1.359-.387 1 1 0 0 0-.387-1.359l-4.5-2.506a1 1 0 0 0-.566-.123zm16.02.002a1 1 0 0 0-.427.125l-4.5 2.5a1 1 0 0 0-.389 1.361 1 1 0 0 0 1.361.389l4.5-2.5a1 1 0 0 0 .389-1.361 1 1 0 0 0-.934-.514zM8.582 13.004a1 1 0 0 0-.568.121l-4.5 2.5a1 1 0 0 0-.389 1.361 1 1 0 0 0 1.361.389l4.5-2.5a1 1 0 0 0 .389-1.361 1 1 0 0 0-.6-.475 1 1 0 0 0-.193-.035zm6.836 0a1 1 0 0 0-.193.035 1 1 0 0 0-.6.475 1 1 0 0 0 .389 1.361l4.5 2.5a1 1 0 0 0 1.361-.389 1 1 0 0 0-.389-1.361l-4.5-2.5a1 1 0 0 0-.568-.121zM12 14.96a1 1 0 0 0-1 1V21a1 1 0 0 0 1 1 1 1 0 0 0 1-1v-5.04a1 1 0 0 0-1-1z"/></svg>