<svg xmlns="http://www.w3.org/2000/svg" width="24" height="24" viewBox="0 0 24 24"><path d="M3 2a1 1 0 0 0-.707.293 1 1 0 0 0 0 1.414L9.086 10.5l-6.793 6.793a1 1 0 0 0 0 1.414l3 3a1 1 0 0 0 1.414 0l6.793-6.793 6.793 6.793a1 1 0 0 0 1.414 0 1 1 0 0 0 0-1.414l-7.5-7.5-3-3-7.5-7.5A1 1 0 0 0 3 2zm15 0a1 1 0 0 0-.707.293l-5.5 5.5a1 1 0 0 0 0 1.414 1 1 0 0 0 1.414 0L15 7.414 16.586 9l-1.793 1.793a1 1 0 0 0 0 1.414 1 1 0 0 0 1.414 0l5.5-5.5a1 1 0 0 0 0-1.414l-3-3A1 1 0 0 0 18 2zm-9 .014A1 1 0 0 0 8 3a.98.98 0 0 1-.283.697 1 1 0 0 0 .02 1.414 1 1 0 0 0 .972.17A1 1 0 0 0 8.877 6.3a1 1 0 0 0 1.416-.004A.98.98 0 0 1 11 6a1 1 0 0 0 0-2c-.564 0-1-.436-1-1a1 1 0 0 0-1-.986zm9 2.4L19.586 6 18 7.586 16.414 6zm-7.5 7.5 1.586 1.586L6 19.586 4.414 18zm8.5.1A1 1 0 0 0 18 13c0 .28-.111.525-.29.703a1 1 0 0 0 0 1.414 1 1 0 0 0 1.163.104 1 1 0 0 0 .002 1.078 1 1 0 0 0 1.414-.002A1 1 0 0 1 21 16a1 1 0 0 0 0-2c-.564 0-1-.436-1-1a1 1 0 0 0-1-.986z"/></svg>