<svg xmlns="http://www.w3.org/2000/svg" width="24" height="24" viewBox="0 0 24 24"><path d="M14.49 3c-.798 0-1.543.422-2.011 1-.47.578-.749 1.286-.958 2.092-.417 1.612-.53 3.661-.53 5.908 0 2.171-.137 4.123-.47 5.406-.166.642-.386 1.105-.574 1.336S9.692 19 9.49 19c-.288 0-.407-.057-.566-.2-.16-.141-.346-.418-.51-.857-.328-.876-.53-2.325-.676-4.029h-.002C7.602 12.37 6.51 11 4.98 11h-2a1 1 0 0 0-1 1 1 1 0 0 0 1 1h2c.26 0 .7.337.765 1.086.15 1.749.325 3.3.797 4.56.236.63.555 1.205 1.053 1.649A2.87 2.87 0 0 0 9.49 21c.799 0 1.543-.422 2.012-1s.748-1.286.957-2.092c.418-1.612.531-3.661.531-5.908 0-2.171.137-4.123.469-5.406.166-.642.387-1.105.574-1.336.188-.231.256-.258.457-.258.288 0 .407.057.567.2.159.141.345.418.51.857.328.877.53 2.326.675 4.029C16.376 11.629 17.467 13 19 13h2a1 1 0 0 0 1-1 1 1 0 0 0-1-1h-2c-.255 0-.701-.343-.766-1.086-.15-1.747-.322-3.298-.795-4.559-.236-.63-.555-1.204-1.052-1.648A2.87 2.87 0 0 0 14.49 3z"/></svg>