<svg xmlns="http://www.w3.org/2000/svg" width="24" height="24" viewBox="0 0 24 24"><path d="M12 3c-1.222 0-2.458.402-3.414 1.252S7 6.417 7 8c0 1.478.74 2.722 1.781 3.648l-2.658 4.873a1 1 0 0 0 .398 1.356 1 1 0 0 0 1.356-.398l3-5.5a1 1 0 0 0-.393-1.354C9.575 10.121 9 9.165 9 8c0-1.083.37-1.769.914-2.252S11.222 5 12 5s1.542.265 2.086.748S15 6.917 15 8a1 1 0 0 0 1 1 1 1 0 0 0 1-1c0-1.583-.63-2.898-1.586-3.748S13.222 3 12 3zm-.107 4.006a1 1 0 0 0-.372.117 1 1 0 0 0-.398 1.356l3 5.5a1 1 0 0 0 1.363.394c.406-.226.977-.373 1.514-.373 1.985 0 3.4 1.826 2.904 3.748a2.98 2.98 0 0 1-4.355 1.879 1 1 0 0 0-1.358.393 1 1 0 0 0 .391 1.357c2.84 1.567 6.448.011 7.258-3.129S20.243 12.001 17 12c-.52 0-.987.226-1.477.373l-2.646-4.852a1 1 0 0 0-.596-.48 1 1 0 0 0-.388-.035zM4.71 12.623a1 1 0 0 0-.365.139c-3.189 1.998-3.06 6.789.232 8.611 2.966 1.642 6.454-.245 7.147-3.373H17a1 1 0 0 0 1-1 1 1 0 0 0-1-1h-6a1 1 0 0 0-1 1 2.97 2.97 0 0 1-4.453 2.625 2.971 2.971 0 0 1-.14-5.168 1 1 0 0 0 .316-1.379 1 1 0 0 0-.623-.443 1 1 0 0 0-.39-.012z"/></svg>