<svg xmlns="http://www.w3.org/2000/svg" width="24" height="24" viewBox="0 0 24 24"><path d="M3 2a1 1 0 0 0-.707.293 1 1 0 0 0 0 1.414L5 6.414v4.322c-.39.21-.762.464-1.102.766C2.755 12.519 2 14.083 2 16c0 3.302 2.698 6 6 6s6-2.698 6-6q0-.314-.027-.613l2.31 2.31c-.239.47-.345.977-.316 1.457.047.776.402 1.463.914 1.973.511.51 1.198.862 1.974.906.478.028.982-.08 1.45-.318a1 1 0 0 0 1.402-.008 1 1 0 0 0 0-1.414l-.53-.527-.029-.032-.027-.029-.01-.008-6.384-6.383-.041-.04L8.742 7.33a1 1 0 0 0-.072-.072L6.707 5.293l-3-3A1 1 0 0 0 3 2zm9 5a1 1 0 0 0-1 1 1 1 0 0 0 1 1h2v2a1 1 0 0 0 1 1 1 1 0 0 0 1-1V9h1a1 1 0 0 0 1-1 1 1 0 0 0-1-1zM7 9h.586l1.03 1.03A6.7 6.7 0 0 0 7 10.075zm1 3c1.028 0 2.042.348 2.773.998.338.3.625.662.836 1.104a1 1 0 0 0 .196.5c.125.405.195.868.195 1.398 0 2.221-1.779 4-4 4s-4-1.779-4-4c0-1.417.495-2.352 1.227-3.002C5.957 12.348 6.972 12 8 12zm10.246 7.66.098.098-.051-.047z"/></svg>