<svg xmlns="http://www.w3.org/2000/svg" width="24" height="24" viewBox="0 0 24 24"><path d="M12 2C6.489 2 2 6.489 2 12s4.489 10 10 10 10-4.489 10-10S17.511 2 12 2zm0 2c1.295 0 2.515.307 3.596.85l-2.358 3.33a4.33 4.33 0 0 0-2.476 0L8.404 4.85C9.484 4.307 10.704 4 12 4zM6.742 5.965 9.05 9.223A3.87 3.87 0 0 0 8.115 11h-4.05a7.97 7.97 0 0 1 2.677-5.035zm10.516 0A7.97 7.97 0 0 1 19.936 11h-4.051a3.87 3.87 0 0 0-.934-1.777zM12 10c.528 0 1.042.181 1.398.498.357.317.602.752.602 1.502s-.245 1.185-.602 1.502c-.356.317-.87.498-1.398.498s-1.042-.181-1.398-.498C10.245 13.185 10 12.75 10 12s.245-1.185.602-1.502c.356-.317.87-.498 1.398-.498zm-7.936 3h4.051c.163.7.493 1.308.934 1.777l-2.307 3.258A7.97 7.97 0 0 1 4.064 13zm11.82 0h4.052a7.97 7.97 0 0 1-2.678 5.035l-2.307-3.258c.441-.47.77-1.077.934-1.777zm-5.122 2.82a4.33 4.33 0 0 0 2.476 0l2.358 3.33c-1.08.543-2.3.85-3.596.85a8 8 0 0 1-3.596-.85z"/></svg>