<svg xmlns="http://www.w3.org/2000/svg" width="24" height="24" viewBox="0 0 24 24"><path d="M3 2a1 1 0 0 0-1 1 1 1 0 0 0 1 1h1c.564 0 1 .436 1 1v5.736c-.39.21-.762.464-1.102.766C2.755 12.519 2 14.083 2 16c0 3.302 2.698 6 6 6s6-2.698 6-6q0-.518-.072-1H16c.837 0 1.543.496 1.844 1.215a2.9 2.9 0 0 0-.883.537C16.38 17.269 16 18.083 16 19s.38 1.731.96 2.248A3.05 3.05 0 0 0 19 22a3.05 3.05 0 0 0 2.04-.752c.58-.517.96-1.331.96-2.248s-.38-1.731-.96-2.248a2.94 2.94 0 0 0-1.138-.625C19.5 14.345 17.898 13 16 13V9h1a1 1 0 0 0 1-1 1 1 0 0 0-1-1H7V5c0-1.645-1.355-3-3-3zm4 7h7v4h-.723a5.5 5.5 0 0 0-1.175-1.498C10.958 10.485 9.472 10 8 10q-.502 0-1 .076zm1 3c1.028 0 2.042.348 2.773.998.34.303.628.668.84 1.113a1 1 0 0 0 .188.475c.128.41.199.877.199 1.414 0 2.221-1.779 4-4 4s-4-1.779-4-4c0-1.417.495-2.352 1.227-3.002C5.957 12.348 6.972 12 8 12zm11 6c.278 0 .542.098.71.248.17.15.29.335.29.752s-.12.602-.29.752c-.168.15-.432.248-.71.248s-.542-.098-.71-.248c-.17-.15-.29-.335-.29-.752s.12-.602.29-.752A1.1 1.1 0 0 1 19 18z"/></svg>