<svg xmlns="http://www.w3.org/2000/svg" width="24" height="24" viewBox="0 0 24 24"><path d="M12 2a1 1 0 0 0-1 1 1 1 0 0 0 1 1c2.819 0 5 2.051 5 4.5 0 1.46-.777 2.78-2.002 3.607a3 3 0 0 0-.002-.277C14.912 8.096 12.073 5 8.5 5 4.873 5 2 8.19 2 12a1 1 0 0 0 1 1 1 1 0 0 0 1-1c0-2.819 2.051-5 4.5-5 1.46 0 2.78.777 3.607 2.002a3 3 0 0 0-.261.002C8.106 9.08 5 11.922 5 15.5c0 3.627 3.19 6.5 7 6.5a1 1 0 0 0 1-1 1 1 0 0 0-1-1c-2.819 0-5-2.051-5-4.5 0-1.46.777-2.78 2.002-3.607a3 3 0 0 0 .002.277C9.088 15.904 11.927 19 15.5 19c3.627 0 6.5-3.19 6.5-7a1 1 0 0 0-1-1 1 1 0 0 0-1 1c0 2.819-2.051 5-4.5 5-1.46 0-2.78-.777-3.607-2.002a3 3 0 0 0 .261-.002C15.894 14.92 19 12.078 19 8.5 19 4.873 15.81 2 12 2zm0 9c.278 0 .542.098.71.248.17.15.29.335.29.752s-.12.602-.29.752c-.168.15-.432.248-.71.248s-.542-.098-.71-.248c-.17-.15-.29-.335-.29-.752s.12-.602.29-.752A1.1 1.1 0 0 1 12 11z"/></svg>