<svg xmlns="http://www.w3.org/2000/svg" width="24" height="24" viewBox="0 0 24 24"><path d="M3 2a1 1 0 0 0-.707.293 1 1 0 0 0 0 1.414L5.586 7H5a1 1 0 0 0-1 1 1 1 0 0 0 1 1h2.586l2 2H3a1 1 0 0 0-1 1 1 1 0 0 0 1 1h8.586l8.707 8.707a1 1 0 0 0 1.414 0 1 1 0 0 0 0-1.414l-9-9-4-4-5-5A1 1 0 0 0 3 2zm10.455.041a4 4 0 0 0-.467.047c-1.234.202-2.365 1.027-2.783 2.375a1 1 0 0 0 .658 1.252 1 1 0 0 0 1.252-.658c.385-1.242 1.888-1.488 2.649-.434.76 1.054.055 2.402-1.244 2.377H12a1 1 0 0 0-1 1 1 1 0 0 0 1 1h1.48c2.823.054 4.557-3.26 2.905-5.549-.723-1.001-1.836-1.45-2.93-1.41zM16 11a1 1 0 0 0-1 1 1 1 0 0 0 1 1h2.52c.722-.014 1.185.379 1.412.918s.183 1.143-.332 1.65a1 1 0 0 0-.012 1.414 1 1 0 0 0 1.414.012 3.5 3.5 0 0 0 .771-3.851A3.505 3.505 0 0 0 18.48 11zM4 15a1 1 0 0 0-1 1 1 1 0 0 0 1 1h5.52c1.3-.025 2.005 1.323 1.244 2.377s-2.264.808-2.649-.434a1 1 0 0 0-1.252-.658 1 1 0 0 0-.658 1.252c.836 2.696 4.527 3.3 6.18 1.012 1.652-2.289-.082-5.603-2.905-5.549z"/></svg>