<svg xmlns="http://www.w3.org/2000/svg" width="24" height="24" viewBox="0 0 24 24"><path d="M6 3C4.355 3 3 4.355 3 6v6a1 1 0 0 0 1 1 1 1 0 0 0 1-1V6c0-.564.436-1 1-1h12c.564 0 1 .436 1 1v12c0 .564-.436 1-1 1h-6a1 1 0 0 0-1 1 1 1 0 0 0 1 1h6c1.645 0 3-1.355 3-3V6c0-1.645-1.355-3-3-3zm6 4a1 1 0 0 0-1 1 1 1 0 0 0 1 1h1.586l-3.293 3.293a1 1 0 0 0 0 1.414 1 1 0 0 0 1.414 0L15 10.414V12a1 1 0 0 0 1 1 1 1 0 0 0 1-1V8l-.002-.018a1 1 0 0 0-.021-.195l-.002-.01-.002-.006a1 1 0 0 0-.07-.199l-.003-.006-.004-.007a1 1 0 0 0-.113-.18l-.002-.002a1 1 0 0 0-.074-.084l-.041-.031a1 1 0 0 0-.117-.09 1 1 0 0 0-.08-.049 1 1 0 0 0-.168-.07l-.055-.02A1 1 0 0 0 16 7zm-8 8c-1.093 0-2 .907-2 2v3c0 1.093.907 2 2 2h3c1.093 0 2-.907 2-2v-3c0-1.093-.907-2-2-2zm0 2h3v3H4z"/></svg>