<svg xmlns="http://www.w3.org/2000/svg" width="24" height="24" viewBox="0 0 24 24"><path d="M8 .973a5 5 0 0 0-1.25.158 1 1 0 0 0-.719 1.219 1 1 0 0 0 1.219.718 3 3 0 0 1 1.5 0 1 1 0 0 0 1.219-.718 1 1 0 0 0-.719-1.22A5 5 0 0 0 8 .974zm8 0a5 5 0 0 0-1.25.158 1 1 0 0 0-.719 1.219 1 1 0 0 0 1.219.718 3 3 0 0 1 1.5 0 1 1 0 0 0 1.219-.718 1 1 0 0 0-.719-1.22A5 5 0 0 0 16 .974zM4.38 3.2a1 1 0 0 0-.308.055 1 1 0 0 0-.572.508 5 5 0 0 0-.5 2.25A1 1 0 0 0 4.014 7 1 1 0 0 0 5 5.986a3 3 0 0 1 .3-1.35 1 1 0 0 0-.464-1.335 1 1 0 0 0-.455-.1zm7.24 0a1 1 0 0 0-.456.1 1 1 0 0 0-.465 1.336c.204.42.308.882.301 1.35v.003a12.92 12.92 0 0 0-8.695 4.3l-.012.003-.004.01c-.012.013-.027.021-.039.035a1 1 0 0 0-.115.338 1 1 0 0 0-.121.355 1 1 0 0 0 .146.354 1 1 0 0 0 .133.322l.045.043 5.455 5.457a1 1 0 0 0 1.406.008A4 4 0 0 1 11 16.197v2.057q-.185.102-.352.248c-.206.183-.226.512-.34.785A1 1 0 0 0 10 20a1 1 0 0 0 .309.713c.113.273.133.602.34.785.393.35.879.502 1.351.502s.958-.152 1.352-.502c.393-.35.648-.915.648-1.498s-.255-1.148-.648-1.498a2 2 0 0 0-.352-.248v-2.057c.656.17 1.28.507 1.8 1.018a1 1 0 0 0 1.407-.008l5.5-5.5a1 1 0 0 0 .043-1.37A12.92 12.92 0 0 0 13 5.99v-.123a3 3 0 0 1 .3-1.23 1 1 0 0 0-.464-1.336 1 1 0 0 0-.764-.045L12 3.287l-.072-.031a1 1 0 0 0-.309-.055zm8 0a1 1 0 0 0-.456.1 1 1 0 0 0-.465 1.336A3 3 0 0 1 19 5.986 1 1 0 0 0 19.986 7 1 1 0 0 0 21 6.014a5 5 0 0 0-.5-2.25 1 1 0 0 0-.572-.508 1 1 0 0 0-.309-.055zM11 7.977v6.293a5.9 5.9 0 0 0-2.354.962L4.443 11.03C6.305 9.247 8.614 8.205 11 7.977zm2 0c2.386.228 4.695 1.27 6.557 3.052l-4.203 4.203A5.95 5.95 0 0 0 13 14.27z"/></svg>