<svg xmlns="http://www.w3.org/2000/svg" width="24" height="24" viewBox="0 0 24 24"><path d="M12 2c-1.593 0-3.178.208-4.473.688-.647.24-1.23.544-1.7.994-.283.268-.35.7-.495 1.086a1 1 0 0 0-.13.164 1 1 0 0 0-.067.097 1 1 0 0 0-.074.162A1 1 0 0 0 5 5.5v5.63c-.642.122-1.225.41-1.57.907-.592.854-.608 2.2.277 3.084L5 16.414V18c0 1.369 1.043 2.382 2.31 3.016S10.209 22 12 22h.299c1.724-.04 3.283-.404 4.496-1.037S19 19.33 19 18v-3.586l1.293-1.293.037-.039.098-.107.031-.04c.753-.928.65-2.2.037-2.996-.348-.45-.897-.717-1.496-.83V5.5c0-.717-.355-1.37-.826-1.818-.472-.45-1.054-.755-1.701-.994C15.178 2.208 13.593 2 12 2zm0 2c1.407 0 2.822.209 3.777.563.478.176.833.392 1.018.568S17 5.383 17 5.5s-.02.193-.205.37c-.185.175-.54.39-1.018.567C14.822 6.792 13.407 7 12 7s-2.822-.209-3.777-.562c-.478-.177-.833-.393-1.018-.569S7 5.617 7 5.5s.02-.193.205-.37c.185-.175.54-.39 1.018-.567C9.178 4.209 10.593 4 12 4zM7 8.094q.255.118.527.219C8.822 8.792 10.407 9 12 9s3.178-.208 4.473-.687a7 7 0 0 0 .527-.22v2.034a1 1 0 0 0 1.412.91c.27-.122.377-.034.5.125.123.16.181.283-.006.514l-.047.05-1.566 1.567A1 1 0 0 0 17 14v4c0 .28-.277.744-1.13 1.19-.854.445-2.157.776-3.618.81H12c-1.522 0-2.891-.322-3.795-.773C7.301 18.775 7 18.288 7 18v-2a1 1 0 0 0-.293-.707l-1.586-1.586c-.23-.23-.17-.354-.049-.53.122-.174.218-.275.514-.14A1 1 0 0 0 7 12.127zm3 3.406a1 1 0 0 0-1 1V14a1 1 0 0 0 1 1 1 1 0 0 0 1-1v-1.5a1 1 0 0 0-1-1zm4 3.5a1 1 0 0 0-1 1v1a1 1 0 0 0 1 1 1 1 0 0 0 1-1v-1a1 1 0 0 0-1-1z"/></svg>