<svg xmlns="http://www.w3.org/2000/svg" width="24" height="24" viewBox="0 0 24 24"><path d="M12.025 1.99c-2.499-.018-5.057.897-7.103 2.948-3.118 3.125-3.598 7.438-2.154 10.906S7.608 22.01 12.023 22a1 1 0 0 0 .998-1.002 1 1 0 0 0-.949-.988A16 16 0 0 1 10.43 16h2.07a1 1 0 0 0 1-1 1 1 0 0 0-1-1h-2.451a16 16 0 0 1 0-4h3.902a16 16 0 0 1 .074 3.295 1 1 0 0 0 .916 1.078 1 1 0 0 0 1.079-.916A18 18 0 0 0 15.967 10h3.795c.153.627.238 1.294.238 2a1 1 0 0 0 1 1 1 1 0 0 0 1-1c0-4.415-2.707-7.805-6.178-9.24a10.2 10.2 0 0 0-3.218-.748l-.069-.004q-.255-.015-.51-.018zm-.023 2.127A16 16 0 0 1 13.566 8H10.43a16 16 0 0 1 1.572-3.883zm-2.357.205A18 18 0 0 0 8.375 8H5.053a8.4 8.4 0 0 1 1.283-1.65C7.339 5.344 8.47 4.686 9.645 4.322zm4.732.041q.345.108.68.244c1.618.67 3.015 1.834 3.908 3.393h-3.338a18 18 0 0 0-1.25-3.637zM4.217 10h3.82a18 18 0 0 0 0 4H4.25a7.9 7.9 0 0 1-.033-4zm14.785 4.5a1 1 0 0 0-1 1v.658a2.9 2.9 0 0 0-.982.545l-.551-.318a1 1 0 0 0-1.365.365 1 1 0 0 0 .367 1.365l.578.334a3.3 3.3 0 0 0 0 1.102l-.578.334a1 1 0 0 0-.367 1.365 1 1 0 0 0 1.365.365l.55-.318c.297.25.632.43.983.545v.658a1 1 0 0 0 1 1 1 1 0 0 0 1-1v-.658c.35-.115.684-.295.98-.545l.551.318a1 1 0 0 0 1.365-.365 1 1 0 0 0-.365-1.365l-.578-.334a3.3 3.3 0 0 0 0-1.102l.576-.334a1 1 0 0 0 .367-1.365 1 1 0 0 0-.607-.467 1 1 0 0 0-.76.102l-.549.316a2.9 2.9 0 0 0-.98-.543V15.5a1 1 0 0 0-1-1zM5.072 16h3.303a18 18 0 0 0 1.264 3.664c-2.03-.599-3.597-1.956-4.567-3.664zm13.93 2c.278 0 .54.098.709.248q.041.037.078.078a1 1 0 0 0 .078.174 1 1 0 0 0 .09.129c.029.1.045.22.045.371 0 .15-.015.268-.043.367a1 1 0 0 0-.092.133 1 1 0 0 0-.078.174q-.037.04-.078.078a1.1 1.1 0 0 1-.709.248c-.278 0-.542-.098-.711-.248a1 1 0 0 1-.074-.074 1 1 0 0 0-.08-.178 1 1 0 0 0-.092-.133 1.4 1.4 0 0 1-.043-.367c0-.152.016-.271.045-.371a1 1 0 0 0 .09-.129 1 1 0 0 0 .08-.178q.035-.038.074-.074c.169-.15.433-.248.711-.248z"/></svg>