<svg xmlns="http://www.w3.org/2000/svg" width="24" height="24" viewBox="0 0 24 24"><path d="M12.037 1.99a10 10 0 0 0-.58.016l-.043.002q-.39.02-.78.07c-1.87.252-3.718 1.049-5.314 2.48-3.19 2.865-3.965 7.014-2.838 10.51 1.128 3.497 4.179 6.412 8.442 6.873a1 1 0 0 0 1.101-.886 1 1 0 0 0-.886-1.102C8.323 19.65 6.237 18.08 5.063 16h3.31q.124.545.281 1.084a1 1 0 0 0 1.242.678 1 1 0 0 0 .678-1.242q-.089-.307-.166-.616A1 1 0 0 0 11 15a1 1 0 0 0-.951-.998 16 16 0 0 1 0-4.002h3.902q.068.531.1 1.068a1 1 0 0 0 1.056.94 1 1 0 0 0 .94-1.057 18 18 0 0 0-.082-.951h3.795a8.4 8.4 0 0 1 .24 2 1 1 0 0 0 1 1 1 1 0 0 0 1-1c0-4.288-2.57-7.636-5.926-9.133a10.1 10.1 0 0 0-3.463-.853 1 1 0 0 0-.183-.008c-.13-.006-.26-.015-.39-.016zM12 4.115A16 16 0 0 1 13.568 8h-3.136A16 16 0 0 1 12 4.115zm-2.36.215A18 18 0 0 0 8.374 8H5.049a8.2 8.2 0 0 1 1.607-1.953A8.1 8.1 0 0 1 9.641 4.33zm4.735.031q.452.142.885.332c1.532.684 2.85 1.817 3.705 3.307h-3.34a18 18 0 0 0-1.25-3.639zM4.225 10h3.808a18 18 0 0 0 .002 4h-3.78a8 8 0 0 1-.03-4zM17.8 13.043c-.502 0-1.006.242-1.248.728v.002l-.854 1.723-1.902.275c-1.082.15-1.559 1.616-.774 2.375l1.377 1.338-.326 1.891-.002.012c-.172 1.068 1.058 1.954 2.018 1.455l.002-.002 1.709-.895 1.703.893c.963.51 2.205-.39 2.02-1.465l.001.002-.326-1.89 1.38-1.34.001-.002c.778-.76.304-2.215-.771-2.372h-.002l-1.907-.275-.853-1.723v-.002c-.242-.486-.744-.728-1.246-.728zm0 2.719.54 1.092a1 1 0 0 0 .753.546l1.2.174-.866.842a1 1 0 0 0-.29.887l.206 1.193-1.08-.564a1 1 0 0 0-.928 0l-1.08.566.205-1.195a1 1 0 0 0-.29-.887l-.866-.842 1.2-.174a1 1 0 0 0 .755-.546z"/></svg>