<svg xmlns="http://www.w3.org/2000/svg" width="24" height="24" viewBox="0 0 24 24"><path d="M12 2C6.489 2 2 6.489 2 12s4.489 10 10 10 10-4.489 10-10S17.511 2 12 2zm0 2c4.43 0 8 3.57 8 8s-3.57 8-8 8-8-3.57-8-8 3.57-8 8-8zM8.88 7.008a1 1 0 0 0-.48.191 1 1 0 0 0-.2 1.4L10.75 12 8.2 15.4a1 1 0 0 0 .2 1.4 1 1 0 0 0 1.4-.2l2.2-2.932 2.2 2.932a1 1 0 0 0 1.4.2 1 1 0 0 0 .2-1.4L13.25 12l2.55-3.4a1 1 0 0 0-.2-1.4 1 1 0 0 0-.74-.19 1 1 0 0 0-.66.39L12 10.332 9.8 7.4a1 1 0 0 0-.66-.39 1 1 0 0 0-.26-.002z"/></svg>