<svg xmlns="http://www.w3.org/2000/svg" width="24" height="24" viewBox="0 0 24 24"><path d="M11 2c-1.222 0-2.458.402-3.414 1.252S6 5.417 6 7c0 1.722.567 3.11 1.06 4.467q.135.367.26.738A4.3 4.3 0 0 0 6 12c-.972 0-1.958.319-2.727 1.002S2 14.75 2 16s.505 2.315 1.273 2.998C4.043 19.681 5.028 20 6 20s1.958-.319 2.727-1.002S10 17.25 10 16c0-1.704-.344-3.09-.736-4.283.56.19 1.15.283 1.736.283a5.4 5.4 0 0 0 2.084-.416l-.033.1C12.55 13.184 12 14.834 12 17c0 1.583.63 2.898 1.586 3.748S15.778 22 17 22s2.458-.402 3.414-1.252S22 18.583 22 17a1 1 0 0 0-1-1 1 1 0 0 0-1 1c0 1.083-.37 1.769-.914 2.252S17.778 20 17 20s-1.542-.265-2.086-.748S14 18.083 14 17c0-1.833.45-3.184.95-4.684S16 9.166 16 7c0-1.583-.63-2.898-1.586-3.748S12.222 2 11 2zm0 2c.778 0 1.542.265 2.086.748S14 5.917 14 7q0 .102-.004.2c-.043.969-.4 1.599-.91 2.052-.544.483-1.308.748-2.086.748s-1.542-.265-2.086-.748c-.503-.447-.858-1.066-.908-2.014v-.017A5 5 0 0 1 8 7c0-1.083.37-1.769.914-2.252S10.222 4 11 4zM6 14c.528 0 1.042.181 1.398.498.333.296.57.695.6 1.357L8 16c0 .75-.245 1.185-.602 1.502-.356.317-.87.498-1.398.498s-1.042-.181-1.398-.498C4.245 17.185 4 16.75 4 16s.245-1.185.602-1.502C4.958 14.181 5.472 14 6 14z"/></svg>