<svg xmlns="http://www.w3.org/2000/svg" width="24" height="24" viewBox="0 0 24 24"><path d="M12 1.994c-4.502 0-7.395 3.289-7.916 6.842-.377 2.567.518 5.327 2.648 7.164H5a1 1 0 0 0-1 1 1 1 0 0 0 1 1h5a1 1 0 0 0 1-1v-.3a1 1 0 0 0-.715-.958c-3.42-1.02-4.622-3.893-4.222-6.615S8.44 3.994 12 3.994s5.538 2.41 5.938 5.133-.802 5.595-4.223 6.615A1 1 0 0 0 13 16.7v.3a1 1 0 0 0 1 1h5a1 1 0 0 0 1-1 1 1 0 0 0-1-1h-1.732c2.13-1.837 3.025-4.597 2.648-7.164-.521-3.553-3.414-6.842-7.916-6.842zM5 19a1 1 0 0 0-1 1 1 1 0 0 0 1 1h14a1 1 0 0 0 1-1 1 1 0 0 0-1-1z"/></svg>