<svg xmlns="http://www.w3.org/2000/svg" width="24" height="24" viewBox="0 0 24 24"><path d="M7.832 2.03q-.184.005-.37.02c-1.962.178-3.841 1.29-4.83 3.266C.658 9.268 3.583 14 8 14a1 1 0 0 0 1-1 1 1 0 0 0-1-1 3.97 3.97 0 0 1-3.578-5.79A3.968 3.968 0 0 1 11 5.355V21a1 1 0 0 0 1 1 1 1 0 0 0 1-1V5.354a3.968 3.968 0 0 1 6.578.857A3.97 3.97 0 0 1 16 12a1 1 0 0 0-1 1 1 1 0 0 0 1 1c4.419 0 7.343-4.732 5.367-8.684-.988-1.976-2.867-3.088-4.83-3.265-1.602-.145-3.26.335-4.537 1.476A5.96 5.96 0 0 0 7.832 2.03z"/></svg>