<svg xmlns="http://www.w3.org/2000/svg" width="24" height="24" viewBox="0 0 24 24"><path d="M3.887 5a1 1 0 0 0-.176.098c-.467.043-.934.175-1.246.533a1.88 1.88 0 0 0-.455 1.392L2 14.998c0 .969.307 1.928.924 2.691a3.52 3.52 0 0 0 2.728 1.309h10.389A2.005 2.005 0 0 0 18 16.99v-.285l2.342 2.047A1 1 0 0 0 22 18V6a1 1 0 0 0-.58-.908 1 1 0 0 0-1.066.146L17.736 7.46C17.13 5.958 15.548 5 13.966 5zm.123 2h9.957C14.888 7 16 7.855 16 8.803v8.195H5.652c-.533 0-.881-.203-1.173-.564C4.186 16.072 4 15.53 4 15v-.002zM20 8.16v7.637l-1.988-1.738V9.848z"/></svg>