<svg xmlns="http://www.w3.org/2000/svg" width="24" height="24" viewBox="0 0 24 24"><path d="M10.016 2a8 8 0 0 0-1.09.07A8.07 8.07 0 0 0 4 4.686V4a1 1 0 0 0-1-1 1 1 0 0 0-1 1v4a1 1 0 0 0 1 1h4a1 1 0 0 0 1-1 1 1 0 0 0-1-1H4.771a6.01 6.01 0 0 1 6.625-2.83h.002a5.99 5.99 0 0 1 4.555 6.576A6 6 0 0 1 9.914 16h-.002a6.01 6.01 0 0 1-5.687-4.25 1 1 0 0 0-1.25-.662 1 1 0 0 0-.663 1.248A8.024 8.024 0 0 0 14.9 16.314l5.393 5.393a1 1 0 0 0 1.414 0 1 1 0 0 0 0-1.414l-5.395-5.395a7.97 7.97 0 0 0 1.625-3.904v-.002a8.013 8.013 0 0 0-6.072-8.767h-.002A8 8 0 0 0 10.016 2z"/></svg>