<svg xmlns="http://www.w3.org/2000/svg" width="28" height="28" viewBox="0 0 28 28"><path d="M17 3C11.106 3 6.518 8.198 7.248 14.047l.621 4.967A.997.997 0 0 0 8 21h12a1 1 0 0 0 0-2h-.34l-2.14-5h1.82c.744 0 1.375-.525 1.58-1.139a1.71 1.71 0 0 0-.467-1.761L17.11 7.697l.862-3.455A1 1 0 0 0 17 3zm-1.354 2.295-.613 2.463a1 1 0 0 0 .258.943L18.533 12h-2.53a1 1 0 0 0-.919 1.393l2.4 5.607H9.883l-.65-5.201c-.526-4.207 2.406-7.78 6.413-8.504zM13 8a1 1 0 0 0 0 2 1 1 0 0 0 0-2zM7 23a1 1 0 0 0 0 2h14a1 1 0 0 0 0-2z"/></svg>