<svg xmlns="http://www.w3.org/2000/svg" width="28" height="28" viewBox="0 0 28 28"><path d="M2.686 21.904c4.168 4.168 11.088 3.737 14.707-.915l3.073-3.951a.997.997 0 0 0 1.312-1.498l-8.485-8.485A1 1 0 0 0 11.88 8.47l.24.24-2.022 5.05-1.287-1.287c-.526-.527-1.343-.601-1.922-.312-.54.269-.947.895-.916 1.575l-.041 4.77-3.053 1.835a1 1 0 0 0-.192 1.564zm2.58-.665 2.175-1.308a1 1 0 0 0 .485-.85l.04-4.625 1.789 1.789a1 1 0 0 0 1.635-.334l2.268-5.663 5.375 5.375-3.218 4.138c-2.603 3.346-7.203 3.799-10.549 1.478zm3.784-.042a1 1 0 0 0 1.415-1.414 1 1 0 0 0-1.415 1.414Zm14.85-6.364a1 1 0 0 0 1.414-1.414l-9.9-9.9A1 1 0 0 0 14 4.935z"/></svg>