<svg xmlns="http://www.w3.org/2000/svg" width="28" height="28" viewBox="0 0 28 28"><path d="M4.174 23.82a4.015 4.015 0 0 0 5.657 0c.38-.35.604-.81.858-1.25q.134-.326.29-.637a1 1 0 0 0 .964-.243 1 1 0 0 0 .045-1.35 9 9 0 0 1 8.31-3.307c.952.133 1.525-1.02.847-1.698l-8.472-8.471c-.678-.679-1.83-.104-1.697.846a9 9 0 0 1-3.307 8.308c-.747-.62-1.85.079-1.608 1.019-.043.018-.126.098-.624.28a4 4 0 0 0-1.263.846 4.016 4.016 0 0 0 0 5.657m1.421-1.407a2.016 2.016 0 0 1 0-2.828 2.016 2.016 0 0 1 2.829 0 2.016 2.016 0 0 1 0 2.828 2.015 2.015 0 0 1-2.829 0m17.67-7.785c.944.943 2.358-.472 1.415-1.414l-9.9-9.9c-.942-.916-2.33.472-1.414 1.414z"/></svg>