<svg xmlns="http://www.w3.org/2000/svg" width="28" height="28" viewBox="0 0 28 28"><path d="M4.213 4.213q-.135.136-.254.281l-.018.021q-.063.079-.123.159c-.602.792-.875 1.703-.824 2.56.052.883.41 1.687.947 2.333l.076.09q.093.109.196.213.116.113.24.216.03.029.063.056l.002.002a4 4 0 0 0 .49.34q.219.135.454.245l.003.002c.224.091.41.232.602.365a1 1 0 0 0 .268.895 1 1 0 0 0 1.295.094c2.457 1.945 3.828 5.023 3.371 8.252a1 1 0 0 0 1.698.846l8.471-8.471a1 1 0 0 0-.847-1.697c-3.227.455-6.311-.907-8.257-3.36a1 1 0 0 0-.075-1.32 1 1 0 0 0-.912-.273c-.114-.177-.25-.336-.332-.536q-.027-.057-.055-.113a4 4 0 0 0-.558-.906 4 4 0 0 0-.477-.49l-.09-.076a4.03 4.03 0 0 0-2.333-.948 3.4 3.4 0 0 0-1.46.259 3.96 3.96 0 0 0-1.56.96Zm1.414 1.414q.075-.075.154-.14a1.98 1.98 0 0 1 2.675.14q.075.074.14.153a1.98 1.98 0 0 1-.14 2.675q-.074.075-.153.14a1.98 1.98 0 0 1-2.676-.14q-.074-.073-.139-.153a1.98 1.98 0 0 1 .14-2.675Zm3.464 5.021 1.544-1.544c1.868 2.245 4.56 3.566 7.491 3.823l-5.212 5.212c-.257-2.93-1.579-5.622-3.823-7.49zm4.315 12.657a1 1 0 0 0 0 1.414 1 1 0 0 0 1.414 0l9.9-9.9a1 1 0 0 0 0-1.414 1 1 0 0 0-1.415 0z"/></svg>