<svg xmlns="http://www.w3.org/2000/svg" width="28" height="28" viewBox="0 0 28 28"><path d="M3 13.993c0 2.198 1.803 4 4 4 .516.02 1-.146 1.49-.277q.326-.137.656-.246a1 1 0 0 0 .854.51 1 1 0 0 0 .986-.922 9 9 0 0 1 8.215 3.537c.579.767 1.799.358 1.799-.602V8.013c0-.96-1.221-1.368-1.799-.602a9 9 0 0 1-8.213 3.536c-.089-.967-1.364-1.253-1.857-.416-.043-.018-.158-.02-.64-.243A4 4 0 0 0 7 9.993c-2.197 0-4 1.803-4 4m2 .01c0-1.092.907-2 2-2s2 .908 2 2-.907 2-2 2-2-.907-2-2m18 6.99c0 1.333 2 1.333 2 0v-14c-.019-1.314-1.981-1.314-2 0z"/></svg>