<svg xmlns="http://www.w3.org/2000/svg" width="28" height="28" viewBox="0 0 28 28"><path d="M25 14q-.001-.192-.02-.379l-.001-.027q-.012-.1-.026-.2c-.134-.985-.586-1.823-1.226-2.392-.662-.588-1.484-.903-2.32-.98q-.06-.006-.118-.01A4 4 0 0 0 21 10a4 4 0 0 0-.322.016l-.084.006h-.004a4 4 0 0 0-.586.105 5 5 0 0 0-.494.148h-.004c-.223.095-.454.127-.684.168A1 1 0 0 0 18 10a1 1 0 0 0-.982.85c-3.113.362-6.259-.845-8.22-3.452A1 1 0 0 0 7 8v11.98a1 1 0 0 0 1.799.602c1.96-2.604 5.104-3.822 8.215-3.463A1 1 0 0 0 18 18a1 1 0 0 0 .838-.453c.205.045.413.061.613.144q.06.022.12.041a4 4 0 0 0 1.034.247 4 4 0 0 0 .684.01l.117-.01a4.03 4.03 0 0 0 2.32-.981c.362-.321.646-.737.85-1.215.27-.538.424-1.143.424-1.783zm-2 0q0 .106-.01.207A1.98 1.98 0 0 1 21 16q-.106 0-.207-.01A1.98 1.98 0 0 1 19 14q0-.106.01-.207A1.98 1.98 0 0 1 21 12q.106 0 .207.01A1.98 1.98 0 0 1 23 14zm-6-1.102v2.184c-2.908-.266-5.746.703-8 2.594v-7.371c2.254 1.89 5.092 2.86 8 2.593zM5 7a1 1 0 0 0-1-1 1 1 0 0 0-1 1v14a1 1 0 0 0 1 1 1 1 0 0 0 1-1z"/></svg>