<svg xmlns="http://www.w3.org/2000/svg" width="28" height="28" viewBox="0 0 28 28"><path d="M25 14.007c0-2.198-1.803-4-4-4-.516-.02-1 .146-1.49.277a10 10 0 0 1-.656.246 1 1 0 0 0-.854-.51 1 1 0 0 0-.986.922 9 9 0 0 1-8.215-3.537C8.22 6.638 7 7.047 7 8.007v11.98c0 .96 1.221 1.368 1.799.602a9 9 0 0 1 8.213-3.536c.089.967 1.364 1.253 1.857.416.043.018.158.02.64.243.462.187.965.295 1.491.295 2.197 0 4-1.803 4-4m-2-.01c0 1.092-.907 2-2 2s-2-.908-2-2 .907-2 2-2 2 .907 2 2M5 7.007c0-1.333-2-1.333-2 0v14c.019 1.314 1.981 1.314 2 0z"/></svg>