<svg xmlns="http://www.w3.org/2000/svg" width="28" height="28" viewBox="0 0 28 28"><path d="M6.379 21.64c.722.712 1.844.704 2.543.218.433-.3.661-.824.743-1.392l4.9-2.229v5.348c-.129.08-.302.06-.411.168l-.001.002c-.653.65-.728 1.643-.36 2.343.366.701 1.225 1.208 2.131 1.042.907-.167 1.532-.945 1.626-1.73.053-.447-.1-.9-.362-1.305l5.02-9.356a1 1 0 0 0 1.134-.187 1 1 0 0 0 .002-1.413l-.002-.001-8.485-8.485a1 1 0 0 0-1.605 1.143l-9.376 5.029c-.567-.355-1.24-.474-1.804-.24-.684.283-1.234.999-1.234 1.847 0 .849.55 1.565 1.234 1.848.685.284 1.58.166 2.18-.433l.002-.003c.109-.11.09-.283.169-.412H9.77l-2.197 4.83c-.443.047-.87.206-1.199.533l-.001.001a2.015 2.015 0 0 0 0 2.829l.006.003zm3.42-3.434 2.432-5.352a1 1 0 0 0-.91-1.413l-4.349.001 7.704-4.132 6.021 6.022-4.132 7.703v-4.35a1 1 0 0 0-1.413-.91zm5.06-5.057a1 1 0 0 0 1.413-1.414 1 1 0 0 0-1.414 1.414zm10.606-.707a1 1 0 0 0 1.414-1.414l-9.9-9.9c-.942-.916-2.33.472-1.414 1.415Z"/></svg>