<svg xmlns="http://www.w3.org/2000/svg" width="28" height="28" viewBox="0 0 28 28"><path d="M14 3c-1.093 0-2 .907-2 2v.002c0 .293.083.742.473 1.225l-1.864 4.968-3.68-3.68C7.274 6.248 6.291 5.004 5 5.004c-1.12 0-1.998.935-2 1.998v.002c0 .776.545 1.75 1.623 1.96l3.051 10.1A1 1 0 0 0 7 20a1 1 0 0 0 1 1h12c1.122-.005 1.386-1.57.328-1.943l3.049-10.094C24.441 8.755 25 7.798 25 7c0-1.093-.907-2-2-2s-2 .907-2 2q0 .252.072.514l-3.681 3.681-1.864-4.968c.41-.506.473-.98.473-1.225V5c0-1.298-1.138-2-2-2m0 12c1.333 0 1.333 2 0 2s-1.333-2 0-2m-7 8c-1.333 0-1.333 2 0 2h14c1.333 0 1.333-2 0-2z"/></svg>