<svg xmlns="http://www.w3.org/2000/svg" width="28" height="28" viewBox="0 0 28 28"><path d="M3.889 24.12q.218.217.491.357l.036.016a2 2 0 0 0 .537.176q.044.007.086.01a2 2 0 0 0 .608-.01 2 2 0 0 0 .545-.176l.028-.013q.276-.143.496-.36.036-.047.069-.095a2 2 0 0 0 .35-.57l3.258-.467a1 1 0 0 0 .567-.281c.958-.959 1.25-2.284 1.027-3.533l7.186-2.396.272.272c.943.942 2.357-.472 1.414-1.415L12.374 7.15c-.943-.943-2.357.472-1.414 1.414l.27.271-2.396 7.186c-1.249-.224-2.573.07-3.531 1.029a1 1 0 0 0-.283.564l-.2 1.406-.267 1.851a2 2 0 0 0-.579.358l-.086.06-.002.001a2 2 0 0 0-.43.645l-.006.019a2.04 2.04 0 0 0 0 1.502l.007.018a2 2 0 0 0 .43.645zm19.09-9.193c.943.916 2.33-.471 1.414-1.414l-9.9-9.9c-.942-.943-2.356.472-1.413 1.414z"/></svg>