<svg xmlns="http://www.w3.org/2000/svg" width="28" height="28" viewBox="0 0 28 28"><path d="M24.104 3.89c-.64-.635-1.61-.717-2.305-.368-.405.203-.698.586-.89 1.03l-3.309.473a1 1 0 0 0-.564.283c-.884.884-1.28 1.994-1.22 3.02.011.188.1.35.137.53L8.82 11.234l-.27-.27a1 1 0 0 0-1.415 1.414l.707.707 7.071 7.071.707.707a1 1 0 0 0 .96.247 1 1 0 0 0 .702-.701 1 1 0 0 0-.247-.96l-.271-.27 2.378-7.132c.18.037.341.125.53.136 1.026.06 2.136-.335 3.02-1.22a1 1 0 0 0 .283-.564l.472-3.31c.445-.19.827-.484 1.03-.889.349-.696.268-1.664-.369-2.305h-.004zm-2.59 2.596-.451 3.156c-.443.36-.865.57-1.272.545-.476-.028-.968-.263-1.341-.636-.373-.374-.609-.866-.637-1.341-.024-.408.186-.83.546-1.272Zm-4.75 4.208.272.27.27.271-2.121 6.364-4.784-4.784zm-11.75 2.392a1 1 0 0 0-1.404.01A1 1 0 0 0 3.6 14.5l9.9 9.9a1 1 0 0 0 1.661-.455 1 1 0 0 0-.247-.96z"/></svg>