<svg xmlns="http://www.w3.org/2000/svg" width="24" height="24" viewBox="0 0 24 24"><path d="M7 2.25A4.76 4.76 0 0 0 2.25 7v10A4.76 4.76 0 0 0 7 21.75h10A4.76 4.76 0 0 0 21.75 17V7A4.76 4.76 0 0 0 17 2.25zm0 1.5h10A3.24 3.24 0 0 1 20.25 7v10A3.24 3.24 0 0 1 17 20.25H7A3.24 3.24 0 0 1 3.75 17V7A3.24 3.24 0 0 1 7 3.75zm0 3.5a.75.75 0 0 0-.75.75v8a.75.75 0 0 0 .75.75.75.75 0 0 0 .75-.75v-3.25H9c1.51 0 2.75-1.24 2.75-2.75S10.51 7.25 9 7.25zm.75 1.5H9c.7 0 1.25.55 1.25 1.25S9.7 11.25 9 11.25H7.75zm7.25.5a2.26 2.26 0 0 0-2.25 2.25A2.26 2.26 0 0 0 15 13.75h.5c.423 0 .75.327.75.75s-.327.75-.75.75h-.383c-.403 0-.767-.226-.947-.586a.75.75 0 0 0-1.006-.334.75.75 0 0 0-.334 1.006 2.56 2.56 0 0 0 2.287 1.414h.383a2.26 2.26 0 0 0 2.25-2.25 2.26 2.26 0 0 0-2.25-2.25H15a.74.74 0 0 1-.75-.75c0-.423.327-.75.75-.75h.383c.403 0 .767.226.947.586a.75.75 0 0 0 1.006.334.75.75 0 0 0 .334-1.006 2.56 2.56 0 0 0-2.287-1.414z"/></svg>