<svg xmlns="http://www.w3.org/2000/svg" width="24" height="24" viewBox="0 0 24 24"><path d="M12 1.25a.75.75 0 0 0-.531.219l-2.5 2.5a.75.75 0 0 0 0 1.062l2.5 2.5a.75.75 0 0 0 1.062 0 .75.75 0 0 0 0-1.062l-1.16-1.16A6.736 6.736 0 0 1 17.25 12a6.74 6.74 0 0 1-6.75 6.75H2a.75.75 0 0 0-.75.75.75.75 0 0 0 .75.75h8.5c4.547 0 8.25-3.703 8.25-8.25 0-4.286-3.29-7.82-7.475-8.213l1.256-1.256a.75.75 0 0 0 0-1.062A.75.75 0 0 0 12 1.25zm-5.244 3.5a.75.75 0 0 0-.375.1A8.254 8.254 0 0 0 3.9 16.95a.75.75 0 0 0 1.048.149.75.75 0 0 0 .15-1.051A6.7 6.7 0 0 1 3.75 12a6.74 6.74 0 0 1 3.38-5.85.75.75 0 0 0 .276-1.025.75.75 0 0 0-.457-.35.8.8 0 0 0-.193-.025zm12.744 11a.75.75 0 0 0-.531.219.75.75 0 0 0 0 1.062l1.218 1.219H17.5a.75.75 0 0 0-.75.75.75.75 0 0 0 .75.75h2.688l-1.22 1.219a.75.75 0 0 0 0 1.062.75.75 0 0 0 1.063 0l2.5-2.5a.75.75 0 0 0 .194-.468L22.75 19a1 1 0 0 0-.025-.129 1 1 0 0 0-.02-.098.75.75 0 0 0-.174-.304l-2.5-2.5a.75.75 0 0 0-.531-.219z"/></svg>