<svg xmlns="http://www.w3.org/2000/svg" width="24" height="24" viewBox="0 0 24 24"><path d="M3 2.25a.75.75 0 0 0-.531.219.75.75 0 0 0 0 1.062l6.217 6.217-6.301 3.94c-.394.246-.635.68-.635 1.144v.9c0 .86.843 1.518 1.678 1.309l6.322-1.58v2.7l-2.11 1.845c-.476.417-.562 1.112-.326 1.601.237.49.834.856 1.457.743L12 21.764l3.229.586c.623.113 1.22-.253 1.457-.743.236-.49.15-1.184-.327-1.601L14.25 18.16v-2.7l.2.052 6.019 6.02a.75.75 0 0 0 1.062 0 .75.75 0 0 0 0-1.063l-18-18A.75.75 0 0 0 3 2.25zm9 0A2.26 2.26 0 0 0 9.75 4.5v3a.75.75 0 0 0 .75.75.75.75 0 0 0 .75-.75v-3c0-.423.327-.75.75-.75s.75.327.75.75v4.668c0 .464.241.898.635 1.145l7.365 4.603v.623l-1.818-.455a.75.75 0 0 0-.91.547.75.75 0 0 0 .546.908l2.004.502c.835.209 1.678-.448 1.678-1.309v-.9c0-.465-.241-.898-.635-1.145L14.25 9.085V4.5A2.26 2.26 0 0 0 12 2.25zm-2.225 8.588 3.434 3.433a1.33 1.33 0 0 0-.459.997v2.96c0 .39.168.76.46 1.016l1.75 1.531-2.718-.494q-.242-.044-.484 0l-2.719.494 1.75-1.53a1.35 1.35 0 0 0 .461-1.016v-2.961c0-.86-.843-1.518-1.678-1.309l-6.322 1.58v-.623z"/></svg>