<svg xmlns="http://www.w3.org/2000/svg" width="24" height="24" viewBox="0 0 24 24"><path d="M2.6 1.25A1.36 1.36 0 0 0 1.25 2.6v14.8c0 .737.613 1.35 1.35 1.35h14.8a1.36 1.36 0 0 0 1.35-1.35V2.6a1.36 1.36 0 0 0-1.35-1.35zm.15 1.5h14.5v14.5H2.75zm8.85 2.5a1.36 1.36 0 0 0-1.35 1.35v3.963c-.257-.103-.459-.313-.75-.313a2.26 2.26 0 0 0-2.25 2.25 2.26 2.26 0 0 0 2.25 2.25c1.027 0 1.762-.77 2.027-1.717a.75.75 0 0 0 .223-.533V6.75H13a.75.75 0 0 0 .75-.75.75.75 0 0 0-.75-.75zm10.4 2a.75.75 0 0 0-.75.75v13.25H8a.75.75 0 0 0-.75.75.75.75 0 0 0 .75.75h13.4a1.36 1.36 0 0 0 1.35-1.35V8a.75.75 0 0 0-.75-.75zm-12.5 4.5c.423 0 .75.327.75.75s-.327.75-.75.75a.74.74 0 0 1-.75-.75c0-.423.327-.75.75-.75z"/></svg>