<svg xmlns="http://www.w3.org/2000/svg" width="24" height="24" viewBox="0 0 24 24"><path d="M2 11.25a.75.75 0 0 0-.75.75.75.75 0 0 0 .75.75h20a.75.75 0 0 0 .75-.75.75.75 0 0 0-.75-.75Z"/><path d="M8 19V5a2 2 0 0 1 2-2h4a2 2 0 0 1 2 2v14a2 2 0 0 1-2 2h-4a2 2 0 0 1-2-2Z"/><path d="M10 2.25C8.49 2.25 7.25 3.49 7.25 5v14c0 1.51 1.24 2.75 2.75 2.75h4c1.51 0 2.75-1.24 2.75-2.75V5c0-1.51-1.24-2.75-2.75-2.75Zm0 1.5h4c.7 0 1.25.55 1.25 1.25v14c0 .7-.55 1.25-1.25 1.25h-4c-.7 0-1.25-.55-1.25-1.25V5c0-.7.55-1.25 1.25-1.25Z"/></svg>