<svg xmlns="http://www.w3.org/2000/svg" width="24" height="24" viewBox="0 0 24 24"><path d="M4.04 7.25a.75.75 0 0 0-.542.191.75.75 0 0 0-.055 1.061l.01.01a.75.75 0 0 0 1.059.056.75.75 0 0 0 .056-1.058l-.011-.012a.75.75 0 0 0-.518-.248Zm0-4a.75.75 0 0 0-.542.191.75.75 0 0 0-.055 1.061l.01.01a.75.75 0 0 0 1.059.056.75.75 0 0 0 .056-1.058l-.011-.012a.75.75 0 0 0-.518-.248Zm4 0a.75.75 0 0 0-.542.191.75.75 0 0 0-.055 1.061l.01.01a.75.75 0 0 0 1.059.056.75.75 0 0 0 .056-1.058l-.011-.012a.75.75 0 0 0-.518-.248Zm4 0a.75.75 0 0 0-.542.191.75.75 0 0 0-.055 1.061l.01.01a.75.75 0 0 0 1.059.056.75.75 0 0 0 .056-1.058l-.011-.012a.75.75 0 0 0-.518-.248Zm3.458.191a.75.75 0 0 0-.055 1.061l.01.01a.75.75 0 0 0 1.059.056.75.75 0 0 0 .056-1.058l-.011-.012a.75.75 0 0 0-1.059-.057zm4.542-.191a.75.75 0 0 0-.542.191.75.75 0 0 0-.055 1.061l.01.01a.75.75 0 0 0 1.059.056.75.75 0 0 0 .056-1.058l-.011-.012a.75.75 0 0 0-.518-.248Zm0 4a.75.75 0 0 0-.542.191.75.75 0 0 0-.055 1.061l.01.01a.75.75 0 0 0 1.059.056.75.75 0 0 0 .056-1.058l-.011-.012a.75.75 0 0 0-.518-.248ZM4 12v8h16v-8z"/><path d="M4 11.25a.75.75 0 0 0-.75.75v8a.75.75 0 0 0 .75.75h16a.75.75 0 0 0 .75-.75v-8a.75.75 0 0 0-.75-.75Zm.75 1.5h14.5v6.5H4.75Z"/></svg>