<svg xmlns="http://www.w3.org/2000/svg" width="24" height="24" viewBox="0 0 24 24"><path d="m7.514 19.438-.01.01a.75.75 0 0 0-.057 1.058.75.75 0 0 0 1.06.057l.01-.01a.75.75 0 0 0 .057-1.06.75.75 0 0 0-1.06-.055Zm-4 0-.01.01a.75.75 0 0 0-.057 1.058.75.75 0 0 0 1.06.057l.01-.01a.75.75 0 0 0 .057-1.06.75.75 0 0 0-1.06-.055Zm.541-4.192a.75.75 0 0 0-.541.191l-.01.01a.75.75 0 0 0-.057 1.059.75.75 0 0 0 1.06.057l.01-.01a.75.75 0 0 0 .057-1.06.75.75 0 0 0-.52-.247zm0-4a.75.75 0 0 0-.541.191l-.01.01a.75.75 0 0 0-.057 1.059.75.75 0 0 0 1.06.057l.01-.01a.75.75 0 0 0 .057-1.06.75.75 0 0 0-.52-.247zm0-4a.75.75 0 0 0-.541.191l-.01.01a.75.75 0 0 0-.057 1.059.75.75 0 0 0 1.06.056l.01-.01a.75.75 0 0 0 .057-1.06.75.75 0 0 0-.52-.246Zm0-4a.75.75 0 0 0-.541.192l-.01.01a.75.75 0 0 0-.057 1.058.75.75 0 0 0 1.06.056l.01-.01a.75.75 0 0 0 .057-1.06.75.75 0 0 0-.52-.246Zm3.459.192-.01.01a.75.75 0 0 0-.057 1.058.75.75 0 0 0 1.06.056l.01-.01a.75.75 0 0 0 .057-1.06.75.75 0 0 0-1.06-.054Zm4.491 16.567h8v-16h-8z"/><path d="M12.006 3.254a.75.75 0 0 0-.75.75v16.002a.75.75 0 0 0 .75.75h8a.75.75 0 0 0 .75-.75V4.004a.75.75 0 0 0-.75-.75zm.75 1.5h6.5v14.502h-6.5z"/></svg>