<svg xmlns="http://www.w3.org/2000/svg" width="24" height="24" viewBox="0 0 24 24"><path d="M17.5 7.25a.75.75 0 0 0-.531.219.75.75 0 0 0 0 1.062S18.25 9.8 18.25 12s-1.281 3.469-1.281 3.469a.75.75 0 0 0 0 1.062.75.75 0 0 0 1.062 0S19.75 14.8 19.75 12s-1.719-4.531-1.719-4.531a.75.75 0 0 0-.531-.219Z"/><path d="M20.5 4.25a.75.75 0 0 0-.531.219.75.75 0 0 0 0 1.062S22.25 7.778 22.25 12s-2.281 6.469-2.281 6.469a.75.75 0 0 0 0 1.062.75.75 0 0 0 1.062 0S23.75 16.778 23.75 12s-2.719-7.531-2.719-7.531a.75.75 0 0 0-.531-.219Zm-14 3a.75.75 0 0 0-.531.219S4.25 9.2 4.25 12s1.719 4.531 1.719 4.531a.75.75 0 0 0 1.062 0 .75.75 0 0 0 0-1.062S5.75 14.2 5.75 12s1.281-3.469 1.281-3.469a.75.75 0 0 0 0-1.062.75.75 0 0 0-.531-.219Z"/><path d="M3.5 4.25a.75.75 0 0 0-.531.219S.25 7.222.25 12s2.719 7.531 2.719 7.531a.75.75 0 0 0 1.062 0 .75.75 0 0 0 0-1.062S1.75 16.222 1.75 12s2.281-6.469 2.281-6.469a.75.75 0 0 0 0-1.062.75.75 0 0 0-.531-.219ZM12 13a1 1 0 1 0 0-2 1 1 0 0 0 0 2z"/><path d="M12 10.25c-.958 0-1.75.792-1.75 1.75s.792 1.75 1.75 1.75 1.75-.792 1.75-1.75-.792-1.75-1.75-1.75zm0 1.5a.24.24 0 0 1 .25.25.24.24 0 0 1-.25.25.24.24 0 0 1-.25-.25.24.24 0 0 1 .25-.25z"/></svg>