<svg xmlns="http://www.w3.org/2000/svg" width="24" height="24" viewBox="0 0 24 24"><path d="M9 1.25a.75.75 0 0 0-.75.75.75.75 0 0 0 .75.75c.875 0 1.364.194 1.69.56.247.279.441.733.52 1.438-1.194-.372-2.295-.647-3.304-.764-1.23-.142-2.282-.046-3.156.391-.84.42-1.564 1.227-2.031 2.453S2 9.708 2 12c0 4.513 1.273 7.269 3.125 8.75C6.986 22.24 9.482 22.504 12 22c2.518.504 5.014.24 6.875-1.25C20.727 19.269 22 16.513 22 12c0-2.273-.31-3.939-.86-5.174-.549-1.235-1.368-2.032-2.265-2.451-.952-.444-2.03-.545-3.19-.406-.941.113-1.94.389-2.968.761-.089-.994-.366-1.807-.906-2.416C11.136 1.556 10.125 1.25 9 1.25zM7 5.426q.338.003.734.049c.986.113 2.173.424 3.516.86v14.276c-2.05.325-3.868.023-5.187-1.033C4.653 18.451 3.5 16.235 3.5 12c0-2.18.252-3.672.621-4.639s.812-1.4 1.299-1.644c.386-.193.901-.3 1.58-.291zm9.535.011c.668-.014 1.244.082 1.705.297.573.267 1.1.74 1.53 1.704s.73 2.428.73 4.562c0 4.235-1.153 6.45-2.562 7.578-1.32 1.056-3.138 1.358-5.188 1.033V6.321c1.422-.552 2.72-.86 3.785-.883zM15 11.25a.75.75 0 0 0-.75.75v2a.75.75 0 0 0 .75.75.75.75 0 0 0 .75-.75v-2a.75.75 0 0 0-.75-.75z"/></svg>