<svg xmlns="http://www.w3.org/2000/svg" width="24" height="24" viewBox="0 0 24 24"><path d="M5 2.25C3.49 2.25 2.25 3.49 2.25 5v14c0 1.51 1.24 2.75 2.75 2.75h14c1.51 0 2.75-1.24 2.75-2.75V5c0-1.51-1.24-2.75-2.75-2.75zm0 1.5h14c.7 0 1.25.55 1.25 1.25v1.25H3.75V5c0-.7.55-1.25 1.25-1.25zm-1.25 4h16.5v2.5H3.75zm0 4h16.5v2.5H14.6c-.752 0-1.197.531-1.424.998-.104.213-.237.502-1.176.502-.94 0-1.072-.289-1.176-.502-.227-.467-.672-.998-1.424-.998H3.75zm0 4H9.4c-.088 0 .014.025.077.154.308.633 1.15 1.346 2.523 1.346 1.372 0 2.215-.713 2.523-1.346.063-.129.165-.154.077-.154h5.65V19c0 .7-.55 1.25-1.25 1.25H5c-.7 0-1.25-.55-1.25-1.25z"/></svg>