<svg xmlns="http://www.w3.org/2000/svg" width="24" height="24" viewBox="0 0 24 24"><path d="M16 .75c-1.806 0-3.244 1.468-4.213 3.502-.887 1.862-1.439 4.3-1.525 6.998h-1.95l-1.78-1.781A.75.75 0 0 0 6 9.25H2a.75.75 0 0 0-.531 1.281L2.938 12l-1.47 1.469A.75.75 0 0 0 2 14.75h4a.75.75 0 0 0 .531-.219l1.782-1.781h1.949c.086 2.698.638 5.136 1.525 6.998.969 2.034 2.407 3.502 4.213 3.502s3.244-1.468 4.213-3.502S21.75 14.996 21.75 12s-.569-5.714-1.537-7.748C19.244 2.218 17.806.75 16 .75zm0 1.5c.955 0 2.016.882 2.857 2.648S20.25 9.197 20.25 12s-.551 5.335-1.393 7.102c-.84 1.766-1.902 2.648-2.857 2.648s-2.016-.882-2.857-2.648c-.766-1.608-1.29-3.85-1.38-6.352h3.425l-.72.719a.75.75 0 0 0 0 1.062.75.75 0 0 0 1.063 0l2-2a.75.75 0 0 0 .194-.338 1 1 0 0 0 0-.13L17.75 12a1 1 0 0 0-.025-.129 1 1 0 0 0-.02-.098.75.75 0 0 0-.174-.304l-2-2a.75.75 0 0 0-1.062 0 .75.75 0 0 0 0 1.062l.719.719h-3.424c.088-2.502.613-4.744 1.379-6.352.84-1.766 1.902-2.648 2.857-2.648zm-12.187 8.5h1.876L6.938 12l-1.249 1.25H3.813l.718-.719a.75.75 0 0 0 0-1.062z"/></svg>