<svg xmlns="http://www.w3.org/2000/svg" width="24" height="24" viewBox="0 0 24 24"><path d="M12 2.25a.75.75 0 0 0-.37.098l-.015.011a1 1 0 0 0-.138.104l-2.25 2.193a.75.75 0 0 0-.014 1.06.75.75 0 0 0 1.06.014l.977-.953v7.686l-7.125 5.232.172-.834a.75.75 0 0 0-.584-.886.75.75 0 0 0-.885.584L2.266 19.3a.8.8 0 0 0-.01.215l.006.037a.75.75 0 0 0 .125.32l.008.022.011.01a.75.75 0 0 0 .287.23l.002.002.01.004a1 1 0 0 0 .152.047l2.813.548a.75.75 0 0 0 .879-.593.75.75 0 0 0-.594-.88l-1.13-.22L12 13.773l7.176 5.27-1.131.22a.75.75 0 0 0-.594.88.75.75 0 0 0 .88.593l2.812-.549a1 1 0 0 0 .152-.046l.014-.006a.75.75 0 0 0 .29-.235l.006-.005.018-.028.041-.066.016-.033a1 1 0 0 0 .04-.108l.009-.033.015-.082.002-.027a1 1 0 0 0 .002-.116l-.002-.01a1 1 0 0 0-.012-.091l-.562-2.742a.75.75 0 0 0-.885-.584.75.75 0 0 0-.584.886l.172.834-7.125-5.232V4.777l.977.953a.75.75 0 0 0 1.06-.013.75.75 0 0 0-.014-1.06l-2.25-2.194-.015-.012a.75.75 0 0 0-.299-.168l-.035-.01A1 1 0 0 0 12 2.25z"/></svg>