<svg xmlns="http://www.w3.org/2000/svg" width="24" height="24" viewBox="0 0 24 24"><path d="M6.6 2.25A1.36 1.36 0 0 0 5.25 3.6V10a.75.75 0 0 0 .75.75.75.75 0 0 0 .75-.75V3.75h10.5V10a.75.75 0 0 0 .75.75.75.75 0 0 0 .75-.75V3.6a1.36 1.36 0 0 0-1.35-1.35zm-4.6 10a.75.75 0 0 0-.75.75.75.75 0 0 0 .75.75h1.25v6.5H2a.75.75 0 0 0-.75.75.75.75 0 0 0 .75.75h20a.75.75 0 0 0 .75-.75.75.75 0 0 0-.75-.75h-1.25v-6.5H22a.75.75 0 0 0 .75-.75.75.75 0 0 0-.75-.75zm2.75 1.5h2.5v6.5h-2.5zm4 0h2.5v6.5h-2.5zm4 0h2.5v6.5h-2.5zm4 0h2.5v6.5h-2.5z"/></svg>