<svg xmlns="http://www.w3.org/2000/svg" width="24" height="24" viewBox="0 0 24 24"><path d="M12 2.25c-1.814 0-3.062.967-3.738 2.059-.677 1.09-.887 2.285-.967 3.011-.085.768.568 1.43 1.305 1.43h6.8c.737 0 1.39-.662 1.305-1.43-.08-.726-.29-1.92-.967-3.011a4.5 4.5 0 0 0-.41-.559H17A3.24 3.24 0 0 1 20.25 7v5.25H3.6a1.36 1.36 0 0 0-1.35 1.35V16a4.76 4.76 0 0 0 4.54 4.744l-.46.92a.75.75 0 0 0 .334 1.006.75.75 0 0 0 1.006-.334l.793-1.586h7.074l.793 1.586a.75.75 0 0 0 1.006.334.75.75 0 0 0 .334-1.006l-.46-.92A4.76 4.76 0 0 0 21.75 16V7A4.76 4.76 0 0 0 17 2.25zm0 1.5c1.323 0 1.982.571 2.465 1.35.435.701.59 1.542.676 2.15H8.859c.085-.608.241-1.449.676-2.15.483-.779 1.142-1.35 2.465-1.35zm-8.25 10h16.5V16A3.24 3.24 0 0 1 17 19.25H7A3.24 3.24 0 0 1 3.75 16z"/></svg>