<svg xmlns="http://www.w3.org/2000/svg" width="24" height="24" viewBox="0 0 24 24"><path d="M12 1.25c-1.803 0-3.528.766-4.79 2.111-1.26 1.345-1.96 3.156-1.96 5.04 0 3.632-.727 5.905-1.418 7.257-.346.676-.683 1.124-.924 1.395-.24.27-.344.336-.344.336A.75.75 0 0 0 3 18.75h18a.75.75 0 0 0 .436-1.361s-.42-.277-1.006-1.258c-.587-.982-1.27-2.62-1.551-5.211a.75.75 0 0 0-.826-.666.75.75 0 0 0-.664.826c.301 2.784 1.05 4.646 1.752 5.82.143.24.152.162.29.35H4.563c.205-.293.39-.488.606-.908C5.977 14.76 6.75 12.234 6.75 8.4c0-1.51.565-2.958 1.555-4.013C9.295 3.33 10.62 2.75 12 2.75q.439 0 .867.078a.75.75 0 0 0 .871-.605.75.75 0 0 0-.605-.871A6.4 6.4 0 0 0 12 1.25zm7 0A3.76 3.76 0 0 0 15.25 5 3.76 3.76 0 0 0 19 8.75 3.76 3.76 0 0 0 22.75 5 3.76 3.76 0 0 0 19 1.25zm0 1.5c1.252 0 2.25.998 2.25 2.25S20.252 7.25 19 7.25A2.24 2.24 0 0 1 16.75 5c0-1.252.998-2.25 2.25-2.25zm-8.682 17.502a.75.75 0 0 0-.423.1.75.75 0 0 0-.274 1.025A2.75 2.75 0 0 0 12 22.747a2.75 2.75 0 0 0 2.379-1.37.75.75 0 0 0-.274-1.025.75.75 0 0 0-1.023.271c-.11.19-.267.348-.457.457h-.002a1.25 1.25 0 0 1-1.246 0c-.19-.11-.35-.268-.459-.457a.75.75 0 0 0-.455-.348 1 1 0 0 0-.145-.023z"/></svg>