<svg xmlns="http://www.w3.org/2000/svg" width="24" height="24" viewBox="0 0 24 24"><path d="M11.842 2.268a.75.75 0 0 0-.29.13s-1.304.97-2.609 2.409S6.25 8.169 6.25 10.313c0 1.923.497 3.54 1.504 4.685.527.6 1.187 1.05 1.947 1.344.715.336 1.53.408 2.375.408.655 0 1.244-.076 1.768-.252l.097-.031.006-.002a5 5 0 0 0 2.3-1.467c1.006-1.145 1.503-2.762 1.503-4.685 0-2.144-1.389-4.067-2.693-5.506s-2.61-2.409-2.61-2.409a.75.75 0 0 0-.605-.13zM12 4.016c.33.258.971.726 1.943 1.798 1.196 1.32 2.307 3.052 2.307 4.499 0 1.157-.205 2.101-.566 2.84-.147-.765-.504-1.606-1.036-2.528a.75.75 0 0 0-1.209-.125c-.602.671-.96.74-.984.738s-.118-.039-.26-.392c-.283-.708-.277-2.26-.168-2.639a.75.75 0 0 0-.78-.953.75.75 0 0 0-.59.371c-1.006 1.743-2.098 3.49-2.352 5.506-.355-.735-.555-1.673-.555-2.818 0-1.447 1.111-3.18 2.307-4.499.972-1.072 1.613-1.54 1.943-1.798zm-1.328 6.757c.055.21.05.43.13.631.243.605.727 1.256 1.52 1.326.488.044.939-.172 1.387-.496.45 1.042.602 1.852.443 2.22-.101.234-.26.4-.591.548a2.3 2.3 0 0 1-.356.121 5.4 5.4 0 0 1-1.17.127 7 7 0 0 1-.701-.037 4.6 4.6 0 0 1-.857-.176 2 2 0 0 1-.221-.094c-.363-.194-.506-.352-.506-.943 0-1.078.396-2.141.922-3.227zM4.234 16.18a.75.75 0 0 0-.685.554.75.75 0 0 0 .53.92L9.101 19l-5.024 1.346a.75.75 0 0 0-.53.918.75.75 0 0 0 .919.53l15.455-4.14a.75.75 0 0 0 .53-.92.75.75 0 0 0-.919-.529L12 18.223l-7.533-2.018a.8.8 0 0 0-.233-.025zm11.659 3.105a.75.75 0 0 0-.754.557.75.75 0 0 0 .53.918l3.864 1.035a.75.75 0 0 0 .918-.531.75.75 0 0 0-.53-.918L16.06 19.31a1 1 0 0 0-.166-.026z"/></svg>