<svg xmlns="http://www.w3.org/2000/svg" width="24" height="24" viewBox="0 0 24 24"><path d="M4 3.25a.75.75 0 0 0-.75.75v16a.75.75 0 0 0 .75.75.75.75 0 0 0 .75-.75V4A.75.75 0 0 0 4 3.25zm11.994 0a.75.75 0 0 0-.486.193l-.012.01a.75.75 0 0 0-.055 1.059.75.75 0 0 0 1.059.054l.012-.01a.75.75 0 0 0 .054-1.058.75.75 0 0 0-.572-.248zm-7.945.002a.75.75 0 0 0-.541.191l-.01.01a.75.75 0 0 0-.057 1.059.75.75 0 0 0 1.059.056l.012-.011a.75.75 0 0 0 .056-1.059.75.75 0 0 0-.52-.246zm4 0a.75.75 0 0 0-.541.191l-.012.01a.75.75 0 0 0-.055 1.059.75.75 0 0 0 1.059.054l.012-.01a.75.75 0 0 0 .054-1.058.75.75 0 0 0-.517-.246zm8 0a.75.75 0 0 0-.541.191l-.012.01a.75.75 0 0 0-.055 1.059.75.75 0 0 0 1.059.054l.012-.01a.75.75 0 0 0 .054-1.058.75.75 0 0 0-.517-.246zm0 4a.75.75 0 0 0-.541.191l-.012.01a.75.75 0 0 0-.055 1.059.75.75 0 0 0 1.059.054l.012-.01a.75.75 0 0 0 .054-1.058.75.75 0 0 0-.517-.246zm-8 4a.75.75 0 0 0-.541.191l-.012.01a.75.75 0 0 0-.055 1.059.75.75 0 0 0 1.059.054l.012-.01a.75.75 0 0 0 .054-1.058.75.75 0 0 0-.517-.246zm8 0a.75.75 0 0 0-.541.191l-.012.01a.75.75 0 0 0-.055 1.059.75.75 0 0 0 1.059.054l.012-.01a.75.75 0 0 0 .054-1.058.75.75 0 0 0-.517-.246zm-.055 3.998a.75.75 0 0 0-.486.193l-.012.01a.75.75 0 0 0-.055 1.059.75.75 0 0 0 1.059.054l.012-.01a.75.75 0 0 0 .054-1.058.75.75 0 0 0-.572-.248zm0 4a.75.75 0 0 0-.486.193l-.012.01a.75.75 0 0 0-.055 1.059.75.75 0 0 0 1.059.054l.012-.01a.75.75 0 0 0 .054-1.058.75.75 0 0 0-.572-.248zm-11.945.002a.75.75 0 0 0-.541.191l-.01.01a.75.75 0 0 0-.057 1.059.75.75 0 0 0 1.059.056l.012-.011a.75.75 0 0 0 .056-1.059.75.75 0 0 0-.52-.246zm4 0a.75.75 0 0 0-.541.191l-.012.01a.75.75 0 0 0-.055 1.059.75.75 0 0 0 1.059.054l.012-.01a.75.75 0 0 0 .054-1.058.75.75 0 0 0-.517-.246zm4 0a.75.75 0 0 0-.541.191l-.012.01a.75.75 0 0 0-.055 1.059.75.75 0 0 0 1.059.054l.012-.01a.75.75 0 0 0 .054-1.058.75.75 0 0 0-.517-.246z"/></svg>