<svg xmlns="http://www.w3.org/2000/svg" width="24" height="24" viewBox="0 0 24 24"><path d="M4.01 3.25a.75.75 0 0 0-.75.75.75.75 0 0 0 .75.75h15.25V20a.75.75 0 0 0 .75.75.75.75 0 0 0 .75-.75V4a.75.75 0 0 0-.75-.75zm.04 3.99a.75.75 0 0 0-.54.192l-.012.011a.75.75 0 0 0-.057 1.059.75.75 0 0 0 1.061.055l.01-.01a.75.75 0 0 0 .056-1.059.75.75 0 0 0-.517-.248zm0 4a.75.75 0 0 0-.54.192l-.012.011a.75.75 0 0 0-.057 1.059.75.75 0 0 0 1.061.055l.01-.01a.75.75 0 0 0 .056-1.059.75.75 0 0 0-.517-.248zm0 4a.75.75 0 0 0-.54.192l-.012.011a.75.75 0 0 0-.057 1.059.75.75 0 0 0 1.061.055l.01-.01a.75.75 0 0 0 .056-1.059.75.75 0 0 0-.517-.248zm0 4a.75.75 0 0 0-.54.192l-.012.011a.75.75 0 0 0-.057 1.059.75.75 0 0 0 1.061.055l.01-.01a.75.75 0 0 0 .056-1.059.75.75 0 0 0-.517-.248zm3.948 0a.75.75 0 0 0-.488.192l-.012.011a.75.75 0 0 0-.057 1.059.75.75 0 0 0 1.061.055l.01-.01a.75.75 0 0 0 .056-1.059.75.75 0 0 0-.57-.248zm4.053 0a.75.75 0 0 0-.541.194l-.012.01a.75.75 0 0 0-.055 1.058.75.75 0 0 0 1.059.055l.012-.01a.75.75 0 0 0 .054-1.059.75.75 0 0 0-.517-.248zm4 0a.75.75 0 0 0-.541.194l-.012.01a.75.75 0 0 0-.055 1.058.75.75 0 0 0 1.059.055l.012-.01a.75.75 0 0 0 .054-1.059.75.75 0 0 0-.517-.248z"/></svg>