<svg xmlns="http://www.w3.org/2000/svg" width="24" height="24" viewBox="0 0 24 24"><path d="M12 1.25C6.072 1.25 1.25 6.072 1.25 12c0 1.837.496 3.554 1.31 5.068l-.798 4.295a.75.75 0 0 0 .875.875l4.295-.799c1.514.815 3.23 1.311 5.068 1.311 5.928 0 10.75-4.822 10.75-10.75q0-.543-.053-1.074a.75.75 0 0 0-.82-.672.75.75 0 0 0-.672.82q.045.456.045.926A9.24 9.24 0 0 1 12 21.25a9.2 9.2 0 0 1-4.625-1.236.75.75 0 0 0-.512-.088l-3.426.637.637-3.426a.75.75 0 0 0-.088-.512A9.2 9.2 0 0 1 2.75 12 9.24 9.24 0 0 1 12 2.75q.469 0 .926.045a.75.75 0 0 0 .82-.672.75.75 0 0 0-.672-.82A11 11 0 0 0 12 1.25zm6.5 0a3.26 3.26 0 0 0-3.25 3.25 3.26 3.26 0 0 0 3.25 3.25c.622 0 1.209-.176 1.705-.482L21.47 8.53a.75.75 0 0 0 1.062 0 .75.75 0 0 0 0-1.062l-1.263-1.264A3.24 3.24 0 0 0 21.75 4.5a3.26 3.26 0 0 0-3.25-3.25zm0 1.5c.975 0 1.75.775 1.75 1.75 0 .487-.195.919-.512 1.236a1.73 1.73 0 0 1-1.238.514c-.975 0-1.75-.775-1.75-1.75s.775-1.75 1.75-1.75z"/></svg>