<svg xmlns="http://www.w3.org/2000/svg" width="24" height="24" viewBox="0 0 24 24"><path d="M12 1.25C6.072 1.25 1.25 6.072 1.25 12c0 1.837.496 3.554 1.31 5.068l-.798 4.295a.75.75 0 0 0 .875.875l4.295-.799c1.514.815 3.23 1.311 5.068 1.311 5.928 0 10.75-4.822 10.75-10.75q0-.543-.053-1.074a.75.75 0 0 0-.82-.672.75.75 0 0 0-.672.82q.045.456.045.926A9.24 9.24 0 0 1 12 21.25a9.2 9.2 0 0 1-4.625-1.236.75.75 0 0 0-.512-.088l-3.426.637.637-3.426a.75.75 0 0 0-.088-.512A9.2 9.2 0 0 1 2.75 12 9.24 9.24 0 0 1 12 2.75q.469 0 .926.045a.75.75 0 0 0 .82-.672.75.75 0 0 0-.672-.82A11 11 0 0 0 12 1.25zm5.121 1.121a.75.75 0 0 0-.531.22.75.75 0 0 0 0 1.061l1.592 1.59-1.592 1.592a.75.75 0 0 0 0 1.06.75.75 0 0 0 1.062 0l1.59-1.59 1.592 1.59a.75.75 0 0 0 1.06 0 .75.75 0 0 0 0-1.06l-1.59-1.592 1.59-1.59a.75.75 0 0 0 0-1.06.75.75 0 0 0-1.06 0l-1.592 1.592-1.59-1.592a.75.75 0 0 0-.53-.22z"/></svg>