<svg xmlns="http://www.w3.org/2000/svg" width="24" height="24" viewBox="0 0 24 24"><path d="M7.318 3.25a2.75 2.75 0 0 0-2.527 1.666l-2.318 5.412a2.7 2.7 0 0 0-.223 1.082v8.99c0 .737.613 1.35 1.35 1.35h2.8a1.36 1.36 0 0 0 1.35-1.35v-1.65h8.5v1.65c0 .737.613 1.35 1.35 1.35h2.8a1.36 1.36 0 0 0 1.35-1.35v-8.99c0-.372-.076-.74-.223-1.082L19.21 4.916a2.75 2.75 0 0 0-2.527-1.666zm0 1.5h9.364c.502 0 .95.296 1.148.758l2.318 5.41c.067.155.102.323.102.492v5.84H3.75v-5.84c0-.17.035-.337.102-.492l2.318-5.41a1.25 1.25 0 0 1 1.148-.758zM8 9.25a.75.75 0 0 0-.75.75.75.75 0 0 0 .75.75h8a.75.75 0 0 0 .75-.75.75.75 0 0 0-.75-.75zm-1 4a.75.75 0 0 0-.75.75.75.75 0 0 0 .75.75h1a.75.75 0 0 0 .75-.75.75.75 0 0 0-.75-.75zm9 0a.75.75 0 0 0-.75.75.75.75 0 0 0 .75.75h1a.75.75 0 0 0 .75-.75.75.75 0 0 0-.75-.75zm-12.25 5.5h2.5v1.5h-2.5zm14 0h2.5v1.5h-2.5z"/></svg>