<svg xmlns="http://www.w3.org/2000/svg" width="24" height="24" viewBox="0 0 24 24"><path d="M4 4.25C2.49 4.25 1.25 5.49 1.25 7v10c0 1.51 1.24 2.75 2.75 2.75h10a.75.75 0 0 0 .75-.75.75.75 0 0 0-.75-.75H4c-.7 0-1.25-.55-1.25-1.25V7c0-.7.55-1.25 1.25-1.25h16c.7 0 1.25.55 1.25 1.25v1.25H6a.75.75 0 0 0-.75.75.75.75 0 0 0 .75.75h15.25V13a.75.75 0 0 0 .75.75.75.75 0 0 0 .75-.75V7c0-1.51-1.24-2.75-2.75-2.75zm15.5 10c-.885 0-1.587.451-1.951.982a2.66 2.66 0 0 0-.465 1.518v1.217c-.462.216-.834.596-.834 1.133v2.3c0 .737.613 1.35 1.35 1.35h3.8a1.36 1.36 0 0 0 1.35-1.35v-2.3c0-.537-.372-.917-.834-1.133V16.75c0-.435-.1-.986-.465-1.518-.364-.53-1.066-.982-1.951-.982zm0 1.5c.448 0 .58.132.715.33.136.198.201.521.201.67v1h-1.832v-1c0-.149.065-.472.201-.67s.267-.33.715-.33zm-1.75 3.5h3.5v2h-3.5z"/></svg>