<svg xmlns="http://www.w3.org/2000/svg" width="24" height="24" viewBox="0 0 24 24"><path d="M12 1.25C6.072 1.25 1.25 6.072 1.25 12c0 1.837.496 3.554 1.31 5.068l-.798 4.295a.75.75 0 0 0 .875.875l4.295-.799c1.514.815 3.23 1.311 5.068 1.311 5.928 0 10.75-4.822 10.75-10.75S17.928 1.25 12 1.25zm0 1.5A9.24 9.24 0 0 1 21.25 12 9.24 9.24 0 0 1 12 21.25a9.2 9.2 0 0 1-4.625-1.236.75.75 0 0 0-.512-.088l-3.426.637.637-3.426a.75.75 0 0 0-.088-.512A9.2 9.2 0 0 1 2.75 12 9.24 9.24 0 0 1 12 2.75zm-.25 2.875c-.847 0-1.703.263-2.375.834C8.703 7.029 8.25 7.929 8.25 9a.75.75 0 0 0 .75.75.75.75 0 0 0 .75-.75c0-.679.235-1.092.594-1.396.359-.305.878-.479 1.406-.479s1.047.174 1.406.479c.36.304.594.717.594 1.396 0 1-.356 1.175-1.002 1.756-.645.58-1.498 1.536-1.498 3.244a.75.75 0 0 0 .75.75.75.75 0 0 0 .75-.75c0-1.292.397-1.587 1.002-2.13.604-.545 1.498-1.37 1.498-2.87 0-1.071-.453-1.97-1.125-2.541-.672-.57-1.528-.834-2.375-.834zm.22 11.625a.75.75 0 0 0-.517.246l-.01.012a.75.75 0 0 0 .055 1.058.75.75 0 0 0 1.059-.054l.01-.012a.75.75 0 0 0-.055-1.059.75.75 0 0 0-.541-.191z"/></svg>