<svg xmlns="http://www.w3.org/2000/svg" width="24" height="24" viewBox="0 0 24 24"><path d="M12 1.25C6.072 1.25 1.25 6.072 1.25 12v10a.75.75 0 0 0 .75.75.75.75 0 0 0 .75-.75v-4.852C4.592 20.432 7.974 22.75 12 22.75c5.928 0 10.75-4.822 10.75-10.75S17.928 1.25 12 1.25zm0 1.5A9.24 9.24 0 0 1 21.25 12 9.24 9.24 0 0 1 12 21.25 9.24 9.24 0 0 1 2.75 12 9.24 9.24 0 0 1 12 2.75zm0 1.5c-1.51 0-2.75 1.24-2.75 2.75S10.49 9.75 12 9.75 14.75 8.51 14.75 7 13.51 4.25 12 4.25zm0 1.5c.7 0 1.25.55 1.25 1.25S12.7 8.25 12 8.25 10.75 7.7 10.75 7 11.3 5.75 12 5.75zm-5 3.5c-1.51 0-2.75 1.24-2.75 2.75S5.49 14.75 7 14.75 9.75 13.51 9.75 12 8.51 9.25 7 9.25zm10 0c-1.51 0-2.75 1.24-2.75 2.75s1.24 2.75 2.75 2.75 2.75-1.24 2.75-2.75S18.51 9.25 17 9.25zm-10 1.5c.7 0 1.25.55 1.25 1.25S7.7 13.25 7 13.25 5.75 12.7 5.75 12 6.3 10.75 7 10.75zm10 0c.7 0 1.25.55 1.25 1.25s-.55 1.25-1.25 1.25-1.25-.55-1.25-1.25.55-1.25 1.25-1.25zm-5 3.5c-1.51 0-2.75 1.24-2.75 2.75s1.24 2.75 2.75 2.75 2.75-1.24 2.75-2.75-1.24-2.75-2.75-2.75zm0 1.5c.7 0 1.25.55 1.25 1.25s-.55 1.25-1.25 1.25-1.25-.55-1.25-1.25.55-1.25 1.25-1.25z"/></svg>