<svg xmlns="http://www.w3.org/2000/svg" width="24" height="24" viewBox="0 0 24 24"><path d="M12 1.25C6.072 1.25 1.25 6.072 1.25 12S6.072 22.75 12 22.75 22.75 17.928 22.75 12a.75.75 0 0 0-.75-.75.75.75 0 0 0-.75.75A9.24 9.24 0 0 1 12 21.25 9.24 9.24 0 0 1 2.75 12 9.24 9.24 0 0 1 12 2.75a.75.75 0 0 0 .75-.75.75.75 0 0 0-.75-.75zm5.5.01a.75.75 0 0 0-.75.74c0 1.483-.312 2.373-.854 2.91-.54.537-1.434.84-2.896.84a.75.75 0 0 0 0 1.5c1.459 0 2.35.309 2.895.852.543.542.855 1.435.855 2.898a.75.75 0 0 0 1.5 0c0-1.464.31-2.356.852-2.898S20.536 7.25 22 7.25a.75.75 0 0 0 .64-1.121.75.75 0 0 0-.64-.379c-1.467 0-2.36-.303-2.9-.84s-.85-1.426-.85-2.91a.75.75 0 0 0-.75-.74zm-.002 3.787c.174.315.292.676.545.928.25.247.604.359.914.529-.31.172-.667.288-.916.537-.252.252-.37.613-.543.928-.174-.315-.29-.676-.543-.928-.25-.25-.607-.365-.918-.537.31-.17.667-.282.916-.53.253-.25.371-.612.545-.927z"/></svg>