<svg xmlns="http://www.w3.org/2000/svg" width="24" height="24" viewBox="0 0 24 24"><path d="M6 1.25a.75.75 0 0 0-.75.75.75.75 0 0 0 .75.75h12a.75.75 0 0 0 .75-.75.75.75 0 0 0-.75-.75zm6 3a.75.75 0 0 0-.75.75v3.188l-1.719-1.72a.75.75 0 0 0-1.062 0 .75.75 0 0 0 0 1.063l3 3a.75.75 0 0 0 1.062 0l3-3a.75.75 0 0 0 0-1.062.75.75 0 0 0-1.062 0L12.75 8.187V5a.75.75 0 0 0-.75-.75zm0 9a.75.75 0 0 0-.531.219l-3 3a.75.75 0 0 0 0 1.062.75.75 0 0 0 1.062 0l1.719-1.718V19a.75.75 0 0 0 .75.75.75.75 0 0 0 .75-.75v-3.187l1.719 1.718a.75.75 0 0 0 1.062 0 .75.75 0 0 0 0-1.062l-3-3A.75.75 0 0 0 12 13.25zm-6 8a.75.75 0 0 0-.75.75.75.75 0 0 0 .75.75h12a.75.75 0 0 0 .75-.75.75.75 0 0 0-.75-.75z"/></svg>