<svg xmlns="http://www.w3.org/2000/svg" width="24" height="24" viewBox="0 0 24 24"><path d="M15.117 1.76a.75.75 0 0 0-.558.133.75.75 0 0 0-.166 1.048c3.796 5.22 3.796 12.897 0 18.118a.75.75 0 0 0 .166 1.048.75.75 0 0 0 1.048-.166c4.204-5.78 4.204-14.103 0-19.882a.75.75 0 0 0-.49-.3zm-3.486 1.502a.75.75 0 0 0-.56.123.75.75 0 0 0-.186 1.045c3.338 4.769 3.338 10.371 0 15.14a.75.75 0 0 0 .185 1.045.75.75 0 0 0 1.045-.185c3.662-5.231 3.662-11.629 0-16.86a.75.75 0 0 0-.484-.308zM8.43 5.252a.75.75 0 0 0-.366.137.75.75 0 0 0-.175 1.047c2.502 3.519 2.502 7.61 0 11.128a.75.75 0 0 0 .175 1.047.75.75 0 0 0 1.047-.175c2.831-3.981 2.831-8.89 0-12.872a.75.75 0 0 0-.486-.304.8.8 0 0 0-.195-.008zM5.486 7.25a.75.75 0 0 0-.373.107.75.75 0 0 0-.256 1.03c1.364 2.273 1.364 4.953 0 7.226a.75.75 0 0 0 .256 1.03.75.75 0 0 0 1.03-.256 8.45 8.45 0 0 0 0-8.774.75.75 0 0 0-.461-.342.8.8 0 0 0-.196-.021z"/></svg>