<svg xmlns="http://www.w3.org/2000/svg" width="24" height="24" viewBox="0 0 24 24"><path d="M4 1.25a.75.75 0 0 0-.75.75v1.25H2a.75.75 0 0 0-.75.75.75.75 0 0 0 .75.75h1.25V13c0 .958.792 1.75 1.75 1.75h8.25V16a.75.75 0 0 0 .75.75.75.75 0 0 0 .75-.75v-1.25H16a.75.75 0 0 0 .75-.75.75.75 0 0 0-.75-.75H5a.24.24 0 0 1-.25-.25V2A.75.75 0 0 0 4 1.25zm3 2a.75.75 0 0 0-.75.75.75.75 0 0 0 .75.75h6a.24.24 0 0 1 .25.25v6a.75.75 0 0 0 .75.75.75.75 0 0 0 .75-.75V5c0-.958-.792-1.75-1.75-1.75zm14 8a.75.75 0 0 0-.75.75v4A3.24 3.24 0 0 1 17 19.25h-1.187l1.218-1.219a.75.75 0 0 0 0-1.062.75.75 0 0 0-.531-.219.75.75 0 0 0-.531.219l-2.5 2.5-.043.056-.049.063a1 1 0 0 0-.076.154l-.016.033a.75.75 0 0 0 0 .45l.016.033a1 1 0 0 0 .076.154l.049.063.043.056 2.5 2.5a.75.75 0 0 0 1.062 0 .75.75 0 0 0 0-1.062l-1.218-1.219H17A4.76 4.76 0 0 0 21.75 16v-4a.75.75 0 0 0-.75-.75z"/></svg>