<svg xmlns="http://www.w3.org/2000/svg" width="24" height="24" viewBox="0 0 24 24"><path d="M7.5.75a.75.75 0 0 0-.531.219.75.75 0 0 0 0 1.062L8.187 3.25H7A4.76 4.76 0 0 0 2.25 8v4a.75.75 0 0 0 .75.75.75.75 0 0 0 .75-.75V8A3.24 3.24 0 0 1 7 4.75h1.188l-1.22 1.219a.75.75 0 0 0 0 1.062.75.75 0 0 0 1.063 0l2.5-2.5a1 1 0 0 0 .076-.09l.002-.003a.75.75 0 0 0 .008-.864 1 1 0 0 0-.086-.105l-2.5-2.5A.75.75 0 0 0 7.5.75zm2.5 6.5a.75.75 0 0 0-.75.75v1.25H8a.75.75 0 0 0-.75.75.75.75 0 0 0 .75.75h1.25V19c0 .958.792 1.75 1.75 1.75h8.25V22a.75.75 0 0 0 .75.75.75.75 0 0 0 .75-.75v-1.25H22a.75.75 0 0 0 .75-.75.75.75 0 0 0-.75-.75H11a.24.24 0 0 1-.25-.25V8a.75.75 0 0 0-.75-.75zm3 2a.75.75 0 0 0-.75.75.75.75 0 0 0 .75.75h6a.24.24 0 0 1 .25.25v6a.75.75 0 0 0 .75.75.75.75 0 0 0 .75-.75v-6c0-.958-.792-1.75-1.75-1.75z"/></svg>