<svg xmlns="http://www.w3.org/2000/svg" width="24" height="24" viewBox="0 0 24 24"><path d="M12 2.25a.75.75 0 0 0-.75.75.75.75 0 0 0 .75.75h4A3.24 3.24 0 0 1 19.25 7v1.188l-1.219-1.22a.75.75 0 0 0-.531-.218.75.75 0 0 0-.531.219.75.75 0 0 0 0 1.062l2.5 2.5.056.043.063.049a1 1 0 0 0 .154.076l.033.016a.75.75 0 0 0 .45 0l.033-.016a1 1 0 0 0 .154-.076l.063-.049.056-.043 2.5-2.5a.75.75 0 0 0 0-1.062.75.75 0 0 0-1.062 0L20.75 8.187V7A4.76 4.76 0 0 0 16 2.25zm-8 5a.75.75 0 0 0-.75.75v1.25H2a.75.75 0 0 0-.75.75.75.75 0 0 0 .75.75h1.25V19c0 .958.792 1.75 1.75 1.75h8.25V22a.75.75 0 0 0 .75.75.75.75 0 0 0 .75-.75v-1.25H16a.75.75 0 0 0 .75-.75.75.75 0 0 0-.75-.75H5a.24.24 0 0 1-.25-.25V8A.75.75 0 0 0 4 7.25zm3 2a.75.75 0 0 0-.75.75.75.75 0 0 0 .75.75h6a.24.24 0 0 1 .25.25v6a.75.75 0 0 0 .75.75.75.75 0 0 0 .75-.75v-6c0-.958-.792-1.75-1.75-1.75z"/></svg>