<svg xmlns="http://www.w3.org/2000/svg" width="24" height="24" viewBox="0 0 24 24"><path d="M12 1.336a1.35 1.35 0 0 0-.656.17L2.945 6.174c-.427.237-.695.69-.695 1.18v9.292c0 .49.266.943.693 1.18h.002l8.399 4.668c.407.226.905.226 1.312 0l8.399-4.668h.002a1.35 1.35 0 0 0 .693-1.18V7.354c0-.49-.266-.943-.693-1.18h-.002l-8.399-4.668a1.35 1.35 0 0 0-.656-.17zm0 1.523L19.457 7 15.73 9.068A4.75 4.75 0 0 0 12 7.25c-1.51 0-2.86.713-3.73 1.818L4.545 7zM3.75 8.275l3.787 2.104A4.7 4.7 0 0 0 7.25 12c0 2.36 1.74 4.327 4 4.69v4.035l-7.5-4.166zm16.5 0v8.284l-7.5 4.166v-4.036c2.26-.362 4-2.33 4-4.689 0-.57-.102-1.114-.287-1.621zM12 8.75A3.24 3.24 0 0 1 15.25 12 3.24 3.24 0 0 1 12 15.25 3.24 3.24 0 0 1 8.75 12 3.24 3.24 0 0 1 12 8.75z"/></svg>