<svg xmlns="http://www.w3.org/2000/svg" width="24" height="24" viewBox="0 0 24 24"><path d="M11.014.25a.8.8 0 0 0-.196.021.8.8 0 0 0-.244.12l-.049.035a.8.8 0 0 0-.168.187C8.967 2.93 7.545 3.28 5.795 3.78S1.967 4.93.357 7.613l-.002.006-.003.004-.012.031a.8.8 0 0 0-.074.215 1 1 0 0 0-.006.09.8.8 0 0 0 .011.187l.02.079a.8.8 0 0 0 .092.187l.035.055a.8.8 0 0 0 .195.176l.006.002.004.003 11.99 6.995.01.005.031.012a.8.8 0 0 0 .215.074 1 1 0 0 0 .09.006.8.8 0 0 0 .187-.011l.079-.02a.8.8 0 0 0 .187-.092l.055-.035a.8.8 0 0 0 .176-.195l.005-.01c1.389-2.308 2.81-2.657 4.557-3.156 1.75-.5 3.828-1.151 5.438-3.834l.003-.008.002-.002.036-.07.007-.018.008-.021.022-.061.011-.049.006-.025.002-.01.006-.07.002-.01v-.09l-.002-.02-.006-.044-.011-.067-.004-.013-.01-.034-.022-.06-.004-.01-.025-.049-.014-.029-.01-.016-.044-.066-.006-.008-.059-.066-.002-.002a1 1 0 0 0-.07-.063l-.072-.049-.002-.002-.008-.003-12-7-.018-.006a.8.8 0 0 0-.232-.078L11.074.26zm.222 1.756 10.702 6.242c-1.26 1.75-2.568 2.081-4.143 2.531-1.607.46-3.488 1.047-5.031 3.215L2.063 7.752c1.259-1.75 2.567-2.081 4.142-2.531 1.607-.46 3.488-1.047 5.031-3.215zM5 12.25a.75.75 0 0 0-.75.75v5.652c0 .484.26.932.68 1.172l6.4 3.656c.414.237.926.237 1.34 0l6.4-3.656c.42-.24.68-.688.68-1.172V13.5a.75.75 0 0 0-.75-.75.75.75 0 0 0-.75.75v5.064l-5.5 3.145V17a.75.75 0 0 0-.75-.75.75.75 0 0 0-.75.75v4.709l-5.5-3.145V13a.75.75 0 0 0-.75-.75z"/></svg>