<svg xmlns="http://www.w3.org/2000/svg" width="24" height="24" viewBox="0 0 24 24"><path d="M4 1.25A3.76 3.76 0 0 0 .25 5 3.76 3.76 0 0 0 4 8.75c.834 0 1.56-.338 2.186-.803L10.889 12l-4.703 4.053C5.56 15.588 4.834 15.25 4 15.25A3.76 3.76 0 0 0 .25 19 3.76 3.76 0 0 0 4 22.75 3.76 3.76 0 0 0 7.75 19c0-.68-.232-1.288-.55-1.84l4.837-4.17 6.473 5.578a.75.75 0 0 0 1.058-.078.75.75 0 0 0-.078-1.058L13.188 12l6.302-5.432a.75.75 0 0 0 .078-1.058.75.75 0 0 0-1.058-.078l-6.473 5.578L7.2 6.84c.319-.552.551-1.16.551-1.84A3.76 3.76 0 0 0 4 1.25zm0 1.5c1.252 0 2.25.998 2.25 2.25 0 .58-.215 1.101-.572 1.5A2.24 2.24 0 0 1 4 7.25 2.24 2.24 0 0 1 1.75 5c0-1.252.998-2.25 2.25-2.25zm13 8.5a.75.75 0 0 0-.75.75.75.75 0 0 0 .75.75h1a.75.75 0 0 0 .75-.75.75.75 0 0 0-.75-.75zm5 0a.75.75 0 0 0-.75.75.75.75 0 0 0 .75.75h1a.75.75 0 0 0 .75-.75.75.75 0 0 0-.75-.75zm-18 5.5c.671 0 1.265.289 1.678.75.357.399.572.92.572 1.5 0 1.252-.998 2.25-2.25 2.25A2.24 2.24 0 0 1 1.75 19c0-1.252.998-2.25 2.25-2.25z"/></svg>