<svg xmlns="http://www.w3.org/2000/svg" width="24" height="24" viewBox="0 0 24 24"><path d="M12 1.25c-4.094 0-6.257.756-7.45 1.65-.595.447-.935.932-1.11 1.327S3.25 5 3.25 5v14s.014.38.19.773c.175.395.515.88 1.11 1.327 1.193.894 3.356 1.65 7.45 1.65s6.257-.756 7.45-1.65c.595-.447.935-.932 1.11-1.327s.19-.773.19-.773V5a1 1 0 0 0-.02-.162 2.3 2.3 0 0 0-.17-.611c-.175-.395-.515-.88-1.11-1.327-1.193-.894-3.356-1.65-7.45-1.65zm0 1.5c3.906 0 5.743.744 6.55 1.35.405.303.565.568.64.736.074.168.06.164.06.164s.014-.004-.06.164c-.075.168-.235.433-.64.736-.807.606-2.644 1.35-6.55 1.35S6.257 6.506 5.45 5.9c-.405-.303-.565-.568-.64-.736C4.737 4.996 4.75 5 4.75 5s-.014.004.06-.164c.075-.168.235-.433.64-.736.807-.606 2.644-1.35 6.55-1.35zM4.75 7.24c1.229.831 3.373 1.51 7.25 1.51s6.021-.679 7.25-1.51v9.52c-1.229-.831-3.373-1.51-7.25-1.51s-6.021.679-7.25 1.51zM12 16.75c3.906 0 5.743.744 6.55 1.35.405.303.565.568.64.736.074.168.06.164.06.164s.014-.004-.06.164c-.075.168-.235.433-.64.736-.807.606-2.644 1.35-6.55 1.35s-5.743-.744-6.55-1.35c-.405-.303-.565-.568-.64-.736-.074-.168-.06-.164-.06-.164s-.014.004.06-.164c.075-.168.235-.433.64-.736.807-.606 2.644-1.35 6.55-1.35z"/></svg>