<svg xmlns="http://www.w3.org/2000/svg" width="24" height="24" viewBox="0 0 24 24"><path d="M12 3.25c-3.471 0-6.56 1.656-8.527 4.217l-.004.002a.8.8 0 0 0-.117.156A10.7 10.7 0 0 0 1.25 14c0 2.417.8 4.655 2.15 6.451a.75.75 0 0 0 .6.301h4.326A3.765 3.765 0 0 0 12 23.75a3.764 3.764 0 0 0 3.674-3l4.326.002a.75.75 0 0 0 .6-.3A10.7 10.7 0 0 0 22.75 14c0-2.38-.779-4.579-2.092-6.361a.8.8 0 0 0-.127-.17 10.74 10.74 0 0 0-8.472-4.217zm-.75 1.531V8a.75.75 0 0 0 .75.75.75.75 0 0 0 .75-.75V4.781a9.22 9.22 0 0 1 6.244 3.162L16.97 9.97a.75.75 0 0 0 0 1.062.75.75 0 0 0 1.062 0l1.862-1.861A9.2 9.2 0 0 1 21.25 14c0 .78-.106 1.532-.295 2.25H18a.75.75 0 0 0-.75.75.75.75 0 0 0 .75.75h2.412a10 10 0 0 1-.853 1.502l-3.885-.002a3.77 3.77 0 0 0-2.805-2.896l.871-5.231a.75.75 0 0 0-.617-.863.75.75 0 0 0-.863.617l-.905 5.43a3.77 3.77 0 0 0-3.03 2.945H4.44a10 10 0 0 1-.853-1.502H6a.75.75 0 0 0 .75-.75.75.75 0 0 0-.75-.75H3.045A8.8 8.8 0 0 1 2.75 14a9.2 9.2 0 0 1 1.357-4.83l1.863 1.86a.75.75 0 0 0 1.062 0 .75.75 0 0 0 0-1.062L5.006 7.943a9.22 9.22 0 0 1 6.244-3.162zM12 17.75c1.252 0 2.25.998 2.25 2.25s-.998 2.25-2.25 2.25A2.24 2.24 0 0 1 9.75 20c0-1.252.998-2.25 2.25-2.25z"/></svg>