<svg xmlns="http://www.w3.org/2000/svg" width="24" height="24" viewBox="0 0 24 24"><path d="M7 3.25a.75.75 0 0 0-.75.75v1a.75.75 0 0 0 .75.75.75.75 0 0 0 .75-.75V4A.75.75 0 0 0 7 3.25zm10 0a.75.75 0 0 0-.531.219l-3 3a.75.75 0 0 0 0 1.062.75.75 0 0 0 1.062 0l1.719-1.718V12a.75.75 0 0 0 .75.75.75.75 0 0 0 .75-.75V5.813l1.719 1.718a.75.75 0 0 0 1.062 0 .75.75 0 0 0 0-1.062l-3-3A.75.75 0 0 0 17 3.25zm-10 5a.75.75 0 0 0-.75.75v1a.75.75 0 0 0 .75.75.75.75 0 0 0 .75-.75V9A.75.75 0 0 0 7 8.25zm0 5a.75.75 0 0 0-.75.75v4.188l-1.719-1.72a.75.75 0 0 0-1.062 0 .75.75 0 0 0 0 1.063l3 3a.75.75 0 0 0 1.062 0l3-3a.75.75 0 0 0 0-1.062.75.75 0 0 0-1.062 0L7.75 18.187V14a.75.75 0 0 0-.75-.75zm13 2a.75.75 0 0 0-.75.75v2a.75.75 0 0 0 .75.75.75.75 0 0 0 .75-.75v-2a.75.75 0 0 0-.75-.75zm.025 5.998a.75.75 0 0 0-.572.248l-.01.012a.75.75 0 0 0 .055 1.058.75.75 0 0 0 1.059-.054l.01-.012a.75.75 0 0 0-.055-1.059.75.75 0 0 0-.487-.193z"/></svg>