<svg xmlns="http://www.w3.org/2000/svg" width="24" height="24" viewBox="0 0 24 24"><path d="M11.19 1.25c-2.33-.024-4.263.569-5.723 1.646a.75.75 0 0 0-.158 1.05.75.75 0 0 0 1.048.158c1.166-.86 2.746-1.376 4.817-1.354 1.823.019 3.572.556 4.83 1.564 1.257 1.01 2.064 2.46 2.064 4.543a.75.75 0 0 0 .118.403l2.027 3.187c-.05.725-.32 1-.652 1.174-.364.19-.743.201-.743.201a.75.75 0 0 0-.746.82s.11 1.304-.306 2.55c-.208.622-.536 1.204-1.04 1.626-.503.422-1.19.717-2.27.717a.75.75 0 0 0-.75.75V22a.75.75 0 0 0 .75.75.75.75 0 0 0 .75-.75v-1.082c.999-.13 1.866-.432 2.483-.95.775-.649 1.231-1.496 1.5-2.302a7.3 7.3 0 0 0 .383-2.539c.264-.048.34.006.686-.176.727-.38 1.492-1.284 1.492-2.666a.75.75 0 0 0-.117-.402l-2.137-3.358c-.098-2.312-1.055-4.177-2.555-5.38-1.578-1.267-3.647-1.873-5.752-1.895zm-1.178 4a.75.75 0 0 0-.733.545l-2 7a.75.75 0 0 0 .516.926.75.75 0 0 0 .926-.516l2-7a.75.75 0 0 0-.516-.926.8.8 0 0 0-.193-.029zM4.918 6.254a.75.75 0 0 0-.504.277l-2 2.5a.75.75 0 0 0 0 .938l2 2.5a.75.75 0 0 0 1.055.117.75.75 0 0 0 .117-1.055L3.96 9.5l1.625-2.031a.75.75 0 0 0-.117-1.055.75.75 0 0 0-.551-.16zm8.164 0a.75.75 0 0 0-.55.16.75.75 0 0 0-.118 1.055L14.04 9.5l-1.625 2.031a.75.75 0 0 0 .117 1.055.75.75 0 0 0 1.055-.117l2-2.5a.75.75 0 0 0 0-.938l-2-2.5a.75.75 0 0 0-.504-.277zm-8.549 8.01a.8.8 0 0 0-.27.113.75.75 0 0 0-.204 1.041c.98 1.461 1.879 2.534 2.01 3.791V22a.75.75 0 0 0 .75.75.75.75 0 0 0 .75-.75v-2.857l-.005-.075c-.184-1.84-1.341-3.118-2.26-4.486a.75.75 0 0 0-.478-.318.8.8 0 0 0-.293 0z"/></svg>