<svg xmlns="http://www.w3.org/2000/svg" width="24" height="24" viewBox="0 0 24 24"><path d="M3.6 2.25A1.36 1.36 0 0 0 2.25 3.6v16.8c0 .737.613 1.35 1.35 1.35h16.8a1.36 1.36 0 0 0 1.35-1.35V3.6a1.36 1.36 0 0 0-1.35-1.35Zm.15 1.5h16.5v16.5H3.75Z"/><path d="M7.5 8a.5.5 0 1 1 0-1 .5.5 0 0 1 0 1Z"/><path d="M7.5 6.25c-.681 0-1.25.569-1.25 1.25s.569 1.25 1.25 1.25 1.25-.569 1.25-1.25-.569-1.25-1.25-1.25Zm0 1c.13 0 .25.12.25.25s-.12.25-.25.25-.25-.12-.25-.25.12-.25.25-.25ZM12 12.5a.5.5 0 1 1 0-1 .5.5 0 0 1 0 1z"/><path d="M12 10.75c-.682 0-1.25.568-1.25 1.25s.568 1.25 1.25 1.25 1.25-.568 1.25-1.25-.568-1.25-1.25-1.25zm0 1c.13 0 .25.12.25.25s-.12.25-.25.25-.25-.12-.25-.25.12-.25.25-.25zM16.5 17a.5.5 0 1 1 0-1 .5.5 0 0 1 0 1z"/><path d="M16.5 15.25c-.682 0-1.25.568-1.25 1.25s.568 1.25 1.25 1.25 1.25-.568 1.25-1.25-.568-1.25-1.25-1.25zm0 1c.13 0 .25.12.25.25s-.12.25-.25.25-.25-.12-.25-.25.12-.25.25-.25z"/></svg>