<svg xmlns="http://www.w3.org/2000/svg" width="24" height="24" viewBox="0 0 24 24"><path d="M21.125 3.26a.8.8 0 0 0-.293.01.75.75 0 0 0-.469.332s-2.474 3.957-5.927 7.904C10.982 15.453 6.5 19.25 3 19.25a.75.75 0 0 0-.75.75.75.75 0 0 0 .75.75c4.5 0 9.018-4.203 12.564-8.256 3.547-4.053 6.073-8.096 6.073-8.096a.75.75 0 0 0-.239-1.035.8.8 0 0 0-.273-.103zM19 17.25c-1.218 0-2.08.895-2.437 2H15a.75.75 0 0 0-.75.75.75.75 0 0 0 .75.75h1.563c.357 1.105 1.219 2 2.437 2 1.51 0 2.75-1.24 2.75-2.75s-1.24-2.75-2.75-2.75zm0 1.5c.7 0 1.25.55 1.25 1.25s-.55 1.25-1.25 1.25-1.25-.55-1.25-1.25.55-1.25 1.25-1.25zm-9 .5a.75.75 0 0 0-.75.75.75.75 0 0 0 .75.75h2a.75.75 0 0 0 .75-.75.75.75 0 0 0-.75-.75z"/></svg>