<svg xmlns="http://www.w3.org/2000/svg" width="24" height="24" viewBox="0 0 24 24"><path d="M5 1.25C3.49 1.25 2.25 2.49 2.25 4S3.49 6.75 5 6.75c1.218 0 2.08-.895 2.438-2H9A.75.75 0 0 0 9.75 4 .75.75 0 0 0 9 3.25H7.438c-.358-1.105-1.22-2-2.438-2zm0 1.5c.7 0 1.25.55 1.25 1.25S5.7 5.25 5 5.25 3.75 4.7 3.75 4 4.3 2.75 5 2.75zm7 .5a.75.75 0 0 0-.75.75.75.75 0 0 0 .75.75h2a.75.75 0 0 0 .75-.75.75.75 0 0 0-.75-.75zm9 0c-2.25 0-4.086 1.147-5.604 2.73-1.517 1.584-2.783 3.622-4.033 5.622S8.88 15.564 7.521 16.98C6.164 18.397 4.75 19.25 3 19.25a.75.75 0 0 0-.75.75.75.75 0 0 0 .75.75c2.25 0 4.086-1.147 5.604-2.73 1.517-1.584 2.783-3.622 4.033-5.622s2.484-3.962 3.842-5.378C17.836 5.603 19.25 4.75 21 4.75a.75.75 0 0 0 .75-.75.75.75 0 0 0-.75-.75zm-2 14c-1.218 0-2.08.895-2.437 2H15a.75.75 0 0 0-.75.75.75.75 0 0 0 .75.75h1.563c.357 1.105 1.219 2 2.437 2 1.51 0 2.75-1.24 2.75-2.75s-1.24-2.75-2.75-2.75zm0 1.5c.7 0 1.25.55 1.25 1.25s-.55 1.25-1.25 1.25-1.25-.55-1.25-1.25.55-1.25 1.25-1.25zm-9 .5a.75.75 0 0 0-.75.75.75.75 0 0 0 .75.75h2a.75.75 0 0 0 .75-.75.75.75 0 0 0-.75-.75z"/></svg>