<svg xmlns="http://www.w3.org/2000/svg" width="24" height="24" viewBox="0 0 24 24"><path d="M5 1.25C3.49 1.25 2.25 2.49 2.25 4S3.49 6.75 5 6.75c1.218 0 2.08-.895 2.438-2H9A.75.75 0 0 0 9.75 4 .75.75 0 0 0 9 3.25H7.438c-.358-1.105-1.22-2-2.438-2zm0 1.5c.7 0 1.25.55 1.25 1.25S5.7 5.25 5 5.25 3.75 4.7 3.75 4 4.3 2.75 5 2.75zm7 .5a.75.75 0 0 0-.75.75.75.75 0 0 0 .75.75h2a.75.75 0 0 0 .75-.75.75.75 0 0 0-.75-.75zm9 0c-4.5 0-9.018 4.203-12.564 8.256-3.547 4.053-6.073 8.096-6.073 8.096a.75.75 0 0 0 .239 1.035.75.75 0 0 0 1.035-.239s2.474-3.957 5.927-7.904C13.018 8.547 17.5 4.75 21 4.75a.75.75 0 0 0 .75-.75.75.75 0 0 0-.75-.75z"/></svg>