<svg xmlns="http://www.w3.org/2000/svg" width="24" height="24" viewBox="0 0 24 24"><path d="M5 3a1 1 0 1 0 0-2 1 1 0 0 0 0 2Z"/><path d="M5 .25c-.958 0-1.75.792-1.75 1.75S4.042 3.75 5 3.75 6.75 2.958 6.75 2 5.958.25 5 .25Zm0 1.5a.24.24 0 0 1 .25.25.24.24 0 0 1-.25.25.24.24 0 0 1-.25-.25.24.24 0 0 1 .25-.25Zm0 19.5a.75.75 0 0 0-.75.75.75.75 0 0 0 .75.75h8a.75.75 0 0 0 .75-.75.75.75 0 0 0-.75-.75Z"/><path d="M5 1.25a.75.75 0 0 0-.75.75v20a.75.75 0 0 0 .75.75.75.75 0 0 0 .75-.75V2A.75.75 0 0 0 5 1.25Z"/><path d="M5 23a1 1 0 1 0 0-2 1 1 0 0 0 0 2z"/><path d="M5 20.25c-.958 0-1.75.792-1.75 1.75s.792 1.75 1.75 1.75 1.75-.792 1.75-1.75-.792-1.75-1.75-1.75zm0 1.5a.24.24 0 0 1 .25.25.24.24 0 0 1-.25.25.24.24 0 0 1-.25-.25.24.24 0 0 1 .25-.25zm8.43-20.486a.75.75 0 0 0-.785.713.75.75 0 0 0 .712.785h.008l.18.013.178.02.177.025.178.032.174.037.174.04.174.048.17.052.17.057.167.062.166.069.166.072.163.078.162.082.123.067a.75.75 0 0 0 1.017-.297.75.75 0 0 0-.299-1.02l-.13-.072-.02-.01-.18-.092-.02-.01-.183-.085-.02-.01-.185-.08-.02-.01-.187-.076-.02-.008-.189-.07-.021-.008-.19-.064-.021-.006-.194-.059-.021-.006-.195-.054-.022-.004-.197-.047-.022-.006-.197-.041-.023-.004-.2-.035-.023-.004-.201-.03-.024-.001-.2-.024-.026-.002-.203-.015-.024-.002zm-2.692.552a.75.75 0 0 0-.574.008l-.158.07-.016.006-.158.075-.016.007-.156.077-.015.007-.155.08-.015.01-.153.084-.015.01-.15.088-.016.008-.149.091-.015.01-.147.096-.016.01-.144.1-.014.01-.144.103-.014.01-.14.107-.014.01-.14.109-.013.012-.138.113-.012.01-.137.117-.011.012-.133.119-.012.011-.133.124-.011.011-.13.127a.75.75 0 0 0-.01 1.06.75.75 0 0 0 1.061.01l.123-.12.122-.114.12-.11.124-.105.125-.103.127-.1.129-.097.128-.092.131-.09.133-.088.135-.082.135-.078.136-.076.137-.073.14-.068.141-.064.149-.067a.75.75 0 0 0 .39-.986.75.75 0 0 0-.412-.399zm7.867 2.213a.75.75 0 0 0-.548.166.75.75 0 0 0-.106 1.055l.12.148.124.157.12.162.119.166.113.17.111.172.11.177.105.18.102.184.097.187.096.19.09.193.088.197.04.092a.75.75 0 0 0 .983.4.75.75 0 0 0 .399-.982l-.043-.102-.006-.013-.094-.211-.008-.016-.097-.207-.006-.014-.104-.205-.008-.015-.105-.201-.008-.014-.11-.197-.007-.014-.113-.195-.008-.014-.117-.191-.01-.014-.121-.188-.008-.013-.125-.184-.01-.014-.127-.18-.01-.013-.13-.176-.01-.013-.135-.172-.012-.014-.125-.152a.75.75 0 0 0-.506-.272Zm2.155 5.448a.75.75 0 0 0-.627.855v.004l.031.232.025.235.022.236.018.236.011.24.008.243.002.242-.004.287-.01.285-.017.283-.024.282.002-.008a.75.75 0 0 0 .664.826.75.75 0 0 0 .827-.664v-.002l.002-.018.025-.298.002-.018.017-.3v-.018l.012-.305v-.018l.004-.304v-.018l-.002-.258-.002-.015-.008-.256v-.016l-.012-.254-.002-.015-.017-.254-.002-.014-.024-.252v-.015l-.029-.248-.002-.016-.031-.248-.002-.016-.002-.012a.75.75 0 0 0-.855-.626Zm-.215 5.949a.75.75 0 0 0-.961.445l-.055.147-.093.24-.102.236-.104.233-.11.228-.116.223-.12.217-.124.214-.13.21-.132.202-.137.198-.08.107a.75.75 0 0 0 .162 1.049.75.75 0 0 0 1.047-.16l.086-.115.012-.018.148-.215.012-.015.145-.221.01-.016.138-.226.01-.016.135-.23.01-.018.128-.234.01-.018.123-.24.008-.016.12-.246.007-.016.113-.25.008-.017.107-.254.006-.016.102-.257.008-.018.056-.156a.75.75 0 0 0-.447-.961zM7.127 17.875a.75.75 0 0 0-.56.127.75.75 0 0 0-.18 1.045c.388.55.823 1.054 1.299 1.5a.75.75 0 0 0 1.06-.033.75.75 0 0 0-.033-1.06 8.4 8.4 0 0 1-1.1-1.272.75.75 0 0 0-.486-.307ZM13 23a1 1 0 1 0 0-2 1 1 0 0 0 0 2z"/><path d="M13 20.25c-.958 0-1.75.792-1.75 1.75s.792 1.75 1.75 1.75 1.75-.792 1.75-1.75-.792-1.75-1.75-1.75zm0 1.5a.24.24 0 0 1 .25.25.24.24 0 0 1-.25.25.24.24 0 0 1-.25-.25.24.24 0 0 1 .25-.25z"/></svg>