<svg xmlns="http://www.w3.org/2000/svg" width="24" height="24" viewBox="0 0 24 24"><path d="M16 3.25a.75.75 0 0 0-.75.75.75.75 0 0 0 .75.75h2.188l-3.72 3.719a.75.75 0 0 0 0 1.062.75.75 0 0 0 1.063 0l3.719-3.719V8a.75.75 0 0 0 .75.75.75.75 0 0 0 .75-.75V4a.75.75 0 0 0-.219-.531.8.8 0 0 0-.244-.162A.8.8 0 0 0 20 3.25zm-7 11a.75.75 0 0 0-.531.219L4.75 18.188V16a.75.75 0 0 0-.75-.75.75.75 0 0 0-.75.75v4a.75.75 0 0 0 .219.531.75.75 0 0 0 .531.219h4a.75.75 0 0 0 .75-.75.75.75 0 0 0-.75-.75H5.813l3.718-3.719a.75.75 0 0 0 0-1.062A.75.75 0 0 0 9 14.25z"/></svg>