<svg xmlns="http://www.w3.org/2000/svg" width="24" height="24" viewBox="0 0 24 24"><path d="M8.666 2.25a.75.75 0 0 0-.75.75v2.86A2.76 2.76 0 0 0 6.25 8.384v2.77c0 1.51 1.24 2.75 2.75 2.75h2.25V21a.75.75 0 0 0 .75.75.75.75 0 0 0 .75-.75v-7.096H15c1.51 0 2.75-1.24 2.75-2.75v-2.77c0-1.125-.69-2.1-1.666-2.525V3a.75.75 0 0 0-.75-.75.75.75 0 0 0-.75.75v2.635H9.416V3a.75.75 0 0 0-.75-.75zM9 7.135h6c.7 0 1.25.55 1.25 1.25v2.77c0 .698-.55 1.25-1.25 1.25H9c-.7 0-1.25-.552-1.25-1.25v-2.77c0-.7.55-1.25 1.25-1.25z"/></svg>