<svg xmlns="http://www.w3.org/2000/svg" width="24" height="24" viewBox="0 0 24 24"><path d="M7 2.25C5.49 2.25 4.25 3.49 4.25 5v14c0 1.51 1.24 2.75 2.75 2.75h9c1.51 0 2.75-1.24 2.75-2.75V5c0-1.51-1.24-2.75-2.75-2.75zm0 1.5h9c.7 0 1.25.55 1.25 1.25v1.557A2.7 2.7 0 0 0 16 6.25H7c-.45 0-.874.112-1.25.307V5c0-.7.55-1.25 1.25-1.25zm14 .5a.75.75 0 0 0-.75.75v4a.75.75 0 0 0 .75.75.75.75 0 0 0 .75-.75V5a.75.75 0 0 0-.75-.75zM7 7.75h9c.7 0 1.25.55 1.25 1.25v10c0 .7-.55 1.25-1.25 1.25H7c-.7 0-1.25-.55-1.25-1.25V9c0-.7.55-1.25 1.25-1.25zm4.154 2.5a.8.8 0 0 0-.193.03.75.75 0 0 0-.45.357l-1.667 3A.75.75 0 0 0 9.5 14.75h2.725l-1.047 1.887a.75.75 0 0 0 .29 1.02.75.75 0 0 0 1.02-.294l1.668-3a.75.75 0 0 0-.656-1.113h-2.725l1.047-1.887a.75.75 0 0 0-.29-1.02.75.75 0 0 0-.378-.093z"/></svg>