<svg xmlns="http://www.w3.org/2000/svg" width="24" height="24" viewBox="0 0 24 24"><path d="M8 2.25C4.281 2.25 1.25 5.281 1.25 9v6c0 3.719 3.031 6.75 6.75 6.75h8c3.719 0 6.75-3.031 6.75-6.75V9c0-3.719-3.031-6.75-6.75-6.75zm0 1.5h8A5.24 5.24 0 0 1 21.25 9v6A5.24 5.24 0 0 1 16 20.25H8A5.24 5.24 0 0 1 2.75 15V9A5.24 5.24 0 0 1 8 3.75zm-2 4.5a.75.75 0 0 0-.75.75v6a.75.75 0 0 0 .75.75h4a.75.75 0 0 0 .75-.75.75.75 0 0 0-.75-.75H6.75v-1.5H9a.75.75 0 0 0 .75-.75.75.75 0 0 0-.75-.75H6.75v-1.5H10a.75.75 0 0 0 .75-.75.75.75 0 0 0-.75-.75zm12.455.002a.8.8 0 0 0-.191.037.75.75 0 0 0-.434.375l-2.33 4.66-2.33-4.66a.75.75 0 0 0-1.006-.334.75.75 0 0 0-.334 1.006l3 6a.75.75 0 0 0 1.34 0l3-6a.75.75 0 0 0-.334-1.006.75.75 0 0 0-.38-.078z"/></svg>