<svg xmlns="http://www.w3.org/2000/svg" width="24" height="24" viewBox="0 0 24 24"><path d="M3.6 2.25A1.36 1.36 0 0 0 2.25 3.6v10.8c0 .737.613 1.35 1.35 1.35h4.65v4.65c0 .737.613 1.35 1.35 1.35h10.8a1.36 1.36 0 0 0 1.35-1.35V9.6a1.36 1.36 0 0 0-1.35-1.35h-4.65V3.6a1.36 1.36 0 0 0-1.35-1.35zm.15 1.5h10.5v4.5h-.75a.75.75 0 0 0-.75.75.75.75 0 0 0 .75.75h.75v.75a.75.75 0 0 0 .75.75.75.75 0 0 0 .75-.75v-.75h4.5v10.5H9.75v-4.5h.75a.75.75 0 0 0 .75-.75.75.75 0 0 0-.75-.75h-.75v-.75a.75.75 0 0 0-.75-.75.75.75 0 0 0-.75.75v.75h-4.5zm5.85 4.5A1.36 1.36 0 0 0 8.25 9.6v.9a.75.75 0 0 0 .75.75.75.75 0 0 0 .75-.75v-.75h.75a.75.75 0 0 0 .75-.75.75.75 0 0 0-.75-.75zm5.4 4.5a.75.75 0 0 0-.75.75v.75h-.75a.75.75 0 0 0-.75.75.75.75 0 0 0 .75.75h.9a1.36 1.36 0 0 0 1.35-1.35v-.9a.75.75 0 0 0-.75-.75z"/></svg>