<svg xmlns="http://www.w3.org/2000/svg" width="24" height="24" viewBox="0 0 24 24"><path d="M8 4.25a.75.75 0 0 0-.336.08l-6 3A.75.75 0 0 0 1.25 8v12a.75.75 0 0 0 .75.75h12a.75.75 0 0 0 .75-.75v-2.25h2.5V20a.75.75 0 0 0 .75.75.75.75 0 0 0 .75-.75v-2.25H22a.75.75 0 0 0 .75-.75.75.75 0 0 0-.75-.75h-3.25v-1.5H22a.75.75 0 0 0 .75-.75.75.75 0 0 0-.75-.75h-7.25V8a.75.75 0 0 0-.414-.67l-6-3A.75.75 0 0 0 8 4.25zm0 1.588 5.25 2.625V19.25h-1.5V13a.75.75 0 0 0-.75-.75H5a.75.75 0 0 0-.75.75v6.25h-1.5V8.463zM5.75 13.75h4.5v5.5h-4.5zm9 1h2.5v1.5h-2.5z"/></svg>