<svg xmlns="http://www.w3.org/2000/svg" width="24" height="24" viewBox="0 0 24 24"><path d="M3.6 2.25A1.36 1.36 0 0 0 2.25 3.6v16.8c0 .737.613 1.35 1.35 1.35h16.8a1.36 1.36 0 0 0 1.35-1.35V3.6a1.36 1.36 0 0 0-1.35-1.35zm.15 1.5h16.5v16.5H3.75zm4.75 3a.75.75 0 0 0-.531.219.75.75 0 0 0 0 1.062l3.5 3.5a.75.75 0 0 0 1.062 0l3.5-3.5a.75.75 0 0 0 0-1.062.75.75 0 0 0-1.062 0L12 9.937 9.031 6.97a.75.75 0 0 0-.531-.22zm0 6a.75.75 0 0 0-.531.219.75.75 0 0 0 0 1.062l3.5 3.5a.75.75 0 0 0 1.062 0l3.5-3.5a.75.75 0 0 0 0-1.062.75.75 0 0 0-1.062 0L12 15.938l-2.969-2.97a.75.75 0 0 0-.531-.218z"/></svg>