<svg xmlns="http://www.w3.org/2000/svg" width="24" height="24" viewBox="0 0 24 24"><path d="M4 2.25C2.49 2.25 1.25 3.49 1.25 5v14c0 1.51 1.24 2.75 2.75 2.75h9a.75.75 0 0 0 .75-.75.75.75 0 0 0-.75-.75H4c-.7 0-1.25-.55-1.25-1.25V7.75h18.5V13a.75.75 0 0 0 .75.75.75.75 0 0 0 .75-.75V5c0-1.51-1.24-2.75-2.75-2.75zm0 1.5h16c.7 0 1.25.55 1.25 1.25v1.25H2.75V5c0-.7.55-1.25 1.25-1.25zm.97.5a.75.75 0 0 0-.517.248l-.01.01a.75.75 0 0 0 .055 1.06.75.75 0 0 0 1.059-.056l.011-.012a.75.75 0 0 0-.056-1.059.75.75 0 0 0-.541-.191zm3 0a.75.75 0 0 0-.517.248l-.01.01a.75.75 0 0 0 .055 1.06.75.75 0 0 0 1.059-.056l.011-.012a.75.75 0 0 0-.056-1.059.75.75 0 0 0-.541-.191zm3 0a.75.75 0 0 0-.517.248l-.01.01a.75.75 0 0 0 .055 1.06.75.75 0 0 0 1.059-.056l.011-.012a.75.75 0 0 0-.056-1.059.75.75 0 0 0-.541-.191zm8.753 10c-.649 0-1.21.34-1.725.719-1.184-.856-2.809-.893-3.87.176a3.04 3.04 0 0 0 0 4.27l2.919 2.94a1.345 1.345 0 0 0 1.863.04l.004-.002c1.04-.974 1.994-2.008 2.957-2.979a3.03 3.03 0 0 0-2.148-5.164zm-3.446 1.496c.391 0 .782.15 1.084.455l.106.108a.75.75 0 0 0 1.066 0l.106-.108a1.526 1.526 0 0 1 2.611 1.078c0 .404-.159.792-.443 1.078-.952.96-1.862 1.934-2.807 2.829l-2.807-2.829a1.52 1.52 0 0 1 0-2.156 1.52 1.52 0 0 1 1.084-.455z"/></svg>