<svg xmlns="http://www.w3.org/2000/svg" width="24" height="24" viewBox="0 0 24 24"><path d="M11.857 2.264a.8.8 0 0 0-.263.105S9.54 3.69 7.482 5.656 3.25 10.237 3.25 13.125c0 2.634.797 4.827 2.33 6.336 1.357 1.336 3.252 2.098 5.52 2.256q.133.009.27.015.067.006.136.008l.056.002q.217.008.438.008.191 0 .377-.008c2.5-.07 4.583-.844 6.043-2.281 1.533-1.51 2.33-3.702 2.33-6.336 0-2.888-2.174-5.503-4.232-7.469-2.06-1.966-4.112-3.287-4.112-3.287a.75.75 0 0 0-.549-.105zM12 3.955c.345.229 1.744 1.125 3.482 2.785 1.942 1.854 3.768 4.302 3.768 6.385 0 2.337-.678 4.082-1.883 5.268q-.446.439-.998.78c.48-1.553.038-3.535-1.2-6.009a.75.75 0 0 0-1.26-.125c-.813 1.044-1.337 1.2-1.427 1.191-.044-.004-.084-.012-.187-.134s-.231-.353-.336-.655c-.42-1.208-.416-3.516-.23-4.26a.75.75 0 0 0-.829-.923.75.75 0 0 0-.57.406C8.836 11.654 7.25 14.582 7.25 18q.002.532.113.998a5.6 5.6 0 0 1-.73-.605c-1.205-1.186-1.883-2.931-1.883-5.268 0-2.083 1.826-4.53 3.768-6.385C10.256 5.08 11.655 4.184 12 3.955zm-1.732 8.399c.077.538.104 1.094.273 1.58.145.416.33.803.61 1.132.279.33.692.607 1.18.657.655.067 1.26-.312 1.868-.868.739 1.813.981 3.242.696 4.006-.172.458-.448.766-.91 1.004-.405.209-.965.348-1.672.38a7 7 0 0 1-.313.005c-1.038 0-1.91-.159-2.434-.482-.523-.324-.816-.746-.816-1.768 0-1.926.678-3.774 1.518-5.646z"/></svg>