<svg xmlns="http://www.w3.org/2000/svg" width="24" height="24" viewBox="0 0 24 24"><path d="M12.922 2.254a.75.75 0 0 0-.53.305l-2.181 3a.75.75 0 0 0 .166 1.048.75.75 0 0 0 1.047-.166l.826-1.134V10a.75.75 0 0 0 .75.75h4.527l-.95 1.309a.75.75 0 0 0 .163 1.048.75.75 0 0 0 1.05-.166l1.817-2.5A.75.75 0 0 0 19 9.25h-5.25V3a.75.75 0 0 0-.518-.713.75.75 0 0 0-.31-.033zM4 3.25a.75.75 0 0 0-.531.219.75.75 0 0 0 0 1.062l4.336 4.336-3.412 4.692A.75.75 0 0 0 5 14.75h5.25V21a.75.75 0 0 0 1.357.441l3.694-5.078 4.168 4.168a.75.75 0 0 0 1.062 0 .75.75 0 0 0 0-1.062L9.402 8.342l-.011-.014a.8.8 0 0 0-.141-.14l-.014-.012-4.705-4.707A.75.75 0 0 0 4 3.25zm4.879 6.691 5.348 5.348-2.477 3.402V14a.75.75 0 0 0-.75-.75H6.473z"/></svg>