<svg xmlns="http://www.w3.org/2000/svg" width="24" height="24" viewBox="0 0 24 24"><path d="M9.494 3.25a.75.75 0 0 0-.674.432l-1.875 4a.75.75 0 0 0 .362.998.75.75 0 0 0 .998-.362l.445-.949V8a.75.75 0 0 0 .75.75.75.75 0 0 0 .75-.75V4a.75.75 0 0 0-.588-.732 1 1 0 0 0-.168-.018zm4.844.018A.75.75 0 0 0 13.75 4v16a.75.75 0 0 0 .75.75H22a.75.75 0 0 0 .68-1.068l-7.5-16a.75.75 0 0 0-.842-.414zm.912 4.101 5.57 11.881h-5.57zM5.783 11.25a.8.8 0 0 0-.289.045.75.75 0 0 0-.424.387l-.937 2a.75.75 0 0 0 .361.998.75.75 0 0 0 .998-.362l.938-2a.75.75 0 0 0-.362-.998.8.8 0 0 0-.285-.07zm3.717 0a.75.75 0 0 0-.75.75v2a.75.75 0 0 0 .75.75.75.75 0 0 0 .75-.75v-2a.75.75 0 0 0-.75-.75zm-6.53 6a.8.8 0 0 0-.288.045.75.75 0 0 0-.424.387l-.938 2A.75.75 0 0 0 2 20.75h1.875a.75.75 0 0 0 .75-.75.75.75 0 0 0-.75-.75H3.18l.437-.932a.75.75 0 0 0-.361-.998.8.8 0 0 0-.285-.07zm6.53 0a.75.75 0 0 0-.75.75v1.25H7.625a.75.75 0 0 0-.75.75.75.75 0 0 0 .75.75H9.5a.75.75 0 0 0 .75-.75v-2a.75.75 0 0 0-.75-.75z"/></svg>