<svg xmlns="http://www.w3.org/2000/svg" width="24" height="24" viewBox="0 0 24 24"><path d="M12 1.25c-3.167 0-5.006 1.136-5.893 2.613-.734 1.224-.81 2.495-.824 3.49-.885.102-1.892.351-2.846 1.038C1.23 9.26.25 10.79.25 13c0 2.637 1.405 4.276 2.906 5.049a.75.75 0 0 0 1.01-.324.75.75 0 0 0-.322-1.01C2.72 16.137 1.75 15.139 1.75 13c0-1.792.688-2.76 1.563-3.39.874-.63 2.004-.86 2.687-.86A.75.75 0 0 0 6.75 8c0-1 .029-2.34.643-3.363C8.006 3.614 9.167 2.75 12 2.75s3.994.864 4.607 1.887C17.221 5.66 17.25 7 17.25 8a.75.75 0 0 0 .75.75c.683 0 1.813.23 2.688.86.874.63 1.562 1.598 1.562 3.39 0 2.14-.971 3.137-2.094 3.715a.75.75 0 0 0-.322 1.01.75.75 0 0 0 1.01.324c1.501-.773 2.906-2.412 2.906-5.049 0-2.208-.98-3.74-2.187-4.61-.954-.686-1.96-.935-2.846-1.036-.015-.996-.09-2.267-.824-3.49C17.006 2.385 15.167 1.25 12 1.25zm-3 12a.75.75 0 0 0-.75.75.75.75 0 0 0 .75.75h6a.75.75 0 0 0 .75-.75.75.75 0 0 0-.75-.75zm-2 4a.75.75 0 0 0-.75.75.75.75 0 0 0 .75.75h10a.75.75 0 0 0 .75-.75.75.75 0 0 0-.75-.75zm2 4a.75.75 0 0 0-.75.75.75.75 0 0 0 .75.75h6a.75.75 0 0 0 .75-.75.75.75 0 0 0-.75-.75z"/></svg>