<svg xmlns="http://www.w3.org/2000/svg" width="24" height="24" viewBox="0 0 24 24"><path d="M7.5 1.25c-.862 0-1.69.342-2.299.951a3.25 3.25 0 0 0-.44 4.049H2.6A1.36 1.36 0 0 0 1.25 7.6v3.8c0 .737.613 1.35 1.35 1.35h.65v8.65c0 .737.613 1.35 1.35 1.35h14.8a1.36 1.36 0 0 0 1.35-1.35v-8.65h.65a1.36 1.36 0 0 0 1.35-1.35V7.6a1.36 1.36 0 0 0-1.35-1.35h-2.162a3.256 3.256 0 0 0-.44-4.049A3.25 3.25 0 0 0 16.5 1.25c-2.107 0-3.467 1.52-4.219 2.889a9 9 0 0 0-.281.556 9 9 0 0 0-.281-.556C10.967 2.77 9.607 1.25 7.5 1.25zm0 1.5c1.393 0 2.284.98 2.906 2.111.379.688.395.949.522 1.389H7.5a1.75 1.75 0 1 1 0-3.5zm9 0a1.75 1.75 0 1 1 0 3.5h-3.428c.127-.44.143-.7.522-1.389.622-1.132 1.513-2.111 2.906-2.111zm-13.75 5h8.5v3.5h-8.5zm10 0h8.5v3.5h-8.5zm-8 5h6.5v8.5h-6.5zm8 0h6.5v8.5h-6.5z"/></svg>