<svg xmlns="http://www.w3.org/2000/svg" width="24" height="24" viewBox="0 0 24 24"><path d="M4 2.25a.75.75 0 0 0-.531.219.75.75 0 0 0 0 1.062l1.592 1.59-1.592 1.592a.75.75 0 0 0 0 1.06.75.75 0 0 0 1.062 0l1.59-1.59 1.592 1.59a.75.75 0 0 0 1.06 0 .75.75 0 0 0 0-1.06L7.183 5.12l1.59-1.59a.75.75 0 0 0 0-1.062.75.75 0 0 0-1.06 0L6.12 4.06 4.53 2.468A.75.75 0 0 0 4 2.25zm8 2a.75.75 0 0 0-.75.75.75.75 0 0 0 .75.75h4c.75 0 .92.265 1.08.586s.17.664.17.664v9.357c-1.15.33-2 1.393-2 2.643 0 1.51 1.24 2.75 2.75 2.75s2.75-1.24 2.75-2.75c0-1.25-.85-2.313-2-2.643V7s.01-.657-.33-1.336S17.25 4.25 16 4.25zm-6 6a.75.75 0 0 0-.75.75v5.357c-1.15.33-2 1.393-2 2.643 0 1.51 1.24 2.75 2.75 2.75S8.75 20.51 8.75 19c0-1.25-.85-2.313-2-2.643V11a.75.75 0 0 0-.75-.75zm0 7.5c.7 0 1.25.55 1.25 1.25S6.7 20.25 6 20.25 4.75 19.7 4.75 19 5.3 17.75 6 17.75zm12 0c.7 0 1.25.55 1.25 1.25s-.55 1.25-1.25 1.25-1.25-.55-1.25-1.25.55-1.25 1.25-1.25z"/></svg>