<svg xmlns="http://www.w3.org/2000/svg" width="24" height="24" viewBox="0 0 24 24"><path d="M12 1.25c-5.802 0-8.36 1.353-9.203 1.953-.4.285-.558.77-.502 1.19l1.488-.198a.28.28 0 0 1-.117.23c.014-.01.102-.04.12-.052l.005.313a2 2 0 0 1-.252-.207L2.461 5.52c.364.378.823.68 1.357.93l.092 5.598a3.6 3.6 0 0 0-.48.463l.496.424.002.127-.498.425q.228.265.511.485l.053 3.164a4.75 4.75 0 0 0 2.352 3.496l.32.183a10.75 10.75 0 0 0 10.668 0l.32-.183a4.75 4.75 0 0 0 2.352-3.496l.473-3.553q.047-.046.091-.096l-.07-.06 1.205-9.035a1.26 1.26 0 0 0-.502-1.19C20.36 2.603 17.802 1.25 12 1.25zm0 1.5c5.398 0 7.56 1.185 8.193 1.615l-.048.364c-.564.378-1.576.776-2.832 1.037-1.54.319-3.428.484-5.313.484s-3.774-.165-5.312-.484c-1.257-.261-2.269-.66-2.833-1.037l-.048-.364C4.439 3.935 6.602 2.75 12 2.75zM4.102 6.576c.666.276 1.437.483 2.28.658 1.676.348 3.646.516 5.618.516s3.942-.168 5.617-.516c.844-.175 1.615-.382 2.281-.658l-.658 4.94c-.638-.32-1.39-.554-2.213-.746-1.504-.351-3.264-.52-5.027-.52s-3.523.169-5.027.52c-.823.192-1.575.426-2.213.746zM12 11.75c1.666 0 3.334.165 4.688.48.856.2 1.577.478 2.085.764-.837.456-2.248.885-3.865 1.084-1.23.151-2.572.204-3.879.154-1.493-.056-2.939-.248-4.101-.558-.696-.186-1.28-.426-1.711-.672.51-.289 1.233-.57 2.096-.772 1.353-.315 3.021-.48 4.687-.48zm-6.82 2.922c.418.174.875.321 1.361.451 1.311.35 2.848.547 4.43.607 1.384.053 2.802 0 4.12-.162 1.395-.171 2.681-.428 3.725-.873l-.298 2.244a3.24 3.24 0 0 1-1.608 2.391l-.32.184a9.25 9.25 0 0 1-9.18 0l-.318-.184H7.09a3.24 3.24 0 0 1-1.608-2.39z"/></svg>