<svg xmlns="http://www.w3.org/2000/svg" width="24" height="24" viewBox="0 0 24 24"><path d="M8 2.25A5.76 5.76 0 0 0 2.25 8v8A5.76 5.76 0 0 0 8 21.75h8A5.76 5.76 0 0 0 21.75 16V8A5.76 5.76 0 0 0 16 2.25zm0 1.5h8A4.24 4.24 0 0 1 20.25 8v8A4.24 4.24 0 0 1 16 20.25H8A4.24 4.24 0 0 1 3.75 16V8A4.24 4.24 0 0 1 8 3.75zm4.11 2.5c-3.22 0-5.86 2.575-5.86 5.75s2.64 5.75 5.86 5.75c1.92 0 3.357-.749 4.261-1.797s1.298-2.342 1.377-3.484l.057-.803h-4.963v1.5h3.097c-.155.632-.262 1.294-.705 1.807-.639.74-1.575 1.277-3.125 1.277-2.425 0-4.359-1.903-4.359-4.25s1.934-4.25 4.36-4.25c1.137 0 2.166.423 2.939 1.113l.998-1.119a5.9 5.9 0 0 0-3.938-1.494z"/></svg>