<svg xmlns="http://www.w3.org/2000/svg" width="24" height="24" viewBox="0 0 24 24"><path d="m14.857 2.25-5.714.004a.8.8 0 0 0-.264.11l-.08-.026-.022.068a.8.8 0 0 0-.22.2l-.059.015-7.143 12 .02.078a.75.75 0 0 0-.125.305.75.75 0 0 0 .125.305l-.02.08 3.577 5.996.058.015a.8.8 0 0 0 .219.2l.021.066a.8.8 0 0 0 .178.016.8.8 0 0 0 .166.068h6.43a.75.75 0 0 0 .75-.75.75.75 0 0 0-.75-.75H6.807l2.318-4.496H12.5a.75.75 0 0 0 .75-.75.75.75 0 0 0-.75-.75H9.898l2.104-4.078 1.377 2.668a.75.75 0 0 0 1.01.322.75.75 0 0 0 .322-1.01l-1.867-3.615 2.064-4.004 5.95 9.852a.75.75 0 0 0 1.03.254.75.75 0 0 0 .255-1.032l-6.643-11-.02-.004a.75.75 0 0 0-.279-.273.8.8 0 0 0-.283-.023zm-1.23 1.5L12 6.904l-1.627-3.15zm-4.531.797 2.06 3.992-2.945 5.715H3.318zM3.32 15.754h4.116l-1.909 3.701zM23 16.25a.75.75 0 0 0-.531.219L18 20.937l-2.469-2.468a.75.75 0 0 0-1.062 0 .75.75 0 0 0 0 1.062l3 3a.75.75 0 0 0 1.062 0l5-5a.75.75 0 0 0 0-1.062.75.75 0 0 0-.531-.219z"/></svg>