<svg xmlns="http://www.w3.org/2000/svg" width="24" height="24" viewBox="0 0 24 24"><path d="M13.088 2.236a2.74 2.74 0 0 0-1.965.748L6.23 7.627a2.763 2.763 0 0 0-.101 3.889 2.763 2.763 0 0 0 3.889.101l.232-.22V19c0 1.51 1.24 2.75 2.75 2.75s2.75-1.24 2.75-2.75V5.21a2.74 2.74 0 0 0-.738-2.122 2.74 2.74 0 0 0-1.924-.852zM13 3.75c.7 0 1.25.55 1.25 1.25v.203c-.046.251-.17.491-.373.684L11.75 7.904V5a1.25 1.25 0 0 1 .406-.928l.037-.031.012-.012c.215-.175.491-.279.795-.279zm-2.75 2.133v3.445L8.984 10.53a1.24 1.24 0 0 1-1.767-.047 1.237 1.237 0 0 1 .047-1.765zm4 1.719V19c0 .7-.55 1.25-1.25 1.25s-1.25-.55-1.25-1.25V9.973z"/></svg>