<svg xmlns="http://www.w3.org/2000/svg" width="24" height="24" viewBox="0 0 24 24"><path d="M4.5 7.75A4.26 4.26 0 0 0 .25 12a4.26 4.26 0 0 0 4.25 4.25A4.24 4.24 0 0 0 8.75 12a.75.75 0 0 0-.75-.75H5a.75.75 0 0 0-.75.75.75.75 0 0 0 .75.75h1.95c-.346 1.14-1.198 2-2.45 2A2.74 2.74 0 0 1 1.75 12 2.74 2.74 0 0 1 4.5 9.25a2.7 2.7 0 0 1 1.57.492.75.75 0 0 0 1.045-.185.75.75 0 0 0-.185-1.045A4.24 4.24 0 0 0 4.5 7.75zm6 0a.75.75 0 0 0-.75.75v7a.75.75 0 0 0 .75.75.75.75 0 0 0 .75-.75v-2.05h2.107c.358 0 1.047.03 1.72-.366.672-.395 1.173-1.264 1.173-2.484s-.501-2.09-1.174-2.485-1.361-.365-1.719-.365zm9.25 0a2.51 2.51 0 0 0-2.5 2.5c0 1.372 1.128 2.5 2.5 2.5h1.5c.561 0 1 .439 1 1s-.439 1-1 1H18a.75.75 0 0 0-.75.75.75.75 0 0 0 .75.75h3.25c1.372 0 2.5-1.128 2.5-2.5s-1.128-2.5-2.5-2.5h-1.5c-.561 0-1-.439-1-1s.439-1 1-1H22a.75.75 0 0 0 .75-.75.75.75 0 0 0-.75-.75zm-8.5 1.5h2.107c.358 0 .739.029.96.158.22.13.433.312.433 1.192s-.213 1.061-.434 1.191c-.22.13-.601.158-.959.158H11.25z"/></svg>