<svg xmlns="http://www.w3.org/2000/svg" width="24" height="24" viewBox="0 0 24 24"><path d="M11.5 3.32a1.35 1.35 0 0 0-.604.143l-8.658 4.33c-.952.476-.952 1.938 0 2.414l1.512.756v4.95c0 1.06.613 2.029 1.57 2.483l5 2.374a2.75 2.75 0 0 0 2.36 0l5-2.374a2.75 2.75 0 0 0 1.57-2.484v-4.95l1.512-.755a1.25 1.25 0 0 0 .515-.48l.473.236V13a.75.75 0 0 0 .75.75.75.75 0 0 0 .75-.75V9.5a.75.75 0 0 0-.414-.67l-2-1-.027-.01-.047-.027-8.658-4.33a1.35 1.35 0 0 0-.604-.143zm0 1.518L19.822 9 11.5 13.162 4.813 9.818 3.178 9zm-6.25 6.875 5.646 2.824c.38.19.828.19 1.208 0l5.646-2.824v4.2c0 .483-.275.92-.713 1.128h-.002l-4.998 2.375c-.339.161-.733.16-1.072 0h-.002l-4.998-2.375h-.002a1.25 1.25 0 0 1-.713-1.129z"/></svg>