<svg xmlns="http://www.w3.org/2000/svg" width="24" height="24" viewBox="0 0 24 24"><path d="M10.947 1.254a.8.8 0 0 0-.29.082C5.355 1.998 1.25 6.526 1.25 12c0 5.928 4.822 10.75 10.75 10.75 5.193 0 9.539-3.693 10.535-8.602a.75.75 0 0 0-.586-.882.8.8 0 0 0-.181.011.8.8 0 0 0-.192.01l-.02.006a1 1 0 0 0-.138.025c-.349.142-1.124.16-1.69-.115s-.978-.703-.978-1.703a.75.75 0 0 0-.824-.746c-2.318.232-3.75-.454-4.424-1.43s-.704-2.374.228-3.94a.75.75 0 0 0-.644-1.134c-1.062 0-1.673-.857-1.416-1.867a.75.75 0 0 0 .076-.346v-.062a.75.75 0 0 0-.51-.686.8.8 0 0 0-.289-.035zm9.553.996c-.681 0-1.25.568-1.25 1.25s.569 1.25 1.25 1.25 1.25-.568 1.25-1.25-.569-1.25-1.25-1.25zm-10.355.688a3 3 0 0 0 2.015 2.58c-.694 1.666-.782 3.368.11 4.658.959 1.387 2.835 2.076 5.173 2.006.228 1.102.82 1.976 1.63 2.369.556.27 1.141.397 1.698.392A9.25 9.25 0 0 1 12 21.25 9.24 9.24 0 0 1 2.75 12a9.244 9.244 0 0 1 7.395-9.062zM20.5 3.25c.13 0 .25.12.25.25s-.12.25-.25.25-.25-.12-.25-.25.12-.25.25-.25zm-3.477 2a.75.75 0 0 0-.57.248l-.01.01a.75.75 0 0 0 .055 1.06.75.75 0 0 0 1.059-.056l.011-.012a.75.75 0 0 0-.056-1.059.75.75 0 0 0-.489-.191zM6.5 8.25c-.681 0-1.25.569-1.25 1.25s.569 1.25 1.25 1.25 1.25-.569 1.25-1.25-.569-1.25-1.25-1.25zm14.47 0a.75.75 0 0 0-.517.248l-.01.01a.75.75 0 0 0 .055 1.06.75.75 0 0 0 1.059-.056l.011-.012a.75.75 0 0 0-.056-1.059.75.75 0 0 0-.541-.191zm-14.47 1c.13 0 .25.12.25.25s-.12.25-.25.25-.25-.12-.25-.25.12-.25.25-.25zm4.525 1.998a.75.75 0 0 0-.572.248l-.01.012a.75.75 0 0 0 .055 1.058.75.75 0 0 0 1.059-.054l.01-.012a.75.75 0 0 0-.055-1.059.75.75 0 0 0-.487-.193zm-4 3a.75.75 0 0 0-.572.248l-.01.012a.75.75 0 0 0 .055 1.058.75.75 0 0 0 1.059-.054l.01-.012a.75.75 0 0 0-.055-1.059.75.75 0 0 0-.487-.193zm9.946.002a.75.75 0 0 0-.518.246l-.01.012a.75.75 0 0 0 .055 1.058.75.75 0 0 0 1.059-.054l.01-.012a.75.75 0 0 0-.055-1.059.75.75 0 0 0-.541-.191zm-4.971 2c-.958 0-1.75.792-1.75 1.75s.792 1.75 1.75 1.75 1.75-.792 1.75-1.75-.792-1.75-1.75-1.75zm0 1.5a.24.24 0 0 1 .25.25.24.24 0 0 1-.25.25.24.24 0 0 1-.25-.25.24.24 0 0 1 .25-.25z"/></svg>