<svg xmlns="http://www.w3.org/2000/svg" width="24" height="24" viewBox="0 0 24 24"><path d="M9.6 2.25A1.36 1.36 0 0 0 8.25 3.6v3.65H4c-1.51 0-2.75 1.24-2.75 2.75v9c0 1.51 1.24 2.75 2.75 2.75h16c1.51 0 2.75-1.24 2.75-2.75v-9c0-1.51-1.24-2.75-2.75-2.75h-4.25V3.6a1.36 1.36 0 0 0-1.35-1.35zm.15 1.5h4.5v3.5h-4.5zM4 8.75h4.25V14a.75.75 0 0 0 .75.75.75.75 0 0 0 .75-.75V8.75h4.5V14a.75.75 0 0 0 .75.75.75.75 0 0 0 .75-.75V8.75H20c.7 0 1.25.55 1.25 1.25v9c0 .7-.55 1.25-1.25 1.25H4c-.7 0-1.25-.55-1.25-1.25v-9c0-.7.55-1.25 1.25-1.25z"/></svg>