<svg xmlns="http://www.w3.org/2000/svg" width="24" height="24" viewBox="0 0 24 24"><path d="M12 3.25c-4.824 0-8.75 3.926-8.75 8.75s3.926 8.75 8.75 8.75 8.75-3.926 8.75-8.75S16.824 3.25 12 3.25zm-8.072.5a.75.75 0 0 0-.524.238A11.72 11.72 0 0 0 .25 12a11.72 11.72 0 0 0 3.154 8.012.75.75 0 0 0 1.06.037.75.75 0 0 0 .038-1.06A10.2 10.2 0 0 1 1.75 12c0-2.705 1.044-5.157 2.752-6.988a.75.75 0 0 0-.037-1.06.75.75 0 0 0-.537-.202zm16.144 0a.75.75 0 0 0-.537.201.75.75 0 0 0-.037 1.06A10.2 10.2 0 0 1 22.25 12c0 2.705-1.044 5.157-2.752 6.988a.75.75 0 0 0 .037 1.06.75.75 0 0 0 1.06-.036A11.72 11.72 0 0 0 23.75 12a11.72 11.72 0 0 0-3.154-8.012.75.75 0 0 0-.524-.238zM12 4.75A7.24 7.24 0 0 1 19.25 12 7.24 7.24 0 0 1 12 19.25 7.24 7.24 0 0 1 4.75 12 7.24 7.24 0 0 1 12 4.75zm0 2.5a.75.75 0 0 0-.75.75v1a.75.75 0 0 0 .75.75.75.75 0 0 0 .75-.75V8a.75.75 0 0 0-.75-.75zm0 4a.75.75 0 0 0-.75.75v4a.75.75 0 0 0 .75.75.75.75 0 0 0 .75-.75v-4a.75.75 0 0 0-.75-.75z"/></svg>