<svg xmlns="http://www.w3.org/2000/svg" width="24" height="24" viewBox="0 0 24 24"><path d="M10 4.25a2.76 2.76 0 0 0-2.447 1.506 4.75 4.75 0 0 0-3.307 1.588L1.44 10.502a.75.75 0 0 0 .063 1.059.75.75 0 0 0 1.059-.063l2.806-3.156A3.25 3.25 0 0 1 7.25 7.297v5.68l-.627.375a.75.75 0 0 0-.271 1.025.75.75 0 0 0 1.025.271s1.98-1.153 4.039-2.525c.972-.647 1.708-.335 2.11.201s.51 1.287-.495 2.09c-1.17.937-1.95 1.465-1.95 1.465l-.03.021-3.801 2.85H2a.75.75 0 0 0-.75.75.75.75 0 0 0 .75.75h5.5a.75.75 0 0 0 .45-.15l3.97-2.979.03-.021c.021-.015.74-.507 1.808-1.35H20c1.51 0 2.75-1.24 2.75-2.75V7c0-1.51-1.24-2.75-2.75-2.75zm0 1.5h10c.7 0 1.25.55 1.25 1.25v1.25H11a.75.75 0 0 0-.75.75.75.75 0 0 0 .75.75h10.25V13c0 .7-.55 1.25-1.25 1.25h-4.994c.425-.988.289-2.064-.281-2.824a2.85 2.85 0 0 0-1.815-1.082c-.738-.124-1.562.022-2.326.531-.648.432-1.262.823-1.834 1.182V7c0-.7.55-1.25 1.25-1.25z"/></svg>