<svg xmlns="http://www.w3.org/2000/svg" width="24" height="24" viewBox="0 0 24 24"><path d="M16.305 2.25c-1.612 0-3.127.669-4.307 1.771-2.527-2.354-6.456-2.327-8.885.19-2.485 2.576-2.485 6.727 0 9.303l7.295 7.562a2.22 2.22 0 0 0 3.113.069l.004-.004c2.559-2.464 4.932-5.11 7.36-7.627A6.7 6.7 0 0 0 22.75 8.86a6.7 6.7 0 0 0-1.865-4.65 6.37 6.37 0 0 0-4.58-1.961zM7.693 3.74c1.265 0 2.53.504 3.502 1.512l.266.275a.75.75 0 0 0 1.078 0l.266-.275a4.86 4.86 0 0 1 3.5-1.502c1.313 0 2.572.538 3.502 1.502a5.2 5.2 0 0 1 1.443 3.61c0 1.354-.52 2.654-1.443 3.61-2.453 2.543-4.816 5.172-7.32 7.585a.704.704 0 0 1-.999-.024l-7.295-7.56c-1.925-1.996-1.925-5.226 0-7.221.972-1.008 2.236-1.512 3.5-1.512z"/></svg>