<svg xmlns="http://www.w3.org/2000/svg" width="24" height="24" viewBox="0 0 24 24"><path d="M12 2.32a1.35 1.35 0 0 0-.604.143L1.664 7.33a.75.75 0 0 0-.334 1.006.75.75 0 0 0 1.006.334L12 3.838l9.664 4.832a.75.75 0 0 0 1.006-.334.75.75 0 0 0-.334-1.006l-9.732-4.867A1.35 1.35 0 0 0 12 2.32zm0 4.93c-1.008 0-1.789.48-2.209 1.063A2.88 2.88 0 0 0 9.25 10v1.396c-.55.171-1 .602-1 1.204v2.8c0 .737.613 1.35 1.35 1.35h4.8a1.36 1.36 0 0 0 1.35-1.35v-2.8c0-.602-.45-1.033-1-1.204V10c0-.483-.121-1.104-.541-1.687-.42-.584-1.2-1.063-2.209-1.063zm0 1.5c.592 0 .812.188.992.438s.258.629.258.812v1.25h-2.5V10c0-.183.078-.563.258-.812s.4-.438.992-.438zm-8 1.5a.75.75 0 0 0-.75.75v8c0 1.51 1.24 2.75 2.75 2.75h12c1.51 0 2.75-1.24 2.75-2.75v-8a.75.75 0 0 0-.75-.75.75.75 0 0 0-.75.75v8c0 .7-.55 1.25-1.25 1.25H6c-.7 0-1.25-.55-1.25-1.25v-8a.75.75 0 0 0-.75-.75zm5.75 2.5h4.5v2.5h-4.5z"/></svg>