<svg xmlns="http://www.w3.org/2000/svg" width="24" height="24" viewBox="0 0 24 24"><path d="M12 2.32a1.35 1.35 0 0 0-.604.143L1.664 7.33a.75.75 0 0 0-.334 1.006.75.75 0 0 0 1.006.334L12 3.838l9.664 4.832a.75.75 0 0 0 1.006-.334.75.75 0 0 0-.334-1.006l-9.732-4.867A1.35 1.35 0 0 0 12 2.32zm-8 7.93a.75.75 0 0 0-.75.75v8c0 1.51 1.24 2.75 2.75 2.75h12c1.51 0 2.75-1.24 2.75-2.75v-8a.75.75 0 0 0-.75-.75.75.75 0 0 0-.75.75v8c0 .7-.55 1.25-1.25 1.25H6c-.7 0-1.25-.55-1.25-1.25v-8a.75.75 0 0 0-.75-.75zm8 2c-1.51 0-2.75 1.24-2.75 2.75v3a.75.75 0 0 0 .75.75.75.75 0 0 0 .75-.75v-3c0-.7.55-1.25 1.25-1.25s1.25.55 1.25 1.25v3a.75.75 0 0 0 .75.75.75.75 0 0 0 .75-.75v-3c0-1.51-1.24-2.75-2.75-2.75z"/></svg>