<svg xmlns="http://www.w3.org/2000/svg" width="24" height="24" viewBox="0 0 24 24"><path d="M4 2.25a.75.75 0 0 0-.746.828l1.777 17.09a.75.75 0 0 0 .528.639l6.22 1.91a.75.75 0 0 0 .442 0l6.22-1.91a.75.75 0 0 0 .528-.639l1.777-17.09A.75.75 0 0 0 20 2.25zm.832 1.5h14.336l-1.64 15.77L12 21.215 6.473 19.52zM7.5 6.25a.75.75 0 0 0-.746.832l.5 4.5A.75.75 0 0 0 8 12.25h7.18l-.381 4.17-2.799.8-2.805-.802-.199-1.992a.75.75 0 0 0-.82-.672.75.75 0 0 0-.672.82l.25 2.5a.75.75 0 0 0 .54.647l3.5 1a.75.75 0 0 0 .411 0l3.5-1a.75.75 0 0 0 .541-.653l.5-5.5A.75.75 0 0 0 16 10.75H8.672l-.334-3H17a.75.75 0 0 0 .75-.75.75.75 0 0 0-.75-.75z"/></svg>