<svg xmlns="http://www.w3.org/2000/svg" width="24" height="24" viewBox="0 0 24 24"><path d="M12 2.25a.75.75 0 0 0-.75.75v10.188l-2.219-2.22a.75.75 0 0 0-1.062 0 .75.75 0 0 0 0 1.063l3.5 3.5a.75.75 0 0 0 1.062 0l3.5-3.5a.75.75 0 0 0 0-1.062.75.75 0 0 0-1.062 0l-2.219 2.219V3a.75.75 0 0 0-.75-.75zm-8 10a.75.75 0 0 0-.75.75v6c0 1.51 1.24 2.75 2.75 2.75h12c1.51 0 2.75-1.24 2.75-2.75v-6a.75.75 0 0 0-.75-.75.75.75 0 0 0-.75.75v6c0 .7-.55 1.25-1.25 1.25H6c-.7 0-1.25-.55-1.25-1.25v-6a.75.75 0 0 0-.75-.75z"/></svg>