<svg xmlns="http://www.w3.org/2000/svg" width="24" height="24" viewBox="0 0 24 24"><path d="M15.24 2.77a4.73 4.73 0 0 0-3.357 1.386c-1.661 1.661-1.747 4.227-.424 6.08l-5.225 5.225-.01.008-.007.01-2.82 2.82a.75.75 0 0 0 0 1.06l2.12 2.121a.75.75 0 0 0 1.061 0 .75.75 0 0 0 0-1.06l-1.59-1.592 1.766-1.765 1.592 1.59a.75.75 0 0 0 1.06 0 .75.75 0 0 0 0-1.061L7.816 16l4.704-4.703c1.853 1.323 4.419 1.237 6.08-.424a4.76 4.76 0 0 0 0-6.717 4.74 4.74 0 0 0-3.36-1.386zm0 1.49c.83 0 1.661.32 2.3.957a3.24 3.24 0 0 1 0 4.596 3.24 3.24 0 0 1-4.597 0 3.24 3.24 0 0 1 0-4.596 3.24 3.24 0 0 1 2.297-.957zm2.752 9.99a.75.75 0 0 0-.75.75v2.25h-2.25a.75.75 0 0 0-.75.75.75.75 0 0 0 .75.75h2.25V21a.75.75 0 0 0 .75.75.75.75 0 0 0 .75-.75v-2.25h2.25a.75.75 0 0 0 .75-.75.75.75 0 0 0-.75-.75h-2.25V15a.75.75 0 0 0-.75-.75z"/></svg>