<svg xmlns="http://www.w3.org/2000/svg" width="24" height="24" viewBox="0 0 24 24"><path d="M12 5.596c-.386 0-.772.158-1.037.476l-4.219 5.065a1.355 1.355 0 0 0 0 1.726l4.219 5.065c.53.636 1.544.636 2.074 0l4.219-5.065a1.355 1.355 0 0 0 0-1.726l-4.219-5.065A1.34 1.34 0 0 0 12 5.596zm0 1.576L16.023 12 12 16.828 7.977 12zM2 11.25a.75.75 0 0 0-.75.75.75.75 0 0 0 .75.75h2a.75.75 0 0 0 .75-.75.75.75 0 0 0-.75-.75zm18 0a.75.75 0 0 0-.75.75.75.75 0 0 0 .75.75h2a.75.75 0 0 0 .75-.75.75.75 0 0 0-.75-.75z"/></svg>