<svg xmlns="http://www.w3.org/2000/svg" width="24" height="24" viewBox="0 0 24 24"><path d="M12 1.25C6.072 1.25 1.25 6.072 1.25 12S6.072 22.75 12 22.75 22.75 17.928 22.75 12 17.928 1.25 12 1.25zm0 1.5A9.24 9.24 0 0 1 21.25 12 9.24 9.24 0 0 1 12 21.25 9.24 9.24 0 0 1 2.75 12 9.24 9.24 0 0 1 12 2.75zm4.877 5a.75.75 0 0 0-.441.14.75.75 0 0 0-.17 1.048q.152.21.283.437a.75.75 0 0 0 1.023.273.75.75 0 0 0 .274-1.023 7 7 0 0 0-.364-.562.75.75 0 0 0-.605-.313zm.926 5a.75.75 0 0 0-.719.563 5.26 5.26 0 0 1-3.771 3.771.75.75 0 0 0-.54.914.75.75 0 0 0 .915.54 6.76 6.76 0 0 0 4.85-4.85.75.75 0 0 0-.54-.915.8.8 0 0 0-.195-.023z"/></svg>