<svg xmlns="http://www.w3.org/2000/svg" width="24" height="24" viewBox="0 0 24 24"><path d="M4.97 5.25a.75.75 0 0 0-.517.248l-.01.01a.75.75 0 0 0 .055 1.06.75.75 0 0 0 1.059-.056l.011-.012a.75.75 0 0 0-.056-1.059.75.75 0 0 0-.541-.191zm4.03 0a.75.75 0 0 0-.75.75.75.75 0 0 0 .75.75h11a.75.75 0 0 0 .75-.75.75.75 0 0 0-.75-.75zm-3.975 5.998a.75.75 0 0 0-.572.248l-.01.012a.75.75 0 0 0 .055 1.058.75.75 0 0 0 1.059-.054l.01-.012a.75.75 0 0 0-.055-1.059.75.75 0 0 0-.487-.193zM9 11.25a.75.75 0 0 0-.75.75.75.75 0 0 0 .75.75h11a.75.75 0 0 0 .75-.75.75.75 0 0 0-.75-.75zm-2.4 4.6a.75.75 0 0 0-.53.22l-1.468 1.47-.272-.27a.75.75 0 0 0-1.06 0 .75.75 0 0 0 0 1.06l.8.8a.75.75 0 0 0 1.06 0l2-2a.75.75 0 0 0 0-1.06.75.75 0 0 0-.53-.22zm2.4 1.4a.75.75 0 0 0-.75.75.75.75 0 0 0 .75.75h11a.75.75 0 0 0 .75-.75.75.75 0 0 0-.75-.75z"/></svg>