<svg xmlns="http://www.w3.org/2000/svg" width="24" height="24" viewBox="0 0 24 24"><path d="M12 1.25c-5.566 0-10.158 4.245-10.697 9.676a.75.75 0 0 0 .672.82.75.75 0 0 0 .82-.672A9.244 9.244 0 0 1 12 2.75a9.24 9.24 0 0 1 7.936 4.5H18a.75.75 0 0 0-.75.75.75.75 0 0 0 .75.75h3.4a1.36 1.36 0 0 0 1.35-1.35V4a.75.75 0 0 0-.75-.75.75.75 0 0 0-.75.75v2.521A10.75 10.75 0 0 0 12 1.25zm-1.5 5a.75.75 0 0 0-.75.75v4.623l-1.555.691a.75.75 0 0 0-.38.99.75.75 0 0 0 .99.382l.945-.42V16.4c0 .737.613 1.35 1.35 1.35h4.4a.75.75 0 0 0 .75-.75.75.75 0 0 0-.75-.75h-4.25V12.6l2.055-.914a.75.75 0 0 0 .38-.99.75.75 0 0 0-.415-.395.75.75 0 0 0-.575.013l-1.445.643V7a.75.75 0 0 0-.75-.75zm11.574 6.004a.75.75 0 0 0-.82.672 9.244 9.244 0 0 1-9.205 8.324 9.24 9.24 0 0 1-7.936-4.5H6.05A.75.75 0 0 0 6.8 16a.75.75 0 0 0-.75-.75h-3.4A1.36 1.36 0 0 0 1.3 16.6V20a.75.75 0 0 0 .75.75.75.75 0 0 0 .75-.75v-2.521a10.75 10.75 0 0 0 19.947-4.405.75.75 0 0 0-.672-.82z"/></svg>