<svg xmlns="http://www.w3.org/2000/svg" width="24" height="24" viewBox="0 0 24 24"><path d="M3 4.25C1.49 4.25.25 5.49.25 7v10c0 1.51 1.24 2.75 2.75 2.75h14a.75.75 0 0 0 .75-.75.75.75 0 0 0-.75-.75H3c-.7 0-1.25-.55-1.25-1.25V7c0-.7.55-1.25 1.25-1.25h13c.7 0 1.25.55 1.25 1.25v2a.75.75 0 0 0 .75.75.75.75 0 0 0 .75-.75V7c0-1.51-1.24-2.75-2.75-2.75zm1.969 4a.75.75 0 0 0-.594.334.75.75 0 0 0 .209 1.041l4.5 3a.75.75 0 0 0 .832 0l4.5-3a.75.75 0 0 0 .209-1.041.75.75 0 0 0-1.041-.209L9.5 11.098 5.416 8.375a.75.75 0 0 0-.447-.125zm15.031 2a.75.75 0 0 0-.531.219.75.75 0 0 0 0 1.062l1.718 1.719H17a.75.75 0 0 0-.75.75.75.75 0 0 0 .75.75h4.188l-1.72 1.719a.75.75 0 0 0 0 1.062.75.75 0 0 0 1.063 0l3-3a.75.75 0 0 0 .194-.469L23.75 14a1 1 0 0 0-.025-.129v-.064l-.02-.034a.75.75 0 0 0-.174-.304l-3-3A.75.75 0 0 0 20 10.25z"/></svg>