<svg xmlns="http://www.w3.org/2000/svg" width="24" height="24" viewBox="0 0 24 24"><path d="M9 2.25a1 1 0 0 0-.115.047 1 1 0 0 0-.121-.008l-5.59 1.863a1.35 1.35 0 0 0-.924 1.28v14.736c0 .9.924 1.566 1.777 1.281L9 19.79l5.764 1.922a1 1 0 0 0 .12-.008 1 1 0 0 0 .116.047 1 1 0 0 0 .115-.047 1 1 0 0 0 .121.008l5.59-1.863c.549-.183.924-.701.924-1.28V3.832c0-.9-.924-1.566-1.777-1.281L15 4.21 9.287 2.307l-.05-.018-.012.006A.8.8 0 0 0 9 2.25zm-.75 1.79v14.42l-4.5 1.499V5.539zm1.5 0 4.5 1.5v14.42l-4.5-1.5zm10.5.001v14.418l-4.5 1.502V5.539z"/></svg>