<svg xmlns="http://www.w3.org/2000/svg" width="24" height="24" viewBox="0 0 24 24"><path d="M3.6 2.25A1.36 1.36 0 0 0 2.25 3.6v16.8c0 .737.613 1.35 1.35 1.35h16.8a1.36 1.36 0 0 0 1.35-1.35V3.6a1.36 1.36 0 0 0-1.35-1.35zm.15 1.5h16.5v16.5H3.75zM12 5.25c-3.719 0-6.75 3.031-6.75 6.75A6.745 6.745 0 0 0 12 18.75c3.719 0 6.75-3.031 6.75-6.75A6.745 6.745 0 0 0 12 5.25zm0 1.5c.352 0 .669.104 1 .17l-3.379 9.56C7.977 15.596 6.75 14.006 6.75 12A5.24 5.24 0 0 1 12 6.75zm2.379.77c1.644.884 2.871 2.474 2.871 4.48A5.24 5.24 0 0 1 12 17.25c-.352 0-.669-.104-1-.17z"/></svg>