<svg xmlns="http://www.w3.org/2000/svg" width="24" height="24" viewBox="0 0 24 24"><path d="M6 2.25C4.49 2.25 3.25 3.49 3.25 5v14c0 1.51 1.24 2.75 2.75 2.75h14a.75.75 0 0 0 .75-.75.75.75 0 0 0-.75-.75H6c-.7 0-1.25-.55-1.25-1.25S5.3 17.75 6 17.75h14a.75.75 0 0 0 .75-.75 1 1 0 0 0-.021-.176 1 1 0 0 0 .021-.11V3.6a1.36 1.36 0 0 0-1.35-1.35zm0 1.5h13.25v12.5H6c-.45 0-.874.11-1.25.305V5c0-.7.55-1.25 1.25-1.25zm5.97 2.5a.75.75 0 0 0-.517.248l-.01.01a.75.75 0 0 0 .055 1.06.75.75 0 0 0 1.059-.056l.011-.012a.75.75 0 0 0-.056-1.059.75.75 0 0 0-.541-.191zm-1.97 3a.75.75 0 0 0-.75.75.75.75 0 0 0 .75.75h4a.75.75 0 0 0 .75-.75.75.75 0 0 0-.75-.75zm2.025 2.998a.75.75 0 0 0-.572.248l-.01.012a.75.75 0 0 0 .055 1.058.75.75 0 0 0 1.059-.054l.01-.012a.75.75 0 0 0-.055-1.059.75.75 0 0 0-.487-.193z"/></svg>