<svg xmlns="http://www.w3.org/2000/svg" width="24" height="24" viewBox="0 0 24 24"><path d="M4.6 3.25A1.36 1.36 0 0 0 3.25 4.6V18a.75.75 0 0 0 .75.75.75.75 0 0 0 .75-.75V4.75H18a.75.75 0 0 0 .75-.75.75.75 0 0 0-.75-.75zm3 3A1.36 1.36 0 0 0 6.25 7.6v12.8c0 .737.613 1.35 1.35 1.35h12.8a1.36 1.36 0 0 0 1.35-1.35V7.6a1.36 1.36 0 0 0-1.35-1.35zm.15 1.5h12.5v12.5H7.75zm4.86 2.97c-.698.016-1.36.582-1.36 1.34v3.88c0 1.011 1.177 1.678 2.045 1.158l3.234-1.94c.846-.507.846-1.809 0-2.316l-3.234-1.94a1.27 1.27 0 0 0-.686-.181zm.14 1.604L15.541 14l-2.791 1.676z"/></svg>