<svg xmlns="http://www.w3.org/2000/svg" width="24" height="24" viewBox="0 0 24 24"><path d="M4.6 3.25A1.36 1.36 0 0 0 3.25 4.6V18a.75.75 0 0 0 .75.75.75.75 0 0 0 .75-.75V4.75H18a.75.75 0 0 0 .75-.75.75.75 0 0 0-.75-.75zm3 3A1.36 1.36 0 0 0 6.25 7.6v12.8c0 .737.613 1.35 1.35 1.35h12.8a1.36 1.36 0 0 0 1.35-1.35V7.6a1.36 1.36 0 0 0-1.35-1.35zm.15 1.5h12.5v9.193l-7.557-2.65a.75.75 0 0 0-.484-.006L7.75 15.762zm8.75 1.5a2.26 2.26 0 0 0-2.25 2.25 2.26 2.26 0 0 0 2.25 2.25 2.26 2.26 0 0 0 2.25-2.25 2.26 2.26 0 0 0-2.25-2.25zm0 1.5c.423 0 .75.327.75.75s-.327.75-.75.75a.74.74 0 0 1-.75-.75c0-.423.327-.75.75-.75zm-4.062 5.043 7.812 2.738v1.719H7.75v-2.908z"/></svg>