<svg xmlns="http://www.w3.org/2000/svg" width="24" height="24" viewBox="0 0 24 24"><path d="M3.6 2.25A1.36 1.36 0 0 0 2.25 3.6v16.8c0 .737.613 1.35 1.35 1.35H13a.75.75 0 0 0 .75-.75.75.75 0 0 0-.75-.75H3.75v-3.756l6.24-2.674 3.7 1.68a.75.75 0 0 0 .994-.371.75.75 0 0 0-.373-.994l-4-1.819a.75.75 0 0 0-.606-.005L3.75 14.863V3.75h16.5V13a.75.75 0 0 0 .75.75.75.75 0 0 0 .75-.75V3.6a1.36 1.36 0 0 0-1.35-1.35zm12.4 3c-1.51 0-2.75 1.24-2.75 2.75s1.24 2.75 2.75 2.75S18.75 9.51 18.75 8 17.51 5.25 16 5.25zm0 1.5c.7 0 1.25.55 1.25 1.25S16.7 9.25 16 9.25 14.75 8.7 14.75 8 15.3 6.75 16 6.75zm.879 9.379a.75.75 0 0 0-.531.219.75.75 0 0 0 0 1.06L17.938 19l-1.59 1.592a.75.75 0 0 0 0 1.06.75.75 0 0 0 1.06 0L19 20.062l1.592 1.59a.75.75 0 0 0 1.06 0 .75.75 0 0 0 0-1.06L20.062 19l1.59-1.592a.75.75 0 0 0 0-1.06.75.75 0 0 0-1.06 0L19 17.938l-1.592-1.59a.75.75 0 0 0-.53-.22z"/></svg>