<svg xmlns="http://www.w3.org/2000/svg" width="24" height="24" viewBox="0 0 24 24"><path d="M1 1.25A.75.75 0 0 0 .25 2v4a.75.75 0 0 0 .75.75.75.75 0 0 0 .75-.75V2A.75.75 0 0 0 1 1.25zm22 0a.75.75 0 0 0-.75.75v4a.75.75 0 0 0 .75.75.75.75 0 0 0 .75-.75V2a.75.75 0 0 0-.75-.75zm-18 1a.75.75 0 0 0-.75.75v2a.75.75 0 0 0 .75.75.75.75 0 0 0 .75-.75V3A.75.75 0 0 0 5 2.25zm14 0a.75.75 0 0 0-.75.75v2a.75.75 0 0 0 .75.75.75.75 0 0 0 .75-.75V3a.75.75 0 0 0-.75-.75zm-14 7a.75.75 0 0 0-.75.75v1c0 4.018 3.079 7.334 7 7.713v2.537H9a.75.75 0 0 0-.75.75.75.75 0 0 0 .75.75h6a.75.75 0 0 0 .75-.75.75.75 0 0 0-.75-.75h-2.25v-2.537c3.921-.379 7-3.695 7-7.713v-1a.75.75 0 0 0-.75-.75.75.75 0 0 0-.75.75v1c0 3.46-2.79 6.25-6.25 6.25S5.75 14.46 5.75 11v-1A.75.75 0 0 0 5 9.25z"/></svg>