<svg xmlns="http://www.w3.org/2000/svg" width="24" height="24" viewBox="0 0 24 24"><path d="M17 1.25c-1.16 0-2.245.304-3.156.836a.75.75 0 0 0-.27 1.027.75.75 0 0 0 1.026.27A4.76 4.76 0 0 1 17 2.75c1.988 0 3.605 1.164 4.092 2.635a.75.75 0 0 0 .949.476.75.75 0 0 0 .477-.947C21.8 2.746 19.57 1.25 17 1.25zm-4.72 2.908a.75.75 0 0 0-.69.469 4.6 4.6 0 0 0-.34 1.734V11a.75.75 0 0 0 .75.75.75.75 0 0 0 .75-.75V6.361a3.1 3.1 0 0 1 .23-1.172.75.75 0 0 0-.414-.976.8.8 0 0 0-.287-.055zM3.6 4.25A1.36 1.36 0 0 0 2.25 5.6v14.8c0 .737.613 1.35 1.35 1.35h8.8a1.36 1.36 0 0 0 1.35-1.35V16a.75.75 0 0 0-.75-.75.75.75 0 0 0-.75.75v4.25h-8.5V5.75H8A.75.75 0 0 0 8.75 5 .75.75 0 0 0 8 4.25zm13.4 0c-1.48 0-2.75 1.143-2.75 2.604v.792a.75.75 0 0 0 .75.75.75.75 0 0 0 .75-.75v-.792c0-.586.52-1.104 1.25-1.104s1.25.518 1.25 1.104V12a.75.75 0 0 0 .75.75.75.75 0 0 0 .75-.75V6.854c0-1.461-1.27-2.604-2.75-2.604zm5 2.814a.75.75 0 0 0-.75.75V11a.75.75 0 0 0 .75.75.75.75 0 0 0 .75-.75V7.814a.75.75 0 0 0-.75-.75zm-7 2.01a.75.75 0 0 0-.75.75V12a.75.75 0 0 0 .75.75.75.75 0 0 0 .75-.75V9.824a.75.75 0 0 0-.75-.75zM7.97 16.25a.75.75 0 0 0-.517.246l-.01.012a.75.75 0 0 0 .055 1.058.75.75 0 0 0 1.059-.054l.01-.012a.75.75 0 0 0-.055-1.059.75.75 0 0 0-.541-.191z"/></svg>