<svg xmlns="http://www.w3.org/2000/svg" width="24" height="24" viewBox="0 0 24 24"><path d="M12 1.59c-.494 0-.988.131-1.426.396l-3.5 2.121A2.75 2.75 0 0 0 5.75 6.46V10a1 1 0 0 0 .031.164l-3.207 1.943A2.75 2.75 0 0 0 1.25 14.46V19c0 1.51 1.24 2.75 2.75 2.75h7c1.51 0 2.75-1.24 2.75-2.75v-4.541c0-.96-.503-1.854-1.324-2.352l-3.5-2.12a2.75 2.75 0 0 0-1.676-.383V6.459c0-.438.227-.841.602-1.068l3.5-2.121a1.24 1.24 0 0 1 1.296 0l3.5 2.12c.375.228.602.63.602 1.069v3.14a2.75 2.75 0 0 0-1.67.377l-.633.381a.75.75 0 0 0-.258 1.03.75.75 0 0 0 1.03.256l.633-.38a1.25 1.25 0 0 1 1.29.003l3.506 2.125c.375.227.602.63.602 1.068V19c0 .7-.55 1.25-1.25 1.25h-1.25V17.6a1.36 1.36 0 0 0-1.35-1.35H16a.75.75 0 0 0-.75.75.75.75 0 0 0 .75.75h1.25v2.5H16a.75.75 0 0 0-.75.75.75.75 0 0 0 .75.75h4c1.51 0 2.75-1.24 2.75-2.75v-4.541c0-.96-.503-1.854-1.324-2.352l-3.21-1.943A1 1 0 0 0 18.25 10V6.459c0-.96-.503-1.854-1.324-2.352l-3.5-2.12A2.75 2.75 0 0 0 12 1.59zm-4.5 9.498c.224 0 .449.06.648.182l3.5 2.12c.375.228.602.63.602 1.069V19c0 .7-.55 1.25-1.25 1.25H9.75V17.6a1.36 1.36 0 0 0-1.35-1.35H6.6a1.36 1.36 0 0 0-1.35 1.35v2.65H4c-.7 0-1.25-.55-1.25-1.25v-4.541c0-.438.227-.841.602-1.068l3.5-2.121c.2-.122.424-.182.648-.182zm-.75 6.662h1.5v2.5h-1.5z"/></svg>