<svg xmlns="http://www.w3.org/2000/svg" width="24" height="24" viewBox="0 0 24 24"><path d="M4 2.25C2.49 2.25 1.25 3.49 1.25 5v14c0 1.51 1.24 2.75 2.75 2.75h16c1.51 0 2.75-1.24 2.75-2.75V5c0-1.51-1.24-2.75-2.75-2.75zm0 1.5h16c.7 0 1.25.55 1.25 1.25v1.25H2.75V5c0-.7.55-1.25 1.25-1.25zm-1.25 4h18.5V19c0 .7-.55 1.25-1.25 1.25H4c-.7 0-1.25-.55-1.25-1.25zm9.25 2.5a.75.75 0 0 0-.75.75v2.25H9a.75.75 0 0 0-.75.75.75.75 0 0 0 .75.75h2.25V17a.75.75 0 0 0 .75.75.75.75 0 0 0 .75-.75v-2.25H15a.75.75 0 0 0 .75-.75.75.75 0 0 0-.75-.75h-2.25V11a.75.75 0 0 0-.75-.75z"/></svg>