<svg xmlns="http://www.w3.org/2000/svg" width="24" height="24" viewBox="0 0 24 24"><path d="M1 7.25A.75.75 0 0 0 .25 8v7a.75.75 0 0 0 .75.75h5.75V17a.75.75 0 0 0 .75.75H11a.75.75 0 0 0 .75-.75v-1.25H23a.75.75 0 0 0 .75-.75V8a.75.75 0 0 0-.75-.75zm.75 1.5h5v5.5h-1V11a.75.75 0 0 0-.75-.75.75.75 0 0 0-.75.75v3.25h-2.5zm6.5 0h4.5v5.5H11a.75.75 0 0 0-.75.75v1.25h-2zm6 0h8v5.5h-1V11a.75.75 0 0 0-.75-.75.75.75 0 0 0-.75.75v3.25h-1V11a.75.75 0 0 0-.75-.75.75.75 0 0 0-.75.75v3.25h-3zM11 10.25a.75.75 0 0 0-.75.75v1a.75.75 0 0 0 .75.75.75.75 0 0 0 .75-.75v-1a.75.75 0 0 0-.75-.75z"/></svg>