<svg xmlns="http://www.w3.org/2000/svg" width="24" height="24" viewBox="0 0 24 24"><path d="M3.6 2.25A1.36 1.36 0 0 0 2.25 3.6v16.8c0 .737.613 1.35 1.35 1.35h16.8a1.36 1.36 0 0 0 1.35-1.35V3.6a1.36 1.36 0 0 0-1.35-1.35zm.15 1.5h16.5v16.5H3.75zM12 7.25c-.78 0-1.595.133-2.246.672-.65.54-1.004 1.438-1.004 2.578 0 .937.415 1.737 1.057 2.18.64.443 1.412.57 2.193.57.579 0 1.153-.07 1.672-.287-.063.533-.174.958-.365 1.256-.194.3-.455.53-.965.719s-1.273.312-2.342.312a.75.75 0 0 0-.75.75.75.75 0 0 0 .75.75c1.18 0 2.106-.127 2.861-.406.755-.28 1.338-.739 1.707-1.313.739-1.148.682-2.531.682-4.031a1 1 0 0 0-.02-.164q.02-.165.02-.336c0-1.14-.353-2.039-1.004-2.578-.65-.54-1.465-.672-2.246-.672zm0 1.5c.6 0 1.035.117 1.29.328.253.21.46.562.46 1.422 0 .563-.145.763-.408.945-.264.182-.742.305-1.342.305s-1.078-.123-1.342-.305c-.263-.182-.408-.382-.408-.945 0-.86.207-1.211.46-1.422.255-.21.69-.328 1.29-.328z"/></svg>