<svg xmlns="http://www.w3.org/2000/svg" width="24" height="24" viewBox="0 0 24 24"><path d="M2.6 4.25A1.36 1.36 0 0 0 1.25 5.6v13.115a1 1 0 0 0 .025.127A1 1 0 0 0 1.25 19a.75.75 0 0 0 .75.75h8c.7 0 1.25.55 1.25 1.25a.8.8 0 0 0 .05.258l.014.043a.8.8 0 0 0 .135.201l.049.049a.8.8 0 0 0 .201.135l.043.013a.8.8 0 0 0 .258.051 1 1 0 0 0 .166-.02 1 1 0 0 0 .092-.03l.03-.007.013-.007a.8.8 0 0 0 .201-.135l.049-.049a.8.8 0 0 0 .135-.201l.013-.043A.8.8 0 0 0 12.75 21c0-.7.55-1.25 1.25-1.25h8a.75.75 0 0 0 .75-.75 1 1 0 0 0-.021-.176 1 1 0 0 0 .021-.11V5.6a1.36 1.36 0 0 0-1.35-1.35H14c-.786 0-1.497.338-2 .873a2.74 2.74 0 0 0-2-.873zm.15 1.5H10c.7 0 1.25.55 1.25 1.25v11.555A2.7 2.7 0 0 0 10 18.25H2.75zm11.25 0h7.25v12.5H14c-.45 0-.874.11-1.25.305V7c0-.7.55-1.25 1.25-1.25z"/></svg>