<svg xmlns="http://www.w3.org/2000/svg" width="24" height="24" viewBox="0 0 24 24"><path d="M3.6 2.25A1.36 1.36 0 0 0 2.25 3.6v16.8c0 .737.613 1.35 1.35 1.35h16.8a1.36 1.36 0 0 0 1.35-1.35V3.6a1.36 1.36 0 0 0-1.35-1.35zm.15 1.5h16.5v16.5H3.75zm11.934 2.281q-.064 0-.127.006l-4.147.399a5.264 5.264 0 0 0-4.724 5.732 5.22 5.22 0 0 0 2.183 3.752c-.414 1.104-.598 1.904-.598 1.904a.75.75 0 0 0 .553.905.75.75 0 0 0 .905-.553s.17-.65.503-1.553c.698.24 1.453.34 2.229.266 2.927-.282 5.128-2.895 4.846-5.83l-.375-3.89a1.274 1.274 0 0 0-1.248-1.138zm-.221 1.522.351 3.65c.204 2.111-1.378 3.99-3.498 4.193a3.8 3.8 0 0 1-1.51-.158c.443-.948 1.023-1.954 1.743-2.728a.75.75 0 0 0-.04-1.059.75.75 0 0 0-.536-.201.75.75 0 0 0-.522.24c-.841.905-1.491 1.992-1.978 3.008a3.742 3.742 0 0 1 2.082-6.57z"/></svg>