<svg xmlns="http://www.w3.org/2000/svg" width="24" height="24" viewBox="0 0 24 24"><path d="M10 2.25C8.49 2.25 7.25 3.49 7.25 5v4c0 1.51 1.24 2.75 2.75 2.75h4c1.51 0 2.75-1.24 2.75-2.75V5c0-1.51-1.24-2.75-2.75-2.75zm0 1.5h1.25V6a.75.75 0 0 0 .75.75.75.75 0 0 0 .75-.75V3.75H14c.7 0 1.25.55 1.25 1.25v4c0 .7-.55 1.25-1.25 1.25h-4c-.7 0-1.25-.55-1.25-1.25V5c0-.7.55-1.25 1.25-1.25zm-6 8.5c-1.51 0-2.75 1.24-2.75 2.75v4c0 1.51 1.24 2.75 2.75 2.75h4c1.51 0 2.75-1.24 2.75-2.75v-4c0-1.51-1.24-2.75-2.75-2.75zm12 0c-1.51 0-2.75 1.24-2.75 2.75v4c0 1.51 1.24 2.75 2.75 2.75h4c1.51 0 2.75-1.24 2.75-2.75v-4c0-1.51-1.24-2.75-2.75-2.75zm-12 1.5h1.25V16a.75.75 0 0 0 .75.75.75.75 0 0 0 .75-.75v-2.25H8c.7 0 1.25.55 1.25 1.25v4c0 .7-.55 1.25-1.25 1.25H4c-.7 0-1.25-.55-1.25-1.25v-4c0-.7.55-1.25 1.25-1.25zm12 0h1.25V16a.75.75 0 0 0 .75.75.75.75 0 0 0 .75-.75v-2.25H20c.7 0 1.25.55 1.25 1.25v4c0 .7-.55 1.25-1.25 1.25h-4c-.7 0-1.25-.55-1.25-1.25v-4c0-.7.55-1.25 1.25-1.25z"/></svg>