<svg xmlns="http://www.w3.org/2000/svg" width="24" height="24" viewBox="0 0 24 24"><path d="m11.826 2.25-.023.002a9.8 9.8 0 0 0-9.184 9.441v.004a9.75 9.75 0 0 0 11.494 9.893h.002c.35-.06.682-.192.977-.387h.002a2.5 2.5 0 0 0 .73-.738l.002-.004a2.92 2.92 0 0 0 .416-2.22l.004.013a6.6 6.6 0 0 1-.127-1.252v-.004a6.25 6.25 0 0 1 3.697-5.684l.002-.002h.004a2.66 2.66 0 0 0 1.395-1.521l.043-.121v-.047c.184-.647.13-1.34-.164-1.95l-.002-.003-.002-.004a9.75 9.75 0 0 0-8.733-5.416zm.063 1.5h.47a8.25 8.25 0 0 1 7.385 4.578c.143.297.164.636.057.947l-.014.04a1.1 1.1 0 0 1-.219.365h-.002a1.1 1.1 0 0 1-.369.267 7.75 7.75 0 0 0-4.578 7.051v.004a8 8 0 0 0 .154 1.545l.002.006.002.006a1.4 1.4 0 0 1-.203 1.078l-.004.004-.002.005a1.04 1.04 0 0 1-.703.465h-.008l-.005.002a8 8 0 0 1-1.48.137h-.003a8.25 8.25 0 0 1-5.926-2.506 8.26 8.26 0 0 1-2.324-6 8.3 8.3 0 0 1 7.77-7.994zm.082 1.5a.75.75 0 0 0-.518.248l-.01.01a.75.75 0 0 0 .055 1.06.75.75 0 0 0 1.059-.056l.011-.012a.75.75 0 0 0-.056-1.059.75.75 0 0 0-.541-.191zm-4 2a.75.75 0 0 0-.518.248l-.01.01a.75.75 0 0 0 .055 1.06.75.75 0 0 0 1.059-.056l.011-.012a.75.75 0 0 0-.056-1.059.75.75 0 0 0-.541-.191zm8 0a.75.75 0 0 0-.518.248l-.01.01a.75.75 0 0 0 .055 1.06.75.75 0 0 0 1.059-.056l.011-.012a.75.75 0 0 0-.056-1.059.75.75 0 0 0-.541-.191zm-9.946 3.998a.75.75 0 0 0-.572.248l-.01.012a.75.75 0 0 0 .055 1.058.75.75 0 0 0 1.059-.054l.01-.012a.75.75 0 0 0-.055-1.059.75.75 0 0 0-.487-.193zm2 4a.75.75 0 0 0-.572.248l-.01.012a.75.75 0 0 0 .055 1.058.75.75 0 0 0 1.059-.054l.01-.012a.75.75 0 0 0-.055-1.059.75.75 0 0 0-.487-.193z"/></svg>