<svg xmlns="http://www.w3.org/2000/svg" width="24" height="24" viewBox="0 0 24 24"><path d="M12 1.25C6.072 1.25 1.25 6.072 1.25 12S6.072 22.75 12 22.75 22.75 17.928 22.75 12 17.928 1.25 12 1.25zm0 1.5A9.24 9.24 0 0 1 21.25 12 9.24 9.24 0 0 1 12 21.25 9.24 9.24 0 0 1 2.75 12 9.24 9.24 0 0 1 12 2.75zm-2 5a.75.75 0 0 0-.75.75v7a.75.75 0 0 0 .75.75.75.75 0 0 0 .75-.75v-2.05h2.107c.358 0 1.047.03 1.72-.366.672-.395 1.173-1.264 1.173-2.484s-.501-2.09-1.174-2.485-1.361-.365-1.719-.365zm.75 1.5h2.107c.358 0 .739.029.96.158.22.13.433.312.433 1.192s-.213 1.061-.434 1.191c-.22.13-.601.158-.959.158H10.75z"/></svg>