<svg xmlns="http://www.w3.org/2000/svg" width="24" height="24" viewBox="0 0 24 24"><path d="M12.537 1.25a2.373 2.373 0 0 0-2.361 2.361v3.096a2.33 2.33 0 0 0-2.01-.041c-.5.228-.879.614-1.11 1.072l-.076-.031a2.35 2.35 0 0 0-1.808.057 2.37 2.37 0 0 0-1.356 1.822.75.75 0 0 0-.086.34l.147 8.191a5.01 5.01 0 0 0 4.998 4.998h4.983c1.577 0 2.756-.44 3.535-1.418.778-.978 1.202-2.311 1.86-4.215.737-2.126-.02-3.689-.993-4.459a4.5 4.5 0 0 0-1.008-.591l1.988-6.627a2.347 2.347 0 0 0-1.595-2.916 2.346 2.346 0 0 0-2.747 1.242v-.52a2.373 2.373 0 0 0-2.36-2.361zm0 1.5a.85.85 0 0 1 .861.861v5.86l.002.013a1 1 0 0 0 .022.131 1 1 0 0 0 .02.1 1 1 0 0 0 .052.105 1 1 0 0 0 .059.104 1 1 0 0 0 .072.072 1 1 0 0 0 .1.092 1 1 0 0 0 .091.045 1 1 0 0 0 .116.053l.015.007a1 1 0 0 0 .114.014l.087.014.014-.002a1 1 0 0 0 .131-.022 1 1 0 0 0 .1-.02 1 1 0 0 0 .105-.052 1 1 0 0 0 .104-.059 1 1 0 0 0 .082-.082 1 1 0 0 0 .08-.086 1 1 0 0 0 .056-.115 1 1 0 0 0 .043-.092l.008-.017 1.33-4.766a.82.82 0 0 1 1.031-.578c.457.13.707.589.57 1.043l-2.007 6.691-3.203-.296a3.07 3.07 0 0 0-.256-1.557l-.695-1.543a.8.8 0 0 0 .035-.223V3.611a.85.85 0 0 1 .861-.861zM9.115 7.953a.82.82 0 0 1 .78.494l1.074 2.381c.116.257.156.537.127.813a2.3 2.3 0 0 0-1.532.623 2.3 2.3 0 0 0-.205-.98l-1.037-2.3a.82.82 0 0 1 .467-.953.9.9 0 0 1 .326-.078zM6.131 9.05a.835.835 0 0 1 .79.484q.05.147.12.29l.135.273.006.008.808 1.796a.85.85 0 0 1-.428 1.137.85.85 0 0 1-1.142-.43l-1.055-2.341a.85.85 0 0 1 .428-1.137.9.9 0 0 1 .338-.08zm4.906 4.096a1 1 0 0 1 .16 0l4.746.44c.005.002.785.14 1.385.614.602.476 1.09 1.11.508 2.793-.66 1.906-1.114 3.137-1.617 3.77-.504.633-1.009.853-2.362.853H8.875a3.486 3.486 0 0 1-3.498-3.498v-.008l-.08-4.466a2.38 2.38 0 0 0 2.889.76 2.4 2.4 0 0 0 .654-.448c.013.99.67 1.882 1.639 2.166l2.892.85-.185.37a.75.75 0 0 0 .335 1.007.75.75 0 0 0 1.006-.336l.493-.985a.94.94 0 0 0-.567-1.3l-3.55-1.045a.78.78 0 0 1-.561-.838.77.77 0 0 1 .695-.7z"/></svg>