<svg xmlns="http://www.w3.org/2000/svg" width="24" height="24" viewBox="0 0 24 24"><path d="M8 3.236c-2.084 0-4.169.845-5.576 2.534a.75.75 0 0 0 .096 1.056.75.75 0 0 0 1.056-.096c2.185-2.622 6.663-2.622 8.848 0a.75.75 0 0 0 1.056.096.75.75 0 0 0 .096-1.056C12.17 4.08 10.084 3.236 8 3.236zm12 .897c-.736 0-1.474.278-2.031.836l-1 1L6.166 16.773a1.75 1.75 0 0 0-.46.813l-.935 3.732a.75.75 0 0 0 .91.91l3.733-.933a1.75 1.75 0 0 0 .813-.461L21.03 10.031l1-1a2.885 2.885 0 0 0 0-4.062A2.86 2.86 0 0 0 20 4.133zm0 1.49c.35 0 .698.137.969.408a1.36 1.36 0 0 1 0 1.938l-.469.468L18.563 6.5l.468-.469c.271-.27.62-.408.969-.408zM8 6.012A4.47 4.47 0 0 0 4.4 7.8a.75.75 0 0 0 .15 1.049.75.75 0 0 0 1.05-.15 2.983 2.983 0 0 1 4.8 0 .75.75 0 0 0 1.05.15.75.75 0 0 0 .15-1.05A4.47 4.47 0 0 0 8 6.013zm9.5 1.55L19.438 9.5 9.166 19.773a.25.25 0 0 1-.117.067l-2.518.629.63-2.518a.26.26 0 0 1 .066-.117zM8.023 9a.75.75 0 0 0-.57.248l-.01.01a.75.75 0 0 0 .055 1.06.75.75 0 0 0 1.059-.056l.011-.012a.75.75 0 0 0-.056-1.059A.75.75 0 0 0 8.023 9z"/></svg>