<svg xmlns="http://www.w3.org/2000/svg" width="24" height="24" viewBox="0 0 24 24"><path d="M4.143 2.25a.75.75 0 0 0-.739.621l-3.142 18A.75.75 0 0 0 1 21.75h22a.75.75 0 0 0 .738-.879l-3.142-18a.75.75 0 0 0-.739-.621zm.63 1.5h2.452l-.266 3H4.25zm3.96 0h2.517v3H8.467zm4.017 0h2.518l.265 3H12.75zm4.025 0h2.452l.523 3h-2.709zM3.988 8.248 4 8.25h2.826l-.263 3h-3.1zm16.024 0 .525 3.002h-3.1l-.263-3H20zM8.334 8.25h2.916v3H8.07zm4.416 0h2.916l.264 3h-3.18zm-9.549 4.5H6.43l-.264 3H2.678zm4.736 0h3.313v3H7.674zm4.813 0h3.313l.263 3H12.75zm4.82 0h3.23l.523 3h-3.488zm-15.154 4.5h3.617l-.265 3H1.893zm5.125 0h3.709v3H7.275zm5.209 0h3.709l.266 3H12.75zm5.217 0h3.617l.523 3h-3.875z"/></svg>