<svg xmlns="http://www.w3.org/2000/svg" width="24" height="24" viewBox="0 0 24 24"><path d="M4.29 4.494c-1.612.032-2.905 1.499-2.67 3.139l.597 4.191q.025.176 0 .352l-.598 4.191c-.25 1.75 1.238 3.301 2.996 3.125l7.26-.726q.125-.014.25 0l7.26.726c1.758.176 3.246-1.375 2.996-3.125l-.598-4.191a1.2 1.2 0 0 1 0-.352l.598-4.191c.25-1.75-1.238-3.301-2.996-3.125l-7.26.726a1.3 1.3 0 0 1-.25 0l-7.26-.726a3 3 0 0 0-.326-.014zm.022 1.5q.075-.002.153.006l7.262.727q.273.027.546 0L19.535 6a1.3 1.3 0 0 1 .219-.002L16.55 8.4a.75.75 0 0 0-.15 1.05.75.75 0 0 0 1.048.15l3.442-2.582q.033.193.005.402l-.595 4.19a2.7 2.7 0 0 0 0 .778l.597 4.191a1.233 1.233 0 0 1-1.36 1.42l-7.263-.727a3 3 0 0 0-.546 0L4.465 18a1.3 1.3 0 0 1-.219.002L7.45 15.6a.75.75 0 0 0 .15-1.05.75.75 0 0 0-.494-.292.75.75 0 0 0-.554.142L3.11 16.982a1.3 1.3 0 0 1-.005-.402l.595-4.19a2.7 2.7 0 0 0 0-.778L3.104 7.42a1.23 1.23 0 0 1 1.209-1.426z"/></svg>