<svg xmlns="http://www.w3.org/2000/svg" width="24" height="24" viewBox="0 0 24 24"><path d="M12 3.25c-4.824 0-8.75 3.926-8.75 8.75q.001.39.035.773c-.742.656-1.337 1.29-1.742 1.905-.477.724-.775 1.539-.397 2.299.354.708 1.114.975 1.9 1.052.703.069 1.527-.005 2.456-.177A8.73 8.73 0 0 0 12 20.75c4.824 0 8.75-3.926 8.75-8.75 0-.57-.057-1.128-.162-1.668.697-.639 1.251-1.253 1.619-1.855.412-.676.656-1.442.303-2.15h-.002c-.38-.762-1.21-1.015-2.078-1.07-.736-.045-1.601.05-2.573.249A8.7 8.7 0 0 0 12 3.25zm0 1.5a7.24 7.24 0 0 1 6.912 5.05c-1.496 1.233-3.625 2.603-6.096 3.835s-4.848 2.108-6.732 2.56A7.22 7.22 0 0 1 4.75 12 7.24 7.24 0 0 1 12 4.75zm8.086 1.998q.132 0 .25.008c.628.04.817.212.83.238.012.025.044.236-.24.701-.176.287-.461.635-.822 1.012a8.8 8.8 0 0 0-1.053-1.883c.387-.05.74-.077 1.035-.076zm-.857 4.719q.02.263.021.533A7.24 7.24 0 0 1 12 19.25a7.23 7.23 0 0 1-4.785-1.799c1.871-.52 4.031-1.357 6.271-2.474 2.236-1.115 4.202-2.331 5.743-3.51zM3.62 14.52c.21.697.506 1.356.873 1.967-.517.061-.966.08-1.3.047-.543-.053-.692-.204-.704-.228-.013-.027-.04-.28.305-.803.188-.286.472-.621.826-.983z"/></svg>