<svg xmlns="http://www.w3.org/2000/svg" width="24" height="24" viewBox="0 0 24 24"><path d="M5.563 3.25a2.76 2.76 0 0 0-2.67 2.082c-.84 3.347-1.585 6.278-2.471 9.467-.56 2.013.326 3.899 1.824 4.705s3.599.405 5.008-1.568a.75.75 0 0 0-.174-1.045.75.75 0 0 0-1.047.173c-1.09 1.527-2.212 1.585-3.076 1.12s-1.48-1.58-1.09-2.983c.891-3.208 1.64-6.154 2.48-9.504.141-.56.638-.947 1.215-.947H7.25V6c0 1.51 1.24 2.75 2.75 2.75h4c1.51 0 2.75-1.24 2.75-2.75V4.75h1.688c.579 0 1.083.389 1.234.951.404 1.511 1.18 4.37 2.605 9.5.39 1.402-.225 2.518-1.09 2.983-.864.465-1.987.407-3.078-1.12a.75.75 0 0 0-1.045-.173.75.75 0 0 0-.173 1.045c1.409 1.973 3.51 2.374 5.007 1.568 1.498-.806 2.384-2.692 1.825-4.705-1.425-5.127-2.2-7.98-2.602-9.485a2.79 2.79 0 0 0-2.683-2.064zm3.187 1.5h6.5V6c0 .7-.55 1.25-1.25 1.25h-4c-.7 0-1.25-.55-1.25-1.25zM8 11.25c-1.51 0-2.75 1.24-2.75 2.75S6.49 16.75 8 16.75s2.75-1.24 2.75-2.75S9.51 11.25 8 11.25zm8 0c-1.51 0-2.75 1.24-2.75 2.75s1.24 2.75 2.75 2.75 2.75-1.24 2.75-2.75-1.24-2.75-2.75-2.75zm-8 1.5c.7 0 1.25.55 1.25 1.25S8.7 15.25 8 15.25 6.75 14.7 6.75 14 7.3 12.75 8 12.75zm8 0c.7 0 1.25.55 1.25 1.25s-.55 1.25-1.25 1.25-1.25-.55-1.25-1.25.55-1.25 1.25-1.25z"/></svg>