<svg xmlns="http://www.w3.org/2000/svg" width="24" height="24" viewBox="0 0 24 24"><path d="M12 1.25C6.072 1.25 1.25 6.072 1.25 12S6.072 22.75 12 22.75 22.75 17.928 22.75 12 17.928 1.25 12 1.25zm0 1.5A9.24 9.24 0 0 1 21.25 12 9.24 9.24 0 0 1 12 21.25 9.24 9.24 0 0 1 2.75 12 9.24 9.24 0 0 1 12 2.75zm-4 6.5c-1.51 0-2.75 1.24-2.75 2.75S6.49 14.75 8 14.75s2.75-1.24 2.75-2.75S9.51 9.25 8 9.25zm8 0c-1.51 0-2.75 1.24-2.75 2.75s1.24 2.75 2.75 2.75 2.75-1.24 2.75-2.75S17.51 9.25 16 9.25zm-8 1.5c.7 0 1.25.55 1.25 1.25S8.7 13.25 8 13.25 6.75 12.7 6.75 12 7.3 10.75 8 10.75zm8 0c.7 0 1.25.55 1.25 1.25s-.55 1.25-1.25 1.25-1.25-.55-1.25-1.25.55-1.25 1.25-1.25z"/></svg>