<svg xmlns="http://www.w3.org/2000/svg" width="24" height="24" viewBox="0 0 24 24"><path d="M12 1.25C6.072 1.25 1.25 6.072 1.25 12S6.072 22.75 12 22.75 22.75 17.928 22.75 12 17.928 1.25 12 1.25zm0 1.5a9.24 9.24 0 0 1 9.219 8.5h-5.545a3.764 3.764 0 0 0-3.674-3 3.764 3.764 0 0 0-3.674 3H2.781A9.24 9.24 0 0 1 12 2.75zm0 7c1.252 0 2.25.998 2.25 2.25s-.998 2.25-2.25 2.25A2.24 2.24 0 0 1 9.75 12c0-1.252.998-2.25 2.25-2.25zm-9.219 3h5.545c.35 1.706 1.868 3 3.674 3a3.764 3.764 0 0 0 3.674-3h5.545A9.24 9.24 0 0 1 12 21.25a9.24 9.24 0 0 1-9.219-8.5z"/></svg>