<svg xmlns="http://www.w3.org/2000/svg" width="24" height="24" viewBox="0 0 24 24"><path d="M12 2.25a.75.75 0 0 0-.75.75v1.287a7.766 7.766 0 0 0-6.963 6.963H3a.75.75 0 0 0-.75.75.75.75 0 0 0 .75.75h1.287a7.766 7.766 0 0 0 6.963 6.963V21a.75.75 0 0 0 .75.75.75.75 0 0 0 .75-.75v-1.287a7.766 7.766 0 0 0 6.963-6.963H21a.75.75 0 0 0 .75-.75.75.75 0 0 0-.75-.75h-1.287a7.766 7.766 0 0 0-6.963-6.963V3a.75.75 0 0 0-.75-.75zm0 3.5c3.46 0 6.25 2.79 6.25 6.25s-2.79 6.25-6.25 6.25S5.75 15.46 5.75 12 8.54 5.75 12 5.75z"/></svg>