<svg xmlns="http://www.w3.org/2000/svg" width="24" height="24" viewBox="0 0 24 24"><path d="M9 1.25a.75.75 0 0 0-.75.75.75.75 0 0 0 .75.75h6a.75.75 0 0 0 .75-.75.75.75 0 0 0-.75-.75zm1 2a.75.75 0 0 0-.75.75v2.486C4.752 8.23 2.939 12.26 3.133 15.822c.097 1.793.676 3.487 1.676 4.772 1 1.284 2.468 2.156 4.191 2.156h6c1.723 0 3.192-.872 4.191-2.156 1-1.285 1.579-2.98 1.676-4.772.194-3.563-1.619-7.593-6.117-9.336V4a.75.75 0 0 0-.75-.75zm.75 1.5h2.5v1.818c0 .59.376 1.083.896 1.28.97.366 1.786.845 2.465 1.402H7.39a8.7 8.7 0 0 1 2.465-1.402c.52-.197.896-.69.896-1.28zM6 10.746v.004h12v-.004c1.059 1.515 1.461 3.305 1.37 4.996-.084 1.518-.587 2.933-1.362 3.93-.776.996-1.777 1.578-3.008 1.578H9c-1.23 0-2.232-.582-3.008-1.578s-1.278-2.412-1.361-3.93c-.092-1.69.31-3.481 1.369-4.996zm5.654 1.504a.8.8 0 0 0-.193.03.75.75 0 0 0-.45.357l-1.667 3A.75.75 0 0 0 10 16.75h2.725l-1.047 1.887a.75.75 0 0 0 .29 1.02.75.75 0 0 0 1.02-.294l1.668-3A.75.75 0 0 0 14 15.25h-2.725l1.047-1.887a.75.75 0 0 0-.29-1.02.75.75 0 0 0-.378-.093z"/></svg>