<svg xmlns="http://www.w3.org/2000/svg" width="24" height="24" viewBox="0 0 24 24"><path d="M12.334 3.25c-3.15 0-5.75 2.478-5.75 5.55 0 1.6.706 3.039 1.826 4.05H4a.75.75 0 0 0-.75.75.75.75 0 0 0 .75.75h5.508c-1.059 2.194-2.51 4.18-4.166 4.974a.75.75 0 0 0 .324 1.426h10.557s1.915.05 3.297-1.275a.75.75 0 0 0 .021-1.06.75.75 0 0 0-1.06-.022c-.841.807-2.258.857-2.258.857H7.95c1.363-1.314 2.411-3.095 3.207-4.9h3.953a.75.75 0 0 0 .75-.75.75.75 0 0 0-.75-.75h-2.777c-2.372 0-4.25-1.82-4.25-4.05 0-2.228 1.878-4.05 4.25-4.05s4.25 1.822 4.25 4.05a.75.75 0 0 0 .75.75.75.75 0 0 0 .75-.75c0-3.072-2.6-5.55-5.75-5.55z"/></svg>