<svg xmlns="http://www.w3.org/2000/svg" width="24" height="24" viewBox="0 0 24 24"><path d="M12 1.25a.75.75 0 0 0-.75.75v1.25H2.6A1.36 1.36 0 0 0 1.25 4.6v12.8c0 .737.613 1.35 1.35 1.35h7.587L7.97 20.969a.75.75 0 0 0 0 1.062.75.75 0 0 0 1.062 0L12 19.063l2.969 2.968a.75.75 0 0 0 1.062 0 .75.75 0 0 0 0-1.062l-2.218-2.219H21.4a1.36 1.36 0 0 0 1.35-1.35V4.6a1.36 1.36 0 0 0-1.35-1.35h-8.65V2a.75.75 0 0 0-.75-.75zm-9.25 3.5h18.5v12.5H2.75zM15 7.25a.75.75 0 0 0-.75.75v6a.75.75 0 0 0 .75.75.75.75 0 0 0 .75-.75V8a.75.75 0 0 0-.75-.75zm-3 2a.75.75 0 0 0-.75.75v4a.75.75 0 0 0 .75.75.75.75 0 0 0 .75-.75v-4a.75.75 0 0 0-.75-.75zm-3 2a.75.75 0 0 0-.75.75v2a.75.75 0 0 0 .75.75.75.75 0 0 0 .75-.75v-2a.75.75 0 0 0-.75-.75z"/></svg>