<svg xmlns="http://www.w3.org/2000/svg" width="24" height="24" viewBox="0 0 24 24"><path d="M8.6 2.25A1.36 1.36 0 0 0 7.25 3.6v2.65H7A4.76 4.76 0 0 0 2.25 11v6.4c0 .737.613 1.35 1.35 1.35h1.964l-.209 1.459c-.114.8.528 1.541 1.336 1.541H17.31c.808 0 1.45-.741 1.336-1.541l-.21-1.459H20.4a1.36 1.36 0 0 0 1.35-1.35V11A4.76 4.76 0 0 0 17 6.25h-.25V3.6a1.36 1.36 0 0 0-1.35-1.35zm.15 1.5h6.5v2.5h-6.5zM7 7.75h10A3.24 3.24 0 0 1 20.25 11v6.25h-2.027l-.407-2.842a1.36 1.36 0 0 0-1.336-1.158H7.52c-.667 0-1.242.499-1.336 1.158l-.407 2.842H3.75V11A3.24 3.24 0 0 1 7 7.75zm9.97 1.5a.75.75 0 0 0-.517.248l-.01.01a.75.75 0 0 0 .055 1.06.75.75 0 0 0 1.059-.056l.011-.012a.75.75 0 0 0-.056-1.059.75.75 0 0 0-.541-.191zm-9.32 5.5h8.7l.478 3.355.307 2.145H6.865l.307-2.145z"/></svg>