<svg xmlns="http://www.w3.org/2000/svg" width="24" height="24" viewBox="0 0 24 24"><path d="M12 .504c-.347 0-.695.13-.955.39L.895 11.045a1.364 1.364 0 0 0 0 1.911l10.15 10.15c.52.521 1.39.521 1.91 0l10.15-10.15c.521-.52.521-1.39 0-1.91L12.955.895A1.35 1.35 0 0 0 12 .504zm0 1.557L21.94 12 12 21.94 2.06 12zm-.016 4.189a.8.8 0 0 0-.238.105.8.8 0 0 0-.277.114l-.004.01-.006.001-4 4.166a.75.75 0 0 0 .021 1.061.75.75 0 0 0 1.061-.021l2.709-2.823V16a.75.75 0 0 0 .75.75.75.75 0 0 0 .75-.75V8.813l2.719 2.718a.75.75 0 0 0 1.062 0 .75.75 0 0 0 0-1.062l-4-4-.01-.006-.001-.004-.008-.002A.75.75 0 0 0 12 6.25l-.008.004z"/></svg>