<svg xmlns="http://www.w3.org/2000/svg" width="24" height="24" viewBox="0 0 24 24"><path d="M12 .504c-.347 0-.695.13-.955.39L.895 11.045a1.364 1.364 0 0 0 0 1.911l10.15 10.15c.52.521 1.39.521 1.91 0l10.15-10.15c.521-.52.521-1.39 0-1.91L12.955.895A1.35 1.35 0 0 0 12 .504zm0 1.557L21.94 12 12 21.94 2.06 12zm0 4.189a.75.75 0 0 0-.75.75v7.137l-2.709-2.823a.75.75 0 0 0-1.06-.021.75.75 0 0 0-.022 1.06l4 4.167.006.001.004.01a.8.8 0 0 0 .277.114.8.8 0 0 0 .246.101l.008.004a.75.75 0 0 0 .287-.12.8.8 0 0 0 .233-.089l.003-.006.008-.004 4-4a.75.75 0 0 0 0-1.062.75.75 0 0 0-1.062 0l-2.719 2.719V7a.75.75 0 0 0-.75-.75z"/></svg>