<svg xmlns="http://www.w3.org/2000/svg" width="24" height="24" viewBox="0 0 24 24"><path d="M12 1.25A3.76 3.76 0 0 0 8.25 5v1a.75.75 0 0 0 .75.75h6a.75.75 0 0 0 .75-.75V5A3.76 3.76 0 0 0 12 1.25zm0 1.5c1.252 0 2.25.998 2.25 2.25v.25h-4.5V5c0-1.252.998-2.25 2.25-2.25zm-4.504 5a.8.8 0 0 0-.193.027.75.75 0 0 0-.453.35l-4 7a.75.75 0 0 0-.088.299c-.318.471-.512 1.006-.512 1.574 0 .78.365 1.497.914 2.074.55.578 1.289 1.049 2.168 1.44C7.09 21.295 9.425 21.75 12 21.75s4.91-.455 6.668-1.236c.879-.391 1.618-.862 2.168-1.44.55-.577.914-1.294.914-2.074 0-.563-.192-1.092-.504-1.56a.75.75 0 0 0-.096-.313l-4-7a.75.75 0 0 0-.453-.35.75.75 0 0 0-.57.073.75.75 0 0 0-.277 1.023l2.578 4.512C16.7 12.666 14.46 12.25 12 12.25s-4.7.416-6.428 1.135L8.15 8.873a.75.75 0 0 0-.277-1.023.75.75 0 0 0-.377-.1zm4.504 6c2.395 0 4.56.441 6.059 1.107.75.334 1.33.724 1.691 1.104s.5.715.5 1.039-.139.66-.5 1.04c-.361.379-.942.77-1.691 1.103-1.5.666-3.664 1.107-6.059 1.107s-4.56-.441-6.059-1.107c-.75-.334-1.33-.724-1.691-1.104s-.5-.715-.5-1.039.139-.66.5-1.04c.361-.379.942-.77 1.691-1.103 1.5-.666 3.664-1.107 6.059-1.107z"/></svg>