<svg xmlns="http://www.w3.org/2000/svg" width="24" height="24" viewBox="0 0 24 24"><path d="M7.012 2.588a.75.75 0 0 0-.389.101 10.7 10.7 0 0 0-3.934 3.936A10.7 10.7 0 0 0 1.248 12a.75.75 0 0 0 .787.748l5.537-.268a.75.75 0 0 0 .705-.64s.16-.971.56-1.664 1.161-1.319 1.161-1.319a.75.75 0 0 0 .203-.933L7.666 2.996a.75.75 0 0 0-.455-.377.8.8 0 0 0-.2-.031zm9.972.002a.8.8 0 0 0-.199.03.75.75 0 0 0-.455.376l-2.537 4.928a.75.75 0 0 0 .203.933s.762.624 1.162 1.317.56 1.664.56 1.664a.75.75 0 0 0 .706.642l5.537.268a.75.75 0 0 0 .787-.748 10.7 10.7 0 0 0-1.441-5.375 10.7 10.7 0 0 0-3.936-3.936.75.75 0 0 0-.387-.1zM6.738 4.473l1.903 3.695c-.305.264-.67.51-1.102 1.258-.431.747-.46 1.183-.537 1.58l-4.152.201c.111-1.309.436-2.616 1.138-3.832s1.673-2.151 2.75-2.902zm10.52 0c1.077.751 2.046 1.686 2.748 2.902s1.029 2.523 1.14 3.832l-4.152-.201c-.076-.397-.106-.835-.537-1.582s-.797-.992-1.102-1.256zM12 9.25c-1.51 0-2.75 1.24-2.75 2.75s1.24 2.75 2.75 2.75 2.75-1.24 2.75-2.75S13.51 9.25 12 9.25zm0 1.5c.7 0 1.25.55 1.25 1.25s-.55 1.25-1.25 1.25-1.25-.55-1.25-1.25.55-1.25 1.25-1.25zm-1.973 4.5a.75.75 0 0 0-.658.344l-3 4.662a.75.75 0 0 0 .256 1.055A10.7 10.7 0 0 0 12 22.75a10.7 10.7 0 0 0 5.375-1.44.75.75 0 0 0 .256-1.054l-3-4.662a.75.75 0 0 0-.91-.291s-.921.347-1.721.347-1.72-.347-1.72-.347a.8.8 0 0 0-.253-.053zm.334 1.574c.382.132.776.326 1.639.326s1.257-.194 1.639-.326l2.248 3.496c-1.19.557-2.484.93-3.887.93s-2.698-.373-3.887-.93z"/></svg>