<svg xmlns="http://www.w3.org/2000/svg" width="24" height="24" viewBox="0 0 24 24"><path d="M12 1.25C6.072 1.25 1.25 6.072 1.25 12S6.072 22.75 12 22.75 22.75 17.928 22.75 12 17.928 1.25 12 1.25zm0 1.5A9.24 9.24 0 0 1 21.25 12 9.24 9.24 0 0 1 12 21.25 9.24 9.24 0 0 1 2.75 12 9.24 9.24 0 0 1 12 2.75zm1.514 3.5a.75.75 0 0 0-.535.21.75.75 0 0 0-.018 1.061l2.273 2.354H9.801s-.873-.008-1.756.465c-.884.473-1.795 1.552-1.795 3.285 0 1.895.874 3.06 1.764 3.596.889.536 1.787.529 1.787.529h.799a.75.75 0 0 0 .75-.75.75.75 0 0 0-.75-.75h-.8s-.502-.007-1.013-.314c-.51-.308-1.037-.83-1.037-2.311 0-1.267.487-1.688 1.004-1.965.516-.277 1.047-.285 1.047-.285h5.34l-2.162 2.086a.75.75 0 0 0-.018 1.06.75.75 0 0 0 1.06.018l3.5-3.375a1 1 0 0 0 .077-.09l.013-.015a.8.8 0 0 0 .102-.202v-.003a.8.8 0 0 0 .037-.229v-.008l-.006-.082-.002-.015-.013-.075v-.002a.8.8 0 0 0-.065-.166l-.03-.05-.017-.028-.027-.037-.03-.035-.02-.023-3.5-3.625a.75.75 0 0 0-.526-.229z"/></svg>