<svg xmlns="http://www.w3.org/2000/svg" width="24" height="24" viewBox="0 0 24 24"><path d="M20 3.25a.75.75 0 0 0-.531.219L15.75 7.188V5a.75.75 0 0 0-.75-.75.75.75 0 0 0-.75.75v4a.75.75 0 0 0 .219.531.75.75 0 0 0 .531.219h4a.75.75 0 0 0 .75-.75.75.75 0 0 0-.75-.75h-2.187l3.718-3.719a.75.75 0 0 0 0-1.062A.75.75 0 0 0 20 3.25zm-15 11a.75.75 0 0 0-.75.75.75.75 0 0 0 .75.75h2.188l-3.72 3.719a.75.75 0 0 0 0 1.062.75.75 0 0 0 1.063 0l3.719-3.718V19a.75.75 0 0 0 .75.75.75.75 0 0 0 .75-.75v-4a1 1 0 0 0-.025-.129 1 1 0 0 0-.02-.098l-.012-.06a.8.8 0 0 0-.162-.244A.75.75 0 0 0 9 14.25z"/></svg>