<svg xmlns="http://www.w3.org/2000/svg" width="24" height="24" viewBox="0 0 24 24"><path d="M8 6.25c-.983 0-2.354.27-3.562 1.14C3.229 8.26 2.25 9.793 2.25 12s.98 3.74 2.188 4.61S7.017 17.75 8 17.75h7.188l-1.22 1.219a.75.75 0 0 0 0 1.062.75.75 0 0 0 1.063 0l2.5-2.5a.8.8 0 0 0 .162-.244.75.75 0 0 0-.025-.627 1 1 0 0 0-.049-.084l-.012-.017-.007-.008a1 1 0 0 0-.069-.082l-2.5-2.5a.75.75 0 0 0-.531-.219.75.75 0 0 0-.531.219.75.75 0 0 0 0 1.062l1.219 1.219H8c-.683 0-1.813-.23-2.687-.86-.875-.63-1.563-1.598-1.563-3.39s.688-2.76 1.563-3.39c.874-.63 2.004-.86 2.687-.86h8c.683 0 1.813.23 2.688.86.874.63 1.562 1.598 1.562 3.39 0 1.339-.395 2.209-.947 2.836a.75.75 0 0 0 .066 1.059.75.75 0 0 0 1.059-.069c.787-.895 1.322-2.176 1.322-3.826 0-2.208-.98-3.74-2.187-4.61-1.209-.87-2.58-1.14-3.563-1.14z"/></svg>