<svg xmlns="http://www.w3.org/2000/svg" width="24" height="24" viewBox="0 0 24 24"><path d="M6.6 3.25A1.36 1.36 0 0 0 5.25 4.6v3.8c0 .737.613 1.35 1.35 1.35h2.15v.549a.75.75 0 0 0-.5.701.75.75 0 0 0 .416.668c-.187.934-.688 2.274-1.31 3.582H7a.75.75 0 0 0-.75.75.75.75 0 0 0 .398.652 60 60 0 0 1-1.712 3.028c-.531.877.135 2.07 1.164 2.07h11.8c1.03 0 1.695-1.193 1.164-2.07a60 60 0 0 1-1.712-3.028.75.75 0 0 0 .398-.652.75.75 0 0 0-.75-.75h-.355c-.623-1.308-1.124-2.648-1.311-3.582A.75.75 0 0 0 15.75 11a.75.75 0 0 0-.5-.707V9.75h2.15a1.36 1.36 0 0 0 1.35-1.35V4.6a1.36 1.36 0 0 0-1.35-1.35zm.15 1.5h2.5V6a.75.75 0 0 0 .75.75.75.75 0 0 0 .75-.75V4.75h2.5V6a.75.75 0 0 0 .75.75.75.75 0 0 0 .75-.75V4.75h2.5v3.5H6.75zm3.5 5h3.5v.5h-3.5zm-.06 2h3.62c.158 1.077.62 2.279 1.178 3.5H9.012c.558-1.221 1.02-2.423 1.177-3.5zm-1.903 5h7.426a57 57 0 0 0 1.957 3.5H6.33a57 57 0 0 0 1.957-3.5z"/></svg>