<svg xmlns="http://www.w3.org/2000/svg" width="24" height="24" viewBox="0 0 24 24"><path d="M5 2.25C3.49 2.25 2.25 3.49 2.25 5v.25H2a.75.75 0 0 0-.75.75.75.75 0 0 0 .75.75h.25v.5H2a.75.75 0 0 0-.75.75.75.75 0 0 0 .75.75h.25v6.5H2a.75.75 0 0 0-.75.75.75.75 0 0 0 .75.75h.25v.5H2a.75.75 0 0 0-.75.75.75.75 0 0 0 .75.75h.25V19c0 1.51 1.24 2.75 2.75 2.75h14c1.51 0 2.75-1.24 2.75-2.75V5c0-1.51-1.24-2.75-2.75-2.75zm0 1.5h8c.7 0 1.25.55 1.25 1.25v14c0 .7-.55 1.25-1.25 1.25H5c-.7 0-1.25-.55-1.25-1.25V5c0-.7.55-1.25 1.25-1.25zm10.443 0H19c.7 0 1.25.55 1.25 1.25v14c0 .7-.55 1.25-1.25 1.25h-3.557c.195-.376.307-.8.307-1.25V5c0-.45-.112-.874-.307-1.25zm-9.943 4a.75.75 0 0 0-.531.219.75.75 0 0 0 0 1.062l.707.707c-.28.644-.426 1.42-.426 2.262s.146 1.618.426 2.262l-.707.707a.75.75 0 0 0 0 1.062.75.75 0 0 0 1.062 0l.567-.566c.258.176.558.285.902.285s.644-.11.902-.285l.567.566a.75.75 0 0 0 1.062 0 .75.75 0 0 0 0-1.062l-.707-.707c.28-.644.426-1.42.426-2.262s-.146-1.618-.426-2.262l.707-.707a.75.75 0 0 0 0-1.062.75.75 0 0 0-.531-.219.75.75 0 0 0-.531.219l-.567.566A1.6 1.6 0 0 0 7.5 8.25c-.344 0-.644.11-.902.285L6.03 7.97a.75.75 0 0 0-.53-.22zm7.5 1.5a.75.75 0 0 0-.75.75v4a.75.75 0 0 0 .75.75.75.75 0 0 0 .75-.75v-4a.75.75 0 0 0-.75-.75zm-5.5.5c.009 0 .187.058.39.465.204.406.36 1.058.36 1.785s-.156 1.379-.36 1.785c-.203.407-.381.465-.39.465s-.187-.058-.39-.465c-.204-.406-.36-1.058-.36-1.785s.156-1.379.36-1.785c.203-.407.381-.465.39-.465z"/></svg>