<svg xmlns="http://www.w3.org/2000/svg" width="24" height="24" viewBox="0 0 24 24"><path d="M7.346 6.25a.75.75 0 0 0-.639.354s-.421.676-1.125 1.357S3.939 9.25 3 9.25a.75.75 0 0 0-.75.75.75.75 0 0 0 .75.75c1.543 0 2.777-.891 3.625-1.71.45-.435.485-.558.719-.872.234.314.27.436.72.871.848.82 2.082 1.711 3.625 1.711s2.89-.865 3.885-1.666c.64-.515.789-.73 1.067-1.033.267.3.416.504.994 1.011.904.795 2.031 1.688 3.365 1.688a.75.75 0 0 0 .75-.75.75.75 0 0 0-.75-.75c-.528 0-1.572-.607-2.375-1.312S17.232 6.52 17.232 6.52a.75.75 0 0 0-1.154 0s-.578.696-1.445 1.395-2.004 1.334-2.944 1.334c-.939 0-1.878-.609-2.582-1.29-.704-.68-1.125-1.356-1.125-1.356a.75.75 0 0 0-.636-.354zm0 7a.75.75 0 0 0-.639.354s-.421.676-1.125 1.357S3.939 16.25 3 16.25a.75.75 0 0 0-.75.75.75.75 0 0 0 .75.75c1.543 0 2.777-.891 3.625-1.71.45-.435.485-.558.719-.872.234.314.27.436.72.871.848.82 2.082 1.711 3.625 1.711s2.89-.865 3.885-1.666c.64-.515.789-.73 1.067-1.033.267.3.416.504.994 1.011.904.795 2.031 1.688 3.365 1.688a.75.75 0 0 0 .75-.75.75.75 0 0 0-.75-.75c-.528 0-1.572-.607-2.375-1.312a14 14 0 0 1-1.393-1.417.75.75 0 0 0-1.154 0s-.578.696-1.445 1.395-2.004 1.334-2.944 1.334c-.939 0-1.878-.609-2.582-1.29-.704-.68-1.125-1.356-1.125-1.356a.75.75 0 0 0-.636-.354z"/></svg>