<svg xmlns="http://www.w3.org/2000/svg" width="24" height="24" viewBox="0 0 24 24"><path d="M11.344 1.506 2.945 6.174c-.427.237-.695.69-.695 1.18v9.292c0 .49.266.943.693 1.18h.002l8.399 4.668c.407.226.905.226 1.312 0l8.399-4.668h.002a1.35 1.35 0 0 0 .693-1.18V7.354c0-.49-.266-.943-.693-1.18h-.002l-8.399-4.668a1.36 1.36 0 0 0-1.312 0zM12 2.859l8.25 4.582v9.118L12 21.14l-8.25-4.582V7.44Z"/><path d="M12 11.25a.75.75 0 0 0-.75.75v9a.75.75 0 0 0 .75.75.75.75 0 0 0 .75-.75v-9a.75.75 0 0 0-.75-.75Z"/><path d="M12.5 11v10a.5.5 0 0 1-1 0V11a.5.5 0 0 1 1 0z"/><path d="M12 9.75A1.26 1.26 0 0 0 10.75 11v10c0 .682.568 1.25 1.25 1.25s1.25-.568 1.25-1.25V11A1.26 1.26 0 0 0 12 9.75Z"/></svg>