<svg xmlns="http://www.w3.org/2000/svg" width="24" height="24" viewBox="0 0 24 24"><path d="M8 6.25A3.76 3.76 0 0 0 4.25 10c0 .842.282 1.622.756 2.25H3a.75.75 0 0 0-.75.75.75.75 0 0 0 .75.75h2.834c-.603 1.176-1.375 2.182-2.17 2.58A.75.75 0 0 0 4 17.75h6.334s1.265.045 2.197-.887a.75.75 0 0 0 0-1.06.75.75 0 0 0-1.062 0c-.402.401-1.135.447-1.135.447H5.898c.635-.752 1.182-1.6 1.596-2.5h2.172a.75.75 0 0 0 .75-.75.75.75 0 0 0-.75-.75H8A2.24 2.24 0 0 1 5.75 10c0-1.252.998-2.25 2.25-2.25s2.25.998 2.25 2.25a.75.75 0 0 0 .75.75.75.75 0 0 0 .75-.75A3.76 3.76 0 0 0 8 6.25zm9.176 1a.75.75 0 0 0-.535.209.75.75 0 0 0-.022 1.06l2.621 2.731H13a.75.75 0 0 0-.75.75.75.75 0 0 0 .75.75h6.24l-2.62 2.73a.75.75 0 0 0 .02 1.061.75.75 0 0 0 1.061-.021l3.819-3.979.01-.008.001-.002.002-.002.008-.01a1 1 0 0 0 .074-.115 1 1 0 0 0 .076-.117 1 1 0 0 0 .032-.144 1 1 0 0 0 .025-.14L21.75 12l-.002-.008a1 1 0 0 0-.023-.119l-.002-.016-.004-.013a1 1 0 0 0-.024-.125l-.006-.012a1 1 0 0 0-.066-.1l-.021-.033a1 1 0 0 0-.061-.094l-.006-.005-.004-.006-.004-.002-.007-.008L17.7 7.48a.75.75 0 0 0-.525-.23z"/></svg>