<svg xmlns="http://www.w3.org/2000/svg" width="24" height="24" viewBox="0 0 24 24"><path d="M10.883 6.258a.75.75 0 0 0-.49.3L7 11.224 3.607 6.559a.75.75 0 0 0-.49-.3.75.75 0 0 0-.558.134.75.75 0 0 0-.166 1.048l3.496 4.809H3a.75.75 0 0 0-.75.75.75.75 0 0 0 .75.75h3.25v.5H3a.75.75 0 0 0-.75.75.75.75 0 0 0 .75.75h3.25V18a.75.75 0 0 0 .75.75.75.75 0 0 0 .75-.75v-2.25H11a.75.75 0 0 0 .75-.75.75.75 0 0 0-.75-.75H7.75v-.5H11a.75.75 0 0 0 .75-.75.75.75 0 0 0-.75-.75H8.111l3.496-4.809a.75.75 0 0 0-.166-1.048.75.75 0 0 0-.558-.135zm6.293.992a.75.75 0 0 0-.535.209.75.75 0 0 0-.022 1.06l2.621 2.731H13a.75.75 0 0 0-.75.75.75.75 0 0 0 .75.75h6.24l-2.62 2.73a.75.75 0 0 0 .02 1.061.75.75 0 0 0 1.061-.021l3.819-3.979.01-.008.001-.002.002-.002.008-.01a1 1 0 0 0 .074-.115 1 1 0 0 0 .076-.117 1 1 0 0 0 .032-.144 1 1 0 0 0 .025-.14L21.75 12l-.002-.008a1 1 0 0 0-.023-.119l-.002-.016-.004-.013a1 1 0 0 0-.024-.125l-.006-.012a1 1 0 0 0-.066-.1l-.021-.033a1 1 0 0 0-.061-.094l-.006-.005-.004-.006-.004-.002-.007-.008L17.7 7.48a.75.75 0 0 0-.525-.23z"/></svg>