<svg xmlns="http://www.w3.org/2000/svg" width="24" height="24" viewBox="0 0 24 24"><path d="M7.5 2.25a.75.75 0 0 0-.75.75v2.77c-.235.361-.748 1.208-.973 2.033-.316 1.161-.027 2.148.291 2.949.319.8.64 1.462.682 2.285.145 2.876-1.459 7.719-1.459 7.719A.75.75 0 0 0 6 21.75h12a.75.75 0 0 0 .709-.994s-1.604-4.843-1.459-7.719c.042-.823.363-1.484.682-2.285.318-.8.607-1.788.29-2.95-.224-.824-.737-1.67-.972-2.032V3a.75.75 0 0 0-.75-.75.75.75 0 0 0-.75.75v2.549a6 6 0 0 1-.611.24c-.68.226-1.722.461-3.139.461s-2.46-.235-3.139-.46a6 6 0 0 1-.611-.241V3a.75.75 0 0 0-.75-.75zm.346 4.717c.214.102.2.13.543.244.82.274 2.028.539 3.611.539s2.79-.265 3.611-.54c.342-.113.33-.14.543-.243.229.388.51.816.623 1.23.207.76.047 1.278-.24 2s-.728 1.6-.787 2.766c-.145 2.865.844 6.053 1.248 7.287H7.002c.404-1.234 1.393-4.422 1.248-7.287-.059-1.166-.5-2.044-.787-2.766s-.447-1.24-.24-2c.113-.414.394-.842.623-1.23z"/></svg>