<svg xmlns="http://www.w3.org/2000/svg" width="24" height="24" viewBox="0 0 24 24"><path d="M12 1.25a.75.75 0 0 0-.75.75v1.89l-1.47-.587a.75.75 0 0 0-.977.418.75.75 0 0 0 .418.976l2.029.813v5.226L7.19 8.521l-.448-3.126a.75.75 0 0 0-.847-.637.75.75 0 0 0-.637.847l.283 1.983L3.373 6.35a.75.75 0 0 0-1.023.277.75.75 0 0 0 .277 1.023l1.957 1.118-1.79.511a.75.75 0 0 0-.515.926.75.75 0 0 0 .926.516l3.205-.916L10.434 12 6.41 14.195l-3.205-.916a.75.75 0 0 0-.926.516.75.75 0 0 0 .516.926l1.789.511-1.957 1.118a.75.75 0 0 0-.277 1.023.75.75 0 0 0 1.023.277l2.168-1.238-.283 1.983a.75.75 0 0 0 .637.847.75.75 0 0 0 .847-.637l.447-3.126 4.061-2.215v4.812l-2.137 1.281a.75.75 0 0 0-.256 1.03.75.75 0 0 0 1.03.256l1.363-.819V22a.75.75 0 0 0 .75.75.75.75 0 0 0 .75-.75v-2.176l1.363.819a.75.75 0 0 0 1.03-.256.75.75 0 0 0-.256-1.03l-2.137-1.28v-4.813l4.06 2.215.448 3.126a.75.75 0 0 0 .847.637.75.75 0 0 0 .637-.847l-.283-1.983 2.168 1.238a.75.75 0 0 0 1.023-.277.75.75 0 0 0-.277-1.023l-1.957-1.118 1.79-.511a.75.75 0 0 0 .515-.926.75.75 0 0 0-.926-.516l-3.205.916L13.566 12l4.024-2.195 3.205.916a.75.75 0 0 0 .926-.516.75.75 0 0 0-.516-.926l-1.789-.511 1.957-1.118a.75.75 0 0 0 .277-1.023.75.75 0 0 0-1.023-.277l-2.168 1.238.283-1.983a.75.75 0 0 0-.637-.847.75.75 0 0 0-.847.637L16.81 8.52l-4.061 2.215V5.51l2.03-.813a.75.75 0 0 0 .417-.976.75.75 0 0 0-.976-.418l-1.471.588V2a.75.75 0 0 0-.75-.75z"/></svg>