<svg xmlns="http://www.w3.org/2000/svg" width="24" height="24" viewBox="0 0 24 24"><path d="M12.938 3.121c-.308.004-.619.09-.9.275l-6 3.956a.25.25 0 0 1-.138.04H3c-1.51 0-2.75 1.24-2.75 2.75v3.715c0 1.51 1.24 2.75 2.75 2.75h2.9q.075 0 .137.041l6 3.956c1.13.744 2.713-.11 2.713-1.461V4.857c0-1.014-.89-1.747-1.812-1.736zm7.562.629a.75.75 0 0 0-.531.219.75.75 0 0 0 0 1.062S22.25 7.278 22.25 11.5s-2.281 6.469-2.281 6.469a.75.75 0 0 0 0 1.062.75.75 0 0 0 1.062 0s2.719-2.753 2.719-7.531-2.719-7.531-2.719-7.531a.75.75 0 0 0-.531-.219zm-7.492.842c.137-.016.242.085.242.265v14.286c0 .24-.186.34-.387.209l-6-3.956a1.75 1.75 0 0 0-.963-.289H3c-.7 0-1.25-.55-1.25-1.25v-3.714c0-.7.55-1.25 1.25-1.25h2.9c.343 0 .677-.101.963-.29l6-3.955a.34.34 0 0 1 .145-.056zM17.5 6.75a.75.75 0 0 0-.531.219.75.75 0 0 0 0 1.062S18.25 9.3 18.25 11.5s-1.281 3.469-1.281 3.469a.75.75 0 0 0 0 1.062.75.75 0 0 0 1.062 0S19.75 14.3 19.75 11.5s-1.719-4.531-1.719-4.531a.75.75 0 0 0-.531-.219z"/></svg>