<svg xmlns="http://www.w3.org/2000/svg" width="24" height="24" viewBox="0 0 24 24"><path d="M6 3.25a.75.75 0 0 0-.75.75v7.25H3a.75.75 0 0 0-.75.75.75.75 0 0 0 .75.75h3a.75.75 0 0 0 .75-.75V4.75h4.5V20a.75.75 0 0 0 .75.75h6a.75.75 0 0 0 .75-.75v-7.25H21a.75.75 0 0 0 .75-.75.75.75 0 0 0-.75-.75h-3a.75.75 0 0 0-.75.75v7.25h-4.5V4a.75.75 0 0 0-.75-.75zm2.5 8a.75.75 0 0 0-.75.75.75.75 0 0 0 .75.75h1a.75.75 0 0 0 .75-.75.75.75 0 0 0-.75-.75zm6 0a.75.75 0 0 0-.75.75.75.75 0 0 0 .75.75h1a.75.75 0 0 0 .75-.75.75.75 0 0 0-.75-.75z"/></svg>