<svg xmlns="http://www.w3.org/2000/svg" width="24" height="24" viewBox="0 0 24 24"><path d="M3.6 2.25A1.36 1.36 0 0 0 2.25 3.6v16.8c0 .737.613 1.35 1.35 1.35h16.8a1.36 1.36 0 0 0 1.35-1.35V3.6a1.36 1.36 0 0 0-1.35-1.35Zm.15 1.5h16.5v16.5H3.75Z"/><path d="M3 4a1 1 0 1 0 0-2 1 1 0 0 0 0 2Z"/><path d="M3 1.25c-.958 0-1.75.792-1.75 1.75S2.042 4.75 3 4.75 4.75 3.958 4.75 3 3.958 1.25 3 1.25Zm0 1.5a.24.24 0 0 1 .25.25.24.24 0 0 1-.25.25.24.24 0 0 1-.25-.25.24.24 0 0 1 .25-.25ZM21 22a1 1 0 1 0 0-2 1 1 0 0 0 0 2z"/><path d="M21 19.25c-.958 0-1.75.792-1.75 1.75s.792 1.75 1.75 1.75 1.75-.792 1.75-1.75-.792-1.75-1.75-1.75zm0 1.5a.24.24 0 0 1 .25.25.24.24 0 0 1-.25.25.24.24 0 0 1-.25-.25.24.24 0 0 1 .25-.25z"/></svg>