<svg xmlns="http://www.w3.org/2000/svg" width="24" height="24" viewBox="0 0 24 24"><path d="M4.6 1.25A1.36 1.36 0 0 0 3.25 2.6v18.8c0 .737.613 1.35 1.35 1.35H14a.75.75 0 0 0 .75-.75.75.75 0 0 0-.75-.75H4.75V2.75h10.5V5.4c0 .737.613 1.35 1.35 1.35h2.65V13a.75.75 0 0 0 .75.75.75.75 0 0 0 .75-.75V5.748c0-.358-.142-.7-.395-.953v-.002l-3.148-3.148h-.002a1.35 1.35 0 0 0-.953-.395zm12.15 2.063 1.94 1.937h-1.94zM19 15.25a.75.75 0 0 0-.531.219.75.75 0 0 0 0 1.062l1.718 1.719H16a.75.75 0 0 0-.75.75.75.75 0 0 0 .75.75h4.188l-1.72 1.719a.75.75 0 0 0 0 1.062.75.75 0 0 0 1.063 0l3-3a.75.75 0 0 0 .194-.468L22.75 19a1 1 0 0 0-.025-.129v-.064l-.02-.034a.75.75 0 0 0-.174-.304l-3-3A.75.75 0 0 0 19 15.25z"/></svg>