<svg xmlns="http://www.w3.org/2000/svg" width="24" height="24" viewBox="0 0 24 24"><path d="M4.6 2.25A1.36 1.36 0 0 0 3.25 3.6V6a.75.75 0 0 0 .75.75.75.75 0 0 0 .75-.75V3.75h14.5V6a.75.75 0 0 0 .75.75.75.75 0 0 0 .75-.75V3.6a1.36 1.36 0 0 0-1.35-1.35zm1.4 6a2.26 2.26 0 0 0-2.25 2.25A2.26 2.26 0 0 0 6 12.75h.5c.423 0 .75.327.75.75s-.327.75-.75.75h-2a.75.75 0 0 0-.75.75.75.75 0 0 0 .75.75h2a2.26 2.26 0 0 0 2.25-2.25 2.26 2.26 0 0 0-2.25-2.25H6a.74.74 0 0 1-.75-.75c0-.423.327-.75.75-.75h1.5A.75.75 0 0 0 8.25 9a.75.75 0 0 0-.75-.75zm4.514 0a.8.8 0 0 0-.196.021.75.75 0 0 0-.547.91l1.5 6a.75.75 0 0 0 1.458 0l1.5-6a.75.75 0 0 0-.547-.91.75.75 0 0 0-.91.547L12 11.904l-.771-3.086a.75.75 0 0 0-.715-.568zm5.986 0a.75.75 0 0 0-.75.75v6a.75.75 0 0 0 .75.75h3a.75.75 0 0 0 .75-.75v-2.4a.75.75 0 0 0-.75-.75.75.75 0 0 0-.75.75v1.65h-1.5v-4.5h2.25a.75.75 0 0 0 .75-.75.75.75 0 0 0-.75-.75zm-12.5 9a.75.75 0 0 0-.75.75v2.4c0 .737.613 1.35 1.35 1.35h14.8a1.36 1.36 0 0 0 1.35-1.35V18a.75.75 0 0 0-.75-.75.75.75 0 0 0-.75.75v2.25H4.75V18a.75.75 0 0 0-.75-.75z"/></svg>