<svg xmlns="http://www.w3.org/2000/svg" width="24" height="24" viewBox="0 0 24 24"><path d="m14.5 2.25-.072.01-.053.006a.8.8 0 0 0-.25.084l-.002.002a.8.8 0 0 0-.154.117l-6 6a1 1 0 0 0-.086.115l-.031.039-.018.03-.006.01-5.808 9.96a.75.75 0 0 0 .27 1.025.75.75 0 0 0 1.024-.271L8.5 10.488l5.693 9.762H7a.75.75 0 0 0-.75.75.75.75 0 0 0 .75.75h8.5l.078-.008.057-.006a.8.8 0 0 0 .183-.058l.065-.04a1 1 0 0 0 .115-.081l.033-.026.028-.029 5.972-5.97v-.003a.8.8 0 0 0 .12-.156 1 1 0 0 0 .042-.088 1 1 0 0 0 .032-.094.8.8 0 0 0 .02-.29 1 1 0 0 0-.02-.094v-.002l-.002-.004a1 1 0 0 0-.032-.09 1 1 0 0 0-.043-.088l-.021-.039-3.924-6.725 2.328-2.328a.75.75 0 0 0 0-1.062A.75.75 0 0 0 20 4.25a.75.75 0 0 0-.531.219l-2.05 2.049-2.241-3.844-.006-.01-.024-.041a.8.8 0 0 0-.117-.154l-.058-.045-.041-.031a.75.75 0 0 0-.432-.143zm-.156 1.969 6.217 10.658-4.905 4.904L9.44 9.123zM8.5 15.75a.75.75 0 0 0-.531.219l-5.5 5.5a.75.75 0 0 0 0 1.062.75.75 0 0 0 1.062 0l5.5-5.5a.75.75 0 0 0 0-1.062.75.75 0 0 0-.531-.219z"/></svg>