<svg xmlns="http://www.w3.org/2000/svg" width="24" height="24" viewBox="0 0 24 24"><path d="M8 5.25c-3.719 0-6.75 3.031-6.75 6.75S4.281 18.75 8 18.75c3.453 0 6.206-2.65 6.598-6h5.59l-1.72 1.719a.75.75 0 0 0 0 1.062.75.75 0 0 0 1.063 0l3-3a.75.75 0 0 0 .194-.469L22.75 12a1 1 0 0 0-.025-.129v-.064l-.02-.034a.75.75 0 0 0-.174-.304l-3-3a.75.75 0 0 0-1.062 0 .75.75 0 0 0 0 1.062l1.718 1.719h-5.59c-.39-3.35-3.144-6-6.597-6zm0 1.5A5.24 5.24 0 0 1 13.25 12 5.24 5.24 0 0 1 8 17.25 5.24 5.24 0 0 1 2.75 12 5.24 5.24 0 0 1 8 6.75z"/></svg>