<svg xmlns="http://www.w3.org/2000/svg" width="24" height="24" viewBox="0 0 24 24"><path d="M4.6 2.25A1.36 1.36 0 0 0 3.25 3.6V6a.75.75 0 0 0 .75.75.75.75 0 0 0 .75-.75V3.75h14.5V6a.75.75 0 0 0 .75.75.75.75 0 0 0 .75-.75V3.6a1.36 1.36 0 0 0-1.35-1.35zm1.9 6a.75.75 0 0 0-.75.75.75.75 0 0 0 .75.75h.75V15a.75.75 0 0 0 .75.75.75.75 0 0 0 .75-.75V9.75h.75a.75.75 0 0 0 .75-.75.75.75 0 0 0-.75-.75zm5.5 0a.75.75 0 0 0-.75.75v6a.75.75 0 0 0 .75.75.75.75 0 0 0 .75-.75V9a.75.75 0 0 0-.75-.75zm3 0a.75.75 0 0 0-.75.75v6a.75.75 0 0 0 .75.75.75.75 0 0 0 .75-.75v-2.25h1.75a.75.75 0 0 0 .75-.75.75.75 0 0 0-.75-.75h-1.75v-1.5H18a.75.75 0 0 0 .75-.75.75.75 0 0 0-.75-.75zm-11 9a.75.75 0 0 0-.75.75v2.4c0 .737.613 1.35 1.35 1.35h14.8a1.36 1.36 0 0 0 1.35-1.35V18a.75.75 0 0 0-.75-.75.75.75 0 0 0-.75.75v2.25H4.75V18a.75.75 0 0 0-.75-.75z"/></svg>