<svg xmlns="http://www.w3.org/2000/svg" width="24" height="24" viewBox="0 0 24 24"><path d="M12 1.25c-4.59 0-8.516 2.89-10.055 6.947l-.013.035A10.7 10.7 0 0 0 1.25 12c0 1.309.234 2.564.664 3.725l.01.025c1.525 4.084 5.466 7 10.076 7a.75.75 0 0 0 .75-.75.75.75 0 0 0-.75-.75q-.295 0-.586-.02c-.415-.618-1.482-2.374-2.137-4.98H12a.75.75 0 0 0 .75-.75.75.75 0 0 0-.75-.75H8.97A17.4 17.4 0 0 1 8.75 12c0-.978.084-1.897.22-2.75h6.06c.136.853.22 1.772.22 2.75a.75.75 0 0 0 .75.75.75.75 0 0 0 .75-.75c0-.97-.077-1.889-.205-2.75h4.29c.27.868.415 1.792.415 2.75a.75.75 0 0 0 .75.75.75.75 0 0 0 .75-.75c0-1.304-.233-2.554-.66-3.71a1 1 0 0 0-.047-.12C20.497 4.128 16.579 1.25 12 1.25zm0 1.5q.297 0 .59.02c.423.633 1.484 2.396 2.133 4.98H9.277C9.932 5.145 11 3.39 11.414 2.77q.29-.02.586-.02zm-2.52.35a19 19 0 0 0-1.74 4.65H3.781a9.25 9.25 0 0 1 5.7-4.65zm5.04 0a9.25 9.25 0 0 1 5.699 4.65h-3.96a19 19 0 0 0-1.74-4.65zM3.164 9.25h4.291a18.7 18.7 0 0 0 0 5.5h-4.29A9.3 9.3 0 0 1 2.75 12c0-.958.145-1.882.414-2.75zm15.836 5A4.76 4.76 0 0 0 14.25 19 4.76 4.76 0 0 0 19 23.75 4.76 4.76 0 0 0 23.75 19 4.76 4.76 0 0 0 19 14.25zm0 1.5A3.24 3.24 0 0 1 22.25 19 3.24 3.24 0 0 1 19 22.25 3.24 3.24 0 0 1 15.75 19 3.24 3.24 0 0 1 19 15.75zm-15.219.5h3.96a19 19 0 0 0 1.74 4.65 9.25 9.25 0 0 1-5.7-4.65zm15.219.5a.75.75 0 0 0-.75.75V19a.75.75 0 0 0 .75.75h1.5a.75.75 0 0 0 .75-.75.75.75 0 0 0-.75-.75h-.75v-.75a.75.75 0 0 0-.75-.75z"/></svg>