<svg xmlns="http://www.w3.org/2000/svg" width="24" height="24" viewBox="0 0 24 24"><path d="M3.6 1.25A1.36 1.36 0 0 0 2.25 2.6v5.218c0 .267.079.527.227.748l1.773 2.66V20c0 1.51 1.24 2.75 2.75 2.75h2a.75.75 0 0 0 .75-.75.75.75 0 0 0-.75-.75H7c-.7 0-1.25-.55-1.25-1.25v-8.818c0-.267-.079-.527-.227-.748L3.75 7.774V2.75h1.5V4.4c0 .737.613 1.35 1.35 1.35h2.8a1.36 1.36 0 0 0 1.35-1.35V2.75h2.5V4.4c0 .737.613 1.35 1.35 1.35h2.8a1.36 1.36 0 0 0 1.35-1.35V2.75h1.5v5.021l-.875 1.313a.75.75 0 0 0 .209 1.041.75.75 0 0 0 1.041-.209l.898-1.35c.148-.221.227-.481.227-.748V2.6a1.36 1.36 0 0 0-1.35-1.35h-1.8a1.36 1.36 0 0 0-1.35 1.35v1.65h-2.5V2.6a1.36 1.36 0 0 0-1.35-1.35h-2.8A1.36 1.36 0 0 0 9.25 2.6v1.65h-2.5V2.6A1.36 1.36 0 0 0 5.4 1.25zm13.4 12A4.76 4.76 0 0 0 12.25 18 4.747 4.747 0 0 0 17 22.75 4.76 4.76 0 0 0 21.75 18 4.747 4.747 0 0 0 17 13.25zm0 1.5c.637 0 1.192.229 1.691.543l-4.435 4.346c-.293-.487-.506-1.026-.506-1.639A3.24 3.24 0 0 1 17 14.75zm2.744 1.611c.293.487.506 1.026.506 1.639A3.24 3.24 0 0 1 17 21.25c-.637 0-1.192-.229-1.691-.543z"/></svg>