<svg xmlns="http://www.w3.org/2000/svg" width="24" height="24" viewBox="0 0 24 24"><path d="M3.6 1.25A1.36 1.36 0 0 0 2.25 2.6v5.218c0 .267.079.527.227.748l1.773 2.66V20c0 1.51 1.24 2.75 2.75 2.75h10c1.51 0 2.75-1.24 2.75-2.75v-8.773l1.773-2.66c.148-.222.227-.482.227-.749V2.6a1.36 1.36 0 0 0-1.35-1.35h-1.8a1.36 1.36 0 0 0-1.35 1.35v1.65h-2.5V2.6a1.36 1.36 0 0 0-1.35-1.35h-2.8A1.36 1.36 0 0 0 9.25 2.6v1.65h-2.5V2.6A1.36 1.36 0 0 0 5.4 1.25zm.15 1.5h1.5V4.4c0 .737.613 1.35 1.35 1.35h2.8a1.36 1.36 0 0 0 1.35-1.35V2.75h2.5V4.4c0 .737.613 1.35 1.35 1.35h2.8a1.36 1.36 0 0 0 1.35-1.35V2.75h1.5v5.023l-1.773 2.66a1.35 1.35 0 0 0-.227.749V20c0 .7-.55 1.25-1.25 1.25H7c-.7 0-1.25-.55-1.25-1.25v-8.818c0-.267-.079-.527-.227-.748L3.75 7.774z"/></svg>