<svg xmlns="http://www.w3.org/2000/svg" width="24" height="24" viewBox="0 0 24 24"><path d="M9 2.25C5.281 2.25 2.25 5.281 2.25 9v4c0 2.786 1.7 5.186 4.117 6.215L4.914 21.03a.75.75 0 0 0 .117 1.055.75.75 0 0 0 1.055-.117l1.844-2.305q.495.08 1.01.084L7.914 21.03a.75.75 0 0 0 .117 1.055.75.75 0 0 0 1.055-.117l1.775-2.219h2.278l1.775 2.219a.75.75 0 0 0 1.055.117.75.75 0 0 0 .117-1.055l-1.025-1.283a7 7 0 0 0 1.01-.084l1.843 2.305a.75.75 0 0 0 1.055.117.75.75 0 0 0 .117-1.055l-1.453-1.816c2.416-1.03 4.117-3.43 4.117-6.215V9c0-3.719-3.031-6.75-6.75-6.75zm0 1.5h6A5.24 5.24 0 0 1 20.25 9v4A5.24 5.24 0 0 1 15 18.25H9A5.24 5.24 0 0 1 3.75 13V9A5.24 5.24 0 0 1 9 3.75zm.61 2.5a3.37 3.37 0 0 0-3.36 3.36c0 .62.52 1.14 1.14 1.14h9.22c.62 0 1.14-.52 1.14-1.14a3.37 3.37 0 0 0-3.36-3.36zm0 1.5h4.78c.895 0 1.527.666 1.712 1.5H7.898c.185-.834.817-1.5 1.711-1.5zm-1.585 6.498a.75.75 0 0 0-.572.248l-.01.012a.75.75 0 0 0 .055 1.058.75.75 0 0 0 1.059-.054l.01-.012a.75.75 0 0 0-.055-1.059.75.75 0 0 0-.487-.193zm8 0a.75.75 0 0 0-.572.248l-.01.012a.75.75 0 0 0 .055 1.058.75.75 0 0 0 1.059-.054l.01-.012a.75.75 0 0 0-.055-1.059.75.75 0 0 0-.487-.193z"/></svg>