<svg xmlns="http://www.w3.org/2000/svg" width="24" height="24" viewBox="0 0 24 24"><path d="M7 1.25A4.76 4.76 0 0 0 2.25 6v2a.75.75 0 0 0 .75.75.75.75 0 0 0 .75-.75V6A3.24 3.24 0 0 1 7 2.75h10A3.24 3.24 0 0 1 20.25 6v2a.75.75 0 0 0 .75.75.75.75 0 0 0 .75-.75V6A4.76 4.76 0 0 0 17 1.25zm5 4a.75.75 0 0 0-.531.219l-3 3a.75.75 0 0 0 0 1.062.75.75 0 0 0 1.062 0l1.719-1.719v5.438H6A3.76 3.76 0 0 0 2.25 17v2A3.76 3.76 0 0 0 6 22.75h12A3.76 3.76 0 0 0 21.75 19v-2A3.76 3.76 0 0 0 18 13.25h-5.25V7.813l1.719 1.718a.75.75 0 0 0 1.062 0 .75.75 0 0 0 0-1.062l-3-3A.75.75 0 0 0 12 5.25zm-6 9.5h12c1.252 0 2.25.998 2.25 2.25v2c0 1.252-.998 2.25-2.25 2.25H6A2.24 2.24 0 0 1 3.75 19v-2c0-1.252.998-2.25 2.25-2.25z"/></svg>