<svg xmlns="http://www.w3.org/2000/svg" width="24" height="24" viewBox="0 0 24 24"><path d="M5 2.25A3.76 3.76 0 0 0 1.25 6v12A3.76 3.76 0 0 0 5 21.75h2A3.76 3.76 0 0 0 10.75 18v-5.25h5.438l-1.72 1.719a.75.75 0 0 0 0 1.062.75.75 0 0 0 1.063 0l3-3a.75.75 0 0 0 .194-.469L18.75 12a1 1 0 0 0-.025-.129v-.064l-.02-.034a.75.75 0 0 0-.174-.304l-3-3A.75.75 0 0 0 15 8.25a.75.75 0 0 0-.531.219.75.75 0 0 0 0 1.062l1.719 1.719H10.75V6A3.76 3.76 0 0 0 7 2.25zm11 0a.75.75 0 0 0-.75.75.75.75 0 0 0 .75.75h2A3.24 3.24 0 0 1 21.25 7v10A3.24 3.24 0 0 1 18 20.25h-2a.75.75 0 0 0-.75.75.75.75 0 0 0 .75.75h2A4.76 4.76 0 0 0 22.75 17V7A4.76 4.76 0 0 0 18 2.25zM5 3.75h2c1.252 0 2.25.998 2.25 2.25v12c0 1.252-.998 2.25-2.25 2.25H5A2.24 2.24 0 0 1 2.75 18V6c0-1.252.998-2.25 2.25-2.25z"/></svg>