<svg xmlns="http://www.w3.org/2000/svg" width="24" height="24" viewBox="0 0 24 24"><path d="M6 1.25A3.75 3.75 0 0 0 2.25 5v2A3.75 3.75 0 0 0 6 10.75h5.25v5.44l-1.719-1.721A.752.752 0 0 0 8.47 15.53l3 3a.75.75 0 0 0 1.062 0l3-3a.752.752 0 0 0-1.062-1.062l-1.719 1.72V10.75H18A3.75 3.75 0 0 0 21.75 7V5A3.75 3.75 0 0 0 18 1.25zm-3 14a.75.75 0 0 0-.75.75v2A4.75 4.75 0 0 0 7 22.75h10A4.75 4.75 0 0 0 21.75 18v-2a.75.75 0 0 0-1.5 0v2A3.25 3.25 0 0 1 17 21.25H7A3.25 3.25 0 0 1 3.75 18v-2a.75.75 0 0 0-.75-.75z"/></svg>