<svg xmlns="http://www.w3.org/2000/svg" width="24" height="24" viewBox="0 0 24 24"><path d="M12 1.25c-2.953 0-5.399 2.248-5.715 5.12C3.42 6.936 1.25 9.471 1.25 12.5c0 3.443 2.807 6.25 6.25 6.25h3.75V22a.75.75 0 0 0 .75.75.75.75 0 0 0 .75-.75v-3.25h3.75c3.443 0 6.25-2.807 6.25-6.25 0-3.027-2.168-5.561-5.035-6.129C17.399 3.5 14.954 1.25 12 1.25zm0 1.5A4.24 4.24 0 0 1 16.25 7a1 1 0 0 0 .027.166.8.8 0 0 0 .116.275.75.75 0 0 0 .54.329 4.74 4.74 0 0 1 4.317 4.73 4.74 4.74 0 0 1-4.75 4.75h-3.75v-2.787l3.586-1.793a.75.75 0 0 0 .334-1.006.75.75 0 0 0-1.006-.334l-2.914 1.457V10a.75.75 0 0 0-.75-.75.75.75 0 0 0-.75.75v7.25H7.5a4.74 4.74 0 0 1-4.75-4.75A4.74 4.74 0 0 1 7.5 7.75H9A.75.75 0 0 0 9.75 7 .75.75 0 0 0 9 6.25H7.816A4.24 4.24 0 0 1 12 2.75z"/></svg>