<svg xmlns="http://www.w3.org/2000/svg" width="24" height="24" viewBox="0 0 24 24"><path d="M8.5 1.75a.75.75 0 0 0-.531.219.75.75 0 0 0 0 1.062l3.218 3.219H4C2.49 6.25 1.25 7.49 1.25 9v11c0 1.51 1.24 2.75 2.75 2.75h16c1.51 0 2.75-1.24 2.75-2.75V9c0-1.51-1.24-2.75-2.75-2.75h-7.187l3.218-3.219a.75.75 0 0 0 0-1.062.75.75 0 0 0-1.062 0L12 4.937 9.031 1.97a.75.75 0 0 0-.531-.22zm-4.5 6h16c.7 0 1.25.55 1.25 1.25v11c0 .7-.55 1.25-1.25 1.25H4c-.7 0-1.25-.55-1.25-1.25V9c0-.7.55-1.25 1.25-1.25zm9.656 1.5a.75.75 0 0 0-.529.219 2.77 2.77 0 0 0-.455 3.285l-1.918 1.918a2.77 2.77 0 0 0-3.285.455.75.75 0 0 0 0 1.06.75.75 0 0 0 1.062 0 1.24 1.24 0 0 1 1.768 0 1.24 1.24 0 0 1 0 1.768.75.75 0 0 0 0 1.06.75.75 0 0 0 1.06 0 2.76 2.76 0 0 0 .455-3.283l1.918-1.918c1.046.58 2.4.43 3.284-.455a.75.75 0 0 0 0-1.06.75.75 0 0 0-1.06 0 1.24 1.24 0 0 1-1.768 0 1.24 1.24 0 0 1 0-1.768.75.75 0 0 0 0-1.062.75.75 0 0 0-.532-.219z"/></svg>