<svg xmlns="http://www.w3.org/2000/svg" width="24" height="24" viewBox="0 0 24 24"><path d="M6 4.25C4.49 4.25 3.25 5.49 3.25 7v1.357c-1.15.33-2 1.393-2 2.643v8a.75.75 0 0 0 .75.75.75.75 0 0 0 .75-.75v-1.25h18.5V19a.75.75 0 0 0 .75.75.75.75 0 0 0 .75-.75v-8c0-1.25-.85-2.313-2-2.643V7c0-1.51-1.24-2.75-2.75-2.75h-4c-.786 0-1.497.338-2 .873a2.74 2.74 0 0 0-2-.873zm0 1.5h4c.7 0 1.25.55 1.25 1.25v5.25h-4.5V11c0-1.25-.85-2.313-2-2.643V7c0-.7.55-1.25 1.25-1.25zm8 0h4c.7 0 1.25.55 1.25 1.25v1.357c-1.15.33-2 1.393-2 2.643v1.25h-4.5V7c0-.7.55-1.25 1.25-1.25zm-10 4c.7 0 1.25.55 1.25 1.25v2a.75.75 0 0 0 .75.75h12a.75.75 0 0 0 .75-.75v-2c0-.7.55-1.25 1.25-1.25s1.25.55 1.25 1.25v5.25H2.75V11c0-.7.55-1.25 1.25-1.25z"/></svg>