<svg xmlns="http://www.w3.org/2000/svg" width="24" height="24" viewBox="0 0 24 24"><path d="M3.6 2.25A1.36 1.36 0 0 0 2.25 3.6v16.8c0 .737.613 1.35 1.35 1.35h16.8a1.36 1.36 0 0 0 1.35-1.35V3.6a1.36 1.36 0 0 0-1.35-1.35zm.15 1.5h16.5v16.5H3.75zM8 5.25a.75.75 0 0 0-.75.75v4A4.76 4.76 0 0 0 12 14.75 4.76 4.76 0 0 0 16.75 10V6a.75.75 0 0 0-.75-.75.75.75 0 0 0-.75.75v4A3.24 3.24 0 0 1 12 13.25 3.24 3.24 0 0 1 8.75 10V6A.75.75 0 0 0 8 5.25zm-2 12a.75.75 0 0 0-.75.75.75.75 0 0 0 .75.75h12a.75.75 0 0 0 .75-.75.75.75 0 0 0-.75-.75z"/></svg>