<svg xmlns="http://www.w3.org/2000/svg" width="24" height="24" viewBox="0 0 24 24"><path d="M12.5 1.248a.8.8 0 0 0-.262.053l-.049.021a.8.8 0 0 0-.22.147l-2 2a.75.75 0 0 0 0 1.062.75.75 0 0 0 1.062 0l.719-.718V15.02l-4-1.092v-2.285c1.15-.33 2-1.393 2-2.643 0-1.51-1.24-2.75-2.75-2.75S4.25 7.49 4.25 9c0 1.25.85 2.313 2 2.643V14.5a.75.75 0 0 0 .553.723l4.545 1.24A3.265 3.265 0 0 0 9.25 19.5a3.26 3.26 0 0 0 3.25 3.25 3.26 3.26 0 0 0 3.25-3.25 3.264 3.264 0 0 0-2.5-3.16v-1.815l5.006-1.82A.75.75 0 0 0 18.75 12V9.25h.75a.75.75 0 0 0 .75-.75v-3a.75.75 0 0 0-.75-.75h-3a.75.75 0 0 0-.75.75v3a.75.75 0 0 0 .75.75h.75v2.225l-4 1.455V3.813l.719.718a.75.75 0 0 0 1.062 0 .75.75 0 0 0 0-1.062l-2-2a.75.75 0 0 0-.306-.184l-.06-.015a1 1 0 0 0-.138-.018zm4.75 5.002h1.5v1.5h-1.5zM7 7.75c.7 0 1.25.55 1.25 1.25S7.7 10.25 7 10.25 5.75 9.7 5.75 9 6.3 7.75 7 7.75zm5.5 10c.975 0 1.75.775 1.75 1.75s-.775 1.75-1.75 1.75-1.75-.775-1.75-1.75.775-1.75 1.75-1.75z"/></svg>