<svg xmlns="http://www.w3.org/2000/svg" width="24" height="24" viewBox="0 0 24 24"><path d="M6.318 3.25a2.75 2.75 0 0 0-2.527 1.666l-2.318 5.412a2.7 2.7 0 0 0-.223 1.082v8.99c0 .737.613 1.35 1.35 1.35h2.8a1.36 1.36 0 0 0 1.35-1.35v-1.65H13a.75.75 0 0 0 .75-.75.75.75 0 0 0-.75-.75H2.75v-5.84c0-.17.035-.337.102-.492l2.318-5.41a1.25 1.25 0 0 1 1.148-.758h9.364c.502 0 .95.296 1.148.758l2.318 5.41c.067.155.102.323.102.492v1.09a.75.75 0 0 0 .75.75.75.75 0 0 0 .75-.75v-1.09c0-.372-.076-.74-.223-1.082L18.21 4.916a2.75 2.75 0 0 0-2.527-1.666zm.682 6a.75.75 0 0 0-.75.75.75.75 0 0 0 .75.75h8a.75.75 0 0 0 .75-.75.75.75 0 0 0-.75-.75zm-1 4a.75.75 0 0 0-.75.75.75.75 0 0 0 .75.75h1a.75.75 0 0 0 .75-.75.75.75 0 0 0-.75-.75zm9 0a.75.75 0 0 0-.75.75.75.75 0 0 0 .75.75h1a.75.75 0 0 0 .75-.75.75.75 0 0 0-.75-.75zm7.09 1.031q-.055-.001-.111.004l-2.985.281a3.823 3.823 0 0 0-3.437 4.17 3.83 3.83 0 0 0 1.3 2.512c-.4.898-.578 1.543-.578 1.543a.75.75 0 0 0 .512.93.75.75 0 0 0 .93-.512s.153-.501.46-1.203a3.8 3.8 0 0 0 1.557.178l.135-.012a3.96 3.96 0 0 0 3.559-4.318l-.256-2.58a1.11 1.11 0 0 0-1.086-.993zm-.367 1.535.215 2.186a2.43 2.43 0 0 1-2.206 2.676l-.134.013a2.4 2.4 0 0 1-.73-.046c.423-.732.967-1.49 1.632-2.086a.75.75 0 0 0 .059-1.059.75.75 0 0 0-1.059-.059c-.808.724-1.443 1.59-1.928 2.413a2.34 2.34 0 0 1-.523-1.264 2.296 2.296 0 0 1 2.084-2.53zM2.75 18.75h3.285l-.713 1.5H2.75z"/></svg>