<svg xmlns="http://www.w3.org/2000/svg" width="24" height="24" viewBox="0 0 24 24"><path d="M13 2.25c-1.51 0-2.75 1.24-2.75 2.75S11.49 7.75 13 7.75 15.75 6.51 15.75 5 14.51 2.25 13 2.25zm0 1.5c.7 0 1.25.55 1.25 1.25S13.7 6.25 13 6.25 11.75 5.7 11.75 5 12.3 3.75 13 3.75zm-.559 4.627c-.754 0-1.96.057-3.046.752s-1.93 2.074-1.93 4.225a.75.75 0 0 0 .75.75.75.75 0 0 0 .75-.75c0-1.794.563-2.53 1.238-2.961.375-.24.822-.371 1.258-.442l-1.156 4.63a.75.75 0 0 0 .134.642l4.932 6.338a.75.75 0 0 0 1.053.132.75.75 0 0 0 .13-1.052l-4.706-6.051 1.177-4.713h.346c.182.622.37 1.289.861 2.014.64.942 1.605 1.85 2.957 2.19a.75.75 0 0 0 .91-.546.75.75 0 0 0-.546-.91c-.901-.225-1.579-.84-2.078-1.576-.5-.737-.795-1.59-.891-2.069a.75.75 0 0 0-.734-.603zm-2.072 9.158a1 1 0 0 0-.146.006.75.75 0 0 0-.494.293L7.615 20.65a.75.75 0 0 0 .15 1.051.75.75 0 0 0 1.05-.15l2.113-2.817a.75.75 0 0 0-.15-1.05.75.75 0 0 0-.409-.149z"/></svg>