<svg xmlns="http://www.w3.org/2000/svg" width="24" height="24" viewBox="0 0 24 24"><path d="M4.6 2.25A1.36 1.36 0 0 0 3.25 3.6V6a.75.75 0 0 0 .75.75.75.75 0 0 0 .75-.75V3.75h14.5V6a.75.75 0 0 0 .75.75.75.75 0 0 0 .75-.75V3.6a1.36 1.36 0 0 0-1.35-1.35zm-3.1 6A.75.75 0 0 0 .75 9v6a.75.75 0 0 0 1.42.336l.83-1.66.83 1.66A.75.75 0 0 0 5.25 15V9a.75.75 0 0 0-.75-.75.75.75 0 0 0-.75.75v2.824l-.08-.16a.75.75 0 0 0-1.34 0l-.08.16V9a.75.75 0 0 0-.75-.75zm6 0a.75.75 0 0 0-.75.75v6a.75.75 0 0 0 .75.75h3a.75.75 0 0 0 .75-.75.75.75 0 0 0-.75-.75H8.25v-1.5H9.5a.75.75 0 0 0 .75-.75.75.75 0 0 0-.75-.75H8.25v-1.5h2.25a.75.75 0 0 0 .75-.75.75.75 0 0 0-.75-.75zm6 0a.75.75 0 0 0-.75.75v6a.8.8 0 0 0 .023.178l.024.068a1 1 0 0 0 .043.104l.045.072.053.068a1 1 0 0 0 .072.072l.068.053.072.045a1 1 0 0 0 .104.043l.068.024a.8.8 0 0 0 .178.023h2.4a1.36 1.36 0 0 0 1.35-1.35v-.9c0-.574-.22-1.1-.58-1.5.36-.4.58-.926.58-1.5v-.9a1.36 1.36 0 0 0-1.35-1.35zm6 0a.75.75 0 0 0-.75.75v6a.75.75 0 0 0 .75.75.75.75 0 0 0 .75-.75v-2.25h2.25a.75.75 0 0 0 .75-.75V9a.75.75 0 0 0-.75-.75zm-5.25 1.5h1.5v.75c0 .423-.327.75-.75.75h-.75zm6 0h1.5v1.5h-1.5zm-6 3H15c.423 0 .75.327.75.75v.75h-1.5zM4 17.25a.75.75 0 0 0-.75.75v2.4c0 .737.613 1.35 1.35 1.35h14.8a1.36 1.36 0 0 0 1.35-1.35V18a.75.75 0 0 0-.75-.75.75.75 0 0 0-.75.75v2.25H4.75V18a.75.75 0 0 0-.75-.75z"/></svg>