<svg xmlns="http://www.w3.org/2000/svg" width="24" height="24" viewBox="0 0 24 24"><path d="M4 6.25a.75.75 0 0 0-.75.75.75.75 0 0 0 .75.75h16a.75.75 0 0 0 .75-.75.75.75 0 0 0-.75-.75zm0 5a.75.75 0 0 0-.75.75.75.75 0 0 0 .75.75h13.5c.975 0 1.75.775 1.75 1.75s-.775 1.75-1.75 1.75h-1.75v-.75a.75.75 0 0 0-.38-.652.75.75 0 0 0-.757.01l-2.5 1.5a1 1 0 0 0-.134.103l-.002.004-.022.025a.8.8 0 0 0-.135.201l-.015.034a.8.8 0 0 0-.05.246L11.75 17l.006.03a.8.8 0 0 0 .049.245l.015.034a.8.8 0 0 0 .135.2l.022.026.002.004a1 1 0 0 0 .134.104l2.5 1.5a.75.75 0 0 0 1.137-.643v-.75h1.75a3.26 3.26 0 0 0 3.25-3.25 3.26 3.26 0 0 0-3.25-3.25zm0 5a.75.75 0 0 0-.75.75.75.75 0 0 0 .75.75h5a.75.75 0 0 0 .75-.75.75.75 0 0 0-.75-.75z"/></svg>