<svg xmlns="http://www.w3.org/2000/svg" width="24" height="24" viewBox="0 0 24 24"><path d="M3.6 2.25A1.36 1.36 0 0 0 2.25 3.6v16.8c0 .737.613 1.35 1.35 1.35h16.8a1.36 1.36 0 0 0 1.35-1.35V3.6a1.36 1.36 0 0 0-1.35-1.35zm.15 1.5h16.5v16.5H3.75zm6.137 3.51a.8.8 0 0 0-.223.07.75.75 0 0 0-.334 1.006L11.162 12 9.33 15.664a.75.75 0 0 0 .334 1.006.75.75 0 0 0 1.006-.334l1.33-2.66 1.33 2.66a.75.75 0 0 0 1.006.334.75.75 0 0 0 .334-1.006L12.838 12l1.832-3.664a.75.75 0 0 0-.334-1.006.75.75 0 0 0-1.006.334L12 10.324l-1.33-2.66a.75.75 0 0 0-.783-.404z"/></svg>