<svg xmlns="http://www.w3.org/2000/svg" width="24" height="24" viewBox="0 0 24 24"><path d="M12 1.336a1.35 1.35 0 0 0-.656.17L2.945 6.174c-.427.237-.695.69-.695 1.18v9.292c0 .49.266.943.693 1.18h.002l8.399 4.668c.407.226.905.226 1.312 0l8.399-4.668h.002a1.35 1.35 0 0 0 .693-1.18V7.354c0-.49-.266-.943-.693-1.18h-.002l-8.399-4.668a1.35 1.35 0 0 0-.656-.17zm-.75 1.94v7.449L4.545 7zm1.5 0L19.457 7l-6.707 3.725zm7.5 4.997v7.454L13.545 12zm-16.5.002L10.455 12 3.75 15.727zm7.5 5v7.45L4.543 17zm1.5 0L19.457 17l-6.707 3.725z"/></svg>