<svg xmlns="http://www.w3.org/2000/svg" width="24" height="24" viewBox="0 0 24 24"><path d="M10.363 1.447a1.3 1.3 0 0 0-.308.053L6.598 2.537c-.871.261-1.237 1.359-.7 2.092l4.997 6.814a.75.75 0 0 0 1.353-.484l-.457-8.24c-.041-.748-.712-1.308-1.428-1.272zm-.06 1.545.308 5.528-3.379-4.606zm6.693 4.729a1.34 1.34 0 0 0-1.101.586l-2.52 3.777a.75.75 0 0 0 .76 1.154l4.568-.832c.945-.171 1.416-1.33.858-2.111L18.115 8.27a1.34 1.34 0 0 0-1.119-.55zm.025 1.6 1.182 1.654-2.598.47zM5.115 11.128c-.704.008-1.365.582-1.365 1.342v2.642c0 .93.989 1.6 1.852 1.254l4.177-1.67a.75.75 0 0 0 .057-1.367l-4.133-2.066a1.3 1.3 0 0 0-.588-.135zm.135 1.584 2.42 1.21-2.42.97zm9.178 2.54a.75.75 0 0 0-.598 1.083l2.065 4.13c.434.87 1.703.986 2.287.208l1.836-2.447c.583-.778.118-1.965-.838-2.14l-4.545-.825a.8.8 0 0 0-.207-.008zm-2.854.499a.75.75 0 0 0-.605.217l-3.34 3.342c-.674.674-.412 1.884.48 2.218l2.317.87c.86.322 1.824-.346 1.824-1.264V16.5a.75.75 0 0 0-.463-.693.8.8 0 0 0-.213-.055zm4.268 1.254 2.83.515-1.545 2.06zm-5.092 1.306v2.606l-1.896-.711z"/></svg>