<svg xmlns="http://www.w3.org/2000/svg" viewBox="-10 0 2610 2048"><path d="M1132 1828q-52 0-107-53l-711-698q-44-42-44-90 0-50 46-98l210-217q42-43 91-43 29 0 59 17l-37-6q101-43 148.5-99.5T847 394l44-27q88-2 148.5-45t84.5-121l34-14q23 4 45 7t42 3q60 0 119.5-27.5T1465 93l35-6q29 13 73 19t81 6q50 0 104.5-8.5T1867 69l-47 52q2-35 21-55t65-18l250 11q80 4 128 52t46 123l-25 926q-2 75-55 126t-127 48l-252-9q-64-2-77-61l57 20q-118 16-209.5 63T1463 1480l16-56q0 46-9.5 80.5T1436 1565l-194 206q-54 57-110 57zm-49-157q19 19 48.5 19.5t48.5-20.5l93-99-31-30-95 95-35-34 94-95-23-23-96 94-36-36 96-93-23-22-96 93-35-35 94-93-64-63-93 95-36-36 92-95-21-21-95 93-35-35 92-93-64-62-93 92-35-35 92-91-24-24-91 93-35-35 89-92-21-21-91 91-36-35 90-91-64-62-89 91-37-36 89-91-22-20-89 89-36-35 88-89-27-27-106 104q-17 16-17 37.5t16 36.5q26 25 65 14-6 19 0 36.5t19 29.5q27 23 64 14-3 27 1.5 42t17.5 26 31 15 31 0q-3 18 .5 35t18.5 30 30.5 15 34.5-2q-6 46 15 67 12 12 30 14.5t40 1.5q-1 19 2.5 35t16.5 30q10 10 27 14t39 2q-2 26 1.5 40t13.5 25q14 13 31.5 16.5t34.5.5q-9 35 21 62 14 13 30 19t38 0q-15 31 16 64zm428-273L814 359l62-42 697 1040zm-44 15-44-5q95-90 195-139.5t211-62.5l-37 38 28-1112 30 18q-97 41-193 41-46 0-85-7t-71-20q-34 51-104.5 81.5T1251 276q-16 0-34-2.5t-35-7.5q-33 86-111 130t-161 46q-9 85-58.5 146T698 705l9-35 733 708q8 8 14.5 17t12.5 18zm125-81L1099 187l70-31 493 1145zm355-241q17 0 28-10.5t11-26.5q0-17-11-28t-28-11q-16 0-26.5 11t-10.5 28q0 16 10.5 26.5t26.5 10.5zm-262 195L1445 75l75-16 240 1211zm271-382q16 0 27-11.5t11-27.5-11-27-27-11-27 11-11 27 11 27.5 27 11.5zm97 93q16 0 27.5-11.5T2092 958t-11.5-27.5T2053 919t-27.5 11.5T2014 958t11.5 27.5T2053 997zm-92-280q17 0 28-11.5t11-27.5-11-27.5-28-11.5q-16 0-27 11.5t-11 27.5 11 27.5 27 11.5zm100 92q17 0 28-11t11-27q0-17-11-28t-28-11q-16 0-27 11t-11 28q0 16 11 27t27 11zm97 93q16 0 27.5-11t11.5-27-11.5-27.5T2158 825t-27 11.5-11 27.5 11 27 27 11zm-191-372q15 0 26.5-11.5T2005 492q0-16-11.5-27.5T1967 453q-16 0-27.5 11.5T1928 492t11.5 27 27.5 11zm100 92q15 0 26.5-11.5T2105 584q0-16-11.5-27.5T2067 545q-16 0-27.5 11.5T2028 584t11.5 27 27.5 11zm100 92q15 0 26.5-11t11.5-27-11.5-27-26.5-11q-16 0-27.5 11t-11.5 27 11.5 27 27.5 11zm-95-278q16 0 27.5-11.5T2111 397q0-15-11.5-26.5T2072 359t-27.5 11.5T2033 397q0 16 11.5 27.5T2072 436zm100 92q16 0 27.5-11.5T2211 489q0-17-11.5-28t-27.5-11-27.5 11-11.5 28q0 16 11.5 27.5T2172 528zm5-187q16 0 27-11t11-27q0-17-11-28t-27-11-27 11-11 28q0 16 11 27t27 11z"/></svg>