<svg xmlns="http://www.w3.org/2000/svg" viewBox="-10 0 2610 2048"><path d="M868 1978q-135 0-251-47.5T414 1798t-135.5-199-48.5-246 48.5-246T414 908t203-133 251-48 250.5 48T1321 908t135.5 199 48.5 246-48.5 245.5-135.5 199-202.5 133T868 1978zm0-78q158 0 284-72.5t199.5-196.5 73.5-278-74-278-200-197-283-73-283.5 73T384 1075t-74 278 73.5 278 200 196.5T868 1900zm-123-653q44 0 75.5-30t31.5-70-29.5-67.5T750 1052q-44 0-75.5 29.5T643 1152q0 38 30.5 66.5T745 1247zm-65 126q-33 0-52-17.5t-19-48.5q0-11 2-23t6-25q-52-6-83-27.5t-31-49.5q0-29 32.5-51t86.5-28q-26-47-26-90 0-28 15.5-46t39.5-18q23 0 51.5 21t41.5 50q11-50 38.5-85.5T835 899q30 0 51.5 44t21.5 108q0 18-.5 27.5T905 1096q40 0 62 15.5t22 45.5q0 43-43 86.5T832 1287q-24 37-67.5 61.5T680 1373zM357 218q0-34 21-53t48.5-31 48.5-23.5T496 80q0-8-3.5-20.5T489 33q0-31 22.5-51T565-38q24 0 42.5 12.5T637-13q23 0 36-22.5T704-80t54-22q18 0 31 6-37 43-37 120v37L530 220q-9-7-37.5-11.5T438 204q-42 0-81 14zm182 673q-70-76-107.5-173T394 516q0-116 45-217t123.5-178T744 1t219-43q132 0 247.5 57t197 156T1516 396l-78 17q-23-108-93-192.5T1175.5 87 963 38q-134 0-245 65T540.5 276.5 474 516q0 188 124 320zm1218 580q-85 0-166.5-23t-152.5-66l41-67q128 78 278 78 149 0 269.5-70.5t192-190T2290 868q0-147-71.5-266.5t-193-190.5-270.5-71q-109 0-205.5 41.5T1380 496t-114.5 168.5T1224 868h-80q0-125 47.5-234.5t131.5-193 195-131 237-47.5q128 0 239.5 46.5t196 129.5 132 193 47.5 237q0 126-47.5 235.5t-131.5 192-195 129-239 46.5zm125-707q45 0 74.5-27.5T1986 667q0-48-38.5-84t-89.5-36q-44 0-74.5 28.5T1753 646q0 47 38.5 82.5T1882 764zm46 146q-48 0-92.5-39t-56.5-89q-73 0-128.5-40.5T1595 647q0-64 91-64-8-29-11.5-53t-3.5-44q0-79 63-79 35 0 70 23t60 64q34-26 56-36t40-10q39 0 62 40.5t27 114.5q41 6 78 37.5t37 60.5q0 31-48.5 53.5T2002 777q0 70-17 101.5t-57 31.5z"/></svg>