<svg xmlns="http://www.w3.org/2000/svg" viewBox="-10 0 2610 2048"><path d="M2193 1978q-128 0-163-118l-252-838q-81-269-363-294l-875-80q-76-7-115.5-50T385 482q0-81 56.5-128.5T591 308l1098 18q362 6 433 331l244 1116q12 53-8.5 100t-64 76-100.5 29zm-1579-78q-117 0-203-51t-133.5-141-47.5-205q0-126 43.5-269t126-298T600 621l90 6Q542 819 452.5 995.5T363 1315q0 94 57.5 146.5T599 1514q99 0 220-64t247.5-176.5T1311 1014t211-313l65 36q-100 179-226 334.5T1099.5 1344 834 1526.5 596 1592q-110 0-179-38t-106-118q0 63 7 118 17 126 92 197.5t204 71.5q182 0 381.5-110t396.5-313.5T1762 918l65 41q-133 215-284.5 388.5t-310.5 297T916 1834t-302 66zM716 610l-82-14q19-29 29.5-74.5T674 437q0-45-13-62l72-37q11 19 16 45.5t5 57.5q0 43-10 88t-28 81zm1477 1288q47 0 75-32.5t19-75.5L2043 674q-30-137-115-201.5T1688 406L588 388q-58-1-90.5 24T465 482q0 79 83 86l874 80q122 11 206.5 53t139 116 86.5 181l252 838q18 62 87 62zm-179-309-64-31q7-44 47-79t97.5-55.5T2210 1403q36 0 63 8l-16 76q-23-5-44-5-60 0-122 29.5t-77 77.5zM808 351q139-131 296.5-233t312-161 284.5-59q127 0 195 47t68 127q0 60-36.5 101.5T1835 226q21-29 34-59t13-64q0-59-47.5-93.5T1698-25q-109 0-243 49t-272 134-260 193z"/></svg>