<svg xmlns="http://www.w3.org/2000/svg" viewBox="-10 0 2610 2048"><path d="m1574 1624-78 14-58-321 78-14zM935 722l-14 78-321-58 14-78zm995 788-55 55-305-299 56-56zm-900-900-56 56-302-301 56-54zm132-52-77 15-58-321 77-15zm839 575-14 78-321-58 14-78zm-635-363 59 143 242-242q29-29 28.5-59t-20.5-50-50-20.5-59 28.5zm357-43-328 328-122-304 237-237q44-43 91.5-48t88 18 63.5 63.5 18.5 88T1723 727zm-218 161 59-59q109 57 224 41.5T1987 770l170-172q71-72 93.5-164t-2.5-184.5T2151 84q-73-73-165.5-97.5t-184-1T1639 80l-171 171q-84 84-100 199t40 223l-59 59q-53-89-61-187.5t24.5-190.5 99.5-159l170-170q86-86 199-114t226.5 1T2208 27q85 86 115 200.5t3.5 228.5T2215 655l-172 171q-67 67-159 99t-191 24-188-61zm171-170 49-68q32 4 57.5-4t48.5-32l170-171q44-44 43.5-100.5T1998 237q-48-45-105-45.5T1792 235l-170 170q-24 24-32 49t-5 56l-67 50q-28-59-8.5-117.5T1565 348l172-171q64-64 156.5-63.5T2054 181q67 69 68 161t-64 157l-170 172q-36 36-94.5 55.5T1676 718zm-643 587 200-200-60-142-241 241q-30 30-29.5 60t20.5 50 50 20.5 60-29.5zm293-181-237 237q-44 44-92 49t-88.5-18-63.5-63.5-18-88.5 49-92l328-328zm-293 405-170 171q-43 43-100 56.5t-115-2-104-59.5q-44-45-59-103t-1-115.5 57-100.5l170-170q36-36 94.5-56t116.5 9l-48 68q-31-4-57 4t-49 31l-171 171q-43 43-42.5 100.5T601 1638q47 46 104.5 47.5T808 1642l169-169q24-24 31.5-49.5t5.5-56.5l67-49q29 58 9 116t-57 95zm154 154-169 169q-85 85-198.5 113t-227.5-1.5T391 1848q-85-86-115-199.5t-2.5-227.5T385 1222l170-171q68-68 160-100.5T906.5 926t187.5 61l-60 60q-108-56-223-40t-199 100l-170 170q-72 72-94.5 164.5t2.5 185 97 165.5q74 73 166 97.5t183.5 1T960 1795l170-170q84-84 100-198.5t-40-223.5l60-58q53 87 61 186.5t-24 191.5-100 160z"/></svg>