<svg xmlns="http://www.w3.org/2000/svg" viewBox="-10 0 2610 2048"><path d="M1300 1978q395-303 644.5-558T2312 940t118-438q0-126-42.5-235.5T2268.5 74t-179-129.5T1868-102q-121 0-234 46.5t-200.5 127T1300 255q-45-103-133-183.5t-201-127T732-102q-119 0-221.5 46.5T331.5 74t-119 192.5T170 502q0 213 118 438t367.5 480 644.5 558zm96-99 41-45L253 744l7 90zm-346-125h501l30-60h-561zm-295-260h1088l45-60H725zm824 226 41-45L236 403l-41 45zM521 1234h1562l15-60H491zm1236 328 41-45L316 148l-41 45zM335 974h1944v-60H320zm965 909q-365-283-597-524.5t-342.5-453T250 502q0-147 63.5-265.5T486 48t246-70q128 0 237 53t193.5 151T1300 414q53-134 137.5-232t194-151T1868-22q137 0 246 70t172.5 188.5T2350 502q0 192-110.5 403.5t-342.5 453-597 524.5zm632-490 41-45L491-19l-41 45zM295 193h932l-30-60H311zm-73 526h2160v-60H222zm1872 496 41-45L791-71l-76 14zM211 454h2181v-60H211zm2022 569 41-45-888-821-41 45zm110-247 37-49L1588 6l-56 31zm-954-583h913v-60h-898zm997 303 16-67-544-496-77 14z"/></svg>