<svg xmlns="http://www.w3.org/2000/svg" viewBox="-10 0 2610 2048"><path d="M2040 1858q-34 20-73 20-36 0-68.5-21t-55.5-59l-128-214q-61-101-100.5-236.5T1562 1078l-447-767q-53 0-88.5-33T991 193q0-72 60-106l125-71q31-18 65-18 49 0 83.5 37t34.5 87q0 32-16 61l447 763q119 83 209.5 181t154.5 205l129 215q33 55 17 112.5t-71 89.5zM709 995 414 887l159-140 375 57zm591 469q-613 0-911.5-119T90 988q0-80 30-184t88-225q92 51 256 88.5T842.5 725t457.5 20h104v78h-104q-221 0-420-16.5T519.5 759 247 685q-38 91-57.5 167T170 988q0 195 278.5 296.5T1300 1386q101 0 195-3.5t182-10.5l6 78q-86 7-182 10.5t-201 3.5zm0-375q-310 0-526.5-34.5T421 945.5 216 752l28-106q64 132 190 211.5T771 973t529 36q72 0 143-2t140-6l5 80q-66 4-138.5 6t-149.5 2zm-378-43 229-247h314l109 216zm1081 748 189-109q29-17 37-44.5t-9-55.5l-129-215q-65-109-154.5-202T1734 997l-475-811q-8-13 6-25 13-11 16.5-19.5t3.5-19.5q0-20-13.5-35T1241 72q-15 0-28 8l-125 71q-23 13-23 42 0 25 23 38t51 3q13-4 21 9l474 812q11 137 49.5 267t94.5 224l128 214q27 44 62 44 18 0 35-10zm123-419-24-76q170-52 249-128.5t79-182.5q0-60-18-136t-54-165q-138 53-296.5 82.5T1676 819l-51-82q260-17 463.5-58t310.5-99q55 121 83 224.5t28 183.5q0 269-384 387zm-143-413-152-177 226-53 197 116zm-117 93-53-79q209-32 336.5-108T2344 656l66 46q-72 143-204 226t-340 127z"/></svg>