<svg xmlns="http://www.w3.org/2000/svg" viewBox="-10 0 2610 2048"><path d="M596 1211q44 0 75.5-5.5T732 1189v-57q-30 10-61 15.5t-65 5.5q-89 0-134-56.5T427 943q0-98 48.5-154.5T607 732q35 0 64.5 9t53.5 20l27-55q-29-15-66.5-22.5T607 676q-121 0-185.5 74T357 943q0 122 60 195t179 73zm444 0q118 0 179-74t61-194q0-122-61-195t-178-73q-123 0-182 73.5T800 942q0 121 59 195t181 74zm0-57q-88 0-130-56.5T868 943q0-100 42-156t131-56q88 0 129 56t41 156q0 98-41 154.5t-130 56.5zm560 57q118 0 179-74t61-194q0-122-61-195t-178-73q-122 0-182 73.5T1359 942q0 121 60 195t181 74zm0-57q-88 0-129.5-56.5T1429 943q0-100 41.5-156t130.5-56q88 0 128.5 56t40.5 156q0 98-40.5 154.5T1600 1154zm351 49h293v-58h-227V682h-66zM426 1978q-68 0-117-48.5T260 1814V63q0-68 49-116.5T425-102h1750q68 0 116.5 48.5T2340 63v1750q0 67-48.5 116t-116.5 49z"/></svg>