<svg xmlns="http://www.w3.org/2000/svg" viewBox="-10 0 2610 2048"><path d="M500 1944q-26 16-51.5 25t-49.5 9-47.5-10.5T304 1933t-34-47.5-10-47.5q0-25 9-50.5t25-51.5l217-367q-13-38-3-87.5t59-98.5L1808-56q25-25 54-35.5t60-10.5q70 0 144.5 43.5T2197 41t99.5 130.5T2340 317q0 31-11 60t-35 53L1049 1673q-46 46-95 55.5t-87-3.5zm-99-49q22 0 58-21l336-199-234-233-198 334q-22 36-22 59 0 22 19 41t41 19zm460-268q30 31 66 24.5t67-37.5l58-57q-40-32-92.5-75T851 1384q-52-53-96-103t-78-95l-55 55q-34 34-38 69t26 65zm247-125 834-834q-39-52-84.5-100t-92.5-94q-47-47-95-93.5T1569 295l-834 833q39 52 83 102t90 97q47 47 97.5 91.5T1108 1502zm892-891 108-109q-43-57-85-107t-86-94q-43-44-94-86.5T1736 130l-109 108q47 36 98.5 80t100.5 94q53 53 96.5 103.5T2000 611zm167-166 66-68q36-37 29-84.5t-40.5-98.5-80.5-97q-46-46-97-80t-98.5-41T1861 5l-68 66q50 38 101 81t100 93q48 49 91.5 99.5T2167 445z"/></svg>