<svg xmlns="http://www.w3.org/2000/svg" viewBox="-10 0 2610 2048"><path d="M1539 1655q-242 0-429.5-37T764 1500l9-87q146 86 331.5 124t434.5 38q446 0 668.5-110t222.5-327q0-341-108.5-590t-308-384.5T1539 28q-274 0-474 135.5T756.5 548 648 1138q0 39 6 68l-75 31q-6-22-8.5-46.5T568 1138q0-367 120.5-633.5t339-411.5T1539-52q294 0 512 145t338.5 411.5T2510 1138q0 517-971 517zm-1164 67q-47 0-76.5-29.5T269 1618q0-28 13-51l54 25q-7 14-7 26 0 44 46 44 32 0 50.5-26.5T444 1563q0-41-12.5-70t-38.5-62l54-28q32 37 44.5 75t12.5 85q0 70-35 114.5t-94 44.5zm164-52q-28 0-54-11.5t-40-33.5l49-34q14 19 45 19 18 0 37-11l35 48q-32 23-72 23zm170 81q-64 0-105-37t-41-96q0-60 41-97t105-37q65 0 104.5 37t39.5 97q0 59-39.5 96T709 1751zm0-60q40 0 62-19.5t22-53.5q0-74-84-74-40 0-63 19.5t-23 54.5q0 34 23 53.5t63 19.5zm-260 237q-158 0-258.5-80.5T90 1628q0-134 91-225t284-155q80-26 135-59.5t109-77.5l44-36q56-45 93.5-62t71.5-17q54 0 86 35.5t32 89.5q0 57-33.5 117.5t-90 112T787 1432l-32-62q57-24 105-67.5t77-92.5 29-89q0-26-15-40.5t-37-14.5q-21 0-45.5 13t-70.5 51l-44 36q-59 48-120.5 84T487 1314q-172 56-249.5 130.5T160 1628t79.5 169.5T449 1858q86 0 158.5-38.5T705 1716l72 7q-18 63-67.5 109T592 1903t-143 25zm150-391q0-58-13-95.5t-41-75.5l55-26q32 43 45.5 87.5T659 1537zm-217-355-173-86 205-103zm416 350-57-17q4-13 5.5-26t1.5-29q0-45-11-78t-38-73l55-25q30 43 42.5 83t12.5 90q0 39-11 75zm-510-465q-37-64-57.5-133.5T210 796q0-32 2.5-66t8.5-64h71q-7 29-9.5 63.5T280 796q0 61 18 122.5t50 117.5zm1251 184q-277 0-423-205l55-43q122 177 368 177t369-177l56 43q-146 205-425 205zm-361-426q-49 0-79.5-38.5T1068 694q0-53 31-92.5t79-39.5 79.5 39.5T1289 694q0 54-31.5 92.5T1178 825zm724 0q-48 0-79.5-38.5T1791 694q0-53 31.5-92.5T1902 562t79.5 39.5T2013 694q0 54-31.5 92.5T1902 825z"/></svg>