<svg xmlns="http://www.w3.org/2000/svg" viewBox="-10 0 2610 2048"><path d="M677 1373q-115 0-206-55.5T327.5 1165 275 944q0-152 65.5-262.5t184.5-171T806 450h690q163 0 281.5 60.5t183 171T2025 944q0 124-52 221t-142 152.5-206 55.5q-115 0-181-29.5t-102.5-72.5-62.5-85q-37-61-63.5-82t-64.5-21q-39 0-65 21t-62 81q-26 43-63 86.5T858 1344t-181 29zm392 605q-69 0-69-74v-182h70v169q0 10 2.5 13.5t10.5 3.5h138q8 0 10.5-3.5t2.5-13.5v-169h70v182q0 74-69 74zm82-211q-130 0-205.5-66.5T865 1510h574q-4 124-80.5 190.5T1151 1767zm0-52q90 0 149.5-38.5T1376 1562H928q15 77 73.5 115t149.5 38zm0-291q-104 0-194-25t-146-70l51-55q46 35 122.5 55t166.5 20 167-20 122-55l52 55q-56 45-146.5 70t-194.5 25zm-474-126q92 0 144-21.5t82-56.5 55-76q47-77 89.5-106.5T1151 1008q60 0 102.5 29.5T1343 1143q26 41 56 76.5t82.5 57T1625 1298q95 0 168-45.5t115-125.5 42-183q0-197-120.5-308T1496 525H806q-212 0-334 111T350 944q0 103 42.5 183T509 1252.5t168 45.5zm10-97q-98 0-162.5-73T460 943q0-154 92-237t263-83h672q171 0 263 83t92 237q0 112-64.5 185t-162.5 73q-87 0-140.5-49.5T1371 1038q-40-53-71-80t-64.5-37-84.5-10q-57 0-92 12.5T996.5 964t-64.5 74q-50 64-104 113.5T687 1201zm0-70q60 0 98.5-35.5T873 997q37-48 72.5-83t83.5-54 122-19q67 0 113 15t84.5 49 81.5 92q48 64 86.5 99t98.5 35q69 0 113-52.5t44-135.5q0-250-285-250H815q-285 0-285 250 0 83 44 135.5t113 52.5zm582 802v-75h378q164 0 288.5-70t194.5-195 70-290v-245h75v245q0 186-80 328t-221.5 222-326.5 80zm4-180 20-75h352q171 0 271-101t100-274v-245h75v245q0 136-55 237t-155.5 157-235.5 56zm805-647q-110 0-110-110V890q0-111 110-111h136q111 0 111 111v106q0 110-111 110zm3-75h130q25 0 32-7t7-32v-98q0-26-7-33t-32-7h-130q-24 0-31 7t-7 33v98q0 25 7 32t31 7zm-65-205V264h75v562zm184 0V264h75v562zm-122-509q-110 0-110-110V9q0-111 110-111h136q111 0 111 111v198q0 110-111 110zm3-75h130q25 0 32-7t7-32V13q0-26-7-33t-32-7h-130q-24 0-31 7t-7 33v190q0 25 7 32t31 7z"/></svg>