<svg xmlns="http://www.w3.org/2000/svg" viewBox="-10 0 2610 2048"><path d="M1641 1978q-31 0-73-60t-89-142q-34 4-61.5 5t-60.5 1q-249 0-436.5-85.5t-292-241T524 1090q0-40 3-74l-85-122-11-179q55-78 134.5-119.5T739 554q73 0 143 32t132.5 85T1124 788l74 41q35-48 92.5-122.5t128-161 146-169.5T1712 229q118-106 230.5-179.5t214-112.5 185.5-39q61 0 97.5 32.5T2476 13q0 22-6 43.5t-22 44.5q23 41 23 85 0 49-22 103t-55 90q0 101-73.5 209T2113 782q-6 60-34.5 114t-86.5 104q0 56-23 115.5t-76 112.5q26 1 45 2t38 1q86 0 150 16.5t64 66.5q0 16-11 45.5t-30 65.5q-11 21-22 69t-36 110.5-78 128.5q-73 91-145.5 124.5T1754 1912q-34 17-56.5 41.5T1641 1978zM489 916q-40-5-88.5-17.5T307 870t-74-30.5-29-23.5q0-13 69-43.5T472 696q22 81 22 148 0 17-1 34.5t-4 37.5zm195-49q-22 0-37.5-15.5T631 814q0-21 15.5-36.5T684 762q21 0 36.5 15.5T736 814q0 22-15.5 37.5T684 867zm964 1023q46-37 83-54.5t71-32 70-40.5 79-80q46-57 67.5-111.5t33-101.5 26.5-81l27-61q-8-3-39.5-10t-89.5-7q-50 0-88.5-5t-70.5-15q-63 40-124 60t-129 25l-4-80q80-4 153.5-38t125-87 66.5-114q-39 22-83 35.5t-90 18.5l-5-80q61-6 124.5-37t111-76.5T2024 825q-91 39-206 52l-8-80q103-11 198.5-53t171-112T2296 467q-77 57-164.5 98.5T1948 629l-18-78q92-21 175-61t147.5-90.5 101.5-104 37-101.5q0-19-4-31-42 34-110.5 77T2103 339l-39-70 90-49q79-43 133-81t81.5-69 27.5-53q0-18-15.5-28.5T2333-22q-104 0-255.5 84T1765 289q-76 67-158 157t-158.5 184T1311 804.5 1216 933l-128-71q-13-7-29.5-22t-35.5-40q-27-36-70.5-74.5t-98-65T739 634q-69 0-126 26.5T513 740q12 37 12 75 0 13-1 25.5t-4 25.5l89 129q-2 22-3.5 45.5T604 1090q0 187 93.5 324.5t263 212.5 396.5 75q25 0 53-1t57-3 55-5q50 85 79.5 131t46.5 66zM1208 869l-130-67q-14-27-24-64t-10-72q0-94 30.5-197.5t82.5-201T1274 91t133.5-125.5T1540-81q82 0 82 82 0 34-18.5 74.5T1557 153q37 7 58 39.5t21 85.5q0 30-6 71zM782 324q74 0 128 29.5t54 65.5q0 21-21.5 32T885 462q-43 0-100.5-8t-112-15.5T582 431q-31 0-56.5 1.5T479 437q-24 28-43.5 55.5T402 548q31-5 63-8t60-3q38 0 72 6t72 20l-105 60q-22-6-44.5-10t-39.5-4q-25 0-50 3t-59 13q-12 39-17 79.5t-5 82.5q0 122 67 266l-72 34q-75-155-75-300 0-46 15-97t41-103l-11-32q-14-41-45-94t-64.5-107.5-57-102T124 174q0-28 24-28 47 0 94.5 55T325 339.5 369 509q17-28 35.5-55t39.5-54q3-25 5-55t2-49q0-60-13-128T425 47q0-41 11.5-69T482-50q33 0 47 41.5T543 92q0 48-10.5 112.5T502 328q21-26 43-50t44-46q80-81 154.5-139.5T869 34q26 0 37.5 13T918 80q0 35-43 74t-106 78-124 74-96 63q59-20 123.5-32.5T782 324z"/></svg>