<svg xmlns="http://www.w3.org/2000/svg" viewBox="-10 0 2610 2048"><path d="M595 1616v-386q0-183 50-335.5t141-264 214.5-172T1271 398q144 0 265.5 60T1748 625t140 248.5 50 304.5v438h-80v-438q0-147-44-274t-123-223-186-149.5-234-53.5q-173 0-307.5 95.5T752 838t-77 392v386zm-170 359q-67 0-116-49t-49-116v-34h80v34q0 34 25.5 59.5T425 1895h30v80zm110 0v-80h120v80zm-275-279v-120h80v120zm475 277v-78h120v80zm-475-477v-120h80v120zm675 479v-80h120v80zm-675-679v-120h80v120zm875 679v-80h120v80zm-875-879V976h80v120zm1075 879v-80h120v80zM260 896V776h80v120zm1275 1079v-80h120v80zM260 696V576h80v120zm1475 1279v-80h120v80zM260 496V376h80v120zm1675 1479v-80h120v80zM260 296V176h80v120zm655 652q-16 0-28-14t-3-34q29-65 70.5-116t96.5-90q23-17 52-32t42-15q14 0 24 10.5t10 25.5q0 23-22 32-34 14-69 38-46 31-80.5 73.5T949 924q-10 24-34 24zm1220 1027v-80h40q35 0 60-25.5t25-59.5v-34h80v34q0 67-48.5 116t-116.5 49zM260 96V63q0-68 49-116.5T425-102h30v80h-30q-34 0-59.5 25T340 63v33zm2000 1600v-120h80v120zM1275 688q-34 0-34-35 0-29 30-34 23-3 46-3 11 0 22 .5t22 2.5q14 2 22.5 11.5t8.5 22.5q0 35-38 35-7 0-18-1t-22-1q-12 0-22 1t-17 1zM535-22v-80h120v80zm1725 1518v-120h80v120zM735-22v-80h120v80zm1525 1318v-120h80v120zM935-22v-80h120v80zm200 0v-80h120v80zm1125 1118V976h80v120zM1335-22v-80h120v80zm925 918V776h80v120zM1535-22v-80h120v80zm725 718V576h80v120zM1735-22v-80l130 2v78zm525 518V376h80v120zM1935-22v-80h120v80zm325 318V176h80v120zm0-200V63q0-35-25-60t-60-25h-40v-80h40q68 0 116.5 48.5T2340 63v33z"/></svg>