<svg xmlns="http://www.w3.org/2000/svg" viewBox="-10 0 2610 2048"><path d="M120 1828h2360V48H120zm45-207h901v-70H165zm362-403h547v-59H574q-7-62-61.5-112.5T388 989V483q70-8 124.5-58T574 313h500v-59H527q-3 79-59.5 130T330 438v596q81 3 137.5 53.5T527 1218zm277-198q-78 0-131.5-54.5T603 811h-55v-40l50-4q-1-8-1-15v-28l1-13h-50v-40l55-4q16-101 72.5-157.5T815 453q39 0 73 19t57 48l-45 44q-18-23-39-35.5T813 516q-53 0-86.5 39.5T682 666h215v45H678q-1 6-1 12v27.5l1 15.5h183v45H683q11 69 43.5 108t82.5 39q56 0 99-58l45 41q-28 37-65 58t-84 21zm227 762h70V85h-70zm-831-34v-324h863v-80H200V128h2200v1216h-861v80h861v324zm1339-127h896v-70h-896zm-40 161h70V85h-70zm27-564h548q3-80 59.5-130.5T2271 1034V438q-81-3-137.5-54T2074 254h-548v59h500q8 62 62.5 112t123.5 58v506q-69 7-123.5 57.5T2026 1159h-500z"/></svg>