<svg xmlns="http://www.w3.org/2000/svg" viewBox="-10 0 2610 2048"><path d="M942 1978q-292 0-463.5-90T292 1641q-11-119-19.5-244.5T260 1111t-4-381h80q0 220 4 379.5t12.5 284.5 19.5 240q12 118 158 191t412 73q200 0 344.5-34.5t222-94T1586 1637q0-20-6-39.5t-19-45.5q-19-40-30.5-79.5T1519 1390V678h80v712q0 42 10 77t28 71q14 27 21.5 49.5t7.5 49.5q0 102-87.5 178.5T1329 1935t-387 43zm-5-668q-85 0-155-33.5T657 1176l51-44q47 57 102.5 82.5T937 1240q72 0 128-25.5t102-82.5l51 44q-55 67-125.5 100.5T937 1310zM169 574q-17 0-28-11t-11-28V370q0-17 11-28t28-11h101l-26 243zm490 419q-38 0-63-28t-25-68 25-68.5 63-28.5 63.5 28.5T748 897t-25.5 68-63.5 28zm530 0q-38 0-63-28t-25-68 25-68.5 63-28.5 63.5 28.5T1278 897t-25.5 68-63.5 28zM611 341q-27 0-27-28v-52q0-28 27-28t27 28v52q0 28-27 28zm160 30q-27 0-27-28V231q0-28 27-28t27 28v112q0 28-27 28zM246 829l-77-103 63-382q47-131 79-211t57.5-123T420-50t62-22q110-17 212.5-23.5T938-102q142 0 244.5 6.5T1395-72q36 5 62 22t51.5 60 57.5 123 79 211l63 382-77 103q-147-113-324.5-169T938 604q-190 0-367.5 56T246 829zm19-158q112-76 232-131.5t234-86T938 423q94 0 208 30.5t234 86T1612 671l-51-305q-37-101-61-163.5t-40.5-98-29.5-53-28-27.5v101q0 17-11 28t-28 11H514q-17 0-28-11t-11-28V24q-15 10-28 27.5t-29.5 53-40.5 98T316 366zm666-330q-27 0-27-28v-52q0-28 27-28t27 28v52q0 28-27 28zM584 74q45-11 88.5-18t86.5-7q27 0 55 3 15 1 24.5-9t9.5-23q0-24-26-27-16-2-32.5-2.5T756-10q-48 0-95.5 6T566 16q-22 7-22 27 0 14 11 24.5t29 6.5zm507 297q-27 0-27-28V231q0-28 27-28t27 28v112q0 28-27 28zm160-30q-27 0-27-28v-52q0-28 27-28t27 28v52q0 28-27 28zm382 233-26-243h101q17 0 28 11t11 28v165q0 17-11 28t-28 11zm404 344q-16 0-27-11t-11-27V742q0-17 11-27.5t27-10.5h82q16 0 26.5 10.5T2157 741l-38 66 38 74q-1 16-11.5 26.5T2119 918zm213-86q-28 19-49 11t-21-36 21-36 49 11l38 25zm50 33 74-58-74-58q-56-44-103.5-24t-47.5 82q0 61 47.5 81.5T2300 865zm30 44q-54 40-108.5 37t-90.5-40-36-99q0-63 36-99.5t90.5-39.5 108.5 37l140 102zm-574 1025v-500q0-30 30-37v-12q0-33 30-45V956q0-107 48.5-165.5T2003 732q27 0 57 6v162q-43 0-56.5 10.5T1990 956v384q30 12 30 45v12q30 7 30 37v500zm114-597h66V956q0-56 21-80.5t49-22.5v-67q-136-3-136 170z"/></svg>