<svg xmlns="http://www.w3.org/2000/svg" viewBox="-10 0 2610 2048"><path d="M578 1065q-107-74-195.5-179.5T242 669t-52-201q0-79 37-125t115-46q37 0 97.5 8T569 323.5 698 340q59-201 155.5-321.5T1067-102h320q118 0 214.5 120T1756 339q62-6 129-16t127-18 100-8q71 0 114.5 46.5T2270 483q0 10-.5 19.5T2267 523l-322-11q38-33 74-69t71-74q-70 15-194.5 32.5T1602 431t-375 12-375-12-293-29.5T364 369q136 142 268.5 231T910 731t318 42q106 0 191.5-13t166-43 170.5-80v87q-85 47-164.5 74t-167 38-197.5 11q-119 0-220.5-15t-204-59T578 644zm638 357q-85 0-155-33.5T936 1288l51-44q47 57 102.5 82.5T1216 1352q72 0 128-25.5t102-82.5l51 44q-55 67-125.5 100.5T1216 1422zm16 556q-292 0-463.5-90T582 1641q-9-89-15.5-183t-11-209.5-7-268T546 622h80q0 205 2.5 357.5t7 267.5 11 208 15.5 179q12 118 158 191t412 73q277 0 416-65t164-163l80 11q-28 134-188 215.5t-472 81.5zm-284-864q-38 0-63-28t-25-68 25-68.5 63-28.5 63.5 28.5 25.5 68.5-25.5 68-63.5 28zm1074 861v-278h70v278zm-33-174v-137h136v137zm-504-687q-38 0-63.5-28t-25.5-68 25.5-68.5T1485 921t63 28.5 25 68.5-25 68-63 28zm-273-751q79 0 149-1.5t135-4 128-5.5q-92-38-193-55t-203-17q-103 0-204 17t-194 55q61 3 122 5.5t125.5 4T1212 363zm707 1345q-85 0-135-43.5t-52-121.5l-17-890 47-163h605l43 169-36 890q-3 78-52 118.5t-135 40.5zm0-62h268q67 0 95-26.5t30-73.5l36-883-22-111h-30l-26 107-31 816q0 21-36 21-34 0-34-21l16-814-20-109h-34l-24 108-16 815q0 8-10.5 14.5t-27.5 6.5q-37 0-37-21l1-814-22-109h-34l-22 109 2 812q0 10-7 15t-28 5q-20 0-27.5-5.5t-7.5-15.5l-16-817-24-105h-30l-24 107 17 885q1 47 30 75.5t95 28.5zM807 271q89-36 194-53.5t226-17.5 226 17.5 194 53.5q-50-133-118.5-213T1387-22h-320q-73 0-141.5 80T807 271z"/></svg>