<svg xmlns="http://www.w3.org/2000/svg" viewBox="-10 0 2610 2048"><path d="M2183 1978q-218-671-671.5-1158T384 65l24-55q710 283 1174.5 768.5T2264 1936zm-228-292q-111 0-166-19.5t-69-58.5q-160-2-236-21t-76-63q0-14 8-35-89-36-163-107.5t-154-174T912 979q-35-42-63-70t-68-58-111-79q9-17 9-32 0-31-16.5-40t-44.5-9L407 492q33 0 55-9t22-28q0-18-24.5-38.5t-56.5-53-56.5-84T322 148q0-129 68.5-189.5T599-102q128 0 274.5 41T1171 53t294.5 170 267 211 214 237T2080 917q13-20 26-30t26-10q31 0 54 31.5t36 81.5 13 106q0 29-4 52 23 13 35 53t12 94q0 57-19 127t-53 134-80 104q-16 7-62 16.5t-109 9.5zm0-80q35 0 72-4.5t56-10.5q31-31 57-81.5t42-107.5 16-107q0-21-7-46.5t-24-25.5q-8 0-21 11 6-61 7.5-85.5t1.5-52.5q0-22-4.5-53t-13-55.5T2117 963q-10 0-31.5 28.5T2050 1049q-32-124-110-246t-189-236.5T1509 352q-142-109-299.5-193t-314-132.5T599-22q-109 0-153 39t-44 131q0 65 30 114.5t74.5 87 89 66T670 467t30 43q0 10-6 16.5t-27 6.5H566l118 113q39 0 71-10t55.5-19.5T846 607q14 0 14 19 0 22-21.5 52T763 743q45 31 81.5 59t69.5 59.5 68 71.5 75 94q73 98 140.5 178.5t140 139.5 160.5 95q-9 12-9 34 0 17 18 29.5t77.5 19 183.5 6.5q2 40 47.5 58.5T1955 1606zM665 268q-15 0-29.5-1.5T607 262q28-52 52-68.5t64-16.5q-20-28-20-58 0-32 22-65 37 22 56.5 60.5T812 227q-73 41-147 41zm301 240q-22 0-44-3t-43-9q34-57 75-90.5t73-33.5q15 0 26 7-16-19-16-54 0-31 11.5-65.5T1082 197q39 26 62 79.5t23 111.5q0 16-2 32t-6 31q-94 57-193 57zm762 600q-67 0-139-27t-135-76q97-72 171-72 39 0 57 24l-2-10-1-11q0-38 31-82t77-71q20 30 29.5 70.5t9.5 83.5q0 47-12 91.5t-35 75.5q-21 4-51 4zm-429-369q-66 0-133-25 42-56 88-88t82-32q21 0 36 12-13-19-13-48 0-35 17.5-76.5T1424 409q35 29 53.5 79t18.5 106q0 54-18 102-89 43-179 43z"/></svg>