<svg xmlns="http://www.w3.org/2000/svg" viewBox="-10 0 2610 2048"><path d="M658 1496q-115-67-173-166.5T444 1114l29-197q20-132 107-207.5T842 602t458-32q284 0 459 32t262 107.5T2127 917l29 197q17 114-38 211.5T1952 1491l-43-76q86-52 126-113.5t40-137.5q0-104-63.5-167T1839 901t-248-44-291-11q-151 0-290.5 11T761 901t-172.5 96-63.5 167q0 76 43.5 140T691 1415zm647 482q-292 0-463.5-90T655 1641q-9-100-17-203.5t-13-228-5-285.5l80-45q0 175 4.5 307t12.5 239 18 209q11 118 157.5 191t412.5 73q200 0 344.5-34.5t222-94T1949 1637q0-20-6-39.5t-19-45.5q-19-40-30.5-79.5T1882 1390V882l80 36v472q0 42 10 77t28 71q14 27 21.5 49.5t7.5 49.5q0 102-87.5 178.5T1692 1935t-387 43zm-5-508q-85 0-155-33.5T1020 1336l51-44q47 57 102.5 82.5T1300 1400q72 0 128-25.5t102-82.5l51 44q-55 67-125.5 100.5T1300 1470zm-278-317q-38 0-63-28t-25-68 25-68.5 63-28.5 63.5 28.5 25.5 68.5-25.5 68-63.5 28zm530 0q-38 0-63-28t-25-68 25-68.5 63-28.5 63.5 28.5 25.5 68.5-25.5 68-63.5 28zM554 916q96-81 277-118.5t469-37.5q287 0 468.5 37T2045 915q-15-74-62-124t-134-79.5-222-42.5-327-13-327.5 13T750 711.5 616 791t-62 125zm-37-124q0-254 97-444.5T887.5 51 1300-55q237 0 413 106t273 296.5 97 444.5l-87-12q0-227-86-395t-242.5-261T1300 31t-367.5 93T690 385t-86 395zm740-354q7 0 10-4l33-41 33 41q4 4 9 4 6 0 10-4l15-13q6-4 6-10 0-5-4-9l-42-43 48-59 23 20q5 4 9 1 0 8 4 12l8 7q7 6 19.5-3.5t21-23 3.5-18.5l-11-10q-4-3-9-3h-2.5l-2.5 1q-3-13-13-20l-40-33q-19-15-49-15-10 0-10 7t14 11q11 3 17 13-5 0-8 4l-4 5q-4 4-4 10 0 5 10 15l-51 52-51-52q10-10 10-15 0-6-4-10l-4-5q-3-4-8-4 6-10 17-13 14-4 14-11t-10-7q-30 0-49 15l-40 33q-10 7-13 20-1-1-5-1t-9 3l-11 10q-5 5 3.5 18.5t21 23 19.5 3.5l8-7q4-4 4-12 4 3 9-1l23-20 48 59-42 43q-4 4-4 9 0 6 6 10l15 13q4 4 9 4zm-57 178q-130-24-190-82.5T950 398q0-44 13-72t26-51 13-52q0-24-13.5-51T949 135l97-118 254-38 268 38 83 118q-26 10-39.5 37t-13.5 51q0 29 13 52t26 51 13 72q0 77-59.5 135.5T1400 616zm100-54q11-5 26.5-8t37.5-7q110-18 158-54t48-95q0-36-13-61.5t-26-51.5-13-63q0-53 35-86l-50-63q-36 7-70 7-43 0-75-12t-58-34q-25 22-57.5 34T1167 80q-34 0-70-7l-50 63q35 33 35 86 0 37-13 63t-26 51.5-13 61.5q0 59 48.5 94.5T1236 547q23 4 38 7t26 8zm0-77q-79 0-135-56t-56-135q0-78 56-134t135-56 135 56 56 134q0 79-56 135t-135 56zm0-282q32 0 32-27 0-11-6-15 0 4-5 4-6 0-6-7 0-2 .5-5.5t.5-7.5q0-24-20-24h-2q3 6 3 11 0 10-6.5 15t-6.5 17q-6-5-6-11 0-5 1-7-11 7-11 24 0 33 32 33zM1137-13v-45q0-19 12.5-31.5T1181-102h238q19 0 31.5 12.5T1463-58v45z"/></svg>