<svg xmlns="http://www.w3.org/2000/svg" viewBox="-10 0 2610 2048"><path d="M929 1525q-159 0-278-56t-185-155-66-229q0-114 50.5-203t138-142T786 681q42-36 89.5-57.5T971 593l193-318q135-114 352-114 180 0 295 81h28q109 0 190 21.5t126 60 45 90.5q0 70-61 169.5T1970.5 796 1723 1021.5 1424 1230q-46 142-179.5 218.5T929 1525zm-409 368-66-45 60-87v-259l101-96 55 58-76 72v250zm245 85-69-40 61-107 49-141 213-134q8-19 10-37t2-49h80q0 46-6 75t-23 66l-210 132-42 121zm-182-863q-114-40-58-192 55-151 168-110 111 41 57 192-54 149-167 110zm346 332q112 0 198.5-34t136-97.5T1313 1164q0-77-39-149.5T1168 885t-152-90.5T839 761q-97 0-179 39.5t-131 112-49 172.5q0 110 59 191.5t160.5 126T929 1447zm4-202q-114-39-58-192 54-149 168-110 113 39 57 192-54 149-167 110zm705 693-127-169-23-307q-37-49-82-85.5t-101-61.5l34-73q73 34 129.5 83t97.5 108l23 307 113 150zm227-207-170-86v-349q-46-11-90.5-16t-87.5-5q-72 0-137 13l-15-79q75-14 152-14 61 0 126 9.5t132 29.5v362l126 64zM821 760q-63-158-63-336 0-110 25-220T857-3l72 36q-45 89-68 188t-23 203q0 163 57 306zm-157-17q-60-83-96-198.5T532 294q0-178 61-287t161-109q53 0 110.5 38.5T1021 70q98 94 140.5 150.5T1204 331l-131 110q37-53 44-76.5t7-33.5q0-28-31.5-70T966 128Q874 39 828.5 7.5T754-24q-59 0-100.5 87.5T612 294q0 116 32.5 223.5T747 721zm165-319-55-58q68-65 145.5-122.5T1060 153l37 71q-60 31-132 85T829 424zm1111 590-134-84 27-42 135 85zm-492 109q129-83 250-182t217.5-197.5 153-180T2125 434q0-31-40.5-57t-106-42-139.5-16q-202 0-310.5 94T1420 687q58 113 58 252 0 45-7 91t-23 93zm22-211-69-41q37-62 99-118.5T1625 646q68-55 128-107.5t99.5-109.5 47.5-123l79 10q-10 82-57 150.5T1809 594t-134 114q-63 50-118 100.5T1470 912zm551-34-149-47 15-48 149 47zm-699-664-55-132 47-18 55 134zm397 439-80-4V325l80-4zm-271-465-7-148 50-3 6 148zm151 24-45-18 55-136 46 19z"/></svg>