<svg xmlns="http://www.w3.org/2000/svg" viewBox="-10 0 2610 2048"><path d="M1909 1978q-35 0-61-11.5t-47-11.5-65.5 11-112.5 11q-83 0-161.5-29.5t-153-73-147.5-87-145.5-73T870 1685H658q-188 0-288-82.5T270 1362q0-99 21-169t48.5-135.5 48.5-148T409 703q0-139-2-278t-8-273-19-254h752v482q0 199 21.5 327.5T1218 913q18 32 59.5 73t96 84 111.5 81q22 14 43.5 32.5t73.5 67.5l41 39q38 35 74.5 58t91.5 43l20 7q46 16 90 21.5t119 5.5q33 0 60.5 12t59.5 24 77 12q41 0 68 42.5t27 93.5q0 22-6 45.5t-17 43.5q-6 98-87 142-13 17-35 30t-63 22q-13 8-38 17t-57 13q-32 28-59 42t-59 14zM638 1374q-85-103-85-207 0-106 86-205l60 52q-66 78-66 152 0 76 67 156zm1322 513q0-26-17-45t-47-26q-16-66-128-66v-50q126 0 166 76 76 34 76 111zm115-45q0-53-58-69-27-33-68.5-58.5T1857 1675l14-48q109 32 174 103 37 14 58.5 44t21.5 68zm-183 56q8 0 19.5-6.5t24.5-15.5q17-12 38.5-22t42.5-12q32-4 50.5-17t42.5-13q23 0 49-18t26-34q20 0 31.5-18.5t16.5-44 5-47.5q10-14 10-41 0-17-3-31.5t-8-21.5q-25 0-46.5-5.5T2140 1529q-25-14-47.5-19t-54.5-5q-83 0-133-6.5t-102-24.5l-20-7q-63-22-108-50t-88-69l-39-38q-49-48-69-64.5t-38-28.5q-46-31-104.5-75t-110.5-93-79-94q-52-87-73.5-227T1052 380V-22H475q4 41 6.5 119t4 179 2.5 211.5 1 215.5q0 115-21 204.5T419.5 1072 371 1217t-21 145q0 123 76 183t232 60h212q83 0 160.5 29.5t151.5 73 147 87 146 73 148 29.5q53 0 105-11t71-11q20 0 47 11.5t46 11.5zm275-107q-5-20-19.5-35t-43.5-28q-31-60-128-87l12-48q108 28 152 97 62 35 75 89zm92-99q-13-20-54-20-6 0-12 .5t-13 2.5q-10-23-27.5-37.5T2105 1613l16-48q57 20 86 58 63 0 92 39z"/></svg>