<svg xmlns="http://www.w3.org/2000/svg" viewBox="-10 0 2610 2048"><path d="M1299 1978q214 0 402.5-81.5t332-225 225-332T2340 938t-81.5-401.5-225-332-332-225T1299-102q-213 0-401 81.5t-331.5 225-225 332T260 938t81.5 401.5 225 332 331.5 225 401 81.5zm-47-7 54-58-974-908-54 58zm298-50 54-58L358 702l-54 58zm234-109 54-58L448 457l-54 58zm-485 86q-196 0-370-75.5t-306-208-207.5-306T340 938t75.5-370.5 207.5-306 306-208T1299-22q197 0 371 75.5t306.5 208 208 306T2260 938t-75.5 370.5-208 306-306.5 208-371 75.5zm701-258 54-58L607 234l-54 58zm152-221 54-58L816 64l-54 58zm90-245 54-58L1042-53 988 5zm51-281 17-92-964-898-54 58z"/></svg>