<svg xmlns="http://www.w3.org/2000/svg" viewBox="-10 0 2610 2048"><path d="M1047 1947q-170-42-313.5-136t-250-228-165-298T260 938q0-216 80.5-404.5T564 202 895.5-21.5 1300-102q215 0 403.5 80.5T2035 202t224 331.5 81 404.5q0 183-58.5 347t-165 298-250 228-313.5 136l38-94q146-46 268-134t212-208.5 139.5-266T2260 938q0-199-74.5-373T1979 259 1673 52.5 1300-22 927 52.5 621 259 414.5 565 340 938q0 161 49.5 306.5t139.5 266T741.5 1719t267.5 134zm250 81q-179 0-278.5-91.5T919 1680v-301l80-20v321q0 130 76.5 199t221.5 69h17q146 0 221.5-68.5T1611 1680v-525l80-41v566q0 165-99 256.5t-278 91.5zm-17-320v-400l60-19v419zm-486-638q-67 0-122.5-33T583 948.5 550 826q0-68 33-123.5t88.5-88T794 582q68 0 123.5 32.5t88 88T1038 826q0 67-32.5 122.5t-88 88.5-123.5 33zm0-60q77 0 130.5-54T978 826q0-77-53.5-130.5T794 642q-76 0-130 53.5T610 826q0 76 54 130t130 54zm0-108q-31 0-53.5-22.5T718 826q0-32 22.5-54.5T794 749q32 0 54.5 22.5T871 826q0 31-22.5 53.5T794 902zm159 760q-109-48-171.5-113.5T719 1427q0-24 14.5-40t39.5-25q37-14 128-28t214-39.5 256-72.5q129-46 223-95.5t161.5-92.5 115.5-69.5 84-26.5q39 0 59 40.5t20 100.5q0 90-47.5 191.5t-134 195.5-202.5 161v-443q-101 52-219 95.5t-240 74.5-238 47zm653-791q-89 0-164.5-45.5t-121-121T1275 540q0-90 45.5-165t121-120.5T1606 209q90 0 165 45.5T1891.5 375t45.5 165q0 89-45.5 164.5t-120.5 121-165 45.5zm0-60q73 0 134.5-37.5t99-99.5 37.5-134q0-73-37.5-134.5t-99-99T1606 269q-72 0-134 37.5t-99.5 99T1335 540q0 72 37.5 134t99.5 99.5 134 37.5zm0-170q-41 0-71-30t-30-71q0-42 30-71.5t71-29.5q42 0 71.5 29.5T1707 540q0 41-29.5 71t-71.5 30z"/></svg>