<svg xmlns="http://www.w3.org/2000/svg" viewBox="-10 0 2610 2048"><path d="M1300 1452q-282-225-468.5-416t-279-360.5T460 348q0-131 55.5-232.5T670-44t229-58q127 0 230.5 61T1300 127q67-107 170.5-168t230.5-61q130 0 229 58t154.5 159.5T2140 348q0 158-92.5 327.5T1769 1036t-469 416zm0 526q-60 0-110-30t-80-80-30-111q0-60 30-109.5t80-79.5 110-30q61 0 110.5 30t79.5 79.5 30 109.5q0 61-30 111t-79.5 80-110.5 30zm0-80q58 0 99-41.5t41-99.5q0-57-41-98t-99-41-99 41-41 98q0 58 41 99.5t99 41.5zm0-548q385-313 572.5-553.5T2060 348q0-109-45-192.5T1889.5 25 1701-22q-88 0-170.5 42T1387 135.5 1300 305q-25-96-86.5-169.5T1070 20 899-22q-107 0-188 47T585 155.5 540 348q0 208 187.5 448.5T1300 1350z"/></svg>