<svg xmlns="http://www.w3.org/2000/svg" viewBox="-10 0 2610 2048"><path d="M806 1761V850q0-116 58-222t165-188v-39h-12q-16 0-26.5-12.5T980 358t10.5-30.5T1017 315h14q21-75 93-116.5t176-41.5 176 41.5 93 116.5h14q16 0 26.5 12.5T1620 358t-10.5 30.5T1583 401h-12v39q107 82 165 188t58 222v911h-78V850q0-107-57-204t-164-170h-390q-107 73-164 170t-57 204v911zm-243 139h419v-84H563zm19-415q-13 0-23-10t-10-23q0-35 33-35h239v68zm-3 266v-332h30v-171h30v-161h30V937h30V810h60v187h-30v150h-30v161h-30v171h-30v272zm471 182h500v-50h-500zm-424-623q-15 0-25-10t-10-25q0-33 35-33h195v68zm-143 668v-240h1634v240zm504-224v-419h80v419zm78 79h470v-50h-470zm-405-682q-15 0-25-10t-10-25q0-35 35-35h161v70zm496 603v-325h288v325zm-476-753q-15 0-25-10t-10-25q0-35 35-35h151v70zm938 899h419v-84h-419zM711 856q-27-13-27-47 0-38 32.5-66.5T777 714t61 28.5 33 66.5q0 33-27 47zm238 487 82-138h538l82 138zm584 411v-419h80v419zM777 720q-15 0-26-11.5T740 681t11-27 26-11 26 11 11 27-11 27.5-26 11.5zm347 514-53-29 233-431 50 34zm-55-91 76-127h310l76 127zm106-179 55-93h140l55 93zm301 270-230-426 50-34 233 431zm303 251v-68h239q33 0 33 35 0 13-9.5 23t-23.5 10zm-551-644q-20 0-20-11 0-19 30-30l-8 12q0-23 20.5-38.5T1300 758t49.5 15.5T1370 812l-8-12q30 11 30 30 0 11-20 11zm71-81q-31 0-31-34 0-13 9-22.5t22-9.5q14 0 23.5 9.5t9.5 22.5q0 34-33 34zm480 550v-68h195q35 0 35 33 0 15-10 25t-25 10zm182 441v-272h-30v-171h-30v-161h-30V997h-30V810h60v127h30v150h30v161h30v171h30v332zm-182-600v-70h161q35 0 35 35 0 15-10 25t-25 10zm-10-150v-70h151q35 0 35 35 0 15-10 25t-25 10zm-660-682h382q-14-44-63.5-69T1300 225t-127.5 25-63.5 69zm647 537q-27-14-27-47 0-38 33-66.5t61-28.5 60.5 28.5T1916 809q0 34-27 47zm67-136q-15 0-26-11.5t-11-27.5 11-27 26-11 26 11 11 27-11 27.5-26 11.5zm-607-505q-11-22-11-44 0-42 32-69-22-12-22-33 0-14 10.5-24.5T1252 33q-9-11-14.5-22.5T1232-14q0-27 20-51t48-37q29 13 48.5 37t19.5 51q0 13-5.5 24.5T1348 33q16 1 26.5 11.5T1385 69q0 21-22 33 32 27 32 69 0 22-11 44z"/></svg>