<svg xmlns="http://www.w3.org/2000/svg" viewBox="-10 0 2610 2048"><path d="M1263 1978q-220 0-408-45.5T526.5 1805 308 1613t-78-238q0-116 62-225t169-179h85q-31 65-40.5 101.5T496 1151q0 155 97 267t277.5 172.5T1300 1651q250 0 430-60.5t277-172.5 97-267q0-42-9-78.5T2054 971h85q107 70 169 179t62 225q0 128-78 238t-218.5 192-328.5 127.5-408 45.5zm-632-703q18-77 27-145.5t9-128.5q0-89-25.5-177T590 645t-26-186q0-222 266-409h97q-18 76-27 145t-9 129q0 88 26 176.5t51.5 179T994 866q0 222-266 409zm472-6q16-77 24.5-164t8.5-141q0-113-29.5-215T1048 549.5 1019 355q0-128 69.5-237.5T1311-102h102q-16 76-24.5 163.5T1380 203q0 113 29 215.5t58.5 199.5 29.5 194q0 129-69.5 238T1205 1269zm528 6q18-77 27-145.5t9-128.5q0-89-25.5-177T1590 645t-26-186q0-222 266-409h97q-18 76-27 145t-9 129q0 88 25.5 176.5t51.5 179 26 186.5q0 222-266 409z"/></svg>