<svg xmlns="http://www.w3.org/2000/svg" viewBox="-10 0 2610 2048"><path d="M1206 1609q180-80 277-184.5t134-251.5 37-355v-57h172q52 0 91.5 1.5t52.5 3.5V634q-16 2-54 5t-90 3h-172V446q0-46 3.5-81.5t4.5-46.5h-141q2 11 4.5 46.5t2.5 81.5v196h-446V442q0-41 3.5-72t4.5-43H950q4 27 5.5 58.5T957 442v200H787q-49 0-97-4.5t-59-6.5v137q14-2 60-4.5t96-2.5h170v254q0 45-2 84t-5 59h138q-2-20-4-60t-2-83V761h446v66q0 165-26.5 277.5t-80 187.5-133.5 126-187 92zm-780 369q-68 0-117-48.5T260 1814V63q0-68 49-116.5T425-102h1750q68 0 116.5 48.5T2340 63v1750q0 67-48.5 116t-116.5 49z"/></svg>