<svg xmlns="http://www.w3.org/2000/svg" viewBox="-10 0 2610 2048"><path d="M1041 1159V994h654v165zm-114 409h114v-309h654v163q0 34-36 34-22 0-85.5-.5T1433 1452q12 25 23 56.5t15 57.5q100 0 167-3t105-17 52-42.5 14-81.5V631h-755q26-44 49.5-90t45.5-92h843V339h-797q17-42 32-86t29-87l-116-29q-14 51-31.5 101.5T1071 339H629v110h393q-75 155-182 291T592 971q17 16 40 43t35 46q74-52 139-114t121-132zm114-674V736h654v158zM426 1978q-68 0-117-48.5T260 1814V63q0-68 49-116.5T425-102h1750q68 0 116.5 48.5T2340 63v1750q0 67-48.5 116t-116.5 49z"/></svg>