<svg xmlns="http://www.w3.org/2000/svg" viewBox="-10 0 2610 2048"><path d="M681 1615q83-52 170.5-129.5T999 1324l-110-35q-52 73-133 139.5T589 1541q20 14 48.5 36.5T681 1615zm346 22q92 0 153.5-2t99.5-15 51.5-36.5 13.5-71.5v-282h616v-101H606v101h623v279q0 15-6 20.5t-26 7.5q-19 1-77.5.5T987 1534q11 23 23.5 51.5t16.5 51.5zm823-25 94-61q-35-38-90-85t-116-94.5-117-85.5l-91 56q58 39 119 88t114.5 97 86.5 85zM783 1004h1018v-97H783zm97-152h108V571q32 26 67 54.5t65 54 48 42.5l63-77q-15-12-46-34.5t-68.5-49.5-72-51-56.5-37v-14h218v-98H988V203H880v158H618v98h226q-53 90-129 172T562 759q17 14 37.5 37.5T634 839q65-44 129-116t117-153zm675 0h110V562q56 79 124 151t131 117q11-19 34-42.5t40-37.5q-77-44-158.5-125T1698 459h241v-98h-274V203h-110v158h-277v98h237q-57 87-140 167.5T1211 752q17 13 37 36t33 42q72-45 144.5-119T1555 554zM426 1978q-68 0-117-48.5T260 1814V63q0-68 49-116.5T425-102h1750q68 0 116.5 48.5T2340 63v1750q0 67-48.5 116t-116.5 49z"/></svg>