<svg xmlns="http://www.w3.org/2000/svg" viewBox="-10 0 2610 2048"><path d="M674 1658q79 1 128-3t79-17q30-14 43-40.5t13-75.5v-452l207-64-14-108-193 56V652h183V544H937V229H823v315H605v108h218v337l-237 64 33 113 204-61v417q0 17-6.5 22t-23.5 7q-14 1-58 1t-97-1q11 22 21.5 53t14.5 54zm659-168v-164h508v164zm-111 168h111v-72h508v66h115V975h-734zm111-428v-155h508v155zm116-385h366q78 0 119.5-22t61-78 27.5-157q-23-6-55-18t-52-28q-4 84-13 126t-31 56-65 14h-351q-76 0-97.5-11.5T1337 675V563q102-20 208-44t204.5-52.5T1927 407l-89-86q-58 26-140 52t-175 50-186 44V233h-115v442q0 67 19.5 104t69 51.5T1449 845zM426 1978q-68 0-117-48.5T260 1814V63q0-68 49-116.5T425-102h1750q68 0 116.5 48.5T2340 63v1750q0 67-48.5 116t-116.5 49z"/></svg>