<svg xmlns="http://www.w3.org/2000/svg" viewBox="-10 0 2610 2048"><path d="M1300 1978q-222 0-388.5-34t-259-94.5T560 1708V680q0-112 46.5-213.5T740 290l67 42q-83 71-125 159t-42 189v1028q0 51 88.5 95t238.5 70.5 333 26.5q184 0 333.5-26.5t238-70.5 88.5-95V680q0-101-42-189t-125-159l67-42q87 75 133.5 176.5T2040 680v1028q0 81-92.5 141.5t-259 94.5-388.5 34zm0-208q-128 0-238-16t-177-42-67-57 67-57 177-42 238-16q129 0 239 16t177 42 67 57-67 57-177 42-239 16zm-432-517q-16 0-27-10.5t-11-26.5V805q0-65 13.5-121.5T883 580q13-23 35-23 16 0 27 10.5t11 25.5q0 11-6 23-22 40-33.5 86.5T905 805v411q0 16-10.5 26.5T868 1253zm432-902q109 0 210-9.5t180.5-24.5 126-34.5T1863 244V85q-67 22-156.5 39t-193 26-213.5 9-213.5-9T894 124 738 85v159q0 19 46 38.5T909.5 317t180.5 24.5 210 9.5zm0 80q-196 0-340-22.5T737 346t-79-94V75q0-55 79-94.5t223.5-61T1300-102q196 0 340.5 21.5t223.5 61 79 94.5v177q0 54-79 94t-223.5 62.5T1300 431zm0-352q93 0 181-6t164.5-17.5T1781 28q-70-20-198.5-35T1300-22 1017.5-7 819 28q59 16 135.5 27.5T1119 73t181 6z"/></svg>