<svg xmlns="http://www.w3.org/2000/svg" viewBox="-10 0 2610 2048"><path d="M426 1978q-68 0-117-48.5T260 1814V63q0-68 49-116.5T425-102h1750q68 0 116.5 48.5T2340 63v1750q0 67-48.5 116t-116.5 49zm0-80h1749q35 0 60-25.5t25-59.5V63q0-35-25-60t-60-25H425q-34 0-59.5 25T340 63v1751q0 34 25.5 59t60.5 25zm-44 26 268-269h1271q41 0 69.5-29t28.5-71V287l268-268q16 20 18.5 43t2.5 69v1682q0 46-32.5 78.5T2198 1924zm884-463q205 0 293-156t88-433q0-186-42-317t-126.5-200.5T1266 285q-137 0-220 70T925.5 556 888 872q0 277 92.5 433t285.5 156zm-2-120q-130 0-183.5-117T1027 872q0-156 23-260t75.5-155.5T1264 405t138 51.5 76 155.5 24 260q0 236-55 352.5T1264 1341z"/></svg>