<svg xmlns="http://www.w3.org/2000/svg" viewBox="-10 0 2610 2048"><path d="M426 1978q-68 0-117-48.5T260 1814V63q0-68 49-116.5T425-102h1750q68 0 116.5 48.5T2340 63v1750q0 67-48.5 116t-116.5 49zm0-80h1749q35 0 60-25.5t25-59.5V63q0-35-25-60t-60-25H425q-34 0-59.5 25T340 63v1751q0 34 25.5 59t60.5 25zm-44 26 268-269h1271q41 0 69.5-29t28.5-71V287l268-268q16 20 18.5 43t2.5 69v1682q0 46-32.5 78.5T2198 1924zm819-464q227 0 332.5-95.5T1639 1119q0-113-67.5-183.5T1367 849v-7q108-21 172.5-89.5T1604 569q0-122-87.5-202.5T1250 286q-115 0-205 35t-152 83l71 96q64-42 130-69t158-27q96 0 152 45.5t56 128.5q0 65-32.5 113.5T1331 767t-158 27h-112v120h111q151 0 235.5 47.5T1492 1116q0 106-68 166t-222 60q-76 0-159.5-20T887 1266v132q71 34 147.5 48t166.5 14z"/></svg>