<svg xmlns="http://www.w3.org/2000/svg" viewBox="-10 0 2610 2048"><path d="M426 1978q-68 0-117-48.5T260 1814V63q0-68 49-116.5T425-102h1750q68 0 116.5 48.5T2340 63v1750q0 67-48.5 116t-116.5 49zm817-638q-60 0-106-26t-77-68.5-46.5-94.5-15.5-104q0-51 31.5-99t87.5-79.5 131-31.5q110 0 165.5 63.5T1469 1074q0 136-62.5 201t-163.5 65zm2 118q167 0 265-103t98-281q0-166-91-256.5T1277 727q-103 0-169 39t-102 95h-9q6-125 40-230t115.5-168.5T1382 399q36 0 73 4.5t65 14.5V298q-26-8-66.5-11t-74.5-3q-161 0-263.5 57.5T956.5 496 878 712t-22 242q0 128 30 223t83 157.5 123.5 93T1245 1458zm-819 440h1749q35 0 60-25.5t25-59.5V63q0-35-25-60t-60-25H425q-34 0-59.5 25T340 63v1751q0 34 25.5 59t60.5 25zm-44 26 268-269h1271q41 0 69.5-29t28.5-71V287l268-268q16 20 18.5 43t2.5 69v1682q0 46-32.5 78.5T2198 1924z"/></svg>