<svg xmlns="http://www.w3.org/2000/svg" viewBox="-10 0 2610 2048"><path d="m1090 612 55-59q168 155 341.5 327t338 352.5 309 361T2388 1945q-28 19-66.5 26t-87.5 7q-103 0-243.5-43.5t-294-118-298.5-167-258-190.5q-54-47-112.5-103T920 1247t-77-90l140-178q33-42 33-80 0-37-29-63l-62-58 55-58 61 57q56 52 56 120 0 34-11.5 64t-40.5 68l-101 128q27 30 68.5 72.5t89 87.5 89.5 83q110 97 250.5 186.5T1729 1746t279.5 110.5T2235 1897q13 0 26-.5t23-1.5l-13 23q-140-216-330-437.5t-408-441T1090 612zM791 783 245 259q-18-18-25.5-29.5T212 202q0-22 25-59t64.5-79 83-80T467-78t61-24q20 0 34 9t34 30l585 592-257 276q-22 24-48 24-38 0-85-46zM495 195q21 0 36-15t15-37-15-37-36-15q-22 0-37 15t-15 37 15 37 37 15zm442 419q21 0 36-15t15-37-15-37-36-15q-22 0-37 15t-15 37 15 37 37 15z"/></svg>