<svg xmlns="http://www.w3.org/2000/svg" viewBox="-10 0 2610 2048"><path d="m1324 1845-751-461q-55-34-70.5-98t18.5-119l559-908q35-56 98.5-71t118.5 19l751 461q56 34 71.5 98.5T2100 887l-558 906q-34 55-98 70.5t-120-18.5zm-808-318-18-11q-16-11-20.5-30t5.5-35l39-65q10-17 29.5-21t35.5 6l19 11q17 10 21.5 29t-6.5 36l-40 65q-10 16-29 20.5t-36-5.5zm496 304-19-11q-16-10-20.5-29.5t5.5-35.5l40-65q11-17 30-21t35 6l18 11q17 10 21 29t-6 36l-39 65q-10 16-29 20.5t-36-5.5zm45-862q-37 0-67.5-46T959 822q0-40 17-65.5t43-25.5q37 0 67.5 46t30.5 102q0 39-17 64.5t-43 25.5zm70 661q28 17 59 9t47-34l560-908q17-27 9.5-58.5T1766 589l-511-314q-27-17-58.5-9.5T1148 301l-559 908q-17 28-9.5 59t35.5 48zm239 147q28 17 59.5 9.5t48.5-35.5l558-906q17-29 10-60t-36-49l-122-75q-2 44-23 78l-560 908q-21 34-58 55zM1240 714q-16 0-30.5-10.5T1195 677q0-12 8.5-30t8.5-30q0-15-12-15t-24.5 24-38.5 24q-19 0-33-13t-14-35q0-45 47-45 5 0 11.5 1t12.5 1q16 0 16-10 0-14-17-17t-34-9.5-17-28.5q0-23 18.5-40.5T1168 436q18 0 27.5 14t9.5 36q0 31 15 31 14 0 14-17 0-5-1.5-11t-1.5-16q0-42 38-42 27 0 48.5 18t21.5 37q0 16-16.5 24t-33 14-16.5 19q0 15 21 15 9 0 17.5-3t14.5-3q25 0 37.5 12t12.5 29q0 16-11.5 32t-28.5 16q-20 0-35-18.5t-31-18.5q-12 0-12 10t15.5 23 15.5 33q0 19-14.5 31.5T1240 714zm188 119-30-136 239-56-44 77 61 57zm90-443-59-37 177-283 57 40zm283 171-59-37 177-283 57 40zm198-247q-13 0-22.5-4.5T1958 299l-63-44q-16-11-16.5-21.5t6.5-23.5l15-26q7-13-4-20l-112-70q-13-8-22 3l-25 34q-10 15-27 18t-42-13l-45-28q-19-12-28-29t7-42l50-77q40-62 108-62 43 0 85 25l171 102q50 30 65.5 60.5T2097 149q0 31-22 69l-44 77q-7 11-13 15t-19 4zm-7-51 37-65q25-43 15.5-73.5T1989 67l-165-98q-35-21-67-21-21 0-36 11.5T1692-9l-44 66q14 6 32 18.5t22 18.5l23-32q22-31 40-31 10 0 24 8l151 93q22 13 23.5 26.5T1951 195l-18 32q17 7 28.5 13.5T1992 263zm-743 1715q-39 0-66-27.5t-27-64.5q0-39 27-66t66-27q38 0 65 27t27 66q0 37-27 64.5t-65 27.5zm-1-47q18 0 31.5-13.5t13.5-31.5q0-19-13.5-32.5T1248 1840q-19 0-32.5 13.5T1202 1886q0 18 13.5 31.5t32.5 13.5zm-496-258q-39 0-66-27.5t-27-64.5q0-39 27-66t66-27q38 0 65 27t27 66q0 37-27 64.5t-65 27.5zm-1-47q18 0 31.5-13.5T796 1581q0-19-13.5-32.5T751 1535q-19 0-32.5 13.5T705 1581q0 18 13.5 31.5T751 1626z"/></svg>