<svg xmlns="http://www.w3.org/2000/svg" viewBox="-10 0 2610 2048"><path d="M870 1668q-53 0-74-49-19 19-41 29t-45 10q-36 0-60.5-23t-31.5-61l-36 27q-31 24-56.5 34t-47.5 10q-39 0-62.5-24t-23.5-61q0-32 23-66t87-95l41-39q-48-9-72.5-33t-24.5-60q0-42 35.5-69.5T590 1157q-25-13-35-30.5t-12-45.5v-9.5l1-8.5q-73-4-107-28t-34-68 40.5-72T563 855q-32-14-50-35.5T495 766t20-53 48-33q-47-30-47-84 0-38 29-64.5t70-26.5q10 0 20.5 2t24.5 6q15-50 41.5-79t66.5-29q38 0 63 27t25 70q0 25-4 57.5t-8 54.5l120 192q12-2 25-10.5t27-24.5l160-175V-66q34-19 64-27.5t60-8.5 60 8.5 64 27.5v662l160 175q14 16 27 24.5t25 10.5l120-192q-4-22-8-54.5t-4-57.5q0-43 25-70t63-27q40 0 66.5 29t41.5 79q14-4 24.5-6t20.5-2q41 0 70 26.5t29 64.5q0 54-47 84 29 12 48.5 33t19.5 53-18 53.5-50 35.5q80 12 120 40t40 72-33.5 68-107.5 28q1 4 1 8.5v9.5q-1 28-11.5 45.5T2010 1157q74 13 109 40.5t35 69.5q0 36-24.5 60t-72.5 33l41 39q65 61 87.5 95t22.5 66q0 37-23.5 61t-62.5 24q-22 0-47-10t-57-34l-36-27q-7 38-31.5 61t-60.5 23q-23 0-44.5-10t-41.5-29q-21 49-74 49-50 0-74-47t-24-154q0-50 .5-83.5t3.5-84.5l-142-201-194-175-194 175-142 201q3 51 3.5 84.5t.5 83.5q0 107-24 154t-74 47zm-230 310q-262 0-406-159T90 1371q0-177 42-351t116-328.5T418.5 418 624 231t221-68q74 0 128 42.5t95 133.5 74 237q5 19 10 42t9 48l-70 65q-7-39-13.5-74t-13.5-63q-30-128-61-205t-69-111.5-89-34.5q-97 0-193.5 64t-183 176-154 256.5-106 306.5-38.5 325q0 257 120.5 392T640 1898q183 0 294.5-54.5t161.5-175 50-319.5q0-75-4.5-158t-12.5-166l75-57q10 96 16 194.5t6 186.5q0 220-60.5 359t-190 204.5T640 1978zm70-841 60-17 61-68-27-2zm160 471q20 0 29-30.5t9-110.5q0-45-3-92t-3-61q0-15 3.5-27.5t7.5-19.5l148-209 239-216 239 216 148 209q5 7 8 19.5t3 27.5q0 14-3 61t-3 92q0 80 9 110.5t29 30.5 32.5-34 17.5-88q41 66 64.5 89t45.5 23q14 0 23-9t9-25q0-13-8-29l-73-140 212 157q43 33 69 33t26-25q0-16-22-44t-70-74l-148-141h118q68 0 68-34 0-29-74-43l-71-13q-59-11-91-18t-47.5-14.5-25.5-18.5l-145-161 192-11 84 92q27 28 54 28 29 0 29-29 0-14-9-27l-8-12q-5-8-12.5-19.5t-7.5-16.5q0-8 8-8 11 0 34 3.5t43 3.5q46 0 68-9t22-27q0-19-34.5-33.5T2009 912l-45-5q-69-8-105-12.5t-49.5-9.5-13.5-11q0-8 7.5-23t22.5-40q11 1 24 1.5t26 .5q79 0 124-15t45-32-23.5-28-64.5-11q-69 0-69-18 0-9 10.5-17t36.5-22l63-35q26-15 26-39 0-16-16-25.5t-34-4.5l-75 19-15-51q-8-28-21-48.5t-31-20.5q-13 0-20.5 10t-7.5 27q0 19 3.5 47.5t7.5 54.5q2 13-1.5 24.5T1805 649l-124 198q-13 21-42 21-22 0-48.5-15t-51.5-42l-175-192V-18q-10-5-28.5-9.5T1300-32q-16 0-35 4.5t-29 9.5v637l-175 192q-25 27-51 42t-49 15q-29 0-42-21L795 649q-5-9-8.5-20.5T785 604q5-26 8-54.5t3-47.5q0-17-7.5-27T768 465q-18 0-31 20.5T716 534l-15 51-75-19q-18-5-34 4.5T576 596q0 24 26 39l63 35q26 14 36.5 22t10.5 17q0 18-69 18-41 0-64.5 11T555 766t45 32 124 15q14 0 26.5-.5T774 811q15 25 22.5 40t7.5 23q0 6-13 11t-49.5 9.5T636 907l-45 5q-58 7-93 21.5T463 967q0 18 22 27t68 9q20 0 43.5-3.5T630 996q8 0 8 8 0 5-7.5 16.5T618 1040l-8 12q-9 13-9 27 0 29 29 29 27 0 54-28l84-92 192 11-145 161q-10 11-25.5 18.5t-47 14.5-91.5 18l-71 13q-74 14-74 43 0 34 68 34h118l-148 141q-48 46-70 74t-22 44q0 25 26 25t69-33l212-157-73 140q-8 16-8 29 0 16 9 25t23 9q22 0 45.5-23t64.5-89q5 54 17.5 88t32.5 34zm1020-471-94-87-27 2 61 68zm-702-665q-13 0-22-8.5t-9-21.5 9-21.5 22-8.5h224q13 0 22 8.5t9 21.5-9 21.5-22 8.5zm774 1506q-144 0-234.5-18.5t-136.5-61-57-113.5l-31-201q-10-70-43-122.5t-84-80.5q0-112 5-214.5t15-198.5l75 57q-7 83-11 164t-4 149q50 40 82.5 100.5T1582 1572l31 201q7 45 41.5 72.5t108.5 40 199 12.5q228 0 348-135t120-392q0-162-38.5-324t-106-306.5-154-256.5-183-176.5T1755 243q-50 0-88.5 34.5T1597 389t-61 205q-7 28-13.5 63t-13.5 74l-70-65q5-25 10-48t9-42q34-146 74.5-237t94.5-133.5 128-42.5q112 0 221 68t205.5 187.5 170.5 274 116 328.5 42 350q0 290-142.5 448.5T1962 1978zM1188 352q-13 0-22-8.5t-9-21.5 9-21.5 22-8.5h224q13 0 22 8.5t9 21.5-9 21.5-22 8.5zm0-120q-13 0-22-8.5t-9-21.5 9-21.5 22-8.5h224q13 0 22 8.5t9 21.5-9 21.5-22 8.5zm0-120q-13 0-22-8.5t-9-21.5 9-21.5 22-8.5h224q13 0 22 8.5t9 21.5-9 21.5-22 8.5z"/></svg>