<svg xmlns="http://www.w3.org/2000/svg" viewBox="-10 0 2610 2048"><path d="M1650 1309q-146 0-274-55t-225-152-152-225-55-274 55-274 152-225 225-151.5 274-54.5 273.5 55T2148 105t152 224.5 55 273.5q0 147-54.5 275T2149 1103t-225 151.5-274 54.5zm404-450q-10 17-29 17-14 0-25.5-8.5T1988 844q0-13 8-26 28-44 44.5-99.5T2057 603q0-90-39.5-168T1915 294q-15-15-15-31 0-14 10.5-25t23.5-11q14 0 24 10 76 76 123 168.5t47 197.5q0 68-20 132.5T2054 859zm-404 370q130 0 243-48.5t199-134.5 134.5-199.5T2275 603q0-129-48.5-242.5T2092 161 1892.5 26.5 1650-22q-130 0-243.5 48.5T1207 161t-134.5 199.5T1024 603q0 130 48.5 243.5T1207 1046t199.5 134.5T1650 1229zm-577 39-120-122 154-150 120 123zm-621 710q-50 0-98-30.5t-78.5-78.5-30.5-98q0-70 55-125l487-487q55-55 124-55 51 0 98.5 30t78 77 30.5 98q0 71-55 126l-485 486q-57 57-126 57zm0-80q37 0 70-33l483-486q33-35 33-70 0-28-20-57t-49-48.5-58-19.5q-38 0-68 31l-485 487q-33 33-33 69 0 28 20 57.5t49.5 49.5 57.5 20zM1811 205q-13 0-26-7-8-5-18-10t-20-9q-27-12-27-34 0-17 10.5-26t25.5-9q10 0 19 4 14 6 25.5 11.5T1824 139q20 12 20 32 0 13-9 23.5t-24 10.5z"/></svg>