<svg xmlns="http://www.w3.org/2000/svg" viewBox="-10 0 2610 2048"><path d="M1240 1978q-238 0-399.5-85T597 1663t-82-325q0-143 31.5-251.5t79.5-186T722 775l57 57q-89 88-136.5 218.5T595 1338q0 172 77.5 298T895 1830t345 68q201 0 345.5-68t222-194 77.5-298q0-157-47.5-287.5T1701 832l57-57q49 48 96.5 125.5t79 186T1965 1338q0 180-82 325t-243 230-400 85zm-327-314q-156-95-156-302 0-69 8-124.5t28-122.5l67 21q-18 62-25.5 112t-7.5 114q0 166 121 243zm327-621q-157 0-278.5-42.5T771 882.5 702 708t69-174 190.5-116.5T1240 376q158 0 279 41.5T1709 534t69 174-69 174.5-190 118-279 42.5zm0-78q136 0 239-33.5t161-91.5 58-132-57.5-131-160.5-90-240-33q-136 0-239.5 33t-161 90T782 708t58 132 161 91.5 239 33.5zm0-129q-139 0-225.5-39.5T928 696q0-62 87.5-102t224.5-40 224.5 40 87.5 102q0 61-86.5 100.5T1240 836zm263-98-88-43 171-319q7-13 15-25t17-22l396-431 71 67-395 431q-11 12-18 25zm286-441-83-77q-15-16-1-30l21-22q14-15 29 0l83 77q16 15 1 30l-20 22q-6 6-14.5 6t-15.5-6z"/></svg>