<svg xmlns="http://www.w3.org/2000/svg" viewBox="-10 0 2610 2048"><path d="M1108 1560q-28 0-55-10.5t-44-33.5l-325-441q-50-69-80.5-124T560 849t-13-92q0-83 39-152t105-111l482-307q30-78 100.5-142.5t163.5-103T1626-97q117 0 214 57t155 152.5 58 212.5q0 116-57 211.5T1843.5 689 1632 748l-582 198q72 37 105.5 84t44.5 97l66 290q9 38-13.5 71t-62.5 52.5-82 19.5zm-262 418q-65 0-110.5-24t-45.5-59q0-23 25-33.5t88-12.5q117-5 192.5-42t125.5-118l10 145 157 37 70-92-7-133q8-3 15.5-4.5t14.5-1.5q30 0 47 31.5t17 87.5q0 110-21.5 164.5T1358 1978q-41 0-69.5-6.5t-56.5-13-70-6.5q-35 0-61 4t-55.5 9-76 9-123.5 4zm395-86q-64 0-109.5-45.5T1086 1737q0-65 45.5-110t109.5-45q65 0 110 45t45 110q0 64-45 109.5t-110 45.5zm0-50q44 0 74.5-31t30.5-74q0-44-30.5-74.5T1241 1632q-43 0-74 30.5t-31 74.5q0 43 31 74t74 31zm0-54q-21 0-36-14.5t-15-35.5 15-35.5 36-14.5q20 0 35 14.5t15 35.5-15 35.5-35 14.5zm-131-295q32 0 62.5-18t25.5-42l-66-290q-11-48-53-78t-94.5-44.5T889 1006q-28 0-50.5 1.5T796 1011l269 465q6 10 18.5 13.5t26.5 3.5zm68 143L898 945l73 22 264 649zM894 832q-37 0-62.5-25.5T806 744t25.5-62.5T894 656t62.5 25.5T982 744t-25.5 62.5T894 832zm2 84q12 0 26-1.5t24-5.5l551-187q-56-28-97.5-87.5T1323 472q-30-89-49-133t-36-58.5-41-14.5q-8 0-19.5 3.5T1158 278L881 448q13 1 26 4.5t27 10.5l68-41q15-9 30.5-6.5T1055 431q17 29-17 49l-157 94q-87 52-118.5 89T731 750q0 71 47 118.5T896 916zm724-238q99 0 181.5-47t132-127.5T1983 325t-48.5-177.5-129.5-127T1626-27q-80 0-158.5 31.5t-139 84.5-86.5 116q43 15 74.5 63t67.5 152q34 98 67 154.5t73.5 80T1620 678zm66-168q-79 0-134.5-55.5T1496 320t55.5-134.5T1686 130t134 55.5 55 134.5-55 134.5-134 55.5z"/></svg>