<svg xmlns="http://www.w3.org/2000/svg" viewBox="-10 0 2610 2048"><path d="M971 1978v-101q0-38-6.5-67t-25-59.5-55-72T788 1574l-41-43q-85-89-125-167t-40-165q0-116 54-177.5T804 952V755q0-91 61-153.5t148-62.5q41 0 83 16V88q0-85 51.5-137.5T1280-102q82 0 133 53t51 137v473q41-30 94-30 89 0 142.5 52.5T1754 749q12-2 24-3.5t23-1.5q61 0 110 29.5t78 81 29 116.5v131q0 99-11 177.5t-36 149.5-66 148l-34 64q-32 60-48.5 96t-22 60.5-5.5 49.5v131zm80-80h664v-51q0-36 7.5-67t26.5-72.5 53-106.5l36-68q37-71 59-133.5t31.5-133 9.5-164.5V971q0-65-39-106t-98-41q-17 0-27.5 1.5T1755 829v257h-75V775q0-96-31.5-130t-90.5-34q-45 0-69.5 24t-24.5 74v302h-80V88q0-51-28-80.5T1280-22t-76 29-28 81v923h-80V644q-38-25-83-25-54 0-91.5 39T884 755v425h-80v-148q-77 7-109.5 45.5T662 1199q0 72 35 135.5T810 1481l37 39q65 68 105 117t61.5 85.5 29.5 66.5 8 61z"/></svg>