<svg xmlns="http://www.w3.org/2000/svg" viewBox="-10 0 2610 2048"><path d="M357 1699q-79 0-126-30t-47-90q0-32 14-51.5t31-34.5q20-17 36.5-40.5T282 1381q0-20-8.5-50.5T251 1260q-34-102-52.5-197.5T180 860q0-206 68-381t192.5-305.5T734-29.5t370-72.5q275 0 494.5 166T2011 577q45 81 118 126t142 71q62 23 105.5 53t43.5 90q0 58-55 92t-147 54.5-204 38.5q-87 13-180.5 30.5T1650 1175q-144 40-279.5 108.5T1102 1428q-121 69-243 131t-247 101-255 39zm584 20q-39-56-61.5-99t-37.5-85l76-26q13 37 32.5 73.5t50.5 83.5zm123 157q-13 12-31 12-19 0-34-16l-82-91q-12-14-12-32 0-20 16-35l259-230q14-12 32-12 19 0 34 16l81 93q13 16 13 33 0 20-17 34zm41-301q-54-71-90-162l74-30q34 84 80 142zM474 831q-17-1-28-13.5t-9-30.5q11-90 49-181t93.5-172 121-142T833 202q24-11 40-4.5t21 25.5q11 38-25 52-57 22-114.5 76T647 478t-85 155-46 162q-2 16-13.5 26.5T474 831zm-117 788q121 0 236.5-36.5t231-95.5 233.5-127q134-77 275-148.5t295-114.5q95-26 191.5-44t183.5-31q133-21 206-38t102-33.5 29-33.5q0-20-18-34t-81-35q-43-15-97-40t-107.5-71-95.5-120q-123-219-252.5-360.5t-273-210T1104-22q-185 0-339.5 66.5T497 230.5t-175 281T260 864q0 99 18.5 189.5T327 1235q14 42 24.5 79.5T362 1381q0 67-27 106.5t-47 57.5q-16 15-20 21t-4 13q0 40 93 40zm1507-241q-4 116-62.5 203.5t-153 135.5-206.5 48q-70 0-125.5-18.5T1214 1696l56-73q29 30 74.5 46t97.5 16q93 0 150-63t57-157q0-68-20-149t-61-169l279-69q49 104 72.5 203.5T1943 1471q0 147-59 261.5t-171 180-271 65.5q-88 0-191.5-35T1060 1842l59-57q71 54 159 83.5t164 29.5q127 0 227.5-57t159-153.5T1887 1473q0-23-2.5-47t-7.5-48z"/></svg>