<svg xmlns="http://www.w3.org/2000/svg" viewBox="-10 0 2610 2048"><path d="M226 1978v-890h238v80H306v730h1988v-730h-158v-80h238v890zm345-140v-576l35-53 35 53v576zm344 90v-227l41-57q-44-11-44-57 0-26 16-54t44-53q29 25 44 53t15 54q0 47-43 57l41 57v227zm-481 40V559h344v1409zm78-58h188V637H512zm-39-836v-78h266v78zm665 854v-227l46-63-3 12q-46-44-46-111 0-61 46-113t119-77q74 25 119.5 77t45.5 113q0 67-46 111l-3-12 46 63v227zm-377-745v-80h166v80zm120 745V996h838v932h-80v-854H961v854zm690 0v-227l41-57q-43-10-43-57 0-26 15.5-54t43.5-53q29 25 44.5 53t15.5 54q0 46-44 57l41 57v227zm-656-647v-70h770v70zM510 454h66V331h-66zm-44 179-64-87v-93h46V243h315v210h45v93l-62 87zm170-179h66V331h-66zm885 785v-40q0-33 18-53t46-20 45.5 20.5 17.5 52.5v40zM449 324q-29-44-29-137 0-76 51.5-144T595-44h22q74 19 124.5 87T792 187q0 94-28 137zm52-76h211q2-12 3-27.5t1-33.5q0-48-32-94t-78-61q-45 15-77.5 61.5T496 187q0 34 5 61zm1458 1590v-576l35-53 35 53v576zM889 1100q-19-37-34.5-100.5T839 892q0-122 120-245t323-209h36q203 86 323 209t120 245q0 44-15 107.5t-35 100.5l-67-36q16-29 28.5-82.5T1685 892q0-94-104.5-198T1300 513q-176 77-280.5 181T915 892q0 36 12.5 89.5T956 1064zm784 83v-80h166v80zM606-22q-16 0-27.5-12T567-63q0-16 11.5-27.5T606-102t27.5 11.5T645-63q0 17-11.5 29T606-22zm1216 1990V559h344v1409zm78-58h188V637h-188zM1300 544q-29 0-50.5-21.5T1228 472t21.5-50 50.5-21 50.5 21 21.5 50-21.5 50.5T1300 544zm561 530v-78h266v78zm-546-659q-81 0-138-57t-57-138q0-80 57-137t138-57q32 0 32 11 0 3-9 6l-8 2q-42 10-68.5 47t-26.5 83q0 58 40 98t98 40q42 0 76-21.5t48-56.5l2-5q2-8 6-7.5t4 7.5q0 76-57 130.5T1315 415zm81-149q-2 0-8-7l-30-44-51 5q-12 1-12-4 0-4 4-8l33-43-20-45q-6-14-6-16t2-2 9 2 28 11l24 10 30-29q18-17 22-17 2 0 2 16v7.5l-1 23.5-1 22 49 28q9 5 9 7 0 3-17 7l-48 13-13 53q-2 10-5 10zm502 188h66V331h-66zm-44 179-62-87v-93h45V243h315v210h46v93l-64 87zm170-179h66V331h-66zm-188-130q-28-43-28-137 0-76 51-144t124-87h22q72 19 123.5 87t51.5 144q0 93-29 137zm52-76h211q5-27 5-61 0-47-32.5-93.5T1994 32q-46 15-78 61t-32 94q0 18 1.5 33.5t2.5 27.5zm106-270q-16 0-27.5-12T1955-63q0-16 11.5-27.5T1994-102q17 0 28 11.5t11 27.5q0 17-11 29t-28 12zm-660 1261v-40q0-33 18-53t46-20 45.5 20.5 17.5 52.5v40zm-195 0v-40q0-33 18-53t46-20 45.5 20.5 17.5 52.5v40zm-187 0v-40q0-33 18-53t46-20 45.5 20.5 17.5 52.5v40z"/></svg>