<svg xmlns="http://www.w3.org/2000/svg" viewBox="-10 0 2610 2048"><path d="M1319 1978q-237 0-431.5-74.5t-335-208.5T336 1380t-76-395q0-228 85.5-425T580 214 922-18.5t407-83.5q216 0 400 86.5t321 240 213.5 355T2340 1011q0 220-75 398.5T2053.5 1715 1730 1910t-411 68zm-29-373q128 0 240-47.5t197-131.5 133-196 48-241q0-131-49-251t-135-213.5-198.5-148T1285 322q-119 0-226.5 48.5T868 507 737.5 713 690 970q0 133 44.5 248.5T860 1421t190.5 135.5T1290 1605zm9-285q-101 0-185.5-51.5t-135-138.5T928 938t50-192 134-139 185-52q102 0 187 52t136 139 51 192q0 104-50.5 191t-135 139-186.5 52zm-2-75q81 0 149-42t109-112 41-153-41-153-109-112.5-149-42.5q-80 0-147 42t-107 112-40 154q0 83 40 153t107 112 147 42zm2-148q-62 0-108-47.5T1145 938q0-65 45.5-112.5T1298 778q63 0 109 47.5t46 112.5q0 64-46 111.5t-108 47.5zm338 683q144-57 258-161t187-241 93-291q3-23-7.5-37t-29.5-14q-16 0-28 10t-15 30q-20 138-85 263.5t-166.5 222T1611 1710q-21 8-28.5 23t-2.5 30 20.5 20 36.5-3zM699 370q29 21 57-11 74-86 200-148t266-72q20-2 30.5-12t10.5-26-10.5-25.5T1218 66q-92 0-191.5 34t-187 89T696 309q-15 18-12.5 34.5T699 370z"/></svg>