<svg xmlns="http://www.w3.org/2000/svg" viewBox="-10 0 2610 2048"><path d="M425 1978q-67 0-116-49t-49-116V63q0-68 49-116.5T425-102h1750q68 0 116.5 48.5T2340 63v1751q0 67-49 115.5t-117 48.5zm-15-744h70V896q0-47-2.5-90.5T473 732h4l323 502h89V630h-71v341q0 41 2.5 90t3.5 69h-3L498 630h-88zm621 0h338v-67h-261V951h246v-66h-246V696h261v-66h-338zm560 0h77l114-394q8-26 14-51t10-44 5-27q2 8 6 27.5t10.5 44T1841 838l118 396h77l161-604h-80l-93 368q-10 40-17.5 76.5T1995 1143q-4-29-12.5-68t-20.5-78l-111-367h-79l-107 364q-10 37-18.5 76.5T1633 1143q-4-32-11.5-69t-17.5-75l-94-369h-79z"/></svg>