<svg xmlns="http://www.w3.org/2000/svg" viewBox="-10 0 2610 2048"><path d="M614 1048V828h1091v220zm1194 0V828h197v220zm2-310v-25q65-28 93.5-73t35-116.5T1945 348q0-83 10-155t42-129 97-95 176-51v25q-66 20-94 64t-34 122.5-6 201.5q0 63-10 125t-42.5 117-97.5 97.5-176 67.5zm-510 1240q-212 0-398.5-81T573 1672.5t-222.5-332T270 938t80.5-402.5 222.5-332T901.5-21t398.5-81 398.5 81T2027 203.5t222.5 332T2330 938t-80.5 402.5-222.5 332-328.5 224.5-398.5 81zm0-80q196 0 368-75t303-207.5 205-306 74-371.5-74-371.5-205-306T1668 53t-368-75-368 75-303 207.5-205 306T350 938t74 371.5 205 306T932 1823t368 75zm684-233L567 260l49-49 1417 1405z"/></svg>