<svg xmlns="http://www.w3.org/2000/svg" viewBox="-10 0 2610 2048"><path d="M601 1978q-67 0-114-47.5T440 1816q0-66 47-112t114-46h1155q124 0 124-123V86q0-108-109-108H531v1765l-91 73V70q0-88 45-130t126-42h1166q63 0 100.5 21t57.5 68h91q58 0 96 36.5t38 91.5v1658q0 105-53 155t-151 50zm-100-250V-39h203v1767zm1586 150q-51-11-97-39.5t-75.5-81T1883 1623l76-84q0 98 21.5 151t56 75 73.5 29zm-1486 20h1355q124 0 124-123V124q-22-4-57.5-20.5T1958 68q2 7 2 16.5V1533q0 105-53 155t-151 50H601q-33 0-56.5 23.5T521 1818q0 34 23 57t57 23zm690-1075q-37 0-64.5-10.5T1169 779q-66-52-145-52H902V353h122q43 0 76.5-12t68.5-40q55-44 122-44 66 0 121 43 67 53 146 53h122v374h-122q-41 0-74.5 12.5T1412 780q-31 22-58.5 32.5T1291 823zm0-100q50 0 82-23 54-41 94.5-57t90.5-16h29V453h-29q-50 0-90.5-16.5T1373 380q-32-23-82-23-52 0-81 22-53 42-94 58t-92 16h-29v174h29q51 0 92 16t94 58q29 22 81 22z"/></svg>