<svg xmlns="http://www.w3.org/2000/svg" viewBox="-10 0 2610 2048"><path d="M1300 1978q-215 0-403.5-80.5T565 1674t-224-331.5T260 938q0-215 80.5-403.5T564 203 895.5-21t404.5-81q215 0 403.5 80.5T2035 202t224 331.5 81 404.5q0 215-80.5 403.5T2036 1673t-331.5 224-404.5 81zm390-256-176-377q92-53 159-138l355 237q-136 181-338 278zm-390 176q199 0 373-74.5t306-206.5 206.5-306 74.5-373-74.5-373T1979 259 1673 52.5 1300-22 927 52.5 621 259 414.5 565 340 938t74.5 373T621 1617t306 206.5 373 74.5zm0-568q-108 0-197-53t-142-142-53-197 53-197.5T1103 598t197-53 197.5 53T1640 740.5t53 197.5-53 197-142.5 142-197.5 53zm0-171q92 0 156.5-65t64.5-156q0-92-64.5-156.5T1300 717q-91 0-156 64.5T1079 938q0 91 65 156t156 65zM927 669 572 432q136-181 338-278l176 377q-92 53-159 138z"/></svg>