<svg xmlns="http://www.w3.org/2000/svg" viewBox="-10 0 2610 2048"><path d="M276 1124q-10-54-14-98.5t-4-87.5q0-222 77.5-411.5t218-330.5T883-23.5t412-78.5q235 0 435.5 91T2073 238l-46 65q-131-153-320-239t-412-86q-206 0-380.5 72t-304 202-201 305T338 938q0 23 1 46t4 52zm773 828q-172-45-297-120t-221-175l63-50q164 170 397 244zm-628-326q102 0 159-52t57-145q0-59-23-120t-74-139L421 988l-118 182q-52 79-75 140t-23 119q0 93 57 145t159 52zm0 80q-133 0-214.5-76T125 1429q0-68 26.5-141t84.5-162l185-284 186 284q58 88 84 161t26 142q0 125-81 201t-215 76zm867 322q-171 0-275-89t-104-234v-368l80-12v380q0 112 81 177.5t218 65.5h14q138 0 218.5-65.5T1601 1705v-384l80 12v372q0 146-103.5 234.5T1302 2028zm-23-325v-418h60v418zm-322-85q-76-34-116-74t-40-83q0-60 69-109.5t184.5-79T1295 1243q140 0 255 29.5t184 79 69 109.5q0 43-40 83t-116 74v-227q-90-34-176.5-51t-175.5-17-175.5 17-176.5 51zm0-660q-52 0-89-44t-37-106 37-106.5 89-44.5 89 44.5 37 106.5q0 61-36.5 105.5T943 958zM619 579l-12-69q116-20 189-56t121-97l55 43q-56 71-141 114t-212 65zm939 1360 45-95q196-61 342.5-191.5t228-313.5 81.5-401q0-28-1.5-55.5T2250 828l77-30q5 34 6.5 69t1.5 71q0 187-56.5 351T2119 1585t-245.5 223-315.5 131zm89-981q-52 0-89-44t-37-106 37-106.5 89-44.5 89 44.5 37 106.5q0 61-36.5 105.5T1647 958zm282-387q-213-45-310-171l55-43q44 55 108 90t164 56zm250 225q102 0 159-52t57-145q0-59-23-120t-74-139l-119-182-118 182q-52 79-75 140t-23 119q0 93 57 145t159 52zm0 80q-133 0-214.5-76T1883 599q0-68 26.5-141t84.5-162l185-284 186 284q58 88 84 161t26 142q0 125-81 201t-215 76z"/></svg>