<svg xmlns="http://www.w3.org/2000/svg" viewBox="-10 0 2610 2048"><path d="M1260 1618q-127-8-239.5-59.5T822 1423l438-432zm-491-254q-70-88-110-196.5T619 938q0-136 49.5-256t137-212.5 204-148T1260 258v621zm571 254V991l438 432q-85 84-197.5 135.5T1340 1618zm-40 81q158 0 295.5-59t242.5-164 164-243 59-295q0-158-59-296t-163.5-242.5T1596 236t-296-59q-157 0-295 59T762 400 598 642.5 539 938q0 157 59 295t164 243 243 164 295 59zm531-335-491-485V258q134 8 250.5 63.5t204 148 137 212T1981 938q0 121-39.5 229.5T1831 1364zM426 1978q-68 0-117-48.5T260 1814V63q0-68 49-116.5T425-102h1750q68 0 116.5 48.5T2340 63v1750q0 67-48.5 116t-116.5 49z"/></svg>