<svg xmlns="http://www.w3.org/2000/svg" viewBox="-10 0 2610 2048"><path d="M1817 1788q-51-164-109.5-267T1578 1367.5t-161-55.5q-76-132-177.5-212T980 1020q-66 0-111.5 5.5t-87 21.5-95.5 47V781q0-25-15-40t-38-15-37.5 15.5T581 781v614l-60 140V773q0-47 31.5-77t80.5-30q50 0 81 30t31 77v100l-24 1q30-100 75-187t95.5-152.5T990 432t84-37q-49-39-77-96t-28-121q0-77 38-140.5T1109-64t141-38 140 38 101 101.5 38 140.5q0 80-40.5 143T1380 420t-150 36q24 34 33 68.5t9 75.5q0 52-18 119.5t-36.5 153T1199 1063q43-7 104.5-12t101.5-5q143 0 240 141.5t156 419.5q37-14 83-14 54 0 87.5 23t33.5 56q0 15-9.5 31.5T1964 1729zm5 35-25-66 254-90q14-6 20 11l13 36q5 13-11 20zm-272 87v-74l111-36 20 66zm-92 68q-51 0-87.5-36t-36.5-87q0-50 36.5-85.5t87.5-35.5q50 0 86 35.5t36 85.5q0 51-36 87t-86 36zm0-60q26 0 44-18t18-45q0-26-18-43.5t-44-17.5-45 18-19 43q0 27 19 45t45 18zm295 22q-37 0-61-22t-35-53l-54-163-15 6q-20 8-29.5 25t-14.5 60l-49-27q9-53 26-72.5t53-34.5l64-27 71 214q11 34 42 34 26 0 36-19.5t1-47.5l-64-192q-44-132-119.5-205t-176.5-79l17-64q119 17 203.5 102.5T1782 1607l64 191q18 54-10.5 98t-82.5 44zm-376-163q0-93 36.5-153.5T1522 1535q-23-32-48-45.5t-58-13.5h-91l-8-60h106q58 0 104 37t79 110l-43 16q-61 22-91.5 62.5T1436 1758zm-423 58v-225l157 157q-62 57-157 68zm187-97-158-159h224q-5 93-66 159zm-231 97q-46-5-86.5-22.5T752 1767l158-157zm297-300H983l158-157q62 69 66 157zm-276 438q-114 0-208.5-56t-151-150.5T515 1557q0-97 41-180.5t112-142 161-80.5l37 63q-79 15-143 63.5t-101 120-37 156.5q0 95 46.5 174T757 1856.5t174 46.5q96 0 174.5-46.5t125-125.5 46.5-174q0-90-42-165.5T1122 1268t-160-55l32-67q100 15 180 73.5t126.5 146T1347 1557q0 115-56.5 209.5T1140 1917t-209 56zm0-344q-30 0-51-20.5t-21-50.5q0-31 21-52t51-21q29 0 50.5 21t21.5 52q0 30-21.5 50.5T931 1629zm562-179-61-3q-57-196-165-301.5T984 1019l-9-62q132 12 236 73t175.5 167 106.5 253zm-539 57v-225q90 6 157 67zm-231 231q-28-31-45.5-72t-22.5-87h225zm187-231-158-158q65-61 158-67zm-30 28H655q11-94 68-157zm34-286q-41 0-69.5-29t-28.5-70q0-29 16-54t44-36l-15-53 109-76q20 55 31.5 110t11.5 90q0 52-28.5 85t-70.5 33z"/></svg>