<svg xmlns="http://www.w3.org/2000/svg" viewBox="-10 0 2610 2048"><path d="M1071 1978q-55 0-86-30t-31-88q0-63-8.5-138T924 1568q-15-95-27-188t-12-183q0-72 4.5-124t16.5-96q18-68 27-113.5t9-79.5q0-63-47.5-96.5T749 654q-116 0-182.5-72T500 371q0-102 34.5-166t97.5-64q44 0 74.5 28t30.5 72q0 39-21.5 69.5T694 376q0 36 29.5 63t81.5 27q47 0 86-11t91.5-22.5T1121 421q-43-46-66-101.5T1032 198q0-84 40.5-152T1181-62t151-40q84 0 152 40t108 108 40 152q0 98-63.5 178T1402 495q41 15 71 64.5t30 111.5q0 36-5.5 68t-14.5 69q-13 53-24.5 126t-11.5 190q0 189 17.5 297.5t60 154T1641 1621q137 0 137 152 0 71-30 124t-74 53q-28 0-43.5-18t-26.5-43-27-47.5-47-31.5q-107-33-164.5-86t-83-117.5T1244 1478q-7-35-16-56.5t-28-21.5q-21 0-30 34t-9 86q0 86 18.5 172.5T1198 1850q0 57-35 92.5t-92 35.5zM826 362l-195-77 17-48 178 73zm52 126q-39-41-56-84.5T805 305q0-38 27-64t64-26q38 0 64 26t26 64q0 40 5.5 69.5T1015 447zm1137 310-609-226v-53l626 232zm11 215q-33 0-53.5-36.5T1952 881t20.5-95 53.5-36 53.5 36 20.5 95-20.5 95.5-53.5 36.5z"/></svg>