<svg xmlns="http://www.w3.org/2000/svg" viewBox="-10 0 2610 2048"><path d="M191 1532q-28 1-37-15t3-37q51-89 105.5-227.5T371 897q70-279 177-449t266-247.5 382-77.5q342 0 551 180.5T2029 870q23 120 40.5 203.5t36.5 145 43.5 113.5 61.5 108q16 24 7.5 39.5T2183 1495q-262 0-383.5-150T1678 891q-43-2-84-25.5t-58-66.5q-150 88-315 141t-317 61q-15 1-22-10.5t1-24.5q24-38 38.5-70t24.5-63q-50 43-115 82.5T715 972q-18 186-71.5 306.5t-161.5 182-291 71.5zm170 203q-67 0-93.5-10.5T241 1695q0-18 20-37 41-38 70-84t44-99l86-43q-10 73-32 124t-59 100q65-2 106-15.5t66-44.5l30 82q-34 28-85.5 42.5T361 1735zm833 243q-292 0-461.5-90T544 1641q-7-64-11.5-128t-8.5-134l75-73q4 61 7.5 116.5t8 108T624 1634q11 118 157.5 191t412.5 73q200 0 344.5-34.5t222-94T1838 1637q0-20-6-39.5t-19-45.5q-19-40-30.5-79.5T1771 1390v-125l80 74v51q0 42 10 77t28 71q14 27 21.5 49.5t7.5 49.5q0 102-87.5 178.5T1581 1935t-387 43zm-273-709q-50 0-90.5-23.5T772 1183l62-29q10 22 33.5 34.5T921 1201q29 0 53.5-13t33.5-33l62 28q-15 39-56.5 62.5T921 1269zm270 282q-74 0-132.5-22.5T950 1457l49-51q76 75 192 75t192-75l49 51q-50 49-108.5 71.5T1191 1551zm244-282q-50 0-91-23.5t-58-62.5l62-28q9 20 33.5 33t53.5 13q30 0 53.5-12.5t33.5-34.5l62 29q-18 39-58.5 62.5T1435 1269zM262 1454q131-21 209.5-82t119-172.5T645 916q76-31 133-63.5t99-61.5q30-21 52-37t40-32q40-36 56-36 9 0 12.5 9t3.5 32q0 26-11.5 83.5T995 913q65-4 156.5-31t197-76T1560 689q26 73 76 105t123 34q0 200 32.5 319.5T1897 1326t195 79q-38-84-64-172.5t-44.5-179T1949 874q-61-341-254.5-506T1196 203q-208 0-353 73.5t-240.5 232T447 924q-23 98-50.5 187t-61 173.5T262 1454zm1810 233q-58 0-102.5-9.5T1892 1649l-8-101q23 33 67.5 45.5T2063 1608q-28-38-47.5-75.5T1984 1452l91 19q19 44 47 83t68 70q17 14 17 28 0 18-28.5 26.5T2072 1687zm210-1026q-72 0-124-48t-52-115q0-46-13-72.5t-31-44.5l-27-27-381 116q-69 21-98 21-16 0-25.5-7t-19.5-25l352-208-342-201q18-33 49-33 17 0 40 5.5t54 15.5l368 113 20-23q17-20 30.5-46t13.5-72q0-66 52-114t124-48q70 0 118.5 44.5T2439 2q0 67-51.5 115T2264 165q-57 0-78.5 4t-33.5 18l-52 61 62 74q11 13 34 17.5t78 4.5q71 0 123.5 48t52.5 114q0 64-49 109.5T2282 661zm-265-367q16 0 27.5-12t11.5-28-11.5-27.5T2017 215t-27.5 11.5T1978 254t11.5 28 27.5 12zm265 301q41 0 71-25t30-64q0-43-33-69.5t-76-26.5q-42 0-71.5 25t-29.5 63q0 43 33.5 70t75.5 27zm-18-495q42 0 75.5-27.5T2373 2q0-38-30-63.5T2272-87q-42 0-75.5 27.5T2163 10q0 40 29.5 65t71.5 25z"/></svg>