<svg xmlns="http://www.w3.org/2000/svg" viewBox="-10 0 2610 2048"><path d="M679 1587q-155-24-222-76.5T390 1388q0-18 5.5-35.5t5.5-30.5q0-29-24-56.5t-48-62.5-24-86q0-9 1.5-19t2.5-18q68-371 175-609.5T753.5 108 1148-43l-14 82Q929 68 789 181.5t-235 335T388 1094q-3 15-3 27 0 35 24 62t48 57 24 74q0 22-5.5 38t-5.5 33q0 88 194 120zm626 391q-292 0-463.5-90T655 1641q-11-116-18.5-238T624 1124l79-10q6 160 13.5 283t18.5 237q12 118 158 191t412 73q200 0 344.5-34.5t222-94T1949 1637q0-20-6-39.5t-19-45.5q-19-40-30.5-79.5T1882 1390v-291l80 12v279q0 28 4.5 52.5t13 48 20.5 47.5q14 27 21.5 49.5t7.5 49.5q0 102-87.5 178.5T1692 1935t-387 43zm-5-635q-85 0-155-33.5T1020 1209l51-44q47 57 102.5 82.5T1300 1273q72 0 128-25.5t102-82.5l51 44q-55 67-125.5 100.5T1300 1343zm-635 29q-64-26-100.5-69.5T528 1208q0-65 54.5-106.5T719 1060h93q35-273 77-446.5T990 345t144-131l54 67q-62 21-107.5 74.5T1000 508t-63 254-55 378H719q-51 0-81 19t-30 49q0 24 22 47t59 40zm393-340q-38 0-63-28t-25-68 25-68.5 63-28.5 63.5 28.5T1147 936t-25.5 68-63.5 28zm459 0q-38 0-63-28t-25-68 25-68.5 63-28.5 63.5 28.5T1606 936t-25.5 68-63.5 28zm153-332q-52-51-87-102t-53-105q-66 56-140.5 99.5t-135 67.5-84.5 24q-17 0-17-16 0-8 3.5-22t13.5-36l91-211q-97 46-178 91t-148 92l108-249 103-64 177-13 196 50 130 220zm262 673-23-77q38-17 60-40.5t22-47.5q0-30-30-49t-81-19h-163q-27-223-55-378t-62.5-254-80.5-152.5-108-74.5l55-67q86 36 144.5 131T1711 613.5t77 446.5h92q82 0 136.5 41.5T2071 1208q0 52-37 95.5t-102 69.5zm20 208-16-76q194-32 194-120 0-17-5.5-33t-5.5-38q0-44 24-74t48-57 24-62q0-12-3-27-71-356-166-577.5t-235-335T1466 39l-14-82q232 27 394.5 151t270 362.5T2291 1080q2 8 3 18t1 19q0 51-24 86t-48 62.5-24 56.5q0 13 5.5 30.5t5.5 35.5q0 73-66.5 123t-191.5 70zM1222 302q-52 0-88-35.5t-36-86.5q0-23 8-41.5t25-36.5q-33-33-33-81 0-53 36-88t88-35q44 0 78 33 34-33 78-33 53 0 88.5 35t35.5 88q0 48-33 81 17 18 25 36.5t8 41.5q0 51-36 86.5t-88 35.5q-44 0-78-33-34 33-78 33zm-2-62q16 0 31-10.5t49-43.5q34 33 49 43.5t31 10.5q27 0 44.5-17t17.5-43q0-16-10-30t-43-48q34-35 43.5-49t9.5-32q0-28-16.5-44.5T1380-40q-16 0-31 10.5T1300 14q-34-33-49-43.5T1220-40q-28 0-45 16.5T1158 21q0 18 9.5 32t43.5 49q-33 34-43 48t-10 30q0 26 17.5 43t44.5 17zm80-99q-17 0-29-12t-12-29 12-29 29-12 29 12 12 29-12 29-29 12z"/></svg>