<svg xmlns="http://www.w3.org/2000/svg" viewBox="-10 0 2610 2048"><path d="M918 1978q-49 0-95.5-26t-76-67-29.5-85q0-41 34.5-64t89.5-23q42 0 86-55.5t84.5-142 72.5-181 50.5-174T1153 1041q0-24-5-37.5t-22-13.5q-26 0-47.5 33.5t-46 77-58.5 77-85 33.5q-43 0-69-25.5t-26-64.5q0-40 28.5-74.5t75-76T997 871l10-11q43-48 87.5-112t75-119.5T1200 552q-94-45-151-130t-57-188q0-93 46-169t122.5-121.5T1330-102t169.5 45.5 122 121.5 45.5 169q0 91-44.5 169T1500 533q0 36 38.5 79.5t96 98T1749 832t95.5 149.5T1883 1164q0 68-27 105.5t-79 37.5q-49 0-74-38.5t-25-122.5q0-81-20.5-129t-54.5-48q-14 0-23.5 10.5t-9.5 27.5q0 28 17 73t17 104q0 31-5 62.5t-13 62.5q38 79 88.5 148.5T1784 1600q52 64 72 103t20 76q0 48-24.5 93.5t-62 75.5-76.5 30q-45 0-75-30t-30-75q0-23 6.5-45.5t6.5-44.5q0-32-34.5-85t-85-107-100.5-91-80-37-66.5 36.5-84 116.5-111.5 212q-44 91-72.5 120.5T918 1978z"/></svg>