<svg xmlns="http://www.w3.org/2000/svg" viewBox="-10 0 2610 2048"><path d="M916 1978v-278q-48 17-100.5 26.5T731 1736q-91 0-157.5-73.5t-103-205T434 1152q0-73 33-113.5t91-40.5q59 0 92 40t33 114q0 43-2.5 105t-2.5 113q0 71 22 99.5t58 28.5q41 0 76-26t70.5-64 78-76.5 98.5-64.5 133-26h141q112 0 182 42t113 104 71 124.5 54.5 104.5 65.5 42q32 0 57-35t25-93q0-23-1.5-64.5t-3.5-84.5-2-69q0-74 33-114t91-40q59 0 91.5 40.5T2164 1312q0 271-80.5 422.5T1863 1886q-66 0-120-37t-90-107v236zM550 736q-52 0-88.5-36.5T425 611q0-53 36.5-89t88.5-36q53 0 89 36t36 89q0 52-36 88.5T550 736zm-39-140q14 0 23.5-9.5T544 564q0-14-9.5-23.5T511 531q-13 0-22.5 9.5T479 564q0 13 9.5 22.5T511 596zm778 673q-93 0-169.5-46.5t-122.5-129T948 902q173 27 343.5 28.5T1631 902q-2 108-48.5 191t-123 129.5T1289 1269zm0-301q-154 0-270.5-29T837 858.5 772 740q0-97 138-130 10-89 61-158t133.5-108 184.5-39q103 0 185.5 39t134 108 60.5 158q138 33 138 130 0 67-65 118.5T1560.5 939 1289 968zm0-90q131 0 229.5-17t153.5-48 55-73q0-29-26.5-47T1588 662q2-8 2-15v-14q0-73-37.5-130T1447 413t-158-33q-89 0-157 33t-106 90-38 130q0 7 .5 14t1.5 15q-85 13-111.5 31T852 740q0 42 55 73t153.5 48 228.5 17zm761 21q-52 0-88.5-36.5T1925 774q0-53 36.5-89t88.5-36 88.5 36 36.5 89q0 52-36.5 88.5T2050 899zm-35-141q14 0 23.5-10t9.5-23-9.5-22.5-23.5-9.5q-13 0-22.5 9.5T1983 725t9.5 23 22.5 10zm-444-610q-52 0-88.5-36.5T1446 23q0-53 36.5-89t88.5-36q53 0 89 36t36 89q0 52-36 88.5t-89 36.5zM1537 2q13 0 22.5-10t9.5-23-9.5-22.5T1537-63t-23 9.5-10 22.5 10 23 23 10z"/></svg>