<svg xmlns="http://www.w3.org/2000/svg" viewBox="-10 0 2610 2048"><path d="M1682 1978q-40 0-68.5-29.5T1541 1828q-64-132-111.5-212t-83.5-116.5-67-36.5q-30 0-80 37t-100.5 91-85 107-34.5 85q0 22 6.5 44.5t6.5 45.5q0 45-30 75t-75 30q-39 0-76.5-30t-62-75.5T724 1779q0-37 20-76t72-103q59-73 110-142.5t88-148.5q-7-31-12.5-62.5T996 1184q0-59 17-104t17-73q0-17-9.5-27.5T997 969q-34 0-54.5 48T922 1146q0 84-24.5 122.5T823 1307q-52 0-79-37.5T717 1164q0-100 38.5-182.5T851 832t114.5-121.5 96-98T1100 533q-78-52-122.5-130T933 234q0-93 45.5-169t122-121.5T1270-102t170 45.5T1562.5 65t45.5 169q0 103-57 188t-151 130q0 21 30.5 76.5t75 119.5 87.5 112l10 11q53 58 99.5 99.5t75 76 28.5 74.5q0 39-26 64.5t-69 25.5q-51 0-85-33.5t-58.5-77-46-77T1474 990q-16 0-21.5 13.5t-5.5 37.5q0 40 18.5 119.5t50.5 174 72.5 181 84.5 142 86 55.5q56 0 90 23t34 64q0 44-29.5 85t-75.5 67-96 26z"/></svg>