<svg xmlns="http://www.w3.org/2000/svg" viewBox="-10 0 2610 2048"><path d="M1216 1978q-73 0-123-34.5t-50-85.5q0-39 28-73t71-48q24-50 24-184 0-133-22-247.5t-59-200-84.5-133.5-98.5-48q-39 0-79 21t-87 42-107 21q-84 0-163-43.5T336 850t-51-153q0-65 34-99.5t94-34.5q109 0 122 113 5 40 27.5 64t66.5 24q56 0 108.5-36t88-101T866 477l67 62q-82-10-146-54T686 371.5 649 219q0-88 43-161T807.5-58.5 968-102t160.5 43.5T1244 58t43 161q0 49-15 98.5T1225 424l-26-41q128-36 244.5-56t191.5-20q110 0 200.5 42t144 111.5T2033 615q0 64-38 106t-92 42q-49 0-80-35.5t-31-85.5q0-89-124-89-69 0-112.5 36.5T1512 679q0 43 37.5 114.5T1659 967q65 91 126 157t136 66q36 0 61-17.5t47-41 49-41 68-17.5q38 0 77 23.5t65.5 64 26.5 91.5q0 55-13.5 82.5T2253 1362q-22 0-50.5-12.5T2140 1337q-29 0-53.5 19.5t-53 44.5-68 44.5-98.5 19.5-103-19-79.5-43.5-68.5-43.5-69-19q-46 0-70 40t-24 114q0 247-56 365.5T1216 1978z"/></svg>