<svg xmlns="http://www.w3.org/2000/svg" viewBox="-10 0 2610 2048"><path d="m372 1015-55-59 874-807 55 59zM233 484l-55-59L743-97l55 59zm780 1238-55-59L2368 362l55 59zm-351-323-55-59L2103-46l55 59zm638 579q-395-303-644.5-558T288 940 170 502q0-126 42.5-235.5T331.5 74t179-129.5T732-102q121 0 234 46.5t201 127T1300 255q46-103 133.5-183.5t200.5-127 234-46.5q119 0 221.5 46.5t179 129.5 119 192.5T2430 502q0 213-118 438t-367.5 480-644.5 558zm0-95q365-283 597-524.5t342.5-453T2350 502q0-147-63.5-265.5T2114 48t-246-70q-127 0-236.5 53t-194 151T1300 414q-53-134-137.5-232T969 31 732-22q-137 0-246 70T313.5 236.5 250 502q0 192 110.5 403.5t342.5 453 597 524.5z"/></svg>