<svg xmlns="http://www.w3.org/2000/svg" viewBox="-10 0 2610 2048"><path d="M1699 1786q-132-33-224.5-65t-155.5-76-107-110-80-167L919 765q-34-98-60-138t-58-48l-248-63 16-73 251 64q53 13 91 65.5T989 740l213 603q32 89 69 146.5t91.5 95T1498 1650t201 58l464-127v-150q0-27-25-35-90-28-156.5-58t-112.5-78-75-129l-198-553q-40-113-77.5-180T1438 296.5 1335 247l-266-69 17-71 266 67q78 19 133 64.5t97.5 122.5 83.5 192l198 553q24 67 61 105t94 62 141 51q35 11 56.5 40t21.5 67v208zM430 1195l-17-68 494-123 17 68zm809 577q-13 0-22.5-9.5t-9.5-22.5v-284l80 80v204q0 13-8.5 22.5t-22.5 9.5zM476 994l-17-68 492-125 17 68zm1195 984q-13 0-22.5-9.5t-9.5-22.5v-222h80v222q0 13-9 22.5t-23 9.5zM400 1408q-19 0-30-13.5t-7-32.5L587 192q12-62 47.5-96T722 62q64 0 99.5 49t50 164T886 589l-75-24q0-154-9-248t-28.5-137-51.5-43q-47 0-60 70L437 1379q-5 29-37 29zm476-146q-16 0-23-10.5t-5-23.5l92-476 45 62-82 426q-5 22-27 22zM513 795l-17-68 404-103 23 67zm1137 953v-131q0-35-6-45t-31-17q-88-24-145.5-54.5t-94-76.5-61.5-116l-232-656q-40-113-97-171t-129-77l-262-67 14-73 266 67q90 22 161 93.5T1150 627l232 656q21 60 50.5 96t78 58.5T1635 1482q50 14 70 44t20 91v131zm471 94q-13 0-22.5-9.5t-9.5-22.5v-188l80-10v198q0 13-9 22.5t-23 9.5zM847 388l-19-72 241-46 19 73zm1346 1230q-166-56-274.5-104.5t-173.5-113-104-168.5l-249-668q-28-74-56.5-110.5T1241 399l-231-63 16-73 249 67q74 20 114.5 70t72.5 139l240 668q32 88 88.5 142.5t158.5 98 268 99.5zM1085 354l-75-15 59-311q12-62 47-96t87-34q75 0 111 72t47 239l-75 5q-8-131-27.5-186T1203-27q-47 0-60 70z"/></svg>