<svg xmlns="http://www.w3.org/2000/svg" viewBox="-10 0 2610 2048"><path d="M217 1878V806l74-172 561 2v220l-592-2 37-93v1037h2006V761l37 93-592 2V636l561-2 74 172v1072zm229-294q-31 0-31-31v-243q0-31 31-31h222q31 0 31 31v243q0 31-31 31zm76 0h70v-305h-70zm-113-267q-11 0-17.5-8.5T388 1289l31-124q7-29 37-29h202q30 0 37 29l31 124q3 11-3.5 19.5T705 1317zm398 513V620l80-10v1220zm295 8v-619h396v619h-70v-549h-256v549zm251-280v-50h99v50zm-499-454v-90h892v90zm357-207q-11 0-11-10V786q0-11 11-11h115q11 0 11 11v101q0 10-11 10zm502 933V610l80 10v1210zM1268 816q47 0 79.5-33t32.5-79-32.5-78.5T1268 593q-46 0-78.5 32.5T1157 704t32.5 79 78.5 33zm21 69q-83 0-159.5-52.5T998 686q-34-2-34-19 0-14 20-31.5t36-17.5q9 0 12.5 10t3.5 36q19 28 32.5 43.5T1101 739q-1-11-2-22.5t-1-16.5q0-68 49.5-118.5T1269 531q39 0 78 18.5t65.5 55T1439 696q0 22-2.5 42.5T1417 780q20-14 35-29t22-31 10-40.5 9-44.5 22-20 45 23 53 58 24 70q0 19-19 25t-67 6q-59 40-130 64t-132 24zm643 699q-31 0-31-31v-243q0-31 31-31h222q31 0 31 31v243q0 31-31 31zm76 0h70v-305h-70zm-113-267q-11 0-17.5-8.5t-3.5-19.5l31-124q7-29 37-29h202q30 0 37 29l31 124q3 11-3.5 19.5t-17.5 8.5zM825 661 718 540 1300-2l582 542-107 121-62-51 58-64-471-439-471 439 58 64z"/></svg>