<svg xmlns="http://www.w3.org/2000/svg" viewBox="-10 0 2610 2048"><path d="M1300 1928q-165 0-266.5-48T932 1756q0-19 9-34-128-87-196-213-31 16-59 16-31 0-62-22-11 36-34.5 54.5T536 1576q-23 0-46-12-4 38-24.5 59.5T415 1645q-16 0-36-10-16 46-49 74.5t-65 28.5q-31 0-48-22t-17-60q0-32 11-62-20-9-33.5-28t-13.5-41q0-24 17-46.5t48-42.5q-4-11-4-24 0-41 24.5-67t60.5-39q-7-15-7-34 0-40 32-68t74-35q-3-14-3-25 0-59 49-83.5t116-27.5q-3-12-3-24 0-62 40.5-85t99.5-23q-3-9-3-18 0-36 28.5-57.5T803 804q21 0 44 8-3-8-3-15 0-35 43.5-58.5T976 715q57 0 106.5 24.5T1162 807t30 99q0 25-7 49 51 37 72 90t21 127q0 34-7 65t-19 53q15 5 32 5 38 0 52-33t18-120q2-33 5-62t15-45q8-12 20-3 11 9 8 62.5t-3 115.5q0 76 16 119t44 43q30 0 45.5-38.5T1524 1206q2-37 5-68t11-41q5-6 10-2 7 4 10 14t4 42 1 102q0 80 16 123.5t45 43.5q35 0 51.5-35.5T1694 1273q0-24 1.5-44t7.5-31q8-15 19-6 12 10 16 49t5 84q3 89 12.5 121.5t33.5 32.5q15 0 25-12 12-14 19.5-47t13.5-65 11-41q5-8 13-5 11 4 16 23t5 73q0 70 10 97.5t32 27.5q20 0 30-15 16-23 18-52.5t12-45.5q9-14 18-7 8 6 10 24t2 80q0 46 7 63.5t25 17.5q23 0 31.5-17.5t18.5-58.5q2-7 5-9t7 1q7 5 9.5 23.5t3.5 42.5q2 40 23.5 76.5t53.5 36.5q23 0 23-18t-16-44.5-30.5-50-8.5-31.5 27-2 39 6q23 0 23-18 0-25-32-47-21-15-52-22t-59-11.5-42-10.5q-6-3-2-9 6-10 32-10 12 0 27 1.5t28 1.5q21 0 31-5.5t10-16.5q0-25-31-36.5t-72.5-15.5-72.5-4q-44 0-62-2t-25-9q-4-4 0-10 5-7 24-9t42-2q33 0 73.5-7.5t40.5-35.5q0-31-36.5-46t-78.5-15q-64 0-127 21-28 9-46 0-4-2-6-6.5t2-10.5q8-10 34-15.5t56.5-9.5 50.5-9q19-5 32.5-14t13.5-28q0-26-32.5-42.5T1918 1080q-56 0-114 23t-90 23q-6 0-13.5-4t-7.5-13q0-15 25-25.5t57-20 57-23.5 25-37q0-25-24-40t-50-15q-35 0-68.5 20.5T1652 1010t-52 21q-20 0-20-15 0-9 6-16 12-16 37-30.5t51-29 38-31.5q6-8 6-19 0-20-16.5-28t-31.5-8q-32 0-66 21.5t-66.5 48-59.5 43-45 5.5q-10-6 4-28 11-18 37.5-37.5t54-39T1569 830q7-10 7-20 0-26-25-34.5t-49-8.5q-65 0-119 39.5T1329 911q0 16 6 33 8 22 8 29 0 5-3.5 9t-10.5 6q-23 6-39.5 23.5T1255 1055l-28-46q14-19 26.5-32t31.5-24q-6-23-6-44 0-56 30-100t79.5-69.5T1496 714q48 0 88.5 23t40.5 59q0 10-2 15 23-6 45-6 44 0 72 22t28 57q0 8-3 17 62 0 100 24.5t38 84.5q0 15-2 23 65 3 114.5 30.5t49.5 80.5q0 12-3 24 47 7 78.5 36.5t31.5 68.5q0 19-7 34 31 12 57 35.5t26 52.5q0 10-2 20.5t-6 18.5q31 22 49 45t18 48q0 26-14 41.5t-34 24.5q7 20 11 40t4 37q0 34-18.5 52t-44.5 18q-37 0-69-34t-46-74q-21 9-42 9-32 0-50.5-21.5T1976 1567q-21 10-42 10-25 0-48-16.5t-34-40.5q-34 60-83 111t-110 92q9 13 9 33 0 76-101.5 124t-266.5 48zM269 1691q17 0 32-15.5t26-43 15-63.5q2-22 3.5-38t8.5-20q6-4 12 8 7 13 10 31t11 32q9 14 28 14t26-18.5 7-67.5q0-32 2.5-63t9.5-37q8-8 19 7 12 16 14 47t16 51q11 15 29 15 12 0 22-7 15-11 19.5-42t5-68 3.5-66.5 13-37.5q7-5 13 5 6 9 11.5 41t13 65 19.5 47q11 12 25 12 24 0 33.5-30t12.5-123q2-68 6.5-97.5T750 1192q11-9 19 6 6 11 7.5 31t1.5 44q0 79 19.5 112.5T845 1419q35 0 48.5-43.5T907 1252q0-54-.5-100.5T922 1095q5-4 10 2 8 10 11 41t5 68q5 89 20 127.5t45 38.5q29 0 44.5-43t15.5-119q0-62-3-115.5t8-62.5q12-9 20 3 12 16 15.5 45t3.5 62q0 79 16 116t47 37q23 0 39.5-35t16.5-85q0-38-9.5-77t-27.5-64q-10-15-23.5-28.5T1143 988q-14-3-14-16 0-14 7-26.5t7-34.5q0-65-54.5-105T972 766q-26 0-51.5 10T895 808q0 11 8 22 13 17 40.5 37t54 39.5T1035 944q14 22 4 28-18 11-45-5.5t-59.5-43-66.5-48-66-21.5q-17 0-32.5 9T754 890q0 11 6 19 13 16 38.5 31t51 29.5T886 1000q5 7 5.5 16.5T884 1029q-23 8-54-12.5T763.5 972 689 948q-25 0-49.5 15t-24.5 40q0 16 16.5 30t44.5 23q29 10 58.5 17.5T775 1097q10 14-1 23-8 7-16 6.5t-20-4.5q-18-6-37-13.5t-38-12.5q-49-13-96-13-49 0-81 15.5t-32 40.5q0 21 15 29.5t31 12.5q20 4 49.5 8.5t53.5 9.5q41 9 41 24 0 6-7.5 11t-18.5 5q-8 0-35-6.5t-60-12.5-60-6q-44 0-77.5 14t-33.5 46q0 18 19 26.5t45.5 11 46.5 2.5q29 0 44.5 2.5t20.5 8.5q5 7 1 11-7 7-28 9t-79 2q-32 0-68.5 5t-62 17-25.5 34q0 13 12.5 18t30.5 5q14 0 28.5-1.5t25.5-1.5q14 0 23 3.5t9 9.5q0 3-3 5-27 13-71 20t-79 21-35 50q0 20 16.5 17.5t35.5-8.5 27 7q5 8-5 28.5t-22 45-12 43.5q0 26 22 26zm305-730q-45 0-75-23.5T469 871q0-25 11-49h-5q-45 0-74-22t-29-64q0-20 4-33-6 1-18 1-42 0-68-22t-26-59v-11.5l1-12.5q-57-5-103-30.5T116 500q0-41 31.5-60.5T222 420q8 0 16 .5t15 1.5q0-34 21.5-55.5T327 345q25 0 48.5 14t45.5 34q25-20 59-20 29 0 54.5 18.5T582 438q26-23 65-23 36 0 63.5 26.5T757 509q13-11 27.5-17.5T817 485q46 0 80 45t53 106q24-21 73-21 52 0 75.5 39t38.5 135l-56-26q-10-96-57-96-22 0-39.5 16T962 733h-48q0-47-14.5-92.5t-36.5-75-46-29.5q-40 0-40 62 0 30 5 68.5t5 71.5q0 26-9 26-31 0-31-58 0-63-13.5-118t-36-89-50.5-34q-36 0-36 46 0 29 12 70t12 76q0 19-7 19-14 0-25-38.5T578 549t-36-88.5-58-38.5q-39 0-39 33 0 25 16.5 57.5T478 559q0 9-6 9-9 0-22-26.5T420 481t-38-60.5-47-26.5q-32 0-32 16 0 27 14 49t14 36q0 3-6 3-10 0-36-13.5T226 471q-25 0-42.5 6.5T166 500q0 19 33 33.5t78 14.5q29 0 54-6t39-6q16 0 16 14t-18 19.5-36 15.5-18 38q0 30 38 30 32 0 77.5-17.5T502 618q21 0 21 20 0 16-25.5 26.5t-51 25.5-25.5 46q0 17 15 24.5t39 7.5q39 0 93-16t85-16q25 0 25 16 0 12-24 22t-55.5 22-55.5 29.5-24 45.5q0 23 15.5 32t39.5 9q34 0 82.5-13t92.5-27l-8 59q-48 14-96 22t-71 8zm674-264q-19 0-44-20.5t-51-41-50-20.5q-35 0-41 34l-51-11q13-53 67-73-19-29-30-58.5t-11-56.5q0-71 62-95-14-34-14-63 0-38 21-65t51-32q-3-17-3-34 0-39 17-67.5t48-38.5q0-51 20.5-84.5T1299-63q24 0 43 15 20-28 44.5-46t51.5-18q32 0 52.5 22.5T1511-35q0 25-11 50t-31 51q25 19 34 35.5t9 34.5q0 22-8.5 36t-23.5 31q20 9 35 30.5t15 44.5q0 35-31 69 33 8 52 32.5t19 53.5q0 20-13.5 43.5T1530 505q32 10 56.5 35.5T1611 598q0 11-2.5 22.5T1602 643l-61 5q21-29 21-47 0-21-21-35.5t-47-14.5q-30 0-62 20t-59 40-45 20q-14 0-14-12 0-16 31-38.5t72-48 72-51.5 31-48q0-17-13-30t-36-13q-22 0-47.5 14.5t-48 29.5-37.5 15q-14 0-14-14 0-11 23.5-29t54.5-39 54.5-42.5T1480 285q0-17-14.5-28.5T1434 245q-22 0-45.5 15t-42.5 15q-12 0-12-13 0-12 19.5-27t45-32 45-34 19.5-33q0-12-12.5-21t-29.5-9q-15 0-28 10t-27 10q-16 0-16-11 0-14 28-33.5t55.5-47.5 27.5-65q0-31-25-31-22 0-35 25t-24 49.5-27 24.5q-10 0-16.5-13t-14-25.5T1299-14t-22 17-9 36q0 25 13 53.5t25.5 53T1319 184q0 10-8 10-16 0-28-23t-24-45.5-28-22.5q-10 0-18.5 14.5T1204 156q0 35 26 76t51.5 75.5T1307 360q0 11-9 11t-25.5-19-35.5-44.5-36.5-44.5-30.5-19q-16 0-25 16t-9 34q0 28 22 60t51 63 51 57 22 41q0 10-9 10-19 0-45.5-30t-54.5-60-51-30q-19 0-27.5 14t-8.5 32q0 52 26.5 89t60.5 63.5 60.5 46T1260 685q0 12-12 12zm741 372-33-27q25-25 25-46 0-33-30-49.5t-60-26.5-30-21q0-16 31-16 26 0 44.5 9.5T1975 912t51 10q24 0 39.5-9t15.5-32q0-30-24-47.5t-55-28.5-55-20-24-21q0-16 29-16 34 0 83.5 16t89.5 16q54 0 54-35 0-30-25.5-45t-51.5-26-26-27q0-18 23-18 28 0 69.5 17t73.5 17q47 0 47-30 0-28-18-38.5t-36.5-16.5-18.5-18q0-14 16-14 14 0 35 6.5t46 6.5q52 0 80-16t28-35q0-17-13.5-22.5T2374 480q-31 0-58 13.5t-38 13.5q-5 0-5-7 0-11 12-33t12-37q0-12-6-18.5t-22-6.5q-25 0-46.5 26.5t-39.5 61-33 61-26 26.5q-7 0-7-13 0-15 20-47.5t20-57.5q0-28-33-28-36 0-59.5 38t-39 88.5-27 88.5-24.5 38q-8 0-8-11 0-35 11.5-79.5T1989 521q0-21-7.5-33.5T1953 475q-28 0-50 34t-35 89-13 118q0 58-29 58-15 0-15-28 0-32 5.5-70t5.5-68q0-31-11.5-46t-29.5-15q-24 0-46 31.5t-35.5 78.5-13.5 95q0 16 1.5 34t2.5 35l-48 2v-16q0-66-11.5-98t-43.5-32q-45 0-58 72l-51-23q11-45 39-72.5t70-27.5q39 0 63 18 19-61 53-105t80-44q19 0 34 5t28 15q20-41 46.5-65.5T1953 425q39 0 65 24 22-28 46-47t52-19q18 0 35.5 6t28.5 20q21-25 43-39.5t47-14.5q33 0 55 21t22 55q8-1 15.5-1.5t15.5-.5q43 0 74.5 19.5T2484 510q0 43-45.5 68.5T2337 609q1 4 1 11v13q0 37-26.5 58.5T2242 713q-12 0-18-1 4 13 4 33 0 41-29 63.5t-74 22.5h-5q11 25 11 50 0 42-28.5 66t-72.5 24q0 30-11.5 56.5T1989 1069z"/></svg>