<svg xmlns="http://www.w3.org/2000/svg" viewBox="-10 0 2610 2048"><path d="M805 1978q-96-67-150.5-154.5T600 1635q0-134 80-251.5T925 1150q35-35 72.5-87t78-107 84.5-101 90-68q-122-6-222-66T868.5 562 809 342q0-122 60.5-223t162-161 223.5-60q124 0 224.5 60T1640 118.5t60 223.5q0 139-78 254.5T1417 768q100 22 202.5 83.5t189 146.5 139 176.5T2000 1348q0 56-24.5 97t-60 75-71.5 68-60.5 76-24.5 100q0 69-41.5 107t-98.5 38q-18 0-38-5.5t-50-20.5q0 34-1 53.5t-3 41.5zm698-331q20-41 57-82.5t75-81 64.5-74 26.5-61.5q0-45-52.5-90.5T1529 1178q-20 73-38 155.5t-18 159.5q0 38 9 77t21 77z"/></svg>