<svg xmlns="http://www.w3.org/2000/svg" viewBox="-10 0 2610 2048"><path d="m1818 1976-80-4q2-19 3.5-58.5t3-77 1.5-49.5q0-29-1-55t-6-64q-1-14-31-41.5t-64.5-60-50.5-59.5q-20-35-33-86.5t-29-96-47-58.5l-42-19q-41-19-63-48.5t-22-69.5q0-52 44.5-80t108.5-28q45 0 85.5 14.5t74.5 42.5l23 19V562q0-51 36-86t88-35q65 0 117 61l-62 52q-27-33-55-33-19 0-31.5 12t-12.5 29v583q111 10 192 70.5t125 172.5l-76 28q-39-101-108.5-147t-174.5-46q-16 0-34.5-14t-38.5-36q-30-35-68.5-53.5T1510 1101q-73 0-73 28 0 30 37 46l42 19q56 25 79.5 77t35.5 106.5 32 89.5q18 31 53.5 59.5t67 60 35.5 71.5q5 41 6 69.5t1 59.5q0 36-1.5 78t-6.5 111zm-1500 2-80-8q8-79 12.5-134.5T255 1726q0-50-3-90-64-89-97-177t-29-160l34-587q4-65 40-104t91-39q57 0 99 40l-54 58q-19-18-45-18-46 0-51 67l-34 587q-4 62 28 141.5t96 162.5q2 27 3.5 56.5t1.5 62.5q0 57-4.5 115T318 1978zm464-2q-4-69-6-111t-2-78q0-31 1.5-59.5t5.5-69.5q5-40 36-71.5t66.5-60T937 1467q20-35 32-89.5t36-106.5 79-77l42-19q37-16 37-46 0-28-73-28-41 0-79.5 18.5T942 1173q-19 22-37.5 36t-35.5 14q-105 0-174.5 46T586 1416l-76-28q44-112 125-172.5t192-70.5V562q0-17-12.5-29T783 521q-28 0-55 33l-62-52q52-61 117-61 52 0 88 35t36 86v535l23-19q34-28 74.5-42.5t85.5-14.5q64 0 108.5 28t44.5 80q0 40-22 69.5t-63 48.5l-42 19q-30 14-46.5 58.5t-29 96-33.5 86.5q-16 27-50.5 59.5t-64 60T861 1668q-4 38-5.5 64t-1.5 55q0 12 1.5 49.5t3.5 77 3 58.5zm-465-908V561q0-61 37-99.5t95-38.5q62 0 106 49l-60 54q-20-23-46-23-52 0-52 58v507zm27 61-41-61q45-31 90.5-55t94.5-40V436q0-56 35.5-95t87.5-39q54 0 90 37.5t36 90.5v579q-104 0-202.5 28T344 1129zm224-177q22-5 44.5-8t44.5-4V430q0-20-12.5-34T611 382q-16 0-29.5 15.5T568 436zm474-607L847 96l61-50 195 248zm1240 1633q-8-79-12.5-137t-4.5-115q0-33 1.5-62.5t3.5-56.5q64-83 96-162.5t28-141.5l-34-587q-5-67-51-67-25 0-45 18l-54-58q42-40 99-40 56 0 91.5 39t39.5 104l34 587q5 72-28 160t-98 177q-3 40-3 90 0 54 4.5 109.5T2362 1970zM1260 258v-360h80v360zm772 694V436q0-23-13-38.5t-30-15.5q-21 0-33.5 14t-12.5 34v510q23 1 45 4t44 8zm224 177q-91-64-190-92t-203-28V430q0-53 36-90.5t90-37.5q52 0 87.5 39t35.5 95v537q50 16 95 40t90 55zm-53-61V561q0-58-52-58-26 0-46 23l-60-54q44-49 106-49 59 0 95.5 38.5T2283 561v507zm-645-723-61-51 195-248 61 50z"/></svg>