<svg xmlns="http://www.w3.org/2000/svg" viewBox="-10 0 2610 2048"><path d="m1694 1978-359-422 359-421h72v165h269q98 0 167-25t106-71 37-109q0-39-22-76l-179-312-288 163 256 451-72 35-294-517 428-240 220 382q31 53 31 114 0 39-18 87.5t-51 97.5l-266 390q-31 46-61 70.5t-71 33.5-106 9h-86v195zm-964-124q-79 0-137.5-43T488 1674l-207-425q-18-38-25-63t-7-49q0-32 11.5-66t39.5-84l45-78-170-96 37-63 544-104 187 522-36 62-141-80-129 228q-36 64-53.5 119.5T566 1601q0 69 46.5 121t116.5 52h363v-333H563l9-80h600v493zm-237-234q0-65 17-138.5t59-146.5l167-294 185 105-56 37-162-445-466 89-8-75 225 128-84 146q-23 40-32 66.5t-9 49.5q0 16 7 34.5t20 45.5l195 396zm1193 319v-236h163q54 0 82.5-4t47-19.5 42.5-50.5l241-353 53 24q-60 36-134 58t-152 22h-343v-211l61 24-310 363 307 360zM1038 650 596 433 788 37q35-72 100.5-105.5T1057-102h472q54 0 90.5 10.5t68 39.5 69.5 84l48 69L1966-9l40 61-145 534-551-59-41-60 137-93-154-224q-58-85-122-129t-126-44q-99 0-144 94L703 395l298 149 231-476 68 44zm764-151 127-461 54 38-198 136-90-131q-29-43-51-65t-47.5-30-67.5-8h-433l-5-47q69 22 125 64.5T1321 110l196 285-176 119-14-66z"/></svg>