<svg xmlns="http://www.w3.org/2000/svg" viewBox="-10 0 2610 2048"><path d="M1287 1380q-48 0-97.5-1.5T1077 1373t-151.5-12-214-20-301.5-30l6-80q226 22 369 36t232 21 149 9.5 119 2.5q35 0 64-20.5t43-56.5l83-212q41-103 69.5-182.5t47.5-147 32-133.5 21-142 14-174q3-48 6-94.5t6-87.5q5-68 47-110t107-42q77 0 128.5 57t51.5 147h-80q0-62-26-93t-74-31q-36 0-53 19t-21 61q-4 40-7 86.5t-5 96.5q-4 92-11.5 166t-20 141-33 138.5T1623 843t-74 196l-84 216q-22 57-70.5 91t-107.5 34zm-887 598v-80q86-5 180.5-10.5t187-10.5 174-8.5 143-5.5 91.5-2h39q63 0 141.5 1.5t155.5 3.5 134 2q159 0 252-35.5t133-117.5 40-222q0-51 3-115.5t10-95.5q5-19 13.5-65.5t15.5-100 7-91.5q0-62-26.5-100.5T2023 886q-24 0-34 13.5t-14 50.5q-11 111-27.5 188t-41 138-62.5 124l-68-42q35-58 58.5-120.5t38-135.5 22.5-162q6-66 36-100t86-34q80 0 131.5 61.5T2200 1025q0 42-7.5 99.5T2176 1231t-14 69q-6 25-8.5 84.5T2151 1495q0 162-50.5 262T1939 1902.5t-293 45.5q-58 0-135.5-2t-155.5-3.5-140-1.5h-39q-29 0-89.5 2t-141 5.5-173 8-188 10T400 1978zM1796 867l-76-26q38-110 60.5-218.5T1810 435q3-32 3.5-83t.5-97q0-108 33.5-157.5T1954 48q56 0 95 31.5t59.5 91.5 20.5 145v26.5l-2 29.5q-4 40-10.5 111T2105 625.5t-5 113.5q0 33 1.5 56.5t3.5 43.5l-80 10q-2-22-3.5-48.5T2020 739q0-44 5-117t11.5-145.5T2047 364q2-12 2-24v-24q0-92-24-140t-71-48q-37 0-48.5 25T1894 255q0 46-.5 99.5T1890 443q-7 76-31 190.5T1796 867z"/></svg>