<svg xmlns="http://www.w3.org/2000/svg" viewBox="-10 0 2610 2048"><path d="M1820 656q-96 115-225.5 256.5T1327 1191q-131 130-256.5 244T834 1636l-23-84q104-84 221-190.5t238-227.5q128-128 264-275t248-282zm-130-236q-82 67-183 155.5T1300 763t-204 197q-213 214-341.5 355t-186 225.5T511 1669q0 25 15.5 38.5T562 1721q22 0 37.5-15.5T615 1669t-14.5-36.5T566 1617q-16 0-31.5 8.5T507 1650l-15-22 47-88q15-3 28-3 54 0 90.5 38t36.5 93q0 56-38 94t-94 38q-54 0-91.5-35t-37.5-90q0-65 50.5-150T620 1339.5 814.5 1129 1039 904q93-92 192.5-185T1427 540.5 1602 389zm-179-81q-116 97-259.5 228T971 835q-197 197-341.5 350.5T406 1458t-79 215q0 60 33 111t87 82.5 116 31.5q66 0 117.5-31.5t81.5-84 30-114.5q0-83-53-147t-136-76l57-69q95 31 153.5 110.5T872 1667q0 60-22.5 117.5T781 1888q-45 45-102 67.5T562 1978q-84 0-155.5-42t-115-110.5T248 1678q0-115 86-250t236.5-295.5T914 779q143-143 293-279.5T1475 264zm456 419q-99 118-234.5 265.5T1452 1316q-115 115-234 223t-230.5 197.5T781 1888l-18-13 57-111q137-98 286.5-232t288.5-273q140-140 264-274.5T1882 732zm-130-25q-30-30-44-56.5t-22.5-73.5-22.5-139q-5-35 3-68.5t31-55.5q32-31 71-32.5t94 13.5q15 4 29 4 24 0 38.5-16t14.5-35q0-21-15-37t-30-16q-14 0-21 12.5t-11 25.5q-9 30-26 51.5t-39 43.5q-65 65-153 74.5t-176.5-29T1400 283q11-9 42-33.5t68.5-56 72-61.5 53.5-49q20-20 38.5-39T1709 9q111-111 247-111 74 0 144.5 33t127 89.5 90.5 127 34 145.5q0 57-20.5 109.5T2268 498q-13 13-30 29t-32.5 30.5T2178 584q-20 20-46 48.5t-53 58-51 54.5q-37 38-93.5 33.5T1837 733zm57-56q20 19 42.5 21.5T1975 685q11-11 40-43t60-66 46-49q17-17 45.5-43.5T2211 441q61-61 61-148 0-78-48-150.5T2103.5 24 1956-22q-103 0-191 88l-22 22-31 31.5-20 20.5q-36 40-74 72t-96 75q80 63 166 66t142-55q40-41 48.5-71.5T1914 169q30-30 71-30 50 0 86.5 42t36.5 94q0 54-38 91.5t-93 37.5q-26 0-51-7-38-11-57-11t-30 11q-17 17-12 53 12 83 18 123.5t16.5 60.5 32.5 43z"/></svg>