<svg xmlns="http://www.w3.org/2000/svg" viewBox="-10 0 2610 2048"><path d="m1052 1978-305-177q-46-26-66-71t-9-92q40-170 68-337t49-349.5T829 553l174-119 43 68-141 96q-18 207-39 385t-48.5 342.5T750 1656q-12 49 37 77l286 167h454l286-167q49-28 37-77-40-166-67.5-330.5t-48-342.5-39.5-385l-141-96 43-68 174 119q19 216 40 398.5t49 349.5 68 337q11 47-9 92t-66 71l-305 177zm45-58-78-19q27-236 44-430.5t24.5-367.5 7.5-342l79 4q0 172-8 348.5t-25 374.5-44 432zm406 0q-27-234-44-432t-25-374.5-8-348.5l79-4q0 169 8 342t24.5 367.5T1581 1901zM1104 813 832 635l44-67 252 167h344l252-167 44 67-272 178zm43-614q-31 0-51-9t-20-22 19-21 52-8q32 0 51.5 8t19.5 21-20 22-51 9zm153 196q-112 0-216-31.5T890 277l45-61q47 30 105 52.5t124 34.5 136 12 136-12 124-34.5 105-52.5l45 61q-91 55-194.5 86.5T1300 395zm0 196q-129 0-226.5-44.5T921 418.5 866 218q0-89 49-161.5T1061-59t239-43q141 0 237.5 43T1684 56.5t50 161.5q0 117-55.5 200.5t-153 128T1300 591zm0-78q165 0 259.5-79.5T1654 218q0-108-95-175t-259-67q-166 0-260 67t-94 175q0 136 93.5 215.5T1300 513zm0-396q-31 0-51-9t-20-22 19-21 52-8q32 0 51.5 8t19.5 21-20 22-51 9zm153 82q-31 0-51-9t-20-22 19-21 52-8q32 0 51.5 8t19.5 21-20 22-51 9z"/></svg>