<svg xmlns="http://www.w3.org/2000/svg" viewBox="-10 0 2610 2048"><path d="M1300 1978q-212 0-392-74.5t-314-208-208-312T312 996q0-140 35-269l67 63q-10 49-16 101t-6 105q0 194 68 358.5T650.5 1641t288 189.5T1300 1898q197 0 363-67.5t288.5-189.5 190.5-286.5 68-358.5q0-178-57.5-331.5t-162.5-272-248.5-193T1425 104l24-73q185 25 338.5 107.5T2054 349t174.5 292.5T2290 996q0 209-74.5 387.5t-208.5 312-314.5 208T1300 1978zm0-538q-83 0-178-9.5T914 1402l13-79q219 37 373 37 155 0 373-37l14 79q-112 19-207 28.5t-180 9.5zM959 968q-51 0-88.5-44.5T833 818q0-10 1.5-20t3.5-19l173-97q33 18 53.5 54.5T1085 818q0 61-37 105.5T959 968zM605 861q-116 0-201-50.5t-131-136T227 484q0-148 91-247.5T598 79Q710 45 781.5 8t124-63T1011-81q49 0 77.5 33t28.5 77q0 47-31.5 79t-81 57.5-104.5 52T797 280l-41-43q29-26 78.5-51T935 136.5t86.5-50T1057 34q0-22-13-36t-33-14q-19 0-44.5 9.5T885 32q-47 25-113.5 56T613 147q-165 49-238 130t-73 207q0 87 39.5 156.5t108.5 110T605 791q74 0 159.5-28.5T950 674l157-95q47-29 73-57t26-49q0-11-4.5-21t-11.5-18l43-46q24 10 36 33.5t12 51.5q0 35-37.5 81.5T1141 640l-158 95q-103 62-200 94t-178 32zm15-235-33-55q54-37 111-56.5T813 495q29 0 63.5 8t71.5 22l220-131q106-63 166.5-106.5t86.5-76 26-62.5q0-15-7.5-20.5T1424 122l4-58q38 4 63.5 27t25.5 56q0 43-28.5 83t-97.5 90-191 124L949 595q-43-19-78-27t-58-8q-50 0-97.5 17T620 626zm1022 342q-52 0-89-47t-37-108q0-62 37-104t89-42q51 0 88.5 44.5T1768 818q0 61-37.5 105.5T1642 968zM949 349l-47-34q30-37 89.5-77.5T1115 155t109-81.5T1269 0q0-16-9-26.5T1237-37q-13 0-43 17.5T1099 48l-30-52q79-62 114.5-80t63.5-18q37 0 62 28t25 67q0 56-45.5 102.5t-111.5 88-129.5 81.5-98.5 84zm110 61-38-36q35-37 100.5-78.5t134-87 116-93.5 47.5-96q0-20-9-29.5t-23-9.5q-23 0-68 42l-31-52q32-31 58-43t48-12q41 0 65.5 28t24.5 71q0 51-33.5 96.5t-86 86-111 77T1143 344t-84 66z"/></svg>