<svg xmlns="http://www.w3.org/2000/svg" viewBox="-10 0 2610 2048"><path d="M1300 1978q-171 0-326-53.5T688.5 1774 462 1546.5 313 1261t-53-323 53-323 149-285.5T688.5 102 974-48.5t326-53.5 326 53.5T1911.5 102 2138 329.5 2287 615t53 323-53 323-149 285.5-226.5 227.5-285.5 150.5-326 53.5zm480-507q110 0 174.5-72t69.5-198h98l-158-217-158 217h98q-4 77-34 114t-89 37q-62 0-92.5-46t-30.5-141V663q0-150-72.5-238T1388 337q-72 0-125.5 30.5T1175 457q-34-59-87.5-89.5T964 337q-128 0-199 85.5T694 663v728h120V663q0-105 37.5-155.5T965 457q73 0 112 53t39 153v728h120V663q0-206 151-206 74 0 112.5 52.5T1538 663v505q0 144 63.5 223.5T1780 1471z"/></svg>