<svg xmlns="http://www.w3.org/2000/svg" viewBox="-10 0 2610 2048"><path d="M1198 1978q-75 0-118-29.5t-43-84.5q0-23 11.5-48.5t23-48.5 11.5-36v-324q-130-14-231.5-94.5T713 1095L566 541h83l141 533q21 78 70 136t120 90 157 32h13l13-1v400q0 36-23 73t-23 60q0 15 17.5 25.5t63.5 10.5q44 0 67-9t24-22l28-593q43 0 99.5-26.5t120-61 127-62T1782 1098q6 38 21 76t40 78 62 85.5 87 98.5q38 40 63 70t27 53l12 109q3 26-9 54.5t-25.5 53-13.5 37.5q0 24 32 24 56 0 82.5-33.5T2187 1694q0-24-3-70t-9.5-115-16.5-160l87 46q9 88 15.5 173t6.5 126q0 106-48.5 163.5T2078 1915q-112 0-112-102 0-24 12.5-50.5t25-49.5 10.5-36l-13-120q-1-8-33-37.5t-77.5-77.5-87.5-110.5-63-137.5q-60 12-121.5 41.5T1500 1296t-105 48l-26 529q-2 46-47.5 75.5T1198 1978zm-391-63q-43 0-69.5-11t-26.5-35q0-29 26-51t52-52 26-82v-437l181 85-19 382q-5 103-43 152t-127 49zm-70-818-13-74 325-101 45 70zm852 801q-47 0-68.5-8t-21.5-27q0-20 18.5-39t40.5-41 31-50l24-78q15-48 8-81.5t-23.5-72-30.5-99.5-14-163l221-94 65 212q-7 160-33.5 271.5T1741 1810q-28 52-58.5 70t-93.5 18zM564 394q-16 0-28-16t-12-38 12-37.5 28-15.5q17 0 28.5 15.5T604 340t-11.5 38-28.5 16zM395 610q-25 0-49-8t-24-30q-72-23-117-79t-45-144q0-19 41.5-30t96-23 92.5-32q9-5 22.5-30.5t37.5-57 65-54.5 105-23l48 15 56-60q50-53 104-91.5T919-76q68 0 87 85t19 216q0 65-13 114.5T979 419l-143-64q62 0 85.5-31.5T945 225q0-76-7-127.5T925 19q-2-10-10.5-13T898 8q-26 16-56 43t-54 51q-39 39-52.5 70T717 229q-15-26-44.5-45.5T611 164q-43 0-79 30t-58 75-22 91q0 45 25 86.5t66.5 68T634 541l-40 69zm968 674v-232l-18-22V600l-44-16q2-44 21-67t43-23q35 0 46.5 31.5T1423 624v627zm-117-263q41 0 81.5-33t79-83 73-103.5 62-95.5 46.5-57h-197q-59 0-127.5-7T1153 625q-27 56-39 107t-12 94q0 79 38 137t106 58zM508 177q32-163 53-221t51-58q20 0 35.5 23T681 3t43 167q-27-13-54.5-20t-54.5-7q-54 0-107 34zm311 107q-14 0-25-11t-11-26q0-18 16-47t35.5-51.5T866 126q4 0 6 8t2 30q0 54-15.5 87T819 284zm1545 1205q-109 0-172-45.5t-94-140.5q-25-76-38-166.5T2034 964t-38-134.5-73-52.5q-42 0-90.5 32.5t-108 74.5-132 74.5T1431 991q-46 66-87 87t-98 21q-110 0-165.5-78T1025 831v-18q-52-55-95-117t-68.5-144.5T836 355l80 22 44-89q25 25 55 68.5t58.5 91.5 46.5 86q67 19 134 29.5t131 10.5q110 0 183 2t116.5 4.5 64.5 5.5q134 16 228.5 76.5t158 175.5 102.5 295q17 79 50 137t68 97 59.5 62.5 24.5 35.5q0 14-22.5 19t-53.5 5zm-909-944q-25 0-42.5-17.5T1395 486t17.5-41.5T1455 427q12 0 24.5 5.5T1508 456q0-26 14-41t33-15q18 0 31.5 13.5T1600 445q0 19-13.5 32.5T1555 491q-20 0-42-22 1 4 1 8v9q0 24-17.5 41.5T1455 545zm152-80-31-72 681-292 34 73z"/></svg>