<svg xmlns="http://www.w3.org/2000/svg" viewBox="-10 0 2610 2048"><path d="M743 1513q-136 0-253.5-34t-205-92T148 1255.5 99 1104q0-81 57-134.5T297 916q55 0 100.5-7t69.5-18l1137-546q18-8 40-26t48-42q99-91 207-135t212-44q118 0 205.5 49.5t136 135T2501 477q0 73-22.5 144T2415 746.5t-95 80.5l-1273 614q-71 34-145 53t-159 19zm-166 57q-53 0-113.5-44.5T384 1414l363 62q-26 42-71 68t-99 26zm306-28-81-48 104-33zm189 236q-83 0-142-59.5T871 1575q0-83 59-142t142-59q85 0 143.5 59t58.5 142q0 84-58.5 143.5T1072 1778zm59-107q27 0 46.5-20t19.5-47-19.5-46.5-46.5-19.5-47 19.5-20 46.5q0 28 19.5 47.5t47.5 19.5zm-493-565q-19 0-32.5-11.5T592 1067q0-30 39-30 18 0 32 11t14 25q0 13-11.5 23t-27.5 10zm177 104q-19 0-32.5-11.5T769 1171q0-30 39-30 18 0 32 11t14 25q0 13-11.5 23t-27.5 10zm6-188q-19 0-32.5-11.5T775 983q0-30 39-30 18 0 32 11t14 25q0 13-11.5 23t-27.5 10zm172 104q-19 0-32.5-11.5T947 1087q0-30 39-30 18 0 32 11t14 25q0 13-11.5 23t-27.5 10zm-250 307q72 0 136-15.5t133-48.5l1273-614q38-18 68.5-60.5t49-99.5 18.5-118q0-135-85-217t-225-82q-94 0-187 40.5T1746 336q-34 31-60 50.5t-48 30.5L501 963q-32 16-87 24.5T297 996q-52 0-85 30.5t-33 77.5q0 64 45 123t124 105.5 180.5 73.5 214.5 27zm865-807q-19 0-32.5-11.5T1562 587q0-30 39-30 18 0 32 11t14 25q0 13-11.5 23t-27.5 10zm177 104q-19 0-32.5-11.5T1739 691q0-30 39-30 18 0 32 11t14 25q0 13-11.5 23t-27.5 10zm379 499q-85 0-144-59t-59-144q0-84 59-143t144-59q83 0 143 59t60 143q0 85-60 144t-143 59zm57-107q27 0 46.5-20t19.5-47-19.5-46.5T2221 989t-47 19.5-20 46.5q0 28 19.5 47.5t47.5 19.5zm-430-580q-19 0-32.5-11.5T1745 503q0-30 39-30 18 0 32 11t14 25q0 13-11.5 23t-27.5 10zm172 104q-19 0-32.5-11.5T1917 607q0-30 39-30 18 0 32 11t14 25q0 13-11.5 23t-27.5 10z"/></svg>