<svg xmlns="http://www.w3.org/2000/svg" viewBox="-10 0 2610 2048"><path d="M1974 1523q-107 0-243-55.5t-282.5-157T1160 1071q-154-151-266-303T722 476.5 662 226q0-116 64-181 65-66 178-66 109 0 243.5 53.5t277.5 150T1701 409q151 147 263.5 306.5T2140 1025t63 268q0 109-60 169.5t-169 60.5zm-846 177q-99-31-200.5-88t-192-135T576 1306t-104-196l67-62q26 103 91.5 196.5t155.5 171 192 133 202 82.5zm-335 278q-80 0-169.5-44T436 1803q-108-96-162-187.5T220 1439q0-55 22.5-107t67.5-101l93-103q98-109 161-196.5t98.5-165 49.5-155T726 444l79 11q0 99-16.5 184T733 807 627.5 981 460 1184l-92 102q-35 39-53.5 77.5T296 1443q0 67 49 141t145 160q88 78 163.5 118.5T792 1903q47 0 87.5-21.5T957 1818l92-102q89-98 181-166t197.5-112.5T1659 1368l56 72q-134 23-236 62t-189.5 103-178.5 163l-96 104q-48 52-103 79t-119 27zm564-832 178-253q12-17 12-41 0-47-36-97t-88.5-85-100.5-35q-29 0-49 15l-242 167q72 91 153 173t173 156zm745-480-73-26q12-50 12-81 0-96-53.5-179T1847 246.5 1658 196q-13 0-26 1t-27 3l-15-76q14-3 31-4.5t36-1.5q92 0 175 35t147.5 96.5 101.5 140 37 165.5q0 59-16 111zm179 265-66-37q44-83 66-170.5t22-173.5q0-132-48.5-246t-136-199T1915-27.5 1664-75q-67 0-139 13t-133 37l-27-72q70-28 149.5-41.5T1667-152q150 0 279.5 53.5t227 149.5 152 223.5T2380 549q0 97-24.5 193T2281 931z"/></svg>