<svg xmlns="http://www.w3.org/2000/svg" viewBox="-10 0 2610 2048"><path d="M2065 1505q-111 0-252.5-58t-294-163.5T1218 1034q-160-157-276.5-315t-179-303T700 155q0-120 67-188 68-69 185-69 113 0 253 55.5t288.5 156T1781 346q157 152 274.5 318t183 322 65.5 279q0 114-63 177t-176 63zm-877 181q-104-32-210-91.5t-200-140T612.5 1277 506 1072l65-61q27 108 95 205t161.5 177.5 200 138T1238 1618zm-351 292q-84 0-177-45.5T465 1796q-112-100-168.5-195T240 1417q0-57 24-111t70-105l97-107q102-113 167.5-204T701 718.5t51.5-162T767 382l82 11q0 103-17 191.5T774 759 663.5 939.5 489 1150l-96 106q-36 40-54.5 81t-18.5 84q0 70 49.5 148.5T519 1737q92 81 171.5 122t145.5 41q49 0 92-21.5t82-64.5l96-106q92-102 187.5-173.5t204-118.5 240.5-73l58 75q-140 24-246 64.5t-197 107-186 170.5l-99 108q-49 55-107 82.5T837 1978zm586-866 186-263q12-17 12-43 0-48-37.5-100.5t-92-88.5-104.5-36q-29 0-51 15l-252 174q75 95 159 180t180 162zm912-383-76-27q21-69 21-151 0-103-37.5-199.5T2134 178q-77-84-182.5-130T1731 2q-62 0-112 12l-19-78q67-14 129-14 132 0 253.5 52.5T2192 123q80 87 124 197.5t44 232.5q0 88-25 176z"/></svg>