<svg xmlns="http://www.w3.org/2000/svg" viewBox="-10 0 2610 2048"><path d="M450 1978V68h1700v1434l-487 476zm80-80h1101v-430h439V148H530zM742 394q-33 0-57-24t-24-58q0-32 24-56t57-24q34 0 57.5 23.5T823 312q0 34-23.5 58T742 394zm331 0q-33 0-57.5-24T991 312q0-32 24.5-56t57.5-24q34 0 57.5 23.5T1154 312q0 34-23.5 58t-57.5 24zm-363-96q-18-53-18-118 0-121 60.5-201.5T907-102q147 0 201 184l-83 4q-7-57-41-89t-75-32q-66 0-108 63t-42 152q0 25 5 49.5t11 45.5zm694 96q-33 0-57-24t-24-58q0-32 24-56t57-24q34 0 57.5 24t23.5 56q0 34-23.5 58t-57.5 24zm-363-96q-19-55-19-118 0-121 61-201.5t155-80.5q147 0 201 184l-83 4q-7-57-40.5-89T1239-35q-65 0-107 63t-42 152q0 25 5 49.5t11 45.5zm694 96q-33 0-57-24t-24-58q0-32 24-56t57-24q34 0 57.5 24t23.5 56q0 34-23.5 58t-57.5 24zm-363-96q-18-57-18-118 0-121 61-201.5t155-80.5q146 0 200 184l-83 4q-7-57-40.5-89T1571-35q-66 0-108 63t-42 152q0 25 5 49.5t11 45.5zm331 0q-18-57-18-118 0-121 61-201.5t155-80.5q75 0 128 50.5t76 155.5l-87-18q-7-57-40.5-89T1902-35q-66 0-108 63t-42 152q0 25 5.5 49.5T1769 275zM714 1978v-80h1356V261h80v1717zm992-147 295-293h-295zM490 611v-58h1611v58zm0 276v-58h1611l5 58zm0 276v-58h1616v58zm0 276v-58h1616v58zm0 277v-59h1175v59z"/></svg>