<svg xmlns="http://www.w3.org/2000/svg" viewBox="-10 0 2610 2048"><path d="M2000 1904q-159 42-311 58t-277 16q-269 0-464.5-67T646 1717.5 540 1415q0-209 121-416t332-367v90q-177 142-280 326t-103 367q0 155 97 265.5t277 169 428 58.5q148 0 292.5-18.5T1982 1837zm-579-128q-68 0-154-6t-175.5-20.5-170-41.5-137.5-69v-215l203-195 52 53-180 172v144q54 32 126 52t150 31 152 15.5 134 4.5 134.5-4.5T1708 1681t150-31 126-52v-144l-181-172 52-53 204 195v215q-57 42-137.5 69t-170.5 41.5-176 20.5-154 6zm0-183q-62 0-144-5t-170-19-168.5-39-139.5-64l39-60q54 36 128 59t156 35.5 160 17.5 139 5 139-5 160-17.5 156-35.5 128-59l39 60q-59 39-139.5 64t-168.5 39-170 19-144 5zm10-332v-70q-112 0-212.5-11t-177.5-35v74q81 21 181.5 31.5T1431 1261zm0-182v-70q-112 0-212.5-11T1041 963v74q81 21 181.5 31.5T1431 1079zm0-182v-70q-112 0-212.5-11T1041 781v74q81 21 181.5 31.5T1431 897zm-10 467q-142 0-243-19t-199-64V471l441 62 443-62v810q-99 45-199.5 64t-242.5 19zm10-649v-70q-112 0-212.5-11T1041 599v74q81 21 181.5 31.5T1431 715zm-8-292q-138 0-259-17t-211.5-45T812 302l26-61q45 28 131.5 54t203.5 42 250 16q134 0 249.5-16t201.5-42 131-54l26 61q-49 31-139.5 59t-210 45-258.5 17zm-2 146q-122 0-237-16t-198-44L783 311V33q47-35 140.5-65.5t222-50T1423-102q150 0 277 19.5t220 50T2060 33v279l-205 197q-82 28-197 44t-237 16zm0-75q112 0 215.5-13.5T1815 442l170-152V74q-76-39-223-70t-339-31-340.5 31T858 74v217l168 151q75 25 179 38.5t216 13.5zm0-245q-122 0-242.5-16.5T959 183t-158-80l35-58q46 39 136 69t207 47.5 242 17.5q126 0 243-17.5t207.5-47.5T2006 45l35 58q-56 47-155.5 80T1665 232.5 1421 249zm2-136q-57 0-97.5-11.5T1285 69q0-20 40.5-31.5T1423 26t97 11.5 40 31.5q0 21-40 32.5t-97 11.5z"/></svg>