<svg xmlns="http://www.w3.org/2000/svg" viewBox="-10 0 2610 2048"><path d="M1367 849q-28 0-53.5-1t-59.5-3v-60q40 4 111 4 135-1 256-31.5t214-83 146-120 53-142.5q0-87-77-158t-211-112.5-305-41.5q-123 0-233.5 22.5t-196 61-134 87.5T829 374q0 79 116.5 129t297.5 50q174 0 281.5-47T1632 386q0-50-46.5-84.5T1453 267q-80 0-121.5 19t-41.5 44q0 17 18.5 28t49.5 11h12v52q-7 1-14.5 1.5t-14.5.5q-54 0-92.5-29t-38.5-71q0-54 71-93.5t183-39.5q88 0 160 28t114.5 73.5T1781 392q0 69-68 125.5t-189 90-280 33.5q-160 0-285.5-34.5t-197-93T690 382q0-76 59-143.5T912.5 119t242-81.5T1449 8q206 0 361 51.5T2052 200t87 203q0 99-67 180.5t-179.5 141-249 92T1367 849zm-711 367q-129-47-211.5-137.5T328 844l58-15q29 121 102 206.5T676 1161zm293 762q3-29 40-62t104-33q11 0 23.5 1t25.5 5q24-35 60-57t76-22q84 0 141 25 35-24 81-40t101-16q116 0 182 81 74 0 126.5 32.5t62.5 85.5zm430-133-91-18q69-74 111.5-168t42.5-173q0-26-4.5-50t-10.5-45l72-37q12 43 18 74.5t6 57.5q0 85-35.5 171.5T1379 1845zm235 29-118-26q58-23 114.5-73t99.5-110.5 59-115.5l92-50q-13 105-81.5 205T1614 1874zm-130-470q-126 0-225.5-33T1095 1251q-142-24-210-85t-95-180l89-4q14 90 68.5 133t190.5 68q35 72 132 110.5t215 38.5q58 0 113.5-8t95.5-24l18 56q-43 20-100 34t-128 14zm-231-331q-182 0-304.5-27.5t-198-72.5T635 874t-55.5-108.5T561 666q-49-38-80.5-95T449 452q0-89 66-163t177-118.5T936 126L807 229q-59 0-124 31.5t-109.5 82T529 452q0 45 27.5 91.5T630 615q0 92 37 164t116 122 204 76 301 26q47 0 110.5-2.5T1534 993l6 62q-154 18-287 18zm380 511-9-59q123-15 177-56.5t54-117.5q0-50-25-97 14-14 21-32.5t7-36.5q0-53-48-94l57-63q70 55 70 142 0 46-21 91 19 41 19 83 0 109-70.5 165.5T1633 1584zM498 76l-32-53q105-57 220-89t236-36l3 59Q793-33 688.5-3.5T498 76zm912 1149-3-60q202 0 304-54t102-167q0-32-3-69 85-46 119.5-96t42.5-138l72-41q2 9 2.5 21.5t.5 23.5q0 81-43 158t-116 113q3 24 3 44 0 130-125.5 197.5T1410 1225zm702-128-39-45q140-122 140-302 0-7-.5-14t-1.5-14l59-5q2 8 2 16v16q0 211-160 348z"/></svg>