<svg xmlns="http://www.w3.org/2000/svg" viewBox="-10 0 2610 2048"><path d="M1904 1828q-130 0-252-34t-240.5-84-237-100.5T933 1525t-255-34q-128 0-270.5 32.5T124 1624V230Q283 129 428.5 88.5T696 48q130 0 252 34t240.5 84 237 100.5T1667 351t255 34q128 0 270.5-33T2476 252v1394q-159 100-304.5 141t-267.5 41zm-633-445v-80h-89v-66h89v-93q-66-12-110.5-66T1116 953q0-55 33-104l-48-48-66 65-47-47 65-65-79-79v82h-72V553h205v72h-81l79 78 64-64 46 47-63 64 49 49q23-16 50.5-25.5t57.5-9.5q54 0 98 27l167-166h-81v-72h205v205h-72v-83l-165 164q39 50 39 114 0 71-44.5 125t-110.5 66v93h91v66h-91v80zm36-315q47 0 80-34t33-81q0-46-33-79t-80-33q-46 0-78.5 33t-32.5 79q0 47 32.5 81t78.5 34zm597 680q119 0 239-34t253-113V372q-238 93-474 93-136 0-263-34t-248-84.5T1172 246t-236-84-240-34q-118 0-238.5 34T204 275v1229q238-93 474-93 136 0 263 34t248 84 239 100.5 236.5 84.5 239.5 34z"/></svg>