<svg xmlns="http://www.w3.org/2000/svg" viewBox="-10 0 2610 2048"><path d="m523 1205-53-60q65-57 132.5-99.5T742 974q62-26 131-46.5t136-36.5q77-19 148.5-40t138.5-50q168-73 294.5-177.5T1837 355q65-90 141.5-158.5T2140 81l5 20q-23-6-45.5-9t-45.5-3q-76 0-130 13t-104 42q-115 66-196.5 93T1453 264q-52 0-100-15t-103-50.5-130-96.5Q1001 4 811 4 693 4 593 23T391 83L361 9q107-44 216-64.5T811-76q120 0 209 32.5T1171 40q77 63 142 103.5t140 40.5q95 0 171.5-31.5T1780 75q64-37 130.5-50.5T2054 11q66 0 138 18t132 62q-136 37-240.5 121.5T1902 402q-104 143-236.5 263T1328 874q-71 31-147 53t-153 42q-66 16-131.5 35.5T772 1048q-67 27-128.5 65.5T523 1205zm55 773q-43 0-49-43L277-50q-3-23 10.5-37.5T327-102q20 0 32 10t14 29l252 1985q3 24-10.5 40t-36.5 16z"/></svg>