<svg xmlns="http://www.w3.org/2000/svg" viewBox="-10 0 2610 2048"><path d="M464 1659q-149 0-236.5-37t-87.5-99q0-35 36.5-77.5t84-86T344 1279t36-61q0-12-13-24.5t-26.5-27T327 1136q0-26 20-61.5t46-74.5 46-74 20-59q0-23-21.5-46.5T416 770q0-25 23.5-46.5T494 674t53-71l18-35q88-170 217-255t301-85q107 0 200.5 51T1448 420t111 208 40 252q0 105-18.5 198t-53.5 151-85 58q-40 0-70-24-45 43-75 82t-49 71q-31 53-60.5 89.5t-57.5 55-57 18.5q-34 0-72.5-12.5T930 1540q-141 66-245 92.5T464 1659zm532-347q-32-68-50.5-156.5T921 980q-74 48-157.5 86T589 1122l-13-78q106-21 212-76.5T985 838q0 56 8 134.5t26 159 47 142.5zm-532 267q78 0 144.5-11t142-39 179.5-77q98 47 143 47 17 0 44-35.5t67-95.5q35-53 84.5-112t112.5-116q11 30 28 48.5t33 18.5q18 0 36-49.5t29.5-125T1519 880q0-118-34-221.5T1391 476t-139-123.5-169-44.5q-295 0-446 296l-22 43q-24 47-50.5 66.5t-44.5 30-18 29.5q0 25 18.5 46.5T539 867q0 20-20 57t-46 79-46 76.5-20 48.5q0 18 26.5 41.5T460 1218q0 33-36 76.5t-83.5 88.5-84 82.5T220 1523q0 13 36.5 26t93 21.5T464 1579zm817-588q-75-70-123-173t-64-201q-88 55-187.5 97T721 773l-20-77q74-15 161-49t161.5-73 112.5-68q0 31 13.5 84.5t39.5 116 63 122.5 83 104zm-704 459-54-59q123-102 218-226.5t168.5-262T1042 625t110-272q53-137 105-254.5T1366-102l66 46q-54 78-108 190t-108 247q-33 83-67.5 173.5T1079 740q-72 193-200.5 379.5T577 1450zm1757 448h31q-33-48-55-93.5t-32.5-91.5-10.5-94q0-34 4.5-73t9-79 4.5-75q0-92-37.5-164.5t-102-115T2000 1070q-73 0-131 36t-91.5 99-33.5 144q0 84 32 156l135 4-62 129q46 75 123 133.5t171 92.5 191 34zm19 80q-126 0-244.5-43.5t-211-120.5-140.5-177l32-59-64 2q-28-44-44.5-106t-16.5-125q0-103 44-184t120-128 172-47q103 0 185.5 53t131 144 48.5 205q0 60-9 119.5t-9 107.5q0 68 17 114.5t39.5 78 39.5 54.5 17 46q0 34-31.5 50t-75.5 16zm-464-571-51-41q35-44 69.5-75t98.5-78q46 15 74.5 26.5t50.5 23.5 49 30l-35 58q-30-21-59-36.5t-74-31.5q-37 29-64 56.5t-59 67.5zm170 173q-66-156-91-346t-25-388h75q0 225 27.5 401t82.5 306zm134-1066q-42-45-107.5-95.5T1946 321t-144.5-82.5T1678 189l20-56q57 14 130.5 49t150 83 145 101T2240 469zm244 256q-74-19-109.5-26.5T2246 729l-105-18q-162-28-253.5-109.5T1796 398q0-80 36.5-144t99-101.5T2070 115q77 0 147 44.5T2341.5 280t86.5 172.5 32 200.5q0 32-5 57t-18 60zm-58-97q0-29-3-57-7-86-35.5-162t-71-134-94-91.5T2070 195q-82 0-138 58.5T1876 398q0 91 72 153t205 82l105 16q29 4 56 9.5t65 14.5zm-347-184q-7-37-9-69t-2-103q49-11 87.5-15.5t75.5-4.5v60q-19 0-48.5 1.5T2081 364q0 67 9 111z"/></svg>