<svg xmlns="http://www.w3.org/2000/svg" viewBox="-10 0 2610 2048"><path d="M1636 1696q-69-95-118.5-168.5t-89-144-78.5-154-86-197.5q81-33 128.5-50.5t76.5-28 51.5-20T1573 908q66 122 138 226t140.5 176.5T1974 1413q-61 77-149.5 140T1636 1696zM259 1577q47-65 109.5-123T528 1339q58-34 118-44t93 8q0 38-38.5 85t-97.5 82q-101 59-185 78.5T259 1577zm626 401q14-100 21-177.5t7-147.5q0-72-7-147t-21-172q74 13 142 13t141-13q-14 96-21 170.5t-7 148.5q0 71 7 148.5t21 176.5q-73-14-141-14t-142 14zm-74-763q-47 22-120 4.5T549 1155q-114-78-182-158T251 829q92 16 193.5 47T664 990q67 47 108 109.5t39 115.5zm74 44q14-97 21-171.5t7-146.5-7-147-21-172q74 13 142 13t141-13q-14 96-21 170.5t-7 148.5q0 73 7 147.5t21 170.5q-73-14-141-14t-142 14zm761 344q74-56 117.5-89t68.5-53.5 42-37.5q-56-46-114-115.5T1647 1157t-101-161q-45 22-91.5 39.5T1354 1072q35 81 65.5 146.5t63 125.5 72 122.5T1646 1603zm-478-344-67-25q29-204 108.5-381T1410 538l50 46q-115 129-190 298.5T1168 1259zm234-226q-13-31-32-75.5t-37-90.5-29-79l48-28q11 35 29.5 81.5t38 92 33.5 78.5zm-108-213-21-63q45-20 110-32t132-12v66q-63 1-122 12t-99 29zM885 542q14-97 21-171.5t7-146.5q0-71-7-148.5T885-102q74 13 142 13t141-13q-14 99-21 176.5t-7 149.5q0 73 7 147.5t21 170.5q-73-14-141-14t-142 14zm1464 420q-81 12-170 20t-192.5.5T1758 941q-107-29-187.5-87.5T1477 734q43-45 142.5-55.5T1824 697q179 50 302 115.5T2349 962zm-950-379q-5-76 54.5-167.5T1610 256q115-81 218.5-126t199-68.5T2212 23q-70 129-168.5 245.5T1780 498q-100 69-206.5 93.5T1399 583z"/></svg>