<svg xmlns="http://www.w3.org/2000/svg" viewBox="-10 0 2610 2048"><path d="M1300 1978q-392 0-592.5-91.5T450 1590l-95-343q-17-63-41-89t-81-45q-94-32-135-77.5T57 915q0-76 28-143.5T157.5 662t94.5-42q28 0 61.5 11.5T389 667q154-111 328-177.5t382-85.5l17 80q-211 19-386 87T394 761q-49-31-84-46t-58-15q-26 0-53 33t-44.5 82.5T137 915q0 46 25.5 72.5T258 1037q77 25 114 65.5t60 123.5l95 343q49 175 230.5 253t542.5 78q362 0 543-78t230-253l95-343q23-83 60.5-123.5T2342 1037q70-23 95.5-49.5T2463 915q0-50-17.5-99.5t-44-82.5-53.5-33q-22 0-57.5 15t-84.5 46q-125-99-266.5-161T1629 509t-377-29l112-77q251 6 461 71.5T2211 667q42-24 75.5-35.5T2348 620q50 0 94.5 42t72.5 109.5 28 143.5q0 75-40.5 120.5T2367 1113q-57 19-81 45t-41 89l-95 343q-57 205-257.5 296.5T1300 1978zm-270-872q35 0 62.5-9.5t27.5-20.5q0-50-48-85t-116-35q-40 0-66 18t-26 46q0 17 27.5 37.5t66 34.5 72.5 14zm282-31q39 0 62.5-12t23.5-31q0-70-90-70-22 0-45 24t-23 46q0 19 20.5 31t51.5 12zm311 32q29 0 54-28t25-59q0-44-63-44-25 0-53.5 16.5t-49 39-20.5 41.5q0 18 25 26t82 8zm-337-510q-115 0-188-61t-73-160q0-76 58-139.5T1298 105l60-26q87-38 119-60.5t32-47.5q0-35-33-73 115 0 188 59.5t73 158.5q0 76-58 139.5T1464 387l-60 26q-87 37-119 60t-32 48q0 38 33 76zm-101-107q0-39 42.5-72.5T1370 341l60-26q130-56 178.5-101t48.5-100q0-43-22.5-73.5T1577 2q0 39-42.5 72T1392 151l-60 26q-130 56-178.5 101T1105 378q0 43 23 73.5t57 38.5zM502 933q0-71 64-134t175-112 255-77 304-28 304 28 255 77 175 112 64 134q0 70-62 132t-171.5 108.5-254.5 73-310 26.5-310-26.5-254.5-73T564 1065t-62-132zm80 0q0 44 50 88 20-41 84-79t157.5-68 204-47.5T1300 809t222.5 17.5 204 47.5 157.5 68 84 79q50-44 50-88 0-50-61-98.5T1792.5 747t-231-62-261.5-23q-133 0-261 23t-231.5 62T643 834.5 582 933z"/></svg>