<svg xmlns="http://www.w3.org/2000/svg" viewBox="-10 0 2610 2048"><path d="M1233 1978q-127 0-254.5-5T725 1954q-141-16-232-52t-141.5-102.5-71-173.5-20.5-266q0-181 19.5-358.5T347 668t134.5-276T701 203.5t322-68.5q188 0 327.5 69.5t236.5 190T1743.5 668t86.5 321.5 27 332.5q0 42-2 102.5t-7.5 119-17.5 96.5q-31 100-115.5 176.5t-208.5 119-273 42.5zm-291-257q-184 0-288-29.5T507.5 1590 465 1390q0-23 1.5-40t5.5-47l72 28q-3 25-3.5 38.5t-.5 25.5q0 101 34 155.5t121 75.5 247 21q43 0 98-1.5t144-8.5l26 47q-74-8-102-78.5t-28-249.5h76q0 154 15 211.5t55 57.5q46 0 68.5-60.5T1317 1392q0-121-14.5-170t-54.5-49q-22 0-33 16.5t-16 56.5q-8 61-25.5 97.5t-49 52.5-82.5 16H606q-77 0-114-34.5t-37-97.5q0-88 65.5-142t171.5-54h496q80 0 124 27t61.5 94 17.5 187q0 116-24.5 186t-81.5 102-156 36q-56 2-104 3.5t-83 1.5zm99-383q39 0 58-24t27-88q5-41 22.5-73t63.5-41l25 47H692q-78 0-120.5 32t-42.5 89q0 23 21.5 40.5T607 1338zm192 560q126 0 197-26.5t103-80.5 40-137.5 8-198.5q0-537-167.5-801.5T899 389q-182 0-293 67T437.5 650 360 956t-20 404q0 147 14 241.5t54.5 150 118.5 83 205 41.5q90 9 184.5 14t178 6.5 138.5 1.5zm270 7-47-25q130-44 204.5-109t101.5-153q10-32 14-89t5-115 1-92q0-152-24-309.5T1680 711t-142.5-257-216-179-299.5-66q-101 0-196.5 31.5t-174 89T522 466l-66 14q96-92 202-131.5T896 309q376 0 568 290t192 856q0 117-11.5 199.5t-44 141.5-97.5 109zM1031 820l-268-4q-16 0-25-10t-9-26V643q0-35 33-35l268 2q38 0 38 34v141q0 35-37 35zm717 942 35-74 55-185q49-48 81-86t70-90l20 68 199-4q-68 112-132.5 182.5t-142 113.5-185.5 75zM528 394q-27-44-38.5-82.5T478 237q0-107 79.5-177T767-10q62 0 101.5 31.5T956 153q-159 30-260 92.5T528 394zm1674 1227q-23 5-28-19l-42-215 124-13 52 196q6 24-18 30zm-224-187-21-284 362-25 21 284zm69-80 211-17-11-133-211 17zM1350 207l-124-42-24-164-142-2-32 148-112 9 43-194 111-64h133l112 92zm684 988q0-114-18-245t-53.5-261.5-88-243.5T1753 255q-32 29-54.5 52t-44.5 53.5-53 80.5l-267-223q95-135 186-202.5T1696-52q57 0 119.5 19.5T1931 15t79 55q63 64 126 183.5T2240.5 543t41.5 386q0 93-18.5 158t-56.5 103z"/></svg>