<svg xmlns="http://www.w3.org/2000/svg" viewBox="-10 0 2610 2048"><path d="M958 1317q0-252-38-440.5t-118-327T594 310l66 17q-72 0-117-30t-45-67q0-28 27.5-47t66.5-19q48 0 87 31.5t39 69.5l379 122q118 63 216 130.5T1475 650q131 130 193.5 273t62.5 316l-77 5q0-165-56.5-295T1415 698q-120-115-295-212T683 304l18-2q170 157 253.5 406.5T1038 1317zm13 661q-133 0-243-64.5t-175-173-65-240.5 65-240.5 175-173 243-64.5q100 0 187.5 37t154 103 104 152.5T1454 1500q0 132-65 240.5t-174.5 173T971 1978zm0-80q112 0 203-53.5t145.5-144T1374 1500t-54.5-200.5-145.5-144-203-53.5q-111 0-202.5 53.5t-146 144T568 1500t54.5 200.5 146 144T971 1898zm37-507q-57 0-109.5-22.5T809 1301l59-51q27 32 62 48t75 16q20 0 52-6.5t61-19.5l36 66q-34 19-71 28t-75 9zm644 487q-98 0-184.5-38.5T1318 1734l54-59q53 57 125 90t155 33q105 0 191-51.5t137.5-138T2032 1417t-51.5-192.5T1843 1085t-191-52q-109 0-199 56.5T1314 1235l-66-40q59-107 166.5-172.5T1652 957q127 0 231.5 62t166.5 166.5 62 231.5-62 231.5-166.5 167T1652 1878zm63-571q-65 0-123.5-28t-93.5-81l61-47q29 40 69 59t85 19q49 0 99-19l30 69q-60 28-127 28zm-568-985q175 0 334.5-76.5T1786 16l15 35q-139-38-247.5-55.5T1347-22q-211 0-375.5 70.5T699 252l-14-34q126 52 240 78t222 26zm0 78q-118 0-247-30.5T633 278l-18-47Q729 68 916.5-17t430.5-85q104 0 230 20.5T1898-8q-123 145-240.5 235t-242 131.5T1147 400z"/></svg>