<svg xmlns="http://www.w3.org/2000/svg" viewBox="-10 0 2610 2048"><path d="M1654 1058q73 0 150-21t151-59q62-32 119-80t108-106q80-92 124-211t44-237q0-97-30-177t-86-135q-66-65-148-99.5T1912-102q-137 0-265 59t-229 159.5T1258 344t-59 264q0 82 33.5 165t91.5 145q65 69 148.5 104.5T1654 1058zM430 1964q14 14 29 14 16 0 27.5-11.5T498 1937q0-20-16-40l349-353q8 3 16 3 17 0 26-10.5t9-27.5q0-32-23-65t-55.5-55.5T742 1366q-16 0-28.5 9t-12.5 25q0 10 6 19l-352 357q-15-15-34-15-16 0-28 12t-12 27q0 14 11 25zm330-421 564-568-53-53-563 569zm525-468 126-125-121-118-124 120zm443-34 42-42-512-533-30 54zm261-114 42-42-657-658-42 42zm-430 97 758-751-43-42-757 751zm95-40q-77 0-146-29.5T1376 865q-46-44-74-113.5T1274 611q0-121 53.5-235t144-205.5 205-145T1912-28q77 0 146 29t125 84q45 43 68.5 110.5T2275 343q0 106-40.5 213T2123 745q-44 51-95.5 95T1918 913q-73 36-138.5 53.5T1654 984zm-386-279 745-735-42-42-745 735zm110 201 846-826-42-42-847 826zm789-164 42-42-656-649-42 42zm114-237 42-42-538-529-42 42zM250 231q0-67 48-113.5T413 70l531-10q62-2 103.5 41t41.5 101q0 33-15 60.5t-38 49.5L704 628q-37 34-68.5 49.5T568 693q-47 0-88.5-32T421 580q-58-10-96.5-55.5T286 419q0-35 15-68-51-53-51-120zm60 0q0 46 34 78l459-117q3-37 26-70l-416 8q-43 1-73 30t-30 71zm36 188q0 38 21.5 63t59.5 34l387-259-3-8-450 115q-15 33-15 55zm129 135q11 33 36.5 56t56.5 23q23 0 44-11t52-39l256-240q-20-5-38.5-14.5T848 305zm383-352q0 36 26 62t62 26 62-26 26-62q0-35-26.5-61T946 115t-61.5 26-26.5 61z"/></svg>