<svg xmlns="http://www.w3.org/2000/svg" viewBox="-10 0 2610 2048"><path d="M1300 1978q99 0 214-6t229-16 210-23 157-27q-11-55-20.5-147t-15-196-5.5-194q0-164 7-329t22-331q-41-63-70-181.5t-44-271T1969-61q-45-12-117.5-21T1706-96.5t-122-5.5q-78 65-138 90.5T1300 14q-85 0-145.5-25.5T1016-102q-48 0-121.5 5.5T749-82 631-61q0 165-15 317.5t-43.5 271T502 709q15 166 22 331t7 329q0 90-5.5 194t-15 196-20.5 147q61 14 157 27t210 23 229 16 214 6zm-738-258q122-66 271-155t309.5-194.5T1463 1149t306.5-237T2035 672q-23-67-45-134.5t-37.5-141T1931 239q-135 150-301.5 293T1281 807.5 917 1060t-348 224q0 44-.5 100t-1 116.5-2 117T562 1720zm738 178q-116 0-249.5-7T793 1871.5 581 1843q9-61 15.5-141.5T607 1534t4-165q0-162-8.5-318.5T580 731q36-59 60.5-145.5T680 398t21.5-203.5T708 3q41-7 92.5-12.5T902-18t86-4q55 53 138 74.5T1300 74t174-21.5T1612-22q36 1 86 4t101.5 8.5T1892 3q0 93 6.5 196t21.5 203 39.5 185 60.5 144q-14 163-22.5 319.5T1989 1369q0 78 4 165t10.5 167.5T2019 1843q-88 16-212 28.5t-257.5 19.5-249.5 7zm0-1443q152 0 258.5-59.5t165-175T1788-64l-60-5q-7 108-33 194t-76 146-128.5 92-190.5 32-190.5-32T981 271t-76-146-33-194l-60 5q7 169 65 284.5t164.5 175T1300 455zm0-164q111 0 182.5-49t109-133T1638-81q-75 54-153 85.5T1300 36 1115 4.5 962-81q10 106 47 190t108.5 133 182.5 49z"/></svg>