<svg xmlns="http://www.w3.org/2000/svg" viewBox="-10 0 2610 2048"><path d="M1140 1222q-295 0-468-53T424.5 993 350 661q0-165 59-304t165.5-242 251-160 314.5-57 314.5 57 251 160T1871 357t59 304q0 209-74.5 332t-247 176-468.5 53zm0 678q121 0 228-27t178.5-69 84.5-88l80-275q-107 52-253.5 79.5T1140 1548t-317.5-27.5T569 1441l80 275q14 46 85 88t178.5 69 227.5 27zm0 78q-140 0-262-31.5t-204-86T572 1738l-104-358q-55-37-89-120.5T345 1068q0-73 21.5-122.5T434 859l37 70q-25 25-35.5 56t-10.5 83q0 67 18.5 124.5T490 1294q45 51 148.5 90.5T875 1447t265 23 265-23 237-62.5 148-90.5q28-44 46.5-101.5T1855 1068q0-52-10.5-83t-35.5-56l37-70q46 37 67.5 86.5T1935 1068q0 108-33.5 191.5T1812 1380l-104 358q-20 68-102 122.5t-204 86-262 31.5zM583 563q18 0 30.5-13t12.5-31q0-17-13-30t-30-13q-18 0-31 12.5T539 519t13 31 31 13zm148 101q23 0 39-16.5t16-38.5q0-23-16-39t-39-16q-22 0-38.5 16T676 609q0 22 16.5 38.5T731 664zm-48-201q18 0 30.5-13t12.5-31q0-17-13-30t-30-13q-18 0-31 12.5T639 419t13 31 31 13zm192 45q28 0 47-19.5t19-47.5q0-27-19.5-46.5T875 375q-28 0-47.5 19T808 441t19.5 47.5T875 508zm150 36q20 0 34-17t14-39q0-23-14-39.5t-34-16.5q-21 0-35 16.5T976 488t14 39.5 35 16.5zm115 600q206 0 343-24t217.5-79.5 115-148.5 34.5-231q0-148-53-272.5T1648.5 172t-225-143T1140-22 856.5 29t-225 143T483 388.5 430 661q0 138 34 231t114.5 148.5 218 79.5 343.5 24zM738 265q17 20 47.5 19t56.5-23q25-21 31.5-50.5T863 161q-16-21-46.5-20T760 164q-25 21-31.5 50.5T738 265zm521 402q22 0 37-15.5t15-37.5-15-37.5-37-15.5-37.5 15.5T1206 614t15.5 37.5T1259 667zM945 304q17 0 29-12.5t12-29.5-12-29.5-29-12.5-29.5 12.5T903 262t12.5 29.5T945 304zm328 441q-56 0-99-17.5t-82.5-35T1003 675q-41 0-84.5 13t-88 25.5T741 726q-57 0-114-24t-105-59.5-80-71.5-40-60l47-192L634 96 880-48l260-15 260 15 246 144 185 223 47 192q-35 61-87.5 78.5t-115.5 21-132 23.5q-46 13-84 39.5t-81 49-105 22.5zm-223-604q23 0 39.5-17t16.5-40-16.5-39.5T1050 28t-40 16.5T993 84t17 40 40 17zm599 446q25 0 42-17.5t17-42.5-17-42.5-42-17.5-42.5 17.5T1589 527t17.5 42.5T1649 587zm-126-184q18 0 30.5-13t12.5-31q0-17-13-30t-30-13q-18 0-31 12.5t-13 30.5 13 31 31 13zm277 9-97-128 457-359 95 127z"/></svg>