<svg xmlns="http://www.w3.org/2000/svg" viewBox="-10 0 2610 2048"><path d="M897 1728q-156 0-179-119h-31q-154 0-243.5-47.5T354 1439q0-47 42.5-87.5T536 1268q73-32 122.5-77.5T738 1083l82 14q-42 88-101.5 145.5T570 1340q-68 31-102 55t-34 44q0 24 36 44.5t96 33 131 12.5q22 0 43-1t54-5q-1 11-1.5 19.5t-.5 16.5q0 48 22.5 68.5T897 1648q72 0 164-37l86-35q20 28 53 50t100 22 100.5-23.5 52.5-47.5l86 34q93 37 164 37 59 0 82-20.5t23-67.5v-17.5l-2-19.5q30 4 52.5 5t44.5 1q112 0 187.5-28t75.5-62q0-19-26.5-36.5T2046 1360q-88-34-155.5-98.5T1790 1115l74-30q27 67 82.5 120t127.5 81q61 23 98.5 46.5t55.5 49.5 18 57q0 50-41 88.5t-116.5 60T1909 1609h-27q-23 119-179 119-90 0-194-43l-32-13q-62 56-177 56t-177-56l-32 13q-104 43-194 43zm405 250q-76 0-116.5-19.5T1145 1900q0-38 21.5-68.5t21.5-79.5v-80h228v80q0 49 21.5 79.5t21.5 68.5q0 39-40 58.5t-117 19.5zm-66-733q-58 0-106-36.5t-97-118.5q-59 20-127.5 28t-117.5 8q-76 0-143-25.5t-108-67-41-88.5q0-51 44.5-93.5T679 766l26-12q94-43 135-79t41-75h80q0 70-58 125.5T711 840q-66 29-100.5 55.5T576 945t33 46.5 82 39 97 15.5q83 0 160-16t120-43q33 85 76 131.5t92 46.5q42 0 98.5-28.5T1440 1066t67-83q45 25 133 44t166 19q60 0 119-14.5t98-36 39-43.5q0-15-33-37.5t-92-47.5q-119-50-187-125t-68-157h80q0 63 41 110t127 82l39 16q91 37 132 75t41 84q0 48-45 87.5t-121.5 63T1806 1126q-46 0-119-12t-151-32q-35 46-86.5 82.5t-108 58.5-105.5 22zm405-350q-22-20-42.5-40.5T1560 809l48-43q22 26 41.5 46t36.5 35zm-825 524-36-56q20-11 42.5-27t48.5-38l39 51q-22 19-45.5 36t-48.5 34zm674-973q-22-20-42-41t-39-45l48-43q22 26 41.5 46t36.5 35zm-204 48q-7-28-14-55t-13-55l65-15q11 63 25 105zm47 230q40 0 66.5-47t33.5-140q46 12 113.5 20.5T1663 566q56 0 90-20t34-48q0-29-37-62.5t-92.5-75T1545 268q-71-65-117.5-132t-76-112.5T1300-22q-14 0-37.5 30.5t-54 77.5-65.5 98-73 92q-59 64-118 106.5t-98 72-39 55.5q0 20 47 38t113 18q80 0 179-33 23 80 73.5 135.5T1333 724zm0 80q-65 0-127-48.5T1108 622q-31 8-69 14.5t-72 6.5q-100 0-166-36.5T735 510q0-49 44-90t108.5-87.5T1012 221q44-48 80.5-103.5t69-105.5 66-82 72.5-32q40 0 69.5 27.5t59 73 69 100.5T1598 208q59 53 121.5 99.5t105 92.5 42.5 98q0 67-57.5 107.5T1663 646q-37 0-81-4t-82-12q-19 83-62 128.5T1333 804zM893 942l-26-61q22-8 47-20t54-29l30 57q-25 16-51.5 28.5T893 942zm135 575-59-30q11-20 23-45.5t23-56.5l60 24q-8 29-20.5 55t-26.5 53zm561-62q-14-27-26.5-53t-20.5-55l60-24q11 31 23 56.5t23 45.5z"/></svg>