<svg xmlns="http://www.w3.org/2000/svg" viewBox="-10 0 2610 2048"><path d="M1079 1557q-96-31-152.5-117T870 1235q0-20 2-42t8-53l-299 296q-30-58-47-128t-17-140q0-137 64.5-247.5T760 740l-342-5q-3-23-3-43 0-113 60.5-197t158-131T840 317q93 0 180 35-4-27-4-61 0-178 111.5-285.5T1424-102h26.5l22.5 2-34 338q72-71 157.5-109T1773 91q104 0 190 51t132 140l-345 248q17-2 25.5-2.5t15.5-.5q182 0 288 106t106 284q0 88-24 170l-743-213zm521 195q-46 0-83.5-5.5T1447 1730l21-66q57 18 127 18 31 0 68.5-3t84.5-10l10 70q-46 7-85.5 10t-72.5 3zm-106-231v-69q72 0 128.5-7.5t84.5-20.5l29 63q-31 14-75.5 21.5t-89 10-77.5 2.5zm95 457q-130 0-186-28.5t-56-110.5q0-60 21-117.5t42-129.5 21-175q0-105-26-201.5t-88-206.5l53-71q74 123 107.5 237.5T1511 1417q0 80-12.5 142.5T1469 1672t-29.5 90.5-12.5 76.5q0 23 10 36t44.5 18 107.5 5q98 0 123.5-9t25.5-25q0-311-60-559.5T1490 862l105 6q223 387 223 996 0 69-57.5 91.5T1589 1978zm-111-686-3-71q49 0 94-13t76-35l40 60q-39 26-95 42.5t-112 16.5zm-63-201-2-70q44 0 86.5-12.5T1573 975l40 59q-37 25-90.5 41t-107.5 16zm-372 359 333-671 724 207q5-37 5-69 0-145-82-227.5T1774 607q-16 0-39.5 1t-37.5 3l-59-100 347-249q-82-91-212-91-42 0-90 13t-113 53.5T1413 359l-64-36 36-343q-78 0-144 39t-105.5 109-39.5 163q0 38 6 70.5t22 65.5l-47 36q-50-31-115-48.5T840 397q-90 0-164 34t-121 92.5T497 656l409 6 3 91q-84 23-155 84T640 984t-43 184q0 63 15 125l353-353 45 31q-37 58-48.5 118T950 1224q0 79 24.5 136t68.5 90zm395-571-275-79q-34-10-50.5-25t-16.5-31q0-20 21-28t52 2l140 44-75-144q-19-35-12.5-59t29.5-24q14 0 25.5 8.5T1301 577l84 163 24-112q10-44 20-61t28-17q24 0 31 24t-1 66z"/></svg>