<svg xmlns="http://www.w3.org/2000/svg" viewBox="-10 0 2610 2048"><path d="m520 1345-49-62q126-101 233-162t208.5-88.5T1124 1005q91 0 172.5 18.5t160.5 42 161 42 173 18.5q97 0 209-36.5T2230 967L2000 47q-88 76-207.5 124T1526 219q-103 0-191.5-28t-171-64.5T996 62 815 34q-98 0-208 55T375 266l-13-94Q472 67 585 10.5T815-46q105 0 193 28t169 64.5 165.5 64.5 183.5 28q148 0 269-56.5T2046-102l274 1099q-57 49-140 97.5t-182.5 80T1791 1206q-126 0-236.5-30t-215.5-60.5-215-30.5q-99 0-190.5 25T743 1192t-223 153zm49 633q-17 0-32.5-11t-19.5-42L281 82q-4-34 13-49.5T332 17q17 0 30.5 10.5T380 67l236 1843q5 37-11 52.5t-36 15.5zm-100-913-23-227q90-68 164-105t146-61l34 214q-88 31-160 72.5T469 1065zm360 68-39-247q50-17 105.5-27t111.5-10q23 0 48 1t54 3l32 200-162-8zM422 636l-28-211q83-69 152.5-106T690 259l33 207q-88 28-156 68T422 636zm334 36-33-206q45-14 99-21.5t114-7.5q21 0 50 2t58 5l32 203q-52-6-91-6-71 0-128.5 9T756 672zm633 236q-93-22-163-36.5T1109 853l-33-206q62 7 132 21.5t143 31.5zm336 283-297-73-39-210q62 15 132.5 25.5T1677 944zM690 259 656 42 783-3l196 37 34 214q-40-7-77.5-10.5T867 234q-48 0-93 7t-84 18zm624 238q-73-17-137-30t-133-23l-31-196q60 10 123 25t143 36zm323 240q-70 0-149-11.5T1351 700l-37-203q58 13 133.5 25t149.5 12zm40 207-40-207q56 0 123-10t140-35l44 206q-69 22-136 34t-131 12zm319 199-52-245q57-20 119-49t147-84l52 221zm-436-797q-89 0-158.5-12T1279 309l-29-158 280 43zm37 188-37-188q67-2 131.5-18t121.5-40l43 198q-54 21-124 34.5T1597 534zm303 158-44-206q51-21 113-57t124-86l53 224q-56 37-117 68t-129 57zm-87-404-28-131L2002 0l37 144q-65 53-118.5 85.5T1813 288z"/></svg>