<svg xmlns="http://www.w3.org/2000/svg" viewBox="-10 0 2610 2048"><path d="M493 1978q-36 0-78.5-24t-80.5-62-62-80-24-79q0-48 29-70t68.5-41.5T417 1564q-31-83-41-130.5t-10-96.5q0-115 34.5-231.5T500 877t155-212q130-144 208-241.5t112.5-161T1010 158q0-44-23.5-65T915 72q-51 0-110 37 7-56 41.5-100t87-69.5T1047-86q81 0 136.5 36.5T1273 64q26-42 50.5-88.5T1362-102q59 43 98.5 105.5T1516 148q20-82 79.5-132T1734-34q26 0 45 3.5t35 11.5q27-33 71.5-53t90.5-20q75 0 123.5 50T2148 79q0 66-29 112 37 47 37 121 0 81-44 145t-111 79q2 7 2.5 14t.5 15q0 19-7 44t-14 43l-115 33q31-36 45-74t14-76q0-21-5-54 74-13 114-57t40-113q0-36-13.5-67t-35.5-55q41-54 41-102 0-49-26.5-74T1974-12q-43 0-78.5 26T1840 77q-62-31-101-31-71 0-113.5 55T1578 251q-13-1-25-1.5t-25-.5q-102 0-150.5 49.5T1329 452v25q-28-4-46-4-94 0-140 41t-46 117q0 38 10 87-119 0-166 51.5T894 909q0 50 10 82-89 4-132.5 46T728 1164q0 43 18 90-19 14-29.5 39.5T706 1348q0 26 9 53t28 50l356-307q200-173 390-293t382-177q95-28 149.5-42.5t96.5-20 97-5.5q43 0 75 5t63 14q-100 70-163 117.5t-108.5 86T1984 912h8q89 0 155 46.5t66 130.5q0 74-39.5 126t-104.5 63q-7-58-27.5-79t-53.5-21q-31 0-74 22t-110 73-170 139l-130 111q-138 118-241.5 186t-192.5 97-184 29q-54 0-114.5-9T659 1801q-34 34-53 75.5t-42 71.5-71 30zm-3-79q18 0 34-29.5t39.5-73T625 1711q77 23 140 33.5t121 10.5q84 0 163-26.5t174.5-90T1450 1464l130-111q126-108 199.5-162.5t121-73.5 94.5-19q39 0 69.5 14t50.5 41q18-37 18-64 0-50-48-75.5T1944 988q-40 0-82 6t-82 17q68-80 151.5-158T2145 682q-185 38-348 105.5T1476.5 958 1150 1206l-416 357q-53-45-80.5-103T626 1351q0-59 33-110-6-31-8.5-48.5T648 1153q0-89 47.5-152.5T818 924q-1-9-1.5-20t-.5-22q0-59 28.5-111.5t76-85.5 104.5-33q-3-18-3-36 0-59 29-108.5t77.5-79T1234 399q7 0 13.5.5t13.5 1.5q-1-5-1-10v-10q0-70 51-129.5t127-71.5q-6-37-20-77t-37-71q-31 78-69.5 119.5T1228 210q-13-55-35.5-104.5T1132 25t-96-31q-36 0-66 19 61 14 90.5 50t29.5 95q0 40-19.5 88.5T1007 360 890 514 710 724q-85 96-144 198.5T476.5 1130 446 1338q0 47 12 96t50 145q-47 62-88.5 89.5t-67 40T327 1738t18.5 44 45.5 54 54 45 45 18zm430-571q52-50 76.5-105.5T1021 1115q0-36-14-81 95-2 149-45.5t54-134.5q0-40-11-76 32 5 57 5 76 0 115-36.5t39-109.5q0-43-13-92h19q116 0 165.5-38.5T1631 373q0-14-.5-26.5T1629 321q51-3 80.5-7.5t52-15T1813 268q-23 49-23 89 0 22 9 37-85 37-119 87t-34 133q0 43 9 69h-26q-108 0-179 65t-71 164q0 10 1.5 24t2.5 25z"/></svg>