<svg xmlns="http://www.w3.org/2000/svg" viewBox="-10 0 2610 2048"><path d="M2249 1978q-34 0-77-58.5t-75-158-32-223.5q0-55 2-116t4.5-120 2.5-107q0-144-47-280.5T1896 660t-197.5-207T1450 313.5 1169 263q-54 0-123 3.5T903 274t-145.5 7.5T626 285q-59 0-120-13.5t-112-38-82.5-58T280 102q0-23 11.5-37T322 51q22 0 63 19 44 20 111.5 40.5T689 131q64 0 133-5.5t135.5-13 125.5-13 102-5.5q172 0 329 55.5T1802 305t228 233.5T2180.5 829t53.5 326q0 82-4 145t-7.5 120.5-3.5 124.5q0 95 18 167t36 123q11 32 17 54.5t6 39.5q0 22-13 35.5t-34 13.5zM889 1685l-317-316q78-94 144-154t124.5-89 111.5-29q54 0 100.5 29.5t74.5 78 28 104.5q0 84-67 178.5T889 1685zm4-109q182-151 182-266 0-53-37.5-93t-86.5-40q-52 0-120.5 48T682 1365zm-229-250L350 185l76-20 313 1133zm1553 599L940 1595l34-74 1263 327zM681 1632l-55-57L1946 227l56 56zM2143 296l70-289-293 73q4 64 14 96.5t34 55.5l17 16q24 23 59.5 34t98.5 14zm62 83q-81-2-131.5-8.5t-83-21.5-61.5-42l-17-16q-42-39-58-95.5T1838 18l482-120z"/></svg>