<svg xmlns="http://www.w3.org/2000/svg" viewBox="-10 0 2610 2048"><path d="M1300 1978q-316 0-551-107t-364-302.5T256 1110q0-194 75.5-350.5T546 492t330.5-170.5T1300 262t423.5 59.5T2054 492t214.5 267.5T2344 1110q0 263-129 458.5T1851.5 1871 1300 1978zm105-248q-18 0-31.5-12.5T1360 1686q0-27 28.5-55t56.5-28q18 0 31.5 12.5t13.5 30.5q0 27-28 55.5t-57 28.5zm-803-560q-17 0-27.5-13t-9.5-31q32-351 309-513 17-10 32.5-5.5T930 629q16 34-13 51-245 143-272 451-3 39-43 39zm698 730q295 0 511.5-97.5t334.5-275 118-417.5q0-232-119.5-405t-336-269-508.5-96-508.5 96-336 269T336 1110q0 240 118 417.5t334.5 275T1300 1900zm528-448q-19 0-32-12.5t-13-31.5q0-28 25-57.5t53-29.5q20 0 33 12t13 32q0 28-25 57.5t-54 29.5zm-510-810q-66 0-106-30.5t-40-79.5 40-79 106-30q65 0 104 30t39 79-39 79.5-104 30.5zm678 495q-22 0-34-15.5t-12-38.5q0-31 17.5-59t45.5-28q25 0 36 16t11 38q0 30-17.5 58.5T1996 1137zm-624-651-110-10q1-11 1.5-21.5t.5-20.5q0-103-7.5-164.5t-29-102T1165 87q0-23 32-39.5t78-16.5q45 0 66 28.5t27 115 6 259.5v26zm520 341q-19 0-31-13.5t-12-33.5q0-27 18.5-54.5T1912 698q42 0 42 46 0 28-17.5 55.5T1892 827zm-312-602q-114 0-262-50 85-143 188-210t231-67q114 0 259 51-83 139-182.5 207.5T1580 225z"/></svg>