<svg xmlns="http://www.w3.org/2000/svg" viewBox="-10 0 2610 2048"><path d="M1453 1081q-257 0-382.5-121.5T945 590q0-160 76.5-287.5T1229 101t296-74q166 0 296.5 74t206 201.5T2103 591q0 184-75 291t-220 153-355 46zm-307 611q-17 0-29.5-12.5T1104 1650t12.5-29.5 29.5-12.5 29.5 12.5 12.5 29.5-12.5 29.5-29.5 12.5zm-8 286q-151-61-319.5-85T497 1859q28-67 82-116.5t124.5-87T853 1585t157-67q92-41 153.5-81.5t90.5-95 23-135.5l542-19q9 121-12.5 220t-83.5 172-176 118q-123 48-198.5 84t-123 80-87.5 117zm-55-73q31-55 85.5-99.5t120.5-79 130-56.5q132-46 200-99.5t92-132 24-197.5l35 32-449 13 36-32q-7 106-67 172t-152 110q-65 31-143 64t-153.5 68.5-133.5 75-83 85.5l-43-45q71 3 170 15.5t197.5 34T1118 1886zm238-296q-17 0-29.5-12.5T1279 1567t12.5-29.5 29.5-12.5 29.5 12.5 12.5 29.5-12.5 29.5-29.5 12.5zm146-111q-17 0-29.5-12.5T1425 1456t12.5-29.5 29.5-12.5 29.5 12.5 12.5 29.5-12.5 29.5-29.5 12.5zm83-173q-31 0-31-35v-274l72-4v278q0 19-11 27t-30 8zm-408-769q-16-4-24-19.5t-2-36.5q26-90 85-161.5T1342 219q18-11 35-7.5t26 19.5q8 14-1 29t-31 28q-136 79-180 226-7 22-20 34t-29 8zm311 445q207 0 332.5-41T1967 829t56-238q0-139-65-248.5T1780.5 170 1525 107q-142 0-255.5 63t-179 172.5T1025 590q0 214 102 312.5t326 98.5zm-74-944-32-105q-7-22-2-35t24-17q26-6 39 5t18 28l30 102zm1 833q-25 17-49.5 9.5T1296 875q-8-14-9-36.5t23-44.5q-9 0-24-6-25-10-33.5-36.5t2.5-46.5q9-17 27.5-31.5t49.5-3.5q21 8 31 23 3-9 8-20 14-27 40-28t41 10q16 10 23 32.5t-5 42.5q-6 10-16 17 21-1 49 19 16 11 16.5 33t-7.5 35q-7 13-31 22t-49-4q-7-4-12-11t-8-12q0 15-6.5 31.5T1380 890zm23-95q3-32 27-40-19 3-35-5.5t-23-21.5q2 26-18 46 17 0 29.5 7t19.5 14zm322-265q11-22 25.5-24.5t30.5 4.5q-13-12-12-26t8-24q-33 0-48-22-2 13-10.5 24t-25.5 16q16 9 23.5 23.5t8.5 28.5zm66 122q-33 4-54.5-20.5T1715 570q-6 15-29 29.5t-50 14.5-47-28q-21-31-2.5-65t49.5-44q-52-17-59.5-58t8.5-61q26-32 69-19.5t60 47.5q1-49 34.5-66t53.5-9q46 19 46 58.5t-21 60.5q39-13 63 7.5t22 43.5q-4 36-27 48.5t-58 12.5q30 44 10.5 75.5T1791 652z"/></svg>