<svg xmlns="http://www.w3.org/2000/svg" viewBox="-10 0 2610 2048"><path d="M1300 1978q-96 0-173.5-19T981 1897l-546-346q-62-40-91-100.5T315 1296V607q0-99 25.5-172T420 308.5 559 215l602-285q36-17 72-24.5t67-7.5q32 0 67.5 7.5T1439-70l602 285q86 40 139.5 93.5t79 126.5 25.5 172v689q0 94-29 154.5t-91 100.5l-546 346q-68 43-145.5 62t-173.5 19zm-251-311q-36 0-69-25t-54-64-21-81q0-41 19-64t53-23q38 0 72.5 25t56.5 64.5 22 81.5q0 40-21 63t-58 23zm96 206q47 0 79.5-34t32.5-113v-669q0-59-20.5-94t-72.5-66L536 528q-49-29-78-29-33 0-47.5 36T396 647v649q0 77 18 118t64 70l554 351q60 38 113 38zM664 963q-36 0-69-25t-54-64-21-81q0-41 19-64t53-23q38 0 72.5 25t56.5 64.5 22 81.5q0 40-21 63t-58 23zm887 704q-37 0-58-23t-21-63q0-42 22-81.5t57-64.5 72-25q34 0 53 23t19 64q0 42-21 81t-54 64-69 25zm-96 206q53 0 113-38l554-351q47-29 64.5-70t17.5-118V647q0-76-14.5-112t-47.5-36q-29 0-78 29l-628 369q-52 31-72.5 66t-20.5 94v669q0 79 32.5 113t79.5 34zm292-561q-37 0-58-23t-21-63q0-42 22-81.5t57-64.5 72-25q34 0 53 23t19 64q0 42-21 81t-54 64-69 25zm-447-453q23 0 46-8t51-24l624-366q36-21 54-42.5t18-42.5q0-23-22.5-46t-69.5-45L1399-2q-28-14-52-19.5t-47-5.5-47 5.5T1201-2L599 285q-46 22-69 45t-23 46q0 21 18 42.5t54 42.5l624 366q28 16 51 24t46 8zm0-323q-89 0-153-45.5T1083 381t63.5-109 153.5-45 153.5 45 63.5 109-64 109.5-153 45.5zm636 427q-37 0-58-23t-21-63q0-42 22-81.5t57-64.5 72-25q34 0 53 23t19 64q0 42-21 81t-54 64-69 25z"/></svg>