<svg xmlns="http://www.w3.org/2000/svg" viewBox="-10 0 2610 2048"><path d="M434 1978q-70 0-122-51t-52-121V71q0-71 51.5-122T433-102h1734q71 0 122 51t51 122v1734q0 70-51 121.5t-122 51.5zm207-326q14 0 23.5-10t9.5-23q0-14-9.5-23.5T641 1586q-13 0-23 9.5t-10 23.5q0 13 10 23t23 10zm384 181q15 0 25-10.5t10-25.5q0-14-10.5-24.5T1025 1762q-15 0-25.5 10t-10.5 25 10.5 25.5 25.5 10.5zm-561-595q16 0 26.5-12t10.5-28-11-27.5-26-11.5q-16 0-27 11.5t-11 27.5 11 28 27 12zm230 8q12 0 20.5-9t8.5-21q0-11-9-20t-20-9q-12 0-21 8.5t-9 20.5 9 21 21 9zm371 247q25 0 43-18.5t18-43.5-18.5-43-42.5-18-42.5 18-18.5 43 18 43.5 43 18.5zm317 278q9 0 16.5-11.5t16.5-34.5l22-56 84-7q29-3 29-17 0-12-25-34l-54-45 15-79q3-14 3-23 0-14-14-14-9 0-26 10l-67 40-67-40q-17-10-26-10-14 0-14 14 0 9 3 23l15 79-54 45q-25 22-25 34 0 14 29 17l84 7 22 56q9 23 16.5 34.5t16.5 11.5zm-450-592q29 0 50.5-21t21.5-51q0-29-21.5-50t-50.5-21-50.5 21-21.5 50q0 30 21.5 51t50.5 21zM556 849q9 0 25-16l55-56 74 24q9 3 19 3 20 0 20-14 0-6-10-27l-33-71 42-57q19-27 19-37 0-14-20-14-5 0-15 2l-83 14-36-50q-14-20-23.5-28t-17.5-8q-10 0-14.5 13.5T550 566l-8 61-81 27q-24 7-24 22 0 7 8.5 13t24.5 14l63 32 5 79q2 35 18 35zm1214 687q20 0 33-14t13-33-13.5-32.5-32.5-13.5-33 13-14 33q0 19 14 33t33 14zm-748-691q5 0 11-4.5t11-11.5l37-52 63 10q32 5 32-10 0-7-11-24l-36-55 28-51q12-21 12-30 0-14-16-14-2 0-6.5.5T1136 606l-65 22-35-36q-13-14-20.5-19.5T1001 567q-15 0-15 46v50l-64 32q-17 8-17 20t31 22l55 17 12 63q5 28 19 28zm-682 719q92-83 192-126.5t203.5-65T944 1337t207.5-34.5 200-64T1538 1114l35-32q70-64 130-147.5T1816 767t101.5-153 94.5-104q48-37 103-60t145-37V301q-106 16-181 45.5T1947 420q-60 47-107.5 115t-94 147T1642 841.5 1506 994l-35 32q-93 85-199.5 123.5t-221 55-234 34T577 1297t-237 130zM755 443q26 0 45.5-20t19.5-48q0-26-19.5-45.5T755 310q-28 0-48 19.5T687 375q0 28 20 48t48 20zm830 754q15 0 25-10.5t10-25.5q0-14-10.5-24.5T1585 1126q-15 0-25.5 10t-10.5 25 10.5 25.5 25.5 10.5zm474 418q14 0 19-28l12-63 55-17q31-10 31-22t-17-20l-64-32v-50q0-46-15-46-7 0-14 5.5t-21 19.5l-35 36-65-22q-6-2-10.5-2.5t-6.5-.5q-16 0-16 14 0 9 12 30l28 51-36 55q-11 16-11 21 0 14 21 14 9 0 13-1l61-10 37 52q5 7 11.5 11.5t10.5 4.5zM1089 484q18 0 31.5-13t13.5-32-13.5-32-31.5-13q-19 0-32.5 13t-13.5 32 13.5 32 32.5 13zm159 109q16 0 26.5-11t10.5-27q0-15-11-26t-26-11q-16 0-27 10.5t-11 26.5 11 27 27 11zm-908 620q91-82 188-121.5t198.5-56 204-27 204-31.5 199.5-69 189-142l31-32q113-117 181-224t120.5-192.5T1971 182q52-41 125.5-68T2260 71q0-36-27-63t-58-27q-78 19-145 49t-114 67q-60 47-103 107t-84.5 131-96 150.5T1494 652l-31 32q-81 83-169 126.5t-181.5 63-190 30-194.5 26T532.5 980 340 1087zm0-869q101-91 207-131t216.5-55 223-27.5T1213 86t226-108h-228q-108 34-217.5 47T774 52t-218.5 49.5T340 217zm645-83q12 0 21-9t9-21-9-20.5-21-8.5-21 8.5-9 20.5 9 21 21 9zm663 494q12 0 20.5-9t8.5-21q0-11-9-20t-20-9q-12 0-21 8.5t-9 20.5 9 21 21 9zm211 356q9 0 26-10l67-40 67 40q17 10 26 10 14 0 14-14 0-10-3-23l-15-79 54-45q25-22 25-34 0-14-29-17l-84-7-22-56q-9-23-16.5-34.5T1952 790t-16.5 11.5T1919 836l-22 56-84 7q-29 3-29 17 0 12 25 34l54 45-15 79q-3 13-3 23 0 14 14 14zm-447-630q9 0 16.5-11t16.5-35l22-56 84-7q29-3 29-17 0-12-25-34l-54-45 15-79q3-14 3-23 0-14-14-14-9 0-26 10l-67 40-67-40q-17-10-26-10-14 0-14 14 0 9 3 23l15 79-54 45q-25 22-25 34 0 14 29 17l84 7 22 56q9 23 16.5 34.5T1412 481zm673 222q22 0 38.5-17.5T2140 645q0-21-17-38t-38-17q-23 0-40.5 16.5T2027 645q0 23 17.5 40.5T2085 703zm-416-519q18 0 31.5-13t13.5-32-13.5-32-31.5-13q-19 0-32.5 13t-13.5 32 13.5 32 32.5 13zm450 93q25 0 42.5-17.5T2179 217t-17.5-42.5T2119 157t-42.5 17.5T2059 217t17.5 42.5T2119 277z"/></svg>