<svg xmlns="http://www.w3.org/2000/svg" viewBox="-10 0 2610 2048"><path d="M1300 1978q-213 0-399-81t-327-224-220-331.5T275 938t79-403.5T574 203 901-21t399-81 399 81 327 224 220 331.5 79 403.5-79 403.5-220 331.5-327 224-399 81zm-15-486-10-79q39-4 75-18t64-32l44 64q-73 50-173 65zm15-178q-161 0-282-96l53-64q97 80 229 80t229-80l53 64q-121 96-282 96zM872 889q-39 0-69-25.5T773 786q0-59 39-94.5T916 656q72 0 131.5 48.5T1129 843l-57 12q-22-32-46.5-52.5T975 782q-8 0-12 8t-4 16q0 25-17 54t-70 29zm428 1009q196 0 367.5-74.5t301-206.5 203-306 73.5-373-73-373-203-306-301-206.5T1300-22q-196 0-367.5 74.5T631 259 428 565t-73 373 73 373 203 306 301.5 206.5T1300 1898zm-8-777q-38 0-83-17l26-74q36 11 57 11 20 0 32.5-12.5T1337 999q0-43-23-82t-46-83-23-100q0-45 22-85t57-61l37 72q-16 10-26 31t-10 43q0 37 23 77.5t46 86.5 23 101-34.5 88.5-90.5 33.5zm280-232q-39 0-69-25.5t-30-77.5q0-59 39-94.5t104-35.5q72 0 131.5 48.5T1829 843l-57 12q-22-32-46.5-52.5T1675 782q-8 0-12 8t-4 16q0 25-17 54t-70 29z"/></svg>