<svg xmlns="http://www.w3.org/2000/svg" viewBox="-10 0 2610 2048"><path d="m948 1447-112-237-547-546q-19-20-19-44t19-43L940-83q19-19 43-19t43 19l549 548 116-18 105 114 52 270-298 138-35 263-420 86zM605 714l163-163-52-53-106 106-47-48-59 58zm235 234 163-163-52-53-106 106-47-48-59 58zm788 1030q-20 0-46-26l-603-604 63-50 571 572q15 15 29 0l587-599q13-15 0-28l-436-439 26-87 482 483q27 27 29 54t-24 53l-632 645q-26 26-46 26zm-649-658 90-78 375-77 33-251 281-130-38-193-55-60-65 11-77 98-135 58-45 98-167 78-108 251-108 31-27 68zm182-694 163-163-52-53-106 106-47-48-59 58zM927 392l163-163-52-53-106 106-48-48-58 58z"/></svg>