<svg xmlns="http://www.w3.org/2000/svg" viewBox="-10 0 2610 2048"><path d="M288 1773q-70 0-115-46t-45-114q0-42 19.5-81t62.5-76q48-43 94.5-106t83.5-162q31-81 60-142t68-105 99-74l334-4q82 40 152.5 120.5t122 185.5 76.5 218l-2 337q-8 25-29 37t-53 12zm3 132v-160h86v160zm210 0v-160h80v160zm-210 73v-93h906v93zm413-73v-160h80v160zm203 0v-160h80v160zm-487-243h720l-79-137q-40 18-82.5 27t-79.5 9q-39 0-70-9.5t-51-28.5H530q-24 38-54 75t-56 64zm151-233q79-5 128.5-40t49.5-90q0-34-22.5-54.5T669 1224q-25 0-53 10 0 52-9.5 103t-35.5 92zm540 476v-160h86v160zm-203-425q27 0 59-5.5t66-17.5q-17-32-33-69t-30-74q-61 1-111.5 28.5T808 1415q0 31 30 48t70 17zm480 425v-160h86v160zm-770-741h124V935H618zm980 741v-160h80v160zM476 659q-36 0-62-27t-26-65q0-43 20-68.5t54-25.5zm912 1319v-93h906v93zm-10-291q68 0 133-45.5t119-114.5 88-139q-48 34-103.5 57.5T1505 1489q-77 28-137.5 58t-60.5 82q0 25 18.5 41.5t52.5 16.5zm423 218v-160h80v160zM791 755q-81 0-81-50 0-28 81-28t81 28q0 50-81 50zM672 591q-32 0-55.5-14.5T593 539q0-24 25-24 10 0 25.5 6t28.5 6q14 0 29-6t25-6q25 0 25 24 0 23-23.5 37.5T672 591zm118 253q148 0 207-81.5t58-245.5q-31-22-47-65t-16-90H588q0 47-15.5 90T525 517q-1 164 58 245.5T790 844zM689 457q-16 0-29.5-7.5T646 432t14.5-16.5T691 409q15 0 27 6t12 17q0 10-13 17.5t-28 7.5zm1315 1448v-160h80v160zm-403-250h421q-51-44-92.5-96t-73.5-125h-108q-30 78-69.5 130t-77.5 91zM790 918q-109 0-185-44.5T489.5 752 450 578V308q0-80 47.5-109T675 170V5q0-41 25.5-74t89.5-33 89.5 33T905 5v165q130 0 177.5 29t47.5 109v270q0 97-40 174T974 873.5 790 918zm117-327q-32 0-55.5-14.5T828 539q0-24 25-24 10 0 25.5 6t28.5 6q14 0 29-6t25-6q25 0 25 24 0 23-23.5 37.5T907 591zm1301 1314v-160h86v160zm-823-132q-76 0-96-53t-20-171q0-95 26.5-195t75-192 114-165T1628 884l345 2q86 46 149 125.5t102 176.5 77.5 161 87.5 107q43 37 63 75.5t20 79.5q0 69-45 115.5t-116 46.5zM891 457q-15 0-28-7.5T850 432q0-11 12-17t27-6q16 0 30.5 6.5T934 432t-13 17.5-30 7.5zm213 202 14-186q34 0 54 25.5t20 68.5q0 38-26 65t-62 27zm1184 1024q42 0 62.5-16.5t20.5-44.5q0-54-56.5-80.5T2169 1490q-67-19-132.5-44.5T1904 1383q11 49 53 101.5t100.5 97.5 120 73 110.5 28zm-494-317 290-216q-39-89-112.5-145.5T1794 948t-177.5 56.5T1504 1150zM387 181v-80h243V21h320v80h243v80zm1407 573q-42 0-61-14t-19-30q0-27 80-27t80 27q0 16-19 30t-61 14zm-129-163q-32 0-55.5-14.5T1586 539q0-25 25-25 10 0 25.5 6t28.5 6q14 0 29-6t25-6q25 0 25 25 0 23-23.5 37.5T1665 591zm129 278q117 0 190-81.5t73-204.5q0-78-17.5-132t-42.5-90.5-48-60.5q-38 21-77 32.5t-78 11.5-78-11.5-77-32.5q-22 24-47.5 60.5t-43 90.5-17.5 132q0 123 73 204.5t190 81.5zm-102-423q-16 0-29.5-7.5T1649 421q0-11 14.5-17.5t30.5-6.5q15 0 27 6.5t12 17.5q0 10-13 17.5t-28 7.5zm-15 497q-119-69-197.5-125.5t-117-112.5-38.5-121q0-97 38-171.5t104.5-135T1617 164q17-67 59.5-105.5T1794 20t117.5 38.5T1971 164q83 48 149 108.5t105 137 39 174.5q0 65-38.5 121T2109 817.5 1911 943zm243-352q-32 0-55.5-14.5T1841 539q0-25 25-25 10 0 25.5 6t28.5 6q14 0 29-6t25-6q25 0 25 25 0 23-23.5 37.5T1920 591zm-26-145q-15 0-28-7.5t-13-17.5q0-11 12-17.5t27-6.5q16 0 30.5 6.5T1937 421q0 10-13 17.5t-30 7.5zm-100-159q40 0 67.5-28.5T1889 191q0-40-27.5-68T1794 95t-67.5 28-27.5 68q0 39 27.5 67.5T1794 287zM1679 66q-11-16-19-37.5t-8-40.5q0-47 42-47 13 0 26.5 8t25.5 28q0-34 13-56.5t35-22.5 35 22.5 13 56.5q12-20 25.5-28t26.5-8q42 0 42 47 0 19-8 40.5T1909 66z"/></svg>