<svg xmlns="http://www.w3.org/2000/svg" viewBox="-10 0 2610 2048"><path d="M930 1664q0-27 1.5-48t2.5-34h-26q-93 0-185.5-24T553 1496.5 428 1416t-53-81l207-95q-76-52-127.5-103T343 1016l135-37q-39-64-70-143.5T359.5 675 342 526q67 0 140 17.5T622.5 588 738 642l11-96q93 37 161 92-14-49-18-99.5T888 430q0-62 10-121.5t23-89.5q47 24 84 73 7-79 34.5-144.5T1102 47l50 33q26-55 67-106.5t81-75.5q41 24 82 75.5T1448 80l50-33q35 35 62.5 100.5T1595 292q37-49 84-73 14 30 23.5 89.5T1712 430q0 58-4 108.5t-18 99.5q68-55 161-92l11 96q49-27 116-54t140.5-44.5T2258 526q0 68-17.5 149t-48 160.5T2122 979l135 37q-60 70-111.5 121T2018 1240l207 95q-4 38-52.5 81t-125.5 80.5-169.5 61.5-185.5 24h-26q2 13 3 34t1 48q-89 0-191-29t-174-90h-10q-72 61-174 90t-191 29zm370 314q-59 0-59-44 0-14 3.5-28.5t7.5-43 7.5-85 3.5-155.5v-232q-33-8-93-12t-122-4H872q-59 0-59-35 0-33 59-33h245.5l68.5 2-451-342q-34-26-48.5-45.5T672 886q0-18 24-18 14 0 37 15t44 31l488 366V480q0-125 8.5-172.5T1300 260t26.5 47.5T1335 480v800l488-366q21-16 44-31t37-15q24 0 24 18 0 15-14 34.5t-49 45.5l-451 342q34-2 68.5-2H1728q59 0 59 33 0 35-59 35h-176q-61 0-121.5 4t-93.5 12v232q0 99 3.5 155.5t7.5 85 7.5 43 3.5 28.5q0 44-59 44zm-299-400q48-2 107.5-24t110.5-57 71-75h20q21 40 71.5 75t110.5 57 107 24q0-17-2.5-40.5t-4.5-39.5q25 4 50 5t50 1q59 0 126.5-13t128.5-34 104-45 54-46l-256-119q76-25 139-76t121-110l-115-33q55-62 90.5-137t56-148 29.5-128q-64 12-149 43.5T1796 768l-11-100q-44 29-88.5 68T1599 836l-52-36q54-98 69.5-184.5T1632 430q0-21-.5-42.5T1629 347l-103 83q0-84-9.5-156.5T1478 156l-66 53q-25-83-56.5-132.5T1300 2q-24 25-55 74.5T1188 209l-66-53q-29 45-38.5 117.5T1074 430l-103-83q-2 19-2.5 40.5T968 430q0 99 15.5 185.5T1053 800l-52 36q-53-61-97.5-100T815 668l-11 100q-140-78-224.5-109.5T430 615q10 55 30 128t55.5 148 90.5 137l-115 33q58 59 121 110t139 76l-256 119q11 22 54 46t104 45 128.5 34 126.5 13q25 0 50-1t50-5q-2 16-4.5 39.5t-2.5 40.5z"/></svg>