<svg xmlns="http://www.w3.org/2000/svg" viewBox="-10 0 2610 2048"><path d="M902 1501q-101 0-171-71.5T661 1254v-10.5l1-4.5q-88-15-145-83t-57-159q0-94 67-168t182-109q-112-47-179-138t-67-199q0-75 34.5-136t93-96.5T720 115h15l7 1q11-63 46.5-112T876-73.5 988-102q63 0 124 35t110.5 96.5T1300 170q28-79 77.5-140.5t111-96.5 123.5-35q60 0 112 28.5T1812 4t46 112q3-1 7.5-1h14.5q72 0 130 35.5t92.5 96.5 34.5 136q0 108-66.5 199T1891 720q116 35 182.5 109t66.5 168q0 91-56.5 159t-145.5 83q1 2 1 4.5v10.5q0 104-70 175.5t-171 71.5q-94 0-178.5-51.5t-143.5-139-76-195.5q-17 108-76 195.5t-143.5 139T902 1501zm612 477q-131-79-193.5-226t-62.5-379v-281h90v281q0 209 51.5 335.5T1563 1903zm-612-557q100 0 181-66t129-180 48-257h80q0 143 48 257t129.5 180 180.5 66q68 0 114.5-48t46.5-119q0-15-1.5-32t-6.5-46q4 1 8 1h9q81 0 136.5-52t55.5-128q0-67-50-119.5t-136.5-83T1677 764h-213v-80h213q107 0 193-40.5T2006.5 535t50.5-152q0-79-51-133.5T1880 195q-19 0-37 2.5t-40 9.5v-12q0-53-24.5-102.5t-67.5-82-99-32.5q-64 0-126.5 50t-104 133.5T1340 346v226h-80V346q0-101-41.5-184.5T1114.5 28 988-22q-56 0-99 32.5t-67.5 82T797 195v12q-20-7-38-9.5t-39-2.5q-74 0-125.5 54T543 383q0 84 50.5 152t137 108.5T923 684h213v80H923q-109 0-196 30.5t-137 83T540 997q0 76 55.5 128t136.5 52h11l6-1q-4 29-6 46t-2 32q0 71 46.5 119t114.5 48z"/></svg>