<svg xmlns="http://www.w3.org/2000/svg" viewBox="-10 0 2610 2048"><path d="M1301 1450q-142 0-258.5-69.5t-186-186.5T787 935t69.5-258.5 186-186T1301 421q143 0 259.5 69.5t186 186T1816 935t-69.5 259-186 186.5T1301 1450zM700 558l-177-92 27-54 177 92zm11 112q67 0 122.5-30.5t89-83T956 438q0-44-8.5-80.5t-33-77.5-70.5-96.5T723 47q-29 47-76 84-37 28-78.5 39.5t-77 21T435 226q-20 24-24.5 56.5t-8 68T379 420q-14 25-31.5 47.5T302 516q66 26 133.5 62.5t136.5 64T711 670zm249 585-56-56q323-325 368-748l80 8q-48 454-392 796zM705 750q-85 0-173.5-37.5t-179.5-85T168 551q50-54 89.5-99t55.5-79q15-30 18.5-67t11-72.5T376 173q29-27 67.5-41t77-25.5T587 76q29-19 49.5-44t40-58 43.5-76q50 84 104.5 146.5t103 118T1006 279t30 143q0 90-46 164.5t-121.5 119T705 750zm1168 877-107-169 51-32 107 169zm-572-257q122 0 220.5-59t156.5-158 58-218-58-217.5T1521.5 560 1301 501q-121 0-219.5 59T925 717.5 867 935t58 218 156.5 158 219.5 59zm-95 43-52-60q112-97 197-225t137-273 64-293l80 6q-13 158-69 313t-147 291.5-210 240.5zM783 450 676 281l51-32 107 169zm1097 1528q-49-84-104-146.5t-103.5-118T1594 1597t-30-143q0-90 46-164.5t121.5-119T1895 1126q85 0 173.5 37.5t179.5 85 184 76.5q-49 54-88.5 99t-56.5 79q-14 30-17.5 67t-11 72.5-34.5 60.5q-29 27-67.5 41t-76.5 25.5-67 30.5q-28 19-49 44t-40 58-44 76zm-3-149q29-47 76-84 38-29 79-40t77-21 56-34q21-25 25-57t8-67.5 23-69.5q14-26 31.5-48.5t45.5-47.5q-65-26-133-62.5t-137-64-139-27.5q-67 0-122.5 30.5t-89 82.5-33.5 119q0 43 8.5 80t33 78 70.5 96.5 121 136.5zm173-365-177-92 27-54 177 92z"/></svg>