<svg xmlns="http://www.w3.org/2000/svg" viewBox="-10 0 2610 2048"><path d="m526 1978-10-80q78-12 145-41t127.5-80T908 1649t120.5-184.5T1158 1213q82-172 146.5-286.5t125.5-190T1560 605l51 58q-58 48-112.5 116.5T1382 957t-145 277q-79 160-148.5 279T953 1716.5t-132.5 139-139 83.5-155.5 39zm422-317q0-97-15.5-173.5T871 1330l61-35q36 64 56.5 130.5T1014 1560q18-5 37.5-7t38.5-2q32 0 71 2t76 5l-6 70q-35-3-72.5-5t-68.5-2q-39 0-71 10t-71 30zm-326-603q-88-82-145-187t-85-231q-3-14 6-26.5t22-12.5q27 0 32 27 21 117 73 215.5T662 1014q22 19 3 42-9 10-20.5 11t-22.5-9zm271 297q-211-39-365-143.5t-237-262T208 596q0-66 11.5-139T257 289q232 39 393 142t245 260.5 84 360.5q0 132-41 275zm-22-86q28-109 28-217 0-172-70-310T628.5 510 316 377q-28 112-28 219 0 170 70 308t200.5 231.5T871 1269zm868 628q-152 0-297.5-74.5T1168 1590q128-144 269.5-216.5T1739 1301q164 0 304 73.5t269 221.5q-131 154-276 227.5t-297 73.5zm0-80q261 0 470-218-209-218-470-218-128 0-248.5 55.5T1267 1599q210 218 472 218zm-172-235q-28 11-40-15-13-28 15-40 49-22 113-33.5t171-11.5q14 0 23 8.5t9 21.5-9 21.5-23 8.5q-73 0-117 4.5t-75.5 13.5-66.5 22zm-379-368q0-109-1.5-176t-5.5-114-13-97l67-9q9 41 14 78t7 84 2 120q51-29 110-44t107-16v72q-43 0-94.5 13t-102 35.5-90.5 53.5zm-23-668q-12 4-23.5-2.5T1128 524q-5-30-10-64t-5-66q0-21 1.5-44.5t4.5-50.5 31-27q13 0 22 10.5t7 24.5q-3 25-4.5 46t-1.5 41q0 29 4 59t10 56q7 28-22 37zm44 349q-139-113-205.5-239T937 397q0-122 57-240t180-233q137 112 203 231.5t66 263.5q0 133-58 248t-176 228zm-6-106q160-169 160-370 0-219-185-389-161 167-161 367 0 220 186 392zm626 398q125 0 233.5-62.5T2252 944q-157-113-321-113-122 0-233.5 63.5T1504 1074q160 113 325 113zm0 80q-210 0-404-153l-9-51q93-148 228.5-230t286.5-82q102 0 206.5 42.5T2352 934q-103 169-234.5 251t-288.5 82zm-46-256q-27 14-41-12-6-11-3-23t16-18q51-24 107-36t120-12q14 0 22 8.5t8 22.5q0 13-11 21t-26 8q-56 0-103 10t-89 31zm-112-318q-51 0-105-6l-35-40q0-221 87.5-389.5t243-264T2220-102q32 0 71 3t101 14q0 237-90 412t-252 270.5-379 95.5zm0-80q185 0 326.5-79.5t224-222T2311-20q-22-2-45-2h-46q-175 0-309.5 79.5t-213 222T1612 611q19 1 31.5 1.5t27.5.5zm120-273q-10-8-12-20.5t7-22.5q49-57 95-103.5t111-89.5q11-8 23.5-5.5T2035 112q17 25-11 44-59 41-104.5 81t-86.5 97q-18 25-42 6z"/></svg>