<svg xmlns="http://www.w3.org/2000/svg" viewBox="-10 0 2610 2048"><path d="M1300 1836q-266 0-483.5-55.5t-374.5-158T200.5 1377 116 1060q0-179 92-329t268-258l11 89q-139 88-215 217t-76 281q0 156 78.5 284T499 1564t349 142 452 50 452-50 349-142 224.5-220 78.5-284q0-211-151.5-376T1831 437l-64-102q222 55 383 161t247.5 250 86.5 314q0 174-84.5 317T2158 1622.5t-374.5 158T1300 1836zm-388-387q21 0 34-12.5t13-27.5-7.5-27-30.5-18q-114-29-195-79t-127-112q-28-38-56-38-16 0-26.5 13.5T506 1177q0 36 43 82.5t108.5 89.5 134.5 71.5 120 28.5zm388 479q-265 0-451-51t-296-137.5T404 1546l394 185 502 63 510-63 395-185q-38 107-149 193.5T1757.5 1877t-457.5 51zm-368-660q44 0 61.5-15.5t17.5-35.5q0-50-45.5-75.5T865 1116q-22 0-48 16t-26 36q0 53 26 76.5t115 23.5zm420 269q52 0 80.5-39.5t28.5-86.5q0-58-29.5-81t-83.5-23q-38 0-64.5 23.5T1243 1386q-20 29-20 57 0 58 37 76t92 18zm-158-215q47-26 76.5-56.5t29.5-60.5q0-33-19.5-52t-51.5-19q-44 0-78 31.5t-34 73.5q0 33 22.5 53.5t54.5 29.5zm-1-408 6-51q21 0 39.5-20t18.5-42q0-7-2-15l46-19q6 18 6 33 0 43-33.5 78.5T1199 914zm438 492q107 0 147.5-50.5T1819 1205q0-25-21.5-58t-53.5-33q-20 0-50 25.5t-59.5 63.5-49.5 76-20 64q0 28 15 45.5t51 17.5zm-331 195q-194 0-364-38.5t-299-111-202-176-73-232.5q0-68 17-132t63-128q-7-20-10-38.5t-3-35.5q0-55 27-92-14-22-20-43.5t-6-44.5q0-65 42.5-114.5T573 338q6-81 61.5-139T770 135q26-60 81-95T975 5q24 0 43 3 33-28 76-44t91-16 91 16 76 44q20-3 43-3 69 0 124 35t81 95q80 6 135.5 64t61.5 139q58 27 100.5 76.5T1940 529q0 20-4 45t-15 44q167 91 242.5 200.5T2239 1043q0 129-73 232.5t-202 176-299.5 111T1300 1601zm-92-562q187 0 334.5-42.5T1776 882t86-162q0-45-29-83 15-19 21-46t6-46q0-65-40-100t-90-45q1-5 1-14 0-53-22.5-93.5t-60.5-64-87-23.5q-7 0-14 1-19-61-61-91t-104-30q-15 0-31 1t-28 3q-26-29-62-45t-76-16-76 16-62 45q-12-2-28-3t-31-1q-62 0-103.5 30T823 206q-5-1-7.5-1H809q-48 0-86.5 23.5t-61 64T639 386v7l1 7q-49 10-89.5 45T510 545q0 19 6 46t21 46q-29 38-29 84 0 67 56 124.5t153 101 223.5 68T1208 1039zm261-170 6-51q21 0 39.5-20t18.5-42q0-7-2-15l46-19q6 18 6 33 0 43-33.5 78.5T1475 869zm-77-175 6-51q21 0 39.5-20t18.5-42q0-7-2-15l46-19q6 18 6 33 0 43-33.5 78.5T1398 694zm557 385q103 0 144.5-21t41.5-72q0-36-16-64t-36-28q-28 0-54 17-21-3-43-3-80 0-126 28t-46 78q0 28 39 46.5t96 18.5zm-537-605 6-51q21 0 39.5-20t18.5-42q0-7-2-15l46-19q6 18 6 33 0 43-33.5 78.5T1418 474zm215 172-10-50q14-5 24.5-22.5T1652 536q0-18-10-32l37-34q23 28 23 66t-21.5 69.5T1627 646z"/></svg>