<svg xmlns="http://www.w3.org/2000/svg" viewBox="-10 0 2610 2048"><path d="M768 1978q-223 0-339-152.5T313 1377q0-49 4-100t11-100q8-47 11-85t3-71q0-26-14-56t-46-71q-51-67-72.5-112.5T188 694q0-119 130-189.5T662 434q143 0 251 32.5t169 90.5 61 134q0 40-18.5 94.5T1070 908q-17 32-33 73t-28 84.5-18 82.5L1570 82q58-106 104-145t116-39q67 0 109.5 24t71 62.5T2022 67q24 46 54.5 92.5T2159 241q19 13 28.5 29t9.5 36q0 38-41.5 66t-97.5 28q-61 0-120-32.5T1826 270l-489 1209q-74 183-154.5 292.5t-180.5 158-234 48.5zm-139-308q-17 4-31-4.5t-19-25.5q-16-64-24.5-155t-8.5-194q0-108 9-213 2-17 14-27.5t29-10.5 28 13 9 32q-4 55-6.5 112t-2.5 113q0 91 7.5 173t24.5 139q5 17-3.5 30t-25.5 18zm36-845q-117 0-200-33t-83-82q0-48 83-82t200-34q119 0 202 34t83 82q0 49-83 82t-202 33zm525 301q-37 0-63-26.5t-26-63.5 26-63 63-26 63.5 26.5 26.5 62.5q0 37-26.5 63.5T1190 1126zm-422 774q116 0 201.5-42.5t156-143T1265 1442l508-1256h88q45 70 92.5 104t95.5 34q20 0 38.5-10t18.5-18q0-4-1.5-6t-6.5-6q-53-39-86-84.5t-56-87.5q-32-60-64.5-97T1790-22q-46 0-75 28t-75 111L992 1308h-76q-6-30-7.5-50.5T907 1209q0-57 14-118.5T957 971t44-104q26-53 44-96t18-76q0-39-29.5-72.5T950 565t-127-37.5T663 514q-88 0-160.5 13.5t-125 37.5-81 57.5T268 696q0 26 16 58.5t59 87.5q42 54 60.5 96.5T422 1021q0 35-3.5 75t-10.5 87q-7 51-11 100t-4 94q0 265 93 394t282 129zm539-1001q-37 0-63-26.5t-26-63.5q0-38 26-63.5t63-25.5q38 0 64 26t26 63-26 63.5-64 26.5zm118-240q-36 0-60.5-24.5T1340 574t25-61 60-25 60.5 25.5T1511 574t-25 60-61 25zm117-239q-34 0-58-24t-24-58q0-35 24-58.5t58-23.5q35 0 58.5 23.5T1624 338q0 34-23.5 58t-58.5 24zm847 72q-77 0-151-7t-126.5-33.5T2044 367q58-5 82-25.5t24-40.5q0-21-10.5-43.5T2114 219q57 0 99 20.5t73 66.5q19 28 44.5 55t64.5 52q17 11 17 28 0 14-6 25.5t-17 25.5z"/></svg>