<svg xmlns="http://www.w3.org/2000/svg" viewBox="-10 0 2610 2048"><path d="M434 1978q-70 0-122-51.5T260 1805V72q0-71 51.5-122.5T433-102h1734q71 0 122 51.5T2340 72v1733q0 70-51.5 121.5T2166 1978zm296-252q-88 0-151.5-14.5T515 1680q0-11 30-21.5t79-17 106-6.5q58 0 106.5 6.5t78.5 17 30 21.5q0 17-63.5 31.5T730 1726zm-196-178q-48 0-102.5-1t-108.5-2v-94q64 6 113 9.5t108 3.5q131 0 240-14t197-14q101 0 154 13t53 21-54.5 21-147 26-209.5 22-243 9zm200-233q-127 0-234.5-6T302 1292l28-64q82 9 182.5 12t215.5 3h198q-39-32-64.5-51.5T822 1162q-23-17-46.5-35.5T736 1088q-14-18-20.5-38.5T709 1007v-20q-51 31-83.5 44t-61 22.5T497 1082q-29 14-53 29t-52 29-68 26l-31-62q70-17 103.5-42.5T473 1017q37-17 90.5-36t80.5-34 50.5-22.5T732 917q16 0 58.5 18t98.5 41 114 39q32 9 92.5 18t102.5 19l51 12 30 241q-57 0-106.5 1.5T1058 1310q-79 3-161 4t-163 1zm640 138q-12 0-17-2-1-3-1-6v-7q0-22 8-38t18-16q7 0 7 11 0 5-2 13.5t-9 23.5q21-12 36-12 10 0 10 6 0 10-15 18.5t-35 8.5zm266 478q-75-19-119-50t-44-74 42-71 106-28l35 153h177l30-126q56 4 132.5 11.5t153 15.5 130.5 15l-48 129zm157-211q-10 0-18.5-17.5t-8.5-37.5q0-7 2-15 29 0 48.5 9t19.5 20q0 6-12 6-11 0-34-10 10 24 10 34 0 11-7 11zm-150-182q-16 0-16-8 0-6 10.5-13.5t29.5-13.5q-17-3-28.5-11t-11.5-13q0-8 16-8 30 0 51 33-22 34-51 34zm-212-282q-19 0-35-8.5t-16-18.5q0-6 10-6 8 0 17 2.5t20 11.5q-6-14-8.5-22.5t-2.5-16.5q0-10 6-10 11 0 18.5 15.5t7.5 37.5v14q-4 1-8 1zM704 605q-85 0-145.5-60.5T498 399t60.5-145T704 194t145 60 60 145-60 145.5T704 605zm796 678-17-168q34 1 59.5 6t52.5 12v150zM434 1898h1732q38 0 66-28t28-65V72q0-38-27.5-66T2167-22H433q-37 0-65 28t-28 66v1733q0 37 28.5 65t65.5 28zm971-854q-16 0-16-8 0-5 10.5-11.5t27.5-13.5q-19-7-28.5-14.5T1389 985q0-8 16-8 30 0 51 34-23 33-51 33zm386 240q-29 0-52-34 25-33 52-33 16 0 16 7 0 5-10 12.5t-30 15.5q17 4 28.5 11.5t11.5 12.5q0 8-16 8zm-55 632q-84 0-122-63.5t-38-220.5q-98-10-179.5-82.5t-130-193T1218 1084q0-137 47.5-211.5T1388 798q56 0 85 54t29 161q0 16-1.5 55.5t-3 78-1.5 52.5q0 64 19.5 95.5t59.5 40.5v-107q0-54-9-139t-18.5-171-9.5-141q0-153 50.5-239.5T1736 451q89 0 138.5 77t49.5 213q0 26-4.5 85T1909 954.5t-10.5 131-4.5 91.5q14 10 29 10 16 0 31.5-19t15.5-46q0-21-2-62t-4-82.5-2-61.5q0-83 28.5-131t92.5-48q70 0 100.5 67t30.5 205q0 132-34.5 236t-95.5 164-140 60q-29 0-44-6v175q0 146-40.5 212t-123.5 66zm0-58q56 0 81-48.5t25-171.5v-261q46 34 102 34 59 0 108.5-45t80-134.5T2163 1009q0-121-19.5-167.5T2083 795q-31 0-51.5 27t-20.5 94q0 14 1 44.5t3 64.5 3 61.5 1 35.5q0 46-25 81.5t-69 35.5q-23 0-43.5-12t-37.5-31q0-16 2-60.5t5.5-104l7-119 5.5-106 2-65.5q0-112-34-172t-96-60q-67 0-103.5 68.5T1596 777q0 47 4.5 103.5t10 117 10 119.5 4.5 112v166q-4 1-8 1.5t-8 .5q-90 0-125.5-58t-35.5-140q0-20 1.5-57l3-74 1.5-55q0-96-22.5-126.5T1388 856q-49 0-80.5 60.5T1276 1084q0 132 43 245t116.5 182.5T1602 1581h32v51q0 95 11.5 143.5t34 65.5 56.5 17zM1374 819q-33-21-33-51 0-17 8-17 5 0 12.5 11.5T1373 791q8-20 15.5-30t11.5-10q7 0 7 17 0 30-33 51zm258 240q-12 0-18-2v-13q0-22 8-38t18-16q6 0 6 11 0 14-11 39 11-9 20.5-11.5t16.5-2.5q10 0 10 6 0 10-15.5 18.5t-34.5 8.5zm393 327q-19 0-35-8.5t-16-18.5q0-6 10-6 8 0 17 2.5t20 11.5q-6-14-8.5-22.5t-2.5-16.5q0-10 6-10 11 0 18.5 15.5t7.5 37.5v14q-4 1-8 1zm241 168q-63-3-106.5-18t-43.5-36q0-13 30-24.5t66-19 54-7.5zm-399-358 4-39q25 0 51 1t52 6l-7 32zm279 105 26-91q29 7 62 12.5t62 5.5v73zm-33-175q-11 0-17-2v-13q0-23 8-38.5t18-15.5q6 0 6 11 0 14-11 39 11-9 20.5-11.5t16.5-2.5q10 0 10 6 0 10-16 18.5t-35 8.5zm-337-365h-8.5l-8.5-1q-2-10-2-16 0-19 8.5-35t18.5-16q7 0 7 11 0 12-12 37 14-9 22-10.5t15-1.5q10 0 10 5 0 10-15 18.5t-35 8.5zm-84-289q-37-22-37-50 0-18 8-18 7 0 14.5 11t14.5 31q5-19 13.5-30.5T1720 404q9 0 9 18 0 28-37 50zm337 300q-33-21-33-51 0-16 8-16 6 0 13 10.5t11 29.5q6-19 13.5-29.5T2055 705q8 0 8 16 0 31-34 51z"/></svg>