<svg xmlns="http://www.w3.org/2000/svg" viewBox="-10 0 2610 2048"><path d="M250 1978q-34 0-54-20t-20-54V900q0-32 18-49t46-17q12 0 26.5 4.5T296 851l482 250 50-212q7-30 23.5-42.5T893 834q26 0 56 15l591 304V282h-42v-80h926v80h-44v1696zm21-78h539v-679H256v664q0 15 15 15zm113-219v-287h298v287zm70-70h158v-147H454zm436 289h650v-679H890zm176-218v-287h298v287zm70-71h158v-147h-158zM372 926v-78h407v78zm414 252-92-740 22-30q11-14 12.5-20.5t1.5-9.5q0-8-5-14t-13-6H419q-9 0-14.5 5.5T399 377q0 5 2 11t11 18l23 31-57 467-76-37 51-415q-15-14-24.5-33.5T319 377q0-41 29-70t71-29h293q40 0 69 29t29 71q0 22-10 41t-24 33l89 716zM392 647v-78h349v78zm624 279v-78h407v78zm418 252-92-740 22-30q11-14 12.5-20.5t1.5-9.5q0-8-5-14t-13-6h-293q-9 0-14.5 5.5T1047 377q0 5 2 11t11 18l23 31-57 467-76-37 51-415q-15-14-24.5-33.5T967 377q0-41 29-70t71-29h293q40 0 69 29t29 71q0 22-10 41t-24 33l89 716zm-388-531v-78h349v78zM371 343q-12-38-17-67.5t-5-54.5q0-288 518-288 81 0 122-7.5t66-15.5q13-5 26-8.5t21-3.5q23 0 39.5 15.5T1158-48q0 50-49.5 102.5T975 143q-39 16-97 35.5T788 233q-19 21-30.5 44.5T741 330l-79-12q11-43 32.5-83.5T733 176q31-33 68-50t77.5-30 82-32T1042 8q5-5 3-8.5t-9-1.5q-27 6-68 9.5T867 11q-228 0-333 53T429 221q0 40 15 92zm1249 1557h118v-568q0-25 25-25h394q25 0 25 25v568h118V282h-97v872h-486V282h-97zm177-824h326V866h-326zm0-288h326V582h-326zm-770-440q-3-29-4.5-49.5T1021 262q0-158 125.5-240T1512-60q73 0 102.5-7.5T1664-84q33-14 56-14 26 0 44 14.5t18 37.5q0 51-46 96.5T1599 146q-92 50-128 82t-44 65l-13 50-77-20 12-50q14-57 65-103.5T1567 68q21-11 42.5-23t41.5-25q6-4 5-9t-9-4q-39 5-73.5 8t-63.5 3q-208 0-308.5 62.5T1101 262q0 14 1.5 28.5t3.5 27.5zm770 156h326V282h-326z"/></svg>