<svg xmlns="http://www.w3.org/2000/svg" viewBox="-10 0 2610 2048"><path d="M434 1978q-71 0-122.5-51T260 1806V71q0-71 51-122t122-51h1734q71 0 122 51t51 122v1734q0 71-51 122t-122 51zm223-531q19-96 104-180l-47-48q-100 98-122 217zm-174 61q37-131 119.5-243T800 1078l-37-57q-124 82-214.5 204.5T418 1491zm229 223h66q3-216 190-490l-55-39q-200 293-201 529zm-294-491q103-138 303-257l-33-57q-210 124-324 274zm577 581 65-13q-42-218 75-442l-58-32q-129 247-82 487zm133-125 67-5q-1-24 1-62t7.5-77.5 12.5-70.5l-65-15q-7 34-12.5 77.5t-8.5 85-2 67.5zM497 942q36-29 88.5-50T690 863l-9-66q-61 9-122 34.5T455 890zM337 752q95-38 194.5-50.5T701 707l19-63q-80-22-192-9.5T312 691zm1237 1039q15-67 22-123t5-134l-67 3q2 72-4 122.5t-21 116.5zm-636-674q23-29 64.5-59.5t90.5-53.5l-28-60q-55 25-103.5 61.5T885 1077zm120 166q37-95 76.5-155t103.5-118l-45-51q-70 64-114 132t-82 169zM837 955q31-40 103.5-56.5T1103 896l10-64q-109-17-198.5 6T782 917zm437 350q5-29 10.5-56.5t9.5-55.5q5-29 10.5-57.5t9.5-56.5l-65-11q-10 56-20 112.5t-20 113.5zM821 616l37-57q-82-52-154.5-73t-141-25-137.5-4v66q69 0 131.5 4t127 23T821 616zm643 749q26-183-51-380l-61 25q70 183 46 345zm273 263q24-231-161-484l-54 40q170 232 148 435zm-574-838 57-35q-111-164-339-63l26 60q92-40 154-30.5t102 68.5zm767 971 67-7q-18-162-75.5-298.5T1769 1214l-49 45q177 196 210 502zM1008 571l52-42q-46-58-109-116T791 306l-30 60q74 37 132.5 85.5T1008 571zm642 598 47-49q-40-38-80.5-77t-81.5-79l-47 49q41 38 81.5 77.5t80.5 78.5zM637 104q17 0 29-12.5T678 62t-12-29-29-12-29.5 12T595 62t12.5 29.5T637 104zm600 623 64-22q-19-55-46-103t-89-98l-42 52q53 42 74 80t39 91zm-167-293 62-26Q1018 160 759 67l-22 63q232 82 333 304zm981 962 49-45q-19-20-37-39.5t-38-38.5q-19-20-37-39l-36-38-49 45q37 40 74 78.5t74 76.5zm-277-338 51-42q-86-105-305-163l-17 65q102 27 167 60.5t104 79.5zm-378-320q49-48 98-96.5t98-96.5l-47-47q-24 24-48.5 48t-49.5 49q-25 23-49 47.5t-49 48.5zm83 80q123-112 257-25l37-55q-178-116-338 31zm721 513 49-47q-12-12-23-24t-22-23q-55-61-113.5-114.5T1949 1033l-26 62q87 38 145.5 98.5T2200 1331zM1188 327l65-13q-10-47-41.5-113T1154 84l-60 30q25 51 54.5 111.5T1188 327zm975 723 39-55q-95-66-193-100t-201-50l-10 66q111 17 198.5 50.5T2163 1050zM1072 56q17 0 29-12.5t12-29.5-12-29-29-12-29.5 12-12.5 29 12.5 29.5T1072 56zm224 441h66q2-95 30.5-205T1469 90l-58-32q-52 98-83 218t-32 221zm572 308q112-32 192-4l23-64q-100-34-234 3zm-157-194q125-148 319-176l-9-66q-220 31-361 200zm93 71q190-65 366-37l11-65q-192-32-399 38zm-277-270q53-128 130.5-205T1856 90l-22-63q-133 46-222 132.5T1466 387zm132 41q61-93 165.5-154.5T2046 225l-7-67q-131 13-249 83t-188 177zM673 342q17 0 29-12.5t12-29.5-12-29-29-12-29.5 12-12.5 29 12.5 29.5T673 342zm812-306q17 0 29-12.5T1526-6t-12-29-29-12-29.5 12T1443-6t12.5 29.5T1485 36zm450 33q17 0 29-12.5t12-29.5-12-29-29-12-29.5 12-12.5 29 12.5 29.5T1935 69zm199 152q17 0 29-12.5t12-29.5-12-29-29-12-29.5 12-12.5 29 12.5 29.5T2134 221zm-165 1663q17 0 29-12.5t12-29.5-12-29-29-12-29.5 12-12.5 29 12.5 29.5 29.5 12.5zm169-380q17 0 29-12.5t12-29.5-12-29-29-12-29.5 12-12.5 29 12.5 29.5 29.5 12.5zm30-656q17 0 29-12.5t12-29.5-12-29-29-12-29.5 12-12.5 29 12.5 29.5T2168 848zm-994 983q17 0 29-12.5t12-29.5-12-29-29-12-29.5 12-12.5 29 12.5 29.5 29.5 12.5zm250-335q17 0 29-12.5t12-29.5-12-29-29-12-29.5 12-12.5 29 12.5 29.5 29.5 12.5zm-683 370q17 0 29-12.5t12-29.5-12-29-29-12-29.5 12-12.5 29 12.5 29.5T741 1866zm-134-285q17 0 29-12.5t12-29.5-12-29-29-12-29.5 12-12.5 29 12.5 29.5T607 1581zm-180 59q17 0 29-12.5t12-29.5-12-29-29-12-29.5 12-12.5 29 12.5 29.5T427 1640zm-35-625q17 0 29-12.5t12-29.5-12-29-29-12-29.5 12-12.5 29 12.5 29.5T392 1015zm1034-151q-48-5-70-24t-34-64h-20q-12 45-34 64.5t-70 24.5v22q48 5 70 24.5t34 64.5h20q12-45 34-65t70-25zm274 908q17 0 29-12.5t12-29.5-12-29-29-12-29.5 12-12.5 29 12.5 29.5 29.5 12.5z"/></svg>