<svg xmlns="http://www.w3.org/2000/svg" viewBox="-10 0 2610 2048"><path d="m276 1678-64-46 76-106V780q0-148 71-276t195.5-224.5 288-150.5T1190 75q186 0 349.5 54.5t288 151T2022 505t70 275v746l76 106-64 46-92-126V780q0-130-64-243t-177-199-262-134.5-319-48.5q-168 0-316.5 48T611 337 432.5 536 368 780v772zm-72 300v-363h1972v363zm80-80h1812v-203H284zm403-593q0-62 17-107t58-86q-5 1-11 1.5t-11 .5q-9 0-17.5-2.5T705 1104q-15-8-28-8-11 0-21 5-8 26-13.5 35t-13.5 9q-11 0-16-20t-5-62q0-33 4-52t15-19q8 0 17 13 5 9 10 9 12 0 28-14 20-18 36-18 13 0 31 12 11 7 28.5 13.5t30.5 6.5q17 0 35-5 13-4 20-4t12.5 9.5 6.5 20.5l-25 48q-34 67-44.5 111.5T802 1305zm259 194V820h46v679zm-478 35V784h1444v750zm80-80h1284V864H548zm589-149q0-62 17-107t58-86q-5 1-11 1.5t-11 .5q-9 0-17.5-2.5t-17.5-7.5q-15-8-28-8-11 0-21 5-8 26-13.5 35t-13.5 9q-11 0-16-20t-5-62q0-33 4-52t15-19q8 0 17 13 5 9 10 9 12 0 28-14 20-18 36-18 13 0 31 12 11 7 28.5 13.5t30.5 6.5q17 0 35-5 13-4 20-4t12.5 9.5 6.5 20.5l-25 48q-35 67-45 111.5t-10 110.5zm251 194V820h46v679zm-235-660L717 483l50-62 436 356zm-3-29V304h80v506zm-606 2-76-28q94-256 280-388t442-132q257 0 442.5 132T1912 784l-76 28q-85-233-250-350.5T1190 344 794 461.5 544 812zm683 27-50-62 436-356 50 62zm836 590v-80h167q11 0 15.5-5t4.5-16V995h80v335q0 54-23 76.5t-75 22.5zM990 107q0-89 45.5-149t154.5-60q110 0 155 60t45 149zm1303 932q-44 0-74.5-30t-30.5-73q0-44 30.5-74t74.5-30q43 0 73 30t30 74q0 43-30 73t-73 30zm-716 266q0-62 17-107t58-86q-5 1-11 1.5t-11 .5q-9 0-17.5-2.5t-17.5-7.5q-15-8-28-8-11 0-21 5-8 26-13.5 35t-13.5 9q-11 0-16-20t-5-62q0-33 4-52t15-19q8 0 17 13 5 9 10 9 12 0 28-14 20-18 36-18 13 0 31 12 11 7 28.5 13.5t30.5 6.5q17 0 35-5 13-4 20-4t12.5 9.5 6.5 20.5l-25 48q-34 67-44.5 111.5T1692 1305z"/></svg>