<svg xmlns="http://www.w3.org/2000/svg" viewBox="-10 0 2610 2048"><path d="M1276 1978q-310 0-545.5-128T344 1467q-22-39-10.5-71t42-47 62.5-2q70 26 145.5 39t161.5 13q140 0 242.5-23t127.5-58q8-11 10-22 7-34 30-52 9-8 22.5-15t24.5-10q12-3 21-8.5t9-14.5-27.5-29.5-55-54-27.5-82.5q0-46 27-74t85-41q132-29 205.5-124.5T1513 546q0-81-27-174t-75.5-181T1299 37q-41-44-19-91.5t93-47.5q143 0 276 56t246 156.5T2092 346t131 294.5 47 332.5q0 219-73 402.5T1990.5 1694 1675 1903.5t-399 74.5zm46-553q-92 0-179-85l57-56q32 31 61.5 46t60.5 15q82 0 164-44l38 70q-99 54-202 54zm-46 473q201 0 368-68t289.5-192 189.5-293.5 67-371.5q0-160-44-307.5T2024 393t-180.5-218T1623 30t-242-52q-12 0-15 8t7 19q59 59 109 151.5t80.5 195.5 30.5 194q0 177-91 294.5T1251 993q-27 6-39 16t-12 29q0 35 28 58t56 45.5 28 54.5q0 34-26 63.5t-64 37.5q-7 1-13 7-4 4-7 12-11 32-21 46-41 57-157 87t-279 30q-61 0-118.5-5.5t-106.5-17-86-27.5q-9-4-14.5 2.5T418 1445q138 218 353 335.5t505 117.5zm468-894q-40 0-63.5-26.5T1657 910q0-49 31.5-79t81.5-30q62 0 103 43t56 123l-48 11q-12-34-23-51t-25-17q-11 0-11 18 0 28-17 52t-61 24z"/></svg>