<svg xmlns="http://www.w3.org/2000/svg" viewBox="-10 0 2610 2048"><path d="M139 1878q-13-42-18.5-72.5T115 1752q0-101 81-180.5T416.5 1441t315.5-67v38q-121-48-211.5-153.5t-140-250.5T331 697q0-208 74-365T612 86.5 921-2t309 88.5T1437 332t74 365q0 171-51.5 319.5t-142 252.5-207.5 144v-39q176 16 315.5 67t220.5 130.5 81 180.5q0 23-5.5 53.5T1703 1878zm61-80h1442q4-18 4.5-27.5t.5-18.5q0-78-78-142t-217.5-107-326.5-55v-89q125-39 216-135t140.5-232 49.5-295q0-186-63.5-325t-178-216.5T921 78q-153 0-268 77.5T474.5 372 411 697q0 164 51.5 303.5T606 1234t211 124v89q-193 16-332.5 59.5T270 1613t-75 139q0 9 .5 18.5t4.5 27.5zm1481 80-6-128-54-175-361-150 176-47q-43-27-79-61.5t-67-73.5l172-359-6-417-180-299q77-78 180.5-124T1679-2q176 0 309 88.5T2195 332t74 365q0 167-49.5 313.5t-134.5 251-192 148.5v-40q172 18 305.5 71t210 133 76.5 178q0 23-5.5 53.5T2461 1878z"/></svg>