<svg xmlns="http://www.w3.org/2000/svg" viewBox="-10 0 2610 2048"><path d="M1300 1978q395-303 644.5-558T2312 940t118-438q0-126-42.5-235.5T2268.5 74t-179-129.5T1868-102q-121 0-234 46.5t-200.5 127T1300 255q-45-103-133-183.5t-201-127T732-102q-119 0-221.5 46.5T331.5 74t-119 192.5T170 502q0 213 118 438t367.5 480 644.5 558zM1034 899l-57-278q-2-11-11-10.5T955 621l-57 278q-15 72-55 117.5T738 1083l-130 42q-9 3-9.5 13.5t9.5 14.5l131 45q67 23 106 68t53 114l54 262 24 15 58-277q14-68 53.5-114t105.5-68l130-45q10-4 10-15t-10-14l-130-42q-65-21-104.5-66T1034 899zm433 501q-22 0-38-16t-16-38q0-23 16-39t38-16q23 0 39 16t16 39q0 22-16 38t-39 16zM557 635q0 25-10 39.5T517 689q-27 0-33.5-23.5T477 610q0-98 33-184.5T604 278t143-81q24-6 37 6.5t13 32.5q0 30-32 38-100 26-154 125t-54 236zm743 1248q-365-283-597-524.5t-342.5-453T250 502q0-147 63.5-265.5T486 48t246-70q128 0 237 53t193.5 151T1300 414q53-134 137.5-232t194-151T1868-22q137 0 246 70t172.5 188.5T2350 502q0 192-110.5 403.5t-342.5 453-597 524.5zm434-667-108-107 108-109 108 109zm-207-541q-27 0-46-19.5t-19-46.5 19-46.5 46-19.5 46.5 19.5T1593 609t-19.5 46.5T1527 675zm337 26q2 9 10 8.5t9-8.5l34-182q10-53 41-86t91-52l106-35q8-2 8-9.5t-8-9.5l-97-31q-77-25-100.5-58.5T1923 148l-40-204h-20l-28 202q-8 59-41.5 90t-79.5 49l-111 43q-7 2-7 8.5t7 8.5l112 36q49 16 80.5 52t39.5 86z"/></svg>