<svg xmlns="http://www.w3.org/2000/svg" viewBox="-10 0 2610 2048"><path d="M1290 1978q-289 0-453-90.5T658 1642q-11-117-18.5-250T629 1090.5 626 702h80q0 219 3 387t10 300 19 246q13 121 152 192t400 71q201 0 344-33.5t219.5-92T1930 1638q0-19-4.5-37.5T1908 1556q-20-41-31-81t-11-84V685h80v706q0 42 10.5 77t28.5 73q14 28 19.5 49.5t5.5 47.5q0 101-87.5 177.5t-249 119.5-383.5 43zm-5-682q-84 0-153.5-32.5T1008 1165l45-39q47 57 103.5 83t128.5 26q73 0 130-26t103-83l46 39q-55 66-124.5 98.5T1285 1296zm-276-305q-37 0-62-27.5T922 897t25-66.5 62-27.5 61.5 27.5T1095 897t-24.5 66.5T1009 991zm529 0q-37 0-61.5-27.5T1452 897t24.5-66.5T1538 803q38 0 62 27.5t24 66.5-24 66.5-62 27.5zm-876-26q-22 0-38-41t-25-111.5-9-157.5q0-232 81.5-402T909-9.5t379-92.5q222 0 377 92.5T1901 253t81 402q0 87-9 157.5T1948 924t-38 41q-37 0-53.5-39.5t-25.5-98-22.5-117-43-98T1677 573q-48 0-108 10.5T1438 605t-154 11q-81 0-151.5-11T1003 583.5 895 573q-58 0-88 39.5t-43.5 98-22.5 117-25.5 98T662 965z"/></svg>