<svg xmlns="http://www.w3.org/2000/svg" viewBox="-10 0 2610 2048"><path d="M1969 1977q-73 0-139-30.5t-125.5-61T1590 1855q-509 0-763.5-242.5T572 892V695q0-14-24-24t-59-24-70.5-39-59.5-67.5T335 431q0-102 53-179.5t145.5-121T743 87q200 0 304.5 130.5T1152 598v363q0 112 42.5 168t145.5 82l551 138q180 45 277 140t97 229q0 73-40.5 131.5t-108 93T1969 1977zM784 1710q-32 0-55-23t-23-55 23-55 55-23 55 23 23 55-23 55-55 23zm-150-250q-32 0-55-23t-23-55 23-55 55-23 55 23 23 55-23 55-55 23zm420 410q-32 0-55-23t-23-55 23-55 55-23 55 23 23 55-23 55-55 23zm-500-677q-34 0-56-23t-22-55 23-55 55-23 55 23 23 55-23 55-55 23zm840 757q-32 0-55-23t-23-55 23-55 55-23 55 23 23 55-23 55-55 23zm-330-504q-19 0-33.5-14.5T1016 1398q0-20 14.5-34t33.5-14q20 0 34 14t14 34q0 19-14 33.5t-34 14.5zM544 923q-32 0-55-23t-23-55 23-55 55-23 55 23 23 55-23 55-55 23zm294 399v-60q40-2 91-24t100-58 83-79l46 38q-40 49-96.5 90T946 1295t-108 27zm49-176q-19 0-33.5-14.5T839 1098q0-20 14.5-34t33.5-14q20 0 34 14t14 34q0 19-14 33.5t-34 14.5zm301 450-39-47q71-62 105-131t34-151h60q0 94-40 176t-120 153zm526 382q-32 0-55-23t-23-55 23-55 55-23 55 23 23 55-23 55-55 23zm-320-392q-19 0-33.5-14.5T1346 1538q0-20 14.5-34t33.5-14q20 0 34 14t14 34q0 19-14 33.5t-34 14.5zM751 973v-60q101 0 178.5-21.5T1077 822l34 50Q961 973 751 973zm791 697-48-36q40-59 62-138.5t22-167.5h60q0 96-25.5 185.5T1542 1670zM847 826q-19 0-33.5-14.5T799 778q0-20 14.5-34t33.5-14q20 0 34 14t14 34q0 19-14 33.5T847 826zm857 850q-19 0-33.5-14.5T1656 1628q0-20 14.5-34t33.5-14q20 0 34 14t14 34q0 19-14 33.5t-34 14.5zm128 81-48-36q40-59 62-139t22-169h60q0 97-25.5 187.5T1832 1757zm137 140q87 0 151.5-51.5T2185 1718q0-106-79.5-179T1871 1427l-551-138q-130-32-189-110.5T1072 961V598q0-218-82-324.5T743 167q-96 0-170 33t-116 92.5T415 431q0 54 24 85t59.5 48 70.5 30.5 59 31 24 49.5v217q0 444 230.5 663.5T1590 1775q66 0 131 30.5t127.5 61T1969 1897zm35-121q-19 0-33.5-14.5T1956 1728q0-20 14.5-34t33.5-14q20 0 34 14t14 34q0 19-14 33.5t-34 14.5zM732 407q-22 0-38.5-16.5T677 352t16.5-38 38.5-16 38 16 16 38-16 38.5-38 16.5zm260-208-57-18q6-21 6-39 0-50-50.5-98.5T746-42l27-54Q882-53 941.5 9t59.5 133q0 27-9 57zm88 93-48-36q53-68 53-143 0-96-61-185l52-30q69 104 69 215 0 96-65 179z"/></svg>