<svg xmlns="http://www.w3.org/2000/svg" viewBox="-10 0 2610 2048"><path d="M1297 1978q-40 0-84-7.5t-74-19-30-23.5q0-24 21.5-61.5t56-74.5 72.5-58q0-41 43-84.5t104-54.5l49-48q0-50 23.5-92t84.5-84q11-41 13.5-80t2.5-76q0-20 1-40.5t2-48.5q-113 106-227.5 154.5T1100 1335q-91 79-166.5 134T805 1554l22 37q14-6 44-10.5t41-4.5q37 0 72.5 28t58.5 73 23 98q0 55-53.5 69T884 1858q-112 0-195-46.5T585 1644q-5-30-26-65t-21-89q0-42 23.5-82.5T631 1319l96-99q-61-41-96-101.5T596 979q0-120 77-212l-14-80q-23 12-48.5 19.5T560 717l-52 59q0 64-56 111.5T319 935q-93 0-153.5-65.5T105 705q0-55 29-121.5T207 468V368q97-20 171-72.5T476 148q-5-18-7.5-34T466 84q0-36 19.5-79.5t46-75T579-102t48 33.5 46.5 80T693 97v1q133 55 243 145t202 218q82 26 150 94 20 2 38 3.5t35 1.5q64 0 114.5-16.5t100.5-33 112-16.5q122 0 224.5 59.5t164 162T2138 949q0 107-42.5 214T1943 1359q-34 27-73 60t-65 61q0 49-10.5 85.5T1758 1636t-72.5 74.5T1568 1810q-25 20-38 46t-52 39q0 46-39 64.5t-142 18.5zm-921-296q-20 0-49.5-25t-49.5-49q-45-32-75.5-80.5T171 1440q0-40 20.5-86.5T258 1240q17-24 18.5-55t6-61.5T311 1070q37-35 92.5-39.5T532 1020q10-1 32.5-13t70.5-56l4 123 110 145H513q-63 0-100 35t-37 95v92q35 0 50 18.5t15 70.5q0 69-18 110.5t-47 41.5zm-83-914q-16 0-31.5-20T246 708q0-29 23-29 17 0 32 20t15 40q0 29-23 29zm807 897q-17 0-22-12t-5-34q0-56 12.5-77.5t35.5-39.5q-4-11-4-30 0-89 127-112l38-7q64-12 87.5-45.5t23.5-85.5l205-131v199q0 48-28 75.5t-67.5 44.5-76 32-54.5 39q-13 18-42 30.5t-49 12.5q-22 0-22 39 0 52-51.5 77t-107.5 25zM471 473q-17 0-29.5-12.5T429 431t12.5-29 29.5-12 29 12 12 29-12 29.5-29 12.5zm943 1425q11-18 11-46 35-8 44.5-31t31.5-41q97-77 148-121.5t71-72.5q17-24 25.5-55t8.5-80q35-42 83-88.5t83-75.5q81-68 109.5-153.5T2058 949q0-106-49-190.5T1876.5 624 1688 574q-50 0-100 16t-105 32-122 16q-57 0-122-12-60-68-151-95-97-138-211-235.5T636 157q2-9 2.5-18t.5-18q0-47-17.5-81T575-22q-25 37-39 66.5T522 118q0 32 8 59-23 89-86 151.5T286 426v64q-45 43-73 104.5T185 710q0 62 39 103.5t96 41.5q50 0 83.5-34t33.5-85l87-99q91-2 141.5-40.5T716 485q0-54-29-138l66-24q16 46 24.5 86.5T786 485q0 39-16 71.5T727 617l34 183q-39 28-62 78t-23 100q0 66 48.5 134T831 1212l-158 165q-34 37-51 63.5t-17 55.5q0 38 19.5 65.5T648 1616q14 94 74.5 135t194.5 41q4-21 4-45 0-75-50-122-15 4-34 9t-26 5q-20 0-36.5-28t-40.5-86q53-26 102.5-58.5t108-80.5 139.5-119q114-5 223.5-51t200.5-124 147-179l59 30q-24 45-43 108t-19 137q0 57-4.5 116.5T1621 1405q-50 37-79 87t-29 106l-67 59q-52 3-86.5 33t-34.5 73q-24 6-50 25 82 20 139 110zM1220 562l-83-65-135-168-245-179-107-57q39 0 69.5-20T777 27t55.5-46T895-39q37 0 60 23.5T978 42t-16 61.5-16 56.5q0 10 8 16t20 6q17 0 49-20.5t66-20.5 59.5 25 25.5 59q0 27-15.5 53.5t-31 48.5-15.5 37q0 25 33 25 15 0 38-5t44-5q32 0 49.5 20.5T1294 448t-19.5 57-54.5 57zm1029 743q-60 0-116.5-25t-91.5-73l73-217V812q34 0 51 29.5t26 72.5 20 86 32.5 72.5 63.5 29.5q67 0 102-17.5t61-17.5q25 0 25 39 0 42-31.5 88.5T2377 1273t-128 32zM456 53q26 0 51 6v126L401 320 228 435q-50 0-82-13t-32-35q0-18 15.5-24t34.5-7.5 27-5.5q9-5 15-20.5t13-52.5q21-116 78-170-8-40-8-72 0-34 7.5-58T317-47q21 0 48 29t49 73q10-1 20.5-1.5T456 53z"/></svg>