<svg xmlns="http://www.w3.org/2000/svg" viewBox="-10 0 2610 2048"><path d="M1300 1928q-209 0-380-61t-294.5-172.5T435 1429t-67-340q0-147 43-276-79-236-79-449 0-188 53-302T535-52q58 0 131.5 45t153 124T974 298q76-22 158-32.5t168-10.5 168 10.5 158 32.5q75-102 154.5-181T1934-7t131-45q97 0 150 114t53 302q0 213-79 449 43 129 43 276 0 186-67 340t-190.5 265.5T1680 1867t-380 61zm-988-246-62-52q46-51 111-90t138.5-61.5T642 1456v80q-59 0-120.5 19T405 1607t-93 75zm-117-269-28-75q65-26 142-40.5t147-14.5q37 0 70 4.5t59 12.5l-21 74q-22-6-48-9t-55-3q-64 0-135.5 13.5T195 1413zm340-202q-70-29-165-44t-210-16v-80q124 1 228 18t181 50zm310-8q-51 0-87-44t-36-107 36-107 87-44 87 44 36 107-36 107-87 44zm308 327q-52 0-100.5-20.5T969 1455l57-56q26 25 59.5 38t67.5 13q59 0 86.5-29t27.5-90h66q0 61 28 90t86 29q34 0 68-13t59-38l57 56q-35 34-83.5 54.5T1447 1530q-91 0-147-64-56 64-147 64zm147-165q-35 0-70.5-20.5t-59-50-23.5-56.5q0-35 41-55t112-20 112 20 41 55q0 27-23.5 56.5t-58.5 50-71 20.5zM587 655q-24-62-36-146.5T539 351q0-63 9-105.5t27-42.5q17 0 54.5 34.5t85.5 91T809 450q-56 31-117 90T587 655zm713 1193q257 0 448.5-96t297.5-267 106-396q0-149-47-276 29-82 47-157t27-147.5 9-144.5q0-152-34.5-244T2065 28q-45 0-114.5 48.5t-146 130.5T1658 391q-82-28-171.5-42T1300 335t-186.5 14T942 391q-69-102-146.5-184t-146-130.5T535 28q-54 0-88.5 92T412 364q0 72 9 144.5T448.5 656 495 813q-47 127-47 276 0 225 106 396t297.5 267 448.5 96zm988-166q-38-42-93-75t-116.5-52-120.5-19v-80q70 0 143 22.5t138.5 61.5 110.5 90zM1167 631q-36 0-80-58t-91-214l257-39q2 24 2.5 47t.5 44q0 99-23.5 159.5T1167 631zm588 572q-51 0-87-44t-36-107 36-107 87-44 87 44 36 107-36 107-87 44zm650 210q-58-24-129.5-37.5T2139 1362q-29 0-55 3t-48 9l-21-74q26-8 59-12.5t70-4.5q70 0 147 14.5t142 40.5zm-972-782q-42 0-65.5-60.5T1344 411q0-21 .5-44t2.5-47l257 39q-47 156-91 214t-80 58zm632 580-34-72q77-33 181-50t228-18v80q-115 1-209.5 16t-165.5 44zm-52-556q-44-56-105-115t-117-90q46-65 94-121.5t86-91 54-34.5q18 0 27 42.5t9 105.5q0 73-12 157.5T2013 655z"/></svg>