<svg xmlns="http://www.w3.org/2000/svg" viewBox="-10 0 2610 2048"><path d="M1300 1928q-337 0-571.5-93.5T372 1563t-122-432q0-183 53-352t149.5-312T680 217.5 968.5 52 1300-7t331.5 59T1920 217.5 2147.5 467 2297 779t53 352q0 254-122 432t-356.5 271.5T1300 1928zm0-379q-68 0-131-27.5t-107-70.5l59-55q30 31 78.5 52t100.5 21 100.5-21 78.5-52l59 55q-44 43-107 70.5t-131 27.5zM872 984q48 0 77-35.5t29-93.5q0-59-29-94t-77-35-77.5 35.5T765 855t29.5 93.5T872 984zm428 693q209 0 320-84.5t111-244.5q0-93-35-178t-95.5-151.5-138-104.5-162.5-38-162.5 38-138 104.5T904 1170t-35 178q0 160 111 244.5t320 84.5zm0-368q-79 0-124.5-37t-45.5-101q0-63 42.5-94t127.5-31q86 0 128 31t42 94q0 64-45 101t-125 37zM460 570q-73-44-117.5-120.5T298 282q0-92 45-168T464-7t168-45q90 0 165.5 44T917 107l-106 58q-28-44-75.5-70.5T632 68q-88 0-151 62.5T418 282q0 55 25.5 102t68.5 76zm1268 414q48 0 77.5-35.5T1835 855t-29.5-93.5T1728 726t-77 35-29 94q0 58 29 93.5t77 35.5zm412-414-52-110q43-29 68.5-76t25.5-102q0-89-62.5-151.5T1968 68q-56 0-103 26.5t-76 70.5l-106-58q44-71 119.5-115T1968-52q92 0 168 45t121 121 45 168q0 91-44.5 167.5T2140 570z"/></svg>