<svg xmlns="http://www.w3.org/2000/svg" viewBox="-10 0 2610 2048"><path d="M1427 1928q-71 0-112-18t-76-59q-21-25-28-88.5t-7-148.5l-353-22q3 22 3 40 0 98-55 144.5T619 1823q-65 0-122-19t-91.5-56.5T371 1655q0-54 18-103.5t35-86.5q-141-80-217.5-207T130 978t72-274 197.5-191T686 443q198 0 334 107.5T1217 859l39 129q23 76 74.5 131t154.5 55q194 0 329-55t218.5-138T2154 811.5t38-150.5q0-134-57.5-252.5t-161-209-244-142T1423 6q-272 0-457 116T674 480l-97 9Q696 209 905.5 68.5T1423-72q169 0 321.5 52T2016 129t187.5 233 68.5 304q0 84-47.5 185t-144 192.5-245 150T1485 1252q-121 0-195-62.5T1181 1012l-40-129q-55-179-170.5-269.5T686 523q-138 0-245.5 59t-169 161.5T210 978q0 147 82.5 265.5T529 1430q-43 87-60.5 135.5T451 1655q0 39 47.5 63.5T619 1743q93 0 124-25t31-86q0-30-1.5-62t-5.5-63l514 35q0 85 3.5 144.5t9.5 106.5q23 28 50.5 41.5t82.5 13.5q97 0 143.5-35t46.5-89q0-43-8.5-102t-28.5-143q32-9 92-35t125-61.5 111-73.5q29 52 63 81.5t95 29.5q71 0 114.5-28t43.5-69q0-32-6.5-80t-15.5-88q-13-59-20-108.5t-7-83.5q49-49 88.5-93.5t68-82 43.5-67 15-48.5q0-5-2.5-8t-10.5-3q-27 0-63.5 10.5T2242 701l-38-70q44-24 91.5-37t84.5-13q39 0 64.5 29t25.5 68q0 54-58 134t-158 183q3 38 15.5 98.5T2293 1216t11 107q0 79-68 128t-170 49q-67 0-108.5-24t-66.5-57q-47 31-109 61.5t-109 47.5q13 62 18.5 111t5.5 85q0 92-71 148t-199 56zm-794-787q-24 0-59.5-22t-63-50-27.5-47q0-8 6.5-14.5t13.5-6.5q13 0 39 20t52.5 40 38.5 20q18 0 40-13t77-53q17-12 29.5.5t3.5 27.5q-15 24-43.5 46.5t-58.5 37-48 14.5zM468 935q-36 0-61.5-29.5T381 835t25.5-70.5T468 735q35 0 60.5 29.5T554 835t-25.5 70.5T468 935zm340 0q-36 0-61.5-29.5T721 835t25.5-70.5T808 735q35 0 60.5 29.5T894 835t-25.5 70.5T808 935zm636 77q-16-164-42.5-309T1349 464q-65-26-154.5-47T959 368q-28 29-46.5 64.5T876 510l-84-39q28-36 54-80.5t37-81.5q-10-20-31.5-46.5T810 217l69-56q24 42 55.5 70.5T1019 282t140.5 43 223.5 47q101-38 194-79t172-80q12-24 23-65t15-76l81 40q-6 34-15 65t-23 60q64 107 140 218.5T2127 663l-67 90q-62-104-112-180t-95.5-138-95.5-122q-88 28-157.5 57.5T1450 454q20 143 46 279t58 271zm27 42q-74 0-144-14t-129-45l39-69q40 25 102 37.5t132 12.5q113 0 223.5-35t208-97.5T2073 697t110-181l67 39q-40 111-122 202.5t-190 158-229 102.5-238 36z"/></svg>