<svg xmlns="http://www.w3.org/2000/svg" viewBox="-10 0 2610 2048"><path d="M515 1209v-74q32-5 61-10.5t57-9.5v74q-28 4-57 9.5t-61 10.5zm0-200v-74q53-10 103.5-18t96.5-17v73q-46 8-96.5 17T515 1009zm187 167v-74q68-12 126-21t107-15v74q-49 6-108 15.5T702 1176zm75-214v-73q26-4 50.5-7.5L873 875v74q-20 2-46.5 6t-49.5 7zM515 809v-74q91-16 173-30.5T840 679v75q-70 10-152 24t-173 31zm617 326q-18-4-35-5t-37-1q-13 0-27.5 1t-34.5 3v-73q20-3 34.5-3.5t27.5-.5q19 0 36.5.5t35.5 4.5zM515 609v-74q38-8 73.5-13.5T658 509v74q-34 7-69.5 12.5T515 609zm-121 811q78-5 166-23.5t175-40.5q84-22 152.5-35.5T1004 1307q86 0 149 19.5t110 56.5V202q-33-80-193-80-71 0-248 27t-428 77zm548-481v-73q36-5 65.5-7.5t52.5-2.5q19 0 36.5 1t35.5 5v74q-18-5-35-5.5t-37-.5q-46 0-118 9zm-30-195v-74q26-4 50-6.5t43-3.5v73q-19 1-43.5 4t-49.5 7zM732 570v-74q53-9 101.5-16.5T923 468v74q-41 5-89 12.5T732 570zm568 1161q-72 0-95-78-8-28-38.5-47t-71.5-19q-54 0-127 13.5t-160 32-183 32-195 13.5q-102 0-144.5-4.5T210 1661V309l110-143 46 59-83 118v1262q32 2 62 3t59 1q120 0 222-13.5t187.5-31 155.5-31 126-13.5q67 0 115.5 34.5t64.5 85.5q8 25 25 25t25-25q16-51 64.5-85.5T1505 1520q56 0 126 13.5t155.5 31 187.5 31 222 13.5q29 0 59-1t62-3V343l-83-118 46-59 110 143v1352q-33 8-75.5 12.5T2170 1678q-92 0-190-13.5t-189.5-32-166-32T1505 1587q-40 0-70.5 19t-39.5 47q-24 78-95 78zM515 409v-74q100-17 190-33t165-27v74q-74 10-164 26t-191 34zm617 327q-17-5-36-6t-39 0v-73q20-1 38.5-.5t36.5 4.5zm336 399v-74q18-4 35.5-4.5t36.5-.5q13 0 28 .5t34 3.5v73q-19-2-34-3t-28-1q-19 0-36.5 1t-35.5 5zm-168 371q-64-69-135.5-97t-160.5-28q-50 0-126 17t-164.5 39.5-180 39.5-173.5 17h-20l-20-1V166q108-22 220-43t215-38 185-27 130-10q215 0 263 133h-66q48-133 263-133 48 0 130 10t185 27 215 38 220 43v1327q-10 1-19.5 1H2240q-82 0-173.5-17t-180-39.5T1722 1398t-126-17q-88 0-160 28t-136 97zm-168-970q-18-5-35-5.5t-37-.5q-12 0-26 1t-31 3v-74q15-2 30-3t27-1q19 0 36.5 1t35.5 5zm766 640q-66-11-125-20.5t-108-15.5v-74q49 6 107.5 15t125.5 21zm-240-237q-72-9-118-9-19 0-36.5.5T1468 936v-74q18-4 35.5-5t36.5-1q23 0 52.5 2.5t65.5 7.5zM947 338v-73q35-5 63.5-7t49.5-2q19 0 36.5 1t35.5 5v74q-18-5-35-5.5t-37-.5q-21 0-49.5 1.5T947 338zm521 398v-75q18-4 36.5-4.5t38.5.5v73q-20-1-39 0t-36 6zm355 226q-22-3-49-7t-47-6v-74q21 3 46 6.5t50 7.5zm262 247q-31-5-60-10.5t-58-9.5v-74q29 4 58 9.5t60 10.5zm-397-465q-25-4-49-7t-44-4v-73q20 1 44 3.5t49 6.5zm518 676V226q-251-50-428-77t-248-27q-160 0-193 80v1181q47-37 110-56.5t149-19.5q48 0 116.5 13.5T1865 1356q87 22 175 40.5t166 23.5zm-121-411q-53-10-103-19t-97-17v-73q47 9 97.5 17t102.5 18zm-617-473v-74q18-4 35.5-5t36.5-1q12 0 27 1t30 3v74q-16-2-30.5-3t-26.5-1q-19 0-36.5.5T1468 536zm617 273q-91-17-173-31t-152-24v-75q70 11 152 25.5t173 30.5zm-217-239q-54-8-102-15.5t-89-12.5v-74q41 4 89.5 11.5T1868 496zm-400-234v-74q18-4 35.5-5t36.5-1q21 0 50 2t63 7v73q-35-5-63.5-6.5T1540 330q-19 0-36.5.5T1468 336zm617 273q-37-8-73-13.5t-70-12.5v-74q35 7 70.5 12.5T2085 535zm0-200q-100-18-190.5-34T1730 349v-74q75 11 165 27t190 33zm-785 1419q-65 0-107.5-25.5T1133 1735l-1023 89V239l182-19-9 74-100 13v1436l995-88q2 55 37 84t85 29 85-29 37-84l995 88V307l-100-13-7-74 180 19v1585l-1023-89q-17 42-59.5 67.5T1300 1828z"/></svg>