<svg xmlns="http://www.w3.org/2000/svg" viewBox="-10 0 2610 2048"><path d="M538 1978V201h1524v1777zm298-340v-80h454v80zm0-243v-81h928v81zm-218 503h1364V281H618zm218-747v-80h928v80zm0-243v-81h928v81zm0-244v-80h928v80zm78-305q-15 0-25.5-10.5T878 322v-33q0-68 48-116.5t116-48.5h36q34 0 57-24.5t23-58.5v-1q0-58 42-100t100-42 100 42 42 100v1q0 34 23 58.5t57 24.5h36q68 0 116 48.5t48 116.5v33q0 16-10.5 26.5T1686 359zm386-248q29 0 49.5-20.5T1370 42q0-29-20.5-49.5T1300-28t-49.5 20.5T1230 42q0 28 21 48.5t49 20.5z"/></svg>