<svg xmlns="http://www.w3.org/2000/svg" viewBox="-10 0 2610 2048"><path d="M624 1842q-20 0-36-18.5t-16-52.5q0-47 31.5-72.5t78-38.5 93.5-22 78.5-22 31.5-38v-40l123 49v60q0 25-25 38.5t-57 21.5-57 17-25 27q0 45-6.5 62.5T818 1831q-21 0-33-16.5t-22-33-25-16.5-33 19-38.5 38.5T624 1842zm398 136q-70 0-70-33 0-24 43-42t143-38q20-4 44-35.5t24-89.5q0-38-18.5-76t-32.5-57l138-53 45 132q7 21 .5 58.5t-15.5 71-9 43.5q0 16 23.5 23t46.5 16.5 23 34.5q0 28-22.5 36.5t-64.5 8.5q-26 0-58-3t-68-3q-57 0-98.5 3t-73.5 3zM501 869q-37 0-64.5-27.5T409 765q0-40 20-85t73-87 152-71q0-62-7.5-103.5T621 348q30-42 83.5-67T812 256q93 0 147 53t54 143q0 73-37.5 129.5t-103 88T721 701q-31 60-73.5 97T565 852t-64 17zm717 482q-151 0-238.5-82T892 1060q0-96 49.5-167T1072 767.5 1247 665l143 155q57 1 103 27.5t46 59.5q0 18-15 41t-38 40q66 26 66 61 0 54-67 94 28 19 28 53 0 41-41.5 76.5t-108.5 57-145 21.5zM721 622q96 0 154-46.5T933 450q0-54-34-87t-93-33q-61 0-110 45 11 43 18 111t7 136zm662 208-128-57-49-84q-40-69-57-143t-34-126q-21-67-87-108.5T885 270q-64 0-116.5 21.5T669 378q-118 0-167.5 31.5T452 521h219v65H366q0-149 59-213.5T632 308q110-116 253-116 106 0 189 52.5T1188 387q22 63 35 129.5t47 123.5zM639 345q-18-50-27-91t-9-71q0-65 30-102t76-37q33 0 62 19 0-65 49-115t111-50q73 0 73 88 44-47 83-67.5t76-20.5q47 0 72.5 30.5T1261 6q0 68-59 148.5T1057 285l-80-36-141-2zm168 150q-17 0-29-17t-12-41q0-23 12-40t29-17 29 17 12 40q0 24-12 41t-29 17zm1004-229q126 0 221 49t148.5 134 53.5 193q0 52-22 76.5t-57 24.5q-13 0-24-5 22 83 22 137 0 44-19.5 71.5T2073 974q-17 0-45-5 3 22 5 44t2 43q0 54-16.5 93t-53.5 39-70.5-24-60-57.5-43.5-61.5q-106 299-262.5 442T1150 1630q-123 0-241-51t-213-137.5T545 1248t-56-219q0-167 129-305l121 117 116-105 143 117-22 96-120-110-108 105-123-97q-28 43-42 89t-14 93q0 96 50 189t134 168.5T940.5 1507t209.5 45q146 0 259.5-67.5t202-211T1770 904q42 64 75 109.5t57 70 39 24.5q11 0 13-12t2-29q0-49-5-96.5t-12-78.5q22 4 41 7t37 3q31 0 43.5-18t12.5-49q0-19-3.5-59.5t-10-82T2044 631q22 11 45 19t42 8q22 0 22-21 0-84-43.5-150.5T1989 382t-178-38q-169 0-259 117.5T1448 828l-80-5q16-281 129-419t314-138z"/></svg>