<svg xmlns="http://www.w3.org/2000/svg" viewBox="-10 0 2610 2048"><path d="M1331 1978q-84 0-123-32.5t-39-54.5q0-18 3.5-68.5t6.5-104.5 3-82q0-100-19-176-105-6-208-39t-187-86-134-118h-15q-115 0-203.5-40.5T276 1063t-51-171q0-68 18.5-116.5t42-87 42-78T346 521q0-269 150.5-412.5T924-38q89-35 155.5-49.5T1215-102q178 0 343.5 90.5T1914 285q269 35 378.5 184.5T2402 905q0 40-8 97t-19 116-19 109.5-8 79.5v307q0 34-48.5 60t-113.5 26q-61 0-105-23.5t-44-63.5q0-46 7.5-86t7.5-94q0-39-30-67.5t-72-28.5q-19 0-54 22t-90 52-132 55-180 31q-4 44-6 88.5t-2 58.5q0 23 2.5 61t5 74.5 2.5 54.5q0 62-47.5 103t-117.5 41zm-438-176q-40 0-75-12t-35-34q0-16 14.5-43t29-63.5T841 1568q0-71-6-112.5t-22-72-47-67.5l303 89q-15 45-22.5 80t-7.5 72q0 27-2 65t-4 68.5-2 37.5q0 28-38 51t-100 23zM451 997q19 0 30-12.5t11-31.5q0-38-33-74t-68-36q-19 0-30 12t-11 32q0 37 33.5 73.5T451 997zm195 195q-102 0-195-37t-152-95-59-121q0-64 46.5-119T408 731t163-34q103 0 192.5 35.5t145 93.5T964 950t-43.5 121-115.5 88-159 33zm38-170q41 0 76.5-26.5T796 938q0-19-14.5-29.5T742 898q-41 0-77 26t-36 57q0 19 15 30t40 11zM481 604q-19 0-34-25t-15-59q0-35 15-59.5t34-24.5q20 0 34.5 24.5T530 520q0 34-14.5 59T481 604zm440 465-2-78q122-5 188-47.5T1210 802l75 25q-46 123-132 180t-232 62zM327 412q-106 0-174.5-73T84 153q0-101 47.5-165T251-76q40 0 40 14 0 7-16.5 21T241-2t-17 64q0 31 23 53t62 22q51 0 84.5-33t66-76 80-76T666-81q95 0 144 57L534 137 408 399q-44 13-81 13zm1448 1239q-36 0-64.5-9.5T1682 1616q0-18 19-42.5t19-73.5q0-10-1.5-33t-6.5-45l203-114v266q0 31-39 54t-101 23zM907 663q-22 0-38-27.5T853 570t16-65.5 38-27.5 38 27.5 16 65.5-16 65.5-38 27.5zm433 1235q32 0 54-16t22-39q0-31-2.5-69t-5-73.5-2.5-56.5q0-11 1-39t3-63 5.5-68.5 9.5-54.5q117 0 204-24.5t149-56.5 103.5-56.5 68.5-24.5q74 0 128 51t54 125q0 18-4 49t-7.5 60.5-3.5 45.5q0 17 20 24.5t49 7.5q31 0 56.5-7t25.5-29v-277q0-49 13.5-117t27-143 13.5-142q0-181-42-294t-138.5-172-259.5-77q-131-140-240.5-224T1429 16t-214-38q-67 0-129 14.5T935 43q-252 0-380.5 119.5T426 521q0 70-18.5 114t-42 78.5-42 75T305 892q0 110 86 177.5t228 67.5q14 0 28-.5t27-3.5q14 38 64.5 81.5t127 82T1033 1359t184 24q13 16 23 57t16 93 6 103q0 38-5 89t-5 130q0 22 30 32.5t58 10.5zm88-1364q-116 0-220.5-35t-185-94.5-127-134.5T849 114q0-83 51.5-121.5T1033-46q72 0 124 31.5t94.5 78.5 83.5 94 90.5 78.5T1542 268q88 0 138-51t50-114q0-28-7.5-62T1707-22t-8-42q0-22 26-22 30 0 60 35t50 95.5 20 137.5q0 158-113.5 255T1428 534zm1044 786q-49 0-83-19.5t-54-50.5l57-286q6-2 9-2 35 0 62.5 27t27.5 70q0 41-15.5 81.5T2460 1212q0 27 14 42t28 23.5 14 18.5q0 24-44 24z"/></svg>