<svg xmlns="http://www.w3.org/2000/svg" viewBox="-10 0 2610 2048"><path d="m1611 1978-225-168-170 149h-50l-183-225-162 151h-64q-27-77-39.5-168.5T705 1515q0-26 1.5-52t2.5-51q-64-12-110.5-64.5T552 1201q0-54 9-94t28-81l190-30q160 0 274-35t175-97 61-143q0-93-62.5-143.5T1076 527q-57 0-113 22.5T861.5 610 789 696q-115-44-169-116t-54-154q0-91 59-144t157-63q84-9 113.5-34t37.5-67q20-104 78.5-140T1131-58q64 0 101.5 23.5t65 47T1356 36q29 0 49-21t43-48 57.5-48 91.5-21q91 0 153.5 62t62.5 173q0 85-41.5 154T1640 427q296 169 465 491.5t235 813.5l-40 38-202-51-82 182-55 10-164-119-139 181zM260 1054q0-105 59-198t177-155.5T791 627q38 46 52.5 94.5T858 841q0 106-25 159.5t-81 53.5zm81-75h419q10-31 14.5-64.5T779 841t-4.5-73.5T760 703q-101 0-191.5 37.5T417 840.5 341 979zm903 337q-12-54-25-99.5t-27-88.5l70-22q17 44 30.5 91.5T1318 1300zm327 118q-30-100-70-181l67-32q20 38 37.5 82.5T1643 1411zm55 467 158-207 188 136 85-198 198 50q-33-278-119.5-510T1921 770t-287-263-336-93q-52 0-107.5 9t-83.5 24q69 2 127.5 38t94 96.5T1364 721q0 90-52.5 154t-134 104-168.5 59q2 17 4 38.5t2 41.5q0 73-22.5 138t-73 107.5T784 1414q-2 28-3.5 56t-1.5 57q0 85 6 152t19 123l179-171 215 249 189-165zm200-649q-18-41-38.5-82t-49.5-95l65-34q26 45 48 88.5t43 93.5zm-245-274q-25-49-50-90t-53-81l64-40q29 41 54.5 84t50.5 93zm-539-160q-34 0-55.5-21.5T965 741t21.5-55.5T1042 664t55.5 21.5T1119 741t-21.5 55.5T1042 818z"/></svg>