<svg xmlns="http://www.w3.org/2000/svg" viewBox="-10 0 2610 2048"><path d="M875 1897q-39 0-74-52.5T755 1707q-22 4-47.5 6.5T656 1716q-79 0-107.5-29T520 1579q0-57 11-126.5t31.5-142.5 47.5-138q-92-53-172-122.5t-129-137T260 800q0-30 21-57.5t54.5-49T404 660q-25-45-40.5-94T348 494q0-49 54.5-83T561 359t250-18q14 0 27 .5t25 1.5q16-71 48.5-148t73-145 81-110 71.5-42q23 0 72.5 32T1300 3q41-41 91-73t72-32q32 0 72 42t80.5 110 73 145 48.5 148q12-1 25.5-1.5t26.5-.5q147 0 250.5 18t158 52 54.5 83q0 23-15.5 72t-40.5 94q36 12 69 33.5t54 49 21 57.5q0 45-49 112.5t-128.5 137T1990 1172q27 65 47 138t31.5 142.5T2080 1579q0 79-28.5 108t-107.5 29q-25 0-51-2.5t-48-6.5q-10 85-45.5 137.5T1725 1897q-33 0-102.5-37t-155-97.5T1300 1630q-81 72-167 132.5T977.5 1860 875 1897zm-314-374-268-119 112-155-161-81 155-215 64 46-99 139 161 81-110 151 178 79zm599 455-131-189 66-45 79 114 126-118 126 118 79-114 66 45-131 189-140-128zm140-630q-30 0-51.5-21.5T1227 1275t21.5-51.5 51.5-21.5 51.5 21.5 21.5 51.5-21.5 51.5-51.5 21.5zm-240-260q-30 0-51.5-21.5T987 1015t21.5-51.5T1060 942t51.5 21.5 21.5 51.5-21.5 51.5-51.5 21.5zm240 0q-30 0-51.5-21.5T1227 1015t21.5-51.5T1300 942t51.5 21.5 21.5 51.5-21.5 51.5-51.5 21.5zm-240-260q-30 0-51.5-21.5T987 755t21.5-51.5T1060 682t51.5 21.5T1133 755t-21.5 51.5T1060 828zm-179 989q17 0 64.5-27.5t111-72 128-95.5 115.5-98q51 47 115.5 98t128 95.5 111.5 72 64 27.5q23 0 38.5-56t26.5-141q25 6 73.5 12.5t88.5 6.5q33 0 45-8.5t12-31.5q0-47-10.5-113.5T1965 1349t-37-128-39-87q57-24 121.5-67.5t121-93.5 92-94.5T2259 807q0-22-24-45t-64-41.5-89-26.5q21-27 42.5-64t36-70.5T2175 512q0-28-55-50.5T1973 425t-202-14q-22 0-46 2t-41 4q-13-46-43-119t-66.5-146.5-68-123.5-47.5-50q-8 0-35 17.5t-60.5 45T1300 98q-29-30-63-57.5t-60.5-45T1141-22q-16 0-47.5 50t-68 123.5T959 298t-43 119q-17-2-40.5-4t-46.5-2q-110 0-202 14t-147 36.5-55 50.5q0 14 14.5 47.5T476 630t42 64q-48 8-88.5 26.5T365 762t-24 45q0 27 35.5 72t92 94.5 121 93T711 1134q-19 29-39 87t-37 128-27.5 136.5T597 1599q0 23 12 31.5t45 8.5q40 0 88.5-6.5T816 1620q11 85 27 141t38 56zm659-729q-30 0-51.5-21.5T1467 1015t21.5-51.5T1540 942t51.5 21.5 21.5 51.5-21.5 51.5-51.5 21.5zm-240-260q-30 0-51.5-21.5T1227 755t21.5-51.5T1300 682t51.5 21.5T1373 755t-21.5 51.5T1300 828zM566 402V137l179 30V-23l286 60-16 78-190-40v186l-179-30v171zm974 426q-30 0-51.5-21.5T1467 755t21.5-51.5T1540 682t51.5 21.5T1613 755t-21.5 51.5T1540 828zm499 695-32-74 178-79-110-151 161-81-99-139 64-46 155 215-161 81 112 155zm-85-1121V231l-179 30V75l-190 40-16-78 286-60v190l179-30v265z"/></svg>