<svg xmlns="http://www.w3.org/2000/svg" viewBox="-10 0 2610 2048"><path d="M1117 1978q-100 0-211.5-9.5T699 1947q-86-11-132-25.5t-63-36-17-52.5q0-26 11-47t36-40l23 36q-55 50-98.5 74t-80.5 24q-32 0-54-14t-33-41-11-65q0-25 3.5-52.5T294 1641q10-52 17.5-140t7.5-168q0-44-2-83.5t-5-82.5q-4-50-5.5-93t-1.5-80q0-92 20.5-171.5T384 681q57-92 145-139.5T756 483q46-4 64.5-7.5T848 464q14-13 18.5-34.5T875 363q10-98 27-166.5T971 69q68-79 185.5-121.5T1423-95q49 0 102.5 3.5T1643-80q42 5 92 9.5t102 4.5q41 0 90-4t89-12q42-9 76.5-14.5t63.5-5.5q57 0 88 23t31 67q0 31-11.5 63.5T2224 116q-25 30-58.5 64t-65.5 66l-29-22q17-19 44.5-29.5T2173 184q61 0 95.5 47t43.5 151q5 61 6.5 123t1.5 134q0 47-1.5 96t-3.5 105q-6 143-25.5 270t-69.5 241.5-149 223.5q-117 129-266.5 219T1481 1931t-364 47zm28-243q-21 0-33.5-10.5T1099 1695q0-17 12.5-28.5t33.5-11.5q109 0 187.5-16t166.5-47q17-6 33 1t20 24q10 35-22 50-91 43-183.5 55.5T1145 1735zm-28 163q179 0 343-44.5t305.5-130T2016 1516q91-101 136-206t61.5-220 21.5-244q2-57 3.5-108t1.5-99q0-64-1.5-127t-6.5-125q-4-53-21.5-83.5T2167 273q-24 0-48.5 13t-45.5 38q-69 81-120.5 154T1858 632.5 1770 819q-40 96-87.5 182.5T1547 1171q-76 72-183.5 137.5T1110 1441q-43 19-85.5 40.5T940 1528q-59 35-105.5 65.5t-88.5 62-90 70.5q-52 43-67 62t-15 35q0 18 24 27t111 19q98 11 209 20t199 9zm-729-108q14 0 28-7t40-28q60-48 122-125.5t118-170 97-183.5q20-45 41.5-88t40.5-65q29-33 71-52.5t90-36.5q65-23 127.5-60t105.5-79q45-44 81-98.5t59-115.5q15-40 30.5-76.5t33-67.5 39.5-51q25-23 66-45t120-54q51-21 122-58t152-93.5T2132 100q23-23 42-49.5T2193 7q0-29-49-29-24 0-52.5 5T2028-3q-46 12-98.5 14.5T1837 14q-46 0-97.5-3.5T1635 0q-58-8-110-11.5T1423-15q-86 0-162 17t-135.5 48-96.5 74q-33 38-50.5 98T953 376q-4 58-17.5 95T899 528q-16 14-44 21t-83 12q-127 10-199 48T451 724q-34 52-50 118t-16 152q0 43 2 85t6 85q4 42 5 84.5t1 84.5q0 82-4.5 168.5T376 1650q-7 31-10 54.5t-3 42.5q0 23 6 33t19 10zm744-1475q-13-12-12.5-28.5T1133 257q35-35 89.5-62.5T1345 151t144-16q18 0 30.5 11t12.5 30q0 16-10.5 27.5T1494 216q-70 3-128.5 16t-103 33.5T1190 314q-13 13-29.5 12.5T1132 315z"/></svg>