<svg xmlns="http://www.w3.org/2000/svg" viewBox="-10 0 2610 2048"><path d="m292 1978-52-61 782-646q126-104 179-174t53-128q0-49-28-89.5t-70-65.5-86-25q-33 0-61 16l-727 443-42-68 727-443q47-28 103-28 65 0 125.5 35t99.5 94 39 131q0 81-61 164.5T1072 1333zm819-5-60-52 313-351q64-71 87.5-122.5T1475 1335q0-15-1-23l68-69q13 36 13 92 0 76-29.5 141T1424 1622zM701 990l-52-60q136-118 136-213 0-46-30-83.5T679 573t-95-23q-43 0-78 19L278 693l-38-70 228-124q27-15 56.5-22t59.5-7q70 0 134.5 33T824 592t41 125q0 65-42 135T701 990zM545 782q-67 0-118.5-39T375 652q0-35 33.5-78.5T494 490t108.5-66T705 398q36 0 70.5 26.5t56.5 67 22 83.5q0 48-47 95.5T688.5 750 545 782zm727 663q-64 0-113.5-34t-49.5-89q0-34 28.5-79.5t73-89 95-72 94.5-28.5q35 0 70.5 22.5t59.5 58.5 24 76q0 47-42 102t-106.5 94-133.5 39zm-276-383q-67 0-114.5-41T834 922q0-35 33.5-78.5T953 760t108-65.5 102-25.5q36 0 70.5 26.5T1290 762t22 82q0 49-48 99.5t-121 84.5-147 34zm661-75q-90 0-127.5-38t-37.5-76q0-50 35-63 62-24 115.5-51t80.5-66q62 0 80.5 28t18.5 57q0 46-27.5 94.5t-66 81.5-71.5 33zm105-205q0-31 24-67t53-55l86-233q7-19-4.5-32.5T1893 381q-22 0-32 26l-89 230q2 14 2 21 0 24-9.5 45.5T1738 745h-71q19-13 34-40t15-52q0-13-6-22l118-303 173 66-112 305q-15 4-30.5 19t-26 32.5T1822 782zm303-223q-38 0-70.5-5t-75.5-15l51-137-119-42-56 139q-136-61-191-121t-26-116l190-364h592l-109 567q-10 50-57 72t-129 22zm109-119 89-462h-446l-160 306q164 0 292 39.5T2174 440z"/></svg>