<svg xmlns="http://www.w3.org/2000/svg" viewBox="-10 0 2610 2048"><path d="M1300 1978q-99 0-208.5-53T873 1779.5t-206.5-211T493 1318t-119.5-265T330 801q0-143 51-276.5T523 277 736 78t265.5-132.5T1300-102t298.5 47.5T1864 78t213 199 142 247.5 51 276.5q0 119-43.5 252T2107 1318t-173.5 250.5-206.5 211-218.5 145.5-208.5 53zm0-365q-65 0-132.5-24.5t-113-61-45.5-73.5 34-37q17 0 49.5 14t83.5 28 124 14 124-14 83.5-28 49.5-14q34 0 34 37t-45.5 73.5-112.5 61-133 24.5zm-303-348q-129 0-232.5-60T601 1041.5 541 808q0-88 34.5-123.5T697 649q135 0 238.5 58.5T1098 868t59 235q0 90-35.5 126T997 1265zm303 633q88 0 187.5-50.5t199-137.5 190-198.5 161-234.5 111.5-245.5 41-230.5q0-162-71.5-310T1922 227.5 1637 45t-337-67-337 67-285 182.5T481.5 491 410 801q0 108 41 230.5T562.5 1277t161 234.5 190 198.5 199 137.5T1300 1898zm303-633q-89 0-124.5-36t-35.5-126q0-133 59-235t163-160.5 238-58.5q87 0 121.5 35.5T2059 808q0 130-60 233.5T1836 1205t-233 60z"/></svg>