<svg xmlns="http://www.w3.org/2000/svg" viewBox="-10 0 2610 2048"><path d="M1801 1448q-134 0-231-21.5t-171-61.5-140-95.5-138-123.5q-69-65-125-110.5T885 957t-120-58-152-47q-54-14-112-32.5T393 773t-81.5-68.5T280 608q0-58 44.5-93T440 464t151-16q124 0 259 35.5t268.5 98T1371 726q38 25 76.5 49.5T1527 821q108 55 223 81t229 44q101 16 177.5 43.5t120 77T2320 1200q0 64-42 106t-110 72q-82 36-183 53t-184 17zM773 1140q-113-1-203.5-18.5T408 1072t-128-78V608l80 21v322q61 48 160 77.5t213 31.5l-22 34V855l177 80zm1028 228q84 0 174-14t160-45q51-23 78-49.5t27-66.5q0-56-38-88t-103.5-50.5T1950 1021q-124-23-246.5-53T1479 885q-36-19-76-44t-75-49q-116-79-242.5-138.5T833 561t-242-33q-109 0-167.5 23.5T365 619q0 39 34 66.5t92.5 47.5T621 772q95 24 165 51t129.5 62 121 84 137.5 119q68 62 132 113.5t134.5 88.5 158 57.5T1801 1368zm-94 21q-58-3-123-18t-125.5-39.5T1352 1277q-17-82-17-143 0-123 52.5-216t146-145 217.5-52q30 0 66 7.5t70 23.5l218 100q35 16 49 37t14 56q0 13-2 29.5t-6 36.5l-290-51q-80 55-123.5 142.5T1703 1304q0 12 1 29.5t3 55.5z"/></svg>