<svg xmlns="http://www.w3.org/2000/svg" viewBox="-10 0 2610 2048"><path d="M1849 1978q-162 0-342-64t-361.5-184.5T796 1441q-167-168-287.5-349T324 732t-64-341q0-110 47-214T432 9q28-55 74-83t98-28q68 0 147 42T909 62q80 81 117 153t37 143q0 55-30.5 103.5T950 542l-21 25q-22 26-33 53.5T885 704q0 27 14 68.5t47 86.5q49 67 97 126.5t101 110.5q50 49 109 98.5t126 97.5q45 32 87 46.5t70 14.5q56 0 83-11.5t53-33.5l26-21q31-52 80-82.5t104-30.5q71 0 143 37t152 117q80 79 121.5 157.5T2340 1632q0 52-27 98.5t-82 74.5q-64 78-168 125.5t-214 47.5zm0-80q101 0 168-29.5t109-75.5q14-16 18.5-33t4.5-35q0-37-33-90t-110-130q-69-70-128-105.5t-106-35.5q-22 0-38 5.5t-32 16.5q-32 22-69 34.5t-90 12.5q-90 0-205-70t-252-212q-136-141-208.5-252.5T805 697q0-53 12-90t34-69q11-16 16.5-32t5.5-38q0-48-36-106T732 234q-76-77-129.5-110.5T512 90q-18 0-35 5t-33 19q-46 42-75 109t-29 168q0 150 62 319.5t177 342T853 1385q160 160 333 275t342.5 176.5T1849 1898zM936 491l-12-17q22-8 44-37.5t22-78.5q0-57-29.5-113.5T857 112Q780 32 717.5 1T605-30q-44 0-69.5 22T493 52l-6-13q20-14 48-14 40 0 103.5 34T786 181q92 95 124 153.5t32 95.5q0 23-2 32t-4 29zm1269 1258-18-5q38-17 59.5-42.5t21.5-69.5q0-50-30-112.5T2128 1380q-76-74-133-103.5t-113-29.5q-49 0-77.5 23t-43.5 52l-12-21q20-2 29-4t31-2q38 0 96 32.5t153 123.5q88 84 122 147.5t34 103.5q0 13-2.5 24.5t-6.5 22.5z"/></svg>