<svg xmlns="http://www.w3.org/2000/svg" viewBox="-10 0 2610 2048"><path d="M1300 1928q-240 0-449-67t-366.5-185.5-246-276.5-88.5-339q0-128 45.5-255T324 556q-10-47-17-106t-7-104q0-116 52.5-205.5t143-141T699-52q91 0 174.5 33T1024 72t106 135q31 3 77.5 5t92.5 2q47 0 93-2t77-5q40-77 107.5-135.5t151.5-91T1901-52q116 0 206 51.5t141.5 141T2300 346q0 45-6.5 104T2276 556q83 122 128.5 249t45.5 255q0 181-88.5 339t-246 276.5T1749 1861t-449 67zM1035 889q-27 0-46.5-22.5T969 813q0-32 19.5-54t46.5-22 46.5 22 19.5 54q0 31-19.5 53.5T1035 889zM749 604q-56 0-95.5-47T614 443q0-66 39.5-113t95.5-47 95 47 39 113q0 67-39 114t-95 47zm551 1244q224 0 418-60.5t340.5-168.5 229-251 82.5-308q0-120-44.5-239T2190 569q8-27 15-67t11-81.5 4-74.5q0-94-41-165.5t-112.5-112T1901 28q-81 0-157 33t-134 89.5-85 129.5q-10 5-78 9.5t-147 4.5-147-4.5-78-9.5q-27-73-84-129.5T858 61 699 28q-91 0-163.5 40.5t-114 112T380 346q0 33 4 74.5t11 81.5 15 67q-91 133-135.5 252T230 1060q0 165 82.5 308t229 251 341 168.5T1300 1848zm265-959q-27 0-46.5-22.5T1499 813q0-32 19.5-54t46.5-22 46.5 22 19.5 54q0 31-19.5 53.5T1565 889zm286-285q-55 0-94.5-47T1717 443q0-66 39.5-113t94.5-47q56 0 95.5 47t39.5 113q0 67-39.5 114t-95.5 47zm137 350q47 0 81.5 39.5t34.5 83.5q0 55-48.5 108.5t-131 101.5-187 85-217.5 58-220 21-220-21-217.5-58-187-85-131-101.5T496 1077q0-44 35-83.5t81-39.5q32 0 88 19.5t139.5 44.5 197.5 44.5 263 19.5 263-19.5 197.5-44.5 139.5-44.5 88-19.5zM686 1208q123 73 287 118t327 45 327-45 287-118q-47-71-112-116-122 34-250 52t-252 18-252-18-250-52q-65 45-112 116z"/></svg>