<svg xmlns="http://www.w3.org/2000/svg" viewBox="-10 0 2610 2048"><path d="M675 1778q47-122 70.5-203t23.5-117q0-34-21.5-63t-88.5-79q-54-41-113-100t-100-154.5T405 814q0-223 108-383.5T822 184t479-86q428 0 661 193t233 549q0 147-65 269t-184 211-282.5 137-360.5 48q-16 0-58-1t-76-5q-73 126-184 191t-310 88zm177-870q-43 0-73.5-30T748 805t30.5-72.5T852 703t72.5 29.5T954 805t-29.5 73-72.5 30zm-56 768q117-20 190-80t140-184q25 4 55 7t62 4.5 60 1.5q241 0 423.5-74.5T2012 1144t103-304q0-321-209.5-491.5T1301 178q-256 0-439 76T582 472t-97 342q0 132 33.5 213t85 132 105.5 93q79 61 109.5 105.5T849 1458q0 40-13.5 96.5T796 1676zm510-768q-43 0-72.5-30t-29.5-73 29.5-72.5T1306 703q44 0 73.5 29.5T1409 805t-29.5 73-73.5 30zm455 0q-42 0-72-30t-30-73 30-72.5 72-29.5q44 0 74 29.5t30 72.5-30 73-74 30z"/></svg>