<svg xmlns="http://www.w3.org/2000/svg" viewBox="-10 0 2610 2048"><path d="M419 1978q-110 0-178-58t-84-164q-8-59-14.5-159.5t-9.5-221-3-238.5q0-173 6.5-340T156 494q11-122 78.5-188.5T415 239h1770q113 0 181 66.5t78 188.5q12 136 19 303t7 340q0 118-3.5 238.5t-9.5 221-14 159.5q-14 106-83 164t-179 58zm706-605h350v-170h-350zm-80 80V873h510v580zm-626 445h1762q160 0 183-154 9-62 15-165.5t8.5-221 2.5-220.5q0-89-2-176t-6-169q-40 105-136 185.5T1972 1107t-466 63v-79q235-10 399-47.5T2170 936t147.5-177.5T2364 500q0-90-48.5-135.5T2185 319H415q-82 0-130.5 45.5T236 500q0 151 46.5 259t148 178 265 107 397.5 47v79q-287-14-465-63T354 977.5 218 792q-4 82-6 169t-2 176q0 103 3 220.5t8.5 221T236 1744q23 154 183 154zm706-775h350V953h-350zM970 263V36h80v227zm32-142q-23 0-38-17t-15-44q0-69 100.5-115.5T1301-102t250.5 46.5T1651 60q0 27-15 44t-38 17q-14 0-34-10-64-32-122-45.5T1301 52q-85 0-142.5 13.5T1036 111q-20 10-34 10zm548 142V36h80v227z"/></svg>