<svg xmlns="http://www.w3.org/2000/svg" viewBox="-10 0 2610 2048"><path d="M1683 1739q-114 0-210-27t-161-73q-79 24-160 24-141 0-248-71t-148-192l76-25q32 95 118.5 151.5T1152 1583q90 0 176-34 55 52 148.5 81t206.5 29q163 0 285-56.5t190.5-158T2227 1209q0-127-64.5-213.5T1975 870l55-58q133 45 205 147.5t72 249.5q0 160-81 279t-221.5 185-321.5 66zM621 1840l-31-72q123-48 202.5-106T914 1533l69 45q-49 81-140 146.5T621 1840zm-193-236-4-80q114-7 207-25t175-49l28 74q-176 68-406 80zm564 364-66-42q54-86 87-169.5t48-168.5l79 14q-30 182-148 366zm-620-794q-39 0-96-16l20-76q50 12 75 12 21 0 41-7t52-24l36 67q-73 44-128 44zm976 804-80-6q3-50 3-102 0-61-3.5-126t-11.5-132l80-12q8 72 11.5 139.5t3.5 131.5q0 28-.5 54.5t-2.5 52.5zM260 831q-41-6-67.5-41.5T166 703q0-56 36-94.5t90-38.5q39 0 71 30zm716 781-169-222 150-62 128-108 72-200q84 166 133.5 328t49.5 277zm-289-163q-140 0-248.5-65t-170-182.5T207 926q0-163 63.5-292T449 429.5 718 354q142 0 260 67.5t188.5 186T1237 879q0 160-71 289t-195 205-284 76zm0-80q135 0 241-64t167.5-175 61.5-251q0-127-58-227.5t-157-159T718 434q-127 0-224.5 62.5t-152 173T287 926q0 133 50 233t140 155 210 55zm50-398q-66 0-113-47t-47-113q0-65 47-112t113-47q65 0 112 47t47 112q0 66-47 113t-112 47zm833 737q-7-164-63.5-338.5T1363 1056l180-56q58 80 105 197t75 246 28 244zM590 432q-46-124-82.5-197.5t-77.5-111-99.5-53T182 47l8-80Q298-23 367-3t117 64.5T572.5 187 664 399zm295 18q0-175-21-271T787.5 39 627-23l14-79q130 24 200 80t97.5 167T966 447zm1075 1193q-19-458-252-658l170-78q125 124 187 279t62 345zm-746-622q142 0 279.5-27.5t258.5-77T1965.5 801t145-143 52.5-160q0-50-20-110t-52-114-69.5-88.5T1948 151q-17 0-43.5 17t-74 64T1705 367t-198 229-293 347zm-14 79V833q110-117 205.5-230T1574 389.5 1688 210t41-127q0-42-61-74.5T1512-24q-92 0-173.5 34.5t-132 89.5-48.5 116l16 446-82-69-14-373q-3-84 57.5-157.5t160.5-119 216-45.5q81 0 148 24t106.5 63.5T1806 71q0 28-15.5 62.5T1740 233l-1-10q70-79 118-114.5t91-35.5q49 0 100.5 39.5T2144 216t71.5 138 27.5 144q0 120-84 228.5T1929.5 919 1596 1051.5t-396 48.5zm1085 72-93-234 242 23z"/></svg>