<svg xmlns="http://www.w3.org/2000/svg" viewBox="-10 0 2610 2048"><path d="M1386 1978q-76 0-120.5-23.5T1221 1891q0-27 12-47.5t26-39 19-38.5l50-213q5-21 3-55t-9-69-17-58q-26 4-60.5 7t-101.5 3q-259 0-390-147.5T622 793V658q-46-18-74.5-32.5T494 593q-21 8-49 16.5t-78 8.5q-82 0-139.5-64T170 400q0-93 64-170t172-99l149-31L807-32q15-35 41.5-52.5T909-102q39 0 65 21.5t35 59.5q34 12 69 42 23-6 43-6 52 0 88 38.5t36 96.5q0 41-21.5 78t-59.5 65q-4 88-33 163t-73 122q-5 24-7.5 44t-2.5 43q0 60 18.5 91t61.5 40q12-63 43.5-106.5T1255 609q-7-40-10.5-76.5T1241 461q0-130 35-238t95.5-173T1508-15q53 0 98.5 37t79.5 96q31-54 76.5-91t98.5-37q82 0 143.5 73.5t98 207T2145 586q98 72 150.5 190.5T2348 1096q0 43 20.5 98t41 105 20.5 78q0 27-23.5 46t-71.5 19q-44 0-87-26t-72-61q10 36 19.5 80t16 81.5 5.5 56.5q-1 17-11.5 66t-24 102.5-25.5 85.5q-25 70-66 97t-119 27q-55 0-91.5-26t-36.5-64q0-34 16-59t33-44 20-34l36-154q5-19-4-54t-25-73-34-64q-55 19-130.5 31t-158.5 14v39q0 25 5 61.5t5 56.5q0 14-4.5 36t-17.5 69l-26 96q-7 25-6 43.5t1 35.5q0 61-39 89t-128 28zm-340-62q-52 0-85.5-15t-33.5-38q0-26 28-48.5t34-44.5l44-169q3-11 1-51t-7.5-95.5T1014 1344l199 5q7 62 11 122.5t4 104-6 57.5l-74 187q-4 12-3.5 33.5t-6.5 36.5q-5 11-31 18.5t-61 7.5zm10-406q-49 0-99-17.5t-96-56.5q-72 0-145.5-22.5t-122.5-81-49-167.5q-77-52-106-107t-29-105q0-59 26.5-110.5t53-85.5 26.5-39q0-16-18-65t-18-103l29-12 162 84 13 365 101 214 248 118 270 19q0 42-34 81.5t-90 65-122 25.5zM330 402q-31-8-59.5-36T242 317q0-15 14-15 11 0 38 14.5t46 31.5q58-23 76-23t18 17q0 19-29 35.5T330 402zm1381 1442q-86 0-86-44 0-24 14-50t25-41q6-8 15-40t16-67 7-50q0-18-7-64.5t-19-100.5l163-36q17 73 27 127t5 71l-47 186q-16 66-38.5 87.5T1711 1844zm-325 59q38 0 62-12t24-30q0-24-1.5-41.5t3.5-36.5l34-123q11-40 14-53.5t3-26.5q0-32-4.5-65.5t-4.5-51.5v-118h37q101 0 200.5-14t178.5-42q28 48 51.5 106.5t37 107.5 8.5 70l-40 175q-5 23-21.5 35.5t-31 23-14.5 28.5q0 16 20 28.5t45 12.5q29 0 52.5-13.5t32.5-35.5q7-17 18-52.5t21.5-76 18-72.5 7.5-42q0-59-18-155.5t-78-274.5l71-35q24 57 62 112t77 91 65 36 26-31q0-13-18.5-51.5t-37-86.5-18.5-87q0-132-21.5-221T2180 730.5 2065 621q0-162-30.5-286.5T1957 140t-96-70q-38 0-74 47.5T1729 241l-81-6q-30-79-66.5-124.5T1508 65q-42 0-85.5 58T1350 271.5 1321 461q0 52 6.5 100t12.5 83q-66 33-105.5 94.5T1190 882q-104-2-163-49t-59-168q0-35 5.5-67.5T989 528q44-30 69.5-105t25.5-177q41-18 61-44t20-52q0-29-19-45.5T1092 88q-33 0-64 14-8-15-31.5-24T935 69l-273 61q-28 22-47.5 32.5T575 178l-149 31q-83 17-129.5 71.5T250 400q0 59 36 98.5t91 39.5q58 0 134-35 33 30 74.5 52.5T702 598v195q0 259 107.5 383.5T1143 1301q52 0 113-4.5t105-11.5q19 41 31.5 96t17 107-3.5 85l-53 224q-4 17-25 34t-21 35q0 17 21 27t58 10zM793 388q-14 0-14-11 0-10 15-24t22-29q-11 0-17-2-11 16-30.5 29T735 364q-17 0-17-15 0-9 19.5-17t30.5-21q-6-3-12-7-30 25-57 25-21 0-21-14t18-16 39-21q-5-10-5-15 0-22 60-22 90 0 90 37 0 17-27 34-7 31-24.5 53.5T793 388zM639 236q-40 0-63.5-28T552 133q-22 12-45 12-37 0-64-28.5T416 43q0-62 62.5-101T641-97q98 0 177.5 37.5T929 39q-76 94-152.5 145.5T639 236zm1060 318q-29 0-42-27.5t-20.5-63-19-63T1580 373q-24 0-33.5 26t-20 52-38.5 26q-23 0-32.5-19.5t-14-44.5-13.5-44.5-30-19.5q-25 0-42.5 19.5t-33.5 39-38 19.5l93-319 179-86 154 181 133-188 195 148 47 235q-21 0-35-21.5l-28-43-35-21.5q-14 0-22 18.5t-8 71.5q0 37-5.5 53t-23.5 16q-26 0-40.5-24.5T1855 398t-54-24q-25 0-33.5 27t-13 63-15.5 63-40 27z"/></svg>