<svg xmlns="http://www.w3.org/2000/svg" viewBox="-10 0 2610 2048"><path d="M1300 1978 265 1481V512L1300 9l62 30-49 66-13-6-903 438 903 436 903-436-483-234 61-60 554 269v969zm-40-107v-574L345 861v570zm0-657v-171L345 601v171zM962 703q-36 0-61-15t-25-35 25-35 61-15q35 0 60 15t25 35-25 35-60 15zm378 1168 915-440V861l-915 436zm0-657 915-442V601l-915 442zm190-499L904 402l196-99q85-154 188.5-259.5T1501-102l521 264q-124 33-237 134t-202 255l138 69zm-59-121q71-146 164.5-258T1837 157L1498-13q-101 48-198 162.5T1129 425z"/></svg>