<svg xmlns="http://www.w3.org/2000/svg" viewBox="-10 0 2610 2048"><path d="M750 1358q-124 0-220-17.5T371 1269t-88-162l-38-165q-10-47-23.5-66.5T183 842l-53-30V602q36-18 107.5-33.5t159-26.5T570 524.5t149-6.5q140 0 245 23t212 79q29-2 67-3t57-1q20 0 57.5 1t66.5 3q107-56 212.5-79t244.5-23q63 0 149 6.5t173.5 17.5 159 26.5T2470 602v210l-53 30q-25 14-38 33.5t-24 66.5l-38 165q-25 108-88 162t-159 71.5-220 17.5q-114 0-197.5-19t-140.5-71.5-91-150.5l-52-151q-13-38-28.5-53t-40.5-15-40.5 15-28.5 53l-52 151q-34 98-91 150.5T947.5 1339 750 1358zM564 878l31-15.5 30-15.5q17-9 24-22.5t2-28.5q-6-17-24-23t-35 1q-14 5-34 16t-33 19q-21 13-25 30t6 32q9 13 24 15t34-8zm203 325q-145 0-223-24t-108-94-30-209q0-83 27.5-125.5t98-57.5T732 678q129 0 202 18t103.5 60 30.5 115q0 69-11.5 123t-33.5 97q-30 59-89.5 85.5T767 1203zm-17 75q102 0 169.5-12t111-52.5T1103 1090l56-159q21-59 54.5-85.5T1300 819t86.5 26.5T1441 931l56 159q30 83 73 123.5t110.5 52.5 169.5 12q117 0 197-14t127.5-55 65.5-121l37-166q9-41 22-68t34.5-47.5T2390 767V656q-38-13-103.5-23.5t-141-18.5-146-12-118.5-4q-87 0-158.5 9.5t-141 31.5-152.5 62q-34-2-66.5-3.5T1300 696t-62 1.5-67 3.5q-83-40-152.5-62T878 607.5 719 598q-48 0-118.5 4t-146 12-141 18.5T210 656v111q35 19 56.5 39.5T301 854t22 68l37 166q18 80 65.5 121t127.5 55 197 14zm941-400 31-15.5 30-15.5q17-9 24-22.5t2-28.5q-6-17-24-23t-35 1q-14 5-34 16t-33 19q-21 13-25 30t6 32q9 13 24 15t34-8zm142 325q-107 0-166.5-26.5T1577 1091q-22-43-33.5-97T1532 871q0-73 30.5-115t104-60 201.5-18q130 0 200.5 15t98 57.5T2194 876q0 139-30 209t-108 94-223 24z"/></svg>