<svg xmlns="http://www.w3.org/2000/svg" viewBox="-10 0 2610 2048"><path d="m1471 162-58 400-493 494-400 57-263-264 58-401L809-45l399-57zm-86 28L1180-16 846 31 391 485l-48 336 205 206 335-47 454-455zM1154-58l78 12-53 373-493 494-378 53-11-79 352-50 454-455zm-42 394 58-56 231 233-57 56zM638 810l58-56 231 233-57 56zm268 201 54-58 314 275q20 17 57.5 6t82.5-42 85-74q35-38 61.5-81t37.5-78.5-3-49.5l-285-307 57-53 286 306q27 28 27 76 0 51-32.5 114t-90.5 126q-63 68-131 105.5t-124 37.5q-49 0-81-28zm290 210-16 17-44 312 184 185 311-43 422-423 44-311-184-185-310 43-12 12-52-62 27-26 375-53 242 243-54 376-461 462-376 53-242-243 54-377 30-31zm691-492 79 12-51 350-461 462-352 50-12-79 327-47 422-423zm-39 371 58-56 211 213-58 56zm-442 442 58-56 211 214-58 56zm236 157 51-59 287 252q16 14 48.5 4t72-36.5 74.5-63.5q29-30 52.5-67.5t34-68.5-.5-43l-260-277 57-53 261 277q24 25 24 68 0 46-28.5 104t-81.5 114q-58 61-118 94.5t-111 33.5q-45 0-74-26zm-126-916q-1 53-18 104t-45 108q-12 25-27 47.5t-32 44.5q-19 24-46 7-13-8-14.5-23.5t8.5-31.5l24-38 23-41q29-56 44-112.5t14-111.5zm-151-132q-5 64-22 116.5T1297 879q-12 25-27 47.5t-32 44.5q-19 24-46 7-13-8-14.5-23.5t8.5-31.5q12-19 24.5-38t22.5-41q27-56 44-115t27-141zm834 823q-1 40-15 85.5t-39 95.5q-13 27-28 49t-33 45q-18 24-43 7-13-8-14-23t9-30q11-17 22.5-36t22.5-40q28-53 41-104.5t11-84.5zm-125-122q-4 52-20.5 102t-45.5 106q-12 23-26 45t-31 44q-16 20-43 5-13-8-14.5-22.5t8.5-28.5q14-20 24.5-38.5t20.5-37.5q17-33 30-68.5t22-77.5z"/></svg>