<svg xmlns="http://www.w3.org/2000/svg" viewBox="-10 0 2610 2048"><path d="M882 1607q93 0 147-44.5t54-121.5q0-49-23.5-82.5T992 1309q35-19 54.5-52.5t19.5-73.5q0-65-44.5-103.5T900 1041q-50 0-95.5 16t-86.5 49l38 57q36-29 70.5-43t71.5-14q96 0 96 83 0 45-31.5 69t-92.5 24h-72v67h72q71 0 104.5 21.5t33.5 68.5q0 50-33 76t-96 26q-40 0-84-12t-75-31v74q76 35 162 35zm633-203 164-237v237zm164 194h73v-128h82v-66h-82v-354h-66l-262 369v51h255zM913 782h73V233h-56L764 358l43 52 106-83zm530 0h359v-68h-251v-5l103-100q60-58 93-108t33-121q0-70-45-112.5T1618 225q-46 0-89 17.5t-81 52.5l40 54q30-28 62.5-42.5T1616 292q43 0 66.5 23.5T1706 383q0 52-24 90t-80 94l-159 160zM426 1978q-68 0-117-48.5T260 1814V63q0-68 49-116.5T425-102h1750q68 0 116.5 48.5T2340 63v1750q0 67-48.5 116t-116.5 49z"/></svg>