<svg xmlns="http://www.w3.org/2000/svg" viewBox="-10 0 2610 2048"><path d="M1300 1578q-174 0-326-65.5t-267.5-181-181-267.5T460 738t65.5-326.5 181-268T974-37t326-65 326.5 65 268 180.5 180.5 268 65 326.5-65 326-180.5 267.5-268 181T1300 1578zm0 400q-120 0-236.5-32.5t-205-87T734 1739l116-390 72 37-101 340q46 51 122 90t169 61.5 188 22.5q96 0 188.5-22.5t169-61.5 121.5-90l-101-340 73-36 116 390q-36 65-124.5 119t-205.5 86.5-237 32.5zm-10-610h10q13-88 34.5-136.5t65-73.5 120.5-40v-10q-77-15-120.5-40t-65-74-34.5-136h-10q-12 87-34 136t-65 74-121 40v10q78 15 121 40t65 73.5 34 136.5zM731 735q17 0 29-11t13-32q6-88 41.5-171.5T905 377q14-16 17-33.5t-9-30.5q-11-12-29.5-11.5T851 318q-65 72-111.5 168T693 686q0 23 10.5 36t27.5 13zm368-496q24-11 50.5-18t54.5-11q20-3 32.5-15t12.5-29-14-28-38-8q-75 9-133 37-21 10-28 27.5t2 32.5 25.5 18 35.5-6zm492 721h10q15-110 34.5-179.5t53.5-111 92-66 150-43.5v-10q-92-19-150-43.5t-92-66-53.5-111T1601 150h-10q-15 110-34 179.5t-53.5 111-92.5 66-150 43.5v10q92 19 150 43.5t92.5 66 53.5 111 34 179.5z"/></svg>