<svg xmlns="http://www.w3.org/2000/svg" viewBox="-10 0 2610 2048"><path d="M791 1218q-64-17-103-104.5T649 873q51-144 149-248t227-160 272-56q110 0 216 33t190.5 88 133 122.5T1880 790l-137 270-71-36 128-254q-3-50-48-100t-117.5-91.5T1474 512t-177-25q-127 0-239 49.5t-197.5 139T729 887q0 110 25 177.5t57 75.5zm156 653q-149-51-229.5-137.5T637 1533q0-62 17.5-136.5T703 1250t69-124l49 18q-12 25-20 54t-8 53q0 61 37 104t89 43l81 172q0 78-15 161t-38 140zm278-347v-50h175v50zM740 851 360 585l6-10 438 150zm536 885q-196 0-304.5-149.5T863 1175h80q0 232 87 357.5t246 125.5q160 0 244-121t84-356q0-104-28-191l76-24q17 52 24.5 106t7.5 109q0 265-105.5 410T1276 1736zm-365-731-87-103q5-13 9.5-25.5T845 853l101 120zm316 259v-65q-38 26-93 26-35 0-66-25t-42-63l-13-44q74-23 133-23 61 0 96 22t35 60v108zm306 614q-55-120-55-236l162-249 91-31q32 34 45.5 86.5t13.5 95.5q0 68-34.5 135.5t-93 120.5-129.5 78zM964 911l-75-129q8-10 16-20.5t18-20.5l84 145zm357 493q-47 0-65.5-9t-18.5-21 19.5-17 64.5-5q33 0 33-30v-149q0-55 39.5-84.5T1497 1059q29 0 61 4t66 13l-14 51q-15 55-42.5 77t-67.5 22q-41 0-73-19t-37-47l14-17v211q0 20-17 35t-66 15zM829 678 578 304l7-7 345 277zm37 552q-23 0-40.5-18.5T808 1158q0-134 68.5-224.5T1059 797t252-46q165 0 272 58t124 157q-26 13-68.5 21.5T1557 996q-75 0-143-39t-103-101q-48 74-130.5 116T998 1016q0 54-19 103t-49 80-64 31zm181-385-60-163q10-8 20.5-15.5T1029 652l65 175zm598 604v-70q26 0 51.5-39t25.5-85q0-32-14-62.5t-40-55.5l48-51q76 73 76 169 0 50-20.5 94.5t-54 72-72.5 27.5zm-489-654-33-188q12-4 27-8t28-7l33 194zm121-23V578h30.5l29.5 2v192zm406 391q-22 0-43-23-2-29-7-69t-13-77q8-18 25-33.5t38-15.5q29 0 49.5 31.5t20.5 75.5q0 46-20.5 78.5T1683 1163zM995 546 848 107l9-5 265 378zm463 249-55-9 33-189q13 3 28.5 7t25.5 7zm99 50-47-18 66-179q24 11 44 24zm73 66-40-25 96-164q18 23 24 48zm-410-445 80-468h12l70 468zm373 52-138-50 267-387 10 5zm242 291-30-116 429-115 6 16zm-80-174-114-80 406-276 8 12z"/></svg>