<svg xmlns="http://www.w3.org/2000/svg" viewBox="-10 0 2610 2048"><path d="M2075 1978q-75 0-124.5-20.5t-86-55-73.5-76.5L936 848q-84 28-178 28-135 0-242-63T347 642t-62-242q0-61 15-124l341 197q66-29 105-88.5T785 255v-15l-2-14L460 47q32-77 117.5-113T775-102q136 0 246.5 66.5T1198 142t66 247q0 110-46 205l969 892q69 63 98.5 119.5T2315 1729t-33 123.5-87.5 91T2075 1978zm0-80q64 0 112-51t48-118q0-50-23-90.5t-79-92.5L1116 609q68-97 68-220 0-115-56-208T975 33 755-22q-37 0-86 12t-75 38l260 147q11 39 11 80 0 106-64 191T633 560L366 407q1 110 52.5 198.5t140 139.5T758 796q57 0 103-10t98-33l892 1021q37 42 66 69.5t65 41 93 13.5zm-47-118q33 0 56.5-23.5t23.5-56.5-23.5-56.5-56.5-23.5-56.5 23.5-23.5 56.5 23.5 56.5 56.5 23.5z"/></svg>