<svg xmlns="http://www.w3.org/2000/svg" viewBox="-10 0 2610 2048"><path d="M1002 1640q-148 0-284.5-6.5t-244-19T305 1585v-112l51-119V353h80v1017l-51 119v32q98 18 261 28.5t356 10.5q194 0 357.5-10.5T1621 1521v-31l-52-119V353h80v1001l52 119v112q-61 17-169 29.5t-244.5 19-285.5 6.5zm-804 338v-667h203l-50 230 140 59-102 378zm503 0 54-349 469-8 108 357zm-156-178q-16 0-28-11.5t-12-28.5v-190h993v190q0 17-11.5 28.5T1458 1800h-94q-17 0-29-11.5t-12-28.5v-142q-91 4-167 6t-152 2q-75 0-154-2t-170-6v142q0 17-12 28.5t-29 11.5zm157-427q-35 0-60.5-25.5T616 1287t25.5-60.5T702 1201t60.5 25.5T788 1287t-25.5 60.5T702 1373zm-103-357 9-92q3-27 21.5-44t45.5-17h20q34 0 51 30l20 34 20-34q17-30 51-30h20q27 0 45.5 17t21.5 44l9 92zm703 357q-35 0-60.5-25.5T1216 1287t25.5-60.5 60.5-25.5 60.5 25.5 25.5 60.5-25.5 60.5-60.5 25.5zm373 605-197-393 155-53 732 446zm-674-895q-105 0-214-13t-213-30V504q99-17 168-25.5T871 467t130-3q71 0 131.5 3t129.5 11.5 167 25.5v539q-98 17-167.5 25.5T1132 1080t-131 3zm0-80q61 0 112-2t106.5-8 129.5-18V572q-73-12-128.5-18t-107-8-112.5-2q-60 0-111 2t-106.5 8T654 572v400q107 16 190.5 23.5t156.5 7.5zm-24 7V534h50v476zm94 6 9-92q3-27 21.5-44t45.5-17h20q34 0 51 30l20 34 20-34q17-30 51-30h20q27 0 45.5 17t21.5 44l9 92zm1275 742-760-365-8-82h770v78h-589l587 282zM359 405l-39-42q23-60 60.5-109t109-83.5 195-53.5T1004 98q195 0 318.5 19t195 53.5T1626 254t60 109l-40 42q-199-42-351.5-61.5T1002 324q-139 0-291.5 19.5T359 405zm552-140h182q17 0 28.5-12t11.5-28v-33q0-17-11.5-29t-28.5-12H911q-16 0-28 12t-12 29v33q0 16 12 28t28 12zm-78-155q-17 0-17-20t17-20h343q17 0 17 20t-17 20zm26 28L830-68l59-8 31 214zM791 22l-59-47q30-38 56-57.5t54-19.5h336q26 0 52.5 19.5T1288-25l-59 48q-21-26-35-37.5T1178-26H842q-3 0-16 10.5T791 22zm303 116 31-214 59 8-29 206zm1228 1840V338q22-8 41-8 18 0 39 8v1640zM1775 763V336h419v427zm68-68h283V404h-283zm-41-123v-69h352v69zm358 119v-80h178v80zm0-200v-80h178v80z"/></svg>