<svg xmlns="http://www.w3.org/2000/svg" viewBox="-10 0 2610 2048"><path d="M1300 1928q-209 0-380-61t-294.5-172.5T435 1429t-67-340q0-147 43-276-40-121-60.5-230.5T330 364q0-188 54-302T535-52q58 0 131.5 45t153 124T974 298q76-22 158-32.5t168-10.5 168 10.5 158 32.5q75-102 154.5-181T1934-7t131-45q97 0 151 114t54 302q0 109-20 218.5T2189 813q43 129 43 276 0 186-67 340t-190.5 265.5T1680 1867t-380 61zm-975-310-62-50q41-50 105-90t138.5-64.5T653 1386v80q-60 3-123 23.5t-117 54-88 74.5zm-132-273-33-74q63-29 144-45t157-16q38 0 72.5 4.5T599 1228l-21 74q-27-7-53.5-10t-58.5-3q-71 0-145.5 15T193 1345zm359-209q-140-55-380-55v-80q126 0 229 15.5t181 45.5zm748 432q-84 0-151-50t-110-144l69-36q33 72 83 111t109 39 109-39 83-111l69 36q-43 94-110 144t-151 50zm-338-426q-168-37-261-117t-93-186q0-68 43-113t107-45q45 0 99 27 30-41 67.5-64.5T1003 620q65 0 108.5 52.5T1155 802q0 160-193 340zm139 258q-58 0-108.5-19t-92.5-56l52-60q29 26 68.5 40.5t80.5 14.5q59 0 112.5-34t53.5-95h66q0 61 54 95t112 34q41 0 80.5-14.5t68.5-40.5l52 60q-42 37-92.5 56t-108.5 19q-57 0-112-24t-87-62q-32 38-87 62t-112 24zm199-151q-40 0-77.5-31.5T1185 1155q0-27 31-41.5t84-14.5 84 14.5 31 41.5q0 31-37 62.5t-78 31.5zM587 655q-24-62-36-146.5T539 351q0-63 9-105.5t27-42.5q17 0 54.5 34.5t85.5 91T809 450q-56 31-117 90T587 655zm713 1193q257 0 448.5-96t297.5-267 106-396q0-149-47-276 29-82 47.5-157t28-147.5T2190 364q0-152-35.5-244T2065 28q-45 0-114.5 48.5t-146 130.5T1658 391q-82-28-171.5-42T1300 335q-89 0-175 13t-183 43q-69-102-146.5-184t-146-130.5T535 28q-54 0-89.5 92T410 364q0 72 9.5 144.5T448 656t47 157q-47 127-47 276 0 225 106 396t297.5 267 448.5 96zm975-230q-33-41-87.5-74.5t-117-54T1947 1466v-80q72 3 146.5 27.5T2232 1478t105 90zM1167 584q-34 0-76-56.5T1003 315l246-38q2 23 3 45t1 43q0 101-22.5 160t-63.5 59zm471 558q-193-180-193-340 0-77 43.5-129.5T1597 620q84 0 146 88 54-27 99-27 65 0 107.5 45t42.5 113q0 106-93 186t-261 117zm769 203q-52-26-127-41t-146-15q-32 0-58.5 3t-53.5 10l-21-74q32-9 66-13.5t72-4.5q76 0 157 16t144 45zm-974-761q-40 0-63-59t-23-160q0-21 1-43t3-45l246 38q-46 156-88 212.5t-76 56.5zm615 552-30-74q78-30 181-45.5t229-15.5v80q-240 0-380 55zm-35-481q-44-56-105-115t-117-90q46-65 94-121.5t86-91 54-34.5q18 0 27 42.5t9 105.5q0 73-12 157.5T2013 655z"/></svg>