<svg xmlns="http://www.w3.org/2000/svg" viewBox="-10 0 2610 2048"><path d="M130 1618V906l211-527q22-56 67-56h229q39-122 139-196.5T1030 48v1420h587v150h-92l-154-100-117 100H710l-36-90h276V136q-58 5-111 39t-90.5 92T699 403H456q-39 0-52 34L210 923v615h287l-29 80zm170-40v-363H164v-70h206v433zm294 250q-77 0-131.5-54.5T408 1643q0-77 54.5-131.5T594 1457t131 54.5 54 131.5-54 131-131 54zm0-102q34 0 58.5-24.5T677 1643q0-35-24.5-59.5T594 1559t-59 24.5-25 59.5q0 34 25 58.5t59 24.5zm-419-175v-163h145l50-117h620v280zm1199 277q-77 0-131.5-54.5T1188 1643q0-77 54.5-131.5T1374 1457t131 54.5 54 131.5-54 131-131 54zm0-102q34 0 58.5-24.5t24.5-58.5q0-35-24.5-59.5T1374 1559t-59 24.5-25 59.5q0 34 25 58.5t59 24.5zM341 947q-36 0-16-48l137-335q11-28 39-44.5t64-16.5h140q17 0 29 13t12 30v360q0 17-12.5 29T704 947zm109-80h190q26 0 26-25V608q0-25-26-25h-53q-47 0-65 44l-85 212q-12 28 13 28zm813 682v-213h210v213zm621 279q-77 0-131.5-54.5T1698 1643q0-77 54.5-131.5T1884 1457t131 54.5 54 131.5-54 131-131 54zm0-102q34 0 58.5-24.5t24.5-58.5q0-35-24.5-59.5T1884 1559t-59 24.5-25 59.5q0 34 25 58.5t59 24.5zm360 102q-77 0-131.5-54.5T2058 1643q0-77 54.5-131.5T2244 1457t131 54.5 54 131.5-54 131-131 54zm0-102q34 0 58.5-24.5t24.5-58.5q0-35-24.5-59.5T2244 1559t-59 24.5-25 59.5q0 34 25 58.5t59 24.5zm-225-96-73-60-181-49v-185h598v185l-177 48-73 61zm-827-514v-100h1244v100zm-42 260V48h1320v1328zm80-80h1160V128H1230zm-38-898V298h1244v100z"/></svg>