<svg xmlns="http://www.w3.org/2000/svg" viewBox="-10 0 2610 2048"><path d="M1300 1778q-178 0-348.5-10.5T614 1737q-82-10-139-64.5T407 1534q-7-53-10.5-105.5T393 1323q0-85 7-171.5T419.5 990 447 867l57-30 192-421q29-62 85-101.5T905 268q98-10 198-14t197-4q98 0 197.5 4t197.5 14q68 7 124.5 46.5T1904 416l192 421 57 30q16 48 28 123t19 161.5 7 171.5q0 53-3.5 105.5T2193 1534q-10 84-67.5 138.5T1986 1737q-167 20-337 30.5t-349 10.5zm-791 200q-24 0-40-16t-16-40v-330l238 128v202q0 24-16 40t-40 16zm-48-616v-70h317q-9-26-21-51.5t-26-49.5H461v-70h309q32 48 60 112t41 129zM340 864q-28 0-46.5-18T275 801v-41q0-28 18.5-44.5T340 699h87q29 0 47 18.5t18 46.5v29h79l5 71zm960 696q-204 0-339.5-4T734 1544t-160.5-20.5T431 1494l26-74q72 17 138.5 29t153.5 19 218.5 10.5 332.5 3.5 332.5-3.5T1851 1468t153.5-19 138.5-29l26 74q-73 17-142.5 29.5T1866 1544t-226.5 12-339.5 4zm-285-199q-31 0-53.5-19t-36.5-56l-33-93q-8-23 7.5-41t48.5-24q81-15 172.5-22.5t179.5-7.5 179.5 7.5T1652 1128q33 6 48.5 24t7.5 41l-33 93q-13 37-36 56t-54 19zm950 617q-24 0-40-16t-16-40v-202l238-128v330q0 24-16 40t-40 16zm-665-278q173 0 340.5-9t335.5-31q57-8 94-44.5t44-91.5q7-53 10-102.5t3-98.5q0-108-11.5-219.5T2085 913l-53-27-201-437q-20-44-58-71t-86-32q-88-10-185-14t-202-4-201.5 4T913 346q-48 5-86 32t-58 71L568 886l-53 27q-19 79-30.5 190.5T473 1323q0 49 3 98.5t10 102.5q8 55 44.5 91.5T624 1660q168 22 336 31t340 9zM826 673l11-94q3-23 19-37.5t39-14.5h102q51 0 57 52l11 94zM598 801V651h1404v150zm1131 561q13-65 41.5-129t59.5-112h309v70h-270q-14 24-26 49.5t-21 51.5h317v70zm-194-689 11-94q7-52 57-52h102q23 0 39 14.5t19 37.5l11 94zM994 306V44l183-146h246l183 146v262h-80V83L1395-22h-190L1074 83v223zm1030 558 5-71h79v-29q0-28 18.5-46.5T2173 699h87q29 0 47 16.5t18 44.5v41q0 27-18 45t-47 18zm-906-661v-73h73v73zm73-73V58h72v72zm72 73v-73h74v73zm146 0v-73h73v73zm-72-73V58h72v72z"/></svg>