<svg xmlns="http://www.w3.org/2000/svg" viewBox="-10 0 2610 2048"><path d="M1300 1641q-149 0-286-6.5t-245-19-170-30.5v-109l52-120V354h80v1019l-52 120v28q98 19 261.5 29.5T1300 1561t359.5-10.5T1921 1521v-28l-52-120V354h80v1002l52 120v109q-62 18-170 30.5t-244.5 19-286.5 6.5zm-993 337 386-441 179 19-209 422zm696 0 117-391h360l117 391zm-161-177q-17 0-29-12t-12-29v-189h998v189q0 17-12 29t-29 12h-98q-17 0-28.5-12t-11.5-29v-100q-96 4-171 6t-149 2-149-2-171-6v100q0 17-11.5 29t-28.5 12zm158-428q-35 0-60.5-25.5T914 1287t25.5-60.5 60.5-25.5 60.5 25.5 25.5 60.5-25.5 60.5-60.5 25.5zm-103-357 9-92q3-27 21.5-44t45.5-17h20q34 0 51 30l20 34 20-34q17-30 51-30h20q27 0 45.5 17t21.5 44l9 92zm1040 962-209-422 179-19 386 441zm-337-605q-35 0-60.5-25.5T1514 1287t25.5-60.5 60.5-25.5 60.5 25.5 25.5 60.5-25.5 60.5-60.5 25.5zm-300-288q-70 0-143-5.5t-145.5-15.5-142.5-21V504q99-17 169-25.5t131-11 131-2.5q71 0 131.5 2.5t130.5 11 169 25.5v539q-69 11-142 21t-145.5 15.5-143.5 5.5zm0-80q50 0 105-3.5t116.5-10T1651 975V572q-74-12-130.5-17.5t-108-7.5-112.5-2-112.5 2-107.5 7.5T949 572v403q69 10 130 16.5t116 10 105 3.5zm-25 7V534h50v478zm94 4 9-92q3-27 21.5-44t45.5-17h20q34 0 51 30l20 34 20-34q17-30 51-30h20q27 0 45.5 17t21.5 44l9 92zM657 407l-41-48q23-57 60.5-104.5t109-83 195-54.5T1300 98t319.5 19 195 54.5 109 83T1984 359l-41 48q-198-43-350.5-63T1300 324q-139 0-292 20t-351 63zm552-142h182q17 0 28.5-12t11.5-28v-33q0-17-11.5-29t-28.5-12h-182q-16 0-28 12t-12 29v33q0 16 12 28t28 12zm-51-126-30-206 60-8 29 214zm-44-34q-20 0-20-19 0-20 20-20h372q20 0 20 20 0 19-20 19zm-39-94-47-35q28-40 54-59t51-19h334q26 0 51.5 19t53.5 59l-47 35q-18-26-32-34.5t-26-8.5h-334q-12 0-26 8.5T1075 11zm308 128 29-214 60 8-30 206z"/></svg>