<svg xmlns="http://www.w3.org/2000/svg" viewBox="-10 0 2610 2048"><path d="M1300 1978q-216 0-404.5-80.5T564 1674t-223.5-331.5T260 938t80.5-404.5T564 202 895.5-21.5 1300-102q215 0 403.5 80.5T2035 202t224 331.5 81 404.5-81 404.5-224 331.5-331.5 223.5T1300 1978zM548 780q32 0 37-35 10-69 62-94 26-11 26-35 0-15-9.5-25T640 581q-29 0-58 25t-48 63-19 77q0 34 33 34zm752 695q-230 0-453-157l44-65q203 142 409 142t409-142l44 65q-223 157-453 157zm0 423q199 0 373-74.5t306-206.5 206.5-306 74.5-373-74.5-373T1979 259 1673 52.5 1300-22 927 52.5 621 259 414.5 565 340 938t74.5 373T621 1617t306 206.5 373 74.5zm-570-744q-156 0-248.5-42.5t-133-139T308 714q0-47-17-70.5T232 613V484q98-12 204-17t194-5q200 0 363.5 15t306.5 15q98 0 201.5-7.5t219.5-15 249-7.5q88 0 194.5 5t203.5 17v129q-41 7-58.5 30.5T2292 714q0 162-40.5 258.5t-132.5 139-249 42.5-260.5-66T1470 899l-10-34q-37-128-70.5-173t-89.5-45-88.5 45-70.5 173l-10 34q-36 123-139.5 189T730 1154zm879-374q32 0 37-35 10-71 61-94 27-11 27-35 0-15-9.5-25t-23.5-10q-29 0-58 25t-48 63-19 77q0 34 33 34z"/></svg>