<svg xmlns="http://www.w3.org/2000/svg" viewBox="-10 0 2610 2048"><path d="M272 1096q-12-78-12-158 0-216 80.5-404.5T564 202 895.5-21.5 1300-102q215 0 403.5 80.5T2035 202t224 331.5 81 404.5q0 80-12 158l-74-54q3-26 4.5-52t1.5-52q0-199-74.5-373T1979 259 1673 52.5 1300-22 927 52.5 621 259 414.5 565 340 938q0 26 1.5 52t4.5 52zm504 932q-119 0-235-64.5t-210-173-150.5-244T124 1270q0-79 28.5-124.5T233 1100q22 0 55 14l-21 78q-17-12-32-12-11 0-21 22.5t-10 67.5q0 124 50.5 245T388 1733.5t184.5 156T776 1948q92 0 149-48t57-124q0-46-25.5-94T871 1572t-164-150q-46-39-78.5-85t-57.5-85q-35-56-52-76.5t-28-20.5q-18 0-18 41 0 50 36 132.5T612 1502l-55 44q-74-101-114-193.5T403 1196q0-50 22.5-85.5T491 1075q44 0 77.5 39.5T635 1204q26 40 56.5 82t67.5 74q113 95 179.5 166t95 130 28.5 120q0 111-80.5 181.5T776 2028zm-391-442q-70-110-111.5-217.5T232 1174q0-71 25-114.5t78-43.5q46 0 87 33.5t59 84.5l-69 37q-16-41-36.5-58t-40.5-17q-12 0-22.5 18.5T302 1174q0 77 38 173t102 199zm915 392q-164 0-317-49l18-78q71 22 146 34.5t153 12.5 153.5-12.5T1599 1851l18 78q-153 49-317 49zm0-232q-79 0-131-56.5t-52-143.5q0-101 26-187.5t67.5-140 89.5-53.5 90 53.5 67.5 140T1483 1546q0 87-51.5 143.5T1300 1746zM405 586V418h50v168zm439 558q-74 0-134.5-40.5t-95.5-109T579 843q0-90 39.5-165.5t106-121T870 511q75 0 135 40t95 108 35 152q0 90-39.5 166T990 1098.5 844 1144zm0-80q57 0 105-34.5t77-92.5 29-126q0-93-54-156.5T870 591q-56 0-104.5 34.5t-77.5 92T659 843q0 93 54 157t131 64zM550 586V228h50v358zm145 15V98h50v488zm1129 1427q-124 0-205-70.5t-81-181.5q0-61 28.5-120t95-130 179.5-166q38-32 68-74t56-82q33-50 66.5-89.5t77.5-39.5 66 35.5 22 85.5q0 64-40 156.5T2043 1546l-55-44q67-91 103-173.5t36-132.5q0-41-18-41-10 0-27.5 20.5T2029 1252q-25 39-57.5 85t-78.5 85q-103 88-163.5 150t-86 110-25.5 94q0 76 57 124t149 48q102 0 203.5-58.5t184.5-156 133.5-218.5 50.5-245q0-45-10-67.5t-21-22.5q-15 0-32 12l-21-78q33-14 55-14 53 0 81 45.5t28 124.5q0 141-56.5 276.5t-150.5 244-210 173-235 64.5zM840 569V18h50v551zm195 31-50-14V-12h50zm95-14V-52h50v638zm626 558q-79 0-145.5-45.5t-106-121.5-39.5-166q0-84 35-152t95.5-108 134.5-40q80 0 146 45.5t105.5 121T2021 843q0 83-35 151.5t-95 109-135 40.5zm0-80q77 0 131-64t54-157q0-68-29-125.5t-77-92-105-34.5q-77 0-131 63.5T1545 811q0 68 29 126t77.5 92.5T1756 1064zm459 522-57-40q65-103 102.5-199t37.5-173q0-41-10.5-59.5T2265 1096q-19 0-39.5 17t-37.5 58l-69-37q18-51 59-84.5t87-33.5q53 0 78 43.5t25 114.5q0 87-41 194.5T2215 1586zM1275 586V-52h50v638zm145 0V-52h50v638zm145 14V-12h50v598zm145-31V18h50v551zm195 32-50-15V98h50zm95-15V228h50v358zm145 0V418h50v168z"/></svg>