<svg xmlns="http://www.w3.org/2000/svg" viewBox="-10 0 2610 2048"><path d="M323 1978q-35 0-58.5-23.5T241 1896v-798q0-35 23.5-57.5T323 1018h1954q35 0 58.5 22.5t23.5 57.5v798q0 35-23.5 58.5T2277 1978zm-21-197v-80h1025v80zm174-189v-324h270v324zm61-61h148v-202H537zm339 61v-324h270v324zm61-61h148v-202H937zm-584 369h1894q32 0 32-32v-742q0-30-32-30H353q-32 0-32 30v742q0 32 32 32zm936 27v-553q0-56 36.5-93t91.5-37h164q55 0 92 37t37 93v553h-68v-553q0-28-17-45t-44-17h-164q-27 0-43.5 17t-16.5 45v553zm164-275q-17 0-17-17v-212q0-18 17-18h93q17 0 17 18v212q0 17-17 17zM712 917V382q0-40-21.5-55.5T620 311q4 5 4 15 0 26-24 26-25 0-25-31 0-38 51-58t151-20 151 20 51 58q0 31-25 31-24 0-24-26 0-10 3-15-48 0-69.5 16T842 382v535zm952 864v-80h634v80zM605 497q-76 0-128-52.5T425 317t52.5-127T605 138q74 0 126.5 52.5T784 317t-52.5 127T605 497zm0-90q36 0 62.5-26.5T694 317t-26-63-63-26q-38 0-64 25.5T515 317t26 64 64 26zm-282 627v-34q0-23 17.5-38t43.5-15h1832q26 0 43.5 15t17.5 38v34zm203-810L294-31l56-57 232 255zM401 975q0-42 49-77.5T563 862h1474q65 0 113.5 35.5T2199 975zm1453 617v-324h270v324zm61-61h148v-202h-148zM953 497q-76 0-128-52.5T773 317t52.5-127T953 138q74 0 126.5 52.5T1132 317t-52.5 127T953 497zm0-90q36 0 62.5-26.5T1042 317t-26-63-63-26q-38 0-64 25.5T863 317t26 64 64 26zM302 519v-78h1996v78zm-62 237v-858h2120v858zm80-78h1960V-24H320zm759-443-62-50 197-244 95 9zm679 682V382q0-40-21.5-55.5T1666 311q4 5 4 15 0 26-24 26-25 0-25-31 0-38 51-58t151-20 151 20 51 58q0 31-25 31-24 0-24-26 0-10 3-15-48 0-69.5 16t-21.5 55v535zm-110-420q-76 0-128-52.5T1468 317t52.5-127 127.5-52q74 0 126.5 52.5T1827 317t-52.5 127-126.5 53zm0-90q36 0 62.5-26.5T1737 317t-26-63-63-26q-38 0-64 25.5t-26 63.5 26 64 64 26zm-127-172L1289-50l96-9 198 244zm475 262q-76 0-128-52.5T1816 317t52.5-127 127.5-52q74 0 126.5 52.5T2175 317t-52.5 127-126.5 53zm0-90q36 0 62.5-26.5T2085 317t-26-63-63-26q-38 0-64 25.5t-26 63.5 26 64 64 26zm78-183-56-57 232-255 56 57z"/></svg>