<svg xmlns="http://www.w3.org/2000/svg" viewBox="-10 0 2610 2048"><path d="M255 1545q-58 0-93-38.5T127 1398q0-54 10.5-110.5T175 1159q15-254 33-423t52.5-271 98-153.5 168-68.5T790 226q23 0 33 6.5t20 26.5l20 38h1335q92 0 145 23t76.5 81 26.5 164l27 853q2 64-32.5 95.5T2348 1545h-251v-80h234q33 0 48.5-17.5t13.5-58.5l-32-992H394q-24 55-48.5 143t-45 194.5-33 220.5-12.5 221q-20 45-34 103t-14 103q0 35 14 59t45 24h173v80zm-84-145v-70h118l17-106q3-20-8.5-32t-47.5-12h-37v-70h37q74 0 105 29.5t23 79.5l-28 181zm405 328q-85 0-145-60.5T371 1522t60-145 145-60 145 60 60 145-60 145.5-145 60.5zm0-105q42 0 71-29.5t29-71.5q0-41-29-70.5t-71-29.5-71 29.5-29 70.5q0 42 29 71.5t71 29.5zm141-78v-80h1095v80zM433 990h317V447H511q-88 0-124 107t-36 352q0 40 19.5 62t62.5 22zm397 345h170V497H830zm-80 170v-435H216l142-703h2024l30 626H1080v512zm1206 223q-85 0-145-60.5t-60-145.5 60-145 145-60 145 60 60 145-60 145.5-145 60.5zm0-105q42 0 71-29.5t29-71.5q0-41-29-70.5t-71-29.5-71 29.5-29 70.5q0 42 29 71.5t71 29.5zm-876-710h548V447h-548zm1068 410q-28 0-28-25t28-25h87q28 0 28 25t-28 25zm0-110q-28 0-28-25t28-25h87q28 0 28 25t-28 25zM1005 323l20-112q5-28 23-45.5t46-17.5h514q28 0 47 17.5t23 45.5l19 112zm1143 780q-28 0-28-25t28-25h87q28 0 28 25t-28 25zm173 253v-214h104l8 214zm-613-443h531q29 0 43.5-17.5T2295 846l-13-331q-1-33-25-50.5t-65-17.5h-484z"/></svg>