<svg xmlns="http://www.w3.org/2000/svg" viewBox="-10 0 2610 2048"><path d="M1300 1978q-212 0-398.5-81T573 1672.5t-222.5-332T270 938t80.5-402.5 222.5-332T901.5-21t398.5-81 398.5 81T2027 203.5t222.5 332T2330 938t-80.5 402.5-222.5 332-328.5 224.5-398.5 81zm332-318q-33 0-54-32l-193-279q-16-23-25.5-45.5T1348 1248l-5-124h-73l-131 166 66 282q2 14 2 20 0 25-16.5 41t-44.5 16q-42 0-56-57l-66-268q-2-11-3.5-20t-1.5-17q0-38 26-68l130-157V823l-27-33-53 97q-14 24-43 33l-213 62q-25 7-44-8t-19-40q0-40 37-50l202-57 116-208q23-41 69-63t110-22q31 0 73.5 11t103.5 35l155 60q29 11 42 26t13 40q0 8-1.5 17t-4.5 20l-58 193q-4 16-17 24.5t-31 8.5q-22 0-36-12.5t-14-31.5q0-5 2-17l56-180-131-50v575l217 314q11 16 11 35 0 23-17.5 40.5T1632 1660zm-332 238q196 0 368-75t303-207.5 205-306 74-371.5-74-371.5-205-306T1668 53t-368-75-368 75-303 207.5-205 306T350 938t74 371.5 205 306T932 1823t368 75zm684-233L567 260l49-49 1417 1405zM1305 474q-55 0-94.5-39.5T1171 340q0-56 39.5-95.5T1305 205q56 0 96 39.5t40 95.5q0 55-40 94.5t-96 39.5z"/></svg>