<svg xmlns="http://www.w3.org/2000/svg" viewBox="-10 0 2610 2048"><path d="M1300 1978q-215 0-403.5-80.5T565 1674t-224-331.5T260 938t81-404.5T565 202 896.5-21.5 1300-102q216 0 404.5 80.5T2036 202t223.5 331.5T2340 938t-80.5 404.5T2036 1674t-331.5 223.5T1300 1978zm0-368q-136 0-219.5-54.5T997 1413q0-66 43.5-124.5t113-95.5 146.5-37q78 0 147 37t112.5 95.5T1603 1413q0 88-83 142.5t-220 54.5zm-551-539-60-54 399-439 60 54zm388-49L653 681l46-66 484 341zm163 876q199 0 373-74.5t306-206.5 206.5-306 74.5-373-74.5-373T1979 259 1673 52.5 1300-22 927 52.5 621 259 414.5 565 340 938t74.5 373T621 1617t306 206.5 373 74.5zM703 485l-54-60q149-136 383-136v80q-203 0-329 116zm1148 586-399-439 60-54 399 439zm-388-49-46-66 484-341 46 66zm434-537q-126-116-329-116v-80q234 0 383 136z"/></svg>