<svg xmlns="http://www.w3.org/2000/svg" viewBox="-10 0 2610 2048"><path d="M678 1739q-147-111-228.5-278T368 1089q0-147 43-276-40-121-60.5-230.5T330 364q0-126 32-219.5t85.5-145T565-52q56 0 90 32.5T723 66t86 115.5T952 304q80-25 168-37t180-12q86 0 171 11.5t177 37.5q91-60 143-122.5T1877 66t68.5-85.5T2035-52q65 0 118 51.5t85 145 32 219.5q0 109-20 218.5T2189 813q43 129 43 276 0 205-81.5 372T1922 1739l-8-97q114-100 176-241.5t62-311.5q0-149-47-276 29-82 47.5-157t28-147.5T2190 364q0-101-23.5-176.5T2107 70t-72-42q-31 0-55.5 31.5t-59 84-94.5 117T1663 392q-85-29-175.5-43T1300 335q-91 0-178 13.5T937 392q-103-67-163-131.5t-94.5-117-58.5-84T565 28q-36 0-71.5 42T434 187.5 410 364q0 72 9.5 144.5T448 656t47 157q-47 127-47 276 0 171 62 312t176 241zm-451-242-26-76 358-124 26 76zm327-263-394-61 12-79 394 61zm0 694q56-108 75-163t19-109-7.5-105.5-15-101.5-7.5-98q0-112 59.5-177t161.5-65q115 0 190 76t75 192q0 24-7.5 69.5t-20 103T1047 1667l-71 261h-85l78-283q16-56 28-110t19.5-96 7.5-62q0-83-52-135.5T839 1189q-69 0-105 41.5T698 1351q0 61 15 144.5t15 160.5q0 61-18 119t-66 153zm-20-837L181 926l34-72 353 165zm766 837q-95 0-183-12.5T949 1878l21-78q74 23 157 35.5t173 12.5 173-12.5 157-35.5l21 78q-79 25-167.5 37.5T1300 1928zm0-217q-67 0-106-52.5t-39-126.5q0-55 22-105.5t50.5-96 50.5-85.5 22-74q0 34 22 74t50.5 85.5 50 96T1444 1532q0 73-38 126t-106 53zm-387-653q-61 0-112-30t-81.5-81T689 835q0-92 65.5-157.5T913 612q61 0 111.5 30.5t81 81T1136 835t-30.5 111.5-81 81T913 1058zm0-80q59 0 101-42.5t42-100.5q0-59-42-101t-101-42q-60 0-102 42t-42 101 42.5 101T913 978zm347 337v-270h80v270zM594 658q-24-61-36-146t-12-158q0-64 8.5-106t27.5-42q17 0 39.5 33t67.5 88.5T816 453q-56 31-117 90T594 658zm1030 1270-71-261q-16-60-29-117.5t-20.5-103-7.5-69.5q0-116 75-192t190-76q102 0 161.5 65t59.5 177q0 48-7.5 98t-15 101.5-7.5 105.5 19 109 75 163h-90q-48-95-66-153t-18-119q0-77 15-160.5t15-144.5q0-79-36-120.5t-105-41.5q-81 0-133 52.5t-52 135.5q0 20 7.5 62t20 96 27.5 110l78 283zm-324-829q-40 0-77.5-31.5T1185 1005q0-27 31-41.5t84-14.5q54 0 84.5 14t30.5 42q0 32-38 63t-77 31zm-133-468q-36 0-80-58t-91-214l257-39q2 24 2.5 47t.5 44q0 99-23.5 159.5T1167 631zm1206 866-358-124 26-76 358 124zm-686-439q-61 0-111.5-30.5t-81-81T1464 835t30.5-111.5 81-81T1687 612q93 0 158.5 65.5T1911 835q0 61-30.5 112t-81 81-112.5 30zm0-80q59 0 101.5-42t42.5-101-42-101-102-42q-58 0-100.5 42T1544 835q0 58 42.5 100.5T1687 978zm-254-347q-41 0-65-61.5T1344 411q0-21 .5-44t2.5-47l257 39q-47 156-91 214t-80 58zm613 603-12-79 394-61 12 79zm20-143-34-72 353-165 34 72zm-60-433q-44-56-105-115t-117-90q83-70 127.5-125.5T1979 239t39-33q19 0 27.5 42t8.5 106q0 73-12 158t-36 146z"/></svg>