<svg xmlns="http://www.w3.org/2000/svg" viewBox="-10 0 2610 2048"><path d="M1300 1978q-216 0-404.5-80.5T564 1674t-223.5-331.5T260 938t80.5-404.5T564 202 895.5-21.5 1300-102q215 0 403.5 80.5T2035 202t224 331.5 81 404.5-81 404.5-224 331.5-331.5 223.5T1300 1978zm-514-615v-80h1028v80zm-40-534v-80h370v80zm554 1069q199 0 373-74.5t306-206.5 206.5-306 74.5-373-74.5-373T1979 259 1673 52.5 1300-22 927 52.5 621 259 414.5 565 340 938t74.5 373T621 1617t306 206.5 373 74.5zm184-1069v-80h370v80zm756-416z"/></svg>