<svg xmlns="http://www.w3.org/2000/svg" viewBox="-10 0 2610 2048"><path d="M1300 1973q-220 0-409-79t-330.5-220-221-329T260 938t79.5-407 221-329T891-18t409-79 409 79 330.5 220 221 329 79.5 407q0 218-79.5 406.5t-221 329.5-330.5 220-409 79zm0-392q136 0 256-46-130-71-256-71t-256 71q120 46 256 46zm0 55q-125 0-246.5-40t-220-107T676 1339.5 617 1173q0-41 18-58.5t49-17.5q23 0 51 4.5t64 12.5q96 22 229.5 38t271.5 16 271.5-16 230.5-38q36-8 64-12.5t50-4.5q32 0 50 17.5t18 58.5q0 84-59 166.5T1767 1489t-220.5 107-246.5 40zm0-333q94 0 201-7.5t214-24 200-41.5v-55q0-14-9.5-17.5t-22.5-.5q-80 19-182 34t-206.5 23.5-194.5 8.5q-89 0-194-8.5T899.5 1191 717 1157q-13-3-22.5.5T685 1175v55q93 25 200 41.5t214.5 24 200.5 7.5zM948 868q-52 0-89-44t-37-106 37-106.5 89-44.5 89 44.5 37 106.5q0 61-37 105.5T948 868zm352 1030q203 0 377.5-73t305.5-204 204-305.5 73-377.5-73-377.5T1983 255 1677.5 51 1300-22q-202 0-377 73T617.5 255t-204 305.5T340 938t73 377.5T617 1621t305.5 204 377.5 73zm352-1030q-52 0-89-44t-37-106 37-106.5 89-44.5 89 44.5 37 106.5q0 61-37 105.5t-89 44.5z"/></svg>