<svg xmlns="http://www.w3.org/2000/svg" viewBox="-10 0 2610 2048"><path d="M1300 1494q-182 0-320-48t-215-134-77-200q0-55 17-102t33.5-88.5T755 841q0-52-24-122.5T707 584q0-73 35.5-131.5T838 359t134-35q63 0 115 22.5t94 46.5q47 26 72 35.5t47 9.5q21 0 46.5-9.5T1419 393q43-24 94.5-46.5T1628 324q74 0 134 35t95.5 93.5T1893 584q0 42-12 89t-24 90.5-12 77.5q0 39 17 80.5t33.5 88.5 16.5 102q0 114-76.5 200T1621 1446t-321 48zm-780 434q-120 0-217.5-55t-155-149T90 1514q0-85 22.5-165t52.5-150.5 52.5-128T240 972q0-25-15.5-70T209 812q0-95 34.5-169t94-117T473 483q71 0 117.5 38t46.5 95q0 49-17.5 94.5T602 812q0 55 17.5 102t17.5 94q0 78-32.5 136T529 1249t-75.5 92.5T421 1439q0 47 29.5 78.5T523 1549q40 0 76.5-24.5T682 1442l51 64q-55 65-104 94t-106 29q-79 0-132-54.5T338 1439q0-66 33-119t75.5-101 75.5-99 33-112q0-33-17.5-85.5T520 812q0-59 17.5-112t17.5-84q0-24-22-38.5T473 563q-80 0-130.5 69.5T292 812q0 32 15.5 78.5T323 972q0 54-22.5 116.5T248 1220t-52.5 143-22.5 151q0 93 46.5 168.5T345 1803t175 45q119 0 226-69t180-193l70 39q-87 146-210 224.5T520 1928zm780-233q-319 0-528-125t-290-361l60-74q65 235 256 357.5t502 122.5 502.5-122.5T2058 1135l60 74q-81 236-290 361t-528 125zm0-402q-84 0-157-20t-118-52-45-67q0-47 83-72.5t237-25.5q153 0 237 25.5t84 72.5q0 35-45 67t-118 52-158 20zm-267-434q-39 0-66.5-33.5T939 746q0-47 27.5-79.5T1033 634q38 0 65.5 32.5T1126 746q0 46-27.5 79.5T1033 859zm267 121q-29 0-55.5-21.5T1218 914q0-34 82-34t82 34q0 23-26.5 44.5T1300 980zm0 434q158 0 276.5-38t184.5-106 66-158q0-49-16.5-89.5T1777 939t-17-98q0-64 24-131.5t24-125.5q0-77-51.5-128.5T1628 404q-45 0-84.5 17t-77.5 39q-39 22-79 40t-87 18q-46 0-86-18t-79-40q-38-22-78-39t-85-17q-76 0-128 51.5T792 584q0 58 24 125.5T840 841q0 55-16.5 98t-33.5 83.5-17 89.5q0 90 66 158t185 106 276 38zm267-555q-38 0-65.5-33.5T1474 746q0-47 27.5-79.5T1567 634q39 0 66.5 32.5T1661 746q0 46-27.5 79.5T1567 859zm513 1069q-143 0-266-78.5T1605 1625l69-39q74 124 181 193t225 69q97 0 176-45t125.5-120.5T2428 1514q0-77-22.5-151t-52.5-143-52.5-131.5T2278 972q0-35 15.5-81.5T2309 812q0-110-51-179.5T2127 563q-37 0-59 14.5t-22 38.5q0 31 17.5 84t17.5 112q0 58-17.5 110.5T2046 1008q0 61 32.5 112t75.5 99 75.5 101 32.5 119q0 81-53 135.5t-132 54.5q-57 0-106.5-29.5T1868 1506l50-64q46 58 82.5 82.5t76.5 24.5q44 0 73.5-31.5t29.5-78.5q0-52-33-97.5t-75.5-92.5-75.5-105-33-136q0-47 17.5-94t17.5-102q0-56-17.5-101.5T1963 616q0-57 47-95t117-38q76 0 135.5 42.5t94 117T2391 812q0 45-15.5 90t-15.5 70q0 41 22.5 98.5t52.5 128 52.5 150.5 22.5 165q0 116-57.5 210T2298 1873t-218 55zM560 548l-72-38q68-175 188.5-300.5T956.5 16 1300-52q185 0 344.5 67.5t280 193.5T2112 510l-71 38q-60-162-170-278.5t-255.5-179T1300 28q-169 0-315 62.5t-255.5 179T560 548z"/></svg>