<svg xmlns="http://www.w3.org/2000/svg" viewBox="-10 0 2610 2048"><path d="M1300 1928q-209 0-380-61t-294.5-172.5T435 1429t-67-340q0-74 11-143.5T411 813q-40-121-60.5-230.5T330 364q0-126 32-219.5t85.5-145T565-52q56 0 90 32.5T723 66t86 115.5T952 304q80-25 168-37t180-12 180 12 168 37q91-60 143-122.5T1877 66t68.5-85.5T2035-52q65 0 118 51.5t85 145 32 219.5q0 109-20 218.5T2189 813q21 63 32 132.5t11 143.5q0 186-67 340t-190.5 265.5T1680 1867t-380 61zM227 1497l-26-76 358-124 26 76zm327-263-394-61 12-79 394 61zm-20-143L181 926l34-72 353 165zm481 481-52-62q166-133 337-133 86 0 170.5 33.5T1637 1510l-52 62q-142-115-285-115t-285 115zm-96-502q-45 0-77.5-40T809 935q0-44 14-82.5t29-38.5q14 0 59 31t94 73q18 15 18 40 0 36-31.5 74t-72.5 38zm341 345v-220h80v220zm40-166q-40 0-77.5-31.5T1185 1155q0-27 31-41.5t84-14.5 84 14.5 31 41.5q0 31-37 62.5t-78 31.5zM463 712q28-49 64.5-91.5T607 544q-84-152-84-312 0-88 21-200-33 11-63.5 55T430 201.5 410 364q0 85 13 170.5T463 712zm837 1136q257 0 448.5-95.5T2046 1486t106-396q0-173-70-311t-195-216q59-90 84.5-165.5T1997 232q0-39-4.5-81T1980 60q-26 30-60 83t-94 117.5T1663 392q-98-30-182-43.5T1300 335q-91 0-178 13.5T937 392q-103-67-163-131.5T680 143t-60-83q-8 49-12.5 91t-4.5 81q0 90 25.5 165.5T713 563q-124 78-194.5 216T448 1090q0 225 106 396t297.5 266.5T1300 1848zM1167 631q-36 0-80-58t-91-214l257-39q2 24 2.5 47t.5 44q0 99-23.5 159.5T1167 631zm514 439q-41 0-72.5-38t-31.5-74q0-25 18-40 49-42 94.5-73t58.5-31q15 0 29 38.5t14 82.5q0 55-32.5 95t-77.5 40zm692 427-358-124 26-76 358 124zm-940-866q-41 0-65-61.5T1344 411q0-21 .5-44t2.5-47l257 39q-47 156-91 214t-80 58zm613 603-12-79 394-61 12 79zm20-143-34-72 353-165 34 72zm71-379q27-92 40-177.5t13-170.5q0-92-20-162.5T2119.5 87 2056 32q21 112 21 200 0 160-84 312 44 34 80 76.5t64 91.5z"/></svg>