<svg xmlns="http://www.w3.org/2000/svg" viewBox="-10 0 2610 2048"><path d="M1380 1552q-228 0-394.5-60.5t-257-177.5-90.5-285q0-99 25.5-168t63-117.5 75-86.5 63-74.5T890 501q0-28-21.5-50T811 411l-82-41q-18 4-41 6.5t-49 2.5q-48 0-102.5-9.5t-99-30.5-65.5-55q0-55 42-80t117-25h72q49 0 85-28.5t69-70T831-3t100-70.5 147-28.5q106 0 184 41.5t121.5 115T1427 226q0 69-19.5 128t-45 112.5-45 107T1298 684v69h-80v-69q0-67 19.5-122.5t45-107.5 45-107 19.5-121q0-113-72-180.5T1078-22q-80 0-134.5 29.5T837 95q-24 25-46 55 7 11 14 29.5t7 27.5q0 21-7 31.5T790.5 263t-9.5 45l60 29q62 30 95.5 69.5T970 501q0 58-25.5 101t-63 82.5-75 85-63 108T718 1029q0 217 176 330t486 113q239 0 411-68t264.5-192.5T2148 919q0-79-23.5-148.5t-60-112.5-75.5-43q-13 0-20 6.5t-7 18.5q0 23 5 41t10 39 5 53l-81-11q0-34-6.5-66t-6.5-68q0-50 26-71.5t66-21.5q68 0 124 53.5t90 140.5 34 190q0 192-103.5 334.5T1831 1474t-451 78zm-337 314q-21 0-50.5-20.5t-52-46.5-22.5-40q0-20 20-27l213-71q4-14 5-39t1-41q0-39-6-81l105 15v190q0 16-25 42.5t-61 54-71 46-56 18.5zm334 112q-59 0-92-20.5t-33-47.5q0-24 21.5-49t49-50.5 49-53 21.5-55.5v-185l100-27v228q0 36 12.5 86.5t12.5 82.5q0 46-38.5 68.5T1377 1978zM1068 648q-31 0-67.5-2.5T911 639l6-80q53 4 87 6.5t64 2.5q45 0 89.5-6.5T1259 540l20 78q-61 16-111 23t-100 7zm423 596q-175 0-275.5-78T1115 952q0-138 86-210.5t268-72.5q96 0 218 22t295 80q0 50-51 86t-128 36q14 28 23.5 61t9.5 59q0 104-91.5 167.5T1491 1244zm-453-998q-22 0-37.5-16.5T985 190t15.5-39.5T1038 134t37.5 16.5T1091 190t-15.5 39.5T1038 246z"/></svg>