<svg xmlns="http://www.w3.org/2000/svg" viewBox="-10 0 2610 2048"><path d="M1357 1978q-39 0-62-26-25-27-38.5-69t-31.5-79q-6 13-13 27t-20 28q-42 43-98 56.5t-119-2.5q-31-8-67.5-27t-68.5-52q-60-62-87.5-138.5T725 1513q-111 1-191.5-26.5T388 1395q-50-49-69.5-106.5T312 1173t59-109q13-14 27-20.5t28-12.5q-37-18-83-32.5T270 960q-28-26-26-70.5t42-81.5q50-47 121-45.5T559 818q-4-74 17.5-149T667 522q57-59 110-86.5t99-67.5q30-26 30-54 0-11-4.5-20.5T888 276q-24-21-24-51 0-20 9.5-42.5T897 134q10-18 17-30t11-26q18-58 21.5-106t31.5-76q18-18 47-18 26 0 53 13t44 32q50 52 75.5 117t25.5 134q0 77-32.5 154.5T1090 472q-57 55-115 98.5T864 662q-32 30-47.5 63.5T801 791q0 25 9 47t26 39q38 38 74.5 38t61.5-25q16-16 25.5-42t21.5-83q11-54 39-133t97-146q169-166 329-264t295-140.5T2006 39q49 0 83.5 7t59.5 28q48 41 51 134.5t-45 226T2003.5 726 1736 1056q-67 70-140 103t-127 44q-57 12-84 20t-43 23q-12 11-18 26t-6 30q0 20 10.5 39.5t31.5 40.5q18 18 40 28.5t44 10.5q34 0 66.5-16t61.5-47q48-53 91.5-121t98.5-125q68-70 149-104.5t161-34.5q67 0 129 24.5t111 72.5q28 26 41 71t-15 73-76 36.5-106 26.5q-14 4-26.5 10.5T2100 1305q-25 15-47 24.5t-42 9.5q-31 0-53-25-15-18-34-18-13 0-26.5 9.5T1870 1331q-40 46-69.5 105t-88.5 119q-67 68-136.5 90t-138.5 18q54 81 55.5 152t-45.5 121q-20 22-43.5 32t-46.5 10zm9-85q26 0 38.5-34t12.5-59q0-36-17.5-73.5T1342 1657q-57-14-101.5-41t-85.5-64q-42-38-62.5-82t-24.5-79l56-28q14 40 34.5 70t48.5 58q45 44 107.5 68.5T1443 1584q59 0 115.5-21t106.5-74q35-38 60-76.5t51-78.5 63-81q36-39 84-39 19 0 36 8.5t28 21.5q5 6 13.5 9.5t19.5 3.5q20 0 47.5-12.5t55.5-24.5q51-21 95.5-40.5t49.5-25.5q6-9-11-26-37-38-84.5-57t-99.5-19q-67 0-135 30t-123 88q-45 47-92.5 118.5T1623 1415q-40 43-85.5 64.5T1448 1501q-80 0-144-61-34-32-50.5-66.5T1237 1306q0-29 12-57t36-53q25-26 67-42t113-32q38-9 98-36.5t115-83.5q151-152 246.5-295t143-262 52.5-200.5-25-111.5q-12-12-36-18.5t-58-6.5q-81 0-203 38t-272.5 132.5T1209 544q-55 56-77.5 121.5T1100 769q-16 71-32 113t-42 67q-55 51-120.5 49.5T778 933q-60-62-60-140 0-47 22.5-93.5T807 611q55-52 117-99t108-93q55-53 82.5-120.5T1142 166q0-56-19.5-105.5T1064-23q-19-16-26-11-6 4-21.5 45.5T982 103q-10 28-21 56t-11 50q0 12 2.5 21t8.5 15q33 32 30.5 77T954 399q-41 37-76.5 62.5t-70 49.5-74.5 58q-53 46-77 104.5T632 794q0 66 26 128.5t73 108.5q29 27 58.5 46t69.5 33l-28 56q-35-4-77.5-23.5T670 1083q-34-35-59.5-77.5T572 916q-33-41-74-58t-79-17q-28 0-59 11t-31 37q0 16 7 24 13 17 39 23.5t58 16.5 62 41q33 33 46 66.5t26 66.5 46 66q36 36 87.5 53.5T810 1263l-1 64q-60 13-132-9.5T560 1250q-27-28-40-54.5t-21-48.5-20-34q-9-9-22.5-9t-28.5 14q-40 39-37 104t55 120q65 67 157.5 90t206.5-1q-18 112 1 198t81 147q33 32 72 47.5t81 15.5q24 0 49-9.5t44-27.5q15-14 12.5-30.5T1139 1746q-12-12-36-17.5t-53.5-17T991 1672q-45-45-68-117t-10-132l64-1q-1 58 17 107t58 90q32 32 67 43t71.5 22 70.5 43q26 24 35.5 55.5t17.5 60 28 43.5q8 7 24 7zm-402-833q-37 0-63.5-26.5T874 970t26.5-63.5T964 880t63.5 26.5T1054 970t-26.5 63.5T964 1060zm300 286q-37 0-63.5-26.5T1174 1256t26.5-63.5 63.5-26.5 63.5 26.5 26.5 63.5-26.5 63.5-63.5 26.5zm150-328q-19 0-32.5-13t-13.5-32 13.5-32 32.5-13 32 13 13 32-13 32-32 13zm-125-212q-19 0-32.5-13t-13.5-32 13.5-32 32.5-13 32 13 13 32-13 32-32 13zM956 219q-16 0-26.5-11T919 181t10.5-27 26.5-11q17 0 28 11t11 27-11 27-28 11zm605 590q-19 0-32.5-13t-13.5-32 13.5-32 32.5-13 32 13 13 32-13 32-32 13zm493 470q-16 0-27-10.5t-11-26.5q0-17 11-28t27-11 27 11 11 28q0 16-11 26.5t-27 10.5zM986 153q-16 0-27-11.5T948 114q0-17 11-28t27-11q17 0 28 11t11 28q0 16-11 27.5T986 153zm1135 1097q-16 0-27.5-11t-11.5-27q0-17 11.5-28t27.5-11q17 0 28 11t11 28q0 16-11 27t-28 11zM1001 80q-16 0-27.5-11.5T962 41q0-17 11.5-28T1001 2q17 0 28 11t11 28q0 16-11 27.5T1001 80zm1193 1156q-16 0-27.5-11.5T2155 1197q0-17 11.5-28t27.5-11q17 0 28 11t11 28q0 16-11 27.5t-28 11.5zm-660-710q-19 0-32.5-13t-13.5-32 13.5-32 32.5-13 32 13 13 32-13 32-32 13zm240 92q-19 0-32.5-13t-13.5-32 13.5-32 32.5-13 32 13 13 32-13 32-32 13zm30-210q-19 0-32.5-13t-13.5-32 13.5-32 32.5-13 32 13 13 32-13 32-32 13zm-375-148q-44-45-52-85.5t25-72.5q36-35 107-48t158.5-4T1838 89zm687 553q-32 33-72.5 25t-85.5-52l171-409q30 83 38.5 170t-4 158-47.5 108z"/></svg>