<svg xmlns="http://www.w3.org/2000/svg" viewBox="-10 0 2610 2048"><path d="M1300 1832q-282 0-443-85.5T675 1506q-6-43-11.5-86.5T653 1317l19 17q-21 13-49 20.5t-55 7.5q-70 0-109-40t-39-99q0-52 32-107.5t88-113T668 886l-20 43q-4-59-5.5-121T641 684q0-232 82-409T953.5-2 1302-102q192 0 335.5 94T1861 252t80 382q0 60-.5 102t-1.5 79-3 82l-36-43q152 133 216 216t64 153q0 59-37 98.5t-99 39.5q-31 0-58-4.5t-62-19.5l23-8q5 28 24 62 14 25 24 52t10 59q0 98-83 172.5t-240.5 116T1300 1832zm-321 146q-97 0-155-37.5t-58-98.5q0-23 15.5-61.5T822 1690l58 48q-22 46-32 70t-10 34q0 28 39.5 46t101.5 18q74 0 114.5-19.5t40.5-56.5v-12l-1-17 72-9q1 9 1 19.5v18.5q0 70-60 109t-167 39zm379-203v-634q-120-14-243-67.5t-227.5-131-170-165.5T646 607l71-7q4 59 49 124.5T884.5 852 1049 964t187.5 80 187.5 30v701zm345 203q-107 0-167-39t-60-109q0-8 .5-16.5t1.5-21.5l71 9q-1 10-1 16.5v12.5q0 37 40.5 56.5T1703 1906q62 0 101.5-18t39.5-46q0-10-9.5-34t-32.5-70l58-48q26 52 41 90.5t15 61.5q0 61-57.5 98.5T1703 1978zm-534-201v-480q-126-46-227-104.5T772.5 1070 674 946l33 10q-58 43-105.5 89t-75 90-27.5 82q0 34 21.5 51.5T581 1286q32 0 67.5-12t83.5-43q5 97 11.5 157t13.5 112q17 117 154 186t389 69q190 0 330-33t216.5-90.5T1923 1502q0-23-9-48.5t-23-51.5q-19-35-28-68.5t-9-70.5v-32q54 31 94 43t71 12q39 0 60.5-17.5t21.5-51.5q0-49-52-114t-156-150l-32-88V632q0-190-68-338T1600 60.5 1302-25 998.5 62.5t-203 246T723 680v160q0 67 66 143.5T971 1130t265 120v527zm129-967q-177 0-289-136l55-47q91 111 234 111t234-111l55 47q-112 136-289 136zm102 506v-71q124-44 226.5-111T1793 992t71-140l69 24q-10 60-55 123.5t-117.5 123-164.5 110-196 83.5zm-335-836q-49 0-89.5-23T918 396l61-28q8 20 32 33t54 13 54.5-13 31.5-32l62 27q-20 40-60 62t-88 22zm305 652-90-44q105-22 209-75.5T1677.5 889 1813 745.5t51-134.5l73 9q-2 67-49.5 142.5t-127 148T1580 1041t-210 91zm208-652q-49 0-89.5-23t-57.5-61l61-28q8 20 32 33t54 13 54.5-13 31.5-32l62 27q-20 40-60 62t-88 22z"/></svg>