<svg xmlns="http://www.w3.org/2000/svg" viewBox="-10 0 2610 2048"><path d="M663 1396q-76-2-109.5-21.5T514 1328q34-5 51-32t17-63q0-29-16.5-66t-48.5-80q-54-71-73-127t-19-135q0-43 10-79.5t29-77.5q-24-48-24-97 0-87 81-148-6-24-8.5-47t-2.5-44q0-81 48.5-133.5T704 122q-10-34-10-66 0-44 25-77t73-61q5 51 35 81t95 30q36 0 73.5-13t92.5-41q71-36 148.5-56.5T1432-102q124 0 209.5 35t132 86.5T1825 120q68 0 129 35t108.5 95 74.5 134.5 27 153.5q0 67-29 130 20 41 30 77.5t10 79.5q0 79-19.5 135t-73.5 127q-66 88-66 146 0 36 16.5 63t50.5 32q-8 28-40.5 48t-67.5 20q-33 0-61-22V834l-23-19q0-137-50.5-207T1702 538q-20 0-48 5-4-70-49.5-112.5T1485 388q-102 0-181.5 48.5T1144 548Q994 666 879 715.5T663 765zm632 239q-124 0-244.5-40.5t-221-111.5T663 1321V996q19 44 44.5 80.5t56.5 58 65 21.5q51 0 99-19t101-44.5 117.5-44.5 148.5-19 148.5 19 117.5 44.5 101 44.5 99 19q49 0 86-40.5t65-102.5v323q-65 89-161.5 156.5t-213 105T1295 1635zm12 343q-288 0-458-90.5T664 1642q-11-117-19.5-253.5t-12.5-299-4-355.5h81q0 183 4 348t12.5 304.5T745 1635q13 121 158 192t404 71q205 0 350.5-33.5t223-92T1958 1638q0-19-6-37.5t-19-44.5q-20-41-31-81t-11-84V815h80v576q0 42 10 77.5t28 72.5q14 28 21.5 49.5t7.5 47.5q0 101-88.5 177.5t-252 119.5-390.5 43zm-12-676q93 0 171.5-43.5T1567 1128l-105-51-167 7-196-8-78 41q18 92 99 138.5t175 46.5zm-266-340q-37 0-62-27.5T942 868t25-66.5 62-27.5 61.5 27.5T1115 868t-24.5 66.5T1029 962zm-68 217q-58 0-92-39.5t-39-91.5q18 8 40 11t47 3q55 0 119-12t130.5-23.5T1295 1015q94 0 194 23.5t184 23.5q26 0 48-3t40-11q-5 52-39 91.5t-93 39.5q-49 0-108-19l-118-38-108-19q-48 0-107.5 19t-118.5 38-108 19zm597-217q-37 0-61.5-27.5T1472 868t24.5-66.5T1558 774q38 0 62 27.5t24 66.5-24 66.5-62 27.5z"/></svg>