<svg xmlns="http://www.w3.org/2000/svg" viewBox="-10 0 2610 2048"><path d="M1107 1978q-188 0-342-61t-264.5-173.5-170.5-269-60-347.5q0-146 40.5-274T432 612q68-95 165.5-162T808 332t228-96 217-96l149-74q180-89 297-128.5t200-39.5q130 0 227 53t150.5 148.5T2330 325q0 79-23.5 165.5T2233 684l-32 68q-38 81-57 152.5t-34.5 146.5-41.5 166-79 213q-73 169-204.5 292T1480 1911.5t-373 66.5zm-192-930q18 0 28.5-15t10.5-37q0-56 32-99.5t72-59.5q28-10 28-39 0-36-41-36-37 0-77 36t-67.5 88T873 987q0 61 42 61zm178 241q-87 0-158-42t-113.5-113.5T779 975q0-101 62.5-179.5t161.5-124 208-45.5q68 0 122.5 16t78.5 39q49 49 49 161 0 82-29 161.5t-80 144-117.5 103T1093 1289zm-16 377q142 0 270-43.5t233.5-126.5 180.5-200q61-95 98.5-198t70.5-206.5 77-198.5l58-124q65-139 93.5-224.5T2187 205q0-65-38.5-116T2045 8t-146-30q-72 0-177.5 36.5T1444 135l-159 78q-99 48-210.5 92.5t-220 92T656 504 511 640q-58 82-88 185t-30 217q0 136 50.5 250T586 1490t217 130 274 46z"/></svg>