<svg xmlns="http://www.w3.org/2000/svg" viewBox="-10 0 2610 2048"><path d="M1343 1978q-117 0-220-43t-182-119-123.5-176-44.5-213q0-129 60-242t165-191 238-103l9 78q-114 23-202.5 89.5t-139 162T853 1426q0 129 66.5 236.5t178 171.5 245.5 64q135 0 246.5-64t178.5-171.5 67-236.5q0-110-51-205.5T1644 1058t-204-89l11-78q133 24 238 102t165.5 191 60.5 243q0 113-44.5 213T1747 1816t-182.5 119-221.5 43zm-9-254v-399q0-43 1-66t2-48q-30 27-70 57l-66 51-50-61 193-150h70v616zm-28-783q30 0 30-32v-69q0-31-30-31t-30 31v69q0 32 30 32zm38 49q-76 0-133-27V764q0-30 33-30h200q33 0 33 30v199q-57 27-133 27zm-103-98L945 749V546h796v203l-297 143-17-83 228-111v-72h-624v72l227 111zm-220-298L640-100h598l309 687-82 14-278-621H775l331 602zm492 5-186-420 150-281h483l-390 701z"/></svg>