<svg xmlns="http://www.w3.org/2000/svg" viewBox="-10 0 2610 2048"><path d="M1270 1978q-50 0-96-21t-64-70q11-39 16-81t5-81q0-34-5.5-76t-13.5-86.5-17-84.5-16-70q-7-32-15-61.5t-18-50.5q-75-77-109.5-139T902 1010q0-21 3.5-53.5T914 896L801 646q-13-29-31-71.5T735 486l-52 5q-16 1-45 2t-52 1q-73 0-122-38.5T415 341q0-64 45-115t135-89l9-18q36-68 95-112t130-44q42 0 85 15.5T992 19q21-4 39-5.5t37-1.5q42 0 87 13.5t85 39.5 66 66q-3 58-48 119.5T1138 344q17 44 48.5 104.5T1246 541l163 112q16 19 28.5 38t24.5 42q17 4 31 6.5t21 2.5q60 0 112 10t85 18q60 15 110.5 61.5t81 115T1933 1097q0 68-29.5 130.5T1820 1348q-4 104-33.5 196.5T1706 1768l-14 121q-17 48-58.5 68.5T1542 1978q-47 0-81-13t-55-41q-25 25-62.5 39.5T1270 1978zm-329-54q-30 0-58-5t-28-17 11.5-39 18.5-38q6-21 11-64t8-90.5 3-79.5q0-67-2-129t-2-148v-290l174 237-11 230q0 11-2 61t-3.5 116.5-3 129-1.5 99.5q-4 13-27.5 20t-87.5 7zm472-192q5-20 11.5-41.5t13.5-41.5l45-140q-3-35-10-77.5t-21-110.5l-47 6q-3 28-5.5 65.5t-2.5 73.5q0 67 2.5 108t3.5 56zm-165-358q-10 0-20-9.5t-10-18.5q0-8 4.5-19.5t4.5-19.5q0-16-20-33l-40-34-20-32q0-16 21-16 47 0 80 30.5t33 77.5q0 27-10 50.5t-23 23.5zm-61-227q-18 0-52.5-13t-62.5-29-28-24q0-36 15-70t31-34q9 0 38.5 20.5t41.5 33.5q16-14 40-25.5t34-11.5q14 0 24.5 20t10.5 46q0 23-16.5 43t-38.5 32-37 12zm83 751q20 0 38-6.5t35-19.5l-17-229q-4-27-6.5-76.5T1317 1466q0-63 6-122t14-88q43-5 88-13.5t85-21.5q26 101 39 180.5t13 116.5q-7 25-20 69.5t-30 94.5q-11 34-21.5 72.5t-18.5 71-10 49.5q14 11 34.5 17t45.5 6q26 0 42.5-6t28.5-16l16-133q51-124 82-222.5t31-210.5q38-37 74.5-93.5T1853 1097q0-76-27-128.5t-66-83-74-39.5q-31-8-75.5-16t-96.5-8q-19 0-50-6.5t-57-13.5q-36-73-58-93l-160-110q-35-43-66.5-100t-53-112-27.5-90q32-5 71.5-27.5t71-53.5 38.5-61q-34-33-72.5-48T1068 92q-27 0-50.5 6T977 116q-27-35-67-54t-81-19q-42 0-82.5 28.5T682 143l-26 46q-74 31-117.5 71T495 341q0 34 22 53.5t69 19.5q18 0 47.5-1t49.5-2l106-7q10 28 25.5 68t31 76 21.5 51l130 288q-5 19-10 59t-5 64q0 39 10 70.5t37.5 67.5 79.5 90q14 26 26 68.5t22 83.5q8 32 21.5 95t19.5 106q5 31 9 67t4 67q0 46-5 82t-12 67q14 13 31.5 18.5t44.5 5.5zm367-444q-13 0-21.5-15t-8.5-30q0-11 6.5-20t6.5-17q0-10-8.5-22.5t-8.5-19.5q0-8 13-21t28.5-23.5 22.5-10.5q8 0 11 12t3 30q0 67-12.5 102t-31.5 35zm-437-493q-23 0-61-31-31-6-50.5-20.5T1069 880t17-31 40-27 39-11q21 0 43.5 17.5t38 40T1262 907q0 19-22.5 36.5T1200 961zm167 244q-18 0-32-20.5t-14-33.5q0-17 24-40.5t37-33.5q17-14 34-23.5t40-9.5q26 0 46.5 15t20.5 27q0 25-27.5 39.5T1447 1161q-13 13-35 28.5t-45 15.5zM590 331q-16 0-16-15 0-12 14-25t27-13q16 0 16 15 0 12-13.5 25T590 331zm455 463q-19 0-37.5-24T989 722q0-13 27.5-30.5T1063 674q17 0 35 28t18 54q0 13-23 25.5t-48 12.5zm-85-155q-14 0-32-30.5T908 552q14-27 44-27 8 0 20.5 16t22 36 9.5 33-12.5 21-31.5 8zm919 1267q-16 0-32.5-2t-27.5-6q-2-8-4-18t-2-22q0-8 .5-16t2.5-14q16-51 24.5-90t11.5-84 3-114q0-20-18-61t-38.5-79-30.5-48l152-235v166q0 38 21.5 79t43 75.5 21.5 53.5q0 16-5.5 75.5T1993 1675q-1 16-1 33v35q0 43-2 84t-12 64q-9 6-41.5 10.5t-57.5 4.5zm-537-873q-9 0-17.5-14t-14-30-5.5-21q0-8 10.5-23.5T1326 915t-12.5-25.5T1301 872q0-12 11.5-19t24.5-7 28.5 2.5 22.5 7.5q6 9 11.5 29t5.5 45q0 19-11 43t-26 42-26 18zM915 475q-10 0-21.5-20T882 424q0-12 13-19t25-7 23 16.5 11 36.5q0 9-12 16.5t-27 7.5zm689 762q-14 0-23-41.5t-9-76.5q0-37 28-68.5t58-31.5q9 0 16 31.5t11 66 4 44.5-16.5 28-37 33-31.5 15zm-536-639q-9 0-25.5-20.5t-30-46T999 492q0-7 10-14.5t19-7.5q8 0 22.5 21t26.5 46 12 38q0 23-21 23zm235 193q-10 0-40-5.5t-54-26.5-42.5-50-18.5-40q0-15 15-15 18 0 41 15t48 38q19 17 42.5 35t23.5 32q0 17-15 17zm228 221q-29 0-55.5-14t-26.5-30q0-18 7.5-42t17-42 15.5-18q14 0 30 19.5t28 46 12 48.5q0 32-28 32zM828 273q-21 0-35.5-19T778 211q-13 0-22-11t-9-31l81-10q22 0 37 16.5t15 40.5-14.5 40.5T828 273zm162 97q-12 0-25.5-14.5T951 329q0-7 12-15.5t21-8.5q8 0 14.5 14.5t6.5 31.5q0 19-15 19zm1132 1226q-18 0-23.5-40t-16.5-77q-12-44-23.5-76t-18.5-64-7-75q78 0 115 41.5t37 115.5q0 39-10 79.5t-24.5 68-28.5 27.5zm-370-464q-9 0-20-21.5t-19-51-8-53.5q0-10 12-17t28-7 35.5 26.5 19.5 47.5q0 24-16.5 50t-31.5 26zm-102-172q-54 0-54-54 0-15 14-15 37 0 60 12t23 29q0 13-12.5 20.5T1650 960zm405 397q-76-58-123-125.5t-70-113.5l52-127q35 99 74 167.5t88 120.5zM775 10l9-124 35-2L850-1zm252 223q-50 0-50-40 0-25 29.5-37.5T1067 143q44 0 86 28-32 28-64.5 45t-61.5 17zM803-91q-16 0-27.5-9T764-122q0-12 11.5-21t27.5-9q17 0 27.5 9t10.5 21q0 13-11 22t-27 9zm229 133-94-31 36-109 46 13zM999-75q-18 0-31-11.5T955-114t12.5-27 31.5-11q18 0 31 11t13 27-13 27.5T999-75z"/></svg>