<svg xmlns="http://www.w3.org/2000/svg" viewBox="-10 0 2610 2048"><path d="M780 1978q-175 0-309-69.5t-210-192-76-282.5q0-154 84-299 71-122 164.5-202T621 803t168.5-81T898 666q40-30 81-102t94.5-165.5 129.5-188T1390 41q212-143 444-143 110 0 220 30.5t199.5 82T2389 126q26 93 26 188 0 129-46 260.5t-125.5 243T2062 999q-51 35-121.5 70t-140.5 65.5-120 52.5-60 33q-18 19-33 48t-35 82q-124 326-325 477t-447 151zm-95-356-10-79q71-8 114-66l63 51q-66 81-167 94zm23-266-17-79q35-8 62-26.5t49-49.5l66 46q-30 43-70.5 70.5T708 1356zm332 194-30-74q63-25 96-94l72 33q-43 97-138 135zm-11-405-15-77q41-7 70.5-31t51.5-64l70 37q-61 117-177 135zm300-10-14-77q80-14 120-93l71 37q-58 114-177 133zm-549 763q234 0 409-146t291-431q28-68 42.5-98t37.5-56q10-11 47.5-30t90.5-43 112-51 113.5-55 93.5-55q91-63 163-164t113.5-220.5T2335 314q0-77-19-152-42-51-120-93T2023 2.5 1834-22q-104 0-202 33.5T1435 107q-98 61-168.5 150.5T1143 441t-96 170-87 108q-55 41-133.5 75T660 872.5 488 988t-150 187q-73 128-73 259 0 137 65 242t181 163.5 269 58.5zm667-1072-33-73q67-31 92-94l75 30q-39 93-134 137zm268 96v-78q78 0 135-74l62 49q-77 103-197 103zm71-294-37-68q32-17 51.5-42.5T1830 460l77 22q-16 48-46.5 85t-74.5 61zm281-188-57-54q22-24 34.5-54t12.5-73h79q0 57-18.5 101.5T2067 440z"/></svg>