<svg xmlns="http://www.w3.org/2000/svg" viewBox="-10 0 2610 2048"><path d="M1344 1973q-82 0-160.5-11.5T1031 1928l72-59q57 14 118 21.5t123 7.5q203 0 377.5-73t305.5-204 204-305.5 73-377.5-73-378.5-204-307T1721.5 47 1344-27q-202 0-377 74T661.5 252.5t-204 307T384 938q0 81 12.5 158t35.5 150l-79 13q-49-155-49-321 0-219 79.5-408t221-331T935-22.5t409-79.5 409 79.5T2083.5 199t221 331 79.5 408q0 218-79.5 406.5t-221 329.5-330.5 220-409 79zm-648-39-48-64q126-87 233.5-185t205.5-215l62 50q-100 121-211 223t-242 191zm209 94q-101 0-210-86-12 1-23.5 1.5t-23.5.5q-152 0-242-72.5T316 1677q0-37 9-86-55-68-80-140t-29-169q175-37 327-77.5t295.5-89T1129 1006q62-26 102-38t70-12q83 0 120.5 54t37.5 175q0 117-32.5 237t-88.5 228.5-127.5 193.5-150 134.5T905 2028zm0-80q63 0 129.5-46t128-125 110.5-178 77.5-206 28.5-208q0-87-16-118t-62-31q-19 0-49.5 9t-91.5 35q-134 56-270.5 103t-282 86.5T300 1344q8 60 33.5 113.5T411 1570q-15 64-15 107 0 88 66.5 137.5T648 1864q17 0 39-1.5t33-2.5q99 88 185 88zm-527-346-19-77q184-50 321-98.5T924 1325t200-117l45 64q-96 66-208 122t-254 106.5T378 1602zm405-649-24-71 296-102-299-134 30-68 385 172v70zm722 715-152-179 23-88 109 129 92-206 193 91 20-214 304 64-15 74-222-47-23 236-220-103zm400-715-388-133v-70l385-172 30 68-299 134 296 102z"/></svg>