<svg xmlns="http://www.w3.org/2000/svg" viewBox="-10 0 2610 2048"><path d="M1300 1978q-216 0-404.5-80.5T564 1674t-223.5-331.5T260 938t80.5-404.5T564 202 895.5-21.5 1300-102q215 0 403.5 80.5T2035 202t224 331.5 81 404.5-81 404.5-224 331.5-331.5 223.5T1300 1978zm-440-359 25-94 49 6 5-41-44-5 17-65 46 6 5-41-41-5 24-92-40-5-24 92-41-6 24-91-41-5-24 91-49-5-5 42 43 5-16 65-47-6-4 40 40 5-24 95 40 4 24-94 42 5-25 95zm-5-140-42-4 17-65 41 5zm285 202 6-51q39-2 62.5-27.5t23.5-62.5q0-23-12-40t-41-33l-30-17q-20-11-27.5-21.5t-7.5-25.5q0-34 37-34 43 0 79 26l18-41q-13-9-29-16t-36-11l4-37-27-4-5 37q-42 0-65 23t-23 63q0 44 53 76l33 20q32 19 32 41 0 40-46 40-45 0-88-35l-6 50q33 22 72 26l-6 50zm231-5q36 0 36-36 0-37-36-37t-36 37q0 36 36 36zm618 212L499 1732l64-622 1490 156zm-586-324 38-225-67-8-18 227zm-445-526q-52 0-89-44.5T832 888q0-62 37.5-106.5T958 737q53 0 89.5 44.5T1084 888q0 61-36.5 105.5T958 1038zm738 706q25 0 58-10l5-35q-33 10-64 10-55 0-87-33.5t-32-92.5q0-77 33.5-132t91.5-55q47 0 76 33.5t29 85.5q0 46-11.5 78t-28.5 32q-22 0-17-30l20-124q-13-8-32.5-14t-33.5-6q-41 0-63.5 35.5T1617 1574q0 74 54 74 26 0 45-33l7 2q3 43 44 43t60-47 19-93q0-70-40-114t-107-44q-52 0-89 32.5t-56 83-19 105.5q0 77 43 119t118 42zm-17-130q-20 0-20-35 0-26 11-60t33-34q12 0 20 5l-9 50q-7 41-14.5 57.5T1679 1614zm-560-830q-129-11-217.5-46.5T751 637l55-52q55 55 128 81.5t191 37.5zm181 1114q199 0 373-74.5t306-206.5 206.5-306 74.5-373-74.5-373T1979 259 1673 52.5 1300-22 927 52.5 621 259 414.5 565 340 938t74.5 373T621 1617t306 206.5 373 74.5zm342-860q-52 0-89-44.5T1516 888q0-62 37.5-106.5T1642 737q53 0 89.5 44.5T1768 888q0 61-36.5 105.5T1642 1038zm-160-254-7-80q119-11 192-38t127-83l55 54q-62 65-150 100.5T1482 784z"/></svg>