<svg xmlns="http://www.w3.org/2000/svg" viewBox="-10 0 2610 2048"><path d="M1622 1778q-133 0-257-54.5T1119 1557l-188-173q-81-74-142.5-121T673 1190.5 560.5 1155 426 1145H198L256 98h353q139 0 291.5 7.5T1201 126t274 30 211 37q218 51 359 96.5t220 94.5 109.5 110.5T2402 640l-28 755q-4 109-71 170.5t-166 43.5l-239-44q-17 93-93 153t-183 60zm0-80q80 0 135.5-45t63.5-114q-245-169-363.5-320T1339 924q0-124 84-213.5T1655 584l20 78q-160 40-221 139 39-17 92-17 98 0 212.5 53T1978 984l-54 60q-94-85-194.5-132.5T1546 864q-57 0-82 26t-25 88q0 103 105.5 225t333.5 277l273 51q62 12 101-26.5t42-111.5l28-755q2-66-25-114.5t-98.5-88.5-200.5-79-330-85q-84-20-208.5-36.5t-270-29.5-295-20-285.5-7H332l-50 887h144q84 0 150 11.5t127 40.5 128.5 80T985 1326l188 171q113 103 222 152t227 49z"/></svg>