<svg xmlns="http://www.w3.org/2000/svg" viewBox="-10 0 2610 2048"><path d="M2185 1978q-218-17-427.5-60.5T1390 1813q11-47 19.5-97.5t13.5-96 5-76.5q0-89-10.5-164.5T1384 1222q-18-63-31.5-124T1339 977q0-76 41-121t108-45q107 0 171 119.5t77 337.5l-79 3q-15-187-59.5-283.5T1483 891q-33 0-48.5 21t-15.5 65q0 55 11.5 110t27.5 112q28 97 38 183.5t10 161.5l-58-39q142 36 263.5 63t250.5 49.5 295 47.5l-85 74q59-218 114-397t125-365q24-64 36.5-103t12.5-67q0-27-17.5-44.5T2395 745q-25 0-42.5 15t-31.5 56l-78 217-75-26 97-280q8-24 13.5-45.5t5.5-40.5q0-43-21.5-69t-57.5-26q-33 0-53.5 19.5T2121 626l-83 340-77-19 81-351q5-24 8-41t3-33q0-49-24.5-77.5T1961 416q-80 0-93 116l-46 393-79-8 42-371q5-44-16-71.5t-56-27.5q-65 0-72 86l-32 372-79-31 32-346q7-77 44.5-116.5T1711 372q50 0 88.5 31.5T1841 482h-39q13-67 54.5-104t103.5-37q72 0 118.5 49.5T2125 513q0 10-1 19.5t-3 19.5l-38 3q15-38 47-58.5t75-20.5q67 0 110 45.5t43 116.5q0 25-7.5 51t-23.5 55l-27-32q17-23 43.5-35t55.5-12q60 0 100.5 38.5T2540 798q0 36-15.5 89T2487 999q-71 194-120.5 355.5T2267 1690zM506 1454l71-11-49-180-72 10zm180-29 70-12-47-180-72 11zm177-32 70-17-48-179-70 15zm176-42 70-18-48-178-70 17zm522 443 48-179-70-17-48 178zM415 1535l-82-288q-49-174-99-335.5T113 556q-22-59-37.5-112T60 355q0-56 40.5-94.5T201 222q29 0 55.5 12t43.5 35l-27 32q-16-29-23.5-55t-7.5-51q0-71 43-116.5T395 33q44 0 75.5 20.5T517 112h-38q-4-20-4-42 0-73 46.5-122.5T640-102q62 0 103.5 37T798 39h-39q3-47 41.5-78.5T889-71q67 0 104.5 39.5T1038 85l32 346-79 31-32-372q-7-86-72-86-35 0-56 27.5T815 103l42 371-79 8-46-393Q719-27 639-27q-43 0-67.5 28.5T547 79q0 16 3 33t8 41l81 351-77 19-83-340q-10-41-30.5-60.5T395 103q-36 0-57.5 26T316 198q0 19 5.5 40.5T335 284l97 280-75 26-78-217q-15-41-31.5-56T205 302q-30 0-47.5 17.5T140 364q0 28 12.5 67T189 534q70 186 125 365t114 397l-85-74q166-25 295.5-47.5T889 1125t263-63l-58 39q0-75 10-161.5t38-183.5q17-57 28-112t11-110q0-44-15.5-65t-48.5-21q-70 0-114.5 96.5T943 828l-79-3q14-218 78-337.5T1112 368q68 0 108.5 45t40.5 121q0 60-13.5 121T1216 779q-23 81-33.5 156.5T1172 1100q0 31 5 76.5t13.5 96 19.5 97.5q-157 61-367 104.5T415 1535zm1322 301 48-181-70-15-48 179zm177 32 49-181-72-11-47 180zm180 29 50-181-72-10-49 180z"/></svg>