<svg xmlns="http://www.w3.org/2000/svg" viewBox="-10 0 2610 2048"><path d="M1410 1928q-133 0-212-41t-79-124q0-38 13.5-81.5t36-83 50.5-64.5l32-106q11-35 15.5-68t4.5-82q0-39-83-53l-109-18q-52 35-109 47t-116.5 20.5T736 1310q-35 16-76.5 45t-90.5 53-108 24q-34 0-66.5-9.5T330 1395q-98 0-147-66.5T134 1162q0-109 59-210t176-198l277-404q25-58 74.5-102.5t110.5-70T951 152q26 0 47 4t40 10q16-79 50.5-122T1170 1q33 0 56.5 22t38.5 68q32-14 70.5-25.5T1402 54q48 0 96.5 21.5t91 43T1660 140q31 0 64.5-20t72-46.5 84-46.5T1981 7q89 0 181 58t169.5 156.5 125 222T2504 698v17.5l-1 16.5-34 643q-1 32 7 73.5t17 80 9 61.5q0 90-84 140.5t-204 50.5q-112 0-174.5-39t-62.5-130q0-45 19.5-101t39-113 19.5-103q0-37-8-67.5t-8-70.5q-52 55-117.5 85t-159.5 38q1 12 2 34t1 36q0 66-27.5 145.5T1671 1623q5 54 7.5 97t2.5 69q0 64-76.5 101.5T1410 1928zm-945-726q-18 0-24.5-17t-6.5-40q0-59 27.5-94.5T533 1015q28 0 48 14t20 31-26 33.5-43 33.5q-22 22-30.5 48.5T465 1202zm564 606q-96 0-142.5-31t-46.5-62q0-23 12.5-65t25-88.5T890 1480q0-46-20-82t-40.5-70.5T809 1253l334-96q0 105 20 174t40 122 20 110l-39 212q-24 13-70 23t-85 10zm-771-762q-40 0-77.5-61t-61-161.5T96 604q0-72 8-136.5t20-105 25-40.5q16 0 27.5 25t30.5 97q20 71 57.5 164T385 790q20 22 28.5 48.5T422 891q0 61-46.5 108T258 1046zm219-298q-12-3-31.5-34t-35-79.5T395 532q0-62 8-110t24-48q17 0 44 51 21 40 50.5 84t77.5 75q9 22 9 44 0 49-38 84.5T477 748zm417 158q-31 0-50.5-26.5T824 818q0-44 28-78.5t64-34.5q31 0 50.5 26.5T986 792q0 44-27.5 79T894 906zm516 942q89 0 141-19.5t50-52.5l-11-183q49-49 71.5-115t22.5-145q0-27-2-59.5t-5-65.5q140-9 226.5-46t150.5-131q16-76 54-148.5t93-139.5l61 47q-67 76-100 158t-33 158q0 53 3 88.5t3 96.5q0 56-19.5 116.5t-39 112.5-19.5 86q0 46 29 70.5t130 24.5q86 0 146.5-33t60.5-78q0-13-9-49.5t-17.5-82.5-6.5-85l34-641q1-8 1-15v-14q0-113-41-222.5t-107-199T2133 139t-152-53q-45 0-83.5 20t-75.5 46-76 46-86 20q-49 0-93-22.5t-84.5-45T1402 128q-36 0-83.5 22.5T1227 199q-3-50-20-84t-40-34q-25 0-41.5 45.5T1104 250q-21 7-35 7-31 0-63.5-12.5T941 232q-42 0-87 20.5t-81.5 55T720 385L425 812q-124 85-167.5 174.5T214 1162q0 80 33 117.5t99 37.5q33 22 64.5 29.5t57.5 7.5q48 0 91.5-24.5t84-54.5 77.5-46q55-24 107-28.5t102-12.5 96-41q114-81 176-196.5t68-272.5l78 7q-10 153-57.5 259.5T1157 1141q107 14 148.5 41.5t41.5 78.5q0 63-7 109.5t-20 83.5l-34 98q-37 46-64.5 98.5T1194 1756q0 36 48.5 64t167.5 28zm587-213q-90 0-143-21t-53-58q0-23 19.5-53.5t38.5-59.5 19-47q0-46-1.5-76t-8.5-71l201-126 34 121zM794 240q-36-29-59-81.5T712 49q0-44 16-72.5T769-52q30 0 63.5 35t57 85 23.5 97z"/></svg>