<svg xmlns="http://www.w3.org/2000/svg" viewBox="-10 0 2610 2048"><path d="M1300 1978q-216 0-404.5-80.5T564 1674t-223.5-331.5T260 938t80.5-404.5T564 202 895.5-21.5 1300-102q215 0 403.5 80.5T2035 202t224 331.5 81 404.5q0 172-53 328.5T2139 1553l-72-39 80-73 10-69q50-98 76.5-207t26.5-227q0-199-74.5-373T1979 259 1673 52.5 1300-22 927 52.5 621 259 414.5 565 340 938t74.5 373T621 1617t306 206.5 373 74.5q203 0 381-78.5t308-213.5l30 84q-140 133-325 210.5t-394 77.5zm144-454q-158-69-295-69-108 0-209 45l-31-68q115-52 240-52 156 0 325 76zM816 917q-52 0-89-45.5T690 758t37-114 89-46 89 46 37 114-36.5 113.5T816 917zm1262 1031q-47 0-80.5-33t-33.5-80 33.5-80 80.5-33 80 33 33 80-33 80-80 33zm0-50q26 0 44.5-18.5t18.5-44.5-18.5-44.5-44.5-18.5-45 18.5-19 44.5 19 44.5 45 18.5zM620 564l-67-20q32-107 78-157t114-50q23 0 46.5 4t45.5 10q23 7 46.5 11.5T930 367h91v70h-91q-31 0-58.5-5.5T819 419q-20-5-38.5-8.5T745 407q-40 0-69.5 36T620 564zm1458 1161q-47 0-80.5-33t-33.5-80 33.5-80 80.5-33 80 33 33 80-33 80-80 33zm0-50q26 0 44.5-18.5t18.5-44.5-18.5-44.5-44.5-18.5-45 18.5-19 44.5 19 44.5 45 18.5zm0-173q-47 0-80.5-33t-33.5-80 33.5-80 80.5-33 80 33 33 80q0 46-33 79.5t-80 33.5zm0-50q26 0 44.5-19t18.5-44q0-26-18.5-44.5T2078 1326t-45 18.5-19 44.5 19 44.5 45 18.5zm-460-360q-100 0-182-48.5T1305 913t-49-182 48.5-182 131-131 182.5-49 182 49 130.5 131 48.5 182-48.5 182-130.5 130.5-182 48.5zm0-64q82 0 149.5-40T1875 880.5t40-149.5-40.5-149.5T1767 474t-149-40-149.5 40T1361 581t-40 150q0 82 40 149.5T1468.5 988t149.5 40zm8-123q-59 0-100-48.5T1485 738q0-71 41-119.5t100-48.5 100.5 49 41.5 119-41 118.5-101 48.5zm452 374q-47 0-80.5-33t-33.5-80 33.5-80 80.5-33 80 33 33 80q0 46-33 79.5t-80 33.5zm0-50q26 0 44.5-19t18.5-44q0-26-18.5-44.5T2078 1103t-45 18.5-19 44.5 19 44.5 45 18.5zm0-173q-47 0-80.5-33t-33.5-80 33.5-80 80.5-33 80 33 33 80q0 46-33 79.5t-80 33.5zm0-50q26 0 44.5-19t18.5-44q0-26-18.5-44.5T2078 880t-45 18.5-19 44.5 19 44.5 45 18.5zm-129-173V607h129q47 0 80 33t33 80q0 46-33 79.5t-80 33.5zm129-50q26 0 44.5-19t18.5-44q0-26-18.5-44.5T2078 657t-45 18.5-19 44.5 19 44.5 45 18.5zm-649-418-45-53q98-83 173.5-119.5T1693 156q62 0 107 42.5t70 137.5l-68 17q-19-71-45.5-99t-63.5-28q-45 0-110 32.5T1429 365z"/></svg>