<svg xmlns="http://www.w3.org/2000/svg" viewBox="-10 0 2610 2048"><path d="M1938 1460q-40 0-67-8.5t-51-22.5l37-71q37 22 81 22 30 0 48-16t28-40q41-3 76.5-33.5t58-75.5 22.5-89q0-8-.5-15.5t-1.5-14.5q44-32 67.5-76t23.5-95q0-22-5-50.5t-17-46.5q25-17 36-52t11-67q0-41-21-84.5t-47-56.5q6-12 9-33.5t3-40.5q0-46-31.5-93.5T2131 349q1-6 1-12.5V324q0-44-22-79t-58-56.5-78-22.5h-14l-14 1q-5-33-29-63.5T1860 54t-66-19q-17 0-32 2t-26 6q-16-25-57-45t-79-20q-26 0-57.5 9T1502 4q-10-7-34.5-11.5T1420-12q-37 0-80 20t-56 45q-15-6-42-6-57 0-102.5 39.5T1065 203l-70-40q30-90 96.5-143T1242-33q13 0 19 1 33-28 74.5-44t84.5-16q42 0 78 13 49-23 102-23 90 0 159 61 7-1 14.5-1.5t14.5-.5q69 0 126 36t88 95q83 10 141 70.5t67 141.5q45 34 72 84t27 110q0 26-6 52 62 70 62 163 0 70-38 132 13 44 13 84 0 60-23.5 113t-65.5 94q-3 86-54 156t-130 100q-16 30-49 51t-80 21zM802 1872q-21 0-36-8.5t-15-24.5q0-27 41-56.5t106-50 136-20.5q65 0 92.5 14.5t27.5 34.5q0 30-36 31t-125 18q-51 9-83.5 24t-57 26.5T802 1872zm137-141v-172h138v172zm176 247q-22 0-38-10t-16-23q0-22 35-56.5t104-61.5 170-27q71 0 103 14.5t32 37.5q0 32-41.5 33.5T1324 1907q-56 11-92 28t-62 30-55 13zm137-160v-251h169v248zM422 980q-79 0-119.5-53.5T262 803q0-48 15.5-88t44.5-82l70 37q-22 30-36 62.5T342 800q0 44 27 72t76 28q92 0 133-133l75 24q-26 88-82.5 138.5T422 980zm772 640q-266 0-463.5-82.5T424 1306 315 955q0-4 .5-12t3.5-38l79 19q-2 27-2.5 37.5T395 975q0 167 97.5 294.5t277 199T1194 1540q185 0 329.5-36t227.5-96.5 83-135.5q0-23-4-45t-13-52l76-24q21 67 21 121 0 88-62 153.5T1686 1534t-232 64.5-260 21.5zM465 413q-19-52-156-52-74 0-74-18 0-11 49-41t189-108zm267 513q0-102 33-182.5T841 593t76-139.5T950 304q0-125-72-202T691 25q0 28-23 57.5T615.5 140 563 192.5 540 237q35 35 50 81.5t15 95.5q0 68-27 128t-72.5 97.5T405 677q-56 0-81-29t-25-60q0-24 12.5-48.5T344 493q24-26 52.5-63t55.5-78q-7-32-11.5-63.5T436 229q0-121 74.5-202.5T701-55q104 0 186.5 60T1006 161l59 42q-38 3-56 51.5T991 363q0 16 2 31.5t5 29.5q-23 22-37 55t-14 71q0 31 13.5 61.5T993 664zm-17-620q-22 0-37.5-15.5T662 254t15.5-36.5T715 202q21 0 36.5 15.5T767 254t-15.5 36.5T715 306zM452 183q-30 0-50-21.5T382 101q0-81 60-132.5T593-83q77 0 136 38-36 0-75 34.5T578 69t-69.5 79.5T452 183zm513 1011q-102 0-167.5-75.5T732 927q0-104 59.5-188.5t164-135T1194 551q0-49 32.5-83.5T1306 433q65 0 99 57 14-44 49-71.5t79-27.5q48 0 84 29.5t49 74.5q15-4 34-4 67 0 108 46t41 110q0 66-48 112 54 5 91 44t37 93q0 56-39.5 95.5T1795 1031q-39 0-91.5-28T1588 947t-134-28q-66 0-116 28t-92.5 69-84 81.5-88.5 68.5-108 28zm908 21q-69 0-117.5-55t-48.5-157h79q0 63 26 97.5t62 34.5q40 0 64.5-27.5t24.5-57.5q0-10-3-19 40-3 60-35t20-56-7-49.5-29-49.5q19-25 25-48.5t6-44.5q0-32-14.5-63.5T1974 633q8-14 12.5-29.5t4.5-31.5q0-38-21.5-74t-60.5-43q0-54-25-80t-66-26q-10 0-22.5.5T1775 353q-13-42-47.5-69t-87.5-27q-38 0-71 20-22-29-47.5-41.5T1466 223q-34 0-64 17.5t-41 50.5q-7-2-22-3.5t-26-1.5q-42 0-66 27.5t-24 74.5v12q-46 0-81 27t-35 83q0 41 28.5 68t69.5 27l-10 80q-70 0-119-48.5T1027 517q0-56 33.5-103.5T1146 351q11-67 57.5-106t111.5-39q13 0 20 1 50-64 131-64 70 0 118 46 30-12 62-12 52 0 94 27t62 72q6-1 19-1 67 0 117.5 43t50.5 109q44 23 63 60.5t19 80.5q0 31-10 55 26 23 40 56t14 69q0 49-28 91 33 46 33 101 0 43-26.5 80.5T2025 1081q-4 57-48.5 95.5T1873 1215z"/></svg>