<svg xmlns="http://www.w3.org/2000/svg" viewBox="-10 0 2610 2048"><path d="M1141 1906q-191-31-349-119t-272.5-220.5-177-298T280 918q0-212 79-396.5t219.5-325T904-23t396-79 396 79 325 219.5 219.5 325T2320 918q0 221-88 413t-245 333.5-365 212.5l19-91q181-71 315.5-200.5t209-301T2240 918t-73-365.5T1965 253 1665.5 51 1300-22 934.5 51 635 253 433 552.5 360 918q0 157 48.5 298.5t139 258.5 218 200.5T1050 1801zm238 112q-118 0-217-48.5T1004 1837t-59-188q0-83 32-172t86-163q47-101 56.5-173t9.5-127q0-135 40.5-197.5T1288 754q84 0 127 63.5t43 176.5q0 41-6.5 83.5t-6.5 76.5q0 13 1 25.5t4 26.5l-72 15q-4-16-5.5-32t-1.5-35q0-46 6.5-83t6.5-77q0-160-96-160-44 0-61.5 39.5T1209 1014q0 56-10.5 140t-65.5 199q-50 66-79 145t-29 151q0 83 47.5 148.5t128 103T1379 1938q100 0 164-34.5t85-112.5h57q-23 30-60 48t-81 18q-55 0-85.5-28.5T1428 1763q0-35 24.5-59t62.5-24v65q-22 0-22 15 0 11 14.5 17t36.5 6q47 0 70-20t23-48q0-64-19-87.5t-67-23.5q-67 0-188 46l-21-70q67-26 118-38t91-12q81 0 120.5 46t39.5 139q0 144-90 223.5t-242 79.5zm-249-867q-40-9-80.5-22t-81.5-29l30-74q36 15 72 26.5t71 19.5zm560 472-68-47q6-15 10-33.5t4-39.5q0-49-23.5-67.5T1541 1417q-44 0-97.5 12t-130.5 39l-23-70q83-29 142.5-42t108.5-13q47 0 79 14.5t63 43.5q13 16 20 46.5t7 64.5q0 25-4.5 49.5T1690 1623zm-23 74v-74q55 0 86.5-28t31.5-68q0-46-39.5-76.5T1635 1403v-52q0-52-24.5-82.5T1533 1238q-44 0-115 22.5t-145 65.5l-33-67q80-45 159-70t134-25q82 0 129.5 52t47.5 130v11q64 13 106 59t42 111q0 71-53.5 120.5T1667 1697zM853 796q-22 0-36.5-30T802 693q0-69 38-112t95-43 95 43 38 112q0 43-15 73t-36 30q-10 0-34-5.5t-48-5.5-47.5 5.5T853 796zm546 368v-80q104-14 203-58l32 74q-115 51-235 64zm184-368q-22 0-36.5-30t-14.5-73q0-69 38-112t95-43 95 43 38 112q0 43-14.5 73t-36.5 30q-10 0-34-5.5t-48-5.5-47.5 5.5-34.5 5.5z"/></svg>