<svg xmlns="http://www.w3.org/2000/svg" viewBox="-10 0 2610 2048"><path d="M1148 1978q-115 0-167.5-33.5T928 1847q0-21 7-47.5t19-57.5q10-26 12-40t2-25q0-13-6-35t-23-74q-25-76-37.5-145T889 1288q0-23 1.5-44.5t4.5-43.5q-35-39-58-68t-51-70q-64-42-112-119t-59-154Q440 689 440 538q0-78 40-138-19-36-19-84 0-74 44-132.5T631 83q11-93 74-139t165-46q67 0 133.5 29T1125 6.5t88 114 33 132.5q112 25 200.5 115T1574 589q73 60 151.5 96.5T1903 747q56 14 102.5 77.5t74 156.5 27.5 196q0 46-4.5 94.5T2085 1370q56 77 80.5 153.5T2190 1674q0 154-79 218.5t-254 64.5q-58 0-107-26.5t-49-75.5q0-42 26.5-78t69.5-67l-3-69q-140-68-195-224h-190l-127 289q0 21 18.5 42.5t37 46 18.5 54.5q0 60-48.5 94.5T1148 1978zm-522-81q-87 0-117-32.5T479 1762v-127q0-14-17.5-66T427 1450t-17-125q0-56 16-99t32-81 16-77q0-48-22.5-133T429 760q0-68 15-111t34-73l82 122 91 54 25 119 126 188q3 16 6 60.5t5 93 2 78.5q0 71-19 152t-70 209q7 16 7 38 0 16-11 33.5t-11 29.5q0 17 23 22.5t46 13.5 23 35q0 29-42.5 51T626 1897zm906-13q-55 0-85.5-9.5T1416 1840q0-42 59-87 0-59-12-99t-28.5-77-28.5-86-12-125l228 39 118 168q-11 9-14.5 21.5t-3.5 18.5q0 21 10.5 66t10.5 84q0 65-54 93t-157 28zM678 622q-52 0-99-15t-90-43l26-42q76 51 169 51 58 0 125-25l18 44q-76 30-149 30zm-43-270q-13 0-23-11.5T602 315q0-17 19-17 13 0 21.5 10.5T651 334q0 18-16 18zm493 1548q76 0 116-10.5t40-49.5q0-19-18.5-39t-37-43.5-18.5-51.5q0-23 17-72.5t57-131.5q44-90 60-128t21-65q64 20 118 20 14 0 34-1t39-5q-14-74-21-161t-7-183h80q0 197 24.5 319.5t81.5 191 156 103.5q4 17 8 46t4 63q0 17-1 33.5t-4 32.5q-52 27-74 44t-22 31 19 25 67 11q126 0 185.5-43t59.5-162q0-65-24.5-134.5T2003 1389q18-57 22-108.5t4-103.5q0-77-21.5-154.5T1954 890t-62-63q-93-27-154-51.5t-112.5-58T1509 630q-28-110-97-184.5T1230 329q-10 25-24 45t-32 39q2 9 2 18v18q0 93-64 151t-165 58v-78q66 0 107.5-36t41.5-97q0-20-1.5-39t-11.5-40q45-15 64.5-40.5T1167 258q0-69-45.5-134t-114-106.5T870-24q-81 0-125 40.5T701 129q-37 8-74 35.5t-61.5 68T541 320q0 33 18.5 48.5T609 384q17 0 29 8.5t21 19.5q11-14 26-21t33-7q32 0 53 21t21 52q0 25-18.5 42.5T728 517q-36 0-36-20 0-14 17.5-25t39.5-11q0-11-10.5-19t-20.5-8q-32 0-59 34-19-32-46-32-29 0-35 25 46 8 46 33 0 17-19 17-16 0-35.5-12T536 469q-16 29-16 68 0 71 41 119t131 74q-4 8-5.5 17.5T685 767q0 40 20 87t56 89 82 68q22 31 42 55t39 44q22-65 56.5-130t74.5-124l59 47q-20 21-44.5 63t-47.5 95.5-38 111-15 110.5q0 70 12.5 129.5T1013 1532q13 40 23 79t10 65q0 50-19 88t-19 82q0 28 27.5 41t92.5 13zM799 370q-25 0-25-25 0-15 12.5-26t27.5-11q25 0 25 25 0 15-12.5 26T799 370zm-112-76q-25-30-59-47.5T553 229l7-59q33 0 68.5 10.5T693 216q20-17 53.5-27.5T814 178q41 0 83.5 15.5T972 237l-41 49q-51-48-117-48-62 0-127 56z"/></svg>