<svg xmlns="http://www.w3.org/2000/svg" viewBox="-10 0 2610 2048"><path d="M1300 1978q-138 0-249-26.5t-177-71-71-98.5L661 157h81l137 1595q4 44 65 77t156 51 200 18 200-18 156-51 65-77l137-1595h81l-142 1625q-4 54-70.5 98.5t-177.5 71-249 26.5zm-173-258q-40-8-63.5-37t-26.5-69l-28-381q-1-13 7-23t21-10q30 0 32 28l28 382q3 44 45 51 21 3 21 28 0 18-11 26t-25 5zm173-707q-164 0-293-24.5t-202.5-72T731 801t74-115 202.5-72 292.5-25 292.5 25 202.5 72 74 115-73.5 115.5-202 72T1300 1013zm0-80q138 0 246-17t170.5-47 62.5-68-63-68-171-47-245-17q-136 0-244.5 17T884 733t-63 68 62.5 68 171 47 245.5 17zm0-511q-181 0-326-34t-229-94-84-137q0-76 84-135.5T974-72t326-34q182 0 326.5 34T1855 21.5t84 135.5q0 77-84 137t-228.5 94-326.5 34zm0-78q155 0 279-27.5t197-70.5 73-89q0-45-73-87.5t-197.5-70T1300-28 1021.5-.5 824 69.5 751 157q0 46 73 89t197.5 70.5T1300 344z"/></svg>