<svg xmlns="http://www.w3.org/2000/svg" viewBox="-10 0 2610 2048"><path d="M1300 1978q-216 0-404.5-80.5T564 1674t-223.5-331.5T260 938t80.5-404.5T564 202 895.5-21.5 1300-102q215 0 403.5 80.5T2035 202t224 331.5 81 404.5-81 404.5-224 331.5-331.5 223.5T1300 1978zm422-379q-186-159-435-159-106 0-218 31l-20-78q123-33 238-33 276 0 487 177zM346 1222l-46-66q120-83 266-171t296-170 282.5-146.5T1369 569l60 62q-102 39-239 105T903 884t-295 169.5T346 1222zm602-124q-51 0-88-44.5T823 948q0-62 37-106t88-44 88 44 37 106q0 61-37 105.5t-88 44.5zm352 800q199 0 373-74.5t306-206.5 206.5-306 74.5-373-74.5-373T1979 259 1673 52.5 1300-22 927 52.5 621 259 414.5 565 340 938t74.5 373T621 1617t306 206.5 373 74.5zM298 764l10-80q495-62 971.5-109t932.5-81l6 80q-455 33-933 80.5T298 764zm1354 334q-51 0-88-44.5T1527 948q0-62 37-106t88-44 88 44 37 106q0 61-37 105.5t-88 44.5zM520 337l36-86q338-38 688-73t693-63l6 80q-342 28-697 63t-726 79zm675-77-38-70q118-63 236-119.5T1641-35l36 71q-130 49-247 105.5T1195 260z"/></svg>