<svg xmlns="http://www.w3.org/2000/svg" viewBox="-10 0 2610 2048"><path d="M1136 1978q-6-29-6-62 0-54 9-125t9-124q0-51-11.5-90.5T1102 1508q-23-30-83-41t-137-13-154.5-4.5-137.5-15-83-45.5q122-88 246.5-120t245.5-32q102 0 198.5 13t184 26.5T1541 1290q132 0 186.5-45.5T1782 1143q0-61-57.5-112T1536 980q-40 0-110.5 2.5T1275 987t-151 2q-70 0-158-5.5t-169-21-134-45-53-76.5v-6q-15 3-26 4t-34 1q-49 0-120-21.5T306 766q-52-31-79-77t-27-80q0-43 43.5-107t128-133.5 209-130 287-98.5 360.5-38q55 0 112 3t115 10q77-75 167.5-123t171-71 127.5-23q48 0 48 18 0 20-25 57.5t-50.5 82T1868 141q0 43 17 70 262 138 388.5 316.5T2400 881q0 161-97 285t-270.5 193.5T1631 1429q-83 0-151.5 15.5T1388 1486q-15 17-23.5 75t-28 134.5-65 152.5-135.5 130zM661 899l-14-69-48-70q42-25 79.5-60t94.5-63q17 19 36 29.5t32 10.5q8 0 13-19t7.5-43.5T864 576q14-7 54.5-12.5t97.5-5.5v40q-29 0-50 10.5t-46.5 43T851 751q-21-17-37-22.5t-27-5.5q-26 0-26 37 0 35 20 60-27 20-51.5 36T661 899zm830 272q-43 0-94.5-34t-97-80.5T1225 973l242-6q0 67 23 112t23 75q0 17-22 17zM737 472q36 0 61.5-25.5T824 384q0-36-25.5-61.5T737 297t-61.5 25.5T650 384q0 37 25.5 62.5T737 472zm1085 808q195-37 297-138.5T2221 904q0-116-78.5-221T1925 508q27 67 42 128.5t15 111.5q0 52-23 84t-69 32q-54 0-127-63t-148-166-134-222q-52-7-104.5-10t-103.5-3q-257 0-476.5 84.5T422 728q62 32 124 32 27 0 53.5-3.5T685 739v43q0 61 103 95t306 34q80 0 167.5-2t162-4.5T1536 902q115 0 186.5 34t105.5 88.5 34 117.5q0 31-11.5 68.5T1822 1280zm-582-677-68-16q10-43 10-86 0-96-58-190l59-37q68 112 68 229 0 48-11 100zm171-30-68-16q7-34 7-71 0-98-64-205l59-37q74 121 74 244 0 22-2 43.5t-6 41.5z"/></svg>