<svg xmlns="http://www.w3.org/2000/svg" viewBox="-10 0 2610 2048"><path d="M1255 1978q-216 0-404.5-80.5T519 1674t-223.5-331.5T215 938t80.5-404.5T519 202 850.5-21.5 1255-102q226 0 421.5 88.5t340.5 244T2234 587l-69 46q-63-191-197.5-338.5T1650 62.5 1255-22q-199 0-373 74.5T576 259 369.5 565 295 938t74.5 373T576 1617t306 206.5 373 74.5 373-74.5 306-206.5 206.5-306 74.5-373q0-26-1.5-51.5T2210 836l71-70q14 87 14 172 0 216-81 404.5T1990 1674t-331.5 223.5T1255 1978zm424-565q-78-50-194-80t-230-30q-77 0-173 17.5T866 1379l-27-69q116-44 221.5-63t194.5-19q110 0 223.5 26.5T1695 1330zM903 948q-52 0-89-44t-37-106 37-106.5 89-44.5 89 44.5 37 106.5q0 61-36.5 105.5T903 948zM635 627l-55-42q132-170 378-170v70q-210 0-323 142zm1040 732-72-49 274-273 61 58zm-68-411q-52 0-89-44t-37-106 37-106.5 89-44.5 89 44.5 37 106.5q0 61-36.5 105.5T1607 948zm72 465-42-42 670-662q16-16 16-38 0-23-16.5-39.5T2264 615q-28 0-50 22l-695 685-42-42 685-675q53-53 109-53 50 0 82 32.5t32 82.5q0 48-31 79zm326-372-54-55 35-35 63 62zm79-105-54-54 35-35 63 62zm-208-309q-115-142-324-142v-70q245 0 379 170z"/></svg>