<svg xmlns="http://www.w3.org/2000/svg" viewBox="-10 0 2610 2048"><path d="M337 1878q-67 0-100.5-43t-33.5-88V944l669-498q51 45 107 45 38 0 64.5-18t26.5-40q0-19-17-39t-55-44L1616-2q105 13 225 62.5T2074 182t199.5 153.5T2397 495v835q0 48-27 89t-84 53L432 1867q-33 7-53 9t-42 2zm340-349q-48 0-81.5-33.5T562 1414q0-47 33.5-80.5T677 1300q51 0 82.5 32.5T791 1414q0 48-33.5 81.5T677 1529zm24-541q-46 0-78-18t-32-49l-4-14q0-33 27.5-59.5t69-41.5 82.5-15q46 0 80 18t41 50q0 36-29 65.5T786 971t-85 17zm636 368q-75 0-128.5-53.5T1155 1173q0-74 53.5-127.5T1337 992q74 0 127.5 53.5T1518 1173q0 76-53.5 129.5T1337 1356zm-988 442q14 0 31-3t39-7l1837-391q27-6 44-26t17-48V514q-37-65-113.5-134.5t-174.5-132-202-107T1632 81l-502 285q20 32 20 67 0 58-50.5 98T979 571q-51 0-105-27L283 984v735q0 42 17 60.5t49 18.5zm-92-783v-80q41 0 140-16.5T636 873t304.5-66 338.5-77.5 341-81 311-76 250-63 155-41.5l22 77q-50 14-156 42t-251.5 64-313.5 76.5-343.5 81.5-342 78-308 66T401 998.5 257 1015zm1765 246q-49 0-84-35t-35-84 35-84 84-35 84 35 35 84-35 84-84 35zm-328-434q-73 0-127-31t-54-79q-14-59 22.5-108.5t100.5-80 131-30.5q68 0 120 29.5t64 79.5q0 65-35.5 114.5T1822 799t-128 28zm-58-499q-48 0-77-18.5t-29-43.5q0-26 29-44.5t77-18.5q47 0 76 18.5t29 44.5q0 25-29 43.5t-76 18.5z"/></svg>