<svg xmlns="http://www.w3.org/2000/svg" viewBox="-10 0 2610 2048"><path d="M714 1568q-162 0-232.5-41T411 1391q0-12 3.5-32.5T428 1288l133-642q17-84 54-119t107-53l36-9q62-16 85-44t30-87l18-167h291v281h236V167h291l18 167q7 59 30 87t85 44l36 9q71 18 108 53t54 119l133 642q11 50 13.5 70.5t2.5 32.5q0 95-70 136t-233 41zm-125 410q-80 0-129-46t-49-123v-418l80 20v398q0 43 28 66t70 23h1422q42 0 70-23t28-66v-380l80-29v409q0 77-48.5 123t-129.5 46zm296-759h151q38 0 41-27l12-86q2-14-8-24.5t-24-10.5H901q-28 0-31 26l-14 85q-2 15 6.5 26t22.5 11zm38-200h148q27 0 32-27l11-87q2-14-7.5-24t-23.5-10H938q-25 0-30 26l-15 86q-2 13 7 24.5t23 11.5zm285 200h184q14 0 23.5-9.5t8.5-22.5l-4-86q-1-13-10.5-21.5t-20.5-8.5h-178q-11 0-20 8.5t-10 21.5l-4 86q-1 13 8.5 22.5t22.5 9.5zM955 818h139q28 0 31-28l11-94q2-14-7.5-24t-23.5-10H972q-26 0-30 23l-17 96q-2 14 7.5 25.5T955 818zm-158 541q-30 0-30-31v-88q0-9 1.5-22.5t4.5-26.5l119-559q5-23 28-23h761q24 0 29 23l118 559q3 13 4.5 26.5t1.5 22.5v88q0 31-30 31zm420-340h166q13 0 22-10t8-22l-5-86q-1-14-10-22t-21-8h-154q-12 0-20.5 8t-9.5 22l-5 86q-1 12 7.5 22t21.5 10zm-503 469h1172q125 0 174-19t49-80q0-9-2-23.5t-11-56.5l-135-647q-12-57-31-78.5t-71-32.5l-36-8q-82-18-121-62.5T1652 342l-11-100h-153v281h-376V242H959l-11 100q-10 94-49.5 138.5T778 543l-36 8q-52 12-71.5 33T639 662l-134 647q-9 42-11.5 56.5T491 1389q0 61 49.5 80t173.5 19zm850-269h151q15 0 23.5-11t6.5-26l-14-85q-3-26-32-26h-156q-13 0-23 10.5t-8 24.5l12 86q3 27 40 27zm-336-401h144q14 0 23.5-9.5t8.5-23.5l-5-94q-2-29-32-29h-134q-29 0-31 29l-5 94q-1 14 8 23.5t23 9.5zm301 201h148q15 0 24-11.5t7-24.5l-15-86q-5-26-31-26h-145q-13 0-22 10t-8 24l11 87q3 27 31 27zm-23-201h139q14 0 23.5-11.5t7.5-25.5l-17-96q-4-23-31-23h-133q-13 0-22 10t-8 24l11 94q3 28 30 28zM430 876q-178 0-271.5-68T65 613q0-185 87-320T402 70.5t390.5-130T1300-102q281 0 508 42.5t390 130T2448 293t87 320q0 127-93 195t-272 68q-49 0-77.5-2.5T2029 864l2-85q28 10 58 13.5t80 3.5q146 0 216-53t70-130q0-168-80.5-288.5t-232-197-364.5-113T1300-22 822 14.5t-364.5 113-232 197T145 613q0 77 70.5 130T431 796q50 0 80.5-3.5T570 779l1 85q-34 7-63 9.5t-78 2.5zm717-511 1-69q29-2 70.5-2.5t81.5-.5 82 .5 71 2.5v69q-28-2-71.5-2H1219zm1348 120 8 79q-19 11-75 24t-128.5 25-144 19.5T2034 640q-18 0-31-1t-21-4l-15-77q9 1 21 2t24 1q51 0 121.5-7t143.5-18.5 132-24.5 86-26zm-2390 0q27 13 86.5 26T324 535.5 467.5 554t120.5 7q13 0 25-1t21-2l-15 77q-8 3-21.5 4t-31.5 1q-50 0-121.5-7.5t-144-19.5-128-25T98 564z"/></svg>