<svg xmlns="http://www.w3.org/2000/svg" viewBox="-10 0 2610 2048"><path d="M1894 1550q-248 0-442-247l-44-56q-58-74-81.5-94t-46.5-20q-27 0-58 13.5t-96 54.5l-71 45q-108 68-223 106t-216 38q-150 0-233-75t-83-211q0-158 120-271-59-79-59-176 0-84 39-151t106.5-106T657 361q159 0 308 111-19-56-29.5-118.5T925 239q0-100 38-176.5T1067-58t149-44q74 0 140 31.5T1468 16q38-29 85-44.5t94-15.5q89 0 159.5 42T1918 114t41 169q0 88-27.5 161T1845 585q68-15 138-15 141 0 229 80.5t88 210.5q0 71-28 129.5t-80 95.5q26 39 39 80t13 83q0 89-44 157t-123 106-183 38zm-398 428q-126-73-194-229.5t-68-374.5v-57q0-57 2.5-116.5t4.5-98.5h84q-5 45-8 98.5t-3 128.5v77q0 176 59.5 309.5T1539 1911zm398-508q123 0 196.5-60.5T2164 1249q0-90-78-182 62-23 98-78t36-128q0-101-65-156t-183-55q-76 0-159 25.5T1643 758l-203 134-45-66 212-140q147-98 209.5-192t62.5-211q0-110-64-178.5T1647 36q-49 0-95.5 18t-98.5 64q-37-66-100-103t-137-37q-91 0-151 73t-60 188q0 96 36 205t108 207l116 157-63 49-115-156q-96-131-207.5-195.5T657 441q-92 0-154 62t-62 154q0 55 22.5 101t56.5 81q-69 58-104.5 121T380 1102q0 208 236 208 92 0 194.5-34.5T1013 1178l71-45q73-46 114.5-63t81.5-17q48 0 85.5 29t104.5 115l44 56q88 112 180.5 164.5T1894 1470z"/></svg>