<svg xmlns="http://www.w3.org/2000/svg" viewBox="-10 0 2610 2048"><path d="m1122 1978-34-340q-31-9-64.5-22.5T954 1584l-264 215-252-252 215-265q-35-69-53-133l-340-34V760l341-34q19-70 53-131L438 329 690 77l265 215q57-33 133-55l34-339h357l34 339q73 21 133 55l264-215 253 252-217 266q34 60 54 131l341 34v355l-340 34q-20 65-53 133l215 265-253 252-264-215q-35 18-68 31.5t-65 22.5l-34 340zm72-80h213l32-323q115-25 214-90l253 206 149-148-206-253q66-110 87-214l325-33V832l-324-32q-13-60-35.5-113t-53.5-99l207-255-149-148-253 206q-104-68-214-89l-32-324h-213l-33 324q-109 21-214 89L694 185 546 333l207 255q-31 46-53.5 99T663 800l-323 32v211l325 33q19 103 86 214l-205 253 148 148 253-206q98 64 214 90zm106-680q-77 0-140.5-37.5t-101-101T1021 939q0-78 37.5-141.5t101-101T1300 659q78 0 141.5 37.5t101 101T1580 939q0 77-37.5 140.5t-101 101T1300 1218zm0-75q86 0 145.5-59.5T1505 939q0-86-59.5-145.5T1300 734q-85 0-144.5 59.5T1096 939q0 85 59.5 144.5T1300 1143zm0 223q118 0 214.5-58t154.5-155 58-214q0-118-58-214.5T1514.5 570 1300 512q-117 0-214 58T931 724.5 873 939q0 117 58 214t155 155 214 58zm0 70q-137 0-250-67t-180-180-67-250 67-250 180-180 250-67 250 67 180 179.5 67 250.5q0 137-67 250t-179.5 180-250.5 67z"/></svg>