<svg xmlns="http://www.w3.org/2000/svg" viewBox="-10 0 2610 2048"><path d="m607 1314-66-46q47-67 118.5-100t166.5-33q27 0 61.5 1t65 2 44.5 1q79 0 154-16.5t165.5-55.5T1530 962q103-56 178-88t137-45.5 125-13.5q49 0 89.5 3t84.5 10q-27-164-52.5-296.5t-52.5-256T1978 17q-64-20-123-29.5T1743-22q-72 0-140 20t-142 62q-83 47-150.5 76T1183 178t-123 13q-35 0-89.5-4T866 179.5t-74-3.5q-209 0-331 129l-58-56Q549 96 792 96q53 0 124.5 7.5T1060 111q56 0 109-11.5t114.5-38T1423-10q83-47 161-69.5t159-22.5q78 0 146.5 14T2043-41q31 119 56 225.5t47.5 216.5 45 237 48.5 287q-59-11-102-17.5t-81.5-9.5-86.5-3q-58 0-113.5 12.5t-123.5 42-165 82.5q-128 69-225 110t-179 59-167 18q-44 0-89-2t-82-2q-77 0-132 25t-87 74zm36 664q-17 0-32-11t-19-42L361 162q-4-34 13-49.5T412 97q17 0 30.5 10.5T460 147l230 1763q5 37-11 52.5t-36 15.5z"/></svg>