<svg xmlns="http://www.w3.org/2000/svg" viewBox="-10 0 2610 2048"><path d="M1236 1713q-157 0-296-60t-244.5-166T530 1241t-60-300 60-300 165.5-246T940 229t296-60q158 0 296.5 60t244 166T1942 641t60 300-60 300-165.5 246-244 166-296.5 60zm-467 265-72-277 78-20 56 217h800l56-217 78 20-72 277zm-30-716-30-51 89-51 30 51zm227 205-51-29 51-88 52 29zm-162 276q-80 0-127-33.5t-67.5-120T589 1343h21q139 173 286 250t328 77 328.5-77 286.5-250h20q0 160-20.5 246.5t-67.5 120-127 33.5zM645 971v-60h102v60zm561 561v-102h60v102zM798 723l-88-52 29-51 88 51zm708 745-51-89 51-30 51 89zm-334-505L947 828l41-69 226 136zm64 670q141 0 265-54t219-149 148.5-220.5T1922 941t-53.5-268.5T1720 452t-219-149-265-54-265 54-219 149-148.5 220.5T550 941t53.5 268.5T752 1430t219 149 265 54zm0-587q-43 0-74-31t-31-74q0-44 31-74.5t74-30.5 74 30.5 31 74.5q0 43-31 74t-74 31zM966 533l-51-89 51-30 51 89zm767 729-88-51 29-52 88 52zm-441-310-32-52 289-179 33 51zm433 19v-60h102v60zm-519-519V350h60v102zm-610 84q0-160 20.5-246T684 170.5 811 137h840q80 0 127 33.5t67.5 119.5 20.5 246h-20q-139-173-286.5-249.5T1231 210t-328 76.5T617 536zm910-4-52-29 52-88 51 29zm168 190-30-51 89-51 30 51zm300 338q-33 0-33-32V846q0-32 33-32h107q22 0 35.5 36.5T2130 937q0 49-13.5 86t-35.5 37zM775 195l-78-20 72-277h924l72 277-78 20-56-217H831z"/></svg>