<svg xmlns="http://www.w3.org/2000/svg" viewBox="-10 0 2610 2048"><path d="M1300 1978q-213 0-401.5-81.5t-332-225.5-225-332.5T260 937t81.5-401 225-331.5 332-225T1300-102t401.5 81.5 332 225 225 331.5 81.5 401-81.5 401.5-225 332.5-332 225.5T1300 1978zm-2-221q-111 0-211-26t-185-76l293-507q50 26 105 26t105-26l293 507q-85 50-185.5 76t-214.5 26zM487 935q0-135 48.5-264.5T673 431t211-185l294 506q-48 29-76 77t-30 106zm812 126q-48 0-82-34t-34-82 34-82 82-34q50 0 84 34t34 82-34 82-84 34zm1 837q197 0 370.5-75.5t306-208 208-306.5 75.5-371-75.5-370.5-208-306-306-207.5T1300-22 929.5 53t-306 207.5-208 306T340 937t75.5 371 208 306.5 306 208T1300 1898zm228-963q-2-58-30-106t-76-77l294-506q122 75 211 185t137.5 239.5T2113 935z"/></svg>