<svg xmlns="http://www.w3.org/2000/svg" viewBox="-10 0 2610 2048"><path d="M2196 1254q-73-83-158-132.5t-188-49.5q-123 0-248 82-35-106-118.5-180T1291 860.5 1068 821q-87 0-163 27.5T768 930q-74-138-163-191.5T379 685q-43 0-88 2.5t-86 6.5q55-209 186-361.5t319.5-236T1126 13q228 0 430.5 76T1914 298t243 307 88 371q0 140-49 278zm-805 531q-218-1-360-8.5t-222-25-112.5-47T664 1630q0-62 52-94.5t149-33.5v76q-47 0-84 14.5t-37 37.5q0 26 60.5 42.5t202 25 384.5 9.5zM168 1978v-565q185-53 369-80.5t361-27.5q164 0 307 19t276.5 44.5 269 44.5 284.5 19q90 0 183-8.5t214-27.5v582zm80-80h2104v-408q-94 11-169 16.5t-148 5.5q-156 0-293.5-19t-270.5-44.5-273-44.5-300-19q-157 0-319.5 22T248 1473zm792-142-87-24 257-957 86 27zM764 776q46-137 128.5-262T1084 285.5 1319 111q-92-16-185-16-190 0-354 63.5T496 337 317 609q22-2 44-3t43-1q107 0 198 41.5T764 776zm1390 325q11-66 11-126 0-172-77.5-329.5t-219-281.5T1535 169q82 139 124.5 303t42.5 329q0 115-21 223 87-32 172-32 83 0 158.5 28.5T2154 1101zm-679-970-87-23 57-210 87 24z"/></svg>