<svg xmlns="http://www.w3.org/2000/svg" viewBox="-10 0 2610 2048"><path d="M682 1878q-146 0-231.5-71T365 1613q0-82 46-150t121.5-112.5T697 1297q6-96 56.5-173.5t131-123.5 177.5-46q27 0 59 5 40-115 121-202.5T1432.5 620t232.5-49q114 0 215.5 44.5t179.5 123 122 182 44 222.5q0 65-13 123 119 20 199.5 105.5T2493 1576q0 89-42 157t-116.5 106.5T2161 1878zm55-553q-109-73-171.5-183.5T503 900q0-140 68-254.5T753.5 463t253.5-68q140 0 255.5 69.5T1443 650l-71 30q-55-92-151.5-148.5T1008 475q-117 0-213.5 57.5T640.5 686 583 900q0 95 40 178.5T737 1228zm-55 473h1479q115 0 183.5-61t68.5-161q0-101-75.5-168t-187.5-67q-10 0-22 .5t-23 2.5q41-99 41-201 0-136-66-247.5t-175-178-240-66.5q-106 0-199.5 41.5t-163 116T1198 981q98 40 159.5 129t61.5 201h-80q0-77-37.5-139.5t-100.5-100-139-37.5q-79 0-144 39t-103.5 104-38.5 144v49q-154 12-242.5 81.5T445 1613q0 88 61 136.5t176 48.5zm-333-347q-40 10-68.5-8.5t-34.5-52 18-67.5l222-314-334-193q-35-21-42.5-55t10.5-63.5 58-35.5l371-59-94-377q-10-40 6.5-66.5t47.5-32 64 18.5l318 233 204-337q12-20 29.5-32T1163-2q29 0 48.5 21t23.5 50l62 384 392-91q54-13 77.5 26.5T1757 474l-102 141h-99l111-153q4-5 2-9t-9-2l-320 74-126-82-53-332q-1-7-5-8t-8 5L971 401l-139 34-281-206q-6-5-9-2t-2 10l85 339-66 106-353 57q-7 1-7.5 6t5.5 9l306 176 30 142-203 287q-4 6-1.5 8.5t9.5 1.5l367-93 12 80z"/></svg>