<svg xmlns="http://www.w3.org/2000/svg" viewBox="-10 0 2610 2048"><path d="M1562 1713q-115 0-206.5-29.5T1175 1617q-76-32-152.5-58.5T856 1523l-8 89q-46 9-92.5 14.5T634 1632q-85 0-133.5-16.5t-69.5-61-25-127.5q-1-23-2-60.5t-1.5-79-.5-74.5q-20-53-29.5-90.5T363 1028q0-41 10-89t30.5-116T457 655l144-436q18-56 45.5-92T747 73l340-85q20-43 68.5-66.5T1269-102q92 0 135.5 49.5T1459 113l55 576q4 42 37 82.5t108 95.5l478 351q67 25 119.5 55.5t83 77.5 30.5 124q0 86-44 138.5t-140.5 76T1929 1713zm276 265q-183 0-371-5.5t-360-13-310-15.5-222-14q-123-8-212.5-18.5T230 1894q0-47 19.5-68.5T318 1800l153-11q32-11 55.5-66t38.5-125l129 4q0 67 7 115.5t44 83.5l845 45q53-20 73-52t20-104h106q0 67 12.5 104.5t55.5 61.5h267q40 0 64.5-19.5t24.5-55.5q0-23-15-56.5t-38-52.5l60-15q69 49 98 135t29 166q-94 7-173 11.5t-159 6.5-177 2zm490-452q-88 4-170 7t-161 3q-132 0-252-8.5t-230-24.5q-88-13-183.5-33.5t-199-48-216.5-61-236.5-73T419 1204v-80q173 56 326 104t289.5 87 258.5 68 233 46q108 16 227 24t252 8q77 0 157.5-2.5t165.5-6.5zm-783-418q-33 0-51.5-19t-18.5-50q0-33 19-51.5t51-18.5 50.5 18.5 18.5 51.5q0 31-18.5 50t-50.5 19zm197 178q-33 0-51.5-19t-18.5-50q0-33 19-51.5t51-18.5 50.5 18.5 18.5 51.5q0 32-18.5 50.5T1742 1286zm-373-379q-32 0-51-19t-19-50q0-33 19-51.5t51-18.5 50.5 18.5T1438 838q0 32-18.5 50.5T1369 907zm193 726h366q138 0 217-15t112-49.5 33-93.5q0-84-56-122t-141-68l-483-355q-73-54-120-104.5T1435 699l-56-580q-8-84-30.5-112.5T1267-22q-55 0-88 21.5T1146 56l-378 94q-42 10-58.5 26.5T676 243L533 675q-33 101-53 165.5T451.5 948t-8.5 80q0 54 9 90.5t30 89.5q0 30 .5 72.5t2 83 2.5 65.5q4 56 15 82.5t41 33.5 91 7q38 0 76-3t64-7l8-103q126 0 225 31.5t198 72.5q84 35 168 62.5t189 27.5zm-2-556-51-61 213-183 52 61zm-305-449q-32 0-51-18.5t-19-50.5 19.5-51 50.5-19q32 0 50.5 19t18.5 51-18.5 50.5T1255 628zm508 620-60-54 190-207 60 54zm-368-379-40-69 233-134 39 70zm-127-272-20-77 278-75 20 77zm-67-217q-33 0-51.5-18.5T1131 311t19-51 51-19 50.5 19 18.5 51-18.5 50.5T1201 380zm-2-28-17-79 317-70 17 79z"/></svg>