<svg xmlns="http://www.w3.org/2000/svg" viewBox="-10 0 2610 2048"><path d="M1300 1978q-171 0-326-53.5T688.5 1774 462 1546.5 313 1261t-53-323 53-323 149-285.5T688.5 102 974-48.5t326-53.5 326 53.5T1911.5 102 2138 329.5 2287 615t53 323-53 323-149 285.5-226.5 227.5-285.5 150.5-326 53.5zm0-453q-101 0-185-49.5T981.5 1342 932 1157q0-102 49.5-185.5t133.5-133 185-49.5q102 0 185.5 49.5t133 133T1668 1157q0 101-49.5 185t-133 133.5T1300 1525zm0 120q135 0 245.5-66t176.5-177 66-245q0-131-65.5-244.5T1544 735q118-52 201.5-144T1857 387l-116-31q-23 88-89 159t-158.5 112.5T1300 669t-193-41.5T948.5 515 859 356l-116 31q29 112 112 204t201 144q-112 64-178 177.5T812 1157q0 134 66 245t177 177 245 66z"/></svg>