<svg xmlns="http://www.w3.org/2000/svg" viewBox="-10 0 2610 2048"><path d="M1300 1978q-130 0-244.5-41T854 1823.5 718 1655t-49-206q0-123 64.5-233T913 1031Q806 896 806 726q0-107 42.5-200.5T964 365h128q-92 55-149 151t-57 210q0 94 41 178.5t117 146.5q-138 60-216.5 167T749 1449q0 123 74.5 226.5T1023 1841t277 62 277-62 199.5-165.5T1851 1449q0-124-78.5-231T1556 1051q77-62 117.5-146.5T1714 726q0-114-57-210t-149-151h128q73 67 115.5 160.5T1794 726q0 170-107 305 115 75 179.5 185t64.5 233q0 110-49 206t-136 168.5-201 113.5-245 41zm-529-728-231-185q-20-17-20-36 0-18 13-30t29-12q18 0 32 12l64 51v-51q0-14 10-24t24-10q15 0 25 10t10 24v107l85 68zM655 789q-19 0-33-14t-14-33q0-20 14-33.5t33-13.5q20 0 33.5 13.5T702 742q0 19-13.5 33T655 789zM522 643q-21 0-36.5-15.5T470 591q0-20 15.5-35.5T522 540t36.5 15.5T574 591q0 21-15.5 36.5T522 643zm124-167q-21 0-35.5-14.5T596 426q0-20 14.5-34.5T646 377q20 0 34.5 14.5T695 426q0 21-14.5 35.5T646 476zM543 296q-21 0-36.5-15.5T491 244t15.5-36.5T543 192q20 0 35.5 15.5T594 244t-15.5 36.5T543 296zm757 658q-63 0-126-35l29-50q44 25 97 25t97-25l29 50q-63 35-126 35zm-210-224q-18 0-31-17t-13-41 13-41 31-17 31 17 13 41-13 41-31 17zm210 92q-6 0-18-20.5t-22-45-10-37.5q0-7 15.5-12t34.5-5q20 0 35 5t15 12q0 13-10 37.5t-22 45-18 20.5zm529 428-41-76 85-68V999q0-14 10-24t25-10q14 0 24 10t10 24v51l64-51q14-12 32-12 17 0 29.5 12t12.5 30q0 19-20 36zm-319-520q-18 0-31-17t-13-41 13-41 31-17 31 17 13 41-13 41-31 17zm-91-317q-258 0-396.5-21.5T884 330q0-27 63-43t146-17V-63q0-15 62.5-27t136.5-12q72 0 139.5 11.5T1542-61t41 36l-37 315q178 13 178 68 0 31-65 43t-240 12zm617 386q-19 0-33-14t-14-33q0-20 14-33.5t33-13.5q20 0 33.5 13.5T2083 752q0 19-13.5 33t-33.5 14zm-54-215q-21 0-36.5-15.5T1930 532q0-20 15.5-35.5T1982 481t36.5 15.5T2034 532q0 21-15.5 36.5T1982 584zm-77-338q-20 0-35.5-15.5T1854 194t15.5-36.5T1905 142q21 0 36.5 15.5T1957 194t-15.5 36.5T1905 246zm175 145q-20 0-34.5-14.5T2031 341q0-20 14.5-34.5T2080 292q21 0 35.5 14.5T2130 341q0 21-14.5 35.5T2080 391z"/></svg>