<svg xmlns="http://www.w3.org/2000/svg" viewBox="-10 0 2610 2048"><path d="M1300 1978q-171 0-326-53.5T688.5 1774 462 1546.5 313 1261t-53-323 53-323 149-285.5T688.5 102 974-48.5t326-53.5 326 53.5T1911.5 102 2138 329.5 2287 615t53 323-53 323-149 285.5-226.5 227.5-285.5 150.5-326 53.5zm-254-482q81 0 124-99l99-221q14-32 30-32 8 0 15 6t16 26l99 221q44 99 124 99t124-99l100-221q9-20 15.5-26t14.5-6q17 0 31 32l141 304 109-51-147-308q-30-62-61-89t-73-27q-41 0-72 23.5t-54 75.5l-100 221q-10 21-15.5 27.5t-12.5 6.5-12.5-6.5-15.5-27.5l-91-204q-28-62-59.5-89t-75.5-27q-43 0-74.5 27t-59.5 89l-91 204q-9 20-14.5 27t-13.5 7q-7 0-12.5-6.5T1018 1325l-100-221q-22-50-53.5-74.5T792 1005q-43 0-73.5 27t-60.5 89l-148 308 110 51 140-304q15-32 32-32 8 0 14.5 6t15.5 26l100 221q44 99 124 99zm0-625q81 0 124-99l99-221q14-32 30-32 8 0 15 6t16 26l99 221q44 99 124 99t124-99l100-221q9-20 15.5-26t14.5-6q17 0 31 32l141 304 109-51-147-308q-30-62-61-89t-73-27q-41 0-72 23.5t-54 75.5l-100 221q-10 21-15.5 27.5T1553 734t-12.5-6.5T1525 700l-91-204q-28-62-59.5-89t-75.5-27q-43 0-74.5 27t-59.5 89l-91 204q-9 20-14.5 27t-13.5 7q-7 0-12.5-6.5T1018 700L918 479q-22-50-53.5-74.5T792 380q-43 0-73.5 27T658 496L510 804l110 51 140-304q15-32 32-32 8 0 14.5 6t15.5 26l100 221q44 99 124 99z"/></svg>