<svg xmlns="http://www.w3.org/2000/svg" viewBox="-10 0 2610 2048"><path d="M1307 1978q-231 0-380.5-88T705 1619.5 633 1155l82 44q0 361 143 530t449 169q293 0 455-142t162-385q0-161-86-243.5t-255-82.5q-183 0-292 15.5t-157.5 49.5-48.5 92q0 60 53 87t172 29q109 1 175.5 15.5T1600 1386t103 111l-65 47q-45-62-82.5-92.5t-93-41T1308 1398q-154-3-228.5-51t-74.5-145q0-65 31.5-110t100.5-73 180-41 271-13q131 0 224 47t142.5 137.5T2004 1372q0 185-83.5 321T1681 1903.5t-374 74.5zm137-313-74-10q11-89 58-162t125-111l39 63q-64 30-100.5 90.5T1444 1665zm-635-367q-62 0-106.5-24.5T633 1203t-29-112l-8-159q-5-99 52-162.5T802 706q50 0 90 18t65 50h-37q6-90 58.5-140t142.5-50q92 0 146 53t62 153l19 230h-80l-18-216q-6-72-37.5-106t-91.5-34q-67 0-97 42.5T1002 834l21 215q5 51 17.5 75.5t40.5 35.5l-16 74q-61-16-87.5-52T943 1067l-18-192q-4-43-32-66t-89-23q-66 0-99 38t-29 109l8 156q3 64 34.5 96.5T809 1218t97-29.5 48-82.5l73 19q-19 82-75.5 127.5T809 1298zm1054-174-73-57 120-823q16-106-13-159.5T1797 31q-49 0-75 30t-43 110l-128 602h-112L1280 85q-25-107-117-107-53 0-89.5 32T1037 95q0 25 7 64.5t20 98.5l82 358-78 16-83-359q-14-62-21-103.5T957 95q0-85 59.5-141t145.5-56q76 0 127 45t69 123l135 586 107-496q22-102 69.5-153.5T1799-49q108 0 159 80.5t31 222.5z"/></svg>