<svg xmlns="http://www.w3.org/2000/svg" viewBox="-10 0 2610 2048"><path d="M1776 1228q-88 0-162.5-45T1444 1028q-31-37-61.5-66t-62.5-29q-22 0-41 9t-43 31-62 61q-39 40-87 81.5t-108.5 69T838 1212q-131 0-246.5-82.5T352 918q-82-85-82-145 0-53 39-89t97-36q39 0 75 21t86 74q64 66 109.5 109.5t83.5 65 78 21.5q59 0 102.5-31t101.5-92q56-59 124-111t163-52q82 0 151.5 42.5T1617 830q42 58 74.5 90.5T1770 953q47 0 102-37.5T2005 792q71-79 110.5-106t82.5-27q58 0 95 36t37 93q0 41-35.5 92.5T2175 1018q-100 102-203.5 156t-195.5 54z"/></svg>