<svg xmlns="http://www.w3.org/2000/svg" viewBox="-10 0 2610 2048"><path d="M425 1978q-67 0-116-49t-49-116V63q0-68 49-116.5T425-102h1749q68 0 117 48t49 116v1751q0 67-48.5 116t-116.5 49zm875-412q46 0 78.5-32.5t32.5-78.5-32.5-78.5-78.5-32.5-78.5 32.5-32.5 78.5 32.5 78.5 78.5 32.5zm-293-330q52-70 128.5-108.5T1300 1089q89 0 165.5 38.5T1594 1236l52-62q-67-81-155-123t-191-42q-210 0-346 165zM795 983q103-107 232-163t273-56q96 0 185.5 25t170.5 73.5T1805 983l51-62q-115-117-256-177t-300-60-300 60-256 177zM559 701q87-93 206.5-161t257-105 277.5-37 277.5 37T1835 540t206 161l51-62q-90-97-219-169t-276.5-112-296.5-40q-148 0-296 40T727.5 470 508 639z"/></svg>