<svg xmlns="http://www.w3.org/2000/svg" viewBox="-10 0 2610 2048"><path d="M1300 1978q-36 0-71.5-2.5t-70.5-7.5l90-71q13 1 26 1h26q199 0 373-74.5t306-206.5 206.5-306 74.5-373-74.5-373T1979 259 1673 52.5 1300-22 927 52.5 621 259 414.5 565 340 938q0 168 54 319t150 273l-8 114q-128-140-202-320.5T260 938q0-216 80.5-404.5T564 202 895.5-21.5 1300-102q215 0 403.5 80.5T2035 202t224 331.5 81 404.5-81 404.5-224 331.5-331.5 223.5T1300 1978zm-361-30q71 0 159-23t176-60.5 162-82 119-88.5 45-78q0-9-6-15t-16-6q-12 0-38.5 12t-71.5 36-115 60l-27-60q67-30 125.5-63.5t103-67 70-62 25.5-48.5q0-11-8-19.5t-19-8.5q-5 0-13 2.5t-17 9.5q-43 32-93.5 64.5t-110 64.5-128.5 66l-30-66q81-37 154-80.5t129-87 88-81.5 32-64q0-14-10.5-24t-26.5-10q-18 0-44.5 17t-94.5 75q-28 24-67 49.5t-82.5 50.5-86 47.5-77.5 40.5l-32-67q73-37 135-73.5t108.5-70 72.5-61.5 26-49q0-17-12-29.5t-32-12.5q-16 0-47 13t-95 48q-43 24-84.5 43.5t-95 39T955 1273l-21-37 20-46q14-32 19.5-53.5t5.5-40.5q0-29-11.5-47t-31.5-18-43.5 24-53.5 83q-15 29-53 82t-88 116q-65 82-93.5 149T576 1624q0 92 47.5 165.5t130 116T939 1948zm0 80q-125 0-225.5-53t-159-144.5T496 1624q0-86 34-166.5T636 1286q47-60 83.5-110.5T769 1100q41-77 80.5-113t86.5-36q63 0 97 53 57-41 124-58t134-17q140 0 250.5 59t175 159 64.5 223q0 82-30 157.5t-77 124.5q-16 49-70 102t-133 101.5-170.5 87.5-185 62-176.5 23zM728 751l-72-36q55-109 159-172t228-63q37 0 83 10l-16 78q-20-5-36-6.5t-31-1.5q-102 0-186.5 51T728 751zm1144 0q-44-89-128.5-140T1557 560q-15 0-31 1.5t-36 6.5l-16-78q46-10 83-10 125 0 228.5 63T1944 715z"/></svg>