<svg xmlns="http://www.w3.org/2000/svg" viewBox="-10 0 2610 2048"><path d="M416 1978q-64 0-110-45.5T260 1824V53q0-64 45.5-109.5T415-102h1770q64 0 109.5 45.5T2340 53v1770q0 64-45.5 109.5T2185 1978zm883-641q-38 0-65-27t-27-65 27-65.5 65-27.5 65.5 27.5 27.5 65.5-27.5 65-65.5 27zm2 394q165 0 309-62t254-172 172-254.5 62-309.5-62-309.5T1864.5 369t-254-172-309.5-62-310 62-255 172-172 254.5T502 933t62 309.5T736.5 1497t255 172 309.5 62zm0-80q-148 0-278.5-56T793 1440.5t-155-229T582 933q0-149 56-279t155-228.5T1022 271t279-56 278.5 56T1808 425.5 1962.5 654t55.5 279q0 148-56 278.5t-154.5 229T1579 1595t-278 56zm29-127q114 0 218-47t185.5-128 128.5-184.5 47-217.5q0-151-69.5-279.5T1638 452q20 45 29 90t9 100q0 123-71 201.5T1412 934q-102 10-179 34.5t-128 63.5-76.5 91.5T1003 1243q0 79 41 143t115 101 171 37zm-30-787q51 0 85-34t34-83q0-50-34.5-84t-84.5-34q-49 0-83.5 34.5T1182 620t34.5 83 83.5 34z"/></svg>