<svg xmlns="http://www.w3.org/2000/svg" viewBox="0 0 24 24"><path d="M12 2C6.477 2 2 6.477 2 12c0 4.747 3.308 8.721 7.744 9.744L12 24l2.256-2.256C18.692 20.721 22 16.747 22 12c0-5.523-4.477-10-10-10zm0 2a8 8 0 0 1 6.521 12.635A8.97 8.97 0 0 0 12.161 14a8.98 8.98 0 0 0-6.546 2.822A8 8 0 0 1 12 4zm0 1a4 4 0 1 0 0 8 4 4 0 0 0 0-8zm0 2a2 2 0 1 1 0 4 2 2 0 0 1 0-4zm.16 9c1.963 0 3.737.808 5.008 2.11a7.95 7.95 0 0 1-3.361 1.685l-.56.129L12 21.172l-1.246-1.248-.56-.13a7.95 7.95 0 0 1-3.182-1.538A6.98 6.98 0 0 1 12.16 16z"/></svg>