<svg xmlns="http://www.w3.org/2000/svg" viewBox="0 0 24 24"><path d="M12 2C6.477 2 2 6.477 2 12s4.477 10 10 10 10-4.477 10-10S17.523 2 12 2zm0 2a8 8 0 1 1 0 16 8 8 0 0 1 0-16zm-1.02 1.51a.824.824 0 0 0-.771 1.232l.84 1.455-2.686 4.655H6.266a.82.82 0 0 0-.823.822.82.82 0 0 0 .823.822h7.48c.359-.673-.105-1.644-.932-1.644h-2.552l3.529-6.11a.824.824 0 1 0-1.428-.822l-.367.633-.36-.633a.83.83 0 0 0-.656-.41zm2.229 3.152c-.488.403-.979 1.596-.29 2.785l3.04 5.266a.824.824 0 0 0 1.428-.822l-.803-1.391h1.19a.822.822 0 1 0 0-1.645h-2.141zM7.666 14.79q-.225.01-.473.086l-.588 1.016a.824.824 0 1 0 1.428.822l.79-1.371q-.481-.58-1.157-.553z"/></svg>