<svg xmlns="http://www.w3.org/2000/svg" viewBox="0 0 24 24"><path d="M9.756 3c-.862 0-1.563.992-1.563 2.219 0 1.228.702 2.22 1.563 2.22.863 0 1.558-.992 1.558-2.22C11.314 3.992 10.62 3 9.756 3zm5.504.469c-.807-.008-1.733 1.224-1.822 2.045-.115 1.07.153 2.14 1.333 2.293 1.183.153 1.943-1.109 2.094-2.065.154-.955-.608-2.063-1.445-2.254a1 1 0 0 0-.16-.02zM5.6 7.377a1.4 1.4 0 0 0-.202.004c-1.375.123-1.576 2.11-1.576 2.11-.186.918.444 2.88 2.139 2.515 1.7-.365 1.469-2.396 1.418-2.84-.078-.642-.79-1.733-1.78-1.789zm12.822 1.385c-1.403 0-1.59 1.292-1.59 2.205 0 .871.074 2.087 1.816 2.049 1.744-.039 1.553-1.975 1.553-2.432 0-.455-.379-1.822-1.78-1.822zm-6.598 1.47c-1.081.02-2.061.683-2.56 1.526-.94 1.585-2.258 2.413-2.453 2.66-.199.243-2.704 1.97-2.258 4.283s2.652 2.559 2.652 2.559 1.522.15 3.287-.244c1.766-.392 3.285.097 3.285.097s3.828 1.013 5.254-1.277-.638-4.04-.638-4.04-2.355-1.822-3.73-3.792c-.851-1.305-1.885-1.79-2.839-1.772zm-.082 1.997c.385-.031.827.226 1.244.867l.035.052c.44.63.973 1.262 1.579 1.895a26 26 0 0 0 1.752 1.658q.313.272.578.486c.061.05.097.08.164.133l.025.024q.095.1.188.236c.278.411.318.73.027 1.197-.395.634-1.928.687-3.006.412a8 8 0 0 0-1.289-.257 8.8 8.8 0 0 0-2.98.13 9.7 9.7 0 0 1-2.496.217q-.066-.002-.116-.006l-.092-.023a1.4 1.4 0 0 1-.388-.184c-.232-.157-.377-.368-.45-.744-.077-.4.13-.897.645-1.48.25-.285 1.103-1.042 1.201-1.162-.068.086-.054.075-.05.072-.091.076.287-.24.41-.346.475-.406.896-.813 1.306-1.295.353-.414.674-.856.955-1.332.195-.328.459-.527.758-.55z"/></svg>