<svg xmlns="http://www.w3.org/2000/svg" viewBox="0 0 24 24"><path d="M12 2c-.625 0-1.238.057-1.83.168a9.98 9.98 0 0 1-.31 7.441l1.775 1.026 4.474-7.754A10 10 0 0 0 12 2zm-3.754.729-.2.083a10.04 10.04 0 0 0-4.163 3.346l4.232 2.446.121-.305a8 8 0 0 0 .01-5.57zm9.596 1.154-4.477 7.752 1.776 1.023.205-.275a10 10 0 0 1 6.086-3.715 10.03 10.03 0 0 0-3.59-4.785zM2.88 7.89A10 10 0 0 0 2 12q0 .705.096 1.385a8 8 0 0 0 5.02-3.05zm19.023 2.726-.154.028a7.98 7.98 0 0 0-4.865 3.02l4.234 2.444A10 10 0 0 0 22 12q0-.704-.096-1.383zm-13.045.725-.205.275a9.98 9.98 0 0 1-6.086 3.713 10.03 10.03 0 0 0 3.59 4.787l4.477-7.752zm3.506 2.023L7.891 21.12A10 10 0 0 0 12 22c.625 0 1.238-.057 1.83-.168a9.98 9.98 0 0 1 .31-7.441zm3.518 2.033-.121.303a8 8 0 0 0-.008 5.57 10.04 10.04 0 0 0 4.363-3.43z"/></svg>