<svg xmlns="http://www.w3.org/2000/svg" viewBox="0 0 24 24"><path d="M6.658 2.72a1.25 1.25 0 0 0-.883 2.135l1.141 1.141H5.75A3.75 3.75 0 0 0 2 9.746v7.5a3.75 3.75 0 0 0 3.75 3.75h12.5a3.75 3.75 0 0 0 3.75-3.75v-7.5a3.75 3.75 0 0 0-3.75-3.75h-1.17l1.143-1.142a1.25 1.25 0 1 0-1.768-1.768l-2.652 2.652q-.119.12-.198.258h-3.212a1.3 1.3 0 0 0-.2-.258l-2.65-2.65a1.25 1.25 0 0 0-.885-.367zM5.75 8.507h12.5c.69 0 1.25.56 1.25 1.25v7.5l-.004.094a1.25 1.25 0 0 1-1.246 1.156H5.75l-.094-.002A1.25 1.25 0 0 1 4.5 17.256v-7.5l.004-.092A1.25 1.25 0 0 1 5.75 8.506zm2.5 2.5c-.69 0-1.25.56-1.25 1.25v1.25a1.25 1.25 0 1 0 2.5 0v-1.25c0-.69-.56-1.25-1.25-1.25zm7.5 0c-.69 0-1.25.56-1.25 1.25v1.25a1.25 1.25 0 1 0 2.5 0v-1.25c0-.69-.56-1.25-1.25-1.25z"/></svg>