<svg xmlns="http://www.w3.org/2000/svg" viewBox="0 0 24 24"><path d="M12 1 6.492 4.19l1.996 1.154L12 3.31l3.512 2.033 1.996-1.155zM4.496 5.344 2.5 6.5v2.338l2 1.152V7.652L6.492 6.5zm15.008 0L17.508 6.5 19.5 7.652V9.99l2-1.152V6.5zM12 5.62l-1.516.879 1.516.88 1.516-.879zM8.488 7.656 6.5 8.806v2.335l3.498 2.015-.004 4.06L12 18.38l2.006-1.162-.004-4.06L17.5 11.14V8.807l-1.988-1.15L12 9.688zM2.5 11.146V17.5l5.49 3.178.002-2.309L4.5 16.348v-4.051zm19 0-2 1.15v4.052l-3.492 2.021.002 2.309L21.5 17.5zm-15 2.303v1.744l1.494.866.002-1.748zm11 0-1.498.862.002 1.75 1.496-.868zm-7.51 6.076-.002 2.31L12 23l2.012-1.164-.004-2.31L12 20.688z"/></svg>