<svg xmlns="http://www.w3.org/2000/svg" viewBox="0 0 24 24"><path d="M12 2C6.477 2 2 6.477 2 12s4.477 10 10 10 10-4.477 10-10S17.523 2 12 2zm-.059 3.121 1.131.28-.476 1.917c.291.064.575.141.867.215l.475-1.918 1.1.274-.49 1.966c1.387.51 2.386 1.263 2.157 2.71-.173 1.052-.725 1.566-1.47 1.748.991.555 1.47 1.398.958 2.876-.635 1.855-2.056 2.024-3.94 1.665l-.485 1.957-1.094-.272.484-1.957a12 12 0 0 0-.373-.092c-.172-.04-.35-.08-.525-.13l-.485 1.956-1.091-.271.484-1.957-2.176-.592.541-1.385s.822.227.809.213c.304.074.452-.14.513-.289l.778-3.137.564-2.23c.025-.241-.05-.556-.496-.676.03-.018-.8-.199-.8-.199l.324-1.31 2.242.554zm.198 3.465-.588 2.351.054.018c.657.197 2.606.782 2.934-.521.306-1.24-1.382-1.618-2.166-1.793q-.14-.031-.234-.055zm-.961 3.836-.586 2.351.095.03c.81.24 3.107.924 3.418-.37.321-1.245-1.745-1.731-2.67-1.949z"/></svg>