<svg xmlns="http://www.w3.org/2000/svg" viewBox="0 0 24 24"><path d="M12 2C6.477 2 2 6.477 2 12s4.477 10 10 10 10-4.477 10-10S17.523 2 12 2zm0 2a8 8 0 1 1 0 16 8 8 0 0 1 0-16zm-.059 1.121-.474 1.916-2.242-.555L8.9 7.793s.831.181.801.2c.445.12.52.434.496.675l-.564 2.23-.778 3.137c-.06.15-.209.363-.513.29a25 25 0 0 1-.809-.214l-.54 1.385 2.175.592-.484 1.957 1.091.271.485-1.957c.297.086.6.144.898.223l-.484 1.957 1.094.272.486-1.957c1.883.359 3.304.19 3.94-1.665.51-1.478.032-2.321-.96-2.876.746-.182 1.298-.696 1.471-1.749.23-1.446-.77-2.2-2.156-2.709l.488-1.966-1.1-.274-.474 1.918c-.292-.074-.576-.151-.867-.215l.476-1.918zm.198 3.465q.095.024.234.055c.784.175 2.472.554 2.166 1.793-.328 1.303-2.277.718-2.934.521l-.054-.018zm-.961 3.836q.104.027.258.062c.924.218 2.99.704 2.67 1.95-.312 1.293-2.61.61-3.418.369l-.096-.03z"/></svg>