<svg xmlns="http://www.w3.org/2000/svg" viewBox="0 0 24 24"><path d="M3.932 3a.62.62 0 0 0-.621.621v.621c0 .343.278.62.62.62h16.137a.62.62 0 0 0 .621-.62v-.62A.62.62 0 0 0 20.07 3zm1.24 3.725a.62.62 0 0 0-.621.62v7.137c0 .343.278.622.62.622h9.653L13.6 19.139h-3.514l-.893-2.68a.62.62 0 0 0-.59-.424H6.415l.961 3.104H3.621a.62.62 0 0 0-.621.619v.62c0 .344.278.622.621.622H20.38a.62.62 0 0 0 .621-.621v-.621a.62.62 0 0 0-.621-.62h-4.065l1.225-4.034h1.29a.62.62 0 0 0 .62-.622V7.346a.62.62 0 0 0-.62-.621zm2.017 1.86h9.622c.085 0 .154.071.154.157v4.033a.155.155 0 0 1-.154.157H7.189a.155.155 0 0 1-.154-.157V8.742c0-.086.069-.156.154-.156z"/></svg>