<svg xmlns="http://www.w3.org/2000/svg" viewBox="0 0 24 24"><path d="M10.889 2.5c-.808 0-1.353.515-1.434 1.13v3.51c0 .448-.067.832-.348 1.097-.213.2-.544.35-1.12.35H4.622c-.627.083-1.121.632-1.121 1.447.016.2.032.415.082.697.115.782.313 1.614.412 2.08.429 1.912 1.254 2.594 1.254 2.594C6.47 16.668 8.233 17.2 9.898 17.1c.05 0 .216-.016.364-.05.148-.033.28-.084.379-.134 1.022-.632 1.533-2.959 1.533-2.959.116 1.546 1.848 2.094 2.54 2.178q.25.031.495.082c.198.05.413.101.545.168.89.398 1.566 1.296 1.566 2.31a2.037 2.037 0 0 1-2.027 2.045 1.56 1.56 0 0 1-1.121-.465.92.92 0 0 1-.266-.648c0-.233.134-.448.3-.582.147-.132.46-.165.542-.182a1 1 0 0 0 .281-.101.74.74 0 0 0 .38-.649.74.74 0 0 0-.743-.748 2.515 2.515 0 0 0-2.508 2.512c.001.314.063.624.182.914.115.3.413.78.973 1.146.594.415 1.304.63 2.029.616 0 0 4.222.25 4.931-4.871.05 0 .659-5.255-.347-10.676-.428-2.278-2.672-2.428-3.578-2.594l-2.854-.498s-.214-1.032-1.22-1.281c-.199-.05-.314-.083-.446-.1a6 6 0 0 0-.543-.033zm-1.893.654q-.006-.001-.02.012L4.16 8.106c-.017.016-.016.031.018.015.082-.033.246-.1.379-.117.246-.034.61-.033 1.22-.033H7.89c.197 0 .527-.017.742-.217.197-.216.213-.548.213-.748V4.793c0-.615 0-.98.033-1.229.017-.132.082-.3.115-.382q.012-.025.004-.028zm7.91 7.887q.098-.003.201.006c.544.067.956.399 1.006.848 0 .082.016.184-.017.234s-.066.066-.1.066c-.214.034-.543 0-1.021-.05-.48-.05-.808-.1-1.006-.2-.033-.016-.066-.034-.082-.084-.017-.05.015-.148.049-.232.144-.363.515-.574.97-.588z"/></svg>