<svg xmlns="http://www.w3.org/2000/svg" viewBox="0 0 24 24"><path d="M10.889 2.5c-1.187 0-1.887.652-2.606 1.324-1.628 1.524-3.175 3.011-4.135 4.303-.358.482-.646 1.091-.646 1.906 0 3.732 1.748 5.371 1.748 5.371C6.47 16.668 8.233 17.2 9.898 17.1c1.56-.093 2.26-1.696 2.26-1.696 1.256.468 2.227.71 2.844.774 1.493.154 2.37 1.599 2.316 2.634a2.034 2.034 0 0 1-2.025 1.928c-1.036 0-1.387-.796-1.387-1.113 0-.692.9-.742 1.123-.865a.74.74 0 0 0 .381-.645c0-.435-.382-.754-.687-.754a2.6 2.6 0 0 0-1.526.479 2.5 2.5 0 0 0-1.039 2.035c.005 1.303 1.125 2.676 3.184 2.676.159 0 4.222.25 4.931-4.871.112-.805.659-5.255-.347-10.676-.428-2.278-2.672-2.428-3.578-2.594l-2.854-.498C13.21 3.164 12.93 2.5 10.89 2.5zm0 2c.365 0 .588.02.7.035l.036.09c.25.66.829 1.138 1.523 1.26l.528.092 1.17.205 1.16.2c-.004 0-.005 0 .01.003.042.007.548.09.695.119.232.045.422.094.586.154.427.156.59.32.664.717a34.2 34.2 0 0 1 .47 8.701 5.1 5.1 0 0 0-1.773-1.476 3.3 3.3 0 0 0-.885-.29l-.517-.097a13 13 0 0 1-.586-.123 15 15 0 0 1-1.813-.56 2 2 0 0 0-2.53 1.074c-.012.024-.094.16-.216.292-.133.144-.237.202-.332.208-1.206.072-2.356-.329-3.091-1.09-.125-.12-.308-.356-.524-.79-.41-.821-.662-1.872-.662-3.19 0-.272.164-.534.5-.534h3.5a1 1 0 0 0 1-1V4.963c0-.339.116-.463.387-.463zm5.017 5.541c-.455.014-.826.225-.97.588-.034.084-.066.183-.05.232.017.05.05.068.083.084.198.1.527.15 1.006.2.478.05.807.084 1.021.05.034 0 .067-.016.1-.066s.017-.152.017-.234c-.05-.45-.462-.781-1.006-.848a2 2 0 0 0-.2-.006z"/></svg>