<svg xmlns="http://www.w3.org/2000/svg" viewBox="0 0 24 24"><path d="M11.945 2.002c-1.718.012-3.41.465-4.902 1.316l.992 1.737a8.002 8.002 0 0 1 11.344 10.05l-1.246-.718.166 4.715 4.164-2.215-1.342-.776c2.092-4.627.374-10.177-4.117-12.77a9.95 9.95 0 0 0-5.059-1.339zM5.711 4.904 1.545 7.12l1.342.774c-2.092 4.627-.374 10.176 4.117 12.77a10 10 0 0 0 9.963.024l-.992-1.738A8.002 8.002 0 0 1 4.629 8.9l1.246.72zm4.879 4.27-4.242 4.242 1.414 1.416 2.828-2.83 2.828 2.83 4.242-4.244-1.414-1.414-2.828 2.828z"/></svg>