<svg xmlns="http://www.w3.org/2000/svg" viewBox="0 0 24 24"><path d="m4.002 2-.117.006A1.005 1.005 0 0 0 3 2.992v18.016l.006.115a.995.995 0 0 0 .988.877h6.883a4.7 4.7 0 0 1-.818-2H5V4h9v5h5v2.207c.743.21 1.423.573 2.002 1.053L21 8l-6.004-6zM17.5 13a3.5 3.5 0 0 0-3.5 3.5l.004.102a2.749 2.749 0 0 0 .578 5.393l.168.005h5.5l.168-.006a2.749 2.749 0 0 0 .58-5.39L21 16.5a3.5 3.5 0 0 0-3.5-3.5zm0 2a1.5 1.5 0 0 1 1.492 1.355L19 16.5v1.62l.432.124 1.011.281A.75.75 0 0 1 20.256 20h-5.512l-.107-.008a.75.75 0 0 1-.08-1.467L16 18.12V16.5l.008-.145.02-.14A1.5 1.5 0 0 1 17.5 15z"/></svg>