<svg xmlns="http://www.w3.org/2000/svg" viewBox="0 0 24 24"><path d="M3.998 2A.995.995 0 0 0 3 2.992v18.016a1 1 0 0 0 .994.992h16.012c.548 0 .994-.451.994-1.008V7l-5-5zM5 4h10v4h4v12H5zm6 3.5v1.145a3.5 3.5 0 0 0-1.404.812l-.992-.572-1 1.73.99.574Q8.5 11.58 8.5 12t.094.81l-.99.575 1 1.73.992-.572c.393.372.872.654 1.404.812V16.5h2v-1.145a3.5 3.5 0 0 0 1.404-.812l.992.572 1-1.73-.99-.574q.093-.391.094-.811 0-.42-.094-.81l.99-.575-1-1.73-.992.572A3.5 3.5 0 0 0 13 8.645V7.5zm1 3a1.5 1.5 0 1 1 0 3 1.5 1.5 0 0 1 0-3z"/></svg>