<svg xmlns="http://www.w3.org/2000/svg" viewBox="0 0 24 24"><path d="M3.002 3a1 1 0 0 0-1 1v16a1 1 0 0 0 1 1h18a1 1 0 0 0 1-1V4a1 1 0 0 0-1-1zm7.48 1.998c-.66 2.062-.98 4.727-.98 8.002v1h2.904c-.031.58-.032 1.493-.008 1.99q-.197.01-.396.01c-1.792 0-3.602-.603-5.445-1.832l-1.112 1.664C7.602 17.27 9.794 18 12.002 18q.137 0 .582-.02.069.505.162 1.02H4.002V5zm2.12 0 7.4.002v14l-5.22-.002q-.133-.675-.22-1.326 2.013-.519 3.995-1.84l-1.11-1.664q-1.544 1.029-3.062 1.477a16 16 0 0 1 .11-2.522l.14-1.123h-3.123c.045-2.589.424-5.419 1.09-7.002zM7.002 7a1 1 0 0 0-1 1v1a1 1 0 0 0 2 0V8a1 1 0 0 0-1-1zm10 0a1 1 0 0 0-1 1v1a1 1 0 1 0 2 0V8a1 1 0 0 0-1-1z"/></svg>