<svg xmlns="http://www.w3.org/2000/svg" viewBox="0 0 24 24"><path d="M12 1a8.96 8.96 0 0 0-5.617 1.967l1.426 1.428A7 7 0 0 1 19 10v4l-.004.24a6.98 6.98 0 0 1-2.293 4.946C16.9 18.154 17 17.088 17 16v-3.002h-2V16l-.004.314a15 15 0 0 1-.725 4.309 7 7 0 0 1-2.267.379c.642-1.54.996-3.23.996-5.002V9h-2v7l-.004.29a10.9 10.9 0 0 1-1.549 5.343l-.17.281a11 11 0 0 1-.369.541A9 9 0 0 0 12 23a9 9 0 0 0 9-9v-4a9 9 0 0 0-9-9zM4.967 4.383A8.96 8.96 0 0 0 3 10v4c0 2.438.97 4.65 2.545 6.271l.309.301q.574.538 1.236.969c.29-.37.554-.763.783-1.178l.023-.039A8.96 8.96 0 0 0 9 16v-6l.006-.176A3 3 0 0 1 15 10v1h2v-1a5 5 0 0 0-10 0v6l-.004.24a6.9 6.9 0 0 1-.428 2.176A6.97 6.97 0 0 1 5 14v-4l.004-.24c.05-1.48.56-2.843 1.39-3.951z"/></svg>