<svg xmlns="http://www.w3.org/2000/svg" viewBox="0 0 24 24"><path d="M3 3a1 1 0 0 0-1 1v16a1 1 0 0 0 1 1h18a1 1 0 0 0 1-1V6a1 1 0 0 0-1-1h-8.586l-2-2zm7.996 5.5h1.998v1.145a3.5 3.5 0 0 1 1.404.81l.993-.572 1 1.732-.993.572a3.5 3.5 0 0 1 0 1.622l.993.572-1 1.73-.993-.572a3.5 3.5 0 0 1-1.404.813v1.144h-1.998v-1.144a3.5 3.5 0 0 1-1.404-.813l-.992.574-1-1.732.992-.572a3.5 3.5 0 0 1 0-1.621l-.992-.573 1-1.732.992.572a3.5 3.5 0 0 1 1.404-.81zm.998 2.998c-.828 0-1.498.672-1.498 1.5a1.499 1.499 0 1 0 1.498-1.5z"/></svg>