<svg xmlns="http://www.w3.org/2000/svg" viewBox="0 0 24 24"><path d="M17.814 1.674c-1.787.013-3.113 2.468-3.439 4.314-.174.985.145 2.057.377 3.621l.232 1.565 5.416.955c.174-.985.928-2.376 1.362-4.838s-1.12-5.151-3.584-5.586a2 2 0 0 0-.364-.031zm.016 2c1.26.222 2.226 1.777 1.963 3.27-.124.704-.285 1.35-.486 2.007-.002.006-.138.4-.303.9l-2.252-.396-.022-.139a31 31 0 0 0-.115-.716c-.32-1.86-.328-1.934-.27-2.264.13-.738.485-1.582.915-2.147.32-.42.511-.526.57-.515zM8 6.12C5.498 6.121 3.5 8.5 3.5 11s.5 4 .5 5h5.5l.5-1.5c.5-1.5 1-2.5 1-3.5 0-2-1-4.879-3-4.879zm0 2c.06 0 .23.136.473.606C8.798 9.357 9 10.25 9 11c0 .371-.13.762-.896 2.867L8.059 14H5.766l-.04-.242A17 17 0 0 1 5.5 11c0-1.516 1.22-2.879 2.5-2.879zm6.637 5.022-.217 1.232a2.75 2.75 0 1 0 5.416.955l.219-1.232zM4 18v1.25a2.75 2.75 0 0 0 5.5 0V18z"/></svg>