<svg xmlns="http://www.w3.org/2000/svg" viewBox="0 0 24 24"><path d="M12.002 2c-5.525 0-10 4.475-10 10a9.99 9.99 0 0 0 6.836 9.488c.5.088.687-.214.687-.476 0-.238-.011-1.024-.011-1.862-2.513.463-3.164-.613-3.364-1.175-.112-.288-.598-1.175-1.023-1.413-.35-.187-.851-.65-.014-.662.788-.012 1.35.726 1.537 1.026.9 1.512 2.34 1.087 2.914.824.088-.65.35-1.088.637-1.338-2.225-.25-4.55-1.112-4.55-4.937 0-1.088.387-1.988 1.025-2.688-.1-.25-.45-1.275.1-2.65 0 0 .837-.262 2.75 1.025a9.3 9.3 0 0 1 2.5-.338c.85 0 1.7.113 2.5.338 1.912-1.3 2.75-1.025 2.75-1.025.55 1.375.201 2.4.101 2.65.637.7 1.023 1.588 1.023 2.688 0 3.837-2.337 4.687-4.562 4.937.362.313.676.912.676 1.85 0 1.337-.012 2.412-.012 2.75 0 .262.187.576.687.476A10.02 10.02 0 0 0 22.002 12c0-5.525-4.475-10-10-10z"/></svg>