<svg xmlns="http://www.w3.org/2000/svg" viewBox="0 0 24 24"><path d="M6.457 2.434a1.54 1.54 0 0 0-.912.24 1.53 1.53 0 0 0-.607.73L2.457 9.875a5.45 5.45 0 0 0-.146 3.447 5.45 5.45 0 0 0 1.95 2.846l6.733 5.066c.288.218.639.334 1 .334s.712-.116 1-.334l.002-.002 6.73-5.064a5.45 5.45 0 0 0 1.813-6.3l-2.473-6.454-.003-.01a1.54 1.54 0 0 0-.606-.73l-.002-.002a1.55 1.55 0 0 0-1.795.096l-.004.003a1.54 1.54 0 0 0-.515.768l-1.446 4.428h-5.39L7.859 3.539a1.54 1.54 0 0 0-.515-.768V2.77a1.55 1.55 0 0 0-.887-.336zm-.102 2.302L8 9.768h8l1.645-5.032 2.187 5.71c.282.739.344 1.616.125 2.376a3.65 3.65 0 0 1-1.309 1.905l-6.654 5.005-6.658-5.01a3.65 3.65 0 0 1-1.295-1.896c-.217-.758-.161-1.624.12-2.361z"/></svg>