<svg xmlns="http://www.w3.org/2000/svg" viewBox="0 0 24 24"><path d="M11.006 2.002a3 3 0 0 0-3.002 3 3.002 3.002 0 0 0 6.002 0 3 3 0 0 0-3-3zm0 2a1 1 0 1 1 0 2 1 1 0 0 1 0-2zm7 1a3 3 0 1 0 0 6 3 3 0 0 0 0-6zm0 2a1 1 0 1 1 0 2 1 1 0 0 1 0-2zm-16.002 2a1 1 0 0 0-1 1v9a1 1 0 0 0 1 1h3a1 1 0 0 0 .94-.656c1.91 1.054 4.271 1.656 7.062 1.656 4.322 0 8.15-2.028 10.515-5.148a5 5 0 0 0-4.515-2.852h-3.147a4.5 4.5 0 0 0-3.353-1.5h-2.172a6.97 6.97 0 0 0-4.33-1.5 1 1 0 0 0-1-1zm1 2h1v7h-1zm3.002 1c1.398 0 2.663.575 3.57 1.5h2.93l.164.006a2.5 2.5 0 0 1 2.09 1.416l.035.078H8.004v2h9.002v-1q-.002-.517-.113-1h2.113l.203.008c.61.041 1.18.266 1.645.629l.119.101-.133.133c-2.037 1.974-4.83 3.129-7.834 3.129-2.822 0-5.161-.685-6.955-1.945l-.047-.032z"/></svg>