<svg xmlns="http://www.w3.org/2000/svg" viewBox="0 0 24 24"><path d="m13.654.016-.054.03c.041.166.101.472.101.872 0 1.676-1.422 2.85-2.799 3.988C9.611 5.974 8.36 7.008 8.36 8.393c0 1.984 1.959 3.205 2.786 3.72l.064.041.049-.029-.143-.154c-.636-.677-1.601-1.703-1.601-3.274 0-1.103.973-1.973 2.029-2.918 1.252-1.12 2.621-2.344 2.621-4.185 0-.833-.34-1.366-.51-1.578zm1.985 4.55c-1.013.34-4.13 1.569-4.13 3.862 0 .659.328 1.168.65 1.67.31.485.618.962.618 1.56 0 .434-.246.841-.445 1.084l.102.057c.527-.343 1.459-1.083 1.459-2.041 0-.38-.246-.796-.508-1.238-.297-.502-.615-1.036-.615-1.59 0-1.643 2.166-2.932 2.923-3.332zm2.123 7.295c-.294 0-.556.053-.768.118v.001l-.045.112c.843-.165 1.614.452 1.57 1.29-.066 1.28-1.249 2.074-2.43 2.747l.108.062c1.26-.354 3.508-1.386 3.323-2.972-.093-.791-.816-1.358-1.758-1.358zm-8.729.194c-1.078.083-3.396.424-3.396 1.035 0 .461 2.123 1.113 5.45 1.113 2.995 0 4.887-.566 5.327-.781l-.643-.373c-.46.125-2.17.506-4.683.506-1.48 0-4.03-.273-4.03-.69 0-.374 1.593-.663 2.05-.746l.027-.006zm-.865 2.623c-.83.146-1.6.373-1.596.713.008.615 2.363 1.078 4.516 1.078 1.83 0 3.588-.309 4.38-.711l-.831-.48c-.548.155-1.783.408-3.547.408-1.732 0-3.146-.296-3.15-.645-.003-.232.277-.334.277-.334zm.617 2.502c-.384.076-1.223.27-1.223.677 0 .565 1.793.997 3.524.997 2.382 0 3.358-.613 3.402-.645l-.99-.572c-.421.1-1.13.258-2.408.258-1.427 0-2.356-.245-2.356-.512 0-.057.036-.125.102-.174zm-2.125.675c-1.09.15-3.096.671-3.09 1.424.01 1.09 4.624 1.63 7.485 1.606 3.313-.029 7.02-.678 7.011-1.768-.001-.197-.13-.334-.242-.416l-.054.031c-.307.845-2.896 1.469-6.721 1.502-2.468.022-5.887-.568-5.893-1.252-.006-.685 1.62-1.062 1.62-1.062zm12.281 1.895c-.271.331-2.023 1.858-8.232 1.912a26 26 0 0 1-4.277-.324l-.125.072c1.347.395 3.223.633 5.285.615 4.048-.035 7.331-1.04 7.396-2.248z"/></svg>