<svg xmlns="http://www.w3.org/2000/svg" viewBox="0 0 24 24"><path d="M8.3 4.7A7.3 7.3 0 0 0 1.003 12a7.3 7.3 0 0 0 11 6.295 7.301 7.301 0 1 0 0-12.59A7.27 7.27 0 0 0 8.301 4.7zm0 2a5.3 5.3 0 0 1 1.999.39A7.27 7.27 0 0 0 8.4 12c0 1.89.72 3.614 1.899 4.91A5.3 5.3 0 0 1 3.002 12a5.3 5.3 0 0 1 5.299-5.3zm7.401 0a5.301 5.301 0 1 1-1.998 10.21A7.27 7.27 0 0 0 15.602 12c0-1.89-.72-3.614-1.899-4.91a5.3 5.3 0 0 1 1.998-.39zm-3.699 1.505a5.28 5.28 0 0 1 1.6 3.795 5.28 5.28 0 0 1-1.6 3.795A5.3 5.3 0 0 1 10.4 12c0-1.488.615-2.832 1.602-3.795z"/></svg>