<svg xmlns="http://www.w3.org/2000/svg" viewBox="0 0 24 24"><path d="M7.006 4.5q-2.29 0-4.022 2.455-1.413 2.004-1.96 4.856-.557 2.891.107 4.962.39 1.217 1.178 1.916.912.811 2.197.811 2.273 0 4.144-2.326 1.01-1.253 2.696-4.502.345-.665.66-1.242.314.577.658 1.242 1.687 3.25 2.695 4.502 1.872 2.326 4.145 2.326 1.284 0 2.197-.81.788-.7 1.178-1.917.664-2.07.107-4.962-.548-2.852-1.96-4.856Q19.292 4.5 17.003 4.5q-2.514 0-4.549 2.477-.212.258-.45.593-.237-.335-.45-.593Q9.519 4.5 7.005 4.5zm0 2q1.569 0 3.004 1.746.364.442.828 1.176-.584 1.01-1.268 2.33-1.594 3.072-2.476 4.168-1.271 1.58-2.588 1.58-1.042 0-1.47-1.336-.51-1.585-.05-3.975.468-2.429 1.633-4.082Q5.753 6.5 7.006 6.5zm9.998 0q1.252 0 2.387 1.607 1.165 1.653 1.632 4.082.46 2.39-.048 3.975-.43 1.336-1.471 1.336-1.315 0-2.586-1.58-.884-1.096-2.479-4.168a59 59 0 0 0-1.267-2.33q.464-.733.828-1.176Q15.435 6.5 17.004 6.5z"/></svg>