<svg xmlns="http://www.w3.org/2000/svg" viewBox="0 0 24 24"><path d="M11.14 2c-2.013 0-3.092.278-4.07.8A5.46 5.46 0 0 0 4.8 5.07c-.522.978-.8 2.057-.8 4.07v5.72c0 2.013.278 3.092.8 4.07a5.46 5.46 0 0 0 2.27 2.27c.978.522 2.057.8 4.07.8h1.72c2.013 0 3.092-.278 4.07-.8a5.46 5.46 0 0 0 2.27-2.27c.522-.978.8-2.057.8-4.07V9.14c0-2.013-.278-3.092-.8-4.07a5.46 5.46 0 0 0-2.27-2.27c-.978-.522-2.057-.8-4.07-.8zm0 2h1.72c1.582 0 2.385.168 3.126.564q.945.504 1.45 1.448c.396.74.564 1.546.564 3.129v5.718c0 1.583-.168 2.386-.564 3.127a3.46 3.46 0 0 1-1.45 1.45c-.74.396-1.544.564-3.127.564h-1.718c-1.583 0-2.388-.168-3.13-.564a3.46 3.46 0 0 1-1.447-1.45C6.168 17.246 6 16.442 6 14.86V9.141c0-1.583.168-2.388.564-3.13a3.45 3.45 0 0 1 1.448-1.447C8.752 4.168 9.558 4 11.14 4zM11 6v5h2V6z"/></svg>