<svg xmlns="http://www.w3.org/2000/svg" viewBox="0 0 24 24"><path d="M12.002 2c-5.523 0-10 4.477-10 10s4.477 10 10 10 10-4.477 10-10-4.477-10-10-10zm2.543 3.463a2.04 2.04 0 0 1 1.44.695c.278.33.27.746-.018 1.01-.284.26-.686.238-.988-.063-.17-.168-.351-.303-.604-.3-.361.004-.679.289-.65.646.025.322.119.64.207.953.015.054.148.093.232.106.918.135 1.722.504 2.389 1.154 1.76 1.716 1.969 4.496.463 6.498-1.052 1.399-2.485 2.182-4.217 2.348-3.18.303-5.962-1.742-6.674-4.86-.652-2.853.948-5.898 3.67-6.986.403-.161.786-.023.943.342.16.37-.013.747-.42.93-1.629.729-2.626 1.965-2.9 3.734-.367 2.363 1.14 4.664 3.441 5.314 1.874.53 3.894-.114 5.03-1.603 1.091-1.432.961-3.511-.295-4.733a2.74 2.74 0 0 0-1.254-.697c.136.493.267.956.392 1.42.188.697.196 1.388-.087 2.065-.777 1.852-3.25 2.162-4.524.568-.895-1.12-.878-2.727.043-3.947a3.85 3.85 0 0 1 2.096-1.414q.125-.035.261-.07c-.057-.286-.128-.564-.166-.844-.121-.907.352-1.724 1.2-2.094.316-.138.657-.192.99-.172zM12.906 9.92c-.915.106-1.751.807-1.992 1.648-.202.708.01 1.421.541 1.827.73.557 1.764.206 1.977-.686.055-.232.072-.496.02-.727-.159-.689-.359-1.368-.546-2.062z"/></svg>