<svg xmlns="http://www.w3.org/2000/svg" viewBox="0 0 24 24"><path d="M12 2C6.478 2 2 6.478 2 12s4.478 10 10 10c.9 0 1.666-.744 1.666-1.666 0-.433-.167-.823-.434-1.123a1.67 1.67 0 0 1-.421-1.1c0-.922.745-1.666 1.668-1.666h1.966A5.56 5.56 0 0 0 22 10.89C22 5.978 17.522 2 12 2zm0 2c4.468 0 8 3.139 8 6.889a3.56 3.56 0 0 1-3.555 3.556H14.48a3.665 3.665 0 0 0-3.668 3.666c0 .665.184 1.307.513 1.862A8 8 0 0 1 12 4zm0 2a1.5 1.5 0 1 0 0 3 1.5 1.5 0 0 0 0-3zM7.5 9a1.5 1.5 0 1 0 0 3 1.5 1.5 0 0 0 0-3zm9 0a1.5 1.5 0 1 0 0 3 1.5 1.5 0 0 0 0-3z"/></svg>