<svg xmlns="http://www.w3.org/2000/svg" viewBox="0 0 24 24"><path d="M6.17 2.22c-.784-.002-1.568.204-2.158.794-.674.674-.847 1.602-.78 2.494.06.782.307 1.642.686 2.527l-.002.002q.1.23.209.463c.963 2.031 2.653 4.356 4.834 6.537 2.184 2.184 4.51 3.876 6.543 4.838q.232.11.463.207h.002c.883.378 1.74.623 2.521.682.892.067 1.82-.105 2.494-.78.675-.674.847-1.602.78-2.494-.068-.896-.383-1.893-.86-2.914a15 15 0 0 0-.175-.365 9 9 0 0 0-2.364-8.574 9 9 0 0 0-8.572-2.364 15 15 0 0 0-.371-.18c-1.021-.476-2.018-.791-2.914-.859a5 5 0 0 0-.336-.013zm-.014 2q.093 0 .2.009.372.027.843.156a9 9 0 0 0-1.877 1.58 4 4 0 0 1-.095-.608c-.044-.572.092-.822.199-.93.093-.093.297-.208.73-.206zM3.22 10.022a9 9 0 0 0 2.418 8.342 8.99 8.99 0 0 0 8.342 2.418c-1.983-1.082-4.103-2.706-6.08-4.683-1.976-1.976-3.598-4.096-4.68-6.077zm16.394 6.784q.128.466.155.836c.043.572-.093.822-.2.93-.107.106-.357.242-.93.199a4 4 0 0 1-.6-.094q.165-.151.325-.313c.483-.482.9-1.005 1.25-1.558z"/></svg>