<svg xmlns="http://www.w3.org/2000/svg" viewBox="0 0 24 24"><path d="M7 2a1 1 0 0 0-1 1v4H3a1 1 0 0 0-1 1v10a1 1 0 0 0 1 1h3v2a1 1 0 0 0 1 1h3.871a4.5 4.5 0 0 1-.816-2H8v-3h2.563q.18-.331.42-.643a4.7 4.7 0 0 1 1.142-1.074q.03-.143.068-.283H7a1 1 0 0 0-1 1v1H4V9h16v2.584q.747.386 1.389 1.027.34.341.611.713V8a1 1 0 0 0-1-1h-3V3a1 1 0 0 0-1-1zm1 2h8v3H8zm-3 6v2h3v-2zm12.5 3a3.5 3.5 0 0 0-3.5 3.5l.004.102a2.749 2.749 0 0 0 .578 5.393l.168.005h5.5l.168-.006a2.749 2.749 0 0 0 .58-5.39L21 16.5a3.5 3.5 0 0 0-3.5-3.5zm0 2a1.5 1.5 0 0 1 1.492 1.355L19 16.5v1.62q1.044.298 1.443.405A.75.75 0 0 1 20.256 20h-5.512a.75.75 0 0 1-.187-1.475q.355-.095 1.218-.341l.225-.065V16.5l.008-.145A1.5 1.5 0 0 1 17.5 15z"/></svg>