<svg xmlns="http://www.w3.org/2000/svg" viewBox="0 0 24 24"><path d="M12.092 2.5a3.5 3.5 0 0 0-3.125 1.75L7.436 6.902l1.732 1 1.531-2.652a1.5 1.5 0 0 1 2.598 0l1.031 1.785-2.164 1.25 5.531 2.58.532-6.08-2.166 1.25-1.032-1.785a3.5 3.5 0 0 0-2.937-1.75zm-4.79 6.635-5.53 2.58 2.164 1.248-1.03 1.787A3.5 3.5 0 0 0 5.938 20H9v-2H5.938a1.5 1.5 0 0 1-1.301-2.25l1.031-1.787 2.166 1.252zm12.259 2.963-1.733 1 1.531 2.652A1.5 1.5 0 0 1 18.061 18h-2.063v-2.5l-5 3.5 5 3.5V20h2.063a3.5 3.5 0 0 0 3.03-5.25z"/></svg>