<svg xmlns="http://www.w3.org/2000/svg" viewBox="0 0 24 24"><path d="M13.773 2.695a2 2 0 0 0-1.968 1.584l-.752 3.535a11.44 11.44 0 0 0-5.328 1.63 3.19 3.19 0 0 0-3.455 5.35q.003.09.01.18c-.004 3.93 4.372 6.952 9.704 6.952 5.35 0 9.8-3.032 9.8-7.03l.009-.123A3.19 3.19 0 0 0 23 12.225v-.022a3.192 3.192 0 0 0-4.742-2.674c-1.606-.969-3.38-1.562-5.164-1.699l.666-3.135 3.197.68a2.001 2.001 0 0 0 3.86-.203 2 2 0 0 0-3.444-1.754l-3.197-.68a2 2 0 0 0-.403-.043zm-2.28 7.106H12.5c1.778.038 3.613.665 5.229 1.763l.67.457.585-.562a1.193 1.193 0 0 1 2.016.807c.003.455-.254.873-.662 1.076l-.604.299.053.672a3 3 0 0 1 0 .507c-.003 2.771-3.432 5.106-7.803 5.106-4.352 0-7.707-2.32-7.707-5.03a4 4 0 0 1-.004-.584l.055-.693-.633-.29a1.194 1.194 0 0 1 .032-2.183 1.2 1.2 0 0 1 1.283.231l.582.549.664-.45c1.586-1.075 3.361-1.647 5.236-1.675zM8.45 12a1.5 1.5 0 1 0 0 3 1.5 1.5 0 0 0 0-3zm7 0a1.5 1.5 0 1 0 0 3 1.5 1.5 0 0 0 0-3zm-7.058 4.7a.425.425 0 0 0-.307.693c1.115.84 2.484 1.21 3.88 1.21 1.398 0 3.198-.35 3.882-1.148a.47.47 0 0 0 .119-.422.44.44 0 0 0-.733-.207c-.953.684-2.137.96-3.283.96s-2.325-.298-3.27-.991a.42.42 0 0 0-.288-.096z"/></svg>