<svg xmlns="http://www.w3.org/2000/svg" viewBox="0 0 24 24"><path d="M11.967 1.47a.8.8 0 0 0-.557.259q-.246.268-.406.45a35.9 35.9 0 0 0-8.125 15.87c2.141.451 4.342.747 6.586.875l2.088 4.178a.5.5 0 0 0 .895 0l2.087-4.178a44 44 0 0 0 6.584-.875 35.9 35.9 0 0 0-8.531-16.32l-.047-.047a.8.8 0 0 0-.574-.211zM12 4.087a33.9 33.9 0 0 1 6.648 12.387 42 42 0 0 1-4.226.455l-1.156.064L12 19.523l-1.266-2.53-1.156-.065a42 42 0 0 1-4.226-.455A33.9 33.9 0 0 1 12 4.086zm0 4.91a3 3 0 1 0 0 6 3 3 0 0 0 0-6zm0 2a1 1 0 1 1 0 2 1 1 0 0 1 0-2z"/></svg>