<svg xmlns="http://www.w3.org/2000/svg" viewBox="0 0 24 24"><path d="M12.006 2C6.755 2 2.449 6.05 2.04 11.197l5.36 2.215a2.8 2.8 0 0 1 1.593-.492q.079.002.156.006l2.385-3.451v-.05c0-2.078 1.69-3.77 3.77-3.77a3.78 3.78 0 0 1 3.771 3.773 3.776 3.776 0 0 1-3.771 3.771h-.088l-3.397 2.426.004.13A2.826 2.826 0 0 1 9 18.586a2.844 2.844 0 0 1-2.777-2.27l-3.836-1.59C3.575 18.922 7.428 22 12.006 22c5.522 0 9.998-4.478 9.998-10S17.527 2 12.006 2zm3.3 4.91a2.515 2.515 0 0 0-2.513 2.512 2.515 2.515 0 0 0 2.514 2.514 2.514 2.514 0 0 0 2.511-2.514 2.515 2.515 0 0 0-2.511-2.512zm.007.62a1.89 1.89 0 0 1 0 3.777 1.888 1.888 0 1 1 0-3.778zm-6.3 6.093a2.2 2.2 0 0 0-.77.139l1.269.523a1.565 1.565 0 0 1-1.205 2.89l-1.229-.509c.218.453.596.834 1.096 1.043a2.127 2.127 0 0 0 2.781-2.771 2.12 2.12 0 0 0-1.941-1.315z"/></svg>