<svg xmlns="http://www.w3.org/2000/svg" viewBox="0 0 24 24"><path d="M5.21 2a1 1 0 0 0-.864.5L1.633 7.197A4.47 4.47 0 0 0 1 9.5c0 1.56.794 2.935 2 3.742V20H2v2h20v-2h-1v-6.758A4.5 4.5 0 0 0 23 9.5c0-.827-.224-1.624-.643-2.318L19.654 2.5a1 1 0 0 0-.865-.5zm.58 2h12.42l2.425 4.197a2.502 2.502 0 1 1-4.457 2.233c-.336-.838-1.52-.838-1.856 0a2.501 2.501 0 0 1-4.644 0c-.336-.838-1.52-.838-1.856 0a2.501 2.501 0 1 1-4.467-2.217zm2.96 8.613A4.5 4.5 0 0 0 12 14c1.26 0 2.421-.522 3.25-1.387a4.5 4.5 0 0 0 3.75 1.36V20H5v-6.027q.246.027.5.027c1.26 0 2.421-.522 3.25-1.387z"/></svg>