<svg xmlns="http://www.w3.org/2000/svg" viewBox="0 0 24 24"><path d="M2.998 3a1 1 0 0 0-1 1v7a1 1 0 0 0 1 1l1.998-.002L4.998 20a1 1 0 0 0 1 1h4v-7l.006-.148A2 2 0 0 1 11.998 12h9a1 1 0 0 0 1-1V4a1 1 0 0 0-1-1h-6a3 3 0 1 1-6 0zm9.707 10.793-1.414 1.414.22.213C12.62 16.455 13.785 17 14.999 17c.792 0 1.32-.152 2.371-.572l.393-.153c.556-.208.858-.275 1.236-.275.706 0 1.466.38 2.293 1.207l1.414-1.414-.22-.213c-1.11-1.035-2.275-1.58-3.489-1.58-.791 0-1.32.152-2.371.572l-.393.153c-.556.208-.858.275-1.236.275-.705 0-1.466-.38-2.293-1.207zm0 4-1.414 1.414.22.213C12.62 20.455 13.785 21 14.999 21c.792 0 1.32-.152 2.371-.572l.393-.153c.556-.208.858-.275 1.236-.275.706 0 1.466.38 2.293 1.207l1.414-1.414-.22-.213c-1.11-1.035-2.275-1.58-3.489-1.58-.791 0-1.32.152-2.371.572l-.393.153c-.556.208-.858.275-1.236.275-.705 0-1.466-.38-2.293-1.207z"/></svg>