<svg xmlns="http://www.w3.org/2000/svg" viewBox="0 0 24 24"><path d="M8.967 3.883s-1.068 3.508-2.97 5.14c0 0 1.845 1.072 1.825 1.04A17 17 0 0 0 9.23 8.467q.633-.284 1.224-.526c-.492.887-1.276 2.218-2.066 3.057l1.111.984s.763-.738 1.59-1.62h.943v1.636H8.346v1.307h3.685v3.133l-.142-.006c-.408-.02-1.035-.088-1.285-.483-.299-.483-.077-1.358-.065-1.902H7.994l-.092.05s-.935 4.207 2.69 4.114c3.386.093 5.328-.956 6.263-1.678l.372 1.395 2.09-.883-1.417-3.483-1.693.536.314 1.19c-.427.33-.93.572-1.466.753v-2.736h3.591v-1.31h-3.591v-1.638h3.603V9.051h-6.41c.464-.569.823-1.09.92-1.416l-1.121-.305c4.797-1.734 7.47-1.436 7.45 1.402v7.475s.281 2.564-2.638 2.383l-1.58-.344-.365 1.512s6.817 1.969 7.373-3.313c.553-5.281-.14-8.652-.14-8.652s-.627-4.871-11.21-1.856c.456-.794.67-1.304.67-1.304zm-3.826.306c-1.049 0-1.887.762-1.887 1.702.004.93.838 1.693 1.887 1.693 1.04 0 1.882-.758 1.882-1.693 0-.944-.842-1.702-1.882-1.702zM3.576 8.277 2.383 10.12l2.201 1.371s1.463.753.762 2.168c-.65 1.339-3.846 4.27-3.846 4.27l2.863 1.799c1.984-4.326 1.85-3.749 2.346-5.305.512-1.58.625-2.795-.242-3.678-1.113-1.125-1.238-1.229-2.89-2.467z"/></svg>