<svg xmlns="http://www.w3.org/2000/svg" viewBox="0 0 24 24"><path d="M12 2a4 4 0 1 0 0 8 4 4 0 0 0 0-8zm0 2a2 2 0 1 1 0 4 2 2 0 0 1 0-4zM5.5 8a2.5 2.5 0 1 0 0 5 2.5 2.5 0 0 0 0-5zm13 0a2.5 2.5 0 1 0 0 5 2.5 2.5 0 0 0 0-5zm-13 2a.5.5 0 1 1 0 1 .5.5 0 0 1 0-1zm13 0a.5.5 0 1 1 0 1 .5.5 0 0 1 0-1zM12 11a5 5 0 0 0-5 5v6h2v-6l.006-.176A3 3 0 0 1 12 13l.176.006A3 3 0 0 1 15 16v6h2v-6a5 5 0 0 0-5-5zm-6.5 3A3.5 3.5 0 0 0 2 17.5V22h2v-4.5l.008-.145A1.5 1.5 0 0 1 5.5 16l.145.008q.185.018.355.078V16l.01-.33a6 6 0 0 1 .3-1.576A3.5 3.5 0 0 0 5.5 14zm13 0q-.42 0-.809.096c.2.598.309 1.238.309 1.904v.086a1.5 1.5 0 0 1 .5-.086l.145.008A1.5 1.5 0 0 1 20 17.5V22h2v-4.5a3.5 3.5 0 0 0-3.5-3.5z"/></svg>