<svg xmlns="http://www.w3.org/2000/svg" viewBox="0 0 24 24"><path d="M9 2.5c-2.007 0-3.679.728-4.83 2.11C3.039 5.966 2.5 7.845 2.5 10c0 3.097.514 5.866 1.395 7.898C4.735 19.837 6.103 21.5 8 21.5c1.1 0 1.788-.653 2.195-1.361.375-.65.593-1.476.77-2.125.198-.726.355-1.276.574-1.657.186-.323.311-.357.461-.357s.275.034.46.357c.22.381.377.931.575 1.657.177.65.395 1.474.77 2.125.407.708 1.095 1.361 2.195 1.361 1.897 0 3.265-1.663 4.105-3.602.881-2.032 1.395-4.8 1.395-7.898 0-2.154-.539-4.033-1.67-5.39C18.68 3.227 17.007 2.5 15 2.5c-1.08 0-2.102.264-3 .732A6.5 6.5 0 0 0 9 2.5zm0 2a4.47 4.47 0 0 1 2.453.727 4.52 4.52 0 0 1 1.74 2.136 1 1 0 1 0 1.864-.726 6.5 6.5 0 0 0-1.225-1.985A4.5 4.5 0 0 1 15 4.5c1.493 0 2.571.522 3.295 1.39.744.893 1.205 2.264 1.205 4.11 0 2.903-.486 5.384-1.23 7.102-.785 1.811-1.667 2.398-2.27 2.398-.15 0-.275-.034-.46-.357-.227-.393-.386-.961-.593-1.721-.174-.64-.39-1.432-.752-2.06C13.788 14.652 13.1 14 12 14s-1.788.653-2.195 1.361c-.362.63-.578 1.422-.752 2.06-.207.76-.366 1.33-.592 1.722-.186.323-.311.357-.461.357-.603 0-1.485-.587-2.27-2.398-.744-1.718-1.23-4.2-1.23-7.102 0-1.846.461-3.217 1.205-4.11C6.43 5.023 7.507 4.5 9 4.5z"/></svg>