<svg xmlns="http://www.w3.org/2000/svg" viewBox="0 0 24 24"><path d="M15.941 3.695a4.18 4.18 0 0 0-4.074 5.133 11.87 11.87 0 0 1-8.62-4.369 4.17 4.17 0 0 0-.565 2.104c0 1.45.737 2.73 1.859 3.48a4.2 4.2 0 0 1-1.895-.523v.052a4.185 4.185 0 0 0 3.356 4.102q-.542.145-1.102.144-.405 0-.787-.072a4.18 4.18 0 0 0 3.907 2.902 8.4 8.4 0 0 1-6.192 1.733 11.83 11.83 0 0 0 6.41 1.879c7.693 0 11.9-6.372 11.9-11.899q0-.272-.013-.54a8.5 8.5 0 0 0 2.088-2.165 8.4 8.4 0 0 1-2.402.658A4.2 4.2 0 0 0 21.648 4c-.82.488-1.717.83-2.654 1.014a4.18 4.18 0 0 0-3.053-1.319z"/></svg>