<svg xmlns="http://www.w3.org/2000/svg" viewBox="0 0 24 24"><path d="M12.135 1.998a5.002 5.002 0 0 0-3.45 8.742L6.804 14H6.8a2 2 0 1 0 1.947 1.537c-.082-.347-.102-.724.076-1.033l2.545-4.408-.865-.5a3.002 3.002 0 1 1 4.38-1.76l1.92.56a5.004 5.004 0 0 0-4.667-6.398zm-.08 3a2 2 0 0 0-.625 3.916c.342.102.679.273.857.582l2.545 4.41.865-.5a3 3 0 1 1-.666 4.674l-1.445 1.383a5 5 0 1 0 2.027-8.203L13.73 8l.002-.004a1.998 1.998 0 0 0-1.677-2.998zM5.61 11.143A5 5 0 1 0 11.7 17h3.766v.004a2 2 0 1 0 .36-2.455c-.26.245-.577.451-.934.451H9.799v1a3 3 0 1 1-3.715-2.914z"/></svg>