<svg xmlns="http://www.w3.org/2000/svg" viewBox="0 0 24 24"><path d="M8.951 3C4.57 3 1.002 5.945 1.002 9.6c0 1.987 1.057 3.776 2.756 4.978.123.098.22.245.22.442 0 .049-.023.122-.023.171-.123.491-.344 1.3-.37 1.325-.024.073-.048.123-.048.197 0 .147.122.27.27.27a.35.35 0 0 0 .148-.05l1.748-1.005a.83.83 0 0 1 .639-.098c.812.22 1.7.367 2.586.367h.088a5.7 5.7 0 0 1-.227-1.6c0-3.644 3.43-6.503 7.606-6.503q.14-.001.279.004C15.88 5.168 12.715 3 8.95 3zM6.26 6.463A1.02 1.02 0 0 1 7.287 7.49c0 .55-.454 1.026-1.027 1.026A1.017 1.017 0 0 1 5.234 7.49c0-.573.453-1.027 1.026-1.027zm5.26 0a1.02 1.02 0 0 1 1.027 1.027c0 .55-.455 1.026-1.027 1.026a1.017 1.017 0 0 1-1.026-1.026c0-.573.453-1.027 1.026-1.027zm4.875 2.63c-3.66 0-6.606 2.457-6.606 5.505s2.946 5.506 6.606 5.506c.76 0 1.474-.099 2.162-.295a.5.5 0 0 1 .195-.026.8.8 0 0 1 .344.1l1.449.834c.049.024.074.05.123.05.123 0 .22-.1.22-.222 0-.05-.023-.098-.023-.172 0-.025-.196-.688-.295-1.105a.3.3 0 0 1-.025-.147.35.35 0 0 1 .172-.369c1.4-1.008 2.285-2.508 2.285-4.154 0-3.048-2.948-5.504-6.607-5.504zm-2.245 2.823c.5 0 .897.398.897.896a.91.91 0 0 1-.897.899.895.895 0 0 1-.898-.899c0-.498.4-.896.898-.896zm4.426 0c.5 0 .897.398.897.896a.91.91 0 0 1-.897.899.895.895 0 0 1-.898-.899c0-.498.4-.896.898-.896z"/></svg>