<svg xmlns="http://www.w3.org/2000/svg" viewBox="0 0 24 24"><path d="M12 3.2c-5.468 0-9.898 3.851-9.898 8.6 0 1.896.704 3.648 1.9 5.07q.12.14.303.331a2 2 0 0 1 .55 1.551l-.189 2.26a.999.999 0 0 0 1.527.93l2.387-1.456a2 2 0 0 1 1.352-.267q.34.054.57.084.734.096 1.498.097c5.468 0 9.9-3.85 9.9-8.6 0-4.749-4.432-8.6-9.9-8.6zm0 2c4.42 0 7.9 3.023 7.9 6.6 0 3.578-3.48 6.6-7.9 6.6q-.627 0-1.236-.082a22 22 0 0 1-.52-.076 4 4 0 0 0-2.705.537l-.717.436.026-.297a4 4 0 0 0-1.102-3.102 5 5 0 0 1-.213-.236c-.932-1.108-1.431-2.414-1.431-3.78 0-3.577 3.477-6.6 7.898-6.6zM8.668 8.94c-.717 0-1.285.567-1.285 1.285 0 .717.568 1.287 1.285 1.287s1.285-.57 1.285-1.287c0-.718-.568-1.286-1.285-1.286zm6.666 0c-.717 0-1.285.567-1.285 1.285 0 .717.568 1.287 1.285 1.287s1.285-.57 1.285-1.287c0-.718-.568-1.286-1.285-1.286z"/></svg>