<svg xmlns="http://www.w3.org/2000/svg" viewBox="0 0 24 24"><path d="M3.93 4.93A9.97 9.97 0 0 0 1 12c0 2.761 1.12 5.26 2.93 7.07l1.414-1.414A7.97 7.97 0 0 1 3 12a7.97 7.97 0 0 1 2.344-5.656zm16.14 0-1.412 1.414A7.98 7.98 0 0 1 21 12a7.97 7.97 0 0 1-2.344 5.656l1.414 1.414A9.97 9.97 0 0 0 23 12c0-2.762-1.12-5.26-2.93-7.07zM13 5l-5 8h3v6l5-8h-3zM6.758 7.758A5.98 5.98 0 0 0 5 12a5.98 5.98 0 0 0 1.758 4.242l1.414-1.414A4 4 0 0 1 7 12c0-1.105.448-2.104 1.172-2.828zm10.486 0L15.83 9.172A4 4 0 0 1 17 12a4 4 0 0 1-1.172 2.828l1.414 1.414A5.98 5.98 0 0 0 19 12a5.98 5.98 0 0 0-1.756-4.242z"/></svg>