<svg xmlns="http://www.w3.org/2000/svg" viewBox="0 0 24 24"><path d="M12 2a9.999 9.999 0 1 0 .002 19.998A9.999 9.999 0 0 0 12 2zm0 1.322A8.65 8.65 0 0 1 17.861 5.6h-.107c-.862 0-1.461.739-1.461 1.539 0 .707.407 1.316.853 2.039.323.569.708 1.306.708 2.383 0 .746-.286 1.608-.655 2.808l-.869 2.893-3.139-9.33c.531-.031 1-.086 1-.086.47-.054.41-.738-.06-.715 0 0-1.401.115-2.309.115-.854 0-2.283-.115-2.283-.115-.47-.023-.524.692-.055.723q.453.051.909.078l1.353 3.707-1.9 5.691-3.168-9.398c.53-.023 1-.086 1-.086.469-.054.414-.738-.063-.715 0 0-1.399.115-2.306.115l-.555-.016A8.67 8.67 0 0 1 12 3.322zm7.615 4.516A8.676 8.676 0 0 1 16.361 19.5l2.655-7.662a8.2 8.2 0 0 0 .6-4zm-15.539.63 4.139 11.34A8.68 8.68 0 0 1 3.322 12c0-1.217.257-2.42.754-3.531zm8.078 4.294 2.668 7.306.063.118a8.8 8.8 0 0 1-2.885.492 8.5 8.5 0 0 1-2.445-.356z"/></svg>