<svg xmlns="http://www.w3.org/2000/svg" viewBox="0 0 24 24"><path d="M14.902 2c-1.373 2.742-3.157 3.431-7.078 4.309-3.356.75-5.822 3.981-5.822 7.627a7.902 7.902 0 0 0 15.668 1.466c2.83-1.305 4.007-3.346 4.332-4.795-.735.103-1.268.531-2.744.586 1.187-1.612 2.418-4.112 2.418-8.064-.403.267-2.077 2.42-6.774 3.549.323-.968.999-2.743 0-4.678zm-7.66 6.613c.096 0 .096.144.096.192-.096.19 0 .334.238.334h4.299c.955 0 1.527 0 1.861-.096.144-.048.24 0 .192.143-.096.334-.047.716-.047 1.05 0 1.099-.002 1.53-.861 2.389l-2.961 3.248 3.15-.002c.35 0 .404-.162.404-.484.645.161.645.92.645 1.129v1.129c0 .62-.379.855-.934.855H7.338c-.525-.096-.813-.382-.813-.86v-1.05c0-.526.238-.909.477-1.195l3.486-3.725h-3.39c-.335 0-.573-.238-.573-.668-.047-.812.096-2.102.717-2.389z"/></svg>