<svg xmlns="http://www.w3.org/2000/svg" xml:space="preserve" width="24" height="24" viewBox="0 0 24 24"><path d="M5.5 6c-1.645 0-3 1.355-3 3v6c0 1.645 1.355 3 3 3h1a1 1 0 0 0 1-1 1 1 0 0 0-1-1h-1c-.564 0-1-.436-1-1V9c0-.564.436-1 1-1h2a1 1 0 0 0 1-1 1 1 0 0 0-1-1zm11 0a1 1 0 0 0-1 1 1 1 0 0 0 1 1h1c.564 0 1 .436 1 1v6c0 .564-.436 1-1 1h-2a1 1 0 0 0-1 1 1 1 0 0 0 1 1h2c1.645 0 3-1.355 3-3v-1a1 1 0 0 0 1-1v-2a1 1 0 0 0-1-1V9c0-1.645-1.355-3-3-3zm-3.486.143a1 1 0 0 0-1.371.343l-3 5A1 1 0 0 0 9.5 13h2.234l-2.091 3.486a1 1 0 0 0 .343 1.371 1 1 0 0 0 1.371-.343l3-5A1 1 0 0 0 13.5 11h-2.234l2.091-3.486a1 1 0 0 0-.343-1.371Z"/></svg>