<svg xmlns="http://www.w3.org/2000/svg" xml:space="preserve" width="24" height="24" viewBox="0 0 24 24"><path d="M4 6C2.355 6 1 7.355 1 9v6c0 1.645 1.355 3 3 3h12c1.645 0 3-1.355 3-3V9c0-1.645-1.355-3-3-3zm0 2h12c.571 0 1 .429 1 1v6c0 .571-.429 1-1 1H4c-.571 0-1-.429-1-1V9c0-.571.429-1 1-1zm6 2a1 1 0 0 0-1 1v2a1 1 0 0 0 .293.707A1 1 0 0 0 10 14a1 1 0 0 0 1-1v-2a1 1 0 0 0-1-1zm-4 0a1 1 0 0 0-.707.293A1 1 0 0 0 5 11v2a1 1 0 0 0 .293.707A1 1 0 0 0 6 14a1 1 0 0 0 .707-.293A1 1 0 0 0 7 13v-2a1 1 0 0 0-1-1zm16 0a1 1 0 0 1 1 1v2a1 1 0 0 1-2 0v-2a1 1 0 0 1 1-1z"/></svg>