<svg xmlns="http://www.w3.org/2000/svg" xml:space="preserve" width="24" height="24" viewBox="0 0 24 24"><path d="M1.293 1.293a1 1 0 0 0 0 1.414L10.586 12l-4.293 4.293a1 1 0 0 0 0 1.414 1 1 0 0 0 1.414 0L11 14.414V21a1 1 0 0 0 1.625.781l4.3-3.441 4.368 4.367a1 1 0 0 0 1.414 0 1 1 0 0 0 0-1.414l-20-20a1 1 0 0 0-1.414 0zm10.273.807A1 1 0 0 0 11 3v3.334a1 1 0 0 0 1 1 1 1 0 0 0 1-1V5.082l2.502 2.002-1.38 1.38a1 1 0 0 0 0 1.415 1 1 0 0 0 1.413 0l2.172-2.172a1 1 0 0 0-.082-1.488l-5-4a1 1 0 0 0-1.059-.12zM13 14.414l2.502 2.502L13 18.918Z"/></svg>