<svg xmlns="http://www.w3.org/2000/svg" xml:space="preserve" width="24" height="24" viewBox="0 0 24 24"><path d="M2.06 7.44a3 3 0 0 0-.06.558v8.004a3 3 0 0 0 1.5 2.594l.004.002 7 4c.16.091.327.161.497.22v-10.24L4 8.557ZM12 1.001a3 3 0 0 0-1.496.4l-7 4-.004.002c-.154.09-.295.196-.43.309l1.956 1.125L12 10.846l6.975-4.01 1.955-1.123a3 3 0 0 0-.43-.309l-.004-.002L13.5 1.404a3 3 0 0 0-1.5-.402zm9.94 6.437-7.48 4.301-1.46.838v10.24c.172-.06.34-.13.5-.222l6.997-3.998.004-.002a3 3 0 0 0 1.5-2.594V7.998c0-.19-.026-.376-.06-.559z"/></svg>