<svg xmlns="http://www.w3.org/2000/svg" xml:space="preserve" width="24" height="24" viewBox="0 0 24 24"><path d="M8 1a1 1 0 0 0-1 1v1H5C3.356 3 2 4.355 2 6v3h20V6c0-1.645-1.355-3-3-3h-2V2a1 1 0 1 0-2 0v1H9V2a1 1 0 0 0-1-1zM2 11v9c0 1.645 1.356 3 3 3h14c1.645 0 3-1.355 3-3v-9H4zm6 3h.01a1 1 0 0 1 0 2H8a1 1 0 0 1 0-2zm4 0h.01a1 1 0 0 1 0 2H12a1 1 0 0 1 0-2zm4 0h.01a1 1 0 0 1 0 2H16a1 1 0 0 1 0-2zm-8 4h.01a1 1 0 0 1 0 2H8a1 1 0 0 1 0-2zm4 0h.01a1 1 0 0 1 0 2H12a1 1 0 0 1 0-2zm4 0h.01a1 1 0 0 1 0 2H16a1 1 0 0 1 0-2z"/></svg>