<svg xmlns="http://www.w3.org/2000/svg" xml:space="preserve" width="24" height="24" viewBox="0 0 24 24"><path d="M12 8.5c-2.197 0-4 1.803-4 4s1.803 4 4 4 4-1.803 4-4-1.803-4-4-4zm0 2c1.116 0 2 .884 2 2s-.884 2-2 2-2-.884-2-2 .884-2 2-2zm-2-7c-1.295 0-2.406.84-2.822 2H5c-1.645 0-3 1.355-3 3v9c0 1.645 1.355 3 3 3h14c1.645 0 3-1.355 3-3v-9c0-1.645-1.355-3-3-3h-2.178A3.01 3.01 0 0 0 14 3.5zm0 2h4c.564 0 1 .436 1 1a1 1 0 0 0 1 1h3c.571 0 1 .429 1 1v9c0 .571-.429 1-1 1H5c-.571 0-1-.429-1-1v-9c0-.571.429-1 1-1h3a1 1 0 0 0 1-1c0-.564.436-1 1-1z"/></svg>