<svg xmlns="http://www.w3.org/2000/svg" width="24" height="24" viewBox="0 0 24 24"><path d="M16.638 0c-1.762 0-3.221 1.439-3.221 3.2v.198a1.19 1.19 0 0 1-.608 1.036h-.002l-.474.273a1.24 1.24 0 0 1-1.229 0l-.029-.016-.139-.072c-1.527-.873-3.502-.35-4.39 1.168l-.244.418c-.885 1.519-.352 3.496 1.172 4.373l.003.002.155.09.013.01c.382.218.61.612.608 1.04v.559c.002.43-.226.823-.608 1.041l-.136.073-.031.017c-1.527.876-2.061 2.853-1.176 4.373l.238.42.006.01c.888 1.518 2.863 2.04 4.39 1.168l.14-.072.029-.016a1.24 1.24 0 0 1 1.228 0l.475.273h.002c.38.218.607.611.607 1.038v.197c0 1.76 1.459 3.199 3.22 3.199h.49a1 1 0 0 0 1-1 1 1 0 0 0-1-1h-.49c-.69 0-1.22-.53-1.22-1.2v-.198a3.2 3.2 0 0 0-1.611-2.77l-.002-.002-.477-.273h-.002a3.24 3.24 0 0 0-3.213 0l.03-.018-.168.088-.03.018a1.22 1.22 0 0 1-1.671-.44l-.239-.42-.006-.008a1.17 1.17 0 0 1 .444-1.63q0-.002.002-.003l.136-.072.03-.015a3.2 3.2 0 0 0 1.613-2.786v-.546A3.2 3.2 0 0 0 8.64 8.943l-.153-.091-.013-.008c-.594-.341-.785-1.049-.446-1.631l.244-.418a1.22 1.22 0 0 1 1.672-.44l.03.018.168.088-.03-.018a3.24 3.24 0 0 0 3.213 0h.002l.477-.273.002-.002a3.2 3.2 0 0 0 1.611-2.77V3.2c0-.67.53-1.199 1.22-1.199h.489a1 1 0 0 0 1-1 1 1 0 0 0-1-1z"/></svg>