<svg xmlns="http://www.w3.org/2000/svg" xml:space="preserve" width="24" height="24" viewBox="0 0 24 24"><path d="M8 3a4.24 4.24 0 0 0-3.79 2.342l-3.105 6.21-.01.036a1 1 0 0 0-.056.215 1 1 0 0 0-.033.168L1 12v6c0 1.645 1.355 3 3 3h16c1.645 0 3-1.355 3-3v-6.004a1 1 0 0 0-.07-.348l-.018-.048-.018-.047-3.105-6.211A4.24 4.24 0 0 0 16 3Zm0 2h8c.85 0 1.62.477 2 1.236L20.383 11H3.617L6 6.236A2.23 2.23 0 0 1 8 5zm-5 8h18v5c0 .564-.436 1-1 1H4c-.564 0-1-.436-1-1zm11 2a1 1 0 0 0-1 1 1 1 0 0 0 1 1 1 1 0 0 0 1-1 1 1 0 0 0-1-1zm4 0a1 1 0 0 0-1 1 1 1 0 0 0 1 1 1 1 0 0 0 1-1 1 1 0 0 0-1-1z"/></svg>