<svg xmlns="http://www.w3.org/2000/svg" xml:space="preserve" width="24" height="24" viewBox="0 0 24 24"><path d="M19.852 1.154c-.77 0-1.54.292-2.122.873l-2.84 2.84a3.015 3.015 0 0 0-4.242 0 3.015 3.015 0 0 0 0 4.242l-7.777 7.778a1 1 0 0 0-.293.705l-.008 2.422-1.123 1.125a1 1 0 0 0 0 1.414 1 1 0 0 0 1.414 0l1.125-1.123 2.422-.008a1 1 0 0 0 .705-.293l7.777-7.778a3.015 3.015 0 0 0 4.243 0 3.015 3.015 0 0 0 0-4.242l2.84-2.84a3.015 3.015 0 0 0 0-4.242 3 3 0 0 0-2.122-.873zm0 1.989a1 1 0 0 1 .707.298.985.985 0 0 1 0 1.414l-3.547 3.547a1 1 0 0 0 0 1.414l.707.707a.985.985 0 0 1 0 1.414.985.985 0 0 1-1.414 0l-.707-.707-2.828-2.828-.708-.707a.985.985 0 0 1 0-1.414.985.985 0 0 1 1.415 0l.707.707a1 1 0 0 0 1.414 0l3.547-3.547a1 1 0 0 1 .707-.298zm-7.79 7.38 1.415 1.414-7.487 7.487-1.418.004.004-1.418z"/></svg>