<svg xmlns="http://www.w3.org/2000/svg" width="24" height="24" viewBox="0 0 24 24"><path d="M20.082 1.621a3.6 3.6 0 0 0-1.064.133c-.902.246-1.787.785-2.57 1.559l-.038.035L12.957 6.8l-6.95-2.319a2.62 2.62 0 0 0-2.679.633l-.707.707c-.789.789-.704 2.134.176 2.819l4.68 3.64-1.813 1.813-3.238.648c-.897.18-1.104 1.368-.32 1.838l3.322 1.992 1.992 3.323c.47.783 1.659.576 1.838-.32l.648-3.24 1.813-1.812 3.64 4.68c.685.88 2.03.965 2.819.176l.707-.707c.7-.7.945-1.741.633-2.68l-2.319-6.949 3.453-3.453c.793-.793 1.345-1.692 1.594-2.608.25-.915.192-1.97-.533-2.695-.453-.453-1.035-.646-1.631-.666zm-.22 2c.268-.027.395.038.437.08.056.056.152.264.017.756-.134.492-.503 1.145-1.078 1.719l-3.888 3.888a1 1 0 0 0-.243 1.024l2.512 7.537a.61.61 0 0 1-.148.633l-.614.613-4.253-5.469a1 1 0 0 0-1.499-.093l-2.828 2.828a1 1 0 0 0-.273.51l-.2 1-.79-1.319a1 1 0 0 0-.342-.342l-1.318-.79 1-.2a1 1 0 0 0 .51-.273l2.827-2.828a1 1 0 0 0-.093-1.499l-5.47-4.253.614-.614a.61.61 0 0 1 .633-.148l7.537 2.512a1 1 0 0 0 1.024-.243l3.888-3.888c.574-.575 1.227-.944 1.719-1.078q.184-.05.318-.063z"/></svg>