<svg xmlns="http://www.w3.org/2000/svg" xml:space="preserve" width="24" height="24" viewBox="0 0 24 24"><path d="M4 4C2.355 4 1 5.355 1 7v1a1 1 0 0 0 1 1c.564 0 1 .436 1 1s-.436 1-1 1a1 1 0 0 0-1 1v5c0 1.645 1.355 3 3 3h16c1.645 0 3-1.355 3-3v-5a1 1 0 0 0-1-1c-.564 0-1-.436-1-1s.436-1 1-1a1 1 0 0 0 1-1V7c0-1.645-1.355-3-3-3Zm0 2h16c.564 0 1 .436 1 1v.416c-1.107.443-2 1.327-2 2.584s.893 2.14 2 2.584V14H3v-1.416c1.107-.443 2-1.327 2-2.584s-.893-2.14-2-2.584V7c0-.564.436-1 1-1Zm4 2a1 1 0 0 0-1 1v2a1 1 0 0 0 1 1 1 1 0 0 0 1-1V9a1 1 0 0 0-1-1Zm4 0a1 1 0 0 0-1 1v2a1 1 0 0 0 1 1 1 1 0 0 0 1-1V9a1 1 0 0 0-1-1Zm4 0a1 1 0 0 0-1 1v2a1 1 0 0 0 1 1 1 1 0 0 0 1-1V9a1 1 0 0 0-1-1ZM3 16h2v2H4c-.564 0-1-.436-1-1Zm4 0h2v2H7Zm4 0h2v2h-2zm4 0h2v2h-2zm4 0h2v1c0 .564-.436 1-1 1h-1z"/></svg>