<svg xmlns="http://www.w3.org/2000/svg" xml:space="preserve" width="24" height="24" viewBox="0 0 24 24"><path d="M2 1a1 1 0 0 0-.707 1.707l4.646 4.647L11.586 13 13 14.414l5.646 5.647 2.647 2.646a1 1 0 0 0 1.414-1.414l-2.873-2.873A8.95 8.95 0 0 0 21 14c0-4.959-4.041-9-9-9a8.96 8.96 0 0 0-4.42 1.166L2.707 1.293A1 1 0 0 0 2 1zm8 0a1 1 0 0 0 0 2h4a1 1 0 0 0 0-2zM4.62 8.861A8.95 8.95 0 0 0 3 14c0 4.959 4.041 9 9 9 1.908 0 3.68-.6 5.139-1.62zM15 10a1 1 0 0 1 .707 1.707L14.414 13 13 11.586l1.293-1.293A1 1 0 0 1 15 10z"/></svg>