<svg xmlns="http://www.w3.org/2000/svg" width="24" height="24" viewBox="0 0 24 24"><path d="M12.945 23.838a1 1 0 0 0 1.387-.278 1 1 0 0 0-.277-1.387l-1.752-1.168 1.752-1.167a1 1 0 0 0 0-1.665l-1.752-1.168 1.752-1.167a1 1 0 0 0 0-1.665l-1.752-1.168 1.752-1.167a1 1 0 0 0 0-1.665l-1.752-1.168 1.752-1.167a1 1 0 0 0 0-1.665l-1.752-1.168 1.752-1.167a1 1 0 0 0 .002-1.663l-3-2.011A1 1 0 0 0 9.67.437a1 1 0 0 0 .273 1.387l1.758 1.18-1.756 1.17a1 1 0 0 0 0 1.664l1.752 1.167-1.752 1.168a1 1 0 0 0 0 1.665l1.752 1.167-1.752 1.168a1 1 0 0 0 0 1.665l1.752 1.167-1.752 1.168a1 1 0 0 0 0 1.665l1.752 1.167-1.752 1.168a1 1 0 0 0 0 1.665z"/></svg>