<svg xmlns="http://www.w3.org/2000/svg" width="24" height="24" viewBox="0 0 24 24"><path d="M18 0v24h-6a1 1 0 0 0 1-1v-1c0-1.645-1.355-3-3-3H9c-.417 0-.602-.12-.752-.289A1.1 1.1 0 0 1 8 18c0-.278.098-.542.248-.71.15-.17.335-.29.752-.29h4c.917 0 1.731-.38 2.248-.96A3.05 3.05 0 0 0 16 14a3.05 3.05 0 0 0-.752-2.039C14.731 11.38 13.917 11 13 11H7c-.417 0-.602-.12-.752-.289A1.1 1.1 0 0 1 6 10c0-.278.098-.542.248-.71.15-.17.335-.29.752-.29h4c.917 0 1.731-.38 2.248-.96A3.05 3.05 0 0 0 14 6a3.05 3.05 0 0 0-.752-2.039C12.731 3.38 11.917 3 11 3H8c-.564 0-1-.436-1-1V1a1 1 0 0 0-1-1Z"/></svg>