<svg xmlns="http://www.w3.org/2000/svg" xml:space="preserve" width="24" height="24" viewBox="0 0 24 24"><path d="M12 16.996a1 1 0 0 0-1 1 1 1 0 0 0 1 1 1 1 0 0 0 1-1 1 1 0 0 0-1-1zm0-11.992c-3.33 0-6.66 1.266-9.193 3.8a1 1 0 0 0 0 1.415 1 1 0 0 0 1.416 0 10.983 10.983 0 0 1 15.554 0 1 1 0 0 0 1.416 0 1 1 0 0 0 0-1.414A12.96 12.96 0 0 0 12 5.004Zm0 4a8.97 8.97 0 0 0-6.363 2.629 1 1 0 0 0 0 1.414 1 1 0 0 0 1.414 0 6.984 6.984 0 0 1 9.898 0 1 1 0 0 0 1.414 0 1 1 0 0 0 0-1.414A8.97 8.97 0 0 0 12 9.003Zm0 4a4.98 4.98 0 0 0-3.535 1.457 1 1 0 0 0 0 1.414 1 1 0 0 0 1.414 0 2.984 2.984 0 0 1 4.242 0 1 1 0 0 0 1.414 0 1 1 0 0 0 0-1.414A4.98 4.98 0 0 0 12 13.004Z"/></svg>