<svg xmlns="http://www.w3.org/2000/svg" width="50" height="50" viewBox="0 0 50 50"><path d="M34.154 20.578c-1.02 0-1.845.86-1.845 1.922v6.809c0 1.061.826 1.921 1.845 1.921S36 30.37 36 29.31V22.5c0-1.062-.826-1.922-1.846-1.922zM15.846 20.578c-1.02 0-1.846.86-1.846 1.922v6.809c0 1.061.826 1.921 1.846 1.921s1.845-.86 1.845-1.921V22.5c0-1.062-.826-1.922-1.845-1.922zM18 20.996v10.715c0 .973.757 1.762 1.691 1.762h.848v3.605c0 1.062.826 1.922 1.846 1.922s1.845-.86 1.845-1.922v-3.605h1.54v3.605c0 1.062.826 1.922 1.845 1.922s1.846-.86 1.846-1.922v-3.605h.848c.934 0 1.691-.789 1.691-1.762V20.996ZM20.604 12.002a.5.5 0 0 0-.19.062.534.534 0 0 0-.195.71l1.105 2.078C19.33 16.037 18 18.158 18 20.578v.14h14v-.13999999999999999c0-1.255-.358-2.43-.98-3.435l-.024-.038a6.9 6.9 0 0 0-2.32-2.253l1.105-2.079a.534.534 0 0 0-.195-.709.49.49 0 0 0-.68.204l-1.133 2.13A7.2 7.2 0 0 0 25 13.85c-.985 0-1.923.196-2.773.548l-1.133-2.13a.495.495 0 0 0-.49-.266zm1.166 4.97c.17 0 .306.144.306.321a.315.315 0 0 1-.306.322.317.317 0 0 1-.31-.322c0-.177.14-.32.31-.32zm6.46 0c.17 0 .31.144.31.321a.317.317 0 0 1-.31.322.315.315 0 0 1-.306-.322c0-.177.137-.32.306-.32z"/><path d="M25 0C11.193 0 0 11.193 0 25s11.193 25 25 25 25-11.193 25-25S38.807 0 25 0Zm0 3c12.15 0 22 9.85 22 22s-9.85 22-22 22S3 37.15 3 25 12.85 3 25 3Z"/></svg>