<svg xmlns="http://www.w3.org/2000/svg" width="50" height="50" viewBox="0 0 50 50"><path d="M25 0C11.193 0 0 11.193 0 25s11.193 25 25 25 25-11.193 25-25S38.807 0 25 0Zm0 3c12.15 0 22 9.85 22 22s-9.85 22-22 22c-.128 0-.254-.008-.38-.01-.08.001-.156.01-.235.01l.03-.016a21.9 21.9 0 0 1-12.063-3.99q.004.03.01.063C10.033 41.33 9.3 40.55 9.093 40.189A21.92 21.92 0 0 1 3 25C3 12.85 12.85 3 25 3Zm11.004 11.682h2.24v5.23h3.994q.443 1.07.762 2.197h-4.756v5.28h-2.24v-5.28h-5.23v-2.197h5.23z"/><path d="M23.74 47.817a20 20 0 0 0 2.97-.252c1.94-1.641 3.813-4.608 3.813-6.739 0-3.23-1.87-4.828-3.941-6.545l-1.684-1.314c-.522-.42-1.212-.993-1.212-2.02 0-1.026.69-1.681 1.314-2.287 1.954-1.548 3.924-3.182 3.924-6.648 0-3.565-2.24-5.438-3.319-6.328h2.897l3-1.684H21.85c-2.527 0-5.71.375-8.39 2.574-2.004 1.732-2.997 4.125-2.997 6.28 0 3.651 2.812 7.353 7.781 7.353.472 0 .978-.05 1.5-.1-.236.556-.473 1.026-.473 1.817 0 1.464.76 2.356 1.416 3.197-2.122.135-6.048.37-8.962 2.154-1.292.764-2.163 1.693-2.725 2.637.034 0-.543.602-.527.599.042-.02.06-.01 0 0-.044.021.156.217.262.403.991 1.037 2.235 1.827 3.412 2.656-.067-.32.101-1.226.101-1.566 0-3.332 2.998-4.458 4.025-4.828 1.971-.657 4.497-.742 4.918-.742.472 0 .708.001 1.079.035 3.57 2.54 5.105 3.801 5.105 6.191 0 1.887-1.892 4.285-3.84 5.151q.102.004.205.006zM18.9 15.545c3.891 0 5.897 5.238 5.897 8.621 0 .841-.084 2.339-1.162 3.416-.758.74-2.022 1.313-3.184 1.313-4.043 0-5.861-5.2-5.861-8.346 0-1.212.235-2.474 1.027-3.457.758-.938 2.07-1.547 3.283-1.547z"/></svg>