<svg xmlns="http://www.w3.org/2000/svg" width="50" height="50" viewBox="0 0 50 50"><path d="M25 0C11.193 0 0 11.193 0 25s11.193 25 25 25 25-11.193 25-25S38.807 0 25 0Zm0 3c12.15 0 22 9.85 22 22s-9.85 22-22 22S3 37.15 3 25 12.85 3 25 3Z"/><path d="M25 9.951c-8.05 0-14.578 6.74-14.578 15.049 0 8.31 6.528 15.049 14.578 15.049S39.578 33.309 39.578 25c0-8.31-6.528-15.049-14.578-15.049Zm0 1.291c3.477 0 6.642 1.375 9.016 3.627-1.163-.032-2.323.682-2.371 2.317-.098 3.304 3.826 4.006 1.71 10.652l-1.748 5.498-4.765-14.488c-.074-.225.012-.352.28-.352h1.347c.07 0 .127-.063.127-.139v-.822c0-.075-.057-.142-.127-.139q-3.826.174-7.608 0c-.07-.003-.127.064-.127.14v.821c0 .076.057.14.127.14h1.354c.301 0 .386.101.457.302l1.959 5.527-2.945 9.18-4.842-14.719c-.06-.184.013-.29.185-.29h1.543c.07 0 .127-.064.127-.14v-.822c0-.075-.057-.142-.127-.139-1.619.09-3.244.107-4.758.124 2.376-3.78 6.498-6.278 11.186-6.278Zm11.723 7.207A14.04 14.04 0 0 1 38.328 25c0 5.204-2.801 9.735-6.932 12.072l4.159-12.154c.643-1.881 1.24-4.422 1.168-6.469zm-23.854.846 6.428 18.143C14.79 35.23 11.672 30.49 11.672 25c0-2.035.428-3.967 1.197-5.705zM25.23 26.02l4.233 11.947a12.9 12.9 0 0 1-4.463.79c-1.348 0-2.648-.207-3.875-.591z"/></svg>