<svg xmlns="http://www.w3.org/2000/svg" viewBox="0 0 128 128"><path d="M64 0C12.383 0 0 12.383 0 64s12.383 64 64 64 64-12.383 64-64S115.617 0 64 0zm0 19.813c8.212 0 14.728 4.17 18.117 11.86l20.074 45.622c.912 2.216 1.696 5.084 1.696 7.56 0 11.34-7.952 19.291-19.293 19.291-3.862 0-6.93-.986-10.035-1.984-3.182-1.022-6.403-2.057-10.559-2.057-4.108 0-7.407 1.046-10.652 2.073-3.138.993-6.226 1.968-9.942 1.968-11.34 0-19.293-7.95-19.293-19.29 0-2.478.784-5.345 1.696-7.561l20.074-45.621C49.27 23.984 55.788 19.813 64 19.813zm0 19.814L44.188 84.465C50.053 81.727 56.83 80.424 64 80.424c6.909 0 13.948 1.304 19.553 4.04z"/></svg>