<svg xmlns="http://www.w3.org/2000/svg" width="128" height="128" viewBox="0 0 128 128"><path d="M64.045.41a7.73 7.73 0 0 0-5.428 2.262L2.676 58.566a7.67 7.67 0 0 0 0 10.868l55.941 55.894a7.684 7.684 0 0 0 10.871 0l23.457-23.437a6.89 6.89 0 0 0 0-9.746 6.9 6.9 0 0 0-9.754 0l-17.78 17.765c-.188.188-.4.328-.624.422-.671.281-1.45.14-2.01-.422L18.102 65.277c-.747-.75-.747-1.886 0-2.632l44.675-44.637c.746-.746 1.883-.746 2.633 0l17.781 17.765a6.9 6.9 0 0 0 9.754 0 6.89 6.89 0 0 0 0-9.746l-9.914-9.906-.002-.002L69.492 2.594A7.72 7.72 0 0 0 64.045.41zm39.805 39.037a6.91 6.91 0 0 0-5.65 1.983 6.884 6.884 0 0 0 0 9.746l11.788 11.777a1.826 1.826 0 0 1 0 2.629L98.36 77.203a6.88 6.88 0 0 0 0 9.742 6.9 6.9 0 0 0 9.754 0l17.301-17.285a7.667 7.667 0 0 0 0-10.863l-17.453-17.379a6.9 6.9 0 0 0-4.111-1.97zm-39.518 9.74c-8.34 0-15.105 6.758-15.105 15.094 0 8.332 6.765 15.09 15.105 15.09 8.344 0 15.106-6.758 15.106-15.09 0-8.336-6.762-15.094-15.106-15.094z"/></svg>