<svg xmlns="http://www.w3.org/2000/svg" viewBox="0 0 128 128"><path d="M13.516 36.266a7.14 7.14 0 0 0-5.094 2.156l-.01.004a7.4 7.4 0 0 0-2.111 5.183 7.38 7.38 0 0 0 2.111 5.184v.012h.01A7.26 7.26 0 0 0 12.02 50.8v3.91a9.16 9.16 0 0 0-5.03 2.644h-.01a9.47 9.47 0 0 0-2.71 6.641 9.46 9.46 0 0 0 2.711 6.64l.01.012a9.1 9.1 0 0 0 5.03 2.63v3.925a7.14 7.14 0 0 0-3.598 1.992h-.01v.008a7.37 7.37 0 0 0-2.111 5.188 7.36 7.36 0 0 0 2.111 5.171v.024h.008a7.16 7.16 0 0 0 5.094 2.148c1.988 0 3.79-.824 5.101-2.148l.008-.023a7.36 7.36 0 0 0 2.11-5.172 7.38 7.38 0 0 0-2.11-5.188l-.008-.008a7.14 7.14 0 0 0-3.601-1.992v-3.926a9.1 9.1 0 0 0 5.03-2.629l.013-.011a9 9 0 0 0 .609-.68l3.34 1.961a7.34 7.34 0 0 0-.11 4.172 7.3 7.3 0 0 0 3.364 4.453v.016a7.16 7.16 0 0 0 5.476.734 7.3 7.3 0 0 0 4.313-3.32l.004.011.062-.125a7.45 7.45 0 0 0 .723-5.558 7.3 7.3 0 0 0-3.254-4.403v-.003l-.11-.055a7 7 0 0 0-5.476-.738 7.1 7.1 0 0 0-3.496 2.183l-3.332-1.957a9.6 9.6 0 0 0 0-6.652l3.332-1.961a7.2 7.2 0 0 0 3.496 2.18 7.13 7.13 0 0 0 4.973-.461h.047l.457-.274a7.28 7.28 0 0 0 3.363-4.457 7.46 7.46 0 0 0-.723-5.566v-.004a7.24 7.24 0 0 0-4.383-3.426 7.08 7.08 0 0 0-5.418.707l-.054.04a7.28 7.28 0 0 0-3.364 4.448 7.37 7.37 0 0 0 .11 4.18l-3.34 1.965a10 10 0 0 0-.61-.692h-.011a9.16 9.16 0 0 0-5.03-2.644V50.8a7.26 7.26 0 0 0 3.6-1.996l.008-.012a7.38 7.38 0 0 0 2.111-5.184 7.4 7.4 0 0 0-2.111-5.183h-.008v-.004c-1.312-1.332-3.111-2.156-5.1-2.156zm-.002 3.941a3.3 3.3 0 0 1 2.37.996h.009c.602.61.972 1.465.972 2.406a3.4 3.4 0 0 1-.972 2.403l-.008.015a3.3 3.3 0 0 1-2.371.989 3.26 3.26 0 0 1-2.356-.989l-.015-.015a3.4 3.4 0 0 1-.973-2.403 3.42 3.42 0 0 1 .973-2.406h.015a3.25 3.25 0 0 1 2.356-.996zm16.914 10.22a3.3 3.3 0 0 1 1.308.089 3.37 3.37 0 0 1 2.008 1.547l.027.039a3.47 3.47 0 0 1 .329 2.59 3.4 3.4 0 0 1-1.52 2.042l-.043.02a3.22 3.22 0 0 1-2.535.332 3.3 3.3 0 0 1-2.02-1.555l-.015-.02a3.45 3.45 0 0 1-.336-2.585 3.36 3.36 0 0 1 1.562-2.07h-.004a3.3 3.3 0 0 1 1.239-.428zm59.676 2.42c-2.672.032-6.204.313-6.204 5.036v.894h-1.93v2.926h1.93v12.965h3.73V61.703h2.474v-2.926H87.63V58c0-2.234 1.535-2.234 2.473-2.234zm-41.516.403v21.418h3.726v-7.934l5.602 7.934h4.27l-6.516-8.883 6.488-7.008H57.69l-5.375 6.051V53.25zm44.053 0v21.418h3.724v-7.934l5.602 7.934h4.265l-6.511-8.883 6.484-7.008h-4.465l-5.375 6.051V53.25zm-21.948 5.04c-4.379 0-7.933 3.413-7.933 8.417 0 4.484 2.93 8.45 7.933 8.45 2.192 0 4.27-.927 5.262-2.774v2.285h3.727v-15.89h-3.727v2.32c-.684-1.278-2.418-2.809-5.262-2.809zm44.051 0c-4.379 0-7.933 3.413-7.933 8.417 0 4.484 2.925 8.45 7.933 8.45 2.192 0 4.266-.927 5.262-2.774v2.285h3.726v-15.89h-3.726v2.32c-.684-1.278-2.418-2.809-5.262-2.809zm-101.23.773a4.8 4.8 0 0 1 3.43 1.449 4.94 4.94 0 0 1 1.413 3.484 5 5 0 0 1-1.414 3.496 4.805 4.805 0 0 1-6.855 0 5 5 0 0 1-1.41-3.496 4.96 4.96 0 0 1 1.41-3.484 4.8 4.8 0 0 1 3.426-1.45zm57.695 2.753c2.247 0 3.696 1.305 4.348 2.805a5 5 0 0 1 .43 2.234c-.059.777-.228 1.527-.598 2.227-.711 1.445-2.078 2.547-4.153 2.547-3.36 0-4.75-2.867-4.75-4.836v-.027c0-2.461 1.707-4.95 4.723-4.95zm44.047 0c2.246 0 3.696 1.305 4.348 2.805a5 5 0 0 1 .43 2.234c-.055.777-.228 1.527-.598 2.227-.711 1.445-2.079 2.547-4.153 2.547-3.355 0-4.75-2.867-4.75-4.836v-.027c0-2.461 1.71-4.95 4.723-4.95zm-83.98 8.996a3.3 3.3 0 0 1 1.214.399l.047.031a3.36 3.36 0 0 1 1.563 2.074 3.43 3.43 0 0 1-.266 2.465l-.063.117a3.3 3.3 0 0 1-2.035 1.582 3.3 3.3 0 0 1-2.543-.332h-.004a3.44 3.44 0 0 1-1.222-4.656 3.28 3.28 0 0 1 2.035-1.586 3.3 3.3 0 0 1 1.273-.094zM13.513 80.98a3.28 3.28 0 0 1 2.37.997h.009c.602.613.972 1.464.972 2.414a3.4 3.4 0 0 1-.972 2.394l-.008.016c-.6.605-1.438.992-2.371.992a3.3 3.3 0 0 1-2.356-.992l-.015-.016a3.4 3.4 0 0 1-.973-2.394 3.43 3.43 0 0 1 .973-2.414h.015a3.23 3.23 0 0 1 2.356-.997z"/></svg>