<svg xmlns="http://www.w3.org/2000/svg" viewBox="0 0 128 128"><path d="M63.346 10.896a3.17 3.17 0 0 0-2.744 1.586L17.967 86.324a3.09 3.09 0 0 0 0 3.133c.567.98 1.612 1.543 2.744 1.543h85.27c1.131 0 2.174-.563 2.742-1.543a3.09 3.09 0 0 0 0-3.133L66.09 12.482a3.17 3.17 0 0 0-2.744-1.586zm-.006 29.907c6.102 0 13.66 1.604 13.66 10.595v20.688l3.967-.78-1.24-2.993 10.218 4.498-8.347 7.552.113-3.2-12.303 2.173-.558-.318.16-4.018h-.323s-3.37 5.379-10.835 5.379c-5.538 0-10.756-2.26-10.756-11.246C47.096 60.06 53.916 57 61.063 57H69v-3.836c0-3.612-2.645-5.7-7.14-5.7-5.059 0-11.23.804-11.23.804l-.63-.563v-6.101s6.674-.801 13.34-.801zM63.15 63c-5.463 0-8.27 1.144-8.27 5.479 0 4.173 3.125 5.027 5.934 5.027 2.65 0 5.188-.754 8.188-4.045V63zm-1.556 32.955v16.815h2.47V95.955zm38.697 2.293v2.549H99.02v1.96h1.273v6.802c0 2.27 1.198 3.466 3.365 3.466 1.348 0 2.242-.255 2.242-.255v-1.782l-.181-.177s-.74.101-1.578.101c-.868 0-1.377-.382-1.377-1.353v-6.801h2.879v-1.961h-2.88v-2.549zm-93.725 2.291c-2.115 0-4.154.256-4.154.256v1.937l.18.178s1.935-.256 3.54-.256c1.427 0 2.243.665 2.243 1.81v1.147H5.902c-2.268 0-4.433.969-4.433 3.848 0 2.855 1.657 3.566 3.416 3.566 2.369 0 3.437-1.783 3.437-1.783h.102l-.051 1.35.18.178h2.267v-8.868c0-2.85-2.318-3.363-4.254-3.363zm85.829 0c-2.114 0-4.153.256-4.153.256v1.937l.178.178s1.937-.256 3.54-.256c1.428 0 2.241.665 2.241 1.81v1.147h-2.469c-2.268 0-4.433.969-4.433 3.848 0 2.855 1.656 3.566 3.414 3.566 2.369 0 3.437-1.783 3.437-1.783h.106l-.055 1.35.18.178h2.27v-8.868c0-2.85-2.321-3.363-4.256-3.363zm-72.174.004c-2.37 0-3.414 1.783-3.414 1.783h-.104l.053-1.351-.178-.178h-2.293v16.307h2.47v-4.18c.664.05 1.323.101 2.19.101 2.115 0 4.563-.838 4.563-3.693v-5.195c0-2.854-1.35-3.594-3.287-3.594zm12.355 0c-2.368 0-3.414 1.783-3.414 1.783h-.101l.05-1.351-.177-.178H26.64v16.307h2.47v-4.18a27 27 0 0 0 2.192.101c2.115 0 4.56-.838 4.56-3.693v-5.195c0-2.854-1.349-3.594-3.287-3.594zm10.6 0c-2.116 0-4.51.687-4.51 3.539v5.428c0 2.854 2.394 3.515 4.51 3.515 2.114 0 3.82-.255 3.82-.255v-2.012l-.178-.18s-1.451.258-3.058.258c-1.426 0-2.625-.203-2.625-2.04v-4c0-1.832 1.199-2.038 2.625-2.038 1.608 0 3.058.256 3.058.256l.178-.178v-2.04s-1.706-.253-3.82-.253zm10.877 0c-2.267 0-4.69.816-4.69 3.797v5.17c0 2.854 2.397 3.515 4.51 3.515 2.116 0 3.975-.255 3.975-.255v-2.012l-.176-.18s-1.607.258-3.211.258c-1.427 0-2.623-.203-2.623-2.04v-1.245h6.394l.252-.256c.024-.153.23-1.655.23-2.955 0-3.058-2.395-3.797-4.661-3.797zm17.806 0c-2.268 0-4.687.816-4.687 3.797v5.17c0 2.854 2.394 3.515 4.51 3.515s3.974-.255 3.974-.255v-2.012l-.177-.18s-1.606.258-3.211.258c-1.424 0-2.622-.203-2.622-2.04v-1.245h6.393l.256-.256c.025-.153.228-1.655.228-2.955 0-3.058-2.393-3.797-4.664-3.797zm13.91 0c-2.546-.152-3.998 1.783-3.843 1.783h-.104l.051-1.351-.178-.178H79.4v11.973h2.473v-8.48c1.374-1.277 2.675-1.276 3.719-1.276l.178-.178zm26.6 0c-2.269 0-4.69.816-4.69 3.797v4.916c0 2.98 2.42 3.77 4.69 3.77 2.264 0 4.664-.69 4.664-3.77v-4.916c0-3.083-2.4-3.797-4.664-3.797zm14.162 0c-2.544-.152-3.996 1.783-3.845 1.783h-.104l.053-1.351-.178-.178h-2.293v11.973h2.47v-8.48c1.379-1.277 2.676-1.276 3.72-1.276l.177-.178zm-107.05 2.113c.942 0 1.58.332 1.58 1.633v4.46c0 1.526-.919 1.958-1.989 2.062a14 14 0 0 1-2.316-.053h-.002v-6.551c.969-1.196 1.86-1.55 2.726-1.55zm12.355 0c.942 0 1.578.332 1.578 1.633v4.46c0 1.526-.916 1.958-1.986 2.062-.686.05-1.656.024-2.317-.053h-.002v-6.551c.97-1.196 1.86-1.55 2.727-1.55zm22.219 0c1.22 0 2.038.384 2.09 1.53a7 7 0 0 1-.104 1.425h-4.203v-1.453c0-1.043.916-1.502 2.217-1.502zm17.804 0c1.225 0 2.038.384 2.088 1.53a7 7 0 0 1-.1 1.425h-4.2v-1.453c0-1.043.916-1.502 2.212-1.502zm40.51 0c1.374 0 2.217.664 2.217 2.014v4.254c0 1.324-.717 1.988-2.217 1.988-1.404 0-2.217-.588-2.217-1.988v-4.254c0-1.325.711-2.014 2.217-2.014zM6.564 107.551h1.809v2.086c-.816 1.046-1.733 1.275-2.574 1.275-.891 0-1.858-.28-1.858-1.605 0-1.377.891-1.756 2.623-1.756zm85.83 0h1.807v2.086c-.815 1.046-1.73 1.275-2.572 1.275-.893 0-1.858-.28-1.858-1.605 0-1.377.893-1.756 2.624-1.756z"/></svg>