<svg xmlns="http://www.w3.org/2000/svg" viewBox="0 0 128 128"><path d="M43.572 23.55c-.939.004-1.87.075-3.41.218-16.04 1.42-29.666 12.297-34.69 27.675C4.029 55.874 3.53 59.05 3.53 64.025s.499 8.151 1.944 12.582c7.7 23.505 34.334 34.596 56.466 23.53L64 99.094l2.086 1.043c18.222 9.123 40.375 3.293 51.701-13.672 2.962-4.407 5.238-10.117 6.21-15.543.355-2.085.474-3.746.474-6.897 0-4.976-.498-8.15-1.944-12.582-7.7-23.505-34.333-34.594-56.441-23.529L64 28.957l-2.06-1.043a41.3 41.3 0 0 0-14.905-4.17c-1.576-.13-2.524-.196-3.463-.193zm-1.64 8.358c2.877-.046 6.684.142 8.373.461 2.322.45 6.8 2.203 9.523 3.744 3.721 2.085 7.939 5.995 10.522 9.739 1.398 2.037 3.27 5.876 4.336 8.933 1.517 4.265 1.517 14.217 0 18.48-1.848 5.215-4.193 9.267-7.344 12.608-3.744 3.981-7.229 6.325-12.442 8.363-3.317 1.303-5.306 1.731-9.216 1.92-4.787.237-9.1-.33-12.489-1.681-.853-.356-1.73-.663-1.99-.711-.498-.118-4.762-2.49-6.207-3.461-1.54-1.042-5.33-4.762-6.8-6.682-.735-.97-1.35-1.823-1.35-1.894s-.545-1.069-1.21-2.206c-1.16-2.014-1.943-3.648-1.753-3.648.047 0-.213-.758-.592-1.682-1.161-2.772-1.518-5.214-1.518-10.166 0-4.953.357-7.394 1.518-10.166.379-.924.639-1.681.592-1.681-.19 0 .593-1.635 1.754-3.649.664-1.137 1.209-2.133 1.209-2.205 0-.07.615-.923 1.35-1.894 1.47-1.92 5.26-5.64 6.8-6.682 1.422-.972 5.71-3.343 6.207-3.46.26-.048 1.258-.403 2.229-.782 2.156-.853 3.554-1.184 6.043-1.469.64-.07 1.495-.113 2.455-.129zm4.818 17.664c-.924 0-1.73.07-1.777.164-.048.12-.664 2.538-1.327 5.405-.688 2.867-1.776 7.393-2.392 10.07-1.185 4.905-1.897 8.127-1.897 8.553 0 .118.735.215 1.635.215h1.635l.734-3.272c.427-1.777 1.375-5.852 2.133-9.05.76-3.2 1.681-7.085 2.037-8.65.355-1.563.712-2.986.783-3.152.071-.213-.332-.283-1.564-.283zM34.451 57.63l-2.203 2.367-2.18 2.371.639.758c.355.426 1.327 1.492 2.156 2.37l1.518 1.61h4.312l-2.037-2.203c-1.114-1.184-2.039-2.322-2.039-2.465 0-.165.854-1.232 1.897-2.369 1.042-1.16 1.894-2.155 1.894-2.273 0-.095-.898-.166-1.988-.166zm16.469 0c-1.161 0-2.084.07-2.084.14 0 .072.401.522.898 1.02 1.85 1.848 3.153 3.413 3.082 3.72-.047.167-.949 1.28-2.039 2.44l-1.965 2.156h2.204l2.203-.023 2.013-2.203c1.115-1.232 2.014-2.323 2.014-2.465 0-.118-.948-1.231-2.133-2.486l-2.13-2.3z"/></svg>