<svg xmlns="http://www.w3.org/2000/svg" width="128" height="128" viewBox="0 0 128 128"><path d="M21.861 45.176c-1.578 3.828-2.531 6.332-4.29 10.046 1.079 1.13 2.403 2.446 4.548 3.93-2.309-.941-3.883-1.883-5.059-2.863-2.25 4.644-5.77 11.254-12.922 23.96 5.621-3.206 9.977-5.187 14.035-5.94a10 10 0 0 1-.265-2.38l.004-.18c.09-3.562 1.965-6.3 4.183-6.112 2.215.183 3.942 3.226 3.852 6.785a10 10 0 0 1-.227 1.914c4.016.777 8.324 2.75 13.867 5.914-1.093-1.988-2.07-3.785-3-5.492-1.468-1.125-3-2.59-6.12-4.176 2.144.55 3.683 1.187 4.878 1.898-9.468-17.445-10.238-19.761-13.484-27.304zm49.203 7.27-2.992.694.023 15.774 2.946-.527.035-7.422c.004-.778 1.136-1.973 3.027-1.934 1.805.016 2.211 1.191 2.203 1.336l.055 8.594 2.902-.508.012-9.11c.02-.878-1.941-2.73-5.09-2.742-1.5 0-2.328.336-2.75.586-.723.551-1.547 1.078-2.36 1.754.75-.953 1.38-1.613 1.997-2.101zm12.082.077-1.348.332.043 15.797 1.371-.23zm2.992.196-.953.77.793.894.953-.79zm-43.86 3.289c-1.722-.004-3.151.347-3.702.539l-.57 3.039c0 .011 2.831-.75 4.081-.703 2.067.074 2.254.78 2.22 1.734.034.059-.532-.863-2.321-.89-2.254-.04-5.438.788-5.434 4.156-.062 3.789 2.86 4.902 4.852 4.921 1.789-.03 2.625-.667 3.086-1.011.601-.621 1.293-1.25 1.953-2.004-.625 1.121-1.164 1.894-1.727 2.488v.5l2.72-.453.019-7.312c-.028-1.036.597-4.993-5.176-5.004zm9.852.187-2.882.488-.02 12.11 3.168-.606.004-6.863c0-1.023 1.477-2.219 3.328-2.2.395-.702 1.133-2.5 1.313-2.91-4.137-.007-4.188 1.176-4.91 1.762-.008-1.113 0-1.78 0-1.78zm10.032.188c-3.055-.051-6.48 1.12-6.535 6.183.027 4.453 3.289 6.196 6.55 6.23 3.489.036 4.88-2.16 4.961-2.214-.418-.356-1.976-1.883-1.976-1.883s-.973 1.371-2.864 1.387c-1.89.02-3.53-1.446-3.554-3.485-.024-2.043 1.508-3.148 3.57-3.238 1.781 0 2.813 1.14 2.813 1.14l1.945-2.23c-.031-.015-1.653-1.875-4.91-1.89zm32.379.52c-3.575-.06-4.313 2.702-4.313 2.6l-.008-2.382-1.347.273.05 11.38 1.368-.352-.02-7.293c0-1.133 1.695-2.899 4.148-2.89 2.45.007 3.004 2.05 2.989 2.292l.008 8.277 1.183-.254-.043-8.378c.02-.598-.55-3.254-4.015-3.274zm-7.891.179-1.184.52.051 11.113 1.14-.235zm15.426.086-1.434.285.043 8.383c-.02.593.547 3.25 4.016 3.27 3.57.062 4.312-2.704 4.312-2.602l.004 2.383 1.352-.27-.051-11.383-1.336.336.02 6.535c-.012 2.207-1.73 3.672-4.18 3.668-2.453-.008-2.727-2.101-2.727-2.328zm10.937.133-.949.73 3.629 4.695-3.867 5.426 1.004.735 3.632-5.036 3.754 5.157.93-.735-4.023-5.511 3.207-4.461-.985-.825-2.922 4.125zm-71.125 5.074c1.13.015 2.422.562 2.422 1.887.008 1.203-1.523 1.851-2.516 1.84-.996-.012-2.316-.774-2.324-1.946.02-1.05 1.246-1.809 2.418-1.781zm80.653 4.426v.132h.37v.985h.15v-.985h.37v-.132zm1.046 0v1.117h.145v-.953l.324.953h.137l.328-.934v.934h.145v-1.117h-.204l-.27.777-.058.176-.054-.164-.266-.79zM39.4 76.031v.129h.363v.96h.145v-.96h.363v-.129zm1.023 0v1.09h.141v-.93l.32.93h.13l.32-.914v.914h.14v-1.09h-.195l-.262.758-.058.176q-.02-.053-.055-.164l-.262-.77z"/></svg>