<svg xmlns="http://www.w3.org/2000/svg" viewBox="0 0 128 128"><path d="M56.178 6.484c-3.4 0-5.102 0-6.535.575a8 8 0 0 0-3.245 2.398c-.972 1.207-1.466 2.832-2.462 6.082L22.178 86.68a90.1 90.1 0 0 1 26.002-8.777l13.93-47.619a1.833 1.833 0 0 1 3.519-.004l14.098 47.647a90 90 0 0 1 25.89 8.765L83.961 15.555c-.988-3.254-1.484-4.883-2.457-6.09a8 8 0 0 0-3.24-2.402c-1.438-.58-3.141-.579-6.543-.579zm-11.74 81.371c-.8 2.418-.981 5.184-.981 6.954 0 0-.527 8.676 5.508 14.71a5.67 5.67 0 0 1 5.672-5.671c5.37 0 5.367 4.683 5.363 8.488v.336c0 5.773 3.527 10.719 8.543 12.805a11.6 11.6 0 0 1-1.172-5.098c0-5.508 3.23-7.555 6.988-9.938 2.99-1.894 6.31-4 8.594-8.222a15.5 15.5 0 0 0 1.875-7.41 15.6 15.6 0 0 0-.734-4.735c-3.57 3.054-10.696 5.137-18.903 5.137-10.07 0-18.515-3.137-20.754-7.356z"/></svg>