<svg xmlns="http://www.w3.org/2000/svg" viewBox="0 0 128 128"><path d="M118.377 54q-1.897 0-3.508.633-1.58.632-2.527 1.863-.916 1.233-.916 3.065 0 2.053 1.295 3.16 1.326 1.074 4.045 1.77 2.18.567 3.507 1.042 1.359.443 1.358 1.485 0 1.548-2.906 1.548-1.454 0-2.748-.347a11.4 11.4 0 0 1-2.276-.854q-.948-.505-1.36-.916l-1.704 3.319q1.642 1.042 3.76 1.642 2.116.6 4.265.6 1.864-.001 3.475-.506 1.612-.537 2.592-1.705 1.01-1.2 1.01-3.16 0-1.611-.759-2.59-.726-1.012-2.117-1.613-1.359-.6-3.222-1.075-2.118-.505-3.223-.916-1.074-.41-1.074-1.39 0-1.675 2.97-1.674 1.107 0 2.149.316 1.042.285 1.8.696.79.41 1.137.695l1.645-3.129q-1.233-.76-2.97-1.36-1.707-.6-3.698-.599zm-29.303.031q-2.021 0-3.728.727a9.3 9.3 0 0 0-2.969 1.99 8.8 8.8 0 0 0-1.959 2.844 8.4 8.4 0 0 0-.695 3.35q0 1.705.662 3.318a9.4 9.4 0 0 0 1.896 2.906 9.4 9.4 0 0 0 2.94 2.023q1.705.727 3.79.727 2.023 0 3.73-.727a9.2 9.2 0 0 0 2.937-1.959 9.3 9.3 0 0 0 1.96-2.843 8.4 8.4 0 0 0 .696-3.35 8.6 8.6 0 0 0-.664-3.287 9 9 0 0 0-1.897-2.875 8.8 8.8 0 0 0-2.906-2.053q-1.707-.79-3.793-.79zm-22.762.014-1.582 1.101V69.68l4.649-3.815h-3.067zm-56.603.082L2 71.789h4.076l1.77-4.139H14.7l1.77 4.14h4.045l-7.678-17.663zm21.574 0 7.016 8.941-6.795 8.721h4.203l4.613-6.004 4.645 6.004h4.139l-6.762-8.72 6.984-8.942h-4.14l-4.866 6.256-4.865-6.256zm32.131 2.092-4.568 3.72h2.982v12.096l1.586-1.275zm25.598 1.224q1.674.001 2.875.791a5.14 5.14 0 0 1 1.896 2.022q.664 1.263.664 2.685 0 1.359-.633 2.655a5.7 5.7 0 0 1-1.832 2.117q-1.2.822-2.939.822-1.706 0-2.938-.79a5.45 5.45 0 0 1-1.865-2.054 5.9 5.9 0 0 1-.664-2.716q0-1.359.633-2.623a5.45 5.45 0 0 1 1.832-2.086q1.233-.822 2.97-.823zm-77.723 1.328 2.496 5.561H8.7z"/></svg>