<svg xmlns="http://www.w3.org/2000/svg" viewBox="0 0 128 128"><path d="m111.82 39.85-.25.17v-.15q-9.38.769-10.65.89H99.6c0 .1-.08.16-.27.18l-.27-.12L98 41a6 6 0 0 1-1.08 0 .93.93 0 0 1-.51.2l2.65-.2H99c.83-.057 1.577-.114 1.908-.162l-.539.152h-.119a7 7 0 0 1-1.19.01 1.2 1.2 0 0 1-.65.21.9.9 0 0 1-.53-.09 15 15 0 0 1-2 .47l-.27-.1-4.36.67a1.1 1.1 0 0 0-.59-.09 7 7 0 0 0-1.16.25l-2.11.88.16.26a1.2 1.2 0 0 0 .43-.17l.75.07-.09.7a1.88 1.88 0 0 0-1.2 1.34c-1 .46-1.55.78-1.55 1v.12h.16l.28-.15.33.39v.54q0 .25-5.21 11c-3 6.9-4.6 10.67-4.75 11.35-1 .29-1.63.71-1.81 1.27 0 .18.33.3.92.34v.27l-.27.45v.54q0 .42 2.26.64c0-.09 0-.15.14-.16a8.2 8.2 0 0 1-.28 2H78a3.47 3.47 0 0 0 .88-1.73H79c.15 0 .31.16.49.52q-.28.11-2 4.45l.16.26h.16q2.05-5.2 2.58-5.75 2.7-.24 9.33-1l.28-.17a.13.13 0 0 0 .17.13h.29l.28-.17a.13.13 0 0 0 .17.13l3.35-.29c.89-.07 1.3-.34 1.27-.8 0-.12.51-.26 1.57-.41a1.3 1.3 0 0 1 .46.08c0-.08.52-.17 1.58-.26 0-.56.2-.86.52-.89v-.27a4.6 4.6 0 0 0-1 .23 6.3 6.3 0 0 1-1.33-.16 1.2 1.2 0 0 1-.43.17L94.51 69l-.28.15q0-.13-.17-.11h-.13l-.3.15c0-.08-.25-.15-.74-.21l-.3.18h-.58v-.15q4.5-.49 4.44-1.22a.26.26 0 0 1 .32.27l.88-.22v-.27l-7.18.2c0 .09 0 .15-.14.16l-.88-.07a1.06 1.06 0 0 0-.56.2l-.35-.06a10 10 0 0 0-2 .33 13 13 0 0 0-2 0l-1.61.14-.75-.08c0-.48.89-2.81 2.79-7a6.1 6.1 0 0 1 1.54-2.64 1.1 1.1 0 0 1 .46.11l1.03-.39.59.09a13.5 13.5 0 0 0 3.45-.85 1.6 1.6 0 0 1 .75.07l.88-.21 2.61-.22a17.3 17.3 0 0 0 3.62-.74v-.27c-.48 0-.74 0-.75-.23 0-.36-.38-.51-1.06-.46v-.27l.72-.21 1.88-.16v-.27h-1.16v-.29l.73-.07c.2 0 .28-.11.26-.3-1 0-1.47 0-1.48-.15q-10.23.5-10.26.19a1.2 1.2 0 0 0-.43.19l-.29-.31q2.71-5.76 3.18-5.8a1.7 1.7 0 0 1-.22.72V49h.29c.72-1.71 1.32-2.6 1.83-2.64 2.14-.19-.3-.33 4.29-1a.9.9 0 0 0 .41.11q2.7-.55 7.52-1.14v-.27l-1.71.16v-.27a.93.93 0 0 0 .51-.2v.15a1 1 0 0 0 .39-.19 1.23 1.23 0 0 1 .68.08 10 10 0 0 1 1.44-.29l1.07-.1c.26-.17.38-.32.37-.46v-.12a3.4 3.4 0 0 1-.94-.06.27.27 0 0 1 .24-.3l2-.19.91-.23c0 .1.06.14.13.14a1 1 0 0 0 .39-.19h.15a7.5 7.5 0 0 0-.4 1.09h-.26a1.14 1.14 0 0 0-.15-.48H110c-2.42 6.75-3.5 9.89-5.74 15.07-.41 1.32-.75 2.06-1.05 2.22a.21.21 0 0 0 .26.21 3.25 3.25 0 0 1-.46 1.93c-1 3-1.72 4.61-2.08 4.91l.23 1.41a.22.22 0 0 1-.22.25h-.24c0-.39-.18-.58-.43-.55h-.13a5.5 5.5 0 0 0-.72 1.72h.24a.81.81 0 0 0 .45-.75h.48l.28.1a1.5 1.5 0 0 0-.31.85l.13.22-.32.75v.12a1.5 1.5 0 0 1 .91.26A1.6 1.6 0 0 0 102 71h3.12l.9-.31a21 21 0 0 0 2.23-.07h.39l.21-.14v.12a6.1 6.1 0 0 1 1.84.07v.12h-.55v.23a.8.8 0 0 0 .44-.17c.14 0 .22.07.23.23a3.3 3.3 0 0 0-.75.17l-.24-.08c-.38.1-.3.13-.56.15l-.38-.07a.09.09 0 0 1-.09.11.2.2 0 0 0 .23.21h.39l2-.18.77-.17c0 .07 0 .1.1.09l.37-.14.7-.06c.54 0 .53-.08 1.71-.27 0-.07 0-.1.07-.11v.1a17 17 0 0 0 2.34-.45v.06c.48-.11.21-.08.34-.18 0 .08 0 .12.08.12h.34v-.25h-.84a3.6 3.6 0 0 1-.76.06l-1.71.09v-.12l1-.13h.34l.2-.14V70c.961-.079 1.553.049 4.046-.348a16 16 0 0 1-1.906.287v.23h.4l.31-.118c2.8-.31 3.13-.202 3.1-.512v-.11l-.03-.06a16 16 0 0 1-1.49.225 84 84 0 0 0 3.57-.694c.34 0 .31-.31.52-.89a.6.6 0 0 1-.33-.07 9.7 9.7 0 0 1-1.77.26c-.08 0-.15-.07-.18-.21v-.1h1a2.4 2.4 0 0 0 1-.34c0 .08-.2.13-.08.12l.13-.07h.18c.1 0 .15-.09.14-.24l-.1-.22a3 3 0 0 0-1.46.37v-.12l-.77.07c0-.23-.08-.35-.19-.34h-.4c-.47 0-.69 0-.92.2 0-.08 0-.12-.08-.12h-.45l-.26.15c0-.08 0-.12-.08-.12l-.16.14v-.12h-.77v.23l.32.08h.3a.54.54 0 0 0 .34.07l.26-.13v.1a19 19 0 0 1-2.46.47.43.43 0 0 0-.25-.1.2.2 0 0 1-.19-.21l.52-.07a3 3 0 0 0 .35.09c.42-.21.44-.29.66-.31v-.23a15 15 0 0 1-2.66.25h-.08v-.23c2.31-.28 1.54-.12 2.33-.34 0 .08 0 .12.08.12a.54.54 0 0 1 .32-.16h.16a8.5 8.5 0 0 0 2.57-.28v.1l.26-.13h.24c0-.23.34-.27.46-.28v-.25c-2.81.57-3.55.41-4.33.63v-.1a3.4 3.4 0 0 1-1 .08.5.5 0 0 0-.23.15c0-.08 0-.12-.09-.12l-2.39.39c0-.07 0-.1-.09-.09a12 12 0 0 1-2.56.46.8.8 0 0 0-.31.13c0-.07 0-.1-.13-.09l-1 .08-.68.17c0-.07 0-.1-.13-.09a5.4 5.4 0 0 1-1 .19c-.17 0 .08 0 0-.1l-.21.12h-1.16c-1.8.22-1.6.25-1.8.26h-.67a.09.09 0 0 1-.1.11c-.76-.1-1.16-.22-1.16-.36q.15-1.09.53-1.12h.13l-.11.24h.13c.24-.13.35-.25.34-.36v-.25h-.24v-.23a.84.84 0 0 1 .07-.47l.55-.89v.23h.26v-.23l-.15-.21a1 1 0 0 1 .47-.27v-.12h-.35v-.35a10 10 0 0 0 1-2.57l.25.1c.16 0 .23-.1.22-.27h-.24v-.1a.9.9 0 0 1 .09-.49 1.56 1.56 0 0 0 .52-1.22c.07 0 .11 0 .12.11.33-.19.58-.68.76-1.5a47 47 0 0 0 2.47-6.25c2.05-5.52 2-6.1 2.25-7.41h-.24a.84.84 0 0 1-.09.48 1 1 0 0 0-.39-.09v-.1a2.83 2.83 0 0 1 .61-1.71h.11l.21.8h.24a7 7 0 0 1 .19-1c0-.12-.1-.2-.29-.21l-.23.15v-1.3h-.12a.9.9 0 0 1-.32-.51l-1.33.13a1.2 1.2 0 0 0-.15-.41c0-.12.29-.24.9-.36l.27.1.25-.15c0 .08.06.12.15.11l.25-.15c0 .08.06.12.15.11h.12v-.27zm-83.99 1.39a47.8 47.8 0 0 0-12.39 3.36 47 47 0 0 1-4.78 3v.32a1.25 1.25 0 0 0 .48-.19.27.27 0 0 1 .34.26l.32-.18h.2V48a18.6 18.6 0 0 1-3.34 2.6l.18.28H8.7l-.34-.12c0 .09-.15.16-.48.19v.17l.37.41a1.4 1.4 0 0 1-.5-.1A3.17 3.17 0 0 0 5.63 53l.18.28a4.5 4.5 0 0 1 1.06-.85v.46a1.5 1.5 0 0 0-.48.19l.38.58a12.6 12.6 0 0 1 2.43-2c.44.11.67.25.68.4h.34a26 26 0 0 1 7.14-3.86v.32q-.66 1-.89 1a1 1 0 0 0 .23.59q.06.6-3.21 8.1Q6.17 75.502 1.13 83.84a1.1 1.1 0 0 0 .2.45 4.2 4.2 0 0 0 1.57-.6h.18v.32h.31l.32-.18c0 .09.11.14.33.12v.32a2.83 2.83 0 0 1-.52 1.42A7.4 7.4 0 0 0 2.48 88v.15h.31a19.6 19.6 0 0 0 3.06-4.41 49 49 0 0 0 9-3.38 8.4 8.4 0 0 0 4.74-1.63v-.17l-.78.23h-.18v-.17a7.1 7.1 0 0 0 3.17-1q4.46-3.44 6.74-4.87 4.68-3.44 6.08-6.7l.52-.12a7 7 0 0 0 .75 0c0-.08 0-.13.1-.15.7-.07.36 0 .81-.06l1.09-.251a.1.1 0 0 0-.023.039l.088-.055.016-.004h.199l-.09.06a1.1 1.1 0 0 0 .43 0l.08.34-5.34 8.49L32 75.712l-.58 1.94h.11l.58-.24-.19.75.06.22.16.2c-.07 0-.1.07-.08.15v.119l.24-.06q.53-.461.45-.84a2.2 2.2 0 0 0 .76.06v.12c-.23.06-.35.24-.37.56v.12h.13c1.94-2.12 6.69-9.35 10.5-14.27q-.18-.8 6-2.22h.13q.22 1-1 4.67a12.6 12.6 0 0 0-.71 2.44 18.7 18.7 0 0 0-.92 3.22l-1.37 4.69A43.5 43.5 0 0 0 43.74 85a1 1 0 0 1 .4 0l.21-.18a.12.12 0 0 0 .16.09l-.08-.34h.63c.19 0 .34-.28.48-.71 0-.64.1-1 .39-1.06a10.3 10.3 0 0 1 .72-2.32 10.3 10.3 0 0 1 .81-2.6c.55-2 1-3 1.21-3.06l.06.24-.4 1a51 51 0 0 1-2.12 7.35l.21.89h.13q2.6-5.59 7.48-22.14A2.89 2.89 0 0 1 55.4 60l-.19-.2v-.1a1.27 1.27 0 0 0 .78-.44c0-.08-.34-.21-1-.37l1.62-7a2.4 2.4 0 0 1 .62-.48v.35a.9.9 0 0 0-.36.16l.31.44A10 10 0 0 1 59 50.83c.34.09.5.21.52.32h.24a19.8 19.8 0 0 1 5.43-2.91v.23q-.49.741-.67.75a1 1 0 0 0 .15.45 42.5 42.5 0 0 1-2.41 6.16 167 167 0 0 1-9.44 19.55.9.9 0 0 0 .17.34 3 3 0 0 0 1.18-.46h.11v.23h.26l.23-.12q0 .1.25.08v.25a2.1 2.1 0 0 1-.4 1.06 5.3 5.3 0 0 0-.85 1.82v.12h.24a14.7 14.7 0 0 0 2.32-3.35 37.6 37.6 0 0 0 6.8-2.56 6.4 6.4 0 0 0 3.62-1.24v-.12l-.61.18h-.13v-.12a5.36 5.36 0 0 0 2.4-.77c2.25-1.73 4-3 5.12-3.7 3.6-2.62 5.27-5.13 5.07-7.55l.1-.05a14 14 0 0 0-2.35-3c0-.32.5-.79 1.59-1.42L81 52.34A7.8 7.8 0 0 0 82.28 48v-.46c-.12-1.38-1.12-2.49-3-3.34q-1.68-1.13-6-1.25a35.6 35.6 0 0 0-9.41 2.58 39 39 0 0 1-3.63 2.29v.23a.9.9 0 0 0 .36-.16.21.21 0 0 1 .26.21L61 48h.11v.1a12.8 12.8 0 0 1-2.52 2l.13.24h-.11l-.28-.1c0 .08-.11.14-.34.16v.1l.27.34a1 1 0 0 1-.39-.09 1.88 1.88 0 0 0-1.16.63l.16-.69a56 56 0 0 0 1.16-6.5L58 44a4.7 4.7 0 0 1-1.09-1 4 4 0 0 0 0-.49v-.1h-.11q-1.85 2.77-7.11 9.45-4 4.75-4.14 5.28c-1.09 1.13-1.61 1.81-1.56 2-.29.19-.41.37-.36.58a.12.12 0 0 1-.16-.09 3.17 3.17 0 0 1-2.08 1.45l-1 .22a.23.23 0 0 0-.19.28v.12l.36-.08v.1l-.82.32-1.45.34h-.76c-.11.11.61 0 .33.06l-1 .22c-.58.13-.89.08-1-.15h-.11a.54.54 0 0 1 0 .24l-.06-.23-.76.18Q35 62.29 32 59c0-.43.67-1.05 2.12-1.86l4.08-3.59q1.37-1.76 1.63-5.65l-.06-.61c-.16-1.83-1.48-3.3-4-4.44-1.47-1-4.12-1.53-7.94-1.61zm3.59 36.41v-.01a.22.22 0 0 0-.19.28v.12c.16 0 .22-.13.19-.28zm6.447-12.142-.037.021.01.022a.1.1 0 0 1 .027-.043zm74.774-24.258a6.55 6.55 0 0 1-1.57 3.27l-.52-.32a17 17 0 0 0 .77-2.22V42h.208a3.6 3.6 0 0 1 1.112-.75zm-14.202.88v.15a7 7 0 0 0-1.18.24l.01.01h-.138l.119-.29zm-1.6.08.052.03H97v.27h-.4a.27.27 0 0 1 .24-.3zm-.599.11c0 .1.1.14.27.12v.27h-.26a.9.9 0 0 1-.53-.09 1.14 1.14 0 0 1-.51.19v.02l-.66-.07v-.12a7.2 7.2 0 0 0 1.69-.32zm-6.19.77h.16l.3.12a.26.26 0 0 1-.27.3l-.01.03h-.44v-.15c0-.15.07-.25.26-.3zm-3.25.06v.27h.44v-.27zm-54.01.08q4.56.15 4.69 1.59l-.13.31zm67.53.57v.12l-.92.08v-.12zm1.74.22h.94v.15a5.3 5.3 0 0 0-1.18.24l.01.11c0-.11-.19-.19-.55-.22l-.92.26h-.71c-.16-.11-.24-.19-.25-.24h.82zm-4.91.18h.52v.15h-.52zm-20.24.36c2.3.07 3.49.48 3.56 1.2l-.11.24zm32.81.19h.13c-.18.34-.34.51-.47.52v-.35a.8.8 0 0 0 .36-.16zm-11.84.08h.52q.27 0 .28.25l-.78.07-.02-.05zm-.81.24v.12l-1.07.1v-.12zm12.37.43v.12c-.13.93-.34 1.43-.61 1.46v.59a1.32 1.32 0 0 0-.32.75h-.13l-.07-.81c.15 0 .27-.15.35-.39h.06a3.5 3.5 0 0 1 .72-1.72zm-83.77.38h.48v.44c1.46-.22 2.38-.35 2.73-.38 2.7-.23 4.11.32 4.22 1.63h.31l-.07-.77h.34A2.12 2.12 0 0 1 35 48.25a2.48 2.48 0 0 1-.69 1.59c-.21 0-.33-.13-.34-.43h-.34l-.07.93q-2.049 3.07-3 3.16c-.56.77-.9 1.16-1 1.16l.04.04a19 19 0 0 1-3.6 2.61c-.63.06-3 1-7.07 2.76a1.3 1.3 0 0 0-.63-.07v-.29a3.8 3.8 0 0 1 .79-2.22c.32-1.68.66-2.64 1-2.87l3.4-7.65q-.06-.71 2.18-1.09zm45.88.65h.37v.35q1.65-.27 2.07-.31c2-.18 3.12.23 3.21 1.24h.24v-.56h.24a1.55 1.55 0 0 1 1 1.18 1.93 1.93 0 0 1-.49 1.22c-.16 0-.25-.09-.27-.34h-.24l-.07.7c-1 1.57-1.79 2.39-2.26 2.42-.42.57-.68.86-.8.87l-.1-.04a14.3 14.3 0 0 1-2.66 2 36 36 0 0 0-5.37 2.08 1.2 1.2 0 0 0-.49-.07v-.23a2.92 2.92 0 0 1 .59-1.69c.24-1.29.51-2 .79-2.17l2.6-5.81c0-.34.52-.62 1.64-.84zM37 46.56c.3 0 .61.46.93 1.45v.29c-.16 0-.48-.48-.93-1.45zm43.09.51c.23 0 .48.34.72 1.09v.26c-.12 0-.35-.36-.72-1.12zm28.21 1.56a3.4 3.4 0 0 1-.25.93h-.13v-.35c.156-.355.283-.531.38-.58zm-17.72 1.32c-.13 0-.26.21-.38.58l-.02-.03v.15h.31a1.2 1.2 0 0 1 .09-.43zm-25.13.81h.14v.35q-.18 0-.45.5v-.23a1.08 1.08 0 0 0 .31-.62zm-7.85.21h.48v.12a1.6 1.6 0 0 0-.36.15v-.04h-.12zm-39.87.46h.16v.46c-.15 0-.34.23-.59.66v-.32c.29-.34.44-.61.42-.79zM8 51.66v.15a1.2 1.2 0 0 0-.47.19h-.17v-.29zm56.33 1.52h.13v.46h-.13zm-12.14.53h.28a5.1 5.1 0 0 1-.48 2.39l-.04.04c-.13 1.48-.65 2.32-1.57 2.53v-.12l-.82.32-.36.08a.9.9 0 0 1-.5 0l-.07-.33a49 49 0 0 1 3.56-4.91zm11.71.34h.25q0 .59-.31.61h-.14a1.26 1.26 0 0 0 .2-.61zm-47.68.57h.16l.06.61h-.16zm47.3.61v.01h.11v.12l-.21.37h-.24v-.12c.25 0 .36-.15.34-.38zm-47.85.53h.31c0 .5-.17.77-.42.79h-.16a1.46 1.46 0 0 0 .27-.77zm47.27.57h.189l-.078.59h-.112zm12.6.46h.24l.52.32a.22.22 0 0 1-.22.25 1 1 0 0 0-.51-.2l-.03-.02zm-60.4.55h.18v.15l-.29.48h-.31v-.15a.4.4 0 0 0 .42-.48zm50.24.73h.48v.23h-.48zm-51.08.71h.317l-.088.75h-.16zm36.5.03.06.22c-1.3.38-2 .6-2.17.62v.01a1 1 0 0 0-.34.21c0-.08-.19-.08-.5 0-.06-.23.84-.56 2.69-1zm22.65.12h.37c.34.17.52.32.53.44v.1a1 1 0 0 1-.91-.51zm4.23.35c.26.09.39.19.4.3l.08.94c-.11.23-.23.35-.34.36zm-6.77.02a4.2 4.2 0 0 1 3.4.89v.46c-.57 1.6-1.18 2.54-1.85 2.83l.03.03-3.1 2.5a30 30 0 0 1-3.77 2.3q-5.53 3-6.89 3.16h-.13q.17-.631 4.95-10.1a27.3 27.3 0 0 0 6.61-2zm-39.89.04h.31l.68.4a.27.27 0 0 1-.28.34l-.04-.02a1.2 1.2 0 0 0-.67-.26zm35.38.79h.48v.12h-.48zm-48.15.93v.29l-.64.06v-.29zm23.34.25.06.22h-.62l-.03.04v-.12zm8.41.2v.12a9.4 9.4 0 0 0-1.5.47v-.11a.7.7 0 0 0 .32-.21zM38 62l-.28.07.06.24.05.01.28-.07zm9.56.08.19.21a1.25 1.25 0 0 0-.58.24h-.24a7.4 7.4 0 0 1-1.06.35l-.24.06a.24.24 0 0 1-.31-.17l1.68-.43zm-19.27.1h.48c.45.21.68.4.7.57v.15a1.36 1.36 0 0 1-1.19-.67zm5.55.37.01.07c.3.12.48.25.51.37h-.24l-.22.18zm-8.93.18a5.6 5.6 0 0 1 4.49 1.15l.06.61c-.74 2.13-1.56 3.38-2.44 3.75l-.02.03-4.11 3.26a41 41 0 0 1-4.94 3q-7.3 3.999-9.07 4.17H8.7q.22-.82 6.5-13.31a35.5 35.5 0 0 0 8.71-2.58zm76.93.56-.23.15.13.22c.18 0 .26-.1.24-.26l-.01.01v-.12zm-82.18.4v.15l-.66.06v-.15zm14.73 0v.12l-.39.09v-.12zm1.89 1.05v.12l-1.42.33a2 2 0 0 0 0-.19h.08c.4-.07.6-.09 1.34-.26zm1.34.28a.22.22 0 0 1 .3.19l-.34.08a.26.26 0 0 1-.32-.19zm-.96.14.06.22c-.26.06-.07.06-.37.21h-.03a6 6 0 0 0-1.42.2v-.12l1.19-.38zm68.47.01a4.2 4.2 0 0 0-.3 1v.1c.2 0 .37-.34.54-1l.01-.02zm-25.44.63v.2c0 .18-.08.28-.29.3v-.2c0-.15.08-.25.29-.3zm-.56.54h.29a7.6 7.6 0 0 1-.55 2h-.44a8.3 8.3 0 0 1 .7-2zm46.5.42c-.18-.03.09.12-.09.13V67l.1-.07-.1.08-.2.25.39-.14v-.23l-.03-.01c.07 0 .11-.09-.07-.12zm.68.65v.23h.55c0-.15-.37-.2-.49-.2l.01-.03zm-67.185.229c-.158.763-.323 1.162-.494 1.181v-.1a1.33 1.33 0 0 1 .494-1.081zm57.436.162.16.209a.09.09 0 0 1 .068-.11l.121.22-.52-.07v-.01c0-.14 0-.22.17-.24zm-1.66.19a.28.28 0 0 1 .32.259l-.602-.01v-.1a.7.7 0 0 0 .281-.15zm.83.009h.48v.12h-.48zm-46.042.13v.23c0 .09-.34.39-1 .9l-.039-.01A22 22 0 0 0 65 71.31c-2.24.78-3.34 1.27-3.33 1.46a35 35 0 0 0-3.9 1.72 1.45 1.45 0 0 1-.64-.18 1 1 0 0 1 .54-1 2.1 2.1 0 0 1 1 .15 11 11 0 0 1 1.93-.62v-.23l-.75.07a10 10 0 0 1 2.14-1h.37v.1c-.63.06-1 .24-1.06.58a.21.21 0 0 0 .26.21c.47-.31.69-.48.69-.54q1.34-.24 7.44-3.9zm43.93.08v.1c-.07 0 .2 0 .07.12v.01a3.2 3.2 0 0 0-.789-.06v-.1zm.131 0h.39v.1h-.39zm-1.17.08c.12 0 .2.07.21.21l-1.93.17.03.01-.8.07v-.12l.73-.07.63-.16c0 .07 0 .1.13.09.75-.13.68-.17 1-.2zm-54.18.91v.1a.21.21 0 0 1-.22.27v-.12q0-.18.22-.25zm64.56.17v.23l.41.07v-.23zm-22.16.91h.24v.35c-.13 0-.22-.07-.26-.23l.02-.02zm10.02.08c.06 0 0 .06 0 .07s-.07 0 0-.07zm1.47.01v.12a1.26 1.26 0 0 0-.75.18v-.01c0-.08 0-.12-.13-.11l-.61.06v-.12h.06zM64 70.6c.16 0 .25.06.26.21a6 6 0 0 0-1.66.71h-.13v-.22l-.06-.05A2.5 2.5 0 0 0 64 70.6zm20.37.01-.03.04c0 .15-.21.32-.7.48l-.89-.07h-.29v-.27zm.85.11v.12l-.73.07v-.12zm24.09.12v.23h.07v-.23zm-2.18.6v.23zm-.42.01-3 .26-.03.02-.63-.07-.11.24v.1l3.77-.32zm-48.52 1.03h.37v.12a1.1 1.1 0 0 0-.36.14h-.24q0-.2.22-.25zM9.374 73.637c-.209.986-.426 1.554-.654 1.574v-.15a1.67 1.67 0 0 1 .654-1.424zm46.375.222L56 74c-.09.71-.31 1.08-.64 1.11l-.02-.05a1.5 1.5 0 0 0-.75-.17v-.35q0-.18.22-.25c.16 0 .25.09.27.34a4 4 0 0 1 .67-.77zm-32.49.48v.292c0 .14-.45.53-1.37 1.2l.05-.09a25.6 25.6 0 0 0-4.8 2.73q-4.42 1.53-4.38 1.92a48 48 0 0 0-5.17 2.27 1.86 1.86 0 0 1-.85-.222 1.37 1.37 0 0 1 .71-1.298 2.75 2.75 0 0 1 1.31.209 12.8 12.8 0 0 1 2.53-.83v-.32l-1 .08A13.2 13.2 0 0 1 13.1 79h.48v.15c-.83.07-1.29.32-1.39.75 0 .2.13.28.34.26.62-.39.93-.62.92-.69q1.77-.34 9.81-5.13zM8.38 75.66v.19a.27.27 0 0 1-.28.34V76q0-.27.28-.34zm7.34 1.85c.22 0 .34.07.35.26a7.2 7.2 0 0 0-2.19 1h-.16v-.33a3.17 3.17 0 0 0 2-.93zm16.43 2.25-.24.06-.21.18a.21.21 0 0 0 .29.17c.16 0 .22-.13.19-.28v-.12zm-24 .24h.48v.17a1.25 1.25 0 0 0-.48.19h-.31c0-.16.08-.28.28-.34zm-3.23 1.82.34.14c-.11.93-.4 1.41-.86 1.44h-.02a2 2 0 0 0-1-.21v-.46c0-.18.08-.3.31-.34s.33.13.34.43a7 7 0 0 1 .89-1zm39.72 1.72h.13a.21.21 0 0 1 .29.17v.12l-.48.11.06-.03a.9.9 0 0 0 0-.37z"/></svg>