<svg xmlns="http://www.w3.org/2000/svg" viewBox="0 0 128 128"><path d="M20.74 65.962c.075-1.296.727-2.441 1.707-3.25.96-.796 2.256-1.285 3.667-1.285 1.41 0 2.706.489 3.667 1.285.98.809 1.631 1.954 1.707 3.25.07 1.332-.475 2.57-1.439 3.489-.98.933-2.374 1.52-3.935 1.52s-2.96-.587-3.94-1.52c-.96-.918-1.509-2.157-1.434-3.489zm0 0"/><path d="M12.186 68.591c.012.508.178 1.492.423 2.266a11.9 11.9 0 0 0 2.643 4.469c1.264 1.367 2.821 2.465 4.619 3.246a15.2 15.2 0 0 0 6.065 1.23 15.2 15.2 0 0 0 6.065-1.254 13.7 13.7 0 0 0 4.62-3.257c1.228-1.336 2.113-2.848 2.639-4.477q.391-1.238.493-2.5a11.3 11.3 0 0 0-1.766-6.988 12.7 12.7 0 0 0-3.07-3.313h.004l-12.43-9.332c-.012-.008-.02-.02-.032-.023-.818-.614-2.189-.614-3.086 0-.905.62-1.007 1.648-.201 2.297h-.004l5.184 4.125-15.801.015h-.02c-1.308 0-2.564.84-2.81 1.899-.256 1.078.629 1.972 1.988 1.976v.008l8.01-.016L1.426 69.69a.3.3 0 0 0-.056.039c-1.347 1.008-1.786 2.687-.936 3.75.861 1.078 2.695 1.082 4.058.004l7.8-6.238s-.115.84-.107 1.347zm20.044 2.82c-1.608 1.602-3.856 2.508-6.294 2.516-2.438.004-4.686-.898-6.294-2.496a7.4 7.4 0 0 1-1.719-2.629 6.7 6.7 0 0 1-.391-2.937 6.8 6.8 0 0 1 .861-2.766 7.6 7.6 0 0 1 1.909-2.223c1.564-1.246 3.552-1.921 5.634-1.921 2.082-.004 4.07.664 5.63 1.906a7.6 7.6 0 0 1 1.913 2.215c.478.847.774 1.78.861 2.765a6.6 6.6 0 0 1-.395 2.934 7.3 7.3 0 0 1-1.715 2.637zm73.667-5.468c.122-1.313 1.158-2.14 2.738-2.14s2.616.827 2.738 2.14zm5.314 3.23c-.407.973-1.359 1.547-2.659 1.547-1.62 0-2.714-.992-2.758-2.558h9.333V67.7c0-3.918-2.355-6.125-6.575-6.125-4.093 0-6.57 2.226-6.57 5.715 0 3.507 2.516 5.73 6.57 5.73 2.438 0 4.323-.816 5.488-2.25zm-46.719-3.226c.123-1.309 1.158-2.137 2.742-2.137 1.58 0 2.612.828 2.734 2.137zm5.314 3.234c-.403.973-1.359 1.547-2.659 1.547-1.62 0-2.714-.992-2.758-2.559h9.33v-.457c0-3.925-2.352-6.129-6.572-6.129-4.097 0-6.567 2.227-6.567 5.715 0 3.508 2.513 5.727 6.567 5.727 2.434 0 4.323-.813 5.492-2.246zM56.38 59.208h3.363V72.67H56.38zm18.176 3.579h3.382v.8c1.201-1.25 2.64-1.882 4.26-1.882 1.868 0 3.283.632 4.014 1.707.612.89.652 1.96.652 3.37v5.887h-3.39v-5.171c0-2.149-.443-3.137-2.367-3.137-1.948 0-3.169 1.133-3.169 3.039v5.27h-3.382zm23.209 4.671c0 1.844-1.26 3.051-3.208 3.051s-3.209-1.168-3.209-3.031c0-1.89 1.241-3.055 3.209-3.055 1.948 0 3.208 1.188 3.208 3.035zm0-4.226c-.857-.895-2.094-1.387-3.817-1.387-3.71 0-6.246 2.238-6.246 5.594 0 3.289 2.516 5.59 6.187 5.59 1.683 0 2.916-.418 3.876-1.352v.992h3.386V58.353l-3.386.855zm-49.078 1.191c1.968 0 3.205 1.168 3.205 3.059 0 1.863-1.257 3.027-3.205 3.027s-3.204-1.207-3.204-3.05c0-1.848 1.256-3.036 3.204-3.036zm-3.204-5.215-3.386-.851v14.316h3.386v-.992c.952.934 2.189 1.348 3.876 1.348 3.67 0 6.184-2.301 6.184-5.59 0-3.356-2.537-5.594-6.247-5.594-1.723 0-2.96.492-3.813 1.39zm70.477 13.465v-9.886h3.387v.613c1.015-1.195 2.086-1.79 3.307-1.79.245 0 .55.04.952.079v2.816c-.324-.039-.687-.039-1.074-.039-1.968 0-3.185 1.27-3.185 3.426v4.781zm10.538-11.846h.126q.125.001.19-.062a.243.24 0 0 0 .063-.172c0-.082-.024-.14-.063-.172q-.064-.047-.206-.047h-.111Zm.711-.233a.394.39 0 0 1-.269.39l.427.673h-.38l-.331-.579h-.158v.579h-.332v-1.532h.458c.198 0 .348.043.442.125q.143.111.143.344Zm-1.849.296a1.295 1.28 0 0 1 .647-1.11 1.366 1.35 0 0 1 .665-.171q.361 0 .663.172.297.176.475.468.189.3.189.641 0 .346-.174.64a1.416 1.4 0 0 1-.49.47 1.285 1.27 0 0 1-.663.171 1.27 1.27 0 0 1-.665-.172 1.244 1.23 0 0 1-.473-.468 1.214 1.2 0 0 1-.174-.641Zm.222 0q0 .3.141.547c.095.156.226.289.395.39q.269.141.554.141a1.123 1.11 0 0 0 .964-.531q.141-.247.141-.547 0-.28-.157-.531a1.052 1.04 0 0 0-.395-.39 1.062 1.05 0 0 0-1.091-.017 1.113 1.1 0 0 0-.41.391q-.142.253-.142.547zm0 0"/></svg>