<svg xmlns="http://www.w3.org/2000/svg" viewBox="0 0 128 128"><path d="M53.791 9.75c-.132-.035-.24.25-.36.25H46.1c-1.61 0-3.226.096-4.827.432C22.097 14.445 7.105 29.255 3.596 48.613c-3.75 20.675 1.924 38.74 15.54 54.55 2.048 2.376 4.52 4.27 7.372 5.685 5.264 2.608 10.975.695 13.666-4.55l.224-.39c1.151 3.01 2.387 5.92 3.38 8.918.965 2.917 4.452 4.247 6.581 4.106.401-.026.897.337 1.184.119 1.907-1.445 3.41.949 5.066.949h2.688c1.898-1 3.701-1.653 4.943-3.361.152-.211.827-.269 1.252-.225 2.432.253 4.689-.315 6.73-1.68 1.709-1.143 2.779-2.745 2.999-4.81 2.16-.632 3.502-2.285 3.574-4.826.04-1.377-.086-2.93-.676-4.135-1.797-3.678-3.855-7.232-5.812-10.832l-.16-.35.382.15c2.876 1.402 5.902 2.024 9.102 1.758 2.039-.169 3.261-.822 4.287-2.39 2.525 1.783 5.365 2.627 8.459 2.408 3.079-.217 5.973-.875 7.63-3.945 2.189 0 4.431.203 6.614-.069 1.522-.189 3.055-.866 4.422-1.619 2.189-1.205 3.673-2.974 3.205-5.775 2.242-.194 4.306-.749 6.047-2.147 1.409-1.132 2.034-2.606 2.512-4.345.11-.407.193-.793.193-1.188v-3.422c0-.52-.08-1.032-.203-1.56-.56-2.396-1.733-4.17-3.955-5.317-4.161-2.147-8.578-3.303-13.092-4.334-9.566-2.186-19.235-3.563-28.973-4.705-1.127-.132-2.237-.282-3.363-.424.376-3.143 1.496-4.191 5.272-4.974.39.905.747 1.85 1.212 2.738.172.328.604.737.92.742 5.632.08 10.95-.888 15.264-4.908 3.371-3.144 4.867-7.222 5.693-11.617.3-1.598.59-3.2.827-4.809.739-5.002 3.351-9.003 6.683-12.627.163-.177.31-.368.55-.66-2.648-.822-5.265-.912-7.849-.44-9.892 1.81-17.35 7.015-21.982 16.055l-.16.17c-1.686-.426-3.383-.81-5.045-1.31-.304-.092-.545-.638-.68-1.02-2.718-7.715-7.415-13.724-15.074-16.982-2.281-.972-4.83-.826-7.254-1.465zm-4.262 20.086c3.576.029 6.394 2.895 6.39 6.502-.004 3.602-2.831 6.413-6.444 6.406a6.386 6.386 0 0 1-6.409-6.457c.032-3.575 2.942-6.478 6.463-6.451zm23.04 2.557c6.28.439 11.743 2.982 16.757 6.634 1.041.76 2.034 1.588 2.926 2.563-1.964-.421-3.922-.881-5.895-1.254-2.969-.562-5.908-.45-8.703.799-3.019 1.348-6.168 1.3-9.353 1.08 1.735 1.558 3.832 1.47 5.9 1.158 1.75-.262 3.462-.768 5.266-1.185l.096 1.021-10.45 4.71c-.817-1.955-1.453-4-1.162-6.233-.15-3.36 1.013-6.304 2.975-8.94.256-.342 1.091-.392 1.642-.353z"/></svg>