<svg xmlns="http://www.w3.org/2000/svg" viewBox="0 0 128 128"><path d="M63.748.004a38.4 38.4 0 0 0-20.791 5.7C28.294 14.726 21.41 32.386 26.097 48.95c4.693 16.565 19.818 28 37.033 27.991a38.37 38.37 0 0 0 26.033-10.156l-9.1-9.553c-10.111 9.131-25.643 8.6-35.107-1.195-9.467-9.797-9.467-25.335 0-35.127 9.465-9.797 24.996-10.326 35.108-1.2l9.097-9.554A38.43 38.43 0 0 0 63.748.004zM93.65 19.469a3.15 3.15 0 0 0-1.617.865 3.16 3.16 0 0 0-.685 3.44 3.16 3.16 0 0 0 2.923 1.947 3.15 3.15 0 0 0 3.149-3.15 3.15 3.15 0 0 0-1.945-2.92 3.15 3.15 0 0 0-1.825-.182zm4.086 10.549a3.151 3.151 0 1 0 0 6.298v.002a3.16 3.16 0 0 0 3.153-3.15 3.15 3.15 0 0 0-3.153-3.15zm-34.845.117a8.33 8.33 0 0 0-8.336 8.33 8.33 8.33 0 0 0 8.334 8.332 8.33 8.33 0 0 0 8.328-8.324c.004-4.601-3.726-8.338-8.326-8.338zm25.441.244a3.154 3.154 0 0 0-3.15 3.152 3.154 3.154 0 0 0 3.15 3.153 3.154 3.154 0 0 0 3.154-3.153 3.154 3.154 0 0 0-3.154-3.152zm-.62 9.932a3.155 3.155 0 0 0-2.3 4.302 3.16 3.16 0 0 0 2.92 1.951 3.16 3.16 0 0 0 3.154-3.152 3.155 3.155 0 0 0-1.95-2.92 3.16 3.16 0 0 0-1.823-.181zm10.958.408a3.15 3.15 0 0 0-4.111 3.076 3.157 3.157 0 0 0 3.177 3.129 3.166 3.166 0 0 0 3.123-3.178 3.15 3.15 0 0 0-2.19-3.027zm-5.557 10.777a3.15 3.15 0 0 0-2.168 3.049 3.15 3.15 0 0 0 3.145 3.154 3.155 3.155 0 0 0 3.156-3.15 3.15 3.15 0 0 0-4.133-3.053zM40.17 93.885v7.256h1.312v-3.592a3.8 3.8 0 0 1 1.405-.438c.307 0 .433.134.433.414v3.616l1.405.005v-3.75c0-.916-.344-1.535-1.239-1.535a5 5 0 0 0-1.968.5V94.09zm10.676.07c-1.84 0-2.625.754-2.625 2.049v3.191c0 1.294.77 2.053 2.625 2.053a8.8 8.8 0 0 0 2.008-.23l-.159-1.164q-.895.16-1.806.177c-.96 0-1.276-.314-1.276-1.068v-2.727c0-.754.317-1.07 1.276-1.07a11.5 11.5 0 0 1 1.806.178l.159-1.156a8.8 8.8 0 0 0-2.008-.233zm-27.164.012v7.174h1.394v-2.99h2.71v2.99l1.394.007v-7.175h-1.395v3.01h-2.709v-3.016zm22.113.023v1.24h1.35v-1.24zm-13.656 1.864a7.4 7.4 0 0 0-1.86.25l.17.99a7.6 7.6 0 0 1 1.492-.162c.863 0 1.026.203 1.026.771v.545h-1.293c-1.093 0-1.57.403-1.57 1.457 0 .923.422 1.541 1.404 1.541a3.05 3.05 0 0 0 1.61-.457l.097.352H34.3l.037-3.428c0-1.283-.502-1.86-2.2-1.86zm5.22 0c-1.543 0-2.02.5-2.02 1.501 0 1.007.153 1.322 1.475 1.627.872.201.94.284.94.678 0 .396-.068.526-.688.526a6 6 0 0 1-1.601-.229l-.194.99a6.5 6.5 0 0 0 1.86.297l.023.004c1.63 0 1.934-.566 1.934-1.63 0-1.067-.15-1.252-1.654-1.634-.762-.173-.762-.206-.762-.62 0-.316.067-.446.687-.446a10 10 0 0 1 1.48.15l.134-1.029a7.7 7.7 0 0 0-1.614-.185zm18.477 0c-1.85 0-2.348.978-2.348 2.044v1.313c0 1.057.49 2.033 2.348 2.033l.027.002c1.851 0 2.349-.978 2.317-2.035v-1.313c0-1.066-.494-2.044-2.344-2.044zm6.045 0a6.3 6.3 0 0 0-1.416.681l-.086-.57h-1.143v5.176h1.358v-3.338a11 11 0 0 1 1.394-.754zm3.861.023a2.95 2.95 0 0 0-1.707.545l-.13-.43h-1.073v7.426l1.354-.201v-2.12a7.7 7.7 0 0 0 1.435.15c1.252 0 1.783-.682 1.783-1.827v-1.738c0-1.185-.576-1.805-1.662-1.805zm-19.947.088v5.176h1.35v-5.176zm19.598.967c.493 0 .664.235.664.662v1.857c0 .47-.186.692-.676.692a6 6 0 0 1-1.195-.141l-.034-2.602a1.93 1.93 0 0 1 1.24-.468zm-9.557.03.027.02c.718 0 1.02.288.967.872v1.392c0 .588-.276.897-.994.897s-.998-.277-.998-.897v-1.392c0-.584.28-.891.998-.891zm-23.863 2.222h.97l.024.77a2.2 2.2 0 0 1-1.014.263c-.423 0-.545-.122-.545-.516 0-.399.123-.517.565-.517zm72.574 6.023-3.904.547v21.926l3.904-.004zm-73.518.842c-5.31 0-7.576 2.292-7.576 6.191v9.565c0 3.919 2.266 6.191 7.576 6.191a24 24 0 0 0 5.785-.707l-.447-3.478a31.6 31.6 0 0 1-5.21.535c-2.783 0-3.678-.959-3.678-3.223v-8.195c0-2.272.894-3.233 3.677-3.233a31 31 0 0 1 5.213.545l.445-3.484a24 24 0 0 0-5.785-.707zm14.418 5.746c-5.376 0-6.804 2.94-6.804 6.137v3.931c0 3.196 1.46 6.135 6.804 6.135 5.334 0 6.776-2.939 6.776-6.135v-3.931c0-3.197-1.403-6.137-6.776-6.137zm19.024 0a15.6 15.6 0 0 0-6.237 1.63l-.382-1.314h-2.97v15.553h3.901v-10.8a10.7 10.7 0 0 1 4.06-1.313c.885 0 1.235.402 1.235 1.238v10.887l3.906.002v-11.282c0-2.782-.925-4.601-3.513-4.601zm12.168.002c-4.435 0-5.817 1.37-5.817 4.504 0 3.003.45 3.961 4.254 4.888 2.524.608 2.713 1.093 2.713 2.053 0 1.18-.251 1.567-1.978 1.567a17.6 17.6 0 0 1-4.637-.676l-.545 2.97a18.3 18.3 0 0 0 5.375.897v-.002c4.699 0 5.637-1.848 5.625-4.863 0-3.191-.425-3.768-4.758-4.92-2.11-.544-2.209-.653-2.209-1.89 0-.96.287-1.343 1.98-1.343a26.5 26.5 0 0 1 4.282.456l.387-3.098a20.5 20.5 0 0 0-4.672-.543zm7.56.312v11.286c0 2.786.927 4.603 3.516 4.603a15.6 15.6 0 0 0 6.232-1.629l.383 1.307h2.973v-15.567h-3.9v10.809a10.8 10.8 0 0 1-4.08 1.3c-.885 0-1.237-.4-1.237-1.238v-10.87zm-38.752 3.008c2.074 0 2.873.93 2.873 2.688v4.185c0 1.756-.795 2.688-2.873 2.688s-2.877-.932-2.877-2.688v-4.185c0-1.756.797-2.688 2.877-2.688z"/></svg>