<svg xmlns="http://www.w3.org/2000/svg" viewBox="0 0 128 128"><path d="M65.635.008A63.87 63.87 0 0 0 31.05 9.486C6.659 24.49-4.8 53.88 3.004 81.434c7.799 27.556 32.959 46.574 61.6 46.566l-.002-.002a63.86 63.86 0 0 0 43.31-16.898L92.777 95.213c-16.825 15.183-42.658 14.303-58.408-1.994-15.747-16.298-15.747-42.143 0-58.44 15.75-16.296 41.583-17.177 58.408-1.992L107.912 16.9C96.057 5.994 80.937.263 65.635.008zm50.767 32.275a5.25 5.25 0 0 0-3.718 1.54 5.255 5.255 0 0 0 3.722 8.964 5.253 5.253 0 0 0 2.008-10.1 5.3 5.3 0 0 0-2.012-.404zm5.772 17.647a5.245 5.245 0 0 0-5.244 5.246 5.246 5.246 0 0 0 5.246 5.242 5.267 5.267 0 0 0 5.242-5.242 5.245 5.245 0 0 0-5.244-5.246zm-57.967.199c-7.655-.004-13.865 6.203-13.865 13.86-.004 7.655 6.201 13.863 13.857 13.863h.002C71.85 77.844 78.05 71.648 78.061 64c.008-7.656-6.198-13.866-13.854-13.871zm42.326.41a5.24 5.24 0 0 0-5.14 5.242 5.24 5.24 0 0 0 5.14 5.242 5.24 5.24 0 0 0 5.137-5.242 5.24 5.24 0 0 0-5.137-5.242zm-.422 16.434a5.25 5.25 0 0 0-4.437 7.248 5.25 5.25 0 0 0 4.86 3.24v-.002a5.252 5.252 0 0 0 2.001-10.1 5.25 5.25 0 0 0-2.424-.386zm15.98.601a5.24 5.24 0 0 0-5.198 5.283 5.24 5.24 0 0 0 5.283 5.198 5.26 5.26 0 0 0 5.197-5.282 5.24 5.24 0 0 0-5.281-5.199zm-5.97 17.924a5.243 5.243 0 0 0-5.244 5.24 5.24 5.24 0 0 0 5.234 5.244v.002a5.25 5.25 0 0 0 5.25-5.242 5.243 5.243 0 0 0-5.24-5.244z"/></svg>