<svg xmlns="http://www.w3.org/2000/svg" width="128" height="128" viewBox="0 0 128 128"><path d="M11.082 10.674c-4.449 0-8.055 3.582-8.062 8.004v89.894c.027 4.41 3.628 7.967 8.062 7.967h18.969c-9.946-10.82-12.785-25.853-16.2-41.646-4.174-19.414-8.63-37.438 2.211-53.97a52.2 52.2 0 0 1 8.723-10.25zm84.258 0c5.094 5.063 9.387 11.62 12.629 19.773l-32.7 6.864c-3.581-6.828-9.027-12.509-19.683-10.278-5.88 1.238-9.774 4.516-11.504 8.106-2.121 4.426-3.164 9.39 1.914 32.972C51.074 91.697 54.062 95.81 57.816 99c3.051 2.578 7.973 4.011 13.852 2.773 10.66-2.23 13.289-9.609 13.754-17.289l32.695-6.87c.774 16.823-4.465 29.87-13.707 38.894h12.438c4.437.004 8.043-3.559 8.07-7.973V18.678c-.008-4.426-3.621-8.008-8.07-8.004z"/></svg>