<svg xmlns="http://www.w3.org/2000/svg" viewBox="0 0 128 128"><path d="M38 1v17h14v-5h-8V6h8V1zm17 0v4.363L62.732 13H55v5h15v-3.627L63.193 6H70V1zm18 0v4.363L81.39 13H73v5h16v-3.627L81.852 6H89V1zM19.67 26l8.068 90.492 36.207 10.051 36.307-10.063L108.33 26zm16.564 17h55.598l-.268 3.334-2.683 30.154-2.352 21.893.01 1.875L64 106.55l-.018.015-22.718-6.224L39.727 83h11.14l.79 8.766L64 95.059v-.014l12.395-3.496L77.7 77H51.795l-.223-2.355-.506-5.647L50.803 66h27.885L79.7 55H37.23l-.223-2.59-.506-6.03zM64 95.059v.017l.004-.015z"/></svg>