<svg xmlns="http://www.w3.org/2000/svg" viewBox="0 0 128 128"><path d="M15.092 41.64v10.674c-1.045-.273-1.91-.363-3.045-.363C4.729 51.951 0 56.59 0 63.725c0 7.41 4.456 11.273 13.002 11.273 2.863 0 5.5-.273 9.09-.955V41.641zm11.135.038v7.181h7v-7.181zm90.5 10.181c-7.136 0-11.59 4.59-11.59 11.955 0 7.09 4.316 11.5 11.316 11.5 7.092 0 11.547-4.59 11.547-11.91 0-7.136-4.273-11.545-11.273-11.545zm-69.998.092c-3.228 0-6.184.636-9.274 2.09v5.41c2.728-1.41 5.639-2.137 8.229-2.137 1.773 0 2.408.454 2.408 1.727v1.545c-8.591.728-12.09 3-12.09 7.91 0 4.545 2.637 6.592 8.5 6.592 2.91 0 6.864-.319 10-.774V60.088c0-2.91-.183-4.273-.773-5.318-1.046-1.864-3.41-2.819-7-2.819zm22.183 0c-3.455 0-6.864.5-11 1.59v21.184h7V58.088c1.41-.41 2.273-.5 3.227-.5 2.5 0 3.41 1 3.41 3.682v13.453h7V60.996c0-3.5-.453-5.137-1.908-6.637-1.546-1.592-4.138-2.408-7.729-2.408zm27.81.043c-10.226 0-16 4.5-16 12.455 0 6.41 3.91 10.455 10.048 10.455 1.818 0 3.181-.273 4.544-.955v.137c0 4.455-1.954 6.318-6.544 6.318-2.591 0-5.045-.59-7.5-1.863l-.002-.002v6.457c2.456.954 4.818 1.363 7.546 1.363 5.364 0 9.137-1.681 11.319-5.091 1.5-2.318 2-5.135 2-11.135v-1.91c-.045-.954-.046-1.909-.092-2.864l-.047-3.818-.09-2.953v-.729c1.408.136-.305-.178 1.559.186l2.396-5.05c-3.364-.683-6.136-1-9.136-1zm-70.493.455v13.819c0 6.092-.32 8.41-1.32 10.41-.956 1.955-2.455 3.226-5.546 4.681l6.5 3.092c3.091-1.546 4.592-2.954 5.729-5.183 1.227-2.318 1.635-5 1.635-10.59V52.449zm90.408 5.047c2.68 0 4.226 2.274 4.226 6.092 0 3.863-1.591 6.09-4.273 6.09-2.727 0-4.319-2.227-4.319-6.092 0-3.862 1.592-6.09 4.366-6.09zm-103.908.092c.863 0 1.545.09 2.363.361v11.229c-1 .136-1.637.181-2.41.181-3.591 0-5.545-2.044-5.545-5.771 0-3.818 2.046-6 5.592-6zm81.722.043h.729l-.002.002v.545l.047 2.318.045 3.227c0 .954.044 1.864.044 2.681v2.41c-.908.272-1.681.454-2.636.454-3.091 0-4.819-2-4.819-5.5 0-2.455.864-4.182 2.545-5.137 1.092-.682 2.684-1.045 4.047-1zm-46.04 7.547v4.681c-1.364.228-2.32.319-3.364.319-1.91 0-2.774-.637-2.774-2 0-1.818 1.501-2.546 6.137-3z"/></svg>