<svg xmlns="http://www.w3.org/2000/svg" viewBox="0 0 128 128"><path d="M22.668 1.6C10.134 1.6 0 11.735 0 24.268v79.466C0 116.268 10.135 126.4 22.668 126.4h82.664c12.534 0 22.668-10.133 22.668-22.666V24.268C128 11.734 117.865 1.6 105.332 1.6zm5.973 32.107c6.507 0 11.947 1.172 16.213 3.52a23.4 23.4 0 0 1 9.652 9.654c2.134 4.107 3.2 8.8 3.2 14.133.052 3.733-.48 7.411-1.653 10.931a26 26 0 0 1-4.586 8.213c-1.866 2.24-4.107 4.16-6.56 5.707-2.4 1.493-5.067 2.615-7.84 3.362a32.7 32.7 0 0 1-8.213 1.066h-6.028c-2.134 0-4.16 0-5.972-.055-1.867-.053-3.254-.052-4.16-.105-.374 0-.534-.32-.534-.854V34.668c-.053-.32.213-.64.533-.695h.053a55 55 0 0 1 3.574-.106c1.6-.054 3.413-.054 5.547-.107s4.374-.053 6.774-.053zm0 10.186c-1.067 0-1.975 0-2.721.054-.747 0-1.6.053-2.508.106v35.574c.587 0 1.12 0 1.654.053.48.053 1.015.053 1.495.107.533.053 1.12.053 1.76.053 2.451.053 4.903-.373 7.25-1.227 2.133-.746 4.003-1.974 5.603-3.627a16.5 16.5 0 0 0 3.572-5.92c.854-2.56 1.28-5.28 1.28-8 .053-2.56-.372-5.12-1.225-7.52a13.9 13.9 0 0 0-9.121-8.64c-2.294-.694-4.64-1.066-7.04-1.013zm79.41 2.933h9.334c.48 0 .64.266.533.746l-11.522 41.121c-.053.213-.16.426-.32.586 0 .266-.21.375-.478.32h-9.973c-.214.055-.48-.052-.64-.212a1.8 1.8 0 0 1-.319-.64 503.33 503.34 0 0 1-2.56-11.36c-.695-3.307-1.28-6.08-1.708-8.373a443.51 443.52 0 0 0-1.12-5.815c-.268-1.6-.532-2.933-.692-4.053h-.055c-.533 2.346-1.014 4.64-1.494 6.827-.427 2.187-.96 4.428-1.492 6.668a361 361 0 0 1-1.815 7.361 700 700 0 0 1-2.185 8.744c-.107.587-.374.854-.854.854H70.72c-.267.054-.534-.054-.748-.16-.16-.16-.266-.373-.373-.586l-10.4-41.227c-.16-.48.055-.693.64-.693h10.08c.48 0 .749.159.802.533 1.067 4.693 1.972 8.746 2.666 12.16.693 3.413 1.28 6.293 1.652 8.693.373 2.4.748 4.374 1.014 5.868.267 1.492.48 2.772.64 3.732h.16a41 41 0 0 1 .374-2.508q.32-1.52.8-4c.32-1.653.692-3.572 1.172-5.812s1.015-4.8 1.655-7.787c.587-2.933 1.44-6.294 2.453-10.08 0-.214.106-.48.213-.694.053-.107.267-.158.587-.158h10.454c.32 0 .48.213.533.586a724.25 724.27 0 0 1 2.293 10.238 914 914 0 0 0 1.6 7.842c.426 2.24.799 4.212 1.013 5.812.213 1.653.48 2.988.693 4.108.16.907.32 1.812.373 2.719h.16c.268-1.067.48-2.346.694-3.786s.48-3.04.853-4.853c.32-1.813.692-3.788 1.12-5.975.372-2.187.908-4.586 1.494-7.306.587-2.666 1.225-5.6 1.972-8.746.106-.48.32-.693.692-.694z"/></svg>