<svg xmlns="http://www.w3.org/2000/svg" viewBox="0 0 128 128"><path d="M60.035 5.262C27.47 5.266 1.066 31.582 1.066 64.043c0 32.465 26.402 58.781 58.97 58.781.73 0 1.452-.027 2.175-.054-29.027-4.34-51.332-29.02-51.332-58.727 0-29.703 22.305-54.383 51.328-58.723-.719-.027-1.445-.058-2.172-.058zm10.403 2.472c-15.528 0-28.81 5.49-39.852 16.454Q20.19 34.653 16.37 47.813H124.5c-2.57-8.773-7.336-16.65-14.312-23.626-8.75-8.75-18.966-14.003-30.626-15.769a61 61 0 0 0-9.124-.684zm-55.485 46.38a59 59 0 0 0-.734 6.78h112.445a59 59 0 0 0-.738-6.78zm-.732 13.075c.113 2.274.358 4.542.732 6.784H125.93c.375-2.243.62-4.51.738-6.784zm2.156 13.08c2.55 8.75 7.279 16.584 14.205 23.514 11.047 11.047 24.329 16.565 39.856 16.565 3.105 0 6.115-.23 9.037-.672 11.699-1.766 21.94-7.056 30.714-15.89 6.972-6.928 11.737-14.77 14.307-23.516z"/></svg>