<svg xmlns="http://www.w3.org/2000/svg" viewBox="0 0 128 128"><path d="M12.076 54.8A1.18 1.18 0 0 0 10.91 56a1.18 1.18 0 0 0 1.18 1.18v-.02a1.18 1.18 0 0 0 .988-.719c1.736.935 3.012 4.19 3.012 7.979a15 15 0 0 1-.63 4.43.25.25 0 0 0 .47.15h-.01a15.5 15.5 0 0 0 .66-4.57c0-3.986-1.359-7.43-3.316-8.446a1.18 1.18 0 0 0-1.188-1.183zm-.199.524a.69.69 0 0 1 .902.656.69.69 0 0 1-.69.69.69.69 0 0 1-.212-1.346zm-3.998 3.262c-1.587 0-2.8.497-3.37 1.494a3.67 3.67 0 0 0 .391 3.67.25.25 0 0 0 .43-.25 3.21 3.21 0 0 1-.39-3.18c.63-1.09 2.33-1.5 4.55-1.09a.25.25 0 0 0 .09-.49v.01a9.5 9.5 0 0 0-1.701-.164zm9.111.057a3.6 3.6 0 0 0-.63.007.25.25 0 0 0 0 .49 3.17 3.17 0 0 1 2.88 1.25c.63 1.09.14 2.76-1.32 4.48a.25.25 0 1 0 .38.32l-.01-.05c1.58-1.86 2.13-3.73 1.37-5a3.63 3.63 0 0 0-2.67-1.497zm-2.75.187.043.002.006-.002zm.043.002a15.4 15.4 0 0 0-4.392 1.738c-3.551 2.052-5.934 5.065-5.643 7.278a1.18 1.18 0 0 0-.658.953A1.18 1.18 0 0 0 4.77 70a1.18 1.18 0 1 0-.028-2.19c-.286-1.968 1.932-4.83 5.348-6.81a15 15 0 0 1 4.25-1.69.25.25 0 1 0-.057-.478zm91.733.3a5.13 5.13 0 0 0-5.125 5.358A5.08 5.08 0 0 0 106 69.76a5.13 5.13 0 0 0 5.14-5.27 5.13 5.13 0 0 0-5.124-5.357zm-37.487.098a5.12 5.12 0 0 0-5.09 5.27 5.06 5.06 0 0 0 5.07 5.24l-.009.02a5.28 5.28 0 0 0 3.86-1.59.37.37 0 0 0 .12-.26.38.38 0 0 0-.36-.36.37.37 0 0 0-.26.12 4.5 4.5 0 0 1-3.32 1.41 4.39 4.39 0 0 1-4.31-4.59 4.36 4.36 0 0 1 4.29-4.56 4.55 4.55 0 0 1 3.25 1.32.4.4 0 0 0 .26.1.4.4 0 0 0 .39-.38.44.44 0 0 0-.15-.31 5.32 5.32 0 0 0-3.74-1.43zm-27.52.11a.38.38 0 0 0-.378.38l-.012 9.49a.39.39 0 0 0 .381.38h6.07a.35.35 0 0 0 0-.7h-5.68v-9.17a.38.38 0 0 0-.38-.38zm75.302.01a.39.39 0 0 0-.381.38v9.55a.365.365 0 0 0 .73 0V60.5l7 8.88a.52.52 0 0 0 .38.25h.06a.31.31 0 0 0 .31-.32V59.7a.365.365 0 0 0-.73 0v8.59l-6.87-8.72a.47.47 0 0 0-.38-.22zM29 59.4a.39.39 0 0 0-.38.38v9.43a.39.39 0 0 0 .38.38h6.65a.35.35 0 1 0 0-.7h-6.26V64.8h5.55a.35.35 0 1 0 0-.7h-5.55v-4h6.2a.35.35 0 1 0 0-.7zm23.26 0a.39.39 0 0 0-.38.38v9.43a.39.39 0 0 0 .38.38h6.65a.35.35 0 1 0 0-.7h-6.27V64.8h5.55a.35.35 0 1 0 0-.7h-5.55v-4h6.2a.35.35 0 0 0 0-.7zm24.18 0a.35.35 0 1 0 0 .7h3.26v9.17a.38.38 0 0 0 .76 0V60.1h3.26a.35.35 0 1 0 0-.7zm12.49.04a.39.39 0 0 0-.38.38v9.45a.38.38 0 0 0 .76 0v-3.9h3.33l3.13 4.08a.42.42 0 0 0 .33.2.41.41 0 0 0 .39-.39.42.42 0 0 0-.12-.26l-2.9-3.76c1.72-.23 3-1.21 3-2.91a2.7 2.7 0 0 0-.77-1.89 4 4 0 0 0-2.87-1zm17.07.47a4.41 4.41 0 0 1 4.35 4.59 4.36 4.36 0 0 1-4.35 4.58 4.41 4.41 0 0 1-4.35-4.59 4.36 4.36 0 0 1 4.35-4.58zm-16.69.19h3.48c1.85 0 2.93.86 2.93 2.23 0 1.47-1.27 2.33-3 2.33l-3.41.02zm-77.13 3.525a.85.85 0 1 0 .09 1.676.85.85 0 0 0 .65-1 .85.85 0 0 0-.74-.676zm-5.7 1.484a.25.25 0 0 0-.36.33h.03a15.4 15.4 0 0 0 3.68 2.9c3.398 1.948 7 2.507 8.84 1.391a1.18 1.18 0 0 0 .72.27 1.18 1.18 0 0 0 1.18-1.18v-.02a1.18 1.18 0 1 0-2.224.54c-1.71.965-5.089.44-8.307-1.42a15 15 0 0 1-3.559-2.81zm12.91 3a.69.69 0 0 1 .69.692.69.69 0 1 1-.69-.692zm-14.62.022a.69.69 0 0 1 .69.69.69.69 0 0 1-.69.689.69.69 0 0 1 0-1.38zm3.959 1.094a.25.25 0 0 0-.327.27c.82 2.297 2.169 3.716 3.688 3.716A3.61 3.61 0 0 0 15 71.13a.25.25 0 1 0-.42-.25 3.15 3.15 0 0 1-2.5 1.84c-1.26 0-2.46-1.26-3.22-3.39a.25.25 0 0 0-.131-.106zm-.327.27L8.4 69.49v.01z"/></svg>