<svg xmlns="http://www.w3.org/2000/svg" viewBox="0 0 128 128"><path d="M33.732 27.605C20.571 27.361 7.654 36.177 3.53 50.91c-1 3.54-1.479 7.22-2.199 10.83q0 3.04-.03 6.08c.24 1.19.55 2.37.7 3.57 1 7.53 3.26 14.5 8.58 20.1 9.01 9.53 26.14 11.75 38.14 4.89 8-4.58 11.83-11.9 13.52-20.66-3.3-1-5.07-.45-6.14 3.06-2.11 7-6.32 12.6-13.47 15C22.25 100.62 6.26 87.21 7.1 65h55.8c.49-12.38-1.97-23.36-11.87-31.15-5.282-4.15-11.315-6.133-17.298-6.245zm87.653 1.723c-2.668-.005-4.578 1.367-6.385 3.932-6 8.44-12.35 16.56-18.8 25.11-6.41-8.58-12.84-16.69-18.67-25.21-2.64-3.86-5.62-4.29-9.93-3.45l25.06 32.63-26.92 36.13c4.48 1.21 7-.28 9.4-3.7C81.85 85.2 89 76 96.16 66.34c1.01 1.33 1.82 2.38 2.6 3.45 6.05 8.27 12.32 16.39 18 24.9 2.53 3.8 5.35 4.91 9.91 3.75C118.16 87.1 109.9 76 101.54 65.01c-1.44-1.89-1.7-3.19-.09-5.19 4.52-5.61 8.8-11.41 13.16-17.14 3.23-4.25 6.44-8.53 9.72-12.88-1.082-.314-2.056-.47-2.945-.472zM33.63 32.68c13.67.1 23.67 11.51 24 27.57H7.199c.65-16.55 11.432-27.69 26.432-27.57z"/></svg>