<svg xmlns="http://www.w3.org/2000/svg" viewBox="0 0 128 128"><path d="M11.428 50.2c-3.775-.07-7.479 2.463-8.668 6.69-.29 1.02-.42 2.11-.63 3.11q0 .85.01 1.74c.07.32.2.66.2 1a9.85 9.85 0 0 0 2.46 5.78 9.4 9.4 0 0 0 10.95 1.4 8.12 8.12 0 0 0 3.88-5.93c-.95-.29-1.45-.12-1.76.88A6.09 6.09 0 0 1 14 69.18C8.13 71.14 3.54 67.3 3.8 60.94h16c.14-3.56-.57-6.72-3.41-8.95-1.515-1.19-3.246-1.76-4.962-1.79zm87.613.003a10.2 10.2 0 0 0-4.861 1.317c-2.9 1.54-2.74 6.41-.18 7.66a35 35 0 0 0 4.84 1.77c1.59.51 3.25.83 4.81 1.41a3.09 3.09 0 0 1 2.08 3.09 3.41 3.41 0 0 1-2 3.35 8.73 8.73 0 0 1-7.58.2 5.69 5.69 0 0 1-3.34-4.9h-1.42a6.67 6.67 0 0 0 1.94 4.75c2.45 2.39 7.95 2.89 11.29 1a4.81 4.81 0 0 0 2.59-5 4.51 4.51 0 0 0-3.1-4.07c-1.23-.42-2.55-.65-3.82-1-1.58-.44-3.19-.8-4.73-1.36a3 3 0 0 1-2-2.82 3 3 0 0 1 1.74-3 9.2 9.2 0 0 1 3-.91c3.5-.34 6.76.86 6.91 4.75 0 .06.11.11.11.17h1.22a5.14 5.14 0 0 0-2.6-5.24 10.2 10.2 0 0 0-4.899-1.167zm18.684.026a10.07 10.07 0 0 0-4.946 1.36c-2.85 1.54-2.648 6.37-.148 7.6a35.4 35.4 0 0 0 4.869 1.75c1.59.51 3.25.82 4.81 1.4a3.09 3.09 0 0 1 2.11 3.071 3.57 3.57 0 0 1-1.92 3.34 7.29 7.29 0 0 1-11.1-4.64h-1.3a6.24 6.24 0 0 0 3.76 6.06 11.13 11.13 0 0 0 9-.09 5 5 0 0 0-.27-9.31 17 17 0 0 0-1.94-.59c-2.03-.56-4.08-.94-6.08-1.56a3.14 3.14 0 0 1-2.4-3.16 3.41 3.41 0 0 1 2.47-3.25 8.73 8.73 0 0 1 5.61-.27 4.35 4.35 0 0 1 3.54 4.18c.02.15.09.31.09.49h1.33a5.23 5.23 0 0 0-2.51-5.13 10.07 10.07 0 0 0-4.975-1.251zm-68.606.05A7.28 7.28 0 0 0 42.48 54.4a6 6 0 0 1-.48.6v-4.26h-1.47v27.08h1.59V67.05A7.37 7.37 0 0 0 48 70.93c3.94.61 7.62-1.05 9.11-4.39a13.24 13.24 0 0 0-.32-12.14c-1.6-2.98-4.32-4.22-7.67-4.12zm31.951.051A8.37 8.37 0 0 0 72.36 55a13.6 13.6 0 0 0-1.2 7.5c.46 4.72 3.35 8.81 9.51 8.5a7.92 7.92 0 0 0 7.74-7c-.9-.28-1.41-.14-1.69.85-1.26 3.86-4.73 5.62-8.79 4.62-3.26-.83-5.56-4.27-5.26-8.55h16.19a41 41 0 0 0-.69-4.5 8 8 0 0 0-7.1-6.09zm-58.806.303a2.4 2.4 0 0 0-1.075.127l7.192 9.37-7.73 10.37a2.2 2.2 0 0 0 2.699-1.06c1.88-2.75 3.94-5.4 6-8.16l.75 1c1.73 2.38 3.53 4.71 5.16 7.15a2.29 2.29 0 0 0 2.84 1.08c-2.44-3.26-4.81-6.44-7.2-9.61a1 1 0 0 1 0-1.49c1.3-1.61 2.53-3.27 3.78-4.92l2.79-3.7a2.15 2.15 0 0 0-2.68 1c-1.71 2.42-3.54 4.76-5.39 7.21-1.84-2.47-3.69-4.8-5.36-7.24a2.39 2.39 0 0 0-1.776-1.127zm48.656.027c-3.35.08-6.02 1.18-7.75 4.14v-4.06h-1.4v19.81h1.43v-11a7.25 7.25 0 0 1 7.72-7.49zm9.44.98c3.85.05 6.69 3.35 6.78 7.91H72.67c.19-4.8 3.33-7.98 7.69-7.91zm-31.75.01a6.77 6.77 0 0 1 7.13 3.94 11.77 11.77 0 0 1 .26 9.68 6.91 6.91 0 0 1-7.59 4.39c-3.36-.39-5.5-2.54-6.08-6.16-.15-.92-.2-1.86-.33-3.18a33 33 0 0 1 .72-3.8 6.59 6.59 0 0 1 5.89-4.87zm-37.2.01c3.88.03 6.79 3.3 6.88 7.91H3.82l-.01-.02c.19-4.75 3.28-7.95 7.6-7.89z"/></svg>