<svg xmlns="http://www.w3.org/2000/svg" viewBox="0 0 128 128"><path d="M9.398 40.08c-1.06.089-1.984.94-.662 2.367 2.54 1.435-2.509 2.49-1.035 3.451.47 1.011-.034 2.136-1.406 2.317-2.012.175-1.823 2.92.139 1.48 2.188-.695.373.279-.657.477-2.316.672-3.89 2.984-2.547 5.098 1.286 2.91 1.627 6.155 2.625 9.183 1.65 4.656 4.065 9.086 7.2 12.914 1.489 2.171 3.67 3.713 5.713 5.319 2.013 1.303 4.246 2.609 6.539 3.275 4.065 1.487 8.429 1.63 12.703 1.967 2.605-.003 5.22-.19 7.789-.649 2.315.248 3.978-1.73 6.068-.685 1.267-1.126 3.112-.632 4.38-1.448.935-3.184-3.217-.631-4.532-2.189-1.428 1.683-2.63-.181-4.363.344-2.952.148.223-1.324.148-2.674-1.562-1.201-3.331 1.646-4.332 2.412-2.471-.446-4.916-1.154-7.182-2.223-2.584-1.345-5.118-2.943-6.99-5.214-1.956-2.32-4.123-4.661-5.016-7.64-1.89-4.915-1.766-10.233-2.248-15.396.178-3.494 3.871.375 5.465-.886-.547-1.812-3.46-2.383-5.068-3.11-1.55-.107-2.118-1.495-3.77-1.61.078-1.938-3.035-.872-4.17-2.255 1.117-2.879-3.693.072-3.318-2.42.783-1.62-.413-2.294-1.473-2.205zm.21.219c.2-.002.416.072.634.246 1.386 1.864-2.542-.217-1.178 1.564-.899-.42-.327-1.804.543-1.81zm100.126.943q-.254 0-1.341.711a12.4 12.4 0 0 1-2.82 1.361q-.927.315-.928.887 0 .396.65.611 1.381.455 1.816 1.266.315.63.315 2.248v17.246q0 2.269-1.086 2.545-1.204.316-1.203.926a1.5 1.5 0 0 0 .04.396q.098.394 1.28.295 4.698-.372 6.67-.197.631.06.78-.049.146-.107.148-.562 0-.57-.928-.69-1.5-.158-1.914-.435-.594-.394-.633-1.656a66 66 0 0 1-.037-1.936q-.001-.945.928-1.457.826-.593 1.164-.594.276.001.453.317 2.17 3.669 5.287 7.023.474.494 1.578.275a59 59 0 0 1 3.611-.197q.927-.037.928-.728 0-.552-.217-.684-.217-.129-1.123-.129-1.223 0-2.625-1.203-2.188-1.913-4.656-5.662-.672-1.047-.672-1.324a.36.36 0 0 1 .158-.295q2.13-2.13 4.006-2.979a7.3 7.3 0 0 1 2.862-.69q.966-.06.966-.73 0-.71-.61-.73-1.874-.001-3.77-.02-2.722-.019-4.143-.216-.631-.1-.693.59c-.027.46.194.717.654.77q1.597.219 1.596.75.001.297-.473.79a104 104 0 0 1-4.025 3.353q-.613.515-.909.514-.273.001-.273-.514l-.041-12.35q0-2.427.02-3.868l.02-1.951q0-1.028-.81-1.028zm-45.048.14q-.315 0-1.499.71-1.44.909-2.785 1.342-.886.295-.886.886 0 .396.613.614 1.163.412 1.627 1.162.462.749.463 2.35v17.857q0 1.617-1.076 1.943-1.075.326-1.075.797 0 .534.188.652.19.117.998.04 4.025-.336 6.746-.08.888.1.889-.688 0-.575-.889-.67-1.439-.178-2.031-.72-.592-.543-.592-1.749l-.078-17.619a96 96 0 0 1 .039-3.848q.078-2.051.078-1.972 0-1.007-.73-1.006zm-25.881 2.079q-.262-.02-.36.01-.217.039-.314.414-.198.613.59.969 1.262.57 1.726 1.273.464.7.463 2v16.894q.001 3.177-1.931 3.397-.849.08-.848.592c0 .539.282.766.848.69q3.036-.415 7.712-.042 1.62.139 1.739-.513c.078-.498-.204-.784-.85-.848q-1.894-.237-2.467-.531-.73-.357-.728-1.342v-8.881q-.001-.257.353-.256 3.136 0 4.528.166 1.39.17 1.904 2.635.136.651.69.592.67-.04.65-.551-.198-4.302.355-6.986.1-.473-.572-.612-.79-.178-.928.612-.215 1.44-.443 1.785-.226.345-.877.424-3.334.216-5.092.238-.57.019-.57-.436v-8.937q0-.456.197-.594.316-.216 1.342-.217 4.48 0 5.603.178 1.046.138 1.676.809.532.573 1.125 2.013.217.533.77.533t.552-.613q.079-3.116.414-4.44a.7.7 0 0 0 .024-.16q0-.294-1.322-.214-3.967.236-9.414.236-4.615 0-5.86-.197a9 9 0 0 0-.685-.09zm-28.34.318c.037.004.03.057-.074.198-.546.214-.038-.21.074-.198zm1.654.125c.517-.007 1.013.278-.197.438l-.393-.02c-.038-.305.28-.414.59-.418zm-.096 1.381c.7.308 2.134.452 2.368 1.219-1.431-.745.288.899-.912.869-.65.009-1.853-1.385-1.456-2.088zm-.552 1.162c.104-.015.173-.017.193 0 1.62 1.232-.905-.003-1.93.772-1.413.143 1.004-.662 1.737-.772zm4.285.721c.377-.006.485.167.058.68 1.16 1.385.418 1.053-.377.158.418.737-.148 2.361-1.177.99-.736-1.369-1.218-.675-.68.234-.993-1.189-3.23-.559-4.9.008-1.16-.13 3.02-.993 3.468-1.193.64.013 2.778-.863 3.608-.877zm-.319.838a.7.7 0 0 0-.197-.227c.066.082.132.153.197.227zm5.543.875q.772-.012 1.524.05c.806.939-.611 2.523-2.082 2.628-1.787.668-3.603.834-5.262 1.054-2.13-.268-3.658 1.645-5.863 1.887.586-1.086-.483-.37-1.602-.426.568 2.196-3.936-.582-1.275-1.111-1.993-.708-2.023 1.389-1.815 2.584l-.136-.002c-1.828-2.354.204-3.314 2.517-3.615-.44 1.085.633 1.438 1.662 1.634 1.667-.46-1.096-.755.163-1.193.693-.126-2.207-.696.209-1.021 2.478-.417 4.709-1.387 7.164-1.897 1.662-.33 3.256-.552 4.796-.572zm-2.662.308c-.19.052-.33.331-.298 1.01 1.875.722.867-1.166.298-1.01zm1.907.24c-.247.043-.582.249-.778.76.19.434.28-.128.242-.275 1.115-.171.947-.554.536-.484zm-4.94.923c-.714-.033-1.883.126-2.297.623.525.238 1.104-.667 1.86-.098 1.41-.269 1.151-.493.437-.525zm10.2.134c.356-.058 1.462.35 1.072 1.043-.267.075-.223-.325-.42-.39-.81-.414-.867-.618-.653-.653zm-12.616.55c-.034-.014-.104.026-.228.171.108.386.332-.133.228-.172zm-1.232.403c-.187 0-.34.085-.358.315l.366.332c1.434.117.553-.646-.008-.647zm-.961.098c-.07.002-.193.054-.389.2.311.245.596-.205.389-.2zm.158.563c-.266-.04-.517.108-.652.607.25-.063.648.085.888.266 1.513 1.034.563-.757-.236-.873zm9.715.24c1.329-.26.94 3.18.514 4.236.803-.55.651 2.546.39 3.701.44-.589.62.956.129 2.045.042-.178 1.067-.33.314.961-.575-1.264-.822 2.574-.453.852 1.015-1.63.75-.088 1.059.633.199 1.493.861 2.87 1.062 4.193.937.944-.4.304-.394 1.58.305-.369 1.549.524 1.54 1.848.104-2.098.224-.493 1.247.052.857 1.38 1.494 2.67 2.77 3.805.995 1.151-.06.348.373 1.05 1.059 1.876 3.506 2.96 5.625 3.448.93 1.21 2.325 2.414 4.212 1.865-1.598.985 4.502 1.255 2.438 1.81-1.073.583-2.09-.372-3.135-.321-1.454-.501-3.755-2.038-5.314-.996-2.154 1.35 1.103-1.506-.645-.229-1.773 2.127-1.203-1.323-2.931-.291-.1-.331-1.537-.42-.454-1.002-.973-.06-.365-.123-.011-.9-.418-.085-2.744-.006-3.66-.77-1.075-1.4.188-.83 1.312-.627-1.8.316.624 1.35 1.828.778-.543-.235-1.162-1.407-2.594-2.428-2.002-1.208-3.651-1.781-5.726-2.742-2.25-1.334.502-.472 1.28.23 2.242.99 1.363-1.386.062-2.004-1.257.05-1.692-1.211-2.557-1.449 1.58.126 2.53-.634.67-2.313-1.908-2.227.796 1.672-.316 1.172-.506-.667-.129-1.62-1.74-1.965-.017.615-.219 1.568-.571.274-.449.077-.964.567-1.332-.766.348-1.514-1.5-1.859-1.785-2.83 1.596 1.022 2.315.217 1.185-.896-.779-1.36-.886-.292-1.32-.102-1.565 1.597-.14-2.758-.836-1.502-.702-.019-.3.772-.289 1.752-2.287-.568.555 1.202 1.217 2.178-1.045-1.094-.866.82-1.738-.09-.297-.805-.34-2.076-1.791-2.3 1.65-.574-.981-1.735-.762-1.796.947-.859 1.067-2.038 2.205-.19-1.442-.115-.043 2.379.312 1.634-.055-1.277.59-2.62-1.59-3.211-.64.864-1.746-1.69-.464-1.149-.17-1.696 1.99-.696 1.853-1.43 1.113-.486-1.346-2.065-.025-2.695 1.015.62 3.649-.973 1.877-1.191 1.11-.01 1.997.475 2.113-.65.898.194 3.322.967 1.121-.247.701-.35 2.187-.647 3.045-.66.265-.206.49-.318.68-.355zm.183.264c-.013-.013-.04.002-.093.066.035.233.134-.03.093-.066zm75.483 1.167q-2.543.001-4.063 1.145-1.639 1.184-1.638 3.314 0 1.738 1.047 2.762.966.968 3.847 2.25 1.994.868 2.684 1.522c.423.38.63.856.63 1.42q0 1.933-2.78 1.933-3.295 0-4.774-2.586-.338-.57-.809-.511-.477.038-.476 1.085 0 2.426.158 2.704.256.294 1.854.648 1.856.397 3.709.397 2.785 0 4.392-1.235 1.607-1.232 1.608-3.324.002-1.893-1.186-3.02-.908-.868-3.434-1.953-2.407-1.046-3.058-1.539-.729-.57-.73-1.539 0-1.736 2.704-1.736 2.388 0 3.948 2.547.215.353.867.216.612-.158.55-.414-.49-2.093-.648-3.197-.059-.374-1.48-.633a15.4 15.4 0 0 0-2.922-.256zm-16.414.08c-1.551 0-3.173.443-4.856 1.323q-2.407 1.264-2.408 2.21 0 1.519 1.62 1.362 1.42-.12 2.179-1.639.76-1.519 1.61-1.517 2.977 0 2.86 3.234l-.04 1.264q-.018.83-1.36 1.086-7.814 1.48-7.814 4.892 0 1.796 1.183 2.842 1.087.946 2.705.947 1.716 0 3.413-.81 1.698-.807 1.873-.809.238 0 .83.748.591.751 1.361.75.907.001 2.418-.838 1.508-.837 1.508-1.253 0-.768-.57-.77a8 8 0 0 0-.711.1q-.611.1-.829.1-1.104 0-1.087-1.284l.08-8.129q.04-3.808-3.965-3.808zm-59.387.6c-.336.096-.858 1.883-.496 2.52.795 1.269 1.592-3.119.937-1.643-.353 1.874-.716 1.091-.207-.305-.03-.448-.122-.604-.234-.572zm-8.348.117c.088.002.131.073-.033.276-.379-.09-.112-.279.033-.276zm-6.273.416c.156.012.22.112-.113.37-.66-.164-.147-.39.113-.37zm7.383 1.01a.2.2 0 0 0-.088.02c.135.337.254-.01.088-.02zm-3.97.115a6 6 0 0 1 .69.041c1.774-.059 1.205.985.196 1.053-.021.068-.92-.215-.549-.46 2.43.305-1.226-.593-.338-.634zm4.386.426c-.137-.187.568 1.012.285 1.428.501.49 2.2 1.372.834.166.868-.173-.116-.451-.635-.863-.3-.452-.439-.668-.484-.73zm-5.703.24c.401-.015.816.193.037.67-.828-.415-.44-.654-.037-.67zm7.238.04c-.074.01-.158.083-.244.265.69.878.563-.309.244-.266zm-4.234.615c.029.003.061.06.087.222-.234.258-.175-.233-.087-.222zm-1.89.017c.163.012.28.099.075.317-.743-.147-.345-.337-.074-.317zm-3.669.21c.05-.033.116.021.146.29-.265.057-.23-.237-.146-.29zm3.076.156c.066.026.109.121.078.333-.687.126-.276-.414-.078-.334zm10.813.123c-.026-.037-.037-.005-.008.173.3.675.085-.063.008-.173zm-14.301.162c.027.01.053.071.064.222-.241.17-.146-.254-.064-.222zm8.46.496a.8.8 0 0 0-.194.013c.232.341.869.193 1.166.522 2.506 1.036.103-.502-.971-.535zm6.06.05c-.019.01.03.17.204.602.49.688-.15-.63-.205-.601zm-6.678.176c-.132.03-.11.207.183.61.185.413.631.448 1 .545 2.87 1.325-.613-1.283-1.183-1.155zm-5.233.203c.397-.026 1.397.269.676.551l-.234-.084c-.7-.32-.68-.45-.442-.467zm4.354.37c-.13.007-.019.205.588.746l.396.4c1.99.546-.592-1.167-.984-1.146zm-5.951.416c.135-.019.33.18.445.83-.733-.165-.67-.8-.445-.83zm14.017.005c-.007-.024-.014-.013-.014.08.073.406.036-.005.014-.08zm-12.207.034c.226-.015.505.136.565.627-1.174-.122-.942-.604-.565-.627zm3.871.08c-.102-.003.825.984.399.968-1.48-1.08-.875-.317-.041.514.905 1.344 1.65-.804.175-1.074-.35-.295-.499-.407-.533-.408zm-4.166.72c.188-.007.558.119.547.397-.74-.25-.735-.39-.547-.397zm6.399.48c-.036.02 0 .157.183.5.67.435-.078-.557-.183-.5zm-.36.112c-.043-.014-.12.017-.242.137.193.355.37-.094.242-.137zm7.407.04c-.03.002-.078.189-.143.716.173.926.233-.724.143-.717zm-2.993.032c-.032-.006-.046.177 0 .743.226.206.07-.728 0-.742zm-9.12.133c.028-.01.075-.001.142.053-.157.205-.23-.02-.143-.053zm10.413.002c-.32.002-.556 2.259.233 2.73.323.932.663.554.783-.503-.761.016.317-1.658-.703-1.328-.09-.65-.206-.9-.313-.899zm2.17.024c-.065-.02-.177.293-.22 1.103l.003.266c.31-.77.302-1.345.217-1.37zm-14.879.101c.202-.048 1.353 2.28 1.198 2.922-.704-.247-.671-1.35-.998-1.931-.227-.695-.267-.975-.2-.99zm8.4.115c-.188.52.395 2.218.747 2.797.898 1.382.492-.756 1.476.621-.54-1.21.26-.552.143-1.068-.249-.52-2.671-3.272-1.568-1.193.999 2.48-.63-.31-.797-1.157zm-8.943.385c.184-.045 1.05 1.303 1.198 2.024 1.133 1.37.687 2.123 1.863 3.8-1.512-.955-1.798-3.236-2.76-4.709-.328-.786-.384-1.094-.3-1.115zm74.319.328q.195.016.316.094.248.157.23.65l-.04 3.237q0 .61-1.223 1.047a6 6 0 0 1-2.033.373q-2.466 0-2.465-2.27-.001-2.248 4.754-3.097.266-.05.46-.034zm-66.76.1c-.044-.009-.088.103-.111.44.384.692.244-.413.111-.44zm1.144.531c-.073-.004-.157.065-.248.256.663 1.151.566-.24.248-.256zm-4.857.672c.214-.013.421.037-.023.188-.412-.1-.191-.175.023-.188zm11.998.426c-.015-.005-.054.08-.127.338.017.511.173-.323.127-.338zm-11.512.691c.36-.019.73.076.037.344-.742-.19-.395-.324-.037-.344zm2.715.12c.088-.023.186.066.178.408-.443-.022-.324-.371-.178-.409zm-.687.091c.022.005.04.036.043.11-.204.084-.109-.125-.043-.11zm2.3.037c.116-.008.279.038.141.164-.324-.093-.256-.155-.14-.164zm6.999.063c-.007-.022-.02.003-.05.125.009.433.068-.058.05-.125zm.47.195c-.021-.007-.048.086-.074.373.162.587.14-.35.074-.373zm-7.853 1.04c.815-.091.323 2.175 1.304 2.466 2.043 2.667-1.42.08-2.576-.18.148-.008-1.021-.333-.517-.447-.371-.38-1.199-1.762.691-.838 1.504.754 1.633.247.916-.951a.7.7 0 0 1 .182-.05zm-6.723.376c.187.044 1.077 1.508 1.25 2.149.571 1.819 2.362 2.864 2.543 4.07 1.986 1.144.968 3.007 2.635 3.533.739-.375.815 2.25 2.389 1.703-.876.41.364.893.804 1.657.992-.135 3.17 2.192 1.002 1.388-.912-.194-1.536-1.143-2.181-1.763-1.917-1.217-3.161-3.26-4.213-5.21-1.358-2.048-2.988-4.102-3.914-6.498-.34-.777-.4-1.049-.315-1.029zm9.299.88a.27.27 0 0 0-.15.001c.21.73.427.084.15-.002zm1.842.173c-.04-.017-.042.024.045.18.542.438.076-.13-.045-.18zm4.062.514c-.101.051-.106.353.19 1.015l.174.29c.24-.784-.195-1.392-.364-1.305zm-10.629.478c.127-.007.224.053.088.256-.587-.044-.298-.244-.088-.256zm-.152 1.453c.168 0 .56.218.672.656-.784-.437-.84-.656-.672-.656zm3.531.358c.466.01 1.686.458 2.114.543.095.408-1.936.346-.163 1.14-1.035-.028-1.345-.109.131.793-.579.467 1.169.84.569 1.535 1.779 1.39-.323.354-1.082-.214-.45-.312-2.28-.932-1.997-1.342 2.16 1.136.551-.044-.4-.797 1.74.426-1.396-1.289.264-.838.49.12-.745-1.015.877-.19-.599-.485-.592-.636-.313-.63zm8.31.443c-.04-.021-.1.062-.175.344.265.709.3-.281.176-.344zm-10.64.17c.174-.01.655.192.926.64-.965-.406-1.1-.63-.926-.64zm-1.275.742c.038-.078.6.284.709.7-.565-.448-.732-.653-.71-.7zm13.316 1.074c-.043.04-.005.214.203.616.787.34-.074-.735-.203-.616zm-4.62 1.2c.078-.022.173.023.189.224-.407.028-.321-.189-.19-.224zm5.565.054c-.017-.014-.03.065-.023.326.18.606.076-.284.023-.326zm-14.19.041q-.024.005-.038.065c.346.62.143-.095.037-.065zm9.636.457c.055.023.127.1.209.266-.378.079-.374-.334-.21-.266zm5.035.227c-.137.063.086.825.541 1.3 1.057 1.256.25-.713-.117-.86-.224-.352-.362-.469-.424-.44zm-9.897.334c.377.012 1.334.238.47.29-.712-.228-.695-.298-.47-.29zm2.711.162c.522.063 2.574 1.143.21.383-.387-.31-.383-.404-.21-.383zm-2.67.22c.07-.017.162.02.198.188-.372.023-.315-.158-.198-.187zm1.186.028c.292.011 1.097.267.453.336-.619-.261-.628-.343-.453-.336zm-.611.492c.588.007 1.553.272 2.146.588 2.607.58-.554 1.277-1.596.477l-.44-.096c-.912-.723-.699-.975-.11-.969zm2.013.069c.011-.001.044.021.116.084.027.117-.147-.083-.116-.084zm1.102.203c.216-.046 1.2.36 1.62.75 1.246.169 1.254.736-.126.382-.246-.15-.642-.141-.766-.46-.71-.453-.858-.645-.728-.672zm1.662.02c.394-.007 1.036.108 1.238.407 2.735.44-.172.63-.982-.09-.794-.183-.65-.311-.256-.318zm8.184.937c.07.024.127.122.13.345-.662.168-.34-.419-.13-.345zm-8.186.603c.296-.064 2.227.733.84.555l-.406-.135c-.449-.28-.533-.398-.434-.42zm-3.726.076c.161.005.507.11.55.295-.69-.206-.712-.3-.55-.295zm2.427.088c.089-.01.209.033.264.194-.471-.012-.411-.177-.264-.194zm10.375.287c.11-.016.268.044.36.276-.598-.009-.544-.248-.36-.276zm.881.582c.032.011.065.05.088.137-.264.051-.183-.17-.088-.137zm-9.95.18c.561.054 2.72 1.232.811.692l-.293-.116-.335-.15c-.379-.337-.369-.444-.182-.426zm1.638.055c.149.004.303.083.252.297-.739-.11-.501-.305-.252-.297zm-2.522.293c.257-.013.605.075.27.308-.694-.18-.527-.295-.27-.308zm3.315.578c.02.009.061.04.125.113-.09.047-.19-.14-.125-.113zm22.435.377c.078-.037.15.038.1.38-.377.05-.23-.32-.1-.38zm-12.588.312c.013.314.413-.027 0 0zm-13.217.06c.205-.019.303.049-.105.313-.88-.005-.236-.28.105-.312zm2.262.036c.315 0 .705.09.225.272-.779-.182-.54-.272-.225-.272zm1.17.293c.282-.04.737.066.52.436-.91-.211-.802-.396-.52-.436zm3.566.324c.24.02.31.123-.292.362-.979-.194-.107-.394.292-.362zm-6.068.078c.032.005.06.04.068.133-.294.125-.164-.146-.068-.133zm22.717.08c.137.006.199.1-.078.354-.586-.13-.15-.363.078-.354zm-24.158.248c.146.007.32.076.08.184-.346-.136-.227-.19-.08-.184zm16.64.239c.025.02.002.069-.119.158-.453-.035.046-.22.12-.158zm-10.545.13c.26-.04 2.389.155.58.137-.544-.083-.666-.123-.58-.136zm-4.966.04c.047.002.096.055.127.203-.404.249-.27-.209-.127-.203zm-.86.254c.101-.009.385.066.92.261 2.285 1.411 4.919 2.16 7.358 3.246 2.146.281 4.41.852 6.52.397 1.76.879 3.586-.228 5.353.57-3.903.758-7.92-.075-11.809-.615-2.451-.308-4.637-1.327-6.873-2.293-.324-.154-.63-.346-.94-.525-1.537-.852-1.348-1.027.147-.188.529.42 4.276 1.953 2.492.94-.627-.157-3.605-1.758-3.168-1.793zm2.317.154c.222-.03.492.075.142.408-.54-.21-.365-.377-.142-.408zm11.894.514c.334-.033.348.398.34.978-1.175 1.296-.475-.531-1.203.172-.67.533-.51-.319-.147-.522.494-.422.81-.609 1.01-.628zm-1.027.164c.036.012-.046.113-.358.375-.905.348.25-.413.358-.375zm-1.244.224c.031-.012.053.033.043.19-.323.4-.138-.153-.043-.19zm11.476.026c1.163-.014 2.823.363 3.692.384-.421.885-3.028.074-4.172.303l-.49-.03-.305-.048c.06-.451.578-.6 1.275-.61zm-7.586.062c.203.04.113.293-.84.908-.65-.447.503-.975.84-.908zm14.91.049c.052.01.091.086.084.285-.51.268-.24-.313-.084-.285zm-2.585.182c.1-.04.179.026.068.353-.466.073-.236-.287-.068-.353zm5.021.027c2.711-.001.182.39-1.064.385-1.414-.333.638-.32 1.064-.385zm-28.365.228c.18.011.331.103.172.338-.853-.147-.473-.355-.172-.338zm12.039.124c.217-.025.29.143-.326.539l-.225.072c-.03-.372.334-.587.55-.612zm-6.45.123c.059-.01.1.053.085.255-.59.453-.26-.228-.084-.255zm5.366.01c.12.01.087.173-.344.63-.918.06.08-.654.344-.63zm-4.572.208c.033.008.06.054.066.164-.307.126-.166-.187-.066-.164zm7.05.055c.046.013-.03.12-.351.389-1.016.357.215-.429.351-.389zm-12.209.043c.245-.061 2.88.697 3.22.625 2.69.998-1.605.33-2.493-.23-.624-.264-.808-.375-.727-.395zm11.239.078c.136-.004.129.13-.348.54-.502-.143.12-.533.348-.54zm1.646.012c.181-.018.168.12-.424.547l-.33.215c-.39-.271.452-.732.754-.762zm-3.574.582c.042.004.074.039.072.123-.403.11-.197-.136-.072-.123zm5.736 1.424c.155.006.22.086-.103.302-.656-.116-.154-.312.103-.302z"/></svg>