<svg xmlns="http://www.w3.org/2000/svg" viewBox="0 0 128 128"><path d="M63.992.64a3.56 3.56 0 0 0-1.883.534L12.217 32.146a3.6 3.6 0 0 0-1.694 3.057v57.594c0 1.242.64 2.402 1.694 3.057l49.892 30.972.069.041c.027.016.055.04.082.057.058.03.12.04.178.066.058.03.116.074.175.098.093.04.192.065.287.096.056.018.107.037.164.052.107.03.22.05.329.069.047.006.09.02.136.027.156.022.306.027.463.027a3.5 3.5 0 0 0 .97-.136h.015a3 3 0 0 0 .353-.121l.11-.041c.097-.044.19-.098.287-.15.052-.03.113-.055.164-.085l.095-.066 49.797-30.906a3.59 3.59 0 0 0 1.694-3.057l-.096-28.871a3.58 3.58 0 0 0-1.844-3.127 3.58 3.58 0 0 0-3.63.096L90.667 74.12 74.298 63.98l41.485-25.827a3.58 3.58 0 0 0 1.694-3.045 3.6 3.6 0 0 0-1.707-3.043L65.89 1.174A3.6 3.6 0 0 0 63.993.64zM17.568 41.565 53.7 64.008 17.566 86.436zm49.934 26.647 16.38 10.143-21.868 13.61a3.56 3.56 0 0 0-1.68 3.044l.055 22.318-39.477-24.53 39.586-24.571 1.611.996a3.56 3.56 0 0 0 1.883.533 3.57 3.57 0 0 0 1.899-.533zm42.74 2.17.055 20.435-42.729 26.538-.066-20.366z"/></svg>