<svg xmlns="http://www.w3.org/2000/svg" width="128" height="128" viewBox="0 0 128 128"><path d="M61.63 4.63a41 41 0 0 0-3.103.17c-9.183.833-19.71 4.606-27.582 9.856-4.32 2.848-13.058 10.305-15.203 12.961-5.277 6.43-9.406 15.2-10.847 22.942-.672 3.746-.766 15.105-.16 20.16 1.152 9.218 3.328 16.77 7.042 24.097 3.391 6.72 6.27 10.977 9.79 14.465 3.394 3.36 6.242 5.086 11.136 6.817 1.824.605 4.32 1.789 5.535 2.558 6.946 4.45 14.465 6.559 23.203 6.559 4.797 0 7.614-.48 12.094-2.078 6.848-2.403 12.16-5.602 16.703-10.047 2.852-2.785 3.235-3.043 5.602-3.844 5.152-1.726 8.863-4.062 13.406-8.414 6.945-6.719 11.586-14.656 13.984-23.969 2.145-8.351 1.57-14.879-2.496-27.582-3.199-10.015-5.855-14.242-14.972-23.648-6.465-6.656-11.715-10.367-20.801-14.785-9.184-4.45-16.14-6.332-23.33-6.217zm-.513.874c1.908-.009 3.604.062 4.004.223.383.16-.418.32-2.242.449-6.496.418-18.781 2.847-22.43 4.383-.832.351-1.57.609-1.633.511-.16-.16 4.094-1.949 6.946-2.91 2.59-.894 7.52-2.047 10.078-2.398 1.248-.16 3.369-.25 5.277-.258zm-3.955 4.506c1.8.038 3.782.127 5.975.263 7.457.446 10.367.895 4.543.704-8.254-.32-18.72.703-25.758 2.464-2.02.512-3.715.895-3.746.832-.192-.195 5.344-2.722 6.945-3.203 2.88-.838 6.641-1.175 12.041-1.06zM38.38 11.244c.018.02.02.06.02.115 0 .067-.415.352-.958.641-1.218.61-1.28.352-.066-.29.744-.406.949-.526 1.004-.466zm22.035 1.34c.935-.001 1.958.01 3.106.025 6.113.094 7.52.223 10.718.926 6.946 1.57 12.035 3.328 18.403 6.496s8.16 4.512 11.617 8.77c8.094 9.953 12.156 18.015 13.148 26.078.61 5.058.48 7.648-.734 12.45-1.344 5.245-3.008 8.8-6.656 13.952-1.407 2.016-3.871 5.535-5.473 7.84-3.453 4.992-6.016 8.254-8.606 11.008-1.503 1.566-2.562 2.305-4.578 3.262-3.136 1.472-14.625 5.41-15.808 5.41-.446 0-2.75-.992-5.153-2.207-4.605-2.371-5.855-2.817-11.359-4.067-2.496-.543-4.414-1.246-6.719-2.398-14.047-7.137-22.304-14.723-27.746-25.535-1.789-3.586-2.047-3.649-.414-.13 2.176 4.704 5.985 10.048 9.633 13.567 4.352 4.16 12.223 9.602 18.078 12.48 1.473.735 4.192 2.208 6.05 3.298 4.063 2.398 5.856 3.168 9.505 4.16 1.918.48 2.847.894 2.91 1.246.191.992-1.09 1.73-4.61 2.594-1.917.449-3.68 1.054-3.933 1.312-.738.734-.258.64 6.781-1.09l6.336-1.597 3.524.382c1.918.192 3.488.45 3.488.575 0 .195-3.715 1.984-6.113 2.945-4.258 1.727-12.223 3.328-18.047 3.617-3.328.16-3.457.125-2.625-.351.48-.29.863-.547.863-.61s-1.344.192-2.945.512c-2.848.61-3.102.61-5.696.098-6.496-1.25-15.617-7.235-21.246-13.922-5.504-6.528-10.754-16.512-13.09-24.961-1.566-5.63-1.953-8.606-1.984-15.52 0-6.238.031-6.496 1.059-10.558 2.496-9.633 6.109-18.72 8.863-22.082l.766-.957-.637 2.015c-.93 3.07-.707 3.488.285.543 1.664-4.96 4-7.746 9.602-11.39 1.886-1.25 3.71-1.985 9.597-3.938 11.033-3.64 13.295-4.24 19.84-4.248zM13.313 34.238c.062 0-.45 1.188-1.184 2.625C9.313 42.465 8 46.688 6.879 53.602c-.672 4.32-.703 4.414-.957 2.91-.32-2.047.031-7.23.637-9.504.671-2.594 2.242-6.207 3.68-8.672 1.187-1.984 2.753-4.098 3.073-4.098zm3.167.64c.032 0-.48 1.313-1.152 2.884-1.375 3.168-3.168 9.086-3.937 12.797-.895 4.418-1.47 12.351-1.153 15.84.418 4.671 1.219 9.699 2.082 13.218.926 3.809 5.918 13.985 9.602 19.582 2.398 3.711 2.75 4.48 1.98 4.48-1.277 0-6.656-5.245-9.054-8.831-2.274-3.391-2.977-5.536-3.137-9.375-.125-2.657-.32-3.52-1.438-6.434-1.472-3.71-1.793-5.312-2.242-11.137-.511-6.207.418-13.98 2.367-19.742 1.41-4.222 5.57-13.281 6.082-13.281zm3.83.145c-.054 0-.087.174-.087.497 0 .449.066.609.16.382.066-.191.066-.574 0-.797q-.04-.08-.072-.082zm-.312 1.934c-.058.008-.096.234-.096.645 0 .511.067.703.16.382.067-.289.067-.738 0-.96q-.035-.072-.064-.067zm101.106 17.004q.057-.03.142.117c.16.258.578 1.89.961 3.586 2.656 12.258.512 24-6.238 34.434-3.137 4.797-9.059 10.336-13.922 12.992-1.918 1.055-5.406 2.43-6.11 2.43-.609 0 2.75-3.551 7.293-7.711 5.504-5.024 8.098-8.13 10.016-12.032.77-1.539 2.145-4 3.074-5.41 2.207-3.36 3.457-5.887 4.512-8.992 1.121-3.297 1.375-8.414.64-13.184-.505-3.22-.641-6.095-.368-6.23zm-3.862 12.977q.034-.01.07.039c.094.093.13.382.032.609-.098.254-.192.156-.192-.195-.023-.264.024-.438.09-.454zm-.318 1.626c.07-.035.107.108.13.397.067.512-.124 2.305-.413 3.969-1.344 7.453-4.543 14.14-9.121 19.007-1.918 2.079-6.528 5.758-9.122 7.293l-1.277.77.992-1.281c.575-.703 3.008-4.16 5.473-7.68 2.46-3.52 5.535-7.934 6.848-9.793 2.847-4.031 4.734-7.582 5.757-10.848.4-1.218.614-1.775.733-1.834zm-94.764.354q-.047.008-.047.203c0 .254.125.703.285.957.387.578.387.067 0-.797q-.17-.374-.238-.363zm-2.502 33.965c.287-.072 1.037.42 2.455 1.597 2.461 2.047 8.285 7.934 8.285 8.383 0 .832-2.238-.16-5.308-2.336-2.817-1.984-5.57-5.632-5.57-7.39 0-.145.043-.23.138-.254zm41.526 1.322c.363-.088 1.119.1 2.847.627.832.258 1.762.77 2.047 1.09.578.605.547.637-.254.637-.8 0-3.777-.993-4.672-1.567-.222-.16-.351-.418-.222-.61a.4.4 0 0 1 .254-.177zm28.724 1.484c.005.035-.06.11-.115.198-.098.129-.961.867-1.922 1.601-1.664 1.282-1.824 1.344-3.742 1.246l-1.984-.093 3.808-1.504c3.31-1.298 3.941-1.551 3.955-1.448zm.268 5.065c.258 0-.13.672-.832 1.504-4.703 5.597-13.055 10.27-21.504 12.062-2.945.61-9.344.61-12.895 0-6.082-1.054-12.61-3.808-11.875-4.992.13-.191 1.313-.258 3.106-.129 3.136.227 9.566-.191 15.586-.992 8.765-1.184 13.726-2.527 19.199-5.184 2.941-1.437 4.062-1.726 9.215-2.27zm-57.856.254c0-.13 1.375.703 3.106 1.855 1.695 1.121 4.351 2.657 5.886 3.395 1.567.734 2.848 1.437 2.848 1.566 0 .672-5.984-.863-7.52-1.953-1.183-.832-4.32-4.351-4.32-4.863z"/></svg>