<svg xmlns="http://www.w3.org/2000/svg" viewBox="0 0 128 128"><path d="M63.875.883a8.12 8.12 0 0 0-5.752 2.38L46.68 14.712 61.197 29.23c3.375-1.14 7.245-.375 9.934 2.314 2.703 2.706 3.46 6.606 2.293 9.992l13.992 13.992c3.385-1.167 7.292-.413 9.994 2.295 3.78 3.777 3.78 9.901 0 13.68a9.673 9.673 0 0 1-13.683 0A9.68 9.68 0 0 1 81.62 60.98L68.574 47.934l-.002 34.34a9.7 9.7 0 0 1 2.559 1.828c3.778 3.777 3.778 9.898 0 13.683-3.78 3.777-9.905 3.777-13.68 0-3.778-3.784-3.778-9.905 0-13.683a9.7 9.7 0 0 1 3.168-2.11v-34.66a9.6 9.6 0 0 1-3.168-2.11c-2.862-2.86-3.55-7.06-2.082-10.576L41.057 20.332 3.264 58.123a8.133 8.133 0 0 0 0 11.5l55.117 55.113c3.174 3.174 8.32 3.174 11.5 0l54.857-54.857a8.135 8.135 0 0 0-.002-11.5L69.621 3.264A8.1 8.1 0 0 0 63.875.883z"/></svg>