<svg xmlns="http://www.w3.org/2000/svg" width="128" height="128" viewBox="0 0 128 128"><path d="M63.69.613a15 15 0 0 0-6.573 1.649L13.305 24.867C5.078 29.11 0 37.012 0 45.567v38.59c0 8.554 5.078 16.453 13.305 20.698l37.593 19.395c8.118 4.188 18.086 4.188 26.204 0l37.593-19.393C122.922 100.61 128 92.711 128 84.157V47.63c0-13.302-15.871-21.67-28.703-15.135L57.184 53.95c-6.676 3.403-9.032 11.043-5.266 17.067s12.227 8.152 18.898 4.754l29.434-14.993v20.836c0 1.137-.672 2.188-1.77 2.75L65.754 101.25a3.86 3.86 0 0 1-3.508 0L29.52 84.363c-1.098-.562-1.77-1.613-1.77-2.75V48.105c0-1.137.672-2.184 1.77-2.75l41.363-21.34c6.652-3.433 8.964-11.085 5.164-17.093C73.43 2.794 68.61.518 63.689.613z"/></svg>