<svg xmlns="http://www.w3.org/2000/svg" viewBox="0 0 128 128"><path d="M62.6 1.3C52.1 2 42.2 4.2 35.2 9.7c-2.8-1.4-5.5-1.8-7.9-1.1v.1c-.1 0-.3.1-.4.2-.1 0-.3.1-.4.2h-.1c-.1 0-.2.1-.4.2h-.1l-.3.2h-.1l-.3.2h-.1l-.3.2s-.1 0-.1.1l-.3.2s-.1 0-.1.1l-.3.2s-.1 0-.1.1l-.3.2-.1.1c-.1.1-.2.1-.2.2l-.1.1-.2.2-.1.1c-.1.1-.1.2-.2.2l-.1.1c-.1.1-.1.2-.2.2l-.1.1c-.1.1-.1.2-.2.2l-.1.1c-.1.1-.1.2-.2.2l-.1.1c-.1.1-.1.2-.2.2l-.1.1-.1.3s0 .1-.1.1l-.1.3s0 .1-.1.1l-.1.3s0 .1-.1.1l-.1.3s0 .1-.1.1c.4.3.4.4.4.4v.1l-.1.3v.1c0 .1 0 .2-.1.3v3.1c0 .1 0 .2.1.3v.1l.1.3v.1l.1.3s0 .1.1.1l.1.3s0 .1.1.1l.1.3s0 .1.1.1l.2.3s0 .1.1.1l.2.3s0 .1.1.1l.2.3.1.1.3.3.3.3h.1c.989.89 1.985 1.585 3.945 2.18-4.107 12.541-.645 25.183-.446 38.12-.6 0-.699.4-1.699.5h-.5c-.1 0-.3 0-.5.1-.1 0-.3 0-.4.1l-.4.1h-.1l-.4.1h-.1l-.3.1h-.1l-.3.1s-.1 0-.1.1l-.3.1-.2.1c-.1 0-.2.1-.2.1l-.2.1-.2.1c-.1 0-.2.1-.2.1l-.2.1-.4.3c-.1.1-.2.2-.3.2l-.4.4-.1.1c-.1.2-.3.4-.4.5l-.2.3-.3.6-.1.3v.3c0 .5.2.9.9 1.2.2 3.7 3.9 2 5.6.8l.1-.1c.2-.2.5-.3.6-.3h.1l.2-.1c.1 0 .1 0 .2-.1.2-.1.4-.1.5-.2.1 0 .1-.1.1-.2l.1-.1c.1-.2.2-.6.2-1.2l.1-1.3v1.8c-.5 13.1-4 30.7 3.3 42.5 1.3 2.1 2.9 3.9 4.7 5.4h-.5c-.2.2-.5.4-.8.6l-.9.6-.3.2-.6.4-.9.7-1.1 1c-.2.2-.3.4-.4.5l-.4.6-.2.3c-.1.2-.2.4-.2.6l-.1.3q-.3 1.2.6 2.7l.4.4h.2c.1 0 .2 0 .4.1.2.4 1.2 2.5 3.9.9 2.8-1.5 4.7-4.6 8.1-5.1l-.5-.6c5.9 2.8 12.8 4 19 4.2 8.7.3 18.6-.9 26.5-5.2 2.2.7 3.9 3.9 5.8 5.4l.1.1.1.1.1.1.1.1s.1 0 .1.1c0 0 .1 0 .1.1 0 0 .1 0 .1.1h2.1s.1 0 .1-.1h.1s.1 0 .1-.1h.1s.1 0 .1-.1c0 0 .1 0 .1-.1l.1-.1s.1 0 .1-.1l.1-.1h.1l.2-.2.2-.1h.1l.1-.1h.1l.1-.1.1-.1.1-.1.1-.1.1-.1.1-.1.1-.1v-.1s0-.1.1-.1v-.1s0-.1.1-.1v-.1s0-.1.1-.1v-1.4s-.3 0-.3-.1l-.3-.1v-.1l.3-.1s.2 0 .2-.1l.1-.1v-2.1s0-.1-.1-.1v-.1s0-.1-.1-.1v-.1s0-.1-.1-.1c0 0 0-.1-.1-.1 0 0 0-.1-.1-.1 0 0 0-.1-.1-.1 0 0 0-.1-.1-.1 0 0 0-.1-.1-.1 0 0 0-.1-.1-.1 0 0 0-.1-.1-.1 0 0 0-.1-.1-.1 0 0 0-.1-.1-.1 0 0 0-.1-.1-.1 0 0 0-.1-.1-.1 0 0 0-.1-.1-.1 0 0 0-.1-.1-.1l-.1-.1-.1-.1-.1-.1-.1-.1-.1-.1-.1-.1-.1-.1-.1-.1-.1-.1-.1-.1-.1-.1-.1-.1v-.1l-.1-.1-.1-.1-.1-.1-.1-.1-.1-.1-.1-.1-.1-.1-.1-.1-.1-.1-.1-.1-.1-.1-.1-.1-.1-.1-.1-.1-.1-.1-.1-.1-.1-.1-.1-.1-.1-.1c2-1.9 3.8-4.2 5.1-6.9 5.9-11.8 4.9-26.2 4.1-39.2h.1c.1 0 .2.1.2.1h.3s.1 0 .1.1h.1s.1 0 .1.1l.2.1c1.7 1.2 5.4 2.9 5.6-.8 1.6.6-.3-1.8-1.3-2.5-.1-.1-.2-.2-.4-.2l-.1-.1c-.1-.1-.2-.1-.2-.2l-.1-.1c-.1 0-.2-.1-.2-.1l-.2-.1c-.1 0-.2-.1-.2-.1l-.2-.1c-.1 0-.2-.1-.2-.1-.1 0-.1 0-.2-.1l-.3-.1c-.1 0-.1 0-.2-.1l-.3-.1h-.1l-.4-.1h-.2c-.1 0-.2 0-.3-.1h-2.3c-.6-13.3.6-26.8-2.8-39.6 12.9-4.6 2.8-22.3-8.4-14.4-7.4-6.4-17.6-7.8-28.3-7.8zm14.804 6.762c4.92-.083 9.74 2.532 11.096 8.438 3.5 15-20.8 18.9-23.4 4-.507-7.762 5.98-12.33 12.304-12.437zM48.416 9.337c5.37.174 10.491 3.439 10.885 10.264C60.1 32.6 39.3 35.9 36 23c-1.8-9 5.513-13.887 12.416-13.664zM71.1 16.1c-1.9 0-3.4 1.7-3.4 3.8s1.5 3.8 3.4 3.8 3.4-1.7 3.4-3.8-1.5-3.8-3.4-3.8zm-29.4.9c-1.9 0-3.5 1.7-3.5 3.8s1.6 3.8 3.5 3.8 3.5-1.7 3.5-3.8-1.5-3.8-3.5-3.8zm31 2.7c.4 0 .8.4.8 1s-.4 1-.8 1-.8-.4-.8-1c0-.5.4-1 .8-1zm-29.4 1c.5 0 .8.4.8 1 0 .5-.3 1-.8 1s-.8-.4-.8-1c0-.5.4-1 .8-1zm25 10.2c3.1 1.5 6.5 4.3 3.8 7.1-1.3 1.4-2.7 1.2-4.1.7 0 1.9.4 3.9.1 5.9-.5.9-1.5 1-2.3 1.4-1.2-.2-2.1-.9-2.6-2l-.2-.1c-3.9 5.2-6.3-1.1-5.2-5-1.2.1-2.2-.2-3-1.5-1.4-2.6.7-5.8 3.4-6.3.7 3 8.7 2.6 10.1-.2z"/></svg>