<svg xmlns="http://www.w3.org/2000/svg" viewBox="0 0 128 128"><path d="M64 1.344a11.16 11.16 0 0 0-11.168 11.168 11.2 11.2 0 0 0 .498 3.154L27.51 30.572a11.2 11.2 0 0 0-2.518-1.998c-5.344-3.07-12.191-1.246-15.265 4.098-3.071 5.344-1.247 12.192 4.097 15.266.954.548 1.957.933 2.977 1.177v29.778c-1.009.244-2 .627-2.946 1.17-5.343 3.105-7.168 9.921-4.093 15.265 3.07 5.344 9.886 7.168 15.261 4.098a11.2 11.2 0 0 0 2.495-1.975l25.808 14.903a11.2 11.2 0 0 0-.494 3.134A11.16 11.16 0 0 0 64 126.656c6.176 0 11.168-5.023 11.168-11.168a11.2 11.2 0 0 0-.574-3.511l25.627-14.8c.774.87 1.691 1.637 2.756 2.249 5.343 3.07 12.191 1.246 15.261-4.098 3.106-5.344 1.282-12.16-4.093-15.266a11.2 11.2 0 0 0-2.946-1.17V49.116c1.02-.244 2.023-.63 2.977-1.178 5.344-3.105 7.167-9.921 4.097-15.265-3.105-5.344-9.921-7.168-15.265-4.098a11.2 11.2 0 0 0-2.53 2.01L74.69 15.695a11.2 11.2 0 0 0 .479-3.183A11.16 11.16 0 0 0 64 1.344zm-7.912 18.861a11 11 0 0 0 .267.268L22.55 79.025a11 11 0 0 0-.436-.117v-29.82a11.1 11.1 0 0 0 6.977-5.248 11.15 11.15 0 0 0 1.049-8.65zm15.926.08 25.843 14.92a11.15 11.15 0 0 0 1.053 8.635 11.1 11.1 0 0 0 6.977 5.248v29.818q-.214.052-.426.114L71.715 20.576a11 11 0 0 0 .299-.29zm-11.098 2.91A11.2 11.2 0 0 0 64 23.68a11.2 11.2 0 0 0 3.113-.457l33.737 58.435a11 11 0 0 0-1.971 2.502 11.2 11.2 0 0 0-1.168 2.945H30.289a11.2 11.2 0 0 0-1.168-2.945 11.2 11.2 0 0 0-1.967-2.486zm-30.643 69.22h67.45q.092.365.209.726l-25.688 14.832A11.16 11.16 0 0 0 64 104.32a11.16 11.16 0 0 0-7.926 3.489L30.16 92.844q.061-.214.113-.43z"/></svg>