<svg xmlns="http://www.w3.org/2000/svg" viewBox="0 0 128 128"><path d="M63.994 32.213c-.074 0-3.1 4.92-6.724 10.933-6.273 10.408-6.633 10.956-7.504 11.383-.78.383-.97.407-1.287.164-1.296-.996-3.032-.706-4.249.711l-.675.787-.143-.841c-.223-1.318-.299-1.505-.842-2.092-.506-.545-.509-.565-.215-2.211.364-2.04.387-3.53.073-5.01-.613-2.894-2.14-4.224-4.846-4.224-2.341 0-5.13 1.864-8.695 5.81-2.148 2.378-5.403 6.848-6.102 8.383l-.271.596-11.194-.141C4.353 56.373.203 56.395.33 56.52c.111.11 4.893 1.95 10.625 4.087l10.424 3.887.389.908c.463 1.081 1.664 2.463 2.695 3.1l.742.459-.865.389c-.644.288-.985.629-1.326 1.33-.673 1.385-.452 2.176 1.101 3.925.698.787 1.664 2.186 2.143 3.108.58 1.114 1.098 1.815 1.547 2.088.724.442 2.06.543 2.691.205.713-.382 4.905-1.438 4.762-1.201-.077.129-2.523 3.97-5.434 8.537-2.91 4.566-5.246 8.346-5.191 8.402s8.932-3.327 19.726-7.52l19.627-7.619L83.553 88.2c10.762 4.178 19.649 7.57 19.748 7.537.098-.033-1.302-2.376-3.11-5.207l-3.289-5.146 1.135-.229c2.552-.512 5.432-2.527 6.98-4.884 2.26-3.438 2.588-7.398 1.085-13.135-.302-1.151-.499-2.143-.438-2.203.06-.06 4.99-1.933 10.955-4.16 5.966-2.23 10.932-4.136 11.035-4.237.104-.102-5.137-.128-11.888-.058-10.27.106-12.087.08-12.168-.176a13 13 0 0 1-.215-.854c-.141-.65-1.086-1.654-1.817-1.933-.282-.108-1.21-.21-2.062-.227-1.377-.029-1.632.03-2.299.54-.413.314-.81.764-.885 1-.18.57-.403.537-.752-.114-.812-1.518-3.259-1.842-4.504-.596l-.628.627-1.245-.615c-1.536-.761-3.42-.984-4.504-.531-.53.22-.906.256-1.279.115-.888-.337-2.307-.066-2.969.568l-.595.57-.977-.66c-.537-.362-1.244-.753-1.574-.869-.496-.174-1.678-2.002-6.883-10.66-3.455-5.747-6.342-10.45-6.416-10.45zM37.641 44.627c.355-.046.602.067.947.309 1.109.776 1.382 2.981.77 6.21-.672 3.54-1.702 5.813-3.553 7.838-1.213 1.327-2.576 2.062-3.86 2.082-2.946.044-3.693-2.858-1.754-6.812.706-1.438 2.498-3.906 2.838-3.906.167 0 .678 2.003.678 2.66 0 .224-.403 1.072-.895 1.887-.716 1.187-.894 1.68-.894 2.494 0 3.113 2.902 2.73 4.473-.592 1.586-3.353 2.474-9.822 1.496-10.906-.522-.58-.831-.567-2.252.095-2.246 1.045-6.924 6.489-8.535 9.932-1.583 3.384-1.246 6.914.843 8.8 2.073 1.873 5.367 1.52 7.79-.833 1.85-1.8 3.248-4.447 3.826-7.244.348-1.68.86-1.856 1.037-.354.069.58.604 2.53 1.191 4.33 1.451 4.455 1.733 5.653 1.73 7.36-.002 1.889-.619 3.24-2.11 4.628-1.428 1.328-3.429 2.234-7.167 3.239-1.643.44-3.358.932-3.812 1.092-1.106.389-1.178.375-1.416-.249-.352-.925-1.712-2.942-2.61-3.87l-.859-.891.867-.235c2.86-.77 7.083-2.304 9.12-3.314 2.445-1.212 4.011-2.464 4.718-3.773.561-1.04.527-3.602-.066-4.872l-.448-.959-.25.64c-1.385 3.562-4.002 6.201-7.142 7.198-1.894.602-4.37.435-5.899-.396-2.676-1.457-3.166-4.381-1.369-8.166 2.085-4.395 8.022-11.31 10.979-12.787.77-.385 1.233-.59 1.588-.635zM74.426 55.68c.69.022 1.425.207 2.113.55 2.405 1.2 3.94 3.79 3.97 6.704.024 2.183-.5 3.638-1.767 4.904-1.196 1.196-2.455 1.619-4.203 1.414-2.996-.352-4.71-2.079-4.943-4.975-.24-2.992 1.276-7.127 2.998-8.177.498-.304 1.142-.443 1.832-.42zm-11.194.367c.993.06 2.189.343 2.664.682.364.259.951 1.081 1.348 1.886.66 1.341.703 1.566.703 3.678 0 2.11-.045 2.336-.7 3.67-1.306 2.652-3.663 4.17-6.157 3.963-1.43-.118-2.157-.617-2.815-1.93-.925-1.843-.586-5.412.797-8.383.67-1.438 2.512-3.436 3.27-3.545a4.5 4.5 0 0 1 .89-.021zm36.327.066c.315.001.68.054.832.157.127.086.641 2.03 1.142 4.318s1.256 5.455 1.678 7.039c.663 2.49.767 3.213.775 5.334.012 3.058-.363 4.39-1.75 6.232-2.407 3.196-5.961 4.411-11.738 4.014-1.324-.091-2.473-.23-2.553-.31s.163-.388.541-.684c1.093-.856 1.787-2.24 1.914-3.82.061-.758.153-1.38.204-1.38s1.068.25 2.263.553c4.753 1.213 7.853.147 9.346-3.218.605-1.362.732-3.697.328-5.975l-.303-1.705-.029 1.28c-.016.703-.165 1.917-.33 2.697-.566 2.669-1.612 4.023-3.11 4.023-1.705 0-2.663-1.871-3.302-6.451-1.025-7.345-1.366-8.805-2.365-10.123-.598-.788-.616-.912-.22-1.455.276-.376.33-.333.825.652.292.581.939 2.303 1.436 3.828 1.344 4.122 1.928 5.129 3.275 5.64.736.28 1.854-.17 2.367-.952 1.145-1.748.934-4.102-.658-7.307a257 257 0 0 1-1.104-2.232c-.047-.103.22-.155.536-.155zm-13.34.217a4.2 4.2 0 0 1 1.556.291c2.714 1.134 4.77 5.84 4.536 10.381-.124 2.407-.678 3.92-1.786 4.893-1.496 1.313-3.66.445-4.888-1.961-.57-1.116-1.077-2.882-1.916-6.678-.634-2.868-1.195-4.517-1.8-5.285-.37-.47-.377-.563-.085-.979.177-.253.404-.459.504-.459.327 0 1.039 1.771 1.588 3.957.622 2.477.97 3.383 1.619 4.207 1.02 1.297 3.091 1.661 4.107.719 1.286-1.192 1.603-2.948.907-5.043-.621-1.87-2.842-3.75-3.569-3.023-.164.163-.128.382.123.765.193.295.352.728.352.961 0 .597-.447 1.512-.74 1.512-.302 0-1.067-.7-1.514-1.381-.402-.614-.457-2.13-.092-2.568.168-.203.595-.306 1.098-.309zm-13.362.01c-.082.04-.27.243-.517.592-.67.94-.895 1.707-.903 3.062-.016 3.327 3.217 5.349 6.297 3.938 2.416-1.105 2.693-2.965.81-5.44-1.15-1.514-3.443-2.586-4.196-1.96-.55.455-.358 1.015.63 1.841 1.14.953 1.313 1.32.811 1.701-1.219.925-3.256-.352-3.256-2.04 0-.49.1-1.075.22-1.302.166-.308.187-.432.104-.392zm-8.613.457c-.417-.042-.8.08-1.098.377-.616.616-.543.891.56 2.117.974 1.084.982 1.102.587 1.541-.22.244-.611.524-.871.623-.597.23-1.706-.14-1.986-.662-.307-.576-.255-2.247.1-3.094.446-1.07.001-.907-.747.272-1.182 1.863-1.367 4.03-.492 5.717 1.345 2.591 4.606 2.303 6.705-.594.983-1.357.78-3.023-.58-4.807-.685-.898-1.482-1.42-2.178-1.49zm-9.31.27.064.68c.125 1.287-1.477 3.457-2.9 3.927-.653.216-.862.173-2.008-.418-.966-.498-1.375-.61-1.668-.453-.572.307-.683 1.226-.318 2.62.412 1.575.841 2.427 1.667 3.298.813.857 1.704.907 3.245.19l1.07-.499.012 2.414.01 2.412-.819.328c-1.03.413-2.359.419-3.139.016-.894-.462-1.44-1.868-2.054-5.283-.711-3.954-1.231-5.527-2.139-6.49-.398-.422-.66-.876-.582-1.008.339-.578 1.198-1.633 1.27-1.56.044.042.294.735.556 1.538s.592 1.496.73 1.54c.33.103 1.766-1.2 2.52-2.29.326-.47.675-.855.774-.855s.328.291.513.648.592.746.905.865c.515.197.65.13 1.43-.703zm38.52 16.32c.11 0 .198.096.198.213s-.149.213-.332.213-.274-.096-.2-.213c.072-.117.222-.213.333-.213z"/></svg>