<svg xmlns="http://www.w3.org/2000/svg" viewBox="0 0 128 128"><path d="M69.01 2.156c-4.632 1.666-8.17 4.31-9.16 9.494l-.602.006-1.383-6.472c-.56.358-1.167.644-1.646 1.072-2.817 2.514-4.544 5.599-4.87 9.42-.04.463-.375 1.25-.624 1.27-.48.038-1.096-.253-1.471-.606-.758-.712-1.363-1.586-2.084-2.342-4.34-4.557-9.441-7.528-15.95-7.135-4.921.296-9.123 2.146-11.947 6.205 2.418.913 4.86 1.58 7.05 2.727 2.75 1.438 3.39 3.488 3.083 6.473-.172 1.675-.953 2.046-2.394 2.271-4.99.783-7.362 4.624-5.89 9.441.302.991.619 2.07 1.251 2.848 2.279 2.806 1.78 5.98 1.482 9.162-.142 1.51-.855 2.577-2.062 3.512-5.025 3.894-5.15 9.322-.18 13.348 2.034 1.647 4.366 2.98 6.703 4.183 3.192 1.644 4.458 4.276 4.448 7.656-.01 2.77-.131 5.54-.29 8.303-.112 1.963-.374 3.918-.568 5.877l-.562.154c-1.15-1.563-2.466-3.035-3.408-4.716-.934-1.666-1.492-3.543-2.215-5.327-7.41 6.106-7.612 23.634 4.232 29.04 1.657.757 2.725 1.794 3.643 3.341 3.153 5.313 7.816 8.55 13.953 9.612a4.8 4.8 0 0 1 1.828.738c8.158 5.494 21.059 5.514 29.176.037.492-.333 1.063-.658 1.635-.748 6.824-1.08 11.666-4.853 14.958-10.818.303-.548.8-1.147 1.35-1.375 7.023-2.9 10.428-8.298 10.893-15.705.343-5.461-1.124-10.298-5.282-14.41-.854 4.178-2.69 7.553-6.277 10.222-.177-5.156-.494-10.313-.476-15.467.008-2.727 1.472-4.794 3.962-6.209 2.712-1.54 5.518-3.079 7.83-5.127 4.158-3.682 3.74-8.943-.59-12.394-.708-.564-1.706-1.162-1.896-1.914-.856-3.39-1.63-6.816.46-10.14a16.5 16.5 0 0 0 1.874-4.177c1.174-4.106-.786-7.507-4.894-8.716-.703-.208-1.473-.215-2.155-.465-.43-.158-1.02-.55-1.09-.92-.77-4.112-.255-5.845 2.961-7.678 1.518-.865 3.288-1.293 4.96-1.879.645-.227 1.334-.338 2.062-.517C105 7.948 98.218 5.687 91.482 7.357 86.2 8.667 82.404 12.07 78.98 16.05c-.402.469-1.119.921-1.7.933-1.589.033-1.935-1.151-1.658-2.4.538-2.434 1.24-4.83 1.889-7.293-3.005-.079-5.3 1.83-7.936 3.668-.314-1.627-.72-2.984-.803-4.36-.085-1.434.142-2.889.239-4.44zm26.812 13.54c-.406 2.528-.752 4.746-1.12 6.96-.188 1.122-.542 1.898-1.884 2.352-2.002.677-2.708-.757-3.513-1.801-.39-.503-.23-1.685.062-2.408.951-2.367 2.53-4.192 5.121-4.885.501-.133 1.026-.17 1.334-.219zm-63.7.1c3.102-.016 7.241 3.488 6.954 6.415-.106 1.082-1.493 2.513-2.6 2.883-1.05.352-2.734-.112-3.068-1.864-.159-.84-.275-1.687-.422-2.529-.279-1.604-.566-3.206-.865-4.904zM39 47.224c3 2.267 7.195 4.497 9.861 7.582.241.269.491.525.711.81.143.181.239.404.344.598C46.401 58.933 39 57.228 39 51.848zm50 .004v4.628c0 5.267-7.266 7.101-10.982 4.313l1.1-1.328C81.78 51.746 85 49.518 89 47.227zm13.926 38.685c1.542 4.99 1.67 9.89-1.235 14.322-3.119 4.76-7.967 6.416-13.492 6.758l.512-4.113-3.291-6.277c6.896-.786 13.522-2.422 17.018-9.588zm-77.776.205c.043.008.045.217.065.334 3.477 7.423 10.11 9.432 17.412 10.117l-3.397 6.313.625 4.195c-1.693-.292-3.354-.439-4.937-.873-6.886-1.888-10.737-6.76-10.86-13.892-.034-2.043.442-4.097.704-6.143.005-.039.262-.078.388-.05zm28.28 17.07c.983-.002 1.967.004 2.949.034 2.2.065 2.648.759 2.016 2.922-.746 1.048-1.455 2.125-2.247 3.138-1.853 2.37-4.484 2.518-6.695.41-.705-.67-1.392-1.364-2.086-2.045l.004.01-.38-.383c-.814-3.93-.732-4.032 3.488-4.064.984-.008 1.967-.02 2.95-.022zm25.086.024c3.065.035 3.569.82 2.441 3.72l-.398.717.005-.003-.005.005c-.53.575-1.045 1.164-1.594 1.721-2.498 2.536-5.239 2.372-7.4-.459-.698-.914-1.33-1.877-1.99-2.818-.59-2.115-.098-2.83 2.11-2.877 2.277-.05 4.555-.031 6.83-.006z"/></svg>