<svg xmlns="http://www.w3.org/2000/svg" viewBox="0 0 128 128"><path d="M85.67 2.447c-.683-.048-1.333.615-2.613 1.946-1.448 1.504-2.771 3.15-4.342 4.511-5.813 5.038-9.898 11.006-10.694 18.873-.183 1.805-1.173 2.457-3.068 2.485-6.256.09-12.52.263-18.762.674-3.093.203-6.147.997-9.22 1.523l-.028 1.148c1.923.593 3.81 1.373 5.774 1.75 10.944 2.098 21.99 2.458 33.054 1.391 4.362-.421 8.673-1.445 12.987-2.291.813-.159 1.535-.779 2.299-1.186-1.007-.885-1.88-1.31-2.79-1.417-4.53-.535-9.076-.947-13.603-1.508-.684-.085-1.904-.928-1.853-1.082 1.32-3.98 1.255-8.486 4.253-11.84 3.79-4.24 7.617-8.444 11.416-12.649-1.413-1.52-2.127-2.28-2.81-2.328zM65.775 34h6.5c-2.477 2-4.523 2-6.5 0zm-28.81 1.459c.877 9.232 1.747 18.413 2.637 27.799 1.45-2.495 2.502-4.89 4.086-6.85 1.474-1.826 3.334-3.51 5.357-4.678 2.64-1.524 6.103-.087 6.959 2.616.23.725-.32 1.695-.512 2.554-.646-.34-1.478-.528-1.9-1.05-1.793-2.217-2.873-2.479-4.856-.563-3.699 3.576-5.78 8.057-6.574 13.092-.153.974.458 2.065.715 3.103 1.011-.348 2.185-.476 3.002-1.084 2.656-1.977 4.3-4.664 5.209-7.878.197-.696 1.265-1.146 1.933-1.71.32.659 1.05 1.435.897 1.956a374 374 0 0 1-4.535 14.427c-.162.484-1.053.726-1.606 1.08-.223-.636-.692-1.303-.617-1.902.168-1.358.605-2.682.91-3.926l-7.24 3.332c.405 4.622.826 9.809 1.324 14.987.382 3.954 1.028 4.976 4.922 5.726 4.544.875 9.174 1.436 13.793 1.776A60.4 60.4 0 0 0 81.1 96.36c2.473-.664 3.458-2.29 3.635-4.716.162-2.235.525-4.457.776-6.686.493-4.391.97-8.782 1.474-13.357-1.667 1.056-2.976 2.237-4.51 2.738-1.115.365-2.523-.169-3.802-.303.245-1.174.229-2.496.795-3.486.922-1.618 2.223-3.022 3.363-4.516l-.49-.592c-.817.483-1.831.802-2.412 1.487-1.182 1.394-2.34 2.885-3.131 4.52-1.324 2.734-2.333 5.621-3.518 8.425-.515 1.216-.958 3.075-2.683 2.365-1.845-.76-.549-2.385-.116-3.54.69-1.845 1.6-3.608 2.215-4.964-1.746.208-3.515.46-5.293.616-.752.064-1.646-.349-2.261-.07-2.045.923-3.341.552-3.766-1.712-.947.615-1.748 1.448-2.693 1.672-1.147.273-2.703.452-3.543-.12-.673-.46-.92-2.184-.69-3.196.457-2.012 1.312-3.947 2.123-5.86.502-1.185 1.007-3.077 2.701-2.254 1.674.813.154 2.187-.232 3.288-.599 1.702-1.208 3.4-1.812 5.1l.959.58c.913-.795 2.053-1.44 2.693-2.415 1.048-1.592 1.682-3.452 2.674-5.086.41-.677 1.295-1.065 1.966-1.584.136.862.462 1.748.354 2.58-.107.841-.697 1.61-.98 2.442-.425 1.246-.77 2.52-1.202 3.969 2.043.078 2.92-.782 3.496-2.3 1.826-4.792 3.671-9.58 5.678-14.298.343-.808 1.51-1.265 2.297-1.885.091.974.526 2.078.217 2.899-1.645 4.349-3.493 8.62-5.229 12.935-.293.727-.387 1.535-.572 2.305 3.06-1.375 5.611-2.896 6.543-6.147.228-.79 1.163-1.377 1.772-2.058l1.416 1.5c.43-.362.824-.773 1.29-1.075 1.47-.946 3.054-1.783 4.604-.316 1.604 1.517.39 2.997-.447 4.309-.912 1.43-2.03 2.73-3.059 4.086 2.312-1.49 5.47-2.16 5.89-5.38 1.025-7.864 1.924-15.745 2.837-23.624.27-2.332.416-4.68.627-7.11-18.21 4.41-36.03 4.437-54.088-.068zm7.816 61.37c.877 2.316 2.21 4.593 2.559 7.01.737 5.148.923 10.372 1.445 15.554.076.755.566 1.793 1.176 2.125 8.98 4.88 18.047 5.725 27.209.388 1.367-.796 1.62-1.848 1.797-3.326.857-7.18-1.052-14.797 3.539-21.559-12.856 3.19-25.403 3.288-37.725-.193z"/></svg>