<svg xmlns="http://www.w3.org/2000/svg" viewBox="0 0 128 128"><path d="M49.443 48.23a18.4 18.4 0 0 0-3.037.032c-12.692 1.004-17.732 7.57-20.826 10.336-3.093 2.766-8.82 9.393-12.672 8.195s-4.924-5.84-3.562-7.314 2.427-1.21 3.256 0a6.4 6.4 0 0 1 .789 3.185 7.3 7.3 0 0 0 2.367-3.564c.47-2.05.368-4.035-2.367-5.428-6.935-3.503-11.413 2.744-12.11 4.209S-.5 61.65.258 66.936 3.525 77.077 11.525 78.95a33.7 33.7 0 0 0 22.538-2.633c7.006-3.34 20.182-9.22 23.5-9.812a28.8 28.8 0 0 1 6.443-.817 28.8 28.8 0 0 1 6.441.817c3.32.594 16.494 6.473 23.5 9.812a33.7 33.7 0 0 0 22.528 2.633c8-1.874 10.51-6.73 11.267-12.015.758-5.286-.327-7.58-1.023-9.055-.697-1.476-5.175-7.723-12.1-4.21-2.735 1.394-2.838 3.38-2.367 5.429a7.3 7.3 0 0 0 2.367 3.564 6.4 6.4 0 0 1 .799-3.246c.83-1.209 1.895-1.465 3.258 0s.287 6.164-3.565 7.363c-3.85 1.198-9.579-5.428-12.672-8.193-3.094-2.766-8.143-9.302-20.835-10.326a18.44 18.44 0 0 0-17.598 9.068 18.44 18.44 0 0 0-14.563-9.1z"/></svg>