<svg xmlns="http://www.w3.org/2000/svg" viewBox="0 0 128 128"><path d="M40.512 7.723 24.66 35.172 40.504 62.66l15.855-27.488zm.008 0 15.847 27.449h31.707l-15.86-27.45zm47.543 27.46L72.207 62.677l15.848 27.449 15.851-27.45zm-15.864 27.49-31.707.004 15.856 27.449h31.699zm-10.89 41.93c-1.89 0-3.286.027-4.504.097v16.813h2.71v-7.274h.126l5.23 7.274h3.41l-4.433-5.852c-.422-.55-.946-1.195-1.418-1.793 2.738-.3 4.758-2.02 4.758-4.707 0-3.34-2.39-4.558-5.88-4.558zm-27.508.027c-2.043 0-3.96.047-5.278.07v16.809c1.868.027 3.56.074 4.582.074 5.153.004 6.598-2.96 6.598-5.152 0-1.743-1.023-3.41-3.215-3.836v-.047c1.72-.598 2.864-2.117 2.864-3.836 0-2.59-1.891-4.082-5.551-4.082zm-31.485.074v16.809h2.711v-7.543h7.946v7.543h2.687v-16.809h-2.687v6.95H5.027v-6.95zm18.418 0v16.809h2.715v-16.809zm22.977 0v16.809h8.863v-2.317h-6.148v-5.226h5.851v-2.219h-5.851v-4.781h6.148v-2.266zm27.926 0v16.809h2.636v-5.653c0-2.39-.05-5.8-.148-7.445a36 36 0 0 0 1.867 3.535l5.75 9.563h3.512v-16.809h-2.637v4.98c0 2.466.07 6.075.172 7.993-.62-1.22-1.293-2.563-2.043-3.809l-5.55-9.164zm22.453 0-6.024 16.809h2.739l1.293-3.711h6.797l1.296 3.71h3.012l-6.101-16.808zm8.539 0v2.29h4.605v14.519h2.715v-14.52h4.63v-2.289zm14.758 0v16.809h8.863v-2.317h-6.148v-5.226h5.847v-2.219h-5.847v-4.781h6.148v-2.266zm-84.035 2.09c2.39.004 3.164.973 3.164 2.344 0 1.69-1.32 2.715-3.836 2.715-.57 0-.996 0-1.446-.028v-4.98a55 55 0 0 1 2.118-.051zm27.582.027c2.265 0 3.414.797 3.414 2.64 0 1.669-1.32 2.79-3.512 2.79-.441.004-.88-.017-1.32-.05v-5.329c.472-.03.945-.05 1.418-.05zm34.527.946h.047c.199.92.426 1.717.75 2.59l1.914 5.277h-5.379l1.894-5.203a20 20 0 0 0 .774-2.664zm-62.707 6.101c2.367 0 4.086.695 4.086 2.613 0 1.696-1.172 2.887-3.637 2.887-.87 0-1.543-.047-1.969-.125v-5.351c.375-.024 1.246-.024 1.52-.024z"/></svg>