<svg xmlns="http://www.w3.org/2000/svg" viewBox="0 0 128 128"><path d="M42.135.018a1.14 1.14 0 0 0-.9.81c-1.684 5.888.956 11.472 4.474 15.656a32 32 0 0 0 2.539 2.68 10.9 10.9 0 0 0-3.55.1C38.38 20.507 33.001 24.519 30.08 32.77c-.921 2.602-1.157 5.28-1.045 7.834-3.544.97-6.18 4.16-6.18 8.003 0 3.992 2.809 7.322 6.543 8.207l.137 64.26a3.06 3.06 0 0 0 1.412 2.57l.041.026c2.861 1.657 10.916 4.33 27.79 4.33 17.267 0 25.065-3.615 27.628-5.55l.04-.032a3.05 3.05 0 0 0 1.099-2.342c.01-1.837.01-6.06.01-8.558a.76.76 0 0 1 .228-.545l.002-.002a.76.76 0 0 1 .553-.217h.008c2.11.03 4.627.031 7.023.025a9.74 9.74 0 0 0 9.774-9.734V70.09a9.74 9.74 0 0 0-9.739-9.738H88.32a.75.75 0 0 1-.763-.764v-3.05l.037-.01h.004a8.39 8.39 0 0 0 7.228-8.3c0-4.356-3.358-7.952-7.617-8.34-.139-7.639-2.312-11.333-3.902-13.755l-.026-.037c-1.945-2.722-6.366-6.838-12.136-7.018-2.681-.084-4.49.66-5.997 1.354-1.16.535-2.245.943-3.57 1.173.008-6.857 5.037-10.568 5.037-10.568a1.144 1.144 0 0 0 .262-1.584s-.461-.652-1.113-1.383c-.65-.73-1.437-1.575-2.506-2.021a1.14 1.14 0 0 0-1.201.199 23 23 0 0 0-4.664 5.879c-.257.463-.482.97-.707 1.478-.493-1.63-1.16-3.145-2.036-4.54-2.415-3.85-6.314-6.74-11.886-8.98a1.14 1.14 0 0 0-.627-.065zm1.037 2.775c4.532 2.018 7.624 4.428 9.54 7.486 1.4 2.23 2.21 4.868 2.548 7.989.016.152.025.31.037.464v.002c.085.902.138 1.835.148 2.819-.33-.175-.724-.428-1.097-.655-.243-.148-.456-.254-.711-.423-1.953-1.284-4.253-3.17-6.18-5.46-2.944-3.503-4.987-7.784-4.285-12.222zm19.756 5.84c.376.285.755.539 1.129.959.183.205.171.215.31.387-1.77 1.643-5.704 6.102-5.076 13.084a1.144 1.144 0 0 0 1.18 1.04c2.503-.09 4.175-.921 5.634-1.593 1.46-.673 2.711-1.217 4.967-1.147 4.667.147 8.738 3.813 10.34 6.051 1.57 2.391 3.451 5.361 3.527 12.602a8.8 8.8 0 0 0-2.171.742c-1.607-3.64-5.228-6.194-9.45-6.194-4.792 0-8.801 3.299-9.972 7.73-1.763-2.055-4.317-3.421-7.23-3.421-2.58 0-4.849 1.1-6.579 2.762-.66-4.874-4.81-8.662-9.86-8.662v-.002c-3.447 0-6.474 1.766-8.259 4.44.132-1.314.373-2.622.818-3.88 2.713-7.663 7.225-10.905 12.903-12.023 1.956-.385 3.545-.058 5.28.508.869.283 1.763.631 2.724.964l.177.055c.91.31 1.876.605 2.934.809a1.144 1.144 0 0 0 1.344-1.313 13 13 0 0 1-.002-4.195c.045-.281.087-.565.148-.838.348-1.561.947-2.992 1.65-4.268a19.8 19.8 0 0 1 3.534-4.597zm-23.25 26.625v.002a7.692 7.692 0 0 1 7.265 10.263 1.144 1.144 0 0 0 .895 1.506l.027.006a1.144 1.144 0 0 0 1.235-.758l.002.004v-.006l.037-.02a7.32 7.32 0 0 1 6.976-5.095 7.32 7.32 0 0 1 6.957 5.041 1.144 1.144 0 0 0 2.225-.474 8.046 8.046 0 0 1 8.021-8.877 8.06 8.06 0 0 1 7.692 5.63 1.144 1.144 0 0 0 1.377.76l.802-.209a1.1 1.1 0 0 0 .274-.11 6 6 0 0 1 1.463-.589v.004a6 6 0 0 1 1.523-.197q.389.002.764.052v-.004a6.07 6.07 0 0 1 5.326 6.04 6.08 6.08 0 0 1-5.256 6.033h-.006l-.058.015a11.8 11.8 0 0 0-2.526.657 57 57 0 0 1-6.271 1.945 1.14 1.14 0 0 0-.863.994 6.8 6.8 0 0 1-.78 2.549l-.002.004a11.04 11.04 0 0 0-1.27 5.996l-.001-.096.004.826c0 .875-.313 1.465-.85 1.918-.535.454-1.34.746-2.293.746a3.123 3.123 0 0 1-3.14-3.14 4.28 4.28 0 0 0-2.024-3.639l-.012-.006a6.85 6.85 0 0 1-2.84-3.394 1.14 1.14 0 0 0-1.105-.733c-12.054.406-23.12-1.72-28.637-3.207l-.015-.006a48 48 0 0 0-4.453-1.033l-.018-.004c-2.83-.57-4.98-3.048-4.98-6.045a6.07 6.07 0 0 1 5.779-6.058l.094-.018a1.1 1.1 0 0 0 .437-.174v-.002a1.14 1.14 0 0 0 .647-.765 7.695 7.695 0 0 1 7.578-6.332zm45.59 21.894v2.436a3.07 3.07 0 0 0 3.054 3.053h7.084a7.45 7.45 0 0 1 7.451 7.449v30.955a7.46 7.46 0 0 1-2.193 5.277 7.45 7.45 0 0 1-3.82 2.033 7.5 7.5 0 0 1-1.465.141h-.008c-2.389.005-4.896 0-6.986-.027a3.055 3.055 0 0 0-3.115 3.05c0 2.5-.001 6.734-.01 8.553v.004a.76.76 0 0 1-.266.57c-1.156.863-4.512 2.63-10.99 3.83a65 65 0 0 1-4.27.641c-3.104.368-6.737.598-10.957.598-16.572 0-24.46-2.78-26.605-4.01a.76.76 0 0 1-.35-.633l-.138-63.761q1.157.261 2.3.584l.014.003c5.603 1.511 16.502 3.582 28.568 3.28.77 1.572 1.95 2.906 3.442 3.808l-.014-.007c.523.324.947 1.19.947 1.695a5.444 5.444 0 0 0 5.424 5.428c1.417 0 2.757-.428 3.772-1.286s1.66-2.172 1.66-3.664l-.004-.806-.004-.094a8.75 8.75 0 0 1 1.004-4.75V61.5c.433-.804.707-1.695.883-2.62 1.882-.493 3.755-1.047 5.592-1.728zm-49.225 5.412v51.163a1.91 1.91 0 0 0 .955 1.656c2.416 1.152 9.428 3.9 21.717 3.9 12.372 0 19.171-3.342 21.45-4.719a1.9 1.9 0 0 0 .872-1.597c.004-5.664.006-27.954.006-42.168-.051.13-.1.263-.156.392a8.3 8.3 0 0 1-1.073 1.813 6.8 6.8 0 0 1-.972 1.014 9.2 9.2 0 0 1-2.278 1.418 10.2 10.2 0 0 1-3.35.826q-.424.033-.849.033h-.011a9.3 9.3 0 0 1-1.762-.176 9.2 9.2 0 0 1-3.156-1.264 9.5 9.5 0 0 1-1.934-1.62 10 10 0 0 1-1.031-1.339 10 10 0 0 1-1.09-2.32 10 10 0 0 1-.387-1.703 14 14 0 0 1-1.418-1.187 13 13 0 0 1-1.222-1.36 107 107 0 0 1-10.647-.513q-1.641-.164-3.186-.362c-.444-.057-.859-.122-1.29-.183a3 3 0 0 1 .058.29v45.745a2.6 2.6 0 0 1-.031.412 2.6 2.6 0 0 1-.098.402 2.6 2.6 0 0 1-.154.383 2.6 2.6 0 0 1-.22.352 3 3 0 0 1-.268.312 3 3 0 0 1-.313.268 2.6 2.6 0 0 1-.353.218 3 3 0 0 1-.381.157 2.6 2.6 0 0 1-.403.097 2.6 2.6 0 0 1-.412.032 2.6 2.6 0 0 1-1.008-.202 2.6 2.6 0 0 1-.851-.57 2.6 2.6 0 0 1-.568-.852 2.6 2.6 0 0 1-.204-1.01V64.558a2.6 2.6 0 0 1 .204-1.006l.058-.09c-.713-.136-1.418-.272-2.08-.412a99 99 0 0 1-2.164-.485zm52.756 5.44a3.5 3.5 0 0 0-1.352.27 3.5 3.5 0 0 0-1.144.763 3.5 3.5 0 0 0-.766 1.147 3.5 3.5 0 0 0-.27 1.35v27.78a3.5 3.5 0 0 0 .27 1.354 3.5 3.5 0 0 0 .766 1.144 3.5 3.5 0 0 0 1.144.764 3.5 3.5 0 0 0 1.352.27h6.082a3.5 3.5 0 0 0 1.351-.27 3.5 3.5 0 0 0 1.147-.763 3.5 3.5 0 0 0 .764-1.145 3.5 3.5 0 0 0 .27-1.354V71.535a3.5 3.5 0 0 0-.27-1.35 3.5 3.5 0 0 0-.764-1.146 3.5 3.5 0 0 0-1.149-.766 3.5 3.5 0 0 0-1.35-.27zm-25.092.459c.058.04.008.035.08.08l.006-.008c-.032-.02-.054-.053-.086-.072zm25.092 1.83h6.082a1.244 1.244 0 0 1 1.242 1.24v27.781a1.243 1.243 0 0 1-1.242 1.245H88.8a1.24 1.24 0 0 1-.88-.364h-.001a1.24 1.24 0 0 1-.363-.879v-27.78a1.24 1.24 0 0 1 .767-1.15q.226-.092.475-.093z"/></svg>