<svg xmlns="http://www.w3.org/2000/svg" viewBox="0 0 128 128"><path d="M47.6 47.762a5.07 5.07 0 0 0-2.7.838l-8.2 5.1c-1.9 1.2-3 3.2-3 5.4v10.2c0 2 1.1 3.9 2.8 4.9l8.8 5.1c.8.4 1.6.7 2.5.7q1.2 0 2.4-.6l9.6-5.3c1.6-.9 2.6-2.6 2.6-4.5L62.2 58c0-1.6-.8-3-2.2-3.8l-9.7-5.7a5.2 5.2 0 0 0-2.7-.738zm32.1.289a4.76 4.76 0 0 0-2.4.549c-.1.1-.2.1-.4.2l-8.2 4.9c-2 1.2-3.3 3.4-3.3 5.8v9.9c0 2 1.1 4 2.9 5l8.8 5.1c.7.4 1.6.6 2.4.6s1.6-.2 2.3-.6l9.8-5.4c1.5-.9 2.5-2.5 2.5-4.2V58.1c.1-1.6-.8-3.1-2.2-3.9l-9.8-5.5a5.5 5.5 0 0 0-2.4-.65zm-63.65.011c-.95.013-1.9.288-2.75.838l-8.5 5.3C3 55.2 2 57 2 59v10.8c0 2 1.1 3.8 2.8 4.8l8.7 5c.8.5 1.7.7 2.6.7s1.8-.2 2.5-.7l9.4-5.3c1.6-.9 2.6-2.6 2.6-4.5V58.4c.1-1.7-.9-3.3-2.3-4.1l-9.5-5.5c-.85-.5-1.8-.75-2.75-.737zm95.4.1a5.6 5.6 0 0 0-2.85.838l-8.2 4.9c-1.9 1.2-3.1 3.3-3.1 5.5v10c0 2.1 1.1 4 2.9 5.1l8.8 5.1c.7.4 1.5.6 2.3.6s1.5-.2 2.2-.6l10-5.5c1.4-.8 2.3-2.3 2.3-3.9v-12c.2-1.6-.7-3.2-2.2-4l-9.3-5.3c-.9-.5-1.876-.75-2.85-.738zm.25 6.938c4.9 0 8.9 4 8.9 8.9s-4 8.8-8.9 8.8-8.9-4-8.9-8.8 4-8.9 8.9-8.9zm-31.5.1c2.8 0 5.7 1.3 7.5 4L85 61.3c-1.1-2.1-2.7-2.8-5.1-2.8-2.6-.1-5.4 2.4-5.2 5.6.1 1.8 1 5 5.1 5.5 2.2.3 4.6-2 4.6-3.2h-4v-3.1h7.7v.6c0 3.9-.7 5.1-2.2 6.7s-3.5 2.3-5.9 2.3c-2.2 0-4-.8-5.6-2.2-1.7-1.5-3-3.9-3-6.6 0-2.6 1-4.9 2.7-6.5 1.5-1.5 3.8-2.4 6.1-2.4zm-70.5.2h3.6v6.3h6v-6.3h3.6v17.3h-3.6v-7.5h-6v7.5H9.7zm31.7.6h3.5v9.3c0 1.5 0 2.4.1 2.9.1.7.4 1.2.9 1.6s1.1.5 2.1.5c.9 0 1.2-.2 1.7-.5.5-.4.8-.8.8-1.4.1-.6.3-1.6.3-2.9V56h3.5v9c0 2.1-.1 3.5-.3 4.4-.2.8-.5 1.6-1 2.2s-1.1 1.1-1.9 1.4-1.8.5-3.1.5c-1.6 0-2.7-.2-3.5-.6s-1.4-.9-1.9-1.5-.8-1.2-.9-1.9c-.2-1-.3-2.5-.3-4.4zm70.3 2.4c-3.1 0-5.6 2.5-5.6 5.6s2.5 5.6 5.6 5.6 5.6-2.5 5.6-5.6c0-1.5-.6-2.9-1.6-3.9-1.1-1-2.5-1.7-4-1.7z"/></svg>