<svg xmlns="http://www.w3.org/2000/svg" viewBox="0 0 128 128"><path d="M63.527.723c-12.962 0-23.468 10.507-23.466 23.47q0 .552.027 1.1a23.49 23.49 0 0 1-15.479 15.025c-.22-.006-.44-.017-.66-.017C10.986 40.3.48 50.81.48 63.77c0 12.67 10.04 22.988 22.598 23.447 8.885 2.07 15.834 9.17 17.654 18.148.802 12.234 10.975 21.91 23.41 21.91 12.549 0 22.795-9.845 23.438-22.23a23.49 23.49 0 0 1 15.178-17.057c.43.022.86.037 1.295.037 12.96 0 23.468-10.507 23.468-23.468 0-11.806-8.719-21.571-20.068-23.22l-.04-.038c-10.818-1.23-19.398-9.814-20.63-20.631l-.058-.059C85 9.35 75.269.723 63.527.723zm1.176 46.908c8.667.3 15.608 7.4 15.608 16.14 0 .12-.011.24-.014.36-.187 8.444-6.836 15.29-15.201 15.78-.18.057-.363.108-.543.163-.185-.046-.372-.088-.555-.138-8.536-.072-15.492-6.76-15.994-15.19-.04-.12-.073-.246-.111-.369.03-.117.053-.24.086-.356 0-.083-.008-.165-.008-.25l.002-.001c0-8.32 6.286-15.165 14.367-16.063.127-.014.257-.021.387-.033.146-.013.294-.016.441-.024.12.003.237.01.357.01a23 23 0 0 0 1.178-.03z"/></svg>