<svg xmlns="http://www.w3.org/2000/svg" width="128" height="128" viewBox="0 0 128 128"><path d="M70.633 3.964c-2.743 0-4.423.729-4.954 2.185l-.038.09v.032l-.066.168a2.46 2.474 0 0 0-.121.74 2.133 2.144 0 0 0 .04.367 18 18 0 0 1 .308 3.274c0 1.102-.104 2.184-.284 3.118L31.156 104.21l-.443 1.12.07.046.025-.097a14.272 14.35 0 0 0-.505 3.81c0 7.802 6.253 14.134 13.96 14.134h.008l-.021-.033h.032c5.409-.023 10.099-3.127 12.482-7.754l.078.03 34.695-91.535.042-.079a19.193 19.298 0 0 1 4.082-4.618l.006-.007a3.773 3.794 0 0 0 .732-.811l.075-.078.155-.227c.657-1.704-.516-3.703-3.429-5.925-2.936-2.128-6.147-3.883-9.85-5.303a37.566 37.772 0 0 0-12.717-2.92zM83.35 6.883l.077.026-.251-.099zm9.849 5.303.082.058-.126-.091zM70.55 6.34h.102c4.154.27 8.12 1.23 11.54 2.68l.268.09a38.878 39.091 0 0 1 9.059 4.877c2.434 1.862 2.736 2.913 2.736 3.21 0 .07-.038.07-.099.148l-.082.076-.032.033a21.818 21.937 0 0 0-4.764 5.631L55.114 112.98l-.131.302-.028.084c-1.667 4.324-5.825 7.389-10.689 7.389h-.064a10.99 11.051 0 0 1-4.068-.759l-.077-.033a11.68 11.744 0 0 1-7.331-10.92 11.483 11.546 0 0 1 .712-4.047l.101-.25-.006-.012 34.162-90.017c.3-1.359.459-2.773.459-4.22 0-1.178-.102-2.331-.282-3.338v-.192c.108-.22.763-.627 2.679-.627zm-2.854 8.376-.018.102.026-.128zm6.122-5.812c-1.102.003-1.832.235-2.017.72l-.033-.005c-.5 1.32 3.1 3.931 8.01 5.844 4.908 1.914 9.33 2.397 9.818 1.102.486-1.303-3.084-3.886-8.005-5.819-3.073-1.204-5.937-1.844-7.773-1.842zm3.652 38.659a34.613 34.803 0 0 1-8.88 7.409l-.165.09c-4.646 1.257-8.432 2.539-12.123 4.02l.735-.264a18.373 18.474 0 0 0-5.794 5.412l-.038.06-15.783 41.537a9.35 9.402 0 0 0-.5 3.084 9.556 9.608 0 0 0 5.958 8.92l.066.025a9 9 0 0 0 3.268.605 9.252 9.303 0 0 0 8.548-5.783l.02-.072zM55.652 64.624a.99.996 0 0 1 0 1.991 1 1.006 0 0 1-.89-.569l-.005-.005a.984.99 0 0 1-.092-.417c0-.4.23-.749.57-.904l.007-.007h.012a.886.89 0 0 1 .398-.089zm6.503 6.796a1.476 1.484 0 0 1 1.5 1.484 1.476 1.484 0 0 1-1.474 1.49 1.46 1.468 0 0 1-1.345-.89l-.007-.006a1.488 1.496 0 0 1 .744-1.96l.013-.004v.011a1.476 1.484 0 0 1 .569-.125zm-9.958 7.356a2.822 2.837 0 0 1 2.551 1.637l.009.011c.128.322.205.683.205 1.075a2.826 2.842 0 0 1-5.36 1.287l-.006-.008h.07a2.88 2.896 0 0 1 1.391-3.76l.018-.006a2.789 2.804 0 0 1 1.122-.237zm-4.51 6.603c.59 0 1.102.355 1.333.863l.007.013c.082.173.14.392.14.618a1.394 1.402 0 0 1-.897 1.315h-.006v.053a1.476 1.484 0 0 1-2.057-1.374 1.476 1.484 0 0 1 1.48-1.488zm5.959 11.72c.397 0 .738.232.89.578l.007.008c.05.116.09.251.09.393a.99.996 0 0 1-1.902.406l-.007-.007a.984.99 0 0 1-.07-.38c0-.412.236-.761.582-.916h.006a.919.924 0 0 1 .404-.083z"/></svg>