<svg xmlns="http://www.w3.org/2000/svg" viewBox="0 0 128 128"><path d="M63.617.5a14.57 14.57 0 0 0-7.271 2.025l.508.86A13.57 13.57 0 0 1 63.62 1.5h.369c2.26.04 4.475.644 6.444 1.756l.246-.436h.002l-.248.436 42.623 24.072a15.3 15.3 0 0 1 4.334 3.664l.656.877.01.014.064.092v.002l.71 1.158h-.003c1.016 1.848 1.572 3.858 1.594 5.896v48.942a13.6 13.6 0 0 1-1.758 6.806v.002a13.6 13.6 0 0 1-4.924 5.02l-42.16 24.875.256.43h-.002l-.254-.43a13.5 13.5 0 0 1-5.498 1.806l-2.629.018a13.6 13.6 0 0 1-5.455-1.697l-44.78-25.297A9.27 9.27 0 0 1 8.5 91.512V39.688c.024-1.763.332-3.459.906-5.016l1.147-2.356a12.04 12.04 0 0 1 4.138-4.06l42.16-24.87-.253-.43-.254-.43-42.16 24.869a13.04 13.04 0 0 0-4.495 4.412l-.023.043-1.17 2.404-.02.045h.003c-.624 1.68-.953 3.5-.979 5.38v51.837a10.28 10.28 0 0 0 5.225 8.86l.002.003 44.78 25.293a14.6 14.6 0 0 0 5.868 1.826l.045-.498-.043.498.047.002 2.693-.018.047-.002a14.55 14.55 0 0 0 5.926-1.945l42.158-24.875a14.6 14.6 0 0 0 5.287-5.389 14.6 14.6 0 0 0 1.887-7.304v-48.94c-.023-2.217-.627-4.39-1.717-6.375l-.012-.02-.736-1.202-.016-.026-.074-.107-.01-.014-.677-.904-.4.299.4-.301-.012-.014v-.002h-.002a16.3 16.3 0 0 0-4.617-3.904L70.926 2.385A14.6 14.6 0 0 0 64 .5l-.01.5.008-.5zm.026 2.666a11.9 11.9 0 0 0-5.944 1.656l-42.158 24.87h-.002a10.4 10.4 0 0 0-3.324 3.122l.394.266v.002h-.002l-.021-.016-.371-.252-.004.006-.186.282a.5.5 0 0 0 .174.709l18.924 10.595a.5.5 0 0 0 .647-.14l.19-.26.007-.008a7.6 7.6 0 0 1 1.943-1.78l.233-.144.007-.004 25.534-15.064a8.55 8.55 0 0 1 4.267-1.19 8.55 8.55 0 0 1 4.29 1.108h.001l25.82 14.584a9.6 9.6 0 0 1 2.276 1.793l.174.191a.5.5 0 0 0 .627.094l18.578-11.096a.5.5 0 0 0 .119-.76l-.203-.232-.334.293v-.002l.334-.291-.006-.006a13.6 13.6 0 0 0-3.076-2.53l-.004-.001-.305-.18-.006-.004-42.62-24.07a11.9 11.9 0 0 0-5.973-1.541zm.01 1a10.9 10.9 0 0 1 5.47 1.412v-.002l42.615 24.069.006.003.291.172.004.002c.971.584 1.845 1.31 2.625 2.131L96.957 42.53a10.6 10.6 0 0 0-2.402-1.89L68.732 26.053a9.55 9.55 0 0 0-4.79-1.237 9.55 9.55 0 0 0-4.766 1.329l-25.54 15.068.253.432-.041-.069-.213-.363-.006.004-.25.152-.008.006a8.6 8.6 0 0 0-2.127 1.953L13.18 33.213a9.4 9.4 0 0 1 2.869-2.66L58.207 5.682a10.9 10.9 0 0 1 5.445-1.516zm53.46 29.617a.5.5 0 0 0-.392.049L98.105 44.949v.002a.5.5 0 0 0-.193.647l.037.078.002.006c.431.93.682 1.916.73 2.922l.003.01.007.27v.014l-.002 29.627h.6l-.2.002h-.4v.004h.002a8.55 8.55 0 0 1-1.105 4.29v.001a8.55 8.55 0 0 1-3.104 3.16l-25.54 15.069c-.83.49-1.738.835-2.684 1.02v.001l-.213.037v.002a.5.5 0 0 0-.41.493l.004 2.105v.002l.01 12.207v.002l-.018 7.162v.006l-.002.201.498.006v.002l-.498-.006a.5.5 0 0 0 .568.502v-.002l.399-.057h.009v-.002h.002a11.9 11.9 0 0 0 3.803-1.308l.002-.002.006-.002.309-.178v.002l.007-.004v-.002l42.159-24.875a11.9 11.9 0 0 0 4.318-4.4h.002v-.002a11.93 11.93 0 0 0 1.54-5.98V39.04l-.333.004h-.166l.5-.006c-.016-1.593-.419-3.177-1.154-4.658l-.004-.008-.385.201-.037.018-.002-.002.424-.219-.174-.338a.5.5 0 0 0-.309-.25zm-.347 1.188c.628 1.312.974 2.696.988 4.074v48.941a10.94 10.94 0 0 1-1.412 5.483v.002a10.9 10.9 0 0 1-3.957 4.033l-42.153 24.87-.007.005-.295.168-.006.002a10.9 10.9 0 0 1-3.291 1.133l.015-6.762h-.5v-.002h.5l-.01-12.209v-.002l-.003-1.725a9.5 9.5 0 0 0 2.814-1.07L94.99 86.844a9.55 9.55 0 0 0 3.465-3.531 9.55 9.55 0 0 0 1.234-4.788v-29.64h.002v-.014l-.437.014-.063.002v-.002l.5-.016-.01-.293h.003l-.002-.01-.416.022-.082.002.498-.024a8.9 8.9 0 0 0-.735-2.955zm-105.643.36a.5.5 0 0 0-.293.314h.002l-.096.3-.002.004a13.8 13.8 0 0 0-.566 4.127v51.426l.5-.004-.5.006a7.6 7.6 0 0 0 1.055 3.793 7.6 7.6 0 0 0 2.812 2.758l44.783 25.295h.002a11.9 11.9 0 0 0 4.49 1.46h.008l.037-.376.012-.112-.049.489.092.01h.002a.5.5 0 0 0 .549-.495h.002l.01-2.176h-.002v-.002h.002l.01-9.125-.014-10.359h-.002a.5.5 0 0 0-.455-.494v-.002h-.002l-.037-.004a8.6 8.6 0 0 1-2.518-.738l-.006-.002-.004-.002-.304-.152-.256-.137.002-.002-27.131-15.322-.246.433.244-.433a5.94 5.94 0 0 1-2.197-2.157 5.96 5.96 0 0 1-.827-2.974V49.525c-.01-.943.11-1.86.35-2.72l.002-.006.086-.285a.5.5 0 0 0-.236-.58v.002l-18.88-10.579a.5.5 0 0 0-.429-.027zm.027.743h.002v.002h-.002zm.5.485 17.957 10.06a10.7 10.7 0 0 0-.377 2.91v31.153a6.96 6.96 0 0 0 .963 3.478h.002a6.94 6.94 0 0 0 2.569 2.52v-.002l27.129 15.324h.002l.005.004.278.15h.002l.015.01.223-.447-.22.447.314.156.008.004a9.6 9.6 0 0 0 2.449.75l.013 9.947-.01 9.122v.001l-.007 1.57a10.9 10.9 0 0 1-3.653-1.237L14.528 97.184l-.232.408.23-.408a6.6 6.6 0 0 1-2.441-2.395 6.6 6.6 0 0 1-.916-3.291V40.076h-.5l.1-.002h.4v-.004a12.8 12.8 0 0 1 .482-3.511zm52.592 3.851a4.2 4.2 0 0 0-2.088.56h-.002l-17.33 10.007a4.18 4.18 0 0 0-2.09 3.619v20.011a4.18 4.18 0 0 0 2.09 3.62l17.33 10.005a4.18 4.18 0 0 0 4.18 0l17.33-10.005a4.18 4.18 0 0 0 2.092-3.62V54.596a4.18 4.18 0 0 0-2.09-3.62h-.002v-.001L66.334 40.97h-.002a4.2 4.2 0 0 0-2.09-.56zm0 1a3.2 3.2 0 0 1 1.59.426l17.33 10.006.002.002a3.18 3.18 0 0 1 1.59 2.752v20.011a3.18 3.18 0 0 1-1.59 2.754h-.002l-17.33 10.006a3.18 3.18 0 0 1-3.18 0l-17.33-10.006a3.18 3.18 0 0 1-1.59-2.754V54.596a3.18 3.18 0 0 1 1.59-2.752v-.002l17.33-10.006a3.2 3.2 0 0 1 1.59-.426zM30.1 46.662l.064.02z"/></svg>