<svg xmlns="http://www.w3.org/2000/svg" viewBox="0 0 128 128"><path d="m72.287 1.313-2.412 3.324c-3.222 4.743-3.539 10.633-1.303 15.869 2.358 5.56 7.19 9.92 12.828 11.988l.702.242.308.1c.333.104.663.225 1.006.289 15.583 3.011 19.81-7.997 20.936-9.617-3.703 5.33-9.924 6.61-17.559 4.758a19 19 0 0 1-1.85-.57 23 23 0 0 1-2.191-.91 22.7 22.7 0 0 1-3.848-2.349c-6.832-5.184-11.075-15.07-6.617-23.124zM54.61 5.17l-4.466 6.305c-5.466 7.865-5.169 18.395-.905 26.714a35 35 0 0 0 2.416 4.036c.82 1.174 1.726 2.57 2.813 3.513.394.434.806.857 1.226 1.274l.325.318q.612.595 1.252 1.164l.05.043.012.014c.475.416.967.817 1.465 1.21l.332.26c.5.383 1.01.759 1.531 1.118l.045.033.697.46.332.22c.373.238.75.473 1.135.695l.16.092q.498.286 1.004.56l.356.188.703.363.105.049q.721.355 1.463.681l.324.133q.596.254 1.2.487l.513.187q.548.202 1.102.385l.5.158c.526.163 1.044.37 1.592.461 28.222 4.677 34.738-17.055 34.738-17.055-5.874 8.46-17.249 12.494-29.387 9.344a34 34 0 0 1-1.597-.46l-.48-.155a31 31 0 0 1-1.118-.387l-.504-.187a40 40 0 0 1-1.205-.485l-.324-.138a32 32 0 0 1-1.471-.686l-.74-.375-.426-.219q-.471-.257-.934-.527l-.222-.127a36 36 0 0 1-1.133-.69l-.342-.228-.73-.484a38 38 0 0 1-1.526-1.116l-.344-.27c-5.313-4.192-9.524-9.928-11.527-16.429-2.098-6.74-1.645-14.306 1.99-20.447zm-22.033 7.975-5.898 7.482c-7.56 10.863-6.617 24.997-.844 36.541l.424.82.27.52.167.299.301.539q.27.474.55.943l.315.52q.312.503.641 1l.271.421q.452.674.926 1.336l.028.036.156.21q.414.57.844 1.124l.318.404q.383.48.78.959l.298.355q.533.63 1.088 1.242l.021.024.041.045c.36.394.732.778 1.106 1.164l.353.357q.434.438.881.866l.362.341q.595.561 1.209 1.102l.02.016.208.18q.543.468 1.1.927l.455.361q.453.364.916.717l.488.371q.51.376 1.027.738l.375.266.104.072q.494.338.998.66l.432.288c.513.325 1.035.647 1.562.957l.432.244q.58.334 1.172.654l.648.336.84.438.193.093.344.166q.658.316 1.328.616l.281.125q.77.336 1.551.644l.38.148q.724.284 1.462.543l.184.065c.539.188 1.083.362 1.632.533l.395.117c.558.17 1.11.37 1.685.477 36.554 6.665 47.17-21.967 47.17-21.967-8.918 11.618-24.746 14.684-39.744 11.272-.568-.128-1.12-.307-1.674-.471l-.418-.125a51 51 0 0 1-1.61-.526l-.222-.08a51 51 0 0 1-1.421-.527l-.399-.154a43 43 0 0 1-1.533-.639l-.307-.137a61 61 0 0 1-1.295-.601l-.375-.18c-.336-.164-.668-.339-1-.51l-.668-.35a38 38 0 0 1-1.199-.673l-.404-.227a59 59 0 0 1-1.565-.957l-.42-.28a41 41 0 0 1-1.113-.74l-.357-.251a57 57 0 0 1-1.051-.76l-.467-.353a47 47 0 0 1-.947-.74l-.424-.34a62 62 0 0 1-1.182-.995l-.128-.109A50 50 0 0 1 43.398 60l-.35-.338q-.453-.429-.892-.873l-.35-.35a50 50 0 0 1-1.095-1.158l-.055-.058a44 44 0 0 1-1.11-1.264l-.29-.346a42 42 0 0 1-.8-.988l-.294-.363a53 53 0 0 1-.922-1.23c-8.326-11.359-11.319-27.022-4.664-39.887zm3.166 77.93c-8.306 0-11.913 5.98-13.289 12.484-1.376 6.55.427 12.293 8.686 12.246l6.515-.024 6.09-.021a.59.59 0 0 0 .533-.414l1.063-4.047c.059-.228-.085-.414-.32-.416l-1.016-.006-1.018-.006c-.199 0-.313-.132-.289-.303l.028-.093s2.3-5.589 2.822-8.815c.713-4.319-1.45-10.586-9.805-10.586zm85.746 2.394-1.34.008-.853.002h-3.549a.9.9 0 0 0-.668.353l-7.848 11.498c-.132.194-.283.166-.335-.062l-.579-2.534a.56.56 0 0 0-.521-.416h-5.045c-.235 0-.375.186-.31.41l2.261 7.92c.064.226.07.597.012.825l-.986 3.834c-.06.228.085.412.32.412h4.986a.58.58 0 0 0 .533-.412l.987-3.834a2.5 2.5 0 0 1 .361-.754l12.742-16.912c.142-.188.066-.34-.168-.338zm-43.302 2.543c-8.211 0-10.157 4.982-11.249 10.013-1.09 5.128-.997 9.922 7.5 9.922h1.03l.256-.002h.06l1.02-.002h.017c2.244-.009 4.496-.026 5.407-.033a.55.55 0 0 0 .51-.42l.343-1.681.066-.327.41-2.005a.335.335 0 0 0-.34-.418h-7.64c-3.039 0-3.94-.808-3.607-3.182h12.21v.002l.008-.002a.5.5 0 0 0 .446-.314l.027-.106v-.002c1.813-6.838 1.292-11.442-6.474-11.443zm-42.696.164c4.209.09 5.015 3.404 3.887 7.193l-.117.408v.002l-.922 3.268-.922 3.267a.6.6 0 0 1-.543.41h-4.88c-3.703 0-4.604-2.895-3.702-7.165.901-4.368 2.669-7.083 6.313-7.358q.465-.034.886-.025zm-19.027.07a.56.56 0 0 0-.522.416l-.439 1.942-.44 1.943c-.05.229.098.416.333.416h4.675a.56.56 0 0 0 .52-.418l.424-1.941.425-1.942c.05-.229-.1-.416-.335-.416zm33.851.049a.55.55 0 0 0-.513.418l-.934 4.424-.931 4.424-.002.005-.086.413c-1.074 4.903-.79 9.58 5.048 9.726l.17.004h9.163a.55.55 0 0 0 .515-.416l1.977-9.29 1.976-9.29c.05-.23-.103-.417-.338-.418h-4.226a.56.56 0 0 0-.518.418l-1.5 6.94-1.5 6.939a.554.554 0 0 1-.515.418h-2.99c-2.96 0-2.618-2.048-2.012-4.852l.017-.086.067-.353.011-.067.135-.718.147-.772.154-.785.682-3.332.681-3.332a.336.336 0 0 0-.34-.418zm40.012.049a.55.55 0 0 0-.515.418l-.172.814-.205.965-.057.272-1.76 8.24-1.67 7.82c-.05.23-.065.513-.037.627.028.115.479.209.713.209h3.523c.235 0 .533-.042.66-.094.129-.052.319-.513.366-.742l.625-3.1.627-3.1.002-.003.084-.414.76-3.56.67-3.143a.555.555 0 0 1 .515-.418l11.09-.004c.235.002.381-.185.328-.414l-.193-.803-.192-.818-.095-.414c-.38-1.477-1.496-2.328-3.918-2.328l-3.77-.004-3.473-.006zm-13.232 4.318c2.631 0 3.146 1.283 2.969 2.729a.514.514 0 0 1-.499.441h-6.396c-.222 0-.336-.15-.303-.336l.006-.016-.004.002.004-.02.03-.108c.61-1.624 1.854-2.692 4.193-2.692zM15.08 102.29a.56.56 0 0 0-.521.416l-.657 2.91-.656 2.91-.184.834-.63 2.97-.63 2.972a9 9 0 0 1-.226.82s-.873 2.6-2.342 2.57l-.183-.004-1.272-.023h-.002a.56.56 0 0 0-.523.406l-.484 2.04-.485 2.038c-.055.228.093.416.326.42.833.01 2.7.032 3.828.032 3.67 0 5.603-2.033 6.842-7.883l1.451-6.715 1.362-6.297a.33.33 0 0 0-.336-.416zm68.484 4.164a.28.28 0 0 1 .28.28.28.28 0 1 1-.56.001.28.28 0 0 1 .28-.28z"/></svg>