<svg xmlns="http://www.w3.org/2000/svg" viewBox="0 0 128 128"><path d="M101.902.008a7.5 7.5 0 0 0-4.136 1.46A7.6 7.6 0 0 0 95.136 5a7.64 7.64 0 0 0 1.985 8.219 7.53 7.53 0 0 0 3.953 1.914 7.5 7.5 0 0 0 4.34-.621 7.6 7.6 0 0 0 3.262-2.95 7.7 7.7 0 0 0 1.09-4.28l-.004-.005a7.63 7.63 0 0 0-2.438-5.273 7.5 7.5 0 0 0-5.422-1.996zm-36.16 10.668a49.27 49.27 0 0 0-28.672 9.219 49.9 49.9 0 0 0-18.1 24.253c9.133-10.878 26.682-18.265 46.78-18.265s37.652 7.367 46.766 18.265a49.95 49.95 0 0 0-18.102-24.253 49.27 49.27 0 0 0-28.672-9.22zm-44.387 1.486a5.5 5.5 0 0 0-1.632.154 5.6 5.6 0 0 0-2.79 1.664 5.6 5.6 0 0 0-1.406 2.95 5.63 5.63 0 0 0 2.618 5.672 5.53 5.53 0 0 0 3.14.816 5.56 5.56 0 0 0 3.863-1.82 5.66 5.66 0 0 0 .399-7.13A5.54 5.54 0 0 0 22.96 12.5a5.5 5.5 0 0 0-1.606-.338zm-2.363 66.361a49.95 49.95 0 0 0 18.102 24.254 49.25 49.25 0 0 0 28.676 9.215 49.28 49.28 0 0 0 28.675-9.215 49.9 49.9 0 0 0 18.094-24.254C103.406 89.426 85.855 96.79 65.758 96.79c-20.098 0-37.649-7.363-46.766-18.266zm10.21 30.307a9.47 9.47 0 0 0-6.147 1.822 9.6 9.6 0 0 0-3.328 4.453 9.73 9.73 0 0 0-.313 5.567 9.67 9.67 0 0 0 2.809 4.797 9.4 9.4 0 0 0 4.98 2.418 9.5 9.5 0 0 0 9.59-4.504 9.67 9.67 0 0 0 1.371-5.395 9.63 9.63 0 0 0-3.066-6.648 9.47 9.47 0 0 0-5.897-2.51z"/></svg>