<svg xmlns="http://www.w3.org/2000/svg" viewBox="0 0 128 128"><path d="M101.902.008a7.5 7.5 0 0 0-4.136 1.46A7.6 7.6 0 0 0 95.136 5a7.64 7.64 0 0 0 1.985 8.219 7.53 7.53 0 0 0 3.953 1.914 7.5 7.5 0 0 0 4.34-.621 7.6 7.6 0 0 0 3.262-2.95 7.7 7.7 0 0 0 1.09-4.28l-.004-.005a7.63 7.63 0 0 0-2.438-5.273 7.5 7.5 0 0 0-5.422-1.996zm-36.16 10.668a49.27 49.27 0 0 0-28.672 9.219 49.9 49.9 0 0 0-18.1 24.253c9.133-10.878 26.682-18.265 46.78-18.265s37.652 7.367 46.766 18.265a49.95 49.95 0 0 0-18.102-24.253 49.27 49.27 0 0 0-28.672-9.22zm-44.387 1.486a5.5 5.5 0 0 0-1.632.154 5.6 5.6 0 0 0-2.79 1.664 5.6 5.6 0 0 0-1.406 2.95 5.63 5.63 0 0 0 2.618 5.672 5.53 5.53 0 0 0 3.14.816 5.56 5.56 0 0 0 3.863-1.82 5.66 5.66 0 0 0 .399-7.13A5.54 5.54 0 0 0 22.96 12.5a5.5 5.5 0 0 0-1.606-.338zM87.223 48.38l-3.344.684v3.945h-2.984v2.215h2.933v8.863c-.187 1.496.293 3 1.34 4.21a4.8 4.8 0 0 0 1.707.97 5.4 5.4 0 0 0 2.02.27 9.8 9.8 0 0 0 3.058-.395l-.152-2.223a9 9 0 0 1-2.008.203c-1.898 0-2.57-1.147-2.57-3.144v-8.73h4.937V53.03h-4.937zm17.324 4.031c-5.757 0-9.281 3.906-9.281 8.852a6.5 6.5 0 0 0 .507 3.234c.45 1.036 1.161 1.98 2.086 2.766a9.5 9.5 0 0 0 3.274 1.785 10.9 10.9 0 0 0 3.87.48 19 19 0 0 0 6.59-1.015l-.62-2.246c-1.7.6-3.535.89-5.38.855a7.4 7.4 0 0 1-2.687-.308 6.5 6.5 0 0 1-2.285-1.223 5.26 5.26 0 0 1-1.465-1.906 4.45 4.45 0 0 1-.365-2.157h13.826a10 10 0 0 0 0-1.39c0-3.012-1.616-7.727-8.07-7.727zm-55.418.004a8.5 8.5 0 0 0-3.965.805c-1.214.578-2.23 1.43-2.934 2.476l-.156-2.883H38.91c.16 1.585.16 3.345.16 5.489v18.297h3.477V67.37a6.65 6.65 0 0 0 2.59 2.012 7.6 7.6 0 0 0 3.386.64c4.581 0 8.82-3 8.82-9.046 0-5.122-3.527-8.563-8.214-8.563zm76.887.023a5.96 5.96 0 0 0-3.184 1.102c-.903.656-1.563 1.555-1.883 2.566h-.148v-3.28h-3.04c.153 1.561.153 3.26.153 5.23l-.129.023v11.465h3.34v-8.922a8 8 0 0 1 .156-1.422c.102-1.035.617-2.004 1.453-2.722.832-.72 1.93-1.133 3.079-1.172a5.3 5.3 0 0 1 1.164 0v-2.867a4 4 0 0 0-.961 0zM5.43 53.419v13.64c0 3.883-.387 5.149-1.387 6.079-1.106.8-2.547 1.242-4.043 1.242l.387 2.219c2.316.023 4.562-.633 6.32-1.84.941-.926 1.645-1.988 2.063-3.133a7.2 7.2 0 0 0 .37-3.523V53.418zm22.718 0v9.605a3.3 3.3 0 0 1-.367 1.559 4 4 0 0 1-1.07 1.32 5.2 5.2 0 0 1-1.617.88 5.9 5.9 0 0 1-1.91.292c-3.172 0-4.305-1.992-4.305-4.972v-8.575h-3.52v9.157c0 5.508 3.625 6.859 6.672 6.859a8.55 8.55 0 0 0 3.668-.758c1.12-.508 2.055-1.254 2.711-2.16l.211 2.555h3.121c-.152-1.246-.152-2.68-.152-4.29l.074-.085V53.418zm31.243 0 7.265 14.646a2.3 2.3 0 0 1 .242.762 1.9 1.9 0 0 1-.293.695c-.684 1.254-1.72 2.356-3.02 3.223a10.3 10.3 0 0 1-3.124 1.418l.879 2.434c1.633-.304 3.144-.944 4.383-1.87 2.457-1.695 4.086-4.509 6.757-9.947l5.344-11.318H74.06l-3.903 9.316c-.48 1.133-.883 2.352-1.258 3.309-.316-.938-.8-2.195-1.25-3.242l-4.304-9.383-.051-.043zm44.941.922a6 6 0 0 1 2.102.394 5.1 5.1 0 0 1 1.718 1.082 4.14 4.14 0 0 1 1.032 1.579 3.6 3.6 0 0 1 .148 1.8H98.816c.028-1.242.61-2.422 1.633-3.32 1.02-.898 2.406-1.445 3.883-1.535zm-56.23.523c3.715 0 5.765 2.887 5.765 6.254 0 3.852-2.184 6.508-5.894 6.508-1.207 0-2.383-.348-3.336-1-.954-.648-1.634-1.555-1.934-2.578a6 6 0 0 1-.156-1.25v-2.883c.062-1.289.667-2.512 1.687-3.445 1.024-.93 2.398-1.5 3.868-1.606zm-29.11 23.66a49.95 49.95 0 0 0 18.102 24.254 49.25 49.25 0 0 0 28.676 9.215 49.28 49.28 0 0 0 28.675-9.215 49.9 49.9 0 0 0 18.094-24.254C103.406 89.426 85.855 96.79 65.758 96.79c-20.098 0-37.649-7.363-46.766-18.266zm10.21 30.307a9.47 9.47 0 0 0-6.147 1.822 9.6 9.6 0 0 0-3.328 4.453 9.73 9.73 0 0 0-.313 5.567 9.67 9.67 0 0 0 2.809 4.797 9.4 9.4 0 0 0 4.98 2.418 9.5 9.5 0 0 0 9.59-4.504 9.67 9.67 0 0 0 1.371-5.395 9.63 9.63 0 0 0-3.066-6.648 9.47 9.47 0 0 0-5.897-2.51z"/></svg>