<svg xmlns="http://www.w3.org/2000/svg" viewBox="0 0 128 128"><path d="M114.412 11.594v.002H13.484C6.027 11.596 0 17.724 0 25.18v77.638c0 7.457 6.028 13.484 13.588 13.586h100.824c7.458 0 13.486-6.027 13.588-13.586V25.18c-.102-7.457-6.13-13.586-13.588-13.586zm-50.94 13.101c2.389-.106 4.83.474 7.014 1.815 5.823 3.576 7.661 11.235 4.086 17.058a11.75 11.75 0 0 1-4.187 4.19V37.133a6.41 6.41 0 0 0-6.436-6.436c-3.575-.102-6.435 2.76-6.435 6.334v10.623c-5.823-3.575-7.661-11.235-4.086-17.058 2.234-3.639 6.064-5.723 10.045-5.9zm.477 9.272c1.737 0 3.065 1.43 3.065 3.064l-.104 26.766c0 1.736-1.428 3.062-3.062 3.062-1.737 0-3.067-1.428-3.067-3.062l.104-26.766c0-1.737 1.43-3.064 3.064-3.064zm7.455 40.103a2.88 2.88 0 0 1 1.739.451l23.29 13.485c1.534.818 2.045 2.76 1.126 4.19-.817 1.531-2.759 2.042-4.19 1.122L70.08 79.936c-1.533-.92-2.045-2.758-1.125-4.29h-.002a2.98 2.98 0 0 1 2.451-1.576zm-15.168.045c.994.055 1.927.573 2.502 1.531.92 1.532.408 3.473-1.125 4.29L34.527 93.318c-1.532.818-3.37.41-4.29-1.123-.818-1.533-.409-3.372 1.124-4.29L54.447 74.52a3.4 3.4 0 0 1 1.79-.406zm-23.24 4.188c2.043 0 4.087.509 5.926 1.531l-9.195 5.312c-3.065 1.737-4.086 5.72-2.35 8.786s5.72 4.086 8.785 2.35l9.195-5.313c-.102 6.742-5.619 12.054-12.36 12.156-6.845 0-12.464-5.515-12.464-12.36 0-6.946 5.62-12.462 12.463-12.462zm61.906 0c6.844 0 12.463 5.515 12.463 12.36s-5.619 12.36-12.463 12.462v.002c-6.742 0-12.258-5.416-12.359-12.158l9.191 5.312c3.065 1.737 7.05.716 8.786-2.35 1.737-3.063.715-7.048-2.35-8.785l-9.193-5.312a12.2 12.2 0 0 1 5.925-1.531z"/></svg>