<svg xmlns="http://www.w3.org/2000/svg" viewBox="0 0 128 128"><path d="M69.977.506c-.541-.045-1.148.162-1.29.469l-5.085 10.527-4.663-9.97C58.577.757 57.621.302 56.73.837l-1.202 1.037c-.73.669-1.263 1.393-.916 2.275l2.791 7.409c.061.161.07.34.022.505l-.813 2.868a.62.62 0 0 0 .149.601l2.912 3.067a24.9 24.9 0 0 0-10.647 4.59l-.035-4.483a.54.54 0 0 0-.275-.465l-2.881-1.588a.76.76 0 0 1-.334-.369l-3.129-7.338c-.192-.45-1.127-.727-1.734-.64l-2.192.238c-.629.195-1.183 1.078-1.027 1.5l3.848 11.039-10.348-3.754c-.804-.29-1.802.066-2.055 1.074l-.115 1.58c-.044.99.091 1.882.961 2.26l7.213 3.264a.8.8 0 0 1 .373.342l1.453 2.601a.63.63 0 0 0 .53.32l4.23.112a24.9 24.9 0 0 0-4.281 10.775l-3.198-3.148a.54.54 0 0 0-.523-.133l-3.158.914a.77.77 0 0 1-.5-.025l-7.4-2.977c-.455-.183-1.312.283-1.68.773l-1.381 1.72c-.307.582-.075 1.598.334 1.786l10.525 5.084-9.97 4.664c-.774.363-1.228 1.32-.694 2.211l1.037 1.2c.669.73 1.395 1.265 2.277.918l7.409-2.793a.8.8 0 0 1 .504-.02l2.867.813c.212.06.441.002.601-.149l3.069-2.912a24.9 24.9 0 0 0 4.59 10.645l-4.485.035a.53.53 0 0 0-.463.277L37.4 61.42a.77.77 0 0 1-.37.334l-7.339 3.129c-.45.192-.727 1.129-.64 1.736l.238 2.192c.195.629 1.08 1.18 1.502 1.025l11.037-3.846-3.754 10.348c-.29.803.066 1.8 1.074 2.053l1.582.115c.99.044 1.88-.092 2.258-.961l3.264-7.213a.8.8 0 0 1 .342-.373l2.603-1.453a.63.63 0 0 0 .32-.53l.11-4.228a24.9 24.9 0 0 0 10.775 4.28l-3.148 3.199a.54.54 0 0 0-.133.523l.914 3.158a.77.77 0 0 1-.025.498l-2.977 7.4c-.183.455.285 1.314.776 1.682l1.716 1.381c.583.307 1.6.073 1.79-.336l5.083-10.525 4.663 9.97c.362.774 1.318 1.228 2.21.694l1.2-1.037c.73-.669 1.265-1.395.918-2.278l-2.791-7.406a.8.8 0 0 1-.022-.506l.813-2.869a.63.63 0 0 0-.149-.6l-2.912-3.068a24.9 24.9 0 0 0 10.647-4.59l.035 4.485a.54.54 0 0 0 .275.465l2.881 1.586c.15.082.267.213.334.37l3.129 7.338c.192.451 1.127.728 1.734.641l2.192-.238c.629-.196 1.183-1.08 1.027-1.502l-3.848-11.037 10.348 3.752c.804.29 1.802-.064 2.055-1.073l.115-1.582c.044-.99-.092-1.88-.961-2.257l-7.213-3.264a.8.8 0 0 1-.373-.342l-1.453-2.603a.63.63 0 0 0-.53-.32l-4.23-.11a24.9 24.9 0 0 0 4.281-10.773l3.2 3.148a.53.53 0 0 0 .521.133l3.158-.914a.77.77 0 0 1 .5.025l7.4 2.977c.455.182 1.312-.283 1.68-.774l1.381-1.719c.307-.582.075-1.598-.334-1.787l-10.525-5.086 9.97-4.662c.774-.362 1.227-1.319.692-2.21l-1.035-1.2c-.669-.731-1.395-1.265-2.277-.918l-7.409 2.793a.8.8 0 0 1-.504.02l-2.867-.813a.63.63 0 0 0-.601.149l-3.069 2.912a24.9 24.9 0 0 0-4.59-10.647l4.485-.035a.53.53 0 0 0 .463-.275l1.588-2.88a.77.77 0 0 1 .37-.335l7.339-3.129c.45-.192.727-1.127.64-1.734l-.238-2.192c-.195-.63-1.08-1.183-1.502-1.027L86.172 20.52l3.754-10.347c.29-.803-.066-1.8-1.074-2.053l-1.582-.115c-.99-.044-1.88.091-2.258.96l-3.264 7.212a.8.8 0 0 1-.342.373l-2.603 1.453a.63.63 0 0 0-.32.531l-.11 4.229a24.9 24.9 0 0 0-10.775-4.282l3.148-3.197a.53.53 0 0 0 .131-.523l-.912-3.158a.76.76 0 0 1 .025-.499l2.977-7.402c.183-.454-.285-1.312-.776-1.68L70.475.643a1.3 1.3 0 0 0-.498-.135zM66.04 25.209a18.05 18.05 0 0 1 8.674 3.383l-3.762 3.762a12.8 12.8 0 0 0-4.912-1.87zm-4.832.098v5.322a12.9 12.9 0 0 0-4.793 2.154l-3.73-3.73a18.07 18.07 0 0 1 8.523-3.746zM78.2 31.939a18.1 18.1 0 0 1 3.748 8.524h-5.322a12.9 12.9 0 0 0-2.156-4.793zm-28.863.6 3.762 3.762a12.85 12.85 0 0 0-1.87 4.914h-5.275a18.07 18.07 0 0 1 3.383-8.676zM64 36.95a6.305 6.305 0 1 1 0 12.61 6.305 6.305 0 0 1 0-12.61zm12.77 8.346h5.277a18.06 18.06 0 0 1-3.383 8.674l-3.762-3.762a12.85 12.85 0 0 0 1.868-4.912zm-30.717.752h5.322a12.9 12.9 0 0 0 2.156 4.793L49.8 54.57a18.1 18.1 0 0 1-3.746-8.523zm25.533 7.678 3.73 3.73a18.1 18.1 0 0 1-8.523 3.748v-5.322a12.9 12.9 0 0 0 4.793-2.156zm-14.537.43a12.85 12.85 0 0 0 4.912 1.868V61.3a18.06 18.06 0 0 1-8.674-3.383zm22.535 46.654q-.435.009-.75.3a1 1 0 0 0-.316.754q-.001.453.316.746.326.294.78.293.46 0 .784-.3a.98.98 0 0 0 .325-.739.98.98 0 0 0-.325-.754 1.1 1.1 0 0 0-.785-.3zm-39.05.546v11.381h1.888v-5.603h.033q.047.103.268.396l3.96 5.207h2.462l-4.811-5.922 4.469-5.459H46.54l-3.818 4.96a2.6 2.6 0 0 0-.268.39h-.033v-5.35zm13.712 3.063q-1.722 0-2.635 1.539h-.03v-1.348h-1.85v8.127h1.85v-4.634q-.002-.96.546-1.588a1.75 1.75 0 0 1 1.389-.635q1.611 0 1.611 2.277v4.58h1.84v-4.968q0-1.627-.697-2.485-.698-.864-2.024-.865zm7.992 0q-1.631.017-2.74 1.172-1.12 1.165-1.12 3.021 0 1.964 1.017 3.051 1.023 1.08 2.816 1.08c1.217 0 2.035-.228 2.775-.683v-1.452c-.724.508-1.359.76-2.226.76q-1.16 0-1.826-.597-.66-.599-.69-1.702h5.54v-.69q0-1.862-.913-2.911t-2.58-1.049zm23.172 0a4.7 4.7 0 0 0-1.228.16q-.596.15-1.065.46a2.36 2.36 0 0 0-.746.753q-.277.444-.277 1.031 0 .477.135.834.134.357.396.643.27.278.668.5.404.221.904.42l.73.271q.334.12.571.27.246.15.389.35a.75.75 0 0 1 .142.466q0 .985-1.666.985-1.246 0-2.277-.786v1.705q.975.446 2.309.446.69 0 1.31-.15a3.5 3.5 0 0 0 1.102-.446q.477-.302.763-.762a2 2 0 0 0 .285-1.078q0-.508-.158-.873a1.9 1.9 0 0 0-.453-.65 3 3 0 0 0-.715-.508 10 10 0 0 0-.935-.438q-.398-.135-.707-.246a3.5 3.5 0 0 1-.524-.254 1.1 1.1 0 0 1-.324-.326.84.84 0 0 1-.113-.443.7.7 0 0 1 .113-.389.96.96 0 0 1 .309-.31q.198-.127.476-.198.285-.071.635-.072 1.11 0 1.967.588v-1.611q-.89-.342-2.016-.342zm-19.361.191 2.617 4.143-2.762 3.984h2.127l1.453-2.517q.301-.516.332-.586h.034q.181.356.316.586l1.428 2.517h2.136l-2.675-4.015 2.707-4.112h-2.016l-1.818 3.246h-.024a16 16 0 0 0-.308-.603l-1.407-2.643zm12.627 0v7.729q0 2.745-1.555 2.746-.461 0-.976-.357v1.58q.547.254 1.126.254 1.564-.001 2.405-1.088.841-1.08.842-3.078v-7.786zm-16.406 1.137q.809 0 1.27.543.46.535.468 1.506h-3.762q.127-.916.674-1.483a1.82 1.82 0 0 1 1.35-.566zm13.517 4.469q-.548 0-.932.365a1.17 1.17 0 0 0-.384.877q0 .502.384.867.384.356.932.356.556 0 .94-.356.392-.364.392-.867 0-.51-.392-.877a1.3 1.3 0 0 0-.94-.365zm-4.486 9.092v6.216h.672v-.605h.017q.426.704 1.258.703.89 0 1.402-.63.513-.637.514-1.69 0-.947-.459-1.508-.455-.566-1.264-.566-.955 0-1.45.835h-.018v-2.755zm11.724 0v6.216h.672v-6.216zm4.946 0v2.6h-.016q-.394-.681-1.26-.68-.873 0-1.398.627t-.526 1.67q0 .971.471 1.537.476.56 1.268.56.976 0 1.445-.81h.016v.712h.672v-6.216zm-6.659.078a.42.42 0 0 0-.285.127.4.4 0 0 0-.127.31q0 .189.127.313a.43.43 0 0 0 .309.123.42.42 0 0 0 .31-.127.4.4 0 0 0 .133-.307.41.41 0 0 0-.133-.312.42.42 0 0 0-.31-.127zm-47.843.16q-.382-.001-.75.094a2.1 2.1 0 0 0-.653.287 1.5 1.5 0 0 0-.462.492q-.178.296-.178.697 0 .328.111.574.115.243.313.434.196.193.462.354.267.16.575.316.291.148.54.283.254.132.438.278.185.143.287.32a.8.8 0 0 1 .108.414q0 .443-.315.682-.31.232-.947.232-.184.001-.402-.035a4 4 0 0 1-.436-.104 3 3 0 0 1-.41-.168 1.6 1.6 0 0 1-.332-.222v.812q.114.078.303.145.193.06.406.101.213.046.418.067.206.024.346.023.417 0 .795-.086a2 2 0 0 0 .664-.27q.291-.188.46-.488.172-.303.172-.738-.001-.328-.128-.582a1.7 1.7 0 0 0-.336-.463 2.7 2.7 0 0 0-.497-.383 8 8 0 0 0-.597-.328 19 19 0 0 1-.547-.277 2.5 2.5 0 0 1-.397-.264 1 1 0 0 1-.25-.299.9.9 0 0 1-.082-.39q0-.242.11-.408a.9.9 0 0 1 .287-.276q.176-.106.402-.152.225-.05.451-.049.817 0 1.338.361v-.775q-.398-.21-1.267-.21zm5.154 0q-1.317-.001-2.088.844-.766.84-.765 2.263 0 1.32.75 2.145.758.825 2.005.824.517 0 .952-.135l1.107.828h1.25l-1.652-1.183a2.3 2.3 0 0 0 .384-.346q.764-.837.764-2.275 0-1.325-.746-2.145-.747-.82-1.961-.82zm3.863.098v5.88h3.051v-.623h-2.361v-5.257zm-3.912.525q.951 0 1.492.637.541.63.541 1.799.001 1.136-.556 1.767-.558.63-1.526.63-.906 0-1.472-.66-.563-.666-.563-1.75 0-1.087.578-1.755.579-.669 1.506-.668zm11.44 1.059q-.847.018-1.356.627-.525.623-.525 1.67.001.971.476 1.537.48.56 1.272.56.996.001 1.435-.818h.016v2.652h.672v-6.13h-.672v.581h-.016q-.386-.68-1.248-.68zm9.703 0q-.791.018-1.332.619-.554.615-.553 1.595 0 1.038.508 1.612.508.569 1.398.568.911.001 1.465-.4v-.633a2.07 2.07 0 0 1-1.305.469q-.63-.001-.992-.383-.36-.381-.377-1.082h2.965v-.352q0-.947-.451-1.48-.45-.533-1.275-.533zm31.885 0a1.78 1.78 0 0 0-1.33.619q-.555.615-.555 1.595 0 1.038.51 1.612.508.569 1.398.568.91.001 1.463-.4v-.633a2.07 2.07 0 0 1-1.305.469q-.63-.001-.992-.383-.36-.381-.377-1.082h2.965v-.352q0-.947-.451-1.48t-1.276-.533zm-27.303.023a1 1 0 0 0-.66.25 1.46 1.46 0 0 0-.44.69h-.015v-.866h-.672v4.2h.672v-2.141q0-.702.287-1.108.29-.406.72-.406.334.001.51.137v-.697a1.1 1.1 0 0 0-.402-.059zm31.885 0a1 1 0 0 0-.66.25q-.295.246-.438.69h-.018v-.866h-.672v4.2h.672v-2.141q0-.702.287-1.108.292-.406.723-.406.332.001.508.137v-.697a1.1 1.1 0 0 0-.402-.059zm-42.909.074v2.51q.001 1.787 1.502 1.787.877 0 1.295-.762h.018v.664h.672v-4.199h-.672v2.42q0 .587-.32.951-.317.361-.81.362-1.016 0-1.017-1.328v-2.405zm11.532 0 1.64 4.192-.336.795q-.254.606-.761.607-.18 0-.399-.074v.603q.177.053.44.053.934 0 1.45-1.305l1.932-4.87h-.697l-1.193 3.24a5 5 0 0 0-.082.312h-.026a7 7 0 0 0-.086-.322l-1.134-3.23zm11.341 0v2.51q0 1.787 1.5 1.787.878 0 1.295-.762h.018v.664h.672v-4.199h-.672v2.42q0 .587-.32.951-.315.361-.809.362-1.017 0-1.016-1.328v-2.405zm4.842 0v4.2h.674v-4.2zm-30.855.469q.52 0 .857.355.34.357.34.873v.612q0 .615-.353 1.021-.348.403-.938.403-.538 0-.879-.41-.34-.415-.34-1.141 0-.816.352-1.264.353-.45.96-.449zm9.592 0h.029q.491-.001.765.322.28.324.284.906h-2.268q.078-.548.41-.888.323-.33.78-.34zm13.546 0q.554 0 .877.396.325.4.325 1.1 0 .832-.348 1.299-.346.468-.957.469-.52 0-.861-.362a1.26 1.26 0 0 1-.336-.886v-.586q0-.615.357-1.022.357-.409.943-.408zm13.508 0q.518-.001.854.352t.336.86v.62q0 .62-.354 1.025-.348.407-.91.407-.57 0-.91-.418-.336-.423-.336-1.149-.001-.796.352-1.248.353-.45.968-.449zm4.83 0h.03q.492-.001.767.322.278.324.281.906h-2.267q.078-.548.41-.888.322-.33.78-.34z"/></svg>