<svg xmlns="http://www.w3.org/2000/svg" viewBox="0 0 128 128"><path d="M64.299 2.385c-.412-.001-.826.11-1.264.334-3.36 1.717-6.77 3.33-10.168 4.97-8.057 3.89-16.17 8.079-24.263 11.9C25.086 21.252 22 23.026 18 24.714V77.98c1 .035.502.034.605.084 2.554 1.258 5.221 2.491 7.752 3.793 2.582 1.33 5.271 2.54 7.891 3.79 8.129 3.874 16.171 7.987 24.236 11.998 1.56.776 3.178 1.459 4.71 2.285.776.419 1.374.38 2.165.004 2.41-1.148 4.832-2.29 7.227-3.46 9.292-4.536 18.398-9.263 27.744-13.693 3.254-1.543 6.67-3.217 9.67-4.88V24.655l-.31-.084c-4.11-2.039-8.155-4.11-12.311-6.062-8.096-3.804-15.92-8.121-24.063-11.844-2.642-1.208-5.184-2.604-7.765-3.943-.432-.224-.84-.337-1.252-.338zm-.028 10.392c1.436 1.274 2.932 2.378 4.153 3.729 3.314 3.668 6.224 7.658 8.097 12.26.873 2.143 1.702 4.326 2.143 6.656.397 2.103.811 4.193 1.16 6.307.452 2.735.087 5.436.305 8.14.043.536-.546 1.047-.83 1.024-1.125-.086-1.299.929-2.299 1.33v1.931c1 .723 1.721.98 2.7.95 1.178-.038 1.896-.671 2.218-1.891.352-1.337.485-2.67.37-3.996-.169-1.93.234-3.812.497-5.674a16.8 16.8 0 0 1 2.211-6.229c.766-1.286 3.056-3.043 4.399-3.31.59-.117 1.091.086 1.308.902-.225.174-.477.539-.764.567-1.898.186-2.463 1.664-3.027 3.093-.305.773-.234 1.7-.463 2.452-.396 1.292-.28 2.549-.285 3.818-.002.764.217 1.529.357 2.291.13.701-.308 1.475.34 2.13.158.16.034.603.034.915 0 1.192-.025 2.385.005 3.576.074 2.987-1.999 6.307-5.617 7.213 2.248.19 4.439.372 6.559-.928 2.065-1.267 3.169-3.21 4.328-5.168.028-2.252.335-4.588-1.758-6.23-.454-.356-.582-.764-.435-1.496.389.055.8-.014.957.154 1.152 1.241 2.673 2.182 3.222 3.928.155.495.633.959.612 1.422-.052 1.217.2 2.42-.17 3.673-.284.958-.584 1.9-1.01 2.79-.403.841-.938 1.62-1.445 2.474.71.346 1.387.797 2.134 1.018 1.591.47 2.683 1.572 3.78 2.7 1.092 1.126 1.226 2.632 1.646 4.026-.587 1.517-.715 3.207-1.933 4.479-1.935 2.02-4.203 3.55-6.692 4.775-.623.306-1.262.669-1.93.774-1.027.16-1.383.971-1.86 1.644-.819 1.153-2.787 2.32-4.151 2.338-.377.005-.755-.024-1.13.006-1.476.119-2.819-.246-4.144-.912-1.816-.912-3.786-1.065-5.808-1.01-1.064.03-1.995.274-2.887.787-1.186.682-1.822 2.243-1.566 3.527.062.314-.245.702-.448 1.23-.44-.37-.918-.577-.937-.821-.134-1.636-.232-3.336.924-4.676 1.583-1.835 3.643-2.847 6.078-3.022.625-.044 1.256.01 1.883-.01 1.518-.047 2.953.235 4.431.645 1.225.34 2.669.411 3.903-.379.433-1.626-.427-2.804-1.614-3.568-1.253-.807-2.512-1.66-4.058-2.016-1.104-.253-2.077-1.03-3.16-1.437-1.086-.406-2.173-.846-3.258-1.24-1.036-.377-2.216-.362-3.143-1.04-1.72.081-3.39-.688-5.113-.367-2.25.42-4.521.787-6.656 1.653-1.611.654-3.242 1.26-4.788 2.084-.915.487-1.96.723-2.902 1.166-.739.347-1.46.775-2.101 1.279-1.104.867-1.842 1.947-1.495 3.478 1.362.634 2.733.718 4.19.229 1.577-.53 3.24-.418 4.88-.518 2.08-.125 3.901.525 5.575 1.569 1.591.992 2.685 2.416 2.625 4.45-.013.44.064.893-.023 1.313-.077.372-.326.71-.586 1.24-.522-.542-1.363-.671-.596-1.495-.492-.905-.205-2.155-1.192-2.83-.873-.598-1.726-1.267-2.89-1.206-.688.036-1.386.061-2.07-.004-1.617-.15-3.072.397-4.442 1.104-1.892.978-3.896.763-5.889.791-1.124-.633-2.464-.924-3.308-1.992-.427-.541-.613-1.509-1.121-1.692-.663-.239-1.269-.694-1.924-.798-1.655-.263-2.816-1.424-4.188-2.166-1.154-.625-2.078-1.696-3.06-2.616-1.077-1.008-1.635-2.273-1.883-3.742-.368-2.178.48-4.2 1.649-5.432 1.539-1.62 3.455-2.458 5.521-3.22-.505-1.002-.894-2.125-1.576-3.026-.654-.863-.72-1.877-.983-2.796-.3-1.044-.273-2.291-.011-3.356.257-1.042.898-2.03 1.54-2.92.582-.803 1.369-1.467 2.118-2.133.239-.213.645-.237.951-.34.412.574.285.966-.121 1.38-.422.43-.772.932-1.158 1.398-1.09 1.322-.746 2.9-.729 4.394.011.961.581 1.763 1.133 2.535 1.056 1.481 2.137 2.876 3.936 3.612.964.394 1.87.728 2.914.695.932-.03 1.865-.006 3.256-.006-.816-.365-1.23-.542-1.635-.732-2.861-1.331-4.35-3.595-4.354-6.606 0-1.067.105-2.147-.033-3.195-.12-.908.407-1.63.434-2.482.022-.767-.354-1.624.353-2.293-.192-1.458.357-2.955-.29-4.399-.343-.76-.06-1.609-.4-2.468-.656-1.656-1.128-3.268-3.27-3.47-.23-.02-.425-.399-.628-.6.374-.812.756-.973 1.606-.704 2.172.686 3.472 2.153 4.517 4.088 1.122 2.078 1.498 4.29 1.91 6.566.414 2.287.182 4.552.338 6.819.052.756.258 1.514.489 2.24.224.706.754 1.125 1.478 1.195 1.048.103 1.799.03 2.799-.937v-1.912c-1-.39-.85-1.367-1.969-1.33-.424.014-.61-.616-.593-1.186.044-1.63.14-3.273-.002-4.893-.155-1.748.25-3.44.51-5.101.228-1.468.4-3.014.997-4.46.554-1.34.66-2.861 1.198-4.21.989-2.484 2.101-4.914 3.486-7.227.791-1.32 1.85-2.452 2.516-3.843a1.3 1.3 0 0 1 .193-.297c.974-1.104 1.895-2.261 2.94-3.293 1.26-1.242 2.623-2.377 3.995-3.606zm-5.693 37.79c-.853.023-1.104.38-1.062 1.51.032.86.4 1.19 1.26 1.126.698-.052 1.451-.828 1.376-1.418-.076-.612-.887-1.238-1.574-1.219zm11.47 0c-.806-.039-1.65.68-1.609 1.37.037.623.817 1.27 1.528 1.266.828-.004 1.1-.317 1.11-1.277.008-1.003-.234-1.323-1.028-1.36zM40.44 67.497a7.6 7.6 0 0 0-1.271.01c-.622.055-1.257-.03-1.88.015-1.013.072-1.954.439-2.782.995-.835.56-.897 1.078-.502 2.046.392.962.976 1.759 1.719 2.495 1.324 1.313 2.703 2.535 4.33 3.447.579-3.218 2.38-5.55 5.125-7.266-.48-.235-.856-.396-1.21-.597-1.117-.642-2.284-1.048-3.529-1.145zm48.235.004c-1.312-.111-2.443.402-3.588.89-.533.229-1.037.527-1.664.85 2.738 1.711 4.539 4.044 5.129 7.328.72-.517 1.47-.967 2.113-1.535a57 57 0 0 0 3.37-3.209c.342-.355.485-.916.677-1.4.274-.69.1-1.274-.482-1.791-.461-.41-2.23-1.103-2.922-1.115-.878-.016-1.761.056-2.633-.018zm-65.36 35.723v17.26h2.14v-4.424l1.093-1.24 4.035 5.663h2.602l-5.178-6.927 4.547-4.838h-2.555l-3.475 4.058c-.34.39-.729.925-1.021 1.338h-.049v-10.89zm31.338 0v17.26h2.141v-4.424l1.094-1.24 4.035 5.663h2.601l-5.177-6.927 4.545-4.838H61.34l-3.479 4.058c-.34.39-.727.925-1.02 1.338h-.048v-10.89zm38.582.584c-.827 0-1.384.608-1.384 1.36 0 .754.534 1.386 1.336 1.386h.025c.876 0 1.385-.632 1.385-1.385s-.535-1.361-1.362-1.361zm-22.318 4.617c-3.428 0-5.543 2.797-5.543 6.37 0 3.526 2.187 5.933 5.785 5.933 1.872 0 3.187-.414 3.94-.754l-.391-1.508c-.778.315-1.725.584-3.256.584-2.139 0-3.963-1.191-4.012-4.084l8.243.023q.073-.364.072-1.021c0-2.163-.997-5.543-4.838-5.543zm-30.535.025c-1.434 0-2.746.996-3.281 2.576h-.075l-.095-2.308h-1.873a56 56 0 0 1 .097 3.67l-.023 8.095h2.139v-6.271a7 7 0 0 1 .072-1.022c.292-1.58 1.362-2.722 2.869-2.722.29 0 .51.025.754.049v-1.995a2.2 2.2 0 0 0-.584-.072zm6.346 0c-1.483 0-2.917.414-3.89 1.022l.485 1.433c.826-.559 1.97-.875 3.088-.875 2.407-.024 2.674 1.752 2.674 2.725v.24c-4.546-.024-7.074 1.533-7.074 4.377 0 1.702 1.215 3.379 3.597 3.379 1.678 0 2.968-.826 3.6-1.75h.072l.196 1.482h1.92c-.121-.802-.17-1.799-.17-2.82v-4.398c0-2.36-.875-4.815-4.498-4.815zm37.537 0c-1.945 0-3.308 1.094-3.891 2.188h-.049l-.12-1.92h-1.897c.073.973.097 1.944.097 3.183v8.584h2.139v-7.1c0-.34.05-.727.146-.995.39-1.191 1.484-2.19 2.87-2.19 2.017 0 2.722 1.604 2.722 3.5v6.783h2.139v-7.025c0-4.035-2.527-5.008-4.156-5.008zm17.115 0c-2.504 0-4.06 1.557-4.06 3.453 0 1.41.995 2.552 3.134 3.33 1.557.583 2.164 1.143 2.164 2.164 0 .997-.728 1.75-2.26 1.75-1.07 0-2.187-.439-2.843-.828l-.512 1.606c.827.486 2.018.826 3.307.826 2.747 0 4.377-1.46 4.377-3.55 0-1.775-1.07-2.797-3.088-3.55-1.531-.583-2.213-1.02-2.213-2.017 0-.875.681-1.604 1.945-1.604 1.094 0 1.944.415 2.406.682l.51-1.531c-.632-.413-1.676-.73-2.867-.73zm-9.215.268v9.894c0 2.82-.243 3.768-.826 4.424-.511.56-1.337.828-2.334.9l.244 1.676c1.142 0 2.699-.388 3.647-1.336 1.045-1.069 1.41-2.552 1.41-4.838v-10.72zm-21.418 1.238c2.382 0 2.966 2.142 2.942 3.479h-6.223c.17-1.483 1.093-3.479 3.281-3.479zm-21.613 4.523v2.041c0 .22-.025.461-.098.68-.34.997-1.336 1.97-2.892 1.97-1.07 0-1.995-.632-1.995-2.042 0-2.285 2.65-2.698 4.985-2.649z"/></svg>