<svg xmlns="http://www.w3.org/2000/svg" viewBox="0 0 128 128"><path d="M0 6.207v88.828h59.031v-9.754H11.914V6.207zm96.191 21.34v.105c-12.187-.16-24.375 7.582-28.168 19.336-5.414 13.54-2.925 30.55 7.692 40.89 10.293 8.56 25.78 9.211 37.37 3.145 7.966-4.227 13.005-12.62 14.087-21.449 1.41-9.207.707-19.28-3.79-27.62-5.311-8.884-15.706-14.622-26-14.247zm1.082 9.531c8.938 0 16.954 6.824 18.415 15.598 2.71 9.91 1.085 22.043-7.04 29.031-7.582 6.172-19.773 5.309-26-2.328-7.582-8.13-7.581-20.582-3.68-30.328 2.708-7.043 9.905-12.078 17.487-11.918h.979zM0 107.652v13.54h127.816v-13.54z"/></svg>