<svg xmlns="http://www.w3.org/2000/svg" viewBox="0 0 128 128"><path d="M64 2C47.439 2 31.868 8.447 20.158 20.158S2 47.44 2 64s6.45 32.132 18.16 43.842S47.44 126 64 126s32.132-6.448 43.842-18.158S126 80.56 126 64s-6.448-32.132-18.158-43.842S80.56 2 64 2zm-.35 1.828V15.66c-3.422.025-6.76.41-9.98 1.113l-1.373-6.021a.414.414 0 0 0-.496-.313 54.8 54.8 0 0 0-22.893 11.342l-.002.002a.41.41 0 0 0-.049.58l3.954 4.735a49 49 0 0 0-2.729 2.488l-8.38-8.38C32.954 10.077 47.823 3.917 63.65 3.827zm.7 0c15.827.09 30.696 6.25 41.95 17.377l-8.382 8.38c-8.657-8.531-20.503-13.83-33.568-13.925zm-.7 12.531V29.66a34.3 34.3 0 0 0-6.865.76l-2.959-12.965a47.6 47.6 0 0 1 9.824-1.096zm.7 0c12.872.094 24.544 5.315 33.074 13.721l-9.4 9.4a35 35 0 0 0-2.417-2.158l4.086-5.123a.414.414 0 0 0-.066-.58 41 41 0 0 0-11.195-6.351h-.002a.41.41 0 0 0-.532.242l-2.31 6.156A34.2 34.2 0 0 0 64.35 29.66zM21.205 21.7l8.38 8.381c-8.532 8.657-13.831 20.505-13.925 33.57H3.828c.09-15.826 6.25-30.696 17.377-41.95zm85.592 0c11.127 11.255 17.285 26.125 17.375 41.951H112.34c-.094-13.065-5.393-24.911-13.926-33.568zm-73.54 5.936 8.518 10.203a35 35 0 0 0-1.798 1.642l-9.4-9.4a48 48 0 0 1 2.68-2.445zM63.65 30.36v13.3a20.4 20.4 0 0 0-3.75.407l-2.959-12.964a33.6 33.6 0 0 1 6.71-.743zm.7 0c3.851.04 7.55.726 10.992 1.961l-4.674 12.457a20.3 20.3 0 0 0-6.318-1.119zm-34.27.217 9.4 9.4a34.5 34.5 0 0 0-6.152 8.588l-11.98-5.77h-.002a47.9 47.9 0 0 1 8.734-12.218zm67.84 0c8.406 8.53 13.627 20.202 13.72 33.074h-13.3c-.093-9.205-3.822-17.552-9.82-23.673zM85.172 37.87a34 34 0 0 1 2.357 2.106l-9.4 9.4q-.6-.582-1.246-1.115zm-42.947.506 8.52 10.205q-.449.385-.874.795l-9.4-9.4a34 34 0 0 1 1.754-1.6zm-2.25 2.096 9.4 9.4a20.5 20.5 0 0 0-3.434 4.768L33.96 48.867a33.8 33.8 0 0 1 6.016-8.396zm48.05 0c5.872 5.994 9.523 14.167 9.616 23.18h-13.3a20.27 20.27 0 0 0-5.716-13.78zM63.65 44.359V56.66a7 7 0 0 0-.855.09l-2.74-12.002a19.7 19.7 0 0 1 3.595-.389zm.7 0c2.122.038 4.163.412 6.072 1.075l-4.326 11.521a7.3 7.3 0 0 0-1.746-.295zm12.097 4.448q.616.507 1.188 1.062l-8.694 8.695-.162-.142zm-25.256.31 7.88 9.438-.01.008h-.002l-8.694-8.694q.402-.387.826-.752zm-1.322 1.248 8.695 8.694c-.34.374-.643.785-.902 1.224L46.57 54.941a19.7 19.7 0 0 1 3.3-4.576zm28.262 0a19.58 19.58 0 0 1 5.51 13.285h-5.678a14 14 0 0 0-.684-4.187v-.002a.414.414 0 0 0-.52-.264l-5.988 1.946a7.4 7.4 0 0 0-1.334-2.082v-.002zM63.65 57.36v3.14l-.7-3.066q.345-.055.7-.075zm.699 0a6.6 6.6 0 0 1 1.5.256l-1.5 3.996zm3.992 1.612q.052.043.103.088l-.86.859zm-9.283.584 2.7 2.7-3.464-1.667a6.7 6.7 0 0 1 .764-1.033zm9.882 0a6.7 6.7 0 0 1 1.16 1.804l-4.392 1.428zM3.828 64.35H15.66c.094 13.065 5.393 24.913 13.926 33.57l-8.38 8.38C10.077 95.048 3.917 80.178 3.827 64.35zm61.545 0h5.268a6.6 6.6 0 0 1-1.069 3.273zm5.967 0h12.3a19.54 19.54 0 0 1-3.806 11.27l-9.707-7.565a7.3 7.3 0 0 0 1.213-3.705zm13.002 0H97.64a33.47 33.47 0 0 1-6.764 19.875l-10.49-8.176a20.24 20.24 0 0 0 3.955-11.7zm13.998 0h13.3a47.4 47.4 0 0 1-9.728 28.474l-10.484-8.17A34.17 34.17 0 0 0 98.34 64.35zm14 0h11.832c-.09 15.827-6.25 30.697-17.377 41.95l-3.984-3.984a55 55 0 0 0 4.322-4.898.413.413 0 0 0-.072-.582l-4.598-3.584a48.1 48.1 0 0 0 9.877-28.902zm-51.293.384-3.281 1.58a6.6 6.6 0 0 1-.272-.935zm2.16.555-1.156 5.068a6.65 6.65 0 0 1-2.496-1.416zm1.443.006 3.256 4.082a6.6 6.6 0 0 1-2.377 1.094zm-7.845.209a7 7 0 0 0 .33 1.115L46.04 71.961a19.5 19.5 0 0 1-1.336-4.26zm4.703.492-2.45 2.45a7 7 0 0 1-.394-.48zm-17.492 1.828a20.2 20.2 0 0 0 1.394 4.44l-6.078 2.927h-.002a.414.414 0 0 0-.191.551 28 28 0 0 0 2.177 3.738.42.42 0 0 0 .577.106l5.517-3.822a20.5 20.5 0 0 0 1.965 2.365l-9.4 9.4a33.6 33.6 0 0 1-9.043-17.33zm14.074.54q.223.3.474.577l-8.695 8.694a20 20 0 0 1-1.883-2.27zm.969 1.072a7.35 7.35 0 0 0 2.836 1.605l-2.74 12.004a19.64 19.64 0 0 1-8.79-4.914zm9.285.49 7.664 9.611a19.6 19.6 0 0 1-8.299 3.758l-2.063-12.133a7.3 7.3 0 0 0 2.698-1.236zm-38.1.398a34.3 34.3 0 0 0 9.236 17.7l-9.4 9.4C23.503 90.75 18.885 82.152 17.137 72.56a.4.4 0 0 0 .162.113zm19.627 8.301a20.34 20.34 0 0 0 9.127 5.102l-2.959 12.962a33.6 33.6 0 0 1-15.568-8.664zm26.574 1.459 8.287 10.393a33.5 33.5 0 0 1-14.68 6.617l-2.226-13.11a20.26 20.26 0 0 0 8.62-3.9zM39.977 88.52c6.121 5.998 14.468 9.727 23.673 9.82v13.3c-12.872-.093-24.544-5.314-33.074-13.72zm45.191 2.503 8.287 10.391c-8.028 6.334-18.128 10.147-29.105 10.227V98.34a34.17 34.17 0 0 0 20.818-7.317zM30.08 98.414c8.657 8.534 20.504 13.832 33.57 13.926v11.832c-15.827-.09-30.697-6.25-41.95-17.377zm63.81 3.547 3.618 4.535a.414.414 0 0 0 .58.067 55 55 0 0 0 4.203-3.778l4.01 4.01c-11.254 11.127-26.124 17.287-41.951 17.377V112.34c11.142-.08 21.393-3.95 29.54-10.38z"/></svg>