<svg xmlns="http://www.w3.org/2000/svg" viewBox="0 0 128 128"><path d="M68.74 51.535q-.525 0-.87.043a2.4 2.4 0 0 0-.563.129.65.65 0 0 0-.297.186.44.44 0 0 0-.106.255l-1.388 18.676a.4.4 0 0 0 .066.256.6.6 0 0 0 .272.17q.207.072.546.1.338.043.864.043.524 0 .869-.043.343-.03.547-.1a.7.7 0 0 0 .31-.17.45.45 0 0 0 .106-.256l.162-2.191a10.9 10.9 0 0 1-.942-4.436c0-2.156.633-4.161 1.707-5.861l.46-6.188a.4.4 0 0 0-.065-.255q-.077-.114-.285-.186a2 2 0 0 0-.53-.129 7 7 0 0 0-.863-.043zm32.893 0q-.526 0-.87.043a2.4 2.4 0 0 0-.564.129.65.65 0 0 0-.297.186.45.45 0 0 0-.103.255l-1.39 18.676a.4.4 0 0 0 .066.256.6.6 0 0 0 .271.17 2.4 2.4 0 0 0 .547.1q.338.043.863.043a7 7 0 0 0 .87-.043q.342-.03.546-.1a.7.7 0 0 0 .313-.17.45.45 0 0 0 .103-.256l1.389-18.676a.4.4 0 0 0-.066-.255q-.078-.115-.286-.186a2 2 0 0 0-.529-.129 7 7 0 0 0-.863-.043zm14.318.002q-.525 0-.869.043t-.562.127a.67.67 0 0 0-.3.186.45.45 0 0 0-.103.255l-1.388 18.676a.5.5 0 0 0 .05.272.5.5 0 0 0 .229.17 1.7 1.7 0 0 0 .46.097q.297.03.737.03.427 0 .727-.03.3-.028.474-.097a.6.6 0 0 0 .27-.17.5.5 0 0 0 .103-.272l.104-1.377a9 9 0 0 0 .92.994 5.6 5.6 0 0 0 .941.682 3.8 3.8 0 0 0 1.037.383 5.2 5.2 0 0 0 1.186.129q1.292 0 2.338-.512a5.26 5.26 0 0 0 1.828-1.463q.765-.953 1.234-2.3.47-1.35.596-3.04.104-1.407-.082-2.67-.19-1.279-.744-2.23a4 4 0 0 0-1.479-1.506q-.938-.567-2.344-.566a6 6 0 0 0-1.087.097 4.6 4.6 0 0 0-1.018.328 6 6 0 0 0-1.008.553q-.508.34-1.025.824l.52-7.002a.4.4 0 0 0-.065-.255q-.077-.115-.285-.186a2 2 0 0 0-.532-.127 7 7 0 0 0-.863-.043zm-7.181.483q-1.207 0-1.68.425-.457.412-.537 1.492-.078 1.037.304 1.434.397.398 1.606.399 1.193-.001 1.664-.413.47-.411.55-1.492.078-1.035-.32-1.433-.395-.412-1.587-.412zM79.3 53.86a10.27 10.27 0 0 0-7.31 3.03 10.27 10.27 0 0 0-3.027 7.308 10.27 10.27 0 0 0 3.027 7.31 10.27 10.27 0 0 0 7.31 3.028c2.762 0 5.356-1.074 7.31-3.027a10.27 10.27 0 0 0 3.029-7.31c0-2.762-1.077-5.356-3.03-7.31a10.27 10.27 0 0 0-7.308-3.029zm-.06.307v1.973a8 8 0 0 0-1.662.185l-.228-1.006a.07.07 0 0 0-.084-.05 9.14 9.14 0 0 0-3.817 1.89h-.002a.07.07 0 0 0-.008.098l.66.79q-.235.199-.454.415l-1.397-1.397a9.97 9.97 0 0 1 6.992-2.898zm.117.002a9.96 9.96 0 0 1 6.995 2.896l-1.397 1.395a8.03 8.03 0 0 0-5.598-2.32zm-35.959.078q-.511.002-.87.045a2 2 0 0 0-.561.113.67.67 0 0 0-.299.186.5.5 0 0 0-.09.256l-.21 2.826h-1.505a.5.5 0 0 0-.261.07.6.6 0 0 0-.188.24 1.8 1.8 0 0 0-.146.442q-.05.283-.08.695-.058.781.058 1.121.12.328.389.328h1.52l-.483 6.49q-.087 1.167.092 2.018.177.852.646 1.42.47.555 1.23.824.762.27 1.827.27.394 0 .785-.043.37-.037.732-.127a3.5 3.5 0 0 0 .596-.17 1.4 1.4 0 0 0 .4-.242q.139-.142.235-.469.11-.341.156-.967.031-.398.004-.654a2.3 2.3 0 0 0-.041-.399q-.031-.156-.113-.199a.23.23 0 0 0-.153-.056.6.6 0 0 0-.23.056l-.307.115a6 6 0 0 1-.406.114 3 3 0 0 1-.514.043q-.839 0-1.127-.512-.286-.525-.21-1.56l.443-5.952h2.77q.27 0 .437-.328.165-.34.224-1.12.03-.413.008-.696a1.4 1.4 0 0 0-.066-.442.44.44 0 0 0-.166-.24.4.4 0 0 0-.236-.07h-2.756l.21-2.826a.4.4 0 0 0-.066-.256.53.53 0 0 0-.27-.186 1.7 1.7 0 0 0-.544-.113 7 7 0 0 0-.864-.045zm48.518 0a7 7 0 0 0-.87.045q-.288.018-.562.113a.65.65 0 0 0-.298.186.5.5 0 0 0-.09.256l-.21 2.826h-1.505c-.06 0-.112.026-.166.045a10.94 10.94 0 0 1 2.129 6.478 10.9 10.9 0 0 1-1.084 4.73c.008.048.007.105.017.151q.18.853.649 1.42.47.554 1.23.824t1.826.27q.398 0 .784-.043.4-.042.734-.127.347-.07.596-.17a1.4 1.4 0 0 0 .4-.242q.138-.142.234-.469.11-.341.157-.967.03-.397.006-.652a2.3 2.3 0 0 0-.041-.399q-.031-.156-.114-.199a.23.23 0 0 0-.15-.056.6.6 0 0 0-.233.056l-.306.115a6 6 0 0 1-.406.114q-.255.045-.514.043-.839 0-1.127-.51-.287-.526-.209-1.563l.441-5.95h2.772q.27 0 .435-.329.168-.34.225-1.121.03-.413.01-.697a1.4 1.4 0 0 0-.069-.442.45.45 0 0 0-.166-.24.4.4 0 0 0-.236-.07H93.45l.211-2.826a.4.4 0 0 0-.066-.256.54.54 0 0 0-.27-.186 1.7 1.7 0 0 0-.545-.113 7 7 0 0 0-.863-.045zM79.24 56.256v2.219a5.7 5.7 0 0 0-1.142.125l-.493-2.163a8 8 0 0 1 1.635-.181zm.117 0a7.92 7.92 0 0 1 5.516 2.287l-1.568 1.568a6 6 0 0 0-.4-.359l.679-.854a.07.07 0 0 0-.012-.097 6.8 6.8 0 0 0-1.867-1.059l-.002-.002a.067.067 0 0 0-.086.041l-.385 1.028a5.7 5.7 0 0 0-1.875-.334zm7.079.89a9.96 9.96 0 0 1 2.896 6.997h-1.973a8.04 8.04 0 0 0-2.32-5.598zm-14.27.002 1.395 1.397a8.04 8.04 0 0 0-2.32 5.598H69.27a9.96 9.96 0 0 1 2.896-6.995zm-61.834.198q-1.136 0-2.228.568-1.08.567-2.215 1.703l.107-1.463a.4.4 0 0 0-.053-.24.45.45 0 0 0-.226-.185 1.4 1.4 0 0 0-.447-.098 5 5 0 0 0-.75-.043q-.441 0-.743.043a2 2 0 0 0-.476.098.56.56 0 0 0-.27.185.42.42 0 0 0-.088.24l-.941 12.67a.4.4 0 0 0 .064.256.6.6 0 0 0 .272.17 2.4 2.4 0 0 0 .547.1q.338.043.863.043a7 7 0 0 0 .87-.043q.342-.03.546-.1a.7.7 0 0 0 .313-.17.45.45 0 0 0 .103-.256l.627-8.422q.824-.953 1.514-1.449t1.343-.498a1.73 1.73 0 0 1 .88.215 1.43 1.43 0 0 1 .581.582 2.5 2.5 0 0 1 .29.894c.06.385.073.776.04 1.165l-.558 7.513a.4.4 0 0 0 .066.256.6.6 0 0 0 .272.17 2.4 2.4 0 0 0 .547.1q.338.043.863.043a7 7 0 0 0 .853-.043q.344-.03.547-.1a.7.7 0 0 0 .313-.17.45.45 0 0 0 .103-.256l.625-8.422q.838-.953 1.53-1.449.69-.497 1.328-.498.525.001.879.215a1.43 1.43 0 0 1 .582.582 2.3 2.3 0 0 1 .302.894q.09.58.041 1.165l-.558 7.513a.45.45 0 0 0 .053.256.6.6 0 0 0 .27.17 2.4 2.4 0 0 0 .548.1q.337.043.877.043a7 7 0 0 0 .869-.043q.343-.03.547-.1a.7.7 0 0 0 .297-.17.45.45 0 0 0 .103-.256l.604-8.11a9 9 0 0 0-.074-2.073q-.154-.979-.64-1.703a3.27 3.27 0 0 0-1.306-1.167q-.834-.425-2.097-.425a4.4 4.4 0 0 0-1.106.142q-.572.142-1.096.412a7 7 0 0 0-1.13.71q-.574.44-1.188 1.05a3.8 3.8 0 0 0-.525-.951 3 3 0 0 0-.797-.725 3.4 3.4 0 0 0-1.074-.468 5.2 5.2 0 0 0-1.393-.17zm48.16 0q-.667 0-1.275.142a5 5 0 0 0-1.168.44 7 7 0 0 0-1.149.724q-.556.426-1.152.994l.111-1.492a.4.4 0 0 0-.052-.24.45.45 0 0 0-.243-.185 1.6 1.6 0 0 0-.46-.098 5 5 0 0 0-.708-.043q-.44 0-.742.043a2 2 0 0 0-.476.098.56.56 0 0 0-.254.185.42.42 0 0 0-.09.24l-1.316 17.698a.4.4 0 0 0 .066.255.53.53 0 0 0 .27.186 2.2 2.2 0 0 0 .544.129q.338.043.864.043.525 0 .869-.043.344-.044.549-.129a.66.66 0 0 0 .312-.186.45.45 0 0 0 .104-.255l.443-5.965a9 9 0 0 0 .824.767 5.5 5.5 0 0 0 .813.553 3.8 3.8 0 0 0 .87.313q.462.114 1.015.115 1.335 0 2.41-.512a5.2 5.2 0 0 0 1.842-1.463q.765-.953 1.222-2.3.47-1.365.596-3.055a12 12 0 0 0-.084-2.698q-.19-1.265-.744-2.216a3.9 3.9 0 0 0-1.48-1.49q-.94-.555-2.33-.555zm-26.6.002a9.4 9.4 0 0 0-1.644.142q-.748.119-1.473.34-.683.214-1.199.47-.516.24-.73.454a1.1 1.1 0 0 0-.303.453q-.09.256-.123.697a4 4 0 0 0-.002.598 2.2 2.2 0 0 0 .078.453.75.75 0 0 0 .18.283.43.43 0 0 0 .275.1q.226 0 .598-.2.384-.197.941-.439a10 10 0 0 1 1.27-.44 6 6 0 0 1 1.619-.198q.682-.001 1.127.14.458.142.705.442a1.5 1.5 0 0 1 .342.752 3.6 3.6 0 0 1 .05 1.037l-.056.767H32.31q-1.69 0-2.987.256-1.298.255-2.205.795a3.9 3.9 0 0 0-1.392 1.35q-.487.808-.569 1.916-.076 1.024.207 1.79a3.26 3.26 0 0 0 .856 1.292 3.9 3.9 0 0 0 1.406.767q.831.27 1.84.27a5.4 5.4 0 0 0 2.25-.469 6.4 6.4 0 0 0 1.887-1.307l-.075 1.008q-.015.198.09.313.12.114.4.156.294.057.932.057a5 5 0 0 0 .9-.057q.315-.042.465-.156a.41.41 0 0 0 .166-.313l.635-8.52q.097-1.305-.144-2.257t-.88-1.549q-.636-.611-1.68-.895-1.03-.298-2.52-.298zm76.45.24q-.527 0-.871.043-.345.043-.563.127a.67.67 0 0 0-.299.185.38.38 0 0 0-.101.24l-.942 12.641a.4.4 0 0 0 .067.256.6.6 0 0 0 .271.17 2.4 2.4 0 0 0 .547.1q.338.043.863.043a7 7 0 0 0 .87-.043q.343-.03.546-.1a.7.7 0 0 0 .313-.17.45.45 0 0 0 .103-.256l.94-12.64a.33.33 0 0 0-.066-.24q-.078-.116-.286-.186a2 2 0 0 0-.53-.127 7 7 0 0 0-.862-.043zm-34.168.549 1.42 1.7a6 6 0 0 0-.301.274l-1.566-1.566q.215-.213.447-.408zm5.066.455v2.217a3.4 3.4 0 0 0-.623.066l-.494-2.162a5.6 5.6 0 0 1 1.117-.121zm.117 0c.644.006 1.26.12 1.834.326l-.779 2.076a3.4 3.4 0 0 0-1.055-.185zm-5.712.035 1.566 1.568c-.411.42-.76.902-1.027 1.432l-1.996-.963a8 8 0 0 1 1.457-2.037zm11.312 0a7.92 7.92 0 0 1 2.285 5.516h-2.217a5.7 5.7 0 0 0-1.636-3.948zm-2.127 1.217q.204.165.393.35l-1.567 1.566a3 3 0 0 0-.207-.184zm-7.162.084 1.42 1.7q-.075.066-.145.134l-1.566-1.567q.14-.139.291-.267zm-.375.35 1.566 1.566c-.226.235-.42.503-.572.795l-1.996-.961c.262-.518.6-.99 1.002-1.4zm8.014 0a5.6 5.6 0 0 1 1.601 3.865h-2.217a3.38 3.38 0 0 0-.95-2.3zm-26.092.122q.71 0 1.152.356a2.14 2.14 0 0 1 .697.922 4.1 4.1 0 0 1 .315 1.336q.073.738.012 1.547a7 7 0 0 1-.262 1.45 5 5 0 0 1-.553 1.307q-.355.568-.879.922-.508.356-1.205.356-.738 0-1.38-.51-.645-.526-1.327-1.479l.31-4.175a10 10 0 0 1 .882-.952q.412-.384.785-.625.386-.241.734-.341.364-.114.719-.114zm62.816 0q.725 0 1.168.356a2.24 2.24 0 0 1 .713.922 4.1 4.1 0 0 1 .313 1.336 9 9 0 0 1 .011 1.56c-.037.49-.12.977-.25 1.451a4.5 4.5 0 0 1-.564 1.291 3.1 3.1 0 0 1-.863.924q-.51.356-1.205.356-.754 0-1.413-.498-.645-.511-1.326-1.477l.315-4.203a10 10 0 0 1 .879-.953q.412-.384.785-.625.386-.242.734-.342.348-.099.703-.098zm-40.79.526v2.05a1 1 0 0 0-.141.014l-.457-2q.29-.059.597-.064zm.116 0c.355.006.695.069 1.014.18l-.72 1.92a1.2 1.2 0 0 0-.294-.05zm2.018.742q.102.083.197.176l-1.449 1.449-.025-.023zm-4.21.05 1.312 1.575h-.002l-1.45-1.45q.068-.064.14-.124zm-.222.21 1.45 1.449a1.2 1.2 0 0 0-.15.203l-1.848-.889c.146-.28.33-.538.548-.763zm4.713 0a3.26 3.26 0 0 1 .918 2.215h-.945a2.3 2.3 0 0 0-.115-.7.07.07 0 0 0-.086-.043l-.998.323a1.2 1.2 0 0 0-.223-.346zM79.24 63.1v.505l-.111-.488a1 1 0 0 1 .111-.017zm.117 0a1 1 0 0 1 .245.054l-.245.65zm.64.295.013.011-.114.114zm-1.485.101.414.414-.524-.252a1 1 0 0 1 .11-.162zm1.576 0a1.1 1.1 0 0 1 .17.283l-.67.217zm-10.82.764h1.972a8.03 8.03 0 0 0 2.323 5.595l-1.397 1.397a9.97 9.97 0 0 1-2.898-6.992zm10.263 0h.809a1.1 1.1 0 0 1-.156.51zm.992 0h2.051a3.26 3.26 0 0 1-.635 1.877l-1.617-1.26c.119-.179.19-.39.201-.617zm2.168 0h2.217a5.6 5.6 0 0 1-1.129 3.31l-1.746-1.36a3.4 3.4 0 0 0 .658-1.95zm2.334 0h2.217a7.9 7.9 0 0 1-1.62 4.746l-1.749-1.361a5.7 5.7 0 0 0 1.152-3.385zm2.334 0h1.975a9.97 9.97 0 0 1-2.898 6.994l-.665-.664a9 9 0 0 0 .721-.817.07.07 0 0 0-.012-.097l-.767-.598a8 8 0 0 0 1.646-4.818zm-8.55.062-.49.237a1 1 0 0 1-.038-.141zm.6.092.519.65a1.1 1.1 0 0 1-.375.198zm-.243.002-.187.824a1.1 1.1 0 0 1-.387-.25zm-1.066.035q.02.096.054.186l-1.847.89a3.3 3.3 0 0 1-.225-.71zm.79.076-.376.377a1 1 0 0 1-.06-.074zm-2.923.31q.076.39.234.741l-1.013.488a.07.07 0 0 0-.036.04.07.07 0 0 0 .004.052q.157.326.364.623.016.024.043.03h.011a.1.1 0 0 0 .041-.012l.918-.637q.15.21.328.395l-1.566 1.566a5.6 5.6 0 0 1-1.508-2.889zm2.347.09q.037.051.079.096v.002l-1.448 1.448a3 3 0 0 1-.314-.377zm.16.18h.003c.133.122.293.215.47.268l-.457 2a3.3 3.3 0 0 1-1.463-.82zm1.551.08 1.278 1.602c-.4.31-.87.53-1.385.629l-.344-2.023c.166-.038.319-.11.451-.207zm-6.353.067a5.7 5.7 0 0 0 1.54 2.951l-1.567 1.568a7.93 7.93 0 0 1-2.157-4.136l.014.011.012-.002zm-41.656.187h1.363l-.162 2.16q-.709.739-1.377 1.122a2.74 2.74 0 0 1-1.406.382q-.894 0-1.372-.453-.463-.455-.404-1.25a2 2 0 0 1 .233-.824q.213-.37.615-.625t1.021-.383 1.489-.129zm44.927 1.198a3.4 3.4 0 0 0 1.522.85l-.492 2.16a5.6 5.6 0 0 1-2.596-1.444zm4.434.244 1.379 1.73a5.6 5.6 0 0 1-2.447 1.104l-.371-2.184a3.4 3.4 0 0 0 1.439-.65zm-6.082 1.404a5.7 5.7 0 0 0 3.945 1.639v2.217a7.92 7.92 0 0 1-5.513-2.288zm7.535.42 1.38 1.73a7.9 7.9 0 0 1-4.853 1.706v-2.217a5.7 5.7 0 0 0 3.473-1.219zm-9.185 1.23a8.04 8.04 0 0 0 5.595 2.325v1.968a9.97 9.97 0 0 1-6.992-2.896zm10.64.592.602.756a.07.07 0 0 0 .097.014 9 9 0 0 0 .702-.631l.668.668a9.96 9.96 0 0 1-6.997 2.896v-1.97a8.02 8.02 0 0 0 4.928-1.733z"/></svg>