<svg xmlns="http://www.w3.org/2000/svg" viewBox="0 0 128 128"><path d="m1 2 107.6 114.6.1.1c.9.9 2.1 1.4 3.4 1.4 2.7 0 4.9-2.2 4.9-4.9 0-1-.3-2-.9-2.8C115.8 109.9 1 2 1 2zm34.4 11.3 81.1 88.5c.9 1 2.2 1.7 3.7 1.7 2.7 0 4.9-2.2 4.9-4.9 0-1.6-.7-2.9-1.7-3.8zM65 24l55.7 60.6.2.2c.6.6 1.5 1 2.5 1 2 0 3.6-1.6 3.6-3.6 0-.9-.4-1.8-1-2.5l-.2-.2zM11.1 35.8l81.1 88.5c.9 1 2.2 1.7 3.7 1.7 2.7 0 4.9-2.2 4.9-4.9 0-1.5-.6-2.9-1.7-3.8zm82.8.4 24.6 28.1c.3.7 1 1.1 1.8 1.1 1.2 0 2.1-.9 2.1-2.1 0-.5-.2-1-.5-1.3-.1-.2-28-25.8-28-25.8zm-74 27.7 55.7 60.6.2.2c.6.6 1.5 1 2.5 1 2 0 3.6-1.6 3.6-3.6 0-1-.4-1.8-1-2.5l-.2-.2zm14.2 27.8 24.6 28.1c.4.6 1 1.1 1.8 1.1 1.2 0 2.1-.9 2.1-2.1 0-.5-.2-1-.5-1.3-.2-.1-28-25.8-28-25.8z"/></svg>