<svg xmlns="http://www.w3.org/2000/svg" viewBox="0 0 128 128"><path d="M33.102 28.328c-2.954 0-5.48.86-7.62 2.443H41.59c-2.403-1.592-5.32-2.443-8.488-2.443zM5.695 32.381a9.2 9.2 0 0 0-2.744 2.443h16.395c-.604-1.08-1.286-1.874-2.032-2.443zm17.994 0a17.3 17.3 0 0 0-1.935 2.443h23.805a13.7 13.7 0 0 0-1.977-2.443zM1.973 36.434a14.5 14.5 0 0 0-.971 2.443h4.217c.575-.505 1.326-.81 2.314-.81.977 0 1.715.313 2.283.81h18.772a4.7 4.7 0 0 1 .795-.078c.362 0 .718.031 1.07.078h16.9a15.6 15.6 0 0 0-.92-2.443H20.802c-.134.248-.28.475-.41.734-.092-.273-.2-.484-.3-.734zm62.79 0c-1.52.619-2.555 1.51-3.257 2.443h16.363c-.69-1.058-1.66-1.885-3.008-2.443zm16.823 0v2.443h8.201l-1.137-2.443zm15.441 0v2.443h5.825v-2.443zm8.09 0v2.443h5.824v-2.443zm15.295 0v2.443h5.822v-2.443zM.596 40.486a26 26 0 0 0-.362 2.444h3.309c.11-.87.304-1.703.613-2.444zm10.289 0c.32.764.51 1.604.611 2.444h11.358a11.7 11.7 0 0 1 2.343-2.444zm23.562 0c.966.69 1.766 1.525 2.303 2.444h11.229a20 20 0 0 0-.256-2.444zm26.168 0c-.326.826-.459 1.582-.459 2.08v.364h6.32c.6-1.063 1.722-2.053 3.284-2.053 1.293 0 2.31.827 2.984 2.053h6.47c-.124-.876-.29-1.709-.554-2.444zm20.97 0v2.444h10.093l-1.139-2.444zm15.442 0v2.444h5.825v-2.444zm8.09 0v2.444h5.824v-2.444zm15.295 0v2.444h5.822v-2.444zM.092 44.54C.05 45.247.007 45.957 0 46.666l3.37-.436c0-.51.032-1.11.056-1.69zm11.513 0c.012.43.038.913.038 1.24v1.203h9.33c.215-.866.516-1.685.898-2.443zm25.801 0c.073.323.12.648.12.969v1.474h10.497V44.54zm22.75 0v2.443h5.824V44.54zm13.225 0a9 9 0 0 1 .264 2.162h5.824c0-.757-.028-1.47-.07-2.162zm8.205 0v2.443h11.98l-1.138-2.443zm15.441 0v2.443h5.825V44.54zm8.09 0v2.443h5.824V44.54zm15.295 0v2.443h5.822V44.54zm-108.77 4.055v2.441h8.985V49.71q0-.568.057-1.115zm25.883 0v2.441h10.498v-2.441zm22.631 0v2.441h5.824v-2.441zm21.432 0v2.441h5.822v-2.414l1.123 2.414h6.922l-1.139-2.441zm15.44 0v2.441h5.824v-2.441zm8.09 0v2.441h5.823v-2.441zm15.294 0v2.441h5.822v-2.441zm-108.77 4.052v2.444h8.985v-2.444zm25.883 0v2.444h10.498v-2.444zm22.631 0v2.444h5.824v-2.444zm9.85 0v2.17h3.639l-.002.274h5.826v-2.444zm11.58 0v2.444h5.824v-2.444zm7.695 0 1.137 2.444h12.434v-2.444h-5.825v1.766l-.822-1.766zm15.836 0v2.444h5.824v-2.444zm15.295 0v2.444h5.822v-2.444zM11.642 56.7v2.444h8.985V56.7zm25.883 0v2.444h10.498V56.7zm22.631 0v2.203c0 .081.016.16.018.24h5.84c-.01-.08-.034-.16-.034-.24V56.7zm13.467 0c-.015.852-.055 1.683-.19 2.444h6.036V56.7zm7.963 0v2.444h5.824V56.7zm9.582 0 1.137 2.444h10.547V56.7zm13.95 0v2.203c0 .086.014.156.015.24h5.935a12 12 0 0 1-.127-1.869V56.7zm15.294 0v.574c0 .466-.014 1.147-.127 1.87h5.934c0-.085.015-.154.015-.24V56.7zm-108.77 4.053v2.443h8.985v-2.443zm25.883 0v2.443h10.498v-2.443zm22.8 0c.144.871.386 1.696.72 2.443h18.424v-2.443h-6.557c-.56 1.105-1.536 1.848-3.322 1.848-.988 0-2.177-.819-2.914-1.848zm21.26 0v2.443h5.825v-2.443zm11.468 0 1.136 2.443h8.663v-2.443zm12.187 0c.12.94.343 1.735.627 2.443h19.617a9.8 9.8 0 0 0 .627-2.443h-6.289c-.592 1.237-1.775 2.271-4.146 2.271s-3.554-1.034-4.145-2.271zm-93.597 4.053v2.443h8.984v-2.443zm25.882 0v2.443h10.498v-2.443zm24.485 0c1.015 1.319 2.376 2.164 3.97 2.164h13.49v-2.164zm19.576 0v2.164h5.824v-2.164zm13.352 0 1.005 2.164h6.909v-2.164zm11.812 0c1.126 1.495 2.675 2.164 4.19 2.164h9.472c1.515 0 3.065-.67 4.19-2.164zm-95.107 4.052v2.444h8.984v-2.444zm25.882 0v2.444h10.498v-2.444zM11.643 72.91v2.444h8.984V72.91zm25.882 0v2.444h10.498V72.91zm22.623 0v2.444h5.825v-.163c.543 0 .992.065 1.394.163h6.403c-1.28-1.44-2.99-2.113-4.55-2.444zm19.614 0v2.01h2.369c1.008 0 1.828.153 2.5.434h7.072c-.99-1.415-2.409-2.098-3.963-2.444zm15.648 0v2.444h5.824v-.174a5.7 5.7 0 0 1 1.434.174h6.377c-1.263-1.43-2.95-2.106-4.498-2.444zm21.963 0c-1.917.49-3.285 1.417-4.01 2.444H127.4c-.725-1.027-2.09-1.955-4.007-2.444zm-105.73 4.055v2.164h8.984v-2.164zm25.882 0v2.533h10.498v-2.533zm22.623 0v2.533h5.825v-2.533zm9.223 0c.297.68.394 1.566.436 2.533h5.752a8.6 8.6 0 0 0-.739-2.533zm17.08 0c.411.699.658 1.548.772 2.533h5.838c-.097-.978-.285-1.811-.545-2.533zm8.96 0v2.533h5.823v-2.533zm9.226 0c.295.68.39 1.567.431 2.533h5.756a8.6 8.6 0 0 0-.734-2.533zm8.129 0v2.533h5.822v-.639c0-1.084.832-1.804 1.795-1.804.964 0 1.795.72 1.795 1.802v.641H128v-2.533zm-75.24 4.144v2.444h10.497v-2.444zm22.622 0v2.444h5.825v-2.444zm9.706 0 .003.045v2.399h5.823v-2.399l-.002-.045zm17.466 0v.032h-4.486c-3.018 0-4.231 1.029-4.736 2.412h8.591c.21-.015.397-.041.631-.041v.04h5.825V81.11zm8.09 0v2.444h5.824v-2.444zm9.705 0v2.444h5.824V81.14l-.001-.032zm7.65 0v2.444h5.823v-2.444zm9.413 0v2.444H128v-2.444zm-84.653 4.053v2.443h10.498v-2.443zm22.623 0v2.443h5.825v-2.443zm9.707 0v2.443h5.825v-2.443zm7.926 0a20 20 0 0 0-.062 1.227q-.015.612 0 1.216h5.797c-.204-.483-.2-.952-.2-1.216 0-.396.075-.823.262-1.227zm9.541 0v2.443h5.824v-2.443zm8.088 0v2.443h5.824v-2.443zm9.707 0v2.443h5.824v-2.443zm7.649 0v2.367c.003.025.014.051.017.076h15.197c.003-.025.018-.05.02-.076v-2.367h-5.824v.381c0 1.083-.83 1.803-1.793 1.803s-1.795-.72-1.795-1.803v-.38zm-75.227 4.053c.008.834.03 1.651.08 2.443h10.5a45 45 0 0 1-.088-2.443zm22.61 0v2.435h5.824v-2.435zm9.706 0v2.435h5.825v-2.435zm8.086 0c.432 1.392 1.634 2.422 4.895 2.422h10.31v-2.42h-5.824v.047c-.26 0-.46-.032-.69-.05zm17.47 0v2.422h5.823v-2.42zm9.706 0v2.422h5.824v-2.42zm8.393 0c.865 1.103 2.474 2.058 4.726 2.443h4.291c2.252-.385 3.862-1.34 4.727-2.443zm-75.758 4.053c.071.797.163 1.64.256 2.443h10.498c-.093-.826-.185-1.627-.256-2.443zm.447 4.052c.096.783.18 1.518.278 2.352h10.498c-.1-.76-.184-1.565-.28-2.35z"/></svg>