<svg xmlns="http://www.w3.org/2000/svg" viewBox="0 0 128 128"><path d="m59.676 8-.735.734v26.33l.735.733h8.797l.732-.733V8.732L68.473 8zm-26.29 18.574-6.032 6.033v1.207l9.22 9.225h6.39l.852-.852v-6.39l-9.222-9.223zM47.54 46.03l-.732.735V81.86l.732.735h8.78l.734-.735V55.273l.416-.425c2.774-.11 5.367-.17 7.636-.11 4.408.1 5.844 2.932 5.844 6.588v20.545l.735.734h8.777l.73-.734V59.93c0-7.678-6.221-13.9-13.898-13.9zM.732 59.187 0 59.92v8.797l.732.732h35.11l.732-.732V59.92l-.732-.733zm91.438 0-.734.733v8.797l.734.732h35.107l.733-.732V59.92l-.733-.733zm-55.594 26.4-9.222 9.222v1.209l6.033 6.033h1.207l9.222-9.223v-6.39l-.85-.85zm23.1 7.25-.735.735v26.33l.735.733h8.797l.732-.733V93.57l-.732-.732z"/></svg>