<svg xmlns="http://www.w3.org/2000/svg" viewBox="0 0 128 128"><path d="M63.453 5C46.59 5 32.918 18.625 32.918 35.43c0 11.164 6.035 20.925 15.027 26.218l8.748-14.787a.82.82 0 0 0-.263-1.09c-3.321-2.247-5.504-6.04-5.504-10.34 0-6.894 5.607-12.486 12.525-12.486S75.98 28.535 75.98 35.43c0 4.3-2.182 8.094-5.502 10.34-.36.243-.485.72-.266 1.09l8.75 14.788c8.992-5.293 15.027-15.054 15.027-26.218C93.988 18.625 80.316 5 63.453 5zM30.57 62.555C13.703 62.555.035 76.179.035 92.985c0 16.803 13.668 30.43 30.535 30.43 16.946 0 30.95-14.337 30.524-31.212H43.906c-.453 0-.808.383-.812.832-.043 6.723-5.672 12.434-12.524 12.434-6.922 0-12.527-5.59-12.527-12.485S23.648 80.5 30.57 80.5c1.81 0 3.532.383 5.086 1.074.383.168.836.04 1.047-.316l8.774-14.836a30.5 30.5 0 0 0-14.907-3.867zm82.301 4.047-8.723 14.804c-.218.371-.089.848.266 1.09 3.328 2.238 5.516 6.028 5.523 10.328.013 6.894-5.584 12.492-12.503 12.504-6.917.016-12.54-5.566-12.551-12.46-.008-4.302 2.168-8.098 5.488-10.348.356-.243.48-.72.262-1.09l-8.774-14.778c-8.988 5.313-15.004 15.082-14.984 26.246.031 16.805 13.727 30.407 30.59 30.375 16.863-.027 30.512-13.675 30.48-30.48-.019-11.164-6.07-20.914-15.074-26.191z"/></svg>