<svg xmlns="http://www.w3.org/2000/svg" viewBox="0 0 128 128"><path d="M63.996.008C28.652.008 0 28.66 0 64.008c0 34.32 27.02 62.332 60.95 63.922a66 66 0 0 0 3.046.074 63.77 63.77 0 0 0 42.652-16.285c13.102-11.72 21.348-28.754 21.348-47.715s-8.246-35.988-21.344-47.707C95.383 6.219 80.532.07 64.238.007zm11.37 8.797zM64.68 11.479a47.4 47.4 0 0 0-7.373 3.585h0a47.4 47.4 0 0 1 7.373-3.585zm-.004 5.345c18.633 0 33.732 21.125 33.732 47.18s-15.1 47.18-33.732 47.18c-8.285 0-15.871-4.18-21.742-11.114-7.078-8.352-11.66-20.698-11.973-34.558V62.5c.313-13.859 4.895-26.207 11.973-34.559h0c5.87-6.934 13.457-11.117 21.742-11.117zM52.76 18.14zm-7.166 85.101c.328.365.65.738.986 1.092-.337-.354-.658-.727-.986-1.092z"/></svg>