<svg xmlns="http://www.w3.org/2000/svg" viewBox="0 0 128 128"><path d="M59.313 55.803a2.32 2.32 0 0 0-1.93.998l-9.838 15.396h3.68l8.087-12.818 4.409 7.09h-8.334l1.84 2.863h8.437l1.736 2.865h3.68l-9.875-15.424c-.414-.609-1.128-.97-1.892-.97zm-50.254.154c-4.484 0-8.121 3.642-8.121 8.127s3.638 8.113 8.12 8.113h9.44c4.485 0 8.121-3.629 8.121-8.113s-3.636-8.127-8.121-8.127zm19.22 0v16.242h3.123V58.822h10.336a2.62 2.62 0 0 1 2.617 2.631 2.62 2.62 0 0 1-2.617 2.631l-8.806-.014 9.324 8.127h4.539l-6.275-5.261h1.425a5.49 5.49 0 0 0 5.496-5.483 5.5 5.5 0 0 0-5.496-5.496zm49.323 0c-4.484 0-8.125 3.642-8.125 8.127s3.64 8.113 8.125 8.113h9.63l1.84-2.865H77.811c-2.904 0-5.264-2.345-5.264-5.248a5.267 5.267 0 0 1 5.264-5.264h9.173l1.83-2.863zm12.896 0v14.686c0 .402.157.791.455 1.09.298.297.7.464 1.14.464h14.245l1.842-2.865H93.62V55.957zm25.094 0c-4.484 0-8.127 3.643-8.127 8.127s3.643 8.113 8.127 8.113h9.63l1.84-2.865H115.8a5.25 5.25 0 0 1-5.055-3.822h13.35l1.84-2.865h-15.19a5.266 5.266 0 0 1 5.055-3.825h9.164l1.853-2.863zM9.268 58.82h9.02a5.26 5.26 0 0 1 5.259 5.264 5.25 5.25 0 0 1-5.26 5.248h-9.02a5.25 5.25 0 0 1-5.255-5.248 5.26 5.26 0 0 1 5.256-5.264z"/></svg>