<svg xmlns="http://www.w3.org/2000/svg" viewBox="0 0 128 128"><path d="M64.162.066a.6.6 0 0 0-.26.063L33.754 15.043a.26.26 0 0 0-.152.246v12.766c-.004.035.015.066.046.086.032.02.07.023.102.007l30.234-14.984a.34.34 0 0 1 .313 0l30.148 14.938q.165.08.164-.098.093-6.11.016-12.227c-.008-.359.316-.527-.246-.804A79436 79436 0 0 1 64.422.129a.6.6 0 0 0-.26-.063zm-.017 33.403C47.28 33.469 33.613 47.137 33.613 64s13.668 30.531 30.532 30.531c16.863 0 30.53-13.668 30.53-30.531s-13.667-30.531-30.53-30.531zM33.742 99.855c-.027-.015-.066-.01-.094.004a.1.1 0 0 0-.046.086v12.856c-.004.035.02.07.054.09l30.426 15.09a.09.09 0 0 0 .09 0l30.41-15.051a.1.1 0 0 0 .055-.09l.011-12.875a.1.1 0 0 0-.046-.086.1.1 0 0 0-.098-.004l-30.305 15.004a.09.09 0 0 1-.09 0z"/></svg>