<svg xmlns="http://www.w3.org/2000/svg" viewBox="0 0 128 128"><path d="M63.99 11.08a19 19 0 0 0-1.937.178c-.623.067-1.247.178-1.848.27-.733.087-1.468.132-2.203.222-.69.09-1.402.224-2.092.336-.245.045-.49.132-.736.176-.533.11-1.09.157-1.625.336-.956.29-1.913.627-2.848.982-.869.357-1.716.736-2.539 1.182-.846.467-1.647 1.022-2.45 1.558a38 38 0 0 0-2.25 1.627c-.71.56-1.378 1.183-2.025 1.807-.354.355-.646.78-.98 1.182-.556.647-1.112 1.27-1.646 1.939-.444.558-.847 1.138-1.27 1.719-.756 1.023-1.4 2.116-2.002 3.209-.245.446-.466.893-.69 1.338-.333.668-.69 1.314-1.001 2.005a8.5 8.5 0 0 0-.535 1.495 198 198 0 0 0-.913 3.298c-.267.982-.334 2.01-.355 3.012-.023.892.065 1.76.154 2.653.023.223-.11.49.156.667-.088.246-.022.382.11.424-.154.246.068.402-.02.625-.023.044.067.135.11.201 0 .068-.021.156 0 .223.023.2.113.402.113.625 0 .156.133.334.178.49.022.066 0 .178-.045.223-.134.156-.113.29.088.379.112.29.069.423.047.559.044.2-.023.265 0 .31.177.357.244.76.265 1.16 0 .09.045.177.09.29.022 0 0 .423 0 .423.11-.066.2-.088.31-.133.069.29.134.558.223.803.112.178.113.266.069.29.088.4.132.778.287 1.157 0-.423-.042-.846-.11-1.248.312.112.58.223.758.223.023-.068.044-.156.067-.201-.134-.133-.245-.333-.38-.467.046.178 0 .247 0 .314a4 4 0 0 0-.31-.136c.09-.11.178-.223.31-.356 0-.2-.108-.38-.421-.357.133-.044.266-.11.422-.156.245-.133-.022-.378-.022-.69.022-.378-.2-.758-.267-1.16-.112-.624-.09-1.56-.157-2.184-.133-.11-.243.179-.265.202.067.534.133 1.067.177 1.603-.132-.446-.223-.936-.334-1.47-.022.155-.044.222-.044.312-.11.11-.022.245.044.4-.155-.067-.334-.043-.334-.043v.623c-.22-.223-.287-.4-.4-.556-.044-.178-.066-.356-.11-.534.044-.112 0-.18 0-.246a14 14 0 0 1-.068-.537c.022-.022-.021-.355-.021-.355.178.02.29.043.4.043-.222-.288-.067-.466.024-.645.045-.09.199-.11.244-.201.177-.334.469-.6.469-1.025 0-.2.066-.424.087-.625.045-.38.09-.758.112-1.137.045-.49 0-.98.111-1.45a32 32 0 0 1 .647-2.341c.177-.558.38-1.09.601-1.649.334-.87.645-1.74 1.069-2.564.6-1.205 1.29-2.364 1.959-3.545.422-.736.87-1.428 1.337-2.14.445-.693.89-1.404 1.403-2.051a18 18 0 0 1 2.36-2.52c.89-.802 1.736-1.627 2.692-2.363a27 27 0 0 1 3.963-2.543c1.137-.6 2.316-1.072 3.496-1.518.758-.289 1.58-.422 2.36-.668a9.4 9.4 0 0 1 2.717-.445c.6-.023 1.178-.09 1.779-.156a46 46 0 0 0 1.648-.156c-.067.088-.089.133-.111.177-.244.357-.51.715-.756 1.07-.2.29-.422.604-.623.893-.357.47-.737.937-1.07 1.428-.512.736-.98 1.493-1.514 2.228-.533.714-1.113 1.384-1.67 2.075-.734.96-1.426 1.94-2.16 2.898-.668.914-1.38 1.785-2.025 2.7-.58.8-1.09 1.649-1.647 2.472-.823 1.227-1.648 2.43-2.47 3.656a245 245 0 0 1-1.96 2.787c-.043.068-.111.088-.177.133-.178.29-.18.447-.246.58-.178.334-.356.669-.557.98-.112.179-.267.334-.4.512-.022-.267.355-.4.177-.736-.11.18-.223.335-.334.514l-.267.533c.087.067.238.112.094.24-.015-.052-.09-.089-.147-.13q-.266.367-.533.802c.134.11.2.07.289-.088.078-.156.19-.278.291-.41q-.052.099-.106.19a.8.8 0 0 0 .245-.223c0 .245-.133.444-.245.644-.088.178-.31.313-.466.446.022.022.176.09.199.113.2-.068.269-.18.29-.113.07-.09.135-.156.157-.223.088-.223.22-.4.444-.49.09-.045.155-.112.222-.178.67-.692 1.358-1.36 1.96-2.096.934-1.138 1.781-2.32 2.673-3.478.377-.49.822-.98 1.223-1.45.066.514.022 1.004 0 1.473-.068.824-.112 1.65-.178 2.496-.023.335.001.667-.022 1.002 0 .09-.068.157-.068.246 0 .223.068.468.068.692-.067.825-.157 1.626-.224 2.451-.023.178.064.357.11.514-.11 1.203.136 2.475-.065 3.746.155-.246.199-.4.199-.557.021-.134 0-.268 0-.424v-.222c.021-.402.11-.825.066-1.227-.044-.446-.044-.869.045-1.293.045-.178-.022-.402.09-.625v.334c-.022 1.27.024 2.542-.154 3.813-.023.11.067.31-.178.289-.2.4.044.69-.178.914-.045.045.042.245.065.379-.09.268-.09.27.045.29.022.492.066.936.088 1.405.355-.846.178-1.718.336-2.588.022.357.044.714.021 1.092 0 .58-.023 1.137-.045 1.717 0 .11-.023.224-.045.336-.067.313-.087.624-.199.914-.089.223-.045.557-.045.824v.847c.09.38-.022.58.045.803-.068.224-.09.29-.068.358l.068.334c.446-.045.244.29.422.468-.134.18-.088.246-.088.336 0 .2-.022.38-.045.58 0 .513-.021 1.025-.021 1.516 0 .068.021.131.021.2 0 .044-.021.626-.021.626.044.066 0 .132-.069.2-.02 0-.088-2.833-.088-2.833h-.334c-.044 1.337.068 2.542-.177 3.791-.268.022-.356.067-.647.067-.69 0-1.38 0-2.07.021-.824 0-1.624.022-2.45.022-.398 0-.823.045-1.224.045-.535 0-1.09-.067-1.623-.067-.825 0-1.627.068-2.451.09-.6.022-1.2.022-1.801.045-.402.021-.804.042-1.203.088-.178.022-.334.087-.557.154-.067 0-.222-.022-.355 0-.224.045-.424.18-.649.225-.334.068-.423.155-.379.49v.223c-.022.044.49-.069.49-.069-.044 0-.066.135-.134.246.18-.067.29-.112.402-.156.334.157.625.07.89.137.87.222 1.757.311 2.647.398.58.045 1.136.07 1.715.09.823.045 1.649.09 2.47.09.692 0 1.36-.068 2.05-.068.956 0 1.915.044 2.87.068.202 0 .425-.023.647-.023h1.623c1.45-.044 2.896-.07 4.344-.112.825-.023 1.671-.067 2.494-.09l2.537-.068c.98-.022 1.96-.02 2.918-.04.735 0 1.448-.027 2.184-.048.822-.022 1.668-.089 2.492-.133.446-.022.891-.068 1.336-.11.535-.046 1.092-.11 1.625-.134.802-.045 1.626-.068 2.428-.113 1-.066 2.003-.155 3.027-.178.936-.044 1.893-.02 2.828-.043.824-.023 1.648-.068 2.494-.09l.936-.044 1.65 9.15c-.098.07-.193.14-.293.21-.733.515-1.468 1.026-2.203 1.516-.4.267-.845.468-1.27.713-.421.246-.824.47-1.247.713-.268.178-.512.423-.801.559-.735.313-1.515.579-2.272.869-.736.313-1.27.58-1.826.781a13 13 0 0 1-1.58.422c-.178.046-.38 0-.58.024-.379.067-.756.158-1.135.2-.98.135-1.96.224-2.94.358-.578.068-1.135.177-1.714.244-.4.022-.824-.021-1.225-.021-.289 0-.6.068-.89.023-.467-.067-.935-.178-1.403-.267-.11-.022-.267-.068-.355-.022-.178.09-.335-.044-.514 0-.11.023-.22-.068-.332-.068-.09-.021-.203.023-.314 0-.246-.066-.468-.155-.737-.133-.264.022-.532-.112-.82-.178-.402-.09-.779-.177-1.182-.267a2 2 0 0 1-.443-.201c-.58 0-.958-.022-1.314-.157-.312-.11-.602-.267-.936-.222-.088.022-.153-.022-.244-.022-.068-.09-.132-.267-.2-.267-.443.022-.712-.356-1.091-.47-.2-.066-.356-.288-.557-.355-.49-.2-.888-.624-1.445-.691-.178-.023-.355-.112-.557-.178.068.088.11.156.178.223-.645-.313-1.246-.67-1.848-1.004-.088-.022-.155-.11-.222-.156l-.6-.4c-.334.066-.468-.068-.558-.112-.601-.423-1.293-.692-1.871-1.16-.247-.202-.534-.335-.711-.58-.313-.38-.69-.646-1.114-.87-.333-.176-.645-.379-.957-.58-.156-.11-.312-.244-.312-.49 0-.156-.065-.312-.266-.222-.089-.134-.177-.29-.289-.334-.267-.11-.446-.315-.646-.493-.2-.177-.355-.422-.6-.511-.446-.178-.715-.555-.98-.867-.625-.737-1.182-1.54-1.76-2.319-.045-.068-.135-.113-.201-.18.088.246.201.446.312.668-.222-.088-.378-.244-.512-.4-.022.023 1.535 2.586 1.535 2.586.137.2.245.4.38.602a.69.69 0 0 1-.669-.358c-.2-.355-.422-.577-.867-.531a4 4 0 0 1-.111-.492c-.09 0-.156.001-.313-.022.313.49.58.914.87 1.405-.113-.068-.179-.113-.225-.135.4.423.69.958 1.201 1.226.112.512.69.758.824 1.248-.11-.022-.2-.043-.312-.066-.178-.223-.38-.446-.578-.691q.066.233.199.402c.267.334.513.667.824.957.112.113.268.158.268.36.177.087.244.109.31.109.046.135-.02.337.246.29.178.336.357.336.602.225.29.29.447.313.646.135 0 .11.022.22.022.31.089-.043.068-.11.068-.222.11.089.177.134.221.178.222.313.423.602.734.847.423.357.802.737 1.202 1.07.78.649 1.65 1.183 2.517 1.673 1.07.602 2.093 1.249 3.184 1.828 1.313.692 2.717 1.162 4.164 1.496.534.11 1.046.22 1.582.353.465.136.932.337 1.4.448.713.156 1.448.29 2.16.423.155.023.314.045.49.067.2.045.444-.044.489.023.112.178.2.089.334.067.155-.045.334-.045.512-.045.623.022 1.224.155 1.847.111.136 0 .336-.114.447.11.2-.09.313-.089.4-.11.026.2 0 .2-.042.223-.046.022-.112.044-.201.111.8.156 1.558.178 2.224 0 1.16.089 2.161-.045 3.12-.379.087.112.155.268.289.045.044-.068.156-.091.246-.113.2-.045.445-.135.623-.069.2.068.267-.109.422-.109.268 0 .512-.024.757-.068.134-.022.27-.088.424-.133a1.1 1.1 0 0 0-.49-.113c.268-.134.512-.246.758-.356-.045.066-.09.156-.178.156h.31c-.066 0-.156.2-.267.334.8-.2 1.535-.38 2.248-.558-.245-.467.267-.31.445-.578a7 7 0 0 1-.67.177c.758-.378 1.537-.712 2.293-1.047-.11.134-.244.2-.443.313.134.021.221.022.29.043.353.112.267-.223.378-.424.423 0 .6-.065.8-.133.224-.067.445-.134.669-.222.355-.156.69-.356 1.047-.534.067-.023.176 0 .265 0 .246-.157.335-.29.4-.27.315.047.534-.067.624-.355l.064-.046c.09.197.267.218.557.02-.18 0-.356-.022-.512-.044-.016 0-.022.01-.031.016.11-.082.214-.161.3-.215.49-.267.955-.535 1.446-.8.178 0 .268-.001.312-.024a10 10 0 0 0 .825-.446 2 2 0 0 1-.223-.111c.162-.033.228-.056.31-.082l.022.12v.001c-.046.09-.09.155-.135.244.023 0 .046.023.069.045.133-.134.288-.243.49-.398-.18.042-.312.065-.422.11l-.022-.122c.03-.01.076-.017.112-.03.533-.624 1.268-1.05 1.824-1.54.245-.022.246-.09.246-.133.088-.112.177-.244.287-.334.49-.446 1.026-.825 1.47-1.293a32 32 0 0 0 1.849-2.008c.533-.624 1.068-1.247 1.513-1.94.624-.957 1.158-1.94 1.715-2.945.401-.712.756-1.425 1.158-2.138.043-.068.133-.157.2-.157.6-.067 1.204-.11 1.783-.177.133-.022.288-.11.422-.178-.068-.112-.112-.246-.178-.357-.09-.136-.223-.243-.313-.38-.088-.11-.155-.245-.222-.378-.068-.11-.133-.2-.2-.313a8 8 0 0 1-.38-.758c-.022-.067-.07-.176-.045-.244.4-.869.557-1.806.935-2.676.378-.89.49-1.894.668-2.853.156-.914.246-1.83.356-2.742.067-.647.156-1.27.177-1.916.136-1.026.09-1.986.069-2.946-.022-.846-.07-1.714-.112-2.562l-.001-.004c-.044-.87-.065-1.738-.155-2.607-.155-1.182-.313-2.386-.58-3.545-.2-.96-.532-1.874-.867-2.787-.423-1.07-.847-2.163-1.38-3.188-.87-1.65-2.005-3.122-3.052-4.66-.692-.981-1.58-1.784-2.25-2.787-.378-.58-.935-1.069-1.492-1.514-.89-.715-1.825-1.363-2.76-1.986a28 28 0 0 0-2.183-1.383c-.6-.336-1.245-.602-1.87-.893-.711-.334-1.403-.736-2.204-.892-.202-.042-.378-.11-.579-.178-.51-.178-1.003-.377-1.515-.533-.78-.245-1.536-.535-2.338-.736a21 21 0 0 0-2.379-.448c-.89-.13-1.804-.176-2.695-.263a23 23 0 0 0-1.713-.157c-.846-.044-1.716-.044-2.56-.066-.425-.023-.869-.068-1.292-.045zm1.906 2.584c.29.046.56.09.827.111l1.068.069c.801.065 1.602.109 2.402.219.67.09 1.337.225 2.028.335 1.47.246 2.917.648 4.32 1.116.824.267 1.624.624 2.428.959 1.802.736 3.517 1.626 5.209 2.562.533.29.846.758 1.246 1.182.58.602 1.159 1.204 1.715 1.828.644.736 1.244 1.494 1.869 2.252.556.668 1.135 1.338 1.693 2.008.178.2.313.445.467.668.355.535.757 1.048 1.068 1.627.222.424.356.916.512 1.384.222.692.445 1.36.668 2.051.155.513.287 1.05.398 1.582.09.358.068.735.178 1.09.136.47.002.982.137 1.451.02.045.04.112.064.156.09.088.157.18.024.313-.021.022-.021.11 0 .178.045-.044.066-.09.111-.157 0 .045.022.07.022.09 0 .088-.023.177 0 .266 0 .044.044.11.066.156.045-.046.089-.069.178-.137.2.76.222 1.517.222 2.297 0 .736.133 1.473-.177 2.186.066-.245-.09-.469-.024-.692l.01.006c-.023 0-.156-.136-.178-.158-.023.068 0 .135-.045.225-.022-.066-.177-.046-.177-.112-.023.312.135.626.11.938.07-.045.334-.069.401-.135a.2.2 0 0 0 .09.045c-.446.335-.335.668-.135 1.049.044.088.18.267.045.445-.044.045.023.176.045.29h.065v.042l-.2.069c-.044-.068-.31-.202-.31-.315v1.139c.222.067.222.38.31.537a.7.7 0 0 0 .09-.178l.024.02c-.023.133-.045.268-.09.402-.044.2-.087.378-.11.578 0 .022.042.067.042.088-.244.558-.109 1.18-.198 1.76-.067.423 0 .873-.045 1.318a11 11 0 0 1-.224 1.158c-.023.068-.068.088-.178.133a1.8 1.8 0 0 0-.021-.69c-.024 0-.314-.156-.336-.156 0 .315.176.737.244 1.092-.068-.022-.335-.177-.356-.177-.045.267-.044.622-.066.912-.023.223-.223.424-.246.67 0 .135.157.222.135.445h.177c0-.445.201-.846.201-1.315h.065c.023.045.09.09.068.112-.045.245-.135.514-.111.76 0 .133.11.266.068.421a2.2 2.2 0 0 0-.091.47c-.023-.114-.045-.157-.045-.223-.022 0-.222-.024-.245-.024-.022.134.156.27.133.38-.022.024-.043.023-.088.046l-.734-1.072c-.58-.846-1.16-1.694-1.738-2.563a5.4 5.4 0 0 1-.403-.67 31 31 0 0 0-2.293-3.412c-.644-.824-1.158-1.717-1.76-2.584-.553-.825-1.11-1.627-1.667-2.453-.2-.267-.445-.513-.623-.803-.578-.914-1.093-1.85-1.67-2.763-.491-.76-1.023-1.497-1.535-2.23-.178-.247-.356-.515-.536-.782a.3.3 0 0 1-.043-.154c-.044-.491-.09-.982-.113-1.45 0-.446.045-.89.045-1.36v-.4c0-.11.022-.2.022-.314.02-.02.044-.066.066-.088-.646 0-1.314-.023-1.959 0-.423.021-.646-.156-.936-.469-.846-.958-1.468-2.05-2.203-3.076-.69-.98-1.403-1.942-2.115-2.9-.58-.78-1.16-1.538-1.738-2.318-.647-.892-1.27-1.783-1.938-2.674a323 323 0 0 0-2.449-3.211c-.38-.49-.803-.958-1.227-1.47zm-2.064 1.17c.048.008.092.048.137.104.6.757 1.202 1.538 1.802 2.296.447.56.892 1.092 1.315 1.672.512.714 1 1.429 1.514 2.14.578.827 1.158 1.649 1.714 2.495.847 1.25 1.649 2.5 2.495 3.748.623.914 1.247 1.805 1.847 2.719H73.52c-1.046-.021-2.117-.11-3.163-.067-1.424.068-2.87.225-4.294.336-1.804.157-3.63.178-5.432.178-.647 0-1.293.09-1.938.135-.78.044-1.537.09-2.316.111-.914.046-1.803.067-2.717.09-.513.022-1.047 0-1.603 0l.002-.004c.71-.98 1.445-1.964 2.158-2.967.222-.292.4-.603.623-.892.068-.09.157-.133.267-.223l-.023-.043c.089-.112.178-.204.223-.29.113-.18.18-.38.27-.581a.3.3 0 0 1 .089-.086c.313.156.312-.179.422-.29.2-.225.4-.47.578-.692.134-.178.27-.335.38-.535.024-.069-.045-.178-.067-.268h-.067c.068-.044.134-.11.201-.156.022 0 .021 0 .043-.022.134-.2.269-.4.403-.58.266-.355.555-.712.867-1.023a4 4 0 0 1-.135.31c.023 0 .023.024.045.024.267-.357.557-.69.824-1.05-.023-.02-.045-.044-.068-.044-.11.112-.2.224-.31.336-.024-.023-.044-.045-.07-.045.226-.29.45-.58.67-.914.047.068.089.155.177.334.09-.223.18-.38.246-.535-.066.067-.154.134-.221.2l-.068-.066.4-.601c.423-.602.846-1.226 1.27-1.828.156-.223.354-.402.49-.625.423-.846 1.092-1.517 1.603-2.297.112-.156.268-.288.4-.422.057-.068.106-.09.153-.082zm-6.277 8.684c-.133.088-.245.156-.38.246h-.001c-.023.022-.044.023-.022.023.023.11.021.199.043.354.157-.225.267-.4.403-.578zm18.789 9.181c.2 0 .312.07.424.246.2.334.4.67.623 1.004.022.044.066.112.066.18 0 .49 0 1.001.022 1.492.02.513.068 1.005.09 1.518 0 .512-.047 1.047-.024 1.582.023.759.045 1.538.045 2.316l.004.002v.201c-.022 0-.045.026-.09.026-.09-.313-.176-.65-.29-.961-.221-.648-.467-1.295-.868-1.873-.447-.624-.845-1.27-1.291-1.916-.11-.157-.269-.291-.403-.424-.468-.514-.934-1.052-1.535-1.43a18 18 0 0 0-2.785-1.428 6 6 0 0 1-.777-.398h.533l3.807-.068c.824-.022 1.626-.024 2.449-.069zm-16.719.582q.24-.005.488.026c-.355.179-.712.357-1.023.58-.401.267-.778.624-1.18.914a6.7 6.7 0 0 0-1.092 1.023c-.423.512-.89.96-1.336 1.451-.313.356-.67.69-.935 1.07-.378.49-.712 1.024-1.068 1.583.11-2.12.245-4.215.156-6.356h.002c1.046-.045 2.047-.109 3.072-.154.8-.045 1.625-.067 2.426-.111.167-.01.329-.023.49-.026zm5.586 1.14c.666.022 1.334.02 2.002.065a3.4 3.4 0 0 1 .824.178 8 8 0 0 1 1 .426c.378.203.735.424 1.092.67.645.423 1.247.89 1.892 1.27.624.377 1.113.892 1.514 1.472.49.69 1.047 1.313 1.27 2.16l.334 1.475c.067.267.223.532.156.843-.113.56-.202 1.14-.291 1.698-.044.224-.09.448-.067.668.044.693-.223 1.293-.49 1.918-.09.2-.223.402-.334.625.022.022.156.09.178.09l.201-.4c.023 0 .023-.003.045.019-.112.312-.202.648-.314.96-.266.69-.533 1.406-.868 2.075-.177.379-.49.69-.71 1.049-.222.31-.4.643-.624.933-.2.246-.4.49-.667.668-.601.446-1.226.891-1.872 1.248-.4.246-.867.38-1.312.492l.006-.003c-.713.178-1.448.38-2.184.47-.623.09-1.268.069-1.914.069-.58 0-1.136-.025-1.715-.07-.645-.067-1.292-.134-1.916-.425-.535-.245-1.09-.468-1.623-.736-.536-.267-1.07-.576-1.472-1.066-.288-.358-.69-.648-1.045-.961-.09-.178-.204-.38-.291-.559-.178-.29-.356-.598-.512-.888-.045-.068-.044-.137-.088-.204a5 5 0 0 1-.312-.402c-.178-.267-.335-.554-.557-.822 0 .067.023.133.023.222-.023 0-.045.024-.045.024l-.468-1.139c-.022 0-.023.002-.045.024l.4 1.47c-.022 0-.045.024-.068.024a1.4 1.4 0 0 1-.178-.291c-.044-.18-.177-.177-.287-.11-.068.044-.113.201-.09.268.157.379.335.758.514 1.137.044.133.087.245.154.379.023.044.09.089.09.156.09.178.157.354.267.512.201.267.423.533.624.8.2.268.378.56.556.827.022.044.088.045.11.068.112.334.49.577.757.443.068.513.624.693.846 1.184a10 10 0 0 1-.645-.291c-.021.022-.024.045-.046.09.267.133.535.266.779.422.224.135.446.267.646.421.268.246.58.382.957.471a.24.24 0 0 0-.043-.094c.623.29 1.27.606 1.758.85-2.315.046-4.786.09-7.347.135 0-.423-.022-.826-.022-1.25 0-.178.044-.335.022-.514-.068-1.024-.069-2.05-.202-3.055-.132-1.07-.132-2.116-.109-3.19.021-.576-.024-1.178-.047-1.759 0-.78 0-1.538.024-2.316 0-.112.044-.202.09-.315h.068c.02.046 0 .112.043.135.067.068.178.178.222.156.133-.09.334-.175.38-.31a2.2 2.2 0 0 0 .156-.824c0-.2.09-.336.177-.471.046-.067.067-.134.112-.223-.09-.068-.177-.109-.29-.199.09-.244.069-.537.403-.67.044-.023.045-.133.068-.2.021-.18.04-.382.065-.56.044.068.07.09.111.133.024-.044.045-.064.045-.064 0-.088-.022-.27 0-.27.267-.045.154-.333.29-.467.02-.023-.022-.09-.022-.134s0-.112.021-.112c.31-.068.266-.4.467-.556.068-.045.089-.11.178-.223.177.31-.135.467-.157.69.378-.223.49-.758.268-.915.089-.067.176-.156.244-.246.245-.267.511-.511.734-.78.157-.198.247-.445.403-.646.09-.11.267-.198.4-.265.401-.222.778-.469 1.024-.848.044-.045.111-.09.177-.135.068-.044.201-.044.223-.11.023-.045-.043-.157-.088-.224.088-.044.178-.131.356-.22-.068.133-.09.221-.135.31l.111.114c.202-.156.513-.334.713-.467 0-.021-.111-.114-.111-.114-.133.068-.334.178-.533.268.042-.068.04-.11.066-.133.31-.2.623-.4.957-.556.778-.356 1.559-.713 2.338-1.047.134-.068.312-.024.467-.024a.5.5 0 0 0 .177-.021c.356-.112.713-.225 1.069-.315.155-.044.334-.064.492-.064zm-.867.333c-.245.112-.444.2-.645.289h-.002c0 .023-.11.2-.09.2.112-.023.359-.2.493-.223.066 0 .155.022.222.044 0-.09 0-.176.022-.31zm16.097 3.795c.223.29.468.559.623.846.513.938 1.18 1.74 1.803 2.585.535.736 1.025 1.54 1.516 2.297.6.914 1.18 1.828 1.781 2.74a68 68 0 0 0 1.379 2.053c.423.601.87 1.182 1.314 1.762.378.513.779 1.026 1.157 1.54.446.623.89 1.248 1.336 1.85.22.312.468.622.71.934.137.178.335.314.47.424a.2.2 0 0 1-.089-.021c.068.088.11.155.157.199.243.133.264.267.134.465-.022.044-.066.088-.087.134-.023-.045-.023-.112-.045-.203-.134.358-.425.182-.625.182-1.202.023-2.425.02-3.63.02-1.156 0-2.336.003-3.493.023-.38 0-.78.086-1.159.11-.577.027-1.155.04-1.732.056l-1.293-7.166-.002.004 1.291 7.164-1.002.03c-.068 0-.134-.11-.246-.2a1.5 1.5 0 0 1-.133.201c-.024-.044-.068-.085-.113-.152a1 1 0 0 1-.067.176h-.064c-.045-.312-.135-.601-.135-.914 0-.668.07-1.336.09-2.006.023-.312 0-.602 0-.893.09.068.155.115.244.18.044-.087.09-.157.135-.223 0 0-.045-.022-.09-.066.042-.023.088-.068.088-.09.022-.068.068-.136.068-.18 0-.156-.046-.289-.068-.422.022 0 .045.002.068-.021l.133.668h.067c-.09-.155.2-.29-.045-.467-.022-.023.023-.16.023-.227-.068-.132-.11-.264-.178-.443a.5.5 0 0 1 .155-.066c-.09-.044-.156-.09-.223-.112.223-.2.224-.314.023-.537.047-.02.088-.019.088-.039 0-.202.001-.403-.043-.601-.044-.225.068-.49-.267-.625a.7.7 0 0 0 .09.175s-.07.024-.135.069c-.29-.268-.11-.627-.178-1.028.156.045.267.09.38.135-.047-.157-.157-.337-.224-.537h-.09v-1.469c0 .022.155.02.245.043 0-.023.021-.043.021-.066-.067-.09-.157-.18-.246-.291l.045-.043c-.178-.222-.088-.534-.088-.602v-1.558c.224.223-.11.511.223.644v-.22h-.024c-.022-.335-.02-.67-.043-1.004h-.045c-.022.045-.022.068-.044.113h-.043zm.225 10.834v-.004c-.066-.022-.155-.066-.31-.111.043.089.066.153.09.22.11-.022.155-.02.199-.043 0-.02.002-.041.021-.062zM42.928 40.37c-.266.312-.51.627-.756.938h-.004c.044.022.11.175.156.22.245-.334.58-.753.824-1.066-.022-.021-.2-.07-.22-.092zm-1.492 1.096c-.134.2-.466.557-.6.758.022.022.267-.092.289-.069.133-.2.267-.424.4-.625a.4.4 0 0 1-.09-.064zm.466.332c-.132.09-.266.204-.4.293.045.044.045.065.045.11-.178-.024-.245.07-.334.314-.022.067-.133.085-.244.173-.022.046-.045.162-.09.272l.023.021c-.044.045-.111.07-.111.07-.134.134-.29.245-.424.378-.022.067-.045.133-.045.199.157-.155.425-.445.625-.623l.022.021c.089-.133.156-.264.246-.398.02.022.022.041.045.064-.068.178-.135.38-.201.559-.047.022-.114.068-.114.045-.089.068-.156.156-.246.223l-.4.265c-.223.2-.444.377-.69.578-.155.246-.31.468-.49.758.268-.068.335.048.313.272.31.044.333-.201.422-.381.022-.045.044-.136.09-.158.2-.177.42-.332.644-.51.045-.045.045-.135.045-.201 0-.022-.11-.023-.178-.045.2-.224.49-.6.69-.846.11-.068.222-.16.222-.227-.018-.2.092-.274.227-.345-.106.477-.397.882-.692.966.09.045.18.09.246.069.066-.023.11-.135.155-.201l.6-.871.202-.334-.09-.088v.002c-.087.155-.178.288-.267.445l-.074-.037.006-.004c-.09-.068-.112-.134-.112-.156v-.002a1 1 0 0 1 .114-.201c.044 0 .109-.024.109-.024.09-.156.09-.267.18-.4-.022-.022-.046-.022-.069-.045zm38.633 2.736-.002.004c-.022.066-.021.133-.021.201 0-.068 0-.137.023-.205zm-.023.428v.021c.023.022.023.022.045 0-.022 0-.023.002-.045-.021zm0 .045c-.065.022-.131.022-.221.045.11.04.218.062.22.105zm0 .15v.004l.002-.002zm-3.276 3.908c-.045 2.542.245 5.038.578 7.557l-7.656.27c1.001-.423 1.825-1.025 2.58-1.717a2.6 2.6 0 0 1 .358-.315c.935-.578 1.623-1.38 2.248-2.271.712-1.026 1.18-2.186 1.76-3.28.044-.09.087-.176.132-.244zm3.162.42.002.002c.022 0 .043.026.043.026l-.021-.028c0-.02-.002-.02-.024 0zm-45.418.07a.6.6 0 0 0-.199.09c.09.223.2.47.29.694a.7.7 0 0 1 .177-.088c-.09-.223-.177-.47-.266-.693h-.002zm-.623.919c-.066.11-.135.22-.11.308 0 .067.11.133.177.201 0-.022.022-.043.045-.064-.044-.157-.066-.29-.112-.445zm1.157.51a.8.8 0 0 0-.2.09c.178.377.356.78.534 1.157.022 0 .2-.09.2-.09-.178-.38-.29-.802-.534-1.158zm-.444.892c0 .088-.113.063-.113.152-.131 0-.242-.02-.353-.02-.022.023.066.157.09.18h.466c0-.113-.023-.2-.023-.312zm21.237.426c.067.267.222.49.466.644-.11.134-.266.068-.49-.289-.066.044-.133.066-.178.088.068-.156.135-.31.202-.443zm-.758.443c.245.378.49.736.758 1.09l-.022.023c-.046-.022-.112-.044-.156-.09l-.535-.8a.26.26 0 0 1-.045-.223zM80.4 53.947l-.002.002c-.022.268-.044.468-.044.668 0 .045.045.135.068.135.044.024.133-.024.178-.045a.17.17 0 0 0 .045-.09c-.067-.046-.134-.065-.202-.111.423-.223.001-.336-.043-.559zm10.159 3.905c.31 0 .644.044 1.045.066-.178.156-.29.244-.422.355.088.022.178.07.267.114a.6.6 0 0 1-.355.11c-.046.112-.092.158-.137.38h.402c-.155 0-.29.202-.445.336-.178-.046-.335-.003-.424.242.156.088.134.156.112.246-.268.088-.468.18-.356.469-.09.044-.2.088-.312.154-.11.178-.312.224-.268.469.09.021.178.068.246.088-.112.045-.222.11-.334.154-.4.245-.222.359-.133.47a1 1 0 0 1-.2.11c.042.2.11.246.132.246-.062.046-.15.12-.232.188l.027-.072h-.09c0 .04.01.074.016.109-.02.018-.033.027-.055.045-.068.2-.157.288-.246.422-.09.133-.133.312-.244.445-.467.514-.802 1.117-1.403 1.518-.223.156-.422.355-.623.556-.4.378-.755.803-1.18 1.16-.462.39-.946.75-1.44 1.104l-1.651-9.148.467-.026s.934-.021 1.402-.066c.801-.044 1.602-.135 2.404-.157.511-.022 1.024.002 1.535-.021.824-.022 1.67-.066 2.495-.066zm-48.942 8.714c.243.27.488.538.733.829.067-.023.136-.023.2-.045.069.11.113.245.179.379-.312-.023-.467-.157-.38-.334-.132-.068-.289-.114-.355-.204-.156-.177-.29-.377-.445-.554zm42.21 4.819c-.246.156-.513.31-.759.467.022.022.024.046.047.068.312-.067.558-.223.803-.4l-.002-.002c-.022-.045-.067-.09-.09-.133zM72.92 75.623c-1.024.29-1.357.333-1.469.178.512-.068.98-.112 1.469-.178zm-1.516.2c.023.042.023.088.045.132-.133 0-.222.047-.334.068v-.002c-.31.068-.645.114-.957.159-.11.022-.245.133-.289-.069-.045.023-.089.024-.133.047.11.334.377.065.6.2-.49.066-.955.111-1.424.177v-.045c.135-.022.29-.043.422-.066v-.067a7 7 0 0 0-.668-.044c-.065 0-.155.09-.22.11a1.1 1.1 0 0 1-.292.046c-.378.022-.756.023-1.113.045-.023 0-.068-.024-.09-.024v-.066c1.492-.2 2.962-.4 4.453-.602zm-4.652.577v.067a12 12 0 0 1-1.246.133v-.065c.423-.044.823-.09 1.246-.135zM.096 89.873v2.959l2.45.193v20.471l-2.49.545.39 2.725h11.519l.117-2.608q-4.67-.583-5.643-.777v-6.111h1.79q4.943 0 7.667-1.985 3.076-2.258 3.075-6.81-.001-3.894-2.492-6.15-2.763-2.453-8.172-2.452zm81.806.008q-5.565 0-9.185 3.465c-2.647 2.54-3.969 5.967-3.969 10.273q.002 6.11 4.164 9.885 3.814 3.425 9.184 3.426 4.437 0 6.888-1.752l-1.129-3.074q-.623.465-2.023.972t-3.074.506q-4.514 0-7.238-2.957-2.686-2.918-2.688-7.395.001-4.125 2.455-7.005a8.7 8.7 0 0 1 2.86-2.18 8 8 0 0 1 3.521-.816q1.83 0 2.568.271l1.518 4.203H88.4l-.738-7.082q-3.27-.74-5.76-.74zm18.524 0q-3.543 0-5.994 1.867a6.7 6.7 0 0 0-1.85 2.18q-.68 1.285-.682 3.172 0 1.888.838 3.23a7.7 7.7 0 0 0 2.14 2.258 15 15 0 0 0 2.92 1.576 50 50 0 0 1 3.27 1.479c1.103.544 1.895 1.137 2.375 1.771q.72.954.72 2.14 0 1.188-.429 1.926-1.245 2.179-4.591 2.18a9.6 9.6 0 0 1-3.348-.623l-.7-4.164h-2.724l-.273 6.574q2.958 1.48 6.927 1.48 3.97 0 6.381-1.79a6.8 6.8 0 0 0 2.045-2.393q.758-1.458.758-3.717 0-2.256-1.4-4.007-.741-.934-1.946-1.791a15.3 15.3 0 0 0-2.59-1.479q-1.38-.622-2.431-1.068-1.05-.45-1.908-1.034-1.946-1.245-1.946-3.191 0-1.673 1.227-2.49 1.226-.817 2.996-.817t2.94.39l1.712 4.202h2.684l-.543-6.693a18.8 18.8 0 0 0-6.578-1.168zm19.734 0c-2.36 0-4.361.622-5.994 1.867a6.65 6.65 0 0 0-1.848 2.18q-.68 1.285-.681 3.172 0 1.888.838 3.23a7.7 7.7 0 0 0 2.14 2.258 14.8 14.8 0 0 0 2.918 1.576c1.076.44 2.168.934 3.268 1.479 1.102.544 1.894 1.137 2.375 1.771a3.47 3.47 0 0 1 .719 2.14q0 1.188-.428 1.926-1.245 2.179-4.592 2.18a9.6 9.6 0 0 1-3.348-.623l-.7-4.164h-2.725l-.272 6.574q2.957 1.48 6.928 1.48t6.383-1.79a6.8 6.8 0 0 0 2.043-2.393q.759-1.458.76-3.717 0-2.256-1.401-4.007-.74-.934-1.945-1.791a15.3 15.3 0 0 0-2.59-1.479 124 124 0 0 0-2.432-1.068q-1.05-.45-1.908-1.034-1.945-1.245-1.945-3.191.001-1.673 1.226-2.49 1.227-.817 2.998-.817 1.77 0 2.938.39l1.713 4.202h2.683l-.545-6.693a18.8 18.8 0 0 0-6.576-1.168zm-58.38.732-3.114.739v6.5h-3.463l-.273.388.545 2.53h3.19v11.832q-.002 2.296 1.15 3.308 1.146 1.011 2.822 1.012 1.675 0 2.724-.506 1.05-.505 1.596-1.012a156 156 0 0 1-.818-2.57l-.002.002q-.428.35-1.168.662-.35.195-.739.31-.39.118-.955.118a1.26 1.26 0 0 1-.931-.37q-.37-.369-.37-1.615V100.77h4.243v-2.684q0-.234-.196-.234h-4.046v-6.655zM6.437 93.221H7.8q7.084-.001 7.084 5.215-.001 2.413-1.52 3.853-1.712 1.635-5.29 1.635H6.437zm40.628 4.627q-2.492-.001-4.28 1.324c-1.274.96-1.907 2.232-1.907 3.814q0 2.413 1.752 3.89.855.703 2.121 1.325a64 64 0 0 0 3.035 1.38q1.77.76 1.77 2.198 0 1.129-.895 1.713a3.1 3.1 0 0 1-.855.352q-.468.117-1.225.117-.76-.002-1.654-.39l-.934-2.257-4.01 1.518c.39 1.141 1.22 2.104 2.49 2.88q2.064 1.21 4.243 1.208c1.738 0 3.22-.42 4.437-1.248A5.2 5.2 0 0 0 52.672 114q.585-1.012.584-2.59a4.63 4.63 0 0 0-.973-2.86q-.505-.7-1.42-1.321-.914-.624-2.627-1.325-1.71-.7-2.685-1.34-.974-.642-.973-1.654 0-1.011.74-1.537a2.77 2.77 0 0 1 1.635-.525q.895 0 1.674.388l.894 1.985 3.97-1.518a6.95 6.95 0 0 0-2.296-2.607 7.23 7.23 0 0 0-4.127-1.244zm-17.627.004c-2.335 0-4.252.804-5.76 2.412-.777.804-1.39 1.79-1.83 2.957q-.661 1.75-.662 4.01.001 4.435 2.336 7.042 2.297 2.647 5.916 2.647 3.463 0 5.76-2.49 2.491-2.609 2.49-7.121 0-4.32-2.334-6.89-2.335-2.566-5.916-2.567zm0 2.918q2.102.001 3.327 1.812c.818 1.207 1.226 2.884 1.226 5.04q0 3.23-1.285 4.804-1.283 1.576-3.307 1.576-2.024.001-3.27-1.615t-1.245-4.748q0-3.134 1.129-4.961 1.207-1.908 3.425-1.908z"/></svg>