<svg xmlns="http://www.w3.org/2000/svg" viewBox="0 0 128 128"><path d="M12.8 49.727c-7.07 0-12.8 5.73-12.8 12.8 0 6.977 5.581 12.646 12.523 12.793l.004.004a13 13 0 0 0 3.817-.496c.087-.025.175-.047.26-.074l.003-.002q.3-.092.59-.2l.004-.001q.293-.107.578-.227l.004-.002q.285-.12.563-.254l.004-.002q.277-.135.546-.28l.006-.003q.27-.147.53-.304l.006-.004.037-.024q.505-.31.978-.662l.006-.004q.242-.181.477-.375l.007-.006q.234-.192.457-.396l.006-.006a13 13 0 0 0 .864-.861l.005-.006q.204-.225.395-.457l.008-.008q.192-.233.373-.477.125-.169.244-.341l.113-.159.006-.01c.014-.02.024-.04.04-.062q.316-.477.595-.982l.006-.01q.145-.268.277-.541l.006-.012q.132-.274.252-.555l.004-.011c.03-.07.055-.14.084-.211q.073-.178.14-.358a13 13 0 0 0 .375-1.2l.004-.014q.022-.091.041-.182c.035-.146.072-.29.102-.438.04-.203.08-.408.111-.615l.002-.015q.049-.31.08-.623l.002-.018a13 13 0 0 0 .06-1.137q.004-.075.005-.152v-.02c0-7.07-5.73-12.8-12.8-12.8zm-.29 4.04v1.825h.58l.002-1.824a9.66 9.66 0 0 1 6.357 2.632l-1.361 1.364.41.412 1.363-1.364a9.66 9.66 0 0 1 2.633 6.36H20.67v.582h1.832v2.135H3.098v-2.135H4.93v-.582H3.105a9.66 9.66 0 0 1 2.633-6.36l1.364 1.364.412-.412L6.15 56.4a9.66 9.66 0 0 1 6.36-2.632zm16.726 1.292v14.736h2.409v-5.516h1.53q2.793.001 4.304-1.228 1.511-1.23 1.511-3.537 0-2.198-1.375-3.327-1.376-1.127-4.136-1.128zm34.23 1.109-.806 2.36-1.633.865v1.048h1.524v6.006q0 3.549 3.365 3.55.665-.001 1.285-.118a5 5 0 0 0 1.012-.287v-1.783a5.8 5.8 0 0 1-1.733.271q-.694 0-1.123-.408-.429-.409-.43-1.264v-5.967h3.175v-1.793h-3.174v-2.48zm38.12 0-.807 2.36-1.63.865v1.048h1.52v6.006q0 3.549 3.366 3.55.665-.001 1.285-.118a4.8 4.8 0 0 0 1.014-.287v-1.783a5.8 5.8 0 0 1-1.734.271q-.696 0-1.123-.408-.428-.409-.428-1.264v-5.967h3.174v-1.793h-3.174v-2.48zm-69.941.908h1.671q1.643 0 2.42.623.776.626.776 1.895 0 1.372-.867 2.017t-2.721.645h-1.28zm-18.844.08a6.306 6.306 0 0 0-6.307 6.307h12.611a6.305 6.305 0 0 0-6.304-6.307zm34.101 1.29q-1.028 0-1.92.585a4.4 4.4 0 0 0-1.445 1.582h-.123l-.31-1.965h-1.856v11.147h2.37v-5.826q-.001-1.481.88-2.408.882-.927 2.303-.928.543 0 1.049.12l.232-2.206a5.7 5.7 0 0 0-1.18-.102zm7.465 0q-2.53 0-3.922 1.523-1.389 1.521-1.388 4.232 0 1.744.644 3.063t1.844 2.025 2.762.707q2.498 0 3.898-1.533 1.401-1.53 1.402-4.262 0-2.64-1.412-4.197-1.41-1.558-3.828-1.559zm21.727 0q-1.029 0-1.92.585a4.4 4.4 0 0 0-1.445 1.582h-.122l-.312-1.965h-1.856v11.147h2.37v-5.826q0-1.481.882-2.408t2.303-.928q.543 0 1.047.12l.232-2.206a5.7 5.7 0 0 0-1.18-.102zm6.969 0q-.957 0-2.036.247a8.2 8.2 0 0 0-1.984.721l.766 1.691q.725-.34 1.511-.593a5.3 5.3 0 0 1 1.643-.25q1.047 0 1.547.527.499.529.498 1.598v.593l-1.924.061q-2.621.081-3.9.957-1.28.877-1.28 2.602 0 1.621.922 2.507.922.889 2.565.89 1.28-.001 2.095-.37.816-.367 1.623-1.385h.08l.475 1.553h1.691v-7.51q.001-1.985-1.082-2.912c-.72-.618-1.794-.928-3.21-.928zm11.851 0q-2.599 0-3.975 1.511-1.375 1.513-1.375 4.324 0 2.761 1.315 4.239 1.314 1.476 3.844 1.476 1.029 0 1.75-.162.72-.162 1.353-.535v-2.065a6.05 6.05 0 0 1-2.992.786q-1.39 0-2.111-.942-.72-.942-.721-2.816 0-3.84 2.893-3.84.976 0 2.478.584l.717-1.904q-1.412-.656-3.176-.657zm18.293 0q-2.53 0-3.922 1.523-1.39 1.521-1.39 4.232 0 1.744.646 3.063.645 1.32 1.844 2.025 1.2.706 2.761.707 2.498 0 3.899-1.533 1.402-1.53 1.402-4.262 0-2.64-1.412-4.197-1.41-1.558-3.828-1.559zm13.613 0q-1.028 0-1.92.585a4.4 4.4 0 0 0-1.445 1.582h-.121l-.313-1.965h-1.853v11.147h2.37v-5.826q-.001-1.481.88-2.408.88-.927 2.303-.928.545 0 1.049.12l.23-2.206a5.7 5.7 0 0 0-1.18-.102zM54.326 60.38q2.842-.001 2.842 3.818-.001 3.86-2.822 3.862-2.853-.001-2.852-3.862 0-1.845.67-2.832t2.162-.986zm58.84 0q2.842-.001 2.842 3.818 0 3.86-2.822 3.862-2.852-.001-2.852-3.862 0-1.845.67-2.832t2.162-.986zm-28.178 4.092v.965c0 .865-.26 1.543-.781 2.023q-.78.72-2.07.719-.888 0-1.33-.409-.444-.407-.444-1.154 0-1.027.76-1.525.761-.5 2.434-.56zm12.242 8.279q-.945-.002-.945 1.08v.164l-.525.16v.203h.525v2.594h.445V74.36h.749v-.343h-.749v-.194q0-.369.122-.537.12-.168.37-.168.184.001.442.084l.113-.355a2 2 0 0 0-.547-.094zm-39.662.027v1.198l.012.207.018.209h-.035q-.32-.434-.917-.432-.573-.001-.896.4-.321.404-.32 1.131 0 .725.318 1.12.322.395.898.396.614 0 .922-.451h.024l.06.396h.362V72.78zm17.543 0v1.198l.012.207.018.209h-.036q-.318-.434-.916-.432-.575-.001-.896.4-.322.404-.322 1.131.001.725.322 1.12.32.395.896.396.615 0 .922-.451h.026l.058.396h.362V72.78zm42.676 0v4.174h.445V72.78zm-30.385.143a.26.26 0 0 0-.187.07q-.076.073-.076.227 0 .148.076.22.075.076.187.077a.26.26 0 0 0 .186-.077q.077-.072.076-.22.001-.151-.076-.225a.27.27 0 0 0-.186-.072zm39.424.055q-.561-.002-.902.265a.87.87 0 0 0-.34.725q0 .43.234.697.235.269.782.467.391.139.584.248a.8.8 0 0 1 .273.238.6.6 0 0 1 .082.334.57.57 0 0 1-.23.485q-.231.171-.688.17a2.8 2.8 0 0 1-1.088-.22v.44q.375.181 1.072.182.645 0 1.02-.291.375-.29.375-.809 0-.401-.23-.652-.234-.253-.85-.47a3 3 0 0 1-.545-.241.7.7 0 0 1-.256-.24.66.66 0 0 1-.074-.334q0-.277.205-.434.203-.154.564-.152.46 0 .946.203l.14-.399a2.65 2.65 0 0 0-1.074-.212zm-20.967.04-1.55 3.936h.46l.483-1.248h1.572l.489 1.248h.47l-1.54-3.935zm18.487.014v3.922q0 .304-.137.465-.139.16-.404.158-.207 0-.397-.053v.391a.9.9 0 0 0 .397.07q.481 0 .74-.279.258-.281.258-.79V73.03zm-63.852.3-.187.63-.42.184v.214h.42v1.748q0 .9.851.9.114-.001.254-.025a.8.8 0 0 0 .215-.056v-.34a1.5 1.5 0 0 1-.402.055.44.44 0 0 1-.346-.145q-.127-.142-.127-.406v-1.73h.853v-.344h-.853v-.686zm17.543 0-.187.63-.42.184v.214h.42v1.748q0 .9.853.9.113-.001.254-.025a.8.8 0 0 0 .213-.056v-.34a1.5 1.5 0 0 1-.402.055.44.44 0 0 1-.346-.145q-.126-.142-.127-.406v-1.73h.853v-.344h-.853v-.686zm7.477 0-.188.63-.422.184v.214h.422v1.748q0 .9.854.9.112-.001.252-.025a.8.8 0 0 0 .213-.056v-.34a1.5 1.5 0 0 1-.403.055.44.44 0 0 1-.346-.145q-.126-.142-.126-.406v-1.73h.853v-.344h-.853v-.686zm20.53.185a7 7 0 0 0 .183.564l.455 1.217h-1.268l.461-1.217q.11-.308.17-.564zm-55.669.445q-.59 0-.94.418-.349.419-.35 1.129 0 .704.378 1.101.375.398 1.03.399.295 0 .505-.045t.45-.149v-.394q-.466.199-.94.2-.449-.002-.7-.27-.246-.269-.261-.787h2.025v-.28q0-.598-.322-.96-.322-.363-.875-.362zm3.291 0q-.305 0-.55.12a.9.9 0 0 0-.384.333h-.021l-.074-.398h-.36v2.94h.444V75.41q0-.573.215-.822.214-.249.675-.248.35 0 .514.178.162.176.162.535v1.9h.445v-1.92q0-.562-.267-.816-.269-.256-.799-.256zm9.686 0q-.638-.001-.997.398-.359.402-.359 1.121 0 .465.164.81.167.345.473.53.306.187.701.188.637 0 1-.404.361-.404.361-1.124 0-.7-.363-1.109-.364-.41-.98-.41zm4.568 0q-.593 0-.941.418-.35.419-.35 1.129 0 .704.377 1.101.375.398 1.03.399.295 0 .507-.045.21-.045.445-.149v-.394q-.463.199-.937.2-.45-.002-.7-.27-.247-.269-.261-.787h2.025v-.28q0-.598-.322-.96-.322-.363-.873-.362zm3.289 0c-.202 0-.388.04-.55.12a.9.9 0 0 0-.384.333h-.021l-.072-.398h-.362v2.94h.446V75.41q0-.573.213-.822.214-.249.675-.248.349 0 .512.178.165.176.164.535v1.9h.445v-1.92q0-.562-.267-.816-.269-.256-.799-.256zm9.62 0q-.591 0-.94.418-.352.419-.352 1.129 0 .704.379 1.101.376.398 1.027.399.299 0 .508-.045.212-.045.447-.149v-.394q-.463.199-.939.2-.45-.002-.697-.27-.248-.269-.262-.787h2.023v-.28q.001-.598-.32-.96-.322-.363-.875-.362zm2.806 0q-.51 0-.801.209a.66.66 0 0 0-.293.564q0 .202.084.346a.8.8 0 0 0 .258.26q.172.114.582.265.433.167.582.29.149.12.148.293a.37.37 0 0 1-.187.34q-.187.111-.537.113a2.2 2.2 0 0 1-.922-.233v.412q.327.187.912.188.553-.001.857-.225.306-.221.307-.633a.68.68 0 0 0-.186-.486q-.182-.193-.705-.383a4 4 0 0 1-.515-.219.6.6 0 0 1-.196-.156.33.33 0 0 1-.06-.2q0-.175.162-.272.16-.101.477-.102.36.001.802.186l.159-.366a2.35 2.35 0 0 0-.928-.191zm6.265 0q-.301 0-.548.12a.9.9 0 0 0-.385.333h-.022l-.072-.398h-.361v2.94h.445V75.41q0-.573.215-.822.214-.249.676-.248.349 0 .511.178.165.176.164.535v1.9h.446v-1.92q0-.562-.27-.816-.268-.256-.799-.256zm2.9 0q-.53 0-.82.262-.29.261-.289.744 0 .289.143.513.144.226.371.32a.9.9 0 0 0-.27.231.47.47 0 0 0-.085.281q0 .145.076.25a.47.47 0 0 0 .19.16.88.88 0 0 0-.483.264.7.7 0 0 0-.172.465q0 .393.312.608.311.212.89.212.75.001 1.142-.253.39-.258.39-.747 0-.383-.256-.584-.255-.201-.732-.203h-.521q-.241.001-.34-.054a.19.19 0 0 1-.1-.178q0-.229.285-.38.116.022.246.023.517 0 .81-.258.297-.259.296-.692a.95.95 0 0 0-.194-.586l.543-.064v-.281h-1.015a1.5 1.5 0 0 0-.416-.053zm6.354 0q-.64-.001-.998.398-.36.402-.361 1.121 0 .465.168.81.166.345.47.53.309.187.702.188.638 0 1-.404.36-.404.361-1.124 0-.7-.363-1.109-.364-.41-.979-.41zm3.409 0a.9.9 0 0 0-.506.154 1.3 1.3 0 0 0-.395.444h-.021l-.051-.543h-.367v2.94h.445v-1.579q0-.432.254-.72a.78.78 0 0 1 .61-.294q.138 0 .322.041l.06-.414a1.7 1.7 0 0 0-.35-.03zm7.027 0q-.303 0-.549.12a.9.9 0 0 0-.385.333h-.021l-.073-.398h-.36v2.94h.444V75.41q0-.573.215-.822.214-.249.676-.248.349 0 .512.178.165.176.164.535v1.9h.445v-1.92q0-.562-.267-.816-.27-.256-.801-.256zm2.9 0q-.529 0-.818.262-.291.261-.291.744 0 .289.142.513a.8.8 0 0 0 .373.32.9.9 0 0 0-.271.231.47.47 0 0 0-.086.281q0 .145.076.25a.47.47 0 0 0 .19.16.88.88 0 0 0-.483.264.7.7 0 0 0-.172.465q0 .393.313.608.312.212.889.212.75.001 1.142-.253.39-.258.39-.747 0-.383-.255-.584t-.733-.203h-.52q-.242.001-.34-.054a.19.19 0 0 1-.1-.178q0-.229.285-.38.114.022.246.023.515 0 .81-.258.295-.259.295-.692a.94.94 0 0 0-.193-.586l.545-.064v-.281h-1.018a1.5 1.5 0 0 0-.416-.053zm10.97 0a.9.9 0 0 0-.505.154 1.3 1.3 0 0 0-.394.444h-.022l-.05-.543h-.368v2.94h.445v-1.579q0-.432.254-.72a.79.79 0 0 1 .61-.294q.14 0 .322.041l.062-.414a2 2 0 0 0-.353-.03zm-3.233.006a2.1 2.1 0 0 0-.995.252l.137.34q.464-.226.83-.227.33 0 .477.164.15.166.15.514v.18l-.5.015q-1.425.045-1.424.936 0 .415.248.64t.684.227q.327-.001.547-.1.217-.098.437-.375h.024l.088.42h.33v-2.008q0-.514-.254-.748c-.17-.155-.427-.23-.78-.23zm-3.774.047v1.545q0 .57-.213.824-.213.252-.674.252-.349-.002-.513-.18-.163-.176-.162-.533v-1.906h-.452v1.92q0 .562.268.816.267.256.803.256.31 0 .554-.115a.9.9 0 0 0 .377-.334h.026l.064.394h.367v-2.94zm-29.275.002v2.94h.443v-2.94zm5.603.267v.002q.66 0 .66.66.001.633-.65.633-.311.002-.486-.156-.175-.16-.174-.469 0-.333.168-.502t.482-.168zm19.692 0v.002q.659 0 .658.66 0 .633-.65.633-.312.002-.487-.156-.174-.16-.174-.469.001-.333.17-.502t.483-.168zm-62.102.049q.348 0 .535.225.189.224.19.644h-1.537q.037-.407.248-.638a.73.73 0 0 1 .564-.231zm6.326 0q.457 0 .664.268.209.267.207.89v.096q.001.552-.205.799-.206.25-.66.25-.401 0-.607-.287-.206-.289-.205-.852 0-.555.207-.86a.68.68 0 0 1 .6-.304zm11.217 0q.349 0 .537.225.188.224.188.644h-1.537q.036-.407.248-.638a.73.73 0 0 1 .564-.231zm6.326 0q.456 0 .664.268.209.267.207.89v.096q0 .552-.205.799-.205.25-.66.25-.401 0-.607-.287-.206-.289-.207-.852 0-.555.209-.86a.68.68 0 0 1 .6-.304zm6.582 0q.35 0 .537.225.188.224.188.644H80.01q.037-.407.248-.638a.73.73 0 0 1 .564-.231zm-17.484.008q.442 0 .67.289.226.293.226.851 0 .567-.226.862-.227.293-.664.293t-.662-.295q-.225-.296-.225-.86 0-.57.22-.857.225-.285.66-.283zm35.8 0q.445 0 .67.289.228.293.227.851 0 .567-.226.862-.228.293-.664.293t-.663-.295q-.225-.296-.224-.86 0-.57.222-.857.223-.285.659-.283zm21.676 1.166v.265q0 .411-.238.641-.237.227-.652.229-.264 0-.41-.127-.146-.126-.145-.37 0-.308.235-.455.234-.144.765-.164zm-28.283 1.38h.533q.408 0 .555.093t.147.33q0 .288-.27.457-.27.165-.828.166-.376 0-.578-.121a.4.4 0 0 1-.201-.366q0-.271.17-.416.168-.143.472-.142zm19.69 0h.533q.406 0 .555.093.147.093.146.33a.51.51 0 0 1-.267.457q-.271.165-.83.166-.376 0-.577-.121a.4.4 0 0 1-.2-.366q0-.271.167-.416.169-.143.473-.142z"/></svg>