<svg xmlns="http://www.w3.org/2000/svg" viewBox="0 0 128 128"><path d="m91.45 8.254-17.596 6.38 17.53 6.346 17.59-6.375zm17.923 6.654-17.984 6.518v20.777l17.984-6.523zm-36.326.014-17.592 6.375 17.518 6.353 17.586-6.382zm17.928 6.637-17.795 6.46v20.975l17.845-6.46-.05-.036zm-35.92.035-.008 20.77 17.719 6.425V28.018zm54.554 1.476c.153 4.17.302 8.313.18 12.682l17.397-6.309zm17.977 6.674-17.797 6.447v20.78l17.797-6.455zm-72.95.092-17.392 6.303 17.389 6.306zm26.255 2.174h.002c1.438-.047 2.48.996 2.48 2.676 0 2.068-1.58 4.318-3.531 5.027-1.951.706-3.533-.396-3.533-2.465s1.583-4.315 3.533-5.025a3.4 3.4 0 0 1 1.049-.213zm28.295 4.39-17.612 6.387v20.777l17.612-6.38zm-72.342.034-.002 7.93v.005l-.002 4.649 17.35-6.291zm18.185 6.427L37.24 49.313l17.522 6.355 17.793-6.453zm35.948.13-17.61 6.376v20.787l17.61-6.38zm-54.553 1.67-17.395 6.312 17.39 6.297zm36.34 4.927-17.795 6.451v20.777l17.795-6.447zm-35.92.027-.006 20.778 17.719 6.425V56.04zm90.744 1.551-17.799 6.443V78.4l17.799-6.45zm-108.953.102v12.59l17.369-6.3zm90.549 6.56-17.61 6.383v20.783l17.61-6.383zm-72.84.045-17.31 6.281 17.31 6.28zm54.633 6.547L73.18 70.877V91.65l17.797-6.453zm-72.342.031v20.776l17.709 6.423V70.877zm54.129 6.36-17.83 6.46.037.053v21.133l17.851-6.47-.056-.04V70.811zm-35.92.234-.006 20.781 17.719 6.416V77.471zm90.744 1.549-17.799 6.457v20.767l17.799-6.445zm-109.371.09L.822 78.99 18.22 85.3V72.687zm90.969 6.58-17.612 6.38v20.77L109.7 99.85c-4.629 1.676-7.993 2.896-.513.183zM.42 79.285l-.006 20.778 17.719 6.42V85.71zm90.553 6.57-17.606 6.38v20.773l17.606-6.385zm-72.34.028v20.777c8.743 3.163 40.24 14.583 17.71 6.41V92.303zm17.71 27.187v.004l-17.71-6.414 35.92 13.016V98.895l-17.711-6.42-.006 20.773zm67.419-25.01h.002c1.437-.045 2.482.998 2.482 2.674 0 2.07-1.583 4.322-3.533 5.028-1.95.709-3.533-.395-3.533-2.463 0-2.07 1.582-4.32 3.533-5.026a3.4 3.4 0 0 1 1.049-.21zm-31 4.391-17.793 6.447v20.778l1.904-.696 15.889-5.76z"/></svg>