<svg xmlns="http://www.w3.org/2000/svg" viewBox="0 0 128 128"><path d="M52.146 48.63c-5.137.3-8.478 3.169-10.953 7.095v-6.286h-4.728v39.327h4.728V77.752l3.237.31c5.176.574 8.37-1.183 10.08-2.3s5.133-4.671 6.222-10.58c2.087-13.14-4.904-16.385-8.586-16.551zm13.174.872 13.055 27.146c-3.95 9.63-8.006 9.516-13.535 8.323v4.168c10.126 1.64 13.234-2.9 15.681-7.405a50 50 0 0 0 2.551-5.164l11.301-27.068h-4.89l-8.64 21.057-10.38-21.057zm-34.207.746L3.61 63.938l27.504 13.751v-4.234L12.32 63.938l18.793-9.409zm65.774.063v4.28L115.68 64l-18.793 9.518v4.234L124.39 64zm-46.36 2.923c4.532 0 5.82 5.166 5.414 10.33-1.127 8.858-6.797 12.071-14.748 9.957V61.387c2.237-4.217 6.484-8.153 9.334-8.153z"/></svg>