<svg xmlns="http://www.w3.org/2000/svg" viewBox="0 0 128 128"><path d="M64 .125C28.723.125.125 28.723.125 64S28.723 127.875 64 127.875 127.875 99.277 127.875 64 99.277.125 64 .125zm0 8.176c30.71 0 55.7 24.988 55.7 55.699S94.71 119.7 64 119.7 8.3 94.71 8.3 64 33.29 8.3 64 8.3zm0 8.16a47.8 47.8 0 0 0-11.887 1.55v12.376a35.6 35.6 0 0 0-11.215 6.449 44.1 44.1 0 0 0 6.375 13.687c5.266-10.734 15.164-19.25 28.625-24.687V18.05A47.2 47.2 0 0 0 64 16.46zm11.96 13.937a44 44 0 0 0-8.66 12.364c11.938-.813 24.262 3.512 35.7 12.449l6.75-3.898a47.3 47.3 0 0 0-4.586-11.086 47 47 0 0 0-7.289-9.528l-10.727 6.188a35.9 35.9 0 0 0-11.187-6.489zm-45.812.329a47 47 0 0 0-7.312 9.511 47.2 47.2 0 0 0-4.598 11.075L28.961 57.5c-.793 4.273-.8 8.66-.023 12.938a44 44 0 0 0 15.039 1.324C37.3 61.836 34.887 49 36.898 34.625zM64 54.725a9.274 9.274 0 0 0-9.275 9.273A9.274 9.274 0 1 0 73.273 64 9.274 9.274 0 0 0 64 54.725zM89.09 56.1a45 45 0 0 0-5.05.136c6.67 9.926 9.085 22.762 7.073 37.137l6.75 3.898a48 48 0 0 0 7.301-9.51c2-3.472 3.535-7.2 4.598-11.075L99.05 70.5c.8-4.324.798-8.7.021-12.937a44 44 0 0 0-9.982-1.461zM25 72.773l-6.75 3.905a48.2 48.2 0 0 0 4.586 11.086 47 47 0 0 0 7.289 9.525l10.727-6.185a35.8 35.8 0 0 0 11.187 6.484 44 44 0 0 0 8.66-12.361C48.762 86.04 36.438 81.71 25 72.773zm55.727 4.688c-5.266 10.738-15.165 19.25-28.625 24.687v7.79A46.2 46.2 0 0 0 64 111.52v.002a47.6 47.6 0 0 0 11.887-1.546V97.602a35.7 35.7 0 0 0 11.215-6.454 44.2 44.2 0 0 0-6.375-13.687z"/></svg>