<svg xmlns="http://www.w3.org/2000/svg" viewBox="0 0 128 128"><path d="M67.15 21.76a16 16 0 0 0-3.582.406c-5.417 1.244-9.923 6.666-10.173 12.232-.285 6.355 3.33 11.779 9.537 13.65 2.95.89 6.084 1.338 9.164 1.565 5.649.413 6.082 3.558 7.61 6.147.963 1.632 1.896 3.24 1.896 8.107s-.94 6.474-1.897 8.106c-1.528 2.583-3.411 4.275-9.06 4.693-3.08.228-6.22.675-9.163 1.566-6.208 1.877-9.824 7.295-9.539 13.65.25 5.567 4.757 10.987 10.174 12.231 6.415 1.476 12.802-1.105 15.531-6.851 1.433-3.013 2.219-6.427 2.778-9.75 1.005-5.955 3.36-8.268 9.263-8.914 3.823-.418 7.78-.001 11.364-2.04 3.785-2.77 7.168-6.929 7.168-12.69 0-5.765-3.647-11.808-9.182-13.554-3.646-1.148-5.527-.76-9.35-1.18-5.91-.644-8.264-2.957-9.263-8.911-.56-3.324.1-8.192-1.326-11.205-2.218-4.669-6.85-7.245-11.95-7.258zM38.398 50.225c-7.45 0-13.527 6.098-13.527 13.574 0 7.477 6.08 13.574 13.53 13.574 7.443-.001 13.527-6.105 13.527-13.574 0-7.476-6.08-13.574-13.53-13.574zM13.574 77.81C6.118 77.787.018 83.868 0 91.338c-.018 7.483 6.04 13.605 13.48 13.623 7.455.018 13.557-6.063 13.575-13.527.023-7.482-6.037-13.605-13.48-13.623zm100.215 0c-7.432.042-13.467 6.187-13.426 13.675.043 7.458 6.167 13.516 13.63 13.475 7.431-.042 13.466-6.196 13.425-13.678-.042-7.458-6.167-13.514-13.629-13.472z"/></svg>