<svg xmlns="http://www.w3.org/2000/svg" viewBox="0 0 128 128"><path d="M66.1 10.2c-2.475.074-5.1.8-9 2.2C49.3 15.2 12.6 29.6 6 32.2c-3.2 1.3-5 2.4-5 3.7H.8v12.7c.2 1.2 2.1 2.5 5.4 4.1 6.7 3.2 43.7 18.1 49.5 20.9s10 2.8 17.4-1c7.4-3.9 42.2-18.1 48.9-21.6 3.4-1.8 4.9-3.2 4.9-4.4V34.1c0-1.3-1.7-2.4-5-3.6-6.5-2.4-41.1-16.1-47.7-18.6-3.3-1.2-5.625-1.776-8.1-1.7zm-8.8 6.6 8.8 3.4 8.3-2.7-2.2 5.4 8.4 3.2-10.9 1.1-2.4 5.9-3.9-6.5-12.6-1.1 9.3-3.5zm36.2 10.9 17.2 6.8-17.2 6.8-1.9.7-17.2-6.8zm-55.1 1.6c8.6 0 15.6 2.7 15.6 6s-7 6-15.6 6-15.6-2.7-15.6-6 7-6 15.6-6zm37 12.3-8.8 12.9-20.3-8.4zm51.5 14c0 1.1-1.6 2.5-4.9 4.2-6.7 3.5-41.4 17.8-48.8 21.6-7.4 3.9-11.5 3.8-17.3 1s-43-17.7-49.6-20.9C2.9 59.9 1 58.6 1 57.3V70c0 1.3 1.9 2.6 5.2 4.2 6.7 3.2 43.7 18.1 49.5 20.9s10 2.8 17.4-1c7.4-3.9 42.2-18.1 48.9-21.6 3.4-1.8 4.9-3.2 4.9-4.4zm0 20.7c0 1.2-1.6 2.5-4.9 4.2-6.7 3.5-41.4 17.8-48.8 21.6-7.4 3.9-11.5 3.8-17.3 1s-43-17.7-49.6-20.9C2.9 80.7 1 79.3 1 78v12.7c0 1.3 1.9 2.6 5.2 4.2 6.7 3.2 43.7 18.1 49.5 20.9s10 2.8 17.4-1c7.4-3.9 42.2-18.1 48.9-21.6 3.4-1.8 4.9-3.2 4.9-4.4z"/></svg>