<svg xmlns="http://www.w3.org/2000/svg" viewBox="0 0 128 128"><path d="M1.89 49a1.87 1.87 0 0 0-1.335.568A1.96 1.96 0 0 0 0 50.938v6.458c0 .511.199 1.003.555 1.37a1.87 1.87 0 0 0 1.336.566h10.718v-8.394a1.96 1.96 0 0 0-.554-1.37A1.87 1.87 0 0 0 10.719 49zm10.72 10.332v10.336h10.716a1.87 1.87 0 0 0 1.338-.568c.354-.363.555-.857.555-1.371V61.27a1.96 1.96 0 0 0-.555-1.37 1.87 1.87 0 0 0-1.338-.569zm0 10.336H1.89a1.87 1.87 0 0 0-1.335.566A1.96 1.96 0 0 0 0 71.604v6.459a1.96 1.96 0 0 0 .553 1.37A1.87 1.87 0 0 0 1.89 80h8.828a1.87 1.87 0 0 0 1.338-.568 1.96 1.96 0 0 0 .552-1.37zm74.035-18.086a.574.574 0 0 0-.582.56v1.844c0 .318.254.56.582.56h4.293v14.278h-4.82a.574.574 0 0 0-.585.559v1.844c0 .317.257.56.584.56h12.1a.574.574 0 0 0 .582-.56v-1.844c0-.318-.256-.56-.584-.56v.001h-3.71V52.143a.56.56 0 0 0-.581-.561zm19.103 0a.576.576 0 0 0-.584.56v2.368c0 .318.257.558.584.558h3.275a.576.576 0 0 0 .582-.558v-2.367a.6.6 0 0 0-.181-.399.58.58 0 0 0-.4-.162zm12.373 1.492a.576.576 0 0 0-.584.56v3.577h-3.728a.576.576 0 0 0-.582.56v1.844c0 .318.254.56.582.56h3.728v5.481c0 4.193 1.928 6.131 6.078 6.131h3.383a.576.576 0 0 0 .582-.558v-1.844c0-.318-.254-.56-.582-.56h-2.838c-2.256 0-3.056-.914-3.056-3.188v-5.442h6.314c.328-.02.582-.28.582-.578V57.77c0-.315-.254-.557-.582-.557h-6.314v-3.578a.56.56 0 0 0-.172-.405.57.57 0 0 0-.41-.156zm-57.367 3.858c-4.586 0-7.043 2.498-7.043 7.568 0 5.09 2.438 7.586 6.951 7.586 3.492 0 5.75-1.489 6.35-4.043.09-.354-.2-.691-.565-.691h-2.183a.6.6 0 0 0-.326.101.6.6 0 0 0-.22.272c-.381 1.1-1.474 1.62-2.948 1.62-2.292 0-3.384-1.284-3.53-4.286h9.953c.546-5.608-1.726-8.127-6.44-8.127zm17.701 0c-1.236 0-2.127.28-2.818.95l-.858.84h-.781l-.291-1.08a.6.6 0 0 0-.213-.31.58.58 0 0 0-.35-.12h-1.638a.574.574 0 0 0-.582.56v19.085a.563.563 0 0 0 .582.561h2.402a.574.574 0 0 0 .582-.56V72.72l-.31-2.219.8-.188.856.84c.674.633 1.493.95 2.71.95 3.53 0 5.66-2.497 5.66-7.586-.019-5.088-2.13-7.586-5.75-7.586zm-28.691.017c-1.365-.019-2.44.242-3.149.914v.002l-.82.84h-.818l-.254-1.064c-.054-.26-.29-.428-.565-.428H38.92a.574.574 0 0 0-.584.558v1.844c0 .318.256.56.584.56h3.092v8.65h-3.604a.574.574 0 0 0-.582.56v1.844a.563.563 0 0 0 .582.558h11.336a.573.573 0 0 0 .582-.558v-1.844a.565.565 0 0 0-.582-.56h-4.166V62.71c0-1.715.982-2.61 2.91-2.61h3.131a.575.575 0 0 0 .582-.558V57.51a.563.563 0 0 0-.582-.56zm51.78.262a.576.576 0 0 0-.581.56v1.844c0 .318.254.56.582.56h4.35v8.647h-4.35a.6.6 0 0 0-.219.04.59.59 0 0 0-.361.52v1.845a.56.56 0 0 0 .58.56h12.373a.576.576 0 0 0 .582-.56v-1.844a.563.563 0 0 0-.582-.56l-4.457.001V57.77c0-.316-.256-.56-.584-.56zm-40.81 2.35c2.093 0 3.075 1.136 3.13 3.224H57.35c.347-2.199 1.42-3.224 3.384-3.224zm16.54.39c2.2 0 3.203 1.418 3.203 4.531-.018 3.15-1.003 4.567-3.204 4.567-1.8 0-2.802-.952-2.802-2.762v-3.576c0-1.808.984-2.76 2.802-2.76z"/></svg>