<svg xmlns="http://www.w3.org/2000/svg" viewBox="0 0 128 128"><path d="m24.277 40.611-2.922.192c-9.089.59-17.254 6.977-20.267 15.851-1.474 4.342-1.445 11.162.06 15.121l.375.989 1.036-1.455c.822-1.16 1.22-1.412 1.931-1.237.494.117 1.362.33 1.93.471.94.226 1.011.167.781-.686-1.94-7.173-.573-12.94 4.194-17.709 2.824-2.823 5.71-4.285 9.668-4.9 2.663-.413 2.938-.548 3.935-1.935l1.07-1.49-.894-1.608zm2.26.463c-.165.005-.28.031-.332.084-.113.114.092.833.455 1.6.657 1.369.648 1.407-.353 2.722l-1.014 1.33 2.523.684c4.85 1.314 8.79 4.663 11.172 9.5 1.02 2.074 1.247 3.056 1.387 5.938.09 1.897-.035 4.235-.273 5.193-.392 1.545-.34 1.948.423 3.525l.864 1.78 1.767-.26c.974-.141 1.81-.29 1.865-.332.051-.047.447-1.456.877-3.131 1.39-5.432.783-10.87-1.806-16.17-1.968-4.025-6.314-8.343-10.315-10.244-2.446-1.163-6.085-2.248-7.24-2.219zm-9.676 12.854-6.484 6.515.803 1.567c.437.864 3.27 4.568 6.289 8.236 3.023 3.665 5.611 6.656 5.761 6.643.384-.026 10.715-13.113 11.774-14.909l.883-1.494-3.264-3.279-3.266-3.28zm60.006.324q-2.993 0-4.693 1.393-1.69 1.378-1.69 3.8c0 1.39.408 2.472 1.221 3.254q1.232 1.16 3.988 1.705l1.502.3q1.877.374 2.692 1.124.827.751.828 2.096c0 1.025-.383 1.812-1.14 2.363-.765.556-1.847.83-3.255.83a10 10 0 0 1-2.832-.424 14.5 14.5 0 0 1-2.925-1.265v2.533a21 21 0 0 0 3.003.861 14 14 0 0 0 2.754.297c2.283 0 4.01-.454 5.192-1.361 1.177-.915 1.77-2.257 1.77-4.022q-.001-2.204-1.315-3.52c-.867-.882-2.219-1.505-4.053-1.86l-1.484-.297q-2.022-.376-2.754-.987-.721-.621-.72-1.83 0-1.437 1.077-2.207c.728-.52 1.77-.78 3.115-.78a9.3 9.3 0 0 1 2.393.329 15.5 15.5 0 0 1 2.645.984v-2.392a20 20 0 0 0-2.723-.69 15 15 0 0 0-2.596-.234zm-22.908.328v18.18h2.47v-7.682h2.676q1.456 0 2.301.594.845.596 1.752 2.426l2.332 4.662h2.643l-2.504-4.975q-.75-1.53-1.502-2.41-.75-.874-1.549-1.143 1.532-.436 2.332-1.564.797-1.139.797-2.846 0-2.627-1.531-3.927-1.538-1.314-4.664-1.315zm2.473 2.018h3.08c1.19 0 2.084.273 2.691.814.602.544.908 1.347.908 2.41s-.306 1.873-.908 2.424q-.909.814-2.691.813h-3.08zm37.103 2.191c-.993 0-1.845.198-2.566.594q-1.08.596-1.781 1.814v-2.08h-2.254v18.836h2.254v-7.242q.704 1.22 1.783 1.814c.72.395 1.57.595 2.564.594q2.489 0 4.037-1.969c1.04-1.323 1.565-3.057 1.565-5.197q-.002-3.22-1.565-5.191-1.549-1.972-4.037-1.971zm15.014 0q-3.069 0-4.881 1.973c-1.2 1.314-1.799 3.09-1.799 5.32q-.002 3.237 1.908 5.145 1.905 1.892 5.16 1.892 1.298 0 2.567-.281a13.6 13.6 0 0 0 2.473-.766v-2.129a10.5 10.5 0 0 1-2.409.955 9.8 9.8 0 0 1-2.488.313q-2.24.001-3.49-1.205c-.824-.814-1.29-1.99-1.39-3.535h10.308v-1.096c0-2.022-.54-3.62-1.61-4.8q-1.596-1.785-4.35-1.786zm15.51 0q-3.194-.001-5.024 1.924c-1.22 1.276-1.83 3.018-1.83 5.24 0 2.19.603 3.935 1.816 5.227q1.81 1.94 4.895 1.94a10 10 0 0 0 2.129-.22 9 9 0 0 0 1.955-.658v-2.08a8.7 8.7 0 0 1-1.908.799 7.6 7.6 0 0 1-1.94.25q-2.176 0-3.379-1.377c-.806-.926-1.205-2.224-1.205-3.88q-.001-2.501 1.205-3.88c.801-.915 1.927-1.377 3.377-1.377a7.3 7.3 0 0 1 1.942.266 8.4 8.4 0 0 1 1.908.783v-2.098a10 10 0 0 0-1.924-.64 9.3 9.3 0 0 0-2.017-.219zm-31.07 1.877q1.779 0 2.798 1.408 1.017 1.409 1.018 3.88 0 2.474-1.018 3.88c-.68.94-1.61 1.408-2.799 1.408q-1.77 0-2.785-1.408c-.68-.938-1.016-2.23-1.016-3.88s.335-2.94 1.016-3.88q1.014-1.407 2.785-1.408zm15.59.031c1.101 0 1.99.368 2.66 1.096q.995 1.095 1.032 2.926l-7.994.015q.17-1.922 1.297-2.972 1.127-1.063 3.004-1.065zM4.526 71.23c-.58-.015-.801.237-1.345.902-1.15 1.408-1.13 2.112.125 4.107 3.417 5.432 8.011 8.874 13.898 10.418 3.43.9 8.62.982 11.762.184 5.353-1.353 10.76-5.056 13.58-9.307 2.186-3.294 2.186-3.358-.041-3.096l-1.902.227-.725-1.602c-.395-.883-.851-1.605-1.006-1.605-.157 0-.51.553-.791 1.22-.277.675-1.423 2.168-2.549 3.321-5.17 5.296-13.2 6.656-19.795 3.352-2.13-1.07-5.678-4.246-6.843-6.131-.6-.975-1.188-1.331-2.791-1.701-.75-.174-1.229-.28-1.577-.29z"/></svg>