<svg xmlns="http://www.w3.org/2000/svg" viewBox="0 0 128 128"><path d="M103.125 4.527 73.932 8.455c2.74 1.197 4.851 2.093 7.59 1.387 6.736-1.738 13.572-3.097 20.367-4.613.44-.1.87-.246 1.302-.37zm16.695.705-30.285 6.715-.053.34 36.342 10.055zm-51.924 5.344c-.362.03-.795.23-1.117.408-6.76 3.777-13.647 7.354-20.193 11.473-3.275 2.061-5.944 5.097-8.844 7.742-4.674 4.266-9.341 8.543-13.947 12.883a24 24 0 0 0-3.29 3.854c-3.15 4.587-6.205 9.24-9.401 14.025 1.786 1.847 3.41 3.614 5.148 5.26.375.355 1.31.56 1.746.345 7.689-3.779 15.428-7.472 22.95-11.562 2.452-1.333 4.337-3.724 6.45-5.662 6.997-6.417 13.984-12.847 20.967-19.278.427-.395.933-.777 1.188-1.275 2.508-4.902 4.973-9.83 7.525-14.898-3.043-1.144-5.928-2.264-8.85-3.282a.8.8 0 0 0-.332-.033zm13.79 3.54c-.304.058-.566.265-.801.747-2.265 4.64-4.602 9.246-6.903 13.87-.07.142-.056.328-.11.687l41.47-6.285.01-.293c-4.46-1.181-8.918-2.366-13.38-3.54-6.411-1.685-12.83-3.349-19.238-5.05-.4-.107-.745-.196-1.048-.137zm43.996 10.831L93.514 73.34c-.462.696-1.061 1.247-.41 2.32 8.016 13.237 15.968 26.514 23.94 39.778 1.259 2.094 2.53 4.18 4.157 6.19l4.834-96.58zm-4.698.157-46.148 7.709 15.66 38.095zm-49.591 7.404L44.996 56.645l41.893 13.6c-5.25-12.79-10.321-25.133-15.496-37.737zM40.947 59.39 18.545 71.035c3.819 9.926 7.89 20.396 11.879 30.703l.346-.076c3.353-13.94 6.754-27.785 10.177-42.271zm3.407.558L32.799 108.77l54.299-34.986zM9.279 64.65C6.8 76.89 4.383 88.828 1.963 100.764l.271.127c.185-.297.41-.578.547-.897 3.995-9.27 7.974-18.545 11.985-27.808.4-.93.37-1.561-.414-2.309-1.678-1.597-3.239-3.319-5.073-5.227zm7.551 10.993L2.17 110.69l27.924-.826zm73.387.73L35.97 111.33l81.959 11.188c-9.374-15.606-18.507-30.814-27.713-46.145zm-60.108 37.41c-3.412-.08-6.867.203-10.29.262-3.75.063-7.5.205-11.25.322-.387.012-.772.09-1.157.506q46.505 4.298 93.008 8.6l.062-.414-29.814-4.07c-12.384-1.692-24.747-3.55-37.162-4.981a37 37 0 0 0-3.397-.225z"/></svg>