<svg xmlns="http://www.w3.org/2000/svg" viewBox="0 0 128 128"><path d="M64 1.5c-25.9 0-47 21-47 47s21 47 47 47 47-21 47-47-21.1-47-47-47zm-3.3 4.7L61 10l-.7.1-.3-3.8zm6.6 0 .7.1-.3 3.8-.7-.1zM57 6.7l1.2 6.8-.7.1-1.2-6.8zm14 0 .7.1-1.2 6.8-.7-.1zM63 7h1v6h-1zm-9.6.5 1 3.6-.7.2-1-3.6zm21.2 0 .7.2-1 3.6-.7-.2zm-24.7 1 2.4 6.5-.7.3-2.4-6.5zm28.2 0 .7.3-2.4 6.5-.7-.3zM46.5 9.9l1.6 3.4-.7.3-1.6-3.4zm35 0 .7.3-1.6 3.4-.7-.3zm-38.3 1.7 3.5 6-.7.4-3.5-6zm41.6 0 .7.4-3.5 6-.7-.4zm-44.7 1.9 2.2 3.1-.6.4-2.3-3zm47.8 0 .6.4-2.2 3.1-.6-.4zm2.9 2.2.6.5-4.4 5.3-.6-.5zm-53.7.1 4.4 5.3-.5.4-4.4-5.3zm59 .4L68.4 52.9 31.7 80.6 60 44.5zm-61.7 2 2.7 2.7-.5.5-2.7-2.7zm-2.5 2.7 5.3 4.4-.5.6-5.3-4.4zm64.2 0 .5.6-5.3 4.4-.5-.6zm-66.5 2.9 3.1 2.2-.4.6-3.1-2.2zm68.8 0 .4.6-3.1 2.2-.4-.6zm-70.8 3.1 6 3.5-.4.6-6-3.5zm72.8 0 .4.7-6 3.5-.4-.7zm1.7 3.2.4.7-3.5 1.6-.3-.7zm-76.2.1 3.4 1.6-.3.6-3.4-1.6zm-1.5 3.4 6.5 2.4-.3.7-6.5-2.4zm79.1 0 .3.7-6.5 2.4-.3-.7zm-80.2 3.5 3.6 1-.2.7-3.6-1zm81.4 0 .2.7-3.6 1-.2-.7zm-82.2 3.6 6.8 1.2-.1.7-6.8-1.2zm83.1 0 .1.7-6.8 1.2-.1-.7zm-83.7 3.6 3.8.3-.1.7-3.8-.3zm84.1.1.1.7-3.8.3-.1-.7zM22 48h6v1h-6zm77 0h7v1h-7zm-73.3 3.4.1.7-3.8.3-.1-.7zm76.7 0 3.8.3-.1.7-3.8-.3zm-73.3 2.7.1.7-6.8 1.2-.1-.7zm69.7.1 6.8 1.2-.1.7-6.8-1.2zM26.7 58l.2.7-3.6 1-.2-.7zm74.6 0 3.6 1-.2.7-3.6-1zm-70.6 2.1.3.7-6.5 2.4-.3-.7zm66.7 0 6.5 2.4-.3.7-6.5-2.4zm-68.5 4.2.3.7-3.4 1.6-.3-.7zm70.1 0 3.4 1.6-.3.7-3.4-1.6zm-4.2 1.3 6 3.5-.4.7-6-3.5zm-61.6.1.4.7-6 3.5-.4-.7zm-.9 4.4.4.6-3.1 2.2-.4-.6zm63.4 0 3.1 2.2-.4.6-3.1-2.2zm-59 .7.5.6-5.3 4.4-.5-.6zm54.6 0 5.3 4.4-.5.6-5.3-4.4zM41 75.2l.6.5-4.5 5.3-.5-.5zm46.1 0 4.4 5.3-.6.5-4.4-5.3zm4.4.2 2.7 2.7-.6.4-2.6-2.6zM46 78.8l.7.4-3.5 6-.7-.4zm36 0 3.5 6-.7.4-3.5-6zm-40.3.9.6.4-2.2 3.1-.6-.4zm44.6 0 2.2 3.1-.6.4-2.2-3.1zm-34.7 1.7.7.3-2.4 6.5-.7-.3zm24.8 0 2.4 6.5-.7.3-2.4-6.5zm-29 1.7.7.3-1.6 3.4-.7-.3zm10.1 0 .7.1L57 90l-.7-.1zm13 0 1.2 6.8-.7.1-1.2-6.8zm10.1 0 1.6 3.4-.7.3-1.6-3.4zM63 84h1v7h-1zm-9.3 1.5.7.2-1 3.6-.7-.2zm20.6 0 1 3.6-.7.2-1-3.6zm-14 1.1.7.1-.3 3.8-.7-.1zm7.4 0 .3 3.8-.7.1-.3-3.8zm-.6 13.5c-1.5 0-3 .5-4.2 1.6-1.5 1.4-1.9 3.6-1.9 6.1v1.2h-3v2h3v15h3v-15h4v-2h-4v-1.4c0-2.6.7-5 3.4-5 .9 0 1.5.2 2 .4l.4-2.4c-.6-.3-1.6-.5-2.7-.5zm-34.5 1.2c-4.7 0-7.8 2.8-7.8 6.6 0 3.4 2.4 5.5 6.4 6.9 3.3 1.3 4.6 2.6 4.6 4.8 0 2.4-1.9 4.1-5.1 4.1-2.2 0-4.2-.7-5.6-1.6l-.8 2.6c1.3.9 3.9 1.5 6.2 1.5 5.7 0 8.5-3.2 8.5-7-.1-3.4-2.2-5.4-6.3-7-3.3-1.3-4.8-2.4-4.8-4.7 0-1.7 1.3-3.6 4.6-3.6 2.2 0 3.8.7 4.6 1.2l.9-2.6c-1.1-.6-2.9-1.2-5.4-1.2zm69.3.4c-1.2 0-2 .9-2 2s.8 1.9 1.9 1.9c1.3 0 2.1-.9 2-1.9 0-1.1-.7-2-1.9-2zm-5.7 6.4c-2.2.1-4.2 1.9-4.9 3.9h-.1l-.1-3h-2.8c.1 1-.2 3-.2 5v12h4v-9.3c0-.5-.2-1-.1-1.5.4-2.4 1.9-4.1 4.1-4.1.4 0 1 0 1 .1v-3c0-.1-.6-.1-.9-.1zm-47.6.1c-2.2 0-4.2.6-5.6 1.5l.8 2.1c1.2-.8 2.8-1.3 4.4-1.3 3.6 0 3.9 2.6 3.9 4v.4c-6 0-10.3 2.3-10.3 6.5 0 2.5 1.9 5.1 5.4 5.1 2.5 0 4.4-1.5 5.4-2.5h.1l.3 2h2.9c-.2-1.2-.7-2.7-.7-4.2v-6.5H55c0-3.5-1.1-7.1-6.4-7.1zm27.9 0c-2.2 0-4.2.6-5.7 1.5l.8 2.1c1.2-.8 2.9-1.3 4.5-1.3 3.6 0 3.9 2.6 3.9 4v.4c-7 0-10.4 2.3-10.4 6.5 0 2.5 1.8 5.1 5.4 5.1 2.5 0 4.4-1.5 5.4-2.5h.1l.3 2h2.9c-.2-1.2-.5-2.7-.5-4.2v-6.5H83c0-3.5-1.2-7.1-6.5-7.1zm23.5.8v17h3v-17zm-49.074 8.1c.404-.014.799-.013 1.174 0v3H52c0 .3.1.7 0 1-.5 1.5-1.9 2.9-4.1 2.9-1.6 0-3.1-1-3.1-3 0-2.975 3.293-3.806 6.126-3.9zm27.799 0c.404-.014.8-.013 1.175 0v3h.1c0 .3 0 .7-.1 1-.5 1.5-1.9 2.9-4.2 2.9-1.6 0-3.1-1-3.1-3 0-2.975 3.292-3.806 6.125-3.9z"/></svg>