<svg xmlns="http://www.w3.org/2000/svg" viewBox="0 0 128 128"><path d="M83.215 29.516c-10.19.19-21.234 4.858-30.026 13.644-15.63 15.62-11.108 45.48-5.798 50.78 4.29 4.29 35.168 9.82 50.798-5.8a50 50 0 0 0 3.122-3.43c.23-1.56 1.09-3.52 2.6-5.9-.87.45-1.83.76-2.86.94q-1.153 2.115-3.612 4.56c-1.89 1.79-3.238 2.96-4.048 3.5s-1.59.81-2.33.81c-1.86 0-2.741-1.64-2.631-4.93-1.18 1.68-2.27 2.93-3.26 3.73-1 .8-2.02 1.2-3.09 1.2s-1.92-.48-2.64-1.46c-.57-.76-.91-1.67-1.03-2.71-1.43 1.4-2.73 2.44-3.88 3.11-1.19.7-2.5 1.05-3.94 1.05-1.6 0-2.9-.51-3.88-1.54-.73-.76-1.18-1.69-1.37-2.8v.02c-1.6 1.47-3.01 2.56-4.22 3.26s-2.36 1.05-3.46 1.05c-1.26 0-2.28-.49-3.05-1.47s-1.16-2.29-1.16-3.94c0-2.47.54-5.44 1.61-8.9s2.37-6.66 3.91-9.58l4.49-1.66c.14-.05.25-.07.32-.07q.51 0 .84.75c.22.5.33 1.18.33 2.02 0 2.4-.55 4.73-1.66 6.98s-2.84 4.65-5.2 7.21c-.09 1.23-.14 2.07-.14 2.53 0 1.03.19 1.84.57 2.44q.57.9 1.5.9c.62 0 1.31-.23 2.03-.69q1.065-.675 3.21-2.79c.15-2.22 1-4.26 2.57-6.09q2.595-3.03 5.76-3.03c1.1 0 1.97.28 2.63.85s.99 1.31.99 2.23c0 2.44-2.59 4.42-7.78 5.94q.705 3.45 3.69 3.45c.78 0 1.52-.21 2.23-.63.69-.41 1.71-1.29 3.06-2.65.17-1.34.63-2.64 1.38-3.88.97-1.6 2.22-2.9 3.74-3.89s2.86-1.49 4.03-1.49c1.47 0 2.51.68 3.09 2.03l3.61-2h.99l-1.56 5.18c-.8 2.6-1.2 4.39-1.2 5.35s.36 1.52 1.08 1.52c.46 0 .96-.24 1.52-.73.53-.47 1.28-1.18 2.23-2.13.8-.86 1.54-1.77 2.2-2.74-1.02-.45-1.52-1.11-1.52-2s.31-1.88.93-2.91 1.47-1.54 2.55-1.54q1.38 0 1.38 1.41c0 .74-.26 1.8-.8 3.18 1.96-.21 3.67-1.71 5.13-4.49l1.21-.05c5.65-13 4.42-27.05-4.42-35.89l.01.03c-5.438-5.434-12.849-7.993-20.775-7.844zm-66.6 28.129c-4.6-.088-8.9 1.394-12.054 4.544C-2.65 69.4-1.14 82.59 7.93 91.65c9.07 9.07 26.4 6.44 29.48 3.37 2.49-2.49 5.71-20.4-3.37-29.46-5.103-5.096-11.51-7.803-17.425-7.915zm65.526 2.035h.94v1.08h-.94zm7.69 0h.939v1.08h-.94zm-5.331.01h.94v4.35l2.22-2.25h1.21l-2.11 2.05 2.33 3.47h-1.16l-1.83-2.82-.66.63v2.19h-.94zm8.81.17v1.93h.94v.73h-.94v3.23c0 .27.02.44.05.51.03.08.09.14.16.18.07.05.18.07.32.07.1 0 .24-.01.41-.04l.14.83c-.26.06-.5.08-.71.08h-.01c-.34 0-.6-.05-.79-.16a.87.87 0 0 1-.39-.42c-.08-.18-.11-.54-.11-1.1v-3.18h-.69v-.73h.69v-1.37zm-20.02 1.8c.43 0 .81.06 1.14.19.33.12.57.29.73.51.16.21.26.5.32.86l-.92.12c-.04-.28-.16-.51-.36-.67s-.48-.24-.85-.24c-.43 0-.74.07-.92.21s-.28.31-.28.5c0 .12.04.23.11.33.08.1.2.18.36.25.09.03.37.11.83.24.66.18 1.12.32 1.39.43.26.11.47.28.62.49s.22.48.22.8-.09.61-.27.88l.01.01c-.18.28-.44.49-.79.64-.34.15-.73.23-1.16.23-.72 0-1.26-.15-1.64-.45s-.62-.74-.72-1.33l.93-.15c.05.37.2.66.43.85.24.2.57.3 1 .3s.75-.09.96-.26.31-.38.31-.62a.56.56 0 0 0-.28-.5c-.13-.08-.45-.19-.96-.32-.69-.17-1.16-.32-1.43-.45s-.47-.3-.6-.53c-.14-.22-.21-.47-.21-.74 0-.25.06-.47.17-.68s.27-.38.46-.52c.15-.11.34-.2.59-.27s.52-.11.81-.11zm5.75 0q.9 0 1.47.45c.38.3.63.73.73 1.29l-.91.14c-.09-.37-.24-.65-.46-.84a1.18 1.18 0 0 0-.8-.28c-.47 0-.85.17-1.15.51s-.44.87-.44 1.6.14 1.28.43 1.62c.28.34.66.5 1.11.5.37 0 .67-.11.92-.34.25-.22.4-.57.47-1.04l.92.12c-.1.63-.36 1.13-.77 1.49v.02q-.615.54-1.53.54c-.76 0-1.36-.25-1.82-.74s-.69-1.2-.69-2.12c0-.6.1-1.12.3-1.57s.5-.78.9-1.01c.4-.22.84-.34 1.32-.34zm3.1.13h.94v5.52h-.94zm7.69 0h.94v5.52h-.94zm-26.91 3.24c-.43 0-1.07 1.09-1.9 3.26s-1.65 5.2-2.45 9.11c1.49-1.66 2.71-3.53 3.64-5.59.94-2.07 1.4-3.84 1.4-5.33 0-.43-.06-.79-.19-1.05-.13-.27-.3-.4-.5-.4zm54.7 8.13-4.31.83c-.98 2.13-1.69 4.03-2.13 5.73-.22.83-.38 1.68-.49 2.56-1.35 1.3-2.22 2.1-2.61 2.39s-.8.43-1.22.43c-.39 0-.7-.14-.93-.44-.22-.29-.34-.68-.34-1.18q0-.795.3-1.83c.2-.69.65-1.99 1.33-3.9l1.64-4.52-.4.02c-1.73 3.99-4.11 7.87-7.11 11.47-.04.27-.07.53-.07.78 0 .89.25 1.64.74 2.25s1.1.91 1.82.91c1.57 0 3.8-1.41 6.68-4.2-.01.22-.02.43-.02.65 0 .78.06 1.96.19 3.55l3.91-.92c0-1.07.01-1.91.05-2.53.06-.84.17-1.76.35-2.76q.15-.885.81-1.68l.99-1.15c.36-.42.7-.8 1.02-1.13q.555-.585.99-.99c.33-.29.62-.53.87-.69.27-.17.49-.25.65-.25.29 0 .44.2.44.57s-.28 1.26-.83 2.65c-1.04 2.59-1.56 4.52-1.56 5.78 0 .93.25 1.68.73 2.23s1.12.83 1.91.83c1.94 0 4.28-1.43 7-4.31v-1.996c-1.898 2.236-3.286 3.366-4.14 3.366-.58 0-.87-.35-.87-1.06 0-.53.34-1.68 1.04-3.46 1.01-2.59 1.52-4.45 1.52-5.58 0-.68-.2-1.25-.6-1.7s-.9-.68-1.5-.68c-.89 0-1.9.41-3.03 1.24s-2.67 2.32-4.6 4.48c.28-1.4.87-3.32 1.78-5.76zm10.4 9.154c.014-.017.026-.027.04-.044l-.04.01zM87.78 74.61c-1.18 0-2.3 1-3.35 3s-1.58 3.852-1.58 5.532c0 .64.16 1.158.47 1.548s.71.59 1.19.59c1.17 0 2.29-1 3.33-3.01s1.56-3.858 1.56-5.558c0-.66-.15-1.18-.44-1.55v.009c-.29-.38-.69-.56-1.18-.56zm-15.19.032c-.78 0-1.52.589-2.23 1.779-.71 1.18-1.06 2.72-1.06 4.62 3.02-.85 4.53-2.41 4.53-4.7 0-1.13-.42-1.7-1.24-1.7z"/></svg>