<svg xmlns="http://www.w3.org/2000/svg" viewBox="0 0 128 128"><path d="M5.7 1.9c-.5.1-.9.5-.9 1v122.2c0 .5.4.9.9.9h116.6c.5 0 .9-.4.9-.9V20.5c0-.5-.4-.8-.8-.8-.3-.1-.5 0-.7.2l-38.4 43c-.4.5-1.2.5-1.7.1l-.1-.1-19.4-20.1c-.4-.4-.4-1-.1-1.5l6.5-8.3c.4-.5 1.1-.7 1.6-.3.1.1.2.1.2.2l11 12.1c.4.5 1.2.5 1.7.1l.1-.1 30.7-41.7c.3-.4.2-.9-.2-1.2-.1-.1-.3-.1-.5-.2zm31.5 57.6c6.9-.2 13.7 2.1 19.1 6.5.4.4.5 1.1.1 1.5l-4.7 6.2c-.4.5-1.1.6-1.6.2-4-3.2-8.9-4.9-14-4.8-4.7 0-7.3 2.1-7.3 5.1 0 8.1 29.4 2.7 29.4 21.8.1 9.3-6.6 16.4-20.3 16.4-7.7.3-15.2-2.3-20.9-7.4-.4-.4-.5-1-.1-1.5l4.5-6.4c.4-.5 1.1-.6 1.6-.3l.1.1c4.2 3.9 9.6 6 15.3 6 6 0 8.9-2.8 8.9-5.7 0-9.1-29.5-2.8-29.5-22.1 0-8.5 7.4-15.6 19.4-15.6zm45.2 13h.9c11.3 0 19.1 8.5 19.1 20.9l-.2 1.2c0 .6-.5 1-1 1H74.3q-.3 0-.3.3c.9 5.2 5.6 8.8 10.9 8.5 3.4-.1 6.6-1.1 9.3-3.1.4-.3 1.1-.3 1.4.2l.1.1 3.3 4.8c.3.4.2 1-.2 1.4-4.3 3.2-9.6 4.8-14.9 4.6-11.6 0-20.3-7.8-20.3-20-.3-10.7 8.1-19.6 18.8-19.9zm1.149 7.982q-.224.004-.45.018c-4.7-.1-8.798 3.4-9.298 8.1q0 .3.299.3h18q.3 0 .3-.3c-.387-4.65-4.246-8.175-8.851-8.118z"/></svg>