<svg xmlns="http://www.w3.org/2000/svg" viewBox="0 0 128 128"><path d="M16.012 50.027a3 3 0 0 0-2.57 1.45L9.218 58.71a20.67 20.67 0 0 1 11.394 17.105h-2.968a17.76 17.76 0 0 0-9.922-14.582l-3.907 6.762a10.22 10.22 0 0 1 5.926 7.809H2.934a.48.48 0 0 1-.391-.25.48.48 0 0 1-.008-.465l1.883-3.207a6.8 6.8 0 0 0-2.152-1.219L.398 73.875a2.9 2.9 0 0 0-.296 2.227 2.93 2.93 0 0 0 1.378 1.777 3 3 0 0 0 1.454.383h9.32c.352-4.344-1.6-8.56-5.135-11.106l1.48-2.564a15.31 15.31 0 0 1 6.614 13.672h7.902a23.04 23.04 0 0 0-10.531-20.407l2.996-5.132a.48.48 0 0 1 .3-.229.5.5 0 0 1 .372.057c.34.188 13.02 22.311 13.258 22.568a.48.48 0 0 1-.012.488.48.48 0 0 1-.426.235H26.02q.059 1.223 0 2.445h3.07a2.96 2.96 0 0 0 2.101-.86 2.96 2.96 0 0 0 .864-2.097c0-.52-.138-1.023-.399-1.465l-13.078-22.39a2.99 2.99 0 0 0-2.566-1.45zm28.734 5.668c-3.242 0-5.508 1.926-5.508 4.664 0 2.953 1.922 3.974 5.426 4.825 3.121.719 4.078 1.386 4.078 2.882s-1.284 2.418-3.27 2.418a7.9 7.9 0 0 1-5.324-2.09l-1.445 1.727a10.2 10.2 0 0 0 6.69 2.47c3.52 0 5.771-1.89 5.771-4.816-.016-2.48-1.48-3.804-5.25-4.718l-.004-.002c-3.309-.797-4.228-1.426-4.228-2.953 0-1.371 1.213-2.305 3.021-2.305a7.76 7.76 0 0 1 4.54 1.64l1.28-1.816a9.02 9.02 0 0 0-5.777-1.926zm54.48.215v16.422h2.438v-5.89h4.143l4.16 5.902h2.847l-4.492-6.297.362-.106c2.48-.687 3.855-2.418 3.855-4.898 0-3.148-2.305-5.133-6.023-5.133zm-45.773.028V72.34h12.14v-2.13h-9.702l.004-5.077h8.492V63H55.89v-4.934h9.582v-2.129zm14.465.007V72.34h2.39V59.773l9.743 12.567h2.094V55.945H79.75v12.23l-9.473-12.23zm16.172 0-.008 2.215h5.367v14.184h2.469V58.16h5.371v-2.215zm28.77 0 6.472 9.914v6.485h2.47V65.78l6.516-9.836h-2.76l-4.933 7.7-4.902-7.7zm-11.2 2.168h4.604c2.398 0 3.771 1.138 3.771 3.106s-1.469 3.117-3.75 3.117h-4.625z"/></svg>