<svg xmlns="http://www.w3.org/2000/svg" viewBox="0 0 128 128"><path d="m118.277 48.488-.54.893c4.067 2.47 7.38 6.165 9.316 10.4l.947-.426c-2.026-4.432-5.478-8.293-9.723-10.867zm-8.443.604-.354 1.26c8.053 2.312 14.48 8.939 16.368 16.877l1.27-.3c-1.99-8.394-8.776-15.395-17.284-17.837zm-9.895 2.06v1.567c12.824 0 23.252 10.288 23.252 22.94h1.573c-.001-13.516-11.143-24.507-24.825-24.507zm-13.744 6.455v14.834c0 1.093-.046 2.336-.097 3.17l1.93.004.097-2.027h.078c.911 1.62 2.328 2.307 4.102 2.307 2.73 0 5.494-2.187 5.494-6.57.029-3.729-2.128-6.263-5.164-6.263-1.98 0-3.4.887-4.184 2.26h-.05v-7.715zM65.258 62.65a6.6 6.6 0 0 0-3.928 1.147 6.625 6.625 0 0 0-1.752 9.2 6.61 6.61 0 0 0 8.111 2.349l2.565 4.166 2.031-1.387-2.564-4.162a6.625 6.625 0 0 0 .808-8.416 6.62 6.62 0 0 0-5.271-2.897zm-22.23.274c-2.253 0-3.952.607-4.815 1.094l.715 2.482c.813-.51 2.157-.94 3.418-.94 1.896 0 2.256.947 2.256 1.604v.178c-4.382-.03-7.272 1.522-7.272 4.744 0 1.976 1.491 3.8 4.004 3.8 1.46 0 2.73-.526 3.539-1.517h.07l.229 1.242v-.013h3.482c-.13-.688-.181-1.821-.181-3.012V68.27c0-2.914-1.313-5.346-5.446-5.346zm-11.4.014c-2.053 0-3.32 1.19-3.823 1.976h-.08l-.178-1.695h-3.344c.047 1.092.098 2.408.098 3.949h.013v8.434h3.846v-7.145c0-.359.058-.738.156-.967.253-.705.885-1.437 1.95-1.437 1.39 0 1.947 1.083 1.947 2.685v6.873h3.851v-7.353c0-3.648-1.904-5.32-4.435-5.32zm-26.286.01C2.284 62.945.309 64.691.309 67c-.03 1.47.952 2.862 3.515 3.727 1.448.486 1.826.793 1.826 1.42 0 .63-.481 1.037-1.648 1.037-1.145 0-2.61-.51-3.32-.944L0 75.01c.943.509 2.38.863 4.002.863 3.553 0 5.375-1.7 5.375-4.002-.023-1.83-1.016-3.017-3.371-3.83-1.517-.537-2.004-.835-2.004-1.42 0-.635.538-1.012 1.47-1.012 1.067 0 2.124.397 2.68.705l.688-2.662c-.765-.377-2.054-.705-3.498-.705zm11.256 0c-3.984 0-6.62 2.554-6.62 6.56 0 4.002 2.785 6.388 6.409 6.388 3.32 0 6.537-2.087 6.537-6.617 0-3.73-2.525-6.34-6.326-6.332zm40.695 0c-1.19 0-2.713.751-3.348 2.554h-.097l-.131-2.28h-3.315a78 78 0 0 1 .098 4.079l.008 8.328h3.853v-6.29q.001-.436.07-.862c.259-1.191 1.22-1.957 2.64-1.957a6 6 0 0 1 1.034.101v-3.627a4.3 4.3 0 0 0-.812-.047zm47.162.11c-3.573 0-5.75 2.919-5.75 6.618s2.256 6.183 6.03 6.183c1.952 0 3.297-.4 4.081-.757l-.379-1.596c-.834.354-1.796.635-3.392.635-2.228 0-4.157-1.242-4.21-4.254l8.618-.01a9 9 0 0 0 .068-1.031c0-2.26-1.064-5.787-5.066-5.787zm-31.289.286v7.168c0 4.315 2.308 5.375 4.232 5.375 2.18 0 3.47-1.298 4.053-2.283h.053l.125 2.007h1.978a48 48 0 0 1-.101-3.347h-.014v-8.92H81.27v7.527c0 .387-.065.777-.202 1.14-.405.988-1.449 2.026-2.943 2.026-2.026 0-2.73-1.572-2.73-3.902v-6.791zm31.121 1.312c2.508 0 3.115 2.208 3.086 3.63h-6.514c.188-1.552 1.173-3.63 3.428-3.63zm-38.367.057a4.63 4.63 0 0 1 2.965 1.951 4.656 4.656 0 0 1-1.223 6.45 4.63 4.63 0 0 1-3.478.718 4.642 4.642 0 0 1 1.736-9.12zm26.002.125c2.38 0 3.64 2.1 3.64 4.562 0 2.81-1.385 4.713-3.72 4.713-1.62 0-2.91-1.065-3.34-2.607a5 5 0 0 1-.102-.817h-.005v-2.203c0-.36.078-.659.126-.916.458-1.7 1.878-2.732 3.4-2.732zm-75.428.83c1.752 0 2.457 1.883 2.457 3.732 0 2.228-.958 3.727-2.457 3.727-1.648 0-2.531-1.603-2.531-3.727 0-1.823.687-3.732 2.531-3.732zm28.229 4.088V71.1c-.005.22-.027.439-.078.654a2.1 2.1 0 0 1-2 1.42c-.865 0-1.518-.478-1.518-1.47 0-1.492 1.57-1.975 3.596-1.948z"/></svg>