<svg xmlns="http://www.w3.org/2000/svg" viewBox="0 0 128 128"><path d="M64.205-.025C28.985-.025 0 28.982 0 64.242a64.32 64.32 0 0 0 19.945 46.563l2.367 2.1a64.22 64.22 0 0 0 41.36 15.12c33.487 0 61.635-26.238 64.02-59.681 1.75-16.371-3.052-37.078-11.24-61.701a59 59 0 0 1-6.837 12.136A64.25 64.25 0 0 0 64.205-.025zm51.63 13.552c7.472 22.19 16.46 56.932.35 78.405-15.842 21.122-49.678 14.002-71.374 15.02 0 0-3.852.233-7.721.866 0 0 1.449-.617 3.334-1.334 15.226-5.3 22.43-6.335 31.685-11.086 17.427-8.869 34.655-28.273 38.24-48.462-6.636 19.422-26.75 36.11-45.078 42.894-12.557 4.635-35.238 9.137-35.238 9.137l-.916-.485c-15.442-7.518-15.91-40.976 12.156-51.779 12.291-4.735 24.05-2.135 37.325-5.303 14.175-3.367 30.568-14.003 37.238-27.873zM24.8 102.201a5.43 5.43 0 0 1 3.451 1.235c2.351 1.9 2.717 5.383.816 7.734a5.5 5.5 0 0 1-4.267 2.033c-3.018 0-5.488-2.484-5.488-5.502s2.486-5.5 5.488-5.5z"/></svg>