<svg xmlns="http://www.w3.org/2000/svg" viewBox="0 0 128 128"><path d="M15.766 45.867C7.072 45.867 0 52.94 0 61.633 0 70.327 7.073 77.4 15.766 77.4c8.694 0 15.765-7.071 15.765-15.765 0-8.693-7.072-15.766-15.765-15.766zm27.806 7.522q-2.062 0-3.316.986-1.253.987-1.252 2.654 0 1.59.861 2.576.864.989 2.877 1.706 1.442.515 2.147.92.704.402 1.007.882.3.478.3 1.229.001 1.135-.848 1.77-.848.637-2.526.636a10 10 0 0 1-2.072-.217 10.4 10.4 0 0 1-1.936-.592v1.622q1.382.66 3.948.66 2.37-.001 3.75-1.067 1.38-1.064 1.38-2.968v-.002q0-1.48-.853-2.407-.852-.928-3.121-1.738-1.352-.483-2.01-.883-.655-.399-.931-.879-.276-.477-.278-1.226 0-1.017.75-1.59.75-.571 2.082-.572 1.688 0 3.475.75l.523-1.46q-1.807-.79-3.957-.79zm-32.855.187h.002c.277-.003.564.01.877.01v1.72c-.176.013-.33.038-.487.038-1.048-.037-1.102.318-1.181 1.191-.048.54.016 1.1-.02 1.645a13 13 0 0 1-.217 1.625c-.152.77-.63 1.352-1.29 1.838 1.284.836 1.428 2.132 1.513 3.449.042.709.026 1.424.098 2.127.055.546.267.685.83.703.23.006.468 0 .734 0v1.685c-1.666.284-3.042-.187-3.383-1.6a10 10 0 0 1-.205-1.577c-.036-.563.023-1.127-.02-1.69-.121-1.547-.318-2.068-1.798-2.142v-1.92a3 3 0 0 1 .318-.055c.813-.044 1.16-.292 1.336-1.092q.126-.674.15-1.363c.062-.88.036-1.778.188-2.65.212-1.255.99-1.861 2.281-1.934a8 8 0 0 1 .274-.008zm10.09.01h.002c1.528-.01 2.537.723 2.644 2.35.055.813.05 1.63.098 2.445.025.436.09.877.199 1.3.176.668.528.906 1.23.936.116.006.226.022.383.04v1.923a1.3 1.3 0 0 1-.26.06c-.94.06-1.37.45-1.46 1.391-.062.6-.057 1.21-.098 1.817q-.029.991-.184 1.976c-.242 1.188-.98 1.784-2.207 1.856-.393.025-.785 0-1.216 0v-1.715c.23-.011.43-.031.636-.037.733-.02.988-.255 1.024-.983.042-.8.06-1.6.09-2.394.056-1.157.373-2.188 1.445-2.91-.612-.436-1.104-.972-1.238-1.686-.151-.867-.2-1.759-.286-2.637-.043-.443-.04-.885-.084-1.32-.04-.48-.37-.643-.8-.65a34 34 0 0 0-.819-.006v-1.676a6 6 0 0 1 .9-.08zm57.216 3.426q-1.952 0-3.02.96-1.064.963-1.064 2.739.001 1.066.53 1.894.525.829 1.363 1.174-.68.416-.994.86-.316.443-.317 1.035a1.54 1.54 0 0 0 .282.918 1.7 1.7 0 0 0 .695.584q-1.143.255-1.775.974-.631.72-.631 1.707-.001 1.441 1.148 2.23 1.15.792 3.272.792 2.761 0 4.203-.943 1.44-.942 1.44-2.739 0-1.411-.942-2.15-.944-.739-2.7-.74H77.6q-.889 0-1.254-.211-.365-.213-.366-.659 0-.835 1.047-1.39.426.08.909.08 1.895 0 2.978-.947Q82 62.23 82 60.643q0-.701-.217-1.258a3.4 3.4 0 0 0-.492-.903l2.004-.238v-1.037h-3.74a5.5 5.5 0 0 0-1.532-.195zm10.887 0q-1.955 0-3.02.96-1.065.963-1.066 2.739 0 1.066.528 1.894.528.829 1.367 1.174-.68.416-.996.86-.316.443-.317 1.035a1.54 1.54 0 0 0 .281.918 1.7 1.7 0 0 0 .696.584q-1.145.255-1.776.974a2.5 2.5 0 0 0-.63 1.707q0 1.441 1.15 2.23 1.148.792 3.27.792 2.762 0 4.203-.943 1.44-.942 1.44-2.739 0-1.411-.942-2.15-.944-.739-2.7-.74h-1.914q-.888 0-1.252-.211-.366-.213-.367-.659 0-.835 1.047-1.39.425.08.908.08 1.896 0 2.98-.947 1.087-.95 1.085-2.537 0-.701-.215-1.258a3.5 3.5 0 0 0-.494-.903l2.004-.238v-1.037h-3.74a5.5 5.5 0 0 0-1.53-.195zm10.403 0q-2.17 0-3.458 1.539-1.288 1.54-1.287 4.154-.001 2.596 1.385 4.057 1.387 1.46 3.785 1.46v-.001q1.095 0 1.87-.164a8.7 8.7 0 0 0 1.642-.537v-1.461a8.7 8.7 0 0 1-3.453.73c-1.104 0-1.96-.326-2.57-.986q-.912-.985-.961-2.89h7.449v-1.036q0-2.19-1.184-3.527-1.185-1.337-3.219-1.338zm11.177 0a3.26 3.26 0 0 0-1.863.572q-.849.574-1.451 1.629h-.078l-.188-2.004h-1.351v10.814h1.636v-5.8q0-1.591.934-2.657.933-1.065 2.244-1.064a5.6 5.6 0 0 1 1.184.146l.226-1.517a6.5 6.5 0 0 0-1.29-.12zm-42.224.02a7.6 7.6 0 0 0-1.91.247 7.8 7.8 0 0 0-1.752.68l.503 1.254q1.71-.829 3.061-.828 1.203-.001 1.752.605.546.605.547 1.881v.67l-1.836.059q-5.24.157-5.24 3.435 0 1.528.914 2.358.91.829 2.52.828 1.202 0 2.007-.36.803-.36 1.613-1.377h.078l.327 1.54h1.214v-7.381q0-1.894-.933-2.752-.93-.86-2.865-.86zm-20.309.177 2.951 10.814h1.895l2.043-6.326q.296-.935.69-2.664h.08q.51 2.064.698 2.647l1.985 6.343h1.943L63.23 57.21h-1.697q-1.884 7.222-2.056 7.963-.172.739-.213 1.094h-.078q-.196-1.154-.748-2.852l-1.936-6.205h-1.775l-1.985 6.205q-.178.524-.418 1.416a20 20 0 0 0-.35 1.457h-.08q-.078-.741-.624-2.873l-1.594-6.205zm29.998.996q2.427.001 2.428 2.438 0 2.328-2.399 2.328-1.145.001-1.785-.58-.643-.584-.642-1.72 0-1.222.623-1.843.62-.623 1.775-.623zm10.885 0q2.427.001 2.428 2.438 0 2.328-2.399 2.328-1.145.001-1.785-.58-.642-.584-.643-1.72 0-1.222.623-1.843.621-.623 1.776-.623zm10.455.18q1.281-.001 1.973.82.69.825.689 2.375h-5.652q.139-1.5.912-2.35.776-.846 2.078-.845zm-87.373 2.14h.023a1.11 1.11 0 0 1 1.092 1.127v.06a1.09 1.09 0 0 1-1.15 1.026h-.075a1.11 1.11 0 0 1-1.048-1.164 1.11 1.11 0 0 1 1.158-1.049zm3.824 0c.673-.007 1.117.43 1.123 1.09 0 .686-.419 1.123-1.086 1.123-.679 0-1.127-.425-1.127-1.086-.006-.036-.006-.064-.006-.101a1.063 1.063 0 0 1 1.096-1.026zm3.895 0c.62 0 1.162.522 1.132 1.123-.036.648-.6 1.187-1.158 1.09h-.011a1.11 1.11 0 0 1-1.116-1.115 1.13 1.13 0 0 1 1.153-1.098zm50.785 2.18v.977q0 1.51-.873 2.35-.874.837-2.403.837-.968 0-1.504-.465-.539-.464-.539-1.351 0-1.135.864-1.672.862-.54 2.816-.608zm41.978 4.086v.19h.397v1.16h.22v-1.16h.399v-.19zm1.317 0v1.35h.2v-.657a8 8 0 0 0-.015-.47h.006l.39 1.127h.196l.406-1.125h.008a7 7 0 0 0-.014.459v.666h.213v-1.348h-.312l-.387 1.072h-.006l-.375-1.074zm-36.694.986h1.963q1.5 0 2.043.34.542.341.541 1.219.001 1.056-.988 1.672-.994.617-3.057.619-1.38 0-2.12-.455-.74-.454-.74-1.332 0-.996.622-1.53.62-.533 1.736-.533zm10.885 0h1.965q1.5 0 2.041.34.542.341.543 1.219 0 1.056-.99 1.672-.993.617-3.055.619-1.382 0-2.121-.455-.739-.454-.74-1.332 0-.996.62-1.53.623-.533 1.737-.533zm-8.978 7.666c-1.058 0-1.76.44-1.76 1.506 0 .92.493 1.266 1.635 1.559.812.193 1.05.349 1.05.795 0 .557-.3.85-.957.85-.548 0-1.59-.14-1.59-.14l-.085.686s1.043.21 1.73.21c1.042 0 1.768-.503 1.768-1.661 0-.903-.402-1.194-1.514-1.504-.902-.247-1.182-.363-1.182-.857 0-.455.332-.688.98-.688.449 0 1.53.123 1.53.123l.07-.693s-1.004-.186-1.675-.186zm3.845.092.002 5.29h.856v-4.573h.047l1.32 4.355h.896l1.32-4.355h.046v4.572h.865v-5.289h-1.5l-1.18 4.13-1.181-4.13zm8.524 0-1.307 5.29h.858l.39-1.552h1.82l.391 1.551h.863l-1.31-5.289zm4.926 0v5.29h.857v-1.569h1.242l.764 1.566h.943l-.873-1.76c.563-.261.863-.935.863-1.685 0-1.172-.623-1.842-1.789-1.842zm5.173 0v.766h1.506v4.523h.863v-4.523h1.49v-.766zm5.58 0v5.287h2.07c1.027 0 1.682-.415 1.682-1.496 0-.725-.3-1.05-.755-1.226.425-.232.625-.55.625-1.192 0-.98-.564-1.373-1.614-1.373zm5.877 0 .002 5.29h3.334v-.757h-2.478v-1.552h2.015v-.735h-2.013v-1.498h2.476v-.748zm6.409 0-1.305 5.29h.857l.39-1.552h1.821l.39 1.551h.864l-1.312-5.289zm4.925 0v5.291h.858v-1.568h1.244l.764 1.566H128l-.871-1.76c.563-.262.861-.937.861-1.687 0-1.172-.623-1.842-1.789-1.842zm-32.226.719h.387l.546 2.262h-1.484zm27.965 0h.386l.547 2.262h-1.482zm-22.846.023h1.15c.617 0 .91.506.91 1.108 0 .548-.246 1.133-.894 1.133h-1.166zm10.754 0h1.103c.525 0 .79.224.79.733 0 .518-.232.78-.758.78h-1.135zm17.21 0h1.151c.618 0 .91.506.91 1.108 0 .548-.245 1.133-.894 1.133h-1.166zm-59.948.414v1.186l.01.203.019.211h-.033q-.319-.43-.91-.43-.569 0-.887.399-.319.397-.319 1.117t.319 1.111q.316.39.886.39.61 0 .915-.444h.025l.057.39h.359v-4.133zm3.007 0v4.133h.317l.092-.375h.033a1 1 0 0 0 .392.324q.235.105.52.106.569 0 .889-.399.32-.396.32-1.113 0-.718-.318-1.11t-.891-.392q-.607.001-.914.436h-.02q.02-.267.02-.606v-1.004zm-28.207.196q-.555-.001-.892.263a.86.86 0 0 0-.336.715q-.001.428.23.694.233.265.776.459a4 4 0 0 1 .578.248.75.75 0 0 1 .27.238.6.6 0 0 1 .08.33.56.56 0 0 1-.227.477q-.23.17-.682.17a2.9 2.9 0 0 1-1.078-.217v.435q.373.18 1.063.18.636-.001 1.01-.287.37-.287.37-.801 0-.397-.228-.648-.229-.25-.842-.467a3.3 3.3 0 0 1-.539-.237.7.7 0 0 1-.252-.238.66.66 0 0 1-.072-.33.5.5 0 0 1 .201-.428q.2-.154.56-.154a2.4 2.4 0 0 1 .934.201l.143-.392a2.6 2.6 0 0 0-1.067-.211zm18.328.351-.185.623-.418.182v.215h.418v1.73q-.001.89.844.89a2 2 0 0 0 .252-.023.8.8 0 0 0 .21-.058v-.336a1.5 1.5 0 0 1-.398.053.43.43 0 0 1-.344-.141q-.125-.14-.125-.402v-1.713h.846v-.344h-.846v-.676zm-11.619.623a1.2 1.2 0 0 0-.515.106 1 1 0 0 0-.399.346h-.02l-.06-.399h-.36v4.217h.44v-1.197q0-.23-.029-.485h.03a1 1 0 0 0 .394.324 1.3 1.3 0 0 0 .52.106q.568 0 .89-.399.319-.395.318-1.113 0-.715-.314-1.11-.316-.395-.895-.396zm3.416 0q-.292 0-.517.106a1 1 0 0 0-.397.346h-.02l-.062-.399h-.36v4.217h.44v-1.197a4 4 0 0 0-.03-.485h.032a1 1 0 0 0 .395.324q.235.105.52.104l-.003.002q.57 0 .891-.399.32-.395.32-1.113 0-.715-.314-1.11-.316-.395-.895-.396zm3.262 0q-.631 0-.988.397t-.356 1.11a1.8 1.8 0 0 0 .164.8 1.2 1.2 0 0 0 .467.525q.303.183.694.184.632.001.99-.4.36-.399.36-1.11v-.002q0-.692-.36-1.1-.361-.404-.97-.404zm3.508 0a.9.9 0 0 0-.502.153 1.3 1.3 0 0 0-.39.44h-.02l-.051-.54h-.363v2.91h.44v-1.56a1.05 1.05 0 0 1 .25-.715.78.78 0 0 1 .605-.287 1.5 1.5 0 0 1 .32.039l.059-.41a2 2 0 0 0-.348-.03zm4.303 0q-.585 0-.93.412-.348.418-.348 1.12-.001.7.373 1.093.373.392 1.02.393a2.5 2.5 0 0 0 .504-.047 2.2 2.2 0 0 0 .44-.143v-.392a2.3 2.3 0 0 1-.93.195q-.444.001-.69-.263-.246-.267-.26-.78h2.006v-.277q0-.591-.318-.951-.32-.36-.867-.36zm-19.27.051v1.906q0 .555.266.807.262.253.795.254.307-.001.547-.115a.9.9 0 0 0 .376-.33h.024l.062.39h.364v-2.91h-.44v1.53q0 .566-.21.814-.214.251-.67.25-.345 0-.507-.176c-.107-.117-.162-.291-.162-.53v-1.89zm29.223.002 1.174 2.928-.163.414q-.193.51-.646.51-.181-.001-.328-.034v.356a1.8 1.8 0 0 0 .398.045.92.92 0 0 0 .612-.207q.246-.207.433-.697l1.25-3.315h-.472a144 144 0 0 0-.721 2.016 8 8 0 0 0-.147.465h-.02q-.049-.252-.26-.82l-.638-1.66zm-9.96.316h.003q.344-.001.529.221.186.221.186.639h-1.522q.038-.404.246-.633a.72.72 0 0 1 .559-.227zm3.145 0q.45.002.657.264.208.265.207.883v.094q0 .548-.204.793-.202.244-.654.244-.394.001-.6-.283-.203-.284-.205-.842c0-.365.069-.652.206-.852a.67.67 0 0 1 .593-.3zm-17.69.004a.7.7 0 0 1 .602.291q.214.291.213.836 0 .537-.215.842a.68.68 0 0 1-.59.305q-.451 0-.656-.264-.204-.264-.205-.877v-.1q.006-.54.205-.785.2-.248.647-.248zm3.415 0a.7.7 0 0 1 .601.291q.212.291.213.836 0 .537-.213.842a.68.68 0 0 1-.591.305q-.45 0-.655-.264t-.205-.877v-.1q.004-.54.205-.785.199-.248.645-.248zm3.312 0q.439 0 .663.29.223.288.224.843 0 .56-.224.852-.224.29-.659.289-.431 0-.654-.291-.225-.294-.225-.85v-.002q0-.562.221-.845.22-.285.654-.286zm16.123.002q.418 0 .618.28.2.279.199.845 0 .556-.2.852-.199.295-.605.295-.453 0-.656-.264-.205-.264-.205-.877t.199-.875q.199-.257.65-.256zm38.442.28h1.15c.417 0 .865.161.865.763 0 .633-.316.803-.85.803h-1.165z"/></svg>