<svg xmlns="http://www.w3.org/2000/svg" viewBox="0 0 128 128"><path d="M78.156 29.986v1.828c4.153 0 5.512.157 7.182 2.504L99.924 55.74 86.77 74.957c-3.245 4.7-8.158 4.781-9.603 4.781v1.826c1.19-.099 2.915-.127 4.473-.136-1.504 9.597-3.29 14.783-15.553 14.783H55.592c-3.02 0-3.162-.383-3.162-2.984V72.092h7.133c7.133 0 7.812 2.614 7.812 8.996h1.215V61.416h-1.215c0 6.274-.68 8.84-7.812 8.84h-7.135V51.518c0-2.553.145-2.936 3.164-2.936H65.93c11.7 0 13.063 4.65 14.123 14.648h1.361L79.6 46.506H46.658l-1.22-16.41H1.775L.498 46.818h1.36C2.834 34.293 3.908 32.1 15.634 32.1h4.174c1.443.226 1.443 1.144 1.443 2.884v41.162c0 2.733-.228 3.569-6.598 3.569h-2.146v1.826c3.628-.07 7.408-.145 11.117-.145 3.698 0 7.49.075 11.115.145v-1.826h-2.11c-6.274 0-6.501-.836-6.501-3.569v-41.16c0-1.67 0-2.576 1.361-2.884h4.15c11.472 0 12.681 2.148 13.653 14.404h-3.98v2.078c5.355 0 6.214 0 6.214 3.398V92.79c0 3.4-.848 3.398-6.215 3.398v1.827h39.35l2.36-16.592h.562c2.04 0 5.595-.001 7.478.142v-1.826c-2.338-.226-3.017-1.74-3.017-2.959 0-.977.37-1.513.752-2.05l12.096-17.653 13.154 19.334c.595.836.594 1.063.594 1.29 0 .594-.677 1.895-3.325 2.05v1.826c2.422-.144 6.118-.142 8.61-.142 1.957 0 5.737-.002 7.572.142V79.75c-4.843 0-5.605-.37-7.107-2.504l-16.625-24.322 11.187-16.174c1.12-1.588 3.4-4.855 9.604-4.937v-1.827c-1.732.144-4.604.145-6.418.145-2.492 0-5.595 0-7.479-.145v1.826c2.422.227 3.016 1.74 3.016 2.96 0 .903-.37 1.514-.906 2.265l-9.983 14.479L91.6 35.14c-.525-.824-.598-1.063-.598-1.29 0-.68.824-1.967 3.328-2.038v-1.827c-2.421.144-6.12.145-8.611.145-1.958 0-5.736 0-7.563-.145z"/></svg>