<svg xmlns="http://www.w3.org/2000/svg" viewBox="0 0 128 128"><path d="M23.277 0v89.35h91.61V6.023A6.016 6.016 0 0 0 108.863 0zm-1.002.387L3.701 11.578v89.18l18.574-11.192zm46.022 18.185c10.157 0 17.451 5.15 17.451 12.518v2.719c0 4.22-4.004 7.87-8.94 9.013 4.936.858 10.872 4.22 10.872 10.729v3.363c0 8.083-8.08 14.02-19.026 14.02-14.02 0-19.027-7.369-19.814-14.737h11.73c.357 3.004 2.433 5.865 7.44 5.865 4.363 0 7.224-2.074 7.224-6.58V53.98c0-5.436-5.435-6.367-9.011-6.367h-3.864v-8.369h3.864c3.576 0 7.224-1.144 7.224-5.293v-1.717c0-3.29-2.219-4.933-5.867-4.933-4.22 0-6.15 2.646-6.437 5.793h-11.73c.356-7.654 7.01-14.522 18.884-14.522zm47.594 1.004v70.778H22.918l-9.05 5.453v25.668A6.525 6.525 0 0 0 20.392 128h103.906V19.576zM40.96 98.752h5.963l3.822 15.232 4.012-15.177-.028-.055h5.8v18.973h-4.5v-12.25l-3.17 12.222v.028h-4.473l-3.36-12.739v12.74H40.96zm27.424 0h6.314l5.72 18.973h-4.823l-1.166-4.147h-5.694l-1.056 4.147h-4.717zm13.994 0h5.18l3.197 6.045h.027l3.28-6.045h5.013l-5.392 8.539 5.99 10.434h-5.34l-3.658-7.155-3.713 7.155h-5.207l5.99-10.03zm-10.85 3.117-1.924 8.186h3.905z"/></svg>