<svg xmlns="http://www.w3.org/2000/svg" viewBox="0 0 128 128"><path d="M30.654 0c-1.914 0-2.304.038-3.197.32a10 10 0 0 0-1.828.807c-1.241.751-4.386 3.785-13.824 13.33-5.91 5.984-6.091 6.187-5.535 6.08 1.09-.218 5.54-.303 7.037-.133 6.208.703 11.544 2.725 19.972 7.573l5.32 3.05a215.73 215.14 0 0 1 3.096 1.785c.048.05-8.431 8.497-8.527 8.49-.037 0-.397-.622-.803-1.386-.4-.767-1.754-3.22-3-5.46a1350 1350 0 0 1-3.594-6.48q-1.325-2.408-1.757-2.736c-1.06-.8-5.992-2.484-8.772-3.002-2.412-.443-5.95-.586-7.308-.293-3.476.747-5.777 2.88-6.194 5.729a40.394 40.285 0 0 0-.144 7.123c.295 2.512 1.546 6.858 3.076 10.644a99.867 99.597 0 0 0 4.219 8.57c1.96 3.468 4.614 7.77 5.4 8.766l.396.508-1.792 2.87c-3.251 5.2-7.273 12.404-8.813 15.79A51.57 51.43 0 0 0 .35 93.613c-.416 2.23-.422 5.35-.006 6.87a13.171 13.135 0 0 0 1.84 3.79c.56.731 18.69 18.854 18.85 18.854.064 0-.027-.423-.204-.945-1.085-3.227-1.096-6.239-.037-10.399 1.449-5.716 4.074-11.807 7.646-17.758 1.476-2.453 3.535-5.637 4.545-7.013l.465-.635 1.067 1.174 4.01 4.426c1.624 1.782 2.93 3.253 2.908 3.27-.02.015-1.199.67-2.621 1.454-8.4 4.634-11.837 6.634-12.934 7.535-.765.63-.959.886-1.547 2.102-1.829 3.744-2.822 8.622-2.459 12.02.471 4.351 2.686 7.307 6.557 8.757.738.277 1.518.416 3.994.682 1.02.107 3.641-.213 5.4-.66 7.074-1.83 13.336-4.853 22.463-10.88l3.787-2.495 2.336 1.476c6.785 4.287 9.792 6.059 13.278 7.813 4.245 2.139 6.93 3.193 10.212 4.015a36.619 36.519 0 0 0 5.034.854l.005.012c1.738.128 4.044.074 5.006-.118a8.05 8.05 0 0 0 5.92-4.949c.465-1.179.64-2.222.64-3.806 0-3.86-.88-7.94-2.618-12.18-1.084-2.65-.717-2.374-10.305-7.76-4.459-2.507-6.668-3.803-6.668-3.92 0-.224 7.759-8.527 7.979-8.543.17-.016 2.63 3.657 4.304 6.424 1.337 2.22 4.518 8.545 5.711 11.361 2.887 6.79 3.706 12.277 2.621 17.477a4.957 4.944 0 0 0-.15.916c.08.075 3.244-3.104 7.271-7.295 3.711-3.862 5.086-5.21 8.77-8.592 1.685-1.546 2.46-2.502 3.3-4.086.937-1.749 1.31-3.37 1.315-5.71.015-2.833-.565-5.653-2.068-10.122-2.086-6.192-5.028-11.825-11.049-21.125-1.235-1.91-1.582-2.542-1.486-2.718a136 136 0 0 1 1.384-2.262c6.636-10.73 9.909-18.297 11.121-25.711.413-2.5.482-3.696.295-5.22-.589-4.902-3.368-7.77-7.892-8.143-2.861-.234-7.872.683-12.272 2.24-1.717.609-2.475 1.136-3.218 2.219-.21.309-1.932 3.46-3.825 7.005a936 936 0 0 1-3.882 7.227l-.428.78-4.197-4.284c-2.364-2.42-4.135-4.33-4.065-4.394.064-.058 2.599-1.483 5.631-3.163 8.952-4.954 13.032-6.894 17.352-8.228 3.958-1.226 8.272-1.481 11.93-.707l1.193.25-.641-.693c-.352-.384-4.564-4.637-9.354-9.452-8.705-8.746-8.714-8.755-9.933-9.384-2.765-1.424-5.166-1.596-10-.711C85.605 1.84 76.284 6.22 67.514 12.367c-2.44 1.707-3.257 1.963-4.647 1.43-.358-.134-1.994-1.13-3.646-2.219-3.401-2.245-5.722-3.615-8.342-4.922C45.692 4.07 39.263 1.626 34.53.432 32.981.042 32.633.006 30.654 0zM8.822 24.549c.39-.02.926.01 1.897.074 1.145.074 2.356.17 2.693.213 1.38.17 3.883.805 6.193 1.574l2.46.81 3.667 6.526a1088 1088 0 0 1 4.252 7.615 15.807 15.764 0 0 0 .93 1.547l.344.45-1.68 1.72c-4.738 4.864-9.064 9.926-12.203 14.309l-.006.006c-.465.657-.86 1.189-.871 1.189-.053-.005-1.438-2.235-3.154-5.088-4.498-7.467-6.712-12.367-8.262-18.25-.53-2.005-.562-2.222-.615-4.547-.075-2.992.183-5.216.707-6.107.41-.703 1.496-1.45 2.619-1.822.393-.131.639-.2 1.03-.22zm108.032.02c1.32.017 2.616.26 3.462.671 1.208.587 2.31 2.156 2.764 3.926.525 2.032.279 4.961-.748 8.961-1.412 5.493-3.87 10.756-9.186 19.678v.006c-.839 1.412-1.577 2.617-1.636 2.681-.054.06-.897-.95-1.871-2.24-2.946-3.915-8.547-10.645-10.606-12.746-1.064-1.088-1.933-2.026-1.933-2.08 0-.053 1.186-2.27 2.63-4.938a898 898 0 0 0 4.032-7.486c2.059-3.899 2.025-3.858 3.105-4.268a37.806 37.703 0 0 1 8.676-2.105c.429-.047.87-.066 1.31-.06zM63.918 50.944c.235 0 3.833 3.28 6.197 5.653 2.283 2.293 6.311 6.65 6.412 6.933.022.06-1.694 1.813-3.806 3.893l-.006.012-6.444 6.345-2.6 2.56-5.16-5.269c-2.84-2.9-5.597-5.728-6.132-6.293l-.975-1.013 1.926-2.102c2.006-2.198 10.428-10.719 10.588-10.719zm14.646 15.153c.177-.108 2.065 2.11 6.584 7.709a314.16 313.31 0 0 1 6.426 8.191l1.584 2.086-.984 1.1c-.545.602-2.367 2.533-4.047 4.287a635 635 0 0 0-4.652 4.906l-1.594 1.705 2.406 1.365a293 293 0 0 0 3.77 2.108 1114.4 1111.4 0 0 1 11.09 6.203c1.127.66 1.247.8 1.771 2.1 1.609 4.005 2.298 7.193 2.33 10.718.016 2.01-.187 2.981-.861 4.037-1.171 1.84-2.91 2.512-6.016 2.342-4.032-.219-7.903-1.114-11.764-2.73-2.593-1.083-8.197-4.124-12.421-6.737a584 584 0 0 0-6.739-4.117l-1.935-1.16-1.942 1.353c-5.738 4-9.94 6.56-14.326 8.72-4.428 2.175-7.919 3.428-11.88 4.255h-.007c-2.706.565-5.192.555-6.662-.021-2.32-.906-3.856-2.747-4.252-5.094-.224-1.332-.083-4.398.28-6.131.492-2.299 1.86-6.066 2.406-6.594.277-.272.989-.672 8.887-5.002 6.812-3.733 9.384-5.192 9.384-5.31 0-.085-4.972-5.728-8.822-10.016l-1.76-1.957 2.262-2.996c4.21-5.572 11.64-14.666 11.988-14.666.171 0 8.193 8.101 12.407 12.527l1.578 1.653 5.578-5.397c5.914-5.71 9.661-9.277 9.933-9.437z"/></svg>