<svg xmlns="http://www.w3.org/2000/svg" viewBox="0 0 128 128"><path d="M7.195 50.15c-.056 0-.116.058-.148.12l-.21.94H5.495L6 54.429c0 .027.03.088.092.088h3.174v5.304H8.93c-.056 0-.117.031-.117.092l-.211 1.147H23.81l-.21-1.147c0-.06-.058-.092-.119-.092h-.35v-5.304h3.218q.09-.001.091-.088l.508-3.217h-1.375l-.06-.264h-.016l-.195-.677c-.03-.062-.056-.12-.149-.12zM9.8 54.516h3.197v4.814H9.8zm3.734 0h5.35v4.814h-5.349zm5.883 0H22.6v4.814h-3.184zm38.22 3.062c-5.317 0-9.173 3.953-9.173 8.79v.056c0 4.837 3.824 8.732 9.111 8.732 5.318 0 9.174-3.953 9.174-8.789v-.055c0-4.811-3.793-8.734-9.111-8.734zm20.735.268c-.237 0-.418.146-.51.353l-3.73 11.207-3.467-11.15a.54.54 0 0 0-.508-.379H67.26c-.36 0-.627.354-.51.678l5.53 16.068c.055.206.264.356.505.356h2.541a.55.55 0 0 0 .506-.356l3.766-10.764 3.767 10.764c.056.206.267.356.508.356h2.54c.235 0 .415-.15.507-.356l5.527-16.068c.056-.324-.179-.678-.537-.678h-2.842a.51.51 0 0 0-.507.38l-3.467 11.15-3.733-11.208a.52.52 0 0 0-.51-.353zm31.467 0a.53.53 0 0 0-.537.531v15.951c0 .294.239.531.537.531h2.717a.53.53 0 0 0 .539-.53v-4.923h2.988l3.523 5.217a.53.53 0 0 0 .454.236h3.132c.42 0 .689-.473.452-.822l-3.647-5.254c2.18-.792 3.678-2.533 3.678-5.273v-.06c0-3.51-2.451-5.604-6.488-5.604zm-75.211.031a.533.533 0 0 0-.54.53v2.39c0 .263.18.473.45.5h4.813v13.031a.53.53 0 0 0 .537.531h2.72a.533.533 0 0 0 .538-.53V61.294h4.808a.53.53 0 0 0 .447-.5v-2.389c-.056-.294-.265-.529-.562-.529zm60.062 0a.53.53 0 0 0-.539.53v15.921c0 .294.24.531.537.531h12.042a.53.53 0 0 0 .539-.53v-2.27a.533.533 0 0 0-.54-.532h-8.814v-3.566h7.59a.533.533 0 0 0 .537-.53v-2.27a.53.53 0 0 0-.537-.53h-7.59v-3.424h8.697a.533.533 0 0 0 .54-.53v-2.27a.533.533 0 0 0-.54-.53zm-37.115 3.154c3.047 0 5.233 2.417 5.233 5.336v.059c0 2.92-2.124 5.277-5.17 5.277-3.051 0-5.23-2.417-5.23-5.336v-.055c0-2.92 2.121-5.28 5.167-5.28zM6.54 61.09c-.062 0-.117.03-.117.088l-.479 2.654h-.959c-.118 0-.211.088-.236.207l-.514 2.06c0 .03.002.06.034.092L8.21 72.12a.26.26 0 0 0 .209.117h1.166v9.11c0 .18.154.299.303.299h.507v.822c0 .06.056.119.118.119h11.265c.056 0 .12-.058.12-.12v-.821h.599a.3.3 0 0 0 .299-.3v-9.109h1.277c.092 0 .154-.03.211-.117l3.945-5.928c-.03-.03-.03-.06-.03-.09h.001l-.508-2.062c-.025-.12-.118-.207-.236-.207h-.959l-.477-2.654c0-.06-.06-.088-.119-.088zm106.584.148h3.766c1.85 0 2.99.823 2.99 2.416v.063h-.031c0 1.444-1.047 2.385-2.899 2.385h-3.826z"/></svg>