<svg xmlns="http://www.w3.org/2000/svg" viewBox="0 0 128 128"><path d="M3.053 50.95A3.053 3.053 0 0 0 0 53.995v19.55a3.05 3.05 0 0 0 .89 2.169 3.05 3.05 0 0 0 2.163.896h19.58a3.05 3.05 0 0 0 2.16-.896 3.06 3.06 0 0 0 .889-2.166v-19.55a3.053 3.053 0 0 0-3.05-3.049zm85.838.001v20.27c0 3.892 2.16 5.537 5.595 5.537a7.7 7.7 0 0 0 2.11-.213v-4.563a6 6 0 0 1-.782.036c-.905 0-1.646-.399-1.646-1.522V50.951zm11.005 0v20.27c0 3.892 2.164 5.537 5.6 5.537a7.7 7.7 0 0 0 2.123-.213v-4.563a6 6 0 0 1-.777.036c-.922 0-1.668-.399-1.668-1.522V50.951zm-64.11 1.88v4.958h5.878v18.824h5.67V57.791h5.877v-4.96zM5.767 55.685h4.279a1.02 1.02 0 0 1 1.015 1.015l.014 12.735a1.02 1.02 0 0 1-.305.72 1.02 1.02 0 0 1-.724.295h-4.28a1.016 1.016 0 0 1-1.011-1.015V56.699c0-.56.452-1.011 1.012-1.013zm9.875 0h4.277c.56.003 1.014.455 1.014 1.015l.015 6.887c0 .27-.11.535-.303.724a1.02 1.02 0 0 1-.726.293h-4.277a1.023 1.023 0 0 1-1.018-1.017v-6.889a1.02 1.02 0 0 1 1.018-1.013zm61.431 2.023c-5.644 0-9.26 4.094-9.26 9.812 0 5.937 3.118 9.463 10.166 9.463a16.9 16.9 0 0 0 6.122-1.093v-4.436c-1.81.58-3.848 1.156-5.938 1.156-2.806 0-4.76-.922-5.236-3.588a44 44 0 0 0 4.42.258c4.015 0 7.404-1.075 7.404-4.963 0-3.772-3.485-6.609-7.678-6.609zm42.035.008c-5.669 0-8.96 3.914-8.96 9.633 0 5.68 3.328 9.7 8.96 9.7S128 73.08 128 67.35s-3.222-9.633-8.89-9.633zm-53.773.115c-2.514.023-3.975 1.473-4.908 3.814V58.1h-5.24v18.513h5.24v-9.7c0-2.967 1.719-3.873 5.422-3.585v-5.482a7 7 0 0 0-.514-.014zm11.63 3.916c1.487 0 2.679 1.01 2.679 2.389 0 1.773-1.87 2.328-4.026 2.328a18.4 18.4 0 0 1-2.74-.219 6.2 6.2 0 0 1 .728-2.467 3.88 3.88 0 0 1 3.36-2.02zm42.143.664c2.625 0 3.756 2.152 3.756 4.938s-1.102 4.994-3.756 4.994-3.822-2.21-3.822-4.994c0-2.79 1.198-4.938 3.822-4.938z"/></svg>