<svg xmlns="http://www.w3.org/2000/svg" viewBox="0 0 128 128"><path d="M94.145.348a8 8 0 0 0-.563.072 8 8 0 0 0-.928.027 8 8 0 0 0-.982.215 8 8 0 0 0-.553.072 8 8 0 0 0-.822.387 8 8 0 0 0-.486.229A8 8 0 0 0 88 2.668L45.486 49.674l-24.82-20.34-2.172-1.865a5.3 5.3 0 0 0-.826-.463 5 5 0 0 0-.535-.3 5 5 0 0 0-.604-.227 5 5 0 0 0-.644-.15 5 5 0 0 0-.504-.017 5 5 0 0 0-.51-.074 5 5 0 0 0-.266.06 5 5 0 0 0-.214-.003 5 5 0 0 0-.227.06 5 5 0 0 0-.484.006 3.4 3.4 0 0 0-.707.24l-9.694 4.067a5.3 5.3 0 0 0-1.466.95 5 5 0 0 0-.215.177 5 5 0 0 0-.23.312 5.3 5.3 0 0 0-.64.88 5 5 0 0 0-.267.476 5 5 0 0 0-.09.275 5.3 5.3 0 0 0-.232.908 5 5 0 0 0-.139.516v57.68a5 5 0 0 0 .139.512 5.3 5.3 0 0 0 .232.914 5 5 0 0 0 .09.271 5 5 0 0 0 .268.477 5.3 5.3 0 0 0 .638.879 5 5 0 0 0 .23.312 5 5 0 0 0 .216.178 5.3 5.3 0 0 0 1.466.949l9.694 4.066a5.3 5.3 0 0 0 1.716.37 5 5 0 0 0 .51-.01 5.3 5.3 0 0 0 1.272-.198 5 5 0 0 0 .51-.154 5.3 5.3 0 0 0 1.513-.873l2.172-1.867 24.82-20.34L88 125.334a8 8 0 0 0 1.902 1.387 8 8 0 0 0 .604.23l.006.002a8 8 0 0 0 1.342.516l.242.013a8 8 0 0 0 1.558.088 8 8 0 0 0 .99.014 8 8 0 0 0 2.45-.703l26.373-12.68a8 8 0 0 0 .572-.306l.17-.106a8 8 0 0 0 .383-.25l.181-.135a8 8 0 0 0 .33-.258 8 8 0 0 0 .204-.173 8 8 0 0 0 .277-.26 8 8 0 0 0 .19-.19 8 8 0 0 0 .283-.314l.144-.166a8 8 0 0 0 .266-.352l.142-.193a8 8 0 0 0 .33-.53l.09-.17a8 8 0 0 0 .2-.386 8 8 0 0 0 .113-.256 8 8 0 0 0 .152-.379l.076-.215a8 8 0 0 0 .116-.367 8 8 0 0 0 .082-.304 8 8 0 0 0 .072-.342 8 8 0 0 0 .053-.274 8 8 0 0 0 .056-.431l.022-.18.002-.023a8 8 0 0 0 .027-.653V21.016a8 8 0 0 0-.027-.655l-.018-.158a8 8 0 0 0-.066-.508l-.034-.17a8 8 0 0 0-.095-.443 8 8 0 0 0-.073-.268 8 8 0 0 0-.103-.33 8 8 0 0 0-.102-.295 8 8 0 0 0-.142-.345 8 8 0 0 0-.1-.233 8 8 0 0 0-.209-.404l-.103-.195a8 8 0 0 0-.332-.528l-.106-.14a8 8 0 0 0-.277-.37 8 8 0 0 0-.188-.216 8 8 0 0 0-.246-.274 8 8 0 0 0-.193-.193 8 8 0 0 0-.28-.262 8 8 0 0 0-.202-.174 8 8 0 0 0-.33-.257l-.182-.135a8 8 0 0 0-.383-.25l-.17-.106a8 8 0 0 0-.572-.306L97.094 1.119A8 8 0 0 0 94.75.416a8 8 0 0 0-.342.002 8 8 0 0 0-.263-.07zM96 36.908v54.186L62.947 64.002zM16 45.73l16.527 18.272L16 82.275z"/></svg>