<svg xmlns="http://www.w3.org/2000/svg" viewBox="0 0 128 128"><path d="M65.502 1.613C30.85.995 1.894 29.114 1.885 63.211c-.01 35.079 27.612 63.064 62.209 63.014 34.275-.052 62.021-27.935 62.021-62.327 0-33.833-27.618-61.696-60.613-62.285zm-1.51 3.018C96.9 4.62 123.12 31.355 123.11 64.91c-.01 31.678-26.924 58.18-59.091 58.187-32.771.007-59.126-26.565-59.125-59.61.002-32.193 26.765-58.846 59.1-58.857zm.264 5.945C46.07 10.57 28.458 19.72 19.729 34.922c5.66-.261 11.062-.604 16.47-.678 1.022-.013 2.717.851 2.957 1.652.538 1.793-.967 2.416-2.568 2.541-1.685.13-3.368.258-5.324.407 6.456 19.234 12.814 38.184 19.324 57.574.464-.759.654-.975.738-1.225 3.574-10.682 7.17-21.356 10.653-32.068.318-.977.158-2.271-.19-3.275-1.843-5.32-4.05-10.525-5.666-15.909-1.105-3.686-2.57-6.07-6.928-5.642-.742.073-1.647-1.525-2.478-2.35 1.005-.6 2.001-1.704 3.015-1.719a850 850 0 0 1 26.62.008c1.018.017 2.014 1.15 3.02 1.766-.88.804-1.64 2.01-2.669 2.32-1.65.498-3.48.404-5.457.58l19.35 57.56c2.93-9.735 5.656-18.677 8.308-27.64 2.366-8 .956-15.472-3.322-22.52-1.286-2.118-2.865-4.175-3.594-6.486-.828-2.629-1.517-5.62-1.078-8.257.745-4.47 4.175-6.689 8.815-7.114-10.316-9.573-23.027-13.866-35.47-13.87zm47.02 29.526c-.35 3.875-.105 8.187-1.217 12.115-2.617 9.255-5.819 18.348-8.9 27.467-3.35 9.912-6.832 19.779-10.257 29.666 16.092-9.54 24.935-23.618 26.344-42.123.802-10.534-2.833-25.12-5.97-27.125zm-95.739 2.337c-11.405 22.278-2.729 56.268 25.281 69.35zm49.399 25.883c-5.37 15.611-10.522 30.576-15.663 45.545-.118.345-.123.73-.216 1.303 10.943 3.034 21.674 2.814 32.658-.887z"/></svg>