<svg xmlns="http://www.w3.org/2000/svg" viewBox="0 0 128 128"><path d="M65.26 1.395C38.48.918 16.103 22.648 16.096 49c-.01 27.109 21.338 48.737 48.076 48.697 26.49-.039 47.933-21.586 47.932-48.166 0-26.147-21.344-47.681-46.844-48.136zm-1.166 2.332c25.432-.008 45.695 20.654 45.687 46.587-.008 24.482-20.809 44.964-45.668 44.97-25.327.004-45.694-20.531-45.693-46.07 0-24.88 20.685-45.48 45.674-45.487zm.205 4.595C50.244 8.317 36.632 15.39 29.885 27.14c4.374-.203 8.55-.47 12.728-.526.791-.01 2.101.658 2.287 1.278.416 1.385-.748 1.868-1.986 1.963-1.3.102-2.604.199-4.115.314l14.935 44.494c.36-.587.508-.752.573-.945 2.762-8.255 5.538-16.504 8.23-24.783.246-.755.126-1.756-.144-2.532-1.424-4.11-3.13-8.134-4.38-12.295-.854-2.849-1.989-4.69-5.355-4.36-.574.055-1.273-1.18-1.916-1.817.777-.463 1.548-1.316 2.332-1.328a659 659 0 0 1 20.572.005c.785.013 1.558.89 2.336 1.366-.68.622-1.267 1.553-2.062 1.793-1.276.385-2.692.313-4.219.449l14.953 44.482c2.266-7.524 4.373-14.433 6.422-21.36 1.83-6.183.74-11.957-2.566-17.403-.994-1.638-2.218-3.226-2.78-5.012-.64-2.032-1.172-4.346-.832-6.383.575-3.454 3.226-5.168 6.813-5.496-7.973-7.399-17.796-10.717-27.412-10.72zm36.338 22.819c-.27 2.994-.083 6.328-.942 9.363-2.022 7.152-4.495 14.18-6.877 21.228-2.589 7.66-5.28 15.285-7.927 22.926 12.437-7.373 19.271-18.253 20.359-32.554.619-8.141-2.187-19.413-4.613-20.963zm-73.99 1.806c-8.815 17.217-2.11 43.486 19.537 53.596zm38.175 20.004c-4.15 12.064-8.131 23.63-12.103 35.197-.092.267-.097.564-.168 1.008 8.458 2.344 16.751 2.175 25.24-.685zM22.88 110.713c-1.514.02-3.004.221-3.342.596.391.104.716.234 1.05.273 1.018.114 1.369.746 1.099 1.62-.778 2.52-1.638 5.015-2.565 7.827-.21-.539-.303-.75-.375-.968-.904-2.728-1.79-5.46-2.72-8.178-.143-.415-.481-.763-.73-1.14-.25.365-.596.698-.737 1.103-1.025 2.937-2.008 5.887-3.004 8.834l-.268.03c-.735-2.228-1.48-4.453-2.203-6.687-.573-1.766-.44-1.976 1.379-2.525.189-.059.339-.241.508-.367-.156-.132-.313-.378-.471-.38a316 316 0 0 0-6.818 0c-.16.003-.319.246-.477.376.126.121.249.344.38.35 2.023.098 2.518 1.627 3.013 3.166 1.154 3.584 2.306 7.17 3.474 10.752.136.417.363.806.547 1.207l.354-.024 3.62-10.787 3.579 10.82.422-.029c.15-.388.318-.771.45-1.166 1.279-3.804 2.561-7.604 3.82-11.414.47-1.425 1.232-2.458 2.882-2.522.193-.007.382-.167.62-.279-.436-.347-1.973-.508-3.487-.488zm43.193.047c-.152-.003-.309.249-.588.49.38.125.59.247.805.256 1.422.058 2.056.897 2.072 2.207.037 3.08.04 6.161-.004 9.242-.019 1.271-.566 2.18-2.029 2.234-.225.01-.438.308-.656.473.262.117.521.333.785.336q3.286.04 6.574-.002c.251-.003.5-.237.75-.363-.229-.154-.445-.422-.685-.442-1.061-.09-1.811-.536-1.924-1.65-.135-1.317-.182-2.645-.274-4.098 1.048 0 1.942.068 2.823-.013 2.088-.19 3.933-.876 4.681-3.065.835-2.44-.697-5.038-3.466-5.36-2.925-.34-5.907-.201-8.864-.245zm5.864 1.293c1.083-.033 2.505.001 3.3 1.17.765 1.128.766 2.374.118 3.566-.646 1.19-1.354 1.444-4.354 1.166v-5.887c.25.015.574-.004.936-.015zm52.062 1.482c-1 .45-.986.71-1.07.783-1.367-.173-2.56-.453-3.655-.42-1.475.043-2.71 1.069-3.043 2.28-.372 1.355.103 2.692 1.36 3.619.355.26.746.46 1.14.664.9.46 1.825.87 2.704 1.37.8.454 1.538 1.057 1.216 2.124-.355 1.166-1.356 1.293-2.38 1.188-1.795-.185-2.802-1.286-3.325-2.942-.079-.25-.348-.44-.527-.658-.115.141-.327.279-.33.422-.023 1.477-.016 2.954-.016 4.431l.38.116.857-1.125c.56.267 1.121.603 1.728.81 2.2.742 4.652-.253 5.461-2.174.799-1.893-.041-3.545-2.398-4.738-1.083-.547-2.206-1.039-3.215-1.703-.386-.254-.78-.997-.67-1.373.134-.461.733-.96 1.232-1.11 1.454-.435 2.729.463 3.319 2.118.117.329.584.595.795.89.086-.064.437-.13.437-.195zm-11.25.145-1.076.886c-.201-.104-.444-.242-.701-.353-2.1-.904-4.609-.183-5.428 1.555-.822 1.747.144 3.597 2.441 4.718a48 48 0 0 1 3.01 1.573c.73.42 1.249 1.182.815 1.923-.322.552-1.125 1.046-1.774 1.14-1.552.225-2.903-.701-3.572-2.184-.147-.329-.188-.712-.356-1.026-.09-.169-.353-.244-.537-.361-.096.156-.27.311-.271.47a118 118 0 0 0-.002 3.897c.003.162.139.415.266.455.133.042.387-.079.49-.207.17-.214.261-.49.427-.82.63.307 1.152.626 1.72.826 2.17.77 4.704-.2 5.517-2.076.832-1.927-.018-3.614-2.436-4.826-.978-.491-1.963-.965-2.926-1.483-.687-.367-1.336-.973-.886-1.728.307-.514 1.101-.944 1.726-1.02 1.33-.162 2.237.689 2.81 2.22.116.307.409.544.62.813l.316-.21c0-1.217.002-2.432-.005-3.647-.001-.11-.074-.218-.188-.535zm-81.916.105c-1.763.034-3.518.653-4.84 1.838-2.452 2.198-2.764 5.65-.71 8.191 1.445 1.791 3.397 2.545 5.794 2.649.422-.052.997-.063 1.541-.201 2.618-.664 4.546-2.128 5.22-4.858.599-2.42-.272-4.394-2.11-5.953-1.358-1.15-3.132-1.7-4.895-1.666zm68.668.363c-3.19-.081-7.148.122-7.678.512.22.13.397.327.582.33 1.356.02 1.711.858 1.717 2.014.006 1.948.055 3.896.014 5.844-.05 2.319-1.377 3.078-3.319 1.748-1.374-.94-2.506-2.234-3.49-3.135 1.037-1.035 2.217-1.766 2.727-2.818.932-1.928-.621-4.021-3.133-4.256-2.296-.214-4.62-.138-6.932-.16-.225-.002-.451.209-.677.322.19.154.379.435.576.441 1.368.048 1.673.938 1.69 2.059q.034 2.435.036 4.869c.003 2.602-.002 2.602-2.246 3.508l-.156.303c.31.103.586.27.865.275q2.74.037 5.48 0c.273-.005.542-.199.813-.305-.264-.175-.514-.468-.793-.5-.949-.107-1.362-.675-1.418-1.533-.055-.82-.012-1.648-.012-2.803.486.454.788.68 1.02.963.926 1.13 1.869 2.25 2.727 3.432.436.6.918.78 1.632.773 4.141-.03 8.297-.013 12.44-.02.307 0 1.035-.05 1.035-.085v-3.096c-1 .628-1.389 1.543-2.229 1.799-.986.303-2.354.395-3.197-.068-1.653-.908-.585-2.675-.894-4.057 2.114-.19 2.108-.19 2.841 1.582.06.146.261.23.397.346.121-.214.343-.425.348-.641.03-1.38.025-2.76 0-4.14-.004-.186-.191-.367-.391-.725-.345.77-.343 1.566-.793 1.886-.537.383-2.082.358-2.082.538v-4.065c1 .07 2.132.186 3.217.19 1.418.005 1.276 1.486 1.963 2.203l.302-.135-.205-3.215c-.737-.094-1.714-.152-2.777-.18zm-60.43.073c-.18-.003-.364.207-.547.318.183.157.36.445.547.453 1.356.052 1.685.893 1.68 2.045a641 641 0 0 0-.004 6.201c.006 1.124-.375 1.886-1.627 1.99-.209.019-.397.267-.596.409.245.127.489.359.737.363q2.797.046 5.595-.002c.238-.003.473-.256.708-.393l-.626-.4c-.48-.306-1.266-.526-1.38-.935-.27-.966-.22-2.02-.3-3.038l.448-.146c.287.32.589.627.858.96.891 1.105 1.753 2.232 2.667 3.317.238.282.629.625.946.623 3.97-.028 7.951.025 11.908-.244 2.264-.154 4.025-1.46 4.76-3.771 1.205-3.791-1.092-7.222-5.215-7.588-2.417-.216-4.86-.143-7.291-.162-.237-.001-.479.26-.717.398.21.135.416.379.631.389 1.14.056 1.578.73 1.588 1.754.02 2.23.048 4.461-.012 6.69-.038 1.38-.792 1.98-2.185 1.741-.696-.12-1.456-.38-1.99-.816-1.207-.982-2.291-2.114-3.516-3.272l.728-.273c1.902-.723 2.745-1.846 2.606-3.484-.126-1.494-1.363-2.79-3.235-2.95-2.377-.2-4.776-.147-7.166-.177zm-8.095.771c1.977.004 3.32.98 3.962 2.95.224.685.311 1.415.46 2.124l.222.147c-.536 1.233-.848 2.64-1.65 3.662-1.72 2.194-5.234 1.73-6.55-.736-.881-1.653-.956-3.408-.384-5.18.645-1.992 1.97-2.97 3.94-2.967zm12.855.326c.889-.06 1.883.035 2.358.842.416.708.395 1.915.093 2.692-.54 1.386-2.281 1.106-3.281 1.074v-4.518c.25-.034.534-.07.83-.09zm13.996.01c1.428.01 2.749.254 3.631 1.639 1.191 1.872 1.084 3.949.203 5.922-.658 1.474-3.012 2.422-4.469 1.841-.37-.147-.77-.77-.78-1.185-.07-2.695-.036-5.397-.036-8.182.488-.015.975-.038 1.451-.035zm26.9.049c1.633-.021 2.805.69 2.858 2.176.062 1.76-.584 2.468-3.584 2.363v-4.484a6 6 0 0 1 .727-.055z"/></svg>