<svg xmlns="http://www.w3.org/2000/svg" viewBox="0 0 128 128"><path d="M81.6 5.5c-4.4 0-7.5.8-9.5 1.6s-2.9 1.4-2.9 2.2c0 .3 1.2.6 1.8.6 17.1.5 18.9 8.4 19.6 15.5.1 1.6-1.9 6.8-2.2 7.4-2.2 4.3-7.9 14.8-10.3 19.3-.7 1.2-1.8 2.4-1.9 2.6-.4.7-31.1 53.3-31.7 54.8-.3.8-.7 2.5-.7 3.1.1 4.1 6.7 7.9 10.7 7.9 2 0 3.6-.7 4.4-2.2 2.2-4.5 26.7-55.5 27.5-57.3.4-.9.8-3.1 1-3.6 2.7-5.7 9.9-20.8 12.6-23.9 2.3-2.8 5.2-5.2 8-5.2 2.1 0 4 1.8 5.1 3.3.6.8.8 1.9.8 1.9s5.5 3 5.7 3.1c.4.2 2.1-2.6 3.9-6.3 1.7-3.6 2.9-6.6 2.6-6.9 0-.1-5.3-2.8-5.3-2.8h-.2c-1.9.3-4.3.6-6.1-.7-2.6-1.9-3-4.8-6.3-6.6-5.3-2.8-13.7-7.8-26.6-7.8zm-45.8 8.3c-12.1 0-21.9 9.8-21.9 21.9v56.7c0 12.1 9.8 21.9 21.9 21.9h5.1c-.2-.6-.4-1.1-.4-1.7 0-1 .4-2.6.8-3.7h-3.8c-10.1 0-18.3-8.2-18.3-18.3V37.5c0-10.1 8.2-18.3 18.3-18.3h48.2c-1.5-3-4.7-5.2-12.3-5.4zm2.4 7.7c-9.2 0-16.6 7.4-16.6 16.6v51.7c0 9.2 7.5 16.6 16.6 16.4h4.2c2.2-3.9 8.5-14.8 14.9-25.8H32.8c-2.5 0-4.6-2-4.6-4.6a4.59 4.59 0 0 1 4.6-4.6h29.9c1.9-3.1 3.6-6.1 5.1-8.7l-2.2-3.8 5.3-9.3 2.2 3.8c.1-.2.2-.3.2-.3.1-.2 1.6-2 2.2-3.2 2.5-4.4 7.1-13.1 9.3-17.5.3-.6 2.6-5.7 2.4-7.3-.1-1.2-.3-2.3-.6-3.4zM108 31.8c.6 1.8.9 3.6.9 5.6v53.1c0 10.1-8.2 18.3-18.3 18.3H67.3c-1 2.1-1.9 3.9-2.6 5.3h27.6c12.1 0 21.9-9.8 21.9-21.9V37.4c-1.3-.6-2.7-1.4-3.2-2.4-.5-1.1-1.6-3.2-2.9-3.2zm-38.117.087a4.46 4.46 0 0 1 2.617.613c2.2 1.3 3 4.1 1.7 6.3l-17.3 30H46.2l20-34.6a4.7 4.7 0 0 1 3.683-2.313zm-11.465.1A4.7 4.7 0 0 1 62.1 34.3l.6 1.1-5.3 9.298-3.3-5.799c-1.3-2.2-.5-5 1.7-6.3a4.46 4.46 0 0 1 2.618-.614zm47.082.814c-.6.4-1.2 1.098-2.1 1.898-2.7 2.6-9.2 16.6-12.2 22.4-1.1 2.3-1.5 4.7-2.4 6.6-.2.5-1.9 4.101-4.4 9.301l8.9 15.4c1.3 2.2.5 5-1.7 6.3s-5 .5-6.3-1.7l-5.7-9.8c-3.7 7.7-7.8 16.4-11.1 23.2h21.4c9.1 0 16.5-7.4 16.5-16.6V38.1c0-1.9-.3-3.6-.9-5.3zM86.3 71.3h8.9c2.6 0 4.6 2.099 4.6 4.699 0 2.5-2 4.6-4.6 4.6h-3.6zM38.1 83h10.7l-5.7 9.9c-1.3 2.2-4.2 3-6.4 1.7s-3-4.1-1.7-6.3z"/></svg>