<svg xmlns="http://www.w3.org/2000/svg" viewBox="0 0 128 128"><path d="M1.227 55.416c-.426 0-.643 0-.811.084a.8.8 0 0 0-.334.332c-.083.168-.082.38-.082.81v1.075c0 1.207 0 1.805.186 2.33a3.3 3.3 0 0 0 .79 1.234c.403.393.946.648 2.034 1.158l1.511.707c.58.27.867.408 1.102.368a.77.77 0 0 0 .506-.325c.133-.197.133-.52.133-1.158v-5.388c0-.432 0-.648-.084-.811a.77.77 0 0 0-.332-.332c-.168-.084-.38-.084-.81-.084zm12.529 0c-.431 0-.649 0-.817.084a.8.8 0 0 0-.332.332c-.083.168-.084.38-.084.81v7.317l3.256-1.516c1.09-.51 1.64-.765 2.037-1.158a3.3 3.3 0 0 0 .788-1.234c.188-.53.189-1.133.189-2.334v-1.074c0-.432-.002-.648-.086-.811a.77.77 0 0 0-.334-.332c-.166-.084-.377-.084-.807-.084zm-1.233 8.543-3.25 1.516c-1.089.505-1.638.76-2.035 1.152a3.3 3.3 0 0 0-.789 1.236c-.186.53-.185 1.133-.185 2.334v1.078c0 .431 0 .649.084.81a.8.8 0 0 0 .332.333c.166.083.378.084.808.084h3.81c.432 0 .647-.001.81-.084a.8.8 0 0 0 .333-.332c.083-.167.082-.379.082-.81zm92.606-8.543v13.168h4.266c3.668 0 6.763-2.191 6.763-6.58.005-4.394-3.095-6.586-6.763-6.586v-.002zm12.98 0v13.168h5.29c2.766 0 4.601-1.441 4.601-3.908 0-1.745-1.02-2.826-2.256-3.278.815-.42 1.594-1.352 1.594-2.613 0-2.162-1.71-3.369-4.12-3.369zm-51.123.006v13.162h2.315v-1.172c.54.813 1.593 1.324 2.736 1.324 2.853 0 4.541-1.982 4.541-4.9-.004-2.922-1.687-4.904-4.482-4.904-1.231 0-2.255.54-2.795 1.324v-4.834zm21.342.805v2.851h-1.863v1.953h1.863v4.239c0 2.104 1.353 3.304 3.428 3.304h1.506v-1.953h-1.26c-.844 0-1.356-.478-1.356-1.44v-4.15h2.61v-1.947h-2.613v-2.857zm4.928 4.804v.004l.002-.004zm27.314-3.633h2.438c1.354 0 2.015.567 2.015 1.592s-.662 1.567-1.986 1.567h-2.467zm-12.945.153h1.594c2.256 0 4.418 1.169 4.418 4.447 0 3.276-2.167 4.418-4.418 4.418h-1.594zm-46.803 1.38c-2.466 0-4.054 1.473-4.177 3.372h2.074c.029-.844.78-1.623 2.015-1.623 1.23 0 1.92.66 1.92 1.591 0 .363-.21.633-.69.633H60.22c-2.133 0-3.574 1.144-3.574 3.006 0 1.624 1.289 2.826 3.152 2.826 1.383 0 2.461-.632 2.853-1.564v1.41h2.286v-6.1c.005-2.138-1.707-3.548-4.114-3.548zm-11.15.007c-2.825 0-4.479 2.015-4.479 4.898s1.651 4.9 4.506 4.9c1.383 0 2.288-.48 2.768-1.2v.15c0 1.776-.572 2.976-2.434 2.976-1.172 0-1.774-.48-2.162-1.41h-2.314c.51 2.313 2.074 3.332 4.476 3.332 3.007 0 4.63-1.803 4.63-4.898l.089-8.596-2.316-.006v1.084c-.54-.72-1.563-1.23-2.764-1.23zm49.023 0c-3.188 0-4.66 2.373-4.66 4.869s1.744 4.93 4.842 4.93c2.344 0 4.119-1.291 4.477-3.307h-2.25l-.002-.004c-.24.903-1.02 1.383-2.225 1.383-1.441 0-2.438-.962-2.615-2.493h7.004q.059-.39.058-.779c0-2.285-1.44-4.6-4.629-4.6zm-67.572.14v.006l-2.19 6.523-2.193-6.523h-2.344l3.458 9.498-1.325 3.846h2.192l1.472-4.3 3.305-9.05zm52.453 0v.006l-2.162 6.523-2.223-6.523h-2.343l3.457 9.498-1.325 3.846h2.194l1.47-4.3 3.305-9.05zm-48.87.006v5.89c0 2.223 1.322 3.756 3.515 3.756 1.353 0 2.432-.569 2.976-1.623v1.471h2.315v-9.494h-2.315v5.2c0 1.382-.93 2.402-2.226 2.402-1.294 0-1.983-.902-1.983-2.194v-5.408zm63.99 1.596c1.381 0 2.192.9 2.314 2.103h-4.69c.24-1.413 1.085-2.103 2.375-2.103zm-48.663.27c1.536 0 2.584 1.138 2.584 2.88s-1.019 2.918-2.584 2.918c-1.535 0-2.554-1.17-2.554-2.918 0-1.745 1.02-2.88 2.554-2.88zm21.67 0c1.535 0 2.557 1.138 2.557 2.88 0 1.746-1.022 2.918-2.557 2.918s-2.555-1.17-2.555-2.918c0-1.745 1.02-2.88 2.555-2.88zm48.871 1.71h2.557c1.68 0 2.496.69 2.496 1.893 0 1.207-.815 1.865-2.496 1.865v-.002h-2.557zm-60.05 1.776h2.13l.002.152c0 1.41-.838 2.432-2.285 2.432-.872 0-1.47-.48-1.47-1.23 0-.81.661-1.354 1.622-1.354z"/></svg>