<svg xmlns="http://www.w3.org/2000/svg" viewBox="0 0 32 32"><path d="M16 4C9.383 4 4 9.383 4 16s5.383 12 12 12 12-5.383 12-12S22.617 4 16 4zm0 2c5.535 0 10 4.465 10 10s-4.465 10-10 10S6 21.535 6 16 10.465 6 16 6zm-5.312 6A2.35 2.35 0 0 0 10 13.656 2.346 2.346 0 0 0 12.344 16c.644 0 1.234-.262 1.656-.687zm10.625 0L18 15.313a2.33 2.33 0 0 0 1.656.687A2.346 2.346 0 0 0 22 13.656c0-.644-.262-1.234-.687-1.656zm-2.75 5.844a4 4 0 0 0-.438.031c-1.121.168-1.969.781-2.719 1.281s-1.41.89-1.906.969-.941 0-1.781-.844L10.28 20.72c1.133 1.14 2.422 1.55 3.531 1.375 1.11-.176 1.942-.785 2.688-1.282.746-.496 1.387-.859 1.906-.937.52-.078 1.032-.012 1.907.844l1.375-1.438c-1.024-1-2.114-1.453-3.125-1.437z"/></svg>