<svg xmlns="http://www.w3.org/2000/svg" viewBox="0 0 32 32"><path d="M10.438 5c-2.82 0-5.094 2.25-5.094 2.25L5 7.563V15h1.438l.28-.219c.184-.144.766-.61 1.5-1.031.735-.422 1.606-.75 2.22-.75.84 0 1.546.215 2.406.469S14.714 14 16 14c1.285 0 2.258-.281 3.094-.531S20.633 13 21.562 13c.739 0 1.626.352 2.344.781.719.43 1.211.856 1.344.969l.281.25H27V7.563l-.344-.313S24.383 5 21.563 5c-1.262 0-2.231.281-3.063.531S16.96 6 16 6s-1.668-.219-2.5-.469S11.7 5 10.438 5zm0 2c.96 0 1.667.219 2.5.469.832.25 1.8.531 3.062.531s2.23-.281 3.063-.531c.832-.25 1.539-.469 2.5-.469C22.96 7 24.535 8.145 25 8.5v.656c-.059-.035-.094-.058-.156-.094C23.964 8.54 22.8 8 21.562 8c-1.16 0-2.042.281-2.875.531C17.856 8.781 17.063 9 16 9s-1.898-.219-2.75-.469S11.527 8 10.438 8c-1.172 0-2.32.543-3.22 1.063-.093.054-.132.101-.218.156V8.5C7.465 8.145 9.04 7 10.438 7zm0 2c.921 0 1.675.219 2.53.469.856.25 1.821.531 3.032.531 1.21 0 2.133-.281 2.969-.531S20.555 9 21.562 9c.93 0 1.981.46 2.782.938.27.16.46.296.656.437v1.719c-.031-.02-.031-.012-.062-.031C24.05 11.535 22.89 11 21.563 11c-1.239 0-2.2.281-3.032.531S16.992 12 16 12s-1.746-.223-2.594-.469S11.61 11 10.437 11c-1.234 0-2.332.523-3.218 1.031-.114.067-.114.09-.219.156v-1.78c.219-.145.422-.298.719-.47C8.543 9.458 9.598 9 10.437 9zm0 8c-2.82 0-5.094 2.25-5.094 2.25L5 19.563V27h1.438l.28-.219c.184-.144.766-.61 1.5-1.031.735-.422 1.606-.75 2.22-.75.84 0 1.546.215 2.406.469S14.714 26 16 26c1.285 0 2.258-.281 3.094-.531S20.633 25 21.562 25c.739 0 1.626.352 2.344.781.719.43 1.211.856 1.344.969l.281.25H27v-7.437l-.344-.313S24.383 17 21.563 17c-1.262 0-2.231.281-3.063.531S16.96 18 16 18s-1.668-.219-2.5-.469S11.7 17 10.438 17zm0 2c.96 0 1.667.219 2.5.469.832.25 1.8.531 3.062.531s2.23-.281 3.063-.531c.832-.25 1.539-.469 2.5-.469 1.398 0 2.972 1.145 3.437 1.5v1.656c-.059-.035-.094-.058-.156-.093C23.964 21.539 22.8 21 21.562 21c-1.16 0-2.042.281-2.875.531-.832.25-1.625.469-2.687.469s-1.898-.219-2.75-.469S11.527 21 10.438 21c-1.172 0-2.32.543-3.22 1.063-.093.054-.132.101-.218.156V20.5c.465-.355 2.04-1.5 3.438-1.5zm0 3c.921 0 1.675.219 2.53.469.856.25 1.821.531 3.032.531 1.21 0 2.133-.281 2.969-.531S20.555 22 21.562 22c.93 0 1.981.46 2.782.938.27.16.46.296.656.437v.719c-.031-.02-.031-.012-.062-.032C24.05 23.536 22.89 23 21.563 23c-1.239 0-2.2.281-3.032.531S16.992 24 16 24s-1.746-.223-2.594-.469S11.61 23 10.437 23c-1.234 0-2.332.523-3.218 1.031-.114.067-.114.09-.219.157v-.782c.219-.144.422-.297.719-.468.824-.481 1.879-.938 2.718-.938z"/></svg>