<svg xmlns="http://www.w3.org/2000/svg" viewBox="0 0 32 32"><path d="M13.594 4.406C10.894 5.305 9 7.7 9 10.5c0 1 .29 2.008.688 2.906-1 0-1.977.282-2.876.781-2.398 1.399-3.601 4.227-3 7.126l2-.407c-.398-2 .399-4 2-5 2.102-1.199 4.977-.304 6.376 2.094.699 1.2.925 2.512.624 3.813-.3 1.199-1 2.18-2 2.78-1.601.9-3.812.618-5.312-.78l-1.312 1.5c1.3 1.199 3.023 1.78 4.625 1.78 1.101 0 2.093-.28 3.093-.78.899-.5 1.594-1.227 2.094-2.125.5.898 1.195 1.625 2.094 2.125s1.992.78 3.093.78c1.602 0 3.325-.581 4.625-1.78l-1.312-1.5c-1.5 1.398-3.71 1.68-5.312.78-1-.6-1.7-1.581-2-2.78-.301-1.301-.075-2.614.625-3.813 1.398-2.398 4.175-3.293 6.375-2.094 1.601.899 2.398 2.899 2 5l2 .407c.5-2.899-.696-5.727-3.094-7.125-.899-.5-1.907-.782-2.907-.782.5-.898.72-1.804.72-2.906 0-2.8-1.919-5.195-4.72-6.094l-.593 1.907c2 .601 3.312 2.289 3.312 4.187 0 2.5-2.199 4.5-5 4.5-2.8 0-5-2-5-4.5 0-1.898 1.282-3.586 3.281-4.187zM16 10c-1.102 0-2.102.188-3 .688.102.699.398 1.32 1 1.718.602-.3 1.305-.406 1.906-.406.602 0 1.305.105 1.906.406.602-.398 1-1.02 1-1.719-.699-.5-1.71-.687-2.812-.687zm0 6c.602 0 1 .398 1 1s-.398 1-1 1-1-.398-1-1 .398-1 1-1zm-6.281 1.31A1.9 1.9 0 0 0 9 17.5a7.17 7.17 0 0 0 3 5.188c.5-.301.805-.774.906-1.375v-.407c-1-.8-1.707-1.914-1.906-3.312-.352-.149-.695-.258-1.031-.282a2 2 0 0 0-.25-.001zm12.375.096c-.399 0-.793.082-1.094.282A5.03 5.03 0 0 1 19 21v.406c.102.602.508 1.106.906 1.407 1.801-1.2 2.895-3.118 3.094-5.22-.3-.1-.605-.187-.906-.187z"/></svg>