<svg xmlns="http://www.w3.org/2000/svg" viewBox="0 0 32 32"><path d="M16 4.21C7.72 4.21 1 9.49 1 16s6.72 11.79 15 11.79S31 22.51 31 16 24.28 4.21 16 4.21zM8.84 8h6.51c3.15 0 4.24 1.48 3.89 3.76-.01.08-.06.26-.1.42-.35-.11-.72-.18-1.11-.18-2.21 0-4 1.79-4 4 0 2.03 1.52 3.69 3.48 3.95-.01 0-.01.01-.01.02-.94 1.79-2.8 3-5.75 3.03 0 0-6.74.01-6.75 0zm12.51 0H26l-2.79 11H28l-1 4h-9.39l.75-3.03A3.98 3.98 0 0 0 22.03 16c0-1.41-.73-2.65-1.84-3.36zm-9.36 3-.65 2.76h1.19c1.01 0 1.98-.79 2.18-1.69.22-.99-.47-1.07-1.53-1.07zm4.44 2.42h1.64l.78 1.99.5-1.99h1.68l-1.16 4.9h-1.86l-.58-1.94-.41 1.94h-1.99zm-5.82 3.32L9.84 20h1.38c.9 0 1.79-.18 2.12-1.54.31-1.29-.45-1.72-1.35-1.72z"/></svg>