<svg xmlns="http://www.w3.org/2000/svg" viewBox="0 0 32 32"><path d="M4 7c-.55 0-1 .45-1 1s.45 1 1 1h2.219l2.625 10.5c.222.89 1.02 1.5 1.937 1.5H23.25c.902 0 1.668-.598 1.906-1.469L27.75 10h-2.094l-2.406 9H10.781L8.156 8.5A1.98 1.98 0 0 0 6.22 7zm18 14c-1.645 0-3 1.355-3 3s1.355 3 3 3 3-1.355 3-3-1.355-3-3-3zm-9 0c-1.645 0-3 1.355-3 3s1.355 3 3 3 3-1.355 3-3-1.355-3-3-3zm3-14v3h-3v2h3v3h2v-3h3v-2h-3V7zm-3 16c.562 0 1 .438 1 1s-.438 1-1 1-1-.438-1-1 .438-1 1-1zm9 0c.562 0 1 .438 1 1s-.438 1-1 1-1-.438-1-1 .438-1 1-1z"/></svg>