<svg xmlns="http://www.w3.org/2000/svg" viewBox="0 0 32 32"><path d="M5 6C3.355 6 2 7.355 2 9v14c0 1.645 1.355 3 3 3h22c1.645 0 3-1.355 3-3V9c0-1.645-1.355-3-3-3zm0 2h22c.566 0 1 .434 1 1v14c0 .566-.434 1-1 1H5c-.566 0-1-.434-1-1V9c0-.566.434-1 1-1zm10 2c-3.3 0-6 2.7-6 6s2.7 6 6 6h2c3.312 0 6-2.688 6-6s-2.688-6-6-6zm0 2c2.223 0 4 1.777 4 4s-1.777 4-4 4-4-1.777-4-4 1.777-4 4-4zm-.812 1.656C13.215 14 12.5 14.91 12.5 16s.715 2 1.688 2.344zm1.624 0v4.688C16.786 18 17.5 17.09 17.5 16s-.715-2-1.687-2.344z"/></svg>