<svg xmlns="http://www.w3.org/2000/svg" viewBox="0 0 32 32"><path d="M7 6v3.094a5 5 0 0 0-1.75.75L3.063 7.625 1.625 9.063l2.219 2.187a5 5 0 0 0-.75 1.75H0v2h3.094c.133.637.398 1.227.75 1.75l-2.219 2.188 1.438 1.437 2.187-2.219q.451.3.969.5C6.098 19.086 6 19.536 6 20c0 2.758 2.242 5 5 5h1.156c.18-.629.504-1.316.875-2H11c-1.652 0-3-1.348-3-3s1.348-3 3-3h1v-1c0-1.102.895-1.996 1.906-2l1 .063.188-.844C15.469 11.359 17.102 10 19 10c1.605 0 3.055.96 3.688 2.438l.28.687.907-.094c.043-.008.078-.031.125-.031 1.652 0 2.996 1.352 3 2.938l-.031.968.781.188A2.996 2.996 0 0 1 30 20c0 1.652-1.348 3-3 3h-1c0 .73-.219 1.41-.562 2H27c2.758 0 5-2.242 5-5a4.99 4.99 0 0 0-3.031-4.594c-.282-2.418-2.313-4.308-4.782-4.406A5.97 5.97 0 0 0 19 8a6.04 6.04 0 0 0-5.687 4.063 3.7 3.7 0 0 0-.657.156 5 5 0 0 0-.5-.969l2.219-2.187-1.437-1.438-2.188 2.219A5 5 0 0 0 9 9.094V6zm1 5a2.99 2.99 0 0 1 2.938 2.438 4.1 4.1 0 0 0-.844 1.656 4.9 4.9 0 0 0-2.969 1.781A2.99 2.99 0 0 1 5 14c0-1.668 1.332-3 3-3zm14 8s-2 2.895-2 4 .895 2 2 2c.137 0 .277-.004.406-.031A2.01 2.01 0 0 0 24 23c0-1.105-2-4-2-4zm-6 3s-.285.453-.625 1c-.125.2-.242.363-.375.594-.18.312-.344.617-.5.937-.078.16-.156.317-.219.469-.164.387-.281.746-.281 1a1.999 1.999 0 1 0 4 0c0-.254-.117-.613-.281-1-.016-.031-.016-.059-.032-.094-.054-.12-.125-.25-.187-.375A18 18 0 0 0 16.625 23c-.34-.547-.625-1-.625-1z"/></svg>