<svg xmlns="http://www.w3.org/2000/svg" viewBox="0 0 32 32"><path d="M19.65 4.004a8.33 8.33 0 0 0-5.906 2.441c-1.568 1.568-3.41 5.955-5.473 13.04L6.676 21.08a3 3 0 0 0-.678-.08c-1.654 0-3 1.346-3 3 0 1.351.9 2.497 2.13 2.871A3 3 0 0 0 7.999 29a3.003 3.003 0 0 0 3-3q0-.344-.08-.678l1.596-1.593c1.767-.514 4.267-1.285 6.601-2.149l1.153-.428-.65-1.04A4 4 0 0 1 19 18c0-2.206 1.794-4 4-4 1.108 0 2.143.454 2.914 1.28l1.162 1.245.522-1.625a8.32 8.32 0 0 0-2.043-8.455 8.32 8.32 0 0 0-5.905-2.441zm-.002 2c1.627 0 3.252.617 4.49 1.855a6.32 6.32 0 0 1 1.842 4.94A5.9 5.9 0 0 0 23 12c-3.309 0-6 2.691-6 6 0 .709.13 1.413.38 2.08a99 99 0 0 1-4.468 1.438l-2.432-2.432c1.782-5.943 3.47-10.02 4.676-11.227a6.34 6.34 0 0 1 4.492-1.855zM9.574 21.008l1.416 1.416-2.46 2.46.345.653q.123.232.123.463a1.001 1.001 0 0 1-2 0v-1h-1a1.001 1.001 0 0 1 0-2 1 1 0 0 1 .463.123l.652.348z"/></svg>