<svg xmlns="http://www.w3.org/2000/svg" viewBox="0 0 32 32"><path d="M16.191 5c-2.722 0-4.75.945-6.23 2.074-3.727 2.844-4.113 7.696-4.113 7.696s1.496-2.313 4.113-3.942c1.582-.984 3.836-1.625 5.672-1.625 4.87 0 4.414 4.664 4.414 4.664h-7.805s.11-.926.5-1.847c.39-.922 1.024-1.66 1.024-1.66s-1.95.788-3.489 2.581c-1.187 1.387-1.875 3.301-1.875 5.305 0 .54-.004 1.512.282 2.516.261.925.789 1.875 1.277 2.586 1.379 2.015 3.434 2.875 4.418 3.195 1.125.363 2.289.457 3.394.457 3.93 0 6.532-1.602 6.532-1.602l-.004-4.636s-1.098.75-2.235 1.086c-.726.215-1.504.562-3.71.562-6.356 0-6.02-4.64-6.02-4.64h13.816v-2.31s-.043-1.75-.398-3.214c-.192-.781-.5-1.594-.875-2.223-.871-1.464-1.652-2.46-3.586-3.652C19.359 5.18 17.215 5 16.191 5z"/></svg>