<svg xmlns="http://www.w3.org/2000/svg" viewBox="0 0 32 32"><path d="m14.375 3-.187.781c-.301 1.348-2.235 3.567-4.22 6.281C7.985 12.778 6 16.16 6 20.407c0 2.004.613 4.145 2.125 5.813S12.047 29 15.313 29c.144 0 .265-.027.406-.031.094.004.183.031.281.031.305 0 .59-.035.875-.062.086-.008.164-.024.25-.032 3.348-.277 5.57-1.308 6.938-2.843C25.668 24.262 26 21.977 26 20c0-4.465-2.57-8.617-5.062-11.687s-5-5.094-5-5.094L15.656 3zM15.5 5.5c.809.71 2.172 1.996 3.875 4.094C21.727 12.492 24 16.332 24 20c0 1.754-.309 3.453-1.437 4.719a5.3 5.3 0 0 1-.875.781c.539-1.559.421-3.332.062-5.094-.41-2.011-1.188-4.031-1.937-5.656s-1.391-2.773-1.938-3.406L17.594 11h-1.938l.375 1.281c1.047 3.403.496 5.719-.093 6.406-.293.344-.422.375-.72.282-.296-.094-.831-.48-1.343-1.438l-.75-1.406-.937 1.281c-1.872 2.52-2.59 5.282-1.97 7.594.055.203.141.402.22.594a6 6 0 0 1-.813-.719C8.508 23.645 8 22 8 20.406c0-3.62 1.703-6.57 3.594-9.156 1.539-2.105 3.039-3.883 3.906-5.75zm3.063 11.719c.464 1.176.968 2.363 1.218 3.593.364 1.79.356 3.426-.156 4.47-.383.78-.977 1.355-2.187 1.593-.133.027-.29.043-.438.063-.312.027-.656.05-1 .062-.09 0-.164.004-.25 0-2.164-.07-3.203-1.035-3.594-2.5-.324-1.207.098-2.89 1-4.594.446.461.918.797 1.469.969 1.02.32 2.156-.07 2.844-.875.59-.691.937-1.648 1.093-2.781z"/></svg>