<svg xmlns="http://www.w3.org/2000/svg" viewBox="0 0 32 32"><path d="M16 2c-.504 0-.996.184-1.375.563l-2.812 2.843c-.153.082-.282.2-.376.344l-8.874 8.875a1.947 1.947 0 0 0 0 2.75l12.062 12.063a1.955 1.955 0 0 0 2.75 0l12.063-12.063a1.947 1.947 0 0 0 0-2.75L17.374 2.563A1.92 1.92 0 0 0 16 2zm0 2.031L27.969 16 16 27.969 4.031 16l8.282-8.281 1.75 1.75A2 2 0 0 0 14 10c0 .738.402 1.371 1 1.719v8.562c-.598.348-1 .98-1 1.719a1.999 1.999 0 1 0 4 0c0-.738-.402-1.371-1-1.719v-7.843l3.063 3.062q-.064.241-.063.5a1.999 1.999 0 1 0 4 0 2 2 0 0 0-2.5-1.937L17.938 10.5Q18 10.259 18 10a2 2 0 0 0-2-2 2 2 0 0 0-.531.063l-1.75-1.75z"/></svg>