<svg xmlns="http://www.w3.org/2000/svg" viewBox="0 0 32 32"><path d="M11.406 6.969a6.4 6.4 0 0 0-1.937.281h-.031l-2.5.781A7 7 0 0 0 2 14.72V20c0 3.855 3.145 7 7 7h9.906c1.219.027 2.399-.688 2.875-1.875.301-.754.258-1.547-.031-2.25a3 3 0 0 0 1.406-1.531A3 3 0 0 0 23.094 19H27c1.645 0 3-1.355 3-3s-1.355-3-3-3h-1.531l.406-.125c1.574-.477 2.477-2.176 2-3.75s-2.176-2.477-3.75-2l-8.437 2.594a4 4 0 0 0-.282-.594c-.5-.836-1.511-1.781-3.125-2.062-.3-.051-.597-.09-.875-.094zm13.52 2.025q.103-.006.199.006c.39.043.723.313.844.719.164.539-.149 1.086-.688 1.25l-6.843 2.062.343 1.125V15H27c.566 0 1 .434 1 1s-.434 1-1 1h-6.594l-2.625-1.031a2.9 2.9 0 0 0-1.156-.219l-.531-4.094 8.625-2.625a1 1 0 0 1 .207-.037zm-13.551.037c.191 0 .39 0 .563.031 1.074.188 1.488.657 1.75 1.094.261.438.28.75.28.75v.063l.845 6.437a1 1 0 0 0 .03.094.95.95 0 0 1-.718 1.156c-.324.078-.488.035-.656-.062-.168-.098-.375-.305-.531-.75L11.688 13a1 1 0 0 0-1.438-.625l-1.656.906a.997.997 0 0 0-.39 1.36.997.997 0 0 0 1.358.39l.5-.281.97 3.688a1 1 0 0 0 .03.093c.27.774.731 1.395 1.376 1.782.527.316 1.14.437 1.75.375a3.05 3.05 0 0 0-.75 1.093A2.97 2.97 0 0 0 14.094 25H9c-2.773 0-5-2.227-5-5v-5.281c0-2.2 1.43-4.133 3.531-4.781l2.5-.75c.203-.063.774-.157 1.344-.157zm5.438 8.75c.074.012.144 0 .218.032l3.719 1.5c.523.21.773.757.563 1.28-.211.524-.79.774-1.313.563l-3.719-1.468c-.054-.02-.078-.067-.125-.094a3.05 3.05 0 0 0 .657-1.813zm-.625 4.125c.132 0 .273.012.406.063l1.343.531 1.313.531.125.032c.523.21.773.789.563 1.312a.98.98 0 0 1-.875.625h-.032a1.1 1.1 0 0 1-.406-.062l-2.781-1.125a1 1 0 0 1-.563-1.313.96.96 0 0 1 .531-.531.9.9 0 0 1 .376-.063z"/></svg>