<svg xmlns="http://www.w3.org/2000/svg" viewBox="0 0 32 32"><path d="M17 4v1.19a3.08 3.08 0 0 0-1.674 1.464 2.93 2.93 0 0 0-.264 1.946 3.06 3.06 0 0 0 1.268 1.883c.48.325 1.055.517 1.67.517q.215.001.396.076a.96.96 0 0 1 .528.528q.075.181.076.396a.98.98 0 0 1-.604.924q-.181.075-.396.076-.215-.001-.396-.076a.96.96 0 0 1-.528-.528A1 1 0 0 1 17 12h-2a2.94 2.94 0 0 0 .857 2.076 3.1 3.1 0 0 0 1.143.735V16h2v-1.19c1.16-.42 2-1.52 2-2.81 0-1.435-1.041-2.655-2.4-2.937A3 3 0 0 0 18 9q-.215-.001-.396-.076a.96.96 0 0 1-.528-.528A1 1 0 0 1 17 8q.001-.215.076-.396a1 1 0 0 1 .211-.317A1 1 0 0 1 18 7c.57 0 1 .43 1 1h2a3 3 0 0 0-.148-.924A3.05 3.05 0 0 0 19 5.19V4zm-6.484 14a6.4 6.4 0 0 0-1.817.266l-.02.007-5.671 2.176 1.984 5.57 4.93-1.89 7.137 3.93 12.324-5.106-.766-1.844-11.437 4.735-7.102-3.91-3.89 1.488-.641-1.805 3.797-1.457c.009-.004.476-.16 1.172-.16.703 0 1.522.156 2.222.79l.014.007.004.004c1.03.895 1.808 1.52 2.89 1.86s2.31.378 4.36.37l-.01-2c-2.012.008-3.063-.063-3.75-.281-.688-.211-1.176-.59-2.168-1.45l-.012-.007c-1.157-1.039-2.531-1.297-3.55-1.293z"/></svg>