<svg xmlns="http://www.w3.org/2000/svg" viewBox="0 0 32 32"><path d="m15.324 4-8.5 21.246.473.465C7.535 25.945 9.797 28 16 28s8.465-2.055 8.703-2.29l.469-.46-6.957-17.887L22.94 4zm.778 3.445 6.68 17.188C21.897 25.137 19.827 26 16 26c-3.824 0-5.898-.863-6.777-1.363zM16 13c-.55 0-1 .45-1 1s.45 1 1 1 1-.45 1-1-.45-1-1-1zm0 4c-2.21 0-4 1.79-4 4s1.79 4 4 4a4 4 0 0 0 2.75-1.105A3 3 0 0 1 18 24a3 3 0 0 1 0-6c.262 0 .508.043.75.105A4 4 0 0 0 16 17zm3 3c-.55 0-1 .45-1 1s.45 1 1 1 1-.45 1-1-.45-1-1-1z"/></svg>