<svg xmlns="http://www.w3.org/2000/svg" viewBox="0 0 32 32"><path d="M11.219 4.375C10.39 5.398 10.008 6.273 10 7.125s.371 1.512.625 1.938.367.64.375.874c.008.235-.07.645-.687 1.438l1.562 1.25c.781-1.008 1.152-1.914 1.125-2.75s-.41-1.434-.656-1.844-.348-.629-.344-.875.11-.703.781-1.531zm5 0C15.39 5.398 15.008 6.273 15 7.125s.371 1.512.625 1.938.367.64.375.874c.008.235-.07.645-.687 1.438l1.562 1.25c.781-1.008 1.152-1.914 1.125-2.75s-.41-1.434-.656-1.844-.348-.629-.344-.875.11-.703.781-1.531zm5 0C20.39 5.398 20.008 6.273 20 7.125s.371 1.512.625 1.938.367.64.375.874c.008.235-.07.645-.687 1.438l1.562 1.25c.781-1.008 1.152-1.914 1.125-2.75s-.41-1.434-.656-1.844-.348-.629-.344-.875.11-.703.781-1.531zM3 14v2h1.188l1.53 7.594v.031a3.06 3.06 0 0 0 2 2.219L7 28h2l.656-2h12.688L23 28h2l-.719-2.156c1.047-.32 1.86-1.16 2.094-2.219v-.031L27.813 16H29v-2zm3.219 2h19.594l-1.407 7.219c-.117.433-.484.781-1 .781H8.688c-.536 0-.899-.355-1-.812z"/></svg>