<svg xmlns="http://www.w3.org/2000/svg" viewBox="0 0 32 32"><path d="M14 3v2h5.563l-5.407 5.406C12.957 9.512 11.523 9 10 9a6.94 6.94 0 0 0-4.937 2.063A6.94 6.94 0 0 0 3 16c0 1.871.742 3.613 2.063 4.938a6.94 6.94 0 0 0 9.875 0 7 7 0 0 0 1.75-2.844 4.2 4.2 0 0 0-2.313.281 4.9 4.9 0 0 1-.844 1.156A4.96 4.96 0 0 1 10 21a4.96 4.96 0 0 1-3.531-1.469A4.96 4.96 0 0 1 5 16c0-1.336.523-2.586 1.469-3.531A4.96 4.96 0 0 1 10 11c1.336 0 2.586.523 3.531 1.469a4.9 4.9 0 0 1 1.094 1.656 8 8 0 0 1 2.094-.094c-.23-.793-.63-1.52-1.125-2.187L21 6.438V11h4.563l-5.407 5.406C18.957 15.512 17.523 15 16 15a6.94 6.94 0 0 0-4.937 2.063 7 7 0 0 0-1.75 2.843 4.2 4.2 0 0 0 2.312-.281 4.9 4.9 0 0 1 .844-1.156A4.96 4.96 0 0 1 16 17c1.336 0 2.586.523 3.531 1.469A4.96 4.96 0 0 1 21 22a4.96 4.96 0 0 1-1.469 3.531A4.96 4.96 0 0 1 16 27a4.96 4.96 0 0 1-3.531-1.469 4.9 4.9 0 0 1-1.094-1.656 8 8 0 0 1-2.094.094 6.9 6.9 0 0 0 1.781 2.968 6.94 6.94 0 0 0 9.876 0A6.94 6.94 0 0 0 23 22c0-1.523-.512-2.957-1.406-4.156L27 12.437V18h2V9h-6V3z"/></svg>