<svg xmlns="http://www.w3.org/2000/svg" viewBox="0 0 32 32"><path d="M19 3c-4.395 0-8 3.605-8 8v2.625c-1.723-1.008-3.96-.668-5.187.969-1.32 1.758-.977 4.277.78 5.594v.03h.032L12 24.157V29h14v-5.281c.02-.04.04-.074.063-.125.113-.227.234-.547.375-.969.28-.84.562-2.055.562-3.625v-8c0-4.395-3.605-8-8-8zm0 2c3.305 0 6 2.695 6 6v8c0 1.344-.219 2.344-.437 3-.11.328-.239.566-.313.719-.04.074-.043.125-.062.156-.008.016-.028.027-.032.031l.157.094h-10.47l-.25-.187-5.78-4.22a1.964 1.964 0 0 1-.407-2.78c.672-.895 1.89-1.075 2.782-.407h.03l1.22.844L13 17.344V11c0-3.305 2.695-6 6-6zm-5 20h10v2H14z"/></svg>