<svg xmlns="http://www.w3.org/2000/svg" viewBox="0 0 32 32"><path d="M16 3C8.82 3 3 8.82 3 16c0 2.923.976 5.61 2.604 7.781L19.902 3.598A13 13 0 0 0 16 3zm5 1v18h6.525A12.9 12.9 0 0 0 29 16c0-5.407-3.303-10.041-8-12zm1.05 4h.737v1.707h.666V8.143h.727v1.564h.734V8h.727v2.484h-3.59zm1.466 3.22h1.87c.809 1.536.246 3.428-1.544 3.428-2.056 0-2.26-2.445-1.422-3.355l.613.553c-.675.655-.357 1.972.809 1.972 1.054 0 1.432-1.021.982-1.84h-.584v.633h-.724zM16 11.544 8.604 22H16zm9.633 3.268v.89l-.748.307V17.4l.748.295v.881l-3.58-1.555v-.656zm-1.422 1.464-1.106.44 1.106.44zm-1.065 2.045c.808 0 1.094.511 1.094 1.33v.575h1.4V21h-3.578v-1.318c0-.808.286-1.362 1.084-1.362zm0 .819c-.348 0-.417.337-.417.674v.41h.859v-.534c-.001-.306-.125-.55-.442-.55zM5.768 24c2.38 3.039 6.072 5 10.232 5v-5zM21 24v4a13.03 13.03 0 0 0 5.232-4z"/></svg>