<svg xmlns="http://www.w3.org/2000/svg" viewBox="0 0 32 32"><path d="M24.688 4.031c-.836 0-1.649.336-2.282.969l-.093.094-.625-.594L5.188 21l-.063.313-1.094 5.5-.312 1.468 1.469-.312 5.5-1.094.312-.062 16.5-16.5-.594-.594.063-.063.031-.062A3.254 3.254 0 0 0 27 5a3.3 3.3 0 0 0-2.312-.969zm0 1.969c.312 0 .64.14.906.406.535.535.535 1.246 0 1.782l-.094.093L23.719 6.5l.093-.094c.266-.265.563-.406.875-.406zm-2.97 1.313 2.97 2.968-1.438 1.469-3-3zm-2.843 2.875 2.938 2.937-10.438 10.469-.406-1.813-.125-.625-.625-.125-1.813-.406zM6.969 22.344l2.187.5.5 2.187-2.031.407-1.062-1.063z"/></svg>