<svg xmlns="http://www.w3.org/2000/svg" viewBox="0 0 32 32"><path d="M16 5c-4.988 0-5 2-5 2v4h6v1H7s-3-.46-3 5 3 5 3 5h3v-1.625A4.383 4.383 0 0 1 14.375 16h3.25c1.86 0 3.375-.516 3.375-2.375V7s-.012-2-5-2zm-3 2c.55 0 1 .45 1 1s-.45 1-1 1-1-.45-1-1 .45-1 1-1zm12.129 3.988C25.047 10.991 25 11 25 11h-3v2.625C22 16.035 20.035 17 17.625 17h-3.25A3.38 3.38 0 0 0 11 20.375V26s.063 2 5 2 5-2 5-2v-4h-6v-1h10s3 .504 3-5c0-4.816-2.297-5.033-2.871-5.012zM19 24c.55 0 1 .45 1 1s-.45 1-1 1-1-.45-1-1 .45-1 1-1z"/></svg>