<svg xmlns="http://www.w3.org/2000/svg" viewBox="0 0 32 32"><path d="M16 3C8.832 3 3 8.832 3 16s5.832 13 13 13 13-5.832 13-13S23.168 3 16 3zm0 2c6.086 0 11 4.914 11 11s-4.914 11-11 11S5 22.086 5 16 9.914 5 16 5zm-4.5 3.188C8.8 9.789 7 12.699 7 16h6.5c0-.898.512-1.687 1.313-2.187zm9 0-3.187 5.624c.8.399 1.28 1.188 1.28 2.188H25c0-3.3-1.8-6.21-4.5-7.812zm-9.594 3 1.281 2.312c-.101.2-.18.3-.28.5H9.312c.3-1 .894-2.012 1.593-2.812zm10.188 0c.8.8 1.293 1.812 1.593 2.812h-2.593c-.102-.2-.18-.398-.282-.5zM16 14.406c-.898 0-1.594.696-1.594 1.594s.696 1.594 1.594 1.594 1.594-.696 1.594-1.594-.696-1.594-1.594-1.594zm-1.312 3.781L11.5 23.813C12.8 24.614 14.398 25 16 25s3.2-.387 4.5-1.187l-3.187-5.625A2.8 2.8 0 0 1 16 18.5c-.5 0-.914-.113-1.312-.312zm1 2.313h.624l1.282 2.313c-.5.101-1.094.187-1.594.187s-1.094-.086-1.594-.187z"/></svg>