<svg xmlns="http://www.w3.org/2000/svg" viewBox="0 0 32 32"><path d="M20.613 2.998c-.236 0-.425.14-.613.201-.602-.199-.7.102-1 .2-.602-.098-.8.203-1.102.5h-.296c-.903.5-1.403 1.703-1.602 2.203-.2-.602-.602-1.704-1.602-2.204h-.296c-.301-.296-.5-.597-1.102-.5-.3-.097-.398-.398-1-.199-.2-.097-.398-.199-.7-.199-.1 0-.198.102-.402.2-.398-.2-.796-.2-1.097.1-.5-.1-.7.098-.801.2-.102 0-.898-.102-1.2.398-.902-.097-1.198.5-.902 1.102-.199.3-.296.5.102 1.102-.2.199-.102.597.3.898-.1.398 0 .7.4 1-.098.5.5.8.6 1 .098.3.2.602.9.8.1.5.5.598.902.7-1.301.7-2.301 1.7-2.301 4l-.2.3c-1.402.9-2.703 3.7-.703 6 .102.7.301 1.2.5 1.802.301 2.296 2.204 3.398 2.704 3.5.699.597 1.5 1.097 2.597 1.5 1 1 2.102 1.398 3.2 1.398 1.101 0 2.203-.398 3.203-1.398 1.097-.403 1.898-.903 2.597-1.5.5-.102 2.403-1.204 2.7-3.5C24.601 22 24.8 21.5 25 20.8c2.2-2.301.898-5.102-.602-6l-.198-.3c0-2.398-1.097-3.3-2.3-4 .402-.102.8-.2.902-.7.699-.198.8-.5.898-.8.2-.102.7-.398.7-1 .3-.2.5-.5.402-.898.3-.403.398-.704.3-1 .399-.5.2-.801.098-1.102.301-.602 0-1.2-.8-1.102-.297-.5-1.098-.398-1.2-.398-.097-.2-.3-.3-.8-.2-.5-.3-.899-.3-1.297-.1-.188-.15-.347-.202-.489-.202zm-10.312.701c.699.102.898.301 1.199.5.2-.199 0-.3-.102-.5.5.2.704.403 1 .602.102-.102.204-.2.102-.5.2.199.5.398.7.699.198-.102.1-.3.1-.5.302.3.598.602.802.898.097 0 .097-.199.097-.398.801.8 2 2.8.301 3.602C13.102 6.898 11.3 6 9.398 5.398c2.5 1.301 3.903 2.301 4.704 3.204-.403 1.597-2.5 1.699-3.301 1.597q.3-.147.3-.3c-.101-.098-.703 0-1.203-.2.204 0 .301-.097.403-.199-.5-.2-1-.3-1.301-.602.2 0 .3 0 .5-.097-.398-.2-.8-.403-1.2-.7.2 0 .4 0 .5-.101-.3-.2-.6-.5-.902-.7h.5c-.296-.402-.597-.6-.796-1q.299.147.597 0c-.097-.198-.597-.3-.8-.8h.5c-.098-.398-.297-.7-.399-.898h1.2l-.302-.403c.5-.097 1 0 1.301.102.2-.102 0-.301-.199-.403.398.102.8.204 1.102.301.199-.199-.102-.3-.301-.5zm10.398 0c-.097.2-.3.301-.097.5.296-.199.5-.3 1.199-.5-.102.2-.403.301-.301.5.3-.097.7-.199 1.102-.3-.204.203-.403.3-.204.402.403-.102.801-.301 1.301-.102l-.3.301h1.203c-.204.3-.403.5-.5.898h.5c-.204.602-.602.704-.704.903q.152.146.602 0c-.2.398-.5.597-.8.898.1.102.198.102.5 0-.302.301-.598.5-.9.801.098.102.302.102.5.102-.3.296-.8.5-1.198.699.097.199.296.097.398.097-.3.204-.8.403-1.2.5.098.102.2.204.4.204-.5.296-1.2.097-1.4.296 0 .102.2.204.302.301-.801 0-2.903 0-3.301-1.597.8-.903 2.199-1.903 4.699-3.204-1.898.704-3.7 1.5-5.102 2.704-1.597-.801-.5-2.801.403-3.602 0 .2.097.3.097.398.301-.296.5-.597.801-.898 0 .2-.097.3.102.5.199-.3.398-.5.8-.7-.203.302 0 .4.098.5.301-.198.5-.402 1-.6zM16 10.301c1.2 0 2.7.898 2.7 1.8 0 .797-1.098 1.399-2.7 1.399s-2.7-.8-2.7-1.5 1.302-1.7 2.7-1.7zm-4.14.531q.407-.008.84.066c.8.102-4 4.403-4.098 3.403-.09-2.102 1.354-3.435 3.257-3.469zm7.98.098c1.903.015 3.347 1.28 3.262 3.468C23 15.398 18.199 11.102 19 11q.432-.075.84-.07zm-.887 2.591c.982-.01 2.028.55 2.649 1.58.898 1.5.699 3.297-.5 4.098-1.204.7-3 .2-3.903-1.199-1-1.398-.699-3.3.5-4.102a2.3 2.3 0 0 1 1.254-.377zm-5.887.122c.437-.006.86.107 1.235.357 1.199.8 1.398 2.602.5 4.102-.903 1.5-2.7 2-3.903 1.199-1.199-.801-1.398-2.602-.5-4.102.688-.961 1.708-1.545 2.668-1.556zm10.309 1.648q.06-.004.125.01c2.2 1.199 1.8 4 .602 5-1.068.484-1.945-4.944-.727-5.01zm-15.06.088c1.134-.022.35 5.41-.713 5.02-1.204-1-1.602-3.7.597-5a.4.4 0 0 1 .115-.02zM16 19.102c1.7 0 3 1.199 3 2.699S17.7 24.5 16.102 24.5c-1.602 0-3-1.2-3-2.7s1.296-2.698 2.898-2.698zm6.693.894a.85.85 0 0 1 .608.203c.5.7.8 2.602-.102 3.801-1.3 1.8-3 1.8-3.597 1.3-.704-.6-.204-2.6.796-3.698.75-.903 1.615-1.578 2.295-1.606zM9.38 20.64c.746.037 1.646.636 2.32 1.463.801.898 1.2 2.699.5 3.296-.699.403-2.3.204-3.398-1.398-.801-1.398-.7-2.8-.102-3.2.2-.124.431-.174.68-.161zm7.187 4.85c1.11.035 2.332.485 2.332 1.011 0 .398-1.5 1.7-2.898 1.7-1.5.1-2.898-1.2-2.898-1.598 0-.602 1.796-1.102 3-1.102a4 4 0 0 1 .464-.012z"/></svg>