<svg xmlns="http://www.w3.org/2000/svg" viewBox="0 0 32 32"><path d="M14.5 4C12.57 4 11 5.57 11 7.5s1.57 3.5 3.5 3.5S18 9.43 18 7.5 16.43 4 14.5 4zm0 2c.827 0 1.5.673 1.5 1.5S15.327 9 14.5 9 13 8.327 13 7.5 13.673 6 14.5 6zm-1.117 5.986a1.99 1.99 0 0 0-1.824 1.48L10.06 18.74a2 2 0 0 0 .753 2.096l3.206 2.342L14.78 27H9.955l1.03-1.412c.07-.131.131-.267.18-.4l.827-2.266-1.685-1.219-1.024 2.805a1 1 0 0 1-.058.129L7.502 27H3v2h21.486a4.69 4.69 0 0 0 4.455-3.21l.059-.173-1.896-.633-.057.172A2.7 2.7 0 0 1 24.487 27H21V16h-4.244l-.785-2.336a2.02 2.02 0 0 0-1.348-1.424l-.537-.166a2 2 0 0 0-.703-.088zm.107 1.998.567.254.785 2.23a1.994 1.994 0 0 0 1.94 1.514H19V27h-2.18l-.834-4.182a2 2 0 0 0-.787-1.283l-3.207-2.28z"/></svg>