<svg xmlns="http://www.w3.org/2000/svg" viewBox="0 0 32 32"><path d="M24 4c-1.645 0-3 1.355-3 3s1.355 3 3 3 3-1.355 3-3-1.355-3-3-3zm-15.969.219L6.875 5.812l6.313 4.594c-.11.117-.239.227-.344.344-1.297 1.418-1.035 3.715.562 4.781l3.688 2.438-3.813 2.25L5.5 15.75l-1 1.75 17.531 10.063a1 1 0 0 0 .094.03s.707.345 1.625.407c.918.063 2.223-.203 3.063-1.344l-1.594-1.187c-.367.5-.793.566-1.313.531a2.9 2.9 0 0 1-.875-.187l-.093-.032-7.688-4.406 2.844-1.687c1.23-.731 1.285-2.579.093-3.375l-3.656-2.438a1.17 1.17 0 0 1-.219-1.781c.528-.578 1.114-1.2 1.657-1.719.781-.75 1.808-1.094 2.625-1.25.218-.043.375.105.375.344l.031 4v.469l.406.312 3.969 3.031 1.219-1.562L21 12.969l-.031-3.5c-.008-1.442-1.348-2.59-2.782-2.313-1.062.207-2.437.672-3.593 1.782zM24 6c.562 0 1 .438 1 1s-.438 1-1 1-1-.438-1-1 .438-1 1-1z"/></svg>