<svg xmlns="http://www.w3.org/2000/svg" viewBox="0 0 32 32"><path d="M4.5 7A2.52 2.52 0 0 0 2 9.5v.5h2v-.5c0-.285.215-.5.5-.5.258 0 .5.273.5.5 0 .203-.34.832-.875 1.813C3.59 12.293 3 13.653 3 15.5c0 2.852 2.21 5.215 5 5.469V23H3v2h24c1.645 0 3-1.355 3-3s-1.355-3-3-3v2c.566 0 1 .434 1 1s-.434 1-1 1h-5v-2.219c2.297-.66 4-2.781 4-5.281V13c0-.566.434-1 1-1s1 .434 1 1h2c0-1.645-1.355-3-3-3s-3 1.355-3 3c0 1.27-.45 1.55-.937 1.781-.489.23-1 .219-1 .219H17c-1.14 0-1.457-.422-1.719-.937C15.02 13.547 15 13 15 13v-1c0-2.281-1.305-3.71-2.531-4.344A6.2 6.2 0 0 0 10.03 7zm2.438 2H10c.027 0 .773.047 1.531.438C12.305 9.836 13 10.406 13 12v1s0 .953.5 1.938C14 15.922 15.184 17 17 17h5c.05.004.867.043 1.781-.344A3.47 3.47 0 0 1 20.5 19h-12C6.57 19 5 17.43 5 15.5c0-1.445.41-2.398.875-3.25S7 10.672 7 9.5c0-.168-.031-.34-.062-.5zM10 21h10v2H10z"/></svg>