<svg xmlns="http://www.w3.org/2000/svg" viewBox="0 0 32 32"><path d="M16 4C9.383 4 4 9.383 4 16s5.383 12 12 12 12-5.383 12-12S22.617 4 16 4zm0 2c5.535 0 10 4.465 10 10s-4.465 10-10 10S6 21.535 6 16 10.465 6 16 6zm-4.5 5c-.828 0-1.5 1.121-1.5 2.5s.672 2.5 1.5 2.5 1.5-1.121 1.5-2.5-.672-2.5-1.5-2.5zm9 0c-.828 0-1.5 1.121-1.5 2.5s.672 2.5 1.5 2.5 1.5-1.121 1.5-2.5-.672-2.5-1.5-2.5zM16 17c-2.293 0-4 1.855-4 4 0 .988.355 1.973 1.156 2.469S14.844 24 16 24s2.043-.035 2.844-.531S20 21.989 20 21c0-2.145-1.707-4-4-4zm0 2c1.293 0 2 .828 2 2 0 .668-.04.691-.187.781-.149.09-.758.219-1.813.219s-1.664-.129-1.812-.219S14 21.668 14 21c0-1.172.707-2 2-2z"/></svg>