<svg xmlns="http://www.w3.org/2000/svg" viewBox="0 0 32 32"><path d="M14.219 5c-.68 0-1.25.57-1.25 1.25 0 1.512-.766 2.566-1.625 3.313-.43.374-.89.66-1.219.843a5 5 0 0 1-.375.188c-.047.023-.07.054-.094.062s-.12.031-.031 0c-.484.192-.812.64-.812 1.156v2.22c0 .679.57 1.25 1.25 1.25h1.124V20.5c0 .355 0 1.844.688 3.375S14.137 27 16.719 27c3.933 0 5.886-1.559 6.031-1.687.27-.239.438-.59.438-.938v-2.656c0-.446-.266-.875-.657-1.094-.375-.207-.832-.164-1.218.063l-.032-.032-.031.032c-.07.039-1.156.656-2.344.656-.617 0-.66-.176-.781-.407s-.156-.625-.156-.53v-4.938h3.093c.68 0 1.25-.567 1.25-1.25v-3c0-.684-.57-1.25-1.25-1.25H17.97V6.25c0-.68-.57-1.25-1.25-1.25zm.562 2h1.188v4.969h4.344v1.5h-4.344v6.937c0 .172.008.758.375 1.469.367.71 1.293 1.469 2.562 1.469.903 0 1.684-.215 2.282-.438v1.032c-.262.207-1.426 1.062-4.47 1.062-1.84 0-2.515-.863-3-1.937s-.53-2.356-.53-2.563v-7.219h-2.376v-.969c.098-.05.188-.085.313-.156a9 9 0 0 0 1.531-1.094c.98-.855 1.871-2.269 2.125-4.062z"/></svg>