<svg xmlns="http://www.w3.org/2000/svg" viewBox="0 0 32 32"><path d="M15 4v2.063c-6.012.503-10.746 5.406-10.969 10.562-.004.125-.031.25-.031.375h2c0-.078.09-.277.531-.531S7.688 16 8.5 16s1.527.215 1.969.469c.441.254.531.453.531.531h2c0-.012.082-.262.625-.531.543-.27 1.406-.469 2.375-.469s1.832.2 2.375.469c.543.27.625.52.625.531h2c0-.078.09-.277.531-.531S22.688 16 23.5 16s1.527.215 1.969.469c.441.254.531.453.531.531h2a2.4 2.4 0 0 0-.031-.375C27.746 11.469 23.012 6.566 17 6.063V4zm1 4c4.348 0 8.063 2.953 9.438 6.281A6.6 6.6 0 0 0 23.5 14c-1.121 0-2.145.25-2.969.719a4 4 0 0 0-.562.406 4.5 4.5 0 0 0-.688-.437C18.375 14.234 17.238 14 16 14s-2.375.234-3.281.688c-.235.117-.45.277-.656.437-.008-.004-.024.004-.032 0a4 4 0 0 0-.562-.406C10.645 14.25 9.62 14 8.5 14a6.6 6.6 0 0 0-1.937.281C7.937 10.953 11.653 8 16 8zm-1 9v8c0 .566-.434 1-1 1s-1-.434-1-1v-1h-2v1c0 1.645 1.355 3 3 3s3-1.355 3-3v-8z"/></svg>