<svg xmlns="http://www.w3.org/2000/svg" viewBox="0 0 32 32"><path d="M16 3C8.855 3 3 8.855 3 16s5.855 13 13 13 13-5.855 13-13S23.145 3 16 3zm0 2c2.355 0 4.55.758 6.344 2.031a19.3 19.3 0 0 0-5.938-.5c-1.304.094-2.43.29-3.281.5-.273.067-.45.125-.656.188a9.4 9.4 0 0 1-.156-1.563A10.9 10.9 0 0 1 16 5zm-5.625 1.594a14 14 0 0 0 .344 1.906c-.004.2.05.395.156.563a16.6 16.6 0 0 0 1.625 3.843q.03.047.063.094a18.2 18.2 0 0 0 2.343 3.156c-.254.864-.566 1.66-.906 2.375-.578-.527-1.309-1.304-2.094-2.437-1.328-1.914-2.594-4.672-2.656-8.375a1 1 0 0 0-.062-.344c.367-.29.785-.54 1.187-.781zm7.063 1.875c2.187-.047 4.824.293 7.468 1.562.121.082.262.133.407.156.32.508.609 1.032.843 1.594-3.113-1.394-6-1.664-8.281-1.5a15 15 0 0 0-4.062.844A15 15 0 0 1 13 9.156c.195-.058.375-.125.625-.187.75-.188 1.734-.387 2.906-.469.293-.02.594-.023.907-.031zM7.344 9.25c.34 3.41 1.59 6.07 2.906 7.969A16.7 16.7 0 0 0 13 20.312a15 15 0 0 1-1.406 1.782 17.7 17.7 0 0 1-2.344-2.907c-1.355-2.097-2.59-4.992-2.469-8.468a1 1 0 0 0-.093-.531c.203-.32.421-.641.656-.938zm11.593 3c2.176-.027 4.844.402 7.72 2q.087.059.187.094c.074.492.148.992.156 1.5-1.309-.586-3.41-1.29-6.156-1.344a1 1 0 0 0-.594-.062 1 1 0 0 0-.187.062H20a18 18 0 0 0-3.469.469 16 16 0 0 1-1.687-2.094 14 14 0 0 1 4.094-.625zM5.126 14.406c.492 2.309 1.438 4.293 2.438 5.844a18.8 18.8 0 0 0 2.625 3.25c-.489.414-.899.71-1.22.938C6.544 22.418 5 19.39 5 16c0-.54.05-1.074.125-1.594zm16.219 2.125c.785.043 1.508.117 2.156.25-.023.203-.047.39-.094.657a15 15 0 0 1-.812 2.843c-.86 2.168-2.422 4.676-5.344 6.407a1 1 0 0 0-.25.25A11 11 0 0 1 16 27c-.477 0-.945-.035-1.406-.094a16.74 16.74 0 0 0 5.469-6.468c.574-1.2.917-2.29 1.125-3.157.07-.297.113-.515.156-.75zm-2.157.032c.043-.004.086.003.125 0-.019.093-.039.148-.062.25a14 14 0 0 1-1 2.75c-1.008 2.105-2.781 4.585-6 6.468a1 1 0 0 0-.281.188c-.45-.18-.864-.39-1.281-.625.324-.25.718-.57 1.124-.938a1 1 0 0 0 1.031-1 16.8 16.8 0 0 0 2.188-2.906 1 1 0 0 0 .188-.344c.566-1 1.066-2.144 1.469-3.437a16 16 0 0 1 2.5-.407zm6.25.78c.594.216 1.051.427 1.375.595a11 11 0 0 1-4.78 7.25 15.6 15.6 0 0 0 2.437-4.157c.488-1.23.75-2.351.906-3.218.035-.192.04-.31.063-.47z"/></svg>