<svg xmlns="http://www.w3.org/2000/svg" viewBox="0 0 32 32"><path d="M16 3c-3.227 0-6.043 2.258-6.797 5.344a5.04 5.04 0 0 0-2.785 2.672C2.922 10.758 0 13.555 0 17c0 3.309 2.691 6 6 6v-2c-2.207 0-4-1.793-4-4s1.793-4 4-4c.277 0 .566.035.883.105l.976.223.22-.98a3 3 0 0 1 2.226-2.254l.66-.156.098-.672C11.418 6.832 13.543 5 16 5a4.98 4.98 0 0 1 4.46 2.75l.395.781.829-.289C22.152 8.082 22.582 8 23 8c2.207 0 4 1.793 4 4 0 .04-.008.074-.016.11q-.012.106-.02.206l-.062.72.664.284A3.99 3.99 0 0 1 30 17c0 2.207-1.793 4-4 4h-2.543q.393.434.691.938.301.503.5 1.062H26c3.309 0 6-2.688 6-6a6 6 0 0 0-3.004-5.2A6.01 6.01 0 0 0 23 6c-.39 0-.777.043-1.172.125A6.97 6.97 0 0 0 16 3zm-.5 9c-1.137 0-2.16.55-2.797 1.398l1.598 1.2A1.49 1.49 0 0 1 15.5 14c.84 0 1.5.66 1.5 1.5s-.66 1.5-1.5 1.5H9v2h6.5c1.922 0 3.5-1.578 3.5-3.5S17.422 12 15.5 12zM8 21v2h3c.566 0 1 .434 1 1s-.434 1-1 1a.98.98 0 0 1-.863-.5l-1.73 1.012A3.02 3.02 0 0 0 11 27c1.645 0 3-1.355 3-3a3 3 0 0 0-.187-1H19c1.117 0 2 .883 2 2s-.883 2-2 2a2 2 0 0 1-1.887-1.336l-1.886.664A4 4 0 0 0 19 29c2.2 0 4-1.8 4-4s-1.8-4-4-4z"/></svg>