<svg xmlns="http://www.w3.org/2000/svg" width="92" height="92" viewBox="0 0 92 92"><path d="M92 39.2v-.4c0-.1 0-.2-.1-.4 0-.1-.1-.3-.1-.4s-.1-.2-.1-.4c-.1-.1-.1-.2-.2-.3s-.2-.2-.2-.4l-.1-.1-21.6-26.3c-.8-1-1.9-1.5-3.1-1.5h-41c-1.2 0-2.3.5-3.1 1.5L.9 36.8l-.1.1c-.1.1-.2.2-.2.4-.1.1-.1.2-.2.3s-.1.2-.1.4c0 .1-.1.2-.1.4 0 .1-.1.2-.1.4v36.4C0 79.5 3.6 83 8 83h76c4.4 0 8-3.5 8-7.9zM27.4 17h37.1l15 18H66.3c-1.1 0-2.2.7-3 1.5L54.2 47H37.8l-9.1-10.5c-.8-.9-1.8-1.5-3-1.5H12.4zM84 75H8V43h15.9l8.7 10c1 1.2 2.5 2 4.1 2h18.6c1.6 0 3-.9 4.1-2l8.7-10H84z"/></svg>