<svg xmlns="http://www.w3.org/2000/svg" viewBox="0 0 512 512"><path class="ci-primary" d="M227.313 363.313 312 278.627l84.687 84.686 22.626-22.626L334.627 256l84.686-84.687-22.626-22.626L312 233.373l-84.687-84.686-22.626 22.626L289.373 256l-84.686 84.687z"/><path class="ci-primary" d="M472 64H194.644a24.1 24.1 0 0 0-17.42 7.492L16 241.623v28.754l161.224 170.131a24.1 24.1 0 0 0 17.42 7.492H472a24.03 24.03 0 0 0 24-24V88a24.03 24.03 0 0 0-24-24Zm-8 352H198.084L48 257.623v-3.246L198.084 96H464Z"/></svg>