<svg xmlns="http://www.w3.org/2000/svg" width="32" height="32" viewBox="0 0 32 32"><path d="M31.031 7.021c0-1.135-.172-2.271-.479-3.406-.438-1.354-1.438-2.448-2.708-2.927a12.33 12.33 0 0 0-8.12 0 4.23 4.23 0 0 0-2.708 2.927 12.76 12.76 0 0 0 0 6.766c.438 1.354 1.443 2.448 2.708 2.927 1.297.479 2.677.703 4.063.656 1.396 0 2.75-.26 4.057-.656a4.21 4.21 0 0 0 2.708-2.927 12.4 12.4 0 0 0 .479-3.359zm-4.406 0c0 .521-.089 1.135-.266 1.615a2.19 2.19 0 0 1-1.573 1.443 5.7 5.7 0 0 1-2.094 0 1.97 1.97 0 0 1-1.573-1.443 5.4 5.4 0 0 1 0-3.318 2.19 2.19 0 0 1 1.573-1.443 5.7 5.7 0 0 1 2.094 0c.766.13 1.38.693 1.573 1.443q.266.914.266 1.703zM14.964 25.406a12.8 12.8 0 0 0 0-6.771c-.438-1.354-1.443-2.443-2.708-2.927a12.33 12.33 0 0 0-8.12 0 4.22 4.22 0 0 0-2.708 2.927 12.66 12.66 0 0 0 0 6.771c.438 1.354 1.438 2.448 2.708 2.922 2.63.922 5.49.922 8.12 0a4.5 4.5 0 0 0 2.708-2.922zm-3.933-3.364c0 .526-.089 1.135-.26 1.615A2.19 2.19 0 0 1 9.198 25.1c-.693.13-1.406.13-2.099 0a1.96 1.96 0 0 1-1.568-1.443 5.4 5.4 0 0 1 0-3.318 2.17 2.17 0 0 1 1.568-1.438 5.5 5.5 0 0 1 2.099 0c.76.13 1.375.693 1.573 1.438a5.9 5.9 0 0 1 .26 1.703zm0-15.068h4.411c0-1.13-.177-2.271-.479-3.359-.438-1.354-1.443-2.443-2.708-2.927a12.33 12.33 0 0 0-8.12 0c-1.354.526-2.359 1.615-2.714 2.969a12.8 12.8 0 0 0 0 6.771c.438 1.354 1.443 2.443 2.708 2.927 1.313.479 2.667.656 4.063.656s2.75-.266 4.063-.656a4.25 4.25 0 0 0 2.708-2.927c.042-.177.083-.396.172-.568l-4.146-1.922c-.047.26-.089.479-.177.745a2.18 2.18 0 0 1-1.573 1.438 5.7 5.7 0 0 1-2.094 0 1.97 1.97 0 0 1-1.573-1.438 5.4 5.4 0 0 1 0-3.323 2.19 2.19 0 0 1 1.573-1.443 5.7 5.7 0 0 1 2.094 0c.766.13 1.38.698 1.573 1.443.13.568.219 1.094.219 1.615zm5.896 11.708a12.4 12.4 0 0 0-.479 3.406v9.911h4.411v-9.958c0-.521.083-1.135.26-1.615a2.19 2.19 0 0 1 1.573-1.443 5.7 5.7 0 0 1 2.094 0c.76.13 1.375.693 1.573 1.443a5.4 5.4 0 0 1 0 3.318 2.21 2.21 0 0 1-1.526 1.443c-.693.13-1.406.13-2.099 0-.13-.042-.302-.089-.432-.135l1.484 4.109c1.396 0 2.75-.266 4.057-.656a4.23 4.23 0 0 0 2.708-2.927 12.76 12.76 0 0 0 0-6.766c-.438-1.354-1.438-2.448-2.708-2.927a12.33 12.33 0 0 0-8.12 0c-1.354.349-2.359 1.443-2.797 2.797z"/></svg>