<svg xmlns="http://www.w3.org/2000/svg" width="32" height="32" viewBox="0 0 32 32"><path d="M16 0C7.161 0 0 7.161 0 16s7.161 16 16 16 16-7.161 16-16S24.839 0 16 0zm0 1.333a14.67 14.67 0 0 1 14.12 10.683 25.4 25.4 0 0 1-6.213 8.104c-1.256 1.077-2.615 2.041-4.104 2.719-1.511.667-3.163 1.068-4.803.964a8.3 8.3 0 0 1-3.547-1.016 26.7 26.7 0 0 0 7.573-6.104 13.24 13.24 0 0 0 3.077-5.563 7.5 7.5 0 0 0 .057-3.199 5.93 5.93 0 0 0-1.443-2.817 5.75 5.75 0 0 0-2.667-1.583 6.9 6.9 0 0 0-3.104-.109 10.4 10.4 0 0 0-5.349 3.057 13 13 0 0 0-3.916 9.984 10.5 10.5 0 0 0 2.599 6.12 24.4 24.4 0 0 1-4.751 1.135A14.69 14.69 0 0 1 3.196 8.86a14.68 14.68 0 0 1 12.803-7.527zm.093 2.959c1.027 0 2.068.323 2.891.937a4.8 4.8 0 0 1 1.604 2.24c.308.864.396 1.823.276 2.744a10.4 10.4 0 0 1-2.265 5.016 21.66 21.66 0 0 1-8.495 6.609 7.2 7.2 0 0 1-1.599-1.975 8.8 8.8 0 0 1-1-5.156c.161-1.76.776-3.468 1.599-5.057a10.6 10.6 0 0 1 4.032-4.557c.905-.495 1.932-.801 2.957-.801zm14.438 9.735a14.66 14.66 0 0 1-8.651 15.4c-6 2.625-13.016.953-17.187-4.093a26.4 26.4 0 0 0 4.837-1.599 8.7 8.7 0 0 0 2.229 1.249c2.349.833 4.917.813 7.256-.052A17.7 17.7 0 0 0 25.196 21a26.6 26.6 0 0 0 5.333-6.959z"/></svg>