<svg xmlns="http://www.w3.org/2000/svg" width="32" height="32" viewBox="0 0 32 32"><path d="m9.677 12.177 6.077-3.511a.49.49 0 0 1 .491 0l6.077 3.511a.49.49 0 0 1 .245.427v7.016a.5.5 0 0 1-.245.427l-6.077 3.505a.49.49 0 0 1-.491 0l-6.077-3.505a.49.49 0 0 1-.245-.427v-7.016c0-.177.095-.339.245-.427zm22.126 3.198L24.542 2.74c-.265-.459-.749-.792-1.281-.792H8.741c-.527 0-1.016.333-1.281.792L.199 15.344a1.52 1.52 0 0 0 0 1.489l7.267 12.531c.26.459.749.688 1.276.688h14.525c.527 0 1.011-.224 1.276-.683l7.261-12.547a1.42 1.42 0 0 0 0-1.448zm-6.011 6.073a.54.54 0 0 1-.271.453l-9.256 5.333a.52.52 0 0 1-.52 0l-9.261-5.333a.55.55 0 0 1-.271-.453V10.771c0-.183.109-.355.271-.448l9.251-5.339a.55.55 0 0 1 .52 0l9.261 5.339a.55.55 0 0 1 .271.453z"/></svg>