<svg xmlns="http://www.w3.org/2000/svg" width="32" height="32" viewBox="0 0 32 32"><path d="M31.396 14.573 17.422.604a2.06 2.06 0 0 0-2.917 0l-2.896 2.901 3.682 3.677a2.44 2.44 0 0 1 2.516.589c.688.688.88 1.677.589 2.531l3.542 3.547a2.44 2.44 0 0 1 2.531.583c.964.958.964 2.51 0 3.469a2.447 2.447 0 0 1-3.464 0 2.46 2.46 0 0 1-.542-2.661l-3.318-3.302v8.703c.234.115.458.271.651.464.953.964.953 2.51 0 3.469a2.465 2.465 0 0 1-3.479 0 2.453 2.453 0 0 1 .807-4.005v-8.786a2.6 2.6 0 0 1-.802-.536 2.44 2.44 0 0 1-.526-2.677l-3.615-3.635-9.583 9.578a2.08 2.08 0 0 0 0 2.917l13.974 13.969a2.06 2.06 0 0 0 2.917 0l13.906-13.906a2.06 2.06 0 0 0 0-2.917z"/></svg>