<svg xmlns="http://www.w3.org/2000/svg" viewBox="0 0 512 512"><path class="ci-primary" d="M88 16a56 56 0 1 0 56 56 56.063 56.063 0 0 0-56-56Zm0 80a24 24 0 1 1 24-24 24.03 24.03 0 0 1-24 24Zm112 42.667a56 56 0 1 0 56 56 56.063 56.063 0 0 0-56-56Zm0 80a24 24 0 1 1 24-24 24.03 24.03 0 0 1-24 24ZM88 373.333a56 56 0 1 0-56-56 56.063 56.063 0 0 0 56 56Zm0-80a24 24 0 1 1-24 24 24.03 24.03 0 0 1 24-24ZM200 496a56 56 0 1 0-56-56 56.063 56.063 0 0 0 56 56Zm0-80a24 24 0 1 1-24 24 24.03 24.03 0 0 1 24-24ZM312 16a56 56 0 1 0 56 56 56.063 56.063 0 0 0-56-56Zm0 80a24 24 0 1 1 24-24 24.03 24.03 0 0 1-24 24Zm112 42.667a56 56 0 1 0 56 56 56.063 56.063 0 0 0-56-56Zm0 80a24 24 0 1 1 24-24 24.03 24.03 0 0 1-24 24ZM312 373.333a56 56 0 1 0-56-56 56.063 56.063 0 0 0 56 56Zm0-80a24 24 0 1 1-24 24 24.03 24.03 0 0 1 24-24ZM424 384a56 56 0 1 0 56 56 56.063 56.063 0 0 0-56-56Zm0 80a24 24 0 1 1 24-24 24.03 24.03 0 0 1-24 24Z"/></svg>