<svg xmlns="http://www.w3.org/2000/svg" viewBox="0 0 512 512"><path class="ci-primary" d="M256 95.998h34.924v34.924H256z"/><path class="ci-primary" d="M16 496h480V16H16ZM48 48h416v416H48Z"/><path class="ci-primary" d="M285.313 359.032a18.12 18.12 0 0 1-15.6 8.966 18.06 18.06 0 0 1-17.327-23.157l35.67-121.277a49.577 49.577 0 0 0-93.356-32.992l-11.718 28.234 29.557 12.266 11.718-28.235a17.577 17.577 0 0 1 33.1 11.7l-35.67 121.277A50.06 50.06 0 0 0 269.709 400a50.23 50.23 0 0 0 43.25-24.853l15.1-25.913-27.646-16.115Z"/></svg>