<svg xmlns="http://www.w3.org/2000/svg" width="32" height="32" viewBox="0 0 32 32"><path d="m22.292 19.677-7.109 7.12a7.1 7.1 0 0 1-6.729 1.859 4.28 4.28 0 1 1-5.161-5.125 7.09 7.09 0 0 1 1.859-6.771l.24-.24 3.161 3.156-.245.245a2.63 2.63 0 0 0 0 3.719 2.61 2.61 0 0 0 3.714 0l.62-.62 6.495-6.505zm1.234 8.87a7.09 7.09 0 0 1-7.104-1.755l-.24-.25 3.151-3.156.24.245a2.63 2.63 0 0 0 3.719 0 2.627 2.627 0 0 0-.005-3.708l-.625-.62-3.151-3.161-3.339-3.333 3.161-3.161 7.104 7.12a7.04 7.04 0 0 1 1.885 6.693 4.29 4.29 0 0 1 3.677 4.24 4.27 4.27 0 0 1-4.281 4.281c-2.057 0-3.797-1.458-4.177-3.417zM9.302 12.615l3.344-3.339 3.156-3.161.62-.615a7.05 7.05 0 0 1 7.016-1.781c.286-2.078 2.078-3.698 4.24-3.698a4.28 4.28 0 0 1 4.281 4.276 4.285 4.285 0 0 1-3.719 4.25 7.08 7.08 0 0 1-1.802 6.979l-.24.245-3.161-3.156.25-.25a2.627 2.627 0 0 0 0-3.708 2.62 2.62 0 0 0-3.708.005l-.62.615-6.5 6.495zM5.76 16.146l-.615-.62a7.08 7.08 0 0 1-1.776-7.047A4.3 4.3 0 0 1 .041 4.297a4.28 4.28 0 0 1 8.505-.687 7.09 7.09 0 0 1 6.641 1.885l.245.245-3.161 3.161-.245-.24a2.635 2.635 0 0 0-3.714 0c-1.026 1.042-1.026 2.698-.005 3.719l7.12 7.12-3.156 3.161-6.51-6.5z"/></svg>