<svg xmlns="http://www.w3.org/2000/svg" viewBox="0 0 512 512"><path class="ci-primary" d="M466.278 47.947a85.883 85.883 0 0 0-115.124-5.72 196.7 196.7 0 0 0-65.642-11.176A251.264 251.264 0 0 0 34.248 282.316a196.6 196.6 0 0 0 11.176 65.643A85.872 85.872 0 0 0 166.266 468.8a196.7 196.7 0 0 0 65.644 11.177 251.266 251.266 0 0 0 251.264-251.263A196.6 196.6 0 0 0 472 163.065a85.98 85.98 0 0 0-5.722-115.118ZM438.7 165.563a164.7 164.7 0 0 1 12.471 63.151c0 120.9-98.361 219.264-219.264 219.264a164.7 164.7 0 0 1-63.151-12.471l-10.33-4.263-7.559 8.23c-.3.331-.607.661-.928.981a53.861 53.861 0 1 1-76.171-76.171c.32-.321.65-.625.981-.93l8.229-7.558-4.262-10.329a164.7 164.7 0 0 1-12.472-63.152c0-120.9 98.362-219.263 219.265-219.263a164.7 164.7 0 0 1 63.15 12.47l10.324 4.261 7.56-8.222c.3-.326.6-.653.933-.986a53.862 53.862 0 0 1 76.172 76.172c-.324.323-.659.631-.993.939l-8.214 7.559Z"/><path class="ci-primary" d="m120.32 226.743 28.471 14.611A218.9 218.9 0 0 1 269.44 135.047l-10.88-30.094a250.8 250.8 0 0 0-138.24 121.79Z"/></svg>