<svg xmlns="http://www.w3.org/2000/svg" width="32" height="32" viewBox="0 0 32 32"><path d="M29.265 25.416c-.203 0-.411-.061-.593-.181-.489-.333-.62-1-.297-1.48a8.8 8.8 0 0 0 1.5-4.957 8.83 8.83 0 0 0-1.5-4.959 1.067 1.067 0 0 1 .287-1.479 1.07 1.07 0 0 1 1.479.285 11.05 11.05 0 0 1 1.86 6.161c0 2.199-.64 4.339-1.86 6.157-.181.323-.52.479-.859.479zm-3.052-1.723a1.05 1.05 0 0 1-.593-.188 1.04 1.04 0 0 1-.287-1.459 5.7 5.7 0 0 0 .995-3.24 5.84 5.84 0 0 0-.995-3.239 1.046 1.046 0 0 1 .287-1.464 1.06 1.06 0 0 1 1.473.303 7.9 7.9 0 0 1 1.365 4.416 7.8 7.8 0 0 1-1.365 4.423 1.02 1.02 0 0 1-.88.479zm-4.973-9.542c-.417-4.26-4.021-7.599-8.401-7.599a8.46 8.46 0 0 0-7.989 5.713c-2.729.401-4.849 2.761-4.849 5.599 0 3.125 2.547 5.672 5.683 5.672h14.541c2.62 0 4.755-2.124 4.755-4.739a4.75 4.75 0 0 0-3.739-4.641zm-1.016 7.265H5.683c-1.953 0-3.557-1.588-3.557-3.547a3.55 3.55 0 0 1 3.557-3.541c.948 0 1.844.38 2.515 1.041a1.056 1.056 0 0 0 1.5 0c.401-.4.401-1.083 0-1.5a5.7 5.7 0 0 0-2.619-1.484 6.3 6.3 0 0 1 5.739-3.697c3.48 0 6.323 2.839 6.323 6.317 0 .683-.104 1.344-.323 1.979-.177.563.12 1.161.683 1.365a1 1 0 0 0 .317.057c.443 0 .86-.281 1-.719a7 7 0 0 0 .303-1.281 2.629 2.629 0 0 1-.943 5.078z"/></svg>