<svg xmlns="http://www.w3.org/2000/svg" width="32" height="32" viewBox="0 0 32 32"><path d="m28.417 17.969-12.281 6.839-12.531-6.839a.976.976 0 1 0-.927 1.719l12.995 7.109a.95.95 0 0 0 .953 0l12.75-7.109a.975.975 0 0 0 .37-1.328.964.964 0 0 0-1.328-.391zM5.125 13.432l11.01-6.224 12.26 7.083a1 1 0 0 0 1.349-.37 1 1 0 0 0-.37-1.349l-12.75-7.354a.99.99 0 0 0-.979 0L2.65 12.572c-.661.37-.661 1.323 0 1.719l12.995 7.354a1 1 0 0 0 1.349-.37 1.005 1.005 0 0 0-.37-1.349zM.078 18.583v-4.906A3.01 3.01 0 0 1 1.62 10.76l12.995-7.354a3 3 0 0 1 3.042.021l12.75 7.359a3.06 3.06 0 0 1 1.516 2.891v4.906a3.05 3.05 0 0 1-1.568 2.917l-12.75 7.109a3.03 3.03 0 0 1-2.964 0L1.646 21.5C.568 20.911.005 19.755.078 18.583z"/></svg>