<svg xmlns="http://www.w3.org/2000/svg" width="32" height="32" viewBox="0 0 32 32"><path d="M16 0C10.005 4 8.005 4 2 4c0 20.005 0 20.005 14 28 14-7.995 14-7.995 14-28-5.995 0-7.995 0-14-4zM7.943 9.964h2.016v6.047c0 1.76.249 2.011 2.015 2.011s2.016-.256 2.016-2.016V9.965h2.011v1.02a5 5 0 0 1 3.027-1.02 5.05 5.05 0 0 1 5.031 5.041 5.05 5.05 0 0 1-5.036 5.031 5.04 5.04 0 0 1-3.584-1.509c-.615 1.025-1.749 1.509-3.464 1.509-2.771 0-4.031-1.26-4.031-4.031zm11.078 2.015A3 3 0 0 0 16 15.006a3.01 3.01 0 0 0 3.027 3.016 3 3 0 0 0 3.015-3.027 3 3 0 0 0-3.02-3.016z"/></svg>