<svg xmlns="http://www.w3.org/2000/svg" viewBox="0 0 512 512"><path d="m411.6 343.656-72.823-47.334 27.455-50.334A80.2 80.2 0 0 0 376 207.681V128a112 112 0 0 0-224 0v79.681a80.24 80.24 0 0 0 9.768 38.308l27.455 50.333-72.823 47.334A79.72 79.72 0 0 0 80 410.732V496h368v-85.268a79.73 79.73 0 0 0-36.4-67.076ZM416 464H112v-53.268a47.84 47.84 0 0 1 21.841-40.246l97.66-63.479-41.64-76.341A48.15 48.15 0 0 1 184 207.681V128a80 80 0 0 1 160 0v79.681a48.15 48.15 0 0 1-5.861 22.985L296.5 307.007l97.662 63.479h0A47.84 47.84 0 0 1 416 410.732Z"/></svg>