<svg xmlns="http://www.w3.org/2000/svg" width="32" height="32" viewBox="0 0 32 32"><path d="M15.855 17.953c5.009 0 6.473-1.797 6.755-2.235l-1.812-5.781c-.485.459-1.771 1.251-4.912 1.251-3.052 0-4.249-.756-4.692-1.215l-1.849 5.896c.301.485 1.672 2.084 6.511 2.084zm.036-12.874a8.3 8.3 0 0 0 3.167-.677L17.913.755a1.02 1.02 0 0 0-.543-.583S17.219 0 16.042 0s-1.405.183-1.405.183a.98.98 0 0 0-.548.572l-1.176 3.756a9.1 9.1 0 0 0 2.979.568zM30.12 31.093a.6.6 0 0 0-.021-.213l-3.115-10.177a.84.84 0 0 0-.776-.572h-2.219l.271.848c-.323.652-1.984 3.177-8.405 3.177-6.136 0-7.772-2.307-8.147-3.077l.297-.948H5.792a.84.84 0 0 0-.776.572L1.901 30.88q-.03.096-.021.199l-.005.025q.008.154.032.303a.705.705 0 0 0 .681.593h26.824a.7.7 0 0 0 .681-.593q.024-.149.032-.303z"/></svg>