<svg xmlns="http://www.w3.org/2000/svg" width="512" height="512" viewBox="0 0 512 512"><path d="M256 7.314A248.686 248.686 0 0 0 7.314 256 248.686 248.686 0 0 0 256 504.686 248.686 248.686 0 0 0 504.686 256 248.686 248.686 0 0 0 256 7.314Zm0 65.338c101.163 0 183.17 82.086 183.17 183.348 0 29.28-6.87 56.951-19.064 81.504l-83.432-43.212c5.796-11.726 9.042-24.904 9.042-38.82 0-49.06-40.41-88.836-90.254-88.836-.732 0-1.468.005-2.196.022l-6.19-93.8a186 186 0 0 1 8.924-.206zm-14.088.528c.039-.003.077.003.116 0l-.584.322-.022-.276c.164-.013.326-.034.49-.046zM94.744 168.958l82.24 42.612a87.4 87.4 0 0 0-11.776 43.902c0 49.059 40.41 88.836 90.254 88.836 3.211 0 6.385-.162 9.51-.484l6.262 94.904q-7.537.62-15.234.62c-101.163 0-183.17-82.086-183.17-183.348 0-31.504 7.931-61.145 21.914-87.042z"/></svg>