<svg xmlns="http://www.w3.org/2000/svg" width="170" height="170" viewBox="0 0 170 170"><path d="M153.596 132.482c-2.57 5.939-5.614 11.406-9.14 16.432-4.806 6.853-8.74 11.596-11.773 14.23-4.702 4.323-9.738 6.537-15.132 6.663-3.872 0-8.542-1.102-13.977-3.337-5.454-2.225-10.466-3.326-15.048-3.326-4.806 0-9.96 1.101-15.474 3.326-5.522 2.235-9.97 3.4-13.37 3.515-5.173.22-10.328-2.056-15.474-6.841-3.285-2.865-7.393-7.776-12.315-14.733-5.28-7.43-9.621-16.045-13.022-25.867-3.642-10.609-5.468-20.882-5.468-30.828 0-11.392 2.462-21.219 7.392-29.453 3.876-6.614 9.031-11.831 15.484-15.661s13.424-5.782 20.932-5.907c4.108 0 9.496 1.27 16.19 3.768 6.676 2.506 10.963 3.777 12.842 3.777 1.406 0 6.168-1.486 14.24-4.448 7.634-2.748 14.077-3.885 19.355-3.437 14.303 1.154 25.048 6.792 32.195 16.95-12.792 7.75-19.12 18.606-18.994 32.532.116 10.847 4.05 19.874 11.785 27.04 3.504 3.327 7.418 5.898 11.773 7.724a127 127 0 0 1-3 7.88zM120.793 3.4c0 8.502-3.106 16.44-9.297 23.788-7.471 8.734-16.508 13.782-26.308 12.985a27 27 0 0 1-.197-3.221c0-8.162 3.553-16.897 9.862-24.039q4.727-5.423 12.015-9.02C111.716 1.53 116.302.223 120.615 0c.126 1.137.178 2.273.178 3.4Z"/></svg>