<svg xmlns="http://www.w3.org/2000/svg" width="512" height="512" viewBox="0 0 135.467 135.467"><path d="M66.879.21C47.906 48.225 22.636 94.347-1.05 135.987c27.832-15.837 38.444-19.907 53.632-23.216-13.937-32.603-4.586-56.255 18.538-71.224 1.95 27.094 29.644 36.781 15.35 72.525 15.091 3.985 30.501 11.313 47.947 21.557C115.28 102.242 81.859 39.145 66.879.209Zm2.964 56.062c-29.34 19.463-13.461 49.82-11.303 52.992-5.703-11.252 2.995-26.196 6.01-26.228 5.064-.053 14.864 29.015-.407 47.479 39.97-44.163 5.407-49.003 5.7-74.243z"/></svg>