<svg xmlns="http://www.w3.org/2000/svg" viewBox="0 0 48 48"><path d="M1.34.304a1.32 1.32 0 0 0-.829.277 1.32 1.32 0 0 0-.238 1.86l3.81 4.94a3.2 3.2 0 0 0-.211 1.14v7.41c0 1.76 1.42 3.18 3.18 3.18h33.9c1.76 0 3.18-1.42 3.18-3.18v-7.41a3.2 3.2 0 0 0-.211-1.14l3.81-4.94a1.32 1.32 0 0 0-.238-1.86 1.32 1.32 0 0 0-1.86.238l-3.63 4.7a3.2 3.2 0 0 0-1.05-.182h-33.9c-.37 0-.723.067-1.05.182l-3.63-4.7a1.32 1.32 0 0 0-1.03-.515zm12.5 9a3.57 3.57 0 0 1 3.57 3.57 3.57 3.57 0 0 1-3.57 3.57 3.57 3.57 0 0 1-3.57-3.57 3.57 3.57 0 0 1 3.57-3.57zm20.7 0a3.57 3.57 0 0 1 3.57 3.57 3.57 3.57 0 0 1-3.57 3.57 3.57 3.57 0 0 1-3.57-3.57 3.57 3.57 0 0 1 3.57-3.57zm-27.4 10.9c-1.76 0-3.18 1.42-3.18 3.18v21.2c0 1.76 1.42 3.18 3.18 3.18h33.9c1.76 0 3.18-1.42 3.18-3.18v-21.2c0-1.76-1.42-3.18-3.18-3.18zm16.9 2.65c6.13 0 11.1 4.99 11.1 11.1 0 6.13-4.99 11.1-11.1 11.1s-11.1-4.99-11.1-11.1c0-6.13 4.99-11.1 11.1-11.1zm0 2.01c-5.04 0-9.11 4.07-9.11 9.11s4.07 9.11 9.11 9.11 9.11-4.07 9.11-9.11-4.07-9.11-9.11-9.11zm0 2.49c3.64 0 6.62 2.98 6.62 6.62s-2.98 6.62-6.62 6.62c-3.13 0-5.76-2.21-6.44-5.14h3.34a3.41 3.41 0 0 0 3.1 1.96c1.92 0 3.44-1.52 3.44-3.44s-1.52-3.44-3.44-3.44c-1.3 0-2.4.704-2.99 1.75h-3.4c.756-2.82 3.34-4.93 6.39-4.93z"/></svg>