<svg xmlns="http://www.w3.org/2000/svg" width="32" height="32" viewBox="0 0 32 32"><path d="M4.305 25.738.001 22.936v-4.548L0 13.84l7.97-5.186c4.385-2.853 7.991-5.192 8.015-5.197s3.637 2.328 8.03 5.186L32 13.84v9.096l-4.3 2.797a448 448 0 0 1-4.342 2.807c-.024.005-1.689-1.061-3.7-2.37L16 23.79l-3.653 2.378c-2.01 1.308-3.673 2.376-3.696 2.375s-1.98-1.263-4.347-2.805zm4.257-2.982v-3.633l-3.475-2.261a494 494 0 0 0-3.515-2.277c-.034-.012-.041.648-.041 3.624v3.64l3.49 2.27c1.92 1.248 3.502 2.27 3.516 2.27s.025-1.635.025-3.633zm14.688.01v-3.624l-.101-.075c-.15-.112-6.89-4.49-6.912-4.49-.01 0-.018 1.636-.018 3.637v3.638l3.476 2.266c1.913 1.246 3.495 2.267 3.516 2.268.031.003.04-.741.04-3.62zm3.689-6.272c2.757-1.794 3.433-2.246 3.4-2.276a1057 1057 0 0 0-6.976-4.535c-.043-.017-7.004 4.505-7.004 4.55 0 .016 1.575 1.055 3.5 2.308 3.297 2.147 3.505 2.276 3.57 2.236zm-14.736.038c1.908-1.242 3.467-2.272 3.466-2.287-.005-.043-6.99-4.578-7.028-4.564-.062.024-6.97 4.524-6.977 4.546-.011.03 6.967 4.567 7.023 4.566.026 0 1.608-1.018 3.516-2.26zm7.319-4.77a662 662 0 0 0 3.488-2.277c.014-.014-1.558-1.055-3.492-2.313L16 4.883 12.5 7.16A341 341 0 0 0 9 9.451c0 .026 6.98 4.561 7.022 4.562.02 0 1.595-1.013 3.5-2.252z"/></svg>