<svg xmlns="http://www.w3.org/2000/svg" viewBox="0 0 48 48" version="1.0"><path d="M39.2.394c-9.82 0-11.7 14-6.14 14s16-14 6.14-14zM24 2.104q-.234 0-.495.033c-5.51.718-3.58 10.3-.638 10.5 2.85.174 5.98-10.5 1.13-10.5zm-9.58 3.8c-.292.006-.61.077-.958.221-4.43 1.83-.674 9.38 1.82 8.9 2.29-.467 2.59-9.18-.854-9.1zm-7.06 5.95c-.386-.013-.806.115-1.25.423-3.56 2.45 1.2 8.38 3.29 7.46 1.83-.806.662-7.78-2.04-7.9zm20.3 4.55c-7.62-.129-17.7 3.69-19.4 11.4-1.86 8.3 7.62 19.8 17.6 19.8 4.87 0 10.5-4.39 11.6-9.98.802-4.27-9.46-2.55-9.1.264.443 3.37-2.47 5.03-5.35 2.86-9.1-6.9 15-10.4 13.4-19.8-.495-2.94-4.19-4.43-8.78-4.51z"/></svg>