<svg xmlns="http://www.w3.org/2000/svg" viewBox="0 0 48 48"><path d="M27.763 0 19.78.764v32.87l7.898-1.189V18.431l10.618 15.544 8.323-2.633-10.871-14.95L46.705 2.295 38.212.34 27.68 14.44zM9.668 8.01a.4.4 0 0 0-.245.117L6.29 11.26a.405.405 0 0 0-.06.497l3.67 6.041a15.7 15.7 0 0 0-1.545 3.517L1.62 22.716a.405.405 0 0 0-.322.397v4.43c0 .188.128.35.308.394l6.536 1.597c.349 1.44.89 2.807 1.603 4.062l-3.783 5.77a.405.405 0 0 0 .053.509l3.132 3.132a.41.41 0 0 0 .498.061l5.928-3.6c1.165.671 2.42 1.2 3.748 1.559l1.383 6.65a.405.405 0 0 0 .397.323h4.43a.405.405 0 0 0 .394-.31l1.63-6.664a15.6 15.6 0 0 0 3.854-1.622l5.843 3.83c.16.106.373.085.51-.052l3.132-3.132a.404.404 0 0 0 .06-.497l-2.134-3.515-.69.218a.24.24 0 0 1-.269-.093L34.744 31.6c-2.1 4.11-6.374 6.926-11.308 6.926-7.01 0-12.694-5.683-12.694-12.695 0-5.157 3.076-9.593 7.492-11.58v-3.274c-.804.28-1.58.62-2.319 1.022l-.003-.004-5.98-3.922a.4.4 0 0 0-.264-.064z"/></svg>