<svg xmlns="http://www.w3.org/2000/svg" width="24.1" height="24.1" viewBox="0 0 24.1 24.1"><path d="M.654.798a.62.62 0 0 0-.502.242c-.352.448-.035.9.361 1.26.206.189 1.77 1.79 3.43 3.53.522-.732 1.13-1.4 1.82-1.98-2.09-1.3-4.06-2.55-4.3-2.71C1.203.954.92.802.654.798zm12.4.41c-2.64.004-5.19.954-7.19 2.68 1.85 1.15 3.79 2.33 4.69 2.84 1.47.821 3.76 2.68 4.09 4.43.535.466 2.18 1.92 2.6 2.41.698-.211 1.52.131 2.06 1.12.866 1.58.228 3.75-1.98 5.01 1.13-1.45-.722-2.43-1.19-3.85a2 2 0 0 1-.109-.777c-.533-.282-2.11-1.45-2.8-1.96-1.8.16-4.21-1.77-5.35-3.08-.7-.802-2.32-2.52-3.86-4.12-1.33 1.87-2.04 4.1-2.05 6.39 0 9.85 11.9 14.8 18.9 7.81s2.03-18.9-7.81-18.9zm1.51 10.2c-.256.062-.96.835-1.11 1.31-.038.115-.028.248.066.342.802.592 1.56 1.17 2.4 1.7.162-.393.746-.963 1.1-1.2zm-11.5 1.78c.98 2 5.92 6.94 12 2.57-.004.243.034.485.113.715.46 1.42 2.36 2.43 1.24 3.89-2.14 1.36-5 1.2-6.99.529-3.51-1.18-5.85-4.25-6.4-7.7z"/></svg>