<svg xmlns="http://www.w3.org/2000/svg" width="512" height="512" viewBox="0 0 512 512"><path d="M0 26.498V190.4h60.361v29.454l.086 98.347c0 95.123 82.622 167.3 177.83 167.3l273.723.001V195.168c0-95.208-82.537-167.299-177.83-167.299l-79.625-.172zm12.691 11.777 244.067 1.15 76.35.165c91.37 0 170.51 69.123 170.51 160.412v278.383H241.16c-91.289 0-170.51-69.207-170.51-160.414l-.082-110.744v-28.24H12.691zm37.272 37.436v66.086h23.156c15.721 0 34.639 14.773 34.639 36.453l.164 139.639c0 68.055 59.682 123.224 133.238 123.224h181.611c23.283 0 43.657-14.744 43.657-37.404V200.002c0-68.056-59.684-123.225-133.323-123.225h-76.43v-.164zm93.601 41.41h37.979V311.95c0 26.064 17.796 46.344 38.633 46.344l129.506.51c27 0 48.017-18.6 48.017-40.67l-.219-103.46c0-6.713-2.19-11.963-6.984-16.806-4.81-4.858-9.9-7.056-16.514-7.056-6.751 0-11.77 2.187-16.59 7.056-4.793 4.843-6.984 10.093-6.984 16.807v88.543h-40.16v-88.543c0-6.714-2.19-11.964-6.984-16.807-4.82-4.869-9.837-7.056-16.588-7.056-6.613 0-11.706 2.198-16.516 7.056-4.794 4.843-6.984 10.093-6.984 16.807v88.543h-40.162v-88.543c0-17.517 6.463-33.038 18.771-45.47 12.315-12.44 27.642-18.845 44.89-18.845 16.925 0 31.636 6.315 43.58 17.825 11.98-11.53 26.796-17.825 43.727-17.825 17.25 0 32.575 6.404 44.89 18.844 12.308 12.433 18.77 27.954 18.77 45.47l.145 110.516c-1.898 18.506-9.705 34.951-23.062 48.674h-.073c-15.705 15.99-35.173 24.229-57.332 24.229h-144.2c-17.65-1.888-33.358-10.245-46.419-23.137-15.281-15.222-23.137-34.047-23.137-55.514z"/></svg>