<svg xmlns="http://www.w3.org/2000/svg" viewBox="0 0 732 732"><path d="M2.67 0v731h89.3V0zM219.3.3c.6 30.1-1.53 60.4 1.67 90.3 127 69 254 136.3 381 204v29.7l.33-.8v29.7h128v-90.1c-128-67-255-134.6-383-202V.3zm382.67.1v60.9c-24.4 12.5-49.3 24.5-73.3 37.8 27.8 14.9 56.5 27.9 84.6 42.2l.23-.08c3.61 1.78 7.09 3.77 10.8 5.28 34.2-17.6 69.6-36.8 104-55.8 3.2-29.8 1.075-60.2 1.67-90.3zm-278 208.7c-35.4 17.3-69.7 37.2-105 54.9v90h128v-47c-4-13.49 6.2-18.37 17.2-22.7 13.5-10.7 52.43-19.3 51.4-31.6-30.4-14.7-60.6-30.5-91.6-43.6zm158.58 168.168c-50.75.047-101.5.443-152 .732-43.5-1.4-94.3 18.7-107 64.3-7.87 32-2.73 65.7-4.26 98.4 1.36 39.9-2.3 80.4 3.28 120 10.3 40.8 51.5 63.78 91.1 67.3l-1.22.11 5.37.431c137 2.344 274 1.09 411 1.6v-95.9c-115-.324-231-.294-346-1.02-24.1-2.7-60.3 8.2-72.9-19.6-3.87-29-1.28-58.501-1.77-87.701-4.4-26.2 3.8-58.01 36.6-55.2 75-3.63 149.4-.92 224-1.26-60 40.6-120.6 80.801-181 121l158 .06c57-38.2 113.8-77.1 171-115 13.34-4.6 15.67-15.9 11.8-28.9-6.7-44.1-53.5-66.61-94-68-50.5-1.1-101.25-1.4-152-1.352z"/></svg>