<svg xmlns="http://www.w3.org/2000/svg" width="800" height="800" viewBox="0 0 32 32"><path d="M16.3 4.93a11.1 11.1 0 0 0-11 10.2l-1.8.862-.237.118-.006.007a3 3 0 0 0-1.3 2.72 8.05 8.05 0 0 0 1.15 3.99c1.21 2.1 3.1 3.54 4.7 3.54a2.3 2.3 0 0 0 1.17-.332v-.015l1.46-.711a11.1 11.1 0 0 0 17-8.84l1.31-.746.02-.014a2.9 2.9 0 0 0 .875-1.06l.023-.064a4.4 4.4 0 0 0 .318-1.74 8.96 8.96 0 0 0-1.32-4.05 7.8 7.8 0 0 0-2.78-2.55 3.3 3.3 0 0 0-1.23-.348.57.57 0 0 0-.32.075l-1.72.83a11.1 11.1 0 0 0-6.29-1.93zm.078.707c1.51.005 3.01.387 4.3 1.15.453.317.896.783.985 1.35l.003.017.004.03-.004-.03-.003-.017c.001.017.015.14.013.18l-.002.04c-.003.355-.147.702-.418 1.02a2 2 0 0 0 .278-.425l-.013.026a2 2 0 0 1-.278.413c-.2.232-.448.43-.699.59-1.27.79-2.83 1.03-4.29 1.05-.6.015-1.2-.043-1.79-.16l-.136-.023c-1.3-.321-3.14-.91-3.3-2.5.006-.74.584-1.31 1.17-1.67 1.26-.7 2.73-1.05 4.19-1.05zm4.87 3.75-.012.014zm3.4-3.05a2.9 2.9 0 0 1 1.08.317 7.4 7.4 0 0 1 2.63 2.43 8.8 8.8 0 0 1 1.23 3.82 4 4 0 0 1-.3 1.62l.02-.001-.023.064a2.54 2.54 0 0 1-.74.884l-1.11.628-.022.013v-.104a11.1 11.1 0 0 0-4.47-8.89h.009l1.58-.762a.4.4 0 0 1 .111-.013zm-3.47 3.14c-.251.272-.594.524-1.02.747l-.001-.005c.427-.223.77-.473 1.02-.742zm-13.7 5.34c.778.003 1.54.382 2.17.834 1.42 1.05 2.42 2.6 2.96 4.26.291 1.18.618 2.62-.122 3.71-.15.232-.335.441-.546.618l-.016-.016c-.703.338-1.4.678-2.11 1.01.233-.355.353-.771.391-1.2a6.84 6.84 0 0 0-1.05-4.67c-.814-1.47-2.12-2.78-3.72-3.35a3.2 3.2 0 0 0-.683-.14c.648-.311 1.29-.624 1.94-.934a2.2 2.2 0 0 1 .778-.133zm16.9.144q.252-.001.507.055c.898.208 1.37 1.1 1.47 1.95.195 1.68-.426 3.35-1.36 4.73-.725 1.05-1.68 2.01-2.89 2.46-.723.268-1.62.274-2.21-.296-.839-.832-.845-2.14-.634-3.23l.05-.26c.465-1.82 1.51-3.55 3.05-4.66.59-.412 1.29-.75 2.02-.753zm-19.9 1.29q.198.002.395.015c.892.113 1.67.684 2.34 1.23 1.16 1.01 1.97 2.38 2.44 3.83.322 1 .443 2.1.144 3.12q-.056.157-.116.316v.012c-.362 1.03-1.58 1.41-2.55 1.1-1.21-.352-2.19-1.24-2.96-2.22-1.16-1.51-1.89-3.4-1.76-5.33.109-.787.564-1.64 1.33-1.96.234-.102.486-.127.738-.127z"/></svg>