<svg xmlns="http://www.w3.org/2000/svg" viewBox="0 0 48 48"><path d="M27.9 47.5c1.43-.204 2.24-1.56 1.9-2.86l-.816-2.99c-.34-1.16-1.43-1.84-2.52-1.7-5.24.748-10.3-1.02-13.8-4.42-6.46-6.46-6.26-16.7-.068-22.9 6.39-6.39 16.6-6.39 22.9 0 3.74 3.74 5.31 8.84 4.56 13.8-.136 1.09.544 2.18 1.7 2.52l2.99.816c1.29.34 2.65-.476 2.86-1.9 1.22-7.35-1.02-15.2-6.73-20.7-9.25-9.25-24.5-9.25-33.7.068-9.32 9.32-9.32 24.4 0 33.7 5.65 5.65 13.4 7.82 20.7 6.6zm-7.14-21.3 16.3 16.3c.884.884 2.38.884 3.27 0l2.18-2.18c.952-.952.884-2.38 0-3.27l-16.3-16.3c-.952-.952-2.31-.952-3.27 0l-2.18 2.18c-.884.884-.952 2.31 0 3.27z"/></svg>