<svg xmlns="http://www.w3.org/2000/svg" width="512" height="512" viewBox="0 0 512 512"><g transform="translate(-47.853 6.52)scale(2.37044)"><path d="M128.017 0a105.24 105.24 0 0 0-61.36 19.9L90.56 43.803a72 72 0 0 1 37.457-10.582c39.772 0 72.014 32.241 72.014 72.014a72 72 0 0 1-10.601 37.437l23.948 23.948a105.24 105.24 0 0 0 19.874-61.385C233.252 47.115 186.136 0 128.017 0Zm61.359 190.57-23.903-23.903a72 72 0 0 1-37.456 10.582c-39.773 0-72.015-32.242-72.014-72.014a72 72 0 0 1 10.601-37.437L42.656 43.85a105.24 105.24 0 0 0-19.874 61.385c0 58.12 47.115 105.235 105.235 105.235a105.24 105.24 0 0 0 61.359-19.9z"/><circle cx="128" cy="105.235" r="33.503"/></g></svg>