<svg xmlns="http://www.w3.org/2000/svg" viewBox="0 0 48 48"><path d="M23.2 1.08a2.934 2.934 0 0 0-.882 4.06c4.85 7.51 6 13.2 5.5 18.1-2.01 9.51-6.37 11.4-10.2 11.4-3.72 0-2.73-6.13.073-7.92C19.36 25.68 21.5 25 23.15 25c1.63 0 2.95-1.32 2.95-2.94s-1.32-2.94-2.95-2.94c-1.92 0-3.8.403-5.56 1.09.359-1.69.492-3.52.027-5.47-.705-2.95-2.73-5.78-6.26-8.51-.617-.48-1.4-.696-2.18-.6s-1.48.495-1.96 1.11a2.94 2.94 0 0 0 .517 4.13c2.87 2.23 3.82 3.88 4.14 5.24.324 1.36.063 2.81-.588 4.82-.832 2.7-1.8 5.11-2.22 7.42-.208 1.14-.226 2.37-.28 3.36-2.07-2.01-2.88-4.67-2.88-8.56 0-1.62-1.32-2.94-2.95-2.94a2.954 2.954 0 0 0-2.95 2.94c0 5.31 1.55 10.4 5.71 13.7 3.77 3.59 13.3 2.26 13.3 8.02 0 1.63 2.38 2.42 4.01 2.42 1.67 0 3.77-1.12 3.77-2.42 0-6.53 6.89-10.5 18.2-10.5a2.94 2.94 0 0 0 2.95-2.94 2.95 2.95 0 0 0-2.94-2.95 37 37 0 0 0-2.28.07c1.27-2.98 1.83-6.26 1.71-9.81a2.95 2.95 0 0 0-3.04-2.84 2.944 2.944 0 0 0-2.85 3.04c.154 4.64-.02 8.78-3.48 11-.983.62-2.13 1.16-3.21 1.16.84-2.29 1.48-4.7 1.74-7.31.166-1.66.184-3.64-.006-5.17-.294-2.38-.649-5.07.252-7.1.81-1.75 2.63-2.48 5.29-2.48a2.954 2.954 0 0 0 2.95-2.94 2.946 2.946 0 0 0-2.95-2.94c-3.96 0-6.96 2.08-8.67 4.6-.89-1.9-1.97-3.86-3.28-5.89a2.93 2.93 0 0 0-1.85-1.28 2.96 2.96 0 0 0-2.22.398z"/></svg>