<svg xmlns="http://www.w3.org/2000/svg" viewBox="0 0 30 30"><path d="M17.68 7.3c-1.4-.01-2.57.52-3.49 1.58-.1.09-.08.16.07.21.43.19.79.37 1.08.55.11.03.19.02.22-.03.61-.57 1.31-.86 2.12-.86s1.5.27 2.1.81c.59.54.92 1.21.99 2l.09.64h1.42c.65 0 1.21.23 1.68.7s.7 1.02.7 1.66c0 .6-.21 1.12-.62 1.57s-.92.7-1.53.77c-.1 0-.15.05-.15.16v1.13c0 .11.05.16.15.16 1.01-.06 1.86-.46 2.55-1.19s1.04-1.6 1.04-2.6c0-1.06-.37-1.96-1.12-2.7a3.68 3.68 0 0 0-2.7-1.12h-.15c-.26-1-.81-1.82-1.65-2.47a4.43 4.43 0 0 0-2.8-.97zM12.2 9.46c-1.22 0-2.29.37-3.22 1.12-.93.74-1.52 1.71-1.78 2.88-.97.22-1.76.72-2.38 1.49a4.12 4.12 0 0 0-.93 2.65c0 .57.11 1.14.34 1.66s.53.98.91 1.36.85.66 1.37.89 1.07.34 1.65.34h9.27c1.18 0 2.18-.42 3.01-1.25s1.25-1.83 1.25-3.01c0-1.17-.42-2.17-1.25-3s-1.83-1.24-3.01-1.24h-.27c-.27-1.14-.87-2.07-1.8-2.8-.92-.73-1.98-1.09-3.16-1.09zm-.02 1.44c.94 0 1.76.31 2.45.93s1.09 1.41 1.19 2.35l.07.49q0 .15.15.15h1.39c.78 0 1.44.28 1.99.82.56.54.83 1.2.83 1.96s-.28 1.41-.83 1.96-1.22.82-1.99.82H8.15c-.78 0-1.45-.28-1.99-.82s-.82-1.2-.82-1.96c0-.73.25-1.36.71-1.89a2.7 2.7 0 0 1 1.81-.89l.45-.07c.11 0 .16-.05.16-.15l.07-.42c.09-.93.48-1.72 1.18-2.34.7-.63 1.52-.94 2.46-.94z"/></svg>