<svg xmlns="http://www.w3.org/2000/svg" viewBox="0 0 30 30"><path d="M17.76.82c-.24 0-.44.08-.6.25s-.25.37-.25.61v2.07c0 .24.08.44.25.61s.37.25.6.25c.24 0 .44-.08.6-.25s.24-.37.24-.61V1.69c0-.24-.08-.45-.24-.61a.8.8 0 0 0-.6-.26zm-6.98 2.92q-.375 0-.63.24c-.16.18-.25.38-.25.61s.08.43.25.6l.65.66c.16.16.34.24.55.26.21.03.41-.04.61-.23a.83.83 0 0 0 .3-.64c0-.23-.08-.43-.25-.6l-.63-.66a.82.82 0 0 0-.6-.24zm13.96 0c-.23 0-.42.09-.58.26l-1.44 1.44c-.16.15-.23.35-.23.6 0 .24.08.44.23.6.14.16.32.24.55.26s.44-.07.63-.26l1.44-1.44a.76.76 0 0 0 .26-.6c0-.24-.09-.44-.26-.6a.76.76 0 0 0-.6-.26zM17.75 6.3q-1.08 0-2.1.45c-.68.3-1.26.72-1.76 1.25-.81-.43-1.71-.65-2.72-.65-1.42 0-2.68.44-3.77 1.32s-1.8 2-2.1 3.37c-1.11.26-2.02.84-2.74 1.74-.71.92-1.07 1.95-1.07 3.1 0 1.12.33 2.12 1 3s1.53 1.47 2.58 1.76l-.66 1.7c-.05.14 0 .22.14.22h2.13l-1.43 4.21h.29l4.36-5.66c.04-.04.04-.09.02-.14s-.07-.07-.14-.07H7.59l2.49-4.65c.07-.14.03-.22-.14-.22H6.98c-.09 0-.17.05-.23.15l-1.07 2.88A3.14 3.14 0 0 1 3.9 18.9a3.14 3.14 0 0 1-.7-2.02c0-.84.28-1.57.84-2.18a3.32 3.32 0 0 1 2.11-1.07l.51-.03c.12 0 .19-.05.22-.14l.07-.59c.11-1.08.56-1.99 1.37-2.72a4.13 4.13 0 0 1 2.86-1.1c1.09 0 2.04.37 2.86 1.1s1.29 1.64 1.4 2.72l.08.59c0 .11.06.17.18.17h1.61q1.335 0 2.31.96c.65.64.97 1.4.97 2.29 0 .87-.3 1.62-.9 2.26s-1.32.98-2.18 1.03c-.13 0-.2.06-.2.18v1.34c0 .11.07.17.2.17a4.66 4.66 0 0 0 2.42-.72c.73-.45 1.31-1.06 1.74-1.81s.64-1.57.64-2.45a4.7 4.7 0 0 0-.43-2.02 5.16 5.16 0 0 0 1.14-3.29c0-.95-.24-1.83-.71-2.64a5.2 5.2 0 0 0-1.92-1.92 5.2 5.2 0 0 0-2.64-.71zm.01 1.75c.98 0 1.82.34 2.51 1.03a3.4 3.4 0 0 1 1.04 2.5c0 .66-.16 1.26-.47 1.81-.96-.96-2.13-1.44-3.52-1.44h-.31c-.29-1.19-.86-2.17-1.7-2.93.67-.64 1.48-.97 2.45-.97zm7.83 2.69c-.24 0-.45.08-.61.24-.17.16-.25.36-.25.6s.09.44.26.59c.16.18.36.26.6.26h2.06c.24 0 .44-.08.61-.25s.25-.37.25-.6a.8.8 0 0 0-.25-.6.85.85 0 0 0-.61-.24zm-1.48 6.34c-.24 0-.44.09-.6.26s-.25.38-.25.61.08.43.25.6l.65.63c.18.17.39.25.62.25l.02.02q.33 0 .54-.27a.76.76 0 0 0 .26-.6c0-.23-.09-.43-.26-.61l-.62-.62a.84.84 0 0 0-.61-.27zm-12.194 3.035a.8.8 0 0 0-.477.115c-.21.12-.34.3-.41.53l-.228.9c-.01.08-.022.17-.022.27-.01.15.03.31.14.47q.15.24.45.3c.23.06.44.04.64-.06s.33-.29.41-.56l.26-.9a.74.74 0 0 0-.07-.63.87.87 0 0 0-.529-.4 1 1 0 0 0-.164-.035zm3.184.186c-.24 0-.43.078-.59.228-.15.16-.23.35-.23.59q0 .345.24.57c.15.16.34.24.58.24s.43-.08.59-.23c.16-.16.23-.35.23-.58a.78.78 0 0 0-.82-.818zm-.534 2.289a.8.8 0 0 0-.496.11c-.2.12-.34.29-.41.53l-.09.59c0 .01 0 .05-.01.11-.01.07-.02.11-.02.15q0 .255.15.48c.1.15.25.26.46.32.03 0 .08.01.14.02s.11.02.14.02c.41 0 .66-.22.76-.66l.14-.6c.07-.21.05-.42-.07-.63a.86.86 0 0 0-.51-.41 1 1 0 0 0-.184-.03zm-3.586.8c-.24 0-.43.08-.59.23a.8.8 0 0 0-.23.58c0 .23.08.42.24.58s.36.24.58.24c.24 0 .43-.08.59-.23.16-.16.23-.35.23-.59a.78.78 0 0 0-.82-.809zm-.714 2.274a.8.8 0 0 0-.317.106c-.21.12-.34.29-.41.51l-.129.59c-.03.12-.04.2-.04.23 0 .17.05.33.16.49s.27.27.49.33q.135.03.24.03c.43 0 .7-.2.8-.61l.13-.59a.92.92 0 0 0-.08-.68.76.76 0 0 0-.53-.37.7.7 0 0 0-.314-.036z"/></svg>