<svg xmlns="http://www.w3.org/2000/svg" viewBox="0 0 30 30"><path d="M17.77.94c-.23 0-.43.09-.6.26a.83.83 0 0 0-.26.6v2.04h-.01c0 .23.08.43.25.58s.37.23.61.23.43-.08.59-.23c.16-.16.23-.35.23-.58V1.8c0-.24-.08-.44-.24-.61a.74.74 0 0 0-.57-.25zm6.91 2.86c-.22 0-.41.08-.58.25l-1.43 1.46c-.17.16-.25.36-.25.6 0 .23.08.43.25.59.15.16.34.24.56.26s.43-.07.62-.26l1.43-1.43c.18-.18.26-.38.26-.61a.83.83 0 0 0-.26-.61.82.82 0 0 0-.6-.25zm-13.83.03a.85.85 0 0 0-.63.25c-.17.16-.25.36-.25.6s.08.44.24.59l.66.66c.16.16.34.25.53.25.21.03.41-.04.61-.22q.3-.27.3-.63c0-.24-.08-.46-.24-.64l-.64-.61a.73.73 0 0 0-.58-.25zm6.92 2.55c-1.54 0-2.83.58-3.87 1.73-.81-.44-1.71-.66-2.69-.66-1.41 0-2.65.44-3.74 1.31s-1.78 1.99-2.09 3.34c-1.12.28-2.03.86-2.74 1.75-.71.9-1.06 1.92-1.06 3.08 0 .86.21 1.67.64 2.41.42.74 1 1.34 1.74 1.79.73.45 1.54.69 2.4.71.11 0 .17-.06.17-.17v-1.33c0-.12-.06-.19-.17-.19-.85-.04-1.58-.38-2.18-1.02s-.9-1.37-.9-2.21c0-.82.28-1.54.85-2.16.57-.61 1.26-.97 2.1-1.07l.53-.06c.12 0 .18-.06.18-.19l.08-.51c.11-1.09.56-2 1.36-2.73s1.75-1.09 2.85-1.09c1.09 0 2.04.36 2.85 1.09q1.23 1.095 1.38 2.7l.07.58c0 .11.06.17.17.17h1.61q1.35 0 2.31.96c.64.64.96 1.4.96 2.29 0 .84-.3 1.57-.9 2.21-.6.63-1.33.97-2.17 1.02-.12 0-.19.06-.19.19v1.33c0 .11.06.17.19.17 1.33-.04 2.45-.54 3.38-1.5s1.39-2.09 1.39-3.41c0-.76-.14-1.43-.43-2.03A5.1 5.1 0 0 0 23 11.6c0-.94-.23-1.81-.7-2.61a5.3 5.3 0 0 0-1.91-1.91c-.8-.47-1.68-.7-2.62-.7zm0 1.69c.97 0 1.8.35 2.48 1.04.69.69 1.03 1.53 1.03 2.49 0 .62-.17 1.24-.51 1.84-.95-.96-2.11-1.44-3.47-1.44h-.32q-.45-1.755-1.68-2.94c.69-.66 1.51-.99 2.47-.99zm7.78 2.68c-.24 0-.44.08-.62.25s-.26.37-.26.6c0 .24.09.43.26.59a.83.83 0 0 0 .62.27h2.02c.23 0 .43-.08.6-.25s.25-.37.25-.61-.08-.44-.25-.6a.86.86 0 0 0-.6-.25zm-1.49 6.31c-.23 0-.43.08-.59.25-.17.16-.25.36-.25.6 0 .25.08.46.24.62l.64.63c.24.16.46.24.64.24.21 0 .39-.09.56-.26s.25-.38.25-.61a.77.77 0 0 0-.26-.58l-.62-.65a.9.9 0 0 0-.61-.24zm-12.14 1.4c-.23 0-.42.08-.58.24a.83.83 0 0 0-.24.6c0 .23.08.42.24.58a.8.8 0 0 0 .58.24q.36 0 .6-.24c.17-.16.25-.35.25-.59 0-.23-.08-.43-.25-.59a.84.84 0 0 0-.6-.24zm-3.17 1.7c-.23 0-.43.08-.59.24s-.24.36-.24.58c0 .24.08.44.24.61s.35.25.59.25c.23 0 .43-.08.59-.25s.24-.37.24-.61c0-.23-.08-.42-.24-.58a.8.8 0 0 0-.59-.24zm6.4 0c-.24 0-.43.08-.59.24s-.24.36-.24.58c0 .24.08.44.24.61s.36.25.59.25.43-.08.59-.25.24-.37.24-.61c0-.23-.08-.42-.24-.58a.8.8 0 0 0-.59-.24zm-3.23 1.89c-.23 0-.42.08-.58.25q-.24.255-.24.6 0 .33.24.6c.16.16.36.24.58.24q.36 0 .6-.24c.16-.16.25-.36.25-.6 0-.23-.08-.43-.25-.6a.82.82 0 0 0-.6-.25zm-3.19 1.74a.84.84 0 0 0-.59.23c-.14.15-.22.35-.22.59q0 .315.24.57c.18.16.37.24.58.24.24 0 .43-.08.59-.23.16-.16.23-.35.23-.58 0-.24-.08-.43-.24-.59a.78.78 0 0 0-.59-.23zm6.41 0q-.36 0-.6.24a.847.847 0 0 0 .012 1.15q.268.24.598.24c.24 0 .43-.08.59-.23.16-.16.23-.35.23-.58 0-.24-.08-.43-.24-.59a.78.78 0 0 0-.59-.23zm-3.22 1.92c-.22 0-.41.08-.58.25q-.24.255-.24.6 0 .33.24.57c.17.17.36.25.58.25.24 0 .44-.08.6-.23.17-.16.25-.35.25-.59s-.08-.44-.25-.6a.82.82 0 0 0-.6-.25z"/></svg>