<svg xmlns="http://www.w3.org/2000/svg" viewBox="0 0 30 30"><path d="M11.72 5.4c-1.13 0-2.13.35-3.01 1.06a4.8 4.8 0 0 0-1.7 2.71c-.88.2-1.61.67-2.19 1.4a3.87 3.87 0 0 0-.87 2.48c0 1.07.38 2 1.12 2.77S6.72 17 7.79 17.05h5.7c.24.91.74 1.67 1.48 2.26s1.6.89 2.56.89c.75 0 1.45-.18 2.09-.56a4.17 4.17 0 0 0 1.53-1.53q.57-.96.57-2.1c0-1.1-.37-2.05-1.12-2.85v-.1c0-1.1-.39-2.04-1.17-2.81s-1.72-1.16-2.82-1.16h-.26a4.62 4.62 0 0 0-1.68-2.65c-.87-.69-1.85-1.04-2.95-1.04zm-.01 1.36c.86 0 1.62.3 2.28.89s1.03 1.32 1.12 2.19l.07.47c0 .09.05.14.14.14h1.29c.72 0 1.33.25 1.86.77.53.51.79 1.12.79 1.83 0 .7-.24 1.3-.73 1.82-.48.52-1.07.79-1.75.82H7.79c-.68-.03-1.26-.31-1.75-.82a2.53 2.53 0 0 1-.73-1.82c0-.67.23-1.26.69-1.75.45-.5 1.02-.78 1.69-.86h.4c.11 0 .16-.05.16-.14l.06-.47c.09-.87.44-1.6 1.09-2.19s1.42-.88 2.31-.88zm11.37 2.99c-.2 0-.36.07-.5.19l-1.13 1.18c-.13.12-.19.28-.19.47s.06.35.2.49c.12.13.28.19.47.19s.35-.07.47-.19l1.18-1.15c.13-.15.2-.3.2-.48 0-.19-.07-.36-.2-.51a.73.73 0 0 0-.5-.19zm-2.95 5.19c.13.31.19.66.19 1.05a2.8 2.8 0 0 1-.81 2.02c-.54.55-1.2.83-1.97.83-.59 0-1.12-.17-1.6-.5s-.83-.76-1.04-1.3h1.88a3.9 3.9 0 0 0 1.96-.61c.59-.38 1.06-.88 1.39-1.49zm3.61.37a.62.62 0 0 0-.47.2c-.13.13-.19.29-.19.48 0 .2.06.36.19.49s.28.2.47.2h1.62c.2 0 .36-.07.5-.2s.21-.3.21-.49q0-.285-.21-.48a.72.72 0 0 0-.5-.2zm-10.58 4.44c-.21 0-.38.06-.52.18l-1.13 1.15c-.25.33-.25.65 0 .98.12.12.28.19.48.19s.37-.07.49-.19l1.14-1.18a.65.65 0 0 0 .18-.48.64.64 0 0 0-.18-.47.62.62 0 0 0-.46-.18zm8.76 0c-.18 0-.34.07-.47.19a.62.62 0 0 0-.19.46c0 .17.06.33.19.47l1.13 1.18c.13.13.29.19.5.19.19 0 .36-.07.49-.2s.2-.29.2-.48a.7.7 0 0 0-.2-.48l-1.18-1.15a.64.64 0 0 0-.47-.18zm-4.39 1.82c-.18 0-.35.07-.48.19a.64.64 0 0 0-.2.47h.01v1.64c0 .19.07.35.2.49s.3.21.48.21.35-.07.48-.21.2-.3.2-.49v-1.64a.62.62 0 0 0-.19-.45.72.72 0 0 0-.5-.21z"/></svg>