<svg xmlns="http://www.w3.org/2000/svg" xml:space="preserve" viewBox="0 0 30 30"><path d="M15.33 1.2q-.405 0-.69.27a.88.88 0 0 0-.29.66v2.34c0 .27.1.51.29.7s.42.29.69.29a.95.95 0 0 0 .7-.29.95.95 0 0 0 .29-.7V2.13a.88.88 0 0 0-.29-.66.97.97 0 0 0-.7-.27zM7.35 4.47c-.28 0-.51.09-.68.28a1 1 0 0 0-.25.7c0 .28.09.51.26.67l1.61 1.69q.705.54 1.41 0a.95.95 0 0 0 .28-.7c0-.27-.09-.5-.28-.7L8.05 4.76c-.21-.19-.45-.29-.7-.29zm15.91.01c-.26 0-.49.1-.68.29L20.94 6.4q-.27.27-.27.69t.27.72c.18.18.41.27.68.27a.93.93 0 0 0 .68-.27l1.69-1.69c.18-.17.26-.39.26-.67s-.1-.51-.29-.69a.98.98 0 0 0-.7-.28zm-7.94 2.94c-1.09 0-2.1.27-3.02.81a6 6 0 0 0-2.18 2.18 5.9 5.9 0 0 0-.79 3.01v.34q-1.5.855-1.98 2.49c-.76.24-1.36.66-1.81 1.27a3.44 3.44 0 0 0-.68 2.09c0 .97.35 1.81 1.06 2.52s1.54 1.06 2.51 1.06h6.86q1.455 0 2.49-1.05a3.48 3.48 0 0 0 1.04-2.53q0-.72-.21-1.23a5.74 5.74 0 0 0 1.97-2.12c.48-.88.73-1.83.73-2.84 0-.81-.16-1.59-.48-2.33a6.1 6.1 0 0 0-1.28-1.91 6.1 6.1 0 0 0-1.91-1.28c-.74-.32-1.51-.48-2.32-.48zm0 1.92c1.11 0 2.06.4 2.84 1.19s1.17 1.76 1.17 2.89q0 1.05-.51 1.95c-.34.6-.8 1.08-1.38 1.45-.59-.49-1.27-.73-2.03-.73A4.06 4.06 0 0 0 13.87 14a4.17 4.17 0 0 0-2.48-.78h-.13c.07-1.09.49-2.01 1.27-2.76a3.9 3.9 0 0 1 2.79-1.12zm-11.23 3.1c-.29 0-.53.09-.72.28-.19.17-.28.41-.28.71 0 .27.09.49.28.67s.43.26.72.26h1.69a.97.97 0 0 0 .69-.27c.19-.18.29-.4.29-.66 0-.29-.09-.53-.28-.71a.98.98 0 0 0-.69-.28zm20.17 0c-.29 0-.53.09-.72.28-.19.17-.29.41-.29.71 0 .27.09.49.28.67s.43.26.72.26h1.69a.97.97 0 0 0 .69-.27c.19-.18.29-.4.29-.66 0-.29-.09-.53-.28-.71a.98.98 0 0 0-.69-.28zm-12.88 2.69c.58 0 1.09.19 1.51.58q.645.585.75 1.44l.08.65c.06.15.14.23.24.23h1.32c.43 0 .8.16 1.12.47s.47.68.47 1.12c0 .45-.16.83-.47 1.15s-.69.48-1.12.48H8.43c-.45 0-.83-.16-1.13-.48-.31-.32-.46-.71-.46-1.16 0-.42.13-.78.4-1.08q.405-.45 1.02-.51l.62-.08c.13 0 .2-.08.2-.23l.09-.56c.07-.58.31-1.06.73-1.44.42-.39.91-.58 1.48-.58zm10.24 3.62c-.28 0-.5.09-.68.27s-.27.41-.27.68.09.5.27.7l1.64 1.62q.63.63 1.41 0c.18-.17.26-.39.26-.68 0-.27-.09-.49-.26-.67L22.3 19a.96.96 0 0 0-.68-.25z"/></svg>