<svg xmlns="http://www.w3.org/2000/svg" xml:space="preserve" viewBox="0 0 30 30"><path d="M8.2 9.9c-.27 0-.48.07-.64.22-.15.14-.23.33-.23.55 0 .27.07.5.23.65s.37.23.64.23h2.96c.27 0 .48-.08.64-.24s.24-.37.24-.64c0-.22-.08-.41-.24-.55-.16-.15-.37-.22-.64-.22zm5.49 0c-.27 0-.48.08-.64.22s-.24.33-.24.55c0 .27.07.48.23.64s.38.24.65.24h5.71c.23 0 .43-.08.61-.24s.27-.38.27-.64a.68.68 0 0 0-.27-.54.93.93 0 0 0-.61-.23zm8.11 0a.74.74 0 0 0-.55.22c-.15.15-.22.33-.22.55 0 .27.07.48.22.64.14.16.32.24.55.24.27 0 .48-.08.64-.24s.24-.37.24-.64c0-.22-.08-.41-.24-.55-.16-.15-.37-.22-.64-.22zm-11.3 2.83a.68.68 0 0 0-.54.27c-.15.17-.22.38-.22.61 0 .27.07.48.21.64s.32.24.55.24c.28 0 .49-.07.65-.23.15-.16.23-.38.23-.65 0-.23-.08-.43-.24-.61a.83.83 0 0 0-.64-.27zm2.43 0c-.21 0-.42.1-.6.28-.19.18-.28.38-.28.6 0 .27.09.48.27.64.17.16.38.24.61.24h3.83c.27 0 .48-.07.64-.23.15-.16.23-.38.23-.65 0-.23-.08-.43-.24-.61a.8.8 0 0 0-.63-.27zm6.24 0c-.21 0-.42.1-.6.28-.19.18-.28.38-.28.6 0 .27.09.48.27.64.17.16.38.24.61.24h1.96c.22 0 .41-.08.55-.24.15-.16.22-.37.22-.64 0-.23-.08-.43-.23-.61a.68.68 0 0 0-.54-.27zM8.2 15.8c-.27 0-.48.07-.64.22-.15.15-.23.33-.23.56 0 .28.07.49.23.64s.37.23.64.23h5.71c.27 0 .49-.08.64-.23s.23-.37.23-.64c0-.23-.07-.41-.23-.56s-.37-.22-.64-.22zm8.12 0c-.23 0-.43.08-.61.23a.7.7 0 0 0-.27.55q0 .405.27.63c.17.16.38.24.61.24s.43-.08.61-.24q.27-.24.27-.63a.7.7 0 0 0-.27-.55.92.92 0 0 0-.61-.23zm2.41 0a.93.93 0 0 0-.61.23.7.7 0 0 0-.27.55q0 .405.27.63c.17.16.38.24.61.24h3.07c.23 0 .41-.07.55-.23s.21-.37.21-.64c0-.22-.08-.4-.22-.55a.7.7 0 0 0-.54-.23zM9.2 18.66c-.21 0-.42.1-.6.28-.19.18-.28.38-.28.6 0 .26.08.47.27.64.17.16.38.24.61.24.27 0 .48-.07.63-.23s.23-.38.23-.65c0-.23-.08-.43-.24-.61a.78.78 0 0 0-.62-.27zm2.41 0a.87.87 0 0 0-.879.879c0 .27.07.48.23.64q.242.24.648.24h3.83c.23 0 .432-.07.612-.24a.84.84 0 0 0 .27-.64l-.882-.879zm6.24 0a.8.8 0 0 0-.63.27.87.87 0 0 0-.24.61c0 .27.08.49.23.65.16.15.37.23.64.23h1.87c.27 0 .49-.07.64-.23s.23-.38.23-.65c0-.24-.08-.45-.24-.62a.83.83 0 0 0-.63-.26z"/></svg>