<svg xmlns="http://www.w3.org/2000/svg" viewBox="0 0 30 30"><path d="M14.78 7.42c-1.4 0-2.64.44-3.73 1.32s-1.78 2-2.09 3.36c-.85.2-1.6.6-2.24 1.21a4.85 4.85 0 0 0-1.34 2.18v-.04c-.01 0-.01.03-.01.07 0 .09.05.13.15.13h1.43c.06 0 .13-.05.2-.16.24-.52.59-.94 1.06-1.27s.99-.52 1.55-.56l.55-.07c.11 0 .17-.06.17-.18l.07-.5c.11-1.08.56-1.98 1.37-2.7q1.215-1.08 2.85-1.08c1.08 0 2.02.36 2.83 1.07.8.71 1.26 1.61 1.37 2.68l.08.57c0 .11.07.17.2.17h1.59c.64 0 1.23.17 1.76.52s.92.8 1.18 1.37c.07.11.14.16.21.16h1.43c.12 0 .17-.07.14-.23-.29-1.02-.88-1.86-1.74-2.51-.87-.65-1.86-.97-2.97-.97h-.32a5.88 5.88 0 0 0-2.1-3.27 5.7 5.7 0 0 0-3.65-1.27zm-8.69 9.66c-.24 0-.44.08-.59.23-.17.16-.26.36-.26.6 0 .23.08.43.25.6.16.17.36.25.6.25h18.67c.23 0 .42-.08.58-.25.15-.16.23-.36.23-.6s-.07-.43-.23-.59a.8.8 0 0 0-.58-.24zM3.5 20.2q-.375 0-.63.24a.8.8 0 0 0-.25.61c0 .23.08.42.25.58.17.15.38.23.63.23h18.67c.23 0 .43-.07.6-.23.17-.15.25-.35.25-.58a.82.82 0 0 0-.85-.852zm4.34 3.09c-.25 0-.45.08-.6.23-.17.16-.26.35-.26.59 0 .23.09.44.26.59.17.17.37.26.6.26h18.68c.23 0 .43-.08.6-.25s.25-.37.25-.61c0-.23-.08-.42-.25-.58a.85.85 0 0 0-.6-.23z"/></svg>