<svg xmlns="http://www.w3.org/2000/svg" xml:space="preserve" viewBox="0 0 30 30"><path d="M14.99 8.78a.78.78 0 0 0-.61.26c-.16.18-.24.39-.24.64v2.13c0 .25.08.47.24.64s.37.26.61.26a.85.85 0 0 0 .63-.25.86.86 0 0 0 .25-.64V9.68c0-.25-.08-.47-.25-.64a.86.86 0 0 0-.63-.26zm-7.21 3.01c-.27 0-.48.08-.65.26a.88.88 0 0 0-.23.63c0 .27.08.47.24.62l1.5 1.5c.17.18.39.27.64.27q.375 0 .6-.27a.86.86 0 0 0 0-1.25l-1.5-1.5a.83.83 0 0 0-.6-.26zm14.49 0c-.26 0-.46.08-.62.26l-1.54 1.5a.88.88 0 0 0-.25.63c0 .25.11.48.32.66s.42.26.65.24c.2-.02.39-.11.56-.28l1.48-1.5c.15-.15.23-.36.23-.62s-.07-.47-.23-.64a.8.8 0 0 0-.6-.25zm-7.29 2.66c-1.2 0-2.28.35-3.23 1.06-.93.71-1.58 1.63-1.92 2.76-.04.16.01.23.15.23h1.49c.07 0 .14-.06.22-.17.3-.64.74-1.14 1.33-1.52s1.24-.56 1.96-.56c.73 0 1.39.19 1.99.56s1.05.88 1.35 1.52c.08.11.16.17.23.17h1.48c.13 0 .18-.08.15-.23a5.22 5.22 0 0 0-1.95-2.76c-.96-.71-2.04-1.06-3.25-1.06zm-9.14 5.67c-.28 0-.49.07-.63.23-.19.15-.28.36-.28.62 0 .24.09.45.27.62.18.18.39.27.64.27h18.34c.24 0 .45-.1.63-.27s.27-.38.27-.62-.08-.45-.26-.61a.93.93 0 0 0-.64-.24z"/></svg>