<svg xmlns="http://www.w3.org/2000/svg" viewBox="0 0 30 30"><path d="M15.01 5c-.24 0-.44.08-.61.26a.86.86 0 0 0-.25.62v2.09c0 .24.08.44.25.62.17.17.37.26.61.26s.44-.08.62-.26a.87.87 0 0 0 .26-.62V5.88c0-.24-.09-.45-.26-.62a.87.87 0 0 0-.62-.26zM7.93 7.95c-.24 0-.45.09-.62.27-.15.14-.23.33-.23.59 0 .27.08.47.23.61l1.49 1.47q.27.24.6.24.36 0 .6-.24c.16-.16.24-.36.24-.61a.76.76 0 0 0-.26-.6L8.54 8.22a.8.8 0 0 0-.61-.27zm14.14 0a.83.83 0 0 0-.62.27l-1.44 1.46q-.24.24-.24.6c0 .25.08.46.23.61.16.15.36.23.61.22a.83.83 0 0 0 .59-.22l1.51-1.47c.15-.15.23-.35.23-.61 0-.24-.08-.44-.25-.61a.8.8 0 0 0-.62-.25zm-7.06 2.61q-1.44 0-2.67.72a5.36 5.36 0 0 0-1.95 1.95c-.48.82-.71 1.71-.71 2.67 0 .87.18 1.65.53 2.33.03.09.11.14.24.14h1.67c.07 0 .12-.02.14-.06s-.01-.1-.07-.16c-.53-.65-.8-1.4-.8-2.25 0-.99.36-1.84 1.07-2.54q1.065-1.05 2.55-1.05t2.55 1.05c.71.7 1.05 1.55 1.05 2.54 0 .86-.27 1.61-.8 2.25q-.06.09-.06.12c-.01.03 0 .06.03.07.02.02.06.03.1.03h1.7c.09 0 .16-.05.21-.14.38-.71.56-1.48.56-2.33q0-1.44-.72-2.67a5.37 5.37 0 0 0-1.95-1.95 5.2 5.2 0 0 0-2.67-.72zM5 15.05c-.27 0-.48.08-.62.23-.18.15-.27.36-.27.62 0 .24.08.44.26.6.18.17.39.25.63.25h2.08c.24 0 .44-.08.6-.25s.24-.37.24-.61q0-.36-.24-.6a.8.8 0 0 0-.6-.24zm17.93 0c-.25 0-.45.08-.59.23-.16.15-.24.35-.24.62q0 .36.24.6c.16.17.36.25.59.25h2.09c.24 0 .44-.08.62-.25a.83.83 0 0 0 .26-.61c0-.24-.09-.44-.26-.6a.88.88 0 0 0-.62-.24zM5.9 20.14c-.24 0-.45.07-.61.23a.87.87 0 0 0-.26.61c0 .24.1.44.27.61s.37.26.61.26h18.2c.23 0 .44-.09.61-.26a.83.83 0 0 0 .26-.61c0-.24-.08-.44-.25-.6a.88.88 0 0 0-.62-.24z"/></svg>