<svg xmlns="http://www.w3.org/2000/svg" viewBox="0 0 30 30"><path d="M14.99 3.19c-1.53 0-2.98.3-4.37.89s-2.59 1.39-3.59 2.4-1.81 2.2-2.4 3.59-.89 2.85-.89 4.37c0 1.53.3 2.97.89 4.37q.885 2.1 2.4 3.6c1.01 1 2.2 1.81 3.59 2.4s2.85.89 4.37.89 2.97-.3 4.37-.89q2.1-.885 3.6-2.4a11.4 11.4 0 0 0 2.4-3.6c.59-1.39.89-2.84.89-4.37s-.3-2.98-.89-4.37-1.39-2.59-2.4-3.59-2.21-1.81-3.6-2.4-2.84-.89-4.37-.89zm-.18 1.21c-.84 1.35-1.49 2.9-1.95 4.64a21 21 0 0 0-.69 5.41c0 4.38.85 7.74 2.56 10.06a10 10 0 0 1-3.81-.87c-1.21-.54-2.26-1.26-3.13-2.16s-1.57-1.96-2.08-3.19a10 10 0 0 1-.77-3.85c0-1.79.45-3.46 1.33-4.98s2.07-2.74 3.58-3.65 3.16-1.38 4.96-1.41z"/></svg>