<svg xmlns="http://www.w3.org/2000/svg" viewBox="0 0 30 30"><path d="M15 3.16c-1.52 0-2.97.3-4.37.89q-2.1.885-3.6 2.4a11.4 11.4 0 0 0-2.4 3.6c-.59 1.39-.89 2.86-.89 4.39s.3 2.97.89 4.37q.885 2.1 2.4 3.6c1.01 1 2.21 1.81 3.6 2.4s2.85.89 4.37.89c1.54 0 2.99-.3 4.39-.89q2.1-.885 3.6-2.4c1-1.01 1.81-2.21 2.4-3.6s.89-2.85.89-4.37c0-1.54-.3-2.99-.89-4.39q-.885-2.1-2.4-3.6a11.4 11.4 0 0 0-3.6-2.4C18 3.46 16.53 3.16 15 3.16zm.01 1.2c1.82 0 3.5.44 5.05 1.35s2.78 2.13 3.68 3.68a9.87 9.87 0 0 1 1.35 5.05 9.9 9.9 0 0 1-.8 3.9c-.53 1.25-1.24 2.32-2.15 3.22s-1.98 1.62-3.22 2.15-2.54.8-3.91.8c-1.35 0-2.65-.26-3.9-.8s-2.32-1.25-3.22-2.15-1.62-1.98-2.15-3.22-.8-2.54-.8-3.9.26-2.66.8-3.9 1.25-2.31 2.15-3.22 1.98-1.63 3.22-2.16 2.54-.8 3.9-.8z"/></svg>