<svg xmlns="http://www.w3.org/2000/svg" xml:space="preserve" viewBox="0 0 30 30"><path d="M20.5 6.24c-1.52 0-2.83.58-3.93 1.75-.83-.38-1.72-.59-2.67-.59-1.41 0-2.67.44-3.76 1.31s-1.8 2-2.1 3.37c-1.11.26-2.02.84-2.74 1.74-.72.89-1.08 1.92-1.08 3.07 0 1.33.46 2.48 1.39 3.44s2.06 1.47 3.41 1.53c.11 0 .17-.06.17-.17v-1.37c0-.13-.06-.19-.17-.19a3.28 3.28 0 0 1-2.21-1.03c-.6-.62-.9-1.36-.9-2.21 0-.84.28-1.58.85-2.2s1.27-.97 2.11-1.04l.52-.07c.12 0 .19-.06.19-.19l.07-.5a4.1 4.1 0 0 1 1.38-2.72c.81-.73 1.77-1.1 2.87-1.1 1.09 0 2.05.36 2.86 1.09a4.18 4.18 0 0 1 1.4 2.72l.06.57c0 .12.06.18.19.18h1.6c.91 0 1.68.32 2.32.95s.97 1.4.97 2.28c0 .85-.3 1.59-.89 2.21s-1.33.97-2.19 1.03c-.14 0-.21.06-.21.19v1.37c0 .11.07.17.21.17 1.33-.04 2.46-.55 3.39-1.51.93-.97 1.39-2.12 1.39-3.45 0-.74-.14-1.41-.43-2.01.79-.96 1.18-2.07 1.18-3.36 0-.94-.24-1.82-.71-2.63a5.2 5.2 0 0 0-1.92-1.92 5.1 5.1 0 0 0-2.62-.71zm-.01 1.79q1.47 0 2.49 1.02a3.4 3.4 0 0 1 1.03 2.48c0 .63-.17 1.25-.51 1.85q-1.5-1.44-3.51-1.44h-.29c-.28-1.18-.85-2.15-1.69-2.92.67-.66 1.5-.99 2.48-.99zm-4.88 5.42-.25.26c-.19.2-.36.43-.51.7-.16.26-.23.48-.23.65 0 .27.09.49.28.67s.43.27.71.27q.39 0 .66-.27c.18-.18.27-.4.27-.67 0-.41-.31-.94-.93-1.61zm-4 1.87-.36.4q-.42.45-.75 1.05c-.23.4-.35.74-.35 1 0 .38.14.7.43.98.28.27.62.41 1.02.41s.73-.13 1-.4.41-.6.41-.98c0-.26-.12-.6-.35-1.02s-.45-.76-.66-1c-.02-.02-.08-.09-.18-.2q-.15-.165-.21-.24zm3.88 2.7-.59.58c-.44.42-.85.95-1.21 1.56-.37.62-.55 1.15-.55 1.6 0 .63.23 1.18.69 1.64q.69.69 1.65.69c.64 0 1.2-.23 1.66-.69s.69-1.01.69-1.64c0-.27-.08-.59-.23-.97a5.7 5.7 0 0 0-.56-1.04c-.46-.59-.89-1.09-1.29-1.49-.06-.04-.14-.13-.26-.24z"/></svg>