<svg xmlns="http://www.w3.org/2000/svg" viewBox="0 0 30 30"><path d="M20.6 5.35c-.36 0-.73.04-1.12.13-.38.09-.78.22-1.19.4s-.81.44-1.2.79-.72.74-1 1.2c-.81-.31-1.59-.46-2.33-.46-1.41 0-2.67.44-3.76 1.32s-1.8 2-2.11 3.36q-1.665.39-2.73 1.74c-.69.88-1.05 1.91-1.05 3.06 0 1.33.46 2.48 1.39 3.43.93.96 2.06 1.47 3.4 1.54q.18 0 .18-.18v-1.33q0-.18-.18-.18c-.86-.04-1.58-.38-2.18-1.02s-.9-1.39-.9-2.26c0-.83.28-1.55.84-2.17.56-.61 1.26-.97 2.1-1.07l.52-.04c.13 0 .2-.06.2-.18l.07-.54c.11-1.08.56-1.99 1.37-2.71.81-.73 1.76-1.09 2.85-1.09s2.04.37 2.86 1.1a4.1 4.1 0 0 1 1.4 2.71l.07.57c0 .12.06.19.18.19h1.62c.89 0 1.65.32 2.3.96s.97 1.4.97 2.27-.3 1.62-.9 2.26-1.33.98-2.18 1.02c-.12 0-.19.06-.19.18v1.33c0 .12.06.18.19.18.88-.03 1.68-.27 2.41-.72a4.9 4.9 0 0 0 1.73-1.8c.42-.75.63-1.57.63-2.44s-.23-1.68-.68-2.45c.78-.74 1.29-1.6 1.54-2.58l.14-.73c.01-.01.02-.03.02-.07 0-.07-.05-.13-.16-.16l-.57-.17c-.57-.16-1.06-.44-1.46-.82-.41-.38-.7-.79-.87-1.21a3.5 3.5 0 0 1-.26-1.28c0-.29.04-.57.11-.85l.13-.61c.02-.1-.02-.18-.13-.23l-.8-.24c-.45-.1-.87-.15-1.27-.15zm.02 1.69c.12 0 .21.01.27.02v.3c0 .96.26 1.87.79 2.74s1.25 1.52 2.18 1.97c-.16.38-.41.72-.75 1.03a4.9 4.9 0 0 0-3.21-1.14h-.33c-.3-1.31-.97-2.37-2.01-3.19.35-.57.8-1 1.34-1.29a3.6 3.6 0 0 1 1.72-.44zm-5.12 6.43-.25.27c-.18.2-.35.43-.5.7-.17.27-.24.49-.24.65 0 .26.1.47.29.66s.42.27.7.27c.26 0 .47-.09.66-.27q.27-.27.27-.66 0-.645-.93-1.62zm-4.02 1.87-.35.41c-.27.29-.52.64-.75 1.04s-.33.72-.33.98c0 .38.14.71.42.98s.62.4 1.02.4.73-.13 1-.4.4-.59.4-.98c0-.26-.12-.6-.35-1.02s-.45-.75-.65-.98c-.11-.12-.24-.26-.41-.43zm3.89 2.7-.23.23c-.39.36-.82.86-1.28 1.48-.24.33-.43.68-.59 1.04-.16.37-.23.69-.23.97 0 .66.23 1.21.68 1.66.46.45 1.01.67 1.65.67.66 0 1.21-.23 1.66-.68.45-.46.68-1.01.68-1.65 0-.55-.27-1.22-.8-2-.44-.58-.87-1.08-1.28-1.49-.08-.06-.17-.13-.26-.23z"/></svg>