<svg xmlns="http://www.w3.org/2000/svg" xml:space="preserve" viewBox="0 0 30 30"><path d="M20.54 6.32c-1.56 0-2.85.58-3.88 1.73-.88-.43-1.78-.65-2.7-.65q-2.115 0-3.75 1.32a5.87 5.87 0 0 0-2.1 3.38c-1.1.26-2.01.83-2.73 1.73-.76.93-1.12 1.95-1.12 3.1 0 .66.12 1.28.38 1.88s.59 1.11 1.02 1.55c.43.43.94.79 1.53 1.05s1.21.42 1.87.45c.11 0 .17-.06.17-.17v-1.34c0-.11-.06-.17-.17-.17a3.24 3.24 0 0 1-2.19-1.03 3.13 3.13 0 0 1-.89-2.22c0-.84.28-1.57.85-2.19s1.26-.97 2.1-1.04l.53-.06c.13 0 .2-.06.2-.19l.06-.51c.11-1.09.56-1.99 1.37-2.71s1.76-1.08 2.86-1.08c1.09 0 2.05.36 2.85 1.07.81.72 1.27 1.61 1.38 2.69l.07.58c0 .12.06.18.19.18h1.6c.9 0 1.67.32 2.32.96s.97 1.4.97 2.29c0 .86-.3 1.6-.89 2.22s-1.33.97-2.19 1.03c-.13 0-.2.06-.2.17v1.34c0 .11.07.17.2.17 1.34-.06 2.47-.57 3.39-1.51q1.38-1.425 1.38-3.42c0-.72-.14-1.38-.42-1.99q1.17-1.41 1.17-3.36c0-.94-.23-1.81-.7-2.62a5.25 5.25 0 0 0-1.91-1.92 5.1 5.1 0 0 0-2.62-.71zm-.03 1.76q1.47 0 2.49 1.02c.69.68 1.03 1.51 1.03 2.48 0 .63-.17 1.24-.52 1.85-.95-.95-2.11-1.43-3.49-1.43h-.31c-.28-1.17-.84-2.14-1.68-2.92.67-.67 1.49-1 2.48-1zm-5.131 8.934a.8.8 0 0 0-.328.105.75.75 0 0 0-.381.522l-2.31 8.75c-.01.1-.02.19-.02.27 0 .12.03.238.08.368q.15.314.51.432c.02 0 .06 0 .1.01s.08.01.11.01h.09c.43 0 .68-.22.76-.66l2.3-8.74a.77.77 0 0 0-.06-.632.83.83 0 0 0-.5-.398.9.9 0 0 0-.351-.037zm-3.39.02a.8.8 0 0 0-.31.107c-.2.12-.33.29-.39.52l-1.5 5.698a1 1 0 0 0-.039.25c0 .4.22.662.65.782q.315.105.63-.06c.21-.11.35-.28.41-.5l1.5-5.731a.78.78 0 0 0-.09-.63c-.12-.2-.3-.33-.54-.4a.8.8 0 0 0-.322-.037zm6.726 0a.8.8 0 0 0-.315.107c-.2.12-.32.29-.36.52l-1.5 5.698c-.03.11-.04.19-.04.24 0 .16.05.311.16.471a.82.82 0 0 0 .68.35c.17 0 .33-.05.49-.14s.26-.24.32-.45l1.5-5.73c.08-.21.05-.41-.07-.62a.85.85 0 0 0-.52-.41.9.9 0 0 0-.345-.037z"/></svg>