<svg xmlns="http://www.w3.org/2000/svg" xml:space="preserve" viewBox="0 0 30 30"><path d="M21.71 6.3c-1.54 0-2.84.58-3.88 1.73-.78-.41-1.67-.61-2.65-.61-1.41 0-2.66.44-3.75 1.31s-1.77 1.99-2.07 3.35c-.85.2-1.6.61-2.26 1.23s-1.11 1.35-1.37 2.18v.04c-.01.05-.02.09-.02.1 0 .08.06.12.17.12h1.43c.08 0 .15-.05.22-.14.23-.54.57-.99 1.05-1.35q.705-.54 1.59-.6l.52-.07c.12 0 .19-.06.19-.19l.07-.5c.11-1.08.57-1.99 1.38-2.71.81-.73 1.77-1.09 2.86-1.09q1.635 0 2.85 1.08c.81.72 1.27 1.63 1.39 2.72l.07.57q0 .18.18.18h1.63c.9 0 1.67.32 2.31.95q.96.945.96 2.28c0 .89-.32 1.66-.96 2.29s-1.41.95-2.31.95H14.4c-.11 0-.17.06-.17.18v1.37c0 .12.06.18.17.18h6.91c.89 0 1.72-.22 2.48-.67.76-.44 1.36-1.05 1.8-1.81q.66-1.14.66-2.49c0-.74-.14-1.42-.42-2.02q1.14-1.5 1.14-3.33 0-1.065-.42-2.04c-.28-.65-.65-1.2-1.12-1.67s-1.03-.84-1.67-1.11a5.3 5.3 0 0 0-2.05-.41zm.01 1.68c.98 0 1.81.35 2.51 1.05s1.05 1.53 1.05 2.5c0 .61-.17 1.22-.51 1.85-.96-.96-2.11-1.43-3.47-1.43h-.33c-.24-1.07-.81-2.06-1.73-2.95.72-.68 1.54-1.02 2.48-1.02zm-6.79 5.5q-1.14 0-1.89.75a.92.92 0 0 0-.23.63c0 .24.08.43.23.59s.35.23.6.23.45-.07.61-.23c.19-.19.42-.28.68-.28s.48.09.68.28c.19.19.29.42.29.68s-.1.5-.29.69-.42.29-.68.29H3.94a.86.86 0 0 0-.62.25.83.83 0 0 0-.26.61c0 .23.09.42.27.58.15.16.35.24.61.24h10.99q1.11 0 1.89-.78c.52-.52.78-1.15.78-1.88s-.26-1.36-.78-1.88-1.15-.77-1.89-.77zM3.94 20.13c-.24 0-.44.08-.62.25s-.26.37-.26.6q0 .36.27.6c.18.18.38.27.61.27h5.88c.26 0 .49.09.69.28s.3.42.3.68-.1.48-.3.68-.43.3-.68.3a.94.94 0 0 1-.68-.3c-.19-.17-.39-.26-.62-.26s-.43.08-.59.25-.24.37-.24.61q0 .36.24.6c.52.52 1.15.78 1.88.78.74 0 1.38-.26 1.89-.77.52-.52.78-1.14.78-1.88s-.26-1.38-.78-1.9-1.15-.79-1.89-.79z"/></svg>