<svg xmlns="http://www.w3.org/2000/svg" xml:space="preserve" viewBox="0 0 30 30"><path d="M14.27 7.45c-.93 0-1.81.2-2.63.6S10.13 9 9.56 9.71a5.7 5.7 0 0 0-1.13 2.42c-1.12.25-2.04.82-2.75 1.72-.7.89-1.05 1.92-1.05 3.08 0 1.12.33 2.11.98 2.99a4.9 4.9 0 0 0 2.55 1.79c.09.02.17-.01.24-.08l1.16-1.43q-1.335 0-2.28-.96a3.18 3.18 0 0 1-.95-2.31c0-.84.28-1.58.84-2.2s1.26-.97 2.1-1.04l.53-.07c.11 0 .16-.04.16-.13l.08-.55c.12-1.1.59-2.01 1.39-2.73q1.2-1.08 2.85-1.08c1.1 0 2.06.36 2.87 1.09.82.73 1.27 1.64 1.37 2.72l.07.58c.02.11.1.17.22.17h1.62c.9 0 1.67.32 2.3.95s.95 1.39.95 2.29c0 .83-.28 1.56-.84 2.18q-.84.93-2.07 1.08c-.12 0-.28.02-.49.06-.19.02-.33.09-.41.23l-2.36 2.79a.78.78 0 0 0-.16.63c.03.24.14.43.31.57.11.12.29.19.56.19.26 0 .47-.12.61-.35l2.12-2.44c1.24-.13 2.29-.66 3.15-1.61s1.28-2.06 1.28-3.33c0-.67-.13-1.32-.39-1.93s-.61-1.14-1.05-1.58-.97-.79-1.58-1.05a4.9 4.9 0 0 0-1.93-.39h-.32a5.86 5.86 0 0 0-2.12-3.26c-1.08-.85-2.32-1.27-3.72-1.27zm3.12 11.37c-.23.01-.42.12-.55.31l-4.35 5.2c-.14.18-.19.36-.19.55v.11c.02.22.13.4.31.55s.37.22.55.22c.23 0 .43-.11.63-.33l4.35-5.24c.11-.12.17-.3.17-.52v-.12a.77.77 0 0 0-.27-.53.8.8 0 0 0-.52-.2zm-4.28.03c-.06 0-.1 0-.14.01a.88.88 0 0 0-.56.33l-2.36 2.77a.84.84 0 0 0-.19.55v.1c.02.23.12.41.3.56.23.13.43.19.62.19.22 0 .43-.11.61-.33l2.32-2.77c.14-.17.21-.39.2-.66a.8.8 0 0 0-.28-.53c-.16-.14-.33-.22-.52-.22zm-4.24 5.24a.7.7 0 0 0-.32.06.85.85 0 0 0-.461.47.7.7 0 0 0-.08.33q0 .09.06.3c.09.21.23.36.44.44.22.1.44.11.67.02s.38-.24.46-.45c.1-.22.11-.43.02-.65a.73.73 0 0 0-.46-.43.8.8 0 0 0-.329-.09zm7.79 1.07c-.09.02-.191.04-.321.07-.22.08-.37.23-.45.44-.05.13-.08.25-.08.36q0 .135.06.3c.09.22.24.38.46.47.14.04.24.06.31.06.14 0 .26-.03.34-.08.22-.09.38-.23.46-.42.1-.17.11-.39.02-.67a.77.77 0 0 0-.44-.44zm-5.163 1.238a.8.8 0 0 0-.338.063q-.345.135-.45.45c-.06.09-.08.2-.08.32s.03.23.08.32c.08.21.23.369.44.469.11.05.22.07.33.07.12 0 .23-.02.31-.07.23-.09.39-.23.47-.41.1-.22.11-.44.02-.67a.71.71 0 0 0-.45-.46.9.9 0 0 0-.332-.082z"/></svg>