<svg xmlns="http://www.w3.org/2000/svg" xml:space="preserve" viewBox="0 0 30 30"><path d="M24.05 8.95c-.77 0-1.42.27-1.95.8-.18.16-.27.38-.27.67 0 .26.09.47.26.63q.255.24.63.24.36 0 .63-.24a.9.9 0 0 1 .7-.31c.29 0 .53.1.73.3s.3.44.3.73q0 .435-.3.72c-.2.19-.44.29-.73.29H4.01a.9.9 0 0 0-.91.91c0 .23.09.43.28.61.17.18.38.26.63.26h20.04c.78 0 1.45-.27 2.01-.82.56-.54.84-1.2.84-1.97s-.28-1.44-.84-1.99-1.23-.83-2.01-.83zM4.01 16.08a.9.9 0 0 0-.64.26q-.27.255-.27.63c0 .24.09.45.28.62.16.19.37.28.63.28H18.7c.29 0 .53.1.73.3s.3.45.3.74q0 .435-.3.72c-.2.19-.44.29-.74.29-.29 0-.54-.1-.73-.29a.77.77 0 0 0-.6-.26.9.9 0 0 0-.64.26.82.82 0 0 0-.27.61c0 .25.09.46.28.63.56.55 1.22.83 1.96.83q1.17 0 2.01-.81c.56-.54.83-1.19.83-1.97s-.28-1.44-.84-2-1.23-.84-2-.84z"/></svg>