<svg xmlns="http://www.w3.org/2000/svg" viewBox="0 0 30 30"><path d="M15.01 3.19c-2.03 0-3.91.5-5.64 1.51a11.25 11.25 0 0 0-4.11 4.11 11.04 11.04 0 0 0-1.52 5.66c0 1.53.28 2.99.88 4.37s1.39 2.58 2.4 3.58 2.21 1.81 3.6 2.4 2.86.89 4.39.89 2.98-.3 4.37-.89 2.59-1.39 3.59-2.39 1.81-2.2 2.4-3.59.89-2.85.89-4.37c0-1.54-.3-2.99-.89-4.39q-.885-2.1-2.4-3.6c-1.01-1-2.2-1.81-3.59-2.4s-2.85-.89-4.37-.89zm0 2.49c1.58 0 3.04.39 4.39 1.18a8.8 8.8 0 0 1 3.21 3.21 8.6 8.6 0 0 1 1.19 4.4c0 1.58-.4 3.04-1.19 4.39a8.9 8.9 0 0 1-3.21 3.2c-1.34.79-2.81 1.18-4.39 1.18-2.41 0-4.47-.86-6.2-2.59-1.73-1.75-2.59-3.81-2.59-6.18 0-1.58.38-3.05 1.18-4.4a9 9 0 0 1 3.22-3.21c1.34-.79 2.81-1.18 4.39-1.18zm-.05 1.3c-.23 0-.43.08-.59.24a.8.8 0 0 0-.24.59v5.82h-3.79c-.23 0-.43.08-.59.24a.8.8 0 0 0-.24.59c0 .22.08.42.23.59.16.17.36.25.59.25h4.44c.03.01.09.01.19.01.23 0 .43-.08.59-.24s.24-.36.24-.59V7.81c0-.23-.08-.43-.24-.59a.8.8 0 0 0-.59-.24z"/></svg>