<svg xmlns="http://www.w3.org/2000/svg" viewBox="0 0 30 30"><path d="M15.82 3.01c-1.78 0-3.39.16-4.83.47-1.57.32-2.83.82-3.79 1.5S5.76 6.44 5.76 7.31c0 .52.16.99.48 1.42q-1.77 1.005-1.77 2.46c0 .75.37 1.41 1.1 1.98-.96.56-1.44 1.23-1.44 2.02q0 1.035 1.08 1.77c1.32.93 3.31 1.39 5.98 1.39 1.2 0 2.31-.1 3.34-.31 1.08-.23 1.97-.6 2.65-1.1s1.03-1.08 1.03-1.76c0-.21-.04-.41-.12-.62q2.085-.51 3.27-1.38c.79-.58 1.19-1.25 1.19-2q0-.285-.09-.6c2.29-.81 3.43-1.9 3.43-3.28 0-.88-.5-1.66-1.49-2.34q-2.925-1.95-8.58-1.95zm-.02 1.87q3.015 0 5.19.63c1.35.39 2.24.8 2.68 1.22.22.22.34.42.34.59s-.11.35-.34.56c-.44.42-1.33.83-2.68 1.23-1.45.42-3.17.63-5.19.63-2 0-3.72-.21-5.14-.63-1.34-.4-2.24-.81-2.68-1.24-.23-.21-.35-.39-.35-.56 0-.18.12-.37.35-.59.45-.42 1.35-.82 2.68-1.21 1.43-.42 3.14-.63 5.14-.63zm-7.9 5.15c1.92 1.03 4.56 1.54 7.91 1.54 1.71 0 3.32-.16 4.82-.47v.09c0 .15-.09.3-.28.45-.41.36-1.17.7-2.29 1.03q-1.815.54-4.56.54c-1.84 0-3.36-.18-4.57-.54-1.16-.32-1.93-.66-2.32-1.02-.19-.15-.28-.3-.28-.46 0-.08.05-.17.15-.28.24-.3.72-.6 1.42-.88zm-.06 4.23q2.43.81 5.67.81c.95 0 1.81-.05 2.58-.16l.26.23c-.09.16-.3.32-.63.5-.4.21-1.02.41-1.86.57s-1.73.25-2.67.25-1.83-.08-2.67-.25-1.47-.36-1.88-.57q-.51-.21-.63-.45c0-.01.06-.07.19-.18.09-.09.28-.2.56-.34s.61-.25.96-.35zm-1.713 3.78q-.27.001-.518.148c-.59.41-.879.9-.879 1.5 0 .73.45 1.311 1.35 1.721s2.04.62 3.41.62c1.39 0 2.53-.21 3.44-.62s1.36-.99 1.36-1.72c0-.27-.09-.5-.26-.69s-.4-.28-.67-.28c-.22 0-.42.08-.6.23s-.29.35-.34.57c-.2.16-.56.3-1.1.43s-1.15.2-1.83.2c-1.1 0-2-.16-2.68-.47a.92.92 0 0 0 .26-.6.97.97 0 0 0-.15-.62 1 1 0 0 0-.793-.419zm.902 4.61a.82.82 0 0 0-.638.279 1 1 0 0 0-.272.68c0 .63.36 1.12 1.08 1.46q1.08.51 2.67.51c1.08 0 1.99-.17 2.72-.51s1.1-.83 1.1-1.46c0-.25-.089-.48-.279-.67a.9.9 0 0 0-.66-.29c-.47 0-.78.24-.92.72-.39.24-1.04.37-1.96.37-.8 0-1.44-.12-1.92-.37-.15-.48-.45-.72-.92-.72z"/></svg>