<svg xmlns="http://www.w3.org/2000/svg" viewBox="0 0 30 30"><path d="M19.13 2.76c-.41 0-.77.13-1.08.38s-.52.58-.62.97h-.11q-.615 0-1.08.39c-.31.25-.46.57-.46.93 0 .41.16.76.47 1.04 0 .2.09.43.26.68s.36.4.56.44c.04.22.15.41.31.57.16.15.36.25.59.3a.53.53 0 0 0-.16.39.613.613 0 0 0 .63.63c.18 0 .33-.06.46-.19.13-.12.19-.28.19-.45 0-.02 0-.05-.01-.09s-.01-.08-.01-.1h.03c.21 0 .39-.08.54-.23s.23-.34.23-.55c0-.1-.04-.22-.12-.38.17-.09.31-.25.41-.47h.45c.39-.02.73-.17 1-.45.28-.28.42-.61.42-1.01q0-.51-.33-.9c-.22-.26-.5-.43-.83-.52-.08-.4-.29-.73-.62-.99s-.71-.39-1.12-.39zm-1.71 7.15a.53.53 0 0 0-.39.16.52.52 0 0 0-.16.38v.31c0 .14.05.27.15.37s.21.15.35.16v3.39h-1.32a1.08 1.08 0 0 0-.35-.71 1.06 1.06 0 0 0-.74-.29c-.29 0-.54.1-.75.29s-.33.43-.35.71h-2.12v-1.65h.44c.1 0 .18-.03.25-.1s.1-.15.1-.25v-.32c0-.1-.03-.18-.1-.25a.33.33 0 0 0-.25-.1H4.6c-.1 0-.18.03-.25.1s-.1.15-.1.25v.32c0 .1.03.18.1.25s.15.1.25.1h.43v5.55h.02v.86q0 .375.24.66c.16.19.37.3.61.34-.11.27-.17.55-.17.84 0 .61.21 1.13.65 1.56s.95.65 1.56.65 1.13-.21 1.56-.65.65-.95.65-1.56c0-.26-.06-.54-.18-.83h1.19c-.11.26-.16.54-.16.83 0 .61.21 1.13.64 1.56s.94.65 1.55.65 1.13-.21 1.56-.65.65-.95.65-1.56c0-.28-.06-.56-.17-.83h1c-.11.26-.16.54-.16.83 0 .61.22 1.13.65 1.56.44.43.95.65 1.56.65.6 0 1.12-.22 1.55-.65.43-.44.64-.95.64-1.56 0-.29-.05-.57-.16-.83h.71v3.04h4.74l-3.73-4.87v-2.93a.97.97 0 0 0-.3-.71c-.2-.2-.44-.3-.71-.3h-1.56v-3.39a.44.44 0 0 0 .34-.16.55.55 0 0 0 .14-.37v-.31c0-.15-.05-.27-.15-.38a.5.5 0 0 0-.38-.16zM7.07 13.57H8.5c.21 0 .38.07.53.22s.22.32.22.53v2.3c0 .21-.08.39-.22.54s-.32.22-.53.22H7.06a.74.74 0 0 1-.54-.22.73.73 0 0 1-.22-.54h.01v-2.3c0-.2.07-.37.22-.52.15-.16.33-.23.54-.23z"/></svg>