<svg xmlns="http://www.w3.org/2000/svg" viewBox="0 0 30 30"><path d="M19.34 8.46c-.49 0-.91.17-1.27.51-.11.12-.16.27-.16.42 0 .16.05.3.16.4s.24.15.4.15c.15 0 .29-.05.41-.16.12-.12.27-.18.46-.18.17 0 .33.06.46.18s.2.27.2.45-.07.34-.2.47a.63.63 0 0 1-.46.2H5.53c-.16 0-.3.06-.42.17a.53.53 0 0 0-.17.41c0 .17.06.3.17.39.12.11.26.16.42.16h13.81c.49 0 .92-.18 1.27-.52.35-.35.52-.77.52-1.27 0-.49-.17-.91-.52-1.26s-.77-.52-1.27-.52zM5.53 12.92c-.16 0-.3.06-.42.17-.12.12-.17.25-.17.41 0 .18.06.31.17.4.12.11.26.17.42.17h10.4c.17 0 .33.06.46.19.13.12.2.28.2.46s-.07.34-.2.47a.63.63 0 0 1-.46.2.62.62 0 0 1-.47-.21.6.6 0 0 0-.4-.16c-.16 0-.3.05-.41.16a.53.53 0 0 0-.16.39c0 .16.06.3.17.41.36.36.78.53 1.27.53s.91-.17 1.26-.52.52-.77.52-1.27c0-.49-.17-.92-.52-1.27s-.77-.53-1.26-.53zm16.67 1.05c-.97 0-1.76.26-2.38.78s-.98 1.29-1.1 2.31h2.09c0-.37.11-.68.32-.94.22-.26.52-.38.91-.38.3 0 .52.08.67.24s.23.34.23.54c0 .12-.01.23-.03.32s-.07.19-.15.28-.15.16-.21.22-.17.13-.34.23c-.17.09-.3.17-.4.22s-.27.13-.53.25c-.88.43-1.43.71-1.64.83-.8.48-1.35 1.07-1.66 1.78-.16.36-.27.76-.32 1.2h6.62l.4-1.89H21v-.03c.2-.09.49-.22.86-.37.38-.15.69-.28.95-.38s.55-.25.87-.44.57-.38.77-.57c.19-.19.36-.44.5-.75s.21-.64.21-1c0-.56-.14-1.02-.43-1.4q-.435-.57-1.08-.81a4.2 4.2 0 0 0-1.45-.24z"/></svg>