<svg xmlns="http://www.w3.org/2000/svg" width="24" height="24" viewBox="0 0 24 24"><path d="M16 2c-1.093 0-2 .907-2 2s.907 2 2 2 2-.907 2-2-.907-2-2-2zM7.857 4.012a1 1 0 0 0-.564.281l-3 3a1 1 0 0 0 0 1.414 1 1 0 0 0 1.414 0l2.47-2.47 3.88 2.115-1.315 1.949a5.9 5.9 0 0 0-2.527-.219 6 6 0 0 0-1.754.51 1 1 0 0 0-.488 1.328 1 1 0 0 0 1.326.488c1.603-.741 3.19-.36 4.308.615 1.119.976 1.712 2.495 1.196 4.184a1 1 0 0 0 .664 1.25 1 1 0 0 0 1.25-.664 5.93 5.93 0 0 0-.184-4.035l3.283-.547-.806 5.648a1 1 0 0 0 .85 1.131 1 1 0 0 0 1.13-.85l1-7a1 1 0 0 0-1.154-1.126l-5.486.914a6 6 0 0 0-.809-.717l1.79-2.652a1 1 0 0 0-.352-1.436l-5.5-3a1 1 0 0 0-.622-.111zM4.223 13.5a1 1 0 0 0-.94.707c-.747 2.444.138 4.833 1.795 6.277 1.657 1.445 4.142 1.997 6.461.924a1 1 0 0 0 .488-1.328 1 1 0 0 0-1.326-.488c-1.603.741-3.19.36-4.308-.615C5.274 18 4.68 16.482 5.197 14.793a1 1 0 0 0-.664-1.25 1 1 0 0 0-.31-.043z"/></svg>