<svg xmlns="http://www.w3.org/2000/svg" width="24" height="24" viewBox="0 0 24 24"><path d="M3 2c-1.093 0-2 .907-2 2v2c0 1.645 1.355 3 3 3h.23l.604 2.258A2.26 2.26 0 0 0 6.98 13h10.04a2.26 2.26 0 0 0 2.146-1.742L19.77 9H20c1.645 0 3-1.355 3-3V4c0-1.093-.907-2-2-2zm0 2h18v2c0 .564-.436 1-1 1H4c-.564 0-1-.436-1-1zm3.3 5h11.4l-.466 1.742-.013.059a.24.24 0 0 1-.24.199H7.02a.24.24 0 0 1-.24-.2l-.014-.058zM8 15a1 1 0 0 0-1 1c0 .983-.281 1.25-.781 1.875S5 19.483 5 21a1 1 0 0 0 1 1 1 1 0 0 0 1-1c0-.983.281-1.25.781-1.875S9 17.517 9 16a1 1 0 0 0-1-1zm5 0a1 1 0 0 0-1 1c0 .983-.281 1.25-.781 1.875S10 19.483 10 21a1 1 0 0 0 1 1 1 1 0 0 0 1-1c0-.983.281-1.25.781-1.875S14 17.517 14 16a1 1 0 0 0-1-1zm5 0a1 1 0 0 0-1 1c0 .983-.281 1.25-.781 1.875S15 19.483 15 21a1 1 0 0 0 1 1 1 1 0 0 0 1-1c0-.983.281-1.25.781-1.875S19 17.517 19 16a1 1 0 0 0-1-1z"/></svg>