<svg xmlns="http://www.w3.org/2000/svg" width="24" height="24" viewBox="0 0 24 24"><path d="M3 1a1 1 0 0 0-1 1v20a1 1 0 0 0 1 1 1 1 0 0 0 1-1v-2.178c.314.113.65.178 1 .178h2c1.645 0 3-1.355 3-3V7c0-1.645-1.355-3-3-3H5c-.35 0-.686.065-1 .178V2a1 1 0 0 0-1-1zm18 0a1 1 0 0 0-1 1v4.174A3 3 0 0 0 19 6h-2c-1.645 0-3 1.355-3 3v6c0 1.645 1.355 3 3 3h2c.35 0 .687-.062 1-.174V22a1 1 0 0 0 1 1 1 1 0 0 0 1-1V2a1 1 0 0 0-1-1zM5 6h2c.571 0 1 .429 1 1v10c0 .571-.429 1-1 1H5c-.571 0-1-.429-1-1V7c0-.571.429-1 1-1zm12 2h2c.571 0 1 .429 1 1v6c0 .571-.429 1-1 1h-2c-.571 0-1-.429-1-1V9c0-.571.429-1 1-1z"/></svg>