<svg xmlns="http://www.w3.org/2000/svg" width="24" height="24" viewBox="0 0 24 24"><path d="M10 3c-.972 0-1.958.319-2.727 1.002S6 5.75 6 7c0 1.062.379 2.35.994 3.713-.49.274-1.008.424-1.44.842C4.635 12.445 4 13.778 4 15.5 4 18.526 6.474 21 9.5 21c2.157 0 4.07-.87 5.625-2.15 1.115.69 2.066 1.4 3.447 2.054a1 1 0 0 0 1.332-.476 1 1 0 0 0-.476-1.332c-1.181-.56-1.942-1.153-2.903-1.733.97-1.264 1.694-2.727 1.909-4.363H19a1 1 0 0 0 1-1 1 1 0 0 0-1-1h-3a1 1 0 0 0-1 1 1 1 0 0 0 1 1h.418c-.207 1.266-.791 2.4-1.576 3.36-2.454-1.705-4.093-3.364-5.113-4.915.874-.346 1.793-.666 2.605-1.25C13.255 9.533 14 8.421 14 7c0-1.25-.505-2.315-1.273-2.998C11.957 3.319 10.972 3 10 3zm0 2c.528 0 1.042.181 1.398.498.357.317.602.752.602 1.502 0 .829-.255 1.154-.834 1.57-.557.4-1.467.749-2.445 1.145C8.259 8.65 8 7.695 8 7c0-.75.245-1.185.602-1.502C8.958 5.181 9.472 5 10 5zm-2.025 7.408c1.12 1.743 2.785 3.541 5.29 5.334C12.163 18.471 10.917 19 9.5 19A3.485 3.485 0 0 1 6 15.5c0-1.278.365-1.946.945-2.508.246-.238.693-.388 1.03-.584z"/></svg>