<svg xmlns="http://www.w3.org/2000/svg" width="24" height="24" viewBox="0 0 24 24"><path d="M5 5a3.05 3.05 0 0 0-2.04.752C2.38 6.269 2 7.083 2 8c0 .81.295 1.746.738 2.73-.237.193-.492.302-.707.545A4.1 4.1 0 0 0 1 14a4 4 0 0 0 4 4c1.222 0 2.292-.451 3.238-1.074.434.307.764.64 1.248.931a1 1 0 0 0 1.371-.343 1 1 0 0 0-.343-1.371c-.313-.188-.51-.402-.797-.596C10.47 14.544 11 13.357 11 12a1 1 0 0 0-1-1 1 1 0 0 0-1 1c0 .93-.343 1.723-.838 2.389-1.122-.949-2.077-1.912-2.715-2.832-.066-.096-.08-.173-.142-.268.522-.306 1.07-.602 1.568-1.033C7.463 9.744 8 8.958 8 8c0-.917-.38-1.731-.96-2.248A3.05 3.05 0 0 0 5 5zm12 0a3.05 3.05 0 0 0-2.04.752C14.38 6.269 14 7.083 14 8c0 .81.295 1.746.738 2.73-.237.193-.492.302-.707.545A4.1 4.1 0 0 0 13 14a4 4 0 0 0 4 4c1.222 0 2.292-.451 3.238-1.074.434.307.764.64 1.248.931a1 1 0 0 0 1.371-.343 1 1 0 0 0-.343-1.371c-.313-.188-.51-.402-.797-.596C22.47 14.544 23 13.357 23 12a1 1 0 0 0-1-1 1 1 0 0 0-1 1c0 .93-.343 1.723-.838 2.389-1.122-.949-2.077-1.912-2.715-2.832-.066-.096-.08-.173-.142-.268.522-.306 1.07-.602 1.568-1.033C19.463 9.744 20 8.958 20 8c0-.917-.38-1.731-.96-2.248A3.05 3.05 0 0 0 17 5zM5 7c.278 0 .542.098.71.248.17.15.29.335.29.752 0 .292-.088.443-.436.744-.263.229-.738.501-1.199.777C4.12 8.881 4 8.342 4 8c0-.417.12-.602.29-.752C4.457 7.098 4.721 7 5 7zm12 0c.278 0 .542.098.71.248.17.15.29.335.29.752 0 .292-.088.443-.436.744-.263.229-.738.501-1.199.777C16.12 8.881 16 8.342 16 8c0-.417.12-.602.29-.752A1.1 1.1 0 0 1 17 7zM3.688 12.482c.048.074.064.138.115.211.69.996 1.655 2.01 2.785 3A4.2 4.2 0 0 1 5 16c-1.19 0-2-.81-2-2 0-.637.187-1.01.531-1.4.036-.041.116-.077.156-.118zm12 0c.048.074.064.138.115.211.69.996 1.655 2.01 2.785 3A4.2 4.2 0 0 1 17 16c-1.19 0-2-.81-2-2 0-.637.187-1.01.531-1.4.036-.041.116-.077.156-.118z"/></svg>