<svg xmlns="http://www.w3.org/2000/svg" width="24" height="24" viewBox="0 0 24 24"><path d="M7 3a1 1 0 0 0-.28.045 1 1 0 0 0-.1.04 1 1 0 0 0-.167.085 1 1 0 0 0-.086.066 1 1 0 0 0-.074.057l-4 4a1 1 0 0 0 0 1.414 1 1 0 0 0 1.414 0L6 6.414V20a1 1 0 0 0 1 1 1 1 0 0 0 1-1V6.414l2.293 2.293a1 1 0 0 0 1.414 0 1 1 0 0 0 0-1.414L7.748 3.336l-.041-.043-.008-.006a1 1 0 0 0-.19-.144L7.49 3.13A1 1 0 0 0 7 3zm10.5 0c-.847 0-1.708.277-2.383.877S14 5.417 14 6.5V10a1 1 0 0 0 1 1 1 1 0 0 0 1-1V9h3v1a1 1 0 0 0 1 1 1 1 0 0 0 1-1V6.5c0-1.083-.442-2.023-1.117-2.623S18.347 3 17.5 3zm0 2c.403 0 .792.14 1.055.373S19 5.917 19 6.5V7h-3v-.5c0-.583.183-.894.445-1.127C16.708 5.14 17.097 5 17.5 5zM15 13a1 1 0 0 0-1 1 1 1 0 0 0 1 1h2.865l-3.633 4.36A1 1 0 0 0 15 21h5a1 1 0 0 0 1-1 1 1 0 0 0-1-1h-2.865l3.633-4.36A1 1 0 0 0 20 13z"/></svg>