<svg xmlns="http://www.w3.org/2000/svg" width="24" height="24" viewBox="0 0 24 24"><path d="M7 3a1 1 0 0 0-1 1v13.586l-2.293-2.293A1 1 0 0 0 3 15a1 1 0 0 0-.707.293 1 1 0 0 0 0 1.414l4 4a1 1 0 0 0 .074.057 1 1 0 0 0 .086.066 1 1 0 0 0 .166.084 1 1 0 0 0 .102.041 1 1 0 0 0 .558 0 1 1 0 0 0 .102-.04 1 1 0 0 0 .166-.085 1 1 0 0 0 .086-.066 1 1 0 0 0 .074-.057l4-4a1 1 0 0 0 0-1.414 1 1 0 0 0-1.414 0L8 17.586V4a1 1 0 0 0-1-1zm8 0a1 1 0 0 0-1 1 1 1 0 0 0 1 1h2.865l-3.633 4.36A1 1 0 0 0 15 11h5a1 1 0 0 0 1-1 1 1 0 0 0-1-1h-2.865l3.633-4.36A1 1 0 0 0 20 3zm2.5 10c-.847 0-1.708.277-2.383.877S14 15.417 14 16.5V20a1 1 0 0 0 1 1 1 1 0 0 0 1-1v-1h3v1a1 1 0 0 0 1 1 1 1 0 0 0 1-1v-3.5c0-1.083-.442-2.023-1.117-2.623S18.347 13 17.5 13zm0 2c.403 0 .792.14 1.055.373S19 15.917 19 16.5v.5h-3v-.5c0-.583.183-.894.445-1.127.263-.233.652-.373 1.055-.373z"/></svg>