<svg xmlns="http://www.w3.org/2000/svg" width="24" height="24" viewBox="0 0 24 24"><path d="M7 3a1 1 0 0 0-1 1v13.586l-2.293-2.293A1 1 0 0 0 3 15a1 1 0 0 0-.707.293 1 1 0 0 0 0 1.414l4 4a1 1 0 0 0 .074.057 1 1 0 0 0 .086.066 1 1 0 0 0 .166.084 1 1 0 0 0 .102.041 1 1 0 0 0 .558 0 1 1 0 0 0 .102-.04 1 1 0 0 0 .166-.085 1 1 0 0 0 .086-.066 1 1 0 0 0 .074-.057l4-4a1 1 0 0 0 0-1.414 1 1 0 0 0-1.414 0L8 17.586V4a1 1 0 0 0-1-1zm10 0c-1.645 0-3 1.355-3 3v2c0 1.645 1.355 3 3 3s3-1.355 3-3V6c0-1.645-1.355-3-3-3zm0 2c.571 0 1 .429 1 1v2c0 .571-.429 1-1 1s-1-.429-1-1V6c0-.571.429-1 1-1zm-2 8a1 1 0 0 0-1 1 1 1 0 0 0 1 1h1v4h-1a1 1 0 0 0-1 1 1 1 0 0 0 1 1h4a1 1 0 0 0 1-1 1 1 0 0 0-1-1h-1v-5a1 1 0 0 0-1-1z"/></svg>