<svg xmlns="http://www.w3.org/2000/svg" width="24" height="24" viewBox="0 0 24 24"><path d="M16 2a1 1 0 0 0-.707.293 1 1 0 0 0 0 1.414L17.586 6H4a1 1 0 0 0-1 1 1 1 0 0 0 1 1h13.586l-2.293 2.293a1 1 0 0 0 0 1.414 1 1 0 0 0 1.414 0l4-4a1 1 0 0 0 .102-.12l.002-.003a1 1 0 0 0 .14-.275v-.002A1 1 0 0 0 21 7a1 1 0 0 0-.006-.098v-.006l-.008-.05-.011-.067-.01-.04-.02-.061-.021-.06a1 1 0 0 0-.04-.083l-.003-.006-.01-.015-.039-.069-.01-.013-.004-.006a1 1 0 0 0-.07-.09l-.041-.043-4-4A1 1 0 0 0 16 2zM8 12a1 1 0 0 0-.707.293l-4 4a1 1 0 0 0-.057.074 1 1 0 0 0-.066.086 1 1 0 0 0-.084.166 1 1 0 0 0-.041.102A1 1 0 0 0 3 17a1 1 0 0 0 .045.28 1 1 0 0 0 .04.1 1 1 0 0 0 .085.167 1 1 0 0 0 .066.086 1 1 0 0 0 .057.074l4 4a1 1 0 0 0 1.414 0 1 1 0 0 0 0-1.414L6.414 18H20a1 1 0 0 0 1-1 1 1 0 0 0-1-1H6.414l2.293-2.293a1 1 0 0 0 0-1.414A1 1 0 0 0 8 12z"/></svg>