<svg xmlns="http://www.w3.org/2000/svg" width="24" height="24" viewBox="0 0 24 24"><path d="M4 6C2.355 6 1 7.355 1 9v6c0 .833.386 1.55.918 2.082S3.167 18 4 18h2a1 1 0 0 0 1-1 1 1 0 0 0-1-1H4c-.167 0-.45-.114-.668-.332S3 15.167 3 15V9c0-.564.436-1 1-1h2a1 1 0 0 0 1-1 1 1 0 0 0-1-1zm6 0a1 1 0 0 0-1 1v6a1 1 0 0 0 1 1 1 1 0 0 0 1-1V7a1 1 0 0 0-1-1zm4 0a1 1 0 0 0-1 1 1 1 0 0 0 1 1h2c.564 0 1 .436 1 1v6c0 .167-.114.45-.332.668S16.167 16 16 16h-2a1 1 0 0 0-1 1 1 1 0 0 0 1 1h2c.833 0 1.55-.386 2.082-.918S19 15.833 19 15V9c0-1.645-1.355-3-3-3zm8 4a1 1 0 0 0-1 1v2a1 1 0 0 0 1 1 1 1 0 0 0 1-1v-2a1 1 0 0 0-1-1zm-12 6a1 1 0 0 0-1 1v.01a1 1 0 0 0 1 1 1 1 0 0 0 1-1V17a1 1 0 0 0-1-1z"/></svg>