<svg xmlns="http://www.w3.org/2000/svg" width="24" height="24" viewBox="0 0 24 24"><path d="M12 1C8.155 1 5 4.155 5 8c0 3.357-.712 5.428-1.377 6.646-.665 1.219-1.178 1.522-1.178 1.522A1 1 0 0 0 3 18h18a1 1 0 0 0 .555-1.832s-.65-.393-1.36-1.814a1 1 0 0 0-1.341-.448 1 1 0 0 0-.448 1.342c.171.341.34.481.52.752H5.053c.152-.22.175-.124.324-.396C6.212 14.072 7 11.643 7 8c0-2.755 2.245-5 5-5 .867 0 1.563.157 2.314.574a1 1 0 0 0 1.36-.388 1 1 0 0 0-.389-1.36C14.237 1.244 13.133 1 12 1zm6 3a1 1 0 0 0-1 1v2h-2a1 1 0 0 0-1 1 1 1 0 0 0 1 1h2v2a1 1 0 0 0 1 1 1 1 0 0 0 1-1V9h2a1 1 0 0 0 1-1 1 1 0 0 0-1-1h-2V5a1 1 0 0 0-1-1zm-4.246 16.002a1 1 0 0 0-.93.516c-.382.695-1.266.695-1.648 0a1 1 0 0 0-.598-.479 1 1 0 0 0-.76.084 1 1 0 0 0-.394 1.36c1.091 1.984 4.06 1.984 5.152 0a1 1 0 0 0-.394-1.36 1 1 0 0 0-.428-.121z"/></svg>