<svg xmlns="http://www.w3.org/2000/svg" width="24" height="24" viewBox="0 0 24 24"><path d="M7 3c-1.093 0-2 .907-2 2v14c0 1.093.907 2 2 2h8c1.583 0 2.898-.63 3.748-1.586S20 17.222 20 16s-.402-2.458-1.252-3.414c-.349-.392-.821-.684-1.312-.945.091-.087.229-.133.312-.227C18.598 10.458 19 9.222 19 8s-.402-2.458-1.252-3.414S15.583 3 14 3zm0 2h7c1.083 0 1.769.37 2.252.914S17 7.222 17 8s-.265 1.542-.748 2.086S15.083 11 14 11H7zm0 8h8c1.083 0 1.769.37 2.252.914S18 15.222 18 16s-.265 1.542-.748 2.086S16.083 19 15 19H7z"/></svg>