<svg xmlns="http://www.w3.org/2000/svg" width="24" height="24" viewBox="0 0 24 24"><path d="M4 1C2.355 1 1 2.355 1 4v12c0 .722.235 1.458.752 2.04.517.58 1.331.96 2.248.96h1a1 1 0 0 0 1-1 1 1 0 0 0-1-1H4c-.417 0-.602-.12-.752-.29A1.1 1.1 0 0 1 3 16c0-.278.098-.542.248-.71.15-.17.335-.29.752-.29h1a1 1 0 0 0 1-1 1 1 0 0 0-1-1H4c-.352 0-.69.056-1 .158V4c0-.564.436-1 1-1h11a1 1 0 0 0 1-1 1 1 0 0 0-1-1zm7 4C9.355 5 8 6.355 8 8v12c0 .722.235 1.458.752 2.04.517.58 1.331.96 2.248.96h11a1 1 0 0 0 1-1V6a1 1 0 0 0-1-1zm0 2h10v10H11c-.36 0-.684.099-1 .205V8c0-.564.436-1 1-1zm0 12h10v2H11c-.417 0-.602-.12-.752-.29A1.1 1.1 0 0 1 10 20c0-.278.098-.542.248-.71.15-.17.335-.29.752-.29z"/></svg>