<svg xmlns="http://www.w3.org/2000/svg" width="24" height="24" viewBox="0 0 24 24"><path d="M6.5 1A3.515 3.515 0 0 0 3 4.5v15c0 .847.277 1.708.877 2.383S5.417 23 6.5 23H20a1 1 0 0 0 1-1v-7a1 1 0 0 0-1-1 1 1 0 0 0-1 1v1H6.5c-.545 0-1.053.111-1.5.309V4.5C5 3.66 5.66 3 6.5 3H10a1 1 0 0 0 1-1 1 1 0 0 0-1-1zM16 1a3.05 3.05 0 0 0-2.04.752C13.38 2.269 13 3.083 13 4v1c-1.09 0-2 .91-2 2v3c0 1.09.91 2 2 2h6c1.09 0 2-.91 2-2V7c0-1.09-.91-2-2-2V4c0-.917-.38-1.731-.96-2.248A3.05 3.05 0 0 0 16 1zm0 2c.278 0 .542.098.71.248.17.15.29.335.29.752v1h-2V4c0-.417.12-.602.29-.752A1.1 1.1 0 0 1 16 3zm-3 4h6v3h-6zM6.5 18H19v3H6.5c-.583 0-.894-.183-1.127-.445C5.14 20.292 5 19.903 5 19.5s.14-.792.373-1.055S5.917 18 6.5 18z"/></svg>