<svg xmlns="http://www.w3.org/2000/svg" width="24" height="24" viewBox="0 0 24 24"><path d="M6.5 1A3.515 3.515 0 0 0 3 4.5v15c0 .847.277 1.708.877 2.383S5.417 23 6.5 23H20a1 1 0 0 0 1-1V2a1 1 0 0 0-1-1zm0 2H19v8.285l-.393-.392a2.97 2.97 0 0 0-2.107-.866c-.765 0-1.53.289-2.107.866L9.285 16H6.5c-.545 0-1.053.113-1.5.31V4.5C5 3.66 5.66 3 6.5 3zM10 5C8.355 5 7 6.355 7 8s1.355 3 3 3 3-1.355 3-3-1.355-3-3-3zm0 2c.564 0 1 .436 1 1s-.436 1-1 1-1-.436-1-1 .436-1 1-1zm6.5 4.973c.235 0 .47.11.693.334L19 14.113V16h-6.887l3.694-3.693c.223-.224.458-.334.693-.334zM6.5 18H19v3H6.5c-.583 0-.894-.183-1.127-.445C5.14 20.292 5 19.903 5 19.5s.14-.792.373-1.055S5.917 18 6.5 18z"/></svg>