<svg xmlns="http://www.w3.org/2000/svg" width="24" height="24" viewBox="0 0 24 24"><path d="M12 1.336c-.535 0-1.07.143-1.545.428v-.002l-3 1.8a3 3 0 0 0-1.053 1.07v.003c-.258.447-.4.96-.402 1.492v3.807l-3.545 2.129a3 3 0 0 0-1.053 1.07v.002c-.258.447-.4.96-.402 1.492v3.246a3 3 0 0 0 1.455 2.564l3 1.801v-.002c.455.273.964.415 1.477.426L7 22.67l.068-.008a3 3 0 0 0 1.477-.426v.002L12 20.166l3.455 2.072v-.002c.455.273.964.415 1.477.426l.068.008.068-.008a3 3 0 0 0 1.477-.426v.002l3-1.8A3 3 0 0 0 23 17.873v-3.246a3 3 0 0 0-.363-1.42l-.028-.053-.011-.02a3 3 0 0 0-1.053-1.072L18 9.935V6.127a3 3 0 0 0-.363-1.42l-.028-.053-.011-.02a3 3 0 0 0-1.053-1.072l-3-1.8v.002A3 3 0 0 0 12 1.336zm0 1.998a1 1 0 0 1 .516.143l2.535 1.521L12 6.832 8.95 4.998l2.534-1.521A1 1 0 0 1 12 3.334zm-4 3.43 3 1.8v3.17l-3-1.8zm8 0v3.17l-3 1.8v-3.17zm-9 4.902 3.057 1.834-3.055 1.834-3.053-1.836zm10 0 3.05 1.832-3.052 1.836-3.055-1.834zM3 15.264l3 1.802v3.166l-2.516-1.51A1 1 0 0 1 3 17.87zm18 0v2.605a1 1 0 0 1-.484.854L18 20.233v-3.167zm-10 .002v3.168L8 20.23v-3.166zm2 0 3 1.798v3.166l-3-1.796z"/></svg>