<svg xmlns="http://www.w3.org/2000/svg" width="24" height="24" viewBox="0 0 24 24"><path d="M8 1a1 1 0 0 0-.707.293 1 1 0 0 0 0 1.414l1.219 1.219a4.2 4.2 0 0 0-.51 2.248L8 6.13v.29c-.75.33-1.403.839-1.908 1.472A3.05 3.05 0 0 1 4 5a1 1 0 0 0-1-1 1 1 0 0 0-1 1 5.04 5.04 0 0 0 3.178 4.688A5 5 0 0 0 5 11v1H2a1 1 0 0 0-1 1 1 1 0 0 0 1 1h3c0 .793.136 1.555.383 2.268C3.417 16.948 2 18.837 2 21a1 1 0 0 0 1 1 1 1 0 0 0 1-1c0-1.38 1.012-2.61 2.322-2.926C7.597 19.841 9.671 21 12 21c2.33 0 4.403-1.159 5.678-2.926C18.988 18.391 20 19.62 20 21a1 1 0 0 0 1 1 1 1 0 0 0 1-1c0-2.163-1.417-4.051-3.383-4.732A6.9 6.9 0 0 0 19 14h3a1 1 0 0 0 1-1 1 1 0 0 0-1-1h-3v-1c0-.454-.063-.895-.178-1.314A5.04 5.04 0 0 0 21.971 5a1 1 0 0 0-1-1 1 1 0 0 0-1 1c0 1.38-.927 2.516-2.067 2.889A5.05 5.05 0 0 0 16 6.422V6.13l-.002.043a4.2 4.2 0 0 0-.51-2.248l1.219-1.219a1 1 0 0 0 0-1.414 1 1 0 0 0-1.414 0l-1.225 1.225A4.24 4.24 0 0 0 12 1.992c-.712 0-1.431.17-2.068.526L8.707 1.293A1 1 0 0 0 8 1zm4 2.992c.46 0 .906.137 1.25.375a1 1 0 0 0 .162.22 1 1 0 0 0 .254.18c.215.29.349.673.338 1.233H9.996c-.01-.56.123-.942.338-1.232a1 1 0 0 0 .254-.18 1 1 0 0 0 .168-.225A2.2 2.2 0 0 1 12 3.993zM10 8h4c.25 0 .491.033.723.09l.04.012A2.98 2.98 0 0 1 17 11v3a5.01 5.01 0 0 1-4 4.9V11a1 1 0 0 0-1-1 1 1 0 0 0-1 1v7.9A5.01 5.01 0 0 1 7 14v-3a2.98 2.98 0 0 1 2.236-2.898l.041-.012A3 3 0 0 1 10 8z"/></svg>