<svg xmlns="http://www.w3.org/2000/svg" width="24" height="24" viewBox="0 0 24 24"><path d="M3 2a1 1 0 0 0-1 1v1.418C1.438 4.775 1 5.295 1 6v1c0 1.645 1.355 3 3 3v7.5c0 1.417.567 2.606 1.43 3.373C6.292 21.64 7.403 22 8.5 22s2.208-.36 3.07-1.127c.863-.767 1.43-1.956 1.43-3.373v-11c0-.917.308-1.477.758-1.877S14.848 4 15.5 4c.653 0 1.292.223 1.742.623S18 5.583 18 6.5V14c-1.645 0-3 1.355-3 3v1c0 .705.438 1.225 1 1.582V21a1 1 0 0 0 1 1 1 1 0 0 0 1-1v-1h2v1a1 1 0 0 0 1 1 1 1 0 0 0 1-1v-1.275c.594-.35 1-.995 1-1.725v-1c0-1.645-1.355-3-3-3V6.5c0-1.417-.567-2.606-1.43-3.373C17.708 2.36 16.597 2 15.5 2s-2.208.36-3.07 1.127C11.567 3.894 11 5.083 11 6.5v11c0 .917-.308 1.477-.758 1.877S9.152 20 8.5 20c-.653 0-1.292-.223-1.742-.623S6 18.417 6 17.5V10c1.645 0 3-1.355 3-3V6c0-.73-.406-1.375-1-1.725V3a1 1 0 0 0-1-1 1 1 0 0 0-1 1v1H4V3a1 1 0 0 0-1-1zm0 4h4v1c0 .564-.436 1-1 1H4c-.564 0-1-.436-1-1zm15 10h2c.564 0 1 .436 1 1v1h-4v-1c0-.564.436-1 1-1z"/></svg>