<svg xmlns="http://www.w3.org/2000/svg" width="24" height="24" viewBox="0 0 24 24"><path d="M14 1a1 1 0 0 0-1 1 1 1 0 0 0 1 1h.01a1 1 0 0 0 1-1 1 1 0 0 0-1-1zm-4 1a1 1 0 0 0-1 1 1 1 0 0 0 1 1h.01a1 1 0 0 0 1-1 1 1 0 0 0-1-1zm12.148 1.01a1 1 0 0 0-.39.02l-20 5a1 1 0 0 0-.729 1.212 1 1 0 0 0 1.213.729L11 7.78V11H7c-2.199 0-4 1.801-4 4v4c0 2.199 1.801 4 4 4h10c2.199 0 4-1.801 4-4v-4c0-2.199-1.801-4-4-4h-4V7.281l9.242-2.31a1 1 0 0 0 .729-1.213 1 1 0 0 0-.823-.748zM7 13h1v3H5v-1c0-1.125.875-2 2-2zm3 0h4v3h-4zm6 0h1c1.125 0 2 .875 2 2v1h-3zM5 18h14v1c0 1.125-.875 2-2 2H7c-1.125 0-2-.875-2-2z"/></svg>