<svg xmlns="http://www.w3.org/2000/svg" width="24" height="24" viewBox="0 0 24 24"><path d="M8 1a1 1 0 0 0-1 1v1H5C3.355 3 2 4.355 2 6v14c0 1.645 1.355 3 3 3h3.5a1 1 0 0 0 1-1 1 1 0 0 0-1-1H5c-.564 0-1-.436-1-1v-9h4a1 1 0 0 0 1-1 1 1 0 0 0-1-1H4V6c0-.564.436-1 1-1h2v1a1 1 0 0 0 1 1 1 1 0 0 0 1-1V5h6v1a1 1 0 0 0 1 1 1 1 0 0 0 1-1V5h2c.564 0 1 .436 1 1v1.5a1 1 0 0 0 1 1 1 1 0 0 0 1-1V6c0-1.645-1.355-3-3-3h-2V2a1 1 0 0 0-1-1 1 1 0 0 0-1 1v1H9V2a1 1 0 0 0-1-1zm8 8c-3.854 0-7 3.146-7 7s3.146 7 7 7 7-3.146 7-7-3.146-7-7-7zm0 2c2.773 0 5 2.227 5 5s-2.227 5-5 5-5-2.227-5-5 2.227-5 5-5zm0 2a1 1 0 0 0-1 1v2.3a1 1 0 0 0 .375.78l1.5 1.201a1 1 0 0 0 1.406-.156 1 1 0 0 0-.156-1.406L17 15.82V14a1 1 0 0 0-1-1z"/></svg>