<svg xmlns="http://www.w3.org/2000/svg" width="24" height="24" viewBox="0 0 24 24"><path d="M2 1a1 1 0 0 0-.707.293 1 1 0 0 0 0 1.414l1.406 1.406A3 3 0 0 0 2 5.984V20c0 1.645 1.355 3 3 3h14.002a3 3 0 0 0 1.898-.686l.393.393a1 1 0 0 0 1.414 0 1 1 0 0 0 0-1.414l-1.215-1.213L10.707 9.293 4.895 3.48 2.707 1.293A1 1 0 0 0 2 1zm14 0a1 1 0 0 0-1 1v1H9.5a1 1 0 0 0-1 1 1 1 0 0 0 1 1H15v1a1 1 0 0 0 1 1 1 1 0 0 0 1-1V5h2c.564 0 1 .436 1 1v3h-4.5a1 1 0 0 0-1 1 1 1 0 0 0 1 1H20v4.5a1 1 0 0 0 1 1 1 1 0 0 0 1-1V6c0-1.645-1.355-3-3-3h-2V2a1 1 0 0 0-1-1zM4.129 5.543 7.586 9H4V6.016a1 1 0 0 1 .129-.473zM4 11h5.586l9.88 9.88a1 1 0 0 1-.468.12H5c-.564 0-1-.436-1-1z"/></svg>