<svg xmlns="http://www.w3.org/2000/svg" width="24" height="24" viewBox="0 0 24 24"><path d="M15 1a1 1 0 0 0-.555.168S12 2.716 12 5.5c0 .386.048.748.129 1.086l-.047-.004c-1.402-.084-2.91.443-4.148 1.68v.002C6.237 9.96 4.713 13.15 3.463 16.012c-1.25 2.86-2.135 5.353-2.135 5.353a1 1 0 0 0 1.276 1.278s2.497-.885 5.359-2.133c2.862-1.249 6.052-2.77 7.744-4.463.105-.105.132-.232.227-.34a1 1 0 0 0 .113 0 1 1 0 0 0 .26-.56c.718-1.04 1.149-2.156 1.086-3.245q-.003-.018-.004-.037c.345.085.715.135 1.111.135 2.784 0 4.332-2.445 4.332-2.445a1 1 0 0 0 0-1.11S21.284 6 18.5 6q-.28.001-.543.043.042-.263.043-.543c0-2.784-2.445-4.332-2.445-4.332A1 1 0 0 0 15 1zm0 2.37c.459.455 1 1.13 1 2.13 0 .428-.36 1.186-.8 1.773-.133.176-.143.16-.262.297C14.489 7.101 14 6.438 14 5.5c0-1 .541-1.675 1-2.13zM18.5 8c1 0 1.675.541 2.13 1-.455.459-1.13 1-2.13 1-.935 0-1.599-.486-2.068-.934.139-.12.122-.132.3-.265C17.324 8.359 18.087 8 18.5 8zm-6.857.574q.16-.006.32.004a3.5 3.5 0 0 1 1.654.56c.275.275.515.468.666.579.108.146.29.376.551.64a3.5 3.5 0 0 1 .562 1.66q.04.678-.253 1.372l-1.555-1.557a1 1 0 0 0-1.414 0 1 1 0 0 0 0 1.416l1.681 1.682c-1.344 1.143-4.11 2.62-6.693 3.746-1.656.722-2.132.87-3.103 1.236.367-.97.513-1.445 1.236-3.1.464-1.062 1.015-2.139 1.557-3.181l1.084 1.078a1 1 0 0 0 1.414-.004 1 1 0 0 0-.004-1.414l-1.463-1.455c.512-.844 1.037-1.73 1.465-2.158.773-.772 1.544-1.074 2.295-1.104z"/></svg>