<svg xmlns="http://www.w3.org/2000/svg" width="24" height="24" viewBox="0 0 24 24"><path d="M4 3C2.355 3 1 4.355 1 6v2a1 1 0 0 0 1 1 1 1 0 0 0 1-1V6c0-.564.436-1 1-1h16c.564 0 1 .436 1 1v12c0 .564-.436 1-1 1h-6a1 1 0 0 0-1 1 1 1 0 0 0 1 1h6c1.645 0 3-1.355 3-3V6c0-1.645-1.355-3-3-3zm-1.895 8.006a1 1 0 0 0-1.1.889 1 1 0 0 0 .89 1.1 7.99 7.99 0 0 1 7.11 7.11 1 1 0 0 0 1.1.89 1 1 0 0 0 .89-1.1 10.01 10.01 0 0 0-8.89-8.89zm-.144 3.996a1 1 0 0 0-.943.814 1 1 0 0 0 .798 1.166 4 4 0 0 1 3.202 3.202 1 1 0 0 0 1.166.798 1 1 0 0 0 .798-1.166 6 6 0 0 0-4.798-4.798 1 1 0 0 0-.223-.016zM2 19a1 1 0 0 0-1 1 1 1 0 0 0 1 1h.01a1 1 0 0 0 1-1 1 1 0 0 0-1-1z"/></svg>