<svg xmlns="http://www.w3.org/2000/svg" width="24" height="24" viewBox="0 0 24 24"><path d="M12 1C5.937 1 1 5.937 1 12c0 2.673.96 5.125 2.553 7.033l-2.26 2.26a1 1 0 0 0 0 1.414 1 1 0 0 0 1.414 0l2.26-2.26A10.95 10.95 0 0 0 12 23c6.063 0 11-4.937 11-11 0-2.673-.96-5.125-2.553-7.033l2.26-2.26a1 1 0 0 0 0-1.414 1 1 0 0 0-1.414 0l-2.26 2.26A10.95 10.95 0 0 0 12 1zm0 2a8.97 8.97 0 0 1 5.621 1.965L4.965 17.62A8.97 8.97 0 0 1 3 12c0-4.982 4.018-9 9-9zm7.035 3.379A8.97 8.97 0 0 1 21 12c0 4.982-4.018 9-9 9a8.97 8.97 0 0 1-5.621-1.965z"/></svg>