<svg xmlns="http://www.w3.org/2000/svg" width="24" height="24" viewBox="0 0 24 24"><path d="M12 1C7.142 1 3.419 3.974 1.838 7.791c-1.58 3.817-1.05 8.552 2.385 11.986s8.17 3.966 11.986 2.385C20.026 20.582 23 16.858 23 12a1 1 0 0 0-1-1 1 1 0 0 0-1 1c0 4.052-2.413 7.012-5.557 8.314-3.143 1.302-6.942.914-9.806-1.95-2.865-2.865-3.253-6.664-1.951-9.807S7.948 3 12 3a1 1 0 0 0 1-1 1 1 0 0 0-1-1zm4 0a1 1 0 0 0-1 1 1 1 0 0 0 1 1h3.586l-8.293 8.293a1 1 0 0 0 0 1.414 1 1 0 0 0 1.414 0L21 4.414V8a1 1 0 0 0 1 1 1 1 0 0 0 1-1V2l-.002-.016a1 1 0 0 0-.03-.224l-.007-.033a1 1 0 0 0-.094-.223l-.002-.004-.002-.002a1 1 0 0 0-.156-.205 1 1 0 0 0-.234-.17l-.078-.033a1 1 0 0 0-.198-.065 1 1 0 0 0-.105-.013A1 1 0 0 0 22 1z"/></svg>