<svg xmlns="http://www.w3.org/2000/svg" width="24" height="24" viewBox="0 0 24 24"><path d="M16 3a7.01 7.01 0 0 0-6.902 5.834 1 1 0 0 0 .818 1.152 1 1 0 0 0 1.152-.82c.29-1.71 1.438-3.053 2.942-3.71-.192.593-.315 1.196-.278 1.78.085 1.327.7 2.532 1.6 3.432s2.105 1.515 3.432 1.6c.554.035 1.126-.093 1.691-.264-.432.959-1.05 1.805-1.955 2.328a1 1 0 0 0-.365 1.365 1 1 0 0 0 1.365.366A7 7 0 0 0 23 10a1 1 0 0 0-1.697-.717c-.822.8-1.63 1.038-2.412.988s-1.558-.43-2.145-1.017-.968-1.363-1.017-2.145c-.05-.782.187-1.59.988-2.412A1 1 0 0 0 16 3zm-9.125 8.006a5.9 5.9 0 0 0-2.334.523c-3.485 1.567-4.633 6.013-2.342 9.07a1 1 0 0 0 1.4.202 1 1 0 0 0 .202-1.4 3.978 3.978 0 0 1 1.56-6.047A3.98 3.98 0 0 1 10.92 16.2a1 1 0 0 0 .98.799h1.102c.967-.001 1.59.553 1.871 1.287s.183 1.564-.539 2.207a1 1 0 0 0-.08 1.41 1 1 0 0 0 1.412.082 4 4 0 0 0 1.076-4.412A4 4 0 0 0 12.998 15h-.486c-.855-2.317-2.936-3.898-5.305-3.99a6 6 0 0 0-.332-.004zM7 18a1 1 0 0 0-1 1v2a1 1 0 0 0 1 1 1 1 0 0 0 1-1v-2a1 1 0 0 0-1-1zm4 1a1 1 0 0 0-1 1v2a1 1 0 0 0 1 1 1 1 0 0 0 1-1v-2a1 1 0 0 0-1-1z"/></svg>