<svg xmlns="http://www.w3.org/2000/svg" width="24" height="24" viewBox="0 0 24 24"><path d="M8 1a1 1 0 0 0-1 1v1H5C3.355 3 2 4.355 2 6v14c0 1.645 1.355 3 3 3h14c1.645 0 3-1.355 3-3V6c0-1.645-1.355-3-3-3h-2V2a1 1 0 0 0-1-1 1 1 0 0 0-1 1v1H9V2a1 1 0 0 0-1-1zM5 5h14c.571 0 1 .429 1 1v14c0 .571-.429 1-1 1H5c-.571 0-1-.429-1-1V6c0-.571.429-1 1-1zm7 2c-1.645 0-3 1.355-3 3s1.355 3 3 3 3-1.355 3-3-1.355-3-3-3zm0 2c.564 0 1 .436 1 1s-.436 1-1 1-1-.436-1-1 .436-1 1-1zm-3 6c-1.645 0-3 1.355-3 3a1 1 0 0 0 1 1 1 1 0 0 0 1-1c0-.564.436-1 1-1h6c.564 0 1 .436 1 1a1 1 0 0 0 1 1 1 1 0 0 0 1-1c0-1.645-1.355-3-3-3z"/></svg>