<svg xmlns="http://www.w3.org/2000/svg" width="24" height="24" viewBox="0 0 24 24"><path d="M4 1C2.355 1 1 2.355 1 4v10c0 1.645 1.355 3 3 3a1 1 0 0 0 1-1 1 1 0 0 0-1-1c-.555 0-1-.445-1-1V4c0-.555.445-1 1-1h10c.555 0 1 .445 1 1a1 1 0 0 0 1 1 1 1 0 0 0 1-1c0-1.645-1.355-3-3-3zm6 6c-1.645 0-3 1.355-3 3v10c0 1.645 1.355 3 3 3h10c1.645 0 3-1.355 3-3V10c0-1.645-1.355-3-3-3zm0 2h10c.571 0 1 .429 1 1v10c0 .571-.429 1-1 1H10c-.571 0-1-.429-1-1V10c0-.571.429-1 1-1zm8 3a1 1 0 0 0-.707.293L14 15.586l-1.293-1.293a1 1 0 0 0-1.414 0 1 1 0 0 0 0 1.414l2 2a1 1 0 0 0 1.414 0l4-4a1 1 0 0 0 0-1.414A1 1 0 0 0 18 12z"/></svg>