<svg xmlns="http://www.w3.org/2000/svg" width="24" height="24" viewBox="0 0 24 24"><path d="M6 1c-1.362 0-2.413.879-2.898 1.877-.386.792-.536 1.66-.582 2.486a2.6 2.6 0 0 0-.584.399C1.233 6.402 1 7.368 1 8.5l.002.047a8.7 8.7 0 0 0 1.861 4.986 3 3 0 0 0-.119.285c-.221.645-.191 1.315-.033 1.942.316 1.254 1.125 2.423 2.115 3.41s2.162 1.79 3.412 2.11c.626.159 1.293.192 1.936-.022q.15-.05.293-.121a8.7 8.7 0 0 0 4.986 1.861L15.5 23c1.132 0 2.098-.233 2.738-.936.166-.181.296-.377.399-.584.827-.046 1.694-.196 2.486-.582C22.121 20.413 23 19.362 23 18c0-.742-.23-1.425-.652-1.912s-.978-.749-1.504-.893c-.718-.196-1.44-.214-2.057-.207a2.2 2.2 0 0 0-.371-.59c-.362-.407-.804-.64-1.24-.82l-1.85-.808a3.3 3.3 0 0 0-.123-.977c-.207-.72-.62-1.352-1.14-1.867s-1.155-.92-1.872-1.123a3.3 3.3 0 0 0-.959-.121l-.806-1.852-.004-.006c-.18-.436-.413-.878-.82-1.24a2.3 2.3 0 0 0-.59-.371c.007-.617-.011-1.339-.207-2.057-.144-.526-.406-1.08-.893-1.504S6.742 1 6 1zm0 2c.378 0 .504.077.602.162s.197.24.273.52c.092.338.119.813.125 1.318H4.566c.065-.48.175-.924.332-1.248C5.163 3.208 5.362 3 6 3zM4.5 7H8c.2 0 .208.02.273.078s.181.22.301.512l.01.02.756 1.73-5.031 2.789A6.7 6.7 0 0 1 3.004 8.48c.005-.837.16-1.134.28-1.242C3.403 7.128 3.741 7 4.5 7zm6.814 3.67q.15.005.332.057c.325.092.704.318 1.01.62.306.303.533.677.625.997s.072.552-.054.777l-.002.004-3.22 5.809c-.156.282-.286.368-.464.427-.178.06-.45.072-.809-.02-.717-.182-1.7-.794-2.496-1.587S4.83 15.984 4.65 15.27c-.09-.355-.075-.622-.013-.802s.153-.32.449-.485l5.789-3.209v-.002a.8.8 0 0 1 .44-.103zm3.346 3.99 1.73.756.02.01c.292.12.454.235.512.3.058.066.078.074.078.274v3.5c0 .758-.129 1.097-.238 1.217-.108.118-.405.274-1.242.28a6.7 6.7 0 0 1-3.647-1.306zM19 17c.505.006.98.033 1.318.125.28.076.435.176.52.273S21 17.622 21 18c0 .638-.208.837-.752 1.102-.324.157-.768.267-1.248.332z"/></svg>