<svg xmlns="http://www.w3.org/2000/svg" width="24" height="24" viewBox="0 0 24 24"><path d="M11 1C9.355 1 8 2.355 8 4v4H4c-1.645 0-3 1.355-3 3v2c0 1.645 1.355 3 3 3h4v4c0 1.645 1.355 3 3 3h2c1.645 0 3-1.355 3-3v-4h4c1.645 0 3-1.355 3-3v-2c0-1.645-1.355-3-3-3h-4V4c0-1.645-1.355-3-3-3zm0 2h2c.564 0 1 .436 1 1v5a1 1 0 0 0 1 1h5c.564 0 1 .436 1 1v2c0 .564-.436 1-1 1h-5a1 1 0 0 0-1 1v5c0 .564-.436 1-1 1h-2c-.555 0-1-.445-1-1v-5a1 1 0 0 0-1-1H4c-.555 0-1-.445-1-1v-2c0-.564.436-1 1-1h5a1 1 0 0 0 1-1V4c0-.564.436-1 1-1z"/></svg>