<svg xmlns="http://www.w3.org/2000/svg" width="24" height="24" viewBox="0 0 24 24"><path d="M12 2.041c-.52 0-1.042.248-1.314.742l-.008.018L7.73 8.395 3.47 4.742l-.02-.017c-.52-.423-1.273-.413-1.763-.094s-.807 1.003-.631 1.65l.002.006L3.89 16.531a2.01 2.01 0 0 0 1.914 1.467H18.2a2.01 2.01 0 0 0 1.912-1.467l2.834-10.246v-.004c.176-.647-.138-1.331-.629-1.65-.49-.319-1.243-.33-1.763.094l-.02.015-4.263 3.653L13.322 2.8l-.008-.018c-.272-.494-.793-.742-1.314-.742zm0 2.541 2.506 4.754.006.012c.59 1.088 2.077 1.376 3.031.588l.014-.012 3.023-2.59-2.396 8.664H5.816L3.422 7.334l3.021 2.59.014.012c.954.788 2.44.5 3.031-.588l.006-.01zM5 20a1 1 0 0 0-1 1 1 1 0 0 0 1 1h14a1 1 0 0 0 1-1 1 1 0 0 0-1-1z"/></svg>