<svg xmlns="http://www.w3.org/2000/svg" width="24" height="24" viewBox="0 0 24 24"><path d="M13 1a1 1 0 0 0-.986.836L11.152 7H5a1 1 0 0 0-1 1 1 1 0 0 0 1 1h.133L6.76 20.422a3.01 3.01 0 0 0 3 2.578h4.52a3.01 3.01 0 0 0 3-2.58l.001-.002L18.871 9H19a1 1 0 0 0 1-1 1 1 0 0 0-1-1h-5.82l.668-4H15a1 1 0 0 0 1-1 1 1 0 0 0-1-1zM7.152 9h9.7l-.733 5.258a5.47 5.47 0 0 1-3.732-.18 7.47 7.47 0 0 0-4.567-.387zM9.5 15.496a5.5 5.5 0 0 1 2.113.426 7.47 7.47 0 0 0 4.21.46l-.524 3.76A.987.987 0 0 1 14.3 21H9.74a.99.99 0 0 1-1-.86v-.001l-.636-4.46a5.5 5.5 0 0 1 1.396-.183z"/></svg>