<svg xmlns="http://www.w3.org/2000/svg" width="24" height="24" viewBox="0 0 24 24"><path d="M10.969 1.564a3 3 0 0 0-.696.088l-4 1A3.01 3.01 0 0 0 4 5.562V19H2a1 1 0 0 0-1 1 1 1 0 0 0 1 1h2.875l6.64 1.658v.002c1.146.286 2.297-.526 2.464-1.66H22a1 1 0 0 0 1-1 1 1 0 0 0-1-1h-3V6c0-1.645-1.355-3-3-3h-2.451a3.08 3.08 0 0 0-1.906-1.361 3 3 0 0 0-.674-.075zm.029 1.995c.55-.013 1.002.413 1.002 1.003V20.72l-6-1.5V5.562c0-.463.308-.858.758-.97l4-1q.122-.03.24-.033zM14 5h2c.564 0 1 .436 1 1v13h-3zm-4 6a1 1 0 0 0-1 1v.01a1 1 0 0 0 1 1 1 1 0 0 0 1-1V12a1 1 0 0 0-1-1z"/></svg>