<svg xmlns="http://www.w3.org/2000/svg" width="24" height="24" viewBox="0 0 24 24"><path d="M12.5 1A2.497 2.497 0 0 0 10 3.5v9c0 1.383 1.117 2.5 2.5 2.5h7c1.383 0 2.5-1.117 2.5-2.5V6a1 1 0 0 0-.293-.707l-4-4A1 1 0 0 0 17 1zm0 2H15v2c0 1.645 1.355 3 3 3h2v4.5c0 .217-.283.5-.5.5h-7c-.217 0-.5-.283-.5-.5v-9c0-.217.283-.5.5-.5zm4.5.414L19.586 6H18c-.564 0-1-.436-1-1zM7 7a1 1 0 0 0-1 1v8.8c0 .745.376 1.189.693 1.507.318.317.762.693 1.506.693H15a1 1 0 0 0 1-1 1 1 0 0 0-1-1H8.2c.144 0-.01-.025-.093-.107C8.025 16.81 8 16.656 8 16.8V8a1 1 0 0 0-1-1zm-4 4a1 1 0 0 0-1 1v8.8c0 .745.376 1.189.693 1.507.318.317.762.693 1.506.693H11a1 1 0 0 0 1-1 1 1 0 0 0-1-1H4.2c.144 0-.01-.025-.093-.107C4.025 20.81 4 20.656 4 20.8V12a1 1 0 0 0-1-1z"/></svg>