<svg xmlns="http://www.w3.org/2000/svg" width="24" height="24" viewBox="0 0 24 24"><path d="M6 1C4.355 1 3 2.355 3 4v16c0 1.645 1.355 3 3 3h12c1.645 0 3-1.355 3-3V7a1 1 0 0 0-.293-.707l-5-5A1 1 0 0 0 15 1zm0 2h7v3c0 1.645 1.355 3 3 3h3v11c0 .564-.436 1-1 1H6c-.564 0-1-.436-1-1V4c0-.564.436-1 1-1zm9 .414L18.586 7H16c-.564 0-1-.436-1-1zM11.5 11A3.515 3.515 0 0 0 8 14.5c0 1.921 1.579 3.5 3.5 3.5.6 0 1.165-.156 1.66-.426h.002l1.131 1.133a1 1 0 0 0 1.414 0 1 1 0 0 0 0-1.414l-1.133-1.13v-.003c.27-.495.426-1.06.426-1.66 0-1.921-1.579-3.5-3.5-3.5zm0 2c.84 0 1.5.66 1.5 1.5s-.66 1.5-1.5 1.5-1.5-.66-1.5-1.5.66-1.5 1.5-1.5z"/></svg>