<svg xmlns="http://www.w3.org/2000/svg" width="24" height="24" viewBox="0 0 24 24"><path d="M6 1C4.355 1 3 2.355 3 4v16c0 1.645 1.355 3 3 3h12c1.645 0 3-1.355 3-3V7a1 1 0 0 0-.293-.707l-5-5A1 1 0 0 0 15 1zm0 2h7v3c0 1.645 1.355 3 3 3h3v11c0 .564-.436 1-1 1H6c-.564 0-1-.436-1-1V4c0-.564.436-1 1-1zm9 .414L18.586 7H16c-.564 0-1-.436-1-1zM9.5 11.5a1 1 0 0 0-.707.293 1 1 0 0 0 0 1.414L10.586 15l-1.793 1.793a1 1 0 0 0 0 1.414 1 1 0 0 0 1.414 0L12 16.414l1.793 1.793a1 1 0 0 0 1.414 0 1 1 0 0 0 0-1.414L13.414 15l1.793-1.793a1 1 0 0 0 0-1.414 1 1 0 0 0-.707-.293 1 1 0 0 0-.707.293L12 13.586l-1.793-1.793A1 1 0 0 0 9.5 11.5z"/></svg>