<svg xmlns="http://www.w3.org/2000/svg" width="24" height="24" viewBox="0 0 24 24"><path d="M6 1C4.355 1 3 2.355 3 4v6a1 1 0 0 0 1 1 1 1 0 0 0 1-1V4c0-.564.436-1 1-1h7v3c0 1.645 1.355 3 3 3h3v11c0 .564-.436 1-1 1H4a1 1 0 0 0-1 1 1 1 0 0 0 1 1h14c1.645 0 3-1.355 3-3V7a1 1 0 0 0-.293-.707l-5-5A1 1 0 0 0 15 1zm9 2.414L18.586 7H16c-.564 0-1-.436-1-1zM10 9a1 1 0 0 0-.707.293l-1 1-3.004 3.004A2.96 2.96 0 0 0 4 13c-1.645 0-3 1.355-3 3s1.355 3 3 3 3-1.355 3-3c0-.46-.108-.897-.297-1.29L9 12.415l.293.293a1 1 0 0 0 1.414 0 1 1 0 0 0 0-1.414L10.414 11l.293-.293a1 1 0 0 0 0-1.414A1 1 0 0 0 10 9zm-6 6c.564 0 1 .436 1 1s-.436 1-1 1-1-.436-1-1 .436-1 1-1z"/></svg>