<svg xmlns="http://www.w3.org/2000/svg" width="24" height="24" viewBox="0 0 24 24"><path d="M6 1C4.355 1 3 2.355 3 4v16c0 1.645 1.355 3 3 3h12c1.645 0 3-1.355 3-3V7a1 1 0 0 0-.293-.707l-5-5A1 1 0 0 0 15 1zm0 2h8.586L19 7.414V20c0 .564-.436 1-1 1H6c-.564 0-1-.436-1-1V4c0-.564.436-1 1-1zm6 4a3.05 3.05 0 0 0-2.04.752C9.38 8.269 9 9.083 9 10v1c-1.09 0-2 .91-2 2v4c0 1.09.91 2 2 2h6c1.09 0 2-.91 2-2v-4c0-1.09-.91-2-2-2v-1c0-.917-.38-1.731-.96-2.248A3.05 3.05 0 0 0 12 7zm0 2c.278 0 .542.098.71.248.17.15.29.335.29.752v1h-2v-1c0-.417.12-.602.29-.752A1.1 1.1 0 0 1 12 9zm-3 4h6v4H9z"/></svg>