<svg xmlns="http://www.w3.org/2000/svg" width="24" height="24" viewBox="0 0 24 24"><path d="M13.797 6.969c-2.46-.021-4.657.882-6.47 2.07-.702.46-1.29.986-1.884 1.504-1.496-1.614-2.586-3.057-2.586-3.057a1 1 0 0 0-1.37-.343 1 1 0 0 0-.344 1.37S2.188 10.167 3.908 12c-1.72 1.834-2.765 3.486-2.765 3.486a1 1 0 0 0 .343 1.371 1 1 0 0 0 1.371-.343s1.09-1.443 2.586-3.057c.595.518 1.182 1.045 1.883 1.504 1.935 1.268 4.307 2.21 6.967 2.053s5.535-1.428 8.414-4.307a1 1 0 0 0 0-1.414c-2.879-2.879-5.754-4.15-8.414-4.307a10 10 0 0 0-.496-.017zm-.018 2q.197.001.397.013c1.853.11 3.934 1.08 6.17 3.018-2.236 1.938-4.317 2.909-6.17 3.018-2.122.124-4.062-.622-5.752-1.729-.584-.382-.891-.85-1.399-1.289.508-.439.815-.907 1.399-1.29 1.584-1.037 3.388-1.758 5.355-1.741z"/></svg>