<svg xmlns="http://www.w3.org/2000/svg" width="24" height="24" viewBox="0 0 24 24"><path d="M4 2C2.355 2 1 3.355 1 5v13c0 1.645 1.355 3 3 3h14.45a3.01 3.01 0 0 0 2.907-2.25l1.551-6c.394-1.527-.519-2.997-1.908-3.512V8c0-1.645-1.355-3-3-3h-5.926a1 1 0 0 1-.828-.45l-.01-.015-.81-1.185-.002-.002A3 3 0 0 0 7.936 2zm0 2h3.926a1 1 0 0 1 .828.45l.01.015.81 1.185.002.002A3 3 0 0 0 12.064 7H18c.564 0 1 .436 1 1v1H9.24a3.01 3.01 0 0 0-2.683 1.65l-.002.002-1.45 2.9a1 1 0 0 0 .448 1.343 1 1 0 0 0 1.342-.448l1.449-2.9v.004A1 1 0 0 1 9.238 11h10.764a.978.978 0 0 1 .97 1.25l-1.55 6a.99.99 0 0 1-.97.75H4c-.564 0-1-.436-1-1V5c0-.555.445-1 1-1zm10 9c-1.093 0-2 .907-2 2s.907 2 2 2 2-.907 2-2-.907-2-2-2z"/></svg>