<svg xmlns="http://www.w3.org/2000/svg" width="24" height="24" viewBox="0 0 24 24"><path d="M4 2C2.355 2 1 3.355 1 5v4a1 1 0 0 0 1 1 1 1 0 0 0 1-1V5c0-.564.436-1 1-1h3.91a1 1 0 0 1 .844.45l.008.009.802 1.191A3 3 0 0 0 12.07 7H20c.564 0 1 .436 1 1v10c0 .564-.436 1-1 1H4c-.564 0-1-.436-1-1v-3c0-.564.436-1 1-1h4.586l-1.293 1.293a1 1 0 0 0 0 1.414 1 1 0 0 0 1.414 0l3-3a1 1 0 0 0 .213-.318l.004-.006.002-.006A1 1 0 0 0 12 13a1 1 0 0 0-.01-.13l-.006-.04v-.004a1 1 0 0 0-.025-.105l-.014-.043a1 1 0 0 0-.05-.123l-.004-.008-.006-.01a1 1 0 0 0-.067-.111l-.01-.014-.007-.01a1 1 0 0 0-.094-.109l-3-3A1 1 0 0 0 8 9a1 1 0 0 0-.707.293 1 1 0 0 0 0 1.414L8.586 12H4c-1.645 0-3 1.355-3 3v3c0 1.645 1.355 3 3 3h16c1.645 0 3-1.355 3-3V8c0-1.645-1.355-3-3-3h-7.93a1 1 0 0 1-.836-.45l-.005-.009-.803-1.191-.004-.002A3 3 0 0 0 7.89 2z"/></svg>