<svg xmlns="http://www.w3.org/2000/svg" width="24" height="24" viewBox="0 0 24 24"><path d="M7.5 1C5.632 1 4.166 2.077 3.291 3.44S2.017 6.453 2 7.987c-.017 1.39.275 2.418.533 3.258S3 12.721 3 13.62V16c0 .917.38 1.731.96 2.248A3.05 3.05 0 0 0 6 19a3.05 3.05 0 0 0 2.04-.752C8.62 17.731 9 16.917 9 16v-1.82c0-1.29.44-2.566.941-3.971S11 7.269 11 5.5c0-.974-.16-2.003-.687-2.896A3.28 3.28 0 0 0 7.5 1zm0 2c.614 0 .835.19 1.09.621.255.432.41 1.153.41 1.879 0 1.34-.442 2.637-.941 4.04-.278.78-.571 1.594-.78 2.46H4.82c-.108-.49-.248-.929-.374-1.34-.25-.814-.458-1.537-.445-2.648.013-1.186.36-2.535.975-3.492C5.59 3.562 6.358 3 7.5 3zm9 2c-1.256 0-2.285.71-2.812 1.604C13.16 7.497 13 8.526 13 9.5c0 1.77.558 3.304 1.059 4.709S15 16.89 15 18.179V20c0 .917.38 1.731.96 2.248A3.05 3.05 0 0 0 18 23a3.05 3.05 0 0 0 2.04-.752c.58-.517.96-1.331.96-2.248v-2.38c0-.899.21-1.534.467-2.374.258-.84.55-1.869.533-3.258-.017-1.534-.416-3.186-1.291-4.549C19.834 6.077 18.369 5 16.5 5zm0 2c1.142 0 1.91.562 2.525 1.52.615.957.962 2.306.975 3.492.013 1.11-.196 1.834-.445 2.648-.126.411-.266.85-.373 1.34H16.72c-.209-.866-.502-1.68-.78-2.46-.499-1.403-.941-2.7-.941-4.04 0-.726.155-1.447.41-1.879S15.886 7 16.5 7zM5 14h2.004Q7 14.09 7 14.18V16c0 .417-.12.602-.29.752-.168.15-.432.248-.71.248s-.542-.098-.71-.248C5.12 16.602 5 16.417 5 16zm11.996 4H19v2c0 .417-.12.602-.29.752-.168.15-.432.248-.71.248s-.542-.098-.71-.248c-.17-.15-.29-.335-.29-.752v-1.82z"/></svg>