<svg xmlns="http://www.w3.org/2000/svg" width="24" height="24" viewBox="0 0 24 24"><path d="M14 1a1 1 0 0 0-.707.293l-1 1-5 5a1 1 0 0 0 0 1.414 1 1 0 0 0 1.414 0L9 8.414 10.086 9.5l-7.293 7.293c-.677.677-.995 1.553-.947 2.36.047.806.415 1.522.947 2.054s1.248.9 2.055.947c.806.048 1.682-.27 2.359-.947l7.293-7.293L15.586 15l-.293.293a1 1 0 0 0 0 1.414 1 1 0 0 0 1.414 0l5-5 1-1a1 1 0 0 0 0-1.414 1 1 0 0 0-1.414 0L21 9.586 14.414 3l.293-.293a1 1 0 0 0 0-1.414A1 1 0 0 0 14 1zm-1 3.414L19.586 11 17 13.586 10.414 7zm-1.5 6.5 1.586 1.586-7.293 7.293c-.323.323-.572.38-.828.365a1.22 1.22 0 0 1-.758-.365 1.22 1.22 0 0 1-.365-.758c-.015-.256.042-.505.365-.828z"/></svg>