<svg xmlns="http://www.w3.org/2000/svg" width="24" height="24" viewBox="0 0 24 24"><path d="M6 2a1 1 0 0 0-1 1v11.129c-1.719.448-3 2.019-3 3.871 0 2.197 1.803 4 4 4 1.868 0 3.45-1.303 3.883-3.043 4.807-.424 8.65-4.267 9.074-9.074C20.697 9.45 22 7.868 22 6c0-2.197-1.803-4-4-4s-4 1.803-4 4c0 1.836 1.259 3.396 2.955 3.86a7.98 7.98 0 0 1-7.096 7.095A4.03 4.03 0 0 0 7 14.13V3a1 1 0 0 0-1-1zm12 2c1.116 0 2 .884 2 2s-.884 2-2 2-2-.884-2-2 .884-2 2-2zM6 16c1.116 0 2 .884 2 2s-.884 2-2 2-2-.884-2-2 .884-2 2-2z"/></svg>