<svg xmlns="http://www.w3.org/2000/svg" width="24" height="24" viewBox="0 0 24 24"><path d="M6 2C3.803 2 2 3.803 2 6c0 1.852 1.281 3.423 3 3.871V21a1 1 0 0 0 1 1 1 1 0 0 0 1-1V9.871C8.719 9.423 10 7.852 10 6c0-2.197-1.803-4-4-4zm0 2c1.116 0 2 .884 2 2s-.884 2-2 2-2-.884-2-2 .884-2 2-2zm7 1a1 1 0 0 0-1 1 1 1 0 0 0 1 1h3c.564 0 1 .436 1 1v3a1 1 0 0 0 1 1 1 1 0 0 0 1-1V8c0-1.645-1.355-3-3-3zm5 9a1 1 0 0 0-1 1v2h-2a1 1 0 0 0-1 1 1 1 0 0 0 1 1h2v2a1 1 0 0 0 1 1 1 1 0 0 0 1-1v-2h2a1 1 0 0 0 1-1 1 1 0 0 0-1-1h-2v-2a1 1 0 0 0-1-1z"/></svg>