<svg xmlns="http://www.w3.org/2000/svg" width="24" height="24" viewBox="0 0 24 24"><path d="M12 1C5.604 1.002 1.12 6.258 1.014 11.89A1 1 0 0 0 1 12a1 1 0 0 0 .012.096c0 2.184.657 4.415 2.123 6.412 2.178 2.968 5.385 4.318 8.594 4.377a1 1 0 0 0 .591-.022c4.389-.15 8.664-2.753 10.176-7.562a1 1 0 0 0-.654-1.254 1 1 0 0 0-1.254.652c-1.034 3.289-3.587 5.32-6.447 6.02 1.158-1.68 2.098-3.5 2.523-5.512a1 1 0 0 0-.771-1.186 1 1 0 0 0-1.186.772c-.435 2.057-1.435 3.916-2.738 5.553A13.54 13.54 0 0 1 9.072 13H10.5a1 1 0 0 0 1-1 1 1 0 0 0-1-1H9.06a13.33 13.33 0 0 1 3.665-8.31A1 1 0 0 0 12 1zm6 0a3.05 3.05 0 0 0-2.04.752C15.38 2.269 15 3.083 15 4v1c-1.09 0-2 .91-2 2v3c0 1.09.91 2 2 2h6c1.09 0 2-.91 2-2V7c0-1.09-.91-2-2-2V4c0-.917-.38-1.731-.96-2.248A3.05 3.05 0 0 0 18 1zm0 2c.278 0 .542.098.71.248.17.15.29.335.29.752v1h-2V4c0-.417.12-.602.29-.752A1.1 1.1 0 0 1 18 3zm-8.297.324A15.43 15.43 0 0 0 7.076 11h-4.05c.406-3.553 2.948-6.728 6.677-7.676zM15 7h6v3h-6zM3.025 13h4.05a15.4 15.4 0 0 0 2.616 7.662c-1.863-.498-3.626-1.541-4.943-3.336C3.746 15.961 3.195 14.478 3.025 13z"/></svg>