<svg xmlns="http://www.w3.org/2000/svg" width="24" height="24" viewBox="0 0 24 24"><path d="M12 1a3.02 3.02 0 0 0-2.893 2.215A3 3 0 0 0 8 3C6.355 3 5 4.355 5 6v5.922a2.86 2.86 0 0 0-1.31-.225 3.05 3.05 0 0 0-1.913.897 3.05 3.05 0 0 0-.904 1.91c-.06.75.205 1.573.795 2.226l.035.038 3.6 3.6.002.001C6.927 21.981 8.995 23 12 23h2c4.959 0 9-4.041 9-9V8c0-.917-.38-1.731-.96-2.248A3.05 3.05 0 0 0 20 5c-.375 0-.753.064-1.111.197A3.02 3.02 0 0 0 16 3c-.39 0-.764.077-1.107.215A3.02 3.02 0 0 0 12 1zm0 2c.564 0 1 .436 1 1v6a1 1 0 0 0 1 1 1 1 0 0 0 1-1V6c0-.564.436-1 1-1s1 .436 1 1v5a1 1 0 0 0 1 1 1 1 0 0 0 1-1V8c0-.417.12-.602.29-.752.168-.15.432-.248.71-.248s.542.098.71.248c.17.15.29.335.29.752v6c0 3.878-3.122 7-7 7h-2c-2.594 0-3.926-.7-5.283-2.047l-.002-.002-3.563-3.56-.002-.004c-.256-.287-.3-.502-.283-.723a1.08 1.08 0 0 1 .322-.652c.188-.188.43-.304.653-.32.222-.018.437.027.724.288l1.727 1.727a1 1 0 0 0 1.414 0 1 1 0 0 0 0-1.414L7 13.586V6c0-.564.436-1 1-1s1 .436 1 1v4.5a1 1 0 0 0 1 1 1 1 0 0 0 1-1V4c0-.564.436-1 1-1z"/></svg>