<svg xmlns="http://www.w3.org/2000/svg" width="24" height="24" viewBox="0 0 24 24"><path d="M12 1a1 1 0 0 0-.5.135 1 1 0 0 0-.207.158l-4 4a1 1 0 0 0 0 1.414 1 1 0 0 0 1.414 0L11 4.414V10a1 1 0 0 0 1 1 1 1 0 0 0 1-1V4.414l2.293 2.293a1 1 0 0 0 1.414 0 1 1 0 0 0 0-1.414l-3.969-3.967a1 1 0 0 0-.48-.29h-.002A1 1 0 0 0 12 1zM4 13c-1.645 0-3 1.355-3 3v4c0 1.645 1.355 3 3 3h16c1.645 0 3-1.355 3-3v-4c0-1.645-1.355-3-3-3zm0 2h16c.571 0 1 .429 1 1v4c0 .571-.429 1-1 1H4c-.571 0-1-.429-1-1v-4c0-.571.429-1 1-1zm2 2a1 1 0 0 0-1 1 1 1 0 0 0 1 1h.01a1 1 0 0 0 1-1 1 1 0 0 0-1-1zm4 0a1 1 0 0 0-1 1 1 1 0 0 0 1 1h.01a1 1 0 0 0 1-1 1 1 0 0 0-1-1z"/></svg>