<svg xmlns="http://www.w3.org/2000/svg" width="24" height="24" viewBox="0 0 24 24"><path d="M7.5 2C3.922 2 1 4.922 1 8.5c0 2.735 1.755 4.72 3.305 6.219l6.988 6.988a1 1 0 0 0 1.414 0l3-3 3.992-3.992C21.233 13.212 23 11.23 23 8.5 23 4.922 20.078 2 16.5 2c-1.671 0-3.103.633-4.5 1.793C10.603 2.633 9.171 2 7.5 2zm0 2c1.27 0 2.065.221 3.053 1.033L8.336 7.25a3.186 3.186 0 0 0 0 4.5c1.188 1.185 3.121 1.226 4.371.105l.01-.007L14.78 9.95l.002-.002a1.81 1.81 0 0 1 2.446.002l.003.002 2.268 2.04c-.367.442-.771.873-1.2 1.292l-.007.008-.293.293-1.293-1.293a1 1 0 0 0-1.414 0 1 1 0 0 0 0 1.414L16.586 15 15 16.586l-1.293-1.293A1 1 0 0 0 13 15a1 1 0 0 0-.707.293 1 1 0 0 0 0 1.414L13.586 18 12 19.586l-6.293-6.293-.012-.012C4.245 11.88 3 10.365 3 8.5 3 6.003 5.003 4 7.5 4zm9 0C18.997 4 21 6.003 21 8.5c0 .633-.15 1.226-.4 1.791l-2.032-1.824a3.833 3.833 0 0 0-5.13.002l-.004.004-2.061 1.892h-.002c-.489.437-1.171.419-1.623-.033l-.004-.002a1.154 1.154 0 0 1 0-1.66l.004-.002 2.959-2.961C14.091 4.323 14.929 4 16.5 4z"/></svg>