<svg xmlns="http://www.w3.org/2000/svg" width="24" height="24" viewBox="0 0 24 24"><path d="M2 1a1 1 0 0 0-.707.293 1 1 0 0 0 0 1.414l1.41 1.41A6.5 6.5 0 0 0 1 8.5c0 2.735 1.755 4.72 3.305 6.219l6.988 6.988a1 1 0 0 0 1.414 0l3.793-3.793 4.793 4.793a1 1 0 0 0 1.414 0 1 1 0 0 0 0-1.414l-20-20A1 1 0 0 0 2 1zm14.5 1c-1.655 0-3.074.629-4.459 1.766-.986-.84-1.988-1.437-3.094-1.649a1 1 0 0 0-1.17.795 1 1 0 0 0 .795 1.17c.946.18 1.697.592 2.717 1.621a1 1 0 0 0 1.418.004C14.091 4.323 14.929 4 16.5 4 18.997 4 21 6.003 21 8.5c0 1.711-1.07 3.137-2.383 4.469a1 1 0 0 0 .012 1.414 1 1 0 0 0 1.414-.012C21.47 12.923 23 11.03 23 8.5 23 4.922 20.078 2 16.5 2zM4.12 5.533 15.085 16.5 12 19.586l-6.293-6.293-.012-.012C4.245 11.88 3 10.365 3 8.5c0-1.103.404-2.154 1.12-2.967z"/></svg>