<svg xmlns="http://www.w3.org/2000/svg" width="24" height="24" viewBox="0 0 24 24"><path d="M7.5 2C3.922 2 1 4.922 1 8.5c0 2.735 1.755 4.72 3.305 6.219l6.988 6.988a1 1 0 0 0 1.414 0l6.992-6.992C21.233 13.212 23 11.23 23 8.5 23 4.922 20.078 2 16.5 2c-1.671 0-3.103.633-4.5 1.793C10.603 2.633 9.171 2 7.5 2zm0 2c1.27 0 2.065.221 3.053 1.033l-1.26 1.26a1 1 0 0 0 0 1.414L11.586 10l-1.293 1.293a1 1 0 0 0 0 1.414l1 1a1 1 0 0 0 1.414 0 1 1 0 0 0 0-1.414L12.414 12l1.293-1.293a1 1 0 0 0 0-1.414L11.414 7l1.293-1.293C14.091 4.323 14.929 4 16.5 4 18.997 4 21 6.003 21 8.5c0 1.85-1.253 3.368-2.7 4.785l-.007.008L12 19.586l-6.293-6.293-.012-.012C4.245 11.88 3 10.365 3 8.5 3 6.003 5.003 4 7.5 4z"/></svg>