<svg xmlns="http://www.w3.org/2000/svg" width="24" height="24" viewBox="0 0 24 24"><path d="M6 2a1 1 0 0 0-1 1 1 1 0 0 0 1 1h3c1.417 0 2.352.495 3.002 1.227A4 4 0 0 1 12.889 7H6a1 1 0 0 0-1 1 1 1 0 0 0 1 1h6.889a4 4 0 0 1-.887 1.773C11.352 11.505 10.417 12 9 12H6a1 1 0 0 0-.186.018l-.003.002a1 1 0 0 0-.262.093l-.051.028a1 1 0 0 0-.217.166l-.01.007-.019.028a1 1 0 0 0-.135.201l-.027.047a1 1 0 0 0-.074.258l-.006.062A1 1 0 0 0 5 13a1 1 0 0 0 .018.172l.002.017a1 1 0 0 0 .093.262l.028.051a1 1 0 0 0 .166.217l.007.01 8.5 8a1 1 0 0 0 1.415-.043 1 1 0 0 0-.043-1.415L8.52 14H9c1.917 0 3.481-.755 4.498-1.898.786-.885 1.254-1.973 1.426-3.102H18a1 1 0 0 0 1-1 1 1 0 0 0-1-1h-3.076a6.03 6.03 0 0 0-1.34-3H18a1 1 0 0 0 1-1 1 1 0 0 0-1-1z"/></svg>