<svg xmlns="http://www.w3.org/2000/svg" width="24" height="24" viewBox="0 0 24 24"><path d="M12 1C6.064 1 1 4.918 1 10c0 1.594.492 3.147 1.4 4.453A3.1 3.1 0 0 0 2 16c0 .722.235 1.458.752 2.04a2.87 2.87 0 0 0 1.31.821 6 6 0 0 0 2.338 3.94 1 1 0 0 0 1.4-.201 1 1 0 0 0-.2-1.4 4 4 0 0 1-1.516-2.387c.416-.15.783-.382 1.07-.672 1.546.59 3.193.883 4.852.857C17.939 18.995 23 15.08 23 10c0-5.082-5.064-9-11-9zm0 2c5.064 0 9 3.282 9 7s-3.936 7-9 7h-.018a11 11 0 0 1-3.998-.684Q8 16.16 8 16a3.05 3.05 0 0 0-.752-2.04C6.731 13.38 5.917 13 5 13c-.37 0-.724.063-1.049.176A5.8 5.8 0 0 1 3 10c0-3.718 3.936-7 9-7zM5 15c.417 0 .602.12.752.29.15.168.248.432.248.71s-.098.542-.248.71c-.15.17-.335.29-.752.29s-.602-.12-.752-.29A1.1 1.1 0 0 1 4 16c0-.278.098-.542.248-.71.15-.17.335-.29.752-.29z"/></svg>