<svg xmlns="http://www.w3.org/2000/svg" width="24" height="24" viewBox="0 0 24 24"><path d="M12 1C5.937 1 1 5.937 1 12s4.937 11 11 11 11-4.937 11-11S18.063 1 12 1zm0 2c4.982 0 9 4.018 9 9s-4.018 9-9 9-9-4.018-9-9 4.018-9 9-9zM9 8a1 1 0 0 0-1 1 1 1 0 0 0 1 1h.01a1 1 0 0 0 1-1 1 1 0 0 0-1-1zm6 0a1 1 0 0 0-1 1 1 1 0 0 0 1 1h.01a1 1 0 0 0 1-1 1 1 0 0 0-1-1zm-9 4a1 1 0 0 0-.986 1.166A7.01 7.01 0 0 0 12 18.998a7.01 7.01 0 0 0 6.986-5.832A1 1 0 0 0 18 12zm1.406 2h9.188c-.795 1.795-2.535 3.029-4.58 3h-.028c-2.045.029-3.785-1.205-4.58-3z"/></svg>