<svg xmlns="http://www.w3.org/2000/svg" width="24" height="24" viewBox="0 0 24 24"><path d="M12 .992a3 3 0 0 0-1.5.403L2.008 6.26c-1.309.74-1.309 2.739 0 3.48l3.949 2.264-3.95 2.256C.7 15 .7 16.999 2.008 17.74l8.493 4.865a3 3 0 0 0 3 0l8.492-4.865c1.309-.741 1.309-2.739 0-3.48l-3.949-2.256 3.95-2.264c1.308-.741 1.308-2.739 0-3.48L13.5 1.395A3 3 0 0 0 12 .992zm0 2c.172 0 .345.045.5.135h.002l8.5 4.871.006.002-.006.002-5.594 3.207-2.906 1.664H12.5c-.31.18-.69.18-1 0h-.002l-2.906-1.664-5.594-3.207L2.992 8l.006-.002 8.5-4.871h.002a1 1 0 0 1 .5-.135zM7.973 13.156l2.527 1.45a3 3 0 0 0 3 0l2.527-1.45 4.977 2.842.004.002-.006.002-8.5 4.871H12.5c-.31.18-.69.18-1 0h-.002l-8.5-4.871L2.992 16l.004-.002z"/></svg>