<svg xmlns="http://www.w3.org/2000/svg" width="24" height="24" viewBox="0 0 24 24"><path d="M12.066 1a6 6 0 0 0-1.619.205C8.053 1.847 6 4.001 6 7v2H5c-1.645 0-3 1.355-3 3v8c0 1.645 1.355 3 3 3h14c1.645 0 3-1.355 3-3v-8c0-1.645-1.355-3-3-3H8V7c0-2.116 1.334-3.426 2.965-3.863s3.442.03 4.5 1.863a1 1 0 0 0 1.365.365A1 1 0 0 0 17.195 4a5.9 5.9 0 0 0-5.129-3zM5 11h14c.571 0 1 .429 1 1v8c0 .571-.429 1-1 1H5c-.571 0-1-.429-1-1v-8c0-.571.429-1 1-1zm7 3c-1.093 0-2 .907-2 2s.907 2 2 2 2-.907 2-2-.907-2-2-2z"/></svg>