<svg xmlns="http://www.w3.org/2000/svg" width="24" height="24" viewBox="0 0 24 24"><path d="M4 3C2.355 3 1 4.355 1 6v12c0 1.645 1.355 3 3 3h9a1 1 0 0 0 1-1 1 1 0 0 0-1-1H4c-.555 0-1-.445-1-1V8.82l7.434 4.725.005.002a2.94 2.94 0 0 0 3.122 0l.005-.002L21 8.82V13a1 1 0 0 0 1 1 1 1 0 0 0 1-1V6c0-1.645-1.355-3-3-3zm0 2h16c.564 0 1 .436 1 1v.451l-8.502 5.403a.94.94 0 0 1-.996 0L3 6.45V6c0-.564.436-1 1-1zm12.889 11.006a1 1 0 0 0-.596.287 1 1 0 0 0 0 1.414L17.586 19l-1.293 1.293a1 1 0 0 0 0 1.414 1 1 0 0 0 1.414 0L19 20.414l1.293 1.293a1 1 0 0 0 1.414 0 1 1 0 0 0 0-1.414L20.414 19l1.293-1.293a1 1 0 0 0 0-1.414 1 1 0 0 0-1.414 0L19 17.586l-1.293-1.293a1 1 0 0 0-.818-.287z"/></svg>