<svg xmlns="http://www.w3.org/2000/svg" width="24" height="24" viewBox="0 0 24 24"><path d="M12 1.002c-.634 0-1.27.199-1.8.598l-8 6A3 3 0 0 0 1 10v10c0 1.645 1.355 3 3 3h16c1.645 0 3-1.355 3-3V10c0-.947-.452-1.831-1.195-2.396L21.8 7.6l-8-6a3 3 0 0 0-1.8-.598zm0 1.996c.21 0 .42.067.6.201l7.996 5.998c.119.091.212.206.281.332l-8.379 5.325a.94.94 0 0 1-.996 0l-8.38-5.327A1 1 0 0 1 3.4 9.2l8-6a1 1 0 0 1 .6-.201zM3 11.82l7.434 4.725.005.002a2.94 2.94 0 0 0 3.122 0l.005-.002L21 11.82V20c0 .564-.436 1-1 1H4c-.564 0-1-.436-1-1z"/></svg>