<svg xmlns="http://www.w3.org/2000/svg" width="24" height="24" viewBox="0 0 24 24"><path d="M2 1a1 1 0 0 0-.707.293 1 1 0 0 0 0 1.414l2.87 2.87A9.06 9.06 0 0 0 3 9.997V10c0 3.444 2.179 6.582 4.252 8.914a31.5 31.5 0 0 0 4.148 3.887 1 1 0 0 0 1.22-.016 31 31 0 0 0 4.452-4.299l4.221 4.221a1 1 0 0 0 1.414 0 1 1 0 0 0 0-1.414l-4.982-4.982-4.127-4.125-3.748-3.75-3.74-3.739-3.403-3.404A1 1 0 0 0 2 1zm10 0a8.9 8.9 0 0 0-3.965.924 1 1 0 0 0-.451 1.34 1 1 0 0 0 1.34.453A6.9 6.9 0 0 1 11.998 3H12a6.984 6.984 0 0 1 6.998 6.99 7.7 7.7 0 0 1-.723 3.106 1 1 0 0 0 .479 1.33 1 1 0 0 0 1.332-.48A9.7 9.7 0 0 0 21 10.02V10c0-4.958-4.04-8.999-8.998-9zm.809 5.092a1 1 0 0 0-1.026.746 1 1 0 0 0 .715 1.22 2 2 0 0 1 1.434 1.44 1 1 0 0 0 1.216.72 1 1 0 0 0 .721-1.216 4 4 0 0 0-2.867-2.879 1 1 0 0 0-.193-.031zm-7.16.97 2.388 2.39a4.015 4.015 0 0 0 4.512 4.512l3.101 3.1c-1.11 1.295-2.362 2.459-3.671 3.553-.48-.375-1.615-1.213-3.231-3.031C6.822 15.419 5.001 12.557 5 10.002V10c.002-1.02.227-2.02.648-2.937z"/></svg>