<svg xmlns="http://www.w3.org/2000/svg" width="24" height="24" viewBox="0 0 24 24"><path d="M12.037 1.943c-2.143.014-4.226.736-5.918 1.967C2.631 6.448.778 11.237 2.96 16.057L1.053 21.68a1 1 0 0 0 1.267 1.267l5.623-1.906c4.82 2.181 9.609.328 12.147-3.16 2.626-3.61 2.942-9-1.014-12.957-1.978-1.978-4.316-2.888-6.61-2.975a10 10 0 0 0-.429-.006zm-.033 1.95q.17-.002.34.003c1.813.058 3.671.795 5.318 2.442 3.294 3.293 2.946 7.433.81 10.367-2.135 2.935-5.962 4.535-10.117 2.404a1 1 0 0 0-.777-.056l-3.98 1.35 1.35-3.981a1 1 0 0 0-.057-.777C2.76 11.49 4.36 7.663 7.295 5.527c1.375-1 3.015-1.61 4.709-1.634zM10.002 8.5a1 1 0 0 0-.783.375l-2 2.5a1 1 0 0 0 0 1.25l2 2.5a1 1 0 0 0 1.406.156 1 1 0 0 0 .156-1.406L9.281 12l1.5-1.875a1 1 0 0 0-.156-1.406 1 1 0 0 0-.623-.219zm3.996 0a1 1 0 0 0-.623.219 1 1 0 0 0-.156 1.406l1.5 1.875-1.5 1.875a1 1 0 0 0 .156 1.406 1 1 0 0 0 1.406-.156l2-2.5a1 1 0 0 0 0-1.25l-2-2.5a1 1 0 0 0-.783-.375z"/></svg>