<svg xmlns="http://www.w3.org/2000/svg" width="24" height="24" viewBox="0 0 24 24"><path d="M5 2C3.355 2 2 3.355 2 5v16a1 1 0 0 0 1.707.707l2-2a1 1 0 0 0 0-1.414 1 1 0 0 0-1.414 0L4 18.586V5c0-.564.436-1 1-1h14c.564 0 1 .436 1 1v10c0 .564-.436 1-1 1a1 1 0 0 0-1 1 1 1 0 0 0 1 1c1.645 0 3-1.355 3-3V5c0-1.645-1.355-3-3-3zm7 4a1 1 0 0 0-1 1v2H9a1 1 0 0 0-1 1 1 1 0 0 0 1 1h2v2a1 1 0 0 0 1 1 1 1 0 0 0 1-1v-2h2a1 1 0 0 0 1-1 1 1 0 0 0-1-1h-2V7a1 1 0 0 0-1-1zM9 16a1 1 0 0 0-1 1 1 1 0 0 0 1 1h6a1 1 0 0 0 1-1 1 1 0 0 0-1-1z"/></svg>