<svg xmlns="http://www.w3.org/2000/svg" width="24" height="24" viewBox="0 0 24 24"><path d="M12 2c-.633 0-1.133.1-1.5.1a1 1 0 0 0-1 1 1 1 0 0 0 1 1c.633 0 1.133-.1 1.5-.1s.867.1 1.5.1a1 1 0 0 0 1-1 1 1 0 0 0-1-1c-.367 0-.867-.1-1.5-.1zM6.746 3.703a1 1 0 0 0-.545.197 11.5 11.5 0 0 0-2.3 2.301A1 1 0 0 0 4.1 7.6a1 1 0 0 0 1.4-.2 9.5 9.5 0 0 1 1.9-1.9 1 1 0 0 0 .2-1.4 1 1 0 0 0-.659-.39 1 1 0 0 0-.195-.007zm10.508 0a1 1 0 0 0-.195.008 1 1 0 0 0-.659.389 1 1 0 0 0 .2 1.4c.72.54 1.36 1.18 1.9 1.9a1 1 0 0 0 1.4.2 1 1 0 0 0 .2-1.399 11.5 11.5 0 0 0-2.301-2.3 1 1 0 0 0-.545-.198zM3.1 9.5a1 1 0 0 0-1 1c0 .367-.1.867-.1 1.5s.1 1.133.1 1.5a1 1 0 0 0 1 1 1 1 0 0 0 1-1c0-.633-.1-1.133-.1-1.5s.1-.867.1-1.5a1 1 0 0 0-1-1zm17.8 0a1 1 0 0 0-1 1c0 .633.1 1.133.1 1.5 0 .5-.005.93-.08 1.305a1 1 0 0 0 .783 1.175 1 1 0 0 0 1.178-.785C22.006 13.07 22 12.5 22 12c0-.633-.1-1.133-.1-1.5a1 1 0 0 0-1-1zm-1.545 6.701a1 1 0 0 0-.855.399 9.5 9.5 0 0 1-1.9 1.9 1 1 0 0 0-.2 1.4 1 1 0 0 0 1.399.2 11.5 11.5 0 0 0 2.3-2.301A1 1 0 0 0 19.9 16.4a1 1 0 0 0-.545-.199zm-15.794.301a1 1 0 0 0-1.01.682l-1.5 4.5a1 1 0 0 0 1.265 1.265l4.5-1.5a1 1 0 0 0 .633-1.265 1 1 0 0 0-1.265-.633l-2.602.867.867-2.602a1 1 0 0 0-.633-1.265 1 1 0 0 0-.255-.049zM10.5 19.9a1 1 0 0 0-.98.803 1 1 0 0 0 .785 1.178C10.93 22.006 11.5 22 12 22c.633 0 1.133-.1 1.5-.1a1 1 0 0 0 1-1 1 1 0 0 0-1-1c-.633 0-1.133.1-1.5.1-.5 0-.93-.005-1.305-.08a1 1 0 0 0-.195-.02z"/></svg>