<svg xmlns="http://www.w3.org/2000/svg" width="24" height="24" viewBox="0 0 24 24"><path d="M5 2C3.355 2 2 3.355 2 5v16a1 1 0 0 0 1.707.707L7.414 18H19c1.645 0 3-1.355 3-3V5c0-1.645-1.355-3-3-3zm0 2h14c.564 0 1 .436 1 1v10c0 .564-.436 1-1 1H7a1 1 0 0 0-.707.293L4 18.586V5c0-.564.436-1 1-1zm4.5 2.5a1 1 0 0 0-.707.293 1 1 0 0 0 0 1.414L10.586 10l-1.793 1.793a1 1 0 0 0 0 1.414 1 1 0 0 0 1.414 0L12 11.414l1.793 1.793a1 1 0 0 0 1.414 0 1 1 0 0 0 0-1.414L13.414 10l1.793-1.793a1 1 0 0 0 0-1.414A1 1 0 0 0 14.5 6.5a1 1 0 0 0-.707.293L12 8.586l-1.793-1.793A1 1 0 0 0 9.5 6.5z"/></svg>