<svg xmlns="http://www.w3.org/2000/svg" width="24" height="24" viewBox="0 0 24 24"><path d="M5 2C3.355 2 2 3.355 2 5v16a1 1 0 0 0 1.707.707L7.414 18H19c1.645 0 3-1.355 3-3V5c0-1.645-1.355-3-3-3zm0 2h14c.564 0 1 .436 1 1v10c0 .564-.436 1-1 1H7a1 1 0 0 0-.707.293L4 18.586V5c0-.564.436-1 1-1zm5 2a1 1 0 0 0-.707.293l-3 3a1 1 0 0 0-.057.074 1 1 0 0 0-.066.086 1 1 0 0 0-.084.166 1 1 0 0 0-.041.102A1 1 0 0 0 6 10a1 1 0 0 0 .045.28 1 1 0 0 0 .04.1 1 1 0 0 0 .085.167 1 1 0 0 0 .066.086 1 1 0 0 0 .057.074l3 3a1 1 0 0 0 1.414 0 1 1 0 0 0 0-1.414L9.414 11H15c.564 0 1 .436 1 1v1a1 1 0 0 0 1 1 1 1 0 0 0 1-1v-1c0-1.645-1.355-3-3-3H9.414l1.293-1.293a1 1 0 0 0 0-1.414A1 1 0 0 0 10 6z"/></svg>