<svg xmlns="http://www.w3.org/2000/svg" width="24" height="24" viewBox="0 0 24 24"><path d="M8 2a1 1 0 0 0-1 1v3c0 .564-.436 1-1 1H3a1 1 0 0 0-1 1 1 1 0 0 0 1 1h3c1.645 0 3-1.355 3-3V3a1 1 0 0 0-1-1zm8 0a1 1 0 0 0-1 1v3c0 1.645 1.355 3 3 3h3a1 1 0 0 0 1-1 1 1 0 0 0-1-1h-3c-.564 0-1-.436-1-1V3a1 1 0 0 0-1-1zM3 15a1 1 0 0 0-1 1 1 1 0 0 0 1 1h3c.564 0 1 .436 1 1v3a1 1 0 0 0 1 1 1 1 0 0 0 1-1v-3c0-1.645-1.355-3-3-3zm15 0c-1.645 0-3 1.355-3 3v3a1 1 0 0 0 1 1 1 1 0 0 0 1-1v-3c0-.564.436-1 1-1h3a1 1 0 0 0 1-1 1 1 0 0 0-1-1z"/></svg>