<svg xmlns="http://www.w3.org/2000/svg" width="24" height="24" viewBox="0 0 24 24"><path d="M2 1a1 1 0 0 0-.707.293 1 1 0 0 0 0 1.414L4.586 6A8 8 0 0 0 4 9v6c-.002 4.116 2.835 6.979 6.107 7.775 2.906.708 6.256-.19 8.293-2.96l2.893 2.892a1 1 0 0 0 1.414 0 1 1 0 0 0 0-1.414l-3.799-3.797L6.473 5.061 2.707 1.293A1 1 0 0 0 2 1zm10.166.006A7.84 7.84 0 0 0 8.068 2.03a1 1 0 0 0-.379 1.362 1 1 0 0 0 1.362.38C13.092 1.493 18 4.36 18 9v4.344a1 1 0 0 0 1 1 1 1 0 0 0 1-1V9c.001-4.558-3.734-7.878-7.834-7.994zM12 5a1 1 0 0 0-1 1v.344a1 1 0 0 0 1 1 1 1 0 0 0 1-1V6a1 1 0 0 0-1-1zM6.17 7.584l10.795 10.795c-1.541 2.355-4.082 3.014-6.385 2.453C8.085 20.225 6 18.221 6 15V9c0-.479.058-.954.17-1.416z"/></svg>