<svg xmlns="http://www.w3.org/2000/svg" width="24" height="24" viewBox="0 0 24 24"><path d="M12 1a1 1 0 0 0-.334.066 1 1 0 0 0-.09.038 1 1 0 0 0-.283.189l-3 3a1 1 0 0 0 0 1.414 1 1 0 0 0 1.414 0L11 4.414V11H4.414l1.293-1.293a1 1 0 0 0 0-1.414A1 1 0 0 0 5 8a1 1 0 0 0-.707.293l-3 3a1 1 0 0 0-.19.283 1 1 0 0 0-.037.09 1 1 0 0 0 0 .668 1 1 0 0 0 .038.09 1 1 0 0 0 .189.283l3 3a1 1 0 0 0 1.414 0 1 1 0 0 0 0-1.414L4.414 13H11v6.586l-1.293-1.293A1 1 0 0 0 9 18a1 1 0 0 0-.707.293 1 1 0 0 0 0 1.414l3 3a1 1 0 0 0 .283.19 1 1 0 0 0 .09.037A1 1 0 0 0 12 23a1 1 0 0 0 .334-.066 1 1 0 0 0 .09-.038 1 1 0 0 0 .283-.189l3-3a1 1 0 0 0 0-1.414 1 1 0 0 0-1.414 0L13 19.586V13h6.586l-1.293 1.293a1 1 0 0 0 0 1.414 1 1 0 0 0 1.414 0l3-3a1 1 0 0 0 .217-.324l.002-.006a1 1 0 0 0 .068-.482l-.01-.069-.004-.017a1 1 0 0 0-.04-.15l-.016-.042-.008-.015a1 1 0 0 0-.123-.211l-.014-.016a1 1 0 0 0-.072-.082l-3-3a1 1 0 0 0-1.414 0 1 1 0 0 0 0 1.414L19.586 11H13V4.414l1.293 1.293a1 1 0 0 0 1.414 0 1 1 0 0 0 0-1.414l-3-3a1 1 0 0 0-.207-.158A1 1 0 0 0 12 1z"/></svg>