<svg xmlns="http://www.w3.org/2000/svg" width="24" height="24" viewBox="0 0 24 24"><path d="M16.244 1.008a1 1 0 0 0-.371.123 1 1 0 0 0-.371 1.365 19.16 19.16 0 0 1 0 19.008 1 1 0 0 0 .371 1.365 1 1 0 0 0 1.365-.373 21.16 21.16 0 0 0 0-20.992 1 1 0 0 0-.605-.469 1 1 0 0 0-.389-.027zM12.912 3.1a1 1 0 0 0-.5.132 1 1 0 0 0-.369 1.366 14.9 14.9 0 0 1 .008 14.806 1 1 0 0 0 .373 1.364 1 1 0 0 0 1.365-.372 16.91 16.91 0 0 0-.012-16.792 1 1 0 0 0-.605-.47 1 1 0 0 0-.26-.034zM9.47 5.209a1 1 0 0 0-.502.13 1 1 0 0 0-.377 1.364 10.75 10.75 0 0 1 0 10.594 1 1 0 0 0 .377 1.363 1 1 0 0 0 1.363-.377 12.77 12.77 0 0 0 0-12.566 1 1 0 0 0-.603-.47 1 1 0 0 0-.258-.038zM6.006 7.32a1 1 0 0 0-.502.131 1 1 0 0 0-.373 1.363 6.43 6.43 0 0 1 0 6.372 1 1 0 0 0 .373 1.363 1 1 0 0 0 1.365-.373 8.44 8.44 0 0 0 0-8.352 1 1 0 0 0-.605-.469 1 1 0 0 0-.258-.035z"/></svg>