<svg xmlns="http://www.w3.org/2000/svg" width="24" height="24" viewBox="0 0 24 24"><path d="M8 1a1 1 0 0 0-1 1v1H6C4.355 3 3 4.355 3 6v2a1 1 0 0 0 1 1 1 1 0 0 0 1-1V6c0-.564.436-1 1-1h1v1a1 1 0 0 0 1 1 1 1 0 0 0 1-1V2a1 1 0 0 0-1-1zm4 0a1 1 0 0 0-1 1v4a1 1 0 0 0 1 1 1 1 0 0 0 1-1V2a1 1 0 0 0-1-1zm4 0a1 1 0 0 0-1 1v4a1 1 0 0 0 1 1 1 1 0 0 0 1-1V5h1c.564 0 1 .436 1 1v2a1 1 0 0 0 1 1 1 1 0 0 0 1-1V6c0-1.645-1.355-3-3-3h-1V2a1 1 0 0 0-1-1zM8 9a1 1 0 0 0-1 1 1 1 0 0 0 1 1h6a1 1 0 0 0 1-1 1 1 0 0 0-1-1zm-4 2a1 1 0 0 0-1 1v2a1 1 0 0 0 1 1 1 1 0 0 0 1-1v-2a1 1 0 0 0-1-1zm16 0a1 1 0 0 0-1 1v2a1 1 0 0 0 1 1 1 1 0 0 0 1-1v-2a1 1 0 0 0-1-1zM8 13a1 1 0 0 0-1 1 1 1 0 0 0 1 1h8a1 1 0 0 0 1-1 1 1 0 0 0-1-1zm-4 4a1 1 0 0 0-1 1v2c0 1.645 1.355 3 3 3h1a1 1 0 0 0 1-1 1 1 0 0 0-1-1H6c-.564 0-1-.436-1-1v-2a1 1 0 0 0-1-1zm4 0a1 1 0 0 0-1 1 1 1 0 0 0 1 1h5a1 1 0 0 0 1-1 1 1 0 0 0-1-1zm12 0a1 1 0 0 0-1 1v2c0 .564-.436 1-1 1h-1a1 1 0 0 0-1 1 1 1 0 0 0 1 1h1c1.645 0 3-1.355 3-3v-2a1 1 0 0 0-1-1zm-9 4a1 1 0 0 0-1 1 1 1 0 0 0 1 1h2a1 1 0 0 0 1-1 1 1 0 0 0-1-1z"/></svg>