<svg xmlns="http://www.w3.org/2000/svg" width="24" height="24" viewBox="0 0 24 24"><path d="M11.928.979q-.846 0-1.653.125c-3.222.492-5.92 2.4-7.556 4.962C.652 9.303.249 13.64 2.44 17.443A2.97 2.97 0 0 0 2 19c0 1.645 1.355 3 3 3s3-1.355 3-3-1.355-3-3-3c-.343 0-.674.06-.982.168-1.65-3.08-1.265-6.438.386-9.025C6.2 4.33 9.45 2.493 13.35 3.088a1 1 0 0 0 1.138-.838 1 1 0 0 0-.838-1.139Q12.772.978 11.928.98zM19 2c-1.645 0-3 1.355-3 3s1.355 3 3 3c.344 0 .675-.061.984-.17 1.671 3.101 1.276 6.483-.398 9.08-1.818 2.82-5.102 4.648-9.023 4.004a1 1 0 0 0-1.149.824 1 1 0 0 0 .824 1.149c4.707.773 8.82-1.469 11.028-4.893 2.093-3.246 2.511-7.613.295-11.44A2.97 2.97 0 0 0 22 5c0-1.645-1.355-3-3-3zm0 2c.564 0 1 .436 1 1s-.436 1-1 1-1-.436-1-1 .436-1 1-1zm-7 4c-2.197 0-4 1.803-4 4s1.803 4 4 4 4-1.803 4-4-1.803-4-4-4zm0 2c1.116 0 2 .884 2 2s-.884 2-2 2-2-.884-2-2 .884-2 2-2zm-7 8c.564 0 1 .436 1 1s-.436 1-1 1-1-.436-1-1c0-.279.107-.526.283-.705l.006-.006a1 1 0 0 0 .082-.074C4.541 18.08 4.76 18 5 18z"/></svg>