<svg xmlns="http://www.w3.org/2000/svg" width="24" height="24" viewBox="0 0 24 24"><path d="M6 1a1 1 0 0 0-1 1v9a1 1 0 0 0-1 1v2c0 1.645 1.355 3 3 3h2v2.9c0 .917.38 1.73.96 2.246A3.05 3.05 0 0 0 12 22.9c.722 0 1.458-.237 2.04-.754.58-.516.96-1.329.96-2.246V17h2c1.645 0 3-1.355 3-3v-2a1 1 0 0 0-1-1V2a1 1 0 0 0-1-1zm1 2h2v1a1 1 0 0 0 1 1 1 1 0 0 0 1-1V3h2v3a1 1 0 0 0 1 1 1 1 0 0 0 1-1V3h2v8H7zM6 13h12v1c0 .564-.436 1-1 1h-3a1 1 0 0 0-1 1v3.9c0 .417-.12.602-.29.752-.168.15-.432.248-.71.248s-.542-.098-.71-.248c-.17-.15-.29-.335-.29-.752V16a1 1 0 0 0-1-1H7c-.555 0-1-.445-1-1z"/></svg>