<svg xmlns="http://www.w3.org/2000/svg" width="24" height="24" viewBox="0 0 24 24"><path d="M14 6.5a.5.5 0 0 1-.5.5.5.5 0 0 1-.5-.5.5.5 0 0 1 .5-.5.5.5 0 0 1 .5.5Z"/><path d="M13.5 5c-.817 0-1.5.683-1.5 1.5S12.683 8 13.5 8 15 7.317 15 6.5 14.317 5 13.5 5Zm0 1c.264 0 .5.236.5.5s-.236.5-.5.5a.516.516 0 0 1-.5-.5c0-.264.236-.5.5-.5Zm4.5 4.5a.5.5 0 0 1-.5.5.5.5 0 0 1-.5-.5.5.5 0 0 1 .5-.5.5.5 0 0 1 .5.5Z"/><path d="M17.5 9c-.817 0-1.5.683-1.5 1.5s.683 1.5 1.5 1.5 1.5-.683 1.5-1.5S18.317 9 17.5 9Zm0 1c.264 0 .5.236.5.5s-.236.5-.5.5a.516.516 0 0 1-.5-.5c0-.264.236-.5.5-.5ZM9 7.5a.5.5 0 0 1-.5.5.5.5 0 0 1-.5-.5.5.5 0 0 1 .5-.5.5.5 0 0 1 .5.5Z"/><path d="M8.5 6C7.683 6 7 6.683 7 7.5S7.683 9 8.5 9 10 8.317 10 7.5 9.317 6 8.5 6Zm0 1c.264 0 .5.236.5.5s-.236.5-.5.5a.516.516 0 0 1-.5-.5c0-.264.236-.5.5-.5ZM7 12.5a.5.5 0 0 1-.5.5.5.5 0 0 1-.5-.5.5.5 0 0 1 .5-.5.5.5 0 0 1 .5.5Z"/><path d="M6.5 11c-.817 0-1.5.683-1.5 1.5S5.683 14 6.5 14 8 13.317 8 12.5 7.317 11 6.5 11Zm0 1c.264 0 .5.236.5.5s-.236.5-.5.5a.516.516 0 0 1-.5-.5c0-.264.236-.5.5-.5Z"/><path d="M12 1C5.955 1 1 5.955 1 12s4.955 11 11 11c1.463 0 2.648-1.235 2.648-2.687 0-.712-.285-1.333-.689-1.79l-.043-.044c-.114-.114-.143-.152-.143-.416v-.018a.624.624 0 0 1 .65-.65h2.014c3.598 0 6.555-2.957 6.555-6.555v-.006C22.962 5.387 17.951 1 12 1Zm0 2c4.97 0 8.967 3.635 8.992 7.844a4.57 4.57 0 0 1-4.554 4.55h-1.979c-1.477-.025-2.702 1.202-2.682 2.678.003.678.265 1.36.729 1.823l-.043-.045c.11.123.185.3.185.462 0 .432-.26.688-.648.688-4.955 0-9-4.045-9-9s4.045-9 9-9Z"/></svg>