<svg xmlns="http://www.w3.org/2000/svg" width="24" height="24" viewBox="0 0 24 24"><path d="M17.848 1.846c-.718.038-1.463.355-2.055.947l-12.5 12.5a1 1 0 0 0-.264.465l-1 4a1 1 0 0 0 1.213 1.213l4-1a1 1 0 0 0 .465-.264l12.5-12.5c.677-.677.995-1.553.947-2.36a3.18 3.18 0 0 0-.947-2.054 3.18 3.18 0 0 0-2.055-.947 3 3 0 0 0-.304 0zm.187 1.996c.256.015.54.147.758.365s.35.502.365.758-.042.505-.365.828L6.488 18.098l-2.113.527.527-2.113L17.207 4.207c.323-.323.572-.38.828-.365zM12 19a1 1 0 0 0-1 1 1 1 0 0 0 1 1h9a1 1 0 0 0 1-1 1 1 0 0 0-1-1z"/></svg>