<svg xmlns="http://www.w3.org/2000/svg" width="24" height="24" viewBox="0 0 24 24"><path d="M12 2.025c-.62 0-1.24.185-1.771.555l-.016.01-7.295 5.297c-1.052.751-1.518 2.129-1.055 3.365l2.785 8.654.016.045C5.086 21.076 6.156 22 7.5 22h9.1c1.344 0 2.414-.924 2.836-2.049l.015-.045 2.785-8.654c.464-1.236-.002-2.614-1.054-3.365l-7.399-5.3-.012-.007A3.1 3.1 0 0 0 12 2.025zm0 1.996c.22 0 .439.067.629.2l7.389 5.293h.002c.348.248.48.67.343 1.035l-.015.045-2.785 8.656c-.179.473-.509.75-.963.75H7.5c-.455 0-.783-.277-.96-.75l-.003-.002-2.785-8.654-.016-.045c-.136-.364-.002-.787.346-1.035l.006-.004 7.283-5.29c.19-.132.41-.199.629-.199z"/></svg>