<svg xmlns="http://www.w3.org/2000/svg" width="24" height="24" viewBox="0 0 24 24"><path d="M4.11 1C2.362 1.002.967 2.53 1.124 4.27v.015a20.8 20.8 0 0 0 3.227 9.108v.002a20.5 20.5 0 0 0 6.302 6.298 20.8 20.8 0 0 0 9.059 3.221l.017.002c1.746.158 3.277-1.247 3.27-3v-2.97a3.01 3.01 0 0 0-2.58-3.046l-.01-.002a11.8 11.8 0 0 1-2.588-.644h-.002a3.01 3.01 0 0 0-3.164.676l-.004.004-.658.658a14.9 14.9 0 0 1-4.586-4.586l.658-.658.004-.004a3.01 3.01 0 0 0 .676-3.164v-.002a11.8 11.8 0 0 1-.644-2.588l-.002-.01A3.01 3.01 0 0 0 7.1 1zM18 1a1 1 0 0 0-.707.293 1 1 0 0 0 0 1.414L19.586 5H14a1 1 0 0 0-1 1 1 1 0 0 0 1 1h5.586l-2.293 2.293a1 1 0 0 0 0 1.414 1 1 0 0 0 1.414 0l4-4a1 1 0 0 0 .158-.207l.004-.01a1 1 0 0 0 .092-.219l.008-.029A1 1 0 0 0 23 6a1 1 0 0 0-.006-.098l-.012-.086-.002-.011a1 1 0 0 0-.048-.166 1 1 0 0 0-.037-.084l-.014-.026-.004-.008-.045-.076-.008-.01-.05-.07-.036-.039-.031-.033-4-4A1 1 0 0 0 18 1zM4.11 3h3.01a.99.99 0 0 1 1 .86v-.008c.136 1.034.388 2.049.753 3.027v.004a.99.99 0 0 1-.225 1.055L7.383 9.203a1 1 0 0 0-.162 1.201 17 17 0 0 0 6.375 6.375 1 1 0 0 0 1.2-.162l1.267-1.265a.99.99 0 0 1 1.054-.225h.004a14 14 0 0 0 3.027.754h-.007c.51.072.872.498.859 1.014v3.029a.98.98 0 0 1-1.086.998 18.8 18.8 0 0 1-8.18-2.91l-.007-.006a18.5 18.5 0 0 1-5.694-5.692l-.004-.007a18.8 18.8 0 0 1-2.912-8.223A.982.982 0 0 1 4.11 3z"/></svg>