<svg xmlns="http://www.w3.org/2000/svg" width="24" height="24" viewBox="0 0 24 24"><path d="M2 2.5a1 1 0 0 0-.707.293 1 1 0 0 0 0 1.414L5.586 8.5H3a1 1 0 0 0-1 1 1 1 0 0 0 1 1h5a1 1 0 0 0 .707-.293 1 1 0 0 0 .26-.674L9 9.5v-5a1 1 0 0 0-1-1 1 1 0 0 0-1 1v2.586L2.707 2.793A1 1 0 0 0 2 2.5zm10 1a1 1 0 0 0-1 1 1 1 0 0 0 1 1h7c.677 0 1 .323 1 1v3a1 1 0 0 0 1 1 1 1 0 0 0 1-1v-3c0-1.643-1.357-3-3-3zm-9 9a1 1 0 0 0-1 1v2c0 1.653 1.347 3 3 3h3a1 1 0 0 0 1-1 1 1 0 0 0-1-1H5c-.447 0-1-.553-1-1v-2a1 1 0 0 0-1-1zm11 0c-1.645 0-3 1.355-3 3v3c0 1.645 1.355 3 3 3h6c1.645 0 3-1.355 3-3v-3c0-1.645-1.355-3-3-3zm0 2h6c.571 0 1 .429 1 1v3c0 .571-.429 1-1 1h-6c-.571 0-1-.429-1-1v-3c0-.571.429-1 1-1z"/></svg>