<svg xmlns="http://www.w3.org/2000/svg" width="24" height="24" viewBox="0 0 24 24"><path d="M2 1a1 1 0 0 0-.707.293 1 1 0 0 0 0 1.414L8 9.414v1.346a.99.99 0 0 1-.555.894l-.006.004-1.775.897A3 3 0 0 0 4 15.24V17a1 1 0 0 0 1 1h6v4a1 1 0 0 0 1 1 1 1 0 0 0 1-1v-4h3.586l4.707 4.707a1 1 0 0 0 1.414 0 1 1 0 0 0 0-1.414l-4.959-4.957a1 1 0 0 0-.084-.084L9.748 8.336a1 1 0 0 0-.084-.084L2.707 1.293A1 1 0 0 0 2 1zm5.89 0a1 1 0 0 0-1 1 1 1 0 0 0 1 1H16c.417 0 .602.12.752.29.15.168.248.432.248.71s-.098.542-.248.71c-.15.17-.335.29-.752.29h-1a1 1 0 0 0-1 1v3.34a1 1 0 0 0 1 1 1 1 0 0 0 1-1V7c.917 0 1.731-.38 2.248-.96A3.05 3.05 0 0 0 19 4a3.05 3.05 0 0 0-.752-2.04C17.731 1.38 16.917 1 16 1zm2.05 10.354L14.585 16H6v-.76c0-.381.213-.724.555-.894l.006-.004 1.775-.897a3 3 0 0 0 1.603-2.091z"/></svg>