<svg xmlns="http://www.w3.org/2000/svg" width="24" height="24" viewBox="0 0 24 24"><path d="M11.074 1.502a1 1 0 0 0-.388.049 1 1 0 0 0-.58.502L7.552 7.158l-.2-.1v-.001A.63.63 0 0 1 7 6.5a2.64 2.64 0 0 0-1.447-2.342l-.006-.002-1.1-.55a1 1 0 0 0-1.361.488l-2 4.5a1 1 0 0 0 .207 1.113l1.77 1.77q.341.344.775.564l.006.004 13.043 6.512h.004c.608.317 1.29.43 1.955.345l1.174-.15c1.674-.201 2.631-2.11 1.814-3.578l-.01-.018-.592-1.015a3.45 3.45 0 0 0-1.418-1.358l-.017-.008-4.4-2.199v-.002a1 1 0 0 1-.545-.76l-.721-5.396v-.004A3 3 0 0 0 12.5 2.137l-.004-.002-1.045-.528a1 1 0 0 0-.377-.105zm.371 2.342.155.078.004.004c.297.148.5.43.544.76l.721 5.396v.004a3 3 0 0 0 1.633 2.28l4.385 2.19c.264.139.477.342.601.563l.008.014.59 1.013c.163.293.02.583-.305.622h-.008l-1.18.15a1.3 1.3 0 0 1-.779-.135l-.017-.008-13.055-6.517a1 1 0 0 1-.26-.19l-.005-.005-1.284-1.284 1.295-2.916.158.078v.002c.222.114.354.33.354.557 0 .993.57 1.895 1.447 2.342l.006.002 1.1.55a1 1 0 0 0 1.342-.447zM2 21a1 1 0 0 0-1 1 1 1 0 0 0 1 1h20a1 1 0 0 0 1-1 1 1 0 0 0-1-1z"/></svg>