<svg xmlns="http://www.w3.org/2000/svg" width="24" height="24" viewBox="0 0 24 24"><path d="M12.889 1.006a1 1 0 0 0-.67.369l-2 2.5A1 1 0 0 0 11 5.5h.918l-.7.875a1 1 0 0 0 .157 1.406 1 1 0 0 0 1.406-.156l2-2.5A1 1 0 0 0 14 3.5h-.918l.7-.875a1 1 0 0 0-.157-1.406 1 1 0 0 0-.736-.213zM10 10a1 1 0 0 0-1 1v2H8a1 1 0 0 0-1 1v2a4 4 0 0 0 4 4v2a1 1 0 0 0 1 1 1 1 0 0 0 1-1v-2a4 4 0 0 0 4-4v-2a1 1 0 0 0-1-1h-1v-2a1 1 0 0 0-1-1 1 1 0 0 0-1 1v2h-2v-2a1 1 0 0 0-1-1zm-1 5h6v1c0 1.19-.81 2-2 2h-2c-1.19 0-2-.81-2-2z"/></svg>