<svg xmlns="http://www.w3.org/2000/svg" width="24" height="24" viewBox="0 0 24 24"><path d="M17.844 2.012a1 1 0 0 0-.551.281l-4 4A1 1 0 0 0 14 8h3.586l-2.293 2.293a1 1 0 0 0 0 1.414 1 1 0 0 0 1.414 0l4-4A1 1 0 0 0 20 6h-3.586l2.293-2.293a1 1 0 0 0 0-1.414 1 1 0 0 0-.863-.281zM10 10a1 1 0 0 0-.707.293L7.5 12.086l-.793-.793a1 1 0 0 0-1.414 0l-2.3 2.3a3.415 3.415 0 0 0 .001 4.815l.592.592-2.293 2.293a1 1 0 0 0 0 1.414 1 1 0 0 0 1.414 0L5 20.414l.594.594a3.415 3.415 0 0 0 4.814-.002l2.299-2.299a1 1 0 0 0 0-1.414l-.793-.793 1.793-1.793a1 1 0 0 0 0-1.414A1 1 0 0 0 13 13a1 1 0 0 0-.707.293L10.5 15.086 8.914 13.5l1.793-1.793a1 1 0 0 0 0-1.414A1 1 0 0 0 10 10zm-4 3.414L10.586 18l-1.594 1.594a1.386 1.386 0 0 1-1.984 0l-2.602-2.602a1.386 1.386 0 0 1 0-1.984z"/></svg>