<svg xmlns="http://www.w3.org/2000/svg" width="24" height="24" viewBox="0 0 24 24"><path d="M17.754.932c-1.135.057-2.311.55-3.291 1.53l-9.158 9.16c-.314-.257-.614-.395-.858-.517-.094-.047-.114-.065-.187-.105.073-.04.093-.058.187-.105.25-.125.56-.265.881-.534C5.65 10.093 6 9.583 6 9s-.35-1.093-.672-1.361c-.322-.269-.63-.409-.88-.534-.095-.047-.115-.065-.188-.105.073-.04.093-.058.187-.105.25-.125.56-.265.881-.534C5.65 6.093 6 5.583 6 5s-.35-1.093-.672-1.361c-.322-.269-.63-.409-.88-.534A4 4 0 0 1 4 2.854V2a1 1 0 0 0-1-1 1 1 0 0 0-1 1v1c0 .583.35 1.093.672 1.361.322.269.63.409.88.534.095.047.115.065.188.105-.073.04-.093.058-.187.105-.25.125-.56.265-.881.534C2.35 5.907 2 6.417 2 7s.35 1.093.672 1.361c.322.269.63.409.88.534.095.047.115.065.188.105-.073.04-.093.058-.187.105-.25.125-.56.265-.881.534C2.35 9.907 2 10.417 2 11s.35 1.093.672 1.361c.322.269.63.409.88.534q.186.092.313.166l-1.402 1.402c-1.12 1.12-1.605 2.496-1.53 3.773.076 1.278.665 2.436 1.53 3.301s2.023 1.454 3.3 1.53c1.278.075 2.654-.41 3.774-1.53L17 14.074V22a1 1 0 0 0 1 1c2.75 0 5-2.25 5-5V6.814a4.4 4.4 0 0 0 .066-1.05c-.075-1.278-.664-2.436-1.529-3.301s-2.023-1.454-3.3-1.53a4 4 0 0 0-.483-.001zm.09 1.994q.136-.006.273.004c.727.042 1.456.397 2.006.947.502.502.838 1.153.926 1.814v.002A1 1 0 0 0 21 6v.67c-.118.476-.384.96-.877 1.453l-12 12c-.767.767-1.513.99-2.24.947-.727-.042-1.456-.397-2.006-.947s-.905-1.279-.947-2.006c-.043-.727.18-1.473.947-2.24l12-12c.67-.67 1.326-.927 1.967-.951zM18 5a1 1 0 0 0-1 1 1 1 0 0 0 1 1h.01a1 1 0 0 0 1-1 1 1 0 0 0-1-1zm3 5.074V18c0 1.276-.887 2.15-2 2.588v-8.514zM6 17a1 1 0 0 0-1 1 1 1 0 0 0 1 1h.01a1 1 0 0 0 1-1 1 1 0 0 0-1-1z"/></svg>