<svg xmlns="http://www.w3.org/2000/svg" width="24" height="24" viewBox="0 0 24 24"><path d="M12 1C7.07 1 3.548 4.278 2.402 8.191c-1.145 3.914.054 8.573 4.21 11.23a1 1 0 0 0 1.38-.302 1 1 0 0 0-.303-1.38c-3.422-2.19-4.293-5.82-3.367-8.985S7.94 3 12 3s6.752 2.59 7.678 5.754c.926 3.165.055 6.795-3.367 8.984a1 1 0 0 0-.303 1.381 1 1 0 0 0 1.38.303c4.156-2.658 5.355-7.317 4.21-11.23S16.93 1 12 1zm0 4c-4.881 0-7.73 5.694-4.8 9.6a1 1 0 0 0 1.4.2 1 1 0 0 0 .2-1.4A3.967 3.967 0 0 1 12 7a3.967 3.967 0 0 1 3.2 6.4 1 1 0 0 0 .2 1.4 1 1 0 0 0 1.4-.2c2.93-3.906.081-9.6-4.8-9.6zm0 4c-1.093 0-2 .907-2 2s.907 2 2 2 2-.907 2-2-.907-2-2-2zm0 6c-.472 0-.958.152-1.352.502-.393.35-.648.915-.648 1.498a1 1 0 0 0 .006.111l.5 4.5-.006-.111c0 .417.192.856.492 1.123S11.652 23 12 23c.347 0 .708-.11 1.008-.377s.492-.706.492-1.123l-.006.111.5-4.5A1 1 0 0 0 14 17c0-.583-.255-1.148-.648-1.498A2.02 2.02 0 0 0 12 15z"/></svg>