<svg xmlns="http://www.w3.org/2000/svg" width="24" height="24" viewBox="0 0 24 24"><path d="M6.959.94q-.145 0-.29.01c-1.532.09-2.931.798-3.976 1.843S.938 5.237.848 6.77s.485 3.177 1.845 4.537l8.1 8.1a1 1 0 0 0 .094.083c1.24.965 3.067.97 4.22-.183l1.393-1.393 4.793 4.793a1 1 0 0 0 1.414 0 1 1 0 0 0 0-1.414L17.914 16.5l1.393-1.393a3 3 0 0 0 0-4.214l-8.1-8.1C9.932 1.518 8.407.933 6.959.939zm.197 2.001c.867.035 1.756.385 2.637 1.266l8.1 8.1c.446.446.446.94 0 1.386l-2.1 2.1-2.1 2.1c-.44.44-1.007.445-1.56.025L4.107 9.893c-1.006-1.007-1.32-2.024-1.261-3.006.057-.982.531-1.95 1.261-2.68s1.698-1.204 2.68-1.262q.184-.011.37-.004z"/></svg>