<svg xmlns="http://www.w3.org/2000/svg" width="24" height="24" viewBox="0 0 24 24"><path d="M4.9 3.9a1 1 0 0 0-.707.293c-4.286 4.287-4.286 11.327 0 15.614a1 1 0 0 0 1.414 0 1 1 0 0 0 0-1.414c-3.513-3.514-3.513-9.272 0-12.786a1 1 0 0 0 0-1.414A1 1 0 0 0 4.9 3.9zm14.043.012a1 1 0 0 0-.55.281 1 1 0 0 0 0 1.414 8.94 8.94 0 0 1 0 12.686 1 1 0 0 0 0 1.414 1 1 0 0 0 1.414 0c4.28-4.28 4.28-11.233 0-15.514a1 1 0 0 0-.864-.28zM7.78 6.702a1 1 0 0 0-.7.306c-2.666 2.78-2.675 7.209.015 9.898a1 1 0 0 0 1.414 0 1 1 0 0 0 0-1.414c-1.91-1.91-1.922-5.08.013-7.1a1 1 0 0 0-.029-1.413A1 1 0 0 0 7.78 6.7zm8.42.099a1 1 0 0 0-.707.293 1 1 0 0 0 0 1.414c1.91 1.91 1.922 5.08-.013 7.1a1 1 0 0 0 .029 1.413 1 1 0 0 0 1.414-.029c2.665-2.78 2.674-7.209-.016-9.898A1 1 0 0 0 16.2 6.8zM12 9c-1.645 0-3 1.355-3 3s1.355 3 3 3 3-1.355 3-3-1.355-3-3-3zm0 2c.564 0 1 .436 1 1s-.436 1-1 1-1-.436-1-1 .436-1 1-1z"/></svg>