<svg xmlns="http://www.w3.org/2000/svg" width="24" height="24" viewBox="0 0 24 24"><path d="M11.947 1.01q-.247 0-.496.013a10.98 10.98 0 0 0-7.224 3.204C.239 8.214-.085 14.594 3.482 18.96c3.41 4.175 9.335 5.23 13.96 2.596.455.28.99.443 1.558.443 1.645 0 3-1.355 3-3 0-.569-.163-1.103-.443-1.559 2.634-4.624 1.579-10.548-2.596-13.959a10.95 10.95 0 0 0-7.014-2.472zm.01 1.99a8.97 8.97 0 0 1 5.738 2.033 8.984 8.984 0 0 1 2.282 11.133 2.96 2.96 0 0 0-2.266.13l-3.008-3.007c.19-.392.297-.829.297-1.289 0-1.645-1.355-3-3-3s-3 1.355-3 3 1.355 3 3 3c.46 0 .897-.108 1.29-.297l3.007 3.008a2.96 2.96 0 0 0-.131 2.266 8.984 8.984 0 0 1-11.133-2.282 8.985 8.985 0 0 1 .608-12.054A8.98 8.98 0 0 1 11.957 3zM12 11c.564 0 1 .436 1 1a1 1 0 0 1-.246.664l-.05.04-.04.05A1 1 0 0 1 12 13c-.564 0-1-.436-1-1s.436-1 1-1zm7 7c.564 0 1 .436 1 1s-.436 1-1 1-1-.436-1-1a1 1 0 0 1 .246-.664l.05-.04a1 1 0 0 0 .07-.075A1 1 0 0 1 19 18z"/></svg>