<svg xmlns="http://www.w3.org/2000/svg" width="24" height="24" viewBox="0 0 24 24"><path d="M14 1a4 4 0 0 0-4 4c0 .408.11.785.225 1.156C6.18 6.563 3 9.846 3 14c0 1.124.381 2.162 1.016 3H4c-.917 0-1.731.38-2.248.96A3.05 3.05 0 0 0 1 20c0 .722.235 1.458.752 2.04.517.58 1.331.96 2.248.96h9a1 1 0 0 0 1-1 1 1 0 0 0-1-1H4c-.417 0-.602-.12-.752-.29A1.1 1.1 0 0 1 3 20c0-.278.098-.542.248-.71.15-.17.335-.29.752-.29h12a1 1 0 0 0 1-1 1 1 0 0 0-1-1h-1.162q.087-.343.113-.691A1 1 0 0 0 15 16c0-1.19.81-2 2-2h.395a50 50 0 0 0 2.62.582l.061.01c1.197.15 2.481-.593 2.795-1.85a1 1 0 0 0 .03-.242c0-.3.058-.913-.37-1.555l.037.059-1.148-2.01c1.322-1.08 1.866-2.924 1.209-4.566-.612-1.53-2.103-2.43-3.656-2.446a4 4 0 0 0-1.545.29l-.074.033a6 6 0 0 0-.272.146A3.99 3.99 0 0 0 14 1zm0 2c.891 0 1.569.454 1.854 1.182a1 1 0 0 0 .058.175Q16 4.656 16 5a1 1 0 0 0 1 1 1 1 0 0 0 1-1c0-.247-.026-.488-.068-.723a4 4 0 0 1 .265-.148c.99-.38 2.194.092 2.574 1.043.398.995-.083 2.216-1.042 2.6a1 1 0 0 0-.497 1.423l1.6 2.801.035.059c-.014-.022.006.145.018.228-.085.278-.19.368-.557.322-.066-.012-1.56-.296-2.564-.57A1 1 0 0 0 17.5 12H17a4 4 0 0 0-3.02 1.377A3.97 3.97 0 0 0 11.012 12a1 1 0 0 0-1.012.988A1 1 0 0 0 10.988 14c.896.01 1.507.513 1.807 1.193.25.57.26 1.219-.094 1.807H8c-1.655 0-3-1.345-3-3 0-3.37 2.63-6 6-6h.8a1 1 0 0 0 .708-1.707C12.196 5.982 12 5.55 12 5c0-1.19.81-2 2-2zm2 5a1 1 0 0 0-1 1 1 1 0 0 0 1 1h.01a1 1 0 0 0 1-1 1 1 0 0 0-1-1z"/></svg>