<svg xmlns="http://www.w3.org/2000/svg" width="24" height="24" viewBox="0 0 24 24"><path d="M6 4C3.25 4 1 6.25 1 9v10a1 1 0 0 0 1 1 1 1 0 0 0 1-1V9c0-1.317.83-2.42 2-2.828V19a1 1 0 0 0 1 1 1 1 0 0 0 1-1V6.146c.64.181 1.307.538 2 1.096V19a1 1 0 0 0 1 1 1 1 0 0 0 1-1V9.342c.066.085.132.168.2.258q.88 1.176 1.8 2.056V19a1 1 0 0 0 1 1 1 1 0 0 0 1-1v-5.83a6.5 6.5 0 0 0 2 .736V19a1 1 0 0 0 1 1 1 1 0 0 0 1-1v-5.104a4.9 4.9 0 0 0 2-.917V19a1 1 0 0 0 1 1 1 1 0 0 0 1-1V9a1 1 0 0 0-.01-.135 4.9 4.9 0 0 0-.435-1.922c-.815-1.806-2.536-2.82-4.315-2.914A1 1 0 0 0 18 4a1 1 0 0 0-.229.027 4.9 4.9 0 0 0-3.521 1.66 1 1 0 0 0 .088 1.413 1 1 0 0 0 1.412-.088A3.06 3.06 0 0 1 17 6.154V9a1 1 0 0 0 1 1 1 1 0 0 0 1-1V6.154a3 3 0 0 1 1.73 1.612c.18.397.266.801.276 1.195L21 9v.28c-.12 1.474-1.339 2.718-3 2.72-.997 0-2.07-.437-3.213-1.418a1 1 0 0 0-.266-.236 14.4 14.4 0 0 1-1.72-1.946C10.705 5.602 8.443 4 6 4z"/></svg>