<svg xmlns="http://www.w3.org/2000/svg" width="24" height="24" viewBox="0 0 24 24"><path d="M5 2C3.355 2 2 3.355 2 5v2a1 1 0 0 0 1 1 1 1 0 0 0 1-1V5c0-.564.436-1 1-1h2a1 1 0 0 0 1-1 1 1 0 0 0-1-1zm12 0a1 1 0 0 0-1 1 1 1 0 0 0 1 1h2c.564 0 1 .436 1 1v2a1 1 0 0 0 1 1 1 1 0 0 0 1-1V5c0-1.645-1.355-3-3-3zM3 16a1 1 0 0 0-1 1v2c0 1.645 1.355 3 3 3h2a1 1 0 0 0 1-1 1 1 0 0 0-1-1H5c-.564 0-1-.436-1-1v-2a1 1 0 0 0-1-1zm18 0a1 1 0 0 0-1 1v2c0 .564-.436 1-1 1h-2a1 1 0 0 0-1 1 1 1 0 0 0 1 1h2c1.645 0 3-1.355 3-3v-2a1 1 0 0 0-1-1z"/></svg>