<svg xmlns="http://www.w3.org/2000/svg" width="24" height="24" viewBox="0 0 24 24"><path d="M11 2c-4.959 0-9 4.041-9 9s4.041 9 9 9a8.95 8.95 0 0 0 5.611-1.975l3.682 3.682a1 1 0 0 0 1.414 0 1 1 0 0 0 0-1.414l-3.682-3.682A8.95 8.95 0 0 0 20 11c0-4.959-4.041-9-9-9zm0 2c3.878 0 7 3.122 7 7s-3.122 7-7 7-7-3.122-7-7 3.122-7 7-7zM8.5 7.5a1 1 0 0 0-.707.293 1 1 0 0 0 0 1.414L9.586 11l-1.793 1.793a1 1 0 0 0 0 1.414 1 1 0 0 0 1.414 0L11 12.414l1.793 1.793a1 1 0 0 0 1.414 0 1 1 0 0 0 0-1.414L12.414 11l1.793-1.793a1 1 0 0 0 0-1.414A1 1 0 0 0 13.5 7.5a1 1 0 0 0-.707.293L11 9.586 9.207 7.793A1 1 0 0 0 8.5 7.5z"/></svg>