<svg xmlns="http://www.w3.org/2000/svg" width="24" height="24" viewBox="0 0 24 24"><path d="M2 1a1 1 0 0 0-.707.293 1 1 0 0 0-.205 1.105l-.012.063C.978 3.049 1 3.75 1 5v3c0 1.645 1.355 3 3 3h5.586l2 2H4c-1.645 0-3 1.355-3 3v4c0 1.645 1.355 3 3 3h16.5a1 1 0 0 0 .447-.105l.356-.178-.01-.01a1 1 0 0 0 1.414 0 1 1 0 0 0 0-1.414l-.5-.5-7.5-7.5-4-4-7.5-7.5-.5-.5A1 1 0 0 0 2 1zm5 0a1 1 0 0 0-1 1 1 1 0 0 0 1 1h13c.564 0 1 .436 1 1v4c0 .564-.436 1-1 1h-5a1 1 0 0 0-1 1 1 1 0 0 0 1 1h5c1.645 0 3-1.355 3-3V4c0-1.645-1.355-3-3-3zM3.012 4.426 7.586 9H4c-.564 0-1-.436-1-1V5c0-.325.01-.314.012-.574zM19 13a1 1 0 0 0-1 1 1 1 0 0 0 1 1h1c.564 0 1 .436 1 1v1a1 1 0 0 0 1 1 1 1 0 0 0 1-1v-1c0-1.645-1.355-3-3-3zM4 15h9.586l6 6H4c-.564 0-1-.436-1-1v-4c0-.564.436-1 1-1zm2 2a1 1 0 0 0-1 1 1 1 0 0 0 1 1h.01a1 1 0 0 0 1-1 1 1 0 0 0-1-1z"/></svg>