<svg xmlns="http://www.w3.org/2000/svg" width="24" height="24" viewBox="0 0 24 24"><path d="M7 3C4.803 3 3 4.803 3 7s1.803 4 4 4c1.858 0 3.433-1.289 3.875-3.016A1 1 0 0 0 11 8h9a1 1 0 0 0 1-1 1 1 0 0 0-1-1h-9a1 1 0 0 0-.125.016C10.433 4.289 8.858 3 7 3zm0 2c1.116 0 2 .884 2 2s-.884 2-2 2-2-.884-2-2 .884-2 2-2zm10 8c-1.852 0-3.423 1.281-3.871 3H5a1 1 0 0 0-1 1 1 1 0 0 0 1 1h8.129c.448 1.719 2.019 3 3.871 3 2.197 0 4-1.803 4-4s-1.803-4-4-4zm0 2c1.116 0 2 .884 2 2s-.884 2-2 2-2-.884-2-2 .884-2 2-2z"/></svg>