<svg xmlns="http://www.w3.org/2000/svg" width="24" height="24" viewBox="0 0 24 24"><path d="M4 3a1 1 0 0 0-.707.293 1 1 0 0 0 0 1.414L5.176 6.59c-.662.904-1.094 1.984-1.166 3.142-.078 1.233.278 2.54 1.133 3.711l-.85.85a1 1 0 0 0 0 1.414 1 1 0 0 0 1.414 0l10-10a1 1 0 0 0 0-1.414A1 1 0 0 0 15 4a1 1 0 0 0-.707.293l-.85.85c-1.171-.855-2.478-1.21-3.71-1.133-1.16.072-2.24.504-3.143 1.166L4.707 3.293A1 1 0 0 0 4 3zm6.037 2.998c.646-.01 1.308.155 1.97.58l-5.429 5.43c-.464-.725-.616-1.447-.572-2.15.06-.96.524-1.903 1.236-2.616.713-.712 1.656-1.176 2.615-1.236q.09-.006.18-.008zM16 9a1 1 0 0 0-1 1v.01a1 1 0 0 0 1 1 1 1 0 0 0 1-1V10a1 1 0 0 0-1-1zm4 1a1 1 0 0 0-1 1v.01a1 1 0 0 0 1 1 1 1 0 0 0 1-1V11a1 1 0 0 0-1-1zm-7 2a1 1 0 0 0-1 1v.01a1 1 0 0 0 1 1 1 1 0 0 0 1-1V13a1 1 0 0 0-1-1zm4 1a1 1 0 0 0-1 1v.01a1 1 0 0 0 1 1 1 1 0 0 0 1-1V14a1 1 0 0 0-1-1zm-7 2a1 1 0 0 0-1 1v.01a1 1 0 0 0 1 1 1 1 0 0 0 1-1V16a1 1 0 0 0-1-1zm4 1a1 1 0 0 0-1 1v.01a1 1 0 0 0 1 1 1 1 0 0 0 1-1V17a1 1 0 0 0-1-1zm-3 3a1 1 0 0 0-1 1v.01a1 1 0 0 0 1 1 1 1 0 0 0 1-1V20a1 1 0 0 0-1-1z"/></svg>