<svg xmlns="http://www.w3.org/2000/svg" width="24" height="24" viewBox="0 0 24 24"><path d="M4 2a1 1 0 0 0-1 1v7a1 1 0 0 0 1 1 1 1 0 0 0 1-1V3a1 1 0 0 0-1-1zm8 0a1 1 0 0 0-1 1v4h-1a1 1 0 0 0-1 1 1 1 0 0 0 1 1h4a1 1 0 0 0 1-1 1 1 0 0 0-1-1h-1V3a1 1 0 0 0-1-1zm8 0a1 1 0 0 0-1 1v9a1 1 0 0 0 1 1 1 1 0 0 0 1-1V3a1 1 0 0 0-1-1zm-8 9a1 1 0 0 0-1 1v9a1 1 0 0 0 1 1 1 1 0 0 0 1-1v-9a1 1 0 0 0-1-1zM2 13a1 1 0 0 0-1 1 1 1 0 0 0 1 1h1v6a1 1 0 0 0 1 1 1 1 0 0 0 1-1v-6h1a1 1 0 0 0 1-1 1 1 0 0 0-1-1zm16 2a1 1 0 0 0-1 1 1 1 0 0 0 1 1h1v4a1 1 0 0 0 1 1 1 1 0 0 0 1-1v-4h1a1 1 0 0 0 1-1 1 1 0 0 0-1-1z"/></svg>