<svg xmlns="http://www.w3.org/2000/svg" width="24" height="24" viewBox="0 0 24 24"><path d="M12 1a1 1 0 0 0-.707.293l-7 7C2.762 9.824 1 11.765 1 14.5 1 18.078 3.922 21 7.5 21c1.295 0 2.423-.37 3.5-1.057V22a1 1 0 0 0 1 1 1 1 0 0 0 1-1v-2.057C14.077 20.63 15.205 21 16.5 21c3.578 0 6.5-2.922 6.5-6.5 0-2.735-1.762-4.676-3.293-6.207l-7-7A1 1 0 0 0 12 1zm0 2.414 6.293 6.293C19.762 11.176 21 12.635 21 14.5c0 2.497-2.003 4.5-4.5 4.5-1.615 0-2.403-.317-3.793-1.707l-.006-.004a1 1 0 0 0-.316-.213h-.002A1 1 0 0 0 12 17a1 1 0 0 0-.346.068l-.054.02a1 1 0 0 0-.278.185l-.029.02C9.903 18.683 9.115 19 7.5 19A4.485 4.485 0 0 1 3 14.5c0-1.865 1.238-3.324 2.707-4.793z"/></svg>