<svg xmlns="http://www.w3.org/2000/svg" width="24" height="24" viewBox="0 0 24 24"><path d="M5 2C3.355 2 2 3.355 2 5v14c0 1.645 1.355 3 3 3h14c1.645 0 3-1.355 3-3V5c0-1.645-1.355-3-3-3zm0 2h14c.571 0 1 .429 1 1v14c0 .571-.429 1-1 1H5c-.571 0-1-.429-1-1V5c0-.571.429-1 1-1zm7 3a1 1 0 0 0-.707.293l-4 4a1 1 0 0 0-.158.207A1 1 0 0 0 7 12a1 1 0 0 0 .135.5 1 1 0 0 0 .158.207l4 4a1 1 0 0 0 1.414 0 1 1 0 0 0 0-1.414L10.414 13H16a1 1 0 0 0 1-1 1 1 0 0 0-1-1h-5.586l2.293-2.293a1 1 0 0 0 0-1.414A1 1 0 0 0 12 7z"/></svg>