<svg xmlns="http://www.w3.org/2000/svg" width="24" height="24" viewBox="0 0 24 24"><path d="M5 2C3.355 2 2 3.355 2 5v14c0 1.645 1.355 3 3 3h14c1.645 0 3-1.355 3-3V5c0-1.645-1.355-3-3-3zm0 2h14c.571 0 1 .429 1 1v14c0 .571-.429 1-1 1H5c-.571 0-1-.429-1-1V5c0-.571.429-1 1-1zm4 2a1 1 0 0 0-1 1v10a1 1 0 0 0 1 1 1 1 0 0 0 1-1v-3h3c1.25 0 2.315-.505 2.998-1.273C16.681 11.957 17 10.972 17 10s-.319-1.958-1.002-2.727S14.25 6 13 6zm1 2h3c.75 0 1.185.245 1.502.602.317.356.498.87.498 1.398s-.181 1.042-.498 1.398c-.317.357-.752.602-1.502.602h-3z"/></svg>