<svg xmlns="http://www.w3.org/2000/svg" width="24" height="24" viewBox="0 0 24 24"><path d="M5 2C3.355 2 2 3.355 2 5v14c0 1.645 1.355 3 3 3h14c1.645 0 3-1.355 3-3V5c0-1.645-1.355-3-3-3zm0 2h14c.571 0 1 .429 1 1v14c0 .571-.429 1-1 1H5c-.571 0-1-.429-1-1V5c0-.571.429-1 1-1zm3 3a1 1 0 0 0-1 1 1 1 0 0 0 1 1h5.586l-6.293 6.293a1 1 0 0 0 0 1.414 1 1 0 0 0 1.414 0L15 10.414V16a1 1 0 0 0 1 1 1 1 0 0 0 1-1V8a1 1 0 0 0-.047-.297l-.006-.02a1 1 0 0 0-.13-.257l-.018-.024a1 1 0 0 0-.092-.109l-.062-.047a1 1 0 0 0-.13-.092 1 1 0 0 0-.134-.068 1 1 0 0 0-.149-.049 1 1 0 0 0-.158-.025L16 7z"/></svg>