<svg xmlns="http://www.w3.org/2000/svg" width="24" height="24" viewBox="0 0 24 24"><path d="M3 2a1 1 0 0 0-.707.293 1 1 0 0 0-.17.234l-.033.078a1 1 0 0 0-.065.198 1 1 0 0 0-.013.105A1 1 0 0 0 2 3v6a1 1 0 0 0 1 1 1 1 0 0 0 1-1V5.414l7.293 7.293a1 1 0 0 0 1.414 0 1 1 0 0 0 0-1.414L5.414 4H9a1 1 0 0 0 1-1 1 1 0 0 0-1-1zm10 0a1 1 0 0 0-1 1 1 1 0 0 0 1 1h6c.564 0 1 .436 1 1v14c0 .564-.436 1-1 1H5c-.564 0-1-.436-1-1v-6a1 1 0 0 0-1-1 1 1 0 0 0-1 1v6c0 1.645 1.355 3 3 3h14c1.645 0 3-1.355 3-3V5c0-1.645-1.355-3-3-3z"/></svg>