<svg xmlns="http://www.w3.org/2000/svg" width="24" height="24" viewBox="0 0 24 24"><path d="M2 1a1 1 0 0 0-.707.293 1 1 0 0 0 0 1.414l4.934 4.934-4.372.64a1 1 0 0 0-.552 1.705l4.623 4.502-1.092 6.342a1 1 0 0 0 1.45 1.057L12 18.898l5.717 2.989a1 1 0 0 0 1.449-1.057l-.053-.303 2.18 2.18a1 1 0 0 0 1.414 0 1 1 0 0 0 0-1.414l-4.506-4.506-.033-.035-.004-.002L2.707 1.293A1 1 0 0 0 2 1zm10 0a1 1 0 0 0-.896.557l-1.44 2.91a1 1 0 0 0 .453 1.34 1 1 0 0 0 1.34-.453l.541-1.096 2.195 4.455a1 1 0 0 0 .754.547l4.905.709-2.13 2.076a1 1 0 0 0-.019 1.414 1 1 0 0 0 1.414.018l3.58-3.49a1 1 0 0 0-.554-1.706l-6.39-.926-2.857-5.796A1 1 0 0 0 12 1zM7.988 9.402l8.674 8.674.19 1.102-4.39-2.295a1 1 0 0 0-.925 0l-4.389 2.295.838-4.87a1 1 0 0 0-.289-.884L4.148 9.967z"/></svg>