<svg xmlns="http://www.w3.org/2000/svg" width="24" height="24" viewBox="0 0 24 24"><path d="M3 1a1 1 0 0 0-1 1v2c0 1.645 1.355 3 3 3h14c1.645 0 3-1.355 3-3V2a1 1 0 0 0-1-1 1 1 0 0 0-1 1v2c0 .564-.436 1-1 1h-3V2a1 1 0 0 0-1-1 1 1 0 0 0-1 1v3h-4V2a1 1 0 0 0-1-1 1 1 0 0 0-1 1v3H5c-.564 0-1-.436-1-1V2a1 1 0 0 0-1-1zM2 9a1 1 0 0 0-1 1 1 1 0 0 0 1 1h2a1 1 0 0 0 1-1 1 1 0 0 0-1-1zm6 0a1 1 0 0 0-1 1 1 1 0 0 0 1 1h2a1 1 0 0 0 1-1 1 1 0 0 0-1-1zm6 0a1 1 0 0 0-1 1 1 1 0 0 0 1 1h2a1 1 0 0 0 1-1 1 1 0 0 0-1-1zm6 0a1 1 0 0 0-1 1 1 1 0 0 0 1 1h2a1 1 0 0 0 1-1 1 1 0 0 0-1-1zM5 13c-1.645 0-3 1.355-3 3v6a1 1 0 0 0 1 1 1 1 0 0 0 1-1v-2h4v2a1 1 0 0 0 1 1 1 1 0 0 0 1-1v-2h4v2a1 1 0 0 0 1 1 1 1 0 0 0 1-1v-2h4v2a1 1 0 0 0 1 1 1 1 0 0 0 1-1v-6c0-1.645-1.355-3-3-3zm0 2h3v3H4v-2c0-.564.436-1 1-1zm5 0h4v3h-4zm6 0h3c.564 0 1 .436 1 1v2h-4z"/></svg>