<svg xmlns="http://www.w3.org/2000/svg" width="24" height="24" viewBox="0 0 24 24"><path d="M3 5a1 1 0 0 0-1 1 1 1 0 0 0 1 1h18a1 1 0 0 0 1-1 1 1 0 0 0-1-1zm0 6a1 1 0 0 0-1 1 1 1 0 0 0 1 1h7a1 1 0 0 0 1-1 1 1 0 0 0-1-1zm14 0c-2.197 0-4 1.803-4 4s1.803 4 4 4a3.96 3.96 0 0 0 2.027-.559l1.266 1.266a1 1 0 0 0 1.414 0 1 1 0 0 0 0-1.414l-1.266-1.266A3.96 3.96 0 0 0 21 15c0-2.197-1.803-4-4-4zm0 2c1.116 0 2 .884 2 2a2 2 0 0 1-.44 1.26 1 1 0 0 0-.167.133 1 1 0 0 0-.133.168A2 2 0 0 1 17 17c-1.116 0-2-.884-2-2s.884-2 2-2zM3 17a1 1 0 0 0-1 1 1 1 0 0 0 1 1h7a1 1 0 0 0 1-1 1 1 0 0 0-1-1z"/></svg>