<svg xmlns="http://www.w3.org/2000/svg" width="24" height="24" viewBox="0 0 24 24"><path d="M18 1a3.05 3.05 0 0 0-2.04.752C15.38 2.269 15 3.083 15 4v10.09c-1.713 1.309-2.315 3.402-1.83 5.209.534 1.992 2.343 3.705 4.83 3.705s4.296-1.713 4.83-3.705c.485-1.807-.117-3.9-1.83-5.21V4c0-.917-.38-1.731-.96-2.248A3.05 3.05 0 0 0 18 1zm-6 1a1 1 0 0 0-1 1v2a1 1 0 0 0 1 1 1 1 0 0 0 1-1V3a1 1 0 0 0-1-1zm6 1c.278 0 .542.098.71.248.17.15.29.335.29.752v10.54a1 1 0 0 0 .5.866c1.39.803 1.728 2.145 1.398 3.373-.329 1.229-1.294 2.225-2.898 2.225s-2.57-.996-2.898-2.225c-.33-1.228.007-2.57 1.398-3.373a1 1 0 0 0 .5-.867V4c0-.417.12-.602.29-.752A1.1 1.1 0 0 1 18 3zM4.93 4.93a1 1 0 0 0-.707.293 1 1 0 0 0 0 1.414l1.41 1.41a1 1 0 0 0 1.414 0 1 1 0 0 0 0-1.414l-1.41-1.41a1 1 0 0 0-.707-.293zM12.016 8c-2.53-.04-4.375 1.694-4.912 3.71-.538 2.018.198 4.441 2.412 5.665a1 1 0 0 0 1.359-.39 1 1 0 0 0-.39-1.36c-1.433-.792-1.78-2.153-1.448-3.398s1.31-2.253 2.947-2.227A1 1 0 0 0 13 9.016 1 1 0 0 0 12.016 8zM2 12a1 1 0 0 0-1 1 1 1 0 0 0 1 1h2a1 1 0 0 0 1-1 1 1 0 0 0-1-1zm4.6 5.4a1 1 0 0 0-.707.293l-1.4 1.4a1 1 0 0 0 0 1.415 1 1 0 0 0 1.413 0l1.4-1.4a1 1 0 0 0 0-1.415A1 1 0 0 0 6.6 17.4z"/></svg>