<svg xmlns="http://www.w3.org/2000/svg" width="24" height="24" viewBox="0 0 24 24"><path d="M6.5 1a3.01 3.01 0 0 0-2.88 2.16l-2.33 8C.736 13.055 2.196 15 4.17 15h4.557l-.698 2.88c-.632 2.562 1.322 5.087 3.96 5.12a1 1 0 0 0 .906-.553l3.449-6.888.002-.004A.99.99 0 0 1 17.24 15H20c1.645 0 3-1.355 3-3V4c0-1.645-1.355-3-3-3zm0 2H16v10.271a3 3 0 0 0-1.445 1.393l-3.05 6.088c-1.059-.314-1.818-1.243-1.534-2.393l.002-.004 1-4.119A1 1 0 0 0 10 13H4.17c-.693 0-1.153-.614-.96-1.28v-.001l2.331-8A.99.99 0 0 1 6.5 3zM18 3h2c.564 0 1 .436 1 1v8c0 .564-.436 1-1 1h-2z"/></svg>