<svg xmlns="http://www.w3.org/2000/svg" width="24" height="24" viewBox="0 0 24 24"><path d="M12 3C6.018 3 1 7.17 1 12.5S6.018 22 12 22s11-4.17 11-9.5S17.982 3 12 3zm0 2c5.063 0 9 3.441 9 7.5S17.063 20 12 20s-9-3.441-9-7.5S6.937 5 12 5zm0 3c-1.009 0-1.938.262-2.676.754S8 10.042 8 11s.586 1.754 1.324 2.246S10.991 14 12 14s1.938-.262 2.676-.754S16 11.958 16 11s-.586-1.754-1.324-2.246S13.009 8 12 8zm0 2c.648 0 1.219.186 1.566.418.348.232.434.435.434.582s-.086.35-.434.582c-.347.232-.918.418-1.566.418s-1.219-.186-1.566-.418C10.086 11.35 10 11.147 10 11s.086-.35.434-.582C10.78 10.186 11.352 10 12 10z"/></svg>