<svg xmlns="http://www.w3.org/2000/svg" width="24" height="24" viewBox="0 0 24 24"><path d="M3 3a1 1 0 0 0-1 1 1 1 0 0 0 1 1v5.537A6 6 0 0 0 1 15c0 3.302 2.698 6 6 6a6 6 0 0 0 4.463-2h3.71c.417 1.16 1.532 2 2.827 2s2.41-.84 2.826-2H21a1 1 0 0 0 .988-.842l.8-4.994v-.002c.083-.504.014-1.045-.302-1.504-.315-.46-.908-.758-1.486-.758l.082.004L18 10.652V6a1 1 0 0 0 1-1 1 1 0 0 0-1-1c-1.093 0-2 .907-2 2v4.488l-2.12-.174-.89-6.45A1 1 0 0 0 12 3zm2 2h2v4c-.7 0-1.374.123-2 .346zm4 0h2.129l.71 5.148-1.491-.123A6 6 0 0 0 9 9.345zm-2 6q.4 0 .777.074a4 4 0 0 1 1.565.676l.037.027A3.99 3.99 0 0 1 11 15c0 .884-.282 1.698-.762 2.357l-.047.065A3.99 3.99 0 0 1 7 19c-2.221 0-4-1.779-4-4s1.779-4 4-4zm5.297 1.191 8.508.696-.51 3.19A3 3 0 0 0 18 15a3.02 3.02 0 0 0-2.826 2h-2.52a5.95 5.95 0 0 0-.357-4.809zM7 14a1 1 0 0 0-1 1 1 1 0 0 0 1 1h.01a1 1 0 0 0 1-1 1 1 0 0 0-1-1zm11 3c.564 0 1 .436 1 1s-.436 1-1 1-1-.436-1-1 .436-1 1-1z"/></svg>