<svg xmlns="http://www.w3.org/2000/svg" width="24" height="24" viewBox="0 0 24 24"><path d="M12.068.855c-1.25-.032-2.597.81-2.931 2.28l-2.168 7.222a1 1 0 0 0-.051.17l-.309 1.032-4.306 2.474-.018.01C1.6 14.453 1 15.1 1 16s.6 1.546 1.285 1.957l.006.004 7.6 4.5.023.014c1.23.683 2.74.683 3.97 0l.026-.014 7.576-4.486C22.342 17.579 23 16.869 23 16c0-.9-.6-1.546-1.285-1.957l-.004-.002-4.389-2.615-.222-.742a1 1 0 0 0-.157-.522l-2.074-6.91C14.6 1.785 13.31.888 12.07.855zm-.052 2c.442.012.803.185.894.793a1 1 0 0 0 .031.14l.586 1.954a3.54 3.54 0 0 1-3.082-.012l.614-2.043a1 1 0 0 0 .021-.087c.123-.604.493-.756.936-.745zM9.867 7.662a5.57 5.57 0 0 0 4.24.01l.795 2.65c-.706.393-1.74.678-2.902.678-1.176 0-2.22-.291-2.928-.691zm-1.37 4.613C9.5 12.757 10.706 13 12 13c1.288 0 2.489-.241 3.49-.719l.451 1.506a1 1 0 0 0 .057.096c0 .01.002.037.002.117 0 .419-.26.86-.963 1.28-.702.419-1.792.72-3.037.72s-2.335-.301-3.037-.72C8.26 14.86 8 14.418 8 14c0-.15.008-.183.004-.174a1 1 0 0 0 .055-.139l.289-.96a1 1 0 0 0 .148-.452zm9.497 1.88 2.694 1.605a1 1 0 0 1 .273.232 1.6 1.6 0 0 1-.356.19 1 1 0 0 0-.115.058l-7.576 4.487c-.57.316-1.457.315-2.027 0h-.002l-7.57-4.485a.9.9 0 0 1-.286-.24 1 1 0 0 1 .282-.24c.004-.003 0-.002.003-.004l2.694-1.549c.085 1.188.892 2.168 1.93 2.787C9.035 17.652 10.445 18 12 18s2.965-.348 4.063-1.004c1.053-.629 1.867-1.63 1.931-2.842z"/></svg>