<svg xmlns="http://www.w3.org/2000/svg" width="24" height="24" viewBox="0 0 24 24"><path d="M12 1a1 1 0 0 0-1 1v.082c-5.186.469-9.417 4.544-9.994 9.809A1 1 0 0 0 2 13h9v7c0 .917.38 1.731.96 2.248A3.05 3.05 0 0 0 14 23a3.05 3.05 0 0 0 2.04-.752c.58-.517.96-1.331.96-2.248a1 1 0 0 0-1-1 1 1 0 0 0-1 1c0 .417-.12.602-.29.752-.168.15-.432.248-.71.248s-.542-.098-.71-.248c-.17-.15-.29-.335-.29-.752v-7h9a1 1 0 0 0 .994-1.11C22.417 6.627 18.186 2.55 13 2.083V2a1 1 0 0 0-1-1zm0 3.037c4.229 0 7.694 2.955 8.67 6.963H3.33C4.306 6.992 7.771 4.037 12 4.037z"/></svg>