<svg xmlns="http://www.w3.org/2000/svg" width="24" height="24" viewBox="0 0 24 24"><path d="M10 2C6.698 2 4 4.698 4 8c0 1.945.937 3.68 2.38 4.777C3.278 14.158 1 17.25 1 21a1 1 0 0 0 1 1 1 1 0 0 0 1-1 6.974 6.974 0 0 1 6.807-7.006Q9.903 14 10 14q.083 0 .164-.004a7.1 7.1 0 0 1 1.965.336 1 1 0 0 0 1.258-.648 1 1 0 0 0-.041-.71A6 6 0 0 0 16 8c0-3.302-2.698-6-6-6zm0 2c2.221 0 4 1.779 4 4s-1.779 4-4 4-4-1.779-4-4 1.779-4 4-4zm8 10c-2.197 0-4 1.803-4 4s1.803 4 4 4a3.96 3.96 0 0 0 2.027-.559l1.266 1.266a1 1 0 0 0 1.414 0 1 1 0 0 0 0-1.414l-1.266-1.266A3.96 3.96 0 0 0 22 18c0-2.197-1.803-4-4-4zm0 2c1.116 0 2 .884 2 2a2 2 0 0 1-.44 1.26 1 1 0 0 0-.167.133 1 1 0 0 0-.133.168A2 2 0 0 1 18 20c-1.116 0-2-.884-2-2s.884-2 2-2z"/></svg>