<svg xmlns="http://www.w3.org/2000/svg" width="24" height="24" viewBox="0 0 24 24"><path d="M2 6a1 1 0 0 0-1 1v5c0 3.29 2.678 5.98 5.963 6a7 7 0 0 1 4.375 1.75 1 1 0 0 0 1.324 0A7 7 0 0 1 17.037 18C20.322 17.98 23 15.29 23 12V7a1 1 0 0 0-1-1h-5.037c-1.816.068-3.512.77-4.963 1.842C10.549 6.769 8.853 6.068 7.037 6zm1 2h3.963a7 7 0 0 1 4.375 1.75 1 1 0 0 0 1.324 0A7 7 0 0 1 17.037 8H21v4c0 2.221-1.779 4-4 4h-.037c-1.816.068-3.512.77-4.963 1.842-1.451-1.073-3.147-1.774-4.963-1.842H7c-2.221 0-4-1.779-4-4zm3 2a1 1 0 0 0-1 1c0 .583.065 1.093.273 1.563.21.47.6.867 1.03 1.082C7.16 14.073 8 14 9 14a1 1 0 0 0 1-1c0-1.083-.658-1.997-1.451-2.437C7.755 10.122 6.86 10 6 10zm12 0c-.861 0-1.755.122-2.549.563C14.658 11.003 14 11.917 14 13a1 1 0 0 0 1 1c1 0 1.84.073 2.697-.355.43-.215.82-.613 1.03-1.082.208-.47.273-.98.273-1.563a1 1 0 0 0-1-1z"/></svg>