<svg xmlns="http://www.w3.org/2000/svg" width="24" height="24" viewBox="0 0 24 24"><path d="M2 1a1 1 0 0 0-.707.293 1 1 0 0 0 0 1.414l2.32 2.32C2.148 5.22 1 6.487 1 8v8c0 1.645 1.355 3 3 3h10c.97 0 1.837-.474 2.387-1.2l4.906 4.907a1 1 0 0 0 1.414 0 1 1 0 0 0 0-1.414l-6-6-10-10-4-4A1 1 0 0 0 2 1zm8.66 4a1 1 0 0 0-1 1 1 1 0 0 0 1 1H14c.564 0 1 .436 1 1v2.5a1 1 0 0 0 1.504.863L21 8.74v7.326a1 1 0 0 0 1 1 1 1 0 0 0 1-1V7.87c-.001-1.108-1.298-1.854-2.256-1.295L17 8.76V8c0-1.645-1.355-3-3-3zM4 7h1.586l9.352 9.352A.98.98 0 0 1 14 17H4c-.564 0-1-.436-1-1V8c0-.564.436-1 1-1z"/></svg>