<svg xmlns="http://www.w3.org/2000/svg" width="24" height="24" viewBox="0 0 24 24"><path d="M5 1C3.355 1 2 2.355 2 4v16c0 1.645 1.355 3 3 3h14c1.645 0 3-1.355 3-3V4c0-1.645-1.355-3-3-3zm0 2h14c.571 0 1 .429 1 1v16c0 .571-.429 1-1 1H5c-.571 0-1-.429-1-1V7h2a1 1 0 0 0 1-1 1 1 0 0 0-1-1H4V4c0-.571.429-1 1-1zm12 2a1 1 0 0 0-1 1 1 1 0 0 0 1 1h.01a1 1 0 0 0 1-1 1 1 0 0 0-1-1zm-5 2a4 4 0 0 0-.201.006C8.589 7.113 6 9.766 6 13c0 3.302 2.698 6 6 6l.201-.006C15.411 18.887 18 16.234 18 13c0-3.302-2.698-6-6-6zm0 2c2.221 0 4 1.779 4 4 0 .734-.195 1.419-.535 2.008a3.5 3.5 0 0 0-.842-1.89C14.023 12.441 13.083 12 12 12c-.583 0-.894-.183-1.127-.445-.233-.263-.373-.652-.373-1.055s.14-.792.373-1.055S11.417 9 12 9zm-3.465 1.992c.088.681.358 1.347.842 1.89.6.676 1.54 1.118 2.623 1.118.583 0 .894.183 1.127.445.233.263.373.652.373 1.055s-.14.792-.373 1.055S12.583 17 12 17c-2.221 0-4-1.779-4-4 0-.734.195-1.419.535-2.008z"/></svg>