<svg xmlns="http://www.w3.org/2000/svg" width="24" height="24" viewBox="0 0 24 24"><path d="M9.5 4C7.983 4 7 4.719 6.375 5.219S5.483 6 4.5 6c-1.044 0-1.26-.268-1.86-.768a1 1 0 0 0-1.408.127 1 1 0 0 0 .127 1.409C1.96 7.268 2.944 8 4.5 8 6.017 8 7 7.281 7.625 6.781S8.517 6 9.5 6c1.044 0 1.26.268 1.86.768S12.943 8 14.5 8c1.517 0 2.5-.719 3.125-1.219S18.517 6 19.5 6c1.044 0 1.26.268 1.86.768a1 1 0 0 0 1.408-.127 1 1 0 0 0-.127-1.409C22.04 4.732 21.056 4 19.5 4c-1.517 0-2.5.719-3.125 1.219S15.483 6 14.5 6c-1.044 0-1.26-.268-1.86-.768S11.057 4 9.5 4zm0 6c-1.517 0-2.5.719-3.125 1.219S5.483 12 4.5 12c-1.044 0-1.26-.268-1.86-.768a1 1 0 0 0-1.408.127 1 1 0 0 0 .127 1.409C1.96 13.268 2.944 14 4.5 14c1.517 0 2.5-.719 3.125-1.219S8.517 12 9.5 12c1.044 0 1.26.268 1.86.768S12.943 14 14.5 14c1.517 0 2.5-.719 3.125-1.219S18.517 12 19.5 12c1.044 0 1.26.268 1.86.768a1 1 0 0 0 1.408-.127 1 1 0 0 0-.127-1.409c-.6-.5-1.585-1.232-3.141-1.232-1.517 0-2.5.719-3.125 1.219S15.483 12 14.5 12c-1.044 0-1.26-.268-1.86-.768S11.057 10 9.5 10zm0 6c-1.517 0-2.5.719-3.125 1.219S5.483 18 4.5 18c-1.044 0-1.26-.268-1.86-.768a1 1 0 0 0-1.408.127 1 1 0 0 0 .127 1.409C1.96 19.268 2.944 20 4.5 20c1.517 0 2.5-.719 3.125-1.219S8.517 18 9.5 18c1.044 0 1.26.268 1.86.768S12.943 20 14.5 20c1.517 0 2.5-.719 3.125-1.219S18.517 18 19.5 18c1.044 0 1.26.268 1.86.768a1 1 0 0 0 1.408-.127 1 1 0 0 0-.127-1.409c-.6-.5-1.585-1.232-3.141-1.232-1.517 0-2.5.719-3.125 1.219S15.483 18 14.5 18c-1.044 0-1.26-.268-1.86-.768S11.057 16 9.5 16z"/></svg>