<svg xmlns="http://www.w3.org/2000/svg" width="24" height="24" viewBox="0 0 24 24"><path d="M3 5a1 1 0 0 0-1 1 1 1 0 0 0 1 1h18a1 1 0 0 0 1-1 1 1 0 0 0-1-1zm0 6a1 1 0 0 0-1 1 1 1 0 0 0 1 1h15c.75 0 1.185.245 1.502.602.317.356.498.87.498 1.398s-.181 1.042-.498 1.398c-.317.357-.752.602-1.502.602h-1.586l.293-.293a1 1 0 0 0 0-1.414 1 1 0 0 0-1.414 0l-2 2a1 1 0 0 0-.195.291l-.026.055a1 1 0 0 0-.066.332L13 18l.006.03a1 1 0 0 0 .066.331l.026.055a1 1 0 0 0 .195.291l2 2a1 1 0 0 0 1.414 0 1 1 0 0 0 0-1.414L16.414 19H18c1.25 0 2.315-.505 2.998-1.273C21.681 16.957 22 15.972 22 15s-.319-1.958-1.002-2.727S19.25 11 18 11zm0 6a1 1 0 0 0-1 1 1 1 0 0 0 1 1h7a1 1 0 0 0 1-1 1 1 0 0 0-1-1z"/></svg>