<svg xmlns="http://www.w3.org/2000/svg" width="56" height="56" viewBox="0 0 56 56"><path d="M8.734 13.469c.352 0 .61-.047.938-.305l7.851-5.93c.399-.28.61-.656.61-1.054 0-.492-.235-.89-.633-1.266-.89-.797-2.485-1.242-3.89-1.242a6.547 6.547 0 0 0-6.587 6.586c0 .867.141 1.734.375 2.273.258.586.774.938 1.336.938Zm38.508 0c.586 0 1.055-.375 1.336-.938.258-.515.398-1.406.398-2.273 0-3.656-2.93-6.586-6.609-6.586-1.383 0-2.976.445-3.867 1.242-.399.375-.633.774-.633 1.266 0 .398.211.773.586 1.054l7.852 5.93c.328.258.586.305.937.305ZM8.382 51.602a1.805 1.805 0 0 0 2.602-.024l3.703-3.68A22.38 22.38 0 0 0 28 52.282c4.992 0 9.586-1.64 13.312-4.382l3.704 3.68c.726.75 1.875.75 2.578.023.68-.68.703-1.828-.024-2.532l-3.562-3.539a22.27 22.27 0 0 0 6.398-15.656C50.406 17.5 40.375 7.445 28 7.445S5.594 17.5 5.594 29.875a22.35 22.35 0 0 0 6.375 15.656l-3.563 3.54c-.703.703-.703 1.85-.023 2.53ZM28 48.274c-10.172 0-18.422-8.227-18.422-18.399 0-10.148 8.25-18.398 18.422-18.398 10.148 0 18.375 8.25 18.375 18.398 0 10.172-8.227 18.399-18.375 18.399Zm-10.664-15.82h10.64c.915 0 1.641-.704 1.641-1.618V16.633a1.63 1.63 0 0 0-1.64-1.64c-.915 0-1.618.726-1.618 1.64v12.562h-9.023c-.938 0-1.64.727-1.64 1.64 0 .915.702 1.618 1.64 1.618Z"/></svg>