<svg xmlns="http://www.w3.org/2000/svg" width="56" height="56" viewBox="0 0 56 56"><path d="M15.144 49.574H40.88c4.593 0 7.054-2.39 7.054-6.984V19.246c2.274-.375 3.493-2.086 3.493-4.594V11.09c0-2.86-1.57-4.664-4.454-4.664H9.027c-2.742 0-4.453 1.804-4.453 4.664v3.562c0 2.508 1.242 4.22 3.492 4.594V42.59c0 4.617 2.485 6.984 7.078 6.984ZM9.988 15.777c-1.172 0-1.64-.492-1.64-1.664V11.63c0-1.172.468-1.664 1.64-1.664h36.047c1.195 0 1.617.492 1.617 1.664v2.484c0 1.172-.422 1.664-1.617 1.664Zm5.133 30.258c-2.11 0-3.281-1.148-3.281-3.258v-23.46h32.32v23.46c0 2.11-1.172 3.258-3.258 3.258Zm5.156-17.273H35.77c.961 0 1.665-.68 1.665-1.711v-.75c0-1.031-.704-1.688-1.665-1.688H20.277c-.984 0-1.664.657-1.664 1.688v.75c0 1.031.68 1.71 1.664 1.71Z"/></svg>