<svg xmlns="http://www.w3.org/2000/svg" width="56" height="56" viewBox="0 0 56 56"><path d="M28 51.906c13.055 0 23.906-10.828 23.906-23.906 0-13.055-10.875-23.906-23.93-23.906C14.899 4.094 4.095 14.945 4.095 28c0 13.078 10.828 23.906 23.906 23.906Zm0-3.984c-11.063 0-19.9-8.86-19.9-19.922 0-11.04 8.813-19.922 19.876-19.922 11.039 0 19.921 8.883 19.945 19.922.023 11.063-8.883 19.922-19.922 19.922ZM13.047 28c0 .539.234.938.68 1.383l7.898 7.945c.305.305.75.492 1.242.492.961 0 1.664-.773 1.664-1.71 0-.516-.164-.938-.515-1.266l-2.93-2.883-2.836-2.39 4.969.187h9.586l4.968-.188-2.836 2.39-2.953 2.884a1.73 1.73 0 0 0-.515 1.265c0 .938.726 1.711 1.687 1.711.492 0 .914-.187 1.219-.492l7.922-7.945c.445-.445.68-.844.68-1.383 0-.492-.211-.89-.68-1.36l-7.922-7.945c-.305-.304-.727-.468-1.219-.468-.96 0-1.687.726-1.687 1.687 0 .516.21.938.515 1.242l2.953 2.907 2.813 2.367-4.945-.188h-9.586l-4.946.188 2.813-2.367 2.93-2.907c.328-.304.515-.726.515-1.242 0-.96-.703-1.687-1.664-1.687-.492 0-.937.164-1.242.468l-7.898 7.946c-.493.468-.68.867-.68 1.359Z"/></svg>