<svg xmlns="http://www.w3.org/2000/svg" width="56" height="56" viewBox="0 0 56 56"><path d="M41.348 50.137c1.336 0 2.484-.024 3.187-.164.914-.211 1.758-.797 1.758-1.992 0-1.22-.89-1.993-2.086-1.993-.797 0-1.57.047-2.648.047-8.344 0-12.024-2.836-12-11.32l.023-16.031-.21-6.375 4.687 5.156 7.687 7.687c.375.375.938.563 1.477.563 1.172 0 2.039-.89 2.039-2.04 0-.562-.211-1.054-.657-1.523L29.043 6.566c-.445-.468-.984-.703-1.57-.703-.563 0-1.102.235-1.547.703L10.363 22.152c-.445.47-.656.961-.656 1.524 0 1.148.867 2.039 2.016 2.039.562 0 1.125-.188 1.5-.563l7.664-7.687 4.687-5.133-.187 6.352v16.242c0 10.898 5.11 15.21 15.96 15.21Z"/></svg>