<svg xmlns="http://www.w3.org/2000/svg" width="56" height="56" viewBox="0 0 56 56"><path d="M28 51.906c13.055 0 23.906-10.828 23.906-23.906 0-13.055-10.875-23.906-23.93-23.906C14.899 4.094 4.095 14.945 4.095 28c0 13.078 10.828 23.906 23.906 23.906Zm0-3.984c-11.063 0-19.9-8.86-19.9-19.922 0-11.04 8.813-19.922 19.876-19.922 11.039 0 19.921 8.883 19.945 19.922.023 11.063-8.883 19.922-19.922 19.922Zm11.016-17.04c0-5.648-4.055-9.07-9.516-9.07h-7.008l-2.765.094 1.851-1.453 2.414-2.344c.328-.304.54-.726.54-1.218 0-.961-.727-1.711-1.688-1.711a1.53 1.53 0 0 0-1.196.515l-6.234 6.328a1.93 1.93 0 0 0-.633 1.43c0 .54.234 1.031.633 1.406l6.258 6.399a1.6 1.6 0 0 0 1.195.492c.938 0 1.664-.75 1.664-1.711 0-.445-.164-.89-.515-1.219l-2.93-2.812L19.726 25l2.766.094H29.5c3.445 0 6.07 1.992 6.07 5.601 0 3.68-2.554 5.977-6.093 5.977h-3.258c-1.008 0-1.782.586-1.782 1.664s.774 1.687 1.828 1.687h3.212c5.46 0 9.539-3.515 9.539-9.14Z"/></svg>