<svg xmlns="http://www.w3.org/2000/svg" width="56" height="56" viewBox="0 0 56 56"><path d="M28 51.906c13.055 0 23.906-10.828 23.906-23.906 0-13.055-10.875-23.906-23.93-23.906C14.899 4.094 4.095 14.945 4.095 28c0 13.078 10.828 23.906 23.906 23.906Zm0-3.984c-11.063 0-19.9-8.86-19.9-19.922 0-11.04 8.813-19.922 19.876-19.922 11.039 0 19.921 8.883 19.945 19.922.023 11.063-8.883 19.922-19.922 19.922ZM15.93 27.977c0 .539.234.937.68 1.382l7.921 7.946c.305.304.727.492 1.219.492.96 0 1.687-.774 1.687-1.711 0-.516-.187-.938-.515-1.266l-2.953-2.883-2.813-2.39 4.945.187h12.235c1.008 0 1.734-.75 1.734-1.757 0-1.008-.726-1.758-1.734-1.758H26.1l-4.945.187 2.813-2.367 2.953-2.906a1.73 1.73 0 0 0 .515-1.242c0-.961-.726-1.688-1.687-1.688-.492 0-.914.164-1.219.469l-7.922 7.945c-.469.469-.68.867-.68 1.36Z"/></svg>