<svg xmlns="http://www.w3.org/2000/svg" width="56" height="56" viewBox="0 0 56 56"><path d="M13.785 49.574h28.453c4.899 0 7.336-2.437 7.336-7.265V13.69c0-4.828-2.437-7.265-7.336-7.265H13.785c-4.875 0-7.36 2.414-7.36 7.265v28.62c0 4.851 2.485 7.265 7.36 7.265Zm.07-3.773c-2.343 0-3.656-1.242-3.656-3.68V13.88c0-2.438 1.313-3.68 3.656-3.68h28.313c2.32 0 3.633 1.242 3.633 3.68v28.24c0 2.438-1.313 3.68-3.633 3.68Zm14.18-32.344c-.539 0-.937.234-1.383.656l-7.945 7.922a1.7 1.7 0 0 0-.492 1.219c0 .96.773 1.687 1.71 1.687.516 0 .938-.187 1.266-.515l2.883-2.93 2.39-2.836-.187 4.969v8.648l.188 4.97-2.39-2.837-2.884-2.953a1.73 1.73 0 0 0-1.265-.516c-.938 0-1.711.727-1.711 1.688 0 .492.187.914.492 1.219l7.945 7.922c.446.445.844.68 1.383.68.492 0 .89-.212 1.36-.68l7.945-7.922c.304-.305.468-.727.468-1.22 0-.96-.726-1.687-1.687-1.687-.516 0-.937.211-1.242.516l-2.906 2.953-2.368 2.813.188-4.946V23.63l-.188-4.945 2.368 2.812 2.906 2.93a1.73 1.73 0 0 0 1.242.515c.961 0 1.688-.726 1.688-1.687 0-.492-.165-.914-.47-1.219l-7.945-7.922c-.468-.468-.867-.656-1.359-.656Z"/></svg>