<svg xmlns="http://www.w3.org/2000/svg" width="56" height="56" viewBox="0 0 56 56"><path d="M41.348 5.863c-10.852 0-15.961 4.313-15.961 15.211v16.242l.187 6.352-4.687-5.133-7.664-7.687c-.375-.375-.938-.563-1.5-.563-1.149 0-2.016.89-2.016 2.04 0 .562.21 1.054.656 1.523l15.563 15.586c.445.468.984.703 1.547.703.586 0 1.125-.235 1.57-.703l15.562-15.586c.446-.47.657-.961.657-1.524 0-1.148-.867-2.039-2.04-2.039-.538 0-1.1.188-1.476.563l-7.687 7.687-4.688 5.156.211-6.375-.023-16.03c-.024-8.485 3.656-11.321 12-11.321 1.078 0 1.851.047 2.648.047 1.195 0 2.086-.774 2.086-1.992 0-1.196-.844-1.805-1.758-1.993-.703-.117-1.851-.164-3.187-.164Z"/></svg>