<svg xmlns="http://www.w3.org/2000/svg" width="56" height="56" viewBox="0 0 56 56"><path d="M13.785 49.574h28.453c4.899 0 7.336-2.437 7.336-7.265V13.69c0-4.828-2.437-7.265-7.336-7.265H13.785c-4.875 0-7.36 2.414-7.36 7.265v28.62c0 4.851 2.485 7.265 7.36 7.265Zm26.79-18.984c0 5.93-4.313 9.633-10.079 9.633h-3.375c-1.078 0-1.898-.633-1.898-1.735 0-1.148.82-1.781 1.851-1.781h3.422c3.75 0 6.469-2.39 6.469-6.305 0-3.797-2.79-5.882-6.446-5.882h-7.382l-2.93-.094 1.43 1.054 3.117 2.977c.375.328.539.82.539 1.266 0 1.03-.773 1.804-1.735 1.804-.515 0-.914-.164-1.242-.539l-6.609-6.726c-.375-.399-.656-.89-.656-1.477 0-.586.281-1.078.656-1.5l6.586-6.633c.351-.375.727-.539 1.219-.539 1.008 0 1.78.75 1.78 1.758 0 .516-.234.961-.562 1.266l-2.578 2.508-1.945 1.546 2.93-.093h7.383c5.765 0 10.054 3.562 10.054 9.492Z"/></svg>