<svg xmlns="http://www.w3.org/2000/svg" width="56" height="56" viewBox="0 0 56 56"><path d="M13.785 49.574h28.453c4.899 0 7.336-2.437 7.336-7.265V13.69c0-4.828-2.437-7.265-7.336-7.265H13.785c-4.875 0-7.36 2.414-7.36 7.265v28.62c0 4.851 2.485 7.265 7.36 7.265Zm14.813-8.414c-.563 0-.985-.187-1.5-.703l-8.649-8.648a1.88 1.88 0 0 1-.516-1.313c0-1.055.797-1.898 1.852-1.898.54 0 1.055.258 1.36.562l3.163 3.211 2.555 3.047-.187-5.39v-13.29c0-1.125.797-1.898 1.922-1.898s1.922.773 1.922 1.898v13.29l-.212 5.437 2.602-3.094 3.14-3.21a1.9 1.9 0 0 1 1.36-.563c1.055 0 1.875.843 1.875 1.898 0 .516-.234.961-.539 1.313l-8.625 8.648c-.492.492-.96.703-1.523.703Z"/></svg>