<svg xmlns="http://www.w3.org/2000/svg" width="56" height="56" viewBox="0 0 56 56"><path d="M28 51.906c13.055 0 23.906-10.828 23.906-23.906 0-13.055-10.875-23.906-23.93-23.906C14.899 4.094 4.095 14.945 4.095 28c0 13.078 10.828 23.906 23.906 23.906Zm0-3.984c-11.063 0-19.9-8.86-19.9-19.922 0-11.04 8.813-19.922 19.876-19.922 11.039 0 19.921 8.883 19.945 19.922.023 11.063-8.883 19.922-19.922 19.922Zm-3.188-7.828c5.625 0 9.047-4.055 9.047-9.54V23.57l-.093-2.789 1.476 1.852 2.344 2.437c.281.305.726.516 1.219.516.96 0 1.687-.727 1.687-1.688 0-.492-.14-.867-.515-1.195l-6.305-6.234c-.399-.375-.89-.61-1.453-.61-.54 0-1.008.235-1.407.61l-6.375 6.258c-.351.328-.492.703-.492 1.195 0 .937.727 1.664 1.688 1.664.445 0 .914-.164 1.218-.492l2.813-2.953 1.031-1.36-.117 2.79v6.984c0 3.445-1.969 6.093-5.578 6.093-3.703 0-5.977-2.578-5.977-6.117v-3.258c0-.984-.586-1.78-1.687-1.78-1.078 0-1.664.796-1.664 1.827v3.211c0 5.485 3.492 9.563 9.14 9.563Z"/></svg>