<svg xmlns="http://www.w3.org/2000/svg" width="56" height="56" viewBox="0 0 56 56"><path d="M27.988 50.137c1.22 0 2.11-.844 2.11-2.063V17.207l-.188-4.992 7.008 7.687 5.344 5.25c.375.375.937.563 1.476.563 1.172 0 2.04-.89 2.04-2.04 0-.562-.212-1.054-.657-1.523L29.56 6.566c-.446-.468-.985-.703-1.57-.703-.563 0-1.102.235-1.548.703L10.88 22.152c-.445.47-.656.961-.656 1.524 0 1.148.867 2.039 2.015 2.039.563 0 1.125-.188 1.5-.563l5.32-5.25 7.032-7.71-.188 5.015v30.867c0 1.219.867 2.063 2.086 2.063Z"/></svg>