<svg xmlns="http://www.w3.org/2000/svg" width="56" height="56" viewBox="0 0 56 56"><path d="M28 51.906c13.055 0 23.906-10.828 23.906-23.906 0-13.055-10.875-23.906-23.93-23.906C14.899 4.094 4.095 14.945 4.095 28c0 13.078 10.828 23.906 23.906 23.906Zm0-3.984c-11.063 0-19.9-8.86-19.9-19.922 0-11.04 8.813-19.922 19.876-19.922 11.039 0 19.921 8.883 19.945 19.922.023 11.063-8.883 19.922-19.922 19.922Zm.023-34.875c-.539 0-.937.234-1.383.68l-7.945 7.921a1.7 1.7 0 0 0-.492 1.22c0 .96.774 1.687 1.711 1.687.516 0 .937-.188 1.266-.54l2.882-2.93 2.391-2.835-.187 4.969v9.586l.187 4.968-2.39-2.836-2.883-2.93a1.66 1.66 0 0 0-1.266-.538c-.937 0-1.711.726-1.711 1.687 0 .492.188.914.492 1.219l7.945 7.922c.446.445.844.68 1.383.68.492 0 .867-.211 1.36-.68l7.945-7.922c.305-.305.469-.727.469-1.219 0-.96-.727-1.687-1.688-1.687-.515 0-.937.21-1.242.539l-2.93 2.93-2.343 2.812.187-4.945v-9.586l-.187-4.946 2.343 2.813 2.93 2.93a1.66 1.66 0 0 0 1.242.539c.961 0 1.688-.727 1.688-1.688 0-.492-.164-.914-.469-1.219l-7.945-7.921c-.492-.47-.867-.68-1.36-.68Z"/></svg>