<svg xmlns="http://www.w3.org/2000/svg" width="56" height="56" viewBox="0 0 56 56"><path d="M13.785 49.574h28.453c4.899 0 7.336-2.437 7.336-7.265V13.69c0-4.828-2.437-7.265-7.336-7.265H13.785c-4.875 0-7.36 2.414-7.36 7.265v28.62c0 4.851 2.485 7.265 7.36 7.265Zm.07-3.773c-2.343 0-3.656-1.242-3.656-3.68V13.88c0-2.438 1.313-3.68 3.656-3.68h28.313c2.32 0 3.633 1.242 3.633 3.68v28.24c0 2.438-1.313 3.68-3.633 3.68Zm2.086-17.86c0 .54.235.938.68 1.383l7.922 7.922c.305.305.727.492 1.219.492.96 0 1.687-.75 1.687-1.71 0-.516-.187-.938-.516-1.243l-2.93-2.883-2.835-2.39 4.945.187h12.235c1.007 0 1.757-.75 1.757-1.758 0-1.03-.75-1.757-1.757-1.757H26.113l-4.945.187 2.836-2.367 2.93-2.906c.304-.328.515-.75.515-1.266 0-.937-.726-1.687-1.687-1.687-.492 0-.914.164-1.22.468l-7.921 7.969c-.469.469-.68.867-.68 1.36Z"/></svg>