<svg xmlns="http://www.w3.org/2000/svg" width="56" height="56" viewBox="0 0 56 56"><path d="M13.785 49.574h28.453c4.899 0 7.336-2.437 7.336-7.265V13.69c0-4.828-2.437-7.265-7.336-7.265H13.785c-4.875 0-7.36 2.414-7.36 7.265v28.62c0 4.851 2.485 7.265 7.36 7.265Zm.07-3.773c-2.343 0-3.656-1.242-3.656-3.68V13.88c0-2.438 1.313-3.68 3.656-3.68h28.313c2.32 0 3.633 1.242 3.633 3.68v28.24c0 2.438-1.313 3.68-3.633 3.68Zm25.196-25.125c0-.938-.657-1.594-1.57-1.594H25.34l-3.586.164 2.601-2.18 1.828-1.593c.305-.258.47-.657.47-1.125 0-.868-.68-1.524-1.548-1.524-.445 0-.82.14-1.101.422l-6.399 6.094c-.445.422-.609.867-.609 1.336s.188.984.61 1.383l6.398 6.046a1.52 1.52 0 0 0 1.101.446 1.53 1.53 0 0 0 1.547-1.547c0-.469-.164-.89-.469-1.149l-1.828-1.546-2.625-2.204 3.61.165h12.14c.914 0 1.57-.68 1.57-1.594Zm0 14.344c0-.446-.164-.891-.61-1.313l-6.398-6.117c-.281-.281-.656-.399-1.102-.399-.867 0-1.547.657-1.547 1.524 0 .469.165.867.47 1.125l1.827 1.594 2.602 2.156-3.586-.14h-12.14c-.915 0-1.571.655-1.571 1.57 0 .937.656 1.593 1.57 1.593h12.141l3.633-.14-2.649 2.203-1.828 1.547c-.305.234-.469.68-.469 1.125 0 .867.68 1.547 1.547 1.547.446 0 .82-.141 1.102-.422l6.398-6.07c.422-.4.61-.891.61-1.383Z"/></svg>