<svg xmlns="http://www.w3.org/2000/svg" width="56" height="56" viewBox="0 0 56 56"><path d="M13.785 49.574h28.453c4.899 0 7.336-2.437 7.336-7.265V13.69c0-4.828-2.437-7.265-7.336-7.265H13.785c-4.875 0-7.36 2.414-7.36 7.265v28.62c0 4.851 2.485 7.265 7.36 7.265Zm.07-3.773c-2.343 0-3.656-1.242-3.656-3.68V13.88c0-2.438 1.313-3.68 3.656-3.68h28.313c2.32 0 3.633 1.242 3.633 3.68v28.24c0 2.438-1.313 3.68-3.633 3.68Zm14.157-5.719c.515 0 .937-.21 1.382-.68l7.946-7.898a1.76 1.76 0 0 0 .468-1.219c0-.96-.75-1.687-1.71-1.687-.516 0-.938.164-1.243.515l-2.882 2.93-2.391 2.836.188-4.969V17.7c0-1.032-.75-1.759-1.758-1.759s-1.758.727-1.758 1.758V29.91l.187 4.945-2.367-2.812-2.906-2.93c-.305-.328-.727-.515-1.242-.515-.961 0-1.688.726-1.688 1.687 0 .469.14.89.445 1.219l7.97 7.898c.468.492.843.68 1.359.68Z"/></svg>