<svg xmlns="http://www.w3.org/2000/svg" width="56" height="56" viewBox="0 0 56 56"><path d="M28 51.906c13.055 0 23.906-10.851 23.906-23.906 0-13.078-10.875-23.906-23.93-23.906C14.899 4.094 4.095 14.922 4.095 28c0 13.055 10.828 23.906 23.906 23.906Zm-10.523-15.82c-1.22 0-1.922-.61-1.922-1.547 0-1.336 1.335-2.484 2.484-3.68.867-.96 1.078-2.859 1.172-4.406.117-5.039 1.476-8.508 4.969-9.773.515-1.711 1.898-3.07 3.82-3.07s3.281 1.359 3.82 3.07c3.469 1.265 4.852 4.734 4.946 9.773.093 1.547.28 3.445 1.195 4.406 1.148 1.172 2.484 2.344 2.484 3.68 0 .938-.726 1.547-1.922 1.547ZM28 41.5c-2.25 0-3.867-1.594-4.031-3.516h8.062C31.867 39.906 30.227 41.5 28 41.5Z"/></svg>