<svg xmlns="http://www.w3.org/2000/svg" width="56" height="56" viewBox="0 0 56 56"><path d="m16.867 10.574 31.57 31.547c.399-.445.61-1.055.61-1.71 0-2.345-2.367-4.454-4.406-6.54-1.547-1.617-1.97-4.945-2.157-7.64-.164-9-2.554-15.211-8.789-17.461-.867-3.047-3.304-5.485-6.75-5.485-3.468 0-5.882 2.438-6.773 5.485a10.7 10.7 0 0 0-3.305 1.804ZM47.922 50.7a1.81 1.81 0 0 0 2.555 0c.703-.68.703-1.851 0-2.554L9.25 6.965a1.84 1.84 0 0 0-2.578 0c-.68.68-.68 1.851 0 2.555ZM8.359 43.246h28.243L12.18 18.801c-.492 2.18-.75 4.664-.797 7.43-.188 2.695-.61 6.023-2.156 7.64-2.016 2.086-4.407 4.195-4.407 6.54 0 1.687 1.336 2.835 3.54 2.835Zm18.586 9.469c3.961 0 6.844-2.86 7.149-6.281H19.797c.281 3.422 3.164 6.28 7.148 6.28Z"/></svg>