<svg xmlns="http://www.w3.org/2000/svg" width="56" height="56" viewBox="0 0 56 56"><path d="M4.106 17.09h47.788c2.649 0 3.985-1.57 3.985-4.195V10.62c0-2.625-1.336-4.195-3.985-4.195H4.106C1.598 6.426.12 7.996.12 10.62v2.274c0 2.625 1.336 4.195 3.985 4.195Zm11.601 32.484h24.586c4.617 0 6.469-2.437 7.148-6.984l3.352-22.313H5.231L8.558 42.59c.703 4.57 2.53 6.984 7.148 6.984Zm5.555-7.242c-1.055 0-1.875-.867-1.875-1.898 0-.516.21-.938.562-1.29l5.39-5.437-5.39-5.46a1.73 1.73 0 0 1-.562-1.29c0-1.008.843-1.828 1.875-1.828.492 0 .914.21 1.265.539l5.461 5.438 5.485-5.462c.398-.351.797-.562 1.265-.562 1.055 0 1.899.82 1.899 1.875 0 .492-.211.89-.586 1.266l-5.414 5.484 5.39 5.414c.352.375.586.773.586 1.313 0 1.03-.843 1.898-1.875 1.898-.539 0-.96-.258-1.312-.586l-5.438-5.414-5.437 5.414c-.328.352-.797.586-1.29.586Z"/></svg>