<svg xmlns="http://www.w3.org/2000/svg" width="56" height="56" viewBox="0 0 56 56"><path d="m22.797 16.398 2.625 2.625 5.226-6.914-3.75 8.391 5.72 5.742h6.023l-2.602 3.399 2.742 2.742 5.11-6.563c.398-.492.633-.96.633-1.5 0-.89-.704-1.57-1.688-1.57H29.57l7.008-18.234c.914-2.414-1.64-3.727-3.187-1.711ZM9.016 11.594l35.39 35.367c.703.703 1.875.703 2.555 0 .703-.68.703-1.828 0-2.555L11.594 9.04a1.84 1.84 0 0 0-2.578 0c-.68.703-.68 1.875 0 2.555Zm2.46 20.086c0 .914.704 1.593 1.688 1.593H26.43l-7.008 18.211c-.914 2.414 1.64 3.727 3.187 1.735l10.57-13.594L30.532 37l-5.203 6.89 3.75-8.343-5.789-5.766h-5.953l2.602-3.398-2.743-2.742-5.086 6.539c-.421.515-.632.984-.632 1.5Z"/></svg>