<svg xmlns="http://www.w3.org/2000/svg" width="56" height="56" viewBox="0 0 56 56"><path d="M28 51.906c13.055 0 23.906-10.851 23.906-23.906 0-13.078-10.875-23.906-23.93-23.906C14.899 4.094 4.095 14.922 4.095 28c0 13.055 10.828 23.906 23.906 23.906Zm-6.07-14.812c-2.391 0-4.149.843-4.922 1.547-.305.234-.61.398-1.102.398-.61 0-1.101-.305-1.101-1.148V19.773c.843-1.71 3.539-3.093 6.515-3.093 2.649 0 4.875 1.195 5.719 2.812v19.383c-.117-.023-.75-.398-.961-.516-.68-.422-1.992-1.265-4.148-1.265Zm12.117 0c-2.156 0-3.492.82-4.149 1.265-.234.141-.797.54-.96.563v-19.43c.867-1.617 3.093-2.812 5.695-2.812 2.976 0 5.672 1.383 6.515 3.093v18.118c0 .843-.468 1.148-1.078 1.148-.492 0-.82-.164-1.101-.398-.774-.703-2.555-1.547-4.922-1.547Z"/></svg>