<svg xmlns="http://www.w3.org/2000/svg" width="56" height="56" viewBox="0 0 56 56"><path d="M28 51.906c13.055 0 23.906-10.851 23.906-23.906 0-13.078-10.875-23.906-23.93-23.906C14.899 4.094 4.095 14.922 4.095 28c0 13.055 10.828 23.906 23.906 23.906Zm-8.578-12.351c-2.625 0-3.938-1.29-3.938-3.891V20.312c0-2.601 1.313-3.89 3.938-3.89h17.156c2.625 0 3.938 1.289 3.938 3.89v15.352c0 2.602-1.313 3.89-3.938 3.89Zm-.164-2.133h17.437c1.102 0 1.664-.54 1.664-1.64v-11.86c0-1.172-.633-1.758-1.758-1.758h-17.25c-1.101 0-1.71.586-1.71 1.758v11.86c0 1.1.539 1.64 1.617 1.64Zm6.21-10.547c-.538 0-.703-.164-.703-.68v-.89c0-.54.165-.703.704-.703h.867c.539 0 .703.164.703.703v.89c0 .516-.164.68-.703.68Zm4.196 0c-.563 0-.727-.164-.727-.68v-.89c0-.54.164-.703.727-.703h.867c.54 0 .703.164.703.703v.89c0 .516-.164.68-.703.68Zm4.148 0c-.539 0-.726-.164-.726-.68v-.89c0-.54.187-.703.726-.703h.868c.539 0 .726.164.726.703v.89c0 .516-.187.68-.726.68Zm-12.515 4.102c-.54 0-.703-.165-.703-.68v-.89c0-.54.164-.704.703-.704h.867c.539 0 .726.164.726.703v.89c0 .517-.187.68-.726.68Zm4.172 0c-.54 0-.704-.165-.704-.68v-.89c0-.54.165-.704.704-.704h.867c.539 0 .703.164.703.703v.89c0 .517-.164.68-.703.68Zm4.195 0c-.563 0-.727-.165-.727-.68v-.89c0-.54.164-.704.727-.704h.867c.54 0 .703.164.703.703v.89c0 .517-.164.68-.703.68Zm4.148 0c-.539 0-.726-.165-.726-.68v-.89c0-.54.187-.704.726-.704h.868c.539 0 .726.164.726.703v.89c0 .517-.187.68-.726.68Zm-12.515 4.125c-.54 0-.703-.188-.703-.727v-.867c0-.54.164-.68.703-.68h.867c.539 0 .726.14.726.68v.867c0 .539-.187.727-.726.727Zm4.172 0c-.54 0-.704-.188-.704-.727v-.867c0-.54.165-.68.704-.68h.867c.539 0 .703.14.703.68v.867c0 .539-.164.727-.703.727Zm4.195 0c-.563 0-.727-.188-.727-.727v-.867c0-.54.164-.68.727-.68h.867c.54 0 .703.14.703.68v.867c0 .539-.164.727-.703.727Z"/></svg>