<svg xmlns="http://www.w3.org/2000/svg" width="56" height="56" viewBox="0 0 56 56"><path d="M44.849 49.456h5.95c3.438 0 5.201-1.653 5.201-4.914V13.07c0-3.262-1.763-4.937-5.2-4.937h-5.951c-3.438 0-5.201 1.675-5.201 4.937v31.47c0 3.263 1.762 4.915 5.2 4.915Zm.595-3.328c-1.697 0-2.292-.572-2.292-2.225V13.71c0-1.675.595-2.248 2.292-2.248h4.782c1.675 0 2.27.573 2.27 2.248v30.193c0 1.653-.595 2.226-2.27 2.226Zm-20.43 3.328h5.95c3.438 0 5.224-1.653 5.224-4.914V19.506c0-3.262-1.786-4.937-5.224-4.937h-5.95c-3.438 0-5.18 1.675-5.18 4.937v25.036c0 3.261 1.742 4.914 5.18 4.914Zm.595-3.328c-1.675 0-2.27-.572-2.27-2.225V20.145c0-1.675.595-2.248 2.27-2.248h4.782c1.697 0 2.292.573 2.292 2.248v23.758c0 1.653-.595 2.226-2.292 2.226ZM5.2 49.457h5.95c3.439 0 5.202-1.653 5.202-4.914V25.919c0-3.262-1.763-4.937-5.202-4.937H5.2c-3.437 0-5.2 1.675-5.2 4.938v18.623c0 3.261 1.763 4.914 5.201 4.914Zm.595-3.328c-1.697 0-2.292-.572-2.292-2.225V26.558c0-1.675.595-2.248 2.292-2.248h4.783c1.675 0 2.27.573 2.27 2.248v17.345c0 1.653-.595 2.226-2.27 2.226Z"/></svg>