<svg xmlns="http://www.w3.org/2000/svg" width="56" height="56" viewBox="0 0 56 56"><path d="M42.195 11.706C50.233 14.058 56 20.489 56 28.052c0 5.148-2.674 9.775-6.917 12.945l-.37.263-.587.406-.06.04c-1.49 1.1-.568 3.414.812 5.265l.256.33q.13.163.263.319l.268.304.237.256.178.205c.535.645.483.922-.154.855l-.208-.03a5 5 0 0 1-.379-.083 20 20 0 0 1-3.947-1.432l-.472-.239q-.228-.12-.443-.238l-.415-.235-.392-.232-1.526-.937-.301-.174-.293-.157c-.772-.396-1.48-.593-2.332-.43l-.169.036a24.6 24.6 0 0 1-5.684.179c8.822-3.42 14.944-10.909 14.944-19.597 0-5.242-2.228-10.047-5.934-13.785zM22.601 7c12.482 0 22.602 8.492 22.602 18.964 0 10.475-10.12 18.966-22.602 18.966q-1.695-.002-3.322-.203l-.655-.09c-.905-.215-1.655-.07-2.443.29l-.298.143h0l-.304.163h0l-.312.178h0l-.83.507h0l-.545.336h0l-.588.354h0l-.42.242h0l-.445.246-.233.123-.487.247a22 22 0 0 1-4.675 1.663l-.242.044c-.821.123-.918-.177-.286-.933l.19-.217h0l.109-.117q.135-.144.27-.294l.265-.308h0l.262-.321h0l.253-.332h0l.245-.341h0l.232-.348q.057-.087.111-.176l.211-.355c.981-1.725 1.364-3.538.056-4.5l-.953-.66h0l-.164-.118h0C2.94 36.68 0 31.607 0 25.964 0 15.492 10.117 7 22.601 7Z"/></svg>