<svg xmlns="http://www.w3.org/2000/svg" width="56" height="56" viewBox="0 0 56 56"><path d="M7.715 49.574h40.57c4.899 0 7.36-2.437 7.36-7.265V13.69c0-4.828-2.461-7.265-7.36-7.265H7.715C2.84 6.426.355 8.84.355 13.69v28.62c0 4.851 2.485 7.265 7.36 7.265Zm.07-3.773c-2.344 0-3.656-1.242-3.656-3.68V13.88c0-2.438 1.312-3.68 3.656-3.68h40.43c2.32 0 3.656 1.242 3.656 3.68v28.24c0 2.438-1.336 3.68-3.656 3.68Zm16.008-7.102c.633 0 1.172-.281 1.5-.726l12.703-17.79c.234-.351.398-.773.398-1.148 0-.984-.773-1.805-1.828-1.805-.75 0-1.148.282-1.593.915L23.699 34.012l-5.812-6.446c-.352-.421-.844-.609-1.383-.609-1.125 0-1.899.773-1.899 1.758 0 .492.188.89.493 1.242l7.289 8.11c.328.398.726.632 1.406.632Z"/></svg>