<svg xmlns="http://www.w3.org/2000/svg" width="56" height="56" viewBox="0 0 56 56"><path d="M7.715 49.574h40.57c4.899 0 7.36-2.437 7.36-7.265V13.69c0-4.828-2.461-7.265-7.36-7.265H7.715C2.84 6.426.355 8.84.355 13.69v28.62c0 4.851 2.485 7.265 7.36 7.265Zm17.367-10.031c-.68 0-1.172-.234-1.547-.656l-7.828-8.742c-.305-.375-.516-.844-.516-1.36 0-1.101.82-1.898 2.016-1.898.68 0 1.148.187 1.57.656l6.211 6.89 12.094-17.062c.469-.703.938-.937 1.805-.937 1.148 0 1.945.796 1.945 1.921 0 .399-.14.938-.398 1.266L26.723 38.816c-.329.47-.915.727-1.641.727Z"/></svg>