<svg xmlns="http://www.w3.org/2000/svg" width="56" height="56" viewBox="0 0 56 56"><path d="M25.328 47.723c.399.398.914.633 1.524.633 1.218 0 2.133-.915 2.133-2.133 0-.586-.235-1.125-.61-1.524L11.313 28.012l17.062-16.688c.375-.398.61-.96.61-1.523 0-1.219-.915-2.157-2.133-2.157-.61 0-1.125.235-1.524.633L6.766 26.441c-.446.375-.703.961-.703 1.57 0 .587.257 1.126.703 1.571Zm20.93 0c.422.398.937.633 1.523.633 1.219 0 2.156-.915 2.156-2.133 0-.586-.234-1.125-.609-1.524L32.266 28.012l17.062-16.688c.375-.398.61-.96.61-1.523a2.12 2.12 0 0 0-2.157-2.157 2.1 2.1 0 0 0-1.5.633L27.695 26.441c-.445.375-.68.961-.68 1.57 0 .587.235 1.126.68 1.571Z"/></svg>