<svg xmlns="http://www.w3.org/2000/svg" width="56" height="56" viewBox="0 0 56 56"><path d="M28 51.906c13.055 0 23.906-10.828 23.906-23.906 0-13.055-10.875-23.906-23.93-23.906C14.899 4.094 4.095 14.945 4.095 28c0 13.078 10.828 23.906 23.906 23.906Zm0-3.984c-11.063 0-19.9-8.86-19.9-19.922 0-11.04 8.813-19.922 19.876-19.922 11.039 0 19.921 8.883 19.945 19.922.023 11.063-8.883 19.922-19.922 19.922Zm2.32-13.078 9.188-9.774c.703-.726.726-1.828.07-2.46-.703-.75-1.852-.774-2.508-.047L28 32.172l-9.07-9.61c-.68-.726-1.829-.703-2.532.047-.656.633-.609 1.735.07 2.461l9.212 9.774c1.453 1.547 3.164 1.547 4.64 0Z"/></svg>