<svg xmlns="http://www.w3.org/2000/svg" width="56" height="56" viewBox="0 0 56 56"><path d="M12.262 36.098h29.086c7.43 0 13.172-5.625 13.172-12.82 0-7.29-6-12.75-13.946-12.68-3-6.047-8.507-9.54-15-9.54-8.648 0-15.937 6.82-16.617 15.563-4.547 1.242-7.477 5.063-7.477 9.68 0 5.812 4.36 9.797 10.782 9.797Zm19.265 11.226 3.047-5.273c.422-.727.188-1.547-.515-1.946-.703-.421-1.5-.187-1.922.54l-3.094 5.32c-.375.68-.187 1.5.54 1.922a1.43 1.43 0 0 0 1.944-.563Zm5.438 6.703 6.914-12c.422-.703.21-1.5-.469-1.922-.656-.398-1.5-.187-1.945.516l-6.867 11.953c-.399.727-.211 1.547.492 1.969.68.375 1.476.164 1.875-.516Zm-24.094-6.68 3.047-5.273c.422-.726.211-1.547-.492-1.945-.727-.422-1.524-.188-1.946.539l-3.07 5.32c-.398.68-.187 1.5.516 1.899a1.403 1.403 0 0 0 1.945-.54Zm5.438 6.704 6.937-12c.399-.703.188-1.5-.469-1.922a1.4 1.4 0 0 0-1.945.516l-6.89 11.953c-.399.726-.188 1.547.515 1.968.68.375 1.477.164 1.852-.515Z"/></svg>