<svg xmlns="http://www.w3.org/2000/svg" width="56" height="56" viewBox="0 0 56 56"><path d="M12.262 36.25h29.086c7.687 0 13.406-5.836 13.406-13.078 0-7.453-6.094-12.914-14.04-12.914-2.929-5.79-8.366-9.516-15.14-9.516-8.812 0-16.078 6.89-16.851 15.61-4.243 1.218-7.477 4.921-7.477 9.867 0 5.531 4.031 10.031 11.016 10.031Zm-.047-3.773c-4.805 0-7.219-2.672-7.219-6.141 0-2.836 1.64-5.367 5.625-6.422 1.29-.328 1.758-.937 1.875-2.273.54-7.641 6.281-13.149 13.078-13.149 5.274 0 9.422 2.883 11.953 8.086.54 1.125 1.242 1.524 2.625 1.524 6.938 0 10.852 4.195 10.852 9.187 0 5.11-4.078 9.188-9.422 9.188Zm2.836 12.21 1.57-2.789c.399-.68.211-1.523-.492-1.945-.727-.398-1.547-.14-1.945.54l-1.594 2.812c-.375.68-.211 1.5.515 1.922.704.375 1.547.14 1.946-.54Zm10.219 3.586 3.656-6.328c.398-.726.187-1.547-.492-1.968-.727-.399-1.547-.164-1.946.539l-3.68 6.398c-.398.656-.187 1.477.54 1.898.68.399 1.523.141 1.922-.539Zm14.343-3.492 1.57-2.789c.399-.68.212-1.523-.492-1.945-.726-.399-1.547-.164-1.945.539l-1.594 2.812c-.375.68-.21 1.5.516 1.922.703.375 1.547.14 1.945-.539Zm-28.71 6.867c1.382 0 2.53-1.148 2.53-2.554 0-1.36-1.148-2.532-2.53-2.532-1.407 0-2.555 1.172-2.555 2.532a2.56 2.56 0 0 0 2.554 2.554Zm24.562.094c1.36 0 2.531-1.148 2.531-2.554 0-1.36-1.148-2.532-2.531-2.532-1.406 0-2.555 1.172-2.555 2.532a2.56 2.56 0 0 0 2.555 2.554ZM21.12 55.258c1.383 0 2.531-1.172 2.531-2.578 0-1.36-1.148-2.532-2.53-2.532-1.384 0-2.556 1.172-2.556 2.532 0 1.406 1.172 2.578 2.555 2.578Z"/></svg>