<svg xmlns="http://www.w3.org/2000/svg" width="56" height="56" viewBox="0 0 56 56"><path d="M45.392 35.86C52.038 34.69 56 29.278 56 25.785c0-.83-.383-1.427-1.065-1.427-1.022 0-2.577 1.363-5.517 1.363-5.197 0-8.499-3.153-8.499-7.903 0-2.833 1.513-4.878 1.513-6.007 0-.66-.448-1.107-1.3-1.086-3.94.17-8.925 4.58-10.054 10.246.66.617 1.3 1.448 1.81 2.556 7.18.554 12.377 5.964 12.504 12.333ZM8.84 46.766h23.048c6.028 0 10.714-4.58 10.714-10.48 0-5.858-4.771-10.288-11.14-10.33-2.493-4.75-6.923-7.52-12.078-7.52-6.923 0-12.802 5.368-13.441 12.376C2.322 31.898 0 34.965 0 38.714c0 4.772 3.6 8.052 8.84 8.052Z"/></svg>