<svg xmlns="http://www.w3.org/2000/svg" width="56" height="56" viewBox="0 0 56 56"><path d="M28.012 10.305c1.523 0 2.742-1.242 2.742-2.766a2.746 2.746 0 0 0-2.742-2.742 2.75 2.75 0 0 0-2.766 2.742 2.756 2.756 0 0 0 2.766 2.766Zm16.969 7.054a2.73 2.73 0 0 0 2.742-2.742 2.716 2.716 0 0 0-2.742-2.742 2.73 2.73 0 0 0-2.743 2.742 2.746 2.746 0 0 0 2.742 2.742Zm-33.985.047a2.746 2.746 0 0 0 2.742-2.742 2.73 2.73 0 0 0-2.742-2.742 2.716 2.716 0 0 0-2.742 2.742 2.73 2.73 0 0 0 2.742 2.742Zm17.016 30.282c8.883 0 16.125-7.196 16.125-16.149 0-8.93-7.242-16.125-16.125-16.125-8.907 0-16.149 7.195-16.149 16.125 0 8.953 7.243 16.148 16.149 16.148Zm0-28.711c6.914 0 12.562 5.625 12.562 12.562 0 6.938-5.648 12.563-12.562 12.563a12.56 12.56 0 0 1-7.828-2.743l9.023-9.023c.656-.656.656-1.64 0-2.344-.586-.61-1.687-.61-2.297 0l-9 9.024a12.35 12.35 0 0 1-2.484-7.477c0-6.937 5.648-12.562 12.586-12.562ZM51.988 34.28a2.73 2.73 0 0 0 2.742-2.742 2.716 2.716 0 0 0-2.742-2.742 2.73 2.73 0 0 0-2.742 2.742 2.746 2.746 0 0 0 2.742 2.742Zm-47.976 0a2.746 2.746 0 0 0 2.742-2.742 2.73 2.73 0 0 0-2.742-2.742 2.716 2.716 0 0 0-2.742 2.742 2.73 2.73 0 0 0 2.742 2.742Zm6.984 16.899a2.73 2.73 0 0 0 2.742-2.742 2.746 2.746 0 0 0-2.742-2.743 2.73 2.73 0 0 0-2.742 2.742 2.716 2.716 0 0 0 2.742 2.743Zm33.961.023a2.716 2.716 0 0 0 2.742-2.742 2.73 2.73 0 0 0-2.742-2.742 2.746 2.746 0 0 0-2.742 2.742 2.73 2.73 0 0 0 2.742 2.742Z"/></svg>