<svg xmlns="http://www.w3.org/2000/svg" width="56" height="56" viewBox="0 0 56 56"><path d="M25.246 7.539a2.756 2.756 0 0 0 2.766 2.766c1.523 0 2.742-1.242 2.742-2.766a2.746 2.746 0 0 0-2.742-2.742 2.75 2.75 0 0 0-2.766 2.742Zm16.992 7.078a2.746 2.746 0 0 0 2.742 2.742 2.73 2.73 0 0 0 2.743-2.742 2.716 2.716 0 0 0-2.742-2.742 2.73 2.73 0 0 0-2.743 2.742Zm-33.984.047a2.73 2.73 0 0 0 2.742 2.742 2.746 2.746 0 0 0 2.742-2.742 2.73 2.73 0 0 0-2.742-2.742 2.716 2.716 0 0 0-2.742 2.742Zm3.61 16.875c0 3.797 1.312 7.266 3.491 10.031L26.91 29.992c.61-.61 1.711-.61 2.297 0 .656.703.656 1.688 0 2.344L17.652 43.914a16.05 16.05 0 0 0 10.36 3.773c8.883 0 16.125-7.195 16.125-16.148 0-8.93-7.242-16.125-16.125-16.125-8.907 0-16.149 7.195-16.149 16.125Zm-10.594 0a2.73 2.73 0 0 0 2.742 2.742 2.746 2.746 0 0 0 2.742-2.742 2.73 2.73 0 0 0-2.742-2.742 2.716 2.716 0 0 0-2.742 2.742Zm47.976 0a2.746 2.746 0 0 0 2.742 2.742 2.73 2.73 0 0 0 2.742-2.742 2.716 2.716 0 0 0-2.742-2.742 2.73 2.73 0 0 0-2.742 2.742ZM8.254 48.438a2.716 2.716 0 0 0 2.742 2.742 2.73 2.73 0 0 0 2.742-2.742 2.746 2.746 0 0 0-2.742-2.743 2.73 2.73 0 0 0-2.742 2.742Zm33.96.023a2.73 2.73 0 0 0 2.743 2.742 2.716 2.716 0 0 0 2.742-2.742 2.73 2.73 0 0 0-2.742-2.742 2.746 2.746 0 0 0-2.742 2.742Z"/></svg>