<svg xmlns="http://www.w3.org/2000/svg" width="56" height="56" viewBox="0 0 56 56"><path d="M13.785 49.574h28.453c4.899 0 7.336-2.437 7.336-7.265V13.69c0-4.828-2.437-7.265-7.336-7.265H13.785c-4.875 0-7.36 2.414-7.36 7.265v28.62c0 4.851 2.485 7.265 7.36 7.265Zm14.18-27.726c-1.64 0-2.93-1.172-2.93-2.72 0-1.71 1.29-2.952 2.93-2.952 1.781 0 3.023 1.219 3.023 2.953 0 1.523-1.265 2.719-3.023 2.719Zm-9.516 8.203c-1.406 0-2.344-.703-2.344-2.04 0-1.335.891-2.085 2.344-2.085h19.172c1.406 0 2.297.75 2.297 2.086s-.938 2.039-2.297 2.039Zm9.516 9.75c-1.64 0-2.93-1.196-2.93-2.719 0-1.758 1.29-2.953 2.93-2.953 1.781 0 3.023 1.195 3.023 2.953 0 1.523-1.265 2.719-3.023 2.719Z"/></svg>