<svg xmlns="http://www.w3.org/2000/svg" width="56" height="56" viewBox="0 0 56 56"><path d="M28 51.906c13.055 0 23.906-10.828 23.906-23.906 0-13.055-10.875-23.906-23.93-23.906C14.899 4.094 4.095 14.945 4.095 28c0 13.078 10.828 23.906 23.906 23.906Zm0-3.984c-11.063 0-19.9-8.86-19.9-19.922 0-11.04 8.813-19.922 19.876-19.922 11.039 0 19.921 8.883 19.945 19.922.023 11.063-8.883 19.922-19.922 19.922Zm-6.75-6.844h13.43c2.601 0 3.89-1.336 3.89-3.96V25.843h-9.28c-1.617 0-2.39-.75-2.39-2.367V14.03h-5.65c-2.577 0-3.89 1.336-3.89 3.961v19.125c0 2.649 1.313 3.961 3.89 3.961Zm8.227-17.133h8.953c-.07-.515-.446-1.03-1.055-1.64l-6.938-7.078c-.586-.61-1.125-.985-1.64-1.055v9.094c0 .445.234.68.68.68Z"/></svg>