<svg xmlns="http://www.w3.org/2000/svg" width="56" height="56" viewBox="0 0 56 56"><path d="M28 51.906c13.055 0 23.906-10.828 23.906-23.906 0-13.055-10.875-23.906-23.93-23.906C14.899 4.094 4.095 14.945 4.095 28c0 13.078 10.828 23.906 23.906 23.906Zm-6.75-10.828c-2.578 0-3.89-1.312-3.89-3.96V17.991c0-2.625 1.312-3.96 3.89-3.96h5.648v9.445c0 1.617.774 2.367 2.391 2.367h9.281v11.273c0 2.625-1.289 3.961-3.89 3.961Zm8.227-17.133c-.446 0-.68-.234-.68-.68v-9.093c.515.07 1.054.445 1.64 1.055l6.938 7.078c.61.61.984 1.125 1.055 1.64Z"/></svg>