<svg xmlns="http://www.w3.org/2000/svg" width="56" height="56" viewBox="0 0 56 56"><path d="M26.336 2.88v17.203c0 3 1.406 4.43 4.406 4.43h16.969v21.281c0 4.875-2.414 7.336-7.266 7.336h0-24.89c-4.828 0-7.266-2.437-7.266-7.336h0V10.239c0-4.875 2.438-7.359 7.266-7.359zm-8.21 30.055h-1.563c-.863 0-1.563.7-1.563 1.563h0v10.94C15 46.3 15.7 47 16.563 47h1.563c.863 0 1.562-.7 1.562-1.563h0v-10.94c0-.862-.7-1.562-1.562-1.562zm7.032-4.688h-1.563c-.863 0-1.562.7-1.562 1.562h0v15.628c0 .863.7 1.563 1.562 1.563h1.563c.863 0 1.563-.7 1.563-1.563h0V29.81c0-.863-.7-1.562-1.563-1.562zm7.033 9.376h-1.563c-.863 0-1.563.7-1.563 1.563h0v6.251c0 .863.7 1.563 1.563 1.563h1.563c.863 0 1.562-.7 1.562-1.563h0v-6.25c0-.864-.7-1.564-1.562-1.564zM29.523 3.138c.985.164 1.97.844 3.047 1.969h0l12.938 13.148c1.101 1.148 1.781 2.086 1.945 3.047h0-16.64c-.844 0-1.29-.422-1.29-1.266h0Z"/></svg>