<svg xmlns="http://www.w3.org/2000/svg" width="56" height="56" viewBox="0 0 56 56"><path d="M15.555 53.125h24.89c4.852 0 7.266-2.461 7.266-7.336V24.508c0-3.024-.328-4.336-2.203-6.258L32.57 5.102c-1.78-1.829-3.234-2.227-5.882-2.227H15.555c-4.828 0-7.266 2.484-7.266 7.36v35.554c0 4.898 2.438 7.336 7.266 7.336Zm.187-3.773c-2.414 0-3.68-1.29-3.68-3.633V10.305c0-2.32 1.266-3.657 3.704-3.657h10.406v13.618c0 2.953 1.5 4.406 4.406 4.406h13.36v21.047c0 2.343-1.243 3.633-3.68 3.633ZM31 21.132c-.914 0-1.29-.374-1.29-1.312V7.375l13.5 13.758Z"/></svg>