<svg xmlns="http://www.w3.org/2000/svg" width="56" height="56" viewBox="0 0 56 56"><path d="m29.622 4.22.854 1.193.418.59.818 1.166.4.577.78 1.14h0l.757 1.124h0l.732 1.106h0l.708 1.09.344.538.671 1.063h0l.647 1.046h0l.623 1.028h0l.597 1.012a98 98 0 0 1 1.648 2.93l.5.943.241.465.464.917Q45 30.548 45 36c0 9.389-7.611 17-17 17s-17-7.611-17-17q0-5.452 4.176-13.852l.464-.917.24-.465.501-.942a98 98 0 0 1 1.648-2.931l.597-1.012h0l.623-1.028h0l.647-1.046h0l.67-1.063.345-.539.708-1.089h0l.732-1.106h0l.757-1.123h0l.78-1.14h0l.806-1.159.412-.585.842-1.184.43-.598a2 2 0 0 1 3.244 0ZM28 8.842l-.79 1.137h0l-.766 1.118h0l-.741 1.1-.361.543-.703 1.072h0l-.679 1.053h0l-.653 1.035-.318.51-.616 1.007-.298.497-.58.978h0l-.553.96q-.407.711-.785 1.403l-.492.911h0l-.467.893q-.228.441-.443.873l-.417.853h0l-.393.835q-.38.824-.712 1.61l-.32.774C15.637 31.193 15 33.866 15 36c0 7.18 5.82 13 13 13s13-5.82 13-13c0-2.134-.636-4.807-1.914-7.997l-.319-.775q-.33-.785-.712-1.61l-.393-.834h0l-.417-.853q-.215-.432-.443-.873l-.467-.893h0l-.492-.911q-.378-.69-.785-1.404l-.554-.959h0l-.579-.978h0l-.603-.998q-.309-.503-.629-1.016l-.653-1.035h0l-.679-1.053h0l-.703-1.072-.36-.543-.742-1.1h0l-.765-1.118L28 8.84Zm10.471 26.25q.006.098-.003.194-.48 5.111-3.276 7.907-2.679 2.68-7.485 3.232l-.422.044a1.255 1.255 0 0 1-1.37-1.326 1.337 1.337 0 0 1 1.394-1.255q3.38.15 6.055-2.523 2.553-2.552 2.531-5.75l-.008-.305a1.337 1.337 0 0 1 1.255-1.395 1.255 1.255 0 0 1 1.33 1.177Z"/></svg>