<svg xmlns="http://www.w3.org/2000/svg" width="56" height="56" viewBox="0 0 56 56"><path d="M28 51.906c13.055 0 23.906-10.828 23.906-23.906 0-13.055-10.875-23.906-23.93-23.906C14.899 4.094 4.095 14.945 4.095 28c0 13.078 10.828 23.906 23.906 23.906Zm0-3.984c-11.063 0-19.9-8.86-19.9-19.922 0-11.04 8.813-19.922 19.876-19.922 11.039 0 19.921 8.883 19.945 19.922.023 11.063-8.883 19.922-19.922 19.922Zm-7.735-19.899c0-1.71-1.453-3.164-3.164-3.164-1.734 0-3.164 1.453-3.164 3.164s1.454 3.165 3.164 3.165 3.165-1.454 3.165-3.165Zm10.875 0c0-1.71-1.476-3.164-3.163-3.164-1.735 0-3.165 1.453-3.165 3.164s1.477 3.165 3.165 3.165 3.163-1.454 3.163-3.165Zm10.876 0c0-1.71-1.454-3.164-3.165-3.164-1.734 0-3.187 1.453-3.187 3.164s1.477 3.165 3.187 3.165c1.711 0 3.165-1.454 3.165-3.165Z"/></svg>