<svg xmlns="http://www.w3.org/2000/svg" width="56" height="56" viewBox="0 0 56 56"><path d="M9.484 54.848h37.032c4.898 0 7.36-2.438 7.36-7.266v-23.32c0-3.375-.704-4.875-2.93-6.633L32.851 3.379C31.14 2.019 29.734 1.152 28 1.152c-1.711 0-3.14.867-4.828 2.227L5.078 17.629c-2.226 1.758-2.953 3.258-2.953 6.633v23.32c0 4.852 2.484 7.266 7.36 7.266ZM32.922 32.37c-1.64-1.64-3.235-2.297-4.875-2.297-1.664 0-3.235.656-4.875 2.297l-1.524 1.5L7.61 19.996l17.578-13.71c1.149-.891 1.805-1.384 2.813-1.384 1.031 0 1.664.492 2.812 1.383l17.626 13.758-13.993 13.828ZM5.71 47.582V23.629c0-.235.023-.445.023-.633l13.453 13.29-13.195 12.96c-.187-.469-.281-1.031-.281-1.664Zm44.578-23.953v23.953c0 .61-.07 1.148-.234 1.617L36.906 36.285l13.36-13.219c.023.165.023.352.023.563ZM9.367 51.262c-.164 0-.328 0-.492-.024L25.21 35.137c1.008-1.008 1.898-1.453 2.836-1.453s1.828.445 2.836 1.453l16.335 16.101c-.187.024-.374.024-.562.024Z"/></svg>