<svg xmlns="http://www.w3.org/2000/svg" width="56" height="56" viewBox="0 0 56 56"><path d="M16.094 52.316c.937 0 1.594-.468 2.695-1.5l8.484-7.734 15.82.023c6.985.024 10.735-3.867 10.735-10.734V14.418c0-6.867-3.75-10.734-10.734-10.734H12.906c-6.96 0-10.734 3.843-10.734 10.734v17.953c0 6.89 3.773 10.734 10.734 10.711h1.102v6.82c0 1.453.773 2.414 2.086 2.414Zm12.07-24.89c-1.219 0-1.922-.727-1.969-1.969l-.304-11.578c-.047-1.29.914-2.203 2.25-2.203 1.312 0 2.343.937 2.297 2.226l-.352 11.555c-.047 1.266-.726 1.969-1.922 1.969Zm0 8.625c-1.336 0-2.625-1.078-2.625-2.532s1.266-2.53 2.625-2.53c1.383 0 2.625 1.054 2.625 2.53 0 1.477-1.266 2.532-2.625 2.532Z"/></svg>