<svg xmlns="http://www.w3.org/2000/svg" width="56" height="56" viewBox="0 0 56 56"><path d="m30.961 28 11.88 11.88v-5.526a2.08 2.08 0 1 1 4.159 0v10.398l-.001.074a2.07 2.07 0 0 1-.608 1.544 2.07 2.07 0 0 1-1.3.602q-.165.028-.339.028H34.354a2.08 2.08 0 1 1 0-4.16h5.567l-11.9-11.9-11.9 11.9h5.525a2.08 2.08 0 1 1 0 4.16H11.248l-.074-.001a2.07 2.07 0 0 1-1.544-.608 2.07 2.07 0 0 1-.602-1.3A2 2 0 0 1 9 44.752V34.354a2.08 2.08 0 1 1 4.16 0v5.567L25.08 28 13.16 16.08v5.566a2.08 2.08 0 1 1-4.16 0V11.248q0-.174.028-.34c.038-.473.239-.936.602-1.299a2.07 2.07 0 0 1 1.544-.608L11.248 9h10.398a2.08 2.08 0 1 1 0 4.16H16.12l11.9 11.9 11.9-11.9h-5.567a2.08 2.08 0 1 1 0-4.16h10.398q.174 0 .34.028c.473.038.936.239 1.299.602.425.424.627.987.608 1.544l.001.074v10.398a2.08 2.08 0 1 1-4.16 0V16.12z"/></svg>