<svg xmlns="http://www.w3.org/2000/svg" width="56" height="56" viewBox="0 0 56 56"><path d="M28.01 46.456c16.556 0 27.99-13.38 27.99-17.56 0-4.201-11.454-17.56-27.99-17.56C11.68 11.335 0 24.694 0 28.895c0 4.18 11.659 17.56 28.01 17.56Zm0-3.238c-13.482 0-24.424-11.434-24.424-14.323 0-2.438 10.942-14.322 24.424-14.322 13.442 0 24.404 11.884 24.404 14.322 0 2.89-10.962 14.323-24.404 14.323Zm0-2.848c6.373 0 11.495-5.225 11.495-11.475 0-6.413-5.122-11.474-11.495-11.474-6.413 0-11.556 5.06-11.515 11.474.02 6.25 5.102 11.475 11.515 11.475Zm0-7.663c-2.13 0-3.852-1.722-3.852-3.812 0-2.11 1.721-3.81 3.852-3.81 2.11 0 3.832 1.7 3.832 3.81 0 2.09-1.721 3.812-3.832 3.812Z"/></svg>