<svg xmlns="http://www.w3.org/2000/svg" width="56" height="56" viewBox="0 0 56 56"><path d="M14.523 38.014c6.018 0 10.872-4.894 10.971-10.794A7.4 7.4 0 0 1 28 26.786c.75 0 1.658.118 2.506.434.099 5.96 4.953 10.794 10.971 10.794 5.703 0 10.36-4.322 10.932-9.827h2.348c.888 0 1.243-.533 1.243-1.263v-.75c0-.75-.355-1.263-1.243-1.263H52.27c-1.006-5.012-5.446-8.84-10.794-8.84-5.13 0-9.432 3.532-10.635 8.288-.908-.355-1.974-.474-2.842-.474s-1.934.119-2.841.474c-1.224-4.756-5.525-8.288-10.636-8.288-5.347 0-9.787 3.828-10.794 8.84H1.243c-.908 0-1.243.513-1.243 1.263v.75c0 .73.335 1.263 1.243 1.263h2.348a10.983 10.983 0 0 0 10.932 9.827Zm0-2.96a8.004 8.004 0 0 1-8.011-8.012c0-4.42 3.59-8.01 8.01-8.01 4.401 0 8.012 3.59 8.012 8.01a7.98 7.98 0 0 1-8.011 8.012Zm26.954 0a7.98 7.98 0 0 1-8.011-8.012 7.99 7.99 0 0 1 8.011-8.01c4.42 0 8.012 3.59 8.012 8.01a8.005 8.005 0 0 1-8.012 8.012Z"/></svg>