<svg xmlns="http://www.w3.org/2000/svg" width="56" height="56" viewBox="0 0 56 56"><path d="M28 51.906c13.055 0 23.906-10.828 23.906-23.906 0-13.055-10.875-23.906-23.93-23.906C14.899 4.094 4.095 14.945 4.095 28c0 13.078 10.828 23.906 23.906 23.906Zm0-3.984c-11.063 0-19.9-8.86-19.9-19.922 0-11.04 8.813-19.922 19.876-19.922 11.039 0 19.921 8.883 19.945 19.922.023 11.063-8.883 19.922-19.922 19.922Zm-9.844-8.578c0 1.289 1.36 1.945 3.961 1.945 3.727 0 6.023-2.156 6.61-6.21l.867-6.423h6.234c1.008 0 1.734-.703 1.734-1.664 0-.96-.773-1.664-1.757-1.664h-5.72l.516-3.82c.352-2.461 1.266-3.469 3.094-3.469 1.43 0 1.899.164 2.578.164.938 0 1.57-.633 1.57-1.57 0-1.29-1.406-1.945-3.96-1.945-3.727 0-6.047 2.226-6.61 6.234l-.586 4.406h-5.343c-.985 0-1.711.703-1.711 1.664 0 .938.726 1.664 1.734 1.664h4.852l-.82 5.86c-.352 2.437-1.266 3.445-3.094 3.445-1.43 0-1.828-.188-2.578-.188-.962 0-1.57.657-1.57 1.57Z"/></svg>