<svg xmlns="http://www.w3.org/2000/svg" width="56" height="56" viewBox="0 0 56 56"><path d="M28 51.906c13.055 0 23.906-10.851 23.906-23.906 0-13.078-10.875-23.906-23.93-23.906C14.899 4.094 4.095 14.922 4.095 28c0 13.055 10.828 23.906 23.906 23.906ZM14.85 23.36v-3.047c0-2.25 1.149-3.398 3.141-3.398h3.422c1.101 0 1.64.211 2.437.82l.727.563c.563.469.984.68 1.781.68h11.18c2.367 0 3.586 1.195 3.586 3.515v.867Zm0 11.72v-9.821h26.274v9.82c0 2.32-1.195 3.516-3.234 3.516H18.437c-2.343 0-3.586-1.196-3.586-3.516Z"/></svg>