<svg xmlns="http://www.w3.org/2000/svg" width="56" height="56" viewBox="0 0 56 56"><path d="M8.453 49.75h39.82c4.195 0 6.633-2.437 6.633-7.266v-24.68c0-4.827-2.46-7.241-7.336-7.241H24.766c-1.594 0-2.555-.399-3.727-1.383l-1.43-1.196c-1.547-1.289-2.742-1.734-5.062-1.734H7.562c-4.101 0-6.468 2.344-6.468 7.078v29.156c0 4.852 2.484 7.266 7.359 7.266ZM4.867 13.516c0-2.32 1.242-3.492 3.469-3.492h5.25c1.547 0 2.484.374 3.68 1.406l1.43 1.172c1.523 1.265 2.765 1.734 5.085 1.734H47.5c2.32 0 3.633 1.242 3.633 3.68v1.406H4.867Zm3.656 32.46c-2.343 0-3.656-1.242-3.656-3.68V22.962h46.266v19.36c0 2.413-1.313 3.656-3.633 3.656Z"/></svg>