<svg xmlns="http://www.w3.org/2000/svg" width="56" height="56" viewBox="0 0 56 56"><path d="M2.928 44.495c.834 0 1.525-.265 2.339-.753l20.72-12.2c1.118-.65 1.728-1.383 1.952-2.237v11.713c0 2.257 1.342 3.477 2.928 3.477.834 0 1.525-.265 2.339-.753l20.74-12.2c1.424-.854 2.054-1.85 2.054-3.03 0-1.159-.63-2.155-2.054-3.01l-20.74-12.2c-.814-.488-1.505-.752-2.339-.752-1.586 0-2.928 1.22-2.928 3.477V27.74c-.224-.854-.834-1.585-1.952-2.236l-20.72-12.2c-.834-.489-1.505-.753-2.339-.753C1.342 12.55 0 13.77 0 16.027v24.99c0 2.258 1.342 3.478 2.928 3.478Zm.895-3.762c-.305 0-.55-.183-.55-.61V16.922c0-.427.245-.61.55-.61.142 0 .285.06.488.162l19.338 11.469c.284.162.447.305.447.57 0 .284-.163.426-.448.589L4.311 40.57a.87.87 0 0 1-.488.163Zm27.939 0c-.305 0-.55-.183-.55-.61V16.922c0-.427.245-.61.55-.61.142 0 .284.06.488.162l19.337 11.469c.285.162.448.305.448.57 0 .284-.163.426-.448.589L32.25 40.57a.87.87 0 0 1-.488.163Z"/></svg>