<svg xmlns="http://www.w3.org/2000/svg" width="56" height="56" viewBox="0 0 56 56"><path d="M28.75 45.332c.797 0 1.242-.258 1.828-1.102l9.375-12.796h.14l9.306 12.82c.539.797 1.078 1.078 1.922 1.078 1.218 0 2.109-.867 2.109-2.062 0-.516-.188-1.055-.492-1.5L42.766 28.059l10.43-13.97c.35-.444.515-.937.515-1.429 0-1.101-.914-1.992-2.016-1.992-.867 0-1.359.281-1.945 1.125l-9.352 12.96h-.14l-9.305-12.96c-.586-.867-1.055-1.125-1.969-1.125-1.242 0-2.132.844-2.132 2.016 0 .515.164 1.03.515 1.5l10.055 13.734L27.18 41.887c-.352.468-.516.96-.516 1.453 0 1.125.914 1.992 2.086 1.992Zm-24.305-.094c1.313 0 2.18-.843 2.18-2.18v-12.82h13.758c1.148 0 1.969-.726 1.969-1.875 0-1.172-.82-1.898-1.97-1.898H6.626V15.027h15.117c1.149 0 1.992-.726 1.992-1.921s-.843-1.946-1.992-1.946H4.422c-1.313 0-2.133.844-2.133 2.156V43.06c0 1.336.82 2.18 2.156 2.18Z"/></svg>