<svg xmlns="http://www.w3.org/2000/svg" width="56" height="56" viewBox="0 0 56 56"><path d="M28 54.402c13.055 0 23.906-10.828 23.906-23.906 0-11.531-8.437-21.305-19.383-23.46v-3.33c0-1.664-1.148-2.11-2.437-1.195l-7.477 5.226c-1.054.75-1.078 1.875 0 2.649l7.453 5.25c1.313.937 2.461.492 2.461-1.196v-3.35c8.86 2.015 15.375 9.914 15.375 19.406A19.84 19.84 0 0 1 28 50.418c-11.063 0-19.945-8.86-19.922-19.922.023-6.656 3.258-12.539 8.25-16.101.961-.727 1.266-1.829.656-2.813-.562-.96-1.851-1.219-2.883-.422C8.055 15.543 4.094 22.621 4.094 30.496c0 13.078 10.828 23.906 23.906 23.906Zm-6.961-14.297c.914 0 1.476-.632 1.476-1.617V23.7c0-1.195-.585-1.828-1.64-1.828-.656 0-1.125.211-1.969.774l-3.21 2.18c-.54.398-.798.82-.798 1.359 0 .773.61 1.43 1.36 1.43.469 0 .703-.095 1.125-.446l2.203-1.617v12.937c0 .961.562 1.617 1.453 1.617Zm11.906.282c3.89 0 6.446-2.508 6.446-6.282 0-3.445-2.32-5.906-5.649-5.906-1.406 0-2.906.633-3.586 1.688l.399-5.063h7.007c.704 0 1.29-.562 1.29-1.36 0-.796-.586-1.312-1.29-1.312h-7.476c-1.242 0-1.922.703-2.016 1.946l-.515 6.75c-.094 1.172.515 1.734 1.546 1.734.774 0 1.102-.14 1.758-.656.914-.82 1.617-1.149 2.555-1.149 1.828 0 3.047 1.336 3.047 3.375 0 2.063-1.453 3.563-3.375 3.563-1.406 0-2.578-.797-3.188-2.016-.351-.61-.773-.937-1.359-.937-.774 0-1.312.562-1.312 1.36 0 .327.07.632.187.937.633 1.687 2.695 3.328 5.531 3.328Z"/></svg>