<svg xmlns="http://www.w3.org/2000/svg" width="56" height="56" viewBox="0 0 56 56"><path d="M28 54.402c13.055 0 23.906-10.828 23.906-23.906 0-7.875-3.984-14.953-10.008-19.336-1.03-.797-2.32-.539-2.906.422-.586.984-.281 2.086.656 2.813 4.993 3.562 8.25 9.445 8.274 16.101C47.945 41.56 39.039 50.418 28 50.418c-11.063 0-19.899-8.86-19.899-19.922 0-9.492 6.516-17.39 15.376-19.406v3.375c0 1.664 1.148 2.11 2.413 1.195l7.5-5.25c1.055-.726 1.079-1.851 0-2.625l-7.476-5.25c-1.29-.937-2.437-.492-2.437 1.196v3.304C12.507 9.168 4.094 18.965 4.094 30.496c0 13.078 10.828 23.906 23.906 23.906Zm7.898-14.039c3.867 0 6.422-3.68 6.422-9.304 0-5.672-2.554-9.399-6.422-9.399-3.914 0-6.445 3.727-6.445 9.422 0 5.625 2.555 9.281 6.445 9.281Zm-15.445 0c3.774 0 6.211-2.508 6.211-6.351 0-3.399-2.344-5.813-5.508-5.813-2.086 0-3.703 1.008-4.383 2.508 0-3.75 1.594-6.305 4.008-6.305 1.219 0 1.969.47 2.531 1.36.375.61.774.867 1.477.867s1.172-.54 1.172-1.29c0-.327-.047-.632-.164-.89-.633-1.57-2.414-2.765-4.899-2.765-4.476 0-6.984 3.515-6.984 9.796 0 2.485.398 4.5 1.195 5.954 1.055 1.945 2.977 2.93 5.344 2.93Zm15.445-2.836c-2.086 0-3.398-2.46-3.398-6.468 0-4.079 1.289-6.563 3.398-6.563 2.086 0 3.352 2.461 3.352 6.563 0 4.007-1.29 6.468-3.352 6.468Zm-15.586.235c-1.898 0-3.304-1.5-3.304-3.61 0-2.062 1.383-3.492 3.304-3.492 1.97 0 3.328 1.406 3.328 3.492 0 2.227-1.312 3.61-3.328 3.61Z"/></svg>