<svg xmlns="http://www.w3.org/2000/svg" width="56" height="56" viewBox="0 0 56 56"><path d="M28 54.402c13.055 0 23.906-10.828 23.906-23.906 0-7.875-3.984-14.953-10.008-19.336-1.03-.797-2.32-.539-2.906.422-.586.984-.281 2.086.656 2.813 4.993 3.562 8.25 9.445 8.274 16.101C47.945 41.56 39.039 50.418 28 50.418c-11.063 0-19.899-8.86-19.899-19.922 0-9.492 6.516-17.39 15.376-19.406v3.375c0 1.664 1.148 2.11 2.413 1.195l7.5-5.25c1.055-.726 1.079-1.851 0-2.625l-7.476-5.25c-1.29-.937-2.437-.492-2.437 1.196v3.304C12.507 9.168 4.094 18.965 4.094 30.496c0 13.078 10.828 23.906 23.906 23.906Zm-4.97-14.086c.914 0 1.453-.656 1.453-1.757v-1.946h1.149c.797 0 1.312-.515 1.312-1.336 0-.797-.515-1.312-1.312-1.312h-1.149v-9.961c0-1.453-.984-2.133-2.32-2.133-1.266 0-1.992.469-2.719 1.711-1.687 2.813-3.797 6.422-5.39 9.305-.399.703-.493 1.172-.493 1.851 0 1.125.704 1.875 1.899 1.875h6.14v1.946c0 1.101.54 1.757 1.43 1.757Zm11.883.07c3.89 0 6.469-2.507 6.469-6.28 0-3.446-2.32-5.907-5.672-5.907-1.383 0-2.883.633-3.586 1.688l.398-5.063h7.032c.68 0 1.265-.562 1.265-1.36 0-.796-.586-1.312-1.265-1.312h-7.5c-1.22 0-1.899.703-2.016 1.946l-.516 6.75c-.093 1.172.516 1.734 1.547 1.734.774 0 1.102-.14 1.781-.656.891-.82 1.618-1.149 2.532-1.149 1.828 0 3.047 1.336 3.047 3.375 0 2.063-1.43 3.563-3.375 3.563-1.383 0-2.578-.797-3.188-2.016-.352-.61-.773-.937-1.36-.937-.773 0-1.312.562-1.312 1.36 0 .327.07.632.188.937.633 1.687 2.695 3.328 5.531 3.328Zm-18.305-6.421v-.07c1.664-3.07 3.281-6.118 4.922-9.165h.07v9.235Z"/></svg>