<svg xmlns="http://www.w3.org/2000/svg" width="56" height="56" viewBox="0 0 56 56"><path d="m45.8 32.972-2.087 7.544c-.768 2.775-3.749 3.145-5.196.67l-7.409-12.671-6.47 10.004c-1.385 2.14-4.138 2.154-5.537.02l-2.954-4.51-1.353 1.387c-1.15 1.18-2.99 1.657-4.595 1.273v5.432c0 2.438 1.313 3.68 3.656 3.68h28.313c2.32 0 3.633-1.242 3.633-3.68zm0-15V13.88c0-2.438-1.312-3.68-3.632-3.68H13.855c-2.343 0-3.656 1.242-3.656 3.68v18.47l.86.424c.213.104.705.02.872-.151l1.696-1.74c1.664-1.707 4.29-1.452 5.596.542l2.636 4.023 6.568-10.154c1.41-2.18 4.193-2.12 5.504.123l6.659 11.388zM13.786 49.575c-4.875 0-7.36-2.414-7.36-7.265V13.69c0-4.851 2.485-7.265 7.36-7.265h28.453c4.899 0 7.336 2.437 7.336 7.265v28.62c0 4.828-2.437 7.265-7.336 7.265z"/></svg>