<svg xmlns="http://www.w3.org/2000/svg" width="56" height="56" viewBox="0 0 56 56"><path d="M12.35 15.985c0-1.363.234-2.193.362-3.173l.788-5.77c.063-.554.106-.852.106-1.043 0-.32-.213-.575-.596-.575-.32 0-.596.32-1.043.851l-4.791 5.941v.34c2.172.98 2.704 1.385 2.704 3.429l-.277 13.478C5.898 35.936 0 48.82 0 52.033c0 1.491 1 2.386 2.13 2.386 1.043 0 1.66-.64 2.533-1.576.81-.873 3.13-3.152 4.237-4.237.49-.511 1.257-1.3 2.087-1.3s1.576.789 2.087 1.3c1.086 1.085 3.428 3.364 4.237 4.237.83.937 1.47 1.575 2.534 1.575 1.128 0 2.108-.894 2.108-2.384 0-3.173-5.792-15.842-9.433-22.294Zm27.66 27.297c.936-1.426 1.894-2.853 1.894-5.387 0-2.235-.575-3.705-.575-4.77 0-1.021 1.363-1.916 4.62-1.916 3.259 0 4.621.895 4.621 1.917 0 1.064-.574 2.534-.574 4.77 0 4.748 3.491 5.706 3.491 9.794 0 2.832-3.108 4.195-7.537 4.195-2.236 0-4.089-.298-5.579-1.107a10 10 0 0 1-1.277 2.193c2 1.086 4.364 1.405 6.856 1.405 5.238 0 10.05-1.618 10.05-6.899 0-5.323-3.47-5.92-3.47-9.411 0-2.215.702-3.96.702-5.494 0-1.959-2.215-3.385-5.834-3.641l-.235-13.116c-.02-1.3 1.832-1.895 1.768-2.62-.277-3.449-.511-5.11-.618-5.897-.128-.852-.873-1.235-2.363-1.235s-2.236.383-2.364 1.235c-.106.787-.34 2.448-.617 5.898-.043.724 1.788 1.32 1.767 2.619l-.234 13.116c-3.641.277-5.834 1.682-5.834 3.641 0 1.533.724 3.28.724 5.494 0 1.043-.341 1.873-.788 2.576a11.3 11.3 0 0 1 1.405 2.64ZM21.803 44.71c1.065-1.959 3.066-3.833 3.066-6.92 0-3.364-1.66-4.834-1.66-5.366l.233-.085c.575.724 1.47 1.874 2.832 1.874 1.129 0 1.917-.597 2.364-1.725.447 1.128 1.213 1.725 2.363 1.725 1.363 0 2.257-1.15 2.832-1.874l.213.085c0 .532-1.64 2.002-1.64 5.366 0 4.407 3.748 5.813 3.748 9.688 0 2.81-3.087 4.408-7.516 4.408-1.831 0-3.386-.277-4.6-.746.022.767-.085 2.023-.298 2.577 1.576.49 3.216.66 4.898.66 5.238 0 10.05-1.852 10.05-6.899 0-5.11-3.748-6.324-3.748-9.944 0-3.002 2.023-4.876 2.023-6.451 0-1.044-.98-2.044-2.108-2.044-.851 0-1.32.66-1.64 1.085-.617.81-.872 1.512-2.107 1.512-.575 0-.83-.149-.98-.426l-.234-15.394c0-1.576.511-1.832.81-2.002.233-.17.425-.34.425-.724 0-3.492.98-4.322.98-5.238 0-.34-.32-.426-.703-.681-.618-.447-1.767-1.107-2.747-1.107s-2.13.66-2.747 1.107c-.362.255-.702.34-.702.681 0 .916.98 1.746.98 5.238 0 .383.19.554.446.724.277.17.81.405.81 2.002l-.277 15.352c-.128.298-.384.468-1.001.468-1.235 0-1.49-.702-2.108-1.49-.32-.447-.81-1.107-1.64-1.107-1.128 0-2.108 1-2.108 2.044 0 1.575 2.023 3.449 2.023 6.451 0 1.725-.937 3.003-1.767 4.238.447.98.873 1.959 1.235 2.938Zm-10.817.085c-1.256 0-2.32.895-3.47 1.938-1.32 1.17-2.918 2.832-4.685 4.919-.085.106-.277.085-.256-.128.533-3.492 4.898-13.053 8.411-19.377 3.513 6.303 7.878 15.863 8.41 19.377.022.17-.19.234-.297.085-1.725-2.044-3.343-3.705-4.664-4.876-1.128-1.044-2.193-1.938-3.449-1.938Zm34.963-4.876a2.27 2.27 0 0 0 2.257-2.257 2.27 2.27 0 0 0-2.257-2.257 2.27 2.27 0 0 0-2.257 2.257 2.27 2.27 0 0 0 2.257 2.257Z"/></svg>