<svg xmlns="http://www.w3.org/2000/svg" width="56" height="56" viewBox="0 0 56 56"><path d="M12.039 4.234c-1.828.446-3.656 1.618-3.656 3.868 0 .914.234 1.57.562 2.085.164.305.14.54-.117.657-1.477.656-2.719 1.992-2.719 3.867 0 1.078.282 2.016.82 2.695.282.352.212.657-.21.89-1.078.61-1.805 1.97-1.805 3.517 0 1.101.352 2.273 1.008 2.859.351.328.304.562-.117.89-.75.586-1.172 1.711-1.172 3.047 0 2.297 1.758 4.172 4.101 4.172h8.367c2.11 0 3.54 1.078 3.54 2.836 0 3.211-3.985 9.024-3.985 13.242 0 2.18 1.43 3.47 3.281 3.47 1.688 0 2.532-1.173 3.446-2.954 3.492-6.89 8.226-12.422 11.836-17.203 3.047-4.055 4.523-7.5 4.593-13.102.118-8.672-6.867-15.257-17.906-15.328l-3.234-.047c-3.094-.023-5.32.211-6.633.54Zm39.328 14.649c0-7.031-4.383-12.914-10.266-12.914H36.93c4.218 3.117 6.187 7.804 6.093 13.148-.093 5.953-2.414 10.196-4.476 12.774h3.445c5.297 0 9.375-5.696 9.375-13.008Z"/></svg>