<svg xmlns="http://www.w3.org/2000/svg" width="56" height="56" viewBox="0 0 56 56"><path d="M30.309 2.207c-2.274 0-3.868 1.524-4.196 3.82-.61-.586-1.43-.89-2.297-.89-2.437 0-4.054 1.687-4.054 4.289v2.601c-.633-.656-1.57-1.007-2.579-1.007-1.148 0-2.109.468-2.648 1.312l2.531 2.531v-.187c.07-.352.305-.586.703-.586.961 0 1.665.703 1.665 1.687v1.477l2.976 3V9.848c0-1.008.633-1.688 1.617-1.688.961 0 1.664.68 1.664 1.688v13.64l2.977 2.977V6.94c0-.984.68-1.71 1.64-1.71.938 0 1.641.726 1.641 1.71v19.62c0 .82.656 1.453 1.453 1.453.82 0 1.524-.633 1.524-1.453V9.848c0-1.008.656-1.688 1.64-1.688.961 0 1.617.68 1.617 1.688V32.91c0 1.078.704 1.852 1.665 1.852.843 0 1.547-.375 2.086-1.547l3.187-7.125c.445-1.008 1.266-1.524 2.156-1.195.938.375 1.242 1.265.797 2.484l-4.148 11.578a26 26 0 0 1-.797 1.969l2.297 2.297a30 30 0 0 0 1.36-3.258l4.147-11.602c1.032-2.93.095-5.343-2.343-6.234-2.203-.797-4.36.14-5.367 2.555l-1.547 3.75c-.047.093-.094.164-.188.164-.117 0-.187-.094-.187-.211V9.59c0-2.742-1.711-4.453-4.336-4.453-.938 0-1.828.328-2.461.937-.328-2.39-1.852-3.867-4.195-3.867ZM46.363 53.09c.68.703 1.875.703 2.555 0 .703-.68.703-1.828 0-2.555L7.293 8.934a1.84 1.84 0 0 0-2.578 0c-.68.703-.68 1.875 0 2.554Zm-6.75-2.883-2.32-2.297c-2.227 1.406-4.852 2.063-7.781 2.063-8.297 0-13.336-5.32-13.336-14.766v-8.39l-3.094-3.094v11.86c0 10.968 6.633 17.648 16.547 17.648 3.89 0 7.242-1.008 9.984-3.024Z"/></svg>