<svg xmlns="http://www.w3.org/2000/svg" width="56" height="56" viewBox="0 0 56 56"><path d="M22.656 1.586h-3.258c-2.93 0-5.437.164-7.125.586-3.234.797-5.25 3.047-5.25 5.906 0 .61.094 1.149.258 1.688C5.664 10.96 4.75 12.742 4.75 14.71c0 .937.187 1.875.539 2.672-1.078 1.101-1.734 2.719-1.734 4.406 0 1.125.28 2.273.773 3.14-.68.938-1.055 2.25-1.055 3.657 0 3.516 2.72 6.281 6.211 6.281h8.86c.586 0 .937.235.937.727 0 2.554-3.984 8.484-3.984 13.242 0 3.234 2.25 5.578 5.367 5.578 2.32 0 3.844-1.195 5.367-4.102 2.86-5.484 6.235-10.335 11.813-17.132h4.453c5.789 0 10.43-6.54 10.43-14.555 0-7.875-5.11-14.437-11.32-14.437h-7.735c-3.094-1.618-6.844-2.602-11.016-2.602Zm-3.281 3.539 3.258.023c9.82.094 16.476 5.649 16.476 13.618 0 5.062-1.125 8.297-4.312 12.562-3.54 4.711-8.414 10.36-11.93 17.367-.937 1.852-1.43 2.18-2.203 2.18-1.149 0-1.828-.727-1.828-2.039 0-3.82 3.984-9.563 3.984-13.242 0-2.649-2.203-4.266-4.992-4.266H9.484c-1.547 0-2.672-1.172-2.672-2.742 0-1.102.352-1.828 1.266-2.719.258-.234.352-.469.352-.726 0-.211-.07-.399-.235-.61-.773-1.101-1.101-1.828-1.101-2.742 0-1.102.539-2.062 1.593-2.86.47-.327.704-.702.704-1.1a1 1 0 0 0-.141-.47c-.68-1.289-.961-1.804-.961-2.648 0-1.266.797-2.227 2.484-3.094.352-.187.563-.469.563-.82 0-.14-.047-.281-.117-.445-.586-1.43-.657-1.665-.657-2.274 0-1.148.844-2.039 2.555-2.46 1.383-.376 3.586-.516 6.258-.493Zm22.031 2.602c4.149 0 7.782 4.968 7.782 10.898 0 6.07-3.258 11.016-6.891 11.016H40.14c1.757-3.305 2.507-6.727 2.507-10.805 0-4.406-1.593-8.227-4.406-11.11Z"/></svg>