<svg xmlns="http://www.w3.org/2000/svg" width="56" height="56" viewBox="0 0 56 56"><path d="M5.523 41.242H6.79c.375 0 .586-.234.586-.586V27.438c0-11.11 8.39-18.329 20.625-18.329 12.258 0 20.625 7.22 20.625 18.329v13.218c0 .352.211.586.586.586h1.266c1.03 0 1.757-.656 1.757-1.617V26.57c0-12.445-9.82-21.093-23.437-21.093h-1.594c-13.617 0-23.437 8.648-23.437 21.093v13.055c0 .96.75 1.617 1.757 1.617Zm6.75 9.281h2.204c2.882 0 4.5-1.523 4.5-4.218V36.18c0-2.696-1.618-4.22-4.5-4.22h-2.204c-1.57 0-2.437.845-2.437 2.392v13.78c0 1.571.867 2.391 2.437 2.391Zm29.274 0h2.203c1.594 0 2.484-.82 2.484-2.39V34.352c0-1.547-.89-2.391-2.484-2.391h-2.203c-2.86 0-4.477 1.523-4.477 4.219v10.125c0 2.695 1.617 4.218 4.477 4.218Z"/></svg>