<svg xmlns="http://www.w3.org/2000/svg" width="56" height="56" viewBox="0 0 56 56"><path d="M28 51.906c13.055 0 23.906-10.828 23.906-23.906 0-13.055-10.875-23.906-23.93-23.906C14.899 4.094 4.095 14.945 4.095 28c0 13.078 10.828 23.906 23.906 23.906Zm8.719-11.531L14.266 17.969a1.047 1.047 0 0 1 0-1.5c.398-.399 1.078-.399 1.5 0l22.43 22.406c.421.398.398 1.102 0 1.5a1.06 1.06 0 0 1-1.477 0Zm-14.227-22.43c2.508 0 4.547 1.453 5.719 3.633 1.172-2.18 3.187-3.633 5.719-3.633 4.054 0 6.96 3.047 6.96 7.29 0 3.445-2.039 6.773-4.64 9.562l-16.383-16.36a7.3 7.3 0 0 1 2.625-.492ZM16.211 22 32.43 38.219c-1.055.843-2.086 1.547-3.047 2.18-.375.257-.82.515-1.172.515s-.82-.258-1.195-.516c-4.852-3.14-11.485-8.906-11.485-15.164 0-1.195.234-2.297.68-3.234Z"/></svg>