<svg xmlns="http://www.w3.org/2000/svg" width="56" height="56" viewBox="0 0 56 56"><path d="M28 51.906c13.055 0 23.906-10.828 23.906-23.906 0-13.055-10.875-23.906-23.93-23.906C14.899 4.094 4.095 14.945 4.095 28c0 13.078 10.828 23.906 23.906 23.906Zm0-3.984c-11.063 0-19.9-8.86-19.9-19.922 0-11.04 8.813-19.922 19.876-19.922 11.039 0 19.921 8.883 19.945 19.922.023 11.063-8.883 19.922-19.922 19.922Zm-.023-4.711c8.296 0 15.187-6.89 15.187-15.188 0-8.32-6.914-15.21-15.187-15.21-8.32 0-15.188 6.89-15.188 15.21 0 8.297 6.89 15.188 15.188 15.188Z"/></svg>