<svg xmlns="http://www.w3.org/2000/svg" width="56" height="56" viewBox="0 0 56 56"><path d="m14.204 36.253.845.47a1.324 1.324 0 0 1 .1 2.253l-3.375 1.293 12.213 4.633c2.594.621 5.886.621 8.48 0l12.212-4.633-3.773-1.422a1.254 1.254 0 0 1 .02-2.123l.696-.427a2 2 0 0 1 2.032-.037l5.86 2.313a2 2 0 0 1 0 3.392l-14.927 6.329c-3.892 1.432-8.83 1.432-12.72 0L6.94 41.964a2 2 0 0 1 0-3.391l5.23-2.269a2 2 0 0 1 2.034-.051Zm0-12 .845.47a1.324 1.324 0 0 1 .1 2.253l-3.375 1.293 12.213 4.633c2.594.621 5.886.621 8.48 0l12.212-4.633-3.773-1.422a1.254 1.254 0 0 1 .02-2.123l.696-.427a2 2 0 0 1 2.032-.037l5.86 2.313a2 2 0 0 1 0 3.392l-14.927 6.329c-3.892 1.432-8.83 1.432-12.72 0L6.94 29.964a2 2 0 0 1 0-3.391l5.23-2.269a2 2 0 0 1 2.034-.051ZM34.36 7.975l14.926 6.329a2 2 0 0 1 0 3.392L34.36 24.025c-3.891 1.432-8.829 1.432-12.72 0L6.714 17.696a2 2 0 0 1 0-3.392L21.64 7.975c3.891-1.432 8.829-1.432 12.72 0Zm-11.254 3.723L12.96 16l10.146 4.302c2.96 1.063 6.827 1.063 9.788 0L43.04 16l-10.146-4.302c-2.96-1.063-6.827-1.063-9.788 0Z"/></svg>