<svg xmlns="http://www.w3.org/2000/svg" width="56" height="56" viewBox="0 0 56 56"><path d="M28 54.402c13.055 0 23.906-10.828 23.906-23.906 0-7.875-3.984-14.953-10.008-19.336-1.03-.797-2.32-.539-2.906.422-.586.984-.281 2.086.656 2.813 4.993 3.562 8.25 9.445 8.274 16.101C47.945 41.56 39.039 50.418 28 50.418c-11.063 0-19.899-8.86-19.899-19.922 0-9.492 6.516-17.39 15.376-19.406v3.375c0 1.664 1.148 2.11 2.413 1.195l7.5-5.25c1.055-.726 1.079-1.851 0-2.625l-7.476-5.25c-1.29-.937-2.437-.492-2.437 1.196v3.304C12.507 9.168 4.094 18.965 4.094 30.496c0 13.078 10.828 23.906 23.906 23.906ZM15.906 21.895c-.117 1.101-.21 2.18-.21 3.234 0 7.992 5.296 14.18 12.14 14.18 3 0 5.789-1.29 7.008-3.422 1.078 1.406 1.617 3.093 2.484 5.718.094.235.328.329.54.211l.82-.398c.609-.258.82-.586.82-1.219 0-1.758-2.227-4.36-3.375-5.414-4.805-4.476-12.211-1.875-14.04-6.797-.046-.093-.07-.14-.07-.21 0-.188.164-.329.305-.329.164 0 .281.094.399.211 3.68 3.703 8.812.563 13.476 4.969.328.305.82.164.844-.234.023-.376.07-.844.07-1.336 0-5.368-3.797-7.664-9.258-7.664-1.687 0-3.422.21-5.062.21-2.297 0-4.36-.421-5.766-1.968-.375-.399-1.078-.305-1.125.258Z"/></svg>