<svg xmlns="http://www.w3.org/2000/svg" width="56" height="56" viewBox="0 0 56 56"><path d="M28 51.906c13.055 0 23.906-10.828 23.906-23.906 0-13.055-10.875-23.906-23.93-23.906C14.899 4.094 4.095 14.945 4.095 28c0 13.078 10.828 23.906 23.906 23.906Zm6.351-13.828c-.445 0-.82-.094-1.171-.305l-14.672-7.617c-1.031-.515-1.43-1.148-1.43-2.156 0-.914.469-1.617 1.43-2.156l14.672-7.922a2.6 2.6 0 0 1 1.242-.281c1.148 0 1.969.867 1.969 1.945 0 .89-.422 1.477-1.407 1.992L22.515 27.86V28l12.47 6.14c1.03.47 1.406 1.055 1.406 1.97 0 1.1-.844 1.968-2.04 1.968Z"/></svg>