<svg xmlns="http://www.w3.org/2000/svg" width="56" height="56" viewBox="0 0 56 56"><path d="M28 20.031a2.76 2.76 0 0 0 2.742-2.742A2.746 2.746 0 0 0 28 14.547a2.73 2.73 0 0 0-2.742 2.742c0 1.5 1.219 2.742 2.742 2.742Zm12.984 5.977c1.055 1.078 2.79 1.078 3.867 0 1.079-1.102 1.079-2.813 0-3.867-1.101-1.078-2.789-1.102-3.867 0-1.078 1.054-1.078 2.789 0 3.867Zm-29.86.023c1.056 1.078 2.79 1.078 3.868 0 1.102-1.101 1.102-2.812 0-3.867-1.102-1.078-2.789-1.102-3.867 0-1.078 1.055-1.102 2.766 0 3.867ZM6.767 41.29a2.76 2.76 0 0 0 2.742-2.742 2.746 2.746 0 0 0-2.742-2.742 2.73 2.73 0 0 0-2.743 2.742c0 1.5 1.22 2.742 2.743 2.742Zm42.468.164c1.5 0 2.743-1.242 2.743-2.742a2.746 2.746 0 0 0-2.743-2.742 2.73 2.73 0 0 0-2.742 2.742c0 1.5 1.219 2.742 2.742 2.742ZM20.101 36.72c-1.078 0-1.992.89-1.992 1.968 0 1.055.914 1.946 1.992 1.946h15.727c1.078 0 1.992-.89 1.992-1.946 0-1.078-.914-1.968-1.992-1.968Z"/></svg>