<svg xmlns="http://www.w3.org/2000/svg" width="56" height="56" viewBox="0 0 56 56"><path d="M7.34 16.762a2.936 2.936 0 0 0 2.953-2.93 2.94 2.94 0 0 0-2.953-2.953 2.956 2.956 0 0 0-2.953 2.953c0 1.617 1.336 2.93 2.953 2.93Zm10.36-1.055h32.015c1.078 0 1.898-.82 1.898-1.875 0-1.078-.82-1.898-1.898-1.898H17.699c-1.055 0-1.875.82-1.875 1.898a1.85 1.85 0 0 0 1.875 1.875ZM7.34 30.941a2.94 2.94 0 0 0 2.953-2.953 2.94 2.94 0 0 0-2.953-2.953 2.956 2.956 0 0 0-2.953 2.953 2.956 2.956 0 0 0 2.953 2.953Zm10.36-1.054h32.015a1.876 1.876 0 0 0 1.898-1.899c0-1.054-.82-1.875-1.898-1.875H17.699c-1.055 0-1.875.82-1.875 1.875s.82 1.899 1.875 1.899ZM7.34 45.12a2.956 2.956 0 0 0 2.953-2.953 2.94 2.94 0 0 0-2.953-2.953 2.956 2.956 0 0 0-2.953 2.953A2.97 2.97 0 0 0 7.34 45.12Zm10.36-1.078h32.015c1.078 0 1.898-.82 1.898-1.875 0-1.078-.82-1.898-1.898-1.898H17.699c-1.055 0-1.875.82-1.875 1.898a1.85 1.85 0 0 0 1.875 1.875Z"/></svg>