<svg xmlns="http://www.w3.org/2000/svg" width="56" height="56" viewBox="0 0 56 56"><path d="m41.746 29.512 9.305-20.086c.937-1.969.82-3.422-.118-4.36-.96-.96-2.414-1.03-4.382-.14l-20.133 9.351Zm6.024 15.14a1.81 1.81 0 0 0 2.554 0 1.81 1.81 0 0 0 0-2.554L14.23 6.004c-.703-.703-1.851-.703-2.578 0-.68.68-.68 1.875 0 2.555ZM27.754 50.84c1.148 1.125 2.695.937 3.82-.188.633-.633 1.125-1.617 1.547-2.554l4.453-9.657L17.56 18.38l-9.68 4.476c-.914.422-1.922.938-2.555 1.547-1.148 1.125-1.312 2.696-.187 3.82.843.821 1.64 1.079 3.258 1.079l17.695.117c.164 0 .281.023.375.094a.67.67 0 0 1 .117.398l.094 17.672c0 1.617.258 2.461 1.078 3.258Z"/></svg>