<svg xmlns="http://www.w3.org/2000/svg" width="56" height="56" viewBox="0 0 56 56"><path d="M39 24.173c1.084 0 1.949.483 2.399 1.015h.068v-.654h1.894v8.094c0 3.36-1.983 4.742-4.327 4.742-2.207 0-3.536-1.485-4.033-2.691l1.737-.722c.314.742 1.07 1.621 2.296 1.621 1.506 0 2.433-.933 2.433-2.677v-.654h-.068c-.45.545-1.309 1.035-2.399 1.035-2.275 0-4.36-1.983-4.36-4.538 0-2.568 2.085-4.571 4.36-4.571Zm12.796.006c2.111 0 3.26 1.5 3.75 2.543l.104.241h0l.248.63-6.091 2.52c.463.914 1.185 1.377 2.207 1.377s1.73-.504 2.242-1.26l1.553 1.035-.14.196c-.571.75-1.744 1.821-3.655 1.821-2.59 0-4.517-2.003-4.517-4.551 0-2.712 1.948-4.552 4.3-4.552Zm-22.54 0c2.508 0 4.552 1.908 4.552 4.552 0 2.623-2.044 4.551-4.551 4.551s-4.552-1.928-4.552-4.551c0-2.637 2.045-4.552 4.552-4.552Zm-9.94-.027c2.507 0 4.551 1.922 4.551 4.558 0 2.624-2.044 4.552-4.551 4.552s-4.551-1.935-4.551-4.552c0-2.636 2.044-4.558 4.551-4.558ZM7.283 19.028c2.052 0 3.55.763 4.688 1.791l.177.165-1.37 1.37c-.83-.777-1.955-1.384-3.495-1.384-2.855 0-5.09 2.303-5.09 5.158s2.235 5.158 5.09 5.158c1.854 0 2.91-.743 3.577-1.417.51-.51.868-1.24 1.028-2.282l.035-.267h-4.64v-1.894h6.514c.061.348.116.818.116 1.274 0 1.458-.395 3.257-1.676 4.538-1.247 1.295-2.842 1.99-4.954 1.99-3.91 0-7.202-3.189-7.202-7.1s3.291-7.1 7.202-7.1Zm39.24.511v13.328H44.56V19.539zM29.25 25.971c-1.376 0-2.562 1.125-2.562 2.76 0 1.621 1.186 2.76 2.562 2.76 1.383 0 2.562-1.145 2.562-2.76 0-1.635-1.186-2.76-2.562-2.76Zm9.92-.007c-1.376 0-2.534 1.172-2.534 2.78 0 1.588 1.158 2.74 2.535 2.74 1.362.006 2.432-1.152 2.432-2.74 0-1.608-1.07-2.78-2.432-2.78Zm-19.854-.013c-1.376 0-2.562 1.124-2.562 2.76 0 1.621 1.186 2.759 2.562 2.759s2.562-1.138 2.562-2.76c0-1.635-1.186-2.76-2.562-2.76Zm32.541-.02c-1.015 0-2.425.899-2.378 2.657l4.068-1.69c-.225-.566-.892-.968-1.69-.968Z"/></svg>