<svg xmlns="http://www.w3.org/2000/svg" width="56" height="56" viewBox="0 0 56 56"><path d="M3.362 40.315h4.119V22.782H3.362zm2.051-19.832c1.29 0 2.3-.993 2.3-2.233 0-1.258-1.01-2.25-2.3-2.25-1.273 0-2.282.992-2.282 2.25 0 1.24 1.009 2.233 2.282 2.233Zm15.78-4.433c-6.963 0-11.33 4.747-11.33 12.339s4.367 12.323 11.33 12.323c6.948 0 11.315-4.73 11.315-12.323 0-7.592-4.367-12.34-11.314-12.34Zm0 3.638c4.252 0 6.964 3.375 6.964 8.7 0 5.31-2.712 8.685-6.963 8.685-4.268 0-6.964-3.374-6.964-8.684 0-5.326 2.696-8.7 6.964-8.7ZM34.246 33.6c.182 4.4 3.788 7.113 9.28 7.113 5.772 0 9.411-2.845 9.411-7.377 0-3.557-2.05-5.558-6.897-6.666l-2.746-.629c-2.928-.694-4.135-1.62-4.135-3.209 0-1.984 1.82-3.308 4.515-3.308 2.73 0 4.599 1.34 4.797 3.573h4.07c-.1-4.201-3.574-7.046-8.833-7.046-5.194 0-8.883 2.861-8.883 7.096 0 3.407 2.084 5.524 6.484 6.533l3.093.728c3.01.711 4.234 1.704 4.234 3.424 0 1.985-2.001 3.407-4.879 3.407-2.911 0-5.11-1.439-5.376-3.638z"/></svg>