<svg xmlns="http://www.w3.org/2000/svg" width="56" height="56" viewBox="0 0 56 56"><path d="M34.188 51.414v-39.21l-11.579-7.08c-.398-.258-.867-.422-1.312-.54v39.751l11.812 6.61a6 6 0 0 0 1.079.468Zm-27.915-.703c.61 0 1.196-.187 1.97-.61l9.843-5.296V5.008c-.422.21-.867.445-1.312.703l-11.11 6.352c-1.406.796-2.062 1.921-2.062 3.492v32.46c0 1.735 1.007 2.696 2.672 2.696Zm31.126.656c.234-.07.468-.164.703-.328l12.257-6.96c1.383-.774 2.04-1.9 2.04-3.47V8.102c0-1.735-.985-2.672-2.672-2.672-.586 0-1.195.164-1.946.586L37.4 11.78Z"/></svg>