<svg xmlns="http://www.w3.org/2000/svg" width="56" height="56" viewBox="0 0 56 56"><path d="M10 36a3 3 0 1 1 0 6 3 3 0 0 1 0-6Zm35.998 1c1.106 0 2.002.888 2.002 2 0 1.105-.89 2-2.002 2H18.002A1.996 1.996 0 0 1 16 39c0-1.105.89-2 2.002-2zM10 26a3 3 0 1 1 0 6 3 3 0 0 1 0-6Zm35.998 1c1.106 0 2.002.888 2.002 2 0 1.105-.89 2-2.002 2H18.002A1.996 1.996 0 0 1 16 29c0-1.105.89-2 2.002-2zM10 16a3 3 0 1 1 0 6 3 3 0 0 1 0-6Zm35.998 1c1.106 0 2.002.888 2.002 2 0 1.105-.89 2-2.002 2H18.002A1.996 1.996 0 0 1 16 19c0-1.105.89-2 2.002-2z" fill-rule="evenodd"/></svg>