<svg xmlns="http://www.w3.org/2000/svg" width="56" height="56" viewBox="0 0 56 56"><path d="M26.711 6.883c2.648 0 4.406 2.203 4.406 4.992v11.273l3.586 3.586V11.97c0-4.875-3.305-8.485-7.992-8.485-4.195 0-7.266 2.836-7.852 6.704-.023.21-.047.539-.047.68l3.47 3.421v-2.414c0-2.789 1.78-4.992 4.429-4.992Zm19.617 40.5c.703.703 1.852.703 2.531 0 .727-.68.727-1.852 0-2.555L9.672 5.641c-.703-.703-1.899-.703-2.578 0-.68.703-.68 1.875 0 2.554Zm-30.562 1.594c-.938 0-1.782.843-1.782 1.78s.844 1.759 1.782 1.759h21.867c.937 0 1.781-.82 1.781-1.758s-.844-1.781-1.781-1.781h-9.164v-5.133c2.976-.258 5.578-1.219 7.71-2.719l-2.507-2.508c-1.898 1.266-4.266 1.992-6.961 1.992-7.36 0-12.492-5.25-12.492-12.398v-5.508c0-.914-.797-1.71-1.735-1.71-.914 0-1.71.796-1.71 1.71v5.508c0 8.578 5.624 14.883 14.156 15.633v5.133Zm26.859-26.274c0-.914-.797-1.71-1.71-1.71-.915 0-1.735.796-1.735 1.71v5.508c0 .937-.094 1.828-.282 2.719l2.86 2.836c.562-1.711.867-3.563.867-5.555ZM26.242 36.25c1.828 0 3.047-.352 4.102-.96l-2.883-2.884c-.234.258-.586.422-1.148.422-2.461 0-3.985-1.664-3.985-4.125v-1.43l-3.633-3.632v4.593c0 5.414 3.305 8.016 7.547 8.016Z"/></svg>