<svg xmlns="http://www.w3.org/2000/svg" width="56" height="56" viewBox="0 0 56 56"><path d="M28 4c13.255 0 24 10.745 24 24S41.255 52 28 52 4 41.255 4 28 14.745 4 28 4Zm0 4C16.954 8 8 16.954 8 28s8.954 20 20 20 20-8.954 20-20S39.046 8 28 8Zm.573 6.286v2.687c3.976.319 6.855 2.704 6.982 6.314h-3.308c-.207-2.004-1.638-3.165-3.674-3.419V26.5l.764.19c4.183.971 6.473 2.689 6.473 6.076 0 3.897-3.181 6.107-7.237 6.394v2.671h-1.797V39.16c-4.04-.303-7.236-2.577-7.347-6.394h3.292c.286 1.861 1.495 3.229 4.055 3.5V29.33l-.652-.16c-4.04-.937-6.218-2.75-6.218-5.979 0-3.563 2.862-5.916 6.87-6.219v-2.687zm0 15.458v6.537c2.72-.207 3.865-1.495 3.865-3.197 0-1.638-.89-2.608-3.865-3.34Zm-1.797-9.876c-2.29.286-3.499 1.606-3.499 3.054s.955 2.512 3.5 3.149z"/></svg>