<svg xmlns="http://www.w3.org/2000/svg" width="56" height="56" viewBox="0 0 56 56"><path d="M12.625 52.645h30.773c3.328 0 5.274-1.876 5.274-5.18V26.066l3.023 2.766c.492.469 1.031.797 1.688.797 1.101 0 1.992-.68 1.992-1.805 0-.703-.258-1.148-.703-1.547l-8.133-7.43V5.044c0-1.031-.656-1.687-1.687-1.687h-3.07c-1.009 0-1.712.656-1.712 1.687v7.922l-9.258-8.438c-.82-.75-1.804-1.171-2.812-1.171s-1.992.421-2.813 1.171L1.328 26.277c-.422.399-.703.844-.703 1.547 0 1.125.89 1.805 1.992 1.805.68 0 1.219-.328 1.688-.797l3.023-2.742v21.375c0 3.304 1.945 5.18 5.297 5.18Zm.797-3.774c-1.5 0-2.32-.82-2.32-2.344V22.645L27.18 7.996c.234-.234.515-.375.82-.375s.586.117.844.375l16.055 14.649v23.882c0 1.524-.798 2.344-2.297 2.344Zm20.812-21.164c1.149-.281 1.477-.54 1.477-1.898v-4.664c0-.891-.305-1.266-1.57-.985l-6.914 1.711c-1.172.305-1.43.54-1.43 1.945v10.665c0 1.054-.07 1.242-1.29 1.57l-2.179.586c-2.133.562-3.937 1.828-3.937 4.148 0 2.016 1.5 3.469 3.89 3.469 3.375 0 5.672-2.414 5.672-5.86v-8.132c0-.89.188-1.102.727-1.219Z"/></svg>