<svg xmlns="http://www.w3.org/2000/svg" width="56" height="56" viewBox="0 0 56 56"><path d="M16.844 3.637c.14-1.992 1.289-3.024 3.445-3.024h14.93c2.156 0 3.281 1.032 3.422 3.024zm-4.149 6.492c.352-2.133 1.36-3.305 3.703-3.305h22.524c2.344 0 3.351 1.172 3.703 3.305zm1.899 45.258c-4.875 0-7.36-2.414-7.36-7.266v-27c0-4.828 2.485-7.265 7.36-7.265h26.812c4.899 0 7.36 2.437 7.36 7.265v27c0 4.828-2.438 7.266-6.657 7.266zM34.44 30.635c1.019-.276 1.337-.488 1.337-1.719v-4.159c0-.806-.276-1.167-1.4-.891l-6.218 1.549c-1.04.255-1.273.467-1.273 1.719v9.57c0 .934-.085 1.104-1.146 1.4l-1.952.51c-1.931.51-3.565 1.655-3.565 3.735 0 1.803 1.358 3.119 3.501 3.119 3.035 0 5.093-2.186 5.093-5.263v-7.278c0-.785.17-.997.658-1.104z"/></svg>