<svg xmlns="http://www.w3.org/2000/svg" width="56" height="56" viewBox="0 0 56 56"><path d="M28 51.906c13.055 0 23.906-10.828 23.906-23.906 0-13.055-10.875-23.906-23.93-23.906C14.899 4.094 4.095 14.945 4.095 28c0 13.078 10.828 23.906 23.906 23.906Zm-6.14-15.445c-1.079 0-1.548-.563-1.548-1.43V20.992c0-.844.47-1.43 1.547-1.43h2.133c1.078 0 1.547.586 1.547 1.43v14.04c0 .866-.469 1.429-1.547 1.429Zm10.124 0c-1.054 0-1.57-.563-1.57-1.43V20.992c0-.844.516-1.43 1.57-1.43h2.133c1.055 0 1.547.586 1.547 1.43v14.04c0 .866-.492 1.429-1.547 1.429Z"/></svg>