<svg xmlns="http://www.w3.org/2000/svg" width="56" height="56" viewBox="0 0 56 56"><path d="m53.922 16.202 1.404-1.423c.674-.692.674-1.61.019-2.246l-.45-.449c-.598-.599-1.534-.543-2.17.094l-1.404 1.385Zm-21.505 19.39 3.818-1.703 16.303-16.283-2.62-2.602-16.285 16.283-1.796 3.688c-.15.318.225.767.58.617ZM5.484 47.908h36.834c3.538 0 5.465-1.853 5.465-5.39V27.02l-3.013 3.013v12.634c0 1.554-.88 2.433-2.433 2.433H5.447c-1.554 0-2.434-.88-2.434-2.433v-15.74c0-1.554.88-2.434 2.434-2.434h30.302l2.826-2.807H5.484C1.947 21.686 0 23.539 0 27.076v15.441c0 3.538 1.947 5.39 5.484 5.39Zm4.735-10.706c1.33 0 2.415-1.086 2.415-2.396a2.404 2.404 0 0 0-2.415-2.396 2.39 2.39 0 0 0-2.395 2.396 2.4 2.4 0 0 0 2.395 2.396Zm7.524 0c1.33 0 2.415-1.086 2.415-2.396a2.404 2.404 0 0 0-2.415-2.396 2.393 2.393 0 0 0-2.414 2.396 2.404 2.404 0 0 0 2.414 2.396Zm7.506 0a2.413 2.413 0 0 0 2.395-2.396 2.4 2.4 0 0 0-2.395-2.396 2.404 2.404 0 0 0-2.415 2.396c0 1.31 1.086 2.396 2.415 2.396Z"/></svg>