<svg xmlns="http://www.w3.org/2000/svg" width="56" height="56" viewBox="0 0 56 56"><path d="M14.148 50.395c.797 0 1.29-.352 1.899-1.243l13.851-20.46L43.422 8.745c.305-.398.445-.82.445-1.36 0-.96-.867-1.78-1.922-1.78-.843 0-1.336.328-1.992 1.265L26.43 26.863 12.602 47.16c-.305.446-.47.914-.47 1.43 0 1.031.845 1.804 2.016 1.804Zm.54-22.946c5.062 0 8.109-4.148 8.109-10.758s-3.07-10.687-8.11-10.687c-5.015 0-8.109 4.102-8.109 10.687 0 6.633 3.07 10.758 8.11 10.758Zm0-3.281c-2.72 0-4.313-2.742-4.313-7.477 0-4.664 1.617-7.43 4.313-7.43S19 12.005 19 16.692c0 4.735-1.594 7.477-4.312 7.477Zm26.624 25.828c5.063 0 8.11-4.148 8.11-10.734 0-6.633-3.07-10.711-8.11-10.711-5.015 0-8.109 4.101-8.109 10.71s3.07 10.735 8.11 10.735Zm0-3.258c-2.718 0-4.312-2.765-4.312-7.476 0-4.688 1.617-7.43 4.313-7.43s4.312 2.719 4.312 7.43c0 4.71-1.594 7.476-4.312 7.476Z"/></svg>