<svg xmlns="http://www.w3.org/2000/svg" width="56" height="56" viewBox="0 0 56 56"><path d="M28.012 28.023c5.578 0 10.125-4.968 10.125-11.015 0-6-4.5-10.711-10.125-10.711-5.555 0-10.125 4.805-10.125 10.758.023 6.023 4.57 10.968 10.125 10.968Zm0-3.539c-3.422 0-6.352-3.28-6.352-7.43 0-4.077 2.883-7.218 6.352-7.218 3.515 0 6.351 3.094 6.351 7.172 0 4.148-2.883 7.476-6.351 7.476Zm-14.719 25.22h29.438c3.89 0 5.742-1.173 5.742-3.75 0-6.142-7.735-15.024-20.461-15.024-12.727 0-20.485 8.883-20.485 15.023 0 2.578 1.852 3.75 5.766 3.75Zm-1.125-3.54c-.61 0-.867-.164-.867-.656 0-3.844 5.953-11.04 16.71-11.04 10.759 0 16.688 7.196 16.688 11.04 0 .492-.234.656-.843.656Z"/></svg>