<svg xmlns="http://www.w3.org/2000/svg" width="56" height="56" viewBox="0 0 56 56"><path d="M28 27.66c3.485 0 6.326-3.105 6.326-6.883 0-3.735-2.826-6.693-6.326-6.693-3.47 0-6.326 3.002-6.326 6.722.014 3.764 2.855 6.853 6.326 6.853Zm-16.87.322c3.016 0 5.491-2.71 5.491-6.034 0-3.25-2.445-5.872-5.491-5.872-3.017 0-5.507 2.665-5.492 5.901.015 3.31 2.475 6.005 5.492 6.005Zm33.755 0c3.002 0 5.477-2.695 5.477-6.005.015-3.236-2.475-5.901-5.477-5.901-3.06 0-5.506 2.621-5.506 5.872 0 3.324 2.475 6.034 5.506 6.034ZM28 25.448c-2.138 0-3.969-2.05-3.969-4.642 0-2.548 1.802-4.51 3.97-4.51 2.181 0 3.968 1.933 3.968 4.48 0 2.593-1.802 4.672-3.969 4.672Zm-16.87.352c-1.787 0-3.31-1.714-3.31-3.823 0-2.064 1.508-3.72 3.31-3.72 1.845 0 3.324 1.626 3.324 3.691 0 2.138-1.523 3.852-3.324 3.852Zm33.755 0c-1.816 0-3.339-1.714-3.339-3.852 0-2.065 1.479-3.69 3.339-3.69 1.801 0 3.295 1.655 3.295 3.72 0 2.108-1.509 3.822-3.295 3.822ZM2.987 41.41h11.496c-.703-.395-1.245-1.274-1.142-2.167H2.621c-.293 0-.439-.117-.439-.395 0-3.632 4.144-7.03 8.933-7.03 1.845 0 3.5.44 4.92 1.274a7.6 7.6 0 0 1 1.655-1.552c-1.889-1.245-4.159-1.889-6.575-1.889C4.979 29.651 0 34.103 0 38.98c0 1.625.996 2.43 2.987 2.43Zm50.04 0c1.977 0 2.973-.805 2.973-2.43 0-4.877-4.98-9.329-11.115-9.329-2.416 0-4.672.644-6.575 1.89.659.453 1.2.966 1.67 1.551 1.405-.834 3.074-1.274 4.905-1.274 4.789 0 8.933 3.398 8.933 7.03 0 .278-.132.395-.425.395h-10.72c.088.893-.439 1.772-1.142 2.167Zm-34.224 0h18.394c2.43 0 3.588-.732 3.588-2.343 0-3.837-4.848-9.387-12.785-9.387-7.952 0-12.8 5.55-12.8 9.387 0 1.611 1.158 2.343 3.603 2.343ZM18.1 39.2c-.38 0-.541-.103-.541-.41 0-2.403 3.72-6.898 10.441-6.898 6.707 0 10.427 4.495 10.427 6.897 0 .308-.147.41-.527.41Z"/></svg>