<svg xmlns="http://www.w3.org/2000/svg" width="56" height="56" viewBox="0 0 56 56"><path d="M13.785 49.574h28.453c4.899 0 7.336-2.437 7.336-7.265V13.69c0-4.828-2.437-7.265-7.336-7.265H13.785c-4.875 0-7.36 2.414-7.36 7.265v28.62c0 4.851 2.485 7.265 7.36 7.265Zm14.227-13.758c-8.32 0-14.297 4.008-16.828 9.094-.633-.633-.985-1.547-.985-2.789V13.88c0-2.438 1.313-3.68 3.656-3.68h28.313c2.32 0 3.633 1.242 3.633 3.68v28.24c0 1.219-.328 2.156-.961 2.766-2.508-5.086-8.297-9.07-16.828-9.07Zm0-3.914c4.476.047 8.015-3.773 8.015-8.789 0-4.71-3.539-8.601-8.015-8.601s-8.04 3.89-8.016 8.601c.047 5.016 3.54 8.719 8.016 8.79Z"/></svg>