<svg xmlns="http://www.w3.org/2000/svg" width="56" height="56" viewBox="0 0 56 56"><path d="M34.82 9.145h3.54l6.89-.375-3.938 3.585L31.234 22.48a1.68 1.68 0 0 0-.562 1.29c0 .914.75 1.617 1.758 1.617.468 0 .867-.14 1.218-.492L43.726 14.77l3.586-3.891-.375 6.867v3.492c0 .914.68 1.617 1.594 1.664a1.677 1.677 0 0 0 1.758-1.664V7.668c0-1.242-.61-1.875-1.852-1.875H34.82c-.96 0-1.734.797-1.687 1.758a1.66 1.66 0 0 0 1.687 1.594ZM17.594 38.207c6.773 6.773 15.023 12 21.75 12 3.023 0 5.672-1.055 7.804-3.398 1.242-1.383 2.016-3 2.016-4.594 0-1.172-.445-2.297-1.57-3.094l-7.172-5.11c-1.102-.75-2.016-1.124-2.86-1.124-1.078 0-2.015.61-3.093 1.664l-1.664 1.64a1.26 1.26 0 0 1-.891.375c-.375 0-.703-.14-.961-.257-1.43-.774-3.914-2.907-6.234-5.203-2.297-2.297-4.43-4.782-5.18-6.235a2 2 0 0 1-.258-.937c0-.305.094-.61.352-.868l1.64-1.71c1.055-1.079 1.664-2.016 1.664-3.094 0-.844-.375-1.758-1.148-2.86l-5.04-7.101c-.82-1.125-1.968-1.617-3.233-1.617-1.547 0-3.165.703-4.524 2.039-2.273 2.18-3.281 4.875-3.281 7.851 0 6.727 5.133 14.883 11.883 21.633Z"/></svg>