<svg xmlns="http://www.w3.org/2000/svg" width="56" height="56" viewBox="0 0 56 56"><path d="M28 51.906c13.055 0 23.906-10.828 23.906-23.906 0-13.055-10.875-23.906-23.93-23.906C14.899 4.094 4.095 14.945 4.095 28c0 13.078 10.828 23.906 23.906 23.906Zm0-3.984c-11.063 0-19.9-8.86-19.9-19.922 0-11.04 8.813-19.922 19.876-19.922 11.039 0 19.921 8.883 19.945 19.922.023 11.063-8.883 19.922-19.922 19.922Zm-5.625-14.39c5.46 5.484 12.422 8.952 16.547 4.85a3.5 3.5 0 0 0 .398-.468c1.078-1.195 1.383-2.789 0-3.82-1.078-.774-2.226-1.57-4.172-2.93-1.359-.96-2.25-.727-3.304.328l-.938.914c-.281.258-.726.235-1.031.047-.82-.492-2.203-1.594-3.516-2.906-1.289-1.29-2.46-2.742-2.906-3.516-.164-.258-.281-.68.047-.984l.914-.985c1.055-1.101 1.289-1.945.305-3.328l-2.883-4.078c-.985-1.383-2.414-1.125-3.985.047-.117.094-.21.188-.304.281-4.125 4.125-.633 11.086 4.828 16.547Z"/></svg>