<svg xmlns="http://www.w3.org/2000/svg" width="56" height="56" viewBox="0 0 56 56"><path d="M47.256 44.358c.722.721 1.863.721 2.538 0a1.78 1.78 0 0 0 0-2.538L8.65.699a1.827 1.827 0 0 0-2.562 0c-.675.675-.675 1.862 0 2.538ZM35.963 24.216l1.35-9.756c.07-.536.14-.792.63-1.141l5.634-4.075c1.28-.931 1.816-2.072 1.816-3.12 0-1.56-1.234-2.934-3.05-2.934H14.937l3.725 3.749h21.073c.21 0 .35.14.35.35 0 .162-.024.279-.187.395l-4.96 3.307c-.698.442-1.07 1.117-1.187 2.025l-1.025 7.987ZM13.167 37.512h12.434V49.48c0 3.54 1.49 6.52 2.05 6.52.581 0 2.072-2.98 2.072-6.52V37.512h6.543l-3.75-3.749H16.172c-.186 0-.326-.14-.326-.35 0-.139.07-.279.186-.395l5.984-6.24c.396-.42.722-.815.699-1.328-.047-.558-.163-1.164-.28-1.77l-3.679-3.702.396 2.98c.14.956-.186 1.328-.652 1.84l-7.125 7.73c-.675.723-.978 1.421-.978 2.4 0 1.56 1.141 2.584 2.771 2.584Z"/></svg>