<svg xmlns="http://www.w3.org/2000/svg" width="56" height="56" viewBox="0 0 56 56"><path d="M7.688 23.11c0-5.994 3.177-9.128 9.214-9.128H45.41v-.53c0-4.363-2.224-6.565-6.63-6.565H6.65C2.225 6.887 0 9.089 0 13.452v22.303c0 4.363 2.224 6.544 6.65 6.544h1.038Zm9.553 29.398h32.108c4.406 0 6.651-2.203 6.651-6.566V23.428c0-4.342-2.245-6.545-6.65-6.545H17.24c-4.447 0-6.65 2.182-6.65 6.545v22.514c0 4.364 2.203 6.566 6.65 6.566Zm16.054-7.392c-1.25 0-2.033-.89-2.033-2.266v-5.91h-6.164c-1.398 0-2.308-.804-2.308-2.011 0-1.271.89-2.076 2.308-2.076h6.164v-6.29c0-1.398.783-2.288 2.033-2.288s2.054.89 2.054 2.288v6.29h6.206c1.419 0 2.267.784 2.267 2.076 0 1.228-.89 2.012-2.267 2.012H35.35v5.91c0 1.397-.804 2.265-2.054 2.265Z"/></svg>