<svg xmlns="http://www.w3.org/2000/svg" width="56" height="56" viewBox="0 0 56 56"><path d="M22.75 51.027c.914-.633 1.055-1.804.375-2.765-3.867-5.461-6.117-12.68-6.117-20.25s2.344-14.696 6.094-20.25c.68-.985.539-2.156-.352-2.766-.867-.61-2.016-.375-2.695.586-4.266 6.14-6.774 14.063-6.774 22.43s2.485 16.265 6.774 22.406c.68.96 1.828 1.195 2.695.61Zm9.469-6.398c.867-.61 1.008-1.758.328-2.766-2.625-3.703-4.149-8.672-4.149-13.851s1.57-10.102 4.125-13.852c.704-1.008.563-2.156-.304-2.765-.914-.61-2.016-.375-2.696.539-3.14 4.312-4.898 10.054-4.898 16.078 0 6 1.781 11.742 4.898 16.054.657.938 1.782 1.172 2.696.563ZM41.57 38.3c.985-.703 1.125-1.852.399-2.86-1.336-1.851-2.18-4.64-2.18-7.43 0-2.788.82-5.577 2.156-7.405.774-1.032.633-2.227-.375-2.907-.82-.562-1.945-.375-2.625.54-1.828 2.507-2.93 6.093-2.93 9.773s1.079 7.289 2.93 9.75c.68.914 1.805 1.101 2.625.539Z"/></svg>