<svg xmlns="http://www.w3.org/2000/svg" width="56" height="56" viewBox="0 0 56 56"><path d="M7.715 49.574h40.57c4.899 0 7.36-2.437 7.36-7.265V13.69c0-4.828-2.461-7.265-7.36-7.265H7.715C2.84 6.426.355 8.84.355 13.69v28.62c0 4.851 2.485 7.265 7.36 7.265Zm.07-3.773c-2.344 0-3.656-1.242-3.656-3.68V13.88c0-2.438 1.312-3.68 3.656-3.68h40.43c2.32 0 3.656 1.242 3.656 3.68v28.24c0 2.438-1.336 3.68-3.656 3.68Zm35.883-10.149c0-1.242-.703-2.343-2.461-2.343H14.793c-1.758 0-2.461 1.101-2.461 2.343v.868c0 1.242.703 2.343 2.46 2.343h26.415c1.758 0 2.461-1.101 2.461-2.343Z"/></svg>