<svg xmlns="http://www.w3.org/2000/svg" width="56" height="56" viewBox="0 0 56 56"><path d="M7.727 25.106c.539-.258.773-.657.75-1.313-.07-.844-1.032-2.016-1.032-5.133 0-5.015 3.235-8.531 8.297-8.531h.07v3.21c0 1.852 1.454 2.274 2.86 1.22l6.398-4.664c1.078-.774 1.078-1.688 0-2.485l-6.398-4.687c-1.43-1.079-2.86-.656-2.86 1.242V7.41h-.093c-6.727 0-11.203 4.524-11.203 11.227 0 2.508.515 4.57 1.242 5.812.398.68 1.242 1.008 1.968.657Zm37.734 29.25c4.008 0 6.023-1.922 6.023-6.024v-23.18c0-4.101-2.015-6.023-6.023-6.023H22.234c-4.008 0-6.023 1.922-6.023 6.023v23.18c0 4.102 2.016 6.024 6.023 6.024Zm-.07-3.774H22.305c-1.618 0-2.32-.656-2.32-2.32v-23.04c0-1.663.702-2.32 2.32-2.32H45.39c1.617 0 2.32.657 2.32 2.32v23.04c0 1.664-.703 2.32-2.32 2.32Z"/></svg>