<svg xmlns="http://www.w3.org/2000/svg" width="56" height="56" viewBox="0 0 56 56"><path d="M20.77 49.75h14.46c3.282 0 5.04-1.922 5.04-5.016v-10.5h9.539c1.898 0 3.398-1.172 3.398-2.953 0-1.101-.54-1.922-1.406-2.765L30.895 7.68c-.891-.914-1.852-1.43-2.883-1.43-1.055 0-1.992.516-2.907 1.43L4.2 28.516c-.89.89-1.406 1.664-1.406 2.765 0 1.782 1.5 2.953 3.422 2.953h9.516v10.5c0 3.094 1.757 5.016 5.039 5.016Zm.375-3.633c-.891 0-1.5-.61-1.5-1.476V31.492c0-.586-.211-.797-.774-.797H8.067c-.165 0-.258-.07-.258-.187 0-.094.023-.164.14-.281l19.57-19.453a.61.61 0 0 1 .493-.235c.164 0 .305.047.492.235l19.57 19.453c.094.117.141.187.141.28 0 .118-.094.188-.258.188H37.13c-.562 0-.773.211-.773.797v13.149c0 .843-.633 1.476-1.5 1.476Z"/></svg>