<svg xmlns="http://www.w3.org/2000/svg" width="56" height="56" viewBox="0 0 56 56"><path d="M8.21 42.225 26.252 52.45q.963.55 1.891.55t1.914-.55l18.02-10.225q1.582-.917 2.395-2.075.814-1.157.814-3.61V18.383q0-1.788-.676-2.957-.677-1.17-2.12-2.018L32.257 4.192Q30.195 3 28.155 3t-4.127 1.192L7.82 13.408q-1.467.849-2.144 2.018Q5 16.595 5 18.383V36.54q0 2.453.825 3.61t2.385 2.075Zm2.063-3.026q-1.01-.573-1.399-1.204-.39-.63-.39-1.57V19.116l17.86 10.202v19.028zm35.763 0-16.093 9.147V29.318L47.8 19.116v17.309q0 .94-.39 1.57T46.037 39.2Zm-17.881-13.09L10.456 16.09l7.084-4.057 17.698 10.064zm10.774-6.098L21.162 9.969l4.402-2.499q2.614-1.49 5.181 0l15.108 8.62z"/></svg>