<svg xmlns="http://www.w3.org/2000/svg" width="56" height="56" viewBox="0 0 56 56"><path d="M.332 40.012c0 1.5 1.102 2.531 2.766 2.531h5.344c4.03 0 6.468-1.172 9.375-4.57l5.273-6.141 5.25 6.14c2.906 3.4 5.32 4.594 9.422 4.594h4.289v5.203c0 1.266.797 2.063 2.11 2.063.562 0 1.148-.21 1.57-.586l8.859-7.312c1.078-.868 1.055-2.274 0-3.141l-8.86-7.36a2.4 2.4 0 0 0-1.57-.585c-1.312 0-2.11.797-2.11 2.062v4.547h-4.17c-2.414 0-3.914-.773-5.836-3l-5.601-6.539 5.601-6.516c1.922-2.25 3.422-3.023 5.836-3.023h4.172v4.71c0 1.267.797 2.063 2.11 2.063.562 0 1.148-.21 1.57-.586l8.859-7.312c1.078-.867 1.055-2.25 0-3.14l-8.86-7.36a2.4 2.4 0 0 0-1.57-.586c-1.312 0-2.11.797-2.11 2.062v5.063h-4.288c-4.102 0-6.516 1.195-9.422 4.594l-5.25 6.14-5.273-6.14c-2.907-3.399-5.344-4.594-9.375-4.594H3.097c-1.664 0-2.766 1.031-2.766 2.555 0 1.5 1.125 2.554 2.766 2.554h5.437c2.274 0 3.703.774 5.602 3l5.601 6.516-5.601 6.54c-1.922 2.226-3.352 3-5.602 3H3.098c-1.64 0-2.766 1.054-2.766 2.554Z"/></svg>