<svg xmlns="http://www.w3.org/2000/svg" width="56" height="56" viewBox="0 0 56 56"><path d="M1.188 43.487h12.506c-.246.943-.378 1.867-.378 2.716 0 3.037 1.698 5.206 5.263 5.206 4.338 0 7.846-3.056 10.11-7.922h26.123c.66 0 1.188-.51 1.188-1.17s-.528-1.15-1.188-1.15h-25.18c1.056-3.093 1.697-6.715 1.83-10.638a17 17 0 0 1 3.715-.396c.66 0 1.037.283 1.037.773 0 1.641-.886 2.924-.886 4.565 0 1.433 1.056 2.3 2.433 2.3 3.829 0 8.45-6.544 9.978-6.544 1.395 0-.34 5.885 4.413 5.885.774 0 1.773-.208 2.547-.698.452-.32.773-.773.773-1.358 0-.717-.453-1.302-1.207-1.302-.66 0-1.207.547-1.849.547-2.037 0-.094-6.262-3.847-6.262-3.282 0-8.413 6.375-9.714 6.375-.17 0-.302-.094-.302-.32 0-.68.849-2.207.849-3.735 0-1.886-1.566-3.093-4.018-3.093-1.339 0-2.66.132-3.923.377-.415-9.94-5.13-17.767-12.335-17.767-4.848 0-8.582 4.13-8.582 9.393 0 6.149 3.998 11.41 8.978 14.9-2.207 2.17-3.923 4.64-4.98 6.998H1.188c-.66 0-1.188.49-1.188 1.15s.528 1.17 1.188 1.17Zm12.223-24.218c0-3.678 2.49-6.526 5.715-6.526 5.658 0 9.317 7.035 9.487 15.674-2.603.905-4.98 2.282-7.035 3.923-3.924-2.716-8.167-7.205-8.167-13.071ZM.64 37.149c.49.49 1.226.472 1.736 0l2.357-2.357 2.358 2.358c.49.49 1.245.49 1.735 0s.49-1.245 0-1.736L6.47 33.075l2.357-2.357c.49-.49.49-1.226 0-1.717-.49-.509-1.245-.49-1.735 0l-2.358 2.34L2.377 29c-.51-.509-1.245-.509-1.736 0-.49.49-.49 1.245 0 1.717L3 33.075l-2.358 2.34c-.49.508-.49 1.244 0 1.735Zm22.993-.603c.245.113.471.17.697.17.774 0 1.32-.604 1.32-1.245 0-.472-.226-.924-.773-1.188a34 34 0 0 1-.81-.416 21.5 21.5 0 0 1 4.488-2.451c-.226 3.64-.924 6.997-1.999 9.751H17.58c.98-1.849 2.452-3.791 4.32-5.508.565.321 1.15.604 1.735.887Zm-7.375 9.11c0-.66.113-1.396.358-2.17h8.865c-1.698 3.132-3.98 5.056-6.583 5.056-1.81 0-2.64-1.188-2.64-2.886Z"/></svg>