<svg xmlns="http://www.w3.org/2000/svg" width="56" height="56" viewBox="0 0 56 56"><path d="M28 51.906c13.055 0 23.906-10.828 23.906-23.906 0-13.055-10.875-23.906-23.93-23.906C14.899 4.094 4.095 14.945 4.095 28c0 13.078 10.828 23.906 23.906 23.906Zm0-3.984c-11.063 0-19.9-8.86-19.9-19.922 0-11.04 8.813-19.922 19.876-19.922 11.039 0 19.921 8.883 19.945 19.922.023 11.063-8.883 19.922-19.922 19.922Zm-.094-10.945c4.899 0 8.953-4.032 8.953-8.977 0-4.898-4.054-8.93-8.953-8.93-4.922 0-8.976 4.032-8.976 8.93 0 4.945 4.054 8.977 8.976 8.977Zm0-3.704c-2.906 0-5.25-2.367-5.25-5.273 0-2.836 2.344-5.227 5.25-5.227 2.836 0 5.203 2.391 5.203 5.227 0 2.906-2.367 5.273-5.203 5.273Z"/></svg>