<svg xmlns="http://www.w3.org/2000/svg" width="56" height="56" viewBox="0 0 56 56"><path d="m39.531 33.191 3.328 3.328c2.203-.492 3.422-2.273 3.422-5.109v-9.094c0-3.515-1.781-5.32-5.086-5.32h-6.82c-.234 0-.445-.07-.586-.21L22.773 7.011c-1.265-1.125-2.015-1.688-3.164-1.688-1.64 0-2.812 1.313-2.812 2.883v2.273l3.773 3.75V10.62c0-.187.14-.328.352-.328.14 0 .281.094.398.188l10.524 9.539c.468.468.797.515 1.43.515h7.757c.914 0 1.477.563 1.477 1.477v9.703c0 .914-.563 1.476-1.477 1.476Zm7.242 16.782c.727.703 1.875.703 2.555 0 .703-.727.727-1.852 0-2.555L9.203 7.293a1.84 1.84 0 0 0-2.578 0c-.68.68-.68 1.875 0 2.555ZM31.422 39.074l-2.625-2.625-7.5 6.727a.53.53 0 0 1-.399.21c-.187 0-.328-.14-.328-.35v-14.79l-3.773-3.773V45.59c0 1.57 1.172 2.742 2.765 2.742 1.149 0 2.063-.492 3.211-1.523Z"/></svg>