<svg xmlns="http://www.w3.org/2000/svg" width="56" height="56" viewBox="0 0 56 56"><path d="M26.68 12.579v35.308c0 .705.615 1.266 1.32 1.266s1.338-.561 1.338-1.266V12.579c0-.705-.633-1.248-1.338-1.248s-1.32.543-1.32 1.248ZM4.16 40.832h12.88c2.767 0 4.16-1.338 4.16-4.124V23.74c0-2.75-1.393-4.106-4.16-4.106H4.16C1.393 19.633 0 20.99 0 23.74v12.97c0 2.785 1.393 4.123 4.16 4.123Zm34.801 0H51.84c2.767 0 4.16-1.338 4.16-4.124V23.74c0-2.75-1.393-4.106-4.16-4.106H38.961c-2.767 0-4.16 1.357-4.16 4.106v12.97c0 2.785 1.393 4.123 4.16 4.123ZM4.377 38.101c-1.067 0-1.646-.543-1.646-1.664v-12.39c0-1.14.58-1.682 1.646-1.682h12.445c1.067 0 1.646.542 1.646 1.682v12.39c0 1.121-.58 1.664-1.646 1.664Zm34.801 0c-1.067 0-1.645-.543-1.645-1.664v-12.39c0-1.14.578-1.682 1.645-1.682h12.445c1.067 0 1.646.542 1.646 1.682v12.39c0 1.121-.579 1.664-1.646 1.664Z"/></svg>