<svg xmlns="http://www.w3.org/2000/svg" width="56" height="56" viewBox="0 0 56 56"><path d="M22.31 30.258c.883 0 1.622-.739 1.622-1.601V7.575l-.123-3.06 1.396 1.458 3.1 3.305c.287.329.718.493 1.108.493.862 0 1.498-.616 1.498-1.437 0-.451-.164-.78-.472-1.088L23.501.554C23.09.144 22.72 0 22.31 0c-.432 0-.78.143-1.192.554L14.18 7.246c-.308.308-.493.636-.493 1.088 0 .821.616 1.437 1.478 1.437a1.5 1.5 0 0 0 1.13-.493l3.12-3.305 1.396-1.478-.144 3.08v21.082c0 .862.76 1.601 1.642 1.601ZM10.527 46.331h5.44v3.305c0 4.23 2.155 6.364 6.425 6.364h21.945c4.29 0 6.425-2.114 6.425-6.364V28.041c0-4.229-2.135-6.364-6.425-6.364h-3.819v-1.95c0-4.229-2.135-6.363-6.445-6.363h-5.707v3.305h5.666c2.011 0 3.181 1.087 3.181 3.222v19.913c0 2.134-1.17 3.222-3.181 3.222H10.589c-2.053 0-3.203-1.088-3.203-3.223V19.892c0-2.134 1.15-3.222 3.203-3.222h5.665v-3.306h-5.727c-4.27 0-6.446 2.115-6.446 6.364v20.24c0 4.25 2.176 6.364 6.446 6.364Zm11.927 6.364c-2.032 0-3.182-1.088-3.182-3.223v-3.14h14.8c4.311 0 6.446-2.136 6.446-6.364V24.982h3.757c2.053 0 3.182 1.109 3.182 3.244v21.246c0 2.135-1.13 3.223-3.182 3.223Z"/></svg>