<svg xmlns="http://www.w3.org/2000/svg" width="56" height="56" viewBox="0 0 56 56"><path d="M42.238 6.426c4.8 0 7.238 2.34 7.333 6.979l.003.286V42.31c0 4.731-2.34 7.167-7.045 7.262l-.29.003H13.784c-4.777 0-7.259-2.318-7.356-6.977l-.003-.288V13.69c0-4.754 2.386-7.168 7.07-7.262l.29-.003zm-.07 3.773H13.855c-2.268 0-3.57 1.164-3.652 3.448l-.004.232V42.12c0 2.359 1.23 3.598 3.433 3.676l.223.004h28.313c2.245 0 3.547-1.164 3.629-3.448l.004-.232V13.88c0-2.359-1.23-3.598-3.412-3.676zM33 38a2 2 0 1 1 0 4H15a2 2 0 1 1 0-4zm8-7a2 2 0 1 1 0 4H15a2 2 0 1 1 0-4zM14.1 14.239c1.465-1.645 3.856-1.652 5.31-.02l.24.277h0l.198.248h0l.162.216h0l.18.259h0l.156.262h0l.073-.13h0l.127-.2h0l.126-.18.077-.103.182-.234.107-.13.246-.285h0c1.448-1.627 3.844-1.625 5.31.02s1.42 4.202.017 5.961l-.304.367h0l-.376.43h0l-.432.477h0l-.716.77h0l-.75.787h0l-.958.985h0l-.677.679h0l-.512.497h0l-.125.114h0c-1.043.921-1.761.897-2.72.096l-.18-.158h0l-.237-.225h0l-.808-.799h0l-.891-.904h0l-.962-1h0l-.378-.403h0l-.535-.581h0l-.475-.534h0l-.27-.319q-.124-.15-.223-.279c-1.444-1.875-1.447-4.316.018-5.961Z"/></svg>