<svg xmlns="http://www.w3.org/2000/svg" width="56" height="56" viewBox="0 0 56 56"><path d="M27.297 51.977c.96 0 1.734-.704 2.062-1.36L16.797 28.891c-.211-.328-.352-.633-.352-.891s.141-.562.352-.89L29.359 5.382c-.328-.656-1.101-1.36-2.062-1.36-.727 0-1.547.422-2.04 1.29L13.353 25.445c-.586.985-1.008 1.688-1.008 2.555 0 .844.422 1.57 1.008 2.555l11.906 20.133c.539.89 1.312 1.289 2.039 1.289Zm11.719-.024c1.289 0 2.133-.75 3.257-2.625l10.664-18.351c.657-1.125.961-2.04.961-2.977 0-.961-.304-1.852-.96-2.977L42.273 6.672c-1.125-1.875-1.968-2.625-3.257-2.625s-2.133.75-3.235 2.625L25.094 25.023c-.657 1.125-.961 2.016-.961 2.977 0 .938.305 1.852.96 2.977l10.688 18.351c1.102 1.875 1.946 2.625 3.235 2.625Zm-23.18-44.39c.844 0 1.547-.68 1.547-1.524 0-.867-.703-1.547-1.547-1.547s-1.547.68-1.547 1.547c0 .844.703 1.524 1.547 1.524Zm-2.414 4.335a1.52 1.52 0 0 0 1.523-1.523c0-.867-.68-1.547-1.523-1.547a1.53 1.53 0 0 0-1.547 1.547c0 .844.68 1.523 1.547 1.523Zm25.594 35.157c-.117 0-.164-.07-.235-.188L28.563 29.031c-.235-.375-.329-.703-.329-1.031s.094-.656.328-1.031l10.22-17.86c.07-.093.117-.164.234-.164s.187.07.234.164l10.219 17.86c.234.375.351.703.351 1.031s-.117.656-.351 1.031L39.25 46.867c-.047.117-.117.188-.234.188ZM10.96 16.28a1.546 1.546 0 1 0 0-3.093c-.844 0-1.524.703-1.524 1.546s.68 1.547 1.524 1.547ZM8.5 20.594a1.53 1.53 0 0 0 1.547-1.547c0-.844-.68-1.524-1.547-1.524a1.52 1.52 0 0 0-1.523 1.524c0 .867.68 1.547 1.523 1.547Zm-2.414 4.36c.844 0 1.547-.68 1.547-1.524 0-.867-.703-1.547-1.547-1.547s-1.524.68-1.524 1.547c0 .843.68 1.523 1.524 1.523Zm-2.438 4.335a1.52 1.52 0 0 0 1.524-1.523c0-.868-.68-1.547-1.523-1.547a1.53 1.53 0 0 0-1.547 1.547c0 .843.68 1.523 1.547 1.523Zm2.438 4.336c.844 0 1.547-.68 1.547-1.523 0-.868-.703-1.547-1.547-1.547s-1.524.68-1.524 1.547c0 .843.68 1.523 1.524 1.523ZM8.5 38.008c.867 0 1.547-.703 1.547-1.547s-.68-1.547-1.547-1.547c-.844 0-1.523.703-1.523 1.547s.68 1.547 1.523 1.547Zm2.461 4.312a1.546 1.546 0 1 0 0-3.093c-.844 0-1.524.703-1.524 1.546s.68 1.547 1.524 1.547Zm2.46 4.336c.845 0 1.524-.68 1.524-1.547a1.52 1.52 0 0 0-1.523-1.523c-.867 0-1.547.68-1.547 1.523 0 .868.68 1.547 1.547 1.547Zm2.415 4.36c.844 0 1.547-.68 1.547-1.547s-.703-1.547-1.547-1.547-1.547.68-1.547 1.547.703 1.547 1.547 1.547Z"/></svg>