<svg xmlns="http://www.w3.org/2000/svg" width="56" height="56" viewBox="0 0 56 56"><path d="M42.239 6.426c4.898 0 7.336 2.438 7.336 7.266h0v28.617c0 4.828-2.438 7.265-7.337 7.265h0-28.453c-4.875 0-7.359-2.414-7.359-7.265h0V13.692c0-4.852 2.484-7.266 7.36-7.266h0ZM16 36a2 2 0 1 0 0 4 2 2 0 0 0 0-4Zm25.182 0H24.818C23.814 36 23 36.896 23 38s.814 2 1.818 2h16.364C42.186 40 43 39.105 43 38s-.814-2-1.818-2ZM16 26a2 2 0 1 0 0 4 2 2 0 0 0 0-4Zm25.182 0H24.818C23.814 26 23 26.896 23 28s.814 2 1.818 2h16.364C42.186 30 43 29.105 43 28s-.814-2-1.818-2ZM16 16a2 2 0 1 0 0 4 2 2 0 0 0 0-4Zm25.182 0H24.818C23.814 16 23 16.896 23 18s.814 2 1.818 2h16.364C42.186 20 43 19.105 43 18s-.814-2-1.818-2Z"/></svg>