<svg xmlns="http://www.w3.org/2000/svg" width="56" height="56" viewBox="0 0 56 56"><path d="M7.328 43.504c.445 0 .914-.14 1.383-.469V17.957c0-.844.164-1.172.914-1.57L31.352 3.87c.07-1.547-.915-2.508-2.25-2.508-.61 0-1.266.164-1.97.586L7.493 13.246c-2.297 1.336-2.578 1.758-2.578 4.43v22.43c0 2.015.96 3.398 2.414 3.398Zm9.375 5.414c.422 0 .89-.14 1.383-.469V23.371c0-.914.117-1.148.89-1.57L40.703 9.26c.07-1.523-.89-2.507-2.25-2.507-.586 0-1.266.187-1.945.562L16.82 18.636c-2.297 1.313-2.555 1.805-2.555 4.43V45.52c0 2.015 1.008 3.398 2.438 3.398Zm10.031 5.719c.82 0 1.805-.328 2.977-.985l18.375-10.547c2.156-1.242 3-2.53 3-5.156l-.047-21.234c0-2.813-1.008-4.242-2.766-4.242-.773 0-1.758.304-2.859.937L26.992 24.027c-2.203 1.29-2.977 2.602-2.977 5.157v21.234c0 2.719.961 4.219 2.72 4.219Z"/></svg>