<svg xmlns="http://www.w3.org/2000/svg" width="56" height="56" viewBox="0 0 56 56"><path d="M5.653 32.3c0 6.071 4.054 10.126 10.101 10.126 2.625 0 5.227-.867 6.914-2.25-.96 2.554-2.695 4.453-3.703 5.648-1.453 1.805-.773 4.196 1.781 4.196h14.485c2.554 0 3.234-2.391 1.78-4.196-1.007-1.195-2.741-3.093-3.679-5.648 1.664 1.383 4.266 2.25 6.89 2.25 6.048 0 10.125-4.055 10.125-10.125 0-5.602-4.57-10.149-10.124-10.149-1.688 0-3.422.446-4.992 1.22a10.65 10.65 0 0 0 2.882-7.243c0-5.602-4.547-10.149-10.125-10.149-5.554 0-10.101 4.547-10.101 10.149 0 2.39.82 5.039 2.883 7.242-1.57-.773-3.305-1.219-5.016-1.219-5.555 0-10.101 4.547-10.101 10.149Zm3.328.071c0-3.773 3.047-6.797 6.773-6.797 2.86 0 4.852.938 6.469 1.57.703.235 1.312.422 1.898.422.844 0 1.664-.562 1.664-1.64a2.65 2.65 0 0 0-.656-1.711c-2.11-2.438-3.914-4.36-3.914-8.016a6.767 6.767 0 0 1 6.773-6.797 6.787 6.787 0 0 1 6.797 6.797c0 3.656-1.828 5.578-3.937 8.016-.399.492-.656 1.101-.656 1.71 0 1.079.843 1.641 1.664 1.641.609 0 1.172-.187 1.875-.421 1.617-.61 3.609-1.57 6.492-1.57 3.726 0 6.797 3.023 6.797 6.796 0 4.055-2.72 6.727-6.797 6.727-2.836 0-5.555-1.125-7.102-2.532-1.406-1.242-3.445-.656-3.351 1.477.258 2.414 1.875 6.023 3.539 8.016.328.398.14.726-.211.726H22.902c-.375 0-.562-.328-.234-.726 1.664-1.993 3.281-5.602 3.54-8.016.093-2.133-1.946-2.719-3.352-1.477-1.547 1.407-4.266 2.532-7.102 2.532-4.078 0-6.773-2.672-6.773-6.727Z"/></svg>