<svg xmlns="http://www.w3.org/2000/svg" width="56" height="56" viewBox="0 0 56 56"><path d="M30.04 4.61c0-1.102-.938-2.04-2.04-2.04s-2.039.938-2.039 2.04v4.92c0 1.102.938 2.04 2.04 2.04 1.1 0 2.038-.938 2.038-2.04Zm9.538 8.929c-.773.797-.773 2.11 0 2.883.797.797 2.086.82 2.906 0l3.493-3.492a2.065 2.065 0 0 0 0-2.907c-.774-.773-2.086-.773-2.883 0Zm-26.062 2.883c.773.797 2.086.797 2.882 0 .774-.75.774-2.11.024-2.883l-3.492-3.516c-.75-.75-2.086-.773-2.883 0-.774.774-.774 2.11-.024 2.883ZM28 16.047c-6.539 0-11.953 5.414-11.953 11.953S21.46 39.977 28 39.977c6.516 0 11.93-5.438 11.93-11.977S34.516 16.047 28 16.047Zm0 3.586c4.57 0 8.367 3.797 8.367 8.367S32.57 36.39 28 36.39c-4.594 0-8.39-3.82-8.39-8.39s3.796-8.367 8.39-8.367Zm23.32 10.406c1.102 0 2.04-.937 2.04-2.039s-.938-2.04-2.04-2.04h-4.898c-1.102 0-2.04.938-2.04 2.04s.938 2.039 2.04 2.039ZM4.68 25.961c-1.102 0-2.04.937-2.04 2.039s.938 2.039 2.04 2.039h4.898c1.102 0 2.04-.937 2.04-2.039s-.938-2.04-2.04-2.04ZM42.46 39.6a2.08 2.08 0 0 0-2.883 0c-.773.774-.773 2.087 0 2.883L43.094 46c.797.773 2.11.75 2.883-.023.797-.774.797-2.086 0-2.883Zm-32.437 3.47c-.797.773-.797 2.109-.024 2.882.774.774 2.11.797 2.906.024l3.492-3.493c.774-.773.774-2.086.024-2.882-.774-.774-2.11-.774-2.906 0Zm20.015 3.398c0-1.102-.937-2.04-2.039-2.04s-2.039.938-2.039 2.04v4.922c0 1.101.938 2.039 2.04 2.039 1.1 0 2.038-.938 2.038-2.04Z"/></svg>