<svg xmlns="http://www.w3.org/2000/svg" width="56" height="56" viewBox="0 0 56 56"><path d="M28.01 24.25c.962 0 1.77-.874 1.77-1.944v-8.172l-.262-3.3 1.617 1.858 2.732 2.753c.327.306.742.502 1.18.502.873 0 1.485-.59 1.485-1.463 0-.46-.153-.809-.524-1.158L29.19 6.989c-.46-.415-.787-.568-1.18-.568-.415 0-.721.153-1.18.568l-6.817 6.337c-.371.35-.524.699-.524 1.157 0 .874.611 1.464 1.485 1.464.415 0 .852-.196 1.158-.502l2.95-2.972 1.398-1.638-.262 3.299v8.172c0 1.07.83 1.944 1.792 1.944Zm11.253 5.987c.7.677 1.858.677 2.666-.11l3.801-3.801c.809-.809.787-1.945.088-2.622-.655-.7-1.813-.721-2.622.087l-3.802 3.802c-.786.809-.808 1.988-.13 2.644Zm-22.526 0c.677-.677.677-1.835-.131-2.644l-3.802-3.802c-.809-.808-1.923-.764-2.622-.087-.7.655-.7 1.813.109 2.622l3.802 3.802c.808.786 1.966.808 2.644.109ZM1.9 51.955h52.198c1.049 0 1.901-.786 1.901-1.77 0-.961-.852-1.748-1.9-1.748H37.69a11.7 11.7 0 0 0 2.273-6.926c0-6.555-5.441-11.973-11.952-11.973-6.533 0-11.952 5.418-11.952 11.973 0 2.6.83 4.982 2.273 6.926H1.9c-1.026 0-1.9.787-1.9 1.748 0 .984.874 1.77 1.9 1.77Zm17.676-10.444c0-4.632 3.802-8.434 8.434-8.434s8.434 3.802 8.434 8.434a8.3 8.3 0 0 1-3.736 6.926H23.29a8.33 8.33 0 0 1-3.714-6.926ZM4.741 42.735h5.375c1.136 0 1.989-.809 1.967-1.77-.022-.983-.83-1.792-1.967-1.792H4.741c-1.136 0-1.944.809-1.944 1.792 0 .961.808 1.77 1.944 1.77Zm41.164 0h5.376c1.114 0 1.944-.809 1.944-1.77 0-.983-.83-1.792-1.944-1.792h-5.376c-1.136 0-1.988.809-1.966 1.792.022.961.83 1.77 1.966 1.77Z"/></svg>