<svg xmlns="http://www.w3.org/2000/svg" width="56" height="56" viewBox="0 0 56 56"><path d="M6.168 11.36h43.64c1.008 0 1.805-.774 1.805-1.782 0-.984-.797-1.758-1.804-1.758H6.168c-1.008 0-1.781.774-1.781 1.758a1.75 1.75 0 0 0 1.78 1.781Zm0 12.28h43.64c1.008 0 1.805-.773 1.805-1.78 0-.985-.797-1.758-1.804-1.758H6.168c-1.008 0-1.781.773-1.781 1.757 0 1.008.773 1.782 1.78 1.782ZM10.058 43h6.891v2.438c0 1.921 1.828 2.624 3.281 1.453l6.352-5.086c.96-.774.96-2.11 0-2.86l-6.352-5.062c-1.406-1.149-3.28-.422-3.28 1.406v2.344h-6.376c-.562 0-.797-.305-.797-.797v-4.5c0-1.898-.984-3.07-2.695-3.07s-2.695 1.172-2.695 3.07v5.32c0 3.305 2.367 5.344 5.672 5.344Zm23.743-7.078h16.008a1.786 1.786 0 0 0 1.804-1.781c0-.985-.797-1.758-1.804-1.758H33.8c-1.008 0-1.782.773-1.782 1.758 0 .984.774 1.78 1.782 1.78Zm0 12.258h16.008c1.008 0 1.804-.774 1.804-1.758s-.797-1.781-1.804-1.781H33.8a1.766 1.766 0 0 0-1.782 1.78c0 .985.774 1.759 1.782 1.759Z"/></svg>