<svg xmlns="http://www.w3.org/2000/svg" width="56" height="56" viewBox="0 0 56 56"><path d="M16.094 52.316c.937 0 1.594-.468 2.695-1.5l8.484-7.734 15.82.023c6.985.024 10.735-3.867 10.735-10.734V14.418c0-6.867-3.75-10.734-10.734-10.734H12.906c-6.96 0-10.734 3.843-10.734 10.734v17.953c0 6.89 3.773 10.734 10.734 10.711h1.102v6.82c0 1.453.773 2.414 2.086 2.414ZM14.898 16.81c-.843 0-1.5-.657-1.5-1.524 0-.773.657-1.453 1.5-1.453h26.227c.82 0 1.5.68 1.5 1.453a1.5 1.5 0 0 1-1.5 1.524Zm0 8.39a1.48 1.48 0 0 1-1.5-1.5 1.49 1.49 0 0 1 1.5-1.476h26.227c.82 0 1.5.68 1.5 1.476 0 .844-.68 1.5-1.5 1.5Zm0 8.414c-.843 0-1.5-.68-1.5-1.5 0-.867.657-1.5 1.5-1.5h17.063c.797 0 1.477.633 1.477 1.5 0 .82-.68 1.5-1.477 1.5Z"/></svg>