<svg xmlns="http://www.w3.org/2000/svg" width="56" height="56" viewBox="0 0 56 56"><path d="M25.012 54.04c6.75 0 12.234-5.485 12.234-12.235 0-3.563-1.476-6.68-4.266-9.211-.515-.469-.632-.727-.632-1.43l.047-21.047c0-4.898-2.977-8.156-7.383-8.156-4.43 0-7.407 3.258-7.407 8.156l.024 21.047c0 .703-.117.961-.61 1.43-2.812 2.531-4.265 5.648-4.265 9.21 0 6.75 5.46 12.235 12.258 12.235Zm0-3.4c-4.875 0-8.836-3.984-8.836-8.835 0-2.93 1.383-5.578 3.867-7.242.727-.493 1.008-.938 1.008-1.899V10.258c0-2.953 1.617-4.852 3.96-4.852 2.321 0 3.915 1.899 3.915 4.852v22.406c0 .961.281 1.406 1.008 1.898 2.484 1.665 3.867 4.313 3.867 7.243 0 4.851-3.938 8.836-8.79 8.836Zm11.742-40.077h5.11a1.35 1.35 0 0 0 1.382-1.36 1.35 1.35 0 0 0-1.383-1.36h-5.11a1.35 1.35 0 0 0-1.382 1.36c0 .727.563 1.36 1.383 1.36Zm0 6.585h5.11a1.35 1.35 0 0 0 1.382-1.359 1.35 1.35 0 0 0-1.383-1.36h-5.11a1.35 1.35 0 0 0-1.382 1.36c0 .727.563 1.36 1.383 1.36Zm-11.766 30.33a5.667 5.667 0 0 0 5.672-5.696c0-2.203-1.242-4.008-3.047-4.992-.75-.398-1.008-.68-1.008-1.828V22.516c0-1.22-.703-1.946-1.617-1.946-.89 0-1.617.727-1.617 1.946V34.96c0 1.148-.258 1.43-1.008 1.828-1.804.984-3.047 2.79-3.047 4.992a5.667 5.667 0 0 0 5.672 5.696Zm11.766-23.743h5.11a1.35 1.35 0 0 0 1.382-1.359 1.37 1.37 0 0 0-1.383-1.383h-5.11a1.37 1.37 0 0 0-1.382 1.383c0 .727.563 1.36 1.383 1.36Zm0 6.586h5.11a1.37 1.37 0 0 0 1.382-1.383 1.35 1.35 0 0 0-1.383-1.359h-5.11a1.35 1.35 0 0 0-1.382 1.36 1.37 1.37 0 0 0 1.383 1.382Z"/></svg>