<svg xmlns="http://www.w3.org/2000/svg" width="56" height="56" viewBox="0 0 56 56"><path d="M7.627 16.697 23.812 5.364a4 4 0 0 1 5.57.982l2.553 3.645q.056.08.107.163zM2.147 29.84 1.04 25.708a4 4 0 0 1 2.83-4.898L44.438 9.94a4 4 0 0 1 4.899 2.828l1.151 4.298a3.2 3.2 0 0 1-1.121 3.35 5.001 5.001 0 0 0 2.433 8.903 3.08 3.08 0 0 1 2.576 2.255l1.172 4.377a4 4 0 0 1-2.828 4.899L12.15 51.72a4 4 0 0 1-4.898-2.828l-1.103-4.118a3.48 3.48 0 0 1 1.16-3.6 5.001 5.001 0 0 0-2.37-8.812 3.46 3.46 0 0 1-2.791-2.52zm35.478-6.689a3 3 0 1 0-1.553-5.795 3 3 0 0 0 1.553 5.795zm2.07 7.728a3 3 0 1 0-1.552-5.796 3 3 0 0 0 1.553 5.796zm2.071 7.727a3 3 0 1 0-1.552-5.795 3 3 0 0 0 1.552 5.795z"/></svg>