<svg xmlns="http://www.w3.org/2000/svg" width="56" height="56" viewBox="0 0 56 56"><path d="M28 51.906C14.797 51.906 4.094 41.203 4.094 28S14.797 4.094 28 4.094 51.906 14.797 51.906 28 41.203 51.906 28 51.906ZM28 7.92c11.09 0 20.081 8.99 20.081 20.081S39.091 48.081 28 48.081 7.919 39.091 7.919 28a20.02 20.02 0 0 1 6.185-14.497q.216-.207.558-.507h0l.092-.071a.93.93 0 0 1 1.242.185h0l.019.023a.956.956 0 0 1-.112 1.318q-.327.288-.53.485A18.1 18.1 0 0 0 9.83 28c0 10.034 8.135 18.169 18.169 18.169S46.169 38.034 46.169 28 38.034 9.831 28 9.831h0v8.606a.956.956 0 1 1-1.913 0h0V8.875a.956.956 0 0 1 1.127-.941q.39-.015.786-.015ZM17.031 18.438c-.82-1.172.399-2.391 1.57-1.57h0L31 25.515c2.227 1.547 2.601 4.172.75 6.093-1.899 1.852-4.523 1.453-6.07-.773h0Z" fill-rule="evenodd"/></svg>