<svg xmlns="http://www.w3.org/2000/svg" width="56" height="56" viewBox="0 0 56 56"><path d="M27.637 23.582c14.343 0 22.593-3.633 22.593-8.578 0-4.547-6.539-7.336-15.937-7.336-7.031 0-12.492 1.36-16.64 3.328-1.15.54-1.383 1.64-.985 2.438.469.89 1.617 1.125 2.578.75 3.727-1.594 8.485-3.118 14.836-3.118 7.898 0 12.492 1.875 12.492 3.914 0 2.391-7.148 5.086-19.101 5.086-11.766 0-18.047-2.32-18.047-6.75 0-2.578 2.39-5.343 9.187-7.523 1.125-.375 1.617-1.29 1.29-2.25-.329-.96-1.172-1.336-2.485-.937C9.567 4.949 5.77 9.074 5.77 13.41c0 6.656 7.523 10.172 21.867 10.172Zm.703 7.734c7.336 0 14.086-1.195 18.844-3.164.914-.375 1.359-1.289.914-2.109-.422-.82-1.266-.96-2.32-.562-4.36 1.663-10.641 2.788-17.438 2.788-5.04 0-10.781-.609-15.281-1.945-1.055-.305-1.922.024-2.18.914-.281.867.164 1.711 1.266 2.016 4.828 1.36 10.922 2.062 16.195 2.062Zm1.594 7.641c6.117-.047 11.906-.937 17.156-2.719 1.265-.445 1.43-1.43 1.148-2.156-.328-.82-1.172-1.055-2.367-.68-5.203 1.688-10.383 2.508-15.937 2.508-2.367 0-4.829-.187-6.774-.445-1.125-.14-1.828.304-1.969 1.148-.164.844.282 1.64 1.5 1.852 1.805.328 4.313.515 7.243.492ZM27.8 46.152c4.265.492 9.398.399 13.805-.82 1.054-.281 1.453-1.219 1.195-2.039-.281-.867-1.102-1.195-2.227-.914-3.797.984-8.18 1.312-12.257.797-1.126-.117-1.922.398-2.016 1.265-.117.868.328 1.594 1.5 1.711Zm-1.617 7.453c1.5.188 3.21.165 4.757-.023 1.055-.14 1.57-.82 1.477-1.687-.07-.774-.703-1.336-1.828-1.196-1.29.164-2.813.188-4.125.024-1.078-.14-1.711.422-1.828 1.172-.094.796.398 1.57 1.547 1.71Z"/></svg>