<svg xmlns="http://www.w3.org/2000/svg" width="56" height="56" viewBox="0 0 56 56"><path d="m44.524 48.66 1.617-34.265h2.343c.961 0 1.735-.797 1.735-1.758s-.774-1.782-1.735-1.782H38.242V7.34c0-3.352-2.273-5.531-5.882-5.531h-8.766c-3.61 0-5.86 2.18-5.86 5.53v3.516H7.54c-.937 0-1.758.82-1.758 1.782 0 .96.82 1.758 1.758 1.758h2.344L11.5 48.684c.164 3.375 2.39 5.507 5.766 5.507h21.492c3.351 0 5.601-2.156 5.765-5.53ZM21.484 7.574c0-1.336.985-2.273 2.391-2.273h8.227c1.43 0 2.414.937 2.414 2.273v3.281H21.484Zm-3.867 43.102c-1.36 0-2.367-1.032-2.437-2.39l-1.64-33.891h28.85l-1.546 33.89c-.07 1.383-1.055 2.39-2.438 2.39Zm17.344-4.125c.773 0 1.36-.633 1.383-1.524l.703-24.75c.023-.89-.586-1.547-1.383-1.547-.726 0-1.336.68-1.36 1.524l-.702 24.773c-.024.844.562 1.524 1.359 1.524Zm-13.898 0c.797 0 1.382-.68 1.359-1.524l-.703-24.773c-.024-.844-.656-1.524-1.383-1.524-.797 0-1.383.657-1.36 1.547l.727 24.75c.024.891.586 1.524 1.36 1.524Zm8.367-1.524V20.254c0-.844-.633-1.524-1.407-1.524-.773 0-1.43.68-1.43 1.524v24.773c0 .844.657 1.524 1.43 1.524.75 0 1.407-.68 1.407-1.524Z"/></svg>