<svg xmlns="http://www.w3.org/2000/svg" width="56" height="56" viewBox="0 0 56 56"><path d="m43.094 37.094.984-22.43h2.695c.961 0 1.734-.797 1.734-1.758 0-.96-.773-1.781-1.734-1.781h-9.632V7.773c0-3.21-2.133-5.203-5.157-5.203H23.36c-3.023 0-5.133 1.993-5.133 5.203v3.352h-1.101l9.14 9.14v-1.218c.235-.633.797-1.055 1.43-1.055.867 0 1.617.774 1.617 1.711v3.633l5.11 5.086.328-8.719c.047-.937.726-1.71 1.57-1.71.867 0 1.57.75 1.547 1.71l-.469 11.695Zm6.234 15.351c.703.703 1.875.703 2.555 0 .68-.726.703-1.851 0-2.554L6.672 4.656c-.703-.703-1.875-.726-2.578 0-.68.68-.68 1.852 0 2.532Zm-27.914-41.32V7.773c0-1.335.96-2.273 2.39-2.273h7.758c1.43 0 2.414.938 2.414 2.273v3.352Zm-3.82 42.305h20.203c2.531 0 4.219-1.242 4.64-3.47l.024-.468-5.508-5.508-.14 2.93c-.024 1.008-.657 1.734-1.5 1.734-.915 0-1.547-.796-1.524-1.757l.21-5.836-4.687-4.688v10.524c0 .96-.75 1.757-1.617 1.757-.843 0-1.57-.796-1.57-1.757V33.156l-5.18-5.203.68 18.938c.023.96-.633 1.757-1.523 1.757-.868 0-1.477-.726-1.5-1.734l-.868-22.148-6.21-6.235 1.312 30.375c.117 2.93 1.851 4.524 4.758 4.524Z"/></svg>