<svg xmlns="http://www.w3.org/2000/svg" width="56" height="56" viewBox="0 0 56 56"><path d="M28.012 35.184c1.008 0 1.851-.844 1.851-1.828V9.496l-.14-3.516 1.57 1.665 3.562 3.773c.329.375.82.563 1.266.563.984 0 1.71-.68 1.71-1.641 0-.492-.21-.867-.562-1.219l-7.898-7.664c-.492-.469-.89-.61-1.36-.61-.491 0-.89.141-1.359.61L18.73 9.121c-.351.352-.562.727-.562 1.219 0 .96.703 1.64 1.687 1.64.446 0 .961-.187 1.29-.562l3.562-3.773 1.57-1.664-.14 3.515v23.86c0 .984.867 1.828 1.875 1.828ZM7.715 55.152h40.57c4.899 0 7.36-2.437 7.36-7.265V34.012c0-2.11-.282-3.164-1.336-4.453l-7.407-9.117c-2.906-3.54-3.96-4.36-8.11-4.36h-4.616v3.281h4.875c1.71 0 2.789.329 4.172 2.016l7.617 9.563c.96 1.195.609 1.664-.68 1.664H35.23c-1.195 0-1.78.914-1.78 1.898v.07c0 2.72-2.134 5.602-5.462 5.602-3.305 0-5.437-2.883-5.437-5.602v-.07c0-.984-.586-1.898-1.781-1.898H5.863c-1.336 0-1.594-.54-.703-1.665l7.57-9.492c1.43-1.734 2.508-2.086 4.22-2.086h4.898v-3.28h-4.641c-4.148 0-5.18.796-8.156 4.429l-7.36 9.047C.661 30.824.355 31.902.355 34.012v13.875c0 4.851 2.485 7.265 7.36 7.265Zm.07-3.773c-2.344 0-3.656-1.242-3.656-3.68V36.027h14.86c.585 4.383 4.241 7.618 9 7.618 4.757 0 8.437-3.258 9-7.618H51.87V47.7c0 2.438-1.336 3.68-3.656 3.68Z"/></svg>