<svg xmlns="http://www.w3.org/2000/svg" width="56" height="56" viewBox="0 0 56 56"><path d="M7.715 33.145h40.57c4.899 0 7.36-2.391 7.36-6.938v-9.492c0-2.133-.141-3.586-1.336-4.711l-8.32-7.852c-2.532-2.39-4.384-3.14-7.829-3.14H17.84c-3.446 0-5.297.75-7.828 3.14l-8.32 7.852C.495 13.129.354 14.582.354 16.714v9.493c0 4.547 2.485 6.938 7.36 6.938ZM27.988 22.62c-3.305 0-5.437-2.86-5.437-5.578v-.094c0-.984-.586-1.898-1.781-1.898H5.887c-1.36 0-1.805-.61-.727-1.617l7.734-7.29c1.454-1.335 2.368-1.851 4.618-1.851h20.976c2.25 0 3.164.516 4.594 1.851l7.734 7.29c1.125 1.054.633 1.617-.68 1.617H35.23c-1.195 0-1.78.914-1.78 1.898v.094c0 2.719-2.134 5.578-5.462 5.578ZM7.715 54.988h40.57c4.875 0 7.36-2.414 7.36-7.242v-8.695c0-1.336-.891-2.602-2.274-2.602H35.23c-1.196 0-1.782.914-1.782 1.875v.094c0 2.719-2.133 5.602-5.46 5.602-3.306 0-5.438-2.883-5.438-5.602v-.094c0-.96-.586-1.875-1.781-1.875H2.629c-1.383 0-2.274 1.266-2.274 2.602v8.695c0 4.828 2.485 7.242 7.36 7.242Z"/></svg>