<svg xmlns="http://www.w3.org/2000/svg" width="56" height="56" viewBox="0 0 56 56"><path d="M7.785 30.672c.703 0 1.195-.516 1.594-1.125 1.312-1.992 2.86-3.235 5.18-3.235 2.343 0 3.703 1.22 4.851 3.211.375.657.797 1.149 1.5 1.149s1.149-.492 1.5-1.125c.774-1.383 2.11-2.485 3.61-3.024v19.829c0 1.828-1.29 3.257-3.258 3.257-1.922 0-3.211-1.453-3.211-3.257 0-1.43-.89-2.25-2.016-2.25-1.101 0-1.945.82-1.945 2.25 0 4.007 3.047 7.195 7.172 7.195 4.148 0 7.218-3.188 7.218-7.195V26.523a6.94 6.94 0 0 1 3.61 3.024c.351.633.773 1.125 1.5 1.125.703 0 1.125-.492 1.5-1.149 1.148-1.968 2.508-3.21 4.851-3.21 2.32 0 3.891 1.359 5.18 3.375.398.609.89.984 1.594.984.96 0 1.875-.774 1.875-2.04 0-8.366-6.328-19.968-20.11-21V4.54c0-1.242-.843-2.086-1.992-2.086-1.125 0-1.968.844-1.968 2.086v3.094c-13.782 1.031-20.11 12.633-20.11 21 0 1.265.89 2.039 1.875 2.039Z"/></svg>