<svg xmlns="http://www.w3.org/2000/svg" width="56" height="56" viewBox="0 0 56 56"><path d="M28 51.906c13.055 0 23.906-10.828 23.906-23.906 0-13.055-10.875-23.906-23.93-23.906C14.899 4.094 4.095 14.945 4.095 28c0 13.078 10.828 23.906 23.906 23.906Zm0-3.984c-11.063 0-19.9-8.86-19.9-19.922 0-11.04 8.813-19.922 19.876-19.922 11.039 0 19.921 8.883 19.945 19.922.023 11.063-8.883 19.922-19.922 19.922Zm-7.195-31.43c-2.907 0-4.43 1.5-4.43 4.406v3.094c0 1.031.68 1.711 1.687 1.711s1.688-.656 1.688-1.71V21.46c0-1.102.492-1.594 1.57-1.594h2.602c1.031 0 1.71-.68 1.71-1.687s-.679-1.688-1.71-1.688Zm14.203 0H31.89c-1.007 0-1.71.68-1.71 1.688s.703 1.687 1.71 1.687h2.626c1.054 0 1.57.492 1.57 1.594v2.531c0 1.055.656 1.711 1.664 1.711 1.031 0 1.71-.68 1.71-1.71v-3.095c0-2.906-1.546-4.406-4.452-4.406ZM20.805 39.578h3.117c1.031 0 1.71-.68 1.71-1.687s-.679-1.688-1.71-1.688H21.32c-1.078 0-1.57-.492-1.57-1.594v-2.53c0-1.056-.68-1.712-1.688-1.712-1.007 0-1.687.68-1.687 1.711v3.094c0 2.906 1.523 4.406 4.43 4.406Zm14.203 0c2.906 0 4.453-1.5 4.453-4.406v-3.094c0-1.031-.68-1.71-1.711-1.71-1.008 0-1.664.655-1.664 1.71v2.531c0 1.102-.516 1.594-1.57 1.594H31.89c-1.008 0-1.711.68-1.711 1.688 0 1.007.703 1.687 1.71 1.687Z"/></svg>