<svg xmlns="http://www.w3.org/2000/svg" width="56" height="56" viewBox="0 0 56 56"><path d="M1.644 32.55h6.689c.616 0 1.187-.366 1.347-1.028l.662-2.945 3.219 14.907c.296 1.37 2.534 1.37 2.74-.022l2.784-18.31 3.265 28.24c.205 1.69 2.625 1.667 2.762 0l3.014-33.673 2.99 33.65c.16 1.713 2.557 1.713 2.763 0l3.264-28.216 2.808 18.332c.206 1.392 2.42 1.392 2.74 0l3.173-14.725.685 2.762c.205.753.73 1.027 1.347 1.027h6.483c.914 0 1.621-.707 1.621-1.598 0-.89-.707-1.62-1.62-1.62H48.9l-1.826-7.078c-.41-1.53-2.397-1.53-2.717 0l-2.83 13.333-3.22-21.026c-.25-1.667-2.556-1.621-2.762.023L32.67 39.535 29.52 3.921c-.138-1.712-2.649-1.712-2.809 0l-3.15 35.614-2.877-24.952c-.182-1.69-2.488-1.69-2.762-.023l-3.219 21.026-2.808-13.333c-.32-1.415-2.351-1.415-2.74 0L7.329 29.33H1.644C.73 29.33 0 30.06 0 30.951c0 .89.73 1.598 1.644 1.598Z"/></svg>