<svg xmlns="http://www.w3.org/2000/svg" width="56" height="56" viewBox="0 0 56 56"><path d="M27.988 51.672c.375 0 .985-.14 1.594-.469 13.313-7.476 17.906-10.64 17.906-19.195v-17.93c0-2.46-1.078-3.234-3.047-4.078-2.765-1.148-11.718-4.36-14.484-5.32-.633-.211-1.289-.352-1.969-.352-.656 0-1.312.188-1.945.352-2.766.843-11.719 4.195-14.484 5.32-1.97.82-3.047 1.617-3.047 4.078v17.93c0 8.554 4.617 11.695 17.906 19.195.61.328 1.195.469 1.57.469Zm0-4.266c-.351 0-.75-.14-1.453-.562-10.828-6.563-14.297-8.485-14.297-15.703V14.78c0-.797.164-1.101.797-1.36 3.563-1.405 10.43-3.843 14.04-5.132q.526-.21.913-.21c.282 0 .563.07.938.21 3.61 1.29 10.406 3.89 14.039 5.133.633.234.797.562.797 1.36V31.14c0 7.218-3.492 9.117-14.297 15.703-.703.422-1.102.562-1.477.562Zm-7.992-10.125a1.8 1.8 0 0 0 1.336-.586l6.633-6.656 6.68 6.656c.351.352.796.586 1.335.586a1.89 1.89 0 0 0 1.899-1.898c0-.54-.211-.961-.586-1.336l-6.656-6.656 6.68-6.703c.398-.399.585-.797.585-1.313a1.886 1.886 0 0 0-1.898-1.875c-.492 0-.89.188-1.29.586l-6.75 6.68-6.679-6.657a1.7 1.7 0 0 0-1.289-.562c-1.055 0-1.898.82-1.898 1.851 0 .516.21.961.586 1.313l6.656 6.68-6.656 6.68c-.375.35-.586.796-.586 1.312a1.89 1.89 0 0 0 1.898 1.898Z"/></svg>