<svg xmlns="http://www.w3.org/2000/svg" width="56" height="56" viewBox="0 0 56 56"><path d="M13.785 49.574h28.453c4.899 0 7.336-2.437 7.336-7.265V13.69c0-4.828-2.437-7.265-7.336-7.265H13.785c-4.875 0-7.36 2.414-7.36 7.265v28.62c0 4.851 2.485 7.265 7.36 7.265Zm.07-3.773c-2.343 0-3.656-1.242-3.656-3.68V13.88c0-2.438 1.313-3.68 3.656-3.68h28.313c2.32 0 3.633 1.242 3.633 3.68v28.24c0 2.438-1.313 3.68-3.633 3.68Zm6.165-7.922c.515 0 .984-.211 1.335-.586l6.657-6.656 6.656 6.656c.352.352.82.586 1.36.586a1.886 1.886 0 0 0 1.874-1.898c0-.54-.21-.961-.562-1.337l-6.657-6.656 6.68-6.703c.375-.398.563-.797.563-1.312a1.88 1.88 0 0 0-1.875-1.875c-.492 0-.914.187-1.313.586l-6.726 6.68-6.704-6.657a1.7 1.7 0 0 0-1.288-.562c-1.055 0-1.876.82-1.876 1.851 0 .516.188.961.563 1.313l6.656 6.68-6.656 6.679a1.74 1.74 0 0 0-.563 1.313c0 1.054.82 1.898 1.876 1.898Z"/></svg>