<svg xmlns="http://www.w3.org/2000/svg" width="56" height="56" viewBox="0 0 56 56"><path d="M7.715 49.574h40.57c4.899 0 7.36-2.437 7.36-7.265V13.69c0-4.828-2.461-7.265-7.36-7.265H7.715C2.84 6.426.355 8.84.355 13.69v28.62c0 4.851 2.485 7.265 7.36 7.265Zm11.976-11.18c-1.101 0-2.015-.937-2.015-2.015 0-.492.234-1.008.61-1.36l6.937-6.937-6.938-6.96c-.352-.352-.61-.845-.61-1.337 0-1.101.915-1.969 2.016-1.969.492 0 .961.211 1.336.586l6.938 6.938 7.031-6.961c.398-.422.844-.61 1.313-.61 1.101 0 2.015.891 2.015 1.993q0 .738-.633 1.336l-6.937 6.984 6.914 6.89c.398.352.633.891.633 1.407 0 1.078-.914 2.016-2.016 2.016-.515 0-1.031-.282-1.36-.633l-6.96-6.938-6.914 6.938c-.352.375-.867.633-1.36.633Z"/></svg>