<svg xmlns="http://www.w3.org/2000/svg" width="56" height="56" viewBox="0 0 56 56"><path d="M7.715 49.574h40.57c4.899 0 7.36-2.437 7.36-7.265V13.69c0-4.828-2.461-7.265-7.36-7.265H7.715C2.84 6.426.355 8.84.355 13.69v28.62c0 4.851 2.485 7.265 7.36 7.265Zm.07-3.773c-2.344 0-3.656-1.242-3.656-3.68V13.88c0-2.438 1.312-3.68 3.656-3.68h40.43c2.32 0 3.656 1.242 3.656 3.68v28.24c0 2.438-1.336 3.68-3.656 3.68Zm12.563-8.297c.515 0 .914-.188 1.265-.54l6.352-6.398 6.398 6.399c.352.328.727.539 1.266.539.984 0 1.781-.82 1.781-1.781 0-.54-.187-.914-.539-1.266l-6.375-6.375 6.398-6.422c.376-.375.54-.726.54-1.242a1.76 1.76 0 0 0-1.782-1.758c-.492 0-.843.14-1.218.516l-6.47 6.422-6.398-6.399c-.328-.351-.703-.492-1.218-.492-.985 0-1.782.75-1.782 1.734 0 .516.188.891.516 1.243l6.398 6.398-6.398 6.398a1.68 1.68 0 0 0-.516 1.243c0 .96.797 1.78 1.782 1.78Z"/></svg>