<svg xmlns="http://www.w3.org/2000/svg" viewBox="0 0 512 512"><path d="M256 21 21 140.557c35.392 5.458 74.439 9.671 116.031 12.484L244.396 40.975l-90.328 113.093c12.75.73 25.77 1.295 38.922 1.764 9.848-25.217 34.307-43.182 63.01-43.182s53.162 17.965 63.01 43.182c13.164-.47 26.16-1.033 38.922-1.764L267.604 40.975 374.969 153.04c41.587-2.814 80.616-7.025 116.031-12.484zm0 107.807c-28.46 0-51.553 23.093-51.553 51.552 0 28.46 23.094 51.553 51.553 51.553 28.46 0 51.553-23.093 51.553-51.553S284.46 128.807 256 128.807zm-234.707 17.33 38.482 56.547c1.541-.853 3.152-1.595 4.848-2.057 1.632-.447 3.3-.822 4.992-.88 25.372-.879 56.648 40.885 72.115 97.671a251.6 251.6 0 0 1 7.051 35.984L256 491l107.365-157.744c1.392-11.488 3.696-23.521 7.051-35.838 15.468-56.786 46.89-98.55 72.262-97.672 1.691.058 3.362.436 4.994.88 1.632.448 3.066 1.104 4.553 1.911l38.482-56.4c-33.742 8.108-72.56 14.432-114.709 18.654L267.604 444.146l89.886-277.593c-11.374.946-23.03 1.722-34.808 2.35.637 3.731 1.027 7.543 1.027 11.456 0 37.388-30.32 67.71-67.709 67.71-37.388 0-67.709-30.322-67.709-67.71 0-3.913.39-7.725 1.027-11.457a1170 1170 0 0 1-34.808-2.35l89.886 277.594-108.392-279.355c-42.155-4.22-80.99-10.548-114.711-18.654zm52.582 71.088c-.877.098-1.63.262-2.496.441-2.725.563-5.35 1.721-7.785 3.379 19.536 17.577 33.21 78.75 32.166 152.016-.536 37.6-4.792 72.277-11.604 99.728 9.399 10.56 19.217 15.899 28.64 13.953 27.715-5.723 41.006-70.502 29.522-144.818-10.765-69.672-39.43-123.032-65.798-124.697-.88-.058-1.767-.1-2.645 0zm361.754 0c-26.369 1.665-55.035 55.025-65.8 124.697-11.484 74.317 1.807 139.096 29.52 144.818 9.425 1.947 19.243-3.394 28.641-13.953-6.811-27.452-11.067-62.127-11.603-99.728-1.044-73.265 12.63-134.44 32.166-152.016-2.435-1.658-5.058-2.814-7.783-3.377-.866-.179-1.621-.343-2.499-.441-.877-.1-1.763-.058-2.642 0z"/></svg>