<svg xmlns="http://www.w3.org/2000/svg" viewBox="0 0 512 512"><path d="M121.459 21c-36.283.004-67.301 60.934-80.043 147.316 9.697-12.628 21.68-20.123 34.516-20.123 7.144 0 13.777 2.538 20.12 6.756a41.8 41.8 0 0 0-9.84-1.174C50.16 153.775 21 199.578 21 256s29.16 102.225 65.213 102.225c3.38 0 6.6-.398 9.84-1.174-6.326 4.2-13.002 6.61-20.121 6.61-12.836 0-24.818-7.481-34.516-20.124C54.171 429.893 85.198 491 121.463 491c25.547 0 48.549-30.333 64.33-78.432-15.723-12.194-29.45-28.358-40.39-47.44 26.396 37.578 66.134 61.54 110.597 61.54 44.159 0 83.612-23.672 110.01-60.805-10.896 18.752-24.414 34.676-39.95 46.705C341.88 460.663 364.849 491 390.39 491c36.309 0 67.279-61.248 80.048-147.756-9.748 12.796-21.598 20.416-34.516 20.416-7.122 0-13.938-2.41-20.27-6.61a43 43 0 0 0 9.989 1.175C461.695 358.225 491 312.422 491 256s-29.305-102.225-65.36-102.225c-3.38 0-6.742.4-9.988 1.174 6.35-4.218 13.123-6.756 20.27-6.756 12.918 0 24.768 7.635 34.515 20.416C457.684 82.072 426.718 21 390.392 21c-25.543 0-48.51 30.269-64.33 78.285 15.722 12.158 29.437 28.248 40.388 47.293-16.62-23.564-38.584-41.62-63.595-51.848.046 1.55.144 3.131.144 4.702 0 36.896-12.497 68.273-30.11 80.78 12.393-11.812 20.858-36.02 20.858-64.185 0-39.734-16.862-71.968-37.748-71.968s-37.746 32.234-37.746 71.968c0 28.165 8.463 52.373 20.855 64.186-17.612-12.508-30.109-43.885-30.109-80.781 0-1.62.1-3.25.147-4.848-25.126 10.268-47.083 28.57-63.745 52.287 10.941-19.081 24.668-35.245 40.391-47.44C170.01 51.337 147.032 21.003 121.464 21zm27.91 162.738C119.636 201.89 101.047 227.56 101.047 256s18.59 54.11 48.322 72.262c-34.1-17.58-55.666-43.412-55.666-72.262s21.567-54.681 55.666-72.262zm213.262 0c34.1 17.58 55.666 43.412 55.666 72.262s-21.567 54.681-55.666 72.262c29.733-18.151 48.322-43.822 48.322-72.262s-18.59-54.11-48.322-72.262zM256 231.031c60.62 0 109.715 21.911 109.715 48.91 0 27-49.094 48.909-109.715 48.909-60.62 0-109.715-21.91-109.715-48.909s49.094-48.91 109.715-48.91z"/></svg>