<svg xmlns="http://www.w3.org/2000/svg" viewBox="0 0 512 512"><path d="M256 21c-57.898 0-110.91 20.949-151.87 55.666-24.462-22.459-62.275-34.81-62.275-34.81s12.352 37.813 34.811 62.275C41.949 145.089 21 198.1 21 256s20.948 110.91 55.666 151.87c-22.46 24.462-34.81 62.275-34.81 62.275s37.813-12.352 62.275-34.811C145.089 470.051 198.1 491 256 491s110.91-20.949 151.87-55.666c24.462 22.459 62.275 34.81 62.275 34.81s-12.352-37.813-34.811-62.275C470.051 366.911 491 313.9 491 256s-20.949-110.91-55.666-151.87c22.46-24.462 34.81-62.275 34.81-62.275s-37.813 12.352-62.275 34.811C366.91 41.949 313.9 21 256 21zm0 38.922c25.949.404 53.863 22.045 46.412 46.558l-19.533 63.157a90 90 0 0 0-10.135-2.496l11.016-42.006c4.457-17.277-12.384-32.616-27.906-32.9-15.527.284-32.074 15.623-27.614 32.9l11.016 42.006a90 90 0 0 0-10.135 2.496l-19.68-63.157C201.99 81.967 230.051 60.326 256 59.922zm103.84 42.285c12.468.677 25.639 6.252 34.81 15.143 18.064 18.635 22.45 53.881-.146 65.947l-58.309 30.697c-1.654-3.155-3.58-6.037-5.582-8.959l37.6-22.031c15.369-9.065 14.301-31.71 3.525-42.889-5.59-5.388-14.129-8.277-22.324-7.931s-15.882 3.919-20.416 11.603l-21.885 37.6c-2.95-2.027-5.916-3.908-9.105-5.58l30.695-58.31c5.278-9.89 15.028-14.604 25.85-15.274a46 46 0 0 1 5.287-.016zm-207.387.016h.002c12.648-.53 24.515 3.973 30.549 15.273l30.695 58.457c-3.085 1.632-5.951 3.468-8.812 5.434l-21.883-37.6c-5.1-8.645-14.41-12.12-23.649-11.603-7.185.401-14.351 3.217-19.24 7.931-10.777 11.18-11.697 33.97 3.672 43.035l37.453 21.885c-2.008 2.936-3.777 5.934-5.433 9.106l-58.604-30.844c-22.602-12.065-18.214-47.312-.144-65.947 9.316-9.032 22.745-14.596 35.394-15.127zM256 189.318c36.834 0 66.682 29.848 66.682 66.682S292.834 322.682 256 322.682 189.318 292.834 189.318 256s29.848-66.682 66.682-66.682zM97.375 208.412a27.1 27.1 0 0 1 8.959 1.176l63.303 19.682a90 90 0 0 0-2.496 10.132l-42.153-11.013c-2.159-.557-4.387-.943-6.463-.883-14.52.416-26.188 14.91-26.437 28.494.287 15.524 15.625 32.217 32.9 27.76l42.153-11.016a90 90 0 0 0 2.496 10.135l-63.303 19.682c-24.512 7.45-46.155-20.465-46.559-46.415.353-22.706 17.03-47 37.6-47.734zm317.104 0c20.569.734 37.245 25.028 37.6 47.734-.4 25.95-22.046 53.863-46.56 46.413l-63.156-19.68a90 90 0 0 0 2.496-10.135l42.006 11.016c17.276 4.457 32.615-12.236 32.9-27.76-.249-13.584-12.062-28.078-26.583-28.494-2.074-.058-4.159.323-6.317.88l-42.006 11.016a90 90 0 0 0-2.496-10.132l63.157-19.682a27.1 27.1 0 0 1 8.959-1.176zM175.95 298.006h.002c1.682 3.204 3.393 6.291 5.434 9.254l-37.6 21.885c-15.368 9.064-14.593 31.561-3.818 42.74 11.178 10.776 33.97 11.843 43.035-3.526l22.03-37.746c2.904 1.99 5.825 3.788 8.96 5.434l-30.99 58.75c-12.067 22.602-47.312 18.21-65.947.146-18.064-18.635-22.452-53.881.144-65.947zm160.094.295h.002l58.457 30.697c22.6 12.066 18.213 47.31.144 65.945-18.634 18.065-53.88 22.455-65.945-.146l-30.846-58.602c3.172-1.656 6.171-3.428 9.108-5.435l21.885 37.6c9.064 15.368 31.853 14.3 43.033 3.525 10.775-11.18 11.698-33.676-3.672-42.74l-37.6-21.885a89 89 0 0 0 5.434-8.96zM229.12 342.363a90 90 0 0 0 10.135 2.496l-11.016 42.155c-4.46 17.276 12.087 32.613 27.614 32.898 15.521-.285 32.365-15.622 27.906-32.898l-11.016-42.155a90 90 0 0 0 10.135-2.496l19.533 63.303c7.451 24.514-20.462 46.154-46.412 46.559-25.95-.405-54.011-22.045-46.559-46.559z"/></svg>