<svg xmlns="http://www.w3.org/2000/svg" viewBox="0 0 512 512"><path d="M256 21C126.236 21 21 126.192 21 256s105.236 235 235 235 235-105.192 235-235S385.764 21 256 21zm14.834 21.15 8.666 45.385 17.918-35.545 2.644 39.803 25.41-38.334-3.378 45.826 26.73-29.963-7.783 39.51 34.37-30.55-14.837 43.62 33.635-22.177-17.918 36.13 41.272-20.414-25.997 38.04 38.188-12.778-26.586 30.256 45.238-8.666-34.955 29.963 39.95-2.35-33.047 22.178 45.677 2.937-41.125 19.975 39.215 8.227L426.082 256l43.475 14.98-45.092 8.52 35.691 17.918-39.802 2.644 38.187 25.41-45.826-3.232 29.816 26.733-39.363-7.932 30.404 34.662-43.474-14.98 22.03 33.193-35.837-17.625 20.416 40.979-38.041-25.557 12.484 38.04-30.109-26.437 8.813 44.944-29.963-34.662 2.203 39.949-22.031-33.047-2.938 45.531-19.975-40.978-8.226 39.068L256 426.082l-14.834 43.328-8.373-45.092-18.064 35.985-2.645-39.803-25.408 38.041 3.084-45.826-26.438 29.963 7.783-39.362-34.662 30.256 15.13-43.474-33.636 22.324 17.918-36.131-41.271 20.268 25.85-37.747-38.04 12.631 26.438-30.402L63.74 350l34.957-29.963-40.244 2.203 33.34-22.178-45.97-3.083 41.417-19.975-39.215-8.078L85.918 256l-43.621-14.687 45.236-8.813-35.69-17.771 39.95-2.645-38.334-25.408 45.824 3.23-29.96-26.584 39.507 7.637-30.402-34.516 43.474 15.13-22.03-33.489 35.983 17.771-20.267-41.125 37.892 25.704-12.63-37.893 30.255 26.291-8.959-45.092 29.963 34.81-2.35-40.243 22.325 33.486 2.937-45.97 19.975 41.417 8.078-39.215L256 85.771zM256 102.516c-84.79 0-153.484 68.666-153.484 153.484S171.21 409.63 256 409.63 409.63 340.819 409.63 256 340.79 102.516 256 102.516zm9.693 13.806 5.729 29.668 11.603-23.353 1.762 26.144 16.598-25.115-2.203 29.963 17.478-19.535-5.14 25.85 22.617-19.975-9.84 28.494 22.031-14.541-11.75 23.646 27.026-13.365-16.891 24.822 24.822-8.373-17.332 19.828 29.522-5.726-22.766 19.533 25.998-1.469-21.592 14.541 29.817 1.91-26.88 13.07 25.704 5.29L367.184 256l28.347 9.84-29.521 5.582 23.353 11.603-25.998 1.762 24.969 16.598-29.963-2.057 19.535 17.332-25.703-4.994 19.828 22.62-28.347-9.843 14.394 21.739-23.5-11.457 13.365 26.732-24.822-16.744 8.078 24.822-19.68-17.185 5.876 29.228-19.536-22.619 1.323 26.145-14.395-21.592-1.908 29.816-13.072-26.879-5.287 25.557-8.52-24.822-9.693 28.2-5.436-29.374-11.75 23.5-1.762-25.998-16.597 24.822 2.056-29.963-17.33 19.682 5.14-25.703-22.765 19.681 9.84-28.347-21.885 14.54 11.75-23.5-27.025 13.22 16.89-24.823-24.822 8.373 17.332-19.828-29.521 5.729 22.766-19.536-26.292 1.47 21.885-14.542-30.11-2.057 27.026-12.923-25.556-5.434L144.963 256l-28.64-9.547 29.667-5.728-23.353-11.604 26.144-1.762-25.115-16.597 29.96 2.056-19.532-17.33 25.85 4.992-19.975-22.617 28.494 9.84-14.395-21.738 23.5 11.603-13.218-26.877 24.675 16.743-8.226-24.82 19.828 17.33-5.875-29.522 19.535 22.766-1.469-26.292 14.541 21.885 1.909-30.11 13.072 27.026 5.287-25.556L256 144.816zM256 167.434c-48.888 0-88.418 39.661-88.418 88.566s39.53 88.566 88.418 88.566 88.566-39.661 88.566-88.566-39.678-88.566-88.566-88.566zm5.582 8.08 3.377 17.037 6.61-13.367 1.029 14.982 9.547-14.395-1.176 17.186 9.988-11.31-2.937 14.982 13.07-11.604-5.58 16.45 12.63-8.371-6.755 13.658 15.568-7.637-9.84 14.246 14.393-4.846-9.986 11.455 17.037-3.23-13.22 11.162 15.128-.88-12.485 8.519 17.186 1.027-15.568 7.49 14.834 3.084L320.184 256l16.304 5.582-17.039 3.377 13.514 6.61-14.983 1.029 14.395 9.693-17.332-1.322 11.31 9.988-14.833-2.937 11.455 13.072-16.45-5.582 8.371 12.484-13.511-6.61 7.636 15.423-14.246-9.694 4.553 14.393-11.308-9.986 3.376 16.89-11.308-13.072.88 15.127-8.37-12.485-1.03 17.186-7.49-15.422-3.084 14.688L256 320.037l-5.582 16.451-3.084-17.037-6.902 13.512-.881-14.98-9.696 14.392 1.176-17.33-9.988 11.309 3.086-14.834-13.072 11.455 5.58-16.45-12.631 8.371 6.756-13.511-15.569 7.636 9.842-14.246-14.394 4.7 9.988-11.455-17.04 3.376 13.22-11.308-15.274.88 12.631-8.37-17.332-1.176 15.568-7.49-14.687-3.084L191.963 256l-16.451-5.58 17.039-3.232-13.514-6.756 15.129-.881-14.395-9.694 17.186 1.174-11.31-9.986 14.982 2.937-11.457-12.925 16.303 5.582-8.225-12.485 13.514 6.61-7.639-15.422 14.246 9.693-4.7-14.394 11.458 9.988-3.379-17.037 11.162 13.07-.88-15.127 8.519 12.631 1.027-17.332 7.49 15.57 3.086-14.687L256 191.963zM256 213.26c-23.64 0-42.74 19.093-42.74 42.74s19.1 42.887 42.74 42.887 42.887-19.24 42.887-42.887-19.248-42.74-42.887-42.74zm2.791 3.818 1.469 8.225 3.377-6.463.441 7.344 4.553-7.05-.588 8.372 4.848-5.434-1.323 7.198 6.317-5.583-2.791 7.932 6.168-4.113-3.377 6.61 7.636-3.673-4.699 6.905 6.903-2.352-4.846 5.582 8.225-1.615-6.317 5.433 7.197-.439-6.021 4.111 8.371.442-7.49 3.672 7.05 1.468-6.904 2.35 7.932 2.791-8.225 1.469 6.61 3.377-7.344.441 7.049 4.553-8.371-.588 5.433 4.848-7.195-1.323 5.433 6.317-7.785-2.791 3.967 6.021-6.61-3.23 3.82 7.49-6.903-4.553 2.203 6.903-5.436-4.848 1.616 8.227-5.434-6.317.295 7.197-3.967-6.021-.588 8.371-3.523-7.49-1.617 7.049-2.35-6.903-2.643 7.932-1.468-8.225-3.38 6.61-.439-7.344-4.7 6.902.587-8.224-4.848 5.433 1.47-7.197-6.315 5.582 2.79-7.932-6.17 3.967 3.233-6.61-7.492 3.82 4.701-6.905-6.904 2.203 4.848-5.434-8.225 1.616 6.314-5.434-7.343.293 6.17-3.965-8.374-.588 7.493-3.672-7.198-1.468 6.903-2.35-7.932-2.643 8.227-1.617-6.463-3.23 7.344-.442-7.051-4.699 8.373.588-5.436-4.848 7.198 1.47-5.583-6.315 7.932 2.789-3.965-6.168 6.463 3.23-3.672-7.49 6.903 4.701-2.203-6.904 5.433 4.848-1.615-8.225 5.435 6.314-.441-7.343 4.113 6.17.586-8.374 3.526 7.49 1.468-7.195 2.35 6.903z"/></svg>