<svg xmlns="http://www.w3.org/2000/svg" viewBox="0 0 512 512"><path d="M256 21c-33.415 0-64.963 8.474-93.12 23.5 1.776 4.803 2.792 10.002 2.792 15.422 0 24.553-19.95 44.504-44.504 44.504-8.476 0-16.317-2.493-23.059-6.61-7.83 9.437-15.076 19.515-21.443 30.256h89.152c8.082-44.703 43.091-78.854 85.63-81.222 1.572-.088 2.964 0 4.552 0 44.655 0 81.812 34.91 90.182 81.222h89.298c-6.378-10.76-13.59-20.806-21.443-30.256-6.74 4.117-14.582 6.61-23.058 6.61-24.555 0-44.504-19.951-44.504-44.504 0-5.42 1.014-10.62 2.79-15.422C321.08 29.47 289.42 21 256 21zm-134.832 7.637c-17.299 0-31.283 13.986-31.283 31.285s13.984 31.285 31.283 31.285 31.285-13.986 31.285-31.285-13.986-31.285-31.285-31.285zm269.81 0c-17.299 0-31.285 13.986-31.285 31.285s13.986 31.285 31.286 31.285 31.283-13.986 31.283-31.285-13.985-31.285-31.283-31.285zM256 65.943c-34.962 0-64.086 26.464-72.115 62.13h144.377c-8.028-35.666-37.3-62.13-72.262-62.13zM85.771 146.285c-4.214 7.863-7.862 16.08-11.162 24.528C43.27 183.762 21 217.043 21 256c0 38.893 22.204 72.062 53.463 85.041 3.283 8.441 6.968 16.668 11.162 24.527h27.172C93.126 334.502 81.658 296.715 81.658 256c0-40.843 11.503-78.648 31.285-109.715zm313.137 0c19.875 31.078 31.58 68.847 31.58 109.715 0 40.71-11.55 78.505-31.285 109.568h27.318c4.201-7.859 7.88-16.086 11.163-24.527C468.944 328.062 491 294.893 491 256c0-39.006-22.209-72.273-53.61-85.187-3.314-8.448-6.937-16.666-11.161-24.528zM240.432 154.8c-11.216 0-20.416 9.863-20.416 22.178v188.591h71.822V176.977c0-12.315-8.908-22.178-20.123-22.178zm-83.72 50.523c-11.211 0-20.415 9.865-20.415 22.18v138.066h71.969V227.502c0-12.315-9.056-22.18-20.27-22.18zm167.438 0c-11.211 0-20.416 9.865-20.416 22.18v138.066h71.97V227.502c0-12.315-9.057-22.18-20.27-22.18zM76.666 383.928c6.366 10.741 13.614 20.82 21.443 30.256 6.743-4.117 14.583-6.61 23.059-6.61 24.553 0 44.504 19.95 44.504 44.504 0 5.42-1.015 10.62-2.791 15.422C191.037 482.527 222.585 491 256 491c33.419 0 65.078-8.469 93.266-23.5-1.777-4.802-2.791-10.002-2.791-15.422 0-24.553 19.949-44.504 44.504-44.504 8.476 0 16.317 2.493 23.058 6.61 7.853-9.45 15.065-19.497 21.443-30.256h-89.298c-8.37 46.311-45.527 81.222-90.182 81.222-1.588 0-2.98.09-4.553 0-42.538-2.367-77.547-36.52-85.629-81.222zm107.219 0c8.03 35.666 37.153 62.129 72.115 62.129s64.234-26.463 72.262-62.13zm-62.717 36.867c-17.299 0-31.283 13.984-31.283 31.283s13.984 31.283 31.283 31.283 31.285-13.984 31.285-31.283-13.986-31.283-31.285-31.283zm269.81 0c-17.3 0-31.285 13.984-31.285 31.283s13.986 31.283 31.286 31.283 31.283-13.984 31.283-31.283-13.986-31.283-31.283-31.283z"/></svg>