<svg xmlns="http://www.w3.org/2000/svg" viewBox="0 0 512 512"><path d="M44.21 21.002c0 1.296.231 2.537.442 3.818v.147c.207 1.234.635 2.452 1.028 3.672v.148c12.214 39.496 126.055 82.167 205.183 86.361V21.002zm216.933 0v94.147c79.128-4.196 192.969-46.866 205.183-86.362v-.148c.39-1.22.82-2.436 1.028-3.67v-.147c.211-1.28.44-2.524.44-3.82zm-240.14 46.12V185.5c0 2.06.08 4.161.292 6.168v.146c.216 2.005.616 3.933 1.03 5.875v.149c.417 1.941 1.011 3.857 1.614 5.726v.149a58 58 0 0 0 2.057 5.433v.147c.789 1.785 1.687 3.448 2.643 5.14v.149c.96 1.695 2.114 3.4 3.232 4.992v.149c1.121 1.591 2.403 3.073 3.672 4.552.05.03-.05.117 0 .147 1.273 1.48 2.7 2.755 4.111 4.113C51.15 239.632 66.98 246.6 84.598 246.6h166.261v-19.387H123.08c-17.583 0-33.306-6.753-44.796-17.772-1.41-1.353-2.986-2.783-4.26-4.26-.05-.028.05-.117 0-.146a59 59 0 0 1-3.525-4.555c-.05-.036 0-.114 0-.146-1.119-1.588-2.418-3.157-3.379-4.848v-.146c-.954-1.69-1.708-3.36-2.496-5.14v-.147c-.784-1.783-1.595-3.568-2.203-5.434v-.148c-.603-1.867-1.198-3.787-1.615-5.727v-.146c-.414-1.94-.664-3.872-.881-5.875v-.147c-.212-2.006-.292-4.11-.297-6.17v-76.08C52.5 86.82 45.677 83.15 39.213 79.311c-6.464-3.876-12.613-7.995-18.21-12.19zm469.993 0v.001l.004-.002zm0 .001c-5.596 4.195-11.745 8.312-18.209 12.188-6.465 3.839-13.287 7.508-20.414 11.015v76.082c0 2.06-.085 4.162-.297 6.168v.147c-.216 2.003-.47 3.935-.88 5.875v.146c-.419 1.94-1.013 3.862-1.616 5.729v.146c-.607 1.866-1.419 3.653-2.203 5.436v.146c-.788 1.782-1.544 3.452-2.498 5.14v.147c-.96 1.691-2.258 3.26-3.377 4.848 0 .036.05.113 0 .146a59 59 0 0 1-3.525 4.553c-.05.029.043.12 0 .149-1.274 1.476-2.85 2.904-4.26 4.257-11.49 11.019-27.213 17.774-44.795 17.774H261.14v19.387h166.261c17.619 0 33.448-6.97 44.944-18.067 1.41-1.358 2.838-2.63 4.111-4.111.043-.029-.05-.12 0-.149 1.269-1.479 2.55-2.96 3.672-4.552v-.147c1.118-1.593 2.272-3.299 3.232-4.994v-.146c.956-1.693 1.854-3.356 2.643-5.141v-.147a58 58 0 0 0 2.057-5.435v-.147c.603-1.869 1.197-3.785 1.615-5.726v-.149c.413-1.942.813-3.87 1.03-5.875v-.146c.211-2.007.29-4.108.29-6.168zM86.363 102.076v54.344c0 10.55 2.756 20.424 7.639 29.082.976 1.728 2.236 3.371 3.377 4.992v.149a60 60 0 0 0 3.525 4.552c1.316 1.54 2.648 2.998 4.112 4.407 11.49 11.054 27.361 17.918 44.943 17.918h100.902v-87.096c-56.245-1.829-121.848-12.019-164.498-28.348zm339.278 0c-42.65 16.33-108.253 26.52-164.498 28.348v87.096h100.902c17.582 0 33.454-6.863 44.943-17.918 1.464-1.41 2.798-2.866 4.114-4.407a60 60 0 0 0 3.523-4.554v-.147c1.14-1.62 2.403-3.266 3.379-4.994a58.87 58.87 0 0 0 7.637-29.08zM84.6 265.398v.002c-17.619 0-33.447 6.968-44.943 18.065-1.409 1.36-2.842 2.63-4.113 4.113v.147c-1.265 1.481-2.554 2.959-3.672 4.552v.147c-1.115 1.595-2.273 3.297-3.23 4.994v.146c-.953 1.696-1.86 3.354-2.645 5.141v.147a58 58 0 0 0-2.057 5.435v.147c-.598 1.87-1.202 3.785-1.615 5.728v.147c-.408 1.943-.815 3.869-1.027 5.875v.146c-.207 2.008-.147 4.11-.147 6.17v118.379c5.597-4.196 11.748-8.314 18.213-12.19s13.29-7.508 20.416-11.015v-76.08c0-2.061-.058-4.163.145-6.17v-.147c.211-2.005.473-3.933.88-5.875v-.146c.414-1.941 1.017-3.86 1.616-5.729v-.146c.603-1.867 1.423-3.65 2.203-5.436v-.146c.784-1.784 1.547-3.45 2.498-5.14v-.147c.957-1.693 2.262-3.258 3.377-4.848v-.146a60 60 0 0 1 3.525-4.553v-.147c1.272-1.478 2.851-2.904 4.26-4.26 11.49-11.018 27.213-17.77 44.795-17.77H250.86v-19.39zm176.542 0v19.389h127.78c17.583 0 33.306 6.753 44.796 17.772 1.409 1.355 2.988 2.781 4.26 4.26v.146a60 60 0 0 1 3.525 4.553v.146c1.115 1.59 2.42 3.155 3.377 4.848v.146c.95 1.692 1.714 3.357 2.498 5.14v.147c.78 1.785 1.6 3.567 2.203 5.434v.148c.6 1.869 1.202 3.786 1.615 5.727v.146c.409 1.942.67 3.87.881 5.875v.147c.207 2.007.147 4.107.147 6.168v76.08c7.126 3.507 13.949 7.14 20.414 11.016 6.465 3.875 12.616 7.995 18.213 12.191V326.496c0-2.06.064-4.16-.147-6.168v-.146c-.212-2.006-.619-3.932-1.027-5.875v-.147c-.414-1.943-1.016-3.857-1.615-5.728v-.147a58 58 0 0 0-2.057-5.433v-.149c-.785-1.787-1.692-3.445-2.645-5.14v-.147c-.957-1.697-2.115-3.4-3.23-4.994v-.147c-1.118-1.593-2.407-3.07-3.672-4.552v-.147c-1.27-1.482-2.702-2.753-4.111-4.113-11.496-11.097-27.326-18.065-44.946-18.065zM149.959 294.48c-17.582 0-33.453 6.865-44.943 17.92-1.436 1.382-2.819 2.75-4.112 4.258v.149a60 60 0 0 0-3.525 4.552c-6.884 9.744-11.016 21.52-11.016 34.221v54.344c42.65-16.33 108.253-26.52 164.498-28.348v-87.094H149.96zm111.184 0v87.096c56.245 1.829 121.848 12.019 164.498 28.348V355.58c0-12.7-4.133-24.477-11.016-34.22a60 60 0 0 0-3.523-4.555v-.147c-1.293-1.509-2.678-2.878-4.114-4.26-11.49-11.054-27.361-17.918-44.943-17.918zM250.86 396.852c-79.128 4.195-193.115 46.865-205.33 86.36v.15c-.385 1.268-.827 2.41-1.027 3.671v.147a25.6 25.6 0 0 0-.291 3.818h206.652v-94.147zm10.282 0v94.146h206.652c0-1.248-.106-2.559-.293-3.818v-.149c-.202-1.26-.642-2.403-1.027-3.672v-.144c-12.215-39.496-126.203-82.169-205.33-86.363z"/></svg>