<svg xmlns="http://www.w3.org/2000/svg" viewBox="0 0 512 512"><path d="m256 21-68.885 68.885h-97.23v97.23L21 256l68.885 68.885v97.377h97.377L256 491l68.738-68.738h97.377v-97.377L491 256l-68.885-68.885v-97.23h-97.23zm0 63.598 50.23 50.23h70.942v70.942L427.256 256l-50.084 50.084h-33.047c.058-1.211.146-2.437.146-3.672 0-5.69-.586-11.206-1.615-16.596l35.104-46.119-50.084 11.455c-3.367-4.7-7.106-9.122-11.31-13.07l9.988-57.87-39.217 39.657c-4.577-1.727-9.344-3.161-14.246-4.113L256 158.475l-16.89 57.28c-4.903.953-9.67 2.387-14.247 4.114l-39.217-39.656 9.989 57.869c-4.205 3.948-7.944 8.37-11.31 13.07l-50.085-11.455 35.104 46.12c-1.028 5.39-1.615 10.905-1.615 16.595 0 1.237.09 2.46.146 3.672h-33.047L84.598 256l50.23-50.23v-70.942h70.942zm0 156.422c2.14 0 4.227.197 6.316.439 36.189 3.176 56.37 33.487 59.778 64.771H189.906c3.409-31.284 23.59-61.595 59.778-64.771 2.056-.18 4.156-.44 6.316-.44zm-121.172 85.039h242.344v50.966h-71.088L256 427.402l-50.084-50.377h-71.088z"/></svg>