<svg xmlns="http://www.w3.org/2000/svg" viewBox="0 0 512 512"><path d="m256 21-4.7 79.459c-29.497 2.486-52.728 27.98-52.728 59.191 0 28.697 19.588 52.699 45.678 58.309l-10.574 182.713c-30.72 1.596-59.274 6.36-83.865 13.66l-8.666-151.723c26.09-5.61 45.677-29.612 45.677-58.308 0-31.211-23.23-56.705-52.728-59.192l-4.7-79.459-4.7 79.46c-29.499 2.486-52.727 27.98-52.727 59.19 0 28.697 19.587 52.7 45.678 58.31l-9.696 168.613c-10.055 5.401-18.775 11.377-25.701 17.771 38.682-12.185 101.994-20.27 173.752-20.27 71.77 0 135.077 8.084 173.754 20.27-6.965-6.432-15.719-12.344-25.85-17.771l-9.695-168.614c26.09-5.61 45.68-29.612 45.68-58.308 0-31.211-23.23-56.705-52.729-59.192l-4.7-79.459-4.7 79.46c-29.499 2.486-52.729 27.98-52.729 59.19 0 28.697 19.59 52.7 45.68 58.31l-8.666 151.722c-24.583-7.284-53.02-12.072-83.719-13.66L267.75 217.959c26.09-5.61 45.678-29.612 45.678-58.309 0-31.21-23.229-56.705-52.727-59.191zm0 84.6c28.817 0 52.14 24.182 52.14 54.05 0 29.869-23.323 54.05-52.14 54.05s-52.287-24.182-52.287-54.05S227.183 105.6 256 105.6zm0 9.546c-23.774 0-43.033 19.863-43.033 44.504 0 24.642 19.259 44.65 43.033 44.65s43.035-20.009 43.035-44.65-19.261-44.504-43.035-44.504zM129.395 150.25c28.817 0 52.14 24.182 52.14 54.05 0 29.87-23.323 54.05-52.14 54.05-28.818 0-52.29-24.181-52.29-54.05 0-29.867 23.472-54.05 52.29-54.05zm253.064 0c28.817 0 52.14 24.182 52.14 54.05 0 29.87-23.323 54.05-52.14 54.05s-52.287-24.181-52.287-54.05c0-29.867 23.47-54.05 52.287-54.05zm-253.064 9.4c-23.774 0-43.036 20.01-43.036 44.65 0 24.642 19.262 44.65 43.036 44.65s43.033-20.008 43.033-44.65c0-24.64-19.26-44.65-43.033-44.65zm253.064 0c-23.774 0-43.033 20.01-43.033 44.65 0 24.642 19.259 44.65 43.033 44.65s43.035-20.008 43.035-44.65c0-24.64-19.261-44.65-43.035-44.65zM256 439.594c-120.097 0-219.339 22.345-235 51.406h470c-15.661-29.061-114.903-51.406-235-51.406z"/></svg>