<svg xmlns="http://www.w3.org/2000/svg" viewBox="0 0 512 512"><path d="M86.213 21C50.242 21 21 50.023 21 85.918s29.242 65.066 65.213 65.066c22 0 41.351-11.074 53.168-27.76l88.86 44.797-91.944 46.413c-11.97-14.373-29.924-23.5-50.084-23.5C50.242 190.934 21 220.105 21 256s29.242 64.918 65.213 64.918c20.16 0 38.114-9.17 50.084-23.5l91.943 46.414-88.713 44.648c-11.81-16.726-31.282-27.61-53.314-27.61C50.242 360.87 21 390.038 21 425.933S50.242 491 86.213 491c31.316 0 57.482-22.147 63.744-51.553h212.234C368.453 468.853 394.617 491 425.934 491c35.97 0 65.066-29.171 65.066-65.066s-29.095-65.065-65.066-65.065c-22.068 0-41.512 10.986-53.315 27.76l-88.86-44.797 91.944-46.414c11.97 14.332 30.07 23.5 50.23 23.5C461.906 320.918 491 291.895 491 256s-29.095-65.066-65.066-65.066c-20.162 0-38.262 9.126-50.23 23.5L283.76 168.02l88.86-44.796c11.81 16.718 31.289 27.76 53.314 27.76 35.97 0 65.066-29.172 65.066-65.067S461.905 21 425.934 21c-31.427 0-57.748 22.166-63.89 51.7h-211.94C143.962 43.165 117.64 21 86.213 21zm-10.87 14.1c2.534 0 4.93.25 7.344.734C62.3 39.996 46.85 60.58 46.85 85.479c0 24.898 15.45 45.628 35.838 49.79-2.415.486-4.81.735-7.344.735-23.997 0-43.621-22.627-43.621-50.525 0-27.899 19.625-50.38 43.62-50.38zm344.864 0c2.533 0 5.074.25 7.49.734-20.389 4.162-35.984 24.746-35.984 49.645 0 24.898 15.595 45.628 35.984 49.79a38.3 38.3 0 0 1-7.49.735c-23.995 0-43.475-22.627-43.475-50.525 0-27.899 19.48-50.38 43.475-50.38zM150.25 97.229h211.646c.198 1.067.344 2.175.588 3.23L256 154.069l-106.338-53.464c.259-1.11.381-2.25.588-3.376zM256 181.975l107.807 54.197A65 65 0 0 0 360.723 256c0 6.844 1.112 13.344 3.084 19.535L256 329.88l-107.66-54.197A64.1 64.1 0 0 0 151.426 256c0-6.941-1.062-13.699-3.086-19.975zM75.344 205.62c2.533 0 4.93.25 7.344.734C62.3 210.518 46.85 231.102 46.85 256s15.45 45.629 35.838 49.791c-2.415.485-4.81.734-7.344.734-23.997 0-43.621-22.627-43.621-50.525s19.625-50.377 43.62-50.377zm344.863 0c2.533 0 5.074.25 7.49.734-20.389 4.163-35.984 24.747-35.984 49.645s15.595 45.629 35.984 49.791a38.3 38.3 0 0 1-7.49.734c-23.995 0-43.475-22.627-43.475-50.525s19.48-50.377 43.475-50.377zM256 357.785l106.338 53.61c-.259 1.138-.39 2.354-.588 3.523H150.396a74 74 0 0 0-.734-3.672zm-180.656 18.36c2.533 0 4.93.25 7.344.734C62.3 381.04 46.85 401.623 46.85 426.52s15.45 45.63 35.838 49.791c-2.415.486-4.81.735-7.344.735-23.997 0-43.621-22.627-43.621-50.526 0-27.898 19.625-50.376 43.62-50.376zm344.863 0c2.533 0 5.074.25 7.49.734-20.389 4.162-35.984 24.744-35.984 49.642s15.595 45.63 35.984 49.791a38.3 38.3 0 0 1-7.49.735c-23.995 0-43.475-22.627-43.475-50.526 0-27.898 19.48-50.376 43.475-50.376z"/></svg>