<svg xmlns="http://www.w3.org/2000/svg" viewBox="0 0 512 512"><path d="m255.854 21-63.745 80.781L89.885 89.738l11.75 102.371L21 255.854l80.928 64.037-12.043 102.224 102.224-11.896L255.854 491l64.037-80.781 102.224 11.896-12.043-102.224L491 255.854l-80.635-63.745 11.75-102.37-102.224 12.042zm-2.35 43.182c.818-.088 1.656 0 2.496 0 13.44 0 24.38 11.546 24.38 25.85 0 14.302-10.94 25.849-24.38 25.849s-24.38-11.547-24.38-25.85c0-13.409 9.607-24.528 21.884-25.85zm-27.906 36.277c4.25 13.504 16.282 23.207 30.402 23.207s26.006-9.703 30.256-23.207l30.844 10.576 27.466 13.512c-6.544 12.553-4.843 27.91 5.141 37.894 9.984 9.985 25.192 11.537 37.746 4.993l13.66 27.906 10.428 30.258c-13.504 4.248-23.207 16.282-23.207 30.402s9.703 26.007 23.207 30.256l-10.135 29.375-14.1 28.933c-12.553-6.543-27.91-4.99-37.894 4.997-9.984 9.982-11.538 25.34-4.994 37.892l-27.758 13.512-30.404 10.43c-4.25-13.504-16.136-23.207-30.256-23.207s-26.153 9.702-30.402 23.207l-29.375-10.135-28.641-13.953c6.544-12.554 4.99-27.764-4.994-37.746-9.984-9.987-25.341-11.687-37.895-5.143l-13.953-28.787-10.135-29.375c13.505-4.25 23.207-16.136 23.207-30.256s-9.702-26.154-23.207-30.402l10.282-29.817 13.806-28.199c12.554 6.544 27.764 4.99 37.748-4.994 9.985-9.984 11.685-25.341 5.141-37.895l29.227-14.392zm148.636 13.072c6.428-.183 12.727 2.15 17.479 6.903 9.504 9.503 9.084 25.43-1.03 35.545-10.113 10.113-26.039 10.53-35.542 1.027s-9.087-25.43 1.027-35.543c5.057-5.057 11.639-7.748 18.066-7.932zm-238.671.147c.796-.058 1.546-.022 2.35 0 6.427.183 12.862 2.875 17.919 7.931 10.114 10.114 10.531 25.893 1.027 35.397-9.503 9.504-25.282 9.086-35.396-1.027-10.114-10.114-10.533-25.895-1.03-35.399a23.7 23.7 0 0 1 15.13-6.902zm97.671 25.85-21.738 7.343-21.736 10.87c4.901 9.402 3.511 20.867-3.967 28.345s-18.797 8.721-28.2 3.82l-10.427 21.149-7.639 22.18c10.114 3.181 17.332 12.19 17.332 22.765s-7.218 19.584-17.332 22.766l7.639 22.03 10.428 21.444c9.402-4.9 21.016-3.514 28.494 3.965s8.573 18.799 3.672 28.201l21.443 10.574 22.031 7.49c3.183-10.114 12.19-17.33 22.766-17.33s19.436 7.216 22.62 17.33l22.765-7.93 20.709-9.987c-4.902-9.4-3.66-20.87 3.818-28.348s19.092-8.864 28.494-3.965l10.428-21.443 7.639-22.031c-10.114-3.182-17.332-12.19-17.332-22.766s7.218-19.584 17.332-22.766l-7.932-22.619-10.135-20.855c-9.402 4.901-20.721 3.804-28.199-3.674s-8.868-19.09-3.967-28.492l-20.562-10.135-23.059-7.932c-3.183 10.115-12.044 17.332-22.619 17.332s-19.583-7.217-22.766-17.332zM256 173.307c45.686 0 82.691 37.006 82.691 82.692S301.686 338.69 256 338.69s-82.691-37.004-82.691-82.69 37.005-82.691 82.691-82.691zm-10.281 30.405-9.694 3.23-9.841 4.846c2.202 4.226 1.599 9.418-1.762 12.78-3.361 3.36-8.405 3.964-12.631 1.761l-4.701 9.4-3.377 9.989c4.546 1.43 7.783 5.528 7.783 10.281s-3.237 8.851-7.783 10.281l3.377 9.84 4.701 9.693c4.226-2.202 9.416-1.597 12.777 1.764s3.818 8.405 1.616 12.631l9.695 4.701 9.84 3.377c1.43-4.546 5.528-7.785 10.281-7.785s8.704 3.24 10.135 7.785l10.281-3.525 9.252-4.553c-2.203-4.226-1.597-9.27 1.764-12.63 3.36-3.362 8.551-3.967 12.777-1.765l4.701-9.693 3.377-9.84c-4.546-1.43-7.783-5.528-7.783-10.281s3.237-8.851 7.783-10.281l-3.525-10.135-4.553-9.4c-4.226 2.202-9.27 1.745-12.63-1.616-3.362-3.36-3.965-8.553-1.763-12.779l-9.253-4.553-10.428-3.523c-1.43 4.546-5.382 7.783-10.135 7.783s-8.85-3.237-10.281-7.783zM87.535 231.619c.87-.084 1.749 0 2.643 0 14.303 0 25.85 10.94 25.85 24.381 0 13.44-11.547 24.38-25.85 24.38s-25.85-10.94-25.85-24.38c0-12.6 10.154-23.13 23.207-24.38zm331.79 0c.87-.084 1.75 0 2.644 0 14.303 0 25.85 10.94 25.85 24.381 0 13.44-11.547 24.38-25.85 24.38s-25.85-10.94-25.85-24.38c0-12.6 10.151-23.13 23.205-24.38zM139.526 348.236c6.428-.183 12.873 2.005 17.625 6.756 9.504 9.504 9.087 25.431-1.027 35.545s-26.04 10.533-35.543 1.027c-9.504-9.502-9.086-25.43 1.027-35.543 5.057-5.057 11.491-7.601 17.918-7.785zm230.594 0c.797-.056 1.548 0 2.352 0 6.427.184 13.007 2.875 18.064 7.932 10.114 10.113 10.533 26.041 1.03 35.545s-25.432 9.082-35.546-1.03c-10.113-10.115-10.53-26.037-1.027-35.542a23.7 23.7 0 0 1 15.127-6.905zm-116.617 47.735c.818-.091 1.656 0 2.496 0 13.44 0 24.38 11.547 24.38 25.851 0 14.305-10.94 25.85-24.38 25.85s-24.38-11.55-24.38-25.85c0-13.41 9.607-24.533 21.884-25.851z"/></svg>