<svg xmlns="http://www.w3.org/2000/svg" viewBox="0 0 512 512"><path d="M491 21c-34.677 26.79-79.606 47.632-130.719 59.78v82.835C426.311 136.33 475.536 84.002 491 21zm-470 .146c15.511 63.001 64.726 115.371 130.719 142.618V80.779C100.633 68.662 55.706 47.921 21 21.146zm221.635 7.64c-65.57 1.207-116.62 11.292-116.62 23.5 0 13.02 58.17 23.646 129.985 23.646s129.984-10.625 129.984-23.647-58.169-23.5-129.984-23.5c-4.488 0-8.994-.08-13.365 0zm-74.76 55.517v85.482c27.251 9.196 56.895 14.246 87.979 14.246 31.134 0 60.956-5.168 88.271-14.392V84.303c-27.99 5.516-57.586 8.52-88.271 8.52-30.609 0-60.073-3.034-87.979-8.52zM256 114.56c11.838 0 21.443 9.605 21.443 21.443 0 11.837-9.605 21.297-21.443 21.297s-21.443-9.46-21.443-21.297S244.162 114.56 256 114.56zm235 8.812c-34.677 26.79-79.606 47.63-130.719 59.777v82.838c66.03-27.286 115.255-79.613 130.719-142.615zm-470 .147c15.511 63 64.726 115.368 130.719 142.615V183.15C100.633 171.033 55.706 150.294 21 123.52zm146.875 63.156v85.48c27.251 9.196 56.895 14.246 87.979 14.246 31.134 0 60.956-5.167 88.271-14.392v-85.334c-27.99 5.516-57.586 8.517-88.271 8.517-30.609 0-60.073-3.03-87.979-8.517zM256 215.463c11.838 0 21.443 9.606 21.443 21.443S267.838 258.35 256 258.35s-21.443-9.606-21.443-21.444 9.605-21.443 21.443-21.443zm235 10.135c-34.676 26.788-79.61 47.63-130.719 59.777v82.838c66.013-27.29 115.257-79.624 130.719-142.615zm-470 .146c15.511 63.001 64.726 115.369 130.719 142.615v-82.984C100.633 273.257 55.706 252.518 21 225.745zM167.875 288.9v85.48c27.258 9.202 56.885 14.249 87.979 14.249 31.134 0 60.956-5.17 88.271-14.395V288.9c-27.99 5.516-57.586 8.518-88.271 8.518-30.609 0-60.073-3.031-87.979-8.518zM256 316.512c11.838 0 21.443 9.607 21.443 21.445s-9.605 21.297-21.443 21.297-21.443-9.46-21.443-21.297 9.605-21.445 21.443-21.445zm235 11.457c-34.676 26.788-79.61 47.63-130.719 59.777v82.838C426.294 443.294 475.538 390.96 491 327.969zm-470 .146c15.511 63.001 64.726 115.369 130.719 142.615v-82.984C100.633 375.628 55.706 354.89 21 328.116zm146.875 63.156v85.483C195.133 485.955 224.76 491 255.854 491c31.134 0 60.956-5.17 88.271-14.395v-85.334c-27.99 5.517-57.586 8.52-88.271 8.52-30.609 0-60.073-3.033-87.979-8.52zM256 417.416c11.838 0 21.443 9.606 21.443 21.443s-9.605 21.444-21.443 21.444-21.443-9.606-21.443-21.444 9.605-21.443 21.443-21.443z"/></svg>