<svg xmlns="http://www.w3.org/2000/svg" viewBox="0 0 512 512"><path d="M84.598 21c-12.272 0-23.636 3.42-33.342 9.4v331.204c0 35.294 28.413 63.744 63.598 63.744h56.693c-18.828-47.365-30.11-105.878-30.11-169.348 0-97.535 26.38-183.597 66.387-235zm219.578 0c40.008 51.403 66.387 137.466 66.387 235 0 63.47-11.135 121.983-29.963 169.348h56.546c35.185 0 63.598-28.45 63.598-63.744V30.4a63.6 63.6 0 0 0-33.342-9.4zm166.85 17.184v350.445c0 35.295-28.414 63.742-63.598 63.742h-79.166c-7.31 14.307-15.34 27.392-24.086 38.629h123.226C462.587 491 491 462.55 491 427.256V84.598c0-18.358-7.647-34.839-19.975-46.414zm-430.051.148C28.735 49.9 21 66.314 21 84.598v342.658C21 462.55 49.413 491 84.598 491h123.226c-8.751-11.244-16.772-24.31-24.086-38.629h-79.166c-35.184 0-63.597-28.447-63.597-63.742zM256 78.984c-46.402 0-84.012 90.647-84.012 177.016 0 86.37 37.61 211.768 84.012 211.768S340.012 342.37 340.012 256 302.402 78.984 256 78.984z"/></svg>