<svg xmlns="http://www.w3.org/2000/svg" viewBox="0 0 512 512"><path d="M256 21C126.213 21 21 126.213 21 256s105.213 235 235 235 235-105.213 235-235S385.787 21 256 21zm-25.703 44.063v27.025c0 16.57 11.434 29.814 25.703 29.814s25.703-13.244 25.703-29.814V65.063c85.858 11.447 153.787 79.376 165.235 165.234h-27.026c-16.57 0-29.814 11.434-29.814 25.703s13.244 25.703 29.814 25.703h27.026C435.49 367.561 367.56 435.49 281.703 446.938v-27.026c0-16.57-11.434-29.814-25.703-29.814s-25.703 13.244-25.703 29.814v27.026C144.439 435.49 76.51 367.56 65.063 281.703h27.025c16.57 0 29.814-11.434 29.814-25.703s-13.244-25.703-29.814-25.703H65.063C76.51 144.439 144.439 76.51 230.297 65.063zm-66.535 75.494c-6.158.117-12.035 2.341-16.45 6.756-10.09 10.09-8.633 27.646 3.084 39.363l20.124 20.12c-8.37 14.5-13.22 31.26-13.22 49.204s4.85 34.704 13.22 49.203l-20.124 20.121c-11.716 11.717-13.173 29.274-3.083 39.363 10.09 10.09 27.646 8.634 39.363-3.083l20.12-20.124c14.5 8.37 31.26 13.22 49.204 13.22s34.704-4.85 49.203-13.22l20.121 20.124c11.717 11.716 29.274 13.173 39.363 3.084 10.09-10.09 8.634-27.647-3.083-39.364l-20.124-20.12c8.37-14.5 13.22-31.26 13.22-49.204s-4.85-34.704-13.22-49.203l20.124-20.121c11.717-11.717 13.173-29.274 3.084-39.363-4.415-4.415-10.292-6.639-16.45-6.756-7.917-.151-16.321 3.249-22.912 9.84l-20.123 20.123c-14.5-8.37-31.259-13.22-49.203-13.22s-34.704 4.85-49.203 13.22l-20.121-20.124c-6.591-6.59-14.997-9.99-22.914-9.84zM256 198.426c31.798 0 57.574 25.776 57.574 57.574S287.798 313.574 256 313.574 198.426 287.798 198.426 256s25.776-57.574 57.574-57.574z"/></svg>