<svg xmlns="http://www.w3.org/2000/svg" viewBox="0 0 512 512"><path d="M267.162 21C148.907 21 51.606 113.309 39.801 231.705c3.895-44.132 18.27-84.797 40.39-119.12L21 127.016v257.823l59.043 14.43c-22.06-34.288-36.353-74.913-40.242-118.973C51.606 398.69 148.907 491 267.162 491c11.773 0 23.369-.883 34.662-2.65.681-.116 1.378-.173 2.057-.295.547-.091 1.07-.2 1.615-.295.094-.019.2.018.295 0 3.542-.671 7.092-1.514 10.574-2.356C416.451 461.224 491 367.748 491 256S416.451 50.777 316.365 26.596c-3.482-.842-7.032-1.685-10.574-2.356-.096-.018-.2.019-.295 0l-1.615-.295c-.683-.113-1.372-.187-2.057-.295-11.293-1.767-22.889-2.65-34.662-2.65zm18.213 18.848c12.988 1.39 25.603 4.037 37.746 7.95l-91.062 90.556c8.3 3.485 16.23 7.846 23.5 13.103L367.77 68.855a205 205 0 0 1 33.047 26.21L272.891 166.77c6.702 7.117 12.52 15.08 17.478 23.706l143.643-53.45c7.745 12.72 14.376 26.401 19.535 40.787L300.65 213.006c3.273 9.572 5.612 19.7 6.61 30.183l158.625-10.453c.754 7.64 1.174 15.41 1.174 23.264 0 7.855-.42 15.626-1.174 23.266L307.26 268.81c-.998 10.484-3.337 20.613-6.61 30.185l152.897 35.19c-5.159 14.386-11.79 28.066-19.535 40.787l-143.643-53.45c-4.957 8.627-10.776 16.59-17.478 23.707l127.927 71.707a205 205 0 0 1-33.047 26.21L255.56 360.542c-7.27 5.257-15.2 9.62-23.5 13.105l91.062 90.553c-12.143 3.914-24.758 6.56-37.746 7.951L212.23 379.98a112.3 112.3 0 0 1-24.38 2.65C121.579 382.629 68 325.922 68 256s53.579-126.629 119.85-126.629c8.435 0 16.436.903 24.38 2.65zm-98.26 108.812c-5.557 0-11.134.422-16.449 1.326l39.215 49.473c3.619-.796 7.32-1.178 11.162-1.178 30.188 0 54.785 25.867 54.785 57.719s-24.597 57.719-54.785 57.719c-3.842 0-7.543-.382-11.162-1.178l-39.215 49.475c5.315.905 10.892 1.324 16.45 1.324 54.418 0 98.912-45.04 101.638-101.744.088-1.83 0-3.744 0-5.596 0-59.27-45.464-107.34-101.639-107.34zm-33.928 6.184c-7.394 2.763-14.507 6.351-21.003 10.75l58.164 42.847c3.31-2.394 6.793-4.449 10.574-6.037zm-36.572 23.707c-6.01 6.072-11.257 12.856-15.715 20.318l73.438 27.24c2.258-3.93 5.025-7.506 8.078-10.748zm-24.822 39.902a110.7 110.7 0 0 0-5.875 26.358l80.781 5.3a59.6 59.6 0 0 1 2.938-13.693zm74.906 43.438-80.781 5.3a110.7 110.7 0 0 0 5.875 26.356l77.844-17.963a59.6 59.6 0 0 1-2.938-13.693zm7.639 24L100.9 313.13c4.458 7.462 9.705 14.248 15.715 20.32l65.801-36.812c-3.053-3.242-5.82-6.819-8.078-10.748zm16.01 17.67-58.164 42.847c6.496 4.399 13.61 7.985 21.004 10.748l47.734-47.558c-3.781-1.588-7.263-3.643-10.574-6.037z"/></svg>