<svg xmlns="http://www.w3.org/2000/svg" viewBox="0 0 512 512"><path d="M25.113 21C22.505 92.906 21 172.3 21 256c0 83.641 1.509 162.986 4.113 234.854.93-.206 1.88-.39 2.79-.59 10.437-2.299 18.609-8.187 23.206-15.744V37.922c-4.554-7.87-12.743-14.144-23.353-16.48-.876-.193-1.762-.314-2.643-.442zm461.774 0c-.881.129-1.767.248-2.643.441-10.61 2.337-18.799 8.612-23.353 16.48V474.52c4.598 7.557 12.77 13.445 23.207 15.744.954.21 1.855.53 2.789.736C489.495 419.094 491 339.7 491 256s-1.505-163.094-4.113-235zM79.604 42.043c-6.605.235-13.281 1.889-19.094 4.855v418.35c10.566 5.482 23.552 6.795 34.955 2.65 1.159-.421 2.405-1.085 3.525-1.619 4.729-2.24 8.533-5.317 11.457-8.83V54.846c-2.959-3.582-6.806-6.7-11.603-8.977-6.063-2.876-12.636-4.061-19.24-3.826zm352.792 0c-6.604-.235-13.323.95-19.386 3.826-4.797 2.276-8.498 5.395-11.457 8.977v402.603c2.923 3.513 6.582 6.59 11.31 8.83 1.12.534 2.365 1.198 3.524 1.62 11.403 4.144 24.39 2.83 34.957-2.651V46.898c-5.813-2.966-12.343-4.62-18.948-4.855zM256 57.936c-23.14 0-41.86 18.9-41.86 42.084 0 23.183 18.72 41.939 41.86 41.939s41.86-18.756 41.86-41.94S279.14 57.937 256 57.937zm-119.996 17.95c-5.349-.167-10.829.56-16.01 2.21v355.957a46.7 46.7 0 0 0 13.512 2.353c9.894.232 19.564-2.816 26.879-8.828 4.922-4.045 8.122-8.985 9.547-14.273V99.432c-1.337-5.543-4.698-10.783-9.842-15.01-6.637-5.454-15.172-8.256-24.086-8.535zm239.992 0c-8.914.28-17.597 3.082-24.234 8.536-5.143 4.227-8.357 9.467-9.694 15.01v313.873c1.425 5.288 4.625 10.228 9.547 14.273 7.315 6.012 16.985 9.06 26.88 8.828 4.52-.106 9.16-.906 13.51-2.353V78.096a48.3 48.3 0 0 0-12.042-2.21c-1.347-.07-2.63-.042-3.967 0zm-196.371 37.231v285.914c7.085-2.527 14.398-4.756 21.885-6.77 8.09-22.336 29.4-38.26 54.49-38.26 25.09.001 46.4 15.924 54.49 38.26 7.487 2.014 14.8 4.243 21.885 6.77V113.117c-7.123 2.54-14.49 4.745-22.031 6.768-8.14 22.242-29.322 38.26-54.344 38.26s-46.204-16.018-54.344-38.26c-7.561-2.027-14.89-4.221-22.031-6.768zm49.496 77.696h53.758c8.332 0 14.98 6.661 14.98 15.01s-6.648 15.156-14.98 15.156H229.12c-8.332 0-14.98-6.809-14.98-15.157s6.648-15.01 14.98-15.01zm0 50.177h53.758c8.332 0 14.98 6.515 14.98 14.864s-6.648 15.156-14.98 15.156H229.12c-8.332 0-14.98-6.809-14.98-15.156s6.648-14.864 14.98-14.864zm0 50.031h53.758c8.332 0 14.98 6.516 14.98 14.864s-6.648 15.156-14.98 15.156H229.12c-8.332 0-14.98-6.808-14.98-15.156s6.648-14.864 14.98-14.864zM256 370.19c-23.14 0-41.86 18.754-41.86 41.938s18.72 41.94 41.86 41.94 41.86-18.758 41.86-41.94S279.14 370.19 256 370.19z"/></svg>