<svg xmlns="http://www.w3.org/2000/svg" viewBox="0 0 512 512"><path d="M256 21c-14.436 0-28.557 1.145-42.273 3.23l21.668 210.18-60.303-201.514c-26.887 8.256-51.476 20.595-72.729 35.985l97.424 182.713L74.637 92.527c-17.804 18.063-31.67 38.911-40.91 61.541l145.91 126.9-155.455-95.175C22.165 196.168 21 206.813 21 217.666c0 13.058 1.499 25.84 4.395 38.188l153.787 59.337L36 287.14c9.923 22.027 24.466 42.33 42.576 59.777l121.516-2.496L106 369.24c21.14 14.7 45.382 26.42 71.818 34.223l57.577-41.713L212.666 491h19.244l13.028-102.617L243.273 491h55.909l-22.727-129.25 57.576 41.86c26.465-7.793 50.654-19.67 71.819-34.37l-93.487-24.38 121.06 2.056c18.111-17.447 32.654-37.75 42.577-59.777l-143.484 27.906 154.09-59.191A167 167 0 0 0 491 217.666c0-10.854-1.165-21.498-3.182-31.873l-155.152 95.176 145.607-126.9c-9.266-22.692-23.188-43.592-41.06-61.688l-125 159.066 97.271-182.713c-21.25-15.357-45.858-27.603-72.726-35.838L276.605 234.41l21.516-210.18C284.451 22.16 270.385 21 256 21zm0 246.457c30.8 0 55.758 17.388 55.758 38.922S286.8 345.447 256 345.447s-55.758-17.534-55.758-39.068 24.959-38.922 55.758-38.922z"/></svg>