<svg xmlns="http://www.w3.org/2000/svg" viewBox="0 0 512 512"><path d="M120.305 21.033c-.21.38-.526.795-.735 1.176-.796 1.459-1.57 2.94-2.35 4.404-2.857 5.372-5.659 10.731-8.37 16.155a791 791 0 0 0-24.67 54.336c-9.197 22.489-17.288 45.342-23.057 68.728-4.593 18.444-7.92 37.54-7.049 56.832-5.199-7.327-10.274-14.88-14.685-23.057-4.845-9.164-9.298-18.457-11.014-28.783-1.603-8.716-.789-18.607.734-28.342 1.702-10.597 4.449-20.999 7.635-31.132 2.654-8.432 5.714-16.616 8.96-24.672.999-2.48 1.88-5.056 2.937-7.49.288-.668.583-1.246.88-1.909-.317.582-.713 1.175-1.027 1.762-1.221 2.276-2.356 4.567-3.525 6.902-3.798 7.585-7.302 15.505-10.574 23.643-3.93 9.768-7.404 19.927-9.985 30.84-2.396 9.95-4.168 20.92-3.084 32.308 1.388 12.895 5.553 24.581 10.133 34.805 5.272 11.978 11.506 22.956 17.916 33.482 5.528 8.147 11.058 16.35 16.594 24.524 4.406 8.071 9.825 15.695 16.154 22.764 13.934 15.567 30.583 28.579 46.26 41.265 14.902 12.251 29.301 24.095 38.328 37.594 4.374 6.437 7.591 13.251 9.252 20.12 1.901 7.514 2.049 15.557.734 23.495-1.31 8.308-7.118 16.49-14.978 22.176-6.723 5.07-15.662 8.72-25.26 11.895.086-1.185.145-2.172.145-3.377 0-26.84-22.362-48.66-50.372-49.49 15.513 6.477 24.354 18.435 19.678 28.048-5.007 10.294-23.36 13.817-40.972 7.783-10.305-3.53-18.183-9.547-21.881-16.005-6.583 8.312-10.573 18.474-10.573 29.664 0 27.363 23.358 49.49 52.133 49.49 4.75 0 17.331-1.211 25.846-2.938 11.568-2.345 23.084-5.49 34.07-9.986 14.858-6.08 29.761-12.322 42.588-22.762 12.04-8.22 22.421-26.558 24.084-42.588.992-10.939.171-22.053-3.379-32.748-3.305-9.715-8.712-18.605-15.125-26.582-13.243-16.26-29.913-28.74-46.113-40.09-16.899-12.034-33.718-23.218-47.139-36.42-13.76-13.518-24.085-29.666-27.61-47.14-4.197-19.976-2.286-41.173 1.177-62.412 3.804-23.036 10.12-46.127 17.474-68.875 5.994-18.533 12.623-36.828 20.12-55.07a697 697 0 0 1 7.048-16.594c.663-1.5 1.377-3.058 2.057-4.553.18-.39.41-.785.59-1.176zm271.386 0c.18.39.41.785.59 1.176.678 1.495 1.394 3.053 2.057 4.553 2.429 5.5 4.626 11.055 6.902 16.593 7.497 18.243 14.272 36.538 20.266 55.07 7.354 22.75 13.524 45.84 17.328 68.876 3.463 21.239 5.52 42.436 1.322 62.412-3.524 17.474-13.995 33.622-27.756 47.14-13.42 13.202-30.092 24.386-46.992 36.42-16.199 11.35-32.868 23.83-46.111 40.09-6.413 7.977-11.822 16.867-15.127 26.582-3.549 10.695-4.516 21.81-3.524 32.748 1.663 16.03 12.042 34.369 24.083 42.588 12.826 10.44 27.878 16.681 42.736 22.762 10.986 4.496 22.354 7.64 33.922 9.986 8.515 1.727 21.391 2.938 26.14 2.938 28.775 0 51.987-22.128 51.987-49.49 0-11.245-3.961-21.478-10.575-29.811-3.629 6.5-11.224 12.602-21.587 16.152-17.612 6.034-35.964 2.511-40.971-7.783-4.67-9.601 3.924-21.565 19.385-28.049-27.952.903-50.52 22.698-50.52 49.49 0 1.206.073 2.193.145 3.378-9.598-3.175-18.242-6.825-24.965-11.895-7.86-5.686-13.817-13.868-15.127-22.176-1.315-7.938-1.314-15.98.592-23.496 1.66-6.868 5.024-13.682 9.398-20.119 9.027-13.499 23.428-25.343 38.33-37.594 15.677-12.686 32.177-25.698 46.111-41.265 6.33-7.07 11.895-14.693 16.301-22.764 5.536-8.174 11.067-16.377 16.594-24.524 6.41-10.526 12.646-21.504 17.918-33.482 4.58-10.224 8.743-21.91 10.13-34.805 1.085-11.389-.69-22.359-3.083-32.308-2.58-10.913-6.056-21.072-9.986-30.84-3.272-8.138-6.775-16.058-10.573-23.643-1.17-2.335-2.304-4.626-3.525-6.902-.317-.587-.706-1.18-1.027-1.762.295.663.446 1.24.734 1.909 1.057 2.434 2.084 5.01 3.084 7.49 3.245 8.056 6.305 16.24 8.959 24.672 3.186 10.133 5.933 20.535 7.635 31.132 1.524 9.735 2.337 19.626.734 28.342-1.715 10.326-6.169 19.619-11.014 28.783-4.412 8.177-9.487 15.73-14.685 23.057.872-19.292-2.456-38.388-7.049-56.832-5.77-23.386-14.007-46.24-23.203-68.728-7.493-18.33-15.593-36.474-24.524-54.336-2.712-5.424-5.66-10.781-8.517-16.153-.78-1.465-1.407-2.947-2.203-4.406-.21-.381-.526-.796-.735-1.176zM255.998 53.05c-71.298 0-129.084 57.922-129.084 129.23 0 65.029 81.675 111.27 110.58 173.434 8.717 18.748 14.533 22.845 18.504 59.183 3.971-36.338 9.787-40.435 18.504-59.183 28.905-62.163 110.58-108.405 110.58-173.434 0-71.308-57.786-129.23-129.084-129.23zm0 81.209c45.835 0 82.973 37.132 82.973 82.972 0 45.841-37.138 82.973-82.973 82.973s-82.973-37.132-82.973-82.973 37.139-82.972 82.973-82.972zm0 50.078c-27.729 0-50.225 21.89-50.225 48.902s22.496 48.903 50.225 48.903 50.225-21.89 50.225-48.903-22.496-48.902-50.225-48.902z"/></svg>