<svg xmlns="http://www.w3.org/2000/svg" viewBox="0 0 512 512"><path d="M256.074 21c-.155 0-.469.178-.588.441 0 0-13.332 38.353-20.861 69.913-3.867-2.562-8.086-4.512-12.486-5.729-5.745-1.55-11.441-1.757-16.748-1.027-5.307.729-10.066 2.316-14.25 4.699-5.16 2.991-8.952 6.927-11.46 11.016-2.507 4.088-3.692 8.472-3.966 12.484-.405 6.9 2.038 12.295 4.996 16.156 3.481 4.527 7.502 6.68 10.283 7.637s4.322.803 4.701.146c.38-.656-.48-1.829-1.91-3.672-1.43-1.842-3.353-4.489-4.555-8.078-1.031-3.054-1.516-6.894-.292-10.72.667-2.193 1.95-4.471 3.818-6.463s4.298-3.804 7.053-4.848c2.238-.891 4.779-1.19 7.492-1.174s5.462.444 7.933 1.469c4.382 1.741 8.397 5.6 10.284 9.986 1.777 3.979 1.862 9.113.146 13.514-1.178 3.212-3.635 6.397-6.758 9.4-2.999 2.864-6.928 5.188-11.459 7.637-8.495 4.608-19.44 8.174-32.025 13.807-17.497 7.823-34.376 18.895-49.067 33.047-14.69 14.152-27.202 31.453-35.552 51.26-4.262 10.173-7.287 20.91-9.108 32.017-.624-7.945-.715-16.165.44-23.94.137-1.082.406-2.141.588-3.232 1.188-7.138 3.155-14.156 5.435-21.443s4.819-14.845 7.053-22.62c2.78-9.3 5.125-19.118 6.463-29.228 1.56-11.549 1.38-23.396-.293-34.074-1.682-10.22-4.775-18.721-8.08-25.115-3.306-6.394-6.734-10.747-9.844-13.66s-5.883-4.404-7.785-4.846a4.8 4.8 0 0 0-1.176-.149c-1.14.007-1.931.474-2.203 1.323-.363 1.132.11 3.01 1.027 5.287.918 2.277 2.271 5.166 3.82 8.812 1.55 3.647 3.322 8.014 4.702 13.219s2.382 11.14 2.496 17.332c.226 6.68-.657 14.1-2.35 22.031-1.516 6.987-3.916 14.453-6.758 22.47-2.436 6.611-5.24 13.665-7.933 21.74s-5.325 17.191-7.197 27.464c-.286 1.57-.488 3.09-.735 4.701-2.355 16.988-1.455 34.417 1.615 49.938 3.071 15.52 8.269 29.253 14.543 40.095 3.883 6.64 8.16 11.921 12.342 16.305 3.745 10.586 8.814 20.951 15.278 30.99 10.47 16.18 24.326 30.987 41.28 43.328a175 175 0 0 0 11.165 7.49c12.201 4.935 25.4 8.981 39.225 12.044-16.954-2.568-33.17-6.2-48.333-10.721-9.536.25-18.591.91-27.03 1.762-.916.092-1.903.202-2.792.295-11.882 1.095-21.527 2.056-29.969 2.056-7.72.13-15.51-.368-22.625-1.322-7.113-.954-13.588-2.32-19.097-3.525-5.51-1.203-10.098-2.386-13.809-3.084-2.783-.524-5.185-.722-6.904-.588a6.5 6.5 0 0 0-1.469.293c-1.76.565-2.347 2.027-1.176 4.113s4.217 4.692 9.403 7.785 12.597 6.54 22.476 9.4c9.88 2.86 22.077 5.028 35.846 5.876 14.422.763 28.682.235 41.133-1.03.944-.085 1.86-.203 2.79-.293 7.12-.677 13.285-1.281 19.1-1.763-2.522 2.787-3.966 5.78-3.966 8.812 0 18.132 48.097 32.754 107.535 32.754s107.683-14.622 107.683-32.754c0-3.032-1.444-6.025-3.966-8.812 5.855.482 12.064 1.08 19.246 1.763.93.089 1.7.208 2.644.293 12.45 1.263 26.711 1.793 41.133 1.03 13.769-.848 25.967-3.017 35.846-5.875s17.439-6.31 22.625-9.4c5.186-3.092 8.082-5.7 9.254-7.786s.585-3.548-1.174-4.113c-.88-.283-1.981-.373-3.38-.293-1.397.08-3.14.237-4.995.588-3.71.698-8.153 1.881-13.662 3.084-5.51 1.205-11.984 2.572-19.098 3.525a153.5 153.5 0 0 1-22.623 1.322c-8.442 0-18.235-.961-30.117-2.056-.889-.091-1.73-.202-2.645-.295-8.44-.852-17.6-1.512-27.177-1.762-15.173 4.52-31.4 8.149-48.332 10.72 13.818-3.07 27.02-7.112 39.224-12.042a175 175 0 0 0 11.164-7.49c16.955-12.341 30.957-27.148 41.428-43.329 6.46-10.033 11.388-20.41 15.133-30.99 4.148-4.389 8.302-9.651 12.193-16.305 6.275-10.842 11.619-24.575 14.69-40.095s3.973-32.95 1.617-49.938c-.247-1.61-.597-3.131-.883-4.7-1.873-10.274-4.505-19.391-7.197-27.466s-5.351-15.128-7.787-21.738c-2.842-8.018-5.388-15.484-6.905-22.47-1.692-7.932-2.575-15.352-2.35-22.032.114-6.192 1.264-12.127 2.643-17.332a97 97 0 0 1 4.555-13.219c1.55-3.646 3.048-6.535 3.967-8.812.918-2.278 1.243-4.156.88-5.287-.271-.85-.915-1.316-2.056-1.323a5.8 5.8 0 0 0-1.322.149c-1.902.442-4.53 1.932-7.639 4.845-3.11 2.914-6.685 7.267-9.99 13.66-3.306 6.395-6.399 14.895-8.08 25.116-1.673 10.678-1.707 22.525-.147 34.074 1.338 10.11 3.536 19.928 6.317 29.229 2.234 7.774 4.772 15.332 7.052 22.619s4.395 14.305 5.582 21.443c.182 1.09.306 2.15.442 3.233 1.155 7.774 1.315 15.994.734 23.939-1.82-11.107-4.845-21.844-9.107-32.018-8.35-19.805-20.862-37.108-35.553-51.26-14.69-14.15-31.717-25.223-49.215-33.046-12.585-5.633-23.676-9.199-32.172-13.807-4.53-2.449-8.313-4.773-11.312-7.637-3.123-3.003-5.58-6.188-6.758-9.4-1.716-4.401-1.629-9.535.148-13.514 1.886-4.385 5.902-8.245 10.284-9.986 2.471-1.026 5.22-1.453 7.933-1.469 2.713-.014 5.254.284 7.492 1.174 2.755 1.044 5.33 2.856 7.198 4.848s3.153 4.27 3.82 6.463c1.223 3.826.737 7.666-.295 10.72-1.201 3.59-3.123 6.236-4.553 8.078-1.43 1.843-2.436 3.016-2.056 3.672s2.066.81 4.847-.146 6.802-3.11 10.284-7.637c2.958-3.86 5.398-9.256 4.994-16.156-.275-4.012-1.606-8.397-4.114-12.484-2.507-4.088-6.298-8.025-11.459-11.016-4.184-2.383-8.943-3.97-14.25-4.7-5.306-.728-11.002-.523-16.746 1.028-4.4 1.217-8.62 3.167-12.488 5.729-7.529-31.56-20.86-69.913-20.86-69.913-.118-.263-.286-.441-.44-.441zm-.148 139.973h.148c28.115.171 50.977 49.745 50.977 110.744 0 2.231-.086 4.41-.147 6.61-1.61-51.342-23.842-92.093-50.978-92.093s-49.22 40.75-50.83 92.092c-.058-2.199-.147-4.378-.147-6.61 0-60.998 22.862-110.572 50.977-110.743zm-68.164 22.912c-7.546 18.738-11.9 40.7-11.9 64.332 0 67.897 35.881 123.08 80.212 123.08s80.211-55.183 80.211-123.08c0-23.632-4.355-45.594-11.9-64.332 12.922 6.98 25.225 16.053 35.845 27.318 11.257 11.94 20.566 26.272 26.444 42.006 5.185 13.76 7.697 28.665 7.199 44.062-.498 15.398-3.925 31.06-10.871 45.68-6.358 13.494-15.89 26.227-27.62 37.307-11.728 11.08-25.753 20.555-41.427 27.17-4.115 1.75-8.294 3.328-12.635 4.7-14.084 4.458-28.944 6.875-43.63 7.198-1.153.029-2.229 0-3.38 0-14.686-.323-29.546-2.74-43.63-7.197-4.34-1.373-8.374-2.951-12.489-4.701-15.673-6.615-29.845-16.09-41.574-27.17s-21.112-23.813-27.47-37.307c-6.947-14.62-10.522-30.282-11.02-45.68s2.16-30.303 7.346-44.062c5.877-15.734 15.187-30.066 26.443-42.006 10.62-11.265 22.923-20.338 35.846-27.318zm68.164 28.64c22.884 0 41.576 31.585 41.576 70.647s-18.692 70.795-41.576 70.795-41.428-31.733-41.428-70.795 18.544-70.647 41.428-70.647z"/></svg>