<svg xmlns="http://www.w3.org/2000/svg" viewBox="0 0 512 512"><path d="M339.28 22.78c-.669-.005-1.33.015-2 .032-38.145 1.024-74.22 38.912-57.31 80.876-26.3 2.353-41.526 27.584-38.345 50.562 10.39 31.44 33.868 44.84 61.625 45-27.346 7.154-55.193 5.523-72.406-17.625L149.5 212.313l108 51.406c11.25-12.602 26.22-17.474 42.375-17.5 8.753-.016 17.863 1.386 26.906 3.75-20.033.113-37.857 7.13-50.125 22.844l.315.156a40.5 40.5 0 0 0-3.659 4.623c-.057.084-.13.165-.187.25q-.364.571-.72 1.156a74 74 0 0 0-1.217 2.094c-.07.126-.15.247-.22.375-.002.007.006.021 0 .03-11.694 23.345 12.238 46.865 36.938 41.689-22.892 36.36 18.478 64.644 47.688 57.06-10.04-25.77 2.36-50.004 21.75-69.625-14.102 24.75-13.893 52.543 9.906 77.781 26.3 18.466 74.21 15.381 83.094-28.625 5.17 5.78 15.042 10.45 22.687 12.721V71.906c-17.245-40.312-69.907-46.36-98.592-10.25-13.265-27.505-34.396-38.723-55.158-38.875zm42.904 79.878c-26.618 22.626-41.451 30.664-52.653 61.373 1.347-24.357-3.39-39.26-21.935-53.81 24.008 8.667 47.854 8.275 74.588-7.563zm26.878 44.31c-11.566 35.16 22.328 70.177 54.75 63.5-16.33 17.419-37.403 13.693-51.843.97-24.604 6.974-44.02 34.767-34.846 62.656-30.44-27.578-5.184-70.736 24.625-74.97-9.305-15.74-9.996-36.473 7.315-52.155zm-284.156 38.436c-7.5 0-14.255 1.25-18.28 2.782-1.656.632-2.427 1.163-2.94 1.533v46.03c.514.37 1.284.898 2.94 1.528 4.025 1.535 10.78 2.784 18.28 2.784s14.257-1.249 18.28-2.782c1.657-.632 2.428-1.16 2.94-1.53v-11.345c-6.512-.153-11.75-5.537-11.75-12.156s5.238-12.003 11.75-12.156V189.72c-.512-.37-1.282-.904-2.94-1.534-4.024-1.534-10.78-2.78-18.28-2.78zM88.844 247.5c-4.025 1.568-7.708 3.378-10.938 5.406-11.378 7.147-17.156 15.95-17.156 26.656 0 .01-.028.906 2.406 2.938s6.928 4.494 12.875 6.594c11.895 4.2 29.47 7.063 48.875 7.062 19.407 0 36.98-2.863 48.875-7.062 5.95-2.1 10.444-4.562 12.877-6.594 2.434-2.032 2.406-2.93 2.406-2.937 0-9.758-5.77-18.806-17.218-26.157-3.284-2.11-7.013-4.012-11.094-5.656-.45.516-.902 1.004-1.375 1.438-2.818 2.58-6.012 4.22-9.53 5.562-7.036 2.68-15.56 4-24.94 4-9.379 0-17.9-1.32-24.936-4-3.52-1.34-6.715-2.982-9.532-5.562a18 18 0 0 1-1.593-1.688zm-27.906 55.53v192.533h127.937V303.029c-2.75 1.353-5.706 2.572-8.875 3.692-14.71 5.192-33.905 8.153-55.094 8.154-21.19 0-40.385-2.963-55.094-8.156-3.17-1.12-6.124-2.337-8.874-3.69z"/></svg>