<svg xmlns="http://www.w3.org/2000/svg" viewBox="0 0 512 512"><path d="M60.24 153.494c-29.607 0-39.24 41.762-39.24 59.656 0 13.375 5.415 24.868 36.94 30.909 72.832 13.955 170.928 42.459 286.335 42.459h80.7l-.01.037c8.785 0 8.784-80.887-.012-80.887h-46.107c-6.682-9.784-30.55-22.566-30.55-22.566v22.52c0 8.401-14.026 12.618-27.888 12.618s-27.713-4.171-27.713-12.525c0 0-166.047 9.144-170.033 9.144-9.342 0-37.846-61.365-62.422-61.365zm422.543 37.3a8.134 8.134 0 0 0-8.133 8.136v94.283a8.175 8.175 0 0 0 16.348 0v-94.215a8.134 8.134 0 0 0-8.227-8.17zm-35.322 40.042c.232 4.845.404 9.98.404 15.28l.014-.036c0 6.578-.222 12.934-.629 18.686h10.18v-33.93zm-199.293 9.715h152.498c4.474 0 8.135 3.254 8.135 7.252l-.012.035c0 3.997-3.66 7.25-8.168 7.215H248.168c-4.474 0-8.135-3.242-8.135-7.252 0-4.008 3.627-7.25 8.135-7.25zM76.184 264.465l-3.487 9.283a12.27 12.27 0 1 0 10.354 4.73l4.355-11.62zM370.57 302.89l8.1 18.718a21.078 21.078 0 1 0 11.969-5.17l-5.81-13.548z"/></svg>