<svg xmlns="http://www.w3.org/2000/svg" viewBox="0 0 512 512"><path d="M256 26C129.17 26 26 129.17 26 256s103.192 230 230 230 230-103.192 230-230S382.83 26 256 26zm-1.441 52.36L213.785 200.7H87.23c23.123-70.53 89.294-121.71 167.329-122.34zm2.882 0 40.817 122.34h126.555C401.649 130.17 335.476 78.986 257.44 78.36zm168.594 126.105a177.46 177.46 0 0 1-64.39 194.322l-.043-.045-37.295-118.344zm-340.07.045 101.728 75.931-37.34 118.346A177.52 177.52 0 0 1 78.33 256h-.002a177 177 0 0 1 7.637-51.49zM256 330.03l101.014 72.015a177.18 177.18 0 0 1-202.026 0z"/></svg>