<svg xmlns="http://www.w3.org/2000/svg" viewBox="0 0 512 512"><path d="M402.105 23.229v.001c-7.135.02-14.64.307-22.437.872 40.125 28.894 79.33 68.1 108.227 108.224 1.316-18.198 1.093-34.787-.348-48.912-2.398-23.496-9.092-40.234-13.91-45.05-4.818-4.82-21.554-11.514-45.05-13.91-5.874-.6-12.173-.99-18.835-1.147a282 282 0 0 0-7.647-.078zm-92.535 12.63c-58.619 15.316-122.548 45.858-175.181 98.48-52.45 52.863-82.797 117.134-97.989 175.985C70.634 358.052 155.08 442.43 202.424 476.14c58.63-15.317 122.573-45.863 175.21-98.502 52.64-52.64 83.187-116.583 98.503-175.211-33.886-47.59-118.975-132.68-166.565-166.567zm-9.597 20.09h.002l8.05 16.102c-11.915 5.958-23.11 11.754-33.668 17.469l5.94 12.242-16.195 7.857-5.498-11.33c-13.5 7.696-25.94 15.33-37.448 23.098l6.725 10.093-14.98 9.98-6.464-9.7c-12.19 8.987-23.358 18.268-33.794 28.152l9.722 9.725-12.726 12.724-9.723-9.72c-9.86 10.414-19.125 21.55-28.092 33.709l10.19 6.578-9.764 15.12-10.805-6.976c-7.575 11.217-15.02 23.32-22.52 36.424l13.266 6.154-7.574 16.33-14.488-6.722c-5.914 10.885-11.908 22.43-18.076 34.767l-16.102-8.05c6.045-12.092 11.97-23.495 17.854-34.288l-10.24-4.75 7.574-16.328 11.496 5.33c7.924-13.797 15.84-26.586 23.93-38.472l-12.335-7.965 9.762-15.121 12.996 8.39c9.726-13.15 19.805-25.222 30.543-36.513l-9.892-9.897 12.726-12.724 9.895 9.892c11.258-10.705 23.293-20.756 36.396-30.455l-8.845-13.273 14.978-9.98 8.549 12.83c12.162-8.284 25.268-16.383 39.437-24.497l-6.43-13.25 16.194-7.857 5.975 12.312c10.55-5.737 21.672-11.517 33.459-17.41zM24.76 380.586c-1.275 17.853-1.087 34.139.26 48.045 2.277 23.475 8.798 40.26 13.418 45.064 4.891 4.814 21.572 11.464 44.976 13.852 14.125 1.44 30.713 1.664 48.912.348C92.506 459.22 53.59 420.39 24.76 380.585z"/></svg>