<svg xmlns="http://www.w3.org/2000/svg" viewBox="0 0 512 512"><path d="m187.404 22.219.002.002-41.562 41.842 62.875 29.843-8 16.875-68.846-32.654-71.902 72.402L93.279 247.5l56.877-7.156 10.53-42.47 18.126 4.47-45.843 185.25 55.31-49.656 10-9 4.94 12.5 14.81 37.53 31.25-41.624 8.125-10.844 7.25 11.47 30.407 48.217 22.658-46.75 5.092-10.5 9.125 7.25 62.53 49.782-62.814-182.22 17.657-6.095 12.783 37.065 60.56-.942 26.471-101.873-72.72-62.343-70.126 38.843-9.058-16.375 64.029-35.468-29.75-25.53zm190.69 85.5v.002l13.279 67.217-107.28-16.25zm-246.188.937L229.971 160l-116.25 13.47zm123.19 122.502 55.842 64.748-36.25 12.875-17.407-42.654-15.375 43.344-35.344-13.565zm74.342 126.936-24.909 51.377-7.341 15.154-8.97-14.25-32.124-50.97-33.156 44.19-10.063 13.342-6.125-15.53-15.97-40.594-30.436 27.312 25.53 66.406 61.407 35.221 98.815-39.565 16.935-65.341-33.592-26.75z"/></svg>