<svg xmlns="http://www.w3.org/2000/svg" viewBox="0 0 512 512"><path d="m126.75 21.563-11.406 50.716L231.03 131.25l92.407-109.687zm-111 .591V60.28l81.438 7.692L107.5 22.154zM321.375 53l-74.312 88.188 65.5 56.187 105.812-67.03zM15.75 79.03v91.408c120.73-24.94 305.18 81.97 378.5 237.187l-1.406-45.75-32.813-74.03-52.592-70.283-1.783-1.53-74.06-63.5-2.44-1.25L103.75 87.343zm386.78 83.5-76.624 48.5 45.78 61.19 93.783-34.283-62.94-75.406zm49.97 100.064-71.656 26.156 27.312 61.594 77.375-2.721-33.029-85.03zm11.53 104.47-52.28 1.842 2.875 93.188a312 312 0 0 1 7.875 36.625c33.849-37.926 45.028-83.552 41.53-131.655z"/></svg>