<svg xmlns="http://www.w3.org/2000/svg" viewBox="0 0 512 512"><path d="m20.973 25 29.564 133.047.094.416 14.195 113.576L36.037 487H66.13l30.748-184.48h17.754L145.379 487h30.09l-28.791-214.96 14.199-113.577L190.533 25H176.24l-30.699 92.1a83 83 0 0 1 .713 10.9c0 14.85-3.85 28.437-10.701 38.879C128.7 177.32 118.159 185 105.753 185c-12.402 0-22.945-7.68-29.798-18.121C69.102 156.437 65.254 142.85 65.254 128c0-7.37.948-14.427 2.74-20.943L35.63 25zm84.779 64c-4.992 0-10.2 3.065-14.75 9.996-4.547 6.93-7.75 17.345-7.75 29.004s3.203 22.073 7.75 29.004c4.55 6.93 9.758 9.996 14.75 9.996 4.994 0 10.203-3.065 14.75-9.996 4.55-6.93 7.75-17.345 7.75-29.004s-3.2-22.073-7.75-29.004c-4.547-6.93-9.756-9.996-14.75-9.996zM458.9 144l-48 32h-208v64h93.215a201 201 0 0 0 4.512 8.88c6.187 11.433 13.806 24.515 26.027 31.056 13.15 7.037 29.836 6.118 44.125 4.8 2.998-.276 5.841-.617 8.534-.972L410.898 368c4.115 10.972 78.853 11.03 80 0 3.311-31.828-58.644-101.355-16-144v-48h-16zm-142.61 96h46.61l9.91 26.428c-1.21.135-2.424.269-3.683.385-13.009 1.2-28.32.281-33.98-2.749-4.734-2.533-13.117-13.45-18.692-23.75-.058-.106-.109-.207-.166-.314z"/></svg>