<svg xmlns="http://www.w3.org/2000/svg" viewBox="0 0 512 512"><path d="M252.625 36.307c-6.092.006-12.026.422-17.766 1.367-6.74 15.11-15.351 32.332-15.351 32.332l-32.752-13.453c-16.186 7.61-10.853 30.03-20.06 38.44-27.889 22.73-83.84 68.866-89.725 84.734-12.537 33.803-19.031 69.85-20.006 104.95 14.493 7.74 31.347 20.742 47.008 34.73 14.336 14.327 35.16 31.31 40.828 49.716l2.095 7.168-6.658 3.385c-11.466 5.26-9.418 16.91-11.273 25.86l-17.604-3.77c1.218-13.002 3.664-24.961 13.207-33.121-8.763-13.648-21.562-25.923-32.584-35.81-11.454-10.229-24.25-20.011-34.933-26.946 1.674 46.477 1.208 81.638 21.256 114.605l31.945 5.096-.555 28.053 42.272-3.223-5.301 30.28c92.217 38.28 247.83-57.625 288.361-162.223 8.685-22.415 48.164-45.242 49.897-67.717 2.734-35.472-8.37-70.06-27.727-100.74-13.795 13.218-29.79 17.135-46.56 9.796l20.256 23.86-13.723 11.648-27.4-32.273-1.24-18.446c-5.758-5.283-11.192-11.363-16.048-17.94l-33.949 9.97-5.072-17.27 29.021-8.521c-3.782-7.177-6.708-14.646-8.388-22.174-2.694-12.064-2.117-24.784 4.699-35.326.07-.108.146-.212.217-.319-36.018-4.868-73.492-16.752-106.389-16.716zm131.701 22.39c-4.1-.297-7.715.942-10.414 4.414v.002c-3.475 5.376-4.253 12.655-2.248 21.633s6.863 19.154 13.3 28.45c6.44 9.292 14.446 17.73 22.216 23.577 23.14 12.916 41.762 7.763 39.084-16.968-1.89-16.137-17.54-29.671-23.46-35.752-9.49-9.746-26.175-24.465-38.478-25.356zm-46.62 8.682-9.472 21.281-25.103 9.291-18.34-10.36zM233.392 96.28l30.316 11.073 27.873 46.263 32.05 14.147-7.269 16.468-37.26-16.45zm-43.89 30.66h.003c9.624-.01 19.888 2.824 25.814 11.817 6.116 5.094 16.364 8.5 27.846 12.814l-6.332 16.854c-5.8-2.18-12.472-4.145-18.963-6.996-1.048 3.52-2.587 6.888-4.357 9.933a65 65 0 0 1-2.971 4.625c12.61 6.737 24.021 11.983 30.12 12.506l-1.54 17.936c-13.374-1.148-27.19-8.558-41.234-16.647a70 70 0 0 1-5.221 4.035c-5.618 3.903-12.544 7.623-20.045 10.5 2.925 14.92 3.15 30.108 2.941 41.203l-17.998-.335c.19-10.045-.233-23.677-2.449-36.114-5.99.925-12.045 1.06-17.943-.383q-.135-.032-.268-.07c.083 13.554-1.981 28.06-11.949 42.375l-14.77-10.285c10.87-15.612 8.98-30.819 7.803-49.225-1.566-5.005-1.473-10.304-.228-14.988 1.682-6.33 5.098-11.884 9.185-16.943 8.176-10.118 19.23-18.363 28.809-23.49 11.794-5.06 22.387-9.091 33.748-9.122zm-.665 18.012a34 34 0 0 0-2.004.104c-7.502.613-16.64 3.694-22.588 6.879-7.375 3.946-17.25 11.443-23.3 18.93-3.024 3.742-5.045 7.452-5.79 10.253-1.15 5.08 2.083 9.025 6.29 10.088 3.02.738 7.46.737 12.396-.164 9.87-1.802 21.545-7.135 28.553-12.004 5.274-3.666 11.863-10.37 15.556-16.723 3.85-12.748.493-17.54-9.111-17.363zm259.953 37.65 12.643 62.508-54.784 40.739 33.01-56.891zm-61.31 20.75 3.181 17.717-66.129 11.883-9.65 25.188-25.25 11.933 21.724-53.04zm-11.631 64.83h.002l16.298 7.631c-7.236 15.46-9.832 23.982-8.972 33.36 6.018.288 12.132.975 18.22 1.933l-2.794 17.782c-20.668-3.25-40.169-1.63-49.915 5.191-4.873 3.41-7.865 7.634-9.087 14.89-1.223 7.255-.21 17.796 4.873 31.997-14.763 5.31-28.485 9.343-43.684 14.435l-5.717-17.066 27.455-9.197c-1.625-8.534-1.85-16.21-.677-23.16 1.844-10.947 7.55-19.875 15.334-25.774-2.568-5.383-5.2-11.09-7.092-17.383-2.792-9.287-.37-27.64-.56-27.658 0 0 15.726 15.586 17.798 22.477 1.373 4.567 3.592 9.417 6.01 14.548 3.83-1.158 7.836-1.963 11.965-2.47-.69-12.83 3.032-25.491 10.543-41.535zm-145.416 3.95-21.852 46.681-1.488 65.057-17.381-68.035s36.743-43.695 40.72-43.703zM269.01 411.98h.002a85 85 0 0 1 7.687.32c13.628 1.173 27.29 5.13 40.73 9.132l-5.136 17.252c-13.297-3.96-26.01-7.494-37.135-8.45-5.48-.47-10.476-.36-15.1.508l-14.878-14.148c6.827-2.917 14.02-4.279 21.263-4.56a76 76 0 0 1 2.567-.054zm-38.947 15.079 13.98 13.296c-10.892 17.037-14.52 26.756-31.182 37.32 1.64-5.575 3.003-16.252 5.881-26.984 2.176-8.11 5.3-16.79 11.32-23.632z"/></svg>