<svg xmlns="http://www.w3.org/2000/svg" viewBox="0 0 512 512"><path d="M208.563 24.813c-30.575 0-55.344 24.77-55.344 55.343a55.3 55.3 0 0 0 2.81 17.375l-39.28 45.625h51.064v-25.56c10.113 11.014 24.617 17.935 40.75 17.935V88.28h58.591V69.596h-58.593V24.814zM47.029 161.846v79.56l28.033 16.375c1.528-36.73 31.968-66.217 69.063-66.217 38.065 0 69.125 31.06 69.125 69.125 0 24.73-13.126 46.497-32.75 58.717l26.813 15.656h52.843V161.847zm330.065 44.81v83.438h62.937v-83.438zm-232.97 3.594a50.297 50.297 0 0 0-50.436 50.438c0 11.271 3.652 21.656 9.843 30.03l-22.594 26.47c5.946 2.36 11.307 5.875 15.844 10.25l20.5-24.032a50.3 50.3 0 0 0 26.846 7.721 50.3 50.3 0 0 0 50.437-50.44 50.3 50.3 0 0 0-50.437-50.437zm134.72 12.094v52.062h79.562v-52.062zm179.875 0v52.062h25.967v-52.062zM144.594 228c17.964 0 32.719 14.786 32.719 32.75s-14.754 32.72-32.72 32.72c-17.964 0-32.75-14.756-32.75-32.72S126.63 228 144.594 228zm0 18.688c-7.865 0-14.065 6.197-14.065 14.062s6.2 14.03 14.065 14.03 14.03-6.165 14.03-14.03-6.166-14.062-14.03-14.062zm-81.471 85.78c-16.628 0-29.904 13.278-29.904 29.907 0 16.63 13.275 29.906 29.904 29.906 16.63 0 29.906-13.275 29.906-29.904 0-16.63-13.277-29.906-29.906-29.906zm30.596 67.594a48.7 48.7 0 0 1-17.25 9.032l34.842 36.375a84.1 84.1 0 0 0-17.875 29.5H54.5v18.685h34.688v.032l19.718.002c4.553-31.235 31.577-55.375 64.03-55.375 32.456 0 59.453 24.14 64 55.375h19.75l.002-.034h35.125v-18.683h-39.375c-11.52-32.797-42.69-56.221-79.5-56.221-17.618 0-33.94 5.344-47.438 14.53l-31.78-33.217zM172.938 457c-22.322 0-40.812 15.68-45.094 36.688H218A45.85 45.85 0 0 0 172.938 457z"/></svg>