<svg xmlns="http://www.w3.org/2000/svg" viewBox="0 0 512 512"><path d="M128 29.5c-6.557 0-12.898 3.62-18.146 10.924C104.604 47.728 101 58.51 101 70.596c0 12.085 3.605 22.866 8.854 30.17 5.248 7.303 11.59 10.923 18.146 10.923s12.898-3.62 18.146-10.923c5.25-7.304 8.854-18.085 8.854-30.17s-3.605-22.868-8.854-30.172S134.556 29.5 128 29.5zm256 0c-6.557 0-12.898 3.62-18.146 10.924C360.604 47.728 357 58.51 357 70.596c0 12.085 3.605 22.866 8.854 30.17 5.248 7.303 11.59 10.923 18.146 10.923s12.898-3.62 18.146-10.923c5.25-7.304 8.854-18.085 8.854-30.17s-3.605-22.868-8.854-30.172S390.556 29.5 384 29.5zm-20.264 93.91v.002l-2.345 2.61c.846 4.46 3.408 9.715 7.81 15.583 3.93 5.24 9.221 10.835 14.8 16.532 5.581-5.697 10.87-11.292 14.8-16.532 4.305-5.74 6.866-10.9 7.771-15.298l-2.67-2.67c-5.906 3.792-12.651 6.052-19.9 6.052-7.395 0-14.275-2.347-20.266-6.279zm-215.472.002c-5.99 3.932-12.87 6.277-20.264 6.277-7.25 0-13.996-2.26-19.902-6.052l-2.67 2.67c.905 4.4 3.466 9.559 7.77 15.297 3.93 5.24 9.223 10.836 14.802 16.533 5.58-5.697 10.87-11.293 14.8-16.533 4.403-5.868 6.962-11.122 7.81-15.584zm18.738 11.412c-2.11 6.28-5.692 12.1-9.803 17.58-6.577 8.768-14.838 16.963-22.838 24.963L128 183.732l-6.363-6.365c-8-8-16.26-16.195-22.836-24.963-4.11-5.48-7.694-11.298-9.803-17.578l-31.93 10.643c.077 28.387 1.13 55.42 13.496 82.133 43.338 13.938 71.534 13.938 114.872 0 12.367-26.712 13.42-53.745 13.496-82.133zm256 0c-2.11 6.28-5.692 12.1-9.803 17.58-6.577 8.768-14.838 16.963-22.838 24.963L384 183.732l-6.363-6.365c-8-8-16.26-16.195-22.836-24.963-4.11-5.48-7.694-11.298-9.803-17.578l-31.93 10.643c.077 28.387 1.13 55.42 13.496 82.133 43.338 13.938 71.534 13.938 114.872 0 12.367-26.712 13.42-53.745 13.496-82.133zM18 146.5v36h22.44c-1.204-12.188-1.39-24.202-1.422-36zm198.982 0c-.03 11.798-.22 23.812-1.42 36h80.877c-1.203-12.188-1.39-24.202-1.421-36zm256 0c-.03 11.798-.22 23.812-1.42 36H494v-36zM73 247.238v63.452c5.94 4.56 14.298 7.316 23 7.316 8.627 0 17.07-2.6 23-7.086v-27.914h18v27.914c5.93 4.487 14.373 7.086 23 7.086 8.702 0 17.06-2.757 23-7.317v-63.45c-39.33 11.436-70.67 11.436-110 0zm256 0v63.452c5.94 4.56 14.298 7.316 23 7.316 8.627 0 17.07-2.6 23-7.086v-27.914h18v27.914c5.93 4.487 14.373 7.086 23 7.086 8.702 0 17.06-2.757 23-7.317v-63.45c-39.33 11.436-70.67 11.436-110 0zm-210 84.254c-7.228 3.056-15.142 4.514-23 4.514-7.847 0-15.77-1.42-23-4.45v27.364c5.93 4.487 14.373 7.086 23 7.086s17.07-2.6 23-7.086zm18 0v27.428c5.93 4.487 14.373 7.086 23 7.086s17.07-2.6 23-7.086v-27.363c-7.23 3.03-15.153 4.45-23 4.45-7.858 0-15.772-1.46-23-4.515zm238 0c-7.228 3.056-15.142 4.514-23 4.514-7.847 0-15.77-1.42-23-4.45v27.364c5.93 4.487 14.373 7.086 23 7.086s17.07-2.6 23-7.086zm18 0v27.428c5.93 4.487 14.373 7.086 23 7.086s17.07-2.6 23-7.086v-27.363c-7.23 3.03-15.153 4.45-23 4.45-7.858 0-15.772-1.46-23-4.515zm-274 48c-7.228 3.056-15.142 4.514-23 4.514-6.4 0-12.813-1.076-18.898-3.068 1.1 3.692 2.132 7.308 3.437 11.222 2.93 8.792 6.074 17.492 7.565 25.846H119zm18 0v24.373a64.6 64.6 0 0 1 18.723-20.02c-6.43-.437-12.806-1.85-18.723-4.353zm238 0c-7.228 3.056-15.142 4.514-23 4.514-6.4 0-12.813-1.076-18.898-3.068 1.1 3.692 2.132 7.308 3.437 11.222 2.93 8.792 6.074 17.492 7.565 25.846H375zm18 0v38.514h30.896c1.49-8.354 4.634-17.054 7.565-25.846 1.306-3.914 2.34-7.53 3.437-11.223-6.085 1.993-12.495 3.07-18.896 3.07-7.858 0-15.772-1.46-23-4.515zM192 390.5c-25.512 0-46 20.488-46 46s20.488 46 46 46 46-20.488 46-46-20.488-46-46-46zM89 436.006v44h56.156C134.526 468.57 128 453.274 128 436.5c0-.166.01-.33.012-.494zm256 0v44h78v-44z"/></svg>