<svg xmlns="http://www.w3.org/2000/svg" viewBox="0 0 512 512"><path d="m200.094 21.094 13.875 143.72L83.72 58.344l72.623 139.904-77.721-29.469 34.283 62.125-82.062-2.06L135.874 297 31.75 327.03l109.438 21.158c8.39-48.802 49.597-85.194 97.75-105.344 28.915-12.1 60.67-18.762 90.75-18.594 19.236.108 37.776 3.024 54.437 9.063l48-119.375L350 196.5l19.22-161.78-41.876 95.968-13.873-38.659-32.692 83.5zM455.873 211.78c-17.883-.093-38.85 9.04-55.935 26.125a100 100 0 0 0-13.563 16.875c-29.252-17.627-72.374-16.804-113.28-3.904-9.17 2.484-18.215 5.536-26.94 9.187-43.677 18.277-78.503 49.837-86.217 89.625-6.61 30.108 5.369 63.224 47.437 94.844H88.063l-26.438 47.75h257.154l-88.466-103.25c24.27-26.707 67.457-43.703 97-45.06 13.791 45.096 36.233 113.496 71.718 148.31h60.875c-43.07-46.546-76.569-109.087-81.968-179.842a33.6 33.6 0 0 0 6.314 8.78c18.664 18.664 55.944 11.619 83.28-15.717s34.384-64.62 15.72-83.281c-7-7-16.645-10.382-27.375-10.44z"/></svg>