<svg xmlns="http://www.w3.org/2000/svg" viewBox="0 0 512 512"><path d="M164.594 21.621v.004c-.537.012-1.068.028-1.563.094-29.656 3.852-52.56 35.847-52.56 74.75 0 21.55 7.306 41.192 18.685 54.904-61.678 11.594-66.561 115.16-66.56 188.065h43.217l11.093 152.435h63.065L168.904 340.03h21.471l11.344 152.159h108.685l10.03-152.157h21.627l-9.907 151.846h63.063l10.53-152.44h40.28c0-73.106 1.407-178.778-65.966-189.216 10.89-13.646 18.091-32.734 18.091-53.75 0-41.496-26.52-74.75-59-74.75-2.03 0-4.43-.263-6.406 0-9.4 1.22-17.562 5.454-25.125 11.685C324.01 46.71 335.09 69.84 335.091 96.47c0 21.016-7.234 40.104-18.124 53.75 67.373 10.438 66 116.11 66 189.219h-21.942c.008-73.086 1.291-178.216-65.904-188.625 10.89-13.647 17.906-32.61 17.906-53.625 0-41.497-26.456-75-58.935-75-2.03 0-4.119-.262-6.096 0-29.657 3.85-52.812 36.095-52.812 75 0 21.546 7.373 40.788 18.75 54.5-61.514 11.562-66.317 114.874-66.342 187.75H126.25c-.002-72.905 4.322-176.472 66-188.065-11.38-13.712-18.686-33.354-18.687-54.904 0-26.575 11.137-49.633 27.437-63.065-9.148-7.425-19.895-11.687-31.53-11.687-1.524 0-3.267-.133-4.876-.096z"/></svg>