<svg xmlns="http://www.w3.org/2000/svg" viewBox="0 0 512 512"><path d="m356.88 96-51.923 19.129 11.994 32.576 23.656-11.268 16.428-7.82 6.305 17.063 21.027 56.949 6.305 17.06-17.57 4.737-25.381 6.834 40.168 109.162 51.922-19.129zm79.186 25.863 11.59 9.086-53.564 21.487 6.996 17.55 53.935-21.63-2.15 14.539 37.947-38.618zm-88.336 29.58-116.181 55.34c-10.073 4.797-15.193 15.296-11.86 24.33 2.66 7.218 10.095 11.643 18.403 11.643a24.7 24.7 0 0 0 6.416-.863l124.252-33.5zm-111.896 67.041c3.162.092 6.194 2.395 6.525 6.108a6.7 6.7 0 0 1-6.095 7.27c-5.941.512-9.54-6.408-5.71-10.977 1.437-1.713 3.383-2.455 5.28-2.4zm221.486.116-33.086 12.203 14.373 39.023 33.084-12.2zm-255.054 10.51-.01.05-149.889 64.836 2.967 6.43 153.484-55.024a32.9 32.9 0 0 1-6.552-16.293zm138.798 32.263-24.34 8.963a82.94 82.94 0 0 1 35.255 20.644l-.02-.03zm-47.26 22.37a66.2 66.2 0 0 0-22.845 4.091c-32.144 11.865-49.901 46.32-40.914 79.375 8.987 33.053 41.738 53.748 75.463 47.709 33.725-6.04 57.258-36.816 54.215-70.934-3.043-34.12-31.654-60.269-65.918-60.242zm-258.896 9.325L21.18 307.533l40.947 38.87 20.871-7.684-24.922-23.666-12.295 4.258-10.24-25.641zM224.852 304.2 30.857 375.637l14.34 39.013 165.885-61.082a83.08 83.08 0 0 1 13.77-49.367z"/></svg>