<svg xmlns="http://www.w3.org/2000/svg" viewBox="0 0 512 512"><path d="M256 41c-43.696 0-83.28 3.58-111.37 9.197-14.046 2.81-25.26 6.196-32.21 9.483-3.476 1.643-5.843 3.293-6.88 4.306l-.013.014.014.014c1.038 1.013 3.405 2.663 6.88 4.306 6.95 3.287 18.163 6.674 32.21 9.483C172.72 83.42 212.303 87 256 87s83.28-3.58 111.37-9.197c14.046-2.81 25.26-6.196 32.21-9.483 3.476-1.643 5.843-3.293 6.88-4.306l.013-.014-.014-.014c-1.038-1.013-3.405-2.663-6.88-4.306-6.95-3.287-18.163-6.674-32.21-9.483C339.28 44.58 299.697 41 256 41zm-80 15a32 8 0 0 1 32 8 32 8 0 0 1-32 8 32 8 0 0 1-32-8 32 8 0 0 1 32-8zm-75.168 26.594a1745 1745 0 0 0-12.05 55.28 672 672 0 0 0 50.327 10.995c2.988-17.203 6.707-34.439 11.27-51.709a344 344 0 0 1-9.281-1.709c-14.91-2.98-27.131-6.49-36.371-10.86a65 65 0 0 1-3.895-1.997zm310.336 0a66 66 0 0 1-3.895 1.998c-9.24 4.37-21.463 7.88-36.37 10.86a342 342 0 0 1-9.116 1.68c5.27 16.955 9.544 34.033 12.953 51.22a668 668 0 0 0 48.424-10.754 1745 1745 0 0 0-11.996-55.004zm-67.4 17.238c-23.065 2.982-49.9 4.803-78.768 5.117v54.197a660 660 0 0 0 91.975-7.773c-3.45-17.333-7.806-34.522-13.207-51.541zm-175.475.008c-4.647 17.345-8.416 34.67-11.426 51.98A660.5 660.5 0 0 0 247 159.174v-54.225c-28.842-.314-55.656-2.132-78.707-5.11zm-84.38 55.277-5.518 30.088c128.541 30.936 239.89 29.948 353.384.137l-4.98-30.172c-110.776 28.798-228.036 29.785-342.887-.053zm350.634 48.176a730 730 0 0 1-50.83 11.312c3.656 47.603 1.777 95.87-3.549 144.49 18.6-3.802 36.795-8.526 54.467-14.17C439.592 314.764 439 291.607 439 256c0-14.915-1.77-33.334-4.453-52.707zm-357.129.258C74.759 222.828 73 241.15 73 256c0 23.794 4.678 57.228 10.424 89.404a636 636 0 0 0 50.27 12.418c-4.533-47.516-6.03-95.247-2.577-143.222-17.624-3.063-35.506-6.74-53.699-11.05zm71.545 13.943c-3.336 47.977-1.63 95.883 3.164 143.813a642 642 0 0 0 94.873 9.33V225.939c-31.995-.576-64.57-3.379-98.037-8.445zm216.902.19A677 677 0 0 1 265 226.024V370.8c32.816-.174 65.225-2.93 96.64-8.25 5.61-49.032 7.722-97.418 4.225-144.867zM86.66 364.93l8.29 31.9c104.15 32.39 225.75 32.427 326.077.733l8.272-32.264c-106.023 31.367-228.01 31.34-342.639-.37zm11.236 51.666c3.816 16.945 6.585 28.183 6.704 28.662.792 2.185 4.695 6.428 12.96 10.37 7.588 3.617 18.215 6.947 30.77 9.704a1880 1880 0 0 1-6.016-37.74 547 547 0 0 1-44.418-10.996zm318.366 1.31c-14.934 4.36-30.254 8.052-45.852 11.086a1771 1771 0 0 1-6.43 36.272c12.422-2.745 22.934-6.05 30.46-9.637 8.375-3.994 12.303-8.315 13.02-10.473a1428 1428 0 0 0 8.802-27.248zm-255.217 13.18a1936 1936 0 0 0 6.144 37.74c23.637 3.684 51.524 5.748 79.81 6.11V439.24c-28.816-.644-57.66-3.36-85.954-8.154zm190.55 1.223c-28.305 4.484-57.373 6.847-86.595 7.07v35.557c28.358-.363 56.317-2.438 79.994-6.141a1820 1820 0 0 0 6.602-36.486z"/></svg>