<svg xmlns="http://www.w3.org/2000/svg" viewBox="0 0 512 512"><path d="M112 41c-21.65 0-39 17.35-39 39 0 21.6 17.35 39 39 39 21.6 0 39-17.4 39-39 0-21.65-17.4-39-39-39zm288 0c-21.6 0-39 17.35-39 39 0 21.6 17.4 39 39 39s39-17.4 39-39c0-21.65-17.4-39-39-39zM112 55c13.7 0 25 11.3 25 25s-11.3 25-25 25-25-11.3-25-25 11.3-25 25-25zm288 0c13.7 0 25 11.3 25 25s-11.3 25-25 25-25-11.3-25-25 11.3-25 25-25zM83.38 129.2 80.87 151h45.83l1.9-16.5c-5.2 1.6-10.8 2.5-16.6 2.5-10.4 0-20.2-2.8-28.62-7.8zm345.22.1c-8.4 4.9-18.2 7.7-28.6 7.7-5.8 0-11.4-.9-16.7-2.5l1.9 16.5h45.9zM41 169v57.3L79.18 169zm59.8 0-51.98 78h42.36l52.02-78zm64 0-52 78h42.4l52-78zm64 0-52 78h42.4l52-78zm64 0-52 78h42.4l52-78zm64 0-52 78h42.4l52-78zm64 0-52 78h42.4l52-78zm50.2 20.8L432.8 247H471zM67.71 265l-7.15 62h45.84l7.2-62zm330.69 0 7.1 62h45.9l-7.1-62zM41 345v16h430v-16zm13.56 34L42.1 487h45.88l12.42-108zm356.94 0L424 487h45.9l-12.5-108z"/></svg>