<svg xmlns="http://www.w3.org/2000/svg" viewBox="0 0 512 512"><path d="M447.725 34.283c-2.65.061-5.225 1.082-7.125 2.877-4 4.07-4.1 10.64 0 14.71l28.3 28.28c4.1 4.12 10.7 4.16 14.8.1 4-4.07 4-10.72-.1-14.79l-28.3-28.3a10.7 10.7 0 0 0-7.575-2.877zM429.8 62.32c-24 14.9-44.7 34.7-60.5 58.18l30.7 30.6c23.5-15.8 43.3-36.4 58.2-60.48zm-221.639 67.342c-7.312.288-14.662 1.688-22.762 3.238l38.6 17.5 7.2-17.2s-.2 0-.5-.1c-7.95-2.9-15.225-3.725-22.538-3.438zm71.631 1.31c-4.861-.402-9.792.629-13.992 1.829-7.1 2.1-15.302 5.799-25.602 4.199l-5.5 16.2c11.4 2.5 20.901.2 29.301-2.4 5-1 11.3-4.7 15.8-2.9 1.3.5 2.5 1.7 3.7 3.4 3.5 4.5 2.2 10-.9 16.4-7 14.3-23.5 31.8-44.7 52.9l11.8 11.8c22.8-22.8 40.3-41.9 47.8-57.3q9.75-19.95-.6-33.9c-4-5.2-8.1-7.9-12.3-9.3a21.8 21.8 0 0 0-4.807-.927zm78.906 2.428L347.4 144.8l28.3 28.3 11.4-11.4zm-23.1 23.2L318.3 173.9c-1.1 3.1-2.4 6.2-3.9 9.4-8.2 16.7-26.7 37.7-51.4 62.4l20.1 20 80.8-80.8zm-110 74.5-9.4 9.4 13 13.1 9.4-9.4zM204.4 252.3l-9.2 9.2 13 13 9.2-9.2zm43.2.9-72.3 72.2 24.1 24.1 72.2-72.3zm-64.2 20.1-9.2 9.2 13 13 9.2-9.2zm-21 21-9.1 9.1 13 13 9.1-9.1zM137.7 319l-9.2 9.2 9.8 23c1.4 3.1.7 6.8-1.7 9.2l-32.4 32.4c-3.3 3.2-8.57 3.2-11.77 0-3.3-3.3-3.3-8.5 0-11.8l28.37-28.4-5-11.7-53.97 54 46.07 46 75.9-75.9zm-91.4 91.7-21.01 35.6 31.48 31.4 35.56-21z"/></svg>