<svg xmlns="http://www.w3.org/2000/svg" viewBox="0 0 512 512"><path d="M23.25 19.873v.002c38.22 44.005 38.98 90.112 16 132.344 75.61-33.06 158.24-45.381 238.844-45.406 2.933 0 5.853-.001 8.779.029 45.98.49 91.182 4.899 133.94 11.627C295.843 26.31 154.953 21.396 23.25 19.873zm251.5 105.75v.002c-75.736.388-152.784 11.91-223.03 41.563 39.528 25.085 44.946 85.016 30.78 130.156 81.86-82.396 213.783-137.651 326.688-161.72-43.14-6.38-88.547-10.235-134.438-10zm139.28 28.096C303.25 177.412 172.425 233.127 94.44 312c59.465-5.64 111.353 40.075 96.25 97.844 65.75-107.004 135.847-185.01 223.34-256.123zm11.126 15.06c-84.76 68.95-152.326 143.842-216.187 247 86.224-47.916 190.35-14.366 189.404 76.125h89.531L362.096 328.78l-3.344-4.308 2.154-5.065 64.25-150.625zm10.313 23.409L380.25 321.72l113.875 147.654v-34.346c-59.59-92.815-68.082-170.762-58.656-242.841z"/></svg>