<svg xmlns="http://www.w3.org/2000/svg" viewBox="0 0 512 512"><path d="M217 25v32.512l39 13.002 39-13.002V25zm0 51.488v.787L244.816 119h22.368L295 77.275v-.787l-39 12.998zm-1.04 31.678-54.245 18.084-9.51 38.033 15.71 39.27L217 269v24h78v-24l49.086-65.447 15.709-39.27-9.51-38.033-54.246-18.084L276.816 137h-41.632zm-69.437 4.635-43.164 21.582L81.822 199h43.15zm218.954 0L387.027 199h43.15l-21.536-64.617zM247 160h18v52.473l52.816-13.203 4.368 17.46L256 233.277l-66.184-16.547 4.368-17.46L247 212.473zM87.664 217l28.322 86.287 18.244-18.246L120.621 217zm303.715 0-13.61 68.041 18.245 18.246L424.336 217zM199 286.563l-46.54 23.269-5.5 55.002 28.349 9.45L199 362.437zm114 0v75.875l23.691 11.845 28.348-9.449-5.5-55.002zM217 311v16h78v-16zm-18 71.563-22.309 11.154-31.566-10.522-6.693 66.938L199 425.906zm114 0v43.343l60.568 24.227-6.693-66.938-31.566 10.522zm-111.23 61.62-67.25 26.903L126.562 487h85.91zm108.46 0L299.527 487h85.91l-7.957-15.914z"/></svg>