<svg xmlns="http://www.w3.org/2000/svg" viewBox="0 0 512 512"><path d="m393.87 27.303-145.58 117.13 55.66 69.26 176.34-141.83v-44.56zM242.407 98.898a14.9 14.9 0 0 0-7.058 3.106l-1.51 1.209a14.89 14.89 0 0 0-2.272 20.94l6.41 8 .24-.19 24.481-19.66-6.41-8a14.89 14.89 0 0 0-13.88-5.405zm174.621 54.155a22.73 22.73 0 0 0-14.19 5l-113.22 91.06 27.16 33.76c15.19-14.92 41.59-26.83 53.46-36.38 12.61-10.14 38.04-41.53 41.36-43.63s7.2-3.69 10.91-3.69a10.74 10.74 0 0 1 6 1.74c5.8 3.83 8.3 11.09 13.09 11.09 1.46 0 3.16-.67 5.16-2.31v.02c9.77-7.86-6.32-37.97-13.36-48.37a19.46 19.46 0 0 0-16.37-8.29zm-174.14 10.25-11.85 9.54 18.76 23.32 11.85-9.53zm167.687 9.4a7.26 7.26 0 0 1 4.863 2.69v-.01a7.26 7.26 0 0 1-1.15 10.21 7.26 7.26 0 1 1-3.713-12.89zm-141.088 23.67-13.549 10.93 18.76 23.32 13.59-10.93zm-32.93 12.34-9.09 7.31 102 126.77 9.09-7.31zm-14.66 25.93-10.859 8.74 18.75 23.32 10.87-8.74zm106.368 4.273a7.26 7.26 0 0 1 4.873 2.666 7.26 7.26 0 0 1-1.11 10.211 7.26 7.26 0 1 1-3.763-12.877zm-77.307 31.848-144 115.84c-17.38 13.99-78.14 93.958-75.14 97.628 4.59 5.71 99.82-43.089 111.47-52.459l144-115.84zm9.22 28.7q.553-.053.75.188c2.09 2.6-27.72 30.032-66.56 61.272s-72.02 54.469-74.11 51.869 27.71-30.03 66.56-61.27c36.421-29.268 67.852-51.532 73.36-52.058z"/></svg>