<svg xmlns="http://www.w3.org/2000/svg" viewBox="0 0 512 512"><path d="m277.625 18.28-.03.19c43.817 5.93 65.819 46.854 56.405 83.094a226 226 0 0 1-9.125 11.812 280 280 0 0 1-9.687 11.094c6.68-.152 13.668.15 20.875.625 9.282.61 19.003 1.588 28.843 2.56 26.745-9.698 50.2-28.824 64.063-49.935 13.548-20.635 17.76-41.998 10-59.315h-72.44c-1.88 18.198-6.548 34.794-13.406 50.188-3.814-19.43-14.214-37.48-30-50.313zm181.25.126c6.692 22.627-.025 47.854-14.28 69.563-10.696 16.286-25.69 31.1-43.47 42.5l.875.03c21.978.763 42.687-1.077 58.813-8.655 15.16-7.125 26.88-18.75 33.875-40.656V18.406zM196.529 61.471a54 54 0 0 0-4.373.154c-20.14 1.544-35.922 13.995-41.47 30.25-6.338 18.577 2.099 41.599 26.19 53.97l8.53-16.626c-17.98-9.234-20.493-21.166-17.03-31.315s14.346-18.986 31.155-17.625c22.357 1.813 37.36 13.072 45.065 32.409 7.483 18.79 7.26 46.055-5.157 78.75-2.05 1.637-4.052 3.254-6.125 4.906-6.142 4.893-12.406 9.9-18.72 14.97a121 121 0 0 1 15.377-1.22c1.482-.023 2.967-.028 4.435 0 11.748.222 23.045 2.02 34 4.437 37.61 8.3 71.348 23.35 116.094 15.156 22.666-5.32 41.84-16.25 58.22-31.125 22.16-20.126 38.941-47.684 50.56-77.81-7.16 7.816-15.474 13.775-24.53 18.03-20.514 9.64-44.072 11.186-67.406 10.374-11.56-.402-23.12-1.424-34.25-2.5-.312.102-.625.215-.938.315l-.125-.409c-10.95-1.065-21.483-2.173-31.185-2.812-19.856-1.308-35.959-.013-44.065 4.875l-.029-.062c-8.127 7.4-16.694 14.731-25.594 22.093 5.29-24.71 4.016-46.79-3.187-64.875-10.062-25.258-32.55-41.825-60.94-44.125a58 58 0 0 0-4.5-.185zm33.846 167.279a100 100 0 0 0-27.344 4.188c-10.568 3.14-21.832 8.313-34.06 16.343-12.443 10.887-24.954 22.415-37.375 34.75a54 54 0 0 0-.344-6.185c-1.712-15.185-10.188-27.357-21.19-35.065-11-7.707-24.636-11.675-37.966-11.185s-26.345 5.43-36.032 15.47c-18.76 19.434-19.103 43.565-6.439 57.186 12.666 13.62 36.54 14.862 55.346-1.875l-12.409-13.97c-13.2 11.75-23.73 9.063-29.25 3.126-5.52-5.936-7.829-16.975 6.188-31.5 11.472-11.885 35.21-12.22 49.844-1.967 7.317 5.126 12.254 12.21 13.344 21.875 1.004 8.913-1.394 20.631-10.5 35.217a606 606 0 0 0-11.844 13.815c22.05-8.594 43.864-9.63 66.22-10.534 42.668-1.724 88.234-2.342 152.28-48.593 13.46-3.538 24.74-3.17 32.937-.313 10.874 3.792 16.97 11.038 18.533 22.783 1.088 8.183-2.836 12.687-7.283 14.313-4.445 1.626-9.816 1.293-15.217-7.875l-16.093 9.5c8.898 15.105 25.03 20.575 37.717 15.937 12.686-4.64 21.517-18.456 19.408-34.312-2.384-17.922-14.237-32.157-30.907-37.97-4.707-1.64-9.77-2.684-15.093-3.126-.02 0-.044.003-.065 0-25.17-3.576-47.402-11.364-68.404-16-11.5-2.537-22.618-4.2-34-4.03zm41.438 84.625c-23.824 11.1-45.46 16.75-65.25 19.78-8.886 26.953-37.426 47.482-70.47 61.626-33.137 14.187-71.51 21.632-103.437 17.19a598 598 0 0 0-13.343 24.56v57.25h70.966c53.69-26.358 106.108-70.88 143.692-124.375 11.174-20.2 23.989-38.767 37.842-56.029zm-87.159 22.28c-9.561.76-18.65 1.12-27.341 1.47-23.177.937-43.169 2.06-62.563 10.188-12.78 5.355-25.608 13.84-39.156 27.875a579 579 0 0 0-12.375 19.062c25.817 1.616 58.037-4.857 85.53-16.625 25.573-10.947 46.53-26.7 56.03-41.97-.04.004-.082-.002-.123 0zM333.75 364.5a86 86 0 0 0-3.28.063c-17.583.615-35.97 6.193-54.126 15.093-24.357 11.94-48.365 29.917-68.906 51.188.05-.157.106-.314.156-.471-23.996 24.686-50.769 46.183-78.72 63.408h65.032a355 355 0 0 1 3.25-21.375c22.468-31.78 55.39-60.27 87.407-75.968 16.41-8.044 32.529-12.694 46.562-13.186 14.034-.492 25.78 2.896 35.313 11 15.121 12.856 14.897 31.182 6.312 44.5s-24.29 21.298-46.78 10l-8.376 16.719c29.54 14.837 57.8 3.69 70.875-16.594s12.206-50.05-9.94-68.875c-12.62-10.73-28.375-15.46-44.781-15.5z"/></svg>