<svg xmlns="http://www.w3.org/2000/svg" viewBox="0 0 512 512"><path d="M454.998 25.008c-33.136.49-66.384 40.894-80.172 58.62-19.94 25.942-37.3 55.203-57.601 76.85 42.07-31.83 93.582-61.061 124.68-95.267l13.316 12.107c-31.93 35.121-79.62 62.942-118.832 91.4 24.9-4.92 53.317-15.803 78.71-29.415 28.02-15.018 52.442-33.555 64.622-49.344 18.238-23.928 15.07-49.636-10.586-62.533-4.672-1.742-9.403-2.488-14.137-2.418zM352.936 40.359c-9.421.205-20.415 8.058-24.592 12.758-15.83 18.366-27.299 40.84-31.348 60.783-3.094 15.234 4.7 28.31 10.293 38.036 11.866-38.953 66.253-75.01 56.73-106.1-2.844-4.082-6.801-5.57-11.083-5.477zM207.828 78.912l.002.002c-26.263-.217-53.338 7.405-81.064 29.467 4.166 13.234 13.734 24.439 28.02 33.879-20.136 1.497-38.098-2.433-55.854-6.883a280 280 0 0 0-7.301 8.764c-29.215 36.546-25.563 84.915-17.324 138.615 1.185 7.72 2.46 15.544 3.738 23.406 17.96 25.841 44.317 44.605 61.146 63.203-19.724-4.433-39.208-9.504-55.289-23.65 3.355 27.477 4.61 55.088-.47 81.7 45.268-18.865 106.175-22.008 165.017-31.085 42.04-6.486 82.472-15.68 115.18-33.94-43.78-4.385-75.772-32.128-96.557-59.122 40.917 15.23 79.214 37.799 125.237 38.732 7.535-6.843 14.328-14.536 20.244-23.22 30.13-44.225 26.828-82.175 8.877-115.259-6.771-12.48-15.832-24.138-26.155-34.73-13.05 5.58-26.335 10.303-39.337 13.844a147.3 147.3 0 0 0 25.03 4.453l-1.622 17.926c-45.97-7.973-118.647-29.566-129.442-96.715l17.496 4.224c2.818 6.044 6.36 12.536 9.97 17.42.116-11.614 2.104-22.155 5.32-32.373-18.787-8.362-38.645-15.175-58.999-17.617a143 143 0 0 0-15.863-1.04zm26.188 129.7c32.463 23.193 112.593 55.792 153.52 67.265-61.148 10.412-150.872-7.51-153.52-67.266zM68.64 390.18c-11.983 8.343-19.349 15.434-39.813 19.482l3.492 17.656c15.958-3.157 26.524-8.699 35.037-14.29.864-7.468 1.263-15.092 1.284-22.848zm46.736 45.797c-7.106 1.874-13.862 3.946-20.182 6.28-3.208 11.703-7.3 22.361-16.59 32.73l13.407 12.01c15.115-16.872 19.419-35.01 23.365-51.02zm-52.604.671C47.053 444.591 32.7 456.414 20.71 473.1l14.615 10.504c5.82-8.101 12.11-14.705 18.844-20.133 2.708-8.83 6.176-18.275 8.605-26.823z"/></svg>