<svg xmlns="http://www.w3.org/2000/svg" viewBox="0 0 512 512"><path d="m230.64 20.123-14.77 53.225c-21.875 4.813-42.324 13.471-60.61 25.234l-48.13-27.299-35.88 35.885 27.3 48.076c-11.74 18.336-20.4 38.76-25.236 60.66l-53.199 14.744v50.727l53.2 14.693a186.3 186.3 0 0 0 25.234 60.659l-27.297 48.158 35.879 35.83 48.129-27.276a186.2 186.2 0 0 0 60.66 25.188l14.719 53.25 50.693-.025 14.72-53.225c21.924-4.813 42.348-13.471 60.686-25.213l48.127 27.328 35.805-35.883-27.274-48.156c11.714-18.31 20.401-38.708 25.186-60.635l53.303-14.693-.026-50.729-53.277-14.742c-4.76-21.9-13.446-42.324-25.186-60.607l27.325-48.158-35.905-35.856-48.078 27.301c-18.338-11.766-38.763-20.423-60.685-25.236l-14.746-53.225zm-30.052 102.272h110.818l78.334 78.357v9.207h-55.162c-15.844-26.933-45.134-45.05-78.582-45.05-33.445 0-62.735 18.117-78.578 45.05H122.23v-9.207zm55.408 88.54c24.88 0 45.072 20.197 45.072 45.053 0 24.93-20.19 45.1-45.072 45.1-24.872 0-45.068-20.17-45.068-45.1 0-24.856 20.196-45.052 45.068-45.052zm-133.766 91.08h55.108a91.7 91.7 0 0 0 14.252 18.419c17.206 17.206 40.081 26.68 64.406 26.68 24.333 0 47.21-9.475 64.416-26.682a91.6 91.6 0 0 0 14.25-18.416h55.078v9.613l-78.334 78.357H200.588L122.23 311.63z"/></svg>