<svg xmlns="http://www.w3.org/2000/svg" viewBox="0 0 512 512"><path d="M16.313 14.53v69.5c56.5 26.486 139.512 124.756 121.718 153.626-19.937 9.72-41.66 17.936-66.279 26a42 42 0 0 0-7.94 2.563c-.2.063-.391.121-.591.185l.058.065c-16.915 7.643-28.779 25.935-29.529 44.435a35 35 0 0 0-3.22 4.657c-12.053 20.84-19.214 46.52-11.31 70.312 7.904 23.793 31.383 43.1 73.28 50.344l30.438 5.28-22.407-21.25c-20.598-19.52-23.789-44.37-15.654-63.563 18.564-2.293 33.262-17.315 38.719-34.907.024-.082.036-.166.06-.25 8.305-21.175 21.292-40.216 41.875-46.685 22.197-6.978 89.433 19.79 122.908 75.75 3.1 9.693 9.968 18.605 21.594 25.03 6.867 3.794 13.593 5.702 19.97 6.126 8.03 7.63 16.106 17.703 22 28.75 8.26 15.478 12.246 32.53 8.22 48.22l-7.69 29.936L375.5 468c31.637-28.45 41.572-57.794 37.438-83.562-3.873-24.125-18.826-44.066-34.813-59.563-1.898-12.118-8.972-23.538-22.812-31.187-8.148-4.503-16.149-6.321-23.657-6.063a40 40 0 0 0-3.22.25c-15.68.117-33.815-2.788-50.155-8.656-22.188-15.804-20.716-30.905-2.404-40.72 27.434-2.627 54.565 6.108 76 17.22a54 54 0 0 0 6.469 4.185c22.067 12.198 42.575 5.149 55.31-9.343 7.79 1.084 15.55 4.597 23.125 10.187 11.023 8.13 21.213 20.635 28.75 34.781l10.315 19.375 6.812-20.875c13.164-40.43 7.03-70.204-10.312-88.308-15.176-15.843-37.005-22.19-58.344-22.909-1.065-.036-2.126-.025-3.188-.03a52 52 0 0 0-7.218-4.811c-8.15-4.505-16.15-6.32-23.657-6.065-5.92.203-11.533 1.712-16.656 4.19v-.065c-31.524 15.287-62.227 22.541-93.154 28.033-8.008-3.035-10.558-9.02-5.031-19.437 18.92-18.164 41.108-32.81 63.53-40.375 14.175-1.885 26.067-11.202 33.25-23.375 8.487-2.544 18.057-4.173 27.376-4.094 15.366.133 29.588 4.525 39.404 15.19l21.25 23.093-5.154-30.937C437.928 83.1 420.128 60.11 397.812 51.22c-8.367-3.336-17.006-4.731-25.625-4.783-12.06-.076-24.05 2.494-35.125 6.093-4.27-1.392-8.474-2.1-12.53-2.185-19.13-.41-35.312 12.692-42.876 29.435-.007.023-.022.043-.029.065a53 53 0 0 0-2.596 7.093c-5.9 15.37-13 29.872-21.217 43.5-34.96 31.232-68.094 19.003-93.687-15.5-19.793-28.38-37.218-65.49-47.156-100.41zm355.562 50.72c6.738 0 13.2 1.02 19.03 3.344 11.851 4.722 22.592 14.762 29.783 35.687-9.974-4.213-20.77-6.095-31.282-6.185-13.213-.113-26.044 2.423-37.344 6.375-7.2 2.276-11.68 4.716-13.687 5.779-1.934 1.022-1.255 1.003-3.312-.97s-4.745-6.765-5.97-12.28-1.122-11.635.344-16.094c1.465-4.458 3.591-7.103 7.813-8.656h.03v-.03c11.347-4.18 23.366-6.97 34.595-6.97zm37.594 136.22c19.194-.012 38.09 5.407 49.375 17.186 9.58 10.002 15.107 25.212 11.029 49.344-6.486-8.54-13.78-16.22-22-22.28-13.878-10.24-30.478-16.22-47.687-13.595-3.116.475-4.042-.14-5.78-2.375-1.74-2.234-3.21-6.56-3.22-11.094-.01-4.532 1.366-9.053 3.658-12.03s5.122-4.878 10.779-5.095c1.28-.048 2.566-.06 3.846-.06zM59.219 317.624h.002c3.08.093 6.475 1.018 9.5 2.625 4.03 2.143 7.168 5.456 8.308 8 1.142 2.544 1.281 3.576-.623 6.065-16 20.907-19.082 50.77-5.779 76.841-20.013-7.685-29.597-18.96-33.658-31.185-5.486-16.512-.514-37.32 9.75-55.065 2.824-4.885 5.83-6.466 9.56-7.093a15 15 0 0 1 2.94-.188zm294.56 14.281c2.927-.057 5.471.901 8.377 3.594 15.526 14.38 29.208 32.532 32.313 51.875 2.357 14.692-.622 30.766-14.658 48.875-1.51-12.203-5.665-23.977-11.313-34.562-9.762-18.294-23.686-33.481-37.154-43.063-2.18-1.55-2.332-2.311-1.656-5.78s3.431-8.552 7.466-12.624c4.035-4.074 9.184-7.072 13.532-7.942 1.09-.216 2.118-.353 3.093-.373z"/></svg>