<svg xmlns="http://www.w3.org/2000/svg" viewBox="0 0 512 512"><path d="M341.28 22.813 254 123.843l-11.094 5.907-113.093-83.125 24.408 130.404-47.908 25.565-89.72 24.22 36.938 19.624-30.968 82.625-2.842 7.687 7.217 3.844 79.406 42.25-19.471 44.844L144 402.906l32.22 17.156 4.405 2.344 4.375-2.344 47.844-25.468L287.75 497.97l37.78-139.877 142.41 26.656-60.907-82.875 74.815-39.844 7.25-3.842-2.907-7.687-20.625-54.596 26.217-22.625-35.28-1.404-3.905-10.344-1.25-3.25-3.03-1.654-103.97-56.531-3.063-77.282zM321.593 109h.002l107.968 58.688-237.468 125.718-108.625-57.5zm42.781 44.563-171.719 90.062-41.56-22.187-25.315 13.406 66.877 35.656 197.28-103.906-25.56-13.03zm76.31 29.406h.002l25.125 66.435L193.657 394.28l5.78-83.623zm-368.87 67.904 109.033 57.75-6.19 89.44-131.685-70.125 28.842-77.063z"/></svg>