<svg xmlns="http://www.w3.org/2000/svg" viewBox="0 0 512 512"><path d="m102.594 25.97 90.062 345.78L481.844 395 391.75 49.22zm-18.906 1.593c-30.466 11.872-55.68 53.098-49.75 75.312l3.25 11.78c.666-1.76 1.36-3.522 2.093-5.28 9.91-23.707 26.558-46.764 50.375-58.904zm44.937 18.906 247.813 21.594 80.937 305.156-249.344-20.065-79.404-306.683zM94.529 69.154c-16.66 10.01-29.916 28.069-38 47.407-5.245 12.552-8.037 25.64-8.75 36.533l64.815 235.279c.293-.55.572-1.104.875-1.654 10.6-19.254 27.823-37.697 51.125-48.471L94.529 69.156zm74.875 287.565c-17.672 9.067-31.142 23.712-39.56 39-4.464 8.105-7.262 16.36-8.688 23.75l11.688 42.404 1.625.125c-3.825-27.528 11.382-60.445 41.25-81.03zm26.346 34.029c-32.552 17.26-46.49 52.402-41.844 72.906l289.844 24.53c-5.315-7.75-8.637-17.84-8.594-28.342l-22.562-9.063 46.625-7.31-13.596-12.971c5.605-6.907 13.69-13.023 24.781-17.654L195.75 390.75z"/></svg>