<svg xmlns="http://www.w3.org/2000/svg" viewBox="0 0 512 512"><path d="M399.904 136c-35.35 0-54.579 12.825-80.156 30.469-21.764-10.81-44.203-20.695-63.746-30.467C315.998 210.999 210.999 181 91 181c51.292 17.097 90.22 30.17 118.125 41.25C164.385 236.653 103.75 249.25 16 256c87.75 6.75 148.386 19.347 193.125 33.75C181.22 300.83 142.293 313.903 91 331c120 0 225-30 165 45 19.66-9.83 42.34-19.585 64.219-30.469C345.539 362.997 364.79 376 399.906 376c48 0 96.092-48 96.092-120s-48.096-120-96.094-120zm-11.716 47.81v.002c33.135 0 60 32.423 60 72.188s-26.865 72.188-60 72.188c-9.062 0-17.61-2.715-25.313-7.032C388.008 303.676 406 282.742 406 256s-17.992-47.68-43.125-65.158c7.702-4.316 16.25-7.031 25.313-7.031z"/></svg>