<svg xmlns="http://www.w3.org/2000/svg" viewBox="0 0 512 512"><path d="M26.998 47.951c11.728 44.807 56.175 129.96 67.494 242.93-6.597 76.494-22.66 98.81-22.66 152.74 0 27.602 11.33 38.037 23.254 38.037 11.662 0 23.72-11.821 23.72-40.894 0-56.606-16.937-73.84-23.283-151.65 6.472-83.65 59.715-45.933 59.715 2.765 0-112.652 101.99-85.162 116.024-34.772-5.164 35.11-15.028 45.949-15.028 75.37 0 16.633 8.51 28.859 16.74 28.859 8.417 0 16.41-11.434 16.41-27.227 0-27.953-9.303-41.065-14.515-75.824 15.447-37.68 115.545-34.583 115.846-1.754-3.41 26.414-12.766 32.13-12.766 51.16 0 9.714 6.58 16.856 12.944 16.856 6.506 0 12.685-6.678 12.685-15.9 0-18.435-9.164-25.838-12.596-52.854 14.138-49.16 86.57-19.868 92.008-73.299-51.22 45.91-357.172 26.76-455.992-134.543zm128.848 266.217c-4.676 31.802-17.635 40.279-17.635 61.723 0 10.642 8.593 18.345 17.637 18.345 8.844 0 17.988-8.239 17.988-19.449 0-22.338-13.464-28.756-17.988-60.619z"/></svg>