<svg xmlns="http://www.w3.org/2000/svg" viewBox="0 0 512 512"><path d="M309.15 21.209c-24.995-.374-50.098 14.428-64.076 63.611-12.743 44.837-4.557 106.917 14.5 158.983 8.733-3.686 18.747-4.452 28.447-1.442 10.094 3.133 18.153 9.826 23.24 18.272 33.763-16.847 70.774-29.358 88.594-51.313 47.257-58.219 4.19-138.461-35.183-166.851-14.175-10.221-34.81-20.95-55.522-21.26zM135.72 207.832c-66.3-1.054-108.737 69.822-113.331 115.096-3.894 38.368 5.808 105.23 96.474 82.398 44.995-11.33 94.42-49.163 129.948-91.465-12.314-10.488-17.952-27.733-12.877-44.084a41.3 41.3 0 0 1 3.779-8.568c-32.11-20.996-61.997-47.643-90.418-52.178a96 96 0 0 0-13.574-1.199zm139.909 50.63c-10.094-.023-19.34 6.441-22.508 16.65-3.898 12.561 3.002 25.665 15.565 29.564 12.562 3.898 25.662-2.999 29.56-15.56 3.9-12.564-2.997-25.667-15.558-29.565a24 24 0 0 0-7.06-1.088zM316.9 287.84a41.4 41.4 0 0 1-1.464 6.61c-5.666 18.254-22.967 29.865-41.248 29.241-2.284 37.694-9.975 76.046.136 102.479 26.791 70.035 117.817 72.857 162.09 52.955 35.175-15.813 88.228-57.646 23.121-124.75-32.003-32.984-88.698-56.742-142.635-66.535z"/></svg>