<svg xmlns="http://www.w3.org/2000/svg" viewBox="0 0 512 512"><path d="M196.78 78.688c-96.69 0-175.342 78.72-175.342 175.468 0 12.63 6.201 24.213 15.812 33.75 9.61 9.537 22.726 17.488 38.53 24.125 31.61 13.275 74.123 21.158 121 21.158 8.046 0 15.966-.235 23.72-.687a28.3 28.3 0 0 0 3.844 4.5c4.3 4.107 9.682 7.189 15.937 9.719 12.512 5.056 28.642 7.875 46.406 7.875 17.766 0 33.866-2.818 46.375-7.875 6.256-2.53 11.671-5.614 15.971-9.721s7.656-9.77 7.656-16.28c0-9.864-2.202-19.213-6.125-27.658 2.032-1.67 3.957-3.378 5.75-5.156 3.39-3.363 6.33-6.984 8.75-10.812.988.01 1.973.029 2.967.029 31.826 0 60.67-5.25 82.408-14.28 10.868-4.515 20.016-9.953 26.875-16.687 6.858-6.734 11.563-15.283 11.563-24.72 0-66.047-54.29-119.75-120.844-119.75-22.145 0-42.93 5.945-60.81 16.314-30.172-24.555-68.606-39.312-110.44-39.312zm0 18.687c86.572 0 156.658 70.14 156.658 156.78 0 6.61-3.086 13.33-10.282 20.47-.885.878-1.81 1.783-2.812 2.656-12.89-14.89-32.22-24.342-53.656-24.342-36.025 0-66.126 26.71-69.657 61.03a382 382 0 0 1-20.25.533c-44.753 0-85.266-7.729-113.75-19.69-14.24-5.98-25.428-13.044-32.625-20.185s-10.279-13.86-10.279-20.47c0-86.643 70.082-156.78 156.654-156.78zm171.25 23zc56.542.001 102.157 45.226 102.157 101.063 0 3.35-1.537 7.024-5.97 11.375-4.43 4.35-11.623 8.88-20.937 12.75-17.818 7.403-43.216 12.42-71.404 12.843a39 39 0 0 0 .25-4.25c0-31.565-8.36-61.223-23-86.843 13.78-3.103 23.654-11.57 23.654-21.5 0-11.298-12.781-20.667-29.558-22.438a103.6 103.6 0 0 1 24.806-3zm-193.97 5.875c-36.64 0-66.341 18.525-66.341 41.344 0 22.818 29.7 41.312 66.344 41.312 36.64 0 66.341-18.494 66.341-41.312 0-22.82-29.7-41.343-66.341-41.344zm320.311 137v.002l.004-.002zm0 .002c-30.4 23.524-70.605 32.931-110.402 36.527l-12.815 1.159 5.065 11.843c7.44 17.37 4.931 28.445-3.221 38.19-8.152 9.742-23.698 17.64-42.844 21.875-38.29 8.47-89.821 1.899-118.093-17.471l-2.907-1.969-3.47.406c-60.5 7.144-128.015-12.123-186.561-44.966v185.218l118.906-.002c-2.954-8.157-2.076-17.375 2.625-24.906-18.91 7.375-41.195 3.462-56.468-11.81-20.595-20.597-20.595-53.997 0-74.594 10.3-10.298 23.785-15.44 37.283-15.44 13.496 0 26.981 5.142 37.28 15.44 20.199 20.2 20.574 52.7 1.155 73.375 8.9-1.583 18.404 1.028 25.28 7.904 8.12 8.12 10.332 19.903 6.658 30.033h302.53zm-207.682 8.371-.002.002c28.617 0 51.313 22.084 51.313 49.094 0 .256-.033 1.019-1.875 2.779s-5.337 3.965-10.062 5.875c-9.45 3.82-23.654 6.531-39.375 6.531s-29.957-2.711-39.407-6.531c-4.724-1.91-8.187-4.115-10.03-5.875-1.841-1.76-1.905-2.523-1.905-2.78 0-9.826 3.012-18.992 8.218-26.689 4.427 5.18 12.75 8.69 22.282 8.69 14.18 0 25.656-7.73 25.656-17.25 0-5.527-3.887-10.441-9.906-13.596 1.678-.157 3.37-.25 5.093-.25zm131.467 107.69A32.2 32.2 0 0 1 441 388.78c12.623 12.625 12.623 33.098 0 45.721s-33.064 12.623-45.687 0-12.623-33.096 0-45.72a32.2 32.2 0 0 1 22.843-9.468zm-200.031 28.75c5.92 0 11.828 2.266 16.344 6.78 9.03 9.034 9.03 23.656 0 32.688-9.033 9.033-23.689 9.033-32.72 0-9.033-9.03-9.033-23.653 0-32.685a23.1 23.1 0 0 1 16.374-6.782z"/></svg>