<svg xmlns="http://www.w3.org/2000/svg" viewBox="0 0 512 512"><path d="M213.43 21.54c-46.155.27-91.59 9.917-126.184 27.747 35.44-4.564 67.766-4.785 96.442-1.312-14.38 5.39-28.076 12.13-40.72 20.013 45.898-11.947 96.026-13.915 138.58-4.474-39.535 4.256-73.158 12.717-100.536 24.37 70.373-10.441 131.843 17.4 167.558 73.458a90.8 90.8 0 0 1 26.29-23.135c13.58-7.923 28.375-11.89 43.064-12.26a91 91 0 0 1 7.478.135c-24.215-41.376-57.388-67.313-93.865-80.943-19.67-8.972-41.355-15.86-64.205-19.526l.004-.013c-17.675-2.837-35.846-4.168-53.906-4.06zm207.482 122.948v.002q-1.2-.007-2.4.026c-11.645.32-23.394 3.506-34.233 9.83-20.347 11.87-32.83 32.164-35.634 54.002a27.8 27.8 0 0 1 8.447-1.31c15.503 0 28.27 12.77 28.27 28.273 0 13.33-9.44 24.63-21.94 27.54 21.866 28.455 61.394 36.849 93.125 18.335 34.684-20.236 46.556-64.94 26.492-100.059-13.363-23.393-37.349-36.483-62.127-36.639zm-63.82 81.24c-1.88 0-3.6.52-5.057 1.41l-30.672 10.604 6.037 17.686 30.592-10.578c4.96-.436 8.682-4.44 8.682-9.54 0-5.401-4.18-9.581-9.582-9.581zm-53.39 18.122-36.835 12.736 6.037 17.687 36.834-12.738zM91.005 259.385q-1.2-.008-2.4.025c-11.647.32-23.396 3.504-34.235 9.828-34.684 20.237-46.556 64.94-26.492 100.06 10.792 18.893 28.515 31.05 47.988 35.114 17.308 17.118 36.441 31.05 56.631 42.098 20.84 14.38 43.545 22.827 66.818 26.23-30.582-20.555-50.59-46.054-52.867-69.185 53.748 60.732 145.74 81.982 216.569 61.55 32.046-11.658 57.986-29.305 73.025-51.087-61.803 27.515-125.787 31.269-181.826 16.439 19.368-5.92 36.6-13.625 51.6-22.861-58.267 9.763-109.74-12.115-144.66-59.055 3.791-17.256 1.442-35.952-8.022-52.52-13.364-23.39-37.351-36.48-62.131-36.634zm158.195 3.31-34.383 11.89 6.037 17.686 34.383-11.886zm-52.04 17.994-26.17 9.051a92 92 0 0 1 6.958 17.37l25.248-8.73z"/></svg>