<svg xmlns="http://www.w3.org/2000/svg" viewBox="0 0 512 512"><path d="M288.625 19.621v.004c-35.675 25.915-55.466 62.325-61.97 107.313l41.095 23.687c9.348-5.82 17.33-12.415 24.22-19.656 4.384 22.757 20.633 45.577 39.874 56.685l65.5 37.815c24.465 14.124 54.433 9.696 73.812-8.908l7.971 4.593 17.31-30-7.937-4.593c6.426-26.087-4.753-54.28-29.22-68.407l-65.5-37.812c-19.76-11.41-48.63-13.89-70.78-5.53 2.947-10.076 5.108-20.605 6.688-31.47zm12.313 174.975c-49.957 19.17-84.558 55.618-106.313 106.308l40.688 40.721c12.79-3.888 24.24-9.11 34.593-15.437-2 28.05 9.848 59.877 28.906 78.937l64.907 64.906c24.242 24.245 60.782 28.477 89.342 12.75l7.875 7.875 29.72-29.719-7.844-7.873c15.736-28.564 11.464-65.096-12.783-89.343l-64.904-64.908c-19.58-19.58-52.629-31.561-81.22-28.72 6.62-10.883 12.457-22.542 17.72-34.779zm-182.157.654c-35.453-.015-68.357 12.319-99 35.22l12.721 47.468c11.113 2.584 21.803 3.602 32.154 3.343-13.452 19.88-18.265 48.465-12.31 70.69l20.279 75.685c7.576 28.27 32.77 46.974 60.596 47.531l2.466 9.19 34.657-9.281-2.47-9.19c23.809-14.4 36.262-43.204 28.69-71.468l-20.25-75.686c-6.117-22.822-25.445-45.77-47.783-55.875 9.534-5.22 18.83-11.36 27.94-18.156l-12.72-47.442c-8.457-1.34-16.787-2.026-24.97-2.029z"/></svg>