<svg xmlns="http://www.w3.org/2000/svg" viewBox="0 0 512 512"><path d="M255.406 25.25c-53.57 0-90.066 33.57-115.156 81.75-23.194 44.54-34.805 100.79-37.062 148.22 26.122 2.758 45.765 14.07 58.125 29.936 12.691 16.293 17.88 36.348 18.468 55.721 9.407 5.46 19.76 10.029 30.69 13.06h.03c14.85 4.12 30.2 6.436 45.655 6.438 15.73.002 31.352-1.854 45.19-5.844 7.06-2.034 13.7-5.865 20.75-10.125.093-20.396 6.206-41.224 19.406-58 12.854-16.336 32.717-28.244 58.062-31.154-.64-49.996-10.638-106.593-32.5-150.625C343.568 57.31 308.635 25.25 255.406 25.25zm59.498 117.81.002.002c.546-.014 1.108-.01 1.656 0 3.253.052 6.558.529 9.844 1.407 21.516 5.745 34.266 27.733 28.5 49.185-3.315 12.34-11.832 21.38-22.75 26.094-6.36-18.085-26.458-36.13-54.687-48.344 5.188-16.823 20.514-27.926 37.435-28.343zm-121.654.002c17.563-.287 33.737 10.978 39.094 28.344-28.23 12.215-48.326 30.26-54.688 48.344-10.918-4.715-19.433-13.754-22.75-26.094-5.765-21.452 6.984-43.44 28.5-49.187 3.286-.88 6.592-1.355 9.844-1.406zm60.563 65.72c14.73 0 24.191 78.65 31.968 117.97-13.414-4.58-26.956-12.173-31.5-33.781-4.55 21.633-16.329 28.291-32.406 33.781 5.754-39.32 17.235-117.97 31.938-117.97zM46.375 331.405c-36.792-.354-42.473 63.983 20.404 74.873-72.944 1.354-52.437 85.506 0 61.909 47.74-21.483 90.994-35.076 133-41.344l11.409-24.438 10.187 21.844a364 364 0 0 1 22.313-1.344l9.562-20.5 9.563 20.471c7.28.174 14.584.578 21.906 1.185l10.092-21.656 11.187 24c45.318 6.223 92.344 20.365 145.096 41.78 49.435 20.07 62.43-57.17 0-59.873 60.048-6.45 42.832-88.05 0-71.032-45.525 18.088-85.475 32.161-122.846 40.971l-11 23.562-8.654-19.408c-8.595 1.626-17.09 2.993-25.5 4l-9.315 19.971-8.558-18.313c-7.857.517-15.663.704-23.471.625l-8.25 17.688-8.53-18.315a296 296 0 0 1-28.5-3.279l-7.94 17.03-9.56-20.467c-34.952-7.84-71.42-22.165-112.19-44.065-7.52-4.04-14.385-5.815-20.405-5.873zm273.813 118.25c-45.352 13.05-91.373 15.047-137.22.596v32.437c45.795 14.123 91.237 13.55 137.22-.062z"/></svg>