<svg xmlns="http://www.w3.org/2000/svg" viewBox="0 0 512 512"><path d="M105.064 18.03c71.2 31.42 129.343 86.117 152.499 155.75 23.154-69.634 78.954-124.33 150.03-155.75h-36.156c-53.801 15.415-89.834 45.46-107.25 92 2.238-52.075 18.276-78.34 40.25-92H203.094c21.98 13.66 38.043 39.925 40.28 92-17.416-46.54-53.447-76.585-107.25-92zm386.967 4.157c-16.65 228.426-81.874 410.467-209.06 398.907 41.547 39.438 83.78 62.385 122.342 72.22l86.72-.002v-32.968c-27.303 13.718-52.894 14.545-130.937-13.438 68.627.614 101.04-14.37 130.935-51.656v-46.062c-20.77 32.912-58.993 60.415-130.935 75.437 64.71-34.947 107.585-89.884 130.937-180.844V22.188zM18.69 71.345V255.47c23.96 84.017 65.86 135.731 127.75 169.154-68.45-14.292-106.347-39.89-127.75-70.687v45.125c29.053 34.483 61.524 48.436 127.75 47.843-75.03 26.903-101.557 27.178-127.75 14.971v31.435h82.282c38.562-9.833 80.795-32.778 122.343-72.218C105.4 431.812 40.758 276.124 18.69 71.344zm113.688 82.406v176.28l4.875 2.658 112.062 60.875 4.47 2.406 4.439-2.408 112.06-60.875 4.908-2.657V153.75H356.5v165.188l-102.75 55.78-102.687-55.78V153.75zm37.53.188v151.406l73.532 41.437V198.5l-73.53-44.562zm167.72 0-75.5 45.78v148.188l75.5-42.562z"/></svg>