<svg xmlns="http://www.w3.org/2000/svg" viewBox="0 0 512 512"><path d="m161.22 19.564-2.5 5.374-106.44 225.5-1 2.093c-24.494 28.208-34.916 58.587-33.592 88.19 1.38 30.852 15.119 60.388 36.375 86.81l2.812 3.5h49.72c4.818-3.836 8.93-7.816 12.405-12.029a73 73 0 0 0 4.875-6.656H65.971c-17.813-23.187-28.527-47.85-29.627-72.44-1.123-25.11 7.337-50.594 29.937-76.125h431.875l-5.25-12.873-91.843-225.5-2.375-5.844zm11.843 18.686h177.343l52.656 41.594 38.407 94.28-58.846 70.94H75.471zM75.154 282.627c-15.308 18.98-20.973 37.776-20.123 56.435.84 18.398 8.276 36.951 20.5 54.47h57.19c4.392-13.518 6.345-29.847 6.78-50.436h-16.189v-18.69h16.315v-.185h115.748v.185h17.156v18.688h-17.25c-.287 17.8-1.447 34.638-4 50.437h221.625c-9.034-36.872-9.111-74.005-.029-110.904zm83.002 60.277c-.77 37.698-6.46 65.831-24.72 87.971-14.595 17.7-36.19 30.747-67.28 42.813 8.69 1.658 17.214 3.225 26.53 5.25 14.048 3.052 27.912 6.338 39.033 9.25 5.56 1.454 10.44 2.826 14.375 4.062 1.94.61 3.532 1.074 5.03 1.625 35.244-13.464 55.78-32.898 68.345-58.72 11.944-24.55 16.286-55.714 16.935-92.25zm89.25 69.442c-1.632 6.425-3.532 12.667-5.812 18.685h257.03l-.001-18.685z"/></svg>