<svg xmlns="http://www.w3.org/2000/svg" viewBox="0 0 512 512"><path d="m334.502 85.217-.002.004c-31.403.523-69.44 13.37-100.562 42.808l17.593 215.409-6.469 77.656h58.125l15.284-37.721 21.123 37.72h151.529c7.896-58.586-44.23-130.166-74.53-130.374l-16.529 1.125c-36.103 7.265-49.647 27.03-66.314 49.779l-4.28 5.846-6.72-2.692-13.03-5.25-14.283 36.596-17.406-6.78 14.375-36.782-11.904-4.782-8.565-3.437 3.315-8.594c7.98-20.727 20.733-40.35 38.904-54.156 14.907-11.326 33.594-18.483 55.156-18.688 1.438-.013 2.88.014 4.344.063 1.917.063 3.858.168 5.815.344l2.5-18.159c-26.083-16.097-67.527-14.871-103.721-.718l-6.78-17.407c20.11-7.864 41.785-12.498 62.655-12.558 17.98-.054 35.357 3.306 50.563 10.873l5.593-40.656c-31.286-27.418-77.42-24.612-119.375-.594l-9.279-16.22c23.566-13.49 49.485-21.265 74.312-21.31 20.46-.04 40.183 5.176 57.28 16.78l2.187-15.844c.354-1.526.611-3.014.781-4.47.002-.02 0-.04.002-.06.357-10.547-4.065-18.355-12.937-25-9.483-7.102-24.384-11.937-42.031-12.657-2.207-.09-4.44-.132-6.719-.094zm-194.408 77.312c-.838.01-1.678.03-2.5.065-13.162.537-24.16 4.175-30.938 9.25-6.776 5.075-9.702 10.64-8.937 18.844l-.596.062a32 32 0 0 0 .625 3.813l2.314 16.718c10.807-7.494 23.1-11.163 35.53-11.094 17.786.102 35.61 7.285 51.781 19.25l-11.094 15c-13.73-10.16-28.062-15.488-40.808-15.56-11.988-.068-22.778 4.042-32.409 14.344l4.407 31.841c8.974-4.182 18.788-6.077 28.844-6.062 14.791.022 30.092 4.157 44 11.188l-8.44 16.687c-21.797-11.02-45.486-12.505-61.687-2l2.033 14.72a88 88 0 0 1 2.5-.064c14.633-.1 27.159 4.06 37.342 11.25 14.48 10.227 24.226 25.515 32.625 41.596l4.28 8.25-8.218 4.344-8.47 4.466L186 394.876l-16.437 8.875-13.813-25.594-9.156 4.844-6.344 3.344-4.875-5.25c-16.32-17.62-29.136-32.608-60.406-35.188l-9-.75c-32.087 15.312-47.556 38.284-42.44 76.25h190.44l-5.096-59.687-.03-.065 13.595-162.625c-24.97-26.094-56.98-36.796-82.344-36.5zm229.344 99.032v.002c-17.593.075-31.925 5.755-43.97 14.906-12.36 9.39-22.03 22.778-29 37.592l26.657 10.72c14.056-18.898 30.816-38.795 61.813-48.344l-8.032-14.47c-1.3-.105-2.638-.296-3.906-.344a87 87 0 0 0-3.562-.062zM116.594 318c-4.288-.028-9.038.543-14.28 1.625l-9 10.656c23.388 6.11 38.254 19.727 50.75 32.94l10.655-5.625 8.844-4.69c-6.628-11.382-13.848-20.917-22.284-26.875-6.494-4.586-13.684-7.535-22.873-7.967-.593-.028-1.2-.06-1.812-.062z"/></svg>