<svg xmlns="http://www.w3.org/2000/svg" viewBox="0 0 512 512"><path d="M64.414 34.277c-8.2.042-16.652.511-25.25 1.305 18.811 11.825 47.439 25.416 75.809 35.346 19.62 6.868 39.233 12.233 55.465 14.86 9.998 1.616 18.484 1.793 24.757 1.267-9.46-16.636-28.867-31.503-56.191-41.147-20.184-7.123-44.389-11.352-71.092-11.623a226 226 0 0 0-3.498-.008zm383.172 0a226 226 0 0 0-3.498.008c-26.703.271-50.908 4.5-71.092 11.623-27.324 9.644-46.731 24.51-56.191 41.147 6.273.526 14.758.35 24.757-1.268 16.231-2.626 35.844-7.991 55.465-14.86 28.371-9.928 56.999-23.52 75.809-35.345-8.598-.795-17.05-1.263-25.25-1.305zm-417.828 17.5c10.732 63.387 9.774 151.122-2.854 210.18 35.275 4.762 73.838-2.48 105.834-14.924 17.386-6.76 32.812-14.982 44.6-23.234 4.285-3 8.02-6.018 11.203-8.922a63 63 0 0 1-3.34-3.559c-14.844-17.115-17.858-41.615-14.031-64.78 2.389-14.464 7.447-28.664 14.908-40.76-24.99.44-54.527-7.35-83.19-17.91-27.591-10.167-53.726-23.014-73.13-36.09zm452.484 0c-19.404 13.077-45.539 25.924-73.13 36.09-28.663 10.56-58.2 18.35-83.19 17.91 7.46 12.097 12.518 26.297 14.908 40.76 3.828 23.166.813 47.666-14.031 64.781a63 63 0 0 1-3.34 3.559c3.183 2.904 6.918 5.922 11.203 8.922 11.788 8.252 27.214 16.473 44.6 23.234 31.996 12.443 70.559 19.686 105.834 14.924-12.628-59.058-13.585-146.793-2.854-210.18zM256 86.697c-16.204 0-32.227 4.959-42.104 13.524-12.056 10.457-21.738 29.716-24.966 49.25-3.227 19.535.004 38.68 9.869 50.054 11.469 13.224 34.123 21.07 57.201 21.07s45.732-7.846 57.201-21.07c9.865-11.375 13.097-30.52 9.87-50.054s-12.912-38.793-24.967-49.25c-9.877-8.565-25.899-13.524-42.104-13.524zm-52.7 139.254c-4.475 4.282-9.728 8.459-15.638 12.596-13.212 9.248-29.786 18.025-48.4 25.264a280 280 0 0 1-4.807 1.812c-20.777 65.205-52.5 128.057-85.127 183.977 8.456-1.898 18.948-4.764 29.596-8.635 21.259-7.731 44.305-19.496 58.713-33.906l11.398-11.399 3.72 15.686c7.567 31.878 22.094 48.169 37.737 66.379 35.313-65.017 51.221-150.544 55.283-239.534-15.155-1.202-29.987-5.135-42.474-12.24zm105.4 0c-12.487 7.105-27.32 11.038-42.475 12.24 4.063 88.99 19.97 174.517 55.283 239.534 15.643-18.211 30.17-34.501 37.736-66.381l3.72-15.684 11.4 11.399c14.408 14.409 37.453 26.175 58.712 33.906 10.648 3.87 21.14 6.737 29.596 8.635-32.627-55.921-64.35-118.772-85.127-183.977a277 277 0 0 1-4.807-1.812c-18.614-7.24-35.188-16.016-48.4-25.264-5.91-4.137-11.164-8.314-15.639-12.596z"/></svg>