<svg xmlns="http://www.w3.org/2000/svg" viewBox="0 0 512 512"><path d="M61.803 26.404c-3.39 10.033-10.17 30.971-15.965 52.926-14.96 57.017-8.487 65.988-8.205 66.34l1.414 1.75.418 2.26v.08l301.838 320.017c10.17-21.107 49.57-63.274 89.976-72.314L192.592 39.14c-2.26-1.425-14.406-6.556-72.62-10.239-24.044-1.526-47.22-2.26-58.17-2.498zm408.775.737c-13.04 1.38-38.576 4.191-64.892 7.773-67.514 9.175-80.17 15.141-82.35 16.588l-6.022 7.809c16.7 3.187 37.683 13.784 60.112 30.789l7.91 5.966-46.147 50.848 7.91 17.785 23.399 3.22 42.236-46.564 6.692 7.57c18.214 20.61 30.247 40.44 34.799 56.667l14.17-13.086v-.08l.566-2.18 1.525-1.66c.746-.883 7.863-10.816 4.711-79.188l.002.002c-1.13-25.254-3.389-49.625-4.62-62.26zM307.482 76.406c-1.36-.015-2.552.083-3.57.28l-34.678 44.984 23.73 35.67 10.981 1.492 13.864-15.289-13.557-30.508a9.042 9.042 0 1 1 16.53-7.332l10.292 23.22 27.381-30.18c-23.73-16.562-41.454-22.23-50.973-22.337zm104.825 72.235-20.227 22.293 22.217 3.062a9.04 9.04 0 0 1-1.242 18 9 9 0 0 1-1.244-.09l-34.463-4.746-13.717 15.13 13.56 30.677a9.04 9.04 0 1 1-16.52 7.334l-10.362-23.367-10.17 11.209 25.853 38.812 72.078-66.52c1.005-9.162-6.532-28.122-25.763-51.794zM310.93 177.996l-2.373 2.621 21.31 32 12.496-13.763-7.806-17.594zM142.773 285.744l-82.45 106.983a90.4 90.4 0 0 1 22.269 10.17l18.87-20.803-7.23-1.547a9.04 9.04 0 0 1 3.774-17.684l17.502 3.74 20.949-23.095-1.863-17.153a9.042 9.042 0 0 1 17.976-1.955l.135 1.2 13.56-14.995zm35.965 37.969-23.435 25.83 2.836 26.08 19.99 4.291 26.27-28.992zm38.125 40.494-18.34 20.078 9.672 2.07a9.04 9.04 0 1 1-3.726 17.67l-19.946-4.26-21.185 23.403 1.683 15.525a9.04 9.04 0 0 1-17.91 2.362l-11.218 12.43a86.2 86.2 0 0 1 9.253 17.546l92.18-85.129zm-77.797 3.277-3.119 3.391 3.57.758zM121.902 386.4l-7.99 8.801-28.742 31.254c-21.266-16.17-34.826-18.27-37.707-17.084-.61 2.35.555 9.629 8.79 21.979 7.65 11.558 18.87 23.524 31.48 33.693 23.615 19.085 38.735 21.548 41.808 20.27.61-2.35-.553-9.627-8.79-21.977a127 127 0 0 0-7.73-10.34l25.696-29.084-.227-.27 5.99-6.599-2.87-26.44zm38.303 8.17.486 4.553 3.391-3.728zm279.22 20.08c-5.17.223-15.135 2.774-29.22 11.07l15.582 18.801c2.475-2.69 4.767-5.4 6.86-8.101 9.094-11.785 10.757-18.96 10.316-21.344h.01c-.633-.316-1.824-.5-3.547-.426zm-72.88 48.606-.406.555c-9.04 11.762-10.747 18.937-10.295 21.322 2.102 1.05 10.396.632 23.92-5.91z"/></svg>