<svg xmlns="http://www.w3.org/2000/svg" viewBox="0 0 512 512"><path d="M255.295 19.137C174.005 18.97 94.94 61.107 51.33 136.643c-64.91 112.425-26.51 255.934 85.918 320.843 112.427 64.91 255.91 26.41 320.818-86.015 64.91-112.426 26.474-255.874-85.953-320.783-36.89-21.298-77.12-31.47-116.818-31.55zm72.264 104.44c23.888.1 47.578 6.047 69.119 18.476 72.557 41.867 93.585 141.628 46.838 222.55C396.77 445.52 299.769 477.277 227.21 435.41c-72.556-41.867-93.54-141.701-46.795-222.62 32.87-56.9 90.563-89.453 147.143-89.214zm69.853 42.398c13.708 22.326 19.044 51.598 15.475 82.795-6.7-12.15-16.443-22.473-28.955-29.676-40.07-23.07-93.726-5.624-119.541 38.965-25.818 44.586-14.2 99.74 25.873 122.806 10.52 6.057 21.983 9.312 33.632 10.016-36.446 22.57-77.037 27.46-108.996 9.015a83 83 0 0 1-5.738-3.646 121.5 121.5 0 0 0 27.9 22.11c64.273 37.086 149.69 9.063 191.098-62.618 39.038-67.578 24.853-149.527-30.748-189.767zm-53.11 62.04h.003c10.273.124 20.464 2.734 29.773 8.092 31.778 18.295 40.878 61.486 20.404 96.846-20.473 35.36-62.589 49.197-94.369 30.902-27.558-15.865-38.002-50.53-26.94-82.52 4.263 16.974 19.723 29.677 37.958 29.677 21.485 0 39.084-17.632 39.084-39.11 0-19.34-14.273-35.523-32.803-38.552 8.006-3.33 16.43-5.157 24.838-5.327a64 64 0 0 1 2.053-.007z"/></svg>