<svg xmlns="http://www.w3.org/2000/svg" viewBox="0 0 512 512"><path d="m439.035 70.984.002.004a24 24 0 0 0-3.025.256c-4.62.668-11.12 2.598-18.8 5.764-15.355 6.332-35.49 17.488-58.085 32.056-10.66 6.874-21.893 14.53-33.48 22.78 10.541 1.434 21.867 4.025 32.61 7.295 13.317 4.05 25.553 8.98 34.42 14.664 4.433 2.842 8.205 5.666 10.84 10.35 1.317 2.34 2.297 5.441 1.917 8.792s-2.177 6.43-4.3 8.51c-8.984 8.797-21.99 10.87-35.734 10.88s-28.705-2.568-42.283-6.7-25.66-9.55-34.033-16.967c-1.918-1.698-3.696-3.563-5.182-5.648a1389 1389 0 0 0-39.058 31.636c13.723 1.595 30.11 5.017 45.906 9.217 15.972 4.247 31.2 9.237 42.393 14.174 5.595 2.468 10.117 4.77 13.834 7.762 1.858 1.494 3.706 3.09 5.08 6.24 1.373 3.147.824 8.838-1.67 11.795l-.063.074-.064.07c-9.658 10.965-24.989 14.675-41.48 15.647-16.494.97-34.705-1.221-51.31-5.461-16.601-4.24-31.486-10.271-41.71-18.744-3.056-2.533-5.797-5.369-7.832-8.657a1244 1244 0 0 0-33.858 31.706c3.804.238 7.784.763 11.934 1.513 13.726 2.48 29.222 7.415 43.584 13.4s27.44 12.872 36.582 20.157c4.57 3.642 8.357 7.21 10.637 12.443 1.14 2.617 1.823 5.92 1.12 9.33-.704 3.412-2.815 6.447-5.245 8.46-10.528 8.724-25.07 9.826-40.282 8.406-15.21-1.42-31.55-5.904-46.17-11.997-14.62-6.092-27.44-13.525-35.783-22.619-2.49-2.712-4.678-5.668-6.158-8.98-12.3 12.98-23.7 25.79-33.928 38.191a525 525 0 0 0 10.227 4.416c10.34 4.345 23.245 9.55 35.516 14.531s23.877 9.727 31.904 13.293c4.013 1.784 6.968 3.142 9.4 4.598.608.364 1.19.723 1.946 1.328.755.605 2.044.8 3.318 4.645.637 1.922.535 5.658-1.16 8.105-1.435 2.072-2.974 2.808-4.149 3.244-9.86 8.365-23.137 10.814-36.383 10.159-14.2-.7-28.928-4.89-41.894-10.94-12.967-6.05-24.195-13.736-31.111-23.373-.09-.125-.173-.257-.26-.383-1.19 1.71-2.36 3.41-3.485 5.092-13.493 20.18-22.05 38.327-24.394 51.85-2.266 13.074-.056 20.56 8.332 26.537 27.173 9.512 68.54-3.465 113.988-32.475 46-29.36 95.61-73.934 139.207-121.496 43.6-47.562 81.273-98.208 103.74-139.238 11.236-20.515 18.607-38.697 21.18-52.121 1.287-6.714 1.34-12.172.547-15.96-.76-3.623-2.037-5.587-4.006-7.15-.15-.068-.587-.241-1.629-.363a16.5 16.5 0 0 0-2.16-.098zm-129.734 77.653v.002c-2.248.014-4.241.142-5.883.377-.615.087-1.15.2-1.645.318q-1.748 1.316-3.503 2.646c.392.687 1.174 1.82 2.746 3.213 4.83 4.278 15.34 9.57 27.34 13.223 12.002 3.652 25.61 5.93 37.03 5.922 8.56-.006 15.623-1.592 19.878-3.613-.705-.58-1.297-1.125-2.3-1.768-6.331-4.058-17.682-8.866-29.946-12.598s-25.61-6.527-36.29-7.42a84 84 0 0 0-7.427-.302zm-79.117 63.082a44 44 0 0 0-2.996.107c-1.53.114-2.527.43-3.11.625l-1.197 1.051c-.515.858-.554 1.391-.412 2.021.225 1 1.514 3.343 4.78 6.047 6.525 5.41 19.736 11.35 34.677 15.166s31.724 5.762 45.797 4.932c9.23-.544 16.815-2.535 22.279-5.121-1.302-.668-2.52-1.322-4.12-2.03-9.73-4.29-24.446-9.177-39.755-13.247s-31.336-7.374-43.785-8.79a122 122 0 0 0-8.574-.689 73 73 0 0 0-3.582-.072zm-60.93 64.62q-.781.008-1.496.044c-3.812.194-5.854 1.242-5.852 1.24-2.023 1.676-1.628 1.627-1.578 2.225.05.597.809 2.758 3.379 5.558 5.14 5.6 16.371 12.726 29.445 18.174s28.073 9.49 40.92 10.688c10.977 1.024 19.784-.492 24.715-3.026a31 31 0 0 0-3.834-3.617c-6.77-5.395-18.958-12.063-32.29-17.62-13.33-5.554-27.958-10.148-39.86-12.298-5.208-.94-9.902-1.398-13.55-1.367zm-68.772 65.743v.002c.314 1.124.86 2.464 2.116 4.21 3.898 5.433 13.047 12.403 24.097 17.56s23.983 8.722 35.176 9.275c4.2.206 7.93-.145 11.383-.756a1476 1476 0 0 0-23.922-9.965c-12.24-4.97-25.176-10.181-35.717-14.61-5.057-2.125-9.463-4.037-13.133-5.716zm92.657 21.598c-.023 0-.1.026-.121.027l.625.033c-.062-.003-.165-.072-.504-.06z"/></svg>