<svg xmlns="http://www.w3.org/2000/svg" viewBox="0 0 512 512"><path d="m491.844 22.533-83.42 14.865L196.572 249.25c3.262 4.815 5.37 10.72 5.37 16.932 0 5.863-1.71 11.35-4.643 15.996a53 53 0 0 0-16.028-2.477c-15.723 0-29.903 6.89-39.689 17.795l-9.111-9.111 17.236-17.239a546 546 0 0 1-13.19-17.6l-19.443 19.44-13.215-13.215 21.829-21.826a548 548 0 0 1-12.793-20.068L72.094 258.68l58.312 58.314a53 53 0 0 0-2.488 16.063 52.9 52.9 0 0 0 4.592 21.564l-72.14 72.14-14.561-14.56L21.014 437l14.556 14.56-8.605 8.608 27.246 27.246 8.605-8.61 14.561 14.56 24.797-24.8-14.557-14.556 72.158-72.16a52.9 52.9 0 0 0 21.498 4.562 53 53 0 0 0 16.063-2.49l58.363 58.363L296.5 401.48a549 549 0 0 1-20.068-12.793l-21.83 21.83-13.211-13.216 19.441-19.442a550 550 0 0 1-17.603-13.193l-17.239 17.238-9.16-9.16c10.905-9.785 17.797-23.964 17.797-39.69 0-5.345-.806-10.51-2.285-15.39 4.703-3.04 10.286-4.817 16.263-4.816 6.21 0 11.778 1.77 16.522 4.955L476.98 105.949zm-66.227 53.012 13.215 13.215-191.684 191.68-13.214-13.213zM181.273 298.39c19.257 0 34.665 15.409 34.665 34.664s-15.408 34.666-34.665 34.666-34.666-15.41-34.666-34.664a34.526 34.526 0 0 1 34.666-34.666z"/></svg>