<svg xmlns="http://www.w3.org/2000/svg" viewBox="0 0 512 512"><path d="M82.055 26.807c-33.127 0-60.182 27.057-60.182 60.183s27.055 60.182 60.182 60.182c33.126 0 60.18-27.056 60.18-60.182s-27.054-60.183-60.18-60.183zm13.851 21.045c16.149 5.665 27.639 20.98 27.639 39.138a41.35 41.35 0 0 1-41.49 41.49 41.35 41.35 0 0 1-41.49-41.49c0-.55.02-1.097.04-1.642 6.067 8.444 15.966 13.95 27.157 13.95 18.46 0 33.426-14.966 33.426-33.427 0-6.638-1.945-12.82-5.282-18.02zm158.057 11.853c-58.15.002-105.123 47.626-105.123 105.71 0 48.527 32.96 89.51 77.738 101.726-8.41 17.653-13.498 37.278-13.498 58.295 0 76.484 62.51 138.998 138.996 138.998h.004c76.485 0 138.412-62.563 138.412-138.998 0-38.083-15.76-72.429-40.658-97.456 16.358-14.68 26.643-36.147 26.643-59.648 0-43.695-35.733-79.426-79.428-79.426-20.743 0-39.395 8.335-53.43 21.41-18.555-30.156-51.716-50.609-89.656-50.609zm0 18.69c34.466 0 64.11 20.527 78.127 49.697a48.8 48.8 0 0 0-3.38 17.873c0 27.04 21.918 48.96 48.958 48.96s48.96-21.92 48.96-48.96c0-14.81-6.586-28.074-16.978-37.05 27.496 5.801 48.137 30.194 48.137 59.417 0 21.225-10.98 40.403-27.336 51.186l-10.353 6.826 9.418 8.07c25.745 22.062 42.289 54.548 42.289 91.02 0 66.374-53.403 120.308-119.725 120.308h-.004c-57.162 0-105.152-40.103-117.32-93.642 15.684 22.5 41.747 37.226 71.254 37.226 47.94 0 86.799-38.863 86.799-86.8 0-47.94-38.86-86.8-86.8-86.8-28.381 0-53.577 13.625-69.415 34.688-39.414-8.176-69.065-43.066-69.065-85 0-.494.01-.985.018-1.476 9.545 23.693 32.734 40.425 59.846 40.425 35.627 0 64.51-28.88 64.51-64.508 0-28.532-18.534-52.723-44.214-61.232a88 88 0 0 1 6.274-.228zM105.945 241.834v.002a82.4 82.4 0 0 0-21.668 2.818C40.2 256.47 14.415 302.08 26.203 346.076c6.57 24.52 23.502 43.28 44.84 53.197-6.084 12.932-7.977 27.965-3.982 42.872 9.028 33.692 44.24 53.446 77.812 44.449 33.573-8.995 53.597-43.677 44.602-77.25-3.488-13.016-10.86-23.98-20.496-32.018 16.683-19.844 24.107-47.012 16.869-74.025v-.004c-9.596-35.817-41.55-59.943-76.84-61.395a82 82 0 0 0-3.063-.068zm0 18.666a63 63 0 0 1 2.375.05c27.367 1.084 52.01 19.727 59.475 47.585 6.445 24.055-2.004 47.965-19.39 63.7l-9.663 8.743 11.383 6.346c10.19 5.68 18.04 15.104 21.295 27.256 6.393 23.86-7.526 47.97-31.383 54.36-20.92 5.605-42.49-4.383-51.775-22.935a33.75 33.75 0 0 0 22.564 1.784c18.086-4.847 28.82-23.439 23.973-41.526-4.847-18.085-23.438-28.814-41.524-23.968a34 34 0 0 0-7.752 3.138c-19.715-6.628-35.475-22.17-41.27-43.797a66 66 0 0 1-1.548-7.572c10.962 18.105 32.917 27.61 54.389 21.857 26.044-6.978 41.5-33.748 34.52-59.794-4.7-17.548-18.394-30.275-34.79-34.586a64 64 0 0 1 9.121-.641z"/></svg>