<svg xmlns="http://www.w3.org/2000/svg" viewBox="0 0 512 512"><path d="m340.53 16.47-19.25 89.374 70.66-89.373zm151.283 18.686L372.063 167.75l119.75-47.906zM185.375 80.25a65 65 0 0 0-1.937.063c-9.51.421-18.371 2.635-25.688 7.593-16.964 11.492-11.294 37.156-22.78 63.094-39.24 88.616-78.88 152.885-113.907 200.313v103.375c61.581-21.345 153.301-43.464 287.341-47.907 28.125-.93 49.728 12.582 66.594 1.158 41.638-28.207 26.564-122.467-33.28-210.812-3.74-5.52-7.222-11.142-11.124-16.346-46.8-62.426-104.126-101.082-145.22-100.529zM180 104.752c-6.755 13.894-.412 43.86 15.938 80.748-5.16-18.626-4.688-32.142 2.687-36.625 16.125-9.802 59.054 27.175 95.875 82.594 36.82 55.417 53.594 108.29 37.47 118.094-6.633 4.031-17.81.136-31.22-9.69 27.717 28.092 52.734 44.51 68.094 43.656-1.785 3.17-3.675 6.245-6.5 8.159-26.9 18.224-91.756-30.25-144.656-108.344-52.902-78.094-73.87-156.34-46.97-174.563 2.758-1.866 5.784-3.524 9.282-4.03zm311.813 115.56-84.688 27.438 84.688 12.844z"/></svg>