<svg xmlns="http://www.w3.org/2000/svg" viewBox="0 0 512 512"><path d="M73.813 39.28zh.003zm.003.001c70.513 36.34 49.049 103.816 8.371 138.219-88.594 74.925-82.78 199.22 48.25 244.563-10.523-32.924-9.554-66.272 2.063-99.063-30.195-25.72-38.378-63.247 11.906-135.656 30.388-43.758 23.923-140.867-70.59-148.063zm361.496-.002c-94.515 7.193-100.981 104.307-70.593 148.065 47.774 68.795 42.742 106.107 16.217 131.72 7.033 17.736 12.06 35.84 13.283 54.467.963 14.702-.57 29.681-5.25 44.721 120.973-48.166 124.15-167.84 37.935-240.75-40.677-34.404-62.11-101.88 8.407-138.22zM355.44 307.623l-.002.002c-66.122 9.62-131.396 17.49-196.218.688-23.464 45.56-24.195 89.256.469 134.656 65.571-6.135 131.11-5.805 196.593.06 15.795-23.503 20.762-45.731 19.283-68.281-1.44-21.957-9.355-44.356-20.125-67.125z"/></svg>