<svg xmlns="http://www.w3.org/2000/svg" viewBox="0 0 512 512"><path d="m332.53 21.45-38.774 56.273 14.422 2.027 6.93.975-1.948 13.863-31.687-4.455-1.256 8.912-4.45 31.652-.007.037-.004.037-7.654 54.426-31.03-4.361-1.79 8.139-40.817 185.603a1190 1190 0 0 1 18.79-1.629l3.35-15.24 134.624 18.93-.985 15.588a1163 1163 0 0 1 17.611 6.73L380.33 200.98l-31.027-4.363 13.367-95.066-31.69-4.455 1.95-13.864 21.353 3.002zM174.005 71.224c-15.522 3.527-31.162 14.647-45.992 28.474-14.326-13.384-28.68-23.53-45.54-28.35l-4.949 17.305c15.107 4.32 28.602 14.201 44.112 29.71L128 124.73l6.363-6.367c15.35-15.35 32.642-27.09 43.63-29.588zm142.03 42.21.001.002q1.741-.018 3.526.231c12.684 1.784 21.359 13.293 19.576 25.977s-13.294 21.357-25.979 19.574c-12.684-1.785-21.358-13.296-19.574-25.98 1.616-11.496 11.223-19.694 22.45-19.803zm-27.169 53.358c5.884 5.357 13.363 9.068 21.785 10.252 8.424 1.184 16.639-.322 23.772-3.85l-2.944 20.912-45.552-6.404zm-17.949 36.977 70.7 9.943-38.763 20.06-31.937-30.002zm-21.459 4.544h.002l36.441 34.23-49.617 25.68zm111.385 15.72-3.82 60.62-40.256-37.81zm-61.028 31.58 38.8 36.445-85.886-12.079zm-69.421 39.406 124.87 17.556-2.9 46.045-131.88-18.543zm21.96 93.794v.002c-23.248-.01-51.884 3.058-95.332 7.655L95.807 494h320.386l-18.384-63.674c-72.987-29.56-100.19-40.694-140.873-41.467q-2.256-.044-4.58-.045z"/></svg>