<svg xmlns="http://www.w3.org/2000/svg" viewBox="0 0 512 512"><path d="M263.81 18.594c-50.385 12.75-80.687 66.326-50.81 111.22 22.477 33.773 44.967 61.166 8.75 79.06-23.353 11.539-50.027-16.454-46.125-49.28 4.812-40.485-18.705-79.927-46.125-88.188 46.237 106.42-43.46 176.998-24.53 77.094-30.285 16.095-32.783 59.018-11.25 122.72-40.371-17.2-55.07-66.767-38.282-120.564-35.866 28.35-53.3 130.905-14.626 183.471C136.426 464.081 248.157 496.344 268 496.344c21.144 0 117.334-33.716 189.594-115.125 41.782-47.074 50.926-168.9 9.22-243.658 5.98 25.335-6.117 76.785-33.845 94.03 4.998-57.773-3.913-140.943-36.69-171.528 32.622 172.801-93.01 152.2-48.375 99.529 29.51-34.825-.17-102.5-17.5-112.375 10.894 42.12-14.238 69.675-54.718 61.435-27.252-5.547-44.743-44.954-11.875-90.058zm-115.154 211.47h18.688V395.25l102.72 55.813L372.78 395.25V230.094h18.692v176.279l-4.909 2.658L274.5 469.877l-4.437 2.437-4.47-2.437-112.064-60.848-4.873-2.654zm205.25.215v151.409l-75.5 42.564V276.029zm-167.72.002 73.533 44.531v148.315l-73.533-41.44z"/></svg>