<svg xmlns="http://www.w3.org/2000/svg" viewBox="0 0 512 512"><path d="m30.934 23.332.002.004v-.004zm.002.004c-.97 100.41 10.372 192.127 100.757 231.06 109.81 47.303 46.883 118.85-58.246 83.002 76.11 65.222 145.665 141.652 200.928 159.985a54.6 54.6 0 0 0 22.12 4.674c11.403 0 22.023-3.508 30.835-9.495 31.55 8.544 59.065 11.346 82.4 9.231 19.94-.195 38.412-6.677 53.524-17.557 49.986-33.49 55.46-109.83 11.715-201.34 1.573-8.565 1.076-16.997-1.155-25.322-1.973-9.506-6.227-18.195-12.152-25.476-28.97-42.765-97.358-83.18-159.58-124.506 77.79 99.205 67.216 143.1 10.637 94.234 1.09-7.624-1.226-15.174-6.104-23.178-1.8-3.4-4.032-6.54-6.625-9.343-17.988-22.57-52.22-49.85-87.02-92.078 38.056 186.148-97.828 83.322-182.034-53.891zm236.853 150.5c14.032 0 25.209 11.177 25.209 25.21s-11.176 25.208-25.21 25.208c-14.033 0-25.208-11.175-25.208-25.21 0-14.031 11.174-25.208 25.21-25.208zm147.574 54.834h.002a40.864 40.864 0 0 1 41.004 41.004 40.865 40.865 0 0 1-41.006 41.004 41.2 41.2 0 0 1-14.582-2.65c-.746-19.393-10.638-36.513-25.474-47.16a40.84 40.84 0 0 1 40.056-32.198zm-75.449 39.473a42.1 42.1 0 0 1 42.24 42.242 42.1 42.1 0 0 1-42.24 42.242 42.1 42.1 0 0 1-42.242-42.242 42.1 42.1 0 0 1 42.242-42.242zm68.887 65.464c41.396 0 74.756 33.36 74.756 74.754 0 41.397-33.357 74.754-74.754 74.754-23.397 0-44.22-10.66-57.91-27.402.458-2.85.703-5.772.703-8.75 0-15.814-6.752-30.114-17.506-40.184.268-12.963 3.804-25.091 9.828-35.61 23.163-1.517 42.872-16.092 51.803-36.403a75.5 75.5 0 0 1 13.08-1.157zm-145.53 10.59c12.626 0 22.663 10.038 22.663 22.664 0 12.628-10.036 22.662-22.663 22.662s-22.664-10.035-22.664-22.662c0-12.625 10.036-22.662 22.664-22.662zm33.225 66.35a36.275 36.275 0 0 1 36.414 36.414 36.27 36.27 0 0 1-36.414 36.412 36.27 36.27 0 0 1-36.41-36.41c0-20.22 16.188-36.414 36.41-36.414z"/></svg>