<svg xmlns="http://www.w3.org/2000/svg" viewBox="0 0 512 512"><path d="M320.9 19.055c-39.32 0-71 31.68-71 71s31.68 71 71 71 71-31.68 71-71-31.68-71-71-71zm0 30c22.537 0 41 18.463 41 41s-18.463 41-41 41-41-18.463-41-41 18.463-41 41-41zM146.5 64.418v.002a37.8 37.8 0 0 0-8.3.83c-29.028 6.162-49.944 25.765-62.878 51.578-12.934 25.812-18.632 57.933-19.177 91.889-1.09 67.913 18.283 143.263 49.238 190.287 10.45 15.873 24.973 24.52 41.959 28.865 6.516 1.665 13.428 2.814 20.828 3.713a57 57 0 0 1-.272-5.53c0-4.141.573-8.307 1.643-12.486-6.597-.813-12.504-1.798-17.738-3.138-14.19-3.63-23.288-9.022-31.387-21.324-27.905-42.392-47.307-115.925-46.277-180.1.515-32.087 6.1-61.815 17.275-84.115s27.19-37.078 50.522-42.03c6.646-1.412 10.758-.17 15.23 3.33 4.473 3.503 8.925 9.939 12.633 18.57 6.386 14.87 10.5 35.725 13.035 56.294h18.133c-2.558-22.05-6.74-45.029-14.63-63.397-4.43-10.315-10.045-19.35-18.073-25.638-6.02-4.714-13.61-7.504-21.764-7.6zm174.4 2.637c-12.81 0-23 10.19-23 23s10.19 23 23 23 23-10.19 23-23-10.19-23-23-23zm22.998 108.974a88.7 88.7 0 0 1-23 3.026 88.7 88.7 0 0 1-22.998-3.024v137.75c.14 3.726 1.944 6.4 6.221 9.108 4.293 2.717 10.888 4.59 17.406 4.78s12.844-1.327 16.733-3.763c3.888-2.436 5.638-4.805 5.638-9.851zm-173.312 3.026c1.274 18.84 3.491 61.975-.803 88.441-2.047 12.612-7.35 26.95-11.578 37.559h69.387c-4.224-10.61-9.53-24.947-11.576-37.559-4.295-26.466-2.076-69.602-.803-88.441zm63.314 16v30h46v-30zm-89 126v18h96v-18zm138.735 5.96c-27.298 14.694-51.159 32.19-68.371 49.403-19.15 19.152-29.364 38.137-29.364 49.637 0 13.182 5.877 23.69 16.293 33.068 10.415 9.378 25.386 17.005 41.551 22.393 45.724 15.24 108.586 15.24 154.309 0 16.166-5.388 31.136-13.015 41.552-22.393s16.295-19.886 16.295-33.068c0-21-10.154-38.33-29.021-55.31-16.857-15.173-40.628-29.393-68.123-43.57a30.5 30.5 0 0 1-10.942 11.987c-.07.042-.139.08-.207.123 17.422 2.965 33.141 8.79 45.971 16.875 19.12 12.05 32.32 29.83 32.32 50.395s-13.2 38.344-32.32 50.394c-19.12 12.048-44.638 19.106-72.68 19.106s-53.561-7.057-72.681-19.106-32.319-29.83-32.319-50.396c0-20.565 13.2-38.346 32.319-50.395 13.266-8.36 29.617-14.31 47.75-17.174a43 43 0 0 1-1.47-.888c-4.3-2.72-8.18-6.5-10.862-11.08zm37.265 28.038v.002c-24.977 0-47.46 6.487-63.084 16.334-15.626 9.848-23.916 22.32-23.916 35.166 0 12.848 8.29 25.32 23.916 35.166 15.625 9.848 38.107 16.334 63.084 16.334 15.375 0 29.796-2.466 42.262-6.653-4.685-3.872-9.764-8.13-14.254-12.964-3.65-3.93-6.972-8.283-9.021-13.594-2.05-5.31-2.508-11.823-.264-17.905l16.889 6.23c-.707 1.918-.64 3.097.17 5.196s2.68 4.874 5.42 7.824c5.012 5.398 12.586 11.12 19.343 17.053.86-.5 1.714-1.004 2.537-1.523 15.625-9.847 23.918-22.318 23.918-35.166s-8.293-25.318-23.918-35.166-38.105-16.334-63.082-16.334zm-8.584 11.078h16v18h-16zm38.006 5.383h16v18h-16zm-72.506 3.136h16v18h-16zm-27.98 26.405h16v18h-16zm125.877 0h16v18h-16zm-97.943 19.511h16v18h-16zm34.78 8.762h16v18h-16z"/></svg>