<svg xmlns="http://www.w3.org/2000/svg" viewBox="0 0 512 512"><path d="M81.617 19.605s.137 54.992.137 68.432c0 0 21.164 1.872 28.344 14.49 15.709 27.588 17.073 37.793 19.965 141.418l67.714-.1c2.36-39.1 8.775-120.962 24.955-118.282v.001c12.897-3.232 8.978 87.68 17.213 131.05 5.136 27.087 12.644 49.38 21.713 67.679-8.668 22.669-14.928 44.172-20.172 59.033-4.063 11.501-35.516 29.443-58.146 26.623l-8.506 73.156s7.122 3.24 18.916 4.83c67.33 9.095 102.005-48.19 125.887-102.841 59.868 26.844 128.468-19.034 128.468-79.096 0-57.812-38.737-90.73-72.753-90.73-25.09 0-45.303 9.494-61.788 24.212-14.289-88.295-11.33-218.775-86.015-218.775-37.256 0-56.168 33.043-64.08 49.99l-2.426 5.455c-16.284-29.624-42.139-56.545-79.426-56.545zm287.469 274.336c21.027 0 10.573 21.527 3.94 23.247-9.462 2.453-17.408 1.919-24.147-1.036 6.482-12.777 12.907-21.24 20.207-22.21z"/></svg>