<svg xmlns="http://www.w3.org/2000/svg" viewBox="0 0 512 512"><path d="M119.436 36c-16.126 0-29.2 17.237-29.2 38.5v363c0 21.263 13.074 38.5 29.2 38.5h275.298c16.126 0 29.198-17.237 29.198-38.5v-363c0-21.263-13.072-38.5-29.198-38.5zm26.884 3.717h.002l47.393 58.271-47.393 58.287-47.377-58.289zm99.59 125.287q22.468 0 41.012 11.412 18.543 11.294 29.717 32.572 11.175 21.159 11.175 47.43 0 24.012-8.796 42.793-8.679 18.78-27.342 34.353 1.902 4.875 4.162 13.315 4.16 15.81 7.963 20.564 3.804 4.755 8.678 4.756 4.515 0 7.726-5.111 3.33-4.994 3.566-16.762h7.133q-.118 21.398-8.32 31.502t-21.398 10.104q-12.244 0-19.971-9.868-7.608-9.746-10.104-37.562-6.657 1.664-12.838 2.496t-11.767.832q-22.11 0-40.893-11.412-18.663-11.53-29.718-32.928-10.936-21.515-10.936-48.5-.001-38.276 24.844-65.379 22.586-24.606 56.107-24.607zm.358 9.035q-14.74 0-26.508 8.32-11.651 8.322-18.307 26.034-6.539 17.593-6.539 47.906 0 21.396 3.924 36.73 3.923 15.336 12.244 29.125-.237-5.468-.238-8.797 0-14.74 9.39-24.25 9.51-9.51 24.844-9.51 15.453 0 25.914 10.342 7.846 7.845 14.74 27.221 6.42-12.123 9.391-26.27 2.972-14.145 2.973-35.423 0-29.956-6.537-47.313-6.54-17.474-18.426-25.795-11.887-8.32-26.865-8.32zm-1.545 114.83q-11.175 0-18.307 7.133-7.133 7.132-7.133 18.426c0 7.45 2.933 14.5 8.797 21.158q8.44 3.685 17.711 3.685 7.132 0 13.434-1.783a46.8 46.8 0 0 0 11.886-5.23q-.237-21.397-5.586-31.026-6.775-12.362-20.802-12.363zm120.94 63.654zl47.39 58.272-47.39 58.287-47.377-58.289z"/></svg>