<svg xmlns="http://www.w3.org/2000/svg" viewBox="0 0 512 512"><path d="M119.436 36c-16.126 0-29.2 17.237-29.2 38.5v363c0 21.263 13.074 38.5 29.2 38.5h275.298c16.126 0 29.198-17.237 29.198-38.5v-363c0-21.263-13.072-38.5-29.198-38.5zm26.654 8.047s46.335 33.838 47.27 63.068c.774 24.287-25.025 32.12-40.776 18.584l13.633 32.653h-40.115l13.613-32.633c-15.535 13.88-40.006 5.347-40.758-18.606-.88-28.01 47.133-63.066 47.133-63.066zM312.7 176.535zq23.18 0 38.635 18.069 19.139 22.229 19.139 67.4-.001 41.961-16.645 63.953-16.643 21.873-40.18 21.873-22.704 0-37.92-18.426-19.02-23.18-19.02-66.925 0-41.605 17.95-66.211 14.385-19.733 38.04-19.733zm-126.36 3.09h5.469v148.354q0 3.328 2.379 5.11 3.446 2.498 8.439 2.497h23.059v8.916H140.22v-8.916h19.73q6.182 0 9.154-2.854 2.972-2.97 2.971-7.845V212.789q0-3.447-2.732-5.822-2.736-2.38-7.016-2.381H135.94v-8.2q18.546-2.377 30.077-6.3 11.528-4.042 20.324-10.461zm127.074 5.469q-15.69 0-24.486 15.095-8.797 14.979-8.797 62.29 0 46.24 9.033 61.695 9.152 15.453 24.486 15.453 15.455 0 23.778-14.264 9.865-16.999 9.865-62.052 0-46.598-9.273-62.407-9.27-15.81-24.606-15.81zm32.363 168.554h40.118l-13.633 32.653c15.75-13.536 41.55-5.701 40.773 18.586-.933 29.23-47.27 63.068-47.27 63.068s-48.01-35.06-47.13-63.068c.75-23.953 25.222-32.485 40.758-18.604z"/></svg>