<svg xmlns="http://www.w3.org/2000/svg" viewBox="0 0 512 512"><path d="M390.758 21.83c-31.112.768-60.258 19.792-72.393 50.537-16.175 41.018 3.97 87.43 44.975 103.604h.002c41.005 16.185 87.42-3.965 103.607-44.96 16.168-41.015-3.97-87.44-44.98-103.62-10.25-4.044-20.84-5.817-31.211-5.56zm.441 18.524a61.1 61.1 0 0 1 23.97 4.275c31.513 12.428 46.986 48.074 34.552 79.562-12.428 31.517-48.075 46.99-79.575 34.56-31.506-12.419-46.983-48.08-34.556-79.58 9.33-23.623 31.714-38.232 55.61-38.817zm.65 17.515a44 44 0 0 0-5.911.71c21.041 5.894 35.635 26.104 33.675 48.651-1.528 17.757-12.864 32.308-28.23 38.788 23.852 1.516 44.687-16.334 46.765-40.274 2.095-24.276-15.927-45.667-40.197-47.767a44.5 44.5 0 0 0-6.101-.108zM156.306 96.066c-6.205.427-11.49 5.17-12.354 11.584l-22.695 168.43c-.986 7.335 4.166 14.086 11.494 15.078l70.033 9.442h.002l16.576-55.829c4.396-14.811 19.98-23.286 34.809-18.878l13.02 3.867 13.958-103.623c.992-7.322-4.166-14.08-11.488-15.07L159.012 96.153a13.4 13.4 0 0 0-2.707-.088zm289.681 81.428a93.5 93.5 0 0 1-32.025 14.41l32.791 72.223 31.96-14.5zm-198.634 61.89c-6.202-.536-12.149 3.333-13.997 9.546l-48.363 162.92c-2.106 7.099 1.933 14.552 9.033 16.664l13.604 4.043.002-.002a27.97 27.97 0 0 1 2.469-14.612l71.644-154.127a27.8 27.8 0 0 1 9.938-11.546l-41.668-12.38a13.4 13.4 0 0 0-2.662-.505zm44.33 12.886.117.029-.111-.035zm-181.42-3.989-28.89 7.684c-7.14 1.9-11.408 9.244-9.503 16.396L115.574 436.6c1.9 7.15 9.249 11.406 16.395 9.5l44.845-11.926c-6.143-6.986-8.675-16.895-5.83-26.473l27.586-92.933-67.773-9.135c-15.33-2.065-26.07-16.175-24.01-31.488zm376.008 10.73-37.418 16.98 7.253 15.94 37.395-16.97zm-178.653 3.212c-5.22-.18-10.295 2.717-12.633 7.75l-71.629 154.109c-3.117 6.721-.196 14.692 6.502 17.814l101.23 47.053v.002c6.705 3.104 14.682.2 17.802-6.514l71.64-154.11c3.11-6.71.2-14.683-6.51-17.798l-101.23-47.064a13.3 13.3 0 0 0-5.172-1.242zM59.875 284.105 26.6 298.434c-6.786 2.92-9.931 10.808-7.004 17.605L86.8 472.135v-.004c2.927 6.797 10.815 9.937 17.613 7.017l64.445-27.752-33.138 8.823c-14.947 3.976-30.278-4.927-34.268-19.864z"/></svg>