<svg xmlns="http://www.w3.org/2000/svg" viewBox="0 0 512 512"><path d="M119.434 36c-16.126 0-29.2 17.237-29.2 38.5v363c0 21.263 13.074 38.5 29.2 38.5h275.298c16.126 0 29.198-17.237 29.198-38.5v-363c0-21.263-13.072-38.5-29.198-38.5zm57.216 16.174c13.613-.32 26.504 9.854 27.075 28.043.976 31.09-47.74 52.945-52.313 70.015-4.997-18.649-51.412-37.573-52.45-70.015-.993-31.155 37.404-37.907 52.452-11.846 6.262-10.846 15.923-15.978 25.236-16.195zm70.21 124.361q14.382 0 26.626 6.182 12.363 6.18 18.545 16.285 6.182 9.986 6.182 21.873 0 8.202-3.092 16.64-3.09 8.442-9.033 15.811-10.224 12.72-21.041 21.754l-31.383 26.39q-11.887 9.986-17.353 16.999-5.47 7.013 53.966 7.013 8.914 0 12.72-4.636 3.802-4.636 8.677-25.676h8.084l-3.805 49.332H189.445v-6.42l34.592-39.346c19.257-20.92 30.825-34.078 34.71-39.466q8.32-11.531 12.124-22.229 3.805-10.817 3.805-19.613 0-14.622-8.084-22.944-8.084-8.44-22.467-8.44-16.166 0-26.389 7.727t-10.222 16.405q0 2.971 1.545 4.517 1.425 1.545 6.181 2.735 12.006 2.852 12.006 14.025-.001 6.063-4.04 10.106-4.043 3.922-10.343 3.921-7.252 0-12.72-6.656-5.468-6.776-5.467-17.594-.002-12.124 6.18-21.99 6.3-9.985 18.902-16.285 12.6-6.42 27.101-6.42zM360.728 361.77c4.572 17.07 53.285 38.925 52.308 70.015-.57 18.19-13.46 28.362-27.072 28.043v-.002c-9.314-.217-18.975-5.35-25.236-16.195-15.048 26.06-53.448 19.31-52.454-11.846 1.037-32.442 47.456-51.365 52.454-70.015z"/></svg>