<svg xmlns="http://www.w3.org/2000/svg" viewBox="0 0 512 512"><path d="M119.436 36c-16.126 0-29.2 17.237-29.2 38.5v363c0 21.263 13.074 38.5 29.2 38.5h275.298c16.126 0 29.198-17.237 29.198-38.5v-363c0-21.263-13.072-38.5-29.198-38.5zm26.654 8.045s46.338 33.84 47.271 63.07c.776 24.287-25.024 32.12-40.775 18.584l13.633 32.653h-40.117l13.613-32.633c-15.535 13.88-40.006 5.347-40.758-18.606-.88-28.01 47.133-63.066 47.133-63.066zm99.45 132.49c16.402 0 30.076 6.815 41.01 20.445q16.406 20.447 16.405 57.416 0 30.669-9.154 51.829-9.035 21.039-24.012 31.38-14.977 10.224-33.76 10.225-18.187 0-28.529-7.965-10.223-8.083-10.223-19.258.001-7.37 4.16-11.886 4.28-4.518 10.7-4.518 5.823 0 9.865 3.922t4.043 9.393q0 3.922-3.686 8.677-2.257 2.972-2.257 5.112 0 3.328 3.921 5.824 3.924 2.377 12.602 2.377 12.362 0 21.752-6.776 9.391-6.894 15.217-22.466 5.824-15.692 5.824-40.536l-.238-10.58q-7.726 11.65-18.069 17.594-10.34 5.824-23.18 5.824-17.83 0-32.45-12.48-14.504-12.482-14.504-36.733 0-23.655 16.048-40.18 16.166-16.64 38.514-16.64zm.356 8.559q-13.313 0-21.873 11.174-8.558 11.054-8.558 33.402 0 20.447 8.558 30.55 8.559 9.986 22.348 9.985 13.671 0 22.943-10.816 9.391-10.818 9.391-30.313 0-20.208-9.748-32.096-9.629-11.886-23.06-11.886zm99.883 168.554h40.116l-13.633 32.653c15.75-13.536 41.551-5.701 40.775 18.586-.933 29.23-47.27 63.068-47.27 63.068s-48.011-35.06-47.132-63.068c.75-23.953 25.222-32.485 40.758-18.604z"/></svg>