<svg xmlns="http://www.w3.org/2000/svg" viewBox="0 0 512 512"><path d="M119.436 36c-16.126 0-29.2 17.237-29.2 38.5v363c0 21.263 13.074 38.5 29.2 38.5h275.298c16.126 0 29.198-17.237 29.198-38.5v-363c0-21.263-13.072-38.5-29.198-38.5zm26.654 8.045s46.335 33.84 47.27 63.07c.774 24.287-25.025 32.12-40.776 18.584l13.633 32.653h-40.115l13.613-32.633c-15.535 13.88-40.006 5.347-40.758-18.606-.88-28.01 47.133-63.066 47.133-63.066zm98.736 120.959q22.466 0 41.01 11.412 18.545 11.293 29.719 32.57 11.174 21.159 11.174 47.43 0 24.013-8.797 42.795-8.677 18.78-27.34 34.353 1.901 4.875 4.16 13.315 4.161 15.81 7.965 20.564 3.803 4.755 8.678 4.754 4.515 0 7.726-5.111c2.22-3.33 3.408-8.914 3.567-16.76h7.132q-.12 21.397-8.322 31.5-8.202 10.105-21.396 10.106-12.245 0-19.971-9.868-7.608-9.746-10.104-37.562-6.657 1.664-12.838 2.496t-11.77.832q-22.11 0-40.892-11.412-18.662-11.53-29.716-32.928-10.936-21.515-10.936-48.5-.001-38.276 24.844-65.379 22.586-24.606 56.107-24.607zm.356 9.035q-14.74 0-26.508 8.32-11.65 8.322-18.307 26.034-6.537 17.593-6.537 47.906 0 21.396 3.922 36.73t12.244 29.123q-.237-5.467-.238-8.795.001-14.74 9.392-24.25 9.51-9.51 24.844-9.51 15.453 0 25.914 10.342 7.845 7.845 14.74 27.221 6.42-12.123 9.391-26.27t2.973-35.425q0-29.955-6.54-47.31-6.537-17.475-18.425-25.796-11.887-8.32-26.865-8.32zm-1.545 114.83q-11.175 0-18.307 7.133-7.131 7.131-7.13 18.424 0 11.175 8.796 21.16 8.44 3.685 17.711 3.685 7.132 0 13.432-1.783a46.8 46.8 0 0 0 11.888-5.23q-.236-21.397-5.588-31.026-6.776-12.362-20.802-12.363zm102.142 64.78h40.116L372.262 386.3c15.75-13.536 41.551-5.701 40.775 18.586-.933 29.23-47.271 63.066-47.271 63.066s-48.01-35.057-47.131-63.066c.75-23.953 25.222-32.486 40.758-18.606z"/></svg>