<svg xmlns="http://www.w3.org/2000/svg" viewBox="0 0 512 512"><path d="M180.818 24.986c-7.311.502-13.535 6.091-14.55 13.645l-26.73 198.389c-1.167 8.638 4.903 16.591 13.536 17.757l82.487 11.118 19.525-65.754c5.178-17.448 23.537-27.43 41.004-22.233l15.33 4.553 16.445-122.055c1.16-8.627-4.904-16.586-13.531-17.752L184.008 25.092a15.8 15.8 0 0 0-3.19-.106zm46.125 35.18a93 93 0 0 1 17.162 1.268c7.37 1.227 14.104 3.177 20.174 5.86 6.078 2.678 11.184 6.16 15.319 10.43 4.14 4.28 7.082 9.35 8.832 15.22 1.755 5.875 1.996 12.614.734 20.234-.802 4.833-2.09 9.125-3.85 12.865a45 45 0 0 1-6.732 10.307c-2.72 3.139-5.932 6.04-9.635 8.724-3.71 2.683-7.904 5.391-12.597 8.117-8.365 4.972-27.138 16.679-20.028 34.436l-31.285-5.203c-5.148-22.02 12.063-39.23 22.543-45.145 4.608-2.543 10.29-6.872 15.941-11.345 10.68-9.132 12.708-29.938-8.76-34.03q-9.278-1.546-19.911.668c-7.085 1.463-14.043 4.317-20.856 8.567l5.95-35.801c6.715-2.633 13.83-4.267 21.345-4.881a90 90 0 0 1 5.654-.291zm61.118 133.627c-7.306-.63-14.313 3.93-16.487 11.244l-56.97 191.9c-2.476 8.36 2.284 17.137 10.644 19.627l16.016 4.758a33 33 0 0 1 2.916-17.21l84.379-181.532a32.8 32.8 0 0 1 11.705-13.603l.132.033-.119-.043-.007.004-49.075-14.582a16 16 0 0 0-3.134-.596zm-46.797 227.53v.005l.004-.004zm-25.612-223.565q2.238.014 4.618.41c6.266 1.038 11.146 3.764 14.656 8.178 3.509 4.328 4.801 9.31 3.865 14.943q-1.417 8.563-8.42 13.147-7.11 4.563-16.635 2.978c-6.338-1.055-11.298-3.836-14.863-8.34-3.545-4.662-4.867-9.696-3.969-15.082.923-5.554 3.79-9.839 8.616-12.869q5.422-3.407 12.132-3.365zm-89.066 6.515-34.033 9.053c-8.41 2.234-13.432 10.893-11.192 19.313l51.479 193.447c2.24 8.426 10.888 13.435 19.308 11.195l52.82-14.05c-7.235-8.233-10.21-19.9-6.864-31.18L230.6 282.584l-79.829-10.758c-18.06-2.435-30.707-19.052-28.285-37.088zm232.453 16.428c-6.146-.212-12.123 3.2-14.873 9.127l-84.373 181.524c-3.674 7.91-.24 17.301 7.658 20.974l119.236 55.424c7.892 3.667 17.29.236 20.967-7.668l84.371-181.523c3.674-7.9.244-17.29-7.656-20.963L365.13 222.16a15.7 15.7 0 0 0-6.09-1.459zM67.236 246.475l-39.197 16.87c-7.995 3.443-11.698 12.738-8.25 20.745l79.16 183.855h.002c3.448 8.007 12.737 11.705 20.744 8.262l75.909-32.686-39.034 10.387c-17.605 4.688-35.665-5.802-40.36-23.39z"/></svg>