<svg xmlns="http://www.w3.org/2000/svg" viewBox="0 0 512 512"><path d="M119.436 36c-16.126 0-29.2 17.237-29.2 38.5v363c0 21.263 13.074 38.5 29.2 38.5h275.298c16.126 0 29.198-17.237 29.198-38.5v-363c0-21.263-13.072-38.5-29.198-38.5zm26.884 3.717 47.393 58.27-47.393 58.286-47.375-58.287zm103.395 136.816q14.859.001 25.795 5.113 11.055 5.112 16.76 13.909 5.825 8.795 5.826 18.424 0 22.346-28.174 37.207 19.02 6.894 27.459 18.068 8.44 11.055 8.441 26.746.001 19.139-12.244 33.404-15.81 18.425-45.053 18.424-25.795 0-40.773-12.361-14.978-12.482-14.979-31.026 0-13.908 8.559-24.25 8.678-10.46 29.838-17.712-31.263-13.433-31.264-41.487 0-18.187 14.028-31.263 14.147-13.196 35.78-13.196zm-.834 8.203q-15.572 0-24.248 7.608-8.678 7.49-8.678 19.615 0 12.005 7.488 19.137 7.609 7.133 37.327 17 12.479-7.132 16.76-14.028 4.278-7.013 4.279-18.306 0-14.859-8.44-22.942t-24.488-8.084zm-8.795 81.07q-16.88 7.134-23.418 16.05-6.54 8.915-6.54 21.87 0 16.882 9.868 26.272 9.986 9.272 28.649 9.272 19.733 0 30.667-9.272 10.937-9.39 10.938-24.725 0-13.91-9.51-21.04-9.39-7.134-40.654-18.426zm125.576 86.717 47.393 58.27-47.393 58.287-47.375-58.287z"/></svg>