<svg xmlns="http://www.w3.org/2000/svg" viewBox="0 0 512 512"><path d="M119.436 36c-16.126 0-29.2 17.237-29.2 38.5v363c0 21.263 13.074 38.5 29.2 38.5h275.298c16.126 0 29.198-17.237 29.198-38.5v-363c0-21.263-13.072-38.5-29.198-38.5zm26.884 3.717 47.393 58.27-47.393 58.286-47.375-58.287zm14.715 128.972h80.358v8.916h-17.118q-5.467 0-8.44 2.852-2.971 2.853-2.972 7.252v81.664l66.213-70.728q5.705-6.181 5.705-11.649 0-4.16-3.924-6.775t-12.837-2.616h-4.874v-8.916h72.155v8.916h-5.586q-7.252 0-15.93 4.28-8.677 4.28-16.047 11.886l-40.773 42.438 58.367 86.062q4.874 7.252 10.104 10.342 5.23 2.972 12.363 2.973h6.418v8.914H264.93v-8.914h9.033q9.866 0 13.076-1.664 3.329-1.664 3.328-4.16 0-2.259-1.426-4.518l-48.5-71.324-27.578 29.6v43.27q0 4.039 2.377 5.942 3.806 2.853 9.035 2.854h17.118v8.914h-80.358v-8.914h15.453q5.944 0 8.797-2.377 2.854-2.497 2.854-6.42V186.4q-.001-4.16-3.211-6.418-3.21-2.377-10.817-2.377h-13.076zm204.627 183.834 47.393 58.27-47.393 58.287-47.375-58.287z"/></svg>