<svg xmlns="http://www.w3.org/2000/svg" viewBox="0 0 512 512"><path d="M119.436 36c-16.126 0-29.2 17.237-29.2 38.5v363c0 21.263 13.074 38.5 29.2 38.5h275.298c16.126 0 29.198-17.237 29.198-38.5v-363c0-21.263-13.072-38.5-29.198-38.5zm26.654 8.047s46.335 33.838 47.27 63.068c.774 24.287-25.025 32.12-40.776 18.584l13.633 32.653h-40.115l13.613-32.633c-15.535 13.88-40.006 5.347-40.758-18.606-.88-28.01 47.133-63.066 47.133-63.066zm81.142 124.642h77.743v8.916H293.92q-6.54 0-9.39 2.377-2.736 2.377-2.735 6.895v113.998q0 13.195-6.418 23.893-6.42 10.58-18.783 16.88-12.362 6.182-27.934 6.182-21.16 0-34.592-12.363-13.433-12.481-13.433-30.432 0-13.314 6.775-21.277 6.776-7.965 16.643-7.965 8.084 0 13.314 5.23 5.23 5.112 5.23 13.077 0 6.894-4.279 11.648-4.28 4.636-9.867 4.637-2.139 0-5.943-1.19-3.209-.95-4.28-.95-2.02 0-3.208 1.665-1.309 1.664-1.31 4.992 0 8.916 8.917 16.286 9.033 7.251 22.11 7.251 14.857-.002 23.417-10.224 8.559-10.341 8.559-28.766V186.877q0-4.635-3.21-6.895-3.09-2.377-10.698-2.377h-15.573zm118.55 184.961h40.114l-13.634 32.65c15.75-13.535 41.551-5.7 40.775 18.587-.933 29.23-47.271 63.066-47.271 63.066s-48.01-35.057-47.131-63.066c.75-23.953 25.222-32.487 40.758-18.606z"/></svg>