<svg xmlns="http://www.w3.org/2000/svg" viewBox="0 0 512 512"><path d="M119.436 36c-16.126 0-29.2 17.237-29.2 38.5v363c0 21.263 13.074 38.5 29.2 38.5h275.298c16.126 0 29.198-17.237 29.198-38.5v-363c0-21.263-13.072-38.5-29.198-38.5zm26.652 8.047s46.338 33.838 47.271 63.068c.776 24.287-25.024 32.122-40.775 18.586l13.633 32.653H126.1l13.613-32.635c-15.535 13.88-40.004 5.35-40.756-18.604-.88-28.01 47.13-63.068 47.13-63.068zm112.644 132.488q17.357 0 29.48 9.51 10.106 7.726 10.106 18.545 0 7.25-4.517 11.887-4.4 4.635-10.819 4.634-5.944.001-10.222-3.922-4.16-3.922-4.16-9.271 0-3.567 2.853-8.084 2.615-4.16 2.615-6.537-.002-3.33-3.21-5.469c-2.855-1.823-6.775-2.734-11.768-2.734q-11.53 0-21.041 7.252-9.51 7.251-16.166 24.963-6.538 17.592-6.537 39.584-.001 3.21.355 9.628 9.273-12.362 19.496-17.712t22.467-5.348q19.732 0 33.045 13.432 13.433 13.312 13.434 33.76 0 24.606-15.811 40.892-15.81 16.285-39.11 16.285-16.403 0-29.242-8.678-12.836-8.796-21.039-27.34-8.084-18.542-8.084-43.269 0-26.746 9.985-48.5t25.44-32.572q15.57-10.936 32.45-10.936zm-7.607 78.574q-14.86 0-24.37 10.819-9.39 10.698-9.39 30.193 0 21.159 9.155 32.332 9.153 11.174 23.298 11.174 14.028 0 22.586-10.578 8.559-10.58 8.559-31.621 0-22.348-7.965-32.332-7.846-9.986-21.873-9.987zm94.652 98.54h40.118L372.262 386.3c15.75-13.536 41.551-5.701 40.775 18.586-.933 29.23-47.271 63.066-47.271 63.066s-48.012-35.057-47.133-63.066c.75-23.953 25.222-32.487 40.758-18.606z"/></svg>