<svg xmlns="http://www.w3.org/2000/svg" viewBox="0 0 512 512"><path d="M119.434 36c-16.126 0-29.198 17.237-29.198 38.5v363c0 21.263 13.072 38.5 29.198 38.5h275.3c16.126 0 29.198-17.237 29.198-38.5v-363c0-21.263-13.072-38.5-29.198-38.5zm26.832 8.408v.002h.017c13.587.01 24.442 10.853 24.442 24.442 0 5.71-2.005 10.997-5.268 15.173 1.12-.158 2.233-.31 3.397-.31 13.593 0 24.457 11.157 24.457 24.752s-10.864 24.752-24.457 24.752c-5.76 0-11.08-2.048-15.295-5.422l12.609 30.193h-40.117l12.42-29.744c-4.12 3.115-9.233 4.973-14.776 4.973-13.594 0-24.75-11.16-24.75-24.754s11.156-24.752 24.75-24.752c1.06 0 2.06.184 3.084.312-3.215-4.16-5.25-9.51-5.25-15.173 0-13.59 11.15-24.434 24.737-24.444zm57.668 132.246q11.65 2.973 25.2 2.973h73.938v5.467q-16.285 28.648-24.369 48.5-8.083 19.733-12.244 37.8-4.16 18.07-5.467 42.083-1.188 19.85-2.26 24.605-1.07 4.636-4.398 7.133-3.209 2.615-8.44 2.615-5.943 0-9.27-4.04-3.33-4.043-3.33-12.722.001-7.726 2.735-19.255 2.734-11.65 12.48-34.711 12.959-30.908 22.468-48.62l16.404-30.193h-64.428q-7.132 0-10.7 4.992-3.444 4.994-8.32 29.838h-8.558zm141.86 177.36h40.118l-12.611 30.191c4.215-3.374 9.533-5.42 15.293-5.42 13.594 0 24.459 11.158 24.459 24.752 0 13.595-10.864 24.752-24.46 24.752-1.162 0-2.273-.154-3.394-.312 3.263 4.176 5.266 9.464 5.266 15.175 0 13.59-10.855 24.43-24.442 24.44h-.017c-13.587-.011-24.733-10.852-24.733-24.44 0-5.665 2.03-11.015 5.247-15.175-1.024.128-2.024.312-3.082.312-13.595 0-24.752-11.157-24.752-24.752s11.157-24.752 24.752-24.752c5.541 0 10.653 1.857 14.773 4.97z"/></svg>