<svg xmlns="http://www.w3.org/2000/svg" viewBox="0 0 512 512"><path d="M119.436 36c-16.126 0-29.2 17.237-29.2 38.5v363.002c0 21.263 13.074 38.498 29.2 38.498h275.298c16.126 0 29.198-17.235 29.198-38.498V74.5c0-21.263-13.072-38.5-29.198-38.5zm57.214 16.174c13.613-.32 26.504 9.856 27.075 28.045.976 31.09-47.739 52.943-52.31 70.013-4.999-18.649-51.416-37.571-52.452-70.013-.995-31.156 37.403-37.91 52.451-11.848 6.262-10.846 15.925-15.978 25.238-16.195zm69.973 124.361q24.606.001 41.01 20.447t16.404 57.414q0 30.669-9.152 51.829-9.034 21.04-24.012 31.382-14.978 10.223-33.76 10.223-18.187 0-28.529-7.965-10.223-8.082-10.223-19.256 0-7.37 4.16-11.888 4.279-4.517 10.698-4.516 5.825 0 9.867 3.922 4.04 3.923 4.04 9.39.001 3.924-3.683 8.678-2.259 2.972-2.26 5.112.001 3.328 3.924 5.824 3.923 2.378 12.6 2.379 12.363 0 21.754-6.776 9.39-6.894 15.215-22.466 5.825-15.692 5.826-40.538l-.238-10.578q-7.727 11.65-18.069 17.592-10.34 5.825-23.18 5.826-17.831 0-32.452-12.482-14.504-12.482-14.502-36.733 0-23.655 16.046-40.177 16.167-16.643 38.516-16.643zm.356 8.559q-13.313 0-21.872 11.174-8.558 11.055-8.558 33.404 0 20.445 8.558 30.549 8.559 9.985 22.348 9.986 13.67 0 22.941-10.818 9.392-10.818 9.393-30.313 0-20.207-9.748-32.094-9.63-11.887-23.062-11.888zm113.75 176.676c4.572 17.07 53.287 38.925 52.31 70.015-.57 18.188-13.46 28.36-27.072 28.043h-.002c-9.313-.218-18.975-5.35-25.236-16.195-15.048 26.06-53.444 19.307-52.45-11.848 1.037-32.442 47.452-51.366 52.45-70.015z"/></svg>