<svg xmlns="http://www.w3.org/2000/svg" viewBox="0 0 512 512"><path d="M260.252 29.83q-1.76-.014-3.516.018c-15.608.282-30.969 3.33-44.71 10.203-29.86 14.93-47.942 38.91-53.255 61.996-4.703 20.442-.065 39.793 15.7 54.012 44.847-57.15 108.49-91.397 155.474-109.647-13.033-6.054-28.598-11.458-45.142-14.31-8.09-1.396-16.341-2.205-24.55-2.272zm95.853 26.29-1.26.42a384 384 0 0 0-15.868 5.694l33.955 28.65c-5.9-12.805-12.63-26.41-16.827-34.765zm-41.982 16.568a420 420 0 0 0-19.111 9.373l26.267 21.927zm20.65 9.554 8.018 35.078q11.807-4.112 23.586-8.414zm-63.11 13.002a369 369 0 0 0-23.352 15.48l28.052 16.176zm19.208 6.807 4.567 30.748c7.82-2.373 15.625-4.84 23.416-7.39l-27.981-23.356zm87.527 21.508c-60.87 22.443-122.75 41.984-187.195 51.957 11.394 13.965 29.038 23.109 49.477 27.609 25.326 5.58 54.22 3.756 76.474-3.662 22.008-7.335 40.554-22.245 51.36-38.453 8.73-13.097 12.102-26.364 9.884-37.45zm-139.275 2.648-4.018 22.691a810 810 0 0 0 30.346-7.51l-26.326-15.181zm-19.668 7.848c-7.66 6.975-15.052 14.41-22.021 22.35a677 677 0 0 0 18.673-3.448zm-39.035 56.703c-2.14 5.79-4.03 11.733-5.47 17.726-2.923 12.143-4.648 24.74.17 37.76 6.584 17.802 22.853 28.142 37.896 31.912s30.212 3.442 44.191 3.444c13.98 0 26.77.374 34.5 2.472 7.153 1.942 8.951 2.96 10.611 7.922-.072.134-.01-.038-.173.266-.903 1.663-3.53 5.016-7.598 8.676-5.883 5.29-14.55 11.262-24.162 17.035-24.288.58-30.507-5.796-41.121-14.108l-11.096 14.17c6.312 4.943 14 10.76 25.473 14.406a585 585 0 0 1-22.627 10.559h77.357c7.303-4.77 14.19-9.849 20.246-15.299 5.977-5.374 11.27-11.086 15.17-18.275 3.9-7.19 6.306-16.95 3.479-26.524-5.36-18.145-21.255-29.536-36.125-33.572s-29.893-3.728-43.93-3.73c-14.035 0-27.08-.267-35.443-2.364-8.365-2.096-10.693-3.553-12.885-9.478-.578-1.563-1-8.26 1.066-16.852.355-1.478.783-3.02 1.24-4.582-11.665-5.26-22.247-12.365-30.77-21.564zm156.959 40.205v.002a28 28 0 0 0-1.938.055c-6.265.39-12.134 2.446-17.613 5.335 6.668 3.108 13.134 7.305 18.84 12.64 1.62.001 9.167 2.678 15.008 6.349 5.937 3.73 10.566 7.574 10.566 7.574l11.52-13.832s-5.42-4.53-12.508-8.982c-6.644-4.176-14.322-9.081-23.875-9.141zm-237.04 33.152-8.677 15.772s11.362 6.266 25.514 11.523c14.15 5.257 30.978 10.821 46.07 4.986 7.326-2.833 12.883-8.032 17.408-14.046-4.894-3.69-9.435-8.087-13.338-13.248-4.013 5.412-8.068 9.54-10.56 10.503-5.42 2.096-20.59-.342-33.31-5.068-12.723-4.725-23.106-10.422-23.106-10.422zM137 361v30h238v-30zm33.623 48 13.002 78h144.75l13.002-78z"/></svg>