<svg xmlns="http://www.w3.org/2000/svg" viewBox="0 0 512 512"><path d="M253.75 18.72C150.05 19.84 55.67 89.402 27.5 194.53-6.415 321.104 68.582 451.021 195.156 484.94c126.574 33.914 256.49-41.083 290.407-167.657C519.477 190.708 444.48 60.791 317.905 26.877c-19.777-5.3-39.657-7.957-59.22-8.156-1.65-.018-3.29-.02-4.936 0zm2.313 53.81a182 182 0 0 1 38.843 4.032c1.034.222 2.06.48 3.094.72.488.114.98.223 1.47.343q.763.184 1.53.375c1.004.255 1.994.511 3 .78 3.028.811 6.019 1.674 8.97 2.626 41.44 13.382 75.138 40.528 97.374 74.907.1.157.21.31.312.468.742 1.153 1.473 2.33 2.188 3.5a185 185 0 0 1 4.53 7.844c.593 1.09 1.176 2.18 1.75 3.28.106.206.206.42.313.626.08.16.17.313.25.47 18.66 36.454 25.319 79.192 16.186 121.78-.323 1.508-.7 3.026-1.062 4.533a218 218 0 0 1-1.157 4.563 184 184 0 0 1-2.625 8.969c-13.38 41.44-40.525 75.139-74.904 97.375-.157.1-.31.208-.47.308-1.154.743-2.33 1.476-3.5 2.192a190 190 0 0 1-11.124 6.279c-.205.107-.418.205-.625.313-.157.08-.308.17-.469.25-36.451 18.66-79.19 25.32-121.78 16.187a156 156 0 0 1-4.53-1.062c-.01-.002-.021.002-.031 0-1.516-.37-3.018-.75-4.532-1.157-3.03-.81-6.018-1.67-8.968-2.625-41.49-13.398-75.108-40.577-97.221-75-.068-.107-.15-.203-.219-.31-.773-1.21-1.505-2.43-2.25-3.657-.015-.025-.045-.04-.06-.062-.34-.56-.666-1.125-1-1.69a180 180 0 0 1-3.375-5.935c-.7-1.287-1.396-2.57-2.065-3.875-.113-.22-.232-.436-.344-.656-18.463-36.382-24.94-79.036-15.812-121.533.324-1.506.692-3.027 1.063-4.532.001-.01-.004-.021 0-.031.37-1.516.75-3.016 1.156-4.53a158 158 0 0 1 1.029-3.69c.08-.273.17-.54.25-.81.437-1.472.877-2.952 1.346-4.407.007-.022.023-.04.029-.063 13.345-41.36 40.262-75.04 74.44-97.312a183 183 0 0 1 3.875-2.47l.06-.029a176 176 0 0 1 3-1.814c.342-.202.69-.394 1.031-.594q1.03-.601 2.065-1.187c.485-.275.978-.545 1.469-.815.23-.13.452-.278.685-.406a179 179 0 0 1 3.97-2.094c23.325-12.032 49.246-19.108 76.095-20.218 2.247-.09 4.49-.148 6.75-.157zm33.968 22.158-25.75 96.187a65.7 65.7 0 0 1 18.064 4.844l25.78-96.221a167 167 0 0 0-8.969-2.687c-3.038-.814-6.083-1.49-9.125-2.124zM182.5 109a165 165 0 0 0-16.156 9.406l49.72 86.094a66.3 66.3 0 0 1 16.186-9.344zm211.719 56.596-86.248 49.81a66.4 66.4 0 0 1 9.373 16.188l86.25-49.813a166 166 0 0 0-9.375-16.185zm-293.531 38.873-.002.002a167 167 0 0 0-2.688 8.966c-.81 3.025-1.52 6.066-2.154 9.094l95.685 25.625a66 66 0 0 1 1.75-9.185 66 66 0 0 1 3.096-8.877zM255.25 209c-20.188.584-38.552 14.304-44.03 34.75-6.68 24.925 8.23 50.79 33.155 57.47 24.925 6.678 50.79-8.233 57.47-33.158 6.678-24.923-8.233-50.79-33.158-57.468a46.8 46.8 0 0 0-9.375-1.53 46 46 0 0 0-4.062-.064zm1.688 18.623v.002c.408.008.807.036 1.218.063 1.88.117 3.792.43 5.688.937 15.17 4.065 24.033 19.424 19.97 34.594-4.066 15.17-19.425 24.032-34.595 19.967-15.17-4.064-24.036-19.422-19.97-34.592 3.445-12.86 15.01-21.207 27.689-20.97zm64.656 36.031a65.4 65.4 0 0 1-1.75 9.221c-.822 3.066-1.877 6.006-3.094 8.844l96.188 25.779a166 166 0 0 0 2.687-8.969c.81-3.025 1.524-6.062 2.156-9.091l-96.185-25.784zm-125.815 16.567-86.091 49.685a165 165 0 0 0 9.28 16.221l86.126-49.72a66.3 66.3 0 0 1-9.315-16.186zm101.252 27.152-.002.002a66.4 66.4 0 0 1-16.185 9.344l49.812 86.25c5.566-2.81 10.943-5.96 16.156-9.375zm-66.31 8.752-25.784 96.188c2.947.97 5.934 1.874 8.97 2.687 3.025.81 6.064 1.524 9.093 2.156l25.78-96.187a66 66 0 0 1-9.186-1.75 65.4 65.4 0 0 1-8.873-3.094z"/></svg>