<svg xmlns="http://www.w3.org/2000/svg" viewBox="0 0 512 512"><path d="m197.746 30.38-9.898 30.905-40.485 18.194-28.79 28.054 30.855 35.514 47.486-4.598 36.06 8.352 30.83-33.522-4.263-56.699zM25.902 133.32c-13.472 25.957-6.665 67.412 30.356 96.746 37.04 29.35 78.807 26.396 100.855 7.223zm359.174 68.99-34.152 11.38 7.217 21.65-227.6 147.94c12.527 4.354 23.417 12.25 31.467 22.484L369.904 270.63l36.303 108.912c16.727.414 31.994 6.866 43.7 17.264zm-213.592 46.36c-9.358 9.058-21.296 15.425-34.656 18.715l63.496 49.064 31.977-20.78-60.817-46.995zm121.176 93.64-31.976 20.784L317.504 407h32.183a69.3 69.3 0 0 1 11.336-11.865zM108.166 397.5a50.364 50.364 0 0 0-50.5 50.5 50.364 50.364 0 0 0 50.5 50.5 50.364 50.364 0 0 0 50.5-50.5 50.364 50.364 0 0 0-50.5-50.5zm296.334 0A50.364 50.364 0 0 0 354 448a50.364 50.364 0 0 0 50.5 50.5A50.364 50.364 0 0 0 455 448a50.364 50.364 0 0 0-50.5-50.5zM25 425v46h18.66a68 68 0 0 1-3.994-23 68 68 0 0 1 3.994-23zm147.672 0a68 68 0 0 1 3.994 23 68 68 0 0 1-3.994 23h167.322A68 68 0 0 1 336 448a68 68 0 0 1 3.994-23zm296.334 0A68 68 0 0 1 473 448a68 68 0 0 1-3.994 23H487v-46zm-360.84 3.166A19.833 19.833 0 0 1 128 448a19.833 19.833 0 0 1-19.834 19.834A19.833 19.833 0 0 1 88.334 448a19.833 19.833 0 0 1 19.832-19.834zm296.334 0A19.833 19.833 0 0 1 424.334 448a19.833 19.833 0 0 1-19.834 19.834A19.833 19.833 0 0 1 384.666 448a19.833 19.833 0 0 1 19.834-19.834z"/></svg>