<svg xmlns="http://www.w3.org/2000/svg" viewBox="0 0 512 512"><path d="m36.98 18 350.006 400.08c10.916 10.836 45.479-17.1 35.516-28.521L96.311 18zm237.872 75.049c-3.528-.018-7.08.44-10.688 1.293-4.523 1.09-6.393 3.412-7.072 7.992a14056 14056 0 0 1-9.748 65.395l29.472 33.843c1.52-10.236 3.04-20.474 4.52-30.605 3.43-22.962 6.842-45.947 10.334-68.867.483-3.197.195-5.09-3.256-6.454-4.53-1.765-9.026-2.574-13.562-2.597zm77.888 12.672c-1.442-.052-3.548 1.02-4.234 2.265-13.995 24.056-27.871 48.222-41.711 72.377-5.923 10.29-11.93 20.508-18.008 30.992l89.502 102.866c31.152-15.378 62.322-30.763 93.373-46.28 1.577-.796 3.121-3.293 3.254-5.127.7-9.277-2.2-17.538-8.008-24.775-1.954-2.473-3.744-3.432-7.094-1.834-18.946 9.378-38.05 18.465-57.138 27.625a12909 12909 0 0 0-39.04 18.908 3146 3146 0 0 0-10.433-15.129 261 261 0 0 0 3.256-3.136c28.947-27.247 57.84-54.56 86.805-81.748 2.61-2.382 3.176-4.47 2.006-7.664-2.825-7.68-7.445-13.744-14.407-18.303-3.88-2.55-6.276-2.226-9.648 1.031-12.75 12.205-25.803 24.114-38.752 36.121-17.15 15.944-34.304 31.91-51.576 47.74-1.133 1.128-3.92 2.14-4.774 1.52-4.408-3.04-8.485-6.69-12.633-10.121 9.77-16.682 19.242-32.9 28.772-49.115 11.56-19.79 23.139-39.55 34.5-59.473.86-1.48 1.114-4.37.176-5.654-5.79-8.301-13.937-12.907-24.19-13.084zm-210.93 94.494c-6.05.006-11.887 2.65-17.665 7.982 1.095 1.384 2.263 2.752 3.355 4.155 12.784 16.33 25.769 32.55 38.342 49.097 15.007 19.828 29.06 40.47 44.752 59.766 11.073 13.548 23.802 26.138 44.095 23.818a2753 2753 0 0 1 3.215 17.996c-24.303 3.428-41.3-8.792-57.343-24.638-1.017 2.67-1.6 4.52-2.42 6.312-7.72 16.98-14.815 34.268-23.315 50.818-8.869 17.258-47.666 68.734-71.535 98.479h177.12c.841-12.673 1.755-26.345 3.009-36.84 3.179-27.273 7.777-54.274 19.205-79.553 3.273-7.29 7.58-13.722 12.936-19.158L220.17 248.801c-.062.506-.1.993-.14 1.478-.075.86-1.07 2.148-1.811 2.323-5.358.974-10.956 2.884-16.022 2.048-2.96-.489-5.069-5.636-7.547-8.714-1.15-1.406-2.18-2.865-3.31-4.27-10.1-12.61-19.514-25.868-32.92-35.342-5.77-4.065-11.271-6.113-16.61-6.11z"/></svg>