<svg xmlns="http://www.w3.org/2000/svg" viewBox="0 0 512 512"><path d="m140.89 17.998-.001.002c-1.246 4.476-1.79 9.165-1.334 14.018.818 8.717 4.72 18.385 15.289 29.267q.481.495.926 1.01l.193-.113c.255.437.532.888.793 1.33a25.5 25.5 0 0 1 2.74 4.508c5.69 9.12 12.674 18.614 21.805 25.728 11.105 8.652 25.033 14.21 45.924 11.79l2.07 17.882c-25.174 2.916-44.856-4.41-59.057-15.473-4.365-3.4-8.24-7.116-11.707-10.955-3.803 10.373-8.873 20.163-9.627 24.29-2.652 14.53-9.086 27.746-13.47 39.945s-6.614 22.717-3.668 32.267c4.606 14.934 14.197 28.927 26.466 40.906 9.46-14.322 24.7-23.213 40.327-26.728a70.3 70.3 0 0 1 12.548-1.676c11.136-.452 22.083 1.948 31.04 7.988 14.713 2.962 28.41 3.4 41.11 1.766 17.47-3.79 30.232-8.383 40.212-13.375 9.084-5.11 12.157-7.887 19.761-15.072l11.311 14.486c-5.327 5.032-4.731 4.77-10.814 8.98 6.572 8.778 10.042 19.63 11.359 30.987.504 4.332.71 8.777.68 13.295 5.377-.733 10.592-1.36 15.052-2.38 7.49-1.713 11.58-3.945 13.387-7.747 3.456-7.267 3.062-14.07.01-22.61-3.052-8.538-9.049-18.164-15.762-28.248-13.425-20.167-30.776-42.58-26.73-68.818 1.815-11.767 10.354-18.66 16.681-24.264 6.328-5.602 10.496-10 11.17-13.714.68-3.745-1.33-6.83-4.736-13.61a40 40 0 0 1-1.795-4.146 53.6 53.6 0 0 1-15.38 6.826c-13.729 3.666-28.27 2.59-41.811-.22-13.54-2.813-26.149-7.455-35.948-11.727s-15.97-7.58-19.377-9.938l10.246-14.8c.2.137 7.357 4.326 16.329 8.238 8.97 3.912 20.578 8.146 32.41 10.603s23.82 3.04 33.508.453c9.562-2.554 16.974-7.553 22.328-18.248 2.03-6.903.398-14.886-3.094-22.703zM30.868 18c12.65 11.06 31.3 26.2 44.985 32.2 17.032 7.47 38.4 1.286 54.988 9.59-5.477-8.778-8.41-17.61-9.207-26.09-.515-5.484-.15-10.734.805-15.7zm350.696.002c3.489 10.68 4.347 22.589-1.428 34.082-3.22 6.41-1.924 8.107.783 13.494 1.664 3.31 4.447 7.73 5.879 13.242 8.43-7.886 31.92-28.96 48.271-34.545 11.597-3.96 26.696 6.013 36.75-.994 6.514-7.855 6.168-16.654 10.684-25.279zM283.06 133.574c10.816.026 22.857 3.918 33.095 7.557s18.332 7.28 18.332 7.28l-7.38 16.417s-7.487-3.36-16.98-6.734-21.332-6.506-27.11-6.52c-8.447-.02-24.147 4.165-36.834 8.606s-22.704 8.882-22.704 8.882l-7.3-16.453s10.622-4.715 24.056-9.418 29.34-9.649 42.825-9.617zM118.188 208.62c-9.852 38.733 2.808 83.296 19.833 120.96 6.99-22.216 8.134-50.083 17.473-69.917q-.109-1.664-.18-3.35c-15.91-13.016-29.21-29.15-37.126-47.693zm209.779 11.47c-8.96 4.17-19.533 7.939-32.35 11.175 20.208 38.092 21.472 71.305 23.623 103.172 5.584-14.437 11.1-31.037 14.617-47.545 3.29-15.437 4.793-30.626 3.35-43.06-1.172-10.1-4.202-17.947-9.238-23.74zm-113.934 3.944.004.002a46 46 0 0 0-2.357.018c-2.995.098-6.08.483-9.172 1.18-11.658 2.621-22.74 9.42-29.197 19.134-1.078 31.31 7.394 55.407 20.982 80.217 7.8 14.24 17.38 28.778 27.523 44.479-8.355-58.696-7.032-103.983 6.873-141.944-4.166-1.893-9.21-2.983-14.656-3.086zm31.668 8.852c-4.467 12.118-7.57 25.227-9.351 39.646 17.637 1.544 36.295-.584 55.267-4.111-3.334-10.953-8.054-22.241-14.888-34.121-9.927.655-20.282.236-31.026-1.412zm155.623 17.808a42 42 0 0 1-.86 1.96c-5.165 10.861-15.987 15.36-25.63 17.566-6.32 1.445-12.622 2.185-18.2 2.941 11.613 18.383 11.028 43.546 9.985 70.98 31.541-36.216 41.67-65.672 34.705-93.447zM278.596 289.12c-5.986.832-11.993 1.465-18.002 1.83 4.76 32.818 13.655 69.714 12.058 101.799-1.38 22.25-11.16 57.129-20.697 85.732a933 933 0 0 1-5.34 15.52h19.074c1.1-3.185 2.216-6.454 3.34-9.828 9.73-29.186 19.965-64.19 21.586-90.31.043-36.723-5.453-72.72-12.02-104.743zm-108.42 76.629s-16.99 38.27-10.7 56.09c1.55 4.398 6.118 8.588 10.518 8.488 4.957-.112 9.903-5.077 11.527-10.092 5.71-17.614-11.343-54.486-11.343-54.486zm147.111 44.607.002.002v-.002zm.002.002c-.002.006-21.92 49.688-12.643 72.338 2.29 5.59 8.714 10.814 14.749 10.535 6.8-.313 13.406-6.853 15.453-13.343 7.19-22.797-17.555-69.522-17.559-69.53z"/></svg>