<svg xmlns="http://www.w3.org/2000/svg" viewBox="0 0 512 512"><path d="m257.08 11.29-9.232 1.437-62.868 9.765 3.586 23.08a221 221 0 0 0-37.416 16.303l-14.51-18.03-7.28 5.86-49.56 39.89 14.163 17.594a217.6 217.6 0 0 0-24.572 33.112l-20.782-8.047-3.373 8.715-22.976 59.326 20.26 7.846a217.5 217.5 0 0 0-4.805 41.468l-21.02 3.268 11.2 72.1 20.634-3.206a221 221 0 0 0 16.74 38.473l-16.165 13.014 45.75 56.84 15.859-12.766a217.6 217.6 0 0 0 34.182 25.106l-7.27 18.773 68.043 26.346 7.266-18.76a217.7 217.7 0 0 0 42.074 4.482l3.113 20.05 72.102-11.2-3.168-20.387a221 221 0 0 0 38.431-17.205l13.077 16.24 56.84-45.746-13.315-16.543a217.6 217.6 0 0 0 24.392-33.906l20.112 7.787 26.35-68.039-20.631-7.986a217.5 217.5 0 0 0 4.132-41.051l22.291-3.463-1.433-9.232-9.766-62.868-22.85 3.551a221 221 0 0 0-16.746-37.379l18.104-14.57-5.861-7.28-39.889-49.56-18.281 14.715a217.6 217.6 0 0 0-32.834-23.867l8.56-22.111-8.713-3.375L309.7 16.88 301.137 39a217.6 217.6 0 0 0-39.951-4.45l-.495-.005-3.609-23.252zm-15.598 21.337 3.108 20.008-35.164 5.463-3.11-20.006zm78.895 8.43h.002l33.183 12.85-7.31 18.882-33.186-12.853zM263.6 53.27c10.2.34 20.456 1.458 30.687 3.406l-5.4 13.94 68.043 26.35 5.4-13.952a199.4 199.4 0 0 1 24.91 18.08l-11.842 9.53 45.75 56.84 12.098-9.735a201.5 201.5 0 0 1 12.787 28.45l-15.441 2.397 11.199 72.102 15.98-2.485a199 199 0 0 1-3.173 31.291L439.2 283.52l-3.373 8.714-22.976 59.327 15.974 6.187a200 200 0 0 1-18.633 25.97l-10.925-13.573-7.278 5.859-49.56 39.89 11.24 13.963a202 202 0 0 1-29.514 13.24l-2.779-17.908-9.236 1.434-62.866 9.766 2.829 18.203a199.4 199.4 0 0 1-32.329-3.47l6.7-17.302-8.713-3.375-59.326-22.972-6.696 17.289a199.4 199.4 0 0 1-26.3-19.285l14.302-11.512-5.86-7.281-39.888-49.561-14.02 11.285a201.5 201.5 0 0 1-12.826-29.53l17.688-2.75-1.436-9.232-9.765-62.867-17.182 2.67a199.4 199.4 0 0 1 3.715-31.722l15.826 6.128 26.35-68.04-15.258-5.91a199.4 199.4 0 0 1 18.727-25.24l10.117 12.57 56.84-45.75-9.778-12.147A201.6 201.6 0 0 1 191.457 64.2l2.365 15.235 72.102-11.204-2.324-14.959zM133.8 70.12v.002l12.694 15.773-27.723 22.311-12.695-15.77zm283.653 30.652 22.313 27.721-15.774 12.695-22.312-27.718zm-84.246 41.998a71 71 0 0 0-5.758.188c-23.033 1.7-45.934 15.003-61.29 44.006l-7.905 14.933-8.445-14.636c-20.227-35.054-56.501-47.825-87.094-41.81-30.592 6.011-55.328 29.384-53.947 72.85 1.278 40.24 29.05 67.447 63.59 97.54 30.044 26.176 64.672 53.784 85.763 93.478 22.093-39.507 57.856-65.95 88.133-91.453 17.386-14.644 33.016-28.982 43.86-44.736 10.845-15.755 17.13-32.66 16.456-54.242-1.262-40.46-26.58-66.478-56.316-73.916a73 73 0 0 0-17.045-2.202zM59.285 156.434l18.881 7.308-12.85 33.188-18.88-7.31zm412.65 44.634 5.463 35.164-20.01 3.112-5.46-35.164zm-413.9 64.301 5.467 35.164-20.008 3.11-5.465-35.164zm391.848 42.33 18.879 7.313-12.85 33.183-18.88-7.31zM91.156 363.4l22.313 27.723-15.776 12.695-22.31-27.722zm305.274 33.02 12.695 15.77-27.723 22.316-12.695-15.774zm-227.315 35.23 33.186 12.852-7.31 18.88-33.184-12.85zm136.662 14.873 3.11 20.01-35.164 5.463-3.11-20.008z"/></svg>