<svg xmlns="http://www.w3.org/2000/svg" viewBox="0 0 512 512"><path d="M174.688 61.094 144.125 78.75 43.529 136.813l-10.123 5.843-10.718 6.188-5.47 3.156 65.407 113.375 2.03-1.156 4.97-2.875 9.188-5.315V256l55.875-32.437-8.625 195.937-.157 3.22-1.125 24.03h222.125l-.125-2.687-.308-7.344-.784-17.221-8.593-195.53 55.22 32.061-.033.034 13.283 7.656.842.5 2.065 1.185L493.873 152l-5.469-3.156-10.716-6.188-94.44-54.5-16.28-9.406-22.407-12.937-8.157-4.688c-11.456 23.492-43.573 40.594-81.156 40.594-37.564 0-69.074-17.104-80.53-40.596zm-17.315 31.562h.002c38.33 35.412 91.102 46.482 137.03 34.563l-7.717 14.25 13.125 24.25 13.125-24.25-9.22-17.031c18.97-6.366 36.472-16.806 50.876-31.25l113.75 65.656-46.721 81L392 222.624l12.156-22.468-13.125-24.25-13.125 24.25L389.186 221l-19.309-11.22-33.565-19.874.5 8.5-12.937-23.906-13.156 24.25L323.873 223l12.97-23.97 1.468 24.626h.033l2.185 49.406-10.654-19.656-13.125 24.25L326.688 296h-60.22l9-16.625-13.124-24.25-13.125 24.25 9 16.625h-88l3.404-77.25h-.03l1.155-28.875-33.53 19.875-51.75 30.063-46.72-80.97zm4.565 16.78-13.125 24.25 13.125 24.25 13.125-24.25zm270.093 39.626-13.125 24.25 13.125 24.25 13.127-24.25-13.125-24.25zm-303.341 17.66-13.125 24.25 13.125 24.25 13.125-24.25zm113.844 38.185-13.125 24.25 13.125 24.25 13.127-24.25-13.125-24.25zm55.875 19.813-13.125 24.25 13.127 24.25 13.125-24.25-13.125-24.25zm-99.719 9.185-13.125 24.25 13.125 24.25 13.159-24.25-13.157-24.25zm142.22 47.63.624 14.466h-8.467zM169.47 312.97l.002.002H342.28l.877 19.966H168.594zm-1.625 36.937H207l-10.844 19.971 13.156 24.25 13.125-24.25-10.812-19.97h120.563l-11.563 21.374 13.125 24.25L345 374.75l1.97 44.75h-53.44l8.095-14.97-13.125-24.25-13.125 24.25 8.094 14.97h-118.69zm167.469 0h8.593l.75 17.28z"/></svg>