<svg xmlns="http://www.w3.org/2000/svg" viewBox="0 0 512 512"><path d="M48.906 19.658v10.78c0 103.172 10.53 206.07 41.313 289.53 30.78 83.464 82.762 148.094 164.53 170.563l2.189.625 2.25-.5c89.685-19.12 142.32-84.028 171.185-168.343S465.78 133.656 465.78 30.438v-10.78l-10.654 1.53c-131.865 18.765-263.672 18.811-395.53 0zM67.75 41.03c63.242 8.536 126.495 12.793 189.75 12.783v184.532h174.78c-4.906 27.572-11.31 53.747-19.592 77.937-27.348 79.884-73.757 137.33-155.157 155.565-.008-.003-.019.003-.029 0v-233.5H86.529C73.66 177.356 68.253 109.534 67.75 41.03z"/></svg>