<svg xmlns="http://www.w3.org/2000/svg" viewBox="0 0 512 512"><path d="M395.938 20.78a78 78 0 0 0-6.063.19c-20.603 1.435-43.834 11.255-68.156 33.374 4.478 1.835 8.86 4.389 13.092 7.718 34.186 26.906 13.31 54.375-13.157 48.094 35.578 39.36.979 69.643-36.968 49.625 9.69 25.352-20.152 40.429-47.157 17.846-19.576 41.963-23.737 70.97-24.529 95.094-.367 11.177 1.214 16.962 2.438 19.185 1.223 2.223 1.6 2.25 4.312 2.971 2.712.717 7.356.91 13 2.935 4.195 1.505 8.805 4.67 12.25 9.375 38.097 2.08 94.527 3.212 171.78-36.718 44.881-23.197 67.255-59.046 74.25-96.938 6.996-37.89-2.012-77.89-21.124-107.218-17.917-27.495-43.88-45.288-73.97-45.53zm64.189 69.445c25.653 51.758 6.991 94.547-63.846 126.213 35.359-38.064 64.818-79.046 63.846-126.213zm11.467 98.994.002.002C433.258 241.534 370.29 291.439 281 289.123c65.092-22.673 133.782-58.814 190.594-99.904zM200.059 302.564C156.976 342.6 96.207 387.371 71.373 396.623c-25.69 9.57-34.904.962-49.156 18.315-13.558 16.132 12.31 53.079 41.28 32.779-26.415 41.35 26.313 74.03 42.374 16.062 12.69-47.362 76.409-102.027 125.315-143.154l-.315-.687c-1.52-3.575-2.214-3.736-4.437-4.532-2.222-.798-6.235-1.082-11.467-2.469-4.804-1.27-10.964-4.465-14.908-10.373z"/></svg>