<svg xmlns="http://www.w3.org/2000/svg" viewBox="0 0 512 512"><path d="m226.248 21.219.002.002c-7.37-.076-14.458.814-21.594 2.935 29.88 18.046 40.87 41.507 35.03 63.063-45.987-37.932-112.6-41.75-146.592-5.846 34.904.688 55.595 15.22 61.312 36.814-58.69-9.693-118.192 20.31-129.656 68.311 30.896-17.035 56.737-14.552 72.438 1.75-55.758 20.907-92.336 76.469-78.25 123.815 18.252-30.226 41.895-41.336 63.656-35.034-38.078 45.996-42.39 112.557-6.438 146.596.694-35.202 15.48-56.406 37.375-61.906-9.707 58.698 19.74 118.19 67.75 129.654-17.033-30.896-14.553-56.736 1.75-72.437 20.867 55.835 76.43 92.94 123.815 78.843-30.186-18.228-41.282-41.915-35.032-63.654 45.984 37.86 112.596 41.724 146.561 5.844-34.904-.69-56.187-15.188-61.904-36.783 58.698 9.71 118.189-20.331 129.654-68.342-30.69 16.922-56.674 14.851-72.406-1.156 55.868-20.85 92.945-77.007 78.842-124.409-18.036 29.867-41.515 41.45-63.063 35.627 37.86-45.985 41.132-112.625 5.25-146.593-.688 34.904-15.22 55.626-36.812 61.343 9.71-58.7-20.301-118.19-68.313-129.656 16.923 30.69 14.82 56.674-1.187 72.406-17.744-47.38-60.634-80.79-102.188-81.187zm28.875 82.125h.002c40.494-.113 81.019 15.362 111.97 46.312 48.313 48.312 58.91 119.93 31.374 178.407 10.386-48.018-9.547-107.829-55.75-154.032-46.205-46.205-106.014-66.138-154.033-55.75a156.95 156.95 0 0 1 66.437-14.937zm.813 55.812zc25.955.08 51.881 10.1 71.72 29.938 31.205 31.206 38.066 77.45 20.279 115.22 6.71-31.015-6.188-69.658-36.03-99.502-29.842-29.842-68.453-42.71-99.47-36a101.4 101.4 0 0 1 41-9.625 100 100 0 0 1 2.5-.03zm-142.811 34.688c-10.387 48.018 9.11 108.233 55.313 154.437 46.202 46.205 106.45 65.733 154.468 55.346-58.476 27.536-130.5 17.342-178.812-30.97-48.314-48.31-58.506-120.336-30.97-178.811zm157.688 10.844zl3.811 3.812 33.594 33.594 3.81 3.812-1.406 5.22L298.346 297l-1.409 5.22-5.218 1.405-45.875 12.28-5.22 1.408-3.811-3.813-33.594-33.594-3.815-3.812 1.407-5.221L213.125 225l1.375-5.22 5.22-1.405 45.874-12.28zm-107.188 12.937c-6.71 31.016 5.876 69.908 35.72 99.75s68.764 42.46 99.78 35.75c-37.77 17.786-84.296 11.206-115.5-20s-37.784-77.73-20-115.5zm101.594 7.906-35.47 9.5-9.47 35.5 25.907 25.908 35.5-9.47 9.5-35.467z"/></svg>