<svg xmlns="http://www.w3.org/2000/svg" viewBox="0 0 512 512"><path d="M229.832 24.166c-60.745-.298-121.016 26.285-161.713 77.555-70.4 88.68-55.576 217.633 33.102 288.03a174 174 0 0 0 4.26 3.27c.285.303.574.618.859.916-.118-.177-.23-.354-.348-.53 5.055 3.743 10.36 7.289 15.504 10.474a204.3 204.3 0 0 1-36.783-50.52c-26.065-64.267-15.235-129.285 32.96-161.24 58.435-38.76 151.117-15.175 215.06 51.676-3.943-5.902-8.413-12.113-13.016-17.834-63.682-79.235-166.368-109.601-229.362-67.818-1.072.71-2.122 1.442-3.158 2.185a205.7 205.7 0 0 1 18.953-28.418c65.31-82.274 181.148-100.695 268.36-46.756-5.63-5.66-11.95-11.455-18.358-16.54-37.412-29.7-81.992-44.23-126.32-44.448zm160.617 82.277-.004.002.016.01zm.012.012c45.096 42.613 67.279 102.16 63.875 161.211-5.603 29.51-20.302 57.597-44.16 80.174-58.436 55.31-151.122 57.978-215.065 9.238 3.944 4.784 8.415 9.73 13.018 14.145 49.375 47.45 122.195 58.87 181.785 33.818-65.28 61.195-164.122 72.983-242.467 27.83 5.804 5.48 12.3 11.074 18.864 15.96 90.821 67.609 219.257 48.797 286.867-42.03 67.61-90.822 48.793-219.255-42.03-286.865-6.555-4.884-13.77-9.493-20.687-13.48z"/></svg>