<svg xmlns="http://www.w3.org/2000/svg" viewBox="0 0 512 512"><path d="m419.682 26.2-8.66 2.452L32.913 135.811l22.356 78.888 386.77-109.607zm-12.41 22.224 9.074 32.014-41.086-22.942zM350.77 64.438l56.8 31.714-37.084 10.51-56.8-31.715zm-61.58 17.449.002.002 56.803 31.715-37.084 10.51-56.8-31.718zm-61.574 17.45h.002l56.803 31.716-37.084 10.51-56.805-31.715zm-61.576 17.45h.002l56.803 31.717-37.084 10.51-56.801-31.717zm-61.574 17.451h.002l56.799 31.715-37.082 10.51-56.803-31.715zm-45.858 26.229 41.084 22.937-32.01 9.073zM55 215v274h402V215zm18 18h33.273L73 266.273zm58.727 0h38.546l-46 46H85.727zm64 0h38.546l-46 46h-38.546zm64 0h38.546l-46 46h-38.546zm64 0h38.546l-46 46h-38.546zm64 0h38.546l-46 46h-38.546zM439 245.727V279h-33.273zM73 297h366v174H73zm248.635 46.57-192.44.703.067 18 192.44-.703zm-190.936 47.76-.133 17.998 92.707.703.137-18zm127.156.701-.2 17.998 63.913.703.2-17.998z"/></svg>