<svg xmlns="http://www.w3.org/2000/svg" viewBox="0 0 256 256"><path d="M128 18C67.355 18 18 67.355 18 128s49.355 110 110 110 110-49.355 110-110S188.645 18 128 18zm0 18c50.917 0 92 41.083 92 92s-41.083 92-92 92-92-41.083-92-92 41.083-92 92-92zm33.973 42.338a45.187 37.1 0 0 0-30.139 9.516 18.003 21.403 70.24 0 0-24.918-6.965 18.003 21.403 70.24 0 0-14.932 19.322 42.575 31.039 0 0 0-.568-.023 42.575 31.039 0 0 0-42.576 31.04 42.575 31.039 0 0 0 20.14 26.358 20.192 11.588 0 0 0-6.472 8.486 20.192 11.588 0 0 0 20.191 11.59 20.192 11.588 0 0 0 20.194-11.59 20.192 11.588 0 0 0-1.745-4.676 42.575 31.039 0 0 0 5.168-1.113 21.479 18.996 0 0 0 18.555 9.479 21.479 18.996 0 0 0 15.438-5.82 20.362 25.322 63.675 0 0 .574 1.36 20.362 25.322 63.675 0 0 31.724 7.02 20.362 25.322 63.675 0 0 14.827-26.279 45.187 37.1 0 0 0 19.726-30.606 45.187 37.1 0 0 0-45.187-37.1z"/></svg>