<svg xmlns="http://www.w3.org/2000/svg" viewBox="0 0 512 512"><path d="M234.875 18.78c-26.087 2.366-51.557 8.56-74.875 18.783 15.37 32.762 14.221 66.705-6.72 82.406-20.836 15.617-54.055 7.965-81.124-15.69-16.246 19.452-29.336 41.36-38.875 65.625 33.83 12.333 56.635 37.665 52.94 63.5-3.698 25.835-32.696 43.74-68.625 46.094 2.338 25.796 8.908 50.778 18.935 73.875 17.81-8.182 35.794-11.09 51.096-8.937 13.032 1.87 23.927 7.016 31.156 16.658 15.817 21.097 7.604 54.712-16.78 81.969 19.517 16.35 42.217 29.445 66.595 39.03 12.33-33.827 37.655-56.635 63.5-52.939 25.844 3.697 43.74 32.696 46.093 68.625 26.087-2.365 51.557-8.554 74.875-18.779-15.766-32.997-14.26-67.588 6.842-83.406 9.64-7.23 22.57-9.022 35.596-7.125 15.112 2.16 31.19 10.25 45.562 22.779 16.088-19.345 29.4-41.51 38.875-65.594-33.83-12.332-56.634-37.653-52.937-63.5 3.697-25.846 32.665-43.772 68.594-46.125-2.36-25.944-8.775-50.662-18.907-73.873-32.612 15.117-66.66 13.145-82.283-7.687-15.696-20.944-7.25-53.86 16.69-81-19.52-16.352-42.248-29.447-66.625-39.031-12.332 33.827-37.657 56.658-63.5 52.966-25.846-3.693-43.745-32.696-46.096-68.625zm21.656 95.126c79.626 0 144.375 64.752 144.375 144.375 0 79.626-64.75 144.375-144.375 144.375-79.624 0-144.373-64.75-144.373-144.375 0-79.624 64.75-144.373 144.375-144.373zm0 18.688c-69.524 0-125.685 56.162-125.685 125.687s56.16 125.69 125.685 125.69 125.692-56.164 125.692-125.69c0-69.522-56.166-125.685-125.692-125.685zm.033 15.123v.002c61.094 0 110.625 49.53 110.625 110.625s-49.53 110.625-110.625 110.625S145.94 319.438 145.94 258.342s49.53-110.625 110.625-110.625z"/></svg>