<svg xmlns="http://www.w3.org/2000/svg" viewBox="0 0 512 512"><path d="M253.922 20.86c-38.28 0-74.42 9.152-106.36 25.376l11.967 20.73c29.084-15.036 62.08-23.538 97.043-23.538 35.998 0 69.909 9.015 99.614 24.892l10.726-18.58c-33.535-18.404-72.038-28.88-112.99-28.88zM131.246 55.354C66.09 95.27 21.88 166.017 18.902 247.297h25.97c2.681-71.938 41.318-134.77 98.45-171.022l-12.076-20.918zm251.682 4.028v.002l-10.662 18.467c55.79 36.48 93.37 98.538 96.01 169.447h20.67c-2.88-78.62-44.34-147.378-106.018-187.916zm-133.62 2.88c-65 2.397-121.728 36.805-154.908 87.956l46.106 26.617a141 141 0 0 0-9.393 16.158L85 166.374c-13.8 26.609-21.604 56.843-21.604 88.925 0 32.418 7.971 62.948 22.043 89.76l45.916-26.51a141 141 0 0 0 9.458 16.12L94.92 361.167c33.25 50.713 89.725 84.778 154.393 87.162v-52.113c2.685.152 5.39.238 8.113.238q5.34-.002 10.578-.392v52.07c63.662-3.702 118.987-38.126 151.375-88.705l-44.652-25.781c3.45-5.17 6.565-10.58 9.318-16.2l44.639 25.77c13.475-26.36 21.074-56.24 21.074-87.914 0-31.34-7.447-60.918-20.656-87.074l-44.82 25.875a140 140 0 0 0-9.26-16.233l44.857-25.896c-32.316-51.016-87.88-85.79-151.877-89.512v52.543c-3.492-.26-7.018-.395-10.576-.395-2.724 0-5.428.086-8.113.239V62.264zm-37.177 69.423 20.275 35.144a92.7 92.7 0 0 1 24.867-3.383 92.7 92.7 0 0 1 24.891 3.389l20.277-35.15 40.141 23.078-20.355 35.283c11.824 11.63 20.54 26.41 24.785 42.984h40.722v46.156h-40.74c-4.253 16.56-12.974 31.324-24.795 42.942l20.383 35.328-40.14 23.078-20.315-35.213a92.7 92.7 0 0 1-24.852 3.38c-8.6 0-16.927-1.18-24.83-3.374l-20.312 35.207-40.137-23.078 20.371-35.312c-11.828-11.62-20.554-26.39-24.81-42.957H126.84v-46.155h40.697c4.246-16.583 12.968-31.37 24.8-43.006l-20.343-35.263zM18.945 265.984v.002c3.365 80.998 47.677 151.42 112.797 191.084l12.727-22.039c-57.045-35.686-95.94-97.755-99.492-169.047zm449.23.002c-3.5 70.267-41.328 131.58-97.034 167.5l11.298 19.573c61.64-40.295 103.207-108.733 106.461-187.073zM354.997 442.9c-29.42 15.485-62.903 24.264-98.42 24.264-34.484 0-67.055-8.27-95.846-22.922l-12.646 21.9c31.814 16.06 67.766 25.118 105.838 25.118 40.746 0 79.07-10.368 112.484-28.598z"/></svg>