<svg xmlns="http://www.w3.org/2000/svg" viewBox="0 0 512 512"><path d="M447.25 113.53c-.697.021-1.397.065-2.125.126-145.993 12.37-289.427 44.833-408.654 109.623-10.362 5.632-15.205 13.981-16.846 26.346-1.64 12.366.835 28.467 6.72 45.844 11.217 33.12 34.585 70.497 59.374 98.125l17.594-4.721L66.373 251l18.031-4.812 36.94 137.843 21.03-5.654-36.938-137.814 18.033-4.842 36.935 137.808 18.78-5.029-36.905-137.812 18.065-4.844 36.904 137.779 20.281-5.435-36.935-137.782 18.06-4.844 36.907 137.782 21.033-5.656-36.906-137.75 18.029-4.844 36.906 137.75 21.031-5.625-36.906-137.75 18.031-4.846 36.94 137.72 19.529-5.22-36.904-137.719 18.029-4.843 36.906 137.687 22.471-6.03-36.875-137.689 18.063-4.843 36.875 137.687 21-5.625-36.875-137.687L394 163.22l36.875 137.654 20.28-5.437-36.874-137.625 18.033-4.844 36.875 137.625 17.688-4.75c7.676-36.4 9.242-81.309 2.404-116.031-3.586-18.218-9.548-33.499-17.058-43.159-6.574-8.452-13.486-12.827-22.909-13.125-.673-.02-1.365-.02-2.062 0z"/></svg>