<svg xmlns="http://www.w3.org/2000/svg" viewBox="0 0 512 512"><path d="M18 18v29.75l36.09 31.578c13.506-3.722 27.044-6.596 40.193-8.146L47.75 18zm89.25 0 34.172 54.676c19.488 4.303 38.114 12.753 55.457 25.668L166.75 18zm120.656 0 28.092 129.424S278.068 45.746 284.092 18zm117.344 0-30.13 80.344c17.343-12.915 35.97-21.365 55.458-25.668L404.75 18zm119 0-46.533 53.182c13.15 1.55 26.687 4.424 40.193 8.146L494 47.75V18zM118.736 88.04a127 127 0 0 0-4.525.003c-28.57.524-63.665 10.44-96.209 22.7v143.114c2.86-7.516 7.631-14.432 13.44-20.22 7.7-7.675 17.645-13.693 28.704-14.117a33 33 0 0 1 4.805.171c7.908.875 13.683 5.74 18.137 10.995 4.454 5.252 7.902 11.383 10.74 17.31 5.676 11.853 8.844 23.211 8.844 23.211l-17.326 4.879s-2.89-10.161-7.754-20.316c-2.432-5.078-5.373-10.072-8.233-13.444s-5.325-4.627-6.382-4.744c-5.24-.58-12.663 2.66-18.83 8.805s-10.489 14.779-10.979 20.924c-1.776 22.332 7.532 36.256 18.412 45.744 5.44 4.743 11.307 8.183 16.06 10.357 2.376 1.087 4.48 1.858 6.012 2.32 1.534.462 2.868.52 1.875.512l-.146 18c-2.76-.022-4.48-.542-6.92-1.277-2.44-.736-5.234-1.78-8.309-3.186a85 85 0 0 1-20.4-13.16c-8.955-7.808-17.41-18.973-21.75-33.387v134.157c24.102 26.71 51.124 51.063 81.076 61.964 12.463 4.536 28.871 3.675 40.943-2.03.215-.718.515-2.225.86-4.427.74-4.75 2.009-13.206 9.719-18.332 6.447-4.286 12.677-4.82 15.755-5.78-3.493-7.43-10.867-26.54-6.183-48.735 3.417-16.19 15.896-29.057 30.18-35.606 7.14-3.274 14.994-4.978 22.869-3.646 3.937.667 7.821 2.228 11.306 4.613 3.25-4.3 6.502-8.301 8.506-11.1l3.621-5.052 4.004 1.594c4.42 1.172 6.194 1.58 6.215 1.703.18-.15.412-.382.828-.793.182-.354 2.686-9.402.514-20.694-2.187-11.373-5.665-25.125-15.215-37.41-5.235.462-10.274.939-14.357 1.645-5.597.966-9.289 2.814-9.608 3.125l-12.564-12.887c3.454-3.367 7.368-5.178 11.525-6.356-5.143-1.766-10.087-2.734-15.598-2.49l-.79-17.982c15.546-.686 27.433 5.062 39.65 10.902-7.522-7.768-13.752-15.06-19.608-20.476-7.838-7.25-14.079-10.976-23.084-10.95-1.806.007-4.95 2.096-9.334 6.88-4.386 4.783-8.75 11.636-17.673 14.956l-6.278-16.869c1.232-.46 5.672-4.788 10.68-10.25 5.006-5.463 11.843-12.684 22.549-12.717 14.558-.043 26.001 7.078 35.36 15.733 5.22 4.825 10.085 10.18 15.134 15.62 5.293-23.544 9.612-46.54 8.074-69.415-31.038-64.935-71.1-95.533-115.53-103.06-4.062-.614-8.346-.945-12.812-1.026zm274.528 0c-4.466.081-8.75.414-12.813 1.026-44.428 7.53-84.49 38.127-115.527 103.06-1.538 22.877 2.781 45.87 8.074 69.417 5.05-5.44 9.917-10.795 15.135-15.62 9.36-8.655 20.803-15.776 35.361-15.732 10.706.034 17.543 7.253 22.55 12.715 5.007 5.463 9.447 9.79 10.68 10.25l-6.28 16.871c-8.92-3.32-13.287-10.173-17.67-14.957-4.386-4.783-7.53-6.872-9.335-6.879-9.006-.026-15.247 3.7-23.085 10.95-5.856 5.414-12.084 12.706-19.606 20.474 12.217-5.84 24.103-11.586 39.65-10.9l-.793 17.98c-5.51-.243-10.454.726-15.597 2.49 4.157 1.18 8.073 2.99 11.527 6.358L302.97 308.43c-.32-.31-4.01-2.158-9.608-3.125-4.084-.705-9.122-1.18-14.357-1.643-9.55 12.285-13.03 26.037-15.217 37.41-2.172 11.293.332 20.338.514 20.692.415.41.645.642.826.793.02-.122 1.794-.53 6.215-1.703l4.006-1.594 3.62 5.053c2.004 2.8 5.255 6.801 8.505 11.101 3.485-2.384 7.37-3.946 11.308-4.613 7.875-1.333 15.73.372 22.87 3.646 14.283 6.55 26.762 19.417 30.18 35.608 4.683 22.195-2.69 41.305-6.185 48.734 3.078.96 9.31 1.494 15.756 5.78 7.71 5.126 8.98 13.582 9.721 18.333.343 2.202.642 3.71.857 4.428 12.073 5.705 28.482 6.564 40.944 2.03 29.952-10.903 56.976-35.257 81.078-61.965v-134.16c-4.34 14.413-12.795 25.577-21.75 33.386a85.1 85.1 0 0 1-20.402 13.16c-3.075 1.407-5.867 2.45-8.307 3.188-2.44.735-4.162 1.255-6.922 1.277l-.144-18c-.993.008.34-.05 1.875-.512 1.533-.462 3.637-1.233 6.013-2.32 4.753-2.174 10.62-5.613 16.06-10.357 10.88-9.488 20.189-23.414 18.41-45.745-.487-6.144-4.813-14.776-10.98-20.921-6.166-6.146-13.59-9.384-18.828-8.805-1.057.117-3.523 1.37-6.382 4.742-2.86 3.372-5.8 8.367-8.233 13.445-4.863 10.155-7.754 20.315-7.754 20.315l-17.326-4.881s3.168-11.356 8.844-23.209c2.838-5.927 6.286-12.059 10.74-17.31 4.454-5.253 10.228-10.122 18.135-10.995a33 33 0 0 1 4.804-.17c11.06.424 21.007 6.444 28.707 14.118 5.808 5.788 10.58 12.705 13.44 20.22V110.742c-32.544-12.26-67.64-22.174-96.209-22.699q-2.296-.041-4.527 0zM207.568 388.364c-2.844.06-6.23.846-9.716 2.444q-.915.422-1.823.914l15.635 9.07s2.62-4.083 5.238-8.238c-1.925-2.575-3.95-3.546-6.69-4.01a14 14 0 0 0-2.646-.178zm96.864 0a14 14 0 0 0-2.647.18c-2.738.464-4.763 1.435-6.69 4.01 2.62 4.155 5.24 8.238 5.24 8.238l15.636-9.07a31 31 0 0 0-1.823-.914c-3.485-1.598-6.87-2.382-9.714-2.442zM176.795 427.13c.727 14.314 6.52 25.45 6.945 26.252 4.71-1.988 8.2-3.552 8.26-3.867.104-.54-7.425-11.49-15.205-22.385zm158.41 0c-7.78 10.894-15.31 21.846-15.205 22.385.06.315 3.55 1.88 8.26 3.867.425-.8 6.218-11.94 6.945-26.252zM18 454.504V494h49.19C49.27 483.442 32.926 469.57 18 454.504zm476 0c-14.928 15.066-31.272 28.936-49.19 39.494H494z"/></svg>