<svg xmlns="http://www.w3.org/2000/svg" viewBox="0 0 512 512"><path d="M185 25v14h142V25zm0 32v14h142V57zm2.512 32c-1.626 7.3-2.512 15-2.512 23 0 48.966 32.654 87 71 87s71-38.034 71-87c0-8-.886-15.7-2.512-23zm115.947 118.719v.002l-31.666 42.222c29.804-.46 58.58-3.033 87.186-7.697-.304-.314-.6-.633-.907-.943-14.7-14.987-32.49-26.73-54.613-33.584zm-94.922.002c-22.122 6.853-39.913 18.595-54.611 33.582l-.422.44c30.324 4.353 58.942 6.987 86.482 7.907zm27.484 6.644L256 241.002l19.977-26.637A76.8 76.8 0 0 1 256 217a76.8 76.8 0 0 1-19.977-2.635zm-106.914 60.05c-3.84 6.632-7.323 13.557-10.492 20.685l28.81 7.203c110.47 15.786 106.675 15.786 217.147 0l28.81-7.203c-3.15-7.085-6.61-13.97-10.423-20.565-79.61 15.326-159.822 15.181-253.85-.12zm-22.904 54.69a326 326 0 0 0-1.533 5.303 363 363 0 0 0-4.926 19.975L135 363.195v-26.89l-28.795-7.2zm299.59 0-28.795 7.2v26.37l34.857-10.048a360 360 0 0 0-4.53-18.22 326 326 0 0 0-1.532-5.302zM153 339.461v27.95c73.738 14.2 132.264 14.195 206-.005v-27.945c-96.875 13.752-109.125 13.752-206 0zm265.188 48.805L377 400.14v27.054l44.227-11.056a529 529 0 0 0-3.04-27.873zM93.59 389.949a532 532 0 0 0-2.817 26.192L135 427.193v-26.888zM153 404.037v27.176c88.597 14.452 132.463 14.508 206 .205v-27.38c-72.118 13.163-133.882 13.163-206 0zm-64.152 48.729c-.356 14.784-.125 26.056.027 34.234H135v-22.695zm334.304 0L377 464.306V487h46.125c.152-8.178.383-19.45.027-34.234zM153 467.696V487h206v-18.94c-71.098 13.195-121.477 13.04-206-.365z"/></svg>