<svg xmlns="http://www.w3.org/2000/svg" viewBox="0 0 512 512"><path d="m342.53 9.756 7.42 4.287c-3.83 6.624-18.152 31.746-25.466 57.744-3.656 13-5.431 26.102-3.855 36.58 1.574 10.478 5.676 18.082 15.308 23.637 9.382 5.408 17.99 5.178 27.903 1.336s20.485-11.84 30.06-21.403c19.138-19.112 34.27-44.025 38.127-50.695zm-31.464 30.65-4.656 8.1c-65.54 114.04-127.84 220.083-192.724 331.85-21.68 37.342-14.265 83.987 19.226 103.228 33.492 19.242 77.81 2.41 99.324-35.072 64.292-111.995 126.706-217.98 192.727-331.852l4.705-8.117-5.225-3.002c-5.17 6.54-10.985 13.28-17.334 19.62-4.526 4.52-9.318 8.85-14.377 12.747C334.976 237.35 256.794 371.864 218.814 438c-16.704 29.078-50.333 43.54-76.033 28.78-12.85-7.38-20.423-20.697-22.5-35.155-2.075-14.458 1.03-30.36 9.44-44.844 37.22-64.13 114.515-197.105 172.125-296.607.803-7.887 2.493-15.78 4.65-23.445 2.366-8.41 5.332-16.57 8.432-24.108zm-57.029 169.477-.002.002c-42.186 72.684-83.945 144.55-108.158 186.271-6.41 11.04-8.513 22.943-7.096 32.813 1.42 9.868 6.04 17.415 13.315 21.592 14.55 8.357 37.802.232 50.5-21.875 28.334-49.335 78.16-135.182 126.73-218.803z"/></svg>