<svg xmlns="http://www.w3.org/2000/svg" viewBox="0 0 512 512"><path d="m130.543 39.227 13.316 66.132c2.8-3.765 5.595-7.472 8.383-11.046l17.067-21.885-.973 27.734c-.69 19.64-1.247 39.347-1.49 58.975a2400 2400 0 0 0 21.494-11.11 2848 2848 0 0 0 41.24-22.015c-3-6.667-6.218-13.2-9.916-19.5-15.624-26.61-39.143-50.26-89.121-67.285zm300.03 3.722a53 53 0 0 0-4.28.22c4.59 6.669 9.319 12.882 14.289 18.71l12.969-12.969c-6.443-3.9-14.259-6.045-22.979-5.959zm-22.645 4.828a82 82 0 0 0-8.586 4.07c-1.83.997-3.663 1.98-5.494 2.973a303 303 0 0 0 2.347 3.701c4.43-2.915 8.835-5.77 13.196-8.533-.49-.726-.976-1.474-1.463-2.21zm58.347 13.864-13.402 13.398c5.875 5.755 12.121 11.162 18.861 16.338 1.55-11.45-.576-21.669-5.459-29.736zm-88.177 1.703c-6.794 3.656-13.59 7.3-20.38 10.94q2.28 3.855 4.589 7.519a1107 1107 0 0 1 19.072-13.342 302 302 0 0 1-3.28-5.117zm41.884 1.25a868 868 0 0 0-13.488 8.699 217 217 0 0 0 10.156 12.52l11.403-11.405a241 241 0 0 1-8.07-9.814zm-78.05 18.177a3632 3632 0 0 0-22.594 12.27c2.482 4.546 4.97 8.91 7.482 13.096a1307 1307 0 0 1 21.006-15.828 328 328 0 0 1-5.892-9.538zm49.808.426a1089 1089 0 0 0-19.33 13.54c4.776 6.541 9.726 12.63 14.96 18.357l16.767-16.768a241 241 0 0 1-12.397-15.129zm48.655 4.323-11.29 11.289a205 205 0 0 0 10.674 9.459c3.202-4.148 6.436-8.331 9.592-12.414a228 228 0 0 1-8.975-8.334zm-136.786 16.21a1596 1596 0 0 0-21.974 12.502c3.508 6.854 7.005 13.322 10.537 19.414a1491 1491 0 0 1 20.443-16.433 365 365 0 0 1-9.004-15.48zm54.444 3.438a1320 1320 0 0 0-21.446 16.193c5.945 8.62 12.127 16.47 18.762 23.73l19.508-19.505c-5.9-6.388-11.475-13.17-16.824-20.418zm105.27.072c-3.029 3.92-6.134 7.937-9.208 11.92a270 270 0 0 0 5.432 3.703c1.267-2.337 2.52-4.68 3.795-7.015a84 84 0 0 0 3.096-6.287c-1.048-.77-2.088-1.54-3.116-2.32zm-46.696 4.05-16.531 16.528a211 211 0 0 0 14.945 12.418c4.7-6.056 9.32-12.013 13.926-17.97a231 231 0 0 1-12.338-10.977zm-150.428 14.274c-.83.906-1.07.793-1.484 1.09-.558.4-1.1.754-1.735 1.155-1.268.8-2.864 1.751-4.828 2.89a620 620 0 0 1-8.904 5.033 954 954 0 0 0-8.074 5.125c3.755 8.345 8.797 16.637 15.002 25.17A1641 1641 0 0 1 278.2 147.23c-4.073-6.815-8.057-14.032-12-21.665zm-116.648 2.803C90.93 211.752 34.104 335.945 40.22 432.14c5.696 6.334 12.39 12.946 19.215 17.949 7.61 5.582 15.155 8.76 19.906 8.76h.451l139.268 13.925c-68.43-92.97-72.94-220.298-69.51-344.406zm293.691 4.871c-4.444 5.752-8.901 11.506-13.44 17.358a306 306 0 0 0 11.106 6.869c3.373-6.288 6.745-12.58 10.13-18.873a282 282 0 0 1-7.796-5.354zm-120.662 1.108a1469 1469 0 0 0-20.822 16.799c6.816 10.3 13.91 19.52 21.61 27.949l19.51-19.508c-7.19-7.783-13.896-16.15-20.298-25.24zm65.022 5.966-19.506 19.508c6.02 5.5 12.445 10.687 19.373 15.688a5329 5329 0 0 0 16.685-21.283c-5.807-4.458-11.313-9.074-16.552-13.912zm-162.52 8.598a2997 2997 0 0 1-20.299 10.803c4.492 10.944 11.093 22.845 19.223 35.006 6.07-5.553 12.16-11.05 18.27-16.48-7.104-9.59-12.857-19.13-17.192-29.327zm62.9 13.686a1635 1635 0 0 0-20.636 17.658c7.596 9.074 16.319 18.563 26.072 28.79l17.46-17.458c-8.166-8.842-15.714-18.43-22.894-28.99zm130.846 2.115a5339 5339 0 0 1-16.346 20.865c5.56 3.47 11.445 6.88 17.672 10.28a3633 3633 0 0 0 12.254-22.602c-4.7-2.8-9.226-5.642-13.58-8.543zm-230.043 3.377a2206 2206 0 0 1-20.463 10.51c3.642 13.868 11.777 30.123 22.885 46.923a1726 1726 0 0 1 19.158-18.193c-9.026-13.173-16.406-26.366-21.58-39.24zm166.817 4.225-19.506 19.507c7.207 6.583 14.992 12.72 23.533 18.623a3475 3475 0 0 0 16.822-20.994c-7.41-5.445-14.334-11.122-20.847-17.137zm-102.022 20.04a1697 1697 0 0 0-19.02 17.184c8.085 10.67 17.152 21.328 26.858 31.508l19.264-19.266c-10.142-10.567-19.196-20.172-27.102-29.425zm137.777 7.319a3438 3438 0 0 1-16.48 20.594c7.44 4.473 15.463 8.87 24.092 13.287a1600 1600 0 0 0 12.49-21.973c-7.072-3.894-13.764-7.849-20.102-11.908zm-67.753 4.64-17.461 17.46a373 373 0 0 0 25.783 22.416 2583 2583 0 0 0 16.447-19.91c-8.91-6.3-17.12-12.9-24.77-19.965zm-156.166 17.479c.31 8.661.714 17.283 1.261 25.836q4.577-4.59 9.197-9.147a255 255 0 0 1-10.458-16.689zm53.652.219a1685 1685 0 0 0-19.352 18.424c8.29 11.04 17.64 22.079 27.68 32.609l19.264-19.264c-9.95-10.366-19.25-21.02-27.59-31.77zm142.412 12.267a2580 2580 0 0 1-17.106 20.73c.95.67 1.9 1.327 2.848 1.981 11.135-5.043 21.08-9.176 29.514-11.824.806-.253 1.553-.48 2.33-.723-6.137-3.337-12.01-6.713-17.586-10.164zm-70.094.229v.002l-19.263 19.262a371 371 0 0 0 28.619 24.632 2046 2046 0 0 0 17.457-20.312c-9.126-7.32-18.12-15.241-26.813-23.584zM188.6 253.258a1662 1662 0 0 0-18.024 18.103q.12 1.26.242 2.514c8.02 10.558 16.996 21.096 26.6 31.168l19.264-19.264c-10.078-10.5-19.56-21.435-28.08-32.52zm207.177 6.793c1.021.542-4.225-.037-11.629 2.289-7.62 2.39-17.802 6.601-29.472 11.933-23.342 10.665-52.774 25.796-82.73 40.12-29.96 14.327-60.4 27.873-86.608 35.478-.61.177-1.208.335-1.815.506 9.725 39.354 24.64 75.796 47.09 107.666 10.53-.556 19.844-2.732 28.217-6.078 18.345-7.332 32.616-20.42 44.62-35.205 12.004-14.786 21.526-31.096 30.673-44.342 4.573-6.623 9.026-12.514 14.184-17.19 5.16-4.674 11.557-8.382 19.035-8.382 16.213 0 30.66 10.89 45.064 26.074 9.18 9.68 18.34 21.64 27.37 34.79 2.69-28.987 8.2-55.248 7.468-77.427-.482-14.58-3.403-27.165-10.916-38.605-7.486-11.398-19.839-22.032-40.55-31.627zm-134.369 6.457-19.263 19.262a378 378 0 0 0 16.636 14.939c1.8-.852 3.6-1.694 5.4-2.555 7.133-3.41 14.243-6.875 21.274-10.324a403 403 0 0 1-24.047-21.322zm-32 31.998-19.263 19.264a378 378 0 0 0 3.27 3.074c8.874-3.585 18.068-7.574 27.39-11.795a420 420 0 0 1-11.397-10.543zm-54.406 8.834a526 526 0 0 0 2.922 17.197l6.758-6.758a421 421 0 0 1-9.678-10.44z"/></svg>