<svg xmlns="http://www.w3.org/2000/svg" viewBox="0 0 512 512"><path d="m186.041 28.479-.002.001a130 130 0 0 0-5.068.053c-49.926 1.53-75.598 31.9-74.4 57.399.89 18.922 2.415 37.83 4.443 56.732 19.092-4.165 37.502-6.347 55.134-6.797 11.13-.284 21.945.136 32.434 1.166-2.545-36.064-5.777-72.214-8.744-108.449-1.275-.045-2.55-.094-3.797-.105zm21.97 1.466c3.004 36.432 6.284 72.948 8.825 109.553 37.808 6.546 70.754 21.335 97.615 40.988a3378 3378 0 0 0 17.076-73.777c-9.38 2.87-18.879 7.748-24.039 16.016l-13.88 22.228-2.708-26.064c-3.884-37.403-15.313-58.384-31.796-71.15-13.105-10.15-30.336-15.402-51.09-17.794zm-33.04 123.758a248 248 0 0 0-3.659.004c-18.41.157-37.85 2.365-58.22 6.947 7.097 57.442 18.488 114.89 30.615 172.664 20.94 1.16 38.01 2.944 54.818 7.327 6.488-61.598 5.21-123.431 1.287-185.516a241 241 0 0 0-24.84-1.426zm43.08 4.182.002.002c3.85 62.53 4.949 125.306-2.008 188.32 13.285 4.984 27.21 11.942 43.518 21.809l2.67 1.617 1.097 2.922c12.882 34.34 25.885 69.148 31.828 104.646 68.924-1.1 149.596 3.353 197.332-3.967-40-52.644-101.235-64.218-147.013-70.671-9.992-.197-18.674.504-31.99 1.595 6.396-6.884 10.99-11.14 16.503-13.43l-54.908-63.406 1.387-4.717c11.695-39.76 22.928-81.474 33.293-123.058-24.73-19.558-55.587-34.706-91.711-41.662zM69.51 279.98l-8.883 26.655q-.678.259-1.336.558l-25.137-12.566 12.57 25.137q-.3.657-.562 1.336l-26.65 8.879 26.65 8.886q.263.677.56 1.334l-12.568 25.137L59.29 352.77q.66.299 1.338.56l8.883 26.65 8.885-26.65q.675-.261 1.334-.56l25.134 12.568-12.562-25.139c.074-.166.137-.338.209-.506 17.088 5.487 30.27 8.56 48.287 11.534.157-9.57 2.457-14.43 2.775-17.868-15.31-1.792-29.059-6.342-44.04-10.197l-6.675-2.064q-.26-.676-.558-1.334l12.564-25.137-25.134 12.566q-.66-.3-1.336-.558zm0 38.637c6.356 0 11.363 5.007 11.363 11.363 0 6.358-5.007 11.366-11.363 11.366-6.357 0-11.364-5.007-11.364-11.364 0-6.355 5.007-11.363 11.364-11.363zm71.39 32.57c-11.994 19.473-18.549 50.984-24.37 71.516 34.155 6.413 72.87 2.2 100.835 11.897 19.624 6.545 38.616 17.945 57.326 31.65-6.132-27.707-16.43-55.874-27.101-84.361-41.578-24.765-63.014-28.432-106.69-30.702zm-22.96 89.721c5.37 14.482 15.01 27.737 29.4 41.348 10.983 1.942 24.74 1.308 37.1.394 2.595-11.198 7.043-22.79 14.148-33.625-27.143-4.143-53.521-5.665-80.649-8.117z"/></svg>