<svg xmlns="http://www.w3.org/2000/svg" viewBox="0 0 512 512"><path d="M195.938 20.438C96.6 21.469-5.518 164.667 29.813 458.938c7.367-370.195 187-461.348 252.875-248.782a75 75 0 0 0-2.157 1.156l-80.78-58L248 246.188c-2.173 4.416-3.97 9.076-5.437 13.909l-122.342-4.817 119.058 47.815c.304 2.26.675 4.534 1.127 6.812.383 1.928.837 3.831 1.313 5.721l-76.44 85.25L268.156 365a109 109 0 0 0 2.815 2.938l-16.971 116 72.97-87.313c4.53.546 9.093.753 13.717.53l78.094 97.595-25.592-122.375a81 81 0 0 0 4.342-5.187l101.096-4.032-82.813-46.75c.43-7.072.143-14.342-.937-21.719l78.062-67.968-94.343 23.75a114 114 0 0 0-6.969-9.97l30.937-91.063-66.937 61.533a92 92 0 0 0-5.72-2.596C328.458 84.763 264.236 21.238 198.28 20.438q-1.169-.014-2.342 0zM316 220.594h.002c.583-.012 1.167-.005 1.748 0 21.907.178 43.736 12.245 59 31.47l-45.937 25.53-13.188-16.625-5.47-6.908-7.217 5.062-47.907 33.781c-2.07-38.124 20.408-68.303 53.721-71.966 1.74-.192 3.497-.31 5.248-.344zm70.904 47.217.002.003a95.5 95.5 0 0 1 8.721 25.03c1.7 8.574 2.159 16.875 1.56 24.72l-39.718-6.345-.594-.75-14.28-18.033zM308.467 279.5h.002l29.967 37.844-28.842 55.029c-22.418-10.077-41.54-31.73-49.156-59zm44.719 49.97 40.408 6.467c-7.628 23.216-26 39.61-50 42.25-5.258.58-10.542.418-15.781-.375z"/></svg>