<svg xmlns="http://www.w3.org/2000/svg" viewBox="0 0 512 512"><path d="M53.158 25.78c30.55 26.034 52.81 95.138 52.81 176.47 0 44.36-6.922 84.657-17.814 116.688 31.134 71.43 85.947 122.39 179.907 175.28 91.557-48.746 144.024-96.565 173.75-167.593-12.5-33.06-20.28-76.47-20.28-124.375 0-81.333 22.263-150.437 52.813-176.47-41.924 9.323-83.86 16.318-125.781 20.595l-70.659 135.346 46.469 20.654-115.06 189.346 41.466-169.596-22.529-10.25-71.375 19.938 59.406-50.22 43.656-130.372c-68.92.347-137.859-7.51-206.779-25.442z"/></svg>