<svg xmlns="http://www.w3.org/2000/svg" viewBox="0 0 512 512"><path d="M252.25 19.656c-34.16 0-66.38 9.506-94.75 26.344l68.188 47.844-15.313 42.53 82.03 93.407L183.5 156.313l.22-54.967-66.845-23.625c-28.81 28.75-50.6 66.492-61.97 109.435-6.076 34.104 5.67 67.812 29.22 90.75-1.25-7.402-1-15.176 1.063-22.875 6.26-23.364 27.1-39.113 50.125-40.06.665-.03 1.332-.03 2-.032a54 54 0 0 1 12.25 1.342l.03-.092c61.34 16.437 98.998 77.615 87.28 139.032a314 314 0 0 1 19.441-.625c4.295 0 8.58.104 12.873.279-11.51-61.3 26.12-122.28 87.344-138.687l.033.125c3.422-.79 6.852-1.263 10.25-1.375.67-.02 1.333-.037 2-.03.666.006 1.335.035 2 .063 23.023.947 43.896 16.694 50.157 40.058a53.6 53.6 0 0 1 1.058 22.877c20.526-19.993 32.088-48.167 30.692-77.656C430.924 96.642 349.435 19.656 252.25 19.656zM46.063 255.906c.037 55.207 16.67 105.975 44.437 146.157 39.134-24.48 82.53-39.504 126.875-45.032 8.79-35.65-2.307-71.59-26.437-96a53.65 53.65 0 0 1-1.22 22c-7.706 28.757-37.524 45.955-66.28 38.25a54 54 0 0 1-4.159-1.312c-33.403-10.436-59.295-34.338-73.216-64.063zm412.343 3.471C444.122 287.519 418.93 309.99 386.78 320c-1.34.476-2.695.906-4.091 1.28-28.758 7.706-58.546-9.49-66.25-38.25a53.65 53.65 0 0 1-1.22-22.03c-23.964 24.24-35.08 59.87-26.624 95.28 44.495 4.586 88.187 18.693 127.779 42.283 25.778-38.76 41.339-86.9 42.033-139.186zm-202.095 113.81c-53.683-.004-107.364 14.603-154.592 43.842 37.623 46.002 91.142 74.75 150.53 74.75 60.782 0 115.42-30.123 153.155-78.029-45.88-27.037-97.476-40.557-149.091-40.562z"/></svg>