<svg xmlns="http://www.w3.org/2000/svg" viewBox="0 0 512 512"><path d="M18.297 21v69.156s205.927 155.001 252.887 225.498c9.494 14.257 2.465 34.731-9.381 48.301A263.5 263.5 0 0 0 366.645 259.11c-13.57 11.802-33.999 18.809-48.245 9.315C249.425 222.49 97.77 21 97.77 21zm392.808 57.107a280.07 280.07 0 0 1-76.576 253.707 279.43 279.43 0 0 1-198.224 82.108 282 282 0 0 1-55.496-5.518 235 235 0 0 0 12.882 13.963 234.316 234.316 0 0 0 331.38 0c91.51-91.51 91.51-239.867 0-331.377a238 238 0 0 0-13.966-12.883z"/></svg>