<svg xmlns="http://www.w3.org/2000/svg" viewBox="0 0 512 512"><path d="m207.47 18.875 35.968 162.25c.29 1.087.86 1.863 2.562 2.813 1.7.95 4.434 1.66 7.22 1.656 2.786-.003 5.544-.703 7.25-1.656 1.705-.954 2.275-1.75 2.56-2.813L299 18.875zm88.936 98.031-15.22 68.657-.059.218-.033.188c-1.747 6.52-6.404 11.431-11.5 14.28-5.096 2.847-10.738 4.026-16.344 4.03-5.606.007-11.24-1.15-16.344-4-5.104-2.847-9.781-7.784-11.53-14.31l-.032-.19-.063-.218-14.685-66.217c-35.595 14.475-63.44 45.217-75.067 83.627a459 459 0 0 0 32.315 15.466c26.527 11.43 60.506 22.55 88.5 22.407 28.003-.145 61.81-11.561 88.156-23.22a449 449 0 0 0 32.938-16.25c-12.624-39.969-42.853-71.398-81.032-84.468zm88.967 101.375v.002l.004-.002zm0 .002c-8.365 4.538-19.864 10.485-33.31 16.438-27.522 12.18-62.798 24.673-95.625 24.843-32.838.17-68.294-12-96-23.937-13.614-5.866-25.275-11.745-33.72-16.22-.51 70.484-3.647 138.638 9.626 188.374 7.135 26.737 18.683 47.875 37.375 62.596 12.092 9.525 27.443 16.584 47.25 20.375V330.125c-28.654 16.12-67.848 2.81-81.065-30.625 8.825-22.322 30.129-33.074 50.782-33 24.583.087 48.223 15.532 48.875 45.094h.093v89h36.032l.002-87.721c-.01-.01-.025-.017-.034-.03 0-.421.024-.833.032-1.25.655-29.561 24.327-45.006 48.908-45.093 20.654-.074 41.926 10.678 50.75 33-13.204 33.403-52.325 46.702-80.971 30.656v160.471c19.544-3.867 34.6-11 46.438-20.596 18.396-14.908 29.6-36.337 36.375-63.342 12.59-50.183 8.803-118.532 8.187-188.406z"/></svg>