<svg xmlns="http://www.w3.org/2000/svg" viewBox="0 0 512 512"><path d="m92.406 13.02-.002.003h.002zm0 .003-.164 156.35c3.064.507 6.209 1.38 9.39 2.627 36.497 14.306 74.214 22.435 111.864 25.473l43.402-60.416 42.317 58.906c36.808-4.127 72.566-12.502 105.967-24.09 3.754-1.302 7.368-2.18 10.818-2.6l1.523-156.252-75.82 95.551-34.084-95.549-53.724 103.74-53.721-103.74-35.444 95.55-72.32-95.55zM256.898 169.09l-28.636 39.86 28.634 39.86 28.637-39.86zM86.762 187.55c-2.173-.08-3.84.274-5.012.762-2.345.977-3.173 2.19-3.496 4.196-.645 4.01 2.824 14.35 23.03 21.36 41.7 14.467 84.263 23.748 126.779 26.833l-17.75-24.705c-38.773-3.285-77.69-11.775-115.5-26.596-3.197-1.253-5.878-1.77-8.051-1.85zm333.273.19c-2.156.052-5.047.512-8.726 1.79-33.582 11.65-69.488 20.215-106.524 24.646l-19.264 26.818c40.427-2.602 80.434-11.288 119.221-26.96 15.913-6.43 21.46-17.81 21.36-22.362-.052-2.276-.277-2.566-1.752-3.274-.738-.352-2.158-.71-4.313-.658zm-18.115 47.438c-42.5 15.87-86.26 23.856-130.262 25.117l-14.76 20.547-14.878-20.71c-44.985-1.744-89.98-10.23-133.905-24.306-12.78 28.51-18.94 61.14-19.603 93.44 37.52 17.497 62.135 39.818 75.556 64.63C177 417.8 179.282 443.62 174.184 467.98c7.72 5.007 16.126 9.144 24.98 12.432l5.557-47.89 18.562 2.154-5.933 51.156c9.57 2.21 19.443 3.53 29.377 3.982v-54.67h18.689v54.49c9.903-.637 19.704-2.128 29.154-4.484l-5.855-50.474 18.562-2.155 5.438 46.852c8.747-3.422 17.004-7.642 24.506-12.69-5.758-24.412-3.77-49.666 9.01-72.988 13.28-24.234 37.717-46 74.802-64.29-.62-33.526-6.688-66.12-19.113-94.227zm-266.732 47.006c34.601.23 68.406 12.236 101.357 36.867-46.604 33.147-129.793 34.373-108.29-36.754q3.473-.136 6.933-.111zm242.824 0q3.46-.022 6.93.11c21.505 71.129-61.684 69.903-108.288 36.757 32.95-24.63 66.756-36.636 101.358-36.865zM255.164 332.14c11.77 21.725 19.193 43.451 25.367 65.177h-50.736c4.57-21.725 13.77-43.448 25.37-65.177z"/></svg>