<svg xmlns="http://www.w3.org/2000/svg" viewBox="0 0 512 512"><path d="M23.113 18c3.425 32.11 13.432 59.227 28.08 82.438 20.956 33.202 50.994 58.33 83.807 80.37v-21.865c-27.563-19.53-51.623-41.237-68.584-68.111C53.43 70.252 44.411 46.607 41.136 18zM105 18v39.512L145.46 71h59.194L183 45.285V18zm96 0v20.715L228.188 71h55.625L311 38.715V18zm128 0v27.285L307.346 71h59.193L407 57.514V18zM153 89v334h206V89h-30.527a16 16 0 0 1-15.973 15.25A16 16 0 0 1 296.537 89H186.064c4.35 15.944 7.01 31.603 13.13 42.752 4 7.287 8.96 12.664 17.085 16.357 2.936 1.334 6.359 2.438 10.344 3.227a29.68 39.572 0 0 1-.305-5.338A29.68 39.572 0 0 1 256 106.428 29.68 39.572 0 0 1 285.68 146a29.68 39.572 0 0 1-21.186 37.885c5.498.232 11.014.828 16.32 1.914 8.974 1.39 15.104 5.589 20.174 12.385 5.07 6.797 8.75 16.36 11.178 27.47 4.403 20.152 4.68 44.911 4.697 66.701h-25.287l-6.453 97.805c-17.838 4.018-37.613 4.165-56.135-.015l-7.293-97.791h-26.558c.17-21.525 1.238-45.947 6.097-65.946 2.684-11.04 6.515-20.62 11.524-27.494 5.01-6.875 10.867-11.097 18.86-12.6a156 156 0 0 1 16.698-2.14 29.68 39.572 0 0 1-15.66-13.863c-9.147-.758-17.02-2.72-23.824-5.815-11.886-5.402-20.042-14.295-25.414-24.082-9.082-16.545-11.715-35.59-16.172-51.414zm341 8.441c-5.896 14.547-12.162 28.404-19.1 41.098-22.9 41.908-51.386 70.867-97.9 75.807v18.074c54.012-5.202 89.058-40.16 113.695-85.248a323 323 0 0 0 3.305-6.23zm-160.758 17.46a13.02 13.02 0 0 1 13.022 13.02 13.02 13.02 0 0 1-13.022 13.02 13.02 13.02 0 0 1-13.02-13.02 13.02 13.02 0 0 1 13.02-13.02zm-26.535 33.298a9.047 9.047 0 0 1 9.047 9.049 9.047 9.047 0 0 1-9.047 9.047 9.047 9.047 0 0 1-9.047-9.047 9.047 9.047 0 0 1 9.047-9.047zM494 224.037c-10.438 26.16-21.8 49.849-33.584 68.998-15.506 25.197-31.98 42.047-45.44 47.108-6.731 2.53-12.46 2.605-18.732.046-5.882-2.4-12.438-7.535-19.244-16.57v25.871c3.984 3.133 8.123 5.6 12.44 7.364 10.417 4.25 21.64 3.984 31.87.138 20.457-7.69 37.942-27.717 54.436-54.52 6.28-10.204 12.38-21.468 18.254-33.542zM105 441v18h142v-18zm160 0v18h142v-18zM73 477v17h174v-17zm192 0v17h174v-17z"/></svg>