<svg xmlns="http://www.w3.org/2000/svg" viewBox="0 0 512 512"><path d="m309.82 19.693.002.002c-91.36.614-193.674 54.694-233.935 133.168-58.023 113.09-28.642 221.764 35.04 336.393l190.57-.002c.725.028 1.463.041 2.222.02.142-.003.28-.015.424-.02h53.826c-10.486-3.502-20.883-7.894-31.086-13.047 10.072-16.983 2.354-44.399-23.168-43.71-10.64.29-18.18 5.295-22.633 12.222-9.458-8.397-18.286-17.479-26.467-27.069 14.902-15.993 8.336-49.137-19.69-48.379-4.656.125-8.716 1.158-12.187 2.856a297 297 0 0 1-15.035-30.328c19.106-14.293 13.695-52.218-16.244-51.436a239 239 0 0 1-3.123-18.773 219 219 0 0 1-1.234-13.135c27.28-5.747 28.78-46.347 4.5-54.635 2.133-8.412 4.96-16.413 8.505-23.892l.04-.08c3.722 2.18 8.315 3.415 13.787 3.267 24.495-.642 31.46-28.02 20.904-43.215a204 204 0 0 1 13.332-9.234 90 90 0 0 1 4.932-2.896c2.136 11.04 10.509 20.494 25.127 20.1 19.36-.507 27.766-17.727 25.228-32.425 10.7-.52 20.691.402 29.79 2.477-3.265 13.06 3.769 28.849 21.105 28.379 7.844-.205 13.576-3.63 17.203-8.514a61 61 0 0 1 3.927 4.21c5.093 6.01 8.786 12.683 10.91 19.892-16.186 5.228-16.827 29.972-1.92 35.931-3.046 8.154-7.956 16.63-15.077 25.203-2.402-2.767-6.022-4.562-10.862-4.431-13.943.38-17.762 16.164-11.478 24.611-7.052 4.543-13.681 7.367-19.713 8.861.646-5.998-2.903-12.428-10.666-12.22-7.328.2-10.9 6.109-10.737 11.785-.245-.09-.494-.179-.734-.274-3.894-2.125-7.525-5.38-10.77-10.09 10-2.95 10.162-18.5.46-21.31 1.414-3.197 3.408-6.582 6.095-10.094 2.516 1.67 6.553 2.794 12.133 2.72 12.562-.16 17.352-6.17 14.389-10.68l.088.007q-.085-.068-.168-.137c-.805-1.158-2.134-2.21-3.977-3.03-9.49-6.446-20.604-8.778-30.728-7.298l-.291-.275c-.12.126-.23.254-.35.38-20.527 3.34-36.709 22.449-26.395 54.75 38.275 119.87 242.356 18.336 199.735-111.55C439.243 54.953 386.06 20.555 314.162 19.695v.01q-2.167-.025-4.342-.012zm11 54.412c14.242.315 19.363 14.59 15.375 25.27-8.943-1.925-18.474-2.888-28.455-2.764-1.802.024-3.62.087-5.45.18-1.876-10.222 3.933-22.308 17.437-22.68q.555-.016 1.093-.006zm-89.662 19.676v.002c10.26.227 15.777 7.702 16.578 15.856-10.812 4.692-20.504 10.55-29.088 17.375-11.32-9.146-7.527-32.722 11.416-33.229q.555-.016 1.094-.004zM399.52 117.52c20.92.463 22.177 31.057 3.753 36.11-2.97-8.64-7.557-16.664-13.53-23.714a82 82 0 0 0-5.206-5.584c2.952-3.906 7.579-6.64 13.89-6.81q.555-.015 1.093-.002zm-220.913 47.916c2.688.06 5.046.62 7.084 1.556-.853 1.626-1.68 3.27-2.466 4.932-4.48 9.448-7.925 19.466-10.399 29.908-18.905-3.996-17.356-35.804 4.69-36.394q.554-.014 1.091-.002zm224.229 36.566c17.192 5.421 15.087 35.414-6.305 35.97-5.064.138-9.04-1.436-11.94-4 8.518-10.48 14.57-21.238 18.245-31.97zM164.51 255.506h.002c.712.016 1.402.068 2.076.14a23 23 0 0 0 1.685.897c.292 5.745.794 11.534 1.518 17.355.948 7.61 2.285 15.275 3.945 22.957a26 26 0 0 0-1.824 1.75c-2.54 1.096-5.445 1.763-8.736 1.848-28.972.78-28.968-44.158-.002-44.943q.678-.018 1.336-.004zm193.303 2.953c3.933 8.724-.404 21.677-13.012 22.008-7.69.208-12.293-4.443-13.83-10.127 8.665-2.06 17.738-5.973 26.841-11.881zm-170.31 88.553c.676.062 1.36.109 2.06.129a312 312 0 0 0 19.998 39.79l-.125.346c-3.702 3.412-8.746 5.657-15.159 5.823-27.94.752-30.19-39.01-6.773-46.088zm49.524 78.914c11.59 14.01 24.498 27.075 38.655 38.799-4.436 7.024-12.017 12.112-22.752 12.39-29.78.806-35.312-36.62-16.627-51.135q.364-.023.724-.054z"/></svg>