<svg xmlns="http://www.w3.org/2000/svg" viewBox="0 0 512 512"><path d="M256 19.326c-44.404 0-85.076 25.415-115.227 68.106-30.15 42.692-49.175 102.42-49.175 168.57 0 66.153 19.025 125.876 49.175 168.568 30.15 42.69 70.822 68.104 115.225 68.104s85.074-25.413 115.225-68.104 49.18-102.417 49.18-168.57c0-7.567-.263-15.045-.75-22.43-9.908 9.928-26.342 14.222-42.72 9.832-3.734-1-6.735-2.672-9.966-4.382 20.746.09 39.53-13.204 45.148-34.178 1.237-4.618 1.947-9.272 1.965-13.824-7.944-39.906-22.982-75.45-42.855-103.59-30.15-42.688-70.823-68.1-115.225-68.1zm.096 18.635v.002c1.695 0 3.38.058 5.062.142 8.765 144.53 6.92 290.545-.494 435.87-1.52.07-3.042.117-4.57.117-39.322 0-75.49-23.217-102.424-62.541-26.933-39.325-43.982-94.456-43.982-155.524 0-7.892.288-15.684.841-23.357 9.798 10.56 26.714 15.251 43.576 10.732 3.734-1 6.734-2.672 9.965-4.382-20.745.09-39.525-13.204-45.144-34.178-1.526-5.698-2.265-11.452-1.865-17 7.448-33.496 20.188-63.36 36.61-87.338 26.936-39.325 63.103-62.543 102.425-62.543zm-73.537 90.768c-9.522-.218-19.772 3.371-28.454 10.804-2.836 2.432-4.8 5.178-6.945 8.051 17.766-8.51 38.739-4 51.225 12.863 4.607 6.222 8.022 13.126 9.207 20.48 6.908-13.48 7.252-29.09-.944-40.16-5.772-7.796-14.566-11.821-24.087-12.038zm165.045 0zc9.52-.218 19.768 3.372 28.448 10.804 2.838 2.432 4.804 5.178 6.949 8.051-17.764-8.51-38.737-4-51.223 12.863-4.606 6.222-8.022 13.126-9.207 20.48-6.906-13.48-7.251-29.09.946-40.16 5.771-7.796 14.564-11.821 24.086-12.038zm-186.166 32.277v.002c-14.874.436-27.465 11.916-26.124 33.111 3.422 54.03 89.476 18.397 112.104 68.572 8.186-57.92-54.649-37.67-83.06-64.85-10.125-9.686-5.722-29.063 14.888-32.195-5.822-3.29-11.989-4.81-17.809-4.64zm207.54 0v.002c14.873.436 27.464 11.916 26.122 33.111-3.423 54.03-89.476 18.397-112.104 68.572-8.186-57.92 54.649-37.67 83.06-64.85 10.125-9.686 5.72-29.063-14.89-32.195 5.822-3.29 11.993-4.81 17.813-4.64zm-192.185 89.572c-19.31-.18-37.892 8.714-47.117 26.137 14.682 51.855 87.82 42.854 103.023 10.254-11.2-24.32-34.02-36.184-55.906-36.39zm168.004 0c19.31-.18 37.89 8.714 47.115 26.137-14.684 51.855-87.817 42.854-103.02 10.254 11.2-24.32 34.02-36.184 55.905-36.39zm-94.613 43.19c-18.674 35.045-69.98 71.409-108.145 39.164 24.196 52.075 108.984 32.977 108.145-39.16zm27.67 0c18.673 35.045 69.982 71.409 108.146 39.164-24.195 52.075-108.985 32.977-108.146-39.16z"/></svg>