<svg xmlns="http://www.w3.org/2000/svg" viewBox="0 0 512 512"><path d="M65.406 22.44C-32.61 123.463 45.7 279.383 140 313.03c110.753 39.517 281.45-48.678 329.688 68.314 2.887 11.273 2.674 21.795.312 31.47-4.584 18.77-17.86 34.842-35.094 45.405-17.233 10.562-38.186 15.343-56.875 12.25-18.688-3.095-35.237-13.375-46.06-34.846-7.256-14.418-7.834-25.935-5.25-34.719 2.582-8.782 8.476-15.232 16.091-19.06 15.233-7.66 36.521-4.87 49.221 17.625 7.496 13.276 2.583 22.545-3.781 26.529-3.182 1.992-6.636 2.58-10.315 1.375s-8.098-4.4-12.06-12.156l-16.625 8.5c5.66 11.08 13.76 18.426 22.844 21.404s18.622 1.376 26.06-3.28c14.877-9.313 21.654-31.144 10.125-51.564-17.02-30.146-50.186-37.034-73.873-25.123-11.843 5.956-21.537 16.6-25.625 30.5-4.087 13.9-2.42 30.645 6.5 48.375 13.307 26.393 35.835 40.926 59.69 44.875 23.852 3.95 48.937-2.013 69.716-14.75 20.78-12.736 37.513-32.51 43.471-56.906 4.178-17.11 2.728-36.26-5.844-55.844q.017-.296.03-.593c-.86-1.67-1.737-3.303-2.623-4.907-3.296-6.525-7.391-13.095-12.346-19.625l-.22.159c-15.119-20.04-33.1-33.376-53.624-43.282-29.513-14.245-64.507-20.966-102.375-27.937-75.736-13.944-163.31-29.619-236.344-115.533l14.221-12.092c69.026 81.2 149.666 95.257 225.5 109.219 37.916 6.98 74.521 13.763 107.123 29.5 22.7 10.954 43.322 26.471 60.406 48.966C464.097 111.956 141.36 206.985 65.406 22.44z"/></svg>