<svg xmlns="http://www.w3.org/2000/svg" viewBox="0 0 512 512"><path d="m259.127 16.936-.002.002-42.904 111.156L97.344 164.25l106.53-4.22-36.436 94.408L270.156 106.25l50.221 64.406zm50.406 63.693 36.373 102.275-102.343-6.75 172.064 53.877-46.5 67.125 128.469-104.28-116.94-7.689zm-123.47 98.965-.008.002h.01zm-.008.002L20.97 190.437l87.935 71.375-.375 127.125 27.75-104.908 82.346 66.846L109.346 207.5zm71.164 18.966c-22.404.002-44.817 25.945-67.219 77.875 43.462 77.53 88.133 86.365 134.438 0-22.403-51.928-44.814-77.873-67.217-77.875zm.406 15.688c11.05 8.62 19 30.54 19 56.438 0 25.895-7.95 47.818-19 56.437-11.05-8.62-19-30.54-19-56.437s7.95-47.819 19-56.438zm82.53 10.594 5.19 180.22L266.75 383l140.47 87.438-30.408-111.313 73.563-103.47L367.5 325.03l-27.344-100.185zM152.938 309.03l-43.593 159.594 98.906-61.53 120.656 39.436-90.5-58.217 87.094-54.187-171.22 56.53z"/></svg>