<svg xmlns="http://www.w3.org/2000/svg" viewBox="0 0 512 512"><path d="M231.504 20.396C193.77 19.904 152 37.615 126.134 57.857c-40.165 32.88-74.244 84.108-93.63 146.225s-20.494 123.63-6.158 173.514c14.337 49.883 44.656 88.692 88.08 102.238 106.06 24.782 226.483 8.176 305.424-28.504 24.29-1.026 68.942 3.34 74.586-6.822 3.926-7.068-4.584-74.09-25.143-88.844C445.468 182.72 422.601 59.65 256.736 23.838c-8.032-2.245-16.524-3.328-25.232-3.442zm-8.072 16.397c9.494.008 18.851 1.39 27.945 4.227 36.373 11.347 62.963 44.19 76.137 90.03 13.175 45.84 12.393 104.12-6.04 163.179-18.43 59.058-50.934 107.442-87.845 137.658s-77.467 42.11-113.84 30.763-62.968-44.188-76.143-90.029-12.39-104.12 6.041-163.18c18.432-59.057 50.937-107.44 87.848-137.656 27.683-22.662 57.416-35.018 85.897-34.992zm9.793 19.717c-27.712.493-64.49 13.887-80.21 33.84h-.001l30.115 142.85zm24.23 7.974c-4.214-.702-57.045 171.713-57.045 171.713L310.9 155.13c-.62-20.61-27.34-82.68-53.445-90.645zm-125.158 46.584c-24.488 18.994-43.871 58.246-51.621 86.387l85.66 42.03zm184.467 70.633-110.729 74.242 95.598 25.569c7.185-27.973 15.553-73.328 15.13-99.81zm-244.52 38.58c-9.37 25.663-16.358 50.834-16.855 75.5l106.756-35.818zm130.977 51.83 65.797 80.002c15.402-16.993 22.596-34.687 28.52-50.978zm-40.024 5.145L57.162 322.51c-.675 29.088 8.752 58.464 21.25 80.527zm27.39 5.533 2.811 151c36.41-15.04 56.475-44.404 67.948-62.568zm-16.505 2.457L91.42 424.738c18.588 17.405 57.63 22.588 83.506 17.073z"/></svg>