<svg xmlns="http://www.w3.org/2000/svg" viewBox="0 0 512 512"><path d="M256 56 25.05 456h461.9zm-5.76 97.506h15.094v42.734h7.74v10.53h-7.74v14.72h-13.162v-14.72H225.1v-11.75zm1.944 13.271-17.075 29.463h17.075zm104.304 187.744a32.1 32.1 0 0 1 10.096 9.418q4.504 5.894 5.82 18.983a100 100 0 0 0 2.293 15.166 14.08 14.08 0 0 0 6.438 8.514 10.87 10.87 0 0 0 7.463 1.496 8.45 8.45 0 0 0 5.916-4.551q3.042-5.325.17-9.516a22.7 22.7 0 0 0-6.534-5.482l6.485-11.338q7.414 4.613 10.674 9.744 6.206 9.805-.616 21.734l-.011.012q-5.41 9.431-13.815 12.016-8.403 2.584-17.002-2.33a21.52 21.52 0 0 1-9.455-10.639 45.2 45.2 0 0 1-2.717-12.822l-.64-6.57q-.593-6.171-1.063-8.586a15.2 15.2 0 0 0-1.678-4.577l-14.828 25.912-10.275-5.878zm-193.66 11.627 6.703 12.077-41.213 22.943 7.885 14.03-7.992 4.456a59 59 0 0 0-5.072-7.353 12.53 12.53 0 0 0-6.34-4.01 11.8 11.8 0 0 0-5.567.086 11.3 11.3 0 0 0-2.644.88l-5.457-9.806z"/></svg>