<svg xmlns="http://www.w3.org/2000/svg" viewBox="0 0 512 512"><path d="M62.52 17.166q-.617-.007-1.24.012l-.005-.002c-9.747.288-20.821 5.23-29.841 14.25C16.243 46.62 12.597 67.62 23.31 78.334c7.99 7.988 21.713 8.027 34.468 1.22 16.166 30.05 42.154 57.687 71.438 76.374-18.77 24.156-29.97 54.48-29.97 87.375h18.69c0-28.9 9.826-55.474 26.342-76.53l2.157 39.405c2.91 2.622 5.82 5.224 8.732 7.832 4.356-12.66 10.488-24.082 18.783-33.344l13.059-14.578 2.566 19.4c3.6 27.192 6.476 50.555 9.908 67.99 15.483 13.69 30.924 27.27 46.223 40.555 5.405-2.125 11.38-3.682 17.63-5.1 18.31-4.147 40.414-6.538 60.06-9.835-37.685-43.742-77.43-88.55-117.247-132.668l-38.968-2.125c20.764-15.68 46.636-24.965 74.718-24.97v-18.69c-32.2.003-61.944 10.727-85.843 28.78-18.697-29.381-46.39-55.48-76.53-71.685 6.794-12.748 6.797-26.422-1.187-34.406-4.08-4.08-9.645-6.094-15.819-6.168zm319.775 2.682-51.34 54.99 27.06 85.992L419.644 176l16.406-49.58-45.104-23.934-8.447 23.213 15.62 9.598 2.673-11.535 14.617 7.539-5.763 27.047-49.16-27.498L384 78l43.107 24.766 17.795-57.682zM203.789 32.305c-23.41 22.86-38.651 47.65-46.437 71.302.95 1.23 1.894 2.47 2.818 3.72 19.074-11.54 40.617-18.787 62.72-21.53-8.527-18.76-16.009-37.234-19.1-53.492zm139.291 3.027c-2.256.45-43.49 8.084-53.945 9.863l-13.783 97.078 75.595 85.483 116.612-14.272 24.63-100.953-44.634-18.63-4.657 15.091 12.77 8.858-26.49 79.73-85.479-21.86-31.406-99.814zm-99.758 99.93c-8.034.007-15.98.746-23.937 2.43a9462 9462 0 0 1 40.824 45.27c-.502-13.06-6.45-29.622-14.357-47.657-.843-.015-1.687-.044-2.528-.043zm49.07 53.299-.001.001a234 234 0 0 0-15.815 12.737 6066 6066 0 0 1 40.686 46.174c13-2.56 26.226-6.366 38.98-11.928-21.436-4.717-51.768-8.685-60.722-26.168a235 235 0 0 1 9.285-6.924c-2.27-2.522-2.445-2.702-4.967-5.52-2.645-2.953-4.985-5.601-7.445-8.372zm-117.269 24.687c-7.373 17.72-11.072 40.45-10.781 63.322.422 33.24 5.288 63.63 16.853 79.524-18.443 39.608-40.689 81.563-69.341 102.687h-.004c-26.502 18.904-51.612 14.404-63.868.623-6.127-6.89-9.44-16.274-7.978-28.258 1.45-11.88 7.924-26.429 22.244-42.209 11.966-10.247 21.69-14.277 28.156-14.955 6.552-.687 9.854 1.216 12.336 4.329 4.963 6.226 5.05 20.81-7.478 31.326l12.011 14.316c19.1-16.03 22.676-41.488 10.082-57.29-6.297-7.9-17.036-12.51-28.9-11.268-11.865 1.245-24.787 7.552-38.885 19.76l-.41.357-.363.4c-16.57 18.11-25.298 36.22-27.342 52.973s2.875 32.042 12.565 42.94c19.38 21.79 56.223 25.322 88.68 2.175l.003-.002a161 161 0 0 0 16.992-13.967c29.887-7.726 58.961-10.74 92.3-37.435-21.194.977-40.373-1.701-53.542-15.131 13.405-25.285 23.346-52.814 34.78-79.87 4.152-9.832 8.482-19.623 13.212-29.284a8956 8956 0 0 1-13.22-11.606 48 48 0 0 1-1.582-.322l-5.325 15.978c-7.244-2.413-12.01-8.343-15.4-15.105s-5.785-14.941-7.92-24.631c-2.96-13.43-5.385-30.651-7.875-49.377zm192.201 78.113a169 169 0 0 1-3.15 10.75 3913 3913 0 0 1 38.072 45.721c15.284-8.49 29.939-19.356 42.94-32.674-23-3.926-50.907-14.148-77.862-23.797zm-19.045 1.067c-26.425 7.104-58.292 8.923-80.963 14.06-13.756 3.117-23.042 7.92-25.418 11.51-1.187 1.795-1.65 3.266-.867 6.85.784 3.583 3.326 9.054 8.584 16.039l.004.006.004.005c15.597 20.782 35.098 23.191 55.207 12.301 17.34-9.387 34.29-30.29 43.45-60.77zm9.196 26.633c-8.447 18.075-19.743 32.47-32.63 42.464 62.56 52.325 120.89 98.434 169.995 133.31-34.996-50.88-83.144-111.509-137.365-175.774z"/></svg>