<svg xmlns="http://www.w3.org/2000/svg" viewBox="0 0 512 512"><path d="M212.83 35.623c-12.82 10.724-20.543 21.83-24.217 32.926a123 123 0 0 1 10.61 7.355c18.394 14.256 32.84 33.77 42.568 57.57a61 61 0 0 1 2.965-.583c-2.212-21.11 3.236-40.854 14.096-57.338a103 103 0 0 1 4.863-6.758c-11.44-14.252-29.13-26.33-50.885-33.172zm125.285 6.354c-26.846 8.092-50.512 23.9-63.66 43.857-9.01 13.676-13.484 29.048-11.176 46.25 4.738.386 9.173 1.22 13.27 2.428 12.39-24.598 34.287-41.71 59.39-52.16 5.786-2.41 11.757-4.485 17.842-6.29-1.09-10.29-5.892-21.675-15.666-34.085zM116.123 67.334a148 148 0 0 0-2.746.004c-1.5.016-3.07.174-4.594.234-.117 11.4 1.592 21.513 4.848 30.502 38.23 2.13 75.457 18.376 105.676 46.004a47 47 0 0 1 5.09-3.642c-8.564-21-21.036-37.68-36.622-49.758-19.26-14.926-43.407-23.125-71.652-23.344zM422.811 85.48c-27.095.03-55.829 4.193-79.692 14.125-22.266 9.27-40.026 22.904-49.92 43.176 3.183 2.446 5.877 5.22 8.033 8.239 27.672-18.518 58.117-30.99 88.71-35.586 10.19-1.532 20.412-2.174 30.538-1.854 2.562.08 5.117.232 7.665.436 5.175-8.07 8.955-17.332 11.046-27.989-5.368-.328-10.815-.552-16.38-.547zm-318.112 30.688c-22.183.178-44.554 5.982-65.79 17.78 9.142 9.83 19.124 18.12 29.76 24.94 14.157-5.565 29.432-8.977 45.144-10.386a196 196 0 0 1 15.78-.77c25.76-.224 52.379 4.47 77.632 13.495.237-.727.51-1.442.796-2.153-28.37-26.775-63.215-41.948-98.884-42.867a137 137 0 0 0-4.436-.039zm311.807 15.982-.002.002c-7.835-.04-15.78.557-23.783 1.76-27.66 4.157-55.845 15.743-81.617 33.08 24.37-5.826 48.428-8.58 71.128-7.785 11.106.388 21.888 1.623 32.221 3.76 15.675 3.242 30.357 8.705 43.412 16.46 11.013-6.62 20.739-15.16 28.774-25.755-20.2-13.863-42.912-20.774-66.784-21.463a138 138 0 0 0-3.35-.059zm-159.377 18.368c-22.344 0-32.114 11.655-32.795 19.689-.34 4.015.887 7.647 5.518 11.256 4.63 3.61 13.214 6.853 26.773 6.853 12.317 0 20.56-3.133 25.43-6.884s6.607-7.93 6.588-11.97c-.04-8.075-7.755-18.944-31.512-18.944zm-127.385 15.914c-4.81.036-9.572.263-14.262.683-33.576 3.012-63.03 15.752-82.605 39.364 17.717 7.944 35.93 13.317 54.13 15.97 11.21-11.392 24.728-20.34 39.485-26.916 23.284-10.375 49.654-15.345 75.932-16.09-23.713-8.652-48.803-13.19-72.68-13.011zm246.81 11.388c-19.756-.16-40.94 2.546-62.544 7.815 23.82 3.452 48.044 10.302 68.724 21.763 15.92 8.824 29.708 20.93 38.948 36.178 21.276.118 42.66-3.086 62.81-9.41-14.576-29.192-40.39-45.983-73.826-52.898-9.192-1.902-18.933-3.005-29.082-3.344q-2.498-.084-5.03-.104zm-169.429 20.268c-25.65.306-51.389 4.877-73.025 14.517-27.956 12.457-48.87 32.61-56.768 63.96 21.466 1.762 43.832.622 64.572-3.913 1.705-12.368 6.455-23.946 13.725-34.168 12.202-17.157 30.625-30.815 52.445-40.396-.315.002-.63-.004-.947 0zm91.44 4.652c20.04 12.812 36.378 29.854 45.058 49.475 4.064 9.19 6.334 19.062 6.25 29.096 20.956 6.728 44.18 10.074 65.217 10.666 2.086-33.004-14.98-53.579-41.416-68.23-21.428-11.876-48.99-18.515-75.11-21.007zm-33.76 3.764c-17.39 19.093-19.03 41.607-10.768 63.982 8.28 22.426 27.31 43.556 50.207 55.633 13.745-10.66 21.566-21.53 24.875-31.947 3.663-11.537 2.477-22.946-2.59-34.399-9.5-21.48-33.718-41.951-61.724-53.27zm-23.336.053c-30.815 7.842-56.89 23.47-70.61 42.76-14.353 20.18-16.878 43.598 1.371 71.857 26.172-8.027 50.604-22.319 65.99-39.89-.6-1.434-1.178-2.873-1.714-4.325-8.413-22.785-8.062-48.411 4.963-70.402zm17.873 107.927.002.002v-.002zm.002.002c5.693 38.748-4.568 80.959-25.375 120.891 5.392 7.847 10.07 17.2 13.931 28.287 3.788-15.917 9.673-28.874 17.184-39.434 4.933-6.935 10.515-12.77 16.494-17.744 6.97-21.758 10.257-43.97 9.47-66.148-11.905-6.877-22.666-15.702-31.704-25.852zm-72.496 25.489c-8.437 19.543-15.834 38.149-19.994 55.082 5.614 1.292 11.379 2.759 17.189 4.62 12.478 4.004 25.248 10.06 36.52 20.286 7.345-15.275 12.977-30.73 16.619-45.955-4.204-2.083-8.45-4.197-12.739-6.46-13.07-6.897-26.353-15.24-37.595-27.573zm167.006.886c-14.568 11.836-30.003 19.289-44.973 25.846a215 215 0 0 1-4 24.961c2.764-1.35 5.54-2.61 8.318-3.775 15.086-6.33 30.287-10.436 43.485-15-.236-10.133-1.33-20.852-2.83-32.032zm42.966 32.416c-8.044 6.504-17.502 11.096-27.224 14.817-16.096 6.16-33.432 10.43-49.164 17.029-15.733 6.602-29.656 15.23-40.12 29.941-9.41 13.232-16.259 31.882-18.029 59.623 68.802.31 104.793-16.824 122.09-40.94 15.153-21.126 17.281-49.698 12.447-80.47zm-285.867 23.5c-.722 28.213 4.304 52.752 19.18 69.727 17.094 19.505 48.977 31.408 106.346 27.033-4.808-25.246-12.665-41.695-21.85-52.812-10.345-12.518-22.578-18.85-36.297-23.248-13.72-4.4-28.75-6.518-43.334-10.577-8.268-2.3-16.524-5.418-24.045-10.123z"/></svg>