<svg xmlns="http://www.w3.org/2000/svg" viewBox="0 0 512 512"><path d="m460.02 115.87-19.795 13.651h31.64V115.87zM87.213 146.323c-12.213 0-19.87 10.103-22.117 22.106-.903 4.863-3.602 15.91-4.946 21.306h424.852a43.6 43.6 0 0 0 .998-9.23v-20.803a13.38 13.38 0 0 0-13.338-13.379zm-48.254 1.197c-.945.01-1.871.158-2.711.231a20 20 0 0 0-2.352.389c-.714.168-1.354.252-1.921.441l-1.438.441-1.23.39 1.23.376 1.375.441c.525.147 1.103.442 1.723.694a17 17 0 0 1 1.941.914c.662.389 1.356.703 2.028 1.176.672.472 1.366.872 1.996 1.418a23 23 0 0 1 1.857 1.617l.861.84c.273.294.526.598.79.892a22 22 0 0 1 1.396 1.776 22.6 22.6 0 0 1 1.975 3.306 13.4 13.4 0 0 1 .912 2.323l.084.335a.18.18 0 0 1 0 .125v.168l1.271-.88a51.4 51.4 0 0 1 5.147-14.555 20 20 0 0 0-2.637-1.05c-.987-.316-1.985-.643-3.035-.874a34 34 0 0 0-1.553-.355l-1.588-.264a31 31 0 0 0-3.148-.315c-1.01-.064-2.028-.01-2.973 0zm15.059 59.018C44.567 217.04 26 219.885 26 225.44c0 6.816 52.076-8.399 50.973 30.602-1.722 60.782-31.704 60.793-35.989 125.732a13.463 13.463 0 0 0 13.41 14.356h74.403a16.17 16.17 0 0 0 15.848-12.98c10.312-51.163 22.23-98.838 30.916-139.06 3.024-14.018 20.455-20.151 30.537-20.151h236.51a43.37 43.37 0 0 0 34.769-17.399zm152.08 34.16a22.8 22.8 0 0 0-11.551 3.834 143 143 0 0 0 2.467 7.434 92 92 0 0 0 3.843 9.137 54 54 0 0 0 2.206 4.033 33 33 0 0 0 2.384 3.39 17.3 17.3 0 0 0 2.457 2.522 8.4 8.4 0 0 0 1.188.87 6.7 6.7 0 0 0 1.049.6l.904.368c.273.074.512.158.701.158l.568.113-.494-.303c-.158-.095-.358-.21-.578-.357l-.672-.61a6 6 0 0 1-.722-.84 7 7 0 0 1-.727-1.05 15.3 15.3 0 0 1-1.28-2.824 30 30 0 0 1-.966-3.57 50 50 0 0 1-.64-4.118 85 85 0 0 1-.464-9.146c-.01-3.34.127-6.575.327-9.64zm43.865.043v38.56a9.073 9.073 0 0 1-9.074 9.075l-.01.01h-58.053l-1.363 5.953h65.38a9.073 9.073 0 0 0 9.073-9.072v-44.526zm-132.748 32.45a11.96 11.96 0 0 1 11.97 11.958l-.011.002a11.961 11.961 0 1 1-11.96-11.96zm-15.49 82.77a11.961 11.961 0 1 1-11.961 11.962 11.96 11.96 0 0 1 11.96-11.961z"/></svg>