<svg xmlns="http://www.w3.org/2000/svg" viewBox="0 0 512 512"><path d="M256.717 15.525s-34.385 56.154-34.385 75.143c0 12.812 5.063 22.368 12.436 28.5 5.633 4.823 12.896 7.799 20.896 8.039 17.535.9 35.436-10.865 35.436-36.539.002-18.993-34.383-75.143-34.383-75.143zM206.166 79.94v.002l.004-.002zm0 .002c-23.86 9.82-40.332 27.916-52.496 52.655-18.018 36.645-24.874 88.532-25.535 146.586h62.68c-2.795 14.47-3.948 30.726-4.07 47.943-1.696 14.567 8.944 76.447 8.944 76.447s30.257-50.032 35.737-66.283c6.153 24 22.818 68.678 22.818 68.678s16.507-44.24 22.73-68.324c5.797 16.617 35.62 65.93 35.62 65.93s10.945-63.664 8.863-77.042c-.147-16.997-1.303-33.046-4.066-47.35h62.156c-.662-58.054-7.517-109.94-25.535-146.585-11.04-22.452-25.632-39.431-46.067-49.721a52 52 0 0 1 1.108 10.691c0 28.803-23.55 52.356-52.354 52.356s-52.353-23.552-52.353-52.356c0-4.709.64-9.275 1.82-13.625zm-51.275 4.928C68.12 86.09-3.261 175.691 25.029 269.715c12.356 41.064 72.851 67.428 104.264 50.226-59.21.1-76.798-64.219-58.488-108.834 10.297-25.09 27.425-40.574 50.732-44.043 3.926-15.375 8.961-29.7 15.36-42.712 7.416-15.08 16.88-28.326 28.488-39.192a129 129 0 0 0-10.494-.29zm196.67 0c-3.013.037-6.045.191-9.09.447 11.53 10.836 20.935 24.027 28.314 39.034 6.358 12.93 11.37 27.156 15.285 42.418 24.447 2.792 42.34 18.452 52.961 44.337 18.31 44.614.72 108.935-58.49 108.836 31.413 17.204 91.91-9.162 104.268-50.226C513.099 175.69 441.717 86.09 354.945 84.87a127 127 0 0 0-3.382 0zm-25.938 80.848c11.335 4.365 19.38 15.354 19.38 28.226 0 16.704-13.54 30.244-30.24 30.244-15.346 0-28.017-11.434-29.974-26.248 20.755-5.506 33.461-17.011 40.834-32.222zm-143.56.01c7.38 15.212 20.089 26.717 40.857 32.218-1.96 14.81-14.63 26.243-29.973 26.243-16.7 0-30.242-13.54-30.242-30.245 0-12.865 8.035-23.845 19.357-28.216zm108.48 74.513-36.7 76.045-36.698-76.043 36.697 25.143zm-120.06 119.762s-51.736 72.637-56.19 89.27c-11.81 44.067 49.135 57.507 60.22 16.136 4.456-16.63-4.03-105.406-4.03-105.406zm165.328.002c-.001.006-8.488 88.775-4.034 105.404 11.086 41.37 72.033 27.932 60.223-16.137-4.455-16.63-56.19-89.267-56.19-89.267zM228.14 383.73s-29.391 58.982-30.725 71.635c-3.538 33.527 42.495 36.31 45.816 4.836 1.336-12.652-15.09-76.47-15.09-76.47zm51.787 0s-16.43 63.817-15.094 76.47c3.32 31.474 49.356 28.692 45.818-4.835-1.333-12.652-30.722-71.63-30.724-71.635z"/></svg>