<svg xmlns="http://www.w3.org/2000/svg" viewBox="0 0 512 512"><path d="M146.24 120.334c-23.036 0-52.224 9.79-76.38 31.71-22.6 20.514-40.275 52.013-42.4 94.956H22v18h36v-18H45.48c2.032-38.054 17.271-64.194 36.48-81.627 20.687-18.774 46.56-27.041 64.28-27.041s43.56 8.265 64.233 27.04c15.496 14.072 28.41 33.829 33.908 60.939a31.6 31.6 0 0 1 11.86-2.31c2.077 0 4.11.209 6.081.595-6.12-31.684-21.29-55.785-39.748-72.547-24.138-21.92-53.298-31.713-76.334-31.713zm-9 40.088V247H130v18h36v-18h-10.76v-86.578zm119 81.578c-7.838 0-14 6.16-14 14s6.162 14 14 14c7.84 0 14-6.16 14-14s-6.16-14-14-14zM454 246.998V265h13c-2.032 38.053-17.27 64.192-36.48 81.625-20.686 18.774-46.56 27.04-64.28 27.04-17.718 0-43.56-8.263-64.232-27.038-15.496-14.073-28.41-33.827-33.908-60.938a31.6 31.6 0 0 1-11.86 2.309c-2.078 0-4.11-.208-6.082-.594 6.12 31.683 21.292 55.785 39.75 72.547 24.138 21.92 53.297 31.713 76.332 31.713 23.036 0 52.223-9.789 76.38-31.709 22.6-20.513 40.276-52.015 42.4-94.957H490v-18zM76 247v18h36v-18zm108 0v18h36v-18zm108 0v18h36v-18zm54 0v18h11.24v86.078h18V265H382v-18zm54 0v18h36v-18z"/></svg>