<svg xmlns="http://www.w3.org/2000/svg" viewBox="0 0 512 512"><path d="M443.805 69.348a3.5 3.5 0 0 0-.487.011c-12.998 1.235-31.783 19.242-24.832 30.295 3.356 5.336 13.305-.723 18.375-4.468 6.51-4.808 13.782-12.885 12.416-20.86-.41-2.39-3.024-4.876-5.47-4.978zm-57.483 5.646c-8.19.032-26.684 20.257-25 33.406.65 5.08 7.207 9.604 12.31 9.196 7.354-.59 12.785-8.994 15.395-15.89 3.123-8.253 6.932-23.048-1.213-26.44a3.8 3.8 0 0 0-1.492-.27zm2.477 56.145a57 57 0 0 0-12.344 1.283c-11.92 2.58-22.49 8.992-27.15 16.5-.004.008-.007-.008-.012-.012.02.03.06.12.176.61.257 1.092 1.212 3.268 2.597 5.863 2.77 5.19 8.083 12.27 6.315 22.35-2.377 13.552-12.455 21.748-19.912 28.853-.475.453-.903.878-1.354 1.316q.3 1.83.487 3.707c.876 8.88.195 18.302-3.416 26.438.867.716 1.735 1.27 2.56 1.588 6.51 2.502 18.692-1.57 27.11-7.795 5.37-3.972 9.216-10.37 12.972-18.442s7.246-17.554 13.274-26.32c2.182-3.176 4.616-5.909 7.052-8.389-2.554-7.28-3.337-15.11-1.02-22.623 2.336-7.574 7.149-14.296 13.202-19.853-.148-.11-.296-.23-.445-.32-5.107-3.06-12.35-4.71-20.09-4.754zm50.072 9.359a9 9 0 0 0-1.267.078c-2.357.28-5.851 1.578-9.334 3.766-6.967 4.376-13.558 12.552-14.938 17.03-.77 2.497-.33 9.122 1.82 13.91 1.78 3.961 3.69 5.436 4.83 5.945.358-.657.828-1.47 1.368-3.305 1.39-4.735 2.081-11.754 5.394-18.637 3.4-7.062 8.74-12.181 11.736-16.394.878-1.234.956-1.58 1.317-2.305a6 6 0 0 0-.926-.084zM285.533 155.41v.002l-58.822 44.12c4.327 11.117 10.303 31.646 10.303 31.646l-9.834 13.342-11.237-15.45-8.927-27.894h-12.682l-29.252 43.877 5.912 28.965-36.85-32.243-92.828 75.522 10.75 23.457 50.147-6.326 53.844-31.336 50.834 8.187 8.367 1.237-4.215-3.51 1.273-5.414c2.75-11.698 11.897-22.635 24.286-35.38 12.388-12.742 28.288-26.233 45.093-37.98a324 324 0 0 1 3.48-2.398c1.75-8.443 6.424-16.227 11.29-23.008 3.573-4.98 7.436-9.29 11.496-12.556 2.03-1.632 4.087-3.035 6.637-4.067 1.275-.516 2.802-1.001 4.521-1.148a11.96 11.96 0 0 1 5.664.896c1.68.7 3.091 1.605 4.291 2.643.523-.515 1.1-1.06 1.6-1.565zm32.867 51.697c-2.15 1.888-4.824 4.748-7.312 8.215-5.457 7.604-8.88 17.797-8.47 21.383.04-.004.265.43.935.904.947.67 2.482 1.108 2.832 1.12 3.006.098 9.538-4.114 11.176-7.58 1.623-3.436 2.76-11.358 2.128-17.77a30.3 30.3 0 0 0-1.287-6.272zm-15.783 29.598h-.002c-.016.002-.008.06.026.25-.013-.074-.015-.17-.024-.25zm95.988-3.38c1.572 7.581 1.295 16.09.034 24.747-2.49 17.077-9.144 36.21-17.659 54.864a337 337 0 0 1-11.28 22.404l20.52 3.031 91.26 22.768-8.523-55.903-21.482-36.92-23.43 7.811-16.154 28.795 9.129-43.545 21.144-9.063-2.758-4.738zm-17.293 6.812c-1.985 2.21-4.207 4.293-6.751 6.174-11.307 8.364-27.885 16.425-44.276 10.123a33 33 0 0 1-7.887-4.366c-4.762 3.095-10.423 4.854-16.605 4.65-4.77-.156-8.942-1.796-12.647-4.42-1.752-1.24-3.452-2.774-4.875-4.636-14.494 10.46-28.228 22.263-38.763 33.1-8.307 8.545-14.399 16.95-17.477 22.306l23.22 19.34c6.955-6.846 16.985-15.511 27.228-23.691 6.957-5.558 13.792-10.652 19.656-14.305 2.93-1.827 5.555-3.305 8.357-4.373 1.4-.534 2.837-1.008 4.82-1.168s5.106.009 7.963 2.389 3.587 5.418 3.79 7.398c.2 1.98-.008 3.481-.28 4.955-.544 2.95-1.523 5.796-2.79 9.01-2.534 6.427-6.304 14.07-10.513 21.92-6.194 11.55-12.904 22.983-18.38 31.059l23.222 19.341c4.713-3.996 11.878-11.504 18.78-21.22 9.503-13.375 19.466-30.66 27.5-48.264 8.037-17.603 14.128-35.617 16.22-49.982.88-6.043.977-11.16.488-15.34zm-78.435 65.615a292 292 0 0 0-9.164 7.03c-12.01 9.592-24.005 20.702-28.615 25.583.282 4.886 1.298 8.09 2.254 9.133 1.01 1.1 3.36 2.305 10.28 1.31 3.965-5.412 12.723-19.222 19.99-32.77a292 292 0 0 0 5.255-10.286zm-45.73 41.658-78.202 93.887c6.896.442 13.968.789 21.192 1.05l70.037-84.083zm-32.034 10.332c-15.155.146-29.9.68-44.049 1.569l-12.21 15.84-4.856-14.565c-21.108 1.803-40.613 4.394-57.873 7.61l-1.336 47.68-11.594-45.073a350 350 0 0 0-7.463 1.72c-18.672 4.534-33.576 9.968-43.076 15.422s-12.138 10.133-12.138 12.233 2.638 6.778 12.138 12.232 24.404 10.887 43.076 15.42c20 4.857 44.37 8.75 71.567 11.33zm125.078 8.606c-9.646 13.379-18.384 23.52-28.818 28.088l-5.094 2.228-32.273-26.883-60.647 72.81c3.367.04 6.75.063 10.159.063 57.95 0 110.438-5.756 147.783-14.824 18.673-4.533 33.576-9.967 43.076-15.42 9.5-5.455 12.14-10.132 12.14-12.232s-2.64-6.78-12.14-12.233-24.404-10.888-43.076-15.422c-1.168-.283-2.396-.555-3.594-.832l-14.178 50.64-1.726-53.964a482 482 0 0 0-11.612-2.02z"/></svg>