<svg xmlns="http://www.w3.org/2000/svg" viewBox="0 0 512 512"><path d="M346.646 22.945c-19.81.144-40.98 6.646-48.193 25.36A39.33 20.719 0 0 0 279.4 66.033a39.33 20.719 0 0 0 36.664 20.649c17.706 4.338 42.704-3.822 56.313-25.166 22.5 9.72 50.154 21.74 56.613 47.18 13.014 51.25-19.248 147.44-38.238 153.952-54.464 18.681-114.533 21.17-152.467 45.692-43.773 28.295-72.155 82.247-111.75 92.455-32.22 8.307-96.03-7.227-103.889 18.01-1.202 8.7 6.013 16.63 25.915.074 28.679 7.782 106.19 35.344 179.18-23.145a170 170 0 0 0 14.202 7.9c.994 27.817 8.108 57.607 12.526 85.423h46.705l-4.916-44.467c4.988-16.298 11.011-25.643 14.695-43.342l17.664 3.461c-2.009 10.255-3.903 12.287-7.556 22.088 10.685.506 22.865-.07 33.892-1.026-7.715-17.77-11.884-41.54-15.885-57.37l17.45-4.41c5.517 21.824 14.343 52.147 17.984 60.296 3.248 7.27 11.303 64.77 11.303 64.77h37.222l7.516-85.74c28.595-16.92 38.099-37.13 43.639-60.215 19.358-80.647 23.886-168.75-7.448-243.842-19.615-47.005-57.366-60.762-91.875-72.01-7.463-2.65-17.643-4.382-28.21-4.305zm124.391 367.332c-6.21 7.738-13.93 15.287-23.39 22.274-1.987 24.653-3.834 51.635-5.881 76.506h32.767s-1.97-56.922-3.496-98.78zm-114.576 52.989c-11.83 1.167-25.701 1.252-39.832.293l4.838 45.498h41.787z"/></svg>