<svg xmlns="http://www.w3.org/2000/svg" viewBox="0 0 512 512"><path d="M145.14 22.188c9.508 36.594 15.32 71.882 14.22 108.306 21.73 18.495 44.074 28.209 68.035 38.932 11.813 5.288 23.99 10.82 36.37 17.69-24.701-70.606-62.676-117.77-118.624-164.928zM27.122 25.886C24.957 45.21 27.53 71.24 34.12 97.38c6.96 18.72 16.943 37.974 27.596 54.67 15.003 23.516 32.422 42.275 40.48 46.867l-9.27 16.244c-14.91-8.496-31.08-28.122-46.978-53.037-9.383-14.708-18.273-31.144-25.328-47.943v196.584l43.17 1.76c-2.8-23.055-4.248-45.878-2.73-66.516l18.615 1.383c-2.313 31.474 3.158 71.293 9.654 108.65 110.615 90.673 195.362 124.515 260.695 131.174l-95.105-66.799 40.053-15.877-142.532-71.96 38.506-1.74c-28.377-14.027-48.9-32.892-63.144-55.628l1.465-22.965c35.81 41.623 89.82 73.71 151.373 98.096l-43.164 6.068 112.763 52.193-22.388 25.518 119.699 42.32c16.61-5.68 31.058-12.678 43.66-19.464-97.364-69.615-123.58-131.641-168.033-193.961l-.008-.01c-34.93-45.653-68.47-60.901-103.4-76.535-33.725-15.094-68.977-30.613-101.79-72.559L27.124 25.887zm156.35 175.592 89.888 46.748-24.03 17.57c18.66 30.458 55.132 55.833 91.118 72.86-50.826-7.885-103.329-32.248-148.21-69.427l29.814-20.224z"/></svg>