<svg xmlns="http://www.w3.org/2000/svg" viewBox="0 0 512 512"><path d="M339.625 25.758c-45.11-.17-87.411 28.361-44.316 93.297 22.378 33.719 51.355 78.12 34.994 93.87C143.64 50.139 7.55 326.778 137.733 392.679c58.78 29.753 229.967 34.101 292.806-90.035l1.563 31.615c73.47-64.641-52.283-147.998-54.754-197.375-11.112-1.386-22.674-5.289-34.522-13.555l-1.521-1.062-.928-1.608s-9.66-16.738-12.584-36.135c-2.125-14.096-.623-29.4 9.068-41.525 4.863-6.083 11.934-11.513 22.028-15.432a108 108 0 0 0-19.264-1.808zm48.598 12.49c-19.908 1.477-31.83 7.01-38.342 15.156-6.653 8.323-7.067 18.958-5.608 28.635 1.96 13 7.523 24.577 9.676 28.697 24.727 16.282 48.02 9.22 67.572 5.104 15.364-3.235 28.93-4.596 40.104 1.77 5.991 3.413 11.524 9.038 16.168 18.193 15.894-50.993-11.464-74.977-46.297-62.053-23.093 8.568-49.96-15.34-43.209-35.463zM67.375 138.201c-33.754-1.824-64.306 47.033-.924 51.77-37.548 48.185 7.945 120.58 7.945 120.58s-22.443-66.16 35.618-114.143c-6.398-42.392-24.958-57.251-42.639-58.207zm178.47 126.319c4.62-.04 10.008.673 16.104 2.449l-4.66 16.002c-5.268-1.535-9.704-2.068-13.244-1.717-2.028.2-3.651.533-4.586 1.467-.227.227.2.47.37.802.483.953 1.265 1.89 2.276 2.838 1.123 1.054 2.503 2.077 4.133 3.059 2.307 1.389 5.077 2.673 8.317 3.812l-5.184 15.836c-9.309-2.823-18.632-1.915-24.719 1.295-2.155 1.137-4.134 2.23-4.26 4.057-.103 1.518 1.284 2.781 3.23 4.404 4.011 3.347 10.51 6.48 19.954 9.346l-3.078 16.281s-9.616-.726-20.473 2.256c-7.975 2.191-16.783 6.427-22.388 14.99 45.399 13.19 82.158 10.125 107.154-.3 16.186-6.752 27.247-16.415 31.584-26.586 6.558-15.384-5.31-28.923-35.502-32.213l-19.373-2.11 37.607-31.652 10.733 12.75-9.385 7.898c16.064 4.75 25.977 12.976 30.733 22.11 4.744 9.11 4.894 19.488.517 29.754-5.652 13.258-19.401 26.63-40.498 35.43-29.293 12.217-73.285 15.94-127.793-2.048l-7.914-2.61 2.611-7.915c6.253-18.952 20.81-28.31 34.678-32.732a32 32 0 0 1-3.098-2.942c-4.712-5.155-6.254-10.447-5.925-15.25.37-5.415 3.232-10.584 8.398-14.627 3.458-2.707 8.118-4.921 13.51-6.3-3.023-5.1-3.467-10.164-2.174-14.489 1.395-4.665 4.895-8.842 10.86-11.28 3.018-1.233 6.867-2.025 11.486-2.065zm26.862 162.43-52.289 2.74 9.982 48.63-45.554-4.95-11.303 19.31 181.924 1.92-18.03-23.67c-51.916 22.46-74.775 4.46-74.775 4.46s-15.96-28.25 10.045-48.44z"/></svg>