<svg xmlns="http://www.w3.org/2000/svg" viewBox="0 0 512 512"><path d="M413.28 123.063C366.785 123.317 306.08 143 255.845 143c-56.868 0-124.174-23.704-171-19.156-23.414 2.274-40.644 10.16-52.282 30.937-11.64 20.78-17.228 56.337-10.968 113.19 8.578 77.917 73.225 118.974 128.656 99.406 11.513-4.064 30.972-25.256 49-46.125 9.014-10.434 17.992-20.688 27.03-28.72 9.04-8.03 18.23-14.626 29.564-14.626 11.335 0 20.492 6.594 29.529 14.625 9.04 8.033 18.017 18.287 27.031 28.721 18.028 20.87 37.487 42.06 49 46.125 55.45 19.574 118.932-21.672 128.69-99.563 7.137-56.985 1.751-92.529-9.94-113.28-11.69-20.755-29.345-28.665-53.219-30.907-2.983-.28-6.05-.46-9.185-.53-1.47-.034-2.97-.04-4.47-.033zM135.063 181.72c22.378-.2 44.746 10.555 67.125 30.779-43.4 54.67-108.487 37.044-130.187 0 21.022-20.738 42.04-30.593 63.062-30.78zm234.625 0c.7-.016 1.393-.007 2.092 0 21.023.186 42.074 10.041 63.096 30.779-21.7 37.044-86.82 54.67-130.22 0 21.68-19.592 43.353-30.311 65.032-30.78z"/></svg>