<svg xmlns="http://www.w3.org/2000/svg" viewBox="0 0 512 512"><path d="m414.832 18.078.002.002c-29.377.15-59.012 16.6-73.164 58.87-18.758 56.027 67.407 137.784 33.57 221.206l48.215 41.87c35.646-92.955-52.047-200.4-34.2-251.44 12.36-35.35 35.672-38.21 56.05-26.44 19.942 11.51 30.406 30.665 17.974 54.99 33.043-12.62 37.255-51.444 9.52-77.197-3.96-3.68-9.02-7.016-14.278-10.05-12.983-7.496-28.299-11.89-43.689-11.81zM334.064 50.09 65.938 62.16l-12.52 268.254c6.35-3.422 12.763-6.356 19.127-8.965L83.81 80.063l240.33-10.82c2.91-6.818 6.27-13.175 9.923-19.153zM104.686 87.955l324.392 330.04a208 208 0 0 1-13.621 12.8L91.133 100.825l-.27.267L389.03 450.41c-14.866 9.56-30.999 17.84-48.12 25.12l116.038 19.41-7.017-44.188 44.187 7.02-19.406-116.042c-5.74 17.768-13.426 33.603-22.754 47.803L104.687 87.955zm-6.608 248.537v.002a65 65 0 0 0-2.57.016c-5.58.14-10.955.987-16.106 2.71-64.408 21.565-68.868 79.083-47.06 116.854 24.26 42.03 72.824 42.517 87.244 4.76-24.33 12.43-43.474 1.957-54.99-17.98-11.763-20.378-8.91-43.69 26.435-56.045 50.177-17.548 154.964 66.774 248.365 34.238l-40.755-47.75c-73.316 27.468-146.276-36.115-200.563-36.805z"/></svg>