<svg xmlns="http://www.w3.org/2000/svg" viewBox="0 0 512 512"><path d="m38.643 17.275-6.428 42.196c20.354 23.085 48.127 40.682 79.195 56-29.677-4.055-58.635-12.143-84.64-24.87-.292 8.614-.584 26.253.896 35.58 23.024 8.995 48.88 14.027 75.95 16.73-23.699 5.376-47.716 7.578-71.425 6.948 2.665 9.36 7.325 22.241 11.26 31.676 22.547-1.977 45.912-7.505 69.36-15.47-18.785 14.27-39.05 26.146-60.184 35.322l28.877 30.056 17.142-9.898-5.976 22.312c6.788 6.61 20.497 15.434 27.559 20.623l13.267-11.662-.338 20.2c19.91 13.99 41.057 12.083 61.15 1.718-.803 6.438-1.308 13.29-1.482 20.56-60.357 19.405-126.16 25.663-122.236 52.927l34.553 6.947-34.108 18.039c1.503 7.398 3.84 15.004 7.73 22.678L120.1 379.56l-27.93 36.666c4.726 6.13 14.61 14.821 20.537 20.513l39.47-46.238-17.962 63.475c6.238 4.326 19.387 9.329 26.273 12.869l43.313-71.076-14.139 80.248c17.225 3.487 20.708 4.809 39.82 3.189l18.188-75.658 20.297 71.851c7.333-2.51 23.208-9.526 29.974-12.664l-11.793-59.3 35.372 45.14c7.232-5.076 18.943-11.587 24.316-17.328l-17.994-37.326 31.972 18.19c25.568-17.19-44.332-57.457-86.943-100.22 6.416-8.724 11.635-17.086 15.785-25.042 19.45 27.668 44.75 39.74 75.84 29.93l-1.176-21.815 16.002 14.943c7.52-4.34 15.073-10.137 22.48-16.166l-6.99-19.133 18.696 8.745c12.732-6.638 22.917-17.1 33.08-27.59-16.19-12.562-32.92-27.904-47.49-40.243 17.74 9.162 38.716 17.522 56.89 23.952 4.27-7.49 12.045-21.065 15.463-28.702-19.626-4.04-39.434-11.263-58.412-20.58 23.383 2.56 45.728 3.052 66.367-1.136 2.805-8.642 9.82-22.678 11.123-30.996-23.616 6.897-49.243 8.779-74.924 7.029 28.832-9.016 55.295-21.067 75.561-39.81L485.689 93c-84.44 76.087-173.95 30.858-210.132 83.916a34.9 34.9 0 0 0-14.932-.56c-14.7-80.695-139.034-53.423-221.982-159.08zM293 226.156l-9.643 45.805-23.623-44.348c10.196 4.382 20.545 8.023 33.266-1.457z"/></svg>