<svg xmlns="http://www.w3.org/2000/svg" viewBox="0 0 512 512"><path d="M15.326 13v61.316c76.696 54.194 157.848 147.576 64.828 125.567 57.116 55.067 104.12 26.786 174.037 135.492 30.42 47.297 7.473 80.54-29.785 90.523-47.88 12.828-114.353-30.448-57.82-54.312-59.296-1.45-66.954 47.976-38.727 80.236-27.93-9.635-46.01-34.308-43.035-60.605-36.043 48.278-5.36 93.283 54.315 102.43h357.42v-344.57c-15.752-70.31-94.877-87.765-103.373-3.505 14.61-36.423 50.96-20.623 84.1 18.69-11.28-7.498-24.24-11.49-36.21-11.098-19.73.65-37.36 12.085-41.467 36.793 55.902-46.113 84.629 34.718 61.74 76.877-24.743 45.582-94.889-20.468-95.029-75.711-27.974 31.235-7.813 108.299 52.37 122.549C304.634 301.29 342.741 182.92 295.653 157.84 324.382 285.473 121.728 62.26 66.137 13z"/></svg>