<svg xmlns="http://www.w3.org/2000/svg" viewBox="0 0 512 512"><path d="M25 25v462h142V156.271l48-48V25h-30v48h-50V25h-30v48H55V25zm167.38 131.348-7.38 7.38v10.418c4.551-.619 9.936 1.222 13.258 3.102 3.798 2.819 11.29 7.973 9.474 13.572-4.443 3.557-12.158.99-16.488-1.455-2.554-1.478-4.656-3.285-6.244-5.09v22.153c7.553 3.05 14.707 4.827 21.854 3.879 3.51 7.926 10.723 15.014 16.917 18.681 8.36 3.946 16.533 6.437 24.627 5.364 3.506 7.927 10.725 15.012 16.918 18.68 8.36 3.943 16.532 6.436 24.625 5.363 3.51 7.926 10.724 15.014 16.918 18.681 8.36 3.946 16.533 6.435 24.627 5.361 3.506 7.928 10.724 15.015 16.918 18.682 8.36 3.945 16.532 6.437 24.625 5.363 1.285 3.252 3.346 6.525 5.31 8.95L185 363.232v37.086l276.902-68.463-8.64-34.947-20.823 5.149c-3.11-8.604-10.869-16.274-17.447-20.168-8.36-3.946-16.533-6.435-24.627-5.362-3.506-7.927-10.722-15.016-16.916-18.683-8.36-3.946-16.532-6.433-24.627-5.36-3.51-7.926-10.723-15.016-16.918-18.683-8.36-3.943-16.533-6.44-24.627-5.36-3.505-7.926-10.722-15.016-16.916-18.683-8.36-3.945-16.533-6.435-24.627-5.362-3.51-7.926-10.722-15.016-16.918-18.683-8.36-3.945-16.533-6.432-24.627-5.36-3.505-7.926-10.72-15.016-16.916-18.683-4.816-2.788-9.868-4.587-14.892-5.322zm36.839 41.718c3.679.066 7.716 1.604 10.582 3.227 3.8 2.82 11.291 7.97 9.476 13.572-4.444 3.554-12.16.988-16.488-1.455-3.8-2.82-11.295-7.97-9.476-13.572 1.618-1.32 3.698-1.811 5.906-1.772zm41.543 24.043c3.68.066 7.718 1.604 10.584 3.227 3.798 2.819 11.29 7.973 9.474 13.572-4.443 3.557-12.158.99-16.488-1.455-3.802-2.82-11.29-7.968-9.477-13.572 1.62-1.32 3.699-1.811 5.907-1.772zm41.545 24.045c3.68.067 7.716 1.604 10.582 3.227 3.798 2.819 11.292 7.97 9.476 13.57-4.444 3.557-12.16.99-16.488-1.455-3.802-2.82-11.294-7.967-9.477-13.572 1.62-1.32 3.699-1.81 5.907-1.77zm41.511 24.043c3.65.047 7.66 1.553 10.616 3.227 3.8 2.82 11.29 7.97 9.474 13.572-4.444 3.554-12.16.988-16.488-1.455-3.8-2.82-11.29-7.97-9.477-13.572 1.626-1.303 3.686-1.8 5.875-1.772zm41.545 24.043c3.65.047 7.657 1.553 10.614 3.227 3.48 2.414 7.06 5.386 8.863 8.941l-14.914 3.688c-4.09-3.23-12.418-7.978-10.438-14.084 1.626-1.302 3.686-1.8 5.875-1.772zM425 405v18h62v-18zm-75.129 35.988C327.917 441.483 307.51 460.65 288 461c-23.065-2.608-43.13-19.673-64-20-14.073 1.314-26.678 4.405-39 8.736v19.51c12.73-5.24 26.302-10.001 39-10.246 23.065 2.608 43.13 19.673 64 20 22.767.773 43.861-19.639 64-20 5.556 0 14.283 1.97 23.24 4.68 5.96-4.151 11.487-8.612 16.446-13.537C378.966 445.47 364.568 441 352 441a38 38 0 0 0-2.129-.012zm71.461.012c-11.844 20.648-29.735 34.582-49.146 46H487v-46z"/></svg>