<svg xmlns="http://www.w3.org/2000/svg" viewBox="0 0 512 512"><path d="M247.563 19.813c-13.458 0-24.344 10.917-24.344 24.375 0 13.456 10.886 24.343 24.344 24.343 13.456 0 24.375-10.889 24.375-24.344 0-13.453-10.919-24.373-24.375-24.373zm.939 70.31-.002.002c-4.414 85.037-23.308 149.063-46.156 149.063-5.667 0-11.307-4.22-16.344-11.438 1.29 41.965-4.895 68.787-19.844 67.625-5.412-.42-11.71-4.443-18.125-11.406 20.254 50.4 58.82 84.75 103.375 84.75s83.122-34.35 103.375-84.75c-6.413 6.962-12.678 10.984-18.092 11.404-16.276 1.265-22.873-29.93-19.875-78.562-6.6 13.806-14.201 22.375-22.187 22.375-22.85 0-41.71-64.026-46.125-149.063zM104.25 314.529c-51.466 16.677-84.687 41.949-84.687 69.971 0 50.166 104.812 91.096 234.187 91.094s234.188-40.928 234.188-91.094c0-28.02-33.222-53.294-84.688-69.97 27.147 12.92 43.813 29.24 43.813 47.19 0 41.414-86.506 74.81-193.313 74.81-106.805.001-193.312-33.396-193.312-74.81 0-17.95 16.665-34.274 43.812-47.19zm68.904 13.817c-28.248 9.053-46.718 22.127-46.718 37.435 0 27.24 57.065 49.625 127.314 49.625s127.313-22.386 127.313-49.625c0-15.308-18.467-28.382-46.72-37.435 14.94 7.036 24.532 15.4 24.532 25.22 0 22.485-47.132 40.686-105.125 40.686s-105.125-18.2-105.125-40.688c0-9.818 9.591-18.182 24.53-25.218z"/></svg>