<svg xmlns="http://www.w3.org/2000/svg" viewBox="0 0 512 512"><path d="M476.865 25.514 282.941 145.422l19.32 9.215L486.333 40.822zM73.6 65.508l-7.748 16.246 286.595 136.709 1.389 2.715c3.244 6.346 9.677 12.524 17.723 16.373l.003.002.004.002c8.566 4.084 17.187 5.364 23.63 4.373 6.442-.992 10.352-3.63 12.523-8.18s1.665-8.39-1.725-13.603-10.122-10.882-18.935-15.086c-8.063-3.843-16.928-4.96-23.91-3.487l-2.983.63zm121.097 97.65c-40.936 2.913-77.435 8.644-106.084 16.283-21.165 5.644-38.06 12.392-48.953 19.26C28.767 205.571 25 211.723 25 216s3.767 10.43 14.66 17.299 27.788 13.616 48.953 19.26C130.943 263.847 190.374 271 256 271c49.18 0 94.88-4.017 132.512-10.781-8.123-.325-16.546-2.53-24.703-6.422l-.002-.002-.004-.002c-10.2-4.878-18.614-12.38-24.135-21.484l-72.705-34.68-36.498 22.566c-4.5 9.65-12.051 18.02-21.662 23.977l-.002.002-.004.002c-10.715 6.625-22.297 10.072-33.281 9.588-10.985-.484-21.794-5.484-27.856-15.29-6.062-9.802-5.366-21.696-.515-31.294 4.85-9.598 13.3-17.76 23.785-24.243l.002-.001h.002c9.63-5.951 20.504-8.973 31.16-8.688l6.904-4.27zm127.432.36-.545.336 41.3 19.7c10.564-1.44 21.703.385 31.92 5.257h.005c11.125 5.306 20.412 12.503 26.275 21.52 5.863 9.013 7.845 20.763 2.88 31.167-3.08 6.457-8.178 11.27-14.2 14.395 4.699-1.07 9.273-2.174 13.623-3.334 21.165-5.644 38.06-12.392 48.953-19.26C483.233 226.429 487 220.277 487 216s-3.767-10.43-14.66-17.299-27.788-13.616-48.953-19.26c-27.516-7.337-62.286-12.91-101.258-15.923zm-93.81 15.677-21.499 13.293-3.033-.3c-7.102-.708-15.794 1.364-23.39 6.058l-.002.002c-8.305 5.135-14.382 11.503-17.186 17.05-2.804 5.55-2.89 9.422-.238 13.71 2.65 4.288 6.822 6.486 13.336 6.773 6.513.287 14.95-1.923 23.023-6.916 7.58-4.699 13.305-11.538 15.842-18.199l1.086-2.85 31.383-19.404zM39.642 253.912l26.939 44.9 33.31-24.982a409 409 0 0 1-15.92-3.879c-17.351-4.627-32.251-9.928-44.33-16.039zm432.712 0c-12.078 6.11-26.98 11.411-44.332 16.04-6.926 1.845-14.283 3.565-21.949 5.175l38.928 24.377zM487 264.492l-17.576 29.293a91 91 0 0 0 2.209-.97c5.948-2.72 10.255-5.583 12.627-7.944 2.37-2.36 2.74-3.683 2.74-4.871zm-462 .002V280c0 1.188.37 2.51 2.74 4.871 2.372 2.361 6.68 5.224 12.627 7.943q1.07.49 2.207.971zm98.639 14.027-36.737 27.553c1.874.36 3.74.72 5.674 1.065 21.728 3.862 47.224 6.792 74.612 8.775l-36.143-36.143a574 574 0 0 1-7.406-1.25zm233.996 4.538c-23.345 2.877-48.603 4.787-75.155 5.552l37.08 27.809zm27.261.045-37.195 32.59c26.286-1.98 50.764-4.83 71.723-8.555 1.01-.18 1.972-.373 2.967-.557zm-224.369.697 32.317 32.316 36.676-27.506c-24.226-.698-47.389-2.342-68.993-4.81zM256 291.25l-36.322 27.242A1318 1318 0 0 0 256 319c12.15 0 24.298-.176 36.322-.508zM25 305.121V440c0 5.5 4.3 11.699 16.09 18.436 3.953 2.259 8.63 4.452 13.91 6.554V317.13c-8.28-2.376-15.693-5.007-22.117-7.942-2.813-1.287-5.44-2.632-7.883-4.067zm462 0c-2.443 1.435-5.07 2.778-7.883 4.065-6.424 2.936-13.838 5.566-22.117 7.943V464.99c5.28-2.103 9.957-4.295 13.91-6.554C482.7 451.699 487 445.5 487 440zm-414 16.51v149.486c6.196 1.816 12.868 3.525 19.953 5.1 25.716 5.714 56.789 9.789 90.047 12.199V334.979c-34.264-1.945-66.46-5.299-93.576-10.12A430 430 0 0 1 73 321.631zm366 0a430 430 0 0 1-16.424 3.23c-27.115 4.82-59.312 8.174-93.576 10.12v153.433c33.258-2.409 64.33-6.484 90.047-12.2 7.085-1.573 13.757-3.28 19.953-5.097zm-238 14.238v153.686c18.028.96 36.517 1.443 55 1.443s36.972-.483 55-1.443V335.869a1326 1326 0 0 1-55 1.129c-18.48 0-36.947-.377-55-1.129z"/></svg>