<svg xmlns="http://www.w3.org/2000/svg" viewBox="0 0 512 512"><path d="m28.5 57 10 30h147l10-30zm288 0 10 30h147l10-30zM56.1 105 25.9 407H67l.2-210 32.8-73.1 32.8 73.1.2 210h18V199h26.3l-9.4-94zm288 0-9.4 94H361v208h18l.2-210 32.8-73.1 32.8 73.1.2 210h41.1l-30.2-302zM100 164.1 90.6 183h18.8zm312 0-9.4 18.9h18.8zM85 201v206h30V201zm312 0v206h30V201zm-228 16v30h174v-30zm0 48v142h30V295h114v112h30V265zM25 425v62h144.9l24.8-62zm189.1 0-8.4 21h100.6l-8.4-21zm103.2 0 24.8 62H487v-62zm-118.8 39-9.2 23h133.4l-9.2-23z"/></svg>