<svg xmlns="http://www.w3.org/2000/svg" viewBox="0 0 512 512"><path d="M316.463 78.563c-28.112.028-57.59 11.302-80.041 19.83-126.642-1.276-206.07 46.77-212.059 83.93-2.977 41.18-4.164 83.627-4.015 124.616l4.31 3.797c3.963-15.315 6.47-31.844 14.121-44.086 1.3 27.18 5.068 58.564 11.37 82.069-2.478 24.988-2.118 47.988-3.436 72.976 21.158 12.726 60.485 10.65 67.54 1.987 2.937-20.695 4.982-42.58 3.974-68.536l7.591-35.353c6.418-14.587 25.29-17.245 23.407-31.8l17.828-2.468c.355 25.196-14.375 27.102-24.713 41.655 12.994 5.357 14.675 3.885 24.058 5.123 23.848 2.742 45.235 3.775 67.803-8.174l-3.101-17.541 17.722-3.137 3.065 17.328c4.22 14.097 11.995 104.393 18.558 108.362 13.411 6.417 53.824 6.416 55.473-5.313 1.647-45.786 3.86-90.098-5.07-133.24 3.702-4.1 7.34-8.114 10.927-12.098-20.178-10.157-44.213-25.838-57.619-41.797-9.037-17.21-13.75-38.688-17.304-56.256-2.546-12.942-4.299-26.074-3.809-37.486.244-5.706 1.001-11.017 2.98-15.937 19.848-20.186 56.607-35.68 79.58-46.502-6.238-1.363-12.653-1.956-19.14-1.95zm64.361 8.955a119 119 0 0 0-15.469.945c-29.757 10.977-72.214 22.173-92.632 45.266-.807 2.008-1.51 5.563-1.7 9.994-.38 8.863 1.097 21.094 3.487 33.244s5.643 24.318 8.53 33.64c1.441 4.662 2.796 8.626 3.864 11.442 15.216 22.215 45.647 39.625 67.967 44.959l14.494-28.713c-11.574-15.04-13.779-35.228-4.59-50.354 4.932-6.143 9.728-10.553 16.983-10.416 4.545.11 9.193 1.996 12.855 5.045 25.905 21.572 49.482 48.69 83.371 70.66-.136-6.626-.26-12.938-.244-18.76.026-9.03-18.923-97.758-50.613-139.552-17.189-4.373-31.288-7.329-46.303-7.4zm53.414 77.175c4.327-.07 8.422.565 11.858 2.32.06 4.923-.298 10.034-10.887 16.151-4.501-4.72-11.24-10.838-17.908-15.627 5.427-1.506 11.373-2.754 16.937-2.844zm-52.177 31.057c-.923-.163-1.526.958-2.055 1.781-2.263 3.593-3.912 11.658-2.703 17.531 1.402 6.812 9.063 16.902 21.55 26.471 12.49 9.567 29.241 18.77 46.752 26.086 15.61 6.522 31.75 11.437 46.06 14.192-49.78-25.118-79.483-61.192-108.567-85.41-.387-.4-.73-.597-1.037-.651zm56.859 88.578c.526 23.427-2.416 50.266-17.086 59.895-11.128 7.306-33.235 1.34-38.41-10.924-3.657-8.667 15.567-15.677 13.408-24.832-1.718-7.287-11.033-14.374-18.375-12.912-17.88 3.558-34.906 28.834-29.3 46.183 10.14 31.387 62.176 51.105 91.874 36.75 27.49-13.288 35.059-46.713 36.809-81.19-12.704-3.13-25.983-7.579-38.92-12.97zM238.238 336.85a129 129 0 0 1-9.992 4.34l-8.67 77.603c1.22 8.802 15.819 12.646 30.385 12.809zm-100.648 4.517c-1.341 10.733-2.368 21.785-3.074 30.953-1.545 20.225-2.483 41.563-2.496 51.49 18.869 11.928 54.798 4.535 53.105-2.003-.656-27.278-6.002-49.806-12.58-73.717-11.982-1.258-23.523-3.866-34.955-6.723z"/></svg>