<svg xmlns="http://www.w3.org/2000/svg" viewBox="0 0 512 512"><path d="m280.938 19.22-21.094 64.468L204.779 48l6.471 87.313-85.094-55.97 47.78-14.874-72.06-43.75h-79.47v63.344l96.938 46.091-58.78 17.5L189.5 225.78 94.594 229l73.906 47.125-102.75 41.813 84 24.812-66.78 78.22 96.56-25.283 11.19 98.188 65.093-76.72 47.375 76.126 18.343-72.842 47.565 24.717-10.565-117 84.627 51.281-50.47 7.252 99.812 69.34 1.03-82.5-63.31-53.435 54.967-4.594-100.906-66.375 85.158-38.656-72.283-24.315 70.471-34.625-57.906-20.058 44.529-51.5-80.906 14.341 5.97-70.656-61.158 58.5zm-1.407 72.25 9 2.405 68.221 18.28 9.03 2.44-2.405 9.03-2.281 8.5L383.029 138l9.034 2.406-2.438 9.03-65.03 242.75-2.408 9.033-9.03-2.44L183 363.906l-9.03-2.404 2.405-9.031 65.063-242.75 2.406-9 9.03 2.406 21.94 5.875 2.28-8.5zm13.065 22.753L287.814 132l-17.877-4.78.034-.126-12.909-3.47-60.218 224.657 112.094 30.033 60.218-224.658-12.906-3.469-.03.159-17.908-4.815 4.782-17.78zM270.47 146.72l75.5 20.216-27.034 100.813-23.78-10.72 17.624-33.717-55.875-25.938zm-27.723 103.404h.002l24.22 10.938-13.595 25.687 52.844 28.438-10.721 40-75.469-20.22z"/></svg>