<svg xmlns="http://www.w3.org/2000/svg" viewBox="0 0 512 512"><path d="M208.938 17.97c-13.894.145-26.622 4.909-40.188 15.75 7.633 73.024 19.398 143.54 37.875 209.936a6676 6676 0 0 0-31.75 2.938c-33.053-48.484-54.967-99.41-79.625-149.688-9.44-1.246-22.32 1.357-33.156 7.313-11.402 6.266-19.932 15.678-22.438 25.344C71.46 196.07 111.698 266.144 154 327.279c9.054 11.43 17.052 23.375 24.875 35.25l2.875 4.065-.28-.125c6.729 10.225 13.405 20.333 20.593 29.904l-14.938 11.22c-14.106-18.782-25.76-38.085-38.5-55.97-38.74-17.315-76.235-28.378-99.406-25.654-11.762 1.382-19.233 5.409-24.19 13.404-4.422 7.136-6.683 18.966-5.125 36.22 79.18 19.67 123.835 59.914 154.407 86.186 12.823 11.02 25.426 21.244 40.875 29.875h123.908c31.69-13.563 55.7-35.644 61.185-62.593 4.722-23.186 16.167-62.177 21.659-85.53 8.961-38.116 26.388-84.71 41.875-121.812 7.742-18.553 14.995-34.674 20.5-46.158 2.752-5.743 5.072-10.326 6.875-13.594.196-.358.348-.581.53-.906-4.202-10.426-12.017-20.034-21.25-26.125-9.174-6.056-18.988-8.512-27.218-6.815-22.354 39.967-42.723 81.288-57.344 129.281-8.878-3.5-17.872-6.377-27-8.716a607 607 0 0 1-.437-39.25l-63.283-6.659a666 666 0 0 0-.25 37.221c-8.34-.305-16.751-.335-25.188-.187C252.073 167.83 240.845 96.008 238.063 24c-9.497-3.54-18.012-5.663-26.032-5.97-.103-.004-.21-.027-.312-.03-.94-.03-1.856-.04-2.781-.03zm133.28 5.593c-8.136-.057-15.44 1.7-20.343 4.75-9.082 35.02-16.253 70.32-20.937 106l62.843 6.625c4.51-33.684 11.666-66.423 20.875-98.344-6.824-8.614-18.616-15.165-30.969-17.781a57.6 57.6 0 0 0-11.466-1.25zm-55.624 128.093c-.466-.016-.91-.002-1.313.03-2.424.2-3.8 1.24-5.31 2.97-2.017 2.31-3.667 6.495-4 11.094-.336 4.6.67 9.41 2.375 12.47 1.703 3.059 3.323 4.302 6.156 4.624l85.437 9h.125l.125.03c4.954.657 7.17-.55 9.342-2.81 2.173-2.264 3.885-6.28 4.25-10.75.367-4.472-.633-9.162-2.5-12.283-1.83-3.063-3.906-4.732-7.592-5.25l-.187-.03-85.313-8.97h-.093a21 21 0 0 0-1.5-.125z"/></svg>