<svg xmlns="http://www.w3.org/2000/svg" viewBox="0 0 512 512"><path d="m251.828 15.982-29.2 136.08-56.74-75.652 7.78 90.4-49.154-24.68 22.19 49.643-67.16-13.433 57.817 70.668-55.48-10.514 35.635 26.608c29.894.77 62.015-2.566 90.595 4.35 18.697 4.521 36.168 14.301 48.256 32.74q.62.948 1.22 1.923c.403-.65.806-1.29 1.22-1.922 12.088-18.44 29.558-28.22 48.254-32.742 27.64-6.685 58.595-3.781 87.642-4.28l35.25-26.677-42.049 8.18 41.467-80.598-59.506 19.854 19.092-77.354-57.234 59.867 6.054-109.605-46.23 97.308L251.83 15.982zM92.236 281.787 50.27 311.02l207.343 72.68 207.336-73.03-40.988-28.88c-42.595 7.18-92.042-5.54-126.022 10.345l-.115.05-.013.008c-5.226 2.37-9.961 5.417-14.254 9.381-7.564 6.774-13.819 16.05-18.362 28.696l-7.775 13.761-7.158-12.67c-5.434-15.833-13.454-26.5-23.324-33.636-.157-.114-.316-.22-.473-.332a58 58 0 0 0-1.912-1.301c-33.565-21.772-86.63-6.601-132.315-14.301zm-64.26 41.3-6.165 17.643 190.67 66.674v17.817h91.548v-18.688h-.054L492.15 340.73l-6.168-17.642-205.658 71.918 4.03 11.527h-54.75l4.03-11.527z"/></svg>