<svg xmlns="http://www.w3.org/2000/svg" viewBox="0 0 512 512"><path d="m256 46.305-9.404 19.054-21.03 3.055 15.217 14.832-3.592 20.945L256 94.305l18.81 9.888-3.593-20.945 15.217-14.832-21.03-3.057zM167.566 72.63l-9.404 19.055-21.03 3.056 15.218 14.832-3.592 20.946 18.808-9.89 18.81 9.89-3.593-20.946L198 94.742l-21.03-3.056zm176.868 0-9.405 19.055L314 94.742l15.217 14.832-3.592 20.946 18.81-9.89 18.807 9.89-3.592-20.946 15.217-14.832-21.03-3.056zm-243.868 67.424-9.404 19.054-21.03 3.055 15.218 14.832-3.592 20.945 18.808-9.886 18.81 9.886-3.593-20.945L131 162.166l-21.03-3.057zm310.868 0-9.405 19.054-21.031 3.055 15.219 14.832-3.594 20.945 18.81-9.886 18.807 9.886-3.592-20.945 15.217-14.832-21.03-3.057zM76.566 228.55l-9.404 19.053-21.03 3.056 15.218 14.832-3.592 20.945 18.808-9.888 18.811 9.887-3.594-20.946L107 250.66l-21.03-3.056zm358.868 0-9.405 19.053L405 250.66l15.217 14.832-3.592 20.945 18.81-9.888 18.807 9.887-3.592-20.946 15.217-14.832-21.03-3.054zm-334.868 89.896-9.404 19.055-21.03 3.057 15.218 14.83-3.592 20.947 18.808-9.89 18.81 9.89-3.593-20.945L131 340.56l-21.03-3.059zm310.868 0-9.405 19.055-21.029 3.06 15.217 14.83-3.592 20.945 18.81-9.89 18.807 9.89-3.592-20.945 15.217-14.83-21.03-3.057zm-243.868 65.746-9.404 19.055-21.03 3.057 15.218 14.832-3.592 20.945 18.808-9.89 18.81 9.89-3.593-20.945L198 406.305l-21.03-3.057zm176.868 0-9.405 19.055-21.031 3.057 15.219 14.832-3.594 20.945 18.81-9.89 18.807 9.89-3.592-20.945 15.217-14.832-21.03-3.057zm-88.612 23.614.002.002v-.002zm.002.002-9.404 19.054-21.03 3.055 15.217 14.834-3.59 20.943.385-.203-.035.203L256 455.898l18.633 9.797-.035-.203.386.203-3.59-20.943 15.215-14.834-21.03-3.055-9.403-19.056-.178.355z"/></svg>