<svg xmlns="http://www.w3.org/2000/svg" viewBox="0 0 512 512"><path d="m165.98 47.746-25.32 143.442c-28.823 29.04-82.26 43.33-117.54 49.015l.132 218.645.006-.002C60.214 406.14 115.74 321.79 177.84 291.51c87.926-6.233 189.036 1.018 269.29 122.01l-30.286-111.768-114.03-33.826c38.234-48.656 116.252-23.911 190.39 29.451l-63.015-80.313-133.443-13.59c22.58-50.88 108.657-59.573 185.336-7.413l-74.133-80.311c-105.138 37.836-182.9 34.318-190.314 9.33a83 83 0 0 0-6.29 10.854c-13.454 27.973-8.834 59.176 11.362 86.75l-15.078 11.043c-23.475-32.05-29.725-71.382-13.127-105.893 15.343-31.902 49.35-58.73 103.26-73.768z"/></svg>