<svg xmlns="http://www.w3.org/2000/svg" viewBox="0 0 512 512"><path d="M494.305 16.006a1.6 1.6 0 0 0-.428.06c-67.4 18.435-116.835 25.592-170.58 19.34a1.64 1.64 0 0 0-1.774 1.285c-5.032 23.778-14.922 38.116-23.49 46.538-8.57 8.423-15.703 10.845-15.703 10.845a1.64 1.64 0 0 0-1.068 1.711s9.399 95.007 4.55 249.916a1.64 1.64 0 0 0 3.27.244c7.452-71.186 10.276-124.078 12.555-160.384 1.14-18.154 2.14-32.177 3.513-42.202 1.37-10.024 3.368-16.025 5.315-17.875.973-.924 1.698-1.1 3.115-.671 1.42.427 3.42 1.714 5.805 3.943 4.77 4.457 11.138 12.516 19.398 23.834 16.52 22.632 40.747 58.337 76.768 105.232a1.638 1.638 0 0 0 2.687-1.865c-33.166-52.963-57.027-91.058-71.482-116.846-7.23-12.894-12.09-22.729-14.57-29.699-1.242-3.485-1.876-6.272-1.956-8.25-.075-1.98.337-3.011.977-3.605s1.787-.984 3.82-.856c2.03.12 4.8.8 8.188 1.987 6.776 2.373 16.081 6.837 27.767 13.046 23.373 12.418 56.39 31.793 99.098 55.457a1.638 1.638 0 0 0 1.77-2.75c-41.286-30.802-72.967-51.243-94.055-65.572-10.544-7.163-18.423-12.809-23.492-17.385-2.535-2.287-4.379-4.292-5.471-6.02-1.09-1.725-1.42-3.104-1.283-4.276.134-1.173.756-2.314 2.197-3.637s3.682-2.743 6.692-4.186c6.022-2.886 15.145-5.967 27.34-9.687 24.39-7.437 61.13-17.48 111.042-34.467a1.638 1.638 0 0 0-.515-3.205zm-476.682.006a1.638 1.638 0 0 0-.451 3.205C67.085 36.2 103.825 46.242 128.215 53.68c12.195 3.718 21.318 6.8 27.34 9.687 3.01 1.442 5.25 2.863 6.69 4.186s2.06 2.462 2.2 3.635c.134 1.173-.194 2.554-1.285 4.28s-2.934 3.73-5.467 6.02c-5.07 4.574-12.948 10.22-23.492 17.385-21.087 14.33-52.77 34.77-94.056 65.572a1.638 1.638 0 0 0 1.771 2.75c42.71-23.665 75.725-43.04 99.098-55.459 11.686-6.207 20.991-10.674 27.767-13.047 3.39-1.186 6.157-1.86 8.19-1.986 2.03-.12 3.176.26 3.818.856.64.595 1.058 1.63.979 3.607-.075 1.98-.716 4.766-1.956 8.25-2.48 6.97-7.344 16.805-14.57 29.7-14.462 25.788-38.32 63.884-71.486 116.847a1.638 1.638 0 0 0 2.687 1.863c36.023-46.894 60.25-82.598 76.768-105.232 8.26-11.317 14.63-19.378 19.398-23.834 2.385-2.23 4.386-3.515 5.805-3.942 1.42-.428 2.142-.252 3.115.672 1.947 1.848 3.943 7.85 5.317 17.875 1.373 10.025 2.371 24.045 3.511 42.197 2.278 36.306 5.101 89.203 12.555 160.387a1.64 1.64 0 0 0 3.27-.246c-4.848-154.91 4.55-249.914 4.55-249.914a1.64 1.64 0 0 0-1.07-1.713s-7.131-2.425-15.701-10.846c-8.57-8.423-18.46-22.759-23.49-46.535a1.64 1.64 0 0 0-1.774-1.285c-53.747 6.25-103.184-.908-170.584-19.34a1.6 1.6 0 0 0-.49-.058zm239.719 50.931c-2.55 0-5.02.23-7.18 1.711-2.157 1.48-3.74 4.055-4.855 8.13-2.232 8.144-2.988 22.775-2.75 50.294.478 55.038 5.224 161.43 12.586 367.28a1.65 1.65 0 0 0 3.3 0c6.815-205.847 11.85-312.252 12.739-367.28.447-27.513-.105-42.127-2.139-50.264-1.017-4.07-2.472-6.663-4.582-8.16-2.11-1.494-4.565-1.709-7.117-1.709z"/></svg>