<svg xmlns="http://www.w3.org/2000/svg" viewBox="0 0 256 256"><path d="M128 18C67.355 18 18 67.355 18 128s49.355 110 110 110 110-49.355 110-110S188.645 18 128 18zm0 18c50.917 0 92 41.083 92 92s-41.083 92-92 92-92-41.083-92-92 41.083-92 92-92zm0 32c-28 0-56 20-80 60 48 80 112 80 160 0-24-40-52-60-80-60zm0 22c20.9 0 38 17.1 38 38s-17.1 38-38 38-38-17.1-38-38c0-8.3 2.72-16.1 7.31-22.3A16 16 0 0 0 96 112a16 16 0 0 0 16 16 16 16 0 0 0 16-16 16 16 0 0 0-16-16 16 16 0 0 0-6.4 1.35c6.3-4.61 14-7.35 22.4-7.35z"/></svg>