<svg xmlns="http://www.w3.org/2000/svg" viewBox="0 0 512 512"><path d="M72.156 21.906c-19.51-.096-34.187 10.358-43.47 26.471-14.848 25.778-10.262 56.353 29.845 79.559 26.354 15.25 61.527 23.54 86.75 20.126l-11.375 19.72 15.25 8.812 49.69-86.25-15.25-8.813-10.5 18.221c-9.66-23.603-34.394-49.969-60.75-65.22-15.04-8.704-28.484-12.568-40.19-12.626zm134.373 92.532-9.341 16.218 171.75 99.375h-56.25l-129.561-75-9.346 16.19L382.53 292l3.377 1.97 3.75-1.033c3.705-1.014 10.983-.39 18.344 1.844 7.36 2.237 14.843 5.779 19.656 8.565l2.188 1.25h.72c.224.082.458.143.686.218a16.6 16.6 0 0 0-.594 4.373c0 9.165 7.43 16.594 16.594 16.594s16.594-7.428 16.594-16.592c0-6.497-3.75-12.09-9.188-14.812 1.873-3.64 2.85-7.855 2.156-12.406-.77-5.067-4.173-10.32-9.187-13.219-10.71-6.198-25.415-17.444-27.97-27.69l-.967-3.841-3.438-1.971zm242.94 235.466.002.004v-.002zm.002.004c-18.66 69.632-44.594 59.989-44.594 100.748 0 24.617 19.98 44.563 44.594 44.563 24.613 0 44.592-19.948 44.592-44.565 0-44-25.601-29.876-44.592-100.746z"/></svg>