<svg xmlns="http://www.w3.org/2000/svg" viewBox="0 0 512 512"><path d="M58.03 24.5C23.27 94.19 12.042 159.392 21.812 208.344c9.776 48.98 38.725 81.862 88.158 91.562a116 116 0 0 0 3.154 23.156c.002.01-.002.022 0 .032-28.127 27.637-42.97 61.424-43.5 97.029 48.38 13.457 82.514 3.99 106.563-18.904a117 117 0 0 0 20.28 7.5 117 117 0 0 0 21.376 3.654c.156.957.32 1.902.5 2.846 6.946 36.782 28.895 65.042 74.185 76.592 17.09-29.536 21.329-63.995 10.942-107.907a117 117 0 0 0 14.308-14.875c22.468 14.3 43.263 19.519 62.159 17.594 19.33-1.97 37.185-11.401 53.218-28.28 31.266-32.915 54.234-94.761 59.906-176.874-24.373-11.548-48.163-16.738-71-16.658-24.58.086-48.056 6.17-70.03 16.593-16.08 7.626-31.292 17.67-45.313 29.47-13.61-12.85-30.473-22.608-49.783-27.782-11.663-3.125-23.398-4.37-34.875-3.906-6.836.276-13.57 1.18-20.157 2.625C178.322 111.115 129.415 47.12 58.03 24.5zm23.94 66.688c18.667 0 33.593 14.926 33.593 33.593 0 18.672-14.926 33.596-33.594 33.596-18.67 0-33.625-14.928-33.625-33.596 0-18.666 14.957-33.592 33.625-33.592zm-24.376 82.53h.002c10.229.002 18.31 8.116 18.31 18.345 0 10.227-8.083 18.312-18.312 18.312s-18.313-8.08-18.313-18.312c0-10.228 8.085-18.343 18.313-18.344zm156.15 24.878c-32.583 12.061-55.806 43.41-55.806 80.185 0 47.21 38.258 85.5 85.468 85.5 37.43 0 69.24-24.062 80.813-57.56a100 100 0 0 1-2.75 14.591c-14.055 52.448-67.71 83.43-120.158 69.375-52.447-14.052-83.428-67.738-69.375-120.185 10.591-39.527 43.695-66.853 81.808-71.906zm215.944 16.468zc18.667.002 33.592 14.956 33.592 33.624 0 18.67-14.924 33.593-33.592 33.593s-33.625-14.925-33.625-33.592a33.5 33.5 0 0 1 33.623-33.625zM74.938 228.22c8.86 0 15.843 6.983 15.843 15.844 0 8.86-6.983 15.841-15.844 15.841-8.86 0-15.841-6.98-15.841-15.843 0-8.86 6.982-15.842 15.842-15.842zm341.093 71.875c10.23 0 18.315 8.081 18.315 18.31 0 10.232-8.085 18.344-18.315 18.344-10.228 0-18.308-8.115-18.308-18.344s8.08-18.31 18.308-18.31zm-41.312 37.154h.002c8.86 0 15.875 6.985 15.875 15.846 0 8.863-7.014 15.844-15.875 15.844s-15.846-6.984-15.846-15.844 6.983-15.846 15.844-15.846zm-265.531 37.596zc8.86 0 15.842 6.983 15.842 15.844s-6.979 15.841-15.842 15.841c-8.86 0-15.843-6.982-15.843-15.841 0-8.86 6.981-15.843 15.841-15.844zm163.53 52.027.003.002c8.86 0 15.873 6.985 15.873 15.846s-7.014 15.842-15.875 15.842-15.846-6.984-15.846-15.844c0-8.862 6.985-15.846 15.846-15.846z"/></svg>