<svg xmlns="http://www.w3.org/2000/svg" viewBox="0 0 512 512"><path d="M22.47 28.76c10.467 83.962 164.39 162.915 278.839 191.748-73.462-.512-182.055-9.911-263.032-35.158 33.97 67.29 154.635 87.357 264.383 97.464-82.398 20.624-156.203 29.861-247.26 26.223 45.007 50.362 163.78 49.977 264.096 34.973-55.527 27.747-118.572 45.355-184.799 54.342 49.921 27.215 123.442 21.836 194.836-3.45 34.906-12.362 67.125 33.21 87.807 76.377 24.844 8.273 65.175-15.284 71.158-43.271-95.912-51.918-138.862-137.691-112.342-195.465 16.14-35.162 9.033-65.804-31.674-70.104-114.99-12.15-214.457-65.571-322.01-133.68z"/></svg>