<svg xmlns="http://www.w3.org/2000/svg" viewBox="0 0 512 512"><path d="m146.217 28.219-100.07 42.86L152.442 319.27l41.188-17.638-27.606-191.945-1.28-8.91 78.568-11.3-12.52-29.23c-16.682 3.773-28.871 3.45-47.402 21.063l-5.993 5.693-6.181-5.484c-18.118-16.072-20.828-36.566-25-53.301zm18.912.492c3.243 12.805 5.535 24.275 12.777 33.68 12.818-10.212 24.447-14.229 34.951-16.735-14.485-7.674-29.652-12.215-47.728-16.945zm127.746 71.824-107.752 15.496 38.436 267.25 36.978-5.316 23.188-193.996 1.068-8.938 86.086 10.291-4.598-31.96c-17.092-.672-28.78-4.14-51.24 8.076l-7.26 3.95-4.552-6.9c-13.34-20.213-10.655-40.708-10.354-57.953zm18.139 5.367c-.182 13.21-.937 24.883 3.625 35.842 15.025-6.547 27.298-7.413 38.093-7.115-12.006-11.162-25.481-19.479-41.718-28.727zm-10.485 89.141-32.043 268.092 172.77 20.646 24.598-205.793c-16.337-5.073-26.73-11.452-51.586-5.465l-8.034 1.938-2.611-7.842c-7.655-22.977.244-42.077 4.998-58.656zm124.225 22.799c-3.594 12.713-7.345 23.79-5.775 35.556 16.207-2.435 28.286-.095 38.636 2.987-8.708-13.89-19.571-25.41-32.861-38.543z"/></svg>