<svg xmlns="http://www.w3.org/2000/svg" viewBox="0 0 512 512"><path d="M112.063 18.313c-35.217 1.23-60.2 14.463-75.188 33.593s-19.97 43.267-18.75 65.907c1.754 32.57 9.409 54.906 21.22 70.468 11.81 15.56 27.39 23.637 42.468 28.906 15.077 5.27 29.9 8.127 41.875 12.844 11.973 4.72 20.766 10.552 26.75 22.5 6.284 12.55 6.177 22.294 3.093 30.065-3.082 7.77-9.615 13.965-18.154 17.656-17.078 7.382-40.54 4.336-54.5-17l-17-26-.156 31.062c-.488 101.54 66.702 164.85 144.873 189.842s168.216 14.294 219.094-32.5l.093-.094.096-.091c39.756-38.7 61.686-98.011 66.469-157.346 4.78-59.336-7.445-119.122-39.594-159.062l-14.406-17.875-2.19 22.843c-1.345 14.065-5.613 21.674-9.154 24.815-3.54 3.14-6.27 3.301-10.315 1.529-8.09-3.542-18.966-19.603-13.685-44.78 4.81-22.925-5.764-46.93-27.25-61.72s-53.64-20.68-92.97-10.53l-21 5.436 18.374 11.533c26.615 16.705 35.24 34.795 34.846 48.97-.394 14.172-9.665 26.144-25.065 31.562-16.157 5.685-32.666 3.894-42.75-2.188-10.082-6.08-14.88-14.514-10.156-29.53 4.062-12.906 3.278-24.84-1.654-34.22s-13.362-15.72-22.563-19.812c-18.4-8.183-40.61-8.668-57.28-4.875l-15.188 3.468 10.22 11.75c20.052 23.17 15.79 48.66 3.405 64.217-6.194 7.78-14.342 12.618-22.282 13.5-7.94.883-16.144-1.52-24.75-10.935-13.343-14.597-18.418-30.136-16.783-46.596 1.636-16.46 10.418-34.24 26.97-51.5l15.155-15.812zm-21.534 21.53C80.93 54.009 75.047 68.81 73.563 83.75c-2.15 21.656 5.203 43.165 21.564 61.063 11.864 12.977 26.808 18.44 40.625 16.906 13.817-1.537 26.06-9.407 34.844-20.44 14.907-18.723 20.004-47.827 5.625-74.25 10.56-.178 22.284 1.282 31 5.157 6.548 2.913 11.154 6.77 13.591 11.408 2.438 4.637 3.353 10.538.407 19.904-6.84 21.73 2.3 41.5 18.31 51.156 16.013 9.657 37.74 11.162 58.625 3.815 21.647-7.617 36.916-26.403 37.532-48.658.483-17.332-7.974-35.715-25.998-52 25.155-2.76 44.538 2.538 57.466 11.437 16.217 11.163 22.699 27.441 19.532 42.53-6.64 31.667 5.32 57.306 24.533 65.72 9.606 4.207 21.627 2.934 30.185-4.656 4.28-3.796 7.717-8.794 10.28-14.97 19.573 34.311 27.843 81.466 24.033 128.75-4.483 55.613-25.494 110.9-60.69 145.282l-.03.03c-43.613 40.08-128.142 51.642-200.72 28.439-66.173-21.158-121.51-69.148-130.468-148.187 18.327 12.028 41.005 12.984 58.97 5.218 12.408-5.364 22.971-14.95 28.123-27.937s4.428-28.984-3.75-45.315c-8.355-16.684-22.303-25.87-36.593-31.5s-29.261-8.433-42.592-13.093c-13.332-4.66-24.78-10.773-33.75-22.592-8.972-11.82-15.818-30.031-17.442-60.158-1.03-19.168 3.329-38.715 14.815-53.375C60.02 52.68 72.343 44.1 90.53 39.844zM360.156 160.97v.002l-105.31 48.623c-4.956 21.11 4.128 36.688 22.468 48.656l105.311-48.625c-1.136-19.137-3.204-37.863-22.469-48.656zm26.906 72.906c-12.007.01-22.03 6.96-30.591 18.97l38.685 112.56c17.528 1.514 34.735 2.114 45.625-15.686l-38.685-112.565c-5.343-2.235-10.335-3.284-15.032-3.279zm-60.935 28.656c-12.008.01-22.034 6.963-30.596 18.971l45.846 128.625c17.525 1.51 34.74 2.118 45.625-15.69l-45.844-128.625c-5.34-2.233-10.331-3.283-15.03-3.279zm-62.25 24.94c-12.007.008-22.032 6.96-30.596 18.966l45.377 126.909c17.524 1.51 34.732 2.145 45.625-15.657L278.94 290.75c-5.342-2.236-10.363-3.284-15.062-3.28zm-63.625 22.406c-11.925.254-22.003 6.999-30.75 18.469l36.125 105.092c17.37 1.065 34.45 1.284 45.625-15.686l-36.125-105.065c-5.26-1.993-10.21-2.908-14.875-2.81z"/></svg>