<svg xmlns="http://www.w3.org/2000/svg" viewBox="0 0 512 512"><path d="M145.75 19.781 107.906 116l43.03 31.938 48.814-96.97zm77.094 26.907L152.47 186.5l86.467 49.938 88.53-129.344zm112.187 82.375-72.654 106.216c17.46 28.874 29.09 63.708 35.375 103.127 56.317-31.27 107.835-85.753 135.28-152.75zm114.346 66.03c-30.433 72.7-86.894 130.64-148.94 163.063 2.02 18.153 3.012 37.163 3 56.906 71.107-23.5 159.605-92.374 187.909-195.75zm-289.096 17.5c-39.7 79.314-78.153 159.572-137.904 237.157v44.78h44.344c41.425-87.973 93.639-170.09 145.529-251.936z"/></svg>