<svg xmlns="http://www.w3.org/2000/svg" viewBox="0 0 512 512"><path d="M487.375 26.906 356.5 56.471c-23.13 58.833 39.11 126.32 101.313 101.5zm-143.5 99.125L237.779 232.5c-3.703 22.683 2.472 38.329 16.942 46.47l10.716 6.03-8.687 8.72L57.625 492.687h26.154l314.192-317.28c-23.152-9.146-42.646-27.242-54.096-49.375zM218.752 233.123l-.002.004-113.53 18.719 97.436 5.968-121.97 51.157 105.158-9.471-67.313 61.688 62.565-18.282 54.843-54.812c-13.938-12.937-19.779-32.965-17.187-54.97zm-201.908 11.94v32.312l84.937-15.562-84.935-16.75zm263.75 75.437-42.688 43.063-.875 67.75L280.596 320.5zm-161.973 2.625L16.846 341.5v44.094zm8.158 61.248-.004.004.006-.002zm-.004.004L16.656 431.596v65.123h10.565l1.279-1.283 41.03-41.03zm85.32 15.219-39.156 97.217h38.78zm58.78 1.966-10.719 95.25h26.156l-15.435-95.25z"/></svg>