<svg xmlns="http://www.w3.org/2000/svg" viewBox="0 0 512 512"><path d="M455 32v198.47a16 16 0 0 0-7 13.208 16 16 0 0 0 7 13.226v66.774c0 5.75-1.877 8.85-4.262 10.836s-5.657 2.887-9.258 2.287c-7.16-1.193-16.37-8.05-16.474-28.77h15.533l-31.605-42.998-1.914 42.647H407c0 .106.005.208.006.314l-.002.035h.002c.128 26.794 14.79 43.74 31.514 46.528 8.4 1.4 17.126-.702 23.742-6.215C468.877 342.83 473 333.928 473 323.678v-66.79a16 16 0 0 0 7-13.21 16 16 0 0 0-7-13.227V32zM191.97 142.678l-14.505.052 6.484 12.97c11.004 22.013 13.563 44.94 6.307 70.484 16.372-7.893 32.519-14.514 47.039-19.09 17.127-5.4 34.614-8.823 52.305-10.633-9.637-11.92-19.864-24.138-33.348-34.057-16.005-11.772-36.664-19.823-64.283-19.724zM321.175 212.9c-26.903-.003-53.247 3.41-78.47 11.362-29.806 9.395-69.467 29.167-100.985 50.238-15.76 10.536-29.53 21.437-38.99 31.195-9.458 9.76-13.731 18.572-13.731 21.983 0 1.115.658 3.356 3.328 6.55s7.133 7.02 12.975 10.918c11.683 7.798 28.768 15.954 48.064 23.338 10.86 4.156 22.445 8.07 34.225 11.647 4.63-5.44 9.13-10.774 13.082-15.686 4.6-5.715 8.51-10.923 11.09-14.957 1.933-3.025 2.8-5.783 3.103-6.27.1-.163.138-.072.133.344l18 .235c-.085 6.563-2.86 10.362-6.07 15.387-3.212 5.024-7.426 10.575-12.233 16.548-4.236 5.265-9.016 10.898-13.816 16.536 17.5-3.984 36.32-7.97 52.87-12.55 12.882-3.566 24.273-7.546 31.737-11.62 7.465-4.075 9.472-7.418 9.52-8.744l17.986.654c-.408 11.207-9.133 18.567-18.883 23.89-9.6 5.24-21.689 9.302-34.955 12.995 4.813.746 9.443 1.37 13.81 1.84 28.786 3.105 68.376 3.101 102.03-1.569 16.827-2.335 32.197-5.862 43.777-10.45 5.082-2.013 9.168-4.258 12.53-6.532-12.215-3.44-26.56-7.368-41.293-13.414-20.51-8.417-40.92-20.97-46.713-43.135-3.522-13.476 2.453-25.924 10.691-35.453 8.24-9.53 19.04-17.607 28.994-25.555s18.976-15.81 23.584-22.865c3.85-5.896 5.068-10.28 2.942-16.24-27.796-6.15-55.637-10.113-82.943-10.573q-2.697-.044-5.387-.045zm-307.55 24.393 11.025 15.582c25.106 35.484 28.82 103.86 19.66 151.705l-2.91 15.203 14.653-4.99c31.135-10.605 49.9-25.726 63.056-41.373-8.873-4.267-16.915-8.707-23.8-13.3-6.772-4.52-12.462-9.17-16.791-14.35-4.33-5.176-7.518-11.207-7.518-18.09 0-12.59 7.967-23.33 18.807-34.512 4.653-4.8 10.03-9.647 15.92-14.486-18.32-23.38-43.375-37.776-73.059-39.977zm332.314 10.385a16 16 0 0 1 16 16 16 16 0 0 1-16 16 16 16 0 0 1-16-16 16 16 0 0 1 16-16z"/></svg>