<svg xmlns="http://www.w3.org/2000/svg" viewBox="0 0 512 512"><path d="m144.088 18.389-.002.002C251.25 104.46 357.514 189.5 429.088 284.699c-5.74 10.573-18.106 14.796-31.537 11.682l101.62 115.05c-7.605-173.11-135.934-294.98-266.898-393.042zm-121.68.002v60.586S198.19 236.165 317.504 334.035c-9.2 3.815-19.898 5.503-31.102 5.277 52.274 39.08 103.82 79.553 163.178 105.01-28.328-60.655-63.28-112.895-103.516-167.015 1.993 14.567.068 26.324-4.67 35.523-76.206-91.106-195.03-202.616-296.402-294.44zm.201 153.013v93.44C154.904 380.347 288.107 475.249 425 498.449L308.193 389.824c.88 12.204-1.624 22.482-10.51 22.78-98.07-71.302-191.387-152.642-275.072-241.2z"/></svg>