<svg xmlns="http://www.w3.org/2000/svg" viewBox="0 0 512 512"><path d="M365.469 18.727c-11.352-.18-21.053 7.366-24.785 20.058h-.002c-24.423-7.6-57.52-4.092-68.328 19.856-15.69-20.86-47.866-13.98-55.194 9.85-7.328 23.827 13.462 49.474 44.68 48.55-3.078 33.98 44.304 54.69 81.764 39.133-.473 19.307 8.313 41.852 30.37 44.969-6.394 18.11 3.104 42.046 28.614 42.046 31.47 0 38.024-36.315 21.025-53.144 9.474-10.39 12.832-25.168 11.096-39.13 17.282 12.103 34.59-6.52 33.768-20.08-1.516-24.969-20.368-35.97-33.77-24.3-8.8-27.616-37.242-32.007-52.56-16.353 1.35-7.425.199-13.105-5.256-19.274 22.605-5.702 18.912-37.698 4.68-46.904-5.44-3.517-10.94-5.195-16.1-5.277zm68.37 5.13c-22.7 0-22.881 34.655 0 34.655 22.883 0 22.7-34.655 0-34.655zM177.673 74.842c-22.7 0-22.882 34.654 0 34.654s22.7-34.654 0-34.654zm64.695 59.377v.004c-1.695.06-3.792.894-5.877 2.886-4.765 4.554-8.11 13.803-1.814 24.215a101 101 0 0 0 4.408 6.672l-14.21 26.414-34.43 59.639-153.62 87.681-.008.006c-11.038 6.375-16.508 14.786-17.537 24.037-1.03 9.254 2.46 20.22 13.082 31.508 45.295 48.134 101.192 77.71 164.909 95.106 15.645 4.267 26.47 2.614 33.156-2.1 6.686-4.712 11.047-13.383 11.047-28.414v-.006l.213-177.61 38.007-65.831c-14.036-3.907-26.16-10.638-36.332-18.932l8.967-16.67c13.568 12.152 31.754 20.64 55.14 20.645 11.537-.03 18.365-7.456 20.048-13.541.84-3.044.412-5.248-.606-6.73-1.018-1.48-3.004-3.205-8.754-3.66-31.006-2.453-53.782-15.766-68.293-39.716-2.816-4.65-5-5.413-6.797-5.584a6 6 0 0 0-.699-.02zm234.053 39.308c-22.7 0-22.882 34.655 0 34.655s22.7-34.655 0-34.655zm-44.668 86.022c-35.27 0-35.553 53.838 0 53.838s35.27-53.838 0-53.838zm-235.256 8.338 9.367 16.172-136.506 79.058-.005.004c-4 2.31-4.756 3.894-5.043 5.127-.29 1.233-.128 3.423 1.851 7.027.543.988 1.23 2.045 2.026 3.15l-.416-.193c18.068 27.077 54.2 61.967 89.34 80.934-23.56-10.45-50.912-25.15-72.739-40.756C69.11 407.5 56.51 396.523 49.78 384.271c-3.363-6.124-5.33-13.14-3.672-20.261 1.66-7.123 6.93-13.047 13.9-17.07zm-88.068 88.869c18.55 6.4 52.894 25.26 80.154 46.014 13.63 10.375 25.305 20.885 32.086 31.998 3.022 4.952 5.263 10.303 5.2 16.203l-20.626-9.489c-9.495-11.61-23.806-22.776-35.75-29.517-24.435-17.28-54.436-33.15-67.16-37.54l6.096-17.667z"/></svg>