<svg xmlns="http://www.w3.org/2000/svg" viewBox="0 0 512 512"><path d="M103.03 16.438C87.39 31.414 72.88 78.32 91.095 110.873c74.192 132.596-2.636 198.3-39.5 92.72-27.98 89.638 6.843 197.69 101.218 252.186l56.032-56.029-17.221-17.47c-22.326-22.273-23.117-58.42-.81-80.686l41.06-41.063-8.969-8.935 57.346-21.125-21.156 57.217-8.75-8.72-40.971 40.376c-12.485 12.463-12.53 31.874 0 44.375l17.75 17.75 73.69-73.69-13.72-13.685 75.811-27.94-27.969 75.657-15.56-15.53-73.875 73.563 18.719 18.719c12.524 12.467 31.874 12.473 44.375-.002l44.31-44.313-8.779-8.78 57.344-21.124-21.159 57.219-9.156-9.127-44.029 44.687c-22.32 22.267-59.14 22.234-81.47 0l-18.628-18.902-50 49.75c33.226 14.468 72.48 22.904 117.692 22.904 250.693 0 238.78-311.425 86-351.812 34.115 37.6 2.511 82.864-51.442 75.718-66.704-8.838-71.87-73.309-58.873-99.468 24.57-49.455-17.56-101.511-93.156-96.844 103.54 77.253-53.128 162.6-74.22-2.032z"/></svg>