<svg xmlns="http://www.w3.org/2000/svg" viewBox="0 0 512 512"><path d="m132.813 27.627 29.593 134.123c4.547 3.588 9.68 4.189 18.063 1.97l5.185-1.376 3.815 3.812 84.217 84.188 3.78 3.78-1.343 5.19c-2.42 9.36-1.483 15.047 3.375 19.905l13.53 13.529 97.533-97.562-13.532-13.53c-3.538-3.54-9.391-4.414-19.656-1.437l-5.312 1.53-3.907-3.907-86.185-86.188-1.627-3.281-1.094-3.312V64.377c-.013-.02-.017-.045-.03-.064zM310.592 85.5l-14.156 14.188 43.783 43.78 14.185-14.155-43.81-43.813zm120.25 95.844-159.969 159.97 37.065 37.123 160-160-37.094-37.093zM196.5 199.594l-175 175v87.594l218.813-218.782z"/></svg>