<svg xmlns="http://www.w3.org/2000/svg" viewBox="0 0 512 512"><path d="M320.94 24.86v55.654l45.31 58.49v66.27l41.24-64.038zm-56.706 16.263-76.77 94.758 87.09 27.777 64.58-29.144-24.81-32.026zm-143.074 88.5-82.674 96.035 82.674 26.858zm226.403 21.588-62.307 28.121v238.336l62.176-28.875V234.5l.13-.203zm-165.907 2.435v237.258l84.912 27.768V180.73zM44.85 247.373v.004l76.31 102.367v-77.58zm331.31 4.416v154.414l82.752-13.531zm73.412 161.348L376.16 425.14v46.767zm-256.267 1.236 70.93 79.781 70.738-78.972-57.516 26.713z"/></svg>