<svg xmlns="http://www.w3.org/2000/svg" viewBox="0 0 512 512"><path d="m110.297 71.816-46.71 12.938c35.32 100.342 82.123 195.389 131.653 297.299l133.416 13.646c-.385-33.58-4.509-74.918-15.427-113.043 33.89-49.694 60.607-111.009 92.484-176.203l-38.858-27.77c-23.013 55.263-46.325 111.086-81.988 163.83-9.005 11.142-91.217 8.962-99.012 1.813-29.93-62.736-58.224-112.585-75.558-172.51zm115.455 42.623a27 27 0 0 0-3.815.24c-10.15 1.36-19.012 8.386-25.21 20.198-6.2 11.812-9.199 28.105-6.866 45.523 2.333 17.42 9.515 32.352 18.604 42.116s19.487 14.208 29.637 12.85c10.15-1.36 19.01-8.385 25.209-20.196s9.196-28.107 6.863-45.525c-2.333-17.42-9.51-32.352-18.6-42.116-7.952-8.543-16.908-13.016-25.822-13.09zM136.01 292.354 19.03 400.779l19.779 2.037 363.03 37.368 91.132-143.528-158.051-3.521c1.58 6.018 2.944 12.05 4.154 18.094l121.602 2.71-68.067 107.2-332.175-34.194 82.84-76.785q-3.687-8.902-7.264-17.806z"/></svg>