<svg xmlns="http://www.w3.org/2000/svg" viewBox="0 0 512 512"><path d="M267.375 14.688c-17.09 6.94-30.576 17.288-38.75 29.593l-14.812-27.593c-9.017 49.343-12.52 95.086 32 109.564-10.734 36.94-17.188 73.9-20.688 110.812l-20.562-38.343c-2.849-14.713-9.62-30.698-17.344-47l-17.375 74.123c-7.214-22.468-16.497-44.678-28.47-66.47 24.459-43.218 16.132-70.568-31.095-79.28-.515 3.04-.558 9.344-.558 9.344l-19.877-8.75-2.344 19.841-9.344-4.654c-5.433 42.254-.12 74.946 46.625 72.094a342 342 0 0 1 10.315 20.28L29.22 156.312c31.263 45.246 64.172 82.76 112.529 47.093 10.985 26.656 18.485 53.945 23.75 81.721l-64.78-40.19c12.873 36.068 28.203 67.287 66.936 52.438 1.237 7.446 2.306 14.926 3.28 22.438h18.876c-2.757-21.95-6.533-43.82-11.906-65.5 8.208-4.095 14.35-8.853 18.75-14.188 3.693 11.197 11.61 19.643 26.438 23.594-1.097 18.71-1.506 37.414-1.438 56.092h18.688c-.014-4.07-.004-8.121.03-12.188 41.887-6.813 39.48-42.477 32.407-81.187l-31.967 59.625c.765-23.7 2.491-47.327 5.592-70.907 52.515 5.043 61.144-38.782 65.125-87.779l-61.808 65.844c3.47-20.563 8.06-41.09 14-61.565 37.544 4.596 76.883-35.765 75.279-70l-12.438 7.719c-1.053-11.96-6.674-25.51-17.125-40.69-7.535 5.355-14.003 12.573-19.843 20.44L285.5 31.029l-11.687 14.596c-.32-10.47-2.171-20.77-6.438-30.937zm182.22 99.248v.001c-4.993.008-10.98.86-18.25 2.907-13.335 3.754-27.52 12.25-22.376 37.625-24.488 13.127-45.408 31.121-62.25 53.154h-.19c.03.045.066.08.094.125-.8 1.05-1.593 2.09-2.375 3.156l23.065-76.343c-45.938 31.743-83.942 65.165-45.44 114.75-9.69 21.296-16.535 44.94-20.312 70.5h38.033c24.53-7.376 29.598-36.436 32.185-68.25l-48.154 51.283c6.766-30.55 18.424-57.236 34.406-79.47 36.727 42.144 77.18 14.896 118.033-19.811l-104.593 3.28c13.094-14.283 28.348-26.197 45.558-35.5 11.388 14.74 28.403 14.171 40.596 7.811 25.338-13.216 17.441-27.84 38.28-45.906-20.893 5.264-19.351-19.357-46.31-19.312zM152.936 338.5l26.034 154.594h143.59L348.969 338.5z"/></svg>