<svg xmlns="http://www.w3.org/2000/svg" viewBox="0 0 512 512"><path d="m347.99 22.828.002.004c-51.712.07-101.096 34.503-109.127 86.984-6.792 44.385 21.9 91.458 68.047 97.997 33.752 4.784 69.154-16.668 73.35-50.782 2.95-23.992-12.95-49.413-37.766-52.052-5.27-.562-10.605.153-15.478 1.91-7.48 1.888-13.638 7.08-16.848 13.93a24.3 24.3 0 0 0-2.83 9.609c-.395 5 1.113 10.148 3.95 14.142 4.44 7.53 12.625 12.586 22 12.586 7.836 0 14.846-3.534 19.528-9.094-1.186 6.693-5.074 12.374-9.923 16.1-5.798 4.454-12.964 6.678-20.323 6.291-21.858-1.142-35.412-21.852-33.86-41.5 2.226-28.175 29.755-45.323 55.76-42.558 36.216 3.852 58.474 39.28 54.337 72.918-5.608 45.581-51.27 73.13-94.52 67-35.455-5.024-62.33-28.823-75.701-59.06-25.502-12.461-54.185-18.075-82.324-15.567-73.17 6.52-135.55 70.877-128.202 146.779 5.672 58.588 56.425 108.3 115.657 101.75 44.613-4.93 82.65-44.842 77.027-91.125-4.112-33.853-33.983-62.499-68.006-57.719-23.93 3.362-44.37 25.312-40.498 49.975 2.195 13.982 13.266 26.085 26.428 27.617a25.6 25.6 0 0 0 4.633.426c14.097 0 25.523-11.429 25.523-25.526 0-10.782-6.687-19.994-16.14-23.734 6.22-.15 12.117 2.063 16.607 5.506 5.8 4.448 9.8 10.797 11.332 18.004 4.548 21.41-11.937 39.866-31.314 43.455-27.79 5.148-51.47-17.014-55.528-42.854-5.648-35.982 22.8-66.658 56.358-71.373 45.47-6.39 83.886 30.594 89.154 73.965 1.82 14.983.02 29.355-4.59 42.527 2.383 27.298 11.775 53.85 27.447 76.166 42.22 60.117 129.123 81.956 191.172 37.63 47.897-34.217 65.572-103.044 30.295-151.075-26.57-36.177-80.135-49.16-117.4-21.142-27.258 20.494-37.134 60.699-15.989 87.779 14.873 19.044 44.09 25.773 63.51 10.084 12.984-10.49 17.541-30.372 6.881-42.86-2.156-2.525-4.955-4.495-7.998-5.785a25.8 25.8 0 0 0-5.055-1.949c-13.617-3.648-27.612 4.434-31.26 18.05a25.5 25.5 0 0 0-.788 8.71c-3.532-5.438-4.662-11.909-3.899-17.729.952-7.248 4.45-13.885 9.926-18.816 16.265-14.65 40.492-9.601 53.285 5.389 18.35 21.496 10.997 53.09-9.35 69.527-28.333 22.888-69.118 13.589-89.976-13.121-28.26-36.19-15.442-87.96 19.48-114.213 17.342-13.038 37.328-18.982 57.246-18.992 12.108-.007 24.188 2.188 35.635 6.304 19.393-21.698 32.761-48.572 37.748-77.1 12.655-72.384-33.344-149.294-108.54-161.83a115 115 0 0 0-19.085-1.558z"/></svg>