<svg xmlns="http://www.w3.org/2000/svg" viewBox="0 0 512 512"><path d="M210.28 18.344c-21.363 43.312-84.904 72.3-146.967 101.78l117.908 36.815L54.313 142.5C82.904 200.553 126 255.848 175.279 300.25l99.315 29.906L179 323.312c-35.158 32.766-95.2 70.74-161.5 91.782 88.447 40.53 161.28 46.956 280.344 77.25C378.36 453.12 415.57 425.644 470.094 382l-149.25-42.437 147.47 18.937c-49.763-45.25-89.572-102.69-115.47-161.437l-125.315-31.938 141.065 13.594c55.096-20.42 85.08-49.28 124.529-102.281-97.707-20.988-177.929-45.69-282.842-58.094z"/></svg>