<svg xmlns="http://www.w3.org/2000/svg" viewBox="0 0 512 512"><path d="M255.5 22.406c-129.203 0-233.937 104.734-233.937 233.938 0 45.56 13.033 88.073 35.562 124.029-11.252-26.148-17.5-54.944-17.5-85.217 0-119.205 96.64-215.843 215.844-215.843s215.844 96.636 215.844 215.843c0 30.397-6.32 59.298-17.659 85.53 22.654-36.024 35.782-78.644 35.782-124.342C489.44 127.138 384.704 22.406 255.5 22.406zm-.03 90.22L187.75 310.72l-27.094-7.533v-63.03h-18.685v57.813l-56.096-15.596V479.03l72.656-76.779 37.656 29 13.875 60.563h90.844l13.875-60.594 37.627-28.971 72.656 76.781V282.377l-56.093 15.594v-57.815h-18.692v63.03l-27.091 7.533zm-.001 124.437h.002c16.905.022 33.808 32.694 33.808 97.937h-67.623c0-65.33 16.906-97.96 33.813-97.937z"/></svg>