<svg xmlns="http://www.w3.org/2000/svg" viewBox="0 0 512 512"><path d="M337.268 21.412 97.643 43.66 17.125 159.672l30.592 194.662.25.088L60.9 439.168l166.438 56.05 119.598-10.36 127.832-60.915 5.377-84.605 7.605-85.133-10.02-31.236-35.45-10.643.548-96.98.276-.328-.872-2.717zM221.338 58.39v.002c27.232.292 53.762 7.89 75.67 21.312 26.706 16.363 46.742 41.84 51.01 73.23 2.406 17.698-1.08 35.415-9.15 51.063 24.127 7.656 41.976 13.968 55.943 25.027 16.303 12.91 25.883 31.77 34.08 62.309l1.482 5.535-4.256 3.834c-35.05 31.564-81.466 52.728-131.297 58.57-51.316 6.02-103.155-5.578-144.3-30.447-41.147-24.87-71.803-63.446-78.82-110.922C60.754 143.87 116.99 68.67 203.38 59.264a150 150 0 0 1 17.958-.875zm-.217 18.703q-2.387-.03-4.777.027c-3.648.086-7.3.326-10.942.723-20.212 2.2-38.42 8.41-54.113 17.513 4.263 22.597 19.141 36.717 41.004 46.124 9.088-7.047 20.424-11.79 33.28-12.924h.001a62 62 0 0 1 4.504-.227c-.274-17.968 4.715-33.666 11.166-49.455a135 135 0 0 0-20.12-1.781zm38.537 6.129v.002c-7.05 16.748-11.816 30.915-10.82 47.736 5.064 1.534 9.877 3.707 14.264 6.486 5.04 3.194 9.55 7.294 13.09 12.127l48.736-11.43c-6.917-17.314-20.272-31.835-37.684-42.503-8.4-5.148-17.72-9.331-27.586-12.418zm-124.754 23.4c-33.288 26.87-50.665 68.3-44.718 108.547v.002c.183 1.24.39 2.471.61 3.7 28.093 10.36 52.05 12.284 85.534-3.616-3.505-6.465-5.89-13.582-6.828-21.24-1.658-13.547 1.935-27.047 9.443-38.258-20.606-10.497-37.12-26.619-44.04-49.135zm289.11 31.18-.391 68.926-45.842-13.76zm-193.323 9.215q-1.742.004-3.472.156c-.523.046-1.033.114-1.547.176l14.02 20.65c8.895-1.71 18.57.49 25.402 6.56.172-1.28.212-2.564.078-3.826-.75-7.038-5.032-13.038-12.072-17.5-5.28-3.346-12.004-5.54-18.932-6.084a43 43 0 0 0-3.477-.132zm-23.324 6.644c-13.68 8.462-21.075 23.678-19.312 38.082v.002a41 41 0 0 0 2.27 9.27l28.066-11.325c.303-4.362 1.992-8.658 5.048-12.357zm122.219 2.588-46.068 10.805c.085.564.177 1.126.238 1.7.645 6.056-.246 12.067-2.377 17.55l34.928 18.935c10.45-14.344 15.386-31.86 13.279-48.99zm-59.129 45.393c-.254.215-.516.417-.775.625-1.303 2.125-3 4.113-5.096 5.879-2.283 1.923-4.856 3.425-7.59 4.517l-2.793 24.461c1.878-.047 3.759-.13 5.631-.316 17.064-1.695 31.716-8.167 43.164-17.524l-32.539-17.64zm-45.068 5.38-24.766 9.993c3.253 3.334 7.044 6.348 11.295 8.994 6.95 4.326 15.077 7.508 23.678 9.351l2.449-21.466c-4.424-1.106-8.586-3.194-12.02-6.272-.218-.196-.426-.4-.636-.6zm102.853 13.235c-15.41 18.853-38.612 32.371-66.56 35.146-.73.073-1.462.116-2.194.172 8.186 18.072 10.37 32.67 6.744 46.588-3.447 13.235-11.147 24.706-21.238 38.717 15.69 1.695 31.724 1.702 47.65-.166 43.894-5.146 84.952-23.416 116.461-50.16-7.193-24.805-14.51-37.86-25.894-46.875-11.237-8.897-28.578-15.043-54.969-23.422zm-140.53 10.219c-33.996 16.75-62.924 17.738-90.939 9.963 11.302 29.814 33.999 54.613 63.413 72.39 19.095 11.54 40.97 20 64.074 24.785 12.61-17.636 21.178-29.762 23.886-40.162 2.844-10.915 1.062-22.144-9.804-42.553-13.078-1.858-25.541-6.326-36.301-13.023-5.22-3.25-10.052-7.073-14.326-11.398zm272.321 130.66-3.22 50.664-97.4 46.414 14.134-62.934zm-392.084.35 143.606 50.742 6.398 60.113-140.297-47.246zm285.305 38.853-14.936 66.51-101.224 8.77-6.54-61.454z"/></svg>