<svg xmlns="http://www.w3.org/2000/svg" viewBox="0 0 512 512"><path d="m144.732 22.037.002.002a246 246 0 0 0-16.634.457C84.33 25.196 45.196 39.5 24.238 67.492c-7.506 10.027-5.682 23.91 2.95 31.42 8.634 7.51 23.004 8.054 36.234-.52 22.84-14.804 47.932-9.572 64.27 6.172 16.34 15.745 23.736 41.453 7.54 71.145-19.17 35.143-32.716 96.152-20.146 156.525s52.969 119.762 139.728 145.774c33.476 10.036 78.825 16.75 121.645 7.666 44.507-8.788 95.85-34.76 106.893-63.111-9.25 8.884-19.442 15.14-30.204 19.79 18.306-20.92 31.736-49.731 36.791-88.173l2.53-19.24-16.323 10.496c-10.503 6.755-20.583 13.401-30.091 18.394 2.638-5.872 5.036-13.218 7.728-22.775-11.097 15.19-23.73 25.353-38.597 31.47-9.234-.503-18.352-4.865-29.21-16.095-11.357-11.747-18.12-32.095-22.462-57.666-4.344-25.572-6.46-55.927-10.668-86.877-8.42-61.902-25.913-127.873-89.74-161.035-36.955-19.2-79.094-28.579-118.374-28.815zm-.119 18.01-.002.004c36.462.255 76.11 9.064 110.198 26.773 56.393 29.3 71.994 87.14 80.203 147.489 4.104 30.174 6.186 60.553 10.758 87.464 1.316 7.753 2.835 15.242 4.693 22.385-15.448.04-27.255-8.307-41.705-24.717 7.385 30.41 11.99 36.533 25.705 55.55-28.22-8.236-60.64-34.74-80.95-64.063-3.273 40.047 20.222 71.573 33.274 83.93-25.176-14.197-60.713-41.536-84.623-88.655-1.016 41.426 11.931 87.732 36.451 116.465-34.515-11.536-64.97-99.472-85.42-127.633-13.04 33.217-2.947 89.084 16.073 130.121-19.628-22.838-30.887-49.375-36.555-76.596-11.524-55.341 1.75-113.847 18.324-144.238 19.55-35.842 10.915-71.748-10.85-92.724-21.767-20.976-56.854-27.566-86.554-8.317-8.56 5.55-12.687 3.732-14.625 2.045-1.94-1.687-2.762-3.84-.358-7.053 16.106-21.514 50.136-35.323 90.56-37.816 5.053-.312 10.195-.45 15.403-.414z"/></svg>