<svg xmlns="http://www.w3.org/2000/svg" viewBox="0 0 512 512"><path d="m21.89 14.13 197.13 234.323L50.65 94.654l166.03 190.223-52.178 3.793 70.33 46.832-50.58 13.225 44.18 5.152-59.264 43.96 95.676-4.9-19.037 66.436 64.646-52.75 18.363 83.873 18.745-56.713 9.959 35.684 5.628-50.856 53.252 49.698-12.945-80.612 65.406 8.313-39.7-45.69 65.538-41.302-77.66-3.057 36.024-36.22-54.778 23.732 10.576-69.498-54.496 42.585-27.457-71.253-11.863 44.591-203.33-194.896L212.557 183.22 21.893 14.13zm305.014 181.175.002.004v-.004zm34.598 101.271 36.87 45.13-36.026 13.85 1.306-23.154-52.257-16.94zm-41.326 35.051-2.127 49.287-41.002-12.37 8.734-27.437zm17.543 37.21 42.135 14.046-40.797 20.734z"/></svg>