<svg xmlns="http://www.w3.org/2000/svg" viewBox="0 0 512 512"><path d="M50.348 19.37c-.616.02-1.23.065-1.852.16h-.002c-17.38 2.645-29.2 14.79-29.2 36.208 35.306 18.283 66.756 42.684 85.85 85.266L64.85 199.406l25.697 25.114c7.188-14.017 15.388-27.635 25.113-40.883l68.33-67.746c14.346-10.816 28.963-20.67 44.385-28.616L203.26 62.162l-61.906 42.633C103.76 87.532 75.44 61.047 56.088 19.529c-2.035 0-3.892-.21-5.74-.16zm164.177 97.23c-5.02 3.18-10.265 6.81-15.629 10.8l60.284 60.252-40.946 6.702-43.068-42.05-46.137 43.094.276.295c-3.707 4.943-7.09 9.848-10.035 14.645l255.986 255.85 116.955 20.496-22.512-115.043L214.527 116.6zm-39.642 61.545 37.053 36.175 21.146-3.46 6.56 39.745-46.695 6.95-49.799-49.774zm100.578 25.78 88.197 88.153-15.984 36.54-33.373-33.175-61.555 21.877L209.402 274l51.768-7.705-9.645-58.453zm102.389 102.34h.002l74.601 74.564 16.193 82.752-35.314-6.19-7.635-51.206-63.806-63.432zm-68.38 10.73 98.659 98.074 5.803 38.922-29.635-5.193-116.91-116.846z"/></svg>