<svg xmlns="http://www.w3.org/2000/svg" viewBox="0 0 512 512"><path d="M255.03 18.906c-27.873 0-53.333 14.366-72.31 38.625-4.503 5.757-8.61 12.07-12.265 18.848l22.856 1.549 16.27-32.16 7.796 33.795 28.01 1.9 13.525-30.104 8.846 31.62 26.535 1.8 9.504-33.549 15.7 35.256 23.827 1.62c-4.853-11.427-10.913-21.81-17.924-30.836-14.966-19.272-33.975-32.294-55.015-36.883a80.3 80.3 0 0 0-15.352-1.48zm-92.84 75.655c-6.698 17.794-10.502 37.839-10.502 59.064 0 39.172 13.372 74.36 33.656 98.813l10.125 12.218-.676.127c16.8 15.398 36.978 24.15 58.615 24.15 27.744 0 53.089-14.385 71.988-38.722 18.9-24.336 30.915-58.52 30.915-96.473 0-16.34-2.233-31.978-6.278-46.435l-30.926-2.098-9.142 32.268-15.1-33.91-26.326-1.788-16.09 35.803-10.517-37.605-25.883-1.758-16.893 33.387-8.092-35.082zm-68.567 92.625.002.001v71.032h18.688v-25.346h38.542a171 171 0 0 1-7.76-18.687h-30.782v-27zm295.408 0v27.001h-21.498a169 169 0 0 1-7.467 18.688h28.965v25.344h18.692v-71.033zm-52.722 79.226c-21.44 25.248-50.628 41.21-82.899 41.21-31.14 0-59.408-14.864-80.615-38.59-14.19 3.05-26.44 6.909-37.08 11.61l23.765 27.612 33.268-4.828-19.105 21.28 19.994 23.23 32.318-11.088-17.305 28.53 20.16 23.42 34.008-15.92-16.81 35.903 20.678 24.028 36.53-17.106-18.056 38.568 30.027 34.885h38.159v-68.31h18.687v68.31h78.94c-.015-65.304-.463-117.143-14.159-153.093-14.12-37.066-40.572-59.58-100.503-69.65zm-217.48 23.244c-18.723 12.042-31.003 28.008-39.67 48.406-15.069 35.456-17.94 86.204-18.188 151.094h79.092v-68.312h18.687v68.312h131.79l-21.476-24.95-26.986 12.636 13.34-28.49-24.232-28.153-29.508 13.815 14.586-31.155-20.97-24.361-36.68 12.584 19.642-32.38-17.918-20.817-43.81 6.357 25.16-28.023z"/></svg>