<svg xmlns="http://www.w3.org/2000/svg" viewBox="0 0 512 512"><path d="M44.094 71.03C39.67 125.24 76.33 159.79 184.97 214.187c-56.36-10.118-110.312-31.38-161.848-63.717v.029c7.09 53.776 49.72 75.457 166.065 93.28-56.77 8.354-113.548 5.1-170.315-9.718 17.55 48.114 61.013 56.474 169.22 38.813-50.19 23.392-102.517 36.868-157 40.47 27.648 41.79 72.765 34.776 178.53-20.158a59.3 59.3 0 0 0 7.94 8.47L163 365.435l11.188 40.843 38.625-11.154 17.718-84.812a58.5 58.5 0 0 0 17.97 5.406l-17.624 84.217 26.654 31.093 28.408-32.154-19.062-83.594a58.5 58.5 0 0 0 17.75-6.342l19.97 87.592 36.78 11.5 10.156-43.185-55.435-64.157a59.4 59.4 0 0 0 7.093-7.78c106.15 55.19 151.368 62.299 179.063 20.437-54.483-3.602-106.81-17.076-157-40.469 108.207 17.662 151.669 9.301 169.219-38.813-56.758 14.816-113.525 18.066-170.284 9.72 116.344-17.825 158.942-39.506 166.034-93.282v-.03c-51.547 32.343-105.477 53.6-161.846 63.717 108.64-54.396 145.297-88.949 140.875-143.156-52.904 58.692-112.837 102.317-179.844 130.846 4.598-6.468 7.28-14.4 7.28-22.94.002-21.868-17.724-39.591-39.592-39.591-21.87 0-39.594 17.724-39.594 39.593a39.5 39.5 0 0 0 7.656 23.438c-67.49-28.517-127.842-72.304-181.062-131.346zM236.22 222.5l20.904 45.563 20.563-44.782c11.324 7.093 18.812 19.663 18.812 34.096 0 22.32-17.9 40.187-40.22 40.187-22.319 0-40.217-17.87-40.217-40.187 0-14.993 8.088-27.957 20.156-34.875z"/></svg>