<svg xmlns="http://www.w3.org/2000/svg" viewBox="0 0 512 512"><path d="M245.975 26c-85.496 0-154.809 69.301-154.82 154.797v118.63h15.261c40.814 0 73.9 33.087 73.9 73.901v5.715h13.477a65.7 65.7 0 0 1-4.332-23.354c.477-36.417 30.136-65.689 66.557-65.689 36.42 0 66.08 29.271 66.556 65.69a65.7 65.7 0 0 1-4.334 23.308h13.5v-5.717c.007-40.802 33.075-73.881 73.88-73.9h15.226V180.797C420.833 95.31 351.535 26.013 266.046 26zM180.52 165.896a55.6 55.6 0 0 1 22.11 4.231c20.799 8.613 34.36 28.91 34.36 51.422.006 30.736-24.908 55.656-55.644 55.656-22.512.005-42.814-13.553-51.432-34.35-8.618-20.796-3.855-44.736 12.06-60.656a55.65 55.65 0 0 1 38.546-16.303zm146.527.047a55.5 55.5 0 0 1 22.096 4.223c20.788 8.604 34.346 28.884 34.355 51.383.006 30.736-24.908 55.656-55.644 55.656-22.498-.005-42.78-13.56-51.387-34.346-8.61-20.786-3.85-44.71 12.056-60.62a55.62 55.62 0 0 1 38.524-16.296zm-71.002 140.514a48.581 48.581 0 0 0-34.352 82.932 48.58 48.58 0 0 0 82.934-34.35h-.047c0-26.813-21.722-48.557-48.535-48.582zM256 318a16 16 0 0 1 16 16 16 16 0 0 1-16 16 16 16 0 0 1-16-16 16 16 0 0 1 16-16zm-18 34a16 16 0 0 1 16 16 16 16 0 0 1-16 16 16 16 0 0 1-16-16 16 16 0 0 1 16-16zm36 0a16 16 0 0 1 16 16 16 16 0 0 1-16 16 16 16 0 0 1-16-16 16 16 0 0 1 16-16zm-68.535 46.773.01.034c-.012-.035 1.943 18.084 1.943 18.084h23.103a67.16 67.16 0 0 1-25.056-18.118zm101.06 0-.004.038.004-.004zm-.004.038a67.16 67.16 0 0 1-25.042 18.08h23.103c1.94-18.047.015-.147 1.94-18.08zm-99.103 34.322v18.289h97.164v-18.29zm0 34.578V486h97.164v-18.29z"/></svg>