<svg xmlns="http://www.w3.org/2000/svg" viewBox="0 0 512 512"><path d="m265.342 17.498.002.002-4.188 25.313a212.7 212.7 0 0 0-52.562 6.28l-9.438-25.062-55.125 20.75 9.906 26.282a215.6 215.6 0 0 0-41.5 30.876L90 83.53l-37.375 45.5L75.75 148a213 213 0 0 0-20.5 46.594l-30.062-4.97-9.594 58.095L46 252.75c-.374 17.218 1.313 34.127 4.906 50.438L22 314.063l20.75 55.125 28.625-10.782a215.5 215.5 0 0 0 29.28 41.75L81.687 423.25l45.533 37.344 18.341-22.344c14.386 9.118 30.041 16.577 46.688 22.125l-4.53 27.5 58.093 9.594 4.343-26.283c18.046.874 35.764-.54 52.875-4.03l8.971 23.78 55.094-20.75-8.532-22.657a215.5 215.5 0 0 0 44.657-30.779l17.935 14.72 37.344-45.533-17.187-14.093a213 213 0 0 0 23.25-50.03l21.406 3.53 9.56-58.094-21.06-3.47a212.7 212.7 0 0 0-5.408-55.06l19.843-7.47-20.75-55.125-20.185 7.594a215.6 215.6 0 0 0-32.5-44.375l14.154-17.25-45.5-37.375-14.72 17.935c-15.397-9.116-32.13-16.37-49.936-21.47l3.967-24.092zm-8.03 47.94h.002c11.136-.15 22.436.685 33.809 2.562C395.112 85.164 465.665 183.606 448.5 287.594 431.336 391.58 332.894 462.134 228.906 444.97 124.92 427.804 54.366 329.359 71.53 225.373c15.02-90.99 92.294-156.385 181.034-159.812 1.585-.06 3.16-.103 4.75-.124zm.22 18.687c-1.438.018-2.881.04-4.311.094-80.154 3.037-149.672 61.916-163.25 144.185-15.52 94.022 47.977 182.606 142 198.125 94.02 15.52 182.573-47.977 198.093-142 15.52-94.02-47.947-182.573-141.97-198.091a174 174 0 0 0-30.563-2.313zm.406 18.156h.001c9-.116 18.144.547 27.342 2.065 84.096 13.88 140.85 93.09 126.971 177.185-13.88 84.096-93.06 140.85-177.156 126.971-25.808-4.26-49.03-14.68-68.438-29.5l109.688-133.625 52.843 43.375 58.438-71.188-108.22-88.78-101.843 35.53 71 58.25L140.78 353.938c-26.985-33.066-40.164-77.127-32.654-122.625 12.146-73.583 74.284-126.222 145.97-128.936 1.28-.048 2.557-.079 3.843-.096z"/></svg>