<svg xmlns="http://www.w3.org/2000/svg" viewBox="0 0 512 512"><path d="M373.688 22.063c-1.245-.014-2.498 0-3.75.03-31.364.749-65.528 15.414-96.938 47.313-88.264 89.642-154.092 171.18-242.937 174.03 23.65 18.21 54.87 31.21 85.25 36.783-24.375 29.26-50.878 47.65-93.438 64.842 37.915 9.124 74.452 6.5 109.813-2.342-27.29 34.35-62.117 65.85-107.47 95.779 60.377-.392 136.226-12.138 181.626-47.906-4.842 30.69-16.187 65.126-43.22 100.47 70.739-18.73 117.115-42.386 146.595-83.533 2.905 27.513-.941 45.097-11.096 80.594 78.006-66.3 150.858-164.774 182.781-270.969C513.44 108.94 452.065 22.89 373.69 22.063zm-2.659 74.408c5.76 0 11.1 1.731 15.565 4.685-7.706.283-13.875 6.6-13.875 14.375 0 7.956 6.449 14.406 14.404 14.406 5.118 0 9.6-2.663 12.156-6.685.028.503.034 1.021.034 1.53 0 15.632-12.648 28.314-28.282 28.314-15.632 0-28.31-12.682-28.31-28.315 0-15.63 12.678-28.308 28.31-28.308zm67.375 34.873h.002a28.2 28.2 0 0 1 12.438 2.875c-5.734 1.9-9.875 7.283-9.875 13.654 0 7.955 6.449 14.406 14.404 14.406 4.54 0 8.548-2.092 11.19-5.373.086.902.156 1.826.156 2.75 0 15.632-12.68 28.313-28.315 28.313-15.633 0-28.312-12.683-28.312-28.315s12.68-28.31 28.312-28.31zM326.902 163.81l.004.003 4.906 45.155 29.782-25.031 4.625 42.529 31.31-26.344 4.315 39.75 30.31-25.469 5.971 55.032-43.937 36.937-4.315-39.75-30.312 25.47-4.625-42.532-31.313 26.343-4.904-45.156-29.783 25.031-5.97-55.03z"/></svg>