<svg xmlns="http://www.w3.org/2000/svg" viewBox="0 0 512 512"><path d="M322.516 37.236c-1.803.002-3.541.234-5.305.377l-51.754 85.42c61.384 5.321 91.78 33.507 102.81 61.262l-16.724 6.644c-7.707-19.39-26.961-40.823-72.318-48.173 19.162 13.713 33.541 29.578 40.927 48.9l-16.812 6.428c-7.863-20.571-27.132-38.098-55.736-53.84-10.062 4.12-61.61 25.173-79.456 31.217-37.145 12.579-57.375 38.09-95.98 82.898l-.133.15-.135.145c-6.262 6.652-8.894 12.654-9.498 17.031-.604 4.375.485 7.096 2.409 9.13 3.848 4.065 14.178 6.64 29.47-3.731l.074-.051 75.041-48.773 10.856 14.3-51.455 45.31-94.1 86.964c-11.929 11.024-11.735 21.74-8.949 25.44 1.394 1.85 3.498 3.27 8.582 3.04s12.946-2.694 22.781-9.431c29.733-20.365 57.435-40.715 81.75-65.26l-.052-.225.367-.092c.172-.173.346-.34.517-.513l.352.293a108 108 0 0 0 10.084-3.19c6.013-2.246 12.44-6.342 13.203-7.377.324-.44 2.174-6.691 2.49-12.152s.006-10.106.006-10.106l17.957-1.232s.399 5.64.01 12.375c-.39 6.734-.657 14.587-5.979 21.8-5.76 7.81-14.182 10.864-21.39 13.556a117 117 0 0 1-6.326 2.142c-24.372 32.684-55.334 57.578-83.961 83.51-9.904 8.972-14.002 16.688-14.914 21.43-.913 4.743.134 6.406 2.586 8.18 4.902 3.545 21.164 4.12 37.998-11.39 33.014-30.416 65.222-60.634 89.837-96.72l.811.482c1.444-.624 4.21-1.853 7.965-3.902 4.97-2.713 10.363-7.02 11.084-8.107.685-1.033 2.533-7.58 3.088-13.133s.511-10.205.511-10.205l17.999-.194s.064 5.545-.6 12.192c-.665 6.646-1.366 14.304-5.996 21.289-4.666 7.038-11.527 10.72-17.463 13.959-1.81.988-3.478 1.826-5.024 2.578-16.472 29.91-40.154 55.83-65.37 82.955-5.39 5.798-6.38 10.202-6.061 13.31.32 3.108 2.042 5.769 5.422 7.868 6.76 4.2 19.633 4.863 31.431-7.313 13.606-14.042 25.93-28.72 36.664-44.297 9.298-16.962 18.75-34.086 27.762-51.193l.584.27c.878-.287 3.91-1.295 7.867-3.045 4.577-2.023 9.602-5.512 10.053-6.092.437-.563 2.571-6.262 3.398-11.168a92 92 0 0 0 1.06-9.059l17.976.99s-.275 5.05-1.286 11.057c-1.012 6.006-2.045 12.934-6.933 19.223-4.902 6.308-11.39 9.037-16.986 11.511-.86.38-1.643.693-2.452 1.026-7.137 16.2-15.774 31.407-25.623 45.803-3.572 6.519-7.222 13.13-10.646 19.502-3.152 5.866-3.35 10.105-2.639 12.964s2.319 4.718 4.73 5.942c4.826 2.448 13.384 2.176 21.132-8.614 57.44-79.991 126.521-160.277 157.107-264.986 2.243-7.679 7.138-11.46 12.992-16.894s12.983-11.266 19.97-17.055c6.99-5.79 13.842-11.54 18.83-16.39 3.312-3.22 5.42-6.373 6.46-7.813-2.444-9.527-6.438-19.066-11.635-28.252-11.087 7.119-23.137 13.666-32.795 18.957 6.175-14.902 9.927-30.611 12.4-46.746a155 155 0 0 0-16.74-15.631c-21.237-17.053-46.034-27.5-68.177-27.475zm-166.38 3.994a62 62 0 0 0-2.382.01c-12.954.302-28.805 5.212-44.08 13.475-8.182 4.426-16.13 9.828-23.46 15.853 2.419 19.238 6.329 37.98 13.626 55.59-12.265-6.72-28.38-15.468-41.486-24.84-5.205 8.198-8.805 16.526-10.204 24.452.6 2.778 3.536 8.693 8.946 15.263 5.898 7.162 14.06 15.165 22.449 22.916 8.387 7.752 16.989 15.272 24.012 21.897 1.998 1.884 3.853 3.573 5.574 5.209 15.83-14.625 32.157-25.492 53.246-32.633 14.01-4.745 56.235-21.83 72.2-28.32l-52.18-76.707c-5.933-8.301-14.541-11.985-26.26-12.165zm239.848 166.59c-4.58 14.6-9.853 28.71-15.685 42.397l29.273 16.236.076.045c15.98 9.278 26.107 5.987 29.66 1.662 1.778-2.163 2.672-4.952 1.764-9.275s-3.953-10.126-10.664-16.324l-.29-.272-.268-.295c-12.296-13.554-23.468-24.77-33.866-34.174zm-26.808 66.66c-12.18 24.887-26.055 48.39-40.76 70.897 26.935 33.764 60.806 61.355 95.48 89.084 17.877 14.295 34.059 12.587 38.702 8.707 2.32-1.94 3.25-3.673 2.01-8.34-1.244-4.667-5.871-12.08-16.38-20.338-31.774-24.973-66.026-48.625-93.251-81.777l12.916-12.457c26.194 23.147 55.562 41.715 86.998 60.16 10.282 6.033 18.294 7.943 23.382 7.816s7.089-1.69 8.35-3.632c2.521-3.884 1.966-14.591-10.703-24.754l-99.945-80.174zm-51.772 87.374a1279 1279 0 0 1-16.785 23.95c5.713 8.956 11.47 17.891 17.184 26.778 11.799 14.79 25.119 28.573 39.674 41.63 12.62 11.324 25.417 9.759 31.867 5.097 3.226-2.33 4.758-5.104 4.86-8.227.1-3.123-1.196-7.447-6.98-12.855-26.477-24.761-51.405-48.476-69.82-76.373zm-29.056 40.832a4530 4530 0 0 1-18.059 24.437c7.546 8.835 15.018 17.636 22.326 26.441 8.482 10.222 17.038 9.89 21.68 7.112 2.32-1.39 3.793-3.352 4.303-6.254s.017-7.12-3.537-12.75c-3.863-6.123-7.973-12.466-11.995-18.723a297 297 0 0 1-14.718-20.263z"/></svg>