<svg xmlns="http://www.w3.org/2000/svg" viewBox="0 0 512 512"><path d="M193 33v443.55c5.33.679 10.708 1.133 16.123 1.307l-.076-278.337L383.727 136 209.014 72.467 209.002 33zm159 352c-17.227 0-31 13.773-31 31s13.773 31 31 31 31-13.773 31-31-13.773-31-31-31zm-104 48c-7.122 0-14.097.16-20.89.445l.013 45.112c6.79.286 13.76.443 20.877.443 34.738 0 66.208-3.574 88.326-9.104 6.035-1.508 11.344-3.186 15.805-4.9-.043 0-.085.004-.129.004-19.54 0-36.492-11.588-44.346-28.23C290.02 434.39 269.646 433 248 433zm-73.002 5.867c-5.483.983-10.627 2.062-15.324 3.237-11.06 2.764-19.795 6.09-25.035 9.187-4.374 2.586-5.363 4.423-5.575 4.709l-.001.002c.21.284 1.2 2.12 5.576 4.709 5.24 3.097 13.974 6.421 25.033 9.185 4.698 1.175 9.842 2.256 15.326 3.239z"/></svg>