<svg xmlns="http://www.w3.org/2000/svg" viewBox="0 0 512 512"><path d="M159.977 20.63c78.966 153.843 60.076 197.813-140.143 27.124v71.185C48.22 134 72.317 147.707 92.607 160.23c-23.095.797-27.865 26.2 6.827 50.518 34.105 23.908 59.087 13.718 54.964-6.256 75.656 67.92-15.78 85.644-134.564 105.58v62.512c125.702-58.524 142.942-36.168 37.998 123.324h58.27c100.944-258.564 155.41-177.483 125.953 0h33.115c8.185-107.59 37.76-129.26 60.62 0h45.493c-141.196-219.314-28.308-204.87 113.828-140.215v-45.892c-239.156-11.635-236.9-101.799 0-133.444V85.813c-72.386 39.544-74.393 15.146-7.328-65.182H457.39c-141.87 206.317-167.428 173.33-114.166 0H297.82c-26.108 98.248-72.014 80.678-90.902 0h-46.941zm-21.49 55.854c-12.85-.12-17.734 15.212-.45 35.832 27.02 32.236 54.07 12.942 27.088-19.246-9.712-11.586-19.428-16.518-26.637-16.586zm154.74 13.995v.001c2.17.067 4.403.65 6.634 1.866 17.85 9.735-.25 40.7-18.1 30.963-15.645-8.534-3.72-33.294 11.466-32.83zm-52.766 12.209c9.52 0 17.238 7.72 17.238 17.24 0 5.46-2.544 10.314-6.5 13.472l5.82 41.4 49.346-6.94 6.96 49.476-18.51 2.6-4.354-30.967-20.23 2.844c14.462 68.142 18.466 141.157 9.011 201.95-25.853-55.826-42.906-127.008-47.84-196.49l-19.963 2.807 4.356 30.97-18.508 2.602-6.959-49.476 48.19-6.778-5.93-42.142c-5.558-2.86-9.367-8.644-9.367-15.328 0-9.523 7.718-17.24 17.24-17.24zm202.01 23.859v.002q.846.011 1.654.056c8.632.48 13.785 3.578 15.94 6.461 2.155 2.882 2.776 5.829-.133 11.368-2.91 5.538-10.27 12.994-23.912 19.808-13.666 6.827-25.43 9.034-34.06 8.555s-13.785-3.58-15.94-6.461c-2.156-2.884-2.775-5.833.134-11.371 2.91-5.538 10.27-12.997 23.91-19.809 12.81-6.4 23.952-8.735 32.407-8.61zM182.168 293.109q.775.005 1.518.051c4.754.292 8.483 1.81 10.761 3.774 3.038 2.62 4.42 5.678 3.496 10.87-.923 5.195-4.94 12.75-14.824 21.057-19.795 16.637-35.19 14.16-40.83 8.856-2.822-2.653-4.209-6.064-3.209-11.461 1-5.395 4.96-12.847 14.28-20.776 10.905-9.276 21.052-12.415 28.806-12.369zm186.977 47.522c-25.601.183-26.417 26.004 20.003 60.105 72.344 53.145 114.972 20.073 42.516-33.146-25.996-19.097-48.154-27.062-62.518-26.96z"/></svg>