<svg xmlns="http://www.w3.org/2000/svg" viewBox="0 0 512 512"><path d="M161.021 23.559v.002c-33.58.017-61.172 3.346-88.61 8.92-17.005-6.94-33.71-11.496-41.27 1.18-7.755 13-.297 25.253 12.244 37.316C16.962 176.419 23.36 323.974 37.28 420.24c-10.227 10.317-16.86 20.99-10.172 31.194 8.874 13.538 24.59 11.055 42.342 3.994 47.522 8.267 100.352 10.03 154.365 7.802 12.925-47.394 36.719-95.082 59.352-130.25 16.112-22.799 31.442-44.715 50.035-61.974-11.969-76.414-29.46-148.738-56.082-207.172 7.74-9.542 11.027-19.274 4.947-29.467-6.655-11.157-20.402-8.94-35.195-3.523-29.143-5.066-58.17-7.3-85.852-7.285zm-16.355 70.546c16.406 18.518 26.657 36.925 30.428 52.338l-13.625 29.985-25.326-23.196c-2.09-15.382.739-35.81 8.523-59.127zm59.799 40.832c2.124 16.568 2.255 31.596.722 44.409l-27.605 37.8-5.936-29.341 18.168-39.98c4.441-4.313 9.32-8.62 14.65-12.887zm-100.145 19.28c15.217 4.34 13.568 3.979 16.1 4.928l37.924 33.369 5.785 28.6-39.69-23.645c-6.777-11.435-20.586-35.652-20.119-43.252zm120.828 36.67c1.362 22.87-1.842 40.922-7.91 53.681l-29.627 22.168-6.277-31.039 24.875-34.058c5.742-3.67 12.06-7.27 18.94-10.752zM112.96 213.85c4.943.367 9.692.876 14.228 1.52l40.682 24.237 6.098 30.145-31.024-7.457c-11.134-9.151-21.831-25.208-29.984-48.445zm124.043 40.89c-6.873 38.457-22.52 60.068-38.758 64.559l-7.566-37.406 29.945-22.41a207 207 0 0 1 16.379-4.743zm138.916 13.637c-2.53-.301-5.39.154-9.219 1.426-7.656 2.544-19.343 12.1-28.252 21.234 3.464-1.324 7.973-2.057 12.65-2.06 10.423 0 18.87 3.557 18.872 7.945.002 4.389-8.448 7.945-18.871 7.945-9.797-.003-17.96-3.16-18.791-7.27-11.324 12.605-23.03 28.277-34.055 45.21-4.24 6.509-8.363 13.22-12.348 20.013 9.174.608 15.935 3.938 15.94 7.848-.001 4.388-8.45 7.944-18.873 7.943a43 43 0 0 1-5.766-.386c-15.36 28.273-27.56 56.71-33.207 77.925 15.825 3.992 32.04 7.125 48.447 9.48l-.002.02c0 4.388 8.45 7.946 18.871 7.946 3.762-.002 7.435-.48 10.55-1.367a3.4 3.4 0 0 0-.12.87c0 4.389 8.45 7.946 18.87 7.946 10.422 0 18.871-3.557 18.872-7.945-.007-.714-.243-1.425-.7-2.112a593 593 0 0 0 39.724-.498 3.5 3.5 0 0 0-.264 1.31c0 4.39 8.45 7.946 18.87 7.946s18.871-3.555 18.872-7.943c-.006-1.388-.875-2.751-2.521-3.953a585 585 0 0 0 22.722-2.836c3.317 2.536 9.65 4.112 16.528 4.113 10.425 0 18.875-3.558 18.873-7.947-.006-1.39-.877-2.752-2.524-3.955.051-11.342-3.426-27.164-10.037-44.473-6.863-17.968-16.741-37.592-27.896-56.428a43 43 0 0 1-6.625.518c-10.423 0-18.873-3.56-18.871-7.947.01-3.928 6.836-7.263 16.06-7.848-13.387-20.802-27.843-39.76-40.547-53.287-6.722-7.158-12.984-12.791-17.996-16.281-2.506-1.745-4.706-2.801-7.236-3.102zm-234.906 7.82 36.01 8.657 7.468 36.921c-16.307.307-37.747-13.35-58.191-43.462 5.083-.92 9.987-1.616 14.713-2.116zm60.457 55.746c2.917 17.95 6.504 35.5 11.006 52.604l-13.438 3.814c-4.67-17.697-8.37-35.773-11.36-54.172zm131.369 72.213c10.423 0 18.871 3.56 18.869 7.95 0 4.387-8.448 7.945-18.87 7.945a44 44 0 0 1-3.358-.133c1.22 1.068 1.857 2.238 1.863 3.424 0 4.388-8.45 7.943-18.873 7.943-10.421 0-18.871-3.555-18.871-7.943s8.45-7.946 18.87-7.946c1.128.002 2.252.045 3.36.131-1.22-1.068-1.856-2.237-1.863-3.422-.002-4.39 8.449-7.949 18.873-7.949zm93.41 15.451c10.423 0 18.871 3.56 18.87 7.95 0 4.388-8.449 7.945-18.87 7.945-10.423 0-18.872-3.557-18.873-7.945-.002-4.39 8.448-7.95 18.873-7.95zm-208.797 54.485c-10.423 0-18.871 3.556-18.869 7.945 0 4.388 8.45 7.945 18.87 7.945a44 44 0 0 0 4.228-.209c1.488 3.843 9.369 6.665 18.617 6.666 10.424 0 18.874-3.558 18.873-7.947-.001-4.388-8.451-7.943-18.873-7.943a44 44 0 0 0-4.225.209c-1.488-3.843-9.37-6.665-18.619-6.666z"/></svg>