<svg xmlns="http://www.w3.org/2000/svg" viewBox="0 0 512 512"><path d="M451.686 99.914a27.358 27.358 0 0 0-29.04 43.713l-29.222 13.836a59.6 59.6 0 0 1 9.853 15.826 63.3 63.3 0 0 1 3.586 11.275l30.05-14.232a27.276 27.276 0 0 0 38.433 19.066 27.358 27.358 0 0 0-6.987-51.675 27.358 27.358 0 0 0-16.673-37.809zm-344.618 54.031c-10.483 0-20.045 1.06-28.547 3.727 17.644-.233 36.338 5.823 54.588 17.947 26.555 17.633 49.197 46.262 63.778 80.596 14.582 34.335 19.506 70.532 13.683 101.885-4.332 23.618-14.29 42.567-28.697 55.203 66.572-20.312 96.75-133.028 185.182-177.762 19.917-10.04 27.73-34.475 19.03-54.96v-.022c-7.173-16.9-23.21-25.297-40.646-25.297a58.1 58.1 0 0 0-16.736 2.515c-25.75 7.757-51.152 10.483-75.598 10.483-56.22 0-107.347-14.315-146.037-14.315zm-27.552 22.397a51.25 51.25 0 0 0-20.15 4.006c-18.565 7.886-31.458 26.764-36.303 53.156-5.113 27.8-.63 60.165 12.496 91.203s33.393 56.743 56.943 72.373c22.348 14.85 44.895 18.682 63.459 10.797 18.565-7.885 31.458-26.764 36.303-53.154 5.102-27.801.662-60.202-12.508-91.217h.002c-13.173-31.015-33.392-56.721-56.93-72.361-14.756-9.795-29.594-14.803-43.312-14.803zm20.732 81.058c11.394.449 23.983 10.945 30.719 26.813v.012c8.293 19.518 4.577 39.784-8.303 45.248-12.882 5.46-30.037-5.93-38.33-25.46s-4.575-39.796 8.305-45.26c2.415-1.023 4.98-1.456 7.61-1.353z"/></svg>