<svg xmlns="http://www.w3.org/2000/svg" viewBox="0 0 512 512"><path d="M19.5 12.28zh.01zm.01.001c88.713 14.19 164.117 68.856 216.77 159.313C191.736 127.057 146.123 88.34 94.626 61.75c32.85 23.08 62.377 54.866 90.844 94.656C134.238 105.183 81.956 62.756 18.188 41.28v35.315c60.133 16.64 118.396 62.562 163.966 129.312l-.125.063 22.192 38.404 157.935-91.187-22.187-38.407-.065.034c-38.38-69.37-83.04-95.126-106.718-102.532H190.47c62.75 22.53 105.369 69.706 133.779 142.282C274.132 84.373 201.73 31.019 121.594 12.28zM173.47 52.75c52.195 21.552 97.93 66.563 110.843 121.594zM348.5 182.656l-111.97 64.656L321.25 394l111.97-64.656zm72.97 33.563-24 13.844 19.78 34.279 24-13.873zm-168.345 97.185-169.654 97.94 19.808 34.312 169.627-97.97-19.78-34.28zm212.404 18.817-157.935 91.185 22.22 38.471 157.936-91.19zM62.72 412.81l-35.94 20.75 28.909 50.062 35.937-20.75z"/></svg>