<svg xmlns="http://www.w3.org/2000/svg" viewBox="0 0 512 512"><path d="M448.732 20.482 269.6 95.828a127 127 0 0 1 6.513 15.512 128.4 128.4 0 0 1 6.739 34.348c.057.989.093 1.98.127 2.968.015.44.035.882.046 1.323.023.982.027 1.965.028 2.947 0 .442.008.884.004 1.326-.008.975-.036 1.95-.067 2.924-.014.457-.024.914-.043 1.37-.04.937-.094 1.873-.154 2.808a128.6 128.6 0 0 1-6.328 32.478c-.24.72-.5 1.436-.754 2.154-.221.625-.437 1.25-.668 1.871-.297.797-.61 1.591-.922 2.383-.21.532-.416 1.066-.633 1.596a131 131 0 0 1-1.105 2.59c-.188.432-.374.863-.567 1.293q-.604 1.338-1.24 2.666a127.2 127.2 0 0 1-20.433 30.49c-.693.769-1.39 1.537-2.104 2.293a130 130 0 0 1-3.023 3.094 130 130 0 0 1-3.135 2.982 129 129 0 0 1-2.32 2.07 127.2 127.2 0 0 1-30.764 20.024c-.891.41-1.785.815-2.684 1.205-.432.187-.867.367-1.3.549-.865.364-1.733.724-2.606 1.068-.532.21-1.067.41-1.602.611-.796.303-1.593.604-2.394.89-.625.222-1.254.43-1.88.644-.723.245-1.44.493-2.165.724a128.5 128.5 0 0 1-32.56 5.89c-.937.048-1.872.09-2.81.116-.456.013-.913.018-1.37.026-.975.018-1.949.032-2.924.027-.442-.002-.886-.015-1.328-.022a126 126 0 0 1-2.945-.068c-.44-.016-.882-.043-1.323-.064-.99-.048-1.979-.096-2.967-.166a128.4 128.4 0 0 1-34.253-7.202 127 127 0 0 1-15.42-6.72L18.51 444.947l15.416 6.73 15.953-36.538c30.445 12.233 62.586 18.935 94.898 20.115l-.377 56.15 16.82.114.38-56.15c30.063-.688 60.043-6.16 88.713-16.43l21.689 55.302 15.658-6.142-21.687-55.301c29.2-12.482 56.74-30.133 81.26-52.953l32.912 33.36 11.976-11.815-32.914-33.362c23.148-24.21 41.17-51.509 54.045-80.537l55.004 22.432 6.351-15.576-55.005-22.434a282.2 282.2 0 0 0 17.625-88.482l56.15.379.111-16.82-56.148-.38c-.744-32.325-7.014-64.555-18.836-95.162l36.752-15.46zm-194.64 81.872-67.809 28.523c10.696 15.023 9.243 36.177-4.28 49.52-13.523 13.341-34.696 14.51-49.573 3.613l-29.434 67.418a110.5 110.5 0 0 0 15.412 6.74l27.996-64.129-.47 69.969c5.596.46 11.22.496 16.82.111l.453-67.271 24.564 62.63a110.5 110.5 0 0 0 15.659-6.144l-25.547-65.137 49.11 49.774a113 113 0 0 0 6.206-5.684 113 113 0 0 0 5.768-6.13l-49.11-49.776 64.788 26.422A110.5 110.5 0 0 0 261 187.23l-62.295-25.406 67.274.453c.46-5.595.498-11.219.113-16.82l-69.969-.47 64.498-27.132a110.5 110.5 0 0 0-6.53-15.501zm-98.856 29.218c-5.483-.037-10.98 2.04-15.242 6.244-8.52 8.408-8.611 21.878-.203 30.399 8.407 8.522 21.876 8.613 30.397.205s8.613-21.877.205-30.399c-4.204-4.26-9.673-6.412-15.157-6.449z"/></svg>