<svg xmlns="http://www.w3.org/2000/svg" viewBox="0 0 512 512"><path d="M256.16 15.82v.002c-74.685 0-124.825 36.292-157.865 90.487C66.36 158.692 51.637 228.052 50.68 294.953c44.44 12.795 73.835 28.683 90.46 50.123 15.805 20.383 18.445 45.188 12.157 71.963 23.635 7.218 62.826 11.321 100.986 10.906 38.28-.416 76.213-5.67 96.373-13.44-4.608-25.935-.182-50.214 16.983-70.07 17.928-20.737 48.197-36.53 93.4-49.488-.972-63.406-15.24-132.688-46.867-185.92-20.367-34.277-47.387-61.936-82.97-77.972-62.556 14.347-113.234 44.997-143.622 84.12 25.38 8.96 46.09 21.593 65.352 34.583l10.742 7.244-10.268 7.906c-26.884 20.705-46.28 43.708-65.26 67.48 28.468 22.27 47.562 52.2 29.022 65.186-33.572 23.518-170.715 1.396-119.004-78.754 6.006-9.31 15.308-13.314 26.201-13.496 14.635-.244 32.145 6.413 48.4 16.37 17.11-21.453 35.198-43.145 59.1-63.32-18.538-11.88-37.98-22.425-61.974-29.265l-12.291-3.504 7.066-10.65c28.184-42.48 75.737-75.725 134.613-94.521-13.362-3.012-27.71-4.614-43.119-4.614zm126.594 189.504h.002c10.891.183 20.189 4.188 26.195 13.496 51.712 80.15-85.427 102.272-119 78.754-31.495-22.06 45.602-93.038 92.803-92.25zM252.199 309.057c13.922 0 38.53 68.05 30.278 79.51-6.48 8.995-54.935 8.616-60.555 0-7.197-11.035 16.31-79.51 30.277-79.51zM354.711 433.13c-10.557 3.91-23.225 6.831-37.172 8.951l5.941 48.89h53.416zm-207.889 1.568-18.5 56.274h47.092l5.914-48.684c-12.764-1.877-24.484-4.38-34.506-7.59zm152.17 9.668c-13.13 1.28-26.996 1.98-41.078 2.21v44.396h46.74zm-99.107.139v.002l-5.647 46.465h44.99V446.6c-13.443-.204-26.714-.894-39.343-2.094z"/></svg>