<svg xmlns="http://www.w3.org/2000/svg" viewBox="0 0 512 512"><path d="m69.258 18.373-25.598.002 77.942 83.28-103.559-52.25v20.933l110.623 55.814-110.623-18.687v18.955l104.289 17.615-104.289 12.373v18.82L126.189 162.4 18.043 204.95v20.083l113.158-44.525L19.496 256.43l-1.453-.793v21.217c65.806 34.34 132.51 46.543 179.203 32.154 3.824 12.527 9.196 23.717 15.95 33.09l-98.87 151.527h22.315l86.89-133.172-51.379 133.172h20.034l47.378-122.8-16.668 122.8h18.862l16.707-123.1 16.707 123.1h18.855l-16.666-122.8 47.381 122.8h20.033l-51.248-132.824 86.666 132.824h22.313l-98.83-151.47c6.884-9.367 12.474-20.595 16.433-33.208 45.343 13.82 109.376 2.79 173.2-29.29V255.19l-109.883-74.68 109.887 43.236v-20.082L388.44 162.4l104.872 12.442v-18.82l-101.014-11.985 101.014-17.062V108.02l-104.84 17.71 104.84-52.664V52.152L388.42 104.838l80.92-86.463h-25.596l-87.07 93.033 10.346 9.684 1.197 3.215c2.333 6.264 3.502 11.874 3.502 18.347 0 27.94-22.42 53.896-57.76 67.795-14.693-15.965-20.836-32.193-19.682-40.394.63-4.474 2.12-6.772 6.56-8.86 4.443-2.087 12.65-3.236 24.878-1.088l10.978 1.93-.013-11.146c-.03-20-4.383-35.828-14.752-46.682-10.37-10.852-25.518-15.306-43.397-15.79h-.004c-21.498-.586-47.89 4.298-80.78 12.54l-12.01 3.01 6.185 10.72c17.82 30.892 20.35 45.606 18.635 57.834-1.41 10.04-6.747 20.572-11.127 36.325-33.276-14.21-54.31-39.25-54.31-66.196 0-5.457 1.75-11.22 4.128-17.882l2.77-7.768c4.31-5.594 3.082-4.446 4.31-5.596zm205.728 88.691h.002q1.549-.004 3.03.038h.003c15.15.41 24.504 3.855 30.391 10.02 4.566 4.78 7.734 12.16 8.965 23.27-9.47-.513-17.64.671-24.49 3.89-7.2 3.384-12.52 9.362-15.278 16.282-8.773-10.16-11.91-19.657-13.213-30.957-30.473 13.652-38.453-12.415-13.154-20.543 8.877-1.28 16.82-1.978 23.744-2zm.414 64.96c-.395 14.73 6.987 30.444 19.77 45.591-27.713 8.296-55.654 9.176-78.88.162 3.84-15.15 9.728-25.68 12.27-39.562 12.53 3.915 33.24 3.23 46.84-6.192zm-131.336 22.34L77.098 281.68c-12.686-4.224-25.63-9.41-38.614-15.56zm226.5 0L477.04 266.73c-13.155 6.165-26.253 11.33-39.078 15.508zm-213.287 13.48-29.925 85.85c-9.986-1.394-20.393-3.488-31.086-6.3zm200.077.004 61.345 79.988c-10.8 2.753-21.3 4.773-31.35 6.066zm-185.18 14.04-1.494 73.176c-7.553.735-15.648.887-24.176.463zm170.28 0 25.669 73.637c-8.555.31-16.649.02-24.182-.857zm-151.665 3.776a153 153 0 0 0 12.053 4.678l5.539 1.887-1.447 53.042-7.026 2.944c-3.268 1.368-6.77 2.548-10.472 3.547zm133.068 1.133h.002l1.313 64.123a82 82 0 0 1-7.711-2.723L307.287 284c-3.073-.493 1.873-51.797 1.873-51.797l5.438-1.871a151 151 0 0 0 9.26-3.535z"/></svg>