<svg xmlns="http://www.w3.org/2000/svg" viewBox="0 0 512 512"><path d="M256 32.18c-45.506 0-86.897 23.38-117.373 62.168a206 206 0 0 0-11.254 15.832h73.002c2.733-5.315 6.66-10.462 12.793-14.4 3.446-2.214 7.064-3.268 10.709-3.52 6.075-.417 12.223 1.403 17.777 3.851a53.1 53.1 0 0 1 14.975 9.926c9.205-7.04 20.11-9.56 29.404-11.64l4.535-1.016 3.455 3.11c4.806 4.327 8.823 8.926 12.112 13.689h78.492a206 206 0 0 0-11.254-15.832C342.897 55.56 301.506 32.18 256 32.18zm-30.687 78.392c-1.284.01-2.15.183-2.42.356-5.915 3.799-7.656 8.785-10.098 17.152-2.075 7.106-4.314 16.292-10.58 24.832 2.843 7.173 7.783 15.326 14.086 22.074 7.56 8.096 16.766 13.952 25.14 15.31 1.807.294 3.708.45 5.67.48-7.474-11.108-9.888-24.56-9.634-36.657.28-13.463 3.083-25.409 7.572-34.219-2.828-2.784-6.734-5.589-10.656-7.318-2.91-1.282-5.604-1.809-7.663-1.959a17 17 0 0 0-1.417-.05zm59.857 2.551c-9.444 2.297-16.878 4.945-21.998 11.5-2.201 3.026-7.421 16.635-7.7 29.873-.264 12.682 2.9 24.755 12.24 32.48a61 61 0 0 0 5.429-2.326c10.33-5.046 18.845-12.885 22.683-21.23 7.277-15.822 6.016-33.366-10.654-50.297zM106.244 128.18c-9.029 11.163-14.687 31.627-16.52 46h103.104l.03-.1c-4.29-6.65-7.555-13.612-9.508-20.418l-1.424-4.959 3.558-3.732c4.444-4.664 6.53-10.221 8.514-16.791zm208.715 0c4.511 14.61 3.244 29.654-2.783 42.76-.25.54-.52 1.065-.787 1.595.202.548.397 1.097.601 1.645h110.285c-1.83-14.373-7.49-34.837-16.52-46zm-16.416 60.935c-5.188 4.691-11.161 8.613-17.502 11.711-6.143 3-12.668 5.25-19.303 6.588C289.18 302.98 347.294 414.39 395.29 476.242c5.128-11.45 11.312-23.78 20.47-33.836 8.669-9.514 20.858-16.273 35.714-17.261-60.1-74.013-119.94-152.688-152.93-236.03zm-92.248 1.36C175.222 280.694 111.57 368.626 51.55 449.004c14.89-1.23 28.07 1.312 39.113 6.904 11.172 5.658 19.954 14.136 26.707 23.912 45.553-87.993 101.59-175.243 125.315-271.257a58 58 0 0 1-4.127-.5c-12.458-2.022-23.344-8.932-32.264-17.588zM94.543 192.18c-3.608 17.544-5.543 35.976-5.543 55 0 34.046 6.184 66.2 17.105 94.742 32.908-49.097 62.087-99.504 80.573-149.742zm224.639 0c21.27 49.982 52.653 99.022 87.836 146.734C417.236 311.128 423 280.037 423 247.18c0-19.024-1.935-37.456-5.543-55zm-66.416 47.697c-20.54 66.554-54.291 128.189-87.139 188.059 26.177 21.789 57.177 34.244 90.373 34.244 31.565 0 61.147-11.261 86.482-31.098-34.2-55.569-67.763-125.038-89.716-191.205z"/></svg>