<svg xmlns="http://www.w3.org/2000/svg" viewBox="0 0 512 512"><path d="m364.654 17.123.002.002 7.221 27-58.19 14.625c3.298 5.667 6.192 11.376 8.625 17.094l54.407-13.688 7.56 28.313 78.534-60.375zm-130.5 7.219.002.004a63 63 0 0 0-2.656.029c-5.235.19-10.23 1.107-14.594 2.906.073.114-1.306 1.3-4.47 3.125-13.95 8.048-22.286 23.686-23.5 42.033l30.814-8.25c5.387-1.447 10.49-2.095 15.25-1.97 4.76.127 9.176 1.01 13.125 2.627 7.897 3.23 13.85 9.613 15.938 17.279 2.086 7.668.163 16.204-5.063 22.97-5.226 6.768-13.5 11.933-24.344 14.844l-28.687 7.688c9.082 12.388 20.715 21.374 32.78 26.75L255.874 162l-16.406 9.094c-13.034 7.208-20.894 17.79-25.72 31.844-4.828 14.051-6.2 31.546-5.063 50.687 2.098 35.29 12.573 75.594 22 110.78l33.22-9 11-3 .75 11.408 8.5 128.812h100.78l9.158-165.53.375-6.75 6.558-1.75 36.377-9.69c-9.556-37.035-19.253-81.292-35.75-114.936-8.91-18.17-19.682-32.927-32.72-42-13.035-9.076-28.278-13.115-49.03-9.44l-16.125 2.875 5.75-15.343c6.438-17.216 1.314-40.235-13.716-64.842-15.132-24.773-38.141-39.68-58.971-40.815-.9-.05-1.797-.06-2.688-.062zm.315 56.562c-2.74-.07-6.022.28-9.875 1.315l-103.781 27.875-33.19-18.815-71.875 19.25 46.5 26.846-26.844 46.5 71.315-19.125 20.373-35.28 102.72-27.595c7.8-2.094 12.25-5.398 14.405-8.187 2.153-2.79 2.286-4.91 1.81-6.657-.474-1.745-1.714-3.53-5-4.875-1.64-.672-3.822-1.18-6.56-1.25z"/></svg>