<svg xmlns="http://www.w3.org/2000/svg" viewBox="0 0 512 512"><path d="m252.875 24.25-11.53 42.906 141.218 37.875 11.5-42.904zm.783 65.56-.004.002-6.841 25.47-18.375-4.936c-42.78-11.464-87.074 13.496-98.563 56.375L80 352.844c-11.49 42.88 14.12 87.23 57 98.719l143.438 38.435c42.88 11.49 86.63-14.374 98.093-57.154l49.875-186.156c11.462-42.78-13.751-86.442-56.529-97.909v-.029l-19.031-5.094 6.81-25.437-18.029-4.846-9.25 34.5-2.406 9 .123.031c-9.833 28.888 56.393 96.208 82.312 64.69a62.9 62.9 0 0 1-2.029 20.28l-2.75 10.22h-45.72c9.88 13.787 13.912 32.492 7.656 53.154-9.313 30.756-36.221 45.28-62.688 58.125-26.467 12.846-53.43 24.8-70.28 47.97L222.689 430.5 219.78 407c-3.545-28.56-21.867-51.723-38.779-75.812-8.456-12.044-16.508-24.291-21.406-37.97-4.487-12.53-6.085-26.432-2.563-41.124h-30.685l21.593-80.565c8.87-33.105 42.481-52.053 75.688-43.154l27.404 7.344 9 2.435 2.442-9.029 9.25-34.47zm-36.187 130.378c-17.402.35-34.709 10.976-41.442 33.25-3.707 12.27-2.714 22.65 1.159 33.468 3.874 10.817 10.928 21.855 19.125 33.53 13.336 18.998 29.727 39.801 37.78 65.691 19.37-18.71 43.528-29.342 64.595-39.565 25.93-12.586 46.112-23.972 53-46.718 7.506-24.79-2.893-40.962-19.344-49-16.45-8.037-39.099-6.47-56.156 10.5l-11.907 11.844-3.81-16.375c-5.908-25.504-23.358-36.304-41.315-36.625q-.842-.015-1.685 0z"/></svg>