<svg xmlns="http://www.w3.org/2000/svg" viewBox="0 0 512 512"><path d="m237.834 13.717-40.846 29.52c-23.934-7.693-50.298-9.083-77.023-1.923a185 185 0 0 0-15.705 4.963L65.012 17.79l.308 49.113c-39.727 29.366-59.55 77.5-42.646 140.57 2.513 9.37 6.41 17.368 11.277 24.09l-13.129 52.764 52.283-26.793c36.802 9.035 77.35-11.2 67.5-49.672-.614-4.86-2.157-9.736-4.71-14.119-7.56-12.984-20.91-16.713-29.81-8.328-8.57 8.073-9.89 24.432-3.23 37.227-18.462-2.822-33.808-20.555-37.75-46.088-.98-6.36-1.379-12.445-1.279-18.26l46.03-12.03-35.25-28.41c13.074-22.535 36.639-36.616 63.039-40.87l18.494 38.75 19.867-38.085a110.9 110.9 0 0 1 35.765 13.663c7.216 4.314 13.949 9.286 20.186 14.81l-8.715 35.076 30.506-10.734c11.034 15.565 19.233 33.475 24.209 52.76-4.846.373-9.844 1.095-14.889 2.093-83.534-4.835-131.693 77.346-123.427 154.793l-44.817 27.498 52.705 7.532c6.627 18.74 17.081 36.274 31.746 51.086 8.308 8.39 18.798 15.998 30.83 22.62l-8.412 42.667 41.815-28.12c56.9 19.33 129.987 20.13 178.236-10.47l47.01 16.807-17.87-42.94c26.17-32.11 26.375-64.496 12.934-87.705l15.65-43.764-42.866 17.838a67.2 67.2 0 0 0-23.475-7.17c-49.566-5.578-96.453 39.225-57.68 86.63-6.475-35.263 24.55-61.392 46.998-45.497 21.584 15.283 20.68 52.726-9.707 69.508-14.853 8.203-32.247 13.428-50.603 15.828l-22.14-46.389-12.136 47.662c-32.19-1.678-64.39-11.253-88.892-27.992l24.217-49.976-50.204 25.457c-8.848-11.906-14.671-25.712-16.312-41.33-1.278-12.164-1.077-23.8.393-34.883l48.312 1.133-39.988-33.4c9.364-23.904 24.995-44.313 44.11-60.721 1.671 3.497 3.39 6.747 5.228 9.85 14.5 36.473 50.215 57.067 89.613 63.126l5.11 27.3 26.464-25.515c43.328-1.636 85.566-19.819 104.637-52.922 21.68-37.63 28.824-98.665 8.97-146.484l22.116-49.756-45.06 13.88q-.096-.101-.188-.202c-27.5-28.858-70.672-17.828-98.254 10.703l-46.082-6.61 25.049 39.64c-3.6 9.711-5.464 20.1-5.075 30.78-.15 5.91.564 12.177 2.26 18.504 6.73 25.115 26.297 41.693 43.701 37.03 17.403-4.664 26.057-28.804 19.329-53.918-1.937-7.232-4.947-13.746-8.657-19.256-13.543 8.343-19.248 20.646-20.756 36.363-5.15-25.078-1.298-39.475 18.092-50.611l.02-.014c12.22-7.95 24.732-10.52 33.86-3.832 31.645 23.18 33.057 72.367 12.888 111.14l-38.9-2.99 12.69 36.249c-11.065 9.36-24.205 16.266-39.107 19.369-24.11 5.02-52.628 1.885-78.158-8.307 5.45-6.928 9.17-15.153 11.613-23.705 22.52-63.04-7.422-128.016-58.724-161.71l5.664-46.4z"/></svg>