<svg xmlns="http://www.w3.org/2000/svg" viewBox="0 0 512 512"><path d="M131.635 28.361c-39.383.327-76.15 3.57-107.963 9.735v393.336c19.723 12.366 44.667 19.71 65.098 25.515 37.208 10.502 84.938 20.238 132.515 24.485s95.06 2.887 131.348-7.99c31.852-9.549 54.397-25.36 63.91-51.34-95.929-12.54-187.991-40.59-269.611-85.239-13.081-8.47-28.839-15.39-36.909-27.95-2.162-3.427-3.893-8.09-2.478-13.134 10.438-37.202 45.347-64.852 88.793-87.316 43.446-22.465 96.326-39.834 145.785-54.381 49.459-14.545 95.63-26.301 124.453-36.74 14.301-5.178 24.387-10.692 27.06-13.371-102.159-51.323-243.854-76.589-362.001-75.61zm-36.11 34.075c20.08 1.052 39.666 12.76 50.993 31.068 6.185 10.294 8.426 22.713 3.336 33.627-5.09 10.913-16.043 17.174-27.905 19.05-11.862 1.878-25.2-.182-38.023-6.163s-22.971-14.875-29.156-25.17c-6.186-10.294-11.384-24.664-3.336-33.623 12.559-13.981 28.474-19.608 44.091-18.79zm-7.59 17.716c-8.676-.123-16.648 2.165-20.19 8.68-3.908 13.745 8.25 25.684 18.144 31.844-10.152-21.538 8.467-37.086 26.466-34.729-6.362-3.136-15.743-5.671-24.42-5.795zm105.711 7.164c4.314 29.11 1.56 62.005-21.468 81.52-23.03 19.514-62.698 21.8-124.893-3.32l6.74-16.692c59.405 23.995 90.86 19.547 106.516 6.281 15.655-13.267 19.148-39.196 15.3-65.15zm186.098 1.532c8.184-.221 16.31 1.21 23.494 4.166l-7.222 16.484c-14.714-5.213-38.785-2.22-44.875 12.537l-16.805-6.441c9.124-17.784 27.404-26.26 45.408-26.746zm102.488 41.828c-11.432 4.496-24.11 8.631-34.578 11.851l34.145 35.284zm-43.798 14.63c-16.713 4.963-35.48 10.158-55.385 15.764l49.588 36.405zm-62.383 17.749c-19.833 5.607-39.154 11.245-57.442 16.96l48.008 37.126zm-63.297 18.81c-17.597 5.592-35.16 11.58-52.12 18.02l41.368 31.303zm-65.152 23.106c-18.515 7.789-34.978 14.948-50.815 23.648l42.71 20.127zm-66.932 33.175c-16.434 10.462-30.076 21.747-39.986 33.795l46.527 18.485zm-104.98 7.458 16.012 8.212c-6.786 15.172-21.398 49.198-15.691 64.952 22.132 31.76 62.198 49.242 98.095 61.406l-5.56 17.115C131 381.264 76 362.951 59.375 325.635c-6.898-28.577 3.728-54.8 16.316-80.031zm270.795.746-26.27 49.623c13.297.194 26.12 2.273 38.114 5.955zm-71.015 5.96-8.85 53.698c13.92-5.721 29.246-9.198 45.33-9.914zm139.052 15.891-48.09 36.502c13.21 5.013 25.236 12.02 35.544 20.613zM211.39 281.562l3.94 64.141c10.776-15.01 25.733-27.446 43.372-36.129zm257.263 28.358-60.42 21.014c10.428 10.074 18.68 21.923 24.069 35.011zm-150.474 4.03c-37.342 0-69.524 16.704-87.63 41.43 60.99 19.099 127.59 50.63 190.835 48.624q.031-1.102.033-2.211c0-47.847-45.448-87.844-103.238-87.844zm118.162 64.01c3.627 15.159 4.165 26.816 1.387 41.532l51.289-25.644zm-2.582 55.925c-4.623 12.725-11.922 24.364-21.293 34.453l59.666 11.426z"/></svg>