<svg xmlns="http://www.w3.org/2000/svg" viewBox="0 0 512 512"><path d="m126.254 16.1 23.18 134.289-131.55-20.596 94.78 110.596L28.2 318.08l108.71 24.42-39.797 88.447 71.364-19.013c7.904-20.18 13.606-40.676 16.42-60.008l-.05-.031h-.003c-1.802-1.04-2.873-2.745-4.06-6.74-1.19-3.998-1.868-9.5-3.942-15.413-7.033-20.052-17.384-51.137-48.155-81.834 3.305-6.314 6.61-9.69 9.186-11.072 3.247-1.742 6.19-1.775 11.293.422 9.35 4.025 22.63 17.191 35.174 33.814 3.368 5.048 6.267 10.15 8.683 15.31l16.918-7.927c-3.936-8.406-8.884-16.522-14.74-24.375l9.32-23.635-.417-90.175c2.948-2.112 7.592-3.54 12.92-3.43 5.063.107 10.177 1.73 13.519 3.674l-.795 88.816c7.553 3.465 15.126 6.911 22.621 10.441l37.04-106.384c5.664.22 10.842.687 15.03 2.062 4.6 1.51 8.553 3.855 12.53 8.248L275.596 251.41c6.797 3.69 13.392 7.6 19.691 11.84l66.916-91.31c3.036.615 7.124 2.416 10.701 5.632 4.143 3.726 7.059 8.725 8.053 13.123l-64.625 89.3c5.508 5.265 10.58 11.007 15.107 17.357l55.83-41.67c6.378 2.98 12.276 10.69 12.25 18.377-9.136 6.16-54.366 37.145-81.289 65.783-8.748 9.303-24.697 24.49-33.496 34.43v.003h-.002c-2.977 3.366-7 6.717-11.402 9.39l-18.947 101.192 39.596-62 63.626 56.252 4.73-121.537 134.604 11.57-76.699-95.417 64.414-92.664-90.34-12.063L435.23 51.324l-122.185 69.744L281.67 17.246l-53.75 96.108z"/></svg>