<svg xmlns="http://www.w3.org/2000/svg" viewBox="0 0 512 512"><path d="M256 48c-29.077 0-56.755 5.975-81.887 16.75h163.774C312.755 53.975 285.077 48 256 48zM130.34 90.25a209 209 0 0 0-27.938 25.5h307.196a209 209 0 0 0-27.938-25.5zm-47.834 51a208 208 0 0 0-14.428 25.5h375.844a208 208 0 0 0-14.43-25.5zm-24.54 51a206 206 0 0 0-6.443 25.5H460.48a207 207 0 0 0-6.447-25.5zm-9.566 51c-.255 4.22-.4 8.467-.4 12.75s.145 8.53.4 12.75h415.2c.255-4.22.4-8.467.4-12.75s-.146-8.53-.4-12.75zm3.123 51a207 207 0 0 0 6.444 25.5h396.066a207 207 0 0 0 6.444-25.5zm16.555 51a208 208 0 0 0 14.43 25.5h346.986a208 208 0 0 0 14.43-25.5zm34.324 51a209 209 0 0 0 27.94 25.5H381.66a209 209 0 0 0 27.938-25.5zm71.711 51C199.247 458.025 226.923 464 256 464s56.755-5.975 81.887-16.75z"/></svg>