<svg xmlns="http://www.w3.org/2000/svg" viewBox="0 0 512 512"><path d="M355.102 21.098c-33.682.164-64.174 18.585-74.616 50.5 21.357-.79 23.203 53.922 23.203 53.922l41.62 6.261c-13.41 12.963-50.026 5.967-50.026 5.967-17.14 19.182-33.124 40.966-47.758 57.578-15.952 18.127-35.2 38.103-57.017 60.086-6.79 6.823 41.594-9.82 34.342-2.603-24.567 12.75-42.297 16.096-61.764 32.068-31.312 25.674-62.854 60.71-81.147 79.432-7.71 7.91-44.362 37.674 20.47 34.74 2.403 7.52-1.621 9.456-7.493 15.293-4.327 4.303-18.083.283-22.264 2.828-22.172 35.055-17.245 37.975-27.43 58.047-4.251 11.635 41.68-14.406 64.305-34.182 13.974-7.58 25.147-21.651 35.002-17.201 43.11 18.984 129.826 35.53 141.328 27.62 18.368-12.647-10.32-46.344 3.832-97.913 23.47 5.817 43.826 13.657 66.768 11.459-1.581 49.307 3.56 55.306-3.889 104.777l59.13 21.127 1.91-13.808-33.815-22.479c14.568-50.659 16.809-72.578 15.227-121.719-.16-5.372-45.169-24.324-74.493-33.132l18.594-30.412c30.393-44.788 124.14-62.055 127.932-88.258-13.02-19.676 3.022-27.384-25.092-21.912-6.295 1.318-13.772 24.345-18.024 27.212-7.842 5.276-40.655 24.477-51.95 18.377-1.9-1.026 7.247-33.442 6.85-44.78-.115-3.206-1.19-6.625-2.866-10 .185-.64 15.24-52.482 54.808-94.016-43.978 25.134-65.331 79.923-65.353 79.978-2.207-2.134-4.476-3.982-6.639-5.422-1.916-14.7-4.82-73.02 68.598-78.775-21.427-21.177-47.704-30.78-72.283-30.66z"/></svg>