<svg xmlns="http://www.w3.org/2000/svg" viewBox="0 0 512 512"><path d="M256 25c-39.3 0-71 31.68-71 71 0 39.3 31.7 71 71 71s71-31.7 71-71c0-39.32-31.7-71-71-71zm-18 23h36v30h30v36h-30v30h-36v-30h-30V78h30zm-101 89v350h78v-80h82v80h78V137h-40.1c-2.5 5-5.6 9.6-9 14H361v50h-50v-35.1c-8.8 6.9-19 12.3-30 15.5V201h-50v-19.6c-11-3.2-21.2-8.6-30-15.5V201h-50v-50h35.1c-3.4-4.4-6.5-9-9-14zm32 32v14h14v-14zm160 0v14h14v-14zM41 201v286h78V201zm352 0v286h78V201zM55 215h50v82H55zm96 0h50v82h-50zm80 0h50v82h-50zm80 0h50v82h-50zm96 0h50v82h-50zM73 233v46h14v-46zm96 0v46h14v-46zm80 0v46h14v-46zm80 0v46h14v-46zm96 0v46h14v-46zM55 311h50v82H55zm96 0h50v82h-50zm80 0h50v82h-50zm80 0h50v82h-50zm96 0h50v82h-50zM73 329v46h14v-46zm96 0v46h14v-46zm80 0v46h14v-46zm80 0v46h14v-46zm96 0v46h14v-46zM55 407h50v50H55zm96 0h50v50h-50zm160 0h50v50h-50zm96 0h50v50h-50zM73 425v14h14v-14zm96 0v14h14v-14zm64 0v62h46v-62zm96 0v14h14v-14zm96 0v14h14v-14z"/></svg>