<svg xmlns="http://www.w3.org/2000/svg" viewBox="0 0 512 512"><path d="m207.375 13.78-.004.001zm0 .001v.063c83.385 68.488-50.733 105.97-37.22 175.22-20.55-13.762-28.066-46.66-8.78-74.97-51.085 21.935-73.42 51.99-72.156 97.562.945 34.13 14.639 61.58 35.844 82.188-9.787-27.448-12.018-55.74-5.19-79.813 35.742 49.332 137.787-19.993 147.096-79.28-.044 63.675 63.996 118.35 112.717 52.376 8.932 36.97 6.637 75.306-3.22 105.687 19.408-20.337 31.708-47.33 32.376-81.158.93-47.127-21.049-90.8-62.72-112.75 18.15 38.878-.498 65.598-43.655 83.75 40.28-67.493 16.386-154.452-95.092-168.875zm42.938 226.313c-5.97-.086-12.564 2.295-20.657 8.375-38.238 28.725-88.54 77.01-99.156 108.719-18.667-4.37-43.156 2.322-43.156 20.529 0 2.01.32 3.89.875 5.627-9.91-.4-20.221 3.9-20.221 13.029 0 16.998 35.742 17.685 38.064 1.656 10.356 2.978 22.946 2.341 32.217-2.029-.75 1.842-1.154 3.867-1.154 6.094 0 22.752 42.915 25.946 54.25 9.094 9.533 6.946 29.795 4.92 32.844-6.25 15.97 1.403 32.384 1.755 48.435.968 8.543 5.77 24.793 4.8 30.625-3 12.788-1.938 25.005-4.72 36.159-8.406 1.9 16.216 38.093 15.92 38.093-1.344 0-.75-.046-1.47-.185-2.156 11.238 3.032 26.593-1 26.593-12.25 0-11.025-15.614-15.102-26.875-12.03.36-28.627-58.604-80.767-105.062-116.595-7.39-5.698-14.016-9.92-21.69-10.03zM440 352.5c-9.547-.042-19.094 4.28-19.094 13.063 0 17.566 38.188 17.726 38.188 0 0-8.617-9.547-13.02-19.094-13.063zm-403.344 10c-9.547-.042-19.093 4.28-19.093 13.063 0 17.566 38.187 17.726 38.187 0 0-8.616-9.547-13.02-19.094-13.063zm430.563 20.404v.002c-9.548-.042-19.096 4.28-19.096 13.063 0 17.566 38.19 17.725 38.19 0 0-8.618-9.547-13.023-19.094-13.065zm-49.69 25.44c-10.747-.047-21.5 4.8-21.5 14.687 0 19.776 43 19.955 43 0 0-9.7-10.75-14.64-21.5-14.685zm-79.97 2.969.003.001c-9.547-.02-19.093 4.386-19.093 13.248 0 12.037 18.637 15.825 29.873 11.032 9.403 8.896 34.72 6.462 34.72-7.844-.002-12.274-18.61-16.01-29.845-11.125-3.628-3.506-9.637-5.3-15.658-5.312zm-87.215 1.623-.002.002c-9.546-.04-19.094 4.247-19.094 13.03 0 17.567 38.19 17.726 38.19 0 0-8.617-9.547-12.99-19.094-13.032zm-129.127 14.72c-11.25-.023-22.498 5.121-22.498 15.563 0 12.422 16.83 17.38 29.904 14.625 8.686 9.834 35.5 7.688 35.5-7.031 0-9.57-11.34-13.963-21.656-13.127-3.226-6.658-12.236-10.011-21.248-10.03zm173.533 11.342V439c-8.405-.037-16.8 2.872-20.25 8.78-14.795-4.1-35.25 1.04-35.25 15.783 0 21.293 42.68 23.123 49.313 5 12.56 2.32 28.093-2.493 28.093-14.594 0-9.88-10.958-14.923-21.906-14.971zm-97 22.658c-10.748-.047-21.47 4.8-21.47 14.688 0 19.776 42.97 19.955 42.97 0 0-9.7-10.752-14.64-21.5-14.688zm228.125 1.406c-9.547-.04-19.094 4.28-19.094 13.063 0 17.567 38.19 17.726 38.19 0 0-8.616-9.547-13.02-19.094-13.062z"/></svg>