<svg xmlns="http://www.w3.org/2000/svg" viewBox="0 0 512 512"><path d="m137.75 17.28-15.312 78.783 20.312 56.875h45.97zM74.5 19 20 378.156v116.157h208L210.125 386.5h-96.846l-2.216-6.156L85.28 308.75l17.563-6.344 23.562 65.406h90.344l230.688-2.968 9.812-33.406H278.5V312.75h184.22l7.374-25.156-54.565-78.094H291.471l-20.346-37.594h-75.28l-.095-.28h-46.312L159.563 200l-17.592 6.28-26.534-74.25-.124.72zm133.377 178.22h56.092l21.404 38.874-26.094-.438zm230.469 12.28 38.529 55.094 16.154-55.094zm-82.815 15.936v.001c6.613 0 11.971 5.357 11.971 11.97 0 6.612-5.358 11.97-11.97 11.97-6.61 0-11.968-5.358-11.968-11.97s5.355-11.971 11.967-11.971zm44.596 0v.001c6.612 0 12 5.357 12 11.97 0 6.612-5.388 11.97-12 11.97s-11.97-5.358-11.97-11.97 5.358-11.971 11.97-11.971zm-66.19 29.187v.002c6.612 0 11.971 5.357 11.971 11.97 0 6.61-5.359 11.967-11.97 11.967-6.61 0-11.967-5.356-11.967-11.968 0-6.613 5.356-11.97 11.966-11.97zm43.127 0-.002.002c6.612 0 12 5.357 12 11.97 0 6.61-5.388 11.967-12 11.967-6.61 0-11.966-5.356-11.966-11.968 0-6.613 5.355-11.97 11.968-11.97zm42.063 0v.002c6.612 0 11.969 5.357 11.969 11.97 0 6.61-5.357 11.967-11.969 11.967s-11.97-5.356-11.97-11.968c0-6.613 5.358-11.97 11.97-11.97z"/></svg>