<svg xmlns="http://www.w3.org/2000/svg" viewBox="0 0 512 512"><path d="M25.438 20.063c-6.856-.07-11.186 7.655-3.063 15.78l315.53 346.688c-4.783 6.952-10.63 12.444-16.5 16.783l81.69 94.875c11.578-6.95 22.385-14.637 32.592-22.908-6.567.54-13.36-.86-19.5-4.404-16.037-9.26-21.54-29.742-12.28-45.78 6.075-10.525 16.99-16.53 28.312-16.783a33.45 33.45 0 0 1 17.5 4.5c12.5 7.218 18.582 21.274 16.279 34.72 11.174-11.345 21.763-23.25 32.031-35.47l-189.875-160.28c18.826 26.836 29.972 49.297 35.69 68.124L34.063 24.156c-2.86-2.858-5.943-4.067-8.626-4.093zm60.843 1.312c-10.29.46-13.115 12.896.44 16.53l254.468 98.876c-.642 8.503-3 16.25-5.937 23l118.154 41.315c6.554-11.81 12.072-23.887 16.781-36.157a33.37 33.37 0 0 1-19.091 5.967c-18.52 0-33.532-15.01-33.532-33.53-.002-18.519 15.012-33.53 33.532-33.53 14.444 0 26.773 9.13 31.5 21.935 4.012-15.413 7.215-31.028 10-46.75L248 35.156c30.608 14.242 51.855 28.522 66.25 42.346L90.97 21.938c-1.302-.348-2.509-.528-3.657-.563-.349-.01-.7-.015-1.032 0zM367.596 77.25l49.125 10.28L401.186 108zm-344.75.094c-4.748.095-8.761 4.893-6.158 13.5l53.75 268.937c-8.64 5.273-17.806 7.861-26.25 9.096l27.22 122.219c13.502-.666 26.672-2.337 39.592-4.817a33.4 33.4 0 0 1-15.156-13.091c-9.77-15.734-4.954-36.388 10.78-46.157 5.409-3.357 11.412-5.004 17.345-5.06 11.324-.11 22.433 5.517 28.844 15.841 7.63 12.293 6.337 27.607-2.094 38.375 15.226-4.732 30.185-10.282 45.03-16.216l-91.722-230.942c3.786 31.363 3.211 55.782-.279 74.784L32.5 86.063c-1.82-6.018-5.963-8.792-9.656-8.717zm360.31 263.969 37.406 33.5-23.656 9.937zm-259.625 6.875 15.658 47.718-24.218-2.156z"/></svg>