<svg xmlns="http://www.w3.org/2000/svg" viewBox="0 0 512 512"><path d="m244.395 21.707-.002.004c70.753 227.078 24.39 255.255-145.288 70.666 156.26 211.317 138.91 236.825-81.835 168.78 214.48 98.326 221.15 141.145 7.117 174.622 153.197-4.492 206.013 2.426 252.031 13.957-11.106-18.2-24.714-62.328-31.008-84.205-26.17-90.946 26.588-148.028 123.346-121.474 25.575 7.02 64.28 25.216 84.375 39.295-8.897-41.512-14.904-88.61-17.195-260.473-32.59 227.458-93.392 223.503-191.541-1.172zm115.14 266.123c-19.69.214-38.302 7.122-52.213 21.033-31.798 31.8-27.006 88.141 10.698 125.844 14.87 14.87 32.64 24.6 50.658 29.006a113 113 0 0 1-4.752.674c-25.398 3.016-49.814-2.738-70.028-15.207 21.832 34.076 61.803 54.41 104.664 49.318 59.76-7.098 102.735-60.99 95.635-120.752-4.098-34.5-23.785-63.52-51.304-80.36 8.688 13.489 14.65 29.254 16.67 46.25.776 6.547.952 13.02.572 19.374-5.05-15.512-14.085-30.57-26.967-43.45-21.21-21.21-48.315-32.004-73.633-31.73z"/></svg>