<svg xmlns="http://www.w3.org/2000/svg" viewBox="0 0 512 512"><path d="m398.4 81.29-39.5 6.82c-8 27.79-18.7 41.99-40.1 59.39l-22.7-23.8-65.5 11.9 18.6 43.5-50.8-51.4-7.4 72.4-19.3-21.6-19.7 60c-4.5-36.1-8.9-57.9.5-93.9-21.9-19.1-38.3-40.7-68.95-55.96-32.92 32.06-58.5 78.76-65.01 113.06 50.239-8.2 88.66-22.9 99.66 5.3 1.3 3.5-22.47 17.9-21.54 22.2l26.44 18.9L22.49 252l-3.38 19.8h66.71l30.48 67.9-52.53 8.4 7.91 26h81.42c31.1 31.4 69.4 55.1 128.9 56.6l29.5-40.7 123.7-59.9c49.2-34.6 53-84.3 58.3-133.4l-91.1-84.8z"/></svg>