<svg xmlns="http://www.w3.org/2000/svg" viewBox="0 0 512 512"><path d="M251.25 19.28c-13.905 0-26.786 7.33-36.687 20.345s-16.344 31.59-16.344 52.313c0 20.72 6.44 39.297 16.344 52.312 9.9 13.015 22.78 20.344 36.685 20.344s26.755-7.33 36.656-20.344 16.375-31.59 16.375-52.312c0-20.72-6.472-39.298-16.373-52.313s-22.75-20.344-36.656-20.344zM458 62.687c-12.144.096-24.223 6.944-28.5 22.093l-22.844 58.877-84.812-28.625-1.721 2.565c-3.273 14.37-9.257 27.338-17.342 37.968-12.673 16.66-30.985 27.717-51.53 27.717-20.543 0-38.889-11.056-51.564-27.717-8.235-10.827-14.276-24.088-17.5-38.78l-1.156-1.75L96.19 143.66 73.344 84.78c-4.442-15.73-17.308-22.493-29.906-22.06-17.266.59-34.024 14.717-27.938 37.81l40.094 112.658 108.437-27.594c55.63 82.465 57.87 164.885 18.781 247.279-.897-59.192-32.691-109.309-12.091-143.56-56.293 56.475-5.773 107.039-66.75 171.28 2.864-26.385-1.008-52.772-9.909-79.156 3.018 38.405 4.199 76.576-64.968 106.313h121.719c-.03.043-.065.082-.094.125h204.25c-.025-.04-.04-.085-.065-.125h126.5c-78.297-44.57-24.933-76.987-71.06-113.812 14.31 18.934-6.458 46.303-8.565 78.656-57.428-47.286-55.368-102.286-51.341-157.53-16.372 52.345-22.613 104.683-14.97 157.03-43.72-88.616-51.952-177.227 6-265.844l105.813 26.938 40.096-112.657c6.25-23.716-11.626-37.984-29.375-37.844zM213.156 95H244v18.688h-30.844zm45.033 0h30.842v18.688H258.19zm145.717 214.78c-37.668 6.743-45.552 52.718-8.529 67.283-9.3-23.13-6.25-45.49 8.53-67.282z"/></svg>