<svg xmlns="http://www.w3.org/2000/svg" viewBox="0 0 512 512"><path d="M269.906 19.72c-22.584-.18-45.068 9.882-58.312 28.186-3.3 4.56-4.867 9.216-6.656 14.125 25.217-19.082 64.92-21.07 98.218-2.25 12.284 6.944 22.95 15.318 30.03 25.221 2.872-21.77-7.173-43.927-29.03-56.281-10.58-5.982-22.42-8.907-34.25-9zM114.313 45.439c-40.88 5.143-62.495 44.205-26.844 81.279C152.784 194.645 228 62.014 314.72 105.75c-54.142-84.613-115.574 4.63-184.192-3-24.45-2.717-40.308-32.677-16.216-57.312zM43.5 89.344c-34.748 69.57 57.007 143.258 132.72 81.5-52.88 9.79-134.675-13.864-132.72-81.5zM273.094 121c-5.932.124-11.34.998-17.063 1.813 45.095 13.807 81.136 51.81 85.846 95.625 1.736 16.161.316 31.596-6.031 44.343 29.547-9.814 48.652-32.613 45.56-61.375-4.35-40.505-50.375-76.533-102.185-80.25a66 66 0 0 0-6.127-.154zm-22.531 24.094C203.9 145.022 172.616 233.493 110 219.97c56.5 55.534 85.024-29.184 137.5-38.25 18.698-3.233 36.24 17.153 23.063 42.123 29.401-13.135 37.966-49.082 4.343-70.78-8.662-5.591-16.706-7.958-24.342-7.97zm65.31 58.625c-5.028 26.196-26.83 45.417-55.25 45.435-10.483.01-20.754-1.838-29.717-6.468 9.124 18.374 25.843 31.3 44.5 31.283 26.275-.027 45.844-25.346 43.625-56.22-.36-5.047-1.752-9.382-3.154-14.03zm82.69 29c-29.075 66.98-116.229 78.57-179.282 46.685 16.795 62.373 84.313 74.884 132.219 48-6.773 23.07-23.637 48.123-54.72 67.721 72.136-13.203 112.965-93.836 101.783-162.406zm-210 28.719a118 118 0 0 0-3.47 9.779c-41.676 61.148-27.867 144.897 32.157 189.25 61.47 45.42 148.236 32.406 193.656-29.063 33.926-45.914 35.248-105.946 8.125-152.31 3.956 47.482-42.913 125.878-99.029 137.344-53.372 10.903-109.62-17.099-128.565-73.534 23.022 40.5 77.287 56.486 114.034 21.471-64.08 21.732-110.738-49.515-116.908-102.937z"/></svg>