<svg xmlns="http://www.w3.org/2000/svg" viewBox="0 0 512 512"><path d="M233.656 22.094c-13.884.19-28.38 2.95-42.97 8.843 30 .765 65.91 7.886 84.97 31.22 8.688 10.635 11.745 27.18 10 44.062a98 98 0 0 1 5.721 5.28 88 88 0 0 1 10.373 12.47 66 66 0 0 1 7.563-1.846 81.5 81.5 0 0 1 14.593-1.28c3.103 0 6.236.192 9.375.53 10.447-50.18-36.918-98.624-96.842-99.28-.92-.01-1.857-.013-2.783 0zM203.186 95c-15.846.105-29.937 4.536-39.31 13.906-10.154 10.152-13.037 23.736-10.75 39.188.015.05.015.105.03.156 3.632 12.436 9.568 22.549 18.563 29.47 9.19 7.07 21.93 11.32 40.81 10.31 24.243-1.288 44.017 5.028 58.157 16.157 7.786-4.726 16.25-8.435 25.158-10.906 6.824-23.556.926-49.984-17.69-68.593-13.622-13.617-36.4-24.738-58.656-28.374-5.564-.91-11.03-1.347-16.312-1.312zm-67.092 26.125c-36.665 3.137-65.013 16.806-77.188 58.313-7.66 26.114-8.875 48.963-37 42.312 13.805 21.97 35.546 21.773 51.938-.656 2.116-31.247 23.968-60.177 60.22-77-.498-7.816.06-15.584 2.03-22.969zm187.75 18.469v.002c-3.887-.025-7.656.295-11.188.935-.622.114-1.24.246-1.844.375 5.944 14.818 7.712 30.935 5.313 46.531l2.346 2.563c1.865-.037 3.74-.045 5.591.03 14.12.573 27.756 4.417 39.907 10.97 6.124-8.08 14.654-13.623 24-16.187-4.018-16.57-14.876-28.429-28.75-36.063-10.943-6.02-23.715-9.085-35.375-9.156zm111.094 15.719c-10.65-.035-22.263 3.12-34.47 9.75 2.88 5.69 5.06 11.92 6.376 18.656 5.33.822 10.603 2.592 15.529 5.435.342.197.667.42 1 .625 31.248-10.763 50.929 7.432 70.127 41.284-3.826-47.476-26.85-75.648-58.562-75.75zm-296.407 7.562c-34.192 17.036-49.509 44.107-45.625 71.188 6.8 47.39 54.348 88.915 127.907 80.375 40.472-4.73 57.84-33.015 56.625-59.282-.606-13.133-6.021-25.582-16.311-34.625-10.29-9.04-25.67-15.007-47.596-13.844-22.24 1.19-40.092-4.082-53.185-14.156-10.115-7.78-17.108-18.17-21.813-29.654zm261.375 38.906c-.635 0-1.273.02-1.904.065a26.15 26.15 0 0 0-18.565 9.685c12.788 10.704 22.777 24.935 28.25 41.75 6.082-1.892 11.505-5.998 14.971-12 7.316-12.67 3.045-28.623-9.627-35.935a26.35 26.35 0 0 0-13.123-3.563zm-79.22 6.813.002.002a73.6 73.6 0 0 0-19.186 2.529 79 79 0 0 0-17.596 7.096c7.51 10.74 11.6 23.334 12.19 36.092.61 13.194-2.598 26.637-9.344 38.625 14.722 8.053 24.75 23.693 24.75 41.562 0 12.122-4.62 23.225-12.19 31.625 15.78 8.356 32.225 11.792 45.909 8.125 18.044-4.835 32.418-21.747 40.808-43.687 8.393-21.94 10.268-48.214 5.034-67.75-8.508-31.746-36.493-52.948-67.657-54.157-.9-.035-1.814-.06-2.72-.062zm105.377 56.062a45.4 45.4 0 0 1-14.311 6.781c1.583 11.985 1.286 24.688-.69 37.252 25.354 13.418 30.892 27.679 22.659 54.938-16.6 54.96 19.595 83.604 54.558 65.125-32.506-9.75-28.102-27.135-20.558-58.19 12.61-51.909-4.718-81.086-41.657-105.906zM85 269.5a41.3 41.3 0 0 0-15.844 9.906 41.053 41.053 0 0 0 0 58.221 41.6 41.6 0 0 0 8.313 6.435c9.93-14.786 20.88-29.137 34.875-40.656C100.828 293.713 91.594 282.19 85 269.5zm190.438 38.625c-9.886 10.296-23.166 18.38-39.657 22.53-.166 1.261-.28 2.536-.28 3.845a28.54 28.54 0 0 0 28.655 28.656 28.54 28.54 0 0 0 28.656-28.656c.002-11.91-7.12-22.03-17.375-26.375zm-138.563 11.313c-6.775 36.135 8.59 62.088 28.938 72.75 13.031 6.827 28.22 7.608 43 .28 8.531-4.23 17.05-11.36 24.656-22.03-10.166-8.704-16.66-21.6-16.656-35.938v-.875l-.034-.03c-30.54 2.5-57.679-3.067-79.904-14.158zm-19.314 4.435v.004l.001-.002zm0 .004c-11.573 11.33-21.444 25.582-31.249 40.748-18.82 36.482-17.525 82.328 20.657 111.47 31.69 24.19 77.54 21.817 99.969 5.405 19.913-14.573 25.153-45.587 6.81-68.97 4.42 16.065-4.613 41.808-18.5 49.345-16.21 8.8-38.286 7.45-56.625-12.656-21.554-23.633-18.893-43.103-3.625-58.875-13.2-16.447-20.351-39.637-17.437-66.467zm169.033 56.654c-11.754 43.65 16.39 92.464 79.156 95.5-31.95-16.928-51.634-50.343-46.812-82.935-11.11-2.13-22.065-6.572-32.344-12.565z"/></svg>