<svg xmlns="http://www.w3.org/2000/svg" viewBox="0 0 512 512"><path d="M262.97 19.438c-3.532.036-7.074.17-10.595.375 37.426 5.91 74.12 23.424 102.188 49.625-55.762-26.124-129.46-27.253-186.875-3.5 10.37-9.73 21.777-17.511 33.875-23.344C48.768 80.06-6.44 197.116 56.72 343.938c-16.45-26.78-29.107-55.588-35.627-84.688-5.23 74.055 32.02 134.952 102.47 197.406q.091.095.186.188c12.107 12.125 24.238 22.044 32.875 27.029 64.588 37.292 121.344-63.364 57.78-100.06-11.466-6.62-33.517-14.219-56.56-18.875-76.656-36.295-93.91-155.887-20.282-240.688-6.654 16.82-11.594 34.836-14.844 53.375 76.21-134.99 312.3-129.124 324.125 72.063-10.722-61.622-53.71-113.837-121.031-135.344 56.69 23.942 96.28 79.752 96.28 145.25 0 94.252-72.827 148.403-154.595 165.625 42.582 2.34 94.686-13.827 125.44-36.315-23.357 39.58-72.147 67.082-123.25 81.594 72.735-2.804 136.515-41.146 175.406-97.375-10.316 11.652-22.72 22.04-36.781 30.97 46.54-55.266 70.795-137.97 61.31-210.25 8.428 16.285 13.582 33.512 15.781 51.376C485.26 97.63 372.461 18.3 262.971 19.438z"/></svg>