<svg xmlns="http://www.w3.org/2000/svg" viewBox="0 0 512 512"><path d="M263.28 18.47c-1.165.029-2.347.124-3.5.124-32.843 0-59.592 33.925-59.592 75.937 0 21.274 7.08 40.466 18.093 54.281-68.132 10.567-82.851 105.424-66.654 191.565h23.562l-1.033-105.346 18.69-.185 1.25 126.687 8.75 132.875h46.875V318.812h18.685v175.594h44.313l11.5-154.029h.029l1.065-105.533 18.685.187-1.062 105.346h24.533c18.362-88.46-4.725-178.952-67.096-190.69 11.507-13.88 18.97-33.344 18.97-55.156 0-39.387-23.415-72.037-53.407-75.935-.5-.075-.987-.11-1.5-.125a20 20 0 0 0-1.157 0zm-4.717 137.686zc11.48.001 20.78 10.684 20.78 23.875 0 8.73-4.073 16.364-10.156 20.531h38.906v18.69h-40.221v23.344l24.565 49.435-16.75 8.315-17.157-34.53-17.154 34.53-16.75-8.313 24.562-49.435V219.25h-40.22v-18.687h38.97c-6.084-4.167-10.158-11.804-10.158-20.532 0-13.191 9.303-23.874 20.781-23.875z"/></svg>