<svg xmlns="http://www.w3.org/2000/svg" viewBox="0 0 512 512"><path d="m182.885 16.2-1.73 57.015 51.257 47.226 8.063-23.037zm-68.537 65.073v.004l77.75 61.625 28.797-8.062-57.018-52.986zM89.32 101.6l1.225 56.375 55.762 56.373 9.19-30.637zm159.494 33.992-15.55 10.363c19.852 29.796 29.86 65.31 28.07 103.537l-.182.016-1.406 18.824.06-.004c-3.511 49.992 11.5 96.754 41.26 133.654l-30.218 16.368 62.177 19.548-38.877 19.432 153.995 32.77-98.457-122.86.132 55.44c-50.335-36.216-76.608-92.807-71.142-155.975l.078-.006.22-3.1c.026-.26.047-.518.075-.777 4.974-46.64-6.009-90.871-30.235-127.23zM77.676 172.064l-57.6 2.454 87.012 61.275 23.898-9.19zm77.48 51.541-10.049 15.756c28.25 18.023 61.035 28.178 95.875 29.266l1.395-18.648c-31.888-.83-61.58-10.018-87.22-26.374zm143.666 24.206-1.312 18.601c52.536 1.886 99.042 26.412 130.82 68.756h-47.113L497.91 427.9l-31.62-145.66-19.546 39.588-18.7-59.478-15.747 29.07c-31.726-26.472-71.01-41.83-113.475-43.61z"/></svg>