<svg xmlns="http://www.w3.org/2000/svg" viewBox="0 0 512 512"><path d="M326.78 18.72c6.46 13.507 7.87 29.775 4.94 45.686-3.503 19.017-13.203 37.958-28.69 52.25l2.25 1.5c9.882 4.933 19.127 10.383 27.69 16.28 3.687-27.3 19.256-54.748 39.405-77.905 12.86-14.777 27.536-27.85 42.844-37.81zM139.155 19c12.773 12.03 24.17 26.366 32.625 40.844 6.53 11.18 11.318 22.402 13.346 33.156.213 1.127.383 2.246.53 3.375 7.195-1.952 14.92-3.136 23.126-3.437.858-.03 1.729-.02 2.596-.032a47 47 0 0 1-5.69-6.969c-5.29-7.89-8.623-17.229-10.591-26.874-2.79-13.674-3.13-27.843-.25-40.063zm314.22 0c-14.605 36.104-43.008 79.36-75.03 111.75-16.91 17.103-34.728 31.146-52.721 39.063-17.99 7.915-37.323 9.495-53.344-.594l9.971-15.815c9.742 6.135 21.243 5.739 35.844-.685a89 89 0 0 0 4.97-2.377c-22.53-15.707-50.637-28.257-83.783-35.72-10.917-2.458-20.806-3.396-29.75-3.093-14.903.507-27.168 4.486-37.125 10.72-11.57 7.244-20.22 17.773-25.904 30.374 5.518 2.052 10.838 3.679 15.875 4.846 14.97 3.468 26.99 2.659 34.812-1.658l9.03 16.375c-13.683 7.55-30.447 7.55-48.063 3.468-17.615-4.082-36.498-12.42-55.435-23.562-30.115-17.72-60.193-42.529-83.815-69.47v88.564c24.622-4.884 58.445-2.227 90.78 5.656 19.125 4.662 37.468 11.29 52.408 20.156 14.94 8.867 27.01 20.166 31.25 35.156l-17.97 5.094c-2.286-8.088-10.18-16.69-22.81-24.187-3.913-2.32-8.223-4.504-12.845-6.563 4.08 28.99 19.644 58.364 47.28 77.47l-10.655 15.374c-20.736-14.335-35.69-33.434-45-54.28-41.857 52.08 3.741 170.082 101.31 150.56-6.696-6.155-14.233-12.453-22.78-19l11.376-14.843c55.814 42.757 74.896 81.865 79.187 132.25h125.967c-27.98-25.526-52.253-51.016-69-78.685-20.326-33.583-29.493-70.83-20.75-112.875l18.281 3.808c-2.135 10.277-3.1 20.097-2.998 29.565a146 146 0 0 0 4.592-4.78c23.425-25.726 32.506-54.314 30.033-82.626-1.45-16.6-7.058-33.209-16.468-48.938a70 70 0 0 0-1.969 5.188c-4.448 13.407-4.265 26.174 1.844 39.218l-16.94 7.907c-8.134-17.37-8.349-35.835-2.654-53s16.974-33.192 31.719-47.782c28.02-27.73 68.841-50.444 111.781-64V19zm40.063 184.875c-30.608 19.412-64.056 25.41-92.283 20.688a125.7 125.7 0 0 1 4 22.25c.283 3.24.422 6.5.44 9.75 27.857-8.366 58.94-7.692 87.843 6.656zM311.19 311.188c2.956 14.85 4.756 27.457 5.407 38.125 25.255 108.865 7.434 110.33-53.344 23.375-6.55-6.855-13.594-15.437-21.315-25.844l15-11.125c11.724 15.802 21.759 26.8 29.125 32.75 3.685 2.972 6.697 4.624 8.375 5.185.596.2.9.279 1.094.315.172-.22.522-.726.942-1.877.768-2.113 1.469-5.907 1.654-11.063.368-10.31-1.254-25.962-5.28-46.185zm-207.062 23.218c-28.22 7.457-56.702 11.148-85.44 8.688v78.687c30.875-26.967 62.135-50.02 93.94-68a134.5 134.5 0 0 1-8.5-19.375z"/></svg>