<svg xmlns="http://www.w3.org/2000/svg" viewBox="0 0 512 512"><path d="M106.7 64.85v.01h-2.4c-17.6.2-35.8 8.5-52.2 25.5C-71.4 224.7 207.8 294.7 193.4 447.2c18.8-11.5 31.9-24.7 40.2-38.9l-42-24.2v-74.4l23.5-13.6c-19.9-24.2-48.8-45.8-82.9-60.8C42.7 195.6 60 48.46 172 112.5c-16.5-30.46-40.3-47.18-65.3-47.65zm298.6 0c-25 .47-48.8 17.19-65.3 47.65 112-64.04 129.3 83.1 39.8 122.8-34.1 15-63 36.6-82.9 60.8l23.5 13.6v74.4l-42 24.2c8.3 14.2 21.4 27.4 40.2 38.9-14.4-152.5 264.8-222.5 141.3-356.85-16.4-17-34.6-25.3-52.2-25.5zM199.5 123.5l-15 10c17.5 26.3 44.5 40 71.5 40s54-13.7 71.5-40l-15-10c-14.5 21.7-35.5 32-56.5 32s-42-10.3-56.5-32zM74.6 283.7c24.1 47.8 49.4 84.8 62.9 156.3 4.8-16.6 8.1-34.2 9.3-53-11.1-37-38.7-73.2-72.2-103.3zm362.8 0c-33.5 30.1-61.1 66.3-72.2 103.3 1.2 18.8 4.5 36.4 9.3 53 13.5-71.5 38.8-108.5 62.9-156.3zM256 293.3l-46.4 26.8v53.6l46.4 26.8 46.4-26.8v-53.6z"/></svg>