<svg xmlns="http://www.w3.org/2000/svg" viewBox="0 0 512 512"><path d="M80.867 28.32c-10.026.163-20.063 3.47-29.703 11.055C79.26 31.458 116.008 60.67 128.582 94.5c-33.088 2.865-77.492 21.192-92.373 60.79 45.182-35.397 77.436-49.507 97.191-28.644-20.36 20.232-37.691 49.854-34.72 77.06 8.497-19.503 30.64-47.206 53.761-56.956q-.026.37-.037.74c0 9.698 7.86 17.56 17.56 17.56a17.57 17.57 0 0 0 14.005-7.005c43.084 62.306 46.701 103.964 46.988 171.13 1.22 3.766 3.31 13.657 8.713 13.323 2.138-.15 7.886-4.198 9.24-14.906-.658-72.08-6.662-120.87-59.648-192.89.088-.438.17-.88.244-1.335 12.77-25.514 63.138-12.534 85.207-7.342-19.952-24.276-63.064-33.383-91.26-30.154 6.987-23.99 41.58-35.787 79.522-39.88-35.283-14.533-83.623-2.6-108.498 18.581-18.92-23.63-46.219-46.69-73.608-46.252zM316.443 88.3c-14.417-.27-30.606 5.297-47.838 19.68 55.587-9.758 66.225 13.936 65.26 41.247-27.864-3.965-65.478 2.288-83.722 24.488 15.247-3.588 43.993-5.877 64.527 1.6a17.56 17.56 0 0 0-3.293 10.21c0 9.697 7.86 17.559 17.557 17.56a17.7 17.7 0 0 0 3.447-.36c-29.184 40.13-43.587 77.41-49.65 109.765a288 288 0 0 1 17.779 2.49c6.267-33.1 22.157-72.1 56.822-115.246a17.55 17.55 0 0 0 13.19 6.002 17.56 17.56 0 0 0 17.283-14.578c24.362 2.404 52.773 19.613 66.91 34.192-6.48-25.342-31.1-46.236-56.117-58.325 20.007-20.112 64.557-27.84 85.123-26.85-48.212-22.24-87.34-20.275-110.063-9.238-9.94-21.646-30.544-42.133-57.213-42.636zM18 327v18h100.234c14.542-6.786 29.8-12.894 45.434-18zm330.69 0c15.735 5.106 31.102 11.213 45.736 18H494v-18zm-81.858 2.291c-1.966 17.011-11.841 30.177-25.898 31.164-17.093-1.086-24.48-13.605-27.6-27.437-33.38 5.94-67.275 18.015-97.31 33.033-36.808 18.405-67.758 41.477-84.942 61.232 4.887 1.483 10.322 3.125 17 4.846 16.234 4.183 36.103 7.818 47.176 6.902 8.815-.73 18.05-5.582 28.39-11.27 10.34-5.686 21.82-12.219 35.834-13.025 19-1.092 36.012 5.71 51.84 12.04 15.828 6.331 30.557 12.207 44.69 12.226 8.875.012 18.36-3.294 28.83-7.22s21.902-8.468 34.943-8.778c30.896-.735 56.652 15.618 80.36 16 14.596.235 38.53-3.61 58.222-7.625 8.712-1.776 16.05-3.47 22.18-4.91-16.61-19.392-47.196-42.19-83.774-60.38-39.91-19.845-86.811-34.618-129.941-36.798zm-97.768 109.658c-17.693.86-35.45 8.611-51.22 16.006-9.012 4.226-17.343 8.447-24.168 11.486C86.85 469.481 81.11 471 80 471c-25.66 0-48.943-12.707-62-21.492v21.472C33.352 479.837 55.207 489 80 489c7.268 0 13.51-2.78 20.998-6.115s15.8-7.56 24.488-11.633c17.376-8.147 36.382-15.234 49.875-14.275 8.73.62 17.46 6.265 27.45 13.51 9.993 7.245 21.062 16.013 35.75 18.396 21.05 3.416 40.977-2.01 59.72-7.215 18.745-5.204 36.403-10.194 52.91-8.705 6 .54 11.363 3.603 18.868 7.564S387.252 489 400 489c14.94 0 38.64-4.13 59.537-8.164 15.083-2.91 28.2-5.772 34.463-7.166v-18.39l-.012-.05c0-.002-17.313 3.968-37.863 7.934S411.277 471 400 471c-8.694 0-14.605-2.73-21.54-6.39s-14.851-8.6-25.65-9.573c-21.052-1.898-40.784 4.134-59.343 9.287s-35.852 9.418-52.026 6.793c-8.856-1.437-17.89-7.823-28.062-15.199-10.174-7.378-21.676-15.824-36.738-16.895-2.6-.177-5.16-.19-7.577-.074z"/></svg>