<svg xmlns="http://www.w3.org/2000/svg" viewBox="0 0 512 512"><path d="m406.09 25-7.504 22.51 14.764 14.763 22.51-7.503V25zm-29.113 26.354-9.9 9.9 32.528 32.53 9.9-9.901zM354.35 73.98l-43.842 43.844 32.525 32.528 43.846-43.842zm-56.57 56.57-32.528 32.528 32.53 32.53 32.527-32.53zm-56.567 33.94-127.899 127.9-8.884 26.65 37.388 37.39 26.65-8.885 127.9-127.899zm172.219 140.47c-15.712-.181-32.102 3.876-48.948 10.47-38.503 15.07-79.972 43.684-120.955 71.744-40.982 28.06-81.502 55.562-115.633 68.5-17.065 6.469-32.347 9.213-45.064 7.424-12.717-1.79-23.224-7.59-32.738-20.45-2.186-2.954-2.234-6.994.927-14.197s9.497-15.948 16.577-23.982c9.554-10.843 20.149-20.342 26.109-25.446L80.932 366.25c-6.525 5.638-17.096 15.26-26.84 26.32-7.758 8.806-15.093 18.483-19.553 28.65s-6.082 22.448 1.084 32.134c11.935 16.13 27.625 25.165 44.701 27.568 17.077 2.403 35.186-1.305 53.951-8.418 37.53-14.226 78.435-42.417 119.422-70.48 40.988-28.064 82.03-56.009 117.35-69.835 17.66-6.912 33.746-10.221 47.43-8.96s25.137 6.61 35.58 18.666c10.647 12.29 11.66 30.243 5.556 52.642-6.103 22.4-19.359 47.936-34.41 71.668-6.132 9.67-12.538 19.008-18.863 27.799h22.037a568 568 0 0 0 12.025-18.156c15.598-24.593 29.668-51.22 36.578-76.577s6.627-50.754-9.32-69.164c-13.168-15.2-29.802-23.168-47.533-24.8a84 84 0 0 0-6.693-.344zM94.135 334.198l-9.9 9.9 32.527 32.53 9.9-9.9z"/></svg>