<svg xmlns="http://www.w3.org/2000/svg" viewBox="0 0 512 512"><path d="m155.605 114.635-14.31 7.152 3.576 7.156 13.424 26.844-57.578 57.578h22.625l42.494-42.494 21.246 42.494h17.89l-45.786-91.578zm132.422 2.73v24c0 11.313 5.526 24.453 12.13 39.47 6.344 14.433 13.97 29.758 19.87 42.331v54.2h-93.765l-16-48H80.027v80h2.623c5.445-11.529 14.993-20.258 26.176-26.093 12.89-6.725 28.057-9.908 43.2-9.908s30.31 3.183 43.203 9.908c11.18 5.835 20.73 14.564 26.173 26.092h117.344c10.22-23.39 31.872-35.904 54.557-37.967 23.296-2.118 47.978 5.743 65.736 21.967h7.223l10.666-32h-28.9v-48H333.09c-5.778-12.2-12.63-26.108-18.285-38.97-6.367-14.482-10.778-28.342-10.778-33.03v-24zm-256.054 72v80h32v-80zm432.054 23.881v32h16v-32zm-231.568 32.12 5.334 16h50.232v-16H232.46zm-184.434 40v24.304h16v-24.305zm104 16a48 48 0 0 0-48 48 48 48 0 0 0 48 48 48 48 0 0 0 48-48 48 48 0 0 0-48-48zm253.557 0a48 48 0 0 0-48 48 48 48 0 0 0 48 48 48 48 0 0 0 48-48 48 48 0 0 0-48-48zm-173.557 24v16h96v-16zm-80 8a16 16 0 0 1 16 16 16 16 0 0 1-16 16 16 16 0 0 1-16-16 16 16 0 0 1 16-16zm253.557 0a16 16 0 0 1 16 16 16 16 0 0 1-16 16 16 16 0 0 1-16-16 16 16 0 0 1 16-16z"/></svg>