<svg xmlns="http://www.w3.org/2000/svg" viewBox="0 0 512 512"><path d="M316.78 22.875c-39.935 7.73-68.165 23.587-85.06 45.594l56.686 32.719c7.082-3.366 14.853-5.29 22.971-5.409 4.6-.066 9.31.448 14.06 1.596 3.55-21.452.931-46.382-8.656-74.5zm-97.155 60.188-86.97 150.562 93.126 53.813 21.875-37.875c-9.93-9.794-14.08-24.694-14.594-40.22-.63-18.985 3.982-40.098 12.565-59.187 6.37-14.167 14.909-27.294 25.719-37.22l-51.72-29.874zM426.094 86c-29.393 5.69-52.422 15.795-69.281 29.5 9.33 9.8 14.3 21.757 15.28 34.03l56.53 32.626c10.69-25.678 10.484-57.99-2.53-96.156zM64.969 94.063l-37.94 65.716 102 42.75 60.815-105.308L64.97 94.062zm246.623 19.968c-6.535.105-12.59 2.261-18.563 5.846-11.942 7.17-22.876 21.331-30.341 37.937-7.467 16.605-11.481 35.513-10.971 50.907.51 15.377 5.322 26.063 12.812 30.404.008.004.026-.004.034 0 7.502 4.316 19.15 3.152 32.718-4.094 13.584-7.253 27.951-20.166 38.596-34.935s17.45-31.352 17.687-45.282c.237-13.933-4.683-25.24-20.5-34.375-7.91-4.568-14.935-6.51-21.47-6.408zm58.812 56.125c-3.198 14.315-10.297 28.28-19.375 40.875-12.236 16.98-28.18 31.523-44.935 40.47-13.74 7.339-28.797 11.2-42.281 7.438l-21.844 37.813 93.123 53.78L422 199.938l-51.594-29.78zm54.219 62.627-60.781 105.344 88.03 67 37.939-65.75zm-276.656 31.281c-22.477 9.84-39.73 23.148-51.815 39.344l87.5 50.53c8.04-18.58 11.052-40.098 8.5-64.342l-44.185-25.53zM87.875 320.22l-.002.002L18.221 440.78v37.346l85.842-148.562zm169.404 6.969c-22.48 9.84-39.723 23.142-51.808 39.343l87.5 50.533c8.042-18.59 11.056-40.12 8.5-64.375l-44.192-25.5zM122.184 340.03l.004.002.001-.002zm.004.002L32.189 494.906h21.622l84.593-145.5zm34.439 19.873-77.78 135h21.56l72.376-125.654-16.154-9.346zM197.47 383.5l-63.22 111.406h21.5l57.906-102.062zm34.435 19.906-51.062 91.5h21.375l45.875-82.187zm34.438 19.875-38.938 71.625h21.313l33.844-62.279z"/></svg>