<svg xmlns="http://www.w3.org/2000/svg" viewBox="0 0 512 512"><path d="M468.941 38.492c-8.382.597-18.287 6.096-29.802 15.977-76.1 65.307-202.78 179.14-282.432 269.103l21.07 21.07C259.987 257.359 381.146 139.12 482.4 42.827c-3.95-3.284-8.43-4.692-13.459-4.334zM143.926 336.246l-17.17 17.027 22.303 22.303a2547 2547 0 0 1 16.41-17.789zm-56.795.03-12.729 12.728 79.196 79.195 12.728-12.726zm2.941 54.185-60.474 60.475c.372 11.49 10.707 22.336 22.627 22.627l60.474-60.473-8.136-8.137c2.656 4.264 2.84 8.706.457 11.098-3.124 3.123-9.555 1.757-14.364-3.051-4.807-4.81-6.173-11.24-3.05-14.363 2.39-2.383 6.827-2.201 11.09.45zm-9.129 17.814c3.07.06 6.708 1.72 9.713 4.727 4.807 4.808 6.173 11.239 3.05 14.361-3.126 3.124-9.555 1.76-14.364-3.05-4.807-4.81-6.172-11.238-3.049-14.362 1.172-1.171 2.809-1.711 4.65-1.676zM69.63 419.59c3.07.06 6.708 1.718 9.713 4.724 4.809 4.81 6.174 11.239 3.05 14.362-3.123 3.125-9.555 1.761-14.363-3.049-4.809-4.81-6.174-11.238-3.05-14.361 1.171-1.172 2.808-1.712 4.65-1.676zm-11.315 11.312c3.07.06 6.71 1.72 9.715 4.727 4.807 4.81 6.172 11.237 3.05 14.361-3.126 3.124-9.556 1.76-14.364-3.05-4.807-4.808-6.174-11.238-3.05-14.362 1.17-1.172 2.808-1.711 4.65-1.676zm-11.312 11.315c3.07.06 6.708 1.72 9.713 4.724 4.807 4.81 6.174 11.24 3.05 14.364s-9.556 1.759-14.365-3.051c-4.808-4.808-6.171-11.24-3.048-14.363 1.171-1.172 2.808-1.71 4.65-1.674z"/></svg>