<svg xmlns="http://www.w3.org/2000/svg" viewBox="0 0 512 512"><path d="m254.252 17.719-.002.002c-11.843 0-23.691 4.533-32.78 13.623a46.21 46.21 0 0 0-4.064 60.906c8.4-17.542 23.4-27.876 39.28-28 14.61-.114 28.57 8.52 37.345 23.72a46.21 46.21 0 0 0-7-56.626c-9.088-9.09-20.936-13.625-32.78-13.625zm64.435 38.406a65.7 65.7 0 0 1-.5 19.438 189.5 189.5 0 0 1 42.907 21.03l9.844-15.78a208 208 0 0 0-52.25-24.688zm-129.093 1.53a208.6 208.6 0 0 0-49.03 24.22l9.81 15.78a189.8 189.8 0 0 1 40.19-20.592 65.7 65.7 0 0 1-.97-19.407zM102.97 81.75c-.356.012-.72.04-1.065.063-6 .397-10.73 2.832-14.094 6.25-6.45 6.552-9.121 18.373-1.25 33.78l92.782 57.72-57.72-92.75c-6.618-3.396-12.524-4.97-17.593-5.063-.36-.007-.707-.012-1.06 0zm303.808 0c-5.07.095-10.96 1.685-17.591 5.094l-57.75 92.75 92.812-57.75c7.873-15.41 5.202-27.228-1.25-33.78-3.365-3.42-8.094-5.853-14.094-6.25-.69-.047-1.4-.078-2.125-.064zm-149.935 1.186v.001c-9.205.073-19.457 6.564-24.78 23.063l24.78 106.406 24.779-106.47c-5.437-16.876-15.58-23.07-24.78-23zm42.875 27.816-4.25 18.186a133.1 133.1 0 0 1 35.185 16.593l9.815-15.78a152 152 0 0 0-40.75-19zm-89.783.998c-13.962 4.485-27.046 10.944-38.938 19.03l9.846 15.814a133 133 0 0 1 37.344-17.813l-2.909-12.594a65 65 0 0 1-5.341-4.435zM430.5 139.97l-15.78 9.843a189.6 189.6 0 0 1 20.342 39.906 66 66 0 0 1 8.782-.596c3.714 0 7.423.34 11.094.97a208.2 208.2 0 0 0-24.438-50.122zm-348.594 1a208.3 208.3 0 0 0-23.529 48.405c1.96-.176 3.936-.25 5.904-.25 4.508 0 9.014.483 13.44 1.406a189.6 189.6 0 0 1 20-39.75zm299.97 29.28-15.813 9.813a133 133 0 0 1 18.125 36.843l7.593-1.78a64.6 64.6 0 0 1 6.065-7.032c.77-.77 1.543-1.527 2.343-2.25a152.2 152.2 0 0 0-18.312-35.594zm-251.343.969-.002.002a152.2 152.2 0 0 0-18.904 38.308c1.68 1.788 3.214 3.673 4.654 5.596l12.22 2.844a133 133 0 0 1 17.813-36.94zm-66.252 36.469c-11.84 0-23.69 4.535-32.779 13.625a46.224 46.224 0 0 0 0 65.562c15.418 15.418 38.742 17.764 56.562 7.03-15.176-8.783-23.77-22.774-23.658-37.374.125-15.882 10.435-30.88 27.971-39.28-8.293-6.363-18.185-9.564-28.096-9.564zm379.565 0a46.17 46.17 0 0 0-28.125 9.562c17.54 8.4 27.874 23.397 28 39.28.113 14.6-8.507 28.593-23.692 37.376 17.828 10.734 41.178 8.388 56.596-7.029a46.226 46.226 0 0 0 0-65.565c-9.09-9.09-20.94-13.625-32.78-13.625zm-337.69 24.218c-16.5 5.325-22.988 15.577-23.06 24.78-.072 9.212 6.138 19.35 23.06 24.783l106.375-24.783-106.373-24.78zm295.815 0-106.377 24.78L401.97 281.47c16.92-5.435 23.131-15.573 23.058-24.784-.07-9.203-6.56-19.457-23.058-24.78zm-145.127 63.5-24.78 106.407c5.323 16.5 15.575 22.989 24.78 23.062 9.2.072 19.342-6.122 24.779-23zm-128.47.063-17.655 4.125c-.152.154-.286.315-.44.469a152.1 152.1 0 0 0 18.97 40.748l15.78-9.811a132.9 132.9 0 0 1-16.654-35.53zm255.97 1.092a132.8 132.8 0 0 1-16.971 35.437l15.783 9.815a152 152 0 0 0 18.53-38.19 66 66 0 0 1-3.842-3.53c-.17-.17-.334-.33-.5-.5zM76.686 317.906c-6.37 1.23-12.874 1.46-19.311.78a208.2 208.2 0 0 0 24.594 51.564l15.779-9.844a189.6 189.6 0 0 1-21-42.5c-.02.004-.04-.003-.06 0zm379.22.063c-6.546 1.22-13.242 1.41-19.844.625a189.4 189.4 0 0 1-21.406 42.81l15.78 9.844a208 208 0 0 0 25.47-53.28zm-276.468 13.654-92.782 57.72c-8.1 15.788-5.278 27.355 1.281 33.811 6.554 6.452 18.372 9.093 33.782 1.219zm151.968 0 57.688 92.72c15.428 7.897 27.253 5.27 33.812-1.189 6.56-6.456 9.35-18.023 1.25-33.81zm-151.718 34.938v.002l-9.813 15.779a152.3 152.3 0 0 0 35.625 18.281c.88-.994 1.8-1.954 2.75-2.904a65 65 0 0 1 7.03-6.096l1.595-6.875c-13.42-4.143-25.952-10.303-37.187-18.187zm152.125 1.093a133 133 0 0 1-35.032 16.94l2.969 12.654q.236.233.47.47a65 65 0 0 1 3.78 4.155 152 152 0 0 0 37.625-18.437l-9.812-15.78zM150.47 413.531l-9.815 15.781a208.6 208.6 0 0 0 49.375 24.282 65.9 65.9 0 0 1 0-19.75 189.6 189.6 0 0 1-39.56-20.313zM361 414.596a189.6 189.6 0 0 1-42.344 20.843 65.7 65.7 0 0 1-.47 19.75 208 208 0 0 0 52.658-24.812zm-143.594 1a46.17 46.17 0 0 0 4.063 60.875 46.225 46.225 0 0 0 65.56 0c15.43-15.43 17.76-38.771 7-56.596-8.773 15.19-22.735 23.801-37.341 23.688-15.883-.125-30.883-10.433-39.282-27.967z"/></svg>