<svg xmlns="http://www.w3.org/2000/svg" viewBox="0 0 512 512"><path d="M258.594 24.875c-73.387 0-122.254 46.017-120.594 98.375.417 13.16 3.075 26.14 8.313 38.03 16.763 23.134 48.402 34.675 73.843 37.064l-47.72 6.937-13.092 32.815c7.57 7.656 15.72 14.348 24.312 20.06l11.688-41.53 17.97 5.03-12.94 46.125a150 150 0 0 0 32.095 11.533l3.935-46.062 18.625 1.594-4.091 47.625c11.22 1.202 22.543 1.17 33.75-.159l-4.125-47.466 18.593-1.625 4 45.717a150.4 150.4 0 0 0 29.438-10.657L319.5 221.656l17.97-5.03 11.874 42.155a154 154 0 0 0 22.029-17.5l-15.967-36.435-44.72-6.5c24.866-2.334 55.657-13.404 72.691-35.5 6.22-13.203 8.699-27.83 7.873-43.53-2.973-56.486-59.27-94.439-132.656-94.439zm-74.156 82.75c17.97 24.493 35.356 31.6 63.062 34.75-34.05 58.587-110.777 10.01-63.062-34.75zm168.03 0c47.717 44.76-29.01 93.337-63.062 34.75 27.706-3.15 45.094-10.257 63.063-34.75zm-84.53 45.656 23.03 53.72c-11.684 7.06-33.11 7-44.406 1.938zm95.593 118.407c-55.816 38.672-129.347 40.136-186.5 4.375l.97 219.625h18.688v-.186c8.22-40.85 36.346-34.88 45.5.187h20.563v-78.66c5.387-68.955 34.254-62.801 38.875-13.716v92.375h18.687v-74.032c4.78-29.54 24.89-62.024 33.342 5.594zm-52.875 44.875c7.31 0 14.596 7.55 14.596 18.783 0 11.23-7.285 18.779-14.596 18.779-7.31 0-14.625-7.55-14.625-18.78s7.317-18.78 14.627-18.78zm-82.092 8.656-.001.002c4.173 0 9.165 3.06 13.689 10.808 4.524 7.75 7.719 19.455 7.719 32.534 0 13.077-3.195 24.813-7.72 32.562-4.523 7.75-9.516 10.813-13.689 10.813-4.172 0-9.161-3.064-13.685-10.813s-7.75-19.484-7.75-32.562 3.226-24.782 7.75-32.532 9.514-10.812 13.687-10.812z"/></svg>