<svg xmlns="http://www.w3.org/2000/svg" viewBox="0 0 512 512"><path d="M230.313 18.22c-38.374 0-65.98 2.769-85.032 8.5-19.05 5.73-29.248 13.7-35.875 25.468-12.14 21.561-10.572 61.474-8.375 120.593 19.884-8.89 47.446-11.332 78.192-10.904 35.384.493 74.692 5.72 109.308 14.375 18.682-46.793 28.3-91.06 38-135.346.553 43.798.98 87.61-9.654 131.407 26.36 9.143 45.586 23.718 56.53 39.439 11.876-31.154 20.094-58.355 23.626-81.096 4.292-27.623 1.971-48.603-6.875-64.404s-24.568-27.567-50.654-35.75-62.192-12.281-109.19-12.281zM171.97 180.528v.002c-9.123.087-17.844.611-25.942 1.471-9.856 77.77-11.772 156.56-4.466 254.563 26.543 23.08 66.733 31.19 105.468 40.906-32.55 1.308-65.25.194-98.5-9.596 8.33 17.868 23.528 25.031 44 25.031H450.5c37.102 0 22.515-40.207 3.094-66.935-22.223-30.585-65.655-34.498-101.221-58.533l.127.218c-38.968-15.458-77.94.41-116.906 31.563 20.12-29.928 48.293-56.018 80.187-56.47 3.742-.054 7.543.276 11.375.97a242 242 0 0 1-7.654-24.375c-33.092-22.49-73.682-16.99-118 2.5 22.384-19.514 49.345-35.1 75.437-35.625 13.233-.267 26.239 3.351 38.313 12.28-5.426-35.453-1.14-68.742 9.437-102.472a118.5 118.5 0 0 0-14.783-6.308l-12.375-2.127-2.717 9.656c-35.354-9.928-78.42-16.165-115.875-16.687-2.34-.032-4.672-.054-6.968-.032z"/></svg>