<svg xmlns="http://www.w3.org/2000/svg" viewBox="0 0 512 512"><path d="M128 22.78v.001c-11.101 10.941-19.822 27.6-26.076 41.203 6.044 20.063 11.083 40.87 27.539 54.926 18.862-14.015 27.05-33.752 35.187-56.351-10.019-11.404-20.238-28.192-36.65-39.78zm256 .001c-16.412 11.587-26.631 28.374-36.65 39.778 8.137 22.599 16.325 42.336 35.187 56.351 16.456-14.057 21.494-34.863 27.54-54.926C403.82 50.381 395.1 33.722 384 22.781zm-94.23 23.32v.003C256 159.999 320 272 302.2 381.89c24.852-23.71 52.385-45.752 81.849-53.069 2.978 1.06 6.178 2.301 8.722 3.461 21.665-87.86 40.77-191.668 47.006-274.594-3.538 1.274-7.075 3.12-10.619 5.424-10.39 28.262-22.227 55.28-38.39 71.285l-14.612 167.788-19.931 8.437 16.548-177.105c-24.04-19.37-37.341-45.836-45.962-74.737-12.093-5.45-25.495-9.93-37.041-12.68zm-67.54.003c-11.546 2.749-24.949 7.228-37.04 12.68-8.623 28.9-21.924 55.363-45.965 74.734l16.55 177.107-19.933-8.437-14.61-167.788c-16.163-16.006-28.001-43.023-38.39-71.285-3.545-2.304-7.083-4.15-10.621-5.424 6.237 82.926 25.34 186.732 47.006 274.592 2.544-1.159 5.746-2.4 8.724-3.459 29.464 7.318 56.995 29.357 81.848 53.067C191.999 272 256 159.999 222.23 46.104zM129.004 347.83c-13.31 5.672-27.915 18.355-33.014 34.666 23.725 4.68 52.808 18.407 75.524 40.389l3.947 26.867 33.467-12.074-1.33-29.082c-19.75-28.701-51.073-52.92-78.594-60.766zm253.992 0c-27.52 7.846-58.843 32.065-78.594 60.766l-1.33 29.082 33.467 12.074 3.947-26.867c22.716-21.982 51.8-35.71 75.524-40.389-5.1-16.31-19.704-28.994-33.014-34.666zM90.69 399.703l-52.255 39.272c-10.312 15.25-12.925 32.609-8.659 47.158 52.56 9.293 88.252-3.287 129.043-25.838l-4.273-29.084c-14.703-15.135-33.667-26.354-63.856-31.508zm330.624 0c-30.19 5.154-49.153 16.373-63.856 31.508l-4.273 29.084c40.79 22.55 76.484 35.13 129.043 25.838 4.266-14.55 1.653-31.907-8.659-47.158z"/></svg>