<svg xmlns="http://www.w3.org/2000/svg" viewBox="0 0 512 512"><path d="M285.238 23.871c-60.074 2.536-117.43 41.422-119.785 123.83a173 173 0 0 0 1.443 27.631c-59.221.595-107.046 48.786-107.046 108.154 0 59.734 48.42 108.155 108.16 108.155s108.162-48.426 108.162-108.159l-.135-5.47c.116-24.29-6.646-48.955-14.428-69.035-54.27-139.973 96.298-115.39 76.485-49.75-17.316 57.382-39.505 115.02-66.281 173.937-81.648 179.643 173.916 208.517 176.96 69.217l-83.597-1.82c-3.581 17.51-41.92 21.513-17.238-32.797 26.403-58.085 54.991-121.707 71.378-188.647C444.21 77.441 362.476 20.611 285.238 23.871zm-116.422 236.91c12.462 0 22.569 10.095 22.569 22.56 0 12.467-10.107 22.565-22.569 22.565v.002c-12.462 0-22.566-10.1-22.566-22.566s10.104-22.56 22.566-22.56z"/></svg>