<svg xmlns="http://www.w3.org/2000/svg" viewBox="0 0 512 512"><path d="M256 46c-27.713 84-55.437 84-55.437 140 0 0 27.724 28 55.437 28s55.438-28 55.438-28c0-56-27.726-56-55.438-140zm3.25 168.063A110.852 112 0 0 0 145.156 326a110.852 112 0 0 0 221.688 0A110.852 112 0 0 0 259.25 214.063zM108.28 347.5c-48 28-34.137 52.25-92.28 118.5 85.856-17.75 99.72 6.5 147.72-21.5 0 0 10.137-38.25-3.72-62.5-13.856-24.25-51.72-34.5-51.72-34.5zm295.44 0S365.857 357.75 352 382s-3.72 62.5-3.72 62.5c48 28 61.863 3.75 147.72 21.5-58.144-66.25-44.28-90.5-92.28-118.5z"/></svg>