<svg xmlns="http://www.w3.org/2000/svg" viewBox="0 0 512 512"><path d="M478.89 21.842c-6.433-.113-15.047 3.628-24.242 12.822L328.912 160.4l.004-.023-60.228 60.228.01.01-12.727 12.727-.01-.01-22.656 22.658.01.01-12.442 12.44-.01-.01-30.883 30.884q0 .008.004.014l-55.656 55.656 22.627 22.627 320.32-320.32c18.827-18.825 14.79-35.216 1.616-35.447zm-445.84.06c-13.175.232-17.213 16.623 1.614 35.45l185.912 185.912 22.658-22.66-44.164-44.16-.002.058L57.29 34.725C48.097 25.53 39.485 21.79 33.051 21.902zm234.538 36.391c-9.308 42.14-12.624 79.313-27.922 121.453-21.636-16.89-30.623-41.47-43.836-63.414.586 10.88 1.66 22.256 2.42 33.838l57.71 57.71 78.485-78.485a2474 2474 0 0 1 4.078-21.237c-21.27 28.796-42.452 44.68-71.396 73.475-6.752-45.418.279-77.923.46-123.34zM87.873 170.621v.002q-.079.004-.082.045c-.258 5.25 104.428 78.355 96.223 83.576-13.465 8.55-57.975 31.11-83.508 44.914 19.72-3.345 53.538-7.933 72.18-8.002l35.453-35.453-63.657-63.65c-27.027-10.216-54.914-21.57-56.609-21.432zm245.143 56.147-29.086 29.086 56.174 56.17c10.848.734 21.692 1.414 32.5 1.216-24.518-15.9-71.99-43.732-71.64-50.566.354-6.887 63.447-21.218 95.518-31.608-27.787-2.137-55.973 3.848-83.466-4.298zm-41.813 41.81-22.656 22.656 86.437 86.44 22.627-22.627-44.472-44.477h.058zm-35.098 35.1-57.703 57.703c.408 14.207.21 28.453-.52 40.379 11.323-26.84 17.846-51.86 45.827-74.473 14.444 11.985 24.817 40.268 37.225 60.4-.91-19.041-6.875-52.002-5.032-64.214zM111.7 354.984l-12.724 12.727 45.255 45.256 12.725-12.73-45.252-45.253zm288.54.06-45.255 45.253v.002l12.727 12.726 45.258-45.255zM94.022 385.392l-9.9 9.898 32.527 32.527 9.9-9.9zm323.891.058-32.525 32.528 9.9 9.9 32.525-32.527-9.898-9.9zM71.396 408.018 21.9 457.512l32.528 32.527 10.603-10.603 10.73 10.724 17.846-17.848-10.726-10.724 21.04-21.043-9.9-9.9-38.888 38.888-12.729-12.726 38.89-38.891zm369.149.06-9.899 9.9 38.89 38.89-12.73 12.728-38.89-38.89-9.898 9.9 49.494 49.494 32.527-32.528-10.603-10.603 10.724-10.73-17.848-17.846-10.724 10.726-21.041-21.04z"/></svg>