<svg xmlns="http://www.w3.org/2000/svg" viewBox="0 0 512 512"><path d="M42.656 14.72C98.922 34.016 131.681 87.8 93.53 124.97c97.99 81.428 90.47 108.771 11.565 218.06 39.676 27.97 76.052 100.33 70.344 147.91H230.5c-32.26-22.574-43.393-49.274-48.562-74.72 29.67-3.366 57.123-.784 80.28 9.126 3.605 25.136 3.95 49.577 1.28 65.593h18.97c2.28-15.12 2.577-33.895.718-53.687 16.71 12.26 29.994 29.892 38.658 53.687h34.06c-30.534-30.354-48.741-63.437-64.56-97.062a274 274 0 0 1-14.815 3.22c-3.77-15.605-8.912-30.76-15.558-44.19 14.544-19.12 21.513-36.89 20.873-54.53-.274-7.538-1.884-14.82-4.53-22.03 22.188-6.711 41.266-11.494 60.998-13.564 4.243 21.135 9.947 42.103 17.625 62.783L358 331.13l5.906.5c22.146 1.85 41.883 4.926 60.875 9.625 3.94 39.93-6.698 78.296-30.092 118.937 14.673 9.527 26.153 19.857 35.375 30.75h24.407c-40.497-24.248-32.674-75.68-8.221-102.375 21.968 11.687 36.194 23.99 47.844 41.5v-36.125c-26.635-3.933-42.611-21.917-51.221-47.658 16.828 5.22 33.481 11.873 51.158 20.283v-20.625c-19.077-8.64-37.455-15.372-56.31-20.53-4.706-27.01-3.844-59.279.031-91.876-28.84 7.984-57.094 11.11-83.906 10.156-4.173-24.797-6.5-49.993-7.75-75.5l-.657-13.156-12.22 4.97c-54.128 22.016-119.118 16.336-156.156-10.028C153.216 110.84 147.39 63.24 168 14.72zm285.532 167.03c1.283 20.255 3.3 40.46 6.468 60.53-52.267-5.78-97.91-27.234-130.062-58.186 37.293 11.99 82.246 11.504 123.594-2.344zm-121.532 50.094c13.693 7.486 27.003 14.627 38.375 24.47 11.47 16.32 17.657 29.84 18.125 42.748.49 13.534-4.893 27.893-20.435 46.875l-3.971 4.875 3 5.532c6.7 12.27 11.89 27.51 15.688 43.594-98.4 10.34-144.816-53.688-50.782-168.094zm152.782 29.812c12.68-.05 26.114 1.008 41.156 3.375 10.154 19.476 17.11 38.17 21.062 56.408-15.91-3.556-32.366-6.113-50.062-7.812-6.03-17.068-10.72-34.388-14.375-51.94.738-.01 1.474-.027 2.217-.029z"/></svg>