<svg xmlns="http://www.w3.org/2000/svg" viewBox="0 0 512 512"><path d="M215.078 20.037 100.754 135.693l52.133 79.313L21 491.963l275.824-132.434 79.42 52.785L491 297.088zm102.037 21.885-21.082 21.174 16.865 16.933 21.088-21.17zm130.71 4.252-84.32 84.666 16.862 16.94 84.328-84.667zm-75.893 8.463-42.157 42.336 16.864 16.933 42.166-42.334zm67.463 67.744-42.155 42.33 16.862 16.937 42.164-42.334-16.87-16.931zm12.658 55.039-21.08 21.17 16.863 16.931 21.088-21.166-16.87-16.935zm-206.526 66.863c6.308.15 11.87 2.175 15.924 6.244 11.794 11.843 6.35 36.512-12.16 55.1-18.51 18.585-43.08 24.055-54.871 12.219-11.793-11.847-6.345-36.517 12.168-55.1 12.146-12.2 26.9-18.748 38.94-18.463z"/></svg>