<svg xmlns="http://www.w3.org/2000/svg" viewBox="0 0 512 512"><path d="m85.281 43.568.008.008c-36.666 0-66.19 29.524-66.19 66.188 0 32.52 23.234 59.404 54.07 65.068l22.185 55.457-4.575 77.75 25.43-67.033 55.227-9.64-9.565 33.42-40.521 43.003 13.671 21.074-34.566 63.21 42.22 40.665-13.251-46.91 18.789-36.637 35.945 55.395-33.978-97.47 23.494-21.698 31.351 23.312a153.3 153.3 0 0 1 17.264-47.785l-23.877-5.95 7.818-29.7 52.002-9.076 16.733 14.203 28.564 25.223-12.37 14.01-31.538-27.846c-23.768 24.428-38.394 57.796-38.394 94.648 0 75.047 60.636 135.684 135.683 135.684 75.048 0 135.686-60.636 135.686-135.684 0-62.56-42.135-115.1-99.627-130.855l9.267 24.535 56.23 38.492-59.55 84.092-15.252-10.8 48.578-68.597-45.412-31.088-15.373-40.695-.227-.025-.548-2.03-5.584-14.78 43.949-11.47 24.723 30.344-5.057-55.687-67.592 16.437-5.531-20.353-106.791 4.164 3.103-14.223 37.721-40.457 47.857 3.623-49.886-30.36-50.309 48.028-67.22-1.027a84.4 84.4 0 0 1-2.975 18.644l65.803 1.004-7.5 34.38 116.062-4.524 10.23 37.638-.029.004 16.555 48.63 40.402 28.474-36.285 50.027-15.13-10.973 25.163-34.69-29.886-21.066-19.858-58.34a134.8 134.8 0 0 0-42.844 15.542l-26.13-22.18-52.186 9.107 6.606-25.093-39.215-8.52-47.225-14.715.025-.02L93.203 144.9l5.633-17.82 44.734 14.14c5.04-9.347 7.899-20.058 7.899-31.462 0-36.665-29.522-66.19-66.188-66.19zm26.463 126.895 26.526 8.264 44.187 14.123-5.31 18.548-64.704 11.293-18.906-47.265a65.9 65.9 0 0 0 18.207-4.961z"/></svg>