<svg xmlns="http://www.w3.org/2000/svg" viewBox="0 0 512 512"><path d="M33.125 19.406 135.5 128.221l81-23.159 18.72-5.343-7.564 17.935-46.125 109.782 134.282-70 26.158-13.657L328.436 170 256.5 309.25l91.25-57.125 22.97-14.375-9.22 25.47-34.625 95.624 71-36.375 21.188-10.846L410.906 334l-33.937 93.063 45.125-6.688 4.529-.656 3.313 3.154 64.312 61.47-30.5-80.5 23.315-46.907-72.5 39.533 51.06-141.158-91.187 47.468 72.343-142.812-128.216 82.81L421.875 70.063l-182.846 98.626 30.442-99.562-103.846 25.25zM18.155 30.78 96.03 139.03l-31.125 75.534 94.125-46.782-98.904 166.813 190.25-99.656-101.03 185.406 140.25-79.063-46.94 102.221 106.5-53-45.655 92.28 86.5-14.468 93.47 31.563-63.158-60.346-56.125 8.315-15.53 2.312 5.374-14.75 31.158-85.437-70.908 36.31-21.123 10.815 8.094-22.315 33.47-92.435-97.22 60.875-28.938 18.091L224.221 331l74.058-143.344-131.058 68.313-22.971 12 10.03-23.908 48.626-115.688-67.75 19.375-5.5 1.565-3.875-4.159L18.156 30.78z"/></svg>