<svg xmlns="http://www.w3.org/2000/svg" viewBox="0 0 512 512"><path d="m261.094 16.03-18.688.032.063 33.282c-15.95.64-31.855 3.144-47.596 7.529l-10.219-33.28-17.875 5.47 10.346 33.593c-12.496 4.636-24.866 10.44-37.03 17.438l-19.126-30.5-15.815 9.906 19.065 30.47c-10.68 7.15-21.162 15.22-31.442 24.218l-25.87-24.065-12.75 13.69 24.874 23.123c-2.465 2.406-4.936 4.83-7.373 7.343l-6.28 6.5 6.28 6.5c54.467 56.233 116.509 85.098 178.906 85.096 62.4-.002 124.43-28.87 178.907-85.094l6.281-6.5-6.281-6.5a369 369 0 0 0-7.19-7.185l25-23.282-12.717-13.689-26.033 24.22q-13.724-12.034-27.935-21.874l19.312-30.784-15.812-9.937-19.188 30.594c-12.823-7.665-25.888-14.007-39.094-19.03l10.313-33.533-17.875-5.468-10.156 33.064c-15.513-4.467-31.21-7.082-46.938-7.906l-.062-33.442zm-10.565 54.22h.002c39.146.001 70.69 31.51 70.69 70.656s-31.545 70.688-70.692 70.688c-39.145 0-70.654-31.542-70.654-70.688 0-39.144 31.51-70.655 70.654-70.656zm64.69 9.063h.002c32.377 11.563 64.159 31.955 94.279 61.468-30.015 29.402-61.683 49.758-93.937 61.346 15.08-16.01 24.343-37.563 24.343-61.22 0-23.839-9.4-45.547-24.687-61.595zm-129.408.033c-15.27 16.044-24.655 37.738-24.655 61.56 0 23.64 9.25 45.18 24.313 61.188-32.218-11.596-63.838-31.944-93.815-61.313 30.092-29.474 61.824-49.862 94.157-61.435zm64.751 10.81c-27.99 0-50.687 22.696-50.687 50.688 0 27.99 22.696 50.656 50.688 50.656 27.99 0 50.687-22.667 50.687-50.656 0-27.992-22.696-50.688-50.687-50.688zm78.875 146.407c-25.883 9.116-52.37 13.718-78.875 13.718-16.852 0-33.69-1.895-50.375-5.594l59.594 51.125-93.685 2.5 253.433 193.876-85.808-144.375 71.529-.717-75.812-110.532z"/></svg>