<svg xmlns="http://www.w3.org/2000/svg" viewBox="0 0 512 512"><path d="m19.094 20.313 1.718 345.656c15.676 8.518 35.93 6.659 49.75-1.625 7.5-4.496 12.793-10.57 14.97-17.031 2.174-6.465 1.855-13.604-3.626-22.69-58.988-97.785-45.843-189.42 5.688-240.844 51.53-51.42 140.25-61.1 224.687-1.654 13.64 9.602 20.337 9.61 24.565 7.656 4.227-1.952 8.901-8.513 12.593-18.685 3.69-10.172 6.409-22.992 9.313-34.815 1.32-5.375 2.568-10.486 4.154-15.279l-343.81-.688zm172.625 39.25c-5.728.072-11.356.485-16.846 1.218L276 135.656l18.97-42.685c-35.906-23.667-71.29-33.815-103.25-33.408zm-84.063 31.091-.002.002A128 128 0 0 0 100.78 97c-12.168 12.143-22.049 26.945-28.873 43.906l144.25 76.125L208 298.627l-29.625 88.904-2.03 6.065 4.905 4.062 53.625 44.656-23.28 52.125h20.5l17.686-39.687 47.656 39.687h29.19l-128.5-107.062 24.094-72.28L319.123 347l39.19 147.438h135.75v-74.782l-117-114.279 70.906-25.25 46.092 29.623v-22.22l-39.875-25.592-3.875-2.5L446 261l-86.562 30.844-109.094-35.625-.313-46.47 111.407-4.47 4.75-.185 2.658-3.97 30.279-45.47 94.938-8.25v-18.779l-101 8.81-4.5.376-2.467 3.75-30.157 45.22-111.125 4.467-126.72-68.437zm-46.002 97.223c-1.952 34.125 6.588 73.24 29.315 115l33.467-21.69z"/></svg>