<svg xmlns="http://www.w3.org/2000/svg" viewBox="0 0 512 512"><path d="m53.588 9.594-45.426.59v34.808l61.945 65.485L152.7 82.16l18.88 33.037 23.247 3.875-20.558 47.28-4.46 6.214 18.03 21.952-44.455 77.384 29.174 31.877c4.798-4.18 9.5-8.29 14.074-12.304l-20.235-22.114 34.125-59.406 32.733 39.85c4.746-4.332 9.348-8.565 13.773-12.674l-53.664-65.33 34.43-47.953 70.31-4.5 11.692 55.26c4.892-5.433 9.378-10.62 13.408-15.546.65-.794 1.275-1.575 1.904-2.357l-10.9-51.53-.068.013-.97-7.688-123.89-1.77-11.799-59.585L87.81 70.953 53.589 9.598zm433.5 21.717c-20.47 15.934-40.295 27.686-60.545 35.95 3.96 47.51-25.01 99.123-70.658 150.81-46.21 52.323-110.372 104.936-179.426 152.068l-10.535-15.44c68.15-46.514 131.32-98.462 175.953-149 42.22-47.81 67.048-94.155 66.297-131.931-9.832 2.976-19.834 5.214-30.121 6.773-.49 27.362-11.266 54.747-40.389 90.354-32.157 39.315-86.64 90.12-176.682 167.738l-7.617 6.564-34.094-45.963-19.234 16.348c19.28 15.33 29.752 29.138 46.842 47.766l6.451 7.03-7.164 6.304c-24.68 21.712-50.044 41.688-76.758 60.162-5.077-3.61-11.26-5.746-17.908-5.746-17.062 0-31.094 14.032-31.094 31.093 0 17.06 14.032 31.092 31.094 31.092s31.094-14.032 31.094-31.094c0-2.58-.326-5.089-.93-7.492 26.655-20.534 54.276-39.37 82.285-58.246l7.197-4.847 5.37 6.818c16.493 20.95 32.352 43.3 48.01 66.34l20.156-17.422-45.944-52.592 8.567-5.959c131.204-91.3 210.172-166.177 250.75-226.72 36.76-54.848 42.27-96.536 29.033-130.756zm-43.92 180.998c-8.493 9.98-17.84 20.225-28.086 30.755l-57.637 94.444 59.53 92.6-54.91 65.912 14.36 11.96 63.684-76.447-60.615-94.285 25.961-42.533 32.49 2.754-9.879 70.799 70.489 13.336 3.472-18.366-52.992-10.023 10.145-72.703-42.842-3.631 26.13-42.817 32.08 20.58 38.048-10.06-4.778-18.07-30.1 7.96-25.511-16.367.025-.043-.154-.039zM271.535 365.523a2031 2031 0 0 1-16.258 11.934L312 412.385l-1.447 88.363 18.685.307 1.62-99.004-59.32-36.528zm-99.088 58.332-21.648 37.59 26.209 46.528 16.28-9.174-20.983-37.25 12.285-21.33q-6.035-8.297-12.143-16.364zM51.5 449.79h.002c6.959.001 12.398 5.441 12.398 12.4s-5.44 12.403-12.4 12.403-12.4-5.443-12.4-12.403c0-6.959 5.439-12.399 12.4-12.4z"/></svg>