<svg xmlns="http://www.w3.org/2000/svg" viewBox="0 0 512 512"><path d="m192.063 20.377-44.625 98.56-36.344-13.656 40.312 47.22 29.47-50.655L197.97 261.28l88.875-159.935 7.904 138.22 74.72-140.408 32.905 9.094-32.594-57.28-58.75 91.342L300.656 27.28 216.75 153.656zM61.25 100.813c-22.213 0-40.03 17.785-40.03 40a39.896 39.896 0 0 0 40.03 40.03c.558 0 1.104-.04 1.656-.062l19.5 72.815-27.812 7.435 4.843 18.065 27.813-7.469 6.656 24.875-27.812 7.437L70.938 322l27.812-7.437 7.156 26.78-27.779 7.438 4.809 18.033 27.814-7.437 6.906 25.812-27.779 7.438 4.842 18.062 27.78-7.437 7.189 26.75-27.815 7.469 4.846 18.06 27.808-7.467 12.25 45.78h19.346l-13.562-50.592 27.812-7.47-4.844-18.061-27.81 7.466-7.156-26.779 27.779-7.437-4.813-18.065-27.808 7.438-6.909-25.813 27.782-7.435-4.813-18.065-27.81 7.471-7.157-26.78 27.78-7.44-4.842-18.06-27.781 7.436-6.657-24.875 27.78-7.435-4.842-18.032-27.781 7.438-19.565-73.031c12.173-6.842 20.346-19.858 20.346-34.907 0-22.215-17.787-40-40-40zm391.188 0c-22.213 0-40.032 17.785-40.032 40 0 15.051 8.19 28.066 20.375 34.906l-19.56 73.03-27.815-7.438-4.844 18.033 27.815 7.469-6.656 24.841-27.815-7.435-4.844 18.058 27.813 7.442-7.156 26.779-27.815-7.47-4.843 18.064 27.812 7.437-6.904 25.815-27.815-7.44-4.843 18.065 27.812 7.435-7.156 26.78-27.846-7.467-4.812 18.06 27.812 7.47-13.562 50.595h19.312l12.25-45.781 27.815 7.466 4.841-18.058-27.808-7.471 7.185-26.75 27.813 7.438 4.842-18.063L396 385.188l6.906-25.813 27.813 7.438 4.842-18.032-27.813-7.467 7.156-26.75L442.721 322l4.841-18.062-27.812-7.438 6.656-24.875 27.813 7.47 4.842-18.064-27.813-7.435 19.5-72.815c.562.024 1.122.065 1.69.065 22.211 0 40-17.817 40-40.03 0-22.216-17.789-40-40-40z"/></svg>