<svg xmlns="http://www.w3.org/2000/svg" viewBox="0 0 512 512"><path d="M166.844 112.344c-42.01 38.554-97.815 75.022-147.53 86.03 39.097 14.379 89.036 18.718 134.717 9.157 53.264 31.33 128.094 32.185 184.875 0 44.99 15.297 96.348 13.18 149.69-9.31-59.564-9.606-125.004-51.587-155.25-85.875-55.502 39.62-111 32.146-166.5 0zM33.123 226.374v.003l.004.004zm.004.007c17.33 29.573 48.466 79.244 89.746 131.057 27.24 34.187 76.607 31.093 129.97 31.093 49.299 0 102.29.706 127.626-31.092 37.724-47.35 68.59-92.143 88.217-122-124.873 84.53-316.77 93.181-435.559-9.058z"/></svg>