<svg xmlns="http://www.w3.org/2000/svg" viewBox="0 0 512 512"><path d="M146.855 20.842c-12.534-.036-24.266 2.86-37.283 9.424h.004C61.356 54.6 19.966 120.734 17.982 175.91l41.848 14.236c4.33-61.89 47.057-128.37 101.527-155.86h.002a134 134 0 0 1 13.186-5.8l-22.262-7.45a84 84 0 0 0-5.426-.194zm59.342 20.19c-10.478-.09-22.832 3.093-36.424 9.943l.004-.004c-48.23 24.34-89.625 90.512-91.548 145.435l156.486 53.24c3.865-62.22 46.795-129.372 101.611-157.035h.002l.002-.002a134 134 0 0 1 12.832-5.666L214.623 41.906a44 44 0 0 0-8.428-.873zm174.971 58.323c-10.476-.09-22.832 3.092-36.422 9.94l-.004.002c-48.577 24.518-90.225 91.473-91.586 146.623l46.205 15.72c3.914-62.187 46.826-129.273 101.608-156.92a129 129 0 0 1 13.529-5.91l-26.545-8.884a45 45 0 0 0-6.783-.57zm63.555 22.012-.002.002c-10.267.093-22.093 3.352-35.332 10.033-47.158 23.8-87.779 87.587-91.364 141.75l174.551-73.724c-.404-39.01-10.755-61.304-24.416-71.082a36 36 0 0 0-7.549-4.139l-.01.035-4.736-1.584c-3.48-.887-7.193-1.328-11.142-1.29zM17.9 195.623l-.035 187.482 41.596 14.475V209.764zm60.25 20.496v187.963l156.282 54.37V269.286l-29.053-9.885v119.43L104.324 344.75V225.025zm414.217 3.684L318.434 293.27v189.236l173.933-73.504zm-369.351 11.582v99.947l63.675 21.477v-99.762l-63.673-21.662zm31.306 28.797c9.705 0 17.573 7.867 17.573 17.572 0 6.34-3.37 11.88-8.407 14.97v28.53h-18.69v-28.746c-4.837-3.13-8.048-8.562-8.048-14.754 0-9.705 7.867-17.572 17.572-17.572zm98.797 15.464v189.307l46.625 16.22V291.51z"/></svg>