<svg xmlns="http://www.w3.org/2000/svg" viewBox="0 0 512 512"><path d="M116.6 105c40 45.9 60.4 98.4 60.4 151s-20.4 105.1-60.4 151H192c35.1 0 82.8-34 120-71.4 18.6-18.6 34.8-37.8 46.1-53.2 5.7-7.7 10.2-14.4 13.2-19.5 1.5-2.5 2.6-4.6 3.2-6 .1-.4.2-.6.2-.9s-.1-.4-.2-.8c-.7-1.4-1.8-3.6-3.2-6.1-3-5-7.6-11.8-13.4-19.4-11.5-15.4-27.9-34.7-46.6-53.3C273.9 139 226.1 105 192 105zM16 151v18h122.2q-4.5-9.15-9.9-18zm374.5 96c.2.3.4.7.5 1 1 2.4 2 4.4 2 8s-.9 5.6-2 8c-.1.3-.3.7-.5 1H496v-18zM16 343v18h112.3q5.4-8.85 9.9-18z"/></svg>