<svg xmlns="http://www.w3.org/2000/svg" viewBox="0 0 512 512"><path d="M208 151c-28 0-60.378 17.102-90.992 37.512s-58.84 44.594-75.37 61.125L35.27 256l6.367 6.363c16.53 16.53 44.757 40.716 75.37 61.125C147.625 343.898 180 361 208 361h3.73l2.633-2.637c8.644-8.643 15.788-18.62 21.49-29.47-20.47-1.078-36.916-10.11-47.767-23.13C176.512 291.874 171 273.875 171 256s5.512-35.873 17.086-49.762c10.85-13.02 27.297-22.054 47.768-23.13-5.704-10.85-12.848-20.827-21.49-29.47L211.728 151zm32 50c-17.6 0-29.66 6.65-38.086 16.762C193.488 227.872 189 241.875 189 256s4.488 28.127 12.914 38.238C210.34 304.348 222.4 311 240 311h3.7a154 154 0 0 0 4.796-16.182c-2.5 1.36-5.324 2.182-8.496 2.182-9.282 0-15.65-6.92-19.363-14.348-3.715-7.428-5.637-16.6-5.637-26.652 0-10.053 1.922-19.224 5.637-26.652C224.35 221.918 230.717 215 240 215c3.172 0 5.995.822 8.496 2.182A153 153 0 0 0 243.7 201zm176 7v32h-96v32h96v32l48-48zm-168 16a8 16 0 0 0-8 16 8 16 0 0 0 8 16 8 16 0 0 0 8-16 8 16 0 0 0-8-16z"/></svg>