<svg xmlns="http://www.w3.org/2000/svg" viewBox="0 0 512 512"><path d="M117.059 104.691c-20.447 0-30.685 24.72-16.229 39.176 14.457 14.457 39.178 4.22 39.178-16.226 0-12.674-10.275-22.95-22.95-22.95zm38.484 13.467c6.208 25.003-12.71 49.194-38.473 49.194S72.39 143.16 78.6 118.16H61.137c-10.223.035-18.492 8.336-18.487 18.559l.002-.002v32.494a24.1 24.1 0 0 0 8.168 18.1h270.5v-50.407a7.3 7.3 0 0 0-7.146-5.978h-81.512a19.33 19.33 0 0 0-18.172-12.768zm312.812 1.682c-2.234 0-4.468 1.192-6.117 3.576l-7.896 11.475-2.65 3.379H338.01v29.292h152.914V138.22h-8.834l-7.615-14.803c-1.648-2.384-3.885-3.576-6.12-3.576zM77.754 204.02c23.19 20.206 11.09 43.812 2.807 55.412l-52.159 73.24c-14.555 20.452-5.557 49.4 10.672 63.392 18.09 15.597 51.33 13.933 71.643 1.366 21.22-13.127 4.11-31.993 32.13-67.606 8.596-10.932 31.41-42.446 51.47-71.06 6.173-8.814 18.036-3.522 43.603 6.607 6.363 1.39 14.478 1.79 18.576 2.133 19.016 0 42.087-17.688 44.219-32.424 2.173-15.016-6.757-19.387 2.828-21.992 3.328-.905 9.26-5.046 9.67-9.068h-41.027c8.512 4.59 14.144 12.518 14.144 21.49 0 14.186-13.99 25.68-31.295 25.68-17.306 0-31.293-11.474-31.293-25.68 0-8.993 5.633-16.9 14.145-21.49zm165.642.021c-2.761 11.408-4.709 29.598 5.014 36.611-3.666-9.356.211-28.062 7.785-36.611zm5.014 36.611.002.004.002-.002zM72.07 344.53c3.752-.44 7.736.69 10.883 3.836 8.39 8.39 2.448 22.74-9.42 22.74-7.357 0-13.318-5.964-13.318-13.32v-.002c0-7.417 5.603-12.519 11.855-13.254z"/></svg>