<svg xmlns="http://www.w3.org/2000/svg" viewBox="0 0 512 512"><path d="M144 23c-9.282 0-17 7.718-17 17 0 5.99 3.224 11.317 8 14.35v40.46l-15.156 7.38L91.68 228.93l76.5-12.75 15.238-91.434 48.268-77.014L153 86.047V54.35c4.776-3.033 8-8.36 8-14.35 0-9.282-7.718-17-17-17zm112 19.832L202.62 128h106.76zM416 45c-24.96 0-45 20.04-45 45s20.04 45 45 45 45-20.04 45-45-20.04-45-45-45zm-135.686 2.732 48.268 77.014 15.068 90.414 76.637 13.617-17.135-77.105C374.586 145.708 353 120.287 353 90c0-2.263.125-4.496.36-6.7zM416 71c9.282 0 17 7.718 17 17s-7.718 17-17 17-17-7.718-17-17 7.718-17 17-17zm-288 48h32v18h-32zm64 89 16 32h96l16-32zm149.879 25.129.002.002-39.461 92.066 91.148-13.35 25.967-64.92zm-171.467.926L92.51 247.039l25.922 64.807 89.494 13.11-37.514-90.9zM198.942 256l29.71 71.992L256 331.998l25.527-3.74L312.494 256H198.941zm-84.962 73.385L58.15 455H32v18h64v-18H77.85l6.543-14.72c.154-.06.285-.122.486-.18 1.41-.413 3.09-.958 5.098-1.637 4.014-1.358 9.294-3.25 15.462-5.514 12.34-4.53 28.189-10.539 43.862-16.547a8698 8698 0 0 0 46.781-18.091L247 436.5V471h-23v18h64v-18h-23v-34.5l50.918-38.19a8579 8579 0 0 0 46.78 18.094c15.674 6.008 31.524 12.017 43.86 16.545 6.17 2.263 11.45 4.156 15.465 5.514 2.007.68 3.687 1.224 5.098 1.637.202.058.332.12.486.18L434.15 455H416v18h64v-18h-26.15l-55.83-125.613-18.493 2.71 38.096 85.717c-1.6-.578-3.096-1.116-4.86-1.763-12.183-4.47-27.99-10.461-43.622-16.453a9258 9258 0 0 1-39.287-15.176l24.302-48.61-21.715 3.18L314.44 375H265v-26.13l-9 1.32-9-1.32V375h-49.437l-18.004-36.008-21.717-3.18 24.303 48.608a9021 9021 0 0 1-39.288 15.176c-15.633 5.992-31.439 11.983-43.62 16.455-1.765.648-3.26 1.185-4.86 1.763l38.094-85.718zM219 393h28v21zm46 0h28l-28 21z"/></svg>