<svg xmlns="http://www.w3.org/2000/svg" viewBox="0 0 512 512"><path d="m313.203 25.94-.133 24.67-18.12 16.744 24.67.13 16.743 18.121.133-24.67 18.12-16.744-24.67-.13zm91.58 50.12-19.312 15.35-24.4-3.639 15.349 19.315-3.637 24.398 19.313-15.35 24.4 3.637-15.35-19.31zM39.87 80.206l-7.115 16.27 7.637 3.34 256 112 8.248 3.607-.102.226.611.266 7.213-16.492-8.242-3.608-44.113-19.296a102.607 43.83 0 0 1 52.088-6.131A102.607 43.83 0 0 1 414.7 214.222a102.607 43.83 0 0 1-102.607 43.83 102.607 43.83 0 0 1-102.608-43.83 102.607 43.83 0 0 1 8.262-17.162l-32.814-14.36c-12.552 5.49-22.514 11.711-29.192 17.961-7.646 7.16-10.803 13.783-10.803 20.135s3.157 12.975 10.803 20.133 19.597 14.273 34.81 20.299c30.43 12.047 73.71 19.836 121.542 19.836s91.11-7.788 121.54-19.836c15.216-6.025 27.164-13.141 34.81-20.301 7.646-7.157 10.804-13.78 10.804-20.131s-3.157-12.977-10.803-20.135c-7.646-7.16-19.596-14.274-34.81-20.299-30.43-12.048-73.71-19.836-121.54-19.836-26.421 0-51.44 2.386-73.683 6.543L48.117 83.812l-8.246-3.607zm204.904 4.31.077 16.71-12.16 11.459 16.708-.077 11.46 12.16-.075-16.706L272.94 96.6l-16.705.076zM215.94 286.593c-.147 15.018-.439 29.74-1.037 44.308 67.544 29.705 126.598 29.747 194.383.114-.6-14.603-.894-29.364-1.043-44.42-27.33 7.925-60.396 12.467-96.15 12.467-35.756 0-68.82-4.54-96.15-12.467zm-2.003 63.467a753 753 0 0 1-2.13 26.877l.555.25c69.454 31.175 129.757 31.177 199.487-.006l.535-.239a750 750 0 0 1-2.127-26.785c-66.975 27.646-129.55 27.618-196.318-.095zm200.552 45.595c-70.003 30.062-135.025 30.067-204.793.002-2.287 17.913-5.385 35.95-9.603 54.403 0 48 224 48 224 0-4.218-18.455-7.316-36.49-9.604-54.405z"/></svg>