<svg xmlns="http://www.w3.org/2000/svg" viewBox="0 0 512 512"><path d="M247.787 18.734C137.965 17.597 19.874 96.94 19.73 244.53l21.403-51.394c-9.485 72.28-7.75 147.236 38.79 202.502L38.2 377.355c39.24 69.774 126.334 90.976 200.856 92.51C124.11 429.9 67.87 342.277 63.912 246.492 57.19 34.712 324.57 28.8 404.692 170.722c-3.418-19.491-8.623-38.427-15.618-56.11 77.406 89.154 59.292 214.875-21.29 253.036-24.25 3.95-48.93 12.06-60.954 19-58.548 33.802-6.27 126.536 53.225 92.188 9.44-5.45 23.404-17.303 36.494-31.352 64.36-59.52 98.1-118.24 93.107-188.94-6.52 29.1-19.175 57.904-35.623 84.683 63.158-146.822 7.956-263.89-144.838-301.354 12.097 5.835 23.503 13.63 33.873 23.36-57.415-23.753-131.122-22.62-186.882 3.505 28.066-26.2 64.775-43.73 102.199-49.642q-5.282-.307-10.596-.362zm-19.736 160.202-19.844 100.566c-2.958 3.81-5.64 6.851-9.033 9.94l-25.688-49.096-22.705 11.93 31.37 60.945c4.48 11.474 10.02 20.68 15.161 28.523 28.063 42.803 64.547 35.254 95.303 9.557l87.281-48.453-12.71-22.498-66.135 36.94c-1.517-3.155-3.267-6.553-5.057-9.51l67.818-64.96-17.54-18.695-66.47 63.762c-2.355-2.318-4.238-4.526-6.765-6.54l45.084-78.085-22.732-13.127-45.866 78.297c-3.79-1.31-7.718-2.2-11.593-2.745l15.656-81.896-25.533-4.853z"/></svg>