<svg xmlns="http://www.w3.org/2000/svg" viewBox="0 0 512 512"><path d="m88.418 17.17-66.12 475.242h18.866l66.12-475.242H88.417zm315.7 0 66.023 475.242h18.87L422.989 17.17zm-56.26.238-.006.002h.005zm-.006.002-132.416.37c-59.343 41.505-78.325 97.983-61.596 168.03-22.324-31.34-32.747-63.248-33.59-98.234l-26.684 191.78c1.05-3.64 2.25-7.31 3.653-11.012l-3.842 12.385-4.936 35.455c.41 37.954 18.615 69.416 40.91 87.406-18.52-6.774-35.354-15.287-49.25-27.445l-9.206 66.152c43.031 20.635 88.614 24.345 120.56 17.78-33.542 18.812-71.345 29.428-125.383 16.886l-2.129 15.299h217.569c73.664-14.515 117.318-55.616 129.045-89.215 3.54 30.568-2.756 60.093-37.475 89.215h73.242L404.771 193.15c-15.226-35.307-51.106-59.12-74.695-59.716 10.876-3.615 21.617-5.92 32.307-5.782 11.61.15 23.16 3.2 34.76 10.56l-4.207-30.276c-21.365-18.958-46.472-31.025-68.92-35.956 6.54-.477 13.041-.728 19.511-.683 15.23.104 30.273 1.867 45.18 6.209l-4.223-30.399c-52.684-2.003-96.672 13.276-121.045 32.3 13.68-23.55 44.531-47.679 84.413-61.997zm-81.325 33.07c-68.777 37.084-71.86 82.258-36.091 122.142-7.626-69.52 80.939-110.015 118.959-59.031-40.867-20.17-77.79 7.84-76.21 47.723 23.235-23.997 98.678-13.268 79.795 36.189-11.3-33.297-56.74-30.094-63.648-13.77-14.75 34.866 64.34 14.582 98.117 66.284-18.85-10.875-47.74.481-39.22 14.59 32.28 53.45 84.53 113.185 13.3 147.025 23.57-38.677 10.787-65.734-21.85-81.43 25.645 66.744-5.1 163.717-103.81 133.19 62.83-11.442 78.356-62.575 57.264-83.424-23.617 60.37-122.142 97.174-181.445 38.453 58.692 22.535 99.285 7.31 120.644-26.39-35.89 21.434-95.375 6.933-113.994-42.977 28.694 29.187 67.102 37.962 91.195 20.355 13.217-9.658 8.302-25.06-8.55-29.402-24.53-6.32-61.988-12.852-76.563-36.588 21.722 6.003 43.444 10.698 65.166-3.375-33.985-22.07-81.546-50.75-50.348-100.277 1.008 35.15 17.23 56.557 53.198 48.254 9.285-2.142 16.798-15.473 8.548-23.374-61.137-58.538-47.58-160.403 65.543-174.167z"/></svg>