<svg xmlns="http://www.w3.org/2000/svg" viewBox="0 0 512 512"><path d="M245.813 23.188a61 61 0 0 0-3.657.093c-10.103.56-19.646 3.682-30.156 11.25l20.72 196.782c-8.393 2.127-16.676 4.47-24.814 7.093L137.721 57.813c-7.032-1.706-17.443-.301-27.127 4.624C100.346 67.65 91.56 76.279 87.78 85.376L155.03 261.5c-7.414 4.345-14.59 9.138-21.5 14.47l-74.341-94.25c-16.34.699-34.966 14.455-37.563 32.655 7.265 8.318 72.353 83.394 104.375 143.03 10.3 19.183 29.543 50.725 39.188 70.064 5.83 11.693 16.004 24.238 27.843 32.342 11.84 8.104 24.7 11.82 37.906 8.283l112.909-30.221c5.493-1.47 9.194-5.39 13.218-11.937 4.02-6.545 7.537-15.137 12.907-23 20.61-30.185 50.431-76.086 115.185-112.063-2.696-15.053-7.405-24.57-12.72-29.562-6.03-5.667-13.198-7.371-23.686-5.842-18.062 2.63-43.498 17.062-69.594 36.873a231 231 0 0 0-4.937 4.22l-7-61.251 42.5-155.72c-4.478-7.354-13.807-13.258-24.846-15.97-10.874-2.67-22.505-1.697-30.28 1.596l-38.75 149.875a4053 4053 0 0 0-28.064 4.81L273.69 27.5c-10.057-2.52-19.284-4.271-27.875-4.312zM234.343 255l30.157 56.625 54.406-33.906-33.779 54.185L341.562 362l-64.158-2.187 2.19 64.03-30.031-56.343-54.284 33.813 33.971-54.438-56.53-30.125 63.78 2.156z"/></svg>