<svg xmlns="http://www.w3.org/2000/svg" viewBox="0 0 512 512"><path d="M333.78 20.188c-39.97 0-79.96 15.212-110.405 45.656-58.667 58.667-60.796 152.72-6.406 213.97l-15.781 15.748 13.25 13.25 15.75-15.78c61.247 54.39 155.298 52.26 213.966-6.407 60.887-60.886 60.888-159.893 0-220.78-30.442-30.444-70.402-45.657-110.375-45.657zm0 18.562c35.15 0 70.285 13.44 97.158 40.313 53.744 53.744 53.743 140.6 0 194.343-51.526 51.526-133.46 53.643-187.5 6.375l.218-.217c-2.35-2.05-4.668-4.17-6.906-6.408-2.207-2.206-4.287-4.494-6.312-6.81l-.22.218c-47.27-54.04-45.15-135.976 6.376-187.502 26.874-26.872 62.035-40.312 97.185-40.312zm0 18.813c-30.31 0-60.63 11.6-83.81 34.78-46.361 46.363-46.361 121.235 0 167.594 10.14 10.142 21.632 18.077 33.905 23.782-24.91-19.087-40.97-49.133-40.97-82.94 0-15.323 3.292-29.888 9.22-43-4.165 20.485.44 40.88 14.47 54.907 24.584 24.585 68.744 20.317 98.624-9.563s34.146-74.04 9.56-98.625a52.4 52.4 0 0 0-7.656-6.312c45.13 8.648 79.954 46.346 84.25 92.877 4.44-35.07-6.82-71.727-33.812-98.721-23.18-23.18-53.47-34.78-83.78-34.78zM176.905 297.688 42.094 432.5l34.562 34.563L211.471 332.25zM40 456.813l-16 15.966L37.22 486l15.968-16z"/></svg>