<svg xmlns="http://www.w3.org/2000/svg" viewBox="0 0 512 512"><path d="M168.06 172.176c-67.24 0-121.943 54.7-121.943 121.94s54.704 121.943 121.944 121.943c30.25 0 57.96-11.081 79.298-29.387a120.6 120.6 0 0 1-5.32-19.485c-18.83 19.065-44.993 30.87-73.978 30.87-22.815 0-43.88-7.311-61-19.715 27.834 4.814 73.39 10.318 98.644.478 11.155-4.346 23.33-14.316 34.578-25.619a123 123 0 0 1-.285-8.264c0-16.364 3.25-31.982 9.123-46.255-21.226 20.275-49.207 43.894-71.65 51.906-26.097 9.316-76.968 3.676-96.026 1.09a103.4 103.4 0 0 1-16.591-45.182c17.334-3.294 53.806-10.014 74.97-12.38 28.105-3.144 60.837 10.416 84.705-4.75 14.41-9.16 25.483-38.016 30.31-52.555a103.5 103.5 0 0 1 13.544 30.015 123 123 0 0 1 14.258-14.44c-17.077-46.75-61.994-80.21-114.58-80.21zm0 18c23.779 0 45.656 7.943 63.147 21.318-4.465 16.817-14.462 46.985-30.303 54.39-24.788 11.589-53.316-25.293-79.904-18.825-23.882 5.807-40.094 27.905-56.88 46.828.121-57.405 46.506-103.711 103.94-103.711zM361.94 241c-7.228 0-14.278.737-21.085 2.13a979 979 0 0 1 4.88 35.89c3.144 26.965 5.8 59.058 3.076 82.04-1.855 15.657-8.528 35.703-14.694 52.483a644 644 0 0 1-10.996 27.873c11.99 4.814 25.09 7.467 38.82 7.467 6.415 0 12.69-.58 18.778-1.686 4.906-16.186 14.49-50.886 13.226-71.197-1.047-16.833-19.873-31.586-16-48 5.268-22.31 39.43-47.627 55.56-58.52-18.62-17.66-43.798-28.48-71.56-28.48zm-38.495 7.334a103 103 0 0 0-16.123 8.11c.75 17.961 2.2 61.956-.424 88.443-2.483 25.083-12.449 66.07-15.12 76.814 4.703 4.3 9.807 8.173 15.245 11.557a625 625 0 0 0 10.2-25.92c5.975-16.26 12.268-36.214 13.713-48.399 2.313-19.514.001-51.42-3.08-77.834a974 974 0 0 0-4.41-32.77zm-33.71 21.77C270.156 288.994 258 315.514 258 344.939c0 22.48 7.092 43.265 19.166 60.247 4.123-17.823 10.2-45.726 11.818-62.073 1.874-18.918 1.378-51.442.752-73.01zm162.052 22.462c-6.606 14.014-16.406 36.63-18.34 51.434-2.54 19.446 3.155 53.058 6.41 69.813 16.2-18.325 26.026-42.423 26.026-68.872 0-19.114-5.135-37.005-14.096-52.375z"/></svg>