<svg xmlns="http://www.w3.org/2000/svg" viewBox="0 0 512 512"><path d="M310.865 16.785v.004l.002-.004zm0 .004-51.974 84.682-51.977-58.403 2.188 102.407 19.962-46.123 22.135 71.677 23.192-28.459 3.16 60.08 80.107-64.298-48.486 91.705 47.433 21.08-38.93 15.894 69.548 110.655-80.776-52.301 5.45 36.506-44.467-49.446-30.987 73.61-12.482-85.963-41.274 26.937 1.053-46.379-83.27 6.325 82.22-40.055-88.544-29.514 43.774-19.896-117.315 11.42 89.942 43.799-79.428 55.48 95.78 4.676-34.461 57.23 57.82-26.861L131 453.262l77.66-93.657 18.69 129.067 33.287-100.45 93.285 84.055-23.957-83.273 136.207 68.642-78.377-138.935 81.11 9.826-75.325-68.94 80.225-31.98-94.026-21.023 43.8-50.227-61.32 16.938 43.803-112.131-98.7 85.85zm-292.01 1.746-.001.002v42.535c38.126 46.536 115.7 118.404 184.445 166.92-2.49 15.173 4.22 33.953 18.918 48.65 21.02 21.02 50.402 25.723 65.623 10.503 15.222-15.223 10.518-44.604-10.504-65.625-13.795-13.795-31.19-20.562-45.82-19.284-49.03-67.528-121.706-143.93-172.711-183.7z"/></svg>