<svg xmlns="http://www.w3.org/2000/svg" viewBox="0 0 512 512"><path d="M117.75 29.5v42h16.666v-42zm-2.283 62-33.885 88h89l-33.883-88zm261.283 6.168v16.664h53.666V97.668zM385.082 135v19l37 111V135zm-212.5 3 11 27.5-.924 66.096L206.582 157h90.5v-19zm49 33.5-50 153h251l-50-153zm-140 26.668v16.664h89v-16.664zM250.332 236l18 20v42h-36v-42zm93.5 0 18 20v42h-36v-42zM90.447 246.5v236h17.635v-100h36v100h17.637V350h-17.035l17.035-53.117V246.5zm35.635 16.5c9.934 0 18 8.066 18 18s-8.066 18-18 18-18-8.066-18-18 8.066-18 18-18zm52.5 86.5v133h16.668v-133zm34.848 0 75.32 106.74V349.5zm91.986 0v106.66l74.98-106.66zm93.5 0v133h16.666v-133zm-16.666 26.344L307.27 482.5h74.98zm-170.334.42V482.5h74.969z"/></svg>