<svg xmlns="http://www.w3.org/2000/svg" viewBox="0 0 512 512"><path d="m169.498 38.969.002.002-2.406 9-4.313 16.092-34.935-9.344-3.375 12.529-26.75-7.154-4.846 18.029 26.78 7.19-2.874 10.656 34.94 9.342-12.25 45.718-34.94-9.343-3.31 12.283-26.75-7.158-4.844 18.062 26.75 7.156-2.906 10.907 34.935 9.343-12.53 46.692-34.907-9.346L78 240.75l-26.78-7.187-4.845 18.03 26.78 7.188-3.25 12.096 34.908 9.344-12 44.75-34.907-9.346-2.875 10.75-26.779-7.187-4.814 18.03 26.75 7.155-3.342 12.531 34.906 9.344-4.47 16.69-2.405 9.029 9.03 2.406 254.845 68.281 9.03 2.409 2.407-9.034 4.467-16.654 34.815 9.313 3.341-12.5 27.032 7.25 4.844-18.032-27.032-7.25 2.875-10.75-34.81-9.312 12-44.75 34.81 9.312 3.25-12.094 27.033 7.25 4.813-18.03-27.031-7.25 3-11.157-34.815-9.312 12.5-46.657 34.815 9.313L439 263.844l27.03 7.25 4.845-18.065-27.03-7.25 3.28-12.308-34.78-9.315 12.25-45.72 34.78 9.314 2.844-10.625 27.06 7.25 4.844-18.062-27.062-7.25 3.375-12.594-34.78-9.315 4.313-16.06 2.435-9.031-9.031-2.44-254.844-68.25zm13.19 22.875 236.841 63.435-84.965 316.91L97.75 378.75zm192.591 70.935L305.5 393.221l-175.312-47-4.844 18.058 184.377 49.41 9 2.407 2.435-9.03 72.188-269.44-18.063-4.843z"/></svg>