<svg xmlns="http://www.w3.org/2000/svg" viewBox="0 0 512 512"><path d="m270.953 17.215-49.748 84.224-56.092-59.88 1.748 89.091-92.369-40.109 36.356 90.621-82.7 16.807 59.42 67.453-69.435 73.39 88.12 10.178 26.579-26.578a133 133 0 0 1-2.42-6.195l-22.756 6.385-5.05-17.993 22.757-6.384a133 133 0 0 1-2.27-15.873l-23.644.279-.219-18.69 23.643-.279c.315-5.398.954-10.712 1.898-15.922l-22.904-5.847 4.623-18.108 22.905 5.848a132 132 0 0 1 5.98-14.875l-20.63-11.588 9.153-16.293 20.653 11.6a134 134 0 0 1 9.613-12.813l-16.959-16.562 13.06-13.37 16.96 16.563a134 134 0 0 1 12.58-9.914l-12.084-20.373 16.072-9.535 12.072 20.35a132 132 0 0 1 14.733-6.327l-6.391-22.766 17.99-5.048 6.39 22.763a132 132 0 0 1 15.87-2.273l-.277-23.65 18.687-.223.28 23.652c5.397.313 10.71.953 15.92 1.897l5.851-22.91 18.107 4.623-5.85 22.91a132 132 0 0 1 14.876 5.974l11.588-20.632 16.295 9.154-11.6 20.652a134 134 0 0 1 12.812 9.615l16.561-16.96 13.371 13.058-16.56 16.961a134 134 0 0 1 9.916 12.578l20.369-12.084 9.537 16.074-20.35 12.07a132 132 0 0 1 6.33 14.731l22.758-6.389 5.05 17.995-22.757 6.388a133 133 0 0 1 2.275 15.87l23.64-.278.22 18.688-23.64.28c-.31 5.399-.95 10.712-1.893 15.923l22.894 5.845-4.623 18.11-22.892-5.848a132 132 0 0 1-5.979 14.881l20.617 11.58-9.15 16.295-20.639-11.594a134 134 0 0 1-9.615 12.819l16.945 16.548-13.054 13.371-16.952-16.55a134 134 0 0 1-12.584 9.92l12.079 20.357-16.075 9.535-12.064-20.338a132 132 0 0 1-14.735 6.328l6.385 22.75-17.994 5.051-6.385-22.75a132 132 0 0 1-15.873 2.276l.282 23.632-18.688.221-.28-23.635a132 132 0 0 1-15.921-1.896l-5.848 22.89-18.105-4.623 5.845-22.892a132 132 0 0 1-7.636-2.81l-26.326 26.214 7.148 73.713 67.797-55.732 49.457 43.486 21.119-53.87 90.09 46.07-38.16-96.155 92.101 27.826-36.908-79.496 61.516-6.506-60.832-51.39 57.994-45.053-73.291-15.66 59.094-70.504-91.66 18L406.02 47.85l-98.926 63.05zM254.016 157.43c-63.085.747-113.42 52.288-112.672 115.37.145 12.3 2.23 24.108 5.947 35.153l16.783-16.783c-6.17-30.05 2.24-62.392 25.697-85.852 19.075-19.073 44.027-28.157 68.917-27.447l.003-.01c14.933.424 29.784 4.308 43.215 11.68l-60.152 60.152c-10.613 10.615-11.292 27.843-1.168 37.963 10.122 10.133 27.349 9.455 37.959-1.158l60.154-60.152c19.66 35.818 14.75 81.609-15.77 112.129-23.46 23.47-55.676 31.4-85.85 25.115l-16.558 16.486c11.394 3.64 23.563 5.546 36.196 5.397 63.084-.746 113.42-52.289 112.674-115.37-.748-63.083-52.294-113.42-115.375-112.671z"/></svg>