<svg xmlns="http://www.w3.org/2000/svg" viewBox="0 0 512 512"><path d="M267.156 36.313a251 251 0 0 0-5.875.03C144.208 38.332 40.5 128.29 40.5 264.25c0 58.373 30.546 121.353 66.406 164.875 17.93 21.76 37.206 38.664 55.97 47.25 9.38 4.293 18.75 6.588 27.843 5.656 9.09-.93 17.84-5.443 24.469-13.342 4.834-5.763 6.08-13.301 5.779-20.562 32.327 3.188 62.82 4.28 92.377-11.94-.083 2.837-.082 5.608.06 8.284.48 8.97 2.35 17.88 8.657 24.123 6.002 5.94 14.112 8.044 21.812 7.156s15.34-4.276 23.22-9.28c15.757-10.01 32.403-26.823 48.061-47.783 31.32-41.92 58.75-100.318 58.75-155.187a8.977 10.055 0 0 0-.06-1.03c-.22-67.033-21.419-124.35-58.721-164.376-36.325-38.978-87.583-61.39-147.969-61.78zm-.094 20.124c56.49.35 102.899 21.04 135.626 56.157 33.783 36.25 53.28 88.126 53.28 150.906 0 47.108-25.29 103.096-54.564 142.28-14.637 19.592-30.28 35.01-43.156 43.19-6.438 4.089-12.117 6.307-16.219 6.78-4.1.473-6.212-.358-8.091-2.22-.858-.847-2.284-3.85-2.625-10.25s.374-15.346 1.685-25.5c2.622-20.307 7.526-45.53 8.815-70.06 1.288-24.532-.829-49.328-14.875-67.314-14.048-17.986-38.617-26.049-75.815-20.779-37.107 5.254-59.41 19.056-70.094 39.217s-8.676 43.836-3.373 65.906 14.155 43.6 19.844 60.844c2.844 8.62 4.873 16.186 5.438 21.47.564 5.28-.22 7.16-.844 7.905-3.747 4.465-7.715 6.457-13 7-5.286.54-11.952-.732-19.438-4.158-14.97-6.85-32.855-22.075-49.53-42.313-33.349-40.476-61.69-101.01-61.69-151.25.002-124.566 93.983-205.93 203.127-207.78q2.766-.048 5.5-.03zm-88.53 101.844a50.5 50.5 0 0 0-51.97 50.47 50.5 50.5 0 0 0 101 0 50.5 50.5 0 0 0-49.03-50.47zm137.656 15.248v.002A40.5 40.5 0 0 0 274.5 214a40.5 40.5 0 0 0 81 0 40.5 40.5 0 0 0-39.312-40.47zm-140.25 28.973a7.5 7 0 0 1 .03 0 7.5 7 0 0 1 .75 0 7.5 7 0 0 1 7.28 7 7.5 7 0 0 1-15 0 7.5 7 0 0 1 6.94-7zm138 6.5a7.5 7 0 0 1 .03 0 7.5 7 0 0 1 .75 0 7.5 7 0 0 1 7.28 7 7.5 7 0 0 1-15 0 7.5 7 0 0 1 6.94-7zm-11.5 121.875a8 8 0 0 1 7.906 6.625c1.052 5.487 1.68 11.096 1.97 16.812a124 124 0 0 0 11.436-5.783c-.38 6.21-1.034 12.58-1.812 19a148 148 0 0 1-9.657 4.192c-.33 7.15-1.005 14.405-1.842 21.685a8 8 0 1 1-15.875-1.812c.563-4.9 1.006-9.737 1.342-14.469-4.75 1.29-9.546 2.339-14.375 3.219.3 6.316.588 12.485 1.283 18.343a8 8 0 1 1-15.875 1.875c-.722-6.084-1.1-12.11-1.437-18-4.46.422-8.925.717-13.375.844.825 5.085 1.7 10.175 2.625 15.28a8.005 8.005 0 0 1-15.75 2.876 826 826 0 0 1-3.125-18.312 224 224 0 0 1-13.75-1.063c1 5.755 2.099 11.5 3.22 17.282a8 8 0 1 1-15.69 3.06c-1.453-7.498-2.893-15.079-4.155-22.779-1.676-.308-3.32-.657-4.97-1-1.916-5.898-3.673-11.785-5.124-17.596 2.532.628 5.1 1.21 7.72 1.75-.835-7.236-1.428-14.618-1.626-22.185a8 8 0 0 1 7.656-8.315 8 8 0 0 1 8.344 7.875c.224 8.57 1.004 16.978 2.094 25.315 4.592.57 9.254 1.007 13.97 1.279-.916-7.417-1.643-14.89-2.064-22.437a8 8 0 0 1 8.22-8.561 8 8 0 0 1 7.78 7.687c.44 7.88 1.237 15.754 2.25 23.625 4.877-.1 9.782-.373 14.656-.843-.677-7.627-1.736-14.791-3.97-21.221a8 8 0 0 1 7.126-10.719 8 8 0 0 1 8 5.471c2.773 7.98 4.12 16.12 4.907 24.187a158 158 0 0 0 16-3.937c-.1-6.915-.64-13.506-1.815-19.625a8 8 0 0 1 7.781-9.625z"/></svg>