<svg xmlns="http://www.w3.org/2000/svg" viewBox="0 0 512 512"><path d="M256 21c-66.72 0-121 54.28-121 121s54.28 121 121 121 121-54.28 121-121S322.72 21 256 21zm0 18c56.992 0 103 46.008 103 103s-46.008 103-103 103-103-46.008-103-103S199.008 39 256 39zm0 11.75-69.4 52.05 10.8 14.4L256 73.25l58.6 43.95 10.8-14.4zm0 48-69.4 52.05 10.8 14.4 58.6-43.95 58.6 43.95 10.8-14.4zm0 48-69.4 52.05 10.8 14.4 58.6-43.95 58.6 43.95 10.8-14.4zM53.563 185l-7 14h66.875l-7-14zm352 0-7 14h66.875l-7-14zM41 217v46h78v-46zm352 0v46h78v-46zM64 231h32v18H64zm352 0h32v18h-32zM38.486 281l-10 30h455.028l-10-30zM25 329v158h199v-87h64v87h199V329zm55 14h32v18H80zm80 0h32v18h-32zm80 0h32v18h-32zm80 0h32v18h-32zm80 0h32v18h-32z"/></svg>