<svg xmlns="http://www.w3.org/2000/svg" viewBox="0 0 512 512"><path d="M23.387 142.898V274.27h242.69V142.898zm258.959 1.397c-.156 48.746-.1 96.793-.1 145.914h-102.69a53.33 53.33 0 0 1 21.62 30.86v29.736h196.351v-32.707c3.503-10.956 18.466-26.48 27.844-33.139h50.348v-41.148h-110.39v-28.295h-7.17v37.103h-52v-51.44c.077-1.438.034-3.089.034-4.597h60.092v-21.248h-24.45zm-186.733 11.72h.002c26.848 0 48.807 21.958 48.807 48.807s-21.96 48.807-48.809 48.807-48.802-21.958-48.802-48.807 21.953-48.806 48.802-48.806zm-8.265 13.854v25.486h-25.49v17.198h25.49v25.488h17.195v-25.488h25.486v-17.198h-25.486V169.87zm-47.83 120.37c.156 14.385.103 4.07.505 32.359H97.97l4-11.819a53.36 53.36 0 0 1 17.726-20.54zm109.93 4.161c-21.986 0-40 18.016-40 40s18.014 40 40 40c21.984 0 40-18.015 40-40s-18.016-40-40-40zm299.165.262c-21.985 0-40 18.015-40 40 0 10.15 3.848 19.448 10.145 26.524 7.343 8.25 18.02 13.476 29.855 13.476 21.985 0 40-18.015 40-40s-18.015-40-40-40zM149.447 312.4c12.257 0 22 9.744 22 22s-9.743 22-22 22-22-9.743-22-22 9.743-22 22-22zm299.166.262c12.257 0 22 9.743 22 22s-9.743 22-22 22-22-9.743-22-22 9.743-22 22-22zm-298.976 8.656c-11.45 0-17.182 13.84-9.088 21.936s21.934 2.365 21.935-9.084c-.006-7.093-5.756-12.84-12.85-12.84zm298.406.014c-10.766-.003-17.007 13.839-8.912 21.934 8.095 8.094 21.934 2.363 21.933-9.086 0-7.093-3.745-12.845-13.021-12.848z"/></svg>