<svg xmlns="http://www.w3.org/2000/svg" viewBox="0 0 512 512"><path d="M401.89 24.785c-20.326-.814-40.033 6.725-57.093 19.625-24.845 18.785-45.256 48.746-59.137 86.725 9.75 11.124 18.96 21.278 28.078 30.926 12.097-42.184 32.322-73.475 52.768-88.934 11.93-9.02 23.337-12.796 33.945-12.371 10.61.424 21.386 4.8 32.983 16.396s15.972 22.374 16.396 32.983-3.35 22.014-12.37 33.945c-15.459 20.446-46.752 40.67-88.937 52.768 9.65 9.12 19.804 18.328 30.928 28.078 37.98-13.882 67.94-34.292 86.725-59.137 12.9-17.06 20.439-36.766 19.625-57.094-.813-20.327-10.224-40.31-26.912-56.998s-36.67-26.1-56.998-26.912zM207.933 66.48l-42.56 42.56C280 203.027 307.557 230.583 401.546 345.212l42.558-42.559C329.475 208.664 301.921 181.11 207.932 66.48zm54.181 149.465L150.105 327.951c.976 7.424 4.937 15.285 11.09 21.438 6.154 6.154 14.015 10.115 21.438 11.09L294.64 248.473a869 869 0 0 0-16.04-16.489h-.001a869 869 0 0 0-16.487-16.039zM141.37 353.658 26.141 468.891l15.554 15.556L156.93 369.215a63 63 0 0 1-8.461-7.098 63 63 0 0 1-7.098-8.459zm-31.793 88.362-32.525 32.527 12.726 12.728 32.528-32.527z"/></svg>