<svg xmlns="http://www.w3.org/2000/svg" viewBox="0 0 512 512"><path d="M61 36v211h386V36zm186.363 27.371A59.58 59.58 0 0 1 307.44 150l30.32-15.43 7.24 14.27-46 23.35v25.14l44.21 20.11-6.63 14.56-52.76-24h-55.37l-49.95 25.36-7.24-14.27L210 199.43v-25L165.07 154l6.63-14.57 32.75 14.9a61.1 61.1 0 0 1-9.45-31.91 59.58 59.58 0 0 1 52.363-59.049zm14.354 15.87A43.59 43.59 0 0 0 224 91.538a43.88 43.88 0 0 0-.17 61.762l2.17 2.34V192h57v-36.36l2.55-2.31-.01-.04a43.59 43.59 0 0 0-23.823-74.05zm-22.928 50.618a11.12 11.12 0 0 1 0 22.24v-.038a11.12 11.12 0 0 1-11.12-11.08 11.12 11.12 0 0 1 11.12-11.122zm31.83 0a11.12 11.12 0 0 1 11.121 11.121l.02-.04a11.12 11.12 0 0 1-11.14 11.16 11.12 11.12 0 1 1 0-22.24zm-15.76 22.032 9.93 17.148L245 169zM239 263v213h43V263zm97.67 31.83c-11.32 0-20.5 1.43-20.5 3.2s9.18 3.2 20.5 3.2 20.5-1.43 20.5-3.2-9.17-3.2-20.5-3.2zm-280.22.42c-11.32 0-20.5 1.34-20.5 3s9.18 3 20.5 3 20.5-1.34 20.5-3-9.18-3-20.5-3zM446.55 332c-16.29 0-29.5 2.19-29.5 4.89s13.21 4.89 29.5 4.89 29.5-2.19 29.5-4.89-13.21-4.89-29.5-4.89zm-291.37 52.75c-24.85 0-45 3.81-45 8.5s20.15 8.5 45 8.5 45-3.81 45-8.5-20.18-8.5-45-8.5zm244.18 32.49c-39.76 0-72 7.81-72 17.45s32.24 17.45 72 17.45 72-7.81 72-17.45-32.23-17.45-72-17.45z"/></svg>