<svg xmlns="http://www.w3.org/2000/svg" viewBox="0 0 512 512"><path d="M256 24c-21.2 0-40.4 3.53-53.6 8.8-6.6 2.64-11.6 5.73-14.6 8.56S184 46.28 184 48s.8 3.81 3.8 6.64 8 5.92 14.6 8.56c13.2 5.27 32.4 8.8 53.6 8.8s40.4-3.53 53.6-8.8c6.6-2.64 11.6-5.73 14.6-8.56S328 49.72 328 48s-.8-3.81-3.8-6.64-8-5.92-14.6-8.56C296.4 27.53 277.2 24 256 24zm-72 47.79V96c0 3.78 1.3 6.8 4.6 10.2 3.3 3.3 8.6 6.7 15.4 9.4 11.6 4.6 27.5 7.5 44 8.2V87.85c-19.8-.74-37.6-4.22-51.5-9.8-4.6-1.84-8.8-3.9-12.5-6.26zm144 0c-3.7 2.36-7.9 4.42-12.5 6.26-13.9 5.58-31.7 9.06-51.5 9.8v35.95c16.5-.7 32.4-3.6 44-8.2 6.8-2.7 12.1-6.1 15.4-9.4 3.3-3.4 4.6-6.42 4.6-10.2zm-160 8.77c-7.5 1.5-14.9 3.21-21.9 5.15-17.4 4.85-32.7 11.18-42.9 18.49-8.13 5.9-12.93 11.9-14.53 18.5C167.1 151.1 209.2 166 248 167.8v-28c-18-.6-35.6-3.6-50-9.4-8.2-3.3-15.4-7.4-20.9-13.1-5.4-5.6-9.1-13.1-9.1-21.3zm176 0V96c0 8.2-3.7 15.7-9.1 21.3-5.5 5.7-12.7 9.8-20.9 13.1-14.4 5.8-32 8.8-50 9.4v28c38.8-1.8 80.9-16.7 159.2-45.1-1.6-6.7-6.3-12.6-14.4-18.5-10.2-7.31-25.5-13.64-42.9-18.49-7-1.94-14.4-3.65-21.9-5.15zM84.07 138c-10.1 21.8-11.7 34.4-12 46.3 28.63 1.7 46.43 12 75.53 26.5l6.2 3.1c45.2 9.6 70.9 15.1 94.2 16.2v-46.3c-42-1.7-85.9-17.4-163.93-45.8zm343.73 0C349.9 166.4 306 182.1 264 183.8v46.4c23.3-.9 49-6.3 94.2-16.2v-.1l6.2-3.1c29.1-14.5 46.9-24.8 75.4-26.5-.2-11.9-1.8-24.5-12-46.3zM69.37 200.1c-4 9.5-7.5 16.7-8.2 38.6 6.7 3.5 15.8 7.1 26.6 10.6 11.4 3.6 24.63 7.1 38.93 10.5 2.1-14.4 4.7-27.2 7.7-37.7-25.9-13.1-40.33-21-65.03-22zm373.23 0c-24.8 1-39.1 8.9-65 22 3 10.5 5.6 23.3 7.7 37.7 14.3-3.4 27.5-6.9 38.8-10.5 10.8-3.5 20-7.1 26.7-10.5-.8-22-4.3-29.2-8.2-38.7zM149 229.2c-3.4 13.1-6.2 30.2-8.3 50.1 45.7 12.8 77.1 19.7 107.3 20.8v-54.4c-25.2-1.1-52.5-6.7-99-16.5zm214 .1c-46.5 10.2-73.8 15.6-99 16.5v54.3c30.2-1.1 61.6-8 107.3-20.8-2.1-19.8-4.9-37-8.3-50zM57.07 254.7c-4.9 14.6-10 26.2-11.4 49.2 19.7 11.8 46.5 16.8 75.43 20.1.6-17.1 1.9-33.3 3.5-48.3-15.1-3.6-29.23-7.3-41.63-11.2-9.8-3.1-18.5-6.3-25.9-9.8zm397.73 0c-7.3 3.5-16 6.7-25.8 9.8-12.4 3.9-26.5 7.6-41.6 11.2 1.6 15 2.9 31.2 3.5 48.3 28.9-3.3 55.6-8.3 75.3-20.1-1.4-23-6.5-34.6-11.4-49.2zm-315.6 40.8c-1.2 15.1-2 31.5-2.2 48.5 53.8 13.4 83.6 20.8 111 22v-50.4c-31.4-.9-63.8-7.7-108.8-20.1zm233.6 0c-45 12.4-77.4 19.2-108.8 20.1V366c27.4-1.2 57.2-8.6 111-22-.2-17-1-33.4-2.2-48.5zM41.07 319.7c-5.1 12.8-9.2 24.5-7.4 35.8 7 4.4 15.8 8.8 25.3 12.3 15.2 5.6 32.3 9.1 47.93 8.5l.4-.3c7-4.4 10.6-10.2 13.1-17.7 0-6.1.1-12.1.2-18-28.73-3-56.73-7.8-79.53-20.6zm429.73.1c-22.8 12.7-50.8 17.5-79.4 20.5.1 5.9.2 11.9.2 18 2.5 7.5 6.1 13.3 13.1 17.7l.4.3c15.5.6 32.7-2.9 47.8-8.5 9.6-3.5 18.4-8 25.4-12.3 1.7-11.3-2.3-23-7.5-35.7zm-333.9 40.7c0 14.2.4 28.7 1.2 43.3 11.1-4.1 21.6-8.4 29.5-13.3 9.4-5.8 14.8-11.3 16.1-18.7-13.5-3.1-29.1-6.9-46.8-11.3zm238.2 0c-17.7 4.4-33.3 8.2-46.8 11.3 1.3 7.4 6.7 12.9 16.1 18.7 7.9 4.9 18.4 9.2 29.5 13.3.8-14.6 1.2-29.1 1.2-43.3zM30.67 372.4l-5.4 23.1c18 8.4 33 16.5 65.4 16.8l8.3-20c-15.6-.6-31.4-4.3-45.5-9.5-8.3-3.1-16-6.6-22.8-10.4zm450.63 0c-6.8 3.8-14.5 7.3-22.8 10.4-14.2 5.2-29.9 8.9-45.5 9.5l8.3 20c32.3-.3 47.4-8.4 65.4-16.8zm-282.1 2.7c-2.6 12.6-12.1 22.2-23.2 29-6.9 4.3-14.7 7.8-22.8 11 24.9 6.9 65.1 17 94.8 18.7v-52.2c-14.8-.6-30.2-2.7-48.8-6.5zm113.6 0c-18.6 3.8-34 5.9-48.8 6.5v52.2c29.7-1.7 69.9-11.8 94.8-18.7-8.1-3.2-15.9-6.7-22.8-11-11.1-6.8-20.6-16.4-23.2-29zM139.7 428c1.4 15.6 3.2 31 5.5 45.9 41.4 13.6 72.5 20.9 102.8 22v-46.1C211.1 448 163.2 435 139.7 428zm232.6 0c-23.5 7-71.4 20-108.3 21.8v46.1c30.3-1.1 61.4-8.4 102.8-22 2.3-14.9 4.1-30.3 5.5-45.9zm-122.8 68h13c-4.3.1-8.7.1-13 0z"/></svg>