<svg xmlns="http://www.w3.org/2000/svg" viewBox="0 0 512 512"><path d="m199.53 19.03-15.81 43.595-47.94-16.906 37.845 43.844c-21.482 15.604-38.455 37.068-48.562 62.06a77.2 77.2 0 0 0-28.407-5.404c-.67 0-1.334-.018-2 0C52.702 147.285 19 181.726 19 224.063c0 43.007 34.775 77.875 77.656 77.875 19.056 0 36.493-6.889 50-18.315 7.23 6.66 15.523 12.339 24.656 17.065-12.711 16.713-20.686 37.253-21.875 59.591 5.168 5.635 12.93 11.146 23.344 16.034 20.91 9.81 50.94 16.25 84.157 16.25s63.25-6.44 84.158-16.25c10.434-4.897 18.2-10.418 23.375-16.063a107.7 107.7 0 0 0-21.877-59.594c9.118-4.72 17.405-10.38 24.625-17.029 13.513 11.425 30.973 18.31 50.029 18.31 42.88 0 77.625-34.867 77.625-77.875 0-43.01-34.744-77.843-77.625-77.843-.67 0-1.334-.018-2 0a77.2 77.2 0 0 0-26.469 5.375c-6.306-15.583-15.303-29.787-26.375-42.065l30.565-6.558-63.25-20.75 19.654-28.315-66.437 10.971a142.3 142.3 0 0 0-26-2.377 141.7 141.7 0 0 0-38.97 5.438zM95.75 166.75h.002a57.2 57.2 0 0 1 22.936 4.813 142 142 0 0 0-3 16.687c-15.55-8.79-35.502-6.516-48.782 6.813-15.997 16.056-15.997 41.915 0 57.968a40.564 40.564 0 0 0 57.53.156c2.378 5.172 5.193 10.002 8.345 14.534-22.403 19.146-56.315 18.099-77.468-3.127-22.243-22.322-22.242-58.768 0-81.094 11.121-11.161 25.784-16.75 40.437-16.75zm322.406 0a57.2 57.2 0 0 0-22.935 4.813 143 143 0 0 1 3 16.687c15.548-8.79 35.499-6.515 48.779 6.813 15.998 16.057 15.997 41.914 0 57.966a40.566 40.566 0 0 1-57.562.125 94.4 94.4 0 0 1-8.315 14.565c22.408 19.13 56.323 18.097 77.47-3.125 22.245-22.322 22.244-58.768 0-81.094-11.12-11.162-25.783-16.75-40.437-16.75zm-223.22 16.406h.001c20.812.001 37.69 16.908 37.69 37.78 0 20.873-16.88 37.814-37.691 37.814-20.81 0-37.686-16.94-37.686-37.812 0-20.87 16.875-37.78 37.686-37.782zm125.533 3.125c19.97 0 36.154 16.25 36.154 36.281 0 20.032-16.182 36.284-36.154 36.284-19.974 0-36.192-16.252-36.192-36.282 0-20.033 16.218-36.283 36.192-36.283zm-91.158 79.315 18 4.968-9.78 35.498-18-4.966zm55.25 0 9.783 35.5-18 4.968-9.781-35.502zm78.093 120.156c-4.226 2.705-8.79 5.199-13.625 7.469-24.213 11.362-56.503 18.031-92.091 18.031-35.59 0-67.88-6.67-92.094-18.031-4.822-2.264-9.38-4.743-13.594-7.44 9.62 44.998 53.293 62.565 105.688 62.565 52.406 0 96.112-17.573 105.718-62.594z"/></svg>