<svg xmlns="http://www.w3.org/2000/svg" viewBox="0 0 512 512"><path d="M367.564 19.438c-.017.033-.015.194-.015.507h-18c0 5.257 2.202 8.784 4.5 12.12 2.3 3.335 5.116 6.502 8.215 9.798 6.197 6.596 13.576 13.656 19.494 20.604s9.992 13.834 10.73 18.238.487 6.836-6.912 11.736c-6.315 4.185-16.528 4.894-29.828 2.284s-28.948-8.296-44.644-14.237c-15.696-5.94-31.42-12.13-45.887-15.574s-28.64-4.738-39.89 3.273c-17.739 12.634-25.74 33.146-19.725 52.18 1.684 5.334 4.36 10.445 7.992 15.229a222 222 0 0 1 25.472-.487c-9.033-6.295-14.187-13.463-16.304-20.164-3.646-11.54.27-23.027 13.006-32.097 3.987-2.84 12.748-3.405 25.28-.422 12.53 2.983 27.873 8.913 43.68 14.896 15.81 5.984 32.1 12.03 47.553 15.063s30.805 3.3 43.237-4.936c11.348-7.518 16.47-19.295 14.722-29.72s-8.011-18.986-14.78-26.934-14.42-15.234-20.08-21.258c-2.831-3.013-5.157-5.724-6.51-7.69-1.015-1.47-1.25-2.504-1.306-2.41zM221.55 153.186c-34.673 1.783-67.09 13.717-79.215 31.36-7.8 15.735-13.61 33.225-17.422 52.225 34.624 13.572 65.79 20.959 96.637 22.163v-13.989h-16v-82h16zm18.002 0v9.76h16v82h-16v13.986c30.778-1.2 61.873-8.558 96.406-22.07-3.79-19.22-9.532-36.844-17.203-52.327-12.133-17.637-44.539-29.565-79.203-31.35zm-16 27.76v46h14v-46zM121.94 254.924c-6.55 51.112.249 111.787 21.194 178.318l.076.242.06.246c3.123 12.287 13.546 22.35 29.5 29.6 15.959 7.252 36.886 11.18 57.803 11.24 20.918.06 41.835-3.753 57.766-10.965 15.93-7.21 26.336-17.273 29.478-29.843l.082-.334.112-.328c20.903-62.71 27.632-125.29 20.869-178.067-76.195 29-140.716 28.96-216.94-.11z"/></svg>