<svg xmlns="http://www.w3.org/2000/svg" viewBox="0 0 512 512"><path d="M134.03 19.938a1325 1325 0 0 0-5.374 28.78c-17.01 60.475-23.59 125.95-18.594 185.844a1166 1166 0 0 0-.28 30.032C103.521 335 111.148 412.7 131.403 482.47c.817 4.12 1.67 8.25 2.532 12.373h51.468c-8.876-20.718-12.494-54.165-5.75-92.406 19.663 14.655 36.076 57.923 35.315 92.406h62.967c-5.56-16.518-9.622-44.473-11.657-77.75l-17.53 56.656c-13.64-27.468-22.649-100.036-24.5-183.406-4.886 34.097-13.57 67.382-26.28 97.529-49.444-53.084-39.554-175.159 11.094-285.56l16.935 80s12.14-103.811 22.781-148.688c-.005-.022-.025-.04-.03-.062h.03c-.003.02.006.043 0 .062 16.58 60.65 25.145 127.882 27.44 202.438 3.847-20.063 8.51-39.06 14.592-54.907 35.655 48.09 50.519 247.99 14.562 313.688h71.406c9.802-45.45 17.054-90.884 21.565-136.28 15.02-68.99 12.156-138.86.529-207.283-4.32-43.783-11.545-87.568-21.935-131.343h-38.063c4.322 39.651 4.63 113.674-10.5 166.033-30.267-41.15-47.72-111.625-48.656-166.033zm26.533 22.595c20.649 69.454 10.267 138.821-26.5 208.28a263 263 0 0 1-4.5-8.28c-6.134-57.806-.59-122.653 15.375-182.47a242 242 0 0 1 15.625-17.53zm212.562 90.906a284 284 0 0 1 5.28 9.313c13.14 71.08 16.93 142.932 1.408 213.125a162.7 162.7 0 0 1-20.938 24.687c-28.872-74.96-23.262-172.173 14.25-247.125zM126.969 287.781h.002c29.516 56.466 37.823 128.855 21.216 185.19-16.652-59.234-24.028-124.576-21.218-185.19z"/></svg>