<svg xmlns="http://www.w3.org/2000/svg" viewBox="0 0 512 512"><path d="M18 17.998v269.637c12.326-4.654 24.576-9.755 36.59-15.332 20.283-16.343 31.497-28.505 37.603-43.502 6.494-15.947 7.643-36.665 5.246-70.93l17.956-1.26c2.457 35.128 1.696 58.775-6.534 78.983a84 84 0 0 1-4.959 10.136q.016-.008.028-.017c-6.666 16.806-47.959 57.937-85.934 84.416V494H494v-24.465c-57.7-4.972-120.787-12.223-178.53-37.746-71.53-31.618-133.716-92.173-162.952-207.93-1.824-7.22-.89-14.783.8-24.181s4.476-20.38 7.883-32.582c6.815-24.404 16.129-53.64 24.137-82.99 6.222-22.804 11.616-45.685 14.494-66.108zm253.326 43.705c-5.677.675-14.48 24.16-8.38 30.938 17.84 19.823 73.65 32.396 76.005 24.964 2.244-7.074-44.703-36.343-66.014-55.367a2.3 2.3 0 0 0-.523-.35q-.52-.254-1.088-.185zm214.418 70.44c-28.44 2.68-83.598-1.59-85.988 5.435-2.51 7.38 49.885 30.35 76.004 24.967 9.524-1.963 16.673-29.288 10.615-30.38a2.3 2.3 0 0 0-.63-.022zM277.896 201.25v.004c-12.725 12.637-22.49 43.11-20.156 60.742l30.303-40.517 5.107 35.408 20.225-10.149 10.146 20.229 20.225-10.15 10.15 20.228 25.262-25.332.07 50.596c11.704-12.976 23.374-42.82 20.159-60.745-43.176-3.936-83.91-16.537-121.49-40.314zm-22.308 67.299c-12.334 12.812-16.927 26.04-14.172 43.76 32.817 31.52 75.395 45.257 121.73 39.578 13.217-12.527 15.9-26.38 14.168-43.768l-24.437 23.606-10.316-20.178-20.165 10.27-10.269-20.167-20.16 10.27-10.27-20.162-20.117 10.285-5.988-33.494zM128 272c4.836-.035 10.04 1.718 14.506 4.88 9.482 6.716 13.138 17.85 8.166 24.868-.158.21-.324.41-.496.61-4.204 30.236-4.279 40.477.77 70.716 2.154 20.262-6.275 19.11-6.946 19.842 0 0-14.647-.792-11.053-19.842 4.267-29.007 4.585-37.817 1.24-66.443-3.362-.732-6.7-2.225-9.685-4.33-9.482-6.715-13.138-17.847-8.166-24.867 2.433-3.435 6.64-5.394 11.664-5.43zm66.66 87.72c4.836-.032 10.04 1.716 14.506 4.88 9.482 6.715 13.138 17.85 8.166 24.87q-.237.312-.496.608c-4.204 30.24-4.279 38.478.77 68.717 2.785 20.262-1.643 26.247-8.67 26.162-7.028-.084-12.925-7.112-9.33-26.162 4.266-29.007 4.586-35.817 1.242-64.443-3.363-.734-6.7-2.227-9.686-4.332-9.482-6.716-13.138-17.85-8.166-24.87 2.433-3.435 6.64-5.391 11.664-5.43z"/></svg>