<svg xmlns="http://www.w3.org/2000/svg" viewBox="0 0 512 512"><path d="m147.889 25.732-.002.002a122.3 122.3 0 0 0-29.89 3.647C66.038 42.366 22.312 89.154 20.212 156.359c-1.12 35.803 9.933 65.57 27.539 91.121 17.61 25.552 41.552 47.158 66.85 68.442 50.596 42.573 106.39 83.87 132.396 148.293l8.904 22.05 8.49-22.212c24.65-64.483 78.63-107.776 128.604-151.27C442.97 269.29 489.63 224.58 491.78 156.95c2.276-71.537-42.362-116.7-95.521-127.137-49-9.621-105.34 9.123-140.23 57.745-27.548-42.14-68.33-61.742-108.14-61.825zm2.164 17.977h.002c38.356.402 73.808 24.73 93.14 56.955 3.06 4.91 12 18.781 12 18.781l7.334-10.35c16.673-26.632 42.103-48.728 72.284-58.325 40.246-13.228 90.466-2.59 117.054 32.314 24.617 32.027 27.77 76.852 14.026 113.666-17.43 43.71-53.837 75.718-88.553 105.793-46.72 39.376-94.345 81.182-121.916 136.86-5.064-9.63-10.673-18.98-16.9-27.9-40.44-59.623-104.682-96.257-153.725-147.608-33.198-30.908-52.584-77.654-45.26-123.08 5.82-52.31 53.85-97.207 106.793-97.07a92 92 0 0 1 3.72-.036zm64.459 123.926a47 47 0 0 0-11.469 1.398c-19.938 4.983-36.721 22.939-37.525 48.73-.43 13.739 3.81 25.16 10.568 34.966s15.945 18.095 25.652 26.263c19.417 16.338 40.829 32.186 50.81 56.908l3.415 8.463 3.258-8.523c9.46-24.746 30.174-41.359 49.351-58.05 19.178-16.69 37.084-33.848 37.908-59.802.873-27.452-16.256-44.783-36.656-48.789-18.804-3.69-40.423 3.5-53.812 22.16-10.57-16.172-26.22-23.693-41.498-23.724z"/></svg>