<svg xmlns="http://www.w3.org/2000/svg" viewBox="0 0 512 512"><path d="m256 21.52-4.5 2.597L52.934 138.76v234.48L256 490.48l203.066-117.24V138.76zm0 20.783 185.066 106.85v213.695L256 469.698 70.934 362.847V149.152zm0 30.93-4.5 2.597-153.78 88.785v182.77L256 438.768l158.28-91.383v-182.77zm0 20.783 140.28 80.992v161.984L256 417.984l-140.28-80.992V175.008zm0 30.93-4.5 2.597-108.998 62.93v131.054L256 387.055l113.498-65.528V190.473zm0 20.783 95.498 55.134v110.272L256 366.27l-95.498-55.135v-110.27zm0 30.927-4.5 2.6-64.213 37.07v79.346L256 335.342l68.713-39.67v-79.344L256 176.658zm0 20.783 50.713 29.282v58.558L256 314.561l-50.713-29.282v-58.558zm0 30.93-4.5 2.602-19.428 11.215v27.628L256 283.631l23.928-13.817v-27.628z"/></svg>