<svg xmlns="http://www.w3.org/2000/svg" viewBox="0 0 256 256"><path d="M128 18C67.355 18 18 67.355 18 128s49.355 110 110 110 110-49.355 110-110S188.645 18 128 18zm0 18c50.917 0 92 41.083 92 92s-41.083 92-92 92-92-41.083-92-92 41.083-92 92-92zm8.8 26.52q-27.5 0-43.33 17.95-15.74 17.85-15.74 49.13 0 30.6 13.46 47.3 13.51 16.6 38.21 16.6 22.3 0 35.6-12.2 13.3-12.3 13.3-32.6 0-18.4-12-29.7-11.8-11.4-31.2-11.4-7.7 0-14.2 2.2-6.5 2-12.1 6.1 1.3-15.9 9.5-23.92 8.1-8.13 22.7-8.13 6.7 0 13.8 1.86 7.1 1.781 15.2 5.59V67.94a105 105 0 0 0-16.3-4.06q-8.2-1.36-16.9-1.36zm-7.1 66.08q8.6 0 12.9 5.6 4.3 5.5 4.3 16.6t-4.3 16.7q-4.3 5.5-12.9 5.5t-12.9-5.5q-4.2-5.6-4.2-16.7t4.2-16.6q4.3-5.6 12.9-5.6z"/></svg>