<svg xmlns="http://www.w3.org/2000/svg" viewBox="0 0 512 512"><path d="M253.787 24.672c-19.46.194-39.214 2.816-58.88 8.086C69.03 66.486-5.665 195.868 28.062 321.74c26.236 97.912 110.352 164.846 205.667 173.883-2.958-41.58-1.013-83.51 3.913-125.894l18.564 2.156c-4.923 42.36-6.768 83.89-3.67 124.77 21.273.297 42.942-2.296 64.508-8.075 125.873-33.728 200.57-163.106 166.842-288.978-28.458-106.206-125.012-175.98-230.1-174.93zm16.275 20.44c14.34 29.822 20.8 57.25 20.018 78.46l-28.49 33.598-24.106-39.1c2.935-20.555 14.041-45.805 32.578-72.959zm-70.878 64.343a279 279 0 0 1 18.853 12.602l-.035.02 33.687 54.646-3.011 38.916-42.422-44.934c-4.54-17.19-7.108-37.919-7.072-61.25zm132.892 10.049c-3.324 22.092-8.647 41.477-15.303 57.402l-49.336 38.545 3.088-39.924 37.993-44.798c7.29-3.923 15.14-7.683 23.558-11.225zm-146.58 68.08a288 288 0 0 1 17.752 7.16l43.482 46.057-3.173 41.01-37.19-20.934c-10.98-15.844-18.875-40.415-20.87-73.293zm152.74 11.465c-6.607 29.925-17.329 51.98-29.798 66.18l-46.223 17.693 3.27-42.23 44.452-34.731c8.73-2.622 18.175-4.945 28.3-6.912zM179.096 275.4c6.876.675 13.44 1.576 19.703 2.66l43.168 24.297-3.889 50.237c-21.094-5.566-43.686-30.976-58.982-77.194zm139.236 9.957h.002q5.768-.032 11.812.186c-22.9 46.967-50.93 69.049-73.464 68.89l3.937-50.894 46.719-17.883q5.357-.268 10.994-.299z"/></svg>