<svg xmlns="http://www.w3.org/2000/svg" viewBox="0 0 512 512"><path d="M112.625 27.395c-2.5-.28-5.24 1.46-7.11 3-3.67 3-10.42 10.32-17.66 27.64l308.68 34.34c5.16-13.25 11.02-23.89 17.31-31.43l-.02-.02zm324.26 36.183c-1.819.123-3.895 1.117-6.19 2.977-4.12 3.33-12.12 12.19-20.33 34.45l39.2 109.14c10.93-45.23 11.82-99.17.93-129.51-3.39-9.44-7.88-15.76-11.88-16.89a5.1 5.1 0 0 0-1.73-.167zM88.535 74.145l35.83 99.78c7.52-31 10.28-66.13 7.77-94.92zm59.65 6.67c2.51 34.94-1.85 77.32-12.39 112h2.32l7-12.86h40.46l-.01.05 5 5.49 12.75-11.15 21.45-2.28 16.61 15.35 10.51 8.73 18.54-9.29 3.44.5c.12-.67.25-1.34.38-2 3.08-16.1 7.35-30.16 7.53-30.75l13.39-43.91 16.88 42.71 8.42 21.42 10.66-12.39 22.14-25.73 5.78 33.45 3.29 19.1 17.1-9.64 35.09-19.79-18.48-51.4zm148.91 78.45s-16.65 54.58-7 69c7.69 11.45 35.42 22.25 54.33 22.25 5 0 9.43-.76 12.67-2.48 13.8-7.31 30.15-54.49 30.15-54.49l-36.88 20.79-7.14-41.47-28 32.51zm118.1 2.51-12.82 37c-.16.46-3.407 9.792-8.262 20.973l4.711 1.906.91.58 38.721 4.31zm-21.082 57.973-.008-.004v.022zm-174.758-30.873-9.16 1-20.45 17.83-11-11.7h-24.21l-17.61 32-5.7-7.2-4.42 4.85-10.76 16.35-12.29 4.91L97.612 256h-12.2l-2.776 6.006 76.9 8.209a8.15 8.15 0 0 1 2-2.9 8 8 0 0 1 10.31-.46 2 2 0 0 1-.14-.24c-4.955-8.368 6.458-16.62 12.87-9.375s-3.167 17.571-10.87 11.635a8 8 0 0 1 1.12 2.89l22.62 2.44 168.54 20.57 51.49-43.38-1.89-.12-24.11-15.27-4.18-1.69c-5.91 11.52-13.39 23-22.66 27.88-5.44 2.88-12.22 4.34-20.16 4.34-11.13 0-24.75-2.91-37.35-8-10-4-23.3-11-30.26-21.34-4.9-7.29-6.64-17.77-5.31-32.92l-21.78 10.93-19-15.8zm221.87 63.74-8.67 7-55.51 46.79.58 162 64.19-51.93zm-389.36 21.91.6 167.11 309.18 34.49-.6-165.83-107-13.05v86.5l-85-9.84v-86.72l-1.05-.09a8.14 8.14 0 0 1-7.27 6.71 8 8 0 0 1 5.23 8.9 8 8 0 0 1-8 6.66c8.453 4.004 4.342 16.778-4.86 15.1a8 8 0 0 1-8 13.8 8.01 8.01 0 0 1-12.28 10.29v.09a8 8 0 0 1-3.86 8.37l9.13 5.35v14.25l-12 7.13-12-7.12v-14.26l8.15-4.82a8.21 8.21 0 0 1-5.07-5.92.4.4 0 0 1 0-.1 8 8 0 0 1-15.18-5c-6.852 7.214-18.093-2.065-12.31-10.16-8.345 4.52-16.217-6.676-9.14-13-9.17 2.661-14.453-10.082-6.09-14.69a8 8 0 0 1-3.21-15.67c-9.295-1.046-9.547-14.463-.3-15.86-.668-.164-1.264-.473-1.83-.76zm23.57 2.67c-.41.19-.746.15-1.16.2 7.6 2.1 7.9 12.767.43 15.29 7.737.868 9.802 11.153 3 14.94 7.653-.548 11.614 8.947 5.84 14 7.313-2.115 13.167 6.217 8.7 12.38 6.287-3.517 13.657 2.416 11.56 9.31 4.53-4.724 12.506-2.304 13.65 4.14 2.057-5.713 9.48-7.14 13.51-2.6-1.285-6.404 5.23-11.565 11.17-8.85-4.564-5.77.425-14.124 7.67-12.84-6.42-4.542-3.122-14.648 4.74-14.53-7.316-3.503-5.376-14.415 2.7-15.18a8 8 0 0 1-5.38-8zm109.61 11.72v70.72l53 6.16v-70.51l-42.24-5.18zm25.94 20.09a13.64 13.64 0 0 1 11.06 12.59 9.54 9.54 0 0 1-5 9.15l4 25-17-1.74 2.34-24.42a13 13 0 0 1-5.34-10.29v-.09c-1-6.2 4.12-10.78 10.07-10.1.04 0-.13-.1-.13-.1zm249.17 145.69c-10.126.002-18.32 3.062-18.32 6.83 0 3.77 8.21 6.83 18.33 6.83s18.33-3.06 18.33-6.83c0-3.768-8.216-6.828-18.33-6.83zm-408.32 2.62c-10.12 0-18.33 3.06-18.33 6.83 0 3.21 6 5.9 14 6.63v.2c0 3.77 8.21 6.83 18.33 6.83s18.33-3.06 18.33-6.83c-.01-3.21-5.98-5.9-14-6.63v-.2c0-3.77-8.21-6.83-18.33-6.83zm368.33 13.66c-10.13 0-18.33 3.06-18.33 6.83s8.21 6.83 18.33 6.83 18.33-3.06 18.33-6.83-8.25-6.8-18.38-6.8z"/></svg>