<svg xmlns="http://www.w3.org/2000/svg" viewBox="0 0 512 512"><path d="M19.188 16.406V123.28l153.593 81.75-70.654-188.623zm109.812 0 119.125 144.815 5.25-144.815zm165.25 0 40.906 133.157 60.721-133.157zm140.188 0-14.594 155.938 74.75-69.5V16.406zM19.188 167.063v97.53l99.875 9.938zm409.406 40.312c-17.884-.094-38.853 9.07-55.938 26.156a100 100 0 0 0-13.562 16.846c-93.737-56.476-329.936 76.332-179 189.78H60.779l-26.467 47.72H291.5L203 384.625c24.27-26.708 67.458-43.704 97-45.062 13.793 45.097 36.265 113.496 71.75 148.312h60.844c-43.07-46.547-76.538-109.09-81.938-179.844a33.6 33.6 0 0 0 6.313 8.783c18.662 18.663 55.943 11.649 83.279-15.687s34.351-64.62 15.69-83.281c-7-7-16.614-10.412-27.344-10.47zM19.188 323v59.563l77.687-23.938z"/></svg>