<svg xmlns="http://www.w3.org/2000/svg" viewBox="0 0 512 512"><path d="M255.78 21C128.096 21 23.47 125.628 23.47 253.313s104.626 230.78 232.31 230.78 230.783-103.096 230.783-230.78C486.563 125.628 383.465 21 255.78 21zm-1.06 82 117.374 117.97-23.938 25.093-65.406-37.938v172.47c79.295-13.13 139.78-81.986 139.78-165 0-39.264-13.54-75.369-36.186-103.907 37.702 35.364 61.22 85.81 61.22 141.625a191.175 191.175 0 0 1-191.783 191.78c-106.398 0-193.31-85.386-193.31-191.78 0-55.123 23.343-105.018 60.625-140.313-22.028 28.33-35.157 63.928-35.157 102.594 0 82.46 59.646 150.973 138.157 164.75v-168.72l-62.5 35.626-25.094-26.28z"/></svg>