<svg xmlns="http://www.w3.org/2000/svg" viewBox="0 0 512 512"><path d="M312.598 17.617c-11.352.495-22.753 1.162-34.504 3.447-7.382 1.438-14.92 3.48-22.397 5.63h-.002l.582 102.386a171 171 0 0 0-12.398 4.123 105 105 0 0 1 39.404 11.068c2.518-.268 5.01-.453 7.47-.54a93 93 0 0 1 2.581-.061c12.852-.14 24.76 2.234 34.994 7.217 21.838 10.63 33.073 30.605 34.164 56.808 1.09 26.204-8.93 58.226-31.219 88.748s-52.377 53.466-82.375 65.649-59.433 13.429-81.271 2.799-33.07-30.609-34.162-56.813c-.404-9.69.718-20.176 3.412-31.088a105.2 105.2 0 0 1-7.164-38.248c0-.232.008-.461.01-.693-5.353 10.91-9.425 21.861-12.192 32.658l-93.67-3.201c-3.03 11.91-5.396 23.593-6.726 35.369-.858 7.613-1.449 15.52-1.569 23.004l97.918-30.83a121 121 0 0 0-.244 13.875c.448 10.748 2.51 21.08 6.133 30.592L23.824 386.46h-.004c2.456 8.035 5.49 16.143 9.094 23.691 3.755 7.87 7.884 15.017 12.639 21.844l83.783-73.775c6.932 9.733 16.053 17.893 27.305 23.785L84.57 470.47c13.743 9.173 29.25 15.45 45.706 20.023l45.453-101.21c13.947 3.575 28.932 3.991 44.202 1.74l-29.577 106.328c18.565-.79 37.978-3.862 57.456-9.463l-6.249-101.752c5-1.514 9.993-3.28 14.954-5.293 10.273-4.172 20.45-9.408 30.332-15.608l25.332 95.213c9.426-5.314 18.51-11.05 27.785-17.527a369 369 0 0 0 26.44-20.348l-60.594-70.726a223.5 223.5 0 0 0 37.09-37.24l75.882 53.853c13.686-17.525 25.127-36.117 34.947-55.082l-97.556-17.611c9.69-15.447 16.76-31.22 21.176-46.721l101.742-1.578c3.09-12.056 5.711-24.31 7.056-36.23.858-7.61 1.671-15.052 1.791-22.534l-106.093 38.4c.848-6.886 1.147-13.656.873-20.25-.345-8.29-1.658-16.324-3.897-23.933l101.086-54.33a166 166 0 0 0-9.314-24.162c-3.603-7.55-7.888-14.786-12.412-21.375h-.002l-86.9 81.841c-7.2-12.836-17.726-23.557-31.464-30.873l79.123-89.908c-5.416-3.616-11.37-6.952-17.248-9.86-9.134-4.515-19.144-7.462-29.234-10.245l-50.832 102.855c-10.007-2.73-20.56-3.82-31.39-3.435-4.119.146-8.275.505-12.458 1.066L312.6 17.617zM190.77 54.52a353 353 0 0 0-27.784 17.529c-9.086 6.347-17.525 12.9-25.884 19.96l42.332 57.046a105.4 105.4 0 0 1 28.162-12.41zM84.72 146.125v.002c-5.276 6.76-10.507 13.633-15.226 20.65l-.553.387c-7.44 11.105-13.74 22.862-19.72 34.434l81.931 19.754a105 105 0 0 1 9.463-29.33zm150.856 9.193c-46.207 0-83.424 37.217-83.424 83.424s37.217 83.426 83.424 83.426S319 284.949 319 238.742s-37.217-83.424-83.424-83.424z"/></svg>