<svg xmlns="http://www.w3.org/2000/svg" viewBox="0 0 512 512"><path d="M256 51c-1.216 1.157-3.236 3.695-5.596 7.47-4.552 7.284-10.594 19.233-18.383 34.8v9.94c6.19 4.753 14.907 7.626 23.979 7.626s17.788-2.874 23.979-7.627v-9.94c-7.79-15.566-13.83-27.517-18.383-34.8-2.36-3.775-4.38-6.312-5.596-7.469zm-42.742 54.285c-28.17 6.895-55.871 20.621-82.176 41.133-16.04 80.706-31.2 175.83-16.89 254.564 6.187 2.322 12.688 4.44 19.404 6.399l-3.063-12.258-4.304-6.453 7.806-5.205c6.304-4.203 13.54-7.85 21.486-10.99-5.028-6.777-8.325-15.44-11.544-24.286-5.46-15.013-9.66-31.84-13.655-44.029l-9.79-29.869 24.564 19.615c24.47 19.543 49.132 32.705 82.918 56.315l10.07 7.037a410 410 0 0 1 35.834 0l10.068-7.037c33.787-23.61 58.45-36.77 82.92-56.315l24.565-19.615-9.793 29.87c-3.995 12.19-8.194 29.015-13.655 44.028-3.22 8.847-6.516 17.51-11.544 24.288 7.948 3.138 15.182 6.786 21.486 10.99l7.806 5.203-4.304 6.453-3.063 12.26c6.716-1.956 13.216-4.077 19.403-6.399 14.31-78.736-.85-173.86-16.889-254.564-26.305-20.51-54.006-34.238-82.176-41.133v6.31l-2.75 2.747c-10.55 10.552-25.397 15.26-39.992 15.26s-29.442-4.708-39.994-15.26l-2.75-2.746v-6.31zm75.98 55.877 13.389 13.145-6.572 6.695c-12.91 13.147-27.169 19.604-41.278 18.865s-26.791-8.076-38.388-18.441l-6.996-6.254 12.503-13.99 6.997 6.25c9.774 8.735 18.788 13.274 26.867 13.697s16.494-2.672 26.904-13.274zm-150.002 3.885h.002c19.807 0 41.366 9.12 60.854 19.945 19.487 10.826 36.415 23.398 45.861 32.844l-13.267 13.268c-7.234-7.234-23.666-19.684-41.71-29.708-18.042-10.024-38.186-17.583-51.74-17.583zm233.524 0v18.766c-13.552 0-33.696 7.56-51.739 17.583s-34.475 22.474-41.709 29.708l-13.267-13.268c9.446-9.446 26.374-22.018 45.861-32.844 19.488-10.827 41.046-19.945 60.854-19.945zm-226.889 36.11c16.68 16.68 47.577 47.29 93.447 47.29v.317l16.758-24.215 16.604 24.474v-.578c45.87 0 76.767-30.609 93.447-47.289l13.268 13.266c-8.234 8.233-21.142 21.198-38.612 32.219 4.916 4.755 7.998 11.397 7.998 18.697 0 14.283-11.78 26.062-26.062 26.062s-26.063-11.78-26.063-26.062c0-.183.012-.365.016-.547-3.9.798-7.923 1.415-12.06 1.828l28.074 41.387-3.791 5.314c-7.152 10.026-16.658 15.68-26.034 18.203-9.376 2.525-18.523 2.41-26.863 2.41s-17.495.107-26.943-2.4-19.065-8.049-26.67-17.949l-4.17-5.426 28.773-41.58c-4-.41-7.887-1.016-11.662-1.789.004.183.014.364.014.547 0 14.283-11.78 26.062-26.063 26.062s-26.062-11.78-26.062-26.062c0-7.3 3.082-13.941 7.998-18.695-17.47-11.02-30.375-23.984-38.61-32.217zm-128.074 16.11c2.95 6.933 8.366 15.73 16.539 27.413 12.455 17.8 29.555 41.635 46.574 75.674 1.848 3.697 4.588 6.08 8.64 7.775.07-13.807.679-27.726 1.702-41.656l-24.877-21.551 12.285-14.184 14.639 12.68a899 899 0 0 1 3.23-26.947c-7.94-6.23-17.723-10.416-28.564-13.373-16.627-4.535-34.942-5.58-50.168-5.83zm476.404 0c-15.226.25-33.54 1.296-50.17 5.83-10.84 2.958-20.621 7.143-28.56 13.374a899 899 0 0 1 3.228 26.947l14.639-12.682 12.285 14.186-24.875 21.55c1.02 13.93 1.63 27.849 1.701 41.657 4.05-1.694 6.79-4.078 8.639-7.775 17.02-34.04 34.12-57.873 46.574-75.674 8.173-11.682 13.59-20.48 16.54-27.412zm-238.28 40.48-34.11 49.292c3.74 3.347 7.606 5.176 12.058 6.357 6.265 1.663 13.791 1.772 22.131 1.772s15.874-.117 21.982-1.762c4.345-1.17 8.009-2.94 11.475-6.217l-33.533-49.441zm-66.642.29v.002c-4.142 0-7.299 3.155-7.299 7.297 0 4.14 3.157 7.297 7.3 7.297 4.14 0 7.296-3.156 7.296-7.297 0-4.142-3.156-7.299-7.297-7.299zm133.44 0v.002c-4.14 0-7.297 3.155-7.297 7.297 0 4.14 3.156 7.297 7.297 7.297 4.142 0 7.299-3.156 7.299-7.297 0-4.142-3.157-7.299-7.3-7.299zm32.883 67.342c-14.056 9.583-28.79 18.807-45.17 29.664l27.457 9.152c3.247-3.245 8.445-11.283 12.498-22.424 1.86-5.112 3.53-10.788 5.215-16.39zm-199.206.002c1.684 5.603 3.357 11.279 5.215 16.39 4.053 11.14 9.25 19.18 12.498 22.424l27.457-9.152c-16.38-10.857-31.114-20.08-45.17-29.662zM256 375.635c-41.212 0-82.64 7.557-105.97 20.119l13.58 54.32c61.667 14.57 123.113 14.57 184.78 0l13.58-54.32c-23.33-12.562-64.758-20.12-105.97-20.12zm-.018 10.543c23.4-.08 46.827 4.166 70.075 13.004l8.77 3.334-6.67 17.543-8.77-3.336c-42.466-16.144-84.224-15.573-126.881.039l-8.815 3.226-6.447-17.623 8.81-3.222c23.153-8.473 46.527-12.884 69.928-12.965z"/></svg>