<svg xmlns="http://www.w3.org/2000/svg" viewBox="0 0 512 512"><path d="m70.574 17.27-4.87 18.044c24.227 6.543 46.02 15.573 65.478 26.704-21.276 15.76-35.307 42.705-35.307 73.314 0 13.593 2.77 26.463 7.707 37.955-21.82 20.365-35.004 49.398-35.004 87.504 0 70.68 42.857 131.725 104.85 161.006l-30.71 70.36h20.376l27.594-63.218c3.01 1.077 6.05 2.092 9.13 3.022a116 116 0 0 0 10.868 7.486l-13.03 52.71h19.28l10.945-44.32c6.856 2.547 13.842 4.224 20.9 5.007v39.312h18.69v-39.355c7.872-.906 15.65-2.937 23.256-6.057l11.21 45.412h19.25l-13.439-54.418c3.4-2.222 6.75-4.66 10.035-7.343a193 193 0 0 0 9.537-3.456l28.461 65.215h20.375l-31.799-72.861c59.226-30.165 99.74-89.784 99.74-158.504 0-37.114-12.51-65.62-33.32-85.896 5.383-11.896 8.436-25.328 8.436-39.561 0-30.5-13.93-57.359-35.074-73.143 19.638-11.334 41.452-20.41 65.396-26.876l-4.87-18.043c-26.26 7.092-50.214 17.245-71.75 30-34.085-18.84-77.19-28.164-120.214-28.114-40.908.048-81.73 8.575-114.654 25.448-20.227-11.394-42.7-20.644-67.47-27.333zm182.133 21.396v.004c36.446-.044 72.955 6.705 102.084 20.348-45.112 31.892-77.918 76.2-97.15 127.79-19.327-52.135-52.642-97.857-100.569-130.42 27.807-11.743 61.69-17.68 95.635-17.722zm-83.605 68.373v.004c19.4 0 35.33 15.923 35.33 35.32 0 19.4-15.93 35.325-35.33 35.325s-35.332-15.929-35.332-35.329c0-19.398 15.932-35.32 35.332-35.32zm179.441.004c19.4 0 35.328 15.923 35.328 35.32 0 19.4-15.928 35.325-35.328 35.325-19.402 0-35.334-15.925-35.334-35.325 0-19.398 15.93-35.318 35.33-35.318zm-110.379 80.69c4.052 10.346 7.523 21 10.424 31.913l9.03 33.963 9.03-33.963a289 289 0 0 1 10.405-31.72c14.39 21.47 37.346 35.387 63.236 35.387 14.44 0 27.964-4.347 39.607-11.897-4.003 70.85-18.94 124.726-39.34 161.416-23.963 43.104-54.35 62.274-83.536 61.836-29.184-.438-59.806-20.672-83.803-64.074-20.432-36.954-35.36-90.513-39.354-160.03 11.937 8.086 25.948 12.747 40.938 12.747 25.966 0 48.983-14 63.363-35.579zm-125.266 2.148c.433.61.863 1.218 1.309 1.814 2.165 81.335 18.391 144.058 42.654 187.944a209 209 0 0 0 11.537 18.548c-48.72-28.261-81.13-79.292-81.13-137.392 0-32.026 9.224-54.485 25.63-70.914zm288.284 1.43c15.528 16.295 24.224 38.38 24.224 69.484 0 56.37-30.516 106.082-76.828 134.803a206 206 0 0 0 8.315-13.682c24.163-43.46 40.328-106.15 42.628-188.473.56-.706 1.123-1.408 1.66-2.132zm-237.498 59.048c-3.753 6.263-6.096 14.53-6.096 23.24 0 20.066 12.095 35.917 26.82 35.917 12.53 0 23.353-11.585 26.21-27.465-4.693 4.098-10.472 6.34-16.456 6.34-15.98 0-29.423-16.618-30.478-38.032zm185.912 2.479c-1.056 21.413-14.496 38.03-30.477 38.03-5.985 0-11.764-2.243-16.459-6.34 2.858 15.88 13.681 27.464 26.211 27.464 14.726 0 26.21-15.85 26.21-35.916 0-8.71-1.731-16.975-5.483-23.238zm-68.73 28.969c-3.51 13.094-14.307 23.18-24.53 23.18-9.984 0-20.61-10.057-23.943-22.507-.813 3.397-1.752 7.03-1.752 10.795 0 19.225 11.59 34.41 25.699 34.41 14.108 0 25.695-15.185 25.695-34.41 0-3.986-.26-7.898-1.168-11.468zm35.038 66.705.002.004v-.002zm.002.004c-3.435 16.55-14.21 29.01-27.45 29.01-8.24 0-15.752-4.6-21.024-12.145.738 18.326 12.065 33.06 25.697 33.06 14.107 0 25.695-15.862 25.695-35.086 0-5.405-1.301-10.274-2.918-14.84zm-115.636 1.343c-1.294 4.168-1.752 8.691-1.752 13.498 0 19.224 11.59 35.084 25.697 35.084 13.633 0 24.375-14.736 25.113-33.062-5.272 7.545-12.784 12.146-21.025 12.146-12.916 0-24.314-11.735-28.032-27.666z"/></svg>