<svg xmlns="http://www.w3.org/2000/svg" viewBox="0 0 512 512"><path d="M251.219 18.906c-1.887.027-3.794.16-5.69.438-8.594 1.26-16.569 5.35-20.873 9.656l26.125 158.688-17.594 5.656-73.029-148c-5.852-.847-14.301.584-22.062 4.75-8.054 4.322-14.446 11.026-17.221 17.375L190 210.373l-15.22 10.5L80.187 120.75c-5.81 1.17-13.123 5.42-19.061 12.094-6.188 6.955-10.21 15.767-11.065 22.72l124.69 134.53.125.125c16.778 17.487 19.066 46.66 15.03 83.06-3.704 33.413-13.688 73.89-27.405 118.375H355.72c-22.947-62.09-27.75-117.916-25.565-162.5-8.533 4.21-16.922 7.638-25.219 9.971-18.126 5.096-36.56 4.636-52.748-5.156l9.688-16c11.263 6.812 23.091 7.354 38.03 3.154s32.307-13.533 51.345-25.594c35.937-22.766 77.843-54.91 125.53-78.185-5.839-11.33-12.283-17.26-19.093-19.94-8.276-3.257-18.582-2.462-31.062 1.875-19.073 6.63-41.652 21.358-64.596 35.565l-14.25-9.28 1.033-4.626 2.313-10.125c-.033.005-.06.026-.094.03L387.19 46.25c-4.21-5.552-12.186-11.18-21.156-14.094-8.56-2.783-17.124-2.776-22.78-.906l-31.72 143.688-18.342-.563L269.03 23.063c-4.185-2.424-9.776-3.983-15.935-4.157a43 43 0 0 0-1.873 0z"/></svg>