<svg xmlns="http://www.w3.org/2000/svg" viewBox="0 0 512 512"><path d="M104.75 16.813c-24.29.551-47.924 8.42-62.844 26.03C29.71 57.242 27.213 75.419 31.127 93.439c3.912 18.02 13.678 36.519 26.25 55.064l.123.154C41.142 180.15 32 216.558 32 256c0 64 32 128 96 128 32 48 32 96 128 96s96-48 128-96c64 0 96-48 96-128 0-39.442-9.142-75.85-25.5-107.344l.125-.156c12.57-18.545 22.337-37.042 26.25-55.062s1.415-36.198-10.78-50.594c-15.914-18.785-41.757-26.467-67.72-26.031-25.963.437-52.602 8.893-71.562 25.093l-1.594 1.344C306.473 35.923 281.892 32 256 32s-50.475 3.923-73.22 11.25l-1.593-1.344c-18.96-16.2-45.6-24.657-71.562-25.093a122 122 0 0 0-4.875 0zm.375 16a99 99 0 0 1 4.22 0c19.96.334 40.683 6.498 55.81 16.968-41.25 17.244-75.375 46.22-98.749 83.315-9.75-15.32-16.81-30.11-19.625-43.065-3.203-14.755-1.46-26.516 7.315-36.873 10.937-12.91 30.081-19.843 51.03-20.344zm297.53 0c22.573-.38 43.584 6.572 55.25 20.343 8.774 10.357 10.518 22.12 7.314 36.875-2.814 12.956-9.873 27.744-19.625 43.065-23.372-37.096-57.5-66.072-98.75-83.315 15.127-10.47 35.848-16.63 55.81-16.967zM176 144c16 0 48 16 48 64 0 64-48 96-80 96s-48-64-48-96 64-64 80-64zm160 0c16 0 80 32 80 64s-16 96-48 96-80-32-80-96c0-48 32-64 48-64zm-143.53 80A16 16 0 0 0 176 240a16 16 0 0 0 32 0 16 16 0 0 0-15.53-16zm128 0A16 16 0 0 0 304 240a16 16 0 0 0 32 0 16 16 0 0 0-15.53-16zM256 340c12 0 24 4 48 12l-48 48-48-48c24-8 36-12 48-12zm-59.562 69.344C219.756 424.89 238.133 432 256 432s36.245-7.11 59.563-22.656l8.875 13.312C299.755 439.11 278.132 448 256 448s-43.755-8.89-68.437-25.344z"/></svg>