<svg xmlns="http://www.w3.org/2000/svg" viewBox="0 0 512 512"><path d="M411.748 32.71v18h17.38v-18zm-93.326 10.68-.236 17.999 37.9.496.236-17.998zM90.426 56.058c-11.4 0-29.34 1.019-36.014 4.861-6.673 3.842-9.066 7.926-9.066 11.072s8.188 13.902 14.861 17.744c6.529 3.76 16.45 6.487 27.553 6.604 2.346-3.682 5.705-6.729 9.398-8.98 9.823-4.72 18.875-6.877 28.274-6.368.28-.816.416-1.598.416-2.328 0-3.146-2.394-7.23-9.067-11.072s-14.955-11.533-26.355-11.533zM228.674 71.2l-.362 18 24.833.496.359-17.998zM122.205 98.9v.001c-6.469 0-12.202 1.71-15.676 3.829-3.473 2.118-4.119 3.868-4.119 4.728s.645 2.614 4.12 4.732c3.472 2.12 9.206 3.829 15.675 3.829s12.204-1.71 15.678-3.829c3.473-2.118 4.119-3.872 4.119-4.732s-.645-2.61-4.12-4.728c-3.472-2.12-9.208-3.83-15.677-3.83zm152.31 20.73-.665 17.986 13.408.496.666-17.99zm145.854 19.113-.36 17.998 24.833.496.36-17.996zm-222.283 21.854-.217 17.996 41.166.498.219-17.998zm157.723 29.799-.36 17.996 24.832.496.36-17.996zm-284.098.75-25.824.992.691 17.984 25.824-.99zm71.543 7.195-.36 17.996 24.83.494.362-17.994zm278.414 40.72-.229 17.999 38.989.498.23-17.998zm-250.604.997-.359 17.996 24.832.496.36-17.996zm193.008 16.632v18h19.367v-18zm-86.73 7.206-.346 17.322-26.154-.22V265.63h-14.899v15.246l-11.888-.102-.149 18 59.682.496.142-17.248 18.084.364.36-17.996zm-168.68 44.447-.285 17.998 31.365.496.285-18zm-2.006 51.894-.21 17.998 42.255.496.211-17.998zm331.95 3.975-.237 17.996 37.9.498.237-18zm-388.717 5.96-.36 17.997 24.83.494.362-17.994zm175.804 5.96-.359 17.996 24.83.494.361-17.994zm177.72 18.43c-9.346.074-26.338 6.445-35.243 8.127-12.398 2.482-31.904 11.793-31.258 28.197 2.831 13.349 32.7 22.318 45.01 21.869 25.967-5.83 57.524-34.772 25.795-57.518-1.106-.487-2.575-.69-4.305-.675zm-195.599 11.367-.359 17.998 24.832.496.36-17.996zm236.454 36.008-.528 17.992 33.819.994.527-17.992zM34.713 460.314l-.799 17.985 22.348.99.799-17.98z"/></svg>