<svg xmlns="http://www.w3.org/2000/svg" viewBox="0 0 512 512"><path d="M241.094 26.625c-44.872 55.384-74.014 114.344-88.72 175-23.927-25.615-51.125-49.31-82.186-71.656-38.503 92.774-41.77 146.619-14.782 233.469 0 0 15.473-89.68 29.594-121.844 28.562 20.538 53.595 42.601 75.594 66.154 13.52-55.77 40.9-110.32 82.156-161.25 39.88 48.886 66.254 99.836 80.5 152.97 27.562-35.955 63.647-67.962 105.188-97.845C450.598 255.019 459.733 309.138 458 361.5c27.887-87.562 24.103-181.93-14.78-275.625-45.18 32.507-83.404 68.392-113.376 107.5-15.497-57.796-45.38-113.585-88.75-166.75zm2.125 163.688-7.315 10.468c-59.163 84.862-58.716 188.233-.029 273.19l7.53 10.906 7.75-10.75c62.426-86.477 63.049-190.986-.157-273.656zm.719 32.5c48.04 70.85 47.7 154.59-.19 228.843-44.7-72.84-44.903-156.184.19-228.843zm171.125 27.812-9.69 7.094c-76.928 56.176-104.23 140.8-71.812 222.029l4.5 11.281 9.75-7.25c75.862-56.237 104.185-141.11 71.75-222zm-8.627 29.97h.002c21.207 65.844-.572 131.465-59.784 180.28-21.368-66.28-.268-131.54 59.782-180.28zm-310.032 1.03-4.468 11.5C65.23 361.737 88.6 433.839 151.06 481.531l9.875 7.533 4.5-11.593c26.69-68.88 4.149-140.794-59.188-188.442zm8.815 30.53c46.374 39.876 62.857 92.507 47 146.19-45.747-39.943-62.724-92.845-47-146.19z"/></svg>