<svg xmlns="http://www.w3.org/2000/svg" viewBox="0 0 512 512"><path d="M70.184 23.738C55.614 23.738 44 35.35 44 49.91s11.614 26.174 26.184 26.174S96.367 64.47 96.367 49.91 84.753 23.738 70.184 23.738zm371.632 0c-14.569 0-26.183 11.612-26.183 26.172s11.614 26.174 26.183 26.174C456.386 76.084 468 64.47 468 49.91s-11.614-26.172-26.184-26.172zM70.184 94.084C55.614 94.084 44 105.696 44 120.256s11.614 26.172 26.184 26.172 26.183-11.612 26.183-26.172-11.614-26.172-26.183-26.172zm371.632 0c-14.569 0-26.183 11.612-26.183 26.172s11.614 26.172 26.183 26.172c14.57 0 26.184-11.612 26.184-26.172s-11.614-26.172-26.184-26.172zm-354.04 70.344c-14.57 0-26.184 11.614-26.184 26.174s11.614 26.171 26.183 26.171c14.57 0 26.186-11.612 26.186-26.171 0-14.56-11.616-26.174-26.186-26.174zm336.449 0c-14.57 0-26.186 11.614-26.186 26.174s11.616 26.171 26.186 26.171 26.183-11.612 26.183-26.171c0-14.56-11.614-26.174-26.183-26.174zM122.96 234.773c-14.57 0-26.188 11.613-26.188 26.172s11.619 26.174 26.188 26.174c14.57 0 26.184-11.614 26.184-26.174s-11.615-26.172-26.184-26.172zm266.076 0c-14.57 0-26.183 11.613-26.183 26.172s11.614 26.174 26.183 26.174c14.57 0 26.188-11.614 26.188-26.174s-11.619-26.172-26.188-26.172zm-203.404 42.868c-14.57 0-26.188 11.613-26.188 26.171 0 14.56 11.619 26.172 26.188 26.172 14.57 0 26.181-11.613 26.181-26.171 0-14.56-11.612-26.172-26.181-26.172zm140.732 0c-14.57 0-26.181 11.613-26.181 26.171 0 14.56 11.612 26.172 26.181 26.172s26.188-11.613 26.188-26.171c0-14.56-11.619-26.172-26.188-26.172zM256 295.227c-14.57 0-26.184 11.612-26.184 26.171 0 14.56 11.615 26.174 26.184 26.174s26.184-11.614 26.184-26.174-11.615-26.171-26.184-26.171zm0 70.345c-34 0-61.367 27.36-61.367 61.344s27.366 61.346 61.367 61.346 61.37-27.361 61.37-61.346S290 365.572 256 365.572z"/></svg>