<svg xmlns="http://www.w3.org/2000/svg" viewBox="0 0 256 256"><path d="M128 18C67.355 18 18 67.355 18 128s49.355 110 110 110 110-49.355 110-110S188.645 18 128 18zm0 18c50.917 0 92 41.083 92 92s-41.083 92-92 92-92-41.083-92-92 41.083-92 92-92zM89.84 75.42q-12.63 0-19.93 7.4-7.12 7.34-7.12 20.18 0 12.8 7.12 20.2 7.3 7.4 19.93 7.4 12.66 0 19.86-7.4t7.2-20.2q0-12.84-7.2-20.18-7.2-7.4-19.86-7.4zm62.26 0L88.75 180.6h15.05l63.4-105.18zM89.84 86.83q4.82-.001 7.46 4.21 2.65 4.2 2.65 11.96 0 7.8-2.65 12.1-2.58 4.2-7.46 4.2-4.89 0-7.5-4.2-2.69-4.3-2.69-12.1 0-7.76 2.69-11.96 2.61-4.211 7.5-4.21zM166 125.4q-12.6 0-19.9 7.4-7.3 7.3-7.3 20.1t7.3 20.3q7.3 7.4 19.9 7.4t19.9-7.4q7.3-7.5 7.3-20.3t-7.3-20.2q-7.3-7.3-19.9-7.3zm0 11.4q4.8 0 7.4 4.2 2.7 4.1 2.7 11.9t-2.6 12q-2.6 4.1-7.5 4.1t-7.5-4.1q-2.6-4.2-2.6-12t2.6-11.9q2.7-4.2 7.5-4.2z"/></svg>