<svg xmlns="http://www.w3.org/2000/svg" viewBox="0 0 512 512"><path d="m331.926 20.383-.002.002c-36.708.887-82.53 60.973-116.063 147.972h.002c30.564-65.57 71.172-106.39 97.35-99.378 28.058 7.516 37.109 69.42 24.846 148.406-.895-.32-1.773-.643-2.672-.961.893.367 1.765.737 2.65 1.105-2.988 19.215-7.22 39.425-12.767 60.121a597 597 0 0 1-8.936 30.14c-24.996-3.82-52.374-9.536-80.82-17.16-105.856-28.36-186.115-72.12-179.307-97.53 4.257-15.884 42.167-23.774 95.908-20.29-74.427-8.7-128.912-2.044-135.035 20.803-9.038 33.73 89.168 89.372 219.147 124.2 24.436 6.55 48.267 11.897 70.918 16.042-28.965 75.878-68.293 126.079-96.653 118.48-21.817-5.85-35.995-45.443-36.316-100.206-4.79 75.476 9.278 131.944 40.66 140.355 38.836 10.407 91.394-54.996 127.896-152.978 80.12 10.74 138.957 4.276 145.38-19.684 6.383-23.82-41.025-58.44-115.102-89.029 20.713-109.022 8.484-198.5-31.96-209.34a32.1 32.1 0 0 0-9.124-1.07zm40.566 213.088c44.65 22.992 71.147 47.134 67.07 62.347-4.055 15.13-38.105 20.457-87.333 16.303a684 684 0 0 0 9.63-32.662 677 677 0 0 0 10.631-45.986z"/></svg>