<svg xmlns="http://www.w3.org/2000/svg" viewBox="0 0 512 512"><path d="M255.703 44.764c-6.176 0-12.353 1.384-17.137 4.152l-152.752 88.36c-9.57 5.534-9.57 14.29 0 19.826l152.752 88.359c9.57 5.536 24.703 5.536 34.272 0l152.754-88.36c9.57-5.533 9.57-14.289 0-19.824L272.838 48.916c-4.785-2.77-10.96-4.152-17.135-4.152zm-23.39 39.847 23.8 14.875-46.263 27.76 19.427 12.14a38.7 38.7 0 0 1 4.75-4.702q2.614-2.29 6.03-4.34 19.43-11.658 41.771-10.95 22.256.659 42.776 13.483 20.352 12.72 20.06 27.012-.222 14.246-21.148 26.8-9.039 5.425-20.037 9.45-10.846 4.033-23.805 6.658l-25.483-15.928q14.571-1.53 25.272-4.346 10.773-2.857 17.678-7 9.963-5.978 9.94-12.968-.04-7.087-9.878-13.237-9.924-6.202-21.408-6.316-11.414-.158-21.377 5.82-5.907 3.544-10.748 8.715-4.925 5.118-8.826 12.096l-70.645-44.153zm203.554 89.203c-1.938.074-4.218.858-6.955 2.413l-146.935 84.847c-9.57 5.527-17.14 18.638-17.14 29.69v157.699c0 11.05 7.57 15.42 17.14 9.89l146.937-84.843c9.57-5.527 17.137-18.636 17.137-29.688v-157.7c-2.497-8.049-5.23-12.495-10.184-12.308zm-359.763.48c-6.227 0-10.033 5.325-10.155 11.825v157.697c0 11.052 7.57 24.163 17.14 29.69l146.93 84.848c9.57 5.526 17.141 1.156 17.141-9.895v-157.7c0-11.05-7.57-24.159-17.14-29.687L83.09 176.225c-2.567-1.338-4.911-1.93-6.986-1.93zM393.4 233.589v24.264q-6.396-.12-12.052 1.43-5.658 1.46-11.045 4.693-11.583 6.948-18.047 19.265-6.466 12.232-7.543 29.406 4.446-6.975 9.63-12.197 5.187-5.309 11.313-8.984 15.421-9.252 24.85-3.13 9.495 6.083 9.494 25.16 0 21.099-10.572 40.19-10.573 19.003-28.35 29.67-19.596 11.758-30.371.993Q320 373.453 320 341.717q0-32.529 12.525-58.594 12.593-26.192 34.479-39.322 6.935-4.163 13.467-6.678 6.531-2.512 12.93-3.535zM150.611 247.17l27.635 16.578v85.81l13.754 8.25v25.415l-13.754-8.252v24.777l-23.502-14.102V360.87L112 335.223v-30.06zm4.133 31.353-27.248 40.582 27.248 16.35zm212.596 35.182q-2.559.087-5.992 2.149-6.802 4.08-10.237 11.943-3.367 7.733-3.367 19.25t3.367 15.299q3.435 3.655 10.237-.426 6.868-4.123 10.234-11.858 3.435-7.862 3.436-19.38 0-11.515-3.436-15.17-1.683-1.89-4.242-1.807z"/></svg>