<svg xmlns="http://www.w3.org/2000/svg" viewBox="0 0 512 512"><path d="M255.76 44.764c-6.176 0-12.353 1.384-17.137 4.152L85.87 137.276c-9.57 5.535-9.57 14.29 0 19.826l152.754 88.36c9.57 5.537 24.703 5.537 34.272 0l152.753-88.36c9.57-5.535 9.57-14.29 0-19.825L272.895 48.918c-4.785-2.77-10.96-4.154-17.135-4.154zm.926 82.855a31.953 18.96 0 0 1 22.127 32.361 31.953 18.96 0 1 1-45.188-26.81 31.953 18.96 0 0 1 23.06-5.55zM75.67 173.838v.002c-5.753-.155-9.664 4.335-9.664 12.28v157.696c0 11.052 7.57 24.163 17.14 29.69l146.93 84.848c9.57 5.526 17.14 1.156 17.14-9.895v-157.7c0-11.051-7.57-24.159-17.14-29.687l-146.93-84.847c-2.69-1.555-5.225-2.327-7.476-2.387zm360.773.004c-2.25.06-4.783.83-7.474 2.385l-146.936 84.847c-9.57 5.527-17.138 18.638-17.138 29.69v157.7c0 11.05 7.568 15.418 17.138 9.89l146.938-84.844c9.57-5.527 17.136-18.636 17.136-29.688v-157.7c0-7.943-3.91-12.432-9.664-12.278zM89.297 195.77a31.236 18.008 58.094 0 1 33.818 41.183 31.236 18.008 58.094 1 1-45-25.98 31.236 18.008 58.094 0 1 11.182-15.203zm221.52 64.664zA18.008 31.236 31.906 0 1 322 275.637a18.008 31.236 31.906 0 1-45 25.98 18.008 31.236 31.906 0 1 33.816-41.183zM145.296 289.1a31.236 18.008 58.094 0 1 33.816 41.183 31.236 18.008 58.094 0 1-45-25.98 31.236 18.008 58.094 0 1 11.184-15.203zm277.521 29.38A18.008 31.236 31.906 0 1 434 333.684a18.008 31.236 31.906 0 1-45 25.98 18.008 31.236 31.906 0 1 33.818-41.184zm-221.52 64.663a31.236 18.008 58.094 0 1 33.817 41.183 31.236 18.008 58.094 1 1-45-25.98 31.236 18.008 58.094 0 1 11.184-15.203z"/></svg>