<svg xmlns="http://www.w3.org/2000/svg" viewBox="0 0 512 512"><path d="M199.45 32.44c-63.219 0-97.076 8.656-114.048 20.824C68.43 65.43 65.353 81.3 64.442 103.804c-.813 20.079 8.486 32.24 24.681 41.27 16.196 9.032 39.411 13.367 62.328 13.367h27.754l-22.473 16.288c-2.394 1.735-11.645 10.577-21 21.289s-19.583 23.787-26.777 35.492c-3.597 5.852-6.421 11.377-8.02 15.799-1.6 4.423-1.674 7.631-1.498 8.337s-.932.093 1.364.624c2.296.53 7.947.522 16.511-1.57l.27-.067.272-.051c83.993-15.137 126.636-7.486 149.455 8.867 22.82 16.352 21.69 41.346 21.115 48.694l-.051.638-.139.625c-12.597 56.263-24.612 98.317-29.312 126.229-2.348 13.956-2.661 24.34-1.244 30.242s2.746 7.397 8.162 8.887c6.885 1.893 12.491.394 19.318-4.407 6.824-4.8 14.05-13.154 20.932-23.226 13.646-19.97 25.849-46.076 38.039-64.22 1.832-4.054 5.176-7.714 9.248-9.214 4.652-1.714 8.945-1.15 12.777-.213 7.663 1.874 14.887 5.819 22.117 9.147 7.23 3.327 14.292 5.888 18.702 6.08 4.41.19 5.693.168 8.427-5.299 35.18-70.647 33.553-110.195 31.057-171.61-.086-2.123-.39-4.443-.88-6.911q.246 3.243.247 6.547c0 47.871-39.13 87-87 87-47.872 0-87-39.129-87-87 0-47.87 39.128-87 87-87 19.53 0 37.6 6.517 52.156 17.478-11.785-14.373-26.097-28.97-42.277-42.65-46.514-39.325-108.31-70.827-169.25-70.827zm159.374 126c-31.658 0-57 25.342-57 57 0 31.66 25.342 57 57 57 31.657 0 57-25.34 57-57 0-31.658-25.343-57-57-57zm.627 25a32 32 0 0 1 32 32 32 32 0 0 1-32 32 32 32 0 0 1-32-32 32 32 0 0 1 32-32zm-188.695 82.212-.002.002c-14.436 1.135-30.9 3.255-49.707 6.645-4.754 1.14-9.01 1.893-12.92 2.193 20.238 3.297 46.28 5.704 67.19 10.52 12.69 2.922 23.3 6.953 28.476 10.99 2.588 2.018 3.724 3.745 4.19 5.28.463 1.531.552 3.344-.844 6.706-11.368 27.287-21.213 45.023-29.477 61.403-8.263 16.383-14.97 31.61-19.043 52.312-2.154 10.95-1.99 20.4.752 28.34s8.686 14.378 16.274 16.83c15.176 4.905 31.928-4.023 46.705-21.65 7.955-9.49 15.506-18.52 22.638-27.965 3.66-16.793 8.668-36.58 14.25-59.371-13.51 31.78-29.952 51.041-50.683 75.771-12.24 14.6-23.366 17.382-27.375 16.086-2.004-.648-3.481-1.784-4.791-5.576s-1.83-10.228-.106-18.988c3.684-18.72 9.43-31.78 17.453-47.682s18.299-34.453 30.024-62.598l.002-.004v-.005c2.605-6.27 3.24-12.909 1.449-18.829s-5.717-10.644-10.346-14.255c-9.258-7.22-21.703-11.16-35.506-14.338a266 266 0 0 0-8.603-1.817z"/></svg>