<svg xmlns="http://www.w3.org/2000/svg" viewBox="0 0 512 512"><path d="M282.857 37.012a5.71 5.71 0 0 0-5.523 5.281c-4.232 41.522-20.993 75.587-41.787 88.625a5.9 5.9 0 0 0-2.662 4.586l-.112 1.445c-.277 3.834 9.548 5.438 12.155 24.608 9.899.31 17.841.927 22.261 1.28h.002l4.563.354c7.845.597 18.782 1.437 31.146 2.807 5.403-18.938 15.47-18.981 15.735-22.771l.11-1.45a5.9 5.9 0 0 0-1.966-4.925c-18.65-15.922-30.285-52.074-28.43-93.762a5.68 5.68 0 0 0-5.105-6.078zM233.78 179.025c-27.943 0-64.98 3.645-91.045 21.08-32.284 21.59-46.26 58.518-52.25 91.444a32 32 0 0 1 4.32 2.209c5.493 1.778 27.467 5.844 61.72 5.844h2.21c26.893-.11 48.24-2.53 64.725-5.635a53.035 53.035 0 1 1 18.695 61.564c-32.738 6.84-65.432 8.156-85.597 8.156h-.121a415 415 0 0 1-55.4-3.492c-4.774-.674-9.734-1.469-14.64-2.507 3.845 9.347 88.05 16.574 162.245 16.574q7.611 0 15.047-.102c2.85-.066 6.088-.064 9.48-.064 21.469 0 51.39 1.081 71.19 6.771 26.948 7.745 45.421 37.29 52.138 46.805 4.862 6.806 16.984 9.324 26.52 9.324a33 33 0 0 0 10.44-1.369c12.794-4.684 26.827-22.64 26.827-32.24 0-9.06-30.817-48.86-31.457-65.666-1.823-49.731-8.573-114.433-39.389-131.957-34.45-19.58-102.293-23.614-123.617-25.315-7.016-.564-18.45-1.424-32.04-1.424zm50.35 99.922a35.357 35.357 0 0 0-46.283 33.627 35.357 35.357 0 0 0 35.369 35.303l-.012.055a35.357 35.357 0 0 0 10.926-68.985zM79.54 306.95a14.364 14.364 0 0 0-10.348 25.514c3.79 2.873 11.48 7.07 34.34 10.285a397 397 0 0 0 52.947 3.316h.079a431.7 431.7 0 0 0 71.498-5.757 52.74 52.74 0 0 1-7.844-27.745 389 389 0 0 1-61.379 4.819h-2.275c-39.356 0-65.311-5.172-70.184-7.924a14.36 14.36 0 0 0-6.834-2.508zm-4.06 65.08c-8.653 11.05-25.171 34.693-23.668 52.625.496 5.933 10.43 9.117 25.822 9.117 30.937 0 84.071-12.928 126.687-42.43l.254-.187c-24.01-.84-47.51-2.31-67.289-4.275-16.85-1.68-30.351-3.624-40.107-5.79a75.4 75.4 0 0 1-14.243-4.364 29 29 0 0 1-7.457-4.696z"/></svg>