<svg xmlns="http://www.w3.org/2000/svg" viewBox="0 0 512 512"><path d="M242.5 21.5c-25.192 3.245-47.28 32.015-47.28 68.78 0 20.28 7.039 38.25 17.5 50.75l10.25 12.25-15.69 2.94c-6.059 1.129-11.42 3.162-16.25 6.093l50.908 29.343.218.125c10.092 5.547 17.388 12.848 21.688 20.72 4.332 7.933 5.865 16.781 2.562 24.75-3.302 7.97-12.133 13.29-21.687 13.345-9.457.054-20.021-3.703-32.346-11.5-.13-.082-.245-.137-.375-.221l-52.312-30.06a193 193 0 0 0-4.157 14.56c-8.238 33.626-9.924 74.614-10.154 110.406H189.5l.625 8.627 11.28 149.78 96.69.001L308.03 342.5l.565-8.72h42c-.013-36.18-.378-77.737-7.844-111.624-4.05-18.384-10.197-34.295-18.812-45.75s-19.258-18.706-34.594-21.062l-16-2.438L283.5 140.25c10.008-12.437 16.72-30.184 16.72-49.97-.001-39.2-24.78-68.717-52.5-68.717-2.912 0-4.762-.121-5.22-.063zM20.813 85.78v21.626l200.875 115.5.187.094.188.125c10.572 6.74 18.417 8.804 22.53 8.78 4.116-.023 4.113-.723 4.563-1.81.45-1.09.63-4.324-1.72-8.626-2.348-4.304-7.01-9.362-14.436-13.406l-.094-.034-.094-.058zM417.78 273.405l-15.625 28.221-33.656-19.065c.355 8.144.575 16.235.688 24.188l22.906 13.03-15.471 27.94 114.97 15.124z"/></svg>