<svg xmlns="http://www.w3.org/2000/svg" viewBox="0 0 512 512"><path d="M40.598 20.314v.002c-11.602 0-21.008 9.406-21.008 21.008S28.996 62.33 40.598 62.33c1.788 0 3.523-.226 5.18-.646l54.972 54.97-46.223 46.223 46.924 65.783 15.217-10.85-28.316-39.7 18.289-18.29 186.084 272.387 2.203 1.084c53.664 26.42 111.6 49.15 183.537 58.05l11.496 1.425-1.045-11.541c-6.375-70.503-30.856-128.571-58.082-183.844l-1.088-2.211L157.08 109.38l18.432-18.433 39.586 28.395 10.892-15.186-65.652-47.09-46.373 46.373-53.992-53.994a20.9 20.9 0 0 0 1.63-8.123c0-11.602-9.404-21.008-21.005-21.008zM143.63 122.828l271.488 184.988c.395.807.78 1.617 1.176 2.424l-9.844 28.38-259.539-191.436L338.066 406.8l-33.15 10.129-184.83-270.557zm127.326 147.45L418.131 379.3l11.85-49.018 37.203 135.32-135.317-37.205 49.014-11.855L270.957 270.28z"/></svg>