<svg xmlns="http://www.w3.org/2000/svg" viewBox="0 0 512 512"><path d="M261.145 113.195a238.9 238.9 0 0 0-124 34.31c-23.68 14.18-39.06 32.91-48.52 53.76-3.15-2.26-6.22-4.57-9.09-6.87 8.51-7.78 15.77-17.83 19.36-27.12 4.24-10.86-.06-17.63-3-20.7-7.9-8.25-23.46-8.71-34.75-4.9a25.1 25.1 0 0 0-15.94 14.87c-3.16 8.47-1.81 18.961 3.84 28.79a46.4 46.4 0 0 0 4.59 6.47 8 8 0 0 1-1.7.11c-8.27-.44-16.88-7.07-19.48-9.57l-11.16 11.46c1.41 1.36 14.02 13.24 29.78 14.09 4.74.26 9.87-1.2 15-3.85 5.35 4.53 11.18 8.86 16.73 12.7-24.97 80.48 23.18 182.06 23.18 182.06h22.63l9.4-72.73 162.59 5.87 24.45 66.86h19l5.48-69.58c2.23.05 4.48.2 6.67.2 81.35 0 134.5-31.9 134.5-31.9v-41.49s-13.5-3.62-26.29-6.34c-10.78-2.33-12.251-35.28-28-61a80.5 80.5 0 0 1-24 7.18 105 105 0 0 1-15.41 1.3c-19.01 0-26.39-8.42-29.24-15.42-3.52-8.7-1.45-18.52 6.15-29.19a81 81 0 0 1 7.77-9.25 259.14 259.14 0 0 0-120.54-30.12zm185.45 17.31s-40.36 9-52.83 23.42c.02 0-28.111 27.253 3.298 27.26a90 90 0 0 0 13.042-1.12c51.2-7.62 36.49-49.56 36.49-49.56zm-371.18 24.88c4.11 0 7.6.88 8.92 2.26.73.76.11 2.75-.32 3.87-3.12 8.07-9.65 16.29-16.31 22.11a36.3 36.3 0 0 1-4.79-6.25c-3.21-5.57-4.21-11.24-2.75-15.19.97-2.57 2.96-4.33 6.09-5.38a29.2 29.2 0 0 1 9.16-1.42zm403.49.47s-6.81 0-15.92.82a47 47 0 0 1-13.28 22.9 117 117 0 0 1 7.44 14.09c25.25-9.43 21.79-37.81 21.79-37.81zm-72.8 78.16a9.05 9.05 0 0 1 9.05 9.05 9.05 9.05 0 0 1-9.05 9.05 9.05 9.05 0 0 1 0-18.1zm-5.25 108.28a326 326 0 0 1-36.57 2.97h-.02l-.34 4.38 18.15 49.16h24.44zm-230.15 1.1 19.46 55.41h26.24l-2.7-53.87z"/></svg>