<svg xmlns="http://www.w3.org/2000/svg" viewBox="0 0 512 512"><path d="M255.55 22.36c-30.93 0-56 25.07-56 56 0 30.926 25.07 56 56 56 30.928 0 56-25.074 56-56 0-30.93-25.072-56-56-56zM105.067 144.468v.002c-3.047.028-6.012.549-8.748 1.535-7.296 2.627-12.948 7.77-17.56 13.617-3.63 4.602-6.525 9.754-9.014 14.992-6.79-6.374-14.214-15.785-21.799-30.117l-15.91 8.418c10.115 19.112 20.596 31.962 31.291 40.066-.405 1.802-.907 3.66-1.164 5.364-2.005 13.302 2.915 24.966 9.639 34.736 5.34 7.757 11.824 14.87 18.13 22.367-7.496 15.76-11.349 32.49-11.367 49.365.07 28.777 11.284 56.825 32.082 80.245l3.655-13.118 17.34 4.832-25.13 90.18c20.858 6.423 41.04 6.52 61.62-1.072l18.726-66.73 17.33 4.865-8.89 31.69c17.887 4.99 36.672 7.578 55.605 7.657a212.7 212.7 0 0 0 36.81-3.396l-8.94-39.63 17.556-3.964 14.996 66.475c24.936 11.267 48.498 10.573 72.766 1.22l-25.115-78.986 17.152-5.453 4.969 15.635c21.796-38.09 68.758-29.083 91.826-40.08 11.686-3.894 5.42-69.873 4.916-73.04-.38-2.39-29.734-3.818-40.16-2.248-5.975.9-16.345-12.078-27.39-27.597-5.388-10.488-12.359-20.406-20.755-29.528-3.988-5.276-2.733-3.09-6.531-6.472.715 6.697 2.118 12.304 4.15 16.228l-15.984 8.278c-7.378-14.252-7.98-32.853-5.662-52.858 1.583-13.67 4.81-27.956 9.03-41.732-11.81 6.755-22.626 17.48-32.02 30.586-13.665 19.064-24.128 42.548-30.649 62.642l-17.119-5.554c2.777-8.56 6.2-17.656 10.256-26.836-14.467-6.574-35.469-9.76-57.428-8.826-23.852 1.01-48.83 6.717-68.043 16.2l-7.969-16.144c22.13-10.923 49.122-16.934 75.25-18.043a212 212 0 0 1 9.747-.19c20.69.087 40.373 3.378 56.275 10.78a227 227 0 0 1 7.125-12.535c-21.74-7.8-45.254-11.898-69.059-12.031-63.206.056-121.302 27.924-151.382 72.615-4.954-5.81-9.526-11.11-12.891-16-5.26-7.64-7.608-13.683-6.695-21.127 10.458 3.152 20.633 2.07 28.695-1.87 10.316-5.043 17.423-13.85 20.473-23.39 1.526-4.77 2.055-9.862.812-14.928-1.243-5.065-4.63-10.034-9.598-12.953-4.862-2.856-10.17-4.187-15.25-4.142zm.327 17.806h.002a7 7 0 0 1 1 .03c1.362.138 2.86.687 4.802 1.828.864.508.987.713 1.235 1.722.247 1.01.248 2.895-.475 5.157-1.447 4.523-5.712 10-11.234 12.7-4.346 2.126-9.373 2.917-15.66.847 2.173-5.033 4.823-9.985 7.824-13.788 3.257-4.13 6.74-6.828 9.527-7.832 1.045-.375 1.996-.622 2.979-.664zm278.156 98.647c8.835 0 16 7.163 16 16s-7.165 16-16 16c-8.838 0-16-7.164-16-16s7.162-16 16-16z"/></svg>