<svg xmlns="http://www.w3.org/2000/svg" viewBox="0 0 512 512"><path d="M433.79 59.602c-8.94.047-20.654 3.078-34.966 9.877C295.2 62.253 170.14 77.352 86.787 103.535c-60.407-27.913-70.403-.426-42.95 36.186C10.243 239.454 24.97 340.804 60.7 413.31c-11.01 47.632 16.965 45.497 41.172 26.45 170.77 9.1 281.831-16.52 349.881-68.665 24.01 19.23 41.66-6.006 31.867-36.856 11.922-71.81-9.069-167.31-36.092-233.78 13.362-23.472 8.021-40.975-13.738-40.858zM76.405 137.564c52.648 61.046 53.61 200.379 21.746 283.4 7.046-90.907 2.506-223.667-21.746-283.4z"/></svg>