<svg xmlns="http://www.w3.org/2000/svg" viewBox="0 0 512 512"><path d="M18.75 45.53v99.44l87.594 43.53 39.594-80.156zm254.594 71.22.937 29.28a159.8 159.8 0 0 0-45.03 15.19c25.205 19.134 48.264 40.869 68.405 64.75 32.97-2.95 64.408 14.304 78.596 44.124 2.312 4.858 4.298 10.327 5.625 15.72l1.78 7.248-.343.188c5.876 40.095-20.21 78.91-60.343 88.78-42.624 10.483-85.717-15.604-96.192-58.124-3.867-15.707-2.167-31.376 2.877-45.406-19.822-22.79-41.185-42.17-64.22-58.344l-.592.97c-.005.008.004.023 0 .03l-38.625 14.72 25.03 13.624c-5.954 16.32-9.346 33.89-9.688 52.188l-25.938 31.968 28.348-.656c3.185 18.025 9.384 35.013 18.029 50.438l-6.5 39.625 23.75-14.688a162 162 0 0 0 41.594 35.25l14.062 36.75L248 456.405c16.868 6.086 35.053 9.45 54 9.533l30.875 24.937L332 463.25c18.2-3.34 35.333-9.69 50.844-18.594l39.656 6.375-14.844-23.967a161.9 161.9 0 0 0 34.063-40.72L480 371.75l-25.156-13.687c5.622-16.04 8.791-33.22 9.029-51.125L490.596 274l-29.5.688a160.1 160.1 0 0 0-17.282-47.907l6.907-42.185-25.315 15.625a162 162 0 0 0-38.875-33.158l-15.217-39.782-14.062 25.75c-15.873-5.706-32.888-8.982-50.625-9.404l-33.281-26.875zm-120.03 18.875-6.876 13.875C208.535 181.288 251.48 218.91 287 267.906a40 40 0 0 1 3.594-1.529 39.7 39.7 0 0 1 13.687-2.408c.65 0 1.292.027 1.94.06 15.514.814 29.87 10.696 35.5 26.125 7.503 20.573-3.255 43.572-23.844 51.065-20.59 7.49-43.62-3.21-51.125-23.783-4.79-13.134-2.123-27.243 5.78-37.688-34.075-47.307-74.228-82.699-134.376-113.47l-6.094 12.314c43.22 21.705 81.69 52.072 115.344 91.812l3.815 4.469-2.377 5.344c-5.353 12.042-7.225 25.748-3.906 39.217 8.07 32.758 40.718 52.523 73.593 44.437 32.89-8.09 53.232-40.94 45.19-73.594-.99-4.02-2.645-8.584-4.344-12.154-11.388-23.935-37.086-37.296-64.156-33.094l-5.284.815-3.375-4.096c-35.759-43.51-81.95-79.966-133.248-106.123zm151 147a21.6 21.6 0 0 0-7.345 1.313c-11.115 4.043-16.694 16.058-12.658 27.125 4.037 11.065 16.073 16.638 27.187 12.593 11.114-4.044 16.693-16.027 12.656-27.094-3.027-8.3-10.55-13.52-18.81-13.906a20 20 0 0 0-1.031-.029z"/></svg>