<svg xmlns="http://www.w3.org/2000/svg" viewBox="0 0 512 512"><path d="M43.53 15.75c-15.73 0-28.31 12.583-28.31 28.313 0 14.085 10.093 25.644 23.5 27.906L42.689 68 68.81 41.906l2.625-2.625C69.188 25.861 57.629 15.75 43.529 15.75zm33.72 44.125-17 17c15.885 39.37 43.45 66.684 78.75 87.406a513 513 0 0 1 25.438-24.935C141.95 104.243 112.903 77.05 77.25 59.875zm245.344 19.154-51.25 4.315c-79.356 48.134-143.879 108.1-186.721 186.529l-4.309 51.47 44.155-18.656-2.94-34.093-.25-3.063 1.625-2.625c35.94-58.47 79.93-109.41 141.5-141.25l2.407-1.25 2.687.25 34.125 2.906 18.97-44.529zm-62.438 66.377c-10.008 5.886-19.5 12.338-28.562 19.313 46.688 47.93 87.208 108.588 114.72 166.5l11.248 23.717-23.718-11.28c-57.995-27.554-117.918-67.571-165.688-113.908a497 497 0 0 0-20.625 29.281c101.918 94.91 227.051 177.304 347.846 234.69-57.063-120.125-140.04-246.179-235.22-348.313zm-43.03 31.22c-13.369 11.704-25.72 24.58-37.282 38.436 39.36 38.452 88.085 72.83 136.687 98.844-26.054-48.633-60.753-97.846-99.404-137.28z"/></svg>