<svg xmlns="http://www.w3.org/2000/svg" viewBox="0 0 512 512"><path d="M382.957 22.021v.002c-2.618.033-5.138.96-7.26 3.082l-67.88 67.883 22.626 22.627 67.883-67.883c5.657-5.657 2.83-14.142-2.828-19.8-3.535-3.534-8.178-5.965-12.541-5.91zm-131.71 37.026-21.92 21.92 203.648 203.646 21.92-21.92-11.315-11.314-181.02-181.02-11.31-11.312zm-23.335 45.959-55.86 55.863v90.508l-22.628 22.63c-11.314 11.314-11.315 33.94.092 45.347l45.164 45.162c11.314 11.314 33.94 11.314 45.254 0l22.627-22.63h90.51l55.863-55.86zm245.557 7.525-.002.002c-2.62.033-5.138.96-7.26 3.082l-67.88 67.883 22.626 22.625 67.883-67.88c5.657-5.658 2.83-14.144-2.828-19.802-3.536-3.535-8.176-5.965-12.54-5.91zM148.08 349.252l-128 127.998 12.727 12.729 128-128z"/></svg>