<svg xmlns="http://www.w3.org/2000/svg" viewBox="0 0 512 512"><path d="M416.125 42.406c-57.576.457-104.863 25.804-144.812 64.875-41.984 41.063-75 97.61-100 155.5.78 4.503 3.06 8.946 7.093 13.658 5.158 6.024 13.183 12.112 23.188 17.592 20.01 10.962 47.79 19.546 75.5 24.471s55.505 6.21 75.156 3.437c9.825-1.386 17.538-3.91 21.813-6.562s4.916-3.957 4.812-6.625l.72-.03c-3.407-42.827-6-88.798.092-131.94 2.82-19.973 7.667-39.434 15.22-57.624-31.574 31.44-62.919 65.426-86.844 94.72 35.417-70.199 86.2-121.398 141.125-168.97-11.376-1.71-22.42-2.584-33.063-2.5zM155.211 238.994a407 407 0 0 0-13.334.131c-23.138.575-44.228 2.91-61.877 7.188-23.532 5.702-40.465 14.889-48.78 26.03-8.316 11.145-10.08 24.667-.97 45.532 32.86 75.263 117.185 130.26 207.844 148.594 90.66 18.33 186.107.147 242.279-66.75 13.59-16.185 15.298-29.313 9.94-43.221s-19.588-28.878-40.782-42.75c-14.745-9.65-32.683-18.736-52.75-27.03 1.506 22.59 3.556 44.878 5.125 65.968v.218c.607 11.402-5.49 21.587-14.344 27.94-8.852 6.353-20.268 10.078-33.437 12.404-26.337 4.654-60.026 3.399-93.344-2.187-33.317-5.585-66.084-15.467-90.28-29.313-12.096-6.923-22.144-14.849-28.874-24.469-6.73-9.617-9.762-21.555-6.596-33.375l.096-.375.125-.373c7.637-21.206 16.308-42.79 26.094-64.094a634 634 0 0 0-6.133-.068zm6.633 46.662A839 839 0 0 0 153.03 309c-1.595 6.246-.4 11.407 3.906 17.563 4.374 6.25 12.28 12.923 22.844 18.968 21.128 12.09 52.401 21.781 84.096 27.096 31.694 5.314 64.016 6.279 87 2.219 11.492-2.032 20.53-5.42 25.78-9.19 5.25-3.766 6.864-6.725 6.595-11.779a2544 2544 0 0 0-1.688-21.25c-7.448 4.03-16.47 6.366-26.718 7.812-22.732 3.206-51.79 1.664-81.03-3.533-29.242-5.196-58.5-14.055-81.22-26.5-11.36-6.222-21.122-13.338-28.375-21.81a59 59 0 0 1-2.375-2.94z"/></svg>