<svg xmlns="http://www.w3.org/2000/svg" viewBox="0 0 512 512"><path d="M256 106c-33.81 0-61.887 22.69-71.25 53.438C174.532 154.22 163.258 151 151 151c-41.42 0-75 33.58-75 75 0 1.784.347 3.404.469 5.156C41.285 243.386 16 276.65 16 316c0 49.706 40.294 90 90 90h300c49.706 0 90-40.294 90-90 0-39.35-25.285-72.615-60.469-84.844.123-1.752.469-3.373.469-5.156 0-41.42-33.58-75-75-75-12.258 0-23.532 3.223-33.75 8.438C317.887 128.69 289.81 106 256 106zm-60 90 60 60 60-60 30 30-60 60 60 60-30 30-60-60-60 60-30-30 60-60-60-60z"/></svg>