<svg xmlns="http://www.w3.org/2000/svg" viewBox="0 0 512 512"><path d="M457.375 36.547c-9.446-.098-30.693 31.456-42.25 33.07-11.852 1.657-8.39-19.023-17.549-12.142-7.652 5.75-18.884 33.342-32.053 39.498-11.335 5.299-19.573-26.038-26.584-16.57-7.455 10.065-6.413 33.78-11.787 49.074.08.059.165.114.246.173 25.243 18.326 43.096 43.103 48.528 71.131 7.73-8.358 14.25-17.61 15.488-25.949 3.088-20.813 62.135-12.251 47.195-32.197-27.568-36.802 41.309-30.188 28.032-47.496-22.762-29.677 4.282-41.961-6.358-57.008-.764-1.08-1.748-1.572-2.908-1.584zm-247.414 75.892c-8.417.033-16.663.576-24.691 1.569 1.777 12.85 3.215 26.112.218 37.14-6.884-6.133-12.13-24.14-15.92-34.564a191 191 0 0 0-19.314 5.023c2.709 10.222 9.794 31.755 7.389 40.432-9.178-3.486-19.573-22.29-26.504-33.146a161 161 0 0 0-16.07 8.337c5.023 11.3 18.823 27.71 18.43 40.47-14.498-3.408-26.126-18.53-36.116-28.095-23.318 19.192-36.824 43.744-36.781 70.262.036 21.102 8.66 40.891 23.959 57.676 15.388 1.964 37.95 4.246 49.459 13.187-9.8 9.368-45.21 8.725-66.891 10.291-15.33 17.915-23.443 38.361-23.486 59.184.132 63.935 74.729 115.532 166.617 115.246 91.889-.286 166.27-52.347 166.138-116.283-.109-23.522-10.514-46.44-29.83-65.705-17.446-3.716-49.413-1.485-61.6-10.54 13.87-7.178 35.467-8.297 51.895-7.452 14.634-16.664 22.843-36.111 22.809-56.762-.048-28.663-15.906-54.91-42.867-74.484s-64.843-31.949-106.844-31.786zm2.496 129.729c23.385-.074 42.386 19.075 42.434 42.77.048 23.694-18.87 42.963-42.256 43.037S170.25 308.9 170.2 285.205c-.048-23.694 18.87-42.962 42.256-43.037z"/></svg>