<svg xmlns="http://www.w3.org/2000/svg" viewBox="0 0 512 512"><path d="M98.156 22.656V438.53H79.721l30.529 58.065 30.53-58.063h-17.217v-63.467H152.5v-36.343h-28.937v-69.66H152.5V232.75h-28.937v-69.625H152.5v-36.346h-28.937V58.846H152.5v-36.19zm73.03 0V438.53h-15.624l30.532 58.065 30.53-58.063h-17.718v-63.467h26.625v-36.343h-26.625v-69.66h26.625V232.75h-26.623v-69.625h26.625v-36.346h-26.625V58.846h26.625v-36.19zm73.033 0V438.53H230l30.53 58.065 30.533-58.063H272.5v-63.467h29.594v-36.343H272.5v-69.66h29.594V232.75H272.5v-69.625h29.594v-36.346H272.5V58.846h29.594v-36.19zm76.56 0V438.53h-15.56l30.529 58.065 30.565-58.063h-17.909v-63.467h27.25v-36.343h-27.25v-69.66h27.25V232.75h-27.25v-69.625h27.25v-36.346h-27.25V58.846h27.25v-36.19zm73.565 0V438.53h-14.69l30.565 58.065 30.529-58.063H422V22.656z"/></svg>