<svg xmlns="http://www.w3.org/2000/svg" viewBox="0 0 512 512"><path d="M298.736 21.014v.002c-99.298 0-195.928 104.647-215.83 233.736-7.074 45.887-3.493 88.68 8.512 124.787a243 243 0 0 1-11.467-20.033c-16.516-32.335-24.627-65.38-25-96.274-11.74 36.254-8.082 82.472 14.483 126.645 27.7 54.227 81.562 91.94 139.869 97.502a137 137 0 0 0 17.365 1.107c99.298 0 195.928-104.647 215.828-233.736 9.28-60.196.23-115.072-22.133-156.506 21.625 21.867 36.56 45.786 44.617 69.496.623-30.408-14.063-65.766-44.209-95.806-33.717-33.598-77.228-50.91-114.996-50.723a139 139 0 0 0-7.039-.197zm-5.601 36.359h.002c40.223 0 73.649 20.342 95.7 53.533 15.916 42.888 12.511 108.315.981 147.858-16.02 54.944-40.597 96.035-79.77 126.107-41.79 32.084-98.447 24.39-115.874-5.799a43.4 43.4 0 0 1-3.38-7.385c11.725 14.06 38.188 14.945 61.817 1.301 25.48-14.71 38.002-40.726 27.967-58.107-10.036-17.384-38.826-19.549-64.307-4.838-9.83 5.676-17.718 13.037-23.138 20.934a82 82 0 0 1 1.625-3.88c-18.687 24.49-24.562 52.126-12.848 72.417 38.702 45.923 98.07 25.503 140.746-6.426 37.95-28.392 72.32-73.55 89.356-131.988a296 296 0 0 0 3.467-13.008c-.286 2.218-.59 4.442-.934 6.678-16.807 109.02-98.412 197.396-182.272 197.396-35.644 0-65.954-15.976-87.74-42.71-26.492-48.397-15.989-142.082 4.674-185.15 26.745-55.741 66.133-122.77 134.324-116.804 46.03 4.027 63.1 58.638 39.13 116.22-8.61 20.686-21.194 39.314-36.212 54.313 24.91-16.6 46.72-42.13 59.572-73 23.97-57.583 6.942-113.422-39.128-116.805-85.737-6.296-137.64 58.55-177.543 128.485a319 319 0 0 0-20.977 60.707 263 263 0 0 1 2.492-22.652c16.804-109.02 98.41-197.397 182.27-197.397z"/></svg>