<svg xmlns="http://www.w3.org/2000/svg" viewBox="0 0 512 512"><path d="M228.223 21.195q-1.034.011-2.036.055c-10.697.47-18.53 3.562-24.062 9.094-46.247 46.247-64.492 89.795-64.344 129.062.15 39.268 18.764 75.295 49.846 106.375 30.724 30.723 69.187 47.024 110.062 45.94 31.945-.85 65.598-12.348 98.27-36.825a133 133 0 0 0-3.275-5.392c-10.605-16.437-24.046-28.606-36.276-34.768q-.004 0-.01-.004a127 127 0 0 1-7.132-2.974l-1.344-.446-.47-.414c-22.308-10.453-47.853-29.242-72.52-53.91-23.78-23.78-42.102-48.52-52.776-70.156-5.336-10.82-8.82-20.845-9.84-30.15s.608-18.744 7.17-25.307c4.922-4.922 11.464-7.07 18.352-7.404a44 44 0 0 1 6.957.23c9.305 1.022 19.332 4.508 30.15 9.844 21.638 10.673 46.377 28.991 70.157 52.77 20.19 20.191 36.426 41.097 47.408 60.165 10.354 2.306 19.776 6.257 28.254 11.56-11.875-26.926-32.737-57.202-60.702-85.165-31.503-31.503-65.977-54.002-95.25-64.78-13.72-5.053-26.26-7.5-36.59-7.4zm224.779 134.858c-8.155 0-14.766 6.611-14.766 14.765 0 8.156 6.61 14.766 14.766 14.766s14.766-6.61 14.766-14.766c0-8.153-6.609-14.764-14.764-14.765zM321.854 183.33l35.82 31.658c18.85 6.934 36.814 22.84 50.713 44.38 14.405 22.33 24.3 50.874 24.3 82.232v42.312c-2.678-3.76-7.064-6.223-12.03-6.223-8.157 0-14.766 6.61-14.766 14.764 0 8.156 6.61 14.768 14.765 14.768 4.968 0 9.354-2.461 12.031-6.223v93.088h32.278v-21.158a19.9 19.9 0 0 0 8.797 2.054c11.067 0 20.039-8.973 20.039-20.04 0-11.069-8.972-20.04-20.04-20.04-3.16 0-6.14.752-8.796 2.055V341.6c0-40.176-6.676-80.88-21.861-110.422-15.184-29.544-37.236-47.848-72.166-47.848zm-164.073 77.2-27.06 12.72.218.22c-3.374 3.36-3.611 5.754-1.562 11.592 2.05 5.84 7.549 13.72 15.219 21.375 7.492 7.483 15.54 12.637 21.685 14.625 6.148 1.99 8.971 1.4 11.377-1l.094.094 12.625-26.875a190 190 0 0 1-15.97-14.279c-5.937-5.937-11.49-12.097-16.624-18.47zm-128 16.376c-4.147.122-6.81 1.282-8.375 2.844-1.952 1.953-3.558 5.7-3.5 12.188.058 6.487 1.905 15.2 5.721 24.968 7.63 19.535 22.976 43.288 44.719 65.03 21.743 21.745 45.757 37.354 65.593 45.252 9.917 3.947 18.778 5.924 25.375 6.062 6.596.138 10.365-1.428 12.25-3.312 2.485-2.486 3.91-7.838 1.717-17.657-1.543-6.92-4.896-15.422-9.808-24.717-10.077 6.655-23.1 6.936-35.065 3.063-14.03-4.542-28.03-14.197-40.906-27.065-12.703-12.693-22.843-26.032-27.72-39.935-4.204-11.987-3.644-25.44 3.72-36.031-9.252-4.857-17.694-8.16-24.563-9.659-3.652-.795-6.667-1.103-9.156-1.029zm80.19 6.094-25.565 12-4.625 2.188-.125-.094c-5.077 5.687-5.392 11.384-2.25 20.344 3.352 9.555 11.822 21.42 23.315 32.906 11.318 11.31 23.5 19.284 33.435 22.5 9.1 2.946 15.123 2.408 19.78-1.406l-.155-.25 2.19-4.625 12.25-26.094a38 38 0 0 1-7.69-1.625c-10.238-3.312-20.102-10.152-29.154-19.19-8.878-8.864-16.05-18.217-19.625-28.406A33.8 33.8 0 0 1 109.97 283zm275.285 27.602c-11.067 0-20.04 8.97-20.04 20.04s8.973 20.04 20.04 20.04 20.04-8.971 20.04-20.04c0-11.07-8.973-20.04-20.04-20.04z"/></svg>