<svg xmlns="http://www.w3.org/2000/svg" viewBox="0 0 512 512"><path d="M222.045 81.043c-45.33-1.41-79.645 21.656-79.645 21.656l23.2 34.602s49.6-33.2 99.9.1l23-34.801c-22.969-15.22-45.85-20.917-66.455-21.557zm179.476 0C380.901 81.683 358 87.381 335 102.6l23.1 34.8c50.2-33.3 99.8-.1 99.8-.1l23.3-34.6s-34.315-23.066-79.679-21.657zM216 145.1c-20.7 0-39.7 7.4-54.1 19.7L24.98 272.9l7 60.2 20.7-2.4-5.66-48.7 87.48-69.1q-.9 6-.9 12.3c0 44.2 36.8 80.2 82.4 80.2 18.6 0 35.6-6 49.4-16-10.2 26.2-19.2 53.9-16.3 82.8l43.9-20.4 6.2 5.8s34.4 31.9 75.3-.7l5.7-4.5 31.8 12.9c-.7-21.2-5.4-41.5-12.1-60.2 2.3.2 4.7.3 7.1.3 45.6 0 82.4-36 82.4-80.2 0-44.1-36.8-80.1-82.4-80.1-36.8 0-68 23.4-78.6 55.7h-33.8c-10.7-32.3-41.8-55.7-78.6-55.7zm0 20.8c33.9 0 61.6 26.5 61.6 59.3 0 32.9-27.7 59.4-61.6 59.4s-61.6-26.5-61.6-59.4c0-17.6 7.9-33.3 20.5-44.2l4.2-3.3c10.3-7.4 23.1-11.8 36.9-11.8zm191 0c33.9 0 61.6 26.5 61.6 59.3 0 32.9-27.7 59.4-61.6 59.4-5.8 0-11.3-.8-16.6-2.2-14.2-30.3-32.3-54.6-43.9-68.6 5.5-27.3 30.6-47.9 60.5-47.9zm-22.9 215c-43.1 30.1-80.3 10.9-95.2.4L188.7 428c17.7 11 87.3 48 154.1-7 56 41 118.1 9 135.9-2z"/></svg>