<svg xmlns="http://www.w3.org/2000/svg" viewBox="0 0 512 512"><path d="M18 18v26.697c32.28 34.526 68.162 74.924 103.27 110.033a930 930 0 0 0 22.29 21.577c.627-15.512 2.588-30.3 6.32-43.92-1.05-1.043-2.097-2.06-3.15-3.116C112.02 94.567 75.78 53.63 42.344 18zm451.656 0C436.22 53.63 399.978 94.565 365.27 129.27c-1.053 1.056-2.1 2.074-3.15 3.117 3.732 13.62 5.693 28.408 6.32 43.92a930 930 0 0 0 22.29-21.578C425.837 119.619 461.72 79.22 494 44.695V18zM256 73c-37.004 0-59.39 12.048-73.865 31.926s-20.815 48.9-20.815 82.76c0 32.733 12.526 74.317 31.2 106.765 18.674 32.45 43.356 54.31 63.48 54.31s44.806-21.86 63.48-54.31c18.674-32.447 31.2-74.03 31.2-106.762 0-33.86-6.34-62.883-20.815-82.761C315.39 85.048 293.005 73 256 73zm0 33.84c28.723 0 52.2 23.475 52.2 52.2 0 28.721-23.477 52.2-52.2 52.2s-52.2-23.479-52.2-52.2c0-28.725 23.477-52.2 52.2-52.2zm0 18a34.06 34.06 0 0 0-34.2 34.2 34.065 34.065 0 0 0 34.2 34.2 34.065 34.065 0 0 0 34.2-34.2 34.06 34.06 0 0 0-34.2-34.2zm0 163.8a17.28 17.28 0 0 1 17.28 17.28A17.28 17.28 0 0 1 256 323.2a17.28 17.28 0 0 1-17.28-17.28A17.28 17.28 0 0 1 256 288.64zm-21.295 73.817c-1.627 12.586 15.293 28.578 23.174 34.924 13.667 11.006 17.264 17.433 17.57 28.746-1.237 20.46-24.714 30.12-40.117 22.61-10.508-4.9-14.113-13.668-18.062-26.34-2.847-9.13-8.66-17.696-16.848-23.452-6.236-4.133-14.468-11.77-21.254-5.674-4.812 8.384 5.022 12.232 9.338 21.862.937 5.91.793 9.66.863 13.84.095 16.42 7.29 59.421 66.315 60.976 35.535.936 64.83-31.247 66.322-62.418.21-4.415 1.246-47.05-44.97-64.967-6.755 2.702-13.774 4.198-21.036 4.198-7.355 0-14.46-1.536-21.295-4.305z"/></svg>