<svg xmlns="http://www.w3.org/2000/svg" viewBox="0 0 512 512"><path d="M85.875 20.97c-2.23 31.597-95.21 45.233-4.812 99.03-23.242-46.488 64.565-57.551 4.812-99.03zM278.529 23c-32.003 14.21-22.884 55.257-8.185 73 28 33.796-31.348 52.158-49.063-5.25-5.377 17.623-24.533 21.47-35.625 7.563-7.015-8.797-19.48-31.604-12.25-53.72-20.884 14.736-31.685 45.047-19.28 63.063 29.283 42.526-11.72 75.307-58.97 40.906 36.456 47.748 21.176 119.87-16.344 144.25 14.684-32.04 8.242-88.19-22.216-99.28 14.39 42.617-16.59 75.378-36.75 66.155v235.034h52.56c6.15-23.78 16.033-46.737 30.5-61.442 16.928-17.203 41.298-29.383 77.782-36.25l15.593-2.935-10.123-12.221c-20.233-24.38-33.406-59.517-33.406-98.654 0-37.723 12-71.733 30.906-95.94 18.906-24.205 44.29-38.53 72.125-38.53 27.837 0 53.19 14.325 72.096 38.53 18.905 24.208 30.904 58.218 30.904 95.94 0 38.246-12.072 73.188-31.373 97.375l-10.03 12.56 15.874 2.5c39.988 6.292 65.567 18.497 82.5 35.844 14.297 14.647 23.413 38.987 28.625 63.22h50.75V238.78c-7.012-23.793-17.18-46.352-32.625-51.091 19.492 39.967 1.278 129.342-61.906 141.312 26.715-22.383 45.214-78.483 35.03-101.594-34.787 47.587-79.102 2.554-34.437-43.22 29.676-30.412 39.924-68.813 10.5-110.967 9.104 40.185-37.766 84.929-69.875 56.654-21.68-19.09-10.235-60.918 23.75-71.844-26.954-9.334-47.72 2.801-52.562 21.596-17.667-17.09-40.85-28.255-34.475-56.625zm-74.154 242.844c-9.215-.212-19.062 3.634-29.062 13.279 14.592 29.555 39.885 25.691 67.937 13.19-9.878-14.53-23.517-26.117-38.875-26.47zm99.094 0c-15.36.352-28.997 11.938-38.875 26.47 28.05 12.5 53.343 16.364 67.935-13.191-10-9.645-19.844-13.491-29.058-13.28zm-106.44 84.906c19.292 61.366 100.939 60.7 121.692 0-42.215 8.574-80.722 9.61-121.692 0z"/></svg>