<svg xmlns="http://www.w3.org/2000/svg" viewBox="0 0 256 256"><path d="M128 18C67.355 18 18 67.355 18 128s49.355 110 110 110 110-49.355 110-110S188.645 18 128 18zm0 18c50.917 0 92 41.083 92 92s-41.083 92-92 92-92-41.083-92-92 41.083-92 92-92zm0 19.9q-8.7 0-18.1 1.87-9.4 1.88-20.74 5.82v29.43q9.56-6.18 18.34-9.28 8.8-3.18 16.4-3.18 8.1 0 12.6 3.75 4.5 3.65 4.5 10.21 0 4.32-2.5 8.58-2.5 4.4-7.8 9.2l-6 5.5q-9.9 9.2-13 15.2-3.1 5.9-3.1 13.6v4.5h33.8v-4.2q0-4.2 2-7.7 1.9-3.5 8.3-9.3l6-5.4q8.8-8.3 12.5-15.5 3.6-7.4 3.6-16.54 0-17.9-12-27.19-12-9.37-34.8-9.37zM108.6 165v33.4h33.8V165z"/></svg>