<svg xmlns="http://www.w3.org/2000/svg" viewBox="0 0 512 512"><path d="M256.97 41.688c-16.076 0-30.897 8.46-42.22 23.343-11.323 14.886-18.656 36.051-18.656 59.625 0 23.575 7.332 44.74 18.656 59.625 11.324 14.886 26.144 23.377 42.22 23.377 16.075 0 30.926-8.49 42.25-23.375 11.323-14.884 18.655-36.05 18.655-59.625 0-23.574-7.333-44.74-18.656-59.625-11.325-14.883-26.175-23.342-42.25-23.342zm-34.533 78.937h18.688V166h-18.687zm50.72 0h18.687V166h-18.688zm-208.47 7-.005.002.004.002zm-.001.004L21.656 248.5c-.01.035-.022.06-.031.094-2.42 9.275-.887 15.685 2.375 20.656 3.274 4.99 8.77 8.62 15.063 10.188 6.292 1.565 13.143.978 18.687-1.813s10.055-7.5 12.438-15.937l.124-.407.157-.435 26.279-67.75 3.064-7.875 8.157 2.25 54.873 15.185 5.656 1.563 1.063 5.75 13.906 75c-34.572 4.345-65.651 11.721-91.281 21.435-21.318 8.08-38.92 17.747-51.69 29.19s-20.969 25.266-20.969 40.5c0 15.233 8.2 29.09 20.97 40.529 12.77 11.443 30.37 21.077 51.689 29.156 42.634 16.16 100.356 25.877 164.125 25.877 63.767 0 121.52-9.717 164.156-25.875 21.316-8.078 38.915-17.712 51.685-29.154s20.97-25.3 20.97-40.531c0-15.235-8.2-29.058-20.97-40.5-12.77-11.444-30.37-21.11-51.687-29.19-25.57-9.69-56.585-17.054-91.065-21.404l13.907-75.031 1.062-5.75 5.656-1.565 54.877-15.185 8.157-2.25 3.062 7.873 26.28 67.75.158.437.125.408c2.382 8.437 6.862 13.147 12.406 15.938 5.543 2.79 12.426 3.38 18.72 1.812s11.786-5.197 15.06-10.187c3.262-4.97 4.797-11.38 2.376-20.656l-.03-.094-43.032-120.875-115.75 29.469c-3.794 14.508-10.071 27.624-18.344 38.5-14.097 18.53-34.41 30.75-57.125 30.75s-42.999-12.22-57.096-30.75c-8.213-10.797-14.447-23.805-18.25-38.19zm122.187 175.775h.002l3.406 18.346c-7.998 1.91-15.457 4.145-22.25 6.72-11.607 4.4-21.314 9.67-28.654 16.25-7.34 6.577-12.565 15.068-12.565 24.686 0 9.62 5.225 18.11 12.565 24.688s17.046 11.85 28.654 16.25c23.218 8.798 54.146 13.937 88.283 13.937s65.065-5.137 88.282-13.935c11.608-4.4 21.347-9.673 28.687-16.25s12.533-15.072 12.533-24.69-5.193-18.108-12.533-24.685c-7.34-6.58-17.077-11.85-28.685-16.25-6.72-2.55-14.097-4.76-22-6.659L326 303.438c33.72 4.197 63.78 11.319 87.844 20.44 19.844 7.522 35.563 16.44 45.812 25.625 10.25 9.185 14.78 18.024 14.78 26.594.002 8.57-4.53 17.41-14.78 26.593s-25.968 18.104-45.812 25.625c-39.69 15.04-95.677 24.657-157.53 24.657-61.855 0-117.813-9.617-157.502-24.659-19.843-7.52-35.594-16.44-45.843-25.625-10.25-9.182-14.75-18.023-14.75-26.593s4.5-17.41 14.75-26.594c10.248-9.185 25.999-18.103 45.844-25.625 24.12-9.143 54.248-16.278 88.06-20.47zm6.846 36.782v.002l2.25 12.218v11.78l.31.002c-.097.413-.156.83-.156 1.25 0 9.76 26.975 17.656 60.25 17.656s60.25-7.898 60.25-17.656c0-.423-.09-.837-.187-1.25h.312V353.25l2.406-13c6.863 1.676 13.195 3.59 18.815 5.72 10.134 3.84 17.988 8.367 22.808 12.686 4.82 4.32 6.346 7.795 6.346 10.75s-1.524 6.463-6.344 10.78c-4.82 4.32-12.676 8.849-22.81 12.691-20.272 7.68-49.434 12.717-81.658 12.717-32.223 0-61.386-5.038-81.657-12.721-10.135-3.84-17.99-8.366-22.81-12.685-4.82-4.318-6.346-7.827-6.346-10.782s1.526-6.432 6.346-10.75c4.82-4.32 12.675-8.846 22.81-12.687 5.688-2.157 12.105-4.093 19.065-5.783z"/></svg>