<svg xmlns="http://www.w3.org/2000/svg" viewBox="0 0 512 512"><path d="M496.936 14.063c-95.14 3.496-172.295 24.08-231.28 55.812l-29.47 49.28-4.967-28.092c-10.535 7.401-20.315 15.22-29.315 23.406l-14.685 45.06-5.033-25.156c-40.65 45.507-60.41 99.864-58.938 155.906 47.273-93.667 132.405-172.726 211.97-221.154l9.718 15.97c-75.312 45.839-156.388 121.203-202.188 208.25h12.156c19.78-12.02 39.16-26.859 58.407-43.44l-30.282 1.595 54.22-23.094c46.874-43.637 93.464-94.973 143.312-138.279l-24.47-5.191 56.5-21.03c26.854-20.485 54.8-37.845 84.345-49.843zM59.529 312.029v30.409H194v-30.409zm20.377 49.096L47.25 389.813l-22.28 84.966 14.53 15.877h177.22l14.56-15.875L209 389.814l-30.906-28.687H79.906z"/></svg>