<svg xmlns="http://www.w3.org/2000/svg" viewBox="0 0 512 512"><path d="m93.69 18 110.414 254.676c3.594-2.915 7.82-5.232 12.498-6.848 3.456-1.194 7.192-1.995 11.056-2.187a36 36 0 0 1 3.49.005L124.811 18zm136.28 263.625a19 19 0 0 0-1.472.018c-1.98.102-4.027.51-6.02 1.2-3.981 1.375-7.573 3.934-9.298 5.989-.955 1.136-1.186 1.652-1.266 1.772v.001l21.088 44.461 5.992-.43 23.932-3.275-19.387-40.338c-2.84-5.532-5.964-7.66-9.418-8.738-1.297-.404-2.698-.618-4.152-.658zm228.368 43.068v.004c-.995-.003-2.05.103-3.164.332L26.699 381.85c-9.594 1.728-7.954 25.957.227 29.803 24.032 15.5 22.984 79.762 38.904 79.762 6.29 0 2.062-75.122-7.084-84.115l21.992-3.01c22.608 17.032 21.907 78.791 37.514 78.791 6.092 0 2.32-70.45-6.232-83.068l20.42-2.795c23.035 16.58 22.23 79.1 37.933 79.1 6.15 0 2.247-71.777-6.475-83.407l21.248-2.906c21.777 17.886 21.282 78.146 36.698 78.146 5.99 0 2.442-68.09-5.805-82.375l20.848-2.85c22.166 17.489 21.57 78.464 37.076 78.464 6.037 0 2.384-69.198-6.006-82.717l22.75-3.113c21.097 18.56 20.767 77.586 36.023 77.586 5.912 0 2.53-66.302-5.488-81.762l21.207-2.904c21.477 18.188 21.059 77.9 36.405 77.9 5.954 0 2.478-67.295-5.668-82.106l21.826-2.986c20.377 19.247 20.228 76.928 35.31 76.928 5.822 0 2.63-64.345-5.127-81.06l21.588-2.954c20.726 18.918 20.49 77.25 35.658 77.25 10.89-34.01-1.778-72.33-15.296-101.994-1.355-2.71-4.495-4.75-8.807-4.764z"/></svg>