<svg xmlns="http://www.w3.org/2000/svg" viewBox="0 0 512 512"><path d="M256.855 41.775c-52.02 0-94.19 53.19-94.19 118.8a146 146 0 0 0 6.78 44.33q16.49 3.72 34.61 9c22 6.42 39.79 12.78 48.51 16.05 8.77-3.27 26.56-9.63 48.56-16.05q23.2-6.75 43.72-11.05a146.3 146.3 0 0 0 6.16-42.32c0-65.62-42.13-118.76-94.15-118.76zm-158.73 169.67v74.92a71.14 71.14 0 0 1 0 135.28v7c64.49 0 154.44 41.58 154.44 41.58s89.99-41.55 154.44-41.55v-9.68a71.24 71.24 0 0 1-42.26-65 71.24 71.24 0 0 1 42.26-65v-77.55c-64.49 0-154.44 35.64-154.44 35.64s-89.95-35.64-154.44-35.64zm-22.02 87.4a55.16 55.16 0 1 0 55.16 55.15 55.16 55.16 0 0 0-55.16-55.15zm359.79 0a55.16 55.16 0 1 0 55.16 55.15 55.16 55.16 0 0 0-55.15-55.15z"/></svg>