<svg xmlns="http://www.w3.org/2000/svg" viewBox="0 0 512 512"><path d="M258.186 21.076c-61.262-.17-122.585 23.086-169.264 69.766-79.875 79.875-90.355 202.082-33.037 294.03-21.126-58.597-5.07-136.434 43.875-204.518-26.864 54.273-23.788 119.52 8.705 171.64-16.072-44.577-3.09-104.19 35.502-155.568-22.22 40.8-20.71 91 4.105 130.804-13.956-38.71 1.843-92.823 43.24-134.222 43.876-43.875 102.245-59.39 141.206-40.764-39.916-27.966-92.123-30.865-134.612-8.724 54.177-39.073 116.827-50.336 161.063-29.194-52.326-36.654-120.2-41.6-176.746-14.863 71.832-49.555 153.66-63.29 211.869-35.47-40.654-28.48-88.262-42.783-135.906-42.917zm100.783 93.25q.002.003.008.006v-.002q-.005-.001-.008-.004zm35.125-50.332.008.006v-.002q-.005-.001-.008-.004zm58.646 58.647c27.828 58.21 14.095 140.047-35.469 211.886 26.74-56.548 21.8-124.425-14.859-176.754 21.144 44.238 9.879 106.897-29.2 161.077 22.146-42.488 19.248-94.702-8.714-134.62 18.62 38.96 3.107 97.329-40.768 141.202-41.4 41.4-95.511 57.196-134.222 43.238 39.81 24.817 90.021 26.326 130.824 4.096-51.383 38.602-111.004 51.588-155.588 35.511 52.118 32.49 117.366 35.571 171.639 8.711-68.085 48.943-145.922 64.996-204.514 43.87 91.947 57.317 214.158 46.837 294.031-33.038 82.987-82.986 91.948-212.251 26.842-305.18zm-50.332 35.125.006.007-.004-.007zm-37.914 26.457.006.007-.004-.007z"/></svg>