<svg xmlns="http://www.w3.org/2000/svg" viewBox="0 0 512 512"><path d="M260.547 18.99c4.99 10.05 6.773 18.635 5.396 25.975-2.699 14.678-18.631 25.077-35.511 36.02-23.827 15.481-50.928 33.028-48.67 68.495 2.19 34.634 23.623 52.61 42.537 68.42 7.058 5.861 13.528 11.339 18.746 17.155h22.2c-7.364-12.591-18.678-22.065-29.36-31.008-17.728-14.815-34.443-28.805-36.137-55.705-1.568-24.922 18.848-38.18 40.473-52.205 19.388-12.545 39.396-25.52 43.44-47.912 1.647-8.91.473-18.665-3.513-29.235zM122.963 253.12a101.945 101.945 0 1 0 89.207 151.259h87.66a101.945 101.945 0 1 0 89.264-151.26zm274.644 39.837a17.93 17.93 0 0 1 17.932 17.932 17.93 17.93 0 0 1-17.941 17.943l.01-.012a17.932 17.932 0 0 1 0-35.863zm-293.681 7.916h31.617v30.129h30.148v31.617h-30.138v30.139h-31.617v-30.139H73.795v-31.617h30.13zm334.607 33.008a17.93 17.93 0 0 1 17.932 17.932 17.93 17.93 0 0 1-17.934 17.943v-.012a17.932 17.932 0 0 1 .002-35.863zm-81.877.012a17.93 17.93 0 0 1 17.94 17.931 17.93 17.93 0 0 1-17.91 17.932h-.002a17.932 17.932 0 1 1-.028-35.863zm40.944 40.921a17.93 17.93 0 0 1 17.927 17.944 17.93 17.93 0 0 1-17.923 17.918 17.932 17.932 0 1 1-.004-35.862z"/></svg>