<svg xmlns="http://www.w3.org/2000/svg" viewBox="0 0 512 512"><path d="m19.828 18.256-.002.015c249.642 36.995 371.905 169.983 397.32 278.01-2.094 5.977-4.496 11.043-7.068 14.967-17.29 26.383-62.522 40.077-101.654 28.598 5.984-19.75 10.132-39.835 12.07-59.121-95.46 8.177-212.544 8.419-301.207-22.643 41.727 95.317 99.325 164.465 164.983 230.08 18.296-2.164 35.807-11.349 51.837-25.369 85.218 34.667 188.067-2.555 226.748-60.68 46.922-70.5 74.07-317.52-167.462-383.855H232.81c160.325 54.874 195.729 167.74 191.572 239.03-37.15-93.628-137.68-191.855-312.38-239.03H19.83z"/></svg>