<svg xmlns="http://www.w3.org/2000/svg" viewBox="0 0 512 512"><path d="M256 32.19c-34.6 42.07-93 57.46-150.2 71.71l10.5 94.1c66.1-6.6 103.1-9.9 139.7-9.9 36.7 0 73.6 3.3 139.7 9.9l10.4-94.1C348.8 89.65 290.6 74.26 256 32.19zM90.57 195.3c-19.2 5.9-41.7 9.2-67.3 10.4 12.7 10.3 30 21.6 34.4 39.1 1.6 19-4.8 36.3-12.2 52.6 17.3 1 33.2-1.8 48.8-6.3-7.3-32.4-7.5-57.8-7.3-82.1l.1-6zm330.73 0c.8 1.3 0 0 3.7 7.6v6.2c0 24.3-.1 49.6-7.3 82 15.5 4.5 31.4 7.3 48.7 6.3-7.4-16.2-13.7-33.6-12.1-52.5 1.6-15.9 22.5-28.1 34.3-39.2-25.5-1.2-48-4.5-67.3-10.4zM256 206.1c-38 0-77 3.8-151 11.2-.1 27.3 1.2 54.9 13.4 94 133.3-14.7 141.9-14.7 275.2 0 12.1-39 13.3-66.6 13.4-94.1-74-7.4-113-11.1-151-11.1zm0 111.9c-32.4 0-65.1 3.4-125.3 10l6.2 55.6c7.3 36.1 36.6 60.2 65.3 75.6 25.9 13.7 49.1 19.5 53.8 20.6 4.7-1.1 27.9-6.9 53.8-20.6 28.7-15.3 58-39.5 65.3-75.6l6.2-55.6c-60.2-6.6-92.9-10-125.3-10z"/></svg>