<svg xmlns="http://www.w3.org/2000/svg" viewBox="0 0 512 512"><path d="M357.676 20.387q-3.918.015-7.856.29c-63.314 4.439-131.13 58.006-142.117 130.253L494 162.992V89.656c-8.09-7.792-16.415-15.25-24.953-22.177-34.59-28.067-72.194-47.233-111.37-47.092zM125.55 40.813C89.364 40.94 51.743 55.724 18 86.824v81.301l172.107-18.814-.363-.055c3.872-26.688 14.327-50.957 29.162-71.742-26.973-24.13-59.536-36.82-93.357-36.7zm110.262 129.513c-24.49-.258-109.87 12.136-109.602 27.078.46 25.55 104.433 51.553 94.727 53.018-98.384 14.848-152.97 15.004-185.598 44.777-38.914 35.507 214.983 80.92 184.422 89.688-57.204 16.412-107.82 36.256-109.002 88.414-.17 7.52.8 14.386 2.705 20.701h54.945c-15.423-20.635-24.05-40.664-14.6-45.912 10.414 15.107 22.492 31.126 36.174 45.912h64.286c-19.474-9.912-51.732-29.41-50.594-49.426 1.6-28.17 66.37-47.758 69.883-47.758 0 0-48.787 26.386-49.868 49.868-.767 16.68 22.319 36.985 35.692 47.316h51.974c-16.454-12.325-26.477-24.922-20.425-31.887 15.54 11.066 33.115 22.44 51.826 31.887h106.717c-56.74-15.988-102.683-32.672-115.225-53.129-10.196-16.63 72.362-27.834 60.408-78.9-5.79-24.738-58.24-41.095-203.222-62.627-25.368-3.768 134.358-19.456 129.818-57.11-2.65-21.98-103.288-26.85-114.58-36.933-4.746-4.237 5.863-29.56 29.137-34.975zM91.426 308.056c33.376-.144 84.384 22.424 122.799 36.747l-1.79 11.67c-28.403-10.606-103.906-37.464-127.443-48.077 2.06-.22 4.209-.331 6.434-.34zm270.232 53.801v.002c.103-.006.102.076-.013.252 3.9 12.183-21.487 44.05-61.807 42.842 14.153-7.15 59.73-43.004 61.82-43.096z"/></svg>