<svg xmlns="http://www.w3.org/2000/svg" viewBox="0 0 512 512"><path d="M81 21.498c-12.81 0-23 10.194-23 23.004s10.19 23 23 23 23.002-10.19 23.002-23S93.81 21.498 81 21.498zm350 0c-12.81 0-23.002 10.194-23.002 23.004s10.192 23 23.002 23 23-10.19 23-23-10.19-23.004-23-23.004zM110.18 73.213a41.25 41.25 0 0 1-15.11 9.78l28.666 45.866 14.983-9.988zm291.64 0-28.539 45.658 14.983 9.988 28.666-45.867a41.25 41.25 0 0 1-15.11-9.78zm-242.966 53.869-36.143 24.096 6.652 19.955c9.215-12.422 23.339-21.987 39.614-28.912 1.172-.5 2.37-.975 3.568-1.45zm194.292 0-13.69 13.69c1.196.474 2.395.95 3.567 1.449 16.275 6.925 30.399 16.49 39.614 28.912l6.652-19.955zM256 144.5c-29 0-58.02 4.94-79.977 14.281-21.898 9.32-35.908 22.38-39.164 38.364L106.28 426.5h299.444l-30.58-229.355c-3.256-15.984-17.267-29.045-39.164-38.364-21.958-9.34-50.979-14.28-79.979-14.28zm-64 58c31.373 0 57 25.627 57 57s-25.627 57-57 57-57-25.627-57-57 25.627-57 57-57zm128 0c31.373 0 57 25.627 57 57s-25.627 57-57 57-57-25.627-57-57 25.627-57 57-57zm-128.549 16.023c-22.754 0-41.547 18.366-41.547 40.977s18.793 40.977 41.547 40.977S233 282.11 233 259.5s-18.795-40.977-41.549-40.977zm128 0c-22.754 0-41.547 18.366-41.547 40.977s18.793 40.977 41.547 40.977S361 282.11 361 259.5s-18.795-40.977-41.549-40.977zm-128 17.998C204.65 236.521 215 246.79 215 259.5s-10.35 22.979-23.549 22.979-23.549-10.269-23.549-22.979 10.35-22.979 23.55-22.979zm128 0C332.65 236.521 343 246.79 343 259.5s-10.35 22.979-23.549 22.979-23.549-10.269-23.549-22.979 10.35-22.979 23.55-22.979zM208 330.502h96v18h-96zm-16 32h128v18H192zm-16 32h160v18H176zm-103 50v46h46v-46zm64 0v46h46v-46zm64 0v46h46v-46zm64 0v46h46v-46zm64 0v46h46v-46zm64 0v46h46v-46z"/></svg>