<svg xmlns="http://www.w3.org/2000/svg" viewBox="0 0 512 512"><path d="M256.688 18.406c-29.86 0-54.44 21.716-58.875 50.282h117.716c-4.428-28.566-28.983-50.282-58.841-50.282zm-104.313 9.282L81.75 99.094c26.37 25.22 50.43 39.66 69.438 45.53 20.594 6.363 34.157 3.076 41.53-4.468 2.483-2.538 4.475-5.84 5.813-9.875-12.5-13.88-20.125-32.236-20.125-52.31 0-5.28.529-10.45 1.531-15.44-7.116-10.973-16.213-22.669-27.56-34.843zm208.594.001c-11.35 12.174-20.453 23.87-27.565 34.842a78.3 78.3 0 0 1 1.532 15.44c.002 20.074-7.63 38.43-20.123 52.31 1.334 4.036 3.328 7.337 5.81 9.875 7.374 7.544 20.936 10.833 41.531 4.47 19.01-5.872 43.068-20.311 69.44-45.53zM197.844 87.373c4.008 25.464 24.02 45.488 49.5 49.47v-49.47zm68.185 0v49.47c25.476-3.982 45.467-24.006 49.471-49.47zm-52.654 55.719v.002c-1.93 3.73-4.351 7.128-7.28 10.125-7.01 7.17-16.34 11.443-27.157 12.842 17.244 30.84 47.478 45.278 77.718 45.187 30.135-.09 60.314-14.62 77.594-45.187-10.75-1.42-20.024-5.707-27-12.844-2.926-2.994-5.323-6.4-7.25-10.125-12.413 8.293-27.313 13.154-43.312 13.154-16 0-30.894-4.861-43.313-13.154zm-105.72.906c-11.885 8.09-22.142 17.596-30.03 28.47 5.18 1.993 10.067 5.206 14.47 9.376.288.273.556.561.843.844 7.991-10.844 19.192-20.19 33-28.19-5.933-2.94-12.04-6.43-18.282-10.5zm297.814.156c-6.274 4.077-12.417 7.563-18.375 10.5 13.946 8.04 25.258 17.422 33.31 28.282.26-.258.52-.529.782-.782 4.39-4.208 9.269-7.475 14.439-9.529-7.928-10.863-18.221-20.374-30.156-28.47zm-340.067 44.69c-4.14.03-8.707 1.798-13.933 6.812-5.23 5.016-10.761 13.247-15.596 24.78-9.03 21.54-15.567 54.521-16.406 98.191h91.75c-.836-44.038-7.38-77.139-16.406-98.627-4.833-11.502-10.365-19.67-15.565-24.594s-9.702-6.592-13.842-6.562zm382.659 0c-4.14.03-8.711 1.797-13.938 6.812s-10.758 13.247-15.594 24.78c-9.03 21.54-15.565 54.521-16.404 98.191h91.75c-.835-44.038-7.38-77.139-16.406-98.627-4.833-11.502-10.365-19.67-15.565-24.594s-9.702-6.592-13.843-6.562zm-164.5 37.53a106 106 0 0 1-26.875 3.564 105.7 105.7 0 0 1-27-3.438c-5.288 5.608-8.438 12.862-8.438 20.656 0 17.25 15.352 31.844 35.44 31.844 20.086 0 35.435-14.593 35.435-31.844 0-7.854-3.2-15.154-8.562-20.78zm-76 41.94c-20.808 10.54-39.379 28.067-52.938 52.248 5.276 2.286 10.287 5.71 15 10.188 12.49-23.23 29.974-38.884 49.25-47.5-4.683-4.264-8.518-9.308-11.312-14.936zm98.158.248c-2.83 5.618-6.729 10.63-11.442 14.875 19.213 8.67 36.672 24.287 49.192 47.282.062-.06.122-.13.185-.19 4.588-4.308 9.586-7.692 14.844-9.966-13.558-23.972-32.055-41.42-52.78-52zm-166.596 67.374v.002c-5.454-.038-11.281 2.201-17.687 8.218-6.405 6.016-13.018 15.817-18.813 29.5-7.377 17.416-13.347 41.16-16.72 70.938 8.494-4.2 17.877-6.246 27.19-6.221 14.79.043 29.66 5.316 40.968 16.033 9.487 8.993 16.182 21.848 18.093 37.563h23.25c-.856-52.36-8.71-91.89-19.656-117.783-11.6-27.438-25.718-38.173-36.625-38.25zm234.969.002c-5.455-.038-11.251 2.202-17.656 8.218s-13.05 15.817-18.844 29.5c-10.943 25.835-18.774 65.514-19.625 118.313h23.217c1.898-15.826 8.58-28.721 18.093-37.721 11.325-10.712 26.244-15.917 41.034-15.875 9.298.026 18.658 2.1 27.125 6.315-3.368-29.494-9.328-53.09-16.688-70.5-11.6-27.439-25.749-38.173-36.654-38.25zm-336.125 1.375c-1.03 3.894-1.02 8.078.185 12.218 3.82 13.102 19.169 21.598 34.534 17.813 15.24-3.754 23.346-17.03 19.75-30.03zm382.654 0c-1.028 3.894-1.018 8.078.19 12.218 3.818 13.102 19.165 21.598 34.529 17.813 15.24-3.754 23.347-17.03 19.75-30.03zM113.03 457.063c-10.365-.03-20.611 3.615-28.154 10.75-5.935 5.614-10.373 13.43-12.03 24.158h80.436c-1.664-10.603-6.128-18.377-12.06-24-7.56-7.167-17.823-10.879-28.19-10.909zm287.221 0c-10.366-.03-20.582 3.615-28.125 10.75-5.935 5.614-10.404 13.43-12.062 24.158H440.5c-1.665-10.603-6.13-18.377-12.062-24-7.56-7.167-17.821-10.879-28.188-10.909z"/></svg>