<svg xmlns="http://www.w3.org/2000/svg" viewBox="0 0 512 512"><path d="M138.799 35.342 28.73 114.268l95.778 29.095 111.305-87.09zM251.785 66.42l-.002.004-118.047 89.96 51.07 131.102 8.536-7.455 4.228-15.709a18.338 13.102 76.863 0 1-9.08-20.449 18.338 13.102 76.863 0 1 10.998-13.727 18.338 13.102 76.863 0 1 3.62.53 18.338 13.102 76.863 0 1 3.113 1.545l7.94-29.48a9 9 0 0 1 .353-1.042l.058-.127a9 9 0 0 1 .32-.685l.09-.153a9 9 0 0 1 .37-.625 9 9 0 0 1 .535-.722l.064-.075a9 9 0 0 1 .541-.593 9 9 0 0 1 .65-.594l.004-.002a9 9 0 0 1 .46-.342 9 9 0 0 1 .265-.197 9 9 0 0 1 .502-.3 9 9 0 0 1 .272-.157 9 9 0 0 1 .439-.207 9 9 0 0 1 .38-.18 9 9 0 0 1 .436-.15 9 9 0 0 1 .41-.145 9 9 0 0 1 .405-.1 9 9 0 0 1 .47-.113 9 9 0 0 1 .51-.07 9 9 0 0 1 .37-.05h.01l.01-.003 33.624-2.873a18.338 13.102 76.863 0 1 10.326-9.777 18.338 13.102 76.863 0 1 3.621.53 18.338 13.102 76.863 0 1 8.528 7.327l13.043-1.113zm-114.537 7.61h.002a9.8 19.77 77.916 0 1 12.799 8.734 9.8 19.77 77.916 0 1-21.94 11.998 9.8 19.77 77.916 0 1-16.57-8.602 9.8 19.77 77.916 0 1 21.94-12 9.8 19.77 77.916 0 1 3.769-.13zm100.23 23.517a18.338 13.102 76.863 0 1 .002 0 18.338 13.102 76.863 0 1 3.62.53 18.338 13.102 76.863 0 1 12.113 21.94 18.338 13.102 76.863 0 1-14.617 13.196 18.338 13.102 76.863 0 1-12.116-21.94 18.338 13.102 76.863 0 1 10.999-13.726zM24.222 131.709v.002l46.992 114.123 94.234 40.38-45.986-125.57zm147.884 17.43v.002a18.338 13.102 76.863 0 1 3.624.527 18.338 13.102 76.863 0 1 12.109 21.94 18.338 13.102 76.863 0 1-14.615 13.197 18.338 13.102 76.863 0 1-12.114-21.94 18.338 13.102 76.863 0 1 10.996-13.726zm-75.123 13.017h.002a19.454 9.134 59.254 0 1 16.954 15.078 19.454 9.134 59.254 0 1-.424 19.485 19.454 9.134 59.254 0 1-17.914-14.94 19.454 9.134 59.254 0 1 .423-19.478 19.454 9.134 59.254 0 1 .96-.145zm263.395 40.207v.002l-112.104 9.578 113.762 79.926 113.6-16.957zm-289.553 9.66A19.454 9.134 59.254 0 1 87.777 227.1a19.454 9.134 59.254 0 1-.425 19.484 19.454 9.134 59.254 0 1-17.913-14.938 19.454 9.134 59.254 0 1 .424-19.482 19.454 9.134 59.254 0 1 .961-.14zm157.373 7.815L186.66 374.023l115.615 99.454 47.149-168.47zm126.987 11.166h.002a21.76 8.898 15.267 0 1 19.693 4.781 21.76 8.898 15.267 0 1 7.605 14.244 21.76 8.898 15.267 0 1-28.884-3.181 21.76 8.898 15.267 0 1-7.612-14.244 21.76 8.898 15.267 0 1 9.196-1.6zM487.779 291.3 366.9 309.344l-46.824 167.314 116.297-31.77zm-181.806 10.8a25.834 15.573 84.277 0 1 4.238.943 25.834 15.573 84.277 0 1 12.871 31.72 25.834 15.573 84.277 0 1-18.103 17.893 25.834 15.573 84.277 0 1-12.875-31.72 25.834 15.573 84.277 0 1 13.869-18.836zm154.086 11.636a13.237 21.96 28.62 0 1 7.671 4.13 13.237 21.96 28.62 0 1-6.175 28.435 13.237 21.96 28.62 0 1-21.287 3.879 13.237 21.96 28.62 0 1 6.175-28.436 13.237 21.96 28.62 0 1 13.616-8.008zM391.36 324.4h.002a13.237 21.96 28.62 0 1 7.67 4.13 13.237 21.96 28.62 0 1-6.176 28.435 13.237 21.96 28.62 0 1-21.287 3.877 13.237 21.96 28.62 0 1 6.178-28.434 13.237 21.96 28.62 0 1 13.613-8.008zm-173.996 13.303v.002a25.834 15.573 84.277 0 1 4.24.945 25.834 15.573 84.277 0 1 12.874 31.72 25.834 15.573 84.277 0 1-18.108 17.894 25.834 15.573 84.277 0 1-12.873-31.72 25.834 15.573 84.277 0 1 13.867-18.84zm212.28 60.87za13.237 21.96 28.62 0 1 7.67 4.131 13.237 21.96 28.62 0 1-6.174 28.434 13.237 21.96 28.62 0 1-21.287 3.877 13.237 21.96 28.62 0 1 6.173-28.436 13.237 21.96 28.62 0 1 13.618-8.008zm-70.332 19.49a13.237 21.96 28.62 0 1 7.67 4.132 13.237 21.96 28.62 0 1-6.174 28.434 13.237 21.96 28.62 0 1-21.288 3.875 13.237 21.96 28.62 0 1 6.176-28.436 13.237 21.96 28.62 0 1 13.615-8.005z"/></svg>