<svg xmlns="http://www.w3.org/2000/svg" viewBox="0 0 512 512"><path d="m153.568 20.424-44.437 50.365L172.826 361.9l-18.746 1.758L92.266 81.143 36.588 137.73l73.691 289.97 41.201-47.26 13.286 13.2-43.715 50.147L322.1 491.561l53.714-49.522-192.472-50.066 5.084-17.99 199.982 52.023 103.87-195.3-68.821-127.98L153.57 20.425zm81.91 51.892h.002c80.62.774 168.87 79.369 155.422 164.98-28.148-67.997-92.724-132.962-165.6-115.685-63.012 14.94-5.187 80.4 65.82 97.694 78.417 19.096 168.752 83.27 108.978 146.484-55.167 58.34-159.148 2.031-150.717-67.728 17.855 32.638 81.77 85.591 120.695 43.435 54.56-59.084-77.732-93.542-122.27-112.883-45.845-19.903-138.904-86.005-81.083-133.1 20.11-16.38 44.075-23.433 68.754-23.197zm21.895 61.647c7.13.043 15.174.844 23.918 2.453-25.35 11.378-30.295 31.156-25.52 54.936-48.724-35.784-36.898-57.623 1.602-57.39zm140.695 21.39c38.707 17.261 53.483 66.86 8.852 96.036 6.68-32.38 6.315-64.492-8.852-96.035zM246.77 246.485h.001c5.027.004 10.616 1.489 15.885 4.532 12.047 6.955 17.874 19.418 13.014 27.836s-18.567 9.601-30.613 2.646c-12.047-6.955-17.872-19.418-13.012-27.836 2.734-4.734 8.264-7.18 14.725-7.178z"/></svg>