<svg xmlns="http://www.w3.org/2000/svg" viewBox="0 0 512 512"><path d="M236.975 26.432c-.48 0-.798.32-1.28.32l-2.244 1.123L95.275 85.262c-8.496 3.848-16.187 8.495-23.564 13.785 0 0-.32 0-.32.48-3.526 3.046-6.89 6.573-9.938 10.42-3.526 4.97-6.572 10.74-8.976 16.83a89 89 0 0 0-2.565 16.993v1.923c0 4.65.64 8.817 2.244 13.145.32-4.65 1.602-9.62 3.526-13.947 2.244-5.29 6.09-9.937 11.06-13.463 3.046-1.924 6.573-3.848 10.1-4.971 4.648-1.12 9.136-1.923 14.265-2.725 7.695-.8 15.39-1.122 22.282-1.443 9.136 0 18.11.32 27.73.64 11.54.48 22.6 1.925 33.02 3.848 8.176 1.283 15.87 2.726 24.207 4.328l-3.85-5.77-4.168-8.815c-1.122-3.527-1.924-7.375-1.924-10.9v-1.124c.32-3.847 1.124-7.695 3.047-11.54l8.496-11.542 38.471-50.012c.8-.32.8-1.122.8-1.923 0-.803 0-1.605-.8-2.247-.32-.479-1.12-.8-1.441-.8zM31.174 144.74c-1.924 3.366-3.823 6.86-5.426 10.227a94.5 94.5 0 0 0-5.01 17.81c-.32 3.046-.765 6.556-.765 9.602 0 2.724.488 4.97.488 7.375 1.123 6.893 2.223 13.483 3.826 19.894 4.168 14.267 10.763 27.415 19.9 38.475 5.128 6.252 10.412 12.009 15.862 16.979a552 552 0 0 0 16.139 13.496c6.572 4.97 13.46 9.296 19.55 12.662 9.298 5.45 18.976 10.408 28.594 15.377 34.945 18.594 72.237 31.553 110.066 38.125 25.007 3.526 50.05 6.592 75.698 8.836 0 5.13.31 10.405 1.111 15.375.802 6.25 2.256 12.805 4.66 18.576 2.244 6.41 4.99 12.665 8.836 18.435 4.168 6.092 9.091 11.595 14.541 17.045 6.092 5.29 12.693 9.902 20.387 13.43 5.77 2.564 12.002 4.136 18.574 4.937 1.924 0 3.852.348 5.775.348 1.123 0 2.216-.348 3.338-.348l103.248-7.373h.348c.32 0 1.113-.31 1.113-1.113 0-.8-.828-1.12-1.95-1.6-3.847-1.123-7.985-2.57-12.313-4.173-4.49-1.603-9.635-3.47-14.123-4.592-6.572-2.244-13.47-4.68-20.524-6.123a379 379 0 0 0-21.148-4.315c-4.65-.32-9.617-1.104-14.266-2.226-.64-.32-1.459-1.175-1.459-2.297 0 0 .028-.443.35-.764 0-.48.484-.836.484-.836 0-.32.277-.284.277-.765 1.123-.8 2.777-1.586 3.899-2.227 2.725-1.603 5.437-2.77 8.002-3.892 6.572-3.206 13.468-5.772 20.521-8.979 3.046-1.122 6.07-2.216 9.116-3.338 4.33-1.603 8.965-2.738 15.377-4.662 1.282-.32 2.398-.791 3.2-1.111a505 505 0 0 1 8.07-2.438c-5.45-8.335-12.336-16.484-19.55-23.377l-14.332-13.773c-4.97-4.328-9.588-8.184-13.916-11.55-7.213-5.129-14.25-10.094-20.662-14.26a344 344 0 0 0-39.309-22.473c-6.893-3.368-13.932-6.38-24.351-10.229-9.938-3.526-19.525-7.063-17.602-6.262-8.816-2.725-18.107-5.318-26.923-7.722l-28.737-77.227c-7.373 3.848-15.064 7.671-21.637 10.717-5.77 2.725-11.51 4.208-17.601 5.01-7.374 1.603-14.61 1.565-21.984.763l-93.438-7.654 25.324 30.266c.802 1.283 1.94 2.711 3.06 4.314.803.802.766 1.43.766 2.713-.32 1.122-1.108 1.95-2.71 1.95-4.49.32-9.129-.009-13.778-.49-6.572-.8-13.18-1.902-19.27-3.825-5.45-1.122-10.38-3.043-15.029-5.287-6.092-2.405-12.383-5.448-17.672-8.975-4.97-3.044-10.05-6.447-14.54-10.297-5.13-3.847-9.657-8.152-13.985-12.8-2.725-3.046-5.408-6.866-7.652-10.713-2.725-5.29-5.009-10.79-6.612-16.56-1.122-6.25-2.23-12.356-2.71-17.325.48-2.725.486-5.4.486-8.766zM20.6 247.3l1.12 9.296c4.65 29.975 15.87 58.83 32.382 84.636 11.22 17.793 25.487 32.7 41.998 44.243l8.816 6.25 17.63 11.06c38.633 22.762 81.272 37.83 125.995 44.402l31.1 2.565 31.738 1.924 33.502-.32c-8.817-5.45-16.834-11.863-23.887-19.237l-6.892-8.015c-5.77-7.373-10.42-15.069-13.465-23.565-1.443-5.45-2.726-10.417-3.848-15.707l-1.926-12.342-33.34-3.527-26.128-3.365-17.631-2.727c-10.1-1.922-20.036-4.646-30.135-7.691l-32.223-11.541-25.006-11.221-25.486-12.664-23.885-13.147-18.756-12.662-23.88-22.279zm393.226 92.313c7.213 0 13.15 6.125 13.15 13.498 0 7.535-5.937 13.496-13.15 13.496s-13.148-5.962-13.148-13.496c0-7.372 5.935-13.496 13.148-13.496zm-332.07 85.684c14.266 9.618 27.73 20.037 40.074 31.258 10.74 9.137 20.357 19.235 29.975 29.013 2.725 0 4.97-.802 6.892-1.443 8.496-3.847 16.19-8.015 23.885-12.664q11.061-6.25 19.236-14.904c-4.167-1.603-8.496-3.046-12.664-4.328-10.42-2.565-20.356-6.092-30.134-10.42-7.214-3.046-14.108-6.41-20.68-10.258-.802.32-1.923.318-2.725.318-4.648 0-9.297-.32-13.785-1.123-13.465-1.122-26.93-3.044-40.074-5.45z"/></svg>