<svg xmlns="http://www.w3.org/2000/svg" viewBox="0 0 512 512"><path d="M472.133 19.813 162.52 197.029l21.996 34.133L483.97 38.184zM282.609 189.359l16.35 10.41c11.495-8.22 22.405-16.194 32.584-23.857zm-16.656 10.737-100.125 64.521 20.48 12.131c34.024-22.565 66.99-44.805 96.788-65.74zm-118.826 6.275-6.227 4.014c-6.594 19.98-1.4 36.31 7.81 43.851l20.677-13.324-22.26-34.539zm-23.709 42.047c-5.512 5.532-12.93 13.197-22.29 23.639-17.224 19.212-36.353 43.546-43.47 60.406-18.543 43.928-15.34 97.988-18 147.734 2.41 7.08 5.408 9.922 8.197 11.139 2.96 1.292 6.897 1.194 11.74-.824 9.394-3.91 19.696-15.596 22.262-25.283-.174-2.232-.919-12.117-1.236-25.643-.356-15.14-.245-33.002 2.631-46.297 5.15-23.82 13.395-49.19 30.268-69.05 10.193-11.994 27.131-22.48 41.92-30.848 4.68-2.65 8.664-4.725 12.414-6.65-19.88-12.29-36.655-17.7-44.436-38.323zm68.107 46.613-1.152.531s-6.765 3.116-16.096 8.043c-.25 10.99-5.59 19.736-12.617 25.5-5.492 4.505-12.02 6.844-17.803 6.696-4.355-.112-8.346-1.368-12.013-4.551-1.8 1.62-3.36 3.18-4.606 4.645-2.444 2.876-4.69 5.96-6.77 9.197 6.78 5.595 14.91 8.499 22.928 8.703 10.763.276 21.213-3.828 29.68-10.774 12.754-10.462 20.972-28.17 18.45-47.99zm-163.496.819 15.57 24.16c4.075-8.26 9.535-16.835 15.696-25.336z"/></svg>