<svg xmlns="http://www.w3.org/2000/svg" viewBox="0 0 512 512"><path d="M151.21 26.775c-18.384 2.518-37.75 18.106-48.784 28.028l15.607 18.527c17.103-12.17 32.453-18.857 36.975-5.98 43.955 125.185 102.805 440.16 214.205 416.636 90.158-25.674 42.965-127.593 56.11-188.435 2.507-10.346 8.966-23.229 21.238-22.842 11.477.362 6.47-5.97 2.798-7.682-35.743-19.406-80.314-25.59-117.908-38.12-11.833-3.946-8.18 4.163-5.37 10.28 4.216 9.188 2.88 41.07 5.292 54.526a32.6 32.6 0 0 1 15.106-3.707c18.12 0 33 14.88 33 33 0 6.41-1.87 12.412-5.08 17.496 10.622 5.506 17.947 16.611 17.947 29.318 0 18.12-14.88 33-33 33a33 33 0 0 1-3.514-.191c-.511 4.767-2.01 8.147-4.81 9.693-10.327 3.204-45.397-73.376-83.014-161.383-6.54 3.924-12.609 6-19.31 5.213 17.076 46.103 35.722 91.757 58.396 136.98l-16.09 8.067c-45.888-91.528-75.273-184.003-107.725-277.195l16.998-5.92c2.355 6.764 4.67 13.496 6.996 20.24a27.1 27.1 0 0 1 10.82-5.945c-14.583-34.816-28.004-66.631-38.575-90.332-5.286-7.657-17.625-13.574-28.307-13.272zM89.522 67.424c-12.242 12.816-23.334 26.9-31.19 39.506l7.474 8.806c8-5.403 22.697-19.026 37.947-31.418zm135.739 79.97c-5.1 0-9.041 3.942-9.041 9.042s3.94 9.04 9.039 9.04 9.043-3.94 9.043-9.04-3.942-9.041-9.041-9.041zm12.705 34.122c-5.1 0-9.04 3.942-9.04 9.04 0 5.1 3.94 9.042 9.04 9.042s9.04-3.942 9.04-9.041-3.94-9.04-9.038-9.041zm13.904 36.752c-5.1 0-9.04 3.94-9.04 9.039s3.941 9.04 9.04 9.04c5.1 0 9.041-3.94 9.041-9.04s-3.942-9.04-9.04-9.04zm94.611 87.738c-8.392 0-15 6.609-15 15s6.608 15 15 15c8.39 0 15-6.61 15-15s-6.61-15-15-15zm12.866 46.814c-8.39 0-15 6.61-15 15s6.61 15 15 15 15-6.609 15-15-6.61-15-15-15z"/></svg>