<svg xmlns="http://www.w3.org/2000/svg" viewBox="0 0 512 512"><path d="M98.127 18.75c50.57 46.07 104.126 90.744 158.936 134.72l-2.344 30.374c71.727 59.403 153.821 113.5 236.529 166.437-67.922-115.03-145.679-225.91-228.469-331.529h-54.31c43.394 55.367 85.625 111.29 127.435 167.437C275.514 130.874 215.7 75.224 157.656 18.75zM17.971 180.688v44.718c94.66 43.63 188.03 92.478 281.154 141.813-94.13-29.464-188.207-59.702-281.156-93.625v39.75c151.97 56.387 311.187 104.89 473.875 138.56C422.48 397.58 352.438 344.843 279.25 301.221l-29.187 9.341C173.594 263.332 96.78 219.043 17.97 180.688z"/></svg>