<svg xmlns="http://www.w3.org/2000/svg" viewBox="0 0 512 512"><path d="M187.125 19.53a44 44 0 0 0-2.187.032c-3.91.152-7.824.84-11.657 2.157-15.33 5.26-25.475 19.04-29.844 35.219-4.368 16.176-3.47 35.265 3.125 54.25a109 109 0 0 0 3.534 8.841l9.718 28.221 54.688 18.844a40.4 40.4 0 0 0 8.562-1.938c15.33-5.262 25.474-19.04 29.842-35.22 4.368-16.176 3.47-35.264-3.125-54.25-6.595-18.983-17.754-34.555-31.217-44.592-9.465-7.058-20.435-11.42-31.437-11.563zm-1.283 18.658h.004c6.724-.257 14.11 2.32 21.558 7.874 9.933 7.404 19.251 20.008 24.721 35.75s5.93 31.354 2.72 43.25c-3.212 11.896-9.573 19.557-17.876 22.407-8.303 2.848-18.1.716-28.031-6.69-3.308-2.464-6.543-5.523-9.594-9.06l-16.125-29.69c-4.522-14.7-4.756-29.12-1.75-40.25 3.21-11.895 9.569-19.525 17.873-22.375a22.7 22.7 0 0 1 6.5-1.217zm-111.592 106c-6.73.138-13.183 1.019-19.25 2.656-16.178 4.368-29.958 14.544-35.22 29.875-5.26 15.33-.66 31.786 9.376 45.25 10.037 13.46 25.61 24.653 44.594 31.25 18.985 6.595 38.072 7.46 54.25 3.094 13.807-3.73 25.866-11.662 32.375-23.44l.063.065 14.343-25.721 6.596 3.562c.026.076.035.084.062.159l57.938 31.343.03.031 251.189 136.344c14.236-41.16-36.205-109.06-143.625-146.218L118.156 153.53a109 109 0 0 0-8.906-3.558c-11.865-4.124-23.785-6.012-35-5.784zm.344 18.718a74 74 0 0 1 5.437.094c6.374.345 13.134 1.512 19.94 3.594l29.81 16.187c3.54 3.057 6.599 6.289 9.065 9.596 7.405 9.932 9.535 19.73 6.685 28.03-2.85 8.303-10.51 14.662-22.404 17.874-11.896 3.213-27.507 2.753-43.25-2.717s-28.345-14.818-35.75-24.75c-7.405-9.93-9.506-19.729-6.656-28.03 2.85-8.305 10.479-14.664 22.375-17.876 4.46-1.204 9.43-1.896 14.75-2zm115.844 74.19c12.42 36.015 25.524 74.022 38.593 111.81 37.156 107.42 105.061 157.862 146.221 143.625L255.75 272.44z"/></svg>