<svg xmlns="http://www.w3.org/2000/svg" viewBox="0 0 512 512"><path d="M204.902 160.244v.002c-5.972.13-11.88 1.138-17.752 2.832-27.015 7.795-53.963 32.7-75.966 60.47a9 9 0 0 1-6.8 3.407l-69.253 1.97-.252-8.943-.02.002-.85 114.86 74.413.095a9 9 0 0 1 8.97 8.403c-.074-1.108 1.74 3.838 6.174 8.623s10.74 10.223 17.266 14.94c5.005 3.62 10.185 6.83 14.64 9.115a35 35 0 0 1 .434-4.778c1.223-7.632 4.523-15.052 8.897-21.763 4.373-6.713 9.798-12.695 16.252-16.838 4.025-2.585 8.888-4.538 13.933-4.756 7.334-15.483 18.572-34.855 42.817-41.547 1.444-.4 2.48-.503 3.33-.48.848.02 1.51.166 2.203.265.41.06.805.145 1.205.22-12.94-12.257-21.842-26.238-28.496-40.837-13.878 27.166-40.78 43.775-63.05 55.621l-8.45-15.895c27.485-14.618 56.812-33.795 61.986-68.01a9 9 0 0 1 17.488-1.337c7.503 24.018 17.673 45.35 38.63 62.396 8.674 4.772 23.866 1.713 29.88-15.261-6.092-22.897-9.234-39.688-19.974-61.641-24.177-30.83-46.324-41.595-67.655-41.135zm223.19 19.809c-4.44.05-9.442.51-14.994 1.5L294.773 206.97c5.792 14.422 8.967 27.284 12.49 41.183 6.444-1.353 28.549-5.998 54.508-11.513a9832 9832 0 0 0 41.8-8.957c5.82-1.266 10.77-2.355 14.365-3.168a345 345 0 0 0 4.287-.995c.765-.185 1.579-.44 1.547-.416 12.818-4.623 21.502-10.793 26.402-16.57 4.948-5.83 5.98-10.819 5.242-14.367s-3.163-6.923-9.893-9.523c-4.2-1.623-10.03-2.674-17.427-2.59zM310.293 267.02c-5.612 18.07-19.827 28.805-34.5 30.886 2.103.942 4.216 1.908 6.318 2.895 8.66 4.067 17.03 8.38 23.475 12.36 1.583.977 3.04 1.92 4.393 2.876 47.002 6.104 102.48 8.052 137.41 5.174 7.462-.616 11.91-3.013 14.386-5.565 2.477-2.55 3.4-5.368 3.051-8.94-.693-7.149-8.033-17.736-26.062-22.567-19.776-5.3-49.12-9.882-75.578-12.93-21.77-2.506-41.999-3.941-52.893-4.19zm-68.81 37.082c-15.447 4.734-22.93 16.487-29.155 29.4l57.852 29.73c2.502 1.082 4 .894 6.99-.753 3.02-1.666 6.802-5.25 10.228-9.756 5.547-7.297 9.668-16.038 12.07-21.899-1.041-.763-1.74-1.361-3.34-2.35-5.422-3.35-13.42-7.508-21.667-11.38-8.246-3.873-16.812-7.506-23.49-9.985-3.34-1.238-6.234-2.19-8.186-2.714-.634-.17-.927-.217-1.303-.293zm-45.565 41.722a4 4 0 0 0-1.168.102c-.95.21-2.23.748-3.97 1.865-3.48 2.234-7.666 6.559-10.897 11.518-3.232 4.958-5.53 10.575-6.203 14.785-.675 4.21.093 6.006.888 6.77.166.157 4.185 2.89 9.323 5.349 5.138 2.456 11.7 5.17 18.593 7.65 13.19 4.752 28.002 8.44 35.436 8.832 10.002-2.946 14.49-6.77 16.863-10.988 1.98-3.522 2.727-8.186 2.492-13.982l-60.584-31.711a2.4 2.4 0 0 0-.771-.19z"/></svg>