<svg xmlns="http://www.w3.org/2000/svg" viewBox="0 0 512 512"><path d="M86.564 30.06c-28.014 0-45.342 8.527-62.76 28.37l8.42.033C59.749 58.57 68.6 76.928 68.6 98.3v238.564h77.9c1.184-78.928 3.294-164.435 2.684-243.738 0-11.691 4.168-17.76 7.703-19.809 2.762-1.595 6.22-1.35 8.804 3 3.23 6.898 4.168 14.55 4.168 21.979v238.57h77.907c1.046-70.572 3.581-173.892 2.634-246.594.66-10.378 4.763-15.555 8.06-17.199 2.565-1.276 5.864-.962 8.358 3.24 3.226 6.898 4.172 14.551 4.172 21.979v230.625l.215 7.95c1.635 29.987 4.879 62.057 19.016 86.38l.86 1.436a84 84 0 0 0 4.085 6.136c15.243 20.942 27.727 26.883 41.877 31.903 10.304 2.588 22.01 3.99 35.322 3.99v.002c48.624 0 67.38-15.407 74.155-24.29 7.5 13.648 13.494 24.719 13.714 25.589l29.022-77.575-72.844-2.37 16.502 29.712c-7.94 4.522-18.145 8.769-29.603 9.801-25.66.559-39.795-8.093-49.575-45.797a146 146 0 0 1-1.672-7.38l-1.002-5.544c-2.072-12.52.713-187.553.713-250.207-.017-11.135-.102-21.329-.265-30.172-.632-34.502-29.52-58.412-62.557-58.412-14.584 0-33.797 2.766-50.58 15.696l-2.215 1.906-1.822 1.648c-11.66-12.129-28.5-19.256-46.522-19.256-14.572 0-33.798 2.766-50.566 15.696l-2.215 1.904-1.892 1.713c-11.66-12.167-28.53-19.316-46.577-19.316z"/></svg>