<svg xmlns="http://www.w3.org/2000/svg" viewBox="0 0 512 512"><path d="M68.906 19.344a46.3 46.3 0 0 0-7.687.75C49.235 20.75 38.59 25.42 30.813 33.5c-9.657 10.03-14.27 24.77-11.875 40.594.012.084.048.165.06.25.708 13.018 6.503 26.876 19.531 39.906l86.125 86.125c30.255 2.728 53.005 26.627 53.907 57.5l.158 5.625c.8 5.8 4.259 10.396 8.873 12.78 5.734 2.964 12.387 3.147 19.625-4.092l64.435-64.407c7.72-7.718 6.865-12.712 3.5-18.154s-11.241-10.096-18.779-10.096h-.404c-30.125-1.296-53.427-23.484-56.5-53L112.873 39.94C97.59 24.652 82.44 19.184 68.904 19.346zM65 38.186v.002c5.44.03 11.494 1.385 17.97 4.468l92.968 92.969-13.22 13.22L54 40.124c3.284-1.25 6.967-1.96 11-1.937zM38.346 56.473l108.404 108.37-13.22 13.22-90.405-90.409c-3.155-5.842-4.967-11.365-5.72-16.343-.85-5.619-.423-10.573.94-14.838zM453.22 169.688l1.841 18.591-34.593-17.808c-11.45 2.664-21.948 7.759-29.408 14.623-7.198 6.625-11.777 14.544-12.688 24.594l111.565-13.532c-3.745-9.308-10.449-15.841-19.25-20.53-5.2-2.768-11.145-4.748-17.467-5.939zm5.591 49.06-43.343 5.281a471 471 0 0 0 5.279 38.94l40.065-29.22a479 479 0 0 0-2-15zm-188.25 16.565-36.812 36.75 16.625 16.625 36.813-36.75zm192.25 20.091-37.968 27.721a426 426 0 0 0 8.125 30.654l30.81-22.466c.176-11.902-.154-23.9-.966-35.907zm-173.968 21.284-12.75 12.75L388.406 401.75l3.313 3.313-.69 4.625-4.341 29.968 73 46.688 26.091-26.094-46.685-72.97-30 4.345-4.625.688-3.315-3.313zm173.906 38.501-23.562 17.188c4.596 12.718 9.777 25.015 15.593 36.75 3.98-17.394 6.616-35.487 7.971-53.938zm-326.252 4.282c-7.315.176-14.164 2.543-20.719 6.5-7.282 4.4-13.981 10.981-19.435 18.781l3.25 37.187-16.53-5.03c-1.325 7.754-1.368 15.407.059 22.25 2.003 9.587 6.415 17.627 14.596 23.562l45.56-102.75c-1.796-.284-3.57-.473-5.31-.5-.493-.01-.982-.013-1.469 0zm10.252 38.781-17.687 39.937a472 472 0 0 0 36.093 15.407l-4.562-49.375a477 477 0 0 0-13.844-5.969zm33.5 15.344 4.344 46.843a427 427 0 0 0 30.47 8.72l-3.5-37.971a437 437 0 0 0-31.314-17.592zm51.313 30.72 2.687 29.03c13.26 2.568 26.457 4.417 39.5 5.437-12.892-12.322-27.05-23.852-42.187-34.467z"/></svg>