<svg xmlns="http://www.w3.org/2000/svg" viewBox="0 0 512 512"><path d="M351.252 13.588 287.55 156.52c-4.476-.89-8.996-1.672-13.598-2.224L217.29 36.766l-8.268 121.093c-4.17.984-8.25 2.163-12.283 3.438l-77.777-116.07-16.168 7.351 37.348 138.592c-14.08 11.23-26.113 24.53-35.461 39.422l-78.44-30.936-9.418 14.977 68.633 63.572c-1.828 8.984-2.826 18.238-2.826 27.717 0 2.308.08 4.599.191 6.88L38.39 347.69l51.787 3.563c3.874 11.322 9.21 22.036 15.724 32.041l-54.048 97.781 13.724 11.196 79.461-67.957c21.822 16.095 48.067 27.38 76.817 32.042l23.724 42.057 15.768-39.865c31.399-1.63 60.574-11.019 85.17-26.192l125.011 50.319 9.827-14.611-83.28-86.018c3.785-5.892 7.192-12.01 10.067-18.387l52.078-1.363-41.287-34.824c1.095-7.04 1.699-14.225 1.699-21.547 0-8.113-.706-16.068-2.045-23.828l76.592-127.31L383.6 210.431c-11.308-12.776-24.845-23.839-40.026-32.774l24.791-159.02zM340.16 82.69l-32.28 207.053 17.79 2.774 14.912-95.674c37.697 24.622 62.049 64.427 62.049 109.078 0 22.655-6.277 44.064-17.371 62.88l-38.781-40.056-12.932 12.522 105.428 108.896-134.268-54.041-6.719 16.7 27.24 10.962c-17.046 8.508-36.145 14.149-56.539 16.182l7.526-19.024-16.738-6.619-16.76 42.38-31.541-55.915-15.68 8.846 14.72 26.094c-18.896-4.81-36.242-12.797-51.286-23.295l35.691-30.526-11.7-13.68-91.275 78.061 59.73-108.057-15.755-8.707-19.656 35.563c-9.793-17.905-15.334-37.976-15.334-59.166 0-4.377.289-8.692.758-12.963L122.3 312.33l12.228-13.205-70.332-65.148 90.324 35.625 6.608-16.747-39.461-15.562c6.564-9.908 14.513-18.991 23.605-27.068l6.204 23.013 17.378-4.683-34.496-128.016 75.784 113.09 14.953-10.022-17.854-26.636c14.024-3.857 28.887-6.051 44.389-6.051 9.735 0 19.24.824 28.44 2.389l-30.815 69.142 16.44 7.328zm-109.547 23.16 22.713 47.11c-.568-.005-1.126-.04-1.695-.04-8.26 0-16.382.565-24.338 1.608zm217.266 92.635-35.772 59.455c-4.274-11.718-10.057-22.8-17.158-33.058zM184.006 277.24l35.818 86.406 16.627-6.892-21.209-51.164 61.315 18.709 5.254-17.217z"/></svg>