<svg xmlns="http://www.w3.org/2000/svg" viewBox="0 0 512 512"><path d="M278.572 20.672v.002l.002-.002zm0 .002-28.244 43.46c-36.452-29.483-87.945-38.623-127.96-30.427C67.91 44.857 22.201 94.055 24.472 165.168c2.394 74.955 54.71 129.71 104.89 174.822 25.09 22.554 50.84 43.086 69.928 61.535 37.685 34.062 55.941 92.366 55.941 92.366s24.536-59.503 55.944-89.573c19.692-18.7 45.674-39.61 71.322-62.93 51.298-46.643 104.406-104.033 102.096-177.617 0-122.307-121.2-121.014-167.883-78.496 19.323-10.226 40.119-12.395 58.797-8.213 34.297 7.683 62.693 35.935 64.332 88.108 1.562 49.92-39.09 98.088-88.11 142.654-24.508 22.28-49.752 42.445-71.324 62.93-11.456 10.884-16.74 20.514-25.174 31.795-8.437-11.983-13.663-22.066-25.173-33.192C174.715 306.4 86.784 238.474 83.269 163.77c-.72-62.22 72.104-78.604 111.247-51.04l-45.924 25.258c67.393 11.144 124.747 37.36 185.597 75.588z"/></svg>