<svg xmlns="http://www.w3.org/2000/svg" viewBox="0 0 512 512"><path d="M250.344 21.885q-1.836.049-3.656.35c-9.712 1.62-18.018 8.555-23.653 19.99s-8.068 27.066-5.308 43.61c2.76 16.543 10.134 30.538 19.175 39.524s19.15 12.849 28.862 11.229c9.71-1.62 18.017-8.555 23.652-19.99s8.069-27.069 5.31-43.612-10.137-30.538-19.18-39.523c-7.91-7.863-16.638-11.802-25.202-11.578zm185.64 32.22c-35.615 33.13-82.033 58.62-132.83 76.217-7.837 12.763-19.697 22.255-34.316 24.694-11.368 1.896-22.54-.784-32.383-6.547-55.808 11.324-113.423 13.896-165.514 7.39 42.767 37.097 106.85 54.637 169.625 50.963-9.982 93.127-47.651 188.14-81.966 282.924 53.913-39.23 109.785-113.506 127.08-175.494 27.11 53.623 33.924 92.79 49.644 176.547h.002c34.354-84.91 33.249-202.718-13.021-301.91 56.436-22.846 101.639-67.225 113.68-134.784z"/></svg>