<svg xmlns="http://www.w3.org/2000/svg" viewBox="0 0 512 512"><path d="m191.113 19.37-.004.003c-50.45.415-96.5 14.087-127.566 45.154-42.76 42.758-51.6 112.812-38.316 183.776s48.79 141.863 90.164 183.236c52.5 52.5 127.489 70.075 197.865 53.268-6.04-.71-12.1-1.753-18.15-3.131-45.28-10.308-90.755-38.134-129.092-76.281-38.39-38.202-69.825-87.152-85.659-139.883-16.76-1.876-29.564-17.292-31.492-35.348-1.752-16.41 6.586-32.278 20.397-37.662 0-10.03.651-20.081 2.013-30.111-8.74-4.717-14.03-13.543-15.755-22.955-1.777-9.694-.167-20.352 4.806-30.317s12.52-17.658 21.334-22.068c4.407-2.203 9.26-3.564 14.162-3.797q.92-.045 1.84-.035c4.296.045 8.593.98 12.625 2.994 9.217 4.6 14.765 13.684 16.541 23.379 1.778 9.693.167 20.35-4.806 30.314-4.974 9.965-12.52 17.663-21.334 22.07-3.426 1.715-7.12 2.911-10.9 3.471a206 206 0 0 0-1.747 26.264c14.32 4.02 24.878 18.135 26.613 34.394 1.552 14.536-4.812 28.645-15.882 35.424 14.933 48.883 44.255 94.624 80.425 130.616 36.298 36.12 79.286 62.027 120.057 71.31 30.218 6.878 58.857 4.984 83.926-8.21a238.5 238.5 0 0 0 24.79-17.981l.085-.078.004.002c5.75-4.77 11.34-9.85 16.74-15.25 23.34-23.34 40.78-50.168 52.295-78.536-17.795 18.48-40.435 29.402-64.686 32.598-48.438 6.384-102.423-16.486-139.125-63.658-56.55-72.687-59-139.165-33.89-181.108 16.725-27.934 45.846-44.265 76.504-43.892q1.484.017 2.968.088c14.426.683 29.115 5.08 42.942 13.718 54.013 33.746 75.728 82.143 70.425 117.754-2.65 17.806-13.254 33.073-30.02 38.168-15.574 4.733-34.518.857-55.595-12.13-6.516-3-12.882-7.375-18.572-13.065-19.452-19.453-23.65-46.791-9.379-61.064 14.272-14.272 41.612-10.076 61.066 9.378 19.003 19.004 23.44 45.531 10.329 60.051 2.49-.092 4.741-.452 6.716-1.053 9.3-2.827 15.085-10.374 16.971-23.04 3.774-25.334-12.82-68.52-61.846-99.15-36.085-22.547-76.088-10.214-96.472 23.835-20.385 34.05-20.768 91.434 32.603 160.031 33.03 42.454 81.09 61.99 121.934 56.608 40.167-5.294 74.18-33.2 83.732-91.535 1.91-56.265-17.766-111.875-59.3-153.41l-.034-.034c-31.14-31.124-79.645-58.435-132.467-75.28-38.271-10.126-69.104-2.288-92.845 16.708-25.944 20.758-43.36 55.853-48.457 97.37-2.83 23.053-1.87 47.97 3.379 73.284a34.9 34.9 0 0 1 22.685 12.25c11.208 13.375 9.78 33.56-3.668 44.256a259 259 0 0 0 13.713 25.19 31.8 31.8 0 0 1 8.95-1.22q1.264.006 2.527.108c11.23.9 22.334 7.324 29.648 17.358 8.63 11.837 10.16 27.277 3.916 38.69a292 292 0 0 0 24.14 20.327c4.44-4.13 10.106-6.906 16.07-8.273a45 45 0 0 1 7.552-1.06q1.449-.083 2.916-.075c6.85.03 13.978 1.497 20.932 4.41 10.595 4.44 19.084 11.522 24.355 20.084 5.27 8.562 7.302 19.218 3.26 28.865-4.043 9.647-13.064 15.672-22.864 17.918-9.8 2.247-20.804 1.165-31.4-3.275-10.594-4.44-19.082-11.521-24.353-20.084-3.99-6.48-6.114-14.156-5.164-21.69a311 311 0 0 1-29.315-24.583c-15.46 6.788-34.284-.154-44.99-14.84-9.558-13.11-10.418-30.641-1.643-42.223a278 278 0 0 1-15.648-28.83c-10.72.83-21.77-3.565-29.153-12.375-11.42-13.63-9.736-34.333 4.432-44.861a31.7 31.7 0 0 1 4.703-2.877c-5.555-27.058-6.592-53.807-3.53-78.75 5.566-45.34 24.602-85.104 55.329-109.688 9.508-7.608 20.146-13.654 31.727-17.902-11.147-1.26-22.212-1.959-33.09-2.051q-2.455-.023-4.897-.004zm-94.56 82.484c-1.99.11-4.173.719-6.54 1.902-4.734 2.368-9.695 7.13-12.976 13.705-3.28 6.575-4.105 13.401-3.15 18.607.954 5.207 3.304 8.438 6.51 10.037 3.203 1.598 7.2 1.537 11.933-.83 4.734-2.368 9.694-7.133 12.975-13.707 3.28-6.573 4.104-13.402 3.15-18.609-.954-5.205-3.306-8.434-6.51-10.033-1.602-.8-3.4-1.184-5.392-1.072zM79.156 209.256c-6.992.308-12.933 7.52-11.715 18.928 1.22 11.408 9.924 19.14 16.916 18.832s12.935-7.52 11.717-18.928c-1.218-11.41-9.925-19.14-16.918-18.832zm80.387 33.887c-2.76.09-5.41.918-7.53 2.496-5.661 4.205-6.522 11.583-1.26 17.865 5.266 6.282 14.666 7.393 20.327 3.187 5.66-4.206 6.522-11.583 1.258-17.865-2.632-3.14-6.298-4.99-10.014-5.527a16 16 0 0 0-2.78-.156zm45.56 80.818q-.58.005-1.144.05c-2.006.165-3.827.724-5.303 1.665-5.9 3.763-7.44 12.976-.68 22.248 6.759 9.27 18.165 11.613 24.067 7.85 5.902-3.76 7.443-12.978.684-22.25-4.753-6.518-11.803-9.61-17.622-9.563zm87.206 66.877q-.914-.006-1.793.04c-1.563.08-3.038.28-4.391.59-5.416 1.243-8.488 3.776-9.81 6.932s-.973 7.123 1.939 11.854 8.41 9.61 15.668 12.65 14.59 3.54 20.006 2.3c5.414-1.243 8.486-3.776 9.808-6.933 1.323-3.155.974-7.12-1.94-11.851-2.91-4.73-8.408-9.61-15.665-12.65-4.762-1.996-9.557-2.897-13.82-2.93z"/></svg>