<svg xmlns="http://www.w3.org/2000/svg" viewBox="0 0 512 512"><path d="M252.28 18.25 198.5 196.53 154.97 63.595l-50.75 182.5-33.25-87.625-34.907 140.75c-10.612 14.005-16.47 29.291-16.47 45.279 0 5.906.9 11.847 2.438 17.53 16.116-58.367 113.588-103.34 231.44-103.34 117.85 0 215.35 44.975 231.467 103.343 1.538-5.682 2.437-11.623 2.437-17.53 0-16.411-6.19-32.065-17.344-46.374L435.406 158.47l-29.029 76.75-48.348-171.627-47.75 146.844zm-.843 149.313c14.193 0 25.72 16.46 25.72 36.78s-11.527 36.813-25.72 36.813c-14.191 0-25.687-16.492-25.687-36.812s11.495-36.78 25.688-36.78zm-95.783 26.841.002.002c10.812 0 19.563 12.55 19.563 28.03 0 15.484-8.75 28.033-19.565 28.033-10.813 0-19.593-12.55-19.593-28.031 0-15.483 8.78-28.034 19.593-28.034zm202.063 0 .002.002c10.812 0 19.592 12.55 19.592 28.03 0 15.484-8.78 28.033-19.592 28.033-10.814 0-19.565-12.55-19.565-28.031 0-15.483 8.75-28.034 19.563-28.034zM72.748 239.656h.002c8.232.002 14.904 9.557 14.904 21.344s-6.673 21.344-14.906 21.344S57.844 272.788 57.844 261c0-11.787 6.672-21.342 14.904-21.344zm360.94 0c8.231 0 14.906 9.556 14.906 21.344s-6.675 21.344-14.906 21.344c-8.233 0-14.909-9.556-14.909-21.344s6.676-21.344 14.909-21.344zM126.344 403.5c-16.1.228-32.324 4.688-48.721 14.375 48.73 62.635 97.46 50.162 146.191 29.53-32.1-27.027-64.507-44.373-97.47-43.905zm257.875 0c-32.173.35-63.806 17.507-95.158 43.906 48.73 20.632 97.457 33.105 146.187-29.529-17.177-10.15-34.18-14.561-51.03-14.377z"/></svg>