<svg xmlns="http://www.w3.org/2000/svg" viewBox="0 0 512 512"><path d="m496.223 16.818-48.475 44.205 48.475 4.575zm-41.55 1.22-68.91 11.28-7.04 65.547zM352.26 77.905l-87.887 50.301 15.447 41.025 82.662-16.869zm64.34 25.024-32.967 67.441 24.842 70.686 54.314-134.192zm-271.362 72.806c-10.02.155-20.715 3.167-30.79 9.059 4.142 8.863 3.382 18.708-2.776 24.873s-15.993 6.926-24.846 2.78c-12.923 22.166-11.88 47.34 2.485 61.73l29.84-29.871c58.654 42.87 109.37 92.94 150.57 151.24l-36.19 36.23 6.61-6.603c14.283 14.298 39.192 15.418 61.23 2.73-4.88-9.197-4.365-19.738 2.108-26.218 6.47-6.478 16.998-6.995 26.183-2.114 12.66-22.062 11.542-46.999-2.73-61.299l-28.248 28.28c-57.035-42.41-107.91-92.664-151.426-150.385l35.455-35.492-6.611 6.601c-7.834-7.843-18.863-11.725-30.862-11.54zm108.45 4.512c-17.61 17.41-39.673 39.21-62.22 61.375a729 729 0 0 0 27.407 30.096l59.063-59.127zm78.28 32.69L297 219.968l-65 65.063a728 728 0 0 0 35 32.375c22.02-23.134 43.765-46.408 64.97-69.404v-35.065zM173.472 313.25c-31.146 40.858-67.879 74.323-108.907 101.875 4.13 13.708 16.395 26.373 30.625 30.563 29.466-41.26 61.112-79.901 100.97-109.97a638 638 0 0 0-22.688-22.468zM44.5 410.28l-20.844 20.845c7.133 24.65 27.844 44.912 53.721 53.438l19.28-19.313c-26.949-4.28-48.315-26.91-51.876-52.937l-.279-2.032z"/></svg>