<svg xmlns="http://www.w3.org/2000/svg" viewBox="0 0 512 512"><path d="M274.662 63.02 90.793 80.26l154.191 19.273c5.063-13.339 12.952-24.34 22.541-31.828a52 52 0 0 1 7.137-4.684zm19.832 12.802c-5.092.166-10.492 2.296-15.879 6.502-7.835 6.118-15.009 16.577-18.83 29.69s-3.477 26.097-.289 35.925c3.188 9.83 8.732 16.073 15.635 18.397s14.764.594 22.6-5.524c7.834-6.116 15.01-16.572 18.83-29.685 3.822-13.113 3.48-26.102.293-35.93-3.19-9.828-8.73-16.068-15.633-18.392a19 19 0 0 0-6.727-.98zm166.852 9.487c-24.113 13.949-46.195 20.298-87.235 17.252l-33.63 125.89c-.676 2.682-.319 6.001 1.921 10.871 2.243 4.876 6.355 10.89 11.836 17.608 9.99 12.242 24.527 27.16 39.573 44.238 14.56-5.5 28.23-12.83 38.972-20.191 11.841-8.113 20.234-16.95 21.965-19.94l42.027-118.219c-16.748-14.613-29.47-33.973-35.43-57.51zm-288.07 51.26L23.651 158.33l89.309 12.988 2.158-5.05zm286.263 2.326 16.941 6.078-39.123 109.037-37.21 19.18-8.249-15.999 30.914-15.931zm-259.842 4.392-70.586 36.043-29.22 68.424 19.216 8.809 24.907-57.764 59.298-22.975-14.703 75.955-.963 1.479c-32.724 50.18-71.652 93.41-118.462 134.28L42.723 432.98l17.02 7.245 31.874-43.989 1.381-.906c45.476-29.872 75.93-62.333 112.256-94.492l4.531-4.012 5.428 2.686c23.365 11.57 42.932 24.117 62.105 37.705l8.924 6.324-69.006 65.643 24.65 39.795 17.67-10.31-20.077-28.476 8.222-5.004c29.884-18.186 49.988-39.43 71.94-66.039-23.653-35.6-42.006-49.433-71.592-71.267l9.906-7.227c34.703-25.312 38.133-54.476 41.611-79.449-9.203 4.441-19.497 5.772-29.472 2.414-13.488-4.54-22.924-16.472-27.465-30.473-.17-.522-.323-1.054-.48-1.584zm116.621 45.041c-1.355 7.027-3.323 14.17-6.091 21.35l14.054 9.666 5.94-22.225zm-174.244 97.477-126.85 17.953 99.67 14.103a599 599 0 0 0 27.18-32.056zm91.781 82.728-95.89 21.434 59.404 13.275z"/></svg>