<svg xmlns="http://www.w3.org/2000/svg" viewBox="0 0 512 512"><path d="M319.594 23.78c-34.024 79.2-89.505 82.163-123.315 3.22 9.09 86.328-40.001 112.372-111.935 53.906 59.824 74.383 33.49 125.818-61.375 110.563 88.44 34.29 91.354 88.99 3.25 123.279 91.354-13.02 122.018 37.044 63.5 110 72.41-56.59 120.464-32.076 106.28 60.22 34.449-84.273 92.672-84.578 126.405 2.126h.032c-14.52-93.742 32-123.784 105.752-64.625-53.336-70.54-29.74-120.928 58.656-109-79.212-34.028-80.66-86.816-1.69-120.627-84.74 9.05-112.955-39.317-59.25-108.844-70.53 53.332-118.233 28.174-106.31-60.219zm-62.531 83.406.001.001c6.958 54.2 39.187 61.556 72.467 18.813-20.754 49.66 3.605 73.79 52.315 55-41.37 32.53-32.145 63.55 20.125 71.125-54.204 6.96-60.187 40.494-17.442 73.78-53.022-23.31-75.768 1.865-52.308 55.033-33.712-45.958-68.135-36.551-75.158 18.78-6.24-56.87-38.559-63.75-72.438-18.78 23.062-52.452-3.033-77.223-55.03-55.032 46.7-34.262 36.306-66.17-21.47-72.437 58.557-6.017 65.976-40.628 18.78-75.156 51.84 23.19 76.788-.012 57.72-49.659 32.526 41.354 64.863 30.793 72.438-21.468zm-2.657 62.345c-27.606.87-54.11 15.569-68.97 41.22-22.86 39.468-9.368 89.607 30.25 112.405 39.62 22.8 90.016 9.342 112.877-30.125a82.8 82.8 0 0 0 7.718-17.842c-12.425 22.18-36.143 37.188-63.375 37.188-40.098 0-72.593-32.527-72.593-72.625 0-33.697 22.966-62.033 54.093-70.22zm27.717 15.5c-24.258.002-43.904 19.649-43.904 43.906 0 24.26 19.645 43.94 43.904 43.94s43.94-19.68 43.94-43.94c0-24.258-19.68-43.904-43.936-43.906z"/></svg>