<svg xmlns="http://www.w3.org/2000/svg" viewBox="0 0 512 512"><path d="m273.594 20.06-5.94 87.438c-12.74 7.1-24.461 16.97-34.185 29.688-5.627-8.07-11.944-14.987-18.72-20.813L189 20.063h-46.906l37.594 76.78a94.2 94.2 0 0 0-27.47-4.187 94.3 94.3 0 0 0-23 2.78c-9.592 2.388-18.805 6.298-27.312 11.533L18.53 23.594v70.31l56.192 37.815c-12.143 16.172-19.907 36.81-20.659 60.78-.14 4.437-.025 8.76.313 12.97l-35.844-9.658v41.843l44.721 3.094c3.274 7.523 7.288 14.612 11.904 21.28 9.205 13.294 20.61 25.098 33 36.345L18.53 322.188V368.5l109.159-53.28c13.031 10.869 26.394 21.639 39.093 33L20.346 494.28h71.433l88.971-132.936c14.037 13.884 26.635 28.95 36.188 46.344l-23.22 86.593h41.595l4.593-65.935 1.938-5.032c9.503-24.743 24.99-45.299 42.937-63.939l35.625 134.906h47.221L296.219 348c9.033-8.604 18.47-16.855 27.935-25.03L492.78 491.595v-70.94l-158.374-106.53c1.105-.955 2.21-1.923 3.313-2.877 10.166-8.807 20.203-17.72 29.467-27.062l125.593 33.908v-42.221l-111-7.719c13.545-16.36 24.01-34.351 28.534-55.435l82.468-21.942v-47.841l-80.185 39.468c-1.48-25.603-11.337-46.322-25.94-61.25L487.75 20.063h-70.375l-55.906 83.06a93 93 0 0 0-22.375-7.404c-14.422-2.82-29.658-2.43-44.471 1.185l20.813-76.843zm-121.375 91.128c27.033-.222 54.69 13.834 72.654 47.562l7.906 14.813 8.442-14.532c21.855-37.654 61.14-51.45 94.308-44.969 33.17 6.483 59.992 31.782 58.5 78.44-1.38 43.233-31.409 72.474-68.529 104.625-32.58 28.218-70.07 57.917-92.594 100.78-23.6-42.683-62.317-71.128-95.156-98.626-18.69-15.648-35.51-30.996-47.22-47.904-11.708-16.908-18.508-35.106-17.78-58.28 1.364-43.453 28.753-71.514 61-79.533 6.046-1.504 12.23-2.323 18.47-2.375zm162.75 24.312c-11.794 0-23.04 3.427-32.248 9.406 20.885-2.46 44.745 10.981 59.029 35.72 12.43 21.527 14.014 45.497 5.938 62.468 15.645-10.572 25.78-28.802 25.78-49.094a58.297 58.297 0 0 0-58.497-58.5z"/></svg>