<svg xmlns="http://www.w3.org/2000/svg" viewBox="0 0 512 512"><path d="m114.875 18.844.406 16.594 2.94 136.593h.06c26.11 0 47.315 21.206 47.315 47.315s-21.206 47.31-47.315 47.31a47 47 0 0 1-23.592-6.31l-70.875 116.56-8.658 14.156 17.5-.156 132.065-3c-.004-.198 0-.394 0-.594 0-26.107 21.169-47.28 47.279-47.28s47.313 21.173 47.313 47.28a47 47 0 0 1-5.563 22.22l119.438 72.624 15.093 8.906-.404-16.625-2.94-128.937c-1.245.1-2.509.156-3.779.156-26.11 0-47.312-21.204-47.312-47.312 0-26.11 21.202-47.313 47.31-47.313a47.03 47.03 0 0 1 23.031 6L479.378 133l8.654-14.187-17.529.156-136.094 3.094c.005.28.03.558.03.841.002 26.11-21.201 47.315-47.31 47.315s-47.314-21.206-47.314-47.315c0-8.885 2.451-17.206 6.72-24.312L129.97 27.72zm19.248 33.279h.002l17.094 10.408 64 110.875a88 88 0 0 0-16.25 9.25L134.563 71.094zm320.596 85.941-9.815 16.124-112.31 64.843a89 89 0 0 0-4.281-8.435 89 89 0 0 0-5.034-7.782l111.377-64.283zm-204.156 51.153-.002.002a61 61 0 0 1 2.218 0c22.475.253 44.168 11.71 56.188 32.53 18.315 31.724 6.6 72.119-25.125 90.437-31.725 18.316-71.498 7.662-89.815-24.063-18.315-31.725-7.66-71.495 24.065-89.812a67.75 67.75 0 0 1 32.47-9.094zM170.5 291.03a91 91 0 0 0 9.375 16.19L68.75 371.373l-20.312.47 9.687-15.939zm133.498 36.094.002.002 64.625 111.969.438 18.656-17.344-10.565-63.875-110.625a88 88 0 0 0 7.779-3.966 88 88 0 0 0 8.375-5.471z"/></svg>