<svg xmlns="http://www.w3.org/2000/svg" viewBox="0 0 512 512"><path d="M405.822 78.898 76.04 408.656l24.445 24.444 329.782-329.756zM256 118.451a239.7 239.7 0 0 0-84.453 15.617 271 271 0 0 0-38.861 18.59 293 293 0 0 0-34.817 23.82 312 312 0 0 0-29.424 26.508 336 336 0 0 0-22.68 25.356l-4.46 5.553-3.93 5.267c-2.443 3.204-4.517 6.224-6.2 8.678s-2.975 4.541-3.85 5.855L26 255.758l1.324 2.062c.876 1.325 2.169 3.459 3.852 5.856 1.682 2.398 3.756 5.474 6.199 8.678l3.93 5.265 4.46 5.557a336 336 0 0 0 22.68 25.353 312 312 0 0 0 29.424 26.508 297 297 0 0 0 14.82 11.018l60.737-60.737a87.5 87.5 0 0 1-5.108-29.64h.002a87.704 87.704 0 0 1 117.196-82.576l43.402-43.403A236.4 236.4 0 0 0 256 118.451zm140.557 44.67-59.375 59.375a87.692 87.692 0 0 1-114.35 114.352l-43.31 43.308A240 240 0 0 0 256 392.912a236.8 236.8 0 0 0 84.453-15.258 269 269 0 0 0 38.861-18.543 290 290 0 0 0 34.817-23.822 312 312 0 0 0 29.424-26.564 340 340 0 0 0 22.68-25.457c3.145-3.884 5.947-7.459 8.39-10.87 2.443-3.227 4.517-6.247 6.2-8.736s2.975-4.609 3.85-5.889L486 255.69l-1.312-2.097c-.876-1.337-2.166-3.517-3.85-5.89-1.682-2.375-3.757-5.508-6.201-8.735-2.443-3.457-5.256-6.995-8.39-10.867a340 340 0 0 0-22.68-25.46 312 312 0 0 0-29.422-26.564 306 306 0 0 0-17.588-12.955z"/></svg>