<svg xmlns="http://www.w3.org/2000/svg" viewBox="0 0 512 512"><path d="M251.47 18.844c-42.102 0-80.823 25.502-109.532 68.156C113.227 129.654 95 189.316 95 255.406s18.227 125.784 46.938 168.438c28.71 42.653 67.43 67.469 109.53 67.469 42.103 0 80.853-24.816 109.563-67.47 28.712-42.653 46.94-102.346 46.94-168.437 0-66.09-18.228-125.752-46.94-168.406-28.71-42.654-67.46-68.156-109.56-68.156zm-52.94 161.812h.001a80 80 0 0 1 2.719 0c9.685.198 19.48 2.548 29.188 6.438l-7 16.937c-31.307-12.544-60.595-2.12-80 30.94l-16.375-9.909c16.74-28.519 43.403-44.004 71.466-44.406zm104.72 1.156h.002c28.063.403 54.693 15.886 71.435 44.407l-16.343 9.342c-19.407-33.06-48.694-42.918-80-30.375l-7-17.53c9.707-3.89 19.502-5.614 29.187-5.812.91-.02 1.815-.045 2.719-.031zM252.186 245.5h.001c53.175 0 96.282 50.128 96.282 111.97 0 61.839-43.109 112-96.283 112s-96.28-50.16-96.28-112c0-61.842 43.106-111.97 96.28-111.97zm-19.528 54.154-.002.002 2 14.094 11.031 78.78c-6.2-2.445-13.285-3.874-20.656-3.874-21.288 0-36.88 11.77-34.844 26.28 2.04 14.513 20.96 26.25 42.25 26.25s36.883-11.737 34.844-26.25q.002-.015 0-.03l.408-.062-9.25-66.875 39.875 13.31 12.094 4.44v-45.125l-6.875-1.625-57.185-15.692z"/></svg>