<svg xmlns="http://www.w3.org/2000/svg" viewBox="0 0 512 512"><path d="M231.654 43.533c-17.703.542-32.729 13.82-35.16 31.727l-.547 4.045a513 513 0 0 1-11.015 56.85l-4.104 16.208 36.758 4.996.365-16.716a513 513 0 0 1 4.533-57.73l.551-4.046a9.867 9.867 0 0 1 10.426-8.523c5.147.34 9.148 4.618 9.148 9.779v241h26.782v-241c0-19.279-14.94-35.252-34.162-36.525q-1.803-.119-3.575-.065zM179.35 163.262l-2.403 17.707 36.756 4.996 2.404-17.707zm-17.62 98.478c-12.444.565-23.195 9.808-25.212 22.604l56.578 8.935-10.713 27.844h37.496v-39.297a13.4 13.4 0 0 0-11.305-13.238l-41.428-6.543a27 27 0 0 0-5.416-.305zm188.54 0a27 27 0 0 0-5.416.305l-41.428 6.543a13.4 13.4 0 0 0-11.305 13.238v39.297h37.496l-10.713-27.844 56.578-8.935c-2.017-12.795-12.768-22.039-25.212-22.604zM98.496 335.725a26.78 26.78 0 0 0-22.176 11.771l-53.564 79.15a26.83 26.83 0 0 0-1.485 27.598 26.78 26.78 0 0 0 23.66 14.24h422.137a26.78 26.78 0 0 0 23.66-14.24 26.83 26.83 0 0 0-1.484-27.598l-53.564-79.15a26.78 26.78 0 0 0-22.176-11.771zm0 26.804h315.008l53.564 79.149H44.932z"/></svg>