<svg xmlns="http://www.w3.org/2000/svg" viewBox="0 0 512 512"><path d="M18.7 18.7v31.474l7.804 9.853c-3.24 5.71-5.774 11.463-7.512 17.12-.104.34-.193.684-.29 1.025v28.437c1.391 3.52 3.446 6.761 6.275 9.584 9.892 9.873 24.882 10.316 39.107 5.93 2.954-.91 5.934-2.048 8.922-3.377l38.894 49.115c-1.928 4.116-3.545 8.22-4.81 12.268-5.35 17.106-4.78 34.654 6.61 46.068 11.391 11.41 28.924 11.99 45.96 6.67a96 96 0 0 0 2.942-.978l65.402 82.586a117 117 0 0 0-1.49 4.61c-6.15 20.657-5.49 41.09 7.65 54.255 11.795 11.818 29.506 13.57 47.713 9.166l87.736 110.79h23.84l-2.316-2.923c3.324-9.926 8.54-20.651 15.472-31.45l31.366 34.374H493.3v-75.473l-31.063-27.095c5.482-8.462 10.068-16.988 13.664-25.397l17.397 13.361v-23.56l-10.98-8.436c5.675-22.206 3.703-43.49-10.225-57.388-15.163-15.132-39.035-16.086-63.23-8.473a131 131 0 0 0-8.41 2.984l-89.493-68.736c.83-2.283 1.581-4.55 2.238-6.8 5.66-19.4 4.955-38.725-7.53-51.235-12.483-12.51-31.86-13.23-50.99-7.25-6.113 1.91-12.344 4.525-18.581 7.787l-59.504-45.703c2.706-4.89 4.92-9.772 6.59-14.559 5.17-14.83 5.566-30.394-4.614-40.595-10.178-10.202-25.744-9.824-40.57-4.665-7.716 2.685-15.67 6.774-23.54 12.092L55.274 18.7zm137.84 48.556c4.272-.033 7.21 1.077 8.802 2.672 2.83 2.835 4.132 9.955.195 21.244-1.012 2.903-2.35 5.977-3.99 9.152l-31.27-24.017c4.855-2.87 9.55-5.088 13.866-6.59 4.938-1.72 9.072-2.435 12.396-2.46zM39.296 76.182l21.613 27.297c-.788.282-1.57.55-2.336.787-10.46 3.225-17.253 1.84-20.396-1.297s-4.526-9.901-1.32-20.334c.635-2.07 1.455-4.232 2.439-6.453zm78.734 14.285 33.367 25.629c-.527.686-1.084 1.37-1.634 2.052zm-17.095 33.447 22.41 24.563c-.47.658-.94 1.315-1.397 1.976zm65.31 3.59 52.867 40.603a162 162 0 0 0-6.463 4.905l-48.771-42.547c.803-.984 1.601-1.971 2.367-2.961zm-29.937 35.178.002.002 38.626 42.334a107 107 0 0 1-6.67 3.921l-34.048-42.994a113 113 0 0 1 2.09-3.263zm140.771 2.164v.002c6.828.095 12.03 2.068 15.36 5.406 5.684 5.696 7.436 16.948 2.824 32.775L252.779 170.4c2.548-1.07 5.05-2.006 7.475-2.763 5.763-1.8 10.93-2.685 15.44-2.785q.704-.016 1.386-.006zm-42.338 15.261 53.252 40.905c-1.968 3.888-4.236 7.85-6.748 11.836l-54.215-47.293a140 140 0 0 1 7.711-5.448zm-109.488 4.622 24.86 31.392c-11.156 2.685-19.058 1.011-23.184-3.121l-.002-.002c-4.6-4.61-6.178-13.936-2.002-27.291.1-.322.22-.651.328-.978zm62.484 34.318 56.766 62.213c-2.957 4.59-5.664 9.188-8.06 13.773l-56.39-71.209a127 127 0 0 0 7.684-4.777zm115.342 13.55 78.408 60.221c-6.084 3.394-12.166 7.28-18.177 11.618l-67.793-59.141c2.768-4.223 5.3-8.464 7.562-12.697zm134.16 62.272c9.404.114 16.794 2.821 21.653 7.668 6.444 6.43 9.11 17.333 6.96 31.518l-47.537-36.512c6.178-1.672 11.877-2.538 17.016-2.662q.967-.022 1.908-.01zm-179.63.754 50.32 55.15c-6.605 4.173-13.157 7.547-19.403 10.03l-39.18-49.477c2.284-5.103 5.053-10.373 8.262-15.703zm140.245 9.768 62.665 48.13c-3.06 7.96-7.285 16.32-12.563 24.754l-70.105-61.156c6.714-4.59 13.44-8.518 20.003-11.728zM242.43 332.695l26.26 33.16c-9.63.86-16.911-1.316-21.3-5.712-5.221-5.232-7.314-14.615-4.96-27.448zm78.302 32.112 72.788 79.77c-6.504 9.501-11.876 19.133-15.967 28.646l-76.987-97.217c6.712-3.015 13.476-6.771 20.166-11.2z"/></svg>