<svg xmlns="http://www.w3.org/2000/svg" viewBox="0 0 512 512"><path d="M302 31.9c-18.3-.5-33.6 14-34.1 32.3-.5 18.4 14 33.7 32.3 34.2 18.4.5 33.7-14 34.2-32.4.5-18.3-14-33.6-32.4-34.1zm-53.2 46.9c-59.2 6.7-119.6 39.4-170.38 106.6l150.38-60.1-35.6 120.5L213.1 415l24.9-20.2 20.7-140.4 82.5-9.4 17.5 70.5 30.6-16.7-8.3-88.7-92.8-13.2 28.6-55.2L465.2 190c-27.9-45.3-69.4-80-116.9-98.2-9.6 16.8-27.9 28-48.6 27.4-24.6-.6-45-17.7-50.9-40.4zm172.9 212.6-.5 23.3C391.3 333.3 230.9 433 201 451l-21.2-10-3.6 8 26.82 24.926L441.8 326.5l.7-34.6zM203.02 473.926l-.12.074h.2zM419.793 354.58A15.6 15.6 0 0 0 411 356.9c-7.3 4.5-9.5 14.1-5 21.4s14.1 9.5 21.4 5c7.2-4.5 9.5-14.1 5-21.4-2.812-4.562-7.617-7.132-12.607-7.32zM82 390.4l48 64.6-99-45 82 56-77 3 153 20zm169.88 68.14a13.73 13.73 0 0 0-8.68 2.46c-7.2 4-9.4 14-5 21 4.5 7 13.9 9 21.1 5 7.2-5 9.5-14 5-21-2.75-4.375-7.491-7.187-12.42-7.46z"/></svg>