<svg xmlns="http://www.w3.org/2000/svg" viewBox="0 0 512 512"><path d="M425.344 22.219v.002c-9.027.085-18.7 5.825-24.344 19.404-11.143 26.803-31.93 59.157-58.562 93.47a141.2 141.2 0 0 1 27.5 30.31c35.1-26.57 68.882-46.81 98.125-56.75 44.6-15.16 12.019-69.72-35.344-35.342 26.91-27.842 11.108-51.271-7.375-51.094zm-341.217.029-.004.002c-18.5.378-37.603 23.962-16.342 49.875C31.523 38.635-.8 85.48 37.096 102.813c28.085 12.843 62.538 35.66 99.06 64.343 8.125-12.5 18.209-23.61 29.781-32.937-26.781-35.743-48.44-69.836-61.78-98.471-4.516-9.69-12.22-13.66-20.03-13.5zm169.496 99.69c-67.104 0-121.309 54.21-121.309 121.312 0 44.676 24.04 83.613 59.905 104.656v56.406h18.719v-47.468a120 120 0 0 0 16.091 4.779v42.69h18.692V364.28a124 124 0 0 0 15.748 0v40.031h18.685v-42.687a121 121 0 0 0 16.094-4.78v47.467h18.69V347.97c35.92-21.03 60-60.004 60-104.721 0-67.105-54.21-121.312-121.315-121.312zm-66.873 88.218c19.88 0 36 16.12 36 36s-16.12 36-36 36-36-16.12-36-36 16.12-36 36-36zm133.563 0c19.877 0 36 16.12 36 36s-16.123 36-36 36c-19.88 0-36-16.12-36-36s16.12-36 36-36zm-66.72 52.346 29.938 48.185h-59.875zm-107.28 70.56c-40.263 32.472-78.545 58.411-109.22 72.438-37.895 17.334-5.57 64.146 30.688 30.656-30.237 36.854 21.166 69.05 36.375 36.406 15.072-32.351 40.729-71.7 72.44-112.5a141 141 0 0 1-30.282-27zm213.156 1.72a141 141 0 0 1-27.908 24.689c31.846 39.39 56.82 76.862 69.437 107.217 17.203 41.382 71.775 9.723 31.72-31.717 47.364 34.376 79.94-20.186 35.343-35.346-32.146-10.926-69.757-34.3-108.592-64.844z"/></svg>