<svg xmlns="http://www.w3.org/2000/svg" viewBox="0 0 512 512"><path d="M157.54 15.78c-2.839.002-5.677.125-8.5.365-22.6 1.92-44.724 11.21-61.347 26.587-16.32 15.096-27.203 36.473-26.69 61.45 3.876-.13 9.014-.284 14.847-.397 1.073-.02 2.088-.027 3.146-.043-.402-19.627 7.798-35.656 20.92-47.795 13.38-12.377 32-20.283 50.647-21.867 18.516-1.573 36.767 2.965 50.646 14.524a45.3 45.3 0 0 1 16.602-5.51 53 53 0 0 1 3.193-.297 77 77 0 0 0-7.89-7.715c-15.843-13.365-35.716-19.31-55.577-19.3zm68.075 44.28.002.002c-2.986.058-5.93.6-8.842 1.477a27 27 0 0 0-3.25.973l.075.119c-3.47 1.38-6.817 3.334-9.692 6.35-3.5 3.672-6.077 9.9-4.693 15.998l.094.414.045.142c11.862-10.083 27.67-14.762 42.445-14.639.3.002.595.024.894.03l-.068-.867-.592-1.375c-2.704-6.274-8.676-8.049-13.11-8.49a28 28 0 0 0-3.308-.133zm52.043 21.24.002.002c-6.248.09-12.4.573-18.474 1.377l-.582.54 4.716 17.102c4.68-.57 9.39-.928 14.133-1.015q2.401-.045 4.817 0c36.412.658 76.09 16.07 122.072 59.433l15.937-9.623c-49.936-48.12-95.312-67.04-137.683-67.806a148 148 0 0 0-4.938-.01zM225.37 91.895c-6.7 2.283-12.922 5.844-17.353 10.447l2.01 10.578c4.8-7.386 9.9-14.41 15.345-21.025zm18.598 5.953c-4.65 5.218-9.075 10.81-13.297 16.738 5.564-1.297 11.307-1.986 17.088-2.13a382 382 0 0 1-.301-1.958l-3.488-12.65zM190.199 105c-10.62 5.178-21.059 10.89-31.367 16.828l14.736 8.645-.23-.047c.64.353 1.372.707 1.754 1.027.528.443.905.83 1.213 1.19 5.797-3.22 11.592-6.312 17.392-9.227zM80.691 121.756c-1.61.018-2.815-.007-4.496.025-8.207.16-14.148.39-16.603.479-2.228 1.913-6.242 5.488-11.158 11.177-6.63 7.67-12.168 17.599-12.092 23.325.095 7.15 3.728 19.278 9.734 30.226s14.41 20.872 21.871 25.426c.002 0 2.58.932 6.514 1.07s9.175-.219 15.039-1.039c11.728-1.64 25.992-5.075 39.117-9.215 8.666-2.735 16.263-5.755 22.9-8.71-17.422-3.064-34.79-11.905-48.413-23.3-9.947-8.317-17.986-18.11-21.704-29.304a36 36 0 0 1-.707-20.16zm170.131 8.596c-13.804-.118-26.668 3.535-35.957 11.37.29 1.235.584 2.44.873 3.696 7.614 33.128 13.769 73.212 9.866 97.246-5.603 34.496-31.538 84.64-56.231 125.106-14.89 24.398-29.137 45.285-38.178 58.144 10.07-.018 20.817 2.73 31.086 7.26 11.084 4.89 21.574 11.887 29.23 20.914a51 51 0 0 1 4.061 5.488c1.36-3.347 2.576-6.353 4.36-10.703 5.542-13.528 13.064-31.453 21.98-50.63 17.835-38.353 41.726-81.851 64.652-103.98 25.013-24.14 74.935-49.443 118.11-67.835a1059 1059 0 0 1 18.676-7.735c-4.533-14.565-13.662-26.322-24.895-37.757-.622.35-1.231.7-1.86 1.052-35.47 19.846-79.238 38.213-106.958 35.963-3.385-.274-8.84-3.984-12.03-8.44-11.913-16.64-21.223-49.812-26.785-79.157zm-106.342 3.927c-.125.142-.195.26-.324.407-3.408 3.85-7.99 8.477-12.875 13.076-4.585 4.317-9.377 8.534-13.717 11.965 14.612 11.06 34.846 18.494 49.541 17.9.08-3.49-.12-7.654-.57-11.81-.688-6.328-1.886-12.74-3.015-17.247a44 44 0 0 0-1.131-3.79zm322.356 5.201c-2.163.02-4.4.502-6.305 1.614l-.427.252-.4.297s-2.871 2.124-7.901 5.642c14.61 14.434 22.734 32.15 28.22 50.262l4.315-1.457-.045.012c3.98-1.237 7.184-4.907 8.28-7.91 1.196-3.283 1.194-6.115.98-8.954-.425-5.676-2.145-11.535-4.498-17.277s-5.26-11.187-9.092-15.606c-1.915-2.21-4.044-4.268-7.264-5.728-1.61-.73-3.7-1.169-5.86-1.147zm-37.348 25.102-13.875 8.377c5.383 5.814 10.47 12.035 14.83 18.9 1.41-8.553 1.554-17.292-.955-27.277zm19.405 7.455c1.144 12.08-.52 22.995-2.93 33.05l15.717-5.33c-3.235-10.06-7.23-19.383-12.787-27.72zM130.947 443.912l.002.002q-.666 0-1.299.03c-6.752.315-9.117 1.857-10.17 4.693l-2.212 5.965a29.7 29.7 0 0 0 2.834 11.68c3.7 7.817 10.09 14.155 17.732 18.603s16.732 7.043 26.115 5.9c7.178-.874 14.384-4.266 20.184-10.12.164-4.883-1.949-9.743-6.352-14.935-5.278-6.223-13.746-12.11-22.763-16.087-8.454-3.73-17.419-5.75-24.07-5.73z"/></svg>