<svg xmlns="http://www.w3.org/2000/svg" viewBox="0 0 512 512"><path d="M256 16c-30 0-50 20-50 40 0 20.478 10.487 33.113 22.063 52.625a149.2 149.2 0 0 0-56.532 23.406c-5.608-21.973-7.117-38.335-21.594-52.81-14.14-14.143-42.443-14.152-63.656 7.06-21.212 21.214-21.202 49.515-7.058 63.656 14.476 14.478 30.835 15.985 52.808 21.594a149.2 149.2 0 0 0-23.404 56.533C89.113 216.488 76.478 206 56 206c-20 0-40 20-40 50s20 50 40 50c20.478 0 33.113-10.487 52.625-22.062a149.2 149.2 0 0 0 23.406 56.53c-21.973 5.609-38.335 7.117-52.81 21.593-14.143 14.142-14.152 42.445 7.06 63.658 21.214 21.212 49.515 21.202 63.656 7.058 14.478-14.476 15.985-30.835 21.594-52.808a149.2 149.2 0 0 0 56.533 23.404C216.488 422.887 206 435.522 206 456c0 20 20 40 50 40s50-20 50-40c0-20.478-10.487-33.113-22.062-52.625a149.2 149.2 0 0 0 56.53-23.406c5.609 21.973 7.117 38.335 21.593 52.81 14.142 14.143 42.445 14.152 63.658-7.06 21.212-21.214 21.202-49.515 7.058-63.658-14.476-14.477-30.835-15.983-52.808-21.592a149.2 149.2 0 0 0 23.404-56.533C422.887 295.513 435.522 306 456 306c20 0 40-20 40-50s-20-50-40-50c-20.478 0-33.113 10.487-52.625 22.063a149.2 149.2 0 0 0-23.406-56.532c21.973-5.608 38.335-7.117 52.81-21.594 14.143-14.14 14.152-42.443-7.06-63.656-21.214-21.212-49.515-21.202-63.658-7.058-14.477 14.476-15.983 30.835-21.592 52.808a149.2 149.2 0 0 0-56.533-23.404C295.513 89.113 306 76.478 306 56c0-20-20-40-50-40zm0 180c16.568 0 31.58 6.705 42.438 17.563C309.293 224.419 316 239.433 316 256c0 16.568-6.705 31.58-17.562 42.438C287.58 309.293 272.567 316 256 316s-31.58-6.705-42.437-17.562S196 272.567 196 256s6.705-31.58 17.563-42.437C224.419 202.707 239.433 196 256 196z"/></svg>