<svg xmlns="http://www.w3.org/2000/svg" viewBox="0 0 512 512"><path d="M263.453 18.305c31.354 40.286 20.02 66.068-3.83 89.12 1.89-7.245 3.109-14.645 3.55-22.056 1.458-24.356-6.55-49.206-26.278-67.062h-35.776c34.436 12.88 45.069 38.046 43.4 65.949-1.033 17.29-7.675 35.33-17.593 50.312-11.71 9.188-23.477 18.68-33.33 29.295-18.288 19.702-31.147 38.492-39.57 56.352 3.43-21.496 10.05-42.48 15.67-63.994 6.36-24.35 11.415-49.27 7.54-75.405-3.037-20.482-11.73-41.364-28.69-62.51H123.66c22.473 23.29 32.004 44.439 35.09 65.253 3.27 22.058-.962 44.3-7.137 67.937-12.16 46.555-31.934 98.969-5.064 159.815-12.032 27.753-6.856 56.389 7.924 78.787 5.667 8.588 12.605 16.416 20.416 23.275a168.27 168.27 0 0 0-58.782 79.926h317.196c-20.4-58.752-72.103-102.478-135.453-111.137-103.568-7.857-133.265-149.087 2.99-216.369-73.545 91.13-68.33 138.607-30.356 172.494-6.273-23.09-6.493-48.714 2.305-74.197 42.55-13.055 93.052-42.474 124.42-83.826 17.266-22.765 28.634-49.494 28.21-78.762-.383-26.6-10.61-54.804-33.308-83.197h-23.757c31.687 29.94 43.621 103.442-31.874 140.558 38.92-50.098 22.512-112.9-26.183-140.558zm142.225 98.677c-2.836 18.55-11.212 35.977-23.36 51.99-24.127 31.81-63.364 57.2-98.53 71.33 12.743-21.741 32.915-42.753 62.462-61.296 32.67-20.504 51.2-41.087 59.428-62.024zm-247.256 217.97c12.986 22.254 31.94 41.7 52.207 58.232-.04.015-.074.033-.111.048 28.763 17.358 48.083 56.824 12.921 85.764 7.22-26.29-13.269-64.455-36.154-79.363l.363-.188c-6.822-5.85-12.848-12.476-17.578-19.642-9.107-13.8-14-28.926-11.648-44.852z"/></svg>