<svg xmlns="http://www.w3.org/2000/svg" viewBox="0 0 512 512"><path d="M329.24 23.746c-13.348-.258-12.028 91.912-5.709 103.035 3.875 6.82 6.195-10.662 21.024-12.25-5.408 5.15-24.324 30.741-14.426 41.38.693.745 18.479-18.13 18.039-10.917-17.332 22.232-16.616 33.91-8.78 35.762 2.586 4.382 3.882-6.777 14.792-8.992-11.88 13.923-7.976 27.244-1.86 32.416 11.887 21.494 28.463 32.737 36.217 52.19a124.2 124.2 0 0 1 38.549 7.804c2.59-77.788-20.787-159.03-94.13-238.262-1.347-1.455-2.583-2.142-3.714-2.166zm-299.674 76.58c-27.675-1.459 25.31 99.44 40.842 104.735 9.028 3.08-7.155-25.09 6.764-35.74-.692 7.247 2.923 52.275 21.6 54.8 1.24.17 1.709-42.155 6.707-36.168-.207 28.2 11.986 53.526 21.037 50.211 5.823 1.895-.888-26.21 8.105-34.625-1.13 18.285 12.287 44.93 22.156 45.297 28.437 10.01 58.302 20.303 86.952 30.89 4.418 1.634 1.102-6.726 6.992-11.078 1.065 9.216 12.584 18.438 15.76 19.666a1119 1119 0 0 1 23.824 9.51 126 126 0 0 1 12.935-12.474c-77.025-62.935-170.466-124.18-259.66-152.713l5.318-17.198c105.32 40.04 191.081 91.35 269.48 159.051a125 125 0 0 1 12.847-6.86C251.984 193 158.57 120.55 30.947 100.474q-.72-.112-1.379-.147zm353.739 173.928c-59.2 0-107 47.8-107 107 0 30.278 12.506 57.568 32.642 77.012-1.39-9.04-1.943-18.47-1.482-27.602.496-9.845 2.167-19.324 5.795-27.623 3.627-8.298 9.596-15.733 18.402-19.244a35.7 35.7 0 0 1 12.584-2.533c12.574-.25 24.82 5.853 34.05 13.859 4.156 3.603 7.78 7.693 10.636 12.17 13.152 2.84 32.048.044 47.14-7.357 8.528-4.182 15.806-9.692 20.444-15.553 3.14-3.967 5.095-7.921 5.832-12.03.002-6.433 2.07-13.401 5.414-18.624 3.494-5.067 8.81-9.073 15.297-11.327-15.515-39.925-54.265-68.144-99.752-68.144zm104.83 85.396c-2.66 1.017-4.329 2.515-5.553 4.291-5.126 9.37.64 20.764 7.402 25.672q.319-4.137.32-8.357c0-7.403-.747-14.629-2.17-21.604zm-17.528 35.926v.002l.002-.002zm0 .002c-5.46 6.89-12.556 12.619-20.513 17.252 5.16 16.898 5.142 34.561 2.59 49.95 16.427-13.987 28.557-32.856 34.162-54.395a41.8 41.8 0 0 1-16.239-12.807zM344.74 399.44c-7.465-.31-12.7 5.705-14.988 10.811-2.373 5.43-3.89 13.007-4.31 21.32-.737 14.576 1.93 31.45 6.115 43.403 15.327 8.463 32.96 13.28 51.746 13.28 16.913 0 32.892-3.905 47.095-10.858 4.933-14.36 8.046-37.204 3.096-56.84-12.46 4.56-25.81 6.867-38.375 5.912.007 3.665-.704 7.363-2.39 10.885-5.05 10.552-16.13 15.3-27.65 15.064s-24.379-8.766-27.411-24.353l17.668-3.438c1.726 8.877 5.148 9.694 10.111 9.795 4.96.102 10.56-3.82 11.047-4.84.96-2.005 1.02-4.714-.61-8.617-1.633-3.902-5.017-8.458-9.382-12.244-6.55-5.68-14.805-9.178-21.762-9.28z"/></svg>