<svg xmlns="http://www.w3.org/2000/svg" viewBox="0 0 512 512"><path d="M316.28 19.063 211.19 47.25l36.624 67.78-61.25 16.44L184 54.53 80.438 82.312 52.47 186.72l77 2.185L113 250.344l-67.875-36.22-27.904 104.065 75.842 75.844 40.593-65.56 45.25 45.25-65.562 40.625 76.53 76.529 103.782-27.813-36.5-68.029 61.53-16.47 2.377 77.158 104.687-28.065 27.97-104.437-77.158-2.375L393 259.47l68.03 36.5 27.908-104.221-77-77.03-40.47 65.718-44.624-44.657 65.406-40.75zm-63.09 105.935V125l11.53 21.344-22.874 69.72-54.094-49.095-.813-24.19zm64.062 16.752 48.28 48.313-13 21.125-71.81 15.062 15.467-71.375zm-176.44 47.469.002.002 23.75.685 48.938 54.656-69.563 22.282L123 255.656zm221.096 53.56 21.125 11.346-17.78 66.375-23.97-.75-48.5-53.937 69.125-23.032zm-139.25 41.502-14.625 71.375-19.53 12.094-48.874-48.906 12.094-19.5zm40.44 11.065 54.498 48.342.72 23.53-66.533 17.844-11.125-20.75z"/></svg>