<svg xmlns="http://www.w3.org/2000/svg" viewBox="0 0 512 512"><path d="M256 97c-7.5 0-16.28 6.144-25.512 19.992-2.506 3.76-4.983 8.018-7.422 12.678 4.796 1.746 9.125 4.077 13.098 6.152C243.984 139.908 250.51 143 256 143c5.51 0 12.03-3.075 19.844-7.145 3.98-2.072 8.31-4.4 13.107-6.152-2.443-4.673-4.925-8.944-7.437-12.71C272.28 103.14 263.5 97 256 97zm-40.695 49.168a335 335 0 0 0-5.15 12.848c10.322.362 18.753 5.016 26.01 8.806C243.982 171.908 250.507 175 256 175c5.51 0 12.03-3.075 19.844-7.145 7.26-3.78 15.686-8.428 26.004-8.83a332 332 0 0 0-5.141-12.826c-3.757 1.2-7.906 3.2-12.547 5.617-7.755 4.04-16.804 9.182-28.16 9.182-11.374 0-20.42-5.176-28.17-9.225-4.64-2.423-8.78-4.416-12.525-5.605zm-7.018 30.826v.002c-1.15.037-2.794.353-4.723.867-14.73 45.123-26.11 100.996-33.892 146.918C197.62 328.896 226.806 331 256 331s58.382-2.106 86.328-6.22c-7.786-45.95-19.177-101.865-33.92-147.003-1.875-.467-3.48-.75-4.64-.78-5.443-.14-11.853 2.781-19.608 6.82-7.755 4.04-16.804 9.183-28.16 9.183-11.374 0-20.42-5.176-28.17-9.225s-14.134-6.95-19.543-6.78zm-38.394 55.067c-30.435 5.178-57.67 12.973-80.02 22.66-20.718 8.976-37.194 19.58-48.195 30.713a261 261 0 0 0 19.885 9.808c36.413-16.12 70.02-28.16 102.244-36.144 1.912-8.998 3.946-18.04 6.086-27.036zm172.214 0c2.14 8.996 4.174 18.039 6.086 27.037 32.223 7.984 65.83 20.024 102.245 36.144a261 261 0 0 0 19.884-9.808c-11-11.133-27.477-21.736-48.195-30.713-22.35-9.687-49.585-17.482-80.02-22.66zm-182.252 46.316c-23.618 6.458-48.228 15.2-74.527 26.227 20.54 7.208 43.003 12.974 66.584 17.261 2.334-13.787 4.972-28.435 7.943-43.488zm192.29 0c2.97 15.053 5.61 29.701 7.943 43.488 23.58-4.287 46.043-10.053 66.584-17.261-26.3-11.026-50.91-19.768-74.527-26.227zM30.533 299.891c-2.496 4.48-4.14 8.976-4.945 13.502l7.9-11.852q-1.486-.816-2.955-1.65zm450.934 0q-1.468.833-2.955 1.648l7.9 11.854c-.804-4.526-2.45-9.024-4.945-13.502zM455 313.023a319 319 0 0 1-8.996 3.758L455 330.275zm-398 .002v17.25l8.996-13.494A317 317 0 0 1 57 313.025zm-18 12.7-8.975 13.46c2.23 4.2 5.218 8.381 8.975 12.55zm434 .002v26.007c3.757-4.168 6.744-8.348 8.975-12.548zm-381.02.28 8.9 44.49 26.292-35.058c-12.094-2.723-23.852-5.867-35.192-9.431zm328.04 0c-11.34 3.565-23.098 6.71-35.192 9.43l26.293 35.06 8.9-44.49zm-344.584 9.065-19.948 29.92-2.83-.857c8.87 6.755 19.77 13.173 32.387 18.982zm361.128 0-9.61 48.045c12.616-5.81 23.517-12.227 32.388-18.982l-2.83.857zm-275.572 6.785 32.768 65.536 46.867-58.582c-26.987-.63-53.81-2.926-79.635-6.954zm190.016 0c-25.824 4.028-52.648 6.322-79.635 6.954l46.867 58.584zm-208.547 3.194-35.262 47.012c19.772 6.995 42.414 12.663 67.076 16.615zm227.078.002-31.814 63.625c24.662-3.952 47.303-9.62 67.074-16.615zM256 358.406l-43.852 54.817A539 539 0 0 0 256 415c14.992 0 29.65-.617 43.852-1.78z"/></svg>