<svg xmlns="http://www.w3.org/2000/svg" viewBox="0 0 512 512"><path d="m247 34-47.9 35.926-61.56 123.12 8.056 32.23 24.943-4.157-6.002-20.006L256 182.823l91.463 18.29-2.842 9.473-3.16 10.533 24.943 4.158 8.057-32.23-61.563-123.123L265 34v56h39l16 32-64 38-64-38 16-32h39zM58.688 203.258l-30.301 10.101 13.478 29.205 30.016-5.001zm394.625 0-13.194 34.304 30.016 5.002 13.478-29.205zM256 205.32l-53.8 58.692L230.694 359h50.612l28.494-94.988zm25.254.909 34.568 37.71 8.715-29.052zm-50.508.001-43.283 8.657 8.715 29.052zm-54.992 32.268L29.5 262.873 82.2 368.28l99.82-108.894zm160.492 0-6.266 20.887 99.82 108.894 52.7-105.406zm-148.205 40.959-72.201 78.766 84.556-37.582zm135.918 0-12.355 41.184 84.556 37.582zm-118.348 58.564-28.646 12.733L199.027 439H247v-62h-29.695zm100.778 0L294.695 377H265v62h47.973l22.062-88.246zM124.4 374.115l-18.105 8.047 9.984 21.635 16.387-8.193zm263.2 0-8.266 21.489 16.387 8.193 9.984-21.635zM201 457v30h30v-30zm80 0v30h30v-30z"/></svg>