<svg xmlns="http://www.w3.org/2000/svg" viewBox="0 0 512 512"><path d="m81.375 21.313-7.22 124.25 36.376 22.25.815 46.375 10.906-2.907 79.719 295.25 18.03-4.875L140.314 206.5l10.812-2.875-22.03-39.5 21.093-38.812zM271.529 23l-30.091 3.125L262 88.279c-16.84 4.572-30.57 20.851-36.375 42.377l43.906 11.313 48.625-10.531c-5.86-21.992-19.881-38.681-37.06-43.221l20.56-62.094zm-48.748 126.219-.002.002a94 94 0 0 0-.123 4.716c.07 32.086 16.668 58.921 38.78 65.563l.002-60.312zm98.219.719-40.875 8.875v61.375c23.323-5.21 41.072-32.752 41-66.032a95 95 0 0 0-.125-4.219zm31.875 71.125c-74.427 0-134.97 60.54-134.97 134.968 0 74.43 60.543 134.94 134.97 134.94s134.938-60.51 134.938-134.94c0-74.426-60.51-134.967-134.938-134.967zm0 18.687c64.327 0 116.25 51.953 116.25 116.28s-51.923 116.25-116.25 116.25-116.28-51.923-116.28-116.25 51.953-116.28 116.28-116.28zm-1.375 20.53c-52.91 0-95.812 42.873-95.812 95.783s42.903 95.812 95.812 95.812 95.78-42.903 95.78-95.812-42.87-95.782-95.78-95.782z"/></svg>