<svg xmlns="http://www.w3.org/2000/svg" viewBox="0 0 512 512"><path d="m259.438 19.22-80.659 69.75-76.966-46 9 88.75-88.688 28.655 92.688 41.563L73.22 325.125 159 254.029l16 95.284 31.688-49.907 13.218 13.221c-4.34 13.284-6.97 27.36-6.97 42.25 0 76.383 61.788 138.78 138.22 138.78s138.78-62.35 138.78-138.78c.002-76.433-62.396-138.22-138.78-138.22-15.74 0-30.88 2.604-45.094 7.47l-6.562-6.565 66.28-26.375-88.124-26.593 73.688-64.721-108.5 7.596zM17.468 71.124l21.376 31.125 35.844 3-22.5-32.937zm406.626 18-74 45.314 66.437-8.064 30.221-16.094-22.656-21.154zm-252.342 61.064 18.592 1.75c-2.333 24.63 5.19 32.131 18.47 43.72 10.173 8.88 24.053 18.958 35.78 36.155l21.375-21.375 31 31 4.342 4.344 5.72-2.25c12.48-4.95 26-7.705 40.28-8.125-6.82 2.938-13.058 7.06-18.438 12.44-13.18 13.18-18.906 31.506-17.719 51l38.159 4.685-1.815-48.217 37.94 40 45.341-22.75-12.029 47.782 45.656 17.968-53.5 19.907 7.375 40.031c16.53-.598 31.784-6.442 43.19-17.846a58.5 58.5 0 0 0 8.966-11.529c-6.941 59.702-57.723 106.094-119.279 106.094-66.293 0-119.531-53.755-119.531-120.096 0-14.646 2.8-28.404 7.687-41.53l2.092-5.626-4.219-4.25-32.125-32.125 26.065-26.065c-10.157-16.3-22.696-25.144-34.596-35.529-14.54-12.69-27.602-29.76-24.78-59.562zM85.062 224l-49.841 18.53-12.158 32.158 37.625-8.032L85.064 224zm63.407 107.688L122.904 398.5l15.344 32.563 17.25-35.97z"/></svg>