<svg xmlns="http://www.w3.org/2000/svg" viewBox="0 0 512 512"><path d="M459.938 10.877c-.954 2.58-1.75 5.276-1.75 8.185a23.93 23.93 0 0 0 8.28 18.126c11.445 5.7 19.313 17.496 19.313 31.156 0 19.234-15.576 34.812-34.81 34.812-16.684 0-30.623-11.716-34.033-27.375-4.37-4.915-10.712-8.029-17.811-8.029-13.194 0-23.906 10.711-23.906 23.904 0 2.994.554 5.829 1.558 8.47a51 51 0 0 0-3.091-.095c-20.027 0-37.35 11.484-45.782 28.22a22 22 0 0 1 6-.843c12.13 0 21.971 9.84 21.971 21.97 0 12.128-9.84 21.968-21.97 21.968-2.819 0-5.525-.533-8-1.5 7.005 18.02 23.904 31.104 44.029 32.562l-.03.063a57 57 0 0 1 3.875-.19c30.974-.433 23.562 30.454-8.875 21.19-2.51-.316-5.06-.532-7.654-.532a61.46 61.46 0 0 0-26.656 6.063c-6.61-13.626-17.111-21.54-32.971-26.375 2.403 15.323 7.194 28.766 15.438 39-.06.064-.124.123-.186.187 22.403 14.435 32.857 38.461 23.344 54.938-6.906 11.96-22.507 16.806-39.596 13.904-.346-.004-.682-.029-1.03-.029-12.754 0-24.908 2.6-35.94 7.312q.031-.731.033-1.47c0-19.79-16.054-35.813-35.844-35.813s-35.813 16.025-35.813 35.815c0 18.14 13.481 33.125 30.97 35.5-9.477 14.42-15 31.67-15 50.217 0 11.81 2.24 23.102 6.313 33.468l.03.031c25.585 23.75-7.247 61.7-27.938 31.594-6.49-7-15.781-11.375-26.154-11.375a35.49 35.49 0 0 0-35.625 35.625c0 2.283.18 4.835.594 7h111.217c2-14.845 14.694-26.279 30.093-26.279 15.4 0 28.096 11.433 30.096 26.28H494.97V145.778c-11.097-.646-19.846-10.339-19.846-21.591s8.748-20.39 19.844-21V10.876zm-347.47 19.496v.002c-3.026 25.5 5.296 35.646 28.438 37.594 1.548-20.59-5.456-35.445-28.437-37.596zm221.72 7.531C321.565 38.545 311.5 49 311.5 61.781c0 13.195 10.712 23.877 23.906 23.877s23.875-10.68 23.875-23.875c0-13.193-10.68-23.875-23.875-23.875-.412 0-.808-.02-1.219 0zM233.904 61.842l.002.004c-28.587 0-51.75 23.163-51.75 51.75 0 11.126 3.495 21.433 9.47 29.873-13.721 5.023-23.5 18.193-23.5 33.654 0 19.79 16.02 35.846 35.81 35.846 15.428 0 28.576-9.766 33.626-23.442-15.702-3.324-27.5-17.25-27.5-33.935 0-19.16 15.557-34.688 34.72-34.688 14.49 0 26.903 8.884 32.093 21.5a51.46 51.46 0 0 0 8.78-28.812c0-28.587-23.163-51.75-51.75-51.75zm213.315 56.562c7.183 0 13 5.817 13 13 0 7.185-5.817 13-13 13-7.185 0-13-5.815-13-13 0-7.182 5.815-13 13-13zm-364.783 1.627c-13.193 0-23.907 10.714-23.907 23.906 0 13.194 10.716 23.875 23.908 23.875 13.194 0 23.876-10.68 23.876-23.875 0-13.193-10.682-23.906-23.876-23.906zm333.5 80.44h.002c8.933 0 16.185 7.253 16.185 16.185 0 8.933-7.253 16.19-16.187 16.19-8.933 0-16.188-7.257-16.188-16.19 0-8.932 7.254-16.184 16.188-16.185zM86.5 272.688c-19.79 0-35.844 16.051-35.844 35.841S66.71 344.344 86.5 344.344a35.75 35.75 0 0 0 26.625-11.813c14.73 11.484 31.753 15.582 51.906 9.625-11.542-16.058-25.931-25.62-43.03-29 .198-1.52.313-3.05.313-4.625 0-19.79-16.021-35.842-35.812-35.842zm218.03 65.216zc16.802.001 30.406 13.606 30.406 30.407s-13.604 30.437-30.406 30.437c-16.8 0-30.435-13.635-30.435-30.437 0-16.8 13.633-30.406 30.433-30.407zM108.468 376.31l.002.002c-13.195 0-23.909 10.714-23.909 23.908 0 13.192 10.713 23.873 23.907 23.873 13.193 0 23.875-10.682 23.875-23.875 0-13.195-10.68-23.908-23.875-23.908zm199.844 35.722c12.107.023 20.76 8.462 27.093 21.623-20.464 9.625-32.45 5.1-42.312-17.875 5.106-2.343 9.787-3.538 14.029-3.716.4-.017.8-.033 1.19-.032zM43.842 442c-9.476.04-18.193 5.768-26.188 15.063 17.743 14.987 30.829 13.704 46.721-6.47-7.22-5.982-14.047-8.62-20.531-8.593z"/></svg>