<svg xmlns="http://www.w3.org/2000/svg" viewBox="0 0 512 512"><path d="M256 16c-5.718 51.466-24.204 93.998-32.812 124.688-8.896 2.525-17.387 5.917-25.313 10.312-27.803-15.645-71.13-32.34-111.562-64.687 32.347 40.433 49.042 83.759 64.687 111.562-4.395 7.926-7.787 16.417-10.312 25.313C109.998 231.798 67.467 250.282 16 256c51.466 5.718 93.998 24.205 124.688 32.813 2.525 8.896 5.917 17.386 10.312 25.312-15.645 27.802-32.34 71.129-64.687 111.563 40.433-32.347 83.759-49.043 111.562-64.688 7.926 4.395 16.417 7.788 25.313 10.313 8.61 30.69 27.094 73.22 32.812 124.687 5.718-51.467 24.205-93.998 32.813-124.687 8.896-2.524 17.386-5.918 25.312-10.313 27.802 15.645 71.129 32.34 111.563 64.688-32.347-40.434-49.043-83.761-64.688-111.563 4.395-7.926 7.788-16.416 10.313-25.312 30.69-8.608 73.22-27.095 124.687-32.813-51.467-5.718-93.998-24.204-124.687-32.812-2.524-8.896-5.918-17.387-10.313-25.313 15.645-27.803 32.34-71.13 64.688-111.562-40.434 32.347-83.761 49.042-111.563 64.687-7.926-4.395-16.416-7.787-25.312-10.312C280.205 109.998 261.717 67.467 256 16zm0 180c16.57 0 31.797 6.487 42.656 17.344S316 239.43 316 256s-6.487 31.797-17.344 42.656C287.796 309.514 272.57 316 256 316s-31.8-6.487-42.656-17.344C202.484 287.796 196 272.57 196 256s6.487-31.8 17.344-42.656C224.2 202.484 239.43 196 256 196z"/></svg>