<svg xmlns="http://www.w3.org/2000/svg" viewBox="0 0 512 512"><path d="M256 16c-7.5 67.5-37.5 150-37.5 180 0 15 15 30 37.5 30s37.5-15 37.5-30c0-30-30-112.5-37.5-180zM143.5 61.156c27.255 62.207 24.5 72.447 32 85.438s15.01 25.97 28 18.47 5.5-20.48-2-33.47-17.755-15.73-58-70.438zm225 0c-40.245 54.707-50.5 57.447-58 70.438s-14.99 25.97-2 33.47 20.5-5.48 28-18.47 4.745-23.23 32-85.438zM61.156 143.5c54.707 40.245 57.447 50.5 70.438 58s25.97 14.99 33.47 2-5.48-20.5-18.47-28-23.23-4.745-85.438-32zm389.688 0c-62.207 27.255-72.447 24.5-85.438 32s-25.97 15.01-18.47 28c7.502 12.99 20.48 5.5 33.47-2s15.73-17.755 70.438-58zM196 218.5c-30 0-112.5 30-180 37.5 67.5 7.5 150 37.5 180 37.5 15 0 30-15 30-37.5s-15-37.5-30-37.5zm120 0c-15 0-30 15-30 37.5s15 37.5 30 37.5c30 0 112.5-30 180-37.5-67.5-7.5-150-37.5-180-37.5zM256 286c-22.5 0-37.5 15-37.5 30 0 30 30 112.5 37.5 180 7.5-67.5 37.5-150 37.5-180 0-15-15-30-37.5-30zm-102.437 15.438c-6.563.163-14.256 4.61-21.97 9.062-12.99 7.5-15.729 17.755-70.437 58 62.207-27.255 72.447-24.5 85.438-32s25.97-15.01 18.47-28c-3.048-5.277-7.01-7.175-11.5-7.062zm203.843 0c-4.067.19-7.656 2.19-10.47 7.062-7.498 12.99 5.48 20.5 18.47 28s23.23 4.745 85.438 32c-54.707-40.245-57.447-50.5-70.438-58-8.12-4.688-16.22-9.377-23-9.062zM195.721 344.75c-8.48.378-14.361 10.508-20.221 20.656-7.5 12.99-4.745 23.23-32 85.438 40.245-54.707 50.5-57.447 58-70.438s14.99-25.97 2-33.47c-2.842-1.64-5.407-2.292-7.78-2.186zm119.529 0c-2.086.1-4.314.78-6.75 2.188-12.99 7.5-5.5 20.478 2 33.468s17.755 15.73 58 70.438c-27.255-62.207-24.5-72.447-32-85.438-6.094-10.554-12.21-21.092-21.25-20.656z"/></svg>