<svg xmlns="http://www.w3.org/2000/svg" viewBox="0 0 512 512"><path d="m268 21.47-.094 32.06c-7.55.48-15.156 1.345-22.78 2.595l12.81 57.125c13.747-1.546 27.14-1.392 40.002.344L308.813 55a197 197 0 0 0-22.22-1.844l.094-31.656zm-71.969 14.434-.002.002-17.591 6.344 10.718 29.813c-2.8 1.14-5.595 2.324-8.375 3.562a206 206 0 0 0-8.56 4.063l28.875 49.25c12.942-5.666 25.774-9.865 38.375-12.625l-12.659-56.47c-6.72 1.635-13.44 3.58-20.125 5.782zm168.219 1.783L351.03 66.28c-7.724-3.17-15.685-5.734-23.842-7.75l-10.938 58.72c5.633 1.485 11.136 3.262 16.5 5.375a153 153 0 0 1 23.688 11.78L389.5 86.437a269 269 0 0 0-21.53-12.28L381.22 45.5zm-245.346 38.47-14.527 11.72 20.059 24.904a214 214 0 0 0-16.28 16.781l43.688 33.315a153.8 153.8 0 0 1 32.53-25.47l-28.468-48.595a207 207 0 0 0-17.187 11.909zM442 86.778l-21.844 22.471c-4.9-4.28-9.975-8.367-15.22-12.25l-33.186 48.125c11.065 8.77 21.282 19.29 30.438 31.688l46.468-37.907a230 230 0 0 0-14.906-16.812l21.656-22.28zm-345.5 57.41a221 221 0 0 0-12.125 18.533l-28.28-14.034-8.282 16.75 27.812 13.782a223 223 0 0 0-9.25 22.5l51.438 14.687a156.5 156.5 0 0 1 21.78-39.344zm363.252 9.78-.002.003-47.187 38.467c4.79 8.02 9.199 16.673 13.187 25.968 19.406 12.31 48.29-.43 55.688-23.187a216 216 0 0 0-4.5-10.5l21.093-11.156-8.75-16.534-20.81 11.034a219 219 0 0 0-8.719-14.094zm-176.44 41.095c-1.41.01-2.802.08-4.187.187l-1.594 26.656c8.773 1.175 16.902 4.41 24.25 9.188l21.19-25.5c-13.22-6.88-26.926-10.635-39.658-10.53zm-23.125 4c-18.62 5.895-36.06 18.262-45.156 39.312 14.578-9.77 29.515-15.013 43.781-16.562zm112.592 11.25-20.652 16.5a131 131 0 0 0-13.19-11.188L316 243.221c7.872 8.543 14.178 18.955 18.563 30.123l38.53-20.406a134 134 0 0 0-8.468-12.188l19.844-15.844zm-311.808 9.314a221 221 0 0 0-4.407 21.56l-30.408-3.562L24 256.188l30.5 3.562c-.48 7.082-.63 14.214-.406 21.344l53.437-7.313a160 160 0 0 1 4.72-39.53zm320.748 49.904-41.748 22.096c2.354 11.546 2.795 23.142 1.375 34.312l49.093 7.188c.527-4.438.864-8.905 1-13.375a114 114 0 0 0-.062-8.22l24.594-3.843-2.877-18.47-24 3.75a121.3 121.3 0 0 0-7.375-23.438zm-272.967 22.94-53.22 7.281a214 214 0 0 0 3.314 19.654l-30.158 10.94 6.343 17.56 28.565-10.344a207 207 0 0 0 6.062 16.844 184 184 0 0 0 2.97 6.815l47.186-26.442c-.003-.008.004-.019 0-.029-5.686-13.895-9.322-28.113-11.062-42.28zm228.5 51.717c-3.17 9.705-7.853 18.855-13.97 27.064l40.624 31.344a147 147 0 0 0 9.096-14.625l26.187 10.123 6.75-17.438L380.906 371a153 153 0 0 0 6.188-19.47zm-209.156 7.343-46.817 26.283a177 177 0 0 0 13.192 19.28l-22.534 20.47 12.594 13.842 22.22-20.219a176 176 0 0 0 18.5 16.534l29.28-44.442c-10.255-8.77-19.213-19.408-26.435-31.748zm182.5 33.533c-7.464 6.628-16.195 12.225-26.125 16.47-1.852.791-3.705 1.55-5.565 2.25l19.03 49.439a185 185 0 0 0 7.22-2.909c5.052-2.16 9.89-4.607 14.53-7.279l17.845 26.75 15.533-10.344-17.843-26.783a139.4 139.4 0 0 0 16.904-15.5zm-140.94 9.252-29.03 44.092a178 178 0 0 0 19.47 10.375l-12 28.815 17.279 7.156 12.096-29.096a178 178 0 0 0 22.558 5.97l5.442-52.595a120.3 120.3 0 0 1-35.815-14.717zm91.313 14.811c-12.438 2.78-24.9 3.67-37.031 2.75l-5.375 52.344c7.43.652 14.938.85 22.468.56l1.813 28.065 18.656-1.19-1.844-28.594a180 180 0 0 0 20.471-4.156z"/></svg>