<svg xmlns="http://www.w3.org/2000/svg" viewBox="0 0 512 512"><path d="m190.594 21.25 17.375 62.563h98.56l17.375-62.563zm22.594 81.25.03.125h-23.124c-23.79 0-22.498 45.594 0 45.594h21v59.06c-67.386 19.787-116.438 81.935-116.438 155.782 0 53.72 25.992 101.45 66.188 131.093h192.562c40.198-29.645 66.78-77.375 66.78-131.093.002-54.742-27.18-103.041-68.748-132.438-.024-.017-.04-.045-.063-.062-55.29-29.194-128.52-4.295-164.53 57.908-31.024 53.588-17.076 119.058 28.56 145.592 31.834 18.51 76.707 9.553 96.94-27.407 4.658-8.508 5.399-21.25 2-33.593s-10.81-23.888-19.783-30.22c-11.483-8.101-34.814-8.011-48 1.345l-10.812-15.25c20.517-14.558 49.846-15.307 69.594-1.375v.03c13.488 9.52 22.6 24.56 27 40.532 4.398 15.973 4.204 33.257-3.594 47.5-25.225 46.078-81.986 58.277-122.72 34.594-55.636-32.35-70.913-109.68-35.342-171.125 19.486-33.662 49.063-57.926 81.75-70.22h50.968V148.22h19.438c25.968 0 24.433-45.596 0-45.596h-21.565l.034-.125z"/></svg>