<svg xmlns="http://www.w3.org/2000/svg" viewBox="0 0 512 512"><path d="M26.883 21.832v.002c75.937 53.616 150.4 143.627 172.646 236.217C160.38 175.253 85.277 94.86 23.061 68.24v35.355c199.377 131.08 141.662 248.82 332.306 393.043h57.326c-62.043-39.14-118.623-92.592-155.427-172.258 60.612 77.352 142.26 138.528 237.125 172.258h.556V362.316c-105.79-32.628-179.011-83.115-223.68-138.996 55.383 48.512 146.278 89.87 223.68 102.787v-50.806c-93.44-8.3-192.566-58.42-261.056-121.48-41.93-38.609-76.698-89.899-141.33-131.989zM379.75 124.93c-13.29 0-24.064 10.772-24.064 24.062s10.774 24.065 24.064 24.065 24.063-10.775 24.063-24.065-10.773-24.062-24.063-24.062zM28.875 159.018c57.203 45.017 125.82 141.277 113.432 200.084a20.5 20.5 0 0 0-7.13-1.297c-11.35 0-20.55 9.2-20.55 20.55 0 11.348 9.2 20.55 20.55 20.55 8.03 0 14.966-4.618 18.346-11.333 6.737-9.864 8.02-29.06 6.88-48.65-4.169-71.813-54.245-147.98-131.528-179.904zm420.648 6.109.002.002c-17.79 0-32.63 12.621-36.05 29.398-29.74 7.17-71.18-.14-102.946-15.382 41.363 34.55 87.107 53.455 131.75 58.85 2.342.47 4.764.72 7.244.72 20.322 0 36.793-16.475 36.793-36.795s-16.47-36.793-36.793-36.793zM170.418 287.963c11.662 34.126 16.555 79.606 9.85 114.375-8.134 5.784-13.446 15.28-13.446 26.02 0 17.624 14.288 31.912 31.914 31.912s31.914-14.287 31.914-31.913c0-6.315-1.84-12.195-5.005-17.15zm86.836 36.392.012.024-.012-.014z"/></svg>