<svg xmlns="http://www.w3.org/2000/svg" viewBox="0 0 512 512"><path d="m21.72 26.063-.001.001.008.006zm.007.007a2515 2515 0 0 0 60.617 78.055l-2.094-2.312c17.598 21.751 1.601 40.513-21.22 49.75l54.595-9.532a2248 2248 0 0 0 21.25 24.844c.02.022.042.04.063.063 12.396 17.626 25.564 47.344 12.593 69.375l-27.03 32.5 83.063-24.282a185 185 0 0 1 6.313 4.406 2065 2065 0 0 0 40.594 41.034c11.536 17.458 16.552 35.987 7.435 51.623l-2.594 3.875-18.656 27.935 59.563-33.625 56.185 43.596c2.026 1.73 4.03 3.466 6.065 5.188 12.72 17.326 7.17 40.85-3.658 63.656 15.817-20.828 30.072-36.214 55.125-21.625a1861 1861 0 0 0 85.187 63.219c-25.98-33.45-52.484-66.059-79.562-97.815l24.156-52.75c-14.634 20.412-36.524 34.083-53.72 18.69l-1-1.125L338.22 295l30.716-46-39.812 22.47c-34.053 9.794-85.132-63.132-58.375-97.845l-.406.344 23.279-36.565-89.75 38.815a2299 2299 0 0 0-58.154-51.408l27.5-27.75-45.781 12.28C93.075 80.594 57.876 52.815 21.727 26.072zm114.117 20.18c-10.644 0-19.063 8.42-19.063 19.063 0 10.641 8.42 19.062 19.065 19.062 10.643 0 19.093-8.42 19.093-19.062 0-10.64-8.45-19.063-19.093-19.063zm76.53 49.406c-14.963 0-26.874 11.945-26.874 26.906 0 14.962 11.913 26.876 26.875 26.876s26.906-11.915 26.906-26.875-11.942-26.907-26.904-26.907zM45.624 99.47v.002c-9.9 0-17.719 7.817-17.719 17.716s7.821 17.72 17.721 17.72 17.719-7.821 17.719-17.721c0-9.896-7.821-17.717-17.721-17.717zm280.908 60.404-.002.002c-23.266 0-41.904 18.67-41.904 41.938a41.75 41.75 0 0 0 41.906 41.906c23.268 0 41.94-18.64 41.94-41.906a41.81 41.81 0 0 0-41.94-41.94zm-233.25 11.469-.002.004c-20.326 0-36.592 16.296-36.592 36.623s16.267 36.594 36.594 36.594 36.596-16.267 36.596-36.594c0-20.325-16.269-36.627-36.596-36.627zm314.498 97.595c-17.14 0-30.842 13.705-30.842 30.844s13.705 30.815 30.844 30.815 30.815-13.675 30.815-30.815c0-17.136-13.675-30.842-30.815-30.842zm-224.623 3.438a51.08 51.08 0 0 0-51.22 51.22c0 28.396 22.824 51.186 51.22 51.186a51.025 51.025 0 0 0 51.188-51.185c0-28.393-22.79-51.221-51.188-51.221zm279.281 96.563c-12.036 0-21.593 9.558-21.593 21.593 0 12.037 9.557 21.565 21.593 21.565s21.563-9.529 21.563-21.565c0-12.032-9.527-21.592-21.563-21.592zm-168.562 8a40.396 40.396 0 0 0-40.53 40.53c0 22.493 18.04 40.5 40.53 40.5s40.53-18.007 40.53-40.5a40.4 40.4 0 0 0-40.53-40.53zm98.78 70.562c-10.677 0-19.124 8.45-19.124 19.125s8.45 19.125 19.125 19.125 19.125-8.45 19.125-19.125c0-10.674-8.447-19.125-19.123-19.125z"/></svg>