<svg xmlns="http://www.w3.org/2000/svg" viewBox="0 0 512 512"><path d="M363.79 19.938v.001q-1.67.016-3.364.073c-18.073.592-38.343 4.687-60.492 12.228-6.6 2.247-13.355 4.803-20.25 7.643a49.1 49.1 0 0 1 14.445 15.752c15.826 27.41 2.009 63.22-28.12 80.61-30.127 17.392-68.052 11.454-83.88-15.956-4.142-7.176-6.235-14.926-6.555-22.771a924 924 0 0 0-25.748 17.988c-18.724 13.568-27.908 28.317-30.976 44.057s.144 33.087 8.783 51.29c17.278 36.407 56.368 75.03 101.75 104.75 40.37 26.437 85.745 45.895 124.039 52.254.244-39.607 32.616-71.84 72.281-71.84a71.8 71.8 0 0 1 23.508 3.958c8.588-43.02 13.356-80.58 14.78-112.948-6.94 5.09-15.191 8.19-24.098 8.19-13.612 0-25.709-7.204-33.91-17.766s-12.95-24.591-12.95-39.894c0-15.304 4.75-29.337 12.95-39.899 8.201-10.562 20.298-17.765 33.91-17.765 4.228 0 8.31.694 12.173 1.968-9.818-26.852-25-43.729-44.324-53.072-12.53-6.06-27.268-8.995-43.953-8.852zM257.233 49.912c-19.538 9.386-40.043 20.893-61.25 34.281-2.863 9.317-2.21 18.887 2.33 26.752 9.81 16.986 35.56 22.271 58.35 9.118 22.79-13.155 31.085-38.098 21.277-55.08-4.332-7.505-11.782-12.71-20.707-15.069zm182.659 48.674v.002c-7.108 0-13.772 3.61-19.149 10.535-5.376 6.925-9.021 17.055-9.021 28.438 0 11.38 3.645 21.506 9.021 28.431s12.042 10.54 19.149 10.54 13.765-3.615 19.142-10.54c2.05-2.64 3.85-5.75 5.291-9.215-.363-14.41-1.513-27.562-3.4-39.478-.398-2.52-.832-4.965-1.291-7.37-.198-.27-.397-.546-.6-.808-5.376-6.925-12.035-10.535-19.142-10.535zm-150.15 65.525c36.472 0 66.24 29.766 66.24 66.235 0 36.467-29.768 66.232-66.24 66.232-36.47 0-66.241-29.763-66.241-66.232 0-36.47 29.77-66.233 66.24-66.233zm0 18.692a47.405 47.405 0 0 0-47.552 47.543 47.405 47.405 0 0 0 47.551 47.543 47.405 47.405 0 0 0 47.551-47.543 47.403 47.403 0 0 0-47.55-47.543zm-126.837 104.35a101 101 0 0 0-11.228 10.327c5.333 13.34 14.928 27.43 29.558 42.08l-13.22 13.208q-6.528-6.536-12.053-13.11c-23.56 20.345-47.256 38.95-70.067 54.627-18.355 12.616-26.257 26.65-27.945 39.777-1.69 13.127 2.888 25.972 12.223 36.28 18.67 20.613 55.899 30.578 96.799 3.646 25.25-16.628 49.28-45.378 70.431-80.14-6.425-2.704-12.52-5.9-17.851-9.534l10.525-15.443c11.646 7.94 34.012 14.592 47.914 15.762 3.664-5.888 6.762-11.554 9.362-17-23.126-9.617-46.315-22.055-68.208-36.393-20.27-13.274-39.415-28.157-56.24-44.086zm262.8 27.56c-29.717 0-53.602 23.885-53.602 53.596 0 .545.024 1.084.039 1.625 18.367.917 34.127-1.869 45.962-8.407 12.857-7.1 21.756-18.278 25.887-36.843.47-2.106.921-4.188 1.371-6.27a53.8 53.8 0 0 0-19.656-3.701z"/></svg>