<svg xmlns="http://www.w3.org/2000/svg" viewBox="0 0 512 512"><path d="M255.688 18S198.118 84.876 199 148.875c.11 7.924 1.103 15.805 2.78 23.53 23.497 25.824 43.036 57.617 58.19 95 13.85-31.164 30.07-60.017 50.03-84.967 3.764-12.817 6.056-26.13 5.875-39.313-.88-64-60.187-125.125-60.187-125.125zM24.094 111.47c.138 1.77.174 2.98.406 5.186.993 9.44 2.96 22.584 6.813 37.22 7.702 29.27 22.952 64.12 52.25 87.81 16.454 13.308 40.276 20.756 64.593 27.064s48.935 11.302 67.594 23.156c14.984 9.52 24.296 24.148 28.375 40.813 4.08 16.663 3.337 35.387-.72 55.06-7.073 34.304-24.28 71.738-46.874 105.909h126.44c-22.767-34.427-39.985-72.008-46.94-106.44-3.982-19.722-4.636-38.51-.435-55.187 4.2-16.677 13.665-31.284 28.75-40.78 18.79-11.83 43.488-16.742 67.81-22.937s48.036-13.46 64.315-26.625c47.514-38.425 57.336-105.797 59.404-130.192-61.585 1.928-106.926 21.099-142.406 52.192-37.42 32.788-64.066 79.141-85.346 132.435l-5.28 13.157-10.032-10.032-1.53-1.531-.687-2.062C210.398 177.51 133.342 115.055 24.094 111.47z"/></svg>