<svg xmlns="http://www.w3.org/2000/svg" viewBox="0 0 512 512"><path d="M255.688 19.438c-131.508 0-238.313 106.808-238.313 238.312s106.808 238.313 238.313 238.313C387.189 496.063 494 389.257 494 257.75c0-131.504-106.805-238.312-238.312-238.312zm0 18.687c121.406 0 219.625 98.22 219.625 219.625 0 121.407-98.22 219.625-219.625 219.625-121.404 0-219.625-98.22-219.625-219.625 0-121.404 98.217-219.625 219.625-219.625zm.562 20.438c-110.988 0-200.72 89.73-200.72 200.718 0 95.257 66.097 174.875 155 195.533l-3.593-1.187s2.313.575 3.5.562c7.687-.085 14.32-4.367 18.094-10.5 15.59-43.605 18.01-85.436-6.404-103.375-22.6-16.605-66.757-17.003-92.281-40.875-43.542-40.722-43.817-117.41-43.817-117.41 50.518 0 92.433 20.468 123.815 59.596-.12-1.665-.544-3.61-.563-5.28-.703-51.121 45.531-104.533 45.531-104.532 0 0 47.204 48.756 47.909 99.875.055 3.507.36 6.99 0 10.5 28.538-36.8 67.034-60.157 123.217-60.157 0 0-.274 76.687-43.813 117.407-25.32 23.682-69.467 23.693-92.25 40.283-24.086 17.536-22.317 58.324-7.594 101.029.057.16-.073.426 0 .594 3.268 7.82 10.849 13.437 19.846 13.437 88.826-20.713 154.844-100.298 154.844-195.5 0-110.986-89.733-200.717-200.721-200.717zm-.22 191.218c-15.42 7.026-25.842 22.306-25.842 40.346s10.423 33.82 25.843 40.844c15.23-7.1 25.846-22.944 25.846-40.846s-10.615-33.244-25.846-40.344z"/></svg>