<svg xmlns="http://www.w3.org/2000/svg" viewBox="0 0 512 512"><path d="m59.395 20.285 109.447 137.043L18.89 98.084 143.736 246.75 36.975 338.582l137.287-12.72-31.457 160.187 112.27-115.143 83.08 101.588-8.58-127.873 165.988-22.76-141.383-74.595 141.04-56.78v-67.234L388.606 189.18l106.5-128.567-203.054 99.938-51.07-119.936-53.038 90.262-61.312-110.592zm280.996 0-25.813 98.61 93.05-98.61zM219.8 169.291l35.04 59.307-72.736-30.795c4.267-16.433 18.46-27.994 37.696-28.512zm104.619 1.768v.002c16.857 9.28 24.173 26.06 20.428 42.619l-18.866-8.112-35.28 17.522 15.986-26.145-11.715-6.8zm-65.5 18.873 24.332 4.218-11.7 37.862zM242.8 248.8v.002l-1.208 21.894 22.87 2.412-38.76 54.28c-34.81-3.42-53.307-34.73-38.737-71.262zm32.034 18.863 51.99 16.72c2.035 11.374-2.796 20.542-13.455 24.466l7.768 8.576c-4.758 13.162-16.609 18.498-31.278 12.222l-4.898-47.962zm-143.691 85.154-56.53 43.522-26-15.01-24.95 43.213 43.216 24.95 21.697-37.585zm223.298 10.319 85.848 81.176 11.68 42.048 39.713-12.265-12.264-33.287 19.855-36.795-39.128 10.511z"/></svg>