<svg xmlns="http://www.w3.org/2000/svg" viewBox="0 0 512 512"><path d="M76.465 73.324c-16.696 10.814-24.31 28.1-23.647 44.938.664 16.837 8.676 33.327 21.393 46.06a74 74 0 0 0 3.963 3.66c-6.772 11.33-17.074 12.974-25.514 10.586-4.85-1.372-8.708-4.329-10.676-7.861-1.967-3.534-2.67-7.755.055-14.26l-17.238-7.218c-4.57 10.91-3.87 22.08.857 30.572 4.73 8.492 12.865 14.19 21.914 16.75 15.546 4.4 34.89-1.219 46.02-18.22a76.7 76.7 0 0 0 28.428 7.985c.676 11.475 4.846 22.185 11.634 31.791-6.064 2.136-11.192 6.248-14.42 11.61-8.616 14.312-2.927 35.32 17.545 49.547l10.664-15.35c-15.297-10.63-14.876-20.109-12.199-24.559 1.34-2.225 3.434-3.746 6.834-4.123 2.942-.325 7.058.339 12.092 3.4a119 119 0 0 0 9.316 6.223c16.108 9.698 35.805 16.808 57.666 20.579-8.085 6.224-13.812 14.285-18.125 23.445-32.812-8.59-64.648-.155-94.978 34.629 31.59 7.23 62.19 8.758 90.402-3.44l37.96 106.414c4.403 16.44 32.492 16.902 37.023 0l38.189-107.068c28.615 12.89 59.724 11.449 91.857 4.094-30.526-35.005-62.579-43.322-95.61-34.457-4.213-9.323-10.003-17.066-17.64-22.963 23.48-3.564 44.62-10.94 61.715-21.234a117 117 0 0 0 10.395-7.032c4.38-2.353 8.002-2.883 10.658-2.59 3.4.377 5.495 1.897 6.834 4.122 2.678 4.45 3.1 13.93-12.2 24.56l10.665 15.348c20.47-14.227 26.16-35.234 17.545-49.547-3.177-5.278-8.2-9.34-14.14-11.5 6.82-9.616 11.015-20.34 11.706-31.832a76.7 76.7 0 0 0 28.547-7.608c11.174 16.657 30.316 22.136 45.727 17.776 9.05-2.56 17.186-8.258 21.916-16.75 4.73-8.49 5.426-19.662.857-30.572l-17.24 7.218c2.725 6.506 2.023 10.727.055 14.26-1.967 3.533-5.826 6.491-10.676 7.861-8.265 2.34-18.312.808-25.084-9.894a75 75 0 0 0 4.75-4.352c12.717-12.733 20.728-29.221 21.39-46.058.664-16.838-6.948-34.126-23.644-44.94L429.85 89.01c11.61 7.52 15.573 17.276 15.13 28.515s-6.223 23.858-15.94 33.59c-14.805 14.823-37.443 23.673-64.16 12.772 6.136-3.766 11.356-9.778 14.567-17.617l-17.293-7.084c-2.673 6.526-6.154 9.016-10.043 10.123-3.887 1.105-8.705.464-13.105-1.996-8.8-4.92-15.579-15.34-8.469-31.55l-17.111-7.507c-9.727 22.175-1.277 43.148 13.219 53.324l-.065.072c15.934 13.58 32.233 20.996 47.748 23.711-5.807 15.017-14.116 23.456-22.94 28.002-9.28 4.783-19.567 5.285-28.773 2.781s-17.028-8.12-21.064-14.44-5.03-12.746-.871-20.893l-16.65-8.497c-6.946 13.616-5.262 28.439 1.767 39.448 7.028 11.01 18.657 18.81 31.912 22.416a61 61 0 0 0 10.492 1.88c-19.513 8.519-43.956 13.754-70.482 13.754-25.172 0-48.481-4.704-67.469-12.462a61 61 0 0 0 7.652-1.565c13.255-3.606 24.886-11.407 31.914-22.416 7.03-11.01 8.71-25.83 1.764-39.445l-16.646 8.494c4.157 8.15 3.166 14.573-.87 20.894s-11.86 11.936-21.066 14.44-19.49 2.003-28.773-2.78c-9.087-4.683-17.627-13.502-23.452-29.378 15.617-2.462 32.07-9.686 48.17-23.15 15.274-9.815 24.522-31.367 14.51-54.192l-17.113 7.508c7.11 16.21.332 26.63-8.467 31.55-4.4 2.46-9.217 3.1-13.105 1.995-3.89-1.108-7.372-3.596-10.045-10.123l-17.293 7.084c3.182 7.77 8.34 13.744 14.404 17.515-26.822 11.052-49.555 2.195-64.402-12.672-9.72-9.732-15.5-22.35-15.942-33.59s3.523-20.994 15.133-28.513z"/></svg>