<svg xmlns="http://www.w3.org/2000/svg" viewBox="0 0 512 512"><path d="M252.803 104.318c-81.727 0-123.3 16.924-150.715 53.817-16.464 22.194-30.22 79.418-33.266 113.01-4.618 50.057-50.407 39.274-49.416 53.779.98 14.313 67.184 17.94 156.877 18.265 59.46.218 104.202 60.261 135.932 63.174 94.696 8.75 198.842-28.056 177.61-52.039-5.91-6.65-41.57-41.8-44.52-69.228-3.385-31.43-7.714-98.337-26.74-123.444-24.466-32.287-51.253-57.334-165.762-57.334zm19.437 94.155a16.246 16.246 0 0 1 16.244 16.246 16.246 16.246 0 0 1-16.232 16.246h-.012a16.246 16.246 0 1 1 0-32.492z"/></svg>