<svg xmlns="http://www.w3.org/2000/svg" viewBox="0 0 512 512"><path d="M176.627 28.994C148.28 58.81 115.299 96.144 87.199 133.61c-32.774 43.7-57.814 88.07-61.61 115.721l105.708 26.428c2.423-83.416 27.743-164.684 45.332-246.764zm158.746 0c19.444 82.462 39.362 163.185 45.332 246.764L486.41 249.33c-3.795-27.652-28.834-72.023-61.61-115.72-28.098-37.467-61.08-74.8-89.427-104.616zM55 80.211v67.19a859 859 0 0 1 17.8-24.59l.2-.262V80.21zm384 0v42.338l.2.262A859 859 0 0 1 457 147.4V80.21zm-192 32v52.646c5.93-4.323 12.122-3.717 18 0v-52.646zm9 68.648c-9.092 6.936-16.603 16.958-22.553 25.674-4.776 7.036-9.08 14.405-12.068 20.696-2.887 6.078-4.215 11.404-4.307 12.673l14.553 87.309h48.75l14.553-87.309c-.092-1.27-1.42-6.595-4.307-12.673-2.989-6.291-7.292-13.66-12.068-20.696-7.091-9.554-13.257-18.898-22.553-25.674zm-10 31.352h20l14 36h-48zm-94.043 26.91-13.855 193.975L180.09 412.1l-14.213-63.96 45.889-30.591-8.15-48.91zm208.086 0-51.656 29.52-8.153 48.91 45.889 30.592-14.213 63.959 41.988 20.994zM39.057 271.252c19.713 24.978 40.743 50.235 58.359 75.86 9.945 14.463 18.82 29.096 25.643 43.952l6.935-97.08zm433.886 0-90.937 22.732 6.935 97.08c6.822-14.856 15.698-29.49 25.643-43.955 17.616-25.623 38.645-50.878 58.36-75.857zm-257.933 65.77-28.887 19.255 18.43 82.934H231v-48h16v-46h-30.625zm81.98 0-1.365 8.189H265v46h16v48h26.447l18.43-82.934zM208.553 457.21l5.732 25.795 16.715-8.36V457.21zm72.447 0v17.435l16.715 8.36 5.732-25.795z"/></svg>