<svg xmlns="http://www.w3.org/2000/svg" viewBox="0 0 512 512"><path d="m316.74 14.791-72.326 88.94-73.234-50.674 67.095 115.537a79 79 0 0 1 24.49-3.887c15.339 0 29.648 4.384 41.768 11.947l81.64-88.6-62.187 17.454zM137.47 32.225l28.73 136.142-125.16-47.236 98.753 106.234-61.215 48.266 105.524-24.305c-.24-2.5-.366-5.03-.366-7.592 0-28.415 15.004-53.317 37.514-67.244zm318.69 36.183-35.709 10.026-101.306 109.945c14 14.258 22.644 33.793 22.644 55.355q0 1.062-.027 2.118l81.088-4.762-41.465-23.08zM232.744 229.531v.002c-13.443 0-24.342 10.897-24.342 24.342s10.898 24.344 24.342 24.344c13.445 0 24.344-10.901 24.344-24.346s-10.9-24.342-24.344-24.342zm59.27 0v.002c-13.443 0-24.342 10.897-24.342 24.342s10.897 24.344 24.342 24.344 24.343-10.901 24.343-24.346-10.9-24.342-24.343-24.342zm161.26 28.49-114.327 6.713a78.6 78.6 0 0 1-10.246 22.547l72.39 92.963 69.145 30.496-94.18-119.16 120.217-9.623-43-23.934zm-265.19 11.569-143.87 33.137-25.671 20.242 139.121 19.654-68.539 112.775 124.547-52.27 10.191-37.737h19.36l-10.315 38.18 42.035 88.947 24.178-81.15-18.803-45.977h20.194l17.515 42.834L389.51 462.6l-11.94-82.14-61.238-78.642a79 79 0 0 1-8.977 7.139v41.234h-18.69v-31.78a78.5 78.5 0 0 1-15.884 3.7v28.08h-18.687v-27.914a78.5 78.5 0 0 1-18.004-4.146v32.058h-18.688v-41.761c-13.456-9.46-23.834-23.002-29.316-38.838zm73.941 4.75-16.72 27.87h33.441l-16.719-27.87z"/></svg>