<svg xmlns="http://www.w3.org/2000/svg" viewBox="0 0 512 512"><path d="m258.344 21.78-54.625 91.94-100.97-35.314L120 183.971 19.97 221.813l81.06 69.779-52.31 93.281 106.936 1.346 19.906 105.058 82.782-67.685 82.779 67.687 19.908-105.06 106.94-1.346-52.283-93.28 81.033-69.782-100.033-37.842 17.25-105.565L313 113.721zM264 119.72h.002c37.301.001 71.282 14.157 96.904 37.374-8.81-3.43-18.116-5.836-27.779-6.813-1.917-.195-3.886-.203-5.846-.154-1.958.05-3.907.154-5.875.154-6.82 0-13.482.607-19.969 1.75-1.52-8.805-9.164-15.53-18.406-15.53-10.336 0-18.717 8.384-18.717 18.722 0 3.28.83 6.378 2.313 9.058a113.8 113.8 0 0 0-21.78 15.533c.446-.024.89-.03 1.342-.03 13.13 0 23.782 10.62 23.782 23.75 0 13.127-10.652 23.78-23.782 23.78-12.214 0-22.278-9.21-23.625-21.062-5.432-11.885-17.439-20.22-31.28-20.22-18.878 0-34.405 15.498-34.405 34.376 0 18.88 15.526 34.375 34.404 34.375a34 34 0 0 0 15.192-3.56q.013-.016.029-.032c3.434-4.16 8.622-6.812 14.437-6.812 10.336 0 18.72 8.382 18.72 18.719 0 10.334-8.384 18.716-18.722 18.716a18.56 18.56 0 0 1-10.873-3.5c-3.412-3.62-8.225-5.906-13.593-5.906-10.338 0-18.72 8.383-18.72 18.72 0 10.335 8.382 18.72 18.72 18.72 7.335 0 13.65-4.23 16.718-10.375 6.167 18.95 17.18 35.681 31.563 48.779.407-9.524 7.913-17.163 17.375-17.813-.51-2.338-.815-4.766-.815-7.25 0-18.878 15.53-34.375 34.409-34.375 18.877 0 34.373 15.497 34.373 34.375 0 18.88-15.497 34.375-34.375 34.375a34.1 34.1 0 0 1-14.344-3.156 18.77 18.77 0 0 1-10.315 11.75c15.172 7.477 32.246 11.688 50.344 11.688 14.427 0 28.192-2.858 40.875-7.875-25.773 23.952-60.31 38.592-98.279 38.592-79.764 0-144.438-64.643-144.438-144.407 0-79.761 64.673-144.434 144.436-144.435zm59.625 62.436c10.337 0 18.72 8.385 18.72 18.72s-8.383 18.718-18.72 18.718-18.72-8.385-18.72-18.72c0-10.337 8.383-18.718 18.72-18.718zM191.281 204.72l-.002.002c8.777 0 15.692 6.91 15.692 15.685s-6.915 15.688-15.692 15.688c-8.775 0-15.685-6.912-15.685-15.688s6.91-15.687 15.687-15.687zM295.72 307.5c-8.776.001-15.719 6.91-15.719 15.688 0 8.775 6.944 15.687 15.72 15.687s15.686-6.91 15.686-15.687-6.91-15.687-15.685-15.688zm-96.906 18.594c-8.558 0-15.47 6.94-15.47 15.5 0 8.557 6.911 15.5 15.471 15.5 8.557 0 15.5-6.943 15.5-15.5s-6.943-15.5-15.5-15.5z"/></svg>