<svg xmlns="http://www.w3.org/2000/svg" viewBox="0 0 512 512"><path d="M294.818 43.27q-1.435.004-2.88.035c-46.15.993-96.56 23.687-128.614 54.82-41.965 40.758-91.926 108.163-118.896 173.047-13.486 32.442-21.17 64.22-19.93 91.305s10.722 49.188 32.54 65.546c15.71 11.78 28.638 10.985 44.814 2.72 16.175-8.269 34.067-25.324 52.433-45.405 36.732-40.162 74.766-92.452 121.008-107.932 61.794-20.685 98.278-34.43 120.926-46.785 22.646-12.353 31.392-22.466 40.74-39.08 7.302-12.974 8.364-26.068 5.03-39.883-3.335-13.814-11.388-28.166-22.45-41.619-22.127-26.903-56.254-49.947-83.707-60.004-12.75-4.67-26.652-6.79-41.016-6.764zm3.416 24.26h.002c21.21-.104 42.145 4.338 58.493 16.677 47.553 35.895 86.453 58.96 54.376 111.88-32.076 52.924-177.002 58.17-217.558 20.06-1.663-10.597-12.613-91.45 10.176-121.653 12.52-10.007 54.018-26.77 94.511-26.965zm-119.869 43.66c-1.058 1.996-7.085 83.113-10.402 98.936-19.397 9.728-71.78 21.073-73.92 6.977 3.618-16.654 37.1-71.99 84.322-105.913zm278.096 26.246a94 94 0 0 1 3.025 9.997c4.2 17.4 2.736 35.916-6.84 52.933-10.34 18.374-23.005 32.528-47.806 46.057s-61.8 27.286-123.832 48.05c-36.878 12.347-75.832 61.892-113.44 103.012-18.804 20.56-37.415 39.008-57.523 49.285-5.895 3.014-12.05 5.204-18.322 6.418 3.03 1.73 6.142 3.339 9.164 4.729 8.116 3.734 16.547 5.668 17.197 5.686 14.037-.65 29.08-8.328 44.816-21.026 15.82-12.764 32.063-30.284 48.493-48.676 32.86-36.784 65.745-77.521 104.445-90.476 61.817-20.694 98.67-34.278 121.465-46.543 22.794-12.264 31.399-22.236 40.043-39.03 9.733-18.911 10.244-32.255 4.506-46.279-4.33-10.583-12.967-21.73-25.39-34.135zm-314.547 95.467c33.96-.19 69.092 16.75 104.69 36.092-71.258 37.318-141.89 180.326-187.133 133.99-18.206-20.105-19.434-119.77 30.146-153.564 17.043-11.616 34.51-16.418 52.297-16.518zm-36.46 73.211-.003.002c-5.436.103-10.918 1.77-14.738 4.787-12.34 9.753-21.721 34.145-11.207 45.844 10.057 11.19 35.46 5.816 44.728-6.012 8.262-10.544 5.69-31.087-4.32-40.02-3.632-3.24-9.024-4.7-14.46-4.6z"/></svg>