<svg xmlns="http://www.w3.org/2000/svg" viewBox="0 0 512 512"><path d="M18 18v31.758C38.244 53.855 59.076 55.953 80 56a318 318 0 0 0 50.658-4.27C143.375 100.622 200.964 135.96 268 136c15.1-.044 30.093-1.903 44.395-5.504 3.702 25.632 27.322 44.78 55.275 44.813q.713-.015 1.424-.047c4.215 14.473 20.33 24.718 38.906 24.736 22.09 0 40-14.327 40-32-.022-13.555-10.718-25.63-26.697-30.137a48 48 0 0 0 2.203-14.209c-.02-19.245-11.602-36.885-30.057-45.771C402.962 63.618 407.94 47.92 408 32c-.033-7.4-1.128-6.774-3.268-14zm-2 205v18h23v48H25v94h142v-94h-14v-48h23v-18zm360 0v18h17v46h46v-46h17v-18zM57 241h14v48H57zm32 0h46v48H89zm231 20c-7.25 0-14.577 1.012-19.154 2.54-2.077.69-3.287 1.444-3.846 1.855V287h46v-21.605c-.56-.41-1.77-1.164-3.846-1.856C334.577 262.012 327.25 261 320 261zm-135 44v30h247v18H185v30h279c36 0 36-78 0-78zM25 401v37.22L75.67 401zm416 0v78h53.906c-4.965-9.187-9.113-19.953-12.734-31.557-4.94-15.833-8.498-32.39-10.227-46.443zm-289.002 1.49c-10.72 0-20.569 3.55-28.453 9.533L164.325 463h32.714a47.4 47.4 0 0 0 1.96-13.51 46.864 46.864 0 0 0-46.999-47zm-54.992 5.174L43.456 447H87.06c.512-13.423 5.136-25.816 12.632-35.975zm130.105 12.633C220.781 428.302 217 438.43 217 449.49c0 4.703.69 9.234 1.96 13.51h42.313zm-115.683 5.392c-4.08 6.97-6.426 15.095-6.426 23.8 0 26.063 20.936 47 47 47 13.91 0 26.358-5.967 34.943-15.49l-31.27-.001zM25.023 465c.522 16.756 14.085 30 30.977 30s30.455-13.244 30.977-30zm204.032 16c8.586 9.524 21.034 15.49 34.945 15.49 13.91 0 26.36-5.966 34.945-15.49z"/></svg>