<svg xmlns="http://www.w3.org/2000/svg" viewBox="0 0 512 512"><path d="M96 29.549v452.904h301.395v-78.11h-17.01v-85.286h17.01v-132.83h-17.01v-85.289h17.01v-71.39zm65.61 18.06a8.505 8.505 0 1 1-8.506 8.506 8.505 8.505 0 0 1 8.505-8.506zm41.367 0a8.505 8.505 0 1 1-8.506 8.506 8.505 8.505 0 0 1 8.506-8.506zm41.377 0a8.505 8.505 0 1 1-8.504 8.506 8.505 8.505 0 0 1 8.504-8.506zm41.367 0h.002a8.505 8.505 0 1 1-8.506 8.506 8.505 8.505 0 0 1 8.504-8.506zm40.314 0a8.505 8.505 0 0 0-8.506 8.506 8.505 8.505 0 1 0 8.506-8.506zm-205.22.18a8.6 8.6 0 0 1 7.73 2.32 8 8 0 0 1 1.06 1.328 8.2 8.2 0 0 1 .778 1.456 8.4 8.4 0 0 1 .467 1.5 9 9 0 0 1 .18 1.71 9 9 0 0 1-.159 1.627 9 9 0 0 1-.5 1.649 8.2 8.2 0 0 1-.775 1.445 8.7 8.7 0 0 1-1.063 1.297 8.505 8.505 0 0 1-14.523-6.017 9 9 0 0 1 .213-1.606l.002.002a9 9 0 0 1 .52-1.68 8.6 8.6 0 0 1 1.775-2.7 8.7 8.7 0 0 1 1.296-1.063 8.4 8.4 0 0 1 1.5-.797 9 9 0 0 1 1.498-.47zm243.027.057a8.4 8.4 0 0 0-1.5.457 8.2 8.2 0 0 0-1.455.765 8 8 0 0 0-1.34 1.063 8.505 8.505 0 0 0 0 12.023 8 8 0 0 0 1.297 1.065 8 8 0 0 0 1.414.754 7.6 7.6 0 0 0 1.582.488 8 8 0 0 0 1.713.182 7.8 7.8 0 0 0 1.627-.16 8 8 0 0 0 1.603-.467 8.3 8.3 0 0 0 1.5-.797 8.3 8.3 0 0 0 2.35-2.352 9 9 0 0 0 .765-1.414v-.115a8.3 8.3 0 0 0 .438-1.469l-.031-.02a8 8 0 0 0 .16-1.722 7.7 7.7 0 0 0-.16-1.615 8.4 8.4 0 0 0-1.17-2.998 8 8 0 0 0-1.065-1.34 8.6 8.6 0 0 0-1.287-1.063 8 8 0 0 0-1.455-.775 9 9 0 0 0-1.596-.49 8.5 8.5 0 0 0-3.39 0zM147.17 81.568h199.055v124.645H147.17zm-24.592 10.44h.002a8.505 8.505 0 1 1-8.506 8.506 8.505 8.505 0 0 1 8.504-8.506zm41.602 6.57v90.623h165.035V98.578zm233.215 19.371v51.266H416v-51.266zM122.58 136.416a8.505 8.505 0 1 1-8.506 8.506 8.505 8.505 0 0 1 8.504-8.484zm0 44.42a8.505 8.505 0 1 1-8.506 8.504 8.505 8.505 0 0 1 8.504-8.485zm28.414 44.434a32.267 32.267 0 0 1-9.97 62.955 32.3 32.3 0 0 1-32.266-32.235v-.033a32.267 32.267 0 0 1 42.236-30.687zm-9.97 15.464a15.256 15.256 0 0 0-15.256 15.254 15.256 15.256 0 0 0 15.257 15.258 15.256 15.256 0 0 0-.002-30.512zm61.95 6.75a8.505 8.505 0 1 1 0 17.01 8.505 8.505 0 0 1-8.503-8.506 8.505 8.505 0 0 1 8.504-8.504zm41.38 0a8.505 8.505 0 1 1 0 17.01 8.505 8.505 0 0 1-8.506-8.506 8.505 8.505 0 0 1 8.506-8.504zm41.365 0a8.505 8.505 0 0 1 .002 17.01 8.505 8.505 0 0 1-8.504-8.506 8.505 8.505 0 0 1 8.502-8.504zm40.316 0a8.505 8.505 0 0 1 0 17.01 8.505 8.505 0 0 1-8.506-8.506 8.505 8.505 0 0 1 8.506-8.504zM147.17 294.721h199.055v135.297H147.17zm17.01 17.01V413.02h165.035V311.73zm-41.602 2.35a8.505 8.505 0 0 1 8.504 8.507 8.505 8.505 0 0 1-8.504 8.525v-.021a8.506 8.506 0 1 1 0-17.012zm274.817 21.985v51.266H416v-51.266zm-274.817 22.422a8.505 8.505 0 0 1 8.504 8.506 8.505 8.505 0 0 1-8.504 8.526v-.022a8.505 8.505 0 1 1 0-17.01zm1.89 44.633a8.505 8.505 0 0 1 6.614 8.291 8.505 8.505 0 0 1-8.504 8.527v-.021a8.505 8.505 0 1 1 1.89-16.797zm-3.536 44.299a8.4 8.4 0 0 1 3.285 0 8.5 8.5 0 0 1 1.543.457 10 10 0 0 1 1.433.754l.096.062a9 9 0 0 1 1.266 1.065 8 8 0 0 1 1.062 1.34 8 8 0 0 1 .766 1.457 8.5 8.5 0 0 1 .457 1.466v.14a9 9 0 0 1 .16 1.605 9 9 0 0 1-.074 1.699v-.02a9 9 0 0 1-.49 1.618 8 8 0 0 1-.788 1.49 8.5 8.5 0 0 1-1.062 1.297 8 8 0 0 1-1.342 1.06 8.4 8.4 0 0 1-3.049 1.244 7.8 7.8 0 0 1-1.629.16 8.505 8.505 0 0 1-8.504-8.505 9 9 0 0 1 .15-1.606v-.139a8.7 8.7 0 0 1 .487-1.55 8 8 0 0 1 .768-1.414 8 8 0 0 1 1.062-1.297 9.4 9.4 0 0 1 1.223-1.065l.15-.095a10 10 0 0 1 1.34-.711l.125-.053a8.7 8.7 0 0 1 1.565-.46zm242.976.072a8.4 8.4 0 0 1 3.285 0 8.7 8.7 0 0 1 1.52.447l.14.053a10 10 0 0 1 1.34.713l.137.084a9.4 9.4 0 0 1 1.233 1.065 8 8 0 0 1 1.064 1.34 8.7 8.7 0 0 1 .732 1.368 10 10 0 0 1 .49 1.565v.117a9 9 0 0 1 .149 1.615 8.57 8.57 0 0 1-2.488 5.996l.017.014a8.57 8.57 0 0 1-6.015 2.488 8 8 0 0 1-1.711-.18 8.4 8.4 0 0 1-1.5-.456 9 9 0 0 1-1.49-.8 7.8 7.8 0 0 1-1.305-1.062 8.5 8.5 0 0 1-1.065-1.287 8 8 0 0 1-.785-1.478 7.8 7.8 0 0 1-.49-1.615 9 9 0 0 1-.16-1.63 9 9 0 0 1 .16-1.605 8.7 8.7 0 0 1 1.287-3.103 7.8 7.8 0 0 1 1.065-1.297 8.7 8.7 0 0 1 1.265-1.065l.096-.062a10 10 0 0 1 1.34-.713 9 9 0 0 1 1.69-.512zm-200.197.049a8.505 8.505 0 0 1 6.613 8.291 8.505 8.505 0 0 1-8.506 8.518v-.012a8.505 8.505 0 1 1 1.893-16.797zm41.379 0a8.505 8.505 0 0 1 6.613 8.291 8.505 8.505 0 0 1-8.506 8.518v-.012a8.505 8.505 0 1 1 1.893-16.797zm41.367 0a8.505 8.505 0 0 1 6.613 8.291 8.505 8.505 0 0 1-8.504 8.518l-.002-.012a8.505 8.505 0 1 1 1.893-16.797zm41.367 0a8.505 8.505 0 0 1 6.613 8.291 8.505 8.505 0 0 1-8.505 8.518v-.012a8.505 8.505 0 1 1 1.892-16.797zm40.315 0a8.505 8.505 0 0 1 6.613 8.291 8.505 8.505 0 0 1-8.506 8.518v-.012a8.505 8.505 0 1 1 1.893-16.797z"/></svg>