<svg xmlns="http://www.w3.org/2000/svg" viewBox="0 0 512 512"><path d="m138.158 79.56-.002.002c-31.152.183-59.2 12.184-81.656 49.657 14.524 7.443 25.94 20.495 34.594 36.719 23.192-19.45 47.258-25.424 70.344-26.034 1.115-.03 2.232-.054 3.343-.06 7.78-.04 15.44.484 22.906 1.28l-2 18.595c-30.505-3.252-57.476-3.169-86.529 24.03 3.292 8.649 6.04 17.943 8.373 27.72 14.596-9.007 29.498-12.176 44.065-12.25 1.196-.007 2.401-.005 3.593.03 11.435.329 22.625 2.459 33.25 5.093l-4.5 18.125c-26.066-6.46-48.34-9.59-72.375 8.904a387 387 0 0 1 2.907 20.315c.392 3.398.714 6.825 1.03 10.279 9.116-3.8 18.351-5.537 27.376-5.688 1.955-.03 3.91.02 5.844.127 15.46.867 30.124 5.716 44.25 11.188l-6.75 17.437c-13.48-5.22-26.39-9.286-38.533-9.966-10.51-.59-20.404 1.075-30.75 6.906.683 13.683.837 27.618.5 41.558 16.185.72 33.619.075 50.28-1.935l5-.594 3.25 3.844c18.407 21.86 30.335 55.44 32.063 102 10.888-1.433 21.698-3.74 32.565-7.375-25.184-102.074-34.018-205.22-.344-308.533-31.203-16.298-66.679-30.76-99.065-31.342-1.01-.018-2.025-.038-3.029-.031zm219.905 16.126v.001c-15.74.037-30.8 2.812-43.157 7.938-16.887 7.006-28.18 17.81-31.97 31.875 23.718 102.41 13.683 179.952.595 283.344 5.66 1.64 12.74 3.086 20.75 4.344 4-48.36 26.425-86.188 55.721-107.844l4.312-3.188 4.938 2.125c8.365 3.59 19.526 6.159 32.219 7.721a526 526 0 0 1-1.159-16.19c-22.765-17.531-51.772-17-77.906-9.185l-5.344-17.906c11.303-3.38 23.543-5.618 35.971-5.877 15.748-.33 31.801 2.563 46.594 10.406-.017-6.967.15-13.778.562-20.375.287-4.61.705-9.106 1.217-13.5-22.627-20.67-45.178-19.31-71.81-14.906l-3.032-18.44c7.198-1.19 14.616-2.136 22.157-2.468 1.413-.062 2.828-.108 4.25-.125 17.42-.198 35.295 3.27 52.092 15 2.5-10.14 6-19.321 10.875-27.217-26.413-28.12-52.973-30.289-83.157-29.47l-.5-18.657c2.146-.058 4.297-.086 6.471-.094s4.37.003 6.562.063c27.6.754 56.7 7.326 82.875 33.968 10.384-8.308 24.128-12.26 40-10.718-3.77-22.168-14.12-39.038-28.343-51.78-16.68-14.942-38.927-24.046-61.625-27.377a137 137 0 0 0-20.159-1.468zM64.627 333.469l-.002.002c-24.22 19.75-43.225 53.82-44.937 98.685 34.013 11.948 82.976 16.013 169.656-1.125-1.105-42.536-11.057-71.93-24.813-90.342-35.766 3.787-73.08 2.453-99.904-7.22zm302.81 0v.002c-24.21 19.752-43.225 53.83-44.937 98.685 34.01 11.95 82.986 16.008 169.656-1.125-1.105-42.54-11.054-71.93-24.812-90.342-35.758 3.783-73.089 2.45-99.906-7.22z"/></svg>