<svg xmlns="http://www.w3.org/2000/svg" viewBox="0 0 512 512"><path d="m453.7 19.08-33.6 33.6 1.7 1.7-31.1 31.1 8.4 8.5 31.2-31.1 2.1 2.1 33.6-33.7zm-79.5 78-16.4 16.42-21.1-4.5L54.3 391.4c-12.46 12.5-10.65 33.2 3.8 43.3l82.2 57.4c1.8 1.3 4.3 1.1 5.8-.5l31.2-31.3c1.8-1.8 1.7-4.7-.1-6.4l-13.5-12.6c-1.4-1.3-1.8-3.4-1-5.1l77.5-173.9c3.6-3 135.4-135.2 149.4-149.8zm-143 12.32L110.8 229.7l14.8 14.9L246 124.3zm149.5 43.7-14.8 14.8 51.9 51.9 14.8-14.9zm-175.1 39.5-19.5 19.5 17.9 1.5 19.4-19.5zm124.1 7.8-11.4 11.4c3.6 20 9.9 55.8 11.6 70.6.8 6.2 1.5 12.5-10.2 24.3l-5.9 6c-10.3-3.9-20.8-37.3-21.6-48.5.1-5.5 7-13 12-17.6l-10.3-10.3c-12.5 12.5-25.2 25.3-37.4 38.1 3.7.9 10.2 6.2 9.6 13.9-2.3 31.5 32.3 58.6 32.3 58.6 10.4-10.4 19.5-19.5 30.8-30.9 14.9-15.1 15-25.6 13.9-35.1-2.1-18.1-10.6-65.1-13.4-80.5zM222.1 351.6l-22.7 50.8 59.9 33.5 27.1-48.3z"/></svg>