<svg xmlns="http://www.w3.org/2000/svg" viewBox="0 0 512 512"><path d="m336.688 19.28-69.594 40.19h-.03c-10.144 5.873-16.94 21.494-17.283 43.03-.055 3.52.09 7.167.375 10.906l163-94.125h-76.468zM31.313 28.155c35.74 29.83 71.095 60.962 104.78 93.846-26.694-11.76-55.13-21.43-85.343-28.72 35.576 32.082 70.468 65.892 102.47 102.25-22.846-11.377-47.76-20.617-74.845-27.345 84.1 84.957 160.533 184.745 164.25 323.065h249.75v-64.596c-27.172-59.788-61.547-116.961-103.125-168.779l-5.375 3.094c-21.887 12.636-48.78 5.618-72.437-10-23.657-15.62-45.578-40.402-60.25-68.533-11.64-22.323-18.299-46.47-19.782-68.72-58.923-38.41-125.584-67.966-200.093-85.562zm463.533.094-.002.002-232.406 134.186c1.632 3.834 3.401 7.65 5.343 11.375A172 172 0 0 0 276.096 188l218.75-126.312zm-.002 55.002L287.156 203.188c10.542 13.03 22.546 24.232 34.596 32.187 20.43 13.487 39.432 17.113 52.78 9.406h.032l120.28-69.154zM91.188 263.123v.002c-10.555-.048-18.913 2.915-24.467 8.47-8.888 8.887-11.191 24.947-5.034 45.717 6.156 20.772 20.721 44.94 42.188 66.407 21.466 21.464 45.635 36.03 66.406 42.185 20.773 6.157 36.834 3.857 45.72-5.029q.768-.764 1.47-1.596c-10.497-45.277-29.17-86.01-52.844-123.435-17.523-14.44-35.902-24.454-52.19-29.28-7.79-2.31-14.916-3.411-21.25-3.441zm-51.532 28.91L20.03 311.656v47.625l27.034-27c-1.245-3.244-2.365-6.457-3.313-9.654-3.11-10.488-4.6-20.897-4.094-30.594zm33.002 84.531L20.03 429.187v46.375l74.659-74.656a215 215 0 0 1-4.032-3.97 219 219 0 0 1-17.998-20.372zm36.156 36.655v.002L28.53 493.5h112.596l45.656-45.656c-7.08-.46-14.43-1.843-21.81-4.03-18.405-5.456-37.766-15.88-56.157-30.595z"/></svg>