<svg xmlns="http://www.w3.org/2000/svg" viewBox="0 0 512 512"><path d="M383.592 20.313c-28.797 0-57.574 10.983-79.528 32.937L53.094 304.188c-43.91 43.911-43.91 115.184 0 159.093 43.91 43.91 115.214 43.912 159.125 0l250.935-250.935c43.91-43.913 43.91-115.185 0-159.094-21.954-21.954-50.764-32.938-79.56-32.94zm9.972 23.812c3.18 0 6.352 1.23 8.78 3.656 4.853 4.855 4.853 12.71 0 17.565-4.854 4.853-12.71 4.853-17.563 0-4.852-4.854-4.852-12.712 0-17.565a12.4 12.4 0 0 1 8.783-3.654zm34.155 34.156c3.18 0 6.352 1.2 8.779 3.625 4.854 4.854 4.854 12.742 0 17.596s-12.74 4.854-17.594 0c-4.853-4.854-4.853-12.742 0-17.596 2.427-2.427 5.634-3.625 8.815-3.625zm-69.315 1c3.18 0 6.356 1.23 8.782 3.656 4.855 4.854 4.855 12.712.002 17.565s-12.712 4.854-17.565 0-4.854-12.712 0-17.564a12.4 12.4 0 0 1 8.781-3.657zm34.157 34.156a12.36 12.36 0 0 1 8.783 3.627c4.853 4.853 4.853 12.74 0 17.592-4.854 4.854-12.742 4.854-17.596 0-4.854-4.853-4.854-12.74 0-17.594 2.427-2.425 5.632-3.624 8.815-3.623zm71.812 1.5c3.18 0 6.355 1.232 8.781 3.659 4.855 4.853 4.855 12.708 0 17.56-4.852 4.854-12.708 4.854-17.56 0-4.855-4.853-4.855-12.708 0-17.56a12.38 12.38 0 0 1 8.779-3.657zm-142.625 1c3.18 0 6.355 1.232 8.781 3.659 4.855 4.853 4.855 12.708 0 17.56-4.852 4.854-12.74 4.854-17.591 0-4.854-4.853-4.854-12.708 0-17.56a12.45 12.45 0 0 1 8.81-3.657zm34.125 34.159c3.18 0 6.387 1.23 8.815 3.656 4.853 4.854 4.853 12.71 0 17.562-4.854 4.853-12.74 4.853-17.594 0-4.854-4.854-4.854-12.709 0-17.562a12.4 12.4 0 0 1 8.779-3.656zm73.344 0h.002c3.18 0 6.352 1.23 8.779 3.656 4.854 4.854 4.854 12.71 0 17.562s-12.71 4.853-17.562 0c-4.853-4.854-4.853-12.709 0-17.562a12.4 12.4 0 0 1 8.78-3.656zm-194.815 4.498.002.002 13.22 13.218-73.907 73.907-13.22-13.221zm55.782.002 73.908 73.906-13.22 13.219-73.905-73.907zM392.56 186.75v.002c3.18 0 6.354 1.228 8.78 3.654 4.855 4.854 4.855 12.712 0 17.565-4.852 4.852-12.74 4.852-17.593 0-4.854-4.855-4.854-12.71 0-17.565a12.46 12.46 0 0 1 8.813-3.656zm-41.69 84.281h.002l13.22 13.221-73.94 73.937-13.186-13.22zm-177.154.033 73.904 73.907-13.219 13.216L160.5 284.25zm-42.25 35.155v.002c3.18 0 6.352 1.195 8.78 3.623 4.853 4.853 4.853 12.74 0 17.594-4.855 4.853-12.71 4.853-17.563 0-4.853-4.854-4.853-12.74 0-17.594 2.427-2.427 5.6-3.625 8.783-3.625zm34.154 34.156c3.18 0 6.355 1.198 8.781 3.625 4.855 4.854 4.855 12.74 0 17.594-4.852 4.853-12.708 4.853-17.56 0-4.855-4.854-4.855-12.74 0-17.594 2.426-2.427 5.6-3.625 8.78-3.625zm-69.312 1h.002a12.36 12.36 0 0 1 8.78 3.625c4.854 4.854 4.854 12.74 0 17.594-4.853 4.853-12.71 4.853-17.564 0-4.852-4.854-4.852-12.74 0-17.594a12.36 12.36 0 0 1 8.782-3.625zm34.156 34.156h.002c3.18 0 6.352 1.2 8.78 3.625 4.853 4.854 4.853 12.742 0 17.596-4.855 4.854-12.71 4.854-17.563 0s-4.853-12.742 0-17.596a12.35 12.35 0 0 1 8.78-3.625zm71.81 1.5c3.182 0 6.357 1.2 8.784 3.625 4.854 4.854 4.854 12.742 0 17.596-4.853 4.854-12.709 4.854-17.563 0s-4.854-12.742 0-17.596a12.35 12.35 0 0 1 8.78-3.625zm-142.625 1h.002c3.18 0 6.354 1.2 8.782 3.625 4.853 4.854 4.853 12.742 0 17.596-4.854 4.854-12.71 4.854-17.563 0-4.854-4.854-4.854-12.742 0-17.596a12.35 12.35 0 0 1 8.78-3.625zm34.159 34.156v.002c3.18 0 6.354 1.197 8.78 3.625 4.855 4.853 4.855 12.74 0 17.592-4.852 4.854-12.708 4.854-17.562 0-4.852-4.853-4.852-12.74 0-17.594a12.36 12.36 0 0 1 8.782-3.625zm73.312 0v.002c3.18 0 6.353 1.197 8.78 3.625 4.854 4.853 4.854 12.74 0 17.592-4.853 4.854-12.707 4.854-17.56 0-4.854-4.853-4.854-12.74 0-17.594a12.36 12.36 0 0 1 8.78-3.625zm-36.656 36.657v.002c3.18 0 6.352 1.23 8.78 3.656 4.853 4.854 4.853 12.71 0 17.562-4.855 4.853-12.71 4.853-17.563 0-4.853-4.854-4.853-12.74 0-17.593 2.427-2.428 5.6-3.627 8.783-3.627z"/></svg>