<svg xmlns="http://www.w3.org/2000/svg" viewBox="0 0 512 512"><path d="M121.176 35.074a7 7 0 0 0-.432.012c-10.66 0-32.88 14.9-55.6 38.27-28.11 28.97-46.377 59.9-40.767 69.15a5 5 0 0 0 .88 1.09l111.32 104.27c1.7-6.19 4.84-13.15 9.5-21 8.3-14.17 20.889-30.14 35.359-45.03 10.55-10.85 34.5-33.71 55.34-40.9l-111.4-104.309a6.53 6.53 0 0 0-4.2-1.553zm127.318 119.621c-10.66 0-32.87 14.902-55.6 38.272-28.14 28.94-46.396 59.9-40.796 69.16 1.08 1.78 3 2.63 5.51 2.63 6.58 0 17.559-5.68 30.349-15.52l-5.49-4.65-.303-.26-.287-.27a17.8 17.8 0 0 1-3.05-3.77c-6.41-10.58.36-22.062 2.58-25.842a97.4 97.4 0 0 1 13.759-17.558c11.68-12 22-18.1 30.73-18.1a18.24 18.24 0 0 1 12.54 4.86l.25.24.242.25 4.648 4.75c9.26-14.52 13.552-26.41 10.432-31.56-1.08-1.78-3.002-2.632-5.512-2.632zm-22.451 40.096a2 2 0 0 0-.147.006c-3.69 0-11.39 5.16-19.26 13.25-9.75 10-16.068 20.75-14.128 24a1.8 1.8 0 0 0 .299.38l30.31 25.65a65.5 65.5 0 0 1 13.13-20 64.2 64.2 0 0 1 19.66-13.75l-28.41-29a2.26 2.26 0 0 0-1.454-.536zm42.094 42.074c-1.09.31-2.3.7-3.63 1.22a48.4 48.4 0 0 0-16.78 11.122 47.8 47.8 0 0 0-11.58 19.85l128.23 108.539 48.89 54.33a82 82 0 0 1 12-15.79 89 89 0 0 1 17.11-13.64l-57.64-46.53zm187.69 176.461a68.4 68.4 0 0 0-19 13.92 62.5 62.5 0 0 0-12.08 17.33l15.33 17c.69-1.35 1.338-2.45 1.788-3.23a97.4 97.4 0 0 1 13.74-17.49q9.103-9.36 17.073-13.89zm30.706 25.42a2 2 0 0 0-.156.01c-3.69 0-11.392 5.16-19.262 13.25-9.75 10-16.069 20.75-14.129 24a2.06 2.06 0 0 0 1.91.91c3.69 0 11.38-5.16 19.26-13.26 9.74-10 16.07-20.75 14.13-24a2.06 2.06 0 0 0-1.753-.91z"/></svg>