<svg xmlns="http://www.w3.org/2000/svg" viewBox="0 0 512 512"><path d="M135.688 14.47c-9.9 17.579-16.9 35.042-21.157 52.718-30 .05-60.354 6.118-90.25 19.343 30.206-1.245 58.853 1.257 85.94 7.065-1.807 20.477-.167 41.44 4.718 63.406 8.715-19.5 14.789-38.61 18.563-57.5 19.888 5.854 38.888 13.54 57 22.904-8.706 21.313-15.625 43.752-20.906 65.815 17.15-14.825 32.098-32.533 43.935-52.721 16.033 9.956 31.313 21.257 45.846 33.78-14.894 18.654-26.555 39.647-35.5 63.033 20.666-12.887 40.305-26.641 58.344-41.72 11.776 11.828 23.03 24.469 33.717 37.876-18.05 13.51-34.524 29.52-50.092 47.875 23.34-7.02 45.913-15.172 67.25-25.031 9.88 13.903 19.247 28.47 28.093 43.625-19.928 10.57-37.595 24.164-54.033 40.216 22.827-4.56 45.175-10.158 66.75-17.31a719 719 0 0 1 23.94 49.625c-17.376 5.93-34.2 14.866-50.75 26.623 19.95-1.098 39.802-2.813 59.343-6.094 12.852 31.89 23.956 65.24 33.28 99.5 6.136-34.692 5.34-70.76-1.156-106.562 15.951-4.408 31.631-10.261 46.939-18.094-17.955-3.76-35.027-4.77-51.47-3.22-4.789-19.56-11.222-38.93-19.126-57.843 19.266-8.834 37.667-19.324 54.971-31.906-24.416.075-46.115 2.949-65.75 8.22-8.473-17.197-18.145-33.875-28.846-49.845 20.15-13.046 38.631-28.438 54.877-46.904-27.136 4.322-51.12 11.748-72.812 22.06-12.598-16.215-26.287-31.464-40.875-45.468 16.55-18.2 30.805-38.286 42.031-60.842-25.817 10.962-47.792 24.042-66.44 39.25-19.177-15.557-39.571-28.977-60.81-39.75 6.06-17.92 9.948-37.2 11.154-57.656-13.128 13.28-24.6 29.35-34.5 47.06-22.77-9.18-46.309-15.261-70.218-17.654 1.252-18.045.511-35.954-2-53.873z"/></svg>