<svg xmlns="http://www.w3.org/2000/svg" viewBox="0 0 512 512"><path d="m141.94 19.12 18.43 56.653c30.736 18.685 167.82-13.152 195.905-49.642-38.565 23.65-135.531 21.362-160.02-7.012zm230.453 12.243c-14.163 34.33-39.768 60.525-65.637 74.05 14.96 1.99 31.04 4.38 46.562-5.046zM330.05 63.551c-48.87 23.39-74.406 32.078-105.752 37.808 17.388 18.688 46.528 29.985 76.012 36-15.733 15.91-45.845 30.013-74.758 36.791 30.223 5.794 114.962 0 124.045-53.564-14.108 10.965-58.055-.69-77.586-14.488 19.223-7.584 38.185-18.908 58.04-42.547zM164.332 92.84l8.33 44.825c11.172 10.12 48.686 24.685 98.776 5.947-54.655-2.796-85.7-28.03-107.106-50.771zm180.848 83.386v.005l.002-.005zm0 .005c-14.154 57.41-116.861 103.99-178.71 88.18l-4.29 15.322 53.197 43.108 12.264-26.692c-10.46-2.576-20.84-6.285-30.803-11.296 63.5 6.462 141.947-24.855 148.926-48.475zm-170.024 1.028-3.449 61.367c13.008 16.844 102.136 11.77 160.463-57.684-42.662 25.838-80.121 37.003-105.211 35.51 0 0 43.29-16.723 57.564-27.293-46.996 10.664-96.064 6.045-109.367-11.9zm174.698 89.488c-3.405 6.94-9.937 13.227-18.702 18.459l1.676 16.752 21.031-15.72zm51.26 7.502-83.59 62.482-2.881-28.804-33.57 45.976-43.2-35.265-15.562 33.875-49.961-40.485-4.006 25.034-56.223-56.221 22.025 98.775c81.24 22.15 161.895 24.255 242.735.127l24.232-105.492zm-101.82 23.006c-16.765 3.702-36.048 4.7-55.65 1.97l33.965 27.73zM18.358 378.199v115.496h475.288V378.2H468.44l-87.107 23.045 56.05 34.324-106.767-19.488 34.06 41.947-68.33-26.28.036 44.966-43.8-43.815-50.073 43.91 4.844-51.863-66.41 31.196 11.833-32.58-82.343 5.47 50.714-29.17L43.27 378.2z"/></svg>