<svg xmlns="http://www.w3.org/2000/svg" viewBox="0 0 256 256"><path d="M128 18C67.355 18 18 67.355 18 128s49.355 110 110 110 110-49.355 110-110S188.645 18 128 18zm0 18c50.917 0 92 41.083 92 92s-41.083 92-92 92-92-41.083-92-92 41.083-92 92-92zm-8.238 26.203C108.899 62.437 99 65.88 94.8 74.51c-5.94 12.13-36.93 82.99-34.05 92.99 4.99 17.4 121.25 7.3 139.05-7.4 4-2.4 6-15.1.4-23.5-15.8-23.6-57.7-24.4-90.5 2.1a96 96 0 0 0-11.72 11.2c1.84-19.2 7.02-44.9 19.62-63.16l34.1-4.92-1.2-12.67c-8.05-4.205-19.876-7.18-30.738-6.947z"/></svg>