<svg xmlns="http://www.w3.org/2000/svg" viewBox="0 0 512 512"><path d="m82.854 18.443.001.002L221.78 244.19l-.115.122 57.42 98.365c13.31-10.723 26.58-20.305 39.62-29.184l-61.907-105.66-21.629 22.457L104.801 18.443zm80.304 0v.002l113.24 186.012.059-.035 57.828 98.697c14.364-9.413 28.354-18.235 41.688-27.07l-70.545-118.71-21.957 22.798-98.434-161.694zm157.52 0v.002l54.984 88.522.113-.07L443.37 220.38c11.33-13.075 21.147-27.87 29.055-45.385L415.109 78.6l-29.125 9.564-43.306-69.72zm-300.186.002V48.32l142.801 230.215 13.262-14.068L23.953 18.445zm376.322 0 45.606 69.516 38.508 64.771c8.563-26.848 13.343-59.396 13.343-100.128l-43.353 14.238-31.748-48.397zm-152.695.002L326.936 157.1l.066-.04 64.45 108.454c13.837-9.718 26.798-19.798 38.536-31.08L354.02 106.89l-21.791 22.627-66.34-111.07zM20.492 162.34v34.78l93.502 146.724 81.238 129.408 46.653-27.14-15.565-24.794-24.6 26.12-76.808-128.2 22.406-23.763-9.09-14.48-30.728 17.878zm187.7 95.96-6.49 6.737-28.397 30.117 55.463 94.74c11.814-12.982 23.79-24.55 35.79-35.03zm-48.25 51.026-11.73 12.442 56.84 94.87 11-11.677-1.767-2.815zm-39.376 80.143c-29.077 28.909-67.017 54.392-98.773 73.61-.106 8.051 1.748 14.446 5.334 19.081 3.678 4.754 9.542 8.254 18.602 9.875 25.251-25.11 59.003-52.65 92.246-74.844z"/></svg>