<svg xmlns="http://www.w3.org/2000/svg" viewBox="0 0 512 512"><path d="m300.123 22.219.002.002c-16.803.392-34.232 9.649-45.53 29.217-27.147-47.017-96.42-34.832-94.626 21.374 1.87 58.528 85.609 92.668 94.625 126.313 8.25-30.797 96.137-70.224 94.375-126.312-1.03-32.814-24.288-51.17-48.846-50.594zm109.531 112.28v.001s-86.615 63.247-85.029 113.78c1.356 43.212 45.502 58.606 73.53 33.564l-24.56 58.875h72.374l-24.596-58.908c28.416 24.42 74.964 10.286 73.565-33.53-1.683-52.735-85.284-113.783-85.284-113.783zm-303.435 2.03c-24.513.018-44.625 19.581-44.625 44.096 0 10.22 3.666 19.87 9.467 27.375-1.847-.232-3.653-.562-5.563-.562-24.526 0-44.654 20.129-44.654 44.656 0 24.525 20.128 44.656 44.654 44.656 10 0 19.224-3.35 26.656-8.97L69.75 341.44h72.375l-22.75-54.47c7.604 6.089 17.202 9.782 27.594 9.782 24.526 0 44.125-20.13 44.125-44.656s-19.6-44.657-44.125-44.657c-2.1 0-4.105.277-6.127.563 5.887-7.535 9.5-17.072 9.5-27.375 0-24.515-19.583-44.077-44.094-44.094h-.03zM254.529 283.5l-85.466 105.125 85.468 105.156 85.5-105.154-85.5-105.125z"/></svg>