<svg xmlns="http://www.w3.org/2000/svg" viewBox="0 0 256 256"><path d="M128 18C67.355 18 18 67.355 18 128s49.355 110 110 110 110-49.355 110-110S188.645 18 128 18zm0 18c50.917 0 92 41.083 92 92s-41.083 92-92 92-92-41.083-92-92 41.083-92 92-92zM79.29 62.53l5.74 17.52 12.78 39.05-47.93 34.7 59.32.1 18.4 56.2 18.2-56.2 60.3.1-48.8-35.2 18.1-55.9-47.7 34.54zm22.91 31.3 15.2 11.07-9.4 6.8zm50.4.38L147 111.4l-9.1-6.6zm-24.9 17.99 15.4 11.2-6 18.5h-19.2l-6-18.2zm25.7 18.6 15.5 11.2-19.2-.1zm-51.7.2 3.6 10.9-18.47-.1zm20.2 22.9h11.3l-5.6 17.4z"/></svg>