<svg xmlns="http://www.w3.org/2000/svg" viewBox="0 0 512 512"><path d="M320.06 19.72c-72.254 14.576-19.246 71.693-74.341 108.81 4.846-.49 9.745-.702 14.654-.624 16.288.26 32.787 3.721 48.596 10.72a126 126 0 0 1 14.25 7.405c12.107-47.476-37.103-96.38-3.158-126.31zM136.75 44.47c-40.76 61.358 36.984 64.33 24.406 129.405 17.407-21.255 41.17-35.9 67.157-42.312-25.006-42.138-94.399-41.925-91.563-87.092zm297.313 75.405c-32.547.872-45.475 46.315-96.594 36.22 21.35 17.42 36.034 41.25 42.467 67.31 42.305-24.92 42.054-94.466 87.283-91.624-13.43-8.92-24.06-12.15-33.158-11.904zm-177.97 26.656c-23.655.46-46.53 8.82-64.906 23.625l18.657 36.156L170 193.157a107.6 107.6 0 0 0-9.406 16.938c-8.726 19.708-11.002 40.59-7.78 60.344l44.78 2.125-34 30.312c10.798 20.622 28.414 37.851 51.406 48.03a108 108 0 0 0 9.313 3.626l24.53-38.25 9.095 43.815c27.3.075 53.737-10.389 73.593-29.19l-19.185-37.125 38.406 12.658a109 109 0 0 0 5.03-9.937c9.745-22.01 11.456-45.499 6.439-67.22l-37.625-1.75 27.685-24.718c-10.83-20.194-28.235-37.07-50.873-47.093a107 107 0 0 0-4.125-1.72l-25.875 40.313-9.904-47.75c-.5-.016-1-.024-1.5-.033-1.3-.02-2.61-.024-3.906 0zM133.407 186.5c-41.652.725-82.482 34.847-108.718 5.094 14.572 72.234 71.664 19.3 108.783 74.312-2.154-20.972.932-42.758 10.058-63.375a126 126 0 0 1 7.346-14.094c-5.822-1.47-11.643-2.036-17.47-1.935zm249.5 53.97a124.65 124.65 0 0 1-10.029 63.624l-.188.375a126 126 0 0 1-7.22 13.779c47.524 12.244 96.507-37.135 126.47-3.154-14.602-72.388-71.92-19.04-109.033-74.623zM136.53 283.405c-42.123 25.014-41.927 94.372-87.091 91.532 61.421 40.803 64.321-37.123 129.593-24.342-21.344-17.385-36.03-41.169-42.5-67.19zm219.065 48.907c-17.406 21.46-41.236 36.24-67.344 42.72 24.944 42.263 94.497 42.003 91.656 87.217 40.867-61.52-37.402-64.358-24.312-129.937zm-162.188 28.41c-12.047 47.456 37.087 96.33 3.156 126.25 72.305-14.587 19.194-71.79 74.47-108.908-21.04 2.204-42.899-.901-63.594-10.063a126 126 0 0 1-14.032-7.28z"/></svg>