<svg xmlns="http://www.w3.org/2000/svg" viewBox="0 0 512 512"><path d="m256 32-64 80h32v64h64v-64h32zm-9 187v80h18v-80zm-63.992 53.602-16.631 6.886 15.309 36.955 16.628-6.886zm145.984 0-15.306 36.955 16.628 6.886 15.309-36.955zM77.795 284.068l-12.727 12.727 56.569 56.568 12.726-12.726zm356.41 0-56.568 56.569 12.726 12.726 56.569-56.568zM256 337.994a118.9 118.9 0 0 0-59.5 15.95c-34.215 19.753-56.177 55.048-59.129 94.056h237.26c-2.952-39.008-24.914-74.302-59.129-94.057a118.9 118.9 0 0 0-59.5-15.949zM66.488 387.377l-6.886 16.63 36.955 15.307 6.886-16.628zm379.024 0-36.955 15.309 6.886 16.628 36.955-15.306zM24 466v18h464v-18z"/></svg>