<svg xmlns="http://www.w3.org/2000/svg" viewBox="0 0 512 512"><path d="m206.893 18.176-27.23 74.533-84.936-28.234 17.134 83.591-86.297 25.77 51.99 54.76-59.251 48.69 93.804 25.314-72.3 67.283 50.978 13.012-22.8 51.867 60.937-37.407-13.543 86.213 100.975-61.181 39.156 75.892 39.135-61.16 77.744 46.285-2.74-93.998 85.386 35.367-31.36-70.043 48.653 1.272-42.88-52.065 63.88-19.67-63.064-36.73 57.404-72.982-70.961-12.328 66.82-100.553-109.021 44.486 13.414-65.402-71.193 58.504-13.135-65.244-41.22 52.388-55.477-68.23zm52.341 90.976.004.004h.047c82.104 0 146.59 52.22 146.59 113.3 0 19.403-9.242 30.604-25.768 41.433-16.525 10.827-40.02 19.56-63.863 30.28l-7.377 3.317 26.863 93.871c-8.333 2.637-17.08 4.925-26.1 6.844l-20.482-46.379-2.753 50.407a329 329 0 0 1-24.26 2.376l-10.55-51.603-12.626 52.178c-8.13-.1-16.205-.517-24.139-1.274l-2.656-49.922-20.031 46.727c-9.805-1.852-19.242-4.284-28.102-7.36l34.278-92.197-6.82-3.953c-19.517-11.314-40.036-21.866-54.971-33.846-14.936-11.98-23.823-24.21-23.823-40.902 0-61.068 64.46-113.279 146.54-113.3zm62.905 55.534c-29.543-.155-56.05 24.43-50.38 65.375 10.285 74.272 136.614 22.557 103.255-32.358-13.756-22.645-33.94-32.915-52.877-33.015zm-140.926.486c-17.51.267-34.493 10.684-42.723 36.69-16.22 51.261 72.747 97.79 95.4 26.2 10.139-32.037-20.812-62.226-50.982-62.884a44 44 0 0 0-1.695-.006zm3.63 21.062c16.586 0 30.23 13.646 30.23 30.23 0 16.588-13.644 30.23-30.23 30.23-16.582 0-30.23-13.642-30.23-30.23 0-16.583 13.647-30.23 30.23-30.23zm0 18.69c-6.483 0-11.54 5.057-11.54 11.54 0 6.489 5.056 11.544 11.54 11.544 6.488 0 11.544-5.056 11.544-11.543s-5.057-11.54-11.543-11.54zm139.764 0c6.486 0 11.543 5.055 11.543 11.54 0 6.489-5.057 11.544-11.543 11.544s-11.54-5.056-11.54-11.543c0-6.485 5.055-11.54 11.54-11.54zm-70.613 55.105-22.414 49.922h37.188z"/></svg>