<svg xmlns="http://www.w3.org/2000/svg" viewBox="0 0 512 512"><path d="M199.188 19.969v.002a9.5 9.5 0 0 0-8.407 4.842 907 907 0 0 0-10.844 19.156c-6.34-1.118-12.595-.259-16.406 3.529-24.12 23.98-59.7 101.135-45.308 111.69 1.968 1.444 4.084 2.64 6.308 3.656-16.64 42.836-30.183 86.29-40.123 128.56-1.928-65.01-14.338-127.162-62.22-162.935 44.086 58.265 48.88 155.864 41.876 236.404-11.69.81-23.338 1.66-34.968 2.53l1.406 18.94c10.527-.79 21.09-1.544 31.656-2.282-5.404 47.894-14.474 87.506-20.719 105.468l28.282-7.781 19.843 3.906c3.195-33.745 7.682-68.574 16.47-104.437 104.755-6.35 212.06-8.944 325.124-.815 9.21 20.087 7.668 38.25 2.563 64.157-.69-30.596-32.682-59.163-127.25-57.717-37.285.583-99.972 24.92-93.344 61.594 10.04 55.48 93.935 63.74 164.875 37.75l-32.781-43.721 76.467 37.75c7.044-10.18 11.56-21.599 12-32.844 14.555 1.83 29.126 3.61 43.625 5.875 20.6-36.8 25.25-154.359-88-314.469 39.61 88.105 71.88 190.381 63.158 224.22-2.253-.187-4.504-.385-6.75-.563-28.424-38.034-94.286-80.813-127.815-97.563C370.742 309.23 401.776 337.56 419 360.53c-38.743-2.512-76.81-3.812-114.312-4.154-66.03-.6-130.31 1.733-193.5 5.47 14.245-49.463 37.544-100.834 77.75-153.97-51.342 38.358-77.509 85.503-95.407 134.72 9.764-55.986 26.784-116.065 49.69-174.908 1.743.234 3.47.45 5.185.625 23.065 2.38 49.026-68.143 52.69-105.343.375-3.812-1.314-7.414-4.19-10.44a869 869 0 0 1 10.281-18.156 9.5 9.5 0 0 0-8-14.404z"/></svg>