<svg xmlns="http://www.w3.org/2000/svg" viewBox="0 0 512 512"><path d="M292.186 102.59c-68.382 55.993-97.063 25.327-158.836 53.992-32.785 47.482-85.673 99.443-97.155 138.633h-.002c-15.374 35.338-24.292 60.593-14.869 69.756 31.79-12.674 49.528-84.638 70.465-52.477 19.363 29.745 26.625 65.017 46.932 92.121l92.232-13.523c14.475-25.95 30.232-79.821 49.149-82.293.083 36.959 53.255 100.016 61.925 100.611 13.953-24.709 31.585-70.968 32.112-109.844 18.25 30.734 54.92 28.934 76.74 38.76 55.088-33.738 40.312-66.368 43.658-108.588-42.13 14.348-72.979-6.76-105.873-21.441l17.8-56.115c-29.77-17.963-70.973-35.496-114.278-49.592z"/></svg>