<svg xmlns="http://www.w3.org/2000/svg" viewBox="0 0 512 512"><path d="M259.736 20.38c-40.359-.243-81.303 9.896-118.742 31.51C28.566 116.8-10.029 260.839 54.881 373.267s208.946 151.024 321.375 86.113c77.686-44.852 120.106-127.485 117.498-211.363-3.575 65.865-35.942 128.62-91.082 169.41a218 218 0 0 1-35.762 25.765C263.228 503.052 130.926 467.6 71.066 363.92 11.206 260.238 46.66 127.936 150.34 68.076 185.98 47.5 225 38.182 263.3 39.03c73.12 1.62 143.6 40.28 182.884 108.32a199 199 0 0 1 1.898 3.381 20.2 20.2 0 0 1 1.26 6.997c0 11.29-9.154 20.441-20.444 20.441-6.85 0-12.893-3.38-16.6-8.557a172 172 0 0 0-2.355-4.275l-.045-.106-.01.004c-.15-.263-.293-.53-.445-.793-31.91-55.27-89.762-86.376-149.363-86.834q-2.884-.022-5.771.05c-28.007.717-56.229 8.227-82.163 23.2-82.99 47.914-111.497 154.31-63.583 237.3 2.93 5.071 6.08 9.936 9.425 14.597L95.65 365.648l9.344 16.184 24.848-14.348c53.686 59.734 143.727 75.99 216.017 34.254 51.455-29.707 81.956-81.899 86.293-137.05-12.315 44.766-41.421 85.652-83.562 113.128a158 158 0 0 1-12.076 7.737C273.02 422.21 194.6 408.96 146.41 357.92l45.278-26.143 19.99 34.625 16.185-9.343-16.707-28.938c24.072-21.104 54.165-23.014 62.973-5.959 93.825-32.597 231.379-110.21 190.756-180.57l-.4.174a200 200 0 0 0-2.12-3.764C419.768 64.222 343.096 22.237 263.643 20.436q-1.951-.044-3.905-.055zm.284 75.821.001.002c53.167.368 104.69 28.135 133.239 77.582.19.33.368.66.554.99-48.783 49.337-134.524 98.727-200.173 123.002l-15.102-26.148-16.182 9.344 19.987 34.619-48.08 27.76a157 157 0 0 1-9.518-14.543c-42.864-74.244-17.5-168.907 56.744-211.772 23.2-13.394 48.395-20.126 73.38-20.785a153 153 0 0 1 5.15-.05z"/></svg>