<svg xmlns="http://www.w3.org/2000/svg" viewBox="0 0 512 512"><path d="m311.313 25.625-23 10.656-29.532 123.032 60.815-111.967-8.282-21.721zM59.625 50.029c11.448 76.937 48.43 141.423 100.188 195.75a3267 3267 0 0 0 42.718-29.404c-22.156-27.314-37.85-56.203-43.594-86.28-34.213-26.491-67.611-53.376-99.31-80.064zm390.47.033c-30.916 26.038-63.454 52.269-96.784 78.159-10.333 58.234-58.088 112.073-118.22 158.623C169.66 337.498 88.533 379.778 19.814 408.25l-.002 32.78c93.65-34.133 195.55-81.379 276.875-146.592 79.034-63.378 138.329-143.064 153.41-244.375zm-236.158 9.342v.002l-8.5 27.813 40.688 73.06-6.875-85.31zm114.688 87.815C223.39 227.469 112.257 302.86 19.813 355.904V388c65.916-27.914 142.58-68.51 203.843-115.937 49.83-38.574 88.823-81.514 104.971-124.844zm-144.562 2.154c7.35 18.89 19.03 37.682 34 56.065 7.03-4.98 14.055-10.03 21.093-15.094-18.444-13.456-36.863-27.121-55.094-40.97zm168.593 120.348c-9.573 9.472-19.58 18.587-29.906 27.404 54.914 37.294 117.228 69.156 171.906 92.156V358.19c-43.86-24.988-92.103-55.128-142-88.468zm-44.908 39.808c-11.65 9.32-23.694 18.254-36.027 26.846 70.326 45.135 149.328 79.775 222.933 106.375v-33.22c-58.857-24.223-127.098-58.728-186.904-100zm-58.623 52.034-46.187 78.25 7.812 23.593 27.75-11.344zm15.844.812L316.344 467l36.469 10.28-3.534-31.967-84.308-82.938z"/></svg>