<svg xmlns="http://www.w3.org/2000/svg" viewBox="0 0 512 512"><path d="m146.326 6.15 87.813 128.725-60.87-39.916 34.924 62.863L38.561 48.061h-.004c40.207 71.33 82.046 134.912 129.23 191.763L303.94 103.67c-45.163-37.052-96.673-69.324-157.613-97.52zm347.145 9.496L372.982 61.713l-214.59 214.09 13.213 13.215L383.367 77.75l78.078-29.85-29.402 78.56-211.746 211.25 13.213 13.214 214.61-214.106zm-86.295 73.487L147.226 349.08c-11.955-17.32-11.686-40.444.25-57.764l-31.26-31.255c-28.636 34.832-28.586 85.103.169 119.865l-64.05 64.045a22.3 22.3 0 0 0-7.84-1.432c-5.74 0-11.477 2.218-15.91 6.649-8.863 8.864-8.865 22.953 0 31.82 8.865 8.863 22.955 8.863 31.82 0 6.511-6.513 8.233-15.845 5.177-23.854l64.057-64.056c34.788 28.437 85.12 28.65 119.816.203l-31.262-31.26c-17.28 11.84-40.351 11.907-57.68.18l259.878-259.873zm-2.197 117.01L268.186 342.938c55.29 48.056 118.235 90.136 192.464 127.214L398.783 351.41l102.78 68.85-117.75-164.645 86.816 42.908c-20.895-33.04-42.524-63.77-65.65-92.38z"/></svg>