<svg xmlns="http://www.w3.org/2000/svg" viewBox="0 0 512 512"><path d="M310.537 18.758 295.6 74.506a185.3 185.3 0 0 0-39.067-4.156v18.662c11.306.01 22.76 1.187 34.217 3.59l-14.488 54.066a113 113 0 0 1 8.916 2.002c3.11.834 6.152 1.798 9.127 2.873l14.502-54.123a167.2 167.2 0 0 1 31.425 14.006l9.338-16.174a185.3 185.3 0 0 0-35.918-15.912l16.235-60.582zM208.4 76.756a187.15 187.15 0 0 0-83.328 48.182l13.15 13.15c8.15-8.16 17.1-15.427 26.684-21.705l27.936 48.387a112 112 0 0 1 16.19-9.334l-27.948-48.41a167.7 167.7 0 0 1 32.133-12.297zm179.668 48.105-13.154 13.157a167.5 167.5 0 0 1 21.69 26.72l-48.692 28.116a112 112 0 0 1 9.31 16.205l48.725-28.131a167.4 167.4 0 0 1 12.278 32.146l17.97-4.814a187.2 187.2 0 0 0-48.127-83.399zm-292.55 38.573v.002a185.2 185.2 0 0 0-15.885 35.886L18.896 183.05v19.347l55.905 14.977a185 185 0 0 0-4.123 39.025H89.33a167.3 167.3 0 0 1 3.553-34.18l53.847 14.428a113 113 0 0 1 2.057-9.232 113 113 0 0 1 2.762-8.822l-53.844-14.428a167.3 167.3 0 0 1 13.975-31.398zM257.54 183.92q-1.342.002-2.68.059c-30.888 1.26-58.825 22.36-67.23 53.73-10.347 38.61 12.707 78.54 51.316 88.887 38.61 10.345 78.54-12.71 88.885-51.32 10.345-38.608-12.706-78.538-51.314-88.883a72.3 72.3 0 0 0-18.975-2.473zm-.012 18.652.002.004q1.931 0 3.88.139l-5.499 20.377c.9-.072 1.808-.121 2.727-.121a33.4 33.4 0 0 1 15.623 3.855l5.293-19.615c21.288 9.357 34.108 31.357 31.816 54.455l-19.148-5.168.002.055a33.4 33.4 0 0 1-5.178 17.906l19.332 5.215c-9.793 20.695-31.702 32.979-54.574 30.389l5.384-19.96a33.4 33.4 0 0 1-17.74-5.996l-5.59 20.707c-19.83-9.728-31.712-30.68-29.83-52.753l21.055 5.68c-.014-.397-.03-.79-.03-1.19a33.4 33.4 0 0 1 4.587-16.938l-20.881-5.633c8.495-18.616 26.725-30.598 46.775-31.367a58 58 0 0 1 1.994-.04zM423.885 256.4c-.02 11.3-1.188 22.75-3.6 34.2l-54.342-14.56a113 113 0 0 1-2.02 9.022 112 112 0 0 1-2.831 9.02l54.346 14.564a167.3 167.3 0 0 1-14.026 31.399l16.174 9.338a185.3 185.3 0 0 0 15.935-35.89l60.655 16.251v-19.346l-55.807-14.953a185.3 185.3 0 0 0 4.17-39.045zM95.027 299.672l-17.97 4.814a187.2 187.2 0 0 0 48.111 83.278l13.156-13.155a167.6 167.6 0 0 1-21.664-26.67L165.057 320a112 112 0 0 1-9.377-16.168l-48.37 27.928a167.4 167.4 0 0 1-12.283-32.088zm224.963 47.95a112 112 0 0 1-16.176 9.355l28.112 48.691a167.4 167.4 0 0 1-32.112 12.254l4.815 17.965a187.16 187.16 0 0 0 83.34-48.053l-13.153-13.15a167.4 167.4 0 0 1-26.699 21.652zM218.81 361.08l-14.49 54.07a167 167 0 0 1-31.363-13.992l-9.338 16.174a185.2 185.2 0 0 0 35.856 15.9l-16.293 60.8h19.35l14.991-55.96a185.3 185.3 0 0 0 39.01 4.178v-18.674a167.3 167.3 0 0 1-34.164-3.584l14.5-54.11a114 114 0 0 1-9.34-2.077 113 113 0 0 1-8.718-2.725z"/></svg>