<svg xmlns="http://www.w3.org/2000/svg" viewBox="0 0 512 512"><path d="m258.402 36.07-58.396 43.034 12.367 26.898c21.609-16.783 41.868-21.239 58.635-20.559 16.494.668 29.797 6.462 38.199 11.33l7.791-26.63zM137.395 53.742c-12.07 0-21.872 9.8-21.872 21.87 0 10.668 7.657 19.563 17.772 21.484l17.85 49.404a352 352 0 0 1 19.193-11.266L153.953 89.89a21.78 21.78 0 0 0 5.309-14.278c0-12.069-9.8-21.869-21.867-21.869zm132.728 53.563c-12.599-.511-27.567 3.209-43.701 15.502a69.2 69.2 0 0 0-.276 14.158c2.34 28.47 21.258 50.183 42.221 48.463 20.963-1.723 36.082-26.234 33.744-54.703a69 69 0 0 0-2.715-14.375c-5.839-3.573-16.172-8.515-29.273-9.045zm-84.904 49.724c-9.322 5.007-17.753 10.029-25.354 15.016l21.979 16.129a332 332 0 0 0 8.052-18.092zm-44.022 28.451c-39.863 31.67-46.76 59.696-37.04 69.506 10.283 10.38 39.17.369 67.292-47.302zm76.069 16.374c-3.608 8.007-12.84 30.365-17.56 58.978 60.146 40.224-15.946 102.074 106.7 130.938l-29.465 87.203 172.29-1.524c-35.993-74.688 17.633-140.58-71.997-173.816a47.3 47.3 0 0 1-26.875 6.756c-18.357-.908-43.6 2.485-75.617 16.361a21.878 21.878 0 0 1-29.695-26.225c6.477-22.11 25.342-37.843 46.959-47.435 8.395-3.725 17.091-6.535 25.078-8.635l-7.29-41.984c-13.611 21.099-42.965 30.904-66.765 21.707-10.1-3.902-19.322-11.091-25.763-22.324zM334.55 208.2l16.05 52.237s-72.817 6.164-84.558 46.24c36.13-15.66 64.685-19.166 85.4-18.14A25.46 25.46 0 0 0 375.57 251.8c-9.358-19.144-22.811-38.129-41.02-43.6zm-172.883 60.795c-8.7 6.845-16.757 11.107-23.563 13.309-6.753 2.185-12.992 2.966-18.658 2.66a191 191 0 0 1 7.508 9.777c9.205 12.88 15.404 29.803 19.24 48.211 15.504 2.361 29.747 13.24 36.797 33.76 7.07 20.58 5.94 55.423-19.73 102.26h80.326l22.625-70.897c-86.179-32.28-45.826-82.49-73.182-113.058-9.85-11.008-20.714-19.088-31.363-26.022zm-22.934 95.418c-13.164.222-27.255 12.632-31.826 38.217-25.403-35.725-54.08-25.32-59.02-.328-4.94 24.99 13.857 64.56 83.407 87.17 54.322-81.496 32.57-125.483 7.44-125.059z"/></svg>