<svg xmlns="http://www.w3.org/2000/svg" viewBox="0 0 512 512"><path d="M25.004 25v65.086h46.68L117.063 25zm369.93 0 45.378 65.086h46.692V25zM41.662 41.668h43.47L62.983 73.42h-21.32zm158.086 17.244c-13.222-.045-27.864 7.012-42.074 25.33 36.25-15.986 68.078 6.105 59.488 62.92 25.89-11.306 51.78-11.35 77.67 0-8.59-56.815 23.24-78.906 59.49-62.92-28.42-36.636-58.569-28.227-75.619-8.049 4.78 5.911 7.81 13.77 7.81 22.756 0 19.86-14.83 34.213-30.51 34.213s-30.52-14.353-30.52-34.213c0-8.986 3.04-16.845 7.82-22.756-8.53-10.089-20.332-17.236-33.555-17.28zm56.256 22.492c-7.65 0-13.852 7.862-13.852 17.545s6.202 17.547 13.852 17.547c7.64 0 13.85-7.863 13.85-17.547 0-9.683-6.21-17.545-13.85-17.545zm-231 41.364V487h63.6L69.893 122.768zm417.1 0L423.393 487h63.61V122.768zM41.662 139.434h12.4l17 330.896h-29.4zm214.326 15.962c-10.717.008-21.436 2.36-32.156 7.04-.61.268-1.24.495-1.87.685a61 61 0 0 0-.089 3.326c0 25.09 15.29 45.46 34.13 45.46 18.83 0 34.12-20.37 34.12-45.46q0-1.679-.09-3.326-.96-.287-1.89-.695c-10.72-4.7-21.437-7.037-32.155-7.03zm-48.304 11.051-29.461 94.465 43.65-22.414c-14.09-19.37-17.06-44.26-14.19-72.05zm96.629 0c2.88 27.791-.09 52.681-14.19 72.051l43.65 22.414zm-11.96 99.354C365.284 349.56 308.364 487 308.364 487h38.33s27.51-85.24-3.75-195.205zm-73.38 2.763-42.56 21.555c-33.49 143.59 102.17 31.094 131.74 63.549.72-63.167-102.87 11.351-89.18-85.104zm70.275 97.96c-33.484.552-96.106 45.256-121.025 4.867-75.49 36.68-40 115.609-40 115.609h161.9c-35.95-45.77 42.14-71.18 16.83-112.217-3.802-6.163-9.978-8.387-17.705-8.26z"/></svg>