<svg xmlns="http://www.w3.org/2000/svg" viewBox="0 0 512 512"><path d="M252.826 85.162c-12.295 0-22.263 9.973-22.263 22.274 0 6.545 2.824 12.43 7.318 16.505-17.227 3.053-33.424 10.563-48.219 21.565 4.093 1.436 8.62 2.718 13.525 3.775 16.838 3.627 37.551 5.01 57.971 4.408 20.42-.6 40.615-3.183 56.406-7.125 1.224-.305 2.41-.63 3.579-.964-16.056-11.974-33.773-19.82-52.664-22.327a22.2 22.2 0 0 0 6.613-15.834c0-12.3-9.968-22.275-22.264-22.275zm-79.273 74.225c-4.527 4.47-8.882 9.288-13.057 14.412 26.254 9.453 58.836 15.887 94.848 15.887 36.46 0 69.31-5.498 95.36-15.2-4.11-5.09-8.39-9.89-12.845-14.345-4.836 1.703-10.116 3.17-15.765 4.58-17.532 4.375-38.765 7.019-60.375 7.654-21.612.635-43.546-.738-62.47-4.812-9.363-2.015-18.09-4.595-25.696-8.176zm-101.272 1.8C59.951 161 47.277 165.13 37.937 175s-14.996 24.656-16.31 44.53c-1.47 22.041 1.02 38.312 6.969 50.814 5.946 12.502 15.397 20.635 25.31 26.22 9.815 5.526 19.943 9.16 29.502 13.207-1.39-6.85-2.276-14.084-2.644-21.689-6.516-2.555-12.607-4.93-17.701-7.799-7.797-4.392-13.494-9.355-17.592-17.97-4.1-8.615-6.527-21.508-5.192-41.53 1.123-16.975 5.727-27.131 11.221-32.937s12.203-8.097 20.5-7.971c10.355.16 22.67 5.086 33.033 12.23a210 210 0 0 1 10.328-16.054c-12.74-8.877-27.897-14.63-43.08-14.863zm387.881 6.614c-11.768-.228-23.427 4.765-32.387 19.816h.002c-11.343 19.057 10.275 70.747-16.513 78.235-.035-.346-.065-.695-.102-1.041l-.094.927c-17.243-1.76-27.983 2.648-35.297 9.666-7.315 7.02-11.37 17.463-12.076 28.785s2.088 23.25 7.278 31.965c3.395 5.702 7.53 9.915 12.386 12.395l-.322 1.607c28.657 2.568 82.006-3.247 86.131-57.636 3.07-40.457-30.97-111.518 15.564-89.764-3.6-11.372 1.018-19.242 12.096-21.092-9.85-6.638-23.327-13.604-36.664-13.863zM133.69 182.813c-21.276 28.461-34.437 61.034-34.437 97.314 0 43.367 16.458 69.531 44 86.687s67.3 24.375 112.062 24.375c44.76 0 84.658-7.208 112.375-24.375a114 114 0 0 0 4.71-3.087c-7.237-4.373-13.165-10.75-17.487-18.01-7.407-12.44-10.805-27.662-9.869-42.692.938-15.028 6.361-30.138 17.787-41.103 9.998-9.593 24.464-15.388 42.293-15.219.978.01 1.977.056 2.975.102-5.512-23.568-16.519-45.475-30.817-63.834-31.777 16.617-74.14 25.404-121.935 25.404-48.047 0-90.2-10.66-121.657-25.562zm226.194 209.11c-29.715 13.08-65.892 17.954-104.569 17.954-38.47 0-74.38-4.812-103.888-17.738 5.108 11.837 13.502 20.475 24.601 27.234 19.175 11.677 47.392 16.791 79.366 16.791s60.326-5.114 79.628-16.803c11.236-6.803 19.726-15.501 24.864-27.437z"/></svg>