<svg xmlns="http://www.w3.org/2000/svg" viewBox="0 0 512 512"><path d="M170.592 24.852c-5.092 0-9.7 4.124-9.7 9.216v56.237c6.912-2.891 12.67-5.554 18.43-7.858V43.283h138.23v34.305a144 144 0 0 1 18.43 6.334V34.068a9.135 9.135 0 0 0-9.064-9.216zm85.402 62.273C145.722 87.125 56 176.846 56 287.117c0 110.272 89.722 200.031 200.006 200.031S456 397.424 456 287.152l-.012-.033c0-110.284-89.722-199.994-199.994-199.994zm7.6 94.105a106.194 106.194 0 0 1 98.619 105.922l-.024-.035a106.32 106.32 0 0 1-106.171 106.23 106.194 106.194 0 1 1 7.576-212.117zm-7.588 18.159a87.764 87.764 0 1 0 87.764 87.763l-.012-.033a87.87 87.87 0 0 0-87.752-87.73zm.058 22.44c9.215 0 13.626 8.639 16.84 14.974.657 1.314 1.554 3.088 2.303 4.32 1.532-.322 3.582-1.026 4.988-1.475 6.635-2.166 15.723-5.068 22.082 1.291 6.358 6.358 3.434 15.447 1.291 22.082-.449 1.405-1.128 3.49-1.474 4.989 1.233.737 3.005 1.634 4.318 2.303 6.301 3.213 14.977 7.624 14.977 16.84l-.012-.034c0 9.215-8.673 13.628-14.951 16.899-1.313.657-3.088 1.565-4.32 2.302.322 1.532 1.024 3.584 1.474 4.989 2.154 6.635 5.055 15.723-1.303 22.082-6.359 6.358-15.447 3.434-22.082 1.29-1.406-.448-3.49-1.118-4.988-1.476-.737 1.233-1.635 3.007-2.303 4.32-3.214 6.301-7.626 14.977-16.841 14.977s-13.626-8.64-16.84-14.975c-.656-1.314-1.555-3.088-2.303-4.32-1.532.322-3.583 1.015-4.988 1.475-6.635 2.154-15.712 5.056-22.082-1.303-6.37-6.358-3.445-15.447-1.303-22.082.449-1.405 1.128-3.49 1.474-4.986-1.233-.738-3.007-1.637-4.32-2.305-6.3-3.214-14.974-7.626-14.974-16.842 0-9.214 8.638-13.626 14.974-16.84 1.313-.657 3.087-1.555 4.32-2.304-.323-1.532-1.024-3.583-1.474-4.989-2.154-6.635-5.056-15.712 1.303-22.082 6.358-6.37 15.447-3.444 22.082-1.3 1.405.448 3.49 1.13 4.988 1.474.737-1.232 1.635-3.006 2.303-4.32 3.214-6.3 7.625-14.975 16.841-14.975zm-.058 22.495-.414.809c-2.788 5.483-5.668 11.162-11.381 13.535-5.714 2.373-12.304.345-18.006-1.498l-.275-.094.091.278c1.843 5.702 3.918 12.163 1.499 18.003s-8.064 8.594-13.536 11.381l-.806.414.806.416c5.495 2.788 11.163 5.666 13.536 11.38 2.373 5.713.344 12.315-1.499 18.005l-.091.277.275-.093c3.847-1.244 8.063-2.59 12.164-2.59a15.1 15.1 0 0 1 5.842 1.15c5.76 2.373 8.593 8.064 11.38 13.535l.415.807.414-.807c2.788-5.483 5.668-11.163 11.38-13.535 5.715-2.373 12.305-.345 18.007 1.498l.275.092-.092-.275c-1.843-5.702-3.917-12.165-1.498-18.006 2.42-5.84 8.064-8.592 13.535-11.379l.807-.416-.807-.414c-5.494-2.88-11.173-5.762-13.535-11.475v.035c-2.43-5.852-.345-12.312 1.498-18.003l.092-.278-.275.094c-5.702 1.843-12.154 3.928-18.006 1.498-5.851-2.43-8.592-8.064-11.38-13.535z"/></svg>