<svg xmlns="http://www.w3.org/2000/svg" viewBox="0 0 512 512"><path d="M236.28 21.53c-185.645.494-313.788 255.03-99.936 404.845 12.265 23.964 49.66 34.098 104.344 41.656 39.701 5.587 44.827-11.274 37.312-34.31-14.935-45.782-52.38-68.561-120.22-57.094-169.87-136.824-21.47-332.31 133.846-287.531C458.561 137.22 421.335 291.01 343.75 366.529c-70.898 69.013-37.743 124.546 22.094 129 73.38 12.87 137.079-59.02 113.279-115.966 6.166 53.187-90.465 121.6-126.685 82.5-24.154-45.743 72.119-75.862 101.937-163.97C500.43 162.018 442.752 55.69 274.125 24.939c-12.82-2.337-25.45-3.44-37.844-3.407zm22.161 114.439-.003.002-11.657 47.75c-4.155-2.81-8.566-4.92-12.904-5.784-4.027-.804-7.994-1.22-11.781-1.125v.032c-26.51.935-48.895 23.904-48.47 56.094.487 36.781 39.766 78.312 54.655 78.312s24.851-8.215 30.377-13.47c5.422 4.43 12.1 13 29.406 13s51.454-42.493 50.97-79.28c-.488-36.787-26.89-60.97-58.938-53.97-4.586 1.007-9.617 3.024-14.063 6.064l10.565-43.188zM188.063 407a30 30 0 0 1 3.439.25c12.662 1.575 22.752 11.946 23.125 18.97.187 3.513-.982 5.694-3.94 7.78-2.956 2.086-8.01 3.538-14.341 2.75-12.663-1.575-22.752-11.973-23.125-19-.188-3.513 1.008-5.664 3.966-7.75 2.218-1.564 5.588-2.794 9.813-2.97.352-.014.697-.032 1.063-.03z"/></svg>