<svg xmlns="http://www.w3.org/2000/svg" viewBox="0 0 512 512"><path d="m255.674 18.533-.002.002c-71.2 0-127.248 47.1-127.248 102.24 0 25.67 12.008 49.233 32.187 67.452l2.924 2.638 2.14 55.63 57.37-31.026 33.887 54.336 33.298-53.744 55.303 30.271 1.6-54.844 3.025-2.68c20.666-18.305 32.764-41.967 32.764-68.035 0-55.14-56.048-102.24-127.248-102.24zm-79.76 89.14-.002.003c23.366-.295 58.385 18.521 58.385 18.521 0 21.772-17.648 39.422-39.422 39.422s-39.424-17.65-39.424-39.424h.002c.416-13.678 9.05-18.378 20.461-18.521zm159.514.003c11.41.142 20.044 4.843 20.46 18.521 0 21.772-17.65 39.424-39.423 39.424-21.772 0-39.422-17.65-39.422-39.424 0 0 35.02-18.815 58.385-18.521zm-79.756 48.119 20.334 45.416h-40.67zm-39.192 84.469-22.2 12.007c6.822 35.1 2.77 66.832-17.956 98.932-17.857 27.644-63.35 49.009-95.68 28.68-40.015-25.15-11.61-63.597 12.72-39.98-1.514-52.517-48.833-47.87-63.393-16.079-40.502 88.417 95.506 149.847 170.431 82.79.808 41.926 23.872 78.693 72.996 84.695 39.8 4.862 72.772-38.585 22.366-71.606 8.466 37.96-46.156 42.623-46.707-11.58-.213-20.954 10.709-39.111 26.289-52.453 7.443 13.896 16.869 27.636 28.617 41.076C376 479.167 526.479 416.23 484.146 323.822c-14.56-31.79-61.878-36.438-63.392 16.078 24.33-23.616 52.737 14.83 12.723 39.98-32.332 20.33-77.825-1.033-95.682-28.677-20.493-31.74-24.68-63.12-18.178-97.75l-22.828-12.496-39.807 64.248z"/></svg>