<svg xmlns="http://www.w3.org/2000/svg" viewBox="0 0 512 512"><path d="M358.834 61.088c-16.677.158-33.4 3.933-49 12.023-21.366 11.083-40.224 30.343-54.084 58.194-13.86-27.85-32.718-47.112-54.084-58.194-16.42-8.515-34.087-12.25-51.633-12.015-10.528.14-21.012 1.706-31.158 4.525-54.11 15.032-100.2 65.619-97.844 128.217 1.113 29.557 13.892 54.902 32.29 77.162 13.253 16.036 29.444 30.674 46.822 44.813 1.536 62.25 49.414 85.402 96.515 77.097 21.517 19.774 39.698 40.855 50.594 64.686l8.498 18.586 8.498-18.586c10.56-23.096 27.953-43.614 48.604-62.858 38.73.263 70.002-20.92 78.976-63.515 24.636-18.988 48.233-38.3 66.352-60.223 18.398-22.26 31.178-47.606 32.29-77.164 2.355-62.598-43.734-113.184-97.845-128.217-10.99-3.054-22.38-4.64-33.79-4.531zm-208.61 18.668c14.694-.212 29.29 2.917 42.84 9.945 21.678 11.245 41.143 32.585 53.885 68.307l8.799 24.674 8.8-24.674c9.17-25.704 21.82-43.96 36.272-56.367 42.38-32.464 75.47 1.129 81.946 20.152 17.593 51.696-40.659 77.01-90.436 44.572 9.057 34.565 64.325 57.726 109.565 22.453 25.06-19.542 32.273-60.32 18.162-84.765a104 104 0 0 0-6.108-9.39c34.043 19.404 59.445 55.933 57.844 98.47v.002c-.927 24.645-11.312 45.745-28.02 65.96-13.474 16.303-31.076 31.77-50.36 47.14-3.397-32.533-28.867-60.732-72.632-72.633 37.742 25.785 50.994 69.674 29.946 105.433-36.287 27.684-72.58 57.176-94.975 94.815-10.18-17.11-23.244-32.53-37.861-46.87 50.032-19.325 90.572-74.834 60.056-156.552-10.006 99.388-63.496 121.28-116.89 108.82-9.705-7.406-19.412-14.69-28.856-21.955-24.76-19.05-47.766-37.983-64.472-58.2-16.708-20.213-27.093-41.313-28.02-65.958v-.002c-.347-9.22.578-18.155 2.58-26.697 17.608 36.164 46.212 65.828 89.762 86.394 77.033 36.38 147.144-25.855 70.424-93.076 28.247 49.57-4.546 91.677-60.08 49.81-36.166-27.262-56.031-62.257-63.96-101.392 13.265-11.443 28.938-19.96 45.444-24.547 8.68-2.412 17.53-3.741 26.346-3.87z"/></svg>