<svg xmlns="http://www.w3.org/2000/svg" viewBox="0 0 512 512"><path d="M86.248 65.438c-16.887.292-31.978 8.266-43.623 20.53-13.8 14.54-22.687 35-22.687 55.97 0 23.591 10.85 46.488 27.75 60.968-16.63 20.026-23.825 40.488-23.407 58.938.462 20.306 10.221 37.75 24.846 48.5s34.164 14.9 53.654 9.594c18.535-5.046 36.714-18.573 51.033-41.563h102.313v-64.47l-156.313 22.19v42.28H131c-10.582 13.32-22.16 20.545-33.125 23.53-14.113 3.842-27.553.825-37.687-6.624s-16.918-19.23-17.25-33.875c-.312-13.763 5.156-30.42 20.656-48.31 9.81 4.438 20.734 6.304 32.219 4.685l4-.558 185.625-26.346v-39.47h37.53v34.126l18.686-2.654v-31.47h34.282l.003 26.591 18.688-2.625v-23.97h27.937c4 15.144 17.787 26.314 34.188 26.314 19.532 0 35.375-15.843 35.375-35.375s-15.843-35.346-35.375-35.346c-16.19 0-29.804 10.873-34 25.72h-28.125v-20.47l-18.688-2.969v23.44h-34.28v-28.906l-18.688-2.971v31.877h-37.533V94.844l-12.217-1.94L95.81 66.063a56.6 56.6 0 0 0-9.561-.626zm119.94 44.716v.002l-5 21.813 62.218 11.844-82.437 27.56 5-21.812-62.22-11.813zM187.75 297.063v102.593h-40.187v26.471l-78.47 48H39.438v18.685h34.907l2.25-1.375 92.656-56.656h39.594l7.28 39.346H200.78v18.687h54.625v-18.687h-20.28l-7.28-39.346h28.185l92.692 56.658 2.25 1.375h42.81v-18.687h-37.56L275.904 425v-25.344h-41.468l-.467-.279V297.062z"/></svg>