<svg xmlns="http://www.w3.org/2000/svg" viewBox="0 0 512 512"><path d="m157.78 18.72-71.686.56-30 93.158 89.094 38.718-31 120.875 69.562-133.467-79.094-39zm197.533 0 76.468 131.092-86.093 21.438 80.062 184.875-36.812-162.906 83.25-18.875L412.97 19.279zm-99.938.5C223.01 19.22 197 45.26 197 77.624s26.01 58.406 58.375 58.406 58.406-26.039 58.406-58.404-26.04-58.404-58.404-58.404zm-19.154 133.06v14.626h38.308V152.28a76.6 76.6 0 0 1-19.154 2.442 76.6 76.6 0 0 1-19.154-2.442zm-24.377 33.314c-17.463 0-22.313 8.166-22.344 14.625-.03 6.457 4.61 14.53 22.344 14.53h93.75c6.046 0 9.463-1.905 11.875-4.5 2.41-2.597 3.769-6.314 3.779-10.126s-1.326-7.482-3.719-10.062c-2.39-2.58-5.806-4.467-11.935-4.467zm24.375 47.844v12.656h38.31v-12.656zm-68.096 31.343c-6.13 0-9.513 1.891-11.904 4.471-2.393 2.58-3.731 6.25-3.72 10.062.01 3.81 1.368 7.528 3.778 10.125 2.413 2.596 5.8 4.5 11.846 4.5h167.78c17.733 0 22.376-8.074 22.345-14.533-.03-6.458-4.88-14.625-22.344-14.625zm68.096 47.846v14.687h38.308v-14.687zM131.529 346c-6.128 0-9.513 1.92-11.904 4.5s-3.73 6.25-3.72 10.063c.011 3.81 1.37 7.497 3.782 10.093s5.798 4.5 11.844 4.5H372.5c17.733 0 22.375-8.072 22.344-14.529-.032-6.46-4.882-14.627-22.344-14.627zm104.692 47.844v15.125h38.308v-15.125zm-139 33.81v.002c-6.13 0-9.518 1.92-11.909 4.5s-3.728 6.25-3.718 10.063c.01 3.81 1.369 7.496 3.781 10.092s5.797 4.5 11.844 4.5H406.81c17.733 0 22.375-8.072 22.343-14.53-.03-6.46-4.88-14.627-22.343-14.627zm139 47.846v18.53h38.308V475.5z"/></svg>