<svg xmlns="http://www.w3.org/2000/svg" viewBox="0 0 512 512"><path d="M18 18v94.275c28.382-12.57 52.995-35.202 71.39-59.734-4.661-3.466-8.973-7.063-12.865-10.789C68.903 34.453 62.723 26.51 58.973 18zm61.754 0c2.378 3.508 5.41 7.103 9.22 10.75 10.73 10.274 26.505 20.414 44.88 29.117C170.6 75.274 217.8 87 256 87s85.399-11.726 122.146-29.133c18.375-8.703 34.15-18.843 44.88-29.117 3.81-3.647 6.842-7.242 9.22-10.75zm373.273 0c-3.75 8.51-9.93 16.452-17.552 23.75-3.892 3.726-8.203 7.323-12.864 10.79 18.396 24.532 43.009 47.166 71.391 59.735V18zm-82.554 16.734C354.78 52.937 308.428 65.326 256 65.33c-52.242-.023-98.44-12.343-114.236-30.463C168.982 45.655 211.206 51.987 256 52c44.953-.022 87.294-6.408 114.473-17.266zM104.785 62.78C83.37 91.92 53.765 118.414 18 131.787v174.035c2.116.805 4.112 1.18 6 1.18 8.312-.646 12.295-5.132 18.324-9.984 29.568-24.024 49.255-66.27 65.053-119.094 9.187-30.72 17.136-64.911 25.34-100.781a301 301 0 0 1-6.57-3.01c-7.513-3.557-14.67-7.346-21.362-11.35zm302.43 0c-6.693 4.006-13.85 7.796-21.36 11.354a305 305 0 0 1-6.572 3.008c8.204 35.872 16.153 70.063 25.34 100.783 15.798 52.825 35.485 95.07 65.053 119.094 5.414 4.648 11.22 9.89 18.324 9.984 1.888 0 3.884-.375 6-1.18V131.787c-35.764-13.373-65.37-39.87-86.785-69.006zM46.13 317.34C39.234 322.194 31.793 325 24 325c-2.025 0-4.026-.197-6-.564v123.2c6.273 2.01 14.098 3.364 22 3.364 12.41 0 24.636-3.336 30.94-7.316-.04-43.556-.972-88.042-24.81-126.344zm419.738 0c-23.837 38.303-24.768 82.789-24.808 126.345C447.364 447.664 459.59 451 472 451c7.902 0 15.727-1.353 22-3.363v-123.2a33 33 0 0 1-6 .563c-7.792 0-15.233-2.807-22.13-7.66zM88.391 409c.6 13.277.609 26.37.609 39v3.73l-2.637 2.633C75.18 465.545 57.5 469 40 469c-7.475 0-14.98-.636-22-2.232V487h476v-20.232c-7.02 1.596-14.525 2.232-22 2.232-17.5 0-35.18-3.455-46.363-14.637L423 451.73V448c0-12.63.01-25.723.61-39z"/></svg>