<svg xmlns="http://www.w3.org/2000/svg" viewBox="0 0 512 512"><path d="M19.03 19.875v19L75.655 95.5l-48.469 28.125 86.659 12.47-46.94 27.25 88.065 12.686-47.692 27.69 89.5 12.906 3.409 3.404-48.47 28.096 88.126 12.687-47.75 27.72 89.469 12.874.06.065.031-.034 23.125 3.313-28.716 28.72c31.303 19.57 71.2 39.18 100.593 46.874-7.61-31.554-26.336-68.222-46.906-100.563l-15.613 15.207c-16.25-17.246-.465-.608-19.856-20.861l-14.844-103.22-27.716 47.75-12.692-88.126-30.435 52.5-13.97-96.935-27.718 47.75-12.685-88.127-32.442 55.904-81.75-81.75zm371.44 165.596-8.064 36.808c35.057 67.22 63.473 144.41 63.471 215.471v9.344h-9.346c-62.652 0-144.954-28.478-211.78-61.906l-43.5 9.53c89.617 51.747 220.719 102.597 311.813 102.594.005-102.369-48.425-218.02-102.593-311.841zm-14.44 65.904-11.155 50.906c16.02 29.348 28.89 60.251 32.906 88.721l1.75 12.312-12.31-1.75c-25.628-3.615-57.699-16.82-87.658-32.75l-44.875 9.813c57.177 26.034 122.48 46.992 172.22 49.469-2.193-56.77-23.28-119.44-50.877-176.72z"/></svg>