<svg xmlns="http://www.w3.org/2000/svg" viewBox="0 0 512 512"><path d="M302.344 28.514c-2.386 1.354-4.335 3.496-6.274 7.181-2.335 4.438-4.28 10.837-5.94 18.291-3.315 14.91-5.509 33.828-12.097 51.26l-.54 1.43-.981 1.17c-53.308 63.59-92.072 98.36-119.016 148.816l-2.459 4.606-5.22.15s-10.63.323-22.606 2.46c-11.978 2.138-43.226 3.316-46.133 7.017-13.33 16.97-23.48 45.76-25.072 70.46-1.592 24.697 3.872 48.987 16.676 65.569.858 1.11 29.53 4.569 38.22 5.3 8.693.73 16.52.163 16.52.163l6.08-.457 2.678 5.48c14.83 30.325 61.456 50.596 110.937 66.057 4.384.248 11.962-1.82 20.852-6.295-19.818-7.57-35.37-14.031-52.5-23.088l-4.422-2.338-.348-4.99c-.896-12.814 5.672-23.273 13.61-30.256 2.54-2.237 5.24-4.215 7.986-6.037-1.54-.685-3.075-1.382-4.621-2.055l-4.697-2.049-.635-5.086c-1.752-14.04 2.566-27.897 11.664-37.728a39.4 39.4 0 0 1 6.19-5.404l-.231-.102-.438-5.309c-1.313-15.828 8.72-29.44 20.295-39.02a87 87 0 0 1 6.623-4.985l-.91-2.149c-4.49-10.608-2.336-21.784 3.01-29.814 5.35-8.03 13.357-13.656 21.92-16.79l.232-.085.237-.075c16.656-5.077 32.615-1.005 47.755 3.032 15.14 4.036 29.841 8.219 45.14 6.922 9.285 15.502 8.094 12.522 10.49 17.175l-8.965.76c-19.417 1.647-36.481-3.515-51.301-7.467-14.71-3.92-26.832-6.455-37.615-3.263-5.132 1.933-10.21 5.714-12.909 9.77-2.15 3.225-3.06 6.18-2.338 9.75 21.768 9.267 38.373 19.347 57.04 24.798 19.681 5.746 42.49 7.06 79.326-3.035 5.858-2.842 11.614-7.677 15.013-12.945 3.503-5.427 4.636-10.646 2.87-16-6.416-19.43-15.202-36.685-33.028-48.516-40.155-16.703-65.958-16.832-101.275-13.336-.627-5.215-.438-10.644.021-18.09 2.066-15.153 8.846-33.844 16.746-55.096 9.792-26.341 21.692-55.157 30.416-78.892-2.042-19.79-7.619-30.87-15.045-37.3-7.295-6.316-17.56-9.053-30.931-9.563zm-14.53 290.699c-4.52 1.1-10.952 3.758-16.513 8.361-6.763 5.6-11.67 12.988-13.268 18.99 24.578 11.48 43.09 22.944 74.63 33.086l66.919-3.793c11.996-4.2 19.78-8.523 24.07-12.197 4.42-3.79 5.294-6.293 5.452-8.77.265-4.15-3.831-11.11-9.881-18.43-37.514 9.836-63.92 8.561-86.034 2.104-16.627-4.855-30.524-12.223-45.375-19.351zm-25.4 49.408c-6.379.196-11.285 2.924-15.197 7.15-4.27 4.616-6.853 11.328-7.09 18.49 23.313 10.375 45.08 21.137 74.69 30.409l56.538-1.096c21.862-.903 27.79-9.79 28.918-17.853.6-4.28-.492-8.505-2.709-11.721l-67.27 3.814-1.57-.496c-28.61-9.035-47.056-19.094-66.265-28.697zm-9.957 50.936-.002.002c-6.14 3.332-12.053 6.754-16.258 10.453-4.005 3.523-6.403 6.67-7.236 10.69 17.396 8.824 33.934 15.362 57.387 24.161l46.51 1.596c8.014-3.427 12.8-6.69 15.08-9.11 2.44-2.59 2.635-3.796 2.601-5.872-.035-2.12-1.344-5.414-3-9.438l-35.402.686-1.385-.428c-22.878-7.07-41.16-14.99-58.295-22.74z"/></svg>