<svg xmlns="http://www.w3.org/2000/svg" viewBox="0 0 512 512"><path d="M23.094 20.125v.002l.004.002zm.004.004 61.058 57.65-39.877 27.784L127 176.593c3.655-16.907 11.556-32.516 22.688-46.124l-41.375-33.346 26.593-27.812zm473.088 2.935-57.657 61.092L410.75 44.25l-50.437 58.72c14.365 9.26 26.63 20.68 36 33.75l22.875-28.407L447 134.904zM268.344 95.971c-70.046 1.018-124.938 47.627-124.938 102.154 0 25.662 12.01 49.232 32.188 67.438l2.937 2.625.125 3.937 2.375 61.5c4.54 2.58 14.774 7.882 29.75 12.625v-40.72h18.692v45.626c10.157 2.127 21.677 3.707 34.404 4.188v-42.156h18.687v42.03c13.336-.664 25.141-2.53 35.313-4.937v-44.75h18.687v39.25c11.83-4.243 19.825-8.66 23.657-10.967l1.781-60.937.125-4.031 3-2.69c20.67-18.317 32.78-41.972 32.78-67.935 0-55.138-56.05-102.25-127.25-102.25zm-77.344 89h.002c23.367-.294 58.373 18.529 58.373 18.529 0 21.772-17.665 39.438-39.437 39.438-21.79 0-39.407-17.666-39.407-39.438.418-13.68 9.058-18.387 20.469-18.53zm159.375 0C327.008 184.676 292 203.5 292 203.5c0 21.772 17.666 39.438 39.438 39.438s39.408-17.666 39.408-39.438c-.418-13.68-9.059-18.387-20.471-18.53zm-79.752 48.248.002.002 20.344 45.404h-40.69zm108.815 82.31-.002.002.002.002zm0 .004-.688 23.938-.125 4.716-3.906 2.688s-11.47 7.87-31.815 15.156l24.407 20.94-34.217 35.75 160.125 77.717-94.815-88.592 51.28-35.75zM97.594 333.127 19.873 493.189l88.596-94.783 35.75 51.281 67.56-83.873c-28.16-7.978-44.935-18.783-44.935-18.783l-4.096-2.623-.187-4.844-.217-6.03-29 33.75z"/></svg>