<svg xmlns="http://www.w3.org/2000/svg" viewBox="0 0 512 512"><path d="M20.22 21.75v65.5l92 70.625-60.126 58.094 235.656 157.5-83.844-5.846 93.25 76.531-77.562 5.469 113.5 40.656-4.625-69.029h-21.783c0-37.79-.747-91.963 32.5-100-5.097-7.648-8.188-17.65-8.188-28.625 0-23.993 14.784-43.47 33-43.47s32.97 19.475 32.97 43.47c0 11.247-3.24 21.472-8.564 29.188 30.514 8.637 32.875 61.79 32.875 99.437h-22.966l-5.25 69.813 91.906-59.594-49.065 4.375 57.594-105.531-60.154 16.906 57.5-92.815-68.531 28.813 54.216-102.346-72.654 43.065 18.53-123.409-51.717 115.942-71.125-144.033 23 165.062-66.25-52.5 42.468 85.75-120.435-76.97 73.593-54.655L123.188 21.75z"/></svg>