<svg xmlns="http://www.w3.org/2000/svg" viewBox="0 0 512 512"><path d="m373.564 18.404-.002.002c-15.615-.167-27.909 4.622-32.562 14.75-22.778 49.605-48.743 87.14-79.094 117.28a63 63 0 0 1 8.938 3.783c12.987 6.708 25.268 17.78 35.312 30.844 10.044 13.061 17.85 28.114 20.78 43.5.746 3.907 1.16 7.883 1.158 11.841 38.97-24.36 85.058-41.221 140.875-51.31 14.91-2.697 23.651-28.633 21.404-58.656l-35.154-1 30.558-24.815c-4.148-14.507-11.012-28.753-21.154-40.719-15.528-18.314-36.43-31.375-56.72-38.685l-25.964 15.593 2.813-21.5c-3.875-.55-7.61-.87-11.188-.908zM246.937 166.561v.001a14.7 14.7 0 0 0-3 .47c-11.975 10.253-24.609 19.598-37.937 28.28.842.33 1.67.667 2.5 1.032 14.123 6.192 27.439 17.145 38.47 30.625 13.357 16.322 23.62 36.94 25.624 57.75 10.334-10.367 21.24-19.944 32.844-28.72 4.096-6.556 4.93-14.468 3.125-23.938-2.185-11.46-8.643-24.43-17.25-35.625-8.61-11.194-19.38-20.622-29.063-25.625-6.052-3.126-11.154-4.45-15.312-4.25zm-61.906 43.283c-1.385.053-2.69.27-3.969.562-37 20.762-79.086 37.985-127.31 56 .574.042 1.139.094 1.719.156 10.627 1.156 21.077 5.009 31.156 10.875L124.313 261 108.5 293.72c5.995 5.433 11.803 11.478 17.344 18 20.76 24.435 37.964 55.866 47.094 88.092.002.01-.003.022 0 .032 2.98 10.508 5.11 20.916 6.312 31 20.99-48.438 44.38-89.26 72.344-123 7.3-21.48-2.186-48.408-19.063-69.03-9.44-11.538-20.975-20.718-31.53-25.345-5.935-2.604-11.27-3.807-15.97-3.625zm141.625 54.842v.002c-7.31 5.05-14.46 10.51-21.435 16.312 39.16 9.26 60.952 35.722 80.654 62.156 10.464 14.04 20.598 28.11 33.125 40.688 24.19 9.147 43.17 6.38 63.906-14.938-92.165-27.78-96.11-92.61-156.25-104.22zm-278.062 20.22c-10.873.225-18.26 5.755-23.344 16.594-5.81 12.387-7.114 32.47.438 57.063 5.75 18.73 16.52 37.718 28.75 51.625 12.23 13.905 25.9 22.076 35.375 22.406h.03c3.718.13 6.554-.682 8.813-2.75l-.187-.188 2.094-2.094c.793-1.168 1.518-2.548 2.185-4.187 2.81-6.9 3.28-18.552-1.844-33-6.885-19.417-19.12-31.931-33.375-34.78l-22.966-4.564 19.812-12.5 38.47-24.185c-16.65-16.822-34.55-27.608-49.376-29.221-1.7-.184-3.322-.25-4.875-.219zm236.25 5.406-24.53 25.375c100.442 17.878 55.45 141.005 159.309 176.188l-24.78-57.28c32.767 16.15 67.391 22.623 97.721 12.03-135.77-41.948-96.32-126.983-207.72-156.312zm-169.47 38.22-25.968 16.343c13.18 8.5 23.21 22.565 29.125 39.25 2.57 7.244 4.133 14.204 4.75 20.78l23.44-23.374c-8.08-19.19-19.034-37.566-31.344-53zm38.376 72.374-42.062 42-.157-.156c-4.255 3.942-9.455 6.764-15.185 7.938 23.268 14.872 44.642 19.346 56.81 9.562 4.26-3.426 7.044-8.36 8.47-14.406-.41-12.684-2.6-26.616-6.655-40.906-.382-1.346-.807-2.686-1.221-4.032z"/></svg>