<svg xmlns="http://www.w3.org/2000/svg" viewBox="0 0 512 512"><path d="M234.14 91.863a37 37 0 0 0-5.34.248l.01.09c-.433.052-.863.086-1.285.13h-.002c-13.39 2.16-21.5 11.354-24.646 23.769s-.44 27.54 9.547 39.16c9.99 11.62 27.354 20.48 55.79 19.205l12.6-.596-3.117 12.207c-9.385 5.377-17.616 12.364-24.72 20.324 15.527 5.488 31.878 8.408 45.714 9.717-2.974-14.808-.99-29.996 6.932-44.303l15.746 8.72c-6.41 11.571-7.486 22.054-4.603 33.997 2.883 11.945 10.234 25.285 21.361 40.01l-13.459 10.174-.15 16.64c-21.68-.194-51.467-6.877-77.633-23.6-6.053-3.87-11.9-8.32-17.354-13.374-11.782 28.37-13.635 57.464-6.004 70.254 11.11-24.634 27.012-29.252 44.994-32.588-17.13 18.342-28.125 33.785-17.816 51.715 3.96-13.97 38.469-32.305 43.479-25.274 2.426 3.405 5.081 6.54 8.298 9.21 8.34 6.917 18.132 12.052 29.192 15.42l.037-.005 8.34 2.03c-5.805-15.73-8.154-33.626-5.145-53.413l17.797 2.706c-3.344 21.99.81 40.486 9.285 56.04l81.662 19.86c4.41-12.413 9.188-24.877 14.26-37.356a40.6 40.6 0 0 1-15.887 5.053c-22.403 2.292-42.428-14.017-44.72-36.42-2.292-22.4 14.015-42.426 36.418-44.718 20.553-2.103 39.067 11.456 43.758 31.007 8.772-19.053 18.106-38.04 27.841-56.81l-56.24-21.658c-8.008 8.796-14.95 21.628-21.135 38.007l-16.84-6.355c5.648-14.965 12.061-27.965 20.221-38.488l-16.873-6.498c-6.757 8.568-12.732 20.16-18.129 34.457l-16.844-6.358c5.03-13.322 10.668-25.076 17.6-34.924l-5.084-5.002c-2.194-16.02-17.753-27.21-36.896-35.41-6.882-1.782-13.76-1.697-21.245-.088-12.01 2.584-25.53 9.6-40.527 20.356l-10.492-14.625c10.924-7.835 21.527-14.212 32.127-18.565-8.53-2.18-16.54-4.039-23.16-5.695l-2.15-.553-1.684-1.441c-22.453-19.28-40.65-26.079-53.83-26.387zm123.768 77.6h.002c7.553-.037 13.758 5.46 14.547 13.172.842 8.23-4.86 15.26-13.088 16.103-8.228.842-15.263-4.885-16.105-13.115-.842-8.227 4.889-15.232 13.119-16.074v-.004q.77-.08 1.525-.082zm-116.326 51.912a135 135 0 0 0-3.752 6.13c5.653 5.774 11.992 10.764 18.748 15.08 21.657 13.843 47.677 20.033 65.62 20.7-7.163-9.676-13.092-19.14-17.376-28.63-17.95-1.017-41.1-4.503-63.24-13.28zm121.797 15.45c10.08 3.907 15.52 13.43 17.008 22.218s.634 17.725.32 26.44c-.315 8.716-.15 17.062 1.898 23.785 2.05 6.722 5.425 11.945 13.44 16.466l-8.844 15.678c-11.797-6.656-18.7-16.682-21.812-26.894s-3-20.486-2.67-29.682c.332-9.197.82-17.465-.08-22.787-.903-5.324-1.581-6.818-5.766-8.44zm-155.51 30.68c-6.978 5.369-13.82 10.095-20.54 14.272-.037 6.428.314 12.147 1.044 17.24 2.548 17.787 9 28.637 20.025 40.776l-13.324 12.102c-12.446-13.705-21.47-29.047-24.52-50.325-.45-3.152-.768-6.445-.98-9.863a198 198 0 0 1-11.638 5.313c-1.103 14.91-.798 28.72 1.199 41.394 4.15 26.33 15.116 47.86 36.43 66.328l-11.788 13.604c-24.34-21.09-37.726-47.332-42.423-77.13-1.882-11.943-2.417-24.457-1.868-37.54-10.743 3.26-21.227 5.415-31.525 6.844 9.952 57.594 35.397 100.763 73.375 133.67l-11.787 13.605c-41.182-35.683-68.955-83.598-79.502-145.416-12.627.897-25.032 1.028-37.352 1.15 15.65 47.394 39.206 84.183 62.475 112.69l-13.943 11.38C76.184 406.923 50.59 366.644 34.14 314.62v42.818c13.126 50.52 37.505 100.093 65.675 129.643l21.49.002a375 375 0 0 1-8.495-36.289l17.71-3.227a356 356 0 0 0 9.54 39.516c31.29 0 52.603.002 85.35.01-.667-.393-1.353-.782-1.999-1.18-20.464-12.617-30.62-27.875-35.625-40.082l16.654-6.826c3.844 9.375 11.1 20.908 28.418 31.586 10.005 6.168 23.49 11.983 41.588 16.517l89.887.028a347 347 0 0 1-7.836-23.086c-18.242 5.263-35.12 8.87-52.215 8-25.948-1.325-51.094-13.909-78.111-43.934l13.379-12.039c25.086 27.88 44.625 36.921 65.65 37.994 12.102.618 25.143-1.728 39.889-5.646-31.355-6.03-62.652-20.486-89.363-47.768l12.859-12.594c23.715 24.22 51.592 37.161 79.654 42.631-2.182-11.116-3.894-22.669-5.105-34.713-28.958-9.042-57.346-21.712-82.313-36.916.21 6.438 1.007 12.948 1.032 19.012-3.372-4.565-6.83-9.074-9.875-13.869-6.615-11.97-15.55-23.157-18.51-36.771-1.766 3.254-3.335 10.53-4.826 15.318-12.35-9.858-21.156-24.316-23.19-40.076-.67-11.76.18-23.593 2.42-35.172zm78.994 54.466c-7.31 2.355-14.182 6.855-19.824 12.095a26.7 26.7 0 0 0-3.334 5.579c23.016 14.82 50.13 27.301 77.92 36.46-.433-8.41-.63-17.053-.572-25.959-20.188-5.014-40.118-12.377-54.188-28.173zm-74.76 42.687c2.62 11.624 5.228 17.557 8.112 21.072 2.883 3.516 6.75 5.748 14.502 8.952l-6.873 16.634c-8.537-3.527-15.9-7.284-21.547-14.17-5.647-6.885-8.874-15.766-11.752-28.529zM34.142 415.221v71.914c2.916-.023 23.33-.03 41.625-.04-16.245-20.01-30.38-44.875-41.625-71.874z"/></svg>