<svg xmlns="http://www.w3.org/2000/svg" viewBox="0 0 512 512"><path d="M255.656 22.75c-131.173 0-237.72 33.326-237.72 74.344.002 22.39 32.41 42.59 82.564 56.22-17.407-8.91-27.53-19.216-27.53-30.47 0-32.128 81.75-58.53 182.686-58.53s183.25 26.4 183.25 58.53c0 11.194-10.3 21.59-27.529 30.47 49.843-13.627 81.967-33.91 81.967-56.22 0-41.018-106.514-74.344-237.688-74.344zm-108.185 80.344v30.094H363.75v-30.094zm4.373 48.78v210.065h18.687V151.875h-18.685zm39.125.001c.698 61.81 25.326 96.434 52.81 103.813-27.847 7.474-52.776 42.9-52.843 106.25h128.187c-.066-63.353-24.951-98.767-52.78-106.25 27.469-7.386 52.05-41.998 52.75-103.813zm147.935 0v210.064h18.69V151.875zM100.5 360.719l-.008.004.008-.002zm-.008.004c-50.148 13.626-82.554 33.826-82.554 56.214 0 41.018 106.544 74.344 237.718 74.344s237.688-33.325 237.688-74.342c0-22.31-32.126-42.593-81.971-56.22 17.232 8.88 27.533 19.243 27.533 30.437 0 32.13-82.313 58.565-183.25 58.565S72.971 423.282 72.971 391.154c0-11.252 10.12-21.523 27.521-30.431zm46.979 19.902v30.063H363.75v-30.063z"/></svg>