<svg xmlns="http://www.w3.org/2000/svg" viewBox="0 0 512 512"><path d="M190.625 50.123v.002l-16.062 31.97c-26.47-6.542-52.936-15.91-79.407-27.97 4.048 15.106 9.757 28.844 16.813 41.22-13.293-1.35-25.645.808-36.315 6.968-30.07 17.357-39.36 61.959-28.906 115.03-7.755 11.534-14.911 23.72-21.404 36.47 127.87 296.267 344.194 298.2 460.344 0a350 350 0 0 0-20.909-35.75c10.682-53.392 1.428-98.314-28.779-115.75-8.185-4.725-17.332-7.1-27.156-7.344 6.868-12.262 12.456-25.871 16.47-40.846-28.423 13.94-56.83 24.014-85.252 30.44l-16.937-34.44L256.5 92.154zm-90 65.281c3.398 0 6.66.525 9.72 1.5-6.846 2.012-11.845 8.349-11.845 15.846 0 9.115 7.385 16.5 16.5 16.5 7.474 0 13.781-4.966 15.813-11.78a32 32 0 0 1 1.437 9.56c0 17.57-14.056 31.595-31.625 31.595s-31.594-14.024-31.594-31.594c0-17.567 14.031-31.625 31.596-31.625zm312.28 0c3.4 0 6.66.525 9.72 1.5-6.843 2.013-11.844 8.351-11.844 15.846 0 9.115 7.386 16.5 16.5 16.5 7.475 0 13.784-4.966 15.815-11.78.943 3.013 1.435 6.221 1.435 9.56 0 17.57-14.053 31.595-31.623 31.595s-31.594-14.024-31.594-31.594c0-17.567 14.028-31.625 31.594-31.625zM253.188 179.5c5.915.007 11.83.18 17.75.47l9.657 47.718 14.812-45.72c12.51 1.444 24.982 3.507 37.28 6.22l-9.624 46.062 34.657-39.594a347 347 0 0 1 40.935 15l-21.81 32.875 43.656-22.31c17.728 9.406 34.555 20.44 50.125 33.093q-8.725 19.12-18.22 36.125L409 282.217l32.28 25.97c-6.194 9.888-12.583 19.156-19.155 27.811l-39.656-22.25 24.685 40.625a278 278 0 0 1-22.218 22.5L348.564 343l16.032 50.344c-11.668 8.392-23.626 15.267-35.782 20.625l-16.312-42-7.25 50.435a160.6 160.6 0 0 1-34.375 5.625l-11.438-42.373-10.718 42.03c-12.57-1.073-25.132-3.658-37.625-7.686l-6.907-48.03-15.25 39.31c-12.093-5.645-24.062-12.686-35.812-21.124l15-47.156-34.281 31.906c-7.864-6.824-15.596-14.318-23.19-22.437l23.531-38.721-38.529 21.625c-6.953-8.455-13.74-17.5-20.377-27.094l32.377-26.058-44.625 7.404c-7.107-11.416-13.997-23.51-20.625-36.312 14.295-12.626 29.982-23.62 46.69-33l43.435 22.218-21.967-33.125c13.475-6.172 27.485-11.398 41.875-15.656l-1.03.625 34.905 39.875-9.75-46.656a352 352 0 0 1 37.282-6l14.937 46.094 9.69-47.907c4.9-.19 9.8-.284 14.718-.28z"/></svg>