<svg xmlns="http://www.w3.org/2000/svg" viewBox="0 0 512 512"><path d="M136.305 56.2c-26.775.292-51.41 10.03-68.227 26.773-13.807 13.747-26.292 35.934-34.297 61.44-8.004 25.503-11.387 54.328-4.72 80.88l.005.027.008.03C45.8 290.235 20.13 362.874 20.13 435.17v8.314l8.289.655c47.508 3.753 109.387 13.052 155.914 11.496 23.264-.777 42.99-3.654 56.389-14.211 6.698-5.28 11.438-13.13 12.318-22.111.86-8.743-1.512-18.127-6.492-28.481l-28.62-83.646c1.585-17.178 3.775-34.275 5.995-51.463-9.145 3.377-16.63 7.06-21.967 11.062l-3.9 2.924-4.58-1.67c-12.61-4.597-20.84-15.164-25.098-27.4-3.734-10.73-5.053-23.012-5.232-36.28-13.12-4.584-23.606-9.402-31.678-15.394-20.8 68.91-60.375 117.632-21.028 179.625 54.554 51.386 80.943 36.893 118.063 25.111l1.28 3.738.251.516c4.326 8.788 5.518 15.292 5.094 19.602s-1.96 6.904-5.55 9.732c-7.178 5.656-24.08 9.63-45.847 10.357-41.13 1.375-98.234-6.527-145.412-10.652 1.957-65.556 26.012-136.89 8.2-206.08l-.014-.053c-5.527-22.073-2.805-47.94 4.45-71.054 7.261-23.13 19.205-43.5 29.823-54.07C94.2 82.37 115.285 74.112 138.662 74.33q1.13.011 2.27.049c12.555.41 58.063 7.278 72.234 21.35 5.96-3.354 7.456-3.266 10.998-3.643-25.285-23.74-54.804-34.813-82.478-35.813a114 114 0 0 0-5.38-.068zm44.177 46.446c-12.823-.16-21.76 3.08-28.27 7.887-11.576 8.548-17.266 24.19-20.054 41.078-1.45 8.794-.018 13.53 5.84 19.33 5.475 5.42 15.875 11.11 31.682 16.635 21.675-26.59 32.825-53.064 40.363-80.021-11.673-3.32-21.408-4.807-29.56-4.909zm70.465 6.16a255 255 0 0 0-22.94 1.151c-6.934 25.474-17.194 51.582-35.652 77.496 2.252-.22 4.74-.394 7.065-.601 81.102-8.364 151.559-10.427 221.3-4.48a38 38 0 0 1-1.538-2.93c-3.443-7.359-3.7-15.328-1.22-21.903 1.935-5.134 5.1-9.335 9-12.687-10.621-4.517-22.045-8.73-33.964-12.538-43.227-13.812-93.02-22.375-133.746-23.421q-4.239-.108-8.305-.086zm-82 9.018c9.942 0 18 8.133 18 18.166s-8.058 18.168-18 18.168c-9.94 0-18-8.134-18-18.166s8.06-18.166 18-18.166zm278.006 36.399c-5.937 2.13-10.82 6.144-12.148 9.664-.834 2.212-.998 4.343.68 7.926 1.602 3.428 5.304 8.08 12.232 13.265q2.577.294 5.156.604c9.553.886 18.49 1.862 25.852 3.056 4.218.682 7.666 1.417 11.074 2.194.69.112 1.38.214 2.072.328-4.588-8.355-13.121-17.12-25.562-25.596-5.77-3.93-12.27-7.756-19.356-11.441zM345.926 199.46c-4.81-.014-9.648-.01-14.502.01-46.182.195-93.555 2.04-130.904 5.361-6.385.66-12.723 1.296-19.256 2.035.345 11 1.606 20.652 4.113 27.852 2.48 7.122 5.678 11.618 10.424 14.478 29.077-18.78 79.52-26.77 134.98-32.765 45.623-4.93 94.07-7.817 134.903-11.1-4.555-.63-9.095-1.085-13.637-1.643-18.027-1.69-39.86-2.935-63.998-3.6a1733 1733 0 0 0-42.121-.626z"/></svg>