<svg xmlns="http://www.w3.org/2000/svg" viewBox="0 0 512 512"><path d="M169 25v65.2c24.8-40.79 55.195-62.595 87.104-62.225 31.935.37 62.096 22.715 86.896 62.257V25zM90.736 45c3.415 9.407 11.65 19.54 22.664 27.8 11.553 8.667 25.73 14.91 37.6 17.196V45zM361 45.004v44.992c11.87-2.285 26.047-8.53 37.6-17.195 11.014-8.26 19.25-18.39 22.664-27.797zM256.23 53c-26.064 0-47 20.936-47 47s20.936 47 47 47 47-20.936 47-47-20.936-47-47-47zm-63.718 34.17a202 202 0 0 0-8.795 13.46L169 91.8v145.1c24.8-40.79 55.195-62.596 87.104-62.226 31.936.37 62.097 22.716 86.896 62.258V91.66l-14.648 9.082a205 205 0 0 0-8.153-12.174A65 65 0 0 1 321.23 100c0 35.792-29.21 65-65 65s-65-29.208-65-65c0-4.39.445-8.68 1.283-12.83zM90.736 193c3.415 9.407 11.65 19.54 22.664 27.8 11.553 8.667 25.73 14.91 37.6 17.196V193zm270.264.004v44.992c11.87-2.285 26.047-8.53 37.6-17.195 11.014-8.26 19.25-18.39 22.664-27.797zm-169.592 42.445a203 203 0 0 0-7.69 11.881L169 238.498v139.7c16.455-27.06 35.375-45.758 55.56-55.175A64.5 64.5 0 0 1 255.77 315c12.692 0 24.548 3.688 34.576 10.025 19.094 10.035 36.95 28.167 52.654 53.207V238.36l-14.648 9.08a208 208 0 0 0-7.21-10.857 65 65 0 0 1 .088 3.418c0 35.792-29.208 65-65 65-35.79 0-65-29.208-65-65 0-1.53.073-3.048.178-4.55zM90.736 333.82c3.416 9.407 11.65 19.54 22.664 27.8 11.553 8.663 25.73 14.91 37.6 17.196V333.82zm270.264 0v44.996c11.87-2.285 26.047-8.533 37.6-17.197 11.013-8.26 19.248-18.39 22.664-27.799zm-105 1.55c-26.064 0-47 20.934-47 47 0 26.062 20.936 47 47 47s47-20.938 47-47c0-26.066-20.936-47-47-47zm64.7 41.898c.04.906.07 1.813.07 2.728 0 35.792-29.21 65-65 65-35.792 0-65-29.208-65-65 0-.812.03-1.617.06-2.422a207 207 0 0 0-7.113 11.055L169 379.8V455h174v-75.34l-14.648 9.082a208 208 0 0 0-7.65-11.474zM201 473v14h110v-14z"/></svg>