<svg xmlns="http://www.w3.org/2000/svg" viewBox="0 0 512 512"><path d="m256.002 16.455-.002.002c-3.944 0-7.948.71-9.984 1.512-.5.195-.405.171-.62.302l-.005.018s-9.844 37.481-22.8 87.297c18.279 13.215 47.389 13.42 65.991.6l-21.977-87.913c-.218-.13-.124-.11-.62-.304-2.037-.802-6.04-1.514-9.983-1.514zm-52.877 164.383c-2.03 7.883-3.96 15.316-6.004 23.287-4.585 17.886-9.119 35.69-13.539 53.133 53.046 16.998 90.256 17.196 142.922.605l-19.094-76.36q-52.14 23.128-104.283-.665zm-39.16 155.006-.012.05c-4.518 18.528-8.28 34.408-10.896 46.18-1.308 5.886-2.33 10.752-3.008 14.338s-.93 6.52-.93 5.852c0 7.406 2.56 13.51 7.733 19.422 5.17 5.91 13.118 11.357 23.134 15.808 20.032 8.903 48.042 13.71 76.012 13.71s55.982-4.807 76.014-13.71c10.016-4.45 17.963-9.898 23.134-15.808 4.975-5.686 7.472-11.58 7.659-18.61l-16.537-66.148c-55.62 33.65-127.023 33.288-182.303-1.084zm212.248 46.648 4.666 18.664v1.108c0 11.906-4.685 22.7-12.188 31.275-7.502 8.573-17.659 15.197-29.369 20.402-23.424 10.41-53.354 15.26-83.324 15.26s-59.898-4.85-83.32-15.26c-11.712-5.205-21.871-11.83-29.371-20.404-7.504-8.575-12.188-19.37-12.188-31.275 0-3.082.503-5.28 1.24-9.19.525-2.778 1.262-6.291 2.09-10.136L49.891 411.12 256 497.004l206.11-85.881z"/></svg>