<svg xmlns="http://www.w3.org/2000/svg" viewBox="0 0 512 512"><path d="M403.313 41.625c-1.108 0-2.24.017-3.344.063-30.174 1.247-56.499 23.386-71.721 55.906-29.436-20.315-63.811-25.884-91.312-12.125-22.492 11.25-38.904 33.384-42.688 60.844 10.962-4.476 21.618-7.179 31.75-8.44 4.333-11.497 12.952-19.848 24-25.375 20.797-10.404 49.765-8.922 72.656 13.97l18.625 18.626 6.534-25.156c8.722-32.558 30.745-47.524 53.093-48.44 22.346-.927 45.983 11.666 54.971 43.781 12.795 45.728-29.201 82.441-57.908 123.125h-95.19c-23.612-9.383-45.98-18.687-60.966-34.25-7.368-2.142-14.748-2.199-22.594.221-3.735 1.15-7.64 2.92-11.692 5.436 16.42 28.053 44.661 45.766 74.846 61.062.43.218.85.44 1.28.656a743 743 0 0 0 10.126 5c.89.434 1.764.883 2.659 1.315 2.396 1.155 4.788 2.293 7.185 3.437 14.53 6.938 28.999 13.736 42.315 21.25 17.27 9.75 36.245 28.403 50 48.815 4.14-23.795 6.27-45.762 19.875-66.5 35.98-54.857 86.96-108.22 68.029-178.875-11.262-42.03-46.238-64.319-80.53-64.346zm-298.754 77.654.004.002c-34.293.028-69.27 22.318-80.532 64.346C5.101 254.28 56.052 307.643 92.03 362.5c13.605 20.74 15.738 42.706 19.877 66.5 13.755-20.412 32.728-39.065 50-48.812 44.413-25.066 101.483-42.218 131.875-82.875-17.71-8.498-33.891-16.467-55.404-30.157H72.625c-16.633-23.38-28.21-47.227-20.656-74.22 8.705-31.11 31.164-43.916 52.875-43.842.7.002 1.395.033 2.094.062 22.346.916 44.399 15.88 53.123 48.438l6.5 25.156 18.658-18.625c22.89-22.892 51.857-24.404 72.654-14 8.082 4.043 14.844 9.614 19.594 16.813 12.327 6.814 23.973 11.22 35.967 15.687-4.12-26.854-20.396-48.43-42.53-59.5-27.5-13.76-61.847-8.22-91.283 12.094-15.222-32.52-41.577-54.627-71.75-55.875a78 78 0 0 0-3.312-.065zm292.847 264.627c-6.496 53.84-30.488 46.801-30.97 80.721-.208 15.372 14.203 28.062 32.064 28.062 17.86 0 32.594-12.683 32.594-28.062 0-34.092-26.52-27.089-33.688-80.72z"/></svg>