<svg xmlns="http://www.w3.org/2000/svg" viewBox="0 0 512 512"><path d="M173.438 56.625c-24.197.254-51.41 8.524-76.125 23.875C56.04 106.135 22.91 150.185 21.5 204.813c23.035 23.152 37.247 53.802 48.72 86.312 37.777-75.574 103.61-112.37 154.28-109.22-12.233-36.11-9.912-77.263-10.344-115.967-10.255-5.718-22.525-8.79-35.906-9.25-1.585-.055-3.2-.081-4.812-.063zm42.78 144c-36.992 1.83-87.634 28.563-121.218 84.094 25.173 56.788 58.682 115.636 94.688 155.25 30.953-10.902 72.793-30.752 113.093-54.408-19.64-45.728-15.746-92.129 1.596-128.813-9.745.435-18.836-.524-27.315-2.904-2.767-.777-5.443-1.727-8.06-2.781l.375.656c-5.122 2.997-12.67 10.256-18.815 19.029-6.143 8.773-11.073 19.095-12.75 27.688l-18.341-3.563c2.4-12.312 8.459-24.392 15.779-34.844 5.023-7.17 10.564-13.568 16.438-18.56-5.982-4.3-11.545-9.33-16.688-15.031-19.934 9.051-40.193 31.397-43.312 50.156l-18.438-3.065c4.4-26.468 25.81-49.991 49.938-62.154-2.39-3.44-4.696-7.03-6.97-10.75zm185.813 2.78c-.733.001-1.483.005-2.217.032-11.748.45-23.438 4.37-34.625 11.063-44.48 26.61-76.574 99.088-42.72 169.563l7.25 7.25-10.25 6.156c-46.5 27.946-95.11 51.026-130.75 62.529l12.345 17.875c92.26-33.88 212.587-103.56 290.842-165.78-13.427-54.602-34.913-85.3-57.06-99-10.753-6.653-21.795-9.702-32.815-9.689z"/></svg>