<svg xmlns="http://www.w3.org/2000/svg" viewBox="0 0 512 512"><path d="M302.938 103.787c-23.987-.107-49.665 9.404-71.407 31.096-48.334 50.449-60.164 116.385-37.379 194.633 21.796-78.993 53.341-198.239 136.471-154.493l-9.123 12.061c30.507 6.372 54.31 12.258 86.596 28.725-.523-38.412-8.753-65.834-34.053-98.596l-9.846 13.191c-14.977-16.782-37.273-26.51-61.26-26.617zm-3.987 17.387c10.942-.013 21.9 3.616 32.992 12.084l7.52-8.201c16.57 12.638 43.556 44.235 50.14 60.67-17.065-9.68-55.53-27.887-75.624-30.309l8.496-11.486c-54.848-22.2-116.854 54.451-126.016 134.734-8.795-44.906 29.853-120.103 54.25-137.832 16.294-11.84 32.25-19.64 48.242-19.66zm32.692 144.482v.387l-.293-.102-54.805 156.497h-127.36c-19.124-50.288-37.918-104.646-56.076-156.499-31.168-.21-48.537-.277-66.423-.265.113 66.096-.09 114.682-.09 174.828H493.63c-.108-58.181-.068-116.532-.068-174.814v-.03h-24.29l-6.08 7.47 9.514 32.185c-11.608-4.645-21.012-7.901-31.424-12.043l-27.78 18.97 1.794-33.52-17.031-13.064c-23.55-.024-46.218.005-66.623 0zM26.609 468.014c-1.07 6.018-.398 11.989 0 18.03h467.006v-18.03z"/></svg>