<svg xmlns="http://www.w3.org/2000/svg" viewBox="0 0 512 512"><path d="M260.264 25.742c-8.315 14.136-16.582 27.34-26.84 38.324 5.71 12.268 7.027 27.05 3.213 42.352-3.693 14.814-12.695 30.46-27.719 40.926-9.218 6.42-20.751 10.58-33.996 11.13q.065.06.13.124c27.868 26.39 78.488 49.25 114.93 47.94 10.39-19.973 13.76-42.98 12.362-66.872-2.45-41.87-20.68-85.56-42.08-113.924zm23.716 1.393c19.65 30.595 34.641 70.914 37.012 111.44 2.66 45.48-11.685 92.05-54.666 120.991 1.223 9.13 3.523 17.57 6.736 25.375 22.875-34.893 65.887-63.474 104.381-74.92 10.695-3.18 21.206-5.137 31.012-5.109s18.907 2.04 26.785 6.795c7.878 4.756 13.97 12.582 16.83 22.352 2.86 9.768 2.828 21.296.067 34.882l-18.31-3.718c2.345-11.547 2.02-20.09.316-25.916-1.706-5.828-4.452-9.124-8.557-11.602-4.036-2.437-9.94-3.76-17.111-3.822-12.096 13.07-15.27 25.72-14.276 37.42 1.096 12.875 7.968 24.906 15.947 32.611 11.34 10.95 23.725 14.675 34.97 13.004 11.245-1.67 21.882-8.786 29.368-22.531 24.563-45.1 19.074-91.64-6.992-133.953-9.293 6.84-21.606 8.166-33.426 5.629-13.45-2.89-27.08-10.563-38.736-22.22-11.656-11.655-19.33-25.287-22.22-38.736-2.23-10.387-1.46-21.146 3.396-29.91-27.773-16.383-59.201-29.51-92.526-38.062zM180.97 50.939a60 60 0 0 0-2.884.004c-48.596 1.21-84.842 26.388-108.606 66.162 9.294 5.014 15.782 14.355 19.21 24.977 4.222 13.09 4.393 28.734.126 44.656S76.582 216.124 66.38 225.35c-8.232 7.442-18.452 12.268-28.943 12.023-1.164 34.632 3.09 71.276 13.115 107.172 16.673-32.315 44.094-65.456 78.004-87.772 24.683-16.244 53.345-26.529 83.142-25.54 15.342.507 30.983 4.02 46.54 11.228 7.485-5.286 13.874-11.147 19.288-17.477-41.196-2.897-86.57-25.595-115.322-52.822-16.203-15.344-27.795-32.496-27.435-50.896.18-9.2 3.909-18.39 10.939-25.75s17.032-13.097 30.182-17.498l5.93 17.716c-11.175 3.742-18.407 8.295-22.6 12.686-4.195 4.39-5.679 8.418-5.772 13.21-.093 4.716 1.713 10.486 5.246 16.73 17.366 3.941 29.907.365 39.543-6.348 10.602-7.386 17.59-19.352 20.272-30.116 3.813-15.296.843-27.887-6.227-36.79-6.627-8.346-17.13-13.834-31.31-14.167zm227.641 15.745c-5.963-.177-10.496 1.516-13.517 4.537-4.027 4.028-5.696 10.746-3.717 19.96 1.978 9.213 7.814 20.1 17.162 29.448 9.347 9.35 20.234 15.187 29.447 17.166 9.214 1.978 15.931.31 19.961-3.72 4.027-4.028 5.694-10.744 3.715-19.958-1.978-9.214-7.816-20.101-17.164-29.449s-20.235-15.186-29.45-17.164c-2.301-.495-4.448-.762-6.435-.82zM54.502 131.93q-.555-.017-1.12.01c-4.52.211-9.569 2.474-14.812 7.214-6.99 6.32-13.5 16.82-16.922 29.59-3.42 12.77-3.032 25.116-.138 34.084 2.893 8.968 7.695 13.952 13.197 15.426 5.503 1.474 12.153-.44 19.143-6.76s13.5-16.818 16.92-29.588c3.423-12.77 3.035-25.117.142-34.086s-7.696-13.95-13.2-15.425a13.8 13.8 0 0 0-3.208-.465zm328.443 95.95c-.059.017-.114.03-.174.048-36.98 10.996-82.37 43.684-99.25 76.066 12.05 17.176 29.273 30.43 49.256 40.46 37.487 18.812 84.44 24.873 119.703 20.523-7.524-13.278-14.367-26.116-18.814-39.416-12.88-1.562-25.655-7.736-36.498-18.206-10.983-10.606-20.03-26.224-21.582-44.47-.952-11.192 1.213-23.257 7.36-35.004zm-180.84 21.827c-22.198 1.154-43.528 9.677-63.28 22.676-35.059 23.072-63.794 60.737-77.65 93.467 14.809.116 29 .547 42.376 3.12 7.655-12.19 20.409-21.6 36.594-26.24 14.675-4.21 32.722-4.237 49.298 3.54 10.17 4.773 19.536 12.68 26.635 23.878.014-.06.03-.114.045-.173 8.617-36.06 3.77-88.86-14.018-120.268zm21.67 1.28c16.844 36.824 19.482 85.827 10.52 123.33-5.187 21.702-14.243 40.32-30.36 49.208-8.056 4.445-17.881 5.81-27.77 3.403-9.89-2.408-19.857-8.202-30.243-17.387l12.377-13.994c8.826 7.806 16.388 11.792 22.287 13.228 5.9 1.437 10.126.708 14.324-1.609 4.13-2.276 8.227-6.725 11.867-12.906-5.27-17.01-14.64-26.084-25.271-31.072-11.697-5.49-25.552-5.557-36.215-2.499-15.153 4.346-24.57 13.21-28.746 23.786-4.175 10.574-3.33 23.34 4.83 36.697 28.356 46.408 74.963 64.433 128.37 60.46-.31-.855-.59-1.726-.83-2.62-3.497-13.046 1.72-26.303 10.946-36.506s22.69-18.17 38.612-22.438c7.96-2.133 15.853-3.159 23.39-3.12 7.538.035 14.72 1.136 21.266 3.247 11.163 3.6 20.894 10.593 25.691 20.66 24.98-15.106 48.997-33.987 70.59-56.04-36.322 1.72-78.734-5.455-115.015-23.665-39.46-19.804-71.826-53.955-77.04-103.1-7.917-3.42-15.786-5.725-23.58-7.064zm98.004 184.689-.002.002c-5.804-.032-12.08.724-18.466 2.435-12.77 3.422-23.27 9.932-29.59 16.922s-8.233 13.64-6.76 19.143c1.475 5.502 6.459 10.304 15.428 13.197 8.968 2.893 21.316 3.282 34.086-.14 12.77-3.42 23.267-9.93 29.587-16.92s8.235-13.64 6.76-19.143-6.458-10.305-15.426-13.2c-4.485-1.445-9.813-2.265-15.617-2.296z"/></svg>