<svg xmlns="http://www.w3.org/2000/svg" viewBox="0 0 512 512"><path d="M258.375 21.156c-44.557.187-87.24 7.376-118.562 21L138.03 58.25h25.656v18.688H136l-2.125 19.406h29.813v18.687h-31.875l-38.72 352.875 123.345 24.815 34.156-262.846h-13.906v-97.748h-15.749v-17.098h-38.56V96.346h38.562V76.937H182.38V58.25h38.562V41.53h90.938v16.72h33.03v18.688h-33.03v19.406h33.03v18.687h-33.03v17.096h-56.5v79.062h27.404v18.688h-11.558l34.25 263.75h.216l129.063-26.281-38.72-352.315H363.6V96.346H394l-2.156-19.407h-28.25V58.25h26.22l-1.783-16.094c-38.697-14.308-85.097-21.17-129.654-21zm-18.75 39.06v17.472h34.938v18.685h-34.938v17.064h53.563v-53.22z"/></svg>