<svg xmlns="http://www.w3.org/2000/svg" viewBox="0 0 512 512"><path d="M287.47 17.875c-1.621.018-3.236.07-4.845.125-15.446.536-30.323 2.833-43.937 7.094-26.41 8.265-48.071 23.24-61.438 47.5 11.49 69.086 46.45 120.194 96.156 139.687 50.016 19.615 117.096 8.368 195.438-53.935l3.094-2.44c1.901-7.267 2.57-14.334 2.187-21.219-.42.165-.825.35-1.25.5-12.885 4.56-28 3.186-42.344-4.03-28.69-14.434-46.109-46.83-38.404-75.75a45 45 0 0 1 5-11.75c-11.286-5.664-23.34-10.55-35.815-14.468-24.031-7.55-49.535-11.576-73.841-11.312zm-146.908 6.06-.001.003c-20.984.39-41.16 9.736-56.125 24.875C65.48 67.989 54.529 95.85 61.127 126.72c15.332-15.432 35.2-26.62 58.094-31.565l4.75-3.279 35.123-24.408c6.266-12.178 14.29-22.64 23.656-31.44-13.916-8.734-28.277-12.35-42.187-12.093zm294.124 17.721c-3.366.035-6.496.61-9.282 1.594-7.432 2.62-12.815 7.95-15.218 16.97-4.81 18.056 7.733 43.677 28.75 54.25 10.51 5.286 20.308 5.713 27.718 3.093 7.41-2.623 12.78-7.97 15.188-17 4.81-18.057-7.726-43.657-28.72-54.22-5.23-2.63-10.307-4.088-15-4.53a33 33 0 0 0-3.436-.157zM303.846 55.75c19.023-.023 36.437 11.03 40.343 29.188 4.606 21.421-11.99 41.562-34.658 46.437-22.666 4.875-46.08-6.67-50.685-28.094-4.607-21.42 11.99-41.561 34.656-46.435 2.833-.61 5.68-.955 8.5-1.065.617-.023 1.23-.029 1.844-.029zm1.06 18.656a32 32 0 0 0-7.467.72c-14.388 3.094-22.416 14.58-20.343 24.218 2.072 9.638 14.113 16.844 28.5 13.75s22.383-14.612 20.31-24.25c-1.7-7.906-10.094-14.154-21-14.438zm-143.593 14.28-19.625 13.626c24.336 43.933 26.24 90.73 9.97 125.5-16.11 34.423-51.513 56.117-95.877 48.907l-2.873 12.779c38.52 7.824 58.506 28.87 64.313 53.25 5.81 24.394-.47 50.087-7.25 70.846l11.656 12.529c17.256-76.23 69.967-112.335 119.719-107.969 51.093 4.484 96.243 51.531 94.718 128.221l12.657-2c-2.215-64.055 5.03-113.256 24.623-152.687 19.614-39.48 51.56-68.532 95.812-92.784l-1.875-15.875c-76.438 56.238-146.204 68.024-200.685 46.659-53.834-21.11-90.858-73.528-105.282-141zm-35.186 24.033c-30.82 5.572-54.65 24.148-68.19 49.375-14.34 26.72-17.052 60.963-2.341 95.625 39.084 7.96 65.64-8.93 79.156-37.815 13.116-28.027 12.411-68.269-8.625-107.185zm347.152 105.154c-39.428 22.37-66.17 47.877-83.185 82.125-18.283 36.797-25.43 84.51-22.53 150.125 15.19-.46 30.058-4.782 44.155-12.25 23.675-12.543 44.86-34.123 59.717-60.53 26.14-46.46 32.764-106.86 1.843-159.47zm-267.373 8.594v.002c9.153-.055 17.655 2.295 24.594 6.904 9.252 6.146 15.406 16.71 15.406 28.625 0 23.803-20.81 43.78-46.094 48.25-12.633 2.234-24.684.087-33.937-6.062-9.253-6.148-15.375-16.704-15.375-28.625 0-23.84 20.798-43.782 46.063-48.25a55.6 55.6 0 0 1 9.343-.844zm.063 18.687c-1.95.01-4.006.182-6.156.563-17.21 3.042-30.625 17.93-30.625 29.844 0 5.956 2.417 9.995 7.029 13.06 4.613 3.065 11.743 4.74 20.345 3.22 17.188-3.04 30.625-18.01 30.625-29.845 0-5.947-2.42-9.997-7.033-13.062-3.46-2.298-8.336-3.81-14.185-3.78zm-165.94 60.94c-6.08 4.882-10.801 11.12-14.308 18.22-7.026 14.21-8.612 32.002-4.442 47.686s13.702 29 28.784 36.125c10.39 4.908 23.81 7.031 40.75 4.188 6.893-20.296 12.884-45.627 8.218-65.22-4.718-19.8-18.064-35.643-58.625-40.937l-.343-.062zM231.596 336.5c-40.026.7-82.537 32.44-94.25 106.406 11.802 19.927 34.678 37.116 62.406 45.221 37.307 10.903 81.57 5.79 117.062-29.533l.157-1.971c6.08-76.347-34.24-116.067-77.25-119.842a78 78 0 0 0-8.127-.279z"/></svg>