<svg xmlns="http://www.w3.org/2000/svg" viewBox="0 0 512 512"><path d="M205.361 49.537c-15.867 19.005-28.39 48.132-39.488 73.393-11.93-16.218-24.672-32.052-41.172-46.098 15.568 25.842 17.773 51.193 28.035 77.094-17.84-14.584-39.392-25.487-64.162-33.79 21.037 14.94 33.77 31.531 45.715 50.157-30.948 16.73-46.247 47.692-66.486 75.992-11.118-13.549-20.631-28.163-27.68-47.664 1.485 28.14 6.877 53.49 11.469 68.48 4.59 14.992 3.818 18.709 2.02 19.356-9.65-14.243-16.357-29.495-29.716-43.803 3.282 26.95 15.325 41.296 20.604 60.371-4.905 9.376-8.399 1.866-19.957-7.236 1.912 11.572 12.614 27.236 12.52 40.367-1.373 28.952 5.953 39.675 30.224 43.965 36.178 6.97 59.993 14.477 64.572 20.375 2.29 3.753 5.037 13.404 5.953 22.518 2.29 24.663 22.898 30.56 118.15 32.168 43.964.536 90.214 3.218 102.579 5.363 21.524 3.753 22.897 3.218 34.346-12.867 10.075-13.94 16.486-17.696 37.093-21.45 27.935-4.29 45.797-13.402 45.797-23.59-5.324-10.811-14.226-16.438-24.006-21.384-2.207.596-4.183 1.31-6.18 2.043-23.004 8.894-41.12 26.06-62.32 34.355-16.53 5.821 1.743 16.57-24.73 13.403-13.43-4.255-36.605 11.138-49.965 15.855l-5.875-17.014c.44-.152 4.064-1.801 9.285-4.253.526-12.01.254-22.902-.644-32.848-9.08-13.521-24.01-27.445-35.904-21.258-6.412 3.753-4.806 13.68-3.432 17.969 2.407 12.522-15.653.64-16.043 11.525 0 3.217-4.123 10.187-9.16 15.55-10.533 10.185-21.437 3.593-14.11-26.43 8.701-36.459 43.684-47.3 62.918-26.926 6.331 6.486 10.356 3.88 10.659-.498a182 182 0 0 0-6.647-20.795l-11.512 4.492c-6.892-19.52-13.4-41.263-11.16-57.852l.7-4.633 4.197-2.085c43.814-21.76 91.053-39.01 137.716-50.317-7.333-21.903-18.344-46.194-30.396-52.357-16.88-8.631-46.033-19.451-64.965-21.338 11.543-20.58 17.61-41.535 33.533-61.446-14.553 9.802-26.694 21.416-38.23 33.48 3.08-18.147 5.064-36.012 13.096-54.91-12.73 14.91-22.118 31.09-30.813 47.538-6.73-15.507-14.26-30.788-24.615-45.258 5.894 18 6.73 34.687 8.017 51.567-31.938.026-70.784-9.861-96.904 1.86 2.712-26.93 5.275-57.918 17.074-81.136zm9.942 95.451c10.242-.01 20.155 4.589 15.472 17.526-14.86 41.06-45.065 8.319-49.01 38.086-1.252 20.96 13.54 27.806-5.497 31.634-17.26 3.463-44.75-3.794-47.955 13.54-5.63 23.76 14.015 35.158 41.681 34.964 22.946 3.035 31.983 41.861 20.48 62.926-1.372 1.608-4.12-3.754-5.953-11.26-8.847-24.87-26.902-37.821-43.044-19.3-8.701 10.187-13.957 9.25-13.957-.4 0-11.26-16.268-42.493-23.137-42.493-21.248 13.468-20.583 60.366-43.637 63.824-9.973 1.495-2.337-11.433 4.176-23.861 6.512-12.43 11.6-22.907 11.86-30.76 16.787-44.943 85.809-133.833 138.52-134.426zm140.287 43.944a90 90 0 0 1 12.568.857c-17.639 4.004-108.586 74.903-112.195 70.772-8.124-8.14 37.787-71.525 99.627-71.63zm117.463 29.648c-14.44 19.03-11.195 54.97-15.864 77.178-1.456-.693-3.12-1.302-4.521-1.778.902 19.875 2.43 40.19-.586 63.239 10.85-11.677 39.307-25.028 29.506-42.98 1.913-20.556-1.661-37.304 6.516-60.018-8.958 11.807-11.896 20.009-18.06 28.611-1.836-17.86-3.444-46.327 3.009-64.252zm-38.371 27.072c-44.992 10.578-97.79 29.46-140.381 50.198-.496 9.027 1.518 17.849 4.533 27.068l142.979-55.566c-.93-7.648-1.74-17.165-7.131-21.7zm-.094 45.047-28.35 10.936c.58 26.518 2.38 53.496.826 81.037 9.155-2.912 17.713-5.96 23.975-10.746 6.933-29.604 4.554-54.35 3.549-81.227zm-96.746 36.422c-7.218 2.605-14.334 5.488-21.48 8.277 8.235 21.45 14.305 48.237 13.745 83.297 7.214-2.2 13.549-4.9 18.766-8.523-2.796-29.236-3.857-58.892-11.031-83.05z"/></svg>