<svg xmlns="http://www.w3.org/2000/svg" viewBox="0 0 512 512"><path d="M258.406 25.03c-13.73 0-44.75 28.13-44.75 62.814 0 31.578 6.432 55.835 16.5 70.937-23.144 3.766-44.236 12.52-61.03 27.315a99 99 0 0 0-8.5 8.468c-38.334-36.232-115.216 13.034-136.999 39.282-19.604 23.618 58.394 26.618 110.717 16.75-1.837 9.754-2.813 20.261-2.813 31.529 0 39.603 11.68 76.215 31.156 104.281-42.684 4.89-61.914 64.206-61.091 90.44.912 29.105 77-17.718 105.5-49.375 8.82 4.862 18.197 8.497 28 10.75 4.822 14.255 10.524 28.393 23.31 41.654 13.732-13.89 18.764-27.77 23.281-41.656 9.815-2.253 19.204-5.883 28.034-10.75 28.498 31.656 104.587 78.48 105.5 49.375.822-26.234-18.411-85.552-61.096-90.44 19.477-28.066 31.156-64.679 31.156-104.279 0-11.27-.974-21.777-2.81-31.531 52.322 9.868 130.32 6.868 110.717-16.75-21.784-26.248-98.667-75.513-137-39.281a99 99 0 0 0-8.5-8.47c-16.86-14.854-38.057-23.605-61.311-27.345 10.232-15.31 16.78-39.815 16.78-70.904 0-34.683-31.019-62.815-44.75-62.815zm0 150.25c20.22 0 38.787 3.425 54.563 10.532l-26.346 31.97h-56.437l-26.342-31.97c15.775-7.107 34.338-10.53 54.56-10.53zm-70.937 20.033 25.75 31.25-29.97 44.03-4.28 6.28 5.31 5.47 36.532 37.626-23.313 28.435-5.28 6.44 5.78 6 27.125 28 13.44-13-21.344-22.031 21.53-26.22h39.312l21.53 26.22-21.343 22.03 13.438 13 27.125-28 5.78-6-5.28-6.439L296 319.971l36.563-37.627 5.25-5.438-4.22-6.279-29.718-44.377 25.5-30.937a84 84 0 0 1 5.97 4.78c19.107 16.833 31.25 42.762 31.25 82.03 0 78.538-49.7 140.065-108.19 140.065-58.487 0-108.186-61.526-108.186-140.063 0-39.27 12.14-65.2 31.25-82.03a83 83 0 0 1 6-4.782zm41.594 41.156h59.156l25.654 38.25-33.187 34.185h-44.563L203 274.78l26.063-38.308z"/></svg>