<svg xmlns="http://www.w3.org/2000/svg" viewBox="0 0 512 512"><path d="M380.412 26.416 21 374.77l121.646 121.648L491 137.006c-44.235-66.353-44.235-66.354-110.588-110.59zm-.691 22.81 22.117 22.118-12.44 12.44-22.119-22.118zm-22.809 27.33c4.503 0 9.006 1.72 12.442 5.155 6.87 6.87 6.87 18.012 0 24.883-6.871 6.87-18.012 6.87-24.883 0-6.871-6.871-6.871-18.012 0-24.883a17.54 17.54 0 0 1 12.441-5.154zm-33.178 33.178a17.54 17.54 0 0 1 12.442 5.153c6.872 6.87 6.872 18.012 0 24.883-6.87 6.87-18.01 6.87-24.881 0s-6.871-18.012 0-24.883a17.54 17.54 0 0 1 12.44-5.153zm66.354 0a17.54 17.54 0 0 1 12.441 5.153c6.871 6.87 6.871 18.012 0 24.883-6.87 6.87-18.01 6.87-24.883 0-6.87-6.87-6.87-18.012 0-24.883a17.54 17.54 0 0 1 12.442-5.153zm55.986 5.844 22.117 22.117-12.441 12.442-22.117-22.117zM290.56 142.91c4.502 0 9.005 1.718 12.441 5.153 6.871 6.87 6.871 18.011 0 24.882-6.871 6.87-18.012 6.87-24.883 0s-6.87-18.012 0-24.882a17.54 17.54 0 0 1 12.442-5.153zm66.353 0c4.503 0 9.006 1.718 12.442 5.153 6.87 6.87 6.87 18.011 0 24.882-6.871 6.87-18.012 6.87-24.883 0s-6.871-18.012 0-24.882a17.54 17.54 0 0 1 12.441-5.153zm66.352 0c4.502 0 9.005 1.718 12.441 5.153 6.871 6.87 6.871 18.011 0 24.882-6.87 6.87-18.01 6.87-24.88 0-6.873-6.87-6.873-18.012 0-24.882a17.54 17.54 0 0 1 12.439-5.153zm-168.647 31.418 24.883 24.883-44.234 44.234-24.883-24.882zm69.117 1.758c4.503 0 9.006 1.719 12.442 5.154 6.872 6.87 6.872 18.01 0 24.881-6.87 6.871-18.01 6.871-24.881 0-6.871-6.87-6.871-18.01 0-24.88a17.54 17.54 0 0 1 12.44-5.155zm66.354 0a17.54 17.54 0 0 1 12.441 5.154c6.871 6.87 6.871 18.01 0 24.881-6.87 6.871-18.01 6.871-24.883 0-6.87-6.87-6.87-18.01 0-24.88a17.54 17.54 0 0 1 12.442-5.155zm-33.176 33.178c4.503 0 9.006 1.717 12.442 5.152 6.87 6.871 6.87 18.012 0 24.883-6.871 6.87-18.012 6.87-24.883 0-6.871-6.871-6.871-18.012 0-24.883a17.54 17.54 0 0 1 12.441-5.152zm-38.707 28.652 24.883 24.883-44.234 44.234-24.883-24.88zm-123.531 12.23v41.038a24.8 24.8 0 0 1 17.594 0v-41.038c13.503 1.83 26.522 7.884 36.82 18.182s16.353 23.317 18.182 36.82h-41.036a24.8 24.8 0 0 1 0 17.594h41.036c-1.83 13.503-7.882 26.523-18.18 36.82-10.3 10.3-23.32 16.352-36.822 18.182V336.71a24.8 24.8 0 0 1-17.594 0v41.035c-13.503-1.83-26.522-7.883-36.82-18.182-10.298-10.297-16.353-23.317-18.182-36.82h41.035a24.8 24.8 0 0 1 0-17.594h-41.035c1.83-13.503 7.883-26.523 18.18-36.82 10.3-10.3 23.32-16.353 36.822-18.182zM76.984 351.961l22.12 22.117-12.442 12.442-22.117-22.118zm33.178 33.176 22.117 22.119-12.44 12.44-22.118-22.118zm33.176 33.176 22.117 22.119-12.44 12.44-22.119-22.116z"/></svg>