<svg xmlns="http://www.w3.org/2000/svg" viewBox="0 0 512 512"><path d="m176.527 19.469.002.002c-.53-.004-1.056.013-1.591.029a45 45 0 0 0-1.72.094c-15.292 1.038-31.655 9.986-45.28 31.75-27.477 43.885-28.525 97.68-5.844 136.28 15.093 25.689 40.417 45.188 76.875 51.157.894-6.55 2.75-12.81 5.467-18.594-11.405-12.326-18.01-26.24-20.25-41.06-4.746-31.38 8.785-64.321 29.03-95.031 8.495-12.884 9.45-24.52 6.345-34.657-3.106-10.14-10.73-18.925-20.813-24.25-6.647-3.51-14.248-5.674-22.22-5.72zm198.067 29.75v.002c-37.07.05-71.842 14.555-94.53 39.308-21.288 23.225-32.634 55.357-25.377 94.877a65 65 0 0 1 8.344-.562c2.248 0 4.468.118 6.658.344 8.678-17.88 21.283-30.383 36.688-37.782 28.608-13.74 64.078-10.444 99.375-.094 14.806 4.343 26.218 1.85 35-4.093 8.782-5.944 14.927-15.83 17.062-27.031 4.268-22.407-6.07-49.402-45.75-60.034-12.503-3.35-25.113-4.952-37.47-4.935zM261.688 77.813c-8.663 0-17.196.691-25.5 1.966-1.764 4.902-4.185 9.804-7.344 14.596-18.915 28.69-29.82 57.914-26.188 81.938 1.497 9.9 5.29 19.32 12.28 28.062a65.2 65.2 0 0 1 21.908-15.937c-8.33-44.56 3.543-83.071 27.72-110.594-.962-.017-1.912-.03-2.877-.03zm89.25 77.31a117 117 0 0 0-3.032.031c-12.502.25-23.856 2.492-33.437 7.094-10.745 5.16-19.894 13.199-26.658 25.565a65 65 0 0 1 19.187 12.375c23.372-13.382 47.3-19.122 70.096-18.409 13.43.422 26.462 3.096 38.75 7.721 1.19.448 2.355.924 3.529 1.406a165 165 0 0 0-11.312-25.875 72 72 0 0 1-7.563-1.78c-17.39-5.099-34.275-8.04-49.562-8.124zm-247.5 37.441a165.4 165.4 0 0 0-6.75 29.528 69.4 69.4 0 0 1 10.937 10.47c22.13 26.29 47.062 45.03 71.125 48.375 8.972 1.246 18.1.6 27.438-2.658a64.2 64.2 0 0 1-7.063-20.779c-43.162-6.468-74.965-29.445-93.156-60.406a126 126 0 0 1-2.531-4.53zm266.97 7.557-.002.002c-.9.016-1.813.055-2.72.096-15.917.71-32.435 5.25-48.998 14.435a64.3 64.3 0 0 1 7.468 18.97c15.995 2.597 29.417 9.17 40.156 19 23.413 21.424 33.575 55.574 37.125 92.187 1.49 15.36 8.058 25.003 16.844 30.937 8.788 5.934 20.25 7.946 31.44 5.75 22.38-4.39 43.58-24.057 38.656-64.844-6.206-51.403-39.197-93.918-81.096-109.687-12.274-4.62-25.349-7.09-38.873-6.846zM263.03 201.53c-25.51 0-46 20.49-46 46 0 25.513 20.49 46 46 46 25.513 0 45.971-20.487 45.971-46 0-25.51-20.458-46-45.97-46zM61.906 228.656c-10.602.097-21.182 4.942-29.154 13.096-15.944 16.31-22.249 44.513 4.937 75.312 34.262 38.815 85.547 55.12 129 44.342 27.786-6.89 52.807-24.44 69-55.31a65 65 0 0 1-18.093-12.657c-13.844 6.054-27.786 7.923-41.407 6.03-31.435-4.367-59.187-26.732-82.875-54.873-9.937-11.804-20.806-16.036-31.408-15.94zm265.565 23.815c-.617 8.075-2.706 15.76-6.034 22.75 31.313 28.636 44.904 64.465 43.344 99.623 0 .03.003.062 0 .094a167.3 167.3 0 0 0 21.346-20.157 72 72 0 0 1-1.281-8.185c-3.318-34.205-13.236-63.788-31.159-80.19-7.17-6.563-15.72-11.448-26.216-13.935zm-16.409 38.25a65.2 65.2 0 0 1-16 12.935c2.4 15.863.274 30.532-5.687 43.688-13.1 28.91-42.393 49.194-76.094 63.937-14.135 6.186-21.241 15.401-24.154 25.596s-1.31 21.73 4.25 31.687c11.12 19.912 36.413 33.97 73.654 16.625 46.935-21.86 77.08-66.429 79.065-111.158 1.294-29.18-8.88-58.735-35.03-83.308zm-33.591 19.84a64.3 64.3 0 0 1-14.442 1.656c-3.22 0-6.37-.26-9.466-.72-18.668 37.096-48.75 59.724-82.375 68.064-1.625.402-3.27.786-4.907 1.125a166.2 166.2 0 0 0 31.815 17.435 72 72 0 0 1 7.718-3.969c31.48-13.772 56.534-32.368 66.561-54.5 3.994-8.81 5.966-18.405 5.096-29.091z"/></svg>