<svg xmlns="http://www.w3.org/2000/svg" viewBox="0 0 512 512"><path d="M128.844 16.313c-1.26.01-2.52.042-3.75.093-19.69.814-35.63 6.786-46.625 17.782-21.992 21.99-23.815 63.782-4.721 115.687s58.57 112.161 113.69 167.28 115.375 94.596 167.279 113.69c51.906 19.093 93.73 17.27 115.72-4.72s23.779-63.782 4.686-115.687c-19.094-51.905-58.538-112.196-113.654-167.313-55.118-55.117-115.41-94.561-167.315-113.654-24.33-8.952-46.418-13.318-65.31-13.158zm34.97 52.156c45.347-.48 113.94 35.971 175.155 97.185 76.95 76.95 114.751 165.567 89.279 205-16.348-55.695-56.743-120.148-115.437-178.843C254.13 133.127 189.69 92.729 134 76.377c8.06-5.202 18.167-7.784 29.813-7.906zM42.72 70.029 31.78 80.971c-10.986 10.987-16.852 26.348-17.685 46.058-.834 19.712 3.62 43.481 13.219 69.377 19.194 51.796 58.747 111.967 113.843 167.065 55.097 55.096 115.267 94.646 167.063 113.842 25.896 9.6 49.664 14.05 69.375 13.218 19.71-.834 35.074-6.701 46.06-17.687l10.971-10.971c-25.293 3.142-55.018-1.975-86.346-13.5-55.3-20.342-117.29-61.23-174.058-118-56.77-56.768-97.658-118.727-118-174.03-11.516-31.301-16.626-61.025-13.5-86.312zm77.215 21.877h.002c52.77 13.2 119.523 52.99 179.656 113.125 60.133 60.136 99.926 126.892 113.125 179.657-41.025 21.153-126.707-16.641-201.408-91.342-74.715-74.716-112.55-160.426-91.375-201.44z"/></svg>