<svg xmlns="http://www.w3.org/2000/svg" viewBox="0 0 512 512"><path d="M194.53 19.656 181.47 62.25l27.624 6.563 19.5-17.5-34.063-31.657zm125.94.063-32.626 30.344 20.656 19.5 25.625-5.409-13.654-44.433zm-64.94 59.404a174.2 174.2 0 0 0-42.467 5.94c-93.08 24.94-148.474 120.885-123.532 213.966 7.604 28.38 21.825 53.249 40.531 73.409.176.252.355.498.532.75l.094-.063c42.67 45.493 108.4 66.657 172.78 49.406C396.552 397.591 451.943 301.677 427 208.596 406.735 132.965 339.605 82.24 265.22 79.25c-3.22-.13-6.448-.175-9.69-.125zm-170.06 3.44L95.439 126l27.216-8.156 8.125-24.875zm344.03.187-43.47 9.97 8.158 27.218 24.875 8.124zM258.781 97.748l-.002.002c1.93.004 3.865.05 5.784.125 66.472 2.61 126.234 47.86 144.375 115.563 22.326 83.324-26.957 168.735-110.282 191.062-57.286 15.35-115.544-3.167-153.625-43.312l-.03-.032c-7.721-11.214-13.965-23.47-18.405-36.312-24.473-70.782 10.59-153.698 82.935-178.5 60.946-20.893 132.181 9.025 153.221 70.75 17.63 51.725-8.105 112.282-60.938 130.125-44.026 14.868-95.41-6.861-110.343-51.375-12.367-36.86 6.034-79.956 43.625-92.44 30.914-10.267 66.95 5.036 77.218 36.19 8.03 24.378-3.386 52.731-27.127 62.435 10.773-10.378 15.782-26.176 11.659-41.558-5.275-19.686-23.815-32.463-43.44-31.315-2.803.164-5.656.59-8.469 1.344-22.493 6.028-35.963 29.41-29.935 51.906a42 42 0 0 0 2.75 7.406c.022.053.04.106.062.157q.106.218.217.435c11.972 26.708 41.877 39.625 69.877 30.5 36.25-11.814 53.642-52.3 42.156-87.156-13.713-41.614-60.582-61.476-100.875-48.094-47.955 15.927-70.97 69.85-55.437 116.157 18.427 54.927 80.65 81.132 134.062 63.093 63.153-21.328 93.476-92.667 72.625-153.843-19.966-58.576-77.885-92.291-136.625-89.938a142 142 0 0 0-40.343 7.531c-56.145 19.25-92.421 68.7-101.22 123.594.603-68.348 46.355-130.556 115.655-149.125 13.67-3.663 27.38-5.402 40.875-5.375zm-191.904 80.19-44.44 13.625 30.344 32.656 19.5-20.656zm382.904.812-6.558 27.625 17.5 19.5 31.685-34.062-42.625-13.063zm-193.154 69c10.227.247 19.356 7.11 22.156 17.563 3.415 12.74-3.98 25.586-16.717 29-11.147 2.986-22.386-2.31-27.312-12.22a45 45 0 0 1-1.281-3.468l-.125.03a24 24 0 0 1-.315-1.092c-3.412-12.74 4.013-25.587 16.75-29a24.5 24.5 0 0 1 4.783-.782c.69-.042 1.38-.045 2.063-.03zM54.029 283.47 22.377 317.5l42.594 13.094 6.558-27.656zm407.94 1.657-19.498 20.654 5.404 25.625 44.438-13.654zM95.686 381.25l-10.407 45.344 43.442-9.971-8.159-27.217-24.874-8.156zm323.625 2.094-27.217 8.125L384 416.373l45.313 10.406-10-43.435zM206.28 439.75l-25.627 5.406 13.625 44.438 32.659-30.344zm99.373.75-19.5 17.5 34.065 31.688 13.092-42.625z"/></svg>