<svg xmlns="http://www.w3.org/2000/svg" viewBox="0 0 512 512"><path d="M494 20 304.887 143.357c16.494 14.608 32.743 22.57 44.963 36.97zM298.346 93.594c-12.58.436-26.59 4.983-38.047 11.77-7.64 4.522-14.116 9.97-18.305 15.142-4.19 5.173-5.788 9.832-5.646 12.668l.283 5.73-5.076 2.676C133.713 193.16 80.945 250.727 18 310.594V494h166.047c6.145-15.424 12.724-33.898 15.086-47.535 1.728-9.977-2.784-21.807-8.23-35.244-5.445-13.436-11.85-28.705-7.63-45.422 3.49-13.827 14.375-25.752 24.096-35.656 4.45-4.534 8.71-8.464 12.074-11.446-6.558-8.577-14.064-20.315-16.51-34.894l17.75-2.979c2.68 15.976 15.204 28.533 22.801 39.24l-.324.23c10.54 14.635 18.893 28.397 30.72 37.548 13.359 10.337 31.484 16.388 66.526 11.488l6.658-.932 2.784 6.125c6.96 15.322 14.37 23.89 21.013 28.422 6.643 4.535 12.632 5.461 18.694 4.791 12.125-1.34 24.29-10.973 27.76-14.263 4.13-3.92 9.657-9.477 13.32-16.125 3.347-6.076 5.071-12.687 3.478-20.744-42.68-37.562-69.592-108.75-90.256-152.6-9.245-19.62-35.785-34.491-52.966-47.95-2.427-1.4-2.676-2.582-3.24-5.154-4.216-19.167 3.188-40.257 10.974-57.298-.096.002-.185-.01-.28-.006zm-129.973 28.49c-37.286-.562-75.364 6.672-109.021 14.467 17.863 4.925 37.775 9.664 57.406 14.814 14.803 3.883 29.26 7.935 42.406 12.766 17.914-12.178 37.407-24.123 59.072-35.77-16.13-4.156-32.915-6.022-49.863-6.277zM88.09 162.676c-23.002 4.133-45.974 10.254-67.147 16.662 18.133 3.813 38.298 7.314 58.207 11.242 11.774 2.323 23.337 4.766 34.256 7.643a687 687 0 0 1 27.403-21.15c-9.044-2.933-18.71-5.698-28.62-8.298-7.952-2.086-16.042-4.097-24.1-6.1zm-40.65 40.263c-9.876 2.096-19.728 4.583-29.44 7.291v18.04a2251 2251 0 0 1 20.172 3.146c10.505 1.7 20.847 3.498 30.734 5.625 8.836-8.185 17.887-16.321 27.268-24.396a587 587 0 0 0-20.508-4.405c-9.32-1.838-18.81-3.565-28.227-5.299zM304 224c8.837 0 16 7.163 16 16s-7.163 16-16 16-16-7.163-16-16 7.163-16 16-16zM18 246.512v26.58c4.16.195 8.28.426 12.342.71 7.44-7.2 14.878-14.384 22.387-21.538a605 605 0 0 0-17.432-3.078A1502 1502 0 0 0 18 246.512z"/></svg>