<svg xmlns="http://www.w3.org/2000/svg" viewBox="0 0 512 512"><path d="M256 18v29h238V18zm-208 .002-9.404 19.053-21.03 3.056 15.217 14.832-3.594 20.948 18.813-9.893 18.807 9.89-3.592-20.945L78.434 40.11l-21.032-3.054zm80 0-9.404 19.053-21.032 3.056 15.217 14.832-3.59 20.948L128 65.996l18.807 9.89-3.592-20.945 15.217-14.832-21.03-3.054zm80 0-9.404 19.053-21.032 3.056 15.217 14.832-3.59 20.948L208 65.996l18.807 9.89-3.592-20.945 15.217-14.832-21.03-3.054zm-39.406 54.385v.002l.002-.002zm0 .002-9.405 19.05-21.027 3.057 15.217 14.832-3.594 20.945 18.81-9.89 18.807 9.89-3.59-20.945 15.215-14.832-21.03-3.057zm-79.996 1.996-9.405 19.054-21.03 3.057 15.218 14.832-3.594 20.945 18.81-9.89 18.807 9.89-3.59-20.945 15.215-14.832L98 93.44zM256 81v30h238V81zM48 130.004l-9.404 19.053-21.03 3.056 15.217 14.832-3.592 20.946L48.004 178l18.807 9.89-3.594-20.945 15.217-14.832-21.032-3.056zm80 0-9.404 19.053-21.032 3.056 15.217 14.832-3.59 20.946L128 178l18.807 9.89-3.592-20.945 15.217-14.832-21.03-3.056zm80 0-9.404 19.053-21.032 3.056 15.217 14.832-3.59 20.946L208 178l18.807 9.89-3.592-20.945 15.217-14.832-21.03-3.056zM256 145v30h238v-30zM88.598 186.385l-9.405 19.054-21.03 3.055 15.218 14.832-3.594 20.945 18.81-9.888 18.807 9.888-3.59-20.945 15.215-14.832L98 205.44zm79.998.002-9.405 19.052-21.029 3.055 15.219 14.832-3.594 20.945 18.81-9.888 18.807 9.888-3.59-20.945 15.215-14.832-21.033-3.056zM256 209v30h238v-30zM18 273v30h476v-30zm0 64v30h476v-30zm0 64v30h476v-30zm0 64v29h476v-29z"/></svg>