<svg xmlns="http://www.w3.org/2000/svg" viewBox="0 0 512 512"><path d="M241.404 16a21.837 20.757 0 0 0-22.468 20.75 21.846 20.765 0 0 0 43.691 0A21.837 20.757 0 0 0 241.407 16zM286 52.594a13.866 13.18 0 0 0-14.125 13.312 13.875 13.188 0 0 0 27.75 0A13.866 13.18 0 0 0 286 52.594zM166 92.72l15.125 24.623v307.5C181.125 464.27 214.523 496 256 496s74.875-31.73 74.875-71.156v-307.5L346 92.72zM197.906 125h116.188v108H197.906zm85.594 71.375a13.866 13.18 0 0 0-14.125 13.313 13.866 13.18 0 1 0 27.72 0 13.866 13.18 0 0 0-13.595-13.313zm-52.47 64.47h.001c7.66.002 13.844 5.909 13.844 13.186 0 7.28-6.186 13.19-13.844 13.19-7.656 0-13.875-5.91-13.875-13.19 0-7.277 6.217-13.184 13.873-13.185zm44.97 21.59c12.06 0 21.844 9.287 21.844 20.75 0 11.464-9.784 20.75-21.844 20.75s-21.844-9.284-21.844-20.75c0-11.463 9.784-20.75 21.844-20.75z"/></svg>