<svg xmlns="http://www.w3.org/2000/svg" viewBox="0 0 512 512"><path d="M256 52.098c-18.38 16.053-47.184 33.518-77.79 49.72-31.428 16.64-63.92 31.224-88.325 39.985 1.978 11.276 8.624 32.908 19.18 58.363 12.598 30.386 29.991 66.674 48.845 101.404 18.854 34.731 39.218 67.959 57.514 92.11 9.148 12.075 17.812 21.879 25.164 28.322 7.35 6.443 13.412 8.861 15.412 8.861s8.06-2.418 15.412-8.861 16.016-16.247 25.164-28.322c18.296-24.151 38.66-57.379 57.514-92.11 18.854-34.73 36.246-71.018 48.846-101.404 10.554-25.455 17.2-47.087 19.18-58.363-24.407-8.761-56.897-23.345-88.327-39.985-30.604-16.202-59.41-33.667-77.789-49.72zm-132.025 9.716c-31.98 15.99-64.158 31.922-96.032 48.016L23 112.326v5.537c0 11 4.335 26.468 10.46 44.848 6.128 18.38 14.22 38.64 22.49 55.178l16.1-8.05c-7.73-15.462-15.638-35.2-21.51-52.821-4.532-13.591-7.698-26.391-8.933-33.895 29.99-15.11 60.25-30.124 90.418-45.209zm264.05 0-8.05 16.1c30.169 15.085 60.429 30.1 90.418 45.21-1.234 7.502-4.402 20.303-8.932 33.894-5.874 17.62-13.78 37.358-21.512 52.822l16.102 8.049c8.268-16.537 16.362-36.8 22.488-55.178C484.666 144.33 489 128.863 489 117.863v-5.537l-4.943-2.496c-31.874-16.094-64.053-32.026-96.032-48.016zM256 98.186l6.777 7.755c7.366 8.43 27.708 20.13 49.31 29.832 21.606 9.702 44.603 18.144 59.12 23.682l5.793 2.21v6.198c0 6.305-1.831 12.916-4.621 21.258s-6.69 18.084-11.389 28.78c-9.396 21.388-21.982 46.542-35.078 70.706s-26.675 47.295-38.152 64.67c-5.74 8.688-10.92 15.916-15.477 21.313-2.278 2.698-4.372 4.938-6.594 6.808-2.22 1.87-4.282 3.976-9.265 4.211l-.424.02-.424-.02c-4.983-.235-7.044-2.34-9.265-4.21s-4.316-4.11-6.594-6.81c-4.556-5.395-9.738-12.624-15.477-21.312-11.477-17.375-25.056-40.505-38.152-64.67S160.406 239.29 151.01 217.9c-4.698-10.694-8.599-20.437-11.389-28.779S135 174.168 135 167.863v-6.199l5.793-2.209c14.517-5.538 37.514-13.98 59.12-23.682 21.602-9.702 41.944-21.402 49.31-29.832zm0 26.154c-12.288 10.56-30.065 19.48-48.713 27.853-19.6 8.803-38.986 16.077-53.34 21.506a103 103 0 0 0 2.744 9.713c2.523 7.542 6.246 16.888 10.8 27.25 9.102 20.724 21.517 45.56 34.421 69.37 12.904 23.808 26.325 46.638 37.348 63.325 5.51 8.344 10.455 15.172 14.21 19.622 1.074 1.27 1.707 1.816 2.53 2.654.823-.838 1.456-1.384 2.53-2.654 3.755-4.45 8.7-11.278 14.21-19.622 11.023-16.687 24.444-39.516 37.348-63.326s25.318-48.645 34.422-69.369c4.552-10.362 8.276-19.708 10.799-27.25a103 103 0 0 0 2.744-9.713c-14.354-5.429-33.74-12.703-53.34-21.506-18.648-8.374-36.425-17.292-48.713-27.853zm-56.896 303.998-14.208 11.05s9.676 12.468 22.915 25.01 29.456 26.465 48.189 26.465 34.95-13.922 48.19-26.465c13.237-12.542 22.914-25.01 22.914-25.01l-14.208-11.05s-8.991 11.534-21.085 22.992-27.878 21.533-35.811 21.533-23.717-10.075-35.81-21.533c-12.096-11.458-21.086-22.992-21.086-22.992z"/></svg>