<svg xmlns="http://www.w3.org/2000/svg" viewBox="0 0 512 512"><path d="M243.563 38c-4.573.03-9.013.158-13.282.406-60.02 3.488-90.837 25.7-102 47.75-10.96 21.652-4.583 43.744 14.22 55.688 24.608 4.865 43.248 13.396 56.595 23.75 16.655-11.283 36.728-17.906 58.31-17.906.345 0 .69-.004 1.031 0 .128-25.1-7.24-49.853-26.341-68.25L245.064 66c23.964 23.083 32.516 53.65 32 83.563 21.826 4.184 41.28 15.19 55.998 30.718 21.47-4.24 48.327-5.662 81.282-2.935 22.53-6.344 32.215-16.127 35-26.532 2.842-10.62-1.268-24.84-13.471-40.158-24.402-30.633-79.4-62.201-147.03-69.935-16.483-1.893-31.564-2.807-45.279-2.721zm-109.72 120.594.407.812c10.11 21.25 20.207 36.504 29.375 47.03a104.8 104.8 0 0 1 20.563-28.624c-10.848-7.5-26.204-14.147-47.25-18.062l-1.657-.312-1.435-.844zm-39.53 1.625c-3.047-.018-6.205.287-9.438.935-13.425 2.69-27.935 11.422-39.562 26.532-23.255 30.226-35.361 86.201-3.094 167.939 24.787 62.864 73.113 102.806 113.06 114.219 19.975 5.706 37.26 4.27 49-3.156 11.436-7.233 19.149-20.418 19.565-43.375-15.82-34.955-24.59-63.757-28-87.284-14.43-10.597-26.05-24.794-33.5-41.279-31.368 11.772-55.317 29.418-64.5 51.594l-17.25-7.156c12.153-29.345 40.482-49.57 75.56-62.375-1.96-7.976-3-16.306-3-24.875a104 104 0 0 1 3.221-25.782c-12.575-12.194-25.397-30.61-38.096-56.906-6.636-5.958-14.827-8.98-23.966-9.03zm163.093 6.154c-22.844 0-43.522 8.897-58.844 23.406 26.816 11.658 47.623 28.702 60.72 48.442 8.45-12.424 20.872-20.971 35-24.971 7.01-1.984 14.44-2.917 22.062-2.812 5.557.077 11.23.71 16.937 1.875-14.258-27.334-42.82-45.938-75.875-45.938zm123.407 28.281c-1.155.007-2.307.013-3.438.032-11.63.2-22.046 1.06-31.344 2.408a103.6 103.6 0 0 1 13.69 34.81c14.055-8.13 29.656-19.694 46.406-35.56l.78-.72c-7.886-.533-15.48-.895-22.593-.97a227 227 0 0 0-3.5 0zM185.97 204.781c-8.912 13.508-14.127 29.708-14.127 47.158 0 39.034 25.912 71.838 61.53 82.188 22.611-20.06 27.404-43.996 19.282-67.625-8.272-24.066-31.301-47.78-66.685-61.72zm249.34 1.72a38.24 38.24 0 0 0-17.561 4.5c-20.052 18.818-38.875 32.21-56.094 41.188a103.6 103.6 0 0 1-13.156 50.375c19.783 16.692 36.69 37.342 43.906 63.282l-18 5c-5.632-20.25-19.64-37.64-36.75-52.438-12.015 14.49-27.856 25.672-45.97 32-3.397 20.358-12 43.13-27.467 67.625-5.88 22.9-2.46 38.35 5.529 48.375 8.12 10.188 22.108 15.964 40.72 15.815 37.224-.3 90.415-25.737 130.78-80.25 52.39-70.696 55.61-125.824 41.656-158.721-10.361-24.433-29.398-36.964-47.591-36.75zm-121.438 22.626c-5.134.1-10.003.82-14.498 2.094-13.703 3.878-24.05 12.529-29.5 26.875l-.437-.157c.308.817.623 1.645.906 2.467 8.87 25.802 4.485 54.117-14.406 77.096.488.008.978.03 1.468.03 47.37 0 85.563-38.21 85.563-85.593 0-6.2-.665-12.242-1.908-18.062-8.617-3.077-17.07-4.633-24.967-4.75a69 69 0 0 0-2.219 0zm-96.592 119.03c4.124 18.421 11.451 40.516 23.125 66.47 1.747.238 3.486.443 5.25.625.248-1.032.504-2.08.781-3.125l.375-1.406.784-1.219c12.833-20 20.368-38.191 24.125-54.281-4.685.646-9.457 1-14.315 1a103.6 103.6 0 0 1-40.125-8.065z"/></svg>