<svg xmlns="http://www.w3.org/2000/svg" viewBox="0 0 512 512"><path d="m272.498 18.902.002.004c-12.775.17-26.23 2.553-40.344 7.594-30.165 55.31-68.314 120.904-125.72 178.5-21.19 21.26-39.23 44.94-52.28 68.313 1.294 6.311 4.985 11.65 10.721 17.406 10.992 11.032 30.859 21.618 54.592 33.25 46.313 22.695 107.285 50.39 146.375 108.467l195.625.033c-20.198-70.834-100.277-101.122-159.065-83.942-.073.03-.145.067-.22.096-1.61.633-3.27 1.138-4.967 1.563-.024.005-.04.026-.065.03-8.86 2.205-18.82 1.68-29.125-.405-24.79-5.02-52.76-19.696-61.341-45.688-28.615-86.673 16.65-179.741 78.156-223.28 23.064-16.327 49.06-25.848 74.47-24.47.144.008.29.022.436.03-24.19-22.74-53.33-37.95-87.25-37.5zm81.75 56.004c-19.212.01-39.413 7.59-58.623 21.188-54.644 38.682-96.651 125.024-71.187 202.156 5.126 15.53 27.249 29.163 47.28 33.22 10.016 2.028 19.219 1.518 23.718-.283 2.25-.9 3.172-1.84 3.593-2.562.422-.72.81-1.663.25-4.375-9.08-44.167-2.742-84.61 22.534-114.47 23.585-27.864 62.753-45.462 117.406-50.686-15.014-47.145-37.47-71.226-61.315-80.03-6.407-2.368-13.03-3.706-19.81-4.064a73 73 0 0 0-3.844-.094zM43.779 294.221c-5.405 12.554-9.135 24.755-10.904 36.185 7.178 27.76 51.898 55.43 91.094 61.344 1.703-5.973 5.831-11.475 10.28-14.25 51.009 28.844 86.18 60.704 102 101h229.595c.697-9.613.44-18.712-.625-27.344l-204.315-.029h-5.125l-2.75-4.346c-35.405-55.575-93.931-82.58-141.78-106.029-23.926-11.724-45.171-22.338-59.626-36.846-2.978-2.99-5.618-6.223-7.844-9.685z"/></svg>