<svg xmlns="http://www.w3.org/2000/svg" viewBox="0 0 512 512"><path d="M136.48 27.746c-2.108.024-4.174.152-6.242.272 42.927 23.035 87.234 59.434 121.903 96.57 8.66 9.276 12.358 18.764 16.37 27.44 2.487 5.37 5.174 10.658 9.298 16.37l30.648-26.373c-3.067-5.03-5.212-10.567-6.043-16.386-.919-6.432.09-13.284 3.04-19.48-32.92-24.036-68.654-47.25-102.75-62.026-22.78-9.871-44.548-15.843-64.1-16.371q-1.07-.029-2.124-.016zm226.463 99.256c-2.825 0-5.561.505-8.091 1.293l28.91 28.91c.788-2.53 1.293-5.266 1.293-8.092 0-6.485-2.316-12.725-5.852-16.261-3.535-3.535-9.775-5.85-16.26-5.85zm-23.088 11.754-21.89 18.836c9.95-2.533 20.986.059 28.713 7.787s10.319 18.76 7.787 28.713l18.836-21.89zm-14.39 35.78c-3.053 0-6.104 1.188-8.485 3.57-4.762 4.76-4.762 12.208 0 16.97s12.21 4.762 16.97 0c4.762-4.762 4.762-12.21 0-16.97-2.38-2.382-5.433-3.57-8.485-3.57zm-27.582.335-9.846 8.47-5.351 46.03 46.029-5.351 8.469-9.842c-10.923 4.588-24.091 2.467-32.932-6.373-8.842-8.842-10.958-22.01-6.37-32.934zm72.148 28.727-26.373 30.65c5.712 4.124 11 6.812 16.371 9.297 8.674 4.013 18.163 7.71 27.44 16.37 37.136 34.669 73.534 78.977 96.57 121.903 1.254-21.638-4.803-46.36-16.115-72.464-14.776-34.097-37.992-69.83-62.026-102.75-6.198 2.95-13.049 3.957-19.48 3.039-5.82-.832-11.355-2.978-16.387-6.045zm-103.375 7.79-28.398 26.589L274.08 273.8l26.588-28.4-38.488 4.478zm-41.545 38.897-11.685 10.942 37.404 37.404 10.941-11.686zm-24.832 23.252-90.564 84.797 44.008 44.008 84.797-90.565zM96.566 370.643l-21.91 20.515 46.242 46.242 20.516-21.91zm-28.09 39.79-5.656 16.971 21.832 21.832 16.97-5.656zM49.689 439.73l-18.49 9.685a106 106 0 0 0-2.747 13.676c-.608 4.548-.852 9.29-.469 12.92s1.497 5.735 1.913 6.152c.417.417 2.522 1.53 6.152 1.912 3.63.383 8.372.14 12.92-.469a106 106 0 0 0 13.676-2.746l9.685-18.49z"/></svg>