<svg xmlns="http://www.w3.org/2000/svg" viewBox="0 0 512 512"><path d="M151 23.002V32c0 21.038-3.39 52.724-8.523 85.336 31.097-25.51 70.355-41.053 111.2-40.756 5.228-.05 10.467.13 15.696.547 36.83 2.13 71.78 16.79 99.924 39.824-5.164-32.6-8.523-64.167-8.297-84.851l.1-9.098zm105 72.486c-88.543 0-160.514 71.967-160.514 160.51S167.456 416.514 256 416.514c88.543 0 160.514-71.973 160.514-160.516S344.544 95.488 256 95.488zm0 17.998c78.815 0 142.514 63.697 142.514 142.512S334.814 398.516 256 398.516s-142.514-63.703-142.514-142.518S177.186 113.486 256 113.486zm-81.885 47.815-12.734 12.719 76.48 76.558a19 19 0 0 0-.8 5.422A18.94 18.94 0 0 0 256 274.94a18.94 18.94 0 0 0 16.66-9.94h59.096v-17.998h-59.11a18.94 18.94 0 0 0-16.646-9.94 19 19 0 0 0-5.398.8zm253.233 61.318v64.004h21.306v-64.004zm-57.96 172.889c-49.014 40.244-119.823 51.034-178.92 27.547-17.514-6.406-33.528-15.775-47.663-27.375 5.107 32.376 8.42 63.672 8.195 84.222l-.1 9.098H361v-9c0-20.857 3.33-52.178 8.39-84.492z"/></svg>