<svg xmlns="http://www.w3.org/2000/svg" viewBox="0 0 512 512"><path d="m434.51 18.453-9.406 53.352C365.983 63.31 310.982 59.039 256 59.039c-54.98 0-109.983 4.27-169.102 12.768l-9.406-53.35-17.726 3.127 9.324 52.887a1631 1631 0 0 0-15.8 2.539l-6.503-36.89-17.726 3.124 6.49 36.795a1878 1878 0 0 0-17.196 3.111l3.291 17.698c5.728-1.066 11.399-2.09 17.03-3.084l7.054 40.02 17.727-3.126-7.039-39.93q7.956-1.318 15.799-2.539l9.775 55.45 17.729-3.125-9.698-54.99a1416 1416 0 0 1 25.18-3.381c15.54 46.39 34.697 99.996 66.936 134.449C190.859 250.992 192 268 214.56 310 192 348 176 412 167.21 471l-48 6v15H192c16-48 64-144 64-144s48 96 64 144h72.79v-15l-48-6C336 412 320 348 294 310c26-42 24.175-59.585 35.83-89.377 32.25-34.452 51.42-88.076 66.967-134.478 8.314 1.04 16.697 2.16 25.18 3.38l-9.696 54.99 17.729 3.124 9.775-55.45q7.844 1.221 15.8 2.54l-7.04 39.93 17.726 3.124 7.055-40.02c5.63.994 11.301 2.019 17.03 3.085l3.29-17.698c-5.78-1.075-11.507-2.11-17.195-3.113l6.49-36.795-17.726-3.125-6.504 36.89q-7.955-1.32-15.8-2.54l9.323-52.887zM256 76.98c35.53 0 71.07 1.83 107.822 5.463-14.082 34.858-38.454 73.504-63.203 101.967C290.293 199.27 274.35 209 256 209s-34.293-9.73-44.62-24.59c-24.747-28.463-49.12-67.11-63.202-101.967 36.75-3.633 72.29-5.463 107.822-5.463zM256 97c-20.835 0-39 20.24-39 47s18.165 47 39 47 39-20.24 39-47-18.165-47-39-47z"/></svg>