<svg xmlns="http://www.w3.org/2000/svg" viewBox="0 0 512 512"><path d="m102.5 26.03 90.03 345.75 289.22 23.25-90.062-345.75zm-18.906 1.564c-30.466 11.873-55.68 53.098-49.75 75.312l3.25 11.78c.667-1.76 1.36-3.522 2.093-5.28C49.098 85.7 65.749 62.64 89.565 50.5zm10.844 41.594c-16.657 10.011-29.92 28.076-38 47.406-5.247 12.55-8.039 25.63-8.75 36.53L112.5 388.405c.294-.55.572-1.104.875-1.654 10.603-19.252 27.823-37.696 51.125-48.47zm74.875 287.593c-17.677 9.078-31.146 23.717-39.563 39-4.464 8.107-7.27 16.364-8.687 23.75l11.687 42.408 1.625.125c-3.84-27.548 11.352-60.503 41.25-81.093zm26.343 33.998v.002c-32.567 17.27-46.51 52.44-41.844 72.94l289.844 24.5c-5.34-7.79-8.673-17.947-8.594-28.5l-22.406-9L459 443.436l-13.5-12.875c5.604-6.917 13.707-13.051 24.813-17.688z"/></svg>