<svg xmlns="http://www.w3.org/2000/svg" viewBox="0 0 512 512"><path d="M19.842 17.184v61.42c9.748 45.582 34.238 98.705 76.508 156.343-19.817-18.264-37.321-36.358-52.72-54.082 25.616 59.5 69.548 119.182 123.13 162.795 48.123 31.57 119.676 29.462 162.902-10.611 6.732-7.988 13.066-16.542 18.98-25.684-20.604 78.87-90.273 129.944-216.61 139.612 22.291 6.705 46.504 10.895 72.36 12.234-74.884 23.496-140.058 19.36-187.47-3.783v38.822h344.572c12.548-25.422 22.592-53.765 29.526-84.895 4.948-48.52-4.294-110.44-32.512-182.982 17.547 27.72 31.865 54.315 43.36 79.518-.009-16.152-.728-32.81-2.237-49.983a131 131 0 0 0-1.29-16.396c-33.653-52.997-81.454-71.595-133.21-64.133 59.48-17.147 105.815-5.344 143.066 40.62 61.71 66.539 84.012 167.01 60.17 278.837h25.113V184.81c-31.772-28.644-73.986-47.579-126.732-52.069 32.298-9.65 61.867-13.935 88.19-13.43 4.774.09 9.441.34 14.001.74-29.598-8.21-60.132-11.63-90.845-11.398-12.44.095-24.909.807-37.356 2.024l.088.05c-47.7 10.48-91.984 38.815-126.728 88.68 6.15-25.89 14.355-48.62 24.224-68.144-29.95 7.29-55.853 24.91-73.709 48.888-12.354 53.054 9.743 114.704 56.315 126.26-16.457-8.185-27.838-25.188-27.838-44.73 0-27.46 22.46-49.918 49.92-49.918s49.92 22.46 49.92 49.918c0 17.3-8.92 32.61-22.385 41.576-38.712 29.777-80.068 19.58-109.082-19.545-31.807-42.892-33.914-88.063-8.813-146.24-13.99 18.068-25.763 39.423-34.736 64.257-2.735-95.685 31.315-157.842 82.412-184.546z"/></svg>