<svg xmlns="http://www.w3.org/2000/svg" viewBox="0 0 512 512"><path d="M161.188 22 102.25 41.656l127.813 127.815.843-.846 2.406-2.406zm246.906 18L280.279 167.813l.815.812 2.406 2.406 144.25-72.125zM256 40.938l-53.97 26.968 45.658 91.344a36 36 0 0 1 8.312-.97c3.306 0 6.613.467 9.813 1.376l75.875-75.875zm-88 89.093V184h53.906c.006-.02-.005-.042 0-.062zm176 28.656L293.375 184H344zm-88 15.5c-4.975 0-9.94 1.908-13.78 5.75-7.685 7.685-7.685 19.91 0 27.594 7.684 7.686 19.876 7.686 27.56 0 7.685-7.683 7.685-19.907 0-27.592-3.84-3.842-8.805-5.75-13.78-5.75zM290.688 201c-.176.856-.354 1.72-.594 2.563l29.312 29.312-6.72-31.875h-21.999zm-91.375.002-2.875 13.592 25.093-12.563c-.08-.345-.147-.681-.219-1.03zm29.187 15.467v.002L84.25 288.563l19.656 58.935 127.815-127.81-.815-.844zm53.438 1.56-.844.815-2.375 2.406L350.81 365.5l58.937-19.656zm-35.75 9.815-66.532 66.529L139.094 487H216v-63h80v63h76.906l-22.029-104.687-1.596.53-6.56 2.221-3.125-6.22-75.282-150.625c-5.956 1.416-12.227 1.303-18.127-.375z"/></svg>