<svg xmlns="http://www.w3.org/2000/svg" viewBox="0 0 512 512"><path d="M246.78 18.654v101.222c7.987.267 16.002.268 24 0V18.655zm-72.155 110.409v30.812h168.313v-30.812c-55.755 12.73-113.104 12.603-168.313 0zm-150.28 35.062 9.343 37.594 132.187 8.094 9.406.56-.654 9.406c-2.594 38.077 5.256 78.675 25.562 112.442l7.625-146.471zm202.561 14.438L216.25 383.188v44.187l44.375 66.53 43.03-65.342-13-250h-22.53V429.5h-18.687V178.563zM38.186 220.72c3.52 11.234 8.043 23.025 13.345 34.935l104.5-8.562a232 232 0 0 1-.28-19.188L38.188 220.72zm119.658 45-97.721 8a439 439 0 0 0 17.783 31.808l84.063-18.279a219 219 0 0 1-4.125-21.53zm9.345 39.529L88.75 322.313c6.694 9.8 13.67 19.05 20.75 27.468l64.938-26.342a196 196 0 0 1-7.25-18.187z"/></svg>