<svg xmlns="http://www.w3.org/2000/svg" viewBox="0 0 512 512"><path d="m24.928 23.107-.002.004.004.002zm.002.006c8.03 58.988 116.647 113.313 197.392 132.697-51.69.28-128.257-5.556-185.43-22.678 24.43 47.073 109.81 60.78 187.104 67.027-57.808 15.162-109.869 21.8-173.959 19.955C82.1 255.191 166.16 254.141 236.62 242.795c-38.85 19.96-83.112 32.74-129.635 39.588 40.913 20.362 106.803 1.755 147.45-4.432-19.043 16.43-41.836 28.655-66.856 37.934 25.075 10.61 64.634 2.653 92.164-11.408-3.48 11.993-15.639 25.646-31.717 35.093 20.82 4.43 46.642.675 66.817-6.832 27.207 10.518 36.236 23.728 37.969 38.06-41.966 13.17-57.813 106.546 29.824 105.43-41.212-17.457-48.908-61.13-19.813-76.847 44.16-23.86 65.382 48.02 55.51 86.105 33.642-12.11 36.52-88.94-7.633-108.168 46.837.503 67.126 32.147 54.326 72.508 53.774-63.696 9.178-103.04-46.535-99.113-82.715-5.958-156.807-121.436-127.107-150.473 22.79-19.817 22.544-51.31-6.26-65.664-72.81-36.301-120.058-22.37-260.193-111.463z"/></svg>