<svg xmlns="http://www.w3.org/2000/svg" viewBox="0 0 512 512"><path d="m494.25 21.125-164.53 1.25c-15.462 27.984-33.913 52.67-54.163 75.8 6.012 1.498 12.073 2.995 18.027 4.497l13.69 3.453-8.528 11.254c-50.415 66.503-44.631 142.086-27.36 213.693l-18.17 4.383c-16.837-69.817-23.528-148.191 22.64-217.94-88.07-21.896-183.62-43.432-253.374-89.378-1.77 4.89-1.01 10.185 2.262 17.228 2.427 5.222 6.517 11.043 12.14 17.117 53.163 37.938 130.458 65.946 189.778 75.168l-2.869 18.467c-61.85-9.616-139.643-37.396-196.037-77.226.61 5.953 2.61 12.394 6.387 19.361 6.918 12.758 19.276 26.49 35.7 38.906.84.635 1.697 1.265 2.557 1.893 42.555 22.677 93.696 38.914 140.737 42.164l-1.287 18.644c-61.147-4.222-126.33-28.22-175.672-60.746 1.03 4.922 3.253 10.398 6.885 16.381 7.366 12.14 20.078 25.485 36.23 37.676 39.264 17.838 81.603 32.938 128.62 36.473l-1.4 18.634c-56.102-4.218-105.133-23.74-149.103-44.707 3.7 19.623 17.285 34.4 38.926 46.805 26.818 15.373 65.26 25.424 105.822 31.328l7.457 1.086.52 7.518c1.074 15.51 4.568 22.832 9.742 31.672l-16.13 9.437c-4.93-8.426-9.286-18.45-11.292-32.436-32.304-5.087-63.402-12.616-89.365-24.265a605 605 0 0 0-18.994 24.033c16.515 23.758 30.601 43.035 52.78 65.78l27.095-9.467 9.343-3.25 2.717 9.53c15.066 53.053 59.565 93.564 113.596 113.813 48.005 17.99 103.003 19.633 150.062.594-68.672-37.578-114.616-123.708-135.78-199.875l-1.126-4.156 2.375-3.565c43.371-64.87 120.692-119.271 189.092-144.181z"/></svg>