<svg xmlns="http://www.w3.org/2000/svg" viewBox="0 0 512 512"><path d="M335.656 19.53c-24.51.092-48.993 5.235-71.062 15.626-22.46 10.577-43.112 34.202-58.375 62.563-15.264 28.36-25.182 61.262-27.69 88.75-7.487 82.112-51.927 155.352-159.781 252.56l-.187 21.44C89.215 403.443 139.915 346.632 176.313 290l.064.03c-9.293 32.472-22.625 63.18-43.596 87.97-31.47 35.584-69.22 71.1-114.467 106.53l-.062 8.25 25 .064h.47l1.28-1.156c24.405-16.498 48.607-31.489 72.594-41.5l.187.187-46.435 42.5 28.935.063c48.372-41.685 94.715-90.58 129.627-137 33.587-44.658 56.02-87.312 60.688-116.844-1.268-2.32-2.553-4.628-3.657-7.094-18.833-42.06-4.272-96.424 40.22-116.062 32.73-14.45 74.853-3.166 90.437 31.343.15.333.324.635.47.97 13.302 24.063 6.175 49.48-9.345 61.97-7.866 6.328-18.442 9.528-28.75 6.56-10.31-2.966-19.043-11.773-24.5-25.125l17.28-7.06c3.993 9.764 8.668 13.148 12.376 14.218 3.708 1.066 7.767.148 11.875-3.158 8.216-6.61 14.28-21.91 4.404-39.03l-.28-.47-.22-.5c-10.7-24.82-41.959-33.333-66.219-22.625-34.063 15.037-45.593 58.053-30.685 91.346 20.527 45.846 77.97 61.177 122.375 40.875 60.157-27.5 80.13-103.328 53.094-161.813-24.737-53.502-81.41-82.484-138.909-83.843-1.633-.04-3.272-.07-4.906-.063zm-25.75 26.718v.002a55.3 55.3 0 0 1 9.406.906c10.343 1.898 19.946 6.753 29.032 13.25-30.623-5.437-58.324 4.612-80.78 24.782-22.44 20.151-39.16 50.59-45.783 84.718-4.655-11.358-7.165-21.462-6.685-31.72.296-6.343 1.714-12.956 4.779-20.217 9.094-18.016 21.033-33.946 35.22-46.69 7.825-7.026 16.39-13.071 25.53-17.906 10.932-5.212 20.521-7.22 29.281-7.125zm122.938 62.315c22.583 13.166 34.365 41.86 32.937 70.656-.564 11.395-3.465 22.976-8.904 33.625-12.48 18.937-35.53 25.51-49.97 20.875l-.093-.25c27.943-10.365 39.18-32.379 40.313-55.192a69 69 0 0 0-.031-7.466c1.447-13.31-.411-28.794-5.469-43.438-2.244-6.496-5.152-12.89-8.846-18.72zm-135.563 1.312c-20.97 19.342-29.406 35.252-33.25 51.25-3.848 16.023-2.787 32.84-2.904 52.875-.14 23.79-2.562 51.542-18.44 85.688-.005.012-.024.019-.029.03-21.095 26.754-45.275 52.25-68.906 67.376l-.065-.03c64.195-71.544 68.527-114.793 68.75-153.191.112-19.197-1.251-37.593 3.44-57.123a98 98 0 0 1 2-7.125h.03c8.097-17.036 16.572-26.058 25.47-31.562 7.18-4.44 15.033-6.698 23.904-8.188z"/></svg>