<svg xmlns="http://www.w3.org/2000/svg" viewBox="0 0 512 512"><path d="M240.03 35.938c-1.08.01-2.169.063-3.25.124-8.645.502-17.16 2.8-22.5 5.97-5.337 3.166-7.017 5.72-6.81 9.593v.25l.78 28.156 59.97-1.279-.876-31.846c-.148-3.014-1.807-5.149-7.471-7.592C255.629 37.48 249.63 36.27 243.25 36a61 61 0 0 0-3.22-.062zm224.939 57.218L33.594 102.53l1.375 62 154.654 4.065-148.156 9.72-2.906 98.809 1.406.315 8.058 1.843-.841 8.221-6.907 67.469 429.534-9.284L464.219 283l-140.375-3.656 139.219-9.156-8.877-99.407-138.875-3.625 151.033-9.935zM276.31 368.563l-59.875 1.28L220 495.78h59.844l-3.53-127.216z"/></svg>