<svg xmlns="http://www.w3.org/2000/svg" viewBox="0 0 512 512"><path d="M72.143 74.592c-3.2.146-6.005.645-8.497 1.53 12.514 8.344 32.246 19.75 53.35 29.978 28.222 13.677 59.717 25.602 80.4 27.884 9.278 1.024 24.372-5.287 39.903-14.615-36.388-3.755-72.094-17.844-102.953-29.125-19.726-7.21-37.52-13.235-51.342-15.055-4.067-.536-7.662-.743-10.861-.597zM58.236 93.92c1.792 32.743.28 58.3.59 78.078 14.63 2.896 30.5 8.504 47.422 14.69 38.52 14.08 82.287 31.03 121.99 28.99 5.91-4.39 11.594-8.726 16.79-12.625 8.393-6.3 15.148-11.41 21.665-14.266l4.457-1.951 4.018 2.793c16.5 11.469 23.615 27.365 32.396 43.615s19.32 33.83 42.82 53.03c13.449 10.988 45.314 13.51 72.66 17.609 2.754.412 5.45.853 8.108 1.33 27.013-16.5 46.25-42.477 55.362-72.48 1.565-5.155 1.447-8.406.83-10.53-.616-2.123-1.71-3.65-4.2-5.441-4.978-3.582-15.705-6.521-28.6-8.453-25.785-3.864-59.644-3.8-81.177-21.393-25.673-20.974-38.16-41.569-47.265-58.418-7.957-14.724-13.262-25.841-22.555-34.03-3.588 2.229-8.211 5.363-14 9.708-8.22 6.169-17.984 13.747-28.37 21.035-20.77 14.577-43.456 29.113-65.616 26.668-25.055-2.765-56.966-15.414-86.104-29.535-19.904-9.646-37.765-19.705-51.22-28.424zM38.14 187.973c-3.2.146-6.003.647-8.494 1.53 12.514 8.346 32.243 19.748 53.345 29.974 28.222 13.677 59.716 25.605 80.399 27.888 9.278 1.023 24.37-5.288 39.9-14.615-36.387-3.756-72.09-17.846-102.95-29.127-19.725-7.21-37.522-13.232-51.343-15.053-4.066-.536-7.659-.744-10.857-.597zm-13.91 19.324c2.545 46.512-1.596 78.578 2.323 100.082 2.214 12.154 6.316 20.845 15.744 29.422s24.773 16.844 48.992 25.168c16.292 5.6 29.497 3.833 43.238 1.172s28.152-6.718 44.13-2.344c18.198 4.982 32.264 20.962 49.284 36.16s36.147 30.06 60.25 35.744c84.003 19.814 145.573-24.874 164.317-86.59 1.566-5.155 1.447-8.405.83-10.529-.616-2.123-1.71-3.648-4.2-5.44-4.98-3.58-15.705-6.523-28.599-8.456-25.787-3.864-59.645-3.798-81.178-21.391-25.673-20.975-38.16-41.567-47.265-58.416-7.956-14.724-13.262-25.842-22.555-34.031-3.589 2.229-8.21 5.362-14 9.709-8.22 6.168-17.984 13.744-28.37 21.033-20.77 14.576-43.457 29.11-65.616 26.666-25.055-2.765-56.965-15.412-86.104-29.533-19.903-9.646-37.765-19.706-51.22-28.426z"/></svg>