<svg xmlns="http://www.w3.org/2000/svg" viewBox="0 0 512 512"><path d="M158.063 154.748v.002c-31.32.613-72.27 32.376-130.063 119.156 28.377 32.465 60.522 47.17 92.875 46.813-13.872-6.878-23.437-21.162-23.437-37.69 0-23.222 18.839-42.06 42.062-42.06 23.224 0 42.03 18.838 42.03 42.06a41.87 41.87 0 0 1-7.31 23.69c24.135-12.47 47.217-32.947 67.655-60.25-22.28-47.856-46.015-92.461-83.812-91.72zm202.593.002c-36.864.538-60.257 44.549-82.22 91.72 18.105 24.186 38.287 43.003 59.441 55.655a41.8 41.8 0 0 1-4.596-19.094c0-23.222 18.84-42.06 42.065-42.06 23.223 0 42.029 18.838 42.029 42.06 0 16.393-9.384 30.592-23.062 37.533 34.08 2.043 68.158-12.48 98.033-46.658-58.79-88.276-100.168-119.614-131.69-119.154z"/></svg>