<svg xmlns="http://www.w3.org/2000/svg" viewBox="0 0 512 512"><path d="M123.03 21.063c-4.319.034-8.667.11-13.03.218-11.91 27.083-22.38 56.627-30.844 87.5 60.77-2.1 125.66 5.56 185.75 24.065-34.106-28.945-85.566-51.207-147.5-68.658-.094.004-.186-.005-.28 0v-.094c.096.027.184.066.28.094a232 232 0 0 1 9.688-.25c103.17-.367 203.43 65.787 243.779 120.937-55.26-18.87-172.254-41.116-262.78-42.906 64.639 18.767 134.3 60.956 168.75 97.219-60.615-31.342-147.583-64.402-210.529-74.034-2.604 14.28-4.767 28.708-6.376 43.157 98.452 16.914 167.907 89.381 209 160.343C186.695 288.485 118.976 259.78 57 246.063c-.56 12.236-.724 24.426-.437 36.53 75.5 13.774 155.449 63.447 195.906 115.813-37.694-3.49-57.537-3.84-83.875 0 14.878 15.368 21.891 30.75 27.06 46.78-27.556-23.05-73.387-45.023-103.779-58.436 23.016-12.572 58.945-10.467 83.81-12.562C147.915 347.463 99.993 327.5 59.378 324c7.15 62.802 27.744 120.948 66.654 165.406 7.457-1.933 14.865-4.19 22.22-6.72l-37.687-61.467 77.97 44.529c41.892-20.763 81.53-50.293 117.5-85-19.699-52.456-67.128-104.386-130.688-158.404 65 23.97 133.964 72.423 170.375 116.404a700 700 0 0 0 27.125-33.404c-8.295-31.86-70.437-92.74-127.344-126.281 66.865 12.664 133.913 47.31 158.062 82.716 12.815-19.65 24.497-39.606 34.875-59.5-31.55-50.096-78.441-93.37-162.187-132.685 79.45 15.32 142.597 46.945 184.812 84.656 4.56-10.875 8.687-21.622 12.342-32.187C369.981 54.9 256.94 20.001 123.03 21.063z"/></svg>