<svg xmlns="http://www.w3.org/2000/svg" viewBox="0 0 512 512"><path d="M20.678 69.627V219.51l36.218-25.17-14.99-29.723 68.918-44.51zm108.597 60.812-63.117 40.764 14.735 29.22-60.215 41.847v22.896l45.576 18.45 72.096-50.1-14.99-29.725 63.58-41.059-57.665-32.289zm76.114 42.624v.001l-57.78 37.313 14.739 29.22-75.4 52.397 78.072 31.604 61.625-42.825-14.99-29.724 61.767-39.89zm140.299 3.986-28.864 58.418-24.955-13.977-55.96 36.145 14.736 29.219-64.93 45.123 65.582 26.546 61.777-42.93-14.988-29.726 83.607-53.994zm46.261 70.447-69.613 44.957 14.736 29.22-95.69 66.5-14.52 29.388 96.576-6.96 78.556-54.59-14.99-29.726 39.807-25.707-34.86-53.082zM437.07 316.2l-25.814 16.674 14.734 29.22-66.01 45.874 131.145-9.453z"/></svg>