<svg xmlns="http://www.w3.org/2000/svg" viewBox="0 0 512 512"><path d="M462.125 21.656c-90.8 62.46-285.757-3.604-362.937 59.75-75.358 61.862-78.86 205.444 14.75 240.625l1.718-1.875c37.05-27.143 87.684-34.038 132.938-21.469 10.06-53.15-25.31-116.6-106.75-121.03 41.182-12.679 78.062-6.116 107.094 11.5 28.17-18.51 65.59-22.273 98.5-11.845 13.641-24.686 5.493-62.021-34.875-75.06 11.546-.47 21.786 1.543 30.625 5.375 9.764-9.273 23.542-14.438 37.406-14.596 20.555-.233 41.345 10.51 49.72 35-20.84-25.228-50.562-20.835-65.158-4.373 16.456 18.683 21.54 46.205 13.156 68.78 24.248 16.934 41.844 44.085 44.22 81.126-28.71-63.121-92.417-69.913-131.313-43.625 20.415 30.55 28.801 68.684 20.435 103.594 24.437 22.882 41.334 55.249 44 96.846-39.337-86.492-127.312-94.716-179.625-57.406l-.966-.127C284.356 567.204 577.93 466.81 462.125 21.656zM311 189.656c-21.31.028-42.32 7.18-61.656 20.75 11.706 22.114 34.073 72.085 5.937 111.813-61.534-22.165-135.747 9.04-174.779 63.904-.016.015-.047.017-.064.031-21.582 20.457-40.825 44.172-59.407 69 8.21 23.188 26.264 36.432 58.783 35.094 14.816-43.566 33.982-80.885 59.125-112.469C183.547 320.235 251.394 332.02 282 340c12.164-38.336 12.067-84.158-12.97-113.687 24.282-25.166 67.41-33.486 98.19-19.625-18.383-11.557-37.418-17.057-56.22-17.032z"/></svg>