<svg xmlns="http://www.w3.org/2000/svg" width="16" height="16" viewBox="0 0 16 16"><path d="M8 .121c-.607 0-1.213.309-1.543.926L.375 12.426A1.75 1.75 0 0 0 1.918 15h12.164a1.75 1.75 0 0 0 1.543-2.574L9.543 1.046A1.73 1.73 0 0 0 8 .122zM7.912 1.64a.25.25 0 0 1 .309.115l6.082 11.379a.25.25 0 0 1-.221.367H1.918a.25.25 0 0 1-.22-.367l6.081-11.38a.25.25 0 0 1 .133-.114zm-.078 3.38a.75.75 0 0 0-.584.731v2.5a.75.75 0 0 0 1.5 0v-2.5a.75.75 0 0 0-.916-.73zM8 10a1 1 0 0 0-1 1 1 1 0 0 0 2 0 1 1 0 0 0-1-1z"/></svg>