<svg xmlns="http://www.w3.org/2000/svg" width="16" height="16" viewBox="0 0 16 16"><path d="M8 0C6.195 0 4.525.32 3.28.87c-.624.273-1.175.618-1.58 1.038-.409.426-.7.966-.7 1.592v9c0 .626.291 1.165.7 1.59.405.422.956.767 1.58 1.04 1.245.55 2.915.87 4.72.87q.676 0 1.316-.059a.751.751 0 1 0-.132-1.494Q8.61 14.5 8 14.5c-1.647 0-3.102-.295-4.117-.742-.51-.224-.875-.47-1.102-.707-.224-.233-.281-.418-.281-.551v-2.275a6 6 0 0 0 .508.279c1.102.543 2.58.89 4.203.975a.75.75 0 0 0 .078-1.499c-1.476-.077-2.745-.392-3.62-.822C2.74 8.7 2.5 8.248 2.5 8V5.725a6 6 0 0 0 .78.406C4.524 6.68 6.194 7 8 7s3.476-.32 4.723-.87c.622-.273 1.172-.618 1.578-1.038.408-.426.699-.966.699-1.592s-.291-1.165-.7-1.59c-.405-.422-.956-.767-1.58-1.04C11.477.32 9.807 0 8 0zm0 1.5c1.647 0 3.102.295 4.117.742.51.224.875.47 1.102.707.224.233.281.418.281.551s-.057.319-.281.55c-.227.238-.594.484-1.102.708C11.1 5.205 9.646 5.5 8 5.5c-1.647 0-3.102-.295-4.117-.742-.51-.224-.875-.47-1.102-.707-.224-.233-.281-.418-.281-.551s.057-.319.281-.55c.227-.238.594-.484 1.102-.708C4.9 1.795 6.354 1.5 8 1.5zm6.164 5.629a.38.38 0 0 0-.334.14l-3.625 4.626a.375.375 0 0 0 .295.605h2.127l-.62 2.922a.375.375 0 0 0 .667.305l3.125-4.125A.375.375 0 0 0 15.5 11h-1.777l.767-3.418a.375.375 0 0 0-.326-.453z"/></svg>