<svg xmlns="http://www.w3.org/2000/svg" width="16" height="16" viewBox="0 0 16 16"><path d="M2.75 1A1.75 1.75 0 0 0 1 2.75v10.5A1.75 1.75 0 0 0 2.75 15h10.5A1.75 1.75 0 0 0 15 13.25V2.75A1.75 1.75 0 0 0 13.25 1zm0 1.5h10.5a.25.25 0 0 1 .25.25v10.5a.25.25 0 0 1-.25.25H2.75a.25.25 0 0 1-.25-.25V2.75a.25.25 0 0 1 .25-.25zm8.494 2.52a.75.75 0 0 0-.523.2L6.75 9.19 5.28 7.72a.75.75 0 0 0-1.042.018.75.75 0 0 0-.017 1.041l2 2a.75.75 0 0 0 1.058 0l4.5-4.5a.75.75 0 0 0-.017-1.04.75.75 0 0 0-.518-.22z"/></svg>