<svg xmlns="http://www.w3.org/2000/svg" width="16" height="16" viewBox="0 0 16 16"><path d="M3.75 0A1.75 1.75 0 0 0 2 1.75v5A1.75 1.75 0 0 0 3.75 8.5h8.5A1.75 1.75 0 0 0 14 6.75v-5A1.75 1.75 0 0 0 12.25 0zm0 1.5h8.5a.25.25 0 0 1 .25.25v5a.25.25 0 0 1-.25.25h-8.5a.25.25 0 0 1-.25-.25v-5a.25.25 0 0 1 .25-.25zm-2 8A1.75 1.75 0 0 0 0 11.25v3A1.75 1.75 0 0 0 1.75 16h12.5A1.75 1.75 0 0 0 16 14.25v-3a1.75 1.75 0 0 0-1.75-1.75zm0 1.5h12.5a.25.25 0 0 1 .25.25v3a.25.25 0 0 1-.25.25H1.75a.25.25 0 0 1-.25-.25v-3a.25.25 0 0 1 .25-.25zm2 1a.75.75 0 0 0-.75.75.75.75 0 0 0 .75.75h.5a.75.75 0 0 0 0-1.5zm4 0a.75.75 0 0 0-.75.75.75.75 0 0 0 .75.75h4.5a.75.75 0 0 0 0-1.5z"/></svg>