<svg xmlns="http://www.w3.org/2000/svg" width="16" height="16" viewBox="0 0 16 16"><path d="M1.75 1A1.75 1.75 0 0 0 0 2.75v8.5A1.75 1.75 0 0 0 1.75 13H3v1.543a1.458 1.458 0 0 0 2.486 1.03L8.061 13h6.189A1.75 1.75 0 0 0 16 11.25v-8.5A1.75 1.75 0 0 0 14.25 1zm0 1.5h12.5a.25.25 0 0 1 .25.25v8.5a.25.25 0 0 1-.25.25h-6.5a.75.75 0 0 0-.53.22L4.5 14.44v-2.19a.75.75 0 0 0-.75-.75h-2a.25.25 0 0 1-.25-.25v-8.5a.25.25 0 0 1 .25-.25zm4.5 1.75a.75.75 0 0 0-.53.22l-2 2a.75.75 0 0 0 0 1.06l2 2a.75.75 0 0 0 1.042-.018.75.75 0 0 0 .017-1.041L5.311 7l1.468-1.47a.75.75 0 0 0 0-1.06.75.75 0 0 0-.529-.22zm3.5 0a.75.75 0 0 0-.53.22.75.75 0 0 0 0 1.06L10.69 7 9.22 8.47a.75.75 0 0 0 .018 1.042.75.75 0 0 0 1.041.017l2-2a.75.75 0 0 0 0-1.058l-2-2a.75.75 0 0 0-.529-.221z"/></svg>