<svg xmlns="http://www.w3.org/2000/svg" width="16" height="16" viewBox="0 0 16 16"><path d="M8 0C6.195 0 4.525.32 3.28.87c-.624.273-1.175.618-1.58 1.04-.409.425-.7.964-.7 1.59v9c0 .626.291 1.166.7 1.592.405.42.956.765 1.58 1.039C4.524 15.68 6.194 16 8 16s3.476-.32 4.72-.87c.624-.273 1.175-.618 1.58-1.04.409-.425.7-.964.7-1.59v-9c0-.626-.291-1.166-.7-1.592-.405-.42-.955-.765-1.577-1.039C11.476.32 9.805 0 8 0zm0 1.5c1.647 0 3.102.295 4.117.742.51.224.875.47 1.102.707.224.233.281.418.281.551s-.057.319-.281.55c-.227.238-.594.484-1.102.708C11.1 5.205 9.646 5.5 8 5.5c-1.647 0-3.102-.295-4.117-.742-.51-.224-.875-.47-1.102-.707-.224-.233-.281-.418-.281-.551s.057-.319.281-.55c.227-.238.594-.484 1.102-.708C4.9 1.795 6.354 1.5 8 1.5zM2.5 5.725a6 6 0 0 0 .78.406C4.524 6.68 6.194 7 8 7s3.476-.32 4.723-.87q.414-.18.777-.405V8c0 .133-.057.319-.281.55-.227.238-.594.484-1.102.708C11.1 9.705 9.646 10 8 10c-1.647 0-3.102-.295-4.117-.742-.51-.224-.875-.47-1.102-.707C2.557 8.318 2.5 8.133 2.5 8zm0 4.5a6 6 0 0 0 .78.406c1.245.549 2.915.869 4.72.869s3.476-.32 4.723-.87q.414-.18.777-.405V12.5c0 .133-.057.318-.281.55-.227.238-.592.484-1.102.708-1.015.447-2.47.742-4.117.742s-3.101-.295-4.117-.742c-.508-.224-.875-.47-1.102-.707-.224-.232-.281-.418-.281-.551z"/></svg>