<svg xmlns="http://www.w3.org/2000/svg" width="24" height="24" viewBox="0 0 24 24"><path d="M4 4c-.733 0-1.332.599-1.332 1.332a1.34 1.34 0 0 0-1.336 1.336v12c0 .733.602 1.332 1.336 1.332h18.664c.734 0 1.336-.599 1.336-1.332v-12a1.34 1.34 0 0 0-1.336-1.336H10.668c0-.733-.602-1.332-1.336-1.332zm0 2.668h5.332V8H4zM15.332 8A4.655 4.655 0 0 1 20 12.668a4.655 4.655 0 0 1-4.668 4.664 4.655 4.655 0 0 1-4.664-4.664A4.655 4.655 0 0 1 15.332 8zm0 1.332A3.35 3.35 0 0 0 12 12.668 3.35 3.35 0 0 0 15.332 16a3.343 3.343 0 0 0 3.336-3.332 3.35 3.35 0 0 0-3.336-3.336z"/></svg>