<svg xmlns="http://www.w3.org/2000/svg" width="16" height="16" viewBox="0 0 16 16"><path d="M1.75 1A1.75 1.75 0 0 0 0 2.75v7.5A1.75 1.75 0 0 0 1.75 12h3.727c-.1 1.041-.52 1.873-1.291 2.758A.75.75 0 0 0 4.75 16h6.5a.752.752 0 0 0 .564-1.242c-.772-.885-1.192-1.717-1.29-2.758h3.726A1.75 1.75 0 0 0 16 10.25v-7.5A1.75 1.75 0 0 0 14.25 1zm0 1.5h12.5a.25.25 0 0 1 .25.25v7.5a.25.25 0 0 1-.25.25H1.75a.25.25 0 0 1-.25-.25v-7.5a.25.25 0 0 1 .25-.25zM6.982 12h2.036a5.7 5.7 0 0 0 .765 2.5H6.217a5.7 5.7 0 0 0 .765-2.5z"/></svg>