<svg xmlns="http://www.w3.org/2000/svg" width="24" height="24" viewBox="0 0 24 24"><path d="M8.773 2a1.75 1.75 0 0 0-1.75 1.75v11.498a1.75 1.75 0 0 0 1.75 1.75H20.25a1.75 1.75 0 0 0 1.75-1.75V3.75A1.75 1.75 0 0 0 20.25 2zm0 1.5H20.25a.25.25 0 0 1 .25.25v11.498a.25.25 0 0 1-.25.25H8.773a.25.25 0 0 1-.25-.25V3.75a.25.25 0 0 1 .25-.25zm5.74 2.5a.75.75 0 0 0-.75.75v2H11.75a.75.75 0 0 0 0 1.5h2.014v2a.75.75 0 0 0 1.5 0v-2h1.986a.75.75 0 0 0 0-1.5h-1.986v-2a.75.75 0 0 0-.75-.75zM3.745 8.998a1.75 1.75 0 0 0-1.75 1.75L2 20.25A1.75 1.75 0 0 0 3.75 22h9.5A1.75 1.75 0 0 0 15 20.25v-1.51a.75.75 0 0 0-1.5 0v1.51a.25.25 0 0 1-.25.25h-9.5a.25.25 0 0 1-.25-.25l-.006-9.502a.25.25 0 0 1 .25-.25H5.25a.75.75 0 0 0 0-1.5z"/></svg>