<svg xmlns="http://www.w3.org/2000/svg" width="16" height="16" viewBox="0 0 16 16"><path d="M6.75 0A1.75 1.75 0 0 0 5 1.75v7.5A1.75 1.75 0 0 0 6.75 11h7.5A1.75 1.75 0 0 0 16 9.25v-7.5A1.75 1.75 0 0 0 14.25 0zm0 1.5h7.5a.25.25 0 0 1 .25.25v7.5a.25.25 0 0 1-.25.25h-7.5a.25.25 0 0 1-.25-.25v-7.5a.25.25 0 0 1 .25-.25zM10.5 3a.75.75 0 0 0-.75.75v1h-1a.75.75 0 0 0 0 1.5h1v1a.75.75 0 0 0 1.5 0v-1h1a.75.75 0 0 0 0-1.5h-1v-1A.75.75 0 0 0 10.5 3zM1.75 5A1.75 1.75 0 0 0 0 6.75v7.5C0 15.216.784 16 1.75 16h7.5A1.75 1.75 0 0 0 11 14.25v-1.5a.75.75 0 0 0-1.5 0v1.5a.25.25 0 0 1-.25.25h-7.5a.25.25 0 0 1-.25-.25v-7.5a.25.25 0 0 1 .25-.25h1.5a.75.75 0 0 0 0-1.5z"/></svg>