<svg xmlns="http://www.w3.org/2000/svg" width="16" height="16" viewBox="0 0 16 16"><path d="M8 0a8 8 0 0 0 0 16A8 8 0 0 0 8 0zM5.5 3.5A1.752 1.752 0 0 1 6 6.928v1.894a1.75 1.75 0 0 1-.5 3.428A1.752 1.752 0 0 1 5 8.822V6.928A1.75 1.75 0 0 1 5.5 3.5zm4.264.154a.5.5 0 0 1 .222.125l.532.532.53-.532a.5.5 0 0 1 .708.707l-.531.532.53.53a.5.5 0 0 1-.706.708l-.531-.531-.532.53a.5.5 0 0 1-.707-.706l.532-.531-.532-.532a.5.5 0 0 1 .485-.832zM10.5 7.25a.5.5 0 0 1 .5.5v1.072a1.75 1.75 0 0 1-.5 3.428 1.752 1.752 0 0 1-.5-3.428V7.75a.5.5 0 0 1 .5-.5z"/></svg>