<svg xmlns="http://www.w3.org/2000/svg" width="16" height="16" viewBox="0 0 16 16"><path d="M5.75 0A1.75 1.75 0 0 0 4 1.75v2.5a.75.75 0 0 0 1.5 0v-2.5a.25.25 0 0 1 .25-.25H10v2.75A1.75 1.75 0 0 0 11.75 6h2.75v7.25a.25.25 0 0 1-.25.25h-9a.75.75 0 0 0 0 1.5h9A1.75 1.75 0 0 0 16 13.25V4.664c0-.464-.185-.908-.514-1.236L12.572.514A1.75 1.75 0 0 0 11.336 0zm5.75 1.563.014.01 2.914 2.913.01.014H11.75a.25.25 0 0 1-.25-.25zM6.25 6.5a.75.75 0 0 0-.53.22.75.75 0 0 0 0 1.06l1.47 1.47-1.47 1.47a.75.75 0 0 0-.214.733.749.749 0 0 0 1.273.326l2-2a.75.75 0 0 0 0-1.058l-2-2A.75.75 0 0 0 6.25 6.5zm-3.506.02a.75.75 0 0 0-.523.2l-2 2a.75.75 0 0 0 0 1.06l2 2a.75.75 0 0 0 1.04-.018.75.75 0 0 0 .018-1.041L1.811 9.25l1.468-1.47a.75.75 0 0 0-.017-1.042.75.75 0 0 0-.518-.218z"/></svg>