<svg xmlns="http://www.w3.org/2000/svg" width="24" height="24" viewBox="0 0 24 24"><path d="M5 1a2 2 0 0 0-2 2v18a2 2 0 0 0 2 2h1.75a.75.75 0 0 0 0-1.5H5a.5.5 0 0 1-.5-.5V3a.5.5 0 0 1 .5-.5h9.982a.5.5 0 0 1 .354.146l4.018 4.018a.5.5 0 0 1 .146.354V21a.5.5 0 0 1-.5.5h-2.75a.75.75 0 0 0 0 1.5H19a2 2 0 0 0 2-2V7.018a2 2 0 0 0-.586-1.414l-4.018-4.018A2 2 0 0 0 14.982 1zm7.25 2a.75.75 0 0 0-.75.75.75.75 0 0 0 .75.75h1a.75.75 0 0 0 0-1.5zm-2.5 1.5a.75.75 0 0 0-.75.75.75.75 0 0 0 .75.75h1a.75.75 0 0 0 0-1.5zm2.5 1.5a.75.75 0 0 0 0 1.5h1a.75.75 0 0 0 0-1.5zm-2.5 1.5a.75.75 0 0 0 0 1.5h1a.75.75 0 0 0 0-1.5zm2.5 1.5a.75.75 0 0 0-.75.75.75.75 0 0 0 .75.75h1a.75.75 0 0 0 0-1.5zm-2.5 1.5a.75.75 0 0 0-.75.75.75.75 0 0 0 .75.75h1a.75.75 0 0 0 0-1.5zm2.5 1.5a.75.75 0 0 0 0 1.5h1a.75.75 0 0 0 0-1.5zm-2.5 1.5a.75.75 0 0 0 0 1.5h1a.75.75 0 0 0 0-1.5zm2.5 1.5a.75.75 0 0 0-.75.75.75.75 0 0 0 .75.75h1a.75.75 0 0 0 0-1.5zM11 17a2 2 0 0 0-2 2v4.25a.75.75 0 0 0 .75.75h3.5a.75.75 0 0 0 .75-.75V19a2 2 0 0 0-2-2zm0 1.5h1a.5.5 0 0 1 .5.5v3.5h-2V19a.5.5 0 0 1 .5-.5z"/></svg>