<svg xmlns="http://www.w3.org/2000/svg" width="24" height="24" viewBox="0 0 24 24"><path d="M2.25 2.5A1.75 1.75 0 0 0 .5 4.25v15.5a1.75 1.75 0 0 0 1.75 1.75h19.5a1.75 1.75 0 0 0 1.75-1.75V4.25a1.75 1.75 0 0 0-1.75-1.75zm0 1.5h19.5a.25.25 0 0 1 .25.25v12.19l-5.494-5.495a1.75 1.75 0 0 0-2.506.032L5.428 20H2.25a.25.25 0 0 1-.25-.25V4.25A.25.25 0 0 1 2.25 4zm5 2A3.25 3.25 0 0 0 4 9.25a3.25 3.25 0 0 0 6.5 0A3.25 3.25 0 0 0 7.25 6zm-.305 1.527A1.75 1.75 0 0 1 9 9.25a1.751 1.751 0 0 1-3.502.002 1.75 1.75 0 0 1 1.447-1.725zm8.32 4.407a.25.25 0 0 1 .18.072L22 18.56v1.189a.25.25 0 0 1-.25.25H7.496l7.592-7.99a.25.25 0 0 1 .178-.076z"/></svg>