<svg xmlns="http://www.w3.org/2000/svg" width="16" height="16" viewBox="0 0 16 16"><path d="M1.75 0A1.75 1.75 0 0 0 0 1.75v10.5A1.75 1.75 0 0 0 1.75 14v.25a.75.75 0 0 0 1.5 0V14h9.5v.25a.75.75 0 0 0 1.5 0V14A1.75 1.75 0 0 0 16 12.25V1.75A1.75 1.75 0 0 0 14.25 0zm0 1.5h12.5a.25.25 0 0 1 .25.25v10.5a.25.25 0 0 1-.25.25H1.75a.25.25 0 0 1-.25-.25V1.75a.25.25 0 0 1 .25-.25zM5 2.5a1 1 0 0 0-1 1v1.25h-.75a.75.75 0 0 0 0 1.5H4v1.5h-.75a.75.75 0 0 0 0 1.5H4v1.25a1 1 0 0 0 1 1h7.5a1 1 0 0 0 1-1v-7a1 1 0 0 0-1-1zM5.5 4H12v6H5.5v-.793a.75.75 0 0 0 0-1.414V6.207a.75.75 0 0 0 0-1.414zM10 6a1 1 0 0 0 0 2 1 1 0 0 0 0-2z"/></svg>