<svg xmlns="http://www.w3.org/2000/svg" width="24" height="24" viewBox="0 0 24 24"><path d="M4.75 1.5a3.25 3.25 0 0 0-.744 6.414L4 8v8l.006.086A3.25 3.25 0 0 0 4.75 22.5a3.25 3.25 0 0 0 .744-6.414L5.5 16V8l-.006-.086A3.25 3.25 0 0 0 4.75 1.5zm14.5 1a1.75 1.75 0 0 0 0 3.5 1.75 1.75 0 0 0 0-3.5zm-14.805.525a1.75 1.75 0 0 1 2.057 1.723A1.751 1.751 0 1 1 3 4.75a1.75 1.75 0 0 1 1.445-1.725zm14.5 6.502A1.75 1.75 0 0 0 17.5 11.25a1.75 1.75 0 0 0 3.5 0 1.75 1.75 0 0 0-2.055-1.723zM19.25 16A3.25 3.25 0 0 0 16 19.25a3.25 3.25 0 0 0 6.5 0A3.25 3.25 0 0 0 19.25 16zm0 1.5a1.751 1.751 0 0 1 .002 3.502 1.751 1.751 0 0 1-.002-3.502zm-14.805.025a1.75 1.75 0 0 1 2.057 1.723A1.751 1.751 0 1 1 3 19.25a1.75 1.75 0 0 1 1.445-1.725z"/></svg>