<svg xmlns="http://www.w3.org/2000/svg" width="24" height="24" viewBox="0 0 24 24"><path d="M5.75 1.5A3.25 3.25 0 0 0 2.5 4.75a3.25 3.25 0 0 0 2.516 3.152A1 1 0 0 0 5 8v8a1 1 0 0 0 .016.098A3.25 3.25 0 0 0 2.5 19.25a3.25 3.25 0 0 0 6.5 0 3.25 3.25 0 0 0-2.516-3.152A1 1 0 0 0 6.5 16v-4.525A6.75 6.75 0 0 0 11.75 14h3.35a3.25 3.25 0 0 0 6.4-.75 3.25 3.25 0 0 0-6.4-.75h-3.35a5.25 5.25 0 0 1-5.209-4.605A3.25 3.25 0 0 0 9 4.75 3.25 3.25 0 0 0 5.75 1.5zm-.002 1.498A1.751 1.751 0 0 1 5.75 6.5a1.751 1.751 0 0 1-.002-3.502zm12.5 8.5A1.751 1.751 0 1 1 18.25 15a1.751 1.751 0 0 1-.002-3.502zm-12.5 6A1.751 1.751 0 0 1 5.75 21a1.751 1.751 0 0 1-.002-3.502z"/></svg>