<svg xmlns="http://www.w3.org/2000/svg" width="24" height="24" viewBox="0 0 24 24"><path d="M16.504 1.436a.75.75 0 0 0-.326 1.275l1.982 1.982-1.982 1.985a.75.75 0 0 0 1.06 1.06l1.985-1.982 1.982 1.982a.75.75 0 0 0 1.06-1.06l-1.984-1.985 1.985-1.982a.75.75 0 1 0-1.06-1.06l-1.983 1.984-1.985-1.985a.75.75 0 0 0-.734-.214zM4.75 1.5a3.25 3.25 0 0 0-.744 6.414L4 8v8l.006.086A3.25 3.25 0 0 0 4.75 22.5a3.25 3.25 0 0 0 .744-6.414L5.5 16V8l-.006-.086A3.25 3.25 0 0 0 4.75 1.5zm-.305 1.525a1.75 1.75 0 0 1 2.057 1.723A1.751 1.751 0 1 1 3 4.75a1.75 1.75 0 0 1 1.445-1.725zm14.805 5.85a.75.75 0 0 0-.75.75v6.463A3.25 3.25 0 0 0 16 19.25a3.25 3.25 0 0 0 3.25 3.25 3.252 3.252 0 0 0 .75-6.412V9.625a.75.75 0 0 0-.75-.75zm0 8.625a1.751 1.751 0 0 1 .002 3.502 1.751 1.751 0 0 1-.002-3.502zm-14.805.025a1.75 1.75 0 0 1 2.057 1.723A1.751 1.751 0 1 1 3 19.25a1.75 1.75 0 0 1 1.445-1.725z"/></svg>