<svg xmlns="http://www.w3.org/2000/svg" width="16" height="16" viewBox="0 0 16 16"><path d="M8 0a8 8 0 0 0 0 16A8 8 0 0 0 8 0zM6.209 1.75a14 14 0 0 0-.354.553C5.141 3.495 4.42 5.176 4.275 7.25H1.543a6.51 6.51 0 0 1 4.666-5.5zm3.582 0a6.51 6.51 0 0 1 4.666 5.5h-2.732c-.144-2.074-.866-3.755-1.58-4.947q-.17-.281-.354-.553zM8 1.857c.245.296.55.705.857 1.215a9.64 9.64 0 0 1 1.364 4.178H5.779a9.64 9.64 0 0 1 1.364-4.178A10 10 0 0 1 8 1.857zM1.543 8.75h2.732c.144 2.074.867 3.755 1.582 4.947q.168.281.352.553a6.51 6.51 0 0 1-4.666-5.5zm4.236 0h4.442a9.64 9.64 0 0 1-1.364 4.178A10 10 0 0 1 8 14.143a10 10 0 0 1-.857-1.215A9.64 9.64 0 0 1 5.779 8.75zm5.946 0h2.732a6.51 6.51 0 0 1-4.666 5.5q.174-.257.354-.553c.714-1.192 1.436-2.873 1.58-4.947z"/></svg>