<svg xmlns="http://www.w3.org/2000/svg" width="24" height="24" viewBox="0 0 24 24"><path d="M12 1C5.373 1 0 6.373 0 13v8.656a.75.75 0 0 0 1.5 0V13C1.5 7.201 6.201 2.5 12 2.5S22.5 7.201 22.5 13v8.656a.75.75 0 0 0 1.5 0V13c0-6.627-5.373-12-12-12zM5.25 9.5a1.75 1.75 0 0 0-1.75 1.75v3.5a1.75 1.75 0 0 0 1.75 1.75h13.5a1.75 1.75 0 0 0 1.75-1.75v-3.5a1.75 1.75 0 0 0-1.75-1.75zm12.69 1.236a.8.8 0 0 1 .263.02.749.749 0 0 1 .326 1.273l-3 3a.75.75 0 0 1-1.058 0L12 12.561l-2.47 2.468a.75.75 0 0 1-1.06 0l-3-3a.75.75 0 0 1 0-1.058.75.75 0 0 1 1.06 0L9 13.439l2.47-2.468a.75.75 0 0 1 1.06 0L15 13.439l2.47-2.468a.75.75 0 0 1 .47-.235zM8.75 19a.75.75 0 0 0-.75.75.75.75 0 0 0 .75.75h6.5a.75.75 0 0 0 0-1.5z"/></svg>