<svg xmlns="http://www.w3.org/2000/svg" width="16" height="16" viewBox="0 0 16 16"><path d="M1.75 1A1.75 1.75 0 0 0 0 2.75v10.5A1.75 1.75 0 0 0 1.75 15h12.5A1.75 1.75 0 0 0 16 13.25V2.75A1.75 1.75 0 0 0 14.25 1zm0 1.5h12.5a.25.25 0 0 1 .25.25v7.56l-3.291-2.978a1.75 1.75 0 0 0-2.412.06l-6.077 6.08-.032.029H1.75a.25.25 0 0 1-.25-.25V2.75a.25.25 0 0 1 .25-.25zm2.969 1.564a2 2 0 0 0-1.717 1.938A2 2 0 1 0 7 6a2 2 0 0 0-2.281-1.936zM5 5.5a.5.5 0 0 1 .5.5.5.5 0 0 1-1 0 .5.5 0 0 1 .5-.5zm5.027 2.88a.25.25 0 0 1 .174.063l4.299 3.889v.918a.25.25 0 0 1-.25.25H4.81l5.047-5.047a.25.25 0 0 1 .17-.072z"/></svg>