<svg xmlns="http://www.w3.org/2000/svg" width="16" height="16" viewBox="0 0 16 16"><path d="M4.41 1A1.75 1.75 0 0 0 2.8 2.06L.06 8.456A.8.8 0 0 0 0 8.75v4.5A1.75 1.75 0 0 0 1.75 15h12.5A1.75 1.75 0 0 0 16 13.25v-4.5a.8.8 0 0 0-.06-.295L13.2 2.061A1.75 1.75 0 0 0 11.59 1zm0 1.5h7.18a.25.25 0 0 1 .23.152L14.113 8H11.25a.75.75 0 0 0-.6.3L9.375 10h-2.75L5.35 8.3a.75.75 0 0 0-.6-.3H1.887L4.18 2.652a.25.25 0 0 1 .23-.152zm-2.91 7h2.875l1.275 1.7a.75.75 0 0 0 .6.3h3.5a.75.75 0 0 0 .6-.3l1.275-1.7H14.5v3.75a.25.25 0 0 1-.25.25H1.75a.25.25 0 0 1-.25-.25z"/></svg>