<svg xmlns="http://www.w3.org/2000/svg" width="24" height="24" viewBox="0 0 24 24"><path d="M11.383 1.018a11 11 0 0 0-1.227.136v-.002a.75.75 0 1 0 .25 1.48 9.6 9.6 0 0 1 3.188 0 .75.75 0 0 0 .25-1.478 11 11 0 0 0-2.461-.136zM5.996 2.893a.75.75 0 0 0-.363.134 11 11 0 0 0-2.606 2.606.75.75 0 0 0 1.223.87 9.6 9.6 0 0 1 2.254-2.251.75.75 0 0 0 .176-1.047.75.75 0 0 0-.684-.312zm12.006 0a.75.75 0 0 0-.682.312.75.75 0 0 0 .176 1.047 9.6 9.6 0 0 1 2.252 2.252.75.75 0 1 0 1.223-.87 11 11 0 0 0-2.606-2.607.75.75 0 0 0-.363-.134zM2.018 9.543a.75.75 0 0 0-.866.613 11 11 0 0 0 0 3.688.75.75 0 1 0 1.48-.25 9.6 9.6 0 0 1 0-3.188.75.75 0 0 0-.614-.863zm19.964 0a.75.75 0 0 0-.615.863 9.6 9.6 0 0 1 0 3.188.75.75 0 0 0 1.479.25 11 11 0 0 0 0-3.688.75.75 0 0 0-.864-.613zM3.568 17.186a.75.75 0 0 0-.363.134.75.75 0 0 0-.178 1.045 11 11 0 0 0 2.606 2.608.751.751 0 1 0 .87-1.225 9.6 9.6 0 0 1-2.251-2.252.75.75 0 0 0-.684-.31zm16.864 0a.75.75 0 0 0-.684.31 9.6 9.6 0 0 1-2.252 2.252.75.75 0 1 0 .87 1.223 11 11 0 0 0 2.605-2.606.75.75 0 0 0-.176-1.045.75.75 0 0 0-.363-.134zm-10.026 4.181a.75.75 0 0 0-.863.615.75.75 0 0 0 .613.866 11 11 0 0 0 3.688 0 .75.75 0 1 0-.25-1.48 9.6 9.6 0 0 1-3.188 0z"/></svg>