<svg xmlns="http://www.w3.org/2000/svg" width="24" height="24" viewBox="0 0 24 24"><path d="M12 1C7.415 1 4 4.362 4 8.617c0 2.033.87 3.398 1.756 4.5.185.231.375.456.555.668l.091.11a18 18 0 0 1 .582.714c.356.467.614.898.752 1.358a.75.75 0 0 0 1.438-.434c-.212-.706-.592-1.303-.996-1.834a21 21 0 0 0-.63-.773l-.097-.112c-.18-.213-.353-.42-.525-.634-.793-.988-1.426-2.025-1.426-3.56C5.5 5.242 8.19 2.5 12 2.5s6.5 2.743 6.5 6.12c0 1.535-.633 2.57-1.426 3.56-.172.214-.345.421-.525.634l-.096.112c-.21.25-.429.507-.63.773-.406.531-.784 1.128-.997 1.834a.751.751 0 0 0 1.438.434c.138-.46.396-.89.752-1.358.177-.233.372-.466.582-.714l.091-.11c.18-.213.37-.436.555-.666C19.13 12.016 20 10.651 20 8.62 20 4.362 16.585 1 12 1zM8.75 18a.75.75 0 0 0 0 1.5h6.5a.75.75 0 0 0 0-1.5zm1.5 3a.75.75 0 0 0-.75.75.75.75 0 0 0 .75.75h3.5a.75.75 0 0 0 0-1.5z"/></svg>