<svg xmlns="http://www.w3.org/2000/svg" width="16" height="16" viewBox="0 0 16 16"><path d="M8 0C4.863 0 2.5 2.31 2.5 5.25c0 1.516.701 2.5 1.328 3.26.095.115.184.218.268.318a9 9 0 0 1 .543.682c.207.3.329.563.369.845a.75.75 0 0 0 1.484-.21c-.084-.594-.337-1.08-.62-1.49-.204-.293-.452-.584-.675-.848l-.213-.252C4.424 6.875 4 6.234 4 5.25 4 3.19 5.637 1.5 8 1.5s4 1.69 4 3.75c0 .984-.423 1.626-.984 2.305q-.1.12-.213.252c-.223.264-.471.555-.674.847-.284.411-.537.898-.621 1.49a.751.751 0 0 0 1.484.211c.04-.282.163-.545.371-.845a9 9 0 0 1 .541-.682q.126-.147.268-.318c.627-.76 1.328-1.744 1.328-3.26C13.5 2.31 11.137 0 8 0zM5.75 12a.75.75 0 0 0 0 1.5h4.5a.75.75 0 0 0 0-1.5zm1 2.5a.75.75 0 0 0-.75.75.75.75 0 0 0 .75.75h2.5a.75.75 0 0 0 0-1.5z"/></svg>