<svg xmlns="http://www.w3.org/2000/svg" width="24" height="24" viewBox="0 0 24 24"><path d="M3.348 3.006a.75.75 0 0 0-.514.121l-1.5 1a.75.75 0 0 0 .832 1.246L2.5 5.15V8.5h-.75a.75.75 0 0 0 0 1.5h3a.75.75 0 0 0 0-1.5H4V3.75a.75.75 0 0 0-.396-.66.8.8 0 0 0-.256-.084zM8.75 5.5a.75.75 0 0 0 0 1.5h11.5a.75.75 0 0 0 0-1.5zm0 6a.75.75 0 0 0 0 1.5h11.5a.75.75 0 0 0 0-1.5zm-5.5 2c-.535 0-1.093.177-1.53.564-.448.4-.72.983-.72 1.686a.75.75 0 0 0 1.5 0c0-.296.104-.464.217-.564A.8.8 0 0 1 3.25 15c.215 0 .406.073.533.186.113.1.217.267.217.564 0 .332-.07.48-.21.656a5 5 0 0 1-.403.42l-.147.14c-.152.145-.33.314-.52.505l-1.5 1.5A.75.75 0 0 0 1 19.5v.25c0 .414.336.75.75.75H5A.75.75 0 0 0 5 19H3.31l.47-.47c.175-.177.333-.325.48-.466l.166-.156a6 6 0 0 0 .535-.564c.358-.447.539-.926.539-1.594 0-.704-.272-1.286-.72-1.686a2.3 2.3 0 0 0-1.53-.564zm5.5 4a.75.75 0 0 0 0 1.5h11.5a.75.75 0 0 0 0-1.5z"/></svg>