<svg xmlns="http://www.w3.org/2000/svg" width="24" height="24" viewBox="0 0 24 24"><path d="M12 .5c-2.56 0-5.118.977-7.07 2.93-3.905 3.905-3.905 10.235 0 14.14l.027.03 5.375 5.375a2.36 2.36 0 0 0 3.338 0l5.402-5.405c3.905-3.905 3.905-10.235 0-14.14h-.002A9.97 9.97 0 0 0 12 .5zm-.75 1.572a8.5 8.5 0 0 1 6.717 2.461 8.5 8.5 0 0 1 .043 11.977l-5.403 5.404a.86.86 0 0 1-1.214 0l-5.377-5.379-.002-.002-.024-.023a8.5 8.5 0 0 1 0-12.02v-.002a8.5 8.5 0 0 1 5.26-2.416zM12 8.5a2.5 2.5 0 0 0 0 5 2.5 2.5 0 0 0 0-5z"/></svg>