<svg xmlns="http://www.w3.org/2000/svg" width="24" height="24" viewBox="0 0 24 24"><path d="M12.236 1.002a10.94 10.94 0 0 0-5.734 1.473C1.241 5.512-.562 12.239 2.475 17.498c3.037 5.261 9.763 7.064 15.023 4.027a.75.75 0 0 0-.75-1.298c-4.543 2.622-10.35 1.063-12.973-3.479C1.153 12.205 2.71 6.398 7.252 3.775S17.604 2.708 20.227 7.25v.002a9.46 9.46 0 0 1 1.273 4.732v1.766a2 2 0 0 1-4 0v-1.973a1 1 0 0 0-.012-.129 5.5 5.5 0 1 0-1.111 3.682A3.5 3.5 0 0 0 23 13.75V11.5a1 1 0 0 0-.02-.174 10.96 10.96 0 0 0-1.455-4.824 10.99 10.99 0 0 0-9.289-5.5zM12 8a4 4 0 0 1 4 4 4 4 0 0 1-8 0 4 4 0 0 1 4-4z"/></svg>