<svg xmlns="http://www.w3.org/2000/svg" width="24" height="24" viewBox="0 0 24 24"><path d="M12 2a.8.8 0 0 0-.293.06L.457 6.81a.75.75 0 0 0 0 1.38L4.25 9.792v3.803a2.9 2.9 0 0 0-1.326.758c-.58.58-.924 1.41-.924 2.43v4.5a.76.76 0 0 0 .336.622 2 2 0 0 0 .219.125 4 4 0 0 0 .52.213A6.1 6.1 0 0 0 5 22.531a6.1 6.1 0 0 0 1.926-.287 4 4 0 0 0 .52-.213 2 2 0 0 0 .208-.117A.76.76 0 0 0 8 21.28v-4.5c0-1.018-.345-1.85-.924-2.427a2.9 2.9 0 0 0-1.326-.758v-3.17l5.957 2.515a.75.75 0 0 0 .586 0l5.207-2.2v4.002l-.078.086c-.253.253-.54.473-.85.65-.826.489-2.255 1.02-4.572 1.02-.612 0-1.162-.037-1.654-.1a.75.75 0 0 0-.192 1.489q.838.11 1.846.111c2.558 0 4.254-.59 5.334-1.228a5.5 5.5 0 0 0 1.162-.897 3 3 0 0 0 .393-.482h.002A.75.75 0 0 0 19 15v-4.893l4.543-1.916a.749.749 0 0 0 0-1.382l-11.25-4.75v.002A.8.8 0 0 0 12 2zm0 1.564L21.322 7.5 12 11.436 2.678 7.5zM5 15a1.43 1.43 0 0 1 1.018.412c.265.265.482.698.482 1.367v4.024c-.299.105-.797.228-1.5.228s-1.201-.123-1.5-.228V16.78c0-.668.217-1.104.482-1.369A1.44 1.44 0 0 1 5 15z"/></svg>