<svg xmlns="http://www.w3.org/2000/svg" width="24" height="24" viewBox="0 0 24 24"><path d="M11.346 3.006a.75.75 0 0 0-.602.19L5.461 8H2.75A1.75 1.75 0 0 0 1 9.75v4.5A1.75 1.75 0 0 0 2.75 16h2.71l5.284 4.805A.75.75 0 0 0 12 20.25V3.75a.75.75 0 0 0-.654-.744zm-.846 2.44v13.109l-4.244-3.86a.75.75 0 0 0-.506-.195h-3a.25.25 0 0 1-.25-.25v-4.5a.25.25 0 0 1 .25-.25h3a.75.75 0 0 0 .506-.195zm5.045 2.558a.75.75 0 0 0-.324 1.275L17.939 12l-2.718 2.72a.75.75 0 1 0 1.058 1.06L19 13.06l2.72 2.72a.75.75 0 1 0 1.06-1.06L20.06 12l2.72-2.72a.75.75 0 0 0-1.06-1.06L19 10.94l-2.72-2.72a.75.75 0 0 0-.735-.216z"/></svg>