<svg xmlns="http://www.w3.org/2000/svg" width="24" height="24" viewBox="0 0 24 24"><path d="M15.092 1.053a1.75 1.75 0 0 0-1.848 1.103l-.52 1.34a7.1 7.1 0 0 1-1.855 2.7.75.75 0 0 0 1.012 1.109 8.66 8.66 0 0 0 2.242-3.266l.522-1.34a.25.25 0 0 1 .408-.086l6.334 6.334a.25.25 0 0 1-.086.408l-1.897.739a6.7 6.7 0 0 0-2.326 1.517l-.357.36a.75.75 0 1 0 1.058 1.058l.36-.357a5.3 5.3 0 0 1 1.808-1.18l1.897-.736a1.75 1.75 0 0 0 .603-2.87l-6.334-6.333a1.75 1.75 0 0 0-1.021-.5zm-12.217.822a.72.72 0 0 0-.53.22.72.72 0 0 0-.22.53.72.72 0 0 0 .22.53L6.933 7.74l-2.004.572a1.75 1.75 0 0 0-.756 2.92L7.942 15l-5.596 5.596a.72.72 0 0 0-.221.529.72.72 0 0 0 .22.53.72.72 0 0 0 .53.22.72.72 0 0 0 .53-.22L9 16.058l3.768 3.77a1.75 1.75 0 0 0 2.92-.757l.572-2.004 4.836 4.836a.72.72 0 0 0 .529.221.72.72 0 0 0 .53-.22.72.72 0 0 0 .22-.53.72.72 0 0 0-.22-.53L3.404 2.096a.72.72 0 0 0-.53-.22zm5.27 7.078 6.902 6.902-.8 2.805a.25.25 0 0 1-.419.108l-8.596-8.596a.25.25 0 0 1 .108-.418z"/></svg>