<svg xmlns="http://www.w3.org/2000/svg" width="24" height="24" viewBox="0 0 24 24"><path d="M5.75 1.5A3.25 3.25 0 0 0 2.5 4.75 3.25 3.25 0 0 0 5 7.9v.85a3.75 3.75 0 0 0 3.75 3.75h2.5v3.6a3.25 3.25 0 0 0-2.5 3.15 3.25 3.25 0 0 0 6.5 0 3.25 3.25 0 0 0-2.5-3.15v-3.6h2.5A3.75 3.75 0 0 0 19 8.75V7.9a3.25 3.25 0 0 0 2.5-3.15 3.25 3.25 0 0 0-6.5 0 3.25 3.25 0 0 0 2.5 3.15v.85A2.25 2.25 0 0 1 15.25 11h-6.5A2.25 2.25 0 0 1 6.5 8.75V7.9A3.25 3.25 0 0 0 9 4.75 3.25 3.25 0 0 0 5.75 1.5zm-.002 1.498A1.751 1.751 0 0 1 5.75 6.5a1.751 1.751 0 0 1-.002-3.502zm12.5 0A1.751 1.751 0 0 1 18.25 6.5a1.751 1.751 0 0 1-.002-3.502zm-6.25 14.5A1.751 1.751 0 0 1 12 21a1.751 1.751 0 0 1-.002-3.502z"/></svg>