<svg xmlns="http://www.w3.org/2000/svg" width="24" height="24" viewBox="0 0 24 24"><path d="M8.25 3a.75.75 0 0 0-.75.75v3.5a.25.25 0 0 1-.25.25h-3.5a.75.75 0 0 0 0 1.5h3.5A1.75 1.75 0 0 0 9 7.25v-3.5A.75.75 0 0 0 8.25 3zm7.5 0a.75.75 0 0 0-.75.75v3.5A1.75 1.75 0 0 0 16.75 9h3.5a.75.75 0 0 0 0-1.5h-3.5a.25.25 0 0 1-.25-.25v-3.5a.75.75 0 0 0-.75-.75zm-12 12a.75.75 0 0 0-.75.75.75.75 0 0 0 .75.75h3.5a.25.25 0 0 1 .25.25v3.5a.75.75 0 0 0 1.5 0v-3.5A1.75 1.75 0 0 0 7.25 15zm13 0A1.75 1.75 0 0 0 15 16.75v3.5a.75.75 0 0 0 1.5 0v-3.5a.25.25 0 0 1 .25-.25h3.5a.75.75 0 0 0 0-1.5z"/></svg>