<svg xmlns="http://www.w3.org/2000/svg" width="24" height="24" viewBox="0 0 24 24"><path d="M16.809 2.018a3.5 3.5 0 0 0-3.635 4.576L8.063 9.615a3.5 3.5 0 0 0-3.844-.873 3.499 3.499 0 1 0 3.843 5.643l5.112 3.02a3.5 3.5 0 0 0 1.39.632 2 2 0 0 1 .58-1.02 3.5 3.5 0 0 0-1.207-.902l-5.11-3.021a3.5 3.5 0 0 0 0-2.188l5.11-3.021A3.498 3.498 0 0 0 20 5.5a3.5 3.5 0 0 0-3.191-3.482zm-1.664 15a3.5 3.5 0 0 1 3.117 2.334 2 2 0 0 0 .238-.852 2 2 0 0 0-3.355-1.482zm3.117 2.334a2 2 0 0 1-.157.294 4 4 0 0 0 .157-.294zm-.157.294a3.5 3.5 0 0 1-3.54-1.609 2 2 0 0 0-.063.461 2 2 0 0 0 3.603 1.148zm-1.603-16.19A2 2 0 0 1 18.5 5.5a2 2 0 0 1-3.998-.002 2 2 0 0 1 2-2.043zm-11 6.546A2 2 0 1 1 5.5 14a2 2 0 0 1 .002-3.998z"/></svg>