<svg xmlns="http://www.w3.org/2000/svg" width="24" height="24" viewBox="0 0 24 24"><path d="M12 1.05a1.8 1.8 0 0 0-.54.087L6.019 2.904a.75.75 0 0 0 .464 1.428l5.442-1.768a.24.24 0 0 1 .152 0l8.25 2.674a.25.25 0 0 1 .174.239V10.5c0 1.284-.24 2.83-.695 3.97a.75.75 0 1 0 1.39.557c.544-1.358.805-3.1.805-4.527V5.477a1.75 1.75 0 0 0-1.21-1.665l-8.25-2.675A1.8 1.8 0 0 0 12 1.05zM1.604 2.774a.751.751 0 0 0-.561 1.323l.975.748A.7.7 0 0 0 2 5v5.5c0 6.189 3.77 10.704 9.4 12.828a1.7 1.7 0 0 0 1.2.002c2.483-.937 4.61-2.34 6.213-4.16l.007-.01.008-.01.703-.851 2.012 1.547a.751.751 0 0 0 .914-1.192l-20.5-15.75a.75.75 0 0 0-.353-.13zM3.5 5.983l14.842 11.402-.662.802c-1.418 1.607-3.329 2.878-5.612 3.739a.2.2 0 0 1-.136 0C6.782 19.983 3.5 15.96 3.5 10.5z"/></svg>