<svg xmlns="http://www.w3.org/2000/svg" width="24" height="24" viewBox="0 0 24 24"><path d="M11.25 4a.75.75 0 0 0-.75.75v.75H3.75a.75.75 0 0 0-.75.75.75.75 0 0 0 .75.75h6.75v.75a.75.75 0 0 0 1.5 0v-3a.75.75 0 0 0-.75-.75zm3.5 1.5a.75.75 0 0 0-.75.75.75.75 0 0 0 .75.75h5.5a.75.75 0 0 0 0-1.5zm2 4.5a.75.75 0 0 0-.75.75v3a.75.75 0 0 0 1.5 0V13h2.75a.75.75 0 0 0 0-1.5H17.5v-.75a.75.75 0 0 0-.75-.75zm-13 1.5a.75.75 0 0 0-.75.75.75.75 0 0 0 .75.75h8.5a.75.75 0 0 0 0-1.5zm5 4.5a.75.75 0 0 0-.75.75v.75H3.75a.75.75 0 0 0-.75.75.75.75 0 0 0 .75.75H8v.75a.75.75 0 0 0 1.5 0v-3a.75.75 0 0 0-.75-.75zm3 1.5a.75.75 0 0 0-.75.75.75.75 0 0 0 .75.75h8.5a.75.75 0 0 0 0-1.5z"/></svg>