<svg xmlns="http://www.w3.org/2000/svg" width="16" height="16" viewBox="0 0 16 16"><path d="M8 0a8 8 0 0 0 0 16A8 8 0 0 0 8 0zm-.537 1.521A6.5 6.5 0 0 1 14.5 8a6.5 6.5 0 0 1-13 0 6.5 6.5 0 0 1 5.963-6.479zM5 6a1 1 0 0 0 0 2 1 1 0 0 0 0-2zm6 0a1 1 0 0 0-1 1 1 1 0 0 0 2 0 1 1 0 0 0-1-1zm-.787 3.498a.75.75 0 0 0-.57.313l-.008.007q-.155.178-.35.31c-.265.18-.683.372-1.285.372s-1.021-.191-1.285-.37a1.8 1.8 0 0 1-.35-.31l-.008-.01a.75.75 0 0 0-1.037-.173h-.002a.75.75 0 0 0-.181 1.043l.613-.43-.611.432v.002l.002.004.004.005.013.02a3.3 3.3 0 0 0 .715.656C6.347 11.691 7.054 12 8 12a3.77 3.77 0 0 0 2.127-.629q.289-.195.53-.445a2 2 0 0 0 .185-.213l.013-.02.004-.005.002-.004.002-.002a.75.75 0 0 0-.65-1.184z"/></svg>