<svg xmlns="http://www.w3.org/2000/svg" width="24" height="24" viewBox="0 0 24 24"><path d="M8.246 1.25c-2.307 0-3.996 1.878-3.996 4.5 0 2.293 1.23 4.465 3.297 6.484.48.472.98.91 1.48 1.31l-.261 1.31-1.377 7.511a.75.75 0 0 0 .98.844l3.512-1.207a.75.75 0 0 1 .488 0l3.512 1.207a.75.75 0 0 0 .982-.844l-1.375-7.5-.265-1.32c.502-.401 1.001-.84 1.482-1.31C18.77 10.212 20 8.041 20 5.75c0-2.622-1.69-4.5-3.996-4.5l-.22.006a4.73 4.73 0 0 0-3.612 1.96l-.047.067-.047-.066A4.73 4.73 0 0 0 8.246 1.25zm-.002 1.5c1.465 0 2.732.983 3.16 2.459.21.721 1.233.721 1.442 0 .428-1.476 1.694-2.459 3.158-2.459 1.44 0 2.496 1.173 2.496 3 0 1.811-1.04 3.647-2.844 5.412l-.369.352a20 20 0 0 1-3.016 2.279l-.138.084a19.6 19.6 0 0 1-3.54-2.715C6.79 9.397 5.75 7.561 5.75 5.75c0-1.827 1.054-3 2.494-3zm2.115 11.78q.444.302.868.562l.46.271.07.041a.75.75 0 0 0 .735 0l.18-.103c.39-.228.8-.485 1.219-.77l.125.615 1.14 6.227-2.299-.791-.18-.053a2.25 2.25 0 0 0-1.284.055l-2.3.789 1.145-6.238z"/></svg>