<svg xmlns="http://www.w3.org/2000/svg" width="16" height="16" viewBox="0 0 16 16"><path d="M4.082.02a.75.75 0 0 0-.584.73H3.5v.732c-.623.298-1.214.795-1.674 1.354C1.23 3.56.75 4.516.75 5.5v.178l.078.158c.406.813 1.197 1.124 1.879 1.191.676.066 1.391-.086 1.906-.373a.75.75 0 0 0-.726-1.308c-.235.13-.645.227-1.033.19-.285-.03-.474-.117-.59-.24.059-.471.314-1.014.72-1.509a3.7 3.7 0 0 1 1.024-.879c.942 1.157 1.877 1.94 2.691 2.62l.319.265c.98.828 1.745 1.55 2.298 2.768a.75.75 0 1 0 1.366-.622 7.5 7.5 0 0 0-.94-1.552l-.01-.05-.043-.19c-.289-1.289-.477-2.141-.017-3.061.479-.958 1.533-1.542 2.705-1.346S14.5 2.78 14.5 4.25c0 .635-.512 1.25-1.25 1.25-.359 0-.567-.137-.713-.305a1.6 1.6 0 0 1-.308-.627.75.75 0 0 0-1.456.364 3.1 3.1 0 0 0 .633 1.248 2.4 2.4 0 0 0 .506.441c.107.45.234.882.354 1.29l.064.222c.206.706.372 1.327.422 1.93.108 1.291-.293 2.094-.928 2.601-.676.54-1.731.836-3.074.836H6.195c-.45-.284-.974-.881-1.195-1.621-.224-.751-.144-1.666.768-2.586a.75.75 0 0 0 .011-1.074.747.747 0 0 0-1.058 0l-.01.01c-.322.312-1.34.825-2.697.318a.75.75 0 0 0-.526 1.406 4.65 4.65 0 0 0 2.026.293 3.84 3.84 0 0 0 .049 2.063 4.5 4.5 0 0 0 .564 1.191H2.75a.75.75 0 0 0 0 1.5h6c1.52 0 2.964-.33 4.01-1.164 1.087-.868 1.628-2.192 1.486-3.899-.064-.77-.272-1.523-.475-2.224l-.066-.22-.144-.509C15.047 6.825 16 5.528 16 4.25 16 1.94 14.407.558 12.621.26c-1.828-.305-3.52.612-4.293 2.154-.37.741-.462 1.47-.426 2.164l-.24-.201c-.869-.726-1.763-1.474-2.664-2.63V.75a.75.75 0 0 0-.916-.73z"/></svg>