<svg xmlns="http://www.w3.org/2000/svg" width="24" height="24" viewBox="0 0 24 24"><path d="M12 .25a.75.75 0 0 0-.672.418L8.27 6.865l-6.838.992a.75.75 0 0 0-.416 1.282l4.947 4.822-1.168 6.812a.75.75 0 0 0 1.088.79L12 18.348l6.117 3.215a.751.751 0 0 0 1.088-.792l-1.168-6.81 4.947-4.822a.75.75 0 0 0-.414-1.28l-6.84-.994L12.674.668A.75.75 0 0 0 12 .25zm0 2.445 2.56 5.188a.75.75 0 0 0 .565.41l5.725.83-4.143 4.04a.75.75 0 0 0-.215.663l.977 5.701-5.12-2.691a.75.75 0 0 0-.699 0l-5.12 2.691.978-5.7a.75.75 0 0 0-.215-.665L3.15 9.123l5.725-.83a.75.75 0 0 0 .564-.41z"/></svg>