<svg xmlns="http://www.w3.org/2000/svg" width="16" height="16" viewBox="0 0 16 16"><path d="M6.5 0a.75.75 0 0 0-.75.75.75.75 0 0 0 .75.75h.75v1.041a6.7 6.7 0 0 0-3.463 1.436L3.78 3.97l-.75-.75a.75.75 0 0 0-1.04.017.75.75 0 0 0-.018 1.041l.75.75.006.008a6.75 6.75 0 1 0 10.546 0l.006-.008.75-.75a.75.75 0 0 0 .215-.732.749.749 0 0 0-1.273-.326l-.75.75-.008.006A6.7 6.7 0 0 0 8.748 2.54l.002-.04v-1h.75a.75.75 0 0 0 0-1.5zm1.498 3.998A5.251 5.251 0 1 1 8 14.5a5.251 5.251 0 0 1-.002-10.502zm2.338 2.246a.75.75 0 0 0-.617.227L8.389 7.8A1.499 1.499 0 1 0 8 10.75a1.503 1.503 0 0 0 1.45-1.889l1.33-1.332a.75.75 0 0 0-.444-1.285z"/></svg>