<svg xmlns="http://www.w3.org/2000/svg" width="24" height="24" viewBox="0 0 24 24"><path d="M1.75 3A1.75 1.75 0 0 0 0 4.75v14.5A1.75 1.75 0 0 0 1.75 21h20.5A1.75 1.75 0 0 0 24 19.25V4.75A1.75 1.75 0 0 0 22.25 3zm0 1.5h20.5a.25.25 0 0 1 .25.25v14.5a.25.25 0 0 1-.25.25H1.75a.25.25 0 0 1-.25-.25V4.75a.25.25 0 0 1 .25-.25zm4.06 3.986a.75.75 0 0 0-.59 1.293L7.44 12l-2.22 2.22a.75.75 0 0 0 1.06 1.06l2.75-2.75a.75.75 0 0 0 .22-.53c0-.199-.08-.39-.22-.53L6.28 8.72a.75.75 0 0 0-.47-.234zM11.25 14a.75.75 0 0 0 0 1.5h5a.75.75 0 0 0 0-1.5z"/></svg>