<svg xmlns="http://www.w3.org/2000/svg" width="16" height="16" viewBox="0 0 16 16"><path d="M8.588.053C7.375.056 6.5 1.123 6.5 2.25v.5c0 1.329-.647 2.123-1.318 2.613-.328.24-.66.403-.918.508A1.75 1.75 0 0 0 2.75 5h-1A1.75 1.75 0 0 0 0 6.75v7.5A1.75 1.75 0 0 0 1.75 16h1a1.75 1.75 0 0 0 1.662-1.201c.525.075 1.067.23 1.725.416l.474.133C7.765 15.668 9.152 16 11 16c1.706 0 2.97-.154 3.723-1.14.353-.464.537-1.043.668-1.672.118-.56.207-1.244.312-2.034l.04-.304c.25-1.87.265-3.319-.188-4.317a2.42 2.42 0 0 0-1.137-1.201C13.924 5.084 13.353 5 12.75 5h-1.422l.016-.113c.07-.518.156-1.17.156-1.637 0-.922-.151-1.72-.656-2.3-.51-.59-1.247-.797-2.01-.884a2 2 0 0 0-.246-.013zm.076 1.504c.646.074.912.22 1.049.379.144.166.287.507.287 1.316 0 .358-.066.838-.13 1.326-.027.196-.052.394-.075.586-.09.76.519 1.338 1.205 1.338h1.75c.477 0 .788.07.996.174a.92.92 0 0 1 .443.478c.257.564.319 1.616.069 3.498l-.041.3c-.107.805-.19 1.429-.295 1.93-.118.566-.248.876-.395 1.07-.248.325-.733.55-2.527.55-1.653 0-2.89-.295-3.986-.6l-.442-.125c-.682-.194-1.367-.388-2.072-.476V7.385a5.8 5.8 0 0 0 1.566-.81C7.021 5.876 8 4.671 8 2.75v-.5c0-.457.357-.73.664-.693zM1.75 6.5h1a.25.25 0 0 1 .25.25v7.5a.25.25 0 0 1-.25.25h-1a.25.25 0 0 1-.25-.25v-7.5a.25.25 0 0 1 .25-.25z"/></svg>