<svg xmlns="http://www.w3.org/2000/svg" width="24" height="24" viewBox="0 0 24 24"><path d="M1.75 3A1.75 1.75 0 0 0 0 4.75v14.5A1.75 1.75 0 0 0 1.75 21h20.5A1.75 1.75 0 0 0 24 19.25v-8.5a.75.75 0 0 0-1.5 0v8.5a.25.25 0 0 1-.25.25H1.75a.25.25 0 0 1-.25-.25V7.412l9.52 6.434c.592.4 1.368.4 1.96 0L18.67 10a.75.75 0 0 0-.84-1.242l-5.69 3.844a.25.25 0 0 1-.28 0l-10.36-7V4.75a.25.25 0 0 1 .25-.25h15.5a.75.75 0 0 0 0-1.5zm19.563.008A2.5 2.5 0 0 0 19 5.5a2.5 2.5 0 0 0 5 0 2.5 2.5 0 0 0-2.687-2.492z"/></svg>