<svg xmlns="http://www.w3.org/2000/svg" width="24" height="24" viewBox="0 0 24 24"><path d="M12.115 0a.14.14 0 0 0-.11.05.2.2 0 0 0-.03.05.1.1 0 0 0-.01.05v1.862q0 .034.014.06a.16.16 0 0 0 .136.09h1.862a.13.13 0 0 0 .06-.016.16.16 0 0 0 .09-.134V.15a.14.14 0 0 0-.05-.109.16.16 0 0 0-.1-.041zM1.73.1a.05.05 0 0 0-.036.017.05.05 0 0 0-.013.033v1.862q0 .022.015.035.016.014.034.014h1.86a.05.05 0 0 0 .038-.016.05.05 0 0 0 .014-.033V.15a.05.05 0 0 0-.018-.037A.05.05 0 0 0 3.59.1zm5.109.05v1.862h1.86V.15zm2.664 0v1.862h1.86V.15zm5.407 0v1.862h1.861V.15zm2.715 0v1.862h1.861V.15zm2.836 0v1.862h1.86V.15zM1.779.201h1.76v1.76h-1.76zm10.487.1h1.558v1.558h-1.558zM1.729 2.674c-.03 0-.05.029-.05.05v1.86c0 .03.028.05.05.05h1.86a.053.053 0 0 0 .052-.05v-1.86c0-.03-.03-.05-.051-.05zm5.109.049v1.861h1.86V2.723zm5.238 0v1.861h1.86V2.723zm2.834 0v1.861h1.861V2.723zm2.715 0v1.861h1.861V2.723zm2.836 0v1.861h1.86V2.723zm-18.682.05h1.76v1.76h-1.76zm7.723 2.174c-.122 0-.201.115-.201.201V7.01c0 .121.115.2.201.2h1.86c.121 0 .2-.114.2-.2V5.148c0-.121-.114-.2-.2-.2zm2.574.201V7.01h1.86V5.148zm2.834 0V7.01h1.861V5.148zm2.715 0V7.01h1.861V5.148zm2.836 0V7.01h1.86V5.148zM9.703 5.35h1.457v1.459H9.703Zm-.201 1.888c-.122 0-.201.115-.201.201v1.862c0 .122.115.201.201.201h1.86c.121 0 .2-.115.2-.201V7.439c0-.121-.114-.2-.2-.2zm5.408.202v1.862h1.861V7.439zm2.715 0v1.862h1.861V7.439zm2.836 0v1.862h1.86V7.439zm-10.758.202h1.457V9.1H9.703Zm2.373 1.9c-.152 0-.252.144-.252.252v1.86c0 .152.144.251.252.251h1.86c.152 0 .252-.144.252-.252v-1.86c0-.152-.145-.252-.252-.252zm-5.238.201c-.03 0-.05.03-.05.051v1.86c0 .03.028.05.05.05h1.86c.03 0 .05-.03.05-.05v-1.86c0-.03-.03-.05-.05-.05zm2.664.051v1.86h1.86v-1.86Zm5.408 0v1.86h1.861v-1.86Zm2.715 0v1.86h1.861v-1.86Zm2.836 0v1.86h1.86v-1.86Zm-13.574.05h1.76v1.76h-1.76zm5.44.202h1.357v1.357h-1.358zm-2.825 2.101v1.86h1.86v-1.86zm2.574 0v1.86h1.86v-1.86zm2.834 0v1.86h1.861v-1.86zm2.715 0v1.86h1.861v-1.86zm2.836 0v1.86h1.86v-1.86zM9.502 14.358c-.122 0-.201.115-.201.202v1.859c0 .122.115.201.201.201h1.86c.121 0 .2-.115.2-.201v-1.86c0-.121-.114-.2-.2-.2zm-5.2.15c-.03 0-.048.03-.048.052v1.86c0 .031.027.05.049.05h1.861c.03 0 .049-.027.049-.05v-1.86a.05.05 0 0 0-.049-.051zm13.323.052v1.859h1.861v-1.86zm2.836 0v1.859h1.86v-1.86zm-16.107.05h1.76v1.76h-1.76zm5.35.15h1.456v1.46H9.703Zm-2.866 2.253c-.03 0-.05.029-.05.05v1.86c0 .03.028.05.05.05h1.86c.03 0 .05-.029.05-.05v-1.86c0-.03-.03-.05-.05-.05zm5.238 0c-.03 0-.05.029-.05.05v1.86c0 .03.029.05.05.05h1.86c.03 0 .05-.029.05-.05v-1.86c0-.03-.029-.05-.05-.05zm2.834.05v1.86h1.861v-1.86zm2.715 0v1.86h1.861v-1.86zm2.836 0v1.86h1.86v-1.86zm-13.574.051h1.76v1.76h-1.76zm5.238 0h1.76v1.76h-1.76zm2.785 2.452v1.86h1.861v-1.86zm2.715 0v1.86h1.861v-1.86zm2.836 0v1.86h1.86v-1.86zm-8.385 2.473a.05.05 0 0 0-.037.018.05.05 0 0 0-.014.033v1.86c0 .03.03.05.051.05h1.86c.03 0 .05-.03.05-.05v-1.86c0-.03-.029-.05-.05-.05zm5.549.05v1.86h1.861v-1.86zm2.836 0v1.86h1.86v-1.86zm-8.336.052h1.76v1.76h-1.76z"/></svg>