<svg xmlns="http://www.w3.org/2000/svg" width="24" height="24" viewBox="0 0 24 24"><path d="M8.127 22q-2.061 0-2.061-1.76v-8.602q0-1.885 1.768-1.885v-3.82q0-1.71 1.228-2.847Q10.247 2 12 2q1.755 0 2.938 1.086 1.228 1.136 1.228 2.847v3.82q1.768 0 1.768 1.885v8.602q0 1.76-2.06 1.76zM12 3.623q-.98 0-1.571.624-.592.624-.592 1.686v3.82h4.326v-3.82q0-1.062-.592-1.686-.591-.624-1.571-.624Zm.819 15.43v-4.032q.994-.436.994-1.386 0-.636-.534-1.092A1.9 1.9 0 0 0 12 12.087q-.745 0-1.279.456t-.533 1.092q0 .95.993 1.386v4.033z"/></svg>