<svg xmlns="http://www.w3.org/2000/svg" width="512" height="512" viewBox="0 0 512 512"><path d="M0 127.493v8.862q20.004 0 25.701 2.279c5.697 2.279 5.698 6.752 5.698 15.7v203.332q0 13.42-5.697 15.7c-5.697 2.28-12.366 2.279-25.701 2.279v8.863h129.646q17.725 0 32.031-5.824c14.306-5.824 17.767-9.031 24.689-15.446q10.381-9.622 15.952-22.156c5.571-12.534 5.571-17.007 5.571-25.954q0-12.408-5.571-23.802c-5.571-11.394-8.778-14.349-15.193-20.257q-9.622-8.863-22.662-14.306c-13.04-5.443-18.105-5.781-28.233-6.457q13.42-2.532 24.562-8.103c11.142-5.571 13.8-8.23 19.118-13.547s9.453-11.268 12.407-17.852q4.431-9.875 4.431-20.763 0-11.648-5.697-22.916c-5.697-11.268-9.115-14.222-15.952-20.131q-10.255-8.863-24.689-14.18c-14.434-5.317-20.257-5.317-31.905-5.317H.002zm53.681 118.505v-96.221q0-10.128 1.899-12.914c1.899-2.786 5.866-2.786 13.8-2.786h46.844q13.421 0 23.422 4.938c10.001 4.938 12.238 7.512 16.712 12.661q6.71 7.723 10.129 17.345c3.419 9.622 3.418 12.661 3.418 18.738q0 10.888-4.178 21.397c-4.178 10.509-6.837 13.209-12.155 18.612s-11.859 9.791-19.624 13.167Q122.299 246 107.36 246H53.679zm15.7 127.367q-11.901 0-13.8-2.786c-1.899-2.786-1.899-6.161-1.899-12.914V252.581h69.381q14.18 0 24.688 5.697c10.508 5.697 12.787 8.693 17.345 14.687q6.837 8.99 10.255 20.13c3.418 11.14 3.418 14.771 3.418 22.029q0 10.128-3.798 20.764c-3.798 10.636-6.373 13.589-11.522 19.498q-7.723 8.863-19.498 14.56c-11.775 5.697-17.092 5.697-27.727 5.697H69.38zm209.915-156.486q0-11.648 4.558-14.813c4.558-3.165 11.226-3.165 24.562-3.165v-8.863q-10.128 1.772-22.916 2.025c-12.788.253-15.067.253-19.624.253q-6.583 0-19.498-.253c-12.915-.253-16.206-.844-22.79-2.025v8.863q20.004 0 23.422 3.165c3.418 3.165 3.418 7.048 3.418 14.813v138.508q0 11.901-4.178 14.94c-4.178 3.039-10.339 3.038-22.662 3.038v8.863h84.827v-8.863q-20.005 0-24.562-3.038c-4.557-3.038-4.558-7.005-4.558-14.94V216.879zm51.403-26.842v8.863q18.484 0 22.663 3.165c4.179 3.165 4.178 7.048 4.178 14.813v138.508q0 11.901-4.178 14.94c-4.178 3.039-10.339 3.038-22.663 3.038v8.863h114.2q15.953 0 28.36-4.178c12.407-4.178 15.277-6.584 21.017-11.394q8.61-7.217 13.167-16.459c4.557-9.242 4.558-12.618 4.558-19.371q0-9.116-4.431-17.345c-4.431-8.229-6.921-10.382-11.901-14.687q-7.47-6.457-17.725-10.888c-10.255-4.431-14.138-5.022-21.903-6.204q20.004-3.292 33.425-15.572c13.421-12.28 13.421-17.936 13.421-29.246q0-9.116-4.811-17.599c-4.811-8.483-7.723-10.635-13.547-14.94q-8.736-6.456-21.144-10.382c-12.408-3.926-17.472-3.925-27.601-3.925zm49.376 89.386v-62.544q0-11.648 2.786-13.673c2.786-2.025 6.077-2.025 12.661-2.025h35.957q25.069 0 32.664 15.7c7.595 15.7 7.596 17.894 7.596 22.283q0 10.128-9.495 25.195c-9.495 15.067-19.624 15.067-39.882 15.067h-42.287zm0 6.836h55.707q23.55 0 33.045 16.459c9.495 16.459 9.495 20.341 9.495 28.107q0 13.42-10.888 27.98c-10.888 14.56-19.245 14.56-35.957 14.56H395.52q-9.876 0-12.661-2.786c-2.785-2.786-2.786-6.161-2.786-12.914v-71.406z"/></svg>