<svg xmlns="http://www.w3.org/2000/svg" width="512" height="512" viewBox="0 0 512 512"><path d="M398.91 233.786c-15.987-15.82-20.362-62.94 0-83.807l6.059-7.069 6.058 6.059q29.283 23.223 33.321 52.506c27.156-8.257 47.103-2.855 67.652 10.097-13.323 27.837-33.854 45.294-79.769 43.418-41.57 103.546-130.928 165.596-263.539 166.605-70.007 0-120.157-25.243-150.45-77.749C1.41 312.915-2.153 290.63 1.079 247.922h44.428v-53.515H98.01V141.9h105.012V90.405h62.603v104.002h52.506v53.515c35.99 1.044 58.347-1.18 80.778-14.136zM92.963 206.523h3.029v38.37h-3.03zm-7.068 0h4.039v38.37h-4.04zm-7.068 0h4.039v38.37h-4.04zm-7.068 0h4.038v38.37H71.76zm-6.059 0h3.03v38.37H65.7zm-7.068 0h3.03v38.37h-3.03zm-4.039-3.029v45.438h45.438v-45.438zm90.876-48.467h3.029v37.36h-3.03zm-7.068 0h3.029v37.36h-3.03zm-7.069 0h4.04v37.36h-4.04zm-7.068 0h4.04v37.36h-4.04zm-7.068 0h4.04v37.36h-4.04zm-6.058 0h3.03v37.36h-3.03zm-4.039-4.039v45.438h45.438v-45.438zm38.37 55.535h3.029v38.37h-3.03zm-7.068 0h3.029v38.37h-3.03zm-7.069 0h4.04v38.37h-4.04zm-7.068 0h4.04v38.37h-4.04zm-7.068 0h4.04v38.37h-4.04zm-6.058 0h3.03v38.37h-3.03zm-4.039-3.029v45.438h45.438v-45.438zm89.866 3.03h4.039v38.369h-4.04zm-6.059 0h3.03v38.369h-3.03zm-7.068 0h3.03v38.369h-3.03zm-7.068 0h4.04v38.369h-4.04zm-7.068 0h4.04v38.369h-4.04zm-7.068 0h4.039v38.369h-4.039zm-3.03-3.03v45.438h45.439v-45.438zm37.36-48.467h4.04v37.36h-4.04zm-6.058 0h3.03v37.36h-3.03zm-7.068 0h3.03v37.36h-3.03zm-7.068 0h4.04v37.36h-4.04zm-7.068 0h4.04v37.36h-4.04zm-7.068 0h4.039v37.36h-4.039zm-3.03-4.039v45.438h45.439v-45.438zm89.867 55.535h4.039v38.37h-4.04zm-7.068 0h4.038v38.37h-4.038zm-6.059 0h3.03v38.37h-3.03zm-7.068 0h3.03v38.37h-3.03zm-7.068 0h4.039v38.37h-4.039zm-7.068 0h4.039v38.37h-4.04zm-3.03-3.029v45.438h44.429v-45.438zm37.36-48.467h4.04v37.36h-4.04zm-7.067 0h4.038v37.36h-4.038zm-6.059 0h3.03v37.36h-3.03zm-7.068 0h3.03v37.36h-3.03zm-7.068 0h4.039v37.36h-4.039zm-7.068 0h4.039v37.36h-4.04zm-3.03-4.039v45.438h44.429v-45.438zm37.36-48.467h4.04v37.36h-4.04zm-7.067 0h4.038v37.36h-4.038zm-6.059 0h3.03v37.36h-3.03zm-7.068 0h3.03v37.36h-3.03zm-7.068 0h4.039v37.36h-4.039zm-7.068 0h4.039v37.36h-4.04zm-3.03-4.039v45.438h44.429V98.482zm89.867 108.041h3.029v38.37h-3.03zm-7.069 0h4.04v38.37h-4.04zm-7.068 0h4.04v38.37h-4.04zm-6.058 0h3.03v38.37h-3.03zm-7.068 0h3.03v38.37h-3.03zm-7.068 0h4.039v38.37h-4.04zm-4.04-3.029v45.438h45.439v-45.438zM149.509 321.632q-5.049 0-8.583 4.04-3.534 4.038-3.534 9.087t3.534 8.582q3.534 3.535 8.583 3.535c5.049 0 6.226-1.178 8.582-3.535s3.534-5.216 3.534-8.582q0-4.039-1.514-6.563t-4.544-4.544c-3.03-2.02-4.039-2.02-6.058-2.02zm0 4.04q2.02 0 3.029 1.009-2.02 1.01-2.02 3.03 0 3.028 4.04 3.028 2.019 0 3.028-2.02 1.01 2.02 1.01 4.04 0 9.087-9.087 9.087c-9.087 0-9.088-3.029-9.088-9.087q0-9.088 9.088-9.088zm33.32 86.836q-41.398-20.194-57.554-56.545-17.165 5.049-41.399 6.058H40.457q50.487 49.477 128.235 50.487z"/></svg>