<svg xmlns="http://www.w3.org/2000/svg" width="512" height="512"><path d="M0 465.966h20.846q30.774 0 36.895-14.57 6.12-14.569 6.122-139.545V202.09q0-129.507-5.295-142.783-5.294-13.275-31.766-13.274H0V25.636q54.929 2.267 108.533 2.266 44.67 0 81.07-2.266v20.398h-25.48q-23.493 0-29.45 5.504-5.955 5.505-6.948 27.844-1.654 34.644-1.654 123.357v111.702q0 125.947 5.625 138.736 5.625 12.79 36.067 12.79h21.84v20.397q-40.701-2.265-88.68-2.266-55.921 0-100.923 2.266zM208.277 294.23q5.555-46.749 29.804-81.568 24.249-34.82 62.448-50.834t83.589-9.234q65.767 9.825 100.219 58.412 34.45 48.587 25.998 119.727-9.983 84.012-67.424 125.767-51.28 37.505-115.504 27.91-61.755-9.224-95.091-60.576-33.338-51.35-24.039-129.604zm60.907-15.38q-8.291 69.783 11.902 123.309 20.195 53.526 69.289 60.86 37.36 5.58 64.068-22.149 26.706-27.729 34.234-91.077 6.077-51.152-3.06-90.614-9.14-39.463-29.337-59.89-20.2-20.43-47.68-24.534-24.393-3.644-45.61 6.977-21.218 10.622-33.177 31.935-16.322 28.936-20.63 65.182z"/></svg>