<svg xmlns="http://www.w3.org/2000/svg" width="512" height="512" viewBox="0 0 512 512"><path d="m205.573 359.48-22.88 22.158-78.266-36.835 56.079-50.817 14.267 6.603v41.656zm56.333 15.84v-91.513l-73.425-35.494.207 85.853zM86.082 285.746l39.55 21.231 32.37-29.337 16.771 7.745v-44.909l-88.691-43.799zm94.665-57.453 23.919-21.342-44.723-22.61v-49.304l-14.21-6.173-58.603 52.953zm34.855-31.263 25.918-23.572v-49.032L173.73 89.34v86.524zM338.27 381.96v102.05l60.156-57.739v-92.677zM318.05 71.395l-62.741 52.376v52.462l29.537 13.126 33.205-32.389zm131.446 208.42v93.57L512 321.02v-94.035zm-349.53 78.13v95.924l77.442 41.823v-101.3zM0 310.892v88.993l86.176 46.54v-94.971zm456.96-116.521v21.878l-.436.41-91.05 84.84 47.052 19.282v39.57l23.181 11.828v-98.763l66.964-56.596zm-82.944-10.576-35.187 29.55 5.214 2.317v76.917l7.378 3.076 22.595-20.38zM173.73 73.816l74.015 38.309 65.332-54.536-82.567-41.281-56.78 53.623zm269.441 136.472v-84.574l-55.368 46.502v90.17zM331.838 136.68l49.75 22.745 61.417-51.58-83.882-41.938-27.285 21.83zm-113.72 229.85-26.924 26.07v96.576l44.583-45.167v-67.551zM90.91 338.442l23.878-21.64-42.495-22.816v-44.553l-12.79-6.975-57.587 54.097zm239.343-16.718v-86.467l-54.56 47.37v89.483zm-5.445-114.609 45.092-37.872-38.063-17.4v10.94l-33.426 32.607zm-78.189-19.653-52.872 48.08 73.964 35.748 56.73-49.247zm77.86 195.582-26.773-12.48-27.399 25.299-20.742-11.656v60.437l74.914 39.932zm19.563-75.528v20.24L308.65 360.45l21.76 10.142 56.51-45.21z"/></svg>