<svg xmlns="http://www.w3.org/2000/svg" width="377" height="512" viewBox="0 0 512 512"><path d="M.052 222.259c-.524 6.783 3.043 47.21 4.469 70.83 1.723 28.93.062 57.725 4.893 86.801 4.66 36.505 20.657 73.24 50.738 94.422 32.6 22.988 74.269 32.372 113.925 36.674 33.164 3.611 78.088-2.669 110.439-14.929 40.637-15.367 59.364-51.951 66.71-71.685 9.847-28.637 8-64.696-7.807-90.518-16.186-26.407-48.932-41.08-78.827-49.166-37.511-10.136-79.056-6.757-116.568 3.487-26.617 7.89-46.287 20.514-70.72 41.798-9.552 8.33-8.104 18.618-2.562 24.767 6.445 7.143 15.048 8.57 28.887 0 10.828-6.715 21.745-22.628 37.68-24.79 5.601-.57 7.03 3.319 4.678 7.808-1.426.507-12.552 30.21-1.573 56.175 8.688 18.829 28.065 34.992 48.384 39.024 23.428 4.643 52.523-2.725 68.69-20.274 14.736-16.047 21.727-43.941 13.266-64.009-2.647-6.235-10.433-11.644-17.174-10.916-3.296.357-6.36 3.78-7.031 7.012-.568 2.752 4.303 5.267 3.127 7.808-1.826 9.088-14.4 14.024-23.406 7.808-6.782-4.073-7.933-16.603-3.904-23.401 5.605-9.49 20.235-11.862 31.214-10.939 18.684 1.596 40.011 10.958 49.165 27.309 11.693 20.908 9.38 51.37-3.13 71.794-14.36 23.446-44.921 34.805-71.791 40.578-34.572 4.951-72.634 2.894-102.23-9.365-35.647-11.378-63.5-40.177-71.014-73.345-6.195-27.372-3.486-59.388-4.894-90.706-.84-18.64-1.785-42.657-14.062-58.524-7.328-9.512-19.777-17.695-31.764-16.986-4.912-.586-8.27 1.787-7.808 5.458zM61.37 35.81c-12.636 2.857-18.597 17.298-18.535 28.461 12.743 67.26 33.102 145.687 50.61 197.958 5.627 6.72 15.554 13.37 23.952 10.852 7.849-2.35 11.588-12.736 13.12-20.803-10.415-79.535-27.581-171.167-37.974-200.199C88.617 41.1 72.708 32.826 61.37 35.81ZM165.763.105c-12.933 1.17-21.096 16.877-22.61 28.67 3.13 72.951 12.262 158.807 22.255 216.6 3.251 9.992 12.485 17.969 22.207 14.97 9.718-.274 15.283-10.436 15.931-20.053.924-85.585-3.167-184.94-9.358-217.14-2.354-12.176-16.313-24.414-28.425-23.047Zm111.759 30.48c-11.69-1.239-21.724 11.273-25.147 21.494-10.096 65.41-17.171 143.356-18.494 196.505 1.132 9.467 7.936 18.18 17.111 17.237 8.688 1.468 15.426-6.595 17.713-15.033 15.936-75.905 29.855-164.974 30.02-194.696.065-11.235-10.18-24.583-21.203-25.507zm84.241 63.75c-9.7-2.226-19.455 6.948-23.468 14.97-15.496 52.455-29.787 115.518-36.609 158.844-.062 7.875 4.744 15.705 12.552 15.89 7.139 2.12 13.666-3.777 16.478-10.432 21.558-60.455 42.804-131.873 46.122-156.179 1.258-9.197-5.923-21.16-15.075-23.093z"/><path d="M165.75-.02c-6.513.591-11.818 4.839-15.678 10.405S143.79 22.84 143.03 28.76l-.002.011v.01c3.131 72.957 12.264 158.815 22.258 216.616v.008l.004.01c1.634 5.02 4.768 9.531 8.723 12.417 3.955 2.887 8.74 4.145 13.64 2.633l-.033.004c4.902-.138 8.761-2.774 11.465-6.574s4.262-8.764 4.588-13.594v-.008c.462-42.795-.33-89.031-2.012-128.595s-4.25-72.45-7.35-88.569c-1.183-6.126-5.278-12.249-10.595-16.676s-11.861-7.16-17.963-6.472zm.025.249h.002c6.01-.678 12.5 2.023 17.778 6.417s9.34 10.479 10.51 16.53c3.092 16.081 5.664 48.974 7.345 88.533 1.681 39.557 2.474 85.786 2.012 128.574-.323 4.788-1.873 9.714-4.543 13.467s-6.451 6.333-11.268 6.469l-.017.002-.016.004c-4.82 1.487-9.514.256-13.42-2.594-3.904-2.85-7.01-7.32-8.629-12.291-9.99-57.78-19.119-143.62-22.25-216.555.755-5.874 3.168-12.732 7-18.258C154.113 5 159.357.81 165.775.23zM277.531 30.46c-5.89-.623-11.356 2.218-15.77 6.484-4.414 4.268-7.786 9.963-9.505 15.094l-.004.01v.012c-10.097 65.415-17.173 143.362-18.496 196.52v.02c.57 4.757 2.562 9.325 5.572 12.59 3.002 3.259 7.028 5.216 11.643 4.755 4.386.74 8.286-.93 11.363-3.836 3.077-2.907 5.343-7.05 6.492-11.29v-.003l.002-.004c7.968-37.955 15.431-79.2 20.924-114.672 5.493-35.473 9.015-65.169 9.098-80.049.033-5.656-2.524-11.823-6.471-16.7-3.946-4.874-9.287-8.464-14.844-8.93zm-.023.248h.004c5.465.458 10.757 4.004 14.672 8.842 3.915 4.837 6.449 10.962 6.416 16.54-.083 14.843-3.602 44.542-9.094 80.01s-12.957 76.711-20.924 114.66c-1.139 4.197-3.384 8.301-6.418 11.167-3.035 2.867-6.849 4.496-11.15 3.77l-.018-.003-.015.002c-4.546.467-8.5-1.454-11.47-4.676-2.965-3.218-4.94-7.737-5.505-12.44 1.323-53.14 8.397-131.076 18.49-196.474 1.706-5.087 5.063-10.751 9.44-14.982 4.38-4.234 9.774-7.03 15.572-6.416zM65.8 35.076a19.5 19.5 0 0 0-4.463.613c-6.356 1.439-11.032 5.79-14.106 11.174-3.074 5.385-4.552 11.804-4.521 17.408v.012l.002.012C55.456 131.56 75.816 209.99 93.326 262.27l.008.021.016.018c2.823 3.371 6.721 6.724 10.974 8.922 4.253 2.197 8.868 3.242 13.11 1.97 3.967-1.188 6.885-4.402 9.002-8.318 2.116-3.916 3.437-8.54 4.205-12.582l.002-.02-.002-.02c-5.208-39.77-12.103-82.563-18.996-119.044-6.894-36.482-13.782-66.645-18.985-81.18-1.977-5.53-6.96-10.36-12.867-13.44-4.43-2.309-9.383-3.636-13.992-3.52Zm.006.252c4.557-.112 9.473 1.198 13.87 3.49 5.864 3.057 10.8 7.854 12.749 13.303 5.19 14.497 12.08 44.666 18.972 81.143 6.891 36.47 13.784 79.25 18.99 119.01-.764 4.02-2.078 8.614-4.173 12.49-2.098 3.881-4.973 7.035-8.854 8.197-4.157 1.247-8.705.225-12.922-1.953-4.21-2.175-8.08-5.502-10.882-8.844C76.054 209.904 55.7 131.501 42.96 64.26c-.029-5.557 1.441-11.935 4.488-17.272 3.05-5.34 7.67-9.637 13.947-11.056h.006a19.2 19.2 0 0 1 4.405-.604zM358.13 93.885c-3.64.161-7.18 1.718-10.309 3.992-4.172 3.032-7.622 7.343-9.638 11.373l-.006.01-.002.01c-15.498 52.46-29.79 115.526-36.614 158.86l-.002.01v.01c-.031 3.963 1.162 7.912 3.35 10.902s5.379 5.02 9.324 5.113c3.598 1.057 7.047.102 9.938-1.95 2.899-2.057 5.246-5.212 6.66-8.56v-.002l.002-.004c10.78-30.23 21.48-63.198 29.902-91.65s14.565-52.381 16.227-64.553c.634-4.637-.857-9.952-3.653-14.355-2.795-4.403-6.9-7.9-11.52-8.877h-.001a13.6 13.6 0 0 0-3.658-.328zm.008.25a13.4 13.4 0 0 1 3.596.322h.004c4.53.957 8.593 4.407 11.36 8.768 2.77 4.36 4.24 9.628 3.616 14.187-1.656 12.134-7.796 36.067-16.217 64.514s-19.122 61.414-29.9 91.638c-1.398 3.306-3.72 6.424-6.57 8.448-2.853 2.024-6.225 2.954-9.754 1.906l-.016-.004h-.017c-3.863-.091-6.978-2.07-9.13-5.01-2.149-2.937-3.327-6.835-3.298-10.744 6.82-43.313 21.107-106.36 36.597-158.803 1.998-3.99 5.429-8.276 9.561-11.279 3.1-2.253 6.59-3.784 10.168-3.943zM7.854 216.675l.021.003c-2.48-.296-4.577.152-6.006 1.154-1.427 1.001-2.176 2.565-1.941 4.44v.003c-.131 1.722-.007 5.496.275 10.598.283 5.115.724 11.542 1.227 18.496 1.004 13.908 2.254 29.92 2.966 41.727 1.723 28.92.06 57.72 4.895 86.814 4.663 36.53 20.67 73.295 50.79 94.504 32.627 23.008 74.317 32.393 113.983 36.695 33.192 3.615 78.123-2.667 110.497-14.935 40.686-15.387 59.43-52.007 66.783-71.758v-.004c9.858-28.672 8.013-64.76-7.819-90.623-16.214-26.454-48.99-41.133-78.9-49.223-37.54-10.143-79.105-6.76-116.633 3.489h-.004c-26.636 7.896-46.326 20.534-70.765 41.824-4.798 4.183-6.844 8.873-6.985 13.29-.14 4.419 1.621 8.56 4.412 11.655 3.238 3.59 7.036 5.754 11.758 5.934s10.356-1.62 17.287-5.912c5.436-3.371 10.872-9.03 16.94-14.112 6.067-5.08 12.758-9.583 20.687-10.66 2.771-.282 4.461.53 5.197 1.94.736 1.408.52 3.46-.642 5.681-.05.033-.1.06-.147.114q-.102.12-.222.312-.245.39-.563 1.078c-.422.918-.931 2.225-1.469 3.86-1.074 3.268-2.257 7.847-3.052 13.222-1.59 10.75-1.627 24.69 3.875 37.701v.002h.002c8.706 18.869 28.105 35.055 48.472 39.096 23.472 4.652 52.602-2.721 68.807-20.312 14.772-16.086 21.775-44.015 13.29-64.143-1.336-3.146-3.96-6.072-7.099-8.125-3.138-2.053-6.796-3.233-10.205-2.865-1.686.182-3.298 1.144-4.576 2.465s-2.223 3-2.564 4.644c-.15.726.061 1.433.427 2.11.367.676.89 1.332 1.39 1.976.498.644.974 1.276 1.247 1.893.274.616.35 1.204.072 1.802l-.006.014-.004.014c-1.805 8.988-14.274 13.898-23.21 7.73l-.004-.002-.004-.002c-3.346-2.009-5.32-6.123-5.948-10.59s.092-9.275 2.086-12.64c2.78-4.708 7.808-7.66 13.52-9.319 5.71-1.658 12.1-2.018 17.576-1.558 18.651 1.592 39.945 10.947 49.068 27.244 11.664 20.857 9.357 51.285-3.129 71.668-14.325 23.391-44.847 34.749-71.7 40.52h-.005l-.006.002c-34.551 4.946-72.592 2.886-102.156-9.36l-.004-.002-.006-.002c-35.605-11.365-63.425-40.133-70.929-73.252-6.189-27.344-3.482-59.355-4.89-90.683-.84-18.64-1.776-42.683-14.088-58.596-7.349-9.539-19.821-17.748-31.87-17.035Zm-.008.25h.021c11.925-.705 24.351 7.453 31.658 16.938 12.242 15.822 13.196 39.812 14.036 58.453 1.407 31.307-1.306 63.328 4.896 90.729 7.526 33.218 35.412 62.045 71.098 73.435 29.626 12.27 67.701 14.325 102.287 9.372l.004-.002h.004c26.884-5.777 57.48-17.137 71.87-40.635 12.537-20.466 14.855-50.962 3.134-71.922-9.184-16.406-30.546-25.773-49.264-27.371-5.503-.463-11.918-.101-17.668 1.568s-10.84 4.65-13.664 9.432c-2.034 3.432-2.753 8.286-2.117 12.803.635 4.513 2.625 8.698 6.058 10.763l.004.002.002.002c9.067 6.252 21.717 1.305 23.584-7.861v-.004c.31-.671.22-1.351-.07-2.006-.291-.656-.779-1.3-1.28-1.945-.5-.646-1.016-1.293-1.366-1.942-.351-.648-.535-1.29-.4-1.94.329-1.587 1.25-3.232 2.497-4.52 1.247-1.289 2.815-2.217 4.424-2.391 3.333-.36 6.94.798 10.041 2.826s5.693 4.925 7.004 8.014c8.435 20.006 1.457 47.866-13.244 63.875-16.128 17.505-45.19 24.87-68.572 20.236-20.272-4.022-39.625-20.164-48.295-38.953-5.476-12.952-5.44-26.846-3.856-37.565.793-5.36 1.973-9.925 3.043-13.18.535-1.627 1.04-2.926 1.457-3.831.208-.453.395-.807.547-1.051a2 2 0 0 1 .201-.281.5.5 0 0 1 .11-.098l.045-.016.023-.043c1.188-2.267 1.435-4.403.644-5.918-.79-1.514-2.615-2.36-5.445-2.072h-.004c-8.004 1.086-14.739 5.621-20.82 10.715-6.082 5.093-11.518 10.75-16.91 14.094v-.002c-6.907 4.277-12.494 6.052-17.145 5.875s-8.375-2.298-11.582-5.852c-2.752-3.052-4.486-7.132-4.348-11.478.139-4.347 2.144-8.966 6.899-13.112 24.425-21.277 44.073-33.886 70.67-41.771 37.496-10.24 79.021-13.614 116.504-3.487 29.88 8.082 62.594 22.75 78.752 49.112 15.782 25.781 17.629 61.81 7.795 90.412-7.34 19.716-26.05 56.261-66.635 71.61-32.328 12.25-77.245 18.527-110.381 14.92-39.647-4.301-81.296-13.685-113.867-36.653-30.043-21.155-46.03-57.854-50.686-94.334l-.002-.004v-.002c-4.828-29.059-3.169-57.85-4.892-86.789-.714-11.811-1.961-27.822-2.965-41.728-.502-6.954-.944-13.381-1.227-18.493s-.407-8.914-.277-10.59l.002-.013-.002-.012c-.226-1.795.475-3.253 1.838-4.209s3.399-1.4 5.832-1.11z"/></svg>