<svg xmlns="http://www.w3.org/2000/svg" width="512" height="512" viewBox="0 0 512 512"><path d="M127.711 477.547c-170.281-98.17-170.281-344.925 0-443.094S512 59.662 512 256 297.993 575.716 127.711 477.547zM462.954 256c0-158.723-173.007-258.463-310.664-179.102s-137.658 278.842 0 358.203S462.954 414.722 462.954 256zm-72.926 125.707-49.843-45.427 3.882-4.253 49.843 45.426zm-271.379-3.63-3.752-4.365 51.16-43.93 3.752 4.366zm282.812-9.795-53.968-40.436 3.455-4.613 53.967 40.436zm-294.821-5.226-3.274-4.738 55.472-38.349 3.275 4.738zm304.914-9.233-57.59-35.08 2.993-4.918 57.59 35.08zm-315.283-6.971-2.763-5.053 59.175-32.334 2.762 5.053zm323.942-8.389-60.69-29.397 2.509-5.188 60.69 29.398zm-332.567-8.8-2.217-5.322 62.232-25.97 2.217 5.322zm339.713-7.32L364.13 298.9l2.003-5.401 63.229 23.444zm-346.49-10.678-1.649-5.525 64.604-19.326 1.649 5.525zm352.06-6.048-65.181-17.279 1.474-5.57 65.18 17.279zM76.01 293.047l-1.063-5.66 66.272-12.467 1.064 5.66zm360.863-4.619L370.33 277.48l.934-5.683 66.543 10.949zM73.124 274.031l-.467-5.74 67.212-5.468.467 5.739zm366.022-3.084-67.28-4.523.383-5.75 67.28 4.523zm-299.49-14.543L72.24 254.82l.135-5.762 67.414 1.584zm232.677-1.134-.168-5.762 67.403-1.946.168 5.761zm-232.081-11.03-66.88-8.623.737-5.716 66.88 8.622zm231.361-1.126-.765-5.71 66.835-8.983.765 5.71zm-229.496-10.912-65.611-15.565 1.327-5.604 65.611 15.565zm227.521-1.103-1.361-5.598 65.524-15.92 1.361 5.599zm-224.41-10.67L81.6 198.089l1.908-5.434 63.627 22.339zm221.18-1.072-1.935-5.424 63.504-22.682 1.936 5.424zm-216.856-10.313L88.61 180.178l2.464-5.204 60.941 28.866zm212.423-1.027-2.498-5.193 60.787-29.195 2.498 5.194zm-206.932-9.84L97.453 163.1l2.998-4.923 57.59 35.077zm201.34-.973-3.027-4.906 57.4-35.39 3.026 4.906zM161.64 187.94l-53.607-40.906 3.493-4.58 53.608 40.906zm188.042-.906-3.522-4.563 53.388-41.196 3.522 4.563zm-180.41-8.583-49.039-46.287 3.955-4.192 49.04 46.288zm156.155-15.796-4.704-3.33 39.013-55.006 4.704 3.33zm-10.139-6.746-5.018-2.824 33.043-58.778 5.019 2.825zm-111.827 9.36c-69.736 40.204-69.736 141.258 0 181.462s157.38-10.324 157.38-90.731-87.644-130.935-157.38-90.731zm41.806 109.267c-14.247-8.213-14.247-28.859 0-37.072s32.151 2.11 32.151 18.536-17.905 26.75-32.151 18.536zm38.414-32.828c-24.434-14.087-24.434-49.496 0-63.583s55.145 3.618 55.145 31.792-30.71 45.878-55.145 31.791z"/></svg>