<svg xmlns="http://www.w3.org/2000/svg" width="512" height="512"><path d="M142.186 244.055q-4.86-4.228-14.58-4.23h-30.96v36.18h30.96q9.72 0 14.58-4.32t4.86-14.04q0-9.358-4.86-13.59z"/><path d="M0 96v320h512V96zm150.827 250.385q-2.342-6.116-2.88-14.58-.54-8.46-1.62-16.2-1.442-10.079-6.12-14.76-4.682-4.678-15.3-4.679h-28.26v50.219h-28.26v-128.52h69.3q8.638 0 15.57 2.79 6.927 2.792 11.88 7.65a33.3 33.3 0 0 1 7.56 11.25c1.737 4.26 2.61 8.85 2.61 13.77q-.002 11.341-4.77 19.62-4.772 8.28-15.57 12.6v.36q5.219 1.442 8.64 4.41a24.5 24.5 0 0 1 5.58 7.021q2.16 4.05 3.15 8.908a78 78 0 0 1 1.35 9.721q.177 3.061.36 7.2.178 4.14.63 8.46a56 56 0 0 0 1.44 8.19q.986 3.872 2.97 6.57zm184.619-29.855c-3.127 6.908-7.771 12.873-13.941 17.888q-9.252 7.53-22.946 11.72-13.696 4.194-31.706 4.194-14.56-.002-28.25-3.578c-9.13-2.38-17.191-6.125-24.181-11.226q-10.49-7.646-16.655-19.493-6.171-11.841-5.922-28.127h37.504c0 5.922 1.069 10.942 3.208 15.051q3.204 6.172 8.512 9.992c3.536 2.553 7.688 4.442 12.461 5.676q7.153 1.851 14.804 1.85c3.455 0 7.155-.285 11.102-.863q5.922-.862 11.104-3.33c3.455-1.643 6.33-3.907 8.635-6.786q3.454-4.317 3.455-10.98-.002-7.153-4.565-11.596c-3.045-2.96-7.031-5.43-11.967-7.403s-10.529-3.701-16.777-5.182a458 458 0 0 1-18.999-4.934 168 168 0 0 1-19.245-6.045c-6.254-2.383-11.844-5.467-16.778-9.253q-7.403-5.674-11.967-14.188c-3.046-5.675-4.565-12.54-4.565-20.602 0-9.044 1.932-16.902 5.798-23.564q5.794-9.994 15.175-16.654 9.374-6.66 21.22-9.87 11.842-3.205 23.686-3.207 13.814.002 26.523 3.084 12.705 3.088 22.578 9.993 9.865 6.908 15.668 17.642c3.861 7.155 5.797 15.833 5.797 26.03h-37.504q-.498-7.894-3.33-13.077c-1.893-3.454-4.405-6.168-7.526-8.142-3.127-1.975-6.705-3.37-10.734-4.195-4.031-.82-8.43-1.234-13.2-1.234q-4.689.002-9.375.988-4.69.989-8.513 3.454-3.829 2.467-6.291 6.168-2.469 3.702-2.468 9.377c0 3.454.656 6.253 1.974 8.388q1.971 3.21 7.772 5.922 5.796 2.717 16.038 5.428 10.237 2.717 26.77 6.91 4.933.987 13.695 3.576 8.754 2.593 17.395 8.267 8.634 5.678 14.928 15.174 6.29 9.5 6.29 24.303-.001 12.093-4.687 22.454zm118.248-74.905h-38.521v104.76h-28.26v-104.76h-38.52v-23.76h105.301z"/></svg>