<svg xmlns="http://www.w3.org/2000/svg" width="16" height="16" viewBox="0 0 16 16"><path d="M7.963 1a4.8 4.8 0 0 0-1.549.254c-.67.215-1.28.574-1.795 1.053a4.9 4.9 0 0 0-1.207 1.675 5.1 5.1 0 0 0-.432 2.022v2.2a7.6 7.6 0 0 1-.382 2.37L2 12.344l.479.658h3.505c0 .526.215 1.038.586 1.41.37.37.885.586 1.412.586s1.04-.215 1.41-.586a2 2 0 0 0 .588-1.41h3.504l.479-.658-.586-1.772a7.6 7.6 0 0 1-.383-2.379V6.195a5.12 5.12 0 0 0-1.267-3.447 5.14 5.14 0 0 0-3.243-1.72A5 5 0 0 0 7.963 1zm.012 1.008q.207 0 .414.023a4.15 4.15 0 0 1 2.595 1.4 4.13 4.13 0 0 1 1.004 2.776v2.01a8.3 8.3 0 0 0 .444 2.691l.37 1.113H3.175v-.011h-.002l.371-1.114a8.6 8.6 0 0 0 .443-2.69V6.003c0-.563.119-1.112.346-1.615.227-.514.552-.97.97-1.34.42-.382.91-.671 1.436-.838a3.9 3.9 0 0 1 1.237-.203zm-.998 11.006h1.998a.94.94 0 0 1-.287.707 1 1 0 0 1-.706.299 1 1 0 0 1-.707-.301 1 1 0 0 1-.298-.705z"/></svg>