<svg xmlns="http://www.w3.org/2000/svg" width="16" height="16" viewBox="0 0 16 16"><path d="M5.91 2a2.3 2.3 0 0 0-.908.186q-.44.184-.775.529-.336.344-.495.752v.002a3.5 3.5 0 0 0-.197.83V4.3q-.042.42-.023.863.017.435.017.87 0 .303-.117.571a1.5 1.5 0 0 1-.308.47 1.5 1.5 0 0 1-.458.318 1.4 1.4 0 0 1-.556.115H2v.984h.09q.292 0 .556.121.267.117.456.319l.002.002q.195.196.308.466.117.27.117.567 0 .435-.017.869-.018.443.023.87v.001q.05.425.197.824v.002q.16.409.495.752.335.345.775.53.439.185.908.185H6v-.984h-.09q-.3 0-.562-.116a1.6 1.6 0 0 1-.457-.318 1.7 1.7 0 0 1-.309-.469 1.5 1.5 0 0 1-.111-.572q0-.342.011-.672.012-.341 0-.666a5 5 0 0 0-.054-.64 2.7 2.7 0 0 0-.168-.608A2.3 2.3 0 0 0 3.524 8a2.3 2.3 0 0 0 .736-.955q.118-.288.168-.602.048-.315.054-.64.012-.33 0-.666-.01-.336-.011-.678a1.47 1.47 0 0 1 .42-1.035q.196-.201.457-.319.262-.12.562-.12H6V2zM10 2v.984h.09q.299 0 .562.116.26.121.457.318.19.202.309.469.111.268.111.572 0 .342-.011.672-.013.341 0 .666.006.332.054.64.05.32.168.608.12.29.324.553.169.215.413.402l-.032.025a4 4 0 0 1 1.479.467H14v-.984h-.09q-.292 0-.556-.121a1.4 1.4 0 0 1-.456-.319l-.002-.002a1.4 1.4 0 0 1-.308-.466 1.4 1.4 0 0 1-.117-.567q0-.435.017-.869a6 6 0 0 0-.023-.87v-.001a3.6 3.6 0 0 0-.197-.824v-.002a2.2 2.2 0 0 0-.495-.752 2.3 2.3 0 0 0-.775-.53A2.3 2.3 0 0 0 10.09 2zm2 7a2.998 2.998 0 0 0-2.941 3.586 3 3 0 0 0 2.355 2.357A3.004 3.004 0 0 0 15 12a3.005 3.005 0 0 0-3-3z"/></svg>