<svg xmlns="http://www.w3.org/2000/svg" width="16" height="16" viewBox="0 0 16 16"><path d="M7.959 1a2.92 2.92 0 0 0-2.918 2.918V4.5h-.834L2.545 2.828l-.594.592 1.612 1.617-.018.05a8 8 0 0 0-.504 2.831q0 .295.02.58l.003.045H1v.836h2.17l.006.033a7.3 7.3 0 0 0 .953 2.531l.033.055L2.2 13.963l.594.592 1.87-1.873.058.066c.868.992 2.002 1.59 3.238 1.59 1.218 0 2.336-.58 3.2-1.545l.056-.064 1.91 1.92.594-.59-1.996-2.006.035-.057c.467-.74.808-1.62.984-2.584l.006-.033h2.172v-.836h-2.065l.002-.045a8 8 0 0 0 .022-.578 8 8 0 0 0-.518-2.867l-.02-.05 1.571-1.57-.592-.59L11.662 4.5h-.785v-.582A2.92 2.92 0 0 0 7.959 1zm0 .836a2.08 2.08 0 0 1 2.082 2.082V4.5H5.877v-.582a2.08 2.08 0 0 1 2.082-2.082zM4.346 5.338h7.228l.02.053a7.2 7.2 0 0 1 .447 2.527c0 1.61-.502 3.034-1.273 4.037-.77 1.001-1.772 1.545-2.809 1.545-1.036 0-2.037-.544-2.807-1.545-.772-1.003-1.275-2.427-1.275-4.037 0-.918.163-1.774.447-2.527z"/></svg>