<svg xmlns="http://www.w3.org/2000/svg" width="16" height="16" viewBox="0 0 16 16"><path d="M8 1a6.8 6.8 0 0 0-1.86.254 7 7 0 0 0-1.673.703 7.16 7.16 0 0 0-2.51 2.516 7 7 0 0 0-.71 1.668A7 7 0 0 0 1 8a7 7 0 0 0 .246 1.86 7 7 0 0 0 .711 1.673 7.3 7.3 0 0 0 1.094 1.416 7.3 7.3 0 0 0 1.416 1.094 7 7 0 0 0 1.674.71A7 7 0 0 0 8 15a7 7 0 0 0 1.86-.246 7 7 0 0 0 1.667-.711 7.16 7.16 0 0 0 2.516-2.508v-.002a7 7 0 0 0 .703-1.674A6.8 6.8 0 0 0 15 8q0-.964-.254-1.86a6.9 6.9 0 0 0-1.803-3.081A6.9 6.9 0 0 0 9.86 1.254 6.8 6.8 0 0 0 8 1zm0 1a5.8 5.8 0 0 1 1.588.215l.006.002a5.8 5.8 0 0 1 1.424.6l.003.001a6 6 0 0 1 1.21.944l.007.008a6 6 0 0 1 .944 1.209l.002.003a5.8 5.8 0 0 1 .6 1.424l.001.006Q14 7.17 14 8a5.8 5.8 0 0 1-.215 1.588l-.004.006a6 6 0 0 1-.6 1.431 6.16 6.16 0 0 1-2.16 2.157l-.003.002q-.654.388-1.426.605Q8.832 14 8 14a6 6 0 0 1-1.592-.209 6 6 0 0 1-1.433-.61 6.3 6.3 0 0 1-1.217-.939 6.05 6.05 0 0 1-1.547-2.65A6 6 0 0 1 2 8a6 6 0 0 1 .21-1.59 6 6 0 0 1 .608-1.426l.002-.004a6.16 6.16 0 0 1 2.155-2.162q.662-.389 1.431-.601l.006-.002A5.8 5.8 0 0 1 8 2z"/></svg>