<svg xmlns="http://www.w3.org/2000/svg" width="16" height="16" viewBox="0 0 16 16"><path d="M8 1a6.8 6.8 0 0 0-1.86.254 7 7 0 0 0-1.673.703 7.16 7.16 0 0 0-2.51 2.516 7 7 0 0 0-.71 1.668A7 7 0 0 0 1 8a7 7 0 0 0 .246 1.86 7 7 0 0 0 .711 1.673 7.3 7.3 0 0 0 1.094 1.416 7.3 7.3 0 0 0 1.416 1.094 7 7 0 0 0 1.674.71A7 7 0 0 0 8 15a7 7 0 0 0 1.86-.246 7 7 0 0 0 1.667-.711 7.16 7.16 0 0 0 2.516-2.51 7 7 0 0 0 .703-1.674A6.8 6.8 0 0 0 15 8q0-.964-.254-1.86a6.9 6.9 0 0 0-1.803-3.081A6.9 6.9 0 0 0 9.86 1.254 6.8 6.8 0 0 0 8 1z"/></svg>