<svg xmlns="http://www.w3.org/2000/svg" width="16" height="16" viewBox="0 0 16 16"><path d="M5.78 2 5 2.41V7h1V3.35l7.6 5.07L9 11.482v1.202l5.78-3.854V8zM4.431 8a2.42 2.42 0 0 0-1.721.709 2.4 2.4 0 0 0-.379.492 2.4 2.4 0 0 0-.143 2.149q.192.426.543.773.274.27.418.6.147.33.147.716v.862a.7.7 0 0 0 .205.496.7.7 0 0 0 .496.203h.865a.697.697 0 0 0 .701-.7v-.86q.001-.388.145-.717.148-.33.422-.6.351-.347.54-.773.192-.43.192-.928 0-.333-.088-.643a2.4 2.4 0 0 0-.625-1.07 2.4 2.4 0 0 0-.494-.379A2.4 2.4 0 0 0 4.432 8zm-.596 5.115h1.191v1.186q0 .064-.048.113a.16.16 0 0 1-.116.049h-.865a.15.15 0 0 1-.113-.049.15.15 0 0 1-.05-.113z"/></svg>