<svg xmlns="http://www.w3.org/2000/svg" width="24" height="24" viewBox="0 0 24 24"><path d="m7.18 1.305-.14.056L5.86 2.54l-.056.14v7.313a5.7 5.7 0 0 1 1.57.164V2.875h13.75v13.75H13.45A2 2 0 0 1 14 18v.195h7.32l.139-.056 1.18-1.178.056-.14V2.68l-.056-.14-1.179-1.18-.14-.056zm5.258 4.66-.813.832 3.605 3.693-2.236 2.237.42.42a2 2 0 0 1 .348.466l2.808-2.8v-.715zm-6.887 6.05a3.73 3.73 0 0 0-3.17 2.805L1.06 13.5 0 14.56l1.72 1.72-.22.22V18H0v1.5h1.5v.08A6 6 0 0 0 1.91 21L0 22.94 1.06 24l1.65-1.65A4.31 4.31 0 0 0 6 24a4.3 4.3 0 0 0 3.29-1.65L10.94 24 12 22.94 10.09 21a6 6 0 0 0 .41-1.45v-.1H12V18h-1.5v-1.5l-.22-.22L12 14.56l-1.06-1.06-1.32 1.32a3.73 3.73 0 0 0-4.07-2.804zm.701 1.499a2.25 2.25 0 0 1 1.34.644 2.25 2.25 0 0 1 .658 1.592h-4.5a2.25 2.25 0 0 1 2.502-2.236zM3 17.25h6v2.25a3.33 3.33 0 0 1-.96 2.04A3.33 3.33 0 0 1 6 22.5a3.33 3.33 0 0 1-3-3z"/></svg>