<svg xmlns="http://www.w3.org/2000/svg" width="16" height="16" viewBox="0 0 16 16"><path d="m7.83 1-.71.65c.98 1.93-1.84 4.54-1.84 4.54C2.79 8.3 3 10.46 3 10.46A4.4 4.4 0 0 0 6.58 15l.55-.76c-.75-1.09-1.56-2.32 0-4.55a3.5 3.5 0 0 0 1.19 2 1.85 1.85 0 0 1 .28 2.54l.53.77a4.72 4.72 0 0 0 3.63-2.64c.95-2.37-.82-5.18-.89-5.3l-.87.07a2.6 2.6 0 0 1-.56.81A6.57 6.57 0 0 0 7.83 1zm.48 1.75a5.31 5.31 0 0 1 .89 5.8l.35.68a1.85 1.85 0 0 0 1.84-.86A4.87 4.87 0 0 1 11.8 12a3.24 3.24 0 0 1-1.88 1.72 2.64 2.64 0 0 0-1-2.8A3 3 0 0 1 8 8.44l-.848-.38c-2.151 2.405-2.151 4.08-1.562 5.48A3.47 3.47 0 0 1 4 10.4c0-.07-.14-1.7 1.93-3.46.07-.11 2.24-2.07 2.38-4.19zM7.153 8.06l.008-.01h-.03z"/></svg>