<svg xmlns="http://www.w3.org/2000/svg" width="16" height="16" viewBox="0 0 16 16"><path d="M5 1q-.45 0-.9.3c-.3.1-.5.3-.7.6-.2.2-.3.6-.4.9 0 .4 0 .8.1 1.2H1.5l-.5.5v9l.5.5h12l.5-.5v-9l-.5-.5h-1.6c.1-.4.1-.8.1-1.2-.1-.3-.2-.6-.4-.9s-.4-.5-.7-.6-.6-.3-.9-.3-.6 0-.9.2c-.7.2-1.2.7-1.6 1.3-.4-.6-.9-1.1-1.6-1.3-.3-.1-.6-.2-.9-.2zm.2 1c.2 0 .4 0 .6.1.3.1.6.3.8.6s.4.6.4 1V4H4v-.2c-.1-.3-.1-.5-.1-.8.1-.2.1-.4.3-.5.1-.2.3-.3.5-.4.1-.1.3-.1.5-.1zm4.6 0c.2 0 .4 0 .6.1s.3.2.5.4c.1.1.1.3.2.5 0 .3 0 .5-.1.8 0 .1 0 .1-.1.2H8v-.3c0-.4.2-.7.4-1s.5-.5.8-.6c.2-.1.4-.1.6-.1zM2 5h5v8H2zm6 0h5v8H8z"/></svg>