<svg xmlns="http://www.w3.org/2000/svg" width="16" height="16" viewBox="0 0 16 16"><path d="M7.5 1c-.701 0-1.377.11-2.01.316l.309.952A5.5 5.5 0 0 1 7.5 2a5.5 5.5 0 0 1 1.701.268l.309-.952A6.5 6.5 0 0 0 7.5 1zm-2.951.707a6.53 6.53 0 0 0-2.842 2.842l.89.455a5.53 5.53 0 0 1 2.407-2.406zm5.902 0-.455.89a5.53 5.53 0 0 1 2.406 2.407l.891-.455a6.53 6.53 0 0 0-2.842-2.842zM1.316 5.49A6.5 6.5 0 0 0 1 7.5c0 .701.11 1.377.316 2.01l.952-.309A5.5 5.5 0 0 1 2 7.5a5.5 5.5 0 0 1 .268-1.701zm12.368 0-.952.309c.174.534.268 1.106.268 1.701s-.094 1.167-.268 1.701l.952.309A6.5 6.5 0 0 0 14 7.5c0-.701-.11-1.377-.316-2.01zM7.5 6.5a1 1 0 1 0 0 2 1 1 0 0 0 0-2zM2.598 9.996l-.891.455a6.53 6.53 0 0 0 2.842 2.842l.455-.89a5.53 5.53 0 0 1-2.406-2.407zm9.804 0a5.53 5.53 0 0 1-2.406 2.406l.455.891a6.53 6.53 0 0 0 2.842-2.842zM5.8 12.732l-.309.952A6.5 6.5 0 0 0 7.5 14c.701 0 1.377-.11 2.01-.316l-.309-.952A5.5 5.5 0 0 1 7.5 13a5.5 5.5 0 0 1-1.701-.268z"/></svg>