<svg xmlns="http://www.w3.org/2000/svg" width="16" height="16" viewBox="0 0 16 16"><path d="M5.59 2 1.33 3.4 1 4l.67 2.68.48.38h1.41v6.66l.5.5h7.85l.5-.52V7.04h1.44l.49-.38L15 4l-.36-.58L10.38 2l-.64.32a1 1 0 0 1-.05.14l-.15.29q-.116.158-.25.3a1.7 1.7 0 0 1-.59.39 1.82 1.82 0 0 1-1.43 0 1.7 1.7 0 0 1-.59-.39 2 2 0 0 1-.24-.29 2.7 2.7 0 0 1-.21-.44zm-.08 1.09.13.22a2.2 2.2 0 0 0 .36.44 2.9 2.9 0 0 0 .87.61 2.85 2.85 0 0 0 2.22 0 2.75 2.75 0 0 0 .91-.61q.205-.207.37-.45a1 1 0 0 0 .12-.21l3.4 1.14-.46 1.83h-1.52l-.5.5v6.66H4.56V6.56l-.5-.5H2.54l-.46-1.83z"/></svg>