<svg xmlns="http://www.w3.org/2000/svg" width="16" height="16" viewBox="0 0 16 16"><path d="M8 .986c-1.396.022-2.763.426-3.9 1.213C2.7 3.1 1.8 4.4 1.3 6c-.5 1.5-.4 3.2.2 4.7s1.7 2.7 3.1 3.5 3 1 4.6.7 3-1.2 4-2.4c1-1.3 1.6-2.8 1.6-4.4 0-2-.7-3.7-2-5.1-1.1-1.1-2.6-1.9-4.2-2Q8.3.982 8 .986zm-.092.996q.248 0 .492.018c1.4.1 2.6.7 3.6 1.7 1.1 1.1 1.7 2.7 1.7 4.3.1 1.4-.4 2.7-1.2 3.8-.9 1.1-2.1 1.8-3.4 2.1s-2.7.1-3.9-.6q-1.8-1.05-2.7-3c-.6-1.3-.6-2.7-.2-4A6.05 6.05 0 0 1 4.6 3c.962-.7 2.154-1.016 3.308-1.018zm-1.13 2.602L6 5v6l.777.416 4.5-3v-.832zM7 5.934 10.1 8 7 10.066z"/></svg>