<svg xmlns="http://www.w3.org/2000/svg" width="16" height="16" viewBox="0 0 16 16"><path d="M5.78 2 5 2.41V7h1V3.35l7.6 5.07L9 11.482v1.202l5.78-3.854V8zM4.552 7.8a3.76 3.76 0 0 0-2.084.65c-.752.484-1.233 1.183-1.498 2.03-.27.81-.214 1.717.105 2.516a3.78 3.78 0 0 0 1.658 1.873c.756.432 1.616.539 2.467.379.861-.161 1.61-.645 2.143-1.285l.006-.006c.528-.687.851-1.489.851-2.352a3.88 3.88 0 0 0-1.066-2.72l-.006-.006c-.585-.585-1.388-1.016-2.256-1.07a4 4 0 0 0-.32-.008zm-.043.905q.117 0 .232.008h.002c.656.047 1.22.328 1.697.805.516.515.803 1.273.803 2.037v.013c.047.65-.183 1.26-.566 1.79-.426.518-.993.85-1.61.992a2.52 2.52 0 0 1-1.83-.282q-.856-.498-1.287-1.431c-.28-.607-.282-1.265-.092-1.885v-.004c.19-.665.57-1.185 1.092-1.564.448-.326 1.01-.478 1.559-.479zm1.136 1.441L4 11.793l-.646-.647-.708.708 1 1h.708l2-2z"/></svg>