<svg xmlns="http://www.w3.org/2000/svg" width="16" height="16" viewBox="0 0 16 16"><path d="m1.5 2-.5.5v11l.5.5H9v-1H2V6h12v3h1V2.5l-.5-.5zM2 3h12v2H2zm5 4v1.094a1.6 1.6 0 0 0-.469.265l-.945-.539-.5.86.937.547a1.6 1.6 0 0 0 0 .546l-.937.547.5.86.945-.54a1.6 1.6 0 0 0 .469.266V12h1v-1.094a1.8 1.8 0 0 0 .469-.265l.945.539.5-.86-.937-.547a1.6 1.6 0 0 0 0-.546l.937-.547-.5-.86-.945.54A1.5 1.5 0 0 0 8 8.093V7zm.5 1.75a.72.72 0 0 1 .531.219.72.72 0 0 1 .219.531.72.72 0 0 1-.219.531.72.72 0 0 1-.531.219.72.72 0 0 1-.531-.219.72.72 0 0 1-.219-.531.72.72 0 0 1 .219-.531.72.72 0 0 1 .531-.219zM12.086 10v1.094q-.244.085-.47.265l-.946-.539-.5.86.937.547a1.6 1.6 0 0 0 0 .546l-.937.547.5.86.945-.54a1.6 1.6 0 0 0 .469.266V15h1v-1.094a1.8 1.8 0 0 0 .469-.265l.945.539.5-.86-.937-.547a1.6 1.6 0 0 0 0-.546l.937-.547-.5-.86-.945.54a1.5 1.5 0 0 0-.467-.266V10zm.5 1.75a.72.72 0 0 1 .53.219.72.72 0 0 1 .22.531.72.72 0 0 1-.22.531.72.72 0 0 1-.532.219.72.72 0 0 1-.531-.219.72.72 0 0 1-.219-.531.72.72 0 0 1 .219-.531.72.72 0 0 1 .533-.219z"/></svg>