<svg xmlns="http://www.w3.org/2000/svg" width="16" height="16" viewBox="0 0 16 16"><path d="M8.514 1a4.8 4.8 0 0 0-1.33.188A4.8 4.8 0 0 0 6 1.753a5 5 0 0 1-.816.426q-.405.162-.832.256a7 7 0 0 1-.881.128Q3 2.601 2.5 2.6l-.5.5v3.2a7 7 0 0 0 .26 1.919 7.8 7.8 0 0 0 .699 1.69 8.7 8.7 0 0 0 1.05 1.478q.6.68 1.288 1.273.69.59 1.443 1.1a28 28 0 0 0 1.506.953h.508a29 29 0 0 0 1.51-.957 16 16 0 0 0 1.449-1.1q.685-.59 1.285-1.27a8.8 8.8 0 0 0 1.05-1.478 7.8 7.8 0 0 0 .7-1.69 7 7 0 0 0 .256-1.92V3.1l-.5-.5q-.5 0-.967-.036a7 7 0 0 1-.885-.128 5 5 0 0 1-.83-.256 5 5 0 0 1-.82-.428 6 6 0 0 0-.58-.322 4 4 0 0 0-1.238-.383A5 5 0 0 0 8.514 1zm.002 1.002a4 4 0 0 1 .521.037 3.1 3.1 0 0 1 .943.291 5 5 0 0 1 .483.27 6.1 6.1 0 0 0 1.976.814 8 8 0 0 0 1.018.147l.078.005c.152.011.308.024.467.024V6.3a6 6 0 0 1-.22 1.647 6.7 6.7 0 0 1-.61 1.473 7.8 7.8 0 0 1-.932 1.309 13 13 0 0 1-1.185 1.171q-.65.553-1.356 1.032-.6.404-1.199.767-.6-.369-1.2-.77A16 16 0 0 1 5.948 11.9a12.5 12.5 0 0 1-1.187-1.173 7.7 7.7 0 0 1-.93-1.309 6.7 6.7 0 0 1-.61-1.473A6 6 0 0 1 3 6.301V3.59q.277-.01.54-.026a8 8 0 0 0 1.017-.146 6.4 6.4 0 0 0 1-.307 6 6 0 0 0 .982-.513c.291-.192.61-.344.941-.452a3.7 3.7 0 0 1 1.036-.144zM7.309 5.59a1.5 1.5 0 0 0 .627 2.3L7.5 10.5h2l-.436-2.61a1.5 1.5 0 1 0-1.755-2.3z"/></svg>