<svg xmlns="http://www.w3.org/2000/svg" width="16" height="16" viewBox="0 0 16 16"><path d="M6.004 1a1.04 1.04 0 0 0-1.024.707l-.457 1.4a2.32 2.32 0 0 1-1.441 1.45l-1.39.449a1.06 1.06 0 0 0-.643.67 1.046 1.046 0 0 0 .66 1.303l1.373.445a2.34 2.34 0 0 1 1.482 1.488l.452 1.39a1.042 1.042 0 0 0 1.586.503 1.1 1.1 0 0 0 .386-.52l.448-1.373a2.35 2.35 0 0 1 1.477-1.479l1.392-.45a1.04 1.04 0 0 0 .68-1.145 1.04 1.04 0 0 0-.725-.834l-1.375-.447a2.34 2.34 0 0 1-1.48-1.479l-.452-1.387a1.03 1.03 0 0 0-.383-.5A1.04 1.04 0 0 0 6.004 1zm6.008 7.998a.796.796 0 0 0-.787.549l-.248.762a1.07 1.07 0 0 1-.665.677l-.773.252a.8.8 0 0 0 .008 1.52l.764.246c.159.054.303.144.421.262q.18.18.258.422l.252.773a.804.804 0 0 0 1.52-.01l.248-.762a1.06 1.06 0 0 1 .68-.68l.77-.251a.8.8 0 0 0 .392-.293.79.79 0 0 0 .107-.72.8.8 0 0 0-.521-.509l-.764-.25a1.08 1.08 0 0 1-.68-.677l-.252-.774a.78.78 0 0 0-.293-.389.8.8 0 0 0-.437-.148z"/></svg>