<svg xmlns="http://www.w3.org/2000/svg" width="16" height="16" viewBox="0 0 16 16"><path d="m7.36 0-.223.018a10 10 0 0 0-.516.046l.108.014A1.3 1.3 0 0 1 7.084.03 2 2 0 0 0 7.359 0zM6.276.113C6.124.123 5.95.16 5.8.19c-.244.05-.418.087-.31-.03q-.186.08-.415.175c-.66.277-1.532.644-2.066 1.145l-.022-.14a5 5 0 0 1-.459.444c-.397.356-.875.785-.93 1.1l-.08.02c-.103.176-.183.37-.263.56a9 9 0 0 1-.117.275c-.17.287-.264.194-.276.182l.004.006C.488 4.692.29 5.343.123 5.883l-.031.105c.07.106.06.46.049.881-.01.306-.02.65 0 .961-.202 3.644 2.558 7.183 5.574 8 .387.138.935.152 1.441.164l.217.004c-.299-.085-.48-.113-.648-.139-.204-.032-.389-.06-.74-.183-.31-.146-.458-.307-.62-.483a4 4 0 0 0-.273-.271l.13.23c-.331-.117-.421-.19-.501-.254-.076-.06-.145-.115-.399-.195l.14-.18c-.208-.016-.554-.353-.648-.539l-.228.01c-.274-.339-.42-.581-.41-.771l-.072.13c-.02-.031-.083-.112-.16-.216-.272-.362-.744-.994-.372-.791q-.03-.028-.064-.055a.9.9 0 0 1-.272-.31l.098-.114c-.23-.298-.425-.678-.41-.805.123.167.209.197.293.225-.294-.729-.447-.743-.584-.756-.135-.013-.255-.025-.475-.717l.094-.007c-.049-.073-.083-.152-.12-.23l-.052-.11.04-.406C.79 8.68.906 7.62 1.001 6.764a17 17 0 0 0 .062-.635c.024-.203.138-.414.274-.668.1-.188.212-.399.312-.649l-.142-.025c.273-.477 1.561-1.916 2.156-1.842.16-.2.127-.18.055-.136-.058.035-.142.084-.168.043.468-.484.7-.507.96-.532a1.7 1.7 0 0 0 .303-.05c.23-.136.133-.112.004-.077-.13.034-.291.077-.181-.029a1.9 1.9 0 0 0 .634-.271c.195-.123.373-.235.973-.295.062.035-.028.062-.135.093l-.035.014c.72-.24 2.005-.147 2.865.25 1.086.508 2.308 2.009 2.356 3.42l.053.016c-.008.173-.003.356.002.543.01.415.023.851-.112 1.261l.133-.283c.012.326-.066.526-.16.764q-.046.111-.092.242l-.228.113c-.101.196-.089.249-.077.301.011.044.021.087-.04.22l-.133.12c-.313.28-.782.703-.948.746-.093-.002-.017-.076.051-.143a.4.4 0 0 0 .074-.084c-.132.091-.209.166-.279.233-.136.13-.236.227-.633.336l-.017-.04c-1.478.696-3.531-.684-3.504-2.564-.011.081-.03.095-.05.11-.008.007-.018.013-.028.029-.076-.968.446-1.94 1.328-2.336.863-.427 1.876-.252 2.494.324-.34-.445-1.017-.917-1.816-.873-.785.012-1.52.512-1.764 1.053-.245.155-.36.481-.45.744-.057.169-.105.312-.173.363-.236 1.732.442 2.48 1.59 3.36.09.062.103.098.097.129 1.355.506 2.754.383 3.926-.557.137-.107.28-.246.402-.367.146-.145.267-.263.317-.266-.074.112-.065.134-.055.158.01.021.022.043-.03.133.136-.219.12-.28.104-.34-.018-.072-.035-.144.203-.488l.16.223c-.026-.182.073-.382.184-.604.134-.266.284-.563.254-.906.127-.192.143.206.008.648.117-.308.107-.455.094-.62a1.7 1.7 0 0 1 .004-.354l.045.117a2 2 0 0 1 .107.295c-.082-.336.02-.596.105-.817a2 2 0 0 0 .082-.246c-.014-.007-.03.001-.05.01-.064.03-.144.069-.166-.36.003-.163.031-.165.058-.167.013-.001.026-.002.035-.022-.049-.027-.174-.214-.25-.572.03-.046.073.026.118.102.036.06.071.124.105.13a5 5 0 0 0-.064-.306 2 2 0 0 1-.07-.414c-.12-.25-.132-.211-.147-.164-.013.04-.029.085-.11-.034-.138-.429-.048-.411.057-.392.073.014.154.028.166-.11.326.475.523 1.187.625 1.555l.024.086a6.6 6.6 0 0 0-.325-1.168c.043.018.024-.11.006-.234-.028-.186-.053-.363.135-.016-.335-1.232-1.433-2.384-2.443-2.924l.002.004c.123.112.276.252.22.274-.402-.24-.427-.303-.457-.383-.008-.02-.015-.042-.03-.067C9.705.79 9.599.824 9.487.86a.6.6 0 0 1-.23.037 5 5 0 0 0-1.068-.44C8.034.411 7.86.36 7.625.275l.031.15c-.283-.094-.435-.063-.61-.029a1.5 1.5 0 0 1-.536.03c-.034-.026.175-.094.35-.12a1.4 1.4 0 0 1-.456-.005c-.126-.02-.24-.039-.5.023.08-.057.165-.1.25-.144q.062-.032.123-.067zm-.203 1.592a2 2 0 0 0-.176.07.7.7 0 0 1 .176-.07zm.604-1.5.074.014c.118.02.227.037.209.066.154-.035.189-.066-.283-.08zm.279.08-.1.02.094-.008zM.437 3.447a.6.6 0 0 1-.091.365l-.008.018.027-.02c.025-.018.07-.055.145-.107.118-.266.064-.25.004-.234-.032.008-.069.015-.077-.022zM.144 4.641c-.16.205-.148.297-.135.402a.6.6 0 0 1 .006.14 3 3 0 0 0 .103-.423H.12zM9.59 6.412c-.033.001-.075.085-.096.176.02.01.037.06.053.107.028.08.054.158.084.037.016-.238-.008-.32-.041-.32zm2.9.805-.039.097a4.7 4.7 0 0 1-.463 1.475c.261-.49.431-1.028.502-1.572zm-3.07.18a1.4 1.4 0 0 1-.19.427l-.033.06c-.336.212-.237.052-.125-.132a1 1 0 0 0 .125-.242c-.359.452-.268.478-.176.504.045.012.09.025.084.086a1.7 1.7 0 0 0 .315-.704zM8.338 8.42a2 2 0 0 1-.656.033c-.265.004.05.137.396.19a4 4 0 0 0 .26-.223zm-3.346.033c.052.191.152.36.252.526l.04.062-.083-.24a1.2 1.2 0 0 1-.185-.303zm-.203.365-.037.186q.07.097.137.195c.12.175.235.348.398.483a5 5 0 0 0-.213-.368c-.08-.13-.169-.272-.285-.496zm.332.276c.62 1.11 2.517 1.948 3.51 1.533-.46.017-1.043.008-1.559-.182-.196-.1-.457-.3-.465-.369l-.005.012a.1.1 0 0 0-.01.076 3.1 3.1 0 0 1-1.02-.777c.153.223.319.44.532.61-.216-.074-.474-.372-.678-.606-.135-.157-.248-.285-.305-.297z"/></svg>