<svg xmlns="http://www.w3.org/2000/svg" width="16" height="16" viewBox="0 0 16 16"><path d="M8.297 0q-.664.015-1.143.195-.475.18-.771.54-.298.359-.44.859a4.2 4.2 0 0 0-.138 1.125 6 6 0 0 0 .03.625q.032.306.03.617-.007.735-.232 1.36a4.4 4.4 0 0 1-.682 1.202q-.32.407-.646.883a9 9 0 0 0-.594.992 6.4 6.4 0 0 0-.432 1.055q-.164.54-.164 1.07l.018.188q.008.086.008.18a.1.1 0 0 1-.026.07 3 3 0 0 0-.21.266 2 2 0 0 1-.204.242 2 2 0 0 1-.232.203 1 1 0 0 1-.297.148q-.36.11-.549.297-.187.189-.187.586a4 4 0 0 0 .033.352q.022.163.021.336a2 2 0 0 1-.068.476 1.7 1.7 0 0 0-.065.469.8.8 0 0 0 .08.351.7.7 0 0 0 .194.22.8.8 0 0 0 .29.132 3 3 0 0 0 .345.063q.523.07.992.156a3.6 3.6 0 0 1 .953.328 1.8 1.8 0 0 0 .53.18q.297.054.556.054a1.5 1.5 0 0 0 .555-.101 1.1 1.1 0 0 0 .334-.219 1.7 1.7 0 0 0 .197-.227q.07-.101.138-.117.336-.078.68-.133a4 4 0 0 1 .672-.054q.407 0 .797.031l.79.063a.8.8 0 0 1 .204.054q.063.031.125.149.219.414.516.57t.75.156q.195-.015.39-.07a1.5 1.5 0 0 0 .383-.172 2.8 2.8 0 0 0 .625-.523q.235-.266.469-.438a3.6 3.6 0 0 1 .555-.328q.195-.102.39-.195a3 3 0 0 0 .375-.22 1 1 0 0 0 .235-.218.5.5 0 0 0 .093-.305.8.8 0 0 0-.078-.328 1.1 1.1 0 0 0-.18-.28 2 2 0 0 1-.187-.243 1.8 1.8 0 0 1-.219-.477 3 3 0 0 1-.07-.289 1.3 1.3 0 0 0-.18-.453.84.84 0 0 0-.375-.297 3.3 3.3 0 0 0 .164-1.039 3.9 3.9 0 0 0-.21-1.25 6 6 0 0 0-.524-1.11q-.32-.53-.711-1.03t-.766-.993a2.6 2.6 0 0 1-.328-.523 2.5 2.5 0 0 1-.226-.977 16 16 0 0 1-.008-.57v-.133q-.007-.642-.078-1.265a3.4 3.4 0 0 0-.32-1.133 2.06 2.06 0 0 0-.72-.82Q9.088-.002 8.298 0zm.445 2.438a.57.57 0 0 1 .383.124 1 1 0 0 1 .242.313 1.3 1.3 0 0 1 .125.406q.03.219.031.399a.53.53 0 0 1-.062.257q-.055.086-.234.086a.3.3 0 0 1-.102-.03q-.04-.025-.04-.087a.4.4 0 0 1 .04-.172.4.4 0 0 0 .04-.18.8.8 0 0 0-.118-.39q-.11-.18-.352-.18a.4.4 0 0 0-.203.055.4.4 0 0 0-.125.14.6.6 0 0 0-.07.196 1 1 0 0 0-.016.195.13.13 0 0 1 .008.078.2.2 0 0 0 .008.102 1 1 0 0 0 .031.094q.017.038.047.047a1.5 1.5 0 0 1 .344.156 1.1 1.1 0 0 0 .351.14 1 1 0 0 0 .14.04.34.34 0 0 1 .134.054.4.4 0 0 1 .094.094.24.24 0 0 1 .039.14l-.016.11a1 1 0 0 1-.024.102l-.57.445a.4.4 0 0 1-.101.055 1 1 0 0 0-.102.046q-.281.165-.562.313a1.4 1.4 0 0 1-.594.164H7.46q-.311 0-.461-.117a.9.9 0 0 1-.242-.29 5 5 0 0 1-.172-.35.7.7 0 0 0-.266-.306q-.07-.046-.07-.117a.26.26 0 0 1 .07-.195 1.3 1.3 0 0 1 .157-.133 2 2 0 0 1 .18-.117.4.4 0 0 0 .148-.14 1 1 0 0 1 .093-.094l.094-.079a.3.3 0 0 0 .07-.085.3.3 0 0 0 .024-.125q0-.102-.016-.196a1 1 0 0 0-.054-.187.36.36 0 0 0-.11-.149.3.3 0 0 0-.18-.054q-.186.007-.257.132a.56.56 0 0 0-.055.399l.047.148a.5.5 0 0 0 .062.125q.04.055.094.055a.2.2 0 0 1 .047.008q.024.007.024.031 0 .047-.063.102t-.102.054q-.063 0-.109-.093a1.5 1.5 0 0 1-.086-.22 1.5 1.5 0 0 1-.07-.405 5 5 0 0 0 .031-.25.64.64 0 0 1 .086-.266 1 1 0 0 1 .164-.203.32.32 0 0 1 .227-.086q.187.008.28.125a1 1 0 0 1 .157.297q.063.18.078.36.016.18.016.296 0 .04.11.04a1 1 0 0 0 .124-.009.5.5 0 0 1 .203.008 1 1 0 0 1 .118.04l.093.038a.2.2 0 0 0 .047.016q.008 0 .008-.04 0-.115-.016-.234a2 2 0 0 1-.015-.234q.007-.406.187-.61t.586-.203zM6.156 5.594q.055.015.164.156t.274.336a2.2 2.2 0 0 0 .36.344.7.7 0 0 0 .429.148q.219.008.492-.148.274-.156.563-.336t.546-.328q.258-.15.446-.149.086 0 .164.117a4 4 0 0 1 .172.29 3 3 0 0 1 .172.382 10 10 0 0 1 .242.75 2 2 0 0 1 .047.203.6.6 0 0 0 .046.196 1 1 0 0 0 .118.156q.172.217.289.375a1.3 1.3 0 0 1 .18.32 3 3 0 0 1 .109.36 7 7 0 0 1 .094.476 5 5 0 0 0 .093.375 10 10 0 0 1 .102.375 1 1 0 0 0-.164.078.6.6 0 0 0-.149.133 1.4 1.4 0 0 0-.117.164.3.3 0 0 0-.047.149l.008.023v.016a1.5 1.5 0 0 0-.344.25 1 1 0 0 0-.21.304 2 2 0 0 0-.126.368q-.046.196-.078.406-.023.195-.054.398a9 9 0 0 0-.055.414 9 9 0 0 1-.055.414 4 4 0 0 1-.078.375v.008a.3.3 0 0 1-.023.063.2.2 0 0 1-.032.047 2.6 2.6 0 0 1-.406.257 3.5 3.5 0 0 1-.976.336 2.5 2.5 0 0 1-.47.047q-.248 0-.515-.047a2 2 0 0 1-.492-.148 1.8 1.8 0 0 1-.422-.266 1.5 1.5 0 0 1-.328-.398 1 1 0 0 0 .313-.203.44.44 0 0 0 .125-.328 2 2 0 0 0-.102-.32 1.4 1.4 0 0 0-.25-.391 20 20 0 0 0-.36-.399 3 3 0 0 0-.398-.36q-.21-.155-.39-.257a.75.75 0 0 0-.313-.11l.008-.085.008-.086q0-.134-.016-.266a2 2 0 0 1-.016-.265q.008-.515.125-1.016a2.8 2.8 0 0 1 .407-.93 1 1 0 0 1 .132-.164 1.3 1.3 0 0 0 .133-.156l.016-.031a.6.6 0 0 1-.078-.227 2 2 0 0 1-.016-.234 1.6 1.6 0 0 1 .219-.758q.102-.18.203-.352.1-.171.188-.351.015-.015.015-.063v-.133a3 3 0 0 1 .008-.21q.009-.093.07-.094zm4.79 5.656.093.258a2 2 0 0 0 .117.258.6.6 0 0 0 .172.21.4.4 0 0 0 .258.079.66.66 0 0 0 .297-.07 7 7 0 0 0 .281-.15l.266-.148a.53.53 0 0 1 .265-.07.53.53 0 0 1 .461.235.3.3 0 0 1 .055.101 3 3 0 0 0 .11.352l.124.312a2 2 0 0 0 .149.297 5 5 0 0 0 .203.305.6.6 0 0 1 .07.117.3.3 0 0 1 .024.117.26.26 0 0 1-.079.188 1 1 0 0 1-.164.132 2 2 0 0 1-.257.133l-.258.117a3.1 3.1 0 0 0-.977.75 1.8 1.8 0 0 1-.375.329 1.7 1.7 0 0 1-.445.203 1.1 1.1 0 0 1-.32.047q-.399 0-.633-.25a.9.9 0 0 1-.235-.633 3 3 0 0 1 .032-.29 2 2 0 0 1 .062-.273 4.7 4.7 0 0 0 .211-.86q.063-.429.102-.882.023-.29.125-.523a.7.7 0 0 1 .125-.203 1.3 1.3 0 0 0 .14-.188zm-7.055.086a.47.47 0 0 1 .289.094 1.2 1.2 0 0 1 .218.21 2.7 2.7 0 0 1 .266.4 8 8 0 0 0 .234.405q.141.236.282.446l.289.43a3 3 0 0 0 .203.28 3 3 0 0 1 .203.282 1 1 0 0 1 .133.25.8.8 0 0 1 .047.273.9.9 0 0 1-.094.375.6.6 0 0 1-.234.242 1 1 0 0 1-.336.125 2 2 0 0 1-.368.032 1 1 0 0 1-.148-.024 2 2 0 0 1-.219-.062l-.21-.07q-.095-.031-.141-.055a2.2 2.2 0 0 0-.43-.172q-.204-.055-.406-.102a4 4 0 0 0-.414-.07 8 8 0 0 1-.446-.062 1 1 0 0 1-.336-.118q-.147-.085-.148-.297a1.2 1.2 0 0 1 .063-.367q.063-.188.062-.398a3 3 0 0 0-.031-.313 2 2 0 0 1-.024-.312q0-.226.11-.336a.74.74 0 0 1 .312-.172q.257-.085.422-.234a3 3 0 0 0 .297-.305 2 2 0 0 1 .258-.266.44.44 0 0 1 .297-.11z"/></svg>