<svg xmlns="http://www.w3.org/2000/svg" width="16" height="16" viewBox="0 0 16 16"><path d="M10.693 2.438a2.8 2.8 0 0 0-1.117.224A2.9 2.9 0 0 0 8.05 4.19a2.8 2.8 0 0 0-.227 1.12 3 3 0 0 0 .018.33 2 2 0 0 0 .056.326A8 8 0 0 1 6.201 5.7a8.2 8.2 0 0 1-3.008-1.525A8 8 0 0 1 1.98 2.963q-.2.329-.295.693a2.95 2.95 0 0 0-.006 1.453 3 3 0 0 0 .252.649 2.94 2.94 0 0 0 .935 1.04 2.8 2.8 0 0 1-1.304-.362v.033a2.84 2.84 0 0 0 .65 1.822 3 3 0 0 0 .727.633 2.8 2.8 0 0 0 .925.361 2.8 2.8 0 0 1-1.021.09 5 5 0 0 1-.27-.035 2.9 2.9 0 0 0 .407.8 2.84 2.84 0 0 0 2.273 1.19A5.76 5.76 0 0 1 1 12.52a8 8 0 0 0 2.11.968 8.2 8.2 0 0 0 2.292.325 8.5 8.5 0 0 0 2.38-.329 7.8 7.8 0 0 0 2.095-.95 7.8 7.8 0 0 0 1.719-1.52 8.4 8.4 0 0 0 1.263-2.041 8.5 8.5 0 0 0 .536-1.627 8 8 0 0 0 .183-1.701 5 5 0 0 0-.014-.377 6 6 0 0 0 .786-.68 5.6 5.6 0 0 0 .648-.803 5.7 5.7 0 0 1-1.646.45 2.82 2.82 0 0 0 1.257-1.587 5.7 5.7 0 0 1-1.816.698 2.85 2.85 0 0 0-2.1-.909z"/></svg>