<svg xmlns="http://www.w3.org/2000/svg" width="16" height="16" viewBox="0 0 16 16"><path d="M8.15 1 4.29 4.83H1.5l-.5.5v5l.5.5h2.79l3.86 3.85.85-.33v-13zM8 2.56v10.58L4.85 10l-.35-.17H2v-4h2.5l.35-.15zm5.428.85-.711.71A5.98 5.98 0 0 1 14 7.83a5.98 5.98 0 0 1-1.29 3.719l.712.709A6.97 6.97 0 0 0 15 7.83a6.97 6.97 0 0 0-1.572-4.42zm-1.424 1.424-.717.717A4 4 0 0 1 12 7.83a4 4 0 0 1-.719 2.286l.717.717A4.98 4.98 0 0 0 13 7.83c0-1.124-.37-2.161-.996-2.996zm-1.44 1.437-.738.74a2 2 0 0 1-.006 1.647l.74.738c.28-.456.44-.992.44-1.566 0-.57-.16-1.105-.436-1.559z"/></svg>