<svg xmlns="http://www.w3.org/2000/svg" width="16" height="16" viewBox="0 0 16 16"><path d="M8.445 2.857V11h.881v-.795h.022q.558.924 1.648.924 1.166 0 1.838-.826.671-.833.67-2.213 0-1.241-.602-1.979-.596-.74-1.654-.74-1.25 0-1.9 1.096h-.022v-3.61zM4.902 5.371q-1.057 0-1.869.516v.902q.8-.677 1.793-.678 1.133 0 1.133 1.403l-1.648.232q-1.815.252-1.815 1.793 0 .72.461 1.154.467.435 1.29.436 1.116 0 1.69-.988h.022V11h.88V7.422q.001-2.051-1.937-2.05zm6.127.74q.725 0 1.149.522.424.52.424 1.44 0 1.09-.456 1.702-.45.614-1.251.614-.683 0-1.13-.473a1.65 1.65 0 0 1-.439-1.162v-.768q0-.806.467-1.338.467-.537 1.236-.537zM5.96 8.217v.549q0 .704-.43 1.166a1.4 1.4 0 0 1-1.078.457q-.479-.001-.77-.254a.85.85 0 0 1-.283-.66q0-.554.311-.768.312-.221.924-.307zM0 11v3h16v-3h-1v2H1v-2z"/></svg>