<svg xmlns="http://www.w3.org/2000/svg" width="16" height="16" viewBox="0 0 16 16"><path d="M8.068 0a4.8 4.8 0 0 0-1.463.21c-.44.14-.886.35-1.326.636a6.6 6.6 0 0 1-1.119.584 7 7 0 0 1-1.142.353 8 8 0 0 1-1.19.17Q1.221 2 .57 2v4a8 8 0 0 0 .287 2.166 9.8 9.8 0 0 0 .79 1.943 11 11 0 0 0 1.193 1.725 15 15 0 0 0 1.49 1.531 16 16 0 0 0 1.703 1.326 27 27 0 0 0 1.807 1.143l.24.143.24-.143q.902-.523 1.793-1.143a18 18 0 0 0 1.703-1.326 15 15 0 0 0 1.493-1.531 10.3 10.3 0 0 0 1.187-1.725 9 9 0 0 0 .79-1.943A8 8 0 0 0 15.575 6V2q-.649-.002-1.256-.047a7.5 7.5 0 0 1-2.332-.523 7 7 0 0 1-1.125-.59A7 7 0 0 0 10.2.475 4.6 4.6 0 0 0 9.525.21a4 4 0 0 0-.697-.154A5 5 0 0 0 8.068 0zm.006.994a3.9 3.9 0 0 1 1.156.166 4.3 4.3 0 0 1 1.061.502 8 8 0 0 0 2.047.943 9.6 9.6 0 0 0 2.232.377v3.024a6.8 6.8 0 0 1-.261 1.906 8.3 8.3 0 0 1-.71 1.744 9.6 9.6 0 0 1-1.08 1.573 15 15 0 0 1-1.341 1.38 15 15 0 0 1-1.516 1.207 22 22 0 0 1-1.588 1.016 22 22 0 0 1-1.594-1.016 16 16 0 0 1-1.51-1.207 15 15 0 0 1-1.341-1.38 9.6 9.6 0 0 1-1.08-1.573 8.6 8.6 0 0 1-.72-1.744 7 7 0 0 1-.259-1.906V2.988A10 10 0 0 0 3.8 2.61a8 8 0 0 0 2.052-.947 4 4 0 0 1 1.056-.502A4 4 0 0 1 8.074.994zm3.283 3.336-.406.035-4.36 5.149-1.486-2.12-.4-.068-.463.33-.068.4 1.908 2.727.219.12.457.029.232-.104 4.836-5.715-.03-.404z"/></svg>