<svg xmlns="http://www.w3.org/2000/svg" viewBox="0 0 512 512"><path d="M256 0c-30.738 0-56 25.262-56 56s25.262 56 56 56 56-25.262 56-56-25.262-56-56-56zm0 32c13.444 0 24 10.556 24 24s-10.556 24-24 24-24-10.556-24-24 10.556-24 24-24zm167.926 80.06a41 41 0 0 0-10.21 1.483 16 16 0 0 0-1.087.346S326.59 143.96 256 143.96c-70.571 0-157.662-30.225-157.662-30.225a16 16 0 0 0-1.215-.377c-24.622-6.566-50.67 13.634-49.096 40.4l.002.014c.654 10.952 6.392 20.572 13.264 26.551 6.871 5.98 14.522 9.24 21.646 11.615l.135.043 92.01 29.774c8.232 3.13 11.813 5.907 13.717 10.848l.02.052c2.436 6.26 2.367 21.947-.37 39.088l-5.77 28.983-37.292 163.41c-5.382 22.24 10.07 43.385 32.256 47.263 10.727 1.876 21.592-1.076 29.521-6.978s13.242-14.269 16.111-23.486l32.744-101.204 32.877 101.479-.082-.264c5.667 18.578 24.242 34.23 45.76 30.451 21.419-3.76 36.977-24.787 32.283-46.83l-.05-.228-37.36-163.684-5.765-28.949c-2.69-16.872-1.475-33.972.287-37.129l.08-.144c.828-1.52 10.78-8.301 17.549-10.844l87.855-31.858.016-.005c6.84-2.489 14.402-5.17 21.6-11.122 7.196-5.95 12.929-16.621 12.929-27.855 0-11.722-4.544-23.11-13.549-31.21-6.753-6.077-16.393-9.66-26.525-9.48zm1.062 31.76c2.172-.22 2.94.499 4.06 1.508 1.496 1.346 2.952 4.354 2.952 7.422 0 2.976.233 1.91-1.32 3.193-1.553 1.285-5.99 3.47-12.15 5.711l-87.985 31.905-.162.06c-9.217 3.456-25.209 8.66-34.387 25.436-10.185 18.316-6.974 38.67-3.894 57.851a16 16 0 0 0 .107.588l5.898 29.631a16 16 0 0 0 .094.436l37.36 163.677c.902 4.255-1.739 7.804-6.518 8.643-4.682.822-7.526-1.408-9.62-8.27l-.081-.263-37.56-115.93-.005-.012a221 221 0 0 1-4.476-15.734l-.002-.004-5.76-23.48a16.002 16.002 0 0 0-31.08.007l-5.3 21.65-.005.02a270 270 0 0 1-5.476 19.336v.004l-36.9 114.049-.055.17c-1.131 3.632-3.069 6.14-4.664 7.328-1.596 1.188-2.532 1.542-4.905 1.127-4.014-.702-7.162-6.158-6.664-8.217l.05-.201 37.39-163.83a16 16 0 0 0 .091-.436l5.9-29.63a16 16 0 0 0 .106-.588c3.036-18.908 5.564-38.055-1.38-55.91-6.086-15.755-19.876-24.588-32.471-29.338a16 16 0 0 0-.72-.252l-92.411-29.9c-4.868-1.625-8.818-3.713-10.746-5.391-1.926-1.676-2.19-2.034-2.326-4.305v-.002c-.421-7.17 3.47-8.982 8.777-7.615 3.107 1.11 89.249 31.697 167.25 31.697 78.141 0 163.675-30.624 166.414-31.611 1.028-.28 1.885-.46 2.574-.53z"/></svg>