<svg xmlns="http://www.w3.org/2000/svg" width="512" height="512" viewBox="0 0 512 512"><path d="M256 64c-17.725 0-33.237 14.114-31.965 33.072l-.023-.48 8 216L232 312c0 13.065 10.935 24 24 24s24-10.935 24-24l-.012.592 8-216-.023.48C289.237 78.114 273.725 64 256 64zm-.035 30.928c.009.139.023.084.035.193.012-.11.026-.054.035-.193l-.015.306c.128.947.296.799-.01.772l-.01-.281-.01.28c-.306.028-.138.176-.01-.77zM256 384c-17.484 0-32 14.516-32 32s14.516 32 32 32 32-14.516 32-32-14.516-32-32-32z"/></svg>