<svg xmlns="http://www.w3.org/2000/svg" width="512" height="512" viewBox="0 0 512 512"><path d="M90.545 32a58.56 58.56 0 0 0-41.397 17.148A58.56 58.56 0 0 0 32 90.545v255.273a58.57 58.57 0 0 0 17.146 41.397h.002v.002a58.57 58.57 0 0 0 41.397 17.146h178.691a16 16 0 0 0 16-16 16 16 0 0 0-16-16H90.545a26.52 26.52 0 0 1-18.77-7.775h-.002A26.52 26.52 0 0 1 64 345.818V90.545a26.52 26.52 0 0 1 7.775-18.77A26.52 26.52 0 0 1 90.545 64h255.273a26.52 26.52 0 0 1 18.77 7.775 26.52 26.52 0 0 1 7.775 18.77v178.691a16 16 0 0 0 16 16 16 16 0 0 0 16-16V90.545a58.57 58.57 0 0 0-17.146-41.397A58.57 58.57 0 0 0 345.818 32zm126.85 168.06a16 16 0 0 0-5.536.485 16 16 0 0 0-7.173 4.14 16 16 0 0 0 0 22.63L425.37 448h-93.734a16 16 0 0 0-16 16 16 16 0 0 0 16 16H463.99l.059-.008a16 16 0 0 0 5.535-1.101 16 16 0 0 0 1.596-.815 16 16 0 0 0 3.287-2.195 16 16 0 0 0 .847-.567 16 16 0 0 0 1.59-1.87l.092-.143a16 16 0 0 0 2.14-4.2 16 16 0 0 0 .12-.408 16 16 0 0 0 .705-4.447L480 464V331.637a16 16 0 0 0-16-16 16 16 0 0 0-16 16v93.734L227.314 204.686a16 16 0 0 0-9.92-4.625z"/></svg>