<svg xmlns="http://www.w3.org/2000/svg" width="512" height="512" viewBox="0 0 512 512"><path d="M48 32a16 16 0 0 0-16 16v132.363c0 8.836 7.163 16 16 16s16-7.164 16-16V86.627l51.092 51.092a58.5 58.5 0 0 1 22.664-22.59L86.627 64h93.736c8.836 0 16-7.164 16-16s-7.164-16-16-16zm89.756 83.129 169.558 169.557c6.248 6.249 6.248 16.38 0 22.628s-16.38 6.248-22.628 0L115.092 137.72a58.54 58.54 0 0 0-7.455 28.59v255.146A58.543 58.543 0 0 0 166.182 480h255.273a58.54 58.54 0 0 0 41.397-17.148A58.54 58.54 0 0 0 480 421.455V166.182a58.545 58.545 0 0 0-58.545-58.545H166.182q-1.213.001-2.377.175a58.54 58.54 0 0 0-26.05 7.317z"/></svg>