<svg xmlns="http://www.w3.org/2000/svg" width="512" height="512" viewBox="0 0 512 512"><path d="M271.51 62.27c-105.847 0-198.19 84.845-207.45 190.605-9.257 105.738 70.583 193.395 176.43 193.395 32.834 0 55.349-3.089 85.479-15.749a16 16 0 0 0 8.552-20.949 16 16 0 0 0-20.949-8.552c-26.99 11.34-41.915 13.25-73.082 13.25-88.552 0-152.313-69.942-144.55-158.604 7.76-88.64 87.017-161.396 175.57-161.396 51.25 0 88.787 16.44 113.094 42.728s36.095 63.25 32.187 107.598v.002c-5.74 65.196-45.591 75.802-57.357 73.718h-.002c-7.416-1.315-13.505-4.876-18.13-11.761-4.624-6.886-7.941-17.796-6.464-34.58v-.002l8.48-96.248a16 16 0 0 0-14.533-17.344 16 16 0 0 0-17.344 14.535l-.841 9.56c-14.64-14.93-34.524-24.206-57.05-24.206-49.88 0-88.966 43.24-93.488 94.597-2.26 25.678 4.359 49.779 18.428 67.813s36.02 29.59 60.96 29.59c27.368 0 53.178-11.925 71.286-32.854 1.22 2.425 2.525 4.78 4.002 6.979 9.466 14.093 23.966 22.744 39.11 25.43 36.195 6.414 87.94-24.282 94.82-102.42v-.003c4.551-51.651-9.523-98.552-40.568-132.129-31.047-33.577-78.351-53.003-136.59-53.003zm-17.96 128c30.933 0 53.694 26.52 50.512 62.595-3.897 44.164-31.834 65.405-64.613 65.405-15.49 0-27.208-6.353-35.728-17.274s-13.413-26.82-11.784-45.322c3.258-37.002 30.634-65.404 61.614-65.404z"/></svg>