<svg xmlns="http://www.w3.org/2000/svg" viewBox="0 0 512 512"><path d="M256 32a112 112 0 0 0-112 112v16H80a32 32 0 0 0-32 32v216c0 39 33 72 72 72h272a72.22 72.22 0 0 0 50.48-20.55 69.48 69.48 0 0 0 21.52-50.2V192a31.75 31.75 0 0 0-9.35-22.6A31.82 31.82 0 0 0 432 160h-64v-16A112 112 0 0 0 256 32zm-9.643 32.584A80 80 0 0 1 336 144v16H176v-16a80 80 0 0 1 70.357-79.416zm76.063 183.59A16.008 16.008 0 0 1 332.51 274h-.02l-89.6 112a16 16 0 0 1-12.23 6h-.26a16 16 0 0 1-12.16-5.6l-38.4-44.88a16 16 0 0 1 24.32-20.8L230 350.91 307.51 254a16.01 16.01 0 0 1 14.91-5.826z"/></svg>