<svg xmlns="http://www.w3.org/2000/svg" width="512" height="512" viewBox="0 0 512 512"><path d="M256 48C141.315 48 48 141.315 48 256s93.315 208 208 208 208-93.315 208-208S370.685 48 256 48zm-14.918 32.672a208 208 0 0 0 3.7 25.633l-15.563 4.52a16 16 0 0 0-10.905 19.827 16 16 0 0 0 19.829 10.903l15.595-4.53a207.3 207.3 0 0 0 15.944 33.028l-13.287 9.39a16 16 0 0 0-3.83 22.301 16 16 0 0 0 22.3 3.832l13.262-9.373a209.3 209.3 0 0 0 27.684 27.652l-9.387 13.28a16 16 0 0 0 3.832 22.3 16 16 0 0 0 22.3-3.83l9.372-13.26a207 207 0 0 0 33.039 15.94l-4.522 15.572a16 16 0 0 0 10.903 19.829 16 16 0 0 0 19.828-10.905l4.521-15.566c8.371 1.75 16.916 3.033 25.63 3.748-7.161 85.45-75.014 153.265-160.48 160.371a208 208 0 0 0-3.72-25.57l15.596-4.53a16 16 0 0 0 10.902-19.826 16 16 0 0 0-11.547-11.076 16 16 0 0 0-8.281.172l-15.613 4.535a207 207 0 0 0-15.93-33.03l13.29-9.394a16 16 0 0 0 3.831-22.3 16 16 0 0 0-14.53-6.698 16 16 0 0 0-7.77 2.867l-13.304 9.403c-8.337-10.067-17.579-19.348-27.64-27.684l9.385-13.277a16 16 0 0 0-3.83-22.301 16 16 0 0 0-7.772-2.867 16 16 0 0 0-14.53 6.697l-9.402 13.303a207.3 207.3 0 0 0-33.02-15.947l4.534-15.608a16 16 0 0 0-10.904-19.828 16 16 0 0 0-8.28-.172 16 16 0 0 0-11.546 11.074l-4.522 15.569a208 208 0 0 0-25.578-3.698c7.109-85.478 74.946-153.336 160.416-160.476zm32.106.172c83.619 8.062 149.89 74.324 157.966 157.94a178 178 0 0 1-16.504-2.401l4.116-14.17a16 16 0 0 0-10.905-19.828 16 16 0 0 0-8.279-.172 16 16 0 0 0-11.547 11.074l-4.117 14.178a175 175 0 0 1-23.494-11.287l8.531-12.073a16 16 0 0 0-3.83-22.3 16 16 0 0 0-7.77-2.868 16 16 0 0 0-14.53 6.698l-8.565 12.117a176 176 0 0 1-19.992-20.025l12.097-8.551a16 16 0 0 0 3.83-22.301 16 16 0 0 0-14.529-6.697 16 16 0 0 0-7.771 2.867l-12.067 8.53c-4.323-7.501-8.138-15.332-11.336-23.481l14.22-4.13a16 16 0 0 0 10.903-19.825 16 16 0 0 0-11.547-11.076 16 16 0 0 0-8.28.171l-14.212 4.127a177 177 0 0 1-2.389-16.517zm-192.34 192.41c5.564.545 11.054 1.34 16.453 2.387l-4.125 14.207a16 16 0 0 0 10.902 19.828 16 16 0 0 0 19.826-10.905l4.125-14.205c8.146 3.2 15.977 7.011 23.475 11.334l-8.52 12.055a16 16 0 0 0 3.83 22.3 16 16 0 0 0 22.301-3.83l8.537-12.077c7.191 6.121 13.9 12.789 20.022 19.984l-12.1 8.553a16 16 0 0 0-3.83 22.3 16 16 0 0 0 22.3 3.83l12.052-8.517a175 175 0 0 1 11.275 23.49l-14.142 4.108a16 16 0 0 0-10.905 19.826 16 16 0 0 0 19.828 10.902l14.135-4.105a178 178 0 0 1 2.389 16.427c-83.543-8.12-149.741-74.34-157.828-157.892z"/></svg>