<svg xmlns="http://www.w3.org/2000/svg" width="512" height="512" viewBox="0 0 512 512"><path d="M256 64a16 16 0 0 0-12.8 6.4L152 192H87.89a32.57 32.57 0 0 0-32.62 32.44 30.3 30.3 0 0 0 1.31 9l46.27 163.14a50.72 50.72 0 0 0 48.84 36.91h208.62a51.21 51.21 0 0 0 49-36.86l46.33-163.36a15.6 15.6 0 0 0 .46-2.36l.53-4.93a13 13 0 0 0 .09-1.55A32.57 32.57 0 0 0 424.11 192H360L268.8 70.4A16 16 0 0 0 256 64zm0 42.67L320 192H192zm-3.977 169.83a37.7 37.7 0 0 1 41.858 37.47A37.87 37.87 0 0 1 256 351.63v.04a37.7 37.7 0 0 1-3.977-75.17z"/></svg>