<svg xmlns="http://www.w3.org/2000/svg" width="512" height="512" viewBox="0 0 512 512"><path d="M135.953 80c-30.677.092-55.861 25.276-55.953 55.953v94.879c-28.116 12.436-47.904 40.558-48 73.121V416a16 16 0 0 0 16 16 16 16 0 0 0 16-16v-7.953c.013-4.625 3.422-8.034 8.047-8.047h367.906c4.625.013 8.034 3.422 8.047 8.047V416a16 16 0 0 0 16 16 16 16 0 0 0 6.123-1.219A16 16 0 0 0 480 416V303.953c-.096-32.563-19.884-60.685-48-73.121v-94.879c-.092-30.677-25.276-55.861-55.953-55.953zm.094 32h239.906c13.45.04 24.007 10.596 24.047 24.047v52.361c-8.508-7.668-19.726-12.374-31.955-12.408h-80.09c-12.23.034-23.447 4.74-31.955 12.408-8.508-7.668-19.726-12.374-31.955-12.408h-80.09c-12.23.034-23.447 4.74-31.955 12.408v-52.361c.04-13.45 10.596-24.007 24.047-24.047zm7.998 96h79.91c9.022.025 15.994 6.985 16.043 16H128.002c.049-9.015 7.02-15.975 16.043-16zm144 0h79.91c9.022.025 15.994 6.985 16.043 16H272.002c.049-9.015 7.02-15.975 16.043-16zm-175.998 48h287.906c26.69.079 47.968 21.358 48.047 48.047v64.785a39.5 39.5 0 0 0-7.953-.832H71.953c-2.72.008-5.38.295-7.953.832v-64.785c.079-26.69 21.358-47.968 48.047-48.047z"/></svg>