<svg xmlns="http://www.w3.org/2000/svg" width="512" height="512" viewBox="0 0 512 512"><path d="M320.2 64a32 32 0 1 0-.2 64 31.89 31.89 0 0 0 32-32.1A31.55 31.55 0 0 0 320.2 64zM264 118c-13.26 0-14.76 0-23 7.3l-71.7 69.1c-8.3 8.45-9.3 9.45-9.3 26.6 0 12.67 3.78 14.61 18.51 22.9L240 278v90h32V254s-29-17-48.3-30l48.9-51.5c18.7 28.5 27.3 51.5 38 51.5H384v-32h-64l-29.5-60.1C284.32 118 284.32 118 264 118zM110.906 264.936A92 92 0 0 0 124 448a92.1 92.1 0 0 0 92-92 92 92 0 0 0-105.094-91.064zm264 0A92 92 0 0 0 388 448a92.1 92.1 0 0 0 92-92 92 92 0 0 0-105.094-91.064zM124 296a60.07 60.07 0 0 1 60 60 60 60 0 1 1-60-60zm264 0a60.07 60.07 0 0 1 60 60 60 60 0 1 1-60-60z"/></svg>