<svg xmlns="http://www.w3.org/2000/svg" width="512" height="512" viewBox="0 0 512 512"><path d="M164 64c-21.289 0-37.182 6.759-49.082 18.832-11.071 11.233-17.547 26.034-22.793 39.273L23.283 305.691a155 155 0 0 0-2.314 6.325 16 16 0 0 0-.602 2.068A104 104 0 0 0 16 344c0 57.438 46.562 104 104 104s104-46.562 104-104v-60.46l.04-.01 63.96.01V344c0 57.438 46.562 104 104 104s104-46.562 104-104c0-10.399-1.526-20.44-4.367-29.914-.325-1.085-2.914-8.393-2.914-8.393l-68.207-181.916-.637-1.672c-5.246-13.239-11.721-28.04-22.793-39.273C385.182 70.759 369.289 64 348 64c-18.436 0-33.934 7.24-44.611 19.607C292.943 95.707 288 111.638 288 128v34.809h-64V128c0-16.362-4.943-32.293-15.389-44.393C197.934 71.24 182.436 64 164 64zm-44 216c35.346 0 64 28.654 64 64s-28.654 64-64 64-64-28.654-64-64 28.654-64 64-64zm272 0c35.346 0 64 28.654 64 64s-28.654 64-64 64-64-28.654-64-64 28.654-64 64-64z"/></svg>