<svg xmlns="http://www.w3.org/2000/svg" width="512" height="512" viewBox="0 0 512 512"><path d="M215.953 32c-21.853.063-39.89 18.1-39.953 39.953V80h-32.047c-35.092.102-63.851 28.861-63.953 63.953v83.215l-23.924 9.533c-7.877 2.66-16.402 7.83-20.75 18.283-2.682 6.45-4.676 16.657-1.375 26.373l.115.34 46.696 119.574.037.092c3.794 9.373 13.345 15.315 23.426 14.592 28.524-1.828 53.194-14.97 72.515-31.707C197.632 402.322 224.803 416 256 416c31.19 0 58.264-13.7 79.12-31.787 19.315 16.745 43.982 29.913 72.515 31.742 10.05.725 19.581-5.178 23.396-14.512l.043-.107 46.742-119.268-.115.286c4.402-10.626 1.971-20.295-.994-27.438l-.014-.031-.011-.033c-4.524-10.766-13.645-15.888-21.344-18.465l.838.306L432 227.074v-83.121c-.102-35.092-28.861-63.851-63.953-63.953H336v-8.047C335.937 50.1 317.9 32.063 296.047 32zm.094 32h79.906c4.625.013 8.034 3.422 8.047 8.047V80h-96v-7.953c.013-4.625 3.422-8.034 8.047-8.047zm-72 48h223.906c17.864.052 31.995 14.183 32.047 32.047v70.293l-131.57-52.352-.582-.181a39.8 39.8 0 0 0-23.705 0l-.586.183L112 214.416v-70.37c.052-17.863 14.183-31.994 32.047-32.046zM272 197.852l172.76 68.74.422.14c1.436.481 1.994.973 2.097.955.683 2.031.459 3.388.86 2.42l-.059.141-44.312 113.065c-19.594-2.882-37.749-13.472-52.33-27.417l-.053-.05-.053-.051c-8.995-8.446-23.409-8.446-32.404 0l-.063.06-.064.061c-13.217 12.683-29.232 22.438-46.801 26.27zm-32 .003v184.333c-17.63-3.834-33.762-13.602-46.965-26.245l-.055-.052-.054-.051c-8.993-8.45-23.41-8.45-32.403 0l-.048.047-.05.047c-14.575 13.93-32.724 24.5-52.323 27.378L64.209 270.917c-.495-1.361-.546-.733.664-3.64-.584 1.404-.037.17 1.803-.403l.586-.182zm100.959 181.149-.127.121c-.008.008-.02.01-.027.018.05-.048.105-.092.154-.14zm-11.637.02c.042.04.09.077.131.117l-.025-.016zm-158.418.033c.042.04.09.076.133.117-.007-.006-.017-.007-.023-.014zm11.631.01-.1.093c-.004.005-.012.005-.017.01.037-.036.08-.068.117-.104zm158.877 37.023a10.05 10.05 0 0 0-4.322 1.54c-50.33 32.42-111.61 32.44-161.95.05a10.09 10.09 0 0 0-12.82 1.56c-10.77 11.28-35.19 33.3-62.43 47.75a7.15 7.15 0 0 0-3.89 5.73 6.73 6.73 0 0 0 7.92 7.15c20.85-4.18 41-13.68 60.2-23.83a8.71 8.71 0 0 1 8-.06A185.14 185.14 0 0 0 340 456a8.82 8.82 0 0 1 8.09.06c19.1 10 39.22 19.59 60 23.8a6.72 6.72 0 0 0 7.95-6.71l-.04-.01a6.84 6.84 0 0 0-3.56-6c-27.08-14.55-51.77-36.82-62.63-48a10.05 10.05 0 0 0-8.398-3.05z"/></svg>