<svg xmlns="http://www.w3.org/2000/svg" viewBox="0 0 512 512"><path d="M256 0c-30.738 0-56 25.262-56 56s25.262 56 56 56 56-25.262 56-56-25.262-56-56-56zm0 32c13.444 0 24 10.556 24 24s-10.556 24-24 24-24-10.556-24-24 10.556-24 24-24zM88 128.02c-21.902 0-40 18.098-40 40 0 21.901 18.098 40 40 40h92.5c4.839 0 6.995.638 8.266 3.943l.01.025.01.026c.58 1.495 2.107 11.414 2.015 21.662-.092 10.246-1.105 21.631-2.399 29.709v.004l-4.859 29.449-30.4 172.205v.004c-3.797 21.577 10.902 42.54 32.478 46.328 21.593 3.827 42.569-10.997 46.162-32.633L252.76 358.98l-4.897-.425 4.936.392s1.172-6.677 3.285-12.937c2.072 6.216 3.201 12.844 3.201 12.844l22.238-1.702-22.183 1.928 21.004 119.924.004.025c3.837 21.52 24.791 36.131 46.31 32.293s36.131-24.791 32.293-46.31l-30.379-172.084-4.873-29.54v-.003c-1.294-8.078-2.308-19.463-2.4-29.71s1.435-20.166 2.015-21.661l.01-.026.012-.025c1.22-3.171 3.665-3.943 8.266-3.943H424c21.902 0 40-18.099 40-40 0-21.902-18.098-40-40-40zm0 32h336c4.608 0 8 3.392 8 8 0 4.607-3.392 8-8 8h-92.4c-13.532 0-31.333 6.823-38.121 24.431-4.11 10.598-4.286 21.469-4.178 33.512.108 12.052 1.195 24.466 2.8 34.488l.006.037 4.92 29.825 30.418 172.302.004.014c.802 4.493-1.914 8.388-6.408 9.19-4.494.8-8.388-1.915-9.19-6.409L290.86 353.56l-.025.002c-.095-.633-1.388-9.129-4.676-18.626-1.706-4.928-3.828-10.171-7.633-15.377-3.804-5.207-10.867-11.64-20.925-11.64h-3.1c-10.121 0-17.091 6.484-20.861 11.665s-5.892 10.399-7.608 15.31c-3.304 9.46-4.645 17.927-4.746 18.569l-.045-.004-21.011 119.97-.012.07c-.74 4.455-4.569 7.16-9.016 6.368l-.021-.004-.022-.004c-4.542-.794-7.299-4.724-6.5-9.265l30.414-172.281 4.92-29.825.006-.037c1.606-10.022 2.693-22.436 2.8-34.488.109-12.04-.066-22.908-4.173-33.502-6.734-17.483-24.508-24.441-38.125-24.441H88c-4.608 0-8-3.393-8-8s3.392-8 8-8z"/></svg>