<svg xmlns="http://www.w3.org/2000/svg" width="512" height="512" viewBox="0 0 512 512"><path d="M270.021 15.99c-5.361.004-11.069.894-14.751 4.12-4.91 4.3-5.88 12.56-6.15 19.1-1.38 33.61-28.38 59-57 85.86-28 26.3-56.93 53.49-62.71 91-8.41 54.68 21.74 86.71 40.46 100.93a31.88 31.88 0 0 0 19.3 6.51 32.3 32.3 0 0 0 7.41-.87 31.75 31.75 0 0 0 21.27-16.95c14.91-30.39 45.771-47.12 75.61-63.3 10-5.42 19.45-10.54 28.31-16.16 42.46-26.92 62.23-59 62.23-101 0-64.66-56.07-104.4-108.82-109a59 59 0 0 0-5.159-.24zM181.18 48.2c-17.79 0-20.39 5.18-20.39 19.06 0 12.56-6.53 20.54-14.34 30.65C137.8 109.1 128 121.77 128 140.84c0 10.23 1.29 18.77 4.2 26.37a170 170 0 0 1 7.62-10.64c12.22-15.76 27-29.68 41.37-43.15 19.92-18.72 37.81-35.58 46.5-53.86-12.24-7.37-27.36-11.36-46.51-11.36zm194.082 157.044a8 8 0 0 0-6.393 2.606c-10.18 11.47-22.93 22-38.53 31.89-9.33 5.92-19 11.16-29.25 16.71-28.91 15.68-56.208 30.48-68.878 56.28a63 63 0 0 1-1.88 3.61 8 8 0 0 0 3.89 11.3c12.31 5.1 25.13 8.27 38.91 8.27a111.42 111.42 0 0 0 78.238-31.37A107.45 107.45 0 0 0 384 226.85a86.6 86.6 0 0 0-1.33-15 8 8 0 0 0-7.408-6.606zM48.35 335.93c-8.87 0-16.35 9.58-16.35 20.31S44.62 376 54.3 373.79l67.43-20.55c4.39-1.31 6.49-4.24 6.49-9.16 0-4.95-4.55-8.15-9.45-8.15zm344.53 0c-4.55 0-8.88 3.35-8.88 8.15s2.95 7.85 6.92 9.16l66.43 20.55C467 376 480 367.44 480 356.71c0-13.63-7.6-20.78-16.7-20.78zm-138.05 16a18.63 18.63 0 0 0-18.2 14.07l-18.2 88.36a35.6 35.6 0 0 0-.93 7.87c0 19.93 16.68 33.77 37.33 33.77s37.34-13.84 37.34-33.77a36.2 36.2 0 0 0-1.29-9.45l-17.5-84.41c-.81-9.23-8.86-16.44-18.55-16.44zm70.545.056c-3.31.14-6.43 1.449-9.055 4.014a13.52 13.52 0 0 0-2 17.19l52.5 69a38 38 0 0 0 4 4.69c9.1 10.16 29.28 10.72 40.37 0 10.94-10.96 10.81-30.39-.14-38.99a42.7 42.7 0 0 0-5.95-4.36L335.57 355c-3.385-2.12-6.885-3.152-10.195-3.014zm-141.08.041a15 15 0 0 0-7.744 3.024L107 403.41a32.3 32.3 0 0 0-6 4.339 26.33 26.33 0 0 0 0 38.56 29.41 29.41 0 0 0 40.36 0 31 31 0 0 0 4-4.68L197.9 373c3.5-5.57 2.92-12.48-2-17a15 15 0 0 0-11.605-3.973z"/></svg>