<svg xmlns="http://www.w3.org/2000/svg" width="512" height="512" viewBox="0 0 512 512"><path d="M272.67 16.008c-12.45.267-23.139 10.524-23.55 23.213l.003-.137c-.445 10.843-3.64 20.88-8.768 30.504-4.964-4.992-10.524-9.146-16.666-12.313-12.46-6.425-26.495-8.794-42.054-9.175-10.483-.532-19.855 7.59-20.791 18.054l-.043.49-.014.493c-.339 12.2-5.524 19.223-13.424 29.467S128 120.582 128 140.73c0 16.825 5.084 30.645 13.436 41.547-5.792 10.22-10.099 21.325-12.008 33.703v.002c-7.972 51.704 20.032 85.458 40.441 100.957 12.097 9.193 28.782 8.002 39.824-1.091a110.44 110.44 0 0 0 63.46 20.011C333.798 335.853 384 287.901 384 226.76c0-18.755-6.18-35.051-13.75-49.044 9.738-17.169 13.75-35.071 13.75-52.625 0-32.563-14.852-59.607-35.648-77.953-20.796-18.345-47.254-28.8-73.164-31.047h-.006q-1.267-.11-2.512-.082zm7.682 33.039c16.702 2.96 33.843 10.628 46.832 22.086C342.242 84.417 352 101.953 352 125.09c0 27.023-7.738 48.899-47.371 74.039-32.598 20.679-89.36 39.254-115.451 92.289-14.904-11.329-34.145-31.509-28.125-70.559v-.002c4.067-26.353 29.33-50.21 57.867-77.136 26.684-25.179 56.188-53.975 61.432-94.674zm-87.579 18.976-.056.983c-.004.05-.038.09-.043.14.017-.384.089-.734.1-1.123zm-1.71 12.801c7.453.888 13.334 2.507 17.96 4.893 4.584 2.363 8.432 5.476 12.114 10.27-7.262 8.116-15.41 16.187-24.178 24.46-11.746 11.083-24.374 22.37-35.572 34.795-1.064-3.386-1.387-7.726-1.387-14.512 0-8.15 4.45-13.882 12.703-24.584 6.54-8.48 14.853-19.98 18.36-35.322zm156.93 124.96C350.51 212.635 352 219.57 352 226.76c0 43.894-34.732 77.1-78.86 77.1h-.013a78.4 78.4 0 0 1-44.965-14.141c22.506-27.798 61.163-42.987 93.608-63.569 10.18-6.457 18.817-13.288 26.222-20.367zM189.14 291.481h.002l-.028.051zM48.35 335.84c-8.87 0-16.35 9.58-16.35 20.32S44.62 376 54.3 373.75l67.43-20.55c4.39-1.31 6.49-4.2 6.49-9.2s-4.55-8.16-9.45-8.16zm344.53.04c-4.55 0-8.88 3.35-8.88 8.16s2.95 7.85 6.92 9.16l66.43 20.55C467 376 480 367.4 480 356.66c0-13.66-7.6-20.78-16.7-20.78zm-138.05 16.01a18.63 18.63 0 0 0-18.2 14.11l-18.2 88.38a35.8 35.8 0 0 0-.93 7.88c0 19.93 16.68 33.78 37.33 33.78s37.34-13.85 37.34-33.78a36.2 36.2 0 0 0-1.29-9.45l-17.5-84.48c-.81-9.23-8.86-16.44-18.55-16.44zm70.545.012c-3.31.14-6.43 1.453-9.055 4.018a13.53 13.53 0 0 0-2 17.2l52.5 69a36.6 36.6 0 0 0 4 4.69c9.1 10.17 29.28 10.73 40.37 0 10.94-10.91 10.81-30.35-.14-38.95a42 42 0 0 0-5.95-4.35l-69.53-48.59c-3.385-2.125-6.885-3.158-10.195-3.018zm-141.082.07a15 15 0 0 0-7.742 3.028L107 403.38a32.3 32.3 0 0 0-6 4.35 26.33 26.33 0 0 0 0 38.56 29.39 29.39 0 0 0 40.36 0 31 31 0 0 0 4-4.68L197.9 373c3.5-5.58 2.92-12.49-2-17.06a15 15 0 0 0-11.607-3.967z"/></svg>