<svg xmlns="http://www.w3.org/2000/svg" viewBox="0 0 512 512"><path d="M256 32C132.478 32 32 132.478 32 256s100.478 224 224 224 224-100.478 224-224S379.522 32 256 32zm0 32c106.228 0 192 85.772 192 192s-85.772 192-192 192S64 362.228 64 256 149.772 64 256 64zm40 40a24 24 0 0 0-24 24 24 24 0 0 0 24 24 24 24 0 0 0 24-24 24 24 0 0 0-24-24zm64 40a24 24 0 0 0-24 24 24 24 0 0 0 24 24 24 24 0 0 0 24-24 24 24 0 0 0-24-24zm-72 32a24 24 0 0 0-24 24 24 24 0 0 0 24 24 24 24 0 0 0 24-24 24 24 0 0 0-24-24z"/></svg>