<svg xmlns="http://www.w3.org/2000/svg" width="512" height="512" viewBox="0 0 512 512"><path d="M176 48a48.05 48.05 0 0 0-48 48v16H80a64.07 64.07 0 0 0-64 64v48h480v-48a64.07 64.07 0 0 0-64-64h-48V96a48.05 48.05 0 0 0-48-48zm162.248 32.178a16 16 0 0 1 .45.066 16 16 0 0 0-.45-.066zm2.584.578a16 16 0 0 1 .348.125 16 16 0 0 0-.348-.125zm-170.27.326a16 16 0 0 0-1.269.527 16 16 0 0 1 1.27-.527zm172.481.57.31.147zm2.187 1.297a16 16 0 0 1 .372.276 16 16 0 0 0-.372-.276zm3.545 3.45a16 16 0 0 1 .276.37 16 16 0 0 0-.276-.37zm1.426 2.247.147.311zm-188.592.647a16 16 0 0 0-.527 1.27 16 16 0 0 1 .527-1.27zm189.51 1.527a16 16 0 0 1 .125.348 16 16 0 0 0-.125-.348zm.637 2.483a16 16 0 0 1 .066.449 16 16 0 0 0-.066-.45zM16 256v144a64 64 0 0 0 64 64h352a64 64 0 0 0 64-64V256H340a4 4 0 0 0-4 4v4a24 24 0 0 1-24 24H200a24 24 0 0 1-24-24v-4a4 4 0 0 0-4-4z"/></svg>