<svg xmlns="http://www.w3.org/2000/svg" width="512" height="512" viewBox="0 0 512 512"><path d="M88 32a24 24 0 0 0-24 24v360a32 32 0 0 0 16 27.71V480h72v-32h208v32h72v-36.29A32 32 0 0 0 448 416V56a24 24 0 0 0-24-24zm8 32h16a16 16 0 0 0-15.785 14.92zm304 0h16l-.215 14.92A16 16 0 0 0 400 64zM96.248 81.248A16 16 0 0 0 112 96H96.46zm319.504 0L415.539 96H400a16 16 0 0 0 15.752-14.752zM96 128h144v160H96zm176 0h144v160H272zM145.28 336.03a32.09 32.09 0 0 1 30.54 35.44 32 32 0 1 1-35.3-35.29 32 32 0 0 1 4.76-.15zm233.257 1.769a32 32 0 0 1-7.057 62.021 32.09 32.09 0 0 1-35.3-35.29 32 32 0 0 1 42.357-26.731z"/></svg>