<svg xmlns="http://www.w3.org/2000/svg" width="512" height="512" viewBox="0 0 512 512"><path d="M112 32a48 48 0 0 0-48 48v320a47.9 47.9 0 0 0 16 35.74V454a26 26 0 0 0 26 26h28a26 26 0 0 0 26-26v-6h192v6a26 26 0 0 0 26 26h28a26 26 0 0 0 26-26v-18.26A47.9 47.9 0 0 0 448 400V80a48 48 0 0 0-48-48zm0 32h287.54c8.599 0 16 6.6 16.44 15.19A16 16 0 0 1 400 96H112.46c-8.599 0-16-6.6-16.44-15.19A16 16 0 0 1 112 64zm0 64h124a4 4 0 0 1 4 4v152a4 4 0 0 1-4 4H112a16 16 0 0 1-16-16V144a16 16 0 0 1 16-16zm164 0h124a16 16 0 0 1 16 16v128a16 16 0 0 1-16 16H276a4 4 0 0 1-4-4V132a4 4 0 0 1 4-4zM157.838 339.15a32 32 0 0 1 17.982 32.32 32 32 0 0 1-28.35 28.35 32 32 0 1 1 10.368-60.67zm196.324 0a32 32 0 1 1 10.367 60.67 32 32 0 0 1-28.35-28.35 32 32 0 0 1 17.983-32.32z"/></svg>