<svg xmlns="http://www.w3.org/2000/svg" width="512" height="512" viewBox="0 0 512 512"><path d="M80 16c-26.32 0-48 21.68-48 48v416a16 16 0 0 0 16 16h252c.896 0 1.758-.153 2.627-.273A16 16 0 0 0 304 496h160a16 16 0 0 0 16-16V224c0-26.32-21.68-48-48-48H320V64c0-26.32-21.68-48-48-48zm0 32h192c9.026 0 16 6.974 16 16v400h-96v-48a16 16 0 0 0-16-16 16 16 0 0 0-16 16v48H64V64c0-9.026 6.974-16 16-16zm16.7 32.02a16 16 0 1 0 1.38 31.85 16 16 0 0 0 13.79-13.79A16 16 0 0 0 96.7 80.02zm80 0a16 16 0 1 0 1.38 31.85 16 16 0 0 0 13.79-13.79 16 16 0 0 0-15.17-18.06zm80 0a16 16 0 1 0 1.38 31.85 16 16 0 0 0 13.79-13.79 16 16 0 0 0-15.17-18.06zm-160 80a16 16 0 1 0 1.38 31.85 16 16 0 0 0 13.79-13.79 16 16 0 0 0-15.17-18.06zm80 0a16 16 0 1 0 1.38 31.85 16 16 0 0 0 13.79-13.79 16 16 0 0 0-15.17-18.06zm78.12.02a16.03 15.95 45 0 0-10.154 4.616 16.03 15.95 45 0 0 .057 22.614 16.03 15.95 45 0 0 22.613.056 16.03 15.95 45 0 0-.057-22.613 16.03 15.95 45 0 0-12.459-4.674zM320 208h112c9.026 0 16 6.974 16 16v240H320zm16 32a16 16 0 1 0 16 16 16 16 0 0 0-16-16zm64 0a16 16 0 1 0 16 16 16 16 0 0 0-16-16zm-303.3.02a16 16 0 1 0 1.38 31.85 16 16 0 0 0 13.79-13.79 16 16 0 0 0-15.17-18.06zm80 0a16 16 0 1 0 1.38 31.85 16 16 0 0 0 13.79-13.79 16 16 0 0 0-15.17-18.06zm80 0a16 16 0 1 0 1.38 31.85 16 16 0 0 0 13.79-13.79 16 16 0 0 0-15.17-18.06zM336 320a16 16 0 1 0 16 16 16 16 0 0 0-16-16zm64 0a16 16 0 1 0 16 16 16 16 0 0 0-16-16zm-303.3.02a16 16 0 1 0 1.38 31.85 16 16 0 0 0 13.79-13.79 16 16 0 0 0-15.17-18.06zm80 0a16 16 0 1 0 1.38 31.85 16 16 0 0 0 13.79-13.79 16 16 0 0 0-15.17-18.06zm80 0a16 16 0 1 0 1.38 31.85 16 16 0 0 0 13.79-13.79 16 16 0 0 0-15.17-18.06zM336 400a16 16 0 1 0 16 16 16 16 0 0 0-16-16zm64 0a16 16 0 1 0 16 16 16 16 0 0 0-16-16zm-303.3.02a16 16 0 1 0 1.38 31.85 16 16 0 0 0 13.79-13.79 16 16 0 0 0-15.17-18.06zm160 0a16 16 0 1 0 1.38 31.85 16 16 0 0 0 13.79-13.79 16 16 0 0 0-15.17-18.06z"/></svg>