<svg xmlns="http://www.w3.org/2000/svg" width="512" height="512" viewBox="0 0 512 512"><path d="M80 16a48 48 0 0 0-48 48v416a16 16 0 0 0 16 16h104a8 8 0 0 0 8-8v-71.55c0-8.61 6.62-16 15.23-16.43A16 16 0 0 1 192 416v72a8 8 0 0 0 8 8h264a16 16 0 0 0 16-16V224a48 48 0 0 0-48-48H320V64a48 48 0 0 0-48-48zm16.7 64.02a16 16 0 0 1 15.17 18.06 16 16 0 0 1-13.79 13.79 16 16 0 1 1-1.38-31.85zm80 0a16 16 0 0 1 15.17 18.06 16 16 0 0 1-13.79 13.79 16 16 0 1 1-1.38-31.85zm80 0a16 16 0 0 1 15.17 18.06 16 16 0 0 1-13.79 13.79 16 16 0 1 1-1.38-31.85zm-160 80a16 16 0 0 1 15.17 18.06 16 16 0 0 1-13.79 13.79 16 16 0 1 1-1.38-31.85zm80 0a16 16 0 0 1 15.17 18.06 16 16 0 0 1-13.79 13.79 16 16 0 1 1-1.38-31.85zm80 0a16 16 0 0 1 15.17 18.06 16 16 0 0 1-13.79 13.79 16 16 0 1 1-1.38-31.85zM320 208h112a16 16 0 0 1 16 16v236a4 4 0 0 1-4 4H320zm16 32a16 16 0 1 0 16 16 16 16 0 0 0-16-16zm64 0a16 16 0 1 0 16 16 16 16 0 0 0-16-16zm-303.3.02a16 16 0 0 1 15.17 18.06 16 16 0 0 1-13.79 13.79 16 16 0 1 1-1.38-31.85zm80 0a16 16 0 0 1 15.17 18.06 16 16 0 0 1-13.79 13.79 16 16 0 1 1-1.38-31.85zm80 0a16 16 0 0 1 15.17 18.06 16 16 0 0 1-13.79 13.79 16 16 0 1 1-1.38-31.85zM336 320a16 16 0 1 0 16 16 16 16 0 0 0-16-16zm64 0a16 16 0 1 0 16 16 16 16 0 0 0-16-16zm-303.3.02a16 16 0 0 1 15.17 18.06 16 16 0 0 1-13.79 13.79 16 16 0 1 1-1.38-31.85zm80 0a16 16 0 0 1 15.17 18.06 16 16 0 0 1-13.79 13.79 16 16 0 1 1-1.38-31.85zm80 0a16 16 0 0 1 15.17 18.06 16 16 0 0 1-13.79 13.79 16 16 0 1 1-1.38-31.85zM336 400a16 16 0 1 0 16 16 16 16 0 0 0-16-16zm64 0a16 16 0 1 0 16 16 16 16 0 0 0-16-16zm-303.3.02a16 16 0 0 1 15.17 18.06 16 16 0 0 1-13.79 13.79 16 16 0 1 1-1.38-31.85zm160 0a16 16 0 0 1 15.17 18.06 16 16 0 0 1-13.79 13.79 16 16 0 1 1-1.38-31.85z"/></svg>