<svg xmlns="http://www.w3.org/2000/svg" width="512" height="512" viewBox="0 0 512 512"><path d="M210 80c-18 0-23 .001-34.07 16.21L148.62 139c-2.22 2.42-5.34 5-8.62 5v-16a8 8 0 0 0-8-8H92a8 8 0 0 0-8 8v16H56a24 24 0 0 0-24 24v240a24 24 0 0 0 24 24h400a24 24 0 0 0 24-24V168a24 24 0 0 0-24-24h-83c-3 0-6.72-1.94-9.62-5l-27.31-42.79C326 80.002 320 80 302 80zm45.76 96c47.85 0 87 34.19 94.24 80h44.92L336 314.16 277.11 256H318a64.26 64.26 0 0 0-103-33.36L192 200l3.14-2.45A96.2 96.2 0 0 1 255.76 176zM176 229.37 234.63 288H194a64.07 64.07 0 0 0 102.63 33.49L320 343l-3.68 3.72A96.64 96.64 0 0 1 256 368c-47.82 0-87.76-34.23-95-80h-43.63z"/></svg>