<svg xmlns="http://www.w3.org/2000/svg" width="512" height="512" viewBox="0 0 512 512"><path d="M48 64a32 32 0 0 0-32 32v48h16a64.07 64.07 0 0 0 64-64V64zm80 0v16a96.11 96.11 0 0 1-96 96H16v64h16a96.11 96.11 0 0 1 96 96v16h256v-16a96.11 96.11 0 0 1 96-96h16v-64h-16a96.11 96.11 0 0 1-96-96V64zm288 0v16a64.07 64.07 0 0 0 64 64h16V96a32 32 0 0 0-32-32zm-178.729 49.844A96 96 0 0 1 352 208a96.11 96.11 0 0 1-96 96 96 96 0 0 1-18.729-190.156zM256 144a64 64 0 0 0-64 64 64 64 0 0 0 64 64 64 64 0 0 0 64-64 64 64 0 0 0-64-64zM16 272v48a32 32 0 0 0 32 32h48v-16a64.07 64.07 0 0 0-64-64zm464 0a64.07 64.07 0 0 0-64 64v16h48a32 32 0 0 0 32-32v-48zM64 368a16 16 0 0 0 0 32h384a16 16 0 0 0 0-32zm32 48a16 16 0 0 0 0 32h320a16 16 0 0 0 0-32z"/></svg>