<svg xmlns="http://www.w3.org/2000/svg" width="512" height="512" viewBox="0 0 512 512"><path d="M112 64a16 16 0 0 0-16 16c0 35.536-28.464 64-64 64a16 16 0 0 0-16 16 16 16 0 0 0 16 16c52.83 0 96-43.17 96-96a16 16 0 0 0-16-16zm288 0a16 16 0 0 0-16 16c0 52.83 43.17 96 96 96a16 16 0 0 0 16-16 16 16 0 0 0-16-16c-35.536 0-64-28.464-64-64a16 16 0 0 0-16-16zm-144 48c-52.83 0-96 43.17-96 96s43.17 96 96 96 96-43.17 96-96-43.17-96-96-96zm0 32c35.536 0 64 28.464 64 64s-28.464 64-64 64-64-28.464-64-64 28.464-64 64-64zM32 240a16 16 0 0 0-16 16 16 16 0 0 0 16 16c35.536 0 64 28.464 64 64a16 16 0 0 0 16 16 16 16 0 0 0 16-16c0-52.83-43.17-96-96-96zm448 0c-52.83 0-96 43.17-96 96a16 16 0 0 0 16 16 16 16 0 0 0 16-16c0-35.536 28.464-64 64-64a16 16 0 0 0 16-16 16 16 0 0 0-16-16zM64 368a16 16 0 0 0-16 16 16 16 0 0 0 16 16h384a16 16 0 0 0 16-16 16 16 0 0 0-16-16zm32 48a16 16 0 0 0-16 16 16 16 0 0 0 16 16h320a16 16 0 0 0 16-16 16 16 0 0 0-16-16z"/></svg>