<svg xmlns="http://www.w3.org/2000/svg" width="512" height="512" viewBox="0 0 512 512"><path d="M258.9 48C141.92 46.42 46.42 141.92 48 258.9c1.56 112.19 92.91 203.54 205.1 205.1 117 1.6 212.48-93.901 210.88-210.88C462.44 140.91 371.09 49.56 258.9 48zm49.905 128.299a16.003 16.003 0 0 1 8.955 26.23l-51.55 59a16.003 16.003 0 0 1-24.1-21.058l51.55-59a16 16 0 0 1 15.145-5.172zm62.32 0a16.003 16.003 0 0 1 8.955 26.23h-.03l-111.88 128A16 16 0 0 1 256.66 336h-.54a16 16 0 0 1-11.32-4.69l-47.94-48a16.002 16.002 0 1 1 22.64-22.62l29.8 29.83a8 8 0 0 0 11.68-.39l95-108.66a16 16 0 0 1 15.145-5.171zm-231.26 80.252a16 16 0 0 1 15.455 4.148l48 48a16 16 0 0 1-.07 22.621 16 16 0 0 1-22.62 0l-47.95-48a16.002 16.002 0 0 1 7.185-26.77z"/></svg>