<svg xmlns="http://www.w3.org/2000/svg" width="512" height="512" viewBox="0 0 512 512"><path d="M256 48C141.346 48 48 141.346 48 256s93.346 208 208 208 208-93.346 208-208S370.654 48 256 48zm0 32c97.346 0 176 78.654 176 176s-78.654 176-176 176S80 353.346 80 256 158.654 80 256 80zm49.47 96.002a16 16 0 0 0-11.808 5.47l-51.55 59a16 16 0 0 0 1.52 22.577 16 16 0 0 0 22.577-1.522l51.55-59a16 16 0 0 0-1.52-22.576 16 16 0 0 0-7.436-3.65 16 16 0 0 0-3.332-.299zm-162.298 80.02a16 16 0 0 0-3.305.521 16 16 0 0 0-7.176 4.137 16 16 0 0 0-.011 22.629l47.95 48a16 16 0 0 0 22.628.011 16 16 0 0 0 .012-22.629l-47.95-48a16 16 0 0 0-12.148-4.67z"/></svg>