<svg xmlns="http://www.w3.org/2000/svg" viewBox="0 0 512 512"><path d="M377.71 80.06a23.93 23.93 0 0 0-17.429 5.803L256 176.24 151.719 85.863c-10.016-8.68-25.175-7.598-33.856 2.418-8.68 10.017-7.599 25.175 2.418 33.856l120 104c9.02 7.818 22.418 7.818 31.438 0l120-104c10.017-8.681 11.099-23.839 2.418-33.856a23.92 23.92 0 0 0-16.426-8.22zM256 280a23.95 23.95 0 0 0-15.719 5.863l-120 104c-10.017 8.681-11.099 23.839-2.418 33.856 8.681 10.016 23.84 11.099 33.856 2.418L256 335.76l104.281 90.377c10.016 8.68 25.175 7.599 33.856-2.418 8.68-10.017 7.599-25.175-2.418-33.856l-120-104A23.95 23.95 0 0 0 256 280z"/></svg>