<svg xmlns="http://www.w3.org/2000/svg" width="512" height="512" viewBox="0 0 512 512"><path d="M256 48C141.346 48 48 141.346 48 256s93.346 208 208 208 208-93.346 208-208S370.654 48 256 48zm0 32c97.346 0 176 78.654 176 176s-78.654 176-176 176S80 353.346 80 256 158.654 80 256 80zm-64 96a16 16 0 0 0-4.14.545 16 16 0 0 0-7.174 4.14 16 16 0 0 0 0 22.63L233.37 256l-52.685 52.686a16 16 0 0 0 0 22.628 16 16 0 0 0 22.628 0L256 278.63l52.686 52.685a16 16 0 0 0 22.628 0 16 16 0 0 0 0-22.628L278.63 256l52.685-52.686a16 16 0 0 0 0-22.628 16 16 0 0 0-15.455-4.141 16 16 0 0 0-7.173 4.14L256 233.372l-52.686-52.685A16 16 0 0 0 192 176z"/></svg>