<svg xmlns="http://www.w3.org/2000/svg" width="512" height="512" viewBox="0 0 512 512"><path d="M256 32c-71.231 0-120.173 44.594-139.66 92.502-28.496 3.984-55.433 13.317-76.711 30C15.837 173.156 0 201.904 0 237.6c0 35.866 16.274 65.864 41.475 85.312C66.675 342.36 100.1 352 136 352h56a16 16 0 0 0 16-16 16 16 0 0 0-16-16h-56c-30.1 0-56.676-8.3-74.975-22.422S32 264.253 32 237.6c0-26.824 10.163-44.425 27.371-57.916 17.208-13.492 42.356-21.915 70.143-24.555a16 16 0 0 0 13.722-11.043C155.861 104.712 194.08 64 256 64c65.44 0 119.927 44.399 128.086 122.463a16 16 0 0 0 15.123 14.318c19.467.965 41.134 6.067 56.334 15.725S480 238.402 480 260.4c0 22.783-7.99 35.362-22.26 44.89C443.47 314.815 421.443 320 396 320h-76a16 16 0 0 0-16 16 16 16 0 0 0 16 16h76c29.557 0 57.53-5.422 79.51-20.098S512 292.008 512 260.4c0-32.392-17.243-56.89-39.293-70.902-18.025-11.454-38.845-17.038-58.725-19.398C399.408 85.58 332.668 32 256 32zm0 176a16 16 0 0 0-16 16v224.03a16 16 0 0 0 16 16 16 16 0 0 0 16-16V224a16 16 0 0 0-16-16z"/></svg>