<svg xmlns="http://www.w3.org/2000/svg" width="512" height="512" viewBox="0 0 512 512"><path d="M339.68 32.018a16 16 0 0 0-5.14 1.271c-38.63 16.82-66.18 51.511-75.27 92.541a4 4 0 0 0 3.19 4.79 162.54 162.54 0 0 1 76.31 35.59 172.6 172.6 0 0 1 39.64 47.84 16.35 16.35 0 0 0 9.54 7.64c23.89 7.17 45.1 18.9 62.25 34.54q4.44 4.07 8.48 8.42a4 4 0 0 0 5.16.57 129.1 129.1 0 0 0 46.69-55.43 16.34 16.34 0 0 0-1.35-15.8 16 16 0 0 0-19.57-5.58c-10.7 4.65-24.48 7.17-39.92 7.28-55.3.4-101.38-45-101.38-100.31 0-15.75 2.48-29.84 7.18-40.76a16.3 16.3 0 0 0-1.85-16.33 16 16 0 0 0-13.96-6.272zM232 160a139.82 139.82 0 0 0-97.53 39.05c-22.08 21.26-37.18 49.21-44.33 81.75a16 16 0 0 1-11.81 12.21C62.2 296.89 47.1 303.8 35 313.06c-22.91 17.49-35 42.3-35 71.74 0 30.55 11.23 55.64 32.47 72.56C51.08 472.17 76.5 480 106 480h234c33.2 0 64.11-11.46 87-32.28 23.87-21.65 37-51.67 37-84.52 0-33.38-12.23-62.2-35.37-83.31-16.2-14.78-37.62-25.34-61.62-30.56a16.06 16.06 0 0 1-11.12-9 142.2 142.2 0 0 0-37.65-49.54C294.15 170.65 264.33 160 232 160z"/></svg>