<svg xmlns="http://www.w3.org/2000/svg" width="512" height="512" viewBox="0 0 512 512"><path d="M282 256a26 26 0 0 1-26 26 26 26 0 0 1-26-26 26 26 0 0 1 26-26 26 26 0 0 1 26 26z"/><path d="M256 225c-17.062 0-31 13.938-31 31s13.938 31 31 31 31-13.938 31-31-13.938-31-31-31zm0 10c11.657 0 21 9.343 21 21s-9.343 21-21 21-21-9.343-21-21 9.343-21 21-21zm116 21a26 26 0 0 1-26 26 26 26 0 0 1-26-26 26 26 0 0 1 26-26 26 26 0 0 1 26 26z"/><path d="M346 225c-17.062 0-31 13.938-31 31s13.938 31 31 31 31-13.938 31-31-13.938-31-31-31zm0 10c11.657 0 21 9.343 21 21s-9.343 21-21 21-21-9.343-21-21 9.343-21 21-21zm-154 21a26 26 0 0 1-26 26 26 26 0 0 1-26-26 26 26 0 0 1 26-26 26 26 0 0 1 26 26z"/><path d="M166 225c-17.062 0-31 13.938-31 31s13.938 31 31 31 31-13.938 31-31-13.938-31-31-31zm0 10c11.657 0 21 9.343 21 21s-9.343 21-21 21-21-9.343-21-21 9.343-21 21-21z"/></svg>