<svg xmlns="http://www.w3.org/2000/svg" width="512" height="512" viewBox="0 0 512 512"><path d="M285.41 48c-59.58 0-121.384 21.56-169.396 64.111l-.01.008-.008.008c-89.979 79.544-89.973 212.924.018 292.46C160.887 444.27 220.55 463.576 279.394 464h1.817c58.83 0 117.081-18.807 159.394-56.412 11.257-9.936 15.72-24.09 15.305-36.953-.415-12.868-5.143-25.339-14.88-34.43l-.03-.027-.03-.028c-11.378-10.516-24.666-11.655-32.798-13.027l-.027-.004-.028-.006c-10.277-1.698-9.044-1.217-14.533-6.133l-.025-.021-.024-.022c-4.281-3.802-5.35-7.067-5.35-9.937s1.069-6.135 5.35-9.937l30.27-26.874c52.9-46.744 52.9-126.435 0-173.18l-.012-.009-.012-.01C386.217 63.93 336.442 48 285.411 48zm0 32c44.36 0 86.377 13.866 117.211 40.996 39.893 35.256 39.891 89.961-.006 125.215l-.013.012-30.315 26.914h-.002c-10.018 8.897-16.1 21.183-16.1 33.863 0 12.669 6.074 24.942 16.077 33.838 7.907 7.073 17.93 11.748 30.64 13.848l-.052-.008c8.438 1.423 14.526 3.276 16.37 4.955 2.145 2.027 4.546 7.024 4.708 12.033.162 5.032-1.367 9.17-4.5 11.934l-.026.021-.023.022C384.095 415.016 333.164 432 281.21 432h-1.586c-51.955-.375-104.29-17.668-142.416-51.385l-.002-.002-.002-.002c-77.003-68.057-77.003-176.466 0-244.523l.01-.008.008-.006C179.007 99.036 233.598 80 285.41 80zM224 112a32 32 0 0 0-32 32 32 32 0 0 0 32 32 32 32 0 0 0 32-32 32 32 0 0 0-32-32zm104 0a32 32 0 0 0-32 32 32 32 0 0 0 32 32 32 32 0 0 0 32-32 32 32 0 0 0-32-32zm-184 64a32 32 0 0 0-32 32 32 32 0 0 0 32 32 32 32 0 0 0 32-32 32 32 0 0 0-32-32zm8 103a32 32 0 0 0-32 32 32 32 0 0 0 32 32 32 32 0 0 0 32-32 32 32 0 0 0-32-32zm104 40a48 48 0 0 0-48 48 48 48 0 0 0 48 48 48 48 0 0 0 48-48 48 48 0 0 0-48-48z"/></svg>