<svg xmlns="http://www.w3.org/2000/svg" width="512" height="512" viewBox="0 0 512 512"><path d="M130.09 32a52.1 52.1 0 0 0-36.8 15.22l-4.51 4.51a53.2 53.2 0 0 0-15.89 37.33A51.66 51.66 0 0 0 88.14 126l41.51 41.5L45 252a44.52 44.52 0 0 0-13 32 42.8 42.8 0 0 0 13.5 30.84l131.24 126a44 44 0 0 0 61.08-.18l124.11-120.28a15.6 15.6 0 0 1 8.23-4.29 69 69 0 0 1 11.93-.86h.3a22.53 22.53 0 0 0 15.84-38.59L166.89 47.22A52.1 52.1 0 0 0 130.09 32zm.025 31.959a20.07 20.07 0 0 1 14.196 5.88L186 111.212l-33.71 33.639-41.53-41.52a20 20 0 0 1 0-28.34l5.16-5.15a20.07 20.07 0 0 1 14.195-5.881zm283.44 256.242a19.94 19.94 0 0 0-12.795 6.969c-1.19 1.4-2.81 3.21-4.68 5.31-15.41 17.24-44.08 49.35-44.08 82.64 0 35.77 28.71 64.88 64 64.88s64-29.11 64-64.85c0-33.54-28.83-65.75-44.33-83.05-1.73-1.93-3.23-3.62-4.36-4.93a19.94 19.94 0 0 0-17.755-6.969z"/></svg>