<svg xmlns="http://www.w3.org/2000/svg" width="512" height="512" viewBox="0 0 512 512"><path d="M79.998 57.373 57.373 80.002l11.315 11.312 117.8 117.772 11.315 11.31 22.625-22.628-11.317-11.313L91.313 68.685zm352 0-11.312 11.315-117.772 117.8-11.31 11.315 22.628 22.625 11.313-11.317 117.77-117.798 11.312-11.315zm-234.23 234.2-11.313 11.316-117.77 117.798-11.312 11.315 22.629 22.625 11.312-11.315 117.772-117.8 11.31-11.315zm116.43.03-22.626 22.63 11.317 11.312 117.798 117.77 11.315 11.312 22.625-22.629-11.315-11.312-117.8-117.772z"/></svg>