<svg xmlns="http://www.w3.org/2000/svg" width="512" height="512" viewBox="0 0 512 512"><path d="M448.45 48.004a16.06 16.06 0 0 0-11.73 4.685L424.35 65a8 8 0 0 0 0 11.31l11.34 11.32a8 8 0 0 0 11.34 0l12.06-12c6.1-6.09 6.67-16.01.85-22.38a16.06 16.06 0 0 0-11.49-5.246zm-45.08 39.674A9 9 0 0 0 399.34 90L218.82 270.2a9 9 0 0 0-2.31 3.93L208.16 299a3.91 3.91 0 0 0 4.86 4.86l24.85-8.35a9 9 0 0 0 3.93-2.31L422 112.66a9 9 0 0 0 0-12.66l-9.95-10a9 9 0 0 0-8.68-2.322zM104 112a56 56 0 0 0-56 56v240a56 56 0 0 0 56 56h240a56 56 0 0 0 56-56V199.31a8 8 0 0 0-13.66-5.65L264.45 315.79A41.1 41.1 0 0 1 247.58 326l-25.9 8.67a35.92 35.92 0 0 1-44.33-44.33l8.67-25.9a41.1 41.1 0 0 1 10.19-16.87l122.13-121.91a8 8 0 0 0-5.65-13.66z"/></svg>