<svg xmlns="http://www.w3.org/2000/svg" width="512" height="512" viewBox="0 0 512 512"><path d="M255.99 32.041a63.9 63.9 0 0 0-32.17 8.672L71.842 129.172l-.006.004C57.117 137.752 48.02 153.556 48 170.59v170.789c.01 17.045 9.108 32.864 23.836 41.445l.006.004 152 88.461.008.004c9.794 5.692 20.742 8.55 31.705 8.627a16 16 0 0 0 .445.07 16 16 0 0 0 .432-.068c10.974-.072 21.934-2.93 31.738-8.629l.008-.004 152-88.46.017-.01c14.716-8.59 23.801-24.407 23.805-41.446V170.59c-.02-17.035-9.117-32.838-23.836-41.414l-.006-.004-151.998-88.46a63.9 63.9 0 0 0-32.17-8.671zm0 31.979c5.546 0 11.093 1.45 16.07 4.347l.002.002 151.993 88.455A15.94 15.94 0 0 1 432 170.63v170.738a15.94 15.94 0 0 1-7.936 13.815L272.082 443.63c-.027.015-.055.025-.082.04V263.99a16 16 0 0 0-16-16 16 16 0 0 0-16 16v179.671c-.023-.013-.047-.022-.07-.035l-151.985-88.45A15.94 15.94 0 0 1 80 341.369V170.63a15.94 15.94 0 0 1 7.94-13.8l.003-.003.002-.002L239.918 68.37l.002-.002a31.9 31.9 0 0 1 16.07-4.347z"/></svg>