<svg xmlns="http://www.w3.org/2000/svg" width="512" height="512" viewBox="0 0 512 512"><path d="M97.305 79.934A72.16 72.16 0 1 0 148.24 208.34l52.2 31.72L192 277l-43.64 26.76a71.74 71.74 0 1 0 24.79 38L480 160v-32h-48l-198.94 70.46-59.13-31.59a72.16 72.16 0 0 0-76.625-86.936zm-6.186 34.023A40 40 0 0 1 143.48 152a40 40 0 0 1-40 40 40 40 0 0 1-12.36-78.043zM255.48 224a16 16 0 0 1 16 16 16 16 0 0 1-16 16 16 16 0 0 1 0-32zm88.31 35.87-83.74 48.18L432 368h47.99l.01-32zM91.12 321.956A40 40 0 0 1 143.48 360a40 40 0 0 1-40 40 40 40 0 0 1-12.36-78.043z"/></svg>