<svg xmlns="http://www.w3.org/2000/svg" width="512" height="512" viewBox="0 0 512 512"><path d="m304 448-8-64h-80l-8 64z"/><path d="M216 368a16 16 0 0 0-15.877 14.016l-8 64A16.002 16.002 0 0 0 208 464h96a16.002 16.002 0 0 0 15.877-17.984l-8-64A16 16 0 0 0 296 368Zm14.125 32h51.75l4 32h-59.75z"/><path d="M144 432a16 16 0 0 0-16 16 16 16 0 0 0 16 16h224a16 16 0 0 0 16-16 16 16 0 0 0-16-16zM32 304v48a32.09 32.09 0 0 0 32 32h384a32.09 32.09 0 0 0 32-32v-48Zm224 64a16 16 0 1 1 16-16 16 16 0 0 1-16 16Z"/></svg>