<svg xmlns="http://www.w3.org/2000/svg" viewBox="0 0 512 512"><path d="M249.27 32.326a64.1 64.1 0 0 0-25.44 8.293L71.12 129.37a4 4 0 0 0 0 6.9L254 243.85a4 4 0 0 0 4.06 0L440.9 136.27a4 4 0 0 0-.02-6.9L288.16 40.62a64.14 64.14 0 0 0-38.89-8.293zM256 120c13.25 0 24 7.16 24 16s-10.75 16-24 16-24-7.16-24-16 10.75-16 24-16zm203.588 42.996a4 4 0 0 0-1.588.514L274 271.56a4 4 0 0 0-2 3.45V476a4 4 0 0 0 6 3.46l162.15-97.23A48 48 0 0 0 464 340.86V167a4 4 0 0 0-4.412-4.004zm-408.281.008A4 4 0 0 0 48 166.939v173.92a48 48 0 0 0 23.84 41.391L234 479.48a4 4 0 0 0 6-3.46V274.27a4 4 0 0 0-2-3.46L54 163.48a4 4 0 0 0-2.693-.476zM416 232c8.84 0 16 10.75 16 24s-7.16 24-16 24-16-10.75-16-24 7.16-24 16-24zm-224 56c8.84 0 16 10.75 16 24s-7.16 24-16 24-16-10.75-16-24 7.16-24 16-24zm128 0c8.84 0 16 10.75 16 24s-7.16 24-16 24-16-10.75-16-24 7.16-24 16-24zM96 320c8.84 0 16 10.75 16 24s-7.16 24-16 24-16-10.75-16-24 7.16-24 16-24zm320 0c8.84 0 16 10.75 16 24s-7.16 24-16 24-16-10.75-16-24 7.16-24 16-24zm-96 56c8.84 0 16 10.75 16 24s-7.16 24-16 24-16-10.75-16-24 7.16-24 16-24z"/></svg>