<svg xmlns="http://www.w3.org/2000/svg" width="512" height="512" viewBox="0 0 512 512"><path d="M256 32C132.3 32 32 132.3 32 256s100.3 224 224 224 224-100.3 224-224S379.7 32 256 32zm12.99 47.959a184 184 0 0 1 80.069 49.059 4 4 0 0 0-.229.152l-12 12a4 4 0 0 0 0 5.66l12 12a4 4 0 0 0 2.83 1.17h47.969a184 184 0 0 1 18.865 31h-.965a5.5 5.5 0 0 1-2.84-.79l-22.378-13.42a5.5 5.5 0 0 0-2.84-.79H353.67a5.5 5.5 0 0 0-3.06.93l-44.15 29.43A5.52 5.52 0 0 0 304 211v41.74a5.51 5.51 0 0 0 2.92 4.87l57.89 30.9a5.55 5.55 0 0 1 2.92 4.8l.27 23.49a5.53 5.53 0 0 0 2.85 4.75l23.26 12.87a5.54 5.54 0 0 1 2.85 4.83v28.172a184 184 0 0 1-164.18 68.021l6.88-31.892a4 4 0 0 1 1.6-2.42l45-31.9a4 4 0 0 0 1.69-3.27V306a4 4 0 0 0-1.55-3.2l-61.33-46a4 4 0 0 0-2.4-.8h-29.1a3.78 3.78 0 0 1-2.68-1.11l-13.72-13.72a4 4 0 0 0-2.83-1.17h-53.19a3.79 3.79 0 0 1-2.68-6.47l8.42-8.42a3.78 3.78 0 0 1 2.68-1.11h32.37a8 8 0 0 0 7.7-5.83l6.89-24.5a4 4 0 0 1 2-2.47L206 177.06a3.79 3.79 0 0 0 2.05-3.37v-12.5a3.8 3.8 0 0 1 .68-2.17l14.6-21.02a3.75 3.75 0 0 1 1.78-1.38l20.43-7.67a3.79 3.79 0 0 0 2.46-3.55V114a3.8 3.8 0 0 0-1.69-3.16l-20.48-13.62A3.83 3.83 0 0 0 222 97l-27.88 13.94a3.78 3.78 0 0 1-4-.41l-13.22-10.45a3.8 3.8 0 0 1 .1-6l10.74-7.91a3.8 3.8 0 0 0 .813-.877 183 183 0 0 1 14.4-5.293H224l24 12 21-12zM93.738 259.9l1.752 3.22a3.74 3.74 0 0 0 1.38 1.44l37.55 22.54a3.78 3.78 0 0 1 1.81 2.73l7.52 54.54a3.82 3.82 0 0 0 1.61 2.61l29.3 20.14a4 4 0 0 1 1.65 2.48l6.327 30.043A184 184 0 0 1 93.738 259.9z"/></svg>