<svg xmlns="http://www.w3.org/2000/svg" width="512" height="512" viewBox="0 0 512 512"><path d="M256 32c-15 0-60.22 21.56-105 79.42a371 371 0 0 0-51.14 89.52C86.68 234.37 80 266.66 80 296.94c0 31.59 4.58 59.88 13.61 84.11 8.08 21.68 19.72 40.1 34.72 54.75 14.38 14.07 32.1 24.95 52.67 32.34C202.92 476 228.15 480 256 480s53.08-4 75-11.86c20.57-7.39 38.29-18.27 52.67-32.34 14.96-14.65 26.64-33.07 34.72-54.75 9.03-24.23 13.61-52.52 13.64-84.09 0-30.299-6.68-62.59-19.86-96-12.3-31.199-32.84-64.83-51.17-89.54C318.67 54.4 271 32 256 32z"/></svg>