<svg xmlns="http://www.w3.org/2000/svg" width="512" height="512" viewBox="0 0 512 512"><path d="M421.768 74.2a16 16 0 0 0-11.313 4.689l-117.77 117.799a16 16 0 0 0 .002 22.626 16 16 0 0 0 22.627-.001l117.772-117.801a16 16 0 0 0-.004-22.627 16 16 0 0 0-7.174-4.14 16 16 0 0 0-4.14-.546zm-331.57.03a16 16 0 0 0-4.141.545 16 16 0 0 0-7.172 4.143 16 16 0 0 0 .004 22.627l117.799 117.77a16 16 0 0 0 22.626-.002 16 16 0 0 0-.001-22.627L101.512 78.914a16 16 0 0 0-11.315-4.684zM207.997 288a16 16 0 0 0-4.14.545 16 16 0 0 0-7.172 4.142L78.914 410.489a16 16 0 0 0 .004 22.627 16 16 0 0 0 22.627-.004l117.77-117.798a16 16 0 0 0-.002-22.627A16 16 0 0 0 207.998 288zm96 0a16 16 0 0 0-4.14.545 16 16 0 0 0-7.172 4.142 16 16 0 0 0 .002 22.627l117.8 117.772a16 16 0 0 0 22.627-.004 16 16 0 0 0-.004-22.627l-117.798-117.77A16 16 0 0 0 303.998 288z"/></svg>