<svg xmlns="http://www.w3.org/2000/svg" width="512" height="512" viewBox="0 0 512 512"><path d="M84.166 64.766A16 16 0 0 0 68.689 91.31l352 352A15.92 15.92 0 0 0 432 448a16 16 0 0 0 11.31-27.31l-352-352a16 16 0 0 0-7.144-3.924zM255.68 96a226.5 226.5 0 0 0-71.82 11.79 4 4 0 0 0-1.56 6.63l47.24 47.24a4 4 0 0 0 3.82 1.05 96 96 0 0 1 116 116 4 4 0 0 0 1.05 3.81l67.95 68a4 4 0 0 0 5.4.24 343.8 343.8 0 0 0 67.24-77.4 32.2 32.2 0 0 0-.1-34.76c-26.46-40.92-60.79-75.68-99.27-100.53C349 110.55 302 96 255.68 96zM92.15 161.52a4 4 0 0 0-2.75.94c-24.39 20.81-47 46.13-67.67 75.72a31.92 31.92 0 0 0-.64 35.54c26.41 41.33 60.39 76.14 98.28 100.65C162.06 402 207.92 416 255.68 416a238.2 238.2 0 0 0 72.64-11.55 4 4 0 0 0 1.61-6.64l-47.47-47.46a4 4 0 0 0-3.81-1.05A96 96 0 0 1 256 352a96 96 0 0 1-93.3-118.63 4 4 0 0 0-1.05-3.81l-66.84-66.87a4 4 0 0 0-2.66-1.17zm173.57 31.24a2 2 0 0 0-1.72 3.39L315.87 248a2 2 0 0 0 3.4-1.69 64.13 64.13 0 0 0-53.55-53.55zm-71.343 70.765a2 2 0 0 0-1.557 2.225 64.11 64.11 0 0 0 53.49 53.49 2 2 0 0 0 1.69-3.39l-51.79-51.79a2 2 0 0 0-1.833-.535z"/></svg>