<svg xmlns="http://www.w3.org/2000/svg" width="512" height="512" viewBox="0 0 512 512"><path d="M224 96a16 16 0 0 0-16 16 16 16 0 0 0 16 16h2.754l5.582 48H164c-30.29 0-58.768 7.807-80.436 24.627-20.986 16.291-34.642 41.65-35.482 72.18C29.902 276.536 16 292.805 16 312c0 10.732 4.364 20.534 11.373 27.758C20.159 349.81 16 362.674 16 376c0 28.747 19.18 55.473 47.242 55.955 2.338 14.767 8.008 28.42 17.174 39.5C92.812 486.438 112.003 496 134 496h261.31c24.97 0 46-19.514 47.866-44.414l-.045.486L477.398 128H480a16 16 0 0 0 16-16 16 16 0 0 0-16-16zm34.969 32h186.25l-33.936 320.951-.017.244c-.637 8.499-7.433 14.805-15.955 14.805h-70.344c6.04-9.523 9.953-20.434 11.79-32.045C364.82 431.473 384 404.747 384 376c0-13.326-4.159-26.189-11.373-36.242C379.637 332.534 384 322.732 384 312c0-19.205-13.916-35.479-32.11-39.197-.9-30.428-14.506-55.743-35.43-72.05-14.76-11.502-32.7-18.815-52.222-22.312a16 16 0 0 0 .094-4.32zM164 208h72c24.688 0 46.197 6.624 60.79 17.996C310.522 236.7 318.96 251.06 319.905 272H80.088c.896-21.05 9.326-35.405 23.098-46.096C117.768 214.584 139.29 208 164 208zM56 304h288c4.608 0 8 3.392 8 8s-3.392 8-8 8H179.303a24.02 24.02 0 0 0-16.95 7.02l-.003.003-18.35 18.35-18.35-18.35-.004-.003a24.02 24.02 0 0 0-16.949-7.02H56c-4.608 0-8-3.392-8-8s3.392-8 8-8zm8 48h41.371l24.479 24.477c7.677 7.686 20.623 7.686 28.3 0L182.63 352H336c6.858 0 16 8.83 16 24s-9.142 24-16 24H64c-6.858 0-16-8.83-16-24s9.142-24 16-24zm31.904 80h208.192c-1.882 7.588-5.062 14.093-9.168 19.057C288.16 459.237 279.352 464 266 464H134c-13.352 0-22.16-4.764-28.928-12.943-4.106-4.964-7.286-11.47-9.168-19.057z"/></svg>