<svg xmlns="http://www.w3.org/2000/svg" width="512" height="512" viewBox="0 0 512 512"><path d="M256.35 16A281.8 281.8 0 0 0 116.5 52.68 12.4 12.4 0 0 0 111.87 69c3.24 5.8 10.13 8 15.72 4.84C167.12 51.28 210.58 40 256.35 40c46 0 84.37 10.08 128.75 33.84a10.45 10.45 0 0 0 5.32 1.44 11.3 11.3 0 0 0 10.17-6.72 12 12 0 0 0-4.85-16.08C348.58 27.28 305.58 16 256.35 16zm-.436 58.574c-41.406.065-82.784 9.846-119.074 29.266-34.69 18.48-63.8 44.88-86.69 78.48a12.26 12.26 0 0 0 2.78 16.8 11.73 11.73 0 0 0 6.7 2.16 10 10 0 0 0 9.02-5.08c20.8-30.2 47.15-54.2 78.59-71 66.11-35.52 150.95-35.519 217.29-.24 31.21 16.56 57.56 40.32 78.36 70.56a11.26 11.26 0 0 0 16.18 2.88 12.29 12.29 0 0 0 2.78-16.8c-22.89-33.36-52.01-59.52-86.69-78-36.405-19.44-77.84-29.09-119.246-29.026zm-.734 57.106c-74.66 0-142.85 43.4-173.6 110.4-10.4 22.76-15.72 48.96-15.72 77.76a276.4 276.4 0 0 0 16.88 95 11.34 11.34 0 0 0 14.79 7c6.01-2.16 9.02-9.12 6.7-15.36-13.87-38.4-15.48-67.92-15.48-86.64 0-24.96 4.64-47.76 13.64-67.2 27.04-58.8 87.14-96.72 152.79-96.72 92.46 0 167.59 73.44 167.59 163.92 0 25.68-21.5 46.56-48.08 46.56s-48.08-20.88-48.08-46.56c0-38.88-31.91-70.56-71.2-70.56s-71.19 31.68-71.19 70.56c0 47.52 17.79 91.92 50.16 125.28 25.2 25.68 49.24 39.84 86 50.4a13 13 0 0 0 3 .48 11.39 11.39 0 0 0 10.87-9.16c1.62-6.24-1.85-12.96-8.09-14.64-32.59-9.4-53.59-21.84-75.59-44.4-27.97-28.8-43.23-67.24-43.23-108.24 0-25.68 21.5-46.56 48.08-46.56s48.08 20.92 48.07 46.6c0 38.88 31.9 70.56 71.2 70.56s71.2-31.68 71.2-70.56c0-103.68-85.53-187.92-190.71-187.92zm.94 58.8c-72.13 0-130.84 58.08-130.84 129.36 0 38.64 8.27 74.64 24.27 104.16 15.45 29 26.35 42.48 46.46 63.4a10.66 10.66 0 0 0 8.09 3.6 12.44 12.44 0 0 0 8.56-3.68 12.67 12.67 0 0 0 0-17c-17.77-18.72-27.97-30.48-42.77-58.08-14.1-25.92-21.49-57.84-21.49-92.4 0-58.08 48.37-105.36 107.77-105.36s107.72 47.28 107.72 105.36a11.56 11.56 0 1 0 23.11 0c0-71.28-58.75-129.36-130.88-129.36zm-5.036 117.946a11.57 11.57 0 0 0-7.895 11.455 129.1 129.1 0 0 0 55 105.36c19.88 14.16 44.15 21.359 71.66 21.359v-.04a152.3 152.3 0 0 0 27.952-2.88 11.92 11.92 0 0 0 9.469-13.92c-1.15-6.72-7.16-11.04-13.4-9.84a147.4 147.4 0 0 1-24 2.4c-23.12 0-42.31-5.48-58.72-17a104.28 104.28 0 0 1-44.84-85.44 11.57 11.57 0 0 0-15.226-11.454z"/></svg>