<svg xmlns="http://www.w3.org/2000/svg" viewBox="0 0 512 512"><path d="M226.666 80.225a16.002 16.002 0 0 0-18.05 20.171l11.661 40.819c-42.708 14.759-76.95 43.672-100.312 63.215-4.768-3.987-9.633-7.857-14.66-11.516-40.759-29.76-88.1-32.87-88.1-32.87a16.002 16.002 0 0 0-16.83 19.403s8.338 43.213 35.316 76.383C8.713 289.007.375 332.223.375 332.223a16.002 16.002 0 0 0 16.83 19.402s47.342-3.107 88.1-32.867l.017-.014c4.948-3.601 9.739-7.408 14.434-11.33 23.386 19.588 57.747 48.572 100.523 63.367l-11.664 40.823a16.002 16.002 0 0 0 18.053 20.171c42.342-7.162 79.492-33.9 97.885-48.37 65.238-3.963 111.735-27.009 141.752-52.958 15.402-13.315 26.52-27.297 33.972-39.99S512 267.315 512 256c0-11.318-4.298-21.44-11.729-34.055s-18.515-26.61-33.878-39.98c-29.94-26.058-76.36-49.38-141.461-53.35-18.219-14.294-55.632-41.185-98.266-48.39zm20.717 39.375c26.01 10.704 50.719 28.342 61.722 37.158a16 16 0 0 0 9.293 3.496c13.495.6 25.925 2.133 37.465 4.33-27.162 57.874-27.163 124.954-.002 182.828-11.65 2.207-24.208 3.747-37.851 4.354a16 16 0 0 0-9.31 3.51c-11.173 8.974-35.612 26.428-61.3 37.068l7.985-27.948a16 16 0 0 0-11.631-19.949C198.72 333.58 156.6 295.87 129.57 273.977a16 16 0 0 0-20.941.695 243 243 0 0 1-22.154 18.21l-.022.018c-15.57 11.374-32.92 17.975-46.68 21.81 6.104-15.573 15.565-34.968 28.57-47.245a16 16 0 0 0-.001-23.272c-13.004-12.27-22.463-31.662-28.567-47.234 13.76 3.836 31.109 10.438 46.678 21.81l.022.018a245 245 0 0 1 22.351 18.379 16 16 0 0 0 20.928.71c27.113-21.897 69.012-59.49 113.992-70.321a16 16 0 0 0 11.639-19.951zm140.004 53.343c24.698 8.666 43.698 20.715 57.998 33.16 12.748 11.096 21.717 22.583 27.314 32.084S480 256.318 480 256c0 .185-1.73 8.736-7.318 18.254s-14.547 20.958-27.305 31.986c-14.279 12.344-33.273 24.269-57.969 32.862a183.12 183.12 0 0 1-.021-166.159zM416 223.99a16 16 0 0 0-16 16 16 16 0 0 0 16 16 16 16 0 0 0 16-16 16 16 0 0 0-16-16z"/></svg>