<svg xmlns="http://www.w3.org/2000/svg" viewBox="0 0 512 512"><path d="m208 80 13.37 61.86c-41.67 14.14-78.43 42.86-102.76 62.62a284 284 0 0 0-14.78-11.55c-39.71-29-82.6-31.8-84.4-31.9L0 160l2.67 19.31c.29 2 6.79 44.73 31.65 76.52C9.46 287.63 3 330.33 2.67 332.36L0 352l19.43-1.36c1.8-.1 44.69-2.89 84.4-31.9a278 278 0 0 0 14.56-11.37c24.37 19.83 61.14 48.6 102.86 62.74L208 432l23.17-4.22c37.49-6.34 70.08-26.4 92-43.32a284.3 284.3 0 0 0 49.32-7.23l-7.91-13.18A214.9 214.9 0 0 1 335.45 256a214.83 214.83 0 0 1 29.08-108l7.62-13.26a280.7 280.7 0 0 0-48.64-7.15c-21.94-16.9-54.64-36.95-92.34-43.33zm195.4 64.47L392.23 164a183.22 183.22 0 0 0-.09 183.87l11.75 19.57a209.3 209.3 0 0 0 61.42-36.49C497.05 303.47 512 269 512 256c0-12.31-8-26.74-12.41-34.25-5.85-9.88-16.54-24.9-34.19-40.28a209.8 209.8 0 0 0-62-37zm7.657 80.313A16 16 0 0 1 432 240a16 16 0 0 1-16 16 16 16 0 0 1-4.943-31.217z"/></svg>