<svg xmlns="http://www.w3.org/2000/svg" width="512" height="512" viewBox="0 0 512 512"><path d="M159.08 64C98.46 64 48.63 114.54 48 176.65A211.2 211.2 0 0 0 56.94 240h93.17l61.62-123.24 48 160L304 188.22 345.89 272h96.77A213.1 213.1 0 0 0 464 176.65C463.37 114.54 413.54 64 352.92 64c-48.11 0-80.1 28.001-96.92 48.21C239.18 92.002 207.19 64 159.08 64zm283.58 208a261 261 0 0 1-18.25 32H480v-32zm-18.25 32h-98.3L304 259.78l-51.73 103.46-48-160L169.89 272H69.34c10 20.92 23.5 41.41 40.63 61.68 40.12 47.46 94.25 79.75 137 108.32l9 6 9-6c42.78-28.57 96.91-60.86 137-108.32A323 323 0 0 0 424.41 304zM69.34 272a225 225 0 0 1-12.4-32H32v32z"/></svg>