<svg xmlns="http://www.w3.org/2000/svg" width="512" height="512" viewBox="0 0 512 512"><path d="M176 32a16 16 0 0 0-16 16 16 16 0 0 0 16 16h16v77.48a48.1 48.1 0 0 1-7.414 25.645L59.682 364.947C28.594 414.178 64.868 480 123.08 480h265.84c58.212 0 94.486-65.822 63.398-115.053L327.406 167.13A48.1 48.1 0 0 1 320 141.482V64h16a16 16 0 0 0 16-16 16 16 0 0 0-16-16zm48 32h64v77.48a80.1 80.1 0 0 0 12.334 42.711l.004.006L365.885 288H146.11l65.54-103.8.003-.005A80.1 80.1 0 0 0 224 141.482zm-98.094 256H386.09l39.172 62.033C443.794 411.383 423.608 448 388.92 448H123.08c-34.688 0-54.874-36.618-36.342-65.967z"/></svg>