<svg xmlns="http://www.w3.org/2000/svg" width="512" height="512" viewBox="0 0 512 512"><path d="M317.156 16a18.46 18.46 0 0 0-14.842 7.611l.518-.675-219.27 271A16.002 16.002 0 0 0 96 320h108.826l-28.078 154.367-.016.084c-1.93 10.942 7.007 21.567 18.116 21.547a18.4 18.4 0 0 0 14.693-7.389l-.393.504L428.44 218.064A16.002 16.002 0 0 0 416 192H307.19l28.208-154.373a16 16 0 0 0 .141-.918C336.866 25.956 328 15.963 317.164 16zm-22.818 68.309L272.26 205.123A16.002 16.002 0 0 0 288 224h94.473L217.789 427.559l21.953-120.696A16.002 16.002 0 0 0 224 288h-94.473z"/></svg>