<svg xmlns="http://www.w3.org/2000/svg" width="512" height="512" viewBox="0 0 512 512"><path d="M104 64c-30.738 0-56 25.262-56 56v58.83c-19.768 7.115-33.615 26.905-31.85 48.994l.026.287 16.22 165.45L32.32 392c0 30.701 25.202 55.946 55.903 56h335.554c30.701-.054 55.903-25.299 55.903-56l-.076 1.56 16.22-165.449.026-.287c1.765-22.085-12.076-41.88-31.85-48.996V152c0-30.738-25.262-56-56-56H252.111c-4.74 0-9.37-1.402-13.314-4.031l-.002-.002-27.838-18.559-.002-.002A56 56 0 0 0 179.891 64zm0 32h75.89c4.74 0 9.37 1.402 13.313 4.031l.002.002 27.84 18.56A56 56 0 0 0 252.109 128H408c13.444 0 24 10.556 24 24v24H80v-56c0-13.444 10.556-24 24-24zM64 208h384.05c9.552.03 16.65 7.734 15.901 17.252l-16.195 165.187a16 16 0 0 0-.076 1.561c0 13.427-10.53 23.976-23.957 24H88.277c-13.427-.024-23.957-10.573-23.957-24a16 16 0 0 0-.076-1.56L48.05 225.251c-.75-9.54 6.378-17.253 15.951-17.252z"/></svg>