<svg xmlns="http://www.w3.org/2000/svg" width="512" height="512" viewBox="0 0 512 512"><path d="M318.314 32.254A77.95 77.95 0 0 0 256 55.789 78 78 0 0 0 129.81 144H70a22 22 0 0 0-22 22v68a22 22 0 0 0 22 22h164V144h44v112h164a22 22 0 0 0 22-22v-68a22 22 0 0 0-22-22h-59.82a77.95 77.95 0 0 0-63.866-111.746zM200 76a34 34 0 0 1 7.965 1.262 34 34 0 0 0-10.973-.785A34 34 0 0 1 200 76zm-6.799 1.076a34 34 0 0 0-9.53 3.555 34 34 0 0 1 9.53-3.555zm16.738.498a34 34 0 0 1 11.29 6.164 34 34 0 0 0-11.29-6.164zm112.567.09.137.137-.34-.106zm-141.46 4.305a34 34 0 0 0-9.077 9.078 34 34 0 0 1 9.078-9.078zm111.151.496-.256.176zm-68.529 3.713a34 34 0 0 1 5.894 7.873 34 34 0 0 0-5.894-7.873zm-53.037 7.494a34 34 0 0 0-3.555 9.53 34 34 0 0 1 3.555-9.53zm60.62 3.695A34 34 0 0 1 234 110a34 34 0 0 0-2.748-12.633zm113.026 2.069.05.123zm-177.8 7.556a34 34 0 0 0 .785 10.973A34 34 0 0 1 166 110a34 34 0 0 1 .477-3.008zm1.097 12.947a34 34 0 0 0 6.164 11.29 34 34 0 0 1-6.164-11.29zm171.96 9.872-.194.257zm-163.356 3.857a34 34 0 0 0 7.873 5.894 34 34 0 0 1-7.873-5.894zm11.19 7.584A34 34 0 0 0 200 144a34 34 0 0 1-12.633-2.748zM80 288v170a22 22 0 0 0 22 22h132V288zm198 0v192h132a22 22 0 0 0 22-22V288z"/></svg>