<svg xmlns="http://www.w3.org/2000/svg" width="512" height="512" viewBox="0 0 512 512"><path d="M290.504 16.205a16 16 0 0 0-13.815 4.484l-64 64a16 16 0 0 0 0 22.622l64 64A16 16 0 0 0 304 160v-32h20a28 28 0 0 1 28 28v204.61a64 64 0 1 0 64 0V156a92.1 92.1 0 0 0-92-92h-20V32a16 16 0 0 0-13.496-15.795zM139.137 32.941A64 64 0 0 0 96 151.391v209.218a64 64 0 1 0 64 0V151.391A64 64 0 0 0 192 96a64 64 0 0 0-52.863-63.059zM128 64a32 32 0 1 1-32 32 32 32 0 0 1 32-32zm-9.889 321.566A32 32 0 0 1 160 416a32 32 0 0 1-32 32 32 32 0 0 1-9.889-62.434zm256 0A32 32 0 0 1 416 416a32 32 0 0 1-32 32 32 32 0 0 1-9.889-62.434z"/></svg>