<svg xmlns="http://www.w3.org/2000/svg" width="512" height="512" viewBox="0 0 512 512"><path d="M289 9.93 201.14 96 289 182.07V128h35a28 28 0 0 1 28 28v204.61a64 64 0 1 0 64 0V156a92.1 92.1 0 0 0-92-92h-35zM139.512 33.018A64 64 0 0 0 95 150.81v209.798a64 64 0 1 0 64 0V152a64.06 64.06 0 0 0 33-56 64 64 0 0 0-52.488-62.982zM128 64a32 32 0 1 1-32 32 32 32 0 0 1 32-32zm-10.889 321.566A32 32 0 0 1 159 416a32 32 0 0 1-32 32 32 32 0 0 1-9.889-62.434zm257 0A32 32 0 0 1 416 416a32 32 0 0 1-32 32 32 32 0 0 1-9.889-62.434z"/></svg>