<svg xmlns="http://www.w3.org/2000/svg" width="512" height="512" viewBox="0 0 512 512"><path d="M306.504 16.205a16 16 0 0 0-13.815 4.484l-64 64a16 16 0 0 0 0 22.622l64 64A16 16 0 0 0 320 160v-32h20a28 28 0 0 1 28 28v204.61a64 64 0 1 0 64 0V156a92.1 92.1 0 0 0-92-92h-20V32a16 16 0 0 0-13.496-15.795zM81.016 40.01A64 64 0 0 0 79 150.84V356a92.1 92.1 0 0 0 92 92h20v32a16 16 0 0 0 27.31 11.31l64-64a16 16 0 0 0 0-22.62l-64-64A16 16 0 0 0 191 352v32h-20a28 28 0 0 1-28-28V152A64 64 0 0 0 81.016 40.01zM112 64a32 32 0 1 1-32 32 32 32 0 0 1 32-32zm278.111 321.566A32 32 0 0 1 432 416a32 32 0 0 1-32 32 32 32 0 0 1-9.889-62.434z"/></svg>