<svg xmlns="http://www.w3.org/2000/svg" width="512" height="512" viewBox="0 0 512 512"><path d="M144 168c-33.333 0-55.037 4.146-69.06 8.82-7.012 2.338-12.096 4.814-15.672 6.96-.118.07-.218.148-.334.22H48a16 16 0 0 0-16 16 16 16 0 0 0 16 16h.152c.744 40.47 4.767 69.966 18.127 92.232C81.346 333.344 109.333 344 144 344s62.654-10.656 77.72-35.768c10.928-18.212 15.603-41.259 17.356-71.18A16 16 0 0 0 240 232c0-9.026 6.974-16 16-16s16 6.974 16 16a16 16 0 0 0 .924 5.053c1.753 29.92 6.428 52.967 17.355 71.18C305.346 333.342 333.333 344 368 344s62.654-10.656 77.72-35.768c13.36-22.266 17.384-51.762 18.128-92.232H464a16 16 0 0 0 16-16 16 16 0 0 0-16-16h-10.934c-.116-.072-.216-.15-.334-.22-3.576-2.146-8.66-4.622-15.671-6.96C423.037 172.146 401.333 168 368 168s-55.037 4.146-69.06 8.82c-7.012 2.338-12.096 4.814-15.672 6.96s-6.582 4.906-6.582 4.906l-.036.044A47.4 47.4 0 0 0 256 184a47.4 47.4 0 0 0-20.645 4.729l-.04-.043s-3.007-2.761-6.583-4.907-8.66-4.621-15.671-6.959C199.037 172.146 177.333 168 144 168zm0 32c30.667 0 48.963 3.854 58.94 7.18 1.998.666 3.44 1.273 4.81 1.861-.623 41.538-5.166 68.886-13.47 82.727C185.345 306.656 173.332 312 144 312s-41.346-5.344-50.28-20.232c-8.304-13.841-12.847-41.189-13.47-82.727 1.37-.588 2.812-1.195 4.81-1.861 9.977-3.326 28.273-7.18 58.94-7.18zm224 0c30.667 0 48.963 3.854 58.94 7.18 1.998.666 3.44 1.273 4.81 1.861-.623 41.538-5.166 68.886-13.47 82.727C409.345 306.656 397.332 312 368 312s-41.346-5.344-50.28-20.232c-8.304-13.841-12.847-41.189-13.47-82.727 1.37-.588 2.812-1.195 4.81-1.861 9.977-3.326 28.273-7.18 58.94-7.18z"/></svg>