<svg xmlns="http://www.w3.org/2000/svg" width="512" height="512" viewBox="0 0 512 512"><path d="M270.7 0c-16.25 0-29.55 14.4-29.55 32v200l-14.78-.25V80c0-17.6-13.29-32-29.55-32-16.25 0-29.55 14.4-29.55 32v232H156l-35.08-85.3c-6.12-16.31-23.44-24.24-38.5-17.62-15.06 6.63-22.37 25.38-16.26 41.69l62.46 175.14a138 138 0 0 0 16 31.78A121.4 121.4 0 0 0 178.34 491c21.24 14 59.86 21 100.66 21 131.87 0 169-92.2 169-168V128c0-17.6-13.3-32-29.57-32-16.25 0-29.55 14.4-29.55 32v120l-14.78-.25V64c0-17.6-13.29-32-29.55-32C328.3 32 315 46.4 315 64v168l-14.75-.25V32c0-17.6-13.25-32-29.55-32z"/></svg>