<svg xmlns="http://www.w3.org/2000/svg" width="512" height="512" viewBox="0 0 512 512"><path d="M276.86 0C262.94 0 252 10.09 252 24v205a11 11 0 0 1-11.21 11A11.24 11.24 0 0 1 230 228.64V72c0-13.91-12.08-24-26-24s-26.77 10.09-26.77 24v234.44a7 7 0 0 1-4.41 6.52 7 7 0 0 1-8.93-3.43l-41.38-84.41c-8.4-15.96-27.79-22.5-43.31-13.68C63.69 220.25 60.67 237 67.33 255L136 424c20.29 48.4 48 88 136 88h16c88 0 160-58.59 160-176V120c.12-13.78-11.08-24-25-24s-25 10.09-25 24v125a11 11 0 0 1-11.21 11A11.24 11.24 0 0 1 376 244.64V57c0-13.91-12.08-25-26-25s-26 10.09-26 24v173a11 11 0 0 1-11.21 11A11.24 11.24 0 0 1 302 228.64V24c0-13.91-11.22-24-25.14-24z"/></svg>