<svg xmlns="http://www.w3.org/2000/svg" width="512" height="512" viewBox="0 0 512 512"><path d="M272 0c-26.32 0-48 21.68-48 48v2.838C218.98 49.035 213.607 48 208 48c-26.32 0-48 21.68-48 48v143.713l-5.713-13.766a16 16 0 0 0-.619-1.318c-7.992-15.185-23.013-23.538-38.723-24.502-9.425-.579-19.098 1.503-27.65 6.363-11.15 6.335-19.04 16.915-21.877 28.412s-1.257 23.367 2.9 34.635v.002l52.655 143.957a16 16 0 0 0 .271.69c10.838 25.851 26.534 50.855 52.102 69.01C198.914 501.348 233.6 512 280 512c47.551 0 90.503-16.262 120.771-49.137S448 381.607 448 320V144c0-26.32-21.68-48-48-48-5.607 0-10.979 1.035-16 2.838V80c0-26.32-21.68-48-48-48-6.256 0-12.234 1.258-17.736 3.479C312.688 15.15 293.989 0 272 0zm0 32c9.026 0 16 6.974 16 16v192a16 16 0 0 0 16 16 16 16 0 0 0 4.943-.783A16 16 0 0 0 320 240V80c0-9.026 6.974-16 16-16s16 6.974 16 16v176a16 16 0 0 0 16 16 16 16 0 0 0 4.943-.783A16 16 0 0 0 384 256V144c0-9.026 6.974-16 16-16s16 6.974 16 16v176c0 55.792-15.04 95.412-38.771 121.188S320.449 480 280 480c-41.6 0-68.77-9.15-88.129-22.896-19.306-13.709-31.589-32.645-41.031-55.112L98.355 258.504l-.015-.043c-2.502-6.781-2.74-12.306-1.856-15.893.886-3.587 2.259-5.78 6.618-8.256l.003-.001c8.129-4.62 17.948-2.437 22.061 4.949l36.057 86.873a16 16 0 0 0 .699 1.043 16 16 0 0 0 2.21 3.304 16 16 0 0 0 1.397 1.397 16 16 0 0 0 3.315 2.213 16 16 0 0 0 1.572.8A16 16 0 0 0 176 336l.006-.002.05-.008a16 16 0 0 0 5.54-1.105 16 16 0 0 0 .537-.108 16 16 0 0 0 2.994-1.691 16 16 0 0 0 .502-.367 16 16 0 0 0 3.094-3.094 16 16 0 0 0 .365-.504 16 16 0 0 0 1.986-3.896 16 16 0 0 0 .192-.594 16 16 0 0 0 .685-4.318L192 320V96c0-9.026 6.974-16 16-16s16 6.974 16 16v145a16 16 0 0 0 16 16 16 16 0 0 0 16-16V48c0-9.026 6.974-16 16-16z"/></svg>