<svg xmlns="http://www.w3.org/2000/svg" width="512" height="512" viewBox="0 0 512 512"><path d="M47.906 48.531A16.002 16.002 0 0 0 40.65 75.28l365.84 368a16 16 0 0 0 11.35 4.72 16 16 0 0 0 11.34-27.28l-365.83-368a16 16 0 0 0-15.444-4.189zM171.08 80a107.7 107.7 0 0 0-31 4.54l269.13 270.7c3-3.44 5.7-6.64 8.14-9.6 40-48.75 59.15-98.79 58.61-153C475.37 130.53 425.54 80 364.92 80c-44.09 0-74.61 24.82-92.39 45.5a6 6 0 0 1-9.06 0C245.69 104.82 215.16 80 171.08 80zM69 149.15a115.1 115.1 0 0 0-9 43.49c-.54 54.21 18.63 104.25 58.61 153 18.77 22.87 52.8 59.45 131.39 112.8a31.88 31.88 0 0 0 36 0c20.35-13.82 37.7-26.5 52.58-38.12z"/></svg>