<svg xmlns="http://www.w3.org/2000/svg" width="512" height="512" viewBox="0 0 512 512"><path d="M256 64c-77.61 0-147.684 46.821-177.383 118.523S65.364 336.88 120.242 391.758s137.533 71.324 209.235 41.625S448 333.61 448 256c0-105.849-86.151-192-192-192zm0 32c88.555 0 160 71.445 160 160 0 64.76-38.94 123.04-98.77 147.82-59.828 24.781-128.569 11.103-174.36-34.69-45.793-45.791-59.471-114.532-34.69-174.36C132.96 134.94 191.24 96 256 96zm-.21 48.002c-13.86.208-30.663 3.265-45.003 14.816-22.689 18.26-24.771 42.801-24.771 42.801a14 14 0 0 0 13.312 14.654 14 14 0 0 0 14.656-13.312s-.403-10.454 14.362-22.334l.004-.002.004-.002c7.877-6.346 17.708-8.471 27.845-8.625 9.27-.116 17.81 1.903 20.313 3.094h.002c4.192 1.995 9.97 5.346 14.242 9.947s7.244 9.822 7.244 18.5c0 9.949-2.611 15.372-7.576 21.197s-12.963 11.52-22.592 17.977C245.543 257.66 237 278.06 237 296a14 14 0 0 0 14 14 14 14 0 0 0 14-14c0-11.2 1.976-19 18.428-30.033 9.741-6.533 19.927-13.239 28.304-23.067C320.11 233.073 326 219.59 326 203.54c0-16.033-6.762-28.975-14.725-37.552s-16.92-13.415-22.728-16.18c-9.177-4.368-20.145-5.967-32.727-5.806h-.031zM250 328a20 20 0 0 0-20 20 20 20 0 0 0 20 20 20 20 0 0 0 20-20 20 20 0 0 0-20-20z"/></svg>