<svg xmlns="http://www.w3.org/2000/svg" width="512" height="512" viewBox="0 0 512 512"><path d="M256 15.996a104 104 0 0 0-103.72 96.373A80.12 80.12 0 0 0 80 192c0 39.36 26.37 71.23 62.38 78.46a2 2 0 0 1 1.62 2v38.83c0 21.839 17.2 40.22 39 40.74a40 40 0 0 0 41-40v-47.84a2 2 0 0 1 2.72-1.86A83.5 83.5 0 0 0 256 268a63.18 63.18 0 0 0 42.24-16.59 2 2 0 0 1 2.74 0A74.63 74.63 0 0 0 352 272a80 80 0 0 0 7.72-159.63A104 104 0 0 0 256 15.995zm42.88 273.565A93.75 93.75 0 0 1 256 300v12a72.1 72.1 0 0 1-58.21 70.64L256 496l92.06-192.08a105.3 105.3 0 0 1-49.18-14.36z"/></svg>