<svg xmlns="http://www.w3.org/2000/svg" width="512" height="512" viewBox="0 0 512 512"><path d="M268 32a12 12 0 0 0-12 12v424a12 12 0 0 0 12 12h72a12 12 0 0 0 12-12V44a12 12 0 0 0-12-12zM28 80a12 12 0 0 0-12 12v376a12 12 0 0 0 12 12h56a12 12 0 0 0 12-12V92a12 12 0 0 0-12-12zm423.8.27-72.13 7.51A12 12 0 0 0 369 100.7l30 367.83a12 12 0 0 0 13.45 10.92l72.16-9a12 12 0 0 0 10.47-12.9L465 91.21a12 12 0 0 0-13.2-10.94zM124 144a12 12 0 0 0-12 12v52h128v-52a12 12 0 0 0-12-12zm-12 272v52a12 12 0 0 0 12 12h104a12 12 0 0 0 12-12v-52z"/></svg>