<svg xmlns="http://www.w3.org/2000/svg" width="512" height="512" viewBox="0 0 512 512"><path d="M144 136c-65.99 0-120 54.01-120 120s54.01 120 120 120h56.66a24 24 0 0 0 24-24 24 24 0 0 0-24-24H144c-40.049 0-72-31.951-72-72s31.951-72 72-72h55.41a24 24 0 0 0 24-24 24 24 0 0 0-24-24zm168.59 0a24 24 0 0 0-24 24 24 24 0 0 0 24 24H368c40.049 0 72 31.951 72 72s-31.951 72-72 72h-56.66a24 24 0 0 0-24 24 24 24 0 0 0 24 24H368c65.99 0 120-54.01 120-120s-54.01-120-120-120zm-143.52 96a24 24 0 0 0-24 24 24 24 0 0 0 24 24h175.86a24 24 0 0 0 24-24 24 24 0 0 0-24-24z"/></svg>