<svg xmlns="http://www.w3.org/2000/svg" width="512" height="512" viewBox="0 0 512 512"><path d="M80 112c-17.484 0-32 14.516-32 32s14.516 32 32 32 32-14.516 32-32-14.516-32-32-32zm80 16a16 16 0 0 0-16 16 16 16 0 0 0 16 16h288a16 16 0 0 0 16-16 16 16 0 0 0-16-16zm-80 96c-17.484 0-32 14.516-32 32s14.516 32 32 32 32-14.516 32-32-14.516-32-32-32zm80 16a16 16 0 0 0-16 16 16 16 0 0 0 16 16h288a16 16 0 0 0 16-16 16 16 0 0 0-16-16zm-80 96c-17.484 0-32 14.516-32 32s14.516 32 32 32 32-14.516 32-32-14.516-32-32-32zm80 16a16 16 0 0 0-16 16 16 16 0 0 0 16 16h288a16 16 0 0 0 16-16 16 16 0 0 0-16-16z"/></svg>