<svg xmlns="http://www.w3.org/2000/svg" width="512" height="512" viewBox="0 0 512 512"><path d="M232 80c-30.738 0-56 25.262-56 56v40a16 16 0 0 0 16 16 16 16 0 0 0 16-16v-40c0-13.444 10.556-24 24-24h160c13.444 0 24 10.556 24 24v240c0 13.444-10.556 24-24 24H240c-6.72 0-15.95-3.245-22.416-8.31S208 380.79 208 376v-40a16 16 0 0 0-16-16 16 16 0 0 0-16 16v40c0 17.3 9.836 31.467 21.848 40.879S224.63 432 240 432h152c30.738 0 56-25.262 56-56V136c0-30.738-25.262-56-56-56zM80 240a16 16 0 0 0-16 16 16 16 0 0 0 16 16h272a16 16 0 0 0 16-16 16 16 0 0 0-16-16z"/></svg>