<svg xmlns="http://www.w3.org/2000/svg" viewBox="0 0 512 512"><path d="M235.36 72a4 4 0 0 0-4 4v40.44a4.17 4.17 0 0 0 4 4v.09h45.12a4 4 0 0 0 4-4V76a4.16 4.16 0 0 0-4-4zM109.5 130.09a4 4 0 0 0-4 4v40.44a4.34 4.34 0 0 0 4 4v.04h45.12a4.16 4.16 0 0 0 4-4v-40.48a4 4 0 0 0-4-4zm63.4 0a4 4 0 0 0-4 4v40.44a4 4 0 0 0 4 4v.04H218a4.16 4.16 0 0 0 4-4v-40.48a4 4 0 0 0-4-4zm62.46 0a4 4 0 0 0-4 4v40.44a4.16 4.16 0 0 0 4 4v.04h45.12a4.16 4.16 0 0 0 4-4v-40.48a4.16 4.16 0 0 0-4-4zm164.31 12.75-4.75 6.9a101.7 101.7 0 0 0-13.06 30.45c-5 20.7-1.9 40.2 8.55 56.85-12.59 7.14-33 8.8-37.28 9H15.94A15.93 15.93 0 0 0 0 262.07a241.3 241.3 0 0 0 14.75 86.83C26.39 379.35 43.72 402 66 415.74 91.22 431.2 132.3 440 178.6 440a344 344 0 0 0 62.45-5.71 257.4 257.4 0 0 0 81.69-29.73 223.6 223.6 0 0 0 55.57-45.67c26.83-30.21 42.74-64 54.38-94h4.75c29.21 0 47.26-11.66 57.23-21.65a63.3 63.3 0 0 0 15.2-22.36l2.14-6.18-5.01-3.54c-1.42-1.19-14.25-10.94-41.79-10.94a132.6 132.6 0 0 0-21.61 1.9c-5.22-36.4-35.38-54-36.57-55zM47.29 187.89a4 4 0 0 0-4 4v40.44a4.16 4.16 0 0 0 4 4v.04H92.4a4 4 0 0 0 4-4v-40.48a4 4 0 0 0-4-4zm62.21 0a4 4 0 0 0-4 4v40.44a4.16 4.16 0 0 0 4 4v.04h45.12a4 4 0 0 0 4-4v-40.48a4 4 0 0 0-4-4zm63.4 0a4 4 0 0 0-4 4v40.44a3.87 3.87 0 0 0 4 4v.04H218a4 4 0 0 0 4-4v-40.48a4 4 0 0 0-4-4zm62.46 0a4 4 0 0 0-4 4v40.44a4 4 0 0 0 4 4v.04h45.12a4 4 0 0 0 4-4v-40.48a4 4 0 0 0-4-4zm62.92 0a4 4 0 0 0-4 4v40.44a4.16 4.16 0 0 0 4 4v.04h45.12a4 4 0 0 0 4-4v-40.48a4 4 0 0 0-4-4z"/></svg>