<svg xmlns="http://www.w3.org/2000/svg" width="512" height="512" viewBox="0 0 512 512"><path d="M162.67 32C90.8 32 32 90.8 32 162.67v186.66C32 421.2 90.8 480 162.67 480h186.66C421.2 480 480 421.2 480 349.33V162.67C480 90.8 421.2 32 349.33 32zm0 37.33h186.66a93.62 93.62 0 0 1 93.34 93.34v186.66a93.62 93.62 0 0 1-93.34 93.34H162.67a93.62 93.62 0 0 1-93.34-93.34V162.67a93.62 93.62 0 0 1 93.34-93.34zm210.676 37.625a28 28 0 0 0 3.984 55.715 27.94 27.94 0 0 0 28-28 28 28 0 0 0-31.984-27.715zM256 144a112 112 0 1 0 112 112 112 112 0 0 0-112-112zm0 37.33A74.67 74.67 0 1 1 181.33 256 74.75 74.75 0 0 1 256 181.33z"/></svg>