<svg xmlns="http://www.w3.org/2000/svg" viewBox="0 0 512 512"><path d="M415.975 112.498a8.52 8.52 0 0 0-7.424 4.291l-43 74.522c-32.83-15-69.782-23.35-109.522-23.35s-76.69 8.36-109.52 23.35l-43-74.522a8.603 8.603 0 0 0-14.878 8.64L131 199C57.8 238.64 8.19 312.77 0 399.55h512c-8.19-86.78-57.8-160.91-131.09-200.55l42.47-73.57a8.63 8.63 0 0 0-3.12-11.76 8.5 8.5 0 0 0-4.285-1.172zm-45.457 172.445A21.46 21.46 0 0 1 395 306.19a21.47 21.47 0 0 1-21.51 21.461h-.04a21.46 21.46 0 0 1-2.932-42.707zm-223.856 1.42a21.46 21.46 0 0 1 13.248 19.826 21.47 21.47 0 0 1-21.46 21.461 21.46 21.46 0 1 1 8.212-41.287z"/></svg>