<svg xmlns="http://www.w3.org/2000/svg" width="512" height="512" viewBox="0 0 512 512"><path d="M240 32v38c-75.92 6.08-120.41 46.81-120.41 108.92 0 52.69 32.64 87.9 93.64 102.08l26.77 7v98c-32.14-3.55-54.23-23.66-56-50h-72c.25 62.06 48.53 103 128 107.58V480h32v-36.68c84.26-5.44 128-46.98 128-111.32 0-55-32.39-88.54-97.18-102.72L272 222v-92c32.17 2.61 47.24 21.94 48 46h72c-1-58.26-42.61-99.7-120-106V32zm0 98v86c-30.88-6.59-47.27-21.17-47.27-43.47 0-24.06 19.68-41.01 47.27-42.53zm32 164c38.15 5.1 56.38 21.65 56.38 46.23 0 26.85-18.23 44.23-56.38 45.77z"/></svg>