<svg xmlns="http://www.w3.org/2000/svg" viewBox="0 0 512 512"><path d="M314.01 144a111.9 111.9 0 0 0-40.28 7.58c-4.75 1.85-6 3.76-6.06 7.46V360.4a7.66 7.66 0 0 0 6.8 7.5l174.56.11c34.78 0 63-28.41 63-63.45s-28.2-63.46-63-63.46H449a62.4 62.4 0 0 0-24.33 4.9c-5-57.18-52.61-102-110.66-102zm-59.22 14.87a7 7 0 0 0-6.94 7L245 308.75l2.85 51.87a6.94 6.94 0 1 0 13.87-.06v.06l3.09-51.87-3.09-142.93a7 7 0 0 0-6.93-6.95zm-22.956 12.523a6.5 6.5 0 0 0-5.055 6.337l-2.449 131c0 .08 2.45 52.67 2.45 52.67a6.59 6.59 0 0 0 6.5 6.45 6.6 6.6 0 0 0 6.5-6.52l2.74-52.6-2.74-131a6.5 6.5 0 0 0-7.946-6.337zm-62.85 14.65a5.19 5.19 0 0 0-5.183 5.418l-3.23 117.28 3.23 53.83a5.18 5.18 0 0 0 10.36 0l.009-.032 3.63-53.799-3.63-117.28a5.19 5.19 0 0 0-5.186-5.417zm19.985 2.639a5.63 5.63 0 0 0-4.338 5.718l-3 114.29 3 53.32a5.66 5.66 0 0 0 5.629 5.6v.04a5.67 5.67 0 0 0 5.62-5.64l3.34-53.33-3.34-114.28a5.63 5.63 0 0 0-6.911-5.718zM147.88 190.5a4.75 4.75 0 0 0-4.75 4.75l-3.49 113.45 3.49 54.17a4.81 4.81 0 0 0 4.75 4.73 4.83 4.83 0 0 0 4.75-4.74l3.93-54.15-3.93-113.46a4.75 4.75 0 0 0-4.75-4.75zm63.808 2.03a6.1 6.1 0 0 0-6.07 6.09l-2.709 110.11 2.71 53a6.07 6.07 0 0 0 12.13 0l3-53-3-110.13a6.1 6.1 0 0 0-6.06-6.07zm-84.744 7.359A4.32 4.32 0 0 0 122.63 204l-3.74 104.7 3.75 54.73a4.38 4.38 0 0 0 4.359 4.28 4.41 4.41 0 0 0 4.31-4.3l4.23-54.71-4.28-104.7a4.32 4.32 0 0 0-4.315-4.111zm-20.775 19.7a4 4 0 0 0-3.87 3.872l-4 85.219 4 55.08a3.88 3.88 0 0 0 7.75 0l4.53-55.08-4.53-85.22a4 4 0 0 0-3.88-3.87zm-41.05 29.622a3.09 3.09 0 0 0-3 3l-4.52 56.45 4.51 54.628a3 3 0 0 0 6 0l5.13-54.629-5.13-56.48a3.1 3.1 0 0 0-2.99-2.97zm-20.27 1.828a2.57 2.57 0 0 0-2.57 2.57l-4.78 55 4.78 53a2.62 2.62 0 0 0 2.56 2.532v-.01a2.67 2.67 0 0 0 2.57-2.522l5.43-53-5.42-55a2.57 2.57 0 0 0-2.57-2.57zm39.945 1.857a3.44 3.44 0 0 0-2.676 3.354l-4.26 52.38 4.26 55.08a3.5 3.5 0 0 0 3.442 3.44 3.53 3.53 0 0 0 3.44-3.41l4.83-55.09-4.83-52.4a3.44 3.44 0 0 0-4.205-3.354zM24.72 260.19a2.13 2.13 0 0 0-2.131 2.131l-5 46.32 5 45.3a2.13 2.13 0 0 0 4.26 0l5.73-45.31-5.73-46.32v.01a2.13 2.13 0 0 0-2.13-2.13zM5.8 278a2.11 2.11 0 0 0-2 2L0 308.64l3.74 28.16a2.12 2.12 0 0 0 2.05 2 2.14 2.14 0 0 0 2-2l4.44-28.17L7.83 280a2.14 2.14 0 0 0-2-2z"/></svg>