<svg xmlns="http://www.w3.org/2000/svg" width="512" height="512" viewBox="0 0 512 512"><path d="M191.98 463.79v-48m0-16a16 16 0 0 0-16 16v48a16 16 0 0 0 16 16 16 16 0 0 0 16-16v-48a16 16 0 0 0-16-16zM90.16 421.61l33.94-33.94m-4.141-15.455a16 16 0 0 0-7.172 4.14l-33.941 33.942a16 16 0 0 0 0 22.627 16 16 0 0 0 22.629 0l33.94-33.94a16 16 0 0 0 0-22.629 16 16 0 0 0-15.456-4.14zM47.98 319.79h48m-48-16a16 16 0 0 0-16 16 16 16 0 0 0 16 16h48a16 16 0 0 0 16-16 16 16 0 0 0-16-16zm219.58 8.53-31.11 31.11a16 16 0 0 0 0 22.63l45.26 45.25a16 16 0 0 0 22.62 0l31.12-31.11a4 4 0 0 0 0-5.66l-62.23-62.22a4 4 0 0 0-5.66 0ZM131.8 176.55l-31.11 31.12a16 16 0 0 0 0 22.62l45.25 45.26a16 16 0 0 0 22.63 0l31.11-31.11a4 4 0 0 0 0-5.66l-62.22-62.23a4 4 0 0 0-5.66 0Zm297.05-93.27a144 144 0 0 0-203.71-.06l-65.06 65.05a4 4 0 0 0 0 5.66l62.23 62.22a4 4 0 0 0 5.66 0l65-65.05a48 48 0 0 1 68.46.59c18.3 18.92 17.47 49.24-1.14 67.85L295.85 284a4 4 0 0 0 0 5.66l62.22 62.23a4 4 0 0 0 5.66 0l64.08-64.08c56.37-56.34 57.37-148.13 1.04-204.53Z"/></svg>