<svg xmlns="http://www.w3.org/2000/svg" width="512" height="512" viewBox="0 0 512 512"><path d="M256 66.84a40.6 40.6 0 0 0-17.95 4.181h-.001l-174.69 86.221C44.26 166.6 32.074 186.065 32 207.334V392c0 30.85 25.603 56 56.52 56h335c30.916 0 56.52-25.15 56.52-56V207.326c-.086-21.28-12.296-40.75-31.417-50.092l.059.028-174.73-86.24h-.003A40.6 40.6 0 0 0 256 66.84zm0 31.99c1.295 0 2.59.296 3.791.889l170.06 83.933-123.357 93.426-28.601-22.248c-7.19-5.593-15.873-8.389-24.557-8.389s-17.368 2.796-24.559 8.39l-28.441 22.12L78.93 185.242 252.209 99.72a8.56 8.56 0 0 1 3.791-.89zm192.04 111.188V392c0 13.33-10.677 24-24.52 24h-335C74.676 416 64 405.33 64 392V214.07l110.176 83.227-74.668 58.074a16 16 0 0 0-2.807 22.451 16 16 0 0 0 22.451 2.807l129.27-100.54h.002c2.953-2.296 6.87-2.296 9.822 0l129.26 100.54a16 16 0 0 0 22.453-2.805 16 16 0 0 0-2.805-22.453l-74.511-57.957z"/></svg>