<svg xmlns="http://www.w3.org/2000/svg" width="512" height="512" viewBox="0 0 512 512"><path d="M256 48C141.31 48 48 141.31 48 256s93.31 208 208 208 208-93.31 208-208S370.69 48 256 48zm0 32c97.05 0 176 78.95 176 176s-79 176-176 176S80 353 80 256 159 80 256 80zm-95.203 47.156a16 16 0 0 0-12.637 26.604l192 210A15.93 15.93 0 0 0 352 369a16 16 0 0 0 11.84-26.76l-192-210a16 16 0 0 0-11.043-5.084zM256 128a48.08 48.08 0 0 0-41 23.1 4 4 0 0 0 .47 4.77l84.42 92.86a2 2 0 0 0 3.46-1A48 48 0 0 0 304 240v-64a48.14 48.14 0 0 0-48-48zm-79.61 80A15.91 15.91 0 0 0 160 224v24.22c0 23.36 10.94 45.61 30.79 62.66A103.7 103.7 0 0 0 240 334.26V352h-15.55c-8.61 0-16 6.62-16.43 15.23A16 16 0 0 0 224 384h64a16 16 0 0 0 16-16.77c-.42-8.61-7.84-15.23-16.45-15.23H272v-17.74a100 100 0 0 0 12.53-3.06 2 2 0 0 0 .89-3.26l-21.07-23.19a3.94 3.94 0 0 0-3.29-1.29c-1.69.15-3.39.24-5.06.24-36 0-64-29.82-64-55.48V224.4a16.26 16.26 0 0 0-15.61-16.4zm159.233.008c-8.66.205-15.623 7.584-15.623 16.293v23.92a43.4 43.4 0 0 1-3.07 15.91 4 4 0 0 0 .76 4.158l19.19 21.102a2 2 0 0 0 3.19-.301A77.1 77.1 0 0 0 352 248.22v-23.8a16.3 16.3 0 0 0-13.64-16.24 16 16 0 0 0-2.737-.172zm-126.057 36.765a1 1 0 0 0-1.197 1.118 48.26 48.26 0 0 0 37.25 41 1 1 0 0 0 .951-1.692l-36.46-40.11a1 1 0 0 0-.544-.316z"/></svg>