<svg xmlns="http://www.w3.org/2000/svg" width="512" height="512" viewBox="0 0 512 512"><path d="M256 32c-30.371 0-51.992 23.698-59.352 48.965.432-1.472-.815.293-.677.236l-.014.004c-18.147 7.473-39.492 19.441-56.072 41.121s-27.705 52.59-27.705 95.024c-.025 42.202-4.482 65.6-11.108 81.64-6.626 16.042-15.977 26.203-29.142 42.317-9.25 11.32-10.16 26.862-4.184 38.566S86.702 400 101.61 400H176c0 43.993 36.007 80 80 80s80-36.007 80-80h74.49c14.905 0 27.847-8.496 33.776-20.191 5.928-11.696 5.044-27.183-4.192-38.497l-.004-.005c-13.165-16.114-22.515-26.274-29.134-42.313-6.62-16.039-11.067-39.435-11.067-81.644 0-42.399-11.136-73.313-27.717-95-16.58-21.688-37.92-33.677-56.06-41.145l-.012-.004c.27.111-1.137-1.804-.691-.303l.011.041C307.987 55.71 286.382 32 256 32zm0 32c13.218 0 24.413 11.372 28.7 25.96l.01.042c3.147 10.602 10.08 17.046 19.21 20.797 15.206 6.261 30.797 15.273 42.81 30.986 12.017 15.717 21.14 38.613 21.14 75.565 0 44.44 4.62 72.37 13.485 93.851 8.865 21.479 21.417 35.033 33.93 50.348 1.344 1.646 1.122 2.443.438 3.793S414.095 368 410.49 368H101.61c-3.703 0-4.688-1.353-5.364-2.678s-.926-2.068.463-3.767l.002-.002c12.514-15.317 25.068-28.87 33.94-50.348 8.87-21.478 13.503-49.405 13.529-93.846v-.009c0-36.997 9.116-59.884 21.123-75.584 12.004-15.697 27.589-24.69 42.828-30.967 8.997-3.697 16.089-10.15 19.22-20.822l.012-.041C231.595 75.378 242.787 64 256 64zm-48 336h96c0 26.7-21.3 48-48 48s-48-21.3-48-48z"/></svg>