<svg xmlns="http://www.w3.org/2000/svg" width="512" height="512" viewBox="0 0 512 512"><path d="M256 48C141.346 48 48 141.346 48 256s93.346 208 208 208 208-93.346 208-208S370.654 48 256 48zm0 32c97.346 0 176 78.654 176 176s-78.654 176-176 176S80 353.346 80 256 158.654 80 256 80zm0 48c-13.88 0-24.31 10.6-28 22.86a11.35 11.35 0 0 1-6.33 6.68c-1.28.51-2.57 1.05-3.88 1.63a4 4 0 0 0-1.3 6.36L361 323.21a4 4 0 0 0 6.94-2.95 12 12 0 0 0-2.74-7.26c-16.33-19.34-27.86-27.47-27.86-80.8 0-48.86-25.78-66.23-47-74.67a11.4 11.4 0 0 1-6.34-6.68C280.29 138.6 269.88 128 256 128zm-95.203 6.156a16 16 0 0 0-12.637 26.604l192 212A15.93 15.93 0 0 0 352 378a16 16 0 0 0 11.84-26.76l-192-212a16 16 0 0 0-11.043-5.084zm18.988 87.106a4 4 0 0 0-4.945 3.699c-.1 2.33-.16 4.75-.16 7.25 0 53.33-11.54 61.459-27.87 80.799-6.77 8-.65 23 11.19 23h118.83a4 4 0 0 0 2.95-6.7l-98-106.87a4 4 0 0 0-1.995-1.178zM220.24 352a4 4 0 0 0-4 4.42C218.49 375.14 235.11 384 256 384s37.5-8.86 39.73-27.58a4 4 0 0 0-4-4.42z"/></svg>