<svg xmlns="http://www.w3.org/2000/svg" width="512" height="512" viewBox="0 0 512 512"><path d="M334.523 32.068A16 16 0 0 0 320 48v32a16 16 0 0 0 16 16 16 16 0 0 0 16-16V48a16 16 0 0 0-17.477-15.932zM222.865 78.863a16.002 16.002 0 0 0-11.314 27.317l22.629 22.62a15.92 15.92 0 0 0 11.31 4.69 16 16 0 0 0 11.31-27.31l-22.62-22.63a16 16 0 0 0-11.315-4.687zm226.27 0a16 16 0 0 0-11.315 4.688L415.2 106.18a16 16 0 0 0 11.31 27.31 15.92 15.92 0 0 0 11.31-4.69l22.63-22.62a16.002 16.002 0 0 0-11.315-27.317zM336.09 112A95.46 95.46 0 0 0 281 129.33h-.06a3.38 3.38 0 0 0 1 6 162.5 162.5 0 0 1 51.28 26.4 173.9 173.9 0 0 1 45.32 52.51 16 16 0 0 0 9.35 7.44 168.8 168.8 0 0 1 34.76 14.71 4 4 0 0 0 5.82-2.44 97 97 0 0 0 3.53-26.68c-.39-52.43-43.48-95.22-95.91-95.27zM232 160a140.24 140.24 0 0 0-93.46 35.32C112.06 218.91 94.67 252 88.23 291c-.01.05-.03.05-.09.05-22.83 3.63-43.76 13.16-59 26.84C10.08 335 0 358.14 0 384.8c0 30.55 11.23 55.64 32.47 72.56C51.08 472.17 76.5 480 106 480h234c33.2 0 64.11-11.46 87-32.28 23.87-21.65 37-51.67 37-84.52 0-31.49-11-59.09-31.74-79.82-16.77-16.71-39.17-28.39-65.17-34a16 16 0 0 1-11.19-9 142.24 142.24 0 0 0-42.19-53.21C290.482 169.39 262.23 160 232 160zm232 32a16 16 0 0 0 0 32h32a16 16 0 0 0 0-32z"/></svg>