<svg xmlns="http://www.w3.org/2000/svg" width="512" height="512" viewBox="0 0 512 512"><path d="M181.49 48a42.6 42.6 0 0 0-6.338.477c-18.278 2.671-31.763 16.457-39.142 32.812-7.385 16.367-9.82 36.269-6.795 57.154v.002c2.85 19.652 10.143 37.092 20.764 50.409S175.335 212 192.509 212a42.6 42.6 0 0 0 6.339-.477c18.278-2.671 31.763-16.457 39.142-32.812 7.385-16.366 9.819-36.266 6.795-57.15v-.004c-2.848-19.697-10.142-37.146-20.77-50.455C213.39 57.795 198.65 48.005 181.505 48zm148.977 0c-17.145.005-31.883 9.8-42.498 23.107-10.618 13.312-17.902 30.758-20.754 50.45-3.025 20.885-.59 40.787 6.795 57.154 7.38 16.355 20.864 30.141 39.142 32.812 2.102.316 4.226.479 6.352.477 17.17-.005 31.9-9.833 42.516-23.148 10.616-13.317 17.9-30.757 20.734-50.409 3.025-20.885.592-40.787-6.793-57.154-7.38-16.354-20.864-30.14-39.14-32.812a42.5 42.5 0 0 0-6.34-.477zm-148.99 32h.013c4.58 0 11.088 3.014 17.52 11.068 6.431 8.055 12.003 20.53 14.105 35.07v.005c2.236 15.434.055 29.772-4.293 39.408-4.347 9.635-9.7 13.601-14.611 14.314l-.05.008-.05.008q-.789.12-1.588.119h-.013c-4.555 0-11.075-3.026-17.514-11.1-6.438-8.072-12.01-20.556-14.111-35.043v-.003c-2.235-15.433-.054-29.77 4.293-39.405s9.7-13.601 14.611-14.314l.05-.008.05-.008q.789-.12 1.588-.119zm149.003 0h.012q.8 0 1.588.12l.05.007.052.008c4.91.713 10.263 4.679 14.611 14.314 4.347 9.636 6.528 23.974 4.293 39.408l-.002.004v.006c-2.087 14.484-7.652 26.966-14.086 35.037S324.045 180 319.49 180h-.013q-.8 0-1.588-.12l-.05-.007-.05-.008c-4.911-.713-10.264-4.679-14.611-14.314s-6.528-23.973-4.293-39.406v-.002c2.108-14.548 7.675-27.027 14.1-35.08C319.408 83.009 325.9 80 330.48 80zm115.58 72-.119.002c-29.975.446-55.517 24.701-69.193 57.61l-.002.007-.002.002c-8.19 19.678-10.68 39.775-7.322 57.615 3.358 17.844 13.52 34.552 30.883 41.514l.047.02.046.017a46.2 46.2 0 0 0 17.04 3.211c30.256-.015 56.123-24.475 69.914-57.61l.007-.017.008-.017c8.14-19.69 10.567-39.792 7.18-57.618s-13.51-34.503-30.828-41.478l-.06-.024-.061-.023A46.3 46.3 0 0 0 446.535 152zm-380.652.002a46.2 46.2 0 0 0-17.039 3.21l-.053.02-.054.022c-17.355 6.976-27.49 23.692-30.842 41.533-3.353 17.84-.867 37.937 7.318 57.602 13.779 33.129 39.614 57.594 69.854 57.609a46.2 46.2 0 0 0 17.039-3.21l.053-.02.054-.022c17.355-6.976 27.49-23.692 30.842-41.533 3.352-17.84.867-37.933-7.316-57.596l-.002-.006c-13.779-33.128-39.614-57.594-69.854-57.609zM65.336 184h.045c10.227 0 30.198 13.526 40.336 37.904v.002l.002.002c6.025 14.475 7.374 28.95 5.412 39.395-1.957 10.415-6.27 15.692-11.287 17.728a14.2 14.2 0 0 1-5.18.969h-.045c-10.227 0-30.198-13.526-40.336-37.904v-.002l-.002-.002c-6.025-14.475-7.374-28.95-5.412-39.395 1.957-10.415 6.27-15.692 11.287-17.728a14.2 14.2 0 0 1 5.18-.969zm381.07 0h.219a14.3 14.3 0 0 1 5.182.969c4.982 2.029 9.323 7.323 11.302 17.742 1.986 10.449.675 24.919-5.312 39.406C447.648 266.477 427.678 280 417.41 280h-.045a14.2 14.2 0 0 1-5.183-.97c-5.043-2.039-9.351-7.303-11.31-17.714-1.965-10.434-.617-24.907 5.419-39.406l.002-.006.002-.006c10.062-24.218 29.747-37.735 40.111-37.898zM256 224c-18.828 0-35.627 6.575-48.465 18.975s-22.961 29.11-36.93 52.232c-9.532 15.76-24.366 24.865-40.923 34.818-16.514 9.927-35.984 21.113-44.264 43.942a66.9 66.9 0 0 0-4.613 24.896C80.838 434.185 108.449 464 143.199 464c20.158 0 39.738-7.168 59.149-13.479 19.41-6.31 38.434-11.912 53.752-11.912 15.317 0 34.282 5.599 53.642 11.909S348.642 464 368.801 464c34.758 0 62.283-29.867 62.297-65.174a67 67 0 0 0-4.723-24.867c-8.27-22.85-27.719-34.067-44.207-43.979-16.533-9.938-31.33-19.005-40.863-34.76-13.968-23.176-24.063-39.885-36.883-52.28S274.81 224 256 224zm0 32c12.99 0 18.098 2.131 26.178 9.943s17.886 22.842 31.718 45.795l.006.01.006.012c14.266 23.593 35.364 35.782 51.774 45.646s26.877 16.978 30.652 27.533l.107.3.12.294a35 35 0 0 1 2.539 13.211v.057c0 19.082-13.866 33.199-30.3 33.199-11.64 0-29.552-5.523-49.142-11.908s-41.076-13.483-63.558-13.483c-22.483 0-44.007 7.096-63.647 13.48S154.841 432 143.2 432c-16.429 0-30.398-14.17-30.398-33.2v-.07l-.002-.068c-.04-4.518.8-9.002 2.469-13.201l.1-.25.091-.256c3.76-10.473 14.268-17.62 30.709-27.504 16.44-9.883 37.557-22.096 51.824-45.691l.002-.004.002-.002c13.832-22.897 23.657-37.928 31.77-45.764 8.112-7.835 13.262-9.99 26.234-9.99z"/></svg>