<svg xmlns="http://www.w3.org/2000/svg" width="512" height="512" viewBox="0 0 512 512"><path d="M336 80c-24 0-45.49 8.9-60.86 25.4s-22.88 39.14-21.14 63.76c1.63 23.08 10.87 44.75 26 61 15.56 16.66 35.44 25.84 56 25.84 20.57 0 40.44-9.18 55.96-25.85 15.1-16.23 24.33-37.89 26-61 1.74-24.41-5.79-47.01-21.26-63.63C381.38 89.06 359.83 80 336 80zm-189 32c-20 0-38.14 7.62-51 21.45-13 13.97-19.42 33.02-18 53.62 2.87 40.21 33.81 72.93 69 72.93 35.13 0 66.06-32.71 68.93-72.91 1.5-20.43-4.9-39.44-18-53.52C185 119.66 167 112 147 112zm.01 166.55c-29.46 0-58.07 7.68-80.57 21.62-25.51 15.83-42.67 38.88-49.6 66.71a27.39 27.39 0 0 0 4.79 23.36A25.32 25.32 0 0 0 41.72 400h111a8 8 0 0 0 7.87-6.57c.11-.63.25-1.26.41-1.88 8.48-34.06 28.351-62.84 57.71-83.82a8 8 0 0 0-.63-13.39c-1.57-.92-3.37-1.89-5.42-2.89-17.59-8.6-40.42-12.9-65.65-12.9zM336 288c-36.14 0-71.21 9.401-98.76 26.46-31.04 19.23-51.9 47.27-60.32 81.08a30.22 30.22 0 0 0 5.26 25.79 27.71 27.71 0 0 0 22 10.67h263.65a27.68 27.68 0 0 0 21.94-10.62 30.27 30.27 0 0 0 5.32-25.78c-8.38-34.22-29.27-62.42-60.38-81.55C407.002 297 372.85 288 336 288z"/></svg>