<svg xmlns="http://www.w3.org/2000/svg" width="512" height="512" viewBox="0 0 512 512"><path d="M258.9 48C141.92 46.42 46.42 141.92 48 258.9c1.56 112.19 92.91 203.54 205.1 205.1 117 1.6 212.48-93.901 210.88-210.88C462.44 140.91 371.09 49.56 258.9 48zm64.77 96a74 74 0 0 1 25.06 4.26 66.7 66.7 0 0 1 26.27 17.2 68.15 68.15 0 0 1 18 42.14 78.5 78.5 0 0 1 0 11.4 86.2 86.2 0 0 1-8.2 31 82 82 0 0 1-1.59 3.15c-1.11 2.07-2.3 4.1-3.58 6.06a79.5 79.5 0 0 1-8.63 11c-13.12 14-29.92 21.73-47.31 21.73a59.6 59.6 0 0 1-19.17-3.18 64 64 0 0 1-6.1-2.43 70.8 70.8 0 0 1-22.07-16.12 83.76 83.76 0 0 1-22-51.32 83 83 0 0 1-.18-7.68 75.6 75.6 0 0 1 1.05-11.08v-.02c.21-1.2.44-2.4.71-3.59a66.46 66.46 0 0 1 16.29-31.21c12.89-13.73 31.16-21.31 51.45-21.31zm-164.385 27.074a64 64 0 0 1 16.834 1.026 57 57 0 0 1 30.781 17 57.86 57.86 0 0 1 15.41 38.62c.05 2.11 0 4.23-.15 6.38a71.6 71.6 0 0 1-6 23.84 69.5 69.5 0 0 1-5.73 10.42 65.4 65.4 0 0 1-15.76 16.57c-1.5 1.07-3.06 2.07-4.67 3.07a54.2 54.2 0 0 1-10 4.65 49.3 49.3 0 0 1-16.2 2.76c-.93 0-1.86 0-2.78-.08a48 48 0 0 1-5.48-.62 51 51 0 0 1-5.35-1.23 53.5 53.5 0 0 1-7.72-2.89c-.84-.39-1.66-.8-2.48-1.23-.306-.162-.585-.38-.888-.548.302.167.603.338.908.499-.311-.165-.618-.34-.926-.51a58 58 0 0 1-6.535-4.203 62 62 0 0 1-5.957-5.02 66.6 66.6 0 0 1-9.977-12.096 70 70 0 0 1-3.146-5.384c-.142-.27-.29-.538-.428-.81.135.265.277.526.416.79a71 71 0 0 1-3.988-9.103 71 71 0 0 1-2.012-6.631l-.004-.012q-.161-.644-.31-1.293l-.002-.014c-.587-2.549-1.075-5.138-1.381-7.785-.12-1.05-.22-2.1-.29-3.16a66.6 66.6 0 0 1 .02-9.63 59.9 59.9 0 0 1 5.2-20.64 57 57 0 0 1 2.78-5.3 54.5 54.5 0 0 1 7.19-9.56 55.6 55.6 0 0 1 14-10.82 57 57 0 0 1 8.11-3.64 64 64 0 0 1 16.515-3.416zm-49.805 81.942zm7.18 14.543zm4.711 6.423zm5.338 5.72zm5.937 4.976zM163.82 311c17 0 30.7 2 42.69 5.88a8 8 0 0 1 2.59 13.77c-23.35 19-38.4 42.54-45.47 70.75a2.77 2.77 0 0 1-4.22 1.65 177.27 177.27 0 0 1-61.94-70.65 4 4 0 0 1 1.62-5.26C117.67 316.69 141.4 311 163.82 311zm159.83 7.91c31.16 0 60 7.58 83.48 21.91a2.72 2.72 0 0 1 .91 3.67A176.1 176.1 0 0 1 256 432a175.1 175.1 0 0 1-65.7-12.72 4 4 0 0 1-2.4-4.46c.4-2.05.84-3.92 1.23-5.48 7.12-28.43 24.76-52 51-68.18 23.29-14.35 53-22.25 83.52-22.25z"/></svg>