<svg xmlns="http://www.w3.org/2000/svg" width="512" height="512" viewBox="0 0 512 512"><path d="M288 32c-61.251 0-108.544 50.083-103.957 113.16v.002C188.433 205.45 233.547 256 288 256c54.456 0 99.49-50.566 103.957-110.816v-.002C396.568 82.932 349.453 32 288 32zm0 32c44.547 0 75.432 33.069 72.043 78.818C356.669 188.308 321.543 224 288 224c-33.546 0-68.731-35.688-72.043-81.16v-.002C212.546 95.917 243.252 64 288 64zM32 216a16 16 0 0 0-16 16 16 16 0 0 0 16 16h112a16 16 0 0 0 16-16 16 16 0 0 0-16-16zm256 72c-46.442 0-93.176 12.672-131.191 38.012-38.005 25.332-67.203 63.957-76.188 113.705v.01c-1.69 9.235-.096 18.806 5.328 26.716C91.375 474.356 101.404 480 112.01 480H464c10.606 0 20.638-5.654 26.055-13.564s7.004-17.46 5.341-26.676v-.002c-8.98-49.768-38.186-88.407-76.203-113.746C381.177 300.672 334.443 288 288 288zm0 32c40.557 0 81.474 11.328 113.445 32.639 31.971 21.31 55.09 51.97 62.46 92.802.242 1.344 0 2.167-.145 2.559H112.234c-.142-.383-.38-1.19-.136-2.518l.004-.021.003-.022c7.365-40.83 30.482-71.49 62.452-92.8S247.443 320 288 320z"/></svg>