<svg xmlns="http://www.w3.org/2000/svg" width="512" height="512" viewBox="0 0 512 512"><path d="M256 32c-66.294 0-131.29 13.121-186.47 35.227l-.055.023-.057.023c-3.095 1.267-7.886 3.193-12.955 7.846-5.07 4.654-10.52 15.657-7.276 25.686l.168.523 10.102 25.168.252.52c3.076 6.305 8.495 12.282 14.875 14.933 2.244.933 4.246 1.407 6.129 1.735.49 1.941 1.11 3.837 1.975 5.586l-.006-.008c.058.117 8.001 17.324 18.736 40.799s25.06 54.818 40.465 88.4c30.807 67.157 65.876 143.159 85.363 183.484l.002.004.006.012c11.155 23.118 46.397 23.113 57.54-.016l.058-.12 144.101-312.33a30 30 0 0 0 1.781-5.067c1.492-.198 3.2-.553 5.18-1.176 7.722-2.428 13.407-9.592 16.563-16.62l.119-.265 10.068-24.812.158-.473c3.192-9.528-1.694-19.71-6.426-24.408-4.73-4.698-9.574-7.058-14.1-8.86l-.015-.005-.015-.006C388.336 46.467 322.51 32 256 32zm0 32c61.572 0 123.746 13.59 173.848 33.32l-5.918 14.59c-.544-.148-1.144-.281-2.516-.816-16.434-6.61-34.462-12.387-53.463-17.131-30.967-8.328-63.088-12.681-96.797-13.664C266.104 80.123 261.05 80 256 80h-.023c-5.373.008-10.739.14-16.1.336-43.325 1.405-85.428 8.433-122.565 21.373-8.973 2.862-17.875 5.978-26.675 9.396l-.041.016-.04.016c-1.11.438-1.82.565-2.493.718L81.99 96.723C133.04 76.359 194.176 64 256 64zm0 48c4.518 0 8.94.14 13.375.26 33.089 1.13 66.46 6.327 96.541 14.25a332 332 0 0 1 32.807 11.386l.004.002.003.002c.185.076.12.07.268.135l-142.98 309.9c-19.183-39.698-54.282-115.747-85.05-182.818-15.393-33.557-29.711-64.886-40.448-88.365-10.045-21.964-15.473-33.894-17.909-38.965.228-.11.281-.19.54-.295l.029-.012.029-.011c4.837-1.998 9.838-3.868 14.955-5.639a426.4 426.4 0 0 1 112.56-19.506c5.08-.17 10.163-.324 15.276-.324zm-64 48a32 32 0 0 0-32 32 32 32 0 0 0 32 32 32 32 0 0 0 32-32 32 32 0 0 0-32-32zm128 16a32 32 0 0 0-32 32 32 32 0 0 0 32 32 32 32 0 0 0 32-32 32 32 0 0 0-32-32zm-64 112a32 32 0 0 0-32 32 32 32 0 0 0 32 32 32 32 0 0 0 32-32 32 32 0 0 0-32-32z"/></svg>