<svg xmlns="http://www.w3.org/2000/svg" width="512" height="512" viewBox="0 0 512 512"><path d="M47.072 112.225c-5.752.165-11.347 1.863-15.931 4.828C21.97 122.983 16 133.659 16 145.52v221c0 11.86 5.974 22.526 15.113 28.462 9.137 5.934 22.278 6.876 32.73.618l.01-.006L244.57 287.473v79.047c0 11.86 5.974 22.526 15.114 28.462 9.136 5.934 22.277 6.876 32.73.618l.01-.006L481.285 282.6h.002c19.844-11.877 19.844-41.182 0-53.059h-.002L292.514 116.6c-5.215-3.171-11.125-4.54-16.877-4.375-5.753.165-11.347 1.864-15.932 4.83-9.17 5.931-15.135 16.608-15.135 28.465v79.148L63.95 116.604c-5.215-3.174-11.125-4.544-16.878-4.38zm1.135 32.248L234.73 256.07 48.225 367.654c-.11-.24-.225-.534-.225-1.134v-221c0-.558.109-.808.207-1.047zm228.57.002L463.301 256.07 276.795 367.654c-.11-.24-.225-.534-.225-1.134v-221c0-.557.11-.805.207-1.045z"/></svg>