<svg xmlns="http://www.w3.org/2000/svg" width="512" height="512" viewBox="0 0 512 512"><path d="M252.87 48.225A22 22 0 0 0 234 70v180a22 22 0 0 0 22 22 22 22 0 0 0 22-22V70a22 22 0 0 0-25.13-21.775zm119.042 41.507A22 22 0 0 0 360.17 129 164 164 0 0 1 420 255.65C420 346.27 346.43 420 256 420S92 346.27 92 255.65c0-49.35 21.48-95.55 58.93-126.75a22 22 0 1 0-28.17-33.8C75.25 134.65 48 193.2 48 255.65 48 370.53 141.31 464 256 464s208-93.47 208-208.35a207.88 207.88 0 0 0-75.83-160.57 22 22 0 0 0-16.258-5.348z"/></svg>