<svg xmlns="http://www.w3.org/2000/svg" width="512" height="512" viewBox="0 0 512 512"><path d="M312.361 32a30.48 30.48 0 0 0-21.486 8.848l-.04.039L45.138 286.586l-.028.027c-17.28 17.365-17.28 45.909 0 63.274l.028.027 117 117 .027.027c17.365 17.28 45.907 17.28 63.272 0l.027-.027 245.601-245.6.04-.039a30.48 30.48 0 0 0 8.845-21.486V76.88c.12-24.581-20.14-44.914-44.722-44.879zm.616 32h122.296c7.217-.01 12.711 5.506 12.676 12.723V199.17L202.863 444.259c-5.145 5.12-12.981 5.12-18.127 0L67.791 327.314c-5.12-5.145-5.12-12.983 0-18.128zm66.468 32.326A32 32 0 0 0 384 160a32 32 0 0 0 32-32 32 32 0 0 0-36.555-31.674z"/></svg>