<svg xmlns="http://www.w3.org/2000/svg" width="512" height="512" viewBox="0 0 512 512"><path d="M224 128a16 16 0 0 0-16 16 16 16 0 0 0 16 16h192a16 16 0 0 0 16-16 16 16 0 0 0-16-16zm64 80a16 16 0 0 0-16 16 16 16 0 0 0 16 16h128a16 16 0 0 0 16-16 16 16 0 0 0-16-16zm176 64v112c0 35.536-28.464 64-64 64s-64-28.464-64-64v-48a16 16 0 0 0-16-16H48.143c-17.61-.156-32.286 14.516-32.141 32.123.002 32.514.983 62.644 14.459 87.502C43.954 464.515 71.876 480 112 480h288c52.83 0 96-43.17 96-96V272zM48 352h256v32c0 24.57 9.417 46.98 24.723 64H112c-33.136 0-45.215-8.515-53.406-23.625C50.402 409.265 48 383.438 48 352z"/></svg>