<svg xmlns="http://www.w3.org/2000/svg" width="512" height="512" viewBox="0 0 512 512"><path d="M239.98 48C125.336 48.01 32 141.353 32 256c0 114.654 93.346 208 208 208h.002c88.097-.006 166.757-55.613 196.15-138.662l5.34-15.082-30.168-10.678-5.338 15.084C381.078 385.04 314.654 431.994 240 432c-97.346 0-176-78.654-176-176S142.654 80 240 80h.02a175.4 175.4 0 0 1 127.12 54.318L377 145.79l-71.38 71.38a4 4 0 0 0 2.83 6.831H460a4 4 0 0 0 4-4V68.45a4 4 0 0 0-6.83-2.83l-57.479 57.478-8.943-10.407-.28-.295A207.46 207.46 0 0 0 240 48z"/></svg>