<svg xmlns="http://www.w3.org/2000/svg" width="512" height="512" viewBox="0 0 512 512"><path d="M239.98 48C125.336 48.01 32 141.353 32 256c0 114.654 93.346 208 208 208h.002c88.097-.006 166.757-55.613 196.15-138.662a16 16 0 0 0-9.744-20.422 16 16 0 0 0-20.422 9.746C381.078 385.04 314.654 431.994 240 432c-97.346 0-176-78.654-176-176S142.654 80 240 80h.02a175.4 175.4 0 0 1 127.12 54.318L377 145.79l-50.9 50.9c-10.08 10.08-2.94 27.31 11.32 27.31H448a16 16 0 0 0 16-16V97.42c0-14.26-17.23-21.42-27.31-11.32l-36.999 36.998-8.943-10.407-.28-.295A207.46 207.46 0 0 0 240 48z"/></svg>