<svg xmlns="http://www.w3.org/2000/svg" width="512" height="512" viewBox="0 0 512 512"><path d="M256 16c-79.4 0-144 64.6-144 144s64.6 144 144 144 144-64.6 144-144S335.4 16 256 16zm-15.607 65.537A80 80 0 0 1 336 160a80.09 80.09 0 0 1-80 80 80 80 0 0 1-15.607-158.463zM256.02 112a48 48 0 0 0-48 48 48 48 0 0 0 48 48 48 48 0 0 0 48-48 48 48 0 0 0-48-48zM403 256.74a176.9 176.9 0 0 1-88.18 69.14L273.7 415.5 319 512l58-96h115zm-293.8.2L20 416h115l58 96 82.53-177.09A178 178 0 0 1 256 336c-5.22 0-10.4-.24-15.51-.69a176.12 176.12 0 0 1-131.29-78.37z"/></svg>