<svg xmlns="http://www.w3.org/2000/svg" width="512" height="512" viewBox="0 0 512 512"><path d="M185.88 32.113a16 16 0 0 0-7.423.88 16 16 0 0 0-8.424 7.202l-152 272A16.002 16.002 0 0 0 32 336h144.834c6.574 65.39 52.898 120.968 117.367 138.412 69.67 18.852 143.515-11.419 179.926-73.738s26.524-141.512-24.107-192.95c-31.645-32.148-74.385-48.558-117.342-47.695-20.466.412-40.963 4.812-60.352 13.23l-74.36-133.064a16 16 0 0 0-12.085-8.082zM184 80.8 308.73 304H59.27zm149.37 111.164c34.34-.707 68.47 12.432 93.845 38.21 40.6 41.247 48.484 104.38 19.283 154.358-29.2 49.978-88.07 74.109-143.937 58.992-50.64-13.702-87.051-56.528-93.452-107.523H336a16.002 16.002 0 0 0 13.967-23.805l-61.917-110.8c14.65-5.938 29.992-9.118 45.318-9.433z"/></svg>