<svg xmlns="http://www.w3.org/2000/svg" width="512" height="512" viewBox="0 0 512 512"><path d="M255.621 16C141.104 16.205 48 109.443 48 224v100.67c.001 32.662 19.96 62.144 50.287 74.275h.002l23.68 9.471a15.95 15.95 0 0 1 9.742 11.719v.002l10.03 50.142C144.713 485.14 157.964 496 173.118 496H338.85c15.177.03 28.46-10.839 31.44-25.72v-.005l10.003-50.152v-.004a15.95 15.95 0 0 1 9.738-11.732l.002-.002.006-.002 23.672-9.467h.002c30.326-12.13 50.286-41.613 50.287-74.275v-99C464 111.132 370.386 15.794 255.621 16zm.059 32C352.674 47.826 432 128.57 432 225.64v99a47.9 47.9 0 0 1-30.172 44.565v-.002l-23.683 9.473h-.002a48.05 48.05 0 0 0-29.235 35.195L338.91 464H320v-16a16 16 0 0 0-16-16 16 16 0 0 0-16 16v16h-16v-16a16 16 0 0 0-16-16 16 16 0 0 0-16 16v16h-16v-16a16 16 0 0 0-16-16 16 16 0 0 0-16 16v16h-18.88l-10.03-50.135v-.004a48.05 48.05 0 0 0-29.235-35.156h-.001l-23.682-9.47A47.9 47.9 0 0 1 80 324.67V224c0-97.282 78.437-175.825 175.68-176zM168 224c-30.738 0-56 25.262-56 56s25.262 56 56 56 56-25.262 56-56-25.262-56-56-56zm176 0c-30.738 0-56 25.262-56 56s25.262 56 56 56 56-25.262 56-56-25.262-56-56-56zm-176 32c13.444 0 24 10.556 24 24s-10.556 24-24 24-24-10.556-24-24 10.556-24 24-24zm176 0c13.444 0 24 10.556 24 24s-10.556 24-24 24-24-10.556-24-24 10.556-24 24-24zm-88 64.004a16 16 0 0 0-15.18 10.935l-16 48A16.002 16.002 0 0 0 240 400h32a16.002 16.002 0 0 0 15.18-21.06l-16-48A16 16 0 0 0 256 320.003z"/></svg>