<svg xmlns="http://www.w3.org/2000/svg" width="512" height="512" viewBox="0 0 512 512"><path d="M256 48C123.668 48 16.013 155.54 16 287.877v.023a239.2 239.2 0 0 0 60.336 159.123l.17.188c.701.765 1.828 2.08 3.338 3.629 16.216 17.443 44.49 17.349 60.568-.246 62.402-67.767 168.774-67.767 231.176 0 16.107 17.627 44.464 17.702 60.666.162l.055-.059 3.199-3.5.156-.174A239.2 239.2 0 0 0 496 287.89C495.994 155.545 388.336 48 256 48zm0 32c115.06 0 208 92.85 208 207.9v.022a207.16 207.16 0 0 1-52.242 137.826l-3.012 3.295c-3.818 4.134-9.74 4.12-13.535-.035l-.037-.041c-74.756-81.24-203.592-81.24-278.348 0l-.037.04c-3.796 4.155-9.717 4.17-13.535.036a16 16 0 0 0-.44-.457c-.388-.388-1.277-1.414-2.55-2.81l-.002-.003A207.16 207.16 0 0 1 48 287.922v-.022C48 172.85 140.94 80 256 80zm0 32a16 16 0 0 0-16 16v32a16 16 0 0 0 16 16 16 16 0 0 0 16-16v-32a16 16 0 0 0-16-16zm-114.535 46.92a16 16 0 0 0-2.746.484 16 16 0 0 0-7.172 4.143 16 16 0 0 0 0 22.627l22.629 22.63a16 16 0 0 0 22.629 0 16 16 0 0 0 0-22.628l-22.631-22.63a16 16 0 0 0-12.71-4.626zm226.28 0a16 16 0 0 0-2.747.484 16 16 0 0 0-7.172 4.143l-22.629 22.629a16 16 0 0 0 0 22.629 16 16 0 0 0 22.627 0l22.63-22.631a16 16 0 0 0 0-22.627 16 16 0 0 0-12.71-4.627zm-49.796 57.143a10.23 10.23 0 0 0-5.85 1.837l-75.5 47.5a30.11 30.11 0 0 0 35 49 31 31 0 0 0 7-7l47.5-75.5a10.06 10.06 0 0 0-2.298-14 10.23 10.23 0 0 0-5.852-1.838zM96 272a16 16 0 0 0-16 16 16 16 0 0 0 16 16h32a16 16 0 0 0 16-16 16 16 0 0 0-16-16zm288 0a16 16 0 0 0-16 16 16 16 0 0 0 16 16h32a16 16 0 0 0 16-16 16 16 0 0 0-16-16z"/></svg>