<svg xmlns="http://www.w3.org/2000/svg" width="512" height="512" viewBox="0 0 512 512"><path d="M256 32.004a16 16 0 0 0-15.217 11.05L192.377 192H32a16.002 16.002 0 0 0-9.049 29.195l130.02 89.157-50.131 148.53a16.002 16.002 0 0 0 24.549 18.073L256 383.76l128.611 93.195a16.002 16.002 0 0 0 24.55-18.072l-50.132-148.531 130.02-89.157A16.002 16.002 0 0 0 480 192H319.623L271.217 43.055A16 16 0 0 0 256 32.004zm0 67.762 36.783 113.18A16 16 0 0 0 308 224h120.375l-97.424 66.805a16 16 0 0 0-6.111 18.312l37.978 112.53-97.43-70.602A16 16 0 0 0 256 348.35z"/></svg>