<svg xmlns="http://www.w3.org/2000/svg" width="512" height="512" viewBox="0 0 512 512"><path d="M120 16a24 24 0 0 0-24 24v336a24 24 0 0 0 24 24h272a24 24 0 0 0 24-24V40a24 24 0 0 0-24-24zm88 48h95.55c8.61 0 16 6.62 16.43 15.23A16 16 0 0 1 304 96h-95.55c-8.61 0-16-6.62-16.43-15.23A16 16 0 0 1 208 64zm-80 80h256v64H128zm61.838 147.15a32 32 0 0 1 17.982 32.32 32 32 0 0 1-28.35 28.35 32 32 0 1 1 10.368-60.67zm160 0a32 32 0 0 1 17.982 32.32 32 32 0 0 1-28.35 28.35 32 32 0 1 1 10.368-60.67zM170 416l-80.57 80h45.2l16-16h210.74l16 16h45.3L343 416h-45l31.37 32H182.63L214 416z"/></svg>