<svg xmlns="http://www.w3.org/2000/svg" viewBox="0 0 512 512"><path d="M406.463 16.16a40.1 40.1 0 0 0-17.002 5.22l-93.342 53.78a39.7 39.7 0 0 0-18.648 24.28 32.8 32.8 0 0 0-1.272 13.25c1.74 12.62 13 30.4 26.41 53.89 13.58 23.73 28.91 50.48 36.93 56.27a40.2 40.2 0 0 0 23.182 7.37 39.77 39.77 0 0 0 19.92-5.34L476 171.07a39.72 39.72 0 0 0 18.79-24.84 41 41 0 0 0-4.58-30.49L444.09 36a40.08 40.08 0 0 0-37.627-19.84zM240.195 134.514a16 16 0 0 0-5.916 2.006l-86.379 49.8a39.73 39.73 0 0 0-18.65 24.28 34.8 34.8 0 0 0-1.37 9.76c.06 7.6 9.2 22.7 18.12 38.28 9.59 16.75 19.24 33.88 26.34 38.15 4.52 2.72 12.5 4.9 19.21 4.9h.84l-79.32 171.6a16 16 0 1 0 29.05 13.42l93.68-202.65a7.94 7.94 0 0 1 3.26-3.57l19.21-11.08a2 2 0 0 1 2.78.84l93.21 185a16.002 16.002 0 0 0 28.58-14.4v-.05L288.72 254a2 2 0 0 1 .79-2.63l8.3-4.79a16 16 0 0 0 5.86-21.86l-47.53-82.33a16 16 0 0 0-15.945-7.876zM93.71 242a16 16 0 0 0-7.998 2.14L36 272.81a39.7 39.7 0 0 0-18.8 24.91 40.9 40.9 0 0 0 4.55 30.35l4.36 7.54a40 40 0 0 0 54.62 14.62l49.67-28.63a16 16 0 0 0 5.87-21.86L107.56 250a16 16 0 0 0-13.851-8z"/></svg>