<svg xmlns="http://www.w3.org/2000/svg" width="512" height="512" viewBox="0 0 512 512"><path d="M256 16c-60.732-.052-115.378 36.032-139.57 90.996C60.716 110.341 16 156.876 16 213.33 16 271.94 64.146 320 122.8 320h281.53c50.373 0 91.67-41.274 91.67-91.56 0-49.768-40.478-90.647-90.154-91.473C391.41 67.79 329.263 16.007 256.016 16zm-.016 32H256c62.103 0 113.701 46.723 120.297 106.64a16 16 0 0 0 15.902 14.25h12.131c32.967 0 59.67 26.728 59.67 59.55 0 32.833-26.703 59.56-59.67 59.56H122.8C81.576 288 48 254.46 48 213.33c0-41.119 33.575-74.66 74.8-74.66h4.57a16 16 0 0 0 15.073-10.637A120.28 120.28 0 0 1 255.984 48zM119.041 336.03a16 16 0 0 0-13.352 8.814l-24 48a16 16 0 0 0 7.155 21.467 16 16 0 0 0 21.467-7.155l24-48a16 16 0 0 0-7.155-21.467 16 16 0 0 0-8.115-1.66zm280 0a16 16 0 0 0-13.352 8.814l-24 48a16 16 0 0 0 7.155 21.467 16 16 0 0 0 21.467-7.155l24-48a16 16 0 0 0-7.155-21.467 16 16 0 0 0-8.115-1.66zm-264 80a16 16 0 0 0-13.352 8.814l-16 32a16 16 0 0 0 7.155 21.467 16 16 0 0 0 21.467-7.155l16-32a16 16 0 0 0-7.155-21.467 16 16 0 0 0-8.115-1.66zm280 0a16 16 0 0 0-13.352 8.814l-16 32a16 16 0 0 0 7.155 21.467 16 16 0 0 0 21.467-7.155l16-32a16 16 0 0 0-7.155-21.467 16 16 0 0 0-8.115-1.66z"/></svg>