<svg xmlns="http://www.w3.org/2000/svg" width="512" height="512" viewBox="0 0 512 512"><path d="M208 16c-11.655 0-21.878 6.52-27.475 16h-12.57C128.45 32.112 96.112 64.449 96 103.955V351c0 9.852 4.91 17.907 10.527 23.885 5.617 5.977 12.405 10.677 20.008 15.04 15.206 8.728 33.907 15.91 52.467 22.012 37.12 12.207 73.766 19.733 73.766 19.733a16 16 0 0 0 6.464 0s36.645-7.526 73.766-19.733c18.56-6.103 37.261-13.284 52.467-22.011 7.603-4.364 14.39-9.064 20.008-15.041C411.089 368.907 416 360.852 416 351V104c0-39.575-32.425-72-72-72h-12.525c-5.597-9.48-15.82-16-27.475-16zm0 32h96a16 16 0 0 0 16 16h24c22.28 0 40 17.72 40 40v246.582c-.035.019-.31.753-1.848 2.389-2.258 2.403-6.72 5.816-12.617 9.2-11.794 6.77-29.093 13.634-46.533 19.368-32.321 10.628-62.375 17.064-67.002 18.043-4.627-.98-34.681-7.415-67.002-18.043-17.44-5.734-34.739-12.598-46.533-19.367-5.897-3.385-10.36-6.798-12.617-9.201-1.537-1.636-1.813-2.37-1.848-2.389V104.045c.063-22.277 17.768-39.982 40.045-40.045H192a16 16 0 0 0 16-16zm-32 48c-17.484 0-32 14.516-32 32v64c0 17.484 14.516 32 32 32h160c17.484 0 32-14.516 32-32v-64c0-17.484-14.516-32-32-32zm0 32h160v64H176zm76.75 112.1c-15.52.8-30.585 7.227-42.004 18.646-18.27 18.27-23.763 45.874-13.875 69.746C206.76 352.365 230.161 368 256 368c35.157 0 64-28.843 64-64 0-25.84-15.635-49.24-39.508-59.129a63.8 63.8 0 0 0-27.742-4.771zm1.611 31.925a32 32 0 0 1 13.885 2.41A31.91 31.91 0 0 1 288 304c0 17.863-14.137 32-32 32a31.91 31.91 0 0 1-29.564-19.754c-4.97-12-2.246-25.686 6.939-34.871 5.74-5.74 13.24-8.958 20.986-9.35zm-79.197 143.996a16 16 0 0 0-3.305.524 16 16 0 0 0-7.173 4.14l-48 48a16 16 0 0 0 0 22.63 16 16 0 0 0 22.628 0L150.63 480h210.74l11.315 11.314a16 16 0 0 0 22.628 0 16 16 0 0 0 0-22.628l-48-48a16 16 0 0 0-15.455-4.141 16 16 0 0 0-7.173 4.14 16 16 0 0 0 0 22.63L329.37 448H182.63l4.685-4.686a16 16 0 0 0 0-22.628 16 16 0 0 0-12.15-4.665z"/></svg>