<svg xmlns="http://www.w3.org/2000/svg" width="512" height="512" viewBox="0 0 512 512"><path d="M208 16a32 32 0 0 0-26.11 13.52A6 6 0 0 1 177 32h-17c-36.81 0-64 28.84-64 64v255c0 23.27 25.6 42.06 83 60.94a753 753 0 0 0 73.77 19.73 16 16 0 0 0 6.46 0A753 753 0 0 0 333 411.94c57.4-18.88 83-37.67 83-60.94V96a64 64 0 0 0-64-64h-15a10 10 0 0 1-7.87-3.78A31.94 31.94 0 0 0 304 16zm-24 112h144a8 8 0 0 1 8 8v48a8 8 0 0 1-8 8H184a8 8 0 0 1-8-8v-48a8 8 0 0 1 8-8zm73.398 112.021a64 64 0 0 1 62.471 68.159 64.07 64.07 0 0 1-59.69 59.69 64 64 0 1 1-2.78-127.849zm.94 32.063a32.05 31.94-45 0 0-24.924 9.332 32.05 31.94-45 0 0-.076 45.248 32.05 31.94-45 0 0 45.246-.078 32.05 31.94-45 0 0 .078-45.248 32.05 31.94-45 0 0-20.324-9.254zm78.21 144.023c-4.035-.177-8.108 1.134-11.298 4.034a16 16 0 0 0-.56 23.16l4.68 4.69H182.63l4.36-4.372c6.1-6.09 6.66-15.999.86-22.379a16 16 0 0 0-23.16-.56l-48 48a16 16 0 1 0 22.62 22.62l11.32-11.3h210.74l11.32 11.31a16 16 0 0 0 22.62-22.62L347.63 421a16.72 16.72 0 0 0-11.081-4.893z"/></svg>