<svg xmlns="http://www.w3.org/2000/svg" width="512" height="512" viewBox="0 0 512 512"><path d="M111.002 96.031a16 16 0 0 0-14.97 16.967l20 320-.01-.178C117.347 458.64 138.211 480 164 480h184c25.823 0 46.402-21.432 47.969-47.018l.002-.006 19.998-319.978a16 16 0 0 0-14.97-16.967 16 16 0 0 0-16.968 14.97l-20 320-.002.022C363.333 442.415 357.515 448 348 448H164c-9.412 0-15.448-5.66-16.021-16.82l-.01-.178-20-320a16 16 0 0 0-16.967-14.97z"/><path d="M80 112h352M80 96a16 16 0 0 0-16 16 16 16 0 0 0 16 16h352a16 16 0 0 0 16-16 16 16 0 0 0-16-16z"/><path d="M216.047 32c-21.951-.064-40.111 18.096-40.047 40.047V112a16 16 0 0 0 16 16 16 16 0 0 0 16-16V71.953c-.013-4.59 3.362-7.966 7.953-7.953h80.094c4.59-.013 7.966 3.362 7.953 7.953V112a16 16 0 0 0 16 16 16 16 0 0 0 16-16V72.047c.064-21.951-18.096-40.111-40.047-40.047ZM256 160a16 16 0 0 0-16 16v224a16 16 0 0 0 16 16 16 16 0 0 0 16-16V176a16 16 0 0 0-16-16zm-72.57.01a16 16 0 0 0-15.42 16.56l8 224a16 16 0 0 0 16.56 15.42 16 16 0 0 0 15.42-16.56l-8-224a16 16 0 0 0-16.56-15.42zm145.14 0a16 16 0 0 0-16.56 15.42l-8 224a16 16 0 0 0 15.42 16.56 16 16 0 0 0 16.56-15.42l8-224a16 16 0 0 0-15.42-16.56z"/></svg>