<svg xmlns="http://www.w3.org/2000/svg" width="512" height="512" viewBox="0 0 512 512"><path d="M256 32a16 16 0 0 0-16 16v.635C123.923 56.873 32 153.86 32 272a16.002 16.002 0 0 0 27.314 11.313c20.395-20.397 52.977-20.397 73.372 0a16 16 0 0 0 22.626.001 62.1 62.1 0 0 1 81.399-5.783l3.289 2.467V432c0 9.026-6.974 16-16 16s-16-6.974-16-16a16 16 0 0 0-16-16 16 16 0 0 0-16 16c0 26.32 21.68 48 48 48s48-21.68 48-48V279.998l3.29-2.467a62.1 62.1 0 0 1 81.397 5.783 16 16 0 0 0 22.627-.002c20.395-20.396 52.977-20.396 73.372 0A16.002 16.002 0 0 0 480 272c0-118.14-91.923-215.127-208-223.365V48a16 16 0 0 0-16-16zm0 48c95.844 0 174.8 69.888 189.371 161.557-25.377-9.417-54.426-6.2-77.25 9.664-32.948-23.985-78.564-24.386-112.03.709l-.003.002-.088.066-.088-.066-.004-.002c-33.465-25.095-79.081-24.694-112.03-.71-22.823-15.864-51.872-19.08-77.25-9.663C81.202 149.888 160.157 80 256 80z"/></svg>