<svg xmlns="http://www.w3.org/2000/svg" width="512" height="512" viewBox="0 0 512 512"><path d="M251.965 32.531A15.79 15.79 0 0 0 240.82 43.45a8.09 8.09 0 0 1-6.88 5.621A224 224 0 0 0 32 271.52a16.41 16.41 0 0 0 7.24 13.87 16 16 0 0 0 20.07-2.08 51.89 51.89 0 0 1 73.31-.06 15.94 15.94 0 0 0 22.6.15 62.59 62.59 0 0 1 81.49-5.87 8.24 8.24 0 0 1 3.29 6.59v147.42c0 8.599-6.6 16-15.19 16.44A16 16 0 0 1 208 432a16 16 0 0 0-16.29-16c-9 .16-15.9 8.11-15.7 17.1a48.06 48.06 0 0 0 47.37 46.9c26.88.34 48.62-21.93 48.62-48.81V284.12a8.24 8.24 0 0 1 3.29-6.59 62.59 62.59 0 0 1 81.4 5.78 16 16 0 0 0 22.62 0 51.91 51.91 0 0 1 73.38 0 16 16 0 0 0 19.54 2.41 16.4 16.4 0 0 0 7.77-14.21 222.54 222.54 0 0 0-65.61-157.9 222.26 222.26 0 0 0-136.33-64.54 8.09 8.09 0 0 1-6.88-5.62 15.79 15.79 0 0 0-19.215-10.919z"/></svg>