<svg xmlns="http://www.w3.org/2000/svg" width="512" height="512" viewBox="0 0 512 512"><path d="M256 72 125.65 176.1H32v159.8h93.65L256 440zm164.879 1.904-26.975 17.217 8.61 13.488C431.614 150.201 448 190.23 448 256s-16.436 106.844-45.402 151.26l-8.74 13.402 26.804 17.48 8.74-13.402C460.436 377.156 480 327.37 480 256s-19.615-120.201-50.514-168.61zm-47.127 48.211-27.637 16.133 8.067 13.818C373.55 185.244 384 210.73 384 256c0 45.154-10.959 71.093-29.875 104.031l-7.969 13.875 27.75 15.938 7.969-13.875C401.919 341.067 416 306.726 416 256c0-50.61-13.55-84.724-34.182-120.066zm-46.78 48.358-28.5 14.554 7.278 14.25C314.827 217.051 320 235.246 320 256c0 20.277-5.45 39.211-14.297 56.814l-7.183 14.297 28.591 14.37 7.186-14.295C344.93 306.029 352 282.043 352 256c0-26.206-6.827-49.891-17.75-71.277z"/></svg>