<svg xmlns="http://www.w3.org/2000/svg" width="512" height="512" viewBox="0 0 512 512"><path d="M262.1 96.223c-4.288.167-8.558 1.51-12.32 4.277a16 16 0 0 0-.665.518L157.666 176H88c-13.065 0-24 10.935-24 24v112c0 13.065 10.935 24 24 24h69.643l.002.002 91.47 75a16 16 0 0 0 .664.518c15.068 11.082 38.257-.677 38.221-19.381V119.82c-.008-14.011-13.037-24.099-25.9-23.597zM399.932 128a16 16 0 0 0-7.99 2.178 16 16 0 0 0-5.764 21.88C405.556 185.293 416 210.668 416 256c0 45.218-10.951 71.004-29.883 104.047a16 16 0 0 0 5.93 21.836 16 16 0 0 0 21.836-5.93C433.91 340.997 448 306.783 448 256c0-50.667-13.556-84.693-34.178-120.059a16 16 0 0 0-13.89-7.941zM256 136.752v238.516l-78.062-64.008-.002-.002A32 32 0 0 0 157.658 304H96v-96h61.633a32 32 0 0 0 20.281-7.22l.022-.018zm96.828 39.27a16 16 0 0 0-8.1 1.726 16 16 0 0 0-6.98 21.523C346.834 217.08 352 235.212 352 256c0 20.31-5.443 39.172-14.3 56.824a16 16 0 0 0 7.124 21.477 16 16 0 0 0 21.477-7.125C376.923 306.009 384 282.069 384 256c0-26.232-6.834-49.88-17.748-71.271a16 16 0 0 0-13.424-8.708z"/></svg>