<svg xmlns="http://www.w3.org/2000/svg" width="512" height="512" viewBox="0 0 512 512"><path d="M258.32 16.22c-29.225 0-53.26 24.035-53.26 53.26 0 29.226 24.035 53.26 53.26 53.26s53.26-24.034 53.26-53.26-24.035-53.26-53.26-53.26zm0 32c11.931 0 21.26 9.33 21.26 21.26 0 11.932-9.329 21.26-21.26 21.26-11.93 0-21.26-9.328-21.26-21.26 0-11.93 9.33-21.26 21.26-21.26zM202.42 128c-14.65 0-27.001 6.865-37.36 15.152-10.357 8.288-19.175 18.515-26.673 28.514-14.997 19.998-24.8 39.709-24.8 39.709a16 16 0 0 0-1.687 7.154v74.522a16 16 0 0 0 16 16 16 16 0 0 0 16-16v-70.428c2.047-3.927 8.953-16.91 20.088-31.76 6.475-8.633 13.957-17.037 21.065-22.724.463-.37.911-.69 1.367-1.034v106.036a88.8 88.8 0 0 0 12.355 45.19 16 16 0 0 0 1.172 1.716l43.88 56.1 56.042 113.269a16 16 0 0 0 21.436 7.244 16 16 0 0 0 7.246-21.435l-54.23-109.608V184.221c0-30.864-25.368-56.227-56.231-56.221zm16 32.031c13.408.17 23.9 10.733 23.9 24.19v138.06l-16.306-20.847c-4.95-8.612-7.594-18.353-7.594-28.293zm86.502 54.996a16 16 0 0 0-14.295 7.188 16 16 0 0 0 4.588 22.158l66.101 43.42a16 16 0 0 0 22.157-4.588 16 16 0 0 0-4.588-22.158l-66.1-43.42a16 16 0 0 0-7.863-2.6zm-79.72 169.018a16 16 0 0 0-14.419 6.937l-53.469 78.36a16 16 0 0 0 4.198 22.234 16 16 0 0 0 22.234-4.197l53.47-78.361a16 16 0 0 0-4.198-22.235 16 16 0 0 0-7.817-2.738z"/></svg>