<svg xmlns="http://www.w3.org/2000/svg" width="512" height="512" viewBox="0 0 512 512"><path d="M256 50.334c-16.705 0-33.41 8.218-42.266 24.656l-.002.004-170.42 316.5c-16.875 31.343 6.657 70.75 42.254 70.756h340.868c35.597-.006 59.129-39.413 42.253-70.756l-170.42-316.5-.001-.004C289.409 58.552 272.705 50.334 256 50.334zm0 30.832c5.43 0 10.86 3.002 14.094 9.004l170.418 316.496c6.077 11.29-1.26 23.58-14.082 23.584H85.57c-12.821-.004-20.159-12.294-14.082-23.584v-.002L241.906 90.17l.002-.004c3.234-5.999 8.663-9 14.092-9zm-.217 92.275c-12.029.118-21.952 10.514-21.512 22.536l.006.166 5.74 122a16.002 16.002 0 0 0 31.965-.002l5.73-121.95v-.025c.556-12.24-9.677-22.844-21.929-22.725zm-2.629 184.012A20 20 0 0 0 256 397.25a20 20 0 0 0 20-20 20 20 0 0 0-22.846-19.797z"/></svg>