<svg xmlns="http://www.w3.org/2000/svg" viewBox="0 0 256 256"><path d="M160 4c-22.81 0-41.763 17.691-43.809 40H80c-32.995 0-60 27.005-60 60 0 6.426 3.174 12.206 8 15.885V128c0 33.141 25.71 57.213 48.307 76.086 11.298 9.436 22.3 17.751 29.88 24.629C113.77 235.592 116 241.333 116 240a12.001 12.001 0 0 0 24 0c0 1.333 2.231-4.408 9.813-11.285 7.58-6.878 18.582-15.193 29.88-24.63C202.29 185.214 228 161.142 228 128v-8.115c4.827-3.679 8-9.46 8-15.885 0-32.995-27.005-60-60-60h-35.611c1.812-9.218 9.796-16 19.611-16a12 12 0 0 0 12-12 12 12 0 0 0-12-12zM80 68h96c18.652 0 33.616 13.917 35.604 32H44.396C46.384 81.917 61.348 68 80 68zm-28 56h152v4c0 19.858-18.29 39.787-39.693 57.664-10.702 8.939-21.7 17.186-30.62 25.277-1.942 1.763-3.847 3.514-5.687 5.297-1.84-1.783-3.745-3.534-5.687-5.297-8.92-8.09-19.918-16.338-30.62-25.277C70.29 167.787 52 147.858 52 128z"/></svg>