<svg xmlns="http://www.w3.org/2000/svg" viewBox="0 0 256 256"><path d="M192 28.033c-9.249 0-18.497 3.495-25.484 10.483a12 12 0 0 0-.262.267L140.668 66.02 60.102 36.723a12 12 0 0 0-12.586 2.793l-24 24a12 12 0 0 0 1.828 18.468l59.82 39.881L75.03 132H56a12 12 0 0 0-8.484 3.516l-24 24a12 12 0 0 0 4.027 19.627l35.225 14.09 14.09 35.224a12 12 0 0 0 19.626 4.027l24-24A12 12 0 0 0 124 200v-19.03l10.135-10.134 39.88 59.82a12 12 0 0 0 18.47 1.828l24-24a12 12 0 0 0 2.792-12.586l-29.297-80.566 27.237-25.586a12 12 0 0 0 .267-.262c13.975-13.974 13.975-36.994 0-50.968-6.987-6.988-16.235-10.483-25.484-10.483zm0 23.85c3.057 0 6.114 1.2 8.516 3.601 4.794 4.795 4.797 12.2.02 17.004l-32.753 30.766a12 12 0 0 0-3.06 12.848l29.388 80.816-8.246 8.246-39.88-59.82a12 12 0 0 0-18.47-1.828l-24 24A12 12 0 0 0 100 176v19.03l-7.615 7.616-9.242-23.103a12 12 0 0 0-6.686-6.686l-23.103-9.242L60.97 156H80a12 12 0 0 0 8.484-3.516l24-24a12 12 0 0 0-1.828-18.468l-59.82-39.881 8.246-8.246 80.816 29.388a12 12 0 0 0 12.848-3.06l30.766-32.752c2.397-2.385 5.442-3.582 8.488-3.582z"/></svg>