<svg xmlns="http://www.w3.org/2000/svg" viewBox="0 0 256 256"><path d="M87.99 48c-10.678.013-18.537 10.93-15.16 21.06L81.81 96H59.315L37.656 74.344A8 8 0 0 0 32 72h-8.002c-10.5.003-18.339 10.544-15.32 20.6l14.07 46.898v.002c5.068 16.884 20.685 28.5 38.313 28.5H240a8 8 0 0 0 8-8v-24c0-21.997-18.003-40-40-40h-60.687l-45.657-45.656A8 8 0 0 0 96 48zm.02 16h4.676l45.658 45.656A8 8 0 0 0 144 112h64c13.35 0 24 10.65 24 24v16H61.06a23.94 23.94 0 0 1-22.988-17.1l-14.07-46.898V88h4.684l21.658 21.656A8 8 0 0 0 56 112h36.91a8 8 0 0 0 7.59-10.53zM112 184a16 16 0 0 0-16 16 16 16 0 0 0 16 16 16 16 0 0 0 16-16 16 16 0 0 0-16-16zm96 0a16 16 0 0 0-16 16 16 16 0 0 0 16 16 16 16 0 0 0 16-16 16 16 0 0 0-16-16z"/></svg>