<svg xmlns="http://www.w3.org/2000/svg" viewBox="0 0 256 256"><path d="M192 32.008c-8.217 0-16.433 3.113-22.656 9.336l-.174.18-27.39 29.156-83.046-30.198a8 8 0 0 0-8.39 1.862l-24 24a8 8 0 0 0 1.218 12.312l63.881 42.588L76.686 136H56a8 8 0 0 0-5.656 2.344l-24 24a8 8 0 0 0 2.685 13.084l36.817 14.726 14.726 36.817a8 8 0 0 0 13.084 2.685l24-24A8 8 0 0 0 120 200v-20.686l14.756-14.757 42.588 63.88a8 8 0 0 0 12.312 1.22l24-24a8 8 0 0 0 1.862-8.391L185.32 114.22l29.157-27.39.18-.175c12.445-12.446 12.445-32.866 0-45.312-6.224-6.223-14.44-9.336-22.657-9.336zm0 15.9c4.089 0 8.178 1.582 11.344 4.748 6.325 6.325 6.329 16.334.017 22.666l-32.838 30.848a8 8 0 0 0-2.04 8.564l30.257 83.211-13.496 13.498-42.588-63.88a8 8 0 0 0-12.312-1.22l-24 24A8 8 0 0 0 104 176v20.686l-13.078 13.08-11.494-28.737a8 8 0 0 0-4.457-4.457l-28.737-11.494L59.314 152H80a8 8 0 0 0 5.656-2.344l24-24a8 8 0 0 0-1.219-12.312l-63.88-42.588L58.055 57.26l83.21 30.258a8 8 0 0 0 8.565-2.041l30.848-32.838c3.163-3.153 7.242-4.73 11.322-4.73z"/></svg>