<svg xmlns="http://www.w3.org/2000/svg" viewBox="0 0 256 256"><path d="M128 12c-19.74 0-36 16.26-36 36v40.584l-73.367 36.684A12 12 0 0 0 12 136v32a12 12 0 0 0 14.354 11.768L92 166.638v12.391l-12.484 12.487A12 12 0 0 0 76 200v32a12 12 0 0 0 16.457 11.143L128 228.923l35.543 14.22A12 12 0 0 0 180 232v-32a12 12 0 0 0-3.516-8.484L164 179.029v-12.39l65.646 13.129A12 12 0 0 0 244 168v-32a12 12 0 0 0-6.633-10.732L164 88.584V48c0-19.74-16.26-36-36-36zm0 24c6.77 0 12 5.23 12 12v48a12 12 0 0 0 6.633 10.732L220 143.416v9.945l-65.646-13.129A12 12 0 0 0 140 152v32a12 12 0 0 0 3.516 8.484L156 204.971v9.304l-23.543-9.418a12 12 0 0 0-8.914 0L100 214.275v-9.304l12.484-12.487A12 12 0 0 0 116 184v-32a12 12 0 0 0-14.354-11.768L36 153.362v-9.946l73.367-36.684A12 12 0 0 0 116 96V48c0-6.77 5.23-12 12-12z"/></svg>