<svg xmlns="http://www.w3.org/2000/svg" viewBox="0 0 256 256"><path d="M128 12C72.914 12 28 56.914 28 112c0 28.909 15.31 60.052 34.41 85.44 9.55 12.693 20.151 23.844 31.053 32.177C104.365 237.951 115.538 244 128 244s23.635-6.05 34.537-14.383 21.503-19.484 31.053-32.178C212.69 172.052 228 140.91 228 112c0-55.086-44.914-100-100-100zm0 24c42.116 0 76 33.884 76 76 0 19.69-12.69 48.547-29.59 71.01-8.45 11.231-17.849 20.968-26.447 27.54-8.598 6.573-16.425 9.45-19.963 9.45-3.537 0-11.365-2.877-19.963-9.45S90.04 194.242 81.59 183.01C64.69 160.547 52 131.69 52 112c0-42.116 33.884-76 76-76zm47.994 63.998a16.97 29.39 45 0 0-23.996 11.998 16.97 29.39 45 0 0-8.783 32.781 16.97 29.39 45 0 0 32.781-8.78 16.97 29.39 45 0 0 8.783-32.784 16.97 29.39 45 0 0-8.785-3.215zM79.998 100a29.39 16.97 45 0 0-8.785 3.215 29.39 16.97 45 0 0 8.783 32.781 29.39 16.97 45 0 0 32.781 8.783 29.39 16.97 45 0 0-8.783-32.78A29.39 16.97 45 0 0 79.998 100zM116 172a12 12 0 0 0-12 12 12 12 0 0 0 12 12h24a12 12 0 0 0 12-12 12 12 0 0 0-12-12z"/></svg>