<svg xmlns="http://www.w3.org/2000/svg" viewBox="0 0 256 256"><path d="M128 16c-52.924 0-96 43.075-96 96 0 27.373 14.874 58.135 33.607 83.035 9.367 12.45 19.766 23.364 30.284 31.404C106.408 234.48 117.025 240 128 240s21.592-5.52 32.11-13.56c10.517-8.04 20.916-18.955 30.283-31.405C209.126 170.135 224 139.373 224 112c0-52.925-43.076-96-96-96zm0 16c44.277 0 80 35.723 80 80 0 21.227-13.126 50.466-30.393 73.416-8.633 11.475-18.234 21.446-27.216 28.313S133.025 224 128 224s-13.409-3.405-22.39-10.271c-8.983-6.867-18.584-16.838-27.217-28.313C61.126 162.466 48 133.227 48 112c0-44.277 35.723-80 80-80zM80 96c-8.742 0-16 7.258-16 16 0 21.997 18.003 40 40 40 8.742 0 16-7.258 16-16 0-21.997-18.003-40-40-40zm96 0c-21.997 0-40 18.003-40 40 0 8.742 7.258 16 16 16 21.997 0 40-18.003 40-40 0-8.742-7.258-16-16-16zm-96 16c13.35 0 24 10.65 24 24-13.35 0-24-10.65-24-24zm96 0c0 13.35-10.65 24-24 24 0-13.35 10.65-24 24-24zm-64 64a8 8 0 0 0-8 8 8 8 0 0 0 8 8h32a8 8 0 0 0 8-8 8 8 0 0 0-8-8z"/></svg>