<svg xmlns="http://www.w3.org/2000/svg" viewBox="0 0 256 256"><path d="M123.57 31.986c-19.033.171-36.956 10.84-45.898 28.381a8 8 0 0 0 3.494 10.76 8 8 0 0 0 10.762-3.494 35.93 35.93 0 0 1 40.486-18.653A35.93 35.93 0 0 1 160 83.998v10.566C150.642 85.56 137.949 80 124 80c-28.624 0-52 23.376-52 52s23.376 52 52 52c13.949 0 26.642-5.56 36-14.564V176a8 8 0 0 0 8 8 8 8 0 0 0 8-8V84c.008-24-16.51-44.967-39.846-50.576a52 52 0 0 0-12.584-1.438zM124 96a35.88 35.88 0 0 1 36 36 35.88 35.88 0 0 1-36 36 35.88 35.88 0 0 1-36-36 35.88 35.88 0 0 1 36-36zm84 64a8 8 0 0 0-8 8 8 8 0 0 0 8 8h12.688l-2.344 2.344a8 8 0 0 0-.291.304S184.444 216 128 216s-90.053-37.352-90.053-37.352a8 8 0 0 0-11.299-.595 8 8 0 0 0-.595 11.299S64.445 232 128 232s101.947-42.648 101.947-42.648l-.29.304 2.343-2.344V200a8 8 0 0 0 8 8 8 8 0 0 0 8-8v-32l-.006-.057a8 8 0 0 0-.174-1.525 8 8 0 0 0-.101-.424 8 8 0 0 0-.438-1.254 8 8 0 0 0-.115-.275 8 8 0 0 0-.834-1.328 8 8 0 0 0-.27-.317 8 8 0 0 0-.406-.476l-.21-.14a8 8 0 0 0-2.26-1.51 8 8 0 0 0-.391-.137A8 8 0 0 0 240 160z"/></svg>