<svg xmlns="http://www.w3.org/2000/svg" viewBox="0 0 256 256"><path d="M128 20c-39.961 0-74.93 21.888-93.607 54.277a12 12 0 0 0-.432.748C25.09 90.694 20 108.765 20 128c0 19.748 5.365 38.268 14.678 54.22a12 12 0 0 0 .414.72C53.937 214.66 88.539 236 128 236c39.961 0 74.93-21.888 93.607-54.277a12 12 0 0 0 .432-.748C230.91 165.306 236 147.235 236 128c0-19.217-5.082-37.272-13.936-52.93a12 12 0 0 0-1.175-2.043C202.039 41.324 167.447 20 128 20zm-8.31 24.408 14.156 39.635-68.19-12.445c13.612-15.045 32.62-25.104 54.033-27.19zm26.005 1.461c20.768 4.422 38.634 16.471 50.575 33.102l-27.282 32.115zM51.416 93.395l41.445 7.564-10.654 12.543-.057.066-34.14 40.19A84.4 84.4 0 0 1 44 128c0-12.356 2.665-24.06 7.416-34.605zm156.574 8.847A84.4 84.4 0 0 1 212 128c0 12.356-2.665 24.06-7.416 34.605l-41.445-7.564zm-87.867 3.694 23.043 4.205 7.88 22.066-15.169 17.857-23.043-4.205-7.88-22.066zm-33.111 38.978 5.54 15.512.022.06 17.73 49.645c-20.767-4.422-38.633-16.471-50.574-33.102zm35.142 27.043 68.19 12.445c-13.612 15.045-32.62 25.104-54.033 27.19z"/></svg>