<svg xmlns="http://www.w3.org/2000/svg" viewBox="0 0 256 256"><path d="M80 28c-24.158 0-44 19.842-44 44v6.582c-6.867 2.219-13.331 5.834-18.883 10.856-15.223 13.77-20.927 35.299-14.517 54.8 5.237 15.935 17.841 28.037 33.4 33.096V200c0 10.904 9.096 20 20 20h144c10.904 0 20-9.096 20-20v-22.666c15.559-5.06 28.163-17.161 33.4-33.096 6.41-19.501.706-41.03-14.517-54.8A51.85 51.85 0 0 0 220 78.555V72c0-24.158-19.842-44-44-44zm0 24h96c11.188 0 20 8.812 20 20v4.656c-4.452.69-8.858 1.936-13.096 3.817-17.535 7.783-29.281 24.603-30.744 43.527h-48.32c-1.463-18.924-13.209-35.744-30.744-43.527A51.8 51.8 0 0 0 60 76.635V72c0-11.188 8.812-20 20-20zM51.535 99.994a28 28 0 0 1 11.824 2.414A27.94 27.94 0 0 1 80 128v36a12 12 0 0 0 12 12 12 12 0 0 0 12-12v-16h48v16a12 12 0 0 0 12 12 12 12 0 0 0 12-12v-36a27.94 27.94 0 0 1 16.64-25.592 27.93 27.93 0 0 1 30.141 4.828 27.93 27.93 0 0 1 7.819 29.508 27.93 27.93 0 0 1-23.8 19.115 12 12 0 0 0-10.8 11.942V196H60v-28.2a12 12 0 0 0-10.8-11.94 27.93 27.93 0 0 1-23.8-19.116 27.93 27.93 0 0 1 7.819-29.508 27.94 27.94 0 0 1 18.316-7.242z"/></svg>