<svg xmlns="http://www.w3.org/2000/svg" viewBox="0 0 256 256"><path d="M96 44a12 12 0 0 0-12 12 12 12 0 0 0 12 12h67.031l-91.515 91.516a12 12 0 0 0 0 16.968 12 12 0 0 0 16.968 0L180 84.97V152a12 12 0 0 0 12 12 12 12 0 0 0 12-12V56l-.004-.02a12 12 0 0 0-.566-3.576l-.051-.18a12 12 0 0 0-1.615-3.163l-.135-.192a12 12 0 0 0-1.145-1.353 12 12 0 0 0-.898-.69 12 12 0 0 0-1.016-.78 12 12 0 0 0-2.105-1.073 12 12 0 0 0-1.04-.43A12 12 0 0 0 192 44zM40 204a12 12 0 0 0-12 12 12 12 0 0 0 12 12h176a12 12 0 0 0 12-12 12 12 0 0 0-12-12z"/></svg>