<svg xmlns="http://www.w3.org/2000/svg" viewBox="0 0 256 256"><path d="M72 28a12 12 0 0 0-12 12v64a12 12 0 0 0 3.516 8.484L116 164.971v38.06l-11.516-11.515A12 12 0 0 0 96 188a12 12 0 0 0-8.484 3.516 12 12 0 0 0 0 16.968l32 32a12 12 0 0 0 .89.684 12 12 0 0 0 1.03.791 12 12 0 0 0 2.093 1.066 12 12 0 0 0 1.045.432 12 12 0 0 0 3.354.531L128 244l.072-.012a12 12 0 0 0 3.354-.531 12 12 0 0 0 1.045-.432 12 12 0 0 0 2.093-1.066 12 12 0 0 0 1.03-.791 12 12 0 0 0 .89-.684l32-32a12 12 0 0 0 0-16.968 12 12 0 0 0-16.968 0L140 203.03v-38.06l52.484-52.485A12 12 0 0 0 196 104V40a12 12 0 0 0-12-12 12 12 0 0 0-12 12v59.03l-44 44.001L84 99.03V40a12 12 0 0 0-12-12z"/></svg>