<svg xmlns="http://www.w3.org/2000/svg" viewBox="0 0 256 256"><path d="M128 8a8 8 0 0 0-5.656 2.344l-32 32a8 8 0 0 0 0 11.312 8 8 0 0 0 11.312 0L120 35.313V96a8 8 0 0 0 8 8 8 8 0 0 0 8-8V35.313l18.344 18.343a8 8 0 0 0 11.312 0 8 8 0 0 0 0-11.312l-32-32a8 8 0 0 0-1.601-1.229l-.108-.064a8 8 0 0 0-1.83-.758l-.113-.027A8 8 0 0 0 128 8zM40 120a8 8 0 0 0-8 8 8 8 0 0 0 8 8h176a8 8 0 0 0 8-8 8 8 0 0 0-8-8zm88 32a8 8 0 0 0-8 8v60.688l-18.344-18.344A8 8 0 0 0 96 200a8 8 0 0 0-5.656 2.344 8 8 0 0 0 0 11.312l32 32a8 8 0 0 0 3.586 2.07A8 8 0 0 0 128 248a8 8 0 0 0 2.07-.273 8 8 0 0 0 3.586-2.07l32-32a8 8 0 0 0 0-11.313 8 8 0 0 0-11.312 0L136 220.688V160a8 8 0 0 0-8-8z"/></svg>