<svg xmlns="http://www.w3.org/2000/svg" viewBox="0 0 256 256"><path d="M48 36a12 12 0 0 0-12 12 12 12 0 0 0 12 12h176a12 12 0 0 0 12-12 12 12 0 0 0-12-12zm136 48a12 12 0 0 0-8.484 3.516L84 179.03V112a12 12 0 0 0-12-12 12 12 0 0 0-12 12v96a12 12 0 0 0 .15.95 12 12 0 0 0 .288 1.814 12 12 0 0 0 .582 1.79 12 12 0 0 0 .843 1.657 12 12 0 0 0 1.098 1.51 12 12 0 0 0 .555.763 12 12 0 0 0 .763.555 12 12 0 0 0 1.51 1.098 12 12 0 0 0 1.656.843 12 12 0 0 0 1.791.583 12 12 0 0 0 1.815.287A12 12 0 0 0 72 220h96a12 12 0 0 0 12-12 12 12 0 0 0-12-12h-67.031l91.515-91.516a12 12 0 0 0 0-16.968A12 12 0 0 0 184 84z"/></svg>