<svg xmlns="http://www.w3.org/2000/svg" viewBox="0 0 256 256"><path d="M160 40a8 8 0 0 0-8 8 8 8 0 0 0 8 8h28.688l-50.344 50.344a8 8 0 0 0 0 11.312 8 8 0 0 0 11.312 0L200 67.312V96a8 8 0 0 0 8 8 8 8 0 0 0 8-8V48l-.004-.025a8 8 0 0 0-.26-1.973l-.047-.162a8 8 0 0 0-.722-1.746l-.086-.155a8 8 0 0 0-1.225-1.595A8 8 0 0 0 208 40zm-48 96a8 8 0 0 0-5.656 2.344L56 188.688V160a8 8 0 0 0-8-8 8 8 0 0 0-8 8v48a8 8 0 0 0 .1.754 8 8 0 0 0 .11.838 8 8 0 0 0 .493 1.517 8 8 0 0 0 .277.67 8 8 0 0 0 1.364 1.877 8 8 0 0 0 1.877 1.364 8 8 0 0 0 .67.277 8 8 0 0 0 1.517.492 8 8 0 0 0 .838.111 8 8 0 0 0 .754.1h48a8 8 0 0 0 8-8 8 8 0 0 0-8-8H67.313l50.343-50.344a8 8 0 0 0 0-11.312A8 8 0 0 0 112 136z"/></svg>