<svg xmlns="http://www.w3.org/2000/svg" viewBox="0 0 256 256"><path d="M128 20C68.496 20 20 68.496 20 128c0 59.505 48.496 108 108 108 59.505 0 108-48.495 108-108 0-59.504-48.495-108-108-108zm0 24c46.534 0 84 37.466 84 84s-37.466 84-84 84-84-37.466-84-84 37.466-84 84-84zm32 40a12 12 0 0 0-8.484 3.516L108 131.03V112a12 12 0 0 0-12-12 12 12 0 0 0-12 12v48a12 12 0 0 0 .385 2.908 12 12 0 0 0 .304.871 12 12 0 0 0 .768 1.856 12 12 0 0 0 .584.93 12 12 0 0 0 1.127 1.466 12 12 0 0 0 .348.453 12 12 0 0 0 .453.348 12 12 0 0 0 1.467 1.127 12 12 0 0 0 .93.584 12 12 0 0 0 1.855.768 12 12 0 0 0 .87.304A12 12 0 0 0 96 172h48a12 12 0 0 0 12-12 12 12 0 0 0-12-12h-19.031l43.515-43.516a12 12 0 0 0 0-16.968A12 12 0 0 0 160 84z"/></svg>