<svg xmlns="http://www.w3.org/2000/svg" viewBox="0 0 256 256"><path d="M129.945 33.996c-24.408.142-48.763 9.509-67.322 28.066L48 76.689V48a8 8 0 0 0-8-8 8 8 0 0 0-8 8v48a8 8 0 0 0 .541 2.717 8 8 0 0 0 .264.635 8 8 0 0 0 3.843 3.843 8 8 0 0 0 .635.264A8 8 0 0 0 40 104h48a8 8 0 0 0 8-8 8 8 0 0 0-8-8H59.313l14.624-14.623c31.05-31.048 81.064-31.34 112.473-.654a8 8 0 0 0 11.313-.133 8 8 0 0 0-.133-11.313c-18.773-18.34-43.236-27.423-67.645-27.28zM168 152a8 8 0 0 0-8 8 8 8 0 0 0 8 8h28.688l-14.625 14.623c-31.05 31.048-81.064 31.34-112.473.654a8 8 0 0 0-11.313.133 8 8 0 0 0 .133 11.313c37.547 36.68 97.85 36.33 134.967-.786L208 179.313V208a8 8 0 0 0 8 8 8 8 0 0 0 8-8v-48l-.021-.162a8 8 0 0 0-.237-1.791 8 8 0 0 0-.082-.276 8 8 0 0 0-.705-1.707l-.117-.181a8 8 0 0 0-1.182-1.54 8 8 0 0 0-2.304-1.538 8 8 0 0 0-.635-.264A8 8 0 0 0 216 152z"/></svg>