<svg xmlns="http://www.w3.org/2000/svg" viewBox="0 0 256 256"><path d="M32 208c0 8.726 7.274 16 16 16h160c8.726 0 16-7.274 16-16V48c0-8.726-7.274-16-16-16H48c-8.726 0-16 7.274-16 16zm16 0V48h160v160zm40-48a8 8 0 0 0 2.344 5.656 8 8 0 0 0 11.312 0L152 115.312V144a8 8 0 0 0 8 8 8 8 0 0 0 8-8V96a8 8 0 0 0-.1-.754 8 8 0 0 0-.11-.838 8 8 0 0 0-.493-1.517 8 8 0 0 0-.277-.67 8 8 0 0 0-1.364-1.877 8 8 0 0 0-1.595-1.225l-.155-.086a8 8 0 0 0-1.746-.722l-.162-.047a8 8 0 0 0-1.973-.26L160 88h-48a8 8 0 0 0-8 8 8 8 0 0 0 8 8h28.688l-50.344 50.344A8 8 0 0 0 88 160z" transform="rotate(90 128 128)"/></svg>