<svg xmlns="http://www.w3.org/2000/svg" viewBox="0 0 256 256"><path d="M48 28c-10.872 0-20 9.128-20 20v160c0 10.872 9.128 20 20 20h160c10.872 0 20-9.128 20-20V48c0-10.872-9.128-20-20-20zm4 24h152v152H52Z"/><path d="M96 84a12 12 0 0 0-11.094 7.428v.004c-.039.094-.07.191-.107.287q-.133.342-.242.69l-.004.015-.04.111c-.024.082-.043.164-.066.246q-.096.344-.17.69c.02-.088.046-.173.067-.26-.025.102-.055.204-.076.307l.01-.047c-.016.072-.037.142-.051.215l-.022.13c-.03.163-.047.326-.07.489-.025.173-.057.345-.074.52l-.002.01v.003l-.002.012c-.034.344-.048.688-.051 1.033.002-.19.018-.38.03-.568-.012.198-.029.396-.03.595v-.027c0 .039-.006.078-.006.117v48c0 6.627 5.373 12 12 12s12-5.373 12-12v-19.031l43.516 43.515c4.686 4.685 12.282 4.685 16.968 0 4.685-4.686 4.685-12.282 0-16.968L124.97 108H144c6.627 0 12-5.373 12-12s-5.373-12-12-12z"/></svg>