<svg xmlns="http://www.w3.org/2000/svg" viewBox="0 0 256 256"><path d="M48 28c-10.872 0-20 9.128-20 20v160c0 10.872 9.128 20 20 20h160c10.872 0 20-9.128 20-20V48c0-10.872-9.128-20-20-20zm4 24h152v152H52Z"/><path d="M136 84a12 12 0 0 0-8.484 3.516c-4.685 4.686-4.685 12.282 0 16.968L139.03 116H88c-6.627 0-12 5.373-12 12s5.373 12 12 12h51.031l-11.515 11.516c-4.685 4.686-4.685 12.282 0 16.968 4.686 4.685 12.282 4.685 16.968 0l32-32a12 12 0 0 1-3.351 2.346 12 12 0 0 0 5.87-6.117q.054-.11.102-.22a12 12 0 0 0 .862-4.327q.007-.314 0-.627a12 12 0 0 0-.356-2.473 12 12 0 0 0-.539-1.632 12 12 0 0 0-1.252-2.29 12 12 0 0 0-1.058-1.308q-.135-.162-.278-.32l-32-32A12 12 0 0 0 136 84Z"/></svg>