<svg xmlns="http://www.w3.org/2000/svg" viewBox="0 0 256 256"><path d="M128 12a12 12 0 0 0-2.908.385 12 12 0 0 0-.86.299 12 12 0 0 0-1.875.777 12 12 0 0 0-.906.57 12 12 0 0 0-1.49 1.143 12 12 0 0 0-.445.342l-32 32a12 12 0 0 0 0 16.968 12 12 0 0 0 16.968 0L116 52.97V96a12 12 0 0 0 12 12 12 12 0 0 0 12-12V52.969l11.516 11.515a12 12 0 0 0 16.968 0 12 12 0 0 0 0-16.968l-32-32-.058-.045a12 12 0 0 0-2.371-1.819l-.108-.064a12 12 0 0 0-2.8-1.16l-.07-.022A12 12 0 0 0 128 12zM56 84a12 12 0 0 0-8.484 3.516l-32 32a12 12 0 0 0-.342.445 12 12 0 0 0-1.143 1.49 12 12 0 0 0-.57.906 12 12 0 0 0-.777 1.875 12 12 0 0 0-.3.86A12 12 0 0 0 12 128a12 12 0 0 0 .385 2.908 12 12 0 0 0 .299.86 12 12 0 0 0 .777 1.875 12 12 0 0 0 .57.906 12 12 0 0 0 1.143 1.49 12 12 0 0 0 .342.445l32 32a12 12 0 0 0 16.968 0 12 12 0 0 0 0-16.968L52.97 140H96a12 12 0 0 0 12-12 12 12 0 0 0-12-12H52.969l11.515-11.516a12 12 0 0 0 0-16.968A12 12 0 0 0 56 84zm144 0a12 12 0 0 0-8.484 3.516 12 12 0 0 0 0 16.968L203.03 116H160a12 12 0 0 0-12 12 12 12 0 0 0 12 12h43.031l-11.515 11.516a12 12 0 0 0 0 16.968 12 12 0 0 0 16.968 0l32-32a12 12 0 0 0 .836-.94l.13-.167a12 12 0 0 0 1.302-2.074l.082-.157a12 12 0 0 0 .83-2.376l.049-.217a12 12 0 0 0 .283-2.524L244 128a12 12 0 0 0-.178-2.041 12 12 0 0 0-.064-.31 12 12 0 0 0-.154-.692 12 12 0 0 0-.092-.307 12 12 0 0 0-.219-.693l-.092-.234a12 12 0 0 0-.299-.721l-.134-.275a12 12 0 0 0-.311-.6 12 12 0 0 0-.209-.35 12 12 0 0 0-.336-.527 12 12 0 0 0-.234-.33 12 12 0 0 0-.37-.479 12 12 0 0 0-.28-.334 12 12 0 0 0-.393-.427l-.15-.164-32-32A12 12 0 0 0 200 84zm-72 64a12 12 0 0 0-12 12v43.031l-11.516-11.515A12 12 0 0 0 96 188a12 12 0 0 0-8.484 3.516 12 12 0 0 0 0 16.968l32 32a12 12 0 0 0 .445.342 12 12 0 0 0 1.49 1.143 12 12 0 0 0 .906.57 12 12 0 0 0 1.875.777 12 12 0 0 0 .86.3A12 12 0 0 0 128 244a12 12 0 0 0 2.908-.385 12 12 0 0 0 .86-.299 12 12 0 0 0 1.875-.777 12 12 0 0 0 .906-.57 12 12 0 0 0 1.49-1.143 12 12 0 0 0 .445-.342l32-32a12 12 0 0 0 0-16.968 12 12 0 0 0-16.968 0L140 203.03V160a12 12 0 0 0-12-12z"/></svg>