<svg xmlns="http://www.w3.org/2000/svg" viewBox="0 0 256 256"><path d="M160 36a12 12 0 0 0-12 12 12 12 0 0 0 12 12h19.031l-39.515 39.516a12 12 0 0 0 0 16.968 12 12 0 0 0 16.968 0L196 76.97V96a12 12 0 0 0 12 12 12 12 0 0 0 12-12V48l-.014-.121a12 12 0 0 0-.279-2.477l-.02-.105a12 12 0 0 0-.843-2.41l-.1-.201a12 12 0 0 0-1.305-2.075l-.107-.142a12 12 0 0 0-.848-.953 12 12 0 0 0-.453-.348 12 12 0 0 0-1.467-1.127 12 12 0 0 0-.93-.584 12 12 0 0 0-1.855-.768 12 12 0 0 0-.87-.304A12 12 0 0 0 208 36zm-52 100a12 12 0 0 0-8.484 3.516L60 179.03V160a12 12 0 0 0-12-12 12 12 0 0 0-12 12v48a12 12 0 0 0 .385 2.908 12 12 0 0 0 .304.871 12 12 0 0 0 .768 1.856 12 12 0 0 0 .584.93 12 12 0 0 0 1.127 1.466 12 12 0 0 0 .348.453 12 12 0 0 0 .453.348 12 12 0 0 0 1.467 1.127 12 12 0 0 0 .93.584 12 12 0 0 0 1.855.768 12 12 0 0 0 .87.304A12 12 0 0 0 48 220h48a12 12 0 0 0 12-12 12 12 0 0 0-12-12H76.969l39.515-39.516a12 12 0 0 0 0-16.968A12 12 0 0 0 108 136z"/></svg>