<svg xmlns="http://www.w3.org/2000/svg" viewBox="0 0 256 256"><path d="M128 24C70.657 24 24 70.657 24 128s46.657 104 104 104 104-46.657 104-104S185.343 24 128 24zm0 16c48.696 0 88 39.304 88 88s-39.304 88-88 88-88-39.304-88-88 39.304-88 88-88zm-16 48a8 8 0 0 0-8 8 8 8 0 0 0 8 8h28.688l-50.344 50.344a8 8 0 0 0 0 11.312 8 8 0 0 0 11.312 0L152 115.312V144a8 8 0 0 0 8 8 8 8 0 0 0 8-8V96l-.004-.025a8 8 0 0 0-.26-1.973l-.047-.162a8 8 0 0 0-.722-1.746l-.086-.155a8 8 0 0 0-1.225-1.595A8 8 0 0 0 160 88z"/></svg>