<svg xmlns="http://www.w3.org/2000/svg" viewBox="0 0 256 256"><path d="M128 20C68.496 20 20 68.496 20 128c0 59.505 48.496 108 108 108 59.505 0 108-48.495 108-108 0-59.504-48.495-108-108-108zm0 24c46.534 0 84 37.466 84 84s-37.466 84-84 84-84-37.466-84-84 37.466-84 84-84zM96 84a12 12 0 0 0-2.908.385 12 12 0 0 0-.871.304 12 12 0 0 0-1.856.768 12 12 0 0 0-.93.584 12 12 0 0 0-1.466 1.127 12 12 0 0 0-.453.348 12 12 0 0 0-.348.453 12 12 0 0 0-1.127 1.467 12 12 0 0 0-.584.93 12 12 0 0 0-.768 1.855 12 12 0 0 0-.304.87A12 12 0 0 0 84 96v48a12 12 0 0 0 12 12 12 12 0 0 0 12-12v-19.031l43.516 43.515a12 12 0 0 0 16.968 0 12 12 0 0 0 0-16.968L124.97 108H144a12 12 0 0 0 12-12 12 12 0 0 0-12-12z"/></svg>