<svg xmlns="http://www.w3.org/2000/svg" viewBox="0 0 256 256"><path d="M72 32a8 8 0 0 0-8 8v64a8 8 0 0 0 2.344 5.656L120 163.314v49.374l-18.344-18.344A8 8 0 0 0 96 192a8 8 0 0 0-5.656 2.344 8 8 0 0 0 0 11.312l32 32a8 8 0 0 0 2.304 1.54 8 8 0 0 0 .635.263 8 8 0 0 0 2.688.535L128 240l.03-.006a8 8 0 0 0 2.687-.535 8 8 0 0 0 .635-.264 8 8 0 0 0 2.304-1.539l32-32a8 8 0 0 0 0-11.312 8 8 0 0 0-11.312 0L136 212.688v-49.375l53.656-53.657A8 8 0 0 0 192 104V40a8 8 0 0 0-8-8 8 8 0 0 0-8 8v60.686l-48 48.001-48-48.001V40a8 8 0 0 0-8-8z"/></svg>