<svg xmlns="http://www.w3.org/2000/svg" viewBox="0 0 256 256"><path d="M129.709 28.023c-26.443-.44-52.56 9.623-72.041 28.895L36 76.75V56a12 12 0 0 0-12-12 12 12 0 0 0-12 12v48a12 12 0 0 0 .662 3.7 12 12 0 0 0 .246.704 12 12 0 0 0 2.102 3.47l.138.228a12 12 0 0 0 .338.248 12 12 0 0 0 3.395 2.492l.187.066a12 12 0 0 0 4.04.99 12 12 0 0 0 .542.063A12 12 0 0 0 24 116h48a12 12 0 0 0 12-12 12 12 0 0 0-12-12H54.885L73.87 74.623a12 12 0 0 0 .383-.367 75.93 75.93 0 0 1 82.314-16.676 75.93 75.93 0 0 1 47.41 69.326 75.93 75.93 0 0 1-45.39 70.662 75.93 75.93 0 0 1-82.762-14.295 12 12 0 0 0-16.963.49 12 12 0 0 0 .49 16.964c29.2 27.556 72.147 34.975 108.897 18.81s60.303-52.834 59.725-92.978c-.58-40.144-25.178-76.119-62.38-91.217a99.8 99.8 0 0 0-35.886-7.319z"/></svg>