<svg xmlns="http://www.w3.org/2000/svg" viewBox="0 0 256 256"><path d="M48 36a12 12 0 0 0-2.908.385 12 12 0 0 0-.871.304 12 12 0 0 0-1.856.768 12 12 0 0 0-.93.584 12 12 0 0 0-1.466 1.127 12 12 0 0 0-.453.348 12 12 0 0 0-.348.453 12 12 0 0 0-1.127 1.467 12 12 0 0 0-.584.93 12 12 0 0 0-.768 1.855 12 12 0 0 0-.304.87A12 12 0 0 0 36 48v48a12 12 0 0 0 12 12 12 12 0 0 0 12-12V76.969l35.516 35.515a12 12 0 0 0 16.968 0 12 12 0 0 0 0-16.968L76.97 60H96a12 12 0 0 0 12-12 12 12 0 0 0-12-12zm112 0a12 12 0 0 0-12 12 12 12 0 0 0 12 12h19.031l-35.515 35.516a12 12 0 0 0 0 16.968 12 12 0 0 0 16.968 0L196 76.97V96a12 12 0 0 0 12 12 12 12 0 0 0 12-12V48l-.004-.027a12 12 0 0 0-.283-2.526l-.049-.217a12 12 0 0 0-.84-2.398l-.053-.102a12 12 0 0 0-1.333-2.12l-.112-.147a12 12 0 0 0-.842-.947 12 12 0 0 0-.453-.348 12 12 0 0 0-1.467-1.127 12 12 0 0 0-.93-.584 12 12 0 0 0-1.855-.768 12 12 0 0 0-.87-.304A12 12 0 0 0 208 36zm-56 104a12 12 0 0 0-8.484 3.516L60 179.03V160a12 12 0 0 0-12-12 12 12 0 0 0-12 12v48a12 12 0 0 0 .385 2.908 12 12 0 0 0 .304.871 12 12 0 0 0 .768 1.856 12 12 0 0 0 .584.93 12 12 0 0 0 1.127 1.466 12 12 0 0 0 .348.453 12 12 0 0 0 .453.348 12 12 0 0 0 1.467 1.127 12 12 0 0 0 .93.584 12 12 0 0 0 1.855.768 12 12 0 0 0 .87.304A12 12 0 0 0 48 220h48a12 12 0 0 0 12-12 12 12 0 0 0-12-12H76.969l35.515-35.516a12 12 0 0 0 0-16.968A12 12 0 0 0 104 140zm48 0a12 12 0 0 0-8.484 3.516 12 12 0 0 0 0 16.968L179.03 196H160a12 12 0 0 0-12 12 12 12 0 0 0 12 12h48a12 12 0 0 0 2.908-.385 12 12 0 0 0 .871-.304 12 12 0 0 0 1.856-.768 12 12 0 0 0 .93-.584 12 12 0 0 0 1.466-1.127 12 12 0 0 0 .453-.348 12 12 0 0 0 .842-.947l.112-.146a12 12 0 0 0 1.333-2.121l.053-.102a12 12 0 0 0 .84-2.398l.049-.217a12 12 0 0 0 .283-2.526L220 208v-48a12 12 0 0 0-12-12 12 12 0 0 0-12 12v19.031l-35.516-35.515A12 12 0 0 0 152 140z"/></svg>