<svg xmlns="http://www.w3.org/2000/svg" viewBox="0 0 256 256"><path d="M128 28a12 12 0 0 0-12 12v176a12 12 0 0 0 12 12 12 12 0 0 0 12-12V40a12 12 0 0 0-12-12zM56 84a12 12 0 0 0-8.484 3.516 12 12 0 0 0 0 16.968L59.03 116H16a12 12 0 0 0-12 12 12 12 0 0 0 12 12h43.031l-11.515 11.516a12 12 0 0 0 0 16.968 12 12 0 0 0 16.968 0l32-32a12 12 0 0 0 .836-.94l.13-.167a12 12 0 0 0 1.302-2.074l.082-.157a12 12 0 0 0 .83-2.376l.049-.217a12 12 0 0 0 .283-2.524L100 128a12 12 0 0 0-.178-2.041 12 12 0 0 0-.064-.31 12 12 0 0 0-.154-.692 12 12 0 0 0-.092-.307 12 12 0 0 0-.219-.693l-.092-.234a12 12 0 0 0-.299-.721l-.134-.275a12 12 0 0 0-.311-.6 12 12 0 0 0-.209-.35 12 12 0 0 0-.336-.527 12 12 0 0 0-.234-.33 12 12 0 0 0-.37-.479 12 12 0 0 0-.28-.334 12 12 0 0 0-.393-.427l-.15-.164-32-32A12 12 0 0 0 56 84zm144 0a12 12 0 0 0-8.484 3.516l-32 32a12 12 0 0 0-.342.445 12 12 0 0 0-1.143 1.49 12 12 0 0 0-.57.906 12 12 0 0 0-.777 1.875 12 12 0 0 0-.3.86A12 12 0 0 0 156 128a12 12 0 0 0 .385 2.908 12 12 0 0 0 .299.86 12 12 0 0 0 .777 1.875 12 12 0 0 0 .57.906 12 12 0 0 0 1.143 1.49 12 12 0 0 0 .342.445l32 32a12 12 0 0 0 16.968 0 12 12 0 0 0 0-16.968L196.97 140H240a12 12 0 0 0 12-12 12 12 0 0 0-12-12h-43.031l11.515-11.516a12 12 0 0 0 0-16.968A12 12 0 0 0 200 84z"/></svg>