<svg xmlns="http://www.w3.org/2000/svg" viewBox="0 0 256 256"><path d="M80 28c-10.904 0-20 9.096-20 20v44a12 12 0 0 0 12 12 12 12 0 0 0 12-12V52h120v120h-40a12 12 0 0 0-12 12 12 12 0 0 0 12 12h44c10.904 0 20-9.096 20-20V48c0-10.904-9.096-20-20-20zm-23.998 96A12 12 0 0 0 44 135.998 12 12 0 0 0 55.998 148l35.027.006-59.51 59.51a12 12 0 0 0 0 16.968 12 12 0 0 0 16.97 0l59.51-59.51.005 35.028A12 12 0 0 0 120.002 212 12 12 0 0 0 132 199.998l-.01-63.842a12 12 0 0 0-.408-3.24l-.006-.023a12 12 0 0 0-3.092-5.377A12 12 0 0 0 120 124l-.074.01z"/></svg>