<svg xmlns="http://www.w3.org/2000/svg" viewBox="0 0 256 256"><path d="M32 48a8 8 0 0 0-8 8v16a8 8 0 0 0 8 8 8 8 0 0 0 8-8v-8h32v64h-8a8 8 0 0 0-8 8 8 8 0 0 0 8 8h32a8 8 0 0 0 8-8 8 8 0 0 0-8-8h-8V64h32v8a8 8 0 0 0 8 8 8 8 0 0 0 8-8V56a8 8 0 0 0-8-8zm96 48a8 8 0 0 0-8 8 8 8 0 0 0 8 8h104a8 8 0 0 0 8-8 8 8 0 0 0-8-8zm0 32a8 8 0 0 0-8 8 8 8 0 0 0 8 8h104a8 8 0 0 0 8-8 8 8 0 0 0-8-8zm-48 32a8 8 0 0 0-8 8 8 8 0 0 0 8 8h152a8 8 0 0 0 8-8 8 8 0 0 0-8-8zm0 32a8 8 0 0 0-8 8 8 8 0 0 0 8 8h152a8 8 0 0 0 8-8 8 8 0 0 0-8-8z"/></svg>