<svg xmlns="http://www.w3.org/2000/svg" viewBox="0 0 256 256"><path d="M152 32c-8.742 0-16 7.258-16 16v56H55.19C51.455 85.8 35.26 72 16 72a8 8 0 0 0-8 8 8 8 0 0 0 8 8c13.35 0 24 10.65 24 24 0 44.088 35.912 80 80 80h40c44.088 0 80-35.912 80-80 0-22.629-9.476-43.088-24.646-57.658a8 8 0 0 0-1.208-1.15C199.885 40.048 180.861 32 160 32zm0 16h8c13.696 0 26.353 4.278 36.742 11.557L152 95.354zm56.729 22.457A63.67 63.67 0 0 1 223.489 104h-56.686zM56.549 120H223.45c-3.925 31.633-30.727 56-63.451 56h-40c-32.724 0-59.526-24.367-63.451-56zM88 208a16 16 0 0 0-16 16 16 16 0 0 0 16 16 16 16 0 0 0 16-16 16 16 0 0 0-16-16zm104 0a16 16 0 0 0-16 16 16 16 0 0 0 16 16 16 16 0 0 0 16-16 16 16 0 0 0-16-16z"/></svg>