<svg xmlns="http://www.w3.org/2000/svg" viewBox="0 0 256 256"><path d="M68.53 40a16.03 16.03 0 0 0-13.718 7.76l-.001.004-45.67 76.12a8 8 0 0 0 0 8.231l45.67 76.121.002.004A16.03 16.03 0 0 0 68.529 216H216c8.742 0 16-7.258 16-16V56c0-8.742-7.258-16-16-16H68.529zm-.003 16H216v144H68.527L25.33 128zM112 96a8 8 0 0 0-5.656 2.344 8 8 0 0 0 0 11.312L124.688 128l-18.344 18.344a8 8 0 0 0 0 11.312 8 8 0 0 0 11.312 0L136 139.312l18.344 18.344a8 8 0 0 0 11.312 0 8 8 0 0 0 0-11.312L147.312 128l18.344-18.344a8 8 0 0 0 0-11.312A8 8 0 0 0 160 96a8 8 0 0 0-5.656 2.344L136 116.688l-18.344-18.344A8 8 0 0 0 112 96z"/></svg>