<svg xmlns="http://www.w3.org/2000/svg" viewBox="0 0 256 256"><path d="M128 12.01a20 20 0 0 0-11.1 3.347l-.16.11-67.56 46.66a12 12 0 0 0-2.946 2.898l-40 56a12 12 0 0 0 2.791 16.74A12 12 0 0 0 20 139.073V188h-4a12 12 0 0 0-12 12 12 12 0 0 0 12 12h224a12 12 0 0 0 12-12 12 12 0 0 0-12-12h-4v-48.928a12 12 0 0 0 10.975-1.306 12 12 0 0 0 2.79-16.74l-40-56a12 12 0 0 0-2.945-2.899l-67.56-46.66-.16-.11A20 20 0 0 0 128 12.01zm0 24.847 63.455 43.825L212 109.445V188h-20v-64a12 12 0 0 0-12-12H76a12 12 0 0 0-.793.125 12 12 0 0 0-1.264.053 12 12 0 0 0-.96.3 12 12 0 0 0-1.235.387 12 12 0 0 0-2.066 1.053 12 12 0 0 0-.98.621 12 12 0 0 0-2.065 2.065 12 12 0 0 0-.377.41l-.074.08a12 12 0 0 0-.836 1.705 12 12 0 0 0-.776 1.578 12 12 0 0 0-.31 1.955A12 12 0 0 0 64 124v64H44v-78.555l20.545-28.763zM112 72a12 12 0 0 0-12 12 12 12 0 0 0 12 12h32a12 12 0 0 0 12-12 12 12 0 0 0-12-12zm1.906 64H168v38.066zM88 147.12 146.094 188H88z"/></svg>