<svg xmlns="http://www.w3.org/2000/svg" viewBox="0 0 256 256"><path d="M120 24C62.657 24 16 70.657 16 128v24c0 39.67 32.33 72 72 72h40c39.67 0 72-32.33 72-72v-16h48a8 8 0 0 0 8-8 8 8 0 0 0-8-8h-24.404C219.484 66.393 174.642 24 120 24zm0 16c45.994 0 83.566 35.077 87.598 80H152a8 8 0 0 0-8 8v24c0 31.023-24.977 56-56 56s-56-24.977-56-56v-24c0-48.696 39.304-88 88-88zm-32 88c-15.37 0-28 12.63-28 28s12.63 28 28 28 28-12.63 28-28-12.63-28-28-28zm72 8h24v16c0 29.166-22.078 52.984-50.5 55.73C149.657 194.51 160 174.432 160 152zm-72 8c6.722 0 12 5.278 12 12s-5.278 12-12 12-12-5.278-12-12 5.278-12 12-12z"/></svg>