<svg xmlns="http://www.w3.org/2000/svg" viewBox="0 0 256 256"><path d="M96 0a8 8 0 0 0-8 8 8 8 0 0 0 8 8h64a8 8 0 0 0 8-8 8 8 0 0 0-8-8zM80 32c-13.158 0-24 10.842-24 24v168c0 13.158 10.842 24 24 24h96c13.158 0 24-10.842 24-24V56c0-13.158-10.842-24-24-24zm0 16h96c4.57 0 8 3.43 8 8v168c0 4.57-3.43 8-8 8H80c-4.57 0-8-3.43-8-8V56c0-4.57 3.43-8 8-8zm47.521 48.014a8 8 0 0 0-2.05.396 8 8 0 0 0-4.627 4.012l-16 32A8 8 0 0 0 112 144h19.055l-10.211 20.422a8 8 0 0 0 3.578 10.734 8 8 0 0 0 10.734-3.578l16-32A8 8 0 0 0 144 128h-19.055l10.211-20.422a8 8 0 0 0-3.578-10.734 8 8 0 0 0-4.057-.83z"/></svg>