<svg xmlns="http://www.w3.org/2000/svg" viewBox="0 0 256 256"><path d="M128 20C68.496 20 20 68.496 20 128c0 2.526.12 5.024.291 7.508l.021.287c3.834 53.305 46.588 96.06 99.893 99.893l.287.021c2.484.172 4.982.291 7.508.291 39.103 0 73.45-20.943 92.406-52.19a12 12 0 0 0 1.305-2.267C230.78 165.743 236 147.47 236 128c0-7.636-.81-15.087-2.328-22.281a12 12 0 0 0-.154-.666c-8.954-41.124-41.427-73.603-82.547-82.565l-.217-.05A107.8 107.8 0 0 0 128 20zm0 24c3.777 0 7.485.272 11.127.75a180 180 0 0 1 5.629 19.057 203 203 0 0 0-31.49-18.502A85 85 0 0 1 128 44zm38.916 9.504a83.94 83.94 0 0 1 35.566 35.555 204 204 0 0 0-30.046-5.516 204 204 0 0 0-5.52-30.04zm-85.967 4.822a179.1 179.1 0 0 1 49.9 25.035c-29.863 2.917-59.02 12.39-85.228 28.12 4.374-22.094 17.35-41.02 35.328-53.155zm67.4 48.057c.422-.006.843.006 1.264.004a180.07 180.07 0 0 1-34.285 104.668c-36.347-5.456-64.927-34.036-70.383-70.383a180.1 180.1 0 0 1 103.405-34.29zm43.846 4.861a180 180 0 0 1 19.055 5.63c.478 3.641.75 7.35.75 11.126 0 5.033-.464 9.95-1.305 14.734a203 203 0 0 0-18.5-31.49zm-19.568 13.89a179.1 179.1 0 0 1 25.047 49.917c-12.14 17.985-31.077 30.963-53.182 35.332a204.1 204.1 0 0 0 28.135-85.248z"/></svg>