<svg xmlns="http://www.w3.org/2000/svg" viewBox="0 0 256 256"><path d="M104 16c-34.636 0-64 24.446-64 56v136c0 8.742 7.258 16 16 16h128c8.742 0 16-7.258 16-16v-8h16c13.16 0 24-10.84 24-24v-64c0-13.16-10.84-24-24-24h-16V72c0-21.997-18.003-40-40-40h-11.295c-11.65-9.977-27.407-16-44.705-16zm0 16c14.603 0 27.541 5.477 36.205 13.777A8 8 0 0 0 145.74 48H160c10.534 0 19.363 6.644 22.629 16H56.977C61.379 46.128 80.23 32 104 32zM56 80h128v128H56zm40 16a8 8 0 0 0-8 8v80a8 8 0 0 0 8 8 8 8 0 0 0 8-8v-80a8 8 0 0 0-8-8zm48 0a8 8 0 0 0-8 8v80a8 8 0 0 0 8 8 8 8 0 0 0 8-8v-80a8 8 0 0 0-8-8zm56 8h16c4.513 0 8 3.487 8 8v64c0 4.513-3.487 8-8 8h-16z"/></svg>