<svg xmlns="http://www.w3.org/2000/svg" viewBox="0 0 256 256"><path d="M128 48c-14.819 0-27.394 10.25-30.977 24H16a8 8 0 0 0-8 8 8 8 0 0 0 8 8h58.936c-19.636 13.044-34.063 33.05-39.997 56.408C19.737 146.858 8 160.143 8 176c0 17.578 14.422 32 32 32s32-14.422 32-32c0-13.689-8.747-25.46-20.918-30a80.07 80.07 0 0 1 47.91-52.564C104.102 104.363 115.212 112 128 112s23.898-7.637 29.008-18.564A80.06 80.06 0 0 1 204.918 146C192.747 150.54 184 162.311 184 176c0 17.578 14.422 32 32 32s32-14.422 32-32c0-15.857-11.736-29.139-26.937-31.59-5.932-23.36-20.362-43.365-39.999-56.41H240a8 8 0 0 0 8-8 8 8 0 0 0-8-8h-81.023C155.394 58.25 142.819 48 128 48zm0 16c8.931 0 16 7.069 16 16s-7.069 16-16 16-16-7.069-16-16 7.069-16 16-16zm-88 96c8.931 0 16 7.069 16 16s-7.069 16-16 16-16-7.069-16-16 7.069-16 16-16zm176 0c8.931 0 16 7.069 16 16s-7.069 16-16 16-16-7.069-16-16 7.069-16 16-16z"/></svg>