<svg xmlns="http://www.w3.org/2000/svg" viewBox="0 0 256 256"><path d="M48 56a8 8 0 0 0-8 8 8 8 0 0 0 8 8h23.404l13.719 23.518-15.72 21.556A47.6 47.6 0 0 0 48 112c-26.415 0-48 21.585-48 48s21.585 48 48 48 48-21.585 48-48c0-12.996-5.231-24.816-13.686-33.479l11.61-15.917 31.166 53.427a8 8 0 0 0 10.941 2.88 8 8 0 0 0 2.88-10.942L108.595 104h57.476l11.198 19.197C166.73 132.018 160 145.254 160 160c0 26.415 21.585 48 48 48s48-21.585 48-48-21.585-48-48-48a47.6 47.6 0 0 0-16.928 3.105l-13.457-23.068-.045-.078L165.928 72H192c4.513 0 8 3.487 8 8a8 8 0 0 0 8 8 8 8 0 0 0 8-8c0-13.16-10.84-24-24-24h-40a8 8 0 0 0-6.91 12.031L156.738 88H99.262L82.91 59.969A8 8 0 0 0 76 56zm0 72c4.179 0 8.158.797 11.807 2.232l-18.272 25.055a8 8 0 0 0 1.752 11.178 8 8 0 0 0 11.178-1.752l18.285-25.074C77.286 145.159 80 152.242 80 160a31.88 31.88 0 0 1-32 32 31.88 31.88 0 0 1-32-32 31.88 31.88 0 0 1 32-32zm160 0a31.88 31.88 0 0 1 32 32 31.88 31.88 0 0 1-32 32 31.88 31.88 0 0 1-32-32c0-8.942 3.607-16.986 9.453-22.773l15.637 26.804a8 8 0 0 0 10.941 2.88 8 8 0 0 0 2.88-10.942l-15.62-26.776A32.4 32.4 0 0 1 208 128z"/></svg>