<svg xmlns="http://www.w3.org/2000/svg" viewBox="0 0 256 256"><path d="M87.03 36.047c-9.239 0-18.477 3.488-25.456 10.467a12 12 0 0 0-2.5 3.658l-41.797 95.101a52 52 0 0 0-1.66 3.778l-.193.441-.04.147A51.5 51.5 0 0 0 12 168c0 28.577 23.423 52 52 52s52-23.423 52-52v-68h24v68c0 28.577 23.423 52 52 52s52-23.423 52-52a51.5 51.5 0 0 0-2.889-16.992 12 12 0 0 0-.535-1.516l-.193-.441a52 52 0 0 0-1.66-3.778l-41.797-95.101a12 12 0 0 0-2.5-3.658c-6.98-6.979-16.217-10.467-25.455-10.467s-18.476 3.488-25.455 10.467A12 12 0 0 0 140 55v21h-24V55a12 12 0 0 0-3.516-8.486c-6.979-6.979-16.217-10.467-25.455-10.467zm.32 23.98c1.58.026 3.157.385 4.65 1.09v63.15C83.9 119.049 74.288 116 64 116c-2.687 0-5.328.209-7.908.607l23.72-53.974c2.264-1.765 4.904-2.649 7.538-2.606zm81.3 0c2.634-.043 5.274.841 7.537 2.606l23.721 53.974A52 52 0 0 0 192 116c-10.288 0-19.9 3.048-28 8.268v-63.15a11.3 11.3 0 0 1 4.65-1.09zM64 140c15.606 0 28 12.394 28 28s-12.394 28-28 28-28-12.394-28-28c0-3.205.548-6.262 1.514-9.117l2.015-4.588C44.287 145.73 53.395 140 64 140zm128 0c10.605 0 19.713 5.73 24.47 14.295l2.016 4.588A28.4 28.4 0 0 1 220 168c0 15.606-12.394 28-28 28s-28-12.394-28-28 12.394-28 28-28z"/></svg>