<svg xmlns="http://www.w3.org/2000/svg" viewBox="0 0 256 256"><path d="M127.244 24.037A8 8 0 0 0 120 32v39.63a8 8 0 0 0 8 8 8 8 0 0 0 8-8V48l42.666 32-24.996 18.75a8 8 0 0 0-1.6 11.201 8 8 0 0 0 11.2 1.598L196.8 86.4a8 8 0 0 0 0-12.8l-64-48a8 8 0 0 0-5.556-1.563zM56.381 32.01a8 8 0 0 0-5.762 2.07 8 8 0 0 0-.539 11.3l70.842 77.927L59.199 169.6a8 8 0 0 0-1.6 11.2 8 8 0 0 0 11.202 1.6L120 144.002V224a8 8 0 0 0 12.8 6.4l50.825-38.12 26.455 29.1a8 8 0 0 0 11.3.54 8 8 0 0 0 .54-11.3l-160-176a8 8 0 0 0-5.54-2.61zM136 144.002l11.748 8.812 25.065 27.573L136 207.998z"/></svg>