<svg xmlns="http://www.w3.org/2000/svg" viewBox="0 0 256 256"><path d="M111.244 24.037A8 8 0 0 0 104 32v80L52.8 73.6a8 8 0 0 0-5.93-1.52 8 8 0 0 0-5.27 3.12 8 8 0 0 0 1.6 11.2L98.665 128l-55.467 41.6a8 8 0 0 0-1.6 11.2 8 8 0 0 0 11.202 1.6L104 144v80a8 8 0 0 0 12.8 6.4l64-48a8 8 0 0 0 0-12.8L125.335 128l23.467-17.6a8 8 0 0 0 1.6-11.2 8 8 0 0 0-11.202-1.6L120 112V48l19.2 14.4a8 8 0 0 0 11.2-1.6 8 8 0 0 0-1.6-11.2l-32-24a8 8 0 0 0-5.556-1.563zM184 48a8 8 0 0 0-5.656 2.344 8 8 0 0 0 0 11.312L196.688 80l-18.344 18.344a8 8 0 0 0 0 11.312 8 8 0 0 0 11.312 0L208 91.312l18.344 18.344a8 8 0 0 0 11.312 0 8 8 0 0 0 0-11.312L219.312 80l18.344-18.344a8 8 0 0 0 0-11.312A8 8 0 0 0 232 48a8 8 0 0 0-5.656 2.344L208 68.688l-18.344-18.344A8 8 0 0 0 184 48z"/></svg>