<svg xmlns="http://www.w3.org/2000/svg" viewBox="0 0 256 256"><path d="M128 12a12 12 0 0 0-12 12v12H64c-10.904 0-20 9.096-20 20v47.355l-10.324 3.442v-.002C25.552 109.503 19.999 117.209 20 125.77V152c0 17.429 7.663 32.433 18.031 44.098C48.4 207.762 61.492 216.62 74.285 223.55c25.586 13.859 50.805 20.092 50.805 20.092a12 12 0 0 0 5.82 0s25.219-6.233 50.805-20.092c12.793-6.93 25.885-15.789 36.254-27.453S236 169.428 236 152v-26.23c0-8.563-5.553-16.267-13.676-18.975v.002L212 103.355V56c0-10.904-9.096-20-20-20h-52V24a12 12 0 0 0-12-12zM68 60h120v35.354l-56.205-18.739-.074-.011A12 12 0 0 0 128 76a12 12 0 0 0-3.482.564 12 12 0 0 0-.313.051L68 95.354zm48 44.648V168a12 12 0 0 0 12 12 12 12 0 0 0 12-12v-63.352l72 24.004V152c0 10.571-4.337 19.567-11.969 28.152s-18.539 16.227-29.746 22.297c-20.115 10.896-38.31 15.939-42.285 17.006-3.974-1.067-22.17-6.11-42.285-17.006-11.207-6.07-22.115-13.711-29.746-22.297S44 162.572 44 152v-23.348z"/></svg>