<svg xmlns="http://www.w3.org/2000/svg" viewBox="0 0 256 256"><path d="M182.648 20.066a19.5 19.5 0 0 0-4.005.426l-.01.002-46.81 10-.083.018c-4.442.981-8.224 3.45-10.974 6.752C117.169 31.736 110.947 28 104 28H56c-10.872 0-20 9.128-20 20v160c0 10.872 9.128 20 20 20h48c10.872 0 20-9.128 20-20V90.23l5.709 27.145.008.076.021.067 14.086 66.974.004.03.01.027 5.77 27.433c2.21 10.725 13.039 17.804 23.75 15.526l.01-.002 46.81-10 .082-.018c10.634-2.35 17.57-13.14 15.297-23.789l-5.815-27.64-14.07-66.903-.03-.168-.017-.05-7.437-35.364-.016-.095-.01-.03-5.77-27.431c-1.934-9.385-10.465-15.977-19.744-15.952zm-2.933 24.739 2.517 11.974-38.98 8.375-2.527-12.02zM60 52h40v12H60zm127.174 28.266 2.53 12.023-38.983 8.375-2.528-12.021zM60 88h40v80H60zm134.643 27.775 9.166 43.582-38.983 8.377-9.166-43.584zm14.105 67.07 2.527 12.02-38.99 8.33-2.517-11.974zM60 192h40v12H60z"/></svg>