<svg xmlns="http://www.w3.org/2000/svg" viewBox="0 0 256 256"><path d="M84.682 20.02a12 12 0 0 0-12.211 8.65 12 12 0 0 0 7.252 14.101c-.353 1.075-1.449 3.508-4.797 7.377-5.31 6.136-8.685 11.811-10.168 17.809s-.47 12.39 2.097 16.84C71.99 93.696 80.67 95.529 80.67 95.529a12 12 0 0 0 14.86-8.199 12 12 0 0 0-7.122-14.389c.435-1.185 1.518-3.452 4.666-7.09 5.31-6.135 8.685-11.81 10.168-17.808s.47-12.39-2.097-16.84C96.01 22.304 87.33 20.471 87.33 20.471a12 12 0 0 0-2.648-.451zm44 0a12 12 0 0 0-12.211 8.65 12 12 0 0 0 7.252 14.101c-.353 1.075-1.449 3.508-4.797 7.377-5.31 6.136-8.685 11.811-10.168 17.809s-.47 12.39 2.097 16.84c5.135 8.899 13.815 10.732 13.815 10.732a12 12 0 0 0 14.86-8.199 12 12 0 0 0-7.122-14.389c.435-1.185 1.518-3.452 4.666-7.09 5.31-6.135 8.685-11.81 10.168-17.808s.47-12.39-2.097-16.84c-5.135-8.899-13.815-10.732-13.815-10.732a12 12 0 0 0-2.648-.451zm44 0a12 12 0 0 0-12.211 8.65 12 12 0 0 0 7.252 14.101c-.353 1.075-1.449 3.508-4.797 7.377-5.31 6.136-8.685 11.811-10.168 17.809s-.47 12.39 2.097 16.84c5.135 8.899 13.815 10.732 13.815 10.732a12 12 0 0 0 14.86-8.199 12 12 0 0 0-7.122-14.389c.435-1.185 1.518-3.452 4.666-7.09 5.31-6.135 8.685-11.81 10.168-17.808s.47-12.39-2.097-16.84c-5.135-8.899-13.815-10.732-13.815-10.732a12 12 0 0 0-2.648-.451zM32 108a12 12 0 0 0-12 11.996c-.012 39.585 21.657 75.83 56 94.692V216c0 10.904 9.096 20 20 20h64c10.904 0 20-9.096 20-20v-1.312c34.343-18.863 56.012-55.107 56-94.692A12 12 0 0 0 224 108zm12.865 24h166.27A83.92 83.92 0 0 1 163 196.39a12 12 0 0 0-7 10.91v4.7h-56v-4.7a12 12 0 0 0-7-10.91A83.92 83.92 0 0 1 44.865 132z"/></svg>