<svg xmlns="http://www.w3.org/2000/svg" viewBox="0 0 256 256"><path d="M128 20c-46.6 0-85.275 34.97-91.19 80H32a12 12 0 0 0-12 11.996c-.012 39.585 21.657 75.83 56 94.692V208c0 10.904 9.096 20 20 20h64c10.904 0 20-9.096 20-20v-1.312c34.343-18.863 56.012-55.107 56-94.692A12 12 0 0 0 224 100h-4.81c-2.052-15.62-8.035-30.026-16.938-42.184a12 12 0 0 0-.213-.298 93 93 0 0 0-16.943-17.538 12 12 0 0 0-2.217-1.736C167.539 26.794 148.538 20 128 20zm0 24c.806 0 1.603.033 2.402.06C106.938 54.6 88.44 74.737 80.37 100H61.064C66.697 68.077 94.402 44 128 44zm39.994 16c.784 0 1.568.038 2.352.064A92.2 92.2 0 0 0 127.196 100h-21.192a67.87 67.87 0 0 1 61.99-40zm19.6 19.125A67.6 67.6 0 0 1 194.936 100h-38.784a68.1 68.1 0 0 1 31.442-20.875zM44.865 124h166.27A83.92 83.92 0 0 1 163 188.39a12 12 0 0 0-7 10.91v4.7h-56v-4.7a12 12 0 0 0-7-10.91A83.92 83.92 0 0 1 44.865 124z"/></svg>