<svg xmlns="http://www.w3.org/2000/svg" viewBox="0 0 256 256"><path d="M56 28a12 12 0 0 0-10.732 6.633l-16 32A12 12 0 0 0 28 72v136c0 10.904 9.096 20 20 20h160c10.904 0 20-9.096 20-20V72a12 12 0 0 0-1.268-5.367l-16-32A12 12 0 0 0 200 28zm7.416 24h129.168l6 12H57.416zM52 88h152v116H52zm76 12a12 12 0 0 0-12 12v39.031l-11.516-11.515A12 12 0 0 0 96 136a12 12 0 0 0-8.484 3.516 12 12 0 0 0 0 16.968l32 32a12 12 0 0 0 .445.342 12 12 0 0 0 1.49 1.143 12 12 0 0 0 .906.57 12 12 0 0 0 1.875.777 12 12 0 0 0 .86.3A12 12 0 0 0 128 192a12 12 0 0 0 2.908-.385 12 12 0 0 0 .86-.299 12 12 0 0 0 1.875-.777 12 12 0 0 0 .906-.57 12 12 0 0 0 1.49-1.143 12 12 0 0 0 .445-.342l32-32a12 12 0 0 0 0-16.968 12 12 0 0 0-16.968 0L140 151.03V112a12 12 0 0 0-12-12z"/></svg>