<svg xmlns="http://www.w3.org/2000/svg" viewBox="0 0 256 256"><path d="M56 28a12 12 0 0 0-10.732 6.633l-16 32A12 12 0 0 0 28 72v136c0 10.904 9.096 20 20 20h160c10.904 0 20-9.096 20-20V72a12 12 0 0 0-1.268-5.367l-16-32A12 12 0 0 0 200 28zm7.416 24h129.168l6 12H57.416zM52 88h152v116H52zm76 12a12 12 0 0 0-2.908.385 12 12 0 0 0-.86.299 12 12 0 0 0-1.875.777 12 12 0 0 0-.906.57 12 12 0 0 0-1.49 1.143 12 12 0 0 0-.445.342l-32 32a12 12 0 0 0 0 16.968 12 12 0 0 0 16.968 0L116 140.97V180a12 12 0 0 0 12 12 12 12 0 0 0 12-12v-39.031l11.516 11.515a12 12 0 0 0 16.968 0 12 12 0 0 0 0-16.968l-32-32-.058-.045a12 12 0 0 0-2.371-1.819l-.108-.064a12 12 0 0 0-2.8-1.16l-.07-.022A12 12 0 0 0 128 100z"/></svg>