<svg xmlns="http://www.w3.org/2000/svg" viewBox="0 0 256 256"><path d="M56 32a8 8 0 0 0-7.156 4.422l-16 32a8 8 0 0 0-.06.258A8 8 0 0 0 32 72v136c0 8.742 7.258 16 16 16h160c8.742 0 16-7.258 16-16V72a8 8 0 0 0-.082-1.139l-.002-.007a8 8 0 0 0-.236-1.088l-.012-.04a8 8 0 0 0-.39-1.05l-.003-.006a8 8 0 0 0-.119-.248l-16-32A8 8 0 0 0 200 32zm4.943 16h134.114l8 16H52.943zM48 80h160v128H48zm80 16a8 8 0 0 0-5.656 2.344l-32 32a8 8 0 0 0 0 11.312 8 8 0 0 0 11.312 0L120 123.312V184a8 8 0 0 0 8 8 8 8 0 0 0 8-8v-60.687l18.344 18.343a8 8 0 0 0 11.312 0 8 8 0 0 0 0-11.312l-32-32a8 8 0 0 0-1.601-1.229l-.108-.064a8 8 0 0 0-1.83-.758l-.113-.027A8 8 0 0 0 128 96z"/></svg>