<svg xmlns="http://www.w3.org/2000/svg" viewBox="0 0 256 256"><path d="M70.822 32.088a8 8 0 0 0-2.937 1.053S56.328 40.177 45.49 55.35 24 94.333 24 128s10.652 57.477 21.49 72.65 22.395 22.21 22.395 22.21a8 8 0 0 0 10.974-2.745 8 8 0 0 0-2.744-10.974s-8.443-4.964-17.605-17.791S40 158.333 40 128s9.348-50.523 18.51-63.35 17.605-17.79 17.605-17.79a8 8 0 0 0 2.744-10.975 8 8 0 0 0-4.92-3.647 8 8 0 0 0-3.117-.15zm114.356 0a8 8 0 0 0-3.117.15 8 8 0 0 0-4.92 3.647 8 8 0 0 0 2.744 10.974s8.443 4.964 17.605 17.791S216 97.667 216 128s-9.348 50.523-18.51 63.35-17.605 17.79-17.605 17.79a8 8 0 0 0-2.744 10.975 8 8 0 0 0 10.974 2.744s11.557-7.036 22.395-22.209S232 161.667 232 128s-10.652-57.477-21.49-72.65-22.395-22.21-22.395-22.21a8 8 0 0 0-2.937-1.052z"/></svg>