<svg xmlns="http://www.w3.org/2000/svg" viewBox="0 0 256 256"><path d="M54.23 32a8 8 0 0 0-6.707 3.639C37.261 51.417 32.112 69.535 32.06 87.709A8 8 0 0 0 32 88a8 8 0 0 0 .055.273c.046 15.621 3.848 31.265 11.562 45.485C59.118 162.33 87.956 180.926 120 183.605V216H88a8 8 0 0 0-8 8 8 8 0 0 0 8 8h80a8 8 0 0 0 8-8 8 8 0 0 0-8-8h-32v-32.395c32.044-2.679 60.882-21.275 76.383-49.847 7.714-14.22 11.516-29.864 11.562-45.485A8 8 0 0 0 224 88a8 8 0 0 0-.062-.86c-.16-17.982-5.306-35.887-15.461-51.501A8 8 0 0 0 201.77 32zm4.676 16h138.188a80.4 80.4 0 0 1 10.369 32H48.537a80.4 80.4 0 0 1 10.37-32zM48.475 96h159.05a79.2 79.2 0 0 1-9.207 30.127A79.97 79.97 0 0 1 128 167.977a79.97 79.97 0 0 1-70.318-41.85A79.2 79.2 0 0 1 48.475 96z"/></svg>