<svg xmlns="http://www.w3.org/2000/svg" viewBox="0 0 256 256"><path d="M48 36C23.842 36 4 55.842 4 80c0 16.971 9.798 31.8 24 39.129V200c0 10.904 9.096 20 20 20h152c10.904 0 20-9.096 20-20v-80.871C234.202 111.8 244 96.97 244 80c0-24.158-19.842-44-44-44zm0 24h92c11.188 0 20 8.812 20 20s-8.812 20-20 20a12 12 0 0 0-12 12 12 12 0 0 0 8 11.264V196H52v-72.736A12 12 0 0 0 60 112a12 12 0 0 0-12-12c-11.188 0-20-8.812-20-20s8.812-20 20-20zm131.129 0H200c11.188 0 20 8.812 20 20s-8.812 20-20 20a12 12 0 0 0-12 12 12 12 0 0 0 8 11.264V196h-36v-76.871C174.202 111.8 184 96.97 184 80a43.5 43.5 0 0 0-4.871-20z"/></svg>