<svg xmlns="http://www.w3.org/2000/svg" viewBox="0 0 256 256"><path d="M56 20a12 12 0 0 0-8.484 3.516 12 12 0 0 0 0 16.968l11.17 11.172C44.58 67.832 36 88.941 36 112v40c0 50.668 41.332 92 92 92s92-41.332 92-92v-40c0-23.06-8.58-44.168-22.686-60.344l11.17-11.172a12 12 0 0 0 0-16.968A12 12 0 0 0 200 20a12 12 0 0 0-8.484 3.516l-12.2 12.197C164.64 25.799 146.976 20 128 20s-36.64 5.8-51.316 15.713l-12.2-12.197A12 12 0 0 0 56 20zm72 24c16.761 0 32.051 6.001 43.875 15.969l.07.086a12 12 0 0 0 .553.453C186.904 72.954 196 91.362 196 112v4H60v-4c0-20.638 9.096-39.046 23.502-51.492a12 12 0 0 0 .553-.453l.123-.131C95.994 49.983 111.264 44 128 44zm-28 28a16 16 0 0 0-16 16 16 16 0 0 0 16 16 16 16 0 0 0 16-16 16 16 0 0 0-16-16zm56 0a16 16 0 0 0-16 16 16 16 0 0 0 16 16 16 16 0 0 0 16-16 16 16 0 0 0-16-16zm-96 68h136v12c0 37.697-30.303 68-68 68s-68-30.303-68-68z"/></svg>