<svg xmlns="http://www.w3.org/2000/svg" viewBox="0 0 256 256"><path d="M80 32a8 8 0 0 0-8 8v56H32a8 8 0 0 0-8 8v104h-8a8 8 0 0 0-8 8 8 8 0 0 0 8 8h224a8 8 0 0 0 8-8 8 8 0 0 0-8-8h-8V72a8 8 0 0 0-8-8h-40V40a8 8 0 0 0-8-8zm8 16h80v24a8 8 0 0 0 8 8h40v128h-64v-40a8 8 0 0 0-8-8h-32a8 8 0 0 0-8 8v40H40v-96h40a8 8 0 0 0 8-8zm32 16a8 8 0 0 0-8 8 8 8 0 0 0 8 8h16a8 8 0 0 0 8-8 8 8 0 0 0-8-8zm0 32a8 8 0 0 0-8 8 8 8 0 0 0 8 8h16a8 8 0 0 0 8-8 8 8 0 0 0-8-8zm56 0a8 8 0 0 0-8 8 8 8 0 0 0 8 8h16a8 8 0 0 0 8-8 8 8 0 0 0-8-8zM64 128a8 8 0 0 0-8 8 8 8 0 0 0 8 8h16a8 8 0 0 0 8-8 8 8 0 0 0-8-8zm56 0a8 8 0 0 0-8 8 8 8 0 0 0 8 8h16a8 8 0 0 0 8-8 8 8 0 0 0-8-8zm56 0a8 8 0 0 0-8 8 8 8 0 0 0 8 8h16a8 8 0 0 0 8-8 8 8 0 0 0-8-8zM64 160a8 8 0 0 0-8 8 8 8 0 0 0 8 8h16a8 8 0 0 0 8-8 8 8 0 0 0-8-8zm112 0a8 8 0 0 0-8 8 8 8 0 0 0 8 8h16a8 8 0 0 0 8-8 8 8 0 0 0-8-8zm-56 16h16v32h-16z"/></svg>