<svg xmlns="http://www.w3.org/2000/svg" viewBox="0 0 256 256"><path d="M150.918 12.12c-2.479.08-4.98.644-7.383 1.767l-.006.002-.004.002-103.99 48.535-.01.004C32.516 65.709 27.996 72.816 28 80.555V204H16a12 12 0 0 0-12 12 12 12 0 0 0 12 12h224a12 12 0 0 0 12-12 12 12 0 0 0-12-12h-12V96c0-10.904-9.096-20-20-20h-36V31.99c-.008-10.622-8.805-18.868-18.615-19.795a19 19 0 0 0-2.467-.076zM148 38.29V204H52V83.094zM80 100a12 12 0 0 0-12 12v12a12 12 0 0 0 12 12 12 12 0 0 0 12-12v-12a12 12 0 0 0-12-12zm40 0a12 12 0 0 0-12 12v12a12 12 0 0 0 12 12 12 12 0 0 0 12-12v-12a12 12 0 0 0-12-12zm52 0h32v104h-32zm-92 52a12 12 0 0 0-12 12v12a12 12 0 0 0 12 12 12 12 0 0 0 12-12v-12a12 12 0 0 0-12-12zm40 0a12 12 0 0 0-12 12v12a12 12 0 0 0 12 12 12 12 0 0 0 12-12v-12a12 12 0 0 0-12-12z"/></svg>