<svg xmlns="http://www.w3.org/2000/svg" viewBox="0 0 256 256"><path d="M40 28a12 12 0 0 0-12 12 12 12 0 0 0 8 11.264V204H24a12 12 0 0 0-12 12 12 12 0 0 0 12 12h220a12 12 0 0 0 12-12 12 12 0 0 0-12-12h-12V99.234A12 12 0 0 0 240 88a12 12 0 0 0-12-12h-40V51.264A12 12 0 0 0 196 40a12 12 0 0 0-12-12zm20 24h104v152h-16v-44a12 12 0 0 0-12-12H88a12 12 0 0 0-12 12v44H60zm24 16a12 12 0 0 0-12 12 12 12 0 0 0 12 12h8a12 12 0 0 0 12-12 12 12 0 0 0-12-12zm48 0a12 12 0 0 0-12 12 12 12 0 0 0 12 12h8a12 12 0 0 0 12-12 12 12 0 0 0-12-12zm56 32h20v104h-20zm-104 8a12 12 0 0 0-12 12 12 12 0 0 0 12 12h8a12 12 0 0 0 12-12 12 12 0 0 0-12-12zm48 0a12 12 0 0 0-12 12 12 12 0 0 0 12 12h8a12 12 0 0 0 12-12 12 12 0 0 0-12-12zm-32 64h24v32h-24z"/></svg>