<svg xmlns="http://www.w3.org/2000/svg" viewBox="0 0 256 256"><path d="M24 40c-8.742 0-16 7.258-16 16v96.13c-4.998 6.677-8 14.926-8 23.87 0 22.022 17.978 40 40 40h120c19.283 0 35.463-13.786 39.19-32H216v8c0 13.16 10.84 24 24 24h8a8 8 0 0 0 8-8 8 8 0 0 0-8-8h-8c-4.513 0-8-3.487-8-8v-32c0-4.513 3.487-8 8-8h8a8 8 0 0 0 8-8 8 8 0 0 0-8-8h-8c-13.16 0-24 10.84-24 24v8h-16.81c-3.365-16.444-16.893-29.233-33.678-31.572l-36.076-86.584-.002-.004c-2.477-5.936-8.329-9.837-14.76-9.84zm90.666 15.996.002.004L148 136H64V56h50.666zM24 56h24v80h-8a39.65 39.65 0 0 0-16 3.375zm16 96h120c13.434 0 24 10.566 24 24s-10.566 24-24 24H40c-13.434 0-24-10.566-24-24 0-5.899 2.039-11.242 5.46-15.383a8 8 0 0 0 .41-.449C26.24 155.148 32.686 152 40 152zm0 16a8 8 0 0 0-8 8 8 8 0 0 0 8 8h120a8 8 0 0 0 8-8 8 8 0 0 0-8-8z"/></svg>