<svg xmlns="http://www.w3.org/2000/svg" viewBox="0 0 256 256"><path d="M72 32c-17.578 0-32 14.422-32 32v144c0 8.742 7.258 16 16 16h24c8.742 0 16-7.258 16-16v-16h64v16c0 8.742 7.258 16 16 16h24c8.742 0 16-7.258 16-16V64c0-17.578-14.422-32-32-32zm0 16h112c8.931 0 16 7.069 16 16H56c0-8.931 7.069-16 16-16zM16 72a8 8 0 0 0-8 8v24a8 8 0 0 0 8 8 8 8 0 0 0 8-8V80a8 8 0 0 0-8-8zm224 0a8 8 0 0 0-8 8v24a8 8 0 0 0 8 8 8 8 0 0 0 8-8V80a8 8 0 0 0-8-8zM56 80h144v24H56zm0 40h144v56H56zm36 16a12 12 0 0 0-12 12 12 12 0 0 0 12 12 12 12 0 0 0 12-12 12 12 0 0 0-12-12zm72 0a12 12 0 0 0-12 12 12 12 0 0 0 12 12 12 12 0 0 0 12-12 12 12 0 0 0-12-12zM56 192h24v16H56zm120 0h24v16h-24z"/></svg>