<svg xmlns="http://www.w3.org/2000/svg" viewBox="0 0 256 256"><path d="M47.07 40c-9.52 0-17.772 3.464-22.95 9.525-5.18 6.061-7.23 13.757-7.886 21.723-1.31 15.932 2.786 34.258 6.891 50.43l.002.002c4.349 17.118 13.15 27.53 22.357 32.853 2.76 1.595 5.484 2.705 8.104 3.526a44 44 0 0 0-3.672 8.283c-5.341 16.535-.45 34.72 12.467 46.344s31.513 14.58 47.396 7.533c7.538-3.345 13.757-8.696 18.278-15.21 4.514 6.433 10.69 11.715 18.166 15.016 15.83 6.992 34.347 4.033 47.21-7.545 12.864-11.577 17.75-29.678 12.46-46.156a44 44 0 0 0-3.623-8.22c2.663-.824 5.436-1.947 8.246-3.57 9.206-5.323 18.008-15.736 22.357-32.854l.002-.002c4.105-16.172 8.202-34.498 6.89-50.43-.655-7.966-2.706-15.662-7.884-21.723S218.45 40 208.93 40c-19.719 0-40.532 13.315-57.787 30.16-5.534 5.403-10.675 11.2-15.143 17.235V56a8 8 0 0 0-8-8 8 8 0 0 0-8 8v31.395c-4.468-6.035-9.609-11.832-15.143-17.235C87.602 53.315 66.79 40 47.07 40zm0 16c11.572 0 31.223 10.586 46.61 25.607C109.067 96.63 120 115.888 120 127.67V180a28.07 28.07 0 0 1-16.709 25.594 28.07 28.07 0 0 1-30.205-4.801 28.07 28.07 0 0 1-7.945-29.533 28.07 28.07 0 0 1 23.72-19.307 8 8 0 0 0 7.092-8.814 8 8 0 0 0-8.814-7.092 44.04 44.04 0 0 0-20.797 7.914c-3.203.017-8.07-.516-12.85-3.28-5.495-3.177-11.346-9.119-14.857-22.939-3.985-15.698-7.44-33.226-6.455-45.181.492-5.978 2.05-10.236 4.105-12.641S40.945 56 47.07 56zm161.86 0c6.124 0 8.73 1.515 10.785 3.92s3.613 6.663 4.105 12.64c.984 11.956-2.47 29.484-6.455 45.182-3.511 13.82-9.362 19.762-14.857 22.94-4.844 2.8-9.78 3.312-12.977 3.279a43.9 43.9 0 0 0-20.642-7.912 8 8 0 0 0-8.84 7.062 8 8 0 0 0 7.062 8.84 27.95 27.95 0 0 1 23.547 19.264 27.96 27.96 0 0 1-7.93 29.373 27.95 27.95 0 0 1-30.04 4.803A27.96 27.96 0 0 1 136 179.95v-52.28c0-11.782 10.933-31.04 26.32-46.063C177.707 66.586 197.358 56 208.93 56z"/></svg>