<svg xmlns="http://www.w3.org/2000/svg" viewBox="0 0 256 256"><path d="M128 0a8 8 0 0 0-4.437 1.344S96 18.667 96 48c0 14.819 10.25 27.394 24 30.977V88H48c-13.16 0-24 10.84-24 24v23.33c0 8.993 2.983 17.41 8 24.246V200c0 13.16 10.84 24 24 24h144c13.16 0 24-10.84 24-24v-40.424c5.017-6.836 8-15.254 8-24.246V112c0-13.16-10.84-24-24-24h-72v-9.023c13.75-3.583 24-16.158 24-30.977 0-29.333-27.562-46.656-27.562-46.656A8 8 0 0 0 128 0zm0 18.496c5.99 5.443 16 16.33 16 29.504 0 8.931-7.069 16-16 16s-16-7.069-16-16c0-13.174 10.01-24.061 16-29.504zM48 104h160c4.513 0 8 3.487 8 8v23.33c0 13.26-10.28 24.303-23.32 24.662l-.004.002c-13.618.383-24.677-10.37-24.676-23.994a8 8 0 0 0-16 0c0 13.35-10.65 24-24 24s-24-10.65-24-24v-.004A8 8 0 0 0 88 136v.004c.005 13.626-11.055 24.383-24.676 24C50.282 159.637 40 148.59 40 135.33V112c0-4.513 3.487-8 8-8zm111.986 55.723c7.531 10.11 19.618 16.644 33.139 16.263A38.95 38.95 0 0 0 208 172.582V200c0 4.513-3.487 8-8 8H56c-4.513 0-8-3.487-8-8v-27.414a39 39 0 0 0 14.875 3.41c13.523.38 25.61-6.156 33.14-16.27C103.326 169.534 114.905 176 128 176c13.098 0 24.678-6.469 31.986-16.277z"/></svg>