<svg xmlns="http://www.w3.org/2000/svg" viewBox="0 0 256 256"><path d="M56 20c-10.872 0-20 9.128-20 20v176c0 10.872 9.128 20 20 20h144c10.872 0 20-9.128 20-20V40c0-10.872-9.128-20-20-20zm4 24h136v168H60Z"/><path d="M92 64a12 12 0 0 0-12 12 12 12 0 0 0 12 12h72a12 12 0 0 0 12-12 12 12 0 0 0-12-12Zm12 48a16 16 0 0 0-16 16 16 16 0 0 0 16 16 16 16 0 0 0 16-16 16 16 0 0 0-16-16zm48 0a16 16 0 0 0-16 16 16 16 0 0 0 16 16 16 16 0 0 0 16-16 16 16 0 0 0-16-16zm-48 48a16 16 0 0 0-16 16 16 16 0 0 0 16 16 16 16 0 0 0 16-16 16 16 0 0 0-16-16zm48 0a16 16 0 0 0-16 16 16 16 0 0 0 16 16 16 16 0 0 0 16-16 16 16 0 0 0-16-16z"/></svg>