<svg xmlns="http://www.w3.org/2000/svg" viewBox="0 0 256 256"><path d="M80 12a12 12 0 0 0-12 12v4H48c-10.872 0-20 9.128-20 20v160c0 10.872 9.128 20 20 20h160c10.872 0 20-9.128 20-20V48c0-10.872-9.128-20-20-20h-20v-4a12 12 0 0 0-12-12 12 12 0 0 0-12 12v4H92v-4a12 12 0 0 0-12-12zM52 52h16a12 12 0 0 0 12 12 12 12 0 0 0 12-12h72a12 12 0 0 0 12 12 12 12 0 0 0 12-12h16v152H52zm75.07 24.04a12 12 0 0 0-3.607.853 12 12 0 0 0-6.48 6.353l-10.481 24.285-27.424 2.114a12.001 12.001 0 0 0-6.719 21.218l20.579 16.992-6.256 25.26a12.001 12.001 0 0 0 17.734 13.227L128 172.465l23.584 13.877a12.001 12.001 0 0 0 17.734-13.227l-6.256-25.26 20.579-16.992a12.001 12.001 0 0 0-6.72-21.218l-27.423-2.114-10.48-24.285a12 12 0 0 0-11.948-7.207zm.93 42.25 2.332 5.403a12 12 0 0 0 10.096 7.211l5.002.385-3.471 2.867a12 12 0 0 0-4.008 12.139l1.211 4.889-5.076-2.987a12 12 0 0 0-12.172 0l-5.076 2.987 1.21-4.89a12 12 0 0 0-4.007-12.138l-3.47-2.867 5.001-.385a12 12 0 0 0 10.096-7.21z"/></svg>