<svg xmlns="http://www.w3.org/2000/svg" viewBox="0 0 256 256"><path d="M100.273 28a20.04 20.04 0 0 0-16.625 8.9l-.002.002L73.578 52H48c-15.322 0-28 12.678-28 28v112c0 15.322 12.678 28 28 28h160c15.322 0 28-12.678 28-28V80c0-15.322-12.678-28-28-28h-25.578l-10.068-15.098-.002-.002a20.04 20.04 0 0 0-16.625-8.9zm2.15 24h51.153l12.44 18.658A12 12 0 0 0 176 76h32c2.351 0 4 1.649 4 4v112c0 2.351-1.649 4-4 4H48c-2.351 0-4-1.649-4-4V80c0-2.351 1.649-4 4-4h32a12 12 0 0 0 9.984-5.342zM128 92a12 12 0 0 0-12 12v20H96a12 12 0 0 0-12 12 12 12 0 0 0 12 12h20v20a12 12 0 0 0 12 12 12 12 0 0 0 12-12v-20h20a12 12 0 0 0 12-12 12 12 0 0 0-12-12h-20v-20a12 12 0 0 0-12-12z"/></svg>