<svg xmlns="http://www.w3.org/2000/svg" viewBox="0 0 256 256"><path d="M64 40c-8.742 0-16 7.258-16 16v16H32c-8.726 0-16 7.274-16 16v96c0 8.726 7.274 16 16 16h192c8.726 0 16-7.274 16-16V88c0-8.726-7.274-16-16-16h-16V56c0-8.742-7.258-16-16-16h-32c-8.742 0-16 7.258-16 16v16h-32V56c0-8.742-7.258-16-16-16zm0 16h32v16H64zm96 0h32v16h-32zM32 88h192v96H32zm136 24a8 8 0 0 0-8 8v8h-8a8 8 0 0 0-8 8 8 8 0 0 0 8 8h8v8a8 8 0 0 0 8 8 8 8 0 0 0 8-8v-8h8a8 8 0 0 0 8-8 8 8 0 0 0-8-8h-8v-8a8 8 0 0 0-8-8zm-96 16a8 8 0 0 0-8 8 8 8 0 0 0 8 8h32a8 8 0 0 0 8-8 8 8 0 0 0-8-8z"/></svg>