<svg xmlns="http://www.w3.org/2000/svg" viewBox="0 0 256 256"><path d="M128 24C70.657 24 24 70.657 24 128s46.657 104 104 104 104-46.657 104-104S185.343 24 128 24zm0 16c48.696 0 88 39.304 88 88s-39.304 88-88 88-88-39.304-88-88 39.304-88 88-88zm0 32a8 8 0 0 0-5.656 2.344l-32 32a8 8 0 0 0 0 11.312 8 8 0 0 0 11.312 0L128 91.312l26.344 26.344a8 8 0 0 0 11.312 0 8 8 0 0 0 0-11.312l-32-32A8 8 0 0 0 128 72zm0 56a8 8 0 0 0-5.656 2.344l-32 32a8 8 0 0 0 0 11.312 8 8 0 0 0 11.312 0L128 147.312l26.344 26.344a8 8 0 0 0 11.312 0 8 8 0 0 0 0-11.312l-32-32A8 8 0 0 0 128 128z"/></svg>