<svg xmlns="http://www.w3.org/2000/svg" viewBox="0 0 256 256"><path d="M32 44c-10.872 0-20 9.128-20 20v128c0 10.872 9.128 20 20 20h192c10.872 0 20-9.128 20-20V64c0-10.872-9.128-20-20-20zm4 24h184v120h-37l-12.6-16.8a8 8 0 0 0-6.4-3.2H92a8 8 0 0 0-6.4 3.2L73 188H36zm46 16c-18.636 0-34 15.364-34 34s15.364 34 34 34h92c18.636 0 34-15.364 34-34s-15.364-34-34-34zm0 24c5.665 0 10 4.335 10 10s-4.335 10-10 10-10-4.335-10-10 4.335-10 10-10zm32.477 0h27.046A33.5 33.5 0 0 0 140 118c0 3.473.535 6.833 1.523 10h-27.046A33.5 33.5 0 0 0 116 118c0-3.473-.535-6.833-1.523-10zM174 108c5.665 0 10 4.335 10 10s-4.335 10-10 10-10-4.335-10-10 4.335-10 10-10z"/></svg>