<svg xmlns="http://www.w3.org/2000/svg" viewBox="0 0 256 256"><path d="M39.951 28.064q-1.087-.005-2.156.102c-1.9.19-3.745.645-5.451 1.352C25.519 32.345 19.994 39.605 20 48.01V136c0 55.678 49.053 100 108 100s108-44.322 108-100V47.979c-.014-8.396-5.545-15.635-12.367-18.452-6.822-2.816-15.85-1.588-21.783 4.352a12 12 0 0 0-.567.61L186.164 51.88c-10.661-6.265-22.105-10.623-33.853-13.162a12 12 0 0 0-4.1-.801 115.1 115.1 0 0 0-40.615.031 12 12 0 0 0-3.627.705c-11.846 2.53-23.384 6.911-34.13 13.225L54.722 34.47a12 12 0 0 0-.57-.612c-3.899-3.902-9.133-5.77-14.2-5.795zM44 58.73l14.541 16.74a12 12 0 0 0 16.105 1.845c6.69-4.853 13.889-8.625 21.354-11.44V88a12 12 0 0 0 12 12 12 12 0 0 0 12-12V60.367a91 91 0 0 1 16 0V88a12 12 0 0 0 12 12 12 12 0 0 0 12-12V65.875c7.465 2.815 14.663 6.587 21.354 11.44a12 12 0 0 0 16.103-1.842L212 58.743V136c0 37.918-30.818 69.946-72 75.223v-14.254l12.484-12.485a12 12 0 0 0 0-16.968 12 12 0 0 0-16.968 0L128 175.03l-7.516-7.515A12 12 0 0 0 112 164a12 12 0 0 0-8.484 3.516 12 12 0 0 0 0 16.968L116 196.97v14.254C74.818 205.946 44 173.918 44 136zM84 124a16 16 0 0 0-16 16 16 16 0 0 0 16 16 16 16 0 0 0 16-16 16 16 0 0 0-16-16zm88 0a16 16 0 0 0-16 16 16 16 0 0 0 16 16 16 16 0 0 0 16-16 16 16 0 0 0-16-16z"/></svg>