<svg xmlns="http://www.w3.org/2000/svg" viewBox="0 0 256 256"><path d="M128 8.01c-30.328 0-58.085 17.182-71.607 44.328-13.523 27.146-10.518 59.654 7.752 83.861a8 8 0 0 0 11.205 1.567 8 8 0 0 0 1.566-11.205 63.96 63.96 0 0 1-6.203-67.088A63.96 63.96 0 0 1 128 24.01a63.96 63.96 0 0 1 57.287 35.463 63.96 63.96 0 0 1-6.203 67.088 8 8 0 0 0 1.566 11.205 8 8 0 0 0 11.205-1.567c18.27-24.207 21.275-56.715 7.752-83.861S158.327 8.01 128 8.01zm0 32.033c-29.772 0-52.537 27.257-47.232 56.553a8 8 0 0 0 9.296 6.447 8 8 0 0 0 6.448-9.299A31.836 31.836 0 0 1 128 56.043a31.836 31.836 0 0 1 31.488 37.701 8 8 0 0 0 6.448 9.299 8 8 0 0 0 9.296-6.447C180.537 67.3 157.772 40.043 128 40.043zM128 80a8 8 0 0 0-2.885.54 8 8 0 0 0-4.271 3.882l-72 144a8 8 0 0 0 3.578 10.734 8 8 0 0 0 10.734-3.578L76.946 208h102.109l13.789 27.578a8 8 0 0 0 10.734 3.578 8 8 0 0 0 3.578-10.734l-72-144A8 8 0 0 0 128 80zm0 25.89L155.055 160h-54.11zM92.945 176h70.11l8 16h-86.11z"/></svg>