<svg xmlns="http://www.w3.org/2000/svg" viewBox="0 0 256 256"><path d="M97.7 8a8 8 0 0 0-7.608 5.527s-13.245 40.51-17.07 81.733c-1.913 20.611-1.682 41.487 4.65 58.527 5.509 14.827 17.246 26.716 34.328 29.557V232H96a8 8 0 0 0-8 8 8 8 0 0 0 8 8h48a8 8 0 0 0 8-8 8 8 0 0 0-8-8h-16v-48.656c17.082-2.841 28.82-14.73 34.328-29.557 6.332-17.04 6.563-37.916 4.65-58.527-.769-8.29-1.928-16.533-3.275-24.442a8 8 0 0 0-.092-.521c-5.355-31.18-13.703-56.77-13.703-56.77A8 8 0 0 0 142.301 8zM196 8a12 12 0 0 0-12 12 12 12 0 0 0 12 12 12 12 0 0 0 12-12 12 12 0 0 0-12-12zm-92.363 16h32.726c2.168 7.29 6.335 22.204 9.828 40H93.81c3.493-17.796 7.66-32.71 9.828-40zM220 40a12 12 0 0 0-12 12 12 12 0 0 0 12 12 12 12 0 0 0 12-12 12 12 0 0 0-12-12zM91.06 80h57.88c.83 5.504 1.583 11.09 2.107 16.74 1.8 19.389 1.099 38.513-3.717 51.473S135.704 168 120 168s-22.515-6.827-27.33-19.787c-4.816-12.96-5.516-32.084-3.717-51.473.524-5.65 1.277-11.236 2.108-16.74zM196 88a12 12 0 0 0-12 12 12 12 0 0 0 12 12 12 12 0 0 0 12-12 12 12 0 0 0-12-12z"/></svg>