<svg xmlns="http://www.w3.org/2000/svg" viewBox="0 0 256 256"><path d="M128 24a8 8 0 0 0-8 8v56a8 8 0 0 0 7.998 8 31.93 31.93 0 0 1 30.902 23.723 31.93 31.93 0 0 1-14.916 35.986 31.93 31.93 0 0 1-38.623-5.084A31.93 31.93 0 0 1 100.277 112a8 8 0 0 0-2.927-10.928l-48.5-28A8 8 0 0 0 37.922 76c-14.097 24.416-17.293 52.718-10.438 78.639a8 8 0 0 0 .037.28 8 8 0 0 0 .125.304c4.63 17.1 13.63 33.143 26.8 46.312 19.935 19.936 46.446 30.343 73.26 30.426A8 8 0 0 0 128 232a8 8 0 0 0 .342-.045c17.702-.054 35.514-4.596 51.633-13.9 40.73-23.512 60.637-71.538 48.47-116.965C216.28 55.663 175.031 24.006 128 24zm8 16.385c36.453 3.307 67.374 28.94 76.99 64.844 10.313 38.505-6.486 79.039-41.013 98.97-11.313 6.53-23.591 10.254-35.977 11.389V175.28c5.516-.928 10.933-2.8 15.982-5.715 18.78-10.84 27.984-33.035 22.375-53.982-4.906-18.325-20.109-31.817-38.357-34.91zM48.11 91.119l34.894 20.145c-2.554 6.87-3.43 14.14-2.756 21.252l-38.975 10.44c-2.967-17.244-.8-35.327 6.836-51.837zm36.253 56.86a47.8 47.8 0 0 0 9.684 13.958c7.233 7.234 16.362 11.715 25.953 13.333v40.302c-19.972-1.819-39.27-10.38-54.24-25.351-9.24-9.24-16.01-20.144-20.307-31.82z"/></svg>