<svg xmlns="http://www.w3.org/2000/svg" viewBox="0 0 256 256"><path d="M128 20C68.496 20 20 68.496 20 128c0 19.475 5.222 37.754 14.297 53.557a12 12 0 0 0 .17.443 12 12 0 0 0 .293.361C53.527 214.4 88.3 236 128 236c59.505 0 108-48.495 108-108 0-19.196-5.07-37.231-13.904-52.877a12 12 0 0 0-.563-1.123 12 12 0 0 0-.34-.443C202.415 41.563 167.665 20 128 20zm-12 24.861v76.211l-66.031 38.121A84.1 84.1 0 0 1 44 128c0-42.456 31.193-77.346 72-83.139zm24 0c21.902 3.11 41.02 14.604 54.045 31.153L140 107.214zm66.031 51.946A84.1 84.1 0 0 1 212 128c0 46.534-37.466 84-84 84-26.865 0-50.689-12.503-66.045-32.014L134 138.393z"/></svg>