<svg xmlns="http://www.w3.org/2000/svg" viewBox="0 0 256 256"><path d="M126.918 23.94c-13.226.137-26.55 2.8-39.244 8.148a8 8 0 0 0-4.266 10.478 8 8 0 0 0 10.479 4.266c34.42-14.502 74.167-5.732 99.289 21.908 25.121 27.64 30.066 68.044 12.351 100.926a8 8 0 0 0 3.248 10.838 8 8 0 0 0 10.838-3.25c20.907-38.806 15.05-86.656-14.597-119.275-20.383-22.426-49.001-34.343-78.098-34.04zm-78.537 8.07a8 8 0 0 0-5.762 2.07 8 8 0 0 0-.539 11.3l10.272 11.3c-30.443 32.257-37.078 80.653-16.123 120.097l-11.397 34.15-.002.003c-4.012 12.031 8.209 24.252 20.24 20.24l34.164-11.395c36.25 19.252 80.395 15.353 112.582-9.685l10.264 11.29a8 8 0 0 0 11.3.54 8 8 0 0 0 .54-11.3l-15.225-16.749a8 8 0 0 0-.199-.256l-.103-.076L53.92 34.62a8 8 0 0 0-5.54-2.61zm14.764 36.543L181.008 198.2c-28.01 21.187-66.216 23.82-97.074 5.983a8 8 0 0 0-6.536-.663L40.01 215.99l12.469-37.358a8 8 0 0 0-.665-6.537C32.4 138.526 37.325 96.65 63.144 68.553z"/></svg>