<svg xmlns="http://www.w3.org/2000/svg" viewBox="0 0 256 256"><path d="M167.16 16.045a8 8 0 0 0-2.031.488 8 8 0 0 0-4.44 4.217 8 8 0 0 0 4.061 10.56s1.286.235 2.51 3.499c1.224 3.263 2.069 10.51-6.233 25.27-9.698 17.24-10.543 29.993-7.267 38.73s10.99 12.502 10.99 12.502a8 8 0 0 0 10.56-4.061 8 8 0 0 0-4.06-10.56s-1.286-.235-2.51-3.499c-1.224-3.263-2.069-10.51 6.233-25.27 9.698-17.24 10.543-29.993 7.267-38.73S171.25 16.69 171.25 16.69a8 8 0 0 0-4.09-.644zm40 0a8 8 0 0 0-2.031.488 8 8 0 0 0-4.44 4.217 8 8 0 0 0 4.061 10.56s1.286.235 2.51 3.499c1.224 3.263 2.069 10.51-6.233 25.27-9.698 17.24-10.543 29.993-7.267 38.73s10.99 12.502 10.99 12.502a8 8 0 0 0 10.56-4.061 8 8 0 0 0-4.06-10.56s-1.286-.235-2.51-3.499c-1.224-3.263-2.069-10.51 6.233-25.27 9.698-17.24 10.543-29.993 7.267-38.73S211.25 16.69 211.25 16.69a8 8 0 0 0-4.09-.644zM48.38 32.01a8 8 0 0 0-5.76 2.07 8 8 0 0 0-.54 11.3L117.188 128H32c-8.742 0-16 7.258-16 16v32c0 8.742 7.258 16 16 16h143.371l26.71 29.38a8 8 0 0 0 11.3.54 8 8 0 0 0 .539-11.3l-160-176a8 8 0 0 0-5.54-2.61zM178.52 128a8 8 0 0 0-8 8 8 8 0 0 0 8 8H224v32h-1.84a8 8 0 0 0-8 8 8 8 0 0 0 8 8H224c8.742 0 16-7.258 16-16v-32c0-8.742-7.258-16-16-16zM32 144h48v32H32zm64 0h35.734l29.09 32H96z"/></svg>