<svg xmlns="http://www.w3.org/2000/svg" viewBox="0 0 256 256"><path d="M80 40c-21.997 0-40 18.003-40 40s18.003 40 40 40 40-18.003 40-40-18.003-40-40-40zm96 0c-21.997 0-40 18.003-40 40s18.003 40 40 40 40-18.003 40-40-18.003-40-40-40zM80 56c13.35 0 24 10.65 24 24s-10.65 24-24 24-24-10.65-24-24 10.65-24 24-24zm96 0c13.35 0 24 10.65 24 24s-10.65 24-24 24-24-10.65-24-24 10.65-24 24-24zm-96 80c-21.997 0-40 18.003-40 40s18.003 40 40 40 40-18.003 40-40-18.003-40-40-40zm96 0a8 8 0 0 0-8 8v24h-24a8 8 0 0 0-8 8 8 8 0 0 0 8 8h24v24a8 8 0 0 0 8 8 8 8 0 0 0 8-8v-24h24a8 8 0 0 0 8-8 8 8 0 0 0-8-8h-24v-24a8 8 0 0 0-8-8zm-96 16c13.35 0 24 10.65 24 24s-10.65 24-24 24-24-10.65-24-24 10.65-24 24-24z"/></svg>