<svg xmlns="http://www.w3.org/2000/svg" viewBox="0 0 256 256"><path d="M78 36c-23.054 0-42 18.946-42 42s18.946 42 42 42 42-18.946 42-42-18.946-42-42-42zm100 0c-23.054 0-42 18.946-42 42s18.946 42 42 42 42-18.946 42-42-18.946-42-42-42zM78 60c10.083 0 18 7.917 18 18s-7.917 18-18 18-18-7.917-18-18 7.917-18 18-18zm100 0c10.083 0 18 7.917 18 18s-7.917 18-18 18-18-7.917-18-18 7.917-18 18-18zM78 136c-23.054 0-42 18.946-42 42s18.946 42 42 42 42-18.946 42-42-18.946-42-42-42zm100 0a12 12 0 0 0-12 12v18h-18a12 12 0 0 0-12 12 12 12 0 0 0 12 12h18v18a12 12 0 0 0 12 12 12 12 0 0 0 12-12v-18h18a12 12 0 0 0 12-12 12 12 0 0 0-12-12h-18v-18a12 12 0 0 0-12-12zM78 160c10.083 0 18 7.917 18 18s-7.917 18-18 18-18-7.917-18-18 7.917-18 18-18z"/></svg>