<svg xmlns="http://www.w3.org/2000/svg" viewBox="0 0 256 256"><path d="M129.705 28.018c-26.613-.442-52.902 9.75-72.42 29.267l-.055.053C52.595 62.033 48.28 66.68 44 71.426V64a12 12 0 0 0-12-12 12 12 0 0 0-12 12v40a12 12 0 0 0 .096.857 12 12 0 0 0 .084.747 12 12 0 0 0 1.203 3.91 12 12 0 0 0 .295.47 12 12 0 0 0 2.648 3.205l.094.114.04.021a12 12 0 0 0 3.72 1.973 12 12 0 0 0 .642.224A12 12 0 0 0 32 116h40a12 12 0 0 0 12-12 12 12 0 0 0-12-12H57.764a405 405 0 0 1 16.492-17.744l.01-.008a75.93 75.93 0 0 1 82.302-16.676 75.93 75.93 0 0 1 47.414 69.323 75.93 75.93 0 0 1-45.384 70.668 75.93 75.93 0 0 1-82.762-14.292 12 12 0 0 0-16.963.493 12 12 0 0 0 .492 16.965c29.201 27.554 72.148 34.968 108.897 18.8 36.749-16.167 60.3-52.838 59.718-92.982s-25.186-76.118-62.388-91.213a99.8 99.8 0 0 0-35.887-7.316zM128 68a12 12 0 0 0-12 12v48a12 12 0 0 0 5.826 10.29l40 24a12 12 0 0 0 16.463-4.116 12 12 0 0 0-4.115-16.463L140 121.205V80a12 12 0 0 0-12-12z"/></svg>