<svg xmlns="http://www.w3.org/2000/svg" viewBox="0 0 256 256"><path d="M159.65 36.01a91.8 91.8 0 0 0-34.857 6.994c-19.967 8.27-35.72 23.197-45.572 41.457-36.035-3.805-69.936 21.953-74.616 59.021C-.492 183.857 31.29 219.95 71.985 220H160c37.176 0 70.77-22.447 84.996-56.793s6.342-73.97-19.945-100.258c-16.43-16.43-38.069-25.671-60.373-26.818a92 92 0 0 0-5.028-.121zm.104 23.978q1.861-.006 3.715.088A67.93 67.93 0 0 1 208.08 79.92a67.93 67.93 0 0 1 14.742 74.103A67.93 67.93 0 0 1 160 196H72c-26.664-.042-46.924-23.055-43.584-49.512 2.785-22.061 20.88-37.666 41.793-38.443A91.8 91.8 0 0 0 68 128a12 12 0 0 0 12 12 12 12 0 0 0 12-12 67.93 67.93 0 0 1 41.977-62.822 68 68 0 0 1 25.777-5.19zM136 96a12 12 0 0 0-8.484 3.516 12 12 0 0 0 0 16.968L143.03 132l-15.515 15.516a12 12 0 0 0 0 16.968 12 12 0 0 0 16.968 0L160 148.97l15.516 15.515a12 12 0 0 0 16.968 0 12 12 0 0 0 0-16.968L176.97 132l15.515-15.516a12 12 0 0 0 0-16.968A12 12 0 0 0 184 96a12 12 0 0 0-8.484 3.516L160 115.03l-15.516-15.515A12 12 0 0 0 136 96z"/></svg>