<svg xmlns="http://www.w3.org/2000/svg" viewBox="0 0 256 256"><path d="M222.064 75.035a102 102 0 0 0-11.3-9.341C189.207 50.295 160.05 41.09 128 41.09s-61.206 9.205-82.763 24.604S9.53 103.184 9.53 128c0 24.817 14.149 46.907 35.706 62.306s50.714 24.604 82.763 24.604 61.208-9.204 82.765-24.603C232.32 174.91 246.47 152.817 246.47 128c0-20.163-9.342-38.528-24.407-52.965zm-11.08 11.506c8.289 7.885 14.125 16.844 17.136 26.425-9.485-4.533-20.932-8.459-33.926-9.99-20.726-2.44-45.35 1.506-70.634 18.37-22.318 14.885-42.488 17.833-59.876 15.783-15.257-1.798-28.392-7.671-37.947-13.417 1.483-17.111 11.787-32.847 28.799-45C72.96 65.553 99.038 57.09 127.999 57.09s55.041 8.462 73.466 21.623a88 88 0 0 1 9.518 7.828zm19.28 45.745c-1.483 17.112-11.786 32.85-28.799 45.002C183.04 190.449 156.962 198.91 128 198.91c-28.96 0-55.04-8.462-73.465-21.623-13.384-9.56-22.6-21.342-26.658-34.262 9.487 4.534 20.935 8.463 33.934 9.995 20.724 2.442 45.346-1.5 70.63-18.364 22.318-14.886 42.493-17.838 59.881-15.79 15.26 1.797 28.394 7.672 37.942 13.42z" transform="rotate(-45 128 128)"/></svg>