<svg xmlns="http://www.w3.org/2000/svg" viewBox="0 0 256 256"><path d="M-28 140c0 8.726 7.274 16 16 16h160c8.726 0 16-7.274 16-16v-24c0-8.726-7.274-16-16-16H-12c-8.726 0-16 7.274-16 16zm0-72c0 8.726 7.274 16 16 16h160c8.726 0 16-7.274 16-16V44c0-8.726-7.274-16-16-16H-12c-8.726 0-16 7.274-16 16zm16 72v-24h160v24zm0-72V44h160v24zm48-88a8 8 0 0 0 8 8h16V4a8 8 0 0 0 8 8 8 8 0 0 0 8-8v-16h16a8 8 0 0 0 8-8 8 8 0 0 0-8-8H76v-16a8 8 0 0 0-8-8 8 8 0 0 0-8 8v16H44a8 8 0 0 0-8 8z" transform="rotate(90 68 128)"/></svg>