<svg xmlns="http://www.w3.org/2000/svg" viewBox="0 0 256 256"><path d="M76 40c-19.787 0-36 16.213-36 36s16.213 36 36 36h20v32H76c-19.787 0-36 16.213-36 36s16.213 36 36 36 36-16.213 36-36v-20h32v20c0 19.787 16.213 36 36 36s36-16.213 36-36-16.213-36-36-36h-20v-32h20c19.787 0 36-16.213 36-36s-16.213-36-36-36-36 16.213-36 36v20h-32V76c0-19.787-16.213-36-36-36zm0 16c11.14 0 20 8.86 20 20v20H76c-11.14 0-20-8.86-20-20s8.86-20 20-20zm104 0c11.14 0 20 8.86 20 20s-8.86 20-20 20h-20V76c0-11.14 8.86-20 20-20zm-68 56h32v32h-32zm-36 48h20v20c0 11.14-8.86 20-20 20s-20-8.86-20-20 8.86-20 20-20zm84 0h20c11.14 0 20 8.86 20 20s-8.86 20-20 20-20-8.86-20-20z"/></svg>