<svg xmlns="http://www.w3.org/2000/svg" viewBox="0 0 256 256"><path d="M127.293.033a8 8 0 0 0-2.715.738 8 8 0 0 0-4.34 5.29l-6.765 27.062c-41.396 6.324-74.026 38.954-80.35 80.35l-27.062 6.765a8 8 0 0 0 0 15.524l27.062 6.765c6.324 41.396 38.954 74.026 80.35 80.35l6.765 27.062a8 8 0 0 0 15.524 0l6.765-27.062c41.396-6.324 74.026-38.954 80.35-80.35l27.062-6.765a8 8 0 0 0 0-15.524l-27.062-6.765c-6.324-41.396-38.954-74.026-80.35-80.35l-6.765-27.062a8 8 0 0 0-8.469-6.028zM128 40.986l.285 1.139.004.018 14.852 59.404L128 116.687l-15.14-15.14zm-18.809 9.258L97.402 97.402l-47.158 11.79c7.013-29.14 29.808-51.935 58.947-58.948zm37.618 0c29.139 7.013 51.934 29.808 58.947 58.947l-47.158-11.789zm-45.262 62.615L116.687 128l-15.14 15.14-59.404-14.85-.018-.005-1.139-.285 1.139-.285.018-.004zm52.906 0 59.404 14.852.018.004 1.139.285-1.139.285-.018.004-59.404 14.852L139.313 128zM128 139.313l15.14 15.14-14.85 59.404-.005.018-.285 1.139-15.14-60.56zm-77.756 7.496 47.158 11.789 11.79 47.158c-29.14-7.013-51.935-29.808-58.948-58.947zm155.512 0c-7.013 29.139-29.808 51.934-58.947 58.947l11.789-47.158z"/></svg>