<svg xmlns="http://www.w3.org/2000/svg" viewBox="0 0 256 256"><path d="M128 24C70.657 24 24 70.657 24 128s46.657 104 104 104 104-46.657 104-104S185.343 24 128 24zm0 16c48.696 0 88 39.304 88 88s-39.304 88-88 88-88-39.304-88-88 39.304-88 88-88zm.291 40.006c-14.92-.079-29.408 6.815-38.691 19.193a8 8 0 0 0 1.6 11.201 8 8 0 0 0 11.2-1.6 31.94 31.94 0 0 1 35.72-11.157A31.94 31.94 0 0 1 159.995 128a31.94 31.94 0 0 1-21.877 30.357A31.94 31.94 0 0 1 102.4 147.2a8 8 0 0 0-11.2-1.6 8 8 0 0 0-1.6 11.202c12.378 16.504 34.007 23.26 53.578 16.736 19.57-6.524 32.818-24.908 32.818-45.537 0-20.63-13.248-39.013-32.818-45.537a47.8 47.8 0 0 0-14.887-2.457z"/></svg>