<svg xmlns="http://www.w3.org/2000/svg" viewBox="0 0 256 256"><path d="M128 20C68.496 20 20 68.496 20 128c0 59.505 48.496 108 108 108 59.505 0 108-48.495 108-108 0-59.504-48.495-108-108-108zm-12 24.861V72a12 12 0 0 0 12 12 12 12 0 0 0 12-12V44.861c36.887 5.236 65.903 34.252 71.139 71.139H184a12 12 0 0 0-12 12 12 12 0 0 0 12 12h27.139c-5.236 36.887-34.252 65.903-71.139 71.139V184a12 12 0 0 0-12-12 12 12 0 0 0-12 12v27.139C79.113 205.903 50.097 176.887 44.861 140H72a12 12 0 0 0 12-12 12 12 0 0 0-12-12H44.861C50.097 79.113 79.113 50.097 116 44.861z"/></svg>