<svg xmlns="http://www.w3.org/2000/svg" viewBox="0 0 256 256"><path d="M128 24.4c-5.888 0-11.777 2.963-14.52 8.89l-.046.1-35.809 80.294-33.762-36.368.158.178c-4.975-5.69-13.136-6.685-18.957-3.896-5.82 2.788-10.159 9.773-8.841 17.216a8 8 0 0 0 .06.313l22.701 104-.056-.287c1.37 7.593 8.102 13.196 15.818 13.16H201.29c7.712.002 14.42-5.626 15.76-13.22l-.063.316 22.7-104a8 8 0 0 0 .076-.39c1.232-7.4-3.096-14.299-8.883-17.065s-13.874-1.801-18.858 3.804l.116-.129-33.762 36.368-35.809-80.293-.046-.102c-2.743-5.926-8.632-8.889-14.52-8.889zm0 15.614 40.693 91.244a8 8 0 0 0 13.17 2.185l42-45.24.104-.113-22.613 103.594a8 8 0 0 0-.063.316H54.674a8 8 0 0 0-.059-.285L31.986 88.033l.15.17 42 45.24a8 8 0 0 0 13.17-2.185z"/></svg>