<svg xmlns="http://www.w3.org/2000/svg" viewBox="0 0 256 256"><path d="M128 12.023c-3.308 0-6.616.817-9.6 2.45l-.004.002-88 48.18c-3.52 1.926-6.28 4.862-8.082 8.31l-.14.193-.102.287c-1.309 2.677-2.065 5.635-2.072 8.707v95.696a20.05 20.05 0 0 0 10.4 17.5l87.996 48.177.004.002a20 20 0 0 0 9.264 2.428A12 12 0 0 0 128 244a12 12 0 0 0 .336-.045c3.195-.053 6.38-.85 9.264-2.428l.004-.002 87.996-48.177.004-.002A20.05 20.05 0 0 0 236 175.848V80.152c-.006-2.45-.499-4.824-1.348-7.048a12 12 0 0 0-.267-.762l-.016-.031a12 12 0 0 0-.543-1.153l-.125-.162c-1.801-3.462-4.567-6.409-8.097-8.342l-.004-.002-87.996-48.177-.004-.002a20 20 0 0 0-9.6-2.45zm0 24.555 71.996 39.416L128 115.4 56.004 75.994zM44 96.785l72 39.408v76.659l-72-39.418zm168 0v76.649l-72 39.418v-76.659z"/></svg>