<svg xmlns="http://www.w3.org/2000/svg" viewBox="0 0 256 256"><path d="M112 16a8 8 0 0 0-8 8v16H72a8 8 0 0 0-8 8 8 8 0 0 0 8 8h8v136h-8a8 8 0 0 0-8 8 8 8 0 0 0 8 8h32v16a8 8 0 0 0 8 8 8 8 0 0 0 8-8v-16h16v16a8 8 0 0 0 8 8 8 8 0 0 0 8-8v-16h8c26.415 0 48-21.585 48-48 0-19.924-12.292-37.072-29.662-44.31C186.714 107.666 192 96.445 192 84c0-22.857-17.653-41.77-40-43.809V24a8 8 0 0 0-8-8 8 8 0 0 0-8 8v16h-16V24a8 8 0 0 0-8-8zM96 56h52c15.559 0 28 12.441 28 28s-12.441 28-28 28H96zm0 72h64a31.88 31.88 0 0 1 32 32 31.88 31.88 0 0 1-32 32H96z"/></svg>