<svg xmlns="http://www.w3.org/2000/svg" viewBox="0 0 256 256"><path d="M137.047 28.012a83.8 83.8 0 0 0-35.342 7.304C76.46 46.608 58.745 69.48 53.59 96H40a12 12 0 0 0-12 12 12 12 0 0 0 12 12h12v16H40a12 12 0 0 0-12 12 12 12 0 0 0 12 12h13.59c5.156 26.52 22.869 49.392 48.115 60.684 30.212 13.512 65.627 7.995 90.295-14.069a12 12 0 0 0 .943-16.945 12 12 0 0 0-16.943-.943 59.93 59.93 0 0 1-64.496 10.048C94.896 191.348 82.888 176.988 78.195 160H120a12 12 0 0 0 12-12 12 12 0 0 0-12-12H76v-16h60a12 12 0 0 0 12-12 12 12 0 0 0-12-12H78.195c4.693-16.988 16.701-31.348 33.309-38.775A59.93 59.93 0 0 1 176 67.273a12 12 0 0 0 16.943-.943A12 12 0 0 0 192 49.385c-15.418-13.79-35.034-21.116-54.953-21.373z"/></svg>