<svg xmlns="http://www.w3.org/2000/svg" viewBox="0 0 256 256"><path d="M152 28c-10.872 0-20 9.128-20 20v20H32C16.678 68 4 80.678 4 96v68c0 15.322 12.678 28 28 28h44v12h-8a12 12 0 0 0-12 12 12 12 0 0 0 12 12h40a12 12 0 0 0 12-12 12 12 0 0 0-12-12h-8v-12h32v16c0 10.872 9.128 20 20 20h80c10.872 0 20-9.128 20-20V48c0-10.872-9.128-20-20-20zm4 24h72v152h-72zm24 12a12 12 0 0 0-12 12 12 12 0 0 0 12 12h24a12 12 0 0 0 12-12 12 12 0 0 0-12-12zM32 92h100v76H32c-2.351 0-4-1.649-4-4V96c0-2.351 1.649-4 4-4zm148 8a12 12 0 0 0-12 12 12 12 0 0 0 12 12h24a12 12 0 0 0 12-12 12 12 0 0 0-12-12zm12 60a16 16 0 0 0-16 16 16 16 0 0 0 16 16 16 16 0 0 0 16-16 16 16 0 0 0-16-16z"/></svg>