<svg xmlns="http://www.w3.org/2000/svg" viewBox="0 0 256 256"><path d="M95.988 40.133c-4.78.109-9.512 2.267-12.558 6.44l-.014.017L35.922 112H8a8 8 0 0 0-8 8 8 8 0 0 0 8 8h240a8 8 0 0 0 8-8 8 8 0 0 0-8-8h-27.922l-47.494-65.41-.014-.018c-6.092-8.344-18.931-8.637-25.398-.58l.18-.219-12.94 15a8 8 0 0 0-.178.215c-3.314 4.123-9.154 4.123-12.468 0a8 8 0 0 0-.178-.215l-12.94-15 .18.22c-3.233-4.03-8.06-5.97-12.84-5.86zm.364 15.875a8 8 0 0 0 .181.219l12.94 15-.178-.215c9.495 11.811 27.915 11.811 37.41 0l-.178.215 12.94-15a8 8 0 0 0 .181-.22L200.305 112H55.695zM76 144c-19.787 0-36 16.213-36 36s16.213 36 36 36c15.585 0 28.945-10.06 33.92-24h36.16c4.975 13.94 18.335 24 33.92 24 19.787 0 36-16.213 36-36s-16.213-36-36-36c-18.436 0-33.76 14.074-35.77 32h-32.46c-2.01-17.926-17.334-32-35.77-32zm0 16c11.14 0 20 8.86 20 20s-8.86 20-20 20-20-8.86-20-20 8.86-20 20-20zm104 0c11.14 0 20 8.86 20 20s-8.86 20-20 20-20-8.86-20-20 8.86-20 20-20z"/></svg>