<svg xmlns="http://www.w3.org/2000/svg" viewBox="0 0 256 256"><path d="M160.991 29.248a8 8 0 0 0-4.7-1.527H99.72a8 8 0 0 0-8 8V92.29a8 8 0 0 0 8 8h56.568a8 8 0 0 0 8-8.001V35.72a8 8 0 0 0-3.298-6.472zM148.29 43.721l-.002 40.569h-40.567V43.722zm12.701 76.037a8 8 0 0 0-4.702-1.529H99.72a8 8 0 0 0-8 8v56.57a8 8 0 0 0 8 8h56.569a8 8 0 0 0 8-8v-56.57a8 8 0 0 0-3.298-6.47zM70.475 29.255a8 8 0 0 0-4.701-1.527H9.205a8 8 0 0 0-8 8v56.569a8 8 0 0 0 7.999 8h56.568a8 8 0 0 0 8-8.001V35.727a8 8 0 0 0-3.297-6.472zM148.29 134.23l-.002 40.57h-40.567l-.002-40.57zM57.773 43.728v40.567l-40.569.001.002-40.568zm12.702 76.037a8 8 0 0 0-4.703-1.529H9.204a8 8 0 0 0-8 8v56.57a8 8 0 0 0 8 8h56.568a8 8 0 0 0 8-8v-56.57a8 8 0 0 0-3.297-6.471zm-12.702 14.472v40.568l-40.569.001v-40.57z" transform="rotate(-45 127.996 63.992)"/></svg>