<svg xmlns="http://www.w3.org/2000/svg" viewBox="0 0 256 256"><path d="M128 12.002a12 12 0 0 0-8.484 3.516l-38 37.998a12 12 0 0 0 0 16.97l38 37.998a12 12 0 0 0 16.97 0l37.998-37.998a12 12 0 0 0 0-16.97l-37.998-37.998A12 12 0 0 0 128 12.002Zm0 28.97L149.03 62 128 83.03 106.973 62ZM62 78a12 12 0 0 0-8.484 3.516l-38 37.998a12 12 0 0 0 0 16.97l38 37.998a12 12 0 0 0 16.97 0l37.998-37.998a12 12 0 0 0 0-16.97L70.486 81.516A12 12 0 0 0 62 78Zm0 28.97L83.03 128 62 149.027 40.973 128Zm131.998-28.968a12 12 0 0 0-8.484 3.516l-38 37.998a12 12 0 0 0 0 16.97l38 37.998a12 12 0 0 0 16.97 0l37.998-37.998a12 12 0 0 0 0-16.97l-37.998-37.998a12 12 0 0 0-8.486-3.516zm0 28.97L215.028 128l-21.03 21.03L172.971 128Zm-66 37.028a12 12 0 0 0-8.484 3.516l-38 37.998a12 12 0 0 0 0 16.97l38 37.998a12 12 0 0 0 16.97 0l37.998-37.998a12 12 0 0 0 0-16.97l-37.998-37.998a12 12 0 0 0-8.486-3.516Zm0 28.97 21.03 21.028-21.03 21.03-21.027-21.03z"/></svg>