<svg xmlns="http://www.w3.org/2000/svg" viewBox="0 0 256 256"><path d="M76 28.07c-12.31 0-24.622 4.661-33.945 13.985-18.647 18.647-18.647 49.243 0 67.89a12 12 0 0 0 16.97 0 12 12 0 0 0 0-16.97c-9.475-9.476-9.475-24.474 0-33.95 9.476-9.475 24.474-9.475 33.95 0a12 12 0 0 0 16.97 0 12 12 0 0 0 0-16.97C100.622 32.73 88.311 28.07 76 28.07zm104 0c-12.31 0-24.622 4.661-33.945 13.985a12 12 0 0 0 0 16.97 12 12 0 0 0 16.97 0c9.476-9.475 24.474-9.475 33.95 0 9.475 9.476 9.475 24.474 0 33.95a12 12 0 0 0 0 16.97 12 12 0 0 0 16.97 0c18.647-18.647 18.647-49.243 0-67.89C204.622 32.73 192.311 28.07 180 28.07zM76 64a12 12 0 0 0-8.484 3.516 12 12 0 0 0 0 16.968L92 108.97v38.062l-24.484 24.485a12 12 0 0 0 0 16.968 12 12 0 0 0 16.968 0L108.97 164h38.062l24.485 24.484a12 12 0 0 0 16.968 0 12 12 0 0 0 0-16.968L164 147.03v-38.06l24.484-24.485a12 12 0 0 0 0-16.968A12 12 0 0 0 180 64a12 12 0 0 0-8.484 3.516L147.03 92h-38.06L84.484 67.516A12 12 0 0 0 76 64zm40 52h24v24h-24zm-65.46 26.54a12 12 0 0 0-8.485 3.515c-18.647 18.647-18.647 49.243 0 67.89s49.243 18.647 67.89 0a12 12 0 0 0 0-16.97 12 12 0 0 0-16.97 0c-9.476 9.475-24.474 9.475-33.95 0-9.475-9.476-9.475-24.474 0-33.95a12 12 0 0 0 0-16.97 12 12 0 0 0-8.486-3.516zm154.92 0a12 12 0 0 0-8.485 3.515 12 12 0 0 0 0 16.97c9.475 9.476 9.475 24.474 0 33.95-9.476 9.475-24.474 9.475-33.95 0a12 12 0 0 0-16.97 0 12 12 0 0 0 0 16.97c18.647 18.647 49.243 18.647 67.89 0s18.647-49.243 0-67.89a12 12 0 0 0-8.484-3.516z"/></svg>