<svg xmlns="http://www.w3.org/2000/svg" viewBox="0 0 256 256"><path d="M76 36a12 12 0 0 0-6.83 2.133l-52 36a12 12 0 0 0 0 19.734L54.918 120 17.17 146.133a12 12 0 0 0 0 19.734l52 36a12 12 0 0 0 13.66 0L128 170.596l45.17 31.271a12 12 0 0 0 13.66 0l52-36a12 12 0 0 0 0-19.734L201.082 120l37.748-26.133a12 12 0 0 0 0-19.734l-52-36A12 12 0 0 0 180 36a12 12 0 0 0-6.83 2.133L128 69.404 82.83 38.133A12 12 0 0 0 76 36zm0 26.596L106.918 84 76 105.404 45.082 84zm104 0L210.918 84 180 105.404 149.082 84zm-52 36L158.918 120 128 141.404 97.082 120zm-52 36L106.918 156 76 177.404 45.082 156zm104 0L210.918 156 180 177.404 149.082 156zm-68.66 69.726a12 12 0 0 0-2.344.192 12 12 0 0 0-7.72 4.972 12 12 0 0 0 3.03 16.698l16.86 11.68a12 12 0 0 0 13.668 0l16.86-11.68a12 12 0 0 0 3.03-16.698 12 12 0 0 0-16.697-3.03L128 213.401l-10.027-6.947a12 12 0 0 0-6.633-2.133z"/></svg>