<svg xmlns="http://www.w3.org/2000/svg" viewBox="0 0 256 256"><path d="M128 4a12 12 0 0 0-6.88 2.17S39.142 61.065 36.142 139.604a12 12 0 0 0-.063.396l.041.262c-.04 1.246-.121 2.48-.121 3.738 0 50.668 41.332 92 92 92s92-41.332 92-92c0-1.258-.08-2.492-.121-3.738l.04-.262a12 12 0 0 0-.097-1.47C216.121 60.563 134.88 6.17 134.88 6.17A12 12 0 0 0 128 4zm0 27.47c14.406 11.64 57.864 49.815 66.482 96.53H61.518C70.136 81.285 113.594 43.11 128 31.47zM60.479 152H195.52a68 68 0 0 1-3.851 16H64.33a68 68 0 0 1-3.851-16zm19.253 40h96.536c-12.298 12.367-29.35 20-48.268 20s-35.97-7.633-48.268-20z"/></svg>