<svg xmlns="http://www.w3.org/2000/svg" viewBox="0 0 256 256"><path d="M127.045 16.006A87.95 87.95 0 0 0 82.9 28.43a8 8 0 0 0-2.77 10.97 8 8 0 0 0 10.97 2.77 71.97 71.97 0 0 1 72.449-.787A71.97 71.97 0 0 1 200 104a8 8 0 0 0 8 8 8 8 0 0 0 8-8c.002-31.655-17.023-60.902-44.55-76.531a87.95 87.95 0 0 0-44.405-11.463zM48.38 32.01a8 8 0 0 0-5.762 2.07 8 8 0 0 0-.539 11.3l11.127 12.24A87.63 87.63 0 0 0 40 104v.014c.004 29.704 11.012 43.946 20.402 53.142C69.794 166.354 76 169.57 76 188c0 28.624 23.376 52 52 52 16.092 0 29.04-7.854 38.168-18.906a8 8 0 0 0-1.074-11.262 8 8 0 0 0-11.262 1.074C146.821 219.394 139.228 224 128 224a35.88 35.88 0 0 1-36-36c0-23.059-11.794-33.846-20.402-42.275S56 130.285 56 104v-.014c-.02-11.892 2.956-23.528 8.521-33.92l17.702 19.471A47.8 47.8 0 0 0 80 104.016 8 8 0 0 0 88.016 112a8 8 0 0 0 7.953-7.342l41.238 45.363a41.2 41.2 0 0 0-1.205 9.995c.012 16.335 16.557 27.203 31.084 22.873l34.994 38.492a8 8 0 0 0 11.3.539 8 8 0 0 0 .54-11.3l-61.553-67.71a8 8 0 0 0-.56-.615L53.92 34.619a8 8 0 0 0-5.54-2.61zm79.236 23.974a47.4 47.4 0 0 0-15.217 2.6 8 8 0 0 0-4.966 10.166 8 8 0 0 0 10.166 4.965c21.009-7.22 42.412 8.066 42.4 30.281V104c0 4.268-1.05 8.469-3.059 12.234a8 8 0 0 0 3.293 10.825 8 8 0 0 0 10.825-3.293A42 42 0 0 0 176 104.004v-.002c.013-26.584-21.553-46.971-46.238-47.979a47 47 0 0 0-2.145-.039z"/></svg>