<svg xmlns="http://www.w3.org/2000/svg" viewBox="0 0 256 256"><path d="M48 152c-10.872 0-20 9.128-20 20v20c0 10.872 9.128 20 20 20h160c10.872 0 20-9.128 20-20v-20c0-10.872-9.128-20-20-20zm4 24h152v12H52Zm76-159.92c-7.508 0-15.017 2.891-20.574 8.676l-.008.01-73.75 76.92c-5.846 6.083-6.944 15.138-4.04 21.972S39.814 135.987 48.25 136h159.377c8.46.038 15.789-5.444 18.72-12.285 2.932-6.84 1.847-15.929-4.015-22.03l-73.75-76.92-.008-.01c-5.557-5.784-13.066-8.675-20.574-8.675Zm0 23.826c1.16 0 2.319.494 3.266 1.479h.002L198.973 112H57.027l67.707-70.615c.947-.985 2.107-1.479 3.266-1.479Z"/></svg>