<svg xmlns="http://www.w3.org/2000/svg" viewBox="0 0 256 256"><path d="M127.98 20.2c-8.138 0-16.275 3.412-21.816 10.238l-.008.007-81.66 100.801c-10.111 12.48-.527 32.689 15.535 32.754H215.97c16.063-.065 25.647-20.276 15.533-32.756l-81.7-100.8-.005-.006c-5.54-6.826-13.679-10.239-21.817-10.239zm0 23.695c1.14 0 2.278.556 3.18 1.666L207.707 140H48.291l76.506-94.437.004-.004.004-.004c.901-1.106 2.038-1.66 3.175-1.66zM32 188a12 12 0 0 0-12 12 12 12 0 0 0 12 12h192a12 12 0 0 0 12-12 12 12 0 0 0-12-12z"/></svg>