<svg xmlns="http://www.w3.org/2000/svg" viewBox="0 0 256 256"><path d="M128 28C72.914 28 28 72.914 28 128c0 24.936 9.224 47.768 24.408 65.313l-13.287 14.615a12 12 0 0 0 .807 16.95 12 12 0 0 0 16.95-.806l13.28-14.607C86.508 221.115 106.468 228 128 228c55.086 0 100-44.914 100-100 0-24.936-9.224-47.768-24.408-65.312l13.287-14.616a12 12 0 0 0-.807-16.95 12 12 0 0 0-8.642-3.108 12 12 0 0 0-8.309 3.914l-13.28 14.607C169.494 34.885 149.534 28 128 28zm0 24c15.403 0 29.695 4.546 41.64 12.355L68.6 175.5C58.21 162.506 52 146.012 52 128c0-42.116 33.884-76 76-76zm59.4 28.5C197.79 93.494 204 109.988 204 128c0 42.116-33.884 76-76 76-15.403 0-29.695-4.546-41.64-12.355z"/></svg>