<svg xmlns="http://www.w3.org/2000/svg" viewBox="0 0 256 256"><path d="M100 24a8 8 0 0 0-8 8 8 8 0 0 0 8 8h24v24H64c-8.742 0-16 7.258-16 16v52H24v-24a8 8 0 0 0-8-8 8 8 0 0 0-8 8v64a8 8 0 0 0 8 8 8 8 0 0 0 8-8v-24h24v20.693a16 16 0 0 0 4.68 11.301l.004.002 39.32 39.32.002.004a16 16 0 0 0 11.3 4.68h77.387a16 16 0 0 0 11.301-4.68l.002-.004L227.312 184H240c8.742 0 16-7.258 16-16v-48c0-8.742-7.258-16-16-16h-12.686l-35.318-35.316-.002-.004a16 16 0 0 0-11.3-4.68H140V40h24a8 8 0 0 0 8-8 8 8 0 0 0-8-8zM64 80h116.689l37.655 37.656A8 8 0 0 0 224 120h16v48h-16a8 8 0 0 0-5.656 2.344L180.686 208H103.31L64 168.69z"/></svg>