<svg xmlns="http://www.w3.org/2000/svg" viewBox="0 0 256 256"><path d="M100 20a12 12 0 0 0-12 12 12 12 0 0 0 12 12h20v16H64c-10.904 0-20 9.096-20 20v48H28v-20a12 12 0 0 0-12-12 12 12 0 0 0-12 12v64a12 12 0 0 0 12 12 12 12 0 0 0 12-12v-20h16v16.695a20.02 20.02 0 0 0 5.85 14.125l.005.006 39.319 39.319.006.005a20.02 20.02 0 0 0 14.125 5.85h73.39a20 20 0 0 0 14.125-5.85l.006-.005L224.97 188H236c10.904 0 20-9.096 20-20v-48c0-10.904-9.096-20-20-20h-11.03l-34.144-34.145-.006-.005A20.02 20.02 0 0 0 176.695 60H144V44h20a12 12 0 0 0 12-12 12 12 0 0 0-12-12zM68 84h107.03l36.486 36.484A12 12 0 0 0 220 124h12v40h-12a12 12 0 0 0-8.484 3.516L175.029 204h-70.058L68 167.03z"/></svg>