<svg xmlns="http://www.w3.org/2000/svg" viewBox="0 0 256 256"><path d="M188 56a12 12 0 0 0-12 12 12 12 0 0 0 12 12h40a12 12 0 0 0 12-12 12 12 0 0 0-12-12zM28 96a12 12 0 0 0-12 12 12 12 0 0 0 12 12h40a12 12 0 0 0 12-12 12 12 0 0 0-12-12zm160 0a12 12 0 0 0-12 12 12 12 0 0 0 12 12h40a12 12 0 0 0 12-12 12 12 0 0 0-12-12zM28 136a12 12 0 0 0-12 12 12 12 0 0 0 12 12h40a12 12 0 0 0 12-12 12 12 0 0 0-12-12zm80 0a12 12 0 0 0-12 12 12 12 0 0 0 12 12h40a12 12 0 0 0 12-12 12 12 0 0 0-12-12zm80 0a12 12 0 0 0-12 12 12 12 0 0 0 12 12h40a12 12 0 0 0 12-12 12 12 0 0 0-12-12zM28 176a12 12 0 0 0-12 12 12 12 0 0 0 12 12h40a12 12 0 0 0 12-12 12 12 0 0 0-12-12zm80 0a12 12 0 0 0-12 12 12 12 0 0 0 12 12h40a12 12 0 0 0 12-12 12 12 0 0 0-12-12zm80 0a12 12 0 0 0-12 12 12 12 0 0 0 12 12h40a12 12 0 0 0 12-12 12 12 0 0 0-12-12z"/></svg>