<svg xmlns="http://www.w3.org/2000/svg" viewBox="0 0 256 256"><path d="M168 36a12 12 0 0 0-8.818 3.861L66.746 140H32c-10.904 0-20 9.096-20 20v40c0 10.904 9.096 20 20 20h56a12 12 0 0 0 8.818-3.861L189.254 116H224c10.904 0 20-9.096 20-20V56c0-10.904-9.096-20-20-20zm5.254 24H220v32h-36a12 12 0 0 0-8.818 3.861L82.746 196H36v-32h36a12 12 0 0 0 8.818-3.861zM200 140a12 12 0 0 0-2.516.283 12 12 0 0 0-.797.242 12 12 0 0 0-1.593.557 12 12 0 0 0-.897.479 12 12 0 0 0-1.283.808 12 12 0 0 0-.822.674 12 12 0 0 0-.576.473l-24 24a12 12 0 0 0 0 16.968 12 12 0 0 0 16.968 0L188 180.97V208a12 12 0 0 0 12 12 12 12 0 0 0 12-12v-27.031l3.516 3.515a12 12 0 0 0 16.968 0 12 12 0 0 0 0-16.968l-24-24a12 12 0 0 0-1.757-1.444l-.13-.086a12 12 0 0 0-2.005-1.072 12 12 0 0 0-2.153-.654l-.2-.04A12 12 0 0 0 200 140z"/></svg>