<svg xmlns="http://www.w3.org/2000/svg" viewBox="0 0 256 256"><path d="M168 40a8 8 0 0 0-5.879 2.574L68.498 144H32c-8.742 0-16 7.258-16 16v40c0 8.742 7.258 16 16 16h56a8 8 0 0 0 5.879-2.574L187.502 112H224c8.742 0 16-7.258 16-16V56c0-8.742-7.258-16-16-16zm3.502 16H224v40h-40a8 8 0 0 0-5.879 2.574L84.498 200H32v-40h40a8 8 0 0 0 5.879-2.574zM200 144a8 8 0 0 0-5.656 2.344l-24 24a8 8 0 0 0 0 11.312 8 8 0 0 0 11.312 0L192 171.312V208a8 8 0 0 0 8 8 8 8 0 0 0 8-8v-36.687l10.344 10.343a8 8 0 0 0 11.312 0 8 8 0 0 0 0-11.312l-24-24a8 8 0 0 0-1.656-1.272 8 8 0 0 0-1.93-.799A8 8 0 0 0 200 144z"/></svg>