<svg xmlns="http://www.w3.org/2000/svg" viewBox="0 0 256 256"><path d="M40 32a8 8 0 0 0-2.717.541 8 8 0 0 0-.635.264 8 8 0 0 0-2.304 1.539 8 8 0 0 0-1.582 2.367 8 8 0 0 0-.276.85A8 8 0 0 0 32.1 39.5a8 8 0 0 0-.1.5v120a8 8 0 0 0 8 8h48v48a8 8 0 0 0 8 8h120a8 8 0 0 0 .5-.1 8 8 0 0 0 1.94-.386 8 8 0 0 0 .85-.276 8 8 0 0 0 2.366-1.582 8 8 0 0 0 1.705-2.55l.037-.086a8 8 0 0 0 .59-2.961L224 216V96a8 8 0 0 0-8-8h-48V40a8 8 0 0 0-8-8zm19.313 16h33.375l40 40H99.313zm56 0H152v36.688zM48 59.313l40 40v33.375l-40-40zM104 104h48v48h-48zm67.313 0H208v36.688zM48 115.313 84.688 152H48zm120 8 40 40v33.375l-40-40zM123.313 168h33.375l40 40h-33.375zM104 171.313 140.688 208H104z"/></svg>