<svg xmlns="http://www.w3.org/2000/svg" viewBox="0 0 256 256"><path d="M32.846 96.045a8 8 0 0 0-5.873 1.732 8 8 0 0 0-1.196 11.25 153 153 0 0 0 19.334 19.907L25.055 164.03a8 8 0 0 0 2.976 10.914 8 8 0 0 0 10.914-2.976l18.996-33.239c10.242 6.874 22.23 12.84 36.043 16.692l-5.875 35.264a8 8 0 0 0 6.577 9.205 8 8 0 0 0 9.205-6.577l5.765-34.597A130 130 0 0 0 128 160c6.395 0 12.507-.451 18.344-1.283l5.765 34.597a8 8 0 0 0 9.205 6.577 8 8 0 0 0 6.577-9.205l-5.875-35.264c13.814-3.852 25.8-9.818 36.043-16.692l18.996 33.239a8 8 0 0 0 10.914 2.976 8 8 0 0 0 2.976-10.914l-20.056-35.097a153 153 0 0 0 19.334-19.907 8 8 0 0 0-1.196-11.25 8 8 0 0 0-11.25 1.196c-12.968 16.054-34.212 35.775-66.097 42.582l-.084.004-.137.039C144.199 143.132 136.389 144 128 144c-8.18 0-15.803-.832-22.91-2.295a8 8 0 0 0-.686-.146l-.084-.004c-17.703-3.78-32.099-11.55-43.646-20.453a8 8 0 0 0-.735-.584l-.003-.002c-8.902-6.977-16.102-14.596-21.713-21.543a8 8 0 0 0-5.377-2.928z"/></svg>