<svg xmlns="http://www.w3.org/2000/svg" viewBox="0 0 256 256"><path d="M128 48C43.2 48 8.69 124.75 8.69 124.75a8 8 0 0 0 0 6.5S43.2 208 128 208s119.31-76.75 119.31-76.75a8 8 0 0 0 0-6.5S212.8 48 128 48zm0 16c65.356 0 96.117 50.701 103.068 64-6.951 13.299-37.712 64-103.068 64s-96.117-50.701-103.068-64C31.883 114.701 62.644 64 128 64zm0 16c-26.415 0-48 21.585-48 48s21.585 48 48 48 48-21.585 48-48-21.585-48-48-48zm0 16a31.88 31.88 0 0 1 32 32 31.88 31.88 0 0 1-32 32 31.88 31.88 0 0 1-32-32 31.88 31.88 0 0 1 32-32z"/></svg>