<svg xmlns="http://www.w3.org/2000/svg" viewBox="0 0 256 256"><path d="M56 40c-17.578 0-32 14.422-32 32v92c0 24.206 19.794 44 44 44 22.857 0 41.77-17.653 43.809-40h32.382c2.039 22.347 20.952 40 43.809 40 24.206 0 44-19.794 44-44V72c0-17.578-14.422-32-32-32a8 8 0 0 0-8 8 8 8 0 0 0 8 8c8.931 0 16 7.069 16 16v58.123C208.38 123.808 198.614 120 188 120c-20.048 0-37.058 13.583-42.314 32h-35.372c-5.256-18.417-22.266-32-42.314-32-10.614 0-20.38 3.808-28 10.123V72c0-8.931 7.069-16 16-16a8 8 0 0 0 8-8 8 8 0 0 0-8-8zm12 96c15.559 0 28 12.441 28 28s-12.441 28-28 28-28-12.441-28-28 12.441-28 28-28zm120 0c15.559 0 28 12.441 28 28s-12.441 28-28 28-28-12.441-28-28 12.441-28 28-28z"/></svg>