<svg xmlns="http://www.w3.org/2000/svg" viewBox="0 0 256 256"><path d="M56 36c-19.74 0-36 16.26-36 36v92c0 26.367 21.633 48 48 48 23.643 0 43.465-17.397 47.313-40h25.374c3.848 22.603 23.67 40 47.313 40 26.367 0 48-21.633 48-48V72c0-19.74-16.26-36-36-36a12 12 0 0 0-12 12 12 12 0 0 0 12 12c6.77 0 12 5.23 12 12v50.506c-7.076-4.125-15.275-6.506-24-6.506-20.765 0-38.586 13.42-45.225 32h-29.55c-6.64-18.58-24.46-32-45.225-32-8.725 0-16.924 2.38-24 6.506V72c0-6.77 5.23-12 12-12a12 12 0 0 0 12-12 12 12 0 0 0-12-12zm12 104c13.397 0 24 10.603 24 24s-10.603 24-24 24-24-10.603-24-24 10.603-24 24-24zm120 0c13.397 0 24 10.603 24 24s-10.603 24-24 24-24-10.603-24-24 10.603-24 24-24z"/></svg>