<svg xmlns="http://www.w3.org/2000/svg" viewBox="0 0 256 256"><path d="M128 32c-1.849 0-3.698.32-5.46.96h-.005l-80 29.09h.004c-4.644 1.687-8.151 5.422-9.684 9.95H32C14.422 72 0 86.422 0 104v24c0 17.578 14.422 32 32 32h5.262c2.715 5.977 6.295 11.402 10.482 16.16 9.229 10.487 21.07 18.193 32.678 23.996 23.214 11.607 46.146 15.715 46.146 15.715a8 8 0 0 0 2.864 0s22.932-4.108 46.146-15.715c11.607-5.803 23.45-13.509 32.678-23.996 4.187-4.758 7.767-10.183 10.482-16.16H224c17.578 0 32-14.422 32-32v-24c0-17.578-14.422-32-32-32h-.855c-1.533-4.528-5.04-8.263-9.684-9.95h.004l-80-29.09h-.004A16 16 0 0 0 128 32zm0 16 79.996 29.088.004.002V136c0 11.905-4.484 21.327-11.756 29.59-7.271 8.263-17.43 15.057-27.822 20.254-19.653 9.826-38.31 13.523-40.422 13.931-2.111-.408-20.77-4.105-40.422-13.931-10.393-5.197-20.55-11.991-27.822-20.254S48 147.905 48 136V77.09l.004-.002zM32 88v48c0 2.743.203 5.406.563 8H32c-8.931 0-16-7.069-16-16v-24c0-8.931 7.069-16 16-16zm192 0c8.931 0 16 7.069 16 16v24c0 8.931-7.069 16-16 16h-.562c.36-2.594.562-5.257.562-8zM88 96a8 8 0 0 0-8 8 8 8 0 0 0 8 8h80a8 8 0 0 0 8-8 8 8 0 0 0-8-8zm0 32a8 8 0 0 0-8 8 8 8 0 0 0 8 8h80a8 8 0 0 0 8-8 8 8 0 0 0-8-8z"/></svg>