<svg xmlns="http://www.w3.org/2000/svg" viewBox="0 0 256 256"><path d="M56 20c-10.904 0-20 9.096-20 20v68a12 12 0 0 0 12 12 12 12 0 0 0 12-12V44h76v48a12 12 0 0 0 12 12h48v120a12 12 0 0 0 12 12 12 12 0 0 0 12-12V88a12 12 0 0 0-3.516-8.484l-56-56A12 12 0 0 0 152 20zm104 36.97L183.03 80H160zM128 140a12 12 0 0 0-12 12v56a12 12 0 0 0 12 12h16c21.95 0 40-18.05 40-40s-18.05-40-40-40zm-96.627.02a12 12 0 0 0-2.98.539A12 12 0 0 0 20 152v56a12 12 0 0 0 12 12 12 12 0 0 0 12-12v-17.934l6.17 8.815a12 12 0 0 0 19.66 0l6.17-8.815V208a12 12 0 0 0 12 12 12 12 0 0 0 12-12v-56a12.001 12.001 0 0 0-21.83-6.88L60 171.075 41.83 145.12a12 12 0 0 0-10.457-5.1zM140 164h4c8.979 0 16 7.021 16 16s-7.021 16-16 16h-4z"/></svg>