<svg xmlns="http://www.w3.org/2000/svg" viewBox="0 0 256 256"><path d="M56 24c-8.742 0-16 7.258-16 16v72a8 8 0 0 0 8 8 8 8 0 0 0 8-8V40h88v48a8 8 0 0 0 8 8h48v16a8 8 0 0 0 8 8 8 8 0 0 0 8-8V88a8 8 0 0 0-.602-3.02l-.025-.068a8 8 0 0 0-1.69-2.527l-.027-.041-56-56-.04-.028a8 8 0 0 0-2.528-1.689l-.068-.025A8 8 0 0 0 152 24zm104 27.314L188.686 80H160zM56 144a8 8 0 0 0-8 8 8 8 0 0 0 8 8h18.215l-25.16 44.031A8 8 0 0 0 56 216h32a8 8 0 0 0 8-8 8 8 0 0 0-8-8H69.785l25.16-44.031A8 8 0 0 0 88 144zm72 0a8 8 0 0 0-8 8v56a8 8 0 0 0 8 8 8 8 0 0 0 8-8v-56a8 8 0 0 0-8-8zm40 0a8 8 0 0 0-8 8v56a8 8 0 0 0 8 8 8 8 0 0 0 8-8v-8h8c15.37 0 28-12.63 28-28s-12.63-28-28-28zm8 16h8c6.722 0 12 5.278 12 12s-5.278 12-12 12h-8z"/></svg>