<svg xmlns="http://www.w3.org/2000/svg" viewBox="0 0 256 256"><path d="M56 20c-10.904 0-20 9.096-20 20v68a12 12 0 0 0 12 12 12 12 0 0 0 12-12V44h76v48a12 12 0 0 0 12 12h48v108h-72a12 12 0 0 0-12 12 12 12 0 0 0 12 12h76c10.904 0 20-9.096 20-20V88a12 12 0 0 0-3.516-8.484l-56-56A12 12 0 0 0 152 20zm104 36.97L183.03 80H160zM60 140c-20.826 0-36 18.982-36 40s15.174 40 36 40h.145a34.14 34.14 0 0 0 24.681-10.998 12 12 0 0 0-.695-16.957 12 12 0 0 0-16.957.693 10.1 10.1 0 0 1-7.264 3.25C54.24 195.925 48 189.851 48 180s6.24-15.925 11.91-15.988a10.1 10.1 0 0 1 7.264 3.25 12 12 0 0 0 16.957.693 12 12 0 0 0 .695-16.957A34.14 34.14 0 0 0 60.145 140z"/></svg>