<svg xmlns="http://www.w3.org/2000/svg" viewBox="0 0 256 256"><path d="M56 20c-10.904 0-20 9.096-20 20v68a12 12 0 0 0 12 12 12 12 0 0 0 12-12V44h76v48a12 12 0 0 0 12 12h48v108h-8a12 12 0 0 0-12 12 12 12 0 0 0 12 12h12c10.904 0 20-9.096 20-20V88a12 12 0 0 0-3.516-8.484l-56-56A12 12 0 0 0 152 20zm104 36.97L183.03 80H160zM48 140a12 12 0 0 0-12 12v56a12 12 0 0 0 12 12 12 12 0 0 0 12-12v-4h4a32 32 0 0 0 3.645-.217l5.992 10.266a12 12 0 0 0 16.412 4.314 12 12 0 0 0 4.314-16.412l-5.67-9.715C93.248 186.703 96 179.643 96 172c0-17.53-14.47-32-32-32zm87.957.004c-1.2-.016-2.439.004-3.7.07-5.04.265-10.82 1.169-16.497 4.678s-10.573 10.488-11.565 18.346c-1.113 8.824 4.707 17.888 10.52 21.511 5.813 3.624 11.36 4.846 16.058 6.2 4.497 1.295 8.006 2.671 9.159 3.38-.071.724-.01.501-.407.749-.485.302-2.444.96-5.02 1.08-5.15.239-11.187-1.258-11.187-1.258a12 12 0 0 0-14.779 8.342 12 12 0 0 0 8.342 14.779s8.618 2.582 18.74 2.111c5.061-.235 10.895-1.131 16.6-4.687 5.704-3.556 10.544-10.57 11.56-18.451v-.002c1.146-8.91-3.986-18.145-9.85-22.229s-11.64-5.473-16.515-6.877c-3.998-1.152-6.498-2.118-8.205-2.873.892-.332 2.306-.727 4.309-.832 5.226-.275 11.314 1.16 11.314 1.16a12 12 0 0 0 14.668-8.535 12 12 0 0 0-8.535-14.668s-6.605-1.88-15.01-1.994zM60 164h4c4.56 0 8 3.44 8 8 0 3.062-1.554 5.611-3.953 6.96a12 12 0 0 0-.776.376l-.037.027A8.4 8.4 0 0 1 64 180h-4z"/></svg>