<svg xmlns="http://www.w3.org/2000/svg" viewBox="0 0 256 256"><path d="M56 24c-8.742 0-16 7.258-16 16v72a8 8 0 0 0 8 8 8 8 0 0 0 8-8V40h88v48a8 8 0 0 0 8 8h48v16a8 8 0 0 0 8 8 8 8 0 0 0 8-8V88a8 8 0 0 0-.602-3.02l-.025-.068a8 8 0 0 0-1.69-2.527l-.027-.041-56-56-.04-.028a8 8 0 0 0-2.528-1.689l-.068-.025A8 8 0 0 0 152 24zm104 27.314L188.686 80H160zM48 144a8 8 0 0 0-8 8v56a8 8 0 0 0 8 8 8 8 0 0 0 8-8v-8h8c15.37 0 28-12.63 28-28s-12.63-28-28-28zm64 0a8 8 0 0 0-8 8v56a8 8 0 0 0 8 8h16c19.787 0 36-16.213 36-36s-16.213-36-36-36zm72 0a8 8 0 0 0-8 8v56a8 8 0 0 0 8 8 8 8 0 0 0 8-8v-16h16a8 8 0 0 0 8-8 8 8 0 0 0-8-8h-16v-16h24a8 8 0 0 0 8-8 8 8 0 0 0-8-8zM56 160h8c6.722 0 12 5.278 12 12s-5.278 12-12 12h-8zm64 0h8c11.14 0 20 8.86 20 20s-8.86 20-20 20h-8z"/></svg>