<svg xmlns="http://www.w3.org/2000/svg" viewBox="0 0 256 256"><path d="M88 24c-8.742 0-16 7.258-16 16v16H56c-8.742 0-16 7.258-16 16v144c0 8.742 7.258 16 16 16h112c8.742 0 16-7.258 16-16v-16h16c8.742 0 16-7.258 16-16V72a8 8 0 0 0-2.344-5.656l-40-40A8 8 0 0 0 168 24zm0 16h76.686L200 75.314V184h-16v-80a8 8 0 0 0-2.344-5.656l-40-40A8 8 0 0 0 136 56H88zM56 72h76.686L168 107.314V216H56zm32 72a8 8 0 0 0-8 8 8 8 0 0 0 8 8h48a8 8 0 0 0 8-8 8 8 0 0 0-8-8zm0 32a8 8 0 0 0-8 8 8 8 0 0 0 8 8h48a8 8 0 0 0 8-8 8 8 0 0 0-8-8z"/></svg>