<svg xmlns="http://www.w3.org/2000/svg" viewBox="0 0 256 256"><path d="M56 20c-10.904 0-20 9.096-20 20v68a12 12 0 0 0 12 12 12 12 0 0 0 12-12V44h76v48a12 12 0 0 0 12 12h48v4a12 12 0 0 0 12 12 12 12 0 0 0 12-12V88a12 12 0 0 0-3.516-8.484l-56-56A12 12 0 0 0 152 20zm104 36.97L183.03 80H160zM40 140a12 12 0 0 0-12 12 12 12 0 0 0 12 12h8v44a12 12 0 0 0 12 12 12 12 0 0 0 12-12v-44h8a12 12 0 0 0 12-12 12 12 0 0 0-12-12zm136 0a12 12 0 0 0-12 12 12 12 0 0 0 12 12h8v44a12 12 0 0 0 12 12 12 12 0 0 0 12-12v-44h8a12 12 0 0 0 12-12 12 12 0 0 0-12-12zm-68.375.006a12 12 0 0 0-6.6 2.228 12 12 0 0 0-2.79 16.74L113.251 180l-15.018 21.025a12 12 0 0 0 2.791 16.74 12 12 0 0 0 16.74-2.79L128 200.646l10.234 14.329a12 12 0 0 0 16.74 2.79 12 12 0 0 0 2.792-16.74L142.748 180l15.018-21.025a12 12 0 0 0-2.791-16.74 12 12 0 0 0-8.948-2.07 12 12 0 0 0-7.793 4.86L128 159.354l-10.234-14.329a12 12 0 0 0-7.793-4.86 12 12 0 0 0-2.348-.16z"/></svg>