<svg xmlns="http://www.w3.org/2000/svg" viewBox="0 0 256 256"><path d="M56 20c-10.904 0-20 9.096-20 20v176c0 10.904 9.096 20 20 20h144c10.904 0 20-9.096 20-20V88a12 12 0 0 0-3.516-8.484l-56-56A12 12 0 0 0 152 20zm4 24h76v48a12 12 0 0 0 12 12h48v108H60zm100 12.97L183.03 80H160zM128 112a12 12 0 0 0-12 12v31.031l-3.516-3.515A12 12 0 0 0 104 148a12 12 0 0 0-8.484 3.516 12 12 0 0 0 0 16.968l24 24a12 12 0 0 0 .507.405 12 12 0 0 0 1.092.869 12 12 0 0 0 1.078.678 12 12 0 0 0 1.264.609 12 12 0 0 0 1.215.424 12 12 0 0 0 1.35.308 12 12 0 0 0 1.285.145A12 12 0 0 0 128 196a12 12 0 0 0 .693-.078 12 12 0 0 0 1.286-.145 12 12 0 0 0 1.35-.308 12 12 0 0 0 1.214-.424 12 12 0 0 0 1.264-.61 12 12 0 0 0 1.078-.677 12 12 0 0 0 1.092-.87 12 12 0 0 0 .507-.404l24-24a12 12 0 0 0 0-16.968 12 12 0 0 0-16.968 0L140 155.03V124a12 12 0 0 0-12-12z"/></svg>