<svg xmlns="http://www.w3.org/2000/svg" viewBox="0 0 256 256"><path d="M56 20c-10.904 0-20 9.096-20 20v176c0 10.904 9.096 20 20 20h144c10.904 0 20-9.096 20-20V88a12 12 0 0 0-3.516-8.484l-56-56A12 12 0 0 0 152 20zm4 24h76v48a12 12 0 0 0 12 12h48v108h-80v-20h8a12 12 0 0 0 12-12 12 12 0 0 0-12-12h-8v-16h8a12 12 0 0 0 12-12 12 12 0 0 0-12-12h-8v-12a12 12 0 0 0-12-12 12 12 0 0 0-12 12v12h-8a12 12 0 0 0-12 12 12 12 0 0 0 12 12h8v16h-8a12 12 0 0 0-12 12 12 12 0 0 0 12 12h8v20H60zm100 12.97L183.03 80H160z"/></svg>