<svg xmlns="http://www.w3.org/2000/svg" viewBox="0 0 256 256"><path d="M56 20c-10.904 0-20 9.096-20 20v176c0 10.904 9.096 20 20 20h144c10.904 0 20-9.096 20-20V88a12 12 0 0 0-3.516-8.484l-56-56A12 12 0 0 0 152 20zm4 24h76v48a12 12 0 0 0 12 12h48v108H60zm100 12.97L183.03 80H160zM128 112a12 12 0 0 0-2.516.283 12 12 0 0 0-.796.242 12 12 0 0 0-1.594.557 12 12 0 0 0-.897.479 12 12 0 0 0-1.283.808 12 12 0 0 0-.822.674 12 12 0 0 0-.576.473l-24 24a12 12 0 0 0 0 16.968 12 12 0 0 0 16.968 0L116 152.97V184a12 12 0 0 0 12 12 12 12 0 0 0 12-12v-31.031l3.516 3.515a12 12 0 0 0 16.968 0 12 12 0 0 0 0-16.968l-24-24a12 12 0 0 0-1.757-1.444l-.13-.086a12 12 0 0 0-2.005-1.072 12 12 0 0 0-2.153-.654l-.2-.04A12 12 0 0 0 128 112z"/></svg>