<svg xmlns="http://www.w3.org/2000/svg" viewBox="0 0 256 256"><path d="M56 20c-10.904 0-20 9.096-20 20v176c0 10.904 9.096 20 20 20h144c10.904 0 20-9.096 20-20V88a12 12 0 0 0-3.516-8.484l-56-56A12 12 0 0 0 152 20zm4 24h76v48a12 12 0 0 0 12 12h48v108H60zm100 12.97L183.03 80H160zM124 112c-19.74 0-36 16.26-36 36s16.26 36 36 36a35.5 35.5 0 0 0 15.484-3.547l12.032 12.031a12 12 0 0 0 16.968 0 12 12 0 0 0 0-16.968l-12.03-12.032A35.5 35.5 0 0 0 160 148c0-19.74-16.26-36-36-36zm0 24c6.77 0 12 5.23 12 12 0 3.191-1.171 6.032-3.11 8.152a12 12 0 0 0-.406.332 12 12 0 0 0-.332.407c-2.12 1.938-4.96 3.109-8.152 3.109-6.77 0-12-5.23-12-12s5.23-12 12-12z"/></svg>