<svg xmlns="http://www.w3.org/2000/svg" viewBox="0 0 256 256"><path d="M192.674 20.033a19.4 19.4 0 0 0-5.611.66l-63.528 16.76-.031.006-.027.01L64.64 52.992l-.036.006-.03.012-29.686 7.832c-10.527 2.68-17.023 13.773-14.21 24.265l.012.043L28 112.02V200c0 10.904 9.096 20 20 20h160c10.904 0 20-9.096 20-20v-88a12 12 0 0 0-12-12h-83.084l78.147-20.627a12 12 0 0 0 8.517-14.752l-8.16-30-.027-.1c-2.391-8.503-10.237-14.245-18.72-14.488zm-3.328 24.877 3.9 14.344-17.129 4.521-18.28-10.552zm-64.453 17.006 18.28 10.555-25.96 6.851-18.281-10.556zm-58.9 15.54 18.282 10.56-35.392 9.341L44.979 83zM52 124h152v72H52z"/></svg>