<svg xmlns="http://www.w3.org/2000/svg" viewBox="0 0 256 256"><path d="M192.59 24.023a15.6 15.6 0 0 0-4.485.532h-.005L124.555 41.32l-.016.002-.014.006-88.65 23.389C27.46 66.86 22.294 75.685 24.543 84.072l.008.028 7.508 27.603A8 8 0 0 0 32 112v88c0 8.742 7.258 16 16 16h160c8.742 0 16-7.258 16-16v-88a8 8 0 0 0-8-8H102.084l15.445-4.076.078-.022 58.856-15.535.014-.002 33.564-8.86a8 8 0 0 0 5.678-9.835l-8.16-30-.018-.065c-1.914-6.808-8.17-11.392-14.951-11.582zm-.426 16.008 6.002 22.06-22.621 5.971-28.113-16.23zm-66.697 17.596 28.115 16.232-36.941 9.75-28.114-16.236zm-58.9 15.541 28.117 16.238-48.618 12.832-6.005-22.078zM48 120h160v80H48z"/></svg>