<svg xmlns="http://www.w3.org/2000/svg" viewBox="0 0 256 256"><path d="M128 24C70.657 24 24 70.657 24 128s46.657 104 104 104h104a8 8 0 0 0 8-8 8 8 0 0 0-8-8h-48.68c29.216-18.433 48.68-50.978 48.68-88 0-57.343-46.657-104-104-104zm0 16c48.696 0 88 39.304 88 88s-39.304 88-88 88-88-39.304-88-88 39.304-88 88-88zm0 16c-13.16 0-24 10.84-24 24s10.84 24 24 24 24-10.84 24-24-10.84-24-24-24zm0 16c4.513 0 8 3.487 8 8s-3.487 8-8 8-8-3.487-8-8 3.487-8 8-8zm-48 32c-13.16 0-24 10.84-24 24s10.84 24 24 24 24-10.84 24-24-10.84-24-24-24zm96 0c-13.16 0-24 10.84-24 24s10.84 24 24 24 24-10.84 24-24-10.84-24-24-24zm-96 16c4.513 0 8 3.487 8 8s-3.487 8-8 8-8-3.487-8-8 3.487-8 8-8zm96 0c4.513 0 8 3.487 8 8s-3.487 8-8 8-8-3.487-8-8 3.487-8 8-8zm-48 32c-13.16 0-24 10.84-24 24s10.84 24 24 24 24-10.84 24-24-10.84-24-24-24zm0 16c4.513 0 8 3.487 8 8s-3.487 8-8 8-8-3.487-8-8 3.487-8 8-8z"/></svg>