<svg xmlns="http://www.w3.org/2000/svg" viewBox="0 0 256 256"><path d="M44 36C24.26 36 8 52.26 8 72v76c0 48.459 39.541 88 88 88h64c48.459 0 88-39.541 88-88V72c0-19.74-16.26-36-36-36-15.52 0-28.757 10.109-33.764 24H77.764C72.757 46.109 59.52 36 44 36zm0 24c6.77 0 12 5.23 12 12a12 12 0 0 0 12 12h120a12 12 0 0 0 12-12c0-6.77 5.23-12 12-12s12 5.23 12 12v76a63.82 63.82 0 0 1-64 64H96a63.82 63.82 0 0 1-64-64V72c0-6.77 5.23-12 12-12zm52 36c-28.6 0-52 23.4-52 52s23.4 52 52 52h64c28.6 0 52-23.4 52-52s-23.4-52-52-52zm0 24h64c15.72 0 28 12.28 28 28s-12.28 28-28 28H96c-15.72 0-28-12.28-28-28s12.28-28 28-28zm0 12a16 16 0 0 0-16 16 16 16 0 0 0 16 16 16 16 0 0 0 16-16 16 16 0 0 0-16-16zm64 0a16 16 0 0 0-16 16 16 16 0 0 0 16 16 16 16 0 0 0 16-16 16 16 0 0 0-16-16z"/></svg>