<svg xmlns="http://www.w3.org/2000/svg" viewBox="0 0 256 256"><path d="M184.479.014a8 8 0 0 0-4.057.83L134.01 24.05C90.84 25.115 56 60.579 56 104v104a8 8 0 0 0 8 8 8 8 0 0 0 8-8v-32h16v56c0 8.742 7.258 16 16 16h64c8.742 0 16-7.258 16-16V104c0-23.689-17.365-43.481-40-47.316V42.752l69.701 20.91a8 8 0 0 0 9.961-5.363 8 8 0 0 0-5.363-9.961L157.62 30.135l29.957-14.979a8 8 0 0 0 3.578-10.734A8 8 0 0 0 186.53.41a8 8 0 0 0-2.05-.396zM128 40.512v16.172C105.365 60.519 88 80.31 88 104v56H72v-56c0-32.728 24.362-59.568 56-63.488zM136 72a31.88 31.88 0 0 1 32 32v56h-64v-56a31.88 31.88 0 0 1 32-32zm-32 104h64v56h-64z"/></svg>