<svg xmlns="http://www.w3.org/2000/svg" viewBox="0 0 256 256"><path d="M24 56a8 8 0 0 0-8 8 8 8 0 0 0 8 8h16v24H24a8 8 0 0 0-8 8 8 8 0 0 0 8 8h128a8 8 0 0 0 8-8 8 8 0 0 0-8-8h-16V72h16a8 8 0 0 0 8-8 8 8 0 0 0-8-8zm160 0a8 8 0 0 0-8 8v100.336c-7.3 4.256-12.8 11.311-14.977 19.664h-50.046c-3.583-13.75-16.158-24-30.977-24s-27.394 10.25-30.977 24H32v-48a8 8 0 0 0-8-8 8 8 0 0 0-8 8v48c0 8.742 7.258 16 16 16h17.023c3.583 13.75 16.158 24 30.977 24s27.394-10.25 30.977-24h50.046c3.583 13.75 16.158 24 30.977 24s27.394-10.25 30.977-24H240c8.742 0 16-7.258 16-16v-64a8 8 0 0 0-.568-2.955l-.004-.016-14-35-.012-.029c-2.437-6.023-8.339-10.001-14.836-10H192v-8a8 8 0 0 0-8-8zM56 72h24v24H56zm40 0h24v24H96zm96 16h34.584l9.6 24H192zm0 40h48v56h-17.023c-3.583-13.75-16.158-24-30.977-24zM80 176c8.931 0 16 7.069 16 16s-7.069 16-16 16-16-7.069-16-16 7.069-16 16-16zm112 0c8.931 0 16 7.069 16 16s-7.069 16-16 16-16-7.069-16-16c0-6.975 4.32-12.796 10.463-15.02l.023-.01A16.2 16.2 0 0 1 192 176z"/></svg>