<svg xmlns="http://www.w3.org/2000/svg" viewBox="0 0 256 256"><path d="M180.492 24.04a182 182 0 0 0-7.842.03c-16.082.416-34.39 3.094-51.963 10.715-23.43 10.161-45.375 29.6-57.083 62.688-7.781 21.988-11.059 49.952-8.303 85.177a454 454 0 0 1-37.588-6.595 8 8 0 0 0-9.527 6.101 8 8 0 0 0 6.101 9.528c15.244 3.342 29.37 5.726 42.625 7.377 1.65 13.262 4.03 27.398 7.373 42.652a8 8 0 0 0 9.528 6.101 8 8 0 0 0 6.101-9.527 454 454 0 0 1-6.596-37.613c35.24 2.764 63.215-.51 85.21-8.291 33.087-11.705 52.526-33.65 62.687-57.078 10.16-23.43 11.536-48.166 10.476-67.192-.53-9.512-1.688-17.61-2.757-23.453a133 133 0 0 0-1.457-6.982 60 60 0 0 0-.54-2.102 21 21 0 0 0-.236-.79c-.087-.273.435.269-.806-1.843a8 8 0 0 0-2.856-2.85c-2.087-1.22-1.555-.71-1.826-.796s-.512-.156-.791-.235a60 60 0 0 0-2.102-.539c-1.708-.41-4.063-.922-6.984-1.457-5.843-1.07-13.942-2.228-23.455-2.757a193 193 0 0 0-7.389-.27zm-.26 16.003c2.322.037 4.58.12 6.76.242 8.722.486 16.19 1.554 21.463 2.52 1.688.309 2.72.555 3.924.818.263 1.202.508 2.234.816 3.92.966 5.272 2.034 12.74 2.52 21.46.971 17.443-.466 39.842-9.18 59.935-2.18 5.027-4.785 9.921-7.922 14.595-45.624-4.45-81.698-40.525-86.146-86.15 4.672-3.135 9.563-5.739 14.588-7.918 15.07-6.536 31.438-8.978 46.039-9.381 2.433-.067 4.817-.078 7.138-.041zM156 64a12 12 0 0 0-12 12 12 12 0 0 0 12 12 12 12 0 0 0 12-12 12 12 0 0 0-12-12zm-57.887 5.674c8.748 44.45 43.754 79.46 88.203 88.21-8.439 7.813-19.214 14.494-33.125 19.415-19.926 7.05-46.679 10.185-81.652 7.137-3.04-34.96.099-61.706 7.148-81.627 4.925-13.917 11.61-24.694 19.426-33.135z"/></svg>