<svg xmlns="http://www.w3.org/2000/svg" viewBox="0 0 256 256"><path d="M180.557 20.037c-2.599-.046-5.276-.04-8.018.03-16.452.419-35.243 3.156-53.441 11.048A106.7 106.7 0 0 0 97.15 43.906a12 12 0 0 0-.927.735C81.095 56.355 67.976 73.12 59.832 96.137c-7.646 21.606-11.09 48.45-8.969 81.83-10.184-1.487-20.788-3.296-32.293-5.819a12 12 0 0 0-14.29 9.153 12 12 0 0 0 9.15 14.29 478 478 0 0 0 39.949 7 478 478 0 0 0 7 39.977 12 12 0 0 0 14.289 9.155 12 12 0 0 0 9.154-14.291c-2.523-11.515-4.332-22.127-5.818-32.319 33.393 2.129 60.245-1.313 81.857-8.959 23-8.136 39.757-21.239 51.471-36.351a12 12 0 0 0 .793-1.006 106.7 106.7 0 0 0 12.76-21.9c10.523-24.264 11.88-49.585 10.799-69.006-.541-9.711-1.719-17.967-2.815-23.952a136 136 0 0 0-1.504-7.195 63 63 0 0 0-.576-2.244c-.087-.312-.166-.59-.277-.936s.687.506-1.168-2.648a12 12 0 0 0-4.285-4.275c-3.117-1.823-2.282-1.042-2.627-1.153a26 26 0 0 0-.936-.277 63 63 0 0 0-2.242-.576 136 136 0 0 0-7.197-1.504c-5.986-1.096-14.242-2.274-23.953-2.815a199 199 0 0 0-7.547-.279zm27.011 20.799c.047.031.094.074.086.049-.032-.102-.01-.04.022.076.024.085.09.356.129.506-.048-.11-.316-.567-.32-.608-.01-.075.037-.054.083-.023zm-27.402 3.207c2.266.034 4.473.116 6.604.234 8.523.475 15.833 1.524 20.964 2.463.548.1.767.167 1.264.264.097.495.162.712.262 1.258.94 5.13 1.988 12.441 2.463 20.965.95 17.046-.506 38.86-8.858 58.119a90 90 0 0 1-6.258 11.922c-41.814-5.172-74.705-38.064-79.875-79.88a90 90 0 0 1 11.914-6.253c14.445-6.264 30.327-8.647 44.557-9.047 2.372-.067 4.697-.08 6.963-.045zM156 60a16 16 0 0 0-16 16 16 16 0 0 0 16 16 16 16 0 0 0 16-16 16 16 0 0 0-16-16zM96.053 78.281c10.741 39.676 41.981 70.92 81.656 81.664-7.03 5.315-15.515 9.926-25.852 13.582-18.627 6.59-43.738 9.736-76.627 7.217-2.511-32.876.639-57.976 7.229-76.6 3.66-10.342 8.274-18.83 13.594-25.863z"/></svg>