<svg xmlns="http://www.w3.org/2000/svg" viewBox="0 0 256 256"><path d="M40 48c-8.742 0-16 7.258-16 16v136c0 8.742 7.258 16 16 16h80a8 8 0 0 0 8-8 8 8 0 0 0-8-8H40V64h53.33l29.871 22.4A8 8 0 0 0 128 88h88v32a8 8 0 0 0 8 8 8 8 0 0 0 8-8V88c0-8.742-7.258-16-16-16h-85.334L102.93 51.2a16 16 0 0 0-9.6-3.2zm144 72.002a8 8 0 0 0-3.025.594 8 8 0 0 0-4.32 4.234l-11.436 26.504-29.834 2.299a8 8 0 0 0-4.479 14.146l22.518 18.594-6.86 27.703a8 8 0 0 0 11.823 8.819L184 207.822l25.613 15.073a8 8 0 0 0 11.823-8.819l-6.86-27.703 22.518-18.594a8 8 0 0 0-4.479-14.146l-29.834-2.299-11.435-26.504a8 8 0 0 0-7.346-4.828zm0 28.193 6.004 13.914a8 8 0 0 0 6.732 4.807l14.885 1.147-11.115 9.18a8 8 0 0 0-2.672 8.089l3.498 14.125-13.275-7.812a8 8 0 0 0-8.114 0l-13.275 7.812 3.498-14.125a8 8 0 0 0-2.672-8.09l-11.115-9.18 14.885-1.146a8 8 0 0 0 6.732-4.807z"/></svg>