<svg xmlns="http://www.w3.org/2000/svg" viewBox="0 0 256 256"><path d="M40 40c-8.742 0-16 7.258-16 16v144.64c.023 8.38 6.98 15.337 15.36 15.36h81.2a8 8 0 0 0 8-8 8 8 0 0 0-8-8H40V88h176v32a8 8 0 0 0 8 8 8 8 0 0 0 8-8V88c0-8.742-7.258-16-16-16h-84.687l-27.317-27.316-.002-.004a16 16 0 0 0-11.3-4.68H40zm0 16h52.689l15.999 16H40zm152 88c-17.578 0-32 14.422-32 32 0 8.795 3.61 16.8 9.42 22.604-8.321 5.353-14.558 13.592-17.15 23.34a8 8 0 0 0 5.673 9.786 8 8 0 0 0 9.787-5.673C170.453 215.82 180.132 208 192 208s21.547 7.82 24.27 18.057a8 8 0 0 0 9.787 5.673 8 8 0 0 0 5.673-9.787c-2.592-9.747-8.828-17.986-17.15-23.34C220.39 192.8 224 184.796 224 176c0-17.578-14.422-32-32-32zm0 16c8.931 0 16 7.069 16 16s-7.069 16-16 16-16-7.069-16-16 7.069-16 16-16z"/></svg>