<svg xmlns="http://www.w3.org/2000/svg" viewBox="0 0 256 256"><path d="M40 40c-8.742 0-16 7.258-16 16v144.64c.023 8.38 6.98 15.337 15.36 15.36h73.2a8 8 0 0 0 8-8 8 8 0 0 0-8-8H40V88h176v16a8 8 0 0 0 8 8 8 8 0 0 0 8-8V88c0-8.742-7.258-16-16-16h-84.687l-27.317-27.316-.002-.004a16 16 0 0 0-11.3-4.68zm0 16h52.689l15.999 16H40zm148 72c-15.37 0-28 12.63-28 28v4h-8a8 8 0 0 0-8 8v40a8 8 0 0 0 8 8h72a8 8 0 0 0 8-8v-40a8 8 0 0 0-8-8h-8v-4c0-15.37-12.63-28-28-28zm0 16c6.722 0 12 5.278 12 12v4h-24v-4c0-6.722 5.278-12 12-12zm-28 32h56v24h-56z"/></svg>