<svg xmlns="http://www.w3.org/2000/svg" viewBox="0 0 256 256"><path d="M40 44c-10.904 0-20 9.096-20 20v136c0 10.904 9.096 20 20 20h64a12 12 0 0 0 12-12 12 12 0 0 0-12-12H44V68h47.996l26.674 20c3.46 2.595 7.674 4 12 4H212a12 12 0 0 0 12 12 12 12 0 0 0 12-12v-4c0-10.904-9.096-20-20-20h-83.996L105.33 48h-.002c-3.46-2.595-7.673-4-11.998-4zm148 72c-17.53 0-32 14.47-32 32v4h-4a12 12 0 0 0-12 12v44a12 12 0 0 0 12 12h72a12 12 0 0 0 12-12v-44a12 12 0 0 0-12-12h-4v-4c0-17.53-14.47-32-32-32zm0 24c4.56 0 8 3.44 8 8v4h-16v-4c0-4.56 3.44-8 8-8zm-24 36h48v20h-48z"/></svg>