<svg xmlns="http://www.w3.org/2000/svg" viewBox="0 0 256 256"><path d="M122.52 20.002C65.988 20.804 20.004 67.422 20 123.992V124a103.95 103.95 0 0 0 45.38 85.916A12 12 0 0 0 72.14 212h43.858c12.532.002 22.251-12.118 19.525-24.35a12 12 0 0 0-.21-.81l-2.036-6.84h17.577l9.949 33.67v.006c2.504 8.461 10.4 14.345 19.224 14.324H216c10.904 0 20-9.096 20-20v-32c0-10.904-9.096-20-20-20h-47.213l-4.728-16H216a12 12 0 0 0 12-12v-4c.005-57.871-47.615-104.822-105.48-103.998zm.34 23.996h.001c42.074-.6 76.71 31.03 80.735 72.002H116c-12.53-.001-22.249 12.118-19.523 24.35a12 12 0 0 0 .21.81L110.62 188H76.211C56.03 172.945 43.984 149.322 44 124.008V124c0-43.586 35.314-79.384 78.86-80.002zM121.38 140h17.653l4.729 16H126.14zm54.499 40H212v24h-29.03z"/></svg>