<svg xmlns="http://www.w3.org/2000/svg" viewBox="0 0 256 256"><path d="M80 32a8 8 0 0 0-8 8v48a8 8 0 0 0 8 8 8 8 0 0 0 8-8V40a8 8 0 0 0-8-8zm127.922 0a8 8 0 0 0-3.072.646c-31.846 13.649-46.371 48.417-53.627 78.477S144 168 144 168a8 8 0 0 0 8 8h48v48a8 8 0 0 0 8 8 8 8 0 0 0 8-8V40a8 8 0 0 0-8.078-8zm-161.11.09a8 8 0 0 0-6.703 6.596l-8 48A8 8 0 0 0 32 88c0 23.689 17.365 43.481 40 47.316V224a8 8 0 0 0 8 8 8 8 0 0 0 8-8v-88.684c22.635-3.835 40-23.627 40-47.316a8 8 0 0 0-.11-1.314l-8-48a8 8 0 0 0-9.204-6.577 8 8 0 0 0-6.577 9.205l7.85 47.098C111.735 105.982 97.627 120 80 120s-31.735-14.018-31.959-31.588l7.85-47.098a8 8 0 0 0-6.577-9.205 8 8 0 0 0-2.501-.02zM200 54.209V160h-39.572c.322-8.369 1.282-24.132 6.35-45.123 5.614-23.26 15.999-47.256 33.222-60.668z"/></svg>