<svg xmlns="http://www.w3.org/2000/svg" viewBox="0 0 256 256"><path d="M83.863 36c-30.94.069-57.537 22.45-62.892 52.924l.039-.215-16.36 84.14-.039.21c-3.019 17.141 5.485 34.38 20.924 42.418s34.438 5.115 46.748-7.19a12 12 0 0 0 .522-.555L111.33 164h33.34l38.525 43.732a12 12 0 0 0 .522.555c12.31 12.305 31.31 15.227 46.748 7.19 15.439-8.038 23.943-25.277 20.924-42.418l-.04-.21-16.359-84.14-.03-.08C229.555 58.804 203.325 36 172 36zm.053 24H172c22.234 0 40 17.767 40 40s-17.766 40-40 40h-66.09a12 12 0 0 0-9.004 4.068l-41.68 47.31c-4.972 4.903-12.406 6.038-18.609 2.81-6.233-3.245-9.583-10.037-8.369-16.958L44.57 93.291l.04-.215A39.874 39.874 0 0 1 83.915 60zM88 76a12 12 0 0 0-12 12v4h-4a12 12 0 0 0-12 12 12 12 0 0 0 12 12h4v4a12 12 0 0 0 12 12 12 12 0 0 0 12-12v-4h4a12 12 0 0 0 12-12 12 12 0 0 0-12-12h-4v-4a12 12 0 0 0-12-12zm64 16a12 12 0 0 0-12 12 12 12 0 0 0 12 12h24a12 12 0 0 0 12-12 12 12 0 0 0-12-12zm68.762 49.285 6.99 35.945c1.214 6.921-2.136 13.713-8.37 16.958-6.202 3.228-13.636 2.093-18.609-2.81l-24.275-27.556c17.68-1.243 33.414-9.753 44.264-22.537z"/></svg>