<svg xmlns="http://www.w3.org/2000/svg" viewBox="0 0 256 256"><path d="M123.307 24a16 16 0 0 0-11.301 4.68l-.002.004-10.344 10.343-10.344-10.343c-3.09-3.093-7.203-4.64-11.316-4.64s-8.229 1.547-11.32 4.642L44.684 52.684c-6.187 6.183-6.187 16.455.002 22.636l10.341 10.34-10.343 10.344-.004.002a16 16 0 0 0-4.68 11.3V216c0 8.742 7.258 16 16 16h144c8.742 0 16-7.258 16-16V40c0-8.742-7.258-16-16-16h-76.693zM80 39.994l.004.002L90.348 50.34 66.34 74.348 55.996 64.004 55.994 64l.002-.004 24-24zm43.31.006H200v176H56V107.311l15.988-15.989.026-.025 35.295-35.295.025-.025zM136 56a8 8 0 0 0-8 8 8 8 0 0 0 8 8h40a8 8 0 0 0 8-8 8 8 0 0 0-8-8zm-55.043 56.057a8 8 0 0 0-2.088.023 8 8 0 0 0-5.27 3.12 8 8 0 0 0 1.6 11.2l39.467 29.6-39.467 29.6a8 8 0 0 0-1.6 11.2 8 8 0 0 0 11.202 1.6L128 166l43.2 32.4a8 8 0 0 0 11.2-1.6 8 8 0 0 0-1.6-11.2L141.335 156l39.467-29.6a8 8 0 0 0 1.6-11.2 8 8 0 0 0-5.27-3.12 8 8 0 0 0-5.932 1.52L128 146l-43.2-32.4a8 8 0 0 0-3.843-1.543z"/></svg>