<svg xmlns="http://www.w3.org/2000/svg" viewBox="0 0 256 256"><path d="M95.102 20.05a12 12 0 0 0-4.946.583 116.6 116.6 0 0 0-38.011 21.48 12 12 0 0 0-4.245 9.104l-.138 31.334-27.793 15.797a12 12 0 0 0-5.842 8.105 111.1 111.1 0 0 0 0 43.113 12 12 0 0 0 5.834 8.102l27.824 15.846.106 31.326a12 12 0 0 0 4.26 9.13 116.6 116.6 0 0 0 38.023 21.403 12 12 0 0 0 9.676-.894l28.193-15.739 28.094 15.73a12 12 0 0 0 9.713.895 116.6 116.6 0 0 0 37.99-21.492 12 12 0 0 0 4.24-9.1l.139-31.334 27.79-15.796a12 12 0 0 0 5.843-8.106 111.2 111.2 0 0 0 0-43.115 12 12 0 0 0-5.832-8.1l-27.805-15.834-.106-31.328a12 12 0 0 0-4.26-9.13 116.6 116.6 0 0 0-38.023-21.403 12 12 0 0 0-9.681.898L128 37.26 99.855 21.525a12 12 0 0 0-4.753-1.474zm67.83 25.177a92.5 92.5 0 0 1 21.197 11.894l.101 30.12a12 12 0 0 0 1.866 6.384c.583.92 1.097 1.793 1.55 2.64a12 12 0 0 0 4.645 4.772l26.785 15.256a87 87 0 0 1 .002 23.367l-26.767 15.217a12 12 0 0 0-4.518 4.53 115 115 0 0 1-1.81 3.085 12 12 0 0 0-1.743 6.174l-.135 30.145a92.4 92.4 0 0 1-21.181 11.953l-27.012-15.125a12 12 0 0 0-5.861-1.53h-4a12 12 0 0 0-5.85 1.524l-27.129 15.14a92.5 92.5 0 0 1-21.2-11.894l-.102-30.12a12 12 0 0 0-1.866-6.384 41 41 0 0 1-1.55-2.64 12 12 0 0 0-4.645-4.772l-26.805-15.266a87 87 0 0 1-.002-23.369l26.768-15.217a12 12 0 0 0 4.517-4.527 117 117 0 0 1 1.811-3.086 12 12 0 0 0 1.742-6.174l.135-30.14a92.4 92.4 0 0 1 21.203-11.952l27.067 15.131A12 12 0 0 0 126 61.891h4a12 12 0 0 0 5.855-1.528zM128 76c-28.577 0-52 23.423-52 52s23.423 52 52 52 52-23.423 52-52-23.423-52-52-52zm0 24c15.606 0 28 12.394 28 28s-12.394 28-28 28-28-12.394-28-28 12.394-28 28-28z"/></svg>