<svg xmlns="http://www.w3.org/2000/svg" viewBox="0 0 256 256"><path d="M103.854 23.533a8 8 0 0 0-3.694.092A107.2 107.2 0 0 0 73.941 34.42a8 8 0 0 0-3.95 6.037L67.3 64.395a89 89 0 0 0-2.826 2.826l-23.948 2.69a8 8 0 0 0-6.03 3.94 107.4 107.4 0 0 0-10.858 26.256 8 8 0 0 0 1.48 7.045l15.035 18.828a90 90 0 0 0 0 3.999L25.11 148.807a8 8 0 0 0-1.48 7.05 107 107 0 0 0 10.883 26.25 8 8 0 0 0 5.988 3.928l23.98 2.81a89 89 0 0 0 2.84 2.839l2.69 23.949a8 8 0 0 0 3.955 6.037 107.4 107.4 0 0 0 26.256 10.805 8 8 0 0 0 7.03-1.483l18.83-15.037q1.997.045 3.995 0L148.906 231a8 8 0 0 0 7.051 1.48 107 107 0 0 0 26.25-10.882 8 8 0 0 0 3.934-6.024l2.69-23.941a89 89 0 0 0 2.823-2.824l23.95-2.69a8 8 0 0 0 6.037-3.953 107.4 107.4 0 0 0 10.804-26.256 8 8 0 0 0-1.484-7.033l-15.035-18.828q.045-1.999 0-3.996l15.045-18.828a8 8 0 0 0 1.48-7.051 107 107 0 0 0-10.883-26.25 8 8 0 0 0-6.025-3.934l-23.938-2.69a89 89 0 0 0-2.826-2.825l-2.69-23.948a8 8 0 0 0-3.94-6.03 107.4 107.4 0 0 0-26.256-10.858 8 8 0 0 0-7.045 1.48L130.02 40.154a90 90 0 0 0-3.999 0L107.193 25.11a8 8 0 0 0-3.34-1.576zM100.6 40.32l17.607 14.07a8 8 0 0 0 5.465 1.737c2.896-.171 5.8-.171 8.695 0a8 8 0 0 0 5.465-1.736l17.602-14.057a91 91 0 0 1 15.242 6.305l2.513 22.384a8 8 0 0 0 2.641 5.09 73 73 0 0 1 6.137 6.137 8 8 0 0 0 5.09 2.64l22.382 2.516a91 91 0 0 1 6.313 15.23l-14.063 17.6a8 8 0 0 0-1.736 5.467 74 74 0 0 1 0 8.693 8 8 0 0 0 1.736 5.465l14.063 17.61a91 91 0 0 1-6.27 15.236l-22.375 2.514a8 8 0 0 0-5.09 2.638 73 73 0 0 1-6.138 6.137 8 8 0 0 0-2.639 5.09l-2.515 22.38a91 91 0 0 1-15.23 6.317l-17.6-14.062a8 8 0 0 0-5.467-1.737 73 73 0 0 1-8.696 0 8 8 0 0 0-5.464 1.735l-17.61 14.062a91 91 0 0 1-15.234-6.267l-2.514-22.377a8 8 0 0 0-2.639-5.09 73 73 0 0 1-6.138-6.137 8 8 0 0 0-5.053-2.637l-22.428-2.627a91 91 0 0 1-6.326-15.253l14.065-17.6a8 8 0 0 0 1.736-5.465 74 74 0 0 1 0-8.695 8 8 0 0 0-1.736-5.465l-14.057-17.602a91 91 0 0 1 6.305-15.242l22.384-2.513a8 8 0 0 0 5.09-2.641 73 73 0 0 1 6.137-6.137 8 8 0 0 0 2.64-5.09l2.514-22.367A91 91 0 0 1 100.6 40.32zM128 80c-26.415 0-48 21.585-48 48s21.585 48 48 48 48-21.585 48-48-21.585-48-48-48zm0 16a31.88 31.88 0 0 1 32 32 31.88 31.88 0 0 1-32 32 31.88 31.88 0 0 1-32-32 31.88 31.88 0 0 1 32-32z"/></svg>