<svg xmlns="http://www.w3.org/2000/svg" viewBox="0 0 256 256"><path d="M64 60c-24.158 0-44 19.842-44 44v48c0 24.158 19.842 44 44 44s44-19.842 44-44v-24a12 12 0 0 0-12-12H72a12 12 0 0 0-12 12 12 12 0 0 0 12 12h12v12c0 11.188-8.812 20-20 20s-20-8.812-20-20v-48c0-11.188 8.812-20 20-20 9.437 0 18.308 6.938 20.379 14.99a12 12 0 0 0 14.611 8.631 12 12 0 0 0 8.631-14.611C102.592 73.462 84.383 60 64 60zm72 0a12 12 0 0 0-12 12v112a12 12 0 0 0 12 12 12 12 0 0 0 12-12V72a12 12 0 0 0-12-12zm40 0a12 12 0 0 0-12 12v112a12 12 0 0 0 12 12 12 12 0 0 0 12-12v-44h36a12 12 0 0 0 12-12 12 12 0 0 0-12-12h-36V84h44a12 12 0 0 0 12-12 12 12 0 0 0-12-12z"/></svg>