<svg xmlns="http://www.w3.org/2000/svg" viewBox="0 0 256 256"><path d="M72 28c-19.74 0-36 16.26-36 36 0 15.54 10.08 28.917 24 33.908v60.184C46.08 163.083 36 176.46 36 192c0 19.74 16.26 36 36 36s36-16.26 36-36c0-15.54-10.08-28.917-24-33.908V97.908C97.92 92.917 108 79.54 108 64c0-19.74-16.26-36-36-36zm72 8a12 12 0 0 0-2.908.385 12 12 0 0 0-.871.304 12 12 0 0 0-1.856.768 12 12 0 0 0-.93.584 12 12 0 0 0-1.466 1.127 12 12 0 0 0-.453.348 12 12 0 0 0-.282.386 12 12 0 0 0-1.691 2.327 12 12 0 0 0-.268.43 12 12 0 0 0-1.03 3.175 12 12 0 0 0-.095.83A12 12 0 0 0 132 48v48a12 12 0 0 0 12 12 12 12 0 0 0 12-12V76.969l30.824 30.826.004.004a3.98 3.98 0 0 1 1.172 2.83v47.462c-13.92 4.992-24 18.369-24 33.909 0 19.74 16.26 36 36 36s36-16.26 36-36c0-15.54-10.08-28.917-24-33.908V110.63a28.02 28.02 0 0 0-8.205-19.807l-.002-.002L172.969 60H192a12 12 0 0 0 12-12 12 12 0 0 0-12-12zM72 52c6.77 0 12 5.23 12 12s-5.23 12-12 12-12-5.23-12-12 5.23-12 12-12zm0 128c6.77 0 12 5.23 12 12s-5.23 12-12 12-12-5.23-12-12 5.23-12 12-12zm128 0c6.77 0 12 5.23 12 12s-5.23 12-12 12-12-5.23-12-12 5.23-12 12-12z"/></svg>