<svg xmlns="http://www.w3.org/2000/svg" viewBox="0 0 256 256"><path d="M72 32c-17.578 0-32 14.422-32 32 0 14.819 10.25 27.394 24 30.977v66.046C50.25 164.606 40 177.181 40 192c0 17.578 14.422 32 32 32s32-14.422 32-32c0-14.819-10.25-27.394-24-30.977V94.977C93.75 91.394 104 78.819 104 64c0-17.578-14.422-32-32-32zm72 8a8 8 0 0 0-2.717.541 8 8 0 0 0-.635.264 8 8 0 0 0-2.304 1.539 8 8 0 0 0-1.54 2.304 8 8 0 0 0-.263.635A8 8 0 0 0 136 48v48a8 8 0 0 0 8 8 8 8 0 0 0 8-8V67.313l37.652 37.654.002.002a8 8 0 0 1 2.346 5.66v50.394c-13.75 3.583-24 16.158-24 30.977 0 17.578 14.422 32 32 32s32-14.422 32-32c0-14.819-10.25-27.394-24-30.977v-50.392a24 24 0 0 0-7.033-16.979l-.002-.002L163.313 56H192a8 8 0 0 0 8-8 8 8 0 0 0-8-8zm-72 8c8.931 0 16 7.069 16 16s-7.069 16-16 16-16-7.069-16-16 7.069-16 16-16zm0 128c8.931 0 16 7.069 16 16s-7.069 16-16 16-16-7.069-16-16 7.069-16 16-16zm128 0c8.931 0 16 7.069 16 16s-7.069 16-16 16-16-7.069-16-16 7.069-16 16-16z"/></svg>