<svg xmlns="http://www.w3.org/2000/svg" viewBox="0 0 256 256"><path d="m128 24-.232.04c-26.977.072-53.484 10.606-73.303 30.425-19.79 19.789-30.29 46.246-30.395 73.18A8 8 0 0 0 24 128a8 8 0 0 0 .06.307c.033 13.308 2.568 26.72 7.858 39.492C48.006 206.639 85.959 232 128 232a8 8 0 0 0 .352-.094 8 8 0 0 0 3.578-.959 8 8 0 0 0 .322-.271 8 8 0 0 0 1.994-1.678 8 8 0 0 0 .668-.984l.016-.024a8 8 0 0 0 1.05-3.918L136 224a8 8 0 0 0-.033-.38 8 8 0 0 0-.067-.772 8 8 0 0 0-.107-.56 8 8 0 0 0-.2-.737 8 8 0 0 0-.193-.537 8 8 0 0 0-.328-.705 8 8 0 0 0-.265-.483 8 8 0 0 0-.453-.646 8 8 0 0 0-.338-.436 8 8 0 0 0-.577-.576 8 8 0 0 0-.373-.352l-.068-.062S99.289 191.21 96.244 136H224a8 8 0 0 0 3.588-.96 8 8 0 0 0 .908-.608 8 8 0 0 0 1.936-1.936 8 8 0 0 0 .607-.908A8 8 0 0 0 232 128c0-42.041-25.36-79.994-64.201-96.082a103.8 103.8 0 0 0-37.508-7.887c-.69-.015-1.377.01-2.066.008zm20.086 18.352c4.59 1.078 9.138 2.502 13.592 4.347 30.416 12.599 50.979 40.954 53.92 73.301H175.77c-1.873-36.276-16.124-62.257-27.685-77.648zm-40.193.027C96.335 57.774 82.1 83.745 80.229 120H40.414c1.835-20.068 10.491-39.35 25.363-54.223C77.625 53.93 92.281 46.046 107.893 42.38zm20.107.617c9.261 9.375 29.48 34.352 31.777 77.004H96.223C98.519 77.348 118.739 52.37 128 42.996zM40.367 136H80.23c1.874 36.295 16.138 62.283 27.703 77.672-27.205-6.363-50.229-25.427-61.233-51.994A88 88 0 0 1 40.367 136zM168 160a8 8 0 0 0-5.656 2.344 8 8 0 0 0 0 11.312L180.688 192l-18.344 18.344a8 8 0 0 0 0 11.312 8 8 0 0 0 11.312 0L192 203.312l18.344 18.344a8 8 0 0 0 11.312 0 8 8 0 0 0 0-11.312L203.312 192l18.344-18.344a8 8 0 0 0 0-11.312A8 8 0 0 0 216 160a8 8 0 0 0-5.656 2.344L192 180.688l-18.344-18.344A8 8 0 0 0 168 160z"/></svg>