<svg xmlns="http://www.w3.org/2000/svg" viewBox="0 0 256 256"><path d="M128 20c-25.242 0-48.484 8.75-66.902 23.342a12 12 0 0 0-1.159.91C35.596 64.079 20 94.265 20 128c0 59.505 48.496 108 108 108 41.12 0 76.97-23.164 95.205-57.11l.106-.122a12 12 0 0 0 .933-1.899C231.742 162.18 236 145.578 236 128c0-51.284-36.034-94.362-84.08-105.293l-.147-.062a12 12 0 0 0-.343-.051A107.7 107.7 0 0 0 128 20zm0 24c4.343 0 8.606.327 12.768.957l6.212 11.133-24.21 21.883L111.81 84H96.159a20.05 20.05 0 0 0-17.35 10l-.02.037-4.505 7.865-6.607-17.62 9.992-23.628C91.678 50.187 109.091 44 128 44zm43.98 12.357C196.022 71.104 212 97.616 212 128a84.3 84.3 0 0 1-4.428 26.998l-40.574-24.959-.043-.025a20.1 20.1 0 0 0-7.736-2.752l-.024-.004-22.814-3.08h-.006a20 20 0 0 0-3.26-.168c-6.067.188-11.76 3.164-15.398 7.98h-4.069l-2.703-5.597-.01-.022a20.02 20.02 0 0 0-13.79-10.822l-.008-.002-2.682-.576L98.447 108h14.383a19.9 19.9 0 0 0 9.723-2.52l12.133-6.673a19 19 0 0 0 4.001-2.873l-.15.138 26.92-24.33.027-.025c4.394-3.997 6.64-9.673 6.496-15.36zM48.373 101.16l7.772 20.723.007.021a20.04 20.04 0 0 0 14.524 12.5l2.678.576.144.032 16.691 3.59 2.944 6.095.01.018c2.669 5.506 7.714 9.42 13.54 10.762l-4.954 11.119-.002.004c-3.24 7.28-1.816 15.879 3.6 21.724l.194.205 18.168 18.713-.882 4.584C78.712 209.16 44 172.788 44 128c0-9.398 1.55-18.416 4.373-26.84zm87.758 47.203 19.023 2.569 41.514 25.535c-11.565 16.39-28.85 28.413-49.01 33.215a20.03 20.03 0 0 0-5.002-17.354l-.177-.187-17.723-18.254z"/></svg>