<svg xmlns="http://www.w3.org/2000/svg" viewBox="0 0 256 256"><path d="M128 24c-45.012 0-83.428 28.754-97.873 68.854a8 8 0 0 0-.096.285A103.5 103.5 0 0 0 24 128c0 12.225 2.139 23.956 6.031 34.861a8 8 0 0 0 .096.285C44.572 203.246 82.987 232 128 232c45.012 0 83.428-28.754 97.873-68.854a8 8 0 0 0 .096-.285A103.5 103.5 0 0 0 232 128c0-11.88-2.03-23.287-5.715-33.93a8 8 0 0 0-.48-1.414C211.305 52.66 172.939 24 128 24zm-20.055 18.31C100.118 52.724 91.06 67.942 85.42 88H49.586c11.61-22.77 32.825-39.762 58.36-45.69zm40.11 0c25.534 5.928 46.75 22.92 58.36 45.69H170.58c-5.639-20.059-14.698-35.277-22.525-45.69zM128 42.997c6.639 6.72 18.893 21.488 26.158 45.004h-52.316c7.265-23.516 19.52-38.284 26.158-45.004zM43.324 104h38.572A151 151 0 0 0 80 128c0 8.523.693 16.521 1.896 24H43.324A88.3 88.3 0 0 1 40 128c0-8.328 1.174-16.37 3.324-24zm54.682 0h59.988c1.263 7.347 2.006 15.337 2.006 24s-.743 16.653-2.006 24H98.006C96.743 144.653 96 136.663 96 128s.743-16.653 2.006-24zm76.098 0h38.572A88.3 88.3 0 0 1 216 128c0 8.328-1.174 16.37-3.324 24h-38.572A151 151 0 0 0 176 128c0-8.523-.693-16.521-1.896-24zM49.586 168H85.42c5.639 20.059 14.698 35.277 22.525 45.69-25.534-5.928-46.75-22.92-58.36-45.69zm52.256 0h52.316c-7.265 23.516-19.52 38.284-26.158 45.004-6.639-6.72-18.893-21.488-26.158-45.004zm68.738 0h35.834c-11.61 22.77-32.825 39.762-58.36 45.69 7.828-10.413 16.887-25.631 22.526-45.69z"/></svg>