<svg xmlns="http://www.w3.org/2000/svg" viewBox="0 0 256 256"><path d="m128 24-.232.04c-26.977.072-53.484 10.606-73.303 30.425a103.8 103.8 0 0 0-24.303 38.338 8 8 0 0 0-.129.324 104 104 0 0 0-.25 68.916 8 8 0 0 0 .404 1.088c.56 1.56 1.092 3.126 1.731 4.668C48.006 206.639 85.959 232 128 232a8 8 0 0 0 .352-.094 8 8 0 0 0 3.578-.959 8 8 0 0 0 .322-.271 8 8 0 0 0 1.994-1.678 8 8 0 0 0 .668-.984l.016-.024a8 8 0 0 0 1.05-3.918L136 224a8 8 0 0 0-.033-.38 8 8 0 0 0-.067-.772 8 8 0 0 0-.107-.56 8 8 0 0 0-.2-.737 8 8 0 0 0-.193-.537 8 8 0 0 0-.328-.705 8 8 0 0 0-.265-.483 8 8 0 0 0-.453-.646 8 8 0 0 0-.338-.436 8 8 0 0 0-.577-.576 8 8 0 0 0-.373-.352l-.068-.062S112.351 201.51 101.906 168H128a8 8 0 0 0 8-8 8 8 0 0 0-8-8H98.06A139 139 0 0 1 96 128c0-8.663.743-16.653 2.006-24h59.988c1.263 7.347 2.006 15.337 2.006 24a8 8 0 0 0 8 8 8 8 0 0 0 8-8c0-8.523-.693-16.521-1.896-24h38.519c2.18 7.69 3.377 15.742 3.377 24a8 8 0 0 0 8 8 8 8 0 0 0 8-8c0-11.625-2.002-22.911-5.629-33.535a8 8 0 0 0-.738-2.123c-9.82-26.85-30.45-49.082-57.834-60.424a103.8 103.8 0 0 0-37.508-7.887c-.69-.015-1.377.01-2.066.008zm20.086 18.352c4.59 1.078 9.138 2.502 13.592 4.347 19.76 8.185 35.332 23.044 44.656 41.301H170.58c-5.632-20.033-14.674-35.237-22.494-45.648zm-40.193.027C100.077 52.789 91.047 67.985 85.42 88H49.654c4.12-8.065 9.49-15.59 16.123-22.223C77.625 53.93 92.281 46.046 107.893 42.38zm20.107.617c6.639 6.72 18.893 21.488 26.158 45.004h-52.316c7.265-23.516 19.52-38.284 26.158-45.004zM43.35 104h38.546A151 151 0 0 0 80 128c0 8.523.693 16.521 1.896 24H43.395c-4.518-15.904-4.438-32.509-.045-48zM168 160a8 8 0 0 0-5.656 2.344 8 8 0 0 0 0 11.312L180.688 192l-18.344 18.344a8 8 0 0 0 0 11.312 8 8 0 0 0 11.312 0L192 203.312l18.344 18.344a8 8 0 0 0 11.312 0 8 8 0 0 0 0-11.312L203.312 192l18.344-18.344a8 8 0 0 0 0-11.312A8 8 0 0 0 216 160a8 8 0 0 0-5.656 2.344L192 180.688l-18.344-18.344A8 8 0 0 0 168 160zm-118.373 8H85.42c5.636 20.047 14.687 35.26 22.512 45.672-24.993-5.846-46.448-22.415-58.305-45.672z"/></svg>