<svg xmlns="http://www.w3.org/2000/svg" viewBox="0 0 256 256"><path d="M76 60C34.169 60 0 94.169 0 136v4c0 9.386 5.592 17.606 13.572 21.535 3.541 10.52 12.61 18.048 21.694 23.42C46.888 191.83 59.92 196 72 196c20.003 0 37.033-13.607 42.305-32h27.39c5.272 18.393 22.302 32 42.305 32 12.079 0 25.112-4.17 36.734-11.045 9.083-5.372 18.153-12.9 21.694-23.42C250.408 157.606 256 149.386 256 140v-4c0-41.831-34.169-76-76-76zm0 24h104a51.77 51.77 0 0 1 51.09 42.412c-3.23-2.818-6.793-5.26-10.356-7.367C209.112 112.17 196.08 108 184 108c-20.003 0-37.033 13.607-42.305 32h-27.39c-5.272-18.393-22.302-32-42.305-32-12.079 0-25.112 4.17-36.734 11.045-3.563 2.107-7.125 4.549-10.356 7.367A51.77 51.77 0 0 1 76 84zm-4 48c11.188 0 20 8.812 20 20s-8.812 20-20 20c-5.591 0-16.558-2.995-24.518-7.703S36 153.969 36 152s3.523-7.589 11.482-12.297C55.442 134.995 66.41 132 72 132zm112 0c5.591 0 16.558 2.995 24.518 7.703S220 150.031 220 152s-3.523 7.589-11.482 12.297C200.558 169.005 189.59 172 184 172c-11.188 0-20-8.812-20-20s8.812-20 20-20z"/></svg>