<svg xmlns="http://www.w3.org/2000/svg" viewBox="0 0 256 256"><path d="M128 20c-37.413 0-68 30.587-68 68v24c0 37.413 30.587 68 68 68 16.75 0 32.119-6.143 44-16.271V168c0 24.443-19.557 44-44 44-15.004 0-30.64-8.085-38.158-18.865a12 12 0 0 0-16.707-2.977 12 12 0 0 0-2.977 16.707C82.88 225.105 105.004 236 128 236c37.413 0 68-30.587 68-68V32a12 12 0 0 0-12-12 12 12 0 0 0-12 12v4.271C160.119 26.143 144.75 20 128 20zm0 24c24.443 0 44 19.557 44 44v24c0 24.443-19.557 44-44 44s-44-19.557-44-44V88c0-24.443 19.557-44 44-44z"/></svg>