<svg xmlns="http://www.w3.org/2000/svg" viewBox="0 0 256 256"><path d="M127.992 12A12 12 0 0 0 116 24v33.326a76.2 76.2 0 0 0-29.926-5.334 75.9 75.9 0 0 0-31.004 7.473C28.752 72.118 11.982 98.806 12 128.008A12 12 0 0 0 24 140h33.322c-7.685 19.417-7.184 41.53 2.143 60.93 12.653 26.318 39.341 43.088 68.543 43.07A12 12 0 0 0 140 232v-33.322c19.417 7.685 41.53 7.184 60.93-2.143 26.318-12.653 43.088-39.341 43.07-68.543A12 12 0 0 0 232 116h-33.322c7.685-19.417 7.184-41.53-2.143-60.93-12.653-26.318-39.341-43.088-68.543-43.07zM140 37.508c15.063 3.561 28.008 13.616 34.904 27.96 7.873 16.377 6.571 35.457-3.082 50.532H140zM86.691 75.967c10.251-.26 20.464 2.547 29.309 8.21V116H37.508c3.561-15.063 13.616-28.008 27.96-34.904a52 52 0 0 1 21.223-5.13zM84.178 140H116v78.492c-15.063-3.561-28.008-13.616-34.904-27.96-7.873-16.377-6.571-35.457 3.082-50.532zM140 140h78.492c-3.561 15.063-13.616 28.008-27.96 34.904-16.377 7.873-35.457 6.571-50.532-3.082z"/></svg>