<svg xmlns="http://www.w3.org/2000/svg" viewBox="0 0 256 256"><path d="M128 8a8 8 0 0 0-8 8v32a8 8 0 0 0 8 8 8 8 0 0 0 8-8V16a8 8 0 0 0-8-8zM80 56a8 8 0 0 0-8 8v56a8 8 0 0 0 8 8 8 8 0 0 0 8-8V64a8 8 0 0 0-8-8zm96 0a8 8 0 0 0-8 8v32a8 8 0 0 0 8 8 8 8 0 0 0 8-8V64a8 8 0 0 0-8-8zm-48 24a8 8 0 0 0-8 8v80a8 8 0 0 0 8 8 8 8 0 0 0 8-8V88a8 8 0 0 0-8-8zm-96 24a8 8 0 0 0-8 8v32a8 8 0 0 0 8 8 8 8 0 0 0 8-8v-32a8 8 0 0 0-8-8zm192 0a8 8 0 0 0-8 8v32a8 8 0 0 0 8 8 8 8 0 0 0 8-8v-32a8 8 0 0 0-8-8zm-48 24a8 8 0 0 0-8 8v56a8 8 0 0 0 8 8 8 8 0 0 0 8-8v-56a8 8 0 0 0-8-8zm-96 24a8 8 0 0 0-8 8v32a8 8 0 0 0 8 8 8 8 0 0 0 8-8v-32a8 8 0 0 0-8-8zm48 48a8 8 0 0 0-8 8v32a8 8 0 0 0 8 8 8 8 0 0 0 8-8v-32a8 8 0 0 0-8-8z"/></svg>