<svg xmlns="http://www.w3.org/2000/svg" viewBox="0 0 256 256"><path d="M96 20c-19.74 0-36 16.26-36 36s16.26 36 36 36c.948 0 1.884-.05 2.814-.123l4.471 10.064C96.355 108.521 92 117.791 92 128c0 4.782.963 9.357 2.69 13.549L73.353 160.52A35.6 35.6 0 0 0 56 156c-19.74 0-36 16.26-36 36s16.26 36 36 36 36-16.26 36-36c0-4.782-.963-9.357-2.69-13.549l21.336-18.972A35.6 35.6 0 0 0 128 164c7.108 0 13.758-2.117 19.367-5.736l19.694 15.32A35.5 35.5 0 0 0 164 188c0 19.74 16.26 36 36 36s36-16.26 36-36-16.26-36-36-36c-5.9 0-11.485 1.461-16.422 4.025l-21.445-16.681a35.5 35.5 0 0 0 1.85-10.688l10.408-3.47C180.94 131.842 190.023 136 200 136c19.74 0 36-16.26 36-36s-16.26-36-36-36-36 16.26-36 36c0 1.111.06 2.21.16 3.297l-7.836 2.611C149.71 97.47 139.443 92 128 92c-.948 0-1.884.05-2.814.123l-4.471-10.064C127.645 75.479 132 66.209 132 56c0-19.74-16.26-36-36-36zm0 24c6.77 0 12 5.23 12 12 0 4.893-2.74 8.968-6.81 10.86a12 12 0 0 0-.311.103 12 12 0 0 0-.287.162A12.4 12.4 0 0 1 96 68c-6.77 0-12-5.23-12-12s5.23-12 12-12zm104 44c6.77 0 12 5.23 12 12s-5.23 12-12 12-12-5.23-12-12 5.23-12 12-12zm-72 28c5.364 0 9.75 3.29 11.346 8.021l.04.184.096.217c.336 1.125.518 2.324.518 3.578 0 2.631-.797 5.023-2.16 6.973a12 12 0 0 0-.371.39 12 12 0 0 0-.281.46C135.01 138.395 131.742 140 128 140c-3.312 0-6.25-1.257-8.393-3.328a12 12 0 0 0-.58-.707 12 12 0 0 0-.416-.385c-1.64-2.048-2.611-4.67-2.611-7.58 0-4.893 2.74-8.968 6.81-10.86a12 12 0 0 0 .311-.103 12 12 0 0 0 .47-.228A12.4 12.4 0 0 1 128 116zm72 60c6.77 0 12 5.23 12 12s-5.23 12-12 12-12-5.23-12-12 5.23-12 12-12zm-144 4c3.455 0 6.504 1.368 8.666 3.602a12 12 0 0 0 .307.433 12 12 0 0 0 .392.352C67.021 186.439 68 189.074 68 192c0 6.77-5.23 12-12 12s-12-5.23-12-12 5.23-12 12-12z"/></svg>