<svg xmlns="http://www.w3.org/2000/svg" viewBox="0 0 256 256"><path d="M104 32c-16.39 0-30.031 12.54-31.8 28.484C67.433 57.657 61.904 56 56 56c-17.578 0-32 14.422-32 32v40c0 57.343 46.657 104 104 104s104-46.657 104-104v-16c0-17.578-14.422-32-32-32h-16V64c0-17.578-14.422-32-32-32-9.527 0-18.12 4.241-24 10.92C122.12 36.24 113.527 32 104 32zm0 16c8.931 0 16 7.069 16 16v40c0 8.931-7.069 16-16 16s-16-7.069-16-16V64c0-8.931 7.069-16 16-16zm48 0c8.931 0 16 7.069 16 16v16h-32V64c0-8.931 7.069-16 16-16zM56 72c8.931 0 16 7.069 16 16v16c0 8.931-7.069 16-16 16s-16-7.069-16-16V88c0-8.931 7.069-16 16-16zm80 24h64c8.931 0 16 7.069 16 16v16c0 48.696-39.304 88-88 88-47.474 0-85.915-37.386-87.818-84.383C44.873 134.327 50.23 136 56 136c9.528 0 18.105-4.258 23.984-10.937C85.864 131.75 94.464 136 104 136c7.84 0 15.05-2.874 20.635-7.613a32.8 32.8 0 0 0 12.095 11.529C126.577 148.732 120 161.568 120 176a8 8 0 0 0 8 8 8 8 0 0 0 8-8 31.88 31.88 0 0 1 32-32 8 8 0 0 0 0-16h-16c-8.931 0-16-7.069-16-16V96z"/></svg>