<svg xmlns="http://www.w3.org/2000/svg" viewBox="0 0 256 256"><path d="M116 12c-39.622 0-72 32.378-72 72a12 12 0 0 0 12 12 12 12 0 0 0 12-12 47.82 47.82 0 0 1 48-48 47.82 47.82 0 0 1 48 48 12 12 0 0 0 12 12 12 12 0 0 0 12-12c0-39.622-32.378-72-72-72zm0 40c-17.53 0-32 14.47-32 32v66.914c-9.867-11.079-26.652-14.18-39.934-6.512-15.113 8.726-20.443 28.36-11.818 43.53l.154.263 25.32 42a12 12 0 0 0 16.473 4.082 12 12 0 0 0 4.082-16.472L53.105 176.05c-2.229-3.94-.962-8.598 2.961-10.863 3.93-2.269 8.608-1.033 10.903 2.88a12 12 0 0 0 .164.276l18.68 30A12.001 12.001 0 0 0 108 192V84c0-4.56 3.44-8 8-8s8 3.44 8 8v56a12.001 12.001 0 0 0 24 0c0-4.56 3.44-8 8-8s8 3.44 8 8v16a12.001 12.001 0 0 0 24 0c0-4.56 3.44-8 8-8s8 3.44 8 8v36c0 12.828-1.756 23.14-3.424 28.328a12 12 0 0 0 7.752 15.096 12 12 0 0 0 15.096-7.752C226.256 218.86 228 206.852 228 192v-36c0-17.53-14.47-32-32-32-3.983 0-7.771.833-11.305 2.193C179.483 115.508 168.58 108 156 108c-2.774 0-5.425.477-8 1.156V84c0-17.53-14.47-32-32-32z"/></svg>