<svg xmlns="http://www.w3.org/2000/svg" viewBox="0 0 256 256"><path d="M117.48 7.771a29.6 29.6 0 0 0-15.062 3.965 29.5 29.5 0 0 0-8.512 7.416 30.6 30.6 0 0 0-11.162-3.02c-5.776-.42-11.718.806-17.053 3.886-13.08 7.55-18.327 23.83-12.707 37.462a29.5 29.5 0 0 0-5.763 2.538C32.994 68.23 28.025 86.773 36.238 101l.31.537a29.5 29.5 0 0 0-5.548 2.48C16.773 112.232 11.805 130.774 20.018 145l.003.006 9.588 16.586 25.627 44.406.002.002c23.125 40.054 74.692 53.873 114.746 30.748 21.382-12.344 35.28-32.795 40.08-55.271 23.991-26.912 28.193-66.467 10.026-97.91l-21.084-36.561-.004-.006c-5.133-8.892-14.3-14.166-23.928-14.867-5.776-.42-11.72.805-17.054 3.885a29.5 29.5 0 0 0-4.89 3.533l-9.571-16.557.11.195c-5.032-9.095-14.263-14.545-23.993-15.322q-1.095-.087-2.196-.096zm.438 23.893c1.92.128 3.69 1.229 4.752 3.147l.111.195L144.7 72.918a29.4 29.4 0 0 0-5.521 2.453 29.5 29.5 0 0 0-4.865 3.53l-9.206-15.91.112.198c-.054-.097-.115-.188-.17-.285l-12.633-21.863-.025-.045-.01-.017-.115-.202c-1.783-2.997-.872-6.51 2.154-8.257 1.139-.658 2.346-.932 3.498-.856zm-37.35 8.28c2.116-.086 4.13.998 5.319 3.056l3.595 6.285a29.5 29.5 0 0 0-5.513 2.451 29.5 29.5 0 0 0-4.865 3.514L75.492 49v-.002l-.002-.002c-1.725-2.993-.793-6.466 2.2-8.193a6.3 6.3 0 0 1 2.878-.86zm92.905 16.005c1.9.114 3.664 1.18 4.744 3.051l21.088 36.564.006.01a59.9 59.9 0 0 1 7.37 39.1 84 84 0 0 0-5.949-12.672V122l-19.925-34.525a12 12 0 0 0-.248-.48L167.74 64.821c-1.593-2.953-.656-6.325 2.28-8.02 1.122-.647 2.312-.921 3.453-.853zM99.469 71.664c1.878.125 3.603 1.191 4.672 3.031l.18.309.04.055 24.225 41.869c.102.168.181.343.287.51l.02.019 11.89 20.553a12 12 0 0 0 16.397 4.377 12 12 0 0 0 4.377-16.397l-12.676-21.908c-1.543-2.912-.627-6.238 2.307-7.934 3.094-1.789 6.663-.753 8.32 2.415a12 12 0 0 0 .238.435l20.201 35V134c7.208 12.485 9.442 26.408 7.334 39.537a12 12 0 0 0-.154.89c-2.964 16.833-13.09 32.268-29.143 41.536a59.82 59.82 0 0 1-81.96-21.961L76.02 194l-25.628-44.408-.004-.008L40.803 133c-1.728-2.994-.797-6.47 2.197-8.197 2.994-1.728 6.47-.797 8.197 2.197l.002.002 20.22 35a12 12 0 0 0 16.394 4.389 12 12 0 0 0 4.388-16.393l-15.738-27.242a12 12 0 0 0-.442-.846l-19-32.91h.002c-1.728-2.994-.798-6.47 2.196-8.197 2.992-1.728 6.468-.797 8.197 2.195l.002.002.002.004.002.002 5.707 9.96.04.055.017.02c.029.05.054.1.084.148l-.1-.168 25.99 44.983a12 12 0 0 0 16.393 4.387 12 12 0 0 0 4.386-16.395l-26-45-.109-.185c-1.809-3.005-.896-6.538 2.14-8.291 1.14-.658 2.346-.932 3.499-.856z"/></svg>