<svg xmlns="http://www.w3.org/2000/svg" viewBox="0 0 256 256"><path d="M114.236 4.002c-11.324-.025-21.439 7.46-24.72 18.3l-36.13 119.34-13.18 13.182-22.35 22.35-.004.004c-7.704 7.709-7.704 20.566 0 28.275l32.66 32.688.006.007c7.709 7.704 20.566 7.704 28.275 0l.002-.003 22.287-22.288.094-.062 25.94-25.94.001-.001c.311-.312.58-.656.881-.975.284.301.537.626.83.92l.016.015 25.941 25.942.02.012.02.027 22.349 22.35.004.003c7.708 7.704 20.564 7.703 28.273 0l32.69-32.66.007-.006c7.704-7.709 7.704-20.566 0-28.275l-.003-.002-21.17-21.17a12 12 0 0 0-.22-.25l-14.142-14.142-36.129-119.34c-3.281-10.84-13.396-18.326-24.72-18.301C136.72 4.005 132 5.523 128 8.092c-4-2.569-8.72-4.087-13.764-4.09zM114.184 28h.037c1.125 0 1.779.654 1.779 1.78v128.988a19.98 19.98 0 0 1-5.855 14.117L92.69 190.34l-27.03-27.031 6.823-6.825a12 12 0 0 0 3-5.007l37-122.22c.242-.797.866-1.26 1.7-1.257zm27.595 0h.037c.834-.003 1.458.46 1.7 1.258l37 122.219a12 12 0 0 0 3 5.007l7.59 7.59-27.645 26.416-17.629-17.629A20 20 0 0 1 140 158.75V29.775c.002-1.122.657-1.775 1.78-1.775zM48.691 180.281l27.012 27.012-11.047 11.049-27.002-27.026zm159.372.783 10.279 10.28-27.026 27.002-10.88-10.881z"/></svg>