<svg xmlns="http://www.w3.org/2000/svg" viewBox="0 0 256 256"><path d="M120 8a8 8 0 0 0-2.28.36 8 8 0 0 0-.708.294 8 8 0 0 0-1.387.705 8 8 0 0 0-.693.534 8 8 0 0 0-.588.45l-32 32a8 8 0 0 0 0 11.313 8 8 0 0 0 11.312 0L112 35.313V128a8 8 0 0 0 8 8 8 8 0 0 0 8-8V35.313l18.344 18.343a8 8 0 0 0 11.312 0 8 8 0 0 0 0-11.312l-32-32a8 8 0 0 0-1.595-1.225l-.155-.086a8 8 0 0 0-1.746-.722l-.162-.047A8 8 0 0 0 120 8zM64 80c-8.742 0-16 7.258-16 16v104a8 8 0 0 0 8 8 8 8 0 0 0 8-8V96h16a8 8 0 0 0 8-8 8 8 0 0 0-8-8zm96 0a8 8 0 0 0-8 8 8 8 0 0 0 8 8h16v80.594c-8.733-8.866-22.711-11.206-33.934-4.727-13.249 7.65-17.903 24.787-10.341 38.086a8 8 0 0 0 .261.43l22.26 34a8 8 0 0 0 11.076 2.31 8 8 0 0 0 2.31-11.076l-22.017-33.63c-3.26-5.805-1.322-12.93 4.451-16.264 5.793-3.345 12.969-1.447 16.352 4.324a8 8 0 0 0 .209.336l10.68 16.31A8 8 0 0 0 192 202.311v-58.383a74.35 74.35 0 0 1 24 54.72V240a8 8 0 0 0 8 8 8 8 0 0 0 8-8v-41.35c.003-30.197-15.094-58.306-40-75.029V96c0-8.742-7.258-16-16-16z"/></svg>