<svg xmlns="http://www.w3.org/2000/svg" viewBox="0 0 256 256"><path d="M168 0a8 8 0 0 0-8 8v16a8 8 0 0 0 8 8 8 8 0 0 0 8-8V8a8 8 0 0 0-8-8zm40.613 13.043a8 8 0 0 0-2.496.201 8 8 0 0 0-4.945 3.61l-8 13.109a8 8 0 0 0 2.66 10.996 8 8 0 0 0 10.996-2.662l8-13.11a8 8 0 0 0-2.66-10.996 8 8 0 0 0-3.555-1.148zM117.48 23.752a25.7 25.7 0 0 0-13.062 3.45 25.7 25.7 0 0 0-9.29 9.22 26.4 26.4 0 0 0-12.651-4.32 25.77 25.77 0 0 0-14.788 3.38C55.335 42.615 51.04 58.646 58.172 71l.002.002.719 1.246a25.7 25.7 0 0 0-9.672 3.234C36.866 82.615 32.569 98.646 39.7 111l3.02 5.229a25.7 25.7 0 0 0-9.72 3.253c-12.354 7.133-16.65 23.164-9.518 35.518l.002.004 9.588 16.588 25.63 44.406V216c22.043 38.182 71.1 51.327 109.282 29.283 20.725-11.965 34.052-31.893 38.4-53.717 23.461-25.648 27.724-63.736 10.247-93.992l-.004-.006-21.086-36.564-.002-.004c-4.458-7.722-12.393-12.295-20.732-12.898a25.77 25.77 0 0 0-14.787 3.38 25.7 25.7 0 0 0-7.647 6.754L140.17 37.127c-4.371-7.9-12.358-12.624-20.787-13.293a26 26 0 0 0-1.903-.082zm-.242 15.924c3.578-.094 7.036 1.772 8.932 5.197l.074.13 24.096 41.68c.058.105.102.213.162.317l.062.07.301.52a25.6 25.6 0 0 0-9.685 3.244 25.6 25.6 0 0 0-7.621 6.752l-11.914-20.592.074.133c-.075-.136-.16-.263-.237-.397l-12.539-21.703-.015-.029-.032-.05-.068-.12c-2.9-4.87-1.324-10.932 3.592-13.771a10.15 10.15 0 0 1 4.818-1.381zM80.45 47.963c3.539-.112 6.971 1.692 8.903 5.037l5.705 9.973.01.011c.027.047.051.096.08.143l-.075-.125.557.963a25.64 25.64 0 0 0-17.285 9.967L72.029 63l-.002-.002c-2.807-4.865-1.203-10.852 3.662-13.66a10.14 10.14 0 0 1 4.76-1.375zm155.508.043a8 8 0 0 0-2.752.38l-15.04 4.85a8 8 0 0 0-5.16 10.069 8 8 0 0 0 10.071 5.16l15.04-4.852a8 8 0 0 0 5.157-10.068 8 8 0 0 0-7.316-5.54zM172.78 63.963c3.539-.112 6.971 1.692 8.903 5.037l21.088 36.566.003.006c10.11 17.499 11.154 38.178 3.899 56.063a79.5 79.5 0 0 0-9.402-25.633l-.002-.002-19.957-34.578a8 8 0 0 0-.215-.426l-12.91-22.326c-2.553-4.804-.925-10.586 3.833-13.332a10.14 10.14 0 0 1 4.76-1.375zM98.79 79.676c3.475-.092 6.829 1.675 8.756 4.914l.238.412.033.041 23.934 41.365c.17.293.315.595.498.883l.031.033 11.967 20.682a8 8 0 0 0 10.93 2.918 8 8 0 0 0 2.918-10.93l-12.524-21.646c-2.82-4.835-1.283-10.831 3.616-13.662 5.018-2.901 11.178-1.113 13.865 4.023a8 8 0 0 0 .16.29l20.201 35V144c17.72 30.693 7.266 69.705-23.428 87.426-30.692 17.72-69.705 7.268-87.425-23.424V208l-25.63-44.408-.003-.006L37.338 147v-.002l-.002-.002c-2.806-4.865-1.2-10.85 3.664-13.658 4.866-2.81 10.853-1.204 13.662 3.662v.002l20.22 35a8 8 0 0 0 10.93 2.926 8 8 0 0 0 2.924-10.93l-15.808-27.365a8 8 0 0 0-.37-.723l-19-32.91c-2.808-4.866-1.205-10.853 3.66-13.662S68.073 88.134 70.882 93l.002.002.004.004 5.713 9.97.037.05.011.015.05.086-.061-.102 25.986 44.977a8 8 0 0 0 10.93 2.926 8 8 0 0 0 2.924-10.93l-26-45-.073-.125c-2.937-4.878-1.365-10.969 3.567-13.816a10.15 10.15 0 0 1 4.818-1.381z"/></svg>