<svg xmlns="http://www.w3.org/2000/svg" viewBox="0 0 256 256"><path d="M119.383 28.004C90.907 28.048 68 51.819 68 80c0 11.225 3.262 21.437 8.2 30.729a36 36 0 0 0-11.67 7.771l-.014.016L43.03 140H20c-10.904 0-20 9.096-20 20v40c0 10.904 9.096 20 20 20h100a12 12 0 0 0 2.91-.357l64-16a12 12 0 0 0 1.799-.606l38.82-16.558a12 12 0 0 0 .65-.303c9.676-4.83 15.825-14.776 15.821-25.59v-.01c-.016-13.896-10.252-25.179-22.908-27.914C233.959 118.22 244 100.654 244 80c0-28.181-22.907-51.952-51.383-51.996-14.002-.147-27.072 5.556-36.617 15.101-9.544-9.545-22.615-15.248-36.617-15.101zM119.46 52h.14a27.045 27.045 0 0 1 25.33 16.637 12.001 12.001 0 0 0 22.137 0A27.045 27.045 0 0 1 192.398 52h.141C207.607 52 220 64.827 220 80c0 20.86-22.795 44.593-43.396 60.188l-4.735 1.09c.018-.433.131-.841.131-1.278 0-17.53-14.47-32-32-32h-37.273C95.937 98.447 92 89.254 92 80c0-15.173 12.393-28 27.46-28zm-29.49 80H140c4.56 0 8 3.44 8 8s-3.44 8-8 8h-28a12 12 0 0 0-11.832 12A12 12 0 0 0 112 172h32a12 12 0 0 0 2.69-.305l67-15.41a12 12 0 0 0 .482-.12c3.225-.885 5.822 1.092 5.828 4.435 0 1.74-.949 3.26-2.49 4.058l-37.344 15.932L118.523 196H60v-39.03l21.47-21.47a11.98 11.98 0 0 1 8.5-3.5zM24 164h12v32H24z"/></svg>