<svg xmlns="http://www.w3.org/2000/svg" viewBox="0 0 256 256"><path d="M148 12c-12.565 0-23.556 7.435-28.775 18.102C115.72 28.766 111.945 28 108 28c-17.53 0-32 14.47-32 32v50.914c-9.867-11.079-26.652-14.18-39.934-6.512-15.113 8.726-20.443 28.36-11.818 43.53l-.412-.793c16.417 34.638 28.843 58.094 44.611 74.062C84.216 237.17 103.983 244 128 244c50.668 0 92-41.332 92-92V76c0-17.53-14.47-32-32-32-2.762 0-5.434.396-8 1.07V44c0-17.53-14.47-32-32-32zm0 24c4.56 0 8 3.44 8 8v76a12 12 0 0 0 12 12 12 12 0 0 0 12-12V76c0-4.56 3.44-8 8-8s8 3.44 8 8v76c0 37.697-30.303 68-68 68-20.163 0-30.77-3.81-42.475-15.662-11.703-11.852-23.849-33.395-40.002-67.477a12 12 0 0 0-.412-.793c-2.242-3.944-.974-8.612 2.955-10.88s8.608-1.033 10.903 2.88a12 12 0 0 0 .164.276l18.68 30A12.001 12.001 0 0 0 100 152V60c0-4.56 3.44-8 8-8s8 3.44 8 8v60a12 12 0 0 0 12 12 12 12 0 0 0 12-12V44c0-4.56 3.44-8 8-8z"/></svg>