<svg xmlns="http://www.w3.org/2000/svg" viewBox="0 0 256 256"><path d="M216 16a8 8 0 0 0-5.656 2.344 8 8 0 0 0 0 11.312L228.688 48H176a8 8 0 0 0-8 8 8 8 0 0 0 8 8h52.688l-18.344 18.344a8 8 0 0 0 0 11.312 8 8 0 0 0 11.312 0l32-32a8 8 0 0 0 1.223-1.592l.072-.12a8 8 0 0 0 .752-1.819l.033-.129a8 8 0 0 0 .26-1.973L256 56a8 8 0 0 0-.154-1.56 8 8 0 0 0-.455-1.5 8 8 0 0 0-.336-.711 8 8 0 0 0-.871-1.303 8 8 0 0 0-.528-.582l-32-32A8 8 0 0 0 216 16zM108 40c-15.37 0-28 12.63-28 28v80.018l-3.889-6.247.11.182c-7.738-13.198-24.906-17.735-38.155-10.086-13.249 7.65-17.903 24.787-10.341 38.086l.054.094 29.32 50a8 8 0 0 0 10.948 2.853 8 8 0 0 0 2.853-10.947l-29.265-49.906v-.002c-3.305-5.815-1.361-12.978 4.431-16.322 5.793-3.345 12.969-1.447 16.352 4.324l.111.182 18.68 30A8 8 0 0 0 96 176V68c0-6.722 5.278-12 12-12s12 5.278 12 12v56a8 8 0 0 0 16 0c0-6.722 5.278-12 12-12s12 5.278 12 12v16a8 8 0 0 0 16 0c0-6.722 5.278-12 12-12s12 5.278 12 12v36c0 22.222-7.156 36.422-7.156 36.422a8 8 0 0 0 3.578 10.734 8 8 0 0 0 10.734-3.578S216 201.778 216 176v-36c0-15.37-12.63-28-28-28-4.884 0-9.424 1.386-13.437 3.62C170.953 104.321 160.435 96 148 96c-4.303 0-8.343 1.073-12 2.836V68c0-15.37-12.63-28-28-28z"/></svg>