<svg xmlns="http://www.w3.org/2000/svg" viewBox="0 0 256 256"><path d="M212 12a12 12 0 0 0-8.484 3.516 12 12 0 0 0 0 16.968L215.03 44H172a12 12 0 0 0-12 12 12 12 0 0 0 12 12h43.031l-11.515 11.516a12 12 0 0 0 0 16.968 12 12 0 0 0 16.968 0l32-32a12 12 0 0 0 .836-.94l.13-.167a12 12 0 0 0 1.302-2.074l.082-.157a12 12 0 0 0 .83-2.376l.049-.217a12 12 0 0 0 .283-2.524L256 56a12 12 0 0 0-.049-1.045 12 12 0 0 0-.129-.996 12 12 0 0 0-.064-.31 12 12 0 0 0-.154-.692 12 12 0 0 0-.092-.307 12 12 0 0 0-.219-.693l-.092-.234a12 12 0 0 0-.299-.721l-.134-.275a12 12 0 0 0-.311-.6 12 12 0 0 0-.209-.35 12 12 0 0 0-.336-.527 12 12 0 0 0-.234-.33 12 12 0 0 0-.37-.479 12 12 0 0 0-.28-.334 12 12 0 0 0-.393-.427l-.15-.164-32-32A12 12 0 0 0 212 12zM108 44c-17.53 0-32 14.47-32 32v66.914c-9.867-11.079-26.652-14.18-39.934-6.512-15.113 8.726-20.443 28.36-11.818 43.53l.154.263 25.32 42a12 12 0 0 0 16.473 4.082 12 12 0 0 0 4.082-16.472L45.105 168.05c-2.229-3.94-.962-8.598 2.961-10.863 3.93-2.269 8.608-1.033 10.903 2.88a12 12 0 0 0 .164.276l18.68 30A12.001 12.001 0 0 0 100 184V76c0-4.56 3.44-8 8-8s8 3.44 8 8v56a12.001 12.001 0 0 0 24 0c0-4.56 3.44-8 8-8s8 3.44 8 8v16a12.001 12.001 0 0 0 24 0c0-4.56 3.44-8 8-8s8 3.44 8 8v36c0 12.828-1.756 23.14-3.424 28.328a12 12 0 0 0 7.752 15.096 12 12 0 0 0 15.096-7.752C218.256 210.86 220 198.852 220 184v-36c0-17.53-14.47-32-32-32-3.983 0-7.771.833-11.305 2.193C171.483 107.508 160.58 100 148 100c-2.774 0-5.425.477-8 1.156V76c0-17.53-14.47-32-32-32z"/></svg>