<svg xmlns="http://www.w3.org/2000/svg" viewBox="0 0 256 256"><path d="M192 16a8 8 0 0 0-8 8v60.688l-18.344-18.344A8 8 0 0 0 160 64a8 8 0 0 0-5.656 2.344 8 8 0 0 0 0 11.312l32 32a8 8 0 0 0 3.586 2.07A8 8 0 0 0 192 112a8 8 0 0 0 2.07-.273 8 8 0 0 0 3.586-2.07l32-32a8 8 0 0 0 0-11.313 8 8 0 0 0-11.312 0L200 84.688V24a8 8 0 0 0-8-8zM90.02 112a32 32 0 0 0-22.666 9.334l-.01.01L44.688 144H16c-8.742 0-16 7.258-16 16v40c0 8.742 7.258 16 16 16h104a8 8 0 0 0 1.94-.238l64-16a8 8 0 0 0 1.199-.403l38.82-16.56a8 8 0 0 0 .434-.201A24.63 24.63 0 0 0 240 160.586v-.006c-.019-16.024-15.661-27.94-31.115-23.705l.322-.082-42.045 9.67c.502-2.086.838-4.231.838-6.463 0-15.37-12.63-28-28-28zm-.04 16H140c6.722 0 12 5.278 12 12s-5.278 12-12 12h-28a8 8 0 0 0-5.584 2.383 8 8 0 0 0-2.303 5.617 8 8 0 0 0 7.887 8h32a8 8 0 0 0 1.793-.203l67-15.41a8 8 0 0 0 .322-.082c5.672-1.555 10.877 2.413 10.885 8.293v.002a8.55 8.55 0 0 1-4.695 7.642l-37.86 16.15L119.015 200H56v-44.686l22.646-22.648A16 16 0 0 1 89.98 128zM16 160h24v40H16z"/></svg>