<svg xmlns="http://www.w3.org/2000/svg" viewBox="0 0 256 256"><path d="M88.9 48C44.935 48 8.333 83.302 8 127.389 7.661 171.713 43.675 208 88 208h40c8.742 0 16-7.258 16-16V64c0-8.742-7.258-16-16-16zm0 16H128v128H88c-35.635.001-64.272-28.854-64-64.488v-.002C24.267 92.197 53.466 64 88.9 64zm79.1 8a8 8 0 0 0-8 8 8 8 0 0 0 8 8h72a8 8 0 0 0 8-8 8 8 0 0 0-8-8zm0 32a8 8 0 0 0-8 8 8 8 0 0 0 8 8h72a8 8 0 0 0 8-8 8 8 0 0 0-8-8zm0 32a8 8 0 0 0-8 8 8 8 0 0 0 8 8h72a8 8 0 0 0 8-8 8 8 0 0 0-8-8zm0 32a8 8 0 0 0-8 8 8 8 0 0 0 8 8h72a8 8 0 0 0 8-8 8 8 0 0 0-8-8z"/></svg>