<svg xmlns="http://www.w3.org/2000/svg" viewBox="0 0 256 256"><path d="M78 36c-36.309 0-66 29.691-66 66 0 39.303 29.084 71.664 56.197 94.867s54.114 37.7 54.114 37.7a12 12 0 0 0 .406.134 12 12 0 0 0 3.445 1.149l.23.011a12 12 0 0 0 3.456-.078 12 12 0 0 0 .82-.144 12 12 0 0 0 3.213-1.178 340 340 0 0 0 41.463-27.48 12 12 0 0 0 2.146-16.835 12 12 0 0 0-7.97-4.56 12 12 0 0 0-8.864 2.412A316 316 0 0 1 140 202.68V82.547c5.524-11.601 16.217-19.209 30.21-21.832a12 12 0 0 0 9.585-14.006 12 12 0 0 0-14.006-9.584c-14.657 2.748-28.037 9.896-37.771 20.672C115.748 44.057 97.615 36 78 36zm130 9.09a12 12 0 0 0-2.342.23 12 12 0 0 0-7.637 5.104 12 12 0 0 0 3.313 16.644 41.98 41.98 0 0 1 18.41 30.264 12 12 0 0 0 13.258 10.594 12 12 0 0 0 10.594-13.258 66.02 66.02 0 0 0-28.93-47.557A12 12 0 0 0 208 45.09zM78 60c17.474 0 31.429 8.757 38 22.76v119.834c-9.118-5.967-20.563-14.005-32.197-23.961C58.916 157.336 36 128.697 36 102c0-23.338 18.662-42 42-42zm146.13 64.03a12 12 0 0 0-4.644.593 12 12 0 0 0-6.927 6.03c-5.118 10.278-12.676 20.433-21.368 29.83a12 12 0 0 0 .66 16.956 12 12 0 0 0 16.958-.66c9.808-10.603 18.751-22.41 25.234-35.431a12 12 0 0 0-5.395-16.09 12 12 0 0 0-4.517-1.229z"/></svg>