<svg xmlns="http://www.w3.org/2000/svg" viewBox="0 0 256 256"><path d="M78 36c-33.516-.003-61.872 25.358-65.596 58.666a12 12 0 0 0 10.592 13.26 12 12 0 0 0 13.26-10.592C38.644 75.977 56.51 59.998 78 60c18.23 0 32.721 9.466 38.895 24.547a12.001 12.001 0 0 0 22.21 0C145.28 69.466 159.77 60 178 60c23.338 0 42 18.662 42 42 0 26.697-22.916 55.336-47.803 76.633-17.912 15.329-35.556 26.39-44.222 31.515-10.855-6.446-35.367-22.014-56.399-42.703a12 12 0 0 0-16.97.139 12 12 0 0 0 .138 16.97c31.032 30.527 67.576 50.016 67.576 50.016a12 12 0 0 0 11.37-.004s27-14.496 54.113-37.699S244 141.303 244 102c0-36.309-29.691-66-66-66-19.628 0-37.73 8.113-50 21.87C115.73 44.112 97.628 36 78 36zm10 64a12 12 0 0 0-3.861.639 12 12 0 0 0-6.123 4.705L65.578 124H32a12 12 0 0 0-12 12 12 12 0 0 0 12 12h40a12 12 0 0 0 9.984-5.344L88 133.633l22.016 33.023a12 12 0 0 0 19.968 0L142.422 148H160a12 12 0 0 0 12-12 12 12 0 0 0-12-12h-24a12 12 0 0 0-9.984 5.344L120 138.367l-22.016-33.023A12 12 0 0 0 88 100z"/></svg>