<svg xmlns="http://www.w3.org/2000/svg" viewBox="0 0 256 256"><path d="M74 36.068c-15.894 0-31.788 6.029-43.846 18.086-24.114 24.115-24.114 63.577 0 87.692l89.301 90.578a12 12 0 0 0 17.09 0l89.3-90.578c24.115-24.115 24.115-63.577 0-87.692s-63.576-24.114-87.69 0l.306-.295L128 63.602l-10.46-9.743.306.295C105.788 42.097 89.894 36.068 74 36.068zm0 23.85c9.702 0 19.404 3.736 26.875 11.207a12 12 0 0 0 .307.297l18.64 17.36a12 12 0 0 0 16.356 0l18.64-17.36a12 12 0 0 0 .307-.297c14.943-14.943 38.807-14.943 53.75 0s14.943 38.807 0 53.75l-.06.06L128 206.909l-80.814-81.972-.061-.061c-14.943-14.943-14.943-38.807 0-53.75C54.596 63.654 64.298 59.918 74 59.918z"/></svg>