<svg xmlns="http://www.w3.org/2000/svg" viewBox="0 0 256 256"><path d="M152 8a8 8 0 0 0-5.656 2.344l-50.34 50.34c-5.035 5.031-5.972 12.77-2.81 18.81l-21.19 21.19c-6.187 6.183-6.187 16.455.002 22.636l4.682 4.68-58.344 58.344a8 8 0 0 0 3.127 13.246l72 24a8 8 0 0 0 8.185-1.934L136 187.312l4.684 4.684c6.182 6.185 16.45 6.185 22.632 0l21.192-21.191c6.039 3.16 13.777 2.226 18.808-2.809l50.34-50.34a8 8 0 0 0 0-11.312 8 8 0 0 0-11.312 0l-50.34 50.34-.004.002-.004-.002-2.34-2.34-80-80-2.34-2.34-.002-.004.002-.004 50.34-50.34a8 8 0 0 0 0-11.312A8 8 0 0 0 152 8zm-48 83.313L172.688 160l-20.684 20.684-.004.002-.004-.002-68.68-68.68-.002-.004.002-.004zm-16 48L124.688 176 93.84 206.848l-55.031-18.344z"/></svg>