<svg xmlns="http://www.w3.org/2000/svg" viewBox="0 0 256 256"><path d="M32 32a12 12 0 0 0-12 12 12 12 0 0 0 12 12h192a12 12 0 0 0 12-12 12 12 0 0 0-12-12zm12 36a12 12 0 0 0-12 12v96a12 12 0 0 0 12 12 12 12 0 0 0 12-12v-36h48v36a12 12 0 0 0 12 12 12 12 0 0 0 12-12V80a12 12 0 0 0-12-12 12 12 0 0 0-12 12v36H56V80a12 12 0 0 0-12-12zm112 0a12 12 0 0 0-12 12v96a12 12 0 0 0 12 12h24c32.995 0 60-27.005 60-60s-27.005-60-60-60zm12 24h12c20.024 0 36 15.976 36 36s-15.976 36-36 36h-12zM32 200a12 12 0 0 0-12 12 12 12 0 0 0 12 12h192a12 12 0 0 0 12-12 12 12 0 0 0-12-12z"/></svg>