<svg xmlns="http://www.w3.org/2000/svg" viewBox="0 0 256 256"><path d="M55.979 28c-8.396.014-15.635 5.545-18.452 12.367-2.816 6.822-1.588 15.85 4.352 21.783l.182.178L110.648 128l-68.587 65.672-.182.178c-5.94 5.933-7.168 14.961-4.352 21.783 2.817 6.822 10.056 12.353 18.452 12.367H199.99c8.405.007 15.665-5.52 18.492-12.344s1.605-15.867-4.341-21.806l-.184-.178L145.354 128l68.603-65.672.184-.178c5.946-5.94 7.17-14.982 4.341-21.806C215.656 33.522 208.401 27.998 200 28zm9.998 24H190.04l-16.715 16H82.688zm41.777 40h40.5l-20.252 19.387zM140 156.098 190.041 204H65.977L116 156.105V168a12 12 0 0 0 12 12 12 12 0 0 0 12-12z"/></svg>