<svg xmlns="http://www.w3.org/2000/svg" viewBox="0 0 256 256"><path d="M128 12c-43.62 0-79.644 33.59-83.604 76.209-10.794 6.104-17.554 18.134-16.253 31.008 1.535 15.203 13.788 27.157 28.734 28.627l53.799 94.1c7.379 12.943 27.364 12.944 34.746.003l53.707-94.105c14.943-1.473 27.193-13.424 28.728-28.625 1.3-12.874-5.459-24.904-16.253-31.008C207.644 45.589 171.62 12 128 12zm0 24c33.28 0 60 26.72 60 60v.4a12 12 0 0 0 9.611 11.76c4.13.839 6.793 4.453 6.37 8.645s-3.756 7.2-7.97 7.195H59.989c-4.213.004-7.545-3.004-7.968-7.195s2.24-7.806 6.369-8.645A12 12 0 0 0 68 96.4V96c0-33.28 26.72-60 60-60zM84.613 148h26.133l30.35 53.11-13.05 22.865zm53.776 0h33.017l-16.498 28.906z"/></svg>