<svg xmlns="http://www.w3.org/2000/svg" viewBox="0 0 256 256"><path d="M40 40c-8.726 0-16 7.274-16 16v144c0 8.726 7.274 16 16 16h176c8.726 0 16-7.274 16-16V56c0-8.726-7.274-16-16-16zm0 16h176v144H40zm56 32c-17.578 0-32 14.422-32 32 0 8.801 3.615 16.81 9.432 22.615-8.323 5.328-14.645 13.538-17.18 23.393a8 8 0 0 0 5.756 9.74 8 8 0 0 0 9.74-5.756C74.312 160.024 84.738 152 96 152c11.265 0 21.694 8.016 24.25 17.986a8 8 0 0 0 9.736 5.764 8 8 0 0 0 5.764-9.736c-2.529-9.865-8.854-18.074-17.18-23.4C124.386 136.808 128 128.8 128 120c0-17.578-14.422-32-32-32zm0 16c8.931 0 16 7.069 16 16s-7.069 16-16 16-16-7.069-16-16 7.069-16 16-16zm56 0a8 8 0 0 0-8 8 8 8 0 0 0 8 8h40a8 8 0 0 0 8-8 8 8 0 0 0-8-8zm0 32a8 8 0 0 0-8 8 8 8 0 0 0 8 8h40a8 8 0 0 0 8-8 8 8 0 0 0-8-8z"/></svg>