<svg xmlns="http://www.w3.org/2000/svg" viewBox="0 0 256 256"><path d="M80 36c-10.872 0-20 9.128-20 20v12H40c-10.904 0-20 9.096-20 20v112c0 10.904 9.096 20 20 20h144c10.904 0 20-9.096 20-20v-20h12c10.872 0 20-9.128 20-20V56c0-10.872-9.128-20-20-20zm4 24h128v96h-19.719l-54.13-54.14c-3.856-3.86-9.004-5.79-14.151-5.79-5.145 0-10.291 1.928-14.146 5.785L84 127.715zm92 12a16 16 0 0 0-16 16 16 16 0 0 0 16 16 16 16 0 0 0 16-16 16 16 0 0 0-16-16zM44 92h16v68c0 10.872 9.128 20 20 20h100v16H44zm80 29.65L158.344 156H89.658z"/></svg>