<svg xmlns="http://www.w3.org/2000/svg" viewBox="0 0 256 256"><path d="M40 40c-8.726 0-16 7.274-16 16v144c0 8.726 7.274 16 16 16h176c8.726 0 16-7.274 16-16V56c0-8.726-7.274-16-16-16zm0 16h176v102.736l-26.031-26.05-.004-.004c-3.09-3.089-7.2-4.633-11.31-4.633s-8.219 1.544-11.31 4.633l-20.029 20.006-44-44.004c-3.09-3.093-7.203-4.64-11.316-4.64s-8.229 1.547-11.32 4.642L40 149.373zm116 32a12 12 0 0 0-12 12 12 12 0 0 0 12 12 12 12 0 0 0 12-12 12 12 0 0 0-12-12zm-64 31.994.002.002 49.637 49.64.011.018.018.012L171.998 200H40v-27.996l51.998-52.008zM178.654 144 216 181.371V200h-21.377l-35.994-35.998z"/></svg>