<svg xmlns="http://www.w3.org/2000/svg" viewBox="0 0 256 256"><path d="M72 40c-8.726 0-16 7.274-16 16v16H40c-8.742 0-16 7.258-16 16v112c0 8.742 7.258 16 16 16h144c8.742 0 16-7.258 16-16v-16h16c8.726 0 16-7.274 16-16V56c0-8.726-7.274-16-16-16zm0 16h144v62.729l-10.03-10.041-.005-.006c-6.18-6.177-16.439-6.177-22.62 0l-20.03 20.007-43.995-44.003c-3.091-3.095-7.206-4.641-11.32-4.641s-8.227 1.545-11.318 4.639L72 109.37V56zm100 16a12 12 0 0 0-12 12 12 12 0 0 0 12 12 12 12 0 0 0 12-12 12 12 0 0 0-12-12zM40 88h16v80c0 8.726 7.274 16 16 16h112v16H40zm68 7.994.002.002 49.65 49.66a8 8 0 0 0 11.31.004L194.655 120 216 141.371V168H72v-35.996l35.998-36.008z"/></svg>