<svg xmlns="http://www.w3.org/2000/svg" viewBox="0 0 256 256"><path d="M63.768 68.01a59.8 59.8 0 0 0-22.73 4.556C18.647 81.84 4 103.767 4 128s14.648 46.16 37.037 55.434c22.389 9.273 48.254 4.128 65.389-13.008a12 12 0 0 0 .496-.528l3.34-3.771a12 12 0 0 0-1.024-16.94 12 12 0 0 0-16.94 1.026l-2.972 3.353a35.92 35.92 0 0 1-39.103 7.694A35.93 35.93 0 0 1 28 128a35.93 35.93 0 0 1 22.223-33.26 35.92 35.92 0 0 1 39.109 7.7l59.744 67.456a12 12 0 0 0 .498.53c17.135 17.136 43 22.281 65.389 13.008S252 152.233 252 128s-14.648-46.16-37.037-55.434c-22.389-9.273-48.254-4.128-65.389 13.008a12 12 0 0 0-.496.528l-3.34 3.771a12 12 0 0 0 1.024 16.94 12 12 0 0 0 16.94-1.026l2.972-3.353a35.92 35.92 0 0 1 39.103-7.694A35.93 35.93 0 0 1 228 128a35.93 35.93 0 0 1-22.223 33.26 35.92 35.92 0 0 1-39.109-7.7l-59.744-67.456a12 12 0 0 0-.498-.53c-10.71-10.71-24.83-16.735-39.38-17.484a60 60 0 0 0-3.278-.08z"/></svg>