<svg xmlns="http://www.w3.org/2000/svg" viewBox="0 0 256 256"><path d="M80 24c-30.886 0-56 25.114-56 56v96c0 30.886 25.114 56 56 56h96c30.886 0 56-25.114 56-56V80c0-30.886-25.114-56-56-56zm0 16h96c22.298 0 40 17.702 40 40v96c0 22.298-17.702 40-40 40H80c-22.298 0-40-17.702-40-40V80c0-22.298 17.702-40 40-40zm100 24a12 12 0 0 0-12 12 12 12 0 0 0 12 12 12 12 0 0 0 12-12 12 12 0 0 0-12-12zm-52 16c-26.415 0-48 21.585-48 48s21.585 48 48 48 48-21.585 48-48-21.585-48-48-48zm0 16a31.88 31.88 0 0 1 32 32 31.88 31.88 0 0 1-32 32 31.88 31.88 0 0 1-32-32 31.88 31.88 0 0 1 32-32z"/></svg>