<svg xmlns="http://www.w3.org/2000/svg" viewBox="0 0 256 256"><path d="M48 40a8 8 0 0 0-8 8c-13.16 0-24 10.84-24 24s10.84 24 24 24h16c4.513 0 8 3.487 8 8s-3.487 8-8 8H28a8 8 0 0 0-8 8 8 8 0 0 0 8 8h12a8 8 0 0 0 8 8 8 8 0 0 0 8-8c13.16 0 24-10.84 24-24S69.16 80 56 80H40c-4.513 0-8-3.487-8-8s3.487-8 8-8h24a8 8 0 0 0 8-8 8 8 0 0 0-8-8h-8a8 8 0 0 0-8-8zm48 8a8 8 0 0 0-8 8 8 8 0 0 0 8 8h120v32H104a8 8 0 0 0-8 8 8 8 0 0 0 8 8h56v32H80a8 8 0 0 0-8 8 8 8 0 0 0 8 8h80v32H40v-40a8 8 0 0 0-8-8 8 8 0 0 0-8 8v40c0 8.742 7.258 16 16 16h176c8.742 0 16-7.258 16-16V56a8 8 0 0 0-8-8zm80 64h40v32h-40zm0 48h40v32h-40z"/></svg>