<svg xmlns="http://www.w3.org/2000/svg" viewBox="0 0 256 256"><path d="M133.469 24.01q-1.141-.01-2.305.035c-9.313.362-19.713 3.385-31.062 9.719a8 8 0 0 0-3.088 10.884 8 8 0 0 0 10.884 3.088c12.868-7.18 22.425-8.526 29.743-7.382 7.317 1.143 12.91 4.858 17.527 9.777 2.426 2.585 4.471 5.457 6.182 8.289-6.293-1.525-13.74-2.658-21.596-2.416h-.016c-9.95.325-20.85 3.023-30.293 10.328s-17.027 19.005-21.207 35.729a8 8 0 0 0 5.823 9.7 8 8 0 0 0 9.7-5.822c3.521-14.086 9.207-22.103 15.475-26.953s13.514-6.744 21.022-6.99c5.863-.18 11.68.713 16.734 1.918-30.355 20.86-41.093 49.023-42.967 72.447-1.234 15.433 1.075 29.07 3.284 37.948-60.46 3.296-98.307 33.445-98.307 33.445a8 8 0 0 0-1.248 11.244 8 8 0 0 0 11.244 1.248S66.667 200 128 200s99.002 30.246 99.002 30.246a8 8 0 0 0 11.244-1.248 8 8 0 0 0-1.248-11.244s-39.877-31.788-103.172-33.662c-2.03-6.921-5.127-20.51-3.851-36.453 1.746-21.833 10.935-46.989 44.216-65.618 9.963 12.516 10.764 23.743 9.385 32.772-1.542 10.098-6.11 16.59-6.11 16.59a8 8 0 0 0 1.917 11.15 8 8 0 0 0 11.15-1.916s6.737-9.508 8.86-23.41c1.426-9.339.624-21.048-5.168-33.086a51 51 0 0 1 5.806 2.824C212.036 93.805 224 106.333 224 136a8 8 0 0 0 8 8 8 8 0 0 0 8-8c0-34.333-16.037-53.805-32.031-62.945-7.34-4.194-14.654-6.432-20.444-7.64 1.816-3.486 4.245-7.395 7.268-10.567 3.622-3.802 7.613-6.295 12.373-6.768s11.11.907 20.01 7.633a8 8 0 0 0 11.207-1.559 8 8 0 0 0-1.559-11.207c-11.1-8.389-21.75-11.732-31.24-10.789-9.49.944-17 6.008-22.377 11.653-2.638 2.768-4.87 5.735-6.746 8.636-2.45-4.349-5.612-8.986-9.629-13.265-6.383-6.8-15.29-12.85-26.723-14.637a45.4 45.4 0 0 0-6.64-.535zM52 112c-15.37 0-28 12.63-28 28s12.63 28 28 28 28-12.63 28-28-12.63-28-28-28zm0 16c6.722 0 12 5.278 12 12s-5.278 12-12 12-12-5.278-12-12 5.278-12 12-12z"/></svg>