<svg xmlns="http://www.w3.org/2000/svg" viewBox="0 0 256 256"><path d="M133.54 16.014q-1.261-.011-2.542.045c-10.25.445-21.472 4.09-33.275 11.334a12 12 0 0 0-3.95 16.503 12 12 0 0 0 16.504 3.952c12.263-7.527 20.56-8.562 26.565-7.53 6.005 1.033 10.772 4.404 15.03 9.393a43 43 0 0 1 2.483 3.246c-4.605-.702-9.561-1.11-14.724-.951h-.022c-10.56.345-22.378 3.245-32.613 11.164s-18.294 20.537-22.639 37.92a12 12 0 0 0 8.733 14.553 12 12 0 0 0 14.553-8.733c3.355-13.427 8.566-20.524 14.04-24.76 5.474-4.234 11.805-5.93 18.702-6.156 2.286-.07 4.575.055 6.824.291-25.624 20.9-35.39 47.518-37.17 69.758-1.077 13.466.457 25.59 2.338 34.592-58.957 4.64-95.873 33.994-95.873 33.994a12 12 0 0 0-1.875 16.867 12 12 0 0 0 16.867 1.875S68 204 128 204s96.504 29.371 96.504 29.371a12 12 0 0 0 16.867-1.875 12 12 0 0 0-1.875-16.867S199.762 183.03 136.9 180.22c-1.85-7.155-4.01-18.874-2.94-32.264 1.617-20.2 9.453-42.956 39.161-60.705 7.318 10.45 7.651 19.413 6.502 26.937-1.397 9.147-5.424 14.887-5.424 14.887a12 12 0 0 0 2.877 16.725 12 12 0 0 0 16.725-2.877s7.278-10.26 9.547-25.113c1.111-7.278.901-15.967-1.674-25.114C211.336 99.321 220 110.647 220 136a12 12 0 0 0 12 12 12 12 0 0 0 12-12c0-35.5-17.055-56.708-34.047-66.418-5.642-3.224-11.266-5.348-16.281-6.768 1.192-1.847 2.532-3.651 4.016-5.209 3.183-3.34 6.297-5.189 9.875-5.544 3.577-.356 8.853.533 17.203 6.843a12 12 0 0 0 16.808-2.34 12 12 0 0 0-2.34-16.808c-11.65-8.805-23.374-12.64-34.047-11.578-10.672 1.06-19.058 6.768-24.875 12.873a59 59 0 0 0-2.896 3.306c-2.053-3.423-4.451-6.9-7.287-10.224-6.743-7.903-16.476-15.276-29.22-17.467a46 46 0 0 0-7.37-.652zM52 112c-17.53 0-32 14.47-32 32s14.47 32 32 32 32-14.47 32-32-14.47-32-32-32zm0 24c4.56 0 8 3.44 8 8s-3.44 8-8 8-8-3.44-8-8 3.44-8 8-8z"/></svg>