<svg xmlns="http://www.w3.org/2000/svg" viewBox="0 0 256 256"><path d="M40 40c-8.726 0-16 7.274-16 16v144c0 8.726 7.274 16 16 16h176c8.726 0 16-7.274 16-16V56c0-8.726-7.274-16-16-16zm0 16h176v144H40zm136 40a8 8 0 0 0-8 8v24H99.313l10.343-10.344a8 8 0 0 0 0-11.312A8 8 0 0 0 104 104a8 8 0 0 0-5.656 2.344l-24 24a8 8 0 0 0-.451.588 8 8 0 0 0-.534.693 8 8 0 0 0-.705 1.387 8 8 0 0 0-.295.709 8 8 0 0 0-.347 2.207L72 136l.012.072a8 8 0 0 0 .347 2.207 8 8 0 0 0 .295.71 8 8 0 0 0 .705 1.386 8 8 0 0 0 .534.693 8 8 0 0 0 .45.588l24 24a8 8 0 0 0 11.313 0 8 8 0 0 0 0-11.312L99.312 144H176a8 8 0 0 0 8-8v-32a8 8 0 0 0-8-8z"/></svg>