<svg xmlns="http://www.w3.org/2000/svg" viewBox="0 0 256 256"><path d="M32 44c-10.872 0-20 9.128-20 20v128c0 10.872 9.128 20 20 20h192c10.872 0 20-9.128 20-20V64c0-10.872-9.128-20-20-20zm4 24h184v120H36zm28 12a12 12 0 0 0-12 12 12 12 0 0 0 12 12h128a12 12 0 0 0 12-12 12 12 0 0 0-12-12zm0 36a12 12 0 0 0-12 12 12 12 0 0 0 12 12h128a12 12 0 0 0 12-12 12 12 0 0 0-12-12zm0 36a12 12 0 0 0-12 12 12 12 0 0 0 12 12h8a12 12 0 0 0 12-12 12 12 0 0 0-12-12zm44 0a12 12 0 0 0-12 12 12 12 0 0 0 12 12h40a12 12 0 0 0 12-12 12 12 0 0 0-12-12zm76 0a12 12 0 0 0-12 12 12 12 0 0 0 12 12h8a12 12 0 0 0 12-12 12 12 0 0 0-12-12z"/></svg>