<svg xmlns="http://www.w3.org/2000/svg" viewBox="0 0 256 256"><path d="M212.2 24.05c-7.132 0-14.262 2.698-19.657 8.093l-52.2 52.2-122 122a8 8 0 0 0 3.858 13.452c109.153 25.189 184.1-70.865 184.1-70.865a8 8 0 0 0-.645-10.586L185.312 118l46.545-46.543c10.789-10.79 10.789-28.525 0-39.314-5.394-5.395-12.527-8.092-19.658-8.092zm0 15.901c3.002 0 6.005 1.169 8.343 3.506 4.675 4.675 4.675 12.01 0 16.686L174 106.688 157.313 90l46.544-46.543c2.338-2.337 5.34-3.506 8.342-3.506zM146 101.313l22.344 22.343 20.71 20.711c-15.464 17.173-71.525 72.148-148.513 62.404z"/></svg>