<svg xmlns="http://www.w3.org/2000/svg" viewBox="0 0 256 256"><path d="M160 28c-10.863 0-20.871 2.608-28.988 7.682S116 49.289 116 60c0 4.086 1.01 7.853 2.701 11.234l-9.357 4.682c-.12-.076-.236-.16-.356-.234C100.871 70.608 90.863 68 80 68s-20.871 2.608-28.988 7.682S36 89.289 36 100c0 4.086 1.007 7.853 2.7 11.234l-28.067 14.034a12 12 0 0 0-2.397 1.61 12 12 0 0 0-.273.282l-.156.16a12 12 0 0 0-.518.534 12 12 0 0 0-1.83 2.533 12 12 0 0 0-.191.246l-.036.125a12 12 0 0 0-.222.506 12 12 0 0 0-.168.504 12 12 0 0 0-.7 2.972 12 12 0 0 0-.072.73 12 12 0 0 0-.03.333L4 136v56a12 12 0 0 0 6.633 10.732l64 32 .066.022a12 12 0 0 0 3.145 1.004 12 12 0 0 0 .873.097A12 12 0 0 0 80 236a12 12 0 0 0 1.283-.145 12 12 0 0 0 .873-.097 12 12 0 0 0 3.145-1.004l.066-.022 160-80A12 12 0 0 0 252 144V88l-.002-.027a12 12 0 0 0-.03-.707l-.007-.174a12 12 0 0 0-.076-.682l-.024-.19a12 12 0 0 0-.088-.495l-.056-.272a12 12 0 0 0-.174-.701l-.072-.248a12 12 0 0 0-.116-.375l-.062-.164a12 12 0 0 0-.338-.846l-.115-.244-.047-.1-.06-.142-.018-.024a12 12 0 0 0-.582-1.03l-.131-.192a12 12 0 0 0-.934-1.244l-.002-.004a12 12 0 0 0-1.146-1.145l-.059-.06-.004-.002-.002-.002-.037-.028a12 12 0 0 0-1.197-.898l-.242-.16a12 12 0 0 0-1.012-.576L203.73 56.445c-1.321-9.043-7.545-16.266-14.742-20.763C180.871 30.608 170.863 28 160 28zm0 24c6.81 0 12.803 1.868 16.268 4.033S180 59.665 180 60s-.268 1.801-3.732 3.967C172.803 66.132 166.81 68 160 68s-12.803-1.868-16.268-4.033S140 60.335 140 60s.268-1.801 3.732-3.967C147.197 53.868 153.19 52 160 52zm35.49 27.158L213.17 88 80 154.584 42.832 136l15.756-7.877C65.053 130.686 72.31 132 80 132c10.863 0 20.871-2.608 28.988-7.682S124 110.711 124 100c0-1.505-.15-2.962-.406-4.377l14.994-7.5C145.053 90.686 152.31 92 160 92c10.863 0 20.871-2.608 28.988-7.682a37 37 0 0 0 6.502-5.16zM80 92c6.81 0 12.803 1.868 16.268 4.033S100 99.665 100 100s-.268 1.801-3.732 3.967C92.803 106.132 86.81 108 80 108s-12.803-1.868-16.268-4.033S60 100.335 60 100s.268-1.801 3.732-3.967C67.197 93.868 73.19 92 80 92zm148 15.416v29.168l-136 68v-29.168zm-200 48 40 20v29.168l-40-20z"/></svg>