<svg xmlns="http://www.w3.org/2000/svg" viewBox="0 0 256 256"><path d="M104 12c-10.904 0-20 9.096-20 20v16H72c-19.736 0-36 16.264-36 36v88c0 15.531 10.09 28.874 24 33.871V224c0 10.904 9.096 20 20 20h96c10.904 0 20-9.096 20-20v-18.129c13.91-4.997 24-18.34 24-33.871V84c0-19.736-16.264-36-36-36h-12V32c0-10.904-9.096-20-20-20zm4 24h40v12h-40zM72 72h112c6.856 0 12 5.144 12 12v88c0 6.856-5.144 12-12 12H72c-6.856 0-12-5.144-12-12V84c0-6.856 5.144-12 12-12zm28 24a16 16 0 0 0-16 16 16 16 0 0 0 16 16 16 16 0 0 0 16-16 16 16 0 0 0-16-16zm56 0a16 16 0 0 0-16 16 16 16 0 0 0 16 16 16 16 0 0 0 16-16 16 16 0 0 0-16-16zm-56.39 44.006a12 12 0 0 0-2.333.306 12 12 0 0 0-7.466 5.348 12 12 0 0 0 3.85 16.53c21.001 13.067 47.677 13.067 68.679 0a12 12 0 0 0 3.85-16.53 12 12 0 0 0-16.53-3.85 40.94 40.94 0 0 1-43.32 0 12 12 0 0 0-6.73-1.804zM84 208h88v12H84z"/></svg>