<svg xmlns="http://www.w3.org/2000/svg" viewBox="0 0 256 256"><path d="M128 24c-28.514 0-54.38 11.543-73.187 30.193a8 8 0 0 0-.35.27 8 8 0 0 0-.27.35C35.543 73.619 24 99.486 24 128s11.543 54.38 30.193 73.188a8 8 0 0 0 .27.35 8 8 0 0 0 .35.269C73.619 220.457 99.486 232 128 232s54.38-11.543 73.188-30.193a8 8 0 0 0 .35-.27 8 8 0 0 0 .655-.758C220.612 182.006 232 156.312 232 128s-11.388-54.006-29.807-72.78a8 8 0 0 0-.656-.757 8 8 0 0 0-.35-.27C182.382 35.543 156.515 24 128 24zm0 16c21.46 0 41.088 7.64 56.34 20.346l-28.57 28.57C147.918 83.313 138.333 80 128 80s-19.918 3.313-27.77 8.916l-28.57-28.57C86.912 47.64 106.54 40 128 40zM60.346 71.66l28.57 28.57C83.313 108.082 80 117.667 80 128s3.313 19.918 8.916 27.77l-28.57 28.57C47.64 169.088 40 149.46 40 128s7.64-41.088 20.346-56.34zm135.308 0C208.36 86.912 216 106.54 216 128s-7.64 41.088-20.346 56.34l-28.57-28.57C172.687 147.918 176 138.333 176 128s-3.313-19.918-8.916-27.77zM128 96c8.755 0 16.646 3.46 22.404 9.092a8 8 0 0 0 .22.285 8 8 0 0 0 .284.219C156.54 111.354 160 119.246 160 128c0 8.755-3.46 16.646-9.092 22.404a8 8 0 0 0-.285.22 8 8 0 0 0-.219.284C144.646 156.54 136.754 160 128 160c-8.608 0-16.38-3.348-22.111-8.812a8 8 0 0 0-.512-.565 8 8 0 0 0-.285-.219C99.46 144.646 96 136.754 96 128c0-8.755 3.46-16.646 9.092-22.404a8 8 0 0 0 .285-.22 8 8 0 0 0 .512-.564C111.62 99.349 119.392 96 128 96zm-27.77 71.084C108.082 172.687 117.667 176 128 176s19.918-3.313 27.77-8.916l28.57 28.57C169.088 208.36 149.46 216 128 216s-41.088-7.64-56.34-20.346z"/></svg>