<svg xmlns="http://www.w3.org/2000/svg" viewBox="0 0 256 256"><path d="M128 20c-29.408 0-56.114 11.859-75.62 31.023a12 12 0 0 0-.745.612 12 12 0 0 0-.506.635C31.9 71.784 20 98.537 20 128s11.9 56.216 31.129 75.73a12 12 0 0 0 .506.635 12 12 0 0 0 .635.506C71.784 224.1 98.537 236 128 236s56.216-11.9 75.73-31.129a12 12 0 0 0 .635-.506 12 12 0 0 0 1.014-1.168C224.304 183.73 236 157.2 236 128s-11.696-55.73-30.621-75.197a12 12 0 0 0-1.014-1.168 12 12 0 0 0-.746-.612C184.114 31.86 157.41 20 128 20zm0 24c18.92 0 36.342 6.195 50.355 16.674l-23.109 23.11C147.306 78.856 137.97 76 128 76s-19.307 2.857-27.246 7.783l-23.11-23.11C91.659 50.196 109.08 44 128 44zM60.674 77.645l23.11 23.109C78.856 108.694 76 118.03 76 128s2.857 19.307 7.783 27.246l-23.11 23.11C50.196 164.341 44 146.92 44 128s6.195-36.342 16.674-50.355zm134.652 0C205.805 91.658 212 109.08 212 128s-6.195 36.342-16.674 50.355l-23.11-23.109C177.144 147.306 180 137.97 180 128s-2.857-19.307-7.783-27.246zM128 100c7.621 0 14.463 2.97 19.482 7.813a12 12 0 0 0 .313.392 12 12 0 0 0 .393.313C153.03 113.538 156 120.378 156 128c0 7.604-2.958 14.43-7.781 19.447a12 12 0 0 0-.424.348 12 12 0 0 0-.313.393C142.462 153.03 135.622 156 128 156c-7.47 0-14.183-2.861-19.174-7.533a12 12 0 0 0-.62-.672 12 12 0 0 0-.425-.348C102.958 142.431 100 135.604 100 128c0-7.621 2.97-14.463 7.813-19.482a12 12 0 0 0 .392-.313 12 12 0 0 0 .621-.672C113.817 102.861 120.53 100 128 100zm-27.246 72.217C108.694 177.143 118.03 180 128 180s19.307-2.857 27.246-7.783l23.11 23.11C164.341 205.804 146.92 212 128 212s-36.342-6.195-50.355-16.674z"/></svg>