<svg xmlns="http://www.w3.org/2000/svg" viewBox="0 0 256 256"><path d="M129.424 15.988a88 88 0 0 0-3.54.014h-.007C78.195 17.106 39.739 56.809 40 104.488v.006a87.89 87.89 0 0 0 33.775 68.81l.01.008A16.1 16.1 0 0 1 80 186.009V192c0 8.742 7.258 16 16 16h64c8.742 0 16-7.258 16-16v-5.967a16.28 16.28 0 0 1 6.313-12.81l.037-.032c29.795-23.393 41.282-63.318 28.474-98.968-12.407-34.534-44.952-57.654-81.4-58.235zm-3.17 16.01h.01a71.94 71.94 0 0 1 69.504 47.635 71.94 71.94 0 0 1-23.3 80.974l.04-.029A32.32 32.32 0 0 0 160 185.967V192H96v-6.008a32.13 32.13 0 0 0-12.387-25.304l.012.007A71.85 71.85 0 0 1 56 104.41v-.004c-.216-39.035 31.241-71.508 70.254-72.408zm8.988 16.037a8 8 0 0 0-7.13 6.635 8 8 0 0 0 6.558 9.219c16.463 2.774 30.65 16.974 33.443 33.449a8 8 0 0 0 9.225 6.549 8 8 0 0 0 6.549-9.225c-3.988-23.525-23.02-42.585-46.557-46.55a8 8 0 0 0-2.088-.077zM88 224a8 8 0 0 0-8 8 8 8 0 0 0 8 8h80a8 8 0 0 0 8-8 8 8 0 0 0-8-8z"/></svg>