<svg xmlns="http://www.w3.org/2000/svg" viewBox="0 0 256 256"><path d="M216 20c-19.74 0-36 16.26-36 36 0 9.241 3.565 17.718 9.38 24.123l-23.855 44.309a35.53 35.53 0 0 0-21.008 3.115l-16.064-16.065A35.5 35.5 0 0 0 132 96c0-19.74-16.26-36-36-36S60 76.26 60 96c0 9.241 3.565 17.718 9.38 24.123l-23.855 44.309A35.6 35.6 0 0 0 40 164c-19.74 0-36 16.26-36 36s16.26 36 36 36 36-16.26 36-36c0-9.241-3.565-17.718-9.38-24.123l23.855-44.309a35.53 35.53 0 0 0 21.008-3.115l16.064 16.065A35.5 35.5 0 0 0 124 160c0 19.74 16.26 36 36 36s36-16.26 36-36c0-9.241-3.565-17.718-9.38-24.123l23.855-44.309A35.6 35.6 0 0 0 216 92c19.74 0 36-16.26 36-36s-16.26-36-36-36zm0 24c6.77 0 12 5.23 12 12s-5.23 12-12 12c-1.889 0-3.65-.42-5.219-1.154a12 12 0 0 0-.472-.282 12 12 0 0 0-.323-.123C206.374 64.405 204 60.555 204 56c0-6.77 5.23-12 12-12zM96 84c6.77 0 12 5.23 12 12 0 3.191-1.171 6.032-3.11 8.152a12 12 0 0 0-.406.332 12 12 0 0 0-.298.375C102.062 106.816 99.208 108 96 108c-1.889 0-3.65-.42-5.219-1.154a12 12 0 0 0-.472-.282 12 12 0 0 0-.323-.123C86.374 104.405 84 100.555 84 96c0-6.77 5.23-12 12-12zm64 64c1.984 0 3.829.46 5.455 1.266l.236.17a12 12 0 0 0 .323.123C169.626 151.595 172 155.445 172 160c0 6.77-5.23 12-12 12s-12-5.23-12-12c0-3.208 1.184-6.062 3.14-8.186a12 12 0 0 0 .376-.298 12 12 0 0 0 .611-.659c2.088-1.788 4.82-2.857 7.873-2.857zM40 188c1.984 0 3.829.46 5.455 1.266l.236.17a12 12 0 0 0 .323.123C49.626 191.595 52 195.445 52 200c0 6.77-5.23 12-12 12s-12-5.23-12-12 5.23-12 12-12z"/></svg>