<svg xmlns="http://www.w3.org/2000/svg" viewBox="0 0 256 256"><path d="M175.951 24.375c-14.276-.058-28.575 5.283-39.502 16.033l-.04.04-30.06 30a8 8 0 0 0-.011 11.314 8 8 0 0 0 11.312.011l30.02-29.96.01-.008a39.88 39.88 0 0 1 56.328.238 39.88 39.88 0 0 1 .228 56.336l-30.007 29.959a8 8 0 0 0-.01 11.314 8 8 0 0 0 11.312.01l30.06-30.01.052-.05c21.5-21.855 21.357-57.195-.32-78.873-10.84-10.84-25.095-16.296-39.372-16.354zM160 88a8 8 0 0 0-5.656 2.344l-64 64a8 8 0 0 0 0 11.312 8 8 0 0 0 11.312 0l64-64a8 8 0 0 0 0-11.312A8 8 0 0 0 160 88zm-83.898 16a8 8 0 0 0-5.655 2.35l-30 30.058-.039.041c-21.5 21.854-21.358 57.195.32 78.873s57.02 21.821 78.874.32l.05-.05 30.01-30.06a8 8 0 0 0-.01-11.313 8 8 0 0 0-11.314.01l-29.96 30.007a39.88 39.88 0 0 1-56.335-.228 39.88 39.88 0 0 1-.238-56.328l.008-.01 29.96-30.02a8 8 0 0 0-.011-11.312 8 8 0 0 0-5.66-2.338z"/></svg>