<svg xmlns="http://www.w3.org/2000/svg" viewBox="0 0 256 256"><path d="M96 28a12 12 0 0 0-12 12v24a12 12 0 0 0 12 12 12 12 0 0 0 12-12V40a12 12 0 0 0-12-12zm79.959.564c-13.19-.114-26.423 4.717-36.576 14.524a12 12 0 0 0-.344.348l-11.72 12.279a12 12 0 0 0 .396 16.967 12 12 0 0 0 16.967-.397l11.431-11.978c11.086-10.653 28.315-10.492 39.194.386 10.878 10.879 11.04 28.108.386 39.194l-11.978 11.431a12 12 0 0 0-.397 16.967 12 12 0 0 0 16.967.397l12.28-11.721a12 12 0 0 0 .347-.344c19.613-20.307 19.328-52.931-.635-72.894-9.981-9.982-23.128-15.044-36.318-15.159zM40 84a12 12 0 0 0-12 12 12 12 0 0 0 12 12h24a12 12 0 0 0 12-12 12 12 0 0 0-12-12zm24.28 40.004a12 12 0 0 0-8.565 3.314l-12.28 11.721a12 12 0 0 0-.347.344c-19.613 20.307-19.328 52.931.635 72.894s52.587 20.248 72.894.635a12 12 0 0 0 .344-.348l11.72-12.279a12 12 0 0 0-.396-16.967 12 12 0 0 0-16.967.397l-11.431 11.978c-11.086 10.653-28.315 10.492-39.194-.386-10.878-10.879-11.04-28.108-.386-39.194l11.978-11.431a12 12 0 0 0 .397-16.967 12 12 0 0 0-8.403-3.711zM192 148a12 12 0 0 0-12 12 12 12 0 0 0 12 12h24a12 12 0 0 0 12-12 12 12 0 0 0-12-12zm-32 32a12 12 0 0 0-12 12v24a12 12 0 0 0 12 12 12 12 0 0 0 12-12v-24a12 12 0 0 0-12-12z"/></svg>