<svg xmlns="http://www.w3.org/2000/svg" viewBox="0 0 256 256"><path d="M40 52a12 12 0 0 0-12 12 12 12 0 0 0 12 12h16a12 12 0 0 0 12-12 12 12 0 0 0-12-12zm56 0a12 12 0 0 0-12 12 12 12 0 0 0 12 12h120a12 12 0 0 0 12-12 12 12 0 0 0-12-12zm-56 64a12 12 0 0 0-12 12 12 12 0 0 0 12 12h16a12 12 0 0 0 12-12 12 12 0 0 0-12-12zm56 0a12 12 0 0 0-12 12 12 12 0 0 0 12 12h120a12 12 0 0 0 12-12 12 12 0 0 0-12-12zm-56 64a12 12 0 0 0-12 12 12 12 0 0 0 12 12h16a12 12 0 0 0 12-12 12 12 0 0 0-12-12zm56 0a12 12 0 0 0-12 12 12 12 0 0 0 12 12h120a12 12 0 0 0 12-12 12 12 0 0 0-12-12z"/></svg>