<svg xmlns="http://www.w3.org/2000/svg" viewBox="0 0 256 256"><path d="M44 48a16 16 0 0 0-16 16 16 16 0 0 0 16 16 16 16 0 0 0 16-16 16 16 0 0 0-16-16zm44 4a12 12 0 0 0-12 12 12 12 0 0 0 12 12h128a12 12 0 0 0 12-12 12 12 0 0 0-12-12zm-44 60a16 16 0 0 0-16 16 16 16 0 0 0 16 16 16 16 0 0 0 16-16 16 16 0 0 0-16-16zm44 4a12 12 0 0 0-12 12 12 12 0 0 0 12 12h128a12 12 0 0 0 12-12 12 12 0 0 0-12-12zm-44 60a16 16 0 0 0-16 16 16 16 0 0 0 16 16 16 16 0 0 0 16-16 16 16 0 0 0-16-16zm44 4a12 12 0 0 0-12 12 12 12 0 0 0 12 12h128a12 12 0 0 0 12-12 12 12 0 0 0-12-12z"/></svg>