<svg xmlns="http://www.w3.org/2000/svg" viewBox="0 0 256 256"><path d="M168 12a12 12 0 0 0-12 12v28H76c-35.204 0-64 28.796-64 64v60c0 10.904 9.096 20 20 20h84v28a12 12 0 0 0 12 12 12 12 0 0 0 12-12v-28h84c10.904 0 20-9.096 20-20v-60c0-35.204-28.796-64-64-64V36h20a12 12 0 0 0 12-12 12 12 0 0 0-12-12zM76 76c22.233 0 40 17.767 40 40v56H36v-56c0-22.233 17.767-40 40-40zm49.826 0H156v68a12 12 0 0 0 12 12 12 12 0 0 0 12-12V76c22.233 0 40 17.767 40 40v56h-80v-56c0-15.112-5.333-29.02-14.174-40zM64 136a12 12 0 0 0-12 12 12 12 0 0 0 12 12h24a12 12 0 0 0 12-12 12 12 0 0 0-12-12z"/></svg>