<svg xmlns="http://www.w3.org/2000/svg" viewBox="0 0 256 256"><path d="M96 32a8 8 0 0 0-.81.162 8 8 0 0 0-1.13.076l-64 16A8 8 0 0 0 24 56v144a8 8 0 0 0 9.94 7.762l61.128-15.282 61.354 30.676a8 8 0 0 0 .299.088 8 8 0 0 0 1.076.317 8 8 0 0 0 1.805.359 8 8 0 0 0 .398.08 8 8 0 0 0 .81-.162 8 8 0 0 0 1.13-.076l64-16A8 8 0 0 0 232 200V56a8 8 0 0 0-9.94-7.762l-61.128 15.283-61.354-30.677-.103-.032a8 8 0 0 0-2.557-.751l-.121-.008A8 8 0 0 0 96 32zm-8 18.246v127.508l-48 12V62.246zm16 2.7 48 24v126.109l-48-24zm112 13.3v127.508l-48 12V78.246z"/></svg>