<svg xmlns="http://www.w3.org/2000/svg" viewBox="0 0 256 256"><path d="M128 12c-50.668 0-92 41.332-92 92 0 50.9 33.687 92.286 58.678 116H56a12 12 0 0 0-12 12 12 12 0 0 0 12 12h144a12 12 0 0 0 12-12 12 12 0 0 0-12-12h-38.678C186.313 196.286 220 154.9 220 104c0-50.668-41.332-92-92-92zm0 24c37.697 0 68 30.303 68 68 0 53.831-51.979 99.585-68 112.53-16.021-12.946-68-58.7-68-112.53 0-37.697 30.303-68 68-68zm0 24c-24.158 0-44 19.842-44 44s19.842 44 44 44 44-19.842 44-44-19.842-44-44-44zm0 24c11.188 0 20 8.812 20 20s-8.812 20-20 20-20-8.812-20-20 8.812-20 20-20z"/></svg>