<svg xmlns="http://www.w3.org/2000/svg" viewBox="0 0 256 256"><path d="M24 48c-8.726 0-16 7.274-16 16v128c0 8.726 7.274 16 16 16h208c8.726 0 16-7.274 16-16V64c0-8.726-7.274-16-16-16zm0 16h208v128H24zm152 32a8 8 0 0 0-8 8v28.688l-10.344-10.344A8 8 0 0 0 152 120a8 8 0 0 0-5.656 2.344 8 8 0 0 0 0 11.312l24 24a8 8 0 0 0 .302.233 8 8 0 0 0 .973.746 8 8 0 0 0 .63.396 8 8 0 0 0 1.22.504 8 8 0 0 0 .595.21A8 8 0 0 0 176 160a8 8 0 0 0 1.936-.256 8 8 0 0 0 .595-.209 8 8 0 0 0 1.22-.504 8 8 0 0 0 .63-.396 8 8 0 0 0 .973-.746 8 8 0 0 0 .302-.233l24-24a8 8 0 0 0 0-11.312 8 8 0 0 0-11.312 0L184 132.688V104a8 8 0 0 0-8-8zm-120 .002A8 8 0 0 0 48 104v48a8 8 0 0 0 8 8 8 8 0 0 0 8-8v-28.687l18.344 18.343a8 8 0 0 0 11.312 0L112 123.312V152a8 8 0 0 0 8 8 8 8 0 0 0 8-8v-48a8 8 0 0 0-13.656-5.656L88 124.688 61.656 98.344A8 8 0 0 0 56 96.002z"/></svg>