<svg xmlns="http://www.w3.org/2000/svg" viewBox="0 0 256 256"><path d="M207.795 32.031q-.845-.002-1.697.09a15.3 15.3 0 0 0-3.877.95l-.012.003C187.679 38.73 159.382 47.711 128 47.711s-59.676-8.98-74.217-14.62l-.004-.001C43.55 29.126 32.013 37.019 32 47.99v55.78c0 36.898 10.18 70.434 27.18 95.203C76.179 223.742 100.55 240 128 240s51.82-16.257 68.82-41.023 27.18-58.3 27.18-95.188V48.01c.012-9.012-7.757-15.962-16.205-15.978zm.205 15.96v55.799c0 33.92-9.52 64.496-24.371 86.132S149.15 224 128 224s-40.778-12.442-55.629-34.08S48 137.7 48 103.77V48.01c15.68 6.08 45.603 15.7 80 15.7 34.391 0 64.308-9.614 80-15.72zM92 112c-9.428 0-19.265 3.176-25.963 10.668a8 8 0 0 0 .631 11.295 8 8 0 0 0 11.295-.631C80.044 131.004 87.208 128 92 128s11.956 3.004 14.037 5.332a8 8 0 0 0 11.295.63 8 8 0 0 0 .63-11.294C111.266 115.176 101.429 112 92 112zm72 0c-9.428 0-19.265 3.176-25.963 10.668a8 8 0 0 0 .631 11.295 8 8 0 0 0 11.295-.631C152.044 131.004 159.208 128 164 128s11.956 3.004 14.037 5.332a8 8 0 0 0 11.295.63 8 8 0 0 0 .63-11.294C183.266 115.176 173.429 112 164 112zm-69.67 48.03a8 8 0 0 0-5.838 1.847 8 8 0 0 0-.976 11.271c21.033 25.018 59.935 25.018 80.968 0a8 8 0 0 0-.976-11.271 8 8 0 0 0-11.272.975 36.727 36.727 0 0 1-56.472 0 8 8 0 0 0-5.434-2.823z"/></svg>