<svg xmlns="http://www.w3.org/2000/svg" viewBox="0 0 256 256"><path d="M72 32c-21.997 0-40 18.003-40 40v120c0 21.997 18.003 40 40 40h88a8 8 0 0 0 8-8 8 8 0 0 0-8-8H72c-13.35 0-24-10.65-24-24v-8h136c21.997 0 40-18.003 40-40V72c0-21.997-18.003-40-40-40zm0 16h112c13.35 0 24 10.65 24 24v72c0 13.35-10.65 24-24 24H48V72c0-13.35 10.65-24 24-24zm32 24c-17.578 0-32 14.422-32 32v32a8 8 0 0 0 8 8 8 8 0 0 0 8-8v-32c0-8.931 7.069-16 16-16s16 7.069 16 16v32a8 8 0 0 0 8 8 8 8 0 0 0 8-8v-32c0-8.931 7.069-16 16-16s16 7.069 16 16v32a8 8 0 0 0 8 8 8 8 0 0 0 8-8v-32c0-17.578-14.422-32-32-32-9.527 0-18.12 4.241-24 10.92C122.12 76.24 113.527 72 104 72z"/></svg>