<svg xmlns="http://www.w3.org/2000/svg" viewBox="0 0 256 256"><path d="M40 32a8 8 0 0 0-8 8v176a8 8 0 0 0 8 8h24a8 8 0 0 0 8-8 8 8 0 0 0-8-8H48V48h16a8 8 0 0 0 8-8 8 8 0 0 0-8-8zm152 0a8 8 0 0 0-8 8 8 8 0 0 0 8 8h16v160h-16a8 8 0 0 0-8 8 8 8 0 0 0 8 8h24a8 8 0 0 0 8-8V40a8 8 0 0 0-8-8zM80 88a8 8 0 0 0-8 8v64a8 8 0 0 0 8 8 8 8 0 0 0 8-8v-40c0-8.931 7.069-16 16-16s16 7.069 16 16v40a8 8 0 0 0 8 8 8 8 0 0 0 8-8v-40c0-8.931 7.069-16 16-16s16 7.069 16 16v40a8 8 0 0 0 8 8 8 8 0 0 0 8-8v-40c0-17.578-14.422-32-32-32-9.527 0-18.12 4.241-24 10.92C122.12 92.24 113.527 88 104 88a31.7 31.7 0 0 0-16.7 4.75A8 8 0 0 0 80 88z"/></svg>