<svg xmlns="http://www.w3.org/2000/svg" viewBox="0 0 256 256"><path d="M128 4C77.332 4 36 45.332 36 96c0 27.771 12.435 52.718 32 69.611V240a12 12 0 0 0 17.367 10.732l42.623-21.316 42.645 21.318A12 12 0 0 0 188 240v-74.389c19.565-16.893 32-41.84 32-69.611 0-50.668-41.332-92-92-92zm0 24c37.697 0 68 30.303 68 68 0 22.15-10.471 41.738-26.748 54.135a12 12 0 0 0-.647.498C157.291 159.037 143.252 164 128 164c-15.008 0-28.834-4.814-40.053-12.975a12 12 0 0 0-1.441-1.08C70.369 137.54 60 118.04 60 96c0-37.697 30.303-68 68-68zm0 16c-28.577 0-52 23.423-52 52s23.423 52 52 52 52-23.423 52-52-23.423-52-52-52zm0 24c15.606 0 28 12.394 28 28s-12.394 28-28 28-28-12.394-28-28 12.394-28 28-28zM92 180.637A91.3 91.3 0 0 0 128 188a91.3 91.3 0 0 0 36-7.363v39.947l-30.645-15.318a12 12 0 0 0-10.732.002L92 220.582z"/></svg>