<svg xmlns="http://www.w3.org/2000/svg" viewBox="0 0 256 256"><path d="M72 64C36.749 64 8 92.749 8 128s28.749 64 64 64 64-28.749 64-64-28.749-64-64-64zm112 0c-5.836 0-11.053 2.85-14.96 6.707-3.91 3.857-6.902 8.799-9.364 14.543C154.752 96.738 152 111.61 152 128s2.752 31.262 7.676 42.75c2.462 5.744 5.455 10.686 9.363 14.543S178.164 192 184 192s11.053-2.85 14.96-6.707c3.91-3.857 6.902-8.799 9.364-14.543C213.248 159.262 216 144.39 216 128s-2.752-31.262-7.676-42.75c-2.462-5.744-5.455-10.686-9.363-14.543S189.836 64 184 64zm56 0a8 8 0 0 0-8 8v112a8 8 0 0 0 8 8 8 8 0 0 0 8-8V72a8 8 0 0 0-8-8zM72 80c26.604 0 48 21.396 48 48s-21.396 48-48 48-48-21.396-48-48 21.396-48 48-48zm112 0c.792 0 1.888.285 3.723 2.096 1.834 1.81 4.013 5.067 5.894 9.457C197.38 100.333 200 113.463 200 128s-2.62 27.667-6.383 36.447c-1.881 4.39-4.06 7.647-5.894 9.457S184.792 176 184 176s-1.888-.285-3.723-2.096c-1.834-1.81-4.013-5.067-5.894-9.457C170.62 155.667 168 142.537 168 128s2.62-27.667 6.383-36.447c1.881-4.39 4.06-7.647 5.894-9.457S183.208 80 184 80z"/></svg>