<svg xmlns="http://www.w3.org/2000/svg" viewBox="0 0 256 256"><path d="M48.338 24.246c-8.255.118-16.324 6.585-16.338 15.742v160.014c.003 13.027 16.318 20.622 26.291 12.246 38.38-32.198 77.258-40.974 93.709-43.35v31.776a16.02 16.02 0 0 0 7.12 13.3l.003.003 11 7.33c9.002 6.001 21.78 1.058 24.398-9.44l11.756-44.328C229.743 164.436 248 144.283 248 120c0-26.415-21.585-48-48-48h-39.736c-.154-.006-51.633-2.024-101.963-44.232a14.87 14.87 0 0 0-8.313-3.46q-.825-.075-1.65-.062zM48 40.012l.01.008C90.794 75.904 134.924 84.918 152 87.174v65.652c-17.076 2.256-61.208 11.272-103.992 47.164l-.008.008zM168 88h32a31.88 31.88 0 0 1 32 32 31.88 31.88 0 0 1-32 32h-32zm0 80h21.602l-10.575 39.879-.029.115-.002-.002L168 200.666V168z"/></svg>