<svg xmlns="http://www.w3.org/2000/svg" viewBox="0 0 256 256"><path d="M24 56c-8.742 0-16 7.258-16 16v128a8 8 0 0 0 8 8 8 8 0 0 0 8-8v-16h16v16a8 8 0 0 0 8 8 8 8 0 0 0 8-8v-16h16v16a8 8 0 0 0 8 8 8 8 0 0 0 8-8v-16h16v16a8 8 0 0 0 8 8 8 8 0 0 0 8-8v-16h16v16a8 8 0 0 0 8 8 8 8 0 0 0 8-8v-16h16v16a8 8 0 0 0 8 8 8 8 0 0 0 8-8v-16h16v16a8 8 0 0 0 8 8 8 8 0 0 0 8-8v-16h16v16a8 8 0 0 0 8 8 8 8 0 0 0 8-8V72c0-8.742-7.258-16-16-16zm0 16h208v96H24zm24 16a8 8 0 0 0-8 8v48a8 8 0 0 0 8 8h64a8 8 0 0 0 8-8V96a8 8 0 0 0-8-8zm96 0a8 8 0 0 0-8 8v48a8 8 0 0 0 8 8h64a8 8 0 0 0 8-8V96a8 8 0 0 0-8-8zm-88 16h48v32H56zm96 0h48v32h-48z"/></svg>