<svg xmlns="http://www.w3.org/2000/svg" viewBox="0 0 256 256"><path d="M80 16c-8.726 0-16 7.274-16 16v104c0 8.726 7.274 16 16 16h48c8.726 0 16-7.274 16-16V80.451c27.663 3.074 51.348 21.91 60.305 48.781A71.93 71.93 0 0 1 181.245 208H32a8 8 0 0 0-8 8 8 8 0 0 0 8 8h192a8 8 0 0 0 8-8 8 8 0 0 0-8-8h-20.117c18.974-23.015 25.328-54.647 15.601-83.828C208.367 90.82 178.522 67.523 144 64.377V32c0-8.726-7.274-16-16-16zm0 16h48v104H80zm-8 136a8 8 0 0 0-8 8 8 8 0 0 0 8 8h64a8 8 0 0 0 8-8 8 8 0 0 0-8-8z"/></svg>