<svg xmlns="http://www.w3.org/2000/svg" viewBox="0 0 256 256"><path d="M135.45 16.031q-1.158.017-2.31.1c-10.23.741-20.056 5.396-27.14 13.43C97.565 39.125 94.373 51.947 96.816 64H40c-8.726 0-16 7.274-16 16v96c0 8.726 7.274 16 16 16h36.668c9.693 23.962 33.096 40.007 59.334 40 26.826 0 49.87-16.658 59.36-40.152C215.8 190.124 232 172.864 232 152V92.74C232 85.8 226.201 80 219.26 80h-7.756c4.841-8.278 6.104-18.674 1.97-28.455-5.5-13.02-18.443-19.948-31.226-19.354a31.8 31.8 0 0 0-12.113 3.002 39.96 39.96 0 0 0-18.647-16.054 39.9 39.9 0 0 0-16.039-3.108zm.667 15.977c3.084.018 6.2.633 9.176 1.883a23.94 23.94 0 0 1 14.646 23.863 23.93 23.93 0 0 1-8.884 16.947C148.828 68.521 142.873 64 136 64h-22.62A23.92 23.92 0 0 1 118 40.143a23.94 23.94 0 0 1 18.117-8.135zM184.16 47.83c6.016.023 11.864 3.524 14.576 9.943C203.305 68.585 195.737 80 184 80h-16.012a39.9 39.9 0 0 0 7.908-21.088c.21-2.9.095-5.768-.308-8.566 2.669-1.706 5.64-2.527 8.572-2.516zM40 80h96v96H40zm32 16a8 8 0 0 0-8 8 8 8 0 0 0 8 8h8v40a8 8 0 0 0 8 8 8 8 0 0 0 8-8v-40h8a8 8 0 0 0 8-8 8 8 0 0 0-8-8zm80 0h32v72c0 26.604-21.396 48-48 48h-.002a47.92 47.92 0 0 1-41.572-24H136c8.726 0 16-7.274 16-16zm48 0h16v56c0 10.67-6.813 19.599-16.361 22.76.235-2.223.361-4.477.361-6.76z"/></svg>