<svg xmlns="http://www.w3.org/2000/svg" viewBox="0 0 256 256"><path d="M48 40c-13.158 0-24 10.842-24 24v112c0 13.158 10.842 24 24 24h160c13.158 0 24-10.842 24-24V64c0-13.158-10.842-24-24-24zm0 16h160c4.57 0 8 3.43 8 8v112c0 4.57-3.43 8-8 8H48c-4.57 0-8-3.43-8-8V64c0-4.57 3.43-8 8-8zm80 24a8 8 0 0 0-5.656 2.344l-24 24a8 8 0 0 0 0 11.312 8 8 0 0 0 11.312 0L120 107.312V152a8 8 0 0 0 8 8 8 8 0 0 0 8-8v-44.688l10.344 10.344a8 8 0 0 0 11.312 0 8 8 0 0 0 0-11.312l-24-24-.05-.04a8 8 0 0 0-1.563-1.199l-.102-.058a8 8 0 0 0-1.851-.766l-.053-.011A8 8 0 0 0 128 80zM96 216a8 8 0 0 0-8 8 8 8 0 0 0 8 8h64a8 8 0 0 0 8-8 8 8 0 0 0-8-8z"/></svg>