<svg xmlns="http://www.w3.org/2000/svg" viewBox="0 0 256 256"><path d="M48 40c-13.158 0-24 10.842-24 24v112c0 13.158 10.842 24 24 24h160c13.158 0 24-10.842 24-24V64c0-13.158-10.842-24-24-24zm0 16h160c4.57 0 8 3.43 8 8v112c0 4.57-3.43 8-8 8H48c-4.57 0-8-3.43-8-8V64c0-4.57 3.43-8 8-8zm64.865 24.049a8 8 0 0 0-1.914.021A8 8 0 0 0 104 88v64a8 8 0 0 0 12.437 6.656l48-32a8 8 0 0 0 0-13.312l-48-32a8 8 0 0 0-3.572-1.295zM120 102.947 145.578 120 120 137.053zM96 216a8 8 0 0 0-8 8 8 8 0 0 0 8 8h64a8 8 0 0 0 8-8 8 8 0 0 0-8-8z"/></svg>