<svg xmlns="http://www.w3.org/2000/svg" viewBox="0 0 256 256"><path d="M132 28a12 12 0 0 0-12 12 12 12 0 0 0 12 12h23.684l30.242 80.646A44.5 44.5 0 0 0 171.055 152h-29.239l-22.58-60.213A12 12 0 0 0 108 84H28a12 12 0 0 0-12 12 12 12 0 0 0 12 12h4v2.973c-19.436 10.274-32.007 30.595-32 53.03A12 12 0 0 0 12 176h4.75c3.803 20.386 21.822 36 43.25 36s39.447-15.614 43.25-36h65.5c3.803 20.386 21.822 36 43.25 36 24.158 0 44-19.842 44-44s-19.842-44-44-44c-1.22 0-2.426.065-3.623.164l-33.14-88.377A12 12 0 0 0 164 28zm-76 80h43.684l16.5 44H26.107c3.547-10.057 11.41-18.25 21.893-21.957a12 12 0 0 0 8-11.313zm156 40c11.188 0 20 8.812 20 20s-8.812 20-20 20-20-8.812-20-20c0-8.678 5.312-15.907 12.912-18.723l.06-.011.124-.053A20.4 20.4 0 0 1 212 148zM41.625 176h36.75c-3.04 7.112-10.046 12-18.375 12s-15.335-4.888-18.375-12z"/></svg>