<svg xmlns="http://www.w3.org/2000/svg" viewBox="0 0 256 256"><path d="M144 48a8 8 0 0 0-8 8 8 8 0 0 0 8 8h26.506l9.23 24H152c-18.809 0-33.415 4.264-43.324 12.422a15.96 15.96 0 0 1-16.774 2.119l-.033-.016C66.117 90.827 18.891 72.541 18.891 72.541a8 8 0 0 0-10.35 4.568 8 8 0 0 0 4.568 10.35s47.354 18.376 72.11 29.62a32.04 32.04 0 0 0 33.547-4.241l.048-.04C124.744 107.903 135.64 104 152 104h18.965c-11.425 9.182-20.164 21.749-24.319 36.594l.014-.053A15.764 15.764 0 0 1 131.383 152H79.19c-3.734-18.2-19.93-32-39.19-32-21.997 0-40 18.003-40 40s18.003 40 40 40c19.26 0 35.456-13.8 39.19-32h52.128c14.206.058 26.799-9.388 30.721-23.041l.016-.053c4.126-14.741 13.906-26.66 26.586-33.756l5.841 15.188C183.392 133.469 176 145.91 176 160c0 21.997 18.003 40 40 40s40-18.003 40-40-18.003-40-40-40c-2.247 0-4.45.198-6.6.559l-5.822-15.14c4.015-.908 8.166-1.42 12.42-1.419H216a8 8 0 0 0 .002-16h-19.123l-13.412-34.871A8 8 0 0 0 176 48zM40 136c10.537 0 19.389 6.639 22.652 16H40a8 8 0 0 0-8 8 8 8 0 0 0 8 8h22.652C59.39 177.361 50.537 184 40 184c-13.35 0-24-10.65-24-24s10.65-24 24-24zm176 0c13.35 0 24 10.65 24 24s-10.65 24-24 24-24-10.65-24-24c0-7.364 3.252-13.895 8.398-18.281l8.135 21.152a8 8 0 0 0 10.338 4.596 8 8 0 0 0 4.596-10.338l-8.121-21.113c.218-.006.435-.016.654-.016z"/></svg>