<svg xmlns="http://www.w3.org/2000/svg" viewBox="0 0 256 256"><path d="M160 16c-17.53 0-32 14.47-32 32s14.47 32 32 32 32-14.47 32-32-14.47-32-32-32zm0 24c4.56 0 8 3.44 8 8s-3.44 8-8 8-8-3.44-8-8 3.44-8 8-8zM92 60.35c-6.763 0-13.527 3.171-17.25 9.515v.002L1.662 193.908A12.001 12.001 0 0 0 12 212h232a12.001 12.001 0 0 0 10.32-18.123l-54.619-92.06h-.002c-3.735-6.295-10.467-9.442-17.199-9.442s-13.464 3.147-17.2 9.441l-.007.012-18.647 31.506-37.396-63.469C105.527 63.521 98.763 60.35 92 60.35zm0 27.52L108.576 116H75.424zm90.506 32L222.928 188h-44.07l-18.297-31.053zM61.28 140h61.438l28.283 48H32.998z"/></svg>