<svg xmlns="http://www.w3.org/2000/svg" viewBox="0 0 256 256"><path d="M112 24c-8.726 0-16 7.274-16 16v32c0 8.726 7.274 16 16 16h8v24H24a8 8 0 0 0-8 8 8 8 0 0 0 8 8h32v32h-8c-8.726 0-16 7.274-16 16v32c0 8.726 7.274 16 16 16h32c8.726 0 16-7.274 16-16v-32c0-8.726-7.274-16-16-16h-8v-32h112v16a8 8 0 0 0 8 8 8 8 0 0 0 8-8v-16h32a8 8 0 0 0 8-8 8 8 0 0 0-8-8h-96V88h8c8.726 0 16-7.274 16-16V40c0-8.726-7.274-16-16-16zm0 16h32v32h-32zm56 120a8 8 0 0 0-5.656 2.344 8 8 0 0 0 0 11.312L180.688 192l-18.344 18.344a8 8 0 0 0 0 11.312 8 8 0 0 0 11.312 0L192 203.312l18.344 18.344a8 8 0 0 0 11.312 0 8 8 0 0 0 0-11.312L203.312 192l18.344-18.344a8 8 0 0 0 0-11.312A8 8 0 0 0 216 160a8 8 0 0 0-5.656 2.344L192 180.688l-18.344-18.344A8 8 0 0 0 168 160zM48 176h32v32H48z"/></svg>