<svg xmlns="http://www.w3.org/2000/svg" viewBox="0 0 256 256"><path d="M207.43 28.014a12 12 0 0 0-8.309 3.914l-12.42 13.662C176.527 39.509 164.657 36 152 36H56a12 12 0 0 0-12 12 12 12 0 0 0 12 12h96a44.1 44.1 0 0 1 18.084 3.867L93.602 148H56a12 12 0 0 0-12 12 12 12 0 0 0 12 12h15.783l-32.662 35.928a12 12 0 0 0 .807 16.95 12 12 0 0 0 16.95-.806L67.855 212H208a12 12 0 0 0 12-12 12 12 0 0 0-12-12H89.672l14.545-16H152c37.413 0 68-30.587 68-68 0-16.133-5.697-30.989-15.166-42.678l12.045-13.25a12 12 0 0 0-.807-16.95 12 12 0 0 0-8.642-3.108zm-18.936 51.283C193.238 86.323 196 94.817 196 104c0 24.443-19.557 44-44 44h-25.965z"/></svg>