<svg xmlns="http://www.w3.org/2000/svg" viewBox="0 0 256 256"><path d="M135.873 36.002a12 12 0 0 0-3.102.441 12 12 0 0 0-7.226 5.668l-49.57 88a12 12 0 0 0-.172.428C70.848 139.257 68 149.31 68 160c0 32.995 27.005 60 60 60s60-27.005 60-60-27.005-60-60-60c-2.65 0-5.257.192-7.818.53l26.273-46.641a12 12 0 0 0-4.566-16.344 12 12 0 0 0-6.016-1.543zM128 124c20.024 0 36 15.976 36 36s-15.976 36-36 36-36-15.976-36-36c0-6.544 1.73-12.638 4.727-17.9l.158-.211.414-.737C103.599 130.842 114.919 124 128 124z"/></svg>