<svg xmlns="http://www.w3.org/2000/svg" viewBox="0 0 256 256"><path d="M104 36a12 12 0 0 0-11.768 9.646l-15.08 75.42a12.001 12.001 0 0 0 19.537 11.498 35.94 35.94 0 0 1 38.631-5.14 35.94 35.94 0 0 1 20.674 33.035 35.94 35.94 0 0 1-21.508 32.498A35.94 35.94 0 0 1 96 186.836a12 12 0 0 0-16.945.945A12 12 0 0 0 80 204.725c17.511 15.66 42.641 19.658 64.146 10.203s35.548-30.674 35.846-54.164c.299-23.49-13.199-45.058-34.457-55.057-12.75-5.997-26.907-7.096-40.074-3.809L113.838 60H168a12 12 0 0 0 12-12 12 12 0 0 0-12-12z"/></svg>