<svg xmlns="http://www.w3.org/2000/svg" viewBox="0 0 256 256"><path d="M128 32c-26.415 0-48 21.585-48 48 0 16.197 8.125 30.567 20.494 39.27C83.512 128.909 72 147.153 72 168c0 30.833 25.167 56 56 56s56-25.167 56-56c0-20.847-11.512-39.091-28.494-48.73C167.875 110.567 176 96.197 176 80c0-26.415-21.585-48-48-48zm0 16a31.88 31.88 0 0 1 32 32 31.88 31.88 0 0 1-32 32 31.88 31.88 0 0 1-32-32 31.88 31.88 0 0 1 32-32zm0 80a39.88 39.88 0 0 1 40 40 39.88 39.88 0 0 1-40 40 39.88 39.88 0 0 1-40-40 39.88 39.88 0 0 1 40-40z"/></svg>