<svg xmlns="http://www.w3.org/2000/svg" viewBox="0 0 256 256"><path d="M93.72 16c-7.903 0-14.723 5.915-15.84 13.74l-13.72 95.998v.002C62.805 135.235 70.41 144 80 144h96c9.591 0 17.195-8.765 15.84-18.26v-.002L178.12 29.74C177.002 21.915 170.182 16 162.28 16zm0 16h68.56l.001.002L176 128H80l13.719-95.998zM16 120a8 8 0 0 0-8 8 8 8 0 0 0 8 8h16.725c3.84 22.63 23.59 40 47.275 40h40v24H96c-17.578 0-32 14.422-32 32a8 8 0 0 0 8 8 8 8 0 0 0 8-8c0-8.931 7.069-16 16-16h24v16a8 8 0 0 0 8 8 8 8 0 0 0 8-8v-16h24c8.931 0 16 7.069 16 16a8 8 0 0 0 8 8 8 8 0 0 0 8-8c0-17.578-14.422-32-32-32h-24v-24h40c23.685 0 43.435-17.37 47.275-40H240a8 8 0 0 0 8-8 8 8 0 0 0-8-8h-24a8 8 0 0 0-8 8 31.88 31.88 0 0 1-32 32H80a31.88 31.88 0 0 1-32-32 8 8 0 0 0-8-8z"/></svg>