<svg xmlns="http://www.w3.org/2000/svg" viewBox="0 0 256 256"><path d="M147.43 19.982a129 129 0 0 0-7.016.028c-28.131.877-56.81 11.02-77.502 32.068l-.002.002c-27.52 28.014-30.502 74.157-24.45 113.434 3.025 19.638 8.515 37.728 15.973 51.836 3.729 7.053 7.926 13.16 13.158 17.998S79.613 244 87.52 244c11.343 0 21.2-5.337 27.959-12.244 6.757-6.907 11.32-15.13 15.623-23.334 8.605-16.407 16.375-32.523 27.384-39.99l.002-.002c8.964-6.083 27.026-10.518 44.14-19.805C219.745 139.338 236 121.592 236 93.16c0-19.53-8.208-36.37-20.818-48.283S185.926 25.57 168.047 22.16a126 126 0 0 0-20.617-2.178zm-.395 24.08c5.63.096 11.179.654 16.516 1.672 14.232 2.715 26.687 8.593 35.15 16.588S212 80.02 212 93.16c0 20.568-7.829 27.321-20.818 34.37s-31.054 10.783-46.17 21.04c-18.859 12.793-27.15 33.426-35.164 48.703-4.007 7.64-7.895 13.991-11.524 17.7S92.231 220 87.52 220c-.121 0-1.279-.092-3.635-2.271-2.356-2.18-5.386-6.205-8.237-11.596-5.7-10.783-10.784-26.848-13.468-44.274-5.37-34.85-.319-74.463 17.851-92.959 15.436-15.7 38.685-23.933 61.354-24.779q2.835-.105 5.65-.059z"/></svg>