<svg xmlns="http://www.w3.org/2000/svg" viewBox="0 0 256 256"><path d="M83.998 20c-9.115.001-17.19 6.308-19.4 15.15l-36 144c-3.085 12.342 6.679 24.848 19.4 24.85h22.41l-1.78 7.15c-3.077 12.315 6.632 24.8 19.325 24.85h31.559c9.114-.001 17.19-6.308 19.4-15.15l8.24-32.85h28.85c27.468-.004 51.538-18.801 58.2-45.45 6.948-27.8-7.042-55.243-30.47-67.657-2.663-29.83-27.834-54.888-59.73-54.893zm3.125 24H144c16.256.003 29.335 10.224 34.1 24.063-.699-.025-1.393-.063-2.098-.063h-56.004c-9.115.001-17.19 6.308-19.4 15.15l-12 48-.008.145L76.387 180H53.123zm36 48H176c.64 0 1.272.023 1.902.055A35.87 35.87 0 0 1 143.998 116h-26.875zm76.979 9.117c9.486 8.464 14.271 21.79 10.816 35.613a35.894 35.894 0 0 1-34.92 27.27h-32.045c-9.088.036-17.12 6.334-19.324 15.15l-8.24 32.85h-23.24l5.755-23.123.006-.02.002-.007.002-.012L111.152 140h32.85c25.143-.004 47.397-15.778 56.1-38.883z"/></svg>