<svg xmlns="http://www.w3.org/2000/svg" viewBox="0 0 256 256"><path d="M80 16c-8.742 0-16 7.258-16 16v37.904L33.857 123.51a8 8 0 0 0-.199.375 16.04 16.04 0 0 0 1.461 16.58l.102.135 86.44 112.28a8 8 0 0 0 .247.204 8 8 0 0 0 2.205 1.805 8 8 0 0 0 .746.38A8 8 0 0 0 128 256a8 8 0 0 0 3.14-.73 8 8 0 0 0 .745-.381 8 8 0 0 0 2.217-1.815 8 8 0 0 0 .238-.195l86.43-112.28.101-.134a16.04 16.04 0 0 0 1.461-16.58 8 8 0 0 0-.2-.375L192 69.904V32c0-8.742-7.258-16-16-16zm0 16h96v32H80zm-3.32 48h102.64l28.66 50.982-71.98 93.51v-65.676c11.518-3.474 20-14.223 20-26.816 0-15.37-12.63-28-28-28s-28 12.63-28 28c0 12.593 8.482 23.342 20 26.816v65.678l-71.99-93.51zM128 120c6.722 0 12 5.278 12 12s-5.278 12-12 12-12-5.278-12-12 5.278-12 12-12z"/></svg>