<svg xmlns="http://www.w3.org/2000/svg" viewBox="0 0 256 256"><path d="M171.324 24.04c-4.11 0-8.218 1.544-11.308 4.632l-.002.002-41.67 41.67a8 8 0 0 0 0 11.312 8 8 0 0 0 11.312 0L136 75.312 152.688 92l-7.696 7.693a8 8 0 0 0 0 11.315 8 8 0 0 0 11.315 0l7.693-7.695 16.672 16.671-9.008 9.008a8 8 0 0 0 0 11.315 8 8 0 0 0 11.313 0l14.572-14.573.107-.078a8 8 0 0 0 .264-.293l29.396-29.396.002-.002c6.177-6.18 6.177-16.439 0-22.62l-.002-.003-44.68-44.67h-.001c-3.09-3.088-7.201-4.633-11.31-4.633zM48.381 32.01a8 8 0 0 0-5.762 2.07 8 8 0 0 0-.539 11.3l48.203 53.024-53.6 53.6-.003.002a16 16 0 0 0-4.68 11.3V208c0 8.742 7.258 16 16 16h44.693a16 16 0 0 0 11.301-4.68l.002-.004 50.395-50.394 47.69 52.459a8 8 0 0 0 11.3.539 8 8 0 0 0 .539-11.3l-160-176a8 8 0 0 0-5.54-2.61zm122.943 7.978 44.678 44.666-.002.002-24.016 24.016-22.328-22.328L147.312 64zm-70.267 70.268 15.892 17.482L68 176.688 51.313 160zm26.668 29.332 15.892 17.482L96 204.688 79.313 188zM48 179.313 76.688 208H48z"/></svg>