<svg xmlns="http://www.w3.org/2000/svg" viewBox="0 0 256 256"><path d="M72 24a8 8 0 0 0-5.656 2.344l-32 32A8 8 0 0 0 32 64v144c0 8.742 7.258 16 16 16h48c8.742 0 16-7.258 16-16V64a8 8 0 0 0-2.344-5.656l-32-32A8 8 0 0 0 72 24zm88 8c-8.726 0-16 7.274-16 16v160c0 8.726 7.274 16 16 16h48c8.726 0 16-7.274 16-16V48c0-8.726-7.274-16-16-16zM72 43.313 92.686 64H51.312zM160 48h48v160h-48v-32h24a8 8 0 0 0 8-8 8 8 0 0 0-8-8h-24v-24h24a8 8 0 0 0 8-8 8 8 0 0 0-8-8h-24V96h24a8 8 0 0 0 8-8 8 8 0 0 0-8-8h-24zM48 80h16v96H48zm32 0h16v96H80zM48 192h48v16H48z"/></svg>