<svg xmlns="http://www.w3.org/2000/svg" viewBox="0 0 256 256"><path d="M171.314 20.074c-5.141 0-10.282 1.926-14.136 5.778l-.004.003L33.855 149.174l-.005.006A20.02 20.02 0 0 0 28 163.305V208c0 10.904 9.096 20 20 20h168a12 12 0 0 0 12-12 12 12 0 0 0-12-12h-91.035l75.431-75.45.088-.066a12 12 0 0 0 .225-.246l29.437-29.443.002-.002c7.704-7.71 7.704-20.566 0-28.275l-.005-.006-44.69-44.66c-3.854-3.852-8.997-5.778-14.139-5.778zm.002 25.58 39.028 39.002-18.358 18.362L152.97 64zM136 80.97 147.031 92 76 163.031 64.969 152zm28 28 11.02 11.02-71.022 71.04L92.968 180zm-112 64L83.031 204H52z"/></svg>