<svg xmlns="http://www.w3.org/2000/svg" viewBox="0 0 256 256"><path d="M128 8.006c-6.354 0-13.161 4.284-15.277 11.392l.058-.187L93.057 80H32c-7.286-.002-13.278 5.084-15.219 11.047s-.091 13.606 5.803 17.892l.033.024 49.487 35.613-18.96 58.436c-2.259 6.932.729 14.209 5.803 17.898 5.075 3.69 12.92 4.287 18.817 0l50.205-36.129 50.248 36.16c5.897 4.287 13.742 3.688 18.816-.002 5.075-3.689 8.062-10.966 5.803-17.898l-18.967-58.488 49.494-35.62.073-.052c5.83-4.297 7.654-11.888 5.726-17.824S231.3 80.05 224.057 80h-61.123L143.22 19.213l.056.185C141.162 12.29 134.354 8.006 128 8.006zm0 16.142L146.113 80H109.88zM31.996 96h55.869L77.29 128.596zm72.69 0h46.617l13.746 42.385-37.078 26.683-37.045-26.658zm63.437 0h55.82l-45.257 32.57zm2.107 58.367 17.391 53.621.002.01-.03-.021-45.927-33.053zm-84.49.024 28.533 20.533-45.886 33.023-.032.022.004-.01z"/></svg>