<svg xmlns="http://www.w3.org/2000/svg" viewBox="0 0 256 256"><path d="M128 8a8 8 0 0 0-8 8 8 8 0 0 0 8 8c10.785 0 19.806 6.954 22.875 16.664C119.921 45.117 96 71.847 96 104c0 22.628-5.9 41.627-18.176 57.166s-31.22 27.859-58.357 35.861c-7.513 2.216-11.82 9.652-11.438 16.27.383 6.617 5.498 13.499 13.207 14.861 33.932 6 83.249 6.718 125.506-9.803C189 201.835 224 166.121 224 104c0-4.242-.427-8.386-1.22-12.4a8 8 0 0 0-.255-1.205c-5.763-26.44-27.942-46.857-55.257-49.97C163.7 22.019 147.408 8 128 8zm32 48c21.119 0 38.912 13.503 45.37 32.371L192 95.057l-28.422-14.213a8 8 0 0 0-7.156 0L128 95.054l-13.367-6.685C121.09 69.503 138.882 56 160 56zm0 40.943 28.422 14.213a8 8 0 0 0 7.156 0l12.406-6.203c-.33 55.716-29.201 83.698-67.068 98.502-38.085 14.89-85.454 14.507-116.893 8.947h-.003c-.07-.012-.012.008-.053.004.011-.012.036-.01.035-.033l-.004-.002c29.49-8.697 51.68-22.677 66.38-41.287 14.522-18.382 21.438-41.052 21.606-66.15l12.438 6.22a8 8 0 0 0 7.156.002z"/></svg>