<svg xmlns="http://www.w3.org/2000/svg" viewBox="0 0 256 256"><path d="M164 24c-15.37 0-28 12.63-28 28s12.63 28 28 28 28-12.63 28-28-12.63-28-28-28zm0 16c6.722 0 12 5.278 12 12s-5.278 12-12 12-12-5.278-12-12 5.278-12 12-12zM79.148 72.045a8 8 0 0 0-6.824 5.697 8 8 0 0 0 5.418 9.934l40.85 12.013-33.528 50.288-44.685-12.952a24.8 24.8 0 0 0-5.963-.99C20.608 135.458 8.057 146.62 8 161.148v.045c.02 11.173 7.478 21.066 18.213 24.16l157.408 45.622c15.93 4.688 32.313-7.519 32.379-24.123v-.045c-.02-11.173-7.478-21.066-18.213-24.16l-50.894-14.75 19.75-29.44a8 8 0 0 0-4.418-12.14l-35.332-10.235 7.775-11.664 79.074 23.258a8 8 0 0 0 9.934-5.418 8 8 0 0 0-5.418-9.934l-136-40a8 8 0 0 0-3.11-.28zm38.436 58 29.672 8.592-16.494 24.584-29.58-8.573zm-83.986 21.932c.741.043 1.5.173 2.263.398l.032.01 157.441 45.629.016.004c3.96 1.138 6.63 4.678 6.646 8.796-.041 6.359-5.752 10.608-11.857 8.811l-.032-.01-157.441-45.629-.016-.004c-3.96-1.138-6.63-4.678-6.646-8.796.036-5.563 4.41-9.511 9.594-9.21z"/></svg>