<svg xmlns="http://www.w3.org/2000/svg" viewBox="0 0 256 256"><path d="M176 36c-19.74 0-36 16.26-36 36s16.26 36 36 36 36-16.26 36-36-16.26-36-36-36zm0 24c6.77 0 12 5.23 12 12s-5.23 12-12 12-12-5.23-12-12 5.23-12 12-12zM40 68a12 12 0 0 0-12 12 12 12 0 0 0 12 12h16.24a83.96 83.96 0 0 1 40.408 10.38l-6.195 6.196c-.465-.06-.924-.134-1.394-.185a61 61 0 0 0-6.608-.362c-15.64-.005-32.777 5.973-50.11 20.342a12 12 0 0 0-1.58 16.899 12 12 0 0 0 16.897 1.578c16.192-13.424 27.64-15.823 38.783-14.6 11.145 1.223 22.832 7.238 35.832 14.297 12.677 6.883 26.609 14.741 43.385 16.894l.182.024c.368.046.73.106 1.101.146 17.356 1.905 36.909-3.558 56.717-19.98a12 12 0 0 0 1.58-16.899 12 12 0 0 0-16.896-1.578c-14.561 12.072-25.281 15.197-35.399 14.82l-40.338-40.337A108.02 108.02 0 0 0 56.24 68zm42.451 96.03c-15.64-.006-32.777 5.972-50.11 20.341a12 12 0 0 0-1.58 16.899 12 12 0 0 0 16.897 1.578c16.192-13.424 27.64-15.823 38.783-14.6 11.145 1.223 22.832 7.238 35.832 14.297s27.313 15.16 44.668 17.064c17.356 1.905 36.909-3.558 56.717-19.98a12 12 0 0 0 1.58-16.899 12 12 0 0 0-16.896-1.578c-16.192 13.424-27.64 15.823-38.783 14.6-11.145-1.223-22.832-7.238-35.832-14.297s-27.313-15.16-44.668-17.064a61 61 0 0 0-6.608-.362z"/></svg>