<svg xmlns="http://www.w3.org/2000/svg" viewBox="0 0 256 256"><path d="M176 40c-17.578 0-32 14.422-32 32s14.422 32 32 32 32-14.422 32-32-14.422-32-32-32zm0 16c8.931 0 16 7.069 16 16s-7.069 16-16 16-16-7.069-16-16 7.069-16 16-16zM40 72a8 8 0 0 0-8 8 8 8 0 0 0 8 8h24.24a88 88 0 0 1 41.848 10.6l-29.734 29.732c-12.994 1.324-26.939 7.081-41.46 19.12a8 8 0 0 0-1.052 11.263 8 8 0 0 0 11.263 1.055c13.587-11.264 24.558-15.317 34.702-15.749a8 8 0 0 0 .4-.013 47 47 0 0 1 6.67.263c12.18 1.337 24.305 7.702 37.305 14.76 13 7.059 26.874 14.811 43.195 16.602 7.777.853 15.985.15 24.521-2.516a8 8 0 0 0 .961-.293c9.084-2.988 18.536-8.225 28.246-16.275a8 8 0 0 0 1.053-11.264 8 8 0 0 0-11.263-1.055c-7.016 5.817-13.329 9.69-19.196 12.157l-53.922-53.924A104 104 0 0 0 64.24 72zm79.656 35.656a88 88 0 0 1 6.807 6.121l46.201 46.2a49 49 0 0 1-3.54-.248c-12.18-1.337-24.306-7.702-37.306-14.76-10.608-5.76-21.799-11.98-34.425-15.047zm-37.24 60.364c-14.68-.034-30.717 5.5-47.521 19.431a8 8 0 0 0-1.053 11.264 8 8 0 0 0 11.263 1.055c16.795-13.923 29.593-16.835 41.772-15.499 12.18 1.337 24.305 7.702 37.305 14.76 13 7.059 26.874 14.811 43.195 16.602 16.32 1.79 34.523-3.162 53.728-19.084a8 8 0 0 0 1.053-11.264 8 8 0 0 0-11.263-1.055c-16.795 13.923-29.593 16.835-41.772 15.499-12.18-1.337-24.305-7.702-37.305-14.76-13-7.059-26.874-14.811-43.195-16.602a58 58 0 0 0-6.207-.347z"/></svg>