<svg xmlns="http://www.w3.org/2000/svg" viewBox="0 0 256 256"><path d="M208.895 28.04a19.3 19.3 0 0 0-4.47.284h-.001l-160 29.09C34.992 59.13 28 67.501 28 77.088V116H16a12 12 0 0 0-12 12 12 12 0 0 0 12 12h12v38.912c.001 9.587 6.992 17.96 16.424 19.674l160 29.09h.002c12.037 2.187 23.572-7.44 23.574-19.674V140h12a12 12 0 0 0 12-12 12 12 0 0 0-12-12h-12V47.998c-.002-10.705-8.833-19.414-19.105-19.959zm-.178 23.896-.002.002h-.006zm-4.717.857V116H52V80.43zM52 140h152v63.207L52 175.57zm156.709 64.063h.006l.002.001z"/></svg>