<svg xmlns="http://www.w3.org/2000/svg" viewBox="0 0 256 256"><path d="M75.59 32.021c-.863-.04-1.737-.01-2.613.094l-.118.016C44.933 35.868 23.981 59.825 24 88v.006C24.003 167.437 88.568 232 168 232c28.175.019 52.132-20.933 55.87-48.86l.015-.117c.833-7.015-3.106-13.823-9.602-16.6l.127.056-47.158-21.13-.113-.05a16.02 16.02 0 0 0-15.18 1.38 8 8 0 0 0-.752.567l-24.33 20.697c-14.872-7.221-31.558-23.725-38.832-38.51l20.768-24.695a8 8 0 0 0 .572-.767 16.03 16.03 0 0 0 1.318-15.06l-.05-.12-21.077-47.074c-2.43-5.684-7.945-9.411-13.986-9.696zm75.957 7.993a8 8 0 0 0-7.283 5.949 8 8 0 0 0 5.699 9.773 70.58 70.58 0 0 1 50.3 50.301 8 8 0 0 0 9.774 5.7 8 8 0 0 0 5.7-9.774c-7.945-30.168-31.532-53.755-61.7-61.7a8 8 0 0 0-2.49-.25zm-76.678 8.002.049.113 21.053 47.023-20.774 24.7a8 8 0 0 0-.545.728 15.96 15.96 0 0 0-1.086 15.69l.026.052c9.28 19 27.452 36.934 46.463 46.104l.043.02a15.95 15.95 0 0 0 15.738-1.186 8 8 0 0 0 .707-.535l24.332-20.7 46.994 21.055.115.05A40.23 40.23 0 0 1 168.006 216H168C97.213 216 40 158.787 40 88v-.006a40.23 40.23 0 0 1 34.87-39.978zm69.428 23.99a8 8 0 0 0-8.026 5.926 8 8 0 0 0 5.66 9.797c14.163 3.789 22.551 12.177 26.34 26.34a8 8 0 0 0 9.797 5.66 8 8 0 0 0 5.66-9.797c-5.05-18.878-18.782-32.61-37.66-37.66a8 8 0 0 0-1.771-.266z"/></svg>