<svg xmlns="http://www.w3.org/2000/svg" viewBox="0 0 256 256"><path d="M116 28c-47.253 0-86.372 35.952-91.432 81.896C10.357 114.724 0 128.25 0 144a12 12 0 0 0 12 12 12 12 0 0 0 12-12c0-2.344.64-4.495 1.74-6.316a91.9 91.9 0 0 0 20.666 42.334L58.8 214.725c2.83 7.925 10.434 13.281 18.85 13.275h12.703c8.415.006 16.02-5.35 18.85-13.275l.001-.006.969-2.719h51.656l.969 2.719.002.006c2.83 7.925 10.434 13.281 18.85 13.275h12.703c8.415.006 16.02-5.35 18.85-13.275L228.456 172H228c15.322 0 28-12.678 28-28v-32c0-13.666-10.106-25.165-23.158-27.504-.141-.338-.238-.693-.383-1.03l-.006-.013c-5.285-12.21-13.055-22.836-22.531-31.453H220a12 12 0 0 0 12-12 12 12 0 0 0-12-12zm0 24h32.004a67.93 67.93 0 0 1 62.418 40.977 70 70 0 0 1 2.476 6.642 12 12 0 0 0 1.856 2.207 12 12 0 0 0 2.842 3.38 12 12 0 0 0 4.082 1.69A12 12 0 0 0 224.34 108H228c2.351 0 4 1.649 4 4v32c0 2.351-1.649 4-4 4h-8a12 12 0 0 0-11.3 7.965L191.546 204h-7.092l-2.861-8.03a12 12 0 0 0-11.305-7.97H101.71a12 12 0 0 0-11.305 7.97l-2.86 8.03h-7.092l-12.152-34.035a12 12 0 0 0-2.463-4.082A67.7 67.7 0 0 1 48 120.013V120c0-37.697 30.303-68 68-68zm0 12a12 12 0 0 0-12 12 12 12 0 0 0 12 12h40a12 12 0 0 0 12-12 12 12 0 0 0-12-12zm68 40a16 16 0 0 0-16 16 16 16 0 0 0 16 16 16 16 0 0 0 16-16 16 16 0 0 0-16-16z"/></svg>