<svg xmlns="http://www.w3.org/2000/svg" viewBox="0 0 256 256"><path d="M178.748 20.059c-14.67 0-29.342 5.57-40.482 16.71L87.53 87.507l-.025.025-50.736 50.737c-22.28 22.28-22.28 58.682 0 80.962l.005.008c22.28 22.28 58.685 22.28 80.965 0L219.236 117.74c22.28-22.28 22.28-58.682 0-80.962l-.006-.008c-11.14-11.14-25.811-16.711-40.482-16.711Zm0 23.802c8.463 0 16.926 3.293 23.512 9.88l.006.005c13.172 13.172 13.172 33.852 0 47.024l-42.264 42.263-47.03-47.03 42.264-42.263c6.586-6.586 15.05-9.879 23.512-9.879zm-82.744 69.112 47.03 47.029-42.264 42.266c-13.172 13.172-33.852 13.172-47.024 0l-.006-.008c-13.172-13.172-13.172-33.85 0-47.022z"/><path d="M184 72a12 12 0 0 0-8.484 3.516l-24 24a12 12 0 0 0 0 16.968 12 12 0 0 0 16.968 0l24-24a12 12 0 0 0 0-16.968A12 12 0 0 0 184 72Z"/></svg>