<svg xmlns="http://www.w3.org/2000/svg" viewBox="0 0 256 256"><path d="M178.75 24.026c-13.638-.001-27.275 5.19-37.656 15.572l-50.728 50.73-.022.016-.014.017-50.73 50.735c-20.764 20.762-20.764 54.544-.001 75.306l.005.009c20.762 20.761 54.544 20.761 75.306 0l101.498-101.499c20.763-20.762 20.763-54.545 0-75.307l-.006-.007c-10.38-10.38-24.018-15.572-37.653-15.572zm-.002 15.868c9.497 0 18.995 3.673 26.34 11.018l.009.006c14.69 14.69 14.689 37.99 0 52.679l-45.092 45.094-52.688-52.688 45.092-45.091c7.344-7.345 16.843-11.017 26.34-11.018zm5.253 40.105a8 8 0 0 0-5.656 2.345l-24 24a8 8 0 0 0 0 11.313 8 8 0 0 0 11.312-.001l24-24a8 8 0 0 0 0-11.312A8 8 0 0 0 184 79.999zm-87.998 27.318 52.688 52.688-45.093 45.09c-14.69 14.691-37.99 14.691-52.68 0l-.007-.006c-14.69-14.691-14.69-37.99 0-52.68z"/></svg>