<svg xmlns="http://www.w3.org/2000/svg" viewBox="0 0 256 256"><path d="M122.514 20.012c-55.989.77-101.732 46.526-102.512 102.511v.002c-.699 50.987 35.265 95.102 83.674 104.659l.05.01a43.82 43.82 0 0 0 39.372-12.151l12.07-12.047 26.27 33.121-.354-.47c7.053 9.848 21.824 11.065 30.395 2.505l.005-.006 26.684-26.644.01-.008c8.566-8.57 7.35-23.346-2.5-30.4l.467.353-33.147-26.281 12.035-12.059a43.82 43.82 0 0 0 12.15-39.37l-.013-.061c-9.599-48.402-53.667-84.374-104.654-83.664zm.33 23.998h.004c26.224-.366 49.985 11.943 65.156 31.015L75.012 188.018c-19.061-15.171-31.372-38.941-31.014-65.16v-.004c.603-43.112 35.737-78.253 78.846-78.844zM200.27 96.7c1.393 3.755 2.555 7.614 3.348 11.6a19.74 19.74 0 0 1-5.492 17.772l-.041.041-21.578 21.62a12 12 0 0 0 1.037 17.88l40.475 32.092-20.323 20.291-32.086-40.453a12 12 0 0 0-17.879-1.035l-21.628 21.59-.041.04a19.74 19.74 0 0 1-17.774 5.49c-3.988-.788-7.848-1.95-11.605-3.34z"/></svg>