<svg xmlns="http://www.w3.org/2000/svg" viewBox="0 0 256 256"><path d="M122.568 24.012C68.726 24.752 24.75 68.738 24 122.578v.002c-.673 49.068 33.979 91.503 80.451 100.678l.033.008a39.8 39.8 0 0 0 35.774-11.041l-.026.027 16.954-16.926 27.146 37.985.004.007c5.66 7.905 17.439 8.874 24.316 2.002l.004-.002 26.686-26.646.006-.006c6.874-6.877 5.905-18.659-2-24.32l-.008-.006-38.012-27.154 16.887-16.916a39.8 39.8 0 0 0 11.04-35.776l-.007-.04c-1.866-9.409-5.111-18.321-9.477-26.565a8 8 0 0 0-.285-.537c-17.296-32.183-51.998-53.882-90.916-53.34zm.221 15.998h.002c30.84-.43 58.505 15.78 73.787 40.097L80.09 196.596c-24.304-15.279-40.513-42.96-40.09-73.797.631-45.258 37.533-82.168 82.79-82.79zm81.26 55.256a80 80 0 0 1 3.496 12.273 23.76 23.76 0 0 1-6.6 21.373l-.027.025-23.58 23.622a8 8 0 0 0 1.012 12.16l45.681 32.635-26.683 26.644-.004.004-32.625-45.654a8 8 0 0 0-12.16-1.01l-23.631 23.59-.028.027a23.75 23.75 0 0 1-21.37 6.6 80 80 0 0 1-12.282-3.489z"/></svg>