<svg xmlns="http://www.w3.org/2000/svg" viewBox="0 0 256 256"><path d="M171.97 4.07c-5.146 0-10.294 1.93-14.15 5.79l-47.466 47.26c-6.215-5.94-14.31-8.873-22.385-8.803-8.126.071-16.226 3.177-22.35 9.301-12.138 12.139-12.402 32.027-.693 44.51l-15.066 15.04-.01.01c-7.703 7.709-7.703 20.566 0 28.275l.004.002 17.72 17.72-30.2 30.2-.146.148c-12.034 12.46-11.858 32.61.39 44.858s32.398 12.424 44.858.39l.185-.183 91.498-92.307.008-.01c7.814-7.852 7.629-20.988-.408-28.615l-12.96-12.373 11.907-11.804 14.959 13.183-.549-.514c7.71 7.704 20.567 7.704 28.276 0l.002-.003 3.72-3.72v-.001c17.078-17.082 17.078-45.137 0-62.219a12 12 0 0 0-.361-.348l-33-30.35.365.352c-3.855-3.859-9-5.789-14.147-5.789zm.104 25.465 30.13 27.71c7.842 7.913 7.827 20.322-.06 28.21l-1.05 1.05-15.01-13.228.459.426c-7.735-7.567-20.471-7.501-28.125.149l-14.98 14.851-15.715-15.008zm-83.898 42.64c2.001-.017 4.009.755 5.627 2.317l.05.047 60.43 57.701-88.49 89.274c-3.236 3.117-8.025 3.074-11.203-.104-3.18-3.18-3.222-7.971-.102-11.207l.004-.006 67.713-67.713a12 12 0 0 0 0-16.968L90.373 93.682l-.012-.01-7.869-7.87-.004-.005c-3.12-3.236-3.077-8.028.102-11.207 1.59-1.59 3.584-2.397 5.586-2.414zm-6.303 46.948L96.75 134l-12.205 12.205-14.887-14.889z"/></svg>