<svg xmlns="http://www.w3.org/2000/svg" viewBox="0 0 256 256"><path d="M184 12a12 12 0 0 0-8.484 3.516L144 47.03l-23.516-23.515A12 12 0 0 0 112 20a12 12 0 0 0-8.484 3.516 12 12 0 0 0 0 16.968L107.03 44 56.885 94.145v.001c-17.078 17.082-17.078 45.137 0 62.22l12.89 12.89-46.26 46.26a12 12 0 0 0 0 16.968 12 12 0 0 0 16.97 0l46.26-46.26 12.89 12.891c17.082 17.078 45.137 17.078 62.219 0h.001L212 148.97l3.516 3.515a12 12 0 0 0 16.968 0 12 12 0 0 0 0-16.968L208.97 112l31.515-31.516a12 12 0 0 0 0-16.968A12 12 0 0 0 232 60a12 12 0 0 0-8.484 3.516L192 95.03 160.969 64l31.515-31.516a12 12 0 0 0 0-16.968A12 12 0 0 0 184 12zm-60 48.969L195.031 132l-50.146 50.145c-7.91 7.908-20.369 7.907-28.28 0h-.001l-21.262-21.262-.108-.117-.04-.032-21.339-21.338v-.001c-7.907-7.911-7.908-20.37 0-28.28z"/></svg>