<svg xmlns="http://www.w3.org/2000/svg" viewBox="0 0 256 256"><path d="M88 4a12 12 0 0 0-12 12v32H32a12 12 0 0 0-12 12 12 12 0 0 0 12 12h12v92c0 24.158 19.842 44 44 44h28v32a12 12 0 0 0 12 12 12 12 0 0 0 12-12v-32h28c24.158 0 44-19.842 44-44V72h12a12 12 0 0 0 12-12 12 12 0 0 0-12-12h-44V16a12 12 0 0 0-12-12 12 12 0 0 0-12 12v32h-56V16A12 12 0 0 0 88 4zM68 72h120v92c0 11.188-8.812 20-20 20H88c-11.188 0-20-8.812-20-20zm57.162 12.057a12 12 0 0 0-12.398 7.73l-12 32A12 12 0 0 0 112 140h14.684l-5.92 15.787a12 12 0 0 0 7.023 15.45 12 12 0 0 0 15.45-7.024l12-32A12 12 0 0 0 144 116h-14.684l5.92-15.787a12 12 0 0 0-7.023-15.45 12 12 0 0 0-3.05-.706z"/></svg>