<svg xmlns="http://www.w3.org/2000/svg" viewBox="0 0 256 256"><path d="M184 16a8 8 0 0 0-5.656 2.344L144 52.688l-26.344-26.344A8 8 0 0 0 112 24a8 8 0 0 0-5.656 2.344 8 8 0 0 0 0 11.312L112.688 44 59.713 96.973v.002c-15.55 15.553-15.55 41.009 0 56.562l15.719 15.719-49.088 49.088a8 8 0 0 0 0 11.312 8 8 0 0 0 11.312 0l49.088-49.088 15.719 15.72c15.553 15.55 41.01 15.55 56.562 0h.002L212 143.311l6.344 6.344a8 8 0 0 0 11.312 0 8 8 0 0 0 0-11.312L203.312 112l34.344-34.344a8 8 0 0 0 0-11.312A8 8 0 0 0 232 64a8 8 0 0 0-5.656 2.344L192 100.688 155.313 64l34.343-34.344a8 8 0 0 0 0-11.312A8 8 0 0 0 184 16zm-60 39.313L200.688 132l-52.975 52.973c-9.439 9.436-24.496 9.436-33.936 0h-.002l-21.28-21.282-.089-.097-.043-.033-21.336-21.336v-.002c-9.436-9.44-9.436-24.497 0-33.936z"/></svg>