<svg xmlns="http://www.w3.org/2000/svg" viewBox="0 0 256 256"><path d="M232 16a8 8 0 0 0-5.656 2.344l-28.385 28.385-5.397-5.39v-.001c-6.212-6.201-14.41-9.303-22.607-9.303s-16.395 3.102-22.607 9.303l-.004.006L124 64.688l-6.344-6.344A8 8 0 0 0 112 56a8 8 0 0 0-5.656 2.344 8 8 0 0 0 0 11.312l12 12 56 56 12 12a8 8 0 0 0 11.312 0 8 8 0 0 0 0-11.312L191.312 132l23.344-23.344c12.429-12.43 12.429-32.822 0-45.252l-.004-.006-5.373-5.365 28.377-28.377a8 8 0 0 0 0-11.312A8 8 0 0 0 232 16zm-62.045 31.936c4.073 0 8.146 1.576 11.303 4.726l10.877 10.863.148.192.196.148 10.869 10.856c6.31 6.315 6.31 16.309-.004 22.623L180 120.688 135.313 76l23.34-23.338c3.156-3.15 7.229-4.726 11.302-4.726zM64 104a8 8 0 0 0-5.656 2.344 8 8 0 0 0 0 11.312L64.687 124l-23.343 23.344-.006.004c-12.403 12.425-12.403 32.79 0 45.214h.002l5.389 5.397-28.385 28.385a8 8 0 0 0 0 11.312 8 8 0 0 0 11.312 0l28.377-28.377 5.365 5.373.006.004c12.43 12.429 32.823 12.429 45.252 0L132 191.312l6.344 6.344a8 8 0 0 0 11.312 0 8 8 0 0 0 0-11.312L131.312 168l18.344-18.344a8 8 0 0 0 0-11.312A8 8 0 0 0 144 136a8 8 0 0 0-5.656 2.344L120 156.688 99.313 136l18.343-18.344a8 8 0 0 0 0-11.312A8 8 0 0 0 112 104a8 8 0 0 0-5.656 2.344L88 124.688l-18.344-18.344A8 8 0 0 0 64 104zm12 31.313L120.688 180l-23.344 23.344c-6.314 6.313-16.308 6.314-22.623.004l-.004-.004-10.52-10.535a8 8 0 0 0-.48-.526l-.192-.148-10.863-10.877c-6.301-6.313-6.301-16.293 0-22.606z"/></svg>