<svg xmlns="http://www.w3.org/2000/svg" viewBox="0 0 256 256"><path d="M128 24c-28.447 0-54.255 11.491-73.05 30.064a8 8 0 0 0-.487.399 8 8 0 0 0-.334.418C35.517 73.682 24 99.519 24 128c0 28.48 11.517 54.318 30.129 73.12a8 8 0 0 0 .334.417 8 8 0 0 0 .418.334C73.682 220.483 99.519 232 128 232c28.48 0 54.318-11.517 73.12-30.129a8 8 0 0 0 .417-.334 8 8 0 0 0 .666-.766C220.617 182 232 156.308 232 128s-11.383-54-29.797-72.771a8 8 0 0 0-.666-.766 8 8 0 0 0-.486-.399C182.255 35.491 156.447 24 128 24zm-8 16.377V64.52c-11.655 1.465-22.348 6.078-31.2 12.966l-17.14-17.14A87.6 87.6 0 0 1 120 40.377zm16 0a87.6 87.6 0 0 1 48.34 19.969l-17.14 17.14c-8.852-6.888-19.545-11.501-31.2-12.966zM60.346 71.66l17.14 17.14c-6.888 8.852-11.501 19.545-12.966 31.2H40.377a87.6 87.6 0 0 1 19.969-48.34zm135.308 0a87.6 87.6 0 0 1 19.97 48.34H191.48c-1.465-11.655-6.078-22.348-12.966-31.2zM128 80c13.177 0 25.072 5.254 33.727 13.785a8 8 0 0 0 .216.272 8 8 0 0 0 .272.216C170.745 102.928 176 114.823 176 128c0 13.164-5.244 25.047-13.76 33.7a8 8 0 0 0-.297.243 8 8 0 0 0-.216.272C153.072 170.745 141.177 176 128 176c-13.054 0-24.847-5.159-33.48-13.549a8 8 0 0 0-.463-.508 8 8 0 0 0-.297-.244C85.244 153.047 80 141.164 80 128c0-13.177 5.254-25.072 13.785-33.727a8 8 0 0 0 .272-.216 8 8 0 0 0 .463-.508C103.153 85.159 114.946 80 128 80zm-87.623 56H64.52c1.465 11.655 6.078 22.348 12.966 31.2l-17.14 17.14A87.6 87.6 0 0 1 40.377 136zm151.103 0h24.143a87.6 87.6 0 0 1-19.969 48.34l-17.14-17.14c6.888-8.852 11.501-19.545 12.966-31.2zM88.8 178.514c8.852 6.888 19.545 11.501 31.2 12.966v24.143a87.6 87.6 0 0 1-48.34-19.969zm78.4 0 17.14 17.14a87.6 87.6 0 0 1-48.34 19.97V191.48c11.655-1.465 22.348-6.078 31.2-12.966z"/></svg>