<svg xmlns="http://www.w3.org/2000/svg" viewBox="0 0 256 256"><path d="M128.04 16.012c-17.438 0-32.867 10.375-39.915 25.748-23.218-6.667-48.142 7.302-54.57 30.504a8 8 0 0 0-9.342 9.568l30.549 129.83c1.69 7.187 8.195 12.339 15.578 12.338h115.32c7.384.001 13.89-5.152 15.578-12.34l30.55-129.828a8 8 0 0 0-6.69-9.756 8 8 0 0 0-2.662.188c-6.438-23.147-31.287-37.093-54.473-30.487-7.044-15.382-22.48-25.765-39.924-25.765zm0 16a27.926 27.926 0 0 1 27.331 21.916 8 8 0 0 0 11.555 5.33c16.516-8.755 35.647.288 40.133 17.263l-38.625 11.036-34.461-13.793-.002-.002a16 16 0 0 0-11.881 0L87.57 87.557 48.934 76.52c4.47-17.027 23.664-26.089 40.203-17.27a8 8 0 0 0 11.572-5.322 27.92 27.92 0 0 1 27.33-21.916zm-.01 56.607 31.218 12.496L144.996 208h-33.992l-14.25-106.883zm-85.12 2.817 37.854 10.816L94.864 208H70.337v-.002zm170.18 0-27.428 116.562V208h-24.525l14.1-105.748z"/></svg>