<svg xmlns="http://www.w3.org/2000/svg" viewBox="0 0 256 256"><path d="M128 36a12 12 0 0 0-12 12v80a12 12 0 0 0 12 12 12 12 0 0 0 12-12V48a12 12 0 0 0-12-12zm50.209 8.203a12 12 0 0 0-12.262 5.242 12 12 0 0 0 3.498 16.608C190.59 79.839 204 101.233 204 128c0 42.116-33.884 76-76 76s-76-33.884-76-76c0-26.767 13.41-48.161 34.555-61.947a12 12 0 0 0 3.498-16.608 12 12 0 0 0-7.58-5.187 12 12 0 0 0-9.028 1.69C46.43 63.56 28 92.987 28 128c0 55.086 44.914 100 100 100s100-44.914 100-100c0-35.013-18.43-64.44-45.445-82.053a12 12 0 0 0-4.346-1.744z"/></svg>