<svg xmlns="http://www.w3.org/2000/svg" viewBox="0 0 256 256"><path d="M128 16a8 8 0 0 0-8 8v16H40c-8.726 0-16 7.274-16 16v120c0 8.726 7.274 16 16 16h39.355l-21.601 27.002a8 8 0 0 0 1.248 11.244 8 8 0 0 0 11.244-1.248L99.844 192h56.312l29.598 36.998a8 8 0 0 0 11.244 1.248 8 8 0 0 0 1.248-11.244L176.645 192H216c8.726 0 16-7.274 16-16V56c0-8.726-7.274-16-16-16h-80V24a8 8 0 0 0-8-8zM40 56h176v120H40zm120 24a8 8 0 0 0-8 8v56a8 8 0 0 0 8 8 8 8 0 0 0 8-8V88a8 8 0 0 0-8-8zm-32 16a8 8 0 0 0-8 8v40a8 8 0 0 0 8 8 8 8 0 0 0 8-8v-40a8 8 0 0 0-8-8zm-32 16a8 8 0 0 0-8 8v24a8 8 0 0 0 8 8 8 8 0 0 0 8-8v-24a8 8 0 0 0-8-8z"/></svg>