<svg xmlns="http://www.w3.org/2000/svg" viewBox="0 0 256 256"><path d="M96 36c-10.904 0-20 9.096-20 20v28H40c-10.904 0-20 9.096-20 20v92h-4a12 12 0 0 0-12 12 12 12 0 0 0 12 12h224a12 12 0 0 0 12-12 12 12 0 0 0-12-12h-4v-52c0-10.904-9.096-20-20-20h-36V56c0-10.904-9.096-20-20-20zm4 24h56v136h-56zm33.184 24.059a12 12 0 0 0-4.979.556l-12 4a12 12 0 0 0-7.59 15.18 12 12 0 0 0 11.385 7.32V136a12 12 0 0 0 12 12 12 12 0 0 0 12-12V96a12 12 0 0 0-8.35-11.43 12 12 0 0 0-2.466-.511zM44 108h32v88H44zm136 40h32v48h-32z"/></svg>