<svg xmlns="http://www.w3.org/2000/svg" viewBox="0 0 256 256"><path d="M40 40c-8.742 0-16 7.258-16 16v152a8 8 0 0 0 11.578 7.156L64 200.943l28.422 14.213a8 8 0 0 0 7.156 0L128 200.943l28.422 14.213a8 8 0 0 0 7.156 0L192 200.943l28.422 14.213A8 8 0 0 0 232 208V56c0-8.742-7.258-16-16-16zm0 16h176v139.055l-20.422-10.211a8 8 0 0 0-7.156 0L160 199.057l-28.422-14.213a8 8 0 0 0-7.156 0L96 199.057l-28.422-14.213a8 8 0 0 0-7.156 0L40 195.054zm40 40a8 8 0 0 0-8 8 8 8 0 0 0 8 8h96a8 8 0 0 0 8-8 8 8 0 0 0-8-8zm0 32a8 8 0 0 0-8 8 8 8 0 0 0 8 8h96a8 8 0 0 0 8-8 8 8 0 0 0-8-8z"/></svg>