<svg xmlns="http://www.w3.org/2000/svg" viewBox="0 0 256 256"><path d="M128 24C70.657 24 24 70.657 24 128s46.657 104 104 104 104-46.657 104-104S185.343 24 128 24zm0 16c48.696 0 88 39.304 88 88s-39.304 88-88 88-88-39.304-88-88 39.304-88 88-88zm-15.244 44.037a8 8 0 0 0-5.557 1.563l-48 36a8 8 0 0 0 0 12.8l48 36A8 8 0 0 0 120 164V92a8 8 0 0 0-7.244-7.963zM120 128a8 8 0 0 0 3.2 6.4l48 36A8 8 0 0 0 184 164V92a8 8 0 0 0-7.244-7.963 8 8 0 0 0-5.557 1.563l-48 36A8 8 0 0 0 120 128zm-16-20v40l-26.666-20zm64 0v40l-26.666-20z"/></svg>