<svg xmlns="http://www.w3.org/2000/svg" viewBox="0 0 256 256"><path d="M128 20C68.496 20 20 68.496 20 128c0 59.505 48.496 108 108 108 59.505 0 108-48.495 108-108 0-59.504-48.495-108-108-108zm0 24c46.534 0 84 37.466 84 84s-37.466 84-84 84-84-37.466-84-84 37.466-84 84-84zm-16.014 39.996a12 12 0 0 0-7.486 2.635l-40 32a12 12 0 0 0 0 18.738l40 32A12 12 0 0 0 124 160v-19.83l36.5 29.2A12 12 0 0 0 180 160V96a12 12 0 0 0-6.8-10.82 12 12 0 0 0-12.7 1.45l-36.5 29.2V96a12 12 0 0 0-6.8-10.82 12 12 0 0 0-5.214-1.184z"/></svg>