<svg xmlns="http://www.w3.org/2000/svg" viewBox="0 0 256 256"><path d="M128 8a8 8 0 0 0-8 8v32H56c-17.59 0-32 14.41-32 32v112c0 17.59 14.41 32 32 32h144c17.59 0 32-14.41 32-32V80c0-17.59-14.41-32-32-32h-64V16a8 8 0 0 0-8-8zM56 64h144c9.002 0 16 6.998 16 16v112c0 9.002-6.998 16-16 16H56c-9.002 0-16-6.998-16-16V80c0-9.002 6.998-16 16-16zm28 32a12 12 0 0 0-12 12 12 12 0 0 0 12 12 12 12 0 0 0 12-12 12 12 0 0 0-12-12zm88 0a12 12 0 0 0-12 12 12 12 0 0 0 12 12 12 12 0 0 0 12-12 12 12 0 0 0-12-12zm-80 40c-15.374 0-28 12.626-28 28s12.626 28 28 28h72c15.374 0 28-12.626 28-28s-12.626-28-28-28zm0 16h8v24h-8c-6.786 0-12-5.214-12-12s5.214-12 12-12zm24 0h24v24h-24zm40 0h8c6.786 0 12 5.214 12 12s-5.214 12-12 12h-8z"/></svg>