<svg xmlns="http://www.w3.org/2000/svg" viewBox="0 0 256 256"><path d="M202.832 32.008c-15.743.14-42.503 4.349-65.379 27.224L132.686 64h-58.34a16 16 0 0 0-11.3 4.68l-.003.004-34.35 34.35-.006.005c-8.95 8.971-3.486 25.346 9.06 27.14l.026.005 38.467 5.369 44.207 44.207 5.37 38.467.003.027c1.795 12.545 18.17 18.01 27.14 9.059l.007-.006 34.35-34.35.003-.004a16 16 0 0 0 4.68-11.299v-58.34l4.768-4.767c26.125-26.125 27.906-57.352 27.078-71.408l-.002-.043c-.513-7.966-6.974-14.427-14.94-14.94l-.043-.002a89 89 0 0 0-6.029-.146zm.117 15.994a76 76 0 0 1 4.924.125c.667 11.422-.569 37.254-22.42 59.105L128 164.688 91.313 128l57.455-57.453c19.139-19.14 41.286-22.46 54.181-22.545zM74.354 80h42.332l-39.524 39.525-37.146-5.185zM176 139.314v42.332l-34.34 34.338-5.185-37.146zM68.945 153.477a8 8 0 0 0-4.084.683C54.448 158.907 32 175.56 32 216a8 8 0 0 0 8 8c40.44 0 57.093-22.448 61.84-32.861a8 8 0 0 0-3.961-10.598 8 8 0 0 0-10.598 3.96c-2.725 5.98-11.015 20.41-38.752 22.97 2.56-27.737 16.99-36.027 22.969-38.752a8 8 0 0 0 3.961-10.598 8 8 0 0 0-4.479-4.174 8 8 0 0 0-2.035-.47z"/></svg>