<svg xmlns="http://www.w3.org/2000/svg" viewBox="0 0 256 256"><path d="M56 28a12 12 0 0 0-12 12 12 12 0 0 0 12 12c81.88 0 148 66.12 148 148a12 12 0 0 0 12 12 12 12 0 0 0 12-12c0-94.85-77.15-172-172-172zm0 48a12 12 0 0 0-12 12 12 12 0 0 0 12 12c55.37 0 100 44.63 100 100a12 12 0 0 0 12 12 12 12 0 0 0 12-12c0-68.341-55.659-124-124-124zm0 48a12 12 0 0 0-12 12 12 12 0 0 0 12 12c28.86 0 52 23.14 52 52a12 12 0 0 0 12 12 12 12 0 0 0 12-12c0-41.831-34.169-76-76-76zm4 56a16 16 0 0 0-16 16 16 16 0 0 0 16 16 16 16 0 0 0 16-16 16 16 0 0 0-16-16z"/></svg>