<svg xmlns="http://www.w3.org/2000/svg" viewBox="0 0 256 256"><path d="M128 28a12 12 0 0 0-12 12v22.373L53.396 76.285a12 12 0 0 0-1.021.403 12 12 0 0 0-1.012.246 12 12 0 0 0-.808.472 12 12 0 0 0-1.162.678 12 12 0 0 0-1.727 1.426 12 12 0 0 0-.883.896 12 12 0 0 0-1.385 2.178 12 12 0 0 0-.445.789l-.096.17-32 80A12 12 0 0 0 12 168c0 13.362 8.507 23.774 17.453 28.992S47.89 204 56 204s17.6-1.79 26.547-7.008S100 181.362 100 168a12 12 0 0 0-.857-4.457l-26.756-66.89L116 86.96V204h-12a12 12 0 0 0-12 12 12 12 0 0 0 12 12h48a12 12 0 0 0 12-12 12 12 0 0 0-12-12h-12V81.627l40.416-8.982-23.559 58.898A12 12 0 0 0 156 136c0 13.362 8.507 23.774 17.453 28.992S191.89 172 200 172s17.6-1.79 26.547-7.008S244 149.362 244 136a12 12 0 0 0-.857-4.457l-32-80a12 12 0 0 0-.465-.777 12 12 0 0 0-.98-1.637 12 12 0 0 0-1.173-1.42 12 12 0 0 0-1.445-1.254 12 12 0 0 0-1.547-.982 12 12 0 0 0-1.773-.744 12 12 0 0 0-1.768-.456 12 12 0 0 0-1.918-.152 12 12 0 0 0-1.822.111 12 12 0 0 0-.856.053L140 57.04V40a12 12 0 0 0-12-12zm72 60.313 19.805 49.513c-.435 2.93-1.965 4.458-5.352 6.434C210.4 146.624 203.89 148 200 148s-10.4-1.376-14.453-3.74c-3.387-1.976-4.917-3.503-5.352-6.434zm-144 32 19.805 49.513c-.435 2.93-1.965 4.458-5.352 6.434C66.4 178.624 59.89 180 56 180s-10.4-1.376-14.453-3.74c-3.387-1.976-4.917-3.503-5.352-6.434z"/></svg>