<svg xmlns="http://www.w3.org/2000/svg" viewBox="0 0 256 256"><path d="M60 36c-21.95 0-40 18.05-40 40s18.05 40 40 40c9.268 0 17.834-3.228 24.646-8.6l30.106 20.598L84.646 148.6C77.834 143.228 69.268 140 60 140c-21.95 0-40 18.05-40 40s18.05 40 40 40 40-18.05 40-40a39.5 39.5 0 0 0-1.75-11.629l37.754-25.832 89.22 61.045a12 12 0 0 0 16.68-3.127 12 12 0 0 0-3.129-16.682L98.25 87.63A39.5 39.5 0 0 0 100 76c0-21.95-18.05-40-40-40zm171.084 14.355a12 12 0 0 0-5.86 2.061l-60.58 41.451a12 12 0 0 0-3.128 16.68 12 12 0 0 0 16.68 3.127l60.58-41.45a12 12 0 0 0 3.128-16.681 12 12 0 0 0-7.693-5.018 12 12 0 0 0-3.127-.17zM60 60c8.979 0 16 7.021 16 16 0 3.259-.935 6.253-2.543 8.754a12 12 0 0 0-.25.28 12 12 0 0 0-.139.294C70.196 89.39 65.466 92 60 92c-8.979 0-16-7.021-16-16s7.021-16 16-16zm0 104c5.43 0 10.132 2.578 13.01 6.594a12 12 0 0 0 .197.373 12 12 0 0 0 .272.314C75.073 173.775 76 176.756 76 180c0 8.979-7.021 16-16 16s-16-7.021-16-16 7.021-16 16-16z"/></svg>