<svg xmlns="http://www.w3.org/2000/svg" viewBox="0 0 256 256"><path d="M136 32a8 8 0 0 0-8 8 8 8 0 0 0 8 8h26.234l17.438 52.318L124.212 168H79.77c-2.01-17.926-17.334-32-35.77-32-19.787 0-36 16.213-36 36s16.213 36 36 36c15.585 0 28.945-10.06 33.92-24H128a8 8 0 0 0 6.188-2.93l51.464-62.806 7.668 23.006C182.958 147.61 176 159.038 176 172c0 19.787 16.213 36 36 36s36-16.213 36-36-16.213-36-36-36c-1.184 0-2.356.062-3.512.176l-12.342-37.028v-.002L175.59 37.471A8 8 0 0 0 168 32zM44 152c11.14 0 20 8.86 20 20s-8.86 20-20 20-20-8.86-20-20 8.86-20 20-20zm168 0c11.14 0 20 8.86 20 20s-8.86 20-20 20-20-8.86-20-20c0-8.915 5.68-16.356 13.656-18.979l.014-.001.074-.03A20.3 20.3 0 0 1 212 152z"/></svg>