<svg xmlns="http://www.w3.org/2000/svg" viewBox="0 0 256 256"><path d="M88 32a8 8 0 0 0-5.656 2.344L40.973 75.713c-11.897 11.891-11.898 31.42-.002 43.312l.002.002.002.002c11.892 11.896 31.423 11.895 43.314-.004l66.738-66.738.002-.002c5.778-5.781 14.905-5.781 20.682 0l.004.004c5.781 5.777 5.781 14.904 0 20.682l-.002.002-98.74 98.74c-11.897 11.891-11.898 31.42-.002 43.312l.002.002.002.002c11.892 11.896 31.423 11.895 43.314-.004l66.738-66.738.002-.002c5.778-5.781 14.905-5.781 20.682 0l.004.004c5.781 5.777 5.781 14.904 0 20.682l-.002.002-9.37 9.37c-11.897 11.893-11.897 31.424.003 43.315a8 8 0 0 0 11.312-.004 8 8 0 0 0-.004-11.312c-5.78-5.778-5.78-14.906 0-20.684l.002-.002 9.37-9.367c11.9-11.892 11.9-31.426 0-43.318-11.893-11.896-31.424-11.895-43.315.004l-66.738 66.738-.002.002c-5.778 5.781-14.905 5.781-20.682 0l-.004-.004c-5.781-5.777-5.781-14.904 0-20.682l.002-.002 98.738-98.738.002-.002c11.899-11.892 11.898-31.425-.002-43.316-11.892-11.896-31.423-11.895-43.314.004l-66.738 66.738-.002.002c-5.778 5.781-14.905 5.781-20.682 0l-.004-.004c-5.781-5.777-5.781-14.904 0-20.682l.002-.002 41.37-41.37a8 8 0 0 0 0-11.313A8 8 0 0 0 88 32z"/></svg>