<svg xmlns="http://www.w3.org/2000/svg" viewBox="0 0 256 256"><path d="M96 32c-8.742 0-16 7.258-16 16v8a8 8 0 0 0 8 8 8 8 0 0 0 8-8v-8h8a8 8 0 0 0 8-8 8 8 0 0 0-8-8zm48 0a8 8 0 0 0-8 8 8 8 0 0 0 8 8h16a8 8 0 0 0 8-8 8 8 0 0 0-8-8zm56 0a8 8 0 0 0-8 8 8 8 0 0 0 8 8h8v8a8 8 0 0 0 8 8 8 8 0 0 0 8-8v-8c0-8.742-7.258-16-16-16zM48 80c-8.726 0-16 7.274-16 16v112c0 8.726 7.274 16 16 16h112c8.726 0 16-7.274 16-16V96c0-8.726-7.274-16-16-16zm168 8a8 8 0 0 0-8 8v16a8 8 0 0 0 8 8 8 8 0 0 0 8-8V96a8 8 0 0 0-8-8zM48 96h112v112H48zm168 48a8 8 0 0 0-8 8v8h-8a8 8 0 0 0-8 8 8 8 0 0 0 8 8h8c8.742 0 16-7.258 16-16v-8a8 8 0 0 0-8-8z"/></svg>