<svg xmlns="http://www.w3.org/2000/svg" viewBox="0 0 256 256"><path d="M156 24c-28.624 0-52 23.376-52 52s23.376 52 52 52 52-23.376 52-52-23.376-52-52-52zm0 16a35.88 35.88 0 0 1 36 36 35.88 35.88 0 0 1-36 36 35.88 35.88 0 0 1-36-36 35.88 35.88 0 0 1 36-36zM63.336 56.03a8 8 0 0 0-2.57.656 8 8 0 0 0-4.356 4.785l-40 120A8 8 0 0 0 24 192h80a8 8 0 0 0 7.59-10.53l-40-120a8 8 0 0 0-8.254-5.44zM64 89.298 92.9 176H35.1zM136 144a8 8 0 0 0-8 8v56a8 8 0 0 0 8 8h88a8 8 0 0 0 8-8v-56a8 8 0 0 0-8-8zm8 16h72v40h-72z"/></svg>