<svg xmlns="http://www.w3.org/2000/svg" viewBox="0 0 256 256"><path d="M176 16c-21.997 0-40 18.003-40 40 0 5.09.974 9.96 2.729 14.45l-46.14 29.66C85.314 92.652 75.176 88 64 88c-21.997 0-40 18.003-40 40s18.003 40 40 40c11.175 0 21.313-4.653 28.59-12.11l46.139 29.66A39.6 39.6 0 0 0 136 200c0 21.997 18.003 40 40 40s40-18.003 40-40-18.003-40-40-40c-11.175 0-21.313 4.653-28.59 12.11l-46.139-29.66A39.6 39.6 0 0 0 104 128c0-5.09-.974-9.96-2.729-14.45l46.14-29.66C154.686 91.348 164.824 96 176 96c21.997 0 40-18.003 40-40s-18.003-40-40-40zm0 16c13.35 0 24 10.65 24 24s-10.65 24-24 24c-8.276 0-15.508-4.097-19.814-10.389a8 8 0 0 0-.366-.636l-.142-.168A24 24 0 0 1 152 56c0-13.35 10.65-24 24-24zM64 104c8.42 0 15.76 4.243 20.037 10.723a8 8 0 0 0 .143.302l.142.168A24 24 0 0 1 88 128c0 4.73-1.357 9.108-3.678 12.807l-.142.168a8 8 0 0 0-.143.302C79.76 147.757 72.421 152 64 152c-13.35 0-24-10.65-24-24s10.65-24 24-24zm112 72c13.35 0 24 10.65 24 24s-10.65 24-24 24-24-10.65-24-24c0-4.73 1.357-9.108 3.678-12.807l.142-.168a8 8 0 0 0 .366-.636C160.492 180.097 167.724 176 176 176z"/></svg>