<svg xmlns="http://www.w3.org/2000/svg" viewBox="0 0 256 256"><path d="M48 40c-8.742 0-16 7.258-16 16v56c0 50.444 23.585 83.088 46.934 102.191s46.96 25.528 46.96 25.528a8 8 0 0 0 4.211 0s23.613-6.424 46.961-25.528C200.415 195.088 224 162.444 224 112V56c0-8.742-7.258-16-16-16zm0 16h160v56c0 45.555-20.415 72.912-41.066 89.809-17.553 14.36-34.118 20.258-38.934 21.79-4.816-1.532-21.381-7.43-38.934-21.79C68.416 184.912 48 157.555 48 112zm120 40a8 8 0 0 0-5.656 2.344L112 148.688l-18.344-18.344a8 8 0 0 0-11.312 0 8 8 0 0 0 0 11.312l24 24a8 8 0 0 0 11.312 0l56-56a8 8 0 0 0 0-11.312A8 8 0 0 0 168 96z"/></svg>