<svg xmlns="http://www.w3.org/2000/svg" viewBox="0 0 256 256"><path d="M216 32a8 8 0 0 0-5.656 2.344l-30.201 30.2L53.387 86.222c-12.35 2.071-17.524 18.215-8.68 27.08l.006.006 98 98 .008.006c8.864 8.843 25.006 3.669 27.078-8.68l21.658-126.776L219.314 48H248a8 8 0 0 0 8-8 8 8 0 0 0-8-8zm-41.79 49.79-20.187 118.173-.003.021L56.035 102l.024-.004zM52 160a12 12 0 0 0-12 12 12 12 0 0 0 12 12 12 12 0 0 0 12-12 12 12 0 0 0-12-12zm-32 32a12 12 0 0 0-12 12 12 12 0 0 0 12 12 12 12 0 0 0 12-12 12 12 0 0 0-12-12zm64 0a12 12 0 0 0-12 12 12 12 0 0 0 12 12 12 12 0 0 0 12-12 12 12 0 0 0-12-12zm-32 32a12 12 0 0 0-12 12 12 12 0 0 0 12 12 12 12 0 0 0 12-12 12 12 0 0 0-12-12z"/></svg>