<svg xmlns="http://www.w3.org/2000/svg" viewBox="0 0 256 256"><path d="M216 28a12 12 0 0 0-8.484 3.516l-29.3 29.298-125.49 21.461c-15.32 2.57-21.82 22.854-10.85 33.85l.01.01 98 98 .01.01c10.996 10.97 31.28 4.469 33.85-10.85l21.44-125.51L220.972 52H244a12 12 0 0 0 12-12 12 12 0 0 0-12-12zm-46.682 58.686-17.937 105.003-87.05-87.05zM52 156a16 16 0 0 0-16 16 16 16 0 0 0 16 16 16 16 0 0 0 16-16 16 16 0 0 0-16-16zm-32 32a16 16 0 0 0-16 16 16 16 0 0 0 16 16 16 16 0 0 0 16-16 16 16 0 0 0-16-16zm64 0a16 16 0 0 0-16 16 16 16 0 0 0 16 16 16 16 0 0 0 16-16 16 16 0 0 0-16-16zm-32 32a16 16 0 0 0-16 16 16 16 0 0 0 16 16 16 16 0 0 0 16-16 16 16 0 0 0-16-16z"/></svg>