<svg xmlns="http://www.w3.org/2000/svg" viewBox="0 0 256 256"><path d="M208 40a8 8 0 0 0-5.656 2.344 8 8 0 0 0 0 11.312L212.688 64H168a8 8 0 0 0-6.51 3.35l-20.34 28.47a8 8 0 0 0 1.86 11.159 8 8 0 0 0 11.16-1.858L172.117 80h40.57l-10.343 10.344a8 8 0 0 0 0 11.312 8 8 0 0 0 11.312 0l24-24a8 8 0 0 0 .781-.918l.051-.068a8 8 0 0 0 1.094-2.145l.037-.117a8 8 0 0 0 .38-2.39L240 72l-.01-.209a8 8 0 0 0-.03-.545 8 8 0 0 0-.042-.324 8 8 0 0 0-.072-.453 8 8 0 0 0-.069-.31 8 8 0 0 0-.115-.43 8 8 0 0 0-.111-.352 8 8 0 0 0-.153-.4 8 8 0 0 0-.123-.295 8 8 0 0 0-.757-1.315 8 8 0 0 0-.202-.263 8 8 0 0 0-.28-.346 8 8 0 0 0-.23-.25l-.15-.164-24-24A8 8 0 0 0 208 40zM32 64a8 8 0 0 0-8 8 8 8 0 0 0 8 8h51.883l77.607 108.65A8 8 0 0 0 168 192h44.688l-10.344 10.344a8 8 0 0 0 0 11.312 8 8 0 0 0 11.312 0l24-24a8 8 0 0 0 1.711-2.562l.031-.074a8 8 0 0 0 .6-3.008L240 184l-.004-.055a8 8 0 0 0-.084-1.064l-.025-.201a8 8 0 0 0-.246-1.02l-.075-.238a8 8 0 0 0-.398-.961l-.106-.203a8 8 0 0 0-.556-.906l-.113-.149a8 8 0 0 0-.737-.86l-24-24A8 8 0 0 0 208 152a8 8 0 0 0-5.656 2.344 8 8 0 0 0 0 11.312L212.688 176h-40.57L94.51 67.35A8 8 0 0 0 88 64zm77.113 83.568a8 8 0 0 0-2.088.07 8 8 0 0 0-5.195 3.24L83.883 176H32a8 8 0 0 0-8 8 8 8 0 0 0 8 8h56a8 8 0 0 0 6.51-3.35l20.34-28.47a8 8 0 0 0-1.86-11.159 8 8 0 0 0-3.877-1.453z"/></svg>