<svg xmlns="http://www.w3.org/2000/svg" viewBox="0 0 256 256"><path d="M48 36a12 12 0 0 0-8.484 3.516 12 12 0 0 0 0 16.968L179.03 196H168a12 12 0 0 0-12 12 12 12 0 0 0 12 12h40a12 12 0 0 0 4.197-.836 12 12 0 0 0 .582-.203 12 12 0 0 0 3.387-2.264 12 12 0 0 0 .318-.213 12 12 0 0 0 .756-.861l.184-.21a12 12 0 0 0 1.254-1.995 12 12 0 0 0 .2-.408 12 12 0 0 0 .768-2.19 12 12 0 0 0 .083-.412 12 12 0 0 0 .267-2.367L220 208v-40a12 12 0 0 0-12-12 12 12 0 0 0-12 12v11.031L56.484 39.516A12 12 0 0 0 48 36zm120 0a12 12 0 0 0-12 12 12 12 0 0 0 12 12h11.031l-31.236 31.234a12 12 0 0 0 0 16.971 12 12 0 0 0 16.97 0L196 76.97V88a12 12 0 0 0 12 12 12 12 0 0 0 12-12V48l-.004-.027a12 12 0 0 0-.283-2.526l-.049-.217a12 12 0 0 0-.84-2.398l-.053-.102a12 12 0 0 0-1.333-2.12l-.112-.147a12 12 0 0 0-.842-.947 12 12 0 0 0-.453-.348 12 12 0 0 0-1.467-1.127 12 12 0 0 0-.93-.584 12 12 0 0 0-1.855-.768 12 12 0 0 0-.87-.304A12 12 0 0 0 208 36zM99.72 144.28a12 12 0 0 0-8.486 3.515l-51.718 51.72a12 12 0 0 0 0 16.97 12 12 0 0 0 16.968 0l51.721-51.72a12 12 0 0 0 0-16.97 12 12 0 0 0-8.484-3.516z"/></svg>