<svg xmlns="http://www.w3.org/2000/svg" viewBox="0 0 256 256"><path d="M128 20C68.496 20 20 68.496 20 128c0 59.505 48.496 108 108 108 59.505 0 108-48.495 108-108 0-59.504-48.495-108-108-108zm0 24c46.534 0 84 37.466 84 84s-37.466 84-84 84-84-37.466-84-84 37.466-84 84-84zm32 32a12 12 0 0 0-12 12v18.35l-45.64-28.526a12 12 0 0 0-8.167-1.685A12 12 0 0 0 84 88v80a12.001 12.001 0 0 0 18.36 10.176L148 149.65V168a12 12 0 0 0 12 12 12 12 0 0 0 12-12V88a12 12 0 0 0-12-12zm-52 33.65L137.36 128 108 146.35z"/></svg>