<svg xmlns="http://www.w3.org/2000/svg" viewBox="0 0 256 256"><path d="M80.834 20.102a60 60 0 0 0-4.674.123c-14.117.918-27.913 6.782-38.533 17.402-19.98 19.98-23.11 51.193-8.174 74.648-10.613 66.562 47.71 124.885 114.272 114.272 23.455 14.935 54.669 11.805 74.648-8.174 19.98-19.98 23.11-51.193 8.174-74.648C237.16 77.163 178.837 18.84 112.275 29.453c-9.614-6.122-20.528-9.216-31.441-9.351zm.05 23.914c7.408.175 14.81 2.652 21.112 7.498a12 12 0 0 0 9.85 2.215c54.496-11.781 102.206 35.929 90.425 90.425a12 12 0 0 0 2.215 9.85c11.077 14.406 9.766 34.549-3.084 47.398s-32.992 14.16-47.398 3.084a12 12 0 0 0-9.85-2.215c-54.496 11.781-102.206-35.929-90.425-90.425a12 12 0 0 0-2.215-9.85c-11.077-14.406-9.766-34.549 3.084-47.398 6.424-6.425 14.672-9.967 23.115-10.516a36 36 0 0 1 3.172-.066zM128 68c-22.537 0-42.22 15.173-42.22 36 0 11.444 7.896 20.762 15.796 25.248s16.315 6.562 23.979 8.78c7.663 2.216 14.503 4.566 18.158 6.954C147.367 147.371 148 147.89 148 152c0 2.299-1.126 4.783-4.574 7.37S134.4 164 128 164c-11.497 0-18.955-6.623-19.85-10.621a12 12 0 0 0-14.33-9.09 12 12 0 0 0-9.09 14.332C88.916 177.323 107.777 188 128 188c11.268 0 21.692-3.33 29.826-9.432C165.96 172.468 172 162.951 172 152c0-11.889-7.145-21.871-15.156-27.107s-16.728-7.637-24.62-9.92c-7.89-2.283-15.03-4.457-18.796-6.596s-3.649-1.821-3.649-4.377c0-5.673 5.418-12 18.221-12 9.627 0 15.356 4.24 17.287 8.066a12 12 0 0 0 16.12 5.307 12 12 0 0 0 5.306-16.12C159.904 75.762 144.873 68 128 68z"/></svg>