<svg xmlns="http://www.w3.org/2000/svg" viewBox="0 0 256 256"><path d="M0 80c0 17.578 14.422 32 32 32a31.7 31.7 0 0 0 16-4.336V128c0 17.578 14.422 32 32 32 9.527 0 18.12-4.241 24-10.92 5.88 6.679 14.473 10.92 24 10.92 17.578 0 32-14.422 32-32a31.7 31.7 0 0 0-4.336-16H176c17.578 0 32-14.422 32-32 0-9.527-4.241-18.12-10.92-24C203.76 50.12 208 41.527 208 32c0-17.578-14.422-32-32-32a31.7 31.7 0 0 0-16 4.336V-16c0-17.578-14.422-32-32-32-9.527 0-18.12 4.241-24 10.92C98.12-43.76 89.527-48 80-48c-17.578 0-32 14.422-32 32a31.7 31.7 0 0 0 4.336 16H32C14.422 0 0 14.422 0 32c0 9.527 4.241 18.12 10.92 24C4.24 61.88 0 70.473 0 80zm16 0c0-8.931 7.069-16 16-16h16v16c0 8.931-7.069 16-16 16s-16-7.069-16-16zm0-48c0-8.931 7.069-16 16-16h48c8.931 0 16 7.069 16 16v16H32c-8.931 0-16-7.069-16-16zm48 96V80c0-8.931 7.069-16 16-16h16v64c0 8.931-7.069 16-16 16s-16-7.069-16-16zm0-144c0-8.931 7.069-16 16-16s16 7.069 16 16V0H80c-8.931 0-16-7.069-16-16zm48 144v-16h16c8.931 0 16 7.069 16 16s-7.069 16-16 16-16-7.069-16-16zm0-48V64h64c8.931 0 16 7.069 16 16s-7.069 16-16 16h-48c-8.931 0-16-7.069-16-16zm0-32v-64c0-8.931 7.069-16 16-16s16 7.069 16 16v48c0 8.931-7.069 16-16 16zm48 0V32c0-8.931 7.069-16 16-16s16 7.069 16 16-7.069 16-16 16z" transform="rotate(90 80 104)"/></svg>