<svg xmlns="http://www.w3.org/2000/svg" viewBox="0 0 256 256"><path d="M56 28a12 12 0 0 0-12 12v62.092C30.08 107.083 20 120.46 20 136s10.08 28.917 24 33.908V216a12 12 0 0 0 12 12 12 12 0 0 0 12-12v-46.092C81.92 164.917 92 151.54 92 136s-10.08-28.917-24-33.908V40a12 12 0 0 0-12-12zm72 0a12 12 0 0 0-12 12v14.092C102.08 59.083 92 72.46 92 88s10.08 28.917 24 33.908V216a12 12 0 0 0 12 12 12 12 0 0 0 12-12v-94.092c13.92-4.991 24-18.368 24-33.908s-10.08-28.917-24-33.908V40a12 12 0 0 0-12-12zm72 0a12 12 0 0 0-12 12v94.092c-13.92 4.991-24 18.368-24 33.908s10.08 28.917 24 33.908V216a12 12 0 0 0 12 12 12 12 0 0 0 12-12v-14.092c13.92-4.991 24-18.368 24-33.908s-10.08-28.917-24-33.908V40a12 12 0 0 0-12-12zm-72 48c6.77 0 12 5.23 12 12s-5.23 12-12 12-12-5.23-12-12 5.23-12 12-12zm-72 48c6.77 0 12 5.23 12 12s-5.23 12-12 12-12-5.23-12-12 5.23-12 12-12zm144 32c6.77 0 12 5.23 12 12s-5.23 12-12 12-12-5.23-12-12 5.23-12 12-12z"/></svg>