<svg xmlns="http://www.w3.org/2000/svg" viewBox="0 0 256 256"><path d="M128 20C68.496 20 20 68.496 20 128c0 59.505 48.496 108 108 108 59.505 0 108-48.495 108-108 0-59.504-48.495-108-108-108zm0 24c46.534 0 84 37.466 84 84s-37.466 84-84 84-84-37.466-84-84 37.466-84 84-84zM92 92a16 16 0 0 0-16 16 16 16 0 0 0 16 16 16 16 0 0 0 16-16 16 16 0 0 0-16-16zm72 0a16 16 0 0 0-16 16 16 16 0 0 0 16 16 16 16 0 0 0 16-16 16 16 0 0 0-16-16zm-60 48c-8.7 0-15.749 5.584-19.078 9.568-3.33 3.985-5.123 6.436-5.332 6.59a12 12 0 0 0-2.522 16.781 12 12 0 0 0 16.782 2.524c5.72-4.225 7.962-8.68 9.488-10.506.542-.65.483-.698.508-.826.34.318 1.172 1.224 2.554 3.068 1.5 2 3.479 4.872 6.979 7.672S122.333 180 128 180s11.12-2.329 14.621-5.129c3.5-2.8 5.479-5.672 6.979-7.672 1.382-1.844 2.215-2.75 2.554-3.068.025.128-.034.177.508.826 1.526 1.826 3.768 6.28 9.488 10.506a12 12 0 0 0 16.782-2.524 12 12 0 0 0-2.522-16.78c-.21-.155-2.002-2.606-5.332-6.59S160.701 140 152 140c-5.667 0-11.12 2.329-14.621 5.129-3.5 2.8-5.479 5.672-6.979 7.672-1.299 1.732-2.01 2.495-2.4 2.883-.39-.388-1.101-1.15-2.4-2.883-1.5-2-3.479-4.872-6.979-7.672S109.667 140 104 140z"/></svg>