<svg xmlns="http://www.w3.org/2000/svg" viewBox="0 0 256 256"><path d="M127.088 24.234c-26.515.277-52.697 10.669-72.447 30.422-33.707 33.713-40.143 86.155-15.573 127.006 24.571 40.852 73.919 59.755 119.498 45.775a8 8 0 0 0 3.31-1.99l63.571-63.58a8 8 0 0 0 1.992-3.312c13.972-45.582-4.94-94.926-45.794-119.49a103.57 103.57 0 0 0-49.252-14.75 104 104 0 0 0-5.305-.08zm3.734 16.002a87.7 87.7 0 0 1 42.576 12.541c34.097 20.5 50.032 61.174 39.21 99.301l-60.522 60.531c-38.125 10.827-78.801-5.1-99.307-39.193-20.825-34.624-15.396-78.87 13.176-107.447a87.78 87.78 0 0 1 64.867-25.733zM92 96a12 12 0 0 0-12 12 12 12 0 0 0 12 12 12 12 0 0 0 12-12 12 12 0 0 0-12-12zm72 0a12 12 0 0 0-12 12 12 12 0 0 0 12 12 12 12 0 0 0 12-12 12 12 0 0 0-12-12zm-76.006 48a8 8 0 0 0-4 1.074 8 8 0 0 0-2.92 10.932C90.538 172.368 107.334 184 128 184s37.462-11.632 46.926-27.994a8 8 0 0 0-2.92-10.932 8 8 0 0 0-10.932 2.92C153.938 160.332 142.874 168 128 168s-25.938-7.668-33.074-20.006a8 8 0 0 0-4.862-3.723 8 8 0 0 0-2.07-.271z"/></svg>