<svg xmlns="http://www.w3.org/2000/svg" viewBox="0 0 256 256"><path d="M112.727 16.033a8 8 0 0 0-5.561 1.594l-77 58.41-.2.154c-7.278 5.891-7.874 17.113-1.259 23.74l.006.005 113.69 113.72A8 8 0 0 0 148.06 216H224c8.742 0 16-7.258 16-16v-19.064a16.04 16.04 0 0 0-8.838-14.3l-.002-.001-28.578-14.309-.01-.004A47.97 47.97 0 0 1 176 109.391V80a8 8 0 0 0-8-8c-26.604 0-48-21.396-48-48a8 8 0 0 0-7.273-7.967zm-6.938 22.719c6.097 25.633 27.64 45.344 54.211 48.69v21.951c.009 24.236 13.74 46.426 35.428 57.246l28.57 14.304H224V200h-72.625L40.035 88.63l12.854-9.75 38.763 38.776a8 8 0 0 0 11.315.002 8 8 0 0 0 0-11.314L65.754 69.12zM32 168a8 8 0 0 0-8 8 8 8 0 0 0 8 8h38.8a8 8 0 0 0 8-8 8 8 0 0 0-8-8zm16 32a8 8 0 0 0-8 8 8 8 0 0 0 8 8h54.8a8 8 0 0 0 8-8 8 8 0 0 0-8-8z"/></svg>