<svg xmlns="http://www.w3.org/2000/svg" viewBox="0 0 256 256"><path d="M104 28a12 12 0 0 0-8.484 3.516 12 12 0 0 0 0 16.968L116 68.97v38.248L82.875 88.094l-7.283-27.198a12 12 0 0 0-14.696-8.488 12 12 0 0 0-8.488 14.696l5.4 20.164-20.671 5.078a12 12 0 0 0-8.791 14.517 12 12 0 0 0 14.517 8.791l27.885-6.85L103.998 128l-33.25 19.195-27.885-6.85a12 12 0 0 0-14.517 8.792 12 12 0 0 0 8.79 14.517l20.673 5.078-5.4 20.164a12 12 0 0 0 8.487 14.696 12 12 0 0 0 14.696-8.488l7.283-27.198L116 148.783v38.248l-20.484 20.485a12 12 0 0 0 0 16.968 12 12 0 0 0 16.968 0L128 208.97l15.516 15.515a12 12 0 0 0 16.968 0 12 12 0 0 0 0-16.968L140 187.03v-38.248l33.125 19.123 7.283 27.198a12 12 0 0 0 14.696 8.488 12 12 0 0 0 8.488-14.696l-5.4-20.164 20.671-5.078a12 12 0 0 0 8.791-14.517 12 12 0 0 0-14.517-8.791l-27.885 6.85L152.002 128l33.25-19.195 27.885 6.85a12 12 0 0 0 14.517-8.792 12 12 0 0 0-8.79-14.517l-20.673-5.078 5.4-20.164a12 12 0 0 0-8.487-14.696 12 12 0 0 0-14.696 8.488l-7.283 27.198L140 107.217V68.969l20.484-20.485a12 12 0 0 0 0-16.968 12 12 0 0 0-16.968 0L128 47.03l-15.516-15.515A12 12 0 0 0 104 28z"/></svg>