<svg xmlns="http://www.w3.org/2000/svg" viewBox="0 0 256 256"><path d="M128 8a8 8 0 0 0-8 8v16a8 8 0 0 0 8 8 8 8 0 0 0 8-8V16a8 8 0 0 0-8-8zM65.77 33.77a8 8 0 0 0-5.657 2.343 8 8 0 0 0 0 11.315l11.32 11.318a8 8 0 0 0 11.313 0 8 8 0 0 0 0-11.312l-11.318-11.32a8 8 0 0 0-5.658-2.344zm124.46 0a8 8 0 0 0-5.658 2.343l-11.318 11.32a8 8 0 0 0 0 11.313 8 8 0 0 0 11.312 0l11.32-11.318a8 8 0 0 0 0-11.315 8 8 0 0 0-5.656-2.343zM128 56c-26.415 0-48 21.585-48 48a8 8 0 0 0 8 8 8 8 0 0 0 8-8 31.88 31.88 0 0 1 32-32 31.88 31.88 0 0 1 32 32 8 8 0 0 0 8 8 8 8 0 0 0 8-8c0-26.415-21.585-48-48-48zM40 96a8 8 0 0 0-8 8 8 8 0 0 0 8 8h16a8 8 0 0 0 8-8 8 8 0 0 0-8-8zm160 0a8 8 0 0 0-8 8 8 8 0 0 0 8 8h16a8 8 0 0 0 8-8 8 8 0 0 0-8-8zM64.7 136a8 8 0 0 0-6.964 4.063l-40.7 72A8 8 0 0 0 24 224h208a8 8 0 0 0 6.965-11.937L216.318 172l-.004-.006-18.05-31.931A8 8 0 0 0 191.3 136zm4.667 16h24.358l-3.479 16H60.322zm40.73 0h35.805l3.479 16h-42.762zm52.178 0h24.358l9.045 16h-29.924zM51.28 184h35.489l-5.217 24H37.713zm51.864 0h49.714l5.217 24H97.926zm66.09 0h35.488l13.566 24H174.45z"/></svg>