<svg xmlns="http://www.w3.org/2000/svg" viewBox="0 0 256 256"><path d="M56 36a12 12 0 0 0-.437.082 12 12 0 0 0-1.899.355 12 12 0 0 0-2.498.684 12 12 0 0 0-.533.147 12 12 0 0 0-1.156.896 12 12 0 0 0-2.002 1.555 12 12 0 0 0-1.22 1.61 12 12 0 0 0-.987 1.304l-40 80A12 12 0 0 0 4 128v56c0 10.904 9.096 20 20 20h208c10.904 0 20-9.096 20-20v-56a12 12 0 0 0-.297-2.547 12 12 0 0 0-.062-.314 12 12 0 0 0-.83-2.29l-.079-.216-19.92-39.84-20.08-40.16A12 12 0 0 0 200 36zm19.416 24h21.168l8 16H83.416zm48 0h21.168l8 16h-21.168zm48 0h21.168l8 16h-21.168zM56 74.832l28 56V180H28v-49.168zM95.416 100h21.168l8 16h-21.168zm48 0h21.168l8 16h-21.168zm48 0h21.168l8 16h-21.168zM108 140h120v40H108z"/></svg>