<svg xmlns="http://www.w3.org/2000/svg" viewBox="0 0 256 256"><path d="M184 36a12 12 0 0 0-8.484 3.516l-40 40a12 12 0 0 0 0 16.968 12 12 0 0 0 16.968 0L172 76.97V144a12 12 0 0 0 12 12 12 12 0 0 0 12-12V76.969l19.516 19.515a12 12 0 0 0 16.968 0 12 12 0 0 0 0-16.968l-40-40-.076-.059a12 12 0 0 0-2.355-1.807l-.131-.072a12 12 0 0 0-2.777-1.152l-.108-.026A12 12 0 0 0 184 36zM48 52a12 12 0 0 0-12 12 12 12 0 0 0 12 12h52a12 12 0 0 0 12-12 12 12 0 0 0-12-12zm0 64a12 12 0 0 0-12 12 12 12 0 0 0 12 12h68a12 12 0 0 0 12-12 12 12 0 0 0-12-12zm0 64a12 12 0 0 0-12 12 12 12 0 0 0 12 12h132a12 12 0 0 0 12-12 12 12 0 0 0-12-12z"/></svg>