<svg xmlns="http://www.w3.org/2000/svg" viewBox="0 0 256 256"><path d="M160.994 20.043a12 12 0 0 0-8.361 2.484l-33.52 26.07a12 12 0 0 0-2.105 16.84 12 12 0 0 0 16.84 2.106L148 56.535V94.94a12 12 0 0 0 12 12 12 12 0 0 0 12-12V32a12 12 0 0 0-11.006-11.957zM56.57 28.013a12 12 0 0 0-8.642 3.108 12 12 0 0 0-.807 16.951L72.51 76H40c-10.904 0-20 9.096-20 20v64c0 10.904 9.096 20 20 20h43.883l68.75 53.473A12.001 12.001 0 0 0 172 224v-38.56l35.121 38.632a12 12 0 0 0 16.951.807 12 12 0 0 0 .807-16.951L108.643 80.066l-.053-.056-43.711-48.082a12 12 0 0 0-8.309-3.914zM236 76a12 12 0 0 0-12 12v80a12 12 0 0 0 12 12 12 12 0 0 0 12-12V88a12 12 0 0 0-12-12zm-36 16a12 12 0 0 0-12 12v34.94a12 12 0 0 0 12 12 12 12 0 0 0 12-12V104a12 12 0 0 0-12-12zm-156 8h50.328L148 159.04v40.425l-52.633-40.938A12 12 0 0 0 88 156H44z"/></svg>