<svg xmlns="http://www.w3.org/2000/svg" viewBox="0 0 256 256"><path d="M152.662 24.03a8 8 0 0 0-5.574 1.656L77.256 80H32c-8.742 0-16 7.258-16 16v64c0 8.742 7.258 16 16 16h45.256l69.832 54.314A8 8 0 0 0 160 224V32a8 8 0 0 0-7.338-7.97zM144 48.356v159.286l-56-43.555V91.912zm78.115 23.655a8 8 0 0 0-5.78 2.025 8 8 0 0 0-.628 11.297c21.774 24.344 21.774 60.988 0 85.332a8 8 0 0 0 .629 11.297 8 8 0 0 0 11.297-.629c27.118-30.319 27.118-76.35 0-106.668a8 8 0 0 0-5.518-2.654zM32 96h40v64H32zm160.506 2.865a8 8 0 0 0-5.793 1.98 8 8 0 0 0-.717 11.292 23.91 23.91 0 0 1 0 31.726 8 8 0 0 0 .717 11.291 8 8 0 0 0 11.29-.716c13.27-15.066 13.27-37.81 0-52.875a8 8 0 0 0-5.497-2.698z"/></svg>