<svg xmlns="http://www.w3.org/2000/svg" viewBox="0 0 256 256"><path d="M160.662 24.03a8 8 0 0 0-5.574 1.656L85.256 80H40c-8.742 0-16 7.258-16 16v64c0 8.742 7.258 16 16 16h45.256l69.832 54.314A8 8 0 0 0 168 224V32a8 8 0 0 0-7.338-7.97zM152 48.356v159.286l-59.088-45.957A8 8 0 0 0 88 160H40V96h48a8 8 0 0 0 4.912-1.686zM200 96a8 8 0 0 0-5.656 2.344 8 8 0 0 0 0 11.312L212.688 128l-18.344 18.344a8 8 0 0 0 0 11.312 8 8 0 0 0 11.312 0L224 139.312l18.344 18.344a8 8 0 0 0 11.312 0 8 8 0 0 0 0-11.312L235.312 128l18.344-18.344a8 8 0 0 0 0-11.312A8 8 0 0 0 248 96a8 8 0 0 0-5.656 2.344L224 116.688l-18.344-18.344A8 8 0 0 0 200 96z"/></svg>