<svg xmlns="http://www.w3.org/2000/svg" viewBox="0 0 256 256"><path d="M128 24a8 8 0 0 0-8 8v32a8 8 0 0 0 8 8 8 8 0 0 0 8-8V32a8 8 0 0 0-8-8zM60.12 52.12a8 8 0 0 0-5.657 2.343 8 8 0 0 0 0 11.314l22.63 22.63a8 8 0 0 0 11.313 0 8 8 0 0 0 0-11.313L65.777 54.463a8 8 0 0 0-5.658-2.344zm135.76 0a8 8 0 0 0-5.657 2.343l-22.63 22.63a8 8 0 0 0 0 11.313 8 8 0 0 0 11.313 0l22.631-22.629a8 8 0 0 0 0-11.314 8 8 0 0 0-5.656-2.344zM32 120a8 8 0 0 0-8 8 8 8 0 0 0 8 8h32a8 8 0 0 0 8-8 8 8 0 0 0-8-8zm160 0a8 8 0 0 0-8 8 8 8 0 0 0 8 8h32a8 8 0 0 0 8-8 8 8 0 0 0-8-8zM82.75 165.25a8 8 0 0 0-5.656 2.344l-22.631 22.629a8 8 0 0 0 0 11.314 8 8 0 0 0 11.314 0l22.63-22.63a8 8 0 0 0 0-11.313 8 8 0 0 0-5.657-2.344zm90.5 0a8 8 0 0 0-5.656 2.344 8 8 0 0 0 0 11.312l22.629 22.631a8 8 0 0 0 11.314 0 8 8 0 0 0 0-11.314l-22.63-22.63a8 8 0 0 0-5.657-2.343zM128 184a8 8 0 0 0-8 8v32a8 8 0 0 0 8 8 8 8 0 0 0 8-8v-32a8 8 0 0 0-8-8z"/></svg>