<svg xmlns="http://www.w3.org/2000/svg" viewBox="0 0 256 256"><path d="M128.02 12.023c-7.585 0-15.73 4.902-18.75 13.041l-.028.075-22.424 61.674L25.145 109.2l-.08.03c-8.14 3.02-13.042 11.165-13.042 18.75 0 7.584 4.902 15.728 13.041 18.75l.075.027 61.674 22.424 22.388 61.673.03.08c3.02 8.14 11.165 13.042 18.75 13.042 7.584 0 15.728-4.902 18.75-13.041l.027-.075 22.424-61.673 61.71-22.387.085-.031c8.139-3.022 13.039-11.166 13.039-18.75 0-7.585-4.9-15.73-13.04-18.75l-.076-.028-61.675-22.426-22.428-61.677-.027-.075c-3.022-8.139-11.166-13.04-18.75-13.04zm0 31.706 20.562 56.552a12 12 0 0 0 7.178 7.176l56.54 20.559-56.573 20.523a12 12 0 0 0-7.184 7.18l-20.559 56.545-20.525-56.54a12 12 0 0 0-7.178-7.181l-56.545-20.559 56.54-20.525a12 12 0 0 0 7.181-7.178z"/></svg>