<svg xmlns="http://www.w3.org/2000/svg" viewBox="0 0 256 256"><path d="M128 16c-6.086 0-12.508 3.712-15.146 10.176l-22.74 55.047-59.032 4.802-.053.006c-6.918.608-12.358 5.565-14.222 11.338-1.865 5.773-.352 12.976 4.904 17.516l.004.004 45.02 38.824-13.747 57.963c-1.65 6.765 1.34 13.525 6.242 17.115s12.249 4.4 18.202.787l.039-.023L128 198.48l7.05 4.334a8 8 0 0 0 11.005-2.625 8 8 0 0 0-2.625-11.003l-7.43-4.569V50.783l16.967 41.07a8 8 0 0 0 6.746 4.92l15.639 1.27a8 8 0 0 0 8.623-7.326 8 8 0 0 0-7.327-8.621l-10.763-.873-22.739-55.047c-2.476-6.067-8.285-9.667-14.021-10.092A8 8 0 0 0 128 16zm-8 34.783v133.834l-50.871 31.285c-.442.269-.241.129-.443-.02-.203-.147-.275.085-.153-.417l.012-.049 14.879-62.74a8 8 0 0 0-2.559-7.905L32.17 102.775c-.403-.348-.22-.231-.137-.488.083-.255-.125-.27.395-.316l63.861-5.198a8 8 0 0 0 6.744-4.92zm96.684 34.535a8 8 0 0 0-8.655 7.287 8 8 0 0 0 7.287 8.655l8.217.707c.511.048.311.062.393.314.082.254.26.144-.135.489l-5.014 4.32a8 8 0 0 0-.838 11.283 8 8 0 0 0 11.284.838l5.058-4.361.047-.04c5.198-4.549 6.682-11.712 4.82-17.458-1.86-5.747-7.26-10.679-14.138-11.317l-.055-.006zm-24.094 47.453a8 8 0 0 0-5.815 1.92l-11.63 10.032a8 8 0 0 0-2.561 7.898l4.07 17.219a8 8 0 0 0 9.625 5.945 8 8 0 0 0 5.946-9.625l-2.952-12.494 7.952-6.857a8 8 0 0 0 .834-11.284 8 8 0 0 0-5.47-2.754zm1.04 67.233a8 8 0 0 0-1.554.21 8 8 0 0 0-5.941 9.632l1.32 5.568.012.05c.122.503.05.27-.153.419-.201.147-.007.283-.44.02l-6.685-4.108a8 8 0 0 0-11.005 2.627 8 8 0 0 0 2.627 11.004l6.72 4.13.037.022c5.953 3.614 13.3 2.803 18.202-.787 4.901-3.59 7.891-10.35 6.242-17.115l-1.307-5.522a8 8 0 0 0-8.074-6.15z"/></svg>