<svg xmlns="http://www.w3.org/2000/svg" viewBox="0 0 256 256"><path d="M128 16c-6.086 0-12.508 3.712-15.146 10.176l-22.74 55.047-59.032 4.802-.053.006c-6.918.608-12.358 5.565-14.222 11.338-1.865 5.773-.352 12.976 4.904 17.516l.004.004 45.02 38.824-13.747 57.963c-1.65 6.765 1.34 13.525 6.242 17.115s12.249 4.4 18.202.787l.039-.023L128 198.482l50.53 31.073.038.023c5.953 3.614 13.3 2.803 18.202-.787 4.901-3.59 7.891-10.35 6.242-17.115l-13.746-58.012 45.02-38.826.052-.047c5.183-4.551 6.659-11.703 4.799-17.443s-7.25-10.667-14.117-11.313l-.102-.01-59.031-4.802-22.74-55.047C140.507 19.712 134.085 16 128 16zm-.184 15.936c.03.003.065.064.184.064.239 0 .142-.248.334.223l.012.03 24.62 59.6a8 8 0 0 0 6.745 4.92l63.812 5.194c.51.048.312.063.393.314.082.253.257.142-.135.487l.055-.045-48.701 42a8 8 0 0 0-2.559 7.902l14.88 62.79.01.05c.123.502.05.27-.152.418s0 .288-.443.02l-54.68-33.628a8 8 0 0 0-8.382 0l-54.68 33.627c-.442.269-.241.129-.443-.02-.203-.147-.275.085-.153-.417l.012-.049 14.879-62.74a8 8 0 0 0-2.559-7.905L32.17 102.775c-.403-.348-.22-.231-.137-.488.083-.255-.125-.27.395-.316l63.861-5.198a8 8 0 0 0 6.744-4.92l24.621-59.6.012-.03c.096-.235.12-.29.15-.287z"/></svg>