<svg xmlns="http://www.w3.org/2000/svg" viewBox="0 0 256 256"><path d="M88 32c-30.833 0-56 25.167-56 56v80c0 30.833 25.167 56 56 56h48a8 8 0 0 0 2.502-.406l.027-.004c15.036-5.012 32.656-19.462 49.127-35.934s30.922-34.09 35.934-49.127l.015-.047.006-.021A8 8 0 0 0 224 136V88c0-30.833-25.167-56-56-56zm0 16h80a39.88 39.88 0 0 1 40 40v40h-24c-30.833 0-56 25.167-56 56v24H88a39.88 39.88 0 0 1-40-40V88a39.88 39.88 0 0 1 40-40zm96 96h18.842c-5.945 9.404-15.663 21.508-26.498 32.344-10.836 10.835-22.94 20.553-32.344 26.498V184a39.88 39.88 0 0 1 40-40z"/></svg>