<svg xmlns="http://www.w3.org/2000/svg" viewBox="0 0 256 256"><path d="M53.969 32c-7.083.028-13.373 4.79-15.32 11.6v.004l-14.34 50.199a8 8 0 0 0-.016.347A8 8 0 0 0 24 96v16c0 13.012 6.3 24.624 16 31.941V216a8 8 0 0 0 8 8h160a8 8 0 0 0 8-8v-72.059c9.7-7.317 16-18.93 16-31.941V96a8 8 0 0 0-.035-.684l-.004-.08a8 8 0 0 0-.244-1.304l-.024-.125-14.31-50.2-.002-.007C215.427 36.769 209.107 32 202 32H53.97zm.064 16h147.965L213.4 88H42.605zM40 104h48v8c0 13.35-10.65 24-24 24-3.97 0-7.699-.948-10.982-2.623a8 8 0 0 0-2.123-1.225C44.317 127.892 40 120.496 40 112zm64 0h48v8c0 13.35-10.65 24-24 24s-24-10.65-24-24zm64 0h48v8c0 8.509-4.33 15.915-10.926 20.172a8 8 0 0 0-1.064.648A24.04 24.04 0 0 1 192 136c-13.35 0-24-10.65-24-24zm-72 31.926c7.314 9.742 18.954 16.074 32 16.074s24.686-6.332 32-16.074c7.314 9.742 18.954 16.074 32 16.074 2.737 0 5.413-.28 8-.81V208H56v-56.81c2.587.53 5.263.81 8 .81 13.046 0 24.686-6.332 32-16.074z"/></svg>