<svg xmlns="http://www.w3.org/2000/svg" viewBox="0 0 256 256"><path d="M148 32a12 12 0 0 0-2.908.385 12 12 0 0 0-.871.304 12 12 0 0 0-1.856.768 12 12 0 0 0-.93.584 12 12 0 0 0-1.466 1.127 12 12 0 0 0-.453.348 12 12 0 0 0-.348.453 12 12 0 0 0-1.127 1.467 12 12 0 0 0-.584.93 12 12 0 0 0-.768 1.855 12 12 0 0 0-.304.87A12 12 0 0 0 136 44v40a12 12 0 0 0 12 12 12 12 0 0 0 12-12v-9.191c8.171 12.51 8.157 24.205 4.469 35.048-4.686 13.776-17.126 25.613-28.465 29.618a12 12 0 0 0-7.318 15.312 12 12 0 0 0 15.31 7.318c19.211-6.785 35.937-23.178 43.195-44.517 6.345-18.65 4.018-41.517-11.273-61.588H188a12 12 0 0 0 12-12 12 12 0 0 0-12-12zM48 64a12 12 0 0 0-8.484 3.516 12 12 0 0 0 0 16.968L51.03 96l-11.515 11.516a12 12 0 0 0 0 16.968 12 12 0 0 0 16.968 0L68 112.97l11.516 11.515a12 12 0 0 0 16.968 0 12 12 0 0 0 0-16.968L84.97 96l11.515-11.516a12 12 0 0 0 0-16.968A12 12 0 0 0 88 64a12 12 0 0 0-8.484 3.516L68 79.03 56.484 67.516A12 12 0 0 0 48 64zm32 80c-21.95 0-40 18.05-40 40s18.05 40 40 40 40-18.05 40-40-18.05-40-40-40zm104 16a12 12 0 0 0-8.484 3.516 12 12 0 0 0 0 16.968L187.03 192l-11.515 11.516a12 12 0 0 0 0 16.968 12 12 0 0 0 16.968 0L204 208.97l11.516 11.515a12 12 0 0 0 16.968 0 12 12 0 0 0 0-16.968L220.97 192l11.515-11.516a12 12 0 0 0 0-16.968A12 12 0 0 0 224 160a12 12 0 0 0-8.484 3.516L204 175.03l-11.516-11.515A12 12 0 0 0 184 160zm-104 8c8.979 0 16 7.021 16 16s-7.021 16-16 16-16-7.021-16-16 7.021-16 16-16z"/></svg>