<svg xmlns="http://www.w3.org/2000/svg" viewBox="0 0 256 256"><path d="M40 28a12 12 0 0 0-12 12v120a12 12 0 0 0 12 12h44v44a12 12 0 0 0 12 12h120l.072-.012a12 12 0 0 0 3.354-.531 12 12 0 0 0 1.039-.43 12 12 0 0 0 2.105-1.074 12 12 0 0 0 1.016-.78 12 12 0 0 0 .898-.689 12 12 0 0 0 1.184-1.392l.057-.074a12 12 0 0 0 1.654-3.245l.045-.144a12 12 0 0 0 .574-3.611L228 216V96a12 12 0 0 0-12-12h-44V40a12 12 0 0 0-12-12zm12 24h96v96H52zm128.969 56H204v23.031zM172 132.969l32 32v22.062l-32-32zM132.969 172h22.062l32 32H164.97zM108 180.969 131.031 204H108z"/></svg>