<svg xmlns="http://www.w3.org/2000/svg" viewBox="0 0 256 256"><path d="M79.432 32.02a8 8 0 0 0-3.01.824 8 8 0 0 0-3.578 10.734l8 16a8 8 0 0 0 10.734 3.578 8 8 0 0 0 3.578-10.734l-8-16a8 8 0 0 0-4.627-4.012 8 8 0 0 0-3.097-.39zm97.136 0a8 8 0 0 0-3.097.39 8 8 0 0 0-4.627 4.012l-8 16a8 8 0 0 0 3.578 10.734 8 8 0 0 0 10.734-3.578l8-16a8 8 0 0 0-3.578-10.734 8 8 0 0 0-3.01-.824zM128 72.125c-43.367 0-76.178 38.197-71.549 79.875H16a8 8 0 0 0-8 8 8 8 0 0 0 8 8h224a8 8 0 0 0 8-8 8 8 0 0 0-8-8h-40.451c4.63-41.678-28.182-79.875-71.549-79.875zM24.568 88.02a8 8 0 0 0-3.097.39 8 8 0 0 0-4.627 4.012 8 8 0 0 0 3.578 10.734l16 8a8 8 0 0 0 10.734-3.578 8 8 0 0 0-3.578-10.734l-16-8a8 8 0 0 0-3.01-.824zm206.864 0a8 8 0 0 0-3.01.824l-16 8a8 8 0 0 0-3.578 10.734 8 8 0 0 0 10.734 3.578l16-8a8 8 0 0 0 3.578-10.734 8 8 0 0 0-4.627-4.012 8 8 0 0 0-3.097-.39zM128 88.125c34.682 0 60.312 30.518 55.441 63.875H72.56c-4.87-33.357 20.76-63.875 55.441-63.875zM48 192a8 8 0 0 0-8 8 8 8 0 0 0 8 8h160a8 8 0 0 0 8-8 8 8 0 0 0-8-8z"/></svg>