<svg xmlns="http://www.w3.org/2000/svg" viewBox="0 0 256 256"><path d="M96 32c-8.742 0-16 7.258-16 16v8a8 8 0 0 0 8 8 8 8 0 0 0 8-8v-8h112v104H99.313l10.343-10.344a8 8 0 0 0 0-11.312A8 8 0 0 0 104 128a8 8 0 0 0-5.656 2.344l-24 24a8 8 0 0 0-1.54 2.304 8 8 0 0 0-.263.635 8 8 0 0 0-.535 2.688L72 160l.006.03a8 8 0 0 0 .535 2.687 8 8 0 0 0 .264.635 8 8 0 0 0 1.539 2.304l24 24a8 8 0 0 0 11.312 0 8 8 0 0 0 0-11.312L99.312 168H208c8.742 0 16-7.258 16-16V48c0-8.742-7.258-16-16-16zm56 32a8 8 0 0 0-5.656 2.344 8 8 0 0 0 0 11.312L156.688 88H48c-8.742 0-16 7.258-16 16v104c0 8.742 7.258 16 16 16h112c8.742 0 16-7.258 16-16v-8a8 8 0 0 0-8-8 8 8 0 0 0-8 8v8H48V104h108.688l-10.344 10.344a8 8 0 0 0 0 11.312 8 8 0 0 0 11.312 0l24-24a8 8 0 0 0 1.711-2.562l.031-.074a8 8 0 0 0 .6-3.008L184 96l-.004-.064a8 8 0 0 0-.068-.946l-.03-.22a8 8 0 0 0-.207-.95l-.064-.207a8 8 0 0 0-.313-.838l-.052-.129a8 8 0 0 0-.475-.865l-.121-.191a8 8 0 0 0-.586-.783l-.125-.137a8 8 0 0 0-.299-.326l-24-24A8 8 0 0 0 152 64z"/></svg>