<svg xmlns="http://www.w3.org/2000/svg" viewBox="0 0 256 256"><path d="M184 16a8 8 0 0 0-5.656 2.344 8 8 0 0 0 0 11.312L196.688 48 168 76.688l-34.344-34.344A8 8 0 0 0 128 40a8 8 0 0 0-5.656 2.344 8 8 0 0 0 0 11.312L128.688 60l-84.004 84.004-.004.002a16 16 0 0 0-4.68 11.3v49.381l-21.656 21.657a8 8 0 0 0 0 11.312 8 8 0 0 0 11.312 0L51.313 216h49.38a16 16 0 0 0 11.301-4.68l.002-.004L196 127.313l6.344 6.343a8 8 0 0 0 11.312 0 8 8 0 0 0 0-11.312L179.312 88 208 59.313l18.344 18.343a8 8 0 0 0 11.312 0 8 8 0 0 0 0-11.312l-48-48A8 8 0 0 0 184 16zm-44 55.313L184.688 116l-84.002 84H56v-44.689l18-17.999 20.344 20.344a8 8 0 0 0 11.312 0 8 8 0 0 0 0-11.312L85.312 126 98 113.313l20.344 20.343a8 8 0 0 0 11.312 0 8 8 0 0 0 0-11.312L109.312 102z"/></svg>