<svg xmlns="http://www.w3.org/2000/svg" viewBox="0 0 256 256"><path d="m64 32-.246.049a8 8 0 0 0-2.443.486 8 8 0 0 0-.618.238 8 8 0 0 0-.525.204L8.528 61.152C.875 65.134-2.18 74.79 1.787 82.45l.015.031 19.27 36.811.052.1A16.48 16.48 0 0 0 35.735 128H56v80c0 8.742 7.258 16 16 16h112c8.742 0 16-7.258 16-16v-80h20.266a16.48 16.48 0 0 0 14.609-8.61l.053-.099 19.27-36.81.015-.032c3.967-7.66.911-17.315-6.74-21.297l-51.641-28.175a8 8 0 0 0-.525-.204 8 8 0 0 0-.618-.238 8 8 0 0 0-2.443-.486L192 32h-32a8 8 0 0 0-8 8c0 13.35-10.65 24-24 24s-24-10.65-24-24a8 8 0 0 0-8-8zm8 16h16.813C92.546 66.199 108.74 80 128 80s35.454-13.801 39.188-32H184v160H72zm-16 5.479V112H35.586a.41.41 0 0 1-.39-.23L16.081 75.256zm144 0 39.918 21.777-19.113 36.514a.41.41 0 0 1-.39.23H200z"/></svg>