<svg xmlns="http://www.w3.org/2000/svg" viewBox="0 0 256 256"><path d="M224 24a8 8 0 0 0-5.656 2.344L195.637 49.05c-18.152-15.53-40.507-23.87-63.182-24.809-25.189-1.043-50.753 7.016-71.324 24.399-41.142 34.764-48.815 95.418-17.67 139.373s90.912 56.822 137.35 29.53c46.438-27.291 64.313-85.788 41.056-134.388a8 8 0 0 0-10.67-3.761 8 8 0 0 0-3.763 10.668c19.732 41.234 4.665 90.534-34.73 113.687-39.396 23.153-89.76 12.312-116.188-24.986-26.429-37.299-19.96-88.408 14.943-117.9 32.842-27.752 80.379-27.498 112.84-.475l-22.781 22.78c-11.069-8.264-24.636-12.009-37.99-10.948a55.76 55.76 0 0 0-27.305 9.705C74.03 97.237 65.903 126.343 76.94 150.94c11.038 24.6 38.184 37.878 64.375 31.479s44.161-30.701 42.61-57.621a8 8 0 0 0-8.446-7.526 8 8 0 0 0-7.527 8.448 39.916 39.916 0 0 1-30.435 41.156 39.91 39.91 0 0 1-45.977-22.486 39.91 39.91 0 0 1 13.768-49.295 39.89 39.89 0 0 1 44.728-.446l-27.693 27.694a8 8 0 0 0 0 11.312 8 8 0 0 0 11.312 0L167.6 99.713l62.056-62.057a8 8 0 0 0 0-11.312A8 8 0 0 0 224 24z"/></svg>