<svg xmlns="http://www.w3.org/2000/svg" viewBox="0 0 256 256"><path d="M152 4c-32.995 0-60 27.005-60 60v4H76.529a20.04 20.04 0 0 0-17.146 9.7l-.004.007-20.53 34.219a20 20 0 0 0-2.849 10.3V216c0 10.904 9.096 20 20 20h96c10.904 0 20-9.096 20-20v-93.779c0-3.626-.984-7.186-2.85-10.295l-20.529-34.219-.004-.008A20.04 20.04 0 0 0 131.471 68H116v-4c0-20.024 15.976-36 36-36s36 15.976 36 36v80c0 19.74 16.26 36 36 36a12 12 0 0 0 12-12 12 12 0 0 0-12-12c-6.77 0-12-5.23-12-12V64c0-32.995-27.005-60-60-60zM78.793 92H92v44a12 12 0 0 0 12 12 12 12 0 0 0 12-12V92h13.207L148 123.322V212H60v-88.678z"/></svg>