<svg xmlns="http://www.w3.org/2000/svg" viewBox="0 0 256 256"><path d="M112 36a12 12 0 0 0-12 12v12H24C13.096 60 4 69.096 4 80v96c0 10.904 9.096 20 20 20h76v12a12 12 0 0 0 12 12 12 12 0 0 0 12-12V48a12 12 0 0 0-12-12zm40 24a12 12 0 0 0-12 12 12 12 0 0 0 12 12h76v88h-76a12 12 0 0 0-12 12 12 12 0 0 0 12 12h80c10.904 0 20-9.096 20-20V80c0-10.904-9.096-20-20-20zM28 84h72v88H28zm24 16a12 12 0 0 0-12 12 12 12 0 0 0 12 12v20a12 12 0 0 0 12 12 12 12 0 0 0 12-12v-20a12 12 0 0 0 12-12 12 12 0 0 0-12-12z"/></svg>