<svg xmlns="http://www.w3.org/2000/svg" viewBox="0 0 256 256"><path d="M40 44a12 12 0 0 0-12 12v120a12 12 0 0 0 12 12 12 12 0 0 0 12-12v-48h80v48a12 12 0 0 0 12 12 12 12 0 0 0 12-12V56a12 12 0 0 0-12-12 12 12 0 0 0-12 12v48H52V56a12 12 0 0 0-12-12zm179.393 56.016a12 12 0 0 0-2.327.35 12 12 0 0 0-7.369 5.482l-32.25 54a12 12 0 0 0-.265.584C173.892 166.232 172 172.91 172 180c0 21.95 18.05 40 40 40s40-18.05 40-40c0-20.237-15.348-37.147-34.945-39.664l13.248-22.184a12 12 0 0 0-4.15-16.455 12 12 0 0 0-6.76-1.681zM212 164c8.979 0 16 7.021 16 16s-7.021 16-16 16-16-7.021-16-16c0-2.764.67-5.339 1.854-7.584a12 12 0 0 0 .199-.264l.9-1.506C201.828 166.601 206.546 164 212 164z"/></svg>