<svg xmlns="http://www.w3.org/2000/svg" viewBox="0 0 256 256"><path d="M80 44.002a12 12 0 0 0-4.418.842 12 12 0 0 0-6.44 6.047l-64 136a12 12 0 0 0 5.749 15.966 12 12 0 0 0 15.966-5.748L42.437 164h75.126l15.58 33.11a12 12 0 0 0 15.966 5.747 12 12 0 0 0 5.748-15.966l-18.92-40.205-.015-.036-.006-.011L90.857 50.89A12 12 0 0 0 80 44.002zM200 84c-11.384 0-23.505 2.595-32.457 11.486a12 12 0 0 0-.057 16.971 12 12 0 0 0 16.971.057c2.768-2.75 7.807-4.514 15.543-4.514 11.993 0 20 7.955 20 16v4.42a47.4 47.4 0 0 0-20-4.42c-23.348 0-44 17.124-44 40s20.652 40 44 40c7.888 0 15.465-1.961 22.045-5.432A12 12 0 0 0 232 204a12 12 0 0 0 12-12v-68c0-22.875-20.653-40-44-40zm-120 .182L106.268 140H53.732zM200 148c11.998 0 20 7.948 20 16s-8.002 16-20 16-20-7.948-20-16 8.002-16 20-16z"/></svg>