<svg xmlns="http://www.w3.org/2000/svg" viewBox="0 0 256 256"><path d="M120 8C98.003 8 80 26.003 80 48v86.26c-20.354 16.394-28.977 43.645-21.062 68.861C67.302 229.77 92.07 247.95 120 247.95c27.93 0 52.698-18.18 61.063-44.828 7.914-25.216-.709-52.467-21.063-68.861V48c0-21.997-18.003-40-40-40zm0 16c13.35 0 24 10.65 24 24v90a8 8 0 0 0 3.428 6.564 47.94 47.94 0 0 1 18.369 53.764A47.94 47.94 0 0 1 120 231.95a47.94 47.94 0 0 1-45.797-33.62 47.94 47.94 0 0 1 18.37-53.765A8 8 0 0 0 96 138V48c0-13.35 10.65-24 24-24zm0 16a8 8 0 0 0-8 8v105.023C98.25 156.606 88 169.181 88 184c0 17.578 14.422 32 32 32s32-14.422 32-32c0-14.819-10.25-27.394-24-30.977V48a8 8 0 0 0-8-8zm77.523 24.01c-5.593.01-11.808 1.726-17.888 5.685a8 8 0 0 0-2.338 11.07 8 8 0 0 0 11.068 2.339c4.506-2.935 7.245-3.305 10.14-3.055 2.897.25 6.218 1.543 10.354 3.308 4.137 1.765 9.088 4.003 15.26 4.536s13.297-1.063 20.246-5.588a8 8 0 0 0 2.338-11.07 8 8 0 0 0-11.068-2.339c-4.506 2.935-7.245 3.305-10.14 3.055-2.897-.25-6.218-1.543-10.354-3.308-4.137-1.765-9.088-4.003-15.26-4.536a27 27 0 0 0-2.358-.097zm0 32c-5.593.01-11.808 1.726-17.888 5.685a8 8 0 0 0-2.338 11.07 8 8 0 0 0 11.068 2.339c4.506-2.935 7.245-3.305 10.14-3.055 2.897.25 6.218 1.543 10.354 3.308 4.137 1.765 9.088 4.003 15.26 4.536s13.297-1.063 20.246-5.588a8 8 0 0 0 2.338-11.07 8 8 0 0 0-11.068-2.339c-4.506 2.935-7.245 3.305-10.14 3.055-2.897-.25-6.218-1.543-10.354-3.308-4.137-1.765-9.088-4.003-15.26-4.536a27 27 0 0 0-2.358-.097zM120 168c8.931 0 16 7.069 16 16s-7.069 16-16 16-16-7.069-16-16 7.069-16 16-16z"/></svg>