<svg xmlns="http://www.w3.org/2000/svg" viewBox="0 0 256 256"><path d="M108 4C79.423 4 56 27.423 56 56v94.97c-13.303 18.698-15.786 43.23-5.936 64.218 10.532 22.437 33.15 36.806 57.936 36.806s47.404-14.369 57.936-36.806c9.85-20.988 7.367-45.52-5.936-64.217V56c0-28.577-23.423-52-52-52zm0 24c15.606 0 28 12.394 28 28v98.77a12 12 0 0 0 2.77 7.667 39.94 39.94 0 0 1 5.44 42.553A39.94 39.94 0 0 1 108 227.994a39.94 39.94 0 0 1-36.21-23.004 39.94 39.94 0 0 1 5.44-42.553l-21.203-7.658H80V56c0-15.606 12.394-28 28-28zm104 8a12 12 0 0 0-12 12v15.482l-14.72-4.785a12 12 0 0 0-15.122 7.703 12 12 0 0 0 7.703 15.121l14.723 4.786-9.102 12.529a12 12 0 0 0 2.655 16.762 12 12 0 0 0 16.761-2.655L212 100.416l9.102 12.527a12 12 0 0 0 16.761 2.655 12 12 0 0 0 2.655-16.762l-9.104-12.53 14.725-4.785a12 12 0 0 0 7.703-15.12 12 12 0 0 0-15.121-7.704L224 63.482V48a12 12 0 0 0-12-12zm-104 84a12 12 0 0 0-12 12v35.277A24 24 0 0 0 84 188a24 24 0 0 0 24 24 24 24 0 0 0 24-24 24 24 0 0 0-12-20.777V132a12 12 0 0 0-12-12z"/></svg>