<svg xmlns="http://www.w3.org/2000/svg" viewBox="0 0 256 256"><path d="M120 12a12 12 0 0 0-10.732 6.633L72.584 92H32c-10.904 0-20 9.096-20 20v88c0 10.904 9.096 20 20 20h172.004c14.013-.004 26.02-10.597 27.771-24.5l.002-.012L243.775 99.5c2.08-16.512-11.128-31.495-27.771-31.5H164V56c0-24.158-19.842-44-44-44zm6.8 25.232C134.543 39.977 140 47.222 140 56v24a12 12 0 0 0 12 12h64c2.612.003 4.291 1.908 3.965 4.5l-.002.012-11.998 95.99c-.265 2.092-1.86 3.497-3.969 3.498H92v-89.168zM36 116h32v80H36z"/></svg>