<svg xmlns="http://www.w3.org/2000/svg" viewBox="0 0 256 256"><path d="M32 48c-8.742 0-16 7.258-16 16v32a8 8 0 0 0 8 8c13.35 0 24 10.65 24 24s-10.65 24-24 24a8 8 0 0 0-8 8v32c0 8.742 7.258 16 16 16h192c8.742 0 16-7.258 16-16v-32a8 8 0 0 0-8-8c-13.35 0-24-10.65-24-24s10.65-24 24-24a8 8 0 0 0 8-8V64c0-8.742-7.258-16-16-16zm0 16h56v128H32v-24.812c18.199-3.734 32-19.929 32-39.188S50.199 92.546 32 88.813zm72 0h120v24.813c-18.199 3.733-32 19.928-32 39.187 0 19.26 13.801 35.454 32 39.188V192H104z"/></svg>