<svg xmlns="http://www.w3.org/2000/svg" viewBox="0 0 256 256"><path d="M80.992 61.25a8 8 0 0 0-4.702-1.53H19.72a8 8 0 0 0-8 8v56.57a8 8 0 0 0 8 8l48.565-.001v40.567H19.72a8 8 0 0 0-8 8l-.002 56.568a8 8 0 0 0 8 8h56.569a8 8 0 0 0 8-8V188.86h40.568l-.002 48.565a8 8 0 0 0 8.001 8h56.569a8 8 0 0 0 7.999-7.999v-56.568a8 8 0 0 0-8-8h-48.566V124.29a8 8 0 0 0-8-8l-48.566.001V67.72a8 8 0 0 0-3.298-6.47zM68.29 75.72v40.57l-40.569-.001V75.72zm56.567 56.57v40.567l-40.569.002v-40.57zm56.566 56.568v40.568h-40.567l-.002-40.569zm-113.134-.002-.002 40.569H27.72l-.002-40.57z" transform="rotate(-45 48.003 95.996)"/></svg>