<svg xmlns="http://www.w3.org/2000/svg" viewBox="0 0 256 256"><path d="M128 16a8 8 0 0 0-8 8v132c-.01 16.175-17.025 25.538-30.693 16.889-13.67-8.65-12.496-28.038 2.12-34.971A8 8 0 0 0 96 130.689V88a8 8 0 0 0-9.402-7.877C50.84 86.493 24 118.688 24 156c0 41.879 34.121 76 76 76s76-34.121 76-76v-39.754c14.766 7.692 31.221 11.786 48.016 11.754a8 8 0 0 0 7.984-8V80a8 8 0 0 0-8-8c-26.604 0-48-21.396-48-48a8 8 0 0 0-8-8zm8 16h24.559c3.634 28.863 26.578 51.807 55.441 55.441v24.172c-15.578-1.397-30.553-6.911-43.326-16.105A8 8 0 0 0 160 102v54c0 33.232-26.768 60-60 60s-60-26.768-60-60c0-26.173 16.826-49.112 40-57.53v27.593c-20.837 13.922-21.339 46.37.752 60.347 23.607 14.938 55.236-2.469 55.248-30.406z"/></svg>