<svg xmlns="http://www.w3.org/2000/svg" viewBox="0 0 256 256"><path d="M82.559 92.057c-16.843.01-34.88 9.662-51.91 30.843a12 12 0 0 0 1.831 16.871 12 12 0 0 0 16.872-1.832c16.537-20.568 26.756-23.215 36.449-21.62s21.62 10.397 34.62 20.986c13 10.588 27.072 22.964 45.88 26.058 18.807 3.095 39.588-6.056 59.05-30.263a12 12 0 0 0-1.831-16.871 12 12 0 0 0-16.872 1.832c-16.537 20.568-26.756 23.215-36.449 21.62s-21.62-10.397-34.62-20.986c-13-10.588-27.072-22.964-45.88-26.058a44 44 0 0 0-7.14-.58z"/></svg>