<svg xmlns="http://www.w3.org/2000/svg" viewBox="0 0 256 256"><path d="M88 12c-10.904 0-20 9.096-20 20v17.72C49.607 54.993 36 71.992 36 92v108c0 24.168 19.832 44 44 44h96c24.168 0 44-19.832 44-44V92c0-20.009-13.607-37.008-32-42.28V32c0-10.904-9.096-20-20-20zm4 24h24v12H92zm48 0h24v12h-24zM80 72h96c11.288 0 20 8.712 20 20v108c0 11.288-8.712 20-20 20H80c-11.288 0-20-8.712-20-20V92c0-11.288 8.712-20 20-20zm48 12a12 12 0 0 0-12 12v.076c-15.513 1.049-28 14.17-28 29.924 0 16.426 13.574 30 30 30h20c3.456 0 6 2.544 6 6s-2.544 6-6 6h-30a12 12 0 0 0-12 12 12 12 0 0 0 12 12h8v4a12 12 0 0 0 12 12 12 12 0 0 0 12-12v-4.076c15.513-1.049 28-14.17 28-29.924 0-16.426-13.574-30-30-30h-20c-3.456 0-6-2.544-6-6s2.544-6 6-6h30a12 12 0 0 0 12-12 12 12 0 0 0-12-12h-8a12 12 0 0 0-12-12z"/></svg>