<svg xmlns="http://www.w3.org/2000/svg" viewBox="0 0 256 256"><path d="M154.11 4.186a12 12 0 0 0-12.217 5.345L128 31.238 114.107 9.531a12 12 0 0 0-7.535-5.252 12 12 0 0 0-9.04 1.614 12 12 0 0 0-3.64 16.576l19.86 31.031-99.86 156.031A12.001 12.001 0 0 0 24 228h208a12.001 12.001 0 0 0 10.107-18.469L142.248 53.5l19.86-31.031a12 12 0 0 0-3.64-16.576 12 12 0 0 0-4.359-1.707zM128 75.762 210.072 204h-21.744l-50.22-78.469a12 12 0 0 0-14.04-4.867 12 12 0 0 0-6.175 4.867L67.672 204H45.928zm0 78.5L159.832 204H96.168z"/></svg>