<svg xmlns="http://www.w3.org/2000/svg" viewBox="0 0 256 256"><path d="M92 20c-20.349 0-36.695 14.788-47.322 34.41S28 99.743 28 128c0 18.673 2.69 36.186 7.549 51.613a12 12 0 0 0 .137.41c2.47 7.76 5.45 15.028 8.992 21.567C55.305 221.212 71.65 236 92 236h140a12 12 0 0 0 12-12 12 12 0 0 0-12-12h-27.209a93 93 0 0 0 6.53-10.402C221.947 181.978 228 156.266 228 128s-6.052-53.977-16.68-73.598C200.693 34.782 184.346 20 164 20zm0 24h31.209a93 93 0 0 0-6.53 10.402c-5.643 10.42-9.982 22.568-12.824 35.893l-16.88-12.059A12 12 0 0 0 80 76a12 12 0 0 0-6.975 2.234L56.711 89.887c2.35-9.135 5.43-17.327 9.07-24.047C73.974 50.712 83.63 44 92 44zm72 0c8.373 0 18.026 6.71 26.219 21.834C198.41 80.959 204 103.247 204 128s-5.589 47.041-13.781 62.166S172.373 212 164 212s-18.026-6.71-26.219-21.834C129.59 175.041 124 152.753 124 128s5.589-47.041 13.781-62.166S155.627 44 164 44zm4 44a16 40 0 0 0-16 40 16 40 0 0 0 16 40 16 40 0 0 0 16-40 16 40 0 0 0-16-40zm-88 14.748 20.3 14.5A194 194 0 0 0 100 128c0 8.493.557 16.75 1.61 24.686l-14.635-10.452A12 12 0 0 0 80 140a12 12 0 0 0-6.975 2.236l-18.627 13.307A158.7 158.7 0 0 1 52 128c0-1.81.092-3.577.15-5.36zm0 63.998 30.703 21.926c1.792 4.543 3.78 8.871 5.977 12.926A93 93 0 0 0 123.209 212H92c-8.371 0-18.026-6.712-26.219-21.84-1.643-3.035-3.146-6.428-4.556-10.002z"/></svg>