<svg xmlns="http://www.w3.org/2000/svg" viewBox="0 0 256 256"><path d="M128.008 8.055c-4.258 0-8.516 1.598-11.711 4.793L12.854 116.29c-6.39 6.39-6.39 17.029 0 23.418l103.443 103.443c6.39 6.39 17.03 6.392 23.42.002L243.16 139.711c6.39-6.39 6.39-17.033 0-23.422L139.717 12.846c-3.195-3.195-7.452-4.792-11.71-4.791zm0 15.869c.118 0 .236.078.394.236l103.444 103.444c.317.317.317.475 0 .792L128.402 231.84c-.317.317-.473.315-.79-.002L24.167 128.395c-.317-.318-.317-.472 0-.79L127.611 24.162c.159-.159.278-.238.397-.238zM144 88a8 8 0 0 0-5.656 2.344 8 8 0 0 0 0 11.312L148.688 112H112c-17.578 0-32 14.422-32 32v8a8 8 0 0 0 8 8 8 8 0 0 0 8-8v-8c0-8.931 7.069-16 16-16h36.688l-10.344 10.344a8 8 0 0 0 0 11.312 8 8 0 0 0 11.312 0l24-24a8 8 0 0 0 .781-.918l.051-.068a8 8 0 0 0 1.094-2.145l.037-.117a8 8 0 0 0 .38-2.39L176 120l-.01-.209a8 8 0 0 0-.03-.545 8 8 0 0 0-.042-.324 8 8 0 0 0-.072-.453 8 8 0 0 0-.069-.31 8 8 0 0 0-.115-.43 8 8 0 0 0-.111-.352 8 8 0 0 0-.153-.4 8 8 0 0 0-.123-.295 8 8 0 0 0-.347-.682 8 8 0 0 0-.41-.633 8 8 0 0 0-.202-.263 8 8 0 0 0-.28-.346 8 8 0 0 0-.23-.25l-.15-.164-24-24A8 8 0 0 0 144 88z"/></svg>