<svg xmlns="http://www.w3.org/2000/svg" viewBox="0 0 256 256"><path d="M96 24a8 8 0 0 0-8 8v16H32a8 8 0 0 0-8 8 8 8 0 0 0 8 8h87.623c-1.816 20.254-10.456 38.493-23.615 52.43a87.9 87.9 0 0 1-18.996-31.096 8 8 0 0 0-10.21-4.877 8 8 0 0 0-4.874 10.209 103.7 103.7 0 0 0 22.103 36.35C69.468 137.69 51.491 144 32 144a8 8 0 0 0-8 8 8 8 0 0 0 8 8c24.102 0 46.298-8.266 63.953-22.08 14.702 11.486 32.436 19.007 51.483 21.318l-26.592 53.184a8 8 0 0 0 3.578 10.734 8 8 0 0 0 10.734-3.578L148.946 192h70.109l13.789 27.578a8 8 0 0 0 10.734 3.578 8 8 0 0 0 3.578-10.734l-56-112a8 8 0 0 0-10.04-3.883 8 8 0 0 0-4.272 3.883l-21.715 43.428a87.85 87.85 0 0 1-47.195-16.895c15.68-16.77 25.873-38.709 27.728-62.955H160a8 8 0 0 0 8-8 8 8 0 0 0-8-8h-56V32a8 8 0 0 0-8-8zm88 97.89L211.055 176h-54.11z"/></svg>