<svg xmlns="http://www.w3.org/2000/svg" viewBox="0 0 256 256"><path d="M48 32c-8.726 0-16 7.274-16 16v160c0 8.726 7.274 16 16 16h160c8.726 0 16-7.274 16-16V48c0-8.726-7.274-16-16-16zm0 16h160v104h-28.693a16 16 0 0 0-11.301 4.68l-.002.004L148.686 176H107.31l-19.315-19.316-.002-.004a16.01 16.01 0 0 0-11.3-4.68H48zm80 16a8 8 0 0 0-8 8v60.688l-18.344-18.344A8 8 0 0 0 96 112a8 8 0 0 0-5.656 2.344 8 8 0 0 0 0 11.312l32 32a8 8 0 0 0 3.586 2.07A8 8 0 0 0 128 160a8 8 0 0 0 2.07-.273 8 8 0 0 0 3.586-2.07l32-32a8 8 0 0 0 0-11.313 8 8 0 0 0-11.312 0L136 132.688V72a8 8 0 0 0-8-8zM48 168h28.689l19.315 19.316.002.004a16 16 0 0 0 11.3 4.68h41.387a16 16 0 0 0 11.301-4.68l.002-.004L179.311 168H208v40H48z"/></svg>