<svg xmlns="http://www.w3.org/2000/svg" viewBox="0 0 256 256"><path d="M160 32c-8.726 0-16 7.274-16 16v16h-16c-13.16 0-24 10.84-24 24v32H72v-8c0-8.726-7.274-16-16-16H24c-8.726 0-16 7.274-16 16v32c0 8.726 7.274 16 16 16h32c8.726 0 16-7.274 16-16v-8h32v32c0 13.16 10.84 24 24 24h16v16c0 8.726 7.274 16 16 16h48c8.726 0 16-7.274 16-16v-48c0-8.726-7.274-16-16-16h-48c-8.726 0-16 7.274-16 16v16h-16c-4.513 0-8-3.487-8-8V88c0-4.513 3.487-8 8-8h16v16c0 8.726 7.274 16 16 16h48c8.726 0 16-7.274 16-16V48c0-8.726-7.274-16-16-16zm0 16h48v48h-48zM24 112h32v32H24zm136 48h48v48h-48z"/></svg>