<svg xmlns="http://www.w3.org/2000/svg" viewBox="0 0 256 256"><path d="M128 24.14c-8.365 0-16.73 4.035-21.352 12.104L92.96 60.006a8 8 0 0 0 2.937 10.926 8 8 0 0 0 10.926-2.938l13.7-23.781.01-.018a8.543 8.543 0 0 1 14.937 0l.01.018 13.699 23.781a8 8 0 0 0 10.926 2.938 8 8 0 0 0 2.937-10.926l-13.69-23.762c-4.62-8.07-12.986-12.103-21.351-12.103zM76.328 96.019a8 8 0 0 0-1.547.257 8 8 0 0 0-4.853 3.733l-23.04 40a8 8 0 0 0 2.938 10.924 8 8 0 0 0 10.926-2.94l23.041-40a8 8 0 0 0-2.94-10.924 8 8 0 0 0-4.525-1.05zm103.344 0a8 8 0 0 0-4.526 1.05 8 8 0 0 0-2.939 10.924l23.041 40a8 8 0 0 0 10.926 2.94 8 8 0 0 0 2.937-10.924l-23.039-40a8 8 0 0 0-4.853-3.733 8 8 0 0 0-1.547-.257zM30.782 176a8 8 0 0 0-2.071.275 8 8 0 0 0-4.854 3.733l-4.66 8.09-.01.015C10.169 203.857 22.338 224 40.54 224H64a8 8 0 0 0 8-8 8 8 0 0 0-8-8H40.54c-7.038 0-10.707-6.275-7.468-11.932v-.002l4.65-8.074a8 8 0 0 0-2.939-10.924A8 8 0 0 0 30.781 176zm194.437 0a8 8 0 0 0-4.002 1.068 8 8 0 0 0-2.94 10.924l4.65 8.076c3.24 5.657-.43 11.932-7.466 11.932H192a8 8 0 0 0-8 8 8 8 0 0 0 8 8h23.46c18.204 0 30.372-20.144 21.352-35.887l-.01-.015-4.66-8.09a8 8 0 0 0-4.853-3.733 8 8 0 0 0-2.07-.275zM104 208a8 8 0 0 0-8 8 8 8 0 0 0 8 8h48a8 8 0 0 0 8-8 8 8 0 0 0-8-8z"/></svg>