<svg xmlns="http://www.w3.org/2000/svg" viewBox="0 0 256 256"><path d="M32 56c-8.742 0-16 7.258-16 16v112c0 8.742 7.258 16 16 16h17.023c3.583 13.75 16.158 24 30.977 24s27.394-10.25 30.977-24h50.046c3.583 13.75 16.158 24 30.977 24s27.394-10.25 30.977-24H240c8.742 0 16-7.258 16-16v-64l-.004-.03a8 8 0 0 0-.383-2.4l-.031-.091a8 8 0 0 0-.154-.45l-14-35-.012-.029c-2.437-6.023-8.339-10.001-14.836-10H192v-8a8 8 0 0 0-8-8zm0 16h144v64H32zm160 16h34.584l9.6 24H192zm0 40h48v56h-17.023c-3.583-13.75-16.158-24-30.977-24v-32zM32 152h144v12.336c-7.3 4.256-12.8 11.311-14.977 19.664h-50.046c-3.583-13.75-16.158-24-30.977-24s-27.394 10.25-30.977 24H32zm48 24c8.931 0 16 7.069 16 16s-7.069 16-16 16-16-7.069-16-16 7.069-16 16-16zm112 0c8.931 0 16 7.069 16 16s-7.069 16-16 16-16-7.069-16-16 7.069-16 16-16z"/></svg>