<svg xmlns="http://www.w3.org/2000/svg" viewBox="0 0 256 256"><path d="M164 36c-10.904 0-20 9.096-20 20v116h-16V72a12 12 0 0 0-12-12H20C9.096 60 0 69.096 0 80v104c0 19.74 16.26 36 36 36 9.183 0 17.61-3.522 24-9.273 6.39 5.75 14.817 9.273 24 9.273 15.54 0 28.917-10.08 33.908-24h68.184c4.991 13.92 18.368 24 33.908 24 19.74 0 36-16.26 36-36v-48c0-20.016-13.699-36.88-32.11-42.14C222.745 61.852 196.274 36 164 36zm4 24.396c18.083 1.988 32 16.952 32 35.604v8a12 12 0 0 0 12 12c11.188 0 20 8.812 20 20v14.092A35.5 35.5 0 0 0 220 148c-15.54 0-28.917 10.08-33.908 24H168zM24 84h80v70.143C98.263 150.27 91.374 148 84 148c-9.183 0-17.61 3.522-24 9.273-6.39-5.75-14.817-9.273-24-9.273-4.2 0-8.238.743-12 2.092zm12 88c6.77 0 12 5.23 12 12s-5.23 12-12 12-12-5.23-12-12 5.23-12 12-12zm48 0c6.77 0 12 5.23 12 12s-5.23 12-12 12-12-5.23-12-12 5.23-12 12-12zm136 0c6.77 0 12 5.23 12 12s-5.23 12-12 12-12-5.23-12-12 5.23-12 12-12z"/></svg>