<svg xmlns="http://www.w3.org/2000/svg" viewBox="0 0 256 256"><path d="M112 12a12 12 0 0 0-12 12c0 20.024-15.976 36-36 36a12 12 0 0 0-12 12v40a12 12 0 0 0 12 12h20v52c0 37.413 30.587 68 68 68h40a12 12 0 0 0 12-12v-48a12 12 0 0 0-12-12h-32c-2.351 0-4-1.649-4-4v-44h36a12 12 0 0 0 12-12V72a12 12 0 0 0-12-12h-36V24a12 12 0 0 0-12-12zm10.783 24H132v36a12 12 0 0 0 12 12h36v16h-36a12 12 0 0 0-12 12v56c0 15.322 12.678 28 28 28h20v24h-28c-24.443 0-44-19.557-44-44v-64a12 12 0 0 0-12-12H76V82.783C99.417 77.98 117.979 59.417 122.783 36z"/></svg>