<svg xmlns="http://www.w3.org/2000/svg" viewBox="0 0 256 256"><path d="M48 32c-8.742 0-16 7.258-16 16v144c0 8.742 7.258 16 16 16h16v32a8 8 0 0 0 13.121 6.146L122.896 208h42.208a16.06 16.06 0 0 0 10.228-3.69l.02-.015 42.888-35.748.002-.002A16.02 16.02 0 0 0 224 156.246V48c0-8.742-7.258-16-16-16zm0 16h160v108.254h-.002l-42.871 35.734h-.002q-.012.011-.03.012H120a8 8 0 0 0-5.121 1.854L80 222.92V200a8 8 0 0 0-8-8H48zm72 32a8 8 0 0 0-8 8v48a8 8 0 0 0 8 8 8 8 0 0 0 8-8V88a8 8 0 0 0-8-8zm48 0a8 8 0 0 0-8 8v48a8 8 0 0 0 8 8 8 8 0 0 0 8-8V88a8 8 0 0 0-8-8z"/></svg>