<svg xmlns="http://www.w3.org/2000/svg" viewBox="0 0 256 256"><path d="M168.094 40C141.614 39.677 120 61.638 120 88v6.041C80.003 83.393 46.46 50.367 46.46 50.367a8 8 0 0 0-13.647 4.914c-4.122 45.738 8.266 77.842 21.968 98.188 7.912 11.748 16.075 19.35 21.856 24.013C61.575 194.697 37.19 204.51 37.19 204.51a8 8 0 0 0-3.847 11.928s1.279 1.786 3.054 3.384c1.776 1.598 4.388 3.516 8.024 5.334C51.694 228.792 63 232 80 232c71.004 0 129.547-54.83 135.627-124.314l30.03-30.03A8 8 0 0 0 240 64h-30.584c-8.593-14.543-24.18-23.8-41.318-24zm-.192 16h.004a32.7 32.7 0 0 1 29.47 19.287A8 8 0 0 0 204.671 80h16.018l-18.344 18.344a8 8 0 0 0-2.328 5.146C196.02 166.172 143.746 216 80 216c-10.633 0-17.974-1.421-23.104-3.08 11.417-6.134 27.214-16.663 37.76-32.482a8 8 0 0 0-2.64-11.358s-12.075-6.894-23.965-24.549c-10.272-15.25-19.996-38.197-20.012-71.392 15.828 12.988 44.724 33.046 78.635 38.75A8 8 0 0 0 136 104V88c0-17.636 14.384-32.215 31.902-32z"/></svg>