<svg xmlns="http://www.w3.org/2000/svg" viewBox="0 0 256 256"><path d="M48 28c-10.904 0-20 9.096-20 20v144c0 10.904 9.096 20 20 20h12v28a12.001 12.001 0 0 0 19.682 9.219L124.344 212h40.763a20.06 20.06 0 0 0 12.778-4.607l.03-.026 42.888-35.75a20.02 20.02 0 0 0 7.197-15.37V48c0-10.904-9.096-20-20-20zm4 24h152v102.379L163.664 188H120a12 12 0 0 0-7.682 2.781L84 214.38V200a12 12 0 0 0-12-12H52zm68 24a12 12 0 0 0-12 12v48a12 12 0 0 0 12 12 12 12 0 0 0 12-12V88a12 12 0 0 0-12-12zm48 0a12 12 0 0 0-12 12v48a12 12 0 0 0 12 12 12 12 0 0 0 12-12V88a12 12 0 0 0-12-12z"/></svg>