<svg xmlns="http://www.w3.org/2000/svg" viewBox="0 0 256 256"><path d="M127.252 23.967c-32.602.25-64.014 15.859-83.752 43.369A8 8 0 0 0 45.336 78.5 8 8 0 0 0 56.5 76.664c22.303-31.085 62.042-44.19 98.46-32.469 36.42 11.721 61.054 45.543 61.04 83.801v4.692l-10.344-10.344A8 8 0 0 0 200 120a8 8 0 0 0-5.656 2.344 8 8 0 0 0 0 11.312l24 24a8 8 0 0 0 2.304 1.54 8 8 0 0 0 .635.263 8 8 0 0 0 2.688.535L224 160l.03-.006a8 8 0 0 0 2.687-.535 8 8 0 0 0 .635-.264 8 8 0 0 0 2.304-1.539l24-24a8 8 0 0 0 0-11.312 8 8 0 0 0-11.312 0L232 132.688V128c.015-45.143-29.166-85.205-72.139-99.035a103.8 103.8 0 0 0-32.609-4.998zM128 72c-26.415 0-48 21.585-48 48 0 15.24 7.194 28.86 18.346 37.666a80.07 80.07 0 0 0-36.145 28.8C48.23 170.73 39.991 150.114 40 128.005v-4.691l10.344 10.343a8 8 0 0 0 11.312 0 8 8 0 0 0 0-11.312l-24-24a8 8 0 0 0-1.502-1.153 8 8 0 0 0-.275-.17 8 8 0 0 0-1.69-.699 8 8 0 0 0-.31-.074A8 8 0 0 0 32 96a8 8 0 0 0-2.717.541 8 8 0 0 0-.635.264 8 8 0 0 0-2.304 1.539l-24 24a8 8 0 0 0 0 11.312 8 8 0 0 0 11.312 0L24 123.312V128c-.015 45.143 29.166 85.205 72.139 99.035s90.043-1.69 116.361-38.37a8 8 0 0 0-1.836-11.165 8 8 0 0 0-11.164 1.836 89 89 0 0 1-5.709 7.121 80.07 80.07 0 0 0-36.137-28.791C168.806 148.859 176 135.239 176 120c0-26.415-21.585-48-48-48zm0 16a31.88 31.88 0 0 1 32 32 31.87 31.87 0 0 1-31.12 31.979c-.293-.004-.586-.016-.88-.016s-.587.012-.88.016A31.87 31.87 0 0 1 96 120a31.88 31.88 0 0 1 32-32zm-.87 79.979c.291.005.578.021.87.021s.579-.016.87-.021a63.95 63.95 0 0 1 53.087 29.576c-22.544 17.508-52.723 23.324-80.918 14.25a87.9 87.9 0 0 1-26.998-14.248 63.95 63.95 0 0 1 53.09-29.578z"/></svg>