<svg xmlns="http://www.w3.org/2000/svg" viewBox="0 0 256 256"><path d="M108 36c-39.622 0-72 32.378-72 72 0 22.895 10.823 43.356 27.596 56.564-19.072 7.674-35.653 20.095-48.782 35.715a12 12 0 0 0 1.465 16.907 12 12 0 0 0 16.907-1.465C51.769 193.61 77.172 180 108 180s56.231 13.61 74.814 35.72a12 12 0 0 0 16.907 1.466 12 12 0 0 0 1.465-16.907c-13.129-15.62-29.71-28.041-48.782-35.715C169.177 151.356 180 130.895 180 108c0-39.622-32.378-72-72-72zm122.795 8.086a12 12 0 0 0-6.149.879 12 12 0 0 0-6.322 15.748 120.38 120.38 0 0 1 0 94.574 12 12 0 0 0 6.322 15.748 12 12 0 0 0 15.75-6.322 144.4 144.4 0 0 0 0-113.426 12 12 0 0 0-6.566-6.424 12 12 0 0 0-3.035-.777zm-33.44 13.56a12 12 0 0 0-6.144.92 12 12 0 0 0-6.215 15.793 84.28 84.28 0 0 1 0 67.282 12 12 0 0 0 6.215 15.793 12 12 0 0 0 15.793-6.215 108.32 108.32 0 0 0 0-86.438 12 12 0 0 0-6.61-6.377 12 12 0 0 0-3.039-.758zM108 60a47.82 47.82 0 0 1 48 48 47.82 47.82 0 0 1-48 48 47.82 47.82 0 0 1-48-48 47.82 47.82 0 0 1 48-48z"/></svg>