<svg xmlns="http://www.w3.org/2000/svg" viewBox="0 0 256 256"><path d="M128 20C68.496 20 20 68.496 20 128c0 31.46 13.562 59.836 35.133 79.602a12 12 0 0 0 .691.627C74.974 225.476 100.29 236 128 236c27.171 0 52.028-10.133 71.04-26.787a12 12 0 0 0 2.161-1.93C222.575 187.532 236 159.294 236 128c0-59.504-48.495-108-108-108zm0 24c46.534 0 84 37.466 84 84 0 19.69-6.726 37.742-17.99 52.033a84.1 84.1 0 0 0-29.108-23.512C174.22 147.11 180 134.192 180 120c0-28.577-23.423-52-52-52s-52 23.423-52 52c0 14.192 5.781 27.11 15.098 36.521a84.1 84.1 0 0 0-29.108 23.512C50.726 165.742 44 147.69 44 128c0-46.534 37.466-84 84-84zm0 48c15.606 0 28 12.394 28 28 0 15.42-12.105 27.68-27.447 27.973-.185-.002-.368-.01-.553-.01s-.368.008-.553.01C112.105 147.68 100 135.419 100 120c0-15.606 12.394-28 28-28zm-.613 79.984c.205.003.407.016.613.016s.408-.013.613-.016a59.9 59.9 0 0 1 47.87 24.674C162.8 206.317 146.092 212 128 212s-34.8-5.683-48.482-15.342a59.9 59.9 0 0 1 47.869-24.674z"/></svg>