<svg xmlns="http://www.w3.org/2000/svg" viewBox="0 0 256 256"><path d="M128 24c-39.67 0-72 32.33-72 72 0 26.244 14.155 49.266 35.219 61.85-28.141 9.234-51.467 28.783-66.143 54.142a8 8 0 0 0 2.916 10.932 8 8 0 0 0 10.932-2.916C56.97 188.825 89.449 168 128 168s71.03 20.825 89.076 52.008a8 8 0 0 0 10.932 2.916 8 8 0 0 0 2.916-10.932c-14.676-25.359-38.002-44.908-66.143-54.142C185.845 145.266 200 122.244 200 96c0-39.67-32.33-72-72-72zm0 16c31.023 0 56 24.977 56 56s-24.977 56-56 56-56-24.977-56-56 24.977-56 56-56z"/></svg>