<svg xmlns="http://www.w3.org/2000/svg" viewBox="0 0 256 256"><path d="M80 52c-28.577 0-52 23.423-52 52 0 14.39 5.943 27.469 15.488 36.912-18.99 9.808-33.685 27.011-39.11 48.098a12 12 0 0 0 8.632 14.611 12 12 0 0 0 14.611-8.63C33.242 173.138 55.653 156 80 156s46.758 17.139 52.379 38.99a12 12 0 0 0 14.611 8.631 12 12 0 0 0 8.631-14.611c-5.424-21.087-20.119-38.29-39.11-48.098C126.058 131.47 132 118.39 132 104c0-28.577-23.423-52-52-52zm84 16a12 12 0 0 0-12 12 12 12 0 0 0 12 12h80a12 12 0 0 0 12-12 12 12 0 0 0-12-12zm-84 8c15.606 0 28 12.394 28 28s-12.394 28-28 28-28-12.394-28-28 12.394-28 28-28zm84 40a12 12 0 0 0-12 12 12 12 0 0 0 12 12h80a12 12 0 0 0 12-12 12 12 0 0 0-12-12zm24 48a12 12 0 0 0-12 12 12 12 0 0 0 12 12h56a12 12 0 0 0 12-12 12 12 0 0 0-12-12z"/></svg>