<svg xmlns="http://www.w3.org/2000/svg" viewBox="0 0 256 256"><path d="M108 32c-37.46 0-68 30.54-68 68 0 24.298 12.857 45.672 32.11 57.701-21.41 7.004-39.89 20.085-54.235 37.153a8 8 0 0 0 .979 11.271 8 8 0 0 0 11.271-.979C49.364 182.256 75.968 168 108 168s58.636 14.256 77.875 37.146a8 8 0 0 0 11.271.979 8 8 0 0 0 .979-11.271c-14.345-17.068-32.825-30.149-54.234-37.153C163.143 145.672 176 124.298 176 100c0-37.46-30.54-68-68-68zm0 16c28.814 0 52 23.186 52 52s-23.186 52-52 52-52-23.186-52-52 23.186-52 52-52zm116 52a8 8 0 0 0-8 8v5.395a24.1 24.1 0 0 0-7.547 4.394l-4.703-2.717a8 8 0 0 0-6.07-.8 8 8 0 0 0-4.858 3.728 8 8 0 0 0 2.928 10.928l4.664 2.693A23.7 23.7 0 0 0 200 136a23.7 23.7 0 0 0 .414 4.379l-4.664 2.693A8 8 0 0 0 192.822 154a8 8 0 0 0 10.928 2.928l4.703-2.717a24.1 24.1 0 0 0 7.547 4.394V164a8 8 0 0 0 8 8 8 8 0 0 0 8-8v-5.395a24.1 24.1 0 0 0 7.547-4.394l4.703 2.717A8 8 0 0 0 255.178 154a8 8 0 0 0-2.928-10.928l-4.664-2.693A23.7 23.7 0 0 0 248 136a23.7 23.7 0 0 0-.414-4.379l4.664-2.693A8 8 0 0 0 255.178 118a8 8 0 0 0-4.858-3.729 8 8 0 0 0-6.07.801l-4.703 2.717a24.1 24.1 0 0 0-7.547-4.394V108a8 8 0 0 0-8-8zm0 28c2.93 0 5.419 1.475 6.81 3.74a8 8 0 0 0 .122.26 8 8 0 0 0 .162.232A8.15 8.15 0 0 1 232 136c0 1.37-.325 2.642-.898 3.754a8 8 0 0 0-.17.246 8 8 0 0 0-.121.26c-1.392 2.265-3.882 3.74-6.811 3.74-2.834 0-5.26-1.377-6.676-3.518a8 8 0 0 0-.256-.482 8 8 0 0 0-.17-.246A8.15 8.15 0 0 1 216 136c0-1.375.328-2.653.906-3.768a8 8 0 0 0 .162-.232 8 8 0 0 0 .256-.482c1.416-2.14 3.842-3.518 6.676-3.518z"/></svg>