<svg xmlns="http://www.w3.org/2000/svg" viewBox="0 0 256 256"><path d="M80 56c-26.415 0-48 21.585-48 48 0 15.411 7.355 29.17 18.723 37.965-20.604 8.7-36.861 26.235-42.471 48.043a8 8 0 0 0 5.756 9.74 8 8 0 0 0 9.74-5.756C29.862 170.224 53.828 152 80 152c26.171 0 50.138 18.224 56.252 41.992a8 8 0 0 0 9.74 5.756 8 8 0 0 0 5.756-9.74c-5.61-21.808-21.867-39.344-42.47-48.043C120.644 133.169 128 119.41 128 104c0-26.415-21.585-48-48-48zm0 16a31.88 31.88 0 0 1 32 32 31.88 31.88 0 0 1-32 32 31.88 31.88 0 0 1-32-32 31.88 31.88 0 0 1 32-32zm80 0a8 8 0 0 0-8 8 8 8 0 0 0 8 8h88a8 8 0 0 0 8-8 8 8 0 0 0-8-8zm0 48a8 8 0 0 0-8 8 8 8 0 0 0 8 8h88a8 8 0 0 0 8-8 8 8 0 0 0-8-8zm24 48a8 8 0 0 0-8 8 8 8 0 0 0 8 8h64a8 8 0 0 0 8-8 8 8 0 0 0-8-8z"/></svg>