<svg xmlns="http://www.w3.org/2000/svg" viewBox="0 0 256 256"><path d="M127.227 19.97C93.37 20.235 60.74 36.446 40.25 65.005a12 12 0 0 0 2.754 16.746 12 12 0 0 0 16.746-2.754 83.91 83.91 0 0 1 93.984-30.992 83.89 83.89 0 0 1 57.745 70.687A12 12 0 0 0 204 116a12 12 0 0 0-8.484 3.516 12 12 0 0 0 0 16.968l20 20 .015.012a12 12 0 0 0 3.53 2.358 12 12 0 0 0 .576.277 12 12 0 0 0 3.97.79A12 12 0 0 0 224 160a12 12 0 0 0 .393-.078 12 12 0 0 0 3.97-.791 12 12 0 0 0 .576-.277 12 12 0 0 0 3.53-2.358l.015-.012 20-20a12 12 0 0 0 0-16.968 12 12 0 0 0-16.824-.116c-3.436-43.29-32.71-80.769-74.572-94.242a107.7 107.7 0 0 0-33.861-5.187zM128 72c-26.367 0-48 21.633-48 48 0 12.539 4.899 24 12.865 32.58a76.24 76.24 0 0 0-30.095 28.39 83.83 83.83 0 0 1-18.252-43.686 12 12 0 0 0 15.966-.799 12 12 0 0 0 0-16.968l-20-20a12 12 0 0 0-1.623-1.332 12 12 0 0 0-.416-.278 12 12 0 0 0-3.853-1.6 12 12 0 0 0-.518-.1A12 12 0 0 0 32 96a12 12 0 0 0-8.484 3.516l-20 20a12 12 0 0 0 0 16.968 12 12 0 0 0 16.824.116c3.436 43.29 32.71 80.769 74.572 94.242 44.613 14.358 93.517-1.767 120.838-39.846a12 12 0 0 0-2.754-16.746 12 12 0 0 0-16.746 2.754 85 85 0 0 1-3.031 3.945 76.24 76.24 0 0 0-30.084-28.369C171.1 144 176 132.54 176 120c0-26.367-21.633-48-48-48zm0 24c13.397 0 24 10.603 24 24 0 13.133-10.198 23.555-23.22 23.96-.261-.002-.52-.015-.78-.015s-.519.013-.78.016C114.199 143.555 104 133.133 104 120c0-13.397 10.603-24 24-24zm-1.182 71.97c.394.01.786.03 1.182.03s.788-.02 1.182-.03a51.88 51.88 0 0 1 45.808 29.71 83.9 83.9 0 0 1-72.724 10.316 84.1 84.1 0 0 1-21.256-10.32 51.88 51.88 0 0 1 45.808-29.705z"/></svg>