<svg xmlns="http://www.w3.org/2000/svg" viewBox="0 0 256 256"><path d="M40 36c-10.872 0-20 9.128-20 20v144c0 10.872 9.128 20 20 20h176c10.872 0 20-9.128 20-20V56c0-10.872-9.128-20-20-20zm4 24h88v136H44v-26.225C46.606 162.254 55.042 156 64 156c9.443 0 18.311 6.93 20.375 14.98a12 12 0 0 0 14.605 8.645 12 12 0 0 0 8.645-14.605c-2.408-9.394-7.866-17.37-15.139-23.133C97.186 135.802 100 128.204 100 120c0-19.74-16.26-36-36-36-7.374 0-14.263 2.27-20 6.143zm112 0h56v56h-56zm28 12a16 16 0 0 0-16 16 16 16 0 0 0 16 16 16 16 0 0 0 16-16 16 16 0 0 0-16-16zM64 108c6.77 0 12 5.23 12 12s-5.23 12-12 12-12-5.23-12-12 5.23-12 12-12zm92 32h56v56h-56zm28 12a16 16 0 0 0-16 16 16 16 0 0 0 16 16 16 16 0 0 0 16-16 16 16 0 0 0-16-16z"/></svg>