<svg xmlns="http://www.w3.org/2000/svg" viewBox="0 0 256 256"><path d="M128 24C70.657 24 24 70.657 24 128s46.657 104 104 104 104-46.657 104-104S185.343 24 128 24zm0 16c48.696 0 88 39.304 88 88s-39.304 88-88 88-88-39.304-88-88 39.304-88 88-88zm0 16c-39.67 0-72 32.33-72 72a8 8 0 0 0 8 8 8 8 0 0 0 8-8c0-31.023 24.977-56 56-56a8 8 0 0 0 8-8 8 8 0 0 0-8-8zm0 40c-17.578 0-32 14.422-32 32s14.422 32 32 32 32-14.422 32-32-14.422-32-32-32zm0 16c8.931 0 16 7.069 16 16s-7.069 16-16 16-16-7.069-16-16 7.069-16 16-16zm64 8a8 8 0 0 0-8 8c0 31.023-24.977 56-56 56a8 8 0 0 0-8 8 8 8 0 0 0 8 8c39.67 0 72-32.33 72-72a8 8 0 0 0-8-8z"/></svg>