<svg xmlns="http://www.w3.org/2000/svg" viewBox="0 0 256 256"><path d="M84 44C37.672 44 0 81.672 0 128s37.672 84 84 84h88c46.328 0 84-37.672 84-84s-37.672-84-84-84zm0 24h88c33.447 0 60 26.552 60 60s-26.553 60-60 60H84c-33.447 0-60-26.553-60-60s26.553-60 60-60zm64 20a12 12 0 0 0-12 12v56a12 12 0 0 0 12 12 12 12 0 0 0 12-12v-4h8c.783 0 1.558-.039 2.328-.096l7.906 11.07a12 12 0 0 0 16.74 2.792 12 12 0 0 0 2.792-16.74l-5.73-8.024c4.943-5.641 7.964-13 7.964-21.002 0-17.53-14.47-32-32-32zm-78.578.084a12 12 0 0 0-6.149.887 12 12 0 0 0-6.302 15.756l24 56a12.001 12.001 0 0 0 22.058 0l24-56a12 12 0 0 0-6.302-15.756 12 12 0 0 0-15.756 6.302L92 125.54 79.03 95.273a12 12 0 0 0-6.573-6.416 12 12 0 0 0-3.035-.773zM160 112h8c4.56 0 8 3.44 8 8s-3.44 8-8 8h-8z"/></svg>