<svg xmlns="http://www.w3.org/2000/svg" viewBox="0 0 256 256"><path d="M48 32c-8.726 0-16 7.274-16 16v160c0 8.726 7.274 16 16 16h160c8.726 0 16-7.274 16-16V48c0-8.726-7.274-16-16-16zm0 16h160v160H48zm140 8a12 12 0 0 0-12 12 12 12 0 0 0 12 12 12 12 0 0 0 12-12 12 12 0 0 0-12-12zm-60 8c-35.251 0-64 28.749-64 64s28.749 64 64 64 64-28.749 64-64-28.749-64-64-64zm0 16c26.604 0 48 21.396 48 48s-21.396 48-48 48-48-21.396-48-48 21.396-48 48-48zm-8 24a8 8 0 0 0-5.656 2.344l-16 16a8 8 0 0 0 0 11.312 8 8 0 0 0 11.312 0l16-16a8 8 0 0 0 0-11.312A8 8 0 0 0 120 104zm32 8a8 8 0 0 0-5.656 2.344l-32 32a8 8 0 0 0 0 11.312 8 8 0 0 0 11.312 0l32-32a8 8 0 0 0 0-11.312A8 8 0 0 0 152 112z"/></svg>