<svg xmlns="http://www.w3.org/2000/svg" viewBox="0 0 256 256"><path d="M80.68 52.35c-10.171-.587-21.216 3.765-30.358 12.34-12.189 11.432-23.859 29.806-37.185 58.214a12 12 0 0 0 5.767 15.96 12 12 0 0 0 15.96-5.768c12.673-27.017 23.753-43.283 31.876-50.903s10.426-7.16 14.303-5.507 10.456 8.24 16.822 18.619c6.367 10.378 12.772 23.934 19.272 37.79 6.5 13.857 13.095 28.013 20.54 40.151 7.447 12.138 15.493 22.871 27.866 28.147s27.946 1.35 40.135-10.082 23.859-29.807 37.185-58.215a12 12 0 0 0-5.767-15.96 12 12 0 0 0-15.96 5.768c-12.673 27.017-23.753 43.283-31.876 50.903s-10.426 7.16-14.303 5.507-10.456-8.24-16.822-18.619c-6.367-10.378-12.772-23.934-19.272-37.79-6.5-13.857-13.095-28.013-20.54-40.151-7.447-12.138-15.493-22.871-27.866-28.147-3.093-1.318-6.387-2.062-9.777-2.257z"/></svg>