<svg xmlns="http://www.w3.org/2000/svg" viewBox="0 0 256 256"><path d="M82.451 44.03c-15.64-.006-32.777 5.972-50.11 20.341a12 12 0 0 0-1.58 16.899 12 12 0 0 0 16.897 1.578c16.192-13.424 27.64-15.823 38.783-14.6 11.145 1.223 22.832 7.238 35.832 14.297s27.313 15.16 44.668 17.064c17.356 1.905 36.909-3.558 56.717-19.98a12 12 0 0 0 1.58-16.899 12 12 0 0 0-16.896-1.578c-16.192 13.424-27.64 15.823-38.783 14.6-11.145-1.223-22.832-7.238-35.832-14.297s-27.313-15.16-44.668-17.064a61 61 0 0 0-6.608-.362zm0 56c-15.64-.006-32.777 5.972-50.11 20.341a12 12 0 0 0-1.58 16.899 12 12 0 0 0 16.897 1.578c16.192-13.424 27.64-15.823 38.783-14.6 11.145 1.223 22.832 7.238 35.832 14.297s27.313 15.16 44.668 17.064c17.356 1.905 36.909-3.558 56.717-19.98a12 12 0 0 0 1.58-16.899 12 12 0 0 0-16.896-1.578c-16.192 13.424-27.64 15.823-38.783 14.6-11.145-1.223-22.832-7.238-35.832-14.297s-27.313-15.16-44.668-17.064a61 61 0 0 0-6.608-.362zm0 56c-15.64-.006-32.777 5.972-50.11 20.341a12 12 0 0 0-1.58 16.899 12 12 0 0 0 16.897 1.578c16.192-13.424 27.64-15.823 38.783-14.6 11.145 1.223 22.832 7.238 35.832 14.297s27.313 15.16 44.668 17.064c17.356 1.905 36.909-3.558 56.717-19.98a12 12 0 0 0 1.58-16.899 12 12 0 0 0-16.896-1.578c-16.192 13.424-27.64 15.823-38.783 14.6-11.145-1.223-22.832-7.238-35.832-14.297s-27.313-15.16-44.668-17.064a61 61 0 0 0-6.608-.362z"/></svg>