<svg xmlns="http://www.w3.org/2000/svg" viewBox="0 0 256 256"><path d="M48.57 28.014a12 12 0 0 0-8.642 3.107 12 12 0 0 0-.807 16.951L76 88.64V224a12 12 0 0 0 12 12 12 12 0 0 0 12-12V115.04l16 17.599V192a12 12 0 0 0 12 12 12 12 0 0 0 12-12v-32.96l59.121 65.032a12 12 0 0 0 16.951.807 12 12 0 0 0 .807-16.951l-160-176a12 12 0 0 0-8.309-3.914zM128 52a12 12 0 0 0-12 12v4.54a12 12 0 0 0 12 12 12 12 0 0 0 12-12V64a12 12 0 0 0-12-12zm80 16a12 12 0 0 0-12 12v76.54a12 12 0 0 0 12 12 12 12 0 0 0 12-12V80a12 12 0 0 0-12-12zM48 84a12 12 0 0 0-12 12v64a12 12 0 0 0 12 12 12 12 0 0 0 12-12V96a12 12 0 0 0-12-12zm120 0a12 12 0 0 0-12 12v16.54a12 12 0 0 0 12 12 12 12 0 0 0 12-12V96a12 12 0 0 0-12-12z"/></svg>