<svg xmlns="http://www.w3.org/2000/svg" viewBox="0 0 256 256"><path d="M104 16c-17.578 0-32 14.422-32 32 0 14.819 10.25 27.394 24 30.977v10.841C63.996 97.126 40 125.83 40 160c0 39.67 32.33 72 72 72 33.468 0 63.662-22.576 71.748-54.008a8 8 0 0 0-5.756-9.74 8 8 0 0 0-9.74 5.756C162.138 197.776 138.172 216 112 216c-31.023 0-56-24.977-56-56 0-25.457 16.824-46.83 40-53.686V136a8 8 0 0 0 8 8h83.057l29.787 59.578a8 8 0 0 0 9.685 4.012l24-8a8 8 0 0 0 5.06-10.12 8 8 0 0 0-10.118-5.06l-17.418 5.807-28.897-57.795A8 8 0 0 0 192 128h-80v-24h56a8 8 0 0 0 8-8 8 8 0 0 0-8-8h-56v-9.023c13.75-3.583 24-16.158 24-30.977 0-17.578-14.422-32-32-32zm0 16c8.931 0 16 7.069 16 16s-7.069 16-16 16-16-7.069-16-16 7.069-16 16-16z"/></svg>