<svg xmlns="http://www.w3.org/2000/svg" viewBox="0 0 256 256"><path d="M80.09 24a8 8 0 0 0-7.674 5.738l-21.783 73.908-.002.006-.004.016c-6.867 23.08-.148 48.104 17.36 64.639l.027.025c14.762 13.816 33.15 21.575 51.986 23.281V232H88a8 8 0 0 0-8 8 8 8 0 0 0 8 8h80a8 8 0 0 0 8-8 8 8 0 0 0-8-8h-32v-40.389c18.822-1.713 37.195-9.473 51.947-23.279l.02-.02c17.534-16.527 24.272-41.569 17.4-64.664l-21.783-73.91A8 8 0 0 0 175.91 24zm5.982 16h83.856l20.097 68.191.008.02c.089.298.152.6.235.898-11.152 4.065-30.082 6.223-58.653-8.246l-.002-.002c-17.283-8.747-32.368-12.205-44.95-12.697a75.7 75.7 0 0 0-15.048.889zm-3.681 63.914c10.685-.221 24.54 2.39 41.996 11.225 29.348 14.861 52.296 14.371 67.5 10.125a47.8 47.8 0 0 1-14.889 31.398l-.006.006c-13.624 12.74-30.918 19.187-48.263 19.367A8 8 0 0 0 128 176a8 8 0 0 0-.344.045c-17.492-.08-34.962-6.538-48.699-19.389a47.82 47.82 0 0 1-12.99-48.441l.008-.024.445-1.513c4.237-1.455 9.512-2.63 15.97-2.764z"/></svg>