<svg xmlns="http://www.w3.org/2000/svg" viewBox="0 0 256 256"><path d="M158.838 19.975a76 76 0 0 0-4.266.185c-18.91 1.351-37.099 9.744-50.496 24.27-19.303 20.929-24.973 50.71-15.56 77.06l-57.612 52.653a12 12 0 0 0-.388.373c-13.975 13.974-13.975 36.994 0 50.968s36.994 13.975 50.968 0a12 12 0 0 0 .377-.392l52.62-57.635c26.346 9.42 56.127 3.762 77.062-15.533 23.249-21.428 30.804-55.13 18.928-84.432a12 12 0 0 0-19.258-4.31L172.436 98.96l-12.672-2.725-2.725-12.672 35.78-38.777a12 12 0 0 0-4.307-19.258 75.8 75.8 0 0 0-29.674-5.554zm-.313 24.056c.76.016 1.522.048 2.282.06l-25.625 27.772a12 12 0 0 0-2.914 10.658l5.66 26.34a12 12 0 0 0 9.21 9.211l26.34 5.66a12 12 0 0 0 10.659-2.914L211.9 95.201c.24 14.526-5.488 28.811-16.623 39.074a51.92 51.92 0 0 1-58.63 8.207 12 12 0 0 0-14.258 2.627l-57.922 63.44c-4.804 4.759-12.194 4.755-16.983-.033-4.789-4.79-4.792-12.18-.03-16.985l63.411-57.953a12 12 0 0 0 2.625-14.252 51.92 51.92 0 0 1 8.229-58.625 51.92 51.92 0 0 1 34.533-16.63 25 25 0 0 1 2.273-.04z"/></svg>