<svg xmlns="http://www.w3.org/2000/svg" viewBox="0 0 256 256"><path d="M48 28c-10.872 0-20 9.128-20 20v160c0 10.872 9.128 20 20 20h160c10.872 0 20-9.128 20-20V48c0-10.872-9.128-20-20-20zm4 24h152v152H52zm44 32a12 12 0 0 0-8.484 3.516 12 12 0 0 0 0 16.968L111.03 128l-23.515 23.516a12 12 0 0 0 0 16.968 12 12 0 0 0 16.968 0L128 144.97l23.516 23.515a12 12 0 0 0 16.968 0 12 12 0 0 0 0-16.968L144.97 128l23.515-23.516a12 12 0 0 0 0-16.968A12 12 0 0 0 160 84a12 12 0 0 0-8.484 3.516L128 111.03l-23.516-23.515A12 12 0 0 0 96 84z"/></svg>