<svg xmlns="http://www.w3.org/2000/svg" viewBox="0 0 256 256"><path d="M48 32c-8.726 0-16 7.274-16 16v160c0 8.726 7.274 16 16 16h160c8.726 0 16-7.274 16-16V48c0-8.726-7.274-16-16-16zm0 16h160v160H48zm48 40a8 8 0 0 0-5.656 2.344 8 8 0 0 0 0 11.312L116.688 128l-26.344 26.344a8 8 0 0 0 0 11.312 8 8 0 0 0 11.312 0L128 139.312l26.344 26.344a8 8 0 0 0 11.312 0 8 8 0 0 0 0-11.312L139.312 128l26.344-26.344a8 8 0 0 0 0-11.312A8 8 0 0 0 160 88a8 8 0 0 0-5.656 2.344L128 116.688l-26.344-26.344A8 8 0 0 0 96 88z"/></svg>