<svg xmlns="http://www.w3.org/2000/svg" viewBox="0 0 256 256"><path d="M128 20c-20.73 0-40.114 5.898-56.586 16.084a12 12 0 0 0-1.066.684A108.9 108.9 0 0 0 34.326 74.39a12 12 0 0 0-.715 1.242 107.1 107.1 0 0 0-13.222 43.582 12 12 0 0 0-.057.322l.014.242C20.14 122.496 20 125.232 20 128c0 27.652 10.483 52.917 27.666 72.053a12 12 0 0 0 .428.494C67.87 222.307 96.382 236 128 236h.004l104-.03A12 12 0 0 0 244 223.968a12 12 0 0 0-12.004-11.996l-36.232.01C220.274 192.156 236 161.87 236 128c0-.451-.028-.896-.033-1.346a12 12 0 0 0-.051-1.98c-.995-32.553-16.48-61.541-40.225-80.711a12 12 0 0 0-.666-.524C176.588 28.79 153.298 20 128 20zm0 24c12.503 0 24.34 2.727 34.982 7.586a228 228 0 0 0-18.97 10.531 227 227 0 0 0-32.153-16.562A85 85 0 0 1 128 44zM79.205 59.563a203 203 0 0 1 43.236 17.71 229 229 0 0 0-13.045 11.184 187 187 0 0 0-44.494-15.988 84 84 0 0 1 14.303-12.906zm107.012 7.81a84 84 0 0 1 10.988 12.914c-53.874 20.51-95.44 64.665-112.664 119.678a84 84 0 0 1-13.53-10.168A204.47 204.47 0 0 1 186.218 67.373zM51.045 94.219a163 163 0 0 1 40.746 12.394 229 229 0 0 0-10.445 12.928 147 147 0 0 0-35.325-9.902 83.5 83.5 0 0 1 5.024-15.42zm156.832 7.681a84 84 0 0 1 3.475 15.776c-42.362 16.159-75.053 50.885-88.627 94.144a84.4 84.4 0 0 1-15.965-2.513A164.24 164.24 0 0 1 207.877 101.9zm-163.67 31.735a123 123 0 0 1 23.545 6.312 228 228 0 0 0-13.914 27.625c-5.446-10.221-8.828-21.714-9.631-33.937zm166.232 10.547c-6.168 31.84-30.194 57.156-61.324 65.16a124.24 124.24 0 0 1 61.324-65.16z"/></svg>