<svg xmlns="http://www.w3.org/2000/svg" viewBox="0 0 256 256"><path d="M127.924 36c-.454-.01-55.661-1.112-93.242 13.385l-.102.039a28.03 28.03 0 0 0-16.848 19.234C15.136 78.794 12 97.321 12 128c0 30.689 3.137 49.212 5.783 59.432a28.03 28.03 0 0 0 16.774 19.134l.125.05C72.418 221.17 128.076 220 128.076 220c.454.009 55.661 1.112 93.242-13.385l.092-.035a28.03 28.03 0 0 0 16.848-19.15c2.65-10.216 5.781-28.75 5.781-59.43 0-30.666-3.13-49.18-5.775-59.404a28.03 28.03 0 0 0-16.844-19.223l-.115-.045C183.733 34.891 128.53 35.991 128.076 36zm0 24h.152s55.2.47 84.533 11.705a3.96 3.96 0 0 1 2.377 2.73l.028.108c2.03 7.83 5.025 24.368 5.025 53.457s-2.997 45.656-5.023 53.451l-.018.07a3.97 3.97 0 0 1-2.39 2.727C183.285 195.526 128.075 196 128.075 196h-.152s-55.179-.474-84.506-11.744a3.97 3.97 0 0 1-2.373-2.72l-.02-.079C38.995 173.627 36 157.089 36 128s2.993-45.64 4.994-53.436l.02-.078A3.96 3.96 0 0 1 43.4 71.75C72.724 60.474 127.924 60 127.924 60zM109.14 80.055a12 12 0 0 0-2.848.068A12 12 0 0 0 96 92v72a12.001 12.001 0 0 0 18.488 10.094l56-36a12 12 0 0 0 0-20.188l-56-36a12 12 0 0 0-5.347-1.851zM120 113.979 141.81 128 120 142.021z"/></svg>